<svg width="90" height="64" viewBox="0 0 90 64" fill="none" xmlns="http://www.w3.org/2000/svg">
<g clip-path="url(#clip0_15605_2912)">
<path d="M24.3797 64H90L37.4127 11.1681C30.4177 4.17094 20.9165 0 11.0051 0H0L0.820253 2.14245L4.46582 11.6923L24.3797 64Z" fill="url(#paint0_linear_15605_2912)"/>
<path d="M4.46588 11.7152C11.6431 23.9773 30.5089 25.2765 32.5595 44.3534C32.6507 45.1283 33.2431 45.7665 34.0178 45.8805C44.8861 47.5899 55.4583 52.0571 64.6633 59.4189C64.7317 59.4645 64.7773 59.4873 64.8684 59.4873C64.9596 59.4873 65.0279 59.4645 65.0963 59.3961C65.233 59.2822 65.233 59.0543 65.119 58.9403C58.7621 52.2395 50.9697 46.9061 42.2431 43.3734L39.5773 42.3021C38.2102 41.7551 37.2532 40.3876 37.2988 38.8377C37.4583 33.1397 50.9241 34.3021 52.2912 31.5443L52.519 31.0657C49.7393 28.6953 46.4355 26.9175 42.8127 25.9147C42.7899 26.0514 42.6988 26.7124 43.4279 27.9204C44.2254 29.2195 42.5393 31.3164 40.1013 29.06L39.8963 28.8776C21.6912 12.2394 8.0431 20.9004 0.820312 2.14258L4.46588 11.7152Z" fill="white"/>
<path d="M48.2582 30.8148C48.2582 30.8148 45.2734 30.9744 43.4278 27.9658C43.9746 28.8547 43.3822 30.1083 42.1519 30.1083V34.6667C44.1113 34.0969 46.3443 33.755 48.2354 33.3447V30.8148H48.2582Z" fill="url(#paint1_linear_15605_2912)"/>
<path d="M36.2734 46.2908C46.3443 48.2282 56.0962 52.5814 64.6633 59.4418C45.5696 43.1455 36.8886 46.0857 36.2734 46.2908Z" fill="url(#paint2_linear_15605_2912)"/>
<path d="M8.29373 12.5585C5.33171 10.4617 2.82538 7.36195 0.820312 2.14258L4.46588 11.6924C11.6431 23.9545 30.5089 25.2537 32.5596 44.3306C30.4861 20.0115 19.7773 23.6355 8.29373 12.5585Z" fill="url(#paint3_linear_15605_2912)"/>
</g>
<defs>
<linearGradient id="paint0_linear_15605_2912" x1="57.0867" y1="63.845" x2="13.2904" y2="-0.0977345" gradientUnits="userSpaceOnUse">
<stop stop-color="#BE0000"/>
<stop offset="0.3898" stop-color="#DE0000"/>
<stop offset="0.768" stop-color="#F60000"/>
<stop offset="1" stop-color="#FF0000"/>
</linearGradient>
<linearGradient id="paint1_linear_15605_2912" x1="44.9373" y1="34.8989" x2="45.5277" y2="28.1529" gradientUnits="userSpaceOnUse">
<stop offset="0.65" stop-color="white" stop-opacity="0"/>
<stop offset="0.7285" stop-color="#E0E0E0" stop-opacity="0.2617"/>
<stop offset="0.8148" stop-color="#C5C5C5" stop-opacity="0.5493"/>
<stop offset="0.8914" stop-color="#B5B5B5" stop-opacity="0.8047"/>
<stop offset="0.95" stop-color="#AFAFAF"/>
</linearGradient>
<linearGradient id="paint2_linear_15605_2912" x1="36.27" y1="52.7007" x2="64.6545" y2="52.7007" gradientUnits="userSpaceOnUse">
<stop stop-color="white" stop-opacity="0"/>
<stop offset="0.0839079" stop-color="#F1F1F1" stop-opacity="0.093231"/>
<stop offset="0.2921" stop-color="#D4D4D4" stop-opacity="0.3246"/>
<stop offset="0.4993" stop-color="#C0C0C0" stop-opacity="0.5548"/>
<stop offset="0.7032" stop-color="#B3B3B3" stop-opacity="0.7814"/>
<stop offset="0.9" stop-color="#AFAFAF"/>
</linearGradient>
<linearGradient id="paint3_linear_15605_2912" x1="0.819675" y1="23.2532" x2="32.5486" y2="23.2532" gradientUnits="userSpaceOnUse">
<stop offset="0.25" stop-color="white" stop-opacity="0"/>
<stop offset="0.4615" stop-color="#EDEDED" stop-opacity="0.282"/>
<stop offset="0.886" stop-color="#BDBDBD" stop-opacity="0.848"/>
<stop offset="1" stop-color="#AFAFAF"/>
</linearGradient>
<clipPath id="clip0_15605_2912">
<rect width="90" height="64" fill="white"/>
</clipPath>
</defs>
</svg>
