<svg width="90" height="64" viewBox="0 0 90 64" fill="none" xmlns="http://www.w3.org/2000/svg">
<g clip-path="url(#clip0_15605_2930)">
<path d="M37.4127 11.1681C30.4177 4.17094 20.9165 0 11.0051 0H0L0.820253 2.14245C8.04304 20.8775 21.6911 12.2165 39.8962 28.9231L40.1013 29.1054C42.562 31.3618 44.2253 29.265 43.4278 27.9658C42.6987 26.7578 42.7671 26.0969 42.8127 25.9601C46.4354 26.963 49.7392 28.7407 52.519 31.1111L52.2911 31.5897C50.924 34.3248 37.4354 33.1624 37.2987 38.8832C37.2532 40.4331 38.2101 41.8006 39.5772 42.3476L42.243 43.4188C50.9696 46.9288 58.762 52.2849 65.119 58.9858C65.2329 59.1225 65.2329 59.3276 65.0962 59.4416C65.0278 59.51 64.9595 59.5328 64.8684 59.5328C64.7772 59.5328 64.7316 59.51 64.6633 59.4644C55.4582 52.1026 44.8861 47.6125 34.0177 45.9259C33.243 45.812 32.6278 45.1738 32.5595 44.3989C30.5089 25.3219 11.6658 24.0228 4.46582 11.7607L24.3797 64H90L37.4127 11.1681Z" fill="white"/>
</g>
<defs>
<clipPath id="clip0_15605_2930">
<rect width="90" height="64" fill="white"/>
</clipPath>
</defs>
</svg>
