<svg width="48" height="48" viewBox="0 0 48 48" fill="none" xmlns="http://www.w3.org/2000/svg">
<path d="M44.2099 31.97C43.7699 31.97 43.3599 31.67 43.2399 31.22L41.7299 25.41C40.8699 22.32 39.6999 19 36.7899 18.97H36.7499C34.4299 18.97 32.8799 20.92 31.7399 25.3L30.1199 31.09C29.9699 31.62 29.4199 31.93 28.8899 31.78C28.3599 31.63 28.0499 31.08 28.1999 30.55L29.8199 24.77C30.3799 22.64 31.8599 16.96 36.7599 16.96H36.8199C41.4799 17 42.9099 22.13 43.6799 24.88L45.1899 30.7C45.3299 31.23 45.0099 31.78 44.4699 31.92C44.3899 31.94 44.2999 31.95 44.2199 31.95L44.2099 31.97Z" fill="#323232"/>
<path d="M36.88 15.27H36.82C33.45 15.24 30.73 12.47 30.76 9.10004C30.79 5.75004 33.53 3.04004 36.88 3.04004H36.94C40.31 3.07004 43.03 5.84004 43 9.21004C42.97 12.56 40.23 15.27 36.88 15.27ZM36.84 13.27H36.88C39.13 13.27 40.97 11.45 41 9.19004C41.02 6.92004 39.19 5.06004 36.92 5.03004H36.88C34.63 5.03004 32.78 6.85004 32.76 9.11004C32.74 11.38 34.57 13.24 36.84 13.26V13.27Z" fill="#323232"/>
<path d="M10.0306 15.0801H9.97062C8.33062 15.0701 6.80062 14.4101 5.66062 13.2501C4.52062 12.0801 3.89062 10.5401 3.91062 8.9101C3.94062 5.5601 6.68062 2.8501 10.0306 2.8501H10.0906C13.4606 2.8801 16.1806 5.6501 16.1506 9.0201C16.1406 10.6501 15.4906 12.1801 14.3206 13.3301C13.1706 14.4601 11.6506 15.0801 10.0406 15.0801H10.0306ZM10.0206 4.8501C7.77062 4.8501 5.92062 6.6701 5.90062 8.9301C5.89062 10.0301 6.31062 11.0701 7.08062 11.8501C7.85062 12.6401 8.88062 13.0701 9.98062 13.0801H10.0206C12.2706 13.0801 14.1106 11.2601 14.1306 9.0001C14.1506 6.7301 12.3206 4.8701 10.0506 4.8401H10.0106L10.0206 4.8501Z" fill="#323232"/>
<path d="M15.8605 31.9798C15.3105 31.9798 14.8605 31.5198 14.8705 30.9698L14.9705 20.2498C14.9705 19.8698 14.8305 19.5198 14.5705 19.2498C14.3105 18.9798 13.9505 18.8298 13.5705 18.8298L6.33048 18.7598C5.93048 18.7598 5.60048 18.8998 5.33048 19.1598C5.06048 19.4198 4.91048 19.7798 4.91048 20.1598L4.81048 30.8798C4.81048 31.4298 4.36048 31.8698 3.81048 31.8698C3.26048 31.8698 2.81048 31.4098 2.82048 30.8598L2.92048 20.1398C2.92048 19.2298 3.29048 18.3698 3.94048 17.7398C4.59048 17.1098 5.47048 16.7798 6.36048 16.7598L13.6005 16.8298C14.5105 16.8298 15.3705 17.1998 16.0005 17.8498C16.6405 18.4998 16.9905 19.3598 16.9805 20.2698L16.8805 30.9898C16.8805 31.5398 16.4305 31.9798 15.8805 31.9798H15.8605Z" fill="#323232"/>
<path d="M9.74072 45.0999H9.70072C8.68072 45.0999 7.72072 44.7399 6.99072 44.1099C6.22072 43.4399 5.80072 42.5399 5.81072 41.5699L5.88072 30.1599C5.88072 29.6099 6.33072 29.1699 6.88072 29.1699C7.43072 29.1699 7.88072 29.6199 7.87072 30.1799L7.80072 41.5899C7.80072 41.9599 7.97072 42.3199 8.30072 42.5999C8.67072 42.9199 9.17072 43.0999 9.72072 43.0999C10.7707 43.1199 11.6507 42.4499 11.6607 41.6199L11.7307 30.2199C11.7307 29.6699 12.1807 29.2299 12.7307 29.2299C13.2807 29.2299 13.7307 29.6799 13.7207 30.2399L13.6507 41.6499C13.6307 43.5699 11.8807 45.1099 9.73072 45.1099L9.74072 45.0999Z" fill="#323232"/>
<path d="M36.6509 45.0999H36.6109C34.4509 45.0799 32.7009 43.4999 32.7209 41.5699L32.7909 30.1599C32.7909 29.6099 33.2409 29.1699 33.7909 29.1699C34.3409 29.1699 34.7909 29.6199 34.7809 30.1799L34.7109 41.5899C34.7109 42.4199 35.5609 43.0999 36.6209 43.1099H36.6409C37.6909 43.1099 38.5509 42.4499 38.5609 41.6299L38.6309 30.2299C38.6309 29.6799 39.0809 29.2399 39.6309 29.2399C40.1809 29.2399 40.6309 29.6899 40.6209 30.2499L40.5509 41.6599C40.5309 43.5799 38.7809 45.1199 36.6309 45.1199L36.6509 45.0999Z" fill="#323232"/>
<path d="M30.6902 14.2502L27.6002 11.1602C27.2102 10.7702 26.5802 10.7702 26.1902 11.1602C25.8002 11.5502 25.8002 12.1802 26.1902 12.5702L27.5702 13.9502H19.3402L20.7202 12.5702C21.1102 12.1802 21.1102 11.5502 20.7202 11.1602C20.3302 10.7702 19.7002 10.7702 19.3102 11.1602L16.2202 14.2502C15.8302 14.6402 15.8302 15.2702 16.2202 15.6602L19.3102 18.7502C19.5102 18.9502 19.7602 19.0402 20.0202 19.0402C20.2802 19.0402 20.5302 18.9402 20.7302 18.7502C21.1202 18.3602 21.1202 17.7302 20.7302 17.3402L19.3502 15.9602H27.5802L26.2002 17.3402C25.8102 17.7302 25.8102 18.3602 26.2002 18.7502C26.4002 18.9502 26.6502 19.0402 26.9102 19.0402C27.1702 19.0402 27.4202 18.9402 27.6202 18.7502L30.7102 15.6602C31.1002 15.2702 31.1002 14.6402 30.7102 14.2502H30.6902Z" fill="#8DE2E0"/>
</svg>
