<svg width="48" height="48" viewBox="0 0 48 48" fill="none" xmlns="http://www.w3.org/2000/svg">
<path d="M12.2905 41.6892C12.0805 41.6892 11.8705 41.6092 11.7205 41.4392C11.4405 41.1292 11.4605 40.6392 11.7705 40.3592L12.5105 39.6892C12.8205 39.4092 13.3105 39.4292 13.5905 39.7392C13.8705 40.0492 13.8505 40.5392 13.5405 40.8192L12.8005 41.4892C12.6505 41.6192 12.4705 41.6892 12.2905 41.6892Z" fill="#8DE2E0"/>
<path d="M15.8901 38.4292C15.6801 38.4292 15.4701 38.3492 15.3201 38.1792C15.0401 37.8692 15.0601 37.3792 15.3701 37.0992L16.8001 35.8092C17.1101 35.5292 17.6001 35.5492 17.8801 35.8592C18.1601 36.1692 18.1401 36.6592 17.8301 36.9392L16.4001 38.2292C16.2501 38.3592 16.0701 38.4292 15.8901 38.4292ZM20.1801 34.5492C19.9701 34.5492 19.7601 34.4692 19.6101 34.2992C19.3301 33.9892 19.3501 33.4992 19.6601 33.2192L21.0901 31.9292C21.4001 31.6492 21.8901 31.6692 22.1701 31.9792C22.4501 32.2892 22.4301 32.7792 22.1201 33.0592L20.6901 34.3492C20.5401 34.4792 20.3601 34.5492 20.1801 34.5492ZM24.4801 30.6692C24.2701 30.6692 24.0601 30.5892 23.9101 30.4192C23.6301 30.1092 23.6501 29.6192 23.9601 29.3392L25.3901 28.0492C25.7001 27.7692 26.1901 27.7892 26.4701 28.0992C26.7501 28.4092 26.7301 28.8992 26.4201 29.1792L24.9901 30.4692C24.8401 30.5992 24.6601 30.6692 24.4801 30.6692ZM28.7701 26.7792C28.5601 26.7792 28.3501 26.6992 28.2001 26.5292C27.9201 26.2192 27.9401 25.7292 28.2501 25.4492L29.6801 24.1592C29.9901 23.8792 30.4801 23.8992 30.7601 24.2092C31.0401 24.5192 31.0201 25.0092 30.7101 25.2892L29.2801 26.5792C29.1301 26.7092 28.9501 26.7792 28.7701 26.7792ZM33.0601 22.8992C32.8501 22.8992 32.6401 22.8192 32.4901 22.6492C32.2101 22.3392 32.2301 21.8492 32.5401 21.5692L33.9701 20.2792C34.2801 19.9992 34.7701 20.0192 35.0501 20.3292C35.3301 20.6392 35.3101 21.1292 35.0001 21.4092L33.5701 22.6992C33.4201 22.8292 33.2401 22.8992 33.0601 22.8992ZM37.3601 19.0192C37.1501 19.0192 36.9401 18.9392 36.7901 18.7692C36.5101 18.4592 36.5301 17.9692 36.8401 17.6892L38.2701 16.3992C38.5801 16.1192 39.0701 16.1392 39.3501 16.4492C39.6301 16.7592 39.6101 17.2492 39.3001 17.5292L37.8701 18.8192C37.7201 18.9492 37.5401 19.0192 37.3601 19.0192Z" fill="#8DE2E0"/>
<path d="M41.6498 15.1394C41.4398 15.1394 41.2298 15.0594 41.0798 14.8894C40.7998 14.5794 40.8198 14.0894 41.1298 13.8094L41.8698 13.1394C42.1798 12.8594 42.6698 12.8794 42.9498 13.1894C43.2298 13.4994 43.2098 13.9894 42.8998 14.2694L42.1598 14.9394C42.0098 15.0694 41.8298 15.1394 41.6498 15.1394Z" fill="#8DE2E0"/>
<path d="M5.61078 35.0095C5.40078 35.0095 5.19078 34.9295 5.04078 34.7595C4.76078 34.4495 4.78078 33.9595 5.09078 33.6795L5.83078 33.0095C6.14078 32.7295 6.63078 32.7495 6.91078 33.0595C7.19078 33.3695 7.17078 33.8595 6.86078 34.1395L6.12078 34.8095C5.97078 34.9395 5.79078 35.0095 5.61078 35.0095Z" fill="#8DE2E0"/>
<path d="M9.21039 31.7495C9.00039 31.7495 8.79039 31.6695 8.64039 31.4995C8.36039 31.1895 8.38039 30.6995 8.69039 30.4195L10.1204 29.1295C10.4304 28.8495 10.9204 28.8695 11.2004 29.1795C11.4804 29.4895 11.4604 29.9795 11.1504 30.2595L9.72039 31.5495C9.57039 31.6795 9.39039 31.7495 9.21039 31.7495ZM13.5104 27.8695C13.3004 27.8695 13.0904 27.7895 12.9404 27.6195C12.6604 27.3095 12.6804 26.8195 12.9904 26.5395L14.4204 25.2495C14.7304 24.9695 15.2204 24.9895 15.5004 25.2995C15.7804 25.6095 15.7604 26.0995 15.4504 26.3795L14.0204 27.6695C13.8704 27.7995 13.6904 27.8695 13.5104 27.8695ZM17.8004 23.9895C17.5904 23.9895 17.3804 23.9095 17.2304 23.7395C16.9504 23.4295 16.9704 22.9395 17.2804 22.6595L18.7104 21.3695C19.0204 21.0895 19.5104 21.1095 19.7904 21.4195C20.0704 21.7295 20.0504 22.2195 19.7404 22.4995L18.3104 23.7895C18.1604 23.9195 17.9804 23.9895 17.8004 23.9895ZM22.0904 20.1095C21.8804 20.1095 21.6704 20.0295 21.5204 19.8595C21.2404 19.5495 21.2604 19.0595 21.5704 18.7795L23.0004 17.4895C23.3104 17.2095 23.8004 17.2295 24.0804 17.5395C24.3604 17.8495 24.3404 18.3395 24.0304 18.6195L22.6004 19.9095C22.4504 20.0395 22.2704 20.1095 22.0904 20.1095ZM26.3804 16.2195C26.1704 16.2195 25.9604 16.1395 25.8104 15.9695C25.5304 15.6595 25.5504 15.1695 25.8604 14.8895L27.2904 13.5995C27.6004 13.3195 28.0904 13.3395 28.3704 13.6495C28.6504 13.9595 28.6304 14.4495 28.3204 14.7295L26.8904 16.0195C26.7404 16.1495 26.5604 16.2195 26.3804 16.2195ZM30.6804 12.3395C30.4704 12.3395 30.2604 12.2595 30.1104 12.0895C29.8304 11.7795 29.8504 11.2895 30.1604 11.0095L31.5904 9.71949C31.9004 9.43949 32.3904 9.45949 32.6704 9.76949C32.9504 10.0795 32.9304 10.5695 32.6204 10.8495L31.1904 12.1395C31.0404 12.2695 30.8604 12.3395 30.6804 12.3395Z" fill="#8DE2E0"/>
<path d="M34.9702 8.45972C34.7602 8.45972 34.5502 8.37972 34.4002 8.20972C34.1202 7.89972 34.1402 7.40972 34.4502 7.12972L35.1902 6.45972C35.5002 6.17972 35.9902 6.19972 36.2702 6.50972C36.5502 6.81972 36.5302 7.30972 36.2202 7.58972L35.4802 8.25972C35.3302 8.38972 35.1502 8.45972 34.9702 8.45972Z" fill="#8DE2E0"/>
<path d="M40.5008 9.13953C40.5008 9.13953 40.4808 9.09953 40.4708 9.07953C40.4608 9.06953 40.4408 9.05953 40.4308 9.04953C36.3708 4.57953 30.5108 1.76953 24.0108 1.76953C11.7608 1.76953 1.80078 11.7295 1.80078 23.9695C1.80078 29.6695 3.96078 34.8695 7.50078 38.8095C7.51078 38.8295 7.52078 38.8495 7.53078 38.8595C7.54078 38.8695 7.56078 38.8795 7.57078 38.8895C11.6308 43.3595 17.4908 46.1695 24.0008 46.1695C36.2408 46.1695 46.2008 36.2095 46.2008 23.9695C46.2008 18.2695 44.0408 13.0695 40.5008 9.13953ZM24.0008 3.76953C29.5708 3.76953 34.6308 6.03953 38.2908 9.69953L8.38078 36.7495C5.52078 33.2695 3.81078 28.8095 3.81078 23.9695C3.80078 12.8395 12.8608 3.76953 24.0008 3.76953ZM24.0008 44.1695C18.4308 44.1695 13.3708 41.8995 9.71078 38.2395L39.6208 11.1895C42.4808 14.6695 44.1908 19.1295 44.1908 23.9695C44.1908 35.1095 35.1308 44.1695 23.9908 44.1695H24.0008Z" fill="#323232"/>
</svg>
