<svg width="48" height="48" viewBox="0 0 48 48" fill="none" xmlns="http://www.w3.org/2000/svg">
<path d="M19.07 43.0199H14.18V30.8199C17.61 30.5399 19.82 28.6999 21.1 27.1199C22.65 25.1899 23.61 22.6399 23.61 20.4499C23.61 19.8099 23.56 19.0299 23.5 18.1999V18.0199H23.49C23.2 14.0899 22.43 8.57992 22.42 8.52992C22.35 8.03992 21.93 7.66992 21.43 7.66992H4.93C4.43 7.66992 4.01 8.03992 3.94 8.52992C3.94 8.58992 3.17 14.0899 2.87 18.0199V18.1999C2.8 19.0299 2.75 19.8099 2.75 20.4499C2.75 24.4699 6.1 30.1799 12.18 30.8099V43.0199H7.29C6.74 43.0199 6.29 43.4699 6.29 44.0199C6.29 44.5699 6.74 45.0199 7.29 45.0199H19.07C19.62 45.0199 20.07 44.5699 20.07 44.0199C20.07 43.4699 19.62 43.0199 19.07 43.0199ZM4.75 20.4499C4.75 19.8799 4.8 19.1299 4.85 18.3399V18.1699C5.08 15.2199 5.57 11.3599 5.8 9.66992H20.55C20.78 11.3599 21.27 15.2199 21.49 18.1599V18.3399C21.55 19.1299 21.61 19.8799 21.61 20.4499C21.61 23.2999 19.1 28.8799 13.3 28.8799C7.5 28.8799 4.75 23.4799 4.75 20.4499Z" fill="#323232"/>
<path d="M41.0401 25.3899C38.5901 24.1299 36.0601 22.8299 36.0601 19.5399C36.0601 12.9099 38.7101 4.36991 38.7401 4.27991C38.8501 3.91991 38.7601 3.52991 38.4901 3.26991C38.2201 3.00991 37.8301 2.91991 37.4801 3.02991L25.0601 7.06991C24.8001 7.14991 24.5901 7.33991 24.4701 7.57991C24.3501 7.81991 24.3301 8.09991 24.4201 8.34991C26.2601 13.6699 26.2801 18.6899 26.2801 18.7499C26.2801 19.2999 26.7301 19.7499 27.2801 19.7499C27.8301 19.7499 28.2801 19.2999 28.2801 18.7499C28.2801 18.5399 28.2601 13.9299 26.6201 8.66991L36.3001 5.51991C35.4901 8.46991 34.0601 14.4399 34.0601 19.5399C34.0601 24.0499 37.5701 25.8499 40.1301 27.1699C42.0701 28.1699 43.2501 28.8299 43.2501 29.8899C43.2501 35.1799 36.1601 36.2899 30.2101 36.2899C24.2601 36.2899 20.6001 34.9599 19.4201 32.0899C19.2101 31.5799 18.6201 31.3399 18.1101 31.5499C17.6001 31.7599 17.3601 32.3499 17.5701 32.8599C19.1101 36.5699 23.1201 38.2899 30.2101 38.2899C39.9101 38.2899 45.2501 35.3099 45.2501 29.8899C45.2501 27.5599 43.1101 26.4599 41.0401 25.3999V25.3899Z" fill="#323232"/>
<path d="M6.55078 20.4502C6.55078 22.3402 8.56078 27.0802 13.3008 27.0802C18.0408 27.0802 19.8108 22.4002 19.8108 20.4502C19.8108 19.9502 19.7608 19.2402 19.7108 18.4602V18.4302H6.65078V18.4902C6.60078 19.2402 6.55078 19.9502 6.55078 20.4502Z" fill="#DF0000"/>
<path d="M20.3301 30.35C20.6501 30.63 20.9101 30.98 21.0801 31.39C21.4001 32.15 22.3601 34.48 30.2101 34.48C32.8501 34.48 36.6101 34.24 39.0401 33.08C40.4301 32.41 41.4501 30.91 41.4501 30.04C41.4501 29.17 39.2701 28.75 39.2501 28.74C39.0901 28.72 38.9201 28.71 38.7601 28.71H22.1101C21.6201 29.26 21.0301 29.83 20.3401 30.36L20.3301 30.35Z" fill="#DF0000"/>
</svg>
