<svg width="48" height="48" viewBox="0 0 48 48" fill="none" xmlns="http://www.w3.org/2000/svg">
<g clip-path="url(#clip0_17380_12495)">
<rect width="48" height="48" rx="12" fill="#F5F5F5"/>
<path d="M31.8046 32.125H29.4112C28.4015 32.125 27.8904 31.906 27.5289 31.4435C27.13 30.9445 27.13 30.1778 27.13 29.4477V16H30.209V29.8736C30.209 30.9689 30.3337 31.7599 31.8046 32.0763V32.125Z" fill="#050033"/>
<path d="M25.5843 32.1251H21.7324L18.9027 26.3688C17.357 27.1841 16.4719 29.0826 14.9137 30.3361C14.1159 30.969 13.181 31.5409 12.0217 31.9304C11.4981 32.1008 10.6006 32.332 10.264 32.3685C10.1269 32.3807 10.0272 32.3807 10.0022 32.332C9.98976 32.2955 10.0272 32.259 10.1767 32.1981C10.3513 32.1129 11.0493 31.833 11.4981 31.5288C12.0466 31.1515 12.3707 30.7499 12.3956 30.4335C12.246 29.9102 11.1615 28.7541 12.271 26.6243C12.6699 25.8576 13.0064 25.31 13.2558 24.7624C13.5425 24.1295 13.7419 23.229 13.8043 22.5718C13.8043 22.5353 13.8167 22.5353 13.8416 22.5596C14.3777 23.0951 16.4719 25.1883 16.1727 27.2815C16.8708 27.0259 18.0675 26.2349 18.6285 25.809C19.2143 25.3587 19.6008 24.8962 20.2241 24.884C20.785 24.8719 20.8224 25.1396 21.2712 25.1883C21.3834 25.2005 21.5454 25.1761 21.6327 25.1396C21.6701 25.1274 21.6576 25.0909 21.6077 25.0788C21.0094 24.9449 20.8598 24.4581 20.0745 24.4581C19.3764 24.4581 18.8154 25.0909 18.4165 25.3465L16.4345 21.3305C15.6118 19.651 15.8611 18.4219 17.6686 16.0244L25.5843 32.1251Z" fill="#050033"/>
<path d="M37.9875 32.125H35.6065C34.5968 32.125 34.0857 31.906 33.7242 31.4435C33.3253 30.9445 33.3253 30.1778 33.3253 29.4477V16H36.4043V29.8736C36.4043 30.9689 36.529 31.7599 37.9999 32.0763V32.125H37.9875Z" fill="#050033"/>
</g>
<defs>
<clipPath id="clip0_17380_12495">
<rect width="48" height="48" fill="white"/>
</clipPath>
</defs>
</svg>
