<svg width="24" height="24" viewBox="0 0 24 24" fill="none" xmlns="http://www.w3.org/2000/svg">
<g clip-path="url(#clip0_16335_12563)">
<path d="M20.4851 20.4853C25.1714 15.799 25.1714 8.20101 20.4851 3.51472C15.7988 -1.17157 8.20081 -1.17157 3.51452 3.51472C-1.17177 8.20101 -1.17177 15.799 3.51452 20.4853C8.20081 25.1716 15.7988 25.1716 20.4851 20.4853Z" fill="white"/>
<mask id="mask0_16335_12563" style="mask-type:luminance" maskUnits="userSpaceOnUse" x="-1" y="0" width="25" height="24">
<path d="M20.4851 20.4853C25.1714 15.799 25.1714 8.20101 20.4851 3.51472C15.7988 -1.17157 8.20081 -1.17157 3.51452 3.51472C-1.17177 8.20101 -1.17177 15.799 3.51452 20.4853C8.20081 25.1716 15.7988 25.1716 20.4851 20.4853Z" fill="white"/>
</mask>
<g mask="url(#mask0_16335_12563)">
<path d="M29.9993 0H-6.00067V24H29.9993V0Z" fill="white"/>
<path d="M12 0H-6.00067V24H12V0Z" fill="#007C29"/>
<path fill-rule="evenodd" clip-rule="evenodd" d="M12 5.98682C14.2667 5.98682 16.2399 7.24174 17.2657 9.09477C16.3923 7.95863 15.0199 7.22497 13.4771 7.22497C10.8401 7.22497 8.70202 9.36308 8.70202 12.0001C8.70202 14.6371 10.8401 16.7752 13.4771 16.7752C15.0213 16.7752 16.3937 16.0416 17.2657 14.9054C16.2413 16.7584 14.2667 18.0134 12 18.0134C8.67966 18.0134 5.98676 15.3205 5.98676 12.0001C5.98676 8.67972 8.67966 5.98682 12 5.98682Z" fill="#FF0000"/>
<path fill-rule="evenodd" clip-rule="evenodd" d="M15.3413 9.17285L15.3371 11.3459L17.4054 12.0153L15.3385 12.6833L15.3413 14.8549L14.0668 13.0941L12 13.7691L13.2801 12.0139L12 10.2587L14.0668 10.9323L15.3413 9.17285Z" fill="#FF0000"/>
</g>
</g>
<rect x="0.25" y="0.25" width="23.5" height="23.5" rx="11.75" stroke="#E5E3E1" stroke-width="0.5"/>
<defs>
<clipPath id="clip0_16335_12563">
<rect width="24" height="24" rx="12" fill="white"/>
</clipPath>
</defs>
</svg>
