<svg width="24" height="24" viewBox="0 0 24 24" fill="none" xmlns="http://www.w3.org/2000/svg">
<path d="M18.7584 13.4039C18.9913 13.6655 19.1601 13.9776 19.2517 14.3156C19.2517 14.3156 18.4649 14.2531 18.1496 14.4967C18.2174 14.7378 18.3528 14.9545 18.5399 15.1211C18.5399 15.1211 18.6086 15.2366 18.4462 15.3397C18.2323 15.4322 17.9857 15.4072 17.7947 15.2735C17.6038 15.1398 17.4958 14.9167 17.5096 14.684C17.2208 15.0243 16.7909 15.2122 16.345 15.1929C16.0482 15.1586 15.8142 14.9246 15.7799 14.6278C16.0842 14.6757 16.3958 14.6412 16.6822 14.5279C16.6248 14.2499 16.4493 14.0106 16.2014 13.8722C16.5199 13.5196 16.9398 13.2742 17.4034 13.1698C17.3097 12.6913 17.3343 12.1972 17.4752 11.7304C17.5943 11.3695 17.7351 11.0161 17.8967 10.672C18.0066 10.3707 18.0143 10.0415 17.9186 9.73539C18.4493 9.71972 18.9618 9.93004 19.3286 10.3141C19.6953 10.6981 19.8819 11.2197 19.8418 11.7492C19.8243 12.4579 19.4036 13.0944 18.7584 13.3883V13.4039ZM16.5979 16.9163L15.477 16.4012L16.5823 16.039L17.6376 16.5198L16.5979 16.9163ZM14.7246 15.0431C14.3278 14.9964 13.9892 14.7346 13.8442 14.3624C13.586 14.635 13.2152 14.7713 12.8419 14.7308C12.5444 14.682 12.313 14.4456 12.2706 14.147C12.8607 14.0284 13.0105 13.8129 13.0105 13.8129C12.8763 13.4351 12.2362 13.2291 12.2362 13.2291C12.5458 12.8174 12.9643 12.5005 13.4445 12.3143C13.1438 11.9827 12.9645 11.559 12.9356 11.1123C12.8986 10.6359 12.9196 10.1568 12.998 9.68544C13.1059 9.13973 13.3509 8.63046 13.7099 8.20554C13.8313 8.02507 14.0357 7.91818 14.2532 7.92142C14.4928 7.95378 14.7239 8.03224 14.9338 8.15246C15.2761 8.36248 15.5732 8.63841 15.808 8.96422C16.1804 9.68175 16.1896 10.5335 15.833 11.259C15.3147 12.4111 14.7839 12.6328 14.7839 12.6328C15.5832 13.4039 15.5801 13.7505 15.5801 13.7505C14.9182 13.7505 14.7433 14.1189 14.7433 14.1189C14.8916 14.3368 15.1132 14.4941 15.3678 14.5622C15.2875 14.8695 15.0045 15.0798 14.6871 15.068L14.7246 15.0431ZM14.2625 16.7727C14.0384 16.7727 13.8566 16.591 13.8566 16.3668C13.8566 16.1427 14.0384 15.961 14.2625 15.961C14.4867 15.961 14.6684 16.1427 14.6684 16.3668C14.6684 16.591 14.4867 16.7727 14.2625 16.7727ZM11.9927 16.7727L10.9374 16.3387L12.0146 15.9048L13.1104 16.3387L11.9927 16.7727ZM10.1975 14.3874C10.0524 14.7596 9.71379 15.0214 9.31703 15.068C9.0012 15.0792 8.72035 14.8686 8.64265 14.5622C8.89674 14.4931 9.11802 14.336 9.26708 14.1189C9.26708 14.1189 9.09224 13.7505 8.4241 13.7505C8.4241 13.7505 8.4241 13.4039 9.22961 12.6328C9.22961 12.6328 8.68636 12.4111 8.1712 11.259C7.81343 10.5332 7.82504 9.67999 8.20242 8.96422C8.43324 8.63607 8.72991 8.35961 9.0735 8.15246C9.28524 8.03148 9.51856 7.95299 9.76038 7.92138C9.97429 7.91896 10.1746 8.02617 10.2911 8.20554C10.6572 8.62662 10.905 9.1373 11.0092 9.68544C11.0911 10.1564 11.1121 10.6359 11.0717 11.1123C11.0551 11.5625 10.8804 11.9925 10.5784 12.3268C11.0564 12.5139 11.4727 12.8307 11.7804 13.2416C11.7804 13.2416 11.1372 13.4476 11.0092 13.8254C11.2103 14.0184 11.4715 14.1363 11.7492 14.1595C11.7062 14.4566 11.472 14.6895 11.1747 14.7308C10.8116 14.7689 10.4511 14.6376 10.1975 14.3749V14.3874ZM9.74789 16.7602C9.59725 16.7736 9.45198 16.7008 9.37254 16.5721C9.2931 16.4434 9.2931 16.2809 9.37254 16.1522C9.45198 16.0236 9.59725 15.9507 9.74789 15.9641C9.95412 15.9824 10.1122 16.1551 10.1122 16.3622C10.1122 16.5692 9.95412 16.742 9.74789 16.7602ZM7.42501 16.9163L6.37909 16.5386L7.44686 16.0515L8.5521 16.4199L7.42501 16.9163ZM5.55171 15.3553C5.4081 15.2522 5.45493 15.1367 5.45493 15.1367C5.64121 14.9753 5.77948 14.7658 5.85456 14.531C5.54235 14.2844 4.75869 14.3468 4.75869 14.3468C4.8452 14.0084 5.01353 13.6964 5.24887 13.4383C4.61418 13.1303 4.2063 12.492 4.19358 11.7866C4.15445 11.2577 4.34141 10.7369 4.70805 10.3536C5.07469 9.9703 5.58663 9.76039 6.11682 9.77598C6.02095 10.0808 6.02095 10.4078 6.11682 10.7126C6.28848 11.0497 6.43156 11.4006 6.54456 11.7617C6.68187 12.2248 6.70543 12.7143 6.61325 13.1885C7.0684 13.2989 7.48035 13.5424 7.79654 13.8879C7.32822 14.2001 7.32822 14.5466 7.32822 14.5466C7.61749 14.6622 7.93354 14.6936 8.23989 14.6372C8.20369 14.9348 7.96669 15.1679 7.66853 15.1992C7.22415 15.2172 6.79568 15.0322 6.50397 14.6965C6.51771 14.9292 6.40977 15.1523 6.21882 15.286C6.02787 15.4197 5.78125 15.4447 5.56733 15.3521L5.55171 15.3553ZM21.5965 11.7055C21.8369 11.6121 21.9843 11.3686 21.9555 11.1123C21.8957 10.8156 21.6106 10.6204 21.3123 10.672C21.5216 10.4811 21.5526 10.1629 21.3841 9.93521C21.2048 9.73976 20.9163 9.68975 20.6817 9.81345C20.8113 9.60479 20.7858 9.33526 20.6192 9.15467C20.4165 8.97982 20.1163 8.97982 19.9136 9.15467C19.9325 8.93104 19.807 8.7202 19.6014 8.63015C19.3786 8.54796 19.1281 8.61558 18.977 8.79875C18.7116 8.06504 18.1871 8.44282 18.0622 8.48653C17.9373 8.53024 17.931 8.48653 17.931 8.48653C17.9061 7.59984 17.1505 7.93079 17.1505 7.93079C17.2777 7.69303 17.2112 7.39795 16.9944 7.23767C16.7632 7.10168 16.469 7.14169 16.2826 7.33446C16.242 6.74749 15.808 6.92233 15.6581 6.97229C15.5208 6.99548 15.3821 7.00904 15.2429 7.01288C14.8386 6.94592 14.4279 6.92601 14.019 6.95356C12.9356 6.92546 12.0146 8.74567 12.0146 8.74567V8.76128V8.74567C12.0146 8.74567 11.0623 6.92546 9.98205 6.9598C9.57316 6.93245 9.16249 6.95236 8.75817 7.01912C8.61899 7.01502 8.48025 7.00146 8.34292 6.97853C8.20554 6.92858 7.77156 6.75374 7.74034 7.3407C7.55387 7.14641 7.25911 7.10394 7.02537 7.23767C6.81252 7.39914 6.74664 7.6903 6.86926 7.92767C6.86926 7.92767 6.1137 7.59672 6.08872 8.48341C6.08872 8.48341 6.08873 8.55522 5.95135 8.48341C5.81398 8.4116 5.31131 8.05568 5.04593 8.79563C4.89422 8.61328 4.64436 8.54582 4.4215 8.62703C4.21593 8.71707 4.09042 8.92792 4.10928 9.15155C3.90556 8.97623 3.60427 8.97623 3.40055 9.15155C3.232 9.33065 3.20388 9.6003 3.33186 9.81033C3.10237 9.68671 2.818 9.73712 2.64499 9.93209C2.46766 10.1556 2.49214 10.4779 2.70119 10.672C2.39472 10.6189 2.10249 10.8221 2.04554 11.1279C2.02002 11.3834 2.16632 11.6252 2.40458 11.7211C2.40458 11.7211 1.93314 11.9209 2.00807 12.3049C2.05101 12.5582 2.26644 12.7462 2.52323 12.7545C2.52323 12.7545 2.11735 13.023 2.28594 13.4039C2.39718 13.6724 2.69738 13.8089 2.97282 13.7161C2.97282 13.7161 2.77612 14.172 3.07897 14.378C3.26832 14.5211 3.52966 14.5211 3.71901 14.378C3.71901 14.378 3.90322 14.3093 3.98127 14.4436C3.98127 14.4436 4.11552 14.6559 3.83141 14.9712C3.83141 14.9712 5.35502 14.8401 5.76402 17.2941H18.212C18.6242 14.8401 20.1634 14.9712 20.1634 14.9712C19.8762 14.659 20.0166 14.4436 20.0166 14.4436C20.0853 14.3093 20.2727 14.378 20.2727 14.378C20.4656 14.5206 20.7291 14.5206 20.9221 14.378C21.2156 14.172 21.022 13.7161 21.022 13.7161C21.3008 13.8084 21.6039 13.6731 21.7213 13.4039C21.8712 13.0261 21.4684 12.7545 21.4684 12.7545C21.7291 12.753 21.95 12.5625 21.9898 12.3049C22.0741 11.9271 21.6058 11.7055 21.6058 11.7055H21.5965ZM5.91701 18.646C5.94511 18.9364 5.95135 19.2018 5.95135 19.2018H18.0403C18.0403 19.2018 18.0403 18.9489 18.0747 18.6804C18.109 18.4119 18.134 18.159 18.134 18.159H5.85769C5.85769 18.159 5.89515 18.4025 5.91701 18.646ZM11.3215 6.58826C11.1002 6.58396 10.8804 6.62431 10.6752 6.70691C11.2884 6.91899 11.7779 7.3891 12.0146 7.99323C12.2513 7.39023 12.7393 6.9205 13.3509 6.70691C13.147 6.62319 12.928 6.58279 12.7077 6.58826C12.6676 6.48952 12.6005 6.40405 12.5141 6.34161C12.6203 6.22415 12.7397 6.11938 12.87 6.0294L12.0146 4L11.1653 6.0294C11.2931 6.12016 11.4104 6.22488 11.515 6.34161C11.4269 6.40217 11.3593 6.48823 11.3215 6.58826Z" fill="#A6844B"/>
</svg>
