<svg width="24" height="24" viewBox="0 0 24 24" fill="none" xmlns="http://www.w3.org/2000/svg">
<path fill-rule="evenodd" clip-rule="evenodd" d="M21.8805 6.00547C18.0347 7.46 12.044 12.1076 12.6954 22C11.7943 21.8812 10.9261 21.6545 10.1053 21.3334C10.1325 17.1151 11.5068 12.1008 13.9936 9.02911C14.128 9.56806 14.3975 10.1254 14.8112 10.6771C16.7867 8.36214 19.0663 6.72761 21.8805 6.00547ZM14.354 6.6926C14.0247 7.18911 13.8674 7.76448 13.8964 8.38053C11.2288 11.0763 8.58961 15.2568 8.47043 20.5324C7.64467 20.0405 6.88717 19.4449 6.21631 18.7649C6.9381 14.0989 9.78421 9.22821 14.354 6.6926ZM15.1804 5.62742C12.4903 6.64379 6.87303 10.7567 5.06415 17.3942C4.4824 16.578 4.00817 15.6801 3.66125 14.722C5.74668 10.3054 9.77254 6.4645 15.1804 5.62742ZM17.3716 4.69346C14.3547 4.69947 7.12341 6.7658 3.19232 13.0048C2.97165 11.8328 2.94088 10.6297 3.10002 9.44853C6.60886 5.88205 11.8643 3.54483 17.3716 4.69346ZM22.0994 5.16309C19.0885 3.63465 10.205 2.00542 3.4823 7.69941C3.97705 6.0769 4.83357 4.60929 5.95709 3.39099C10.9155 1.30167 17.3164 1.31688 22.0994 5.16309ZM14.9965 7.25701C14.9573 7.28671 16.5561 4.97213 19.4351 5.38695C19.701 5.40993 19.5012 6.13313 19.3216 6.0716C18.9814 5.93191 18.6758 5.84102 18.389 5.7954C18.4541 6.25655 18.3282 6.68022 18.0092 6.91291C17.5106 7.27681 16.7128 7.05083 16.1667 6.41569C15.8181 6.63919 15.4361 6.92034 14.9965 7.25701ZM18.0202 5.76287C17.4646 5.75438 16.9543 5.9358 16.3517 6.2997C16.7991 6.79338 17.4307 6.98187 17.8186 6.67385C18.0269 6.50799 18.1252 6.11934 18.0202 5.76287Z" fill="#022145"/>
</svg>
