<svg width="48" height="48" viewBox="0 0 48 48" fill="none" xmlns="http://www.w3.org/2000/svg">
<path d="M19.64 38.88H3.75C3.2 38.88 2.75 38.43 2.75 37.88V6.25C2.75 5.7 3.2 5.25 3.75 5.25H43.51C44.06 5.25 44.51 5.7 44.51 6.25V19.61C44.51 20.16 44.06 20.61 43.51 20.61C42.96 20.61 42.51 20.16 42.51 19.61V15.38H4.75V36.88H19.64C20.19 36.88 20.64 37.33 20.64 37.88C20.64 38.43 20.19 38.88 19.64 38.88ZM4.75 13.38H42.51V7.25H4.75V13.38Z" fill="#323232"/>
<path d="M32.7006 41.7499C39.085 41.7499 44.2606 36.5743 44.2606 30.1899C44.2606 23.8055 39.085 18.6299 32.7006 18.6299C26.3162 18.6299 21.1406 23.8055 21.1406 30.1899C21.1406 36.5743 26.3162 41.7499 32.7006 41.7499Z" fill="#8DE2E0"/>
<path d="M32.7006 42.7499C25.7806 42.7499 20.1406 37.1199 20.1406 30.1899C20.1406 23.2599 25.7706 17.6299 32.7006 17.6299C39.6306 17.6299 45.2606 23.2599 45.2606 30.1899C45.2606 37.1199 39.6306 42.7499 32.7006 42.7499ZM32.7006 19.6399C26.8806 19.6399 22.1406 24.3799 22.1406 30.1999C22.1406 36.0199 26.8806 40.7599 32.7006 40.7599C38.5206 40.7599 43.2606 36.0199 43.2606 30.1999C43.2606 24.3799 38.5206 19.6399 32.7006 19.6399Z" fill="#323232"/>
<path d="M40.1304 27.5501C40.1804 27.4301 40.2104 27.3001 40.2104 27.1601C40.2104 27.0201 40.1804 26.9001 40.1304 26.7701C40.0804 26.6501 40.0104 26.5401 39.9104 26.4501L37.0204 23.5601C36.6304 23.1701 36.0004 23.1701 35.6104 23.5601C35.2204 23.9501 35.2204 24.5801 35.6104 24.9701L36.7904 26.1501H31.6504C31.1004 26.1501 30.6504 26.6001 30.6504 27.1501C30.6504 27.7001 31.1004 28.1501 31.6504 28.1501H36.7904L35.6104 29.3301C35.2204 29.7201 35.2204 30.3501 35.6104 30.7401C35.8104 30.9401 36.0604 31.0301 36.3204 31.0301C36.5804 31.0301 36.8304 30.9301 37.0304 30.7401L39.9204 27.8501C40.0104 27.7601 40.0804 27.6501 40.1304 27.5301V27.5501Z" fill="#323232"/>
<path d="M33.7403 32.2204H28.6003L29.7803 31.0404C30.1703 30.6504 30.1703 30.0204 29.7803 29.6304C29.3903 29.2404 28.7603 29.2404 28.3703 29.6304L25.4803 32.5204C25.3903 32.6104 25.3203 32.7204 25.2703 32.8404C25.1703 33.0804 25.1703 33.3604 25.2703 33.6004C25.3203 33.7204 25.3903 33.8304 25.4803 33.9204L28.3703 36.8104C28.5703 37.0104 28.8203 37.1004 29.0803 37.1004C29.3403 37.1004 29.5903 37.0004 29.7903 36.8104C30.1803 36.4204 30.1803 35.7904 29.7903 35.4004L28.6103 34.2204H33.7503C34.3003 34.2204 34.7503 33.7704 34.7503 33.2204C34.7503 32.6704 34.3003 32.2204 33.7503 32.2204H33.7403Z" fill="#323232"/>
<path d="M7.87063 11.7998C8.68801 11.7998 9.35063 11.1372 9.35063 10.3198C9.35063 9.50246 8.68801 8.83984 7.87063 8.83984C7.05324 8.83984 6.39062 9.50246 6.39062 10.3198C6.39062 11.1372 7.05324 11.7998 7.87063 11.7998Z" fill="#DF0000"/>
<path d="M12.5991 11.7998C13.4165 11.7998 14.0791 11.1372 14.0791 10.3198C14.0791 9.50246 13.4165 8.83984 12.5991 8.83984C11.7818 8.83984 11.1191 9.50246 11.1191 10.3198C11.1191 11.1372 11.7818 11.7998 12.5991 11.7998Z" fill="#323232"/>
<path d="M17.3101 11.7998C18.1275 11.7998 18.7901 11.1372 18.7901 10.3198C18.7901 9.50246 18.1275 8.83984 17.3101 8.83984C16.4927 8.83984 15.8301 9.50246 15.8301 10.3198C15.8301 11.1372 16.4927 11.7998 17.3101 11.7998Z" fill="#323232"/>
</svg>
