<svg width="48" height="48" viewBox="0 0 48 48" fill="none" xmlns="http://www.w3.org/2000/svg">
<path d="M12.1909 45.39C11.9909 45.39 11.7809 45.33 11.6109 45.21C11.3409 45.02 11.1909 44.72 11.1909 44.39V39.12H8.95094V44.39C8.95094 44.71 8.79094 45.02 8.53094 45.21C8.27094 45.4 7.93094 45.44 7.62094 45.34C4.68094 44.3 2.71094 41.51 2.71094 38.4C2.71094 35.78 4.13094 33.35 6.38094 32.04V16C4.13094 14.69 2.71094 12.26 2.71094 9.63997C2.71094 6.52997 4.68094 3.73997 7.62094 2.69997C7.93094 2.58997 8.26094 2.63997 8.53094 2.82997C8.79094 3.01997 8.95094 3.31997 8.95094 3.64997V8.91997H11.1909V3.63997C11.1909 3.31997 11.3509 3.00997 11.6109 2.81997C11.8809 2.62997 12.2209 2.58997 12.5209 2.68997C15.4609 3.72997 17.4309 6.51997 17.4309 9.62997C17.4309 12.25 16.0109 14.68 13.7609 15.99V32.03C16.0109 33.34 17.4309 35.77 17.4309 38.39C17.4309 41.5 15.4609 44.29 12.5209 45.33C12.4109 45.37 12.3009 45.39 12.1909 45.39ZM6.95094 5.27997C5.57094 6.26997 4.70094 7.87997 4.70094 9.63997C4.70094 11.71 5.91094 13.61 7.79094 14.49C8.14094 14.66 8.37094 15.01 8.37094 15.4V32.64C8.37094 33.03 8.15094 33.38 7.79094 33.55C5.91094 34.43 4.70094 36.34 4.70094 38.4C4.70094 40.15 5.56094 41.77 6.95094 42.76V38.13C6.95094 37.58 7.40094 37.13 7.95094 37.13H12.1909C12.7409 37.13 13.1909 37.58 13.1909 38.13V42.76C14.5709 41.77 15.4409 40.16 15.4409 38.4C15.4409 36.33 14.2309 34.43 12.3509 33.55C12.0009 33.38 11.7809 33.03 11.7809 32.64V15.39C11.7809 15 12.0009 14.65 12.3509 14.48C14.2309 13.6 15.4409 11.69 15.4409 9.62997C15.4409 7.87997 14.5809 6.25997 13.1909 5.26997V9.89996C13.1909 10.45 12.7409 10.9 12.1909 10.9H7.95094C7.40094 10.9 6.95094 10.45 6.95094 9.89996V5.26997V5.27997Z" fill="#323232"/>
<path d="M35.7508 8.55999C35.3608 8.55999 35.0508 8.24999 35.0508 7.85999C35.0508 7.46999 35.3608 7.15999 35.7508 7.15999H38.1108C38.1808 7.15999 38.2508 7.12999 38.2908 7.06999L40.7608 3.87999C40.8908 3.70999 41.0908 3.60999 41.3008 3.60999H41.5608C41.7208 3.60999 41.8308 3.75999 41.7808 3.90999L40.8408 6.85999C40.7908 7.00999 40.9008 7.15999 41.0608 7.15999H42.6908C42.6908 7.15999 42.7608 7.13999 42.7808 7.11999L43.6208 6.00999C43.6908 5.91999 43.7908 5.86999 43.9008 5.86999C43.9908 5.86999 44.1108 5.86999 44.2008 5.86999C44.2808 5.86999 44.3308 5.94999 44.3008 6.01999C44.1408 6.40999 43.7208 7.45999 43.5908 7.76999C43.5708 7.82999 43.5708 7.87999 43.5908 7.93999C43.7108 8.24999 44.1408 9.28999 44.3008 9.68999C44.3308 9.75999 44.2808 9.83999 44.2008 9.83999C44.1108 9.83999 44.0008 9.83999 43.9008 9.83999C43.7908 9.83999 43.6908 9.78999 43.6208 9.69999L42.7808 8.58999C42.7808 8.58999 42.7308 8.54999 42.6908 8.54999H41.0608C40.9008 8.54999 40.7908 8.69999 40.8408 8.84999L41.7808 11.8C41.8308 11.95 41.7208 12.1 41.5608 12.1H41.3008C41.0908 12.1 40.8908 12 40.7608 11.83L38.2908 8.63999C38.2508 8.57999 38.1808 8.54999 38.1108 8.54999H35.7508V8.55999Z" fill="#DF0000"/>
<path d="M32.2402 8.68997C32.6986 8.68997 33.0702 8.31836 33.0702 7.85997C33.0702 7.40157 32.6986 7.02997 32.2402 7.02997C31.7818 7.02997 31.4102 7.40157 31.4102 7.85997C31.4102 8.31836 31.7818 8.68997 32.2402 8.68997Z" fill="#323232"/>
<path d="M28.6796 8.68997C29.138 8.68997 29.5096 8.31836 29.5096 7.85997C29.5096 7.40157 29.138 7.02997 28.6796 7.02997C28.2212 7.02997 27.8496 7.40157 27.8496 7.85997C27.8496 8.31836 28.2212 8.68997 28.6796 8.68997Z" fill="#323232"/>
<path d="M25.121 8.68997C25.5794 8.68997 25.951 8.31836 25.951 7.85997C25.951 7.40157 25.5794 7.02997 25.121 7.02997C24.6626 7.02997 24.291 7.40157 24.291 7.85997C24.291 8.31836 24.6626 8.68997 25.121 8.68997Z" fill="#323232"/>
<path d="M21.5605 8.68997C22.0189 8.68997 22.3905 8.31836 22.3905 7.85997C22.3905 7.40157 22.0189 7.02997 21.5605 7.02997C21.1021 7.02997 20.7305 7.40157 20.7305 7.85997C20.7305 8.31836 21.1021 8.68997 21.5605 8.68997Z" fill="#323232"/>
<path d="M35.7508 24.71C35.3608 24.71 35.0508 24.4 35.0508 24.01C35.0508 23.62 35.3608 23.31 35.7508 23.31H38.1108C38.1808 23.31 38.2508 23.28 38.2908 23.22L40.7608 20.03C40.8908 19.86 41.0908 19.76 41.3008 19.76H41.5608C41.7208 19.76 41.8308 19.91 41.7808 20.06L40.8408 23.01C40.7908 23.16 40.9008 23.31 41.0608 23.31H42.6908C42.6908 23.31 42.7608 23.29 42.7808 23.27L43.6208 22.16C43.6908 22.07 43.7908 22.02 43.9008 22.02C43.9908 22.02 44.1108 22.02 44.2008 22.02C44.2808 22.02 44.3308 22.1 44.3008 22.17C44.1408 22.56 43.7208 23.61 43.5908 23.92C43.5708 23.98 43.5708 24.03 43.5908 24.09C43.7108 24.4 44.1408 25.44 44.3008 25.84C44.3308 25.91 44.2808 25.99 44.2008 25.99C44.1108 25.99 44.0008 25.99 43.9008 25.99C43.7908 25.99 43.6908 25.94 43.6208 25.85L42.7808 24.74C42.7808 24.74 42.7308 24.7 42.6908 24.7H41.0608C40.9008 24.7 40.7908 24.85 40.8408 25L41.7808 27.95C41.8308 28.1 41.7208 28.25 41.5608 28.25H41.3008C41.0908 28.25 40.8908 28.15 40.7608 27.98L38.2908 24.79C38.2508 24.73 38.1808 24.7 38.1108 24.7H35.7508V24.71Z" fill="#DF0000"/>
<path d="M32.2402 24.84C32.6986 24.84 33.0702 24.4684 33.0702 24.01C33.0702 23.5516 32.6986 23.18 32.2402 23.18C31.7818 23.18 31.4102 23.5516 31.4102 24.01C31.4102 24.4684 31.7818 24.84 32.2402 24.84Z" fill="#323232"/>
<path d="M28.6796 24.84C29.138 24.84 29.5096 24.4684 29.5096 24.01C29.5096 23.5516 29.138 23.18 28.6796 23.18C28.2212 23.18 27.8496 23.5516 27.8496 24.01C27.8496 24.4684 28.2212 24.84 28.6796 24.84Z" fill="#323232"/>
<path d="M25.121 24.84C25.5794 24.84 25.951 24.4684 25.951 24.01C25.951 23.5516 25.5794 23.18 25.121 23.18C24.6626 23.18 24.291 23.5516 24.291 24.01C24.291 24.4684 24.6626 24.84 25.121 24.84Z" fill="#323232"/>
<path d="M21.5605 24.84C22.0189 24.84 22.3905 24.4684 22.3905 24.01C22.3905 23.5516 22.0189 23.18 21.5605 23.18C21.1021 23.18 20.7305 23.5516 20.7305 24.01C20.7305 24.4684 21.1021 24.84 21.5605 24.84Z" fill="#323232"/>
<path d="M35.7508 40.84C35.3608 40.84 35.0508 40.53 35.0508 40.14C35.0508 39.75 35.3608 39.44 35.7508 39.44H38.1108C38.1808 39.44 38.2508 39.41 38.2908 39.35L40.7608 36.16C40.8908 35.99 41.0908 35.89 41.3008 35.89H41.5608C41.7208 35.89 41.8308 36.04 41.7808 36.19L40.8408 39.14C40.7908 39.29 40.9008 39.44 41.0608 39.44H42.6908C42.6908 39.44 42.7608 39.42 42.7808 39.4L43.6208 38.29C43.6908 38.2 43.7908 38.15 43.9008 38.15C43.9908 38.15 44.1108 38.15 44.2008 38.15C44.2808 38.15 44.3308 38.23 44.3008 38.3C44.1408 38.69 43.7208 39.74 43.5908 40.05C43.5708 40.11 43.5708 40.16 43.5908 40.22C43.7108 40.53 44.1408 41.57 44.3008 41.97C44.3308 42.04 44.2808 42.12 44.2008 42.12C44.1108 42.12 44.0008 42.12 43.9008 42.12C43.7908 42.12 43.6908 42.07 43.6208 41.98L42.7808 40.87C42.7808 40.87 42.7308 40.83 42.6908 40.83H41.0608C40.9008 40.83 40.7908 40.98 40.8408 41.13L41.7808 44.08C41.8308 44.23 41.7208 44.38 41.5608 44.38H41.3008C41.0908 44.38 40.8908 44.28 40.7608 44.11L38.2908 40.92C38.2508 40.86 38.1808 40.83 38.1108 40.83H35.7508V40.84Z" fill="#DF0000"/>
<path d="M32.2402 40.97C32.6986 40.97 33.0702 40.5984 33.0702 40.14C33.0702 39.6816 32.6986 39.31 32.2402 39.31C31.7818 39.31 31.4102 39.6816 31.4102 40.14C31.4102 40.5984 31.7818 40.97 32.2402 40.97Z" fill="#323232"/>
<path d="M28.6796 40.97C29.138 40.97 29.5096 40.5984 29.5096 40.14C29.5096 39.6816 29.138 39.31 28.6796 39.31C28.2212 39.31 27.8496 39.6816 27.8496 40.14C27.8496 40.5984 28.2212 40.97 28.6796 40.97Z" fill="#323232"/>
<path d="M25.121 40.97C25.5794 40.97 25.951 40.5984 25.951 40.14C25.951 39.6816 25.5794 39.31 25.121 39.31C24.6626 39.31 24.291 39.6816 24.291 40.14C24.291 40.5984 24.6626 40.97 25.121 40.97Z" fill="#323232"/>
<path d="M21.5605 40.97C22.0189 40.97 22.3905 40.5984 22.3905 40.14C22.3905 39.6816 22.0189 39.31 21.5605 39.31C21.1021 39.31 20.7305 39.6816 20.7305 40.14C20.7305 40.5984 21.1021 40.97 21.5605 40.97Z" fill="#323232"/>
</svg>
