<svg width="48" height="48" viewBox="0 0 48 48" fill="none" xmlns="http://www.w3.org/2000/svg">
<path d="M18.33 12.6601C18.33 14.2301 17.06 15.4901 15.5 15.4901H9.83C8.26 15.4901 7 14.2201 7 12.6601C7 11.1001 8.27 9.83008 9.83 9.83008H15.5C17.07 9.83008 18.33 11.1001 18.33 12.6601Z" fill="#8DE2E0"/>
<path d="M18.33 29.54C18.33 31.11 17.06 32.37 15.5 32.37H9.83C8.26 32.37 7 31.1 7 29.54C7 27.98 8.27 26.71 9.83 26.71H15.5C17.07 26.71 18.33 27.98 18.33 29.54Z" fill="#8DE2E0"/>
<path d="M40.9999 12.6601C40.9999 14.2301 39.7299 15.4901 38.1699 15.4901H32.4999C30.9299 15.4901 29.6699 14.2201 29.6699 12.6601C29.6699 11.1001 30.9399 9.83008 32.4999 9.83008H38.1699C39.7399 9.83008 40.9999 11.1001 40.9999 12.6601Z" fill="#8DE2E0"/>
<path d="M40.9999 29.54C40.9999 31.11 39.7299 32.37 38.1699 32.37H32.4999C30.9299 32.37 29.6699 31.1 29.6699 29.54C29.6699 27.98 30.9399 26.71 32.4999 26.71H38.1699C39.7399 26.71 40.9999 27.98 40.9999 29.54Z" fill="#8DE2E0"/>
<path d="M19.0898 20.3302C20.0198 19.6502 20.8398 18.8202 21.5098 17.8802C21.8898 17.3602 22.0398 16.7202 21.9298 16.0802C21.8298 15.4402 21.4798 14.8802 20.9598 14.5102C20.3798 14.1002 19.6898 13.9802 19.0498 14.1202C19.2298 13.6702 19.3398 13.1802 19.3398 12.6702C19.3398 10.5602 17.6198 8.84023 15.5098 8.84023H13.6798V2.74023C13.6798 2.19023 13.2298 1.74023 12.6798 1.74023C12.1298 1.74023 11.6798 2.19023 11.6798 2.74023V8.83023H9.84976C7.73976 8.83023 6.01976 10.5502 6.01976 12.6602C6.01976 13.2102 6.13976 13.7202 6.34976 14.1902C5.68976 14.0402 4.96976 14.1502 4.37976 14.5802C3.85976 14.9602 3.51976 15.5202 3.41976 16.1602C3.31976 16.8002 3.47976 17.4402 3.85976 17.9602C5.78976 20.5902 8.67976 22.0902 11.6898 22.3702V25.7002H9.85976C7.74976 25.7002 6.02976 27.4202 6.02976 29.5302C6.02976 30.0802 6.14976 30.5902 6.34976 31.0602C5.68976 30.9102 4.96976 31.0202 4.37976 31.4502C3.30976 32.2402 3.06976 33.7502 3.85976 34.8302C5.57976 37.1802 8.11976 38.7202 10.9998 39.1702C11.2298 39.2102 11.4598 39.2302 11.6898 39.2502V45.2402C11.6898 45.7902 12.1398 46.2402 12.6898 46.2402C13.2398 46.2402 13.6898 45.7902 13.6898 45.2402V39.2502C15.6298 39.0702 17.4998 38.3702 19.1198 37.1902C20.0498 36.5102 20.8698 35.6802 21.5398 34.7402C21.9198 34.2202 22.0698 33.5802 21.9598 32.9402C21.8598 32.3002 21.5098 31.7402 20.9898 31.3702C20.4098 30.9602 19.7198 30.8402 19.0798 30.9802C19.2598 30.5302 19.3698 30.0402 19.3698 29.5302C19.3698 27.4202 17.6498 25.7002 15.5398 25.7002H13.7098V22.3702C15.6098 22.1902 17.4898 21.5202 19.1398 20.3202L19.0898 20.3302ZM9.82976 10.8302H15.4998C16.5098 10.8302 17.3298 11.6502 17.3298 12.6602C17.3298 13.6702 16.5098 14.4902 15.4998 14.4902H9.82976C8.81976 14.4902 7.99976 13.6702 7.99976 12.6602C7.99976 11.6502 8.81976 10.8302 9.82976 10.8302ZM16.2398 16.4202C15.4798 16.9802 14.5998 17.3602 13.6398 17.5202C12.0398 17.7902 10.4298 17.4102 9.09976 16.4602C9.07976 16.4402 9.05976 16.4202 9.03976 16.4102C9.29976 16.4602 9.55976 16.5002 9.83976 16.5002H15.5098C15.7598 16.5002 16.0098 16.4702 16.2498 16.4302L16.2398 16.4202ZM5.43976 16.7902C5.34976 16.6702 5.34976 16.5402 5.35976 16.4802C5.36976 16.4202 5.39976 16.3002 5.52976 16.2102C5.59976 16.1602 5.68976 16.1302 5.77976 16.1302C5.90976 16.1302 6.02976 16.1902 6.11976 16.3002C6.62976 16.9902 7.23976 17.6002 7.93976 18.1002C9.69976 19.3602 11.8398 19.8502 13.9698 19.5002C16.0998 19.1502 17.9698 17.9902 19.2198 16.2302C19.3498 16.0402 19.6198 16.0002 19.7998 16.1302C19.9198 16.2202 19.9598 16.3402 19.9698 16.4002C19.9798 16.4602 19.9898 16.5902 19.8998 16.7102C19.3498 17.4802 18.6798 18.1502 17.9198 18.7102C13.9498 21.6102 8.35976 20.7502 5.44976 16.7902H5.43976ZM19.7898 33.0102C19.9098 33.1002 19.9498 33.2202 19.9598 33.2802C19.9698 33.3402 19.9798 33.4702 19.8898 33.5902C19.3398 34.3602 18.6698 35.0302 17.9098 35.5902C15.9898 37.0002 13.6398 37.5702 11.2798 37.2102C8.92976 36.8502 6.84976 35.5902 5.44976 33.6702C5.30976 33.4802 5.34976 33.2202 5.53976 33.0902C5.60976 33.0402 5.69976 33.0102 5.78976 33.0102C5.91976 33.0102 6.03976 33.0702 6.12976 33.1802C6.63976 33.8702 7.24976 34.4802 7.94976 34.9802C9.70976 36.2402 11.8498 36.7402 13.9798 36.3802C16.1098 36.0302 17.9798 34.8702 19.2298 33.1102C19.3598 32.9202 19.6298 32.8802 19.8098 33.0102M9.02976 33.2902C9.28976 33.3402 9.54976 33.3802 9.82976 33.3802H15.4998C15.7498 33.3802 15.9998 33.3502 16.2398 33.3102C15.4798 33.8702 14.5998 34.2502 13.6398 34.4102C12.0398 34.6802 10.4298 34.3002 9.09976 33.3502C9.07976 33.3302 9.05976 33.3102 9.03976 33.3002L9.02976 33.2902ZM17.3298 29.5402C17.3298 30.5502 16.5098 31.3702 15.4998 31.3702H9.82976C8.81976 31.3702 7.99976 30.5502 7.99976 29.5402C7.99976 28.5302 8.81976 27.7102 9.82976 27.7102H15.4998C16.5098 27.7102 17.3298 28.5302 17.3298 29.5402Z" fill="#323232"/>
<path d="M44.6092 32.9502C44.5092 32.3102 44.1592 31.7602 43.6392 31.3802C43.1192 31.0002 42.4792 30.8602 41.8392 30.9602C41.7992 30.9602 41.7692 30.9802 41.7292 30.9902C41.9092 30.5402 42.0192 30.0502 42.0192 29.5402C42.0192 27.4302 40.2992 25.7102 38.1892 25.7102H36.3592V22.3802C38.2592 22.2002 40.1392 21.5302 41.7892 20.3302C42.7192 19.6502 43.5392 18.8202 44.2092 17.8802C44.9892 16.8002 44.7392 15.2902 43.6592 14.5102C43.0792 14.1002 42.3892 13.9802 41.7492 14.1202C41.9292 13.6702 42.0392 13.1802 42.0392 12.6702C42.0392 10.5602 40.3192 8.84023 38.2092 8.84023H36.3792V2.74023C36.3792 2.19023 35.9292 1.74023 35.3792 1.74023C34.8292 1.74023 34.3792 2.19023 34.3792 2.74023V8.83023H32.5492C30.4392 8.83023 28.7192 10.5502 28.7192 12.6602C28.7192 13.2102 28.8392 13.7202 29.0392 14.1902C28.9792 14.1802 28.9292 14.1502 28.8692 14.1502C28.2292 14.0502 27.5892 14.2102 27.0692 14.5902C26.5492 14.9702 26.2092 15.5302 26.1092 16.1702C26.0092 16.8102 26.1692 17.4502 26.5492 17.9702C28.4792 20.6002 31.3692 22.1002 34.3792 22.3802V25.7102H32.5492C30.4392 25.7102 28.7192 27.4302 28.7192 29.5402C28.7192 30.0902 28.8392 30.6002 29.0392 31.0702C28.3792 30.9202 27.6592 31.0302 27.0692 31.4602C26.5492 31.8402 26.2092 32.4002 26.1092 33.0402C26.0092 33.6802 26.1692 34.3202 26.5492 34.8402C28.2692 37.1902 30.8092 38.7302 33.6892 39.1802C33.9192 39.2202 34.1492 39.2402 34.3792 39.2602V45.2502C34.3792 45.8002 34.8292 46.2502 35.3792 46.2502C35.9292 46.2502 36.3792 45.8002 36.3792 45.2502V39.2602C38.3192 39.0802 40.1892 38.3802 41.8092 37.2002C42.7392 36.5202 43.5592 35.6902 44.2292 34.7502C44.6092 34.2302 44.7592 33.5902 44.6492 32.9502H44.6092ZM32.4992 10.8302H38.1692C39.1792 10.8302 39.9992 11.6502 39.9992 12.6602C39.9992 13.6702 39.1792 14.4902 38.1692 14.4902H32.4992C31.4892 14.4902 30.6692 13.6702 30.6692 12.6602C30.6692 11.6502 31.4892 10.8302 32.4992 10.8302ZM38.9092 16.4202C38.1492 16.9802 37.2692 17.3602 36.3092 17.5202C34.7092 17.7902 33.0992 17.4102 31.7692 16.4602C31.7492 16.4402 31.7292 16.4202 31.7092 16.4102C31.9692 16.4602 32.2292 16.5002 32.5092 16.5002H38.1792C38.4292 16.5002 38.6792 16.4702 38.9192 16.4302L38.9092 16.4202ZM28.1092 16.7902C28.0192 16.6702 28.0192 16.5402 28.0292 16.4802C28.0292 16.4202 28.0692 16.3002 28.1992 16.2102C28.2892 16.1502 28.3792 16.1302 28.4492 16.1302C28.4692 16.1302 28.4992 16.1302 28.5092 16.1302C28.5692 16.1302 28.6892 16.1702 28.7792 16.3002C29.2892 16.9902 29.8992 17.6002 30.5992 18.1002C32.3592 19.3602 34.4992 19.8602 36.6292 19.5002C38.7592 19.1502 40.6292 17.9902 41.8792 16.2302C41.9692 16.1102 42.0892 16.0702 42.1492 16.0602C42.2092 16.0502 42.3392 16.0502 42.4592 16.1302C42.5792 16.2202 42.6192 16.3402 42.6292 16.4002C42.6392 16.4602 42.6392 16.5902 42.5592 16.7102C42.0092 17.4802 41.3392 18.1502 40.5792 18.7102C36.6092 21.6202 31.0192 20.7502 28.1092 16.7902ZM32.4992 27.7102H38.1692C39.1792 27.7102 39.9992 28.5302 39.9992 29.5402C39.9992 30.5502 39.1792 31.3702 38.1692 31.3702H32.4992C31.4892 31.3702 30.6692 30.5502 30.6692 29.5402C30.6692 28.5302 31.4892 27.7102 32.4992 27.7102ZM38.9092 33.3002C38.1492 33.8602 37.2692 34.2402 36.3092 34.4002C34.7092 34.6702 33.0992 34.2902 31.7692 33.3402C31.7492 33.3202 31.7292 33.3002 31.7092 33.2902C31.9692 33.3402 32.2292 33.3802 32.5092 33.3802H38.1792C38.4292 33.3802 38.6792 33.3502 38.9192 33.3102L38.9092 33.3002ZM42.4592 33.0102C42.5792 33.1002 42.6192 33.2202 42.6292 33.2802C42.6392 33.3402 42.6392 33.4702 42.5592 33.5902C42.0092 34.3602 41.3392 35.0302 40.5792 35.5902C38.6592 37.0002 36.2992 37.5702 33.9492 37.2102C31.5992 36.8502 29.5192 35.5902 28.1192 33.6702C28.0292 33.5502 28.0292 33.4202 28.0392 33.3602C28.0392 33.3002 28.0792 33.1802 28.2092 33.0902C28.2792 33.0402 28.3692 33.0102 28.4592 33.0102C28.5892 33.0102 28.7092 33.0702 28.7992 33.1802C29.3092 33.8702 29.9192 34.4802 30.6192 34.9802C32.3792 36.2402 34.5192 36.7402 36.6492 36.3802C38.7792 36.0302 40.6492 34.8702 41.8992 33.1102C41.9892 32.9902 42.1092 32.9502 42.1692 32.9402C42.2292 32.9302 42.3592 32.9302 42.4792 33.0102" fill="#323232"/>
</svg>
