<svg width="24" height="24" viewBox="0 0 24 24" fill="none" xmlns="http://www.w3.org/2000/svg">
<g clip-path="url(#clip0_16335_10706)">
<path d="M23.6789 14.7568C25.2013 8.30659 21.2066 1.84354 14.7564 0.321152C8.30617 -1.20123 1.84311 2.79355 0.320729 9.24374C-1.20165 15.6939 2.79312 22.157 9.24332 23.6794C15.6935 25.2018 22.1566 21.207 23.6789 14.7568Z" fill="white"/>
<mask id="mask0_16335_10706" style="mask-type:luminance" maskUnits="userSpaceOnUse" x="-1" y="-1" width="26" height="26">
<path d="M23.6789 14.7568C25.2013 8.30659 21.2066 1.84354 14.7564 0.321152C8.30617 -1.20123 1.84311 2.79355 0.320729 9.24374C-1.20165 15.6939 2.79312 22.157 9.24332 23.6794C15.6935 25.2018 22.1566 21.207 23.6789 14.7568Z" fill="white"/>
</mask>
<g mask="url(#mask0_16335_10706)">
<path d="M29.9993 0H-6.00073V24H29.9993V0Z" fill="white"/>
<path fill-rule="evenodd" clip-rule="evenodd" d="M21.1939 23.9999H-6.00073V5.87061L21.1939 23.9999Z" fill="#FED700"/>
<path fill-rule="evenodd" clip-rule="evenodd" d="M4.08057 0H29.9993V17.2796L4.08057 0Z" fill="#FED700"/>
<path fill-rule="evenodd" clip-rule="evenodd" d="M29.9993 24H21.1939L-6.00073 5.87073V0L29.9993 24Z" fill="black"/>
<path fill-rule="evenodd" clip-rule="evenodd" d="M15.727 9.48333C16.3852 10.2757 16.7807 11.2819 16.7807 12.3775C16.7807 14.9306 14.6412 17.0003 12.0014 17.0003C9.36156 17.0003 7.22205 14.9306 7.22205 12.3775C7.22205 11.2819 7.61613 10.2757 8.27433 9.48333C7.96969 10.0465 7.7964 10.6879 7.7964 11.3671C7.7964 13.6128 9.67878 15.4337 12.0014 15.4337C14.3239 15.4337 16.2063 13.6128 16.2063 11.3671C16.2063 10.6865 16.033 10.0465 15.7284 9.48193L15.727 9.48333Z" fill="#C8102E"/>
<path fill-rule="evenodd" clip-rule="evenodd" d="M3.80383 9.71218C3.80383 9.67166 3.83737 9.63812 3.8779 9.63812C3.90305 9.63812 3.92401 9.6493 3.93799 9.66886C4.0428 9.82118 4.10289 10.0056 4.10289 10.2055C4.10289 10.2614 4.0987 10.3145 4.08892 10.3676C4.34605 10.566 4.47601 10.8581 4.47042 11.1809C4.79743 11.3207 5.0881 11.5261 5.32707 11.7818C5.32986 11.7469 5.33126 11.7119 5.33126 11.677C5.33126 11.4129 5.24322 11.1697 5.09509 10.9755C5.02521 10.8833 4.88128 10.5884 5.00844 10.5157C5.07133 10.4794 5.17894 10.5409 5.26837 10.6597C5.50594 10.9615 5.78683 11.227 6.10266 11.4478C6.25917 11.561 6.3528 11.7469 6.3528 11.9411V14.5097C6.17253 14.6257 5.95732 14.6941 5.72674 14.6941C5.49616 14.6941 5.28095 14.6271 5.10068 14.5097V12.5896C5.10068 12.4694 5.05316 12.366 4.96932 12.2821L4.21329 11.5261C4.1518 11.4632 4.10009 11.3794 4.07774 11.2941L3.8206 10.3341C3.80942 10.2921 3.80383 10.2474 3.80383 10.2041V9.71358V9.71218ZM4.73175 9.8687V9.89944C4.78765 10.0294 4.81699 10.1678 4.81699 10.3103C4.81699 10.3536 4.8142 10.3969 4.80861 10.4403C4.84075 10.4682 4.87149 10.4962 4.89944 10.5269C4.91342 10.4948 4.93578 10.4668 4.97071 10.4472C4.99028 10.4361 5.00984 10.4305 5.02941 10.4277C5.0308 10.4053 5.0322 10.383 5.0322 10.3606C5.0322 10.1622 4.97071 9.9777 4.8673 9.82398C4.85333 9.80441 4.83097 9.79323 4.80721 9.79323C4.76668 9.79323 4.73314 9.82677 4.73314 9.8673L4.73175 9.8687ZM4.43968 9.81979V9.90503C4.46902 10.0015 4.4844 10.1035 4.4844 10.2055C4.4844 10.2488 4.4816 10.2921 4.47601 10.3354C4.68144 10.5087 4.80861 10.7435 4.84215 11.0104C4.93997 11.0454 5.0336 11.0929 5.12024 11.1516C5.09509 11.1055 5.06714 11.0621 5.035 11.0202C4.97211 10.9378 4.88407 10.7645 4.88267 10.6247C4.83795 10.5702 4.78485 10.5199 4.72616 10.4738C4.73594 10.4207 4.74013 10.3662 4.74013 10.3117C4.74013 10.1133 4.67864 9.92879 4.57523 9.77507C4.56126 9.7555 4.5389 9.74432 4.51514 9.74432C4.47461 9.74432 4.44108 9.77786 4.44108 9.81839L4.43968 9.81979ZM4.10848 9.71218V9.82817C4.15599 9.94696 4.17975 10.0755 4.17975 10.2055C4.17975 10.2488 4.17696 10.2921 4.17137 10.3354C4.41033 10.5367 4.5389 10.819 4.54588 11.1306C4.81001 11.2494 5.04757 11.4087 5.253 11.5988C5.24601 11.4953 5.22365 11.3933 5.18732 11.2969C5.06714 11.1949 4.92599 11.1152 4.77227 11.0663C4.74852 10.7896 4.62135 10.5423 4.39496 10.3662C4.40334 10.3131 4.40893 10.2586 4.40893 10.2041C4.40893 10.0056 4.34745 9.82118 4.24403 9.66746C4.23006 9.6479 4.2077 9.63672 4.18394 9.63672C4.14342 9.63672 4.10988 9.67026 4.10988 9.71078L4.10848 9.71218Z" fill="#C8102E"/>
<path fill-rule="evenodd" clip-rule="evenodd" d="M5.72676 15.6122C6.05795 15.6122 6.37099 15.534 6.64768 15.397C6.68961 15.3788 6.71895 15.3383 6.71895 15.2908C6.71895 15.2265 6.66725 15.1748 6.60296 15.1748C6.58899 15.1748 6.56523 15.179 6.55265 15.186C6.30391 15.3104 6.02302 15.3802 5.72676 15.3802C5.43049 15.3802 5.14821 15.3104 4.90086 15.186C4.88828 15.179 4.86592 15.1748 4.85055 15.1748C4.78626 15.1748 4.73456 15.2265 4.73456 15.2908C4.73456 15.3383 4.7639 15.3802 4.80583 15.397C5.08392 15.534 5.39695 15.6122 5.72676 15.6122Z" fill="#C8102E"/>
<path fill-rule="evenodd" clip-rule="evenodd" d="M5.72674 15.3063C6.02301 15.3063 6.3011 15.2336 6.54566 15.1051C6.58618 15.0841 6.61134 15.0464 6.61134 15.0003C6.61134 14.936 6.55963 14.8843 6.49535 14.8843C6.47578 14.8843 6.45482 14.8899 6.43805 14.8996C6.22564 15.0114 5.98248 15.0743 5.72535 15.0743C5.46821 15.0743 5.22645 15.0114 5.01264 14.8996C4.99447 14.8899 4.97491 14.8843 4.95534 14.8843C4.89106 14.8843 4.83936 14.936 4.83936 15.0003C4.83936 15.0464 4.86451 15.0841 4.90504 15.1051C5.14959 15.2336 5.42908 15.3063 5.72395 15.3063H5.72674Z" fill="#C8102E"/>
<path fill-rule="evenodd" clip-rule="evenodd" d="M5.72677 14.9988C5.97272 14.9988 6.2033 14.9388 6.40593 14.8311C6.44646 14.8116 6.47161 14.7725 6.47161 14.7263C6.47161 14.6621 6.41991 14.6104 6.35563 14.6104C6.33466 14.6104 6.3151 14.6159 6.29833 14.6257C6.12784 14.7152 5.93219 14.7669 5.72537 14.7669C5.51855 14.7669 5.3229 14.7166 5.15241 14.6257C5.13424 14.6159 5.11608 14.6104 5.09511 14.6104C5.03083 14.6104 4.97913 14.6621 4.97913 14.7263C4.97913 14.7725 5.00428 14.8102 5.04481 14.8311C5.24744 14.9374 5.47942 14.9988 5.72537 14.9988H5.72677Z" fill="#C8102E"/>
<path fill-rule="evenodd" clip-rule="evenodd" d="M12 18.5178C11.0287 18.5178 10.1134 18.2606 9.31124 17.8065C9.31544 17.8302 9.31683 17.854 9.31683 17.8791C9.31683 18.1307 9.1128 18.3347 8.86126 18.3347C8.53984 18.3347 8.17511 18.1502 7.95151 17.9267C7.71534 17.6989 7.39253 17.5591 7.03897 17.5591C6.8014 17.5591 6.5806 17.622 6.38775 17.731C6.37238 17.7394 6.35701 17.7436 6.33884 17.7436C6.28434 17.7436 6.23962 17.6989 6.23962 17.6444C6.23962 17.6318 6.24242 17.6206 6.24521 17.6094C6.31928 17.3747 6.51912 17.1972 6.76647 17.1539C6.69799 17.0812 6.65607 16.9848 6.65607 16.8772C6.65607 16.6843 6.78883 16.525 6.97469 16.4831C7.25698 16.416 7.55463 16.4523 7.81037 16.5837C7.7405 16.5054 7.67342 16.4244 7.60774 16.3419C7.53367 16.2553 7.48895 16.1435 7.48895 16.0205C7.48895 15.7466 7.71115 15.5244 7.98366 15.5244C8.122 15.5244 8.24638 15.5789 8.3428 15.6781C9.25535 16.6242 10.5564 17.2153 12 17.2153C13.4435 17.2153 14.7432 16.6242 15.6571 15.6781C15.7521 15.5803 15.8779 15.5244 16.0163 15.5244C16.2902 15.5244 16.5124 15.7466 16.5124 16.0205C16.5124 16.1435 16.4676 16.2553 16.3936 16.3419C16.3279 16.4244 16.2608 16.5054 16.1909 16.5837C16.4467 16.4523 16.7457 16.4146 17.0266 16.4831C17.2139 16.5264 17.3452 16.6843 17.3452 16.8772C17.3452 16.9848 17.3033 17.0812 17.2348 17.1539C17.4808 17.1972 17.682 17.3761 17.7561 17.6094C17.7603 17.6206 17.7617 17.6318 17.7617 17.6444C17.7617 17.6989 17.717 17.7436 17.6625 17.7436C17.6443 17.7436 17.6289 17.7394 17.6136 17.731C17.4221 17.622 17.1999 17.5591 16.9623 17.5591C16.6074 17.5591 16.286 17.6989 16.0498 17.9267C15.8262 18.1502 15.4601 18.3347 15.1401 18.3347C14.8885 18.3347 14.6845 18.1307 14.6845 17.8791C14.6845 17.854 14.6859 17.8302 14.6901 17.8065C13.8879 18.2606 12.9726 18.5178 12.0014 18.5178H12Z" fill="#C8102E"/>
<path fill-rule="evenodd" clip-rule="evenodd" d="M11.9999 14.0754L11.6827 14.598C11.6492 14.6525 11.631 14.7042 11.631 14.7699C11.631 14.7978 11.6352 14.8244 11.6422 14.8496C11.5304 14.7741 11.2886 14.6525 11.2886 14.3003C11.2886 13.9482 11.3683 13.6435 11.5094 13.3613C11.5542 13.269 11.5779 13.1642 11.5779 13.0552C11.5779 12.8652 11.5038 12.6919 11.3823 12.5647C11.4102 12.5591 11.4382 12.5563 11.4675 12.5563C11.6128 12.5563 11.7442 12.6234 11.8281 12.7296C11.842 12.6038 11.9063 12.492 11.9999 12.418C12.0936 12.4934 12.1579 12.6038 12.1718 12.7296C12.2571 12.6248 12.387 12.5563 12.5324 12.5563C12.5617 12.5563 12.5897 12.5591 12.6176 12.5647C12.496 12.6919 12.422 12.8652 12.422 13.0552C12.422 13.1656 12.4471 13.269 12.4905 13.3613C12.6316 13.6449 12.7113 13.9636 12.7113 14.3003C12.7113 14.6371 12.4695 14.7755 12.3577 14.8496C12.3647 14.823 12.3689 14.7964 12.3689 14.7699C12.3689 14.7042 12.3507 14.6539 12.3172 14.598L11.9999 14.0754Z" fill="#C8102E"/>
<path fill-rule="evenodd" clip-rule="evenodd" d="M12 15.3593C11.434 15.3593 10.9463 15.0281 10.7199 14.5502C10.8373 14.6158 10.9659 14.6661 11.1014 14.6969C11.3222 14.7458 11.5234 14.845 11.6925 14.9834C11.7009 14.9904 11.7107 14.9945 11.7233 14.9945C11.7498 14.9945 11.7708 14.9736 11.7708 14.947C11.7708 14.9358 11.7666 14.9261 11.7596 14.9177C11.7261 14.8772 11.7065 14.8268 11.7065 14.7709C11.7065 14.7192 11.7219 14.6815 11.747 14.6396L11.9986 14.2231L12.2501 14.6396C12.2767 14.6829 12.2907 14.7206 12.2907 14.7709C12.2907 14.8268 12.2711 14.8786 12.2376 14.9177C12.2306 14.9261 12.2278 14.9358 12.2278 14.947C12.2278 14.9736 12.2487 14.9945 12.2753 14.9945C12.2865 14.9945 12.2976 14.9904 12.306 14.9834C12.4751 14.845 12.6764 14.7444 12.8972 14.6969C13.0327 14.6661 13.1613 14.6158 13.2787 14.5502C13.0509 15.0295 12.5632 15.3593 11.9986 15.3593H12Z" fill="#C8102E"/>
<path fill-rule="evenodd" clip-rule="evenodd" d="M20.1961 9.71218C20.1961 9.67166 20.1625 9.63812 20.122 9.63812C20.0968 9.63812 20.0759 9.6493 20.0619 9.66886C19.9571 9.82118 19.897 10.0056 19.897 10.2055C19.897 10.2614 19.9012 10.3145 19.911 10.3676C19.6538 10.566 19.5239 10.8581 19.5295 11.1809C19.2025 11.3207 18.9118 11.5261 18.6728 11.7818C18.67 11.7469 18.6686 11.7119 18.6686 11.677C18.6686 11.4129 18.7567 11.1697 18.9048 10.9755C18.9747 10.8833 19.1186 10.5884 18.9915 10.5157C18.9286 10.4794 18.821 10.5409 18.7315 10.6597C18.494 10.9615 18.2131 11.227 17.8972 11.4478C17.7407 11.561 17.6471 11.7469 17.6471 11.9411V14.5097C17.8274 14.6257 18.0426 14.6941 18.2732 14.6941C18.5037 14.6941 18.7189 14.6271 18.8992 14.5097V12.5896C18.8992 12.4694 18.9467 12.366 19.0306 12.2821L19.7866 11.5261C19.8481 11.4632 19.8998 11.3794 19.9222 11.2941L20.1793 10.3341C20.1905 10.2921 20.1961 10.2474 20.1961 10.2041V9.71358V9.71218ZM19.2682 9.8687V9.89944C19.2123 10.0294 19.1829 10.1678 19.1829 10.3103C19.1829 10.3536 19.1857 10.3969 19.1913 10.4403C19.1591 10.4682 19.1284 10.4962 19.1005 10.5269C19.0865 10.4948 19.0641 10.4668 19.0292 10.4472C19.0096 10.4361 18.9901 10.4305 18.9705 10.4277C18.9691 10.4053 18.9677 10.383 18.9677 10.3606C18.9677 10.1622 19.0292 9.9777 19.1326 9.82398C19.1466 9.80441 19.1689 9.79323 19.1927 9.79323C19.2332 9.79323 19.2668 9.82677 19.2668 9.8673L19.2682 9.8687ZM19.5588 9.81979V9.90503C19.5295 10.0015 19.5141 10.1035 19.5141 10.2055C19.5141 10.2488 19.5169 10.2921 19.5225 10.3354C19.3171 10.5087 19.1899 10.7435 19.1564 11.0104C19.0585 11.0454 18.9649 11.0929 18.8783 11.1516C18.9034 11.1055 18.9314 11.0621 18.9635 11.0202C19.0264 10.9378 19.1144 10.7645 19.1158 10.6247C19.1605 10.5702 19.2136 10.5199 19.2723 10.4738C19.264 10.4207 19.2584 10.3662 19.2584 10.3117C19.2584 10.1133 19.3199 9.92879 19.4233 9.77507C19.4372 9.7555 19.4596 9.74432 19.4834 9.74432C19.5239 9.74432 19.5574 9.77786 19.5574 9.81839L19.5588 9.81979ZM19.89 9.71218V9.82817C19.8425 9.94696 19.8188 10.0755 19.8188 10.2055C19.8188 10.2488 19.8215 10.2921 19.8271 10.3354C19.5882 10.5367 19.4596 10.819 19.4526 11.1306C19.1885 11.2494 18.9509 11.4087 18.7455 11.5988C18.7525 11.4953 18.7748 11.3933 18.8112 11.2969C18.9314 11.1949 19.0725 11.1152 19.2262 11.0663C19.25 10.7896 19.3772 10.5423 19.6035 10.3662C19.5952 10.3131 19.5896 10.2586 19.5896 10.2041C19.5896 10.0056 19.6511 9.82118 19.7545 9.66746C19.7684 9.6479 19.7908 9.63672 19.8146 9.63672C19.8551 9.63672 19.8886 9.67026 19.8886 9.71078L19.89 9.71218Z" fill="#C8102E"/>
<path fill-rule="evenodd" clip-rule="evenodd" d="M18.2718 15.6122C17.9406 15.6122 17.6276 15.534 17.3509 15.397C17.3089 15.3788 17.2796 15.3383 17.2796 15.2908C17.2796 15.2265 17.3313 15.1748 17.3956 15.1748C17.4096 15.1748 17.4333 15.179 17.4459 15.186C17.6946 15.3104 17.9755 15.3802 18.2718 15.3802C18.5681 15.3802 18.8503 15.3104 19.0977 15.186C19.1103 15.179 19.1326 15.1748 19.148 15.1748C19.2123 15.1748 19.264 15.2265 19.264 15.2908C19.264 15.3383 19.2346 15.3802 19.1927 15.397C18.9146 15.534 18.6016 15.6122 18.2718 15.6122Z" fill="#C8102E"/>
<path fill-rule="evenodd" clip-rule="evenodd" d="M18.2718 15.3063C17.9755 15.3063 17.6974 15.2336 17.4529 15.1051C17.4124 15.0841 17.3872 15.0464 17.3872 15.0003C17.3872 14.936 17.4389 14.8843 17.5032 14.8843C17.5228 14.8843 17.5437 14.8899 17.5605 14.8996C17.7729 15.0114 18.0161 15.0743 18.2732 15.0743C18.5303 15.0743 18.7721 15.0114 18.9859 14.8996C19.0041 14.8899 19.0236 14.8843 19.0432 14.8843C19.1075 14.8843 19.1592 14.936 19.1592 15.0003C19.1592 15.0464 19.134 15.0841 19.0935 15.1051C18.849 15.2336 18.5695 15.3063 18.2746 15.3063H18.2718Z" fill="#C8102E"/>
<path fill-rule="evenodd" clip-rule="evenodd" d="M18.2718 14.9988C18.0272 14.9988 17.7952 14.9388 17.5926 14.8311C17.5521 14.8116 17.5269 14.7725 17.5269 14.7263C17.5269 14.6621 17.5786 14.6104 17.6429 14.6104C17.6639 14.6104 17.6834 14.6159 17.7002 14.6257C17.8721 14.7152 18.0663 14.7669 18.2732 14.7669C18.48 14.7669 18.6756 14.7166 18.8461 14.6257C18.8643 14.6159 18.8825 14.6104 18.9034 14.6104C18.9677 14.6104 19.0194 14.6621 19.0194 14.7263C19.0194 14.7725 18.9943 14.8102 18.9537 14.8311C18.7511 14.9374 18.5191 14.9988 18.2732 14.9988H18.2718Z" fill="#C8102E"/>
<path fill-rule="evenodd" clip-rule="evenodd" d="M12.232 6.11106C12.5939 6.13482 12.8594 6.21168 12.8594 6.30251C12.8594 6.41151 12.4737 6.50095 11.9986 6.50095C11.5235 6.50095 11.1378 6.41151 11.1378 6.30251C11.1378 6.20189 11.4606 6.11944 11.8798 6.10547V6.39335H12.2306V6.11106H12.232Z" fill="#C8102E"/>
<path fill-rule="evenodd" clip-rule="evenodd" d="M10.8638 7.35747C10.9966 7.05561 11.0804 6.72861 11.107 6.38623C11.2286 6.49663 11.5821 6.57629 11.9986 6.57629C12.415 6.57629 12.7686 6.49663 12.8901 6.38623C12.9167 6.73001 13.0019 7.05561 13.1333 7.35747L12.8496 7.07378L12.5659 7.35747L12.2823 7.07378L11.9986 7.35747L11.7149 7.07378L11.4312 7.35747L11.1475 7.07378L10.8638 7.35747Z" fill="#C8102E"/>
<path fill-rule="evenodd" clip-rule="evenodd" d="M11.9566 6.31793H12.1551V5.53395L12.9432 5.98813L12.5869 5.36905L12.9432 5.16223L12.1551 4.70805C12.2305 4.69128 12.2836 4.65775 12.2836 4.61722C12.2836 4.56132 12.1816 4.5166 12.0558 4.5166C11.9301 4.5166 11.8281 4.56132 11.8281 4.61722C11.8281 4.65635 11.8798 4.69128 11.9566 4.70805V6.31793Z" fill="#C8102E"/>
<path fill-rule="evenodd" clip-rule="evenodd" d="M11.6562 11.3825C11.7009 11.2916 11.7261 11.1896 11.7261 11.0806C11.7261 10.8333 11.5933 10.6167 11.3949 10.4979C11.4242 10.4937 11.455 10.4923 11.4871 10.4923C11.6353 10.4923 11.7722 10.5398 11.8826 10.6209C11.8938 10.5286 11.9371 10.4462 11.9986 10.3833C12.0615 10.4462 12.1034 10.5286 12.1146 10.6209C12.2264 10.5398 12.3633 10.4923 12.5115 10.4923C12.5422 10.4923 12.573 10.4951 12.6037 10.4979C12.4053 10.6167 12.2725 10.8333 12.2725 11.0806C12.2725 11.1882 12.2977 11.2916 12.3438 11.3825C12.4542 11.5628 12.5199 11.8017 12.5199 12.0644C12.5199 12.3775 12.3577 12.5005 12.2138 12.5829C12.1803 12.4949 12.123 12.4166 12.0475 12.3565L12 12.3188L11.9525 12.3565C11.877 12.4166 11.8197 12.4949 11.7862 12.5829C11.6422 12.4991 11.4801 12.3775 11.4801 12.0644C11.4801 11.8017 11.5458 11.5614 11.6562 11.3825Z" fill="#C8102E"/>
<path fill-rule="evenodd" clip-rule="evenodd" d="M10.7926 9.16461C10.6864 9.18976 10.5886 9.23448 10.5047 9.29597L9.96528 9.7208C9.7347 9.90386 9.39931 9.86334 9.21624 9.63276C9.19668 9.609 9.17991 9.58385 9.16594 9.55729C9.19668 9.54611 9.22603 9.53214 9.25537 9.51537L9.87026 9.16041C9.97786 9.10032 10.0994 9.06958 10.2238 9.06958C10.2546 9.06958 10.2853 9.07098 10.3146 9.07517H10.3202C10.3412 9.07517 10.358 9.0584 10.358 9.03744C10.358 9.01787 10.344 9.0025 10.3258 8.99971C10.2923 8.99551 10.2588 8.99272 10.2238 8.99272C10.0827 8.99272 9.94851 9.02905 9.83392 9.09473L9.21904 9.44969C8.9633 9.59642 8.6377 9.50978 8.49096 9.25404C8.47699 9.23029 8.46581 9.20653 8.45603 9.18277C8.55105 9.18277 8.64748 9.166 8.74111 9.12827L9.53626 8.81384C9.61871 8.7831 9.70536 8.76633 9.79479 8.76633C9.82554 8.76633 9.85488 8.76773 9.88423 8.77192C9.88703 8.77192 9.88982 8.77192 9.89122 8.77192C9.91218 8.77192 9.92895 8.75515 9.92895 8.73419C9.92895 8.71462 9.91497 8.69925 9.89541 8.69646C9.86187 8.69226 9.82833 8.68947 9.7934 8.68947C9.69278 8.68947 9.59635 8.70764 9.50831 8.74257L8.71316 9.057C8.35261 9.19954 7.94595 9.02207 7.80341 8.66292C7.78524 8.6168 7.77267 8.57069 7.76428 8.52457C7.93058 8.56929 8.10526 8.59305 8.28693 8.59305C8.7467 8.59305 9.17013 8.43932 9.50831 8.1794C9.81576 7.94183 10.1791 7.76994 10.5732 7.68749C10.6752 7.66513 10.7814 7.65255 10.8918 7.65255C11.2454 7.65255 11.5682 7.77832 11.8197 7.98934V7.28223L12.0014 7.4639L12.1831 7.28223V7.98934C12.4346 7.77972 12.7574 7.65255 13.111 7.65255C13.22 7.65255 13.3262 7.66513 13.4296 7.68749C13.8251 7.76994 14.187 7.94043 14.4945 8.1794C14.8326 8.43932 15.2561 8.59305 15.7158 8.59305C15.8961 8.59305 16.0722 8.56929 16.2385 8.52457C16.2301 8.57069 16.2175 8.6168 16.1994 8.66292C16.0568 9.02346 15.6502 9.19954 15.2896 9.057L14.4931 8.74257C14.4036 8.70903 14.3086 8.68947 14.208 8.68947C14.173 8.68947 14.1395 8.69226 14.106 8.69646C14.0878 8.69925 14.0724 8.71462 14.0724 8.73419C14.0724 8.75515 14.0892 8.77192 14.1102 8.77192C14.1129 8.77192 14.1157 8.77192 14.1185 8.77192C14.1479 8.76773 14.1772 8.76633 14.208 8.76633C14.296 8.76633 14.3841 8.7817 14.4665 8.81384L15.2617 9.12827C15.3553 9.16461 15.4517 9.18277 15.5467 9.18277C15.537 9.20653 15.5258 9.23029 15.5132 9.25404C15.3665 9.50838 15.0395 9.59642 14.7851 9.44969L14.1702 9.09473C14.0543 9.03045 13.9215 8.99272 13.779 8.99272C13.744 8.99272 13.7105 8.99551 13.6769 8.99971C13.6588 9.0025 13.6448 9.01787 13.6448 9.03744C13.6448 9.0584 13.6616 9.07517 13.6825 9.07517H13.6881C13.7175 9.07098 13.7482 9.06958 13.779 9.06958C13.9033 9.06958 14.0235 9.10032 14.1325 9.16041L14.7474 9.51537C14.7767 9.53214 14.8061 9.54611 14.8368 9.55729C14.8229 9.58385 14.8061 9.609 14.7865 9.63276C14.6035 9.86334 14.2695 9.90386 14.0375 9.7208L13.4981 9.29597C13.4128 9.23448 13.315 9.18836 13.2102 9.16461C13.2074 9.16461 13.2046 9.16461 13.2004 9.16461C13.1794 9.16461 13.1627 9.18138 13.1627 9.20234C13.1627 9.22051 13.1753 9.23588 13.1934 9.24007C13.287 9.26103 13.3751 9.30156 13.4533 9.35746L13.9914 9.78228C14.0221 9.80604 14.0543 9.827 14.0878 9.84517C14.064 9.89268 14.0319 9.93601 13.9914 9.97513C13.7831 10.1834 13.4464 10.1834 13.2381 9.97513L12.552 9.28898C12.545 9.2806 12.5352 9.2764 12.524 9.2764C12.5031 9.2764 12.4863 9.29317 12.4863 9.31414C12.4863 9.32531 12.4905 9.3337 12.4975 9.34069L12.6806 9.52375C12.7113 9.5545 12.7295 9.59642 12.7295 9.64254C12.7295 9.73617 12.6526 9.81303 12.559 9.81303C12.524 9.81303 12.4905 9.80185 12.4625 9.78368C12.4556 9.77809 12.4458 9.7753 12.436 9.7753C12.4108 9.7753 12.3913 9.79486 12.3913 9.82002C12.3913 9.8312 12.3941 9.83818 12.3997 9.84657C12.45 9.92203 12.4793 10.0129 12.4793 10.1107C12.4793 10.4069 12.1858 10.4936 12.1691 10.502C12.1453 10.4377 12.1076 10.379 12.0587 10.3301L12.0042 10.2756L11.9497 10.3301C11.9008 10.379 11.863 10.4377 11.8393 10.502C11.8225 10.4936 11.529 10.4069 11.529 10.1107C11.529 10.0129 11.5584 9.92203 11.6087 9.84657C11.6143 9.83818 11.6171 9.8312 11.6171 9.82002C11.6171 9.79626 11.5975 9.7753 11.5724 9.7753C11.5626 9.7753 11.5528 9.77809 11.5458 9.78368C11.5193 9.80185 11.4857 9.81303 11.4494 9.81303C11.3558 9.81303 11.2789 9.73617 11.2789 9.64254C11.2789 9.59642 11.2971 9.5545 11.3278 9.52375L11.5109 9.34069C11.5109 9.34069 11.5221 9.32392 11.5221 9.31414C11.5221 9.29317 11.5053 9.2764 11.4843 9.2764C11.4731 9.2764 11.4634 9.28199 11.4564 9.28898L10.7702 9.97513C10.562 10.1834 10.2238 10.1834 10.017 9.97513C9.97786 9.93601 9.94572 9.89129 9.92056 9.84517C9.9541 9.8284 9.98625 9.80744 10.017 9.78228L10.555 9.35746C10.6333 9.30156 10.7213 9.26103 10.8149 9.24007C10.8317 9.23588 10.8457 9.22051 10.8457 9.20234C10.8457 9.18138 10.8289 9.16461 10.808 9.16461C10.8052 9.16461 10.801 9.16461 10.7982 9.16461H10.7926Z" fill="#C8102E"/>
<path fill-rule="evenodd" clip-rule="evenodd" d="M14.1115 17.9395C14.1381 17.9395 14.1591 17.9604 14.1591 17.987C14.1591 18.0135 14.1381 18.0345 14.1115 18.0345C14.085 18.0345 14.064 18.0135 14.064 17.987C14.064 17.9604 14.085 17.9395 14.1115 17.9395Z" fill="#FED700"/>
<path fill-rule="evenodd" clip-rule="evenodd" d="M13.8921 18.002C13.9187 18.002 13.9396 18.0229 13.9396 18.0495C13.9396 18.076 13.9187 18.097 13.8921 18.097C13.8656 18.097 13.8446 18.076 13.8446 18.0495C13.8446 18.0229 13.8656 18.002 13.8921 18.002Z" fill="#FED700"/>
<path fill-rule="evenodd" clip-rule="evenodd" d="M15.8779 16.5166C15.9044 16.5166 15.9254 16.5376 15.9254 16.5641C15.9254 16.5907 15.9044 16.6116 15.8779 16.6116C15.8513 16.6116 15.8304 16.5907 15.8304 16.5641C15.8304 16.5376 15.8513 16.5166 15.8779 16.5166Z" fill="#FED700"/>
<path fill-rule="evenodd" clip-rule="evenodd" d="M13.9914 16.9888C14.0179 16.9888 14.0389 17.0097 14.0389 17.0363C14.0389 17.0628 14.0179 17.0838 13.9914 17.0838C13.9648 17.0838 13.9438 17.0628 13.9438 17.0363C13.9438 17.0097 13.9648 16.9888 13.9914 16.9888Z" fill="#FED700"/>
<path fill-rule="evenodd" clip-rule="evenodd" d="M15.2854 17.2098C15.4726 17.077 15.5132 16.7472 15.5118 16.5334C15.5118 16.4453 15.495 16.4314 15.5942 16.3881C15.7521 16.3196 15.7941 16.3294 15.9003 16.177C15.9408 16.1183 15.9869 16.1183 15.9576 16.2022C15.8989 16.3741 15.8122 16.3867 15.6599 16.4565C15.6068 16.4803 15.5775 16.5068 15.5914 16.5879C15.6292 16.831 15.5439 17.1022 15.3329 17.2419C15.277 17.2796 15.1862 17.2824 15.2868 17.2112L15.2854 17.2098Z" fill="#FED700"/>
<path fill-rule="evenodd" clip-rule="evenodd" d="M14.7097 17.4656C14.9305 17.3272 15.2197 17.0855 15.2197 16.806C15.2197 16.7599 15.189 16.7417 15.1555 16.7752C15.0129 16.9178 14.8494 16.7515 14.9612 16.5055C15.0702 16.2638 15.3106 16.2833 15.3218 16.5908C15.3357 16.9751 15.1597 17.3566 14.7362 17.5117C14.6705 17.5355 14.6077 17.5271 14.7083 17.4642L14.7097 17.4656ZM15.1834 16.5684C15.1862 16.4301 15.0465 16.4594 15.0339 16.5852C15.0171 16.7543 15.1806 16.7193 15.1834 16.5684Z" fill="#FED700"/>
<path fill-rule="evenodd" clip-rule="evenodd" d="M13.526 17.5803C13.2409 17.9534 13.5749 18.0023 13.8781 17.9562C14.1465 17.9143 14.412 17.7284 14.5042 17.4685C14.5405 17.3651 14.5196 17.3413 14.4511 17.3316C14.3659 17.3204 14.2876 17.3371 14.3197 17.2212C14.3407 17.1471 14.3337 17.0856 14.3295 17.0213C14.3197 16.883 14.3225 16.8872 14.2191 16.978C14.1716 17.0213 14.1604 17.0507 14.2163 17.101C14.3128 17.1848 14.152 17.3385 14.078 17.3944C13.9844 17.4657 14.0123 17.5118 14.1213 17.4699C14.1604 17.4545 14.1884 17.4406 14.2093 17.428C14.268 17.3958 14.268 17.3875 14.3309 17.435C14.3868 17.4769 14.4287 17.5132 14.3617 17.5957C14.2946 17.6781 14.1842 17.7843 13.9382 17.8556C13.8125 17.8919 13.4827 17.945 13.5637 17.7075C13.5763 17.6711 13.5861 17.6418 13.5917 17.6027C13.6001 17.5412 13.5917 17.4979 13.5232 17.5845L13.526 17.5803Z" fill="#FED700"/>
<path fill-rule="evenodd" clip-rule="evenodd" d="M12.4975 17.6501C12.4975 17.6501 12.5184 17.6166 12.545 17.5844C12.5911 17.5299 12.6023 17.5383 12.64 17.5705C12.9125 17.8108 12.9447 18.0819 12.5408 18.1867C12.4793 18.2021 12.4681 18.2133 12.4192 18.2482C12.3591 18.2888 12.341 18.2636 12.3829 18.1923C12.429 18.1141 12.4178 18.0805 12.5212 18.0833C12.8007 18.0917 12.7364 17.9072 12.5953 17.7563C12.5729 17.7326 12.552 17.7214 12.5212 17.7214C12.4625 17.7214 12.4611 17.706 12.4961 17.6501H12.4975Z" fill="#FED700"/>
<path fill-rule="evenodd" clip-rule="evenodd" d="M12.0978 17.4515C12.1076 17.4403 12.1216 17.4236 12.1397 17.4082C12.1942 17.3579 12.2194 17.3537 12.2208 17.432C12.2208 17.5955 12.2473 18.0119 12.1663 18.1391C12.1258 18.2034 12.1034 18.1978 12.1202 18.1097C12.1495 17.9574 12.1411 17.7366 12.1286 17.5801C12.1272 17.5535 12.1244 17.5438 12.1048 17.5438C12.0489 17.5438 12.0768 17.4781 12.0992 17.4501L12.0978 17.4515Z" fill="#FED700"/>
<path fill-rule="evenodd" clip-rule="evenodd" d="M11.5262 18.0525C11.5444 17.8904 11.5486 17.7185 11.5472 17.555C11.5472 17.4712 11.5332 17.446 11.5961 17.3929C11.7177 17.2881 11.6869 17.3761 11.6786 17.4642C11.6604 17.6612 11.638 17.9156 11.5807 18.0511C11.5584 18.1056 11.5137 18.1699 11.5262 18.0539V18.0525Z" fill="#FED700"/>
<path fill-rule="evenodd" clip-rule="evenodd" d="M11.1265 18.2188C11.2216 18.223 11.3557 18.2356 11.4913 18.2314C11.7051 18.2244 11.8588 18.1755 11.8518 17.9519C11.849 17.8792 11.8364 17.8722 11.9007 17.8289C12.0251 17.7451 12.0111 17.8191 11.9846 17.9183C11.9035 18.2244 11.7722 18.2901 11.4619 18.2998C11.2761 18.3054 11.2188 18.2957 11.1559 18.2943C11.1098 18.2943 11.0804 18.2775 11.0525 18.2523C11.0036 18.2076 11.0692 18.216 11.1265 18.2188Z" fill="#FED700"/>
<path fill-rule="evenodd" clip-rule="evenodd" d="M8.99545 17.0015C9.05554 16.8856 9.09886 16.7821 9.13938 16.6578C9.16314 16.5879 9.16733 16.5767 9.23721 16.5585C9.34621 16.5292 9.30009 16.5823 9.26516 16.6522C9.19528 16.7891 9.13379 16.9652 9.0178 17.0546C8.92278 17.1273 8.97728 17.0365 8.99545 17.0015Z" fill="#FED700"/>
<path fill-rule="evenodd" clip-rule="evenodd" d="M8.59852 17.0223C8.60831 16.9035 8.6698 16.9831 8.71032 17.0279C8.7774 17.1005 8.87522 17.1928 8.96326 17.2389C9.18546 17.3549 9.31961 17.0754 9.35176 16.8979C9.36433 16.8322 9.37971 16.7903 9.46355 16.7582C9.62286 16.6967 9.57675 16.7665 9.51805 16.856C9.45657 16.951 9.38949 17.06 9.34197 17.1522C9.13096 17.5645 9.77658 17.591 10.0295 17.5785C10.1218 17.5743 10.1609 17.5673 10.1455 17.6735C10.1301 17.7797 10.3286 17.728 10.3929 17.7182C10.4725 17.7056 10.4935 17.7126 10.4963 17.7937C10.5005 17.9236 10.6458 17.8342 10.7241 17.7979C10.8205 17.7531 10.8163 17.7797 10.8428 17.8621C10.9351 18.143 11.1671 17.9027 11.1335 17.5393C11.1265 17.4639 11.1154 17.4247 11.1824 17.3688C11.2886 17.2808 11.2635 17.3619 11.2593 17.4499C11.2439 17.7406 11.0902 18.4141 10.7255 17.9572C10.6989 17.9236 10.6975 17.9111 10.5969 17.9278C10.5144 17.9404 10.3006 18.0033 10.3216 17.8594C10.3314 17.7895 10.3132 17.8076 10.2573 17.816C10.1567 17.8328 10.0225 17.8454 10.0211 17.7098C10.0211 17.6665 10.0281 17.6413 9.92751 17.6497C9.73326 17.6665 9.28188 17.6218 9.17288 17.4373C9.12956 17.366 9.14912 17.3758 9.06108 17.3619C8.92693 17.3395 8.81094 17.2976 8.69774 17.2137C8.63905 17.1704 8.59154 17.1019 8.59713 17.0265L8.59852 17.0223Z" fill="#FED700"/>
<path fill-rule="evenodd" clip-rule="evenodd" d="M7.76006 16.247C7.86068 16.2344 7.91937 16.3112 7.97387 16.3839C8.08986 16.5334 8.24498 16.6341 8.43364 16.5348C8.54124 16.4789 8.6195 16.3895 8.74946 16.4622C8.84449 16.5153 8.82353 16.5754 8.74108 16.676C8.6209 16.8213 8.35398 16.9359 8.42525 16.7193C8.44901 16.6494 8.42106 16.6592 8.34979 16.6578C8.11362 16.6522 8.0158 16.6844 7.90679 16.4524C7.85928 16.3518 7.85369 16.3476 7.77683 16.3196C7.72093 16.3001 7.64826 16.2609 7.76006 16.2484V16.247ZM8.55382 16.5852C8.5105 16.6676 8.57059 16.7431 8.63906 16.6313C8.70894 16.5153 8.59434 16.5083 8.55382 16.5852Z" fill="#FED700"/>
<path fill-rule="evenodd" clip-rule="evenodd" d="M15.9296 13.0468C15.9324 12.9644 15.9702 12.9951 16.0093 13.0287C16.1337 13.1377 16.2678 13.2676 16.3796 13.3906C16.4271 13.4437 16.4243 13.4479 16.4299 13.4801C16.4411 13.5513 16.4243 13.5401 16.3866 13.5052C16.2622 13.3934 16.1295 13.2802 16.0009 13.174C15.9464 13.1293 15.9282 13.1181 15.931 13.0482L15.9296 13.0468Z" fill="#FED700"/>
<path fill-rule="evenodd" clip-rule="evenodd" d="M15.5202 13.8599C15.6753 14.0011 15.8025 14.1548 15.9506 14.2959C16.0177 14.3616 16.0247 14.363 16.0931 14.2987C16.1993 14.2009 16.3391 14.0667 16.4062 13.9368C16.4593 13.8334 16.4746 13.7719 16.3796 13.6768C16.2986 13.5958 16.0219 13.3373 15.924 13.2646C15.836 13.1989 15.8262 13.2171 15.8262 13.273C15.8262 13.3582 15.8388 13.3582 15.9087 13.396C16.0288 13.4616 16.2301 13.6545 16.3251 13.7635C16.3642 13.8082 16.3754 13.8278 16.3447 13.899C16.3083 13.9829 16.2692 13.9647 16.2161 13.9172C16.1574 13.8641 16.0736 13.7747 16.0163 13.7244C15.9646 13.6782 15.9198 13.6237 15.9198 13.7272C15.9198 13.7858 15.9352 13.8082 15.9618 13.8417C16.0079 13.899 16.054 13.9521 16.1001 14.0066C16.149 14.0639 16.1518 14.0877 16.0945 14.1492C16.0219 14.2302 16.0065 14.2051 15.938 14.145C15.8094 14.0332 15.72 13.9116 15.6026 13.7956C15.5663 13.7607 15.4936 13.6768 15.4866 13.7775C15.4824 13.8194 15.4838 13.825 15.5202 13.8585V13.8599Z" fill="#FED700"/>
<path fill-rule="evenodd" clip-rule="evenodd" d="M15.4433 13.9439C15.3287 13.9118 15.2574 13.9635 15.2658 14.0851C15.27 14.1424 15.2812 14.2052 15.3455 14.222C15.386 14.2332 15.3986 14.2388 15.3916 14.3003C15.3748 14.4288 15.4601 14.3743 15.4726 14.2555C15.4782 14.1996 15.4754 14.2024 15.5201 14.1619C15.5453 14.1396 15.5537 14.1144 15.5593 14.092C15.5732 14.0236 15.5285 14.025 15.4908 14.0669C15.4531 14.1088 15.3287 14.1382 15.3538 14.0613C15.3622 14.0347 15.3776 14.025 15.4069 14.0236C15.4391 14.0222 15.4587 14.0096 15.4698 13.9928C15.4852 13.9691 15.4852 13.9579 15.4475 13.9467L15.4433 13.9439Z" fill="#FED700"/>
<path fill-rule="evenodd" clip-rule="evenodd" d="M13.9788 15.9172C13.9508 15.7425 13.8907 15.614 13.8293 15.4533C13.8013 15.3792 13.7943 15.3596 13.8474 15.2967C13.9117 15.2213 13.9131 15.2674 13.9271 15.3219C13.9425 15.3876 13.9802 15.4798 13.9997 15.5343C14.0235 15.5986 14.0529 15.5623 14.0654 15.5106C14.0752 15.4728 14.0794 15.463 14.0822 15.4449C14.0878 15.4085 14.0962 15.3429 14.1395 15.4071C14.1591 15.4365 14.1549 15.4561 14.1507 15.4896C14.1437 15.5525 14.1437 15.593 14.2066 15.6265C14.5042 15.7887 14.5322 15.47 14.412 15.2213C14.3868 15.1682 14.3785 15.1374 14.412 15.0662C14.4358 15.0173 14.4693 14.9893 14.4944 15.0592C14.5112 15.1081 14.5336 15.1486 14.5531 15.1752C14.5909 15.2283 14.6384 15.2269 14.6342 15.1542C14.6314 15.0983 14.6454 15.0187 14.7334 14.9767C14.8564 14.918 14.9039 14.9935 14.9724 15.0815C15.0311 15.157 15.0381 15.1612 15.0744 15.0745C15.0968 15.02 15.1387 14.925 15.1764 14.8649C15.2267 14.7867 15.2868 14.7336 15.4685 14.6972C15.6585 14.6595 15.748 14.6483 15.6963 14.4499C15.6781 14.3814 15.6669 14.3954 15.7116 14.3297C15.7494 14.2738 15.7633 14.2892 15.7717 14.3688C15.8081 14.693 15.7661 14.6805 15.5104 14.7992C15.4461 14.8286 15.4489 14.8635 15.4573 14.9222C15.4643 14.9669 15.4699 15.0452 15.4126 15.1137C15.3385 15.2031 15.2742 15.1822 15.2058 15.1598C15.1219 15.1332 15.1331 15.1374 15.0688 15.1877C15.0087 15.2339 15.0143 15.2632 15.0185 15.3303C15.0241 15.4043 15.0269 15.5175 14.9528 15.6769C14.8606 15.8767 14.7949 15.9326 14.6761 16.0039C14.5559 16.0751 14.5224 16.0584 14.5629 15.9885C14.6035 15.9186 14.6062 15.9605 14.7111 15.8585C14.8145 15.7565 14.9081 15.6866 14.9347 15.5315C14.9472 15.4575 14.9486 15.4057 14.9458 15.3722C14.9416 15.3037 14.9333 15.28 14.8732 15.28C14.8033 15.28 14.7628 15.3009 14.6929 15.2632C14.6048 15.2143 14.6007 15.2716 14.6062 15.3401C14.6272 15.6559 14.4162 15.8501 14.1046 15.7523C14.0501 15.7355 14.0361 15.7272 14.0347 15.8068C14.0347 15.8683 14.0417 15.9256 14.0361 15.9885C14.0347 16.0053 14.0249 16.1003 13.9984 16.0388C13.9858 16.0095 13.983 15.9549 13.9788 15.92V15.9172ZM15.3693 14.9264C15.3148 14.8412 15.182 14.9851 15.2645 15.0606C15.3497 15.1374 15.4238 15.0103 15.3693 14.9264ZM14.7893 15.1961C14.9123 15.2436 14.9416 15.1137 14.8424 15.0718C14.732 15.0228 14.6985 15.1612 14.7893 15.1961Z" fill="#FED700"/>
<path fill-rule="evenodd" clip-rule="evenodd" d="M12.953 16.3573C12.9572 16.3293 12.9642 16.2916 12.974 16.2594C12.9894 16.2022 13.0271 16.2008 13.0243 16.2594C13.0187 16.3866 13.1263 16.3545 13.199 16.3056C13.3066 16.2343 13.4198 16.1868 13.5386 16.2874C13.5987 16.3377 13.8376 16.3265 13.7734 15.9534C13.7482 15.8053 13.6993 15.6082 13.6057 15.4867C13.5484 15.4112 13.5623 15.4056 13.5847 15.3567C13.6392 15.2365 13.6448 15.2575 13.6909 15.3679C13.7314 15.4671 13.8306 15.7102 13.8656 15.9003C13.9033 16.1071 13.8796 16.3657 13.6196 16.3894C13.5498 16.3964 13.5372 16.4174 13.5288 16.4705C13.5036 16.6214 13.2814 16.7318 13.2102 16.4775C13.1878 16.3978 13.1808 16.4034 13.1207 16.4285C13.0397 16.4635 12.9335 16.4802 12.953 16.3573ZM13.2926 16.4816C13.3527 16.5851 13.4757 16.5347 13.4338 16.4048C13.3877 16.2622 13.2172 16.3503 13.2926 16.4816Z" fill="#FED700"/>
<path fill-rule="evenodd" clip-rule="evenodd" d="M14.2135 15.0059C14.2401 15.0059 14.261 15.0268 14.261 15.0534C14.261 15.0799 14.2401 15.1009 14.2135 15.1009C14.187 15.1009 14.166 15.0799 14.166 15.0534C14.166 15.0268 14.187 15.0059 14.2135 15.0059Z" fill="#FED700"/>
<path fill-rule="evenodd" clip-rule="evenodd" d="M11.1322 15.6587C11.1587 15.6587 11.1797 15.6797 11.1797 15.7062C11.1797 15.7328 11.1587 15.7537 11.1322 15.7537C11.1056 15.7537 11.0847 15.7328 11.0847 15.7062C11.0847 15.6797 11.1056 15.6587 11.1322 15.6587Z" fill="#FED700"/>
<path fill-rule="evenodd" clip-rule="evenodd" d="M10.3677 15.3667C10.3943 15.3667 10.4152 15.3877 10.4152 15.4142C10.4152 15.4408 10.3943 15.4617 10.3677 15.4617C10.3412 15.4617 10.3202 15.4408 10.3202 15.4142C10.3202 15.3877 10.3412 15.3667 10.3677 15.3667Z" fill="#FED700"/>
<path fill-rule="evenodd" clip-rule="evenodd" d="M9.37692 15.8652C9.40347 15.8652 9.42443 15.8862 9.42443 15.9127C9.42443 15.9393 9.40347 15.9603 9.37692 15.9603C9.35037 15.9603 9.32941 15.9393 9.32941 15.9127C9.32941 15.8862 9.35037 15.8652 9.37692 15.8652Z" fill="#FED700"/>
<path fill-rule="evenodd" clip-rule="evenodd" d="M9.70394 16.1853C9.90517 16.3767 10.4013 16.4173 10.6053 16.1699C10.6416 16.1252 10.6249 16.1266 10.5885 16.1266C10.4474 16.1308 10.4991 15.9072 10.6277 15.8261C10.8023 15.7157 10.9714 15.7633 10.875 15.9533C10.8499 16.0022 10.8722 16.012 10.9072 16.0176C11.0539 16.0372 11.0721 16.0316 11.2104 16.005C11.2705 15.9938 11.332 16.0134 11.2663 16.0679C11.1503 16.1657 11.2579 16.1979 11.3683 16.2049C11.5779 16.2174 11.6758 16.2007 11.7135 16.1965C11.7736 16.1895 11.7708 16.1853 11.7624 16.244C11.7582 16.2733 11.7596 16.2971 11.8281 16.2789C11.8896 16.2621 11.9315 16.2398 11.9664 16.223C12.0335 16.1909 12.0908 16.1545 12.1076 16.2496C12.1188 16.3097 12.2124 16.2552 12.2515 16.2398C12.3186 16.2132 12.3354 16.2076 12.3382 16.2635C12.3423 16.346 12.4653 16.3139 12.5268 16.3013C12.7057 16.2663 13.0551 16.1224 12.7239 16.0386C12.6875 16.0288 12.6512 16.0176 12.6135 16.0302C12.5156 16.0623 12.4821 16.0302 12.5603 15.9659C12.6582 15.8834 12.7308 15.9016 12.8356 15.9575C12.9265 16.005 13.0033 16.0232 13.0956 16.0176C13.1319 16.0162 13.2605 15.991 13.1808 16.0539C13.1263 16.0972 13.1082 16.0861 13.0439 16.0903C12.9796 16.0945 12.9656 16.1042 12.9153 16.1769C12.7979 16.346 12.5408 16.3935 12.3479 16.3907C12.3172 16.3907 12.225 16.3921 12.225 16.3544C12.225 16.3027 12.1719 16.3208 12.1271 16.3264C11.979 16.3488 11.856 16.3698 11.7023 16.3739C11.6632 16.3739 11.557 16.3795 11.5975 16.3097C11.6087 16.2915 11.624 16.2873 11.557 16.2859C11.4619 16.2859 11.3683 16.2845 11.2719 16.2775C11.1852 16.2719 11.0455 16.2873 11.1168 16.1601C11.1335 16.1322 11.1433 16.1196 11.0707 16.121C10.9728 16.1238 10.9351 16.1238 10.8708 16.1098C10.7786 16.0917 10.7716 16.1182 10.7241 16.1853C10.5326 16.4466 10.1372 16.4592 9.85067 16.3809C9.76403 16.3572 9.69975 16.332 9.66341 16.2454C9.63965 16.1881 9.64524 16.1336 9.70533 16.1839L9.70394 16.1853ZM10.6598 15.9156C10.5718 16.0358 10.7129 16.0847 10.78 15.9589C10.8345 15.8555 10.7255 15.8247 10.6598 15.9156Z" fill="#FED700"/>
<path fill-rule="evenodd" clip-rule="evenodd" d="M9.74868 15.1469C9.69977 15.2084 9.63409 15.2895 9.53487 15.3943C9.17432 15.7758 9.39931 15.9518 9.75147 15.7492C9.80737 15.7171 9.83113 15.7101 9.81995 15.766C9.74309 16.1601 10.5033 16.2397 10.4879 15.7059C10.4851 15.6095 10.4823 15.5564 10.4195 15.6039C10.3887 15.6276 10.3929 15.6821 10.3943 15.7157C10.4195 16.1335 9.75427 16.0329 9.98206 15.7213C10.0086 15.6849 10.0631 15.6262 10.0645 15.5815C10.0645 15.5522 10.0296 15.5703 9.98904 15.5997C9.94991 15.6276 9.90799 15.6654 9.89402 15.6724C9.85628 15.6947 9.83672 15.6961 9.85209 15.6584C9.88004 15.5913 9.88004 15.5675 9.80737 15.5773C9.77663 15.5815 9.75008 15.5885 9.71235 15.6388C9.59356 15.7995 9.2959 15.8247 9.61592 15.4432C9.69697 15.3467 9.78641 15.2559 9.87166 15.1609C9.91637 15.1106 9.99603 15.0295 9.85908 15.0575C9.792 15.0714 9.79899 15.0826 9.74868 15.1469Z" fill="#FED700"/>
<path fill-rule="evenodd" clip-rule="evenodd" d="M8.43227 14.873C8.41829 14.9261 8.43786 14.9401 8.48677 14.9638C8.64608 15.0393 8.66005 15.0351 8.79002 14.9135C8.87107 14.8381 8.9116 14.778 8.94933 14.7388C8.99125 14.6955 8.99265 14.6857 9.06811 14.6871C9.14358 14.6885 9.13519 14.7123 9.06112 14.7738C8.98706 14.8339 8.78163 15.0295 8.73132 15.0854C8.68241 15.1399 8.688 15.1846 8.72434 15.2056C8.7998 15.2489 8.90461 15.1846 8.98846 15.1399C9.06811 15.0966 9.15476 15.0672 9.24559 15.0966C9.32664 15.1231 9.29031 15.1525 9.2414 15.1846C9.18829 15.221 9.14637 15.2573 9.10025 15.2964C9.02339 15.3649 9.02339 15.3677 9.14917 15.3691C9.29869 15.3719 9.32804 15.3523 9.42167 15.2433C9.47757 15.1776 9.54884 15.0952 9.60194 15.0421C9.65085 14.9918 9.66483 14.9708 9.71793 14.968C9.82274 14.9624 9.78501 15.01 9.7375 15.0533C9.64247 15.1413 9.56002 15.228 9.47198 15.3216C9.36577 15.4334 9.33363 15.4613 9.16454 15.4543C9.08488 15.4515 8.99405 15.4418 8.93116 15.4362C8.80679 15.4236 8.81936 15.4264 8.73831 15.5228C8.61394 15.671 8.66704 15.4334 8.72993 15.3467C8.76067 15.3048 8.77604 15.302 8.69639 15.2531C8.64189 15.2196 8.66704 15.2154 8.59856 15.2308C8.55524 15.2405 8.53987 15.2419 8.55105 15.1553C8.55524 15.1204 8.56642 15.1204 8.50074 15.077C8.43925 15.0351 8.37497 14.996 8.32746 14.9582C8.27156 14.9135 8.20448 14.8311 8.31348 14.7989C8.37357 14.7808 8.45043 14.7989 8.43087 14.8758L8.43227 14.873ZM9.05554 15.1762C9.04715 15.1762 8.96889 15.1958 8.94933 15.2335C8.92976 15.2713 9.05414 15.2531 9.10165 15.2056C9.14916 15.1581 9.05554 15.1749 9.05554 15.1749V15.1762ZM8.87666 15.3048C8.87666 15.3048 8.85151 15.3356 8.87666 15.3593C8.90321 15.3831 8.94374 15.3537 8.94653 15.3272C8.94933 15.3006 8.92138 15.2713 8.87526 15.3034L8.87666 15.3048Z" fill="#FED700"/>
<path fill-rule="evenodd" clip-rule="evenodd" d="M8.12064 13.6828C7.77966 13.7666 7.79224 14.1733 7.96412 14.3773C8.02841 14.4528 8.07312 14.4961 8.10527 14.5212C8.29532 14.668 8.24501 14.408 8.23383 14.3032C8.22265 14.2026 8.23383 14.1299 8.37498 14.1565C8.53429 14.1858 8.6936 14.232 8.8012 14.3619C8.89064 14.4695 8.90042 14.5366 8.78024 14.6163C8.67124 14.6875 8.59997 14.647 8.70058 14.5408C8.75229 14.4863 8.78443 14.4597 8.70058 14.3913C8.60276 14.3116 8.55525 14.2809 8.46581 14.2641C8.37637 14.2473 8.34703 14.2711 8.37218 14.3633C8.46721 14.7043 8.12064 14.7308 7.89006 14.4555C7.65668 14.1761 7.63572 13.5989 8.12343 13.6338C8.28694 13.6464 8.17933 13.6702 8.12064 13.6842V13.6828Z" fill="#FED700"/>
</g>
</g>
<rect x="0.25" y="0.25" width="23.5" height="23.5" rx="11.75" stroke="#E5E3E1" stroke-width="0.5"/>
<defs>
<clipPath id="clip0_16335_10706">
<rect width="24" height="24" rx="12" fill="white"/>
</clipPath>
</defs>
</svg>
