<svg width="48" height="48" viewBox="0 0 48 48" fill="none" xmlns="http://www.w3.org/2000/svg">
<path d="M36.2102 14.25L36.1902 14.01C35.8402 9.29 34.9202 2.68 34.9102 2.61C34.8402 2.12 34.4202 1.75 33.9202 1.75H14.0802C13.5802 1.75 13.1602 2.12 13.0902 2.61C13.0902 2.68 12.1602 9.28 11.8102 14.01L11.7902 14.25C11.7202 15.23 11.6602 16.16 11.6602 16.91C11.6602 21.7 15.6902 28.52 22.9902 29.18V44.24H16.9102C16.3602 44.24 15.9102 44.69 15.9102 45.24C15.9102 45.79 16.3602 46.24 16.9102 46.24H31.0802C31.6302 46.24 32.0802 45.79 32.0802 45.24C32.0802 44.69 31.6302 44.24 31.0802 44.24H25.0002V29.18C29.1602 28.9 31.8302 26.69 33.3602 24.79C35.1902 22.51 36.3302 19.49 36.3302 16.9C36.3302 16.15 36.2702 15.22 36.2002 14.24L36.2102 14.25ZM24.1402 27.25C17.1702 27.25 13.6602 20.63 13.6602 16.92C13.6602 16.23 13.7202 15.34 13.7802 14.39L13.8002 14.16C14.0702 10.51 14.6902 5.69 14.9502 3.75H33.0402C33.3002 5.69 33.9202 10.5 34.1902 14.15L34.2102 14.39C34.2702 15.34 34.3302 16.23 34.3302 16.92C34.3302 20.41 31.2502 27.25 24.1402 27.25Z" fill="#323232"/>
<path fill-rule="evenodd" clip-rule="evenodd" d="M15.5809 14.54C15.5209 15.44 15.4609 16.3 15.4609 16.91C15.4609 19.89 18.4409 25.44 24.1409 25.44C30.1209 25.44 32.5309 19.42 32.5309 16.91C32.5309 16.29 32.4709 15.44 32.4109 14.5V14.48H15.5909V14.53L15.5809 14.54Z" fill="#DF0000"/>
</svg>
