<svg width="48" height="48" viewBox="0 0 48 48" fill="none" xmlns="http://www.w3.org/2000/svg">
<path d="M40.9992 15.7702C39.9092 7.72017 34.4392 2.50017 26.3892 1.80017C18.8392 1.14017 11.8192 6.98017 10.0092 12.8402L9.68923 13.8702C8.49923 17.7302 7.89923 19.6702 7.05923 20.7102C6.70923 21.1402 6.77923 21.7702 7.20923 22.1202C7.63923 22.4702 8.26923 22.4002 8.61923 21.9702C9.69923 20.6302 10.2992 18.7002 11.5992 14.4602L11.9192 13.4302C13.4692 8.42017 19.7292 3.22017 26.2192 3.79017C33.3792 4.41017 38.0392 8.88017 39.0192 16.0402C39.3192 18.2802 39.0692 20.4002 38.7992 22.6402C38.5492 24.7402 38.2892 26.9002 38.4892 29.2502C38.5392 29.7702 38.9692 30.1602 39.4892 30.1602C39.5192 30.1602 39.5492 30.1602 39.5792 30.1602C40.1292 30.1102 40.5392 29.6302 40.4892 29.0802C40.2992 26.9402 40.5492 24.8802 40.7892 22.8902C41.0592 20.6202 41.3392 18.2702 40.9992 15.7802V15.7702Z" fill="#323232"/>
<path d="M37.0193 21.4201C37.1793 19.3001 37.3193 17.4701 37.1793 16.2001C36.5093 10.2001 32.2693 6.13011 26.1093 5.60011C20.7093 5.12011 15.2393 9.38011 13.7093 13.4801C13.4393 14.2201 13.1893 15.0201 12.9293 15.8701C11.9693 18.9901 10.7793 22.8801 7.18935 26.2401C6.78935 26.6201 6.76935 27.2501 7.13935 27.6501C7.51935 28.0501 8.14935 28.0701 8.54935 27.7001C12.5293 23.9701 13.8093 19.8001 14.8293 16.4601C15.0793 15.6401 15.3193 14.8701 15.5693 14.1801C16.6893 11.1501 21.1793 7.18011 25.9193 7.60011C31.1493 8.06011 34.6093 11.3601 35.1693 16.4301C35.2893 17.5101 35.1593 19.2601 35.0093 21.2801C34.6693 25.7801 34.2493 31.3801 36.1593 34.9401C36.3393 35.2801 36.6893 35.4701 37.0393 35.4701C37.1993 35.4701 37.3593 35.4301 37.5093 35.3501C37.9993 35.0901 38.1793 34.4801 37.9193 34.0001C36.2893 30.9601 36.6793 25.6801 36.9993 21.4401L37.0193 21.4201Z" fill="#323232"/>
<path d="M33.1304 23.8499C33.3104 21.7699 33.5004 19.6299 33.4304 17.4599C33.2704 12.7199 29.8904 9.41992 25.1804 9.41992C25.1504 9.41992 25.1104 9.41992 25.0804 9.41992C20.5104 9.45992 17.2604 14.3099 16.5104 17.5799C15.5504 21.7599 12.0004 26.9799 7.6804 30.5799C7.2604 30.9299 7.2004 31.5599 7.5504 31.9899C7.9004 32.4099 8.5304 32.4699 8.9604 32.1199C13.5904 28.2699 17.4004 22.5999 18.4604 18.0299C19.0904 15.2799 21.7504 11.4599 25.1004 11.4199C28.1404 11.3699 31.2904 13.2599 31.4304 17.5199C31.5004 19.5599 31.3104 21.6499 31.1304 23.6699C30.6704 28.8599 30.1904 34.2299 34.1904 38.7299C34.3904 38.9499 34.6604 39.0699 34.9404 39.0699C35.1804 39.0699 35.4104 38.9899 35.6004 38.8199C36.0104 38.4499 36.0504 37.8199 35.6804 37.4099C32.2604 33.5499 32.6804 28.8399 33.1204 23.8499H33.1304Z" fill="#323232"/>
<path d="M29.0402 24.1602C29.6302 22.2202 30.7802 17.4202 28.8402 14.8102C28.0502 13.7402 26.8402 13.1802 25.3402 13.1802C21.4602 13.1802 20.3002 17.2202 19.2802 20.7802C18.9202 22.0502 18.5402 23.3502 18.0702 24.4502C16.3402 28.4402 10.3802 33.3702 9.55023 33.8802C9.08023 34.1702 8.93023 34.7902 9.22023 35.2602C9.51023 35.7302 10.1302 35.8802 10.6002 35.5902C11.5802 34.9902 17.9302 29.8102 19.9102 25.2602C20.4402 24.0502 20.8302 22.6802 21.2102 21.3502C22.3102 17.5202 23.1302 15.2002 25.3502 15.2002C26.2202 15.2002 26.8402 15.4702 27.2502 16.0202C28.2102 17.3102 28.1702 20.2102 27.1402 23.6002C26.5302 25.6102 23.0602 35.8702 14.1902 40.4202C13.7002 40.6702 13.5002 41.2802 13.7602 41.7702C13.9402 42.1202 14.2902 42.3102 14.6502 42.3102C14.8002 42.3102 14.9602 42.2702 15.1102 42.2002C24.6902 37.2802 28.4102 26.3202 29.0602 24.1802L29.0402 24.1602Z" fill="#323232"/>
<path d="M26.1296 18.94C26.2396 18.4 25.8896 17.87 25.3496 17.76C24.8096 17.65 24.2796 18 24.1696 18.54C21.5796 31.38 13.9796 35.68 11.1196 37.3L10.7996 37.48C10.3196 37.75 10.1596 38.37 10.4296 38.85C10.6196 39.17 10.9496 39.35 11.2996 39.35C11.4696 39.35 11.6396 39.31 11.7996 39.22L12.1096 39.04C14.8896 37.46 23.3696 32.67 26.1396 18.93L26.1296 18.94Z" fill="#323232"/>
<path d="M29.7807 31.1599C29.8307 30.6599 29.5007 30.1999 29.0107 30.0899C28.5207 29.9799 28.0207 30.2499 27.8507 30.7199C25.3007 37.5999 20.0507 41.3199 17.5307 43.1099C17.2207 43.3299 16.9607 43.5199 16.7407 43.6799C16.3007 44.0099 16.2107 44.6399 16.5407 45.0799C16.7407 45.3399 17.0407 45.4799 17.3407 45.4799C17.5507 45.4799 17.7607 45.4199 17.9407 45.2799C18.1407 45.1299 18.3907 44.9499 18.6807 44.7399C20.9007 43.1599 25.1207 40.1699 28.0707 34.9499C28.5107 37.1099 29.5207 39.7799 31.7807 41.9999C32.1707 42.3899 32.8107 42.3799 33.1907 41.9899C33.5807 41.5999 33.5707 40.9599 33.1807 40.5799C29.3207 36.7899 29.7707 31.2199 29.7707 31.1699L29.7807 31.1599Z" fill="#323232"/>
<path d="M28.4395 40.2999C28.2895 39.9499 27.9494 39.7099 27.5694 39.6899C27.1794 39.6599 26.8194 39.8699 26.6394 40.2099C25.7194 41.8899 22.8094 44.0699 22.2494 44.4099C21.7794 44.6999 21.6294 45.3199 21.9194 45.7899C22.1094 46.0999 22.4395 46.2699 22.7695 46.2699C22.9495 46.2699 23.1295 46.2199 23.2895 46.1199C23.6595 45.8899 25.8294 44.3499 27.3394 42.6199C27.6595 43.1699 28.0494 43.7899 28.5094 44.2899C28.8794 44.6999 29.5094 44.7399 29.9194 44.3699C30.3294 43.9999 30.3694 43.3699 29.9994 42.9599C29.1094 41.9599 28.4295 40.3299 28.4194 40.3099L28.4395 40.2999Z" fill="#323232"/>
</svg>
