<svg width="48" height="48" viewBox="0 0 48 48" fill="none" xmlns="http://www.w3.org/2000/svg">
<path d="M41.8593 17.4703C40.4093 16.2703 36.0893 14.0303 24.1193 14.0303H23.8793C22.3993 14.0303 21.0293 14.0603 19.7793 14.1303C28.6693 14.5703 32.1393 16.4203 33.4093 17.4703C33.8393 17.8303 34.0893 18.3503 34.0893 18.9103V27.9103C34.0893 29.1403 33.4093 30.2903 32.3293 30.8803C31.2793 31.4503 30.2293 31.9303 29.2393 32.3403C29.3593 32.4703 29.4893 32.6103 29.6093 32.7203C30.6293 33.7403 32.0893 34.1403 33.4793 33.7603C35.2893 33.2703 38.0193 32.3703 40.7893 30.8703C41.8793 30.2803 42.5493 29.1403 42.5493 27.9003V18.9003C42.5493 18.3403 42.2993 17.8203 41.8693 17.4603L41.8593 17.4703Z" fill="#8DE2E0"/>
<path d="M3.25 20.75H5.46V26.55H3.25C2.56 26.55 2 25.99 2 25.3V22C2 21.31 2.56 20.75 3.25 20.75Z" fill="#DF0000"/>
<path d="M42.5391 21.0693H44.7491C45.4391 21.0693 45.9991 21.6293 45.9991 22.3193V25.6193C45.9991 26.3093 45.4391 26.8693 44.7491 26.8693H42.5391V21.0693Z" fill="#DF0000"/>
<path d="M32.4409 34.9098C31.1309 34.9098 29.8409 34.3898 28.8909 33.4298C27.6709 32.2098 26.7209 31.0198 26.0809 29.8998C25.8809 29.5498 25.5409 29.3498 25.1609 29.3498H22.8409C22.4609 29.3498 22.1209 29.5598 21.9209 29.9098C21.2809 31.0298 20.3309 32.2098 19.1109 33.4398C17.8409 34.7098 15.9909 35.2098 14.2709 34.7398C12.4109 34.2398 9.60094 33.3098 6.75094 31.7698C5.34094 31.0098 4.46094 29.5298 4.46094 27.9198V18.9198C4.46094 18.0598 4.84094 17.2498 5.50094 16.7098C7.16094 15.3398 11.7609 13.0498 23.8709 13.0498H24.1109C36.2309 13.0498 40.8209 15.3498 42.4809 16.7098C43.1409 17.2598 43.5209 18.0598 43.5209 18.9198V27.9198C43.5209 29.5298 42.6409 31.0098 41.2309 31.7698C38.3809 33.3098 35.5709 34.2398 33.7109 34.7398C33.2809 34.8598 32.8509 34.9098 32.4209 34.9098H32.4409ZM22.8409 27.3498H25.1609C26.2409 27.3498 27.2609 27.9498 27.8209 28.9098C28.3709 29.8598 29.2309 30.9398 30.3109 32.0198C31.0809 32.7798 32.1809 33.0798 33.2109 32.8098C34.9609 32.3298 37.6209 31.4598 40.3009 30.0098C41.0609 29.5998 41.5409 28.7998 41.5409 27.9198V18.9198C41.5409 18.6598 41.4309 18.4198 41.2309 18.2498C40.0609 17.2898 36.0509 15.0398 24.1309 15.0398H23.8909C11.9709 15.0398 7.96094 17.2798 6.79094 18.2498C6.59094 18.4098 6.48094 18.6598 6.48094 18.9198V27.9198C6.48094 28.7998 6.95094 29.5998 7.72094 30.0098C10.4009 31.4598 13.0609 32.3298 14.8109 32.8098C15.8309 33.0898 16.9409 32.7898 17.7109 32.0198C18.7909 30.9398 19.6509 29.8598 20.2009 28.9098C20.7509 27.9498 21.7709 27.3498 22.8609 27.3498H22.8409Z" fill="#323232"/>
</svg>
