<svg width="48" height="48" viewBox="0 0 48 48" fill="none" xmlns="http://www.w3.org/2000/svg">
<path d="M45.25 23C44.7 23 44.25 23.45 44.25 24C44.25 35.17 35.17 44.25 24 44.25C12.83 44.25 3.75 35.17 3.75 24C3.75 12.83 12.83 3.75 24 3.75C30.71 3.75 36.97 7.07 40.72 12.57H37.52C36.97 12.57 36.52 13.02 36.52 13.57C36.52 14.12 36.97 14.57 37.52 14.57H43.13C43.68 14.57 44.13 14.12 44.13 13.57V8.06C44.13 7.51 43.68 7.06 43.13 7.06C42.58 7.06 42.13 7.51 42.13 8.06V11.12C37.95 5.24 31.22 1.75 24 1.75C11.73 1.75 1.75 11.73 1.75 24C1.75 36.27 11.73 46.25 24 46.25C36.27 46.25 46.25 36.27 46.25 24C46.25 23.45 45.8 23 45.25 23Z" fill="#323232"/>
<path d="M26.1199 24.0302L32.6999 17.4502C33.2899 16.8602 33.2899 15.9102 32.6999 15.3302C32.1099 14.7502 31.1599 14.7402 30.5799 15.3302L23.9999 21.9102L17.4199 15.3302C16.8399 14.7402 15.8799 14.7402 15.2999 15.3302C14.7199 15.9202 14.7099 16.8702 15.2999 17.4502L21.8799 24.0302L15.2999 30.6102C14.7099 31.2002 14.7099 32.1502 15.2999 32.7302C15.5899 33.0202 15.9799 33.1702 16.3599 33.1702C16.7399 33.1702 17.1299 33.0202 17.4199 32.7302L23.9999 26.1502L30.5799 32.7302C30.8699 33.0202 31.2599 33.1702 31.6399 33.1702C32.0199 33.1702 32.4099 33.0202 32.6999 32.7302C33.2899 32.1402 33.2899 31.1902 32.6999 30.6102L26.1199 24.0302Z" fill="#DF0000"/>
</svg>
