<svg width="48" height="48" viewBox="0 0 48 48" fill="none" xmlns="http://www.w3.org/2000/svg">
<path d="M44.9394 28.04H41.8594C41.3071 28.04 40.8594 28.4878 40.8594 29.04V36.18C40.8594 36.7323 41.3071 37.18 41.8594 37.18H44.9394C45.4917 37.18 45.9394 36.7323 45.9394 36.18V29.04C45.9394 28.4878 45.4917 28.04 44.9394 28.04Z" fill="#DF0000"/>
<path d="M43.8809 25.72C43.8809 25.72 43.7809 25.72 43.7309 25.71C43.1809 25.63 42.8109 25.12 42.8909 24.57C42.9009 24.48 43.1609 21.87 39.3409 19.41C35.2809 16.79 35.2309 13.09 35.7609 11.5C35.9409 10.98 36.5009 10.7 37.0309 10.87C37.5509 11.05 37.8309 11.61 37.6609 12.13C37.6209 12.27 36.7009 15.33 40.4309 17.73C45.3909 20.93 44.8909 24.71 44.8709 24.86C44.8009 25.36 44.3709 25.71 43.8809 25.71V25.72Z" fill="#323232"/>
<path d="M37.6 25.7201C37.6 25.7201 37.5 25.7201 37.45 25.7101C36.9 25.6301 36.53 25.1201 36.61 24.5701C36.61 24.5101 36.79 22.6001 33.95 20.7701C30.67 18.6501 30.64 15.6401 31.07 14.3501C31.25 13.8301 31.82 13.5501 32.34 13.7201C32.86 13.9001 33.14 14.4601 32.97 14.9801C32.89 15.2201 32.33 17.3501 35.03 19.0901C39.01 21.6601 38.61 24.7401 38.59 24.8701C38.52 25.3701 38.09 25.7201 37.6 25.7201Z" fill="#323232"/>
<path d="M39.0405 28.04H3.06055C2.51055 28.04 2.06055 28.49 2.06055 29.04V36.18C2.06055 36.73 2.51055 37.18 3.06055 37.18H39.0405C39.5905 37.18 40.0405 36.73 40.0405 36.18V29.04C40.0405 28.49 39.5905 28.04 39.0405 28.04ZM4.06055 30.04H13.5605V35.18H4.06055V30.04ZM38.0405 35.19H15.5505V30.05H38.0405V35.19Z" fill="#323232"/>
</svg>
