<svg width="48" height="48" viewBox="0 0 48 48" fill="none" xmlns="http://www.w3.org/2000/svg">
<path d="M15.2 29.1601C15.2 31.8301 13.04 33.9901 10.37 33.9901C7.70004 33.9901 5.54004 31.8301 5.54004 29.1601C5.54004 26.4901 7.70004 24.3301 10.37 24.3301C13.04 24.3301 15.2 26.4901 15.2 29.1601Z" fill="#8DE2E0"/>
<path d="M42.4696 29.1601C42.4696 31.8301 40.3096 33.9901 37.6396 33.9901C34.9696 33.9901 32.8096 31.8301 32.8096 29.1601C32.8096 26.4901 34.9696 24.3301 37.6396 24.3301C40.3096 24.3301 42.4696 26.4901 42.4696 29.1601Z" fill="#8DE2E0"/>
<path d="M17.8597 13.9502H11.9697C11.4197 13.9502 10.9697 13.5002 10.9697 12.9502C10.9697 12.4002 11.4197 11.9502 11.9697 11.9502H17.8597C18.4097 11.9502 18.8597 12.4002 18.8597 12.9502C18.8597 13.5002 18.4097 13.9502 17.8597 13.9502Z" fill="#DF0000"/>
<path d="M37.6302 20.79C36.9902 20.79 36.3602 20.87 35.7602 21.01L32.2102 11.14C32.0702 10.74 31.6902 10.48 31.2702 10.48H27.1602C26.6102 10.48 26.1602 10.93 26.1602 11.48C26.1602 12.03 26.6102 12.48 27.1602 12.48H30.5702L31.9702 16.37H16.0402C15.9602 16.37 15.8802 16.38 15.8102 16.4C15.8002 16.4 15.7902 16.4 15.7702 16.4C15.6502 16.43 15.5502 16.49 15.4502 16.56C15.4402 16.56 15.4302 16.56 15.4202 16.58C15.4102 16.59 15.4002 16.61 15.3902 16.62C15.3202 16.68 15.2502 16.76 15.2002 16.84C15.1902 16.86 15.1702 16.88 15.1602 16.9C15.1602 16.91 15.1502 16.92 15.1402 16.93L13.0602 21.24C12.2102 20.95 11.3002 20.78 10.3602 20.78C5.75023 20.78 1.99023 24.53 1.99023 29.15C1.99023 33.77 5.74023 37.52 10.3602 37.52C14.6302 37.52 18.1602 34.3 18.6602 30.16H25.2702C25.3702 30.16 25.4602 30.14 25.5602 30.11C25.5902 30.11 25.6102 30.09 25.6402 30.08C25.7102 30.05 25.7802 30.01 25.8502 29.97C25.8602 29.97 25.8802 29.96 25.8902 29.95C25.8902 29.95 25.8902 29.94 25.9002 29.93C25.9702 29.87 26.0402 29.8 26.0902 29.73L33.1002 19.55L33.8702 21.69C31.1402 23.07 29.2502 25.9 29.2502 29.16C29.2502 33.77 33.0002 37.53 37.6202 37.53C42.2402 37.53 45.9902 33.78 45.9902 29.16C45.9902 24.54 42.2402 20.79 37.6202 20.79H37.6302ZM16.2502 19.25L23.2302 28.16H18.6702C18.3702 25.62 16.9302 23.44 14.8702 22.12L16.2502 19.26V19.25ZM16.6502 28.16H11.9602L14.0002 23.93C15.3902 24.9 16.3802 26.41 16.6502 28.16ZM10.3702 35.52C6.86023 35.52 4.00023 32.66 4.00023 29.15C4.00023 25.64 6.86023 22.78 10.3702 22.78C11.0102 22.78 11.6202 22.88 12.2002 23.05L9.47023 28.71C9.32023 29.02 9.34024 29.38 9.52024 29.68C9.70023 29.97 10.0202 30.15 10.3702 30.15H16.6502C16.1702 33.19 13.5402 35.51 10.3702 35.51V35.52ZM25.2302 27.47L18.1002 18.37H31.4902L25.2302 27.47ZM37.6302 35.52C34.1202 35.52 31.2602 32.66 31.2602 29.15C31.2602 26.75 32.5902 24.66 34.5602 23.57L36.6902 29.48C36.8402 29.89 37.2202 30.14 37.6302 30.14C37.7402 30.14 37.8602 30.12 37.9702 30.08C38.4902 29.89 38.7602 29.32 38.5702 28.8L36.4402 22.89C36.8202 22.82 37.2202 22.78 37.6302 22.78C41.1402 22.78 44.0002 25.64 44.0002 29.15C44.0002 32.66 41.1402 35.52 37.6302 35.52Z" fill="#323232"/>
</svg>
