<svg width="48" height="48" viewBox="0 0 48 48" fill="none" xmlns="http://www.w3.org/2000/svg">
<path d="M24.9999 4.68961V2.84961C24.9999 2.29961 24.5499 1.84961 23.9999 1.84961C23.4499 1.84961 22.9999 2.29961 22.9999 2.84961V4.68961C11.2599 5.20961 1.87988 14.9196 1.87988 26.7896C1.87988 26.8396 1.89988 26.8696 1.90988 26.9196C1.90988 26.9696 1.92988 27.0196 1.93988 27.0596C1.95988 27.1396 1.98988 27.1996 2.02988 27.2696C2.05988 27.3196 2.08988 27.3596 2.11988 27.3996C2.16988 27.4596 2.20988 27.4996 2.26988 27.5496C2.29988 27.5696 2.30988 27.5996 2.33988 27.6196C2.37988 27.6396 2.41988 27.6596 2.45988 27.6696C2.48988 27.6796 2.50988 27.6996 2.53988 27.7096C2.65988 27.7596 2.77988 27.7896 2.89988 27.7896C3.21988 27.7896 3.53988 27.6296 3.72988 27.3496C4.72988 25.8596 6.38988 24.9696 8.16988 24.9696C9.94988 24.9696 11.5999 25.8496 12.5999 27.3196C12.6799 27.4396 12.7799 27.5296 12.8899 27.5996C12.8899 27.5996 12.8899 27.5996 12.8999 27.6096C13.3599 27.9196 13.9799 27.7896 14.2899 27.3396C15.2899 25.8496 16.9499 24.9696 18.7299 24.9696C20.5099 24.9696 21.9999 25.7796 23.0099 27.1396V42.2896C23.0099 44.3896 24.7199 46.1096 26.8299 46.1096C28.9399 46.1096 30.6499 44.3996 30.6499 42.2896C30.6499 41.7396 30.1999 41.2896 29.6499 41.2896C29.0999 41.2896 28.6499 41.7396 28.6499 42.2896C28.6499 43.2896 27.8399 44.1096 26.8299 44.1096C25.8199 44.1096 25.0099 43.2996 25.0099 42.2896V27.1396C26.0199 25.7796 27.5899 24.9696 29.2899 24.9696C30.9899 24.9696 32.7199 25.8496 33.7199 27.3196C33.7999 27.4396 33.8999 27.5296 34.0099 27.5996C34.0099 27.5996 34.0099 27.5996 34.0199 27.6096C34.1899 27.7196 34.3799 27.7796 34.5799 27.7796C34.8999 27.7796 35.2199 27.6196 35.4099 27.3396C36.4099 25.8496 38.0699 24.9696 39.8499 24.9696C41.6299 24.9696 43.2799 25.8496 44.2799 27.3196C44.3099 27.3596 44.3499 27.3796 44.3799 27.4196C44.4199 27.4696 44.4599 27.5096 44.5099 27.5496C44.5499 27.5796 44.5899 27.6096 44.6299 27.6296C44.7199 27.6796 44.8099 27.7196 44.9099 27.7396C44.9099 27.7396 44.9199 27.7396 44.9299 27.7396C44.9999 27.7496 45.0599 27.7796 45.1399 27.7796C45.6899 27.7796 46.1399 27.3296 46.1399 26.7796C46.1399 14.9196 36.7499 5.20961 25.0199 4.67961L24.9999 4.68961ZM39.8399 22.9696C37.8199 22.9696 35.9299 23.7996 34.5599 25.2296C33.1899 23.7996 31.2899 22.9696 29.2799 22.9696C27.2699 22.9696 25.3699 23.7996 23.9999 25.2296C22.6299 23.7996 20.7399 22.9696 18.7199 22.9696C16.6999 22.9696 14.8099 23.7996 13.4399 25.2296C12.0699 23.7996 10.1699 22.9696 8.15988 22.9696C6.66988 22.9696 5.24988 23.4196 4.05988 24.2296C5.31988 14.3396 13.7699 6.65961 23.9999 6.65961C34.2299 6.65961 42.6799 14.3396 43.9399 24.2296C42.7499 23.4196 41.3299 22.9696 39.8399 22.9696Z" fill="#323232"/>
<path d="M7.72962 21.4796C7.60962 21.4796 7.49962 21.4596 7.37962 21.4196C6.85962 21.2296 6.59962 20.6496 6.78962 20.1296C9.41962 13.0596 16.2196 8.30957 23.7096 8.30957C24.2596 8.30957 24.7096 8.75957 24.7096 9.30957C24.7096 9.85957 24.2596 10.3096 23.7096 10.3096C16.0196 10.3096 10.6096 15.5896 8.66962 20.8196C8.51962 21.2196 8.13962 21.4696 7.72962 21.4696V21.4796Z" fill="#8DE2E0"/>
</svg>
