<svg width="48" height="48" viewBox="0 0 48 48" fill="none" xmlns="http://www.w3.org/2000/svg">
<path d="M45.9403 8.36046C45.6203 7.91046 45.0203 7.76046 44.5203 7.99046C39.2303 10.4905 35.9003 7.36046 35.0103 6.34046C34.7203 6.01046 34.2803 5.88046 33.8603 5.99046C33.4403 6.10046 33.1203 6.43046 33.0303 6.86046C31.8203 12.6505 26.3903 13.1005 24.7203 13.1005C24.4303 13.1005 24.1903 13.2005 24.0003 13.3505C23.8003 13.2005 23.5503 13.1105 23.2903 13.1005C21.6203 13.1005 16.1903 12.6405 14.9803 6.86046C14.8903 6.43046 14.5703 6.10046 14.1503 5.99046C13.7303 5.88046 13.2903 6.02046 13.0003 6.34046C12.1103 7.36046 8.7803 10.5005 3.4903 8.00046C2.9903 7.76046 2.3903 7.92046 2.0703 8.37046C1.7503 8.82046 1.8003 9.43046 2.1803 9.83046C3.7203 11.4005 5.8703 14.7605 2.9603 19.5705C2.7403 19.9405 2.7403 20.4005 2.9603 20.7705C3.1903 21.1405 3.6003 21.3405 4.0303 21.3005C5.6003 21.1605 10.8103 21.2005 12.2003 27.4205C12.2903 27.8405 12.6103 28.1605 13.0203 28.2705C13.1203 28.3005 13.2203 28.3105 13.3203 28.3105C13.6403 28.3105 13.9403 28.1805 14.1603 27.9405C15.1303 26.8705 18.6803 23.5905 23.4403 26.0805C23.6203 26.1705 23.8103 26.2005 24.0003 26.1905C24.1903 26.1905 24.3803 26.1705 24.5603 26.0805C29.3203 23.5905 32.8703 26.8705 33.8403 27.9405C34.0603 28.1805 34.3703 28.3105 34.6803 28.3105C34.7803 28.3105 34.8803 28.3005 34.9803 28.2705C35.3903 28.1605 35.7103 27.8305 35.8003 27.4205C37.2003 21.2005 42.4103 21.1605 43.9703 21.3005C44.4003 21.3305 44.8103 21.1305 45.0403 20.7705C45.2703 20.4005 45.2703 19.9405 45.0403 19.5805C42.1303 14.7705 44.2803 11.4105 45.8203 9.84046C46.2103 9.44046 46.2603 8.83046 45.9303 8.38046L45.9403 8.36046ZM21.7703 23.3505C18.1503 22.5805 15.2803 24.3105 13.7503 25.5705C11.9903 20.4505 7.7703 19.4305 5.3603 19.2905C7.0703 15.6505 6.3803 12.7205 5.2903 10.7305C9.1003 11.5405 11.9003 9.93046 13.3903 8.71046C15.0703 13.4905 19.3803 14.7105 21.8103 15.0205C20.0303 18.3805 20.7003 21.3205 21.7503 23.3605L21.7703 23.3505ZM24.0003 23.2105C22.8103 21.3805 21.9103 18.5705 24.0003 15.2705C26.0903 18.5605 25.1903 21.3805 24.0003 23.2105ZM42.6303 19.2905C40.2303 19.4405 36.0103 20.4605 34.2403 25.5705C32.9703 24.5205 30.7903 23.1605 28.0203 23.1605C27.4503 23.1605 26.8503 23.2205 26.2303 23.3505C27.2803 21.3005 27.9503 18.3605 26.1703 15.0105C28.6003 14.7105 32.9203 13.4905 34.5903 8.70046C36.0803 9.92046 38.8803 11.5305 42.7003 10.7205C41.6203 12.7205 40.9303 15.6505 42.6303 19.2805V19.2905Z" fill="#323232"/>
<path d="M23.6309 31.8305C23.6309 31.8305 23.6309 31.7605 23.6309 31.7305C23.6309 31.6905 23.6309 31.6405 23.6309 31.6005C23.6309 31.4305 23.6309 31.2605 23.5809 31.1105C23.5609 30.9305 23.5209 30.7605 23.4609 30.6005C23.4009 30.3805 23.3109 30.1805 23.1909 29.9805C22.5709 28.7905 21.3209 27.9805 19.8809 27.9805C17.8109 27.9805 16.1309 29.6705 16.1309 31.7405C16.1309 33.5005 17.3309 34.9705 18.9609 35.3705C19.1209 35.4205 19.2909 35.4505 19.4509 35.4605C19.4709 35.4605 19.4809 35.4605 19.5009 35.4605C20.0909 33.6005 21.6709 32.1805 23.6309 31.8405V31.8305Z" fill="#DF0000"/>
<path d="M32.8105 31.6005C32.8105 31.4305 32.8105 31.2605 32.7605 31.1105C32.7405 30.9305 32.7005 30.7605 32.6405 30.6005C32.5805 30.3805 32.4905 30.1805 32.3705 29.9805C31.7505 28.7905 30.5005 27.9805 29.0605 27.9805C26.9905 27.9805 25.3105 29.6705 25.3105 31.7405C25.3105 31.7605 25.3105 31.7905 25.3105 31.8105C26.9705 32.0605 28.4305 33.0705 29.2105 34.5805C29.3605 34.8305 29.4905 35.1405 29.5805 35.4505C30.6705 35.3005 31.6105 34.6805 32.1905 33.8105C32.3205 33.6205 32.4305 33.4305 32.5105 33.2205C32.6705 32.8605 32.7605 32.5005 32.8005 32.1105C32.8005 31.9905 32.8205 31.8605 32.8205 31.7505C32.8205 31.7105 32.8205 31.6605 32.8205 31.6205L32.8105 31.6005Z" fill="#DF0000"/>
<path d="M28.5191 36.9703V36.8903C28.5191 36.6903 28.5191 36.5503 28.4891 36.4403C28.4591 36.1903 28.4191 36.0303 28.3591 35.8603C28.3091 35.6703 28.2391 35.5103 28.1691 35.3603C28.1391 35.3103 28.1191 35.2503 28.0891 35.2003C27.5591 34.1903 26.6691 33.4703 25.6191 33.1803C25.2691 33.0803 24.9091 33.0303 24.5291 33.0303C24.0991 33.0303 23.6891 33.1203 23.3091 33.2403C22.2591 33.5803 21.4091 34.3303 20.9391 35.3203C20.6891 35.8403 20.5391 36.4203 20.5391 37.0403C20.5391 38.8803 21.7791 40.4703 23.5591 40.9103C23.7391 40.9703 23.8891 40.9903 24.0491 41.0003C24.2391 41.0303 24.3891 41.0403 24.5391 41.0403C25.9391 41.0203 27.1591 40.3503 27.8891 39.2503C27.9991 39.0803 28.0991 38.9103 28.1691 38.7503L28.2291 38.5903C28.3891 38.2503 28.4791 37.8603 28.5291 37.4303C28.5291 37.3103 28.5491 37.1703 28.5491 37.0403L28.5291 36.9603L28.5191 36.9703Z" fill="#DF0000"/>
</svg>
