<svg width="48" height="48" viewBox="0 0 48 48" fill="none" xmlns="http://www.w3.org/2000/svg">
<path d="M39.0492 21.5698H9.20922L3.69922 31.4798H20.5592C20.5592 33.4498 22.1592 35.0498 24.1292 35.0498C26.0992 35.0498 27.6992 33.4498 27.6992 31.4798H44.2992L39.0492 21.5698Z" fill="#8DE2E0"/>
<path d="M45.2792 31.3801C45.2892 31.2001 45.2792 31.0201 45.1792 30.8501L40.0492 21.3201V8.64008H42.4692C42.8592 8.64008 43.2192 8.41008 43.3792 8.05008C43.5392 7.69008 43.4792 7.27008 43.2192 6.98008L39.8592 3.17008C39.6692 2.96008 39.3992 2.83008 39.1092 2.83008H9.26922C8.98922 2.83008 8.71922 2.95008 8.52922 3.16008L5.04922 6.97008C4.77922 7.26008 4.70922 7.69008 4.86922 8.05008C5.02922 8.41008 5.38922 8.65008 5.78922 8.65008H8.20922V21.3101L2.82922 30.8401C2.72922 31.0101 2.70922 31.2001 2.71922 31.3901C2.71922 31.4201 2.69922 31.4501 2.69922 31.4901V44.1901C2.69922 44.7401 3.14922 45.1901 3.69922 45.1901H44.2992C44.8492 45.1901 45.2992 44.7401 45.2992 44.1901V31.4901C45.2992 31.4901 45.2792 31.4301 45.2792 31.3901V31.3801ZM5.32922 30.4801L8.21922 25.3801V30.4801H5.32922ZM10.2092 22.5701H38.0492V30.4801H27.6992C27.1492 30.4801 26.6992 30.9301 26.6992 31.4801C26.6992 32.9001 25.5492 34.0501 24.1292 34.0501C22.7092 34.0501 21.5592 32.9001 21.5592 31.4801C21.5592 30.9301 21.1092 30.4801 20.5592 30.4801H10.2092V22.5701ZM40.0492 25.5301L42.7092 30.4701H40.0492V25.5301ZM9.70922 4.83008H38.6492L40.2492 6.64008H27.6892C27.3092 6.64008 26.9692 6.85008 26.7992 7.19008C26.2592 8.27008 25.4292 8.75008 24.1292 8.75008C22.4192 8.75008 21.7292 7.79008 21.4692 7.22008C21.3092 6.86008 20.9492 6.63008 20.5592 6.63008H8.04922L9.69922 4.82008L9.70922 4.83008ZM19.9692 8.64008C20.8292 9.97008 22.3392 10.7501 24.1292 10.7501C25.9192 10.7501 27.3692 10.0201 28.2792 8.64008H38.0492V20.5701H10.2092V8.64008H19.9692ZM43.2992 43.1701H4.69922V32.4701H19.6692C20.1292 34.5101 21.9492 36.0401 24.1292 36.0401C26.3092 36.0401 28.1292 34.5101 28.5892 32.4701H43.3092V43.1701H43.2992Z" fill="#323232"/>
</svg>
