<svg width="48" height="48" viewBox="0 0 48 48" fill="none" xmlns="http://www.w3.org/2000/svg">
<path d="M39.87 45.85C39.8 45.85 39.74 45.85 39.67 45.83L33.38 44.53C33.12 44.48 32.89 44.32 32.75 44.1C32.6 43.88 32.55 43.61 32.61 43.35L33.63 38.4L31.62 43.02C31.4 43.53 30.81 43.76 30.3 43.54L24.41 40.97C23.9 40.75 23.67 40.16 23.89 39.65L33.49 17.65C33.7 17.18 34.22 16.94 34.71 17.1L45.04 20.4C45.53 20.56 45.82 21.05 45.72 21.55L40.87 45.05C40.77 45.52 40.36 45.85 39.89 45.85H39.87ZM34.75 42.77L39.09 43.66L43.55 22.02L34.94 19.27L26.11 39.52L30.17 41.29L35.24 29.67C35.46 29.15 36.04 28.89 36.58 29.06C37.12 29.23 37.44 29.78 37.33 30.33L34.77 42.76L34.75 42.77Z" fill="#323232"/>
<path d="M34.8698 12.1L23.2298 3.29C21.6998 2.13 19.7098 1.83 17.9098 2.49L10.6998 5.12L9.10976 5.7C7.30976 6.36 5.97976 7.86999 5.54976 9.72999L2.30976 23.97C2.18976 24.51 2.51976 25.04 3.05976 25.17L7.56976 26.2C7.82976 26.26 8.09976 26.21 8.31976 26.07C8.53976 25.93 8.69976 25.7 8.75976 25.45L10.2198 19.05L13.5898 28.29C13.6798 28.54 13.8698 28.74 14.1098 28.85C14.2398 28.91 14.3898 28.94 14.5298 28.94C14.6498 28.94 14.7598 28.92 14.8698 28.88L28.3998 23.95C28.9198 23.76 29.1898 23.19 28.9998 22.67L25.6298 13.43L30.8598 17.39C31.0698 17.55 31.3398 17.62 31.5998 17.58C31.8598 17.54 32.0998 17.4 32.2598 17.19L35.0498 13.5C35.3798 13.06 35.2998 12.43 34.8598 12.1H34.8698ZM15.2198 5.6C15.0198 6.01 14.6998 6.4 14.2398 6.57C13.8398 6.71 13.3398 6.67 12.8598 6.46L15.2098 5.6H15.2198ZM31.2798 15.19L24.1398 9.79C23.7898 9.52 23.2998 9.52 22.9398 9.79C22.5798 10.05 22.4398 10.52 22.5898 10.94L26.7798 22.42L15.1298 26.67L10.9398 15.19C10.7998 14.79 10.4198 14.53 9.99976 14.53C9.97976 14.53 9.95976 14.53 9.93976 14.53C9.49976 14.56 9.12976 14.87 9.02976 15.31L7.03976 24.04L4.47976 23.46L7.49976 10.2C7.76976 8.99 8.62976 8.02 9.78976 7.6L10.6398 7.29C10.9798 7.68 11.4298 8.02 11.9598 8.27C12.5398 8.54 13.1398 8.68 13.7198 8.68C14.1398 8.68 14.5398 8.61 14.9198 8.47C16.4698 7.91 17.3998 6.23 17.4298 4.81L18.5798 4.39C19.7398 3.97 21.0198 4.16 22.0098 4.9L32.8598 13.11L31.2698 15.21L31.2798 15.19Z" fill="#323232"/>
<path d="M23.2401 15.3301C23.2401 15.3301 23.2201 15.3501 23.2101 15.3601C23.2001 15.3701 23.1901 15.3601 23.1801 15.3601C21.3701 14.8101 19.5301 14.7801 17.8201 15.1801C17.7001 15.2101 17.5701 15.1501 17.5101 15.0401C15.8801 11.9801 13.2701 13.8801 10.4701 11.0201C10.4501 11.0001 10.4501 10.9701 10.4701 10.9501C10.4901 10.9301 10.5201 10.9201 10.5401 10.9401C13.4801 13.0401 14.0501 10.9401 17.6801 12.3101L17.7201 12.3301C18.2201 12.5201 18.3401 12.1101 18.1501 11.9601C17.9701 11.8301 17.9401 11.7201 17.9401 11.7001C18.5401 11.6301 19.1401 11.7001 19.6901 11.8901V11.9701C19.6401 12.4601 17.5701 13.0901 17.8901 13.9501C17.9801 14.1801 18.2001 14.3301 18.4401 14.3301H18.9001C20.4101 14.3301 21.8801 14.6601 23.2301 15.2801C23.2601 15.2901 23.2701 15.3201 23.2601 15.3501L23.2401 15.3301Z" fill="#DF0000"/>
</svg>
