<svg width="130" height="30" viewBox="0 0 130 30" fill="none" xmlns="http://www.w3.org/2000/svg">
<path d="M99.8402 29.8328H130.264L105.885 5.3475C102.637 2.09953 98.2302 0.16748 93.6358 0.16748H88.5344L88.9147 1.16393L90.6034 5.59597L99.8402 29.8302V29.8328Z" fill="url(#paint0_linear_15605_2613)"/>
<path d="M90.6058 5.59815C93.9375 11.2853 102.677 11.8862 103.628 20.73C103.666 21.0951 103.945 21.3867 104.308 21.4425C109.346 22.2285 114.252 24.3025 118.514 27.7203H118.519C118.547 27.7457 118.577 27.7558 118.613 27.7558C118.648 27.7558 118.689 27.7432 118.717 27.7153C118.778 27.657 118.78 27.5606 118.722 27.4998C115.771 24.3963 112.163 21.9191 108.113 20.2888L106.881 19.7919C106.247 19.5358 105.809 18.907 105.826 18.1843C105.895 15.5424 112.145 16.0799 112.779 14.8096L112.888 14.5916C111.6 13.4911 110.071 12.6646 108.387 12.2031C108.372 12.2665 108.331 12.5758 108.674 13.1336C109.046 13.7396 108.266 14.7056 107.13 13.6636L107.033 13.5748C98.5901 5.83649 92.259 9.85018 88.9121 1.16357L90.6007 5.59562L90.6058 5.59815Z" fill="white"/>
<path d="M110.91 14.4502C110.91 14.4502 109.526 14.5187 108.674 13.1343C108.927 13.545 108.648 14.1231 108.088 14.1257V16.2352C108.998 15.9715 110.038 15.8092 110.91 15.6241V14.4502Z" fill="url(#paint1_linear_15605_2613)"/>
<path d="M105.352 21.6256C110.02 22.5231 114.546 24.5414 118.514 27.7209C109.67 20.1651 105.641 21.5318 105.352 21.6256Z" fill="url(#paint2_linear_15605_2613)"/>
<path d="M92.3832 5.99408C91.009 5.01792 89.8477 3.58283 88.9147 1.1665L90.6033 5.59855C93.935 11.2857 102.672 11.8866 103.626 20.7278C102.665 9.44236 97.7078 11.1285 92.3807 5.99408H92.3832Z" fill="url(#paint3_linear_15605_2613)"/>
<path d="M6.60243 7.75354V8.17697C6.60243 10.2079 5.26622 11.4604 3.31896 11.4604C1.3717 11.4604 0 10.1242 0 7.99188V3.47109C0 1.33621 1.2855 0 3.31896 0C5.35243 0 6.60243 1.25253 6.60243 3.28347V3.62322H5.36764V3.2505C5.36764 2.04868 4.62221 1.15111 3.30121 1.15111C1.98022 1.15111 1.27028 2.13235 1.27028 3.43559V8.02484C1.27028 9.32808 2.01572 10.3093 3.30121 10.3093C4.58671 10.3093 5.36764 9.41175 5.36764 8.20993V7.75354H6.60243Z" fill="#323232"/>
<path d="M16.8813 11.2931H15.5958V6.17904H11.6353V11.2931H10.3473V0.169922H11.6353V5.02793H15.5958V0.169922H16.8813V11.2931Z" fill="#323232"/>
<path d="M25.8721 8.73482H22.1298L21.4528 11.2906H20.1825L23.3671 0.169922H24.6881L27.9056 11.2931H26.5669L25.8721 8.73736V8.73482ZM23.9933 1.89659L22.4518 7.6192H25.5501L23.9933 1.89659Z" fill="#323232"/>
<path d="M32.4746 11.2931H31.1891V0.169922H32.4746V11.2931Z" fill="#323232"/>
<path d="M36.6759 11.2931V0.169922H39.5714C41.7038 0.169922 43.2454 1.47317 43.2454 3.48888C43.2454 4.97975 42.5177 6.09537 41.3995 6.58726L43.2276 11.2931H41.823L40.1292 6.87377C40.0456 6.89152 39.7388 6.90673 39.5359 6.90673H37.9614V11.2906H36.6759V11.2931ZM37.9614 1.30329V5.78858H39.503C40.9939 5.78858 41.9244 4.87326 41.9244 3.48635C41.9244 2.09943 40.9939 1.30329 39.503 1.30329H37.9614Z" fill="#323232"/>
<path d="M48.1211 2.94629V11.2931H46.937V0.169922H48.0552L50.6794 5.96099L53.2326 0.169922H54.3508V11.2931H53.0983V2.92854L51.0166 7.6192H50.256L48.1236 2.94629H48.1211Z" fill="#323232"/>
<path d="M63.3417 8.73482H59.5994L58.9224 11.2906H57.6521L60.8367 0.169922H62.1577L65.3752 11.2931H64.0365L63.3417 8.73736V8.73482ZM61.4629 1.89659L59.9214 7.6192H63.0197L61.4629 1.89659Z" fill="#323232"/>
<path d="M75.1444 11.2931H74.077L69.8452 2.84487V11.2931H68.6611V0.169922H69.7945L73.9603 8.48381V0.169922H75.1444V11.2931Z" fill="#323232"/>
<path d="M83.9983 3.33427V2.89309C83.9983 1.8434 83.3036 1.08275 82.084 1.08275C80.8645 1.08275 80.2205 1.8434 80.2205 2.72575C80.2205 3.79319 80.829 4.16591 81.6099 4.53609L82.8624 5.1294C84.115 5.7227 85.4182 6.36418 85.4182 8.29623C85.4182 10.2283 84.1657 11.4631 82.117 11.4631C80.1875 11.4631 78.7828 10.279 78.7828 8.49907V8.05789H80.0354V8.56499C80.0354 9.58173 80.7808 10.3753 82.1018 10.3753C83.4228 10.3753 84.1834 9.46002 84.1834 8.42808C84.1834 7.14258 83.405 6.76986 82.4745 6.32869L81.222 5.73538C79.9694 5.14208 79.0034 4.36368 79.0034 2.80689C79.0034 1.25009 80.223 -0.00244141 82.1195 -0.00244141C84.0161 -0.00244141 85.2179 1.18163 85.2179 2.96155V3.33427H83.9983Z" fill="#323232"/>
<path d="M30.3575 28.6816H34.6755V29.8327H29.072V18.7095H30.3575V28.6816Z" fill="#323232"/>
<path d="M44.1582 26.5314C44.1582 28.6638 42.7865 30.0025 40.8063 30.0025C38.826 30.0025 37.4543 28.6638 37.4543 26.5314V22.0106C37.4543 19.8783 38.7398 18.5396 40.8063 18.5396C42.8727 18.5396 44.1582 19.8758 44.1582 22.0106V26.5314ZM38.7398 26.5644C38.7398 27.8676 39.5005 28.8489 40.8063 28.8489C42.112 28.8489 42.8727 27.8676 42.8727 26.5644V21.9751C42.8727 20.6719 42.1273 19.6907 40.8063 19.6907C39.4853 19.6907 38.7398 20.6719 38.7398 21.9751V26.5644Z" fill="#323232"/>
<path d="M54.536 18.7095V26.5315C54.536 28.6638 53.1998 30.0026 51.2677 30.0026C49.3357 30.0026 47.9843 28.6638 47.9843 26.5315V18.7095H49.2698V26.5644C49.2698 27.8677 49.9974 28.8489 51.2677 28.8489C52.538 28.8489 53.2479 27.8677 53.2479 26.5644V18.7095H54.5334H54.536Z" fill="#323232"/>
<path d="M65.1368 29.8327H64.0694L59.8376 21.3844V29.8327H58.6536V18.7095H59.7869L63.9527 27.0234V18.7095H65.1368V29.8327Z" fill="#323232"/>
<path d="M69.0643 26.5314V22.0106C69.0643 19.8783 70.3676 18.5396 72.3985 18.5396C74.4294 18.5396 75.6668 19.7236 75.6668 21.6557V21.9954H74.432V21.6227C74.432 20.5223 73.7043 19.6932 72.401 19.6932C71.0978 19.6932 70.3346 20.6744 70.3346 21.9777V26.5669C70.3346 27.8702 71.0953 28.8514 72.401 28.8514C73.7068 28.8514 74.4675 27.9716 74.4675 26.752V25.4488H72.6546V24.3991H75.6693V26.7191C75.6693 28.75 74.3483 30.0025 72.401 30.0025C70.4538 30.0025 69.0669 28.6638 69.0669 26.5314H69.0643Z" fill="#323232"/>
<path d="M80.7834 24.7187V28.6791H85.4234V29.8302H79.4979V18.707H85.289V19.8581H80.786V23.5828H84.9163V24.7162H80.786L80.7834 24.7187Z" fill="#323232"/>
<defs>
<linearGradient id="paint0_linear_15605_2613" x1="114.98" y1="29.7237" x2="94.6855" y2="0.0863441" gradientUnits="userSpaceOnUse">
<stop stop-color="#BE0000"/>
<stop offset="0.39" stop-color="#DD0000"/>
<stop offset="0.77" stop-color="#F60000"/>
<stop offset="1" stop-color="#FF0000"/>
</linearGradient>
<linearGradient id="paint1_linear_15605_2613" x1="109.371" y1="16.3442" x2="109.645" y2="13.2179" gradientUnits="userSpaceOnUse">
<stop offset="0.65" stop-color="white" stop-opacity="0"/>
<stop offset="0.69" stop-color="#ECECEC" stop-opacity="0.0529"/>
<stop offset="0.76" stop-color="#D6D6D6" stop-opacity="0.25"/>
<stop offset="0.81" stop-color="#C5C5C5" stop-opacity="0.5184"/>
<stop offset="0.87" stop-color="#B9B9B9" stop-opacity="0.7569"/>
<stop offset="0.91" stop-color="#B1B1B1" stop-opacity="0.9409"/>
<stop offset="0.95" stop-color="#AFAFAF"/>
</linearGradient>
<linearGradient id="paint2_linear_15605_2613" x1="105.352" y1="24.5972" x2="118.514" y2="24.5972" gradientUnits="userSpaceOnUse">
<stop stop-color="white" stop-opacity="0"/>
<stop offset="0.07" stop-color="#F3F3F3" stop-opacity="0.0225"/>
<stop offset="0.21" stop-color="#DEDEDE" stop-opacity="0.1681"/>
<stop offset="0.35" stop-color="#CDCDCD" stop-opacity="0.3844"/>
<stop offset="0.49" stop-color="#C0C0C0" stop-opacity="0.6241"/>
<stop offset="0.63" stop-color="#B6B6B6" stop-opacity="0.8281"/>
<stop offset="0.77" stop-color="#B0B0B0" stop-opacity="0.9604"/>
<stop offset="0.9" stop-color="#AFAFAF"/>
</linearGradient>
<linearGradient id="paint3_linear_15605_2613" x1="88.9147" y1="10.9484" x2="103.628" y2="10.9484" gradientUnits="userSpaceOnUse">
<stop offset="0.25" stop-color="white" stop-opacity="0"/>
<stop offset="0.36" stop-color="#F6F6F6" stop-opacity="0.0121"/>
<stop offset="0.58" stop-color="#E0E0E0" stop-opacity="0.1444"/>
<stop offset="0.88" stop-color="#BDBDBD" stop-opacity="0.6724"/>
<stop offset="1" stop-color="#AFAFAF"/>
</linearGradient>
</defs>
</svg>
