<svg width="48" height="48" viewBox="0 0 48 48" fill="none" xmlns="http://www.w3.org/2000/svg">
<path d="M30.1205 4.65039L33.3405 11.3704L24.3105 29.4804L38.8105 11.3704L33.0005 4.65039H30.1205Z" fill="#8DE2E0"/>
<path d="M43.2309 19.5796C42.0409 19.1696 40.7409 19.7896 40.3209 20.9596L38.4709 25.8896C38.3709 25.8796 38.2709 25.8596 38.1709 25.8596C37.5609 25.8596 36.9609 26.0796 36.5209 26.4696L35.3009 27.5296C33.4109 29.1796 32.5409 29.6496 31.7809 30.0696C31.1709 30.3996 30.6009 30.7096 29.7609 31.4496C27.7309 33.2196 27.3809 36.8596 27.3509 38.8896H26.9609C26.4109 38.8896 25.9609 39.3396 25.9609 39.8896V43.3596C25.9609 43.9096 26.4109 44.3596 26.9609 44.3596H36.0809C36.6309 44.3596 37.0809 43.9096 37.0809 43.3596V39.8896C37.0809 39.3396 36.6309 38.8896 36.0809 38.8896H35.6909C35.8609 37.9296 36.2609 36.8596 37.1909 36.0496L41.0009 32.6896C41.5609 32.1896 42.0009 31.6096 42.3009 30.9596C43.5209 28.3296 44.6809 22.4396 44.7309 22.1896C44.9509 21.0796 44.3009 19.9596 43.2309 19.5896V19.5796ZM35.0709 42.3496H27.9509V40.8796H35.0709V42.3496ZM40.4809 30.1196C40.3009 30.5196 40.0209 30.8696 39.6709 31.1896L35.8609 34.5496C34.6609 35.5996 33.9009 37.1196 33.6609 38.8896H29.3309C29.3709 36.6496 29.8209 34.0396 31.0609 32.9596C31.7409 32.3696 32.1709 32.1296 32.7209 31.8396C33.5409 31.3996 34.5509 30.8496 36.6109 29.0496L37.8309 27.9896C37.8909 27.9296 38.0209 27.8796 38.1709 27.8796C38.1709 27.8796 38.3309 27.8796 38.3909 27.9496C38.4909 28.0596 38.4209 28.3696 38.2509 28.5196L35.6009 30.9796C35.2009 31.3596 35.1709 31.9896 35.5509 32.3896C35.9309 32.7896 36.5609 32.8196 36.9609 32.4396L39.5909 29.9996C40.3509 29.3296 40.7109 28.0396 40.1809 27.0396L42.2009 21.6596C42.2509 21.5096 42.4309 21.4296 42.5709 21.4796C42.7109 21.5296 42.7909 21.6696 42.7609 21.8096C42.3609 23.8396 41.3809 28.1896 40.4809 30.1196Z" fill="#323232"/>
<path d="M21.06 38.88H20.67C20.64 36.85 20.28 33.21 18.26 31.44C17.41 30.7 16.84 30.39 16.24 30.06C15.47 29.64 14.6 29.17 12.72 27.52L11.5 26.45C11.06 26.07 10.46 25.85 9.84998 25.84C9.74998 25.84 9.64998 25.86 9.54998 25.87L7.69998 20.95C7.27998 19.77 5.96998 19.15 4.77998 19.56C3.70998 19.93 3.06998 21.05 3.27998 22.16C3.32998 22.41 4.48998 28.3 5.70998 30.93C6.00998 31.58 6.44998 32.16 7.00998 32.66L10.83 36.02C11.75 36.83 12.16 37.89 12.32 38.85H11.93C11.38 38.85 10.93 39.3 10.93 39.85V43.32C10.93 43.87 11.38 44.32 11.93 44.32H21.05C21.6 44.32 22.05 43.87 22.05 43.32V39.85C22.05 39.3 21.6 38.85 21.05 38.85L21.06 38.88ZM12.15 34.55L8.33998 31.19C7.98998 30.88 7.70998 30.52 7.52998 30.12C6.62998 28.19 5.63998 23.84 5.24998 21.81C5.21998 21.67 5.29998 21.53 5.43998 21.48C5.58998 21.42 5.75998 21.51 5.81998 21.67L7.82998 27.03C7.29998 28.04 7.64998 29.32 8.39998 29.97L11.05 32.43C11.46 32.8 12.09 32.78 12.46 32.38C12.84 31.98 12.81 31.34 12.41 30.97L9.72998 28.49C9.57998 28.36 9.51998 28.05 9.60998 27.94C9.66998 27.87 9.82998 27.88 9.82998 27.87C9.97998 27.87 10.11 27.93 10.17 27.98L11.39 29.04C13.44 30.83 14.46 31.39 15.28 31.83C15.83 32.13 16.26 32.36 16.94 32.95C18.18 34.03 18.64 36.64 18.67 38.88H14.34C14.1 37.11 13.34 35.59 12.15 34.54V34.55ZM20.06 42.35H12.94V40.88H20.06V42.35Z" fill="#323232"/>
<path d="M24.8005 30.6596L39.5905 11.9896C39.5905 11.9896 39.6405 11.8996 39.6705 11.8596C39.6805 11.8296 39.7005 11.8096 39.7105 11.7896C39.7605 11.6896 39.7905 11.5796 39.8005 11.4596C39.8005 11.4396 39.8005 11.4196 39.8005 11.3996C39.8005 11.3096 39.8005 11.2096 39.7705 11.1196C39.7705 11.0896 39.7505 11.0596 39.7405 11.0196C39.7305 10.9896 39.7305 10.9596 39.7105 10.9396C39.6805 10.8696 39.6305 10.8096 39.5805 10.7496C39.5805 10.7496 39.5805 10.7296 39.5605 10.7196V10.6996H39.5505L33.7605 3.98965C33.5705 3.76965 33.2905 3.63965 33.0005 3.63965H14.7505C14.4605 3.63965 14.1805 3.76965 13.9905 3.98965L8.29055 10.7196C8.29055 10.7196 8.28055 10.7396 8.27055 10.7596C8.23055 10.8196 8.18055 10.8696 8.15055 10.9396C8.14055 10.9696 8.13055 10.9996 8.12055 11.0296C8.11055 11.0596 8.10055 11.0996 8.09055 11.1296C8.07055 11.2196 8.06055 11.3196 8.06055 11.4096C8.06055 11.4296 8.06055 11.4496 8.06055 11.4696C8.07055 11.5796 8.10055 11.6896 8.15055 11.7896C8.16055 11.8196 8.18055 11.8396 8.20055 11.8696C8.22055 11.9096 8.24055 11.9596 8.27055 11.9996L23.2405 30.6696C23.2405 30.6696 23.2805 30.6896 23.2905 30.7096C23.3205 30.7396 23.3405 30.7696 23.3705 30.7896C23.3805 30.7997 23.3905 30.8196 23.4105 30.8296C23.4505 30.8596 23.5005 30.8796 23.5405 30.8996C23.5705 30.9196 23.6005 30.9396 23.6305 30.9496C23.6605 30.9597 23.7005 30.9796 23.7305 30.9896C23.7305 30.9896 23.7405 30.9896 23.7505 30.9996C23.8305 31.0196 23.9205 31.0296 24.0005 31.0296C24.0805 31.0296 24.1705 31.0196 24.2505 30.9996C24.2505 30.9996 24.2705 30.9996 24.2805 30.9896C24.3205 30.9796 24.3505 30.9597 24.3905 30.9496C24.4205 30.9396 24.4605 30.9196 24.4905 30.8996C24.5305 30.8796 24.5705 30.8596 24.6105 30.8296C24.6205 30.8196 24.6305 30.7997 24.6505 30.7896C24.6805 30.7596 24.7105 30.7297 24.7405 30.6996C24.7605 30.6796 24.7805 30.6796 24.7905 30.6596H24.8005ZM26.4305 5.64965L27.7805 10.3796H20.2905L21.2805 5.64965H26.4305ZM27.7905 12.3696L24.0305 26.1896L20.3605 12.3696H27.7905ZM26.2605 25.5996L29.8605 12.3796H36.7405L26.2605 25.5996ZM36.6305 10.3696H29.8605L28.5105 5.63965H32.5505L36.6305 10.3696ZM15.2105 5.64965H19.2305L18.2405 10.3796H11.2005L15.2105 5.64965ZM18.2905 12.3696L21.8405 25.7196L11.1405 12.3696H18.3005H18.2905Z" fill="#323232"/>
</svg>
