<svg width="48" height="48" viewBox="0 0 48 48" fill="none" xmlns="http://www.w3.org/2000/svg">
<path d="M23.89 39.95L24.52 36.86L26.17 36.05C26.47 35.9 26.6 35.53 26.45 35.23C26.3 34.93 25.93 34.8 25.63 34.95L23.98 35.76L21.14 34.38C21.14 34.38 20.93 34.26 20.81 34.32L20.35 34.55C20.29 34.57 20.25 34.63 20.25 34.7C20.25 34.77 20.39 34.89 20.43 34.94L22.12 36.68L20.9 37.28L19.9 36.78C19.84 36.75 19.77 36.75 19.71 36.78L19.37 36.95C19.37 36.95 19.23 37.03 19.36 37.15L20.51 38.16L20.61 39.69C20.63 39.87 20.74 39.82 20.77 39.8L21.11 39.63C21.17 39.6 21.22 39.55 21.23 39.48L21.44 38.38L22.66 37.78L23 40.19C23 40.26 23.03 40.44 23.07 40.48C23.12 40.52 23.19 40.52 23.25 40.48L23.72 40.25C23.84 40.19 23.87 39.96 23.87 39.96L23.89 39.95Z" fill="#DF0000"/>
<path d="M30.9697 37.8201C30.5997 37.8201 30.2497 37.6201 30.0697 37.2601L29.7597 36.6301C29.5197 36.1301 29.7197 35.5301 30.2097 35.2901C30.7097 35.0501 31.3097 35.2501 31.5497 35.7401L31.8597 36.3701C32.0997 36.8701 31.8997 37.4701 31.4097 37.7101C31.2697 37.7801 31.1197 37.8101 30.9697 37.8101V37.8201Z" fill="#323232"/>
<path d="M29.7197 35.1999C29.3497 35.1999 28.9997 34.9999 28.8197 34.6399L28.5097 34.0099C28.2697 33.5099 28.4697 32.9199 28.9597 32.6699C29.4597 32.4299 30.0497 32.6299 30.2997 33.1199L30.6097 33.7499C30.8497 34.2499 30.6497 34.8399 30.1597 35.0899C30.0197 35.1599 29.8697 35.1899 29.7197 35.1899V35.1999Z" fill="#323232"/>
<path d="M28.4704 32.5599C28.1004 32.5599 27.7504 32.3599 27.5704 31.9999L27.2604 31.3699C27.0204 30.8699 27.2204 30.2799 27.7204 30.0299C28.2204 29.7799 28.8204 29.9899 29.0604 30.4899L29.3704 31.1199C29.6104 31.6199 29.4104 32.2099 28.9104 32.4599C28.7704 32.5299 28.6204 32.5599 28.4704 32.5599Z" fill="#323232"/>
<path d="M43.32 4.91003L27.94 2.31003C27.4 2.21003 26.88 2.58003 26.79 3.13003L24.43 17.11L19.04 5.82003C18.8 5.32003 18.2 5.11003 17.71 5.35003L3.17996 12.29C2.93996 12.4 2.75996 12.61 2.66996 12.86C2.57996 13.11 2.59996 13.38 2.70996 13.62L12.07 33.22C12.24 33.58 12.6 33.79 12.97 33.79C13.11 33.79 13.26 33.76 13.4 33.69L27.92 26.75C27.92 26.75 27.92 26.75 27.93 26.75L29.15 26.96L15.02 33.92C14.46 34.2 14.04 34.68 13.84 35.27C13.64 35.86 13.68 36.5 13.96 37.06L17.58 44.4C17.86 44.96 18.34 45.38 18.93 45.58C19.18 45.66 19.43 45.71 19.68 45.71C20.03 45.71 20.39 45.63 20.71 45.47L36.85 37.51C37.41 37.23 37.83 36.76 38.03 36.16C38.23 35.57 38.19 34.93 37.91 34.37L34.72 27.9L39.29 28.67C39.43 28.69 39.57 28.71 39.7 28.71C40.89 28.71 41.94 27.85 42.14 26.65L45.33 7.78003C45.56 6.43003 44.65 5.15003 43.3 4.93003L43.32 4.91003ZM36.15 35.51C36.15 35.51 36.09 35.65 35.98 35.71L19.84 43.67C19.67 43.75 19.46 43.68 19.38 43.51L15.76 36.17C15.71 36.06 15.73 35.96 15.74 35.91C15.75 35.86 15.8 35.77 15.91 35.71L32.05 27.75C32.1 27.72 32.16 27.71 32.2 27.71C32.25 27.71 32.29 27.71 32.31 27.73C32.36 27.75 32.45 27.79 32.51 27.9L36.13 35.24C36.18 35.35 36.16 35.45 36.15 35.5V35.51ZM13.45 31.45L4.94996 13.66L17.66 7.59003L23.85 20.54L23.11 24.92C23.02 25.46 23.38 25.98 23.93 26.07L24.52 26.17L13.46 31.46L13.45 31.45ZM40.19 26.3C40.15 26.56 39.9 26.73 39.64 26.69L25.25 24.26L28.6 4.45003L42.99 6.88003C43.25 6.92003 43.42 7.17003 43.38 7.43003L40.19 26.3Z" fill="#323232"/>
<path d="M13.8801 15.74C13.5101 15.74 13.1501 15.53 12.9801 15.17C12.7401 14.67 12.9501 14.07 13.4501 13.84L17.0601 12.11C17.5601 11.87 18.1501 12.08 18.3901 12.58C18.6301 13.08 18.4201 13.68 17.9201 13.91L14.3101 15.64C14.1701 15.71 14.0201 15.74 13.8801 15.74Z" fill="#323232"/>
<path d="M10.9497 18.16C10.8997 18.16 10.8497 18.16 10.7997 18.15L9.10965 17.89C8.55965 17.81 8.18965 17.3 8.26965 16.75C8.34965 16.2 8.86965 15.83 9.40965 15.91L10.0597 16.01L10.2897 13.73C10.3497 13.18 10.8297 12.78 11.3897 12.83C11.9397 12.89 12.3397 13.38 12.2897 13.93L11.9597 17.25C11.9297 17.52 11.7897 17.77 11.5797 17.94C11.3997 18.08 11.1897 18.15 10.9697 18.15L10.9497 18.16Z" fill="#DF0000"/>
<path d="M16.2698 20.74C15.8998 20.74 15.5398 20.53 15.3698 20.17C15.1298 19.67 15.3398 19.07 15.8398 18.84L19.4498 17.11C19.9498 16.87 20.5398 17.08 20.7798 17.58C21.0198 18.08 20.8098 18.68 20.3098 18.91L16.6998 20.64C16.5598 20.71 16.4098 20.74 16.2698 20.74Z" fill="#323232"/>
<path d="M13.3393 23.16C13.3393 23.16 13.2393 23.16 13.1893 23.15L11.4993 22.89C10.9493 22.81 10.5793 22.3 10.6593 21.75C10.7393 21.2 11.2493 20.83 11.7993 20.91L12.4493 21.01L12.6793 18.73C12.7393 18.18 13.2193 17.78 13.7793 17.83C14.3293 17.89 14.7293 18.38 14.6793 18.93L14.3493 22.25C14.3193 22.52 14.1793 22.77 13.9693 22.94C13.7893 23.08 13.5793 23.15 13.3593 23.15L13.3393 23.16Z" fill="#DF0000"/>
<path d="M18.6604 25.74C18.2904 25.74 17.9304 25.53 17.7604 25.17C17.5204 24.67 17.7304 24.07 18.2304 23.84L21.8404 22.11C22.3404 21.87 22.9304 22.08 23.1704 22.58C23.4104 23.08 23.2004 23.68 22.7004 23.91L19.0904 25.64C18.9504 25.71 18.8004 25.74 18.6604 25.74Z" fill="#323232"/>
<path d="M15.7299 28.16C15.7299 28.16 15.6299 28.16 15.5799 28.15L13.8899 27.89C13.3399 27.81 12.9699 27.3 13.0499 26.75C13.1299 26.2 13.6399 25.83 14.1899 25.91L14.8399 26.01L15.0699 23.73C15.1299 23.18 15.6099 22.78 16.1699 22.83C16.7199 22.89 17.1199 23.38 17.0699 23.93L16.7399 27.25C16.7099 27.52 16.5699 27.77 16.3599 27.94C16.1799 28.08 15.9699 28.15 15.7499 28.15L15.7299 28.16Z" fill="#DF0000"/>
<path d="M41.1304 13.94C41.1304 13.94 41.1304 13.93 41.1304 13.92C40.9204 13.08 40.5604 12.28 40.0504 11.56C38.9704 10.04 37.3604 9.03002 35.5204 8.72002C33.6804 8.41002 31.8304 8.83002 30.3104 9.91002C29.5904 10.42 28.9804 11.06 28.5104 11.78C28.5104 11.78 28.5104 11.79 28.5004 11.8C27.9904 12.59 27.6304 13.48 27.4704 14.44C27.3104 15.4 27.3504 16.35 27.5704 17.27C27.5704 17.27 27.5704 17.29 27.5704 17.3C27.7804 18.13 28.1404 18.93 28.6504 19.65C29.7304 21.17 31.3404 22.18 33.1704 22.49C33.1904 22.49 33.2304 22.49 33.2504 22.49C33.6204 22.55 33.9804 22.58 34.3504 22.58C35.7904 22.58 37.1904 22.14 38.3804 21.29C39.9004 20.21 40.9104 18.6 41.2204 16.76C41.3804 15.8 41.3404 14.84 41.1104 13.93L41.1304 13.94ZM37.2904 17.52C37.4004 17.08 37.5004 16.62 37.5804 16.16C37.6604 15.7 37.7104 15.24 37.7504 14.78L39.2804 15.04C39.3304 15.51 39.3504 15.98 39.2704 16.45C39.1904 16.92 39.0204 17.37 38.8204 17.79L37.2904 17.53V17.52ZM33.5504 20.53C33.5504 20.53 33.5404 20.53 33.5304 20.53C33.3504 20.42 33.0904 19.82 32.9604 18.82L34.6004 19.1C34.1604 20 33.7304 20.48 33.5504 20.53ZM29.4204 16.19C29.3704 15.72 29.3504 15.25 29.4304 14.78C29.5104 14.31 29.6804 13.86 29.8804 13.44L31.4104 13.7C31.3004 14.14 31.1904 14.6 31.1204 15.06C31.0404 15.53 30.9904 15.99 30.9504 16.44L29.4204 16.18V16.19ZM32.9304 16.79C32.9604 16.36 33.0004 15.9 33.0904 15.4C33.1804 14.9 33.2804 14.46 33.3904 14.04L35.7604 14.44C35.7304 14.87 35.6904 15.33 35.6004 15.83C35.5204 16.33 35.4104 16.77 35.3004 17.19L32.9304 16.79ZM35.1804 10.71C35.3604 10.85 35.6104 11.44 35.7304 12.41L34.1004 12.13C34.5304 11.26 34.9704 10.78 35.1804 10.71ZM38.4104 12.72C38.4104 12.72 38.4604 12.82 38.4904 12.87L37.7704 12.75C37.7504 12.47 37.7304 12.19 37.6904 11.93C37.9504 12.17 38.2004 12.43 38.4104 12.73V12.72ZM32.4204 11.03C32.2904 11.27 32.1704 11.51 32.0604 11.78L31.3404 11.66C31.3404 11.66 31.4204 11.58 31.4704 11.55C31.7704 11.34 32.0904 11.17 32.4304 11.03H32.4204ZM30.2904 18.5C30.2904 18.5 30.2404 18.4 30.2104 18.35L30.9304 18.47C30.9504 18.76 30.9804 19.04 31.0204 19.31C30.7504 19.07 30.5004 18.8 30.2904 18.5ZM36.2804 20.2C36.4104 19.96 36.5304 19.71 36.6404 19.44L37.3604 19.56C37.3604 19.56 37.2804 19.64 37.2304 19.67C36.9304 19.89 36.6004 20.05 36.2704 20.2H36.2804Z" fill="#8DE2E0"/>
</svg>
