<svg width="48" height="48" viewBox="0 0 48 48" fill="none" xmlns="http://www.w3.org/2000/svg">
<path d="M34.0195 16.4402C34.0195 16.9902 34.4695 17.4402 35.0195 17.4402C35.5695 17.4402 36.0195 16.9902 36.0195 16.4402V8.9502H34.0195V16.4402Z" fill="#8DE2E0"/>
<path d="M29.1895 16.4402C29.1895 16.9902 29.6395 17.4402 30.1895 17.4402C30.7395 17.4402 31.1895 16.9902 31.1895 16.4402V8.9502H29.1895V16.4402Z" fill="#8DE2E0"/>
<path d="M16.6504 16.4402C16.6504 16.9902 17.1004 17.4402 17.6504 17.4402C18.2004 17.4402 18.6504 16.9902 18.6504 16.4402V8.9502H16.6504V16.4402Z" fill="#8DE2E0"/>
<path d="M11.8203 16.4402C11.8203 16.9902 12.2703 17.4402 12.8203 17.4402C13.3703 17.4402 13.8203 16.9902 13.8203 16.4402V8.9502H11.8203V16.4402Z" fill="#8DE2E0"/>
<path d="M43.55 5.16016C42.38 5.16016 41.39 5.91016 41.02 6.95016H6.98C6.61 5.91016 5.62 5.16016 4.45 5.16016C2.96 5.16016 1.75 6.37016 1.75 7.86016C1.75 9.35016 2.96 10.5602 4.45 10.5602C5.55 10.5602 6.49 9.90016 6.91 8.95016H7.56V41.3802C7.56 41.8902 7.83 42.3602 8.27 42.6102C8.7 42.8602 9.24 42.8602 9.68 42.6102L12.69 40.8602L14.3 42.3502C14.82 42.8302 15.62 42.8502 16.16 42.4002L17.78 41.0502L20.85 42.6702C21.06 42.7802 21.28 42.8402 21.51 42.8402C21.76 42.8402 22.01 42.7702 22.23 42.6402C22.66 42.3802 22.92 41.9302 22.92 41.4202V8.96016H24.94V41.3902C24.94 41.9002 25.21 42.3702 25.65 42.6202C26.09 42.8702 26.62 42.8702 27.06 42.6202L30.07 40.8702L31.68 42.3602C32.2 42.8402 33 42.8602 33.54 42.4102L35.16 41.0602L38.23 42.6802C38.44 42.7902 38.66 42.8502 38.89 42.8502C39.14 42.8502 39.39 42.7802 39.61 42.6502C40.04 42.3902 40.3 41.9402 40.3 41.4302V8.96016H41.1C41.52 9.90016 42.46 10.5702 43.56 10.5702C45.05 10.5702 46.26 9.36016 46.26 7.87016C46.26 6.38016 45.05 5.17016 43.56 5.17016L43.55 5.16016ZM4.45 8.56016C4.06 8.56016 3.75 8.25016 3.75 7.86016C3.75 7.47016 4.06 7.16016 4.45 7.16016C4.84 7.16016 5.15 7.47016 5.15 7.86016C5.15 8.25016 4.84 8.56016 4.45 8.56016ZM20.91 40.4502L18.12 38.9702C17.76 38.7802 17.32 38.8302 17.01 39.0902L15.27 40.5402L13.5 38.9002C13.18 38.6002 12.7 38.5502 12.32 38.7702L9.56 40.3702V8.96016H20.91V40.4502ZM38.28 40.4502L35.49 38.9702C35.13 38.7802 34.69 38.8302 34.38 39.0902L32.64 40.5402L30.87 38.9002C30.55 38.6002 30.07 38.5502 29.69 38.7702L26.93 40.3702V8.96016H38.28V40.4502ZM43.55 8.56016C43.16 8.56016 42.85 8.25016 42.85 7.86016C42.85 7.47016 43.16 7.16016 43.55 7.16016C43.94 7.16016 44.25 7.47016 44.25 7.86016C44.25 8.25016 43.94 8.56016 43.55 8.56016Z" fill="#323232"/>
</svg>
