<svg width="48" height="48" viewBox="0 0 48 48" fill="none" xmlns="http://www.w3.org/2000/svg">
<path d="M17.5598 27.7901H21.4998C21.4998 27.7901 21.6498 24.0401 19.9898 20.9301C18.3298 17.8101 16.9498 15.4701 16.9498 11.5801H13.0098C13.0098 15.4701 14.3898 17.8101 16.0498 20.9301C17.7098 24.0501 17.5598 27.7901 17.5598 27.7901Z" fill="#8DE2E0"/>
<path d="M17.5605 43.63C17.5605 44.52 16.7405 45.25 15.7305 45.25H19.6705C20.6805 45.25 21.5005 44.53 21.5005 43.63V40.5H17.5605V43.63Z" fill="#8DE2E0"/>
<path d="M36.3391 27.7901H40.2791C40.2791 27.7901 40.4291 24.0401 38.7691 20.9301C37.1091 17.8101 35.7291 15.4701 35.7291 11.5801H31.7891C31.7891 15.4701 33.1691 17.8101 34.8291 20.9301C36.4891 24.0501 36.3391 27.7901 36.3391 27.7901Z" fill="#8DE2E0"/>
<path d="M36.3398 43.63C36.3398 44.52 35.5198 45.25 34.5098 45.25H38.4498C39.4598 45.25 40.2798 44.53 40.2798 43.63V40.5H36.3398V43.63Z" fill="#8DE2E0"/>
<path d="M20.8901 20.46L20.6001 19.92C19.0701 17.06 17.9601 14.99 17.9601 11.58V3.17C17.9601 2.38 17.3001 1.75 16.4801 1.75H12.7401C11.9301 1.75 11.2601 2.39 11.2601 3.17V11.57C11.2601 14.98 10.1501 17.05 8.62014 19.92L8.33014 20.45C6.65014 23.61 6.69014 27.28 6.71014 27.77C6.71014 27.77 6.71014 27.77 6.71014 27.79V43.63C6.71014 45.07 7.98014 46.25 9.54014 46.25H19.6801C21.2401 46.25 22.5101 45.08 22.5101 43.63V27.8C22.5201 27.45 22.6101 23.69 20.8901 20.46ZM8.71014 28.79H20.5001V39.5H8.71014V28.79ZM15.9601 3.75V10.58H13.2701V3.75H15.9601ZM10.3901 20.87C11.8001 18.24 13.0201 15.93 13.2201 12.58H16.0001C16.2101 15.93 17.4301 18.24 18.8301 20.87L19.1201 21.4C20.1501 23.32 20.4201 25.55 20.4901 26.79H8.74014C8.81014 25.55 9.08014 23.32 10.1101 21.4L10.3901 20.87ZM19.6801 44.25H9.54014C9.09014 44.25 8.71014 43.97 8.71014 43.63V41.5H20.5001V43.63C20.5001 43.97 20.1201 44.25 19.6701 44.25H19.6801Z" fill="#323232"/>
<path d="M39.6597 20.46L39.3697 19.93C37.8397 17.07 36.7297 15 36.7297 11.58V3.17C36.7297 2.38 36.0697 1.75 35.2497 1.75H31.5097C30.6997 1.75 30.0297 2.39 30.0297 3.17V11.57C30.0297 14.98 28.9197 17.05 27.3897 19.91L27.0997 20.45C25.4197 23.61 25.4597 27.28 25.4797 27.77C25.4797 27.77 25.4797 27.77 25.4797 27.79V43.63C25.4797 45.07 26.7497 46.25 28.3097 46.25H38.4497C40.0097 46.25 41.2797 45.08 41.2797 43.63V27.8C41.2897 27.45 41.3797 23.69 39.6597 20.46ZM27.4897 28.79H39.2797V39.5H27.4897V28.79ZM34.7297 3.75V10.58H32.0397V3.75H34.7297ZM29.1697 20.86C30.5797 18.23 31.7897 15.92 31.9997 12.57H34.7797C34.9897 15.92 36.2097 18.23 37.6097 20.86L37.8897 21.39C38.9197 23.31 39.1897 25.54 39.2597 26.78H27.5097C27.5797 25.54 27.8497 23.31 28.8797 21.39L29.1697 20.86ZM38.4597 44.25H28.3197C27.8697 44.25 27.4897 43.97 27.4897 43.63V41.5H39.2797V43.63C39.2797 43.97 38.8997 44.25 38.4497 44.25H38.4597Z" fill="#323232"/>
</svg>
