<svg width="48" height="48" viewBox="0 0 48 48" fill="none" xmlns="http://www.w3.org/2000/svg">
<path d="M31.0701 18.9102V40.9502H17.8901L14.5201 36.0402C13.9101 35.1502 13.5801 34.0902 13.5801 33.0102V31.2802C13.5801 29.2702 14.7001 27.4302 16.4701 26.5102L17.8901 25.7702L31.0701 18.9102Z" fill="#8DE2E0"/>
<path d="M34.8298 17.8996H32.0798V14.0996C32.0798 13.5496 31.6298 13.0996 31.0798 13.0996H27.1498L27.4198 10.6296L34.1698 12.1596C34.4198 12.2196 34.6798 12.2396 34.9298 12.2396C35.5998 12.2396 36.2598 12.0396 36.8398 11.6596C37.6298 11.1396 38.1498 10.3396 38.3198 9.39958L38.6098 7.71958C38.7798 6.73958 38.5198 5.72958 37.8998 4.95958C37.2798 4.18958 36.3498 3.72958 35.3498 3.68958L30.1898 3.51958C30.1898 3.51958 30.0898 3.51958 30.0498 3.51958C27.8498 3.51958 26.0298 5.13958 25.7598 7.35958L25.5598 9.30958L25.1398 13.1096H23.0598L22.4598 7.63958L22.2498 5.68958C21.9998 3.42958 20.1398 1.78958 17.8198 1.85958L12.6598 2.02958C11.6698 2.06958 10.7398 2.52958 10.1198 3.29958C9.48982 4.06958 9.22982 5.07958 9.38982 6.07958L9.68982 7.75958C9.85982 8.68958 10.3798 9.48958 11.1698 10.0096C11.7398 10.3896 12.3998 10.5896 13.0798 10.5896C13.3298 10.5896 13.5898 10.5596 13.8398 10.5096L20.5898 8.97958L21.0498 13.1096H17.8998C17.3498 13.1096 16.8998 13.5596 16.8998 14.1096V25.1696L16.0198 25.6296C13.9098 26.7296 12.5898 28.8996 12.5898 31.2896V33.0196C12.5898 34.3196 12.9698 35.5596 13.6998 36.6196L16.8898 41.2696V45.1096C16.8898 45.6596 17.3398 46.1096 17.8898 46.1096H31.0698C31.6198 46.1096 32.0698 45.6596 32.0698 45.1096V41.2896L35.2198 39.4296C37.3398 38.1796 38.6498 35.8696 38.6498 33.4096V21.7496C38.6498 19.6396 36.9298 17.9196 34.8198 17.9196L34.8298 17.8996ZM27.7398 7.56958C27.8798 6.35958 28.8998 5.45958 30.1198 5.50958L35.2798 5.67958C35.6998 5.69958 36.0798 5.87958 36.3398 6.20958C36.6098 6.53958 36.7098 6.94958 36.6398 7.36958L36.3498 9.04958C36.2798 9.43958 36.0598 9.76958 35.7298 9.98958C35.3998 10.2096 34.9898 10.2896 34.6098 10.1996L27.6298 8.61958L27.7398 7.55958V7.56958ZM13.3998 8.53958C12.9998 8.62958 12.6098 8.54958 12.2698 8.32958C11.9398 8.10958 11.7198 7.77958 11.6498 7.38958L11.3498 5.71958C11.2798 5.29958 11.3898 4.87958 11.6598 4.54958C11.9298 4.21958 12.2998 4.03958 12.7198 4.01958L17.8698 3.84958C17.8698 3.84958 17.9198 3.84958 17.9498 3.84958C19.1398 3.84958 20.1198 4.71958 20.2498 5.89958L20.3698 6.95958L13.3998 8.53958ZM30.0698 15.0996V17.9096H18.8898V15.0996H30.0698ZM18.8898 19.9096H26.9798L18.8898 24.1196V19.9096ZM14.5898 33.0096V31.2796C14.5898 29.6396 15.4898 28.1496 16.9398 27.3896L18.3498 26.6496L30.0698 20.5496V39.9396H18.4098L15.3398 35.4696C14.8398 34.7496 14.5798 33.8896 14.5798 32.9996L14.5898 33.0096ZM30.0698 44.0996H18.8898V41.9496H30.0698V44.0996ZM36.6598 33.3996C36.6598 35.1596 35.7198 36.7996 34.2098 37.6896L32.0798 38.9496V19.8996H34.8298C35.8398 19.8996 36.6598 20.7196 36.6598 21.7296V33.3896V33.3996Z" fill="#323232"/>
</svg>
