<svg width="48" height="48" viewBox="0 0 48 48" fill="none" xmlns="http://www.w3.org/2000/svg">
<path d="M20.9294 24.1102C20.7194 24.1102 20.4994 24.0402 20.3194 23.9002L13.3694 18.5602L7.81939 22.8702C7.38939 23.2002 6.76939 23.1302 6.42939 22.7102L1.96939 17.2202C1.61939 16.7902 1.68939 16.1602 2.11939 15.8102C2.54939 15.4602 3.17939 15.5302 3.52939 15.9602L7.36939 20.6902L12.7594 16.5102C13.1194 16.2302 13.6194 16.2302 13.9794 16.5102L21.5494 22.3202C21.9894 22.6602 22.0694 23.2802 21.7294 23.7202C21.5294 23.9802 21.2394 24.1102 20.9394 24.1102H20.9294Z" fill="#DF0000"/>
<path d="M43.8998 5.45996H6.10977C4.80977 5.45996 3.75977 6.50996 3.75977 7.80996V13.6C3.75977 14.15 4.20977 14.6 4.75977 14.6C5.30977 14.6 5.75977 14.15 5.75977 13.6V7.80996C5.75977 7.61996 5.91977 7.45996 6.10977 7.45996H43.8998C44.0898 7.45996 44.2498 7.61996 44.2498 7.80996V32.1C44.2498 32.29 44.0898 32.45 43.8998 32.45H6.10977C5.91977 32.45 5.75977 32.29 5.75977 32.1V24.74C5.75977 24.19 5.30977 23.74 4.75977 23.74C4.20977 23.74 3.75977 24.19 3.75977 24.74V32.1C3.75977 33.4 4.80977 34.45 6.10977 34.45H23.9998V40.55H18.2498C17.6998 40.55 17.2498 41 17.2498 41.55C17.2498 42.1 17.6998 42.55 18.2498 42.55H31.7498C32.2998 42.55 32.7498 42.1 32.7498 41.55C32.7498 41 32.2998 40.55 31.7498 40.55H25.9998V34.45H43.8898C45.1898 34.45 46.2398 33.4 46.2398 32.1V7.80996C46.2398 6.50996 45.1898 5.45996 43.8898 5.45996H43.8998Z" fill="#323232"/>
<path d="M8.81055 24.26C8.26055 24.26 7.81055 24.71 7.81055 25.26V29.4C7.81055 29.95 8.26055 30.4 8.81055 30.4H41.2005C41.7505 30.4 42.2005 29.95 42.2005 29.4V10.5C42.2005 9.95 41.7505 9.5 41.2005 9.5H8.81055C8.26055 9.5 7.81055 9.95 7.81055 10.5V16.28C7.81055 16.83 8.26055 17.28 8.81055 17.28C9.36055 17.28 9.81055 16.83 9.81055 16.28V11.5H40.2005V28.39H9.81055V25.25C9.81055 24.7 9.36055 24.25 8.81055 24.25V24.26Z" fill="#323232"/>
<path fill-rule="evenodd" clip-rule="evenodd" d="M24.3105 13.3496H38.3605V22.4096L24.3105 13.3496Z" fill="#8DE2E0"/>
</svg>
