<svg width="24" height="24" viewBox="0 0 24 24" fill="none" xmlns="http://www.w3.org/2000/svg">
<path d="M5.06692 2.5725L5.5188 2.15563C5.62783 2.05554 5.77049 2 5.91854 2C6.06658 2 6.20924 2.05554 6.31827 2.15563L7.62755 3.49886C7.2858 3.68792 6.97352 3.92589 6.70063 4.20522C4.96134 5.94346 3.98422 8.30102 3.98422 10.7593C3.98422 13.2175 4.96134 15.5751 6.70063 17.3133C8.43992 19.0515 10.7989 20.0281 13.2586 20.0281C15.7184 20.0281 18.0773 19.0515 19.8166 17.3133C20.0937 17.0342 20.3315 16.7186 20.5234 16.3754L21.8443 17.6954C21.9444 17.8044 22 17.947 22 18.0949C22 18.2429 21.9444 18.3855 21.8443 18.4944L21.4272 18.946C19.2258 20.968 16.3276 22.0613 13.3384 21.9973C10.3492 21.9333 7.5005 20.717 5.38783 18.6026C3.27517 16.4882 2.06213 13.6395 2.00232 10.652C1.94251 7.66457 3.04057 4.76964 5.06692 2.5725Z" fill="#323232"/>
<path d="M19.4313 16.5277C17.8459 18.1107 15.6957 19 13.4537 19C11.2116 19 9.06139 18.1107 7.47602 16.5277C5.89065 14.9448 5 12.7978 5 10.5592C5 8.32057 5.89065 6.17362 7.47602 4.59067C7.62093 4.44597 7.77792 4.31334 7.95906 4.15659C8.07198 4.05575 8.21816 4 8.36965 4C8.52114 4 8.66732 4.05575 8.78023 4.15659L19.8419 15.2255C19.9438 15.3402 20 15.4882 20 15.6415C20 15.7948 19.9438 15.9428 19.8419 16.0575C19.7211 16.2143 19.5883 16.371 19.4313 16.5277ZM9.77047 8.64204C9.5491 8.50261 9.28515 8.44664 9.02614 8.48422C8.76712 8.5218 8.53005 8.65045 8.35757 8.84702C8.13641 9.02099 7.99056 9.27309 7.95012 9.55129C7.90967 9.8295 7.97771 10.1126 8.1402 10.3422C8.36188 10.4874 8.6291 10.5468 8.89155 10.509C9.15401 10.4713 9.39358 10.339 9.56518 10.1372C9.79399 9.97026 9.94938 9.72152 9.99888 9.44291C10.0484 9.16431 9.98818 8.87738 9.83085 8.64204H9.77047ZM15.3738 14.1765C15.1438 14.0143 14.8603 13.9463 14.5817 13.9867C14.303 14.0271 14.0506 14.1727 13.8763 14.3935C13.657 14.5692 13.5136 14.8222 13.4754 15.1003C13.4372 15.3784 13.5072 15.6606 13.671 15.8887C13.9038 16.0483 14.1893 16.1123 14.4681 16.0674C14.7469 16.0225 14.9977 15.8722 15.1685 15.6475C15.3836 15.4743 15.5245 15.2258 15.5626 14.9526C15.6008 14.6793 15.5332 14.4018 15.3738 14.1765Z" fill="#323232"/>
</svg>
