<svg width="48" height="48" viewBox="0 0 48 48" fill="none" xmlns="http://www.w3.org/2000/svg">
<path d="M24.0006 43.9702C23.8006 43.9702 23.6106 43.9102 23.4406 43.8002C8.94063 33.8802 1.89062 24.6302 1.89062 15.5302C1.89062 9.16021 7.07062 3.97021 13.4406 3.97021C17.7306 3.97021 21.8606 6.30021 24.0006 9.74021C26.1406 6.31021 30.2706 3.97021 34.5606 3.97021C40.9306 3.97021 46.1206 9.15021 46.1206 15.5302C46.1206 24.6302 39.0706 33.8802 24.5706 43.8002C24.4006 43.9202 24.2006 43.9702 24.0106 43.9702H24.0006ZM13.4406 5.97021C8.17062 5.97021 3.88063 10.2602 3.88063 15.5302C3.88063 23.6902 10.6406 32.5102 23.9906 41.7602C37.3406 32.5102 44.1006 23.6902 44.1006 15.5302C44.1006 10.2602 39.8106 5.97021 34.5406 5.97021C30.3706 5.97021 26.2406 8.71021 24.9206 12.3502C24.7806 12.7502 24.4006 13.0102 23.9806 13.0102C23.5606 13.0102 23.1806 12.7502 23.0406 12.3502C21.7206 8.71021 17.5906 5.97021 13.4206 5.97021H13.4406Z" fill="#323232"/>
<path d="M22.8009 29.0299C22.4209 29.0299 22.0309 28.8799 21.7409 28.5899L16.8409 23.6899C16.2509 23.0999 16.2509 22.1499 16.8409 21.5699C17.4309 20.9799 18.3809 20.9799 18.9609 21.5699L22.8009 25.4099L32.2009 16.0099C32.7909 15.4199 33.7409 15.4199 34.3209 16.0099C34.9009 16.5999 34.9109 17.5499 34.3209 18.1299L23.8609 28.5899C23.5709 28.8799 23.1809 29.0299 22.8009 29.0299Z" fill="#DF0000"/>
</svg>
