<svg width="48" height="48" viewBox="0 0 48 48" fill="none" xmlns="http://www.w3.org/2000/svg">
<path d="M39.04 13.3604C35.2 13.3604 32.05 16.3904 31.85 20.1804C31.74 20.1804 31.63 20.1604 31.52 20.1604C31.41 20.1604 31.3 20.1704 31.19 20.1804C30.99 16.3904 27.84 13.3604 24 13.3604C20.16 13.3604 17.01 16.3904 16.81 20.1804C16.7 20.1804 16.59 20.1604 16.48 20.1604C16.37 20.1604 16.26 20.1704 16.15 20.1804C15.95 16.3904 12.8 13.3604 8.96 13.3604C5.12 13.3604 1.75 16.5904 1.75 20.5704C1.75 24.5504 4.98 27.7804 8.96 27.7804C9.07 27.7804 9.18 27.7704 9.29 27.7604C9.49 31.5504 12.64 34.5804 16.48 34.5804C20.32 34.5804 23.47 31.5504 23.67 27.7604C23.78 27.7604 23.89 27.7804 24 27.7804C24.11 27.7804 24.22 27.7704 24.33 27.7604C24.53 31.5504 27.68 34.5804 31.52 34.5804C35.36 34.5804 38.51 31.5504 38.71 27.7604C38.82 27.7604 38.93 27.7804 39.04 27.7804C43.01 27.7804 46.25 24.5504 46.25 20.5704C46.25 16.5904 43.02 13.3604 39.04 13.3604ZM3.75 20.5704C3.75 17.7004 6.09 15.3604 8.96 15.3604C11.83 15.3604 14.16 17.6904 14.17 20.5504C11.84 21.3404 10.04 23.3004 9.47 25.7304C9.3 25.7504 9.14 25.7804 8.96 25.7804C6.09 25.7804 3.75 23.4404 3.75 20.5704ZM13.46 23.1504C13.09 23.8004 12.59 24.3704 11.98 24.8004C12.35 24.1504 12.85 23.5804 13.46 23.1504ZM16.48 32.5804C13.61 32.5804 11.28 30.2504 11.27 27.3904C13.6 26.6004 15.4 24.6404 15.97 22.2104C16.14 22.1904 16.3 22.1604 16.48 22.1604C16.66 22.1604 16.82 22.1904 16.99 22.2104C17.56 24.6404 19.36 26.5904 21.69 27.3804C21.69 30.2404 19.35 32.5704 16.48 32.5704V32.5804ZM19.5 23.1504C20.11 23.5804 20.6 24.1504 20.98 24.8004C20.37 24.3704 19.88 23.8004 19.5 23.1504ZM23.49 25.7304C22.92 23.3004 21.12 21.3504 18.79 20.5604C18.79 17.7004 21.13 15.3704 24 15.3704C26.87 15.3704 29.2 17.7004 29.21 20.5604C26.88 21.3504 25.08 23.3104 24.51 25.7304C24.34 25.7504 24.18 25.7804 24 25.7804C23.82 25.7804 23.66 25.7504 23.49 25.7304ZM28.5 23.1504C28.13 23.8004 27.63 24.3604 27.02 24.8004C27.39 24.1504 27.89 23.5904 28.5 23.1504ZM31.52 32.5804C28.65 32.5804 26.32 30.2504 26.31 27.3904C28.64 26.6004 30.44 24.6404 31.01 22.2204C31.18 22.2004 31.34 22.1704 31.52 22.1704C31.7 22.1704 31.86 22.2004 32.03 22.2204C32.6 24.6504 34.4 26.6004 36.73 27.4004C36.73 30.2604 34.39 32.5904 31.52 32.5904V32.5804ZM34.54 23.1504C35.15 23.5904 35.65 24.1504 36.02 24.8004C35.41 24.3604 34.91 23.8004 34.54 23.1504ZM39.04 25.7804C38.87 25.7804 38.7 25.7504 38.53 25.7304C37.96 23.3004 36.16 21.3504 33.83 20.5504C33.83 17.6904 36.17 15.3604 39.04 15.3604C41.91 15.3604 44.25 17.7004 44.25 20.5704C44.25 23.4404 41.91 25.7804 39.04 25.7804Z" fill="#323232"/>
</svg>
