<svg width="48" height="48" viewBox="0 0 48 48" fill="none" xmlns="http://www.w3.org/2000/svg">
<path d="M24.0006 38.93C27.9274 38.93 31.1106 35.7467 31.1106 31.82C31.1106 27.8932 27.9274 24.71 24.0006 24.71C20.0739 24.71 16.8906 27.8932 16.8906 31.82C16.8906 35.7467 20.0739 38.93 24.0006 38.93Z" fill="#8DE2E0"/>
<path d="M39.2006 18.8101C39.1006 18.3501 38.6906 18.0301 38.2206 18.0301H24.9906V8.65006H39.6406C39.9706 8.65006 40.2906 8.48006 40.4706 8.20006L43.3106 3.93006C43.6206 3.47006 43.4906 2.85006 43.0306 2.54006C42.5706 2.23006 41.9506 2.36006 41.6406 2.82006L39.0906 6.64006H8.89063L6.34063 2.82006C6.03063 2.36006 5.41063 2.23006 4.95063 2.54006C4.49063 2.85006 4.37063 3.47006 4.67063 3.93006L7.51063 8.20006C7.70063 8.48006 8.01063 8.65006 8.34063 8.65006H22.9906V18.0301H9.77063C9.30063 18.0301 8.90063 18.3601 8.79063 18.8101L3.10063 44.4101C3.03063 44.7101 3.10063 45.0201 3.30063 45.2501C3.49063 45.4901 3.78063 45.6201 4.08063 45.6201H43.9106C44.2106 45.6201 44.5006 45.4801 44.6906 45.2501C44.8806 45.0101 44.9506 44.7001 44.8906 44.4101L39.2006 18.8101ZM5.33063 43.6201L10.5806 20.0201H37.4206L42.6706 43.6201H5.33063Z" fill="#323232"/>
<path d="M24.0006 23.7101C19.5306 23.7101 15.8906 27.3501 15.8906 31.8201C15.8906 36.2901 19.5306 39.9301 24.0006 39.9301C28.4706 39.9301 32.1106 36.2901 32.1106 31.8201C32.1106 27.3501 28.4706 23.7101 24.0006 23.7101ZM24.0006 37.9401C20.6306 37.9401 17.8906 35.2001 17.8906 31.8301C17.8906 28.4601 20.6306 25.7201 24.0006 25.7201C25.3306 25.7201 26.5506 26.1501 27.5506 26.8701L23.2906 31.1301C22.9006 31.5201 22.9006 32.1501 23.2906 32.5401C23.4906 32.7401 23.7406 32.8301 24.0006 32.8301C24.2606 32.8301 24.5106 32.7301 24.7106 32.5401L28.9706 28.2801C29.6906 29.2801 30.1206 30.5101 30.1206 31.8301C30.1206 35.2001 27.3806 37.9401 24.0106 37.9401H24.0006Z" fill="#323232"/>
</svg>
