<svg width="48" height="48" viewBox="0 0 48 48" fill="none" xmlns="http://www.w3.org/2000/svg">
<path d="M36.6402 14.05H32.0102C31.9702 12.78 31.8002 10.62 31.1002 9.18C30.1502 7.21 29.3602 6.18 28.7802 5.43C28.0602 4.49 27.8102 4.17 27.8102 2.78C27.8102 2.23 27.3602 1.78 26.8102 1.78C26.2602 1.78 25.8102 2.23 25.8102 2.78C25.8102 4.85 26.3902 5.61 27.1902 6.65C27.7402 7.37 28.4302 8.27 29.2902 10.06C29.7902 11.09 29.9602 12.86 30.0002 14.06H26.2802C25.8102 12.13 24.5802 9.55 21.5302 7C21.1102 6.65 20.4802 6.7 20.1202 7.13C19.7702 7.55 19.8202 8.18 20.2502 8.54C22.6902 10.58 24.1102 12.83 24.4802 15.22C24.7402 16.95 24.3302 18.12 24.3302 18.13C24.1902 18.5 24.2802 18.92 24.5602 19.19L30.8302 25.4C31.8402 26.4 31.8402 28.02 30.8502 29.03C29.8502 30.04 28.2302 30.04 27.2202 29.05L18.9402 20.85L15.8202 17.76C15.4302 17.37 14.7902 17.37 14.4102 17.76C14.0202 18.15 14.0202 18.79 14.4102 19.17L17.2302 21.97V29.9L12.8202 25.61C11.4502 24.28 10.6602 22.41 10.6602 20.5V2.75C10.6602 2.2 10.2102 1.75 9.66016 1.75C9.11016 1.75 8.66016 2.2 8.66016 2.75V20.49C8.66016 22.94 9.67016 25.32 11.4202 27.03L17.2202 32.68V43.55C17.2202 45.03 18.4302 46.24 19.9102 46.24H36.6202C38.1002 46.24 39.3102 45.03 39.3102 43.55V16.74C39.3102 15.26 38.1002 14.05 36.6202 14.05H36.6402ZM37.3302 43.56C37.3302 43.94 37.0202 44.25 36.6402 44.25H19.9302C19.5502 44.25 19.2402 43.94 19.2402 43.56V23.94L25.8202 30.46C26.7102 31.34 27.8702 31.78 29.0302 31.78C30.1902 31.78 31.3802 31.33 32.2702 30.43C34.0402 28.64 34.0302 25.74 32.2402 23.97L26.3802 18.17C26.4802 17.69 26.5802 16.95 26.5602 16.06H36.6302C37.0102 16.06 37.3202 16.37 37.3202 16.75V43.56H37.3302Z" fill="#323232"/>
<path d="M34.6602 37.8198H21.9102C21.3602 37.8198 20.9102 37.3698 20.9102 36.8198C20.9102 36.2698 21.3602 35.8198 21.9102 35.8198H34.6602C35.2102 35.8198 35.6602 36.2698 35.6602 36.8198C35.6602 37.3698 35.2102 37.8198 34.6602 37.8198Z" fill="#DF0000"/>
<path d="M34.6602 41.9399H21.9102C21.3602 41.9399 20.9102 41.4899 20.9102 40.9399C20.9102 40.3899 21.3602 39.9399 21.9102 39.9399H34.6602C35.2102 39.9399 35.6602 40.3899 35.6602 40.9399C35.6602 41.4899 35.2102 41.9399 34.6602 41.9399Z" fill="#DF0000"/>
</svg>
