<svg width="48" height="48" viewBox="0 0 48 48" fill="none" xmlns="http://www.w3.org/2000/svg">
<path d="M41.9194 6.31984C41.5294 5.92984 40.8994 5.92984 40.5094 6.31984L28.1094 18.7198V9.07984C28.1094 8.52984 27.6594 8.07984 27.1094 8.07984C26.5594 8.07984 26.1094 8.52984 26.1094 9.07984V21.1298C26.1094 21.6798 26.5594 22.1298 27.1094 22.1298H39.1594C39.7094 22.1298 40.1594 21.6798 40.1594 21.1298C40.1594 20.5798 39.7094 20.1298 39.1594 20.1298H29.5294L41.9294 7.72984C42.3194 7.33984 42.3194 6.70984 41.9294 6.31984H41.9194Z" fill="#DF0000"/>
<path d="M42.1322 41.2205L42.1822 41.1705L42.2222 41.1405L42.3322 41.0305C43.6122 39.7505 44.2522 38.5105 44.2522 37.3505C44.2522 36.3405 43.7222 35.4705 42.6722 34.7605L35.9522 30.1905C35.2822 29.7405 34.6022 29.5205 33.9222 29.5205C33.0122 29.5205 32.1322 29.9405 31.3622 30.7305L29.9922 32.1205L42.1322 41.2205Z" fill="#8DE2E0"/>
<path d="M17.2405 16.6402C18.6605 15.2402 18.8705 13.6102 17.8005 12.0402L13.2205 5.29023C12.2505 3.90023 11.2805 3.74023 10.6405 3.74023C9.49047 3.74023 8.20047 4.41023 6.98047 5.62023L16.0805 17.7502L17.2305 16.6302L17.2405 16.6402Z" fill="#8DE2E0"/>
<path d="M34.48 45.2498C28.46 45.2498 21.16 41.2798 13.92 34.0598C6.82 26.9598 2.75 19.4298 2.75 13.3798C2.75 10.1098 3.88 7.31977 6.12 5.08977L6.28 4.92977C7.68 3.52977 9.23 2.75977 10.64 2.75977C12.05 2.75977 13.11 3.40977 14.04 4.72977L18.63 11.4898C19.97 13.4598 19.72 15.5998 17.94 17.3598L16.28 18.9698C15.72 19.5298 15.9 20.3598 16.07 20.7198C16.7 21.9198 18.62 24.2198 21.18 26.8498C23.94 29.6798 26.21 31.3598 27.31 31.9298C27.85 32.2098 28.6 32.1398 29 31.7198L30.64 30.0498C32.31 28.3298 34.54 28.0698 36.5 29.3798L43.22 33.9598C44.89 35.0798 45.24 36.4398 45.24 37.3698C45.24 38.8098 44.49 40.2798 43.02 41.7498L42.93 41.8398C42.93 41.8398 42.85 41.9198 42.82 41.9398C40.59 44.1398 37.78 45.2598 34.46 45.2598L34.48 45.2498ZM10.65 4.74977C9.78 4.74977 8.71 5.32977 7.7 6.33977L7.54 6.49977C5.69 8.34977 4.76 10.6598 4.76 13.3798C4.76 18.8998 8.62 25.9198 15.34 32.6498C22.2 39.4898 29.01 43.2498 34.49 43.2498C37.26 43.2498 39.6 42.3298 41.44 40.5098C41.46 40.4898 41.52 40.4298 41.54 40.4198L41.61 40.3398C42.71 39.2398 43.26 38.2398 43.26 37.3498C43.26 36.6798 42.89 36.1098 42.12 35.5898L35.4 31.0198C34.91 30.6898 34.41 30.5198 33.93 30.5198C33.13 30.5198 32.49 31.0098 32.09 31.4298L30.46 33.0898C29.86 33.7298 29 34.0898 28.06 34.0898C27.48 34.0898 26.9 33.9498 26.4 33.6898C25.11 33.0198 22.69 31.2298 19.76 28.2298C17.03 25.4298 15.04 23.0198 14.3 21.6098C13.74 20.4598 13.69 18.7198 14.89 17.5298L16.55 15.9198C17.63 14.8598 17.77 13.7698 16.98 12.6098L12.4 5.85977C11.62 4.74977 10.97 4.74977 10.65 4.74977Z" fill="#323232"/>
</svg>
