<svg width="48" height="48" viewBox="0 0 48 48" fill="none" xmlns="http://www.w3.org/2000/svg">
<path d="M34.0103 23.57C29.1303 26.15 29.3403 27.42 29.9403 31.05C30.3503 33.5 26.1503 37.3 24.6503 35.4C23.1603 33.5 25.0603 25.75 22.5503 26.09C20.0403 26.43 17.3303 27.38 16.1103 24.93C14.8903 22.48 16.5203 20.31 18.6803 18.95C19.0603 18.71 19.4003 18.38 19.6803 18.01C18.4703 18.18 17.0503 18.1 15.5803 17.73C14.2703 17.39 13.1003 16.86 12.1703 16.23C9.99031 17.85 8.28031 20.08 7.32031 22.68L7.43031 22.76C8.18031 23.37 9.19031 26.02 9.94031 26.63C10.6903 27.24 13.1203 27.11 12.7203 28.87C12.3103 30.64 10.5103 32.97 11.1603 33.97C12.7203 36.35 12.1803 38.66 12.1803 38.66V38.94C14.5103 40.67 17.3903 41.7 20.5103 41.7C28.2803 41.7 34.5903 35.38 34.5903 27.59C34.5903 26.2 34.3803 24.85 34.0003 23.58L34.0103 23.57Z" fill="#8DE2E0"/>
<path d="M43.8303 3.68021C43.8303 3.68021 43.7603 3.60021 43.7303 3.56021C43.7103 3.53021 43.6903 3.51021 43.6703 3.48021C43.5903 3.40021 43.4903 3.33021 43.3803 3.29021C43.3803 3.29021 43.3703 3.28021 43.3603 3.28021C43.3403 3.28021 43.3103 3.28021 43.2903 3.27021C43.2003 3.24021 43.1203 3.22021 43.0303 3.22021C42.9903 3.22021 42.9503 3.22021 42.9203 3.22021C42.8903 3.22021 42.8603 3.22021 42.8303 3.22021C42.6203 3.25021 38.3803 3.92021 35.6403 6.86021C35.6203 6.88021 35.6003 6.90021 35.5803 6.93021C35.0903 7.47021 34.6403 8.08021 34.2903 8.78021C33.5103 10.3102 33.2403 12.0502 33.4603 13.9702C32.7203 13.2702 31.9203 12.6202 31.0603 12.0402C30.3803 10.5802 26.7703 3.55021 19.9903 2.03021C15.3203 0.980211 10.2803 2.81021 5.02031 7.45021C4.97031 7.49021 4.94031 7.54021 4.90031 7.59021C4.88031 7.62021 4.85031 7.64021 4.83031 7.67021C4.77031 7.77021 4.72031 7.88021 4.70031 8.00021C4.70031 8.00021 4.70031 8.01021 4.70031 8.02021C4.70031 8.04021 4.70031 8.06021 4.70031 8.08021C4.69031 8.17021 4.69031 8.27021 4.70031 8.36021C4.70031 8.40021 4.72031 8.44021 4.73031 8.48021C4.74031 8.51021 4.74031 8.55021 4.76031 8.59021C4.86031 8.84021 6.74031 13.1802 10.5703 16.1902C7.30031 19.0602 5.42031 23.1202 5.42031 27.5202C5.42031 33.7302 9.14031 39.2402 14.9103 41.5502C15.0303 41.6002 15.1603 41.6202 15.2803 41.6202C15.6803 41.6202 16.0503 41.3802 16.2103 40.9902C16.4203 40.4802 16.1703 39.9002 15.6503 39.6902C14.7903 39.3502 13.9903 38.9202 13.2503 38.4202C13.3503 37.5302 13.3803 35.5102 12.0503 33.4902C11.9903 33.1702 12.4903 32.1202 12.7903 31.4902C13.1603 30.7102 13.5503 29.9002 13.7303 29.1102C14.2203 26.9802 12.1903 26.3802 11.3203 26.1202C11.0803 26.0502 10.7103 25.9402 10.6103 25.8702C10.3903 25.6902 9.90031 24.7802 9.60031 24.2302C9.21031 23.5102 8.86031 22.8602 8.48031 22.4002C9.30031 20.4602 10.5903 18.7302 12.2903 17.3502C13.3103 17.9402 14.4203 18.4202 15.6603 18.7202C16.1103 18.8302 16.5703 18.9102 17.0303 18.9602C14.8403 20.8102 14.1403 23.1902 15.2403 25.3902C16.6003 28.1202 19.3503 27.6502 21.5703 27.2702C21.9303 27.2102 22.3003 27.1502 22.6703 27.0902C23.0003 27.5702 23.0003 29.5502 23.0103 30.7602C23.0103 32.9002 23.0303 34.9202 23.8903 36.0202C24.3503 36.6102 25.0103 36.9102 25.7603 36.9102C26.2003 36.9102 26.6803 36.8002 27.1703 36.5902C29.2503 35.6802 31.3003 33.0402 30.9403 30.8902C30.4203 27.7502 30.2803 26.8702 33.4103 25.0602C33.5603 25.8602 33.6403 26.6802 33.6403 27.5202C33.6403 34.7502 27.7603 40.6302 20.5303 40.6302C20.0803 40.6302 19.6303 40.6102 19.1903 40.5602C18.6403 40.5002 18.1503 40.9002 18.0903 41.4502C18.0303 42.0002 18.4303 42.4902 18.9803 42.5502C19.4903 42.6002 20.0103 42.6302 20.5203 42.6302C28.8503 42.6302 35.6303 35.8502 35.6303 27.5202C35.6303 22.4502 33.1003 17.7802 28.9503 14.9802C29.3903 14.6502 29.8403 14.3202 30.2903 13.9502C34.6503 17.1002 37.2403 22.1102 37.2403 27.5102C37.2403 36.7302 29.7403 44.2302 20.5203 44.2302C11.3003 44.2302 3.81031 36.7202 3.81031 27.5002C3.81031 26.5402 3.89031 25.5702 4.06031 24.6302C4.15031 24.0902 3.79031 23.5702 3.25031 23.4702C2.70031 23.3702 2.19031 23.7402 2.09031 24.2802C1.91031 25.3302 1.82031 26.4102 1.82031 27.4902C1.82031 37.8102 10.2203 46.2102 20.5403 46.2102C30.8603 46.2102 39.2603 37.8102 39.2603 27.4902C39.2603 25.0102 38.7703 22.6002 37.8503 20.3702C39.8603 19.7202 43.8903 18.0002 45.5103 14.2802C45.9003 13.3902 46.1003 12.4302 46.1603 11.4402C46.1603 11.3702 46.1703 11.3102 46.1603 11.2402C46.2403 8.95021 45.4803 6.42021 43.8203 3.67021L43.8303 3.68021ZM7.83031 25.1702C8.35031 26.1402 8.80031 26.9702 9.33031 27.4002C9.72031 27.7202 10.2403 27.8702 10.7403 28.0202C11.0503 28.1102 11.7003 28.3002 11.7903 28.4602C11.7903 28.4602 11.8103 28.5102 11.7703 28.6502C11.6403 29.2202 11.3003 29.9302 10.9803 30.6202C10.2903 32.0702 9.64031 33.4402 10.3503 34.5202C10.8703 35.3102 11.1103 36.0902 11.2203 36.7402C8.84031 34.3402 7.43031 31.0602 7.43031 27.5102C7.43031 26.6302 7.53031 25.7602 7.70031 24.9202C7.75031 25.0102 7.80031 25.1002 7.84031 25.1702H7.83031ZM19.5403 3.96021C24.0303 4.96021 27.0103 8.98021 28.4203 11.3302L23.4603 10.4202L18.5903 3.82021C18.9103 3.86021 19.2303 3.89021 19.5403 3.96021ZM27.9003 13.2702C24.0403 16.1302 20.4303 17.3502 17.1203 16.9102L23.1303 12.3902L27.9003 13.2602V13.2702ZM16.1003 3.83021L20.5703 9.90021L16.4703 9.15021L13.0803 4.61021C14.1103 4.21021 15.1203 3.95021 16.1003 3.83021ZM11.2303 5.47021L13.5803 8.62021L7.99031 7.60021C9.09031 6.75021 10.1703 6.04021 11.2303 5.48021V5.47021ZM7.51031 9.54021L13.4803 10.6302L10.1803 13.1102C8.99031 11.8602 8.10031 10.5502 7.50031 9.54021H7.51031ZM14.6503 16.2702C13.5503 15.8202 12.5603 15.2002 11.6803 14.4902L16.1603 11.1202L20.4603 11.9102L14.6503 16.2702ZM32.8703 23.0602C28.2703 25.6502 28.3403 27.4002 28.9703 31.2102C29.1403 32.2502 27.7603 34.1402 26.3603 34.7502C26.0503 34.8902 25.6403 35.0002 25.4503 34.7702C25.0103 34.2102 25.0103 32.2002 25.0003 30.7302C25.0003 28.4202 24.9803 26.4302 23.9403 25.5102C23.5303 25.1502 23.0103 25.0002 22.4303 25.0802C22.0303 25.1302 21.6203 25.2002 21.2203 25.2702C18.7903 25.6802 17.6503 25.7402 17.0203 24.4702C15.8903 22.2002 18.1903 20.4402 19.2303 19.7802C19.6003 19.5502 19.9303 19.2302 20.2503 18.8702C22.4803 18.5502 24.7903 17.6502 27.1603 16.1802C29.8503 17.7602 31.8403 20.2002 32.8603 23.0502L32.8703 23.0602ZM36.4103 17.2702C35.1703 14.2402 35.0503 11.6902 36.0603 9.68021C36.0603 9.68021 36.0603 9.67021 36.0703 9.66021L37.8003 13.9402L36.4103 17.2702ZM37.4903 7.82021C38.6703 6.72021 40.1303 6.06021 41.2703 5.68021L38.9103 11.3302L37.5003 7.83021L37.4903 7.82021ZM43.6803 13.4902C42.6103 15.9702 40.0503 17.3802 38.2403 18.1102L39.6603 14.7202L43.8703 12.9702C43.8103 13.1402 43.7603 13.3202 43.6903 13.4902H43.6803ZM40.7503 12.0902L43.0803 6.53021C43.7703 8.02021 44.1303 9.40021 44.1803 10.6702L40.7503 12.1002V12.0902Z" fill="#323232"/>
</svg>
