<svg width="24" height="24" viewBox="0 0 24 24" fill="none" xmlns="http://www.w3.org/2000/svg">
<g clip-path="url(#clip0_16335_12433)">
<path d="M20.4851 20.4853C25.1714 15.799 25.1714 8.20101 20.4851 3.51472C15.7988 -1.17157 8.20081 -1.17157 3.51452 3.51472C-1.17177 8.20101 -1.17177 15.799 3.51452 20.4853C8.20081 25.1716 15.7988 25.1716 20.4851 20.4853Z" fill="#003399"/>
<mask id="mask0_16335_12433" style="mask-type:luminance" maskUnits="userSpaceOnUse" x="-1" y="0" width="25" height="24">
<path d="M20.4851 20.4853C25.1714 15.799 25.1714 8.20101 20.4851 3.51472C15.7988 -1.17157 8.20081 -1.17157 3.51452 3.51472C-1.17177 8.20101 -1.17177 15.799 3.51452 20.4853C8.20081 25.1716 15.7988 25.1716 20.4851 20.4853Z" fill="white"/>
</mask>
<g mask="url(#mask0_16335_12433)">
<path fill-rule="evenodd" clip-rule="evenodd" d="M20.3149 11.0847V14.6398C20.3149 17.3327 18.7204 19.6707 16.4286 20.7579C14.1367 19.6707 12.5422 17.3327 12.5422 14.6398V11.0847C13.09 11.3935 13.7217 11.5696 14.3953 11.5696C15.1443 11.5696 15.8416 11.3516 16.4286 10.9771C17.0155 11.3516 17.7128 11.5696 18.4619 11.5696C19.1355 11.5696 19.7671 11.3935 20.3149 11.0847Z" fill="#FF9900"/>
<path fill-rule="evenodd" clip-rule="evenodd" d="M20.0592 11.4967C19.5561 11.7133 19.0139 11.8251 18.4619 11.8251C17.745 11.8251 17.0463 11.6364 16.4286 11.2759C15.8109 11.6364 15.1136 11.8251 14.3953 11.8251C13.8433 11.8251 13.3011 11.7133 12.798 11.4967V14.6396C12.798 17.1201 14.222 19.3756 16.4286 20.4726C18.6352 19.3756 20.0592 17.1201 20.0592 14.6396V11.4967Z" fill="white"/>
<path fill-rule="evenodd" clip-rule="evenodd" d="M13.7161 17.96C14.3505 19.022 15.284 19.9038 16.4285 20.4726C17.5731 19.9038 18.5066 19.022 19.141 17.96H13.7161Z" fill="#99CCFF"/>
<path fill-rule="evenodd" clip-rule="evenodd" d="M15.9395 12.5254C16.2902 12.5268 16.6228 12.6064 16.9219 12.7462C17.0896 12.8216 17.274 12.8636 17.4697 12.8636C17.5968 12.8636 17.7198 12.8454 17.8358 12.8119C18.0552 12.7462 18.2872 12.742 18.508 12.7979C18.3571 12.9446 18.1684 13.055 17.9518 13.1137C17.9029 13.1263 17.854 13.1361 17.8051 13.1445C17.8442 13.1752 17.8805 13.2073 17.9169 13.2437C18.0762 13.403 18.1838 13.593 18.2411 13.7943C18.0231 13.7328 17.8274 13.614 17.6709 13.4519C17.4599 13.2395 17.1664 13.1067 16.8422 13.1067C16.4397 13.1067 16.0834 13.3108 15.8738 13.621C15.8528 13.6545 15.8402 13.6937 15.8402 13.7356C15.8402 13.8544 15.9381 13.9522 16.0568 13.9522H16.402C16.293 14.1087 16.1127 14.2107 15.9101 14.2107H15.653C15.53 14.6607 15.3511 15.0869 15.1247 15.4824C15.0591 15.4307 15.0157 15.3496 15.0157 15.2602V14.5587C14.8858 14.3533 14.8117 14.1101 14.8117 13.8488C14.8117 13.4575 14.9794 13.1067 15.2463 12.8622V12.4499C15.2463 12.2473 15.3483 12.0656 15.5048 11.958V12.0936C15.5048 12.3339 15.7033 12.5254 15.9367 12.5254H15.9395ZM15.0171 14.1367C14.9766 14.1367 14.9431 14.1702 14.9431 14.2107C14.9431 14.2512 14.9766 14.2848 15.0171 14.2848C15.0577 14.2848 15.0912 14.2512 15.0912 14.2107C15.0912 14.1702 15.0577 14.1367 15.0171 14.1367Z" fill="#FF9900"/>
<path fill-rule="evenodd" clip-rule="evenodd" d="M14.5238 16.5011C14.3505 16.1965 14.2527 15.8681 14.2233 15.5397C14.2052 15.3566 14.1493 15.1749 14.0515 15.0058C13.9886 14.8954 13.9103 14.7976 13.8237 14.7138C13.6574 14.5572 13.5372 14.3588 13.4743 14.138C13.6755 14.1953 13.867 14.3029 14.0249 14.4622C14.0612 14.4986 14.0934 14.5349 14.1241 14.574C14.1311 14.5251 14.1409 14.4762 14.1549 14.4273C14.2136 14.2107 14.324 14.022 14.4707 13.8711C14.5266 14.0905 14.521 14.3183 14.4581 14.5363C14.3799 14.8256 14.412 15.1456 14.5741 15.4265C14.7753 15.7758 15.1303 15.9813 15.5048 16.0078C15.5439 16.0078 15.5845 15.9994 15.6208 15.9785C15.7242 15.9184 15.7592 15.7856 15.7005 15.6822L15.5286 15.3845C15.7172 15.3999 15.8975 15.5061 15.9981 15.6808L16.1267 15.903C16.5781 15.7856 17.0364 15.7269 17.492 15.7255C17.4794 15.808 17.4319 15.8862 17.3537 15.931L16.7458 16.2817C16.6326 16.4969 16.4593 16.6828 16.2329 16.8141C15.8947 17.0098 15.5062 17.0405 15.161 16.9301L14.8033 17.137C14.6272 17.239 14.419 17.2404 14.2471 17.1593L14.3645 17.0908C14.5727 16.9707 14.6398 16.7037 14.5224 16.4997L14.5238 16.5011ZM16.3796 16.4941C16.4006 16.5291 16.4453 16.5416 16.4802 16.5207C16.5152 16.4997 16.5278 16.455 16.5068 16.4201C16.4858 16.3851 16.4411 16.3725 16.4062 16.3935C16.3712 16.4145 16.3587 16.4592 16.3796 16.4941Z" fill="#FF9900"/>
<path fill-rule="evenodd" clip-rule="evenodd" d="M18.6743 15.7396C18.4968 16.0429 18.2621 16.2916 17.9923 16.4803C17.8428 16.5879 17.7142 16.7276 17.6164 16.8967C17.5535 17.0071 17.5074 17.1217 17.4781 17.2405C17.425 17.4627 17.3132 17.6667 17.1539 17.8302C17.1022 17.6276 17.1008 17.4082 17.1595 17.1916C17.172 17.1427 17.1888 17.0952 17.207 17.0504C17.1609 17.0686 17.1133 17.084 17.0658 17.098C16.8492 17.1567 16.6298 17.1539 16.4272 17.1036C16.5893 16.9456 16.7891 16.8352 17.0085 16.7821C17.2992 16.7053 17.5591 16.518 17.7212 16.2371C17.9225 15.8878 17.9239 15.4783 17.7604 15.1415C17.7422 15.1066 17.7142 15.0772 17.6779 15.0563C17.5745 14.9962 17.4417 15.0325 17.3817 15.1359L17.2098 15.4336C17.1287 15.2617 17.1301 15.0549 17.2321 14.8788L17.3607 14.6566C17.0337 14.3254 16.7528 13.9565 16.5236 13.5624C16.6019 13.5316 16.6927 13.5344 16.771 13.5792L17.3789 13.9299C17.622 13.9201 17.8694 13.9774 18.0958 14.1074C18.4339 14.303 18.6547 14.6231 18.7316 14.978L19.0893 15.1848C19.2654 15.2869 19.3702 15.4657 19.3856 15.6544L19.2682 15.5859C19.06 15.4657 18.7945 15.5412 18.6771 15.7438L18.6743 15.7396ZM17.7394 14.1353C17.7604 14.1004 17.7478 14.0543 17.7128 14.0347C17.6779 14.0138 17.6318 14.0263 17.6122 14.0613C17.5913 14.0962 17.6038 14.1423 17.6388 14.1619C17.6737 14.1829 17.7198 14.1703 17.7394 14.1353Z" fill="#FF9900"/>
<path fill-rule="evenodd" clip-rule="evenodd" d="M0.122986 0H1.67836L5.6178 2.753V0H8.48679V2.72924L12.3913 0H13.9802V1.08722L11.0749 3.11774H13.9802V6.11529H11.0749L13.9802 8.1458V9.25678H12.4262L8.48679 6.50379V9.25678H5.6178V6.52754L1.7133 9.25678H0.122986V8.16956L3.02971 6.13905H0.122986V3.14149H3.02971L0.122986 1.11098V0Z" fill="white"/>
<path d="M13.9802 3.73145H0.122986V5.54954H13.9802V3.73145Z" fill="#FF0000"/>
<path d="M7.92221 0H6.18097V9.25678H7.92221V0Z" fill="#FF0000"/>
<path fill-rule="evenodd" clip-rule="evenodd" d="M1.15711 9.2569L5.6178 6.13916H4.58368L0.122986 9.2569H1.15711Z" fill="#FF0000"/>
<path fill-rule="evenodd" clip-rule="evenodd" d="M3.5859 3.14149L0.122986 0.722488V0L4.61862 3.14149H3.5859Z" fill="#FF0000"/>
<path fill-rule="evenodd" clip-rule="evenodd" d="M12.9475 0L8.48682 3.11774H9.51954L13.9802 0H12.9475Z" fill="#FF0000"/>
<path fill-rule="evenodd" clip-rule="evenodd" d="M10.5187 6.11523L13.9802 8.53424V9.25673L9.48596 6.11523H10.5187Z" fill="#FF0000"/>
</g>
</g>
<rect x="0.25" y="0.25" width="23.5" height="23.5" rx="11.75" stroke="#E5E3E1" stroke-width="0.5"/>
<defs>
<clipPath id="clip0_16335_12433">
<rect width="24" height="24" rx="12" fill="white"/>
</clipPath>
</defs>
</svg>
