<svg width="24" height="24" viewBox="0 0 24 24" fill="none" xmlns="http://www.w3.org/2000/svg">
<path d="M11.998 3.99902C11.998 3.99902 18.8767 3.99925 20.5928 4.46191C21.5394 4.7165 22.285 5.46642 22.5381 6.41895C22.9978 8.1457 22.998 11.749 22.998 11.749C22.998 11.749 22.9978 15.3521 22.5381 17.0791C22.285 18.0316 21.5394 18.7814 20.5928 19.0361C18.8768 19.4987 11.998 19.499 11.998 19.499C11.998 19.499 5.11797 19.4988 3.40234 19.0361C2.45608 18.7813 1.71106 18.0314 1.45801 17.0791C0.998383 15.3521 0.998047 11.749 0.998047 11.749C0.998047 11.749 0.998383 8.1457 1.45801 6.41895C1.7111 5.46659 2.4561 4.71661 3.40234 4.46191C5.11797 3.99916 11.998 3.99902 11.998 3.99902ZM9.74805 15.0205L15.498 11.749L9.74805 8.47754V15.0205Z" fill="#323232"/>
</svg>
