<svg width="48" height="48" viewBox="0 0 48 48" fill="none" xmlns="http://www.w3.org/2000/svg">
<path d="M21.0605 19.7402V28.3002C23.5805 26.8702 26.0705 25.4502 28.5905 24.0202C26.0605 22.5902 23.5705 21.1702 21.0605 19.7402Z" fill="#323232"/>
<path d="M24 2C11.85 2 2 11.85 2 24C2 36.15 11.85 46 24 46C36.15 46 46 36.15 46 24C46 11.85 36.15 2 24 2ZM38.32 26.75C38.24 28.09 38.16 29.44 37.85 30.75C37.49 32.33 36.4 33.34 34.8 33.61C33.56 33.82 32.3 33.89 31.04 33.96C28.69 34.08 26.33 34.12 23.98 34.13C21.61 34.12 19.24 34.08 16.88 33.96C15.64 33.9 14.4 33.84 13.18 33.62C11.43 33.3 10.35 32.2 10.05 30.44C9.62 27.93 9.55 25.41 9.6 22.87C9.62 21.65 9.69 20.43 9.82 19.22C9.9 18.48 9.98 17.74 10.19 17.02C10.63 15.54 11.64 14.66 13.16 14.38C14.19 14.19 15.24 14.12 16.29 14.07C19.25 13.91 22.22 13.85 25.19 13.87C27.39 13.89 29.59 13.94 31.79 14.07C32.78 14.13 33.78 14.2 34.76 14.37C36.45 14.67 37.53 15.73 37.88 17.4C38.14 18.68 38.24 19.98 38.31 21.29C38.41 23.11 38.42 24.93 38.31 26.75H38.32Z" fill="#323232"/>
</svg>
