<svg width="48" height="48" viewBox="0 0 48 48" fill="none" xmlns="http://www.w3.org/2000/svg">
<path fill-rule="evenodd" clip-rule="evenodd" d="M40.8209 39.8101C40.8209 39.8101 40.8809 39.8401 40.9109 39.8401C40.9709 39.8401 41.0009 39.8401 41.0609 39.7801C41.1209 39.7201 41.1209 39.6001 41.0609 39.5401C37.6209 35.7701 33.3909 32.7201 28.6809 30.7601L27.2309 30.1601C26.4809 29.8301 25.9909 29.0701 25.9909 28.2001C26.0809 24.9701 33.3609 25.6401 34.1209 24.1001L34.2409 23.8301C32.7409 22.4701 30.9709 21.4801 29.0109 20.9101C28.9809 21.0001 28.9209 21.3601 29.3309 22.0601C29.7609 22.7801 28.8709 23.9601 27.5409 22.6901L27.4309 22.6001C17.7709 13.3701 13.3209 19.4601 6.76094 8.72012C6.70094 8.63012 6.61094 8.60012 6.53094 8.66012C6.44094 8.72012 6.41094 8.81012 6.44094 8.90012C11.6209 21.9001 22.2009 19.1601 23.4409 31.2801C23.5009 31.7301 23.8209 32.0901 24.2509 32.1501C30.1209 33.1201 35.8509 35.6501 40.8209 39.8101H40.8509H40.8209Z" fill="#DF0000"/>
<path d="M22.6216 6.34973C23.555 6.34973 24.3116 5.59309 24.3116 4.65973C24.3116 3.72637 23.555 2.96973 22.6216 2.96973C21.6883 2.96973 20.9316 3.72637 20.9316 4.65973C20.9316 5.59309 21.6883 6.34973 22.6216 6.34973Z" fill="#323232"/>
<path d="M25.3814 44.9698C26.3148 44.9698 27.0714 44.2132 27.0714 43.2798C27.0714 42.3465 26.3148 41.5898 25.3814 41.5898C24.448 41.5898 23.6914 42.3465 23.6914 43.2798C23.6914 44.2132 24.448 44.9698 25.3814 44.9698Z" fill="#323232"/>
<path d="M17.6705 7.36926C18.6038 7.36926 19.3605 6.61262 19.3605 5.67926C19.3605 4.7459 18.6038 3.98926 17.6705 3.98926C16.7371 3.98926 15.9805 4.7459 15.9805 5.67926C15.9805 6.61262 16.7371 7.36926 17.6705 7.36926Z" fill="#323232"/>
<path d="M30.3306 43.9591C31.264 43.9591 32.0206 43.2025 32.0206 42.2691C32.0206 41.3357 31.264 40.5791 30.3306 40.5791C29.3973 40.5791 28.6406 41.3357 28.6406 42.2691C28.6406 43.2025 29.3973 43.9591 30.3306 43.9591Z" fill="#323232"/>
<path d="M13.1509 9.63C14.0843 9.63 14.8409 8.87336 14.8409 7.94C14.8409 7.00664 14.0843 6.25 13.1509 6.25C12.2176 6.25 11.4609 7.00664 11.4609 7.94C11.4609 8.87336 12.2176 9.63 13.1509 9.63Z" fill="#323232"/>
<path d="M34.8502 41.7003C35.7835 41.7003 36.5402 40.9437 36.5402 40.0103C36.5402 39.0769 35.7835 38.3203 34.8502 38.3203C33.9168 38.3203 33.1602 39.0769 33.1602 40.0103C33.1602 40.9437 33.9168 41.7003 34.8502 41.7003Z" fill="#323232"/>
<path d="M6.59039 17.1993C7.52375 17.1993 8.28039 16.4427 8.28039 15.5093C8.28039 14.576 7.52375 13.8193 6.59039 13.8193C5.65703 13.8193 4.90039 14.576 4.90039 15.5093C4.90039 16.4427 5.65703 17.1993 6.59039 17.1993Z" fill="#323232"/>
<path d="M41.4107 34.129C42.3441 34.129 43.1007 33.3724 43.1007 32.439C43.1007 31.5057 42.3441 30.749 41.4107 30.749C40.4773 30.749 39.7207 31.5057 39.7207 32.439C39.7207 33.3724 40.4773 34.129 41.4107 34.129Z" fill="#323232"/>
<path d="M4.99078 21.9991C5.92414 21.9991 6.68078 21.2425 6.68078 20.3091C6.68078 19.3758 5.92414 18.6191 4.99078 18.6191C4.05742 18.6191 3.30078 19.3758 3.30078 20.3091C3.30078 21.2425 4.05742 21.9991 4.99078 21.9991Z" fill="#323232"/>
<path d="M43.0103 29.3292C43.9437 29.3292 44.7003 28.5726 44.7003 27.6392C44.7003 26.7059 43.9437 25.9492 43.0103 25.9492C42.0769 25.9492 41.3203 26.7059 41.3203 27.6392C41.3203 28.5726 42.0769 29.3292 43.0103 29.3292Z" fill="#323232"/>
<path d="M4.69 27.0392C5.62336 27.0392 6.38 26.2825 6.38 25.3492C6.38 24.4158 5.62336 23.6592 4.69 23.6592C3.75664 23.6592 3 24.4158 3 25.3492C3 26.2825 3.75664 27.0392 4.69 27.0392Z" fill="#323232"/>
<path d="M43.3091 24.2892C44.2425 24.2892 44.9991 23.5325 44.9991 22.5992C44.9991 21.6658 44.2425 20.9092 43.3091 20.9092C42.3758 20.9092 41.6191 21.6658 41.6191 22.5992C41.6191 23.5325 42.3758 24.2892 43.3091 24.2892Z" fill="#323232"/>
<path d="M5.69977 31.9894C6.63313 31.9894 7.38977 31.2327 7.38977 30.2994C7.38977 29.366 6.63313 28.6094 5.69977 28.6094C4.7664 28.6094 4.00977 29.366 4.00977 30.2994C4.00977 31.2327 4.7664 31.9894 5.69977 31.9894Z" fill="#323232"/>
<path d="M42.2994 19.3292C43.2327 19.3292 43.9894 18.5726 43.9894 17.6392C43.9894 16.7059 43.2327 15.9492 42.2994 15.9492C41.366 15.9492 40.6094 16.7059 40.6094 17.6392C40.6094 18.5726 41.366 19.3292 42.2994 19.3292Z" fill="#323232"/>
<path d="M7.95953 36.5099C8.89289 36.5099 9.64953 35.7532 9.64953 34.8199C9.64953 33.8865 8.89289 33.1299 7.95953 33.1299C7.02617 33.1299 6.26953 33.8865 6.26953 34.8199C6.26953 35.7532 7.02617 36.5099 7.95953 36.5099Z" fill="#323232"/>
<path d="M40.0396 14.8097C40.973 14.8097 41.7296 14.053 41.7296 13.1197C41.7296 12.1863 40.973 11.4297 40.0396 11.4297C39.1063 11.4297 38.3496 12.1863 38.3496 13.1197C38.3496 14.053 39.1063 14.8097 40.0396 14.8097Z" fill="#323232"/>
<path d="M11.3189 40.2892C12.2523 40.2892 13.0089 39.5325 13.0089 38.5992C13.0089 37.6658 12.2523 36.9092 11.3189 36.9092C10.3855 36.9092 9.62891 37.6658 9.62891 38.5992C9.62891 39.5325 10.3855 40.2892 11.3189 40.2892Z" fill="#323232"/>
<path d="M36.6783 11.0294C37.6116 11.0294 38.3683 10.2728 38.3683 9.33941C38.3683 8.40605 37.6116 7.64941 36.6783 7.64941C35.7449 7.64941 34.9883 8.40605 34.9883 9.33941C34.9883 10.2728 35.7449 11.0294 36.6783 11.0294Z" fill="#323232"/>
<path d="M15.5396 43.0792C16.473 43.0792 17.2296 42.3226 17.2296 41.3892C17.2296 40.4559 16.473 39.6992 15.5396 39.6992C14.6062 39.6992 13.8496 40.4559 13.8496 41.3892C13.8496 42.3226 14.6062 43.0792 15.5396 43.0792Z" fill="#323232"/>
<path d="M32.4595 8.24914C33.3929 8.24914 34.1495 7.4925 34.1495 6.55914C34.1495 5.62578 33.3929 4.86914 32.4595 4.86914C31.5262 4.86914 30.7695 5.62578 30.7695 6.55914C30.7695 7.4925 31.5262 8.24914 32.4595 8.24914Z" fill="#323232"/>
<path d="M20.3287 44.6691C21.262 44.6691 22.0187 43.9124 22.0187 42.9791C22.0187 42.0457 21.262 41.2891 20.3287 41.2891C19.3953 41.2891 18.6387 42.0457 18.6387 42.9791C18.6387 43.9124 19.3953 44.6691 20.3287 44.6691Z" fill="#323232"/>
<path d="M27.6685 6.64953C28.6019 6.64953 29.3585 5.89289 29.3585 4.95953C29.3585 4.02617 28.6019 3.26953 27.6685 3.26953C26.7352 3.26953 25.9785 4.02617 25.9785 4.95953C25.9785 5.89289 26.7352 6.64953 27.6685 6.64953Z" fill="#323232"/>
<path d="M21.2698 10.9995C21.9656 10.9995 22.5298 10.4354 22.5298 9.73949C22.5298 9.04361 21.9656 8.47949 21.2698 8.47949C20.5739 8.47949 20.0098 9.04361 20.0098 9.73949C20.0098 10.4354 20.5739 10.9995 21.2698 10.9995Z" fill="#8DE2E0"/>
<path d="M26.7307 39.4692C27.4266 39.4692 27.9907 38.9051 27.9907 38.2092C27.9907 37.5133 27.4266 36.9492 26.7307 36.9492C26.0348 36.9492 25.4707 37.5133 25.4707 38.2092C25.4707 38.9051 26.0348 39.4692 26.7307 39.4692Z" fill="#8DE2E0"/>
<path d="M17.6799 12.1899C18.3758 12.1899 18.9399 11.6258 18.9399 10.9299C18.9399 10.234 18.3758 9.66992 17.6799 9.66992C16.984 9.66992 16.4199 10.234 16.4199 10.9299C16.4199 11.6258 16.984 12.1899 17.6799 12.1899Z" fill="#8DE2E0"/>
<path d="M30.3205 38.2798C31.0164 38.2798 31.5805 37.7156 31.5805 37.0198C31.5805 36.3239 31.0164 35.7598 30.3205 35.7598C29.6247 35.7598 29.0605 36.3239 29.0605 37.0198C29.0605 37.7156 29.6247 38.2798 30.3205 38.2798Z" fill="#8DE2E0"/>
<path d="M14.5198 14.269C15.2156 14.269 15.7798 13.7049 15.7798 13.009C15.7798 12.3131 15.2156 11.749 14.5198 11.749C13.8239 11.749 13.2598 12.3131 13.2598 13.009C13.2598 13.7049 13.8239 14.269 14.5198 14.269Z" fill="#8DE2E0"/>
<path d="M36.0002 33.3696C36.6961 33.3696 37.2602 32.8055 37.2602 32.1096C37.2602 31.4137 36.6961 30.8496 36.0002 30.8496C35.3044 30.8496 34.7402 31.4137 34.7402 32.1096C34.7402 32.8055 35.3044 33.3696 36.0002 33.3696Z" fill="#8DE2E0"/>
<path d="M10.3088 20.48C11.0047 20.48 11.5688 19.9158 11.5688 19.22C11.5688 18.5241 11.0047 17.96 10.3088 17.96C9.61295 17.96 9.04883 18.5241 9.04883 19.22C9.04883 19.9158 9.61295 20.48 10.3088 20.48Z" fill="#8DE2E0"/>
<path d="M37.6897 29.9897C38.3856 29.9897 38.9497 29.4256 38.9497 28.7297C38.9497 28.0338 38.3856 27.4697 37.6897 27.4697C36.9938 27.4697 36.4297 28.0338 36.4297 28.7297C36.4297 29.4256 36.9938 29.9897 37.6897 29.9897Z" fill="#8DE2E0"/>
<path d="M9.5393 24.1899C10.2352 24.1899 10.7993 23.6258 10.7993 22.9299C10.7993 22.234 10.2352 21.6699 9.5393 21.6699C8.84342 21.6699 8.2793 22.234 8.2793 22.9299C8.2793 23.6258 8.84342 24.1899 9.5393 24.1899Z" fill="#8DE2E0"/>
<path d="M38.4592 26.2798C39.1551 26.2798 39.7192 25.7156 39.7192 25.0198C39.7192 24.3239 39.1551 23.7598 38.4592 23.7598C37.7633 23.7598 37.1992 24.3239 37.1992 25.0198C37.1992 25.7156 37.7633 26.2798 38.4592 26.2798Z" fill="#8DE2E0"/>
<path d="M9.76 27.9595C10.4559 27.9595 11.02 27.3953 11.02 26.6995C11.02 26.0036 10.4559 25.4395 9.76 25.4395C9.06412 25.4395 8.5 26.0036 8.5 26.6995C8.5 27.3953 9.06412 27.9595 9.76 27.9595Z" fill="#8DE2E0"/>
<path d="M38.2405 22.4995C38.9363 22.4995 39.5005 21.9354 39.5005 21.2395C39.5005 20.5436 38.9363 19.9795 38.2405 19.9795C37.5446 19.9795 36.9805 20.5436 36.9805 21.2395C36.9805 21.9354 37.5446 22.4995 38.2405 22.4995Z" fill="#8DE2E0"/>
<path d="M10.9592 31.56C11.6551 31.56 12.2192 30.9959 12.2192 30.3C12.2192 29.6042 11.6551 29.04 10.9592 29.04C10.2633 29.04 9.69922 29.6042 9.69922 30.3C9.69922 30.9959 10.2633 31.56 10.9592 31.56Z" fill="#8DE2E0"/>
<path d="M37.0393 18.9096C37.7352 18.9096 38.2993 18.3455 38.2993 17.6496C38.2993 16.9538 37.7352 16.3896 37.0393 16.3896C36.3434 16.3896 35.7793 16.9538 35.7793 17.6496C35.7793 18.3455 36.3434 18.9096 37.0393 18.9096Z" fill="#8DE2E0"/>
<path d="M13.0393 34.7192C13.7352 34.7192 14.2993 34.1551 14.2993 33.4592C14.2993 32.7633 13.7352 32.1992 13.0393 32.1992C12.3434 32.1992 11.7793 32.7633 11.7793 33.4592C11.7793 34.1551 12.3434 34.7192 13.0393 34.7192Z" fill="#8DE2E0"/>
<path d="M34.9592 15.7495C35.6551 15.7495 36.2192 15.1854 36.2192 14.4895C36.2192 13.7936 35.6551 13.2295 34.9592 13.2295C34.2633 13.2295 33.6992 13.7936 33.6992 14.4895C33.6992 15.1854 34.2633 15.7495 34.9592 15.7495Z" fill="#8DE2E0"/>
<path d="M15.8596 37.23C16.5555 37.23 17.1196 36.6658 17.1196 35.97C17.1196 35.2741 16.5555 34.71 15.8596 34.71C15.1637 34.71 14.5996 35.2741 14.5996 35.97C14.5996 36.6658 15.1637 37.23 15.8596 37.23Z" fill="#8DE2E0"/>
<path d="M32.1389 13.2397C32.8348 13.2397 33.3989 12.6756 33.3989 11.9797C33.3989 11.2838 32.8348 10.7197 32.1389 10.7197C31.443 10.7197 30.8789 11.2838 30.8789 11.9797C30.8789 12.6756 31.443 13.2397 32.1389 13.2397Z" fill="#8DE2E0"/>
<path d="M19.2502 38.9292C19.9461 38.9292 20.5102 38.3651 20.5102 37.6692C20.5102 36.9733 19.9461 36.4092 19.2502 36.4092C18.5544 36.4092 17.9902 36.9733 17.9902 37.6692C17.9902 38.3651 18.5544 38.9292 19.2502 38.9292Z" fill="#8DE2E0"/>
<path d="M28.7502 11.5395C29.4461 11.5395 30.0102 10.9754 30.0102 10.2795C30.0102 9.58365 29.4461 9.01953 28.7502 9.01953C28.0544 9.01953 27.4902 9.58365 27.4902 10.2795C27.4902 10.9754 28.0544 11.5395 28.7502 11.5395Z" fill="#8DE2E0"/>
<path d="M22.9495 39.6899C23.6453 39.6899 24.2095 39.1258 24.2095 38.4299C24.2095 37.734 23.6453 37.1699 22.9495 37.1699C22.2536 37.1699 21.6895 37.734 21.6895 38.4299C21.6895 39.1258 22.2536 39.6899 22.9495 39.6899Z" fill="#8DE2E0"/>
<path d="M25.0491 10.7798C25.7449 10.7798 26.3091 10.2156 26.3091 9.51977C26.3091 8.82389 25.7449 8.25977 25.0491 8.25977C24.3532 8.25977 23.7891 8.82389 23.7891 9.51977C23.7891 10.2156 24.3532 10.7798 25.0491 10.7798Z" fill="#8DE2E0"/>
</svg>
