<svg width="48" height="48" viewBox="0 0 48 48" fill="none" xmlns="http://www.w3.org/2000/svg">
<path d="M23.8993 41.7603C19.1193 41.7603 14.6193 39.9003 11.2293 36.5103C10.0093 35.2903 9.9993 33.2903 11.2293 32.0703C12.4493 30.8503 14.4493 30.8403 15.6693 32.0703C17.1193 33.5203 18.9293 34.5603 20.9093 35.0903C23.9093 35.8903 27.0393 35.4703 29.7193 33.9103C31.3693 32.9503 32.7193 31.6403 33.7093 30.0803C33.3493 30.1803 32.9693 30.2203 32.5793 30.1903C31.7393 30.1203 30.9793 29.7403 30.4393 29.1003C29.8993 28.4603 29.6293 27.6503 29.6993 26.8103C29.7693 25.9703 30.1493 25.2103 30.7893 24.6703L36.5293 19.7803C36.5293 19.7803 36.5693 19.7503 36.5893 19.7303C36.7193 19.6303 36.8593 19.5303 36.9993 19.4503C37.0293 19.4303 37.1393 19.3803 37.1793 19.3603C37.2893 19.3103 37.3993 19.2603 37.5193 19.2103C37.5193 19.2103 37.5293 19.2103 37.5393 19.2103C37.5993 19.1903 37.6693 19.1703 37.7393 19.1503C37.8493 19.1203 37.9593 19.1003 38.0693 19.0803C38.1193 19.0703 38.1693 19.0603 38.2193 19.0503C38.3493 19.0303 38.4693 19.0303 38.5993 19.0303C38.7093 19.0303 38.8193 19.0303 38.9193 19.0503C38.9593 19.0503 39.0193 19.0603 39.0593 19.0803C39.1793 19.1003 39.3093 19.1303 39.4293 19.1603C39.4993 19.1803 39.5593 19.2003 39.6293 19.2203C39.7693 19.2703 39.9093 19.3303 40.0393 19.4003C40.0693 19.4103 40.1293 19.4403 40.1693 19.4703C40.3393 19.5703 40.5093 19.6903 40.6593 19.8203C40.6893 19.8503 40.7393 19.9003 40.7793 19.9403C40.8393 19.9903 40.9493 20.1103 41.0593 20.2403C41.0793 20.2603 41.0893 20.2803 41.1093 20.3003L45.6493 26.4903C46.6693 27.8903 46.3693 29.8603 44.9793 30.8803C43.5993 31.8903 41.6693 31.6103 40.6293 30.2703C39.7293 32.6103 38.3493 34.7503 36.5693 36.5303C33.1893 39.9103 28.6893 41.7803 23.9093 41.7803L23.8993 41.7603ZM13.4493 33.1603C13.1593 33.1603 12.8693 33.2703 12.6393 33.4903C12.1993 33.9303 12.1993 34.6603 12.6393 35.1003C15.6493 38.1103 19.6393 39.7603 23.8893 39.7603C28.1393 39.7603 32.1393 38.1103 35.1393 35.1003C37.1493 33.0903 38.5793 30.5803 39.2893 27.8403C39.3893 27.4703 39.6893 27.1803 40.0693 27.1103C40.4493 27.0403 40.8393 27.1903 41.0693 27.5003L42.1893 29.0203C42.5593 29.5303 43.2793 29.6403 43.7893 29.2603C44.2993 28.8903 44.4093 28.1703 44.0293 27.6603L39.5193 21.5103C39.5193 21.5103 39.4593 21.4303 39.4393 21.4003C39.4593 21.4203 39.4093 21.3703 39.3593 21.3303C39.3493 21.3203 39.3293 21.3103 39.3193 21.2903C39.2593 21.2403 39.2193 21.2103 39.1593 21.1803C39.1593 21.1803 39.1193 21.1603 39.0793 21.1403C39.0393 21.1203 38.9993 21.1003 38.9493 21.0803C38.8293 21.0503 38.7793 21.0403 38.7393 21.0303C38.7393 21.0303 38.6993 21.0303 38.6793 21.0203C38.6593 21.0203 38.6293 21.0203 38.6093 21.0203C38.5693 21.0203 38.5293 21.0203 38.4993 21.0203C38.4893 21.0203 38.4793 21.0203 38.4693 21.0203C38.3893 21.0303 38.3493 21.0403 38.3093 21.0503C38.3093 21.0503 38.2393 21.0703 38.2093 21.0803C38.1693 21.0903 38.1393 21.1103 38.1093 21.1303C38.0893 21.1303 38.0193 21.1703 37.9993 21.1803C37.9693 21.2003 37.9093 21.2403 37.8593 21.2803C37.8493 21.2903 37.8293 21.3003 37.8093 21.3203L32.1093 26.1803C31.6293 26.5903 31.5693 27.3103 31.9793 27.7903C32.3893 28.2703 33.1093 28.3303 33.5893 27.9203L35.4493 26.3303C35.7793 26.0503 36.2593 26.0103 36.6293 26.2403C36.9993 26.4703 37.1793 26.9203 37.0593 27.3403C36.1293 30.8603 33.8793 33.8003 30.7293 35.6203C27.5793 37.4503 23.9093 37.9403 20.3993 37.0003C18.0793 36.3803 15.9593 35.1603 14.2593 33.4703C14.0393 33.2503 13.7493 33.1403 13.4493 33.1403V33.1603Z" fill="#323232"/>
<path d="M9.39926 28.9199C9.28926 28.9199 9.17926 28.9199 9.07926 28.8999C9.03926 28.8999 8.97926 28.8899 8.93926 28.8699C8.81926 28.8499 8.68926 28.8199 8.56926 28.7899C8.49926 28.7699 8.43926 28.7499 8.36926 28.7299C8.22926 28.6799 8.08926 28.6199 7.95926 28.5499C7.92926 28.5399 7.86926 28.5099 7.82926 28.4799C7.65926 28.3799 7.48926 28.2599 7.33926 28.1299C7.30926 28.0999 7.25926 28.0499 7.21926 28.0099C7.15926 27.9599 7.04926 27.8399 6.93926 27.7099C6.91926 27.6899 6.90926 27.6699 6.88926 27.6499L2.34926 21.4599C1.32926 20.0599 1.62926 18.0899 3.01926 17.0699C4.39926 16.0599 6.32926 16.3399 7.36926 17.6799C8.26926 15.3399 9.64926 13.1999 11.4293 11.4199C14.8093 8.03992 19.3093 6.16992 24.0893 6.16992C28.8693 6.16992 33.3693 8.02992 36.7593 11.4199C37.9793 12.6399 37.9893 14.6399 36.7593 15.8599C36.1693 16.4499 35.3793 16.7799 34.5393 16.7799C33.6993 16.7799 32.9093 16.4499 32.3193 15.8599C30.8693 14.4099 29.0593 13.3699 27.0793 12.8399C24.0793 12.0399 20.9493 12.4599 18.2693 14.0199C16.6193 14.9799 15.2693 16.2899 14.2793 17.8499C14.6393 17.7499 15.0193 17.6999 15.4093 17.7399C16.2493 17.8099 17.0093 18.1899 17.5493 18.8299C18.0893 19.4699 18.3593 20.2799 18.2893 21.1199C18.2193 21.9599 17.8393 22.7199 17.1993 23.2599L11.4593 28.1499C11.4593 28.1499 11.4193 28.1799 11.3993 28.1999C11.2693 28.2999 11.1293 28.3999 10.9893 28.4799C10.9593 28.4999 10.8493 28.5499 10.8093 28.5699C10.6993 28.6199 10.5893 28.6699 10.4693 28.7199C10.4693 28.7199 10.4593 28.7199 10.4493 28.7199C10.3893 28.7399 10.3193 28.7599 10.2493 28.7799C10.1393 28.8099 10.0293 28.8299 9.91926 28.8499C9.86926 28.8599 9.81926 28.8699 9.76926 28.8799C9.63926 28.8999 9.50926 28.8999 9.38926 28.8999L9.39926 28.9199ZM9.32926 26.9199C9.32926 26.9199 9.37926 26.9199 9.39926 26.9199C9.43926 26.9199 9.47926 26.9199 9.50926 26.9199C9.51926 26.9199 9.52926 26.9199 9.53926 26.9199C9.61926 26.9099 9.65926 26.8999 9.69926 26.8899C9.69926 26.8899 9.76926 26.8699 9.79926 26.8599C9.83926 26.8499 9.86926 26.8299 9.89926 26.8099C9.91926 26.8099 9.98926 26.7699 10.0093 26.7599C10.0393 26.7399 10.0993 26.6999 10.1493 26.6599C10.1593 26.6499 10.1793 26.6399 10.1993 26.6199L15.8993 21.7599C16.3793 21.3499 16.4393 20.6299 16.0293 20.1499C15.6193 19.6699 14.8993 19.6099 14.4193 20.0199L12.5593 21.6099C12.2293 21.8999 11.7493 21.9299 11.3793 21.6999C11.0093 21.4699 10.8293 21.0199 10.9493 20.5999C11.8793 17.0799 14.1293 14.1399 17.2793 12.3199C20.4293 10.4899 24.0993 9.99992 27.6093 10.9399C29.9293 11.5599 32.0493 12.7799 33.7493 14.4699C33.9593 14.6799 34.2493 14.7999 34.5593 14.7999C34.8593 14.7999 35.1493 14.6799 35.3693 14.4699C35.8093 14.0299 35.8093 13.2999 35.3693 12.8599C32.3593 9.84992 28.3693 8.19992 24.1193 8.19992C19.8693 8.19992 15.8693 9.84992 12.8693 12.8599C10.8593 14.8699 9.42926 17.3799 8.71926 20.1199C8.61926 20.4899 8.31926 20.7799 7.93926 20.8499C7.55926 20.9199 7.16926 20.7699 6.93926 20.4599L5.81926 18.9399C5.44926 18.4299 4.72926 18.3199 4.21926 18.6999C3.70926 19.0699 3.59926 19.7899 3.97926 20.2999L8.48926 26.4499C8.48926 26.4499 8.54926 26.5299 8.56926 26.5599C8.54926 26.5399 8.59926 26.5899 8.64926 26.6299C8.65926 26.6399 8.67926 26.6499 8.68926 26.6699C8.74926 26.7199 8.78926 26.7499 8.84926 26.7799C8.84926 26.7699 8.88926 26.7999 8.92926 26.8199C8.96926 26.8399 9.00926 26.8599 9.05926 26.8799C9.17926 26.9099 9.22926 26.9199 9.26926 26.9299C9.26926 26.9299 9.30926 26.9299 9.32926 26.9399V26.9199Z" fill="#323232"/>
</svg>
