<svg width="48" height="48" viewBox="0 0 48 48" fill="none" xmlns="http://www.w3.org/2000/svg">
<path d="M16.4403 4.39012C17.1703 4.39012 17.8703 4.53012 18.5203 4.76012C16.1703 5.61012 14.4903 7.86012 14.4903 10.5001C14.4903 13.1401 16.1703 15.3901 18.5203 16.2401C17.8703 16.4801 17.1703 16.6101 16.4403 16.6101C13.0603 16.6101 10.3203 13.8701 10.3203 10.4901C10.3203 7.11012 13.0603 4.37012 16.4403 4.37012V4.39012Z" fill="#8DE2E0"/>
<path d="M16.4403 17.6199C12.5203 17.6199 9.32031 14.4299 9.32031 10.4999C9.32031 6.56988 12.5103 3.37988 16.4403 3.37988C20.3703 3.37988 23.5603 6.56988 23.5603 10.4999C23.5603 14.4299 20.3703 17.6199 16.4403 17.6199ZM16.4403 5.38988C13.6203 5.38988 11.3203 7.67988 11.3203 10.5099C11.3203 13.3399 13.6103 15.6299 16.4403 15.6299C19.2703 15.6299 21.5603 13.3399 21.5603 10.5099C21.5603 7.67988 19.2703 5.38988 16.4403 5.38988Z" fill="#323232"/>
<path d="M31.5595 12.6001C32.2895 12.6001 32.9895 12.7401 33.6395 12.9701C31.2895 13.8201 29.6095 16.0701 29.6095 18.7101C29.6095 21.3601 31.2895 23.6001 33.6395 24.4501C32.9895 24.6901 32.2895 24.8201 31.5595 24.8201C28.1795 24.8201 25.4395 22.0801 25.4395 18.7001C25.4395 15.3201 28.1795 12.5801 31.5595 12.5801V12.6001Z" fill="#8DE2E0"/>
<path d="M31.5595 25.8298C27.6395 25.8298 24.4395 22.6398 24.4395 18.7098C24.4395 14.7798 27.6295 11.5898 31.5595 11.5898C35.4895 11.5898 38.6795 14.7798 38.6795 18.7098C38.6795 22.6398 35.4895 25.8298 31.5595 25.8298ZM31.5595 13.5998C28.7395 13.5998 26.4395 15.8898 26.4395 18.7198C26.4395 21.5498 28.7295 23.8398 31.5595 23.8398C34.3895 23.8398 36.6795 21.5498 36.6795 18.7198C36.6795 15.8898 34.3895 13.5998 31.5595 13.5998Z" fill="#323232"/>
<path d="M43.8493 26.3499C43.0793 24.9899 41.3393 24.4999 39.9893 25.2599L32.9993 29.0199C32.3993 28.1899 31.3893 27.6799 30.4393 27.6799H28.1093C24.4593 27.6799 23.0393 27.3599 21.7993 27.0799C20.8593 26.8699 19.9693 26.6699 18.3993 26.6699C14.6293 26.6699 11.0993 29.9999 9.2393 32.1199L9.0093 31.8899C8.6193 31.4999 7.9893 31.4999 7.5993 31.8899L4.0693 35.4199C3.8793 35.6099 3.7793 35.8599 3.7793 36.1299C3.7793 36.3999 3.8893 36.6499 4.0693 36.8399L12.5193 45.2899C12.7193 45.4899 12.9693 45.5799 13.2293 45.5799C13.4893 45.5799 13.7393 45.4799 13.9393 45.2899L17.4693 41.7599C17.6593 41.5699 17.7593 41.3199 17.7593 41.0499C17.7593 40.7799 17.6493 40.5299 17.4693 40.3399L17.0793 39.9499C18.2693 38.8599 19.9593 37.8099 22.1093 37.8099L29.4193 37.7799C30.4393 37.7799 31.3993 37.5699 32.2893 37.1799C36.0693 35.5099 42.8493 30.2599 43.1293 30.0299C44.2393 29.1599 44.5593 27.5899 43.8593 26.3599L43.8493 26.3499ZM13.2193 43.1499L6.1893 36.1199L8.3093 33.9999L15.3393 41.0299L13.2193 43.1499ZM41.8893 28.4399C39.5293 30.2699 34.3093 34.0799 31.4593 35.3399C30.8293 35.6199 30.1393 35.7599 29.3893 35.7699L22.0793 35.7999C19.1893 35.7999 16.9893 37.2799 15.6493 38.5199L10.6493 33.5199C12.1393 31.8199 15.3193 28.6599 18.3893 28.6599C19.7393 28.6599 20.4493 28.8199 21.3493 29.0199C22.6293 29.3099 24.2293 29.6699 28.0993 29.6699H30.4293C30.9193 29.6699 31.5193 30.0999 31.5193 30.5899C31.5193 30.8799 31.3193 31.0999 31.1993 31.1999C30.9793 31.3899 30.6893 31.5099 30.4093 31.5099L25.1993 31.6699C24.6493 31.6899 24.2093 32.1499 24.2293 32.6999C24.2493 33.2499 24.7293 33.6799 25.2593 33.6699L30.4393 33.5099C31.2093 33.5499 31.9293 33.2199 32.5193 32.7099C33.0493 32.2499 33.3793 31.6599 33.4793 31.0199L40.9493 26.9999C41.3593 26.7699 41.8793 26.9199 42.1193 27.3299C42.3293 27.7099 42.2393 28.1699 41.8993 28.4299L41.8893 28.4399Z" fill="#323232"/>
</svg>
