<svg width="48" height="48" viewBox="0 0 48 48" fill="none" xmlns="http://www.w3.org/2000/svg">
<path d="M8.97995 22.1899C7.95995 22.1899 6.92995 21.8799 6.03995 21.2299C3.80995 19.5999 3.30995 16.4599 4.92995 14.2299C5.71995 13.1499 6.87995 12.4399 8.19995 12.2299C9.51995 12.0199 10.8499 12.3399 11.9299 13.1299C13.0099 13.9199 13.7199 15.0799 13.9299 16.3999C14.1399 17.7199 13.8199 19.0499 13.0299 20.1299C12.0499 21.4799 10.5199 22.1899 8.96995 22.1899H8.97995ZM7.21995 19.6199C8.55995 20.5999 10.4499 20.2999 11.4299 18.9599C11.8999 18.3099 12.0899 17.5099 11.9699 16.7199C11.8499 15.9299 11.4199 15.2299 10.7699 14.7499C10.1199 14.2799 9.31995 14.0799 8.52995 14.2099C7.73995 14.3299 7.03995 14.7599 6.55995 15.4099C5.57995 16.7499 5.87995 18.6399 7.21995 19.6199Z" fill="#323232"/>
<path d="M16.1498 37.2101C15.7698 37.2101 15.3998 36.9901 15.2298 36.6101C15.1598 36.4401 13.4398 32.5301 12.9998 31.0901C12.2598 28.6301 12.5498 24.9501 13.2798 23.0501C13.6998 21.9601 15.4798 19.4601 15.6798 19.1801C15.8398 18.9601 16.0698 18.8201 16.3298 18.7801C16.5898 18.7401 16.8598 18.8001 17.0798 18.9601L25.6798 25.2201C26.1298 25.5501 26.2298 26.1701 25.8998 26.6201C25.5798 27.0701 24.9498 27.1701 24.4998 26.8401L16.7198 21.1801C16.0698 22.1401 15.3198 23.2901 15.1398 23.7801C14.5398 25.3301 14.3198 28.5501 14.9098 30.5301C15.3098 31.8501 17.0298 35.7801 17.0498 35.8101C17.2698 36.3201 17.0498 36.9101 16.5398 37.1301C16.4098 37.1901 16.2698 37.2101 16.1398 37.2101H16.1498Z" fill="#323232"/>
<path d="M20.2109 20.2501C19.8209 20.2501 19.4509 20.0201 19.2909 19.6401C19.0709 19.1301 19.3109 18.5401 19.8109 18.3301C19.9409 18.2801 20.1009 18.2101 20.2909 18.1401C21.1809 17.8101 22.6809 17.2601 23.2809 15.9901C24.1109 14.2401 23.9909 12.9501 23.8709 11.5801C23.8509 11.3501 23.8309 11.1101 23.8109 10.8801C23.7709 10.3301 24.1909 9.85011 24.7409 9.81011C25.2909 9.76011 25.7709 10.1901 25.8109 10.7401C25.8309 10.9601 25.8509 11.1801 25.8709 11.4001C26.0109 12.9001 26.1609 14.6101 25.0909 16.8501C24.1309 18.8601 22.0809 19.6201 20.9809 20.0201C20.8309 20.0801 20.7009 20.1201 20.6009 20.1701C20.4709 20.2201 20.3409 20.2501 20.2109 20.2501Z" fill="#323232"/>
<path d="M43.0201 31.6199C42.8501 31.6199 42.6701 31.5799 42.5101 31.4799C39.3901 29.6199 36.0201 27.9999 32.5901 28.7299C31.8201 28.8999 29.0501 29.5699 24.5701 30.6899C22.7101 31.1599 20.7401 30.7799 19.1901 29.6399L15.9401 27.2699C15.4901 26.9399 15.3901 26.3199 15.7201 25.8699C16.0501 25.4199 16.6701 25.3299 17.1201 25.6499L20.3701 28.0199C21.4501 28.7999 22.8001 29.0599 24.0901 28.7399C28.6501 27.5999 31.3701 26.9299 32.1701 26.7599C36.2901 25.8699 40.2301 27.7699 43.5301 29.7399C44.0001 30.0199 44.1601 30.6399 43.8801 31.1099C43.6901 31.4199 43.3601 31.5999 43.0201 31.5999V31.6199Z" fill="#323232"/>
<path d="M33.1197 45.9002C32.6497 45.9002 32.2297 45.5702 32.1397 45.0902C31.7997 43.3402 31.5797 41.9202 31.4097 40.7802C31.0897 38.6902 30.8897 37.4302 30.3397 36.2702C29.8997 35.3302 27.7197 34.0002 26.3097 33.3502C25.8097 33.1202 25.5897 32.5302 25.8197 32.0202C26.0497 31.5202 26.6397 31.3002 27.1397 31.5202C27.5597 31.7102 31.2197 33.4302 32.1497 35.4102C32.8197 36.8302 33.0397 38.2802 33.3797 40.4602C33.5497 41.5802 33.7697 42.9802 34.0997 44.7002C34.1997 45.2402 33.8497 45.7702 33.3097 45.8702C33.2497 45.8802 33.1797 45.8902 33.1197 45.8902V45.9002Z" fill="#323232"/>
<path d="M15.4395 12.9201C14.8895 12.9201 14.4395 12.4701 14.4395 11.9201V3.1001C14.4395 2.5501 14.8895 2.1001 15.4395 2.1001C15.9895 2.1001 16.4395 2.5501 16.4395 3.1001V11.9201C16.4395 12.4701 15.9895 12.9201 15.4395 12.9201Z" fill="#8DE2E0"/>
<path d="M29.9902 17.3201C29.4402 17.3201 28.9902 16.8701 28.9902 16.3201V4.8501C28.9902 4.3001 29.4402 3.8501 29.9902 3.8501C30.5402 3.8501 30.9902 4.3001 30.9902 4.8501V16.3301C30.9902 16.8801 30.5402 17.3301 29.9902 17.3301V17.3201Z" fill="#8DE2E0"/>
<path d="M36.25 22.6202C35.7 22.6202 35.25 22.1702 35.25 21.6202V8.7002C35.25 8.1502 35.7 7.7002 36.25 7.7002C36.8 7.7002 37.25 8.1502 37.25 8.7002V21.6202C37.25 22.1702 36.8 22.6202 36.25 22.6202Z" fill="#8DE2E0"/>
</svg>
