<svg width="48" height="48" viewBox="0 0 48 48" fill="none" xmlns="http://www.w3.org/2000/svg">
<path d="M28.3996 40.8501H19.5996C19.0496 40.8501 18.5996 40.4001 18.5996 39.8501C18.5996 39.3001 19.0496 38.8501 19.5996 38.8501H28.3996C28.9496 38.8501 29.3996 39.3001 29.3996 39.8501C29.3996 40.4001 28.9496 40.8501 28.3996 40.8501Z" fill="#323232"/>
<path d="M32.8005 45.25H15.2005C13.1905 45.25 11.5605 43.62 11.5605 41.61V6.39C11.5605 4.38 13.1905 2.75 15.2005 2.75H32.8105C34.8205 2.75 36.4505 4.38 36.4505 6.39V41.61C36.4505 43.62 34.8205 45.25 32.8105 45.25H32.8005ZM15.2005 4.75C14.3005 4.75 13.5605 5.49 13.5605 6.39V41.61C13.5605 42.51 14.3005 43.25 15.2005 43.25H32.8105C33.7105 43.25 34.4505 42.51 34.4505 41.61V6.39C34.4505 5.49 33.7105 4.75 32.8105 4.75H15.2005Z" fill="#323232"/>
<path fill-rule="evenodd" clip-rule="evenodd" d="M15.3496 20.4801V8.15014C15.3496 7.18014 16.1396 6.39014 17.1096 6.39014H24.4396L15.3496 20.4801Z" fill="#8DE2E0"/>
</svg>
