<svg width="48" height="48" viewBox="0 0 48 48" fill="none" xmlns="http://www.w3.org/2000/svg">
<path d="M24.1192 16.48H17.1692C16.1992 16.48 16.1992 15.78 16.1992 15.78V8.70996H20.9792C21.4292 8.70996 21.8192 8.99996 21.9592 9.42996L24.1292 16.47L24.1192 16.48Z" fill="#8DE2E0"/>
<path d="M38.5591 31.48C36.9391 31.48 35.6191 32.8 35.6191 34.42C35.6191 36.04 36.9391 37.36 38.5591 37.36C40.1791 37.36 41.4991 36.04 41.4991 34.42C41.4991 32.8 40.1791 31.48 38.5591 31.48ZM38.5591 35.35C38.0391 35.35 37.6191 34.93 37.6191 34.41C37.6191 33.89 38.0391 33.47 38.5591 33.47C39.0791 33.47 39.4991 33.89 39.4991 34.41C39.4991 34.93 39.0791 35.35 38.5591 35.35Z" fill="#323232"/>
<path d="M43.0792 29.5001V23.0301C43.0792 21.6901 42.5492 20.9101 42.1092 20.4801C41.1692 19.5801 39.9392 19.6001 39.8492 19.6101H39.1892V14.1601C39.1892 13.3901 38.5592 12.7601 37.7892 12.7601H37.4192V9.95009C37.4192 9.69009 37.3192 9.44009 37.1392 9.25009L35.0892 7.13009C34.7092 6.73009 34.0692 6.72009 33.6792 7.11009C33.2792 7.49009 33.2692 8.13009 33.6592 8.52009L35.4292 10.3501V12.7501H35.0592C34.2892 12.7501 33.6592 13.3801 33.6592 14.1501V19.6001H26.1392L25.0692 16.1001C25.0692 16.1001 25.0692 16.0701 25.0592 16.0601L22.9992 9.35009C22.6392 7.94009 21.4792 7.65009 21.0092 7.70009H12.0992H7.59917C5.86917 7.70009 5.24917 8.85009 5.24917 9.63009V21.6701C4.35917 22.5101 3.56917 23.4801 2.92917 24.5601C2.64917 25.0401 2.80917 25.6501 3.27917 25.9301C3.75917 26.2101 4.36917 26.0501 4.64917 25.5801C6.64917 22.1901 10.3292 20.0801 14.2592 20.0801C20.3992 20.0801 25.3992 25.0801 25.3992 31.2201C25.3992 31.7701 25.8492 32.2201 26.3992 32.2201H32.2892C32.1592 32.6001 32.0592 33.0001 31.9992 33.4101H26.0892C25.5392 33.4101 25.0892 33.8601 25.0892 34.4101C25.0892 34.9601 25.5392 35.4101 26.0892 35.4101H31.9992C32.4892 38.6201 35.2592 41.1001 38.6092 41.1001C42.2992 41.1001 45.2992 38.1001 45.2992 34.4101C45.2992 32.4701 44.4592 30.7201 43.1292 29.5001H43.0792ZM35.6392 14.7701H37.1892V19.6201H35.6392V14.7701ZM21.0492 9.91009L22.7592 15.4801H17.1892V9.71009H20.9692C20.9692 9.71009 21.0092 9.74009 21.0492 9.91009ZM7.20917 9.76009C7.20917 9.76009 7.36917 9.71009 7.55917 9.71009H11.0692V18.4801C9.69917 18.8201 8.39917 19.3801 7.20917 20.1301V9.76009ZM27.3192 30.2201C26.8092 23.4401 21.1292 18.0801 14.2192 18.0801C13.8292 18.0801 13.4492 18.1001 13.0692 18.1401V9.70009H15.1892V15.7701C15.1892 16.4301 15.7292 17.4701 17.1692 17.4701H23.3792L24.4292 20.9101C24.5592 21.3301 24.9492 21.6201 25.3892 21.6201H34.6492H38.1992H39.8892C39.8892 21.6201 40.4192 21.6201 40.7492 21.9401C40.9792 22.1601 41.0892 22.5301 41.0892 23.0301V28.2201C40.3092 27.9001 39.4592 27.7201 38.5692 27.7201C36.4692 27.7201 34.5892 28.7001 33.3692 30.2201H27.3292H27.3192ZM38.5592 39.1001C35.9692 39.1001 33.8692 37.0001 33.8692 34.4101C33.8692 31.8201 35.9692 29.7201 38.5592 29.7201C41.1492 29.7201 43.2492 31.8201 43.2492 34.4101C43.2492 37.0001 41.1492 39.1001 38.5592 39.1001Z" fill="#323232"/>
<path d="M14.2195 26.4399C11.5795 26.4399 9.43945 28.5799 9.43945 31.2199C9.43945 33.8599 11.5795 35.9999 14.2195 35.9999C16.8595 35.9999 18.9995 33.8599 18.9995 31.2199C18.9995 28.5799 16.8595 26.4399 14.2195 26.4399ZM14.2195 33.9999C12.6895 33.9999 11.4395 32.7499 11.4395 31.2199C11.4395 29.6899 12.6895 28.4399 14.2195 28.4399C15.7495 28.4399 16.9995 29.6899 16.9995 31.2199C16.9995 32.7499 15.7495 33.9999 14.2195 33.9999Z" fill="#323232"/>
<path d="M14.2182 21.9199C9.0882 21.9199 4.9082 26.0899 4.9082 31.2299C4.9082 36.3699 9.0782 40.5399 14.2182 40.5399C19.3582 40.5399 23.5282 36.3699 23.5282 31.2299C23.5282 26.0899 19.3582 21.9199 14.2182 21.9199ZM14.2182 38.5299C10.1882 38.5299 6.9082 35.2499 6.9082 31.2199C6.9082 27.1899 10.1882 23.9099 14.2182 23.9099C18.2482 23.9099 21.5282 27.1899 21.5282 31.2199C21.5282 35.2499 18.2482 38.5299 14.2182 38.5299Z" fill="#323232"/>
</svg>
