<svg width="24" height="24" viewBox="0 0 24 24" fill="none" xmlns="http://www.w3.org/2000/svg">
<path fill-rule="evenodd" clip-rule="evenodd" d="M22.8841 16.234L21.7417 11.9707L17.4784 13.1131L19.5169 14.2894C18.5342 17.5612 15.4991 19.9449 11.9072 19.9449C9.18582 19.9449 6.78403 18.5765 5.3523 16.4903L3.49486 16.9871C5.19896 19.8557 8.32857 21.7782 11.9072 21.7782C16.1769 21.7782 19.8073 19.0415 21.1402 15.2266L22.8841 16.234ZM19.8382 6.28047C18.0623 3.8223 15.1715 2.22266 11.9072 2.22266C7.9996 2.22266 4.62738 4.51488 3.06181 7.82805L1 6.63699L2.18503 11.0596L6.60762 9.87455L4.65691 8.74796C5.89959 5.98209 8.67847 4.05599 11.9072 4.05599C14.3051 4.05599 16.4548 5.11833 17.9115 6.79803L19.8382 6.28047ZM11.4604 6.375H12.4746L12.5996 6.5L12.599 7.666L12.6725 7.67914C13.8562 7.91183 14.6296 8.75266 14.7006 9.92531L14.706 10.1037V10.2675L14.581 10.3925H13.2677L13.1427 10.2675V10.0533C13.1427 9.3843 12.6976 8.94344 11.9805 8.94344C11.2568 8.94344 10.8313 9.31864 10.8313 9.88946C10.8313 10.2846 11.0763 10.6347 11.5196 10.8065L12.7543 11.2977C14.2013 11.8662 14.875 12.4946 14.875 13.7955C14.875 15.1618 13.9878 16.1408 12.599 16.3494L12.599 16.347L12.4893 16.3641C12.5262 16.3597 12.5628 16.3548 12.599 16.3494L12.5996 17.5L12.4746 17.625H11.4604L11.3354 17.5L11.335 16.321L11.2617 16.3101C10.0059 16.0812 9.20067 15.2495 9.13006 14.0675L9.125 13.8963V13.6569L9.25 13.5319H10.5632L10.6882 13.6569V13.9467C10.6882 14.6286 11.175 15.0566 11.9935 15.0566C12.8179 15.0566 13.3118 14.6097 13.3118 13.9341C13.3118 13.3785 13.0135 13.0511 12.3506 12.7777L11.1417 12.2991C9.93823 11.8267 9.28103 11.0853 9.28103 9.97766C9.28103 8.81411 10.087 7.90868 11.335 7.66782V7.668L11.4407 7.64919C11.4051 7.65487 11.3699 7.66109 11.335 7.66782L11.3354 6.5L11.4604 6.375Z" fill="#323232"/>
</svg>
