<svg width="24" height="24" viewBox="0 0 24 24" fill="none" xmlns="http://www.w3.org/2000/svg">
<path fill-rule="evenodd" clip-rule="evenodd" d="M22 10V6C22 4.9 21.1 4 20 4H4C2.9 4 2.01 4.9 2.01 6V10C3.11 10 4 10.9 4 12C4 13.1 3.11 14 2 14V18C2 19.1 2.9 20 4 20H20C21.1 20 22 19.1 22 18V14C20.9 14 20 13.1 20 12C20 10.9 20.9 10 22 10ZM20 8.54C18.81 9.23 18 10.53 18 12C18 13.47 18.81 14.77 20 15.46V18H4V15.46C5.19 14.77 6 13.47 6 12C6 10.52 5.2 9.23 4.01 8.54L4 6H20V8.54ZM14.34 15.9167L11.9748 14.403L9.60965 15.9261C9.25014 16.1532 8.78657 15.8221 8.9001 15.4058L9.60965 12.6811L7.4337 10.9025C7.10258 10.6282 7.27287 10.0889 7.70806 10.0605L10.5084 9.89969L11.5302 7.29801C11.691 6.90066 12.2586 6.90066 12.41 7.29801L13.4318 9.90915L16.2321 10.07C16.6578 10.0984 16.8376 10.6376 16.5065 10.912L14.3305 12.6906L15.0495 15.3963C15.163 15.8221 14.6995 16.1532 14.34 15.9167Z" fill="#323232"/>
</svg>
