<svg width="118" height="30" viewBox="0 0 118 30" fill="none" xmlns="http://www.w3.org/2000/svg">
<path d="M70.7447 7.92071C70.7447 9.40088 70.1192 10.5198 69.1236 11.0749L70.6831 13.5683H69.2645L67.9694 11.4273C67.802 11.4626 67.6346 11.4802 67.4496 11.4802C65.4936 11.4802 64.1544 10.1057 64.1544 7.92071V3.55947C64.1544 1.37445 65.4408 0 67.4496 0C69.4584 0 70.7447 1.37445 70.7447 3.55947V7.92071ZM65.3086 7.95595C65.3086 9.31278 66.0839 10.3172 67.4408 10.3172C68.7976 10.3172 69.5641 9.31278 69.5641 7.95595V3.52423C69.5641 2.1674 68.7976 1.163 67.4408 1.163C66.0839 1.163 65.3086 2.1674 65.3086 3.52423V7.95595Z" fill="#323232"/>
<path d="M73.4936 11.3129L76.6918 0.16748H77.8636L81.0971 11.3129H79.89L79.1588 8.74898H75.3438L74.6301 11.3129H73.4847H73.4936ZM75.661 7.63885H78.8768L77.2469 1.92078L75.661 7.63885Z" fill="#323232"/>
<path d="M90.6566 11.3129H89.6963L85.3438 2.69612V11.3129H84.2601V0.16748H85.2998L89.5729 8.65206V0.16748H90.6566V11.3129Z" fill="#323232"/>
<path d="M93.749 0.16748H100.19V1.33929H97.5464V11.3129H96.3834V1.33929H93.7402V0.16748H93.749Z" fill="#323232"/>
<path d="M101.635 11.3129L104.842 0.16748H106.013L109.247 11.3129H108.04L107.309 8.74898H103.494L102.78 11.3129H101.635ZM103.802 7.63885H107.018L105.388 1.92078L103.802 7.63885Z" fill="#323232"/>
<path d="M116.947 3.33921V3.06608C116.947 1.94714 116.234 1.0837 114.983 1.0837C113.731 1.0837 113.044 1.77974 113.044 2.76652C113.044 3.55066 113.529 4.10573 114.19 4.39648L115.837 5.14538C116.983 5.65639 118.26 6.3348 118.26 8.2467C118.26 10.1586 116.93 11.489 114.991 11.489C113.053 11.489 111.714 10.2819 111.714 8.35242V8.0793H112.859V8.4141C112.859 9.55066 113.635 10.3789 114.983 10.3789C116.331 10.3789 117.115 9.53304 117.115 8.39648C117.115 7.18943 116.339 6.71366 115.405 6.30837L113.987 5.6652C112.859 5.17181 111.925 4.36123 111.925 2.86344C111.925 1.18062 113.15 0 114.974 0C116.798 0 118.075 1.20705 118.075 3.13656V3.33921H116.947Z" fill="#323232"/>
<path d="M73.8989 18.6694L71.6082 29.8148H70.5509L68.7623 20.9954L67.009 29.8148H65.9518L63.661 18.6694H64.8064L66.5156 27.4448L68.2513 18.6694H69.3174L71.0531 27.4448L72.7623 18.6694H73.8725H73.8989Z" fill="#323232"/>
<path d="M78.3747 29.8148H77.2117V18.6694H78.3747V29.8148Z" fill="#323232"/>
<path d="M88.8328 29.8148H87.8724L83.52 21.1981V29.8148H82.4363V18.6694H83.4759L87.7491 27.154V18.6694H88.8328V29.8148Z" fill="#323232"/>
<path d="M94.0487 24.6958V28.6518H98.7359V29.8236H92.8945V18.6782H98.6214V19.85H94.0575V23.5505H98.2425V24.7047H94.0575L94.0487 24.6958Z" fill="#323232"/>
<path d="M53.106 0.0351562V29.9999" stroke="#323232" stroke-width="0.666551" stroke-miterlimit="10"/>
<path d="M11.3262 29.8591H41.7667L17.3703 5.35689C14.1192 2.1146 9.71387 0.17627 5.11475 0.17627H0.0134277L0.392282 1.17186L2.08391 5.60358L11.3262 29.8503V29.8591Z" fill="url(#paint0_linear_15605_2557)"/>
<path d="M2.08384 5.61238C5.41424 11.304 14.1631 11.9031 15.1147 20.7489C15.1499 21.1102 15.4319 21.4009 15.7931 21.4626C20.8327 22.2467 25.7402 24.326 30.0045 27.7445C30.0045 27.7445 30.0662 27.7798 30.1015 27.7798C30.1367 27.7798 30.1808 27.7622 30.2072 27.7357C30.2689 27.6741 30.2689 27.586 30.2072 27.5243C27.2556 24.423 23.6433 21.9384 19.5905 20.3084L18.357 19.815C17.7226 19.5595 17.2821 18.934 17.2997 18.2115C17.3702 15.5683 23.6257 16.1058 24.2512 14.8371L24.357 14.6168C23.0706 13.5155 21.5376 12.6873 19.8548 12.2291C19.8371 12.2908 19.8019 12.5992 20.1455 13.163C20.5156 13.771 19.7402 14.7313 18.6037 13.6917L18.5068 13.6036C10.075 5.85027 3.74023 9.86789 0.392212 1.18066L2.08384 5.61238Z" fill="white"/>
<path d="M22.4011 14.4671C22.4011 14.4671 21.0178 14.5376 20.1632 13.1543C20.4187 13.5684 20.1368 14.1411 19.5729 14.1499V16.2556C20.4804 15.9913 21.52 15.8327 22.3923 15.6477V14.4759L22.4011 14.4671Z" fill="url(#paint1_linear_15605_2557)"/>
<path d="M16.8416 21.6478C21.5112 22.5464 26.0398 24.5641 30.0045 27.7447C21.1587 20.1852 17.1235 21.5509 16.8416 21.6478Z" fill="url(#paint2_linear_15605_2557)"/>
<path d="M3.86358 6.00886C2.48913 5.03088 1.32613 3.59476 0.392212 1.18066L2.08384 5.61238C5.41424 11.304 14.1631 11.9031 15.1147 20.7489C14.1543 9.45379 9.19397 11.1454 3.86358 6.00886Z" fill="url(#paint3_linear_15605_2557)"/>
<defs>
<linearGradient id="paint0_linear_15605_2557" x1="26.4716" y1="29.7534" x2="6.16321" y2="0.0969725" gradientUnits="userSpaceOnUse">
<stop stop-color="#BE0000"/>
<stop offset="0.39" stop-color="#DD0000"/>
<stop offset="0.77" stop-color="#F60000"/>
<stop offset="1" stop-color="#FF0000"/>
</linearGradient>
<linearGradient id="paint1_linear_15605_2557" x1="20.8592" y1="16.3613" x2="21.1323" y2="13.2336" gradientUnits="userSpaceOnUse">
<stop offset="0.65" stop-color="white" stop-opacity="0"/>
<stop offset="0.69" stop-color="#ECECEC" stop-opacity="0.0529"/>
<stop offset="0.76" stop-color="#D6D6D6" stop-opacity="0.25"/>
<stop offset="0.81" stop-color="#C5C5C5" stop-opacity="0.5184"/>
<stop offset="0.87" stop-color="#B9B9B9" stop-opacity="0.7569"/>
<stop offset="0.91" stop-color="#B1B1B1" stop-opacity="0.9409"/>
<stop offset="0.95" stop-color="#AFAFAF"/>
</linearGradient>
<linearGradient id="paint2_linear_15605_2557" x1="16.8416" y1="24.6169" x2="30.0045" y2="24.6169" gradientUnits="userSpaceOnUse">
<stop stop-color="white" stop-opacity="0"/>
<stop offset="0.07" stop-color="#F3F3F3" stop-opacity="0.0225"/>
<stop offset="0.21" stop-color="#DEDEDE" stop-opacity="0.1681"/>
<stop offset="0.35" stop-color="#CDCDCD" stop-opacity="0.3844"/>
<stop offset="0.49" stop-color="#C0C0C0" stop-opacity="0.6241"/>
<stop offset="0.63" stop-color="#B6B6B6" stop-opacity="0.8281"/>
<stop offset="0.77" stop-color="#B0B0B0" stop-opacity="0.9604"/>
<stop offset="0.9" stop-color="#AFAFAF"/>
</linearGradient>
<linearGradient id="paint3_linear_15605_2557" x1="0.392212" y1="10.9604" x2="15.1147" y2="10.9604" gradientUnits="userSpaceOnUse">
<stop offset="0.25" stop-color="white" stop-opacity="0"/>
<stop offset="0.36" stop-color="#F6F6F6" stop-opacity="0.0121"/>
<stop offset="0.58" stop-color="#E0E0E0" stop-opacity="0.1444"/>
<stop offset="0.88" stop-color="#BDBDBD" stop-opacity="0.6724"/>
<stop offset="1" stop-color="#AFAFAF"/>
</linearGradient>
</defs>
</svg>
