<svg width="24" height="24" viewBox="0 0 24 24" fill="none" xmlns="http://www.w3.org/2000/svg">
<g clip-path="url(#clip0_16335_1156)">
<path d="M23.9812 12.6634C24.3477 6.04613 19.2805 0.384665 12.6632 0.0181779C6.0459 -0.34831 0.384442 4.71896 0.0179548 11.3362C-0.348533 17.9535 4.71873 23.615 11.336 23.9815C17.9533 24.3479 23.6147 19.2807 23.9812 12.6634Z" fill="white"/>
<mask id="mask0_16335_1156" style="mask-type:luminance" maskUnits="userSpaceOnUse" x="-1" y="0" width="25" height="25">
<path d="M23.9812 12.6639C24.3477 6.04662 19.2805 0.385154 12.6632 0.0186662C6.0459 -0.347821 0.384442 4.71945 0.0179548 11.3367C-0.348533 17.954 4.71873 23.6155 11.336 23.9819C17.9533 24.3484 23.6147 19.2812 23.9812 12.6639Z" fill="white"/>
</mask>
<g mask="url(#mask0_16335_1156)">
<path d="M30.0007 0H-5.99933V24H30.0007V0Z" fill="white"/>
<path d="M30.0007 12H-5.99933V24H30.0007V12Z" fill="#007C29"/>
<path fill-rule="evenodd" clip-rule="evenodd" d="M14.8438 14.0207C14.7153 14.0934 14.6007 14.1968 14.5056 14.3086C14.3561 14.4875 14.0906 14.964 14.3282 15.1652H14.3296C14.3743 15.2044 14.4302 15.2197 14.4875 15.2225C14.7823 15.2365 15.0996 15.3148 15.3259 15.5132C15.4042 15.5789 15.4922 15.632 15.5873 15.6697C15.7606 15.7396 15.9101 15.857 16.0191 16.0051C16.1267 16.1491 16.1952 16.3223 16.2147 16.511C16.2175 16.5417 16.1868 16.5543 16.17 16.5362C16.0624 16.4244 15.9338 16.3349 15.7899 16.2734C15.6012 16.1924 15.393 16.1644 15.189 16.191C15.1596 16.2441 15.1261 16.2972 15.0884 16.3489C14.9235 16.5725 14.5867 16.8813 14.3212 16.9889C13.9341 17.1455 13.5707 17.3593 13.2451 17.6192C13.2787 17.6849 13.3304 17.7394 13.3919 17.7785C13.4729 17.8302 13.5707 17.8526 13.6672 17.8414C13.7049 17.8372 13.737 17.8246 13.7734 17.8176C13.8949 17.7981 14.0221 17.8386 14.1088 17.928C14.1367 17.9574 14.1605 17.9895 14.1772 18.0245C14.3156 18.0454 14.4386 18.1153 14.528 18.2159C14.6621 18.3682 14.7069 18.5792 14.6482 18.7735C14.644 18.7875 14.6286 18.7959 14.6146 18.7917C14.6062 18.7889 14.6007 18.7833 14.5979 18.7763C14.5573 18.6785 14.4889 18.5946 14.4022 18.5373C14.3212 18.4828 14.2247 18.4507 14.1199 18.4479C14.1157 18.4521 14.1115 18.4577 14.1074 18.4619C14.0389 18.5303 13.9439 18.5737 13.839 18.5737C13.7552 18.5737 13.6727 18.5457 13.6057 18.494C13.5805 18.501 13.5554 18.5052 13.5288 18.5052C13.4533 18.5052 13.3849 18.4744 13.3346 18.4241C13.3136 18.4032 13.2968 18.3794 13.2829 18.3543H13.2787C13.2004 18.3612 13.1249 18.3361 13.0676 18.283C13.0243 18.2439 12.9936 18.1908 12.9838 18.1307C12.7434 18.1558 12.5142 18.2439 12.3172 18.3892C12.2152 18.4661 12.0922 18.5066 11.9636 18.5066C11.8602 18.5066 11.7596 18.48 11.6702 18.4283C11.5849 18.4814 11.4815 18.5024 11.3795 18.4856C11.3655 18.5108 11.3474 18.5345 11.3264 18.5541C11.2454 18.6351 11.1266 18.6687 11.0148 18.6421C11.0064 18.6533 10.9966 18.6645 10.9854 18.6757C10.8652 18.7959 10.6668 18.7959 10.5466 18.6757C10.5368 18.6659 10.5285 18.6561 10.5201 18.6463C10.3272 18.6575 10.1483 18.7497 10.0282 18.9021C10.0184 18.9132 10.0016 18.916 9.99043 18.9063C9.98624 18.9035 9.98345 18.8993 9.98205 18.8951C9.96249 18.8392 9.95131 18.7819 9.95131 18.7218C9.95131 18.5457 10.0421 18.3864 10.1875 18.2942C10.1246 18.2704 10.0701 18.2313 10.0282 18.181C10.0016 18.1488 9.98065 18.1139 9.96528 18.0762L9.92196 18.0734C9.70954 18.0734 9.5153 18.1908 9.41608 18.378C9.40909 18.3906 9.39232 18.3962 9.37974 18.3892C9.37276 18.385 9.36717 18.378 9.36577 18.371C9.35459 18.3221 9.3476 18.2732 9.3476 18.2229C9.3476 17.8777 9.62709 17.5982 9.97227 17.5982C10.0198 17.5982 10.0673 17.6038 10.1134 17.615C10.1302 17.6038 10.147 17.5954 10.1637 17.587C10.133 17.5284 10.1162 17.4641 10.1162 17.397C10.1162 17.369 10.119 17.3425 10.1246 17.3159C10.0911 17.3048 10.0561 17.2992 10.0212 17.2992C9.89541 17.2992 9.78082 17.3704 9.72631 17.4822C9.71933 17.4948 9.70395 17.5004 9.68998 17.4948C9.68299 17.492 9.6788 17.4864 9.67601 17.4794C9.65644 17.4277 9.64666 17.3718 9.64666 17.3173C9.64666 17.0574 9.85628 16.8478 10.1162 16.8478C10.2476 16.8478 10.3719 16.9023 10.4614 17.0001C10.4795 16.9973 10.4991 16.9959 10.5173 16.9959C10.6766 16.9959 10.773 17.07 10.8638 17.193C10.9938 17.3704 11.1811 17.4766 11.4047 17.4766C11.557 17.4766 11.7331 17.4166 11.8421 17.309C11.9105 17.2433 11.9888 17.2097 12.0838 17.2055C12.102 17.1329 12.1453 17.0686 12.204 17.0211C12.2669 16.9708 12.348 16.9414 12.436 16.94C12.4639 16.8702 12.5129 16.8101 12.5743 16.7667C12.6386 16.722 12.7169 16.6955 12.8007 16.6941C12.8343 16.5976 12.9027 16.5152 12.9936 16.4663C12.9279 16.4383 12.8678 16.3992 12.8147 16.3489C12.5688 16.4537 12.2683 16.4174 12.0573 16.2497C11.9343 16.1519 11.8505 16.0121 11.8435 15.843C11.5668 15.7871 11.3222 15.5677 11.3222 15.2701C11.3222 15.1499 11.3627 15.0395 11.434 14.9458C11.3599 14.978 11.2831 15.0017 11.2034 15.0171C11.0832 15.0395 10.9589 15.0409 10.8387 15.0157C10.8038 15.0758 10.7632 15.1317 10.7185 15.1834C10.5466 15.3791 10.3091 15.5006 10.0463 15.5006C9.92615 15.5006 9.80876 15.4755 9.69837 15.4252C9.68719 15.4405 9.67601 15.4559 9.66343 15.4713C9.50831 15.6683 9.2945 15.7899 9.05693 15.7899C9.0164 15.7899 8.97588 15.7857 8.93535 15.7787C8.92836 16.1253 8.8557 16.4663 8.72014 16.7849C8.71595 16.7947 8.70756 16.8003 8.69638 16.8017C8.68101 16.8017 8.66983 16.7905 8.66844 16.7751C8.66564 16.6382 8.60415 16.3293 8.50214 16.0974C8.46021 16.0009 8.35401 15.7843 8.21985 15.8221C8.16116 15.8304 8.09408 15.9576 8.05076 16.0345C7.90402 16.2944 7.74332 16.5459 7.57003 16.7849C7.32827 17.1175 7.06136 17.4319 6.77208 17.7226C6.93698 17.8456 7.17176 17.8945 7.3674 17.8302C7.50295 17.7869 7.65248 17.8218 7.7531 17.9224C7.78245 17.9518 7.8076 17.9853 7.82577 18.0231C7.96412 18.044 8.08709 18.1139 8.17513 18.2145C8.30929 18.3668 8.35401 18.5778 8.29531 18.7721C8.29112 18.7861 8.27575 18.7945 8.26177 18.7903C8.25339 18.7875 8.2478 18.7819 8.24501 18.7749C8.20448 18.6771 8.136 18.5932 8.04936 18.5359C7.96831 18.4814 7.87188 18.4493 7.76707 18.4465C7.6972 18.5233 7.59658 18.5723 7.48618 18.5723C7.39954 18.5723 7.31849 18.5429 7.25281 18.4926C7.22765 18.4996 7.2025 18.5038 7.17595 18.5038C7.07254 18.5038 6.97751 18.4451 6.92999 18.3529C6.78606 18.3668 6.65749 18.2718 6.63094 18.1307C6.53312 18.1404 6.43949 18.1614 6.35005 18.1908C6.2103 18.2369 6.08034 18.3039 5.96435 18.3892C5.86233 18.4661 5.73936 18.5066 5.61079 18.5066C5.50738 18.5066 5.40676 18.48 5.31732 18.4283C5.25444 18.4688 5.17898 18.4912 5.09932 18.4912C5.07556 18.4912 5.05181 18.4884 5.02805 18.4856C5.01407 18.5108 4.99591 18.5345 4.97495 18.5541C4.91485 18.6142 4.8324 18.6519 4.74017 18.6519C4.71502 18.6519 4.68847 18.6491 4.66331 18.6435C4.60462 18.7218 4.51378 18.7679 4.41596 18.7679C4.33072 18.7679 4.25246 18.733 4.19656 18.6771C4.18678 18.6673 4.17839 18.6575 4.17001 18.6477C4.07498 18.6533 3.98415 18.6785 3.90309 18.719C3.81505 18.7637 3.73819 18.8266 3.6781 18.9021C3.66832 18.9132 3.65155 18.916 3.64037 18.9063C3.63618 18.9035 3.63338 18.8993 3.63199 18.8951C3.61242 18.8392 3.60124 18.7819 3.60124 18.7218C3.60124 18.582 3.65714 18.4563 3.74937 18.3654C3.77592 18.3389 3.80527 18.3151 3.83881 18.2942C3.7354 18.2564 3.65574 18.1754 3.61661 18.0762C3.49224 18.0706 3.38743 18.0901 3.27843 18.1558C3.18899 18.2089 3.11632 18.2872 3.06741 18.378C3.06042 18.3906 3.04365 18.3962 3.03108 18.3892C3.02409 18.385 3.0185 18.378 3.0171 18.371C3.00592 18.3221 2.99894 18.2732 2.99894 18.2229C2.99894 17.8777 3.27843 17.5982 3.6236 17.5982C3.67111 17.5982 3.71863 17.6038 3.76474 17.615C3.78151 17.6038 3.79828 17.5954 3.81505 17.587C3.77033 17.5046 3.75636 17.4082 3.77592 17.3159C3.74238 17.3048 3.70745 17.2992 3.67251 17.2992C3.54674 17.2992 3.43215 17.3704 3.37765 17.4822C3.37066 17.4948 3.35529 17.5004 3.34131 17.4948C3.33433 17.492 3.33013 17.4864 3.32734 17.4794C3.30777 17.4277 3.29799 17.3718 3.29799 17.3173C3.29799 17.0574 3.50761 16.8478 3.76754 16.8478C3.8989 16.8478 4.02327 16.9023 4.11271 17.0001C4.13088 16.9973 4.15044 16.9959 4.16861 16.9959C4.32792 16.9959 4.42435 17.07 4.51518 17.193C4.69825 17.4445 5.0001 17.5815 5.31034 17.5535C5.42213 17.5074 5.52694 17.4501 5.62616 17.383C5.90286 17.193 6.11807 16.9219 6.24105 16.6032C6.17956 16.4789 6.19772 16.3293 6.27878 16.2078C6.3235 16.1407 6.38778 16.0806 6.46604 16.0289C6.42691 15.9632 6.40595 15.8919 6.40595 15.8179C6.40595 15.6432 6.52333 15.502 6.66168 15.4084C6.62954 15.3874 6.5974 15.3651 6.56665 15.3427C6.47163 15.3693 6.37241 15.3902 6.27179 15.4042C6.09152 15.4294 5.91404 15.4322 5.73377 15.4154C5.74774 15.6683 5.68346 15.9073 5.53533 16.1155C5.40536 16.2972 5.2209 16.4383 5.00429 16.511C4.99032 16.5152 4.97495 16.5082 4.97075 16.4942C4.96656 16.4831 4.97075 16.4719 4.97914 16.4649C5.13146 16.3209 5.2181 16.1225 5.2181 15.9129C5.2181 15.7033 5.13006 15.4992 4.97355 15.3553C4.504 14.9612 4.08337 14.5098 3.72422 14.0123C3.38044 13.5358 3.09117 13.016 2.86757 12.4626C2.8522 12.4905 2.83264 12.5185 2.81168 12.5436C2.77255 12.5925 2.73901 12.6484 2.71385 12.7085C2.66494 12.8245 2.64817 12.9642 2.67333 13.0886C2.71106 13.2815 2.59786 13.4589 2.43017 13.5204C2.3561 13.7985 2.08779 13.9802 1.80271 13.9495C1.74541 13.9425 1.68812 13.9285 1.63501 13.9047C1.62104 13.8991 1.61545 13.8838 1.62104 13.8698C1.62383 13.8628 1.63082 13.8572 1.63781 13.8544C1.84044 13.7957 1.98997 13.6238 2.01792 13.4142C1.94944 13.3374 1.91171 13.2326 1.92429 13.1208C1.93407 13.0369 1.9704 12.9587 2.0291 12.8986C2.01233 12.7993 2.05006 12.7001 2.12832 12.6372C2.15068 12.6191 2.17723 12.6051 2.20378 12.5939C2.20378 12.5143 2.23732 12.4402 2.29741 12.3885C2.34073 12.3508 2.39663 12.3256 2.45812 12.3214C2.45812 12.0797 2.39663 11.8421 2.27505 11.6297C2.21077 11.5193 2.18422 11.3921 2.19819 11.2663C2.20937 11.1643 2.2471 11.0665 2.30859 10.9826C2.27645 10.9156 2.26108 10.8373 2.27086 10.7577C2.27365 10.7339 2.27785 10.7101 2.28483 10.6878C2.26108 10.671 2.24011 10.6501 2.22195 10.6277C2.16884 10.562 2.14089 10.4754 2.15068 10.3845C2.15347 10.3594 2.15906 10.3328 2.16745 10.3091C2.15627 10.2993 2.14648 10.2881 2.1381 10.2769C2.08919 10.2154 2.06264 10.1344 2.07242 10.0491C2.0836 9.95412 2.1367 9.86887 2.21915 9.81856C2.22474 9.72353 2.20937 9.6299 2.17723 9.54606C2.14229 9.45382 2.08919 9.36998 2.01931 9.3015C2.00953 9.29172 2.00814 9.27355 2.01931 9.26377C2.02351 9.25958 2.0277 9.25818 2.03189 9.25678C2.08919 9.24281 2.14928 9.23862 2.20937 9.2456C2.34632 9.26097 2.46511 9.33085 2.54616 9.43146C2.56991 9.46221 2.59088 9.49435 2.60625 9.52789C2.6356 9.4678 2.68171 9.41749 2.73621 9.38116C2.76975 9.3588 2.80748 9.34203 2.84801 9.33085C2.87037 9.21625 2.855 9.09188 2.80609 8.98567C2.76276 8.89065 2.69429 8.80959 2.60765 8.7509C2.59507 8.74252 2.59227 8.72575 2.60066 8.71317C2.60485 8.70618 2.61324 8.70199 2.62162 8.70199C2.83823 8.67404 3.05204 8.76068 3.18899 8.93117C3.32454 9.10027 3.36228 9.32665 3.28961 9.52929C3.29799 9.54606 3.30498 9.56283 3.31057 9.58099C3.37346 9.55584 3.43914 9.54745 3.50761 9.55444C3.53416 9.55724 3.56071 9.56283 3.58587 9.57121C3.60124 9.53907 3.60963 9.50413 3.61382 9.4692C3.62779 9.34482 3.5691 9.22324 3.46429 9.15477C3.45171 9.14638 3.44752 9.12961 3.45591 9.11843C3.4601 9.11284 3.46569 9.10865 3.47267 9.10725C3.52718 9.09328 3.58307 9.09048 3.63758 9.09607C3.89471 9.12542 4.08057 9.3574 4.05262 9.61453C4.03865 9.74589 3.97017 9.86328 3.86396 9.94154C3.86396 9.9625 3.86396 9.98206 3.86117 10.003C3.8458 10.1232 3.77732 10.2308 3.67391 10.2951C3.55932 10.3664 3.4573 10.4796 3.39302 10.5969C3.30079 10.7674 3.27144 10.9673 3.31057 11.1573C3.31756 11.1643 3.32315 11.1713 3.33013 11.1783C3.44752 11.2957 3.63897 11.536 3.78151 11.7792C3.88493 11.9567 4.0093 12.1956 3.9548 12.4081C4.05961 12.4276 4.15324 12.4821 4.22032 12.559C4.29159 12.64 4.33491 12.7448 4.33631 12.8608C4.46068 12.858 4.58366 12.9083 4.6717 12.9964C4.75415 13.0788 4.80585 13.1934 4.80725 13.3192C4.95538 13.2437 5.13006 13.2368 5.28378 13.2996C5.36204 13.3318 5.43331 13.3807 5.49061 13.4422C5.49061 13.3066 5.51576 13.1697 5.55349 13.0467C5.50878 13.0062 5.47244 12.9601 5.44449 12.9083C5.25863 12.5688 5.45148 12.1356 5.67088 11.8616C5.65271 11.8379 5.63734 11.8113 5.62476 11.7834C5.47803 11.4648 5.7128 11.1014 5.9364 10.8848C5.92941 10.8695 5.92382 10.8527 5.91823 10.8359C5.8274 10.5397 6.0468 10.2504 6.2662 10.0757C6.22847 9.95691 6.24105 9.83254 6.28576 9.71934C6.34027 9.5796 6.44927 9.43705 6.61277 9.30709C6.58063 9.24979 6.56386 9.18831 6.56386 9.12262C6.56386 8.94934 6.68684 8.81379 6.82658 8.72714C6.78466 8.67684 6.75811 8.61814 6.75391 8.55805C6.63653 8.59299 6.52892 8.65028 6.4339 8.72295C6.26341 8.85571 6.13763 9.04157 6.08174 9.25818C6.07615 9.28054 6.0468 9.28613 6.03282 9.26656C5.95177 9.14359 5.89727 9.00524 5.87212 8.8613C5.81482 8.95074 5.7687 9.04856 5.73516 9.15197C5.67088 9.35321 5.6583 9.56981 5.69743 9.77664C5.69883 9.78502 5.69743 9.7948 5.68905 9.80179C5.67787 9.81157 5.6611 9.81018 5.65132 9.799C5.5479 9.68161 5.46545 9.54466 5.40956 9.39513C5.32012 9.15896 5.30195 8.89763 5.35645 8.65168C5.2726 8.58181 5.20832 8.49237 5.17059 8.39175C5.16221 8.37219 5.18037 8.34983 5.20273 8.35542C5.30894 8.38337 5.41654 8.39595 5.52555 8.39315C5.51856 8.35123 5.51856 8.30791 5.52555 8.26598C5.39698 8.26039 5.26841 8.26319 5.14124 8.27297C4.97774 8.28555 4.81983 8.31769 4.65632 8.33026C4.23709 8.36241 3.81366 8.3107 3.41538 8.17515C3.4587 8.37778 3.44612 8.59159 3.38044 8.78723C3.37206 8.81099 3.33992 8.81099 3.33013 8.78863C3.20436 8.50914 3.04505 8.24781 2.85639 8.01164C2.66634 7.77268 2.44554 7.55887 2.20098 7.3758C2.18981 7.36741 2.18701 7.35064 2.1954 7.33807C2.20238 7.32828 2.21496 7.32549 2.22614 7.32968C2.42598 7.40515 2.6356 7.46384 2.8508 7.50297C3.2407 7.57424 3.64317 7.57983 4.03445 7.52113C4.05961 7.51694 4.07498 7.54769 4.05821 7.56585C3.96458 7.67485 3.84999 7.76569 3.72142 7.83277C3.66972 7.85932 3.61661 7.88308 3.56211 7.90124C3.80387 7.96133 4.05262 7.99068 4.30137 7.99068C4.64375 7.99068 4.98193 7.93478 5.30475 7.82299C5.29077 7.79224 5.28099 7.7601 5.2768 7.72656C5.18736 7.71259 5.10351 7.67346 5.03364 7.60638C4.93721 7.51275 4.8897 7.38279 4.89948 7.24863V7.23885C4.69126 7.20391 4.48024 7.18574 4.26783 7.18295C3.92266 7.17876 3.57748 7.21928 3.2407 7.30034C3.22672 7.30313 3.21135 7.29475 3.20855 7.28077C3.20576 7.26959 3.20995 7.25841 3.21834 7.25282C3.59146 6.98591 4.0093 6.77908 4.45509 6.64632C4.88132 6.51915 5.3327 6.45906 5.79805 6.47723C5.83159 6.35705 5.90286 6.25224 5.99649 6.17538C6.33468 5.89868 7.25979 6.07895 7.66785 6.19774C7.7517 6.0524 7.85791 5.92104 7.98089 5.80924C8.11784 5.68627 8.25758 5.59963 8.42388 5.52556C8.64188 5.42774 8.83334 5.27821 8.98426 5.09235C8.99963 5.07418 9.02898 5.08256 9.03178 5.10632C9.04016 5.1706 9.04435 5.23489 9.04435 5.29917C9.04435 5.44031 9.02479 5.58146 8.98706 5.71841C9.23161 5.60102 9.46499 5.45848 9.68159 5.29638C9.69976 5.2824 9.72631 5.29638 9.72492 5.32013C9.71933 5.59823 9.6243 5.86375 9.45241 6.08315C9.567 6.08315 9.6788 6.08315 9.79339 6.07616C9.81715 6.07616 9.82973 6.10271 9.81575 6.12088C9.62011 6.35286 9.3504 6.50797 9.05274 6.55968C9.15196 6.63934 9.24698 6.72318 9.33782 6.81122C9.35599 6.82939 9.34062 6.86014 9.31546 6.85734C9.22602 6.84896 9.10444 6.83917 8.97867 6.83498C9.04296 6.98032 9.1813 7.13124 9.32944 7.17876C9.48316 7.23186 9.6243 7.31571 9.74448 7.42052C9.86606 7.52812 9.96807 7.65809 10.0407 7.80482C10.0519 7.82858 10.0282 7.85233 10.0044 7.84115C9.84091 7.77408 9.63827 7.69302 9.46219 7.68464C9.34201 7.67765 9.24699 7.71119 9.24 7.83137C9.24838 7.92919 9.25258 8.02702 9.25537 8.12624C9.47896 8.13881 9.68718 8.20869 9.86466 8.32328C10.0547 8.44486 10.2098 8.61674 10.3105 8.82077C10.3174 8.83475 10.3105 8.85012 10.2979 8.85711C10.2895 8.8613 10.2811 8.8613 10.2741 8.85711C10.1875 8.82077 9.94292 8.72295 9.70955 8.67684C9.55722 8.64749 9.24838 8.60417 9.22323 8.82357C9.21205 8.92139 9.19807 9.01921 9.1813 9.11424C9.38813 9.15896 9.57259 9.25538 9.72631 9.38535C9.88982 9.52509 10.0156 9.70537 10.0897 9.908C10.098 9.93176 10.0715 9.95272 10.0505 9.94014C9.85069 9.83114 9.5684 9.71235 9.3462 9.67462C9.19807 9.65087 9.05833 9.64528 9.01361 9.80039C9.00103 9.84511 8.98985 9.89123 8.98007 9.93735C8.97169 9.98206 8.9633 10.0282 8.95771 10.0743C9.15755 10.0771 9.3476 10.1288 9.51669 10.2168C9.69836 10.3119 9.85488 10.4502 9.97087 10.6207C9.98484 10.6417 9.96528 10.6682 9.94152 10.6612C9.7333 10.6053 9.49713 10.5438 9.28052 10.5494C9.1282 10.5536 8.95352 10.6039 9.00243 10.794C9.05553 10.998 9.14497 11.1923 9.26236 11.3669C9.47757 11.2971 9.70116 11.2468 9.93174 11.216C10.8485 11.0972 11.1615 10.4279 11.1615 9.57261C11.1615 8.81239 11.5682 8.11086 12.2278 7.73355L16.2469 5.22091C16.2594 5.21253 16.2762 5.21672 16.2832 5.2293C16.2888 5.23908 16.2888 5.25026 16.2832 5.25864C16.0568 5.59963 15.6851 6.32631 16.0247 6.69803C16.3251 7.02783 16.9624 6.81961 17.3006 6.66309L19.9418 5.54233C19.9557 5.53674 19.9711 5.54233 19.9767 5.5563C19.9823 5.56888 19.9767 5.58146 19.9669 5.58845C19.4247 5.96017 18.4577 6.70362 18.4577 7.43309C18.4577 7.72237 18.61 7.95435 18.8238 8.13741C18.8392 8.14999 18.835 8.17515 18.8168 8.18213C18.1376 8.44765 17.2838 8.99965 17.2838 9.82136C17.2838 10.1581 17.4333 10.4558 17.6527 10.7046C17.6681 10.7213 17.6555 10.7479 17.6345 10.7493C17.0616 10.7856 16.5613 10.9505 16.2077 11.202C16.1476 11.244 16.0931 11.2901 16.0414 11.3362C16.599 11.3362 17.1832 11.434 17.7044 11.6325C18.3473 11.8756 19.2458 11.8491 19.8439 11.5011L19.8537 11.4955C19.387 11.5836 18.9104 11.5332 18.5289 11.223C18.29 11.0288 18.1418 10.7591 18.1418 10.4614C18.1418 10.1637 18.3123 9.88005 18.5876 9.68161C18.8601 9.48457 19.2374 9.36299 19.6525 9.36299C20.0256 9.36299 20.4253 9.45522 20.7495 9.65506C20.8557 9.44125 20.9479 9.22045 21.0262 8.99126C21.0667 8.87388 21.103 8.7537 21.1352 8.63212C20.9284 8.73413 20.7173 8.82636 20.5007 8.90881C20.2674 8.99685 20.0298 9.07371 19.7852 9.138C19.7713 9.14219 19.7559 9.1338 19.7531 9.11843C19.7503 9.10725 19.7531 9.09747 19.7629 9.09048C20.1695 8.72994 20.5469 8.33585 20.8906 7.91382C21.2316 7.49319 21.5391 7.0432 21.8074 6.56807C21.8144 6.55549 21.8311 6.5513 21.8437 6.55828C21.8521 6.56387 21.8577 6.57226 21.8577 6.58204C21.8605 7.11308 21.9066 7.63433 21.9918 8.143C22.0785 8.66286 22.207 9.16874 22.3719 9.65646C22.3761 9.67043 22.3691 9.6858 22.3552 9.68999C22.3454 9.69279 22.3342 9.68999 22.3272 9.68301C22.1847 9.54326 22.0477 9.39653 21.9164 9.2456C21.8004 9.11145 21.69 8.97449 21.5852 8.83195C21.5726 8.96751 21.5544 9.10306 21.5321 9.23582C21.4762 9.56562 21.3895 9.89123 21.2721 10.2071C21.4063 10.4824 21.4287 10.7926 21.3616 11.114C21.226 11.7526 20.8166 12.2627 20.2841 12.6163C19.7084 13.0006 18.9873 13.2018 18.3193 13.192C18.3808 13.2479 18.4493 13.301 18.5191 13.3444C18.923 13.5959 19.3073 13.772 19.7461 13.9495C20.3023 14.1731 20.7481 14.6174 20.9717 15.1736C20.9773 15.1876 20.9717 15.203 20.9563 15.2086C20.9479 15.2114 20.9381 15.2114 20.9312 15.2058C20.7565 15.101 20.572 15.0101 20.3792 14.9361C20.2017 14.869 20.0186 14.8145 19.83 14.7754C19.8733 14.9081 19.904 15.0451 19.9222 15.1834C19.9697 15.5482 19.9334 15.9269 19.8132 16.2776C19.7126 16.5753 19.6259 16.8688 19.6259 17.1888C19.6259 17.5088 19.7349 17.812 20.1206 17.812C20.3079 17.812 20.4798 17.8679 20.5497 18.0217C20.6866 18.044 20.8068 18.1125 20.8934 18.2117C21.0276 18.364 21.0723 18.5751 21.0136 18.7693C21.0094 18.7833 20.994 18.7917 20.9801 18.7875C20.9717 18.7847 20.9661 18.7791 20.9633 18.7721C20.9228 18.6743 20.8543 18.5904 20.7677 18.5331C20.6866 18.4786 20.5888 18.4465 20.4854 18.4437C20.4812 18.4479 20.477 18.4535 20.4728 18.4577C20.3386 18.5918 20.122 18.6058 19.9711 18.4898C19.8747 18.5178 19.7713 18.4898 19.7 18.4199C19.679 18.399 19.6623 18.3752 19.6483 18.3501C19.5057 18.364 19.3758 18.2704 19.3492 18.1279C19.2528 18.1376 19.1578 18.1586 19.0683 18.188C18.9286 18.2341 18.7986 18.3012 18.6826 18.3864C18.5806 18.4633 18.4577 18.5038 18.3291 18.5038C18.2257 18.5038 18.1251 18.4772 18.0356 18.4255C17.9699 18.4675 17.8945 18.4884 17.8162 18.4884C17.7925 18.4884 17.7687 18.4856 17.7449 18.4828C17.6877 18.582 17.58 18.6491 17.4571 18.6491C17.4319 18.6491 17.4054 18.6463 17.3802 18.6407C17.3243 18.7162 17.2335 18.7651 17.1329 18.7651C17.0322 18.7651 16.947 18.7204 16.8869 18.6449C16.6941 18.6561 16.5152 18.7483 16.395 18.9007C16.3866 18.9118 16.3684 18.9146 16.3573 18.9049C16.3531 18.9021 16.3503 18.8979 16.3489 18.8937C16.3293 18.8378 16.3181 18.7805 16.3181 18.7204C16.3181 18.5806 16.374 18.4549 16.4663 18.364C16.4928 18.3375 16.5236 18.3137 16.5557 18.2928C16.4551 18.255 16.374 18.1754 16.3335 18.0748H16.2902C16.0778 18.0734 15.8835 18.1894 15.7843 18.378C15.7773 18.3906 15.7606 18.3962 15.748 18.3892C15.741 18.385 15.7354 18.378 15.734 18.371C15.6823 18.1586 15.7438 17.9364 15.8989 17.7813C16.0121 17.6681 16.1686 17.5982 16.3405 17.5982C16.388 17.5982 16.4355 17.6038 16.483 17.615C16.4984 17.6052 16.5152 17.5968 16.532 17.5884C16.4998 17.5298 16.4844 17.4641 16.4844 17.3984C16.4844 17.3704 16.4872 17.3439 16.4928 17.3173C16.4593 17.3062 16.4243 17.3006 16.3894 17.3006C16.2636 17.3006 16.149 17.3718 16.0931 17.4836C16.0862 17.4962 16.0708 17.5018 16.0568 17.4962C16.0498 17.4934 16.0456 17.4878 16.0428 17.4808C16.0233 17.4291 16.0135 17.3732 16.0135 17.3187C16.0135 17.0588 16.2231 16.8492 16.483 16.8492C16.6144 16.8492 16.7388 16.9037 16.8282 17.0015C16.8464 16.9987 16.8659 16.9973 16.8841 16.9973C17.0532 16.9973 17.1301 17.0714 17.2293 17.1902C17.4389 17.4403 17.7366 17.5689 18.0566 17.4766C18.399 17.3788 18.6295 17.0672 18.6938 16.7262C18.603 16.6494 18.5527 16.525 18.5527 16.4006C18.5527 16.2972 18.589 16.198 18.6561 16.1197C18.5806 16.0345 18.5359 15.9241 18.5359 15.8039C18.5359 15.7312 18.5527 15.6586 18.5848 15.5943L18.5764 15.5873C18.4856 15.502 18.4241 15.3847 18.4101 15.2533C18.2732 15.189 18.1614 15.0786 18.0971 14.9417C18.0859 14.9417 18.0747 14.9417 18.0636 14.9417C17.914 14.9417 17.7715 14.8913 17.6555 14.7963C17.5535 14.862 17.4319 14.9011 17.302 14.9011C17.1496 14.9011 17.0015 14.848 16.8855 14.7488C16.7723 14.8341 16.6382 14.8788 16.497 14.8788C16.3098 14.8788 16.1323 14.7977 16.0093 14.6566C15.945 14.6775 15.8779 14.6887 15.8067 14.6887C15.5034 14.6887 15.2393 14.4763 15.175 14.18C15.0451 14.1619 14.9263 14.106 14.8326 14.0221L14.8438 14.0207Z" fill="black"/>
<path fill-rule="evenodd" clip-rule="evenodd" d="M5.48498 7.72803C5.43467 7.73641 5.38436 7.73921 5.33545 7.73641C5.35222 7.82445 5.40672 7.89991 5.48498 7.94463C5.47939 7.87197 5.47939 7.8007 5.48498 7.72803Z" fill="#FF0000"/>
<path fill-rule="evenodd" clip-rule="evenodd" d="M5.72536 7.64697C5.67086 7.67492 5.61356 7.69588 5.55487 7.71265C5.59819 7.77973 5.66946 7.82166 5.74912 7.82864C5.73794 7.76855 5.72955 7.70846 5.72676 7.64837L5.72536 7.64697Z" fill="#FF0000"/>
<path fill-rule="evenodd" clip-rule="evenodd" d="M5.91823 7.51709L5.90844 7.52547C5.87211 7.55762 5.83158 7.58696 5.78687 7.61351C5.8232 7.67081 5.88189 7.70994 5.94757 7.72252C5.9322 7.65404 5.92242 7.58557 5.91823 7.51709Z" fill="#FF0000"/>
<path fill-rule="evenodd" clip-rule="evenodd" d="M6.12366 7.38281C6.07196 7.40657 6.02304 7.43592 5.97693 7.47085C6.01187 7.53793 6.07196 7.58684 6.14462 7.6078C6.13205 7.53374 6.12506 7.45828 6.12366 7.38421V7.38281Z" fill="#FF0000"/>
<path fill-rule="evenodd" clip-rule="evenodd" d="M6.33883 7.31982C6.28433 7.32681 6.23122 7.34079 6.18231 7.35895C6.20607 7.4428 6.27175 7.50988 6.3556 7.53503C6.34442 7.46376 6.34022 7.39249 6.34022 7.31982H6.33883Z" fill="#FF0000"/>
<path fill-rule="evenodd" clip-rule="evenodd" d="M6.56663 7.33255C6.5247 7.31998 6.48138 7.31299 6.43806 7.31299C6.42548 7.31299 6.41291 7.31299 6.40033 7.31299C6.42548 7.38705 6.47998 7.44994 6.54986 7.48488C6.55265 7.43317 6.55824 7.38146 6.56663 7.33115V7.33255Z" fill="#FF0000"/>
<path fill-rule="evenodd" clip-rule="evenodd" d="M3.70042 7.78813C3.80104 7.73502 3.89327 7.66655 3.97293 7.5855C3.59841 7.63301 3.2183 7.62323 2.84657 7.55615C2.68167 7.5268 2.52096 7.48488 2.36584 7.43457C2.56289 7.59668 2.74316 7.77974 2.90247 7.97958C3.07995 8.20178 3.23227 8.44493 3.35385 8.70486C3.39997 8.53297 3.40416 8.34851 3.36503 8.17522C3.34686 8.09557 3.32031 8.01871 3.28677 7.94604C3.27839 7.92927 3.28957 7.90971 3.30773 7.90691C3.44748 7.89154 3.58024 7.84962 3.70042 7.78673V7.78813Z" fill="#FF0000"/>
<path fill-rule="evenodd" clip-rule="evenodd" d="M6.05798 8.24237C6.06637 8.23678 6.07475 8.23258 6.08454 8.22699C6.12786 8.20044 6.16978 8.17669 6.2131 8.15572C6.19074 8.09563 6.17397 8.03414 6.16 7.97266C6.08873 8.04393 6.05239 8.14175 6.05938 8.24376L6.05798 8.24237Z" fill="#FF0000"/>
<path fill-rule="evenodd" clip-rule="evenodd" d="M5.82177 8.34549C5.88325 8.32733 5.94335 8.30217 6.00064 8.27283C5.96431 8.20435 5.93217 8.13168 5.90701 8.05762C5.88325 8.08557 5.86369 8.11631 5.84972 8.14985C5.82177 8.21274 5.81338 8.27702 5.82177 8.34549Z" fill="#FF0000"/>
<path fill-rule="evenodd" clip-rule="evenodd" d="M5.58561 8.39045C5.64431 8.38626 5.703 8.37648 5.7603 8.3625C5.71977 8.28704 5.68483 8.20599 5.65828 8.12354C5.594 8.1962 5.56745 8.29542 5.58561 8.39045Z" fill="#FF0000"/>
<path fill-rule="evenodd" clip-rule="evenodd" d="M7.37857 8.51877C7.36879 8.46986 7.35761 8.42095 7.34363 8.37204C7.32966 8.32033 7.3087 8.26024 7.28354 8.19596C6.87269 8.02966 6.49957 8.03106 6.10828 8.27421C5.85115 8.43352 5.5437 8.48383 5.24884 8.42095C5.28657 8.49921 5.34247 8.56768 5.41095 8.62218C5.41933 8.62917 5.42213 8.63895 5.42073 8.65013C5.36483 8.8905 5.3816 9.14763 5.46824 9.37961C5.51017 9.4914 5.56746 9.59621 5.63873 9.69124C5.61917 9.50119 5.63454 9.32091 5.69323 9.13785C5.73516 9.00648 5.79804 8.88351 5.8763 8.77451C5.88468 8.76193 5.90145 8.75913 5.91403 8.76892C5.92102 8.77451 5.92521 8.78149 5.92521 8.78988C5.94058 8.93102 5.98391 9.06658 6.05518 9.18955C6.11946 8.98692 6.24523 8.81224 6.40873 8.68507C6.58481 8.54812 6.80561 8.46706 7.04598 8.46706C7.15917 8.46706 7.27236 8.48523 7.37997 8.52157L7.37857 8.51877Z" fill="#FF0000"/>
<path fill-rule="evenodd" clip-rule="evenodd" d="M6.4283 7.89839C6.4283 7.91376 6.41572 7.92494 6.40035 7.92355C6.38498 7.92355 6.3738 7.91097 6.37519 7.8956C6.37799 7.8383 6.39057 7.79498 6.41432 7.76284C6.50236 7.64126 6.6994 7.71672 6.80701 7.76843C6.95374 7.8397 7.11166 7.95149 7.21786 8.04792C7.1424 7.8942 7.04458 7.73209 6.92859 7.59794C6.83496 7.48893 6.72875 7.3995 6.61835 7.35059C6.60857 7.40928 6.60298 7.46797 6.60158 7.52667C6.60158 7.54483 6.58202 7.55741 6.56525 7.55042C6.49677 7.52527 6.43808 7.48055 6.39616 7.42046C6.40035 7.46937 6.40594 7.51688 6.41432 7.5644C6.41712 7.58256 6.40175 7.59794 6.38358 7.59514C6.30253 7.58256 6.23125 7.53785 6.18234 7.47356C6.18654 7.52806 6.19352 7.58117 6.2047 7.63427C6.2089 7.65244 6.19213 7.66921 6.17396 7.66641C6.0985 7.65663 6.02862 7.6203 5.97692 7.563C5.9839 7.62449 5.99508 7.68598 6.00906 7.74607C6.01325 7.76423 5.99928 7.781 5.98111 7.77961C5.90704 7.77681 5.83717 7.74747 5.78546 7.69576C5.79105 7.74747 5.79944 7.79917 5.81062 7.84948C5.81481 7.86765 5.80084 7.88022 5.78407 7.88162C5.69044 7.88581 5.5996 7.84529 5.53811 7.77402C5.53532 7.84389 5.53811 7.91516 5.5451 7.98503C5.5465 8.0046 5.52693 8.01997 5.50877 8.01298C5.4375 7.98503 5.37741 7.93612 5.33688 7.87324C5.00568 7.98923 4.65911 8.04792 4.30835 8.04792C4.02606 8.04792 3.74238 8.01019 3.46987 7.93333C3.43214 7.94311 3.39301 7.9501 3.35388 7.95569C3.37624 8.006 3.39441 8.0591 3.40978 8.1136C3.81085 8.25474 4.23847 8.30924 4.66191 8.2771C4.82541 8.26453 4.98332 8.23238 5.14682 8.21981C5.28098 8.20863 5.41514 8.20723 5.54929 8.21282C5.57026 8.14993 5.60799 8.09543 5.6583 8.05211C5.67367 8.03953 5.69603 8.04652 5.70162 8.06469C5.71978 8.13037 5.74354 8.19326 5.77149 8.25614C5.77568 8.21142 5.78686 8.1681 5.80503 8.12757C5.82879 8.07307 5.86372 8.02556 5.90565 7.98643C5.91962 7.97246 5.94338 7.97944 5.94897 7.99901C5.96574 8.05491 5.9867 8.11081 6.01046 8.16531C6.02443 8.0591 6.07893 7.96267 6.16418 7.89839C6.18095 7.88581 6.2047 7.8956 6.2075 7.91656C6.22007 7.98923 6.23964 8.06189 6.26479 8.13037C6.57643 7.99202 6.88527 7.99761 7.21087 8.10941C7.10886 8.01298 6.94256 7.89001 6.78605 7.81594C6.70779 7.77821 6.52612 7.70275 6.46044 7.79358C6.44367 7.81734 6.43389 7.85088 6.43109 7.89699L6.4283 7.89839Z" fill="#FF0000"/>
<path fill-rule="evenodd" clip-rule="evenodd" d="M7.88584 8.57224C7.89004 8.49258 7.89283 8.41292 7.89283 8.33327C7.89283 8.27458 7.89283 8.21448 7.88864 8.15579C7.88864 8.13762 7.90401 8.12505 7.92218 8.12924C8.06472 8.16557 8.20447 8.21728 8.33583 8.28436C8.33583 8.22147 8.32744 8.15859 8.31207 8.0985C8.2939 8.02443 8.26316 7.95456 8.22403 7.88748C8.21145 7.86791 8.22962 7.84276 8.25198 7.84695C8.34421 7.86791 8.43365 7.90425 8.5133 7.95456C8.48256 7.77568 8.38753 7.61497 8.24918 7.49759C8.23102 7.48222 8.2394 7.45287 8.26316 7.45007C8.35539 7.44169 8.44623 7.44728 8.53566 7.46824C8.46439 7.3243 8.35399 7.20272 8.21844 7.11608C8.20726 7.10909 8.20307 7.09232 8.20866 7.08114C8.25617 6.9945 8.32605 6.92183 8.41129 6.87013C8.60693 6.75414 9.0108 6.78069 9.24697 6.80025C9.15893 6.7178 9.0667 6.64094 8.97167 6.56688C8.95351 6.5529 8.96049 6.52216 8.98425 6.51936C9.27073 6.48443 9.53625 6.34887 9.73329 6.13786C9.62149 6.14205 9.51109 6.14345 9.3979 6.14065C9.37554 6.14065 9.36296 6.1141 9.37833 6.09593C9.55162 5.8933 9.65363 5.64316 9.6704 5.37764C9.33082 5.62639 8.9563 5.82203 8.55802 5.95759C8.27993 6.04982 8.02978 6.21332 7.83134 6.42993C7.82156 6.44111 7.80479 6.44111 7.79361 6.43132C7.78243 6.42154 7.78243 6.40477 7.79221 6.39359C7.99624 6.17 8.25338 6.0023 8.54125 5.90588C8.67262 5.86116 8.79978 5.81085 8.92416 5.75356C8.97027 5.60822 8.99263 5.45729 8.99263 5.30357C8.99263 5.26165 8.99124 5.22112 8.98704 5.1792C8.83752 5.34829 8.65445 5.48524 8.44902 5.57887C8.28412 5.65434 8.15555 5.7298 8.02 5.85278C7.89563 5.96457 7.79082 6.09733 7.70837 6.24406C7.70278 6.25664 7.6902 6.26363 7.67623 6.25944C7.30171 6.14624 6.35842 5.95619 6.03281 6.22171C5.94198 6.29577 5.8749 6.39779 5.84695 6.51517C5.84415 6.52775 5.83297 6.53753 5.819 6.53613C5.35364 6.51657 4.89947 6.57526 4.47324 6.70243C4.07776 6.81982 3.70464 6.9959 3.36646 7.22229C3.66411 7.1594 3.96597 7.13005 4.27061 7.13425C4.49281 7.13704 4.71501 7.15661 4.93441 7.19434C4.98751 7.20412 5.04201 7.18875 5.08394 7.15381C5.12586 7.11888 5.14962 7.06857 5.14962 7.01407C5.14962 6.99869 5.16219 6.98751 5.17617 6.98751C5.19014 6.98751 5.20272 7.00009 5.20272 7.01407C5.20272 7.08394 5.17197 7.14962 5.11747 7.19434C5.07136 7.23347 5.01406 7.25163 4.95537 7.25024V7.25722C4.94559 7.37461 4.98751 7.4892 5.07276 7.57165C5.29076 7.78407 5.67506 7.66249 5.87769 7.48082C6.03561 7.33967 6.22287 7.26281 6.43668 7.26002C6.63232 7.25862 6.81539 7.38719 6.96911 7.56467C7.18013 7.80782 7.33664 8.14601 7.39673 8.35842C7.4135 8.41991 7.42748 8.48 7.43726 8.5387C7.44425 8.57782 7.44984 8.61556 7.45263 8.65329C7.54906 8.54149 7.61055 8.40314 7.62871 8.25501C7.63151 8.23125 7.66225 8.22287 7.67623 8.24243C7.75309 8.34724 7.82296 8.45764 7.88584 8.57363V8.57224ZM9.20505 5.81225C9.21763 5.80386 9.2344 5.80666 9.24278 5.81784C9.25116 5.83042 9.24837 5.84719 9.23719 5.85557C9.13518 5.93103 9.02617 5.99811 8.91298 6.0568C8.85429 6.08755 8.79559 6.1155 8.7355 6.14205C8.87944 6.13506 9.02478 6.14205 9.16732 6.16022C9.18129 6.16161 9.19247 6.17559 9.19107 6.18956C9.18968 6.20214 9.17989 6.21053 9.16871 6.21332C9.08067 6.22869 8.78721 6.30555 8.53147 6.41456C8.4085 6.46766 8.2939 6.52775 8.21565 6.59343C8.14717 6.65073 8.08568 6.72898 8.14437 6.81423C8.15276 6.82681 8.14996 6.84358 8.13739 6.85196C8.12481 6.86034 8.10804 6.85755 8.09966 6.84497C8.0228 6.73318 8.08848 6.62976 8.18071 6.55151C8.26176 6.48303 8.38194 6.42014 8.50911 6.36425C8.6796 6.29158 8.86547 6.23288 8.99962 6.19655C8.85149 6.18677 8.70336 6.19096 8.55663 6.20773C8.54405 6.20913 8.53147 6.20214 8.52728 6.18956C8.52309 6.17559 8.53007 6.16022 8.54405 6.15602C8.66283 6.1155 8.77743 6.06519 8.88643 6.00929C8.99683 5.952 9.10303 5.88492 9.20365 5.81225H9.20505ZM5.97132 6.69824C5.96434 6.71082 5.94757 6.71641 5.93499 6.70942C5.92241 6.70243 5.91682 6.68706 5.92381 6.67309C6.00486 6.51797 6.43947 6.5557 6.589 6.57387C6.74412 6.59343 6.88945 6.64234 7.04457 6.66191C7.17034 6.67728 7.29891 6.68007 7.42608 6.66889C7.47779 6.6647 7.52809 6.65771 7.5784 6.64933C7.59238 6.64653 7.60635 6.65632 7.60915 6.67169C7.61194 6.68566 7.60216 6.69964 7.58679 6.70243C7.53508 6.71082 7.48198 6.7178 7.43027 6.722C7.29891 6.73318 7.16895 6.73038 7.03759 6.71361L7.01942 6.71082C6.95234 6.90227 6.77067 7.03084 6.56664 7.03084C6.33187 7.03084 6.13063 6.85895 6.0929 6.62697C6.03281 6.63955 5.98809 6.66191 5.96993 6.69544L5.97132 6.69824ZM5.58003 6.86174C5.58003 6.91345 5.56187 6.96376 5.52833 7.00428C5.51855 7.01546 5.50178 7.01686 5.4906 7.00708C5.47942 6.9973 5.47802 6.98053 5.4878 6.96935C5.50457 6.94978 5.51575 6.92882 5.52134 6.90506C5.50597 6.91345 5.4892 6.91764 5.47243 6.91764C5.41653 6.91764 5.37181 6.87292 5.37181 6.81702C5.37181 6.76113 5.41653 6.71641 5.47243 6.71641C5.55208 6.71641 5.58143 6.79327 5.58143 6.86035L5.58003 6.86174ZM5.47243 6.77091C5.49758 6.77091 5.51855 6.79187 5.51855 6.81702C5.51855 6.84218 5.49758 6.86314 5.47243 6.86314C5.44727 6.86314 5.42631 6.84218 5.42631 6.81702C5.42631 6.79187 5.44727 6.77091 5.47243 6.77091Z" fill="#FF0000"/>
<path fill-rule="evenodd" clip-rule="evenodd" d="M6.80281 6.67002C6.75809 6.75946 6.66726 6.81675 6.56804 6.81675C6.44506 6.81675 6.33885 6.73151 6.3123 6.61133C6.2564 6.61133 6.19911 6.61412 6.1474 6.62111C6.17954 6.82793 6.35842 6.98026 6.56804 6.98026C6.74551 6.98026 6.90343 6.86986 6.96631 6.70496C6.91041 6.69518 6.85731 6.6826 6.80281 6.67002Z" fill="white"/>
<path fill-rule="evenodd" clip-rule="evenodd" d="M7.20667 11.0859L7.20108 11.1097C7.17034 11.248 7.14518 11.3878 7.12701 11.5303C7.17732 11.4437 7.22903 11.3584 7.28073 11.2746C7.25558 11.2117 7.23043 11.1502 7.20527 11.0873L7.20667 11.0859Z" fill="#FF0000"/>
<path fill-rule="evenodd" clip-rule="evenodd" d="M7.38977 10.5005C7.32689 10.6612 7.27239 10.8261 7.22906 10.9952C7.25701 11.0693 7.28636 11.1433 7.31711 11.216C7.38698 11.1042 7.45685 10.9938 7.52952 10.8834C7.48201 10.7562 7.43449 10.6277 7.38977 10.5005Z" fill="#FF0000"/>
<path fill-rule="evenodd" clip-rule="evenodd" d="M7.60494 10.0156C7.57699 10.0799 7.54904 10.1442 7.51829 10.2071C7.48336 10.2783 7.45122 10.351 7.42047 10.4251C7.46798 10.5606 7.5155 10.6948 7.56581 10.8289C7.63289 10.7269 7.70136 10.6263 7.77123 10.5257L7.77543 10.5201C7.71673 10.3538 7.65944 10.1847 7.60494 10.0156Z" fill="#FF0000"/>
<path fill-rule="evenodd" clip-rule="evenodd" d="M7.75446 11.4507C7.68598 11.5569 7.6189 11.6631 7.55322 11.7707C7.62869 11.937 7.70555 12.1019 7.7866 12.2654C7.84529 12.155 7.90538 12.046 7.96687 11.937C7.8942 11.7763 7.82293 11.6142 7.75446 11.4521V11.4507Z" fill="#FF0000"/>
<path fill-rule="evenodd" clip-rule="evenodd" d="M7.98927 11.0957C7.92079 11.1949 7.85511 11.2955 7.78943 11.3962C7.85651 11.5583 7.92638 11.719 7.99905 11.8783C8.05914 11.7735 8.11923 11.6687 8.18072 11.5639C8.11504 11.4087 8.05215 11.2536 7.99066 11.0957H7.98927Z" fill="#FF0000"/>
<path fill-rule="evenodd" clip-rule="evenodd" d="M8.2324 10.7495C8.16252 10.8459 8.09405 10.9438 8.02557 11.043C8.08566 11.1981 8.14855 11.3532 8.21283 11.5069C8.27572 11.4007 8.33861 11.2945 8.40289 11.1897C8.3442 11.0444 8.2869 10.8976 8.2324 10.7509V10.7495Z" fill="#FF0000"/>
<path fill-rule="evenodd" clip-rule="evenodd" d="M8.49234 10.3999C8.41688 10.4977 8.34282 10.5983 8.27155 10.6976C8.32605 10.8429 8.38194 10.9882 8.43924 11.1322C8.50772 11.0204 8.57759 10.91 8.64746 10.7996C8.59436 10.6668 8.54265 10.5341 8.49234 10.3999Z" fill="#FF0000"/>
<path fill-rule="evenodd" clip-rule="evenodd" d="M8.24779 10.6373C8.32046 10.5381 8.39453 10.4389 8.46999 10.341C8.42108 10.2111 8.37356 10.0797 8.32745 9.94834L8.30649 9.88965C8.23102 9.98607 8.15835 10.0825 8.08429 10.1803C8.12342 10.2949 8.16394 10.4081 8.20447 10.5213C8.21845 10.5604 8.23242 10.5982 8.24779 10.6373Z" fill="#FF0000"/>
<path fill-rule="evenodd" clip-rule="evenodd" d="M8.00321 10.9825C8.07168 10.8847 8.14016 10.7869 8.21003 10.6904C8.19186 10.6401 8.1737 10.5912 8.15553 10.5409C8.1178 10.4389 8.08146 10.3369 8.04653 10.2349C7.97526 10.3327 7.90399 10.4305 7.83551 10.5297C7.87883 10.6527 7.92495 10.7757 7.97106 10.8987L8.00321 10.9839V10.9825Z" fill="#FF0000"/>
<path fill-rule="evenodd" clip-rule="evenodd" d="M7.76428 11.3362C7.82996 11.2356 7.89703 11.1349 7.96551 11.0357C7.95014 10.9952 7.93477 10.9561 7.91939 10.9155C7.87747 10.8051 7.83694 10.6933 7.79642 10.5815C7.72515 10.6836 7.65667 10.787 7.5882 10.8904C7.62453 10.9868 7.66226 11.0818 7.69999 11.1769C7.72095 11.23 7.74331 11.2831 7.76428 11.3362Z" fill="#FF0000"/>
<path fill-rule="evenodd" clip-rule="evenodd" d="M7.52669 11.7121C7.59377 11.6045 7.66085 11.4969 7.72932 11.3921C7.70277 11.3278 7.67622 11.2635 7.65106 11.1978C7.61752 11.114 7.58538 11.0301 7.55324 10.9463C7.48197 11.0567 7.4107 11.1671 7.34222 11.2789C7.39393 11.4061 7.44703 11.5318 7.50293 11.6562L7.52809 11.7121H7.52669Z" fill="#FF0000"/>
<path fill-rule="evenodd" clip-rule="evenodd" d="M7.27098 12.1412C7.21369 12.014 7.15919 11.8869 7.10468 11.7583C7.08931 11.9805 7.09071 12.2055 7.10888 12.4277C7.16198 12.3313 7.21508 12.2362 7.26959 12.1412H7.27098Z" fill="#FF0000"/>
<path fill-rule="evenodd" clip-rule="evenodd" d="M7.49177 11.7667C7.47779 11.7374 7.46522 11.7066 7.45124 11.6759C7.40093 11.5627 7.35342 11.4481 7.30591 11.3335C7.24162 11.4383 7.17874 11.5431 7.11725 11.6493C7.17734 11.7947 7.23883 11.9386 7.30311 12.0825C7.3646 11.9763 7.42748 11.8701 7.49177 11.7653V11.7667Z" fill="#FF0000"/>
<path fill-rule="evenodd" clip-rule="evenodd" d="M7.49177 12.6134C7.4247 12.4765 7.36041 12.3395 7.29753 12.2012C7.23604 12.3074 7.17735 12.4136 7.11865 12.5212C7.12145 12.5422 7.12285 12.5645 7.12564 12.5855C7.14381 12.7378 7.17036 12.8873 7.2053 13.0341C7.29194 12.8873 7.38697 12.7462 7.49177 12.6134Z" fill="#FF0000"/>
<path fill-rule="evenodd" clip-rule="evenodd" d="M7.75169 12.3157C7.67204 12.1536 7.59378 11.9901 7.51971 11.8252C7.45543 11.93 7.39254 12.0362 7.33105 12.1424C7.39534 12.285 7.46102 12.4261 7.52949 12.5658C7.59937 12.4792 7.67343 12.3954 7.75169 12.3157Z" fill="#FF0000"/>
<path fill-rule="evenodd" clip-rule="evenodd" d="M8.30228 11.8491C8.27014 11.775 8.2366 11.6996 8.20586 11.6255C8.09965 11.8072 7.99624 11.9916 7.89423 12.1775C7.99065 12.088 8.09127 12.0042 8.19747 11.9259C8.23241 11.8994 8.26735 11.8742 8.30368 11.8505L8.30228 11.8491Z" fill="#FF0000"/>
<path fill-rule="evenodd" clip-rule="evenodd" d="M8.59993 11.6618C8.54123 11.5249 8.48394 11.3879 8.42804 11.251C8.36375 11.3558 8.30087 11.462 8.23938 11.5682C8.27432 11.652 8.31065 11.7359 8.34698 11.8183C8.42943 11.7638 8.51328 11.7107 8.59993 11.6632V11.6618Z" fill="#FF0000"/>
<path fill-rule="evenodd" clip-rule="evenodd" d="M7.81036 18.3976C7.91098 18.406 8.00461 18.4409 8.08427 18.494C8.15833 18.5443 8.22122 18.61 8.26594 18.6882C8.29109 18.5317 8.24637 18.3738 8.14016 18.2536C8.0661 18.1698 7.96688 18.1097 7.85369 18.0859C7.86347 18.1209 7.86906 18.1572 7.86906 18.1949C7.86906 18.269 7.8481 18.3389 7.81036 18.3976Z" fill="#FF0000"/>
<path fill-rule="evenodd" clip-rule="evenodd" d="M7.85229 9.64648C7.77963 9.74431 7.70836 9.84213 7.63708 9.94275C7.69298 10.1174 7.75168 10.2921 7.81177 10.4654C7.88164 10.3662 7.95151 10.2684 8.02418 10.1719C7.96409 9.99725 7.90679 9.82256 7.85229 9.64648Z" fill="#FF0000"/>
<path fill-rule="evenodd" clip-rule="evenodd" d="M8.11082 9.31006C8.03675 9.40509 7.96269 9.50011 7.89142 9.59514C7.94592 9.77122 8.00322 9.9473 8.06331 10.1206C8.13597 10.0228 8.21004 9.92634 8.2855 9.83131C8.22541 9.65942 8.16812 9.48474 8.11082 9.31006Z" fill="#FF0000"/>
<path fill-rule="evenodd" clip-rule="evenodd" d="M7.87184 9.53073C7.94451 9.4343 8.01718 9.34067 8.09124 9.24704C8.07587 9.19673 8.0591 9.14642 8.04373 9.09612C8.00879 8.98292 7.96966 8.87671 7.92355 8.77051C7.90398 8.97034 7.86905 9.16739 7.82153 9.36303C7.8383 9.41893 7.85507 9.47483 7.87184 9.53073Z" fill="#FF0000"/>
<path fill-rule="evenodd" clip-rule="evenodd" d="M7.70416 9.75685C7.74609 9.69815 7.78941 9.64086 7.83273 9.58356C7.82015 9.54303 7.80757 9.50391 7.7964 9.46338C7.76984 9.5626 7.7391 9.66042 7.70556 9.75685H7.70416Z" fill="#FF0000"/>
<path fill-rule="evenodd" clip-rule="evenodd" d="M5.921 14.1228C5.95314 14.3785 6.04118 14.6175 6.17114 14.8257C6.29831 15.0283 6.46461 15.203 6.66165 15.3386C6.65187 15.305 6.64628 15.2687 6.64628 15.2324C6.64628 15.0856 6.72873 14.9626 6.83633 14.8718C6.7972 14.8061 6.77624 14.7349 6.77624 14.6608C6.77624 14.5001 6.87406 14.3687 6.99844 14.2751C6.9649 14.215 6.94533 14.1465 6.94533 14.0683C6.94533 13.8153 7.15495 13.5764 7.33662 13.4199C7.2402 13.431 7.14238 13.4366 7.04455 13.4366C7.02359 13.4366 7.00962 13.4185 7.018 13.3989C7.06272 13.2969 7.11303 13.1991 7.16613 13.1026C7.12561 12.9363 7.09347 12.7658 7.0725 12.5926C7.01102 12.0951 7.03757 11.5864 7.14936 11.0973C7.22203 10.7773 7.33103 10.4712 7.47078 10.1833C7.69996 9.70959 7.83692 9.19952 7.87884 8.67547L7.87045 8.6573C7.81176 8.54131 7.74608 8.42952 7.67201 8.32471C7.63987 8.47983 7.56301 8.62097 7.45122 8.73277C7.43445 8.74954 7.40789 8.73836 7.4065 8.716C7.4037 8.67128 7.39811 8.62656 7.39112 8.58044C7.28073 8.53852 7.16474 8.51895 7.04595 8.51895C6.9663 8.51895 6.88804 8.52874 6.81397 8.5469C6.81397 8.62796 6.86428 8.70342 6.94673 8.76351C7.03337 8.8264 7.15775 8.87251 7.2975 8.88649C7.31287 8.88788 7.32265 8.90186 7.32125 8.91583C7.31985 8.93121 7.30588 8.94099 7.29191 8.93959C7.14238 8.92422 7.00962 8.87531 6.91459 8.80683C6.89922 8.79565 6.88385 8.78307 6.87127 8.7705C6.7441 8.84736 6.62532 8.96894 6.62532 9.12685C6.62532 9.38538 6.93136 9.5391 7.14657 9.5936C7.16054 9.5964 7.17033 9.61177 7.16613 9.62574C7.16334 9.63972 7.14797 9.6495 7.13399 9.64531C6.95651 9.60059 6.75947 9.50975 6.65047 9.35603C6.49675 9.47901 6.39474 9.61177 6.34443 9.74313C6.26198 9.95275 6.31089 10.1554 6.49535 10.2881C6.60435 10.3664 6.75947 10.4209 6.9621 10.4377C6.97748 10.4377 6.98726 10.4516 6.98726 10.467C6.98726 10.4824 6.97328 10.4922 6.95791 10.4922C6.7455 10.474 6.5806 10.4167 6.46461 10.3329C6.38635 10.277 6.33045 10.2099 6.29552 10.1344C6.09987 10.2937 5.89584 10.5592 5.97829 10.8276C6.06493 11.1126 6.4157 11.2007 6.67842 11.2119C6.69379 11.2119 6.70497 11.2244 6.70357 11.2398C6.70357 11.2552 6.691 11.2664 6.67562 11.265C6.42129 11.2538 6.10965 11.1783 5.96991 10.9422C5.76867 11.1364 5.55067 11.483 5.68203 11.7694C5.72256 11.8561 5.79243 11.9274 5.89165 11.9777C6.02022 12.042 6.19909 12.0671 6.42129 12.0392C6.43526 12.0378 6.44924 12.0475 6.45063 12.0629C6.45203 12.0769 6.44225 12.0909 6.42688 12.0923C6.1935 12.123 6.00484 12.0951 5.86649 12.0266C5.80501 11.9958 5.7533 11.9581 5.71277 11.9134C5.51014 12.1677 5.32568 12.5772 5.49756 12.893C5.67225 13.2116 6.10406 13.2004 6.40731 13.1054C6.42129 13.1012 6.43666 13.1082 6.44085 13.1222C6.44504 13.1362 6.43806 13.1515 6.42268 13.1557C6.16695 13.2368 5.83016 13.2577 5.60377 13.0928C5.52551 13.3612 5.51154 13.7091 5.70998 13.9313C5.89444 14.1381 6.18092 14.1395 6.43107 14.0725C6.44504 14.0683 6.46042 14.0767 6.46321 14.092C6.4674 14.106 6.45902 14.1214 6.44365 14.1242C6.27036 14.1703 6.0845 14.1843 5.921 14.1312V14.1228Z" fill="#FF0000"/>
<path fill-rule="evenodd" clip-rule="evenodd" d="M11.8379 9.21502C11.8812 8.88941 11.9986 8.58337 12.1774 8.31645C12.3563 8.04814 12.5967 7.82035 12.886 7.65545L14.3966 6.71077C14.4092 6.70239 14.426 6.70658 14.4329 6.71915C14.4413 6.73173 14.4371 6.7485 14.4246 6.75549L12.9125 7.70017C12.6316 7.86088 12.3968 8.08308 12.2222 8.3444C12.0642 8.58197 11.9538 8.85168 11.9035 9.13816C12.067 8.95789 12.2669 8.81255 12.4919 8.71054L16.7415 6.90641C16.4607 6.95533 16.1728 6.93436 15.9925 6.73592C15.6543 6.3656 15.9618 5.68783 16.1826 5.33008L12.2627 7.77983C11.6199 8.14876 11.223 8.83212 11.223 9.57277C11.223 10.3134 10.9882 10.9213 10.3524 11.1687C10.6332 11.1533 10.8778 11.0583 11.086 10.8654C11.2901 10.6768 11.4158 10.4238 11.4452 10.1471C11.4801 9.8313 11.5961 9.54063 11.7722 9.29747C11.7931 9.26812 11.8155 9.24017 11.8379 9.21223V9.21502Z" fill="#FF0000"/>
<path fill-rule="evenodd" clip-rule="evenodd" d="M12.0657 13.9762C11.8519 13.5849 11.6688 13.174 11.5193 12.7478C11.3795 12.3467 11.2691 11.9331 11.1923 11.5068C11.0078 11.9442 10.8471 12.3956 10.7129 12.8554C10.5844 13.2942 10.4796 13.7442 10.3985 14.2025C10.6081 13.8853 10.9198 13.5946 11.318 13.5946C11.6185 13.5946 11.87 13.7609 12.0643 13.9748L12.0657 13.9762Z" fill="#FF0000"/>
<path fill-rule="evenodd" clip-rule="evenodd" d="M13.7273 13.4659C13.4282 12.9097 13.1278 12.5324 12.6554 12.0685C12.3633 11.7806 12.0461 11.5137 11.7093 11.2705C11.7051 11.7792 11.7387 12.2697 11.8253 12.7714C11.9008 13.2102 12.0098 13.6378 12.1523 14.0501C12.3592 13.6672 12.7071 13.2675 13.1781 13.2675C13.3835 13.2675 13.5694 13.3457 13.7287 13.4673L13.7273 13.4659Z" fill="#FF0000"/>
<path fill-rule="evenodd" clip-rule="evenodd" d="M15.6921 12.671C15.4475 12.4404 15.1932 12.221 14.9319 12.0114C14.4386 11.7235 14.0207 11.4971 13.4827 11.2945C13.0076 11.1156 12.5115 10.9801 12 10.8906C12.3536 11.2847 12.682 11.7012 12.9852 12.1386C13.2913 12.5802 13.5693 13.0413 13.8181 13.522C13.9942 13.244 14.2108 13.0162 14.4567 12.8583C14.7041 12.6975 14.9808 12.6081 15.2729 12.6081C15.4154 12.6081 15.5565 12.6291 15.6935 12.671H15.6921Z" fill="#FF0000"/>
<path fill-rule="evenodd" clip-rule="evenodd" d="M18.3305 8.19455C17.2991 8.34688 16.2832 8.5579 15.2938 8.82481C14.3365 9.08194 13.4002 9.39218 12.4877 9.75133C13.1766 9.75831 13.8544 9.8212 14.5196 9.92741C15.2281 10.042 15.9213 10.2069 16.5948 10.4123C16.6088 10.4165 16.6172 10.4319 16.613 10.4459C16.6088 10.4584 16.5962 10.4668 16.5823 10.464C15.6767 10.274 14.753 10.1789 13.8279 10.1789C13.2787 10.1789 12.7281 10.2125 12.183 10.2796C12.8426 10.5716 13.4729 10.9182 14.0668 11.3137C14.6496 11.7022 15.2002 12.1382 15.7102 12.6147C15.646 12.4694 15.6096 12.3143 15.6096 12.1536C15.6096 11.7623 15.8248 11.4185 16.184 11.1628C16.5347 10.9126 17.0252 10.7463 17.5856 10.703C17.376 10.4529 17.2377 10.1566 17.2377 9.82539C17.2377 9.02744 18.0077 8.47684 18.6784 8.18896C18.5625 8.18896 18.4465 8.19176 18.3305 8.19455Z" fill="#FF0000"/>
<path fill-rule="evenodd" clip-rule="evenodd" d="M2.27781 9.78942C2.32113 9.77405 2.36864 9.76706 2.41755 9.77265C2.48463 9.77964 2.54472 9.80619 2.59503 9.8523C2.62717 9.71535 2.59783 9.57281 2.50979 9.46241C2.43712 9.37297 2.33091 9.31009 2.20793 9.29611C2.1716 9.29192 2.13387 9.29192 2.09753 9.29611C2.15623 9.36319 2.20234 9.44005 2.23309 9.5239C2.26383 9.60635 2.2806 9.69579 2.2792 9.78942H2.27781Z" fill="#FF0000"/>
<path fill-rule="evenodd" clip-rule="evenodd" d="M2.90811 9.31828C2.93605 9.31548 2.964 9.31548 2.99335 9.31828C3.10096 9.33086 3.19039 9.38396 3.25607 9.4692C3.30079 9.29033 3.26725 9.11006 3.14987 8.96472C3.03947 8.82637 2.87457 8.74951 2.69849 8.74951C2.76556 8.80821 2.82007 8.88087 2.8578 8.96193C2.9095 9.07372 2.92627 9.1967 2.90671 9.31828H2.90811Z" fill="#FF0000"/>
<path fill-rule="evenodd" clip-rule="evenodd" d="M3.63899 9.59213C3.69349 9.61868 3.741 9.65641 3.77873 9.70393C3.81926 9.75424 3.84721 9.81433 3.85978 9.88001C3.93944 9.81153 3.99115 9.71511 4.00233 9.6103C4.02748 9.38251 3.86398 9.17569 3.63479 9.15053C3.60405 9.14774 3.5761 9.14774 3.54675 9.15053C3.63899 9.23298 3.6851 9.35456 3.67113 9.47754C3.66693 9.51807 3.65576 9.5558 3.63899 9.59353V9.59213Z" fill="#FF0000"/>
<path fill-rule="evenodd" clip-rule="evenodd" d="M3.32735 9.63405C3.33294 9.66759 3.33433 9.70253 3.33014 9.73886C3.32036 9.8269 3.28542 9.91634 3.24629 10.017C3.20018 10.1357 3.14708 10.2699 3.13031 10.425C3.10515 10.6542 3.11354 10.8792 3.24769 11.0748C3.23092 10.9015 3.26586 10.7269 3.34971 10.5731C3.41818 10.4474 3.52439 10.3286 3.64737 10.2517C3.7382 10.1958 3.79969 10.1022 3.81227 9.99599C3.82205 9.90097 3.79829 9.81153 3.7382 9.73746C3.6823 9.66759 3.60125 9.62008 3.50483 9.6089C3.44194 9.60331 3.38464 9.6089 3.32874 9.63545L3.32735 9.63405Z" fill="#FF0000"/>
<path fill-rule="evenodd" clip-rule="evenodd" d="M5.49899 13.5328C5.44029 13.4517 5.36064 13.3875 5.26841 13.3511C5.11888 13.291 4.94839 13.3022 4.80864 13.3847C4.80305 13.4322 4.79047 13.4769 4.76951 13.5202C4.76392 13.5342 4.74715 13.5398 4.73457 13.5328C4.7206 13.5272 4.71501 13.5104 4.722 13.4979C4.74715 13.4448 4.75973 13.3861 4.75973 13.326C4.75973 13.2128 4.71361 13.1094 4.63955 13.0353C4.55849 12.9542 4.45368 12.9137 4.33909 12.9151C4.3349 12.9514 4.32791 12.9864 4.31534 13.0199C4.29857 13.0688 4.27202 13.1149 4.24127 13.1555C4.23149 13.1667 4.21472 13.1695 4.20354 13.1597C4.19236 13.1499 4.18956 13.1331 4.19935 13.1219C4.2273 13.0856 4.24966 13.0451 4.26503 13.0018C4.31394 12.8634 4.28319 12.7069 4.18537 12.5951C4.12388 12.5252 4.03864 12.4763 3.94221 12.4609C3.92684 12.5001 3.90588 12.5364 3.88073 12.5685C3.74936 12.739 3.76893 13.0213 3.90029 13.1862C4.1141 13.4531 4.52915 13.8137 4.96795 14.0051C5.26281 14.1351 5.56886 14.1868 5.82879 14.082C5.77149 14.0512 5.71839 14.0107 5.67227 13.959C5.56606 13.8402 5.51576 13.6893 5.50178 13.5328H5.49899Z" fill="#FF0000"/>
<path fill-rule="evenodd" clip-rule="evenodd" d="M2.26667 13.5385C2.1912 13.5301 2.12413 13.5008 2.06962 13.4561C2.03189 13.6433 1.90472 13.7998 1.73004 13.8767C1.75799 13.8837 1.78454 13.8893 1.81389 13.8921C2.06124 13.92 2.29741 13.7705 2.37567 13.5329C2.34073 13.5399 2.3044 13.5413 2.26806 13.5371L2.26667 13.5385Z" fill="#FF0000"/>
<path fill-rule="evenodd" clip-rule="evenodd" d="M5.68627 15.4068C5.63736 15.4012 5.58845 15.3928 5.53954 15.3845C5.48643 15.3747 5.43892 15.3747 5.38721 15.3886C5.35926 15.3956 5.33271 15.4068 5.30896 15.4208C5.29638 15.4278 5.27961 15.4236 5.27262 15.411C5.26563 15.3984 5.26983 15.3817 5.2824 15.3747C5.31035 15.3593 5.3411 15.3453 5.37324 15.3369C5.43473 15.3202 5.48923 15.3216 5.55072 15.3328C5.78689 15.3775 6.03284 15.3831 6.27041 15.3495C6.35565 15.3383 6.4381 15.3216 6.51916 15.3006C6.36404 15.1748 6.22988 15.0239 6.12368 14.8548C5.98812 14.6382 5.89729 14.3895 5.86515 14.1239C5.58565 14.2483 5.25725 14.1938 4.94142 14.0555C4.49563 13.8598 4.0736 13.4937 3.8556 13.2226C3.70886 13.0367 3.6865 12.7265 3.83603 12.5364C3.86258 12.5015 3.88355 12.4638 3.89752 12.4204C3.9646 12.2178 3.83743 11.9802 3.73681 11.8098C3.59707 11.5708 3.40841 11.3346 3.29382 11.2186C3.07162 10.9922 3.04227 10.7211 3.07581 10.4207C3.09398 10.2586 3.14708 10.1216 3.19599 10C3.23373 9.90361 3.26726 9.81697 3.27705 9.73592C3.29661 9.55565 3.16804 9.39354 2.98777 9.37398C2.90812 9.36559 2.83265 9.38516 2.76977 9.42708C2.70828 9.46761 2.66216 9.5277 2.63841 9.60036C2.66775 9.69819 2.66775 9.803 2.63561 9.90222C2.69291 9.98187 2.6999 10.0545 2.68872 10.1482C2.67754 10.2502 2.66775 10.3284 2.70269 10.4374C2.70688 10.4514 2.6999 10.4668 2.68592 10.471C2.67195 10.4752 2.65657 10.4682 2.65238 10.4542C2.61465 10.334 2.62304 10.2516 2.63561 10.144C2.64539 10.0601 2.6412 9.99445 2.5853 9.92458C2.54478 9.87287 2.48329 9.83793 2.41342 9.82955C2.27227 9.81418 2.1451 9.91479 2.12973 10.0559C2.12135 10.1258 2.14371 10.1929 2.18423 10.2446C2.22476 10.2963 2.28625 10.3312 2.35612 10.3396C2.37009 10.341 2.38127 10.355 2.37988 10.369C2.37848 10.3843 2.3645 10.3941 2.35053 10.3927C2.30162 10.3871 2.2569 10.3704 2.21777 10.3452C2.21358 10.3606 2.21078 10.376 2.20939 10.3913C2.201 10.4682 2.22336 10.5409 2.26808 10.5954C2.3128 10.6513 2.37848 10.689 2.45394 10.6988C2.46792 10.7002 2.4791 10.7141 2.4777 10.7281C2.4763 10.7435 2.46233 10.7533 2.44835 10.7519C2.40783 10.7477 2.37009 10.7365 2.33656 10.7183C2.33236 10.7337 2.32957 10.7491 2.32817 10.7658C2.31699 10.8651 2.34774 10.9587 2.40503 11.03C2.46233 11.1012 2.54757 11.1515 2.64679 11.1627C2.66077 11.1641 2.67195 11.1781 2.67055 11.1921C2.66915 11.206 2.65518 11.2172 2.6412 11.2158C2.52801 11.2033 2.43019 11.146 2.3645 11.0635C2.35752 11.0551 2.35053 11.0453 2.34494 11.0356C2.29743 11.1068 2.26808 11.1879 2.2583 11.2731C2.24572 11.3877 2.26948 11.5037 2.32817 11.6043C2.48049 11.8684 2.54338 12.1731 2.50984 12.4749C2.50844 12.4903 2.49447 12.5001 2.48049 12.4987C2.46652 12.4973 2.45534 12.4833 2.45674 12.4694C2.45953 12.4386 2.46233 12.4065 2.46372 12.3757C2.41761 12.3799 2.37429 12.3995 2.33935 12.4288C2.29323 12.4694 2.26948 12.5197 2.26389 12.5798C2.28764 12.5756 2.3114 12.5756 2.33656 12.5784C2.35193 12.5798 2.36171 12.5937 2.36031 12.6077C2.35891 12.6217 2.34494 12.6329 2.33097 12.6315C2.27087 12.6245 2.21218 12.6426 2.16886 12.679C2.11436 12.7223 2.08501 12.7866 2.08641 12.8551C2.12694 12.8257 2.17445 12.8033 2.22476 12.7922C2.23873 12.7894 2.25411 12.7978 2.2569 12.8117C2.2597 12.8257 2.25131 12.8411 2.23734 12.8439C2.10178 12.8746 2.00116 12.9878 1.98579 13.1262C1.96623 13.305 2.09479 13.4671 2.27367 13.4867C2.49307 13.5119 2.67474 13.3148 2.63002 13.0968C2.60347 12.9655 2.62304 12.8103 2.67474 12.6888C2.70129 12.6245 2.73763 12.5644 2.78095 12.5113C2.85781 12.4176 2.89833 12.3017 2.89833 12.1815C2.89833 12.1256 2.88995 12.0725 2.87318 12.0194C2.86899 12.0054 2.87598 11.99 2.88995 11.9858C2.90392 11.9816 2.9193 11.9886 2.92349 12.0026C2.94166 12.0599 2.95144 12.1214 2.95144 12.1815C2.95144 12.2569 2.93746 12.331 2.90951 12.3995C3.13451 12.9655 3.42658 13.4965 3.77734 13.9828C4.13369 14.4775 4.55153 14.9247 5.01828 15.316C5.18598 15.4711 5.28101 15.6863 5.28101 15.9141C5.28101 16.0972 5.21952 16.2732 5.10632 16.4172C5.26424 16.3417 5.40119 16.2271 5.50181 16.0846C5.64155 15.8889 5.70863 15.6486 5.69046 15.4096L5.68627 15.4068Z" fill="#FF0000"/>
<path fill-rule="evenodd" clip-rule="evenodd" d="M8.2352 14C8.43504 13.7931 8.66702 13.6184 8.92415 13.4829C8.92694 13.4801 8.93114 13.4801 8.93533 13.4787C8.9507 13.4773 8.96328 13.4871 8.96468 13.5025C8.97865 13.6198 8.98983 13.7386 8.99821 13.8588C9.0052 13.9776 9.00939 14.0978 9.00939 14.2166C9.00939 14.2836 9.00939 14.3507 9.0066 14.4164C9.15473 14.1285 9.42584 13.8057 9.75005 13.8057C10.0044 13.8057 10.1986 14.0293 10.323 14.2347C10.323 13.8127 10.33 13.3963 10.3565 12.984C10.3831 12.5676 10.4306 12.1567 10.5117 11.7542C10.2364 12.0156 9.99041 12.3076 9.778 12.6235C9.55301 12.9588 9.36714 13.3222 9.2274 13.7079C9.22181 13.7219 9.20644 13.7288 9.19246 13.7233C9.17988 13.7191 9.1729 13.7051 9.17569 13.6925C9.25395 13.3096 9.37972 12.9071 9.54602 12.5312C9.69275 12.1986 9.87023 11.8884 10.0729 11.6299C9.57676 11.6313 9.12818 11.7486 8.7299 11.9569C8.2897 12.1874 7.90959 12.5312 7.59516 12.956C7.58678 12.9686 7.57001 12.97 7.55743 12.9616C7.54625 12.9533 7.54346 12.9365 7.55184 12.9239C7.87046 12.4921 8.25616 12.1441 8.70475 11.9094C9.12538 11.6886 9.60192 11.5698 10.1288 11.5768C10.1441 11.5768 10.1553 11.5893 10.1553 11.6033C10.1553 11.6103 10.1525 11.6159 10.1497 11.6201C9.93731 11.8828 9.75005 12.2056 9.59633 12.5522C9.48034 12.8135 9.38391 13.0888 9.30985 13.3613C9.43003 13.0916 9.57257 12.8345 9.73468 12.5913C9.96386 12.2475 10.2336 11.9331 10.5368 11.655C10.548 11.6452 10.5648 11.6452 10.5746 11.6564C10.5815 11.6634 10.5829 11.6718 10.5801 11.6816C10.4893 12.1092 10.4376 12.5438 10.4096 12.9854C10.3873 13.3292 10.3789 13.6771 10.3775 14.0279C10.4544 13.624 10.5494 13.2272 10.664 12.8373C10.8079 12.344 10.9812 11.8646 11.181 11.3993C11.1866 11.3853 11.2034 11.3797 11.216 11.3853C11.2258 11.3895 11.2314 11.3979 11.2328 11.4063C11.3096 11.8604 11.4242 12.3006 11.5723 12.7255C11.6911 13.0637 11.8309 13.3935 11.9902 13.7093C11.9007 13.4046 11.8281 13.0916 11.7736 12.773C11.6841 12.2489 11.652 11.7417 11.659 11.212C11.659 11.1966 11.6716 11.1855 11.6869 11.1855C11.6925 11.1855 11.6981 11.1869 11.7023 11.1911C12.0573 11.444 12.3899 11.7221 12.6959 12.0239C12.8929 12.2182 13.0802 12.4222 13.2549 12.6346C13.1543 12.4753 13.0509 12.3174 12.9432 12.1623C12.6274 11.7067 12.2822 11.2735 11.9105 10.864C11.9007 10.8529 11.9007 10.8361 11.9119 10.8263C11.9189 10.8207 11.9273 10.8179 11.9357 10.8193C12.4779 10.9074 13.0019 11.0499 13.5036 11.2386C13.8809 11.3811 14.2457 11.5502 14.5936 11.7431C14.412 11.6075 14.2275 11.4775 14.0389 11.3518C13.4198 10.9395 12.763 10.5818 12.074 10.2827C12.0601 10.2771 12.0545 10.2617 12.0601 10.2478C12.0642 10.2394 12.0726 10.2324 12.081 10.2324C12.661 10.1569 13.2437 10.1192 13.8278 10.1192C14.5657 10.1192 15.3022 10.1793 16.0288 10.2995C15.5327 10.1667 15.0269 10.0577 14.5126 9.97387C13.8069 9.86067 13.0858 9.79779 12.3507 9.79779C12.3354 9.79779 12.3242 9.78521 12.3242 9.77123C12.3242 9.75866 12.3326 9.74888 12.3437 9.74608C13.2968 9.36597 14.2778 9.03757 15.2812 8.76786C16.1295 8.54007 16.9959 8.35141 17.8749 8.20748C17.1356 8.24521 16.4076 8.32626 15.6948 8.44924C14.6565 8.62811 13.6462 8.89363 12.6749 9.2388C12.661 9.24439 12.6456 9.23601 12.6414 9.22203C12.6386 9.21225 12.6414 9.20247 12.6456 9.19548C12.8259 8.96211 13.0606 8.77624 13.3289 8.65327L17.3173 6.95954C17.3313 6.95395 17.3466 6.95954 17.3522 6.97352C17.3578 6.98749 17.3522 7.00286 17.3383 7.00845L13.3513 8.70078C13.1193 8.80559 12.9125 8.96211 12.7462 9.15496C13.6937 8.82376 14.6747 8.56802 15.6851 8.39474C16.6801 8.22425 17.703 8.13341 18.7455 8.12922C18.5471 7.94196 18.4129 7.71138 18.4129 7.43049C18.4129 6.73874 19.2304 6.05818 19.7419 5.68506L17.3313 6.708C17.1524 6.79045 16.9568 6.86731 16.7751 6.94417L12.5142 8.75249C12.2347 8.87966 11.9944 9.07809 11.8169 9.32405C11.645 9.56162 11.5318 9.8439 11.4983 10.1513C11.4675 10.4406 11.3362 10.7033 11.1238 10.9004C10.9044 11.103 10.6486 11.2008 10.3538 11.2176C10.2126 11.226 10.0868 11.247 9.94849 11.2651C9.30985 11.3476 8.72291 11.5949 8.23101 11.9625C7.7405 12.3286 7.34502 12.8149 7.08649 13.3767C7.42886 13.3711 7.76426 13.2956 8.07589 13.1545C8.09545 13.1461 8.11642 13.1615 8.11362 13.1824C8.08427 13.3613 8.09126 13.5472 8.13598 13.7233C8.15974 13.8183 8.19467 13.9091 8.238 13.9944L8.2352 14Z" fill="#FF0000"/>
<path fill-rule="evenodd" clip-rule="evenodd" d="M6.50237 16.0724C6.42971 16.1199 6.37101 16.1758 6.33049 16.2373C6.23965 16.3729 6.23825 16.5462 6.35843 16.6663C6.41573 16.7236 6.49539 16.76 6.58343 16.76C6.75392 16.76 6.9272 16.5825 7.0907 16.3058C7.29753 15.9564 7.48898 15.4533 7.64689 14.9475C7.76149 14.6316 7.93337 14.3438 8.14998 14.0964C8.16535 14.0782 8.18212 14.0615 8.19749 14.0433C8.14858 13.9497 8.10945 13.8491 8.0829 13.7442C8.04098 13.5766 8.0298 13.4019 8.05216 13.23C7.85512 13.3152 7.64829 13.3739 7.43728 13.4075C7.24862 13.5584 6.99987 13.8099 6.99987 14.0699C6.99987 14.3116 7.21787 14.4528 7.4219 14.5282C7.43588 14.5338 7.44286 14.5492 7.43728 14.5632C7.43169 14.5771 7.41631 14.5841 7.40234 14.5785C7.26259 14.5268 7.11586 14.4458 7.02642 14.3214C6.91742 14.4038 6.82938 14.5198 6.82938 14.661C6.82938 14.8804 7.0362 15.0341 7.22067 15.1096C7.23464 15.1152 7.24023 15.1305 7.23464 15.1445C7.22905 15.1585 7.21368 15.1641 7.19971 15.1585C7.07394 15.1054 6.94956 15.0257 6.86711 14.9153C6.77348 14.995 6.70081 15.1026 6.70081 15.2311C6.70081 15.4184 6.85314 15.5582 7.00546 15.6406C7.01804 15.6476 7.02363 15.6644 7.01664 15.6769C7.00965 15.6895 6.99288 15.6951 6.98031 15.6881C6.8741 15.6308 6.77069 15.5498 6.7078 15.445C6.57923 15.5288 6.46604 15.656 6.46604 15.8167C6.46604 15.9886 6.596 16.1227 6.73575 16.2052C6.74833 16.2122 6.75252 16.2289 6.74553 16.2415C6.73854 16.2541 6.72177 16.2583 6.7092 16.2513C6.62395 16.201 6.55408 16.1395 6.50377 16.0724H6.50237Z" fill="#FF0000"/>
<path fill-rule="evenodd" clip-rule="evenodd" d="M3.71583 17.6584C3.68648 17.6542 3.65993 17.6514 3.63058 17.6514C3.31476 17.6514 3.05902 17.9071 3.05902 18.2229C3.05902 18.2467 3.06042 18.269 3.06321 18.2914C3.11352 18.2173 3.1792 18.1559 3.25606 18.1097C3.36087 18.0468 3.48245 18.0161 3.60403 18.0217C3.59844 17.9937 3.59425 17.9658 3.59425 17.9365C3.59425 17.8274 3.63757 17.7324 3.71443 17.6584H3.71583Z" fill="#FF0000"/>
<path fill-rule="evenodd" clip-rule="evenodd" d="M3.7969 17.2642C3.81646 17.2069 3.85 17.1552 3.89192 17.1133C3.93804 17.0672 3.99394 17.0322 4.05822 17.0127C3.98136 16.94 3.88074 16.9009 3.77454 16.9009C3.54535 16.9009 3.35809 17.0867 3.35809 17.3173C3.35809 17.3481 3.36089 17.376 3.36788 17.4054C3.44054 17.3047 3.55514 17.2461 3.67951 17.2461C3.72004 17.2461 3.75916 17.253 3.79829 17.2642H3.7969Z" fill="#FF0000"/>
<path fill-rule="evenodd" clip-rule="evenodd" d="M5.16361 17.6078C4.88831 17.5869 4.63677 17.4443 4.47466 17.2193C4.3992 17.1131 4.30976 17.0488 4.17421 17.0488C4.07778 17.0488 3.99114 17.088 3.92826 17.1508C3.81786 17.2612 3.7955 17.4345 3.87096 17.5687C3.99394 17.5365 4.1267 17.5715 4.26085 17.6078C4.38383 17.6414 4.52218 17.6777 4.67869 17.6777C4.84779 17.6777 5.00989 17.6525 5.16361 17.6064V17.6078Z" fill="#FF0000"/>
<path fill-rule="evenodd" clip-rule="evenodd" d="M4.14344 18.5961C4.12248 18.5542 4.1113 18.5067 4.1113 18.4578C4.1113 18.3893 4.13366 18.3264 4.17139 18.2747C4.15182 18.2719 4.13226 18.2705 4.1127 18.2705C3.98832 18.2705 3.87513 18.3208 3.79407 18.4033C3.71302 18.4843 3.66132 18.5975 3.66132 18.7219C3.66132 18.7582 3.66551 18.796 3.67529 18.8309C3.73538 18.7652 3.80665 18.7107 3.88631 18.6702C3.96456 18.6297 4.0526 18.6045 4.14484 18.5961H4.14344Z" fill="#FF0000"/>
<path fill-rule="evenodd" clip-rule="evenodd" d="M8.22682 14.6582C8.14856 14.749 8.0731 14.8399 8.00043 14.9349C8.04515 15.0551 8.08428 15.1767 8.12061 15.2996C8.19188 15.2046 8.26594 15.1138 8.3442 15.0243C8.31066 14.9014 8.27153 14.7798 8.22821 14.6582H8.22682Z" fill="#FF0000"/>
<path fill-rule="evenodd" clip-rule="evenodd" d="M8.10803 14.2278C8.15834 14.3354 8.20446 14.4458 8.24638 14.5562C8.33442 14.4569 8.42665 14.3591 8.52028 14.2655C8.5119 14.2291 8.50351 14.1914 8.49373 14.1551C8.47137 14.0684 8.44762 13.9832 8.42106 13.8979C8.33861 13.9706 8.26175 14.0489 8.19048 14.1313C8.16253 14.1635 8.13598 14.1956 8.10943 14.2291L8.10803 14.2278Z" fill="#FF0000"/>
<path fill-rule="evenodd" clip-rule="evenodd" d="M7.86072 14.5991C7.90264 14.6899 7.94177 14.7822 7.9781 14.8758C8.05217 14.7822 8.12763 14.6899 8.20589 14.6005C8.16536 14.4915 8.12065 14.3825 8.07173 14.2749C7.99348 14.3769 7.9236 14.4859 7.86212 14.5991H7.86072Z" fill="#FF0000"/>
<path fill-rule="evenodd" clip-rule="evenodd" d="M7.67065 15.041C7.69441 15.0941 7.71537 15.1459 7.73773 15.199C7.80202 15.1053 7.86909 15.0145 7.93897 14.9237C7.90543 14.8342 7.86909 14.7448 7.82857 14.6567C7.77826 14.7546 7.73354 14.8552 7.69581 14.96C7.68742 14.9865 7.67904 15.0131 7.67065 15.0396V15.041Z" fill="#FF0000"/>
<path fill-rule="evenodd" clip-rule="evenodd" d="M8.63906 14.6163C8.64186 14.6303 8.63068 14.6442 8.6167 14.647C8.60273 14.6484 8.58876 14.6386 8.58596 14.6247C8.56919 14.5255 8.55382 14.4262 8.53286 14.3284C8.44062 14.4206 8.35258 14.5157 8.26594 14.6135C8.31485 14.7504 8.35957 14.8846 8.3973 15.0257C8.4001 15.0355 8.3973 15.0453 8.39032 15.0523C8.29808 15.1557 8.21144 15.2633 8.12899 15.3765C8.04654 15.4883 7.96968 15.6043 7.89841 15.7231C7.89562 15.7301 7.88863 15.7343 7.88164 15.7357C7.86767 15.7398 7.85229 15.7315 7.8495 15.7161C7.82015 15.6043 7.78522 15.4925 7.74609 15.3821C7.71534 15.2941 7.68041 15.206 7.64407 15.1194C7.49594 15.5749 7.32126 16.0151 7.134 16.331C6.95932 16.6244 6.77206 16.8117 6.5806 16.8117C6.47859 16.8117 6.38496 16.7698 6.31788 16.7027C6.30391 16.6887 6.29133 16.6747 6.28015 16.6594C6.15158 16.971 5.93498 17.2365 5.66107 17.4252C5.38158 17.618 5.0434 17.7312 4.67726 17.7312C4.51376 17.7312 4.37261 17.6935 4.24545 17.6586C4.07076 17.611 3.88909 17.5565 3.74236 17.7033C3.68367 17.762 3.64594 17.8444 3.64594 17.9353C3.64594 18.0918 3.75633 18.2259 3.90866 18.2567C3.97015 18.2301 4.03722 18.2161 4.10849 18.2161C4.14203 18.2161 4.17697 18.2189 4.20911 18.2259C4.26361 18.1756 4.33768 18.1463 4.41733 18.1463C4.53472 18.1463 4.62276 18.1505 4.73456 18.1002C4.74853 18.0946 4.7639 18.1002 4.76949 18.1141C4.77508 18.1281 4.76949 18.1435 4.75552 18.1491C4.63534 18.2036 4.5445 18.1994 4.41733 18.1994C4.34746 18.1994 4.28318 18.2273 4.23706 18.2734C4.19094 18.321 4.1616 18.3852 4.1616 18.4565C4.1616 18.5278 4.19094 18.5921 4.23706 18.6382C4.28318 18.6843 4.34746 18.7136 4.41873 18.7136C4.55987 18.7136 4.67447 18.5991 4.67447 18.4579C4.67447 18.4425 4.68704 18.4314 4.70102 18.4314C4.71499 18.4314 4.72757 18.4439 4.72757 18.4579C4.72757 18.5068 4.71639 18.5543 4.69543 18.5949C4.7108 18.5977 4.72617 18.5991 4.74154 18.5991C4.81841 18.5991 4.88828 18.5683 4.93859 18.518C4.9889 18.4677 5.01964 18.3978 5.01964 18.321C5.01964 18.3056 5.03222 18.2944 5.04619 18.2944C5.06017 18.2944 5.07274 18.307 5.07274 18.321C5.07274 18.3615 5.06576 18.4006 5.05178 18.4369C5.06855 18.4383 5.08392 18.4397 5.0993 18.4397C5.23485 18.4397 5.35922 18.3629 5.42071 18.2427C5.51993 18.0485 5.68623 17.9269 5.90982 17.9269C5.92519 17.9269 5.93637 17.9395 5.93637 17.9534C5.93637 17.9674 5.9238 17.98 5.90982 17.98C5.72256 17.98 5.55207 18.089 5.47242 18.2581C5.45006 18.3084 5.40813 18.3587 5.36621 18.395C5.44167 18.4342 5.52552 18.4537 5.61216 18.4537C5.72815 18.4537 5.83995 18.4174 5.93358 18.3475C6.05376 18.2595 6.18931 18.1882 6.33465 18.1407C6.4744 18.0946 6.62392 18.0694 6.77904 18.0694C6.79441 18.0694 6.8056 18.082 6.8056 18.096C6.8056 18.1099 6.79302 18.1225 6.77904 18.1225C6.7469 18.1225 6.71616 18.1225 6.68541 18.1253C6.70777 18.2329 6.8014 18.3014 6.9118 18.3C6.90621 18.2776 6.90202 18.2539 6.90202 18.2287C6.90202 18.2134 6.9146 18.2022 6.92857 18.2022C6.94255 18.2022 6.95512 18.2148 6.95512 18.2287C6.95512 18.3503 7.05434 18.4495 7.17592 18.4495C7.1857 18.4495 7.19549 18.4495 7.20387 18.4481C7.17033 18.4118 7.14378 18.3671 7.12561 18.3182C7.12142 18.3042 7.12841 18.2888 7.14238 18.2846C7.15636 18.2804 7.17173 18.2874 7.17592 18.3014C7.22204 18.4328 7.34502 18.5194 7.48336 18.5194C7.66364 18.5194 7.80897 18.3727 7.80897 18.1938C7.80897 18.1044 7.77264 18.0219 7.71394 17.9632C7.6273 17.8766 7.49874 17.8458 7.38275 17.8836C7.16055 17.9506 6.91599 17.9045 6.73153 17.7634C6.70917 17.7913 6.69659 17.8263 6.69659 17.864C6.69659 17.8794 6.68402 17.8905 6.67004 17.8905C6.65607 17.8905 6.64349 17.878 6.64349 17.864C6.64349 17.8039 6.66864 17.748 6.71196 17.7075C7.00823 17.4126 7.27933 17.0954 7.52529 16.7558C7.76984 16.419 7.98645 16.0613 8.17371 15.6867C8.24219 15.5554 8.37914 15.4729 8.52587 15.4729C8.54124 15.4729 8.55242 15.4855 8.55242 15.4995C8.55242 15.5135 8.53984 15.526 8.52587 15.526C8.3973 15.526 8.27992 15.5973 8.21983 15.7105C8.20865 15.7329 8.19747 15.7552 8.18629 15.7776C8.19188 15.7748 8.19747 15.7734 8.20306 15.772C8.37494 15.7231 8.49373 15.9509 8.54963 16.0766C8.63208 16.2639 8.68798 16.5015 8.71034 16.6622C8.82353 16.3617 8.88083 16.0459 8.88083 15.7245C8.88083 15.5903 8.87104 15.4576 8.85148 15.3262C8.84589 15.2927 8.84729 15.2843 8.85288 15.2521C8.91576 14.9098 8.9479 14.5632 8.9479 14.2138C8.9479 14.0936 8.94371 13.9762 8.93672 13.8589C8.92974 13.7541 8.92135 13.6492 8.90877 13.5444C8.74667 13.6325 8.59574 13.7359 8.456 13.8547C8.48534 13.9469 8.51329 14.0419 8.53705 14.137C8.57758 14.2949 8.60553 14.4514 8.63068 14.6121L8.63906 14.6163Z" fill="#FF0000"/>
<path fill-rule="evenodd" clip-rule="evenodd" d="M8.0787 15.3538C8.04516 15.2294 8.00463 15.1064 7.96131 14.9849C7.89284 15.0757 7.82576 15.1665 7.76147 15.2616C7.77405 15.2965 7.78663 15.33 7.79921 15.365C7.83135 15.4572 7.86069 15.5494 7.88725 15.6431C7.94734 15.5452 8.01162 15.4488 8.0801 15.3552L8.0787 15.3538Z" fill="#FF0000"/>
<path fill-rule="evenodd" clip-rule="evenodd" d="M9.73331 15.3834C9.83393 15.4267 9.94153 15.4505 10.0519 15.4505C10.2993 15.4505 10.5229 15.3359 10.6836 15.1514C10.8471 14.9656 10.9477 14.7084 10.9477 14.4247C10.9477 14.2221 10.896 14.0209 10.7912 13.8462C10.6179 13.9817 10.4768 14.1676 10.3719 14.3507C10.365 14.3633 10.3482 14.3674 10.3356 14.3605C10.3314 14.3577 10.3272 14.3535 10.3258 14.3493C10.214 14.1397 10.0156 13.8588 9.75008 13.8588C9.40491 13.8588 9.11843 14.271 8.99964 14.5575C8.98427 14.8048 8.95492 15.0508 8.90741 15.294C8.92977 15.4365 8.94235 15.5818 8.94235 15.7258C8.98148 15.7328 9.022 15.737 9.06253 15.737C9.28193 15.737 9.48177 15.6238 9.6271 15.4393C9.77384 15.2534 9.86327 14.9963 9.86327 14.7126C9.86327 14.6469 9.85768 14.5799 9.8479 14.5156C9.84511 14.5002 9.85629 14.4876 9.87026 14.4848C9.88563 14.482 9.89821 14.4932 9.901 14.5072C9.91079 14.5757 9.91638 14.6441 9.91638 14.7126C9.91638 14.9656 9.8479 15.1975 9.73191 15.382L9.73331 15.3834Z" fill="#FF0000"/>
<path fill-rule="evenodd" clip-rule="evenodd" d="M10.8708 14.9696C10.9798 14.9906 11.0902 14.9892 11.1992 14.9682C11.4074 14.9291 11.6017 14.8229 11.761 14.6747C11.9217 14.5252 12.0475 14.3337 12.1173 14.1227C11.9245 13.8698 11.6534 13.6504 11.3194 13.6504C11.1377 13.6504 10.9756 13.7147 10.8345 13.8153C10.9449 13.9998 11.0008 14.2108 11.0008 14.426C11.0008 14.6244 10.9533 14.8117 10.8708 14.971V14.9696Z" fill="#FF0000"/>
<path fill-rule="evenodd" clip-rule="evenodd" d="M12.0754 14.3532C12.1062 14.3588 12.1369 14.3602 12.1663 14.3602C12.3717 14.3602 12.5576 14.247 12.6917 14.0626C12.8231 13.8837 12.9069 13.6377 12.9125 13.3652C12.5785 13.4854 12.327 13.8194 12.1719 14.1255C12.1467 14.2037 12.1146 14.2792 12.0754 14.3518V14.3532Z" fill="#FF0000"/>
<path fill-rule="evenodd" clip-rule="evenodd" d="M12.8734 13.8434C12.9726 13.9272 13.0928 13.9803 13.2242 13.9803C13.3374 13.9803 13.445 13.9412 13.5386 13.8713C13.6336 13.8015 13.7161 13.7022 13.7818 13.5807C13.6141 13.4269 13.4086 13.3193 13.1767 13.3193C13.104 13.3193 13.0341 13.3291 12.967 13.3487C12.9656 13.5276 12.9321 13.6953 12.8734 13.842V13.8434Z" fill="#FF0000"/>
<path fill-rule="evenodd" clip-rule="evenodd" d="M18.7036 16.1558C18.6463 16.2243 18.6156 16.3096 18.6156 16.399C18.6156 16.5569 18.7064 16.7232 18.8741 16.7428C19.0558 16.7651 19.1564 16.5946 19.1913 16.4381C19.2263 16.2495 19.2458 16.0566 19.2458 15.8652C19.2458 15.3467 19.1242 14.8115 18.8322 14.4342C18.5932 14.1253 18.241 13.9213 17.7463 13.9185C17.2377 13.9185 16.7569 13.7983 16.3307 13.5859C15.8919 13.3665 15.5118 13.0493 15.2169 12.6636C14.9556 12.6734 14.7083 12.7586 14.4833 12.9039C14.2331 13.0646 14.0137 13.3008 13.8376 13.5901C13.8027 13.6586 13.7622 13.7215 13.7161 13.7773C13.8838 13.8137 14.0445 13.8151 14.2122 13.7718C14.3659 13.7326 14.5084 13.6572 14.637 13.551C14.6482 13.5412 14.6649 13.5426 14.6747 13.5552C14.6789 13.5593 14.6803 13.5663 14.6803 13.5719C14.6971 13.8864 14.957 14.1337 15.2728 14.1337C15.4154 14.1337 15.5523 14.0834 15.6599 13.9898C15.6711 13.98 15.6879 13.9814 15.6977 13.9926C15.7074 14.0037 15.706 14.0205 15.6949 14.0303C15.5775 14.1323 15.428 14.1868 15.2728 14.1868C15.2617 14.1868 15.2519 14.1868 15.2407 14.1868C15.3064 14.4509 15.5439 14.6368 15.8164 14.6368C16.04 14.6368 16.2441 14.5124 16.3447 14.3126C16.3517 14.3 16.367 14.2944 16.381 14.3014C16.3936 14.3084 16.3992 14.3238 16.3922 14.3377C16.3237 14.4719 16.2105 14.5795 16.0708 14.6382C16.184 14.7598 16.3391 14.8268 16.5054 14.8268C16.75 14.8268 16.9708 14.6759 17.0588 14.4467C17.0644 14.4328 17.0798 14.4258 17.0937 14.4314C17.1077 14.437 17.1147 14.4523 17.1091 14.4663C17.0714 14.5627 17.0127 14.648 16.9358 14.715C17.042 14.8017 17.1734 14.8478 17.3103 14.8478C17.4473 14.8478 17.5661 14.8045 17.6653 14.7304C17.7673 14.655 17.8428 14.5474 17.8791 14.423C17.8833 14.409 17.8987 14.4006 17.9126 14.4048C17.9266 14.409 17.935 14.4244 17.9308 14.4383C17.8931 14.5697 17.8134 14.6829 17.7086 14.7654C17.8134 14.8464 17.9392 14.8883 18.0706 14.8883C18.2494 14.8883 18.4185 14.8073 18.5317 14.6675C18.5415 14.6564 18.5583 14.6536 18.5694 14.6633C18.5806 14.6731 18.5834 14.6899 18.5736 14.7011C18.4702 14.8282 18.3235 14.9121 18.1614 14.9344C18.2634 15.1343 18.466 15.2587 18.6896 15.2587C18.7469 15.2587 18.8042 15.2503 18.8587 15.2349C18.8727 15.2307 18.8881 15.2391 18.8923 15.2531C18.8965 15.267 18.8881 15.2824 18.8741 15.2866C18.814 15.3048 18.7525 15.3132 18.6896 15.3132C18.6142 15.3132 18.5415 15.3006 18.473 15.2754C18.4912 15.3816 18.5429 15.4767 18.6184 15.5465C18.7036 15.6262 18.8168 15.6751 18.9426 15.6751C18.9579 15.6751 18.9691 15.6877 18.9691 15.7017C18.9691 15.717 18.9565 15.7282 18.9426 15.7282C18.8266 15.7282 18.7204 15.6891 18.6337 15.6262C18.6086 15.6821 18.596 15.7408 18.596 15.8009C18.596 16.0049 18.7413 16.1796 18.9426 16.2159C18.9565 16.2187 18.9663 16.2327 18.9635 16.2467C18.9607 16.2606 18.9468 16.2704 18.9328 16.2676C18.8433 16.2509 18.7651 16.2117 18.7008 16.1544L18.7036 16.1558Z" fill="#FF0000"/>
<path fill-rule="evenodd" clip-rule="evenodd" d="M17.1608 13.2285C17.2251 13.3361 17.2866 13.4451 17.3467 13.5555C17.4767 13.5471 17.6066 13.5415 17.738 13.5388C17.7184 13.5038 17.6975 13.4689 17.6779 13.4339C17.643 13.3739 17.6066 13.3138 17.5703 13.2551C17.4347 13.2439 17.2978 13.2355 17.1608 13.2299V13.2285Z" fill="#FF0000"/>
<path fill-rule="evenodd" clip-rule="evenodd" d="M16.7499 13.2202C16.8282 13.3404 16.9023 13.462 16.9749 13.585C17.0783 13.5738 17.1832 13.5654 17.2866 13.5584C17.2251 13.4466 17.1622 13.3348 17.0965 13.2258C16.9805 13.2216 16.8659 13.2202 16.7499 13.2202Z" fill="#FF0000"/>
<path fill-rule="evenodd" clip-rule="evenodd" d="M16.2692 13.2338C16.3754 13.3637 16.4788 13.4979 16.5781 13.6348C16.6913 13.6181 16.8031 13.6041 16.9176 13.5915C16.8436 13.4657 16.7667 13.3428 16.6871 13.2212C16.5473 13.2212 16.409 13.2268 16.2692 13.2338Z" fill="#FF0000"/>
<path fill-rule="evenodd" clip-rule="evenodd" d="M16.511 12.8677C16.5809 12.9655 16.6493 13.0647 16.715 13.1667C16.831 13.1667 16.947 13.1667 17.063 13.1709C17.0029 13.0717 16.94 12.9739 16.8771 12.8775C16.7555 12.8719 16.6326 12.8691 16.511 12.8691V12.8677Z" fill="#FF0000"/>
<path fill-rule="evenodd" clip-rule="evenodd" d="M15.9688 12.8817C16.0568 12.9795 16.1434 13.0801 16.2273 13.1821C16.3684 13.1737 16.511 13.1695 16.6521 13.1667C16.585 13.0661 16.5166 12.9655 16.4453 12.8677C16.2846 12.8677 16.1253 12.8733 15.9688 12.8803V12.8817Z" fill="#FF0000"/>
<path fill-rule="evenodd" clip-rule="evenodd" d="M16.2636 12.5366C16.3349 12.6288 16.4048 12.721 16.4732 12.8146C16.5962 12.8146 16.7192 12.8174 16.8422 12.8216L16.8296 12.8021C16.7709 12.714 16.7094 12.6274 16.6479 12.5421C16.5361 12.538 16.4243 12.5352 16.3125 12.5352H16.2636V12.5366Z" fill="#FF0000"/>
<path fill-rule="evenodd" clip-rule="evenodd" d="M15.9436 12.1479C16.0386 12.257 16.1309 12.3687 16.2217 12.4833C16.2524 12.4833 16.2818 12.4833 16.3111 12.4833C16.409 12.4833 16.5082 12.4861 16.606 12.4889C16.5236 12.3771 16.4383 12.2667 16.3517 12.1577C16.2888 12.1549 16.2245 12.1535 16.163 12.1521C16.0903 12.1507 16.0163 12.1493 15.9436 12.1493V12.1479Z" fill="#FF0000"/>
<path fill-rule="evenodd" clip-rule="evenodd" d="M15.6641 12.0993C15.7186 12.0979 15.7731 12.0965 15.8262 12.0951C15.7801 12.0434 15.7326 11.9916 15.6851 11.9399C15.6739 11.9916 15.6669 12.0448 15.6641 12.0993Z" fill="#FF0000"/>
<path fill-rule="evenodd" clip-rule="evenodd" d="M15.7214 12.5016C15.8653 12.4932 16.0093 12.4876 16.1532 12.4848C16.0624 12.3702 15.9688 12.2584 15.8723 12.1494C15.8025 12.1494 15.7312 12.1522 15.6613 12.1536C15.6613 12.2738 15.6823 12.3898 15.7214 12.5016Z" fill="#FF0000"/>
<path fill-rule="evenodd" clip-rule="evenodd" d="M15.8262 12.7267C15.8584 12.7617 15.8905 12.7966 15.9226 12.8316C16.0834 12.8232 16.2455 12.8176 16.4076 12.8162C16.3391 12.7226 16.2678 12.6289 16.1965 12.5381C16.0456 12.5395 15.8933 12.5465 15.7424 12.5549C15.7661 12.6135 15.7941 12.6708 15.8262 12.7267Z" fill="#FF0000"/>
<path fill-rule="evenodd" clip-rule="evenodd" d="M15.4615 12.868C15.5914 12.854 15.7228 12.8428 15.8542 12.8344C15.8318 12.8093 15.8081 12.7841 15.7857 12.7604C15.6264 12.6975 15.4573 12.6625 15.2854 12.6611C15.3413 12.7324 15.4 12.8009 15.4615 12.868Z" fill="#FF0000"/>
<path fill-rule="evenodd" clip-rule="evenodd" d="M15.8374 13.2132C15.945 13.2035 16.0526 13.1937 16.1602 13.1867C16.075 13.0847 15.9883 12.9841 15.8989 12.8862C15.7676 12.8946 15.6362 12.9044 15.5062 12.9184C15.6096 13.0246 15.72 13.1224 15.836 13.2132H15.8374Z" fill="#FF0000"/>
<path fill-rule="evenodd" clip-rule="evenodd" d="M16.4858 13.5988C16.395 13.4758 16.2999 13.3556 16.2021 13.2368C16.1015 13.2424 15.9995 13.2508 15.9003 13.2592C16.0428 13.364 16.1951 13.4562 16.3544 13.5359C16.3978 13.5568 16.4411 13.5778 16.4858 13.5974V13.5988Z" fill="#FF0000"/>
<path fill-rule="evenodd" clip-rule="evenodd" d="M17.0267 13.7804C17.0001 13.7343 16.9735 13.6882 16.947 13.6421C16.8548 13.6519 16.7639 13.6631 16.6731 13.6756C16.7877 13.7176 16.9051 13.7525 17.0267 13.7818V13.7804Z" fill="#FF0000"/>
<path fill-rule="evenodd" clip-rule="evenodd" d="M17.4403 13.8502C17.3998 13.7692 17.3578 13.6895 17.3159 13.6099C17.2125 13.6169 17.1091 13.6252 17.0057 13.635C17.0364 13.6881 17.0672 13.7426 17.0965 13.7957C17.2097 13.8195 17.3243 13.8376 17.4403 13.8488V13.8502Z" fill="#FF0000"/>
<path fill-rule="evenodd" clip-rule="evenodd" d="M17.9224 13.8755C17.8735 13.7805 17.8218 13.6854 17.7687 13.5918C17.6374 13.5946 17.506 13.6002 17.3746 13.6072C17.418 13.6896 17.4613 13.7721 17.5032 13.8559C17.5829 13.8629 17.6653 13.8657 17.7464 13.8657C17.8064 13.8657 17.8651 13.8699 17.921 13.8755H17.9224Z" fill="#FF0000"/>
<path fill-rule="evenodd" clip-rule="evenodd" d="M19.2388 10.7311C19.4512 10.8849 19.7517 10.822 19.9753 10.7311C20.0954 10.6822 20.2044 10.6179 20.2673 10.5453C20.231 10.4852 20.1821 10.4321 20.1262 10.3888C19.9068 10.2155 19.4834 10.1204 19.2388 10.2965C19.0725 10.4167 19.0725 10.611 19.2388 10.7311Z" fill="#FF0000"/>
<path fill-rule="evenodd" clip-rule="evenodd" d="M20.5762 18.0859C20.5846 18.1181 20.5888 18.1544 20.5888 18.1949C20.5888 18.269 20.5678 18.3389 20.5301 18.3976C20.6307 18.406 20.7243 18.4409 20.804 18.494C20.8781 18.5443 20.9409 18.61 20.9857 18.6882C21.0094 18.5303 20.9661 18.3738 20.8599 18.2536C20.7872 18.1712 20.688 18.1111 20.5762 18.0859Z" fill="#FF0000"/>
<path fill-rule="evenodd" clip-rule="evenodd" d="M21.5964 8.75365C21.7124 8.91157 21.8339 9.06529 21.9611 9.21202C22.0659 9.3336 22.1763 9.45239 22.2895 9.56837C22.14 9.11001 22.024 8.63767 21.9429 8.15275C21.8633 7.67342 21.8172 7.18291 21.8088 6.68262C21.5502 7.12841 21.2582 7.55184 20.9368 7.95011C20.6153 8.34699 20.2646 8.71732 19.8873 9.0597C20.0913 9.0024 20.2911 8.93672 20.4882 8.86266C20.7174 8.77601 20.9424 8.67679 21.159 8.56779C21.1841 8.46997 21.2051 8.37215 21.2246 8.27293C21.2274 8.25895 21.2414 8.24917 21.2554 8.25197C21.2694 8.25476 21.2791 8.26874 21.2763 8.28271C21.2288 8.53286 21.1631 8.77601 21.0835 9.01218C21.0038 9.24416 20.9102 9.47055 20.8012 9.68716C20.8795 9.73887 20.9535 9.79756 21.0206 9.86324C21.1114 9.95128 21.1841 10.0463 21.2414 10.1469C21.349 9.84787 21.4287 9.54182 21.4818 9.23019C21.5391 8.89759 21.5642 8.55941 21.5586 8.22122C21.5586 8.20585 21.5698 8.19467 21.5852 8.19467C21.6006 8.19467 21.6117 8.20585 21.6117 8.22122C21.6145 8.4001 21.6089 8.57757 21.595 8.75505L21.5964 8.75365Z" fill="#FF0000"/>
<path fill-rule="evenodd" clip-rule="evenodd" d="M16.5152 17.2642C16.5347 17.2069 16.5683 17.1552 16.6102 17.1133C16.6563 17.0672 16.7122 17.0322 16.7765 17.0127C16.6996 16.94 16.599 16.9009 16.4928 16.9009C16.2636 16.9009 16.0764 17.0867 16.0764 17.3173C16.0764 17.3481 16.0805 17.376 16.0861 17.4054C16.1588 17.3047 16.2734 17.2461 16.3978 17.2461C16.4383 17.2461 16.4774 17.253 16.5166 17.2642H16.5152Z" fill="#FF0000"/>
<path fill-rule="evenodd" clip-rule="evenodd" d="M16.4355 17.6584C16.4062 17.6542 16.3796 17.6514 16.3503 17.6514C16.1924 17.6514 16.0498 17.7157 15.9464 17.8191C15.822 17.9434 15.7619 18.1167 15.7829 18.2914C15.9003 18.1209 16.0917 18.0203 16.2986 18.0203C16.307 18.0203 16.3153 18.0203 16.3251 18.0203C16.3195 17.9923 16.3153 17.9644 16.3153 17.9351C16.3153 17.826 16.3587 17.7324 16.4355 17.657V17.6584Z" fill="#FF0000"/>
<path fill-rule="evenodd" clip-rule="evenodd" d="M16.8618 18.5961C16.8408 18.5542 16.8296 18.5067 16.8296 18.4578C16.8296 18.3893 16.852 18.3264 16.8897 18.2747C16.8701 18.2719 16.8506 18.2705 16.831 18.2705C16.7066 18.2705 16.5935 18.3208 16.5124 18.4033C16.4313 18.4857 16.3796 18.5975 16.3796 18.7219C16.3796 18.7582 16.3838 18.796 16.3922 18.8309C16.5138 18.6967 16.6815 18.6129 16.8618 18.5961Z" fill="#FF0000"/>
<path fill-rule="evenodd" clip-rule="evenodd" d="M17.3956 18.4563C17.3956 18.4409 17.4082 18.4297 17.4222 18.4297C17.4361 18.4297 17.4487 18.4423 17.4487 18.4563C17.4487 18.5052 17.4375 18.5527 17.4166 18.5932C17.4319 18.596 17.4473 18.5974 17.4627 18.5974C17.6164 18.5974 17.7408 18.473 17.7408 18.3193C17.7408 18.3039 17.7534 18.2928 17.7673 18.2928C17.7813 18.2928 17.7939 18.3053 17.7939 18.3193C17.7939 18.3598 17.7869 18.399 17.7729 18.4353C17.7883 18.4367 17.8037 18.4381 17.8204 18.4381C17.8903 18.4381 17.956 18.4185 18.0105 18.3836C18.0664 18.3487 18.1125 18.2983 18.1418 18.2397C18.2383 18.0468 18.4102 17.9252 18.6296 17.9252C18.6449 17.9252 18.6561 17.9378 18.6561 17.9518C18.6561 17.9658 18.6435 17.9783 18.6296 17.9783C18.4325 17.9783 18.2774 18.0873 18.1894 18.2606C18.1642 18.3109 18.1293 18.357 18.0859 18.3934C18.1614 18.4325 18.2453 18.4521 18.3319 18.4521C18.4479 18.4521 18.5597 18.4157 18.6533 18.3459C18.7735 18.2578 18.9091 18.1866 19.0544 18.139C19.1941 18.0929 19.3437 18.0678 19.4988 18.0678C19.5142 18.0678 19.5253 18.0803 19.5253 18.0943C19.5253 18.1083 19.5142 18.1209 19.4988 18.1209C19.4666 18.1209 19.4359 18.1209 19.4052 18.1237C19.4275 18.2327 19.5225 18.2997 19.6315 18.2983C19.6259 18.276 19.6218 18.2522 19.6218 18.2271C19.6218 18.2117 19.6343 18.2005 19.6483 18.2005C19.6623 18.2005 19.6749 18.2131 19.6749 18.2271C19.6749 18.2886 19.7 18.3431 19.7391 18.3836C19.7881 18.4325 19.8551 18.4549 19.9236 18.4465C19.8901 18.4087 19.8635 18.3654 19.8454 18.3165C19.8412 18.3025 19.8481 18.2872 19.8621 18.283C19.8761 18.2788 19.8915 18.2858 19.8957 18.2997C19.9739 18.5233 20.2632 18.5932 20.4337 18.4227C20.4924 18.364 20.5287 18.2816 20.5287 18.1921C20.5287 17.942 20.3331 17.8693 20.1193 17.8693C19.7014 17.8693 19.5701 17.5563 19.5701 17.193C19.5701 16.8701 19.6553 16.5711 19.7587 16.2692C19.8761 15.9241 19.9138 15.5537 19.8663 15.1946C19.8188 14.8396 19.6902 14.4973 19.4736 14.2038C19.4652 14.1926 19.4666 14.1758 19.4792 14.1661C19.4904 14.1577 19.5072 14.1591 19.5169 14.1716C19.6413 14.3407 19.7391 14.5252 19.8076 14.7194C20.0103 14.7586 20.2073 14.8159 20.396 14.8885C20.5664 14.9542 20.7313 15.0325 20.8879 15.1219C20.6601 14.6132 20.2408 14.2094 19.7238 14.0012C19.2822 13.8223 18.8965 13.6476 18.4912 13.3933C18.2229 13.2256 18.0454 12.9866 17.8651 12.7337C17.643 12.422 17.4403 12.1369 17.0057 12.0741C16.9917 12.0727 16.9806 12.0587 16.9834 12.0433C16.9847 12.0293 16.9987 12.0182 17.0141 12.021C17.4711 12.0866 17.6807 12.3829 17.9099 12.7029C18.0147 12.8496 18.1223 13.0006 18.2592 13.1375C18.9342 13.1613 19.6679 12.9614 20.252 12.5729C20.7733 12.2264 21.1743 11.7275 21.3057 11.1042C21.4007 10.657 21.3155 10.228 20.9773 9.8996C20.6363 9.56701 20.122 9.41748 19.6525 9.41748C19.2486 9.41748 18.8825 9.53626 18.6184 9.72632C18.3571 9.91498 18.1949 10.1763 18.1949 10.4628C18.1949 10.7493 18.3347 10.9994 18.5625 11.1839C18.9733 11.5179 19.4834 11.5332 19.9767 11.4172C20.2017 11.2509 20.3373 11.0427 20.3373 10.8163C20.3373 10.7339 20.3205 10.6598 20.2883 10.5941C20.2185 10.6668 20.1095 10.7311 19.9907 10.78C19.7475 10.8792 19.4317 10.9393 19.2025 10.7744C19.0055 10.6319 19.0041 10.3957 19.2025 10.2532C19.4666 10.0617 19.9152 10.1581 20.1542 10.3454C20.2953 10.4572 20.3918 10.6137 20.3918 10.8163C20.3918 11.1042 20.1933 11.3641 19.8719 11.55C19.2612 11.905 18.3459 11.9329 17.6877 11.6856C17.1496 11.4843 16.5627 11.3879 15.9884 11.3935C15.8472 11.5374 15.748 11.7009 15.6963 11.8784C15.7634 11.9497 15.8277 12.021 15.8919 12.095C15.9814 12.095 16.0708 12.095 16.1588 12.0964C16.2064 12.0964 16.2553 12.0992 16.3028 12.1006C16.2217 12 16.1379 11.9022 16.0512 11.8043C16.0415 11.7932 16.0429 11.7764 16.054 11.7666C16.0652 11.7568 16.082 11.7582 16.0918 11.7694C16.3713 12.0866 16.6312 12.4206 16.8674 12.7728C16.9554 12.9041 17.0406 13.0369 17.1231 13.1725C17.2587 13.178 17.3942 13.185 17.5298 13.1962C17.4795 13.1166 17.4291 13.0383 17.3774 12.9614C17.3691 12.9489 17.3718 12.9321 17.3844 12.9237C17.397 12.9153 17.4138 12.9181 17.4222 12.9307C17.5256 13.0858 17.6248 13.2437 17.7198 13.4044C17.812 13.561 17.8987 13.7203 17.9825 13.8824C18.3724 13.9397 18.6631 14.1325 18.8713 14.4008C19.1704 14.7879 19.2961 15.3357 19.2961 15.864C19.2961 16.0596 19.2766 16.2553 19.2402 16.4481C19.1997 16.634 19.0754 16.8212 18.8643 16.7947C18.821 16.7891 18.7819 16.7765 18.7469 16.7555C18.6729 17.1091 18.4297 17.4235 18.0762 17.5242C17.7352 17.622 17.4152 17.4864 17.1916 17.2195C17.1035 17.1133 17.0392 17.0476 16.8883 17.0476C16.7919 17.0476 16.7053 17.0867 16.6424 17.1496C16.5795 17.2125 16.5404 17.2992 16.5404 17.3956C16.5404 17.4557 16.5557 17.5158 16.5851 17.5675C16.6186 17.5577 16.6536 17.5535 16.6899 17.5535C16.7793 17.5535 16.866 17.5856 16.9344 17.6429C17.056 17.7436 17.2 17.8092 17.3565 17.8358C17.3704 17.8386 17.3802 17.8526 17.3788 17.8665C17.376 17.8805 17.3621 17.8903 17.3481 17.8889C17.1846 17.8609 17.0295 17.7897 16.9009 17.6835C16.8422 17.6332 16.7667 17.6066 16.6899 17.6066C16.5082 17.6066 16.3615 17.7533 16.3615 17.935C16.3615 18.0915 16.4719 18.2257 16.6242 18.2564C16.6857 18.2299 16.7528 18.2159 16.824 18.2159C16.8576 18.2159 16.8925 18.2187 16.9247 18.2257C16.9792 18.1754 17.0532 18.146 17.1329 18.146C17.2503 18.146 17.3383 18.1502 17.4501 18.0999C17.4641 18.0943 17.4795 18.0999 17.485 18.1139C17.4906 18.1279 17.485 18.1432 17.4711 18.1488C17.3509 18.2033 17.26 18.1991 17.1329 18.1991C16.9917 18.1991 16.8757 18.3137 16.8757 18.4563C16.8757 18.5988 16.9903 18.712 17.1329 18.712C17.2754 18.712 17.3886 18.5974 17.3886 18.4563H17.3956Z" fill="#FF0000"/>
<path fill-rule="evenodd" clip-rule="evenodd" d="M12.1411 17.2083C12.218 17.2167 12.2963 17.2503 12.355 17.3006C12.5157 17.4417 12.7518 17.4026 12.9796 17.3006C13.2144 17.1972 13.4422 17.0295 13.5819 16.9205C13.7887 16.7611 14.0571 16.4886 14.1898 16.2399C14.2429 16.1407 14.2737 16.0456 14.2709 15.9646C14.2681 15.8863 14.2331 15.8207 14.1535 15.7731C14.0696 15.7242 13.9397 15.6949 13.7482 15.6949C13.5274 15.6949 13.3555 15.6599 13.2256 15.5985C13.0565 15.5188 12.9587 15.3944 12.9153 15.2449C12.872 15.0968 12.8846 14.9249 12.9349 14.746C13.0034 14.5042 13.1431 14.2485 13.315 14.0263C13.2857 14.0319 13.2549 14.0333 13.2256 14.0333C13.0872 14.0333 12.9601 13.9802 12.8524 13.8936C12.8189 13.9662 12.7798 14.0347 12.7365 14.0948C12.5911 14.2918 12.3899 14.4134 12.1677 14.4134C12.1272 14.4134 12.088 14.4092 12.0489 14.4008C11.9804 14.5154 11.8966 14.6202 11.8002 14.7111C11.8644 14.6929 11.9329 14.6831 12.0042 14.6831C12.0419 14.6831 12.0797 14.6859 12.116 14.6915C12.13 14.6943 12.1411 14.7069 12.1383 14.7222C12.1355 14.7362 12.123 14.7474 12.1076 14.7446C12.0727 14.739 12.0377 14.7376 12.0028 14.7376C11.8309 14.7376 11.6744 14.7977 11.5612 14.8955C11.4494 14.992 11.3809 15.1247 11.3809 15.2728C11.3809 15.5999 11.6981 15.8067 12.0028 15.8067C12.1272 15.8067 12.2501 15.7759 12.3563 15.7117C12.3689 15.7047 12.3857 15.7075 12.3927 15.7214C12.3997 15.734 12.3955 15.7508 12.3829 15.7578C12.2683 15.8262 12.1355 15.8612 12.0014 15.8612C11.9679 15.8612 11.9343 15.8584 11.9008 15.8542C11.9092 16.0023 11.9846 16.1239 12.0936 16.2105C12.2977 16.374 12.5925 16.402 12.8259 16.2888C12.9195 16.2441 12.9978 16.1784 13.0523 16.1001C13.0607 16.0876 13.0774 16.0848 13.09 16.0932C13.1026 16.1015 13.1054 16.1183 13.097 16.1309C13.0397 16.2105 12.9614 16.2776 12.8692 16.3265C12.9726 16.4188 13.1096 16.4649 13.2479 16.4649C13.3611 16.4649 13.4673 16.4341 13.5526 16.381C13.6406 16.3279 13.7077 16.2511 13.744 16.1616C13.7496 16.1477 13.765 16.1421 13.779 16.1463C13.7929 16.1505 13.7999 16.1672 13.7943 16.1812C13.7538 16.2804 13.6783 16.3657 13.5805 16.4258C13.5344 16.4537 13.4827 16.4775 13.4282 16.4928C13.4841 16.5334 13.5302 16.5865 13.561 16.648C13.5679 16.6605 13.561 16.6773 13.5484 16.6843C13.5358 16.6913 13.519 16.6843 13.512 16.6717C13.4785 16.6018 13.4212 16.5445 13.3513 16.5096C13.3178 16.5152 13.2829 16.518 13.2479 16.518C13.1878 16.518 13.1263 16.5096 13.0691 16.4928C12.974 16.5278 12.8972 16.6032 12.8594 16.6969C12.988 16.7108 13.1054 16.7849 13.1683 16.8995C13.1753 16.9121 13.1711 16.9288 13.1571 16.9358C13.1445 16.9428 13.1277 16.9386 13.1208 16.9246C13.0593 16.8129 12.9391 16.7486 12.8119 16.7486C12.7351 16.7486 12.6638 16.7723 12.6065 16.8115C12.5576 16.845 12.5185 16.8911 12.4933 16.9442C12.552 16.9526 12.6065 16.9736 12.6526 17.0057C12.7141 17.0476 12.7616 17.1077 12.7868 17.1762C12.7924 17.1902 12.784 17.2055 12.77 17.2097C12.756 17.2139 12.7406 17.2069 12.7365 17.193C12.7155 17.1343 12.675 17.084 12.6233 17.049C12.5716 17.0141 12.5087 16.9945 12.4402 16.9945C12.3633 16.9945 12.2935 17.0211 12.239 17.063C12.1914 17.1007 12.1565 17.1496 12.1397 17.2069L12.1411 17.2083Z" fill="#FF0000"/>
<path fill-rule="evenodd" clip-rule="evenodd" d="M10.4013 17.0141C10.3244 16.9415 10.2238 16.9023 10.1176 16.9023C9.88843 16.9023 9.70117 17.0882 9.70117 17.3188C9.70117 17.3495 9.70397 17.3775 9.71095 17.4068C9.78362 17.3062 9.89821 17.2475 10.0226 17.2475C10.0631 17.2475 10.1022 17.2545 10.1414 17.2657C10.1833 17.1455 10.2811 17.0519 10.4027 17.0141H10.4013Z" fill="#FF0000"/>
<path fill-rule="evenodd" clip-rule="evenodd" d="M10.0603 17.6584C10.0324 17.6542 10.003 17.6514 9.97506 17.6514C9.65924 17.6514 9.4035 17.9071 9.4035 18.2229C9.4035 18.2467 9.4049 18.269 9.4077 18.2914C9.52508 18.1209 9.71653 18.0203 9.92336 18.0203C9.93174 18.0203 9.94153 18.0203 9.94991 18.0203C9.92196 17.8959 9.9569 17.7604 10.0519 17.6653L10.0603 17.657V17.6584Z" fill="#FF0000"/>
<path fill-rule="evenodd" clip-rule="evenodd" d="M10.4879 18.5961C10.467 18.5542 10.4558 18.5067 10.4558 18.4578C10.4558 18.3893 10.4781 18.3264 10.5159 18.2747C10.4963 18.2719 10.4767 18.2705 10.4572 18.2705C10.2084 18.2705 10.0058 18.4717 10.0058 18.7219C10.0058 18.7582 10.01 18.796 10.0184 18.8309C10.1414 18.6967 10.3077 18.6129 10.4879 18.5961Z" fill="#FF0000"/>
<path fill-rule="evenodd" clip-rule="evenodd" d="M14.1548 18.3976C14.2555 18.406 14.3491 18.4409 14.4287 18.494C14.5028 18.5443 14.5657 18.61 14.6104 18.6882C14.6342 18.5303 14.5909 18.3738 14.4846 18.2536C14.4106 18.1698 14.3114 18.1097 14.1968 18.0859C14.2275 18.1893 14.2135 18.3039 14.1548 18.399V18.3976Z" fill="#FF0000"/>
<path fill-rule="evenodd" clip-rule="evenodd" d="M15.2169 16.1353C15.4182 16.1157 15.6236 16.1464 15.8094 16.2247C15.9352 16.2792 16.0512 16.3533 16.1518 16.4455C16.1253 16.296 16.0638 16.1576 15.9771 16.0402C15.8737 15.9005 15.7312 15.7901 15.5677 15.723C15.4671 15.6825 15.3748 15.6266 15.2924 15.5567C15.0758 15.3653 14.7697 15.2912 14.4874 15.2786C14.4176 15.2758 14.3505 15.2563 14.296 15.2115C14.0277 14.9852 14.2932 14.4849 14.4651 14.278H14.4665C14.5615 14.162 14.6761 14.06 14.8047 13.9846C14.7124 13.8881 14.651 13.7624 14.6328 13.624C14.5084 13.7191 14.3715 13.7861 14.2261 13.8239C14.0361 13.8728 13.867 13.8658 13.6769 13.8239C13.6434 13.8588 13.6084 13.8909 13.5721 13.9175C13.5176 13.9566 13.4603 13.9874 13.4002 14.0069C13.213 14.2361 13.0578 14.5072 12.9866 14.763C12.9391 14.932 12.9279 15.0942 12.967 15.2325C13.0061 15.3681 13.0956 15.4799 13.2493 15.5525C13.3723 15.6112 13.5358 15.6434 13.7482 15.6434C13.9606 15.6434 14.0906 15.6755 14.1814 15.7286C14.2778 15.7859 14.3211 15.8683 14.3253 15.9634C14.3281 16.0556 14.2946 16.159 14.2373 16.2666C14.1004 16.5238 13.8264 16.8019 13.6154 16.9654C13.4743 17.0744 13.2423 17.2462 13.0019 17.3511C12.756 17.4601 12.5017 17.5006 12.32 17.3413C12.2627 17.291 12.1816 17.2602 12.1048 17.2602C12.0167 17.2602 11.9455 17.2868 11.8826 17.3469C11.7582 17.4642 11.5779 17.5299 11.4074 17.5299C11.1657 17.5299 10.9603 17.4139 10.8205 17.2211C10.7423 17.1135 10.6584 17.0492 10.5201 17.0492C10.3272 17.0492 10.1721 17.2057 10.1721 17.3972C10.1721 17.4573 10.1875 17.516 10.2168 17.5691C10.3398 17.5369 10.4725 17.5719 10.6067 17.6082C10.7297 17.6417 10.868 17.6781 11.0245 17.6781C11.0399 17.6781 11.0511 17.6906 11.0511 17.7046C11.0511 17.7186 11.0385 17.7312 11.0245 17.7312C10.861 17.7312 10.7199 17.6934 10.5927 17.6585C10.418 17.611 10.2364 17.5565 10.0896 17.7032C9.97085 17.8234 9.96107 18.0162 10.0701 18.1462C10.1176 18.2021 10.1819 18.2426 10.2573 18.2566C10.3188 18.2301 10.3859 18.2161 10.4572 18.2161C10.4907 18.2161 10.5256 18.2189 10.5578 18.2259C10.6123 18.1756 10.685 18.1462 10.766 18.1462C10.8834 18.1462 10.9714 18.1504 11.0832 18.1001C11.0972 18.0945 11.1126 18.1001 11.1182 18.1141C11.1238 18.128 11.1182 18.1434 11.1042 18.149C10.984 18.2035 10.8932 18.1993 10.766 18.1993C10.6249 18.1993 10.5089 18.3139 10.5089 18.4564C10.5089 18.5277 10.5382 18.592 10.5843 18.6381C10.6836 18.7373 10.8471 18.7373 10.9477 18.6381C10.9938 18.592 11.0231 18.5277 11.0231 18.4564C11.0231 18.4411 11.0357 18.4299 11.0497 18.4299C11.0637 18.4299 11.0762 18.4425 11.0762 18.4564C11.0762 18.5054 11.0651 18.5529 11.0441 18.5934C11.1335 18.6074 11.223 18.5808 11.2873 18.5151C11.3376 18.4648 11.3683 18.395 11.3683 18.3181C11.3683 18.3027 11.3809 18.2915 11.3949 18.2915C11.4088 18.2915 11.4214 18.3041 11.4214 18.3181C11.4214 18.3586 11.4144 18.3978 11.4005 18.4327C11.5123 18.4467 11.6227 18.4103 11.7023 18.3307C11.768 18.265 11.8071 18.1756 11.8071 18.0763C11.8071 18.061 11.8197 18.0498 11.8337 18.0498C11.8476 18.0498 11.8602 18.0624 11.8602 18.0763C11.8602 18.1909 11.8141 18.2943 11.7386 18.3684C11.7303 18.3768 11.7219 18.3838 11.7135 18.3922C11.7903 18.4313 11.8728 18.4509 11.9594 18.4509C12.0754 18.4509 12.1872 18.4145 12.2809 18.3446C12.5268 18.1644 12.8217 18.0679 13.1263 18.0679C13.1417 18.0679 13.1529 18.0805 13.1529 18.0945C13.1529 18.1085 13.1403 18.1211 13.1263 18.1211C13.0956 18.1211 13.0634 18.1211 13.0327 18.1238C13.0425 18.17 13.0662 18.2105 13.0998 18.2412C13.1445 18.2818 13.1976 18.2999 13.2591 18.2985C13.2535 18.2762 13.2493 18.2524 13.2493 18.2273C13.2493 18.2119 13.2619 18.2007 13.2758 18.2007C13.2898 18.2007 13.3024 18.2133 13.3024 18.2273C13.3024 18.2887 13.3276 18.3433 13.3667 18.3838C13.4072 18.4243 13.4617 18.4481 13.5232 18.4481C13.533 18.4481 13.5428 18.4481 13.5511 18.4467C13.5176 18.4089 13.4911 18.3656 13.4729 18.3167C13.4687 18.3027 13.4757 18.2874 13.4897 18.2832C13.5036 18.279 13.519 18.286 13.5232 18.2999C13.5693 18.4299 13.6923 18.5179 13.8306 18.5179C13.9201 18.5179 14.0025 18.4816 14.0612 18.4229C14.187 18.2971 14.1884 18.0917 14.0654 17.9659C13.9913 17.8891 13.8823 17.8541 13.7775 17.8709C13.7384 17.8779 13.7105 17.8891 13.6685 17.8947C13.5595 17.9072 13.4505 17.8821 13.3583 17.8234C13.2926 17.7815 13.2367 17.7228 13.199 17.6529L13.1892 17.6613C13.1627 17.685 13.1473 17.7186 13.1473 17.7549C13.1473 17.7773 13.1529 17.7968 13.1627 17.8164C13.1696 17.829 13.1654 17.8458 13.1529 17.8527C13.1403 17.8597 13.1235 17.8555 13.1165 17.8416C13.1012 17.815 13.0942 17.7843 13.0942 17.7535C13.0942 17.7004 13.1179 17.6487 13.1585 17.6152C13.498 17.3357 13.8893 17.1009 14.2988 16.936C14.5559 16.8326 14.8829 16.5293 15.0422 16.3141C15.1862 16.1199 15.27 15.9117 15.2043 15.7384C15.1946 15.7132 15.1834 15.6909 15.168 15.6671C15.1596 15.6545 15.1624 15.6378 15.175 15.6308C15.1876 15.6224 15.2043 15.6252 15.2127 15.6378C15.2309 15.6643 15.2449 15.6923 15.2561 15.7188C15.305 15.846 15.2826 15.9885 15.2169 16.1311V16.1353Z" fill="#FF0000"/>
<path fill-rule="evenodd" clip-rule="evenodd" d="M8.89619 10.3857C8.89619 10.3703 8.90737 10.3591 8.92135 10.3577C8.93672 10.3577 8.9479 10.3689 8.9493 10.3829C8.95209 10.4667 8.96048 10.5478 8.97445 10.6288C9.02616 10.5366 9.14634 10.5017 9.28609 10.4989C9.49431 10.4933 9.74865 10.5562 9.88839 10.5925C9.78219 10.457 9.64943 10.3452 9.4971 10.2655C9.32801 10.1761 9.13516 10.1272 8.93532 10.1286C8.91855 10.1286 8.90458 10.1174 8.90737 10.0992C8.92694 9.91614 8.97725 9.76801 9.02476 9.59193C9.04013 9.53603 9.05411 9.48014 9.06808 9.42144C9.07088 9.40747 9.08625 9.39769 9.10022 9.40188C9.1142 9.40467 9.12398 9.42005 9.11979 9.43402C9.10581 9.48992 9.09184 9.54861 9.07507 9.60591L9.06249 9.64923C9.13656 9.60731 9.24137 9.60451 9.35736 9.62408C9.57396 9.66041 9.81712 9.76242 10.0142 9.86164C9.9415 9.69395 9.8311 9.54582 9.69275 9.42703C9.54042 9.29707 9.35456 9.20344 9.14774 9.16291C9.13376 9.16012 9.12398 9.14614 9.12538 9.13217C9.14494 9.01897 9.16171 8.90298 9.17429 8.78839C9.18687 8.6738 9.19525 8.55781 9.19944 8.44043C9.19944 8.42645 9.21202 8.41387 9.22739 8.41527C9.24276 8.41527 9.25394 8.42785 9.25255 8.44322C9.24975 8.52148 9.24416 8.59974 9.23857 8.67799C9.33779 8.58716 9.52645 8.58995 9.7193 8.62769C9.91215 8.66542 10.112 8.73808 10.228 8.7828C10.1316 8.61651 9.99739 8.47536 9.83529 8.37195C9.65921 8.25876 9.45099 8.19028 9.22739 8.18329C9.21342 8.18329 9.20224 8.17071 9.20084 8.15674C9.19805 8.02957 9.19106 7.9038 9.17988 7.77943C9.1687 7.65365 9.15193 7.52928 9.13097 7.40491C9.12817 7.39093 9.13796 7.37696 9.15333 7.37416C9.1673 7.37137 9.18128 7.38115 9.18407 7.39652C9.20084 7.49993 9.21621 7.60474 9.22739 7.71095C9.2763 7.65086 9.36295 7.6313 9.46356 7.63689C9.62986 7.64527 9.83669 7.72213 9.95687 7.77104C9.89119 7.65645 9.80734 7.55443 9.70812 7.46779C9.59353 7.36717 9.45937 7.28752 9.31264 7.23721C9.13796 7.17572 8.98703 7.01222 8.91995 6.84033C8.73269 6.84033 8.54264 6.8571 8.43643 6.91999C8.36656 6.96191 8.30786 7.01921 8.26594 7.08908C8.41687 7.19109 8.53565 7.33503 8.60552 7.50273C8.61391 7.52369 8.59434 7.54465 8.57338 7.53906C8.49233 7.51391 8.41267 7.50413 8.32882 7.50413C8.46717 7.63968 8.55382 7.81856 8.57198 8.0114C8.57338 8.03516 8.54823 8.04914 8.53006 8.03516C8.46019 7.98346 8.38193 7.94293 8.29808 7.91777C8.32603 7.97228 8.34699 8.02957 8.36236 8.08687C8.38193 8.16513 8.39031 8.24758 8.38612 8.33003C8.38612 8.34959 8.36376 8.36217 8.34699 8.35239C8.21843 8.28391 8.08287 8.22941 7.94173 8.19168C7.94173 8.23919 7.94452 8.2881 7.94452 8.33562C7.94452 8.44741 7.94033 8.55781 7.93195 8.66821C7.99763 8.80376 8.04933 8.93932 8.09405 9.08466C8.16672 9.31943 8.24358 9.55141 8.32324 9.78339C8.40429 9.68137 8.48534 9.58075 8.56779 9.48153C8.57757 9.47035 8.59434 9.46896 8.60552 9.47874C8.6167 9.48852 8.6181 9.50529 8.60832 9.51647C8.51888 9.62407 8.43084 9.73447 8.3428 9.84487L8.37494 9.93571C8.42245 10.0713 8.47137 10.2054 8.52167 10.3396C8.52167 10.3396 8.52167 10.341 8.52167 10.3424C8.57897 10.4947 8.63766 10.647 8.69776 10.7979C8.70195 10.8091 8.69775 10.8175 8.69217 10.8273C8.61251 10.9503 8.53565 11.0746 8.45879 11.199C8.51888 11.3471 8.58037 11.4939 8.64325 11.6406C8.82492 11.5414 9.01498 11.4575 9.21342 11.3905C9.01498 11.0928 8.90458 10.7476 8.892 10.3899L8.89619 10.3857Z" fill="#FF0000"/>
</g>
</g>
<rect x="0.25" y="0.25" width="23.5" height="23.5" rx="11.75" stroke="#E5E3E1" stroke-width="0.5"/>
<defs>
<clipPath id="clip0_16335_1156">
<rect width="24" height="24" rx="12" fill="white"/>
</clipPath>
</defs>
</svg>
