<svg width="48" height="48" viewBox="0 0 48 48" fill="none" xmlns="http://www.w3.org/2000/svg">
<path d="M39.7899 20.6401C39.7899 20.6401 37.5299 25.3401 43.8299 24.5301C43.8299 24.5301 43.4899 23.1701 42.1699 21.9601C40.8499 20.7501 39.7799 20.6401 39.7799 20.6401H39.7899Z" fill="#8DE2E0"/>
<path d="M5.11035 19.5099L6.97035 15.9699C7.56035 14.8399 8.73035 14.1299 10.0004 14.1299H24.0604C25.5804 14.1299 27.0404 14.7499 28.0804 15.8499L31.6004 19.5099" fill="#8DE2E0"/>
<path d="M43.7301 22.1899C42.6001 20.6899 40.9501 19.7299 39.0901 19.4799L32.0701 18.5499L28.8101 15.1599C27.5801 13.8699 25.8501 13.1299 24.0601 13.1299H10.0001C8.34012 13.1299 6.84012 14.0399 6.08012 15.4999L4.22012 19.0399C4.22012 19.0399 4.21012 19.0899 4.20012 19.1099C4.18012 19.1499 4.16012 19.1799 4.15012 19.2199C3.30012 22.0599 2.87012 24.9999 2.87012 27.9699V29.5499C2.87012 30.0999 3.32012 30.5499 3.87012 30.5499H7.20012C7.67012 33.0099 9.83012 34.8699 12.4201 34.8699C15.0101 34.8699 17.1701 33.0099 17.6401 30.5499H29.7701C30.2401 33.0099 32.4001 34.8699 34.9901 34.8699C37.5801 34.8699 39.7401 33.0099 40.2101 30.5499H43.7201C44.2201 30.5499 44.6401 30.1899 44.7101 29.6999L45.0501 27.3999C45.3301 25.5399 44.8601 23.6899 43.7301 22.1899ZM7.86012 16.4199C8.28012 15.6199 9.10012 15.1199 10.0001 15.1199H24.0601C25.3101 15.1199 26.5101 15.6299 27.3601 16.5299L29.2501 18.4999H6.77012L7.86012 16.4199ZM12.4301 32.8699C10.6001 32.8699 9.11012 31.3799 9.11012 29.5499C9.11012 27.7199 10.6001 26.2299 12.4301 26.2299C14.2601 26.2299 15.7501 27.7199 15.7501 29.5499C15.7501 31.3799 14.2601 32.8699 12.4301 32.8699ZM34.9901 32.8699C33.1601 32.8699 31.6801 31.3899 31.6701 29.5599C31.6701 29.5599 31.6701 29.5599 31.6701 29.5499C31.6701 29.5399 31.6701 29.5499 31.6701 29.5399C31.6701 27.7199 33.1601 26.2299 34.9901 26.2299C36.8201 26.2299 38.3101 27.7199 38.3101 29.5499C38.3101 31.3799 36.8201 32.8699 34.9901 32.8699ZM43.0701 27.0999L42.8601 28.5499H40.2101C39.7401 26.0899 37.5801 24.2299 34.9901 24.2299C32.4001 24.2299 30.2401 26.0899 29.7701 28.5499H17.6401C17.1701 26.0899 15.0101 24.2299 12.4201 24.2299C9.83012 24.2299 7.67012 26.0899 7.20012 28.5499H4.87012V27.9699C4.87012 25.4399 5.20012 22.9299 5.86012 20.4999H31.6001L38.8101 21.4499C40.1401 21.6299 41.3101 22.3099 42.1101 23.3799C42.9101 24.4499 43.2501 25.7699 43.0501 27.0899L43.0701 27.0999Z" fill="#323232"/>
<path d="M12.4302 31.4899C13.5017 31.4899 14.3702 30.6213 14.3702 29.5499C14.3702 28.4784 13.5017 27.6099 12.4302 27.6099C11.3588 27.6099 10.4902 28.4784 10.4902 29.5499C10.4902 30.6213 11.3588 31.4899 12.4302 31.4899Z" fill="#DF0000"/>
<path d="M34.9898 31.4899C36.0612 31.4899 36.9298 30.6213 36.9298 29.5499C36.9298 28.4784 36.0612 27.6099 34.9898 27.6099C33.9184 27.6099 33.0498 28.4784 33.0498 29.5499C33.0498 30.6213 33.9184 31.4899 34.9898 31.4899Z" fill="#DF0000"/>
</svg>
