<svg width="48" height="48" viewBox="0 0 48 48" fill="none" xmlns="http://www.w3.org/2000/svg">
<path d="M44.1505 25.02C43.3605 24.64 42.1405 24.11 40.6305 23.71C40.6305 23.85 40.6105 23.98 40.6105 24.13C40.6105 31.79 38.0105 36.34 32.9105 37.66C32.8505 37.68 32.7905 37.7 32.7305 37.72C33.5905 38 34.5605 38.17 35.6805 38.17C45.1905 38.17 44.2005 25.3 44.2005 25.3C44.2005 25.3 44.2005 25.1 44.1405 25.03" fill="#8DE2E0"/>
<path d="M17.7101 24.3201C17.6601 31.8601 15.0701 36.3401 10.0101 37.6501C9.95008 37.6701 9.89008 37.6901 9.83008 37.7101C10.6901 37.9901 11.6601 38.1501 12.7801 38.1501C20.3901 38.1501 21.2801 29.9201 21.3301 26.6201C20.1401 25.6001 18.9201 24.8601 17.7001 24.3101" fill="#8DE2E0"/>
<path d="M45.6504 24.6898C45.6504 24.6898 45.3704 24.5198 44.8804 24.2598C43.2604 21.8198 35.9604 11.5998 33.3504 9.66982C32.0604 8.70982 30.6904 8.51982 29.4904 9.12982C28.0104 9.86982 27.0904 11.7398 27.0904 13.9998C27.0904 14.5498 27.5404 14.9998 28.0904 14.9998C28.6404 14.9998 29.0904 14.5498 29.0904 13.9998C29.0904 12.5198 29.6004 11.3098 30.3804 10.9098C31.0104 10.5998 31.6904 10.9298 32.1504 11.2698C33.9204 12.5898 38.7204 18.9898 41.5104 22.9198C37.7404 21.7898 31.7504 21.1698 26.2904 25.6198H21.6804C16.2304 21.1598 10.2404 21.7898 6.46037 22.9198C9.25037 18.9898 14.0504 12.5798 15.8204 11.2698C16.2804 10.9298 16.9604 10.5898 17.5904 10.9098C18.3804 11.3098 18.8804 12.5198 18.8804 13.9998C18.8804 14.5498 19.3304 14.9998 19.8804 14.9998C20.4304 14.9998 20.8804 14.5498 20.8804 13.9998C20.8804 11.7398 19.9604 9.86982 18.4804 9.12982C17.2804 8.52982 15.9104 8.71982 14.6204 9.66982C12.0204 11.5998 4.71037 21.8198 3.09037 24.2598C2.60037 24.5098 2.32037 24.6898 2.32037 24.6898C1.85037 24.9798 1.71037 25.5998 2.00037 26.0698C2.17037 26.3398 2.44037 26.4898 2.73037 26.5298C2.75037 28.8198 3.15037 33.5498 5.92037 36.5398C7.53038 38.2798 9.67037 39.1598 12.2804 39.1598C15.0604 39.1598 17.3304 38.2598 19.0404 36.4798C21.7104 33.6998 22.2104 29.5598 22.3004 27.6398H25.6404C25.7304 29.5598 26.2304 33.6998 28.9004 36.4798C30.6104 38.2598 32.8804 39.1598 35.6604 39.1598C38.2704 39.1598 40.4104 38.2798 42.0204 36.5398C44.7904 33.5498 45.1904 28.8098 45.2104 26.5298C45.5004 26.4898 45.7704 26.3398 45.9404 26.0698C46.2304 25.5998 46.0904 24.9898 45.6204 24.6898H45.6504ZM17.6204 35.0998C16.3104 36.4698 14.5204 37.1598 12.3104 37.1598C10.2504 37.1598 8.65037 36.5098 7.42037 35.1898C4.73037 32.2898 4.72037 27.0398 4.77037 25.6898C7.82037 24.3098 14.3904 22.3098 20.3404 27.1098C20.3204 28.4498 20.0404 32.5898 17.6204 35.0998ZM40.5804 35.1798C39.3504 36.5098 37.7504 37.1498 35.6904 37.1498C33.4804 37.1498 31.6904 36.4598 30.3804 35.0898C27.9604 32.5798 27.6804 28.4398 27.6604 27.0998C33.6104 22.3098 40.1804 24.2998 43.2304 25.6798C43.2804 27.0298 43.2704 32.2798 40.5804 35.1798Z" fill="#323232"/>
</svg>
