<svg width="24" height="24" viewBox="0 0 24 24" fill="none" xmlns="http://www.w3.org/2000/svg">
<path fill-rule="evenodd" clip-rule="evenodd" d="M11.4015 12.5912C8.58791 13.076 4.86142 13.4037 2 14.2732C4.23679 14.2511 6.52168 14.2425 8.85884 14.2425C10.2482 14.2425 11.6112 14.2425 12.9656 14.2556C14.1363 14.2556 15.281 14.2643 16.3644 14.2861C18.2866 14.2992 20.1653 14.33 22 14.3736C21.8865 13.7051 21.3885 12.932 19.8158 12.932L18.9071 12.9189V12.9231C19.1604 13.5217 18.5358 13.9061 17.9894 13.6092C17.7056 13.4649 17.5527 13.1635 17.9545 12.8576C18.361 12.5476 19.0293 12.0887 19.3656 11.8922C20.4885 11.2195 20.4449 10.0834 18.8282 9.96126C14.9751 9.64224 8.02872 9.21837 5.50366 9C7.26429 10.136 9.74154 10.4419 12.0133 11.2195C13.4809 11.7219 12.7251 12.3641 11.4015 12.5912Z" fill="#0081C6"/>
</svg>
