<svg width="48" height="48" viewBox="0 0 48 48" fill="none" xmlns="http://www.w3.org/2000/svg">
<path d="M14.61 19.9502H10.25V43.5802H14.61V19.9502Z" fill="#8DE2E0"/>
<path d="M14.6101 43.79C14.0601 43.79 13.6101 43.34 13.6101 42.79V20.96H5.83008V42.79C5.83008 43.34 5.38008 43.79 4.83008 43.79C4.28008 43.79 3.83008 43.34 3.83008 42.79V19.96C3.83008 19.41 4.28008 18.96 4.83008 18.96H14.6101C15.1601 18.96 15.6101 19.41 15.6101 19.96V42.79C15.6101 43.34 15.1601 43.79 14.6101 43.79Z" fill="#323232"/>
<path d="M28.8891 27.5703H24.5391V43.5803H28.8891V27.5703Z" fill="#8DE2E0"/>
<path d="M28.8894 43.7903C28.3394 43.7903 27.8894 43.3403 27.8894 42.7903V28.5703H20.1094V42.7903C20.1094 43.3403 19.6594 43.7903 19.1094 43.7903C18.5594 43.7903 18.1094 43.3403 18.1094 42.7903V27.5703C18.1094 27.0203 18.5594 26.5703 19.1094 26.5703H28.8894C29.4394 26.5703 29.8894 27.0203 29.8894 27.5703V42.7903C29.8894 43.3403 29.4394 43.7903 28.8894 43.7903Z" fill="#323232"/>
<path d="M43.1701 34.0898H38.8301V43.5798H43.1701V34.0898Z" fill="#8DE2E0"/>
<path d="M43.1706 43.7898C42.6206 43.7898 42.1706 43.3398 42.1706 42.7898V35.0898H34.3906V42.7898C34.3906 43.3398 33.9406 43.7898 33.3906 43.7898C32.8406 43.7898 32.3906 43.3398 32.3906 42.7898V34.0898C32.3906 33.5398 32.8406 33.0898 33.3906 33.0898H43.1706C43.7206 33.0898 44.1706 33.5398 44.1706 34.0898V42.7898C44.1706 43.3398 43.7206 43.7898 43.1706 43.7898Z" fill="#323232"/>
<path d="M42.4599 19.5104C41.9099 19.5104 41.4599 19.9604 41.4599 20.5104V26.7604L18.0199 3.7104C17.6299 3.3204 16.9899 3.3304 16.6099 3.7204C16.2299 4.1104 16.2299 4.7504 16.6199 5.1304L40.0899 28.2104H33.7499C33.1999 28.2104 32.7499 28.6604 32.7499 29.2104C32.7499 29.7604 33.1999 30.2104 33.7499 30.2104H42.4599C43.0099 30.2104 43.4599 29.7604 43.4599 29.2104V20.5004C43.4599 19.9504 43.0099 19.5004 42.4599 19.5004V19.5104Z" fill="#DF0000"/>
</svg>
