<svg width="304" height="60" viewBox="0 0 304 60" fill="none" xmlns="http://www.w3.org/2000/svg">
<g clip-path="url(#clip0_15605_2686)">
<path d="M35.1057 9.47559C28.5326 2.90488 19.6174 -1 10.3215 -1H0L0.769057 1.01655C7.53819 18.5844 20.3495 10.4685 37.4349 26.1193L37.6284 26.2962C39.9268 28.4015 41.506 26.4501 40.7518 25.2228C40.0587 24.0945 40.1413 23.4709 40.1715 23.3422C43.5787 24.2776 46.6723 25.9506 49.2766 28.1748L49.056 28.6169C47.7739 31.1868 35.1283 30.0996 34.9887 35.4445C34.9508 36.9072 35.8404 38.1791 37.123 38.695L39.6164 39.6982C47.8087 42.9953 55.1073 48.0095 61.0802 54.2843C61.1972 54.4074 61.1926 54.6017 61.0695 54.7187C61.0099 54.7751 60.9335 54.8033 60.8576 54.8033C60.7816 54.8033 60.7221 54.7812 60.6652 54.7361L60.6575 54.73C52.0321 47.8177 42.1042 43.6225 31.9125 42.0306C31.1804 41.9163 30.6166 41.3265 30.537 40.59C28.6126 22.6996 10.9263 21.4851 4.18646 9.98024L22.8757 59H84.4356L35.1057 9.47559Z" fill="white"/>
<path d="M45.2753 27.8842C45.2753 27.8842 42.4733 28.0237 40.7519 25.2227C41.264 26.056 40.6996 27.2237 39.5652 27.2273V31.4914C41.4077 30.9565 43.5092 30.6288 45.2753 30.2575V27.8842Z" fill="url(#paint0_linear_15605_2686)"/>
<path d="M34.0278 42.3987C43.4746 44.2162 52.6304 48.296 60.6575 54.7293C42.7619 39.4462 34.6086 42.2094 34.0278 42.3987Z" fill="url(#paint1_linear_15605_2686)"/>
<path d="M7.78495 10.7803C5.00424 8.8038 2.65244 5.90463 0.769043 1.0166L4.18644 9.98029C10.9258 21.4842 28.609 22.6996 30.5365 40.5844C28.591 17.7577 18.561 21.1693 7.78495 10.7803Z" fill="url(#paint2_linear_15605_2686)"/>
<path d="M90.685 48.9863C78.5166 48.9863 70.7891 42.6597 70.7891 34.7253C70.7891 26.6514 78.9711 20.4644 91.0344 20.4644C103.098 20.4644 111.28 26.6863 111.28 34.4104C111.28 37.8712 109.741 40.7022 106.804 43.0787H113.972L112.259 46.0148C111.175 47.8673 109.846 48.9858 106.979 48.9858L90.685 48.9863ZM91.0344 42.5197C97.6778 42.5197 103.273 39.2344 103.273 34.7253C103.273 30.2163 97.6778 26.931 91.0344 26.931C84.3909 26.931 78.7962 30.2163 78.7962 34.7253C78.7962 39.2344 84.3909 42.5197 91.0344 42.5197Z" fill="white"/>
<path d="M143.865 44.1627H124.704L121.976 48.9861H114.039L127.326 25.9871C128.375 24.1695 129.879 22.7715 132.886 22.7715H135.858C138.865 22.7715 140.368 24.1695 141.418 25.9871L154.705 48.9861H146.593L143.865 44.1627ZM127.955 38.3951H140.613L134.739 27.9441C134.599 27.699 134.494 27.6298 134.284 27.6298C134.074 27.6298 133.97 27.6995 133.83 27.9441L127.955 38.3951Z" fill="white"/>
<path d="M192.535 22.771V48.9861H185.437L164.598 31.6147V48.9861H157.5V22.771H161.94C164.213 22.771 165.367 23.3649 166.661 24.4834L185.438 40.1081V22.771H192.535Z" fill="white"/>
<path d="M217.778 28.6781V48.9861H210.68V28.6781H196.134V22.771H232.324V28.6781H217.778Z" fill="white"/>
<path d="M255.959 44.1627H236.798L234.071 48.9861H226.133L239.421 25.9871C240.47 24.1695 241.973 22.7715 244.98 22.7715H247.952C250.96 22.7715 252.463 24.1695 253.512 25.9871L266.799 48.9861H258.687L255.959 44.1627ZM240.05 38.3951H252.708L246.833 27.9441C246.694 27.699 246.588 27.6298 246.379 27.6298C246.169 27.6298 246.064 27.6995 245.924 27.9441L240.05 38.3951Z" fill="white"/>
<path d="M269.244 47.0992L268.579 46.8894L270.363 41.1921C275.468 42.8348 280.922 43.499 285.853 43.499C293.93 43.499 295.923 42.5553 295.923 41.5419C295.923 41.1224 295.643 40.8075 295.013 40.5977C294.209 40.3182 291.972 39.8638 285.363 38.7807C278.055 37.5919 274.768 36.998 272.356 35.8795C269.943 34.7609 268.475 32.9782 268.475 30.357C268.475 28.3646 269.454 26.7568 271.027 25.4982C273.824 23.3314 278.614 22.4575 283.825 22.4575C290.539 22.4575 296.168 23.017 302.427 24.5546L302.986 24.7295L301.482 30.2868C294.489 28.7836 290.608 28.3641 285.293 28.2948C281.552 28.26 278.964 28.5395 277.601 28.9585C276.832 29.2036 276.517 29.5529 276.517 29.9724C276.517 30.357 276.761 30.7063 277.531 30.9509C278.37 31.2304 279.734 31.5448 286.902 32.6987C294.664 33.9568 297.217 34.4814 299.35 35.3205C302.252 36.439 304.001 38.5012 304.001 41.0875C304.001 44.3385 301.483 46.75 297.112 48.0788C294.419 48.8829 290.818 49.3368 286.762 49.3368C280.398 49.3363 273.614 48.4972 269.244 47.0992Z" fill="white"/>
</g>
<defs>
<linearGradient id="paint0_linear_15605_2686" x1="42.1596" y1="31.7182" x2="42.7126" y2="25.3939" gradientUnits="userSpaceOnUse">
<stop offset="0.65" stop-color="white" stop-opacity="0"/>
<stop offset="0.6967" stop-color="#C2C2C2" stop-opacity="0.0701"/>
<stop offset="0.7472" stop-color="#888888" stop-opacity="0.1457"/>
<stop offset="0.796" stop-color="#575757" stop-opacity="0.219"/>
<stop offset="0.8419" stop-color="#313131" stop-opacity="0.2878"/>
<stop offset="0.8841" stop-color="#161616" stop-opacity="0.3512"/>
<stop offset="0.9215" stop-color="#060606" stop-opacity="0.4072"/>
<stop offset="0.95" stop-opacity="0.45"/>
</linearGradient>
<linearGradient id="paint1_linear_15605_2686" x1="34.0279" y1="48.4082" x2="60.6576" y2="48.4082" gradientUnits="userSpaceOnUse">
<stop stop-color="white" stop-opacity="0"/>
<stop offset="0.0992" stop-color="#CBCBCB" stop-opacity="0.0496"/>
<stop offset="0.2151" stop-color="#969696" stop-opacity="0.1076"/>
<stop offset="0.3326" stop-color="#686868" stop-opacity="0.1663"/>
<stop offset="0.4492" stop-color="#434343" stop-opacity="0.2246"/>
<stop offset="0.5649" stop-color="#252525" stop-opacity="0.2824"/>
<stop offset="0.6792" stop-color="#111111" stop-opacity="0.3396"/>
<stop offset="0.7916" stop-color="#040404" stop-opacity="0.3958"/>
<stop offset="0.9" stop-opacity="0.45"/>
</linearGradient>
<linearGradient id="paint2_linear_15605_2686" x1="0.769094" y1="20.8006" x2="30.5365" y2="20.8006" gradientUnits="userSpaceOnUse">
<stop offset="0.25" stop-color="white" stop-opacity="0"/>
<stop offset="0.3281" stop-color="#ECECEC" stop-opacity="0.0469"/>
<stop offset="0.4858" stop-color="#BCBCBC" stop-opacity="0.1415"/>
<stop offset="0.709" stop-color="#6F6F6F" stop-opacity="0.2754"/>
<stop offset="0.9868" stop-color="#050505" stop-opacity="0.4421"/>
<stop offset="1" stop-opacity="0.45"/>
</linearGradient>
<clipPath id="clip0_15605_2686">
<rect width="304" height="60" fill="white"/>
</clipPath>
</defs>
</svg>
