<svg width="24" height="24" viewBox="0 0 24 24" fill="none" xmlns="http://www.w3.org/2000/svg">
<path d="M3.21951 21.3035L5.70732 8.72791L3.95122 9.41163V11.7558C3.95122 12.0326 3.85772 12.2645 3.67073 12.4517C3.48374 12.639 3.25203 12.7326 2.97561 12.7326C2.69919 12.7326 2.46748 12.639 2.28049 12.4517C2.0935 12.2645 2 12.0326 2 11.7558V8.77674C2 8.5814 2.05285 8.40639 2.15854 8.25174C2.26423 8.09709 2.4065 7.97907 2.58537 7.89767L6.92683 6.04186C7.39837 5.84651 7.87805 5.82616 8.36585 5.98081C8.85366 6.13547 9.23577 6.43256 9.51219 6.87209L10.4878 8.43488C10.8618 9.00465 11.3211 9.48895 11.8659 9.88779C12.4106 10.2866 13.0325 10.5512 13.7317 10.6814C14.0081 10.7302 14.2358 10.8523 14.4146 11.0477C14.5935 11.243 14.6829 11.4791 14.6829 11.7558C14.6829 12.0326 14.5894 12.2605 14.4024 12.4395C14.2154 12.6186 13.9919 12.6919 13.7317 12.6593C12.8537 12.5291 12.0325 12.2564 11.2683 11.8413C10.5041 11.4262 9.85366 10.9093 9.31707 10.2907L8.73171 13.2209L10.4878 14.8814C10.5854 14.9791 10.6585 15.089 10.7073 15.211C10.7561 15.3331 10.7805 15.4593 10.7805 15.5895V21.5233C10.7805 21.8 10.687 22.032 10.5 22.2192C10.313 22.4064 10.0813 22.5 9.80488 22.5C9.52845 22.5 9.29675 22.4064 9.10976 22.2192C8.92276 22.032 8.82927 21.8 8.82927 21.5233V16.6395L6.78049 14.686L5.19512 21.7186C5.14634 21.9465 5.02846 22.1337 4.84146 22.2802C4.65447 22.4267 4.43902 22.5 4.19512 22.5C3.86992 22.5 3.60976 22.3779 3.41463 22.1337C3.21951 21.8895 3.15447 21.6128 3.21951 21.3035ZM9.31707 5.40698C8.78049 5.40698 8.32114 5.2157 7.93902 4.83314C7.55691 4.45058 7.36585 3.9907 7.36585 3.45349C7.36585 2.91628 7.55691 2.4564 7.93902 2.07384C8.32114 1.69128 8.78049 1.5 9.31707 1.5C9.85366 1.5 10.313 1.69128 10.6951 2.07384C11.0772 2.4564 11.2683 2.91628 11.2683 3.45349C11.2683 3.9907 11.0772 4.45058 10.6951 4.83314C10.313 5.2157 9.85366 5.40698 9.31707 5.40698Z" fill="#323232"/>
<path fill-rule="evenodd" clip-rule="evenodd" d="M16.1383 17.4758L13.6353 19.9879L16.1383 22.5V20.6159H20.5356V19.3599H16.1383V17.4758ZM22 16.2234L19.4971 13.7113V15.5954H15.0997V16.8514H19.4971V18.7355L22 16.2234Z" fill="#323232"/>
</svg>
