<svg width="48" height="48" viewBox="0 0 48 48" fill="none" xmlns="http://www.w3.org/2000/svg">
<path d="M24 1.75C24 1.75 23.95 1.75 23.92 1.75C23.92 1.75 23.92 1.75 23.91 1.75C23.91 1.75 23.91 1.75 23.9 1.75C11.67 1.81 1.75 11.77 1.75 24C1.75 36.23 11.67 46.19 23.89 46.25C23.89 46.25 23.89 46.25 23.9 46.25C23.9 46.25 23.9 46.25 23.91 46.25C23.94 46.25 23.96 46.25 23.99 46.25C36.26 46.25 46.24 36.27 46.24 24C46.24 11.73 36.27 1.75 24 1.75ZM24.91 44.2V40.26C24.91 39.71 24.46 39.26 23.91 39.26C23.36 39.26 22.91 39.71 22.91 40.26V44.19C12.59 43.64 4.31 35.33 3.8 25H7.41C7.96 25 8.41 24.55 8.41 24C8.41 23.45 7.96 23 7.41 23H3.8C4.31 12.66 12.58 4.36 22.91 3.81V7.09C22.91 7.64 23.36 8.09 23.91 8.09C24.46 8.09 24.91 7.64 24.91 7.09V3.8C35.32 4.26 43.69 12.61 44.2 23H40.59C40.04 23 39.59 23.45 39.59 24C39.59 24.55 40.04 25 40.59 25H44.2C43.69 35.4 35.32 43.74 24.91 44.2Z" fill="#323232"/>
<path d="M12.5098 18.23H19.7498V19.91L15.8398 29.97H13.4598L17.2998 20.18H12.5098V18.23Z" fill="#DF0000"/>
<path d="M21.0488 29.09C21.0488 27.46 21.3388 26.09 23.0488 24.96L25.1188 23.58C25.8688 23.1 26.4788 22.44 26.4788 21.42C26.4788 20.6 25.9588 20.04 24.9288 20.04C23.8988 20.04 23.2988 20.65 23.2988 21.56V21.88H21.1588V21.52C21.1588 19.48 22.6988 18.04 24.9988 18.04C27.2988 18.04 28.7888 19.29 28.7888 21.31C28.7888 22.99 27.9988 24.1 26.5888 25.03L24.4988 26.42C23.7488 26.92 23.5688 27.49 23.5188 27.92H28.7888V29.96H21.0488V29.08V29.09Z" fill="#DF0000"/>
<path d="M30.4302 29.9701V21.6401H31.9202V24.4201C32.2402 24.0601 32.7202 23.8201 33.3302 23.8201C34.6802 23.8201 35.3202 24.7501 35.3202 26.0701V29.9701H33.8402V26.1601C33.8402 25.5601 33.5202 25.1101 32.9002 25.1101C32.2802 25.1101 31.9002 25.5701 31.9002 26.1801V29.9701H30.4102H30.4302Z" fill="#DF0000"/>
</svg>
