<svg width="196" height="30" viewBox="0 0 196 30" fill="none" xmlns="http://www.w3.org/2000/svg">
<path d="M147.951 7.97243C147.951 9.46036 147.322 10.5852 146.322 11.1431L147.889 13.6496H146.463L145.161 11.4974C144.993 11.5328 144.825 11.5505 144.639 11.5505C142.673 11.5505 141.326 10.1689 141.326 7.97243V3.58836C141.326 1.3919 142.619 0.0102539 144.639 0.0102539C146.658 0.0102539 147.951 1.3919 147.951 3.58836V7.97243ZM142.495 8.00786C142.495 9.37179 143.275 10.3815 144.639 10.3815C146.003 10.3815 146.773 9.37179 146.773 8.00786V3.55294C146.773 2.189 146.003 1.17934 144.639 1.17934C143.275 1.17934 142.495 2.189 142.495 3.55294V8.00786Z" fill="#323232"/>
<path d="M150.715 11.382L153.938 0.178223H155.116L158.367 11.382H157.153L156.418 8.80465H152.583L151.866 11.382H150.715ZM152.893 7.67985H156.126L154.488 1.93185L152.893 7.67985Z" fill="#323232"/>
<path d="M167.976 11.382H167.011L162.636 2.7201V11.382H161.546V0.178223H162.591L166.887 8.70723V0.178223H167.976V11.382Z" fill="#323232"/>
<path d="M171.076 0.178223H177.55V1.35616H174.893V11.382H173.724V1.34731H171.067V0.178223H171.076Z" fill="#323232"/>
<path d="M179.012 11.382L182.236 0.178223H183.414L186.664 11.382H185.451L184.715 8.80465H180.88L180.163 11.382H179.012ZM181.19 7.67985H184.423L182.785 1.93185L181.19 7.67985Z" fill="#323232"/>
<path d="M194.396 3.36695V3.09239C194.396 1.96759 193.678 1.09963 192.421 1.09963C191.163 1.09963 190.472 1.79931 190.472 2.79126C190.472 3.57951 190.959 4.13748 191.624 4.42975L193.28 5.18257C194.431 5.69626 195.715 6.37822 195.715 8.30013C195.715 10.222 194.378 11.5594 192.43 11.5594C190.481 11.5594 189.135 10.346 189.135 8.40641V8.13185H190.286V8.46841C190.286 9.61092 191.066 10.4435 192.421 10.4435C193.776 10.4435 194.564 9.59321 194.564 8.45069C194.564 7.23733 193.785 6.75906 192.846 6.35166L191.42 5.70512C190.286 5.20914 189.347 4.39432 189.347 2.88868C189.347 1.19705 190.579 0.0102539 192.412 0.0102539C194.245 0.0102539 195.529 1.22362 195.529 3.16324V3.36695H194.396Z" fill="#323232"/>
<path d="M142.69 21.4344V29.9811H141.601V18.7773H142.628L145.268 24.5962L147.889 18.7773H148.917V29.9811H147.783V21.4521L145.586 26.279H144.896L142.69 21.4344Z" fill="#323232"/>
<path d="M159.35 26.5711C159.35 28.7675 158.004 30.1492 156.037 30.1492C154.071 30.1492 152.725 28.7675 152.725 26.5711V22.187C152.725 19.9905 154.018 18.6089 156.037 18.6089C158.057 18.6089 159.35 19.9905 159.35 22.187V26.5711ZM153.894 26.6065C153.894 27.9704 154.673 28.9801 156.037 28.9801C157.401 28.9801 158.172 27.9704 158.172 26.6065V22.1516C158.172 20.7876 157.401 19.778 156.037 19.778C154.673 19.778 153.894 20.7876 153.894 22.1516V26.6065Z" fill="#323232"/>
<path d="M169.588 29.9811H168.623L164.248 21.3192V29.9811H163.158V18.7773H164.203L168.499 27.3064V18.7773H169.588V29.9811Z" fill="#323232"/>
<path d="M174.84 24.8265V28.8031H179.552V29.9811H173.68V18.7773H179.437V19.9553H174.849V23.6751H179.056V24.8353H174.849L174.84 24.8265Z" fill="#323232"/>
<path d="M183.325 18.7773L185.592 24.2331L187.877 18.7773H189.055L186.141 25.4996V29.9811H184.972V25.5173L182.058 18.7773H183.316H183.325Z" fill="#323232"/>
<path d="M130.229 0.0366211V30.1671" stroke="#323232" stroke-width="0.666694" stroke-miterlimit="10"/>
<path d="M88.204 29.9988H118.804L94.2885 5.37718C91.0204 2.10905 86.5921 0.169434 81.9689 0.169434H76.8408L77.2217 1.17024L78.9221 5.62516L88.2128 29.9988H88.204Z" fill="url(#paint0_linear_15605_2144)"/>
<path d="M78.9133 5.62527C82.2611 11.3467 91.0558 11.949 92.0123 20.8411C92.0478 21.2042 92.3312 21.4965 92.6943 21.5585C97.7603 22.3467 102.694 24.4369 106.98 27.8733C106.98 27.8733 107.042 27.9087 107.078 27.9087C107.113 27.9087 107.157 27.891 107.184 27.8645C107.246 27.8025 107.246 27.7139 107.184 27.6519C104.217 24.5343 100.586 22.0367 96.5115 20.3982L95.2716 19.9023C94.6339 19.6454 94.1911 19.0166 94.2088 18.2904C94.2797 15.6333 100.568 16.1736 101.197 14.8982L101.303 14.6768C100.01 13.5697 98.4689 12.7372 96.7772 12.2767C96.7595 12.3386 96.7241 12.6486 97.0695 13.2155C97.4415 13.8266 96.6621 14.792 95.5196 13.7469L95.4222 13.6583C86.9286 5.87325 80.5606 9.91191 77.1951 1.1792L78.8956 5.63412L78.9133 5.62527Z" fill="white"/>
<path d="M99.3368 14.535C99.3368 14.535 97.9463 14.6058 97.0872 13.2153C97.344 13.6316 97.0606 14.2073 96.4938 14.2161V16.3329C97.406 16.0672 98.4511 15.9078 99.3279 15.7218V14.5438L99.3368 14.535Z" fill="url(#paint1_linear_15605_2144)"/>
<path d="M93.7394 21.7443C98.4334 22.6477 102.986 24.6759 106.971 27.8731C98.0792 20.2741 94.0228 21.6469 93.7394 21.7443Z" fill="url(#paint2_linear_15605_2144)"/>
<path d="M80.7023 6.02388C79.3207 5.04079 78.1516 3.59715 77.2128 1.17041L78.9133 5.62533C82.2611 11.3468 91.0558 11.949 92.0123 20.8412C91.0469 9.48686 86.0606 11.1873 80.7023 6.02388Z" fill="url(#paint3_linear_15605_2144)"/>
<path d="M1.16023 6.52855V11.3732H0V0.169434H5.748V1.34738H1.16023V5.36832H5.36716V6.52855H1.16023Z" fill="#323232"/>
<path d="M14.3833 11.3732L12.6385 6.93596C12.4525 6.95367 12.3639 6.95367 12.2222 6.95367H10.3535V11.3732H9.19324V0.169434H12.2931C14.2593 0.169434 15.6763 1.48023 15.6763 3.50841C15.6763 5.0052 14.9412 6.13 13.8076 6.62597L15.6586 11.3643H14.3833V11.3732ZM10.3535 1.31195V5.82887H12.1957C13.6039 5.82887 14.4807 4.90777 14.4807 3.52613C14.4807 2.14448 13.6039 1.31195 12.1957 1.31195H10.3535Z" fill="#323232"/>
<path d="M20.3084 6.22742V10.1952H25.0113V11.3732H19.1393V0.169434H24.8873V1.34738H20.3084V5.06719H24.5064V6.22742H20.3084Z" fill="#323232"/>
<path d="M34.7448 7.96315C34.7448 9.45108 34.116 10.5759 33.124 11.1339L34.6828 13.6403H33.2569L31.955 11.4881C31.7867 11.5236 31.6184 11.5413 31.4324 11.5413C29.4662 11.5413 28.12 10.1596 28.12 7.96315V3.57909C28.12 1.38262 29.4042 0.000976562 31.4324 0.000976562C33.4606 0.000976562 34.7448 1.38262 34.7448 3.57909V7.96315ZM29.2891 7.99858C29.2891 9.36251 30.0685 10.3722 31.4324 10.3722C32.7963 10.3722 33.558 9.36251 33.558 7.99858V3.54366C33.558 2.17973 32.7875 1.17006 31.4324 1.17006C30.0773 1.17006 29.2891 2.17973 29.2891 3.54366V7.99858Z" fill="#323232"/>
<path d="M44.5758 0.169434V7.96333C44.5758 10.1598 43.2561 11.5414 41.3254 11.5414C39.3946 11.5414 38.0927 10.1598 38.0927 7.96333V0.169434H39.2529V7.99876C39.2529 9.36269 40.0057 10.3724 41.3254 10.3724C42.645 10.3724 43.4067 9.36269 43.4067 7.99876V0.169434H44.5669H44.5758Z" fill="#323232"/>
<path d="M49.5887 6.22742V10.1952H54.2916V11.3732H48.4285V0.169434H54.1676V1.34738H49.5887V5.06719H53.7868V6.22742H49.5887Z" fill="#323232"/>
<path d="M64.2199 11.3732H63.2546L58.8882 2.71131V11.3732H57.7988V0.169434H58.8439L63.1306 8.69844V0.169434H64.2199V11.3732Z" fill="#323232"/>
<path d="M67.1958 0.169434H73.6612V1.34738H71.013V11.3732H69.844V1.34738H67.1958V0.169434Z" fill="#323232"/>
<path d="M32.2207 25.1277V29.9723H31.0516V18.7686H36.7996V19.9465H32.2207V23.9674H36.4188V25.1277H32.2207Z" fill="#323232"/>
<path d="M41.4051 28.7943H45.8069V29.9723H40.2449V18.7686H41.4051V28.7943Z" fill="#323232"/>
<path d="M48.3399 18.7686L50.6072 24.2243L52.8923 18.7686H54.0702L51.1564 25.4908V29.9723H49.9961V25.5085L47.0823 18.7686H48.3399Z" fill="#323232"/>
<path d="M58.4986 24.8265V28.7943H63.2015V29.9723H57.3295V18.7686H63.0775V19.9465H58.4986V23.6663H62.6966V24.8265H58.4986Z" fill="#323232"/>
<path d="M71.8988 29.9723L70.154 25.5351C69.968 25.5528 69.8794 25.5528 69.7377 25.5528H67.869V29.9723H66.7087V18.7686H69.8086C71.7659 18.7686 73.1918 20.0793 73.1918 22.1075C73.1918 23.6043 72.4567 24.7291 71.3231 25.2251L73.1741 29.9634H71.8988V29.9723ZM67.869 19.9111V24.428H69.7112C71.1194 24.428 71.9962 23.5069 71.9962 22.1252C71.9962 20.7436 71.1194 19.9111 69.7112 19.9111H67.869Z" fill="#323232"/>
<defs>
<linearGradient id="paint0_linear_15605_2144" x1="103.42" y1="29.8925" x2="83.0139" y2="0.0897251" gradientUnits="userSpaceOnUse">
<stop stop-color="#BE0000"/>
<stop offset="0.39" stop-color="#DD0000"/>
<stop offset="0.77" stop-color="#F60000"/>
<stop offset="1" stop-color="#FF0000"/>
</linearGradient>
<linearGradient id="paint1_linear_15605_2144" x1="97.7869" y1="16.4392" x2="98.0614" y2="13.295" gradientUnits="userSpaceOnUse">
<stop offset="0.65" stop-color="white" stop-opacity="0"/>
<stop offset="0.69" stop-color="#ECECEC" stop-opacity="0.0529"/>
<stop offset="0.76" stop-color="#D6D6D6" stop-opacity="0.25"/>
<stop offset="0.81" stop-color="#C5C5C5" stop-opacity="0.5184"/>
<stop offset="0.87" stop-color="#B9B9B9" stop-opacity="0.7569"/>
<stop offset="0.91" stop-color="#B1B1B1" stop-opacity="0.9409"/>
<stop offset="0.95" stop-color="#AFAFAF"/>
</linearGradient>
<linearGradient id="paint2_linear_15605_2144" x1="93.7394" y1="24.7379" x2="106.98" y2="24.7379" gradientUnits="userSpaceOnUse">
<stop stop-color="white" stop-opacity="0"/>
<stop offset="0.07" stop-color="#F3F3F3" stop-opacity="0.0225"/>
<stop offset="0.21" stop-color="#DEDEDE" stop-opacity="0.1681"/>
<stop offset="0.35" stop-color="#CDCDCD" stop-opacity="0.3844"/>
<stop offset="0.49" stop-color="#C0C0C0" stop-opacity="0.6241"/>
<stop offset="0.63" stop-color="#B6B6B6" stop-opacity="0.8281"/>
<stop offset="0.77" stop-color="#B0B0B0" stop-opacity="0.9604"/>
<stop offset="0.9" stop-color="#AFAFAF"/>
</linearGradient>
<linearGradient id="paint3_linear_15605_2144" x1="77.2128" y1="11.0102" x2="92.0035" y2="11.0102" gradientUnits="userSpaceOnUse">
<stop offset="0.25" stop-color="white" stop-opacity="0"/>
<stop offset="0.36" stop-color="#F6F6F6" stop-opacity="0.0121"/>
<stop offset="0.58" stop-color="#E0E0E0" stop-opacity="0.1444"/>
<stop offset="0.88" stop-color="#BDBDBD" stop-opacity="0.6724"/>
<stop offset="1" stop-color="#AFAFAF"/>
</linearGradient>
</defs>
</svg>
