<svg width="48" height="48" viewBox="0 0 48 48" fill="none" xmlns="http://www.w3.org/2000/svg">
<path d="M39.0209 45.2402C38.8809 45.2402 38.7409 45.2102 38.6109 45.1502C38.1109 44.9202 37.8909 44.3302 38.1109 43.8302L40.9409 37.6202C41.0609 37.3702 41.1109 37.0902 41.1109 36.8002V27.3102C41.1109 26.9302 41.0109 26.5702 40.8009 26.2402L37.2409 20.3302C36.9509 19.8602 37.1109 19.2402 37.5809 18.9602C38.0509 18.6702 38.6709 18.8302 38.9509 19.3002L42.5109 25.2002C42.9109 25.8302 43.1109 26.5502 43.1109 27.3202V36.8102C43.1109 37.3902 42.9909 37.9402 42.7609 38.4602L39.9309 44.6702C39.7609 45.0402 39.4009 45.2602 39.0209 45.2602V45.2402Z" fill="#323232"/>
<path d="M28.8705 17.9199H18.8505C15.2905 17.9199 11.9705 17.0399 9.31055 15.5399V29.0099L10.9105 27.4099L12.6305 29.1299L14.3505 27.4099L16.0605 29.1299L17.7805 27.4099L19.5005 29.1299L21.2205 27.4099L22.9305 29.1299L24.6505 27.4099L26.3705 29.1299L28.0905 27.4099L29.8005 29.1299L31.5205 27.4099L33.2705 29.1599H33.7205L34.3805 28.1499L33.0205 25.1399C32.1305 23.3499 32.9905 21.1199 34.2605 21.5299C35.5305 21.9399 38.0905 27.6399 38.0905 27.6399C38.0905 27.9899 39.0905 28.5499 39.0905 28.1999V15.1099C36.3305 16.8699 32.7305 17.9199 28.8505 17.9199H28.8705Z" fill="#8DE2E0"/>
<path d="M28.8709 17.9199H18.8509C11.7809 17.9199 5.6009 14.4499 3.8309 9.48989L2.4209 3.97989C2.2809 3.43989 2.6109 2.89989 3.1409 2.75989C3.6809 2.62989 4.2209 2.94989 4.3609 3.47989L5.7409 8.89989C7.2109 12.9899 12.6109 15.9099 18.8509 15.9099H28.8709C35.1109 15.9099 40.5209 12.9899 42.0109 8.80989L43.6609 3.48989C43.8209 2.95989 44.3809 2.66989 44.9109 2.82989C45.4409 2.98989 45.7309 3.54989 45.5709 4.07989L43.9009 9.43989C42.1109 14.4399 35.9309 17.9099 28.8609 17.9099L28.8709 17.9199Z" fill="#323232"/>
<path d="M28.9404 45.22C28.3904 45.22 27.9404 44.77 27.9404 44.22V40.52C27.9404 39.09 27.5504 37.69 26.8004 36.46C25.4604 34.24 25.5704 30.87 25.5804 30.73C25.6004 30.19 26.0404 29.77 26.5804 29.77C26.5904 29.77 26.6104 29.77 26.6204 29.77C27.1704 29.79 27.6004 30.26 27.5804 30.81C27.5804 30.84 27.4804 33.73 28.5104 35.43C29.4404 36.97 29.9404 38.74 29.9404 40.53V44.23C29.9404 44.78 29.4904 45.23 28.9404 45.23V45.22Z" fill="#323232"/>
<path d="M31.2794 37.85C30.7394 37.85 30.2994 37.43 30.2794 36.89C30.2794 36.75 30.2094 33.63 33.4594 31.52L33.3994 28.38L32.1194 25.56C31.6594 24.55 31.4794 23.6 31.6094 22.74C31.7594 21.7 32.5294 20.91 33.5694 20.72C34.6094 20.54 35.6094 21.01 36.1094 21.94L39.2894 27.75C39.3194 27.8 39.3394 27.86 39.3594 27.92L40.3994 31.11C40.5694 31.64 40.2794 32.2 39.7594 32.37C39.2394 32.54 38.6694 32.25 38.4994 31.73L37.4894 28.62L34.3494 22.89C34.2294 22.66 34.0194 22.66 33.9094 22.68C33.7994 22.7 33.6194 22.77 33.5794 23.02C33.5094 23.49 33.6294 24.07 33.9294 24.72L35.2894 27.74C35.3494 27.86 35.3794 28 35.3794 28.13L35.4594 32.05C35.4594 32.42 35.2694 32.77 34.9394 32.95C32.2394 34.44 32.2594 36.73 32.2594 36.82C32.2694 37.37 31.8394 37.83 31.2894 37.85C31.2894 37.85 31.2694 37.85 31.2594 37.85H31.2794Z" fill="#323232"/>
</svg>
