<svg width="48" height="48" viewBox="0 0 48 48" fill="none" xmlns="http://www.w3.org/2000/svg">
<path d="M34.9295 34.82C37.227 34.82 39.0895 32.9575 39.0895 30.66C39.0895 28.3625 37.227 26.5 34.9295 26.5C32.632 26.5 30.7695 28.3625 30.7695 30.66C30.7695 32.9575 32.632 34.82 34.9295 34.82Z" fill="#8DE2E0"/>
<path d="M43.86 30.6595C43.86 25.7395 39.85 21.7295 34.93 21.7295C30.01 21.7295 26 25.7395 26 30.6595C26 33.5195 27.36 36.0595 29.45 37.6995V44.9795C29.45 45.3295 29.63 45.6495 29.93 45.8395C30.23 46.0195 30.6 46.0295 30.91 45.8695L35.09 43.6695L38.9 45.8495C39.05 45.9395 39.23 45.9795 39.4 45.9795C39.57 45.9795 39.75 45.9395 39.9 45.8495C40.21 45.6695 40.4 45.3395 40.4 44.9795V37.6995C42.5 36.0595 43.85 33.5195 43.85 30.6595H43.86ZM28 30.6595C28 26.8395 31.11 23.7295 34.93 23.7295C38.75 23.7295 41.86 26.8395 41.86 30.6595C41.86 34.4795 38.75 37.5895 34.93 37.5895C31.11 37.5895 28 34.4795 28 30.6595ZM38.41 43.2495L35.62 41.6495C35.32 41.4795 34.96 41.4695 34.66 41.6295L31.46 43.3095V38.8795C32.53 39.3295 33.7 39.5795 34.94 39.5795C36.18 39.5795 37.35 39.3295 38.42 38.8795V43.2395L38.41 43.2495Z" fill="#323232"/>
<path d="M26.8606 43.2198H6.14062V4.75977H22.1206V15.7498C22.1206 16.2998 22.5706 16.7498 23.1206 16.7498H34.1106V19.1298C34.1106 19.6798 34.5606 20.1298 35.1106 20.1298C35.6606 20.1298 36.1106 19.6798 36.1106 19.1298V15.7498C36.1106 15.6198 36.0806 15.4898 36.0306 15.3598C35.9806 15.2398 35.9106 15.1298 35.8106 15.0398L23.8306 3.05977C23.7406 2.96977 23.6306 2.89977 23.5106 2.83977C23.3906 2.78977 23.2606 2.75977 23.1306 2.75977H5.14062C4.59062 2.75977 4.14062 3.20977 4.14062 3.75977V44.2198C4.14062 44.7698 4.59062 45.2198 5.14062 45.2198H26.8606C27.4106 45.2198 27.8606 44.7698 27.8606 44.2198C27.8606 43.6698 27.4106 43.2198 26.8606 43.2198ZM24.1206 6.17977L32.6906 14.7498H24.1206V6.17977Z" fill="#323232"/>
</svg>
