<svg width="24" height="24" viewBox="0 0 24 24" fill="none" xmlns="http://www.w3.org/2000/svg">
<g clip-path="url(#clip0_16335_5132)">
<path d="M20.4851 20.4853C25.1714 15.799 25.1714 8.20101 20.4851 3.51472C15.7988 -1.17157 8.20081 -1.17157 3.51452 3.51472C-1.17177 8.20101 -1.17177 15.799 3.51452 20.4853C8.20081 25.1716 15.7988 25.1716 20.4851 20.4853Z" fill="white"/>
<mask id="mask0_16335_5132" style="mask-type:luminance" maskUnits="userSpaceOnUse" x="-1" y="0" width="25" height="24">
<path d="M20.4851 20.4853C25.1714 15.799 25.1714 8.20101 20.4851 3.51472C15.7988 -1.17157 8.20081 -1.17157 3.51452 3.51472C-1.17177 8.20101 -1.17177 15.799 3.51452 20.4853C8.20081 25.1716 15.7988 25.1716 20.4851 20.4853Z" fill="white"/>
</mask>
<g mask="url(#mask0_16335_5132)">
<path d="M30.0007 0H-5.99927V24H30.0007V0Z" fill="#FED700"/>
<path fill-rule="evenodd" clip-rule="evenodd" d="M-5.99927 0H9.51395L11.5459 7.79364C11.6954 7.77827 11.8477 7.76988 12.0014 7.76988C12.1552 7.76988 12.3075 7.77827 12.457 7.79364L14.4861 0H29.9993L15.5971 9.6858C15.7285 9.88005 15.8431 10.0869 15.9423 10.3021L29.9993 3.99953V10.2811L16.3084 11.6716C16.321 11.8099 16.3294 11.9497 16.3294 12.0908C16.3294 12.232 16.3224 12.3717 16.3084 12.5101L29.9993 13.9005V20.1821L15.9423 13.8796C15.8486 14.0864 15.7382 14.2848 15.6139 14.4721L30.0007 24.0014H14.44L12.4556 16.3894C12.3061 16.4048 12.1538 16.4132 12 16.4132C11.8463 16.4132 11.694 16.4048 11.5445 16.3894L9.56007 24.0014H-5.99927L8.3862 14.4707C8.26183 14.2835 8.15143 14.085 8.0578 13.8782L-5.99927 20.1807V13.8991L7.69166 12.5087C7.67908 12.3703 7.6707 12.2306 7.6707 12.0894C7.6707 11.9483 7.67769 11.8085 7.69166 11.6702L-5.99927 10.2797V4.00093L8.0578 10.3035C8.15562 10.0883 8.27161 9.88145 8.40297 9.6872L-5.99927 0ZM12 8.6419C10.0911 8.6419 8.54551 10.1861 8.54551 12.0908C8.54551 13.9956 10.0925 15.5398 12 15.5398C13.9076 15.5398 15.456 13.9956 15.456 12.0908C15.456 10.1861 13.909 8.6419 12 8.6419Z" fill="#FF0000"/>
</g>
</g>
<rect x="0.25" y="0.25" width="23.5" height="23.5" rx="11.75" stroke="#E5E3E1" stroke-width="0.5"/>
<defs>
<clipPath id="clip0_16335_5132">
<rect width="24" height="24" rx="12" fill="white"/>
</clipPath>
</defs>
</svg>
