<svg width="24" height="24" viewBox="0 0 24 24" fill="none" xmlns="http://www.w3.org/2000/svg">
<g clip-path="url(#clip0_16335_3999)">
<path d="M23.8449 13.9238C24.9068 7.382 20.4644 1.218 13.9226 0.156118C7.38083 -0.905765 1.21683 3.53658 0.154948 10.0784C-0.906935 16.6202 3.53541 22.7842 10.0772 23.846C16.619 24.9079 22.783 20.4656 23.8449 13.9238Z" fill="white"/>
<mask id="mask0_16335_3999" style="mask-type:luminance" maskUnits="userSpaceOnUse" x="-1" y="-1" width="26" height="26">
<path d="M23.8449 13.9238C24.9068 7.382 20.4644 1.218 13.9226 0.156118C7.38083 -0.905765 1.21683 3.53658 0.154948 10.0784C-0.906935 16.6202 3.53541 22.7842 10.0772 23.846C16.619 24.9079 22.783 20.4656 23.8449 13.9238Z" fill="white"/>
</mask>
<g mask="url(#mask0_16335_3999)">
<path d="M29.9993 0H-6.00067V24H29.9993V0Z" fill="#FED700"/>
<path d="M29.9993 18.0007H-6.00067V24.0014H29.9993V18.0007Z" fill="#007C29"/>
<path d="M29.9993 0H-6.00067V12H29.9993V0Z" fill="#00ADFE"/>
<path fill-rule="evenodd" clip-rule="evenodd" d="M15.4867 6.91175C15.9898 6.91175 16.3992 6.5023 16.3992 5.99921C16.3992 5.49613 15.9898 5.08667 15.4867 5.08667C14.9836 5.08667 14.5742 5.49613 14.5742 5.99921C14.5742 6.5023 14.9836 6.91175 15.4867 6.91175Z" fill="#FED700"/>
<path fill-rule="evenodd" clip-rule="evenodd" d="M15.4867 9.96943L15.6362 7.13817L16.5138 9.83387L15.9255 7.05991L17.4711 9.437L16.1854 6.91039L18.2942 8.80674L16.3978 6.69937L18.9244 7.98503L16.5473 6.43944L19.3213 7.02777L16.6256 6.15017L19.4569 6.00064L16.6256 5.85111L19.3213 4.9735L16.5473 5.56183L18.9244 4.01624L16.3978 5.30191L18.2942 3.19314L16.1854 5.08949L17.4711 2.56149L15.9255 4.93857L16.5138 2.16461L15.6362 4.86031L15.4867 2.02905L15.3371 4.86031L14.4595 2.16461L15.0479 4.93857L13.5023 2.56149L14.7879 5.0881L12.6792 3.19174L14.5755 5.29911L12.0489 4.01345L14.426 5.55904L11.652 4.97071L14.3477 5.84831L11.5165 5.99784L14.3477 6.14737L11.652 7.02498L14.426 6.43665L12.0489 7.98224L14.5755 6.69657L12.6792 8.80534L14.7879 6.90899L13.5023 9.437L15.0479 7.05991L14.4595 9.83387L15.3371 7.13817L15.4867 9.96943ZM15.4867 4.92878C16.0778 4.92878 16.5585 5.40811 16.5585 6.00064C16.5585 6.59316 16.0792 7.07249 15.4867 7.07249C14.8941 7.07249 14.4148 6.59316 14.4148 6.00064C14.4148 5.40811 14.8941 4.92878 15.4867 4.92878Z" fill="#FED700"/>
</g>
</g>
<rect x="0.25" y="0.25" width="23.5" height="23.5" rx="11.75" stroke="#E5E3E1" stroke-width="0.5"/>
<defs>
<clipPath id="clip0_16335_3999">
<rect width="24" height="24" rx="12" fill="white"/>
</clipPath>
</defs>
</svg>
