<svg width="24" height="24" viewBox="0 0 24 24" fill="none" xmlns="http://www.w3.org/2000/svg">
<g clip-path="url(#clip0_10496_8793)">
<path fill-rule="evenodd" clip-rule="evenodd" d="M16.3031 16.0484C15.7168 15.4166 15.0416 15.1595 14.2295 15.5783L13.4161 16.0121C12.9652 16.2429 12.9609 16.3754 12.7942 16.6354C12.3604 17.3128 11.7742 17.1582 11.4985 16.8647C10.3275 15.6182 8.87152 12.8152 8.85799 12.7889C8.36863 11.8387 8.07159 10.8421 7.89565 9.85344C7.8287 9.45526 8.03313 8.89182 8.83876 8.93242C9.14647 8.94809 9.25688 9.0236 9.70706 8.79138L10.5333 8.38394C11.3454 7.96652 11.5306 7.26988 11.3568 6.42365L10.418 2.75809C10.0753 2.07783 9.24549 1.80502 8.56594 2.14835L6.80439 3.03518C6.49952 3.18975 6.2146 3.50673 6.03011 3.86859C4.5428 6.38092 4.63041 10.3407 6.52588 14.029C6.59426 14.1665 9.49764 21.2312 15.2774 21.8687C15.6784 21.93 16.1001 21.8837 16.4035 21.7256L18.1515 20.8109C18.8254 20.4576 19.0868 19.6271 18.7335 18.9511L16.3031 16.0484Z" fill="#DF0000"/>
</g>
<defs>
<clipPath id="clip0_10496_8793">
<rect width="24" height="24" fill="white"/>
</clipPath>
</defs>
</svg>
