<svg width="24" height="24" viewBox="0 0 24 24" fill="none" xmlns="http://www.w3.org/2000/svg">
<g clip-path="url(#clip0_10496_10180)">
<path fill-rule="evenodd" clip-rule="evenodd" d="M12.7063 6.70625C12.5104 6.90208 12.275 7 12 7C11.725 7 11.4896 6.90208 11.2937 6.70625C11.0979 6.51042 11 6.275 11 6C11 5.725 11.0979 5.48958 11.2937 5.29375C11.4896 5.09792 11.725 5 12 5C12.275 5 12.5104 5.09792 12.7063 5.29375C12.9021 5.48958 13 5.725 13 6C13 6.275 12.9021 6.51042 12.7063 6.70625ZM8.99375 8.81875C9.65625 9.79792 10.6583 10.8583 12 12C13.3417 10.8583 14.3438 9.79792 15.0063 8.81875C15.6687 7.83958 16 6.93333 16 6.1C16 4.85 15.5979 3.85417 14.7937 3.1125C13.9896 2.37083 13.0583 2 12 2C10.9417 2 10.0104 2.37083 9.20625 3.1125C8.40208 3.85417 8 4.85 8 6.1C8 6.93333 8.33125 7.83958 8.99375 8.81875ZM8 10.8267C8.56135 11.5153 9.23288 12.2076 10 12.9046V17.1497L14 18.5497V12.9046C14.7671 12.2076 15.4386 11.5153 16 10.8267V18.5497L19 17.5497V8.69973L16.9539 9.48408C17.4328 8.6891 17.785 7.84553 17.9287 6.96604L19.65 6.29973C19.9833 6.1664 20.2917 6.2039 20.575 6.41223C20.8583 6.62056 21 6.89973 21 7.24973V18.2497C21 18.4664 20.9375 18.6581 20.8125 18.8247C20.6875 18.9914 20.5167 19.1164 20.3 19.1997L15 20.9997L9 18.8997L4.35 20.6997C4.01667 20.8331 3.70833 20.7956 3.425 20.5872C3.14167 20.3789 3 20.0997 3 19.7497V8.74973C3 8.53306 3.0625 8.3414 3.1875 8.17473C3.3125 8.00806 3.48333 7.88306 3.7 7.79973L6.07575 6.99287C6.18523 7.64304 6.40835 8.27348 6.71204 8.87905L5 9.44973V18.2997L8 17.1497V10.8267Z" fill="#323232"/>
</g>
<defs>
<clipPath id="clip0_10496_10180">
<rect width="24" height="24" fill="white"/>
</clipPath>
</defs>
</svg>
