<svg width="48" height="48" viewBox="0 0 48 48" fill="none" xmlns="http://www.w3.org/2000/svg">
<path d="M33.1184 17.1402C32.8584 17.1402 32.6084 17.0402 32.4084 16.8502L29.3784 13.8202C28.9884 13.4302 28.9884 12.8002 29.3784 12.4102C29.7684 12.0202 30.3984 12.0202 30.7884 12.4102L33.1184 14.7402L38.8884 8.97023C39.2784 8.58023 39.9084 8.58023 40.2984 8.97023C40.6884 9.36023 40.6884 9.99023 40.2984 10.3802L33.8184 16.8602C33.6184 17.0602 33.3684 17.1502 33.1084 17.1502L33.1184 17.1402Z" fill="#DF0000"/>
<path d="M22.7689 46.1301C11.3889 46.1301 2.12891 36.8701 2.12891 25.4901C2.12891 14.1101 11.3889 4.8501 22.7689 4.8501C23.3189 4.8501 23.7689 5.3001 23.7689 5.8501C23.7689 6.4001 23.3189 6.8501 22.7689 6.8501C12.4889 6.8501 4.11891 15.2101 4.11891 25.4901C4.11891 35.7701 12.4789 44.1301 22.7589 44.1301C33.0389 44.1301 41.3989 35.7701 41.3989 25.4901C41.3989 25.1901 41.3989 24.8901 41.3789 24.5901C41.3489 24.0401 41.7789 23.5701 42.3289 23.5401C42.8789 23.5201 43.3489 23.9401 43.3789 24.4901C43.3989 24.8201 43.3989 25.1501 43.3989 25.4801C43.3989 36.8601 34.1389 46.1201 22.7589 46.1201L22.7689 46.1301Z" fill="#323232"/>
<path d="M34.8408 23.9401C28.7608 23.9401 23.8008 18.9901 23.8008 12.9001C23.8008 6.81012 28.7508 1.87012 34.8408 1.87012C40.9308 1.87012 45.8808 6.82012 45.8808 12.9101C45.8808 19.0001 40.9308 23.9501 34.8408 23.9501V23.9401ZM34.8408 3.87012C29.8608 3.87012 25.8008 7.92012 25.8008 12.9101C25.8008 17.9001 29.8508 21.9501 34.8408 21.9501C39.8308 21.9501 43.8808 17.9001 43.8808 12.9101C43.8808 7.92012 39.8308 3.87012 34.8408 3.87012Z" fill="#323232"/>
<path fill-rule="evenodd" clip-rule="evenodd" d="M31.7795 37.8702C31.7795 37.8702 31.8195 37.8902 31.8395 37.8902C31.8795 37.8902 31.8995 37.8902 31.9295 37.8502C31.9695 37.8102 31.9695 37.7302 31.9295 37.6902C29.6995 35.2502 26.9695 33.2702 23.9195 32.0002L22.9795 31.6102C22.4895 31.3902 22.1695 30.9102 22.1695 30.3402C22.2295 28.2502 26.9395 28.6802 27.4295 27.6802L27.5095 27.5002C26.5395 26.6202 25.3895 25.9802 24.1195 25.6102C24.0995 25.6702 24.0595 25.9002 24.3295 26.3502C24.6095 26.8202 24.0295 27.5802 23.1695 26.7602L23.0995 26.7002C16.8495 20.7202 13.9595 24.6702 9.70947 17.7102C9.66947 17.6502 9.61947 17.6302 9.55947 17.6702C9.49947 17.7102 9.48947 17.7702 9.49947 17.8302C12.8495 26.2502 19.6995 24.4702 20.5095 32.3202C20.5495 32.6102 20.7495 32.8502 21.0295 32.8902C24.8295 33.5202 28.5395 35.1602 31.7595 37.8502H31.7795" fill="#DF0000"/>
</svg>
