<svg width="48" height="48" viewBox="0 0 48 48" fill="none" xmlns="http://www.w3.org/2000/svg">
<path d="M32.0002 34.2498C31.8902 34.2498 31.7702 34.2298 31.6602 34.1898C31.1402 33.9998 30.8702 33.4298 31.0602 32.9098C31.6402 31.2798 31.6402 29.4898 31.0602 27.8598C30.3902 25.9698 29.0202 24.4598 27.2102 23.6098C25.4002 22.7498 23.3602 22.6498 21.4802 23.3298C19.5902 23.9998 18.0802 25.3698 17.2302 27.1798C16.3702 28.9898 16.2702 31.0298 16.9502 32.9098C17.1402 33.4298 16.8702 33.9998 16.3502 34.1898C15.8302 34.3798 15.2602 34.1098 15.0702 33.5798C14.2202 31.1898 14.3402 28.6098 15.4302 26.3198C16.5102 24.0298 18.4302 22.2898 20.8202 21.4398C23.2102 20.5898 25.7902 20.7098 28.0802 21.7998C30.3702 22.8898 32.1102 24.7998 32.9602 27.1898C33.7002 29.2498 33.7002 31.5198 32.9602 33.5798C32.8102 33.9898 32.4302 34.2398 32.0202 34.2398L32.0002 34.2498ZM43.8302 31.3498H38.1602C37.6102 31.3498 37.1602 30.8998 37.1602 30.3498C37.1602 29.7998 37.6102 29.3498 38.1602 29.3498H43.8302C44.3802 29.3498 44.8302 29.7998 44.8302 30.3498C44.8302 30.8998 44.3802 31.3498 43.8302 31.3498ZM9.83016 31.3498H4.16016C3.61016 31.3498 3.16016 30.8998 3.16016 30.3498C3.16016 29.7998 3.61016 29.3498 4.16016 29.3498H9.83016C10.3802 29.3498 10.8302 29.7998 10.8302 30.3498C10.8302 30.8998 10.3802 31.3498 9.83016 31.3498ZM24.0002 17.1798C23.4502 17.1798 23.0002 16.7298 23.0002 16.1798V10.5098C23.0002 9.95977 23.4502 9.50977 24.0002 9.50977C24.5502 9.50977 25.0002 9.95977 25.0002 10.5098V16.1798C25.0002 16.7298 24.5502 17.1798 24.0002 17.1798Z" fill="#323232"/>
<path d="M45.25 38.4297H2.75C2.2 38.4297 1.75 37.9797 1.75 37.4297C1.75 36.8797 2.2 36.4297 2.75 36.4297H45.25C45.8 36.4297 46.25 36.8797 46.25 37.4297C46.25 37.9797 45.8 38.4297 45.25 38.4297Z" fill="#323232"/>
<path d="M33.63 21.7096C33.37 21.7096 33.12 21.6096 32.92 21.4196C32.53 21.0296 32.53 20.3996 32.92 20.0096L36.89 16.0396C37.28 15.6496 37.91 15.6496 38.3 16.0396C38.69 16.4296 38.69 17.0596 38.3 17.4496L34.33 21.4196C34.13 21.6196 33.88 21.7096 33.62 21.7096H33.63ZM14.37 21.7096C14.11 21.7096 13.86 21.6096 13.66 21.4196L9.68996 17.4496C9.29996 17.0596 9.29996 16.4296 9.68996 16.0396C10.08 15.6496 10.71 15.6496 11.1 16.0396L15.07 20.0096C15.46 20.3996 15.46 21.0296 15.07 21.4196C14.87 21.6196 14.62 21.7096 14.36 21.7096H14.37Z" fill="#323232"/>
</svg>
