<svg width="48" height="48" viewBox="0 0 48 48" fill="none" xmlns="http://www.w3.org/2000/svg">
<path d="M45.8696 23.06C43.6696 12.26 30.1296 4.74999 17.8896 2.90999C11.9296 2.01999 7.54963 2.59999 4.86963 4.64999C3.13963 5.96999 2.11963 7.89999 1.82963 10.37C1.24963 15.17 4.85963 17.73 7.48963 19.59C7.87963 19.87 8.25963 20.14 8.60963 20.4C11.1796 22.35 14.1096 25.32 13.8596 31.02C13.5896 37.46 14.4496 39.52 18.6696 42.6C20.9796 44.28 24.3496 45.5 27.9396 45.5C30.3996 45.5 32.9696 44.93 35.3796 43.55C41.4296 40.08 47.8096 32.63 45.8596 23.05L45.8696 23.06ZM34.3996 41.83C29.4696 44.65 23.3596 43.55 19.8596 41C16.1796 38.32 15.6196 36.93 15.8596 31.12C16.1496 24.41 12.5496 20.88 9.81963 18.82C9.44963 18.54 9.05963 18.26 8.64963 17.97C6.17963 16.22 3.37963 14.24 3.81963 10.61C4.04963 8.66999 4.78963 7.23999 6.08963 6.23999C7.59963 5.07999 9.86963 4.49999 12.8696 4.49999C14.2796 4.49999 15.8596 4.62999 17.5896 4.88999C32.8496 7.17999 42.3796 15.97 43.9096 23.46C45.6396 32 39.8696 38.69 34.3896 41.83H34.3996Z" fill="#323232"/>
<path d="M42.19 23.8101C42.01 22.9201 41.71 22.0001 41.28 21.0901C41.28 21.0901 41.28 21.0801 41.28 21.0701C38.64 15.3401 31.64 10.3701 22.55 7.77006C20.85 7.28006 19.09 6.89006 17.33 6.63006C11.22 5.71006 8.42998 6.67006 7.17998 7.62006C6.80998 7.89006 6.51998 8.23006 6.27998 8.62006C6.26998 8.64006 6.25998 8.65006 6.24998 8.67006C6.22998 8.70006 6.20998 8.72006 6.18998 8.75006C5.87998 9.30006 5.66998 9.98006 5.56998 10.8201C5.27998 13.2301 6.92998 14.5901 9.67998 16.5401C10.11 16.8401 10.52 17.1401 10.9 17.4101C12.65 18.7301 17.99 22.7601 17.64 31.1801C17.4 36.8301 18.01 37.4701 20.91 39.5801C21.89 40.3001 23.11 40.8801 24.44 41.2601C25.58 41.5801 26.74 41.7401 27.9 41.7401C29.67 41.7401 31.4 41.3601 32.93 40.6101C32.93 40.6101 32.95 40.6101 32.96 40.6001C32.99 40.5801 33.03 40.5701 33.07 40.5601C33.23 40.4801 33.39 40.4001 33.56 40.3001C37.91 37.8101 42.47 32.8801 42.5 26.5801C42.5 25.6801 42.42 24.7501 42.22 23.8001L42.19 23.8101ZM40.36 27.9401C39.75 32.5901 36.29 36.2901 32.88 38.3501C32.41 37.4601 32.06 35.8901 32.05 31.9801C32.04 27.7501 31.17 25.0201 28.33 21.3901C31.69 20.6201 35.84 20.9401 39.61 22.2901C39.88 22.9401 40.1 23.5901 40.23 24.2101C40.4 25.0301 40.47 25.8301 40.46 26.6101C40.46 27.0601 40.42 27.5101 40.36 27.9401ZM12.85 8.25006C13.97 8.25006 15.35 8.35006 17.03 8.60006C18.71 8.85006 20.38 9.22006 22 9.69006C29.22 11.7501 35.17 15.5001 38.2 19.7701C34.31 18.7701 30.23 18.7301 26.94 19.7101C26.53 19.2401 26.1 18.7601 25.63 18.2501C24.89 17.4501 24.05 16.6901 23.17 15.9501C23.21 15.8401 23.26 15.7301 23.3 15.6101C23.59 14.5801 23.47 13.4901 22.95 12.5501C22.43 11.6101 21.57 10.9301 20.54 10.6401C19.08 10.2201 17.58 10.6901 16.58 11.7001C13.91 10.3701 11.3 9.43006 9.17998 8.80006C9.87998 8.52006 11.02 8.26006 12.85 8.26006V8.25006ZM17.48 13.9501C17.73 13.0601 18.55 12.4801 19.43 12.4801C19.61 12.4801 19.8 12.5101 19.98 12.5601C21.05 12.8701 21.68 13.9901 21.37 15.0601C21.06 16.1301 19.94 16.7601 18.87 16.4501C18.35 16.3001 17.92 15.9601 17.66 15.4901C17.4 15.0201 17.33 14.4701 17.48 13.9501ZM24.97 39.3301C23.87 39.0101 22.86 38.5301 22.06 37.9501C19.62 36.1701 19.42 36.0301 19.62 31.2501C19.64 30.6601 19.64 30.0901 19.62 29.5301C19.33 22.3401 15.26 18.3401 12.98 16.5001C12.63 16.2201 12.32 15.9801 12.07 15.8001C11.67 15.5101 11.26 15.2101 10.82 14.9001C7.86998 12.8001 7.40998 12.1001 7.53998 11.0501C7.56998 10.8201 7.60998 10.6201 7.65998 10.4301C9.78998 11.0201 12.63 11.9801 15.54 13.4101C14.94 15.5401 16.18 17.7601 18.31 18.3601C18.68 18.4601 19.05 18.5101 19.41 18.5101C20.37 18.5101 21.27 18.1601 21.99 17.5601C22.77 18.2101 23.5 18.8901 24.15 19.5901C24.78 20.2701 25.34 20.9001 25.85 21.5001C29.15 25.3801 30.03 27.7701 30.04 31.9701C30.05 35.9701 30.39 37.9001 31.06 39.2001C29.18 39.8501 27.01 39.9101 24.96 39.3201L24.97 39.3301Z" fill="#323232"/>
</svg>
