<svg width="24" height="24" viewBox="0 0 24 24" fill="none" xmlns="http://www.w3.org/2000/svg">
<g clip-path="url(#clip0_16335_5196)">
<path d="M12.6632 23.9816C19.2805 23.6151 24.3477 17.9536 23.9812 11.3364C23.6147 4.71908 17.9533 -0.348187 11.336 0.0183001C4.71873 0.384788 -0.348533 6.04625 0.0179548 12.6635C0.384442 19.2808 6.0459 24.3481 12.6632 23.9816Z" fill="white"/>
<mask id="mask0_16335_5196" style="mask-type:luminance" maskUnits="userSpaceOnUse" x="-1" y="-1" width="25" height="26">
<path d="M12.6632 23.9816C19.2805 23.6151 24.3477 17.9536 23.9812 11.3364C23.6147 4.71908 17.9533 -0.348187 11.336 0.0183001C4.71873 0.384788 -0.348533 6.04625 0.0179548 12.6635C0.384442 19.2808 6.0459 24.3481 12.6632 23.9816Z" fill="white"/>
</mask>
<g mask="url(#mask0_16335_5196)">
<path d="M30.0007 7.99902H-5.99933V15.9995H30.0007V7.99902Z" fill="white"/>
<path d="M30.0007 0H-5.99933V8.00047H30.0007V0Z" fill="#FF6600"/>
<path d="M30.0007 16.001H-5.99933V24.0014H30.0007V16.001Z" fill="#007C29"/>
<path fill-rule="evenodd" clip-rule="evenodd" d="M12 8.72852C13.8069 8.72852 15.2714 10.1931 15.2714 12C15.2714 13.8069 13.8069 15.2714 12 15.2714C10.1931 15.2714 8.72852 13.8069 8.72852 12C8.72852 10.1931 10.1931 8.72852 12 8.72852Z" fill="#FF6600"/>
</g>
</g>
<rect x="0.25" y="0.25" width="23.5" height="23.5" rx="11.75" stroke="#E5E3E1" stroke-width="0.5"/>
<defs>
<clipPath id="clip0_16335_5196">
<rect width="24" height="24" rx="12" fill="white"/>
</clipPath>
</defs>
</svg>
