<svg width="24" height="24" viewBox="0 0 24 24" fill="none" xmlns="http://www.w3.org/2000/svg">
<g clip-path="url(#clip0_16335_10449)">
<path d="M23.6789 14.7568C25.2013 8.30659 21.2066 1.84354 14.7564 0.321152C8.30617 -1.20123 1.84311 2.79355 0.320729 9.24374C-1.20165 15.6939 2.79312 22.157 9.24332 23.6794C15.6935 25.2018 22.1566 21.207 23.6789 14.7568Z" fill="white"/>
<mask id="mask0_16335_10449" style="mask-type:luminance" maskUnits="userSpaceOnUse" x="-1" y="-1" width="26" height="26">
<path d="M23.6789 14.7568C25.2013 8.30659 21.2066 1.84354 14.7564 0.321152C8.30617 -1.20123 1.84311 2.79355 0.320729 9.24374C-1.20165 15.6939 2.79312 22.157 9.24332 23.6794C15.6935 25.2018 22.1566 21.207 23.6789 14.7568Z" fill="white"/>
</mask>
<g mask="url(#mask0_16335_10449)">
<path d="M29.9993 18.0005H-6.00073V23.9998H29.9993V18.0005Z" fill="#003399"/>
<path d="M29.9993 0H-6.00073V6.0007H29.9993V0Z" fill="#003399"/>
<path d="M29.9993 6.00049H-6.00073V18.0005H29.9993V6.00049Z" fill="#FF0000"/>
<path fill-rule="evenodd" clip-rule="evenodd" d="M5.62333 14.3463V13.9941C5.62333 13.9816 5.63311 13.9718 5.64569 13.9718H5.90701C5.98527 13.9718 6.05514 13.9396 6.10545 13.8893C6.15716 13.8376 6.1879 13.7678 6.1879 13.6909V12.4164C6.1879 12.3493 6.15995 12.2878 6.11524 12.2431C6.07052 12.1984 6.00903 12.1705 5.94195 12.1705C5.92937 12.1705 5.91959 12.1593 5.91959 12.1481V11.005C5.91959 10.9924 5.92937 10.9826 5.94195 10.9826C6.01043 10.9826 6.07191 11.0106 6.11663 11.0553C6.12642 11.0651 6.1362 11.0776 6.14458 11.0888V10.8023C6.14458 10.7716 6.15716 10.745 6.17672 10.7255C6.19629 10.7059 6.22424 10.6933 6.25358 10.6933C6.28293 10.6933 6.31088 10.7059 6.33044 10.7255C6.35001 10.745 6.36259 10.773 6.36259 10.8023V10.8331H6.55683V10.3398C6.55683 10.3216 6.5778 10.3104 6.59177 10.3216C6.6309 10.3496 6.66444 10.3873 6.6882 10.4292L6.73711 10.5131C6.74968 10.5354 6.77344 10.5494 6.79999 10.5494C6.84052 10.5494 6.87266 10.5173 6.87266 10.4767C6.87266 10.4656 6.86987 10.4544 6.86567 10.4446L6.81257 10.3524C6.78183 10.2979 6.76506 10.2378 6.76506 10.1749C6.76506 10.1078 6.78322 10.0435 6.81816 9.98622C6.82654 9.97225 6.84751 9.97225 6.85589 9.98622L6.93275 10.119C6.93834 10.1274 6.94673 10.133 6.95651 10.133C6.97188 10.133 6.98446 10.1204 6.98446 10.105C6.98446 10.1008 6.98446 10.0966 6.98166 10.0924L6.85729 9.87722C6.84052 9.84927 6.83213 9.81713 6.83213 9.78359C6.83213 9.71512 6.86987 9.65223 6.92856 9.61869C6.94253 9.61031 6.9621 9.62149 6.9621 9.63825V9.75704C6.9621 9.7808 6.98166 9.80036 7.00542 9.80036C7.02918 9.80036 7.04874 9.7808 7.04874 9.75704C7.04874 9.75005 7.04734 9.74306 7.04455 9.73747L6.98166 9.62847C6.9621 9.59493 6.95232 9.5586 6.95232 9.51947C6.95232 9.48034 6.9621 9.4482 6.97747 9.41746C6.99424 9.38671 7.018 9.35876 7.04734 9.3392C7.06132 9.32942 7.08228 9.3392 7.08228 9.35736V9.46357C7.08228 9.47894 7.09486 9.49012 7.11023 9.49012C7.1256 9.49012 7.13678 9.47755 7.13678 9.46357V9.25954C7.13678 9.1757 7.16473 9.09744 7.21085 9.03595C7.25556 8.97586 7.31845 8.93114 7.38972 8.90598V8.83891C7.38972 8.77323 7.44282 8.71873 7.5099 8.71873C7.57698 8.71873 7.63008 8.77183 7.63008 8.83891V8.90598C7.70135 8.92974 7.76424 8.97586 7.80896 9.03595C7.85647 9.09884 7.88442 9.1757 7.88442 9.25954V9.46357C7.88442 9.47894 7.897 9.49012 7.91097 9.49012C7.92495 9.49012 7.93753 9.47755 7.93753 9.46357V9.35736C7.93753 9.3392 7.95849 9.32942 7.97246 9.3392C8.00181 9.35876 8.02557 9.38531 8.04234 9.41746C8.05771 9.4482 8.06749 9.48174 8.06749 9.51947C8.06749 9.5572 8.05771 9.59493 8.03814 9.62847L7.97526 9.73747C7.97526 9.73747 7.97106 9.75005 7.97106 9.75704C7.97106 9.7808 7.99063 9.80036 8.01439 9.80036C8.03814 9.80036 8.05771 9.7808 8.05771 9.75704V9.63825C8.05771 9.62149 8.07587 9.61031 8.09125 9.61869C8.15134 9.65223 8.18767 9.71512 8.18767 9.78359C8.18767 9.81713 8.17929 9.84787 8.16252 9.87722L8.03814 10.0924C8.03814 10.0924 8.03535 10.1008 8.03535 10.105C8.03535 10.1204 8.04792 10.133 8.0633 10.133C8.07308 10.133 8.08286 10.1274 8.08705 10.119L8.16391 9.98622C8.1723 9.97085 8.19326 9.97225 8.20165 9.98622C8.23658 10.0435 8.25475 10.1078 8.25475 10.1749C8.25475 10.2378 8.23798 10.2979 8.20724 10.3524L8.15413 10.4446C8.14994 10.4544 8.14714 10.4656 8.14714 10.4767C8.14714 10.5173 8.17929 10.5494 8.21981 10.5494C8.24636 10.5494 8.27012 10.5354 8.2827 10.5131L8.33021 10.4292C8.35397 10.3873 8.38751 10.351 8.42664 10.3216C8.44201 10.3104 8.46157 10.3216 8.46157 10.3398V11.2314H8.65862C8.66281 11.2104 8.67399 11.1908 8.68796 11.1769C8.70753 11.1573 8.73548 11.1447 8.76482 11.1447C8.79417 11.1447 8.82212 11.1573 8.84168 11.1769C8.85706 11.1922 8.86684 11.2104 8.87103 11.2314H10.3342V10.3859C10.3342 10.3733 10.344 10.3635 10.3565 10.3635C10.411 10.3635 10.4599 10.3859 10.4949 10.4208C10.5298 10.4572 10.5522 10.5061 10.5522 10.5592V10.6919H10.7045C10.7199 10.6919 10.7352 10.685 10.745 10.6752C10.7562 10.664 10.7618 10.65 10.7618 10.6346V10.4795C10.7618 10.439 10.745 10.4027 10.7185 10.3775C10.6919 10.3524 10.6556 10.3342 10.6165 10.3342C10.6039 10.3342 10.5941 10.3244 10.5941 10.3118V9.99041C10.5941 9.97784 10.6039 9.96806 10.6165 9.96806C10.7059 9.96806 10.7869 10.0044 10.8456 10.0631C10.8652 10.0826 10.882 10.105 10.896 10.1288C10.896 10.112 10.9043 10.1036 10.9211 10.1036C10.9518 10.1036 10.9798 10.1176 10.9994 10.1371C11.0203 10.1581 11.0329 10.1875 11.0329 10.2182V10.4963H11.0804V10.1399C11.0804 10.1218 11.0734 10.1036 11.0595 10.0896L10.9644 9.99321C10.9183 9.94849 10.8932 9.887 10.8932 9.82272C10.8932 9.74865 10.9267 9.67878 10.9854 9.63406C11.0008 9.62149 11.0231 9.63406 11.0217 9.65363V9.72629C11.0217 9.76123 11.0511 9.79058 11.086 9.79058C11.1209 9.79058 11.1503 9.76263 11.1503 9.72629C11.1503 9.71651 11.1475 9.70673 11.1433 9.69695L10.9309 9.32942C10.9043 9.28609 10.8904 9.23718 10.8904 9.18687C10.8904 9.10862 10.9239 9.03455 10.984 8.98285C10.998 8.97027 11.0203 8.98145 11.0203 8.99962V9.14216C11.0203 9.19246 11.0609 9.23159 11.1098 9.23159C11.1587 9.23159 11.1992 9.19107 11.1992 9.14216C11.1992 9.12818 11.1964 9.11421 11.1894 9.10163L11.0497 8.86127C11.0287 8.82493 11.0175 8.78441 11.0175 8.74248C11.0175 8.65584 11.065 8.57479 11.1405 8.53286C11.1559 8.52448 11.174 8.53566 11.174 8.55243V8.70755C11.174 8.74248 11.202 8.77183 11.2383 8.77183C11.2747 8.77183 11.3026 8.74388 11.3026 8.70755C11.3026 8.69776 11.3012 8.68798 11.2956 8.6782L11.1894 8.49373C11.1713 8.46439 11.1615 8.42945 11.1615 8.39591C11.1615 8.32045 11.2062 8.25197 11.2747 8.22123C11.29 8.21424 11.3068 8.22542 11.3068 8.24219V8.32604C11.3068 8.35399 11.3306 8.37774 11.3585 8.37774C11.3865 8.37774 11.4102 8.35399 11.4102 8.32604C11.4102 8.31765 11.4088 8.31067 11.4046 8.30228L11.3138 8.14297C11.2984 8.11642 11.29 8.08707 11.29 8.05633C11.29 7.99205 11.3278 7.93195 11.3865 7.90401C11.4018 7.89702 11.4186 7.9082 11.4186 7.92497V8.01021C11.4186 8.03257 11.4368 8.05074 11.4591 8.05074C11.4815 8.05074 11.4997 8.03257 11.4997 8.01021C11.4969 7.9627 11.4493 7.81736 11.434 7.76007C11.4298 7.7433 11.4382 7.72932 11.4563 7.72932H11.5206L11.4759 7.56302C11.4717 7.54905 11.4829 7.53508 11.4969 7.53508H11.5723L11.5374 7.40511C11.5332 7.39114 11.5444 7.37716 11.5583 7.37716H11.7065L11.6715 7.2458C11.6673 7.23183 11.6785 7.21785 11.6925 7.21785H11.835V7.11304C11.835 7.07252 11.8518 7.03618 11.8784 7.00963C11.9049 6.98308 11.9413 6.96631 11.9818 6.96631C12.0223 6.96631 12.0586 6.98308 12.0852 7.00963C12.1117 7.03618 12.1285 7.07252 12.1285 7.11304V7.21785H12.2711C12.285 7.21785 12.2962 7.23183 12.292 7.2458L12.2571 7.37716H12.4052C12.4192 7.37716 12.4304 7.39114 12.4262 7.40511L12.3912 7.53508H12.4667C12.4807 7.53508 12.4919 7.54905 12.4877 7.56302L12.4429 7.72932H12.5072C12.5254 7.72932 12.5324 7.7433 12.5296 7.76007C12.5142 7.81736 12.4667 7.9627 12.4639 8.01021C12.4639 8.03257 12.4821 8.05074 12.5044 8.05074C12.5268 8.05074 12.545 8.03257 12.545 8.01021V7.92497C12.545 7.9082 12.5617 7.89702 12.5771 7.90401C12.6358 7.93195 12.6735 7.99065 12.6735 8.05633C12.6735 8.08707 12.6651 8.11642 12.6498 8.14297L12.5575 8.30228C12.5533 8.30927 12.5519 8.31765 12.5519 8.32604C12.5519 8.35399 12.5757 8.37774 12.6036 8.37774C12.6316 8.37774 12.6554 8.35399 12.6554 8.32604V8.24219C12.6554 8.22542 12.6721 8.21424 12.6861 8.22123C12.7546 8.25197 12.7993 8.32045 12.7993 8.39591C12.7993 8.43085 12.7895 8.46439 12.7727 8.49373L12.6665 8.6782C12.6623 8.68658 12.6595 8.69637 12.6595 8.70755C12.6595 8.74248 12.6875 8.77183 12.7238 8.77183C12.7602 8.77183 12.7881 8.74388 12.7881 8.70755V8.55243C12.7881 8.53566 12.8063 8.52448 12.8217 8.53286C12.8971 8.57479 12.9446 8.65584 12.9446 8.74248C12.9446 8.78441 12.9334 8.82493 12.9125 8.86127L12.7727 9.10163C12.7672 9.11421 12.763 9.12818 12.763 9.14216C12.763 9.19246 12.8035 9.23159 12.8524 9.23159C12.9013 9.23159 12.9418 9.19107 12.9418 9.14216V8.99962C12.9418 8.98145 12.9642 8.97027 12.9782 8.98285C13.0369 9.03455 13.0718 9.10862 13.0718 9.18687C13.0718 9.23718 13.0578 9.28609 13.0313 9.32942L12.8189 9.69695C12.8147 9.70533 12.8119 9.71512 12.8119 9.72629C12.8119 9.76123 12.8398 9.79058 12.8762 9.79058C12.9125 9.79058 12.9404 9.76263 12.9404 9.72629V9.65363C12.9404 9.63406 12.9614 9.62288 12.9768 9.63406C13.0355 9.68018 13.069 9.74865 13.069 9.82272C13.069 9.887 13.0438 9.94849 12.9977 9.99321L12.9027 10.0896C12.8887 10.1036 12.8817 10.1204 12.8817 10.1399V10.4963H12.9293V10.2182C12.9293 10.1861 12.9418 10.1581 12.9628 10.1371C12.9824 10.1176 13.0103 10.1036 13.0411 10.1036C13.0564 10.1036 13.0662 10.112 13.0662 10.1288C13.0802 10.105 13.097 10.0826 13.1165 10.0631C13.1752 10.0044 13.2563 9.96806 13.3457 9.96806C13.3583 9.96806 13.3681 9.97784 13.3681 9.99041V10.3118C13.3681 10.3244 13.3583 10.3342 13.3457 10.3342C13.3066 10.3342 13.2688 10.351 13.2437 10.3775C13.2171 10.4041 13.2004 10.4404 13.2004 10.4795V10.6346C13.2004 10.6514 13.2074 10.6654 13.2171 10.6752C13.2283 10.6864 13.2423 10.6919 13.2577 10.6919H13.41V10.5592C13.41 10.5047 13.4323 10.4558 13.4673 10.4208C13.5022 10.3859 13.5525 10.3635 13.6056 10.3635C13.6182 10.3635 13.628 10.3733 13.628 10.3859V11.2314H15.0911C15.0953 11.2104 15.1065 11.1908 15.1205 11.1769C15.14 11.1573 15.168 11.1447 15.1973 11.1447C15.2267 11.1447 15.2546 11.1573 15.2742 11.1769C15.2882 11.1922 15.2994 11.2104 15.3035 11.2314H15.5006V10.3398C15.5006 10.3216 15.5215 10.3104 15.5355 10.3216C15.5747 10.3496 15.6082 10.3873 15.6319 10.4292L15.6809 10.5131C15.6934 10.5354 15.7172 10.5494 15.7437 10.5494C15.7843 10.5494 15.8164 10.5173 15.8164 10.4767C15.8164 10.4656 15.8136 10.4544 15.8094 10.4446L15.7563 10.3524C15.7256 10.2979 15.7088 10.2378 15.7088 10.1749C15.7088 10.1078 15.727 10.0435 15.7619 9.98622C15.7703 9.97225 15.7913 9.97225 15.7996 9.98622L15.8765 10.119C15.8821 10.1274 15.8905 10.133 15.9003 10.133C15.9156 10.133 15.9282 10.1204 15.9282 10.105C15.9282 10.1008 15.9282 10.0966 15.9254 10.0924L15.801 9.87722C15.7843 9.84927 15.7759 9.81713 15.7759 9.78359C15.7759 9.71512 15.8136 9.65223 15.8723 9.61869C15.8863 9.61031 15.9059 9.62149 15.9059 9.63825V9.75704C15.9059 9.7808 15.9254 9.80036 15.9492 9.80036C15.9729 9.80036 15.9925 9.7808 15.9925 9.75704C15.9925 9.75005 15.9911 9.74306 15.9883 9.73747L15.9254 9.62847C15.9059 9.59493 15.8961 9.5586 15.8961 9.51947C15.8961 9.48034 15.9059 9.4482 15.9212 9.41746C15.938 9.38671 15.9617 9.35876 15.9911 9.3392C16.0051 9.32942 16.026 9.3392 16.026 9.35736V9.46357C16.026 9.47894 16.0386 9.49012 16.054 9.49012C16.0694 9.49012 16.0805 9.47755 16.0805 9.46357V9.25954C16.0805 9.1757 16.1085 9.09744 16.1546 9.03595C16.1993 8.97586 16.2608 8.93114 16.3335 8.90598V8.83891C16.3335 8.77323 16.3866 8.71873 16.4537 8.71873C16.5207 8.71873 16.5738 8.77183 16.5738 8.83891V8.90598C16.6451 8.92974 16.708 8.97586 16.7527 9.03595C16.8002 9.09884 16.8282 9.1757 16.8282 9.25954V9.46357C16.8282 9.47894 16.8408 9.49012 16.8547 9.49012C16.8687 9.49012 16.8813 9.47755 16.8827 9.46357V9.35736C16.8827 9.3392 16.9036 9.32942 16.9176 9.3392C16.947 9.35876 16.9707 9.38531 16.9875 9.41746C17.0043 9.4482 17.0126 9.48174 17.0126 9.51947C17.0126 9.5572 17.0029 9.59493 16.9833 9.62847L16.9204 9.73747C16.9204 9.73747 16.9162 9.75005 16.9162 9.75704C16.9162 9.7808 16.9358 9.80036 16.9595 9.80036C16.9833 9.80036 17.0029 9.7808 17.0029 9.75704V9.63825C17.0029 9.62149 17.021 9.61031 17.0364 9.61869C17.0965 9.65223 17.1328 9.71512 17.1328 9.78359C17.1328 9.81713 17.1244 9.84787 17.1077 9.87722L16.9833 10.0924C16.9833 10.0924 16.9805 10.1008 16.9805 10.105C16.9805 10.1204 16.9931 10.133 17.0084 10.133C17.0182 10.133 17.028 10.1274 17.0322 10.119L17.1091 9.98622C17.1174 9.97085 17.1384 9.97225 17.1468 9.98622C17.1817 10.0435 17.1999 10.1078 17.1999 10.1749C17.1999 10.2378 17.1831 10.2979 17.1524 10.3524L17.0993 10.4446C17.0951 10.4544 17.0923 10.4656 17.0923 10.4767C17.0923 10.5173 17.1244 10.5494 17.165 10.5494C17.1915 10.5494 17.2153 10.5354 17.2278 10.5131L17.2754 10.4292C17.2991 10.3873 17.3327 10.351 17.3718 10.3216C17.3872 10.3104 17.4067 10.3216 17.4067 10.3398V10.8331H17.601V10.8023C17.601 10.7716 17.6135 10.745 17.6331 10.7255C17.6527 10.7059 17.6806 10.6933 17.71 10.6933C17.7393 10.6933 17.7673 10.7059 17.7868 10.7255C17.8064 10.745 17.819 10.773 17.819 10.8023V11.0888C17.8274 11.0776 17.8371 11.0651 17.8469 11.0553C17.8916 11.0106 17.9531 10.9826 18.0216 10.9826C18.0342 10.9826 18.044 10.9924 18.044 11.005V12.1481C18.044 12.1607 18.0342 12.1705 18.0216 12.1705C17.9545 12.1705 17.893 12.1984 17.8483 12.2431C17.8036 12.2878 17.7757 12.3493 17.7757 12.4164V13.6909C17.7757 13.7692 17.8078 13.839 17.8581 13.8893C17.9084 13.941 17.9797 13.9718 18.0565 13.9718H18.3179C18.3304 13.9718 18.3402 13.9816 18.3402 13.9941V14.3463H18.5443C18.5568 14.3463 18.5666 14.3561 18.5666 14.3687V14.827H18.9286C18.9411 14.827 18.9509 14.8368 18.9509 14.8494V15.4671H19.3198C19.3324 15.4671 19.3422 15.4768 19.3422 15.4894V16.2245H19.7069C19.7195 16.2245 19.7293 16.2343 19.7293 16.2469V17.0043C19.7293 17.0169 19.7195 17.0266 19.7069 17.0266H4.25661C4.24404 17.0266 4.23425 17.0169 4.23425 17.0043V16.2469C4.23425 16.2343 4.24404 16.2245 4.25661 16.2245H4.62135V15.4894C4.62135 15.4768 4.63113 15.4671 4.64371 15.4671H5.01264V14.8494C5.01264 14.8368 5.02242 14.827 5.035 14.827H5.39694V14.3687C5.39694 14.3561 5.40672 14.3463 5.4193 14.3463H5.62333Z" fill="black"/>
<path fill-rule="evenodd" clip-rule="evenodd" d="M16.4844 11.5879C16.4285 11.6452 16.3782 11.7109 16.3377 11.7807C16.2944 11.8562 16.2594 11.9373 16.2371 12.0239C16.2329 12.0407 16.2105 12.0463 16.1979 12.0323C16.1574 11.9834 16.1099 11.9387 16.0568 11.9023C16.0135 11.8716 15.966 11.8464 15.9171 11.8269V12.1734H17.0532V11.8269C17.0029 11.8464 16.9568 11.873 16.9134 11.9023C16.8603 11.9387 16.8128 11.982 16.7723 12.0323C16.7611 12.0463 16.7388 12.0407 16.7332 12.0239C16.7108 11.9373 16.6759 11.8562 16.6326 11.7807C16.592 11.7109 16.5417 11.6452 16.4858 11.5879H16.4844Z" fill="white"/>
<path fill-rule="evenodd" clip-rule="evenodd" d="M16.1169 11.8926C16.1476 11.9177 16.177 11.9443 16.2049 11.9736C16.2287 11.8982 16.2594 11.8255 16.2986 11.7584C16.3461 11.6788 16.4034 11.6047 16.469 11.5404C16.4732 11.5362 16.4788 11.5348 16.4844 11.5348C16.49 11.5348 16.4956 11.5376 16.4998 11.5404C16.5655 11.6047 16.6228 11.6788 16.6703 11.7584C16.7094 11.8255 16.7415 11.8968 16.7639 11.9736C16.7905 11.9443 16.8198 11.9177 16.8519 11.8926C16.8226 11.785 16.7765 11.6857 16.715 11.5977C16.6521 11.5083 16.5739 11.43 16.4858 11.3657C16.3964 11.4286 16.3181 11.5069 16.2566 11.5977C16.1951 11.6857 16.1476 11.7864 16.1197 11.8926H16.1169Z" fill="white"/>
<path fill-rule="evenodd" clip-rule="evenodd" d="M16.1365 11.7123C16.1602 11.6634 16.1868 11.6173 16.2175 11.5725C16.286 11.4747 16.3712 11.3895 16.4704 11.321C16.4774 11.3154 16.4886 11.3154 16.4956 11.321C16.5948 11.3895 16.6801 11.4747 16.7485 11.5725C16.7793 11.6173 16.8072 11.6634 16.8296 11.7123L17.0434 11.4985V11.1896C17.0085 11.2092 16.9735 11.233 16.9414 11.2581C16.8995 11.2902 16.8603 11.328 16.8254 11.3671C16.8128 11.3811 16.7891 11.3741 16.7863 11.3559C16.7695 11.2497 16.7318 11.1505 16.6773 11.0625C16.6256 10.9772 16.5585 10.9018 16.4802 10.8389C16.402 10.9004 16.3349 10.9758 16.2832 11.0625C16.2301 11.1505 16.1924 11.2497 16.1742 11.3559C16.1714 11.3755 16.1476 11.3811 16.1351 11.3671C16.1001 11.328 16.061 11.2902 16.0191 11.2581C15.9869 11.233 15.9534 11.2106 15.9171 11.1896V11.4985L16.1309 11.7123H16.1365Z" fill="white"/>
<path fill-rule="evenodd" clip-rule="evenodd" d="M16.1448 11.2983C16.1658 11.2047 16.2021 11.118 16.2496 11.0384C16.3069 10.9433 16.3824 10.8595 16.4718 10.7924C16.4802 10.7868 16.4914 10.7868 16.4984 10.7924C16.5864 10.8595 16.6619 10.9433 16.7192 11.0384C16.7667 11.118 16.803 11.2047 16.824 11.2983L17.0462 11.0146V10.6708C17.0098 10.6918 16.9763 10.717 16.9442 10.7435C16.9022 10.7784 16.8645 10.819 16.8324 10.8623C16.8212 10.8777 16.796 10.8721 16.7932 10.8525C16.7723 10.7407 16.7331 10.6359 16.68 10.5409C16.6283 10.45 16.5627 10.3662 16.4858 10.2949C16.4089 10.3662 16.3433 10.4486 16.2915 10.5409C16.237 10.6359 16.1993 10.7407 16.1783 10.8525C16.1742 10.8721 16.149 10.8777 16.1378 10.8609C16.1057 10.8176 16.068 10.7784 16.026 10.7435C15.9939 10.717 15.9603 10.6918 15.924 10.6708V11.0146L16.1462 11.2983H16.1448Z" fill="white"/>
<path fill-rule="evenodd" clip-rule="evenodd" d="M16.2119 10.5982C16.2245 10.5717 16.2371 10.5451 16.2524 10.52C16.3097 10.4179 16.3838 10.3271 16.4704 10.2502C16.4788 10.2419 16.4914 10.2419 16.4998 10.2502C16.5864 10.3271 16.6605 10.4193 16.7178 10.52C16.7318 10.5451 16.7457 10.5717 16.7569 10.5982L16.9092 10.404V10.1985C16.8827 10.2083 16.8575 10.2223 16.8352 10.2377C16.803 10.2586 16.7751 10.2852 16.7499 10.3145C16.7373 10.3285 16.715 10.3229 16.7108 10.3047C16.6982 10.2405 16.6689 10.1818 16.6297 10.1329C16.5906 10.0853 16.5417 10.0476 16.4858 10.0225C16.4299 10.0476 16.3796 10.0853 16.3405 10.1329C16.2999 10.1818 16.272 10.2405 16.2594 10.3047C16.2552 10.3243 16.2315 10.3299 16.2189 10.3131C16.1951 10.2838 16.1658 10.2586 16.135 10.2377C16.1113 10.2223 16.0861 10.2097 16.061 10.1985V10.404L16.2133 10.5982H16.2119Z" fill="white"/>
<path fill-rule="evenodd" clip-rule="evenodd" d="M16.2524 10.1862C16.2678 10.1569 16.2846 10.1289 16.3055 10.1038C16.3502 10.0493 16.4089 10.0045 16.476 9.97659C16.4816 9.9738 16.4872 9.9738 16.4928 9.97659C16.5599 10.0045 16.6186 10.0479 16.6633 10.1038C16.6842 10.1289 16.7024 10.1569 16.7164 10.1862L16.8268 10.0451V9.88995C16.8142 9.89833 16.8016 9.90672 16.789 9.9165C16.7667 9.93467 16.7457 9.95423 16.7276 9.97519C16.7164 9.98777 16.6982 9.98358 16.6912 9.9696C16.6689 9.92209 16.6381 9.87877 16.6004 9.84104C16.5668 9.8061 16.5263 9.77675 16.483 9.75439C16.4397 9.77675 16.4005 9.8061 16.3656 9.84104C16.3293 9.87877 16.2985 9.92209 16.2748 9.9696C16.2678 9.98497 16.2468 9.98637 16.237 9.9738C16.2189 9.95283 16.1979 9.93467 16.177 9.9165C16.1644 9.90672 16.1532 9.89833 16.1392 9.88995V10.0451L16.2496 10.1862H16.2524Z" fill="white"/>
<path fill-rule="evenodd" clip-rule="evenodd" d="M16.3069 9.84364C16.3167 9.83246 16.3265 9.82128 16.3363 9.8115C16.3768 9.77097 16.4229 9.73604 16.4746 9.71088C16.4802 9.70809 16.4872 9.70809 16.4942 9.71088C16.5459 9.73604 16.5934 9.77097 16.6325 9.8115C16.6423 9.82128 16.6521 9.83246 16.6619 9.84364L16.7094 9.78355V9.62703L16.6926 9.63682C16.6772 9.6466 16.6633 9.65778 16.6507 9.67036C16.6381 9.68153 16.6186 9.67595 16.6144 9.66057C16.6032 9.62424 16.585 9.5907 16.5613 9.56275C16.5403 9.5362 16.5137 9.51384 16.4858 9.49707C16.4564 9.51384 16.4313 9.5376 16.4103 9.56275C16.3866 9.5921 16.3684 9.62424 16.3572 9.66057C16.3516 9.67734 16.3307 9.68154 16.3195 9.66896C16.3069 9.65638 16.2929 9.6452 16.2776 9.63542C16.272 9.63123 16.2664 9.62843 16.2608 9.62564V9.78215L16.3083 9.84224L16.3069 9.84364Z" fill="white"/>
<path fill-rule="evenodd" clip-rule="evenodd" d="M16.346 9.57531C16.3544 9.56133 16.3642 9.54736 16.3754 9.53478C16.4033 9.50124 16.4369 9.47329 16.4746 9.45233C16.4816 9.44814 16.4886 9.44814 16.4956 9.45233C16.5333 9.47329 16.5668 9.50124 16.5948 9.53478C16.606 9.54736 16.6144 9.56133 16.6241 9.57531L16.7108 9.46491V9.38385C16.7108 9.38385 16.6996 9.39084 16.694 9.39364C16.6786 9.40342 16.6647 9.4146 16.6521 9.42717C16.6395 9.43975 16.6186 9.43416 16.6144 9.41739C16.6032 9.38246 16.5864 9.35031 16.5627 9.32376C16.5417 9.29861 16.5151 9.27904 16.4858 9.26367C16.4564 9.27904 16.4299 9.29861 16.4089 9.32376C16.3852 9.35031 16.367 9.38246 16.3572 9.41739C16.353 9.43416 16.3321 9.43975 16.3195 9.42717C16.3069 9.4146 16.2929 9.40342 16.2776 9.39364C16.272 9.38944 16.2664 9.38665 16.2608 9.38385V9.46491L16.3474 9.57531H16.346Z" fill="white"/>
<path fill-rule="evenodd" clip-rule="evenodd" d="M15.3329 11.2763V11.6872C15.3622 11.7123 15.3888 11.7389 15.4139 11.7668C15.4601 11.8185 15.4978 11.8772 15.5285 11.9401V11.2749H15.3329V11.2763Z" fill="white"/>
<path fill-rule="evenodd" clip-rule="evenodd" d="M15.1596 11.627V12.042H15.5202C15.4908 11.9498 15.4419 11.8673 15.3804 11.796C15.3189 11.7262 15.2435 11.6675 15.1596 11.627Z" fill="white"/>
<path d="M17.6346 10.8779H17.4403V11.0163H17.6346V10.8779Z" fill="white"/>
<path fill-rule="evenodd" clip-rule="evenodd" d="M17.6359 11.687V11.0596H17.4417V11.94C17.471 11.8771 17.5101 11.8184 17.5562 11.7667C17.5814 11.7387 17.6079 11.7122 17.6373 11.687H17.6359Z" fill="white"/>
<path fill-rule="evenodd" clip-rule="evenodd" d="M17.8092 11.5781V10.8025C17.8092 10.7843 17.8022 10.769 17.7897 10.7564C17.7785 10.7452 17.7617 10.7368 17.7435 10.7368C17.7254 10.7368 17.71 10.7452 17.6974 10.7564C17.6862 10.7676 17.6779 10.7843 17.6779 10.8025V11.6536C17.7184 11.6242 17.7617 11.599 17.8064 11.5781H17.8092Z" fill="white"/>
<path fill-rule="evenodd" clip-rule="evenodd" d="M17.4487 12.042H17.8092V11.627C17.724 11.6689 17.6499 11.7262 17.587 11.796C17.5255 11.8673 17.4766 11.9498 17.4473 12.042H17.4487Z" fill="white"/>
<path fill-rule="evenodd" clip-rule="evenodd" d="M17.0965 12.0421H17.3956V10.3875C17.376 10.4085 17.3606 10.4267 17.3466 10.4504L17.2991 10.5343C17.2782 10.5706 17.239 10.5929 17.1971 10.5929C17.1328 10.5929 17.0797 10.5398 17.0797 10.4756C17.0797 10.4574 17.0839 10.4406 17.0923 10.4239L17.1468 10.3288C17.1734 10.2813 17.1873 10.2282 17.1873 10.1737C17.1873 10.129 17.1776 10.0843 17.1594 10.0423L17.1021 10.1402C17.0895 10.1625 17.0658 10.1765 17.0392 10.1765C17.0001 10.1765 16.9665 10.1444 16.9665 10.1038C16.9665 10.0927 16.9693 10.0815 16.9749 10.0717L17.1007 9.85509C17.1133 9.83273 17.1189 9.80897 17.1189 9.78382C17.1189 9.74609 17.1049 9.70975 17.0783 9.6832V9.75727C17.0783 9.80618 17.0392 9.84531 16.9903 9.84531C16.9414 9.84531 16.9023 9.80618 16.9023 9.75727C16.9023 9.74329 16.905 9.72932 16.912 9.71814C16.9316 9.68041 16.9568 9.64407 16.9763 9.60774C16.9917 9.58119 16.9987 9.55184 16.9987 9.5211C16.9987 9.49035 16.9917 9.4638 16.9791 9.44004C16.9735 9.42886 16.9665 9.41908 16.9582 9.4093V9.4652C16.9582 9.50433 16.926 9.53647 16.8869 9.53647C16.8478 9.53647 16.8156 9.50433 16.8156 9.4652V9.26117C16.8156 9.1871 16.7905 9.11863 16.7499 9.06413C16.708 9.00823 16.6479 8.9663 16.5794 8.94534C16.5697 8.94255 16.5627 8.93416 16.5627 8.92298V8.83913C16.5627 8.79721 16.5291 8.76367 16.4872 8.76367C16.4453 8.76367 16.4117 8.79721 16.4117 8.83913V8.92298C16.4117 8.93416 16.4048 8.94255 16.395 8.94534C16.3265 8.96491 16.2664 9.00823 16.2245 9.06413C16.1826 9.11863 16.1588 9.1871 16.1588 9.26117V9.4652C16.1588 9.50433 16.1267 9.53647 16.0875 9.53647C16.0484 9.53647 16.0149 9.50433 16.0149 9.4652V9.4093C16.0065 9.41908 15.9995 9.42886 15.9939 9.44004C15.9813 9.4638 15.9743 9.49175 15.9743 9.5211C15.9743 9.55044 15.9827 9.58119 15.9967 9.60774C16.0163 9.64547 16.04 9.6818 16.061 9.71814C16.068 9.73072 16.0708 9.74469 16.0708 9.75727C16.0708 9.80618 16.0316 9.84531 15.9827 9.84531C15.9338 9.84531 15.8947 9.80618 15.8947 9.75727V9.6832C15.8681 9.70975 15.8542 9.74609 15.8542 9.78382C15.8542 9.80897 15.8611 9.83273 15.8737 9.85509L15.9995 10.0717C16.0051 10.0815 16.0079 10.0927 16.0079 10.1038C16.0079 10.1444 15.9757 10.1765 15.9352 10.1765C15.9101 10.1765 15.8863 10.1625 15.8723 10.1402L15.815 10.0423C15.7955 10.0829 15.7871 10.1276 15.7871 10.1737C15.7871 10.2282 15.8011 10.2813 15.8276 10.3288L15.8821 10.4239C15.8905 10.4392 15.8947 10.4574 15.8947 10.4756C15.8947 10.5412 15.8416 10.5929 15.7773 10.5929C15.7354 10.5929 15.6962 10.5706 15.6753 10.5343L15.6278 10.4504C15.6138 10.4253 15.5984 10.4071 15.5789 10.3875V12.0421H15.8779V11.7948C15.8779 11.778 15.8947 11.7682 15.9087 11.7738C15.9715 11.7962 16.0302 11.8269 16.0847 11.8646C16.0959 11.8269 16.1085 11.7906 16.1225 11.7556L15.8905 11.5237C15.8905 11.5237 15.8835 11.5139 15.8835 11.5083V11.1533C15.8835 11.1366 15.9003 11.1254 15.9156 11.1338C15.945 11.1491 15.9743 11.1659 16.0023 11.1841L15.8891 11.0401C15.8891 11.0401 15.8835 11.0304 15.8835 11.0248V10.6349C15.8835 10.6181 15.9017 10.6069 15.917 10.6153C15.9687 10.6433 16.0163 10.6754 16.0596 10.7131C16.0917 10.7397 16.1211 10.7704 16.1476 10.8012C16.1602 10.7481 16.177 10.6964 16.1965 10.6475L16.026 10.4294C16.026 10.4294 16.0205 10.4197 16.0205 10.4141V10.1709C16.0205 10.1555 16.0344 10.1458 16.0498 10.15C16.0917 10.1625 16.1295 10.1807 16.1644 10.2045C16.1881 10.2198 16.2105 10.238 16.2301 10.259C16.2329 10.252 16.2343 10.245 16.2371 10.238L16.1085 10.0731C16.1085 10.0731 16.1029 10.0633 16.1029 10.0577V9.85649C16.1029 9.83972 16.1211 9.82854 16.1364 9.83692C16.163 9.8509 16.1895 9.86906 16.2133 9.88723C16.2287 9.89981 16.244 9.91238 16.258 9.92636C16.2664 9.91099 16.2748 9.89701 16.2846 9.88304L16.2273 9.80897C16.2273 9.80897 16.2217 9.79919 16.2217 9.7936V9.59237C16.2217 9.57699 16.2385 9.56581 16.2524 9.5714C16.272 9.57979 16.2902 9.58957 16.3069 9.60075C16.3125 9.60494 16.3181 9.60774 16.3223 9.61193L16.2245 9.48756C16.2245 9.48756 16.2203 9.47917 16.2203 9.47358V9.34921C16.2203 9.33244 16.2371 9.32266 16.2524 9.32964C16.272 9.33663 16.2902 9.34641 16.3069 9.35759C16.3153 9.36318 16.3223 9.36877 16.3307 9.37436C16.3433 9.34502 16.36 9.31986 16.3796 9.2961C16.4076 9.26396 16.4425 9.23881 16.4816 9.22064C16.4844 9.22064 16.4872 9.21924 16.4914 9.21924C16.4956 9.21924 16.4984 9.21924 16.5012 9.22064C16.5403 9.23881 16.5752 9.26396 16.6018 9.2961C16.6228 9.31986 16.6395 9.34502 16.6507 9.37436C16.6577 9.36877 16.6661 9.36318 16.6745 9.35759C16.6912 9.34641 16.7094 9.33663 16.729 9.32964C16.7443 9.32266 16.7611 9.33244 16.7611 9.34921V9.47358C16.7611 9.47358 16.7597 9.48336 16.7569 9.48756L16.6591 9.61193C16.6591 9.61193 16.6689 9.60494 16.6745 9.60075C16.6912 9.58957 16.7094 9.57979 16.7276 9.5714C16.7429 9.56442 16.7597 9.5742 16.7597 9.59097V9.7922C16.7597 9.7922 16.7583 9.80199 16.7555 9.80618L16.6968 9.88164C16.7066 9.89562 16.715 9.90959 16.7234 9.92496C16.7374 9.91099 16.7527 9.89701 16.7681 9.88444C16.7919 9.86627 16.817 9.8495 16.8436 9.83413C16.8589 9.82574 16.8771 9.83413 16.8771 9.85369V10.0549C16.8771 10.0549 16.8757 10.0647 16.8729 10.0689L16.7429 10.2352C16.7429 10.2352 16.7471 10.2492 16.7499 10.2562C16.7695 10.2366 16.7919 10.2184 16.8156 10.2017C16.8505 10.1793 16.8883 10.1611 16.9288 10.1486C16.9428 10.143 16.9595 10.1527 16.9595 10.1695V10.4127C16.9595 10.4127 16.9582 10.4225 16.9554 10.4267L16.7835 10.6461C16.803 10.6964 16.8198 10.7467 16.8324 10.7998C16.8589 10.7676 16.8897 10.7383 16.9204 10.7117C16.9637 10.6754 17.0113 10.6433 17.0616 10.6153C17.0755 10.6055 17.0965 10.6153 17.0965 10.6335V11.0234C17.0965 11.0234 17.0951 11.0331 17.0923 11.0373L16.9791 11.1827C17.0057 11.1645 17.035 11.1477 17.0644 11.1338C17.0797 11.1254 17.0979 11.1352 17.0979 11.1533V11.5083C17.0979 11.5083 17.0951 11.5195 17.0909 11.5237L16.8589 11.7556C16.8743 11.7906 16.8869 11.8269 16.8967 11.8646C16.9512 11.8269 17.0099 11.7976 17.0727 11.7738C17.0867 11.7682 17.1035 11.778 17.1035 11.7948V12.0421H17.0965Z" fill="white"/>
<path fill-rule="evenodd" clip-rule="evenodd" d="M7.51414 11.5879C7.57144 11.6452 7.62035 11.7109 7.66087 11.7807C7.70419 11.8562 7.73913 11.9373 7.76149 12.0239C7.76568 12.0407 7.78804 12.0463 7.80062 12.0323C7.84115 11.9834 7.88866 11.9387 7.94176 11.9023C7.98509 11.8716 8.0326 11.8464 8.08151 11.8269V12.1734H6.94537V11.8269C6.99568 11.8464 7.0418 11.873 7.08512 11.9023C7.13822 11.9387 7.18574 11.982 7.22626 12.0323C7.23744 12.0463 7.2598 12.0407 7.26539 12.0239C7.28775 11.9373 7.32269 11.8562 7.36601 11.7807C7.40654 11.7109 7.45684 11.6452 7.51274 11.5879H7.51414Z" fill="white"/>
<path fill-rule="evenodd" clip-rule="evenodd" d="M7.88168 11.8926C7.85093 11.9177 7.82159 11.9443 7.79364 11.9736C7.76988 11.8982 7.73914 11.8255 7.70001 11.7584C7.65389 11.6788 7.5952 11.6047 7.52952 11.5404C7.52532 11.5362 7.51973 11.5348 7.51414 11.5348C7.50856 11.5348 7.50297 11.5376 7.49877 11.5404C7.43309 11.6047 7.3758 11.6788 7.32828 11.7584C7.28915 11.8255 7.25701 11.8968 7.23465 11.9736C7.2081 11.9443 7.17875 11.9177 7.14801 11.8926C7.17736 11.785 7.22347 11.6857 7.28496 11.5977C7.34785 11.5083 7.42471 11.43 7.51414 11.3657C7.60358 11.4286 7.68184 11.5069 7.74333 11.5977C7.80482 11.6857 7.85233 11.7864 7.88028 11.8926H7.88168Z" fill="white"/>
<path fill-rule="evenodd" clip-rule="evenodd" d="M7.86209 11.7123C7.83833 11.6634 7.81178 11.6173 7.78104 11.5725C7.71256 11.4747 7.62732 11.3895 7.5281 11.321C7.52111 11.3154 7.50993 11.3154 7.50294 11.321C7.40372 11.3895 7.31848 11.4747 7.25 11.5725C7.21926 11.6173 7.19131 11.6634 7.16895 11.7123L6.95514 11.4985V11.1896C6.99008 11.2092 7.02501 11.233 7.05715 11.2581C7.09908 11.2902 7.13821 11.328 7.17314 11.3671C7.18572 11.3811 7.20948 11.3741 7.21227 11.3559C7.22904 11.2497 7.26677 11.1505 7.32127 11.0625C7.37298 10.9772 7.44006 10.9018 7.51832 10.8389C7.59657 10.9004 7.66365 10.9758 7.71536 11.0625C7.76846 11.1505 7.80619 11.2497 7.82436 11.3559C7.82716 11.3755 7.85091 11.3811 7.86349 11.3671C7.89843 11.328 7.93755 11.2902 7.97948 11.2581C8.01162 11.233 8.04516 11.2106 8.08149 11.1896V11.4985L7.86768 11.7123H7.86209Z" fill="white"/>
<path fill-rule="evenodd" clip-rule="evenodd" d="M7.85369 11.2983C7.83273 11.2047 7.7964 11.118 7.74888 11.0384C7.69159 10.9433 7.61613 10.8595 7.52669 10.7924C7.5183 10.7868 7.50852 10.7868 7.50014 10.7924C7.4121 10.8595 7.33663 10.9433 7.27934 11.0384C7.23182 11.118 7.19549 11.2047 7.17453 11.2983L6.95233 11.0146V10.6708C6.98867 10.6918 7.0222 10.717 7.05435 10.7435C7.09627 10.7784 7.134 10.819 7.16614 10.8623C7.17732 10.8777 7.20248 10.8721 7.20527 10.8525C7.22623 10.7407 7.26536 10.6359 7.31847 10.5409C7.37017 10.45 7.43585 10.3662 7.51271 10.2949C7.58957 10.3662 7.65525 10.4486 7.70696 10.5409C7.76146 10.6359 7.79919 10.7407 7.82015 10.8525C7.82435 10.8721 7.8495 10.8777 7.86068 10.8609C7.89282 10.8176 7.93055 10.7784 7.97248 10.7435C8.00462 10.717 8.03816 10.6918 8.07449 10.6708V11.0146L7.8523 11.2983H7.85369Z" fill="white"/>
<path fill-rule="evenodd" clip-rule="evenodd" d="M7.78803 10.5982C7.77545 10.5717 7.76287 10.5451 7.7475 10.52C7.6902 10.4179 7.61614 10.3271 7.52949 10.2502C7.52111 10.2419 7.50853 10.2419 7.50015 10.2502C7.41351 10.3271 7.33944 10.4193 7.28214 10.52C7.26817 10.5451 7.25419 10.5717 7.24162 10.5982L7.08929 10.404V10.1985C7.11585 10.2083 7.141 10.2223 7.16336 10.2377C7.1955 10.2586 7.22485 10.2852 7.2486 10.3145C7.26118 10.3285 7.28354 10.3229 7.28773 10.3047C7.30031 10.2405 7.32966 10.1818 7.36879 10.1329C7.40792 10.0853 7.45683 10.0476 7.51273 10.0225C7.56862 10.0476 7.61893 10.0853 7.65806 10.1329C7.69859 10.1818 7.72654 10.2405 7.73911 10.3047C7.74331 10.3243 7.76706 10.3299 7.77964 10.3131C7.8034 10.2838 7.83274 10.2586 7.86349 10.2377C7.88724 10.2223 7.911 10.2097 7.93755 10.1985V10.404L7.78523 10.5982H7.78803Z" fill="white"/>
<path fill-rule="evenodd" clip-rule="evenodd" d="M7.74751 10.1862C7.73214 10.1569 7.71537 10.1289 7.69441 10.1038C7.64969 10.0493 7.591 10.0045 7.52392 9.97659C7.51833 9.9738 7.51274 9.9738 7.50715 9.97659C7.44007 10.0045 7.38138 10.0479 7.33666 10.1038C7.3157 10.1289 7.29753 10.1569 7.28356 10.1862L7.17316 10.0451V9.88995C7.18573 9.89833 7.19831 9.90672 7.21089 9.9165C7.23325 9.93467 7.25281 9.95423 7.27238 9.97519C7.28356 9.98777 7.30172 9.98358 7.30871 9.9696C7.33107 9.92209 7.36181 9.87877 7.39955 9.84104C7.43308 9.8061 7.47361 9.77675 7.51693 9.75439C7.56025 9.77675 7.59938 9.8061 7.63432 9.84104C7.67065 9.87877 7.7014 9.92209 7.72515 9.9696C7.73214 9.98497 7.7531 9.98637 7.76289 9.9738C7.78105 9.95283 7.80201 9.93467 7.82298 9.9165C7.83555 9.90672 7.84813 9.89833 7.86071 9.88995V10.0451L7.75031 10.1862H7.74751Z" fill="white"/>
<path fill-rule="evenodd" clip-rule="evenodd" d="M7.693 9.84364C7.68321 9.83246 7.67343 9.82128 7.66365 9.8115C7.62312 9.77097 7.57701 9.73604 7.5253 9.71088C7.51971 9.70809 7.51272 9.70809 7.50574 9.71088C7.45403 9.73604 7.40652 9.77097 7.36739 9.8115C7.35761 9.82128 7.34782 9.83246 7.33804 9.84364L7.29053 9.78355V9.62703L7.3073 9.63682C7.32267 9.6466 7.33664 9.65778 7.34922 9.67036C7.3618 9.68153 7.38136 9.67595 7.38555 9.66057C7.39673 9.62424 7.4149 9.5907 7.43866 9.56275C7.45962 9.5362 7.48477 9.51384 7.51412 9.49707C7.54347 9.51384 7.56862 9.5376 7.58958 9.56275C7.61334 9.5921 7.63151 9.62424 7.64269 9.66057C7.64828 9.67734 7.66924 9.68154 7.68042 9.66896C7.693 9.65638 7.70697 9.6452 7.72234 9.63542C7.72793 9.63123 7.73352 9.62843 7.73911 9.62564V9.78215L7.6916 9.84224L7.693 9.84364Z" fill="white"/>
<path fill-rule="evenodd" clip-rule="evenodd" d="M7.65386 9.57531C7.64548 9.56133 7.63569 9.54736 7.62451 9.53478C7.59657 9.50124 7.56303 9.47329 7.52529 9.45233C7.51831 9.44814 7.51132 9.44814 7.50433 9.45233C7.4666 9.47329 7.43306 9.50124 7.40511 9.53478C7.39393 9.54736 7.38555 9.56133 7.37577 9.57531L7.28912 9.46491V9.38385C7.28912 9.38385 7.3003 9.39084 7.30589 9.39364C7.32126 9.40342 7.33524 9.4146 7.34782 9.42717C7.36039 9.43975 7.38136 9.43416 7.38555 9.41739C7.39673 9.38246 7.4135 9.35031 7.43725 9.32376C7.45822 9.29861 7.48477 9.27904 7.51411 9.26367C7.54346 9.27904 7.57001 9.29861 7.59098 9.32376C7.61473 9.35031 7.6329 9.38246 7.64268 9.41739C7.64687 9.43416 7.66784 9.43975 7.68041 9.42717C7.69299 9.4146 7.70696 9.40342 7.72234 9.39364C7.72793 9.38944 7.73352 9.38665 7.73911 9.38385V9.46491L7.65246 9.57531H7.65386Z" fill="white"/>
<path fill-rule="evenodd" clip-rule="evenodd" d="M8.66561 11.2763V11.6872C8.63627 11.7123 8.60972 11.7389 8.58456 11.7668C8.53845 11.8185 8.50071 11.8772 8.46997 11.9401V11.2749H8.66561V11.2763Z" fill="white"/>
<path fill-rule="evenodd" clip-rule="evenodd" d="M8.84028 11.627V12.042H8.47974C8.50908 11.9498 8.55799 11.8673 8.61948 11.796C8.68097 11.7262 8.75643 11.6675 8.84028 11.627Z" fill="white"/>
<path d="M6.55826 10.8779H6.36401V11.0163H6.55826V10.8779Z" fill="white"/>
<path fill-rule="evenodd" clip-rule="evenodd" d="M6.36401 11.687V11.0596H6.55826V11.94C6.52891 11.8771 6.48978 11.8184 6.44507 11.7667C6.41991 11.7387 6.39336 11.7122 6.36401 11.687Z" fill="white"/>
<path fill-rule="evenodd" clip-rule="evenodd" d="M6.18933 11.5781V10.8025C6.18933 10.7843 6.19632 10.769 6.2089 10.7564C6.22008 10.7452 6.23684 10.7368 6.25501 10.7368C6.27318 10.7368 6.28855 10.7452 6.30113 10.7564C6.31231 10.7676 6.32069 10.7843 6.32069 10.8025V11.6536C6.28017 11.6242 6.23684 11.599 6.19073 11.5781H6.18933Z" fill="white"/>
<path fill-rule="evenodd" clip-rule="evenodd" d="M6.55127 12.042H6.18933V11.627C6.27458 11.6689 6.35004 11.7262 6.41153 11.796C6.47302 11.8673 6.52193 11.9498 6.55127 12.042Z" fill="white"/>
<path fill-rule="evenodd" clip-rule="evenodd" d="M6.90202 12.0421H6.60297V10.3875C6.62253 10.4085 6.6379 10.4267 6.65188 10.4504L6.69939 10.5343C6.72035 10.5706 6.75948 10.5929 6.80141 10.5929C6.86569 10.5929 6.91879 10.5398 6.91879 10.4756C6.91879 10.4574 6.9146 10.4406 6.90622 10.4239L6.85171 10.3288C6.82516 10.2813 6.81119 10.2282 6.81119 10.1737C6.81119 10.129 6.82097 10.0843 6.83914 10.0423L6.89643 10.1402C6.90901 10.1625 6.93277 10.1765 6.95932 10.1765C6.99985 10.1765 7.03199 10.1444 7.03199 10.1038C7.03199 10.0927 7.02919 10.0815 7.0236 10.0717L6.89783 9.85509C6.88525 9.83273 6.87966 9.80897 6.87966 9.78382C6.87966 9.74609 6.89364 9.70975 6.92019 9.6832V9.75727C6.92019 9.80618 6.95932 9.84531 7.00823 9.84531C7.05714 9.84531 7.09627 9.80618 7.09627 9.75727C7.09627 9.74329 7.09348 9.72932 7.08649 9.71814C7.06692 9.68041 7.04177 9.64407 7.0222 9.60774C7.00683 9.58119 6.99985 9.55184 6.99985 9.5211C6.99985 9.49035 7.00683 9.4638 7.01941 9.44004C7.025 9.42886 7.03199 9.41908 7.04037 9.4093V9.4652C7.04037 9.50433 7.07251 9.53647 7.11164 9.53647C7.15077 9.53647 7.18291 9.50433 7.18291 9.4652V9.26117C7.18291 9.1871 7.20807 9.11863 7.24859 9.06413C7.29052 9.00823 7.35061 8.9663 7.41908 8.94534C7.42887 8.94255 7.43585 8.93416 7.43585 8.92298V8.83913C7.43585 8.79721 7.46939 8.76367 7.51132 8.76367C7.55324 8.76367 7.58678 8.79721 7.58678 8.83913V8.92298C7.58678 8.93416 7.59377 8.94255 7.60355 8.94534C7.67202 8.96491 7.73212 9.00823 7.77404 9.06413C7.81457 9.11863 7.83972 9.1871 7.83972 9.26117V9.4652C7.83972 9.50433 7.87186 9.53647 7.91239 9.53647C7.95291 9.53647 7.98366 9.50433 7.98366 9.4652V9.4093C7.99204 9.41908 7.99903 9.42886 8.00462 9.44004C8.0172 9.4638 8.02418 9.49175 8.02418 9.5211C8.02418 9.55044 8.0158 9.58119 8.00043 9.60774C7.98086 9.64547 7.95711 9.6818 7.93614 9.71814C7.93055 9.73072 7.92636 9.74469 7.92636 9.75727C7.92636 9.80618 7.96549 9.84531 8.0144 9.84531C8.06331 9.84531 8.10244 9.80618 8.10244 9.75727V9.6832C8.12899 9.70975 8.14297 9.74609 8.14297 9.78382C8.14297 9.80897 8.13598 9.83273 8.1234 9.85509L7.99763 10.0717C7.99204 10.0815 7.98925 10.0927 7.98925 10.1038C7.98925 10.1444 8.02139 10.1765 8.06192 10.1765C8.08847 10.1765 8.11083 10.1625 8.1248 10.1402L8.1821 10.0423C8.20166 10.0829 8.21005 10.1276 8.21005 10.1737C8.21005 10.2282 8.19607 10.2813 8.16952 10.3288L8.11502 10.4239C8.10663 10.4392 8.10244 10.4574 8.10244 10.4756C8.10244 10.5412 8.15555 10.5929 8.21983 10.5929C8.26175 10.5929 8.30088 10.5706 8.32184 10.5343L8.36936 10.4504C8.38333 10.4253 8.3987 10.4071 8.41827 10.3875V12.0421H8.11921V11.7948C8.11921 11.778 8.10244 11.7682 8.08847 11.7738C8.02558 11.7962 7.96689 11.8269 7.91239 11.8646C7.90121 11.8269 7.88863 11.7906 7.87466 11.7556L8.10663 11.5237C8.10663 11.5237 8.11362 11.5139 8.11362 11.5083V11.1533C8.11362 11.1366 8.09685 11.1254 8.08148 11.1338C8.05213 11.1491 8.02279 11.1659 7.99484 11.1841L8.10803 11.0401C8.10803 11.0401 8.11362 11.0304 8.11362 11.0248V10.6349C8.11362 10.6181 8.09546 10.6069 8.08148 10.6153C8.02977 10.6433 7.98226 10.6754 7.93894 10.7131C7.9068 10.7397 7.87745 10.7704 7.8509 10.8012C7.83832 10.7481 7.82155 10.6964 7.80199 10.6475L7.97248 10.4294C7.97248 10.4294 7.97807 10.4197 7.97807 10.4141V10.1709C7.97807 10.1555 7.96409 10.1458 7.94872 10.15C7.9068 10.1625 7.86907 10.1807 7.83413 10.2045C7.81037 10.2198 7.78801 10.238 7.76845 10.259C7.76565 10.252 7.76426 10.245 7.76146 10.238L7.89003 10.0731C7.89003 10.0731 7.89562 10.0633 7.89562 10.0577V9.85649C7.89562 9.83972 7.87745 9.82854 7.86208 9.83692C7.83553 9.8509 7.80898 9.86906 7.78522 9.88723C7.76985 9.89981 7.75447 9.91238 7.7405 9.92636C7.73212 9.91099 7.72373 9.89701 7.71395 9.88304L7.77124 9.80897C7.77124 9.80897 7.77683 9.79919 7.77683 9.7936V9.59237C7.77683 9.57699 7.76006 9.56581 7.74609 9.5714C7.72653 9.57979 7.70836 9.58957 7.69159 9.60075C7.686 9.60494 7.68041 9.60774 7.67622 9.61193L7.77404 9.48756C7.77404 9.48756 7.77823 9.47917 7.77823 9.47358V9.34921C7.77823 9.33244 7.76146 9.32266 7.74609 9.32964C7.72653 9.33663 7.70836 9.34641 7.69159 9.35759C7.6832 9.36318 7.67622 9.36877 7.66783 9.37436C7.65525 9.34502 7.63849 9.31986 7.61892 9.2961C7.59097 9.26396 7.55603 9.23881 7.5183 9.22064C7.51551 9.22064 7.51271 9.21924 7.50852 9.21924C7.50433 9.21924 7.50293 9.21924 7.49874 9.22064C7.45961 9.23881 7.42467 9.26396 7.39672 9.2961C7.37716 9.31986 7.35899 9.34502 7.34781 9.37436C7.34083 9.36877 7.33244 9.36318 7.32406 9.35759C7.30729 9.34641 7.28912 9.33663 7.26956 9.32964C7.25558 9.32266 7.23741 9.33244 7.23741 9.34921V9.47358C7.23741 9.47358 7.23881 9.48336 7.24161 9.48756L7.33943 9.61193C7.33943 9.61193 7.32965 9.60494 7.32406 9.60075C7.30729 9.58957 7.28912 9.57979 7.27095 9.5714C7.25698 9.56442 7.23881 9.5742 7.23881 9.59097V9.7922C7.23881 9.7922 7.24021 9.80199 7.243 9.80618L7.3017 9.88164C7.29191 9.89562 7.28353 9.90959 7.27515 9.92496C7.26117 9.91099 7.2458 9.89701 7.23043 9.88444C7.20667 9.86627 7.18152 9.8495 7.15496 9.83413C7.14099 9.82574 7.12142 9.83413 7.12142 9.85369V10.0549C7.12142 10.0549 7.12282 10.0647 7.12562 10.0689L7.25558 10.2352C7.25558 10.2352 7.25139 10.2492 7.24859 10.2562C7.22763 10.2366 7.20667 10.2184 7.18291 10.2017C7.14798 10.1793 7.11024 10.1611 7.06972 10.1486C7.05574 10.143 7.03897 10.1527 7.03897 10.1695V10.4127C7.03897 10.4127 7.04037 10.4225 7.04317 10.4267L7.21505 10.6461C7.19549 10.6964 7.17872 10.7467 7.16614 10.7998C7.13959 10.7676 7.10885 10.7383 7.0781 10.7117C7.03478 10.6754 6.98727 10.6433 6.93696 10.6153C6.92298 10.6055 6.90202 10.6153 6.90202 10.6335V11.0234C6.90202 11.0234 6.90342 11.0331 6.90622 11.0373L7.01941 11.1827C6.99286 11.1645 6.96351 11.1477 6.93416 11.1338C6.91879 11.1254 6.90063 11.1352 6.90063 11.1533V11.5083C6.90063 11.5083 6.90342 11.5195 6.90761 11.5237L7.13959 11.7556C7.12422 11.7906 7.11164 11.8269 7.10186 11.8646C7.04736 11.8269 6.98867 11.7976 6.92578 11.7738C6.91181 11.7682 6.89504 11.778 6.89504 11.7948V12.0421H6.90202Z" fill="white"/>
<path fill-rule="evenodd" clip-rule="evenodd" d="M8.71033 11.6519V11.2537C8.71033 11.2355 8.71731 11.2201 8.72989 11.2076C8.74247 11.195 8.75784 11.188 8.77601 11.188C8.79417 11.188 8.80955 11.195 8.82212 11.2076C8.8347 11.2201 8.84169 11.2355 8.84169 11.2537V11.5779C8.79557 11.5988 8.75225 11.624 8.71172 11.6533L8.71033 11.6519Z" fill="white"/>
<path fill-rule="evenodd" clip-rule="evenodd" d="M10.9421 11.9133H10.5424C10.5298 11.9133 10.52 11.9036 10.52 11.891V10.5606C10.52 10.5187 10.5033 10.4809 10.4753 10.453C10.453 10.4306 10.4236 10.4153 10.3901 10.4097V12.0419H11.0916C11.0874 12.0098 11.0706 11.979 11.0483 11.9567C11.0203 11.9287 10.9826 11.9119 10.9407 11.9119L10.9421 11.9133Z" fill="white"/>
<path fill-rule="evenodd" clip-rule="evenodd" d="M11.4256 11.7776C11.3697 11.7427 11.311 11.7134 11.2495 11.6882C11.1112 11.6323 10.9588 11.6016 10.7995 11.6016H10.5648V11.8671H11.4256V11.7776Z" fill="white"/>
<path fill-rule="evenodd" clip-rule="evenodd" d="M10.7381 10.7352V11.5584H10.7996C10.8359 11.5584 10.8722 11.5598 10.9086 11.5625V10.2923C10.9086 10.2154 10.8764 10.1455 10.8261 10.0952C10.78 10.0491 10.7185 10.0198 10.6514 10.0142V10.2909C10.6947 10.2964 10.7339 10.316 10.7632 10.3454C10.7982 10.3803 10.8191 10.4278 10.8191 10.4795V10.6346C10.8191 10.6626 10.8079 10.6891 10.7884 10.7073C10.7744 10.7213 10.7576 10.7311 10.7381 10.7352Z" fill="white"/>
<path d="M10.6947 10.7368H10.5648V11.5571H10.6947V10.7368Z" fill="white"/>
<path fill-rule="evenodd" clip-rule="evenodd" d="M11.4703 11.6016V11.7525C11.5262 11.7888 11.5807 11.8293 11.6296 11.8741C11.638 11.7762 11.6646 11.684 11.7051 11.6016H11.4689H11.4703Z" fill="white"/>
<path fill-rule="evenodd" clip-rule="evenodd" d="M10.9532 11.0762V11.5681C11.0622 11.5821 11.1671 11.6086 11.2663 11.6491C11.3208 11.6715 11.3753 11.698 11.4256 11.7274V11.603H11.3613C11.3487 11.603 11.3389 11.5932 11.3389 11.5807V11.4772C11.2928 11.3878 11.2341 11.3068 11.1643 11.2369C11.1014 11.174 11.0315 11.1195 10.9532 11.0762Z" fill="white"/>
<path fill-rule="evenodd" clip-rule="evenodd" d="M11.7261 8.10116H11.4745C11.427 8.10116 11.3893 8.06203 11.3893 8.01591V7.97119C11.3641 7.99495 11.3502 8.02709 11.3502 8.06063C11.3502 8.08299 11.3557 8.10395 11.3669 8.12351C11.3935 8.17662 11.4312 8.23252 11.4606 8.28422C11.4675 8.2982 11.4703 8.31217 11.4703 8.32754C11.4703 8.34711 11.4648 8.36388 11.455 8.37925H11.6324V8.21295C11.6324 8.19898 11.6436 8.19059 11.6576 8.19059C11.6981 8.19059 11.7373 8.20037 11.7722 8.21714C11.7959 8.22832 11.8169 8.2423 11.8365 8.26047C11.8393 8.24929 11.8435 8.2395 11.8463 8.22832L11.7373 8.16544C11.7303 8.16125 11.7261 8.15426 11.7261 8.14587V8.10116Z" fill="white"/>
<path fill-rule="evenodd" clip-rule="evenodd" d="M11.8546 8.54264L11.6492 8.42386H11.3739C11.3208 8.42386 11.2775 8.38054 11.2775 8.32743V8.28271C11.2425 8.31066 11.2216 8.35259 11.2216 8.39731C11.2216 8.42386 11.2285 8.45041 11.2425 8.47277C11.2719 8.53146 11.3166 8.60134 11.3501 8.66003C11.3571 8.6754 11.3613 8.69217 11.3613 8.70894C11.3613 8.7327 11.3529 8.75506 11.3403 8.77322H11.5793V8.57478C11.5793 8.55941 11.5933 8.54963 11.6073 8.55382C11.6534 8.56221 11.6967 8.57898 11.7344 8.60413C11.761 8.6209 11.7861 8.64186 11.8071 8.66562C11.8197 8.6237 11.835 8.58317 11.8518 8.54544L11.8546 8.54264Z" fill="white"/>
<path fill-rule="evenodd" clip-rule="evenodd" d="M11.7498 9.03877L11.5891 8.87806C11.5891 8.87806 11.5821 8.86828 11.5821 8.86269V8.81936H11.2551C11.195 8.81936 11.1461 8.77045 11.1461 8.71036V8.59717C11.1028 8.6349 11.079 8.688 11.079 8.7439C11.079 8.77744 11.0874 8.81098 11.1042 8.84033L11.2439 9.08348C11.2537 9.10305 11.2579 9.12261 11.2579 9.14358C11.2579 9.17851 11.2453 9.20926 11.223 9.23301H11.4396V9.11702C11.4396 9.10165 11.4522 9.09327 11.4661 9.09466C11.515 9.10025 11.5626 9.11842 11.6017 9.14497C11.6296 9.16314 11.6534 9.1855 11.6744 9.21205C11.6939 9.15056 11.7191 9.09327 11.7498 9.03737V9.03877Z" fill="white"/>
<path fill-rule="evenodd" clip-rule="evenodd" d="M11.5933 9.43688H11.4634C11.4508 9.43688 11.441 9.4271 11.441 9.41453V9.27757H11.1238C11.0497 9.27757 10.9896 9.21748 10.9896 9.14342V9.05957C10.9631 9.0973 10.9491 9.14202 10.9491 9.18953C10.9491 9.23146 10.9603 9.27338 10.9826 9.30832C11.0371 9.42151 11.1308 9.56685 11.1964 9.67865C11.2048 9.69402 11.2076 9.71079 11.2076 9.72756C11.2076 9.75131 11.1992 9.77367 11.1867 9.79184H11.4061V9.68424C11.4061 9.66886 11.4186 9.66048 11.4326 9.66188C11.4857 9.66747 11.5346 9.68563 11.5766 9.71358C11.6059 9.73315 11.6325 9.7569 11.6548 9.78485C11.6744 9.72336 11.6995 9.66607 11.7303 9.61157L11.5947 9.43688H11.5933Z" fill="white"/>
<path fill-rule="evenodd" clip-rule="evenodd" d="M11.8574 9.43701H11.6506L11.7554 9.57117C11.761 9.56278 11.7652 9.5558 11.7708 9.54741C11.7973 9.50828 11.8267 9.47195 11.8574 9.43701Z" fill="white"/>
<path fill-rule="evenodd" clip-rule="evenodd" d="M11.6576 10.2238C11.6743 10.1944 11.6911 10.1665 11.7093 10.1399C11.7386 10.0952 11.7722 10.0533 11.8071 10.0142H11.543C11.5695 10.0463 11.5933 10.0798 11.6128 10.1176C11.631 10.1511 11.6464 10.1874 11.6562 10.2252L11.6576 10.2238Z" fill="white"/>
<path fill-rule="evenodd" clip-rule="evenodd" d="M11.1392 10.4975H11.244V10.3116C11.244 10.2963 11.2565 10.2879 11.2705 10.2893C11.3376 10.2963 11.3991 10.32 11.4522 10.355C11.4927 10.3815 11.529 10.4165 11.5584 10.4556C11.5766 10.3955 11.5989 10.3382 11.6255 10.2837C11.6157 10.232 11.5975 10.1831 11.5738 10.137C11.55 10.0908 11.5179 10.0489 11.4815 10.0126H11.427C11.4145 10.0126 11.4047 10.0028 11.4047 9.99023V9.83511H11.0972C11.0371 9.83511 10.9882 9.7862 10.9882 9.72611V9.70654C10.9631 9.74008 10.9491 9.78061 10.9491 9.82393C10.9491 9.87564 10.9701 9.92594 11.0064 9.96228L11.1028 10.0573C11.1238 10.0783 11.1364 10.1076 11.1364 10.1384V10.4947L11.1392 10.4975Z" fill="white"/>
<path fill-rule="evenodd" clip-rule="evenodd" d="M11.4438 11.2088V11.1445C11.4438 11.0663 11.4312 10.9908 11.4075 10.9209C11.3851 10.8511 11.3516 10.7868 11.3096 10.7281H11.2649C11.2524 10.7281 11.2426 10.7183 11.2426 10.7057V10.5422H11.0218C11.0092 10.5422 10.9994 10.5325 10.9994 10.5199V10.2194C10.9994 10.1999 10.991 10.1831 10.9784 10.1691C10.9715 10.1621 10.9617 10.1551 10.9505 10.1523V11.0258C11.0399 11.0733 11.1224 11.1348 11.1937 11.206C11.2482 11.2605 11.2957 11.3206 11.3362 11.3863V11.1753C11.3362 11.1571 11.3572 11.1459 11.3725 11.1571C11.3963 11.1725 11.42 11.1893 11.4424 11.2074L11.4438 11.2088Z" fill="white"/>
<path fill-rule="evenodd" clip-rule="evenodd" d="M11.3641 10.7285C11.4005 10.783 11.4298 10.8431 11.4508 10.9074C11.4759 10.9829 11.4885 11.0625 11.4885 11.145V11.2512C11.4885 11.2512 11.4969 11.2596 11.5011 11.2637C11.5207 11.2861 11.5388 11.3085 11.5556 11.3336C11.5654 11.1771 11.6031 11.0276 11.666 10.8906C11.6911 10.8347 11.7205 10.7802 11.754 10.7285H11.3641Z" fill="white"/>
<path fill-rule="evenodd" clip-rule="evenodd" d="M13.0564 11.9133H13.4561C13.4687 11.9133 13.4785 11.9036 13.4785 11.891V10.5606C13.4785 10.5187 13.4953 10.4809 13.5232 10.453C13.5456 10.4306 13.5749 10.4153 13.6084 10.4097V12.0419H12.9069C12.9125 12.0098 12.9279 11.979 12.9502 11.9567C12.9782 11.9287 13.0159 11.9119 13.0578 11.9119L13.0564 11.9133Z" fill="white"/>
<path fill-rule="evenodd" clip-rule="evenodd" d="M12.5743 11.7776C12.6302 11.7427 12.6889 11.7134 12.7504 11.6882C12.8888 11.6323 13.0411 11.6016 13.2004 11.6016H13.4352V11.8671H12.5743V11.7776Z" fill="white"/>
<path fill-rule="evenodd" clip-rule="evenodd" d="M13.2605 10.7352V11.5584H13.199C13.1626 11.5584 13.1263 11.5598 13.09 11.5625V10.2923C13.09 10.2154 13.1207 10.1455 13.1724 10.0952C13.2185 10.0491 13.28 10.0198 13.3471 10.0142V10.2909C13.3038 10.2964 13.2646 10.316 13.2353 10.3454C13.2004 10.3803 13.1794 10.4278 13.1794 10.4795V10.6346C13.1794 10.6626 13.1906 10.6891 13.2101 10.7073C13.2241 10.7213 13.2409 10.7311 13.2605 10.7352Z" fill="white"/>
<path d="M13.4337 10.7368H13.3052V11.5571H13.4337V10.7368Z" fill="white"/>
<path fill-rule="evenodd" clip-rule="evenodd" d="M12.5296 11.6016V11.7525C12.4737 11.7888 12.4192 11.8293 12.3703 11.8741C12.3619 11.7762 12.3353 11.684 12.2948 11.6016H12.531H12.5296Z" fill="white"/>
<path fill-rule="evenodd" clip-rule="evenodd" d="M13.0453 11.0762V11.5681C12.9363 11.5821 12.8315 11.6086 12.7322 11.6491C12.6763 11.6715 12.6232 11.698 12.5729 11.7274V11.603H12.6372C12.6498 11.603 12.6596 11.5932 12.6596 11.5807V11.4772C12.7057 11.3878 12.7644 11.3068 12.8329 11.2369C12.8958 11.174 12.9656 11.1195 13.0439 11.0762H13.0453Z" fill="white"/>
<path fill-rule="evenodd" clip-rule="evenodd" d="M12.2725 8.10116H12.524C12.5715 8.10116 12.6093 8.06203 12.6093 8.01591V7.97119C12.6344 7.99495 12.6484 8.02709 12.6484 8.06063C12.6484 8.08299 12.6428 8.10395 12.6316 8.12351C12.6051 8.17662 12.5673 8.23252 12.538 8.28422C12.531 8.2982 12.5282 8.31217 12.5282 8.32754C12.5282 8.34711 12.5338 8.36388 12.5436 8.37925H12.3661V8.21295C12.3661 8.19898 12.3549 8.19059 12.3409 8.19059C12.3004 8.19059 12.2613 8.20037 12.2263 8.21714C12.2026 8.22832 12.1816 8.2423 12.1621 8.26047C12.1593 8.24929 12.1551 8.2395 12.1523 8.22832L12.2613 8.16544C12.2683 8.16125 12.2725 8.15426 12.2725 8.14587V8.10116Z" fill="white"/>
<path fill-rule="evenodd" clip-rule="evenodd" d="M12.1439 8.54264L12.3493 8.42386H12.6246C12.6778 8.42386 12.7211 8.38054 12.7211 8.32743V8.28271C12.756 8.31066 12.7756 8.35259 12.7756 8.39731C12.7756 8.42386 12.7686 8.45041 12.7546 8.47277C12.7253 8.53146 12.6805 8.60134 12.647 8.66003C12.64 8.6754 12.6358 8.69217 12.6358 8.70894C12.6358 8.7327 12.6442 8.75506 12.6568 8.77322H12.4178V8.57478C12.4178 8.55941 12.4038 8.54963 12.3899 8.55382C12.3438 8.56221 12.3004 8.57898 12.2627 8.60413C12.2362 8.6209 12.211 8.64186 12.19 8.66562C12.1775 8.6237 12.1621 8.58317 12.1453 8.54544L12.1439 8.54264Z" fill="white"/>
<path fill-rule="evenodd" clip-rule="evenodd" d="M12.2501 9.03877L12.4108 8.87806C12.4108 8.87806 12.4178 8.86828 12.4178 8.86269V8.81936H12.7448C12.8049 8.81936 12.8538 8.77045 12.8538 8.71036V8.59717C12.8971 8.6349 12.9209 8.688 12.9209 8.7439C12.9209 8.77744 12.9125 8.81098 12.8957 8.84033L12.756 9.08348C12.7462 9.10305 12.742 9.12261 12.742 9.14358C12.742 9.17851 12.7546 9.20926 12.777 9.23301H12.5604V9.11702C12.5604 9.10165 12.5478 9.09327 12.5338 9.09466C12.4835 9.10025 12.4388 9.11842 12.3983 9.14497C12.3717 9.16314 12.3465 9.1855 12.3256 9.21205C12.306 9.15056 12.2809 9.09327 12.2515 9.03737L12.2501 9.03877Z" fill="white"/>
<path fill-rule="evenodd" clip-rule="evenodd" d="M12.4053 9.43688H12.5352C12.5478 9.43688 12.5576 9.4271 12.5576 9.41453V9.27757H12.8748C12.9489 9.27757 13.009 9.21748 13.009 9.14342V9.05957C13.0355 9.0973 13.0495 9.14202 13.0495 9.18953C13.0495 9.23146 13.0383 9.27338 13.016 9.30832C12.9615 9.42151 12.8678 9.56685 12.8021 9.67865C12.7952 9.69402 12.791 9.71079 12.791 9.72756C12.791 9.75131 12.7993 9.77367 12.8119 9.79184H12.5925V9.68424C12.5925 9.66886 12.5799 9.66048 12.566 9.66188C12.5129 9.66747 12.4654 9.68563 12.422 9.71358C12.3927 9.73315 12.3661 9.7569 12.3438 9.78485C12.3242 9.72336 12.2991 9.66607 12.2683 9.61157L12.4053 9.43688Z" fill="white"/>
<path fill-rule="evenodd" clip-rule="evenodd" d="M12.1425 9.43701H12.3493L12.2445 9.57117C12.2389 9.56278 12.2347 9.5558 12.2292 9.54741C12.2026 9.50828 12.1733 9.47195 12.1411 9.43701H12.1425Z" fill="white"/>
<path fill-rule="evenodd" clip-rule="evenodd" d="M12.3423 10.2238C12.3256 10.1944 12.3088 10.1665 12.2906 10.1399C12.2613 10.0952 12.2277 10.0533 12.1928 10.0142H12.4569C12.4304 10.0463 12.4066 10.0798 12.3871 10.1176C12.3689 10.1511 12.3549 10.1874 12.3437 10.2252L12.3423 10.2238Z" fill="white"/>
<path fill-rule="evenodd" clip-rule="evenodd" d="M12.8608 10.4975H12.756V10.3116C12.756 10.2963 12.7434 10.2879 12.7295 10.2893C12.6624 10.2963 12.6009 10.32 12.5478 10.355C12.5073 10.3815 12.4709 10.4165 12.4416 10.4556C12.4234 10.3955 12.4011 10.3382 12.3745 10.2837C12.3843 10.232 12.4025 10.1831 12.4262 10.137C12.45 10.0908 12.4821 10.0489 12.5185 10.0126H12.573C12.5855 10.0126 12.5953 10.0028 12.5953 9.99023V9.83511H12.9028C12.9628 9.83511 13.0118 9.7862 13.0118 9.72611V9.70654C13.0369 9.74008 13.0509 9.78061 13.0509 9.82393C13.0509 9.87564 13.0299 9.92594 12.9936 9.96228L12.8972 10.0573C12.8762 10.0783 12.8636 10.1076 12.8636 10.1384V10.4947L12.8608 10.4975Z" fill="white"/>
<path fill-rule="evenodd" clip-rule="evenodd" d="M12.5547 11.2088V11.1445C12.5547 11.0663 12.5673 10.9908 12.5911 10.9209C12.6134 10.8511 12.647 10.7868 12.6889 10.7281H12.7336C12.7462 10.7281 12.756 10.7183 12.756 10.7057V10.5422H12.9768C12.9894 10.5422 12.9991 10.5325 12.9991 10.5199V10.2194C12.9991 10.1999 13.0075 10.1831 13.0201 10.1691C13.0271 10.1621 13.0369 10.1551 13.0481 10.1523V11.0258C12.9586 11.0733 12.8762 11.1348 12.8049 11.206C12.7504 11.2605 12.7029 11.3206 12.6624 11.3863V11.1753C12.6624 11.1571 12.6414 11.1459 12.626 11.1571C12.6023 11.1725 12.5785 11.1893 12.5561 11.2074L12.5547 11.2088Z" fill="white"/>
<path fill-rule="evenodd" clip-rule="evenodd" d="M12.6344 10.7285C12.5981 10.783 12.5687 10.8431 12.5478 10.9074C12.5226 10.9829 12.51 11.0625 12.51 11.145V11.2512C12.51 11.2512 12.5016 11.2596 12.4974 11.2637C12.4779 11.2861 12.4597 11.3085 12.4429 11.3336C12.4332 11.1771 12.3954 11.0276 12.3325 10.8906C12.3074 10.8347 12.278 10.7802 12.2445 10.7285H12.6344Z" fill="white"/>
<path fill-rule="evenodd" clip-rule="evenodd" d="M12 11.3335C11.9036 11.3978 11.8239 11.483 11.7666 11.5836C11.7093 11.6843 11.6758 11.8016 11.6716 11.9246C11.6716 11.9442 11.6478 11.954 11.6338 11.94C11.5835 11.8911 11.529 11.8464 11.4703 11.8072V12.1622H12.5282V11.8072C12.4695 11.8464 12.415 11.8911 12.3647 11.94C12.3507 11.954 12.327 11.9442 12.327 11.9246C12.3242 11.8002 12.2892 11.6843 12.232 11.5836C12.1747 11.483 12.095 11.3978 11.9986 11.3335H12Z" fill="white"/>
<path fill-rule="evenodd" clip-rule="evenodd" d="M11.9999 10.5073C11.877 10.6191 11.7763 10.7547 11.7065 10.907C11.6366 11.0593 11.5975 11.2298 11.5975 11.4087C11.5975 11.4171 11.5933 11.4255 11.5849 11.4283C11.5737 11.4338 11.5611 11.4283 11.5555 11.4185C11.5318 11.3724 11.5024 11.329 11.4675 11.2913C11.4424 11.2634 11.413 11.2382 11.3823 11.2158V11.5554H11.7288C11.7917 11.4464 11.8812 11.3528 11.9874 11.2857C11.9944 11.2815 12.0041 11.2815 12.0111 11.2857C12.1173 11.3528 12.2068 11.4464 12.2697 11.5554H12.6162V11.2158C12.5855 11.2382 12.5575 11.2634 12.531 11.2913C12.496 11.329 12.4667 11.3724 12.4429 11.4185C12.4373 11.4296 12.4234 11.4338 12.4136 11.4283C12.4052 11.4241 12.401 11.4171 12.401 11.4087C12.401 11.2298 12.3619 11.0593 12.292 10.907C12.2221 10.7533 12.1215 10.6177 11.9985 10.5073H11.9999Z" fill="white"/>
<path fill-rule="evenodd" clip-rule="evenodd" d="M11.9999 9.89697C11.9021 9.97244 11.8169 10.0619 11.747 10.1653C11.6757 10.2701 11.6226 10.3875 11.5891 10.5133C11.5891 10.5188 11.5835 10.5244 11.5779 10.5286C11.5667 10.5342 11.5541 10.5314 11.5472 10.5202C11.5178 10.4685 11.4773 10.4252 11.427 10.3931C11.3851 10.3665 11.3389 10.347 11.2872 10.3386V10.6851H11.7833C11.8406 10.6027 11.9091 10.5286 11.9846 10.4629C11.993 10.456 12.0055 10.456 12.0139 10.4629C12.0894 10.5286 12.1565 10.6027 12.2137 10.6851H12.7098V10.3386C12.6595 10.347 12.612 10.3665 12.5701 10.3931C12.5212 10.4252 12.4793 10.4685 12.4499 10.5202C12.4443 10.5314 12.4304 10.5342 12.4192 10.5286C12.4136 10.5258 12.4094 10.5202 12.408 10.5133C12.3759 10.3875 12.3214 10.2701 12.2501 10.1653C12.1802 10.0633 12.095 9.97244 11.9971 9.89697H11.9999Z" fill="white"/>
<path fill-rule="evenodd" clip-rule="evenodd" d="M11.9999 9.36719C11.9259 9.42448 11.8602 9.49436 11.8071 9.57261C11.7526 9.65367 11.7107 9.7445 11.6855 9.84232C11.6855 9.84791 11.6799 9.8535 11.6743 9.8577C11.6632 9.86329 11.6506 9.86049 11.6436 9.84931C11.6212 9.81018 11.5891 9.77664 11.5514 9.75149C11.5206 9.73192 11.4871 9.71795 11.4507 9.71096V9.96949H11.8504C11.8923 9.92617 11.9385 9.88704 11.9874 9.85211C11.9958 9.84652 12.0055 9.84652 12.0139 9.85211C12.0628 9.88844 12.1076 9.92757 12.1509 9.96949H12.5505V9.71096C12.5142 9.71795 12.4807 9.73192 12.4499 9.75149C12.4122 9.77664 12.3801 9.81018 12.3577 9.84931C12.3521 9.86049 12.3381 9.86329 12.327 9.8577C12.3214 9.8549 12.3172 9.84931 12.3158 9.84232C12.2906 9.7445 12.2487 9.65367 12.1942 9.57261C12.1411 9.49436 12.0754 9.42448 12.0013 9.36719H11.9999Z" fill="white"/>
<path fill-rule="evenodd" clip-rule="evenodd" d="M12 8.81104C11.9301 8.86693 11.87 8.93401 11.8197 9.00808C11.768 9.08634 11.7289 9.17577 11.7051 9.2694C11.7037 9.27499 11.6995 9.28058 11.6939 9.28338C11.6828 9.28897 11.6702 9.28617 11.6632 9.27499C11.6422 9.23726 11.6129 9.20512 11.5765 9.18136C11.5486 9.1632 11.5179 9.14922 11.4843 9.14223V9.39098H11.8994C11.9259 9.36583 11.9553 9.34207 11.9846 9.31971C11.993 9.31412 12.0028 9.31412 12.0112 9.31971C12.0405 9.34207 12.0698 9.36583 12.0964 9.39098H12.5114V9.14223C12.4779 9.14922 12.4472 9.1632 12.4192 9.18136C12.3843 9.20512 12.3549 9.23726 12.334 9.27499C12.3284 9.28617 12.3144 9.28897 12.3032 9.28338C12.2976 9.28058 12.2934 9.27499 12.292 9.2694C12.2683 9.17438 12.2292 9.08634 12.1775 9.00808C12.1285 8.93261 12.0671 8.86554 11.9972 8.81104H12Z" fill="white"/>
<path fill-rule="evenodd" clip-rule="evenodd" d="M12 8.38477C11.9664 8.43088 11.9357 8.4784 11.9105 8.5301C11.8812 8.5888 11.8588 8.65168 11.842 8.71736C11.842 8.72295 11.8378 8.72714 11.8337 8.72994C11.8239 8.73693 11.8099 8.73413 11.8029 8.72435C11.7792 8.69081 11.7484 8.66286 11.7135 8.6405C11.6869 8.62373 11.6576 8.61115 11.6268 8.60137V8.85152L11.7736 8.99825L11.7833 8.98428C11.8392 8.90043 11.9077 8.82636 11.9874 8.76488C11.9958 8.75929 12.0069 8.75929 12.0139 8.76488C12.0936 8.82497 12.1621 8.89903 12.218 8.98428L12.2277 8.99825L12.3745 8.85152V8.60137C12.3437 8.60976 12.3144 8.62233 12.2878 8.6405C12.2529 8.66286 12.2222 8.69081 12.1998 8.72435C12.1928 8.73413 12.1788 8.73693 12.169 8.72994C12.1649 8.72714 12.1621 8.72155 12.1607 8.71736C12.1439 8.65168 12.1215 8.59019 12.0922 8.5301C12.067 8.4784 12.0363 8.42948 12.0027 8.38477H12Z" fill="white"/>
<path fill-rule="evenodd" clip-rule="evenodd" d="M11.9999 8.08691C11.9678 8.11347 11.9412 8.14421 11.9189 8.17915C11.8951 8.21828 11.8784 8.2616 11.8714 8.30771C11.8686 8.32728 11.8448 8.33426 11.8322 8.31889C11.8113 8.29234 11.7833 8.27138 11.7526 8.25601C11.7288 8.24483 11.7037 8.23784 11.6771 8.23505V8.38737L11.8742 8.50056C11.9049 8.44047 11.9412 8.38457 11.9818 8.33287C11.9902 8.32169 12.0083 8.32169 12.0167 8.33287C12.0586 8.38457 12.095 8.44187 12.1243 8.50056L12.3214 8.38737V8.23505C12.2948 8.23784 12.2696 8.24483 12.2459 8.25601C12.2151 8.27138 12.1886 8.29234 12.1662 8.31889C12.1537 8.33426 12.1285 8.32588 12.1271 8.30771C12.1201 8.2616 12.1034 8.21688 12.0796 8.17915C12.0586 8.14421 12.0307 8.11207 11.9985 8.08691H11.9999Z" fill="white"/>
<path fill-rule="evenodd" clip-rule="evenodd" d="M11.9999 7.89844C11.9804 7.91241 11.9622 7.93058 11.9482 7.95014C11.9301 7.9725 11.9175 7.99905 11.9077 8.027C11.9021 8.04517 11.8784 8.04936 11.8672 8.03399C11.8532 8.01303 11.835 7.99486 11.8141 7.98089C11.8015 7.9725 11.7861 7.96552 11.7722 7.95993V8.13461L11.8658 8.18911C11.8714 8.17793 11.877 8.16815 11.8826 8.15837C11.9105 8.11365 11.9454 8.07452 11.9874 8.04238C11.9957 8.03679 12.0055 8.03679 12.0139 8.04238C12.0558 8.07312 12.0922 8.11225 12.1187 8.15837C12.1243 8.16815 12.1299 8.17793 12.1355 8.18911L12.2291 8.13461V7.95993C12.2138 7.96552 12.1998 7.9725 12.1872 7.98089C12.1662 7.99486 12.1481 8.01303 12.1341 8.03399C12.1229 8.04936 12.0992 8.04517 12.0936 8.027C12.0838 7.99905 12.0712 7.9725 12.053 7.95014C12.0377 7.93058 12.0209 7.91381 11.9999 7.89844Z" fill="white"/>
<path fill-rule="evenodd" clip-rule="evenodd" d="M11.5011 7.77979C11.5221 7.85245 11.5584 7.95447 11.5612 8.01596C11.5612 8.03133 11.557 8.0453 11.5514 8.05648H11.7275V7.92931C11.7275 7.91394 11.7415 7.90416 11.7568 7.90835C11.7876 7.91534 11.8155 7.92652 11.8393 7.94329C11.8533 7.95307 11.8672 7.96425 11.8798 7.97683C11.8896 7.95726 11.9008 7.9391 11.9133 7.92233C11.9343 7.89438 11.9595 7.87062 11.9888 7.85245C11.9958 7.84826 12.0056 7.84826 12.0126 7.85245C12.0419 7.87202 12.0671 7.89438 12.088 7.92233C12.1006 7.9391 12.1118 7.95726 12.1216 7.97683C12.1341 7.96425 12.1467 7.95307 12.1621 7.94329C12.1873 7.92652 12.2152 7.91534 12.2445 7.90835C12.2585 7.90416 12.2739 7.91534 12.2739 7.92931V8.05648H12.45C12.443 8.04391 12.4402 8.02993 12.4402 8.01596C12.443 7.95447 12.4779 7.85245 12.5003 7.77979H11.5025H11.5011Z" fill="white"/>
<path fill-rule="evenodd" clip-rule="evenodd" d="M11.543 7.58545L11.5835 7.73498H12.4164L12.4555 7.58545H11.543Z" fill="white"/>
<path fill-rule="evenodd" clip-rule="evenodd" d="M11.6059 7.42871L11.6366 7.54191H12.3633L12.3927 7.42871H11.6059Z" fill="white"/>
<path fill-rule="evenodd" clip-rule="evenodd" d="M11.7401 7.26953L11.7708 7.38412H12.2292L12.2599 7.26953H11.7401Z" fill="white"/>
<path fill-rule="evenodd" clip-rule="evenodd" d="M12 7.01953C11.972 7.01953 11.9469 7.03071 11.9287 7.04888C11.9105 7.06704 11.8994 7.0922 11.8994 7.12015V7.22496H12.102V7.12015C12.102 7.0922 12.0908 7.06704 12.0726 7.04888C12.0531 7.02931 12.0279 7.01953 12.0014 7.01953H12Z" fill="white"/>
<path d="M10.3468 11.2759H8.88501V11.3555H10.3468V11.2759Z" fill="white"/>
<path d="M10.3468 11.4004H8.88501V11.5695H10.3468V11.4004Z" fill="white"/>
<path d="M10.3468 11.6143H8.88501V11.7652H10.3468V11.6143Z" fill="white"/>
<path d="M10.3468 11.8101H8.88501V12.042H10.3468V11.8101Z" fill="white"/>
<path fill-rule="evenodd" clip-rule="evenodd" d="M10.5186 12.2164C10.5144 12.1842 10.4977 12.1535 10.4753 12.1311C10.4474 12.1032 10.4096 12.0864 10.3677 12.0864H8.86125C8.81933 12.0864 8.7816 12.1032 8.75365 12.1311C8.73129 12.1535 8.71592 12.1829 8.71033 12.2164H10.5158H10.5186Z" fill="white"/>
<path d="M10.52 12.2612H8.71033V12.4932H10.52V12.2612Z" fill="white"/>
<path d="M15.2896 12.2612H13.4799V12.4932H15.2896V12.2612Z" fill="white"/>
<path fill-rule="evenodd" clip-rule="evenodd" d="M13.6308 12.0864C13.5889 12.0864 13.5511 12.1032 13.5232 12.1311C13.5008 12.1535 13.4854 12.1829 13.4799 12.2164H15.2854C15.2812 12.1842 15.2644 12.1535 15.2421 12.1311C15.2141 12.1032 15.1764 12.0864 15.1345 12.0864H13.628H13.6308Z" fill="white"/>
<path d="M15.1149 11.8101H13.6531V12.042H15.1149V11.8101Z" fill="white"/>
<path d="M15.1149 11.6143H13.6531V11.7652H15.1149V11.6143Z" fill="white"/>
<path d="M15.1149 11.4004H13.6531V11.5695H15.1149V11.4004Z" fill="white"/>
<path d="M15.1149 11.2759H13.6531V11.3555H15.1149V11.2759Z" fill="white"/>
<path fill-rule="evenodd" clip-rule="evenodd" d="M17.6807 13.6686H17.7659V12.4165C17.7659 12.3368 17.7981 12.2642 17.8512 12.2111C17.8987 12.1635 17.963 12.1314 18.0342 12.1272V11.0288C17.9881 11.0344 17.9462 11.0554 17.914 11.0861C17.8777 11.1224 17.8553 11.1741 17.8553 11.2286V12.0643C17.8553 12.0769 17.8456 12.0867 17.833 12.0867C17.7911 12.0867 17.7533 12.1035 17.7254 12.1314C17.6974 12.1594 17.6807 12.1971 17.6807 12.239V13.6686Z" fill="white"/>
<path d="M17.4528 12.7324H17.3229V13.6687H17.4528V12.7324Z" fill="white"/>
<path fill-rule="evenodd" clip-rule="evenodd" d="M17.1733 13.6684H17.2795V12.7098C17.2795 12.6972 17.2893 12.6874 17.3019 12.6874H17.4752C17.4878 12.6874 17.4976 12.6972 17.4976 12.7098V13.6684H17.6359V12.2388C17.6359 12.1843 17.6583 12.1354 17.6932 12.1005C17.6974 12.0963 17.703 12.0921 17.7072 12.0879H17.4179C17.3508 12.0879 17.2893 12.1158 17.246 12.1592C17.2013 12.2039 17.1733 12.2668 17.1733 12.3338V13.6698V13.6684Z" fill="white"/>
<path fill-rule="evenodd" clip-rule="evenodd" d="M16.9484 13.6684H17.1272V12.3324C17.1272 12.2527 17.1594 12.1801 17.2125 12.127C17.2278 12.1116 17.246 12.0976 17.2628 12.0864H17.0951V12.1954C17.0951 12.208 17.0839 12.2178 17.0713 12.2178C17.0378 12.2178 17.007 12.2318 16.9833 12.2555C16.9609 12.2779 16.9456 12.31 16.9456 12.345V13.6684H16.9484Z" fill="white"/>
<path fill-rule="evenodd" clip-rule="evenodd" d="M16.7751 13.6684H16.905V12.345C16.905 12.2975 16.9246 12.2556 16.9554 12.2248C16.9568 12.2234 16.9596 12.2206 16.9609 12.2192H16.7765V13.6698L16.7751 13.6684Z" fill="white"/>
<path d="M16.729 12.2178H16.2385V13.6683H16.729V12.2178Z" fill="white"/>
<path fill-rule="evenodd" clip-rule="evenodd" d="M16.0652 13.6683H16.1937V12.2178H16.0093C16.0093 12.2178 16.0135 12.222 16.0149 12.2234C16.0456 12.2541 16.0652 12.2974 16.0652 12.3435V13.6669V13.6683Z" fill="white"/>
<path fill-rule="evenodd" clip-rule="evenodd" d="M15.8416 13.6684H16.0219V12.345C16.0219 12.31 16.0079 12.2793 15.9841 12.2555C15.9618 12.2332 15.931 12.2192 15.8975 12.2178C15.8849 12.2178 15.8737 12.208 15.8737 12.1954V12.0864H15.7061C15.7242 12.0976 15.741 12.1116 15.755 12.1256C15.8081 12.1787 15.8416 12.2527 15.8416 12.3324V13.6684Z" fill="white"/>
<path d="M15.646 12.7324H15.516V13.6687H15.646V12.7324Z" fill="white"/>
<path fill-rule="evenodd" clip-rule="evenodd" d="M15.3329 13.6684H15.4713V12.7097C15.4713 12.6971 15.4811 12.6873 15.4936 12.6873H15.6683C15.6809 12.6873 15.6907 12.6971 15.6907 12.7097V13.6684H15.7969V12.3324C15.7969 12.2653 15.7689 12.2038 15.7242 12.1591C15.6795 12.1158 15.618 12.0864 15.5509 12.0864H15.2617C15.2617 12.0864 15.2714 12.0948 15.2756 12.099C15.3106 12.1339 15.3329 12.1842 15.3329 12.2374V13.667V13.6684Z" fill="white"/>
<path d="M15.2882 12.7324H15.1596V13.6687H15.2882V12.7324Z" fill="white"/>
<path d="M14.8676 12.7324H14.739V13.6687H14.8676V12.7324Z" fill="white"/>
<path d="M14.4483 12.7324H14.3198V13.6687H14.4483V12.7324Z" fill="white"/>
<path d="M14.0277 12.7324H13.8991V13.6687H14.0277V12.7324Z" fill="white"/>
<path fill-rule="evenodd" clip-rule="evenodd" d="M13.6532 13.6686H13.8544V12.71C13.8544 12.6974 13.8642 12.6876 13.8768 12.6876H14.0501C14.0626 12.6876 14.0724 12.6974 14.0724 12.71V13.6686H14.2737V12.71C14.2737 12.6974 14.2834 12.6876 14.296 12.6876H14.4693C14.4819 12.6876 14.4917 12.6974 14.4917 12.71V13.6686H14.6929V12.71C14.6929 12.6974 14.7027 12.6876 14.7153 12.6876H14.8885C14.9011 12.6876 14.9109 12.6974 14.9109 12.71V13.6686H15.1121V12.71C15.1121 12.6974 15.1219 12.6876 15.1345 12.6876H15.2854V12.5381H13.4757V12.6876H13.6266C13.6392 12.6876 13.649 12.6974 13.649 12.71V13.6686H13.6532Z" fill="white"/>
<path d="M13.6084 12.7324H13.4799V13.6687H13.6084V12.7324Z" fill="white"/>
<path fill-rule="evenodd" clip-rule="evenodd" d="M13.0788 13.6684H13.4338V12.2388C13.4338 12.1843 13.4561 12.1354 13.491 12.1005C13.4952 12.0963 13.5008 12.0921 13.505 12.0879H12.9041V12.6888H13.0564C13.069 12.6888 13.0788 12.6986 13.0788 12.7112V13.6698V13.6684Z" fill="white"/>
<path d="M13.0355 12.7324H12.9055V13.6687H13.0355V12.7324Z" fill="white"/>
<path fill-rule="evenodd" clip-rule="evenodd" d="M12.4639 13.6684H12.8608V12.0655C12.8608 12.011 12.8832 11.9621 12.9181 11.9271C12.9223 11.9229 12.9279 11.9187 12.9321 11.9146H12.5729V12.1857C12.5729 12.1982 12.5618 12.208 12.5492 12.208C12.5254 12.208 12.5045 12.2178 12.4891 12.2332C12.4737 12.2485 12.4639 12.2709 12.4639 12.2947V13.6698V13.6684Z" fill="white"/>
<path fill-rule="evenodd" clip-rule="evenodd" d="M12.2892 13.6687H12.4178V12.2936C12.4178 12.2601 12.4304 12.2293 12.4514 12.2056H12.2892V13.6673V13.6687Z" fill="white"/>
<path d="M12.2445 12.2056H11.754V13.6673H12.2445V12.2056Z" fill="white"/>
<path fill-rule="evenodd" clip-rule="evenodd" d="M11.5807 13.6688H11.7093V12.207H11.5472C11.5681 12.2308 11.5807 12.2615 11.5807 12.2951V13.6702V13.6688Z" fill="white"/>
<path fill-rule="evenodd" clip-rule="evenodd" d="M11.1391 13.6688H11.536V12.2937C11.536 12.2699 11.5262 12.2476 11.5095 12.2322C11.4941 12.2168 11.4717 12.207 11.4494 12.207C11.4368 12.207 11.4256 12.1973 11.4256 12.1847V11.9136H11.0665C11.0665 11.9136 11.0762 11.922 11.0804 11.9262C11.1154 11.9611 11.1377 12.0114 11.1377 12.0645V13.6674L11.1391 13.6688Z" fill="white"/>
<path d="M11.093 12.7324H10.9645V13.6687H11.093V12.7324Z" fill="white"/>
<path fill-rule="evenodd" clip-rule="evenodd" d="M10.5648 13.6684H10.9197V12.7097C10.9197 12.6971 10.9295 12.6873 10.9421 12.6873H11.093V12.0864H10.4921C10.4921 12.0864 10.5019 12.0948 10.5061 12.099C10.541 12.1339 10.5634 12.1842 10.5634 12.2374V13.667L10.5648 13.6684Z" fill="white"/>
<path d="M10.5186 12.7324H10.3901V13.6687H10.5186V12.7324Z" fill="white"/>
<path d="M10.0994 12.7324H9.97083V13.6687H10.0994V12.7324Z" fill="white"/>
<path d="M9.6802 12.7324H9.55023V13.6687H9.6802V12.7324Z" fill="white"/>
<path d="M9.25955 12.7324H9.13098V13.6687H9.25955V12.7324Z" fill="white"/>
<path fill-rule="evenodd" clip-rule="evenodd" d="M8.88502 13.6686H9.08625V12.71C9.08625 12.6974 9.09603 12.6876 9.10861 12.6876H9.28329C9.29587 12.6876 9.30565 12.6974 9.30565 12.71V13.6686H9.50689V12.71C9.50689 12.6974 9.51667 12.6876 9.52925 12.6876H9.70393C9.71651 12.6876 9.72629 12.6974 9.72629 12.71V13.6686H9.92752V12.71C9.92752 12.6974 9.9373 12.6876 9.94988 12.6876H10.1246C10.1371 12.6876 10.1469 12.6974 10.1469 12.71V13.6686H10.3482V12.71C10.3482 12.6974 10.3579 12.6876 10.3705 12.6876H10.5214V12.5381H8.71173V12.6876H8.86405C8.87663 12.6876 8.88641 12.6974 8.88641 12.71V13.6686H8.88502Z" fill="white"/>
<path d="M8.84029 12.7324H8.71033V13.6687H8.84029V12.7324Z" fill="white"/>
<path d="M8.48257 12.7324H8.354V13.6687H8.48257V12.7324Z" fill="white"/>
<path fill-rule="evenodd" clip-rule="evenodd" d="M8.20306 13.6684H8.30926V12.7098C8.30926 12.6972 8.31905 12.6874 8.33162 12.6874H8.50491C8.51749 12.6874 8.52727 12.6972 8.52727 12.7098V13.6684H8.66562V12.2388C8.66562 12.1843 8.68798 12.1354 8.72291 12.1005C8.72711 12.0963 8.7327 12.0921 8.73689 12.0879H8.44761C8.38054 12.0879 8.31905 12.1158 8.27433 12.1606C8.22961 12.2053 8.20166 12.2668 8.20166 12.3338V13.6698L8.20306 13.6684Z" fill="white"/>
<path fill-rule="evenodd" clip-rule="evenodd" d="M7.97949 13.6684H8.15837V12.3324C8.15837 12.2527 8.19191 12.1787 8.24501 12.1256C8.26038 12.1102 8.27715 12.0976 8.29532 12.0864H8.12762V12.1954C8.12762 12.208 8.11644 12.2178 8.10387 12.2178C8.07033 12.2178 8.03958 12.2318 8.01583 12.2555C7.99347 12.2779 7.97949 12.31 7.97949 12.345V13.6684Z" fill="white"/>
<path fill-rule="evenodd" clip-rule="evenodd" d="M7.80481 13.6684H7.93338V12.345C7.93338 12.2975 7.95294 12.2556 7.98368 12.2248C7.98508 12.2234 7.98788 12.2206 7.98927 12.2192H7.80481V13.6698V13.6684Z" fill="white"/>
<path d="M7.76004 12.2178H7.26953V13.6683H7.76004V12.2178Z" fill="white"/>
<path fill-rule="evenodd" clip-rule="evenodd" d="M7.0949 13.6683H7.22486V12.2178H7.039C7.039 12.2178 7.04319 12.222 7.04459 12.2234C7.07534 12.2541 7.0949 12.2974 7.0949 12.3435V13.6669V13.6683Z" fill="white"/>
<path fill-rule="evenodd" clip-rule="evenodd" d="M6.87126 13.6684H7.05013V12.345C7.05013 12.31 7.03616 12.2793 7.0124 12.2555C6.99004 12.2332 6.9593 12.2192 6.92436 12.2178C6.91179 12.2178 6.90061 12.208 6.90061 12.1954V12.0864H6.73291C6.75108 12.0976 6.76924 12.113 6.78322 12.127C6.83632 12.1801 6.86846 12.2527 6.86846 12.3324V13.6684H6.87126Z" fill="white"/>
<path d="M6.67562 12.7324H6.54706V13.6687H6.67562V12.7324Z" fill="white"/>
<path fill-rule="evenodd" clip-rule="evenodd" d="M6.364 13.6684H6.50235V12.7097C6.50235 12.6971 6.51213 12.6873 6.52471 12.6873H6.69939C6.71197 12.6873 6.72175 12.6971 6.72175 12.7097V13.6684H6.82796V12.3324C6.82796 12.2653 6.79861 12.2024 6.75529 12.1577C6.71057 12.1144 6.65048 12.0864 6.5834 12.0864H6.29413C6.29413 12.0864 6.30391 12.0948 6.3081 12.099C6.34304 12.1339 6.3654 12.1842 6.3654 12.2374V13.667L6.364 13.6684Z" fill="white"/>
<path fill-rule="evenodd" clip-rule="evenodd" d="M6.23401 13.6686H6.31926V12.239C6.31926 12.1971 6.30249 12.1594 6.27454 12.1314C6.24659 12.1035 6.20886 12.0867 6.16693 12.0867C6.15436 12.0867 6.14457 12.0769 6.14457 12.0643V11.2286C6.14457 11.1741 6.12082 11.1224 6.08588 11.0861C6.05374 11.054 6.01181 11.033 5.9657 11.0288V12.1272C6.03697 12.1328 6.10125 12.1635 6.14877 12.2111C6.20187 12.2642 6.23401 12.3368 6.23401 12.4165V13.6686Z" fill="white"/>
<path fill-rule="evenodd" clip-rule="evenodd" d="M6.31787 13.7134H6.23263C6.22704 13.7944 6.1921 13.8671 6.1376 13.9216C6.11943 13.9398 6.09847 13.9565 6.07611 13.9705C6.1376 13.9621 6.1935 13.9328 6.23682 13.8909C6.28294 13.8447 6.31368 13.7833 6.31927 13.7134H6.31787Z" fill="white"/>
<path fill-rule="evenodd" clip-rule="evenodd" d="M17.7659 13.7134H17.6807C17.6863 13.7819 17.717 13.8447 17.7631 13.8909C17.805 13.9328 17.8609 13.9621 17.9224 13.9705C17.9001 13.9565 17.8791 13.9412 17.8609 13.9216C17.8064 13.8671 17.7715 13.7944 17.7659 13.7134Z" fill="white"/>
<path d="M7.75027 14.394H7.25977V14.7252H7.75027V14.394Z" fill="white"/>
<path d="M7.75027 14.7695H7.25977V15.1007H7.75027V14.7695Z" fill="white"/>
<path d="M7.75027 15.1455H7.25977V15.4767H7.75027V15.1455Z" fill="white"/>
<path d="M7.75027 15.5215H7.25977V15.8527H7.75027V15.5215Z" fill="white"/>
<path d="M7.75027 15.8975H7.25977V16.2287H7.75027V15.8975Z" fill="white"/>
<path d="M7.75027 16.2734H7.25977V16.6046H7.75027V16.2734Z" fill="white"/>
<path d="M7.75027 16.6509H7.25977V16.9821H7.75027V16.6509Z" fill="white"/>
<path d="M7.04038 16.269H4.27899V16.9817H7.04038V16.269Z" fill="white"/>
<path d="M7.04036 15.5117H4.66608V16.2244H7.04036V15.5117Z" fill="white"/>
<path d="M7.04177 14.8716H5.05737V15.4669H7.04177V14.8716Z" fill="white"/>
<path d="M7.04174 14.3911H5.44165V14.8271H7.04174V14.3911Z" fill="white"/>
<path d="M7.0418 14.0166H5.66809V14.3464H7.0418V14.0166Z" fill="white"/>
<path d="M7.21645 14.0166H7.08649V16.9806H7.21645V14.0166Z" fill="white"/>
<path d="M7.75027 14.0166H7.25977V14.3478H7.75027V14.0166Z" fill="white"/>
<path d="M7.92355 14.0166H7.79498V16.9806H7.92355V14.0166Z" fill="white"/>
<path d="M16.7387 14.394H16.2482V14.7252H16.7387V14.394Z" fill="white"/>
<path d="M16.7387 14.7695H16.2482V15.1007H16.7387V14.7695Z" fill="white"/>
<path d="M16.7387 15.1455H16.2482V15.4767H16.7387V15.1455Z" fill="white"/>
<path d="M16.7387 15.5215H16.2482V15.8527H16.7387V15.5215Z" fill="white"/>
<path d="M16.7387 15.8975H16.2482V16.2287H16.7387V15.8975Z" fill="white"/>
<path d="M16.7387 16.2734H16.2482V16.6046H16.7387V16.2734Z" fill="white"/>
<path d="M16.7387 16.6509H16.2482V16.9821H16.7387V16.6509Z" fill="white"/>
<path d="M19.7195 16.269H16.9581V16.9817H19.7195V16.269Z" fill="white"/>
<path d="M19.3324 15.5117H16.9581V16.2244H19.3324V15.5117Z" fill="white"/>
<path d="M18.9425 14.8716H16.9581V15.4669H18.9425V14.8716Z" fill="white"/>
<path d="M18.5582 14.3911H16.9581V14.8271H18.5582V14.3911Z" fill="white"/>
<path d="M18.3304 14.0166H16.9581V14.3464H18.3304V14.0166Z" fill="white"/>
<path d="M16.9134 14.0166H16.7849V16.9806H16.9134V14.0166Z" fill="white"/>
<path d="M16.7387 14.0166H16.2482V14.3478H16.7387V14.0166Z" fill="white"/>
<path d="M16.2049 14.0166H16.075V16.9806H16.2049V14.0166Z" fill="white"/>
<path d="M16.0302 16.269H12.4639V16.9817H16.0302V16.269Z" fill="white"/>
<path d="M16.0302 15.5117H12.4639V16.2244H16.0302V15.5117Z" fill="white"/>
<path d="M16.0302 14.8716H12.4639V15.4669H16.0302V14.8716Z" fill="white"/>
<path d="M16.0302 14.3911H12.4639V14.8271H16.0302V14.3911Z" fill="white"/>
<path d="M16.0302 14.0166H12.4639V14.3464H16.0302V14.0166Z" fill="white"/>
<path d="M12.2445 14.394H11.754V14.7252H12.2445V14.394Z" fill="white"/>
<path d="M12.2445 14.7695H11.754V15.1007H12.2445V14.7695Z" fill="white"/>
<path d="M12.2445 15.1455H11.754V15.4767H12.2445V15.1455Z" fill="white"/>
<path d="M12.2445 15.5215H11.754V15.8527H12.2445V15.5215Z" fill="white"/>
<path d="M12.2445 15.8975H11.754V16.2287H12.2445V15.8975Z" fill="white"/>
<path d="M12.2445 16.2734H11.754V16.6046H12.2445V16.2734Z" fill="white"/>
<path d="M12.2445 14.0166H11.754V14.3478H12.2445V14.0166Z" fill="white"/>
<path d="M12.2445 16.6509H11.754V16.9821H12.2445V16.6509Z" fill="white"/>
<path d="M12.4178 14.0166H12.2892V16.9806H12.4178V14.0166Z" fill="white"/>
<path d="M11.536 14.0166H7.96967V14.3464H11.536V14.0166Z" fill="white"/>
<path d="M11.536 14.3911H7.96967V14.8271H11.536V14.3911Z" fill="white"/>
<path d="M11.536 14.8716H7.96967V15.4669H11.536V14.8716Z" fill="white"/>
<path d="M11.536 15.5117H7.96967V16.2244H11.536V15.5117Z" fill="white"/>
<path d="M11.536 16.269H7.96967V16.9817H11.536V16.269Z" fill="white"/>
<path d="M11.7093 14.0166H11.5807V16.9806H11.7093V14.0166Z" fill="white"/>
<path fill-rule="evenodd" clip-rule="evenodd" d="M17.4542 13.9718H17.798C17.7743 13.9579 17.7519 13.9397 17.7323 13.9201C17.6778 13.8656 17.6429 13.793 17.6373 13.7119H17.1747C17.1803 13.7804 17.2111 13.8433 17.2572 13.8894C17.3089 13.9411 17.3788 13.9718 17.4556 13.9718H17.4542Z" fill="white"/>
<path fill-rule="evenodd" clip-rule="evenodd" d="M17.2307 13.9718H17.2908C17.267 13.9579 17.2446 13.9397 17.2251 13.9201C17.1706 13.8656 17.1356 13.793 17.13 13.7119H16.9512C16.9568 13.7804 16.9875 13.8433 17.0336 13.8894C17.0853 13.9411 17.1552 13.9718 17.2335 13.9718H17.2307Z" fill="white"/>
<path fill-rule="evenodd" clip-rule="evenodd" d="M16.7751 13.9718H17.0672C17.0434 13.9579 17.021 13.9397 17.0001 13.9201C16.9456 13.8656 16.9106 13.793 16.905 13.7119H16.7751V13.9718Z" fill="white"/>
<path d="M16.729 13.7134H16.2385V13.9733H16.729V13.7134Z" fill="white"/>
<path fill-rule="evenodd" clip-rule="evenodd" d="M15.9031 13.9718H16.1951V13.7119H16.0652C16.0596 13.793 16.0247 13.8656 15.9702 13.9201C15.9506 13.9397 15.9282 13.9579 15.9031 13.9718Z" fill="white"/>
<path fill-rule="evenodd" clip-rule="evenodd" d="M15.6781 13.9718H15.7382C15.8164 13.9718 15.8863 13.9397 15.938 13.8894C15.9841 13.8433 16.0149 13.7818 16.0205 13.7119H15.8416C15.836 13.793 15.8011 13.8656 15.7466 13.9201C15.727 13.9397 15.7047 13.9579 15.6809 13.9718H15.6781Z" fill="white"/>
<path fill-rule="evenodd" clip-rule="evenodd" d="M15.1708 13.9718H15.5146C15.5914 13.9718 15.6627 13.9397 15.713 13.8894C15.7591 13.8433 15.7899 13.7818 15.7954 13.7119H15.3329C15.3273 13.793 15.2924 13.8656 15.2379 13.9201C15.2183 13.9397 15.1959 13.9579 15.1722 13.9718H15.1708Z" fill="white"/>
<path fill-rule="evenodd" clip-rule="evenodd" d="M13.7607 13.9718H15.0059C15.0841 13.9718 15.154 13.9397 15.2043 13.8894C15.2504 13.8433 15.2812 13.7818 15.2868 13.7119H13.4799C13.4854 13.7804 13.5162 13.8433 13.5623 13.8894C13.6126 13.9411 13.6839 13.9718 13.7607 13.9718Z" fill="white"/>
<path fill-rule="evenodd" clip-rule="evenodd" d="M13.1864 13.9718H13.5959C13.5721 13.9579 13.5497 13.9397 13.5302 13.9201C13.4757 13.8656 13.4407 13.793 13.4352 13.7119H12.9055C12.9111 13.7804 12.9419 13.8433 12.988 13.8894C13.0383 13.9397 13.1095 13.9718 13.1864 13.9718Z" fill="white"/>
<path fill-rule="evenodd" clip-rule="evenodd" d="M12.7462 13.9718H13.0229C12.9992 13.9579 12.9768 13.9411 12.9572 13.9215C12.9027 13.867 12.8664 13.793 12.8608 13.7119H12.4639C12.4695 13.7804 12.5003 13.8433 12.5464 13.8894C12.5981 13.9411 12.668 13.9718 12.7462 13.9718Z" fill="white"/>
<path fill-rule="evenodd" clip-rule="evenodd" d="M12.2892 13.9718H12.5813C12.5576 13.9579 12.5352 13.9397 12.5142 13.9201C12.4597 13.8656 12.4248 13.793 12.4192 13.7119H12.2892V13.9718Z" fill="white"/>
<path d="M12.2445 13.7134H11.754V13.9733H12.2445V13.7134Z" fill="white"/>
<path fill-rule="evenodd" clip-rule="evenodd" d="M11.4186 13.9718H11.7107V13.7119H11.5807C11.5752 13.793 11.5402 13.8656 11.4857 13.9201C11.4662 13.9397 11.4438 13.9579 11.4186 13.9718Z" fill="white"/>
<path fill-rule="evenodd" clip-rule="evenodd" d="M10.9771 13.9718H11.2537C11.3306 13.9718 11.4019 13.9397 11.4522 13.8894C11.4983 13.8433 11.529 13.7818 11.5346 13.7119H11.1378C11.1322 13.793 11.0958 13.867 11.0413 13.9215C11.0218 13.9411 10.9994 13.9579 10.9771 13.9718Z" fill="white"/>
<path fill-rule="evenodd" clip-rule="evenodd" d="M10.4026 13.9718H10.8121C10.889 13.9718 10.9588 13.9411 11.0105 13.8894C11.0567 13.8433 11.0874 13.7804 11.093 13.7119H10.5634C10.5578 13.793 10.5228 13.8656 10.4683 13.9201C10.4488 13.9397 10.4264 13.9579 10.4026 13.9718Z" fill="white"/>
<path fill-rule="evenodd" clip-rule="evenodd" d="M8.99263 13.9718H10.2378C10.316 13.9718 10.3859 13.9397 10.4376 13.8894C10.4837 13.8433 10.5145 13.7818 10.5201 13.7119H8.71313C8.71872 13.7804 8.74947 13.8433 8.79559 13.8894C8.84589 13.9411 8.91716 13.9718 8.99402 13.9718H8.99263Z" fill="white"/>
<path fill-rule="evenodd" clip-rule="evenodd" d="M8.48536 13.9718H8.82914C8.80538 13.9579 8.78302 13.9397 8.76346 13.9201C8.70896 13.8656 8.67402 13.793 8.66843 13.7119H8.20587C8.21146 13.7804 8.24221 13.8433 8.28832 13.8894C8.34003 13.9411 8.4099 13.9718 8.48676 13.9718H8.48536Z" fill="white"/>
<path fill-rule="evenodd" clip-rule="evenodd" d="M8.26038 13.9718H8.32047C8.29672 13.9579 8.27436 13.9397 8.2534 13.9201C8.19889 13.8656 8.16396 13.793 8.15837 13.7119H7.97949C7.98508 13.7804 8.01583 13.8433 8.06194 13.8894C8.11365 13.9411 8.18352 13.9718 8.26178 13.9718H8.26038Z" fill="white"/>
<path fill-rule="evenodd" clip-rule="evenodd" d="M7.80481 13.9718H8.09688C8.07312 13.9579 8.05076 13.9397 8.0298 13.9201C7.9753 13.8656 7.94036 13.793 7.93477 13.7119H7.80481V13.9718Z" fill="white"/>
<path d="M7.76004 13.7134H7.26953V13.9733H7.76004V13.7134Z" fill="white"/>
<path fill-rule="evenodd" clip-rule="evenodd" d="M6.9328 13.9718H7.22487V13.7119H7.09491C7.08932 13.793 7.05438 13.8656 6.99988 13.9201C6.98031 13.9397 6.95795 13.9579 6.9328 13.9718Z" fill="white"/>
<path fill-rule="evenodd" clip-rule="evenodd" d="M6.70917 13.9718H6.76926C6.84612 13.9718 6.91739 13.9397 6.9677 13.8894C7.01381 13.8433 7.04456 13.7818 7.05015 13.7119H6.87127C6.86568 13.793 6.83075 13.8656 6.77625 13.9201C6.75668 13.9397 6.73432 13.9579 6.71057 13.9718H6.70917Z" fill="white"/>
<path fill-rule="evenodd" clip-rule="evenodd" d="M6.2005 13.9718H6.54428C6.62114 13.9718 6.69241 13.9397 6.74411 13.8894C6.79023 13.8433 6.82097 13.7818 6.82656 13.7119H6.364C6.35841 13.793 6.32348 13.8656 6.26898 13.9201C6.24941 13.9397 6.22705 13.9579 6.2033 13.9718H6.2005Z" fill="white"/>
<path fill-rule="evenodd" clip-rule="evenodd" d="M15.2882 11.6519V11.2537C15.2882 11.2355 15.2812 11.2201 15.2686 11.2076C15.2574 11.1964 15.2407 11.188 15.2225 11.188C15.2043 11.188 15.1889 11.195 15.1764 11.2076C15.1652 11.2187 15.1582 11.2355 15.1582 11.2537V11.5779C15.2043 11.5988 15.2476 11.624 15.2868 11.6533L15.2882 11.6519Z" fill="white"/>
</g>
</g>
<rect x="0.25" y="0.25" width="23.5" height="23.5" rx="11.75" stroke="#E5E3E1" stroke-width="0.5"/>
<defs>
<clipPath id="clip0_16335_10449">
<rect width="24" height="24" rx="12" fill="white"/>
</clipPath>
</defs>
</svg>
