<svg width="70" height="70" viewBox="0 0 70 70" fill="none" xmlns="http://www.w3.org/2000/svg">
<g clip-path="url(#clip0_15605_1526)">
<path d="M14.0328 32.4279V35.1851C14.0328 36.8312 12.9628 38.0657 11.3167 38.0246C9.62946 38.0246 8.55951 36.79 8.55951 35.1439V33.7036H5.6377V32.3867H13.9916L14.0328 32.4279ZM12.8805 33.7036H9.75292V35.0205C9.75292 36.0081 10.3702 36.6666 11.3579 36.6666C12.3044 36.6666 12.9216 36.0493 12.9216 35.0616V33.7447L12.8805 33.7036Z" fill="#DF0000"/>
<path d="M10.9464 46.9958C9.38261 47.572 7.98344 46.8724 7.36615 45.2674C6.79002 43.6625 7.36615 42.2222 8.92994 41.646L11.8929 40.5761C13.4567 40 14.8147 40.6172 15.432 42.3045C16.0081 43.9094 15.432 45.3498 13.8682 45.9259L10.9052 46.9958H10.9464ZM9.42377 42.8806C8.55957 43.2098 8.14805 43.9506 8.51842 44.8559C8.84764 45.7613 9.62953 46.0905 10.4937 45.7613L13.4567 44.6913C14.3209 44.3621 14.7324 43.6214 14.362 42.716C14.0328 41.8107 13.2509 41.4814 12.3867 41.8107L9.42377 42.8806Z" fill="#DF0000"/>
<path d="M11.6872 52.8393L10.9053 51.7693L17.6542 46.8311L18.4361 47.901L11.6872 52.8393Z" fill="#DF0000"/>
<path d="M19.1357 59.8354L18.2715 59.177L19.2592 52.5927L15.6789 57.1606L14.7324 56.4198L19.8765 49.8354L20.7818 50.535L19.7941 56.9959L23.2921 52.5103L24.2386 53.2511L19.0946 59.8354H19.1357Z" fill="#DF0000"/>
<path d="M25.8023 54.0737L31.0287 55.8021L30.6583 56.9132L28.683 56.2548L26.4196 63.0861L25.1851 62.6746L27.4484 55.8433L25.4731 55.1848L25.8435 54.0737H25.8023Z" fill="#DF0000"/>
<path d="M36.6255 58.4363V58.1894C36.6255 57.4487 36.0905 56.9137 35.2263 56.9137C34.3621 56.9137 33.8683 57.3664 33.8683 58.0248C33.8683 58.4775 34.1563 58.8479 34.7736 59.0536L36.0493 59.5063C37.0782 59.8767 38.107 60.3705 38.1481 61.8931C38.1481 63.3746 37.037 64.4034 35.3909 64.4034C33.7037 64.4034 32.5103 63.4981 32.5103 62.0166V61.7697H33.786V62.0577C33.786 62.8396 34.3621 63.3335 35.3498 63.3335C36.3374 63.3335 36.8724 62.7985 36.8724 62.0577C36.8724 61.3582 36.4197 61.0289 35.7201 60.782L34.4856 60.3293C33.4156 59.9178 32.6749 59.3005 32.6749 58.1483C32.6749 56.8726 33.6625 55.8849 35.2675 55.8438C36.8724 55.8438 37.9835 56.7491 37.9835 58.2306V58.3952H36.6666L36.6255 58.4363Z" fill="#DF0000"/>
<path d="M56.5019 53.7859C56.5019 53.7859 56.5843 53.7859 56.6254 53.7859C56.7077 53.7859 56.7489 53.7859 56.79 53.7036C56.8312 53.6213 56.8723 53.4978 56.79 53.4155C52.469 48.8476 47.1604 45.185 41.1933 42.8394L39.3826 42.0986C38.4361 41.6871 37.8188 40.7818 37.8188 39.7529C37.9423 35.8435 47.1192 36.6665 48.0657 34.8147L48.2303 34.4855C46.3373 32.8394 44.1151 31.646 41.646 30.9464C41.646 31.0698 41.5225 31.4813 42.0575 32.3455C42.5925 33.2097 41.4814 34.6501 39.7941 33.1274L39.6295 33.004C27.4896 21.8517 21.8517 29.218 13.6213 16.255C13.539 16.1316 13.4567 16.0904 13.3332 16.1727C13.2098 16.255 13.1686 16.3373 13.2098 16.4608C19.7118 32.1398 33.0452 28.8476 34.6089 43.4567C34.6912 43.9916 35.0616 44.4443 35.6378 44.5266C43.0452 45.6789 50.2468 48.7653 56.5019 53.7859Z" fill="#DF0000"/>
<path d="M34.9794 70C15.679 70 0 54.2798 0 34.9794C0 15.679 15.679 0 34.9794 0C54.2798 0 69.9588 15.679 69.9588 34.9794C69.9588 54.2798 54.2798 69.9588 34.9794 69.9588V70ZM34.9794 2.18107C16.9136 2.18107 2.18107 16.9136 2.18107 34.9794C2.18107 53.0453 16.9136 67.8189 35.0206 67.8189C53.1276 67.8189 67.8601 53.0864 67.8601 34.9794C67.8601 16.8724 53.0864 2.18107 34.9794 2.18107Z" fill="#DF0000"/>
<path d="M33.9507 5.55566L36.8314 5.72027C38.354 5.80258 39.3828 6.70793 39.3005 8.0248C39.2594 8.9713 38.7655 9.54743 37.9836 9.8355C38.889 10.1647 39.3417 10.9055 39.3005 11.9343C39.2182 13.3334 38.1071 14.1976 36.5845 14.1153L33.498 13.9507L33.9507 5.59682V5.55566ZM35.0207 10.2882L34.8972 12.9219L36.5022 13.0042C37.4075 13.0454 37.9425 12.5515 37.9836 11.7697C38.0248 10.9878 37.531 10.4116 36.6668 10.3705L35.0207 10.2882ZM35.1853 6.70793L35.0618 9.17706L36.5433 9.25937C37.3664 9.30052 37.9425 8.84785 37.9836 8.06595C37.9836 7.28406 37.4898 6.83138 36.6668 6.79023L35.2264 6.70793H35.1853Z" fill="#DF0000"/>
<path d="M47.2839 14.6506C46.5843 16.1732 45.1029 16.667 43.5391 15.9674C41.9753 15.2678 41.358 13.8275 42.0576 12.3049L43.3333 9.42422C44.0329 7.90158 45.4321 7.3666 47.0782 8.10734C48.642 8.80693 49.2592 10.2473 48.5596 11.7699L47.2839 14.6506ZM43.251 12.8399C42.8806 13.6629 43.1275 14.4859 44.0329 14.8975C44.9382 15.309 45.7201 14.9386 46.0905 14.1156L47.3662 11.2349C47.7366 10.4119 47.4897 9.58883 46.5843 9.1773C45.679 8.76578 44.8971 9.13615 44.5267 9.9592L43.251 12.8399Z" fill="#DF0000"/>
<path d="M51.9341 22.3456L51.1934 21.5638L53.0864 15.144L48.93 19.2181L48.1069 18.3539L54.1152 12.5103L54.8971 13.3333L53.0452 19.5884L57.1193 15.5967L57.9835 16.4609L51.9752 22.3045L51.9341 22.3456Z" fill="#DF0000"/>
<path d="M63.1689 26.2964L57.8602 28.5186C56.2965 29.177 54.8973 28.5186 54.2388 26.996C53.5804 25.4733 54.1565 23.9918 55.6792 23.3746L60.9878 21.1523L61.4816 22.3458L56.173 24.568C55.3088 24.9384 54.9384 25.6791 55.3088 26.5433C55.6792 27.4075 56.4611 27.6544 57.3253 27.3252L62.6339 25.103L63.1277 26.2964H63.1689Z" fill="#DF0000"/>
<path d="M61.8931 35.4735H62.14C62.8807 35.4735 63.4157 34.8974 63.3746 34.0332C63.3334 33.169 62.8807 32.6751 62.2634 32.7163C61.8108 32.7163 61.4404 33.0455 61.2346 33.6216L60.782 34.8974C60.4116 35.9262 59.9589 36.9961 58.4363 37.0373C56.9548 37.0784 55.8848 36.0085 55.8437 34.3212C55.8025 32.634 56.6667 31.4406 58.1894 31.3994H58.4363V32.6751H58.1482C57.3663 32.6751 56.8725 33.2924 56.9137 34.2389C56.9137 35.2266 57.4898 35.7616 58.2305 35.7616C58.9301 35.7616 59.2593 35.2677 59.5062 34.5681L59.9589 33.3336C60.3293 32.2636 60.9466 31.4817 62.14 31.4817C63.4157 31.4817 64.4445 32.4282 64.4857 34.0332C64.5268 35.6381 63.6215 36.7492 62.14 36.7904H61.9754L61.9342 35.5146L61.8931 35.4735Z" fill="#DF0000"/>
</g>
<defs>
<clipPath id="clip0_15605_1526">
<rect width="70" height="70" fill="white"/>
</clipPath>
</defs>
</svg>
