<svg width="48" height="48" viewBox="0 0 48 48" fill="none" xmlns="http://www.w3.org/2000/svg">
<path d="M18.7998 3.87012L4.58984 9.71012V13.9801L18.7998 8.15012L33.0098 13.9801V9.71012L18.7998 3.87012Z" fill="#8DE2E0"/>
<path d="M18.7998 41.8902C18.7398 41.8902 18.6898 41.8902 18.6298 41.8802C18.4798 41.8502 3.58984 39.0902 3.58984 21.3102V9.71023C3.58984 9.30023 3.83984 8.94023 4.20984 8.78023L18.4198 2.94023C18.6598 2.84023 18.9398 2.84023 19.1798 2.94023L33.3898 8.78023C33.7698 8.93023 34.0098 9.30023 34.0098 9.71023V16.3802C34.0098 16.9302 33.5598 17.3802 33.0098 17.3802C32.4598 17.3802 32.0098 16.9302 32.0098 16.3802V10.3802L18.7998 4.96023L5.58984 10.3802V21.3102C5.58984 36.5502 17.1598 39.5302 18.7998 39.8702C19.3198 39.7602 20.9898 39.3302 22.9598 38.2602C23.4498 38.0002 24.0498 38.1802 24.3198 38.6602C24.5798 39.1402 24.3998 39.7502 23.9198 40.0202C21.2398 41.4802 19.0698 41.8602 18.9798 41.8802C18.9198 41.8802 18.8698 41.8902 18.8098 41.8902H18.7998Z" fill="#323232"/>
<path d="M42.7497 30.35L39.3697 27.06C39.3697 27.06 39.3397 27.04 39.3197 27.03V21.17C39.3197 20.1 38.4497 19.23 37.3797 19.23H28.1197C27.0497 19.23 26.1797 20.1 26.1797 21.17V36.03C26.1797 37.1 27.0497 37.97 28.1197 37.97H30.5897C30.6197 38.72 30.7297 39.92 31.1397 40.77C31.6897 41.9 32.1397 42.49 32.4697 42.93C32.8497 43.42 32.9097 43.51 32.9097 44.13C32.9097 44.68 33.3597 45.13 33.9097 45.13C34.4597 45.13 34.9097 44.68 34.9097 44.13C34.9097 42.92 34.5897 42.41 34.0497 41.71C33.7597 41.33 33.3897 40.85 32.9297 39.9C32.7097 39.45 32.6097 38.64 32.5797 37.97H33.7497C34.0297 39.12 34.7497 40.64 36.5297 42.13C36.7197 42.29 36.9397 42.36 37.1697 42.36C37.4597 42.36 37.7397 42.24 37.9397 42C38.2897 41.58 38.2397 40.95 37.8097 40.59C36.5397 39.53 35.8097 38.38 35.6197 37.16C35.4897 36.33 35.6797 35.77 35.6797 35.77C35.8197 35.4 35.7297 34.98 35.4497 34.71L31.9697 31.27C31.7797 31.09 31.6797 30.84 31.6797 30.58C31.6797 30.32 31.7797 30.07 31.9597 29.89C32.1397 29.7 32.3897 29.6 32.6497 29.6C32.9097 29.6 33.1497 29.7 33.3397 29.88L37.9297 34.43L39.6597 36.14C39.8497 36.33 40.1097 36.43 40.3597 36.43C40.6097 36.43 40.8697 36.33 41.0697 36.13C41.4597 35.74 41.4597 35.1 41.0697 34.72L39.3397 33.01L39.2897 32.96V29.81L41.3297 31.79C41.9997 32.45 42.3897 33.36 42.3897 34.3V44.13C42.3897 44.68 42.8397 45.13 43.3897 45.13C43.9397 45.13 44.3897 44.68 44.3897 44.13V34.3C44.3897 32.82 43.7797 31.39 42.7297 30.36L42.7497 30.35ZM34.7797 28.46C34.2097 27.9 33.4597 27.57 32.6697 27.6C31.8697 27.6 31.1297 27.92 30.5697 28.48C29.4197 29.65 29.4197 31.53 30.5897 32.69L33.6697 35.74C33.6597 35.81 33.6497 35.89 33.6397 35.97H31.2397L28.1797 36.03L28.1197 21.23H34.3497L37.3197 21.17V30.97L34.7797 28.46Z" fill="#323232"/>
<path d="M20.3302 20.8801H17.2502V19.2801C17.2502 18.7001 17.7202 18.2301 18.3002 18.2301H19.2702C19.8502 18.2301 20.3202 18.7001 20.3202 19.2801V20.8801H20.3302ZM22.2502 20.8801H21.9202V19.2801C21.9202 17.8201 20.7302 16.6401 19.2802 16.6401H18.3102C16.8502 16.6401 15.6702 17.8301 15.6702 19.2801V20.8701H15.3402C14.6902 20.8701 14.1602 21.4001 14.1602 22.0501V26.9701C14.1602 27.6201 14.6902 28.1501 15.3402 28.1501H22.2702C22.9202 28.1501 23.4502 27.6201 23.4502 26.9701V22.0601C23.4502 21.4101 22.9202 20.8801 22.2602 20.8801H22.2502Z" fill="#DF0000"/>
</svg>
