<svg width="48" height="48" viewBox="0 0 48 48" fill="none" xmlns="http://www.w3.org/2000/svg">
<path d="M9.31047 32.04L19.4105 32.23L19.4905 40.65L13.1705 40.2C13.1705 40.2 11.7005 40.27 10.2705 38.73C9.61047 38.02 7.73047 34.59 7.73047 34.59L9.30047 32.05L9.31047 32.04Z" fill="#8DE2E0"/>
<path d="M25.4309 7.6299L20.2109 16.2799L12.8809 12.1399L16.4309 6.8899C16.4309 6.8899 17.1009 5.5899 19.1609 5.1199C20.1009 4.8999 24.0209 4.9899 24.0209 4.9899L25.4309 7.6199V7.6299Z" fill="#8DE2E0"/>
<path d="M38.7005 33.2101L33.8105 24.3601L41.0605 20.0801L43.8305 25.7801C43.8305 25.7801 44.6205 27.0101 44.0005 29.0301C43.7105 29.9601 41.6805 33.3001 41.6805 33.3001L38.6905 33.2101H38.7005Z" fill="#8DE2E0"/>
<path d="M28.5093 15.47L26.5693 16.51C26.1993 16.71 25.9893 17.12 26.0493 17.53C26.1093 17.95 26.4293 18.28 26.8393 18.37L35.2993 20.13C35.3693 20.14 35.4393 20.15 35.4993 20.15C35.8993 20.15 36.2693 19.91 36.4293 19.52L39.6693 11.51C39.8293 11.12 39.7193 10.67 39.4093 10.39C39.0993 10.11 38.6393 10.05 38.2693 10.25L36.4893 11.2L32.8693 4.48996C32.6993 4.16996 32.3593 3.95996 31.9893 3.95996H20.6493C17.1393 3.95996 15.8393 5.89996 15.5793 6.35996L12.0593 11.57C11.8993 11.8 11.8493 12.09 11.9093 12.36C11.9693 12.63 12.1493 12.86 12.3893 13L19.7193 17.14C20.1893 17.41 20.7893 17.25 21.0693 16.79L25.3793 9.63996L28.5093 15.47ZM31.3793 5.96996L35.1893 13.04C35.4493 13.52 36.0493 13.71 36.5393 13.45L36.7693 13.33L34.8793 18.01L29.9393 16.98L30.3293 16.77C30.5593 16.65 30.7393 16.43 30.8193 16.18C30.8993 15.93 30.8693 15.65 30.7393 15.42L25.6693 5.97996H31.3793V5.96996ZM19.8593 14.93L14.3193 11.8L17.2593 7.44996C17.2593 7.44996 17.3093 7.36996 17.3293 7.33996C17.3593 7.27996 18.0793 5.96996 20.6493 5.96996H23.4093L24.2793 7.58996L19.8593 14.92V14.93Z" fill="#323232"/>
<path d="M44.7088 25.3001L41.9588 19.6501C41.8388 19.4001 41.6188 19.2101 41.3488 19.1301C41.0788 19.0501 40.7888 19.0801 40.5488 19.2301L33.2988 23.5101C32.8288 23.7901 32.6688 24.3801 32.9288 24.8501L36.9688 32.1601L30.3588 31.9601L30.4288 29.7601C30.4388 29.3401 30.1888 28.9601 29.7988 28.8001C29.4088 28.6501 28.9588 28.7501 28.6788 29.0601L22.9288 35.5001C22.6088 35.8601 22.5888 36.4001 22.8888 36.7801L28.2088 43.5901C28.3988 43.8401 28.6988 43.9701 28.9988 43.9701C29.0988 43.9701 29.2088 43.9501 29.3088 43.9201C29.7088 43.7901 29.9888 43.4201 29.9988 43.0001L30.0688 40.9801L37.6888 41.2001C38.0488 41.2201 38.3988 41.0201 38.5888 40.7001L44.2588 30.8801C46.0088 27.8401 44.9888 25.7501 44.7188 25.2901L44.7088 25.3001ZM37.1588 39.1901L29.1388 38.9501C29.1388 38.9501 29.1188 38.9501 29.1088 38.9501C28.5688 38.9501 28.1288 39.3801 28.1088 39.9201V40.1801L24.9888 36.2001L28.3488 32.4301V32.8801C28.3288 33.1501 28.4188 33.4001 28.6088 33.6001C28.7888 33.7901 29.0388 33.9101 29.3088 33.9201L38.6588 34.2101C38.6588 34.2101 38.6888 34.2101 38.6988 34.2101L40.0188 34.2501L37.1688 39.1901H37.1588ZM42.5188 29.8901L41.1388 32.2801L39.2988 32.2201L35.1588 24.7201L40.6388 21.4901L42.9388 26.2101C42.9388 26.2101 42.9888 26.2901 43.0088 26.3201C43.0388 26.3701 43.8188 27.6501 42.5288 29.8801L42.5188 29.8901Z" fill="#323232"/>
<path d="M19.4297 31.23L11.0797 31.07L14.5597 25.45L16.4297 26.61C16.7897 26.83 17.2497 26.81 17.5797 26.55C17.9097 26.29 18.0397 25.85 17.9097 25.45L15.1997 17.25C15.0497 16.79 14.5797 16.5 14.1097 16.57L5.54968 17.77C5.12968 17.83 4.79968 18.14 4.70968 18.55C4.61968 18.96 4.79968 19.38 5.15968 19.61L6.87968 20.68L2.86968 27.17C2.67968 27.48 2.66968 27.88 2.84968 28.2L8.51968 38.02C10.2697 41.06 12.5897 41.2 13.1297 41.21L19.3997 41.65C19.3997 41.65 19.4497 41.65 19.4697 41.65C19.7197 41.65 19.9697 41.55 20.1597 41.38C20.3597 41.19 20.4797 40.92 20.4697 40.64L20.3897 32.22C20.3897 31.68 19.9497 31.24 19.4097 31.23H19.4297ZM8.47968 31.49C8.47968 31.49 8.45968 31.53 8.44968 31.54L7.75968 32.65L4.90968 27.71L9.11968 20.88C9.40968 20.41 9.26968 19.8 8.79968 19.51L8.57968 19.37L13.5797 18.67L15.1597 23.46L14.7797 23.22C14.5497 23.08 14.2797 23.03 14.0197 23.1C13.7597 23.16 13.5397 23.32 13.3997 23.55L8.47968 31.49ZM13.2497 39.21C13.2497 39.21 13.2097 39.21 13.1897 39.21C13.1697 39.21 13.1397 39.21 13.1197 39.21C13.0597 39.21 11.5597 39.24 10.2797 37.02L8.89968 34.63L9.86968 33.06L18.4297 33.22L18.4897 39.58L13.2497 39.21Z" fill="#323232"/>
</svg>
