<svg width="48" height="48" viewBox="0 0 48 48" fill="none" xmlns="http://www.w3.org/2000/svg">
<path d="M43.8491 26.3499C43.0791 24.9899 41.3391 24.4999 39.9891 25.2599L33.0091 29.0199C32.8691 28.8299 32.7191 28.6399 32.5291 28.4799C31.9491 27.9699 31.1891 27.6799 30.4491 27.6799H28.1191C24.4691 27.6799 23.0491 27.3599 21.8091 27.0799C20.8691 26.8699 19.9791 26.6699 18.4091 26.6699C14.6391 26.6699 11.1091 29.9999 9.24906 32.1199L9.01906 31.8899C8.63906 31.5099 7.97906 31.5099 7.60906 31.8899L4.07906 35.4199C3.88906 35.6099 3.78906 35.8599 3.78906 36.1299C3.78906 36.3999 3.89906 36.6499 4.07906 36.8399L12.5291 45.2899C12.7291 45.4899 12.9791 45.5799 13.2391 45.5799C13.4991 45.5799 13.7491 45.4799 13.9491 45.2899L17.4791 41.7599C17.6691 41.5699 17.7691 41.3199 17.7691 41.0499C17.7691 40.7799 17.6591 40.5299 17.4791 40.3399L17.0891 39.9499C18.2791 38.8599 19.9691 37.8099 22.1091 37.8099L29.4191 37.7799C30.4391 37.7799 31.3991 37.5699 32.2891 37.1799C36.0591 35.5099 42.8491 30.2599 43.1291 30.0299C44.2391 29.1599 44.5591 27.5899 43.8591 26.3599L43.8491 26.3499ZM13.2191 43.1499L6.18906 36.1199L8.30906 33.9999L15.3391 41.0299L13.2191 43.1499ZM41.8891 28.4399C39.5291 30.2699 34.2991 34.0799 31.4591 35.3399C30.8291 35.6199 30.1391 35.7599 29.3891 35.7699L22.0791 35.7999C19.1891 35.7999 16.9891 37.2799 15.6491 38.5199L10.6491 33.5199C12.1391 31.8199 15.3191 28.6599 18.3891 28.6599C19.7391 28.6599 20.4491 28.8199 21.3491 29.0199C22.6291 29.3099 24.2291 29.6699 28.0991 29.6699H30.4291C30.6791 29.6699 30.9791 29.7899 31.1891 29.9799C31.3091 30.0799 31.5091 30.2999 31.5091 30.5899C31.5091 31.0899 30.9091 31.5099 30.3891 31.5099L25.1791 31.6699C24.6291 31.6899 24.1891 32.1499 24.2091 32.6999C24.2291 33.2499 24.6891 33.6899 25.2391 33.6699L30.4091 33.5099C31.7391 33.5099 33.1991 32.4999 33.4491 31.0199L40.9191 26.9999C41.3291 26.7699 41.8491 26.9199 42.0891 27.3299C42.2991 27.7099 42.2091 28.1699 41.8691 28.4299L41.8891 28.4399Z" fill="#323232"/>
<path d="M34.201 16.0602V12.6702L32.251 12.3202C32.041 11.4802 31.711 10.6902 31.281 9.97016L32.411 8.34016L30.021 5.95016L28.391 7.08016C27.671 6.64016 26.881 6.31016 26.041 6.11016L25.691 4.16016H22.301L21.951 6.11016C21.111 6.32016 20.321 6.65016 19.601 7.08016L17.971 5.95016L15.581 8.34016L16.711 9.97016C16.281 10.6902 15.941 11.4802 15.741 12.3202L13.791 12.6702V16.0602L15.741 16.4102C15.951 17.2502 16.281 18.0402 16.711 18.7602L15.581 20.3902L17.971 22.7802L19.601 21.6502C20.321 22.0902 21.111 22.4202 21.951 22.6202L22.301 24.5702H25.691L26.041 22.6202C26.881 22.4102 27.671 22.0802 28.391 21.6502L30.021 22.7802L32.411 20.3902L31.281 18.7602C31.721 18.0402 32.051 17.2502 32.251 16.4102L34.201 16.0602ZM24.001 18.2302C21.861 18.2302 20.131 16.5002 20.131 14.3602C20.131 12.2202 21.861 10.4902 24.001 10.4902C26.141 10.4902 27.871 12.2202 27.871 14.3602C27.871 16.5002 26.141 18.2302 24.001 18.2302Z" fill="#8DE2E0"/>
<path d="M25.6908 25.57H22.3008C21.8208 25.57 21.4008 25.22 21.3208 24.75L21.0808 23.41C20.5908 23.25 20.1208 23.06 19.6708 22.82L18.5508 23.6C18.1508 23.88 17.6108 23.83 17.2708 23.49L14.8808 21.1C14.5408 20.76 14.4908 20.22 14.7708 19.82L15.5508 18.71C15.3208 18.25 15.1208 17.78 14.9608 17.3L13.6208 17.06C13.1408 16.97 12.8008 16.56 12.8008 16.08V12.7C12.8008 12.22 13.1508 11.8 13.6208 11.72L14.9608 11.48C15.1208 10.99 15.3108 10.52 15.5508 10.07L14.7708 8.95996C14.4908 8.55996 14.5408 8.01996 14.8808 7.67996L17.2708 5.28996C17.6108 4.94996 18.1508 4.89996 18.5508 5.17996L19.6708 5.95996C20.1208 5.72996 20.6008 5.52996 21.0808 5.36996L21.3208 4.02996C21.4108 3.54996 21.8208 3.20996 22.3008 3.20996H25.6908C26.1708 3.20996 26.5908 3.55996 26.6708 4.02996L26.9108 5.36996C27.4008 5.52996 27.8708 5.71996 28.3208 5.95996L29.4308 5.18996C29.8308 4.90996 30.3708 4.95996 30.7108 5.29996L33.1008 7.68996C33.4408 8.02996 33.4908 8.56996 33.2108 8.96996L32.4308 10.09C32.6608 10.55 32.8608 11.02 33.0208 11.5L34.3608 11.74C34.8408 11.83 35.1808 12.24 35.1808 12.72V16.11C35.1808 16.59 34.8308 17.01 34.3608 17.09L33.0208 17.33C32.8608 17.82 32.6708 18.29 32.4308 18.74L33.2108 19.86C33.4908 20.26 33.4408 20.8 33.1008 21.14L30.7108 23.53C30.3708 23.87 29.8308 23.92 29.4308 23.64L28.3208 22.87C27.8608 23.1 27.3908 23.3 26.9108 23.46L26.6708 24.8C26.5808 25.28 26.1708 25.62 25.6908 25.62V25.57ZM23.1408 23.57H24.8508L25.0508 22.44C25.1208 22.05 25.4108 21.74 25.8008 21.65C26.5308 21.47 27.2208 21.18 27.8708 20.79C28.2108 20.59 28.6308 20.6 28.9608 20.83L29.9008 21.48L31.1108 20.27L30.4608 19.33C30.2308 19.01 30.2208 18.58 30.4308 18.24C30.8208 17.6 31.1108 16.9 31.2908 16.17C31.3808 15.79 31.7008 15.5 32.0808 15.42L33.2108 15.22V13.51L32.0808 13.31C31.6908 13.24 31.3808 12.95 31.2908 12.56C31.1108 11.83 30.8208 11.14 30.4308 10.49C30.2308 10.15 30.2408 9.72996 30.4608 9.39996L31.1108 8.45996L29.9008 7.24996L28.9608 7.89996C28.6408 8.12996 28.2108 8.13996 27.8708 7.93996C27.2208 7.54996 26.5308 7.25996 25.8008 7.07996C25.4208 6.98996 25.1308 6.66996 25.0608 6.28996L24.8608 5.15996H23.1508L22.9508 6.28996C22.8808 6.67996 22.5908 6.98996 22.2108 7.07996C21.4808 7.25996 20.7808 7.54996 20.1408 7.93996C19.8008 8.14996 19.3808 8.12996 19.0508 7.90996L18.1108 7.25996L16.9008 8.46996L17.5508 9.40996C17.7808 9.72996 17.7908 10.16 17.5908 10.5C17.2008 11.15 16.9108 11.84 16.7308 12.57C16.6408 12.95 16.3208 13.24 15.9408 13.32L14.8108 13.52V15.23L15.9408 15.43C16.3308 15.5 16.6408 15.79 16.7308 16.17C16.9108 16.9 17.2008 17.59 17.5908 18.24C17.7908 18.58 17.7808 19 17.5508 19.33L16.9008 20.27L18.1108 21.48L19.0508 20.83C19.3708 20.61 19.8008 20.59 20.1408 20.8C20.7808 21.19 21.4808 21.48 22.2108 21.66C22.5908 21.75 22.8808 22.07 22.9508 22.45L23.1508 23.58L23.1408 23.57ZM24.0008 19.23C21.3208 19.23 19.1308 17.05 19.1308 14.36C19.1308 11.67 21.3108 9.48996 24.0008 9.48996C26.6908 9.48996 28.8708 11.67 28.8708 14.36C28.8708 17.05 26.6908 19.23 24.0008 19.23ZM24.0008 11.5C22.4208 11.5 21.1308 12.79 21.1308 14.37C21.1308 15.95 22.4208 17.24 24.0008 17.24C25.5808 17.24 26.8708 15.95 26.8708 14.37C26.8708 12.79 25.5808 11.5 24.0008 11.5Z" fill="#323232"/>
</svg>
