<svg width="24" height="24" viewBox="0 0 24 24" fill="none" xmlns="http://www.w3.org/2000/svg">
<g clip-path="url(#clip0_16335_2571)">
<path d="M23.8449 13.9238C24.9068 7.382 20.4644 1.218 13.9226 0.156118C7.38083 -0.905765 1.21683 3.53658 0.154948 10.0784C-0.906935 16.6202 3.53541 22.7842 10.0772 23.846C16.619 24.9079 22.783 20.4656 23.8449 13.9238Z" fill="white"/>
<mask id="mask0_16335_2571" style="mask-type:luminance" maskUnits="userSpaceOnUse" x="-1" y="-1" width="26" height="26">
<path d="M23.8449 13.9238C24.9068 7.382 20.4644 1.218 13.9226 0.156118C7.38083 -0.905765 1.21683 3.53658 0.154948 10.0784C-0.906935 16.6202 3.53541 22.7842 10.0772 23.846C16.619 24.9079 22.783 20.4656 23.8449 13.9238Z" fill="white"/>
</mask>
<g mask="url(#mask0_16335_2571)">
<path d="M36 0H0V24H36V0Z" fill="#FF0000"/>
<path d="M17.9644 0H0V12H17.9644V0Z" fill="#003399"/>
<path fill-rule="evenodd" clip-rule="evenodd" d="M8.98148 8.24934C10.221 8.24934 11.2314 7.23897 11.2314 5.99942C11.2314 4.75988 10.221 3.74951 8.98148 3.74951C7.74193 3.74951 6.73157 4.75988 6.73157 5.99942C6.73157 7.23897 7.74193 8.24934 8.98148 8.24934Z" fill="white"/>
<path fill-rule="evenodd" clip-rule="evenodd" d="M8.9815 10.4908L9.52512 8.50923C9.35043 8.54696 9.16737 8.56652 8.9815 8.56652C8.79564 8.56652 8.61257 8.54696 8.43789 8.50923L8.9815 10.4908ZM9.76548 8.44495L11.2272 9.88992L10.7074 7.90133C10.4391 8.14449 10.119 8.33315 9.76548 8.44634V8.44495ZM10.8821 7.72525C11.1252 7.45694 11.3139 7.13692 11.4271 6.78336L12.872 8.24511L10.8834 7.72525H10.8821ZM11.4899 6.5444L13.4715 6.00079L11.4899 5.45717C11.5277 5.63186 11.5472 5.81492 11.5472 6.00079C11.5472 6.18665 11.5277 6.36972 11.4899 6.5444ZM11.4271 5.21681L12.872 3.75507L10.8834 4.27492C11.1266 4.54323 11.3153 4.86325 11.4285 5.21681H11.4271ZM10.7074 4.10024C10.4391 3.85568 10.119 3.66842 9.76548 3.55523L11.2272 2.11025L10.7074 4.09884V4.10024ZM9.52651 3.49234L8.9829 1.51074L8.43929 3.49234C8.61537 3.45461 8.79704 3.43505 8.9829 3.43505C9.16876 3.43505 9.35183 3.45461 9.52651 3.49234ZM8.19893 3.55523L6.73718 2.11025L7.25704 4.09884C7.52535 3.85568 7.84537 3.66703 8.19893 3.55383V3.55523ZM7.08235 4.27492C6.8378 4.54323 6.65054 4.86325 6.53734 5.21681L5.09237 3.75507L7.08096 4.27492H7.08235ZM6.47446 5.45578L4.49286 5.99939L6.47446 6.543C6.43673 6.36832 6.41716 6.18525 6.41716 5.99939C6.41716 5.81353 6.43673 5.63046 6.47446 5.45578ZM6.53734 6.78336L5.09237 8.24511L7.08096 7.72525C6.8378 7.45694 6.64914 7.13692 6.53595 6.78336H6.53734ZM7.25704 7.89994C7.52535 8.14309 7.84537 8.33175 8.19893 8.44495L6.73718 9.88992L7.25704 7.90133V7.89994Z" fill="white"/>
</g>
</g>
<rect x="0.25" y="0.25" width="23.5" height="23.5" rx="11.75" stroke="#E5E3E1" stroke-width="0.5"/>
<defs>
<clipPath id="clip0_16335_2571">
<rect width="24" height="24" rx="12" fill="white"/>
</clipPath>
</defs>
</svg>
