<svg width="24" height="24" viewBox="0 0 24 24" fill="none" xmlns="http://www.w3.org/2000/svg">
<path fill-rule="evenodd" clip-rule="evenodd" d="M6.60943 14.253H5.59605L5.48229 14.0552H6.76408C6.76408 14.0552 9.16815 14.0501 10.2943 14.4219C11.069 14.6778 11.8572 15.1229 12.5847 15.6484C13.3122 16.1739 14.3362 16.9103 14.3362 16.9103C14.068 17.1248 13.8647 17.3414 13.492 17.3414C13.1955 17.3414 12.899 17.1799 12.899 17.1799L10.3503 15.3419C9.66242 14.8459 8.87427 14.4969 8.03083 14.3546C7.56038 14.2754 7.08535 14.2732 6.60943 14.253ZM4.73121 12.7492H5.90204C7.3 12.7392 8.05707 12.7991 9.18815 13.2145C10.2228 13.5946 11.1131 14.2224 12.0009 14.8589L13.8915 16.2143C13.8915 16.2143 14.2149 16.4972 14.5383 16.4972C14.9315 16.4972 15.2 16.2815 15.5084 16.0795L12.9754 14.2247C12.9754 14.2247 11.8786 13.4032 10.5313 12.9587C9.03745 12.4659 6.56217 12.5515 6.56217 12.5515H4.61758L4.73121 12.7492ZM3.73567 11.018H6.15236C6.15236 11.018 9.15006 11.022 10.332 11.3088C11.298 11.5432 12.5648 12.1945 13.2485 12.7157C13.932 13.2364 16.6624 15.2129 16.6624 15.2129C16.6624 15.2129 16.3213 15.6079 15.7643 15.6079C15.3511 15.6079 15.1986 15.452 15.0818 15.3924L11.9799 13.1603C11.1177 12.5399 10.2236 12.0134 9.2749 11.6822C8.32624 11.3512 7.32293 11.2154 6.24217 11.2154H3.84917L3.73567 11.018Z" fill="#00818A"/>
<path fill-rule="evenodd" clip-rule="evenodd" d="M6.64217 9.51503C9.03083 9.51503 10.4912 9.77516 11.6097 10.1995C12.4639 10.5237 13.1842 10.9827 13.914 11.5065L17.8711 14.3476C17.8711 14.3476 17.6999 14.5186 17.4718 14.6454C17.0834 14.8613 16.5604 14.7708 16.1465 14.4553L12.4633 11.8385C11.3447 11.0438 10.2563 10.3791 8.90688 10.0087C7.91758 9.73707 6.0135 9.71274 6.0135 9.71274H2.98497L2.87134 9.51503H6.64217ZM2.10535 8.18331H5.76382C5.76382 8.18331 7.80408 8.26599 8.77274 8.48127C10.2996 8.8349 11.6353 9.5507 12.9701 10.5032L17.3171 13.6054C17.6772 13.8724 18.152 14.0443 18.5368 13.8335C18.706 13.7409 18.8423 13.6231 18.9852 13.4978L13.9966 9.90599C13.1724 9.31274 12.1647 8.8865 11.3344 8.63529C10.1873 8.28841 8.88089 8 6.49936 8H2L2.10535 8.18331ZM17.8499 11.3934C17.5745 11.3885 17.3825 11.3696 17.1325 11.3096C16.7201 11.2108 16.5529 10.8994 16.5529 10.8994C16.4024 11.2036 16.8096 11.5696 17.0064 11.7117L18.9983 13.1304C19.2981 13.3033 19.4712 13.1669 19.4712 13.1669C19.4712 13.1669 19.9894 12.894 20.2624 12.8304C20.5354 12.7668 21.3175 12.7392 21.4176 12.7576C21.5176 12.7758 21.8995 13.0214 21.8995 13.0214C22.0181 12.1392 21.4448 12.0572 21.081 12.0028C20.7172 11.9482 20.2171 11.9117 20.2171 11.9117L19.553 12.0935L19.1619 11.7936C19.1619 11.7936 19.9532 11.8569 20.1623 11.8664C20.3717 11.8754 20.3172 11.7845 20.2171 11.5843C20.1169 11.3842 19.8896 11.3934 19.8896 11.3934H17.8499Z" fill="#003D6E"/>
</svg>
