<svg width="436" height="59" viewBox="0 0 436 59" fill="none" xmlns="http://www.w3.org/2000/svg">
<path fill-rule="evenodd" clip-rule="evenodd" d="M69.25 34.3475C69.25 42.2334 76.8 48.4913 88.65 48.4913H104.6C107.4 48.4913 108.7 47.372 109.75 45.5405L111.4 42.6405H104.4C107.25 40.3001 108.75 37.451 108.75 34.0422C108.75 26.3598 100.75 20.2036 89 20.2036C77.2 20.2036 69.25 26.3598 69.25 34.3475ZM100.9 34.3475C100.9 38.8247 95.4 42.0808 88.95 42.0808C82.5 42.0808 77 38.8247 77 34.3475C77 29.8703 82.5 26.6141 88.95 26.6141C95.45 26.6141 100.9 29.8703 100.9 34.3475Z" fill="#323232"/>
<path fill-rule="evenodd" clip-rule="evenodd" d="M121.8 43.709H140.45L143.1 48.4914H151L138.05 25.6984C137.05 23.8668 135.6 22.4932 132.65 22.4932H129.75C126.85 22.4932 125.35 23.9177 124.35 25.6984L111.4 48.4914H119.15L121.8 43.709ZM137.3 38.0107H124.95L130.65 27.6318C130.8 27.3774 130.9 27.3265 131.1 27.3265C131.3 27.3265 131.4 27.3774 131.55 27.6318L137.3 38.0107Z" fill="#323232"/>
<path d="M187.9 22.4932V48.4914H181L160.7 31.244V48.4914H153.8V22.4932H158.15C160.35 22.4932 161.5 23.1037 162.75 24.1721L181.05 39.6897V22.4932H187.9V22.4932Z" fill="#323232"/>
<path d="M212.5 28.344V48.4914H205.6V28.344H191.4V22.4932H226.65V28.344H212.5Z" fill="#323232"/>
<path fill-rule="evenodd" clip-rule="evenodd" d="M228.35 48.4914L231 43.709H249.7L252.3 48.4914H260.2L247.25 25.6984C246.25 23.8668 244.8 22.4932 241.85 22.4932H238.95C236.05 22.4932 234.55 23.9177 233.55 25.6984L220.6 48.4914H228.35ZM246.55 38.0107H234.2L239.9 27.6318C240.05 27.3774 240.15 27.3265 240.35 27.3265C240.55 27.3265 240.65 27.3774 240.8 27.6318L246.55 38.0107Z" fill="#323232"/>
<path d="M262.65 46.609L262 46.4055L263.75 40.7582C268.75 42.3862 274.05 43.0476 278.85 43.0476C286.7 43.0476 288.65 42.1318 288.65 41.1143C288.65 40.7073 288.4 40.402 287.75 40.1985C286.95 39.9441 284.8 39.4862 278.35 38.4178C271.25 37.2476 268 36.6371 265.65 35.5178C263.3 34.3985 261.85 32.6178 261.85 30.0231C261.85 28.0389 262.8 26.4617 264.35 25.1897C267.1 23.0529 271.75 22.188 276.8 22.188C283.35 22.188 288.85 22.7476 294.95 24.274L295.5 24.4266L294.05 29.9213C287.25 28.4459 283.45 28.0389 278.25 27.9371C274.6 27.8862 272.1 28.1915 270.75 28.5985C270 28.8529 269.7 29.209 269.7 29.6161C269.7 30.0231 269.95 30.3283 270.7 30.5827C271.5 30.8371 272.85 31.1933 279.85 32.3125C287.4 33.5845 289.9 34.0933 292 34.9073C294.85 36.0266 296.55 38.0617 296.55 40.6055C296.55 43.8108 294.1 46.202 289.85 47.5248C287.25 48.3389 283.7 48.7968 279.75 48.7968C273.5 48.8476 266.9 48.0336 262.65 46.609Z" fill="#323232"/>
<path d="M22.4859 59H82.9973L34.5078 10.301C28.0464 3.83997 19.2831 0 10.1457 0H0L0.755807 1.98292L4.11523 10.7973L22.4859 59Z" fill="url(#paint0_linear_10470_9706)"/>
<path d="M4.11504 10.7973C10.7402 22.1107 28.1252 23.3048 30.0167 40.8968C30.0944 41.6206 30.6492 42.2006 31.3686 42.3132C41.3872 43.8786 51.1457 48.0037 59.6243 54.8009L59.6319 54.807C59.6875 54.8518 59.7459 54.8732 59.8208 54.8732C59.8956 54.8732 59.9706 54.8459 60.029 54.7902C60.1498 54.6753 60.1546 54.4841 60.0397 54.3632C54.1683 48.1928 46.9941 43.2621 38.9412 40.0201L36.4903 39.0336C35.2298 38.5262 34.3549 37.2757 34.3925 35.8373C34.5301 30.5811 46.9601 31.6502 48.2202 29.1232L48.437 28.6885C45.8775 26.5011 42.8364 24.8563 39.4871 23.9364C39.4573 24.0629 39.3759 24.676 40.0576 25.7857C40.7987 26.9924 39.2465 28.9114 36.9873 26.8411L36.7973 26.6671C20.0023 11.2774 7.40953 19.2578 0.755615 1.98291L4.11504 10.7973Z" fill="white"/>
<path d="M44.5034 28.4029C44.5034 28.4029 41.7492 28.5399 40.0575 25.7856C40.5607 26.6051 40.006 27.7536 38.8909 27.757V31.9504C40.7017 31.4243 42.7674 31.1021 44.5034 30.7372V28.4029Z" fill="url(#paint1_linear_10470_9706)"/>
<path d="M33.4482 42.6759C42.7339 44.4634 51.7339 48.4749 59.6243 54.801C42.0338 39.7721 34.0189 42.4896 33.4482 42.6759Z" fill="url(#paint2_linear_10470_9706)"/>
<path d="M7.65201 11.584C4.91854 9.64037 2.607 6.78965 0.755615 1.98291L4.11504 10.7973C10.7395 22.1094 28.1216 23.3046 30.0161 40.8915C28.104 18.4451 18.2444 21.7999 7.65201 11.584Z" fill="url(#paint3_linear_10470_9706)"/>
<path d="M320.92 38.14V35.66H328.68V40.94C328.68 45.86 325.28 48.9 320.24 48.9C315.16 48.9 311.6 45.66 311.6 40.5V30.22C311.6 25.06 315.04 21.82 320.24 21.82C325.28 21.82 328.68 24.7 328.68 29.38V29.98H325.76V29.3C325.76 26.58 323.8 24.58 320.24 24.58C316.68 24.58 314.64 26.94 314.64 30.14V40.58C314.64 43.78 316.68 46.14 320.24 46.14C323.84 46.14 325.84 43.98 325.84 41.02V38.14H320.92ZM354.731 48.5H351.411L346.851 38.1C346.371 38.14 346.131 38.14 345.771 38.14H340.891V48.5H337.851V22.22H345.931C351.051 22.22 354.771 25.3 354.771 30.06C354.771 33.58 352.851 36.22 349.891 37.38L354.731 48.5ZM345.691 24.9H340.891V35.5H345.691C349.371 35.5 351.651 33.34 351.651 30.1C351.651 26.94 349.371 24.9 345.691 24.9ZM380.177 30.22V40.5C380.177 45.66 376.657 48.9 371.537 48.9C366.417 48.9 362.897 45.66 362.897 40.5V30.22C362.897 25.06 366.257 21.82 371.537 21.82C376.657 21.82 380.177 25.06 380.177 30.22ZM365.937 30.14V40.58C365.937 43.78 367.977 46.14 371.537 46.14C375.097 46.14 377.097 43.78 377.097 40.58V30.14C377.097 26.94 375.097 24.58 371.537 24.58C367.977 24.58 365.937 26.94 365.937 30.14ZM403.258 22.22H406.298V40.5C406.298 45.66 402.858 48.9 397.818 48.9C392.818 48.9 389.378 45.66 389.378 40.5V22.22H392.418V40.58C392.418 43.78 394.378 46.14 397.818 46.14C401.298 46.14 403.258 43.78 403.258 40.58V22.22ZM416.242 48.5V22.22H424.282C429.442 22.22 433.162 25.5 433.162 30.58C433.162 35.74 429.442 39.1 424.282 39.1H419.282V48.5H416.242ZM424.082 24.9H419.282V36.42H424.082C427.762 36.42 430.042 34.1 430.042 30.62C430.042 27.14 427.762 24.9 424.082 24.9Z" fill="#323232"/>
<defs>
<linearGradient id="paint0_linear_10470_9706" x1="52.6454" y1="58.8592" x2="12.2738" y2="-0.102018" gradientUnits="userSpaceOnUse">
<stop stop-color="#BE0000"/>
<stop offset="0.3898" stop-color="#DE0000"/>
<stop offset="0.768" stop-color="#F60000"/>
<stop offset="1" stop-color="#FF0000"/>
</linearGradient>
<linearGradient id="paint1_linear_10470_9706" x1="41.4411" y1="32.1735" x2="41.9852" y2="25.9543" gradientUnits="userSpaceOnUse">
<stop offset="0.65" stop-color="white" stop-opacity="0"/>
<stop offset="0.7285" stop-color="#E0E0E0" stop-opacity="0.2617"/>
<stop offset="0.8148" stop-color="#C5C5C5" stop-opacity="0.5493"/>
<stop offset="0.8914" stop-color="#B5B5B5" stop-opacity="0.8047"/>
<stop offset="0.95" stop-color="#AFAFAF"/>
</linearGradient>
<linearGradient id="paint2_linear_10470_9706" x1="33.4483" y1="48.585" x2="59.6244" y2="48.585" gradientUnits="userSpaceOnUse">
<stop stop-color="white" stop-opacity="0"/>
<stop offset="0.0839" stop-color="#F1F1F1" stop-opacity="0.0932"/>
<stop offset="0.2921" stop-color="#D4D4D4" stop-opacity="0.3246"/>
<stop offset="0.4993" stop-color="#C0C0C0" stop-opacity="0.5548"/>
<stop offset="0.7032" stop-color="#B3B3B3" stop-opacity="0.7814"/>
<stop offset="0.9" stop-color="#AFAFAF"/>
</linearGradient>
<linearGradient id="paint3_linear_10470_9706" x1="0.755657" y1="21.4372" x2="30.0161" y2="21.4372" gradientUnits="userSpaceOnUse">
<stop offset="0.25" stop-color="white" stop-opacity="0"/>
<stop offset="0.4615" stop-color="#EDEDED" stop-opacity="0.282"/>
<stop offset="0.886" stop-color="#BDBDBD" stop-opacity="0.848"/>
<stop offset="1" stop-color="#AFAFAF"/>
</linearGradient>
</defs>
</svg>
