<svg width="48" height="48" viewBox="0 0 48 48" fill="none" xmlns="http://www.w3.org/2000/svg">
<path d="M27.2695 7.91982C26.7195 7.91982 26.2695 7.46982 26.2695 6.91982V1.81982C26.2695 1.26982 26.7195 0.819824 27.2695 0.819824C27.8195 0.819824 28.2695 1.26982 28.2695 1.81982V6.91982C28.2695 7.46982 27.8195 7.91982 27.2695 7.91982Z" fill="#DF0000"/>
<path d="M23.6504 6.67982C23.1004 6.67982 22.6504 6.22982 22.6504 5.67982V1.81982C22.6504 1.26982 23.1004 0.819824 23.6504 0.819824C24.2004 0.819824 24.6504 1.26982 24.6504 1.81982V5.67982C24.6504 6.22982 24.2004 6.67982 23.6504 6.67982Z" fill="#DF0000"/>
<path d="M22.8907 34.6598C19.2107 34.6598 16.2207 31.6698 16.2207 27.9898C16.2207 24.3098 19.2107 21.3198 22.8907 21.3198C26.5707 21.3198 29.5607 24.3098 29.5607 27.9898C29.5607 31.6698 26.5707 34.6598 22.8907 34.6598ZM22.8907 23.3198C20.3107 23.3198 18.2207 25.4098 18.2207 27.9898C18.2207 30.5698 20.3107 32.6598 22.8907 32.6598C25.4707 32.6598 27.5607 30.5698 27.5607 27.9898C27.5607 25.4098 25.4607 23.3198 22.8907 23.3198Z" fill="#323232"/>
<path d="M34.0806 47.1801C33.6306 47.1801 33.2206 46.8801 33.1106 46.4201L30.2906 35.0001C30.1606 34.4601 30.4806 33.9201 31.0206 33.7901C31.5606 33.6601 32.1006 33.9901 32.2306 34.5201L35.0506 45.9401C35.1806 46.4801 34.8606 47.0201 34.3206 47.1501C34.2406 47.1701 34.1606 47.1801 34.0806 47.1801Z" fill="#323232"/>
<path d="M30.38 18.81C30.29 18.81 30.21 18.8 30.12 18.78L16.02 15C15.76 14.93 15.54 14.76 15.41 14.52C15.28 14.28 15.25 14.01 15.32 13.75L17.1 7.70996C17.25 7.18996 17.8 6.88996 18.32 7.02996L32.42 10.81C32.68 10.88 32.9 11.05 33.03 11.29C33.16 11.53 33.19 11.8 33.12 12.06L31.34 18.1C31.21 18.53 30.81 18.82 30.38 18.82V18.81ZM17.53 13.33L29.7 16.59L30.91 12.47L18.74 9.20996L17.53 13.33Z" fill="#323232"/>
<path d="M14.0595 42.85C12.0295 42.85 9.61948 42.26 6.84948 40.61C6.37948 40.33 6.21948 39.71 6.49948 39.24C6.77948 38.77 7.39948 38.61 7.86948 38.89C13.4095 42.19 17.1395 40.72 19.2895 38.9C19.7095 38.54 20.3395 38.6 20.6995 39.02C21.0595 39.44 20.9995 40.07 20.5795 40.43C19.2795 41.53 17.0795 42.85 14.0495 42.85H14.0595Z" fill="#323232"/>
<path d="M24.1201 46.3999C24.1201 46.3999 22.1601 37.6799 22.0601 37.2599C21.9901 36.9899 22.0501 36.6999 22.2101 36.4699C22.3701 36.2399 22.6201 36.0799 22.9001 36.0399C23.0201 36.0199 35.1601 34.2399 38.6801 27.5499C40.1101 24.8299 39.9101 21.5699 38.0701 17.8799C37.8201 17.3899 38.0301 16.7899 38.5201 16.5399C39.0101 16.2899 39.6201 16.4999 39.8601 16.9899C42.0001 21.2899 42.2001 25.1599 40.4501 28.4899C37.0801 34.8999 27.4901 37.2299 24.2501 37.8499C24.7901 40.2599 26.0801 45.9699 26.0801 45.9699L24.1301 46.4099L24.1201 46.3999Z" fill="#323232"/>
</svg>
