<svg width="48" height="48" viewBox="0 0 48 48" fill="none" xmlns="http://www.w3.org/2000/svg">
<path d="M37.981 18.6202C37.721 18.6202 37.471 18.5202 37.271 18.3302C36.881 17.9402 36.881 17.3102 37.271 16.9202L40.051 14.1402C40.441 13.7502 41.081 13.7502 41.461 14.1402C41.851 14.5302 41.851 15.1602 41.461 15.5502L38.681 18.3302C38.481 18.5302 38.231 18.6202 37.971 18.6202H37.981Z" fill="#DF0000"/>
<path d="M44.4199 27.3501H40.4199C39.8699 27.3501 39.4199 26.9001 39.4199 26.3501C39.4199 25.8001 39.8699 25.3501 40.4199 25.3501H44.4199C44.9699 25.3501 45.4199 25.8001 45.4199 26.3501C45.4199 26.9001 44.9699 27.3501 44.4199 27.3501Z" fill="#DF0000"/>
<path d="M40.4003 38.6603C40.1403 38.6603 39.8903 38.5603 39.6903 38.3703L37.0503 35.7303C36.6603 35.3403 36.6603 34.7103 37.0503 34.3203C37.4403 33.9303 38.0703 33.9303 38.4603 34.3203L41.1003 36.9603C41.4903 37.3503 41.4903 37.9803 41.1003 38.3703C40.9103 38.5603 40.6503 38.6603 40.3903 38.6603H40.4003Z" fill="#DF0000"/>
<path d="M7.45117 31.8003C7.28117 32.0103 3.42117 37.1203 5.67117 45.2703C5.79117 45.7103 6.19117 46.0003 6.63117 46.0003C6.72117 46.0003 6.81117 45.9903 6.90117 45.9603C7.43117 45.8103 7.75117 45.2603 7.60117 44.7303C5.63117 37.5903 8.89117 33.2003 9.04117 33.0203C9.37117 32.5803 9.29117 31.9603 8.86117 31.6203C8.42117 31.2803 7.80117 31.3603 7.46117 31.8003H7.45117Z" fill="#323232"/>
<path d="M21.3098 30.7103L24.6298 33.6103L25.6698 33.0703C27.2298 32.2503 28.0198 31.8403 31.0798 33.0103C31.5898 33.2103 32.1698 32.9503 32.3698 32.4303C32.5698 31.9103 32.3098 31.3403 31.7898 31.1403C28.1898 29.7603 26.7698 30.2403 24.9198 31.2003L22.6298 29.2003C17.2798 24.5103 16.6698 23.9703 13.8598 22.9203C14.8398 16.5803 14.3098 6.19029 14.2898 5.73029C14.2598 5.18029 13.7998 4.75029 13.2398 4.78029C12.6898 4.81029 12.2698 5.28029 12.2898 5.83029C12.2898 5.94029 12.8798 17.4003 11.7498 23.3803L11.5898 24.2103L12.3898 24.5003C15.5198 25.6403 15.6098 25.7003 21.3098 30.7003V30.7103Z" fill="#323232"/>
<path d="M27 39.9902C26.45 39.9902 26 40.4402 26 40.9902V44.6102C26 45.1602 26.45 45.6102 27 45.6102C27.55 45.6102 28 45.1602 28 44.6102V40.9902C28 40.4402 27.55 39.9902 27 39.9902Z" fill="#323232"/>
<path d="M33.6506 34.4001L30.5406 32.9001C30.0406 32.6601 29.4506 32.8701 29.2106 33.3701C28.9706 33.8701 29.1806 34.4701 29.6806 34.7101L32.7906 36.2101C32.9306 36.2801 33.0806 36.3101 33.2206 36.3101C33.5906 36.3101 33.9506 36.1001 34.1206 35.7501C34.3606 35.2501 34.1506 34.6501 33.6506 34.4101V34.4001Z" fill="#323232"/>
<path d="M32.3807 36.1802L29.8807 34.9602C29.3907 34.7202 28.7807 34.9202 28.5407 35.4202C28.3607 35.7902 28.4307 36.2202 28.6807 36.5102C28.2107 36.3602 27.7007 36.5602 27.4807 37.0102C27.3207 37.3402 27.3707 37.7002 27.5607 37.9802C25.7107 37.3602 24.8207 36.5502 24.8207 36.5402L24.6707 36.3902L24.4707 36.3102C24.3507 36.2702 12.8107 31.9102 7.98068 27.6002C3.68068 22.2702 4.21068 7.77017 5.59068 3.29017C5.75068 2.76017 5.46068 2.20017 4.93068 2.04017C4.40068 1.88017 3.84068 2.18017 3.68068 2.70017C2.12068 7.77017 1.56068 22.9302 6.47068 28.9202L6.57068 29.0302C11.3707 33.3602 22.0207 37.5102 23.5807 38.1102C24.0807 38.5402 25.6307 39.6802 28.3907 40.2802C28.4607 40.3002 28.5307 40.3002 28.6007 40.3002C29.0607 40.3002 29.4807 39.9802 29.5807 39.5102C29.6107 39.3802 29.6007 39.2602 29.5807 39.1402L29.8207 39.2602C29.9607 39.3302 30.1107 39.3602 30.2607 39.3602C30.6307 39.3602 30.9907 39.1502 31.1607 38.8002C31.3307 38.4502 31.2707 38.0602 31.0507 37.7702L31.4807 37.9802C31.6207 38.0502 31.7707 38.0802 31.9207 38.0802C32.2907 38.0802 32.6507 37.8702 32.8207 37.5202C33.0607 37.0202 32.8607 36.4302 32.3607 36.1802H32.3807Z" fill="#323232"/>
<path d="M35.0712 22.1702C32.8812 17.1702 28.4912 14.7802 26.6112 13.9602C26.8712 13.0302 26.9412 11.9802 26.8012 10.8002C26.2712 6.26018 20.6412 2.34018 20.4012 2.18018C19.9512 1.87018 19.3212 1.98018 19.0112 2.44018C18.7012 2.90018 18.8112 3.52018 19.2712 3.83018C19.3212 3.87018 24.3912 7.39018 24.8112 11.0302C25.1812 14.2002 23.7712 15.9302 20.2412 16.6502C19.7012 16.7602 19.3512 17.2902 19.4612 17.8302C19.5612 18.3002 19.9712 18.6302 20.4412 18.6302C20.5112 18.6302 20.5712 18.6302 20.6412 18.6102C23.0312 18.1202 24.7312 17.1702 25.7412 15.7702C27.3112 16.4602 31.3012 18.5902 33.2312 22.9802C35.2312 27.5402 32.9912 32.2702 32.9712 32.3102C32.7312 32.8102 32.9312 33.4002 33.4312 33.6502C33.5712 33.7202 33.7212 33.7502 33.8712 33.7502C34.2412 33.7502 34.6012 33.5402 34.7712 33.1902C34.8812 32.9602 37.4412 27.6002 35.0712 22.1702Z" fill="#323232"/>
</svg>
