<svg width="24" height="24" viewBox="0 0 24 24" fill="none" xmlns="http://www.w3.org/2000/svg">
<g clip-path="url(#clip0_16335_10057)">
<path d="M20.4851 20.4853C25.1714 15.799 25.1714 8.20101 20.4851 3.51472C15.7988 -1.17157 8.20081 -1.17157 3.51452 3.51472C-1.17177 8.20101 -1.17177 15.799 3.51452 20.4853C8.20081 25.1716 15.7988 25.1716 20.4851 20.4853Z" fill="white"/>
<mask id="mask0_16335_10057" style="mask-type:luminance" maskUnits="userSpaceOnUse" x="-1" y="0" width="25" height="24">
<path d="M20.4851 20.4853C25.1714 15.799 25.1714 8.20101 20.4851 3.51472C15.7988 -1.17157 8.20081 -1.17157 3.51452 3.51472C-1.17177 8.20101 -1.17177 15.799 3.51452 20.4853C8.20081 25.1716 15.7988 25.1716 20.4851 20.4853Z" fill="white"/>
</mask>
<g mask="url(#mask0_16335_10057)">
<path d="M36 0H0V24H36V0Z" fill="white"/>
<path d="M36 12H0V24H36V12Z" fill="#FF0000"/>
<path d="M11.9832 0H0V12H11.9832V0Z" fill="#003399"/>
<path fill-rule="evenodd" clip-rule="evenodd" d="M6.98312 4.17432L7.66788 6.29287L9.89404 6.28868L8.09131 7.5939L8.78166 9.70826L6.98312 8.39744L5.18459 9.70826L5.87494 7.5939L4.07361 6.28868L6.29837 6.29287L6.98312 4.17432Z" fill="white"/>
</g>
</g>
<rect x="0.25" y="0.25" width="23.5" height="23.5" rx="11.75" stroke="#E5E3E1" stroke-width="0.5"/>
<defs>
<clipPath id="clip0_16335_10057">
<rect width="24" height="24" rx="12" fill="white"/>
</clipPath>
</defs>
</svg>
