<svg width="24" height="24" viewBox="0 0 24 24" fill="none" xmlns="http://www.w3.org/2000/svg">
<path fill-rule="evenodd" clip-rule="evenodd" d="M21.3538 13.6271C21.9173 14.0379 22.067 14.7864 21.7157 15.4009L19.872 18.5038C19.5342 19.095 18.8198 19.343 18.1836 19.1024L16.3313 18.3784C16.0535 18.5587 15.7691 18.72 15.4778 18.8613L15.208 20.7105C15.1358 21.4121 14.5386 21.9098 13.8515 21.9098H10.1485C9.48298 21.9098 8.92723 21.4467 8.78516 20.7484L8.5106 18.8621C8.2172 18.7206 7.93337 18.5599 7.65538 18.3788L5.75411 19.1205C5.14163 19.319 4.45067 19.0887 4.12422 18.5172L2.2559 15.3713C1.93958 14.7904 2.08483 14.0541 2.62047 13.6376L4.16354 12.4659C4.15255 12.311 4.14699 12.1547 4.14699 11.9998C4.14699 11.8469 4.15446 11.6902 4.16871 11.5289L2.64623 10.3726C2.08273 9.96176 1.93303 9.21327 2.28432 8.59878L4.12803 5.49585C4.46584 4.9047 5.18017 4.65667 5.8164 4.89728L7.66876 5.62124C7.94648 5.44103 8.23084 5.27972 8.52204 5.13846L8.79788 3.24358C8.90141 2.57258 9.47036 2.08984 10.1485 2.08984H13.8515C14.5255 2.08984 15.1095 2.56791 15.2149 3.25127L15.4894 5.13756C15.7828 5.27914 16.0666 5.4398 16.3446 5.62087L18.2459 4.87917C18.8584 4.68068 19.5493 4.911 19.8758 5.48253L21.7441 8.6284C22.0604 9.20926 21.9152 9.94555 21.3795 10.3621L19.8368 11.5336C19.8476 11.6869 19.853 11.8423 19.853 11.9998C19.853 12.1531 19.848 12.3065 19.8381 12.4621L21.3538 13.6271ZM17.9183 13.282L17.982 12.7659C18.0157 12.4929 18.033 12.2428 18.033 11.9998C18.033 11.7448 18.0138 11.5017 17.9757 11.2701L17.8866 10.7292L18.3233 10.3976L19.9467 9.16494L18.5012 6.73176L16.0863 7.67556L15.682 7.37609C15.244 7.05161 14.803 6.80252 14.3259 6.61318L13.8368 6.41911L13.761 5.89842L13.4716 3.90984H10.54L10.1748 6.41911L9.68573 6.61318C9.21887 6.79844 8.76603 7.05526 8.32688 7.37806L7.92324 7.67477L7.45665 7.49241L5.51056 6.73176L4.06486 9.16484L6.12494 10.7292L6.03591 11.2701C5.99094 11.5434 5.96699 11.7879 5.96699 11.9998C5.96699 12.248 5.98689 12.502 6.02434 12.7296L6.11337 13.2705L5.67675 13.6021L4.05335 14.8347L5.49887 17.2679L7.91369 16.3241L8.31799 16.6236C8.75605 16.9481 9.19702 17.1972 9.67416 17.3865L10.1632 17.5806L10.239 18.1013L10.5271 20.0898H13.46L13.8252 17.5806L14.3143 17.3865C14.7811 17.2012 15.234 16.9444 15.6731 16.6216L16.0768 16.3249L16.5434 16.5073L18.4895 17.2679L19.9364 14.8328L17.9183 13.282ZM12 15.6098C9.97562 15.6098 8.3128 13.9933 8.3128 11.9998C8.3128 10.0064 9.97562 8.38984 12 8.38984C14.0244 8.38984 15.6872 10.0064 15.6872 11.9998C15.6872 13.9933 14.0244 15.6098 12 15.6098ZM12 13.7898C13.0305 13.7898 13.8672 12.9764 13.8672 11.9998C13.8672 11.0233 13.0305 10.2098 12 10.2098C10.9695 10.2098 10.1328 11.0233 10.1328 11.9998C10.1328 12.9764 10.9695 13.7898 12 13.7898Z" fill="#323232"/>
</svg>
