<svg width="48" height="48" viewBox="0 0 48 48" fill="none" xmlns="http://www.w3.org/2000/svg">
<path d="M14.4383 15.3295V17.8295H13.2383V11.5195H17.0783V12.5895H14.4383V14.2495H16.7983V15.3195H14.4383V15.3295Z" fill="#DF0000"/>
<path d="M18.8484 16.7495H21.3184V17.8295H17.6484V11.5195H18.8484V16.7495Z" fill="#DF0000"/>
<path d="M22.3073 11.5195L23.4373 14.1195L24.5673 11.5195H25.7773L23.9973 15.2695V17.8195H22.8073V15.2895L21.0273 11.5195H22.2973H22.3073Z" fill="#DF0000"/>
<path d="M27.2781 15.1495V16.7495H30.0081V17.8295H26.0781V11.5195H29.9181V12.5895H27.2781V14.0895H29.6381V15.1495H27.2781Z" fill="#DF0000"/>
<path d="M33.7584 17.8295L32.8484 15.5195H31.8484V17.8295H30.6484V11.5195H32.8684C34.1184 11.5195 35.0284 12.2995 35.0284 13.4795C35.0284 14.2995 34.6484 14.9095 34.0284 15.2395L35.0684 17.8295H33.7584ZM31.8484 12.5695V14.4695H32.7384C33.3984 14.4695 33.8084 14.0995 33.8084 13.5095C33.8084 12.9195 33.4084 12.5695 32.7384 12.5695H31.8484Z" fill="#DF0000"/>
<path d="M13.2188 18.9189H15.2787C16.3187 18.9189 17.0487 19.5089 17.0487 20.4089C17.0487 21.0189 16.7587 21.4389 16.2287 21.6589C16.8387 21.8789 17.1888 22.3389 17.1888 23.0089C17.1888 23.9689 16.4588 24.5789 15.4288 24.5789H13.2287V18.9289L13.2188 18.9189ZM14.2787 19.7889V21.2489H15.1388C15.6388 21.2489 15.9487 20.9789 15.9487 20.4989C15.9487 20.0389 15.6287 19.7889 15.1287 19.7889H14.2787ZM14.2787 22.1389V23.7089H15.2387C15.7687 23.7089 16.0787 23.4089 16.0787 22.9289C16.0787 22.4489 15.7587 22.1489 15.2487 22.1489H14.2887L14.2787 22.1389Z" fill="#DF0000"/>
<path d="M21.5486 22.7789C21.5486 23.9389 20.7386 24.6589 19.5586 24.6589C18.3786 24.6589 17.5586 23.9389 17.5586 22.7789V20.7189C17.5586 19.5589 18.2686 18.8389 19.5586 18.8389C20.7386 18.8389 21.5486 19.5589 21.5486 20.7189V22.7789ZM18.6386 22.7589C18.6386 23.3289 18.9786 23.6989 19.5586 23.6989C20.1386 23.6989 20.4686 23.3289 20.4686 22.7589V20.7389C20.4686 20.1689 20.1286 19.7989 19.5586 19.7989C18.9886 19.7989 18.6386 20.1689 18.6386 20.7389V22.7589Z" fill="#DF0000"/>
<path d="M26.0888 24.5787H25.2087L23.1988 21.0087V24.5787H22.2188V18.9287H23.1388L25.0988 22.4187V18.9287H26.0788V24.5787H26.0888Z" fill="#DF0000"/>
<path d="M30.7589 18.9189V22.7789C30.7589 23.9389 29.9789 24.6589 28.8189 24.6589C27.6589 24.6589 26.8789 23.9389 26.8789 22.7789V18.9189H27.9489V22.7589C27.9489 23.3289 28.2689 23.6989 28.8189 23.6989C29.3689 23.6989 29.6889 23.3289 29.6889 22.7589V18.9189H30.7589Z" fill="#DF0000"/>
<path d="M33.9983 20.6191V20.4591C33.9983 20.0191 33.6783 19.7191 33.1783 19.7191C32.6783 19.7191 32.4083 19.9891 32.4083 20.3491C32.4083 20.5691 32.5283 20.8391 32.9383 20.9891L33.7383 21.2791C34.4483 21.5391 35.1583 21.8891 35.1583 22.9291C35.1583 23.9691 34.3883 24.6591 33.2183 24.6591C32.0483 24.6591 31.2383 24.0191 31.2383 22.9891V22.7991H32.2983V23.0291C32.2983 23.4891 32.6383 23.7591 33.1983 23.7591C33.7883 23.7591 34.1083 23.4591 34.1083 23.0491C34.1083 22.6991 33.8983 22.4591 33.4883 22.3091L32.6283 21.9791C31.8383 21.6891 31.3683 21.2191 31.3683 20.4191C31.3683 19.5491 32.0483 18.8291 33.1783 18.8291C34.3083 18.8291 35.0483 19.4691 35.0483 20.4991V20.6191H33.9983Z" fill="#DF0000"/>
<path d="M18.2698 44.7405L22.4498 36.5405C22.5298 36.3905 22.4298 36.2205 22.2598 36.2005C17.9698 35.7905 14.1098 33.8805 11.2098 31.0005C11.0998 30.8905 10.9098 30.9105 10.8298 31.0605L7.07984 38.5205C6.99984 38.6805 7.11984 38.8805 7.30984 38.8605L13.9898 38.4405C14.0798 38.4405 14.1598 38.4805 14.2098 38.5605L17.8398 44.7605C17.9398 44.9205 18.1698 44.9105 18.2598 44.7505" fill="#8DE2E0"/>
<path d="M30.1395 44.7496L33.7695 38.5496C33.8195 38.4696 33.8995 38.4296 33.9895 38.4296L40.6695 38.8496C40.8495 38.8596 40.9795 38.6696 40.8995 38.5096L37.1595 31.0496C37.0895 30.9096 36.8995 30.8796 36.7795 30.9896C33.8795 33.8696 30.0195 35.7796 25.7295 36.1896C25.5595 36.2096 25.4695 36.3796 25.5395 36.5296L29.7195 44.7296C29.8095 44.8996 30.0395 44.8996 30.1395 44.7396" fill="#8DE2E0"/>
<path d="M18.0807 46.12C17.7307 46.12 17.4007 45.93 17.2207 45.63L13.6007 39.46L6.98073 39.88C6.62073 39.9 6.28073 39.73 6.08073 39.43C5.88073 39.13 5.86073 38.75 6.02073 38.43L9.65073 31.21C9.90073 30.72 10.5007 30.52 10.9907 30.77C11.4807 31.02 11.6807 31.62 11.4307 32.11L8.58073 37.77L14.0807 37.42C14.4607 37.39 14.8107 37.59 15.0107 37.91L18.0107 43.03L21.2507 36.67C21.5007 36.18 22.1007 35.98 22.6007 36.23C23.0907 36.48 23.2907 37.08 23.0407 37.58L18.9707 45.56C18.8007 45.89 18.4707 46.09 18.1107 46.1C18.1107 46.1 18.0907 46.1 18.0807 46.1V46.12Z" fill="#323232"/>
<path d="M29.9213 46.1195C29.9213 46.1195 29.9013 46.1195 29.8913 46.1195C29.5213 46.1095 29.1913 45.8995 29.0313 45.5795L24.9613 37.5995C24.7113 37.1095 24.9013 36.5095 25.4013 36.2495C25.8913 35.9995 26.4913 36.1895 26.7513 36.6895L29.9913 43.0495L32.9913 37.9295C33.1813 37.5995 33.5413 37.4095 33.9213 37.4395L39.4213 37.7895L36.5813 32.1295C36.3313 31.6395 36.5313 31.0395 37.0213 30.7895C37.5113 30.5395 38.1113 30.7395 38.3613 31.2295L41.9913 38.4495C42.1513 38.7695 42.1313 39.1495 41.9313 39.4495C41.7313 39.7495 41.3913 39.9195 41.0313 39.8995L34.4113 39.4795L30.7913 45.6495C30.6113 45.9595 30.2813 46.1395 29.9313 46.1395L29.9213 46.1195Z" fill="#323232"/>
<path d="M23.9988 34.4399C15.0188 34.4399 7.71875 27.1399 7.71875 18.1599C7.71875 9.17988 15.0188 1.87988 23.9988 1.87988C32.9788 1.87988 40.2787 9.17988 40.2787 18.1599C40.2787 27.1399 32.9788 34.4399 23.9988 34.4399ZM23.9988 3.87988C16.1188 3.87988 9.71875 10.2899 9.71875 18.1599C9.71875 26.0299 16.1288 32.4399 23.9988 32.4399C31.8688 32.4399 38.2787 26.0299 38.2787 18.1599C38.2787 10.2899 31.8787 3.87988 23.9988 3.87988Z" fill="#323232"/>
</svg>
