<svg width="48" height="48" viewBox="0 0 48 48" fill="none" xmlns="http://www.w3.org/2000/svg">
<path d="M20.6995 20.1904L23.1095 24.9204C23.2795 25.2504 23.6195 25.4704 23.9995 25.4704C24.3795 25.4704 24.7195 25.2604 24.8895 24.9204L27.2995 20.1904H20.6895H20.6995Z" fill="#8DE2E0"/>
<path d="M43.229 20.5298C42.039 20.1198 40.739 20.7398 40.319 21.9098L38.469 26.8398C38.369 26.8298 38.269 26.8098 38.169 26.8098C37.559 26.8098 36.959 27.0298 36.519 27.4198L35.299 28.4798C33.409 30.1298 32.539 30.5998 31.779 31.0198C31.169 31.3498 30.599 31.6598 29.759 32.3998C27.729 34.1698 27.379 37.8098 27.349 39.8398H26.959C26.409 39.8398 25.959 40.2898 25.959 40.8398V44.3098C25.959 44.8598 26.409 45.3098 26.959 45.3098H36.079C36.629 45.3098 37.079 44.8598 37.079 44.3098V40.8398C37.079 40.2898 36.629 39.8398 36.079 39.8398H35.689C35.859 38.8798 36.259 37.8098 37.189 36.9998L40.999 33.6398C41.559 33.1398 41.999 32.5598 42.299 31.9098C43.519 29.2798 44.679 23.3898 44.729 23.1398C44.949 22.0298 44.299 20.9098 43.229 20.5398V20.5298ZM35.069 43.2998H27.949V41.8298H35.069V43.2998ZM40.479 31.0698C40.299 31.4698 40.019 31.8298 39.669 32.1398L35.859 35.4998C34.659 36.5498 33.899 38.0698 33.659 39.8398H29.329C29.369 37.5998 29.819 34.9898 31.059 33.9098C31.739 33.3198 32.169 33.0798 32.719 32.7898C33.539 32.3498 34.549 31.7998 36.609 29.9998L37.829 28.9398C37.889 28.8798 38.029 28.8298 38.169 28.8298C38.169 28.8298 38.329 28.8298 38.389 28.8998C38.489 29.0098 38.419 29.3198 38.249 29.4698L35.599 31.9298C35.199 32.3098 35.169 32.9398 35.549 33.3398C35.929 33.7398 36.559 33.7698 36.959 33.3898L39.589 30.9498C40.349 30.2798 40.709 28.9898 40.179 27.9898L42.199 22.6098C42.249 22.4598 42.429 22.3798 42.569 22.4298C42.709 22.4798 42.789 22.6198 42.759 22.7598C42.359 24.7898 41.379 29.1398 40.479 31.0698Z" fill="#323232"/>
<path d="M21.0597 39.8299H20.6697C20.6397 37.7999 20.2797 34.1699 18.2597 32.3899C17.4097 31.6499 16.8397 31.3399 16.2397 31.0099C15.4697 30.5899 14.5997 30.1199 12.7197 28.4699L11.4997 27.4099C11.0597 27.0299 10.4597 26.7999 9.84974 26.7999C9.74974 26.7999 9.64974 26.8199 9.54974 26.8299L7.69974 21.9099C7.27974 20.7299 5.96974 20.1099 4.78974 20.5199C3.71974 20.8899 3.07974 22.0099 3.28974 23.1199C3.33974 23.3699 4.49974 29.2599 5.71974 31.8899C6.01974 32.5399 6.45974 33.1199 7.01974 33.6199L10.8397 36.9799C11.7597 37.7899 12.1697 38.8499 12.3297 39.8099H11.9397C11.3897 39.8099 10.9397 40.2599 10.9397 40.8099V44.2799C10.9397 44.8299 11.3897 45.2799 11.9397 45.2799H21.0597C21.6097 45.2799 22.0597 44.8299 22.0597 44.2799V40.8099C22.0597 40.2599 21.6097 39.8099 21.0597 39.8099V39.8299ZM12.1497 35.4899L8.33974 32.1299C7.98974 31.8199 7.70974 31.4599 7.52974 31.0599C6.62974 29.1299 5.63974 24.7799 5.24974 22.7499C5.21974 22.6099 5.29974 22.4699 5.43974 22.4199C5.58974 22.3599 5.75974 22.4499 5.81974 22.6099L7.82974 27.9699C7.29974 28.9799 7.64974 30.2599 8.39974 30.9099L11.0497 33.3699C11.4597 33.7399 12.0897 33.7199 12.4597 33.3199C12.8397 32.9199 12.8097 32.2799 12.4097 31.9099L9.72974 29.4299C9.57974 29.2999 9.51974 28.9899 9.60974 28.8799C9.66974 28.8199 9.78974 28.8099 9.82974 28.8099C9.97974 28.8099 10.1097 28.8699 10.1697 28.9199L11.3897 29.9799C13.4397 31.7699 14.4597 32.3299 15.2797 32.7699C15.8297 33.0699 16.2597 33.2999 16.9397 33.8899C18.1797 34.9699 18.6397 37.5799 18.6697 39.8199H14.3397C14.0997 38.0499 13.3397 36.5299 12.1497 35.4799V35.4899ZM20.0597 43.2999H12.9397V41.8299H20.0597V43.2999Z" fill="#323232"/>
<path d="M23.9594 17.5902H23.9994C26.3494 17.5902 28.2794 15.6902 28.2994 13.3302C28.3094 12.1802 27.8694 11.1002 27.0694 10.2802C26.2694 9.46023 25.1894 9.00023 24.0394 8.99023H23.9994C21.6494 8.99023 19.7194 10.8902 19.6994 13.2502C19.6894 14.4002 20.1294 15.4802 20.9294 16.3002C21.7294 17.1202 22.8094 17.5802 23.9594 17.5902ZM23.9994 10.9902H24.0194C24.6294 10.9902 25.2094 11.2402 25.6394 11.6802C26.0694 12.1202 26.3094 12.7002 26.2994 13.3102C26.2894 14.5702 25.2594 15.5902 23.9994 15.5902H23.9794C23.3594 15.5902 22.7894 15.3402 22.3594 14.9002C21.9294 14.4602 21.6994 13.8802 21.6994 13.2702C21.7094 12.0102 22.7394 10.9902 23.9994 10.9902Z" fill="#323232"/>
<path d="M16.1602 21.7202V27.5702C16.1602 28.1202 16.6102 28.5702 17.1602 28.5702C17.7102 28.5702 18.1602 28.1202 18.1602 27.5702V21.7202C18.1602 20.8802 18.8402 20.2002 19.6902 20.2002H28.3202C29.1602 20.2002 29.8502 20.8802 29.8502 21.7202V27.7002C29.8502 28.2502 30.3002 28.7002 30.8502 28.7002C31.4002 28.7002 31.8502 28.2502 31.8502 27.7002V21.7202C31.8502 19.7802 30.2702 18.2002 28.3202 18.2002H19.6902C17.7502 18.2002 16.1602 19.7802 16.1602 21.7202Z" fill="#323232"/>
<path d="M33.2504 11.2998H33.2904C35.6404 11.2998 37.5704 9.39983 37.5904 7.03983C37.6104 4.66983 35.7004 2.71983 33.3304 2.69983C30.9704 2.65983 29.0104 4.58983 28.9904 6.95983C28.9804 8.10983 29.4204 9.18983 30.2204 10.0098C31.0204 10.8298 32.1004 11.2898 33.2504 11.2998ZM33.2904 4.69983H33.3104C34.5804 4.70983 35.6004 5.74983 35.5904 7.01983C35.5804 8.27983 34.5504 9.29983 33.2904 9.29983H33.2704C32.6504 9.29983 32.0804 9.04983 31.6504 8.60983C31.2204 8.16983 30.9904 7.58983 30.9904 6.97983C31.0004 5.71983 32.0304 4.69983 33.2904 4.69983Z" fill="#323232"/>
<path d="M36.79 21.4802C37.34 21.4802 37.79 21.0302 37.79 20.4802V15.4302C37.79 13.4902 36.21 11.9102 34.27 11.9102H30.25C29.7 11.9102 29.25 12.3602 29.25 12.9102C29.25 13.4602 29.7 13.9102 30.25 13.9102H34.27C35.11 13.9102 35.79 14.5902 35.79 15.4302V20.4802C35.79 21.0302 36.24 21.4802 36.79 21.4802Z" fill="#323232"/>
<path d="M14.7103 11.3002H14.7503C15.9003 11.2902 16.9803 10.8302 17.7803 10.0102C18.5903 9.1902 19.0203 8.1102 19.0103 6.9602C18.9903 4.6002 17.0603 2.7002 14.7103 2.7002H14.6703C12.3003 2.7202 10.3903 4.6702 10.4103 7.0402C10.4303 9.4002 12.3603 11.3002 14.7103 11.3002ZM14.6903 4.7002H14.7103C15.9703 4.7002 17.0003 5.7202 17.0103 6.9802C17.0103 7.5902 16.7803 8.1702 16.3503 8.6102C15.9203 9.0502 15.3403 9.2902 14.7303 9.3002H14.7103C13.4503 9.3002 12.4203 8.2802 12.4103 7.0202C12.4003 5.7502 13.4203 4.7102 14.6903 4.7002Z" fill="#323232"/>
<path d="M11.209 21.4802C11.759 21.4802 12.209 21.0302 12.209 20.4802V15.4302C12.209 14.5902 12.889 13.9102 13.729 13.9102H17.749C18.299 13.9102 18.749 13.4602 18.749 12.9102C18.749 12.3602 18.299 11.9102 17.749 11.9102H13.729C11.789 11.9102 10.209 13.4902 10.209 15.4302V20.4802C10.209 21.0302 10.659 21.4802 11.209 21.4802Z" fill="#323232"/>
</svg>
