<svg width="24" height="24" viewBox="0 0 24 24" fill="none" xmlns="http://www.w3.org/2000/svg">
<g clip-path="url(#clip0_16335_6717)">
<path d="M20.4851 20.4853C25.1714 15.799 25.1714 8.20101 20.4851 3.51472C15.7988 -1.17157 8.20081 -1.17157 3.51452 3.51472C-1.17177 8.20101 -1.17177 15.799 3.51452 20.4853C8.20081 25.1716 15.7988 25.1716 20.4851 20.4853Z" fill="white"/>
<mask id="mask0_16335_6717" style="mask-type:luminance" maskUnits="userSpaceOnUse" x="-1" y="0" width="25" height="24">
<path d="M20.4851 20.4853C25.1714 15.799 25.1714 8.20101 20.4851 3.51472C15.7988 -1.17157 8.20081 -1.17157 3.51452 3.51472C-1.17177 8.20101 -1.17177 15.799 3.51452 20.4853C8.20081 25.1716 15.7988 25.1716 20.4851 20.4853Z" fill="white"/>
</mask>
<g mask="url(#mask0_16335_6717)">
<path d="M29.9979 0H-6.00208V24H29.9979V0Z" fill="white"/>
<path fill-rule="evenodd" clip-rule="evenodd" d="M-6.00208 7.99208H-5.81342V7.80342H-4.1169V7.99208H-3.92824V7.80342H-2.23172V7.99208H-2.04307V7.80342H-0.346549V7.99208H-0.157892V7.80342H1.53863V7.99208H1.72728V7.80342H3.4238V7.99208H3.61246V7.80342H5.30898V7.99208H5.49763V7.80342H7.19415V7.99208H7.38281V7.80342H9.07933V7.99208H9.26799V7.80342H10.9645V7.99208H11.1532V7.80342H12.8497V7.99208H13.0383V7.80342H14.7349V7.99208H14.9235V7.80342H16.62V7.99208H16.8087V7.80342H18.5052V7.99208H18.6939V7.80342H20.3904V7.99208H20.579V7.80342H22.2756V7.99208H22.4642V7.80342H24.1607V7.99208H24.3494V7.80342H26.0459V7.99208H26.2346V7.80342H27.9311V7.99208H28.1197V7.80342H29.8163V7.99208H30.0049V0H-6.00208V7.99208ZM28.4915 7.42611H28.6801V7.61477H28.4915V7.42611ZM28.1141 6.67288H29.8107V6.86154H28.1141V6.67288ZM29.2447 7.05019H29.8107V7.61616H28.8688V7.23885H28.3028V7.61616H28.1141V7.05019H29.0574V7.42751H29.6234V7.23885H29.2461V7.05019H29.2447ZM24.7211 7.42611H24.9098V7.61477H24.7211V7.42611ZM24.3438 6.67288H26.7935V6.86154H24.3438V6.67288ZM26.9836 6.67288H27.1723V7.42611H27.3609V6.67288H27.5496V7.42611H27.7382V6.67288H27.9269V7.61477H26.985V7.23745H26.419V7.42611H26.7963V7.61477H26.2304V7.0488H26.985V6.67148L26.9836 6.67288ZM25.4757 7.05019H26.0417V7.61616H25.0998V7.23885H24.5339V7.61616H24.3452V7.05019H25.2885V7.42751H25.8545V7.23885H25.4771V7.05019H25.4757ZM20.9522 7.42611H21.1408V7.61477H20.9522V7.42611ZM20.5748 6.67288H23.0246V6.86154H20.5748V6.67288ZM23.2133 6.67288H23.4019V7.42611H23.5906V6.67288H23.7792V7.42611H23.9679V6.67288H24.1565V7.61477H23.2146V7.23745H22.6487V7.42611H23.026V7.61477H22.46V7.0488H23.2146V6.67148L23.2133 6.67288ZM21.7054 7.05019H22.2714V7.61616H21.3295V7.23885H20.7635V7.61616H20.5748V7.05019H21.5181V7.42751H22.0841V7.23885H21.7068V7.05019H21.7054ZM17.1818 7.42611H17.3705V7.61477H17.1818V7.42611ZM16.8045 6.67288H19.2542V6.86154H16.8045V6.67288ZM19.4443 6.67288H19.633V7.42611H19.8216V6.67288H20.0103V7.42611H20.1989V6.67288H20.3876V7.61477H19.4457V7.23745H18.8797V7.42611H19.257V7.61477H18.6911V7.0488H19.4457V6.67148L19.4443 6.67288ZM17.9364 7.05019H18.5024V7.61616H17.5591V7.23885H16.9932V7.61616H16.8045V7.05019H17.7478V7.42751H18.3138V7.23885H17.9364V7.05019ZM13.4129 7.42611H13.6015V7.61477H13.4129V7.42611ZM13.0355 6.67288H15.4853V6.86154H13.0355V6.67288ZM15.6739 6.67288H15.8626V7.42611H16.0513V6.67288H16.2399V7.42611H16.4286V6.67288H16.6172V7.61477H15.6753V7.23745H15.1094V7.42611H15.4867V7.61477H14.9207V7.0488H15.6739V6.67148V6.67288ZM14.1661 7.05019H14.7321V7.61616H13.7902V7.23885H13.2242V7.61616H13.0355V7.05019H13.9788V7.42751H14.5448V7.23885H14.1675V7.05019H14.1661ZM9.6425 7.42611H9.83116V7.61477H9.6425V7.42611ZM9.26519 6.67288H11.7149V6.86154H9.26519V6.67288ZM11.905 6.67288H12.0937V7.42611H12.2823V6.67288H12.471V7.42611H12.6596V6.67288H12.8483V7.61477H11.9064V7.23745H11.3404V7.42611H11.7177V7.61477H11.1518V7.0488H11.9064V6.67148L11.905 6.67288ZM10.3971 7.05019H10.9631V7.61616H10.0198V7.23885H9.45385V7.61616H9.26519V7.05019H10.2071V7.42751H10.773V7.23885H10.3957V7.05019H10.3971ZM5.87215 7.42611H6.06081V7.61477H5.87215V7.42611ZM5.49624 6.67288H7.94738V6.86154H5.49624V6.67288ZM8.13464 6.67288H8.3233V7.42611H8.51196V6.67288H8.70061V7.42611H8.88927V6.67288H9.07793V7.61477H8.13604V7.23745H7.57007V7.42611H7.94738V7.61477H7.38141V7.0488H8.13604V6.67148L8.13464 6.67288ZM6.62678 7.05019H7.19275V7.61616H6.24947V7.23885H5.6835V7.61616H5.49484V7.05019H6.43813V7.42751H7.0041V7.23885H6.62678V7.05019ZM2.1032 7.42611H2.29186V7.61477H2.1032V7.42611ZM1.72589 6.67288H4.17564V6.86154H1.72589V6.67288ZM4.36429 6.67288H4.55295V7.42611H4.74161V6.67288H4.93026V7.42611H5.11892V6.67288H5.30758V7.61477H4.36569V7.23745H3.79972V7.42611H4.17703V7.61477H3.61106V7.0488H4.36569V6.67148L4.36429 6.67288ZM2.85643 7.05019H3.4224V7.61616H2.47912V7.23885H1.91315V7.61616H1.72449V7.05019H2.66638V7.42751H3.23235V7.23885H2.85503V7.05019H2.85643ZM-1.66715 7.42611H-1.47849V7.61477H-1.66715V7.42611ZM-2.04307 6.67288H0.406682V6.86154H-2.04307V6.67288ZM0.595339 6.67288H0.783997V7.42611H0.972654V6.67288H1.16131V7.42611H1.34997V6.67288H1.53863V7.61477H0.596737V7.23745H0.0293679V7.42611H0.406682V7.61477H-0.159289V7.0488H0.595339V6.67148V6.67288ZM-0.912521 7.05019H-0.346549V7.61616H-1.28984V7.23885H-1.85581V7.61616H-2.04446V7.05019H-1.10258V7.42751H-0.535206V7.23885H-0.912521V7.05019ZM-5.4361 7.42611H-5.24745V7.61477H-5.4361V7.42611ZM-5.81342 6.67288H-3.36367V6.86154H-5.81342V6.67288ZM-3.17501 6.67288H-2.98635V7.42611H-2.7977V6.67288H-2.60904V7.42611H-2.42038V6.67288H-2.23172V7.61477H-3.17361V7.23745H-3.73959V7.42611H-3.36227V7.61477H-3.92824V7.0488H-3.17361V6.67148L-3.17501 6.67288ZM-4.68287 7.05019H-4.1169V7.61616H-5.06019V7.23885H-5.62616V7.61616H-5.81482V7.05019H-4.87293V7.42751H-4.30695V7.23885H-4.68427V7.05019H-4.68287Z" fill="#007C29"/>
<path fill-rule="evenodd" clip-rule="evenodd" d="M-6.00208 16.0079H-5.81342V16.1966H-4.1169V16.0079H-3.92824V16.1966H-2.23172V16.0079H-2.04307V16.1966H-0.346549V16.0079H-0.157892V16.1966H1.53863V16.0079H1.72728V16.1966H3.4238V16.0079H3.61246V16.1966H5.30898V16.0079H5.49763V16.1966H7.19415V16.0079H7.38281V16.1966H9.07933V16.0079H9.26799V16.1966H10.9645V16.0079H11.1532V16.1966H12.8497V16.0079H13.0383V16.1966H14.7349V16.0079H14.9235V16.1966H16.62V16.0079H16.8087V16.1966H18.5052V16.0079H18.6939V16.1966H20.3904V16.0079H20.579V16.1966H22.2756V16.0079H22.4642V16.1966H24.1607V16.0079H24.3494V16.1966H26.0459V16.0079H26.2346V16.1966H27.9311V16.0079H28.1197V16.1966H29.8163V16.0079H30.0049V24H-6.00208V16.0079ZM28.4915 16.5739H28.6801V16.3852H28.4915V16.5739ZM28.1141 17.3271H29.8107V17.1385H28.1141V17.3271ZM29.2447 16.9512H29.8107V16.3852H28.8688V16.7626H28.3028V16.3852H28.1141V16.9512H29.0574V16.5739H29.6234V16.7626H29.2461V16.9512H29.2447ZM24.7211 16.5739H24.9098V16.3852H24.7211V16.5739ZM24.3438 17.3271H26.7935V17.1385H24.3438V17.3271ZM26.9836 17.3271H27.1723V16.5739H27.3609V17.3271H27.5496V16.5739H27.7382V17.3271H27.9269V16.3852H26.985V16.7626H26.419V16.5739H26.7963V16.3852H26.2304V16.9512H26.985V17.3285L26.9836 17.3271ZM25.4757 16.9512H26.0417V16.3852H25.0998V16.7626H24.5339V16.3852H24.3452V16.9512H25.2885V16.5739H25.8545V16.7626H25.4771V16.9512H25.4757ZM20.9522 16.5739H21.1408V16.3852H20.9522V16.5739ZM20.5748 17.3271H23.0246V17.1385H20.5748V17.3271ZM23.2133 17.3271H23.4019V16.5739H23.5906V17.3271H23.7792V16.5739H23.9679V17.3271H24.1565V16.3852H23.2146V16.7626H22.6487V16.5739H23.026V16.3852H22.46V16.9512H23.2146V17.3285L23.2133 17.3271ZM21.7054 16.9512H22.2714V16.3852H21.3295V16.7626H20.7635V16.3852H20.5748V16.9512H21.5181V16.5739H22.0841V16.7626H21.7068V16.9512H21.7054ZM17.1818 16.5739H17.3705V16.3852H17.1818V16.5739ZM16.8045 17.3271H19.2542V17.1385H16.8045V17.3271ZM19.4443 17.3271H19.633V16.5739H19.8216V17.3271H20.0103V16.5739H20.1989V17.3271H20.3876V16.3852H19.4457V16.7626H18.8797V16.5739H19.257V16.3852H18.6911V16.9512H19.4457V17.3285L19.4443 17.3271ZM17.9364 16.9512H18.5024V16.3852H17.5591V16.7626H16.9932V16.3852H16.8045V16.9512H17.7478V16.5739H18.3138V16.7626H17.9364V16.9512ZM13.4129 16.5739H13.6015V16.3852H13.4129V16.5739ZM13.0355 17.3271H15.4853V17.1385H13.0355V17.3271ZM15.6739 17.3271H15.8626V16.5739H16.0513V17.3271H16.2399V16.5739H16.4286V17.3271H16.6172V16.3852H15.6753V16.7626H15.1094V16.5739H15.4867V16.3852H14.9207V16.9512H15.6739V17.3285V17.3271ZM14.1661 16.9512H14.7321V16.3852H13.7902V16.7626H13.2242V16.3852H13.0355V16.9512H13.9788V16.5739H14.5448V16.7626H14.1675V16.9512H14.1661ZM9.6425 16.5739H9.83116V16.3852H9.6425V16.5739ZM9.26519 17.3271H11.7149V17.1385H9.26519V17.3271ZM11.905 17.3271H12.0937V16.5739H12.2823V17.3271H12.471V16.5739H12.6596V17.3271H12.8483V16.3852H11.9064V16.7626H11.3404V16.5739H11.7177V16.3852H11.1518V16.9512H11.9064V17.3285L11.905 17.3271ZM10.3971 16.9512H10.9631V16.3852H10.0198V16.7626H9.45385V16.3852H9.26519V16.9512H10.2071V16.5739H10.773V16.7626H10.3957V16.9512H10.3971ZM5.87215 16.5739H6.06081V16.3852H5.87215V16.5739ZM5.49624 17.3271H7.94738V17.1385H5.49624V17.3271ZM8.13464 17.3271H8.3233V16.5739H8.51196V17.3271H8.70061V16.5739H8.88927V17.3271H9.07793V16.3852H8.13604V16.7626H7.57007V16.5739H7.94738V16.3852H7.38141V16.9512H8.13604V17.3285L8.13464 17.3271ZM6.62678 16.9512H7.19275V16.3852H6.24947V16.7626H5.6835V16.3852H5.49484V16.9512H6.43813V16.5739H7.0041V16.7626H6.62678V16.9512ZM2.1032 16.5739H2.29186V16.3852H2.1032V16.5739ZM1.72589 17.3271H4.17564V17.1385H1.72589V17.3271ZM4.36429 17.3271H4.55295V16.5739H4.74161V17.3271H4.93026V16.5739H5.11892V17.3271H5.30758V16.3852H4.36569V16.7626H3.79972V16.5739H4.17703V16.3852H3.61106V16.9512H4.36569V17.3285L4.36429 17.3271ZM2.85643 16.9512H3.4224V16.3852H2.47912V16.7626H1.91315V16.3852H1.72449V16.9512H2.66638V16.5739H3.23235V16.7626H2.85503V16.9512H2.85643ZM-1.66715 16.5739H-1.47849V16.3852H-1.66715V16.5739ZM-2.04307 17.3271H0.406682V17.1385H-2.04307V17.3271ZM0.595339 17.3271H0.783997V16.5739H0.972654V17.3271H1.16131V16.5739H1.34997V17.3271H1.53863V16.3852H0.596737V16.7626H0.0293679V16.5739H0.406682V16.3852H-0.159289V16.9512H0.595339V17.3285V17.3271ZM-0.912521 16.9512H-0.346549V16.3852H-1.28984V16.7626H-1.85581V16.3852H-2.04446V16.9512H-1.10258V16.5739H-0.535206V16.7626H-0.912521V16.9512ZM-5.4361 16.5739H-5.24745V16.3852H-5.4361V16.5739ZM-5.81342 17.3271H-3.36367V17.1385H-5.81342V17.3271ZM-3.17501 17.3271H-2.98635V16.5739H-2.7977V17.3271H-2.60904V16.5739H-2.42038V17.3271H-2.23172V16.3852H-3.17361V16.7626H-3.73959V16.5739H-3.36227V16.3852H-3.92824V16.9512H-3.17361V17.3285L-3.17501 17.3271ZM-4.68287 16.9512H-4.1169V16.3852H-5.06019V16.7626H-5.62616V16.3852H-5.81482V16.9512H-4.87293V16.5739H-4.30695V16.7626H-4.68427V16.9512H-4.68287Z" fill="#FF0000"/>
<path fill-rule="evenodd" clip-rule="evenodd" d="M12.7546 9.14362C12.7672 9.18274 12.7742 9.22607 12.7742 9.26939C12.7742 9.49997 12.5869 9.68723 12.3564 9.68723C12.204 9.68723 12.0713 9.60618 11.9972 9.4846C11.9245 9.60618 11.7918 9.68723 11.6395 9.68723C11.4089 9.68723 11.2216 9.49997 11.2216 9.26939C11.2216 9.22607 11.2286 9.18414 11.2412 9.14362C11.2943 9.31271 11.4522 9.43568 11.6395 9.43568C11.7918 9.43568 11.9245 9.35463 11.9972 9.23305C12.0699 9.35463 12.204 9.43568 12.3564 9.43568C12.5436 9.43568 12.7015 9.31271 12.7546 9.14362Z" fill="#FF0000"/>
<path fill-rule="evenodd" clip-rule="evenodd" d="M11.9986 14.9948L11.7582 14.6748L11.6492 9.93318C11.796 9.88008 11.9203 9.76968 11.9986 9.62714C12.0769 9.77107 12.2012 9.88008 12.348 9.93318L12.2404 14.6748L11.9986 14.9948Z" fill="#FF0000"/>
<path fill-rule="evenodd" clip-rule="evenodd" d="M10.1638 13.9914C9.46784 13.5973 8.99829 12.851 8.99829 11.9944C8.99829 10.9142 9.74593 10.0086 10.7521 9.76544C10.0184 10.3105 9.5433 11.1839 9.5433 12.1677C9.5433 12.8538 9.77528 13.4869 10.1638 13.9914Z" fill="#FF0000"/>
<path fill-rule="evenodd" clip-rule="evenodd" d="M13.6658 14.4973C13.3947 14.5881 13.104 14.637 12.8021 14.637C11.2901 14.637 10.0645 13.4114 10.0645 11.8994C10.0645 11.0609 10.4418 10.3091 11.0358 9.80737C10.6892 10.2937 10.4865 10.8876 10.4865 11.5304C10.4865 13.1739 11.8183 14.5056 13.4617 14.5056C13.5302 14.5056 13.5987 14.5028 13.6658 14.4987V14.4973Z" fill="#FF0000"/>
<path fill-rule="evenodd" clip-rule="evenodd" d="M13.8335 13.9914C14.5294 13.5973 14.999 12.851 14.999 11.9944C14.999 10.9142 14.2514 10.0086 13.2452 9.76544C13.9788 10.3105 14.454 11.1839 14.454 12.1677C14.454 12.8538 14.222 13.4869 13.8335 13.9914Z" fill="#FF0000"/>
<path fill-rule="evenodd" clip-rule="evenodd" d="M10.3314 14.4973C10.6025 14.5881 10.8932 14.637 11.1951 14.637C12.7071 14.637 13.9327 13.4114 13.9327 11.8994C13.9327 11.0609 13.5554 10.3091 12.9614 9.80737C13.308 10.2937 13.5106 10.8876 13.5106 11.5304C13.5106 13.1739 12.1789 14.5056 10.5355 14.5056C10.467 14.5056 10.3985 14.5028 10.3314 14.4987V14.4973Z" fill="#FF0000"/>
</g>
</g>
<rect x="0.25" y="0.25" width="23.5" height="23.5" rx="11.75" stroke="#E5E3E1" stroke-width="0.5"/>
<defs>
<clipPath id="clip0_16335_6717">
<rect width="24" height="24" rx="12" fill="white"/>
</clipPath>
</defs>
</svg>
