<svg width="24" height="24" viewBox="0 0 24 24" fill="none" xmlns="http://www.w3.org/2000/svg">
<path fill-rule="evenodd" clip-rule="evenodd" d="M23.87 22.5C23.8498 22.5 23.8299 22.5 23.81 22.4798H23.7901C20.3497 19.6799 16.3891 17.9756 12.3288 17.3263C12.0289 17.2857 11.8088 17.0423 11.7688 16.7379C11.3187 12.4699 9.0996 10.9409 6.57306 9.19996C4.27131 7.61394 1.71442 5.85211 0.00755533 1.68335C-0.0125733 1.62255 0.00755533 1.56176 0.0674889 1.52115C0.127649 1.48055 0.187582 1.50074 0.227613 1.56176C2.68295 5.46757 4.71124 6.06276 7.11278 6.76749C9.15225 7.36597 11.4609 8.04344 14.5289 10.8946L14.609 10.9556C15.529 11.8077 16.1494 11.0164 15.849 10.5294C15.569 10.0628 15.6093 9.81937 15.6292 9.75857C16.9891 10.144 18.2095 10.8134 19.2496 11.7265L19.1696 11.9091C18.9632 12.3197 18.0451 12.4971 17.0088 12.6973C15.4335 13.0017 13.5851 13.3589 13.5489 14.6684C13.5489 15.2568 13.8889 15.7638 14.409 15.9873L15.4091 16.3931C18.6695 17.7118 21.5898 19.7608 23.9701 22.2972C24.01 22.3378 24.01 22.4188 23.9701 22.4594C23.9301 22.5 23.91 22.5 23.87 22.5ZM7 17.5H10V19.5H7V22.5H5V19.5H2V17.5H5V14.5H7V17.5Z" fill="#323232"/>
</svg>
