<svg width="48" height="48" viewBox="0 0 48 48" fill="none" xmlns="http://www.w3.org/2000/svg">
<path d="M14.9793 32.2697H9.0293C8.4793 32.2697 8.0293 31.8197 8.0293 31.2697C8.0293 30.7197 8.4793 30.2697 9.0293 30.2697H14.9793C18.5493 30.2697 20.2393 28.4297 22.0293 26.4797C23.6193 24.7497 25.2593 22.9697 28.1193 22.9697C28.6693 22.9697 29.1193 23.4197 29.1193 23.9697C29.1193 24.5197 28.6693 24.9697 28.1193 24.9697C26.1393 24.9697 24.9793 26.2397 23.4993 27.8397C21.6793 29.8097 19.4193 32.2697 14.9693 32.2697H14.9793Z" fill="#DF0000"/>
<path d="M46.0709 24.2697V24.2497C46.1009 24.1597 46.1209 24.0797 46.1209 23.9797C46.1209 23.9797 46.1209 23.9597 46.1209 23.9497C46.1209 23.6997 46.0409 23.4497 45.8609 23.2597L42.8709 20.0197C42.4909 19.6097 41.8609 19.5897 41.4609 19.9597C41.0509 20.3297 41.0309 20.9697 41.4009 21.3697L42.8809 22.9797H40.6609C34.7209 22.9797 32.1109 20.9297 29.5809 18.9397C27.4409 17.2597 25.4209 15.6797 21.8509 15.6797H15.1109C14.5609 15.6797 14.1109 16.1297 14.1109 16.6797C14.1109 17.2297 14.5609 17.6797 15.1109 17.6797H21.8509C24.7309 17.6797 26.3309 18.9297 28.3509 20.5097C29.3809 21.3197 30.5209 22.2097 31.9509 22.9797H2.88086C2.33086 22.9797 1.88086 23.4297 1.88086 23.9797C1.88086 24.5297 2.33086 24.9797 2.88086 24.9797H42.9009L41.4909 26.6097C41.1309 27.0297 41.1709 27.6597 41.5909 28.0197C41.7809 28.1797 42.0109 28.2597 42.2509 28.2597C42.5309 28.2597 42.8109 28.1397 43.0109 27.9097L45.7609 24.7397C45.9109 24.6197 46.0209 24.4597 46.0809 24.2697H46.0709Z" fill="#323232"/>
</svg>
