<svg width="48" height="48" viewBox="0 0 48 48" fill="none" xmlns="http://www.w3.org/2000/svg">
<path d="M41.95 11.0495H30.52V7.43953C30.52 6.37953 29.66 5.51953 28.6 5.51953H19.39C18.33 5.51953 17.47 6.37953 17.47 7.43953V11.0495H6.05C4.23 11.0495 2.75 12.5295 2.75 14.3495V36.4395C2.75 38.2595 4.23 39.7395 6.05 39.7395H9.17V41.4695C9.17 42.0195 9.62 42.4695 10.17 42.4695C10.72 42.4695 11.17 42.0195 11.17 41.4695V39.7395H36.83V41.4695C36.83 42.0195 37.28 42.4695 37.83 42.4695C38.38 42.4695 38.83 42.0195 38.83 41.4695V39.7395H41.95C43.77 39.7395 45.25 38.2595 45.25 36.4395V14.3495C45.25 12.5295 43.77 11.0495 41.95 11.0495ZM19.48 7.51953H28.53V11.0495H19.48V7.51953ZM6.05 37.7395C5.33 37.7395 4.75 37.1595 4.75 36.4395V14.3495C4.75 13.6295 5.33 13.0495 6.05 13.0495H9.17V37.7395H6.05ZM11.17 37.7395V13.0495H17.48V15.7395C17.48 16.2895 17.93 16.7395 18.48 16.7395C19.03 16.7395 19.48 16.2895 19.48 15.7395V13.0495H36.83V37.7395H11.17ZM43.25 36.4395C43.25 37.1595 42.67 37.7395 41.95 37.7395H38.83V13.0495H41.95C42.67 13.0495 43.25 13.6295 43.25 14.3495V36.4395Z" fill="#323232"/>
<path d="M21.2596 31.31H15.6896C15.1996 31.31 14.8096 30.92 14.8096 30.43V22.08C14.8096 21.85 14.8996 21.62 15.0696 21.46L17.8596 18.67C18.1996 18.33 18.7596 18.33 19.1096 18.67L21.8996 21.46C22.0596 21.62 22.1596 21.85 22.1596 22.08V30.43C22.1596 30.92 21.7696 31.31 21.2796 31.31" fill="#DF0000"/>
</svg>
