<svg width="24" height="24" viewBox="0 0 24 24" fill="none" xmlns="http://www.w3.org/2000/svg">
<g clip-path="url(#clip0_16335_6304)">
<path d="M14.2689 23.7839C20.7768 22.5307 25.0365 16.2391 23.7833 9.7313C22.5301 3.22345 16.2385 -1.03628 9.73065 0.216939C3.2228 1.47015 -1.03693 7.76174 0.216289 14.2696C1.4695 20.7774 7.76109 25.0372 14.2689 23.7839Z" fill="white"/>
<mask id="mask0_16335_6304" style="mask-type:luminance" maskUnits="userSpaceOnUse" x="-1" y="-1" width="26" height="26">
<path d="M14.2689 23.7839C20.7768 22.5307 25.0365 16.2391 23.7833 9.7313C22.5301 3.22345 16.2385 -1.03628 9.73065 0.216939C3.2228 1.47015 -1.03693 7.76174 0.216289 14.2696C1.4695 20.7774 7.76109 25.0372 14.2689 23.7839Z" fill="white"/>
</mask>
<g mask="url(#mask0_16335_6304)">
<path d="M30.0007 0H-5.99927V8.00047H30.0007V0Z" fill="#FED700"/>
<path d="M30.0007 15.9995H-5.99927V24H30.0007V15.9995Z" fill="#FF0000"/>
<path d="M30.0007 8.00049H-5.99927V16.001H30.0007V8.00049Z" fill="#007C29"/>
</g>
</g>
<rect x="0.25" y="0.25" width="23.5" height="23.5" rx="11.75" stroke="#E5E3E1" stroke-width="0.5"/>
<defs>
<clipPath id="clip0_16335_6304">
<rect width="24" height="24" rx="12" fill="white"/>
</clipPath>
</defs>
</svg>
