<svg width="48" height="48" viewBox="0 0 48 48" fill="none" xmlns="http://www.w3.org/2000/svg">
<path d="M28.5595 10.3701H26.7195C26.4267 10.3701 26.1895 10.6074 26.1895 10.9001V12.7401C26.1895 13.0328 26.4267 13.2701 26.7195 13.2701H28.5595C28.8522 13.2701 29.0895 13.0328 29.0895 12.7401V10.9001C29.0895 10.6074 28.8522 10.3701 28.5595 10.3701Z" fill="#323232"/>
<path d="M20.2391 10.3701H18.3991C18.1064 10.3701 17.8691 10.6074 17.8691 10.9001V12.7401C17.8691 13.0328 18.1064 13.2701 18.3991 13.2701H20.2391C20.5319 13.2701 20.7691 13.0328 20.7691 12.7401V10.9001C20.7691 10.6074 20.5319 10.3701 20.2391 10.3701Z" fill="#323232"/>
<path d="M28.5595 17.9702H26.7195C26.4267 17.9702 26.1895 18.2075 26.1895 18.5002V20.3402C26.1895 20.6329 26.4267 20.8702 26.7195 20.8702H28.5595C28.8522 20.8702 29.0895 20.6329 29.0895 20.3402V18.5002C29.0895 18.2075 28.8522 17.9702 28.5595 17.9702Z" fill="#323232"/>
<path d="M20.2391 17.9702H18.3991C18.1064 17.9702 17.8691 18.2075 17.8691 18.5002V20.3402C17.8691 20.6329 18.1064 20.8702 18.3991 20.8702H20.2391C20.5319 20.8702 20.7691 20.6329 20.7691 20.3402V18.5002C20.7691 18.2075 20.5319 17.9702 20.2391 17.9702Z" fill="#323232"/>
<path d="M3.66992 31.8199C4.21992 31.8199 4.66992 31.3699 4.66992 30.8199V22.1399C4.66992 20.3199 6.14992 18.8299 7.97992 18.8299C9.80992 18.8299 11.2799 20.3099 11.2799 22.1399V25.8099C11.2799 26.3599 11.7299 26.8099 12.2799 26.8099H34.6599C35.2099 26.8099 35.6599 26.3599 35.6599 25.8099V22.1399C35.6599 20.3199 37.1399 18.8299 38.9699 18.8299C40.7999 18.8299 42.2699 20.3099 42.2699 22.1399V30.8199C42.2699 31.3699 42.7199 31.8199 43.2699 31.8199C43.8199 31.8199 44.2699 31.3699 44.2699 30.8199V22.1399C44.2699 19.3299 42.0699 17.0499 39.3099 16.8699V12.8799C39.3099 8.73988 35.9399 5.37988 31.8099 5.37988H15.1299C10.9899 5.37988 7.62992 8.73988 7.62992 12.8799V16.8699C4.86992 17.0499 2.66992 19.3299 2.66992 22.1399V30.8199C2.66992 31.3699 3.11992 31.8199 3.66992 31.8199ZM15.1299 7.38988H31.8099C34.8399 7.38988 37.3099 9.85988 37.3099 12.8899V17.1299C35.1999 17.8299 33.6599 19.7999 33.6599 22.1499V24.8199H13.2799V22.1499C13.2799 19.8099 11.7399 17.8299 9.62992 17.1299V12.8899C9.62992 9.85988 12.0999 7.38988 15.1299 7.38988Z" fill="#323232"/>
<path d="M5.26972 37.0798C6.34972 37.0798 7.43972 36.7198 8.34972 36.0098L9.60972 35.0198C10.7197 34.1498 12.2497 34.1598 13.3397 35.0598L14.4297 35.9598C16.2497 37.4498 18.8097 37.4698 20.6597 36.0198L21.9297 35.0198C23.0397 34.1498 24.5697 34.1698 25.6497 35.0598L26.7297 35.9398C28.5397 37.4198 31.1697 37.4298 32.9897 35.9698L34.2797 34.9398C35.3197 34.1098 36.7997 34.0698 37.8797 34.8498L39.5497 36.0498C41.5297 37.4698 44.2197 37.2698 45.9597 35.5498C46.3497 35.1598 46.3597 34.5298 45.9597 34.1398C45.5697 33.7498 44.9397 33.7398 44.5497 34.1398C43.5097 35.1598 41.8997 35.2898 40.7197 34.4398L39.0497 33.2398C37.2397 31.9398 34.7697 31.9998 33.0297 33.3998L31.7397 34.4298C30.6497 35.2998 29.0697 35.2998 27.9897 34.4098L26.9097 33.5298C25.0897 32.0398 22.5297 32.0198 20.6797 33.4698L19.4097 34.4698C18.2997 35.3398 16.7697 35.3198 15.6797 34.4298L14.5897 33.5298C12.7697 32.0398 10.2097 32.0198 8.35972 33.4698L7.09972 34.4598C5.99972 35.3298 4.45972 35.3198 3.36972 34.4298C2.93972 34.0798 2.30972 34.1398 1.95972 34.5698C1.60972 34.9998 1.66972 35.6298 2.09972 35.9798C3.01972 36.7298 4.13972 37.1098 5.24972 37.1098L5.26972 37.0798Z" fill="#323232"/>
<path d="M45.9597 39.6701C45.5697 39.2801 44.9397 39.2701 44.5497 39.6701C43.5097 40.6901 41.8997 40.8201 40.7197 39.9701L39.0497 38.7701C37.2397 37.4701 34.7597 37.5301 33.0297 38.9301L31.7397 39.9601C30.6497 40.8301 29.0697 40.8301 27.9897 39.9401L26.9097 39.0601C25.0897 37.5701 22.5297 37.5501 20.6797 39.0001L19.4097 40.0001C18.2997 40.8701 16.7697 40.8501 15.6797 39.9601L14.5897 39.0601C12.7697 37.5701 10.2097 37.5501 8.35972 39.0001L7.09972 39.9901C5.99972 40.8601 4.45972 40.8501 3.36972 39.9601C2.93972 39.6101 2.30972 39.6701 1.95972 40.1001C1.60972 40.5301 1.66972 41.1601 2.09972 41.5101C3.91972 43.0001 6.47972 43.0201 8.32972 41.5701L9.58972 40.5801C10.6997 39.7101 12.2297 39.7201 13.3197 40.6201L14.4097 41.5201C15.3297 42.2701 16.4497 42.6501 17.5597 42.6501C18.6697 42.6501 19.7297 42.2901 20.6397 41.5801L21.9097 40.5801C23.0097 39.7101 24.5497 39.7301 25.6297 40.6201L26.7097 41.5001C28.5197 42.9801 31.1497 42.9901 32.9697 41.5301L34.2597 40.5001C35.2997 39.6701 36.7797 39.6301 37.8597 40.4101L39.5297 41.6101C41.5097 43.0301 44.1997 42.8201 45.9397 41.1101C46.3297 40.7201 46.3397 40.0901 45.9397 39.7001L45.9597 39.6701Z" fill="#323232"/>
</svg>
