<svg width="48" height="48" viewBox="0 0 48 48" fill="none" xmlns="http://www.w3.org/2000/svg">
<path d="M37.0498 1.75H10.9498C10.0198 1.75 9.25977 2.51 9.25977 3.44V41.23C9.25977 42.16 10.0198 42.91 10.9498 42.91H12.7098C12.8898 43.69 13.2798 44.4 13.8498 44.98C14.6698 45.8 15.7598 46.25 16.9198 46.25C18.9698 46.25 20.6798 44.82 21.1398 42.91H26.8498C27.0298 43.69 27.4198 44.4 27.9898 44.98C28.8098 45.8 29.8998 46.25 31.0598 46.25C33.1098 46.25 34.8198 44.82 35.2798 42.91H37.0398C37.9698 42.91 38.7298 42.15 38.7298 41.23V3.44C38.7298 2.51 37.9698 1.75 37.0398 1.75H37.0498ZM16.9298 44.25C16.2998 44.25 15.7198 44.01 15.2698 43.56C15.0798 43.37 14.9298 43.14 14.8198 42.9H19.0398C18.6598 43.69 17.8598 44.24 16.9298 44.24V44.25ZM31.0698 44.25C30.4398 44.25 29.8598 44.01 29.4098 43.56C29.2198 43.37 29.0698 43.14 28.9598 42.9H33.1798C32.7998 43.69 31.9998 44.24 31.0698 44.24V44.25ZM36.7298 40.91H11.2698V3.75H36.7398V40.91H36.7298Z" fill="#323232"/>
<path d="M33.4598 29.8798C33.4598 29.8798 33.4198 29.9098 33.3898 29.9098C33.3598 29.9098 33.3498 29.9098 33.3298 29.8898C30.6098 27.6998 27.4698 26.3798 24.2498 25.8798C24.0198 25.8398 23.8398 25.6598 23.8198 25.4198C23.1298 19.0498 17.3398 20.4998 14.5098 13.6598C14.4898 13.6198 14.5098 13.5698 14.5498 13.5398C14.5998 13.5098 14.6598 13.5198 14.6798 13.5698C18.2698 19.1998 20.7098 15.9998 25.9898 20.8498L26.0498 20.9098C26.7798 21.5798 27.2698 20.9598 27.0398 20.5698C26.8198 20.2098 26.8498 20.0198 26.8598 19.9798C27.9398 20.2798 28.9098 20.7998 29.7398 21.5098L29.6698 21.6498C29.2698 22.4598 25.2698 22.1198 25.2298 23.8098C25.2198 24.2698 25.4998 24.6698 25.8998 24.8398L26.6898 25.1598C29.2798 26.1998 31.5798 27.7898 33.4698 29.7698C33.5098 29.8098 33.5098 29.8698 33.4698 29.9098L33.4598 29.8798Z" fill="#DF0000"/>
</svg>
