<svg width="48" height="48" viewBox="0 0 48 48" fill="none" xmlns="http://www.w3.org/2000/svg">
<path d="M33.3702 39.5101C33.1002 39.5101 32.8502 39.4001 32.6602 39.2201L29.9302 36.4901C29.5402 36.1001 29.5402 35.4701 29.9302 35.0801C30.3202 34.6901 30.9502 34.6901 31.3402 35.0801L33.3602 37.1001L39.1602 31.3001C39.5502 30.9101 40.1802 30.9101 40.5702 31.3001C40.9602 31.6901 40.9602 32.3201 40.5702 32.7101L34.0702 39.2101C33.8802 39.4001 33.6302 39.5001 33.3602 39.5001L33.3702 39.5101Z" fill="#DF0000"/>
<path d="M35.2498 24.3001C33.8298 24.3001 32.4798 24.5801 31.2398 25.0701L30.0398 15.7001L37.1598 8.58011C37.9098 7.83011 38.3198 6.83011 38.3198 5.77011C38.3198 4.71011 37.9098 3.71011 37.1598 2.96011C35.6098 1.41011 33.0898 1.41011 31.5398 2.96011L24.4298 10.0801L7.33983 7.90011C6.13983 7.75011 4.91983 8.17011 4.05983 9.02011L3.28983 9.79011C2.83983 10.2301 2.63983 10.8701 2.72983 11.4901C2.82983 12.1101 3.21983 12.6601 3.77983 12.9501L15.5198 18.9701L10.7998 23.6901L5.19983 22.9001C4.42983 22.7901 3.63983 23.0601 3.09983 23.6101L2.20983 24.5101C1.86983 24.8601 1.71983 25.3501 1.80983 25.8301C1.90983 26.3101 2.22983 26.7101 2.67983 26.9001L10.0498 30.0201L13.1898 37.4201C13.3798 37.8701 13.7798 38.2001 14.2598 38.2901C14.3598 38.3101 14.4498 38.3201 14.5498 38.3201C14.9298 38.3201 15.3098 38.1701 15.5898 37.9001L16.4898 37.0101C17.0398 36.4701 17.3098 35.6801 17.1998 34.9101L16.4098 29.3101L21.0898 24.5901L24.8298 31.8401C24.4798 32.9201 24.2798 34.0601 24.2798 35.2501C24.2798 41.2901 29.1998 46.2101 35.2398 46.2101C41.2798 46.2101 46.1998 41.2901 46.1998 35.2501C46.1998 29.2101 41.2798 24.2901 35.2398 24.2901L35.2498 24.3001ZM22.8798 23.6701C22.5898 23.1101 22.0498 22.7201 21.4298 22.6201C20.8098 22.5201 20.1698 22.7301 19.7298 23.1801L14.8198 28.0901C14.4998 28.4101 14.3398 28.8801 14.3998 29.3301L15.2198 35.1901C15.2398 35.3401 15.1898 35.4801 15.0898 35.5901L14.7398 35.9301L11.8998 29.2501C11.6998 28.7801 11.3298 28.4101 10.8298 28.2001L4.16983 25.3701L4.51983 25.0201C4.61983 24.9101 4.76983 24.8701 4.91983 24.8901L10.7898 25.7201C11.2398 25.7801 11.6998 25.6301 12.0198 25.3001L16.9298 20.3901C17.3798 19.9401 17.5798 19.3101 17.4898 18.6901C17.3898 18.0701 16.9998 17.5201 16.4398 17.2401L4.69983 11.2201L5.47983 10.4501C5.89983 10.0301 6.49983 9.83011 7.08983 9.90011L24.1898 12.0701C24.7998 12.1501 25.4098 11.9401 25.8398 11.5101L32.9598 4.39011C33.7098 3.64011 35.0098 3.64011 35.7498 4.39011C36.5198 5.16011 36.5198 6.41011 35.7498 7.18011L28.6298 14.3001C28.1998 14.7301 27.9898 15.3501 28.0698 15.9501L29.3598 26.0601C27.9698 26.9601 26.7998 28.1601 25.9298 29.5701L22.8998 23.6901L22.8798 23.6701ZM35.2498 44.2101C30.3098 44.2101 26.2898 40.1901 26.2898 35.2501C26.2898 30.3101 30.3098 26.2901 35.2498 26.2901C40.1898 26.2901 44.2098 30.3101 44.2098 35.2501C44.2098 40.1901 40.1898 44.2101 35.2498 44.2101Z" fill="#323232"/>
</svg>
