<svg width="24" height="24" viewBox="0 0 24 24" fill="none" xmlns="http://www.w3.org/2000/svg">
<g clip-path="url(#clip0_16335_6315)">
<path d="M23.4854 15.4795C25.4064 9.13657 21.8218 2.43731 15.479 0.516245C9.13609 -1.40483 2.43683 2.17976 0.515759 8.52264C-1.40531 14.8655 2.17928 21.5648 8.52216 23.4859C14.865 25.4069 21.5643 21.8223 23.4854 15.4795Z" fill="white"/>
<mask id="mask0_16335_6315" style="mask-type:luminance" maskUnits="userSpaceOnUse" x="-1" y="-1" width="26" height="26">
<path d="M23.4854 15.4795C25.4064 9.13657 21.8218 2.43731 15.479 0.516245C9.13609 -1.40483 2.43683 2.17976 0.515759 8.52264C-1.40531 14.8655 2.17928 21.5648 8.52216 23.4859C14.865 25.4069 21.5643 21.8223 23.4854 15.4795Z" fill="white"/>
</mask>
<g mask="url(#mask0_16335_6315)">
<path d="M36 0H0V12H36V0Z" fill="#003399"/>
<path d="M36 12H0V24H36V12Z" fill="#FF0000"/>
<path fill-rule="evenodd" clip-rule="evenodd" d="M8.84312 2.92909L8.59717 2.7572C8.58599 2.74881 8.57201 2.75021 8.56083 2.7572L8.27295 2.95703C8.25479 2.96961 8.25479 2.99616 8.27295 3.00874L8.56083 3.20858C8.57061 3.21557 8.58599 3.21696 8.59717 3.20858L8.84312 3.03669C8.86129 3.09538 8.9088 3.1401 8.96749 3.15687L8.79002 3.4713C8.78443 3.48108 8.78443 3.49226 8.79002 3.50204L8.84871 3.60546C8.70198 3.66974 8.59996 3.81787 8.59996 3.98836C8.59996 4.10295 8.64608 4.20637 8.72014 4.28183C8.69639 4.27205 8.66844 4.26646 8.64188 4.26646C8.56922 4.26646 8.50493 4.30419 8.4686 4.36288C8.44624 4.27344 8.36519 4.20776 8.27016 4.20776C8.19749 4.20776 8.13321 4.24549 8.09687 4.30419C8.07452 4.21475 7.99346 4.14907 7.89844 4.14907C7.82577 4.14907 7.76148 4.1868 7.72515 4.24549C7.70279 4.15606 7.62174 4.09038 7.52671 4.09038C7.45404 4.09038 7.38976 4.12811 7.35343 4.1868C7.33107 4.09736 7.25001 4.03168 7.15499 4.03168C7.08092 4.03168 7.01664 4.07081 6.9803 4.12811C6.95794 4.04007 6.87689 3.97439 6.78186 3.97439C6.69522 3.97439 6.62116 4.02749 6.59181 4.10295C6.55827 4.03448 6.4884 3.98557 6.40734 3.98557C6.30114 3.98557 6.21449 4.06662 6.20331 4.17003C6.16558 4.12671 6.11108 4.10016 6.04959 4.10016C5.9364 4.10016 5.84417 4.19239 5.84417 4.30558C5.84417 4.31816 5.84417 4.33074 5.84696 4.34192C5.81482 4.32096 5.77709 4.30978 5.73656 4.30978C5.62337 4.30978 5.53114 4.40201 5.53114 4.5152C5.53114 4.54735 5.53812 4.57809 5.5521 4.60604C5.53393 4.60045 5.51297 4.59765 5.4934 4.59765C5.38021 4.59765 5.28798 4.68989 5.28798 4.80308C5.28798 4.85618 5.30754 4.9037 5.34108 4.94003H5.33829C5.22509 4.94003 5.13286 5.03226 5.13286 5.14546C5.13286 5.22232 5.17478 5.2894 5.23767 5.32433C5.14683 5.3453 5.07976 5.42635 5.07976 5.52417C5.07976 5.62199 5.14683 5.70165 5.23767 5.72401C5.17199 5.75894 5.12727 5.82602 5.12727 5.90568C5.12727 6.01188 5.20692 6.09853 5.31034 6.10971C5.24885 6.14464 5.20692 6.21172 5.20692 6.28719C5.20692 6.37383 5.26003 6.44789 5.33689 6.47724C5.14963 6.49541 4.97914 6.58345 4.90927 6.7721C4.90507 6.78328 4.90927 6.79586 4.91625 6.80425C5.04063 6.93421 5.14404 7.08374 5.2195 7.24724L5.92522 8.84873C5.97972 8.97311 6.3207 9.07931 6.84475 9.15478C7.40234 9.23443 8.17234 9.28334 9.02199 9.28334C9.87165 9.28334 10.6417 9.23443 11.1992 9.15478C11.7233 9.08071 12.0643 8.97311 12.1188 8.84873L12.8245 7.24724C12.8999 7.08374 13.0034 6.93421 13.1277 6.80425C13.1361 6.79586 13.1389 6.78328 13.1347 6.7721C13.0648 6.58345 12.8944 6.49541 12.7071 6.47724C12.7826 6.44789 12.8371 6.37383 12.8371 6.28719C12.8371 6.21172 12.7951 6.14464 12.7337 6.10971C12.8371 6.09853 12.9167 6.01188 12.9167 5.90568C12.9167 5.82602 12.872 5.75894 12.8063 5.72401C12.8972 5.70305 12.9642 5.62199 12.9642 5.52417C12.9642 5.42635 12.8972 5.3453 12.8063 5.32433C12.8678 5.2894 12.9111 5.22232 12.9111 5.14546C12.9111 5.03226 12.8189 4.94003 12.7057 4.94003H12.7029C12.735 4.9037 12.756 4.85618 12.756 4.80308C12.756 4.68989 12.6638 4.59765 12.5506 4.59765C12.5296 4.59765 12.5101 4.60045 12.4919 4.60604C12.5059 4.57809 12.5129 4.54874 12.5129 4.5152C12.5129 4.40201 12.4206 4.30978 12.3074 4.30978C12.2669 4.30978 12.2292 4.32235 12.197 4.34192C12.1998 4.33074 12.1998 4.31816 12.1998 4.30558C12.1998 4.19239 12.1076 4.10016 11.9944 4.10016C11.9329 4.10016 11.8784 4.12671 11.8407 4.17003C11.8309 4.06662 11.7429 3.98557 11.6366 3.98557C11.5556 3.98557 11.4843 4.03308 11.4522 4.10295C11.4214 4.02749 11.3488 3.97439 11.2621 3.97439C11.1671 3.97439 11.086 4.04007 11.0637 4.12811C11.0274 4.06941 10.9631 4.03168 10.889 4.03168C10.7926 4.03168 10.7129 4.09736 10.6906 4.1868C10.6542 4.1295 10.5899 4.09038 10.5173 4.09038C10.4209 4.09038 10.3412 4.15606 10.3188 4.24549C10.2825 4.1882 10.2182 4.14907 10.1456 4.14907C10.0491 4.14907 9.96947 4.21475 9.94711 4.30419C9.91078 4.24689 9.8465 4.20776 9.77383 4.20776C9.6774 4.20776 9.59775 4.27344 9.57539 4.36288C9.53905 4.30558 9.47477 4.26646 9.4021 4.26646C9.37415 4.26646 9.3476 4.27205 9.32245 4.28183C9.39651 4.20637 9.44263 4.10295 9.44263 3.98836C9.44263 3.81787 9.34062 3.67114 9.19388 3.60546L9.25258 3.50204C9.25816 3.49226 9.25816 3.48108 9.25258 3.4713L9.0751 3.15687C9.13379 3.1401 9.1813 3.09399 9.19947 3.03669L9.44542 3.20858C9.4566 3.21696 9.47058 3.21557 9.48176 3.20858L9.76964 3.00874C9.7878 2.99616 9.7878 2.96961 9.76964 2.95703L9.48176 2.7572C9.47198 2.75021 9.4566 2.74881 9.44542 2.7572L9.19947 2.92909C9.1813 2.87039 9.13379 2.82567 9.0751 2.8089L9.25258 2.49448C9.25816 2.48469 9.25816 2.47351 9.25258 2.46373L9.05274 2.11017C9.04016 2.08921 9.00942 2.08921 8.99824 2.11017L8.7984 2.46373C8.79281 2.47351 8.79281 2.48469 8.7984 2.49448L8.97588 2.8089C8.91719 2.82567 8.86967 2.87179 8.8515 2.92909H8.84312Z" fill="black"/>
<path fill-rule="evenodd" clip-rule="evenodd" d="M8.34705 2.98358L8.57902 2.82288L8.8124 2.98358L8.57902 3.14569L8.34705 2.98358Z" fill="#FED700"/>
<path fill-rule="evenodd" clip-rule="evenodd" d="M9.01781 2.76977L9.18131 2.47909L9.01781 2.18982L8.85431 2.47909L9.01781 2.76977Z" fill="#FED700"/>
<path fill-rule="evenodd" clip-rule="evenodd" d="M9.68862 2.98358L9.45664 2.82288L9.22327 2.98358L9.45664 3.14569L9.68862 2.98358Z" fill="#FED700"/>
<path fill-rule="evenodd" clip-rule="evenodd" d="M9.01783 2.86481C9.08351 2.86481 9.13662 2.91791 9.13662 2.98359C9.13662 3.04927 9.08351 3.10238 9.01783 3.10238C8.95215 3.10238 8.89905 3.04927 8.89905 2.98359C8.89905 2.91791 8.95215 2.86481 9.01783 2.86481Z" fill="#FED700"/>
<path fill-rule="evenodd" clip-rule="evenodd" d="M8.69501 3.84302C8.7565 3.83604 8.81938 3.83045 8.88087 3.82625V3.66275C8.79842 3.69769 8.73134 3.76197 8.69501 3.84302Z" fill="#FED700"/>
<path fill-rule="evenodd" clip-rule="evenodd" d="M9.34065 3.84302C9.27916 3.83604 9.21627 3.83045 9.15479 3.82625V3.66275C9.23724 3.69769 9.30431 3.76197 9.34065 3.84302Z" fill="#FED700"/>
<path fill-rule="evenodd" clip-rule="evenodd" d="M9.01784 4.09595C8.90744 4.09595 8.79704 4.10433 8.68665 4.1197C8.73835 4.25246 8.86692 4.34609 9.01784 4.34609C9.16877 4.34609 9.29734 4.25246 9.34904 4.1197C9.24004 4.10433 9.12824 4.09595 9.01784 4.09595Z" fill="#FED700"/>
<path fill-rule="evenodd" clip-rule="evenodd" d="M9.01779 3.6348C8.99264 3.6348 8.96748 3.63759 8.94373 3.64178V3.8556C8.94373 3.87236 8.92975 3.88634 8.91298 3.88774C8.83193 3.89053 8.75088 3.89752 8.67122 3.9087C8.66563 3.93525 8.66144 3.9618 8.66144 3.98975C8.66144 4.01351 8.66423 4.03587 8.66843 4.05823C8.78441 4.04146 8.9004 4.03307 9.01639 4.03307C9.13238 4.03307 9.24977 4.04146 9.36436 4.05823C9.36855 4.03587 9.37135 4.01351 9.37135 3.98975C9.37135 3.9618 9.36855 3.93525 9.36157 3.9087C9.28191 3.89752 9.20086 3.89053 9.11981 3.88774C9.10304 3.88774 9.08906 3.87376 9.08906 3.8556V3.64178C9.0653 3.63619 9.04015 3.6348 9.015 3.6348H9.01779Z" fill="#FED700"/>
<path fill-rule="evenodd" clip-rule="evenodd" d="M8.90881 3.58588L8.85431 3.48806L9.01781 3.19739L9.18131 3.48806L9.12681 3.58588C9.09188 3.5761 9.05554 3.57191 9.01781 3.57191C8.98008 3.57191 8.94375 3.5775 8.90881 3.58588Z" fill="#FED700"/>
<path fill-rule="evenodd" clip-rule="evenodd" d="M8.12901 5.14825C8.30649 5.3425 8.41968 5.56609 8.463 5.77292C8.47418 5.70724 8.48397 5.64295 8.49235 5.57587C8.5189 5.37743 8.53847 5.1748 8.54965 4.97077L7.7489 4.845C7.89284 4.92186 8.02001 5.02807 8.13041 5.14825H8.12901Z" fill="black"/>
<path fill-rule="evenodd" clip-rule="evenodd" d="M8.60555 6.25084C8.66285 5.9993 8.70757 5.74077 8.73971 5.47805C8.77045 5.22231 8.78722 4.96238 8.79142 4.70246C8.73692 4.69826 8.68102 4.69128 8.62652 4.68289H8.62093C8.61813 4.98754 8.59577 5.28939 8.55525 5.58425C8.51751 5.85676 8.46441 6.12647 8.39594 6.39199C8.45882 6.33609 8.53009 6.28858 8.60695 6.25084H8.60555Z" fill="#FED700"/>
<path fill-rule="evenodd" clip-rule="evenodd" d="M5.93224 6.59742L5.75476 5.74916C5.6807 5.4501 5.75616 5.13986 5.96718 4.91208C6.1768 4.68429 6.48005 4.58228 6.7833 4.62979L8.55108 4.90789C8.55388 4.82963 8.55667 4.75137 8.55667 4.67172L6.81823 4.39781C6.4521 4.34052 6.08876 4.45371 5.82603 4.71643C5.54235 5.00012 5.42916 5.41097 5.52558 5.79807L5.67371 6.50379C5.76175 6.52615 5.84839 6.55689 5.93224 6.59462V6.59742Z" fill="#FED700"/>
<path fill-rule="evenodd" clip-rule="evenodd" d="M8.31768 6.35985C8.22126 6.44789 8.09409 6.48842 7.95295 6.48702C7.89286 6.48702 7.82997 6.47724 7.76569 6.46187C7.90543 6.58065 8.02282 6.72738 8.10108 6.89089C8.13462 6.73717 8.20728 6.59882 8.3065 6.48283C8.32048 6.43252 8.33306 6.38081 8.34703 6.33051C8.33865 6.34029 8.32886 6.35007 8.31908 6.35845L8.31768 6.35985Z" fill="black"/>
<path fill-rule="evenodd" clip-rule="evenodd" d="M6.32071 6.56666C6.28158 6.58343 6.23966 6.59181 6.19494 6.59181C6.11389 6.59181 6.03842 6.56247 5.97833 6.50797L6.00349 6.63094C6.09712 6.67985 6.18655 6.73575 6.26621 6.79444C6.2732 6.71199 6.29136 6.63513 6.32211 6.56526L6.32071 6.56666Z" fill="black"/>
<path fill-rule="evenodd" clip-rule="evenodd" d="M5.85395 5.91685V5.19995C5.78407 5.36625 5.7701 5.55071 5.81621 5.73378L5.85395 5.91685Z" fill="#FED700"/>
<path fill-rule="evenodd" clip-rule="evenodd" d="M8.36383 5.65411V6.19353C8.41554 6.09012 8.42951 5.96016 8.40575 5.81901C8.39737 5.76451 8.3834 5.71001 8.36383 5.65411Z" fill="#FED700"/>
<path fill-rule="evenodd" clip-rule="evenodd" d="M8.15979 5.28381V6.38501C8.20171 6.36685 8.24084 6.34309 8.27438 6.31234C8.28416 6.30396 8.29255 6.29558 8.30093 6.28579V5.50601C8.2632 5.43055 8.21569 5.35648 8.15979 5.28381Z" fill="#FED700"/>
<path fill-rule="evenodd" clip-rule="evenodd" d="M7.95575 5.0686V6.42414C8.00466 6.42414 8.05217 6.41855 8.09689 6.40737V5.20835L8.08152 5.19158C8.04239 5.14826 8.00047 5.10773 7.95575 5.0686Z" fill="#FED700"/>
<path fill-rule="evenodd" clip-rule="evenodd" d="M7.75171 4.92047V6.3934C7.79783 6.40597 7.84534 6.41576 7.89285 6.42134V5.0169C7.84813 4.98196 7.80062 4.94982 7.75171 4.92187V4.92047Z" fill="#FED700"/>
<path fill-rule="evenodd" clip-rule="evenodd" d="M7.54767 4.82684V6.31095C7.59239 6.3347 7.6399 6.35567 7.68881 6.37383V4.88693C7.6427 4.86318 7.59658 4.84361 7.54767 4.82824V4.82684Z" fill="#FED700"/>
<path fill-rule="evenodd" clip-rule="evenodd" d="M7.34369 4.7821V6.21729C7.3926 6.23406 7.44011 6.25363 7.48483 6.27598V4.80725C7.46387 4.80166 7.44431 4.79747 7.42334 4.79328L7.34369 4.7807V4.7821Z" fill="#FED700"/>
<path fill-rule="evenodd" clip-rule="evenodd" d="M7.14105 4.74997V6.167C7.18857 6.17398 7.23608 6.18376 7.2822 6.19774V4.77233L7.14105 4.74997Z" fill="#FED700"/>
<path fill-rule="evenodd" clip-rule="evenodd" d="M6.93701 4.71783V6.15722C6.95518 6.15722 6.97335 6.15582 6.99291 6.15582C7.02086 6.15582 7.05021 6.15582 7.07816 6.16001V4.74019L6.93701 4.71783Z" fill="#FED700"/>
<path fill-rule="evenodd" clip-rule="evenodd" d="M6.73297 4.68707V6.19633C6.77909 6.18236 6.8252 6.17118 6.87411 6.16419V4.70803L6.7735 4.69266C6.75952 4.68987 6.74695 4.68847 6.73297 4.68707Z" fill="#FED700"/>
<path fill-rule="evenodd" clip-rule="evenodd" d="M6.52893 4.6885V6.30117C6.57225 6.26903 6.61977 6.24108 6.67007 6.22012V4.68291C6.62256 4.68151 6.57505 4.68291 6.52893 4.6885Z" fill="#FED700"/>
<path fill-rule="evenodd" clip-rule="evenodd" d="M6.32489 4.74019V6.494C6.35424 6.47723 6.38079 6.45348 6.40315 6.42413C6.42271 6.39898 6.44367 6.37522 6.46603 6.35286V4.69687C6.41852 4.70665 6.37101 4.72063 6.32489 4.73879V4.74019Z" fill="#FED700"/>
<path fill-rule="evenodd" clip-rule="evenodd" d="M6.12085 4.85477V6.51775C6.14461 6.52474 6.16976 6.52893 6.19492 6.52893C6.21867 6.52893 6.24103 6.52613 6.26199 6.52054V4.76813C6.21308 4.79188 6.16557 4.82123 6.12085 4.85617V4.85477Z" fill="#FED700"/>
<path fill-rule="evenodd" clip-rule="evenodd" d="M6.05802 6.48982V4.9079C6.04265 4.92187 6.02728 4.93724 6.0133 4.95401C5.97697 4.99314 5.94483 5.03507 5.91827 5.07839V6.21732L5.94343 6.3389C5.9616 6.40318 6.00352 6.45489 6.05942 6.48843L6.05802 6.48982Z" fill="#FED700"/>
<path fill-rule="evenodd" clip-rule="evenodd" d="M8.64053 4.33072C8.71878 4.33072 8.78307 4.3936 8.78307 4.47326C8.78307 4.55292 8.71878 4.6158 8.64053 4.6158C8.56227 4.6158 8.49799 4.55292 8.49799 4.47326C8.49799 4.3936 8.56087 4.33072 8.64053 4.33072Z" fill="#FED700"/>
<path fill-rule="evenodd" clip-rule="evenodd" d="M5.32852 5.76172C5.40678 5.76172 5.47106 5.8246 5.47106 5.90286C5.47106 5.98112 5.40818 6.0454 5.32852 6.0454C5.24887 6.0454 5.18738 5.98252 5.18738 5.90286C5.18738 5.82321 5.25026 5.76172 5.32852 5.76172Z" fill="#FED700"/>
<path fill-rule="evenodd" clip-rule="evenodd" d="M5.28103 5.38162C5.35929 5.38162 5.42357 5.44451 5.42357 5.52277C5.42357 5.60102 5.36069 5.66531 5.28103 5.66531C5.20137 5.66531 5.13849 5.60242 5.13849 5.52277C5.13849 5.44311 5.20137 5.38162 5.28103 5.38162Z" fill="#FED700"/>
<path fill-rule="evenodd" clip-rule="evenodd" d="M5.33553 5.0029C5.41379 5.0029 5.47808 5.06578 5.47808 5.14544C5.47808 5.2251 5.41519 5.28658 5.33553 5.28658C5.25588 5.28658 5.19299 5.2237 5.19299 5.14544C5.19299 5.06718 5.25588 5.0029 5.33553 5.0029Z" fill="#FED700"/>
<path fill-rule="evenodd" clip-rule="evenodd" d="M5.49062 4.66052C5.56888 4.66052 5.63317 4.72341 5.63317 4.80167C5.63317 4.87992 5.57028 4.94421 5.49062 4.94421C5.41097 4.94421 5.34808 4.88132 5.34808 4.80167C5.34808 4.72201 5.41097 4.66052 5.49062 4.66052Z" fill="#FED700"/>
<path fill-rule="evenodd" clip-rule="evenodd" d="M5.73379 4.37405C5.81205 4.37405 5.87633 4.43694 5.87633 4.5166C5.87633 4.59625 5.81344 4.65774 5.73379 4.65774C5.65413 4.65774 5.59125 4.59485 5.59125 4.5166C5.59125 4.43834 5.65413 4.37405 5.73379 4.37405Z" fill="#FED700"/>
<path fill-rule="evenodd" clip-rule="evenodd" d="M6.04543 4.16443C6.12369 4.16443 6.18797 4.22731 6.18797 4.30697C6.18797 4.38663 6.12509 4.44811 6.04543 4.44811C5.96578 4.44811 5.90289 4.38523 5.90289 4.30697C5.90289 4.22871 5.96578 4.16443 6.04543 4.16443Z" fill="#FED700"/>
<path fill-rule="evenodd" clip-rule="evenodd" d="M6.40317 4.05124C6.48143 4.05124 6.54571 4.11412 6.54571 4.19378C6.54571 4.27344 6.48282 4.33632 6.40317 4.33632C6.32351 4.33632 6.26202 4.27344 6.26202 4.19378C6.26202 4.11412 6.32491 4.05124 6.40317 4.05124Z" fill="#FED700"/>
<path fill-rule="evenodd" clip-rule="evenodd" d="M6.77908 4.03867C6.85733 4.03867 6.92162 4.10155 6.92162 4.17981C6.92162 4.25807 6.85873 4.32235 6.77908 4.32235C6.69942 4.32235 6.63654 4.25946 6.63654 4.17981C6.63654 4.10015 6.69942 4.03867 6.77908 4.03867Z" fill="#FED700"/>
<path fill-rule="evenodd" clip-rule="evenodd" d="M7.15218 4.09595C7.23044 4.09595 7.29473 4.15883 7.29473 4.23849C7.29473 4.31814 7.23184 4.37963 7.15218 4.37963C7.07253 4.37963 7.00964 4.31675 7.00964 4.23849C7.00964 4.16023 7.07253 4.09595 7.15218 4.09595Z" fill="#FED700"/>
<path fill-rule="evenodd" clip-rule="evenodd" d="M7.52395 4.15466C7.60221 4.15466 7.66649 4.21755 7.66649 4.2972C7.66649 4.37686 7.60361 4.43835 7.52395 4.43835C7.44429 4.43835 7.38141 4.37406 7.38141 4.2972C7.38141 4.22034 7.44429 4.15466 7.52395 4.15466Z" fill="#FED700"/>
<path fill-rule="evenodd" clip-rule="evenodd" d="M7.89566 4.21335C7.97392 4.21335 8.0382 4.27623 8.0382 4.35589C8.0382 4.43554 7.97532 4.49703 7.89566 4.49703C7.816 4.49703 7.75452 4.43415 7.75452 4.35589C7.75452 4.27763 7.8174 4.21335 7.89566 4.21335Z" fill="#FED700"/>
<path fill-rule="evenodd" clip-rule="evenodd" d="M8.26876 4.27203C8.34702 4.27203 8.4113 4.33492 8.4113 4.41457C8.4113 4.49423 8.34842 4.55712 8.26876 4.55712C8.18911 4.55712 8.12622 4.49423 8.12622 4.41457C8.12622 4.33492 8.18911 4.27203 8.26876 4.27203Z" fill="#FED700"/>
<path fill-rule="evenodd" clip-rule="evenodd" d="M5.40958 6.14325C5.48783 6.14325 5.55212 6.20614 5.55212 6.28579C5.55212 6.36545 5.48923 6.42833 5.40958 6.42833C5.32992 6.42833 5.26843 6.36545 5.26843 6.28579C5.26843 6.20614 5.33132 6.14325 5.40958 6.14325Z" fill="#FED700"/>
<path fill-rule="evenodd" clip-rule="evenodd" d="M9.908 5.14825C9.73052 5.3425 9.61733 5.56609 9.57401 5.77292C9.56283 5.70724 9.55305 5.64295 9.54466 5.57587C9.51811 5.37743 9.49855 5.1748 9.48737 4.97077L10.2881 4.845C10.1442 4.92186 10.017 5.02807 9.9066 5.14825H9.908Z" fill="black"/>
<path fill-rule="evenodd" clip-rule="evenodd" d="M9.43006 6.25084C9.37277 5.9993 9.32805 5.74077 9.29591 5.47805C9.26516 5.22231 9.24839 4.96238 9.2442 4.70246C9.2987 4.69826 9.3546 4.69128 9.4091 4.68289H9.41469C9.41749 4.98754 9.43985 5.28939 9.48037 5.58425C9.5181 5.85676 9.57121 6.12647 9.63968 6.39199C9.5768 6.33609 9.50553 6.28858 9.42867 6.25084H9.43006Z" fill="#FED700"/>
<path fill-rule="evenodd" clip-rule="evenodd" d="M12.1048 6.59742L12.2823 5.74916C12.3563 5.4501 12.2809 5.13986 12.0698 4.91208C11.8602 4.68429 11.557 4.58228 11.2537 4.62979L9.48594 4.90789C9.48314 4.82963 9.48035 4.75137 9.48035 4.67172L11.2174 4.39781C11.5835 4.34052 11.9469 4.45371 12.2096 4.71643C12.4933 5.00012 12.6065 5.41097 12.51 5.79807L12.3619 6.50379C12.2739 6.52615 12.1872 6.55689 12.1034 6.59462L12.1048 6.59742Z" fill="#FED700"/>
<path fill-rule="evenodd" clip-rule="evenodd" d="M9.71795 6.35985C9.81437 6.44789 9.94154 6.48842 10.0827 6.48702C10.1428 6.48702 10.2057 6.47724 10.2699 6.46187C10.1302 6.58065 10.0128 6.72738 9.93455 6.89089C9.89961 6.73717 9.82834 6.59882 9.72913 6.48283C9.71515 6.43252 9.70257 6.38081 9.6886 6.33051C9.69838 6.34029 9.70677 6.35007 9.71655 6.35845L9.71795 6.35985Z" fill="black"/>
<path fill-rule="evenodd" clip-rule="evenodd" d="M11.7149 6.56666C11.754 6.58343 11.796 6.59181 11.8407 6.59181C11.9217 6.59181 11.9972 6.56247 12.0573 6.50797L12.0321 6.63094C11.9385 6.67985 11.8491 6.73575 11.7694 6.79444C11.7624 6.71199 11.7442 6.63513 11.7135 6.56526L11.7149 6.56666Z" fill="black"/>
<path fill-rule="evenodd" clip-rule="evenodd" d="M12.1816 5.91685V5.19995C12.2515 5.36625 12.2655 5.55071 12.2194 5.73378L12.1816 5.91685Z" fill="#FED700"/>
<path fill-rule="evenodd" clip-rule="evenodd" d="M9.67186 5.65411V6.19353C9.62015 6.09012 9.60618 5.96016 9.62993 5.81901C9.63832 5.76451 9.65229 5.71001 9.67186 5.65411Z" fill="#FED700"/>
<path fill-rule="evenodd" clip-rule="evenodd" d="M9.87588 5.28381V6.38501C9.83396 6.36685 9.79483 6.34309 9.76129 6.31234C9.75151 6.30396 9.74313 6.29558 9.73474 6.28579V5.50601C9.77247 5.43055 9.81999 5.35648 9.87588 5.28381Z" fill="#FED700"/>
<path fill-rule="evenodd" clip-rule="evenodd" d="M10.0799 5.0686V6.42414C10.031 6.42414 9.98344 6.41855 9.93872 6.40737V5.20835L9.95409 5.19158C9.99322 5.14826 10.0351 5.10773 10.0799 5.0686Z" fill="#FED700"/>
<path fill-rule="evenodd" clip-rule="evenodd" d="M10.2839 4.92047V6.3934C10.2378 6.40597 10.1903 6.41576 10.1428 6.42134V5.0169C10.1875 4.98196 10.235 4.94982 10.2839 4.92187V4.92047Z" fill="#FED700"/>
<path fill-rule="evenodd" clip-rule="evenodd" d="M10.4879 4.82684V6.31095C10.4432 6.3347 10.3957 6.35567 10.3468 6.37383V4.88693C10.3929 4.86318 10.439 4.84361 10.4879 4.82824V4.82684Z" fill="#FED700"/>
<path fill-rule="evenodd" clip-rule="evenodd" d="M10.692 4.7821V6.21729C10.6431 6.23406 10.5956 6.25363 10.5508 6.27598V4.80725C10.5718 4.80166 10.5914 4.79747 10.6123 4.79328L10.692 4.7807V4.7821Z" fill="#FED700"/>
<path fill-rule="evenodd" clip-rule="evenodd" d="M10.8946 4.74997V6.167C10.8471 6.17398 10.7996 6.18376 10.7535 6.19774V4.77233L10.8946 4.74997Z" fill="#FED700"/>
<path fill-rule="evenodd" clip-rule="evenodd" d="M11.0987 4.71783V6.15722C11.0805 6.15722 11.0623 6.15582 11.0428 6.15582C11.0148 6.15582 10.9855 6.15582 10.9575 6.16001V4.74019L11.0987 4.71783Z" fill="#FED700"/>
<path fill-rule="evenodd" clip-rule="evenodd" d="M11.3026 4.68707V6.19633C11.2565 6.18236 11.2104 6.17118 11.1615 6.16419V4.70803L11.2621 4.69266C11.2761 4.68987 11.2887 4.68847 11.3026 4.68707Z" fill="#FED700"/>
<path fill-rule="evenodd" clip-rule="evenodd" d="M11.5067 4.6885V6.30117C11.4634 6.26903 11.4158 6.24108 11.3655 6.22012V4.68291C11.4131 4.68151 11.4606 4.68291 11.5067 4.6885Z" fill="#FED700"/>
<path fill-rule="evenodd" clip-rule="evenodd" d="M11.7107 4.74019V6.494C11.6814 6.47723 11.6548 6.45348 11.6325 6.42413C11.6129 6.39898 11.5919 6.37522 11.5696 6.35286V4.69687C11.6171 4.70665 11.6646 4.72063 11.7107 4.73879V4.74019Z" fill="#FED700"/>
<path fill-rule="evenodd" clip-rule="evenodd" d="M11.9148 4.85477V6.51775C11.891 6.52474 11.8659 6.52893 11.8407 6.52893C11.8169 6.52893 11.7946 6.52613 11.7736 6.52054V4.76813C11.8225 4.79188 11.87 4.82123 11.9148 4.85617V4.85477Z" fill="#FED700"/>
<path fill-rule="evenodd" clip-rule="evenodd" d="M11.9777 6.48982V4.9079C11.993 4.92187 12.0084 4.93724 12.0224 4.95401C12.0587 4.99314 12.0908 5.03507 12.1174 5.07839V6.21732L12.0922 6.3389C12.0741 6.40318 12.0322 6.45489 11.9763 6.48843L11.9777 6.48982Z" fill="#FED700"/>
<path fill-rule="evenodd" clip-rule="evenodd" d="M9.39511 4.33072C9.31685 4.33072 9.25256 4.3936 9.25256 4.47326C9.25256 4.55292 9.31545 4.6158 9.39511 4.6158C9.47476 4.6158 9.53765 4.55292 9.53765 4.47326C9.53765 4.3936 9.47476 4.33072 9.39511 4.33072Z" fill="#FED700"/>
<path fill-rule="evenodd" clip-rule="evenodd" d="M12.7071 5.76172C12.6289 5.76172 12.5646 5.8246 12.5646 5.90286C12.5646 5.98112 12.6275 6.0454 12.7071 6.0454C12.7868 6.0454 12.8483 5.98252 12.8483 5.90286C12.8483 5.82321 12.7854 5.76172 12.7071 5.76172Z" fill="#FED700"/>
<path fill-rule="evenodd" clip-rule="evenodd" d="M12.7546 5.38162C12.6763 5.38162 12.6121 5.44451 12.6121 5.52277C12.6121 5.60102 12.6749 5.66531 12.7546 5.66531C12.8343 5.66531 12.8971 5.60242 12.8971 5.52277C12.8971 5.44311 12.8343 5.38162 12.7546 5.38162Z" fill="#FED700"/>
<path fill-rule="evenodd" clip-rule="evenodd" d="M12.7002 5.0029C12.6219 5.0029 12.5576 5.06578 12.5576 5.14544C12.5576 5.2251 12.6205 5.28658 12.7002 5.28658C12.7798 5.28658 12.8427 5.2237 12.8427 5.14544C12.8427 5.06718 12.7798 5.0029 12.7002 5.0029Z" fill="#FED700"/>
<path fill-rule="evenodd" clip-rule="evenodd" d="M12.545 4.66052C12.4667 4.66052 12.4025 4.72341 12.4025 4.80167C12.4025 4.87992 12.4654 4.94421 12.545 4.94421C12.6247 4.94421 12.6875 4.88132 12.6875 4.80167C12.6875 4.72201 12.6247 4.66052 12.545 4.66052Z" fill="#FED700"/>
<path fill-rule="evenodd" clip-rule="evenodd" d="M12.3018 4.37405C12.2236 4.37405 12.1593 4.43694 12.1593 4.5166C12.1593 4.59625 12.2222 4.65774 12.3018 4.65774C12.3815 4.65774 12.4444 4.59485 12.4444 4.5166C12.4444 4.43834 12.3815 4.37405 12.3018 4.37405Z" fill="#FED700"/>
<path fill-rule="evenodd" clip-rule="evenodd" d="M11.9902 4.16443C11.9119 4.16443 11.8477 4.22731 11.8477 4.30697C11.8477 4.38663 11.9105 4.44811 11.9902 4.44811C12.0699 4.44811 12.1327 4.38523 12.1327 4.30697C12.1327 4.22871 12.0699 4.16443 11.9902 4.16443Z" fill="#FED700"/>
<path fill-rule="evenodd" clip-rule="evenodd" d="M11.6325 4.05124C11.5542 4.05124 11.4899 4.11412 11.4899 4.19378C11.4899 4.27344 11.5528 4.33632 11.6325 4.33632C11.7121 4.33632 11.7736 4.27344 11.7736 4.19378C11.7736 4.11412 11.7107 4.05124 11.6325 4.05124Z" fill="#FED700"/>
<path fill-rule="evenodd" clip-rule="evenodd" d="M11.2566 4.03867C11.1783 4.03867 11.114 4.10155 11.114 4.17981C11.114 4.25807 11.1769 4.32235 11.2566 4.32235C11.3362 4.32235 11.3991 4.25946 11.3991 4.17981C11.3991 4.10015 11.3362 4.03867 11.2566 4.03867Z" fill="#FED700"/>
<path fill-rule="evenodd" clip-rule="evenodd" d="M10.8834 4.09595C10.8052 4.09595 10.7409 4.15883 10.7409 4.23849C10.7409 4.31814 10.8038 4.37963 10.8834 4.37963C10.9631 4.37963 11.026 4.31675 11.026 4.23849C11.026 4.16023 10.9631 4.09595 10.8834 4.09595Z" fill="#FED700"/>
<path fill-rule="evenodd" clip-rule="evenodd" d="M10.5117 4.15466C10.4334 4.15466 10.3691 4.21755 10.3691 4.2972C10.3691 4.37686 10.432 4.43835 10.5117 4.43835C10.5913 4.43835 10.6542 4.37406 10.6542 4.2972C10.6542 4.22034 10.5913 4.15466 10.5117 4.15466Z" fill="#FED700"/>
<path fill-rule="evenodd" clip-rule="evenodd" d="M10.14 4.21335C10.0617 4.21335 9.99744 4.27623 9.99744 4.35589C9.99744 4.43554 10.0603 4.49703 10.14 4.49703C10.2196 4.49703 10.2811 4.43415 10.2811 4.35589C10.2811 4.27763 10.2168 4.21335 10.14 4.21335Z" fill="#FED700"/>
<path fill-rule="evenodd" clip-rule="evenodd" d="M9.76687 4.27203C9.68861 4.27203 9.62433 4.33492 9.62433 4.41457C9.62433 4.49423 9.68721 4.55712 9.76687 4.55712C9.84652 4.55712 9.90941 4.49423 9.90941 4.41457C9.90941 4.33492 9.84652 4.27203 9.76687 4.27203Z" fill="#FED700"/>
<path fill-rule="evenodd" clip-rule="evenodd" d="M12.6261 6.14325C12.5478 6.14325 12.4835 6.20614 12.4835 6.28579C12.4835 6.36545 12.5464 6.42833 12.6261 6.42833C12.7057 6.42833 12.7672 6.36545 12.7672 6.28579C12.7672 6.20614 12.7043 6.14325 12.6261 6.14325Z" fill="#FED700"/>
<path fill-rule="evenodd" clip-rule="evenodd" d="M12.0964 7.61475C12.0265 7.68742 11.9594 7.76568 11.8994 7.84534C11.9203 7.77406 11.9343 7.70559 11.9413 7.63991C11.9553 7.51693 11.9469 7.40234 11.9189 7.29893C11.9315 7.30452 11.9441 7.31011 11.958 7.3129C12.0098 7.32548 12.067 7.32129 12.1271 7.29474C12.1719 7.27517 12.2138 7.24443 12.2529 7.2067C12.2557 7.24163 12.2683 7.26958 12.292 7.29054C12.3242 7.31709 12.3717 7.32548 12.429 7.3171C12.3102 7.40793 12.1984 7.50855 12.0964 7.61475Z" fill="black"/>
<path fill-rule="evenodd" clip-rule="evenodd" d="M9.0178 4.71363C8.9633 4.71363 8.9074 4.71223 8.8529 4.70804C8.84871 4.96936 8.83194 5.23069 8.80119 5.48642C8.77185 5.73517 8.72992 5.98113 8.67682 6.22009C8.78303 6.17957 8.89762 6.15581 9.0178 6.15581C9.13798 6.15581 9.25257 6.17817 9.35878 6.22009C9.30568 5.98113 9.26375 5.73517 9.23441 5.48642C9.20366 5.23069 9.18689 4.97076 9.1827 4.70804C9.1282 4.71083 9.0737 4.71363 9.0178 4.71363Z" fill="black"/>
<path fill-rule="evenodd" clip-rule="evenodd" d="M9.01782 4.43832C9.06254 4.43832 9.09887 4.47466 9.09887 4.51938C9.09887 4.5641 9.06254 4.60043 9.01782 4.60043C8.9731 4.60043 8.93677 4.5641 8.93677 4.51938C8.93677 4.47466 8.9731 4.43832 9.01782 4.43832Z" fill="#FED700"/>
<path fill-rule="evenodd" clip-rule="evenodd" d="M9.05413 5.731C9.14916 5.74777 9.22183 5.83161 9.22183 5.93223C9.22183 6.04543 9.12959 6.13766 9.0164 6.13766C8.90321 6.13766 8.81097 6.04543 8.81097 5.93223C8.81097 5.83161 8.88364 5.74777 8.97867 5.731C8.89063 5.71423 8.82495 5.63597 8.82495 5.54374C8.82495 5.4515 8.88783 5.37744 8.97168 5.35787C8.89901 5.33831 8.84591 5.27263 8.84591 5.19437C8.84591 5.11611 8.90041 5.04764 8.97448 5.03087C8.91019 5.0141 8.86128 4.95401 8.86128 4.88413C8.86128 4.80029 8.92976 4.73181 9.01361 4.73181C9.09745 4.73181 9.16593 4.80029 9.16593 4.88413C9.16593 4.95401 9.11842 5.0141 9.05273 5.03087C9.1268 5.04904 9.1813 5.11472 9.1813 5.19437C9.1813 5.27403 9.1282 5.33831 9.05553 5.35787C9.13938 5.37744 9.20226 5.4529 9.20226 5.54374C9.20226 5.63457 9.13658 5.71283 9.04854 5.731H9.05413Z" fill="black"/>
<path fill-rule="evenodd" clip-rule="evenodd" d="M9.01781 8.40714C8.17095 8.40714 7.40374 8.45605 6.85035 8.5343C6.31093 8.61116 5.97833 8.71038 5.97833 8.8124C5.97833 8.91441 6.31233 9.01363 6.85035 9.09049C7.40514 9.17015 8.17095 9.21766 9.01781 9.21766C9.86467 9.21766 10.6319 9.16875 11.1853 9.09049C11.7247 9.01363 12.0573 8.91441 12.0573 8.8124C12.0573 8.71038 11.7233 8.61116 11.1853 8.5343C10.6305 8.45605 9.86467 8.40714 9.01781 8.40714Z" fill="black"/>
<path fill-rule="evenodd" clip-rule="evenodd" d="M9.01779 5.79108C9.09605 5.79108 9.16033 5.85396 9.16033 5.93362C9.16033 6.01327 9.09745 6.07616 9.01779 6.07616C8.93814 6.07616 8.87665 6.01327 8.87665 5.93362C8.87665 5.85396 8.93953 5.79108 9.01779 5.79108Z" fill="#FED700"/>
<path fill-rule="evenodd" clip-rule="evenodd" d="M9.01784 4.79468C9.06675 4.79468 9.10728 4.8352 9.10728 4.88412C9.10728 4.93303 9.06675 4.97355 9.01784 4.97355C8.96893 4.97355 8.92841 4.93303 8.92841 4.88412C8.92841 4.8352 8.96893 4.79468 9.01784 4.79468Z" fill="#FED700"/>
<path fill-rule="evenodd" clip-rule="evenodd" d="M9.01783 5.08954C9.07652 5.08954 9.12404 5.13705 9.12404 5.19575C9.12404 5.25444 9.07652 5.30195 9.01783 5.30195C8.95913 5.30195 8.91162 5.25444 8.91162 5.19575C8.91162 5.13705 8.95913 5.08954 9.01783 5.08954Z" fill="#FED700"/>
<path fill-rule="evenodd" clip-rule="evenodd" d="M9.01779 5.41656C9.08767 5.41656 9.14496 5.47386 9.14496 5.54373C9.14496 5.61361 9.08767 5.6709 9.01779 5.6709C8.94792 5.6709 8.89062 5.61361 8.89062 5.54373C8.89062 5.47386 8.94792 5.41656 9.01779 5.41656Z" fill="#FED700"/>
<path fill-rule="evenodd" clip-rule="evenodd" d="M9.01781 6.21871C8.79282 6.21871 8.586 6.30395 8.43088 6.4437C8.27436 6.58484 8.16816 6.78328 8.1458 7.00548C8.1444 7.02225 8.12903 7.03482 8.11086 7.03343C8.09828 7.03343 8.0885 7.02364 8.08431 7.01246C8.00186 6.78887 7.84115 6.58903 7.64411 6.4451C7.44986 6.30395 7.21788 6.21731 6.99149 6.21731C6.79305 6.21731 6.62815 6.28299 6.51216 6.39479C6.39338 6.50798 6.3263 6.67009 6.3249 6.85595C6.3249 6.87272 6.31093 6.88669 6.29276 6.88669C6.28578 6.88669 6.27879 6.8839 6.2732 6.87971C6.03982 6.69384 5.71701 6.53174 5.41376 6.53174C5.23209 6.53174 5.04762 6.59323 4.97076 6.7721C5.09374 6.90346 5.19576 7.05439 5.27122 7.21789L5.942 8.74112C5.96576 8.71457 6.00209 8.68942 6.051 8.66426L6.00768 8.55526C6.00069 8.53849 6.00908 8.52033 6.02585 8.51474C6.04262 8.50775 6.06078 8.51474 6.06637 8.5329L6.1097 8.63911C6.14743 8.62374 6.18935 8.60837 6.23686 8.59439L6.19913 8.49098C6.19354 8.47421 6.20193 8.45604 6.2173 8.45045C6.23407 8.44486 6.25224 8.45325 6.25783 8.46862L6.29696 8.57622C6.33888 8.56504 6.38499 8.55386 6.43251 8.54269L6.39617 8.43508C6.39059 8.41831 6.39897 8.40014 6.41574 8.39595C6.43251 8.39036 6.44928 8.39875 6.45487 8.41552L6.4926 8.52871C6.53732 8.51893 6.58483 8.51054 6.63374 8.50216L6.59881 8.38896C6.59322 8.37219 6.603 8.35543 6.61977 8.34984C6.63654 8.34425 6.65471 8.35403 6.6589 8.3708L6.69523 8.49238C6.74135 8.48539 6.78746 8.477 6.83637 8.47002H6.83917L6.80703 8.34844C6.80284 8.33167 6.81262 8.3149 6.82939 8.30931C6.84616 8.30512 6.86293 8.3149 6.86852 8.33167L6.90345 8.46023C6.95097 8.45325 6.99988 8.44766 7.05019 8.44207L7.01944 8.3135C7.01525 8.29673 7.02643 8.27996 7.0432 8.27577C7.05997 8.27158 7.07674 8.28276 7.08093 8.29953L7.11307 8.43508C7.16198 8.42949 7.2109 8.4239 7.2626 8.41971L7.23465 8.28555C7.23046 8.26878 7.24164 8.25201 7.25841 8.24782C7.27518 8.24363 7.29195 8.25481 7.29614 8.27158L7.32549 8.41272C7.3744 8.40853 7.42471 8.40434 7.47641 8.40014L7.45126 8.259C7.44846 8.24223 7.45964 8.22546 7.47641 8.22267C7.49318 8.21987 7.50995 8.23105 7.51275 8.24782L7.5393 8.39455C7.58821 8.39036 7.63992 8.38757 7.69022 8.38337L7.66786 8.23664C7.66507 8.21987 7.67765 8.2031 7.69442 8.20031C7.71119 8.19751 7.72796 8.21009 7.73075 8.22686L7.75451 8.37778C7.80482 8.37499 7.85512 8.3708 7.90683 8.368L7.88727 8.21708C7.88447 8.20031 7.89705 8.18354 7.91522 8.18214C7.93198 8.18074 7.94875 8.19192 7.95015 8.21009L7.96972 8.36521C8.02003 8.36241 8.07033 8.35962 8.12204 8.35822L8.10667 8.2031C8.10527 8.18633 8.11785 8.17096 8.13462 8.16817C8.15139 8.16677 8.16676 8.17935 8.16955 8.19611L8.18493 8.35403C8.23523 8.35263 8.28694 8.34984 8.33725 8.34844L8.32607 8.19052C8.32607 8.17376 8.33865 8.15838 8.35542 8.15699C8.37219 8.15699 8.38756 8.16956 8.38895 8.18633L8.40013 8.34704C8.45044 8.34564 8.50215 8.34425 8.55246 8.34285L8.54547 8.18354C8.54547 8.16677 8.55805 8.1514 8.57482 8.1514C8.59159 8.1514 8.60696 8.16397 8.60836 8.18074L8.61674 8.34285C8.66705 8.34285 8.71876 8.34145 8.76906 8.34005L8.76487 8.17934C8.76487 8.16258 8.77745 8.1472 8.79562 8.1472C8.81239 8.1472 8.82776 8.16118 8.82776 8.17795L8.83195 8.34005C8.88226 8.34005 8.93396 8.34005 8.98427 8.34005V8.17795C8.98427 8.16118 8.99825 8.14581 9.01641 8.14581C9.03458 8.14581 9.04856 8.15978 9.04856 8.17795V8.34005C9.10026 8.34005 9.15057 8.34005 9.20088 8.34005L9.20507 8.17795C9.20507 8.16118 9.22044 8.1472 9.23721 8.1472C9.25398 8.1472 9.26796 8.16258 9.26796 8.17934L9.26377 8.34005C9.31547 8.34005 9.36578 8.34005 9.41609 8.34285L9.42447 8.18074C9.42447 8.16397 9.43985 8.15 9.45801 8.1514C9.47478 8.1514 9.48876 8.16677 9.48736 8.18354L9.48037 8.34285C9.53208 8.34285 9.58239 8.34564 9.6327 8.34704L9.64388 8.18633C9.64388 8.16956 9.66065 8.15559 9.67741 8.15699C9.69418 8.15699 9.70816 8.17376 9.70676 8.19052L9.69558 8.34844C9.74729 8.34984 9.7976 8.35123 9.8479 8.35403L9.86328 8.19611C9.86467 8.17935 9.88005 8.16677 9.89821 8.16817C9.91498 8.16956 9.92756 8.18493 9.92616 8.2031L9.91079 8.35822C9.9625 8.36102 10.0128 8.36241 10.0631 8.36521L10.0827 8.21009C10.0841 8.19332 10.1008 8.18074 10.1176 8.18214C10.1344 8.18493 10.147 8.20031 10.1456 8.21708L10.126 8.368C10.1777 8.3708 10.228 8.37359 10.2783 8.37778L10.3021 8.22686C10.3049 8.21009 10.3202 8.19751 10.3384 8.20031C10.3552 8.2031 10.3678 8.21847 10.365 8.23664L10.3426 8.38337C10.3943 8.38617 10.4446 8.39036 10.4935 8.39455L10.5201 8.24782C10.5229 8.23105 10.5396 8.21987 10.5564 8.22267C10.5732 8.22546 10.5844 8.24223 10.5816 8.259L10.5564 8.40014C10.6081 8.40434 10.657 8.40853 10.7073 8.41272L10.7367 8.27158C10.7395 8.25481 10.7563 8.24363 10.7744 8.24782C10.7912 8.25062 10.8024 8.26739 10.7982 8.28555L10.7702 8.41971C10.8205 8.4253 10.8708 8.42949 10.9198 8.43508L10.9519 8.29953C10.9561 8.28276 10.9729 8.27298 10.9896 8.27577C11.0064 8.27996 11.0162 8.29673 11.0134 8.3135L10.9826 8.44207C11.033 8.44766 11.0819 8.45465 11.1294 8.46023L11.1643 8.33167C11.1685 8.3149 11.1867 8.30512 11.2034 8.30931C11.2202 8.3135 11.23 8.33167 11.2258 8.34844L11.1937 8.46862H11.1965C11.2454 8.47561 11.2929 8.48259 11.3376 8.49098L11.3739 8.3694C11.3795 8.35263 11.3963 8.34285 11.4131 8.34844C11.4298 8.35403 11.4396 8.3708 11.434 8.38757L11.3991 8.50076C11.448 8.50915 11.4955 8.51893 11.5402 8.52731L11.578 8.41412C11.5836 8.39735 11.6017 8.38896 11.6171 8.39455C11.6339 8.40014 11.6422 8.41831 11.6367 8.43368L11.6003 8.54129C11.6492 8.55247 11.694 8.56365 11.7359 8.57483L11.775 8.46722C11.7806 8.45045 11.7988 8.44207 11.8155 8.44905C11.8323 8.45464 11.8407 8.47281 11.8337 8.48958L11.796 8.59299C11.8435 8.60697 11.8868 8.62234 11.9231 8.63771L11.9665 8.53151C11.9734 8.51474 11.9916 8.50775 12.007 8.51334C12.0238 8.52033 12.0307 8.53849 12.0251 8.55386L11.9818 8.66287C12.0307 8.68662 12.0671 8.71318 12.0908 8.73973L12.7616 7.21649C12.8371 7.05299 12.9391 6.90207 13.0621 6.7707C12.9852 6.59323 12.8007 6.53034 12.6191 6.53034C12.3144 6.53034 11.993 6.69105 11.7596 6.87831C11.754 6.8825 11.7471 6.8853 11.7401 6.8853C11.7233 6.8853 11.7093 6.87132 11.7093 6.85455C11.7093 6.66869 11.6408 6.50658 11.5221 6.39339C11.4061 6.28159 11.2412 6.21591 11.0427 6.21591C10.8149 6.21591 10.5844 6.30255 10.3901 6.4437C10.1931 6.58764 10.0324 6.78608 9.94992 7.01107C9.94573 7.02225 9.93595 7.03063 9.92337 7.03203C9.9066 7.03343 9.89123 7.02085 9.88843 7.00408C9.86607 6.78188 9.75986 6.58484 9.60335 6.4423C9.44823 6.30255 9.2428 6.21731 9.01641 6.21731L9.01781 6.21871ZM12.1397 7.66089C11.9902 7.8174 11.8616 7.99069 11.7638 8.17096C11.7554 8.18633 11.7373 8.19192 11.7219 8.18354C11.7065 8.17515 11.7009 8.15699 11.7093 8.14161C11.8057 7.96134 11.8616 7.78945 11.8798 7.63434C11.898 7.47502 11.877 7.33109 11.8197 7.2137C11.8127 7.19833 11.8197 7.17876 11.8337 7.17178C11.8477 7.16479 11.8658 7.17038 11.8742 7.18296C11.9008 7.21929 11.9357 7.24444 11.9748 7.25423C12.0126 7.26401 12.0573 7.25982 12.1034 7.23885C12.1425 7.22208 12.1803 7.19413 12.2152 7.1592C12.2515 7.12286 12.2837 7.07675 12.3102 7.02644L12.3522 6.94958C12.3605 6.93421 12.3787 6.92862 12.3941 6.937C12.4095 6.94539 12.415 6.96355 12.4067 6.97893L12.3647 7.05718C12.3382 7.10609 12.3214 7.14942 12.3186 7.18435C12.3158 7.2109 12.3214 7.23187 12.3354 7.24444C12.3549 7.26121 12.3927 7.26401 12.4402 7.25423C12.4961 7.24305 12.566 7.2151 12.64 7.17317C12.654 7.16479 12.6722 7.17038 12.682 7.18435C12.6917 7.19833 12.6875 7.21789 12.6722 7.22767C12.4807 7.35065 12.3004 7.49878 12.1425 7.66228L12.1397 7.66089ZM5.89588 7.66089C5.73937 7.49738 5.5577 7.34786 5.36625 7.22628C5.35227 7.21649 5.34668 7.19693 5.35646 7.18296C5.36485 7.16898 5.38441 7.16479 5.39839 7.17178C5.47245 7.2137 5.54233 7.24165 5.59822 7.25283C5.64574 7.26261 5.68207 7.25982 5.70303 7.24305C5.71701 7.23047 5.7226 7.2109 5.7198 7.18296C5.71701 7.14802 5.70024 7.1047 5.67369 7.05579L5.63176 6.97753C5.62338 6.96216 5.62897 6.94259 5.64434 6.9356C5.65971 6.92722 5.67928 6.93281 5.68626 6.94818L5.72819 7.02504C5.75474 7.07535 5.78688 7.12147 5.82322 7.1578C5.85675 7.19274 5.89449 7.22069 5.93501 7.23746C5.98113 7.25842 6.02445 7.26261 6.06358 7.25283C6.10271 7.24305 6.13764 7.21789 6.1642 7.18156C6.17258 7.16898 6.18935 7.16339 6.20472 7.17038C6.22009 7.17737 6.22708 7.19693 6.2187 7.2123C6.1614 7.33109 6.14044 7.47363 6.15861 7.63294C6.17677 7.78806 6.23267 7.95994 6.3291 8.14022C6.33748 8.15559 6.33189 8.17515 6.31652 8.18214C6.30115 8.19052 6.28298 8.18493 6.2746 8.16956C6.17817 7.98929 6.0496 7.81601 5.89868 7.65949L5.89588 7.66089ZM7.59799 6.91185C7.60917 6.90067 7.62734 6.89787 7.63992 6.90766C7.65389 6.91744 7.65668 6.9384 7.64551 6.95237C7.54908 7.08094 7.4834 7.23606 7.45825 7.40795C7.43309 7.57424 7.44287 7.75871 7.49458 7.95156C7.49877 7.96833 7.48899 7.9851 7.47222 7.99069C7.45545 7.99488 7.43868 7.9851 7.43309 7.96833C7.38139 7.77408 7.29335 7.58962 7.17736 7.42192C7.05717 7.24724 6.90765 7.08933 6.73855 6.95936C6.72458 6.94818 6.72178 6.92862 6.73296 6.91604C6.74275 6.90346 6.76091 6.89927 6.77489 6.90905C6.84196 6.95377 6.90765 6.98312 6.96354 6.9957C7.01385 7.00548 7.05578 7.00268 7.08373 6.98312C7.10609 6.96775 7.12006 6.94259 7.12565 6.91045C7.13264 6.87272 7.12705 6.8266 7.11307 6.7749L7.09071 6.69105C7.08652 6.67428 7.0963 6.65751 7.11307 6.65192C7.12984 6.64773 7.14661 6.65751 7.1522 6.67428C7.16059 6.70502 7.16897 6.73577 7.17736 6.76651C7.18993 6.81263 7.2081 6.85735 7.23605 6.89787C7.2612 6.93421 7.29335 6.96216 7.32968 6.98032C7.373 7.00129 7.41772 7.00548 7.46244 6.9957C7.50995 6.98452 7.55607 6.95657 7.59799 6.91464V6.91185ZM9.01781 7.98929C9.00104 7.98929 8.98567 7.97532 8.98567 7.95715C8.98567 7.7643 8.94654 7.57983 8.87667 7.41354C8.804 7.24025 8.6964 7.08374 8.56364 6.95377C8.55106 6.94119 8.55106 6.92163 8.56364 6.90905C8.57482 6.89787 8.59298 6.89648 8.60556 6.90626C8.66006 6.94958 8.71596 6.97893 8.76767 6.99011C8.92279 7.02504 8.98707 6.90067 8.98567 6.76092V6.67707C8.98567 6.6603 8.99965 6.64493 9.01641 6.64493C9.03318 6.64493 9.04856 6.65891 9.04856 6.67707V6.76092C9.04576 6.90067 9.11005 7.02504 9.26516 6.99011C9.31687 6.97893 9.37277 6.94958 9.42867 6.90626C9.44124 6.89648 9.45941 6.89787 9.47059 6.90905C9.48317 6.92163 9.48317 6.94119 9.47059 6.95377C9.33783 7.08374 9.23023 7.24025 9.15756 7.41354C9.08769 7.57983 9.04856 7.7643 9.04856 7.95715C9.04856 7.97392 9.03458 7.98789 9.01641 7.98929H9.01781ZM10.4376 6.91185C10.4796 6.95377 10.5257 6.98172 10.5732 6.9929C10.6179 7.00408 10.6626 6.99989 10.7059 6.97753C10.7423 6.95936 10.773 6.93141 10.7982 6.89508C10.8261 6.85455 10.8443 6.81123 10.8583 6.76372C10.8667 6.73297 10.875 6.70223 10.8834 6.67148C10.8876 6.65472 10.9058 6.64493 10.9226 6.64913C10.9393 6.65332 10.9491 6.67148 10.9449 6.68825L10.9226 6.7721C10.9072 6.82381 10.903 6.86992 10.91 6.90766C10.9156 6.9398 10.9295 6.96495 10.9519 6.98032C10.9812 6.99989 11.0232 7.00408 11.0721 6.9929C11.128 6.98172 11.1937 6.95098 11.2607 6.90626C11.2747 6.89787 11.2929 6.90067 11.3027 6.91325C11.3138 6.92722 11.311 6.94678 11.2971 6.95657C11.128 7.08793 10.9785 7.24444 10.8583 7.41913C10.7423 7.58682 10.6542 7.77129 10.6025 7.96553C10.5983 7.9823 10.5802 7.99209 10.5634 7.98789C10.5466 7.9837 10.5369 7.96553 10.541 7.94876C10.5928 7.75591 10.6025 7.57285 10.5774 7.40515C10.5508 7.23326 10.4865 7.07815 10.3901 6.94958C10.3803 6.9356 10.3817 6.91604 10.3957 6.90486C10.4083 6.89508 10.4279 6.89787 10.4376 6.90905V6.91185ZM9.69418 7.0474C9.68999 7.06417 9.67182 7.07395 9.65505 7.06976C9.63828 7.06557 9.6285 7.0474 9.6327 7.03063L9.68021 6.85176C9.6844 6.83499 9.70257 6.8252 9.71934 6.8294C9.73611 6.83359 9.74589 6.85176 9.7417 6.86853L9.69418 7.0474ZM6.02166 6.90905C6.02864 6.92582 6.02026 6.94399 6.00349 6.94958C5.98672 6.95657 5.96855 6.94818 5.96296 6.93141L5.90567 6.79027C5.89868 6.7749 5.90567 6.75533 5.92383 6.74974C5.9392 6.74275 5.95877 6.74974 5.96436 6.76791L6.02166 6.90905ZM5.83719 6.83918C5.84418 6.85455 5.83719 6.87412 5.82182 6.8811C5.80645 6.88809 5.78688 6.8811 5.77989 6.86573L5.71002 6.7176C5.70303 6.70223 5.71002 6.68266 5.72539 6.67568C5.74077 6.66869 5.76033 6.67568 5.76732 6.69105L5.83719 6.83918ZM5.67928 6.80844C5.68766 6.82381 5.68207 6.84337 5.6667 6.85036C5.65133 6.85874 5.63176 6.85315 5.62478 6.83778L5.54372 6.68686C5.53534 6.67148 5.54093 6.65192 5.5563 6.64493C5.57167 6.63655 5.59124 6.64214 5.59822 6.65751L5.67928 6.80844ZM5.54512 6.80844C5.55351 6.82381 5.54792 6.84337 5.53254 6.85036C5.51717 6.85874 5.49761 6.85315 5.49062 6.83778L5.40957 6.68686C5.40118 6.67148 5.40677 6.65192 5.42214 6.64493C5.43752 6.63655 5.45708 6.64214 5.46407 6.65751L5.54512 6.80844ZM5.41795 6.83638C5.42634 6.85176 5.42214 6.87132 5.40677 6.87971C5.3914 6.88809 5.37323 6.8839 5.36345 6.86853L5.27401 6.7204C5.26563 6.70502 5.26982 6.68686 5.28519 6.67707C5.30057 6.66869 5.32013 6.67288 5.32851 6.68825L5.41795 6.83638ZM5.30755 6.90346C5.31733 6.91744 5.31314 6.937 5.29917 6.94678C5.28519 6.95657 5.26563 6.95237 5.25585 6.9384L5.16222 6.79726C5.15243 6.78328 5.15663 6.76372 5.1706 6.75393C5.18458 6.74415 5.20414 6.74834 5.21392 6.76232L5.30755 6.90346ZM12.014 6.90905L12.0713 6.76791C12.0783 6.75114 12.0964 6.74415 12.1118 6.74974C12.1286 6.75673 12.1355 6.7749 12.13 6.79027L12.0727 6.93141C12.0657 6.94818 12.0475 6.95517 12.0321 6.94958C12.0168 6.94259 12.0084 6.92442 12.0154 6.90905H12.014ZM12.1984 6.83918L12.2683 6.69105C12.2753 6.67568 12.2949 6.66869 12.3102 6.67568C12.3256 6.68266 12.3326 6.70223 12.3256 6.7176L12.2557 6.86573C12.2487 6.8811 12.2292 6.88809 12.2138 6.8811C12.1984 6.87412 12.1914 6.85455 12.1984 6.83918ZM12.3563 6.80844L12.4374 6.65751C12.4458 6.64214 12.464 6.63655 12.4793 6.64493C12.4947 6.65332 12.5003 6.67148 12.4919 6.68686L12.4108 6.83778C12.4025 6.85315 12.3829 6.85874 12.3689 6.85036C12.3536 6.84197 12.348 6.82241 12.3563 6.80844ZM12.4905 6.80844L12.5716 6.65751C12.5799 6.64214 12.5995 6.63655 12.6135 6.64493C12.6289 6.65332 12.6344 6.67148 12.6261 6.68686L12.545 6.83778C12.5366 6.85315 12.5185 6.85874 12.5031 6.85036C12.4877 6.84197 12.4821 6.82241 12.4905 6.80844ZM12.6177 6.83638L12.7071 6.68825C12.7155 6.67288 12.7351 6.66869 12.7504 6.67707C12.7658 6.68546 12.77 6.70502 12.7616 6.7204L12.6722 6.86853C12.6638 6.8839 12.6442 6.88809 12.6289 6.87971C12.6135 6.87132 12.6093 6.85176 12.6177 6.83638ZM12.7281 6.90346L12.8217 6.76232C12.8315 6.74834 12.851 6.74415 12.865 6.75393C12.879 6.76372 12.8832 6.78328 12.8734 6.79726L12.7798 6.9384C12.77 6.95237 12.7504 6.95657 12.7365 6.94678C12.7225 6.937 12.7183 6.91744 12.7281 6.90346ZM11.8044 7.03762L11.8491 6.90346C11.8547 6.88669 11.8728 6.87831 11.8882 6.8839C11.905 6.88949 11.9134 6.90766 11.9078 6.92303L11.863 7.05718C11.8575 7.07395 11.8393 7.08234 11.8239 7.07675C11.8071 7.07116 11.7988 7.05299 11.8044 7.03762ZM6.23127 7.03762C6.23686 7.05439 6.22848 7.07116 6.21171 7.07675C6.19494 7.08234 6.17817 7.07395 6.17258 7.05718L6.12786 6.92303C6.12227 6.90626 6.13066 6.88949 6.14743 6.8839C6.1642 6.87831 6.18097 6.88669 6.18656 6.90346L6.23127 7.03762ZM10.5131 6.63096L10.5341 6.48003C10.5369 6.46326 10.5522 6.45069 10.569 6.45348C10.5858 6.45628 10.5983 6.47165 10.5955 6.48842L10.5746 6.63934C10.5718 6.65611 10.5564 6.66869 10.5396 6.66589C10.5229 6.6631 10.5103 6.64773 10.5131 6.63096ZM10.6906 6.5541L10.7227 6.39618C10.7255 6.37941 10.7423 6.36824 10.759 6.37103C10.7758 6.37383 10.787 6.39059 10.7842 6.40736L10.7521 6.56528C10.7493 6.58205 10.7325 6.59323 10.7157 6.59043C10.699 6.58764 10.6878 6.57087 10.6906 6.5527V6.5541ZM10.8499 6.52196L10.8932 6.35985C10.8974 6.34308 10.9156 6.3333 10.9323 6.33749C10.9491 6.34168 10.9589 6.35985 10.9547 6.37662L10.9114 6.53873C10.9072 6.5555 10.889 6.56528 10.8722 6.56108C10.8555 6.55689 10.8457 6.53873 10.8499 6.52196ZM10.9952 6.52196L11.0385 6.35985C11.0427 6.34308 11.0609 6.3333 11.0777 6.33749C11.0944 6.34168 11.1042 6.35985 11.1 6.37662L11.0567 6.53873C11.0525 6.5555 11.0343 6.56528 11.0176 6.56108C11.0008 6.55689 10.991 6.53873 10.9952 6.52196ZM11.1392 6.5513L11.1923 6.39339C11.1979 6.37662 11.216 6.36824 11.2314 6.37383C11.2482 6.37941 11.2565 6.39758 11.251 6.41295L11.1979 6.57087C11.1923 6.58764 11.1741 6.59602 11.1587 6.59043C11.142 6.58484 11.1336 6.56667 11.1392 6.5513ZM11.2775 6.62257L11.3376 6.47165C11.3446 6.45628 11.3628 6.44789 11.3781 6.45348C11.3935 6.46047 11.4019 6.47863 11.3949 6.49401L11.3348 6.64493C11.3278 6.6603 11.3096 6.66869 11.2943 6.6617C11.2775 6.65471 11.2705 6.63655 11.2761 6.62118L11.2775 6.62257ZM11.3921 6.75673L11.4592 6.61279C11.4662 6.59742 11.4857 6.59043 11.5011 6.59742C11.5165 6.60441 11.5235 6.62397 11.5165 6.63934L11.4494 6.78328C11.4424 6.79865 11.4228 6.80564 11.4075 6.79865C11.3921 6.79167 11.3851 6.7721 11.3921 6.75673ZM11.434 7.02364L11.5304 6.84477C11.5388 6.8294 11.557 6.82381 11.5724 6.83219C11.5877 6.84058 11.5933 6.85874 11.5849 6.87412L11.4885 7.05299C11.4801 7.06836 11.462 7.07395 11.4466 7.06557C11.4312 7.05718 11.4256 7.03902 11.434 7.02364ZM10.3244 6.76791L10.3342 6.62397C10.3342 6.6072 10.3496 6.59323 10.3678 6.59462C10.3845 6.59462 10.3985 6.61139 10.3971 6.62816L10.3873 6.7721C10.3873 6.78887 10.3706 6.80285 10.3538 6.80145C10.337 6.80145 10.323 6.78468 10.3244 6.76791ZM7.52253 6.63096C7.52532 6.64773 7.51275 6.6645 7.49598 6.66589C7.47921 6.66869 7.46244 6.65611 7.46104 6.63934L7.44008 6.48842C7.43728 6.47165 7.44986 6.45488 7.46663 6.45348C7.4834 6.45069 7.50017 6.46326 7.50157 6.48003L7.52253 6.63096ZM7.34505 6.5541C7.34785 6.57087 7.33806 6.58764 7.3199 6.59183C7.30313 6.59462 7.28636 6.58344 7.28356 6.56667L7.25142 6.40876C7.24863 6.39199 7.25841 6.37522 7.27658 6.37243C7.29334 6.36963 7.31011 6.38081 7.31291 6.39758L7.34505 6.55549V6.5541ZM7.18574 6.52196C7.18993 6.53873 7.18015 6.5555 7.16338 6.56108C7.14661 6.56528 7.12984 6.5555 7.12425 6.53873L7.08093 6.37662C7.07674 6.35985 7.08652 6.34308 7.10329 6.33749C7.12006 6.3333 7.13683 6.34308 7.14242 6.35985L7.18574 6.52196ZM7.0404 6.52196C7.0446 6.53873 7.03481 6.5555 7.01805 6.56108C7.00128 6.56528 6.98451 6.5555 6.97892 6.53873L6.9356 6.37662C6.9314 6.35985 6.94118 6.34308 6.95795 6.33749C6.97472 6.3333 6.99149 6.34308 6.99708 6.35985L7.0404 6.52196ZM6.89647 6.5513C6.90206 6.56807 6.89367 6.58484 6.8769 6.59043C6.86013 6.59602 6.84336 6.58624 6.83777 6.57087L6.78467 6.41295C6.77908 6.39618 6.78886 6.37802 6.80423 6.37383C6.821 6.36824 6.83917 6.37662 6.84336 6.39339L6.89647 6.5513ZM6.75812 6.62257C6.7651 6.63934 6.75812 6.65751 6.73995 6.6631C6.72458 6.67009 6.70501 6.6617 6.69942 6.64633L6.63933 6.4954C6.63235 6.47863 6.64073 6.46047 6.6575 6.45488C6.67427 6.44789 6.69244 6.45628 6.69803 6.47304L6.75812 6.62397V6.62257ZM6.64353 6.75673C6.65051 6.7721 6.64353 6.79167 6.62815 6.79865C6.61278 6.80564 6.59322 6.79865 6.58623 6.78328L6.51915 6.63934C6.51216 6.62397 6.51915 6.60441 6.53452 6.59742C6.5499 6.59043 6.56946 6.59742 6.57645 6.61279L6.64353 6.75673ZM6.6016 7.02364C6.60999 7.03902 6.6044 7.05858 6.58902 7.06557C6.57365 7.07395 6.55549 7.06836 6.5471 7.05299L6.45068 6.87412C6.44229 6.85874 6.44788 6.84058 6.46325 6.83219C6.47863 6.82381 6.49819 6.8294 6.50518 6.84477L6.6016 7.02364ZM7.71119 6.76791C7.71119 6.78468 7.69861 6.80005 7.68184 6.80145C7.66507 6.80145 7.6497 6.78887 7.6483 6.7721L7.63852 6.62816C7.63852 6.61139 7.6511 6.59602 7.66786 6.59462C7.68463 6.59462 7.70001 6.6072 7.7014 6.62397L7.71119 6.76791ZM9.58099 6.77629C9.57819 6.79306 9.56143 6.80424 9.54326 6.80145C9.52649 6.79865 9.51531 6.78188 9.5181 6.76372L9.54745 6.61978C9.55025 6.60301 9.56702 6.59183 9.58378 6.59462C9.60055 6.59742 9.61173 6.61419 9.60894 6.63236L9.57959 6.77629H9.58099ZM9.43006 6.63934C9.42727 6.65611 9.4119 6.66869 9.39513 6.66589C9.37836 6.6631 9.36578 6.64773 9.36858 6.63096L9.38814 6.48003C9.39093 6.46326 9.40631 6.45069 9.42308 6.45348C9.43985 6.45628 9.45242 6.47165 9.44963 6.48842L9.43006 6.63934ZM9.27355 6.56248C9.27355 6.57925 9.25818 6.59323 9.24001 6.59183C9.22324 6.59183 9.20927 6.57506 9.21066 6.55829L9.22045 6.40038C9.22045 6.38361 9.23582 6.36963 9.25398 6.37103C9.27075 6.37103 9.28473 6.3864 9.28333 6.40457L9.27355 6.56248ZM9.12122 6.52894C9.12122 6.54571 9.10725 6.55969 9.08908 6.55969C9.07092 6.55969 9.05834 6.54571 9.05834 6.52894V6.36684C9.05834 6.35007 9.07231 6.33609 9.08908 6.33609C9.10585 6.33609 9.12122 6.35007 9.12122 6.36684V6.52894ZM8.97729 6.52894C8.97729 6.54571 8.96331 6.55969 8.94654 6.55969C8.92977 6.55969 8.9144 6.54571 8.9144 6.52894V6.36684C8.9144 6.35007 8.92837 6.33609 8.94654 6.33609C8.96471 6.33609 8.97729 6.35007 8.97729 6.36684V6.52894ZM8.82496 6.55829C8.82496 6.57506 8.81239 6.59043 8.79562 6.59183C8.77885 6.59183 8.76347 6.57925 8.76208 6.56248L8.7523 6.40457C8.7523 6.3878 8.76487 6.37243 8.78164 6.37103C8.79841 6.37103 8.81378 6.38361 8.81518 6.40038L8.82496 6.55829ZM8.66705 6.63096C8.66984 6.64773 8.65727 6.6645 8.6405 6.66589C8.62373 6.66869 8.60696 6.65611 8.60556 6.63934L8.586 6.48842C8.5832 6.47165 8.59578 6.45488 8.61255 6.45348C8.62932 6.45069 8.64609 6.46326 8.64749 6.48003L8.66705 6.63096ZM8.51612 6.76372C8.51892 6.78049 8.50774 6.79726 8.49097 6.80145C8.4742 6.80424 8.45743 6.79446 8.45324 6.77629L8.42389 6.63236C8.4211 6.61559 8.43228 6.59882 8.44905 6.59462C8.46582 6.59183 8.48258 6.60301 8.48538 6.61978L8.51473 6.76372H8.51612ZM8.40293 7.03063C8.40712 7.0474 8.39734 7.06417 8.38057 7.06976C8.3638 7.07395 8.34703 7.06417 8.34144 7.0474L8.29393 6.86853C8.28973 6.85176 8.29952 6.83499 8.31629 6.8294C8.33306 6.8252 8.34983 6.83499 8.35542 6.85176L8.40293 7.03063Z" fill="#FED700"/>
<path fill-rule="evenodd" clip-rule="evenodd" d="M5.93922 7.61475C6.0091 7.68742 6.07618 7.76568 6.13627 7.84534C6.1153 7.77406 6.10133 7.70559 6.09434 7.63991C6.08037 7.51693 6.08875 7.40234 6.1167 7.29893C6.10412 7.30452 6.09155 7.31011 6.07757 7.3129C6.02587 7.32548 5.96857 7.32129 5.90848 7.29474C5.86376 7.27517 5.82184 7.24443 5.78271 7.2067C5.77991 7.24163 5.76734 7.26958 5.74358 7.29054C5.71144 7.31709 5.66392 7.32548 5.60663 7.3171C5.72541 7.40793 5.83721 7.50855 5.93922 7.61475Z" fill="black"/>
<path fill-rule="evenodd" clip-rule="evenodd" d="M10.5215 7.0418C10.5341 7.04599 10.5452 7.05018 10.5578 7.05298C10.6165 7.06695 10.6766 7.06136 10.7339 7.03341C10.7786 7.01105 10.8177 6.97612 10.8485 6.9314C10.8583 6.97332 10.8806 7.00686 10.9142 7.03062C10.9589 7.05996 11.0162 7.06695 11.0833 7.05298H11.0889C10.9826 7.1522 10.8876 7.26399 10.8052 7.38417C10.7465 7.46942 10.6948 7.55746 10.6514 7.64969C10.6556 7.56305 10.6514 7.4778 10.6389 7.39675C10.6193 7.26818 10.5788 7.148 10.5215 7.0418Z" fill="black"/>
<path fill-rule="evenodd" clip-rule="evenodd" d="M7.51415 7.0418C7.50157 7.04599 7.49039 7.05018 7.47781 7.05298C7.41912 7.06695 7.35903 7.06136 7.30173 7.03341C7.25701 7.01105 7.21789 6.97612 7.18714 6.9314C7.17736 6.97332 7.1564 7.00686 7.12146 7.03062C7.07674 7.05996 7.01945 7.06695 6.95237 7.05298H6.94678C7.05298 7.1522 7.14801 7.26399 7.23046 7.38417C7.28916 7.46942 7.34086 7.55746 7.38418 7.64969C7.37999 7.56305 7.38418 7.4778 7.39676 7.39675C7.41632 7.26818 7.45685 7.148 7.51415 7.0418Z" fill="black"/>
<path fill-rule="evenodd" clip-rule="evenodd" d="M9.01781 6.93002C8.9689 7.03623 8.86828 7.07815 8.75509 7.053C8.7481 7.0516 8.73971 7.04881 8.73273 7.04741C8.81518 7.15082 8.88365 7.26681 8.93536 7.38979C8.9703 7.47503 8.99824 7.56307 9.01781 7.65531C9.03737 7.56307 9.06532 7.47503 9.10026 7.38979C9.15197 7.26541 9.22044 7.15082 9.30289 7.04741C9.29451 7.0502 9.28752 7.0516 9.28053 7.053C9.16734 7.07815 9.06672 7.03623 9.01781 6.93002Z" fill="black"/>
</g>
</g>
<rect x="0.25" y="0.25" width="23.5" height="23.5" rx="11.75" stroke="#E5E3E1" stroke-width="0.5"/>
<defs>
<clipPath id="clip0_16335_6315">
<rect width="24" height="24" rx="12" fill="white"/>
</clipPath>
</defs>
</svg>
