<svg width="48" height="48" viewBox="0 0 48 48" fill="none" xmlns="http://www.w3.org/2000/svg">
<path d="M22.6602 22.66H33.3902V13.27H25.3402C23.8602 13.27 22.6602 14.47 22.6602 15.95V22.66Z" fill="#8DE2E0"/>
<path d="M41.4391 12.2699H34.3691C34.1891 7.05988 29.9091 2.87988 24.6691 2.87988C19.4291 2.87988 14.9491 7.23988 14.9491 12.5999V17.9699C14.9491 20.7499 12.6891 23.0099 9.90914 23.0099C7.12914 23.0099 4.86914 20.7499 4.86914 17.9699V5.21988C4.86914 4.66988 4.41914 4.21988 3.86914 4.21988C3.31914 4.21988 2.86914 4.66988 2.86914 5.21988V17.9699C2.86914 21.8499 6.02914 25.0099 9.90914 25.0099C13.7891 25.0099 16.9491 21.8499 16.9491 17.9699V12.5999C16.9491 8.33988 20.4091 4.87988 24.6691 4.87988C28.9291 4.87988 32.1991 8.16988 32.3691 12.2699H25.3391C23.3091 12.2699 21.6591 13.9199 21.6591 15.9499V34.7299C21.6591 40.4599 26.3191 45.1199 32.0491 45.1199H34.7291C40.4591 45.1199 45.1191 40.4599 45.1191 34.7299V15.9499C45.1191 13.9199 43.4691 12.2699 41.4391 12.2699ZM43.1191 15.9499V21.6599H34.3891V14.2699H41.4391C42.3691 14.2699 43.1191 15.0299 43.1191 15.9499ZM25.3391 14.2699H32.3891V21.6599H23.6591V15.9499C23.6591 15.0199 24.4191 14.2699 25.3391 14.2699ZM34.7291 43.1199H32.0491C27.4191 43.1199 23.6591 39.3599 23.6591 34.7299V23.6499H43.1291V34.7299C43.1291 39.3599 39.3691 43.1199 34.7391 43.1199H34.7291Z" fill="#323232"/>
</svg>
