<svg width="48" height="48" viewBox="0 0 48 48" fill="none" xmlns="http://www.w3.org/2000/svg">
<path d="M41.2098 26.3501H6.7998V31.6001H41.2098V26.3501Z" fill="#8DE2E0"/>
<path d="M46.8304 20.7002C46.8304 16.4502 42.3804 14.1402 38.4604 12.1002C38.0004 11.8602 37.5404 11.6202 37.1004 11.3802C36.6504 11.1402 36.2004 10.8902 35.7504 10.6502C32.1304 8.67018 28.0204 6.43018 24.0104 6.43018C20.0004 6.43018 15.8904 8.67018 12.2704 10.6502C11.8104 10.9002 11.3604 11.1502 10.9204 11.3802C10.4804 11.6202 10.0204 11.8502 9.56043 12.1002C5.64043 14.1402 1.19043 16.4502 1.19043 20.7002C1.19043 24.9502 4.00043 26.7702 5.82043 27.2102V31.6002C5.82043 31.6002 5.83043 31.6402 5.83043 31.6602C5.83043 31.7302 5.85043 31.7902 5.87043 31.8502C5.89043 31.9202 5.90043 31.9802 5.93043 32.0402C5.93043 32.0602 5.93043 32.0802 5.95043 32.1002C8.47043 36.4202 13.6504 41.5702 24.0204 41.5702C34.3904 41.5702 39.5704 36.4202 42.0904 32.1002C42.1004 32.0802 42.1004 32.0602 42.1104 32.0402C42.1404 31.9802 42.1604 31.9202 42.1704 31.8502C42.1904 31.7802 42.2104 31.7202 42.2104 31.6602C42.2104 31.6402 42.2204 31.6202 42.2204 31.6002V27.2102C44.0404 26.7702 46.8504 25.1502 46.8504 20.7002H46.8304ZM40.2004 30.6002H7.80043V27.3502H40.2104V30.6002H40.2004ZM24.0004 39.5702C17.1504 39.5702 12.0004 37.2202 8.65043 32.6002H39.3504C36.0004 37.2202 30.8504 39.5702 24.0004 39.5702ZM41.1804 25.3502H6.82043C6.82043 25.3502 3.17043 25.2202 3.17043 20.7002C3.17043 17.6602 7.04043 15.6502 10.4604 13.8702C10.9304 13.6202 11.4004 13.3802 11.8504 13.1402C12.3004 12.9002 12.7604 12.6502 13.2204 12.4002C16.8004 10.4402 20.5104 8.42018 24.0004 8.42018C27.4904 8.42018 31.2004 10.4402 34.7804 12.4002C35.2404 12.6502 35.7004 12.9002 36.1504 13.1402C36.6004 13.3802 37.0604 13.6202 37.5404 13.8702C40.9604 15.6502 44.8304 17.6602 44.8304 20.7002C44.8304 25.2302 41.2204 25.3502 41.1804 25.3502Z" fill="#323232"/>
<path d="M36.3709 14.7502H27.1909C26.3009 14.0802 25.2009 13.6602 24.0009 13.6602C22.8009 13.6602 21.7009 14.0802 20.8109 14.7502H11.6309C11.0809 14.7502 10.6309 15.2002 10.6309 15.7502C10.6309 17.7902 12.0809 19.4902 13.9909 19.8902C14.4109 21.7902 16.1009 23.2102 18.1209 23.2102H20.8109C21.7009 23.8802 22.8009 24.3002 24.0009 24.3002C25.2009 24.3002 26.3009 23.8802 27.1909 23.2102H29.8809C31.9009 23.2102 33.5909 21.7902 34.0109 19.8902C35.9309 19.4902 37.3709 17.7902 37.3709 15.7502C37.3709 15.2002 36.9209 14.7502 36.3709 14.7502ZM18.1209 21.2102C17.2509 21.2102 16.4909 20.7102 16.1309 19.9802H18.7809C18.8609 20.4102 19.0009 20.8202 19.1909 21.2102H18.1309H18.1209ZM18.7809 17.9802H14.8609C13.9909 17.9802 13.2309 17.4802 12.8709 16.7502H19.1909C19.0109 17.1402 18.8709 17.5502 18.7809 17.9802ZM24.0009 22.3002C22.1709 22.3002 20.6809 20.8102 20.6809 18.9802C20.6809 17.9702 21.1409 17.0802 21.8609 16.4702C21.8609 16.4702 21.8709 16.4702 21.8809 16.4602C22.4609 15.9702 23.1909 15.6702 24.0109 15.6702C25.8409 15.6702 27.3309 17.1602 27.3309 18.9902C27.3309 20.8202 25.8409 22.3102 24.0109 22.3102L24.0009 22.3002ZM29.8809 21.2102H28.8209C29.0009 20.8202 29.1409 20.4102 29.2309 19.9802H31.8809C31.5109 20.7102 30.7609 21.2102 29.8909 21.2102H29.8809ZM33.1409 17.9802H29.2209C29.1409 17.5502 29.0009 17.1402 28.8109 16.7502H35.1309C34.7609 17.4802 34.0109 17.9802 33.1409 17.9802Z" fill="#323232"/>
</svg>
