<svg width="24" height="24" viewBox="0 0 24 24" fill="none" xmlns="http://www.w3.org/2000/svg">
<path fill-rule="evenodd" clip-rule="evenodd" d="M18 4.5C18 5.328 18.672 6 19.5 6C20.328 6 21 5.328 21 4.5C21 3.671 20.328 3 19.5 3C18.672 3 18 3.671 18 4.5ZM10.5 4.5C10.5 5.328 11.171 6 12 6C12.828 6 13.5 5.328 13.5 4.5C13.5 3.671 12.828 3 12 3C11.171 3 10.5 3.671 10.5 4.5ZM3 4.5C3 5.328 3.671 6 4.5 6C5.328 6 6 5.328 6 4.5C6 3.671 5.328 3 4.5 3C3.671 3 3 3.671 3 4.5ZM18 12C18 12.828 18.672 13.5 19.5 13.5C20.328 13.5 21 12.828 21 12C21 11.171 20.328 10.5 19.5 10.5C18.672 10.5 18 11.171 18 12ZM10.5 12C10.5 12.828 11.171 13.5 12 13.5C12.828 13.5 13.5 12.828 13.5 12C13.5 11.171 12.828 10.5 12 10.5C11.171 10.5 10.5 11.171 10.5 12ZM3 12C3 12.828 3.671 13.5 4.5 13.5C5.328 13.5 6 12.828 6 12C6 11.171 5.328 10.5 4.5 10.5C3.671 10.5 3 11.171 3 12ZM18 19.5C18 20.329 18.672 21 19.5 21C20.328 21 21 20.329 21 19.5C21 18.672 20.328 18 19.5 18C18.672 18 18 18.672 18 19.5ZM10.5 19.5C10.5 20.329 11.171 21 12 21C12.828 21 13.5 20.329 13.5 19.5C13.5 18.672 12.828 18 12 18C11.171 18 10.5 18.672 10.5 19.5ZM3 19.5C3 20.329 3.671 21 4.5 21C5.328 21 6 20.329 6 19.5C6 18.672 5.328 18 4.5 18C3.671 18 3 18.672 3 19.5Z" fill="#323232"/>
</svg>
