<svg width="48" height="48" viewBox="0 0 48 48" fill="none" xmlns="http://www.w3.org/2000/svg">
<path d="M5.75055 43.68C5.49055 43.68 5.24055 43.58 5.04055 43.39C4.65055 43 4.65055 42.37 5.04055 41.98L41.5405 5.48C41.9305 5.09 42.5605 5.09 42.9505 5.48C43.3405 5.87 43.3405 6.5 42.9505 6.89L6.46055 43.39C6.26055 43.59 6.01055 43.68 5.75055 43.68Z" fill="#323232"/>
<path d="M33.8489 30.6001C32.9789 30.6001 32.1489 30.7601 31.3789 31.0401C34.1689 32.0501 36.1589 34.7101 36.1589 37.8501C36.1589 40.9901 34.1589 43.6501 31.3789 44.6601C32.1489 44.9401 32.9789 45.1001 33.8489 45.1001C37.8589 45.1001 41.0989 41.8501 41.0989 37.8501C41.0989 33.8501 37.8489 30.6001 33.8489 30.6001Z" fill="#8DE2E0"/>
<path d="M33.8496 46.1099C29.2996 46.1099 25.5996 42.4099 25.5996 37.8599C25.5996 33.3099 29.2996 29.6099 33.8496 29.6099C38.3996 29.6099 42.0996 33.3099 42.0996 37.8599C42.0996 42.4099 38.3996 46.1099 33.8496 46.1099ZM33.8496 31.5999C30.3996 31.5999 27.5996 34.3999 27.5996 37.8499C27.5996 41.2999 30.3996 44.0999 33.8496 44.0999C37.2996 44.0999 40.0996 41.2999 40.0996 37.8499C40.0996 34.3999 37.2996 31.5999 33.8496 31.5999Z" fill="#323232"/>
<path d="M14.5891 2.89014C13.7191 2.89014 12.8891 3.05014 12.1191 3.33014C14.9091 4.34014 16.8991 7.00014 16.8991 10.1401C16.8991 13.2801 14.8991 15.9401 12.1191 16.9501C12.8891 17.2301 13.7191 17.3901 14.5891 17.3901C18.5991 17.3901 21.8391 14.1401 21.8391 10.1401C21.8391 6.14014 18.5891 2.89014 14.5891 2.89014Z" fill="#8DE2E0"/>
<path d="M14.5898 18.4001C10.0398 18.4001 6.33984 14.7001 6.33984 10.1501C6.33984 5.60014 10.0398 1.89014 14.5898 1.89014C19.1398 1.89014 22.8398 5.59014 22.8398 10.1401C22.8398 14.6901 19.1398 18.3901 14.5898 18.3901V18.4001ZM14.5898 3.89014C11.1398 3.89014 8.33984 6.69014 8.33984 10.1401C8.33984 13.5901 11.1398 16.3901 14.5898 16.3901C18.0398 16.3901 20.8398 13.5901 20.8398 10.1401C20.8398 6.69014 18.0398 3.89014 14.5898 3.89014Z" fill="#323232"/>
</svg>
