<svg width="48" height="48" viewBox="0 0 48 48" fill="none" xmlns="http://www.w3.org/2000/svg">
<path d="M40.6496 39.2401L31.5596 30.1501C34.1296 27.2501 35.6896 23.4401 35.6896 19.2701C35.6896 10.2201 28.3296 2.8501 19.2696 2.8501C10.2096 2.8501 2.84961 10.2201 2.84961 19.2701C2.84961 24.1901 5.03961 28.6101 8.47961 31.6201C8.49961 31.6501 8.53961 31.6701 8.55961 31.7001C11.4396 34.1801 15.1696 35.6901 19.2596 35.6901C23.3496 35.6901 27.2396 34.1301 30.1396 31.5601L39.2296 40.6501C39.4296 40.8501 39.6796 40.9401 39.9396 40.9401C40.1996 40.9401 40.4496 40.8401 40.6496 40.6501C41.0396 40.2601 41.0396 39.6301 40.6496 39.2401ZM19.2696 33.6901C15.9996 33.6901 12.9996 32.5901 10.5796 30.7501C11.1096 30.0801 11.8896 29.5801 12.8996 29.2801L13.9796 28.9401C14.7096 29.7601 16.2896 30.9901 19.2696 30.9901C22.2496 30.9901 23.8296 29.7701 24.5596 28.9401L25.6496 29.2901C25.9796 29.3901 26.2896 29.5101 26.5596 29.6501C27.0596 29.9001 27.6596 29.7001 27.8996 29.2001C28.1496 28.7101 27.9496 28.1101 27.4496 27.8601C27.0696 27.6701 26.6596 27.5101 26.2296 27.3801L24.4696 26.8201C24.0096 26.6701 23.5096 26.8901 23.2796 27.3201C23.2396 27.3901 22.3396 28.9901 19.2596 28.9901C16.1796 28.9901 15.2796 27.3901 15.2496 27.3301C15.0296 26.8901 14.5196 26.6701 14.0496 26.8201L12.2996 27.3701C10.7196 27.8401 9.69961 28.6501 9.04961 29.4501C6.44961 26.8401 4.83961 23.2401 4.83961 19.2801C4.83961 11.3301 11.3096 4.8601 19.2596 4.8601C27.2096 4.8601 33.6796 11.3301 33.6796 19.2801C33.6796 27.2301 27.2096 33.7001 19.2596 33.7001L19.2696 33.6901Z" fill="#323232"/>
<path d="M26.6893 14.8399V13.8799C26.6893 8.56994 22.8093 6.68994 19.4993 6.68994C15.6993 6.68994 11.8593 8.89994 11.8593 13.8499V14.9499C11.7293 15.0299 11.6093 15.1299 11.4893 15.2499C10.7793 15.9599 10.5293 17.0999 10.5293 17.8699C10.5293 20.3299 11.5393 21.4999 12.6893 21.8499C13.2493 23.6899 14.4793 25.2699 16.1093 26.2199C16.1893 26.2699 17.4793 27.1299 19.3293 27.1299C20.2793 27.1299 21.3693 26.8999 22.5193 26.2299C24.1393 25.1699 25.3393 23.6099 25.9393 21.7899C26.8693 21.5099 28.0193 20.5999 28.0193 17.8399C28.0193 17.1899 28.0193 15.4299 26.6893 14.8499V14.8399ZM19.4893 8.68994C20.3093 8.68994 22.3993 8.85994 23.6593 10.4599C23.2193 10.3099 22.7093 10.2299 22.1393 10.2299C20.2193 10.2299 19.0493 11.0899 17.9293 11.9299C16.8293 12.7499 15.7793 13.5199 13.8493 13.7199C13.9293 8.92994 18.5493 8.68994 19.4893 8.68994ZM25.1293 19.8999C24.6693 19.8999 24.2793 20.2199 24.1693 20.6699C23.7793 22.2699 22.8093 23.6499 21.4693 24.5299C19.2193 25.8399 17.3093 24.6199 17.1793 24.5299C15.7893 23.7099 14.8093 22.3399 14.4793 20.7599C14.3793 20.2999 13.9693 19.9599 13.4993 19.9599C12.6093 19.9599 12.5393 18.3499 12.5393 17.8599C12.5393 17.2899 12.7893 16.7199 12.8593 16.6499C13.1193 16.6499 13.3793 16.5499 13.5693 16.3599C13.7393 16.1899 13.8393 15.9599 13.8593 15.7199C16.4693 15.4999 17.9293 14.4199 19.1293 13.5299C20.1493 12.7699 20.8893 12.2199 22.1493 12.2199C24.3493 12.2199 24.6493 14.4199 24.6893 14.7999V15.6399C24.6893 16.1899 25.1393 16.6399 25.6893 16.6399C25.7993 16.6399 25.8593 16.6599 25.8693 16.6699C26.0193 16.7999 26.0193 17.5699 26.0193 17.8299C26.0193 18.7699 25.8693 19.8899 25.1293 19.8999Z" fill="#323232"/>
<path d="M44.6299 40.6401L35.9899 32.0001C35.3199 31.3301 34.1599 31.3301 33.4999 32.0001L31.9999 33.5001C31.3099 34.1901 31.3099 35.3101 31.9999 35.9901L40.6399 44.6301C40.9699 44.9601 41.4199 45.1501 41.8899 45.1501C42.3599 45.1501 42.7999 44.9701 43.1399 44.6301L44.6399 43.1301C45.3299 42.4401 45.3299 41.3201 44.6399 40.6401H44.6299Z" fill="#DF0000"/>
</svg>
