<svg width="48" height="48" viewBox="0 0 48 48" fill="none" xmlns="http://www.w3.org/2000/svg">
<path d="M8.24988 35.9801H39.7499C42.1699 35.9801 44.1299 34.0201 44.1299 31.6001H3.87988C3.87988 34.0201 5.83988 35.9801 8.25988 35.9801H8.24988Z" fill="#8DE2E0"/>
<path d="M40.0901 17.4398V13.3698C40.0901 9.17977 36.6801 5.75977 32.4801 5.75977H15.5201C11.3301 5.75977 7.91012 9.16977 7.91012 13.3698V17.4398C5.11012 17.6198 2.87012 19.9298 2.87012 22.7798V31.5998C2.87012 34.5598 5.28012 36.9798 8.25012 36.9798H10.3601V41.2398C10.3601 41.7898 10.8101 42.2398 11.3601 42.2398C11.9101 42.2398 12.3601 41.7898 12.3601 41.2398V36.9798H35.6501V41.2398C35.6501 41.7898 36.1001 42.2398 36.6501 42.2398C37.2001 42.2398 37.6501 41.7898 37.6501 41.2398V36.9798H39.7601C42.7201 36.9798 45.1401 34.5698 45.1401 31.5998V22.7798C45.1401 19.9298 42.9101 17.6198 40.1001 17.4398H40.0901ZM15.5201 7.76977H32.4801C35.5701 7.76977 38.0901 10.2898 38.0901 13.3798V17.6998C35.9401 18.4098 34.3801 20.4098 34.3801 22.7898V25.5198H13.6301V22.7898C13.6301 20.4098 12.0701 18.4098 9.92012 17.6998V13.3798C9.92012 10.2898 12.4401 7.76977 15.5301 7.76977H15.5201ZM43.1201 31.5998C43.1201 33.4598 41.6101 34.9798 39.7401 34.9798H8.25012C6.39012 34.9798 4.87012 33.4698 4.87012 31.5998V22.7798C4.87012 20.9198 6.38012 19.3998 8.25012 19.3998C10.1201 19.3998 11.6301 20.9098 11.6301 22.7798V26.5098C11.6301 27.0598 12.0801 27.5098 12.6301 27.5098H35.3801C35.9301 27.5098 36.3801 27.0598 36.3801 26.5098V22.7798C36.3801 20.9198 37.8901 19.3998 39.7601 19.3998C41.6301 19.3998 43.1401 20.9098 43.1401 22.7798V31.5998H43.1201Z" fill="#323232"/>
<path d="M30.9696 22.8402C30.9696 22.8402 30.9396 22.8602 30.9196 22.8602C30.8996 22.8602 30.8896 22.8602 30.8796 22.8402C28.8696 21.2302 26.5596 20.2502 24.1896 19.8802C24.0196 19.8502 23.8896 19.7202 23.8696 19.5402C23.3696 14.8502 19.0996 15.9102 17.0096 10.8802C16.9996 10.8502 17.0096 10.8102 17.0396 10.7902C17.0696 10.7702 17.1196 10.7802 17.1396 10.8102C19.7796 14.9602 21.5796 12.6002 25.4696 16.1702L25.5096 16.2102C26.0396 16.7002 26.4096 16.2502 26.2396 15.9602C26.0796 15.7002 26.0996 15.5502 26.1096 15.5202C26.8996 15.7402 27.6196 16.1302 28.2296 16.6402L28.1796 16.7402C27.8796 17.3402 24.9396 17.0802 24.9096 18.3302C24.9096 18.6702 25.1096 18.9702 25.4096 19.0902L25.9896 19.3202C27.8996 20.0902 29.5896 21.2502 30.9796 22.7102C31.0096 22.7402 31.0096 22.7802 30.9796 22.8102L30.9696 22.8402Z" fill="#DF0000"/>
</svg>
