<svg width="48" height="48" viewBox="0 0 48 48" fill="none" xmlns="http://www.w3.org/2000/svg">
<path d="M7.83008 17.1797V45.2597H16.7601L7.83008 17.1797Z" fill="#8DE2E0"/>
<path d="M21.6801 10.8301H18.6201V5.12012C18.6201 4.57012 18.1701 4.12012 17.6201 4.12012H11.3901C10.8401 4.12012 10.3901 4.57012 10.3901 5.12012V10.8301H7.83008C7.28008 10.8301 6.83008 11.2801 6.83008 11.8301V45.2601C6.83008 45.8101 7.28008 46.2601 7.83008 46.2601H21.6801C22.2301 46.2601 22.6801 45.8101 22.6801 45.2601V11.8301C22.6801 11.2801 22.2301 10.8301 21.6801 10.8301ZM12.4001 6.12012H16.6301V10.8301H12.4001V6.12012ZM20.6801 44.2601H8.83008V12.8301H20.6801V44.2601Z" fill="#323232"/>
<path d="M26.3403 11.33C27.0417 11.33 27.6103 10.7614 27.6103 10.06C27.6103 9.35864 27.0417 8.79004 26.3403 8.79004C25.6389 8.79004 25.0703 9.35864 25.0703 10.06C25.0703 10.7614 25.6389 11.33 26.3403 11.33Z" fill="#8DE2E0"/>
<path d="M32.7212 11.33C33.4226 11.33 33.9912 10.7614 33.9912 10.06C33.9912 9.35864 33.4226 8.79004 32.7212 8.79004C32.0198 8.79004 31.4512 9.35864 31.4512 10.06C31.4512 10.7614 32.0198 11.33 32.7212 11.33Z" fill="#8DE2E0"/>
<path d="M38.8208 11.33C39.5222 11.33 40.0908 10.7614 40.0908 10.06C40.0908 9.35864 39.5222 8.79004 38.8208 8.79004C38.1194 8.79004 37.5508 9.35864 37.5508 10.06C37.5508 10.7614 38.1194 11.33 38.8208 11.33Z" fill="#8DE2E0"/>
<path d="M26.3403 15.3007C27.0417 15.3007 27.6103 14.7321 27.6103 14.0307C27.6103 13.3293 27.0417 12.7607 26.3403 12.7607C25.6389 12.7607 25.0703 13.3293 25.0703 14.0307C25.0703 14.7321 25.6389 15.3007 26.3403 15.3007Z" fill="#8DE2E0"/>
<path d="M38.8208 18.1709C39.5222 18.1709 40.0908 17.6023 40.0908 16.9009C40.0908 16.1995 39.5222 15.6309 38.8208 15.6309C38.1194 15.6309 37.5508 16.1995 37.5508 16.9009C37.5508 17.6023 38.1194 18.1709 38.8208 18.1709Z" fill="#8DE2E0"/>
<path d="M26.3403 7.35055C27.0417 7.35055 27.6103 6.78195 27.6103 6.08055C27.6103 5.37915 27.0417 4.81055 26.3403 4.81055C25.6389 4.81055 25.0703 5.37915 25.0703 6.08055C25.0703 6.78195 25.6389 7.35055 26.3403 7.35055Z" fill="#8DE2E0"/>
<path d="M32.561 5.92086C33.2624 5.92086 33.831 5.35226 33.831 4.65086C33.831 3.94946 33.2624 3.38086 32.561 3.38086C31.8596 3.38086 31.291 3.94946 31.291 4.65086C31.291 5.35226 31.8596 5.92086 32.561 5.92086Z" fill="#8DE2E0"/>
<path d="M38.8208 4.48043C39.5222 4.48043 40.0908 3.91183 40.0908 3.21043C40.0908 2.50903 39.5222 1.94043 38.8208 1.94043C38.1194 1.94043 37.5508 2.50903 37.5508 3.21043C37.5508 3.91183 38.1194 4.48043 38.8208 4.48043Z" fill="#8DE2E0"/>
<path d="M32.7212 16.9004C33.4226 16.9004 33.9912 16.3318 33.9912 15.6304C33.9912 14.929 33.4226 14.3604 32.7212 14.3604C32.0198 14.3604 31.4512 14.929 31.4512 15.6304C31.4512 16.3318 32.0198 16.9004 32.7212 16.9004Z" fill="#8DE2E0"/>
</svg>
