<svg width="48" height="48" viewBox="0 0 48 48" fill="none" xmlns="http://www.w3.org/2000/svg">
<path d="M38.9995 23.9996C38.9995 22.1496 37.4995 20.6496 35.6495 20.6496C34.6995 20.6496 33.8295 21.0496 33.2195 21.6896C30.9495 20.1096 27.8895 19.1396 24.5295 19.0396L26.3395 10.9796L31.8895 12.2096C31.9195 13.5796 33.0295 14.6796 34.3995 14.6796C35.7695 14.6796 36.9195 13.5496 36.9195 12.1596C36.9195 10.7696 35.7895 9.63965 34.3995 9.63965C33.4095 9.63965 32.5695 10.2296 32.1595 11.0596L26.0195 9.69965C25.7095 9.62965 25.3895 9.82965 25.3195 10.1496L23.3295 19.0596C20.0295 19.1796 17.0395 20.1396 14.7995 21.6996C14.1895 21.0596 13.3295 20.6596 12.3695 20.6596C10.5195 20.6596 9.01953 22.1596 9.01953 24.0096C9.01953 25.3296 9.78953 26.4697 10.8995 27.0196C10.7695 27.5597 10.6995 28.1196 10.6995 28.6896C10.6995 34.0396 16.6695 38.3696 24.0195 38.3696C31.3695 38.3696 37.3395 34.0396 37.3395 28.6896C37.3395 28.1196 37.2795 27.5597 37.1395 27.0196C38.2495 26.4697 39.0195 25.3296 39.0195 24.0096L38.9995 23.9996ZM15.9895 27.3796C15.9895 25.9896 17.1195 24.8596 18.5095 24.8596C19.8995 24.8596 21.0295 25.9896 21.0295 27.3796C21.0295 28.7696 19.8995 29.8996 18.5095 29.8996C17.1195 29.8996 15.9895 28.7696 15.9895 27.3796ZM29.5495 33.3696C28.6295 34.1596 26.9295 35.1096 23.9995 35.1096C21.0695 35.1096 19.3595 34.1596 18.4495 33.3596C18.1995 33.1497 18.1795 32.7696 18.3895 32.5296C18.5995 32.2796 18.9795 32.2596 19.2195 32.4796C19.8395 33.0196 21.2895 33.9296 23.9995 33.9296C26.5595 33.9296 28.0095 33.1397 28.7695 32.4697C29.0095 32.2597 29.3895 32.2896 29.5995 32.5296C29.8095 32.7696 29.7895 33.1497 29.5395 33.3596L29.5495 33.3696ZM29.4895 29.8996C28.0995 29.8996 26.9695 28.7696 26.9695 27.3796C26.9695 25.9896 28.0995 24.8596 29.4895 24.8596C30.8795 24.8596 32.0095 25.9896 32.0095 27.3796C32.0095 28.7696 30.8795 29.8996 29.4895 29.8996Z" fill="#323232"/>
</svg>
