<svg width="48" height="48" viewBox="0 0 48 48" fill="none" xmlns="http://www.w3.org/2000/svg">
<path d="M39.3004 45.3H8.70039C6.90039 45.3 5.40039 43.8 5.40039 42V22.8C5.40039 21 6.90039 19.5 8.70039 19.5H13.1004C13.7004 19.5 14.1004 20 14.1004 20.5C14.1004 21 13.7004 21.5 13.1004 21.5H8.70039C8.00039 21.5 7.40039 22.1 7.40039 22.8V42C7.40039 42.7 8.00039 43.3 8.70039 43.3H39.3004C40.0004 43.3 40.6004 42.7 40.6004 42V22.8C40.6004 22.1 40.0004 21.5 39.3004 21.5H35.8004C35.3004 21.5 34.8004 21 34.8004 20.5C34.8004 20 35.3004 19.5 35.8004 19.5H39.3004C41.1004 19.5 42.6004 21 42.6004 22.8V42C42.6004 43.8 41.1004 45.3 39.3004 45.3Z" fill="#323232"/>
<path d="M17.7008 39.7002H11.8008C11.2008 39.7002 10.8008 39.2002 10.8008 38.7002C10.8008 38.2002 11.2008 37.7002 11.8008 37.7002H17.7008C18.2008 37.7002 18.7008 38.2002 18.7008 38.7002C18.7008 39.2002 18.2008 39.7002 17.7008 39.7002Z" fill="#323232"/>
<path d="M13.6008 33.2998H11.8008C11.2008 33.2998 10.8008 32.7998 10.8008 32.2998C10.8008 31.7998 11.2008 31.2998 11.8008 31.2998H13.6008C14.2008 31.2998 14.6008 31.7998 14.6008 32.2998C14.6008 32.7998 14.2008 33.2998 13.6008 33.2998Z" fill="#323232"/>
<path d="M19.6008 33.2998H17.8008C17.3008 33.2998 16.8008 32.7998 16.8008 32.2998C16.8008 31.7998 17.3008 31.2998 17.8008 31.2998H19.6008C20.1008 31.2998 20.6008 31.7998 20.6008 32.2998C20.6008 32.7998 20.1008 33.2998 19.6008 33.2998Z" fill="#323232"/>
<path d="M25.4992 33.2998H23.6992C23.1992 33.2998 22.6992 32.7998 22.6992 32.2998C22.6992 31.7998 23.1992 31.2998 23.6992 31.2998H25.4992C25.9992 31.2998 26.4992 31.7998 26.4992 32.2998C26.4992 32.7998 25.9992 33.2998 25.4992 33.2998Z" fill="#323232"/>
<path d="M31.4992 33.2998H29.6992C29.1992 33.2998 28.6992 32.7998 28.6992 32.2998C28.6992 31.7998 29.1992 31.2998 29.6992 31.2998H31.4992C31.9992 31.2998 32.4992 31.7998 32.4992 32.2998C32.4992 32.7998 31.9992 33.2998 31.4992 33.2998Z" fill="#323232"/>
<path fill-rule="evenodd" clip-rule="evenodd" d="M36.4008 36.0996C35.4008 36.0996 34.5008 36.6996 34.1008 37.5996C33.7008 36.6996 32.8008 36.0996 31.8008 36.0996C30.8008 36.0996 29.3008 37.1996 29.3008 38.5996C29.3008 39.9996 30.4008 41.0996 31.8008 41.0996C33.2008 41.0996 33.7008 40.4996 34.1008 39.5996C34.5008 40.4996 35.4008 41.0996 36.4008 41.0996C37.4008 41.0996 38.9008 39.9996 38.9008 38.5996C38.9008 37.1996 37.8008 36.0996 36.4008 36.0996Z" fill="#DF0000"/>
<path fill-rule="evenodd" clip-rule="evenodd" d="M24.4996 23.4998C29.9996 23.4998 34.3996 19.0998 34.3996 13.5998C34.3996 8.0998 29.8996 3.7998 24.4996 3.7998C19.0996 3.7998 14.5996 8.1998 14.5996 13.6998C14.5996 19.1998 18.9996 23.5998 24.4996 23.5998" fill="#8DE2E0"/>
<path d="M24.4996 24.4998C18.4996 24.4998 13.5996 19.5998 13.5996 13.5998C13.5996 7.5998 18.4996 2.7998 24.4996 2.7998C30.4996 2.7998 35.3996 7.6998 35.3996 13.6998C35.3996 19.6998 30.4996 24.5998 24.4996 24.5998V24.4998ZM24.4996 4.7998C19.5996 4.7998 15.5996 8.7998 15.5996 13.6998C15.5996 18.5998 19.5996 22.5998 24.4996 22.5998C29.3996 22.5998 33.3996 18.5998 33.3996 13.6998C33.3996 8.7998 29.3996 4.7998 24.4996 4.7998Z" fill="#323232"/>
<path d="M25.7004 11.5996V11.3996C25.7004 10.7996 25.3004 10.2996 24.6004 10.2996C23.9004 10.2996 23.6004 10.6996 23.6004 11.1996C23.6004 11.6996 23.7004 11.8996 24.3004 12.0996L25.4004 12.4996C26.4004 12.8996 27.4004 13.3996 27.4004 14.9996C27.4004 16.5996 26.5004 17.2996 25.2004 17.4996V18.7996H24.0004V17.4996C22.7004 17.2996 21.9004 16.3996 21.9004 15.0996V14.7996H23.5004V15.0996C23.5004 15.7996 24.0004 16.1996 24.7004 16.1996C25.4004 16.1996 25.9004 15.7996 25.9004 15.0996C25.9004 14.3996 25.6004 14.1996 25.1004 13.9996L23.9004 13.4996C22.8004 13.0996 22.1004 12.3996 22.1004 11.1996C22.1004 9.99961 22.8004 9.09961 24.1004 8.89961V7.59961H25.3004V8.89961C26.5004 9.09961 27.4004 9.99961 27.4004 11.2996V11.4996H25.8004L25.7004 11.5996Z" fill="#323232"/>
</svg>
