<svg width="24" height="24" viewBox="0 0 24 24" fill="none" xmlns="http://www.w3.org/2000/svg">
<g clip-path="url(#clip0_16335_6570)">
<path d="M14.9193 23.6381C21.3477 22.0258 25.2518 15.5076 23.6395 9.07929C22.0272 2.65098 15.509 -1.25317 9.08071 0.359125C2.6524 1.97142 -1.25175 8.48962 0.360541 14.9179C1.97283 21.3462 8.49103 25.2504 14.9193 23.6381Z" fill="white"/>
<mask id="mask0_16335_6570" style="mask-type:luminance" maskUnits="userSpaceOnUse" x="-1" y="-1" width="26" height="26">
<path d="M14.9193 23.6381C21.3477 22.0258 25.2518 15.5076 23.6395 9.07929C22.0272 2.65098 15.509 -1.25317 9.08071 0.359125C2.6524 1.97142 -1.25175 8.48962 0.360541 14.9179C1.97283 21.3462 8.49103 25.2504 14.9193 23.6381Z" fill="white"/>
</mask>
<g mask="url(#mask0_16335_6570)">
<path d="M29.9993 0H-6.00073V24H29.9993V0Z" fill="#00ADFE"/>
<path fill-rule="evenodd" clip-rule="evenodd" d="M11.9846 13.7273C13.8936 13.7273 15.4503 12.1705 15.4503 10.2616C15.4503 8.35264 13.8936 6.79587 11.9846 6.79587C10.0757 6.79587 8.51892 8.35264 8.51892 10.2616C8.51892 12.1705 10.0757 13.7273 11.9846 13.7273Z" fill="#FFDA0C"/>
<path fill-rule="evenodd" clip-rule="evenodd" d="M7.81739 10.5089L6.77069 10.2629L7.81739 10.017C7.83975 10.0114 7.86071 10.0086 7.88447 10.0086C8.02561 10.0086 8.1402 10.1232 8.1402 10.2643C8.1402 10.4055 8.02561 10.5201 7.88447 10.5201C7.86071 10.5201 7.83975 10.5173 7.81739 10.5117V10.5089Z" fill="#FFDA0C"/>
<path fill-rule="evenodd" clip-rule="evenodd" d="M8.86266 7.49039L8.29669 6.57645L9.21063 7.14242C9.2302 7.155 9.24697 7.16757 9.26513 7.18434C9.36435 7.28356 9.36435 7.44567 9.26513 7.54628C9.16591 7.6455 9.00381 7.6455 8.90319 7.54628C8.88642 7.52951 8.87384 7.51275 8.86127 7.49318L8.86266 7.49039Z" fill="#FFDA0C"/>
<path fill-rule="evenodd" clip-rule="evenodd" d="M11.7373 6.09574L11.9832 5.04904L12.2292 6.09574C12.2347 6.1181 12.2375 6.13906 12.2375 6.16282C12.2375 6.30396 12.123 6.41855 11.9818 6.41855C11.8407 6.41855 11.7261 6.30396 11.7261 6.16282C11.7261 6.13906 11.7289 6.1181 11.7345 6.09574H11.7373Z" fill="#FFDA0C"/>
<path fill-rule="evenodd" clip-rule="evenodd" d="M12.2306 14.4288L11.9846 15.4755L11.7387 14.4288C11.7331 14.4064 11.7303 14.3855 11.7303 14.3617C11.7303 14.2206 11.8449 14.106 11.986 14.106C12.1272 14.106 12.2418 14.2206 12.2418 14.3617C12.2418 14.3855 12.239 14.4064 12.2334 14.4288H12.2306Z" fill="#FFDA0C"/>
<path fill-rule="evenodd" clip-rule="evenodd" d="M14.7557 7.14101L15.6697 6.57504L15.1037 7.48898C15.0911 7.50855 15.0786 7.52532 15.0618 7.54209C14.9626 7.64131 14.8005 7.64131 14.6998 7.54209C14.6006 7.44287 14.6006 7.28076 14.6998 7.18014C14.7166 7.16337 14.7334 7.1508 14.7543 7.13822L14.7557 7.14101Z" fill="#FFDA0C"/>
<path fill-rule="evenodd" clip-rule="evenodd" d="M9.21204 13.3821L8.2981 13.9481L8.86407 13.0341C8.87664 13.0146 8.88922 12.9964 8.90599 12.9796C9.00521 12.8804 9.16732 12.8804 9.26793 12.9796C9.36715 13.0788 9.36715 13.241 9.26793 13.3416C9.25116 13.3583 9.23439 13.3709 9.21343 13.3835L9.21204 13.3821Z" fill="#FFDA0C"/>
<path fill-rule="evenodd" clip-rule="evenodd" d="M16.1504 10.0156L17.1971 10.2616L16.1504 10.5075C16.1281 10.5131 16.1071 10.5159 16.0834 10.5159C15.9422 10.5159 15.8276 10.4013 15.8276 10.2602C15.8276 10.119 15.9422 10.0044 16.0834 10.0044C16.1071 10.0044 16.1281 10.0072 16.1504 10.0128V10.0156Z" fill="#FFDA0C"/>
<path fill-rule="evenodd" clip-rule="evenodd" d="M15.1051 13.0341L15.6711 13.9481L14.7572 13.3821C14.7376 13.3695 14.7208 13.3583 14.7026 13.3402C14.6034 13.2409 14.6034 13.0788 14.7026 12.9782C14.8019 12.879 14.964 12.879 15.0646 12.9782C15.0814 12.995 15.0939 13.0118 15.1065 13.0327L15.1051 13.0341Z" fill="#FFDA0C"/>
<path fill-rule="evenodd" clip-rule="evenodd" d="M10.9435 6.22009L10.9854 5.14545L11.4284 6.12507C11.4382 6.14603 11.4452 6.16559 11.4508 6.18935C11.4773 6.3277 11.3879 6.46186 11.2495 6.4898C11.1112 6.51636 10.977 6.42692 10.9505 6.28857C10.9463 6.26481 10.9449 6.24385 10.9463 6.22149L10.9435 6.22009Z" fill="#FFDA0C"/>
<path fill-rule="evenodd" clip-rule="evenodd" d="M13.0243 14.3044L12.9824 15.3791L12.5394 14.3994C12.5296 14.3785 12.5226 14.3589 12.5171 14.3352C12.4905 14.1968 12.5799 14.0626 12.7183 14.0361C12.8566 14.0095 12.9908 14.099 13.0173 14.2373C13.0215 14.2611 13.0229 14.2821 13.0215 14.3044H13.0243Z" fill="#FFDA0C"/>
<path fill-rule="evenodd" clip-rule="evenodd" d="M8.3903 8.13882L7.65942 7.35065L8.6656 7.73076C8.68795 7.73914 8.70612 7.74753 8.72569 7.7615C8.84307 7.83976 8.87382 7.99907 8.79556 8.11646C8.7173 8.23384 8.55799 8.26459 8.4406 8.18633C8.42104 8.17235 8.40567 8.15838 8.3903 8.14161V8.13882Z" fill="#FFDA0C"/>
<path fill-rule="evenodd" clip-rule="evenodd" d="M15.5775 12.3843L16.3083 13.1739L15.3022 12.7938C15.2798 12.7854 15.2616 12.777 15.2421 12.763C15.1247 12.6848 15.0939 12.5254 15.1722 12.4081C15.2505 12.2907 15.4098 12.2599 15.5272 12.3396C15.5467 12.3522 15.5621 12.3675 15.5775 12.3843Z" fill="#FFDA0C"/>
<path fill-rule="evenodd" clip-rule="evenodd" d="M7.94171 11.3027L6.86707 11.2607L7.84669 10.8177C7.86765 10.808 7.88721 10.801 7.91097 10.7968C8.04932 10.7702 8.18347 10.8597 8.21003 10.998C8.23658 11.1364 8.14714 11.2705 8.00879 11.2971C7.98503 11.3013 7.96407 11.3027 7.94171 11.3013V11.3027Z" fill="#FFDA0C"/>
<path fill-rule="evenodd" clip-rule="evenodd" d="M16.026 9.22183L17.1007 9.26376L16.1211 9.70675C16.1001 9.71653 16.0805 9.72352 16.0568 9.72771C15.9184 9.75427 15.7843 9.66483 15.7577 9.52648C15.7312 9.38813 15.8206 9.25397 15.959 9.22742C15.9827 9.22323 16.0037 9.22183 16.026 9.22323V9.22183Z" fill="#FFDA0C"/>
<path fill-rule="evenodd" clip-rule="evenodd" d="M9.86183 13.8558L9.07227 14.5867L9.45238 13.5805C9.46076 13.5582 9.46914 13.54 9.48312 13.5204C9.56138 13.403 9.72069 13.3723 9.83807 13.4506C9.95546 13.5288 9.98621 13.6881 9.90795 13.8055C9.89397 13.8251 9.88 13.8404 9.86323 13.8558H9.86183Z" fill="#FFDA0C"/>
<path fill-rule="evenodd" clip-rule="evenodd" d="M14.1059 6.66727L14.8941 5.9364L14.514 6.94257C14.5056 6.96493 14.4972 6.9831 14.4833 7.00266C14.405 7.12005 14.2457 7.1508 14.1283 7.07254C14.0109 6.99428 13.9802 6.83497 14.0584 6.71758C14.0724 6.69802 14.0864 6.68265 14.1032 6.66727H14.1059Z" fill="#FFDA0C"/>
<path fill-rule="evenodd" clip-rule="evenodd" d="M10.1875 6.49402L10.0226 5.43195L10.6445 6.30815C10.6584 6.32772 10.6696 6.34449 10.678 6.36685C10.7311 6.49821 10.6682 6.64634 10.5368 6.69944C10.4055 6.75255 10.2574 6.68966 10.2043 6.5583C10.1959 6.53594 10.1903 6.51638 10.1875 6.49262V6.49402Z" fill="#FFDA0C"/>
<path fill-rule="evenodd" clip-rule="evenodd" d="M13.7804 14.0291L13.9453 15.0912L13.3234 14.215C13.3094 14.1954 13.2982 14.1786 13.2898 14.1563C13.2367 14.0249 13.2996 13.8768 13.431 13.8237C13.5623 13.7706 13.7105 13.8335 13.7636 13.9648C13.772 13.9872 13.7776 14.0068 13.7804 14.0305V14.0291Z" fill="#FFDA0C"/>
<path fill-rule="evenodd" clip-rule="evenodd" d="M8.04934 8.8669L7.18152 8.23245L8.24079 8.41273C8.26455 8.41692 8.28412 8.42111 8.30647 8.43089C8.43644 8.48539 8.49793 8.63632 8.44203 8.76628C8.38753 8.89625 8.238 8.95634 8.10664 8.90184C8.08428 8.89205 8.06751 8.88087 8.04794 8.8669H8.04934Z" fill="#FFDA0C"/>
<path fill-rule="evenodd" clip-rule="evenodd" d="M15.9184 11.6562L16.7863 12.2907L15.727 12.1104C15.7032 12.1062 15.6837 12.102 15.6613 12.0922C15.5313 12.0377 15.4698 11.8868 15.5257 11.7583C15.5802 11.6283 15.7298 11.5668 15.8611 11.6227C15.8835 11.6325 15.9003 11.6437 15.9198 11.6576L15.9184 11.6562Z" fill="#FFDA0C"/>
<path fill-rule="evenodd" clip-rule="evenodd" d="M8.21564 12.0573L7.15356 12.2222L8.02977 11.6003C8.04934 11.5864 8.06611 11.5752 8.08847 11.5668C8.21983 11.5137 8.36796 11.5766 8.42106 11.7079C8.47417 11.8393 8.41128 11.9874 8.27992 12.0405C8.25756 12.0489 8.23799 12.0545 8.21424 12.0573H8.21564Z" fill="#FFDA0C"/>
<path fill-rule="evenodd" clip-rule="evenodd" d="M15.7522 8.46583L16.8142 8.30093L15.938 8.9228C15.9185 8.93678 15.9017 8.94796 15.8793 8.95634C15.748 9.00945 15.5998 8.94656 15.5467 8.8152C15.4936 8.68384 15.5565 8.53571 15.6879 8.4826C15.7102 8.47422 15.7298 8.46863 15.7536 8.46583H15.7522Z" fill="#FFDA0C"/>
<path fill-rule="evenodd" clip-rule="evenodd" d="M10.59 14.1954L9.95551 15.0632L10.1358 14.004C10.14 13.9802 10.1442 13.9606 10.1539 13.9383C10.2084 13.8083 10.358 13.7468 10.4879 13.8027C10.6179 13.8572 10.6794 14.0081 10.6235 14.1381C10.6137 14.1605 10.6025 14.1772 10.5886 14.1968L10.59 14.1954Z" fill="#FFDA0C"/>
<path fill-rule="evenodd" clip-rule="evenodd" d="M13.3778 6.32769L14.0123 5.45987L13.832 6.51915C13.8278 6.5429 13.8236 6.56247 13.8138 6.58483C13.7593 6.71479 13.6098 6.77628 13.4785 6.72038C13.3485 6.66588 13.2884 6.51495 13.3429 6.38499C13.3527 6.36263 13.3639 6.34586 13.3778 6.3263V6.32769Z" fill="#FFDA0C"/>
<path fill-rule="evenodd" clip-rule="evenodd" d="M9.49992 6.90764L9.13379 5.89728L9.91217 6.63793C9.92894 6.6547 9.94292 6.67007 9.95689 6.68964C10.0338 6.80702 10.0002 6.96634 9.88283 7.0432C9.76404 7.12006 9.60613 7.08652 9.52927 6.96913C9.51669 6.94957 9.50831 6.93 9.49992 6.90764Z" fill="#FFDA0C"/>
<path fill-rule="evenodd" clip-rule="evenodd" d="M14.4693 13.6155L14.8354 14.6258L14.0571 13.8852C14.0403 13.8698 14.0263 13.853 14.0123 13.8335C13.9355 13.7147 13.969 13.5568 14.0864 13.4799C14.2052 13.403 14.3631 13.4366 14.44 13.554C14.4525 13.5735 14.4609 13.5931 14.4693 13.6155Z" fill="#FFDA0C"/>
<path fill-rule="evenodd" clip-rule="evenodd" d="M7.85507 9.64667L6.88104 9.1911L7.95569 9.16455C7.97945 9.16455 8.00041 9.16455 8.02277 9.17014C8.16112 9.19949 8.24916 9.33504 8.21981 9.47199C8.19046 9.61034 8.05491 9.69838 7.91656 9.66903C7.8928 9.66344 7.87324 9.65646 7.85228 9.64667H7.85507Z" fill="#FFDA0C"/>
<path fill-rule="evenodd" clip-rule="evenodd" d="M16.1127 10.8765L17.0867 11.3334L16.0121 11.36C15.9883 11.36 15.9674 11.36 15.945 11.3544C15.8066 11.325 15.7186 11.1895 15.748 11.0511C15.7773 10.9128 15.9129 10.8247 16.0512 10.8541C16.075 10.8583 16.0945 10.8667 16.1155 10.8765H16.1127Z" fill="#FFDA0C"/>
<path fill-rule="evenodd" clip-rule="evenodd" d="M8.63066 12.7463L7.6203 13.1124L8.36096 12.334C8.37633 12.3172 8.3931 12.3033 8.41266 12.2893C8.53145 12.2124 8.68936 12.246 8.76622 12.3634C8.84308 12.4821 8.80954 12.64 8.69215 12.7169C8.67259 12.7295 8.65302 12.7379 8.63066 12.7463Z" fill="#FFDA0C"/>
<path fill-rule="evenodd" clip-rule="evenodd" d="M15.3371 7.77687L16.3475 7.41074L15.6068 8.18912C15.5914 8.20589 15.5747 8.21987 15.5551 8.23384C15.4363 8.3107 15.2784 8.27716 15.2015 8.15978C15.1247 8.04099 15.1582 7.88308 15.2756 7.80622C15.2952 7.79364 15.3147 7.78526 15.3371 7.77687Z" fill="#FFDA0C"/>
<path fill-rule="evenodd" clip-rule="evenodd" d="M11.3697 14.3897L10.9141 15.3637L10.8876 14.289C10.8876 14.2653 10.8876 14.2443 10.8932 14.222C10.9225 14.0836 11.0581 13.9956 11.195 14.0249C11.3334 14.0543 11.4214 14.1898 11.3921 14.3268C11.3865 14.3505 11.3795 14.3701 11.3697 14.3911V14.3897Z" fill="#FFDA0C"/>
<path fill-rule="evenodd" clip-rule="evenodd" d="M12.5981 6.13345L13.0536 5.15942L13.0802 6.23407C13.0802 6.25783 13.0802 6.27879 13.0746 6.30115C13.0452 6.4395 12.9097 6.52754 12.7713 6.49819C12.633 6.46885 12.545 6.33329 12.5743 6.19634C12.5799 6.17258 12.5869 6.15302 12.5967 6.13206L12.5981 6.13345Z" fill="#FFDA0C"/>
<path fill-rule="evenodd" clip-rule="evenodd" d="M14.1842 17.4934L16.191 17.6108C16.191 17.6108 16.177 18.0273 15.871 18.0692C15.5649 18.1111 15.3148 17.8889 15.3148 17.8889C15.3148 17.8889 15.4266 18.3543 15.1904 18.3682C14.9542 18.3822 14.746 18.16 14.746 18.16C14.746 18.16 14.6482 18.6114 14.4749 18.6044C14.3016 18.5974 14.2807 18.3473 14.2807 18.3473C14.2807 18.3473 14.1144 18.7637 13.9201 18.7567C13.7259 18.7498 13.663 18.5276 13.663 18.5276C13.663 18.5276 13.5316 18.8615 13.343 18.8476C13.1557 18.8336 13.1417 18.5555 13.1417 18.5555C13.1417 18.5555 12.9684 18.958 12.7532 18.923C12.538 18.8881 12.6079 18.5765 12.6079 18.5765C12.6079 18.5765 12.3927 18.965 12.2054 18.951C12.0182 18.937 12.1146 18.5625 12.1146 18.5625C12.1146 18.5625 11.9134 18.9999 11.6842 18.93C11.455 18.8602 11.6073 18.5835 11.6073 18.5835C11.6073 18.5835 11.0791 19.0209 10.9198 18.93C10.7604 18.8392 11.4955 18.3333 11.4955 18.3333C11.4955 18.3333 12.7253 18.2914 13.2116 18.2844C13.6979 18.2774 13.969 17.9714 14.1842 17.492V17.4934Z" fill="#FFDA0C"/>
<path fill-rule="evenodd" clip-rule="evenodd" d="M11.9119 16.0666C9.39371 16.0247 6.68124 14.2513 6.14042 11.4312C6.08871 11.1587 5.90285 11.1182 5.87071 11.3753C5.82879 11.7163 5.96574 12.4388 5.96574 12.4388C5.71978 11.9483 5.55209 11.5193 5.45287 10.9813C5.36623 10.5089 5.08115 10.6501 5.09652 11.0064C5.12726 11.7736 5.38439 12.3228 5.75891 12.9782C5.4347 12.6023 5.14543 12.2208 4.84218 11.8323C4.55151 11.4606 4.30416 11.6339 4.60182 12.2166C4.8296 12.6638 5.31173 13.2228 5.67507 13.5777C5.31312 13.3192 4.97494 13.0509 4.66051 12.7365C4.36844 12.4458 4.23149 12.5995 4.3894 12.893C4.61998 13.3192 5.32989 13.9271 5.71839 14.2443C5.64712 14.2443 5.33548 14.1521 5.14263 14.0179C4.86454 13.8251 4.69265 13.9201 5.01407 14.2611C5.18875 14.447 5.44309 14.5867 5.77149 14.7586C6.09989 14.9305 6.25362 15.0087 6.25362 15.0087C6.25362 15.0087 6.07474 15.0451 5.76031 14.9948C5.44588 14.9445 5.44868 15.0912 5.79245 15.1918C6.13623 15.2924 6.46463 15.3385 6.46463 15.3385C5.79665 15.3749 5.93919 15.6558 6.68264 15.6893C5.81761 15.7662 6.74832 16.0666 7.06834 16.1183C6.46184 16.0498 6.85592 16.3168 7.13961 16.4369C7.73912 16.6899 8.38055 16.8925 9.02059 17.0085C9.02059 17.0085 8.16255 16.7444 7.65806 16.497C7.3618 16.3517 7.10187 16.1938 7.54347 16.075C7.36739 16.0415 6.39336 15.7871 7.07532 15.639C6.71198 15.5789 6.44367 15.2798 6.79304 15.2673C6.56525 15.2281 6.40594 14.9598 6.58901 14.8997C5.91264 14.7376 5.74075 14.31 6.14182 14.521C5.53253 14.0123 5.80643 13.6965 6.12784 13.9495C5.94617 13.7231 5.47104 12.7938 6.12086 13.2885C5.94617 12.661 6.71059 13.656 6.71059 13.656C7.15638 14.2331 7.61754 14.9067 8.34142 15.1359C8.66284 15.2379 8.81237 15.4112 9.04295 15.6446C9.64386 16.2539 9.79758 16.2287 10.6081 16.2497C11.1517 16.2651 11.1559 16.2567 11.5975 16.5222C11.7261 16.3838 11.8379 16.2427 11.9147 16.068L11.9119 16.0666Z" fill="#FFDA0C"/>
<path fill-rule="evenodd" clip-rule="evenodd" d="M12.6777 18.1097C12.6777 18.1097 11.1195 18.1041 10.7674 18.0999C10.4152 18.0943 10.3523 18.0901 10.3523 18.0901C10.3104 18.1656 10.1245 18.2033 10.0407 18.2159L10.1455 18.0817L9.8758 18.2341C9.82269 18.0356 9.94847 17.847 10.1273 17.7687C10.0561 17.5647 10.4236 17.4249 10.5773 17.376C11.3054 17.1454 11.7861 16.6689 12.2361 16.0526C14.8005 16.0415 17.2097 13.9886 17.798 11.536C17.8567 11.2901 18.0999 10.8764 18.1362 11.4047C18.1627 11.7876 18.0999 12.0671 18.0412 12.4388C18.0412 12.4388 18.4911 11.2887 18.5429 10.9337C18.5946 10.5788 18.8321 10.5271 18.8503 10.9128C18.8838 11.6688 18.6351 12.2418 18.3137 12.8287C18.3137 12.8287 18.8587 12.1942 19.0767 11.8644C19.3701 11.4228 19.6986 11.529 19.4805 11.9888C19.2625 12.4486 18.7385 13.1976 18.357 13.5232C18.357 13.5232 18.9677 13.0467 19.2709 12.756C19.7181 12.3284 19.8215 12.4458 19.4666 12.9922C19.2025 13.3989 18.691 13.8977 18.3179 14.215C18.3179 14.215 18.6253 14.099 18.8363 13.9732C19.2695 13.7161 19.1871 13.9662 18.9369 14.2639C18.7287 14.5126 18.3165 14.8271 17.8581 15.0534C19.1577 14.9123 17.7756 15.4881 17.3746 15.5677C18.4297 15.4252 17.7295 15.8849 17.0336 15.9311C17.9112 15.9227 17.0448 16.2441 16.592 16.286C17.5646 16.4244 15.7787 17.144 14.936 17.0951C15.1834 17.0406 16.8589 16.3601 16.2678 16.205C16.6018 16.2609 16.9344 15.9394 16.5319 15.9283C16.8296 15.8933 17.3382 15.6054 16.8869 15.6348C17.123 15.537 17.8329 15.0786 17.2334 15.203C17.6946 15.066 18.3989 14.4428 17.6792 14.658C18.2745 14.2499 18.0887 13.7887 17.6666 14.1353C18.4925 13.2116 17.464 13.4925 16.9567 13.9383C16.7737 14.099 16.244 14.6915 16.2175 14.9053C15.7326 14.9556 14.4623 15.7662 14.2457 16.2161C13.2688 16.2091 12.4541 16.3307 11.7079 16.9554C11.3096 17.288 11.0385 17.4627 10.7366 17.5465C10.5633 17.5954 10.2992 17.6527 10.2503 17.8679C10.2503 17.8679 10.3691 17.8106 10.4529 17.847C10.6765 17.9476 10.7227 17.6387 10.7213 17.6387L11.4326 17.4249C11.2495 17.5144 10.8876 17.7771 11.3375 17.6946C10.9015 17.8707 11.1321 17.9811 11.4479 18.0091C11.8742 18.0482 12.2459 18.044 12.6791 18.1125L12.6777 18.1097Z" fill="#FFDA0C"/>
<path fill-rule="evenodd" clip-rule="evenodd" d="M10.4879 17.7002C10.425 17.7603 10.5214 17.7925 10.5578 17.738C10.5955 17.6793 10.5284 17.6611 10.4879 17.7002Z" fill="#FFDA0C"/>
</g>
</g>
<rect x="0.25" y="0.25" width="23.5" height="23.5" rx="11.75" stroke="#E5E3E1" stroke-width="0.5"/>
<defs>
<clipPath id="clip0_16335_6570">
<rect width="24" height="24" rx="12" fill="white"/>
</clipPath>
</defs>
</svg>
