<svg width="24" height="24" viewBox="0 0 24 24" fill="none" xmlns="http://www.w3.org/2000/svg">
<path fill-rule="evenodd" clip-rule="evenodd" d="M11.98 10.9C9.71 10.31 8.98 9.7 8.98 8.75C8.98 7.66 9.99 6.9 11.68 6.9C13.46 6.9 14.12 7.75 14.18 9H16.39C16.32 7.28 15.27 5.7 13.18 5.19V3H10.18V5.16C8.24 5.58 6.68 6.84 6.68 8.77C6.68 11.08 8.59 12.23 11.38 12.9C13.88 13.5 14.38 14.38 14.38 15.31C14.38 16 13.89 17.1 11.68 17.1C9.62 17.1 8.81 16.18 8.7 15H6.5C6.62 17.19 8.26 18.42 10.18 18.83V21H13.18V18.85C15.13 18.48 16.68 17.35 16.68 15.3C16.68 12.46 14.25 11.49 11.98 10.9Z" fill="#323232"/>
</svg>
