<svg width="48" height="48" viewBox="0 0 48 48" fill="none" xmlns="http://www.w3.org/2000/svg">
<path d="M15.8809 29.12C15.8809 27.49 16.1709 26.11 17.8909 24.98L19.9709 23.6C20.7209 23.12 21.3309 22.45 21.3309 21.43C21.3309 20.61 20.8109 20.05 19.7709 20.05C18.7309 20.05 18.1409 20.66 18.1409 21.57V21.89H15.9909V21.53C15.9909 19.49 17.5309 18.04 19.8409 18.04C22.1509 18.04 23.6409 19.29 23.6409 21.32C23.6409 23 22.8509 24.11 21.4409 25.05L19.3409 26.45C18.5909 26.95 18.4109 27.53 18.3609 27.95H23.6409V29.99H15.8809V29.11V29.12Z" fill="#DF0000"/>
<path d="M25.3616 29.12C25.3616 27.49 25.6516 26.11 27.3716 24.98L29.4516 23.6C30.2016 23.12 30.8116 22.45 30.8116 21.43C30.8116 20.61 30.2916 20.05 29.2516 20.05C28.2116 20.05 27.6216 20.66 27.6216 21.57V21.89H25.4716V21.53C25.4716 19.49 27.0116 18.04 29.3216 18.04C31.6316 18.04 33.1216 19.29 33.1216 21.32C33.1216 23 32.3316 24.11 30.9216 25.05L28.8216 26.45C28.0716 26.95 27.8916 27.53 27.8316 27.95H33.1116V29.99H25.3516V29.11L25.3616 29.12Z" fill="#DF0000"/>
<path d="M44.3099 31.6902C44.2099 31.6902 44.0999 31.6702 43.9999 31.6402C43.4799 31.4702 43.1899 30.9002 43.3699 30.3802C43.8099 29.0702 44.1099 27.7102 44.2599 26.3402C44.3199 25.7902 44.8199 25.4002 45.3699 25.4602C45.9199 25.5202 46.3099 26.0202 46.2499 26.5702C46.0799 28.0802 45.7499 29.5702 45.2699 31.0202C45.1299 31.4402 44.7399 31.7102 44.3199 31.7102L44.3099 31.6902Z" fill="#323232"/>
<path d="M39.0709 40.1498C38.8109 40.1498 38.5609 40.0498 38.3609 39.8498C37.9709 39.4598 37.9709 38.8198 38.3609 38.4398C39.9909 36.8198 41.3309 34.9498 42.3409 32.8898C42.5809 32.3898 43.1809 32.1898 43.6809 32.4298C44.1809 32.6698 44.3809 33.2698 44.1409 33.7698C43.0409 36.0298 41.5709 38.0798 39.7809 39.8598C39.5909 40.0498 39.3309 40.1498 39.0809 40.1498H39.0709Z" fill="#323232"/>
<path d="M27.4605 46.0399C26.9805 46.0399 26.5505 45.6899 26.4705 45.1999C26.3805 44.6599 26.7505 44.1399 27.3005 44.0499C30.5705 43.5199 33.6805 42.1899 36.3105 40.2099C36.7505 39.8799 37.3805 39.9599 37.7105 40.3999C38.0405 40.8399 37.9605 41.4699 37.5205 41.7999C34.6405 43.9799 31.2205 45.4399 27.6205 46.0199C27.5705 46.0199 27.5105 46.0299 27.4605 46.0299V46.0399Z" fill="#323232"/>
<path d="M41.4509 4.98995C41.3609 4.44995 40.8509 4.06995 40.3009 4.15995C39.7509 4.24995 39.3809 4.75995 39.4709 5.30995L39.9609 8.34995C34.8909 3.19995 27.6609 0.809953 20.5109 1.96995C8.37086 3.92995 0.0808589 15.41 2.04086 27.56C3.80086 38.44 13.0509 46.32 24.0409 46.32C24.5909 46.32 25.0709 45.88 25.0709 45.32C25.0709 44.77 24.6209 44.32 24.0709 44.32H24.0409C14.0309 44.32 5.61086 37.14 4.01086 27.24C2.23086 16.18 9.77086 5.72995 20.8309 3.93995C27.4609 2.86995 34.1609 5.13995 38.7909 9.99995L35.6209 10.51C35.0709 10.6 34.7009 11.11 34.7909 11.66C34.8709 12.15 35.2909 12.5 35.7809 12.5C35.8309 12.5 35.8909 12.5 35.9409 12.49L41.5009 11.59C42.0509 11.5 42.4209 10.99 42.3309 10.44L41.4509 4.97995V4.98995Z" fill="#323232"/>
</svg>
