<svg width="48" height="48" viewBox="0 0 48 48" fill="none" xmlns="http://www.w3.org/2000/svg">
<path d="M23.9902 14.9898C23.4402 14.9898 22.9902 14.5398 22.9902 13.9898V5.50977C22.9902 4.95977 23.4402 4.50977 23.9902 4.50977C24.5402 4.50977 24.9902 4.95977 24.9902 5.50977V13.9898C24.9902 14.5398 24.5402 14.9898 23.9902 14.9898Z" fill="#323232"/>
<path d="M31.6016 14.99C31.0516 14.99 30.6016 14.54 30.6016 13.99V7.75C30.6016 7.2 31.0516 6.75 31.6016 6.75C32.1516 6.75 32.6016 7.2 32.6016 7.75V13.99C32.6016 14.54 32.1516 14.99 31.6016 14.99Z" fill="#323232"/>
<path d="M16.3809 14.99C15.8309 14.99 15.3809 14.54 15.3809 13.99V7.75C15.3809 7.2 15.8309 6.75 16.3809 6.75C16.9309 6.75 17.3809 7.2 17.3809 7.75V13.99C17.3809 14.54 16.9309 14.99 16.3809 14.99Z" fill="#323232"/>
<path d="M31.1104 43.4902H16.9004C16.3504 43.4902 15.9004 43.0402 15.9004 42.4902C15.9004 41.9402 16.3504 41.4902 16.9004 41.4902H31.1104C31.6604 41.4902 32.1104 41.9402 32.1104 42.4902C32.1104 43.0402 31.6604 43.4902 31.1104 43.4902Z" fill="#323232"/>
<path d="M23.9608 40.3398C18.6808 40.3398 13.6208 38.4898 9.55078 35.0398C5.00078 31.1798 2.23078 25.7898 1.75078 19.8398C1.73078 19.5598 1.82078 19.2898 2.01078 19.0798C2.20078 18.8698 2.47078 18.7598 2.75078 18.7598H45.2508C45.5308 18.7598 45.8008 18.8798 45.9908 19.0798C46.1808 19.2798 46.2708 19.5598 46.2508 19.8398C45.3508 30.7798 36.7608 39.3698 25.8208 40.2698C25.2008 40.3198 24.5808 40.3498 23.9608 40.3498V40.3398ZM3.86078 20.7498C4.53078 25.7298 6.99078 30.2298 10.8508 33.4998C14.9908 37.0098 20.2508 38.7098 25.6608 38.2598C35.2608 37.4698 42.8708 30.1898 44.1408 20.7498H3.86078Z" fill="#323232"/>
<path d="M11.9794 32.1301C15.3194 34.9701 19.5694 36.5301 23.9194 36.5301C24.4294 36.5301 24.9494 36.5101 25.4694 36.4701C29.9294 36.1001 33.8994 34.2301 36.8894 31.3301H11.1094C11.3894 31.6001 11.6794 31.8701 11.9794 32.1301Z" fill="#DF0000"/>
</svg>
