<svg width="48" height="48" viewBox="0 0 48 48" fill="none" xmlns="http://www.w3.org/2000/svg">
<path d="M13.7393 15.13C14.8218 15.13 15.6993 14.2524 15.6993 13.17C15.6993 12.0875 14.8218 11.21 13.7393 11.21C12.6568 11.21 11.7793 12.0875 11.7793 13.17C11.7793 14.2524 12.6568 15.13 13.7393 15.13Z" fill="#8DE2E0"/>
<path d="M10.9795 28.6099C12.062 28.6099 12.9395 27.7324 12.9395 26.6499C12.9395 25.5675 12.062 24.6899 10.9795 24.6899C9.89705 24.6899 9.01953 25.5675 9.01953 26.6499C9.01953 27.7324 9.89705 28.6099 10.9795 28.6099Z" fill="#8DE2E0"/>
<path d="M27.46 22.1998C28.5425 22.1998 29.42 21.3223 29.42 20.2398C29.42 19.1573 28.5425 18.2798 27.46 18.2798C26.3775 18.2798 25.5 19.1573 25.5 20.2398C25.5 21.3223 26.3775 22.1998 27.46 22.1998Z" fill="#8DE2E0"/>
<path d="M20.1505 34.86C19.5905 34.92 19.0205 34.96 18.4405 34.96C10.3205 34.96 3.72047 28.36 3.72047 20.24C3.72047 18.89 3.92047 17.58 4.26047 16.34L8.90047 20.98C9.09047 21.17 9.34047 21.27 9.61047 21.27H24.7005C25.1205 22.4 26.2005 23.21 27.4705 23.21C29.1005 23.21 30.4305 21.88 30.4305 20.25C30.4305 18.62 29.1005 17.29 27.4705 17.29C26.1805 17.29 25.0905 18.12 24.6905 19.28H10.0305L5.02047 14.27C7.32047 9.13004 12.4705 5.54004 18.4605 5.54004C23.6005 5.54004 28.1205 8.19004 30.7605 12.19H16.5305C16.1205 11.05 15.0405 10.23 13.7605 10.23C12.1305 10.23 10.8005 11.56 10.8005 13.19C10.8005 14.82 12.1305 16.15 13.7605 16.15C15.0405 16.15 16.1205 15.33 16.5305 14.19H31.8605C32.7005 16.04 33.1905 18.1 33.1905 20.26C33.1905 22.79 32.5405 25.28 31.3105 27.47C31.0405 27.95 31.2105 28.56 31.6905 28.83C32.1705 29.1 32.7805 28.93 33.0505 28.45C34.4505 25.96 35.1905 23.13 35.1905 20.26C35.1905 17.61 34.5505 15.11 33.4505 12.88C33.4305 12.81 33.3905 12.74 33.3505 12.68C30.5805 7.26004 24.9505 3.54004 18.4605 3.54004C11.4305 3.54004 5.42047 7.90004 2.94047 14.06C2.91047 14.12 2.89047 14.17 2.88047 14.23C2.15047 16.11 1.73047 18.14 1.73047 20.27C1.73047 29.49 9.23047 36.99 18.4505 36.99C19.1005 36.99 19.7505 36.95 20.3905 36.88C20.9405 36.82 21.3305 36.32 21.2705 35.77C21.2105 35.22 20.7105 34.83 20.1605 34.89L20.1505 34.86ZM27.4605 19.28C27.9905 19.28 28.4205 19.71 28.4205 20.24C28.4205 20.77 27.9905 21.2 27.4605 21.2C26.9305 21.2 26.5005 20.77 26.5005 20.24C26.5005 19.71 26.9305 19.28 27.4605 19.28ZM13.7305 14.13C13.2005 14.13 12.7705 13.7 12.7705 13.17C12.7705 12.64 13.2005 12.21 13.7305 12.21C14.2605 12.21 14.6905 12.64 14.6905 13.17C14.6905 13.7 14.2605 14.13 13.7305 14.13Z" fill="#323232"/>
<path d="M26.5995 25.9399C26.4095 25.7499 26.1595 25.6499 25.8895 25.6499H13.7495C13.3395 24.5099 12.2595 23.6899 10.9795 23.6899C9.34953 23.6899 8.01953 25.0199 8.01953 26.6499C8.01953 28.2799 9.34953 29.6099 10.9795 29.6099C12.2595 29.6099 13.3395 28.7899 13.7495 27.6499H25.4795L25.9095 28.0799C26.1095 28.2699 26.3595 28.3699 26.6195 28.3699C26.8795 28.3699 27.1295 28.2699 27.3295 28.0799C27.7195 27.6899 27.7195 27.0599 27.3295 26.6699L26.6095 25.9499L26.5995 25.9399ZM10.9795 27.6099C10.4495 27.6099 10.0195 27.1799 10.0195 26.6499C10.0195 26.1199 10.4495 25.6899 10.9795 25.6899C11.5095 25.6899 11.9395 26.1199 11.9395 26.6499C11.9395 27.1799 11.5095 27.6099 10.9795 27.6099Z" fill="#323232"/>
<path d="M45.3006 34.9402C44.5806 34.2102 43.5106 33.8402 42.1306 33.8402H36.9706L32.3606 30.4202C31.3606 29.7502 30.0906 29.5902 28.9606 29.9802C28.6806 30.0802 28.4606 30.2902 28.3606 30.5602C28.2606 30.8302 28.2706 31.1402 28.4106 31.4002C28.7406 32.0102 29.3306 33.0102 29.8306 33.8602H26.9406L25.8106 32.2902C25.3906 31.7102 24.7106 31.3702 24.0006 31.3702H23.0306C22.5406 31.3702 22.0806 31.6202 21.8006 32.0302C21.5206 32.4402 21.4706 32.9602 21.6506 33.4202L23.3306 37.6702C23.6706 38.5302 24.4906 39.0902 25.4106 39.0902H25.4206L28.7306 39.0702H30.0706L27.9406 42.9402C27.7906 43.2202 27.7806 43.5602 27.9106 43.8502C28.0506 44.1402 28.3206 44.3502 28.6406 44.4002C28.9206 44.4502 29.2106 44.4802 29.4906 44.4802C30.5806 44.4802 31.6506 44.1102 32.5306 43.4002C33.6606 42.4202 36.7206 39.8202 37.6606 39.0202L45.2906 38.9902C45.8406 38.9902 46.2906 38.5402 46.2906 37.9902V37.8802C46.2906 37.3002 46.3206 35.9502 45.3106 34.9402H45.3006ZM31.0306 31.9402C31.0906 31.9702 31.1506 32.0002 31.2106 32.0402L33.6306 33.8402H32.1606C31.8806 33.3802 31.4406 32.6402 31.0206 31.9302L31.0306 31.9402ZM25.4106 37.0802C25.3106 37.0802 25.2306 37.0202 25.1906 36.9302L23.7806 33.3702H24.0006C24.0806 33.3702 24.1506 33.4102 24.1906 33.4602L25.6106 35.4502L26.7806 37.0802H25.4106ZM37.2806 37.0202C37.0406 37.0202 36.8206 37.1002 36.6406 37.2602C36.6406 37.2602 32.5606 40.7202 31.2406 41.8602C31.0406 42.0202 30.8206 42.1502 30.5906 42.2502L32.6406 38.5202C32.8106 38.2102 32.8006 37.8302 32.6206 37.5302C32.4406 37.2302 32.1106 37.0402 31.7606 37.0402L29.2406 37.0602L28.3806 35.8602L42.1406 35.8302C42.9706 35.8302 43.5506 36.0002 43.8806 36.3402C44.0606 36.5202 44.1606 36.7602 44.2206 36.9902L37.2806 37.0202Z" fill="#323232"/>
</svg>
