<svg width="48" height="48" viewBox="0 0 48 48" fill="none" xmlns="http://www.w3.org/2000/svg">
<path d="M28.4508 41.5195C28.4508 43.9795 26.4608 45.9695 24.0008 45.9695C21.5408 45.9695 19.5508 43.9795 19.5508 41.5195H28.4508Z" fill="#DF0000"/>
<path d="M40.9996 37.9897L37.6096 34.3197V20.1897C37.6096 14.7597 34.4696 9.96973 29.6396 7.77973C29.7096 7.42973 29.7396 7.07973 29.7396 6.71973C29.7396 3.54973 27.1596 0.969727 23.9896 0.969727C20.8196 0.969727 18.2396 3.54973 18.2396 6.71973C18.2396 7.07973 18.2796 7.42973 18.3396 7.77973C13.5096 9.96973 10.3496 14.7597 10.3496 20.1897V34.3397L6.97963 37.9897C6.70963 38.2797 6.63963 38.7097 6.79963 39.0697C6.95963 39.4297 7.31963 39.6697 7.71963 39.6697H40.2596C40.6596 39.6697 41.0196 39.4297 41.1796 39.0697C41.3396 38.7097 41.2696 38.2797 40.9996 37.9897ZM23.9996 2.96973C26.0696 2.96973 27.7496 4.64973 27.7496 6.71973C27.7496 6.83973 27.7296 6.95973 27.7196 7.07973C25.2796 6.39973 22.7296 6.39973 20.2896 7.07973C20.2796 6.95973 20.2596 6.84973 20.2596 6.72973C20.2596 4.65973 21.9396 2.97973 24.0096 2.97973L23.9996 2.96973ZM10.0196 37.6697L12.1096 35.4097C12.2796 35.2297 12.3796 34.9797 12.3796 34.7297V20.1897C12.3796 15.0597 15.6596 10.5997 20.5296 9.07973C22.8096 8.37973 25.1996 8.37973 27.4696 9.07973C32.3496 10.5997 35.6296 15.0697 35.6296 20.1897V34.7097C35.6296 34.9597 35.7196 35.1997 35.8996 35.3897L37.9996 37.6697H10.0196Z" fill="#323232"/>
<path d="M33.6217 19.6904C33.6217 20.1304 33.5917 20.5804 33.5117 21.0004C32.1317 17.7104 28.5417 15.3804 24.3417 15.3804C24.2317 15.3804 24.1217 15.3804 24.0117 15.4004V10.4004C29.3217 10.4004 33.6317 14.5604 33.6317 19.6904H33.6217Z" fill="#8DE2E0"/>
</svg>
