<svg width="48" height="48" viewBox="0 0 48 48" fill="none" xmlns="http://www.w3.org/2000/svg">
<path fill-rule="evenodd" clip-rule="evenodd" d="M32.6703 22.3499H26.0103V15.7099C26.0103 15.5199 25.8503 15.3599 25.6603 15.3599H22.9103C22.7203 15.3599 22.5603 15.5199 22.5603 15.7099V22.3499H15.9003C15.7203 22.3499 15.5703 22.4999 15.5703 22.6799V25.4699C15.5703 25.6499 15.7203 25.7999 15.9003 25.7999H22.5603V32.4399C22.5603 32.6299 22.7203 32.7899 22.9103 32.7899H25.6603C25.8503 32.7899 26.0103 32.6299 26.0103 32.4399V25.7999H32.6703C32.8503 25.7999 33.0003 25.6499 33.0003 25.4699V22.6799C33.0003 22.4999 32.8503 22.3499 32.6703 22.3499Z" fill="#DF0000"/>
<path d="M24.0009 1.81006L6.96094 8.81006V13.9301L24.0009 6.94006L41.0409 13.9301V8.81006L24.0009 1.81006Z" fill="#8DE2E0"/>
<path d="M24.0009 47.1899C23.9409 47.1899 23.8909 47.1899 23.8309 47.1799C23.6509 47.1499 5.96094 43.8599 5.96094 22.7199V8.80994C5.96094 8.39994 6.21094 8.03994 6.58094 7.87994L23.6209 0.889941C23.8609 0.789941 24.1409 0.789941 24.3809 0.889941L41.4209 7.88994C41.8009 8.03994 42.0409 8.40994 42.0409 8.81994V22.7299C42.0409 43.8699 24.3509 47.1599 24.1709 47.1899C24.1109 47.1899 24.0609 47.1999 24.0009 47.1999V47.1899ZM7.96094 9.47994V22.7199C7.96094 41.2899 22.1709 44.7999 24.0009 45.1699C25.8309 44.7999 40.0409 41.2799 40.0409 22.7199V9.47994L24.0009 2.88994L7.96094 9.47994Z" fill="#323232"/>
</svg>
