<svg width="48" height="48" viewBox="0 0 48 48" fill="none" xmlns="http://www.w3.org/2000/svg">
<path fill-rule="evenodd" clip-rule="evenodd" d="M18.2402 22.3196H24.6702C25.2202 22.3196 25.6702 21.8696 25.6702 21.3196V14.8896H17.2402V21.3196C17.2402 21.8696 17.6902 22.3196 18.2402 22.3196Z" fill="#8DE2E0"/>
<path d="M13.0301 36.0798H6.08008V14.8898H36.8101V28.8198C36.8101 29.3698 37.2601 29.8198 37.8101 29.8198C38.3601 29.8198 38.8101 29.3698 38.8101 28.8198V14.1598C38.8101 13.9598 38.7501 13.7698 38.6401 13.6098L32.0901 3.78984C31.9001 3.50984 31.5901 3.33984 31.2601 3.33984H11.6301C11.3001 3.33984 10.9801 3.50984 10.8001 3.78984L4.25008 13.6098C4.14008 13.7698 4.08008 13.9698 4.08008 14.1598V37.0698C4.08008 37.6198 4.53008 38.0698 5.08008 38.0698H13.0301C13.5801 38.0698 14.0301 37.6198 14.0301 37.0698C14.0301 36.5198 13.5801 36.0698 13.0301 36.0698V36.0798ZM22.4501 5.34984H30.7301L35.7601 12.8998H22.4401V5.34984H22.4501ZM12.1701 5.34984H20.4501V12.8998H7.13008L12.1601 5.34984H12.1701Z" fill="#323232"/>
<path d="M42.7992 33.58C41.9792 32.75 40.7492 32.32 39.1492 32.32H32.9092L27.3492 28.2C26.2092 27.43 24.7492 27.25 23.4592 27.7C23.1792 27.8 22.9592 28.01 22.8592 28.28C22.7492 28.55 22.7692 28.86 22.9092 29.12C23.3392 29.91 24.1492 31.28 24.7792 32.35H20.8792L19.4692 30.39C18.9992 29.75 18.2792 29.36 17.4592 29.37H16.3092C15.7892 29.37 15.2992 29.64 14.9992 30.07C14.6992 30.51 14.6392 31.06 14.8392 31.55L16.8392 36.63C17.2192 37.59 18.1192 38.2 19.1392 38.2H19.1492L23.0992 38.18H25.0292L22.3192 43.1C22.1592 43.38 22.1492 43.72 22.2892 44.01C22.4292 44.3 22.6992 44.51 23.0192 44.56C23.3492 44.62 23.6792 44.65 24.0092 44.65C25.2692 44.65 26.4992 44.22 27.5092 43.4C28.8892 42.2 32.6492 39.02 33.6992 38.12L42.8892 38.08C43.4392 38.08 43.8892 37.63 43.8892 37.08V36.95C43.8892 36.28 43.9192 34.73 42.7792 33.57L42.7992 33.58ZM25.4392 29.51C25.7092 29.57 25.9792 29.68 26.1992 29.83L29.5692 32.34H27.1192C26.7392 31.71 26.0392 30.54 25.4392 29.51ZM19.1692 36.2C18.9692 36.2 18.7992 36.08 18.7292 35.9L16.9392 31.37H17.4892C17.6392 31.37 17.7792 31.44 17.8692 31.56L21.1892 36.19H19.1692V36.2ZM33.3492 36.13C33.1192 36.13 32.8892 36.21 32.7092 36.37C32.7092 36.37 27.8292 40.5 26.2492 41.88C25.8592 42.19 25.4092 42.42 24.9392 42.54L27.6292 37.64C27.7992 37.33 27.7892 36.95 27.6092 36.65C27.4292 36.35 27.1292 36.19 26.7392 36.16L23.6192 36.18L22.3092 34.35H26.5392L39.1292 34.33C40.1692 34.33 40.9192 34.55 41.3492 34.99C41.6592 35.3 41.7892 35.71 41.8492 36.1L33.3292 36.14L33.3492 36.13Z" fill="#323232"/>
</svg>
