<svg width="48" height="48" viewBox="0 0 48 48" fill="none" xmlns="http://www.w3.org/2000/svg">
<path d="M35.6793 14.1797C32.7693 7.98965 25.4593 5.08965 19.0593 7.71965C18.7093 7.86965 18.3593 8.02965 18.0193 8.19965C14.2893 10.1297 11.7293 13.7997 11.1493 17.9297H11.1293C6.5293 17.9297 2.7793 21.6797 2.7793 26.2797C2.7793 30.8797 6.5293 34.6297 11.1293 34.6297H20.3893C20.9393 34.6297 21.3893 34.1797 21.3893 33.6297C21.3893 33.0797 20.9393 32.6297 20.3893 32.6297H11.1293C7.6293 32.6297 4.7793 29.7797 4.7793 26.2797C4.7793 22.7797 7.6293 19.9297 11.1293 19.9297H12.0493C12.5793 19.9297 13.0093 19.5197 13.0493 18.9897C13.2893 15.1797 15.5493 11.7297 18.9393 9.97965C19.2193 9.82965 19.5193 9.69965 19.8193 9.56965C25.3993 7.27965 31.8093 9.95965 34.0993 15.5397C34.2493 15.9197 34.6193 16.1597 35.0293 16.1597C39.5393 16.1597 43.2193 19.8697 43.2193 24.4397C43.2193 29.0097 39.5493 32.6297 35.0293 32.6297H27.6093C27.0593 32.6297 26.6093 33.0797 26.6093 33.6297C26.6093 34.1797 27.0593 34.6297 27.6093 34.6297H35.0293C40.6493 34.6297 45.2193 30.0597 45.2193 24.4397C45.2193 18.8197 41.0093 14.5297 35.6993 14.1797H35.6793Z" fill="#323232"/>
<path fill-rule="evenodd" clip-rule="evenodd" d="M32.3599 17.8003C33.1199 16.6203 31.6699 13.8103 28.8699 12.0003C26.0699 10.1803 22.9899 10.0503 22.2299 11.2303C21.4699 12.4103 24.2699 12.4003 27.0699 14.2203C29.8699 16.0403 31.5999 18.9903 32.3599 17.8103" fill="#8DE2E0"/>
<path d="M24 41.2504C23.45 41.2504 23 40.8004 23 40.2504V22.6104C23 22.0604 23.45 21.6104 24 21.6104C24.55 21.6104 25 22.0604 25 22.6104V40.2504C25 40.8004 24.55 41.2504 24 41.2504Z" fill="#DF0000"/>
<path d="M30.9291 29.7399C30.6691 29.7399 30.4191 29.6399 30.2191 29.4499L23.9891 23.2199L17.7591 29.4499C17.3691 29.8399 16.7391 29.8399 16.3491 29.4499C15.9591 29.0599 15.9591 28.4299 16.3491 28.0399L23.2791 21.1099C23.6691 20.7199 24.2991 20.7199 24.6891 21.1099L31.6191 28.0399C32.0091 28.4299 32.0091 29.0599 31.6191 29.4499C31.4191 29.6499 31.1691 29.7399 30.9091 29.7399H30.9291Z" fill="#DF0000"/>
</svg>
