<svg width="24" height="24" viewBox="0 0 24 24" fill="none" xmlns="http://www.w3.org/2000/svg">
<path fill-rule="evenodd" clip-rule="evenodd" d="M11 12C8.23772 12 6 9.76228 6 7C6 4.23772 8.23772 2 11 2C13.7623 2 16 4.23772 16 7C16 9.76228 13.7623 12 11 12ZM11 10C12.6577 10 14 8.65772 14 7C14 5.34228 12.6577 4 11 4C9.34228 4 8 5.34228 8 7C8 8.65772 9.34228 10 11 10ZM13.38 13.199C12.5876 13.0681 11.7821 13 11 13C6.83098 13 2 14.9353 2 18V20H4V18C4 16.5399 7.844 15 11 15C11.1857 15 11.3738 15.0053 11.5634 15.0157L13.38 13.199ZM19.41 18L22 20.59L20.59 22L18 19.41L15.41 22L14 20.59L16.59 18L14 15.41L15.41 14L18 16.59L20.59 14L22 15.41L19.41 18Z" fill="#323232"/>
</svg>
