<svg width="48" height="48" viewBox="0 0 48 48" fill="none" xmlns="http://www.w3.org/2000/svg">
<path d="M38.9199 21.1798C38.8399 19.8198 38.7399 18.4698 38.4699 17.1298C38.1099 15.3798 36.9799 14.2798 35.2199 13.9698C34.1999 13.7898 33.1599 13.7198 32.1299 13.6598C29.8399 13.5198 27.5499 13.4698 25.2499 13.4498C22.1599 13.4198 19.0699 13.4798 15.9799 13.6498C14.8899 13.7098 13.7999 13.7798 12.7199 13.9798C11.1399 14.2698 10.0899 15.1798 9.62993 16.7298C9.40993 17.4698 9.32992 18.2498 9.23992 19.0198C9.09992 20.2798 9.02993 21.5498 9.00993 22.8198C8.95993 25.4598 9.02992 28.0898 9.47992 30.6998C9.79992 32.5398 10.9099 33.6798 12.7399 34.0098C14.0099 34.2398 15.2999 34.2998 16.5899 34.3698C19.0499 34.4898 21.5199 34.5298 23.9799 34.5498C26.4299 34.5398 28.8799 34.4998 31.3299 34.3698C32.6399 34.3098 33.9499 34.2298 35.2499 34.0098C36.9099 33.7298 38.0499 32.6698 38.4199 31.0298C38.7399 29.6598 38.8299 28.2598 38.9099 26.8598C39.0199 24.9698 39.0199 23.0698 38.9099 21.1798H38.9199ZM20.9399 28.4698V19.5598C23.5599 21.0498 26.1499 22.5198 28.7799 24.0198C26.1599 25.5098 23.5599 26.9798 20.9399 28.4798V28.4698Z" fill="#323232"/>
</svg>
