<svg width="24" height="24" viewBox="0 0 24 24" fill="none" xmlns="http://www.w3.org/2000/svg">
<path fill-rule="evenodd" clip-rule="evenodd" d="M12.1799 2C17.5587 2 22 6.5418 22 12.0212C22 17.5661 17.545 22 11.9852 22C6.48466 22 2 17.5439 2 12.0434C2 6.42646 6.48466 2 12.1799 2ZM11.9206 2.90053C6.98201 2.90053 2.90053 7.0254 2.90053 12C2.90053 17.0392 6.96085 21.1058 11.9852 21.1058C17.0254 21.1058 21.0995 17.0614 21.0995 12.0434C21.0995 6.92381 17.0836 2.90053 11.9206 2.90053ZM15.9439 9.44021C17.1619 9.44021 18.4455 9.56296 20.4 9.86561L19.9598 10.3196C18.4815 10.0825 17.2413 9.98095 16.1026 9.98095C15.9005 9.98095 15.7206 9.98095 15.2593 10.0032L15.1005 10.2624C15.4603 10.2413 15.5831 10.2413 15.9439 10.2413C17.0836 10.2413 18.4021 10.363 19.7217 10.5799L19.2815 11.0265C18.1651 10.8466 17.0836 10.7598 15.9217 10.7598C15.5619 10.7598 15.2593 10.7598 14.7831 10.8032L14.6032 11.0836C15.0423 11.0413 15.2593 11.0413 15.6053 11.0413C16.9386 11.0413 18.2656 11.1206 19.0656 11.2423L18.6402 11.6825C17.4434 11.546 16.982 11.5238 16.0804 11.5238C15.4032 11.5238 14.9852 11.546 14.2857 11.6032L14.1048 11.9058C14.7037 11.8201 15.3598 11.7841 16.2032 11.7841C16.9249 11.7841 17.4434 11.8053 18.4243 11.9058L17.9841 12.346C17.4 12.3026 17.0836 12.2815 16.6222 12.2815C14.7831 12.2815 13.5217 12.5841 12.0212 13.3841C13.2836 14.6603 15.4032 15.5397 17.1407 15.4603L16.5852 16.1598C12.9587 15.2011 11.1418 14.4222 8.34497 12.6635C6.05926 11.2868 5.20106 10.8466 3.49947 10.2624L3.64339 9.86561C4.36508 10.1249 4.50159 10.1619 4.86243 10.3196L5.02116 9.90159L9.36085 11.7619L9.28148 11.9418C8.71958 11.7619 8.38095 11.6614 8.06349 11.5238C7.84021 11.4233 7.58095 11.3228 6.82328 10.9831L6.76614 11.1206L7.08254 11.3005L7.91958 11.7407C8.76296 12.2021 9.32487 12.382 9.95979 12.382C11.3661 12.382 12.6201 11.3799 13.4063 9.62011C14.2212 9.50476 15.0423 9.44021 15.9439 9.44021Z" fill="#05154D"/>
</svg>
