<svg width="48" height="48" viewBox="0 0 48 48" fill="none" xmlns="http://www.w3.org/2000/svg">
<path d="M45.2002 25.11H38.8802C37.9902 25.11 37.9902 24.47 37.9902 24.47V18.26H39.5002C40.2302 18.26 40.9102 18.62 41.3202 19.22L44.8402 24.31C45.0102 24.56 45.1302 24.83 45.1902 25.12L45.2002 25.11Z" fill="#8DE2E0"/>
<path d="M46.19 24.93C46.19 24.93 46.19 24.93 46.19 24.92C46.11 24.52 45.94 24.12 45.69 23.75L42.16 18.66C41.56 17.79 40.57 17.28 39.52 17.28H38.01H33V15.95C33 14.07 31.47 12.55 29.6 12.55H5.15C3.27 12.55 1.75 14.08 1.75 15.95V28.7901C1.75 30.67 3.28 32.19 5.15 32.19H6.49C6.94 34.09 8.65 35.51 10.68 35.51C12.71 35.51 14.42 34.09 14.87 32.19H31.99H33.15C33.6 34.09 35.31 35.51 37.34 35.51C39.37 35.51 41.06 34.1 41.53 32.21L42.61 32.23H42.67C44.3 32.23 45.7 30.97 45.87 29.34L46.22 25.91C46.25 25.59 46.24 25.27 46.17 24.95L46.19 24.93ZM6.49 30.16H5.15C4.38 30.16 3.75 29.53 3.75 28.76V26.92H9.93C8.24 27.22 6.89 28.5 6.49 30.16ZM10.68 33.48C9.4 33.48 8.36 32.4401 8.36 31.16C8.36 29.88 9.4 28.84 10.68 28.84C11.96 28.84 13 29.88 13 31.16C13 32.4401 11.96 33.48 10.68 33.48ZM30.99 30.16H14.87C14.47 28.5 13.13 27.22 11.43 26.92H30.98V30.16H30.99ZM30.99 18.24C30.99 18.24 30.99 18.25 30.99 18.26V24.92H3.75V15.92C3.75 15.15 4.38 14.52 5.15 14.52H29.59C30.36 14.52 30.99 15.15 30.99 15.92V18.23V18.24ZM39 19.26H39.51C39.91 19.26 40.28 19.46 40.51 19.79L43.51 24.12H39V19.27V19.26ZM37.35 33.48C36.07 33.48 35.04 32.44 35.03 31.17C35.03 31.17 35.03 31.17 35.03 31.16C35.03 31.16 35.03 31.16 35.03 31.15C35.03 29.88 36.07 28.84 37.35 28.84C38.63 28.84 39.65 29.86 39.67 31.13V31.15C39.67 32.43 38.63 33.4701 37.35 33.4701V33.48ZM42.66 30.2001L41.55 30.17C41.1 28.26 39.4 26.83 37.35 26.83C35.3 26.83 33.61 28.25 33.16 30.15H32.99V19.25H37V24.46C37 25.09 37.51 26.1 38.89 26.1H44.2L43.89 29.09C43.82 29.72 43.25 30.19 42.66 30.19V30.2001Z" fill="#323232"/>
</svg>
