<svg width="48" height="48" viewBox="0 0 48 48" fill="none" xmlns="http://www.w3.org/2000/svg">
<path fill-rule="evenodd" clip-rule="evenodd" d="M27.12 25.3101C27.88 25.3201 28.45 25.6901 28.81 26.4201C29.17 27.1401 30.62 29.9501 33.14 34.8301C33.16 35.5301 32.8 35.8701 32.06 35.8701H13.91C13.12 35.6601 12.66 35.2401 12.52 34.6101C12.38 33.9801 11.92 31.5101 11.13 27.2101C11.07 26.4701 11.4 26.1001 12.1 26.1001L27.12 25.3201V25.3101Z" fill="#8DE2E0"/>
<path d="M37.7301 29.45C37.2101 29 36.5301 28.8 35.6901 28.86L31.3801 29.25C30.4801 27.49 29.9101 26.39 29.7001 25.98C29.1701 24.93 28.2601 24.34 27.1301 24.32C27.1101 24.32 27.0901 24.32 27.0601 24.32L20.7901 24.65C15.6201 17.34 12.7901 13.35 12.3801 12.8C12.2401 12.61 12.2201 12.52 12.3301 12.36C13.3601 11.47 14.1001 10.83 14.5601 10.45C15.0601 10.03 15.6401 9.26002 15.5601 7.96002C15.5601 7.92002 15.5601 7.89002 15.5501 7.85002C15.2501 6.16002 15.0401 5.05002 14.9001 4.46002C14.6601 3.48002 14.0001 2.86002 13.0901 2.77002C13.0601 2.77002 13.0201 2.77002 12.9901 2.77002H7.41012C6.68012 2.77002 6.25012 3.08002 6.02012 3.34002C5.65012 3.75002 5.51012 4.32002 5.59012 5.01002L6.41012 14.56C6.41012 14.65 6.44012 14.74 6.47012 14.83L10.5801 25.76C10.2501 26.15 10.1001 26.67 10.1501 27.31C10.1501 27.34 10.1501 27.38 10.1601 27.41C10.9701 31.84 11.4201 34.2 11.5501 34.84C11.6401 35.25 11.8501 35.73 12.2801 36.13L10.8901 44.1C10.8401 44.39 10.9201 44.69 11.1101 44.92C11.3001 45.15 11.5801 45.28 11.8801 45.28H30.4001C30.9501 45.28 31.4001 44.83 31.4001 44.28V36.9H32.0701C32.7301 36.9 33.2501 36.71 33.6301 36.32C33.8601 36.08 34.1201 35.66 34.1401 34.99H35.8801C37.7901 34.82 38.8201 33.62 38.6901 31.71C38.6301 30.72 38.3101 29.96 37.7401 29.47L37.7301 29.45ZM7.56012 4.79002C7.56012 4.79002 7.56012 4.77002 7.56012 4.75002H12.8801C12.8801 4.75002 12.9201 4.83002 12.9401 4.92002C13.0701 5.45002 13.2801 6.53002 13.5601 8.13002C13.5801 8.59002 13.4301 8.78002 13.2701 8.91002C12.8001 9.31002 12.0101 9.98002 10.9201 10.92C10.8601 10.97 10.8101 11.02 10.7701 11.08C10.0901 12 10.0901 13.06 10.7701 13.98C11.0401 14.34 12.6101 16.54 18.4301 24.77L12.4501 25.08L8.38012 14.23L7.56012 4.79002ZM29.3801 43.25H13.0601L14.1701 36.87H29.3801V43.25ZM14.0501 34.87C13.5601 34.72 13.5201 34.5 13.4901 34.39C13.3601 33.79 12.9101 31.4 12.1201 27.09C12.1201 27.09 12.1401 27.09 12.1501 27.09L27.1301 26.31C27.4401 26.32 27.6901 26.42 27.9101 26.86C28.1401 27.32 28.8101 28.63 29.9101 30.76C30.5001 31.89 31.2001 33.25 32.0301 34.86H14.0501V34.87ZM35.7801 32.97H33.3101C32.9801 32.33 32.6701 31.72 32.3801 31.17L35.8601 30.86C36.0501 30.85 36.3001 30.86 36.4301 30.96C36.5701 31.08 36.6701 31.4 36.7001 31.82C36.7501 32.63 36.5201 32.9 35.7901 32.97H35.7801Z" fill="#323232"/>
<path d="M42.1304 8.9599L36.6704 3.9199C36.6104 3.8699 36.5504 3.8399 36.4804 3.7999C36.4404 3.7799 36.4104 3.7499 36.3704 3.7299C36.2504 3.6799 36.1204 3.6599 36.0004 3.6499C35.9804 3.6499 35.9604 3.6599 35.9404 3.6599C35.8404 3.6599 35.7304 3.6799 35.6304 3.7199C35.5804 3.7399 35.5404 3.7699 35.5004 3.7999C35.4504 3.8299 35.3904 3.8499 35.3404 3.8899L29.7404 8.7499C29.3204 9.1099 29.2804 9.7399 29.6404 10.1599C30.0004 10.5799 30.6304 10.6199 31.0504 10.2599L35.0004 6.8399V16.8499C35.0004 17.3999 35.4504 17.8499 36.0004 17.8499C36.5504 17.8499 37.0004 17.3999 37.0004 16.8499V6.9399L40.7804 10.4299C40.9704 10.6099 41.2204 10.6999 41.4604 10.6999C41.7304 10.6999 42.0004 10.5899 42.2004 10.3799C42.5704 9.9699 42.5504 9.3399 42.1404 8.9699L42.1304 8.9599Z" fill="#DF0000"/>
</svg>
