<svg width="70" height="70" viewBox="0 0 70 70" fill="none" xmlns="http://www.w3.org/2000/svg">
<g clip-path="url(#clip0_15605_1799)">
<path d="M33.1687 5.59682L38.642 5.76143V6.95484L36.5021 6.87254L36.2963 14.033H34.9794L35.1852 6.83138L33.0864 6.74908V5.55566L33.1687 5.59682Z" fill="#DF0000"/>
<path d="M44.0331 16.0086L43.9508 12.5518C43.8685 12.5518 43.8274 12.5518 43.7451 12.4695L42.4693 11.9756L41.3171 14.9386L40.0825 14.4859L43.0866 6.66699L45.6792 7.65465C47.243 8.23078 47.9838 9.62995 47.4488 11.0703C47.0784 12.0991 46.2554 12.6341 45.2677 12.7164L45.3912 16.5024L44.0331 16.0086ZM43.9097 8.23078L42.8809 10.9468L44.1154 11.4407C45.0619 11.811 45.8438 11.4818 46.1731 10.6588C46.5023 9.83572 46.0907 9.09497 45.1442 8.76576L43.9097 8.27193V8.23078Z" fill="#DF0000"/>
<path d="M48.1069 18.601L47.0781 17.8191L52.0987 11.1113L53.1275 11.8932L48.1069 18.601Z" fill="#DF0000"/>
<path d="M56.6255 15.0205L58.3128 17.2016C59.3416 18.5184 59.2181 20.1234 57.9424 21.111C56.6255 22.1398 55.0206 21.8518 53.9918 20.5349L53.1276 19.3826L50.823 21.1933L50 20.1645L56.5844 15.0205H56.6255ZM56.5432 16.7489L54.0741 18.6831L54.8971 19.753C55.5144 20.5349 56.4198 20.6584 57.1605 20.0411C57.9012 19.465 57.9835 18.6008 57.3663 17.8189L56.5432 16.7489Z" fill="#DF0000"/>
<path d="M55.5965 26.7491L56.7899 29.959L55.6788 30.3705L54.0327 25.9261L61.8928 23.0454L62.3455 24.28L55.5965 26.7491Z" fill="#DF0000"/>
<path d="M59.6296 33.3333L57.1193 33.4156L57.2016 37.1604H56.0082L55.8848 32.1398L64.2387 31.9341L64.3621 36.8724H63.1687L63.0864 33.2921L60.7407 33.3744L60.823 36.6666H59.6708L59.5885 33.4156L59.6296 33.3333Z" fill="#DF0000"/>
<path d="M14.0328 32.4279V35.1851C14.0328 36.8312 12.9628 38.0657 11.3167 38.0246C9.62946 38.0246 8.55951 36.79 8.55951 35.1439V33.7036H5.6377V32.3867H13.9916L14.0328 32.4279ZM12.8805 33.7447H9.75292V35.0616C9.75292 36.0493 10.3702 36.7077 11.3579 36.7077C12.3044 36.7077 12.9216 36.0904 12.9216 35.1028V33.7859L12.8805 33.7447Z" fill="#DF0000"/>
<path d="M10.9464 46.9958C9.38261 47.572 7.98344 46.8724 7.36615 45.2674C6.79002 43.6625 7.36615 42.2222 8.92994 41.646L11.8929 40.5761C13.4567 40 14.8147 40.6172 15.432 42.3045C16.0081 43.9094 15.432 45.3498 13.8682 45.9259L10.9052 46.9958H10.9464ZM9.42377 42.8806C8.55957 43.2098 8.14805 43.9506 8.51842 44.8559C8.84764 45.7613 9.62953 46.0905 10.4937 45.7613L13.4567 44.6913C14.3209 44.3621 14.7324 43.6214 14.362 42.716C14.0328 41.8107 13.2509 41.4814 12.3867 41.8107L9.42377 42.8806Z" fill="#DF0000"/>
<path d="M11.6872 52.8808L10.9053 51.8108L17.6542 46.8726L18.4361 47.9425L11.6872 52.8808Z" fill="#DF0000"/>
<path d="M19.1357 59.8765L18.2715 59.218L19.2592 52.6337L15.6789 57.2016L14.7324 56.4608L19.8765 49.8765L20.7818 50.5761L19.7941 57.037L23.2921 52.5514L24.2386 53.2921L19.0946 59.8765H19.1357Z" fill="#DF0000"/>
<path d="M25.8023 54.0737L31.0287 55.8021L30.6583 56.9132L28.683 56.2548L26.4196 63.0861L25.1851 62.6746L27.4484 55.8433L25.4731 55.1848L25.8435 54.0737H25.8023Z" fill="#DF0000"/>
<path d="M36.6255 58.4363V58.1894C36.6255 57.4487 36.0905 56.9137 35.2263 56.9137C34.3621 56.9137 33.8683 57.3664 33.8683 58.0248C33.8683 58.4775 34.1563 58.8479 34.7736 59.0536L36.0493 59.5063C37.0782 59.8767 38.107 60.3705 38.1481 61.8931C38.1481 63.3746 37.037 64.4034 35.3909 64.4034C33.7037 64.4034 32.5103 63.4981 32.5103 62.0166V61.7697H33.786V62.0577C33.786 62.8396 34.3621 63.3335 35.3498 63.3335C36.3374 63.3335 36.8724 62.7985 36.8724 62.0577C36.8724 61.3582 36.4197 61.0289 35.7201 60.782L34.4856 60.3293C33.4156 59.9178 32.6749 59.3005 32.6749 58.1483C32.6749 56.8726 33.6625 55.8849 35.2675 55.8438C36.8724 55.8438 37.9835 56.7491 37.9835 58.2306V58.3952H36.6666L36.6255 58.4363Z" fill="#DF0000"/>
<path d="M56.5019 53.7859C56.5019 53.7859 56.5843 53.7859 56.6254 53.7859C56.7077 53.7859 56.7489 53.7859 56.79 53.7036C56.8312 53.6213 56.8723 53.4978 56.79 53.4155C52.469 48.8476 47.1604 45.185 41.1933 42.8394L39.3826 42.0986C38.4361 41.6871 37.8188 40.7818 37.8188 39.7529C37.9423 35.8435 47.1192 36.6665 48.0657 34.8147L48.2303 34.4855C46.3373 32.8394 44.1151 31.646 41.646 30.9464C41.646 31.0698 41.5225 31.4813 42.0575 32.3455C42.5925 33.2097 41.4814 34.6501 39.7941 33.1274L39.6295 33.004C27.4896 21.8517 21.8517 29.218 13.6213 16.255C13.539 16.1316 13.4567 16.0904 13.3332 16.1727C13.2098 16.255 13.1686 16.3373 13.2098 16.4608C19.7118 32.1398 33.0452 28.8476 34.6089 43.4567C34.6912 43.9916 35.0616 44.4443 35.6378 44.5266C43.0452 45.6789 50.2468 48.7653 56.5019 53.7859Z" fill="#DF0000"/>
<path d="M34.9794 70C15.679 70 0 54.2798 0 34.9794C0 15.679 15.679 0 34.9794 0C54.2798 0 69.9588 15.679 69.9588 34.9794C69.9588 54.2798 54.2798 69.9588 34.9794 69.9588V70ZM34.9794 2.18107C16.9136 2.18107 2.18107 16.9136 2.18107 34.9794C2.18107 53.0453 16.9136 67.8189 35.0206 67.8189C53.1276 67.8189 67.8601 53.0864 67.8601 34.9794C67.8601 16.8724 53.0864 2.18107 34.9794 2.18107Z" fill="#DF0000"/>
</g>
<defs>
<clipPath id="clip0_15605_1799">
<rect width="70" height="70" fill="white"/>
</clipPath>
</defs>
</svg>
