<svg width="24" height="24" viewBox="0 0 24 24" fill="none" xmlns="http://www.w3.org/2000/svg">
<g clip-path="url(#clip0_16335_6526)">
<path d="M20.4851 20.4853C25.1714 15.799 25.1714 8.20101 20.4851 3.51472C15.7988 -1.17157 8.20081 -1.17157 3.51452 3.51472C-1.17177 8.20101 -1.17177 15.799 3.51452 20.4853C8.20081 25.1716 15.7988 25.1716 20.4851 20.4853Z" fill="white"/>
<mask id="mask0_16335_6526" style="mask-type:luminance" maskUnits="userSpaceOnUse" x="-1" y="0" width="25" height="24">
<path d="M20.4851 20.4853C25.1714 15.799 25.1714 8.20101 20.4851 3.51472C15.7988 -1.17157 8.20081 -1.17157 3.51452 3.51472C-1.17177 8.20101 -1.17177 15.799 3.51452 20.4853C8.20081 25.1716 15.7988 25.1716 20.4851 20.4853Z" fill="white"/>
</mask>
<g mask="url(#mask0_16335_6526)">
<path d="M29.9993 0H-6.00067V24H29.9993V0Z" fill="white"/>
<path fill-rule="evenodd" clip-rule="evenodd" d="M12 13.4841C12.777 13.4841 13.5191 13.3388 14.2024 13.0719C14.9109 12.7798 15.6865 12.6191 16.5013 12.6191C17.316 12.6191 18.0916 12.7798 18.8001 13.0719C19.482 13.3388 20.2255 13.4841 21.0025 13.4841C21.7795 13.4841 22.5229 13.3388 23.2049 13.0719C23.9134 12.7798 24.689 12.6191 25.5037 12.6191C26.3184 12.6191 27.094 12.7798 27.8025 13.0719C28.4845 13.3388 29.2279 13.4841 30.0049 13.4841V0H-6.00067V13.4841C-5.22368 13.4841 -4.48163 13.3388 -3.79827 13.0719C-3.08976 12.7798 -2.31417 12.6191 -1.49945 12.6191C-0.684729 12.6191 0.0908623 12.7798 0.799375 13.0719C1.48134 13.3388 2.22479 13.4841 3.00177 13.4841C3.77876 13.4841 4.52081 13.3388 5.20417 13.0719C5.91269 12.7798 6.68828 12.6191 7.503 12.6191C8.31772 12.6191 9.09331 12.7798 9.80182 13.0719C10.4838 13.3388 11.2272 13.4841 12.0028 13.4841H12Z" fill="#FF0000"/>
<path fill-rule="evenodd" clip-rule="evenodd" d="M14.085 2.21358C14.4735 2.27926 14.8676 2.3114 15.2617 2.3114C15.5635 2.3114 15.8598 2.29323 16.1505 2.2555C16.4453 2.21777 16.736 2.16187 17.0183 2.0892C17.0323 2.08501 17.0477 2.0892 17.0574 2.09899C17.0686 2.11017 17.07 2.12833 17.063 2.14231C16.9373 2.42459 16.6969 2.6426 16.4048 2.74182C16.0247 2.87737 15.625 2.94725 15.2212 2.94725C15.0898 2.94725 14.9571 2.94026 14.8271 2.92489C14.426 2.88715 14.0305 2.96262 13.6812 3.13171C13.4813 3.22814 13.2969 3.3553 13.1348 3.50902C13.4338 3.73122 13.8307 3.84302 14.201 3.84302C14.4009 3.84302 14.5979 3.81647 14.7908 3.76336C15.122 3.67532 15.4755 3.68091 15.8025 3.78013C15.871 3.80529 15.9171 3.86119 15.9171 3.93665C15.9171 4.02469 15.8444 4.10155 15.755 4.10155C15.6167 4.09875 15.4839 4.10993 15.3553 4.13369C15.4042 4.1812 15.449 4.23011 15.4909 4.28322C15.5426 4.3489 15.537 4.44393 15.4769 4.50402C15.4322 4.54874 15.3609 4.5669 15.3008 4.54315C15.108 4.4565 14.8956 4.41318 14.6845 4.41737C14.331 4.66612 13.9369 4.86316 13.5163 4.99592C13.1082 5.12449 12.6722 5.19436 12.2222 5.19436C11.6562 5.19436 11.1168 5.08536 10.6221 4.88552C10.1093 4.6787 9.6453 4.37545 9.25261 3.99953C9.1506 3.90451 9.03042 3.82765 8.89906 3.77594C8.77189 3.72563 8.63354 3.69908 8.4896 3.69908H8.12486C7.99071 3.69908 7.87192 3.77873 7.82022 3.90171C7.81323 3.91988 7.79366 3.93106 7.7741 3.92547C7.58963 3.88354 7.45827 3.71864 7.45827 3.52859C7.45827 3.3036 7.63994 3.12193 7.86493 3.12193H8.90884C8.97871 3.12193 9.04439 3.10376 9.10448 3.06882C9.2023 3.00873 9.3141 2.97799 9.42869 2.97799C9.55447 2.97799 9.67744 3.01572 9.78085 3.08699L10.4544 3.55095C10.5816 3.63899 10.7311 3.6865 10.8862 3.6865H10.9072C10.6403 3.05904 10.1023 2.79911 9.44127 2.8061C9.36301 2.8061 9.27078 2.8089 9.17016 2.81169C8.41973 2.83265 7.1704 2.86759 6.94121 2.29603C6.92863 2.26948 6.9496 2.23873 6.98034 2.24153C7.27381 2.27786 7.56867 2.30441 7.86633 2.32258C8.46305 2.35891 9.06396 2.35891 9.66207 2.32258C9.96252 2.30441 10.2602 2.27646 10.5564 2.24013C11.1029 2.19122 11.6227 2.46512 11.8882 2.94725C12.0811 2.76418 12.2893 2.60626 12.5129 2.48189C12.8637 2.28625 13.2494 2.17305 13.663 2.17305C13.8055 2.17305 13.9495 2.18563 14.0892 2.21218L14.085 2.21358Z" fill="#996633"/>
<path fill-rule="evenodd" clip-rule="evenodd" d="M14.7977 4.34611C14.9808 4.35589 15.1611 4.40061 15.3302 4.47468C15.3651 4.48306 15.3972 4.48027 15.4238 4.45232C15.4559 4.42017 15.4587 4.36707 15.4308 4.33074C15.3805 4.26785 15.3246 4.20776 15.2645 4.15326C15.0996 4.19379 14.9431 4.25807 14.7963 4.34471L14.7977 4.34611Z" fill="#FED700"/>
<path fill-rule="evenodd" clip-rule="evenodd" d="M7.0628 2.3701C7.38002 2.78933 8.48262 2.75859 9.16318 2.74042C9.2638 2.73763 9.35603 2.73483 9.43569 2.73344C10.1386 2.72645 10.7074 3.01293 10.9813 3.68231C11.1168 3.66414 11.244 3.61104 11.3502 3.5258C11.2272 3.22394 11.0707 2.96262 10.8597 2.78374C10.6459 2.60207 10.3762 2.50425 10.0268 2.5322C9.55447 2.56993 8.76351 2.60627 8.07875 2.55875C7.67628 2.5308 7.30875 2.47351 7.0614 2.3687L7.0628 2.3701Z" fill="#FED700"/>
<path fill-rule="evenodd" clip-rule="evenodd" d="M11.4927 3.38046C11.5975 3.24771 11.7093 3.12054 11.8267 3.00455C11.5794 2.54059 11.0819 2.27088 10.5592 2.31839C10.263 2.35473 9.9639 2.38268 9.66065 2.40224C9.05974 2.43858 8.45743 2.43997 7.85653 2.40224C7.64551 2.38966 7.43729 2.3715 7.22906 2.35054C7.45825 2.42041 7.7587 2.46233 8.08571 2.48469C8.76627 2.53221 9.55304 2.49587 10.0226 2.45814C10.3943 2.42879 10.6822 2.5336 10.91 2.72785C11.1238 2.90952 11.2845 3.17085 11.4117 3.47409C11.441 3.44615 11.4676 3.4154 11.4913 3.38186L11.4927 3.38046Z" fill="#FED700"/>
<path fill-rule="evenodd" clip-rule="evenodd" d="M16.3797 2.67195C16.5977 2.59928 16.7849 2.45395 16.9121 2.2625C16.7235 2.38268 16.4831 2.45954 16.2274 2.50985C15.9045 2.57273 15.558 2.5923 15.2631 2.59649C14.8495 2.60348 14.4358 2.57832 14.0264 2.51404C13.9048 2.49587 13.7818 2.48469 13.6588 2.48749C13.3011 2.49308 12.9699 2.60068 12.6722 2.77397C12.3284 2.9738 12.028 3.26168 11.782 3.5803C11.5724 3.86818 11.2398 4.04146 10.8835 4.04705C10.794 4.04845 10.7046 4.04007 10.6165 4.01911C10.597 4.01491 10.583 3.99395 10.5886 3.97439C10.5928 3.95342 10.6137 3.94085 10.6333 3.94644C10.7144 3.9646 10.7982 3.97439 10.8821 3.97159C11.2133 3.966 11.5249 3.8039 11.7205 3.53558C11.9721 3.20997 12.2809 2.91371 12.6345 2.70829C12.9419 2.52941 13.2857 2.41761 13.6574 2.41202C13.7846 2.40923 13.9118 2.42041 14.0375 2.43997C14.4414 2.50286 14.8523 2.52801 15.2617 2.52103C15.5524 2.51544 15.8962 2.49727 16.2134 2.43578C16.4565 2.38827 16.6843 2.3156 16.8618 2.2052C16.6326 2.2583 16.3978 2.30023 16.1603 2.32957C15.8654 2.36731 15.5664 2.38547 15.2631 2.38547C14.8648 2.38547 14.4679 2.35333 14.0753 2.28625C13.9369 2.2611 13.8 2.24852 13.6588 2.24852C13.2591 2.24852 12.8846 2.35892 12.545 2.54758C12.1705 2.7572 11.8365 3.06184 11.5542 3.42239C11.3977 3.6362 11.149 3.76197 10.8849 3.76197C10.7144 3.76197 10.5495 3.71027 10.4097 3.61244L9.73614 3.14849C9.64391 3.0856 9.53771 3.05346 9.42731 3.05346C9.32669 3.05346 9.22887 3.08001 9.14222 3.13311C9.07095 3.17504 8.9899 3.1974 8.90745 3.1974H7.86355C7.68048 3.1974 7.53235 3.34553 7.53235 3.5286C7.53235 3.64878 7.59663 3.75778 7.70004 3.81647C7.66371 3.72704 7.65393 3.61943 7.69445 3.52999C7.74337 3.42099 7.84678 3.37348 7.96277 3.37348H8.48821C8.68246 3.37348 8.87671 3.41261 9.05558 3.48947C9.07515 3.49785 9.08353 3.52021 9.07515 3.53838C9.06676 3.55794 9.0444 3.56633 9.02623 3.55794C8.85574 3.48527 8.67407 3.44754 8.48821 3.44754H7.96277C7.87752 3.44754 7.79926 3.47829 7.76293 3.55934C7.72799 3.6376 7.74337 3.73542 7.7811 3.81088C7.85516 3.6935 7.98513 3.62223 8.12347 3.62223H8.48821C8.64193 3.62223 8.79006 3.65157 8.92562 3.70468C9.06676 3.76057 9.19393 3.84163 9.30293 3.94224C9.68863 4.31257 10.1456 4.61163 10.6501 4.81426C11.135 5.00991 11.666 5.11751 12.2222 5.11751C12.6652 5.11751 13.0928 5.04903 13.4939 4.92187C13.8908 4.79609 14.2849 4.59765 14.6231 4.36707C14.9766 4.12531 15.3274 4.01771 15.7564 4.0233C15.8039 4.0219 15.8417 3.98277 15.8417 3.93386C15.8417 3.89753 15.8165 3.85979 15.7802 3.85001C15.4643 3.75498 15.1303 3.7494 14.8103 3.83464C14.6147 3.88914 14.4023 3.91569 14.1996 3.91569C13.8097 3.91569 13.3919 3.79691 13.0789 3.55934C12.9783 3.66135 12.886 3.77595 12.8064 3.89892C12.7016 4.06103 12.5576 4.19658 12.3871 4.28882C12.2236 4.37825 12.035 4.42996 11.8351 4.42996C11.8142 4.42996 11.7974 4.41319 11.7974 4.39223C11.7974 4.37127 11.8142 4.3545 11.8351 4.3545C12.0224 4.3545 12.1985 4.30698 12.3508 4.22313C12.5101 4.13649 12.6443 4.01072 12.7421 3.8584C12.8301 3.72145 12.9335 3.59567 13.0467 3.48388C13.2228 3.31059 13.4268 3.16665 13.6448 3.06045C14.0068 2.88576 14.4148 2.80751 14.8313 2.84664C14.9599 2.86061 15.0884 2.86899 15.2184 2.86899C15.6139 2.86899 16.0052 2.80192 16.3769 2.66916L16.3797 2.67195ZM9.42591 3.28264C9.47761 3.28264 9.51954 3.32457 9.51954 3.37627C9.51954 3.42798 9.47761 3.4713 9.42591 3.4713C9.3742 3.4713 9.33228 3.42938 9.33228 3.37627C9.33228 3.32317 9.3742 3.28264 9.42591 3.28264Z" fill="#FED700"/>
<path fill-rule="evenodd" clip-rule="evenodd" d="M9.42588 3.35809C9.43566 3.35809 9.44405 3.36648 9.44405 3.37626C9.44405 3.38604 9.43566 3.39443 9.42588 3.39443C9.4161 3.39443 9.40771 3.38604 9.40771 3.37626C9.40771 3.36648 9.4161 3.35809 9.42588 3.35809Z" fill="#FED700"/>
<path fill-rule="evenodd" clip-rule="evenodd" d="M12.3801 8.51472C12.3941 8.49097 12.4095 8.46721 12.4248 8.44345C12.538 8.26598 12.5967 8.05496 12.5897 7.84534C12.573 7.56166 12.6862 7.28216 12.8986 7.09211C13.0034 6.99848 13.1278 6.93 13.2605 6.89087C13.2801 6.88528 13.3011 6.89646 13.308 6.91603C13.3122 6.92861 13.308 6.94258 13.2997 6.95236C13.2354 7.02363 13.1851 7.10469 13.1487 7.19273C13.0719 7.37859 13.0635 7.58402 13.1278 7.77687C13.1865 7.96692 13.1683 8.17095 13.0803 8.34843C12.9726 8.55944 12.914 8.78863 12.9098 9.0248L14.1619 7.10329C14.1731 7.08512 14.1968 7.08093 14.2136 7.09211C14.2276 7.10049 14.2332 7.11726 14.2304 7.13124L13.8461 8.96052C13.8684 8.94375 13.8922 8.92698 13.9145 8.9116C14.0864 8.79142 14.222 8.61953 14.296 8.42249C14.3883 8.15418 14.6007 7.93897 14.869 7.84394C15.0018 7.79783 15.1429 7.78106 15.2813 7.79643C15.3022 7.79922 15.3176 7.81739 15.3148 7.83835C15.3134 7.85233 15.305 7.86351 15.2938 7.8677C15.2072 7.90823 15.1303 7.96412 15.0633 8.0312C14.9207 8.17374 14.8355 8.361 14.8201 8.56224C14.8019 8.76068 14.7069 8.94235 14.5574 9.07231C14.3771 9.22603 14.236 9.41609 14.1409 9.6313L16.0331 8.33585C16.0499 8.32467 16.0736 8.32886 16.0848 8.34563C16.0932 8.35961 16.0932 8.37638 16.0848 8.38895L15.0297 9.93035C15.0563 9.92337 15.0842 9.91778 15.1122 9.91219C15.3176 9.86747 15.5076 9.75986 15.6516 9.60614C15.8402 9.39373 16.1183 9.27634 16.402 9.29171C16.5418 9.2987 16.6787 9.33923 16.8003 9.40491C16.8185 9.41469 16.8255 9.43845 16.8157 9.45661C16.8087 9.46779 16.7975 9.47478 16.7849 9.47618C16.6899 9.48177 16.5963 9.50273 16.5082 9.53906C16.3224 9.61592 16.1714 9.75567 16.0806 9.93594C15.9884 10.112 15.8305 10.2434 15.6418 10.3063C15.4168 10.3803 15.2128 10.5005 15.0437 10.6626L17.288 10.1903C17.309 10.1861 17.3285 10.1987 17.3327 10.2196C17.3355 10.235 17.3285 10.2504 17.316 10.2588L15.7508 11.2789C15.7788 11.2831 15.8067 11.2873 15.8347 11.2929C16.0415 11.3306 16.2595 11.3041 16.4509 11.216C16.7067 11.0916 17.0085 11.0888 17.2657 11.2132C17.3928 11.2747 17.5032 11.3628 17.5913 11.4704C17.6038 11.4871 17.601 11.5109 17.5857 11.5235C17.5745 11.5318 17.5619 11.5332 17.5493 11.529C17.4599 11.4969 17.3649 11.4815 17.2698 11.4815C17.0686 11.4815 16.8758 11.5528 16.7234 11.6856C16.5697 11.8127 16.3755 11.8742 16.177 11.8602C15.9409 11.8421 15.7061 11.8756 15.4867 11.9609L17.7408 12.3829C17.7617 12.3871 17.7743 12.4067 17.7715 12.4262C17.7687 12.4416 17.7562 12.4542 17.7408 12.457L15.9045 12.8007C15.9283 12.8147 15.952 12.8301 15.9758 12.8455C16.1533 12.9587 16.3643 13.0173 16.5739 13.0104C16.8576 12.9936 17.1371 13.1068 17.3271 13.3192C17.4208 13.424 17.4892 13.5484 17.5284 13.6811C17.534 13.7007 17.5228 13.7217 17.5032 13.7273C17.4906 13.7314 17.4767 13.7273 17.4669 13.7189C17.3956 13.6546 17.3146 13.6043 17.2265 13.5679C17.0407 13.4911 16.8352 13.4827 16.6438 13.547C16.4537 13.6057 16.2497 13.5875 16.0722 13.4995C15.8612 13.3919 15.632 13.3332 15.3972 13.3276L17.3174 14.5811C17.3341 14.5923 17.3397 14.616 17.3285 14.6328C17.3202 14.6468 17.3034 14.6524 17.2894 14.6496L15.4615 14.2639C15.4783 14.2862 15.4951 14.31 15.5104 14.3324C15.6306 14.5056 15.8025 14.6398 15.9996 14.7139C16.2679 14.8061 16.4831 15.0185 16.5781 15.2868C16.6242 15.4196 16.641 15.5607 16.6256 15.6991C16.6228 15.72 16.6047 15.7354 16.5837 15.7326C16.5697 15.7312 16.5585 15.7228 16.5543 15.7117C16.5138 15.625 16.4579 15.5481 16.3908 15.4797C16.2483 15.3371 16.061 15.2505 15.8598 15.2365C15.6614 15.2183 15.4797 15.1233 15.3497 14.9738C15.196 14.7935 15.006 14.651 14.7907 14.5573L16.0862 16.4509C16.0974 16.4677 16.0932 16.4914 16.0764 16.504C16.0624 16.5124 16.0457 16.5124 16.0345 16.504L14.4931 15.4489C14.5001 15.4755 14.5057 15.5034 14.5113 15.5314C14.556 15.7368 14.6636 15.9283 14.8173 16.0708C15.0297 16.2595 15.1471 16.5375 15.1317 16.8226C15.1247 16.9624 15.0842 17.0993 15.0185 17.2223C15.0088 17.2405 14.985 17.2475 14.9668 17.2377C14.9556 17.2307 14.9487 17.2195 14.9473 17.2069C14.9417 17.1119 14.9207 17.0183 14.8844 16.9302C14.8075 16.7444 14.6678 16.5934 14.4875 16.5026C14.3114 16.409 14.1801 16.2525 14.1172 16.0638C14.0431 15.8388 13.9229 15.6348 13.7608 15.4643L14.2332 17.7086C14.2374 17.7296 14.2248 17.7491 14.2038 17.7533C14.1884 17.7561 14.1731 17.7491 14.1647 17.7366L13.1445 16.1714C13.1403 16.1994 13.1362 16.2273 13.1306 16.2553C13.0928 16.4621 13.1194 16.6801 13.2074 16.8715C13.3318 17.1273 13.3346 17.4291 13.2102 17.6863C13.1501 17.8134 13.0607 17.9238 12.9531 18.0119C12.9363 18.0244 12.9126 18.0217 12.9 18.0063C12.8916 17.9951 12.8902 17.9825 12.8944 17.9699C12.9265 17.8805 12.9419 17.7855 12.9419 17.6905C12.9419 17.4892 12.8706 17.2964 12.7379 17.1427C12.6107 16.9889 12.5492 16.7947 12.5632 16.5948C12.5814 16.3587 12.5478 16.1239 12.4626 15.9045L12.0405 18.1586C12.0364 18.1796 12.0168 18.1921 11.9972 18.1894C11.9818 18.1866 11.9707 18.174 11.9679 18.1586L11.6241 16.3223C11.6101 16.3461 11.5948 16.3699 11.5794 16.3936C11.4662 16.5711 11.4075 16.7821 11.4145 16.9917C11.4312 17.2754 11.3181 17.5549 11.1056 17.745C11.0008 17.8386 10.8765 17.9071 10.7437 17.9476C10.7241 17.9532 10.7032 17.942 10.6962 17.9224C10.692 17.9099 10.6962 17.8959 10.7046 17.8861C10.7689 17.8148 10.8192 17.7338 10.8555 17.6457C10.9324 17.4599 10.9407 17.253 10.8765 17.0616C10.8178 16.8715 10.8359 16.6675 10.924 16.4886C11.0316 16.2776 11.0903 16.0484 11.0945 15.8123L9.84234 17.7338C9.83116 17.7505 9.8074 17.7561 9.79063 17.745C9.77665 17.7366 9.77107 17.7198 9.77386 17.7058L10.1582 15.8779C10.1358 15.8947 10.112 15.9115 10.0897 15.9269C9.9178 16.047 9.78224 16.2189 9.70818 16.416C9.61595 16.6843 9.40353 16.8995 9.13522 16.9945C9.00246 17.0406 8.86132 17.0574 8.72297 17.042C8.70201 17.0392 8.68663 17.0211 8.68943 17.0001C8.69083 16.9861 8.69921 16.9764 8.71039 16.9708C8.79703 16.9288 8.87389 16.8743 8.94237 16.8073C9.08491 16.6647 9.17016 16.4775 9.18553 16.2762C9.2037 16.0778 9.29872 15.8961 9.44825 15.7662C9.62852 15.6124 9.76967 15.4224 9.86469 15.2072L7.97253 16.5026C7.95576 16.5138 7.93201 16.5096 7.92083 16.4928C7.91104 16.4803 7.91244 16.4621 7.92083 16.4509L8.97591 14.9095C8.94936 14.9165 8.92141 14.9221 8.89346 14.9277C8.68803 14.9724 8.49798 15.08 8.35404 15.2337C8.16538 15.4461 7.88729 15.5635 7.6036 15.5481C7.46386 15.5412 7.3269 15.502 7.20393 15.435C7.18576 15.4252 7.17877 15.4014 7.18856 15.3832C7.19554 15.3721 7.20672 15.3651 7.2193 15.3637C7.31433 15.3581 7.40796 15.3371 7.496 15.3008C7.68186 15.2239 7.83279 15.0842 7.92362 14.9039C8.01725 14.7278 8.17377 14.5965 8.36242 14.5336C8.58742 14.4595 8.79144 14.3393 8.96054 14.1772L6.71761 14.6496C6.69665 14.6538 6.67709 14.6412 6.67289 14.6202C6.6701 14.6049 6.67709 14.5895 6.68966 14.5811L8.25482 13.561C8.22687 13.5568 8.19892 13.5526 8.17097 13.547C7.96415 13.5093 7.74614 13.5358 7.55469 13.6238C7.29896 13.7482 6.9971 13.751 6.73997 13.6266C6.6128 13.5665 6.5024 13.4771 6.41436 13.3695C6.40179 13.3527 6.40458 13.329 6.41995 13.3164C6.43113 13.308 6.44371 13.3066 6.45629 13.3108C6.54572 13.343 6.64075 13.3583 6.73578 13.3583C6.93701 13.3583 7.12986 13.2871 7.28219 13.1543C7.43591 13.0271 7.63015 12.9656 7.82859 12.9796C8.06476 12.9978 8.29954 12.9642 8.51894 12.879L6.26483 12.457C6.24387 12.4528 6.2313 12.4332 6.23409 12.4122C6.23689 12.3969 6.24946 12.3857 6.26483 12.3829L8.1011 12.0391C8.07734 12.0251 8.05358 12.0098 8.02983 11.9944C7.85235 11.8812 7.64133 11.8225 7.43171 11.8295C7.14803 11.8463 6.86854 11.7331 6.67848 11.5207C6.58485 11.4159 6.51638 11.2915 6.47725 11.1587C6.47166 11.1392 6.48284 11.1182 6.5024 11.1126C6.51498 11.1084 6.52895 11.1126 6.53874 11.121C6.61001 11.1853 6.69106 11.2356 6.7791 11.2719C6.96496 11.3488 7.17039 11.3572 7.36184 11.2929C7.5519 11.2342 7.75593 11.2524 7.9334 11.3404C8.14442 11.448 8.3736 11.5067 8.60838 11.5123L6.68827 10.2588C6.6715 10.2476 6.66591 10.2238 6.67709 10.2071C6.68547 10.1931 6.70224 10.1875 6.71621 10.1903L8.54409 10.576C8.52732 10.5536 8.51055 10.5299 8.49518 10.5075C8.375 10.3342 8.20311 10.2001 8.00607 10.126C7.73776 10.0338 7.52255 9.82135 7.42752 9.55304C7.38141 9.42028 7.36464 9.27914 7.38001 9.14079C7.3828 9.11983 7.40097 9.10445 7.42193 9.10725C7.43591 9.10865 7.44709 9.11703 7.45128 9.12821C7.4932 9.21485 7.5477 9.29171 7.61478 9.36019C7.75732 9.50273 7.94458 9.58937 8.14582 9.60335C8.34426 9.62151 8.52593 9.71654 8.65589 9.86607C8.80961 10.0463 8.99967 10.1889 9.21488 10.2825L7.91943 8.38895C7.90825 8.37218 7.91244 8.34843 7.92921 8.33585C7.94179 8.32607 7.95995 8.32746 7.97113 8.33585L9.51253 9.39093C9.50555 9.36298 9.49996 9.33643 9.49437 9.30848C9.44965 9.10306 9.34204 8.9116 9.18832 8.76906C8.97591 8.58041 8.85852 8.30231 8.87389 8.01723C8.88088 7.87608 8.92001 7.74053 8.98709 7.61755C8.99687 7.59939 9.02063 7.5924 9.0388 7.60218C9.04997 7.60917 9.05696 7.62035 9.05836 7.63293C9.06395 7.72795 9.08491 7.82158 9.12124 7.90962C9.19811 8.09549 9.33785 8.24641 9.51812 8.33725C9.6942 8.43088 9.82557 8.58739 9.88845 8.77605C9.96252 9.00104 10.0827 9.20507 10.2448 9.37556L9.77246 7.13124C9.76827 7.11028 9.78085 7.09071 9.80181 7.08652C9.81718 7.08372 9.83255 7.09071 9.84094 7.10329L10.8611 8.66845C10.8653 8.6405 10.8695 8.61255 10.8751 8.5846C10.9128 8.37777 10.8862 8.15977 10.7982 7.96832C10.6738 7.71258 10.671 7.41073 10.7954 7.1536C10.8555 7.02643 10.9449 6.91603 11.0525 6.82799C11.0693 6.81541 11.0931 6.81821 11.1056 6.83358C11.114 6.84476 11.1154 6.85734 11.1112 6.86991C11.0791 6.95935 11.0637 7.05438 11.0637 7.1494C11.0637 7.35064 11.135 7.54349 11.2677 7.69721C11.3949 7.85093 11.4564 8.04518 11.4424 8.24362C11.4243 8.47979 11.4578 8.71456 11.543 8.93396L11.9651 6.67986C11.9693 6.6589 11.9888 6.64632 12.0084 6.64911C12.0238 6.65191 12.0364 6.66449 12.0391 6.67986L12.3829 8.51612L12.3801 8.51472Z" fill="#996633"/>
<path fill-rule="evenodd" clip-rule="evenodd" d="M12 9.38255C12.0727 9.38255 12.1453 9.38535 12.218 9.39094C12.1747 9.12821 12.2124 8.8599 12.3242 8.62233L12 6.88948L11.5263 9.42028C11.68 9.39653 11.8393 9.38395 12 9.38395V9.38255ZM12 9.45801C13.6336 9.45801 14.957 10.7828 14.957 12.4164C14.957 14.0501 13.6322 15.3749 12 15.3749C10.3678 15.3749 9.04157 14.0501 9.04157 12.4164C9.04157 10.7828 10.3664 9.45801 12 9.45801ZM12.7085 9.4664C12.9363 9.5209 13.1543 9.60195 13.3583 9.70397C13.4184 9.44544 13.5568 9.21206 13.751 9.03458L14.1144 7.31012L12.7085 9.4664ZM12.8357 9.1352L12.6316 9.44823C12.5226 9.42448 12.4095 9.40771 12.2963 9.39653C12.239 9.0793 12.3088 8.7509 12.4891 8.48398C12.6135 8.29113 12.675 8.06614 12.6666 7.83696C12.6512 7.57843 12.7574 7.3199 12.9503 7.14661C13.0132 7.08932 13.0858 7.0432 13.1627 7.00687C13.1305 7.05718 13.104 7.10609 13.0802 7.16059C12.9964 7.36322 12.988 7.58821 13.0565 7.79643C13.1096 7.96832 13.0928 8.14999 13.0132 8.3121C12.8832 8.56783 12.8217 8.85012 12.8357 9.1352ZM14.5867 10.8331C14.7069 11.0288 14.8047 11.2384 14.8788 11.4606C15.1038 11.3194 15.3665 11.2524 15.6292 11.2649L17.1049 10.3021L14.5867 10.8331ZM14.9109 10.6878C15.1024 10.4768 15.3469 10.3202 15.618 10.2308C15.7885 10.1735 15.9283 10.0561 16.0135 9.89682C16.1127 9.70117 16.2762 9.54745 16.4789 9.4636C16.5334 9.44125 16.5879 9.42448 16.6452 9.4119C16.5655 9.38255 16.4817 9.36578 16.3964 9.36159C16.1365 9.34761 15.8793 9.45522 15.7075 9.64947C15.5509 9.81716 15.3483 9.93315 15.1247 9.98206C14.8089 10.0422 14.5266 10.2252 14.3435 10.4907C14.4148 10.5774 14.4819 10.6696 14.5434 10.7646L14.9095 10.6878H14.9109ZM13.7832 9.9625C13.9704 10.0994 14.1409 10.256 14.2932 10.4306C14.4483 10.214 14.665 10.0505 14.9123 9.9625L15.9073 8.50774L13.7832 9.9625ZM14.0277 9.70536C14.1241 9.43565 14.289 9.19948 14.507 9.01222C14.6426 8.89344 14.7264 8.73273 14.7446 8.55246C14.7614 8.33306 14.855 8.12903 15.0101 7.97391C15.0521 7.93199 15.0954 7.89705 15.1443 7.86211C15.059 7.86631 14.9752 7.88168 14.8955 7.90963C14.6496 7.99627 14.4539 8.19331 14.3687 8.43927C14.2876 8.65447 14.1451 8.83754 13.9564 8.9689C13.6881 9.14638 13.4967 9.42308 13.4296 9.73751C13.5302 9.79061 13.6266 9.8507 13.7189 9.91359L14.0277 9.70117V9.70536ZM11.2901 15.3693C11.0623 15.3148 10.8443 15.2337 10.6403 15.1317C10.5802 15.3902 10.4418 15.6236 10.2476 15.8011L9.88424 17.5256L11.2901 15.3693ZM11.1643 15.7005L11.3683 15.3874C11.4773 15.4112 11.5905 15.428 11.7037 15.4391C11.761 15.7564 11.6912 16.0848 11.5109 16.3517C11.3865 16.5445 11.325 16.7695 11.3334 16.9987C11.3488 17.2572 11.244 17.5158 11.0497 17.6891C10.9854 17.7464 10.9142 17.7925 10.8373 17.8288C10.8694 17.7785 10.896 17.7296 10.9198 17.6751C11.0036 17.4725 11.012 17.2475 10.9435 17.0392C10.8904 16.8674 10.9072 16.6857 10.9868 16.5236C11.1168 16.2678 11.1783 15.9856 11.1643 15.7005ZM9.41329 14.0026C9.29311 13.8069 9.19529 13.5973 9.12122 13.3751C8.89623 13.5162 8.63351 13.5833 8.37079 13.5707L6.89507 14.5336L9.41329 14.0026ZM9.08908 14.1479C8.89623 14.3603 8.65307 14.5154 8.38197 14.6049C8.21148 14.6622 8.07173 14.7795 7.98649 14.9389C7.88727 15.1345 7.72376 15.2882 7.52113 15.3721C7.46663 15.3944 7.41213 15.4112 7.35483 15.4238C7.43449 15.4531 7.51834 15.4699 7.60358 15.4741C7.86351 15.4881 8.12064 15.3805 8.29253 15.1862C8.44905 15.0185 8.65168 14.9025 8.87527 14.8536C9.1911 14.7935 9.47338 14.6105 9.65645 14.3449C9.58518 14.2583 9.5181 14.1661 9.45661 14.071L9.09048 14.1479H9.08908ZM10.2168 14.8718C10.0296 14.7348 9.85908 14.5783 9.70676 14.4036C9.55164 14.6202 9.33504 14.7823 9.08769 14.8718L8.09269 16.3265L10.2168 14.8718ZM9.97228 15.1303C9.87585 15.4 9.71095 15.6362 9.49295 15.8235C9.3574 15.9408 9.27355 16.1029 9.25538 16.2832C9.23861 16.5012 9.14498 16.7066 8.99126 16.8618C8.94934 16.9037 8.90602 16.9386 8.8571 16.9736C8.94095 16.9694 9.0262 16.954 9.10585 16.926C9.35181 16.8394 9.54745 16.6424 9.6327 16.3964C9.71375 16.1812 9.85629 15.9981 10.0449 15.8668C10.3133 15.6893 10.5047 15.4126 10.5718 15.0982C10.4712 15.0451 10.3747 14.985 10.2825 14.9221L9.97368 15.1345L9.97228 15.1303ZM14.95 13.1277C14.8955 13.3555 14.8159 13.5735 14.7125 13.7776C14.971 13.8377 15.2044 13.976 15.3819 14.1703L17.1063 14.5336L14.9514 13.1277H14.95ZM15.2812 13.2535L14.9682 13.0495C14.992 12.9391 15.0087 12.8273 15.0199 12.7141C15.3371 12.6568 15.6655 12.7267 15.9311 12.9069C16.1239 13.0313 16.3489 13.0928 16.5781 13.0844C16.8366 13.0691 17.0951 13.1753 17.2684 13.3681C17.3257 13.4324 17.3718 13.5037 17.4082 13.5805C17.3579 13.5484 17.309 13.5218 17.2545 13.4981C17.0518 13.4142 16.8268 13.4058 16.6186 13.4743C16.4467 13.5274 16.265 13.5107 16.1043 13.431C15.8486 13.301 15.5663 13.2395 15.2812 13.2535ZM13.5847 15.0059C13.3891 15.1261 13.1795 15.2253 12.9573 15.298C13.0984 15.5244 13.1655 15.7857 13.1529 16.0484L14.1158 17.5242L13.5847 15.0045V15.0059ZM13.7287 15.3301C13.9411 15.523 14.0962 15.7662 14.1856 16.0373C14.2429 16.2078 14.3603 16.3475 14.5196 16.4327C14.7153 16.532 14.8676 16.6969 14.9528 16.8981C14.9752 16.9526 14.992 17.0071 15.0045 17.0644C15.0339 16.9847 15.0507 16.9009 15.0548 16.8156C15.0688 16.5557 14.9612 16.2986 14.767 16.1267C14.5993 15.9702 14.4847 15.7676 14.4358 15.5426C14.3757 15.2267 14.1926 14.9444 13.9271 14.7614C13.8405 14.8327 13.7482 14.8997 13.6532 14.9626L13.7301 15.3287L13.7287 15.3301ZM14.4539 14.2024C14.3184 14.3897 14.1605 14.5601 13.9858 14.7125C14.2024 14.8676 14.3645 15.0842 14.4539 15.3315L15.9073 16.3265L14.4539 14.2024ZM14.7111 14.4456C14.9808 14.542 15.217 14.7069 15.4028 14.9249C15.5202 15.0604 15.6823 15.1457 15.8626 15.1625C16.0806 15.1792 16.286 15.2729 16.4397 15.428C16.4817 15.4699 16.5166 15.5132 16.5501 15.5621C16.5459 15.4783 16.5306 15.393 16.5026 15.3134C16.416 15.0674 16.2189 14.8718 15.973 14.7865C15.7578 14.7055 15.5747 14.5629 15.4433 14.3743C15.2659 14.1046 14.9892 13.9145 14.6747 13.8474C14.6216 13.9481 14.5615 14.0445 14.4987 14.1367L14.7097 14.4456H14.7111ZM14.9962 11.9441C15.0199 12.0992 15.0325 12.2571 15.0325 12.4178C15.0325 12.4919 15.0297 12.5646 15.0241 12.6358C15.2868 12.5925 15.5551 12.6303 15.7927 12.742L17.5242 12.4178L14.9948 11.9441H14.9962ZM15.3511 11.9329C15.6096 11.8113 15.8947 11.7596 16.1798 11.782C16.3587 11.7946 16.5334 11.7401 16.6717 11.6255C16.838 11.4829 17.0476 11.4047 17.267 11.4047C17.3271 11.4047 17.383 11.4103 17.4403 11.4214C17.3774 11.3642 17.3076 11.3166 17.2307 11.2789C16.9959 11.1671 16.7178 11.1671 16.4844 11.2817C16.2748 11.3767 16.0442 11.4061 15.8193 11.3655C15.5048 11.2999 15.1736 11.3614 14.9039 11.536C14.9361 11.6436 14.964 11.754 14.9836 11.8658L15.3511 11.9343V11.9329ZM12.4737 15.4154C12.32 15.4391 12.1607 15.4517 12 15.4517C11.9273 15.4517 11.8533 15.4489 11.782 15.4433C11.8253 15.7061 11.7876 15.9744 11.6758 16.2133L12 17.9462L12.4737 15.4154ZM12.4835 15.7703C12.6051 16.0289 12.6568 16.314 12.6344 16.599C12.6219 16.7793 12.6764 16.9526 12.791 17.0923C12.9335 17.2586 13.0118 17.4697 13.0118 17.6877C13.0118 17.7478 13.0062 17.8037 12.995 17.8609C13.0523 17.7981 13.0998 17.7282 13.1375 17.6513C13.2493 17.4166 13.2493 17.1385 13.1347 16.9051C13.0397 16.6955 13.0104 16.4649 13.0509 16.2385C13.1166 15.9227 13.0551 15.5929 12.8804 15.3218C12.7728 15.3539 12.6624 15.3819 12.5506 15.4014L12.4821 15.7689L12.4835 15.7703ZM9.04995 11.7079C9.10446 11.4801 9.18411 11.2621 9.28752 11.0581C9.02899 10.998 8.79562 10.8597 8.61814 10.6654L6.89367 10.3021L9.04856 11.7079H9.04995ZM8.71876 11.5822L9.03179 11.7862C9.00803 11.8966 8.99126 12.0084 8.98008 12.1216C8.66286 12.1789 8.33445 12.109 8.06894 11.9287C7.87609 11.8044 7.6511 11.7429 7.42191 11.7512C7.16338 11.7666 6.90485 11.6604 6.73157 11.4676C6.67427 11.4047 6.62815 11.332 6.59182 11.2551C6.64213 11.2873 6.69104 11.3138 6.74554 11.3376C6.94817 11.4214 7.17316 11.4298 7.38139 11.3614C7.55327 11.3083 7.73494 11.325 7.89565 11.4047C8.15139 11.5346 8.43228 11.5961 8.71876 11.5822ZM10.4153 9.82974C10.6109 9.70956 10.8205 9.61174 11.0427 9.53767C10.9016 9.31128 10.8345 9.04996 10.8471 8.78723L9.88564 7.31151L10.4153 9.83114V9.82974ZM10.2699 9.50553C10.0575 9.31268 9.90241 9.06952 9.81297 8.79841C9.75567 8.62792 9.63829 8.48818 9.47898 8.40293C9.28333 8.30371 9.13101 8.14021 9.04576 7.93758C9.0234 7.88308 9.00663 7.82857 8.99406 7.77128C8.96471 7.85093 8.94794 7.93478 8.94375 8.02003C8.92977 8.27995 9.03738 8.53709 9.23162 8.70898C9.39932 8.86549 9.51391 9.06812 9.56282 9.29311C9.62291 9.60894 9.80598 9.89123 10.0715 10.0743C10.1581 10.003 10.2504 9.93595 10.3454 9.87306L10.2685 9.50693L10.2699 9.50553ZM9.54605 10.6333C9.683 10.446 9.83952 10.2741 10.0142 10.1232C9.7976 9.96809 9.63549 9.75148 9.54605 9.50413L8.09269 8.50914L9.54605 10.6333ZM9.28892 10.3901C9.01921 10.2937 8.78304 10.1288 8.59718 9.91079C8.47979 9.77524 8.31768 9.68999 8.13741 9.67322C7.91941 9.65645 7.71398 9.56282 7.55886 9.40771C7.51694 9.36578 7.482 9.32246 7.44846 9.27355C7.45266 9.3574 7.46803 9.44264 7.49598 9.5223C7.58262 9.76825 7.77966 9.9639 8.02561 10.0491C8.24082 10.1302 8.42389 10.2727 8.55525 10.4614C8.73273 10.7297 9.00943 10.9212 9.32386 10.9882C9.37696 10.8876 9.43565 10.7912 9.49994 10.699L9.28892 10.3901ZM9.00384 12.8916C8.98008 12.7379 8.9675 12.5785 8.9675 12.4178C8.9675 12.3452 8.9703 12.2725 8.97589 12.1998C8.71317 12.2432 8.44485 12.2054 8.20728 12.0936L6.47583 12.4178L9.00524 12.8916H9.00384ZM8.64888 12.9014C8.39035 13.0229 8.10527 13.0746 7.82019 13.0523C7.64131 13.0397 7.46663 13.0942 7.32828 13.2088C7.16198 13.3513 6.95097 13.4296 6.73296 13.4296C6.67287 13.4296 6.61697 13.424 6.55968 13.4128C6.62256 13.4701 6.69244 13.5176 6.7693 13.5554C7.00407 13.6672 7.28217 13.6672 7.51554 13.5526C7.72516 13.4575 7.95574 13.4282 8.18073 13.4687C8.49516 13.533 8.82636 13.4729 9.09607 13.2982C9.06393 13.1906 9.03598 13.0802 9.01641 12.9684L8.64888 12.9V12.9014ZM11.5165 9.06533C11.3949 8.8068 11.3432 8.52172 11.3655 8.23663C11.3781 8.05776 11.3236 7.88308 11.209 7.74333C11.0665 7.57703 10.9882 7.36601 10.9882 7.14661C10.9882 7.08652 10.9938 7.03062 11.005 6.97333C10.9477 7.03621 10.9002 7.10609 10.8625 7.18295C10.7507 7.41772 10.7507 7.69582 10.8653 7.93059C10.9603 8.14021 10.9896 8.37079 10.9491 8.59718C10.8834 8.91161 10.9449 9.24281 11.1196 9.51391C11.2272 9.48177 11.3376 9.45382 11.4494 9.43426L11.5179 9.06673L11.5165 9.06533Z" fill="#FED700"/>
<path fill-rule="evenodd" clip-rule="evenodd" d="M12 13.4841C12.777 13.4841 13.5191 13.3388 14.2024 13.0719C14.9109 12.7798 15.6865 12.6191 16.5013 12.6191C17.316 12.6191 18.0916 12.7798 18.8001 13.0719C19.482 13.3388 20.2255 13.4841 21.0025 13.4841C21.7795 13.4841 22.5229 13.3388 23.2049 13.0719C23.9134 12.7798 24.689 12.6191 25.5037 12.6191C26.3184 12.6191 27.094 12.7798 27.8025 13.0719C28.4845 13.3388 29.2279 13.4841 30.0049 13.4841V24H-6.00067V13.4841C-5.22368 13.4841 -4.48163 13.3388 -3.79827 13.0719C-3.08976 12.7798 -2.31417 12.6191 -1.49945 12.6191C-0.684729 12.6191 0.0908623 12.7798 0.799375 13.0719C1.48134 13.3388 2.22479 13.4841 3.00177 13.4841C3.77876 13.4841 4.52081 13.3388 5.20417 13.0719C5.91269 12.7798 6.68828 12.6191 7.503 12.6191C8.31772 12.6191 9.09331 12.7798 9.80182 13.0719C10.4838 13.3388 11.2272 13.4841 12.0028 13.4841H12Z" fill="white"/>
<path fill-rule="evenodd" clip-rule="evenodd" d="M12 15.2086C12.777 15.2086 13.5191 15.0632 14.2024 14.7963C14.9109 14.5042 15.6865 14.3435 16.5012 14.3435C17.316 14.3435 18.0915 14.5042 18.8001 14.7963C19.482 15.0632 20.2255 15.2086 21.0025 15.2086C21.7794 15.2086 22.5229 15.0632 23.2049 14.7963C23.9134 14.5042 24.689 14.3435 25.5037 14.3435C26.3184 14.3435 27.094 14.5042 27.8025 14.7963C28.4845 15.0632 29.2279 15.2086 30.0049 15.2086V16.933C29.2279 16.933 28.4859 16.7877 27.8025 16.5208C27.094 16.2287 26.3184 16.068 25.5037 16.068C24.689 16.068 23.9134 16.2287 23.2049 16.5208C22.5229 16.7877 21.7794 16.933 21.0025 16.933C20.2255 16.933 19.4834 16.7877 18.8001 16.5208C18.0915 16.2287 17.316 16.068 16.5012 16.068C15.6865 16.068 14.9109 16.2287 14.2024 16.5208C13.5205 16.7877 12.777 16.933 12 16.933C11.223 16.933 10.481 16.7877 9.79901 16.5208C9.0905 16.2287 8.31491 16.068 7.50019 16.068C6.68547 16.068 5.90988 16.2287 5.20137 16.5208C4.5194 16.7877 3.77596 16.933 2.99897 16.933C2.22198 16.933 1.47853 16.7877 0.796567 16.5208C0.0880547 16.2287 -0.687536 16.068 -1.50226 16.068C-2.31698 16.068 -3.09257 16.2287 -3.80108 16.5208C-4.48304 16.7877 -5.22649 16.933 -6.00348 16.933V15.2086C-5.22649 15.2086 -4.48444 15.0632 -3.80108 14.7963C-3.09257 14.5042 -2.31698 14.3435 -1.50226 14.3435C-0.687536 14.3435 0.0880547 14.5042 0.796567 14.7963C1.47853 15.0632 2.22198 15.2086 2.99897 15.2086C3.77596 15.2086 4.51801 15.0632 5.20137 14.7963C5.90988 14.5042 6.68547 14.3435 7.50019 14.3435C8.31491 14.3435 9.0905 14.5042 9.79901 14.7963C10.481 15.0632 11.2244 15.2086 12 15.2086Z" fill="#003399"/>
<path fill-rule="evenodd" clip-rule="evenodd" d="M12 18.6589C12.777 18.6589 13.5191 18.5136 14.2024 18.2466C14.9109 17.9546 15.6865 17.7939 16.5012 17.7939C17.316 17.7939 18.0915 17.9546 18.8001 18.2466C19.482 18.5136 20.2255 18.6589 21.0025 18.6589C21.7794 18.6589 22.5229 18.5136 23.2049 18.2466C23.9134 17.9546 24.689 17.7939 25.5037 17.7939C26.3184 17.7939 27.094 17.9546 27.8025 18.2466C28.4845 18.5136 29.2279 18.6589 30.0049 18.6589V20.3834C29.2279 20.3834 28.4859 20.238 27.8025 19.9711C27.094 19.679 26.3184 19.5183 25.5037 19.5183C24.689 19.5183 23.9134 19.679 23.2049 19.9711C22.5229 20.238 21.7794 20.3834 21.0025 20.3834C20.2255 20.3834 19.4834 20.238 18.8001 19.9711C18.0915 19.679 17.316 19.5183 16.5012 19.5183C15.6865 19.5183 14.9109 19.679 14.2024 19.9711C13.5205 20.238 12.777 20.3834 12 20.3834C11.223 20.3834 10.481 20.238 9.79901 19.9711C9.0905 19.679 8.31491 19.5183 7.50019 19.5183C6.68547 19.5183 5.90988 19.679 5.20137 19.9711C4.5194 20.238 3.77596 20.3834 2.99897 20.3834C2.22198 20.3834 1.47853 20.238 0.796567 19.9711C0.0880547 19.679 -0.687536 19.5183 -1.50226 19.5183C-2.31698 19.5183 -3.09257 19.679 -3.80108 19.9711C-4.48304 20.238 -5.22649 20.3834 -6.00348 20.3834V18.6589C-5.22649 18.6589 -4.48444 18.5136 -3.80108 18.2466C-3.09257 17.9546 -2.31698 17.7939 -1.50226 17.7939C-0.687536 17.7939 0.0880547 17.9546 0.796567 18.2466C1.47853 18.5136 2.22198 18.6589 2.99897 18.6589C3.77596 18.6589 4.51801 18.5136 5.20137 18.2466C5.90988 17.9546 6.68547 17.7939 7.50019 17.7939C8.31491 17.7939 9.0905 17.9546 9.79901 18.2466C10.481 18.5136 11.2244 18.6589 12 18.6589Z" fill="#003399"/>
<path fill-rule="evenodd" clip-rule="evenodd" d="M12 22.1078C12.777 22.1078 13.5191 21.9625 14.2024 21.6956C14.9109 21.4035 15.6865 21.2428 16.5013 21.2428C17.316 21.2428 18.0916 21.4035 18.8001 21.6956C19.482 21.9625 20.2255 22.1078 21.0025 22.1078C21.7795 22.1078 22.5229 21.9625 23.2049 21.6956C23.9134 21.4035 24.689 21.2428 25.5037 21.2428C26.3184 21.2428 27.094 21.4035 27.8025 21.6956C28.4845 21.9625 29.2279 22.1078 30.0049 22.1078V24H-6.00067V22.1078C-5.22368 22.1078 -4.48163 21.9625 -3.79827 21.6956C-3.08976 21.4035 -2.31417 21.2428 -1.49945 21.2428C-0.684729 21.2428 0.0908623 21.4035 0.799375 21.6956C1.48134 21.9625 2.22479 22.1078 3.00177 22.1078C3.77876 22.1078 4.52081 21.9625 5.20417 21.6956C5.91269 21.4035 6.68828 21.2428 7.503 21.2428C8.31772 21.2428 9.09331 21.4035 9.80182 21.6956C10.4838 21.9625 11.2272 22.1078 12.0028 22.1078H12Z" fill="#003399"/>
</g>
</g>
<rect x="0.25" y="0.25" width="23.5" height="23.5" rx="11.75" stroke="#E5E3E1" stroke-width="0.5"/>
<defs>
<clipPath id="clip0_16335_6526">
<rect width="24" height="24" rx="12" fill="white"/>
</clipPath>
</defs>
</svg>
