<svg width="48" height="48" viewBox="0 0 48 48" fill="none" xmlns="http://www.w3.org/2000/svg">
<path d="M12.9098 25.7899C10.7298 25.7899 8.56982 25.2199 6.48982 24.0799C6.00982 23.8199 5.82982 23.2099 6.08982 22.7199C6.34982 22.2299 6.95982 22.0499 7.44982 22.3199C9.22982 23.2899 11.0698 23.7799 12.9198 23.7799C15.3398 23.7799 17.3698 22.8999 18.6498 22.1699C19.1298 21.8899 19.7398 22.0599 20.0198 22.5399C20.2898 23.0199 20.1298 23.6299 19.6498 23.9099C18.1598 24.7699 15.7798 25.7899 12.9298 25.7899H12.9098Z" fill="#DF0000"/>
<path d="M24.8099 31.0001L17.4899 38.3201L14.8799 37.2101L22.9499 29.1401L24.8099 31.0001Z" fill="#8DE2E0"/>
<path d="M36.0499 14.7101C38.4899 14.7101 40.4699 12.7301 40.4699 10.2901C40.4699 7.85012 38.4899 5.87012 36.0499 5.87012C33.6099 5.87012 31.6299 7.85012 31.6299 10.2901C31.6299 12.7301 33.6099 14.7101 36.0499 14.7101ZM36.0499 7.88012C37.3799 7.88012 38.4699 8.96012 38.4699 10.3001C38.4699 11.6401 37.3899 12.7201 36.0499 12.7201C34.7099 12.7201 33.6299 11.6401 33.6299 10.3001C33.6299 8.96012 34.7099 7.88012 36.0499 7.88012Z" fill="#323232"/>
<path d="M45.1591 21.74C45.1591 21.74 42.4491 21.67 41.3491 19.14C41.1291 18.63 40.5391 18.4 40.0291 18.62C39.5191 18.84 39.2891 19.43 39.5091 19.94C40.8191 22.95 43.7791 23.75 45.1591 23.75C45.7091 23.75 46.1591 23.3 46.1591 22.75C46.1591 22.2 45.7091 21.75 45.1591 21.75V21.74Z" fill="#323232"/>
<path d="M38.0994 29.7404C35.0494 29.2304 35.0394 26.5604 35.0594 26.2204V20.6104C35.0594 20.0604 34.6094 19.6104 34.0594 19.6104C33.5094 19.6104 33.0594 20.0604 33.0594 20.6104V26.1704C32.9894 27.8004 33.8794 31.0504 37.7694 31.7004C39.2294 31.9504 40.3794 33.0004 41.1794 34.8304C41.7094 36.0304 41.9694 37.4004 41.9694 38.8904V41.1104C41.9694 41.6604 42.4194 42.1104 42.9694 42.1104C43.5194 42.1104 43.9694 41.6604 43.9694 41.1104V38.8904C43.9694 37.1203 43.6494 35.4803 43.0094 34.0303C41.9394 31.5803 40.2394 30.0904 38.0994 29.7304V29.7404Z" fill="#323232"/>
<path d="M34.7394 31.2C34.2194 31.03 33.6494 31.31 33.4794 31.84C33.0494 33.15 31.2994 37.53 26.8494 39.08C26.3294 39.26 26.0494 39.83 26.2294 40.35C26.3694 40.76 26.7594 41.02 27.1694 41.02C27.2794 41.02 27.3894 41 27.4994 40.96C32.8194 39.11 34.8694 33.98 35.3694 32.46C35.5394 31.94 35.2594 31.37 34.7294 31.2H34.7394Z" fill="#323232"/>
<path d="M29.4496 27.77C29.5396 27.68 29.6196 27.57 29.6696 27.44C29.7196 27.32 29.7496 27.19 29.7496 27.06V22.13C29.7496 19.07 34.7996 18.13 37.0396 17.86V27.94C37.0396 28.49 37.4896 28.94 38.0396 28.94C38.5896 28.94 39.0396 28.49 39.0396 27.94V16.76C39.0396 16.49 38.9296 16.23 38.7296 16.04C38.5296 15.85 38.2696 15.75 37.9996 15.76C37.5796 15.78 27.7496 16.23 27.7496 22.12V26.64L24.8096 29.58L21.7596 26.53C20.8096 25.58 19.2796 25.58 18.3296 26.53L12.2696 32.59C11.8096 33.05 11.5596 33.66 11.5596 34.3C11.5596 34.94 11.8096 35.56 12.2696 36.01L13.9696 37.71C13.5596 38.18 13.3296 38.77 13.3296 39.4C13.3296 40.1 13.5996 40.76 14.0996 41.25C14.5996 41.74 15.2496 42.02 15.9496 42.02C16.6496 42.02 17.3096 41.75 17.7996 41.25C18.2896 40.76 18.5696 40.1 18.5696 39.4C18.5696 39.17 18.5296 38.95 18.4696 38.74L29.4496 27.76V27.77ZM13.5596 34.3C13.5596 34.23 13.5796 34.11 13.6796 34L19.7396 27.94C19.9596 27.72 20.1196 27.72 20.3396 27.94L23.3896 30.99L17.2396 37.14C16.8296 36.92 16.3696 36.8 15.9096 36.81L13.6896 34.59C13.5796 34.48 13.5696 34.36 13.5696 34.29L13.5596 34.3ZM16.3896 39.85C16.1596 40.08 15.7496 40.08 15.5196 39.85C15.3996 39.73 15.3396 39.58 15.3396 39.41C15.3396 39.24 15.3996 39.09 15.5196 38.97C15.6396 38.85 15.7896 38.79 15.9596 38.79C16.1296 38.79 16.2796 38.85 16.3996 38.97C16.6396 39.21 16.6396 39.6 16.3996 39.84L16.3896 39.85Z" fill="#323232"/>
<path d="M21.6598 19.2504C22.5298 19.2504 23.2298 18.5504 23.2298 17.6804C23.2298 16.8104 22.5298 16.1104 21.6598 16.1104C20.7898 16.1104 20.0898 16.8104 20.0898 17.6804C20.0898 18.5504 20.7898 19.2504 21.6598 19.2504Z" fill="#323232"/>
<path d="M20.6592 21.02V24.27C20.6592 24.82 21.1092 25.27 21.6592 25.27C22.2092 25.27 22.6592 24.82 22.6592 24.27V21.02C22.6592 20.47 22.2092 20.02 21.6592 20.02C21.1092 20.02 20.6592 20.47 20.6592 21.02Z" fill="#323232"/>
<path d="M4.41961 19.1302C5.28961 19.1302 5.98961 18.4302 5.98961 17.5602C5.98961 16.6902 5.28961 15.9902 4.41961 15.9902C3.54961 15.9902 2.84961 16.6902 2.84961 17.5602C2.84961 18.4302 3.54961 19.1302 4.41961 19.1302Z" fill="#323232"/>
<path d="M5.98961 38.8999H5.41961V20.8999C5.41961 20.3499 4.96961 19.8999 4.41961 19.8999C3.86961 19.8999 3.41961 20.3499 3.41961 20.8999V38.8999H2.84961C2.29961 38.8999 1.84961 39.3499 1.84961 39.8999C1.84961 40.4499 2.29961 40.8999 2.84961 40.8999H5.99961C6.54961 40.8999 6.99961 40.4499 6.99961 39.8999C6.99961 39.3499 6.54961 38.8999 5.99961 38.8999H5.98961Z" fill="#323232"/>
</svg>
