<svg width="48" height="48" viewBox="0 0 48 48" fill="none" xmlns="http://www.w3.org/2000/svg">
<path d="M30.6102 14.4501V12.7601C30.6102 5.4401 25.2702 2.8501 20.7002 2.8501C15.4502 2.8501 10.1502 5.9001 10.1502 12.7101V14.5501C9.91023 14.6701 9.69023 14.8301 9.49023 15.0301C8.63023 15.8901 8.24023 17.3901 8.24023 18.4901C8.24023 21.4601 9.38023 23.4301 11.2602 23.8601C11.8002 25.7701 12.8602 27.4801 14.2902 28.8001V30.4501C14.2902 31.0001 14.7402 31.4501 15.2902 31.4501C15.8402 31.4501 16.2902 31.0001 16.2902 30.4501V30.2701C16.8302 30.5901 18.3702 31.3701 20.4502 31.3701C21.6502 31.3701 23.0202 31.1001 24.4702 30.3201V30.4401C24.4702 30.9901 24.9202 31.4401 25.4702 31.4401C26.0202 31.4401 26.4702 30.9901 26.4702 30.4401V28.8201C27.9402 27.4401 29.0202 25.7001 29.6102 23.7501C30.8402 23.4601 32.5202 22.3401 32.5202 18.4301C32.5202 17.3501 32.5202 15.0201 30.6102 14.4301V14.4501ZM28.8102 21.8601C28.3502 21.8601 27.9602 22.1801 27.8502 22.6301C27.2702 25.0501 25.8002 27.1201 23.7502 28.4501C20.2702 30.4901 17.3002 28.5701 17.1302 28.4501C15.0302 27.2101 13.5302 25.1301 13.0302 22.7401C12.9302 22.2801 12.5302 21.9401 12.0502 21.9401C10.4002 21.9401 10.2302 19.5201 10.2302 18.4801C10.2302 17.7001 10.5202 16.8101 10.8902 16.4401C11.0202 16.3101 11.1002 16.3101 11.1302 16.3101C11.3902 16.3101 11.6502 16.2101 11.8402 16.0201C12.0302 15.8301 12.1302 15.5801 12.1302 15.3101V12.7101C12.1302 6.9101 16.7402 4.8501 20.6802 4.8501C22.5402 4.8501 28.5902 5.4201 28.5902 12.7601V15.3101C28.5902 15.8601 29.0402 16.3101 29.5902 16.3101C30.2202 16.3101 30.5002 16.5101 30.5002 18.4501C30.5002 20.0001 30.2002 21.8501 28.7902 21.8701L28.8102 21.8601Z" fill="#323232"/>
<path d="M25.7303 32.5403C25.6603 32.6203 24.0203 34.4003 20.3803 34.4003C15.6403 34.4003 14.2603 31.8703 14.2103 31.7703C13.9903 31.3303 13.4803 31.1103 13.0103 31.2603L10.4903 32.0603C5.31032 33.6203 4.13032 37.9003 4.23032 39.9503C4.26032 40.4803 4.70032 40.9003 5.23032 40.9003H25.3003C25.8503 40.9003 26.3003 40.4503 26.3003 39.9003C26.3003 39.3503 25.8503 38.9003 25.3003 38.9003H6.32032C6.57032 37.5203 7.52032 35.0503 11.0903 33.9703L12.9203 33.3903C13.8003 34.4803 15.9703 36.4003 20.3903 36.4003C24.8103 36.4003 27.1603 33.9603 27.2503 33.8603C27.6103 33.4403 27.5603 32.8203 27.1503 32.4603C26.7403 32.1003 26.1103 32.1403 25.7403 32.5503L25.7303 32.5403Z" fill="#323232"/>
<path d="M25.4707 31.46C24.9207 31.46 24.4707 31.01 24.4707 30.46V28.46C24.4707 27.91 24.9207 27.46 25.4707 27.46C26.0207 27.46 26.4707 27.91 26.4707 28.46V30.46C26.4707 31.01 26.0207 31.46 25.4707 31.46Z" fill="#323232"/>
<path d="M15.2891 31.4598C14.7391 31.4598 14.2891 31.0098 14.2891 30.4598V28.5498C14.2891 27.9998 14.7391 27.5498 15.2891 27.5498C15.8391 27.5498 16.2891 27.9998 16.2891 28.5498V30.4598C16.2891 31.0098 15.8391 31.4598 15.2891 31.4598Z" fill="#323232"/>
<path d="M20.4502 31.3801C17.9302 31.3801 16.1802 30.2201 16.0702 30.1401C13.7402 28.7701 12.0002 26.5001 11.2602 23.8601C9.38023 23.4301 8.24023 21.4501 8.24023 18.4901C8.24023 17.3901 8.63023 15.8901 9.49023 15.0301C9.69023 14.8301 9.91023 14.6701 10.1502 14.5501V12.7101C10.1502 5.9001 15.4502 2.8501 20.7002 2.8501C25.2702 2.8501 30.6102 5.4501 30.6102 12.7601V14.4501C32.5202 15.0401 32.5202 17.3701 32.5202 18.4501C32.5202 22.3601 30.8402 23.4801 29.6102 23.7701C28.8102 26.4001 27.1202 28.6501 24.8002 30.1601C23.2302 31.0801 21.7302 31.3901 20.4402 31.3901L20.4502 31.3801ZM11.1402 16.3101C11.1402 16.3101 11.0302 16.3101 10.9002 16.4401C10.5302 16.8101 10.2402 17.7101 10.2402 18.4801C10.2402 19.5201 10.4202 21.9401 12.0602 21.9401C12.5302 21.9401 12.9402 22.2701 13.0402 22.7401C13.5402 25.1301 15.0302 27.2101 17.1402 28.4501C17.3102 28.5601 20.2802 30.4801 23.7602 28.4501C25.8002 27.1201 27.2702 25.0401 27.8602 22.6301C27.9702 22.1901 28.3602 21.8701 28.8202 21.8601C30.2302 21.8401 30.5302 19.9901 30.5302 18.4401C30.5302 16.5001 30.2502 16.3001 29.6202 16.3001C29.0702 16.3001 28.6202 15.8501 28.6202 15.3001V12.7501C28.6202 5.4101 22.5602 4.8401 20.7102 4.8401C16.7702 4.8401 12.1602 6.9001 12.1602 12.7001V15.3001C12.1602 15.5701 12.0502 15.8201 11.8702 16.0101C11.6802 16.2001 11.4302 16.3001 11.1602 16.3001L11.1402 16.3101Z" fill="#323232"/>
<path d="M25.3003 40.8901H5.23032C4.70032 40.8901 4.26032 40.4701 4.23032 39.9401C4.13032 37.8901 5.31032 33.6101 10.4903 32.0501L13.0103 31.2501C13.4803 31.1001 13.9903 31.3201 14.2103 31.7601C14.2603 31.8601 15.6403 34.3901 20.3803 34.3901C24.0203 34.3901 25.6603 32.6101 25.7303 32.5301C26.1003 32.1201 26.7303 32.0801 27.1403 32.4401C27.5503 32.8001 27.6003 33.4301 27.2403 33.8401C27.1503 33.9401 24.9803 36.3801 20.3803 36.3801C15.7803 36.3801 13.7903 34.4601 12.9103 33.3701L11.0803 33.9501C7.51032 35.0201 6.56032 37.5001 6.31032 38.8801H25.3003C25.8503 38.8801 26.3003 39.3301 26.3003 39.8801C26.3003 40.4301 25.8503 40.8801 25.3003 40.8801V40.8901Z" fill="#323232"/>
<path d="M36.9709 36.6802V36.5002C36.9709 35.8802 36.5709 35.4402 35.9009 35.4402C35.2309 35.4402 34.8409 35.8302 34.8409 36.3602C34.8409 36.7202 35.0509 37.0702 35.4809 37.2502L36.5109 37.6702C37.3109 37.9902 38.2109 38.4502 38.2109 39.7202C38.2109 40.8802 37.4609 41.6802 36.3109 41.8202V42.9002H35.4709V41.8002C34.3509 41.6502 33.6309 40.9102 33.6309 39.8102V39.6002H34.7209V39.8502C34.7209 40.4902 35.1609 40.9102 35.9109 40.9102C36.6609 40.9102 37.1109 40.4502 37.1109 39.8402C37.1109 39.2602 36.7509 38.9602 36.2409 38.7502L35.2309 38.3402C34.3709 37.9902 33.7509 37.4302 33.7509 36.4402C33.7509 35.4502 34.4109 34.7202 35.4609 34.5402V33.4502H36.3009V34.5402C37.3509 34.6902 38.0609 35.4402 38.0609 36.5402V36.6802H36.9709Z" fill="#DF0000"/>
<path d="M35.9108 46.0999C31.5808 46.0999 28.0508 42.5799 28.0508 38.2399C28.0508 33.8999 31.5708 30.3799 35.9108 30.3799C40.2508 30.3799 43.7708 33.8999 43.7708 38.2399C43.7708 42.5799 40.2508 46.0999 35.9108 46.0999ZM35.9108 32.3899C32.6808 32.3899 30.0508 35.0199 30.0508 38.2499C30.0508 41.4799 32.6808 44.1099 35.9108 44.1099C39.1408 44.1099 41.7708 41.4799 41.7708 38.2499C41.7708 35.0199 39.1408 32.3899 35.9108 32.3899Z" fill="#323232"/>
<path d="M29.6104 15.0402C29.0904 15.0402 28.6504 14.6302 28.6104 14.1102C28.5804 13.6902 28.2004 9.9502 24.5204 9.9502C22.5604 9.9502 21.3904 10.8202 19.9104 11.9202C18.0304 13.3102 15.6904 15.0502 11.1504 15.0502C10.6004 15.0502 10.1504 14.6002 10.1504 14.0502C10.1504 13.5002 10.6004 13.0502 11.1504 13.0502C15.0304 13.0502 16.9004 11.6602 18.7204 10.3102C20.2804 9.1502 21.9004 7.9502 24.5204 7.9502C29.0204 7.9502 30.4704 11.8902 30.6104 13.9802C30.6504 14.5302 30.2304 15.0102 29.6804 15.0402C29.6604 15.0402 29.6404 15.0402 29.6104 15.0402Z" fill="#323232"/>
</svg>
