<svg width="24" height="24" viewBox="0 0 24 24" fill="none" xmlns="http://www.w3.org/2000/svg">
<g clip-path="url(#clip0_16335_6041)">
<path d="M20.4851 20.4853C25.1714 15.799 25.1714 8.20101 20.4851 3.51472C15.7988 -1.17157 8.20081 -1.17157 3.51452 3.51472C-1.17177 8.20101 -1.17177 15.799 3.51452 20.4853C8.20081 25.1716 15.7988 25.1716 20.4851 20.4853Z" fill="white"/>
<mask id="mask0_16335_6041" style="mask-type:luminance" maskUnits="userSpaceOnUse" x="-1" y="0" width="25" height="24">
<path d="M20.4851 20.4853C25.1714 15.799 25.1714 8.20101 20.4851 3.51472C15.7988 -1.17157 8.20081 -1.17157 3.51452 3.51472C-1.17177 8.20101 -1.17177 15.799 3.51452 20.4853C8.20081 25.1716 15.7988 25.1716 20.4851 20.4853Z" fill="white"/>
</mask>
<g mask="url(#mask0_16335_6041)">
<path d="M29.9993 4.85901H-6.00067V19.1425H29.9993V4.85901Z" fill="#007C29"/>
<path d="M29.9993 19.1425H-6.00067V24.0014H29.9993V19.1425Z" fill="#FF0000"/>
<path d="M29.9993 0H-6.00067V4.85897H29.9993V0Z" fill="#FF0000"/>
<path fill-rule="evenodd" clip-rule="evenodd" d="M11.9986 7.16064L12.5702 8.92704L14.4274 8.92424L12.9237 10.0129L13.4995 11.7765L11.9986 10.6822L10.4977 11.7765L11.0749 10.0129L9.57123 8.92424L11.4285 8.92704L11.9986 7.16064Z" fill="#FED700"/>
<path fill-rule="evenodd" clip-rule="evenodd" d="M21.0724 8.16394C20.8627 12.9936 16.8814 16.845 12 16.845C7.11871 16.845 3.13595 12.9936 2.92633 8.16394C4.33357 11.8015 7.86496 14.3812 11.9986 14.3812C16.1323 14.3812 19.6637 11.8015 21.071 8.16394H21.0724Z" fill="#FED700"/>
</g>
</g>
<rect x="0.25" y="0.25" width="23.5" height="23.5" rx="11.75" stroke="#E5E3E1" stroke-width="0.5"/>
<defs>
<clipPath id="clip0_16335_6041">
<rect width="24" height="24" rx="12" fill="white"/>
</clipPath>
</defs>
</svg>
