<svg width="48" height="48" viewBox="0 0 48 48" fill="none" xmlns="http://www.w3.org/2000/svg">
<path d="M28.1596 14.4199V29.1699C28.1596 33.7499 24.3096 37.6399 19.8496 38.8799C20.7596 39.1199 21.6996 39.2599 22.6396 39.2599H23.8196C29.3896 39.2599 35.0796 34.6999 35.0796 29.1299V14.3799L28.1596 14.4199Z" fill="#8DE2E0"/>
<path d="M23.2305 11.7902C23.7805 11.7902 24.2305 11.3402 24.2305 10.7902V3.72021C24.2305 3.17021 23.7805 2.72021 23.2305 2.72021C22.6805 2.72021 22.2305 3.17021 22.2305 3.72021V10.7902C22.2305 11.3402 22.6805 11.7902 23.2305 11.7902Z" fill="#323232"/>
<path d="M29.5703 11.7903C30.1203 11.7903 30.5703 11.3403 30.5703 10.7903V5.59033C30.5703 5.04033 30.1203 4.59033 29.5703 4.59033C29.0203 4.59033 28.5703 5.04033 28.5703 5.59033V10.7903C28.5703 11.3403 29.0203 11.7903 29.5703 11.7903Z" fill="#323232"/>
<path d="M16.8789 11.7903C17.4289 11.7903 17.8789 11.3403 17.8789 10.7903V5.59033C17.8789 5.04033 17.4289 4.59033 16.8789 4.59033C16.3289 4.59033 15.8789 5.04033 15.8789 5.59033V10.7903C15.8789 11.3403 16.3289 11.7903 16.8789 11.7903Z" fill="#323232"/>
<path d="M38.6198 38.2604H30.4898C33.6798 36.2904 36.0798 33.0104 36.0798 29.1304V28.4004C39.3798 28.1904 41.9998 25.4404 41.9998 22.0804C41.9998 18.7204 39.3798 15.9704 36.0798 15.7604V14.3804C36.0798 13.8304 35.6298 13.3804 35.0798 13.3804H11.3798C10.8298 13.3804 10.3798 13.8304 10.3798 14.3804V29.1304C10.3798 32.7604 12.6498 36.1904 15.9198 38.2604H9.38977C7.51977 38.2604 6.00977 39.7804 6.00977 41.6404V41.8904C6.00977 43.7604 7.52977 45.2704 9.38977 45.2704H38.6198C40.4898 45.2704 41.9998 43.7504 41.9998 41.8904V41.6404C41.9998 39.7704 40.4798 38.2604 38.6198 38.2604ZM36.0798 17.7704C38.2798 17.9804 39.9998 19.8304 39.9998 22.0804C39.9998 24.3304 38.2698 26.1904 36.0798 26.3904V17.7704ZM12.3798 29.1304V15.3804H34.0798V29.1304C34.0798 34.3604 28.6698 38.2604 23.8198 38.2604H22.6398C17.2698 38.2604 12.3798 33.9104 12.3798 29.1304ZM39.9998 41.9004C39.9998 42.6604 39.3798 43.2804 38.6198 43.2804H9.37977C8.61977 43.2804 7.99977 42.6604 7.99977 41.9004V41.6504C7.99977 40.8904 8.61977 40.2704 9.37977 40.2704H38.6098C39.3698 40.2704 39.9898 40.8904 39.9898 41.6504V41.9004H39.9998Z" fill="#323232"/>
</svg>
