<svg width="48" height="48" viewBox="0 0 48 48" fill="none" xmlns="http://www.w3.org/2000/svg">
<path fill-rule="evenodd" clip-rule="evenodd" d="M30.02 22.75C31.14 22.75 32.04 21.84 32.04 20.73C32.04 19.62 31.13 18.71 30.02 18.71C28.91 18.71 28 19.62 28 20.73C28 21.84 28.91 22.75 30.02 22.75Z" fill="#323232"/>
<path fill-rule="evenodd" clip-rule="evenodd" d="M17.8696 22.75C18.9896 22.75 19.8896 21.84 19.8896 20.73C19.8896 19.62 18.9796 18.71 17.8696 18.71C16.7596 18.71 15.8496 19.62 15.8496 20.73C15.8496 21.84 16.7596 22.75 17.8696 22.75Z" fill="#323232"/>
<path d="M24 46.2202C11.73 46.2202 1.75 36.2402 1.75 23.9702C1.75 11.7002 11.73 1.72021 24 1.72021C36.27 1.72021 46.25 11.7002 46.25 23.9702C46.25 36.2402 36.27 46.2202 24 46.2202ZM24 3.72021C12.83 3.72021 3.75 12.8102 3.75 23.9702C3.75 35.1302 12.83 44.2202 24 44.2202C35.17 44.2202 44.25 35.1402 44.25 23.9702C44.25 12.8002 35.17 3.72021 24 3.72021Z" fill="#323232"/>
<path d="M24.0009 39.1401C21.5009 39.1401 19.4609 36.7901 19.4609 33.8901C19.4609 30.9901 21.5009 28.6401 24.0009 28.6401C26.5009 28.6401 28.5409 30.9901 28.5409 33.8901C28.5409 36.7901 26.5009 39.1401 24.0009 39.1401ZM24.0009 30.6401C22.6009 30.6401 21.4609 32.1001 21.4609 33.8901C21.4609 35.6801 22.6009 37.1401 24.0009 37.1401C25.4009 37.1401 26.5409 35.6801 26.5409 33.8901C26.5409 32.1001 25.4009 30.6401 24.0009 30.6401Z" fill="#323232"/>
<path fill-rule="evenodd" clip-rule="evenodd" d="M38.4309 14.8899C39.3109 13.6399 37.6009 10.9299 34.6309 8.84995C31.6509 6.76995 28.5309 6.08995 27.6509 7.34995C26.7709 8.59995 29.6109 9.10994 32.5809 11.1899C35.5609 13.2699 37.5509 16.1399 38.4209 14.8899" fill="#8DE2E0"/>
</svg>
