<svg width="48" height="48" viewBox="0 0 48 48" fill="none" xmlns="http://www.w3.org/2000/svg">
<path d="M44.7097 31.1704H39.5197V29.1004C39.5197 28.5504 39.0697 28.1004 38.5197 28.1004H37.9997V16.6704C39.2097 19.7604 41.1297 22.9204 44.1897 24.7504C44.3497 24.8504 44.5297 24.8904 44.6997 24.8904C45.0397 24.8904 45.3697 24.7204 45.5597 24.4004C45.8397 23.9304 45.6897 23.3104 45.2197 23.0304C38.8297 19.1904 38.0097 7.91035 37.9997 7.80035C37.9997 7.75035 37.9697 7.71035 37.9597 7.67035C37.9497 7.61035 37.9497 7.54035 37.9197 7.49035C37.9197 7.47035 37.8997 7.46035 37.8897 7.45035C37.8697 7.41035 37.8497 7.39035 37.8197 7.35035C37.8197 7.35035 37.8197 7.34035 37.8097 7.33035C37.7797 7.28035 37.7497 7.22035 37.6997 7.17035C37.6797 7.15035 37.6597 7.14035 37.6497 7.13035C37.6297 7.11035 37.6097 7.10035 37.5897 7.09035C37.5897 7.09035 37.5697 7.08035 37.5597 7.07035C37.5097 7.03035 37.4597 6.99035 37.3897 6.96035C37.3697 6.96035 37.3397 6.95035 37.3197 6.94035C37.2897 6.93035 37.2497 6.93035 37.2197 6.92035C37.1597 6.90035 37.0997 6.88035 37.0297 6.87035C37.0297 6.87035 37.0197 6.87035 37.0097 6.87035C37.0097 6.87035 36.9897 6.87035 36.9797 6.87035C36.9697 6.87035 36.9497 6.87035 36.9397 6.87035H36.9197C36.8797 6.87035 36.8397 6.89035 36.7997 6.90035C36.7197 6.92035 36.6397 6.93035 36.5597 6.96035C36.5097 6.98035 36.4797 7.02035 36.4397 7.04035C36.3797 7.08035 36.3097 7.12035 36.2597 7.18035C36.2197 7.22035 36.1997 7.27035 36.1697 7.32035C36.1297 7.38035 36.0897 7.44035 36.0597 7.50035C36.0397 7.56035 36.0297 7.62035 36.0197 7.69035C36.0197 7.71035 36.0197 7.72035 36.0197 7.74035C36.0197 7.77035 35.9997 7.80035 35.9897 7.83035C35.8897 8.95035 35.4197 12.8904 33.7897 16.6504C31.5897 21.7304 28.2997 24.3004 23.9797 24.3004C13.1897 24.3004 11.9797 7.95035 11.9697 7.79035C11.9697 7.74035 11.9397 7.70035 11.9297 7.66035C11.9197 7.61035 11.9197 7.55035 11.8997 7.50035C11.8997 7.48035 11.8897 7.46035 11.8797 7.44035C11.8497 7.38035 11.8197 7.34035 11.7797 7.29035C11.7497 7.25035 11.7297 7.21035 11.6997 7.18035C11.6897 7.16035 11.6697 7.15035 11.6597 7.13035C11.6097 7.09035 11.5597 7.06035 11.5097 7.02035C11.4697 7.00035 11.4397 6.97035 11.3997 6.95035C11.3797 6.94035 11.3597 6.93035 11.3397 6.92035C11.2897 6.90035 11.2297 6.90035 11.1797 6.89035C11.1397 6.89035 11.0997 6.86035 11.0597 6.86035H11.0397C11.0297 6.86035 11.0097 6.86035 10.9997 6.86035C10.9897 6.86035 10.9697 6.86035 10.9597 6.86035H10.9397C10.8997 6.86035 10.8597 6.88035 10.8197 6.89035C10.8097 6.89035 10.7997 6.89035 10.7797 6.89035C10.7397 6.89035 10.6997 6.89035 10.6597 6.91035C10.6297 6.92035 10.5997 6.93035 10.5797 6.94035C10.5297 6.96035 10.4997 7.00035 10.4597 7.02035C10.4497 7.02035 10.4297 7.04035 10.4197 7.05035C10.3897 7.07035 10.3697 7.08035 10.3397 7.10035C10.3197 7.12035 10.2997 7.14035 10.2797 7.16035C10.2397 7.20035 10.2197 7.25035 10.1897 7.30035C10.1697 7.34035 10.1397 7.37035 10.1197 7.41035C10.1097 7.43035 10.0997 7.45035 10.0897 7.48035C10.0697 7.53035 10.0697 7.59035 10.0497 7.65035C10.0497 7.69035 10.0197 7.73035 10.0197 7.78035C10.0197 7.89035 9.1997 19.1804 2.7997 23.0104C2.3297 23.2904 2.1697 23.9104 2.4597 24.3804C2.6497 24.6903 2.9797 24.8704 3.3197 24.8704C3.4897 24.8704 3.6697 24.8204 3.8297 24.7304C6.8797 22.9004 8.8097 19.7404 10.0197 16.6504V28.0804H9.4997C8.9497 28.0804 8.4997 28.5304 8.4997 29.0804V31.1504H3.6097C3.0597 31.1504 2.6097 31.6004 2.6097 32.1504C2.6097 32.7004 3.0597 33.1504 3.6097 33.1504H8.4697V40.0504C8.4697 40.6003 8.9197 41.0504 9.4697 41.0504H12.4997C13.0497 41.0504 13.4997 40.6003 13.4997 40.0504V33.1504H34.4897V40.0504C34.4897 40.6003 34.9397 41.0504 35.4897 41.0504H38.5197C39.0697 41.0504 39.5197 40.6003 39.5197 40.0504V33.1504H44.7097C45.2597 33.1504 45.7097 32.7004 45.7097 32.1504C45.7097 31.6004 45.2597 31.1504 44.7097 31.1504V31.1704ZM11.5097 39.0804H10.4797V30.1104H11.5097V39.0804ZM13.5097 31.1704V29.1004C13.5097 28.5504 13.0597 28.1004 12.5097 28.1004H11.9997V16.6504C12.0397 16.7604 12.0797 16.8604 12.1197 16.9704C14.5997 23.0904 18.7097 26.3204 23.9997 26.3204C29.2897 26.3204 33.1397 23.2603 35.6397 17.4604C35.7697 17.1603 35.8897 16.8604 36.0097 16.5604V28.1004H35.4997C34.9497 28.1004 34.4997 28.5504 34.4997 29.1004V31.1704H13.5097ZM37.5197 39.0804H36.4897V30.1104H37.5197V39.0804Z" fill="#323232"/>
</svg>
