<svg width="48" height="48" viewBox="0 0 48 48" fill="none" xmlns="http://www.w3.org/2000/svg">
<path fill-rule="evenodd" clip-rule="evenodd" d="M20.8302 28.5596H27.1802C28.0602 28.5596 28.7702 29.2696 28.7702 30.1496V39.6796C28.7702 40.5596 28.0602 41.2696 27.1802 41.2696H20.8302C19.9502 41.2696 19.2402 40.5596 19.2402 39.6796V30.1496C19.2402 29.2696 19.9502 28.5596 20.8302 28.5596Z" fill="#DF0000"/>
<path d="M39.4904 16.1102V5.99023H33.1504V11.2302" fill="#8DE2E0"/>
<path d="M45.7502 20.0003L40.4902 15.7903V5.99031C40.4902 5.44031 40.0402 4.99031 39.4902 4.99031H33.1502C32.6002 4.99031 32.1502 5.44031 32.1502 5.99031V9.12031L24.6202 3.10031C24.2502 2.81031 23.7402 2.81031 23.3702 3.10031L2.25017 20.0003C1.82017 20.3403 1.75017 20.9703 2.09017 21.4103C2.44017 21.8403 3.06017 21.9103 3.50017 21.5703L7.83017 18.1103V44.0803C7.83017 44.6303 8.28017 45.0803 8.83017 45.0803H39.5002C40.0502 45.0803 40.5002 44.6303 40.5002 44.0803V18.3703L44.5102 21.5803C44.6902 21.7303 44.9202 21.8003 45.1302 21.8003C45.4202 21.8003 45.7102 21.6703 45.9102 21.4203C46.2502 20.9903 46.1802 20.3603 45.7502 20.0103V20.0003ZM34.1502 6.99031H38.4902V14.1903L34.1502 10.7203V6.99031ZM38.4902 43.0703H9.83017V16.5003L24.0002 5.16031L32.4102 11.8903C32.4802 11.9603 32.5602 12.0203 32.6402 12.0703L38.4902 16.7503V43.0603V43.0703Z" fill="#323232"/>
</svg>
