<svg width="48" height="48" viewBox="0 0 48 48" fill="none" xmlns="http://www.w3.org/2000/svg">
<path d="M27.6413 20.8203H20.3613C19.809 20.8203 19.3613 21.268 19.3613 21.8203V26.1903C19.3613 26.7426 19.809 27.1903 20.3613 27.1903H27.6413C28.1936 27.1903 28.6413 26.7426 28.6413 26.1903V21.8203C28.6413 21.268 28.1936 20.8203 27.6413 20.8203Z" fill="#DF0000"/>
<path d="M24 29.2603C23.45 29.2603 23 29.7103 23 30.2603V37.9103C23 38.4603 23.45 38.9103 24 38.9103C24.55 38.9103 25 38.4603 25 37.9103V30.2603C25 29.7103 24.55 29.2603 24 29.2603Z" fill="#323232"/>
<path d="M24 8.4502C23.45 8.4502 23 8.9002 23 9.4502V17.7502C23 18.3002 23.45 18.7502 24 18.7502C24.55 18.7502 25 18.3002 25 17.7502V9.4502C25 8.9002 24.55 8.4502 24 8.4502Z" fill="#323232"/>
<path d="M16.0007 33.1902H13.3607V9.4502C13.3607 8.9002 12.9107 8.4502 12.3607 8.4502C11.8107 8.4502 11.3607 8.9002 11.3607 9.4502V33.1902H8.7207C8.1707 33.1902 7.7207 33.6402 7.7207 34.1902V38.5602C7.7207 39.1102 8.1707 39.5602 8.7207 39.5602H16.0007C16.5507 39.5602 17.0007 39.1102 17.0007 38.5602V34.1902C17.0007 33.6402 16.5507 33.1902 16.0007 33.1902ZM15.0007 37.5502H9.7207V35.1802H15.0007V37.5502Z" fill="#323232"/>
<path d="M39.28 10.6302H36.64V9.4502C36.64 8.9002 36.19 8.4502 35.64 8.4502C35.09 8.4502 34.64 8.9002 34.64 9.4502V10.6302H32C31.45 10.6302 31 11.0802 31 11.6302V16.0002C31 16.5502 31.45 17.0002 32 17.0002H34.64V37.8302C34.64 38.3802 35.09 38.8302 35.64 38.8302C36.19 38.8302 36.64 38.3802 36.64 37.8302V17.0002H39.28C39.83 17.0002 40.28 16.5502 40.28 16.0002V11.6302C40.28 11.0802 39.83 10.6302 39.28 10.6302ZM38.28 15.0002H33V12.6302H38.28V15.0002Z" fill="#323232"/>
<path d="M44.1905 45.1701H3.81055C3.26055 45.1701 2.81055 44.7201 2.81055 44.1701V3.83008C2.81055 3.28008 3.26055 2.83008 3.81055 2.83008H44.1805C44.7305 2.83008 45.1805 3.28008 45.1805 3.83008V44.1701C45.1805 44.7201 44.7305 45.1701 44.1805 45.1701H44.1905ZM4.81055 43.1701H43.1805V4.83008H4.81055V43.1701Z" fill="#323232"/>
</svg>
