<svg width="304" height="60" viewBox="0 0 304 60" fill="none" xmlns="http://www.w3.org/2000/svg">
<g clip-path="url(#clip0_15605_2715)">
<path d="M22.8834 60H84.453L35.0947 10.4615C28.5273 3.89744 19.5997 0 10.3129 0H0L0.76962 2L4.20726 10.9744L22.8834 60Z" fill="#DF0000"/>
<path d="M4.20717 10.9744C10.9285 22.4615 28.6298 23.6923 30.5795 41.5897C30.6821 42.3077 31.2465 42.9231 31.9648 43.0256C42.1751 44.6154 52.0776 48.8205 60.6973 55.7436C60.6973 55.7436 60.7999 55.7436 60.9025 55.7436C61.0051 55.7436 61.0564 55.7436 61.1078 55.641C61.2104 55.5385 61.2104 55.3333 61.1078 55.2308C55.156 48.9744 47.819 43.9487 39.661 40.6667L37.1469 39.641C35.8642 39.1282 34.992 37.8462 34.992 36.4103C35.1459 31.0769 47.7677 32.1538 49.0504 29.5897L49.2556 29.1282C46.6389 26.9231 43.5604 25.2308 40.1741 24.3077C40.1741 24.4615 40.0715 25.0769 40.7385 26.2051C41.5081 27.4359 39.9175 29.3846 37.6087 27.2821L37.4035 27.1282C20.3692 11.4872 7.54219 19.5897 0.769531 2L4.20717 10.9744Z" fill="white"/>
<path d="M90.7127 48.9742C78.5527 48.9742 70.8052 42.6665 70.8052 34.7178C70.8052 26.7691 78.9632 20.4614 91.0718 20.4614C103.181 20.4614 111.339 26.6666 111.339 34.4101C111.339 42.1537 109.799 40.7178 106.875 43.0768H114.058L112.365 45.9999C111.287 47.846 109.953 48.9742 107.08 48.9742H90.7127ZM91.0205 42.5127C97.6393 42.5127 103.283 39.2307 103.283 34.7178C103.283 30.205 97.6906 26.923 91.0205 26.923C84.3505 26.923 78.7579 30.205 78.7579 34.7178C78.7579 39.2307 84.3505 42.5127 91.0205 42.5127Z" fill="white"/>
<path d="M143.868 44.1537H124.73L122.011 48.9742H114.058L127.347 25.9998C128.373 24.2049 129.912 22.769 132.888 22.769H135.864C138.891 22.769 140.379 24.1537 141.405 25.9998L154.694 48.9742H146.587L143.868 44.1537ZM127.962 38.4101H140.635L134.735 27.9485C134.581 27.6921 134.478 27.6408 134.273 27.6408C134.068 27.6408 133.965 27.6408 133.811 27.9485L127.911 38.4101H127.962Z" fill="white"/>
<path d="M192.559 22.769V48.9742H185.479L164.648 31.5896V48.9742H157.567V22.769H162.031C164.288 22.769 165.469 23.3844 166.751 24.4614L185.53 40.1024V22.769H192.611H192.559Z" fill="white"/>
<path d="M217.803 28.6665V48.9742H210.722V28.6665H196.151V22.769H232.323V28.6665H217.751H217.803Z" fill="white"/>
<path d="M255.976 44.1537H236.838L234.119 48.9742H226.166L239.455 25.9998C240.481 24.2049 242.02 22.769 244.996 22.769H247.972C250.999 22.769 252.487 24.1537 253.513 25.9998L266.802 48.9742H258.695L255.976 44.1537ZM240.07 38.4101H252.743L246.843 27.9485C246.689 27.6921 246.586 27.6408 246.381 27.6408C246.176 27.6408 246.073 27.6408 245.919 27.9485L240.019 38.4101H240.07Z" fill="white"/>
<path d="M269.265 47.0768L268.598 46.8717L270.393 41.1794C275.524 42.8204 280.963 43.4871 285.888 43.4871C293.944 43.4871 295.945 42.564 295.945 41.5384C295.945 40.5127 295.688 40.8204 295.021 40.6153C294.2 40.3589 291.994 39.8973 285.375 38.8204C278.09 37.6409 274.754 37.0255 272.343 35.8973C269.932 34.7691 268.444 32.9742 268.444 30.3589C268.444 27.7435 269.418 26.7691 271.009 25.4871C273.831 23.3332 278.603 22.4614 283.785 22.4614C288.967 22.4614 296.15 23.0255 302.41 24.564L302.974 24.7178L301.486 30.2563C294.508 28.7691 290.609 28.3589 285.273 28.2563C281.527 28.2563 278.962 28.5127 277.576 28.923C276.807 29.1794 276.499 29.5384 276.499 29.9486C276.499 30.3589 276.756 30.6666 277.525 30.923C278.346 31.1794 279.731 31.5384 286.914 32.6666C294.662 33.9486 297.227 34.4614 299.382 35.2819C302.307 36.4101 304.051 38.4614 304.051 41.0255C304.051 43.5896 301.537 46.6666 297.176 47.9999C294.508 48.8204 290.865 49.2819 286.812 49.2819C280.45 49.2819 273.677 48.4614 269.316 47.0255L269.265 47.0768Z" fill="white"/>
</g>
<defs>
<clipPath id="clip0_15605_2715">
<rect width="304" height="60" fill="white"/>
</clipPath>
</defs>
</svg>
