<svg width="48" height="48" viewBox="0 0 48 48" fill="none" xmlns="http://www.w3.org/2000/svg">
<path d="M3.88965 24.7801C3.88965 23.3201 5.07965 22.1401 6.52965 22.1401H41.4796C42.9396 22.1401 44.1196 23.3301 44.1196 24.7801V27.4201H3.88965V24.7801Z" fill="#8DE2E0"/>
<path d="M44.1197 14.9599C43.5697 14.9599 43.1197 15.4099 43.1197 15.9599V21.5399C42.6197 21.2899 42.0697 21.1299 41.4797 21.1299H18.4797C18.2197 18.8999 17.0997 16.7799 15.4897 15.5499C14.3597 14.6899 12.8997 14.1599 11.2697 14.0299C10.0397 13.9299 8.85971 14.0699 7.74971 14.4199C6.63971 14.7699 5.66971 15.3499 4.87971 16.0899V9.12988C4.87971 8.57988 4.42971 8.12988 3.87971 8.12988C3.32971 8.12988 2.87971 8.57988 2.87971 9.12988V20.5999C2.85971 20.9599 2.86971 21.3899 2.87971 21.7599V22.1399V38.8899C2.87971 39.4399 3.32971 39.8899 3.87971 39.8899C4.42971 39.8899 4.87971 39.4399 4.87971 38.8899V33.7199H43.1197V38.8899C43.1197 39.4399 43.5697 39.8899 44.1197 39.8899C44.6697 39.8899 45.1197 39.4399 45.1197 38.8899V15.9599C45.1197 15.4099 44.6697 14.9599 44.1197 14.9599ZM43.1197 24.7799V26.4199H4.88971V24.7799C4.88971 23.8699 5.62971 23.1399 6.52971 23.1299H41.4797C42.3897 23.1299 43.1197 23.8699 43.1297 24.7799H43.1197ZM4.88971 20.5799C4.93971 19.9999 5.02971 19.5199 5.17971 19.1199C5.64971 17.8499 6.83971 16.8099 8.35971 16.3199C9.21971 16.0499 10.1397 15.9399 11.1097 16.0199C12.3497 16.1199 13.4497 16.4999 14.2697 17.1299C15.3897 17.9899 16.1997 19.5099 16.4497 21.1299H6.52971C5.93971 21.1299 5.37971 21.2899 4.88971 21.5399V20.6699C4.88971 20.6699 4.88971 20.5999 4.88971 20.5699V20.5799ZM4.88971 31.7099V28.4199H43.1297V31.7099H4.88971Z" fill="#323232"/>
</svg>
