<svg width="48" height="48" viewBox="0 0 48 48" fill="none" xmlns="http://www.w3.org/2000/svg">
<path d="M40.2901 2.75H7.71008C5.98008 2.75 4.58008 4.15 4.58008 5.88V39.01C4.58008 40.74 5.98008 42.14 7.71008 42.14H10.4701V44.25C10.4701 44.8 10.9201 45.25 11.4701 45.25C12.0201 45.25 12.4701 44.8 12.4701 44.25V42.14H36.2801V44.25C36.2801 44.8 36.7301 45.25 37.2801 45.25C37.8301 45.25 38.2801 44.8 38.2801 44.25V42.14H40.2901C42.0201 42.14 43.4201 40.74 43.4201 39.01V5.88C43.4201 4.15 42.0201 2.75 40.2901 2.75ZM41.4201 39.01C41.4201 39.63 40.9101 40.14 40.2901 40.14H7.71008C7.09008 40.14 6.58008 39.63 6.58008 39.01V5.88C6.58008 5.26 7.09008 4.75 7.71008 4.75H40.2901C40.9101 4.75 41.4201 5.26 41.4201 5.88V39.01Z" fill="#323232"/>
<path d="M37.1891 7.43018H11.9891C11.1491 7.43018 10.4591 8.11018 10.4591 8.96018V12.5802H8.86914C8.31914 12.5802 7.86914 13.0302 7.86914 13.5802C7.86914 14.1302 8.31914 14.5802 8.86914 14.5802H10.4591V30.2302H8.86914C8.31914 30.2302 7.86914 30.6802 7.86914 31.2302C7.86914 31.7802 8.31914 32.2302 8.86914 32.2302H10.4591V35.7902C10.4591 36.6302 11.1391 37.3202 11.9891 37.3202H37.1791C38.0191 37.3202 38.7091 36.6402 38.7091 35.7902V8.96018C38.7091 8.12018 38.0291 7.43018 37.1791 7.43018H37.1891ZM36.7091 35.3202H12.4691V9.43018H36.7191V35.3202H36.7091Z" fill="#323232"/>
<path d="M33.4505 21.38H31.3605C31.1905 20.24 30.7405 19.19 30.0805 18.3L31.5605 16.82C31.9505 16.43 31.9505 15.8 31.5605 15.41C31.1705 15.02 30.5405 15.02 30.1505 15.41L28.6705 16.89C27.7805 16.23 26.7305 15.78 25.5905 15.61V13.52C25.5905 12.97 25.1405 12.52 24.5905 12.52C24.0405 12.52 23.5905 12.97 23.5905 13.52V15.61C22.4505 15.78 21.4005 16.23 20.5105 16.89L19.0305 15.41C18.6405 15.02 18.0105 15.02 17.6205 15.41C17.2305 15.8 17.2305 16.43 17.6205 16.82L19.1005 18.3C18.4405 19.19 17.9905 20.24 17.8205 21.38H15.7305C15.1805 21.38 14.7305 21.83 14.7305 22.38C14.7305 22.93 15.1805 23.38 15.7305 23.38H17.8205C17.9905 24.52 18.4405 25.57 19.1005 26.46L17.6205 27.94C17.2305 28.33 17.2305 28.96 17.6205 29.35C17.8205 29.55 18.0705 29.64 18.3305 29.64C18.5905 29.64 18.8405 29.54 19.0405 29.35L20.5205 27.87C21.4105 28.53 22.4605 28.98 23.6005 29.15V31.24C23.6005 31.79 24.0505 32.24 24.6005 32.24C25.1505 32.24 25.6005 31.79 25.6005 31.24V29.15C26.7405 28.98 27.7905 28.53 28.6805 27.87L30.1605 29.35C30.3605 29.55 30.6105 29.64 30.8705 29.64C31.1305 29.64 31.3805 29.54 31.5805 29.35C31.9705 28.96 31.9705 28.33 31.5805 27.94L30.1005 26.46C30.7605 25.57 31.2105 24.52 31.3805 23.38H33.4705C34.0205 23.38 34.4705 22.93 34.4705 22.38C34.4705 21.83 34.0205 21.38 33.4705 21.38H33.4505ZM24.5905 27.23C21.9105 27.23 19.7405 25.05 19.7405 22.38C19.7405 19.71 21.9205 17.53 24.5905 17.53C27.2605 17.53 29.4405 19.71 29.4405 22.38C29.4405 25.05 27.2605 27.23 24.5905 27.23Z" fill="#DF0000"/>
</svg>
