<svg width="48" height="48" viewBox="0 0 48 48" fill="none" xmlns="http://www.w3.org/2000/svg">
<path d="M14.94 6.56006L2.75 11.5701V15.2301L14.94 10.2301L27.12 15.2301V11.5701L14.94 6.56006Z" fill="#8DE2E0"/>
<path d="M14.94 39.2999C14.88 39.2999 14.83 39.2999 14.77 39.2899C14.64 39.2699 1.75 36.8799 1.75 21.5199V11.5699C1.75 11.1599 2 10.7999 2.37 10.6399L14.56 5.63994C14.8 5.53994 15.08 5.53994 15.32 5.63994L27.51 10.6399C27.89 10.7899 28.13 11.1599 28.13 11.5699V16.2099C28.13 16.7599 27.68 17.2099 27.13 17.2099C26.58 17.2099 26.13 16.7599 26.13 16.2099V12.2399L14.94 7.64994L3.75 12.2399V21.5199C3.75 34.3799 13.44 36.9699 14.93 37.2899C15.4 37.1899 16.79 36.8199 18.43 35.9299C18.91 35.6699 19.52 35.8399 19.79 36.3299C20.05 36.8199 19.87 37.4199 19.39 37.6899C17.07 38.9499 15.19 39.2799 15.11 39.2999C15.05 39.2999 15 39.3099 14.94 39.3099V39.2999Z" fill="#323232"/>
<path d="M18.9005 22.13C18.9005 26.9 14.9405 27.59 14.9405 27.59C14.9405 27.59 10.9805 26.91 10.9805 22.13V18.9L14.9405 17.27L18.9005 18.9V22.13Z" fill="#DF0000"/>
<path d="M38.4192 37.6899C37.9292 37.6899 37.4292 37.4799 36.9892 37.0699L36.6792 36.7799C36.0792 36.2399 35.3492 35.5799 35.0192 34.5599C34.9892 34.5799 34.9692 34.5899 34.9392 34.5999C34.8592 34.6399 34.7892 34.6899 34.7092 34.7299C34.3392 34.9199 33.8892 34.8599 33.5792 34.5799L33.1892 34.2199C32.9292 33.9799 32.6692 33.7399 32.3992 33.5099C31.5192 32.7599 30.6392 32.5799 29.6892 32.9799C28.8792 33.3199 28.1192 33.7699 27.2992 34.2399L26.8592 34.4899C26.4592 34.7199 26.0692 34.9599 25.6792 35.2099C25.1592 35.5399 24.6392 35.8599 24.0992 36.1499C23.7192 36.3599 23.3192 36.4499 22.8992 36.5399C22.7192 36.5799 22.5192 36.6199 22.3092 36.6799C21.9492 36.7799 21.5592 36.6699 21.3092 36.3899C21.0592 36.1099 20.9792 35.7099 21.1192 35.3599C21.3092 34.8499 21.1992 34.6399 20.7992 34.0299L20.6192 33.7499C19.3992 31.7999 18.7092 30.1799 18.4092 28.5099C18.0392 26.4899 18.6492 25.4599 20.5892 24.8199L20.6892 24.7899C20.9192 24.7099 21.1492 24.6399 21.3792 24.5999C22.4692 24.3999 23.1792 23.7499 23.8992 22.2899C24.2992 21.4799 24.8092 20.7399 25.2992 20.0199C25.5092 19.7199 25.7192 19.4099 25.9192 19.0999C26.2092 18.6599 26.7892 18.5099 27.2492 18.7799L27.7292 19.0599C27.9592 19.1899 28.1492 19.3099 28.3392 19.4099L28.3792 19.3299C28.4592 19.1799 28.5392 18.9999 28.5592 18.9099C28.6692 18.2199 29.1092 17.0699 30.8492 17.1199C31.4292 17.1399 31.9992 17.1299 32.6192 17.1199H33.4992C33.8392 17.1199 34.1492 17.2899 34.3392 17.5699C34.5192 17.8499 34.5492 18.2099 34.4092 18.5199L34.2192 18.9499C34.0892 19.2399 33.9792 19.4899 33.8592 19.7499C33.7892 19.8899 33.7792 19.9699 33.7792 19.9899C33.7792 19.9899 33.8192 20.0299 33.8992 20.0799C34.7292 20.6499 35.7092 20.9199 36.9392 20.8999C36.9392 20.8999 36.9792 20.8199 37.0192 20.6699C37.1792 20.0499 37.2892 19.4199 37.4092 18.7499L37.5492 18.0099C37.6192 17.6299 37.6992 17.1999 38.0092 16.7199C38.2092 16.3999 38.5692 16.2299 38.9592 16.2699C39.3392 16.3099 39.6592 16.5599 39.7892 16.9099C39.8692 17.1099 39.9592 17.3099 40.0392 17.5099C40.2592 18.0099 40.5092 18.5699 40.6092 19.1899C40.9292 21.2399 41.7792 22.7099 43.2892 23.8199C43.7892 24.1899 44.1692 24.6699 44.4992 25.0899C44.6292 25.2499 44.7492 25.4099 44.8892 25.5699C46.2292 27.0999 46.5992 28.9499 45.9392 30.8999C45.6692 31.6899 45.3192 32.4399 44.9792 33.1699C44.8292 33.4799 44.6892 33.7899 44.5492 34.0999L43.4092 36.6599C43.2792 36.9399 43.0292 37.1499 42.7292 37.2199L42.5192 37.2699C42.2392 37.3399 41.8892 37.4399 41.5292 37.4899C41.3392 37.5199 40.6692 37.5799 40.1492 37.1799C39.9592 37.0399 39.9192 37.0399 39.7392 37.1899C39.3192 37.5299 38.8692 37.6999 38.4292 37.6999L38.4192 37.6899ZM35.2592 32.4599C35.5792 32.4599 35.8692 32.5399 36.1292 32.6899C36.5092 32.9199 36.7792 33.2899 36.8692 33.7499C36.9892 34.3399 37.3792 34.7199 38.0192 35.2999L38.3592 35.6199C38.3592 35.6199 38.3992 35.6599 38.4192 35.6699C38.4292 35.6699 38.4492 35.6499 38.4592 35.6399C39.3292 34.9299 40.3292 34.8799 41.2292 35.4999C41.4192 35.4699 41.5992 35.4299 41.7592 35.3899L42.6992 33.2799C42.8392 32.9599 42.9992 32.6299 43.1492 32.3099C43.4792 31.6099 43.7992 30.9399 44.0292 30.2599C44.4592 28.9899 44.2492 27.8799 43.3692 26.8899C43.2092 26.7099 43.0692 26.5299 42.9192 26.3399C42.6392 25.9899 42.3792 25.6499 42.0892 25.4399C40.5592 24.3199 39.5292 22.8799 38.9692 21.0599L38.9392 21.1699C38.6692 22.2299 37.9092 22.8999 36.9492 22.9099C35.3192 22.9099 33.9092 22.5399 32.7392 21.7399C31.8292 21.1099 31.5392 20.1699 31.9392 19.1399C31.5492 19.1399 31.1592 19.1399 30.7792 19.1299C30.6492 19.1299 30.5792 19.1299 30.5392 19.1399C30.5392 19.1599 30.5392 19.1899 30.5192 19.2399C30.4592 19.6299 30.2892 19.9599 30.1592 20.2299L30.0992 20.3499C29.7792 21.0099 29.3192 21.2799 28.9992 21.3999C28.6692 21.5099 28.1392 21.5699 27.4892 21.2399C27.3492 21.1699 27.2092 21.0899 27.0592 20.9999C27.0192 21.0599 26.9792 21.1199 26.9392 21.1799C26.4692 21.8599 26.0192 22.5099 25.6892 23.1899C25.0192 24.5599 23.9692 26.1699 21.7392 26.5899C21.5892 26.6199 21.4492 26.6699 21.3092 26.7099L21.1992 26.7499C20.2192 27.0699 20.1792 27.1499 20.3692 28.1799C20.6292 29.5899 21.2292 30.9899 22.3092 32.7199L22.4692 32.9599C22.7092 33.3299 23.0292 33.7999 23.1492 34.4199C23.6492 34.1499 24.1392 33.8399 24.6192 33.5399C25.0292 33.2799 25.4392 33.0299 25.8592 32.7799L26.2892 32.5299C27.1192 32.0499 27.9792 31.5499 28.8992 31.1599C30.5392 30.4599 32.2392 30.7699 33.6892 32.0099C33.9292 32.2199 34.1592 32.4299 34.3992 32.6399C34.4492 32.6199 34.4992 32.5999 34.5492 32.5899C34.7892 32.5099 35.0292 32.4699 35.2492 32.4699L35.2592 32.4599Z" fill="#323232"/>
<path d="M40.6298 42.4398C38.2998 42.4398 38.2298 40.3198 38.1998 39.4098V39.1198C38.1798 38.8498 38.2798 38.5798 38.4598 38.3798C38.6498 38.1798 38.9098 38.0698 39.1798 38.0698H41.7998C42.2998 38.0698 42.7198 38.4398 42.7898 38.9298C42.8898 39.6198 42.9398 40.8998 42.2098 41.7398C41.8098 42.1998 41.2598 42.4398 40.6198 42.4398H40.6298ZM40.2498 40.0698C40.2698 40.2198 40.2998 40.3498 40.3498 40.3898C40.3598 40.3998 40.4498 40.4298 40.6298 40.4298C40.7098 40.3898 40.7798 40.2598 40.8198 40.0598H40.2498V40.0698Z" fill="#323232"/>
</svg>
