<svg width="24" height="24" viewBox="0 0 24 24" fill="none" xmlns="http://www.w3.org/2000/svg">
<path fill-rule="evenodd" clip-rule="evenodd" d="M14.7005 4.66688C14.7005 6.13776 13.5058 7.33153 12.0343 7.33331C10.56 7.33153 9.36583 6.13776 9.36717 4.66688C9.36583 3.19111 10.56 1.99689 12.0343 2.00001C13.5065 1.99689 14.7005 3.19111 14.7005 4.66688ZM9.14495 11.3886V13.7777H14.9227V11.3773L17.3425 13.7279C18.2844 14.7268 19.7211 13.3915 18.7376 12.4122L14.9151 8.57841C14.6011 8.27108 14.2425 8.08353 13.7127 8.07886H10.3214C9.78539 8.08353 9.44961 8.27686 9.14117 8.57841L5.36452 12.3671C4.32831 13.4039 5.72608 14.7268 6.75985 13.6942L9.14495 11.3886ZM14.9831 14.6697L12.7374 16.9153L14.3934 18.5595L12.7036 20.2499C11.7036 21.2452 13.0783 22.6706 14.1091 21.6454L16.7747 18.8664C17.3522 18.2786 17.5105 17.1986 16.9007 16.5868C16.894 16.5824 14.9831 14.6697 14.9831 14.6697ZM11.2854 16.9153L9.03961 14.6697C9.03961 14.6697 7.13385 16.5824 7.13385 16.5866C6.51763 17.1984 6.67563 18.2784 7.2474 18.8661L9.92405 21.6454C10.9498 22.6706 12.3243 21.2452 11.3309 20.2499L9.64116 18.5595L11.2854 16.9153Z" fill="#323232"/>
</svg>
