<svg width="24" height="24" viewBox="0 0 24 24" fill="none" xmlns="http://www.w3.org/2000/svg">
<g clip-path="url(#clip0_15605_5477)">
<path d="M18.3333 13.1667C19.6167 13.1667 20.6667 12.1167 20.6667 10.8333C20.6667 9.55 19.6167 8.5 18.3333 8.5C17.05 8.5 16 9.55 16 10.8333C16 12.1167 17.05 13.1667 18.3333 13.1667ZM23 17.1683C23 16.2233 22.44 15.3833 21.5767 15.01C20.585 14.5783 19.4883 14.3333 18.3333 14.3333C17.8783 14.3333 17.4467 14.38 17.015 14.45C17.4817 15.2433 17.75 16.1533 17.75 17.1217V19H23V17.1683ZM13.9467 13.925C12.5817 13.3183 10.9017 12.875 9 12.875C7.09833 12.875 5.41833 13.33 4.05333 13.925C2.79333 14.485 2 15.745 2 17.1217V19H16V17.1217C16 15.745 15.2067 14.485 13.9467 13.925ZM9 5C7.06333 5 5.5 6.56333 5.5 8.5C5.5 10.4367 7.06333 12 9 12C10.9367 12 12.5 10.4367 12.5 8.5C12.5 6.56333 10.9367 5 9 5Z" fill="#323232"/>
</g>
<defs>
<clipPath id="clip0_15605_5477">
<rect width="24" height="24" fill="white"/>
</clipPath>
</defs>
</svg>
