<svg width="24" height="24" viewBox="0 0 24 24" fill="none" xmlns="http://www.w3.org/2000/svg">
<g clip-path="url(#clip0_16335_5118)">
<path d="M20.4851 20.4853C25.1714 15.799 25.1714 8.20101 20.4851 3.51472C15.7988 -1.17157 8.20081 -1.17157 3.51452 3.51472C-1.17177 8.20101 -1.17177 15.799 3.51452 20.4853C8.20081 25.1716 15.7988 25.1716 20.4851 20.4853Z" fill="white"/>
<mask id="mask0_16335_5118" style="mask-type:luminance" maskUnits="userSpaceOnUse" x="-1" y="0" width="25" height="24">
<path d="M20.4851 20.4853C25.1714 15.799 25.1714 8.20101 20.4851 3.51472C15.7988 -1.17157 8.20081 -1.17157 3.51452 3.51472C-1.17177 8.20101 -1.17177 15.799 3.51452 20.4853C8.20081 25.1716 15.7988 25.1716 20.4851 20.4853Z" fill="white"/>
</mask>
<g mask="url(#mask0_16335_5118)">
<path d="M32.9019 0H-3.09814V24H32.9019V0Z" fill="white"/>
<path d="M5.75198 15.1458H-3.09814V24.0015H5.75198V15.1458Z" fill="#FF0000"/>
<path d="M32.9018 15.1458H12V24.0015H32.9018V15.1458Z" fill="#FF0000"/>
<path d="M32.9018 0H12V8.89764H32.9018V0Z" fill="#FF0000"/>
<path d="M5.75198 0H-3.09814V8.89764H5.75198V0Z" fill="#FF0000"/>
<path fill-rule="evenodd" clip-rule="evenodd" d="M32.9019 13.5833H10.4377V24H7.31434V13.5833H-3.09814V10.46H7.31434V0H10.4377V10.46H32.9019V13.5833Z" fill="#003399"/>
</g>
</g>
<rect x="0.25" y="0.25" width="23.5" height="23.5" rx="11.75" stroke="#E5E3E1" stroke-width="0.5"/>
<defs>
<clipPath id="clip0_16335_5118">
<rect width="24" height="24" rx="12" fill="white"/>
</clipPath>
</defs>
</svg>
