<svg width="48" height="48" viewBox="0 0 48 48" fill="none" xmlns="http://www.w3.org/2000/svg">
<path d="M4.69945 42.91L4.68945 21.25H13.7495V42.91H4.69945Z" fill="#8DE2E0"/>
<path d="M44.3095 23.3802C44.3095 21.2002 42.5395 19.4302 40.3595 19.4302H28.9495C28.8395 19.4302 28.7895 19.3502 28.7695 19.3202C28.7395 19.2602 28.7495 19.2302 28.7695 19.2102C31.7095 14.6302 31.8595 9.07023 31.6695 7.31023C31.3695 4.56023 29.9395 2.99023 27.7595 2.99023C25.4395 2.99023 23.8195 4.58023 23.5095 7.13023C23.1395 10.2002 22.4895 11.6702 20.1995 14.6402C19.3795 15.7002 18.3095 16.8302 17.2695 17.9202C16.3295 18.9102 15.4195 19.8802 14.6495 20.8202C14.4895 20.4902 14.1495 20.2502 13.7595 20.2502H4.68945C4.13945 20.2502 3.68945 20.7002 3.68945 21.2502V42.9002C3.68945 43.1702 3.79945 43.4202 3.98945 43.6102C4.17945 43.8002 4.42945 43.9002 4.69945 43.9002H13.7495C14.0195 43.9002 14.2695 43.7902 14.4595 43.6102C14.6195 43.4502 14.6995 43.2402 14.7295 43.0202C16.0195 44.0102 18.0595 44.9902 21.0795 44.9902H35.5295C37.7094 44.9902 39.4795 43.2202 39.4795 41.0402C39.4795 40.1902 39.2095 39.4002 38.7495 38.7502C40.1295 38.1302 41.0895 36.7502 41.0895 35.1402C41.0895 34.2902 40.8195 33.5002 40.3595 32.8502C41.7395 32.2302 42.6995 30.8502 42.6995 29.2502C42.6995 28.4002 42.4295 27.6102 41.9695 26.9602C43.3495 26.3402 44.3095 24.9602 44.3095 23.3602V23.3802ZM5.69945 41.9102V22.2602H12.7495V41.9102H5.69945ZM40.3595 25.3302H38.7495C38.1995 25.3302 37.7495 25.7802 37.7495 26.3302C37.7495 26.8802 38.1995 27.3302 38.7495 27.3302C39.8195 27.3302 40.6995 28.2002 40.6995 29.2802C40.6995 30.3602 39.8295 31.2302 38.7495 31.2302H37.1395C36.5895 31.2302 36.1395 31.6802 36.1395 32.2302C36.1395 32.7802 36.5895 33.2302 37.1395 33.2302C38.2095 33.2302 39.0895 34.1002 39.0895 35.1802C39.0895 36.2602 38.2195 37.1302 37.1395 37.1302H35.5295C34.9795 37.1302 34.5295 37.5802 34.5295 38.1302C34.5295 38.6802 34.9795 39.1302 35.5295 39.1302C36.5995 39.1302 37.4795 40.0002 37.4795 41.0802C37.4795 42.1602 36.6095 43.0302 35.5295 43.0302H21.0795C16.9795 43.0302 15.1995 40.9102 14.7495 40.2502V24.4202C15.2295 23.0202 16.9895 21.1502 18.7095 19.3402C19.7795 18.2102 20.8895 17.0402 21.7695 15.9102C24.1195 12.8702 25.0395 11.1302 25.4895 7.42023C25.5995 6.53023 26.0295 5.04023 27.7495 5.04023C28.1595 5.04023 29.3895 5.04023 29.6695 7.58023C29.8295 9.04023 29.6895 14.1102 27.0795 18.1802C26.6595 18.8302 26.6395 19.6402 27.0095 20.3302C27.3995 21.0402 28.1395 21.4802 28.9395 21.4802H40.3495C41.4195 21.4802 42.2995 22.3502 42.2995 23.4302C42.2995 24.5102 41.4295 25.3802 40.3495 25.3802L40.3595 25.3302Z" fill="#323232"/>
</svg>
