<svg width="24" height="24" viewBox="0 0 24 24" fill="none" xmlns="http://www.w3.org/2000/svg">
<g clip-path="url(#clip0_10496_8624)">
<path fill-rule="evenodd" clip-rule="evenodd" d="M10.55 19.7004L12 21.0004L13.45 19.7004C15.0783 18.2333 16.4336 16.9612 17.5161 15.884C15.5172 14.3055 13.2216 13.3433 10.8687 12.9747C10.6933 12.9515 10.5647 12.8121 10.5413 12.6378C10.2782 10.1936 8.98089 9.31798 7.50388 8.32103C6.17449 7.4237 4.69951 6.42811 3.70197 4.10217C3.65923 4.1424 3.61691 4.18348 3.575 4.22539C2.525 5.27539 2 6.58372 2 8.15039C2 8.91706 2.12933 9.66706 2.388 10.4004C2.646 11.1337 3.1 11.9377 3.75 12.8124C4.4 13.6877 5.275 14.6754 6.375 15.7754C7.475 16.8754 8.86667 18.1837 10.55 19.7004ZM3.82304 3.99139C4.82874 3.09739 6.05439 2.65039 7.5 2.65039C8.36667 2.65039 9.19167 2.83372 9.975 3.20039C10.7583 3.56706 11.4333 4.08372 12 4.75039C12.5667 4.08372 13.2417 3.56706 14.025 3.20039C14.8083 2.83372 15.6333 2.65039 16.5 2.65039C18.0667 2.65039 19.375 3.17539 20.425 4.22539C21.475 5.27539 22 6.58372 22 8.15039C22 8.91706 21.871 9.66706 21.613 10.4004C21.3543 11.1337 20.9 11.9377 20.25 12.8124C19.6005 13.6871 18.7263 14.6739 17.6275 15.7729C16.2445 14.3428 14.5542 13.187 12.6694 12.4403L12.0848 12.2079C11.7807 12.0799 11.582 11.7896 11.582 11.4526C11.6031 10.7027 12.6837 10.4982 13.6046 10.3239C14.2104 10.2092 14.7471 10.1076 14.8678 9.87244L14.9146 9.76786C14.3065 9.24499 13.5931 8.86164 12.7981 8.64093C12.7864 8.67574 12.7629 8.81513 12.9266 9.08235C13.1022 9.36126 12.7395 9.81437 12.2016 9.32644L12.1548 9.2915C10.3613 7.65873 9.01167 7.27076 7.8194 6.92803C6.42483 6.52715 5.24556 6.18816 3.82304 3.99139Z" fill="#323232"/>
</g>
<defs>
<clipPath id="clip0_10496_8624">
<rect width="24" height="24" fill="white"/>
</clipPath>
</defs>
</svg>
