<svg width="24" height="24" viewBox="0 0 24 24" fill="none" xmlns="http://www.w3.org/2000/svg">
<g clip-path="url(#clip0_16335_3793)">
<path d="M20.4851 20.4853C25.1714 15.799 25.1714 8.20101 20.4851 3.51472C15.7988 -1.17157 8.20081 -1.17157 3.51452 3.51472C-1.17177 8.20101 -1.17177 15.799 3.51452 20.4853C8.20081 25.1716 15.7988 25.1716 20.4851 20.4853Z" fill="white"/>
<mask id="mask0_16335_3793" style="mask-type:luminance" maskUnits="userSpaceOnUse" x="-1" y="0" width="25" height="24">
<path d="M20.4851 20.4853C25.1714 15.799 25.1714 8.20101 20.4851 3.51472C15.7988 -1.17157 8.20081 -1.17157 3.51452 3.51472C-1.17177 8.20101 -1.17177 15.799 3.51452 20.4853C8.20081 25.1716 15.7988 25.1716 20.4851 20.4853Z" fill="white"/>
</mask>
<g mask="url(#mask0_16335_3793)">
<path d="M29.9644 0H-5.96436V24H29.9644V0Z" fill="white"/>
<path fill-rule="evenodd" clip-rule="evenodd" d="M-4.35169 0H28.3503L11.9986 9.43985L-4.35169 0ZM29.9644 4.18819L16.4342 12L29.9644 19.8118V4.18819ZM28.3517 24H-4.35169L12 14.5601L28.3517 24ZM-5.96436 19.8118L7.56586 12L-5.96436 4.18819V19.8118Z" fill="#0072FE"/>
</g>
</g>
<rect x="0.25" y="0.25" width="23.5" height="23.5" rx="11.75" stroke="#E5E3E1" stroke-width="0.5"/>
<defs>
<clipPath id="clip0_16335_3793">
<rect width="24" height="24" rx="12" fill="white"/>
</clipPath>
</defs>
</svg>
