<svg width="48" height="48" viewBox="0 0 48 48" fill="none" xmlns="http://www.w3.org/2000/svg">
<path d="M44.4403 24.3299L36.3904 21.6499C35.8604 21.4699 35.3004 21.7599 35.1203 22.2799C34.9504 22.7999 35.2304 23.3699 35.7504 23.5499L43.1203 26.0099V42.0899L33.0404 39.2899V28.0399C33.0404 27.4899 32.5904 27.0399 32.0404 27.0399C31.4904 27.0399 31.0404 27.4899 31.0404 28.0399V39.2699L16.9404 42.8499V26.0699L18.4304 25.6999C20.7604 28.9899 23.1003 31.2599 23.3004 31.4499C23.4904 31.6399 23.7404 31.7299 23.9904 31.7299C24.2404 31.7299 24.4904 31.6399 24.6804 31.4499C25.0804 31.0699 34.3804 22.0599 34.3804 13.2899C34.3804 7.5599 29.7204 2.8999 23.9904 2.8999C18.2604 2.8999 13.6004 7.5599 13.6004 13.2899C13.6004 17.0299 15.2904 20.7999 17.2604 23.9399L15.9804 24.2599L4.18035 20.3299C3.87035 20.2299 3.54035 20.2799 3.28035 20.4699C3.02035 20.6599 2.86035 20.9599 2.86035 21.2799V40.0599C2.86035 40.4899 3.13035 40.8699 3.54035 41.0099L15.5904 45.0899C15.7004 45.1299 15.8104 45.1499 15.9304 45.1499C16.0204 45.1499 16.1104 45.1399 16.2004 45.1099L32.0204 41.0899L43.8404 44.3699C44.1404 44.4499 44.4604 44.3899 44.7104 44.1999C44.9604 44.0099 45.1104 43.7199 45.1104 43.3999V25.2899C45.1104 24.8599 44.8304 24.4799 44.4304 24.3399L44.4403 24.3299ZM24.0004 4.8799C28.6304 4.8799 32.3904 8.6399 32.3904 13.2699C32.3904 19.8799 26.1203 27.0499 24.0004 29.2799C23.0804 28.3099 21.3804 26.4099 19.7504 24.0399C19.7204 23.9899 19.6904 23.9399 19.6504 23.8899C17.5604 20.8099 15.6104 16.9499 15.6104 13.2699C15.6104 8.6399 19.3703 4.8799 24.0004 4.8799ZM14.9504 42.7299L4.87035 39.3199V22.6399L14.9504 25.9999V42.7399V42.7299Z" fill="#323232"/>
<path d="M23.9996 17.2101C26.1756 17.2101 27.9396 15.4461 27.9396 13.2701C27.9396 11.0941 26.1756 9.33008 23.9996 9.33008C21.8236 9.33008 20.0596 11.0941 20.0596 13.2701C20.0596 15.4461 21.8236 17.2101 23.9996 17.2101Z" fill="#DF0000"/>
</svg>
