<svg width="48" height="48" viewBox="0 0 48 48" fill="none" xmlns="http://www.w3.org/2000/svg">
<path d="M38.6706 10.9502C37.9506 10.9502 37.2806 11.1602 36.7006 11.4902V9.12023C36.7006 6.93023 34.9206 5.15023 32.7306 5.15023C31.9306 5.15023 31.1906 5.39023 30.5706 5.80023C30.0706 4.18023 28.5806 2.99023 26.7906 2.99023C24.6206 2.99023 22.8606 4.74023 22.8306 6.90023C22.2506 6.56023 21.5806 6.35023 20.8506 6.35023C18.6606 6.35023 16.8806 8.13023 16.8806 10.3202V26.3702C16.8806 26.7802 16.8806 27.1702 16.9006 27.5502C16.9106 28.0402 16.9306 28.7002 16.9006 29.1502C16.4106 28.4902 15.7306 27.3602 15.2306 26.5402C14.5806 25.4702 13.9106 24.3602 13.3006 23.5402C11.6806 21.4002 9.85057 21.2202 8.91057 21.3102C7.57057 21.4302 6.34057 22.2402 5.78057 23.3602C4.60057 25.7302 5.95057 28.3802 9.63057 33.7802C13.3006 39.1702 16.1406 41.3102 16.2306 41.3702C19.1006 43.6902 22.8906 44.9702 26.9106 44.9702C37.1306 44.9702 42.6506 37.7302 42.6506 30.9102V14.9202C42.6506 12.7302 40.8706 10.9502 38.6806 10.9502H38.6706ZM40.6306 30.9402C40.6306 36.9302 35.9106 43.0002 26.8906 43.0002C23.3306 43.0002 19.9806 41.8802 17.4406 39.8202C17.4106 39.8002 14.7306 37.7602 11.2706 32.6802C7.82057 27.6102 6.92057 25.5702 7.56057 24.2702C7.77057 23.8502 8.33057 23.3902 9.09057 23.3202C10.0006 23.2402 10.9306 23.7502 11.7006 24.7602C12.2506 25.4902 12.9006 26.5602 13.5206 27.5902C15.2006 30.3602 16.2106 32.0302 17.5506 31.5202C18.9906 30.9602 18.9406 29.2902 18.9006 27.5102C18.9006 27.1502 18.8806 26.7802 18.8806 26.3902V10.3402C18.8806 9.25023 19.7606 8.37023 20.8506 8.37023C21.9406 8.37023 22.8206 9.25023 22.8206 10.3402V22.0002C22.8206 22.5502 23.2706 23.0002 23.8206 23.0002C24.3706 23.0002 24.8206 22.5502 24.8206 22.0002V6.97023C24.8206 5.88023 25.7006 5.00023 26.7906 5.00023C27.8806 5.00023 28.7606 5.88023 28.7606 6.97023V22.2502C28.7606 22.8002 29.2106 23.2502 29.7606 23.2502C30.3106 23.2502 30.7606 22.8002 30.7606 22.2502V9.13023C30.7606 8.04023 31.6406 7.16023 32.7306 7.16023C33.8206 7.16023 34.7006 8.04023 34.7006 9.13023V24.1602C34.7006 24.7102 35.1506 25.1602 35.7006 25.1602C36.2506 25.1602 36.7006 24.7102 36.7006 24.1602V14.9202C36.7006 13.8302 37.5806 12.9502 38.6706 12.9502C39.7606 12.9502 40.6406 13.8302 40.6406 14.9202V30.9402H40.6306Z" fill="#323232"/>
<path fill-rule="evenodd" clip-rule="evenodd" d="M29.3102 40.6301C30.5202 41.0001 32.8502 40.3901 34.9202 38.8101C36.9902 37.2301 38.7702 34.3201 37.7202 33.6001C36.6802 32.8801 35.7102 35.7801 33.6402 37.3601C31.5702 38.9401 28.2602 39.9101 29.3102 40.6301Z" fill="#8DE2E0"/>
</svg>
