<svg width="72" height="72" viewBox="0 0 72 72" fill="none" xmlns="http://www.w3.org/2000/svg">
<g clip-path="url(#clip0_10470_8309)">
<path d="M36 72C55.8823 72 72 55.8823 72 36C72 16.1178 55.8823 0 36 0C16.1178 0 0 16.1178 0 36C0 55.8823 16.1178 72 36 72Z" fill="#303189"/>
<path d="M22.0927 28.3451C22.0927 25.7304 23.5137 23.7788 25.9958 23.7788C26.64 23.7788 27.4169 23.9304 27.9474 24.2525C28.1748 24.4041 28.3074 24.5746 28.3074 24.8209C28.3074 24.9914 28.2695 25.162 28.1748 25.3135C28.0421 25.5788 27.9284 25.6925 27.8148 25.6925C27.739 25.6925 27.6821 25.6356 27.5874 25.5788C27.0758 25.2378 26.5642 25.143 26.0716 25.143C24.6316 25.143 23.8169 26.5262 23.8169 28.3451C23.8169 30.0693 24.4611 31.5283 26.0527 31.5283C26.5453 31.5283 27.1137 31.4335 27.5874 31.1683C27.6821 31.1114 27.7769 31.0546 27.8337 31.0546C27.9284 31.0546 28.0232 31.1304 28.1558 31.3767C28.2127 31.5093 28.2695 31.6799 28.2695 31.8125C28.2695 32.0778 28.1748 32.3999 27.72 32.5704C27.2084 32.7978 26.5453 32.9304 25.9769 32.9304C23.1158 32.9304 22.0927 30.8272 22.0927 28.3641" fill="white"/>
<path d="M29.0653 31.6798V23.7598C29.0653 23.4945 29.2169 23.3809 29.88 23.3809C30.5432 23.3809 30.6948 23.4945 30.6948 23.7598V31.263C30.6948 31.4714 30.8085 31.5851 30.96 31.5851H31.1874C31.3769 31.5851 31.4337 31.5851 31.4337 31.8124C31.4337 32.4945 30.979 32.8735 30.2211 32.8735C29.52 32.8735 29.0653 32.4377 29.0653 31.6609" fill="white"/>
<path d="M37.7811 32.4757C37.819 32.7788 37.6106 32.8925 37.0421 32.8925C36.6442 32.8925 36.3221 32.6652 36.1895 32.0967C35.7916 32.5894 35.1664 32.8925 34.4464 32.8925C32.6843 32.8925 32.04 31.7746 32.04 30.3346V26.602C32.04 26.3367 32.1916 26.223 32.8358 26.223C33.48 26.223 33.6506 26.3367 33.6506 26.602V30.183C33.6506 30.7325 33.7453 31.0357 33.9916 31.263C34.2 31.4525 34.4842 31.5473 34.8253 31.5473C35.1474 31.5473 35.6021 31.3957 35.8674 30.922C35.9811 30.7325 36.0569 30.4862 36.0569 30.202V26.583C36.0569 26.3178 36.2085 26.2041 36.8716 26.2041C37.5348 26.2041 37.6864 26.3178 37.6864 26.583V31.1304L37.7811 32.4378V32.4757Z" fill="white"/>
<path d="M41.0969 31.6041C42.1958 31.6041 42.9537 31.0546 42.9537 29.482C42.9537 28.3073 42.5558 27.4925 41.6085 27.4925C41.2106 27.4925 40.5285 27.682 40.3769 28.5346V31.5283C40.6043 31.5852 40.8506 31.6231 41.0969 31.6231M39.1453 32.5515C38.88 32.4567 38.7664 32.3431 38.7664 32.0967V23.7788C38.7664 23.5136 38.9179 23.3999 39.5811 23.3999C40.2443 23.3999 40.3958 23.5136 40.3958 23.7788V26.7915C40.8127 26.4125 41.4 26.1852 42.0253 26.1852C43.579 26.1852 44.6021 27.3978 44.6021 29.501C44.6021 30.922 44.0148 31.9262 43.0864 32.4567C42.5558 32.7599 41.9116 32.9115 41.1537 32.9115C40.5095 32.9115 39.8085 32.7978 39.1643 32.5704" fill="white"/>
<path d="M9.90949 43.0674C9.4737 43.0674 8.96212 42.9916 8.56423 42.8211C8.28002 42.7074 7.93896 42.5369 7.93896 42.1579C7.93896 42.0443 7.95791 41.8358 8.0716 41.6274C8.18528 41.4379 8.26107 41.3243 8.37475 41.3243C8.46949 41.3243 8.58318 41.3811 8.69686 41.419C9.07581 41.5895 9.4737 41.6653 9.77686 41.6653C10.5158 41.6653 10.8379 41.1158 10.8379 40.3769V34.1811C10.8379 33.8969 11.0084 33.7832 11.6905 33.7832C12.3726 33.7832 12.5432 33.8969 12.5432 34.1811V40.32C12.5432 42.4232 11.3684 43.0864 9.89054 43.0864" fill="white"/>
<path d="M16.3327 37.4586C15.4611 37.4586 15.0442 38.1976 14.9684 39.0313H17.6211C17.6021 38.1786 17.2232 37.4586 16.3327 37.4586ZM16.7116 41.6839C17.3558 41.6839 17.9621 41.4944 18.4737 41.1723C18.5684 41.1155 18.6442 41.0776 18.7011 41.0776C18.8337 41.0776 18.8716 41.2481 18.8716 41.3807C18.8716 42.4039 17.7727 43.0102 16.5221 43.0102C14.7411 43.0102 13.2632 41.9871 13.2632 39.5618C13.2632 37.7807 14.2295 36.1323 16.2948 36.1323C18.36 36.1323 19.2695 37.4965 19.2695 39.5997C19.2695 39.9597 19.2316 40.1113 18.8716 40.1113H14.9684C15.0253 41.2102 15.8211 41.665 16.7116 41.665" fill="white"/>
<path d="M22.0358 40.4715C22.0358 40.9831 22.0358 41.2294 22.1684 41.4378C22.2442 41.6083 22.4527 41.722 22.7748 41.722C23.1537 41.722 23.4379 41.5136 23.5516 41.5136C23.6653 41.5136 23.7221 41.5894 23.7221 41.722C23.7221 42.5367 23.0211 43.0483 22.2442 43.0483C21.5242 43.0483 21.0127 42.8399 20.7095 42.3852C20.4442 41.9683 20.4063 41.4567 20.4063 40.7178V37.4778H19.7432C19.4969 37.4778 19.3832 37.421 19.3832 36.8715C19.3832 36.322 19.4779 36.2273 19.7432 36.2273H20.4063V34.6357C20.4063 34.3515 20.5769 34.2378 21.24 34.2378C21.9032 34.2378 22.0737 34.3515 22.0737 34.6357V36.2273H23.3053C23.5516 36.2273 23.6653 36.2273 23.6653 36.5873C23.6653 37.2504 23.419 37.4778 22.8316 37.4778H22.0548V40.4336L22.0358 40.4715Z" fill="white"/>
<path d="M26.2611 43.0293C25.5979 43.0293 24.8969 42.8208 24.3853 42.5935C24.139 42.4798 24.0443 42.3093 24.0443 42.0819C24.0443 41.9303 24.1011 41.7408 24.1769 41.5703C24.3095 41.324 24.4043 41.2103 24.5179 41.2103C24.5937 41.2103 24.6506 41.2482 24.7643 41.3051C25.3327 41.6082 25.8632 41.7408 26.2611 41.7408C26.8106 41.7408 27.36 41.5703 27.36 41.0208C27.36 40.5661 26.8106 40.3956 26.2232 40.244C25.2 39.9787 24.0443 39.6377 24.0443 38.1977C24.0443 37.2124 24.8779 36.1514 26.5074 36.1514C27.2464 36.1514 27.7579 36.3029 28.2885 36.6251C28.4779 36.7387 28.6106 36.9093 28.6106 37.1556C28.6106 37.2882 28.5727 37.4777 28.459 37.6482C28.3453 37.8566 28.2506 37.9703 28.1179 37.9703C28.0421 37.9703 27.9664 37.9135 27.8716 37.8566C27.36 37.5535 26.8864 37.4398 26.5453 37.4398C25.8443 37.4398 25.579 37.7619 25.579 38.084C25.579 38.5577 26.0527 38.7472 26.6779 38.8987C27.72 39.1451 28.9137 39.524 28.9137 40.8693C28.9137 42.3282 27.8337 43.0293 26.2421 43.0293" fill="white"/>
<path d="M31.699 40.4715C31.699 40.9831 31.699 41.2294 31.8316 41.4378C31.9074 41.6083 32.1158 41.722 32.4379 41.722C32.8169 41.722 33.1011 41.5136 33.2148 41.5136C33.3284 41.5136 33.3853 41.5894 33.3853 41.722C33.3853 42.5367 32.6842 43.0483 31.9074 43.0483C31.1874 43.0483 30.6758 42.8399 30.3726 42.3852C30.1074 41.9683 30.0695 41.4567 30.0695 40.7178V37.4778H29.4063C29.16 37.4778 29.0463 37.421 29.0463 36.8715C29.0463 36.322 29.1411 36.2273 29.4063 36.2273H30.0695V34.6357C30.0695 34.3515 30.24 34.2378 30.9032 34.2378C31.5663 34.2378 31.7369 34.3515 31.7369 34.6357V36.2273H32.9684C33.2147 36.2273 33.3284 36.2273 33.3284 36.5873C33.3284 37.2504 33.0821 37.4778 32.4947 37.4778H31.7179V40.4336L31.699 40.4715Z" fill="white"/>
<path d="M37.6674 41.1536C37.8379 40.8883 37.9137 40.5094 37.9137 40.0546V38.9746C37.9137 38.0273 37.4021 37.5346 36.5874 37.5157C35.5642 37.5157 35.1663 38.5578 35.1663 39.6757C35.1663 40.9262 35.64 41.722 36.5874 41.722C36.9095 41.722 37.4021 41.6083 37.6484 41.1536M39.6 42.5936C39.6379 42.8967 39.5242 43.0294 38.88 43.0294C38.4632 43.0294 38.179 42.8209 38.0653 42.3094C37.6295 42.8588 36.8526 43.0294 36.3979 43.0294C34.2947 43.0294 33.499 41.5136 33.499 39.6757C33.499 37.8378 34.3516 36.1704 36.36 36.1704C36.7579 36.1704 37.44 36.322 37.8948 36.8336V36.5494C37.9137 36.303 38.1032 36.2273 38.7095 36.2273C39.3726 36.2273 39.5053 36.3409 39.5053 36.6251V41.4567L39.619 42.6315L39.6 42.5936Z" fill="white"/>
<path d="M42.2905 41.3427V40.0922C42.2905 39.467 42.4232 38.6712 42.9158 38.1406C43.1242 37.9133 43.3895 37.7806 43.7495 37.7427C43.8821 37.7427 44.0147 37.7238 44.2232 37.7427C44.4695 37.7427 44.5832 37.7427 44.5832 37.4396C44.5832 36.5112 44.0337 36.208 43.5032 36.208C42.9726 36.208 42.4421 36.6817 42.2147 37.4964L42.1769 36.6059C42.1769 36.3217 41.9305 36.2459 41.4 36.2459C40.7369 36.2459 40.6232 36.3785 40.6232 36.6817V42.4038L42.2905 41.3806V41.3427Z" fill="white"/>
<path d="M24.2148 46.3452C25.2758 46.7999 26.3748 47.141 27.4927 47.3683C28.6106 47.5767 29.7474 47.6525 30.8842 47.5767C33.1579 47.4441 35.3748 46.6673 37.3642 45.6062L37.5537 45.5115L37.7432 45.3978L38.1221 45.1704L38.88 44.6967L40.3769 43.7494L43.3706 41.8736L49.3579 38.1031C49.699 37.8946 50.1348 37.9894 50.3432 38.3304C50.5516 38.6715 50.4569 39.1073 50.1158 39.3157L44.0337 42.9725L41.0021 44.8104L39.4863 45.7199L38.7285 46.1746L38.3495 46.402L38.16 46.5157L37.9516 46.6294L37.5348 46.8378L37.1179 47.0273C36.9853 47.1031 36.8337 47.1599 36.7011 47.2167C36.5685 47.2736 36.4169 47.3304 36.2842 47.3873C35.7158 47.6146 35.1474 47.8231 34.56 47.9936C33.3853 48.3346 32.1727 48.562 30.96 48.6188C29.7285 48.6757 28.4969 48.581 27.3221 48.3157C26.1285 48.0694 24.9727 47.6715 23.8737 47.1788C23.6463 47.0841 23.5327 46.8188 23.6463 46.5915C23.7411 46.3641 24.0063 46.2694 24.2337 46.3641" fill="white"/>
<path d="M59.059 40.0924L53.9242 36.7766L62.2611 31.6798L59.0779 40.1113L59.059 40.0924ZM53.2611 39.8271V37.7808L54.7579 38.7471L53.2611 39.8461V39.8271ZM60.0821 31.604L52.8064 36.0566L50.059 34.2755L60.0821 31.585V31.604ZM63.9285 29.6713C63.7769 29.5008 63.5495 29.444 63.3411 29.5008L48.4674 33.4798C48.24 33.5366 48.0695 33.7261 48.0316 33.9534C47.9937 34.1808 48.1074 34.4082 48.2969 34.5408L52.0864 36.985V40.9829C52.0864 41.2103 52.219 41.4187 52.4085 41.5134C52.4842 41.5513 52.579 41.5703 52.6737 41.5703C52.8063 41.5703 52.92 41.5324 53.0337 41.4566L55.8379 39.4103L59.04 41.4755C59.1348 41.5324 59.2485 41.5703 59.3621 41.5703C59.419 41.5703 59.4948 41.5703 59.5516 41.5324C59.7221 41.4755 59.8548 41.3429 59.9306 41.1724L64.0611 30.2587C64.1369 30.0503 64.099 29.8229 63.9474 29.6524" fill="white"/>
</g>
<defs>
<clipPath id="clip0_10470_8309">
<rect width="72" height="72" fill="white"/>
</clipPath>
</defs>
</svg>
