<svg width="48" height="48" viewBox="0 0 48 48" fill="none" xmlns="http://www.w3.org/2000/svg">
<path d="M29.1203 15.0499C28.8203 15.0499 28.5203 14.9099 28.3203 14.6499L27.1403 13.0799C26.8103 12.6399 26.9003 12.0099 27.3403 11.6799C27.7803 11.3499 28.4103 11.4399 28.7403 11.8799L29.9203 13.4499C30.2503 13.8899 30.1603 14.5199 29.7203 14.8499C29.5403 14.9899 29.3303 15.0499 29.1203 15.0499Z" fill="#323232"/>
<path d="M32.6496 19.7198C32.3496 19.7198 32.0496 19.5798 31.8496 19.3198L30.6696 17.7498C30.3396 17.3098 30.4296 16.6798 30.8696 16.3498C31.3096 16.0198 31.9396 16.0998 32.2696 16.5498L33.4496 18.1198C33.7796 18.5598 33.6896 19.1898 33.2496 19.5198C33.0696 19.6598 32.8596 19.7198 32.6496 19.7198Z" fill="#323232"/>
<path d="M36.1711 24.3898C35.8711 24.3898 35.5711 24.2498 35.3711 23.9898L34.1911 22.4198C33.8611 21.9798 33.9511 21.3498 34.3911 21.0198C34.8311 20.6898 35.4611 20.7698 35.7911 21.2198L36.9711 22.7898C37.3011 23.2298 37.2111 23.8598 36.7711 24.1898C36.5911 24.3298 36.3811 24.3898 36.1711 24.3898Z" fill="#323232"/>
<path d="M15.8308 44.8999C15.2108 44.8999 14.6008 44.6199 14.2008 44.0999L10.8908 39.7099C10.7308 39.4999 10.6608 39.2299 10.7008 38.9699C10.7408 38.7099 10.8808 38.4699 11.0908 38.3099C12.0608 37.5799 12.6108 36.4599 12.6208 35.2299C12.6208 33.0999 10.8908 31.3599 8.76081 31.3599C7.92081 31.3599 7.12081 31.6299 6.44081 32.1399C6.00081 32.4699 5.38081 32.3799 5.04081 31.9399L2.00081 27.9099C1.33081 27.0099 1.51081 25.7299 2.40081 25.0599L30.9608 3.49987C31.8408 2.82987 33.1208 2.99987 33.8008 3.89987L37.1208 8.31987C37.2808 8.52987 37.3508 8.79987 37.3108 9.05987C37.2708 9.31987 37.1308 9.55987 36.9208 9.71987C35.9508 10.4499 35.3908 11.5699 35.3908 12.7899C35.3908 14.9199 37.1208 16.6599 39.2508 16.6599C40.1108 16.6599 40.9208 16.3899 41.5808 15.8799C41.7908 15.7199 42.0608 15.6499 42.3208 15.6799C42.5808 15.7199 42.8208 15.8599 42.9808 16.0699L46.0008 20.0899C46.6708 20.9899 46.4908 22.2699 45.6008 22.9399L17.0308 44.4999C16.6608 44.7699 16.2308 44.8999 15.8108 44.8999H15.8308ZM13.0408 39.2399L15.8008 42.8999L44.4208 21.3499C44.4208 21.3499 44.4508 21.3099 44.4208 21.2899L41.9608 18.0099C41.1408 18.4399 40.2208 18.6599 39.2608 18.6599C36.0308 18.6599 33.4008 16.0199 33.4008 12.7899C33.4008 11.2699 33.9708 9.84987 34.9808 8.77987L32.2108 5.09987L3.59081 26.6499L6.08081 29.9999C6.90081 29.5799 7.81081 29.3599 8.74081 29.3599C11.9708 29.3599 14.6008 31.9999 14.6008 35.2299C14.6008 36.7499 14.0308 38.1599 13.0308 39.2299L13.0408 39.2399Z" fill="#323232"/>
<path d="M23.6509 21.3998L22.3109 22.4098L22.1409 22.1798C21.5709 21.4198 20.6609 21.2498 19.8409 21.8698C19.0209 22.4898 18.9009 23.3298 19.3909 23.9798C19.7209 24.4198 20.3009 24.6698 21.0009 24.4798L22.6609 24.0498C23.9509 23.7098 25.4709 23.4298 26.6409 24.9898C27.7109 26.4098 27.5409 28.0898 26.2609 29.3298L27.2609 30.6598L26.2209 31.4398L25.2009 30.0798C23.6909 30.9298 22.1209 30.6898 21.0909 29.3398L20.9009 29.0898L22.2409 28.0798L22.4709 28.3898C23.0609 29.1798 24.0009 29.2798 24.9209 28.5898C25.8409 27.8998 25.9809 26.9198 25.4009 26.1598C24.8609 25.4398 24.1509 25.4098 23.3209 25.6198L21.7009 26.0498C20.3309 26.4198 19.0309 26.3098 18.1209 25.0998C17.2109 23.8898 17.3409 22.3698 18.4709 21.1898L17.4609 19.8498L18.5009 19.0698L19.5109 20.4098C20.9409 19.6198 22.5009 19.8898 23.5209 21.2498L23.6509 21.4198V21.3998Z" fill="#DF0000"/>
</svg>
