<svg width="48" height="48" viewBox="0 0 48 48" fill="none" xmlns="http://www.w3.org/2000/svg">
<path d="M41.3391 34.69C40.9491 34.69 40.5891 34.46 40.4191 34.09C40.1991 33.58 40.4291 32.99 40.9391 32.77C43.2091 31.79 44.1191 28.17 44.1191 26.83C44.1191 24.27 42.7291 21.9 40.4891 20.63C40.1191 20.42 39.9191 20 39.9991 19.58C40.1091 18.99 40.1591 18.44 40.1591 17.89C40.1591 12.69 35.9291 8.45996 30.7291 8.45996C27.2391 8.45996 24.0491 10.38 22.3991 13.47C22.2291 13.78 21.9191 13.98 21.5691 14C21.1991 14.01 20.8791 13.85 20.6891 13.55C19.9491 12.43 18.7091 11.76 17.3691 11.76C15.1691 11.76 13.3891 13.55 13.3891 15.74C13.3891 16.28 13.4991 16.8 13.7091 17.3C13.8591 17.65 13.7991 18.04 13.5591 18.33C13.3191 18.62 12.9391 18.75 12.5691 18.66C7.97914 17.62 3.87914 21.16 3.87914 25.59C3.87914 28.85 6.07914 31.68 9.22914 32.48C9.76914 32.62 10.0891 33.16 9.94914 33.7C9.80914 34.24 9.26914 34.56 8.72914 34.42C4.68914 33.39 1.86914 29.76 1.86914 25.59C1.86914 20.42 6.16914 16.23 11.4291 16.49C11.3991 16.24 11.3791 15.99 11.3791 15.74C11.3791 12.44 14.0591 9.75996 17.3591 9.75996C18.8691 9.75996 20.2891 10.32 21.3791 11.31C23.5091 8.28996 26.9691 6.45996 30.7191 6.45996C37.0191 6.45996 42.1491 11.59 42.1491 17.89C42.1491 18.34 42.1191 18.79 42.0591 19.25C44.5691 20.93 46.1091 23.77 46.1091 26.82C46.1091 28.66 45.0091 33.17 41.7191 34.6C41.5891 34.66 41.4591 34.68 41.3191 34.68L41.3391 34.69Z" fill="#323232"/>
<path d="M21.9584 32.3002V32.6402C21.9584 35.0002 20.3584 36.4802 17.9784 36.4802C15.5984 36.4802 13.8984 34.9902 13.8984 32.5902V28.3402C13.8984 25.9402 15.3684 24.4502 17.9784 24.4502C20.3584 24.4502 21.9584 25.9202 21.9584 28.2902V28.5702H19.8284V28.3002C19.8284 27.1802 19.1384 26.4402 17.9484 26.4402C16.7584 26.4402 16.1184 27.2002 16.1184 28.3802V32.5502C16.1184 33.7202 16.8084 34.4902 17.9484 34.4902C19.0884 34.4902 19.8284 33.7402 19.8284 32.6202V32.3002H21.9584Z" fill="#323232"/>
<path d="M31.2786 32.5902C31.2786 34.9902 29.6086 36.4802 27.1786 36.4802C24.7486 36.4802 23.0586 34.9902 23.0586 32.5902V28.3402C23.0586 25.9402 24.5286 24.4502 27.1786 24.4502C29.6086 24.4502 31.2786 25.9402 31.2786 28.3402V32.5902ZM25.2786 32.5502C25.2786 33.7202 25.9686 34.4902 27.1786 34.4902C28.3886 34.4902 29.0586 33.7302 29.0586 32.5502V28.3802C29.0586 27.2102 28.3686 26.4402 27.1786 26.4402C25.9886 26.4402 25.2786 27.2002 25.2786 28.3802V32.5502Z" fill="#323232"/>
<path d="M32.1094 38.3101C32.1094 37.8801 32.1594 37.0501 32.9094 36.5501L34.0494 35.8201C34.3494 35.6201 34.6494 35.3401 34.6494 34.8801C34.6494 34.5601 34.4694 34.3601 34.1394 34.3601C33.7794 34.3601 33.5694 34.5601 33.5694 34.9301V35.0701H32.1694V34.8901C32.1694 33.8601 32.9694 33.0801 34.1994 33.0801C35.4294 33.0801 36.1494 33.7501 36.1494 34.8001C36.1494 35.7201 35.7394 36.2601 34.9994 36.7501L34.0894 37.3201C33.8894 37.4401 33.7894 37.6201 33.7894 37.6901H36.1494V38.9901H32.1194V38.3001L32.1094 38.3101Z" fill="#323232"/>
<path d="M37.4592 16.9403C37.0792 16.9403 36.7192 16.7303 36.5492 16.3603C34.3492 11.6103 30.2292 11.9603 30.0492 11.9803C29.4992 12.0403 29.0092 11.6403 28.9592 11.0903C28.8992 10.5403 29.2892 10.0503 29.8392 9.99031C30.0792 9.97031 35.5392 9.44031 38.3592 15.5203C38.5892 16.0203 38.3692 16.6203 37.8692 16.8503C37.7292 16.9103 37.5892 16.9403 37.4492 16.9403H37.4592Z" fill="#8DE2E0"/>
</svg>
