<svg width="24" height="24" viewBox="0 0 24 24" fill="none" xmlns="http://www.w3.org/2000/svg">
<path fill-rule="evenodd" clip-rule="evenodd" d="M7.36997 9.92933C7.25553 9.97493 7.13069 10 7 10H4C3.44772 10 3 9.55228 3 9C3 8.44772 3.44772 8 4 8H6.93242L6.25207 5H4C3.44772 5 3 4.55228 3 4C3 3.44772 3.44772 3 4 3H7.84929L8.98591 8.01191H23.3824L20.4206 17H9H8.97348H5C4.44772 17 4 16.5523 4 16C4 15.4477 4.44772 15 5 15H8.51991L8.17622 13.4845C8.11902 13.4947 8.06013 13.5 8 13.5H6C5.44772 13.5 5 13.0523 5 12.5C5 11.9477 5.44772 11.5 6 11.5H7.72617L7.36997 9.92933ZM20.6176 10.0119L18.9739 15H10.5707L9.43948 10.0119H20.6176ZM10.5 22C11.3284 22 12 21.3284 12 20.5C12 19.6716 11.3284 19 10.5 19C9.67157 19 9 19.6716 9 20.5C9 21.3284 9.67157 22 10.5 22ZM18.5 22C19.3284 22 20 21.3284 20 20.5C20 19.6716 19.3284 19 18.5 19C17.6716 19 17 19.6716 17 20.5C17 21.3284 17.6716 22 18.5 22Z" fill="#323232"/>
</svg>
