<svg width="24" height="24" viewBox="0 0 24 24" fill="none" xmlns="http://www.w3.org/2000/svg">
<g clip-path="url(#clip0_16335_6828)">
<path d="M12 24C18.6274 24 24 18.6274 24 12C24 5.37258 18.6274 0 12 0C5.37258 0 0 5.37258 0 12C0 18.6274 5.37258 24 12 24Z" fill="#EE1C25"/>
<path d="M13.7177 5.00782C13.13 5.19571 12.8064 5.82451 12.9949 6.41217C13.0251 6.50679 13.0676 6.59662 13.1218 6.67959C13.6656 7.51685 13.4276 8.63525 12.5904 9.17902C12.5012 9.23662 12.408 9.28668 12.3099 9.32782C11.5234 9.66039 11.1559 10.5676 11.4884 11.3541C11.5769 11.5626 11.7092 11.7491 11.8772 11.9006C10.669 11.0407 10.3659 9.37445 11.1943 8.14428C11.1785 8.13125 11.1641 8.11685 11.1497 8.10245C10.3021 9.35114 10.5984 11.0476 11.8196 11.9342C9.96683 11.1923 9.06649 9.08851 9.80843 7.23571C10.4338 5.67434 12.0541 4.75068 13.7163 5.00851" fill="white"/>
<path d="M11.7024 7.88502L12.1516 7.98376L11.8464 7.64022L12.0789 7.24388L11.6578 7.42765L11.3534 7.08411L11.398 7.54148L10.9769 7.72456L11.4254 7.82399L11.47 8.28136L11.7024 7.88502Z" fill="#EE1C25"/>
<path d="M19.1808 11.4727C18.8201 10.9722 18.1228 10.8583 17.6222 11.219C17.542 11.2773 17.4693 11.3452 17.4069 11.4227C16.7788 12.1982 15.6412 12.3175 14.8656 11.6894C14.7833 11.6229 14.7072 11.5488 14.6373 11.4686C14.0777 10.8234 13.1013 10.7541 12.4567 11.313C12.286 11.4611 12.1495 11.6448 12.0569 11.8519C12.5013 10.4366 13.9927 9.63364 15.419 10.0416C15.4265 10.0231 15.4354 10.0046 15.445 9.98678C13.9954 9.56644 12.4738 10.3728 12.0082 11.808C12.1413 9.81672 13.8638 8.31021 15.8551 8.44392C17.5337 8.55638 18.9127 9.81192 19.1815 11.4727" fill="white"/>
<path d="M16.0992 10.5065L16.5477 10.6059L16.2432 10.2617L16.4757 9.86534L16.0546 10.0491L15.7495 9.70557L15.7941 10.1629L15.373 10.3467L15.8215 10.4455L15.8661 10.9028L16.0992 10.5065Z" fill="#EE1C25"/>
<path d="M6.50056 16.6471C7.08616 16.8405 7.71771 16.5216 7.91108 15.936C7.94194 15.8421 7.96045 15.744 7.96593 15.6446C8.01805 14.6483 8.86834 13.8823 9.86468 13.9351C9.97028 13.9406 10.0759 13.9557 10.1787 13.9797C11.0105 14.1731 11.8416 13.6554 12.0343 12.8236C12.0857 12.6035 12.0878 12.3744 12.0404 12.153C12.5129 13.5587 11.7785 15.0851 10.3844 15.5932C10.3892 15.6131 10.3927 15.633 10.3954 15.6528C11.8155 15.1406 12.5719 13.5943 12.1056 12.1591C13.1684 13.8487 12.6603 16.0794 10.9707 17.1422C9.54651 18.0378 7.69302 17.8327 6.49988 16.6471" fill="white"/>
<path d="M9.86674 15.9613L10.3152 16.0601L10.01 15.7165L10.2432 15.3202L9.82216 15.5039L9.51702 15.1604L9.56159 15.6178L9.14056 15.8009L9.58902 15.9003L9.63359 16.3577L9.86674 15.9613Z" fill="#EE1C25"/>
<path d="M14.7202 18.6665C15.085 18.1694 14.9774 17.4707 14.4802 17.1059C14.4 17.0469 14.3129 16.9996 14.2203 16.9639C13.2884 16.606 12.8235 15.5609 13.1808 14.6297C13.2185 14.531 13.2651 14.4357 13.32 14.3445C13.7609 13.6135 13.525 12.6631 12.794 12.2222C12.6 12.1056 12.3833 12.0323 12.1584 12.0089C13.6416 11.9945 14.8663 13.1644 14.9191 14.6469C14.9396 14.6483 14.9595 14.651 14.9794 14.6544C14.9314 13.1459 13.6944 11.9479 12.1851 11.9486C14.1202 11.4597 16.0848 12.6323 16.5737 14.5673C16.9858 16.1987 16.2178 17.8979 14.7209 18.6665" fill="white"/>
<path d="M14.9643 15.4978L15.4128 15.5972L15.1083 15.253L15.3408 14.8574L14.9198 15.0411L14.6146 14.6969L14.6592 15.1543L14.2382 15.338L14.6866 15.4368L14.7312 15.8942L14.9643 15.4978Z" fill="#EE1C25"/>
<path d="M5.88068 8.20593C5.87794 8.82239 6.37576 9.32502 6.99222 9.32776C7.09165 9.32776 7.19039 9.31542 7.28571 9.29005C8.24982 9.03153 9.24068 9.6041 9.49851 10.5675C9.52594 10.6697 9.54445 10.7746 9.55336 10.8802C9.62674 11.7312 10.3755 12.3614 11.2265 12.288C11.4521 12.2688 11.6702 12.2002 11.8663 12.0871C10.6752 12.971 8.99656 12.744 8.08251 11.5755C8.06536 11.5858 8.04753 11.5961 8.02902 11.605C8.95473 12.7968 10.6594 13.0388 11.88 12.1515C10.6018 13.6841 8.32319 13.8905 6.79062 12.6123C5.49873 11.5351 5.12091 9.70833 5.87999 8.2073" fill="white"/>
<path d="M7.85074 11.256L8.2992 11.3547L7.99474 11.0112L8.2272 10.6148L7.80617 10.7986L7.50103 10.4551L7.5456 10.9124L7.12457 11.0962L7.57303 11.195L7.6176 11.6523L7.85074 11.256Z" fill="#EE1C25"/>
</g>
<rect x="0.25" y="0.25" width="23.5" height="23.5" rx="11.75" stroke="#E5E3E1" stroke-width="0.5"/>
<defs>
<clipPath id="clip0_16335_6828">
<rect width="24" height="24" rx="12" fill="white"/>
</clipPath>
</defs>
</svg>
