<svg width="48" height="48" viewBox="0 0 48 48" fill="none" xmlns="http://www.w3.org/2000/svg">
<path d="M32.6909 18.6202H2.88086L8.05086 10.4902C8.44086 9.87023 9.13086 9.49023 9.86086 9.49023H25.8709C26.9809 9.49023 27.9909 10.0902 28.5209 11.0402L32.6909 18.6202Z" fill="#8DE2E0"/>
<path d="M19.8803 37.46H17.6103L13.9603 24.08C13.9003 23.86 13.7003 23.71 13.4803 23.71H10.7303C10.5003 23.71 10.3003 23.87 10.2403 24.09L6.95031 37.46H4.32031C3.77031 37.46 3.32031 37.91 3.32031 38.46C3.32031 39.01 3.77031 39.46 4.32031 39.46H19.8803C20.4303 39.46 20.8803 39.01 20.8803 38.46C20.8803 37.91 20.4303 37.46 19.8803 37.46Z" fill="#DF0000"/>
<path d="M41.2191 28.0002H45.1191C45.6691 28.0002 46.1191 27.5502 46.1191 27.0002V18.6202C46.1191 18.0702 45.6691 17.6202 45.1191 17.6202H35.4191L43.0891 11.1702C43.5091 10.8102 43.5691 10.1802 43.2091 9.76023C42.8591 9.34023 42.2191 9.28023 41.7991 9.64023L32.9691 17.0702L29.3891 10.5602C28.6891 9.28024 27.3391 8.49023 25.8691 8.49023H9.85914C8.77914 8.49023 7.75914 9.05023 7.19914 9.95023L2.02914 18.0802C2.02914 18.0802 1.99914 18.1502 1.97914 18.1802C1.96914 18.2102 1.94914 18.2302 1.93914 18.2602C1.89914 18.3702 1.86914 18.4802 1.86914 18.6002C1.86914 18.6002 1.86914 18.6002 1.86914 18.6102V26.9902C1.86914 27.5402 2.31914 27.9902 2.86914 27.9902H6.29914C6.84914 27.9902 7.29914 27.5402 7.29914 26.9902C7.29914 26.4402 6.84914 25.9902 6.29914 25.9902H3.86914V19.6102H44.1191V25.9902H41.2191C40.7491 23.3102 38.3991 21.2602 35.5891 21.2602C32.7791 21.2602 30.4291 23.3102 29.9591 25.9902H18.0991C17.5491 25.9902 17.0991 26.4402 17.0991 26.9902C17.0991 27.5402 17.5491 27.9902 18.0991 27.9902H29.9691C30.2391 29.5002 31.0891 30.8002 32.2891 31.6602H19.5091C18.9591 31.6602 18.5091 32.1102 18.5091 32.6602C18.5091 33.2102 18.9591 33.6602 19.5091 33.6602H45.1391C45.6891 33.6602 46.1391 33.2102 46.1391 32.6602C46.1391 32.1102 45.6891 31.6602 45.1391 31.6602H38.9091C40.1091 30.8102 40.9691 29.5002 41.2291 27.9902L41.2191 28.0002ZM4.69914 17.6202L8.89914 11.0202C9.09914 10.7002 9.46914 10.4902 9.86914 10.4902H25.8791C26.6191 10.4902 27.2991 10.8902 27.6491 11.5202L30.9991 17.6202H4.69914ZM35.5891 30.7202C33.5291 30.7202 31.8591 29.0502 31.8591 26.9902C31.8591 24.9302 33.5291 23.2602 35.5891 23.2602C37.6491 23.2602 39.3191 24.9302 39.3191 26.9902C39.3191 29.0502 37.6491 30.7202 35.5891 30.7202Z" fill="#323232"/>
<path d="M5.08891 31.6602H2.87891C2.32891 31.6602 1.87891 32.1102 1.87891 32.6602C1.87891 33.2102 2.32891 33.6602 2.87891 33.6602H5.08891C5.63891 33.6602 6.08891 33.2102 6.08891 32.6602C6.08891 32.1102 5.63891 31.6602 5.08891 31.6602Z" fill="#323232"/>
</svg>
