<svg width="48" height="48" viewBox="0 0 48 48" fill="none" xmlns="http://www.w3.org/2000/svg">
<path fill-rule="evenodd" clip-rule="evenodd" d="M42.26 5.25H6.16C4.83 5.25 3.75 6.33 3.75 7.66V11.99H25.19L42.25 5.26L42.26 5.25Z" fill="#8DE2E0"/>
<path fill-rule="evenodd" clip-rule="evenodd" d="M23.8009 29.4904C25.2809 29.4904 26.4709 28.2904 26.4709 26.8204C26.4709 25.3504 25.2709 24.1504 23.8009 24.1504C22.3309 24.1504 21.1309 25.3504 21.1309 26.8204C21.1309 28.2904 22.3309 29.4904 23.8009 29.4904Z" fill="#DF0000"/>
<path d="M43.98 4.76C43.51 4.44 42.96 4.29 42.38 4.28C42.34 4.28 42.3 4.25 42.25 4.25H6.16C4.28 4.25 2.75 5.78 2.75 7.66V30.8C2.75 32.68 4.28 34.21 6.16 34.21H15.29V41.12C15.29 42.06 15.68 42.86 16.37 43.33C16.79 43.61 17.28 43.75 17.81 43.75C18.22 43.75 18.64 43.67 19.07 43.5L42.21 34.33C43.91 33.65 45.25 31.77 45.25 30.04V7.38C45.25 6.24 44.8 5.32 43.99 4.76H43.98ZM6.16 6.25H36.7L25.01 10.98H4.75V7.65C4.75 6.87 5.38 6.24 6.16 6.24V6.25ZM6.16 32.2C5.38 32.2 4.75 31.57 4.75 30.79V12.98H20.06L18.33 13.68C16.92 14.24 15.77 15.63 15.42 17.07H10.44C9.89 17.07 9.44 17.52 9.44 18.07C9.44 18.62 9.89 19.07 10.44 19.07H15.3V22.85H10.44C9.89 22.85 9.44 23.3 9.44 23.85C9.44 24.4 9.89 24.85 10.44 24.85H15.3V32.2H6.16ZM43.25 30.03C43.25 30.95 42.42 32.09 41.47 32.46L18.33 41.63C17.98 41.77 17.67 41.78 17.49 41.66C17.31 41.54 17.28 41.26 17.28 41.1V17.96C17.28 17.04 18.11 15.9 19.06 15.52L41.71 6.35C41.9 6.27 42.1 6.24 42.28 6.24C42.49 6.24 42.69 6.29 42.84 6.39C43.16 6.61 43.23 7.03 43.23 7.35V30.01L43.25 30.03Z" fill="#323232"/>
</svg>
