<svg width="24" height="24" viewBox="0 0 24 24" fill="none" xmlns="http://www.w3.org/2000/svg">
<g clip-path="url(#clip0_17860_655)">
<path fill-rule="evenodd" clip-rule="evenodd" d="M16 3H8C7.44772 3 7 3.44772 7 4V20C7 20.5523 7.44772 21 8 21H16C16.5523 21 17 20.5523 17 20V4C17 3.44772 16.5523 3 16 3ZM8 1C6.34315 1 5 2.34315 5 4V20C5 21.6569 6.34315 23 8 23H16C17.6569 23 19 21.6569 19 20V4C19 2.34315 17.6569 1 16 1H8Z" fill="#323232"/>
<path d="M9.5 19.5C9.5 19.2239 9.72386 19 10 19H14C14.2761 19 14.5 19.2239 14.5 19.5C14.5 19.7761 14.2761 20 14 20H10C9.72386 20 9.5 19.7761 9.5 19.5Z" fill="#323232"/>
<path d="M10.5 4.5C10.5 4.22386 10.7239 4 11 4H13C13.2761 4 13.5 4.22386 13.5 4.5C13.5 4.77614 13.2761 5 13 5H11C10.7239 5 10.5 4.77614 10.5 4.5Z" fill="#323232"/>
</g>
<defs>
<clipPath id="clip0_17860_655">
<rect width="24" height="24" fill="white"/>
</clipPath>
</defs>
</svg>
