<svg width="24" height="24" viewBox="0 0 24 24" fill="none" xmlns="http://www.w3.org/2000/svg">
<path fill-rule="evenodd" clip-rule="evenodd" d="M20.5578 15.3049C20.4735 14.9985 19.5785 15.13 18.8418 15.0624C18.1703 15.0024 17.311 14.8811 16.2769 14.5223C15.3104 14.1865 14.3733 13.8022 13.5575 13.3618C13.5575 13.3618 13.2281 13.1881 13.1923 13.1677C13.1234 13.1268 13.071 13.0962 13.0046 13.0553C12.9638 13.0311 12.9038 12.9953 12.8604 12.9762C12.8016 12.9519 12.7633 12.9213 12.7136 12.8906C12.6638 12.86 12.5961 12.8268 12.545 12.7962C12.4697 12.7489 12.4225 12.7132 12.3522 12.6621C12.3076 12.6302 12.2859 12.6213 12.2271 12.5855C12.1926 12.5638 12.1288 12.5293 12.0969 12.5089C12.0318 12.4655 11.9897 12.4298 11.9245 12.3838C11.8837 12.3557 11.8543 12.3378 11.8071 12.3085C11.7586 12.2791 11.7139 12.2421 11.673 12.2114C11.65 12.1948 11.6156 12.1744 11.5951 12.154C11.5466 12.108 11.4994 12.0659 11.4496 12.025C11.4024 11.9906 11.3602 11.9484 11.313 11.9152C11.2862 11.8935 11.2364 11.8514 11.2083 11.831C11.1342 11.7773 11.0883 11.7378 11.0142 11.6854C10.967 11.6497 10.9274 11.6037 10.8802 11.5692C10.8266 11.5297 10.7793 11.485 10.7244 11.4454C10.6887 11.4211 10.6491 11.3892 10.6223 11.3611C10.5865 11.3203 10.5533 11.2909 10.5163 11.2488C10.4908 11.2194 10.4372 11.1875 10.4078 11.1556C10.3618 11.0981 10.298 11.0368 10.238 10.9909C10.2022 10.9577 10.1907 10.9424 10.178 10.9258C10.1665 10.9104 10.1537 10.8939 10.1244 10.8632C10.095 10.8326 10.0861 10.8249 10.072 10.8121C10.0605 10.8006 10.0439 10.7866 10.0056 10.747C9.99158 10.7343 9.97115 10.7049 9.95072 10.6781C9.93157 10.6525 9.91497 10.6283 9.90348 10.6155C9.86773 10.5772 9.84348 10.5517 9.81794 10.5249C9.80007 10.5057 9.78092 10.4853 9.75794 10.4598C9.74389 10.4444 9.73112 10.4266 9.71963 10.41C9.70942 10.3934 9.69793 10.3755 9.68516 10.3615C9.66346 10.3372 9.64686 10.3461 9.64175 10.3487C9.62899 10.3576 9.62516 10.3832 9.6392 10.4138C9.65707 10.4483 9.68516 10.4891 9.70176 10.5121C9.70559 10.5172 9.70814 10.521 9.7107 10.5249C9.71708 10.5351 9.72474 10.5466 9.73112 10.5581C9.74006 10.5747 9.75028 10.5938 9.76304 10.6091C9.78985 10.6462 9.81922 10.6768 9.84858 10.7062C9.85752 10.7164 9.86773 10.7266 9.87667 10.7355C9.89582 10.756 9.91114 10.7777 9.92646 10.8006C9.94178 10.8236 9.95838 10.8479 9.98009 10.8696C9.98902 10.8798 9.99796 10.8913 10.0056 10.9028C10.0158 10.9156 10.0248 10.9283 10.0363 10.9385C10.0529 10.9539 10.0682 10.9717 10.0848 10.9883C10.1116 11.0164 10.1397 11.0458 10.1665 11.0675C10.1869 11.0854 10.2086 11.1071 10.2303 11.1288C10.2852 11.1939 10.3452 11.259 10.3937 11.3216C10.4218 11.3573 10.4729 11.3828 10.5048 11.4071C10.5406 11.4339 10.5687 11.4799 10.5955 11.5143C10.6172 11.5399 10.6644 11.582 10.6861 11.6088C10.741 11.679 10.7793 11.7173 10.8508 11.7697C10.8942 11.8016 10.9287 11.8322 10.9619 11.8744C10.981 11.8999 11.0449 11.9599 11.0666 11.9893C11.1266 12.0646 11.1534 12.1348 11.1457 12.1374C11.1062 12.1476 11.0053 12.0608 10.9478 12.0225C10.8993 11.9906 10.8929 11.9778 10.8457 11.9433C10.8342 11.9344 10.764 11.8833 10.7385 11.8527C10.718 11.8348 10.6644 11.7761 10.6478 11.7556C10.5661 11.6509 10.5367 11.6446 10.4423 11.5526C10.3746 11.485 10.2891 11.425 10.2214 11.365C10.2022 11.3433 10.1818 11.3216 10.1627 11.2998C10.1397 11.2781 10.1116 11.2577 10.0912 11.236C10.0618 11.1964 10.0197 11.1186 9.98264 11.0917C9.94306 11.0611 9.9137 11.0343 9.87412 11.0036C9.86007 10.9947 9.84731 10.9756 9.83326 10.9653C9.81411 10.9513 9.79113 10.9347 9.77709 10.9168C9.73112 10.8581 9.68516 10.7981 9.6392 10.7394C9.6175 10.7113 9.58813 10.6883 9.56643 10.6589C9.52046 10.5964 9.48472 10.5313 9.43876 10.4725C9.37492 10.3895 9.28427 10.3295 9.22299 10.2466C9.15915 10.161 9.12213 10.0602 9.06212 9.9695C9.03659 9.9312 8.99701 9.90311 8.96892 9.86609C8.95232 9.84438 8.94339 9.82012 8.92806 9.79587C8.89615 9.74735 8.85912 9.70011 8.8272 9.65415C8.78507 9.59287 8.75698 9.5252 8.71485 9.46137C8.70847 9.45115 8.69315 9.40774 8.66761 9.37582C8.64208 9.34391 8.62037 9.30688 8.59101 9.26092C8.56292 9.21623 8.5476 9.18559 8.52717 9.15368C8.50675 9.12176 8.49398 9.09239 8.47866 9.07069C8.46589 9.04771 8.43525 9.00685 8.42504 8.99025C8.38673 8.93153 8.37652 8.90344 8.33566 8.84854C8.31013 8.81534 8.28332 8.78726 8.26289 8.79619C8.24502 8.80896 8.2514 8.82939 8.25523 8.84471C8.27311 8.89322 8.2731 8.88429 8.29226 8.91876C8.3229 8.97749 8.33439 9.00557 8.36886 9.05792C8.38546 9.08346 8.41227 9.14091 8.43525 9.17283C8.45695 9.20474 8.47866 9.24305 8.49398 9.26986C8.51058 9.29794 8.53483 9.37199 8.55781 9.40264C8.57569 9.42434 8.59995 9.4703 8.61654 9.5035C8.64846 9.56861 8.69059 9.62096 8.72507 9.67202C8.74805 9.71543 8.77103 9.75884 8.79401 9.80097C8.83869 9.86992 8.89359 9.93375 8.93828 10.004C8.96637 10.0525 8.99318 10.1023 9.02127 10.1521C9.0468 10.1917 9.0851 10.2261 9.11064 10.2683C9.14255 10.3168 9.16171 10.3704 9.19362 10.4189C9.21788 10.4572 9.25235 10.493 9.27661 10.5313C9.32002 10.5964 9.3596 10.6589 9.40556 10.7215C9.42982 10.7547 9.46429 10.7841 9.48855 10.8185C9.52302 10.8645 9.55111 10.9207 9.58685 10.9602C9.63026 10.9998 9.64175 11.0241 9.67495 11.0624C9.72602 11.1224 9.84986 11.2998 9.82943 11.2998C9.75538 11.3101 9.61494 11.1505 9.55621 11.093C9.50897 11.0471 9.45918 11.0139 9.42726 10.9717C9.38003 10.9079 9.34555 10.8364 9.29832 10.7751C9.28172 10.7534 9.25618 10.7355 9.23831 10.7138C9.20639 10.6717 9.17575 10.6283 9.13872 10.5913C9.12213 10.5759 9.10681 10.5632 9.09149 10.5466C9.03403 10.4725 8.98679 10.3947 8.93062 10.318C8.90764 10.2861 8.877 10.258 8.85401 10.2274C8.83486 10.2031 8.82593 10.1763 8.80933 10.1495C8.78635 10.115 8.75826 10.0819 8.73528 10.0474C8.71868 10.0218 8.70847 9.99631 8.69059 9.9695C8.65995 9.92354 8.62037 9.88396 8.58973 9.838C8.56547 9.7997 8.55909 9.74991 8.53483 9.71288C8.47227 9.61713 8.40333 9.51882 8.34205 9.42306C8.32545 9.39881 8.32034 9.37072 8.30502 9.34518C8.25523 9.2673 8.20799 9.18176 8.1582 9.10516C8.13905 9.07579 8.13139 9.0426 8.11351 9.01451C8.09053 8.98004 8.05606 8.95195 8.03308 8.91748C8.01648 8.89067 8.00882 8.86131 7.99478 8.83066C7.9769 8.79109 7.95137 8.75023 7.92967 8.71193C7.9169 8.68895 7.90924 8.66469 7.89519 8.64171C7.83646 8.54851 7.78667 8.44892 7.73816 8.34551C7.71262 8.29189 7.67432 8.24209 7.64879 8.18847C7.6207 8.12846 7.59389 8.06718 7.5658 8.00845C7.55176 7.96887 7.53771 7.9293 7.52367 7.88972C7.4943 7.82716 7.44962 7.77354 7.42153 7.7097C7.40238 7.66629 7.39216 7.62416 7.37301 7.58841C7.3628 7.56543 7.3411 7.54628 7.32322 7.55649C7.30918 7.56671 7.30662 7.58586 7.31684 7.62033C7.33599 7.68672 7.37174 7.76077 7.38961 7.79907C7.42281 7.87312 7.4394 7.951 7.47388 8.02633C7.49303 8.06846 7.51984 8.10804 7.53771 8.14889C7.57218 8.22039 7.6041 8.29316 7.63602 8.36083C7.65517 8.40041 7.66921 8.43871 7.69092 8.47701C7.70241 8.49616 7.71901 8.51914 7.72922 8.54085C7.74965 8.58936 7.75731 8.63915 7.77901 8.68512C7.80072 8.73363 7.83774 8.77321 7.85945 8.82045C7.97435 9.06175 8.08926 9.29284 8.22587 9.5086C8.26417 9.56861 8.28332 9.64138 8.3229 9.70139C8.36248 9.76267 8.41737 9.81119 8.45695 9.87247C8.49015 9.92226 8.49908 9.99121 8.52717 10.0461C8.57186 10.1265 8.63059 10.1955 8.6791 10.2708C8.69187 10.2925 8.6957 10.3168 8.71102 10.3385C8.7289 10.3678 8.75188 10.3959 8.77103 10.4253C8.79529 10.4649 8.80805 10.5108 8.83614 10.5466C8.86551 10.5874 8.90636 10.6206 8.93573 10.6602C8.97275 10.71 8.99701 10.7675 9.03403 10.8172C9.06084 10.853 9.10042 10.876 9.12723 10.9117C9.16937 10.9666 9.31364 11.1569 9.35577 11.2105C9.4196 11.2922 9.53323 11.4109 9.58685 11.5182C9.60218 11.5514 9.65963 11.6292 9.64814 11.6458C9.6175 11.6663 9.4745 11.5092 9.45024 11.4863C9.39024 11.4288 9.33789 11.3496 9.28555 11.2845C9.27406 11.2692 9.13617 11.1339 9.12468 11.1198C9.11064 11.102 9.09659 11.0828 9.0851 11.0649C9.0468 11.0075 9.02254 10.9385 8.98169 10.8849C8.96509 10.8619 8.93828 10.8453 8.92296 10.8236C8.88976 10.7815 8.86678 10.7343 8.83742 10.6909C8.7889 10.6245 8.72634 10.5645 8.67655 10.4981C8.62293 10.4253 8.5859 10.3385 8.531 10.267C8.50419 10.2312 8.46972 10.198 8.44419 10.1597C8.4327 10.1431 8.42886 10.1265 8.41737 10.1087C8.39822 10.078 8.37141 10.0448 8.35609 10.0116C8.34205 9.98227 8.33183 9.95291 8.31524 9.92482C8.25778 9.83672 8.20161 9.74352 8.14543 9.65543C8.1199 9.61585 8.10585 9.57244 8.08032 9.53286C8.03819 9.46775 7.98457 9.40902 7.94243 9.34263C7.89136 9.26475 7.86455 9.17027 7.81476 9.09239C7.78157 9.04132 7.74326 8.99281 7.71135 8.94046C7.67432 8.88556 7.65645 8.81917 7.62453 8.76044C7.59644 8.70937 7.55686 8.66214 7.5326 8.60979C7.50579 8.55361 7.48664 8.49744 7.45983 8.43999C7.44451 8.40934 7.42153 8.3787 7.40749 8.34678C7.39089 8.30593 7.38578 8.26635 7.36918 8.22805C7.31939 8.11953 7.24534 8.01739 7.19427 7.90887C7.15852 7.83226 7.12661 7.75311 7.09596 7.6714C7.08064 7.62671 7.07298 7.58458 7.05256 7.54372C7.00787 7.44414 6.95169 7.33945 6.90829 7.24114C6.89041 7.1888 6.87126 7.13645 6.85211 7.0841C6.847 7.06878 6.84573 7.05474 6.84062 7.03814C6.82019 6.99218 6.79338 6.94622 6.77551 6.90026C6.75763 6.84663 6.73976 6.79429 6.72444 6.74066C6.65422 6.56575 6.59166 6.36914 6.52527 6.18784C6.51761 6.15465 6.51505 6.11379 6.50356 6.07932C6.46909 5.98612 6.43462 5.89292 6.40143 5.79972C6.38228 5.75248 6.33631 5.76908 6.34653 5.81632C6.36057 5.88143 6.36823 5.89675 6.37972 5.94654C6.38483 5.97208 6.38994 5.99761 6.39504 6.02315C6.4027 6.05379 6.4193 6.08698 6.42696 6.11635C6.44483 6.17252 6.44611 6.22742 6.46526 6.27977C6.49207 6.35509 6.51888 6.42787 6.54314 6.50575C6.5508 6.54405 6.55974 6.58235 6.5674 6.62065C6.57761 6.6564 6.59293 6.69343 6.6057 6.72662C6.644 6.8211 6.68103 6.91175 6.71422 7.00622C6.72827 7.05985 6.74231 7.11347 6.75508 7.16709C6.76912 7.19646 6.78955 7.2271 6.80359 7.25646C6.81509 7.282 6.81764 7.30625 6.82913 7.33307C6.85211 7.39435 6.87509 7.45563 6.9019 7.51564C6.92488 7.56671 6.95169 7.6165 6.97212 7.67012C6.98106 7.69693 6.98106 7.71864 6.99 7.74417C7.04745 7.90376 7.11129 8.07101 7.18023 8.22039C7.19683 8.25741 7.20193 8.29699 7.21853 8.33529C7.23257 8.36721 7.253 8.40041 7.26705 8.43233C7.27471 8.45148 7.28109 8.4719 7.28747 8.49233C7.30918 8.53702 7.34493 8.57404 7.36663 8.61873C7.42536 8.74257 7.47771 8.86003 7.55176 8.966C7.61942 9.06303 7.64879 9.19198 7.70113 9.30943C7.72539 9.36433 7.75858 9.41157 7.78923 9.46009C7.80327 9.48562 7.81476 9.51371 7.82753 9.54052C7.86072 9.60181 7.87987 9.65415 7.91945 9.70777C7.95137 9.75246 7.94754 9.76267 7.97563 9.82396C7.98329 9.84183 8.01265 9.95801 8.01265 9.95801C7.99606 9.96567 7.93988 9.9312 7.92073 9.9095C7.89392 9.88013 7.85306 9.84183 7.82497 9.77799C7.81093 9.74735 7.78157 9.69245 7.76752 9.66181C7.73177 9.58393 7.67049 9.51882 7.62581 9.44987C7.59899 9.40774 7.58495 9.36306 7.56325 9.3171C7.52494 9.23666 7.48281 9.15367 7.44323 9.07069C7.42664 9.03622 7.4011 9.00174 7.38195 8.96983C7.36152 8.93791 7.35131 8.90344 7.32961 8.87024C7.28492 8.80002 7.23385 8.71959 7.19683 8.64298C7.17001 8.58553 7.15725 8.52808 7.13044 8.4719C7.12278 8.45403 7.10746 8.43743 7.09596 8.42083C7.07809 8.39147 7.07043 8.35955 7.05511 8.32763C7.03468 8.28422 7.00404 8.24337 6.98361 8.19868C6.94403 8.11187 6.91978 8.01994 6.87764 7.93185C6.85849 7.89227 6.82658 7.8578 6.80742 7.81694C6.77806 7.75438 6.77423 7.6765 6.74487 7.61139C6.66954 7.43903 6.58017 7.26157 6.51505 7.08155C6.50484 7.05091 6.50229 7.01771 6.49335 6.98452C6.46526 6.90664 6.42568 6.83387 6.39887 6.75726C6.38611 6.72151 6.38228 6.6896 6.36823 6.65385C6.35036 6.6015 6.3261 6.5466 6.30567 6.49298C6.30184 6.47511 6.29929 6.45723 6.29163 6.43936C6.26992 6.38957 6.2546 6.33084 6.23162 6.27849C6.22013 6.25168 6.20098 6.22359 6.18949 6.1955C6.17162 6.14316 6.17672 6.07804 6.15885 6.02825C6.13204 5.9542 6.1014 5.87632 6.07458 5.80355C6.05926 5.76142 6.05543 5.72056 6.04139 5.67843C6.02352 5.62991 6.00564 5.57629 5.98777 5.52778C5.96989 5.47671 5.96989 5.42308 5.9533 5.37074C5.94181 5.32988 5.92393 5.28903 5.91116 5.252C5.88563 5.18051 5.87542 5.10518 5.84988 5.04007C5.84477 5.0273 5.84094 5.01581 5.83584 5.00304C5.82945 4.98517 5.81669 4.96729 5.79881 4.9724C5.77838 4.97878 5.77838 5.0056 5.77966 5.02219C5.78221 5.07454 5.80264 5.12178 5.81796 5.16391C5.83456 5.20859 5.84222 5.25583 5.85499 5.29924C5.86137 5.32605 5.86009 5.3567 5.86776 5.38606C5.87669 5.42691 5.89329 5.46649 5.9035 5.50735C5.91372 5.5482 5.90861 5.58778 5.91755 5.6197C5.94436 5.70779 5.97372 5.80738 6.00309 5.89292C6.01586 5.93633 6.01841 5.98612 6.03118 6.02442C6.0465 6.06911 6.06309 6.11379 6.07969 6.15848C6.09374 6.19678 6.09757 6.23253 6.11289 6.26828C6.12948 6.3053 6.14863 6.34488 6.1614 6.38701C6.17928 6.44191 6.178 6.49553 6.19587 6.5466C6.22651 6.63087 6.26482 6.71002 6.29418 6.79173C6.30312 6.8211 6.30695 6.85174 6.31844 6.8811C6.34142 6.95132 6.35929 7.02665 6.38483 7.09687C6.42058 7.19646 6.46782 7.29349 6.50356 7.39179C6.53931 7.48883 6.54314 7.60628 6.584 7.69693C6.6057 7.74162 6.64911 7.76843 6.66826 7.81184C6.68231 7.83992 6.67848 7.87312 6.68869 7.90504C6.70018 7.94334 6.71678 7.97909 6.73082 8.01484C6.73848 8.04548 6.74742 8.07612 6.75636 8.10804C6.76785 8.14506 6.79593 8.18081 6.81126 8.21656C6.83807 8.27529 6.85083 8.33529 6.88403 8.38764C6.90956 8.42594 6.94148 8.46297 6.96191 8.50638C6.98489 8.55489 6.99255 8.60724 7.01553 8.65703C7.04745 8.73108 7.0883 8.80258 7.11512 8.87918C7.14065 8.94812 7.15086 9.02345 7.18406 9.08473C7.21725 9.14474 7.25939 9.19964 7.29258 9.26092C7.31301 9.3056 7.33344 9.35157 7.35514 9.39625C7.37174 9.43328 7.40493 9.4652 7.42536 9.50222C7.45089 9.54818 7.47643 9.5967 7.49813 9.64394C7.51345 9.67969 7.51984 9.71288 7.54154 9.74352C7.56963 9.79076 7.59389 9.82906 7.62325 9.8763C7.65006 9.91971 7.6807 9.97206 7.69986 10.0231C7.7139 10.0614 7.72922 10.101 7.75092 10.1329C7.77391 10.1648 7.80455 10.1929 7.82497 10.2287C7.8454 10.2644 7.87221 10.3781 7.862 10.3832C7.83774 10.3921 7.76752 10.3257 7.74837 10.3027C7.69347 10.2351 7.66538 10.1457 7.61559 10.0742C7.56197 9.99759 7.5275 9.95418 7.48664 9.86609C7.46238 9.81502 7.42025 9.72309 7.38961 9.67841C7.3628 9.635 7.32322 9.59797 7.30279 9.54946C7.28492 9.50988 7.27598 9.46264 7.25939 9.42434C7.23257 9.36816 7.17895 9.33114 7.15214 9.27241C7.1215 9.20857 7.10746 9.14091 7.07426 9.07963C7.05894 9.05026 7.03724 9.01707 7.02319 8.98642C7.00404 8.94812 6.99638 8.90982 6.97851 8.87152C6.94148 8.79236 6.8853 8.7247 6.847 8.64682C6.80998 8.5651 6.78955 8.47829 6.74997 8.3953C6.72954 8.35189 6.69252 8.31487 6.67209 8.27018C6.644 8.21145 6.62996 8.15017 6.60187 8.09016C6.58527 8.05441 6.55974 8.01994 6.54314 7.98419C6.51888 7.93313 6.51122 7.87695 6.48697 7.82333C6.43334 7.70332 6.37717 7.5782 6.32355 7.45691C6.30312 7.41094 6.29801 7.36243 6.27758 7.31647C6.25588 7.27561 6.23545 7.23476 6.21502 7.1939C6.16779 7.08793 6.15119 6.96409 6.10523 6.85685C6.07969 6.80322 6.05033 6.75088 6.02862 6.69343C5.99415 6.6015 5.98138 6.50702 5.94819 6.41382C5.89712 6.27083 5.85626 6.12273 5.8052 5.98101C5.78987 5.9376 5.78732 5.89675 5.772 5.85206C5.75668 5.81121 5.74136 5.76908 5.72604 5.72694C5.71455 5.69375 5.70816 5.64523 5.69923 5.60183C5.66093 5.48181 5.62262 5.3618 5.58432 5.23924C5.57539 5.20987 5.57411 5.1588 5.56389 5.1205C5.55751 5.10007 5.54602 5.07582 5.53964 5.05666C5.52942 5.02858 5.52942 5.0056 5.52049 4.97623C5.4924 4.88814 5.46814 4.786 5.44005 4.69663C5.43239 4.66854 5.42984 4.63024 5.4209 4.59704C5.38132 4.47192 5.36217 4.31744 5.3111 4.19998C5.30217 4.17828 5.28812 4.15402 5.26514 4.15913C5.24344 4.16551 5.24854 4.19105 5.24982 4.21275C5.25748 4.2702 5.27791 4.31872 5.28812 4.36596C5.29195 4.38766 5.29195 4.41703 5.29323 4.44256C5.29578 4.46426 5.29834 4.49108 5.306 4.51406C5.32898 4.58811 5.35579 4.6762 5.37877 4.75153C5.38515 4.78728 5.38005 4.84217 5.38898 4.88303C5.4209 5.00177 5.44516 5.14476 5.48857 5.252C5.52815 5.34903 5.53453 5.46649 5.56389 5.57246C5.57411 5.61715 5.57539 5.66439 5.58049 5.71035C5.58815 5.75376 5.61241 5.78567 5.62645 5.8227C5.63667 5.85079 5.63539 5.87377 5.64561 5.90313C5.66986 5.97846 5.68646 6.05379 5.71455 6.13039C5.7337 6.18274 5.76179 6.23253 5.78094 6.28487C5.7886 6.30786 5.78477 6.32956 5.79243 6.35509C5.8052 6.40744 5.81413 6.46106 5.82945 6.51213C5.86648 6.61555 5.90223 6.72917 5.94053 6.83387C5.96096 6.89132 5.96734 6.94749 5.98777 7.00367C6.06948 7.22837 6.15374 7.4518 6.23545 7.67395C6.24822 7.72374 6.26099 7.77354 6.27503 7.82205C6.2929 7.87312 6.32355 7.91525 6.34397 7.95994C6.37206 8.01867 6.37972 8.07867 6.40143 8.13996C6.42696 8.21145 6.46143 8.26763 6.48824 8.34295C6.50229 8.37743 6.51378 8.417 6.53165 8.45148C6.54314 8.47829 6.56612 8.50254 6.57889 8.52936C6.59932 8.57276 6.60443 8.62894 6.62485 8.67363C6.64656 8.71831 6.68358 8.75406 6.70912 8.79492C6.73337 8.83449 6.73593 8.88301 6.75508 8.92769C6.78572 8.99536 6.82658 9.05792 6.85594 9.12942C6.86743 9.16006 6.87381 9.18687 6.88786 9.21623C6.9019 9.24943 6.92744 9.28135 6.94276 9.31454C6.94276 9.31454 6.94403 9.31582 6.94531 9.31965C6.94659 9.32348 6.94914 9.32986 6.95042 9.33752C6.95553 9.35157 6.95808 9.36944 6.96319 9.38221C6.96957 9.40136 6.99127 9.43711 7.00021 9.4486C7.00659 9.45626 7.02191 9.47286 7.03468 9.48945C7.03979 9.49584 7.04617 9.50222 7.05128 9.51116C7.08064 9.55712 7.08447 9.62351 7.10873 9.67458C7.13299 9.72437 7.17512 9.76395 7.19938 9.81629C7.21853 9.85587 7.22874 9.9529 7.20449 9.95673C7.10362 9.95673 7.09596 9.81502 7.06277 9.74097C7.03596 9.68352 6.99383 9.635 6.96446 9.5801C6.95808 9.56861 6.94786 9.54691 6.94148 9.52392C6.9351 9.50477 6.92744 9.48435 6.9185 9.46775C6.90573 9.43966 6.90573 9.44477 6.8968 9.42562C6.88786 9.40647 6.85977 9.37072 6.85083 9.35412V9.35157C6.80998 9.28773 6.78444 9.19964 6.75636 9.15751C6.73976 9.13452 6.72188 9.11027 6.70656 9.08729C6.68103 9.04771 6.66826 8.99919 6.64783 8.95578C6.62868 8.91493 6.59804 8.87535 6.57889 8.83322C6.55719 8.78342 6.55591 8.71959 6.53165 8.6698C6.52016 8.64171 6.49718 8.6149 6.48441 8.58936C6.45633 8.53063 6.43973 8.46935 6.41036 8.4119C6.3976 8.38509 6.37334 8.35955 6.36057 8.33146C6.33759 8.28422 6.3261 8.23188 6.30057 8.18719C6.24694 8.09272 6.19077 7.98547 6.14608 7.88461C6.12055 7.82588 6.11161 7.76587 6.08608 7.70842C6.06309 7.65863 6.03245 7.60884 6.00947 7.56032C5.99415 7.5284 5.9916 7.49649 5.97755 7.46074C5.95713 7.40456 5.93159 7.34711 5.91116 7.29093C5.8984 7.25263 5.88818 7.16709 5.87669 7.1339C5.86137 7.09176 5.83967 7.0458 5.82052 7.00495C5.79371 6.94239 5.78477 6.87727 5.75668 6.81599C5.73625 6.76875 5.71199 6.71768 5.69412 6.66789C5.6788 6.62704 5.67497 6.58873 5.65837 6.54916C5.64561 6.51979 5.62773 6.4866 5.61624 6.45596C5.60347 6.42021 5.59454 6.3602 5.58305 6.31169C5.56517 6.25806 5.54219 6.20699 5.52559 6.15465C5.51538 6.11635 5.51538 6.0257 5.50517 6.00016C5.45027 5.83674 5.39792 5.66311 5.34557 5.49969C5.32259 5.42436 5.3111 5.34903 5.29068 5.27498C5.28302 5.24562 5.28174 5.20859 5.27408 5.17923C5.26003 5.13199 5.23961 5.08348 5.22429 5.03496C5.21663 5.00304 5.21152 4.96857 5.20514 4.93538C5.19747 4.90218 5.1796 4.86643 5.16683 4.83324C5.13491 4.73493 5.11832 4.63024 5.08895 4.53448C5.07874 4.49491 5.07874 4.44256 5.06853 4.40681C5.0315 4.28808 5.02256 4.14891 4.98682 4.02507C4.97915 3.98805 4.97277 3.9523 4.96511 3.9191C4.90383 3.68546 4.87702 3.42373 4.80935 3.20031C4.79531 3.15817 4.8119 3.10328 4.80041 3.05604C4.78637 3.00369 4.77105 2.95773 4.757 2.91177C4.75062 2.88751 4.75062 2.86963 4.74551 2.84793C4.73402 2.80963 4.71743 2.78026 4.69572 2.78409C4.67146 2.79175 4.67657 2.81474 4.67785 2.84665C4.6804 2.899 4.68423 2.94241 4.69572 2.98454C4.70466 3.02029 4.69828 3.04965 4.70849 3.08157C4.73019 3.15434 4.73658 3.25648 4.74934 3.3216C4.75317 3.34841 4.75062 3.38543 4.75573 3.41735C4.76211 3.45054 4.78765 3.49395 4.79531 3.5297C4.80169 3.57822 4.80169 3.64205 4.80935 3.69312C4.81829 3.73781 4.83105 3.77994 4.84255 3.82207C4.85276 3.85782 4.8451 3.89101 4.85659 3.92421C4.8668 3.95868 4.88468 3.99188 4.89234 4.03018C4.89744 4.07103 4.89234 4.13232 4.9 4.16806C4.95234 4.37234 4.96766 4.61619 5.02767 4.81281C5.03533 4.8409 5.03661 4.87026 5.04427 4.89963C5.09534 5.07071 5.13236 5.25456 5.18343 5.42564C5.18981 5.45245 5.18854 5.47926 5.1962 5.50863C5.2128 5.56863 5.22812 5.63374 5.24088 5.69503C5.24727 5.72184 5.24599 5.74737 5.25493 5.77418C5.27152 5.83802 5.29323 5.8993 5.31366 5.96059C5.32132 5.99123 5.32515 6.02059 5.33025 6.04996C5.33536 6.07421 5.34813 6.10103 5.35579 6.12401C5.366 6.15976 5.36217 6.19423 5.37494 6.22742C5.38132 6.24657 5.39664 6.26828 5.40175 6.2887C5.40941 6.32445 5.41452 6.36148 5.42473 6.39723C5.43878 6.44063 5.46303 6.48277 5.48091 6.52618C5.49367 6.56192 5.49368 6.59767 5.50644 6.63214C5.53198 6.69215 5.55751 6.76365 5.58049 6.82748C5.60092 6.87983 5.60347 6.93345 5.62135 6.98835C5.63411 7.02282 5.65071 7.05985 5.66348 7.09432C5.67114 7.12113 5.67625 7.14922 5.68646 7.1773C5.69412 7.20284 5.72221 7.24369 5.74136 7.27689C5.75668 7.31391 5.74902 7.36498 5.76179 7.40456C5.77328 7.44669 5.79626 7.47989 5.8103 7.51691C5.82307 7.55522 5.82307 7.59607 5.83328 7.63565C5.84477 7.66629 5.8652 7.69565 5.87797 7.72247C5.88818 7.75566 5.90095 7.78886 5.91372 7.82205C5.92265 7.84375 5.94181 7.86546 5.95074 7.88716C5.96989 7.92547 5.98394 7.96632 5.99926 8.0059C6.02224 8.06208 6.02479 8.13102 6.04139 8.19485C6.0465 8.21273 6.04522 8.25741 6.03501 8.26252C6.0082 8.26635 5.98011 8.22677 5.96223 8.20124C5.93159 8.15783 5.90223 8.11059 5.88052 8.05952C5.87286 8.03909 5.86776 8.02122 5.86137 8.00079C5.84477 7.95866 5.83201 7.91014 5.81286 7.86674C5.80137 7.83992 5.78221 7.81184 5.77455 7.78247C5.76051 7.74162 5.76689 7.69438 5.7503 7.65863C5.73753 7.62799 5.71327 7.60501 5.69923 7.57437C5.68901 7.54755 5.68518 7.51819 5.67242 7.49138C5.65837 7.45818 5.63794 7.42882 5.62007 7.39818C5.60603 7.36754 5.60858 7.3369 5.59709 7.30115C5.5856 7.25902 5.57411 7.21816 5.55496 7.17986C5.53708 7.14028 5.5141 7.1007 5.49623 7.05985C5.48857 7.03814 5.48474 7.01516 5.47835 6.99346C5.46686 6.96281 5.45154 6.92962 5.43878 6.90026C5.43239 6.87727 5.42729 6.85429 5.41835 6.83259C5.40303 6.79939 5.38643 6.76237 5.37239 6.72662C5.36217 6.69726 5.3609 6.66534 5.35068 6.63725C5.33153 6.5849 5.31366 6.52745 5.29706 6.47638C5.28557 6.4368 5.28174 6.39723 5.27025 6.35765C5.25493 6.31169 5.2345 6.26572 5.2179 6.21976C5.20514 6.18146 5.20131 6.14188 5.19109 6.10486C5.17322 6.05506 5.14896 6.0091 5.13236 5.95676C5.12215 5.91462 5.11959 5.87377 5.11066 5.83419C5.08257 5.73844 5.05193 5.63119 5.02129 5.53288C4.98426 5.42181 4.98298 5.29797 4.95107 5.18689C4.92809 5.10646 4.9 5.02985 4.87574 4.95197C4.8668 4.91112 4.86553 4.87409 4.85531 4.83324C4.83361 4.74514 4.80041 4.63024 4.77105 4.53831C4.757 4.4898 4.76083 4.44001 4.74679 4.38766C4.73275 4.33531 4.73275 4.27276 4.71615 4.21786C4.70466 4.18338 4.69189 4.15913 4.68295 4.11444C4.67529 4.07103 4.67529 4.01996 4.66891 3.98677C4.66253 3.95485 4.60635 3.75951 4.59997 3.72376C4.59231 3.68802 4.59358 3.62163 4.58848 3.59864C4.58592 3.58332 4.55656 3.49906 4.55273 3.47736C4.5489 3.45565 4.5489 3.43012 4.53996 3.38671C4.53102 3.34458 4.50549 3.24755 4.50166 3.22073C4.49783 3.19265 4.49783 3.13647 4.49145 3.10838C4.48634 3.08029 4.46719 3.01646 4.45314 2.9705C4.44038 2.9156 4.45059 2.85559 4.43655 2.80325C4.42506 2.76494 4.41101 2.72664 4.39697 2.68962C4.38803 2.6577 4.37782 2.61429 4.37526 2.59514C4.37271 2.56577 4.37143 2.50449 4.37016 2.48151C4.36888 2.44959 4.35484 2.39725 4.35228 2.35128C4.34845 2.29 4.33441 2.22234 4.32547 2.18403C4.31909 2.16233 4.32164 2.13552 4.31653 2.11381C4.30121 2.05253 4.28589 1.99636 4.25398 2.00019C4.23227 2.00402 4.22461 2.02189 4.23355 2.06274C4.24504 2.10998 4.25014 2.14701 4.26164 2.19425C4.26802 2.21978 4.2693 2.28234 4.2693 2.30277C4.27185 2.33596 4.27313 2.34362 4.27696 2.37554C4.27951 2.38959 4.28462 2.42023 4.28845 2.43299C4.29228 2.45598 4.30121 2.48662 4.29994 2.50194C4.29866 2.52364 4.29866 2.54662 4.29866 2.57854C4.29866 2.59386 4.29994 2.59897 4.30632 2.62706C4.3127 2.65387 4.31526 2.65898 4.31781 2.68196C4.31909 2.70238 4.31653 2.72026 4.31781 2.73813C4.31909 2.75856 4.32036 2.78026 4.32675 2.79941C4.33952 2.84027 4.36633 2.89645 4.35484 2.95645C4.34335 3.02029 4.3625 3.08029 4.37782 3.13647C4.3842 3.17222 4.37654 3.2118 4.3842 3.24499C4.39697 3.29223 4.40846 3.3433 4.42123 3.39309C4.43144 3.43267 4.42506 3.4697 4.43527 3.508C4.45059 3.56162 4.48634 3.63439 4.49145 3.65865C4.49528 3.68291 4.49528 3.74802 4.50294 3.79015C4.50932 3.83229 4.51953 3.87952 4.52209 3.90506C4.52592 3.93187 4.52081 3.94336 4.52464 3.96379C4.52719 3.98294 4.55401 4.07742 4.55784 4.10167C4.56294 4.12593 4.56167 4.1387 4.56677 4.16423C4.57188 4.18977 4.59231 4.28935 4.59741 4.32255C4.60252 4.35447 4.60124 4.37362 4.60635 4.40681C4.61656 4.4566 4.63699 4.49874 4.64721 4.54725C4.65359 4.583 4.65231 4.6047 4.65614 4.63407C4.66508 4.67875 4.68168 4.71961 4.68934 4.76174C4.69572 4.79494 4.697 4.82813 4.70338 4.86133C4.7187 4.9341 4.72892 5.00687 4.74807 5.07965C4.76083 5.12178 4.78637 5.16136 4.79786 5.20093C4.80935 5.23924 4.8119 5.28009 4.82084 5.31712C4.83105 5.34903 4.85404 5.3784 4.86297 5.41287C4.86808 5.44224 4.8668 5.47288 4.87191 5.50224C4.88085 5.53671 4.89489 5.57118 4.90127 5.60566C4.90638 5.63247 4.9051 5.658 4.91149 5.68609C4.92043 5.71545 4.93575 5.74227 4.94341 5.77291C4.94979 5.80993 4.94979 5.84696 4.95873 5.88398C4.97022 5.92739 4.98809 5.96952 5.00214 6.0091C5.01363 6.0474 5.00724 6.08698 5.01873 6.12784C5.04299 6.21593 5.07236 6.31296 5.10172 6.39467C5.11449 6.43936 5.11193 6.48404 5.12853 6.53256C5.14002 6.56448 5.15407 6.58618 5.16683 6.61299C5.17705 6.64108 5.16811 6.673 5.17705 6.70619C5.19109 6.75854 5.20003 6.83004 5.2179 6.88238C5.23833 6.94111 5.2728 6.98835 5.29323 7.0458C5.31493 7.10708 5.31621 7.16581 5.33536 7.22837C5.35451 7.282 5.38132 7.33051 5.40175 7.3803C5.41962 7.42244 5.41452 7.47861 5.42984 7.52457C5.44771 7.57309 5.48218 7.61139 5.50134 7.66246C5.52304 7.71991 5.53708 7.77737 5.55496 7.83482C5.56006 7.86035 5.56517 7.88461 5.57028 7.90887C5.59198 7.98419 5.63156 8.04675 5.65837 8.11825C5.66859 8.15145 5.67114 8.18081 5.68008 8.21145C5.69923 8.26252 5.71966 8.31614 5.74391 8.36594C5.76306 8.40934 5.79243 8.45275 5.81158 8.49744C5.83073 8.53829 5.83456 8.58043 5.85116 8.62256C5.86776 8.66341 5.88691 8.7081 5.9035 8.75023C5.91372 8.77704 5.91499 8.80002 5.92521 8.82428C5.97628 8.93919 6.03884 9.05409 6.09118 9.16516C6.11927 9.22645 6.13331 9.29284 6.1614 9.3554C6.18438 9.40391 6.21247 9.44988 6.23418 9.50222C6.24822 9.53542 6.25205 9.56733 6.26609 9.59925C6.29418 9.66053 6.33376 9.72182 6.36185 9.78182C6.36823 9.79714 6.39121 9.86226 6.38228 9.88779C6.381 9.89035 6.37972 9.89545 6.37589 9.89801C6.35674 9.90311 6.31844 9.86992 6.29801 9.84949C6.22524 9.77799 6.21375 9.64266 6.16268 9.55074C6.14736 9.52393 6.13076 9.49456 6.11672 9.46647C6.11033 9.44732 6.10523 9.42817 6.09629 9.40902C6.06437 9.34901 6.02607 9.29539 5.99798 9.23155C5.97755 9.18559 5.975 9.13452 5.95457 9.09111C5.87159 8.91237 5.77583 8.74002 5.6954 8.56C5.65965 8.47829 5.65071 8.38636 5.61879 8.29699C5.59964 8.24465 5.56772 8.20124 5.5473 8.15272C5.52942 8.11442 5.52432 8.07357 5.50772 8.03399C5.48474 7.98292 5.45154 7.9344 5.43112 7.8795C5.41962 7.84375 5.41452 7.80673 5.40047 7.77098C5.38515 7.73268 5.35962 7.69949 5.34047 7.66118C5.31621 7.60501 5.31238 7.54883 5.29323 7.485C5.28302 7.45052 5.26897 7.4135 5.25748 7.38158C5.24854 7.35222 5.24471 7.32157 5.23578 7.29221C5.21024 7.22454 5.17066 7.16581 5.14385 7.09687C5.12853 7.04963 5.13109 6.9909 5.11066 6.94494C5.09534 6.90792 5.0647 6.87727 5.04937 6.83897C5.03405 6.79812 5.04937 6.7496 5.03533 6.70109C5.02384 6.65512 5.00469 6.61299 4.98937 6.56958C4.98043 6.54277 4.97788 6.51596 4.97022 6.48915C4.95107 6.43425 4.92936 6.37808 4.91021 6.32318C4.9 6.29381 4.9 6.26828 4.88851 6.24274C4.87319 6.20955 4.84893 6.17891 4.83744 6.14316C4.82339 6.08826 4.81829 6.03208 4.80552 5.97974C4.78382 5.90824 4.75828 5.85079 4.73658 5.78312C4.73147 5.76142 4.73147 5.74099 4.72636 5.71673C4.70977 5.65545 4.70083 5.58778 4.68423 5.5265C4.67785 5.49713 4.67912 5.47288 4.67146 5.44351C4.65487 5.38606 4.63572 5.32861 4.61784 5.27371C4.6089 5.23796 4.60635 5.20221 4.59869 5.16774C4.5706 5.07837 4.54507 4.9724 4.51826 4.88558C4.5106 4.86005 4.51315 4.83707 4.50549 4.80898C4.48379 4.74004 4.45697 4.65705 4.44038 4.58683C4.43272 4.54597 4.43272 4.5064 4.42378 4.46809C4.41357 4.42086 4.39569 4.37489 4.38675 4.32765C4.38292 4.30467 4.38675 4.28808 4.3842 4.2702C4.38037 4.23828 4.37782 4.20764 4.37143 4.177C4.34079 4.05316 4.291 3.89995 4.26547 3.77611C4.25653 3.73142 4.25525 3.68546 4.25014 3.64078C4.24631 3.61014 4.24376 3.57439 4.23482 3.54119C4.22461 3.50927 4.21057 3.47608 4.20546 3.44161C4.1978 3.38798 4.1978 3.33692 4.19014 3.28457C4.19014 3.28074 4.19014 3.27691 4.18631 3.27308C4.17609 3.20924 4.14545 3.07902 4.13779 3.02795C4.12886 2.96667 4.1212 2.90411 4.11354 2.84282C4.11226 2.80324 4.10587 2.76239 4.10077 2.72026C4.09183 2.65642 4.07651 2.59897 4.06885 2.53386C4.06374 2.48917 4.0663 2.44959 4.06119 2.41257C4.05864 2.38831 4.05736 2.34873 4.02672 2.34873C3.99863 2.34873 4.00246 2.38193 4.00118 2.41001C3.99608 2.4764 4.00884 2.56322 4.01395 2.60408C4.02289 2.68068 4.0165 2.75473 4.02544 2.83389C4.02927 2.87602 4.04332 2.9207 4.04842 2.96156C4.05864 3.03433 4.0663 3.10966 4.07523 3.17988C4.07523 3.17988 4.07523 3.18243 4.07651 3.18371C4.07906 3.2169 4.08289 3.24882 4.088 3.28074C4.08928 3.28329 4.08928 3.28712 4.09055 3.28968C4.09055 3.29095 4.09055 3.29223 4.09183 3.29351V3.29861L4.09311 3.29989C4.09566 3.31394 4.09821 3.32798 4.10332 3.34202C4.11098 3.37011 4.10715 3.39309 4.11481 3.42246C4.13779 3.50672 4.13141 3.59992 4.15567 3.68163C4.19014 3.80547 4.20801 3.94081 4.24248 4.06337C4.2527 4.09912 4.24376 4.13487 4.2527 4.17189C4.26291 4.21147 4.27313 4.24977 4.28206 4.28808C4.291 4.33404 4.28462 4.38128 4.29738 4.42852C4.3076 4.47192 4.32164 4.51661 4.33441 4.55747C4.34462 4.60726 4.3459 4.6596 4.36122 4.7145C4.37782 4.7694 4.39569 4.82941 4.40591 4.88431C4.4174 4.94814 4.42378 5.02092 4.43527 5.08603C4.44548 5.1422 4.47613 5.20859 4.48889 5.2686C4.49272 5.28903 4.49145 5.30946 4.494 5.32988C4.50294 5.37329 4.5157 5.4167 4.52464 5.45883C4.52975 5.47798 4.52847 5.49458 4.53358 5.51629C4.55401 5.59544 4.57954 5.6963 4.6038 5.77546C4.61018 5.79717 4.61273 5.82015 4.61784 5.84313C4.63444 5.8993 4.65104 5.94144 4.65742 5.97208C4.66253 5.99889 4.66508 6.02953 4.67402 6.05889C4.68423 6.1023 4.69828 6.13933 4.70594 6.17763C4.7136 6.20699 4.71743 6.23381 4.72509 6.26317C4.7353 6.29892 4.75062 6.33211 4.76466 6.36658C4.78892 6.43808 4.79148 6.51468 4.81701 6.5849C4.83233 6.62576 4.85276 6.66534 4.86553 6.71002C4.87702 6.75088 4.88085 6.79939 4.89234 6.84408C4.9166 6.9143 4.94341 6.99218 4.96766 7.0624C4.99831 7.14539 5.01618 7.23603 5.04427 7.31264C5.05576 7.34456 5.0532 7.3752 5.06342 7.40967C5.0864 7.48755 5.11321 7.57437 5.13875 7.65352C5.15279 7.69565 5.15279 7.73523 5.16939 7.77481C5.19492 7.8412 5.2345 7.89738 5.25876 7.96504C5.27918 8.0225 5.28429 8.08123 5.306 8.13485C5.33536 8.20635 5.36983 8.28039 5.39664 8.35572C5.41579 8.40807 5.42218 8.46041 5.44388 8.51021C5.46303 8.55361 5.48729 8.59702 5.50644 8.63915C5.51921 8.67618 5.53198 8.7132 5.54474 8.75151C5.55623 8.77959 5.5856 8.82811 5.6073 8.86641C5.63028 8.91876 5.63411 8.97493 5.65454 9.03111C5.68518 9.11537 5.72604 9.20219 5.76179 9.28135C5.77583 9.31199 5.77838 9.34135 5.79115 9.37455C5.81158 9.43072 5.84988 9.47286 5.87286 9.5252C5.89584 9.57499 5.90095 9.62734 5.92265 9.67586C5.95585 9.74735 5.98011 9.7831 5.98011 9.88524C5.97883 9.89417 5.97628 9.90056 5.96606 9.90439C5.94819 9.91205 5.92648 9.88013 5.91372 9.86864C5.8601 9.81502 5.85116 9.76395 5.81796 9.69118C5.76562 9.5801 5.7005 9.47541 5.64944 9.36689C5.62262 9.31071 5.61241 9.24943 5.5856 9.1907C5.57028 9.15495 5.5473 9.1192 5.5307 9.08346C5.50644 9.03366 5.49495 8.98004 5.46814 8.9328C5.43112 8.86641 5.40047 8.78726 5.37111 8.71193C5.3609 8.68256 5.35962 8.65575 5.34557 8.62766C5.33281 8.59958 5.3111 8.57276 5.29834 8.54468C5.27918 8.49744 5.26642 8.44126 5.24727 8.39402C5.20641 8.30338 5.16045 8.2089 5.12598 8.11442C5.09534 8.0276 5.07874 7.94334 5.04682 7.85397C5.03405 7.81822 5.01618 7.77864 5.00469 7.74162C4.9932 7.70842 4.9932 7.68033 4.98171 7.64842C4.95234 7.56926 4.91404 7.485 4.88212 7.40839C4.86425 7.37009 4.85914 7.33307 4.8451 7.29221C4.82722 7.24369 4.80552 7.19007 4.78765 7.14156C4.76467 7.07772 4.76339 7.00367 4.73913 6.936C4.68678 6.79173 4.6204 6.64236 4.57699 6.49043C4.56805 6.45596 4.5706 6.41893 4.56167 6.38446C4.53613 6.30786 4.5106 6.22359 4.48762 6.14316C4.46208 6.05379 4.46463 5.95803 4.43655 5.87121C4.40207 5.75759 4.36122 5.63885 4.32547 5.52778C4.31526 5.4933 4.31909 5.45883 4.30887 5.42181C4.28462 5.33499 4.25525 5.23285 4.22589 5.15242C4.21184 5.11156 4.21184 5.06816 4.19652 5.02985C4.17865 4.98389 4.13141 5.00177 4.13396 5.05283C4.13907 5.0988 4.15439 5.16008 4.1595 5.18434C4.1646 5.21626 4.1646 5.24945 4.17226 5.28264C4.18631 5.34393 4.20674 5.39372 4.22333 5.4499C4.24248 5.50735 4.24248 5.56097 4.25781 5.6197C4.26674 5.64907 4.27823 5.68226 4.28717 5.71035C4.30504 5.76908 4.30504 5.83164 4.32419 5.88654C4.34079 5.92739 4.35101 5.97846 4.36505 6.02442C4.37399 6.05379 4.37143 6.07804 4.38165 6.10741C4.39697 6.16103 4.41484 6.21465 4.43144 6.26828C4.4391 6.29892 4.43655 6.32573 4.44293 6.35382C4.45314 6.39595 4.46463 6.44063 4.4774 6.47894C4.48762 6.51724 4.48634 6.57086 4.50038 6.61044C4.52336 6.68449 4.55018 6.76237 4.57571 6.83259C4.6038 6.90919 4.60635 6.9909 4.63444 7.07006C4.68423 7.20922 4.73147 7.36881 4.78126 7.50925C4.79531 7.545 4.7902 7.58203 4.80169 7.6216C4.81829 7.68289 4.83105 7.74162 4.85276 7.80162C4.86297 7.82971 4.88212 7.85908 4.89361 7.88461C4.91021 7.91908 4.91404 7.95611 4.92936 7.99058C4.94213 8.01867 4.96 8.04803 4.97149 8.0774C4.98682 8.12208 4.98171 8.17698 4.99831 8.21911C5.01235 8.25231 5.0315 8.28933 5.04299 8.32508C5.05703 8.36338 5.05704 8.40424 5.07363 8.43999C5.08768 8.4719 5.10938 8.50255 5.1247 8.53319C5.13875 8.56383 5.1413 8.59319 5.15279 8.62639C5.16556 8.66086 5.18471 8.69533 5.20003 8.72597C5.21407 8.76172 5.21535 8.80258 5.23195 8.83832C5.24471 8.87024 5.26642 8.90088 5.27919 8.93536C5.29195 8.9711 5.29323 9.0094 5.30344 9.04771C5.3277 9.10133 5.3609 9.14984 5.38388 9.20091C5.40175 9.24049 5.40303 9.2839 5.4209 9.32348C5.44005 9.36944 5.46942 9.41413 5.48984 9.45881C5.51921 9.51754 5.53708 9.58138 5.56262 9.63883C5.60858 9.73969 5.62262 9.85077 5.66986 9.95035C5.70433 10.0231 5.7503 10.0933 5.78221 10.1648C5.80137 10.2057 5.80647 10.2478 5.82562 10.2874C5.84733 10.3308 5.88308 10.3678 5.9035 10.4125C5.91882 10.4559 5.93159 10.5019 5.95074 10.544C5.97628 10.6002 6.0133 10.65 6.03884 10.7049C6.05288 10.7355 6.05926 10.7675 6.07458 10.7981C6.1014 10.8581 6.14736 10.9092 6.17545 10.9692C6.19077 11.0075 6.20481 11.0471 6.21885 11.0879C6.24822 11.1505 6.29673 11.2054 6.32738 11.2705C6.35036 11.3177 6.36568 11.3688 6.39377 11.4122C6.43717 11.4799 6.46526 11.5258 6.50739 11.5935C6.53548 11.6382 6.57123 11.7046 6.59421 11.7531C6.61592 11.8003 6.65294 11.8412 6.67465 11.8884C6.69763 11.9344 6.72571 11.9842 6.75125 12.0276C6.77934 12.0787 6.80743 12.1144 6.83807 12.1616C6.88914 12.2382 6.92105 12.32 6.97085 12.3966C7.00404 12.4502 7.0449 12.5051 7.0832 12.5574C7.18406 12.6953 7.32961 12.9443 7.39089 13.0285C7.44196 13.0949 7.48537 13.1754 7.5326 13.2469C7.56835 13.3018 7.61431 13.3554 7.65389 13.4064C7.68581 13.4499 7.71262 13.4945 7.74454 13.5392L7.7688 13.5724C9.06467 15.2194 10.395 16.3084 11.5224 17.0234C12.1173 17.3949 12.4365 17.5035 12.4365 17.5035C12.5118 17.5354 12.4595 17.5903 12.4212 17.6133L5.73881 21.8877C5.7171 21.9005 5.66603 21.9388 5.68646 21.9809C5.70306 22.0141 5.77072 21.995 5.7886 21.9899C11.1521 20.1067 15.0436 18.5593 17.4234 17.4294C19.8351 16.2855 20.6458 15.6305 20.5578 15.3049ZM6.29035 8.98515C6.27758 8.95961 6.26099 8.93025 6.25205 8.90344C6.24056 8.87407 6.23928 8.84598 6.22652 8.8179C6.18438 8.72342 6.13714 8.62 6.09501 8.52808C6.07714 8.48978 6.05288 8.417 6.06948 8.36721C6.07203 8.36083 6.08735 8.36594 6.09246 8.37232C6.1065 8.38509 6.11672 8.39275 6.12948 8.40679C6.13842 8.41956 6.14097 8.43488 6.14991 8.44892C6.17034 8.48084 6.19715 8.51276 6.21375 8.54851C6.2495 8.62383 6.25843 8.70937 6.2929 8.78342C6.31716 8.83194 6.35419 8.87407 6.37717 8.92386C6.38994 8.95068 6.3976 8.97876 6.40653 9.00813C6.41164 9.02856 6.41036 9.05792 6.41164 9.07452C6.41292 9.10005 6.41036 9.11665 6.40015 9.11665C6.33376 9.11282 6.31716 9.03239 6.29035 8.98515ZM6.56868 11.0317C6.5674 11.0381 6.56102 11.0471 6.5508 11.0483C6.47931 11.0458 6.4576 10.9385 6.42568 10.89C6.40015 10.8504 6.37845 10.8058 6.35163 10.7649C6.33248 10.7368 6.3095 10.7074 6.2929 10.6743C6.27503 10.6334 6.26609 10.59 6.24184 10.553C6.22907 10.5338 6.20736 10.5159 6.1946 10.4981C6.15757 10.4457 6.12055 10.3908 6.09501 10.3244C6.08991 10.3015 6.08352 10.2772 6.07714 10.2542C6.06309 10.2134 6.04522 10.1712 6.03118 10.1291C6.02479 10.1074 6.02096 10.064 6.02479 10.0487C6.02735 10.0423 6.0299 10.0384 6.03501 10.0384C6.08991 10.0474 6.14225 10.1802 6.16906 10.2287C6.19843 10.281 6.24567 10.3232 6.2712 10.3768C6.29418 10.4253 6.30184 10.4866 6.32738 10.5338C6.3478 10.5708 6.38228 10.6002 6.40398 10.6347C6.43462 10.6794 6.45377 10.7381 6.47675 10.7879C6.50356 10.8441 6.54059 10.8875 6.56229 10.9424C6.57123 10.9666 6.57634 11.0062 6.56868 11.0317ZM8.07011 10.7279C8.03691 10.724 8.02287 10.7036 8.00116 10.6883C7.94499 10.6474 7.9003 10.5811 7.89775 10.4853C7.89775 10.4751 7.90158 10.4725 7.90158 10.4725C7.97307 10.4725 8.04074 10.5747 8.06628 10.6219C8.07394 10.636 8.09053 10.6743 8.08798 10.7011C8.0867 10.7189 8.08032 10.7266 8.07011 10.7279ZM8.52207 10.7445C8.47738 10.7611 8.36758 10.6372 8.33566 10.5913C8.28077 10.507 8.22587 10.4125 8.16586 10.3308C8.11096 10.2568 8.04968 10.2044 8.03563 10.0755C8.03308 10.0601 8.02542 10.0218 8.02542 10.0218C8.09436 10.0282 8.15182 10.1329 8.18246 10.1738C8.20416 10.2031 8.2297 10.2325 8.24885 10.2644C8.27821 10.3091 8.29098 10.364 8.32162 10.4061C8.35864 10.4572 8.40588 10.5057 8.44674 10.5568C8.46717 10.5849 8.49526 10.6091 8.5093 10.6474C8.51568 10.6666 8.53483 10.7381 8.52207 10.7445ZM10.0988 11.619C10.0337 11.628 9.96094 11.5335 9.92902 11.4888C9.92008 11.476 9.88433 11.4007 9.89327 11.3892C9.90731 11.3777 9.98136 11.4033 10.0018 11.4186C10.0503 11.4582 10.0899 11.5118 10.1116 11.6037C10.1141 11.6139 10.1039 11.619 10.0988 11.619Z" fill="#006659"/>
</svg>
