<svg width="24" height="24" viewBox="0 0 24 24" fill="none" xmlns="http://www.w3.org/2000/svg">
<path fill-rule="evenodd" clip-rule="evenodd" d="M4.12492 16.4L12 12.5032L19.876 16.4H4.12492ZM21.3758 15.344C21.3013 15.2952 13.2585 11.32 13.1772 11.28C14.1875 10.7304 14.9641 9.544 14.9641 8.8C14.9641 7.256 13.6345 6 12 6C10.3656 6 9.03597 7.256 9.03597 8.8C9.03597 9.2424 9.41537 9.6 9.88285 9.6C10.3512 9.6 10.7297 9.2424 10.7297 8.8C10.7297 8.1384 11.2997 7.6 12 7.6C12.7004 7.6 13.2704 8.1384 13.2729 8.7648C13.2356 8.9776 12.7766 9.732 12.2329 9.9496C11.7214 10.1544 11.3886 10.6088 11.2412 11.0728L2.71487 15.2912C2.17371 15.56 1.84089 16.2384 2.07717 16.9496C2.2855 17.5784 2.86985 18 3.53126 18H20.4688C21.1294 18 21.7129 17.5784 21.9229 16.9496C22.1287 16.328 21.9144 15.6968 21.3758 15.344Z" fill="#323232"/>
</svg>
