<svg width="48" height="48" viewBox="0 0 48 48" fill="none" xmlns="http://www.w3.org/2000/svg">
<path d="M41.1103 25.52C41.1403 25.72 41.3203 25.87 41.5203 25.87C41.7203 25.87 41.9003 25.73 41.9303 25.53C42.0703 24.79 42.1403 23.97 42.1403 23.09C42.1403 19.21 40.7903 15.64 38.5303 12.77L36.3203 14.98C40.1203 19.98 41.0903 25.47 41.1003 25.53L41.1103 25.52Z" fill="#8DE2E0"/>
<path d="M8.38 39.41C8.11 39.41 7.84 39.3 7.64 39.09C3.84 34.97 1.75 29.61 1.75 24.01C1.75 11.73 11.73 1.75 24 1.75C29.76 1.75 35.22 3.94 39.38 7.92C39.78 8.3 39.79 8.94 39.41 9.33C39.03 9.73 38.39 9.74 38 9.36C34.21 5.74 29.24 3.74 24 3.74C12.83 3.75 3.75 12.83 3.75 24C3.75 29.1 5.65 33.98 9.11 37.73C9.48 38.14 9.46 38.77 9.05 39.14C8.86 39.32 8.61 39.41 8.37 39.41H8.38Z" fill="#323232"/>
<path d="M24.2692 6.75994C24.3292 6.77994 29.5792 8.48994 33.7492 12.1799L35.8792 10.0499C32.7792 7.49994 28.7792 5.93994 24.3992 5.93994C24.1892 5.93994 24.0192 6.08994 23.9792 6.28994C23.9492 6.48994 24.0692 6.68994 24.2692 6.74994V6.75994Z" fill="#8DE2E0"/>
<path d="M21.3509 24.5701L24.0409 21.8801L23.5009 21.6701C22.4809 21.2801 21.9609 20.5601 21.9609 19.5101C21.9609 18.8501 22.1809 18.3301 22.5909 17.9301C23.0109 17.5301 23.5909 17.3401 24.3409 17.3401C25.0909 17.3401 25.7009 17.5701 26.1609 18.0401C26.4609 18.3501 26.6509 18.7301 26.7509 19.1701L29.3809 16.5401C29.3109 16.4501 29.2609 16.3401 29.1809 16.2501C28.3109 15.2501 27.1509 14.6201 25.6809 14.4001V11.3701H22.9809V14.4001C21.5609 14.6501 20.4409 15.2801 19.6109 16.2701C18.7909 17.2601 18.3809 18.4201 18.3809 19.7701C18.3809 21.8401 19.3809 23.4301 21.3609 24.5601L21.3509 24.5701Z" fill="#DF0000"/>
<path d="M29.2901 24.5499C28.7701 24.0999 28.2801 23.7599 27.8201 23.4899C27.7801 23.4699 27.7501 23.4499 27.7101 23.4399L25.0301 26.1199L25.4201 26.2799C26.6401 26.7999 27.2501 27.6399 27.2501 28.8099C27.2501 29.5399 27.0001 30.1499 26.5001 30.5999C26.0101 31.0599 25.3201 31.2899 24.4301 31.2899C23.5401 31.2899 22.8401 31.0699 22.3501 30.6299C22.0001 30.3299 21.7801 29.9299 21.7001 29.4599L19.0801 32.0799C19.1501 32.1799 19.2401 32.2699 19.3201 32.3699C20.2201 33.3499 21.4401 33.9599 22.9801 34.2099V37.2699H25.6801V34.2699C27.2701 34.0499 28.5201 33.4299 29.4601 32.3799C30.4001 31.3299 30.8701 30.0199 30.8701 28.4299C30.8701 27.5899 30.7401 26.8299 30.4701 26.1799C30.2101 25.5299 29.8201 24.9799 29.3001 24.5399L29.2901 24.5499Z" fill="#DF0000"/>
<path d="M41.7217 10.5502C41.3917 10.1102 40.7617 10.0202 40.3217 10.3602C39.8817 10.6902 39.7917 11.3202 40.1317 11.7602C42.8217 15.3002 44.2517 19.5402 44.2517 24.0002C44.2517 35.1702 35.1717 44.2502 24.0017 44.2502C19.5217 44.2502 15.2717 42.8202 11.7217 40.1102C11.2817 39.7702 10.6517 39.8602 10.3217 40.3002C9.99173 40.7402 10.0717 41.3702 10.5117 41.7002C14.4117 44.6802 19.0817 46.2502 24.0017 46.2502C36.2717 46.2502 46.2517 36.2702 46.2517 24.0002C46.2517 19.0902 44.6817 14.4402 41.7217 10.5502Z" fill="#323232"/>
<path d="M44.0609 3.27004C43.6709 2.88004 43.0409 2.88004 42.6509 3.27004L2.61086 43.31C2.22086 43.7 2.22086 44.33 2.61086 44.72C2.81086 44.92 3.06086 45.01 3.32086 45.01C3.58086 45.01 3.83086 44.91 4.03086 44.72L44.0609 4.69004C44.4509 4.30004 44.4509 3.67004 44.0609 3.28004V3.27004Z" fill="#323232"/>
</svg>
