<svg width="24" height="24" viewBox="0 0 24 24" fill="none" xmlns="http://www.w3.org/2000/svg">
<path fill-rule="evenodd" clip-rule="evenodd" d="M12.589 19.4203C12.589 19.4203 11.562 20.2524 9.99417 20.2647C9.87495 20.2654 9.73888 20.2658 9.59647 20.266L8.8803 20.266C8.83552 20.266 8.79199 20.2659 8.75008 20.2659L8.42748 20.2652C8.39887 20.2651 8.37305 20.2651 8.35042 20.265L8.24333 20.2647L8.24437 19.4203H12.589ZM8.24437 18.0003L13.8897 18.0022C13.81 18.1597 13.5116 18.5896 13.2799 18.8264H8.24333L8.24437 18.0003ZM13.6926 4.58327C15.3037 4.59295 17.1134 4.8483 18.1768 5.14379C18.5811 5.25733 18.8989 5.53075 19.0195 5.79037C19.0771 5.91385 19.1044 5.94946 19.1409 6.02998C19.1863 6.13488 19.0996 6.20159 18.9857 6.18198C18.4933 6.10262 17.3085 5.94766 15.9574 6.09372C15.85 6.10508 15.8574 6.24508 15.9521 6.26611C16.5845 6.44598 17.1464 6.83527 17.4093 7.09475C17.4423 7.13153 17.4771 7.13682 17.5018 7.1243C17.7919 6.98288 18.5837 6.47075 20.0126 6.50366C21.7699 6.58972 22.7254 8.02314 22.6946 9.28017C22.7027 9.37166 22.6414 9.58572 22.3733 9.45501C20.878 8.81153 18.2299 8.25914 15.6606 8.86572L15.584 8.88146C14.6775 9.07888 14.498 9.82559 14.498 10.2662L14.498 10.3286C14.498 10.3489 14.498 10.374 14.498 10.4035L14.497 12.2732C14.497 12.3571 14.4969 12.442 14.4969 12.5276L14.496 14.3125C14.4959 14.3913 14.4959 14.4685 14.4959 14.5437L14.4952 15.8599C14.4952 16.6671 14.1792 17.396 14.1792 17.396H5.47262V16.5719H13.0469C13.1866 16.5719 13.3093 16.42 13.3093 16.2797C13.3093 16.14 13.189 15.9675 13.0507 15.9675L12.8929 15.9692H5.47572V15.1386H13.0187C13.1729 15.1386 13.2884 14.9915 13.2934 14.8519C13.2982 14.6908 13.189 14.5437 13.0174 14.5389H2.70398V13.71H10.605C10.762 13.71 10.8933 13.5624 10.8946 13.4234C10.8955 13.2751 10.7895 13.1123 10.6086 13.1105L10.5849 13.1086H2.70398V12.2846H10.6242C10.7835 12.2851 10.8978 12.1406 10.8955 11.9791C10.8946 11.8395 10.7739 11.6788 10.6184 11.6788L10.5931 11.6778H2.70579L3.61998 10.8537H8.19198L8.21598 10.8511C8.37172 10.8511 8.48488 10.6875 8.48604 10.5548C8.4885 10.4083 8.36953 10.2523 8.21598 10.2504L8.19391 10.2523H4.28888L5.20191 9.42172H8.20308C8.35985 9.42172 8.48488 9.27411 8.48333 9.12004C8.48333 8.94869 8.34127 8.81153 8.19198 8.81656H5.86992L9.22592 5.80379C9.33908 5.69256 9.31198 5.58598 9.25211 5.51075C9.20437 5.45204 9.10346 5.3674 9.06875 5.32895C9.01056 5.26804 9.04204 5.14198 9.17417 5.11514C9.20359 5.11062 9.36617 5.06856 9.48166 5.04404C9.96488 4.93398 11.8783 4.57191 13.6926 4.58327ZM16.5036 9.3274C16.8161 9.33088 17.0295 9.42366 17.2032 9.50546C17.5648 9.67695 17.9882 9.87437 18.5189 10.1308C18.5189 10.1332 19.3738 9.52133 19.4196 9.48972C19.7117 9.29243 19.992 9.44275 20.0829 9.61282C20.402 10.2155 20.9907 11.4653 21.3014 12.6091C21.3373 12.747 21.2942 12.9585 21.0795 13.0251C20.9555 13.0598 20.7427 13.091 20.5205 13.119C20.2447 13.1531 20.2184 13.3554 20.216 13.5062L20.2158 13.7008C20.2159 13.7334 20.2159 13.7701 20.216 13.8101L20.2169 14.4092C20.217 14.4653 20.217 14.5221 20.2171 14.5787L20.2179 15.2108C20.218 15.3008 20.218 15.3794 20.218 15.4411C20.2251 15.7057 20.0232 16.5719 19.0227 16.5719H16.7408C15.877 16.5754 15.1831 15.8448 15.1784 15.0684L15.179 11.2104C15.179 11.1502 15.1791 11.0933 15.1791 11.0401L15.1797 10.6069C15.1837 9.83785 15.8743 9.31862 16.5036 9.3274Z" fill="#002A4C"/>
</svg>
