<svg width="24" height="24" viewBox="0 0 24 24" fill="none" xmlns="http://www.w3.org/2000/svg">
<path fill-rule="evenodd" clip-rule="evenodd" d="M20.9056 5.85043C21.253 5.15352 21.8869 5.08292 21.8869 5.08292C21.482 5.3955 21.3245 6.1324 21.2823 6.39301C21.1833 7.00644 21.1041 8.25316 19.2044 9.36127C17.0143 10.6388 17.1023 11.7457 16.454 13.4971C15.1282 17.0788 8.97387 18.7806 6.61915 19.1367C4.26432 19.4929 2.08447 19.4473 2.08447 19.4473C8.57814 18.464 11.863 15.7529 13.1297 12.8638C14.3961 9.97469 15.4647 9.73734 18.1162 8.80716C20.4367 7.99322 20.5756 6.74107 20.8195 6.05287C20.842 5.9896 20.867 5.93097 20.8933 5.87573C20.8113 5.91843 20.6574 6.02496 20.554 6.26118C20.3882 6.64019 20.2113 6.6176 20.0587 6.67035C20.3423 6.40296 20.1986 6.35359 20.4303 6.07286C20.6113 5.85348 20.815 5.85031 20.9056 5.85043ZM21.1504 5.90996C21.2171 5.93041 21.2877 5.8929 21.308 5.82625C21.3287 5.7596 21.2911 5.68899 21.2243 5.66855C21.1577 5.6481 21.0873 5.6856 21.0666 5.75226C21.0464 5.81902 21.084 5.88963 21.1504 5.90996Z" fill="#C51E3F"/>
<path fill-rule="evenodd" clip-rule="evenodd" d="M5.16411 17.1951C7.06933 16.5444 9.07554 15.7242 10.5718 13.3388C12.1449 10.8305 13.3412 10.1469 15.8503 9.46023C15.8503 9.46023 13.8121 10.1231 12.6644 12.6462C11.9202 14.2822 10.4427 15.5725 9.13225 16.2031C7.15835 17.153 5.16411 17.1951 5.16411 17.1951Z" fill="#008846"/>
<path fill-rule="evenodd" clip-rule="evenodd" d="M18.2494 10.2682C18.2494 10.2682 17.7797 10.7761 17.5028 11.5974C17.2256 12.4185 17.2653 13.4376 16.5925 14.6052C15.9195 15.7727 14.9797 16.7918 13.0241 17.8387C13.0241 17.8387 15.3954 17.979 16.8298 16.495C18.2645 15.0108 18.0668 13.5564 18.0074 12.0624C17.9675 11.0627 18.2494 10.2682 18.2494 10.2682Z" fill="#E05A29"/>
</svg>
