<svg width="48" height="48" viewBox="0 0 48 48" fill="none" xmlns="http://www.w3.org/2000/svg">
<path d="M35.4298 37.79H3.01977L2.75977 42.72H35.6898L35.4298 37.79Z" fill="#8DE2E0"/>
<path d="M37.3695 12.79C37.6395 12.79 37.8995 12.9 38.0895 13.09L45.6995 20.68C46.0995 21.08 46.0995 21.73 45.6995 22.12L41.6195 26.2C41.2195 26.6 40.5795 26.6 40.1795 26.2L32.5695 18.61C32.3795 18.42 32.2695 18.16 32.2695 17.89V13.81C32.2695 13.25 32.7295 12.79 33.2895 12.79H37.3695Z" fill="#DF0000"/>
<path d="M28.0689 25.7397H10.3789C9.82891 25.7397 9.37891 26.1897 9.37891 26.7397C9.37891 27.2897 9.82891 27.7397 10.3789 27.7397H28.0589C28.6089 27.7397 29.0589 27.2897 29.0589 26.7397C29.0589 26.1897 28.6089 25.7397 28.0589 25.7397H28.0689Z" fill="#323232"/>
<path d="M28.0689 32.7197H10.3789C9.82891 32.7197 9.37891 33.1697 9.37891 33.7197C9.37891 34.2697 9.82891 34.7197 10.3789 34.7197H28.0589C28.6089 34.7197 29.0589 34.2697 29.0589 33.7197C29.0589 33.1697 28.6089 32.7197 28.0589 32.7197H28.0689Z" fill="#323232"/>
<path d="M35.739 24.9598C35.709 24.4098 35.249 23.9798 34.689 24.0198C34.139 24.0498 33.719 24.5198 33.749 25.0698L34.639 41.7298H3.80903L5.19903 15.7898H11.249V20.4898C11.249 21.0398 11.699 21.4898 12.249 21.4898C12.799 21.4898 13.249 21.0398 13.249 20.4898V15.7898H25.189V20.4898C25.189 21.0398 25.639 21.4898 26.189 21.4898C26.739 21.4898 27.189 21.0398 27.189 20.4898V15.7898H29.269C29.819 15.7898 30.269 15.3398 30.269 14.7898C30.269 14.2398 29.819 13.7898 29.269 13.7898H27.189V10.7498C27.189 8.6198 26.359 6.6298 24.849 5.1298C23.339 3.6298 21.339 2.7998 19.209 2.7998C14.809 2.7998 11.239 6.3698 11.239 10.7498V13.7898H4.23903C3.70903 13.7898 3.26903 14.2098 3.23903 14.7398L1.73903 42.6798C1.72903 42.9498 1.81903 43.2198 2.00903 43.4198C2.19903 43.6198 2.45903 43.7298 2.73903 43.7298H35.669C35.939 43.7298 36.209 43.6198 36.399 43.4198C36.589 43.2198 36.689 42.9498 36.669 42.6798L35.719 24.9698L35.739 24.9598ZM13.249 10.7398C13.249 7.4598 15.929 4.7898 19.219 4.7898C20.819 4.7898 22.319 5.4098 23.439 6.5398C24.569 7.6598 25.189 9.1598 25.189 10.7498V13.7898H13.249V10.7498V10.7398Z" fill="#323232"/>
</svg>
