<svg width="48" height="48" viewBox="0 0 48 48" fill="none" xmlns="http://www.w3.org/2000/svg">
<path d="M31.3108 25.7501L18.7608 32.7501C18.5861 32.8475 18.389 32.8976 18.189 32.8956C17.9889 32.8935 17.7929 32.8393 17.6202 32.7383C17.4476 32.6374 17.3042 32.4931 17.2044 32.3198C17.1045 32.1465 17.0516 31.9501 17.0508 31.7501V17.7501C17.0516 17.55 17.1045 17.3537 17.2044 17.1803C17.3042 17.007 17.4476 16.8628 17.6202 16.7618C17.7929 16.6608 17.9889 16.6066 18.189 16.6046C18.389 16.6025 18.5861 16.6526 18.7608 16.7501L31.3108 23.7501C31.4902 23.8483 31.6399 23.9929 31.7441 24.1688C31.8484 24.3448 31.9034 24.5455 31.9034 24.7501C31.9034 24.9546 31.8484 25.1553 31.7441 25.3313C31.6399 25.5072 31.4902 25.6519 31.3108 25.7501Z" fill="#DF0000"/>
<path d="M31.1094 41.3604C36.1894 40.9104 41.9894 35.3604 41.3494 29.7004C41.5494 29.4004 32.5894 40.3004 31.1094 41.3604Z" fill="#8DE2E0"/>
<path d="M30.86 45.05H17.14C13.3869 45.0315 9.79348 43.529 7.14428 40.8704C4.49508 38.2118 3.00524 34.6132 3 30.86V17.14C3.0184 13.3955 4.51405 9.80963 7.16184 7.16184C9.80963 4.51405 13.3955 3.0184 17.14 3H30.86C34.6132 3.00524 38.2118 4.49508 40.8704 7.14428C43.529 9.79348 45.0315 13.3869 45.05 17.14V30.86C45.0447 34.6218 43.548 38.228 40.888 40.888C38.228 43.548 34.6218 45.0447 30.86 45.05ZM17.14 5C13.9259 5.01837 10.8487 6.30331 8.57603 8.57603C6.30331 10.8487 5.01837 13.9259 5 17.14V30.86C5.00523 34.0827 6.28435 37.1727 8.55849 39.4562C10.8326 41.7397 13.9173 43.0315 17.14 43.05H30.86C34.0914 43.0447 37.1889 41.7587 39.4738 39.4738C41.7587 37.1889 43.0447 34.0914 43.05 30.86V17.14C43.0315 13.9173 41.7397 10.8326 39.4562 8.55849C37.1727 6.28435 34.0827 5.00523 30.86 5H17.14Z" fill="#323232"/>
</svg>
