<svg width="24" height="24" viewBox="0 0 24 24" fill="none" xmlns="http://www.w3.org/2000/svg">
<path fill-rule="evenodd" clip-rule="evenodd" d="M12.8794 17.2799L12.9133 18.1939H12.145L12.8794 17.2799ZM11.9987 2.24737C15.5589 2.24737 18.4364 5.15403 18.4364 8.68632C18.4364 10.5952 17.5986 12.218 16.5214 13.267C14.4775 15.2571 11.4205 13.9867 11.7328 11.5431C11.9715 9.65883 14.2817 7.78261 16.0309 6.76369C16.0386 6.75921 16.0386 6.74801 16.0318 6.74225C15.8027 6.52496 15.3278 6.03214 15.0206 5.66125C14.1742 4.64137 12.6912 4.59913 11.8067 5.71725L6.77838 6.18607C6.75886 6.18799 6.7579 6.21679 6.77838 6.21775L12.1693 6.52912C13.1252 6.58384 13.4372 7.45011 12.5146 8.14998C9.0911 10.743 8.47988 13.4887 9.24535 15.6651C9.25111 15.6795 9.22871 15.6901 9.21975 15.677C8.90486 15.2325 8.66997 14.6868 8.541 14.1153C6.89743 13.082 5.56234 11.1139 5.56234 8.68632C5.56234 5.15403 8.43988 2.24737 11.9987 2.24737ZM17.7801 19.3062H14.6843L15.7822 16.4469H17.1464L16.2786 18.7001H18.0121L17.7801 19.3062ZM12.9552 19.3062L12.9328 18.743H11.7024L11.248 19.3062H10.1228L12.4064 16.6594C12.5155 16.5336 12.6765 16.4469 12.8256 16.4469H14.0446L14.3185 19.3062H12.9552ZM8.28756 19.4022C7.92018 19.4022 7.60241 19.3654 7.33968 19.3065L7.57201 18.6998C8.19699 18.7721 8.73141 18.7177 8.93974 18.1731L9.60312 16.4469H10.9661L10.2367 18.3491C9.86329 19.3213 8.94294 19.4022 8.28756 19.4022ZM21.9594 12.8804C22.0247 12.2468 22.008 11.3399 21.9108 10.6685C21.9085 10.6563 21.896 10.6557 21.8932 10.6685C21.688 11.6426 21.0576 12.9613 19.6953 14.0382C19.6835 14.0481 19.6688 14.0311 19.6806 14.019C20.8739 12.7437 21.5869 11.1718 21.697 9.55387C21.473 8.662 21.1238 7.80085 20.6829 7.03954C20.6771 7.02898 20.6653 7.0325 20.6672 7.04498C20.9091 8.68056 20.5222 10.841 18.9356 12.5933C18.9251 12.6055 18.9084 12.5908 18.9171 12.5783C20.2841 10.6109 20.639 8.21462 20.0445 6.05998C18.2226 3.59718 15.2977 2 11.9987 2C8.70101 2 5.77643 3.59718 3.95492 6.05998C3.35906 8.21462 3.71459 10.6109 5.08104 12.5783C5.09032 12.5908 5.07304 12.6055 5.06312 12.5933C3.47618 10.841 3.08897 8.68056 3.33122 7.04498C3.33346 7.0325 3.32162 7.02898 3.31522 7.03954C2.87584 7.80085 2.52575 8.662 2.30142 9.55387C2.41183 11.1718 3.12417 12.7437 4.31845 14.019C4.32966 14.0311 4.31557 14.0481 4.30309 14.0382C2.94081 12.9613 2.31038 11.6426 2.10558 10.6685C2.10302 10.6557 2.08894 10.6563 2.08862 10.6685C1.99069 11.3399 1.97341 12.2468 2.03933 12.8804C2.38303 13.9572 3.11681 14.86 3.86852 15.5118C3.88196 15.523 3.87012 15.5406 3.8554 15.532C3.01601 15.0101 2.54591 14.499 2.22622 14.0481C2.21918 14.0382 2.20894 14.0423 2.2115 14.0532C3.13345 18.5436 7.15856 21.9998 11.9987 21.9998C16.8392 21.9998 20.8653 18.5436 21.7866 14.0532C21.7898 14.0423 21.7789 14.0382 21.7732 14.0481C21.4531 14.499 20.9821 15.0101 20.1427 15.532C20.1289 15.5406 20.1165 15.523 20.1299 15.5118C20.8819 14.86 21.6151 13.9572 21.9594 12.8804Z" fill="#D8232A"/>
</svg>
