<svg width="48" height="48" viewBox="0 0 48 48" fill="none" xmlns="http://www.w3.org/2000/svg">
<path d="M3.75055 45.2504C3.49055 45.2504 3.24055 45.1504 3.04055 44.9604C2.65055 44.5704 2.65055 43.9404 3.04055 43.5504L12.9105 33.6804C11.2205 31.6704 10.2005 29.0804 10.2005 26.2504C10.2005 19.8804 15.3905 14.6904 21.7605 14.6904C28.1305 14.6904 33.3205 19.8804 33.3205 26.2504C33.3205 32.6204 28.1305 37.8104 21.7605 37.8104C18.9305 37.8104 16.3405 36.7904 14.3305 35.1004L4.46055 44.9704C4.26055 45.1704 4.01055 45.2604 3.75055 45.2604V45.2504ZM21.7605 16.6804C16.4905 16.6804 12.2005 20.9704 12.2005 26.2404C12.2005 31.5104 16.4905 35.8004 21.7605 35.8004C27.0305 35.8004 31.3205 31.5104 31.3205 26.2404C31.3205 20.9704 27.0305 16.6804 21.7605 16.6804Z" fill="#323232"/>
<path d="M45.1699 15.3C45.1199 15.18 45.0499 15.07 44.9499 14.98L33.0199 3.05C32.9299 2.96 32.8199 2.89 32.6999 2.83C32.5799 2.78 32.4499 2.75 32.3099 2.75H14.4199C13.8699 2.75 13.4199 3.2 13.4199 3.75V14.14C13.4199 14.69 13.8699 15.14 14.4199 15.14C14.9699 15.14 15.4199 14.69 15.4199 14.14V4.75H31.3199V15.68C31.3199 16.23 31.7699 16.68 32.3199 16.68H43.2499V43.02H15.4199V40.21C15.4199 39.66 14.9699 39.21 14.4199 39.21C13.8699 39.21 13.4199 39.66 13.4199 40.21V44.02C13.4199 44.57 13.8699 45.02 14.4199 45.02H44.2499C44.7999 45.02 45.2499 44.57 45.2499 44.02V15.68C45.2499 15.55 45.2199 15.42 45.1699 15.29V15.3ZM33.3199 6.16L41.8399 14.68H33.3199V6.16Z" fill="#323232"/>
<path fill-rule="evenodd" clip-rule="evenodd" d="M25 33.4402C20.67 32.1602 17.5 28.1502 17.5 23.4002C17.5 21.8902 17.82 20.4502 18.39 19.1602C15.79 20.4402 14 23.1202 14 26.2202C14 30.5702 17.52 34.0902 21.87 34.0902C22.98 34.0902 24.04 33.8602 25 33.4502" fill="#8DE2E0"/>
</svg>
