<svg width="223" height="30" viewBox="0 0 223 30" fill="none" xmlns="http://www.w3.org/2000/svg">
<path d="M146.925 11.2532H145.754V6.14649H141.651V11.2532H140.488V0.115234H141.651V4.98426H145.754V0.115234H146.925V11.2532Z" fill="#323232"/>
<path d="M157.068 7.86321C157.068 10.0468 155.729 11.4203 153.775 11.4203C151.82 11.4203 150.482 10.0468 150.482 7.86321V3.50487C150.482 1.32129 151.767 -0.0522461 153.775 -0.0522461C155.782 -0.0522461 157.068 1.32129 157.068 3.50487V7.86321ZM151.644 7.89843C151.644 9.25435 152.419 10.2581 153.775 10.2581C155.131 10.2581 155.897 9.25435 155.897 7.89843V3.46965C155.897 2.11372 155.131 1.10998 153.775 1.10998C152.419 1.10998 151.644 2.11372 151.644 3.46965V7.89843Z" fill="#323232"/>
<path d="M159.832 0.115234H166.269V1.28627H163.627V11.2532H162.465V1.28627H159.824V0.115234H159.832Z" fill="#323232"/>
<path d="M170.583 6.12888V10.0822H175.267V11.2532H169.429V0.115234H175.153V1.28627H170.592V4.98426H174.774V6.13768H170.592L170.583 6.12888Z" fill="#323232"/>
<path d="M179.784 10.0822H184.16V11.2532H178.622V0.115234H179.784V10.0822Z" fill="#323232"/>
<path d="M192.049 3.28476V3.01181C192.049 1.8936 191.336 1.03074 190.086 1.03074C188.835 1.03074 188.148 1.72631 188.148 2.71245C188.148 3.49607 188.633 4.05077 189.293 4.34133L190.94 5.08973C192.084 5.60041 193.361 6.27837 193.361 8.189C193.361 10.0996 192.031 11.4292 190.094 11.4292C188.157 11.4292 186.819 10.2229 186.819 8.29466V8.02171H187.964V8.35629C187.964 9.49211 188.738 10.3198 190.086 10.3198C191.433 10.3198 192.216 9.4745 192.216 8.33868C192.216 7.13243 191.441 6.65698 190.508 6.25196L189.091 5.60921C187.964 5.11614 187.03 4.30611 187.03 2.8093C187.03 1.12759 188.245 -0.0522461 190.077 -0.0522461C191.908 -0.0522461 193.176 1.15401 193.176 3.08225V3.28476H192.049Z" fill="#323232"/>
<path d="M147.497 24.434H146.458V26.5208C146.458 28.5723 145.19 29.9106 143.288 29.9106C141.386 29.9106 139.995 28.6691 139.995 26.7233C139.995 25.3673 140.603 24.3636 141.73 23.9058C140.832 23.4303 140.374 22.5498 140.374 21.3788C140.374 19.6178 141.536 18.4292 143.253 18.4292C144.97 18.4292 146.088 19.6354 146.088 21.4668V21.687H144.979V21.414C144.979 20.3486 144.38 19.5474 143.271 19.5474C142.161 19.5474 141.536 20.331 141.536 21.4492C141.536 22.5674 142.056 23.4127 143.517 23.4127H147.497V24.434ZM145.366 26.556V24.434H143.473C141.827 24.434 141.184 25.5346 141.184 26.6C141.184 27.9383 141.932 28.8012 143.315 28.8012C144.627 28.8012 145.357 27.8503 145.357 26.5472L145.366 26.556Z" fill="#323232"/>
<path d="M161.796 29.7435H160.625V24.6367H156.522V29.7435H155.36V18.6055H156.522V23.4745H160.625V18.6055H161.796V29.7435Z" fill="#323232"/>
<path d="M171.939 26.3534C171.939 28.537 170.6 29.9106 168.646 29.9106C166.691 29.9106 165.353 28.537 165.353 26.3534V21.9951C165.353 19.8115 166.638 18.438 168.646 18.438C170.653 18.438 171.939 19.8115 171.939 21.9951V26.3534ZM166.515 26.3887C166.515 27.7446 167.29 28.7483 168.646 28.7483C170.002 28.7483 170.768 27.7446 170.768 26.3887V21.9599C170.768 20.604 170.002 19.6002 168.646 19.6002C167.29 19.6002 166.515 20.604 166.515 21.9599V26.3887Z" fill="#323232"/>
<path d="M176.658 28.5724H181.034V29.7435H175.496V18.6055H176.658V28.5724Z" fill="#323232"/>
<path d="M185.322 29.7435H184.16V18.6055H185.322V29.7435Z" fill="#323232"/>
<path d="M195.606 22.2506V26.0983C195.606 28.3347 194.277 29.7435 192.234 29.7435H189.064V18.6055H192.234C194.277 18.6055 195.606 20.0142 195.606 22.2506ZM190.218 19.7765V28.5724H192.234C193.651 28.5724 194.444 27.5511 194.444 26.1335V22.2154C194.444 20.789 193.651 19.7765 192.234 19.7765H190.218Z" fill="#323232"/>
<path d="M198.274 29.7435L201.479 18.6055H202.65L205.881 29.7435H204.675L203.944 27.1813H200.132L199.418 29.7435H198.274ZM200.44 26.0631H203.653L202.025 20.3488L200.44 26.0631Z" fill="#323232"/>
<path d="M208.347 18.6055L210.601 24.0292L212.872 18.6055H214.043L211.147 25.2883V29.7435H209.984V25.3059L207.088 18.6055H208.338H208.347Z" fill="#323232"/>
<path d="M221.642 21.775V21.502C221.642 20.3838 220.928 19.521 219.678 19.521C218.428 19.521 217.741 20.2165 217.741 21.2027C217.741 21.9863 218.225 22.541 218.886 22.8316L220.532 23.58C221.677 24.0906 222.954 24.7686 222.954 26.6792C222.954 28.5899 221.624 29.9194 219.687 29.9194C217.75 29.9194 216.412 28.7131 216.412 26.7849V26.5119H217.556V26.8465C217.556 27.9823 218.331 28.81 219.678 28.81C221.025 28.81 221.809 27.9647 221.809 26.8289C221.809 25.6227 221.034 25.1472 220.101 24.7422L218.683 24.0994C217.556 23.6064 216.623 22.7963 216.623 21.2995C216.623 19.6178 217.847 18.438 219.669 18.438C221.492 18.438 222.769 19.6442 222.769 21.5725V21.775H221.642Z" fill="#323232"/>
<path d="M129.439 -0.043457V29.9015" stroke="#323232" stroke-width="0.666664" stroke-miterlimit="10"/>
<path d="M87.6862 29.7344H118.107L93.7351 5.25726C90.4861 2.00831 86.0838 0.0800781 81.4877 0.0800781H76.3898L76.7684 1.07501L78.4589 5.50379L87.695 29.7344H87.6862Z" fill="url(#paint0_linear_15605_1960)"/>
<path d="M78.4502 5.50396C81.7784 11.1918 90.5215 11.7905 91.4724 20.6305C91.5076 20.9915 91.7894 21.282 92.1504 21.3437C97.1867 22.1273 102.091 24.2052 106.352 27.6215C106.352 27.6215 106.414 27.6567 106.449 27.6567C106.484 27.6567 106.528 27.6391 106.555 27.6126C106.617 27.551 106.617 27.463 106.555 27.4013C103.605 24.3021 99.9954 21.8191 95.9452 20.1903L94.7125 19.6972C94.0786 19.4419 93.6384 18.8167 93.656 18.0947C93.7264 15.4533 99.9778 15.9904 100.603 14.7225L100.709 14.5024C99.4231 13.4018 97.891 12.5742 96.2093 12.1163C96.1917 12.1779 96.1565 12.4861 96.4999 13.0496C96.8697 13.6571 96.0949 14.6169 94.9591 13.5779L94.8622 13.4899C86.4185 5.75049 80.0879 9.76545 76.7421 1.08398L78.4326 5.51277L78.4502 5.50396Z" fill="white"/>
<path d="M98.7539 14.3612C98.7539 14.3612 97.3716 14.4317 96.5175 13.0493C96.7729 13.4631 96.4911 14.0354 95.9276 14.0443V16.1486C96.8345 15.8844 97.8735 15.726 98.7451 15.5411V14.37L98.7539 14.3612Z" fill="url(#paint1_linear_15605_1960)"/>
<path d="M93.1893 21.5285C97.8558 22.4266 102.381 24.4429 106.344 27.6214C97.5037 20.0669 93.4711 21.4317 93.1893 21.5285Z" fill="url(#paint2_linear_15605_1960)"/>
<path d="M80.2287 5.90018C78.8552 4.92286 77.6929 3.48769 76.7596 1.0752L78.4502 5.50397C81.7783 11.1918 90.5214 11.7905 91.4723 20.6305C90.5126 9.34283 85.5556 11.0333 80.2287 5.90018Z" fill="url(#paint3_linear_15605_1960)"/>
<path d="M1.15342 6.40189V11.2181H0V0.0800781H5.71427V1.25111H1.15342V5.24847H5.33567V6.40189H1.15342Z" fill="#323232"/>
<path d="M14.2989 11.2181L12.5643 6.80691C12.3794 6.82452 12.2914 6.82452 12.1505 6.82452H10.2927V11.2181H9.13928V0.0800781H12.2209C14.1756 0.0800781 15.5843 1.38318 15.5843 3.39947C15.5843 4.88747 14.8536 6.00568 13.7265 6.49874L15.5667 11.2093H14.2989V11.2181ZM10.2927 1.21589V5.70631H12.1241C13.524 5.70631 14.3957 4.79062 14.3957 3.41708C14.3957 2.04354 13.524 1.21589 12.1241 1.21589H10.2927Z" fill="#323232"/>
<path d="M20.1892 6.10253V10.0471H24.8645V11.2181H19.027V0.0800781H24.7413V1.25111H20.1892V4.94911H24.3626V6.10253H20.1892Z" fill="#323232"/>
<path d="M34.5409 7.82805C34.5409 9.30725 33.9158 10.4254 32.9296 10.9801L34.4793 13.4719H33.0617L31.7674 11.3323C31.6001 11.3676 31.4328 11.3852 31.2479 11.3852C29.2933 11.3852 27.955 10.0116 27.955 7.82805V3.46971C27.955 1.28614 29.2316 -0.0874023 31.2479 -0.0874023C33.2642 -0.0874023 34.5409 1.28614 34.5409 3.46971V7.82805ZM29.1172 7.86327C29.1172 9.2192 29.892 10.2229 31.2479 10.2229C32.6039 10.2229 33.3611 9.2192 33.3611 7.86327V3.43449C33.3611 2.07856 32.5951 1.07482 31.2479 1.07482C29.9008 1.07482 29.1172 2.07856 29.1172 3.43449V7.86327Z" fill="#323232"/>
<path d="M44.3142 0.0800781V7.82825C44.3142 10.0118 43.0023 11.3854 41.0829 11.3854C39.1634 11.3854 37.8691 10.0118 37.8691 7.82825V0.0800781H39.0226V7.86346C39.0226 9.21939 39.771 10.2231 41.0829 10.2231C42.3948 10.2231 43.152 9.21939 43.152 7.86346V0.0800781H44.3054H44.3142Z" fill="#323232"/>
<path d="M49.2977 6.10253V10.0471H53.973V11.2181H48.1443V0.0800781H53.8498V1.25111H49.2977V4.94911H53.4712V6.10253H49.2977Z" fill="#323232"/>
<path d="M63.8432 11.2181H62.8834L58.5427 2.60704V11.2181H57.4597V0.0800781H58.4987L62.7602 8.55905V0.0800781H63.8432V11.2181Z" fill="#323232"/>
<path d="M66.8015 0.0800781H73.229V1.25111H70.5964V11.2181H69.4341V1.25111H66.8015V0.0800781Z" fill="#323232"/>
<path d="M32.0316 24.8916V29.7078H30.8694V18.5698H36.5837V19.7409H32.0316V23.7382H36.205V24.8916H32.0316Z" fill="#323232"/>
<path d="M41.1621 28.5368H45.538V29.7078H40.0087V18.5698H41.1621V28.5368Z" fill="#323232"/>
<path d="M48.0563 18.5698L50.3103 23.9936L52.5819 18.5698H53.753L50.8562 25.2526V29.7078H49.7028V25.2702L46.806 18.5698H48.0563Z" fill="#323232"/>
<path d="M58.1553 24.5923V28.5368H62.8306V29.7078H56.993V18.5698H62.7073V19.7409H58.1553V23.4389H62.3287V24.5923H58.1553Z" fill="#323232"/>
<path d="M71.4768 29.7078L69.7423 25.2967C69.5574 25.3143 69.4694 25.3143 69.3285 25.3143H67.4707V29.7078H66.3173V18.5698H69.3989C71.3448 18.5698 72.7623 19.8729 72.7623 21.8892C72.7623 23.3772 72.0315 24.4954 70.9045 24.9885L72.7447 29.699H71.4768V29.7078ZM67.4707 19.7056V24.1961H69.3021C70.702 24.1961 71.5737 23.2804 71.5737 21.9068C71.5737 20.5333 70.702 19.7056 69.3021 19.7056H67.4707Z" fill="#323232"/>
<defs>
<linearGradient id="paint0_linear_15605_1960" x1="102.813" y1="29.6288" x2="82.5267" y2="0.00084307" gradientUnits="userSpaceOnUse">
<stop stop-color="#BE0000"/>
<stop offset="0.39" stop-color="#DD0000"/>
<stop offset="0.77" stop-color="#F60000"/>
<stop offset="1" stop-color="#FF0000"/>
</linearGradient>
<linearGradient id="paint1_linear_15605_1960" x1="97.2131" y1="16.2542" x2="97.4861" y2="13.1286" gradientUnits="userSpaceOnUse">
<stop offset="0.65" stop-color="white" stop-opacity="0"/>
<stop offset="0.69" stop-color="#ECECEC" stop-opacity="0.0529"/>
<stop offset="0.76" stop-color="#D6D6D6" stop-opacity="0.25"/>
<stop offset="0.81" stop-color="#C5C5C5" stop-opacity="0.5184"/>
<stop offset="0.87" stop-color="#B9B9B9" stop-opacity="0.7569"/>
<stop offset="0.91" stop-color="#B1B1B1" stop-opacity="0.9409"/>
<stop offset="0.95" stop-color="#AFAFAF"/>
</linearGradient>
<linearGradient id="paint2_linear_15605_1960" x1="93.1893" y1="24.5045" x2="106.352" y2="24.5045" gradientUnits="userSpaceOnUse">
<stop stop-color="white" stop-opacity="0"/>
<stop offset="0.07" stop-color="#F3F3F3" stop-opacity="0.0225"/>
<stop offset="0.21" stop-color="#DEDEDE" stop-opacity="0.1681"/>
<stop offset="0.35" stop-color="#CDCDCD" stop-opacity="0.3844"/>
<stop offset="0.49" stop-color="#C0C0C0" stop-opacity="0.6241"/>
<stop offset="0.63" stop-color="#B6B6B6" stop-opacity="0.8281"/>
<stop offset="0.77" stop-color="#B0B0B0" stop-opacity="0.9604"/>
<stop offset="0.9" stop-color="#AFAFAF"/>
</linearGradient>
<linearGradient id="paint3_linear_15605_1960" x1="76.7596" y1="10.8572" x2="91.4635" y2="10.8572" gradientUnits="userSpaceOnUse">
<stop offset="0.25" stop-color="white" stop-opacity="0"/>
<stop offset="0.36" stop-color="#F6F6F6" stop-opacity="0.0121"/>
<stop offset="0.58" stop-color="#E0E0E0" stop-opacity="0.1444"/>
<stop offset="0.88" stop-color="#BDBDBD" stop-opacity="0.6724"/>
<stop offset="1" stop-color="#AFAFAF"/>
</linearGradient>
</defs>
</svg>
