<svg width="24" height="24" viewBox="0 0 24 24" fill="none" xmlns="http://www.w3.org/2000/svg">
<path d="M12 6.55C15.79 6.55 19.17 8.68 20.82 12.05C20.23 13.27 19.4 14.32 18.41 15.17L19.82 16.58C21.21 15.35 22.31 13.81 23 12.05C21.27 7.66 17 4.55 12 4.55C10.73 4.55 9.51 4.75 8.36 5.12L10.01 6.77C10.66 6.64 11.32 6.55 12 6.55ZM10.93 7.69L13 9.76C13.57 10.01 14.03 10.47 14.28 11.04L16.35 13.11C16.43 12.77 16.49 12.41 16.49 12.04C16.5 9.56 14.48 7.55 12 7.55C11.63 7.55 11.28 7.6 10.93 7.69ZM2.01 4.42L4.69 7.1C3.06 8.38 1.77 10.08 1 12.05C2.73 16.44 7 19.55 12 19.55C13.52 19.55 14.98 19.26 16.32 18.73L19.74 22.15L21.15 20.74L3.42 3L2.01 4.42ZM9.51 11.92L12.12 14.53C12.08 14.54 12.04 14.55 12 14.55C10.62 14.55 9.5 13.43 9.5 12.05C9.5 12 9.51 11.97 9.51 11.92ZM6.11 8.52L7.86 10.27C7.63 10.82 7.5 11.42 7.5 12.05C7.5 14.53 9.52 16.55 12 16.55C12.63 16.55 13.23 16.42 13.77 16.19L14.75 17.17C13.87 17.41 12.95 17.55 12 17.55C8.21 17.55 4.83 15.42 3.18 12.05C3.88 10.62 4.9 9.44 6.11 8.52Z" fill="#323232"/>
</svg>
