<svg width="24" height="24" viewBox="0 0 24 24" fill="none" xmlns="http://www.w3.org/2000/svg">
<path fill-rule="evenodd" clip-rule="evenodd" d="M11.6823 19.9696C11.7828 20.0933 11.8995 20.2226 12.0156 20.3513C12.1331 20.4807 12.4566 20.7819 12.6167 20.9458C12.7756 21.11 12.8592 21.2095 12.9645 21.3473C13.0693 21.485 13.1826 21.6377 13.2335 21.7075C13.284 21.778 13.2666 21.7954 13.1004 21.8292C12.9246 21.8634 12.8971 21.8658 12.6675 21.917C12.4366 21.968 12.2305 21.9945 12.0751 21.9928C11.9188 21.9911 11.9098 22.0029 11.7407 21.9993L11.6651 21.9978L11.5372 21.9976C11.5146 21.9982 11.5085 21.999 11.5085 21.999C11.3434 22.0073 11.1006 21.9558 11.007 21.9529C10.8864 21.9496 10.8313 21.9061 10.7797 21.9011L10.7429 21.8922L10.7501 21.8691C10.8416 21.7163 10.8638 21.6061 10.9556 21.4364C11.0471 21.2657 11.2735 20.7642 11.3217 20.6658C11.3701 20.5673 11.4631 20.3424 11.5204 20.2492C11.5774 20.1553 11.6454 20.0016 11.6823 19.9696ZM10.9182 18.3254C11.1686 18.3605 11.8112 18.375 11.9664 18.3766C12.2965 18.6482 12.5287 18.8529 12.8323 19.2095C13.136 19.5656 13.346 19.7993 13.5763 20.037C13.8063 20.2741 14.7868 21.3473 14.8642 21.4047C14.7981 21.4449 14.6076 21.4856 14.525 21.5202C14.4433 21.5542 14.0669 21.6256 14.0669 21.6256C13.9094 21.3659 13.6777 21.1183 13.5041 20.894C13.3312 20.6691 12.8372 20.0411 12.7266 19.8958C12.6161 19.7506 11.5489 18.6544 11.5489 18.6544C11.4541 18.7973 11.3894 18.8219 11.2991 19.0099C11.2078 19.1971 9.92591 21.7128 9.91402 21.7628C9.81689 21.719 9.58771 21.683 9.49302 21.643C9.3997 21.6033 9.27879 21.5595 9.22893 21.5232C9.28656 21.3479 9.37958 21.1707 9.47579 21.0318C9.55521 20.9165 9.55785 20.95 9.58221 20.9091L9.60021 20.8738C9.64443 20.7783 9.86888 20.3728 9.93048 20.2525C9.9927 20.1322 10.8008 18.547 10.8268 18.4937C10.8531 18.439 10.8778 18.3846 10.9182 18.3254ZM9.49747 17.9515C9.57356 18.0188 9.54307 17.9797 9.59643 18.0123C9.6495 18.0444 9.82729 18.1436 9.86358 18.1669C9.89926 18.1901 9.92762 18.2102 9.92762 18.2102C9.86007 18.3043 9.62251 18.7263 9.56319 18.8405C9.50434 18.9541 8.76192 20.3723 8.72715 20.4479C8.69208 20.5232 8.58839 20.7392 8.55424 20.8323C8.51932 20.925 8.48913 20.9452 8.46123 20.9936C8.42341 21.06 8.40237 21.1147 8.37508 21.1662C8.3394 21.2337 8.30875 21.2784 8.30875 21.2784C8.23601 21.2096 8.03459 21.1538 7.98351 21.096C7.9338 21.0369 7.67001 20.8949 7.67001 20.8949C7.74305 20.7909 7.77172 20.769 7.82371 20.6922C7.85863 20.6398 8.52237 19.6839 8.54265 19.6483C8.56384 19.6126 8.62941 19.472 8.6686 19.3959C8.70779 19.3196 8.79516 19.166 8.82992 19.0998C8.86438 19.034 9.49747 17.9515 9.49747 17.9515ZM14.0288 18.0533C14.1911 18.2207 14.2565 18.2912 14.4605 18.5001C14.5446 18.5863 14.8395 18.8986 15.1679 19.2479L15.4535 19.552C15.8343 19.9578 16.1928 20.3414 16.2645 20.4209C16.4165 20.5905 16.4772 20.6597 16.5085 20.7019C16.4722 20.7338 16.4232 20.7737 16.3064 20.8089C16.1893 20.8447 16.0731 20.9385 15.9306 20.9806C15.8301 20.8158 15.7942 20.7417 15.7316 20.6625C15.6683 20.5837 15.2205 20.076 15.0439 19.8892C14.8679 19.7018 13.5862 18.254 13.5389 18.2223C13.4926 18.1905 13.5193 18.1954 13.5781 18.177C13.6361 18.1596 13.7522 18.1306 13.8497 18.109C13.9467 18.0874 14.0288 18.0533 14.0288 18.0533ZM8.8128 17.8439L8.7664 17.9124C8.71368 17.9931 8.62035 18.139 8.50422 18.3214L8.31515 18.6187C8.24791 18.7246 8.17721 18.836 8.10526 18.9493L7.88789 19.2916C7.52683 19.8599 7.19035 20.3871 7.15688 20.4248C7.08491 20.5077 7.03779 20.5448 6.99113 20.5707C6.92602 20.4593 6.96567 20.4639 6.92313 20.3334C6.89583 20.2495 6.75936 18.4182 6.74366 18.3238C6.72719 18.2288 6.74305 18.1067 6.72551 18.0533C6.79931 18.0016 8.72055 17.7858 8.76736 17.7689C8.81417 17.753 8.85427 17.7983 8.8128 17.8439ZM16.7607 17.771C16.8726 17.7863 17.122 17.7681 17.122 17.7681C17.1811 17.892 17.3524 19.5817 17.3781 19.7406C17.3906 19.8153 17.4639 20.0327 17.4247 20.1022C17.3887 20.1096 17.2943 20.1114 17.244 20.041C17.1999 19.9803 15.6757 18.5392 15.2096 18.0812L15.1005 17.972C15.0892 17.9602 15.0815 17.9518 15.0779 17.9471C14.998 17.8453 14.9204 17.7697 14.9204 17.7697C14.9851 17.7639 15.2746 17.7605 15.6058 17.7594L16.1111 17.7596C16.4383 17.761 16.7158 17.7647 16.7607 17.771ZM6.02798 18.3255C6.08577 18.3249 6.11063 19.9126 6.08836 19.9989C6.06595 20.0854 6.0719 20.099 6.0443 20.0839C5.84562 19.9264 5.27809 19.3997 5.08383 19.2201C4.88866 19.0399 4.52134 18.6333 4.43138 18.5043C4.63661 18.4335 5.99276 18.3261 6.02798 18.3255ZM20.3905 17.2378C20.3974 17.2801 20.3786 17.2811 20.373 17.3147C20.3674 17.3484 20.009 17.8841 19.9895 17.9152C19.9809 17.9294 19.8743 18.0563 19.7477 18.205L19.5911 18.3881C19.487 18.5094 19.39 18.6216 19.34 18.678C19.203 18.8343 18.2313 19.5727 18.1683 19.6416L18.1314 19.6525L18.1229 19.6205C18.0951 19.5401 18.0541 17.556 18.045 17.4925C18.156 17.4842 18.5541 17.4451 18.9919 17.3997L19.3711 17.3597C19.8743 17.306 20.3372 17.2531 20.3905 17.2378ZM6.27876 15.2308C6.26626 15.4504 6.02733 17.3382 6.00125 17.3639C5.96024 17.3861 4.1529 17.8143 4.06721 17.8537C3.98182 17.8942 4.03763 17.8178 4.01354 17.8276L4.02768 17.8065L4.11254 17.7019C4.54949 17.1793 6.27876 15.2308 6.27876 15.2308ZM6.76019 15.8333C6.79419 15.878 6.83231 15.9531 6.85305 15.9752C6.87363 15.9972 7.296 16.4707 7.35851 16.5372C7.42027 16.6038 7.79094 17.0287 7.87557 17.0938C7.96096 17.1581 8.05153 17.2611 8.05153 17.2611C7.75603 17.3309 6.86021 17.3177 6.84115 17.2833C6.82148 17.249 6.76019 15.8333 6.76019 15.8333ZM5.77191 13.7208C5.80027 13.8382 5.82528 13.9069 5.86157 14.022C5.89908 14.1425 5.9712 14.344 5.9956 14.4271C5.69685 14.7891 5.3243 15.1612 5.08613 15.4L4.94955 15.5379C4.91218 15.5762 4.88373 15.6064 4.86649 15.6268C4.75396 15.7593 3.68401 16.7779 3.62104 16.8638C3.55807 16.9493 3.42236 17.0745 3.42236 17.0745C3.37982 17.0996 3.34627 17.0346 3.34627 17.0346C3.25951 16.8484 3.16513 16.7057 3.13372 16.6462C3.10276 16.586 3.0863 16.5151 3.0863 16.5151C3.20769 16.3921 3.69874 15.9232 4.06658 15.5587L4.28815 15.3361C4.35232 15.2704 4.40499 15.2147 4.44077 15.1741C4.67223 14.9106 5.34604 14.251 5.48189 14.0845C5.61745 13.9182 5.68683 13.851 5.7065 13.8201L5.72489 13.7915L5.76441 13.732C5.76903 13.7251 5.77191 13.7208 5.77191 13.7208ZM17.3855 15.5501C17.3899 15.6259 17.3953 15.7256 17.4027 15.8117C17.4096 15.8979 17.4654 16.7941 17.436 16.9034C17.0937 16.9457 15.9922 17.0333 15.9412 17.0244C15.8908 17.0147 15.8732 16.9924 15.9174 16.9631C15.9623 16.9344 16.2739 16.7146 16.3563 16.6559C16.4389 16.5971 16.6481 16.4036 16.7695 16.2775C16.891 16.1517 17.1231 15.8473 17.1916 15.7631C17.26 15.6791 17.2969 15.6255 17.3855 15.5501ZM18.1251 14.4062C18.1552 14.4356 18.6286 14.7685 18.8585 14.9477C19.0876 15.1265 20.3542 16.003 20.4413 16.0827C20.5286 16.1628 20.6602 16.246 20.6602 16.246C20.5143 16.3073 18.6111 16.4936 18.4952 16.4984L18.373 16.5048C18.292 16.5097 18.2216 16.515 18.2216 16.515C18.2137 16.3206 18.1853 16.0759 18.1762 15.9063C18.1666 15.7358 18.1433 15.423 18.1245 15.2893C18.1051 15.1558 18.0707 14.7858 18.0534 14.6633C18.0365 14.54 18.0484 14.4665 18.0547 14.4089C18.0603 14.352 18.0859 14.3709 18.1251 14.4062ZM12.0115 13.7467C12.0768 13.8096 12.1219 13.8993 12.1613 13.9938C12.201 14.0882 12.2386 14.2178 12.2578 14.339C12.2777 14.4601 12.3056 14.7321 12.2834 14.8933C12.2619 15.0549 12.2515 15.2452 12.2204 15.3959C12.1885 15.5462 12.141 15.7975 12.1042 15.882C12.0673 15.966 12.0673 16.0422 12.0181 16.09C11.9957 16.0323 11.9241 15.8797 11.89 15.7805C11.856 15.6821 11.7988 15.4307 11.7833 15.3153C11.7688 15.1994 11.7209 14.8931 11.7236 14.8474C11.7271 14.8016 11.7416 14.6324 11.7666 14.5345C11.7913 14.4368 11.7958 14.3874 11.8214 14.3343C11.8383 14.2991 11.8813 14.1485 11.9066 14.0843C11.9315 14.0197 11.9371 13.966 11.9598 13.9038C11.9783 13.852 11.9859 13.8112 12.0115 13.7467ZM2.21323 9.98473C2.36419 10.0282 3.74595 10.799 3.87586 10.8654C4.00654 10.9316 4.22992 11.0076 4.3022 11.0391C4.3325 11.0524 4.51028 11.1451 4.71327 11.2516L4.96113 11.3817C5.16472 11.4887 5.34462 11.5831 5.37854 11.599C5.46027 11.6367 5.52614 11.6717 5.52614 11.6717C5.55283 11.6983 5.55771 11.7042 5.55389 11.8325C5.55054 11.9611 5.56152 12.131 5.54764 12.2411C5.54287 12.2777 5.54139 12.3553 5.54155 12.4426L5.54355 12.6206C5.54567 12.7354 5.54871 12.83 5.54871 12.83C5.25244 13.1165 4.91364 13.5231 4.6378 13.7656C4.36273 14.0083 3.31764 15.0231 3.31764 15.0231C3.30003 15.0394 3.26422 15.0753 3.21912 15.1208L3.06483 15.2758C2.95523 15.3847 2.84404 15.4912 2.80241 15.5141C2.71291 15.5634 2.6446 15.6066 2.59535 15.6451C2.54244 15.548 2.52551 15.4382 2.50904 15.3874C2.49135 15.3368 2.47153 15.1894 2.45339 15.1068C2.43555 15.0234 2.41649 14.8592 2.40825 14.8145C2.4482 14.7982 2.51804 14.7336 2.58345 14.6925C2.64932 14.6519 3.42071 13.9427 3.53538 13.8207C3.65004 13.6988 3.91231 13.4644 4.08583 13.3001C4.19031 13.2011 4.4251 12.9552 4.6167 12.7597L4.78748 12.5883C4.83533 12.5416 4.87195 12.5079 4.89092 12.4944C4.98652 12.4272 5.17026 12.2621 5.21951 12.2407C5.17493 12.2142 5.07134 12.1599 4.93953 12.0928L4.64738 11.9461C4.33584 11.7912 3.99348 11.6252 3.86656 11.5684C3.63357 11.4652 2.65085 10.9487 2.52048 10.8831C2.39057 10.8167 2.13959 10.701 2.11077 10.689C2.11565 10.5774 2.15819 10.4347 2.1713 10.3185C2.18441 10.2021 2.21323 10.034 2.21323 9.98473ZM12.7681 13.6468C12.8704 13.7426 12.9763 13.8835 13.0679 14.0024C13.1588 14.1214 13.1206 14.093 13.1957 14.1729C13.2705 14.2532 13.3704 14.4425 13.3927 14.6393C13.4148 14.8353 13.454 15.0859 13.4033 15.2308C13.2034 15.0084 12.9958 14.7269 12.8692 14.4114C12.742 14.0948 12.7202 13.9086 12.7067 13.7895C12.7019 13.7497 12.7016 13.6281 12.7016 13.6281C12.6995 13.5663 12.7088 13.5894 12.7681 13.6468ZM18.4038 12.7976C18.5821 12.8891 18.8068 12.9953 18.9311 13.0604C19.0555 13.1255 20.0216 13.6258 20.1964 13.7205C20.3708 13.8143 20.8009 14.016 20.9156 14.1008C21.0292 14.1848 21.1771 14.2674 21.2773 14.3322C21.3772 14.3971 21.4947 14.4415 21.5495 14.4684L21.6437 14.516C21.6713 14.5304 21.6911 14.5412 21.6911 14.5412C21.6605 14.5947 21.6162 14.6706 21.5835 14.7406C21.5514 14.8102 21.4975 14.8971 21.4629 14.9501C21.413 15.0256 21.391 15.1002 21.3194 15.157C21.2716 15.1322 20.367 14.6172 20.2453 14.5563C20.1238 14.4953 18.4872 13.5741 18.4476 13.5433C18.4072 13.5122 18.4072 13.4709 18.4052 13.4021C18.4035 13.333 18.4011 13.082 18.4035 13.0033L18.4045 12.9519L18.404 12.8115C18.4039 12.8027 18.4038 12.7976 18.4038 12.7976ZM11.2782 13.6703C11.282 13.7123 11.3002 13.7648 11.2895 13.8831C11.279 14.0017 11.2241 14.2228 11.1831 14.343C11.1419 14.4637 11.0937 14.59 10.9807 14.7079C10.8676 14.8256 10.7429 14.9905 10.7018 15.0414C10.6617 15.0934 10.6299 15.1322 10.5901 15.1467C10.5832 15.0888 10.5776 15.007 10.5838 14.9535C10.5898 14.9 10.6157 14.7156 10.6415 14.5919C10.6678 14.4684 10.741 14.2957 10.7851 14.1923C10.8296 14.0894 10.9534 13.9138 11.0312 13.826C11.1094 13.7386 11.2069 13.6263 11.2282 13.6088C11.2602 13.5729 11.2707 13.5929 11.2782 13.6703ZM13.4684 13.2577C13.5492 13.3163 13.6319 13.348 13.7337 13.4128C13.8353 13.4776 14.0167 13.6108 14.1874 13.788C14.3577 13.965 14.4393 14.0979 14.5182 14.2206C14.5779 14.3133 14.5943 14.3635 14.6052 14.4204C14.5454 14.3984 14.4325 14.3432 14.3778 14.2976C14.3225 14.2514 14.197 14.187 14.0849 14.1215C13.9728 14.0564 13.8641 13.9827 13.808 13.9134C13.7525 13.844 13.6 13.5768 13.5029 13.4151C13.4051 13.2536 13.3878 13.1997 13.4684 13.2577ZM10.7666 13.1434C10.7155 13.2315 10.6956 13.3144 10.6044 13.4672C10.5129 13.6208 10.451 13.7264 10.2855 13.896C10.1201 14.0653 9.99736 14.1273 9.90313 14.1865C9.80905 14.2454 9.79029 14.2443 9.74577 14.2741C9.67167 14.3159 9.62059 14.3288 9.66252 14.2754C9.70399 14.2218 9.82033 13.9811 9.86394 13.9001C9.90725 13.8182 10.0792 13.5603 10.153 13.4929C10.2259 13.4251 10.3982 13.236 10.5531 13.1455C10.709 13.0555 10.7195 13.0541 10.7805 13.0434C10.8227 13.0366 10.8177 13.0555 10.7666 13.1434ZM2.00496 11.7597C2.16567 11.8039 2.20593 11.82 2.31693 11.8615C2.46316 11.9149 2.67877 11.9706 2.74067 12.0007C2.80437 12.0317 2.9336 12.0768 3.03533 12.1182L3.12446 12.1577C3.22251 12.2077 3.29066 12.2159 3.36507 12.2455C3.4343 12.2727 3.80543 12.358 3.84294 12.3657C3.84294 12.3657 3.80452 12.3931 3.72431 12.4518C3.63923 12.5143 3.27892 12.8148 3.09153 12.9614C2.90352 13.1078 2.46423 13.4512 2.36283 13.5221C2.26143 13.5929 2.17315 13.6207 2.17315 13.6207C2.10606 13.2431 2.05726 12.8688 2.04354 12.7086C2.02997 12.5483 1.99215 11.9996 2.00145 11.8886C2.0106 11.777 2.00496 11.7597 2.00496 11.7597ZM10.1308 12.6595C10.1944 12.6478 10.2257 12.6531 10.3017 12.6728C10.326 12.6787 10.337 12.692 10.3173 12.7139C10.3025 12.7291 10.2796 12.7416 10.2627 12.7528C10.249 12.7626 10.2375 12.7717 10.2217 12.7818C10.1929 12.8013 10.1712 12.8247 10.1409 12.843C10.1127 12.8602 10.0849 12.8767 10.0572 12.8945C9.98108 12.9427 9.90667 12.9934 9.83393 13.046C9.66316 13.1686 9.47012 13.218 9.30346 13.2574C9.13604 13.2975 8.90305 13.286 8.77283 13.2816C8.79817 13.2471 8.86386 13.193 8.93996 13.135L9.09716 13.0185C9.22554 12.9239 9.41446 12.8617 9.47988 12.83C9.54453 12.7987 9.64562 12.7499 9.72323 12.733C9.80039 12.7163 9.80664 12.7018 9.87541 12.6892C9.95515 12.6747 10.0146 12.6806 10.1308 12.6595ZM21.4782 8.26388C21.4782 8.26388 21.6652 8.7232 21.7037 8.86336C21.7427 9.00383 21.747 9.13297 21.747 9.13297C21.4804 9.29518 21.3147 9.41224 21.1345 9.55709C20.9542 9.70209 20.7426 9.8421 20.6584 9.91052C20.5744 9.97924 19.2291 10.995 19.1724 11.0395C19.094 11.1012 19.0095 11.2347 18.9752 11.2851C18.9368 11.3421 18.9095 11.3665 18.9812 11.4045C19.0527 11.4421 20.7385 12.0517 20.946 12.1169C21.1529 12.1822 21.6463 12.3725 21.734 12.4075C21.8217 12.4429 21.8975 12.4865 21.8975 12.4865C21.9072 12.6113 21.9167 12.7106 21.9156 12.8706C21.9147 13.0301 21.9071 13.168 21.885 13.2366C21.7078 13.176 21.3876 13.0405 21.2369 12.9795C21.086 12.9179 20.6603 12.7603 20.4686 12.6919C20.2771 12.6243 19.9348 12.4953 19.7644 12.4306C19.5925 12.3664 18.6116 11.9947 18.5292 11.9733C18.5506 11.8469 18.5545 11.6201 18.571 11.52C18.5881 11.4202 18.5608 11.2332 18.5496 11.1353C18.5384 11.0373 18.5378 10.8894 18.5321 10.8444C18.5224 10.7767 18.5533 10.7618 18.6103 10.716C18.6664 10.6707 18.9283 10.4324 19.0893 10.301C19.2507 10.1699 21.2569 8.45253 21.313 8.40692C21.3694 8.36161 21.4782 8.26388 21.4782 8.26388ZM14.2296 12.61C14.3224 12.611 14.4825 12.6018 14.645 12.661C14.8083 12.7208 14.9837 12.8167 15.1012 12.8679C15.2182 12.9196 15.3946 13.0052 15.4515 13.0471C15.5074 13.0895 15.5372 13.1398 15.5372 13.1398C15.367 13.1487 15.1675 13.1455 14.9798 13.1122C14.7918 13.0792 14.5954 13.0147 14.4762 12.9607C14.3565 12.9066 14.1049 12.7898 14.0288 12.7315C13.954 12.6728 13.9433 12.6234 13.9433 12.6234C14.0468 12.5988 14.1368 12.6086 14.2296 12.61ZM12.0824 10.6977C12.2068 10.8619 12.3658 11.1158 12.478 11.2797C12.5904 11.4437 12.727 11.6647 12.7862 11.7438C12.8056 11.7693 12.8243 11.7958 12.84 11.8233C12.8516 11.8443 12.8582 11.8654 12.8733 11.8855C12.8812 11.8962 12.8829 11.895 12.8777 11.9066C12.8602 11.9513 12.8179 11.9886 12.7883 12.0272C12.7586 12.0652 12.7301 12.1048 12.7029 12.1451C12.6581 12.2105 12.6171 12.2785 12.5726 12.344C12.5627 12.3591 12.5506 12.3724 12.5416 12.388C12.4486 12.5486 12.3981 12.6242 12.3658 12.6833C12.3339 12.7425 12.2681 12.8168 12.2295 12.8757C12.192 12.9345 12.1472 12.9863 12.0808 13.0672C11.9468 12.8852 11.7464 12.6094 11.624 12.4338C11.5007 12.2583 11.3578 11.9695 11.2812 11.858C11.4575 11.6302 11.5577 11.5008 11.6228 11.4093C11.7073 11.291 11.8509 11.0807 11.9428 10.9274C12.0348 10.7749 12.0824 10.6977 12.0824 10.6977ZM9.24373 11.6704C9.36648 11.6784 9.51271 11.6859 9.61548 11.6849C9.71962 11.6838 9.86646 11.7167 9.96633 11.7379C10.0596 11.7574 10.2069 11.7868 10.2631 11.8293C10.3199 11.8711 10.3109 11.8638 10.3591 11.899C10.1963 11.9436 10.1427 11.9688 10.0423 12.003C9.94254 12.0371 9.90717 12.0236 9.81416 12.0732C9.53024 12.1709 9.31509 12.1893 9.13242 12.1948C8.9496 12.1998 8.73095 12.2029 8.51854 12.1856C8.30645 12.1685 8.11829 12.1202 8.03275 12.1146C7.9716 12.11 7.88332 12.0762 7.86075 12.0717C7.83757 12.0673 7.83132 12.0546 7.90863 12.0117C7.98624 11.9684 8.05501 11.9688 8.10914 11.9436C8.2116 11.8959 8.28678 11.874 8.35981 11.8462C8.46594 11.8055 8.63793 11.7586 8.79072 11.7176C8.94228 11.6773 9.12129 11.6619 9.24373 11.6704ZM14.9383 11.5163C15.1152 11.5263 15.1891 11.5287 15.3198 11.5401C15.4503 11.5515 15.5694 11.5642 15.683 11.5952C15.7971 11.6251 15.9967 11.6715 16.108 11.7097C16.2178 11.7477 16.2598 11.7834 16.2864 11.8079C16.3126 11.8328 16.3403 11.8654 16.3403 11.8654C16.1592 11.9273 15.8863 12.0105 15.6371 12.034C15.389 12.0581 15.1835 12.0637 14.8823 12.0661C14.5815 12.0687 14.3261 12.0411 14.2296 12.0241C14.1328 12.0077 14.0629 11.9831 14.0173 11.9746C13.9716 11.9666 13.8578 11.9303 13.8318 11.9001L13.7978 11.8662C13.7757 11.8415 13.7658 11.8142 13.8342 11.7932C13.9367 11.7624 14.3627 11.607 14.5143 11.5662C14.6663 11.5263 14.8398 11.51 14.9383 11.5163ZM21.9531 9.99646C21.9511 10.089 21.9531 10.2152 21.9549 10.2513C21.965 10.4325 22.0004 10.8214 22.0004 11.045C22.0004 11.1598 22.0004 11.2927 21.9966 11.3779C21.993 11.4629 21.9874 11.6156 21.9818 11.688C21.883 11.6345 21.6745 11.5818 21.5509 11.5339C21.427 11.4859 20.5973 11.2069 20.5143 11.1808C20.4457 11.1589 20.4079 11.1589 20.3855 11.1447C20.3637 11.1309 20.4683 11.0868 20.5064 11.0482C20.5436 11.0095 21.7767 10.0741 21.8371 10.0253C21.8974 9.97743 21.9549 9.90161 21.9531 9.99646ZM14.9724 10.3307C14.8339 10.5125 14.7447 10.6411 14.5717 10.7669C14.3984 10.8926 14.2222 11.0152 14.1203 11.0462C14.0175 11.0773 13.9126 11.1111 13.8472 11.1292C13.8053 11.1413 13.7644 11.1561 13.721 11.1632C13.6906 11.1677 13.6492 11.1818 13.6542 11.1394C13.6577 11.1111 13.6702 11.0792 13.6833 11.0536C13.7048 11.0093 13.7246 10.9518 13.7536 10.9101C13.782 10.8672 13.8228 10.8389 13.8631 10.8078C13.9558 10.7362 14.0517 10.6666 14.1607 10.6211C14.2879 10.569 14.3342 10.5233 14.4326 10.477C14.5312 10.4301 14.5971 10.4017 14.7127 10.3737C14.8271 10.3461 14.9178 10.3343 14.9724 10.3307ZM9.03257 10.4482C9.0992 10.461 9.09432 10.463 9.12817 10.4758C9.1579 10.4866 9.46789 10.5397 9.58927 10.5799C9.7114 10.6195 9.82546 10.6249 10.0017 10.7627C10.1772 10.9 10.3381 11.0104 10.4152 11.0566L10.4837 11.0969C10.5371 11.1297 10.5682 11.158 10.4794 11.1605C10.3312 11.1477 10.1342 11.1366 9.92853 11.0792C9.72238 11.0215 9.55267 10.9687 9.42184 10.8773C9.29193 10.7868 9.17163 10.7266 9.07236 10.6504C9.01259 10.6053 8.96029 10.5343 8.94276 10.5136C8.92629 10.4947 8.90021 10.4497 8.90021 10.4497C8.97691 10.4387 8.98941 10.4434 9.03257 10.4482ZM9.66031 9.35622C9.81004 9.41286 9.84877 9.44397 9.95596 9.48732C10.0625 9.53067 10.1598 9.61722 10.1995 9.64259C10.2393 9.66645 10.3181 9.72793 10.3448 9.75844C10.3727 9.79001 10.4062 9.82595 10.493 9.91401C10.5793 10.0022 10.6686 10.1193 10.74 10.262C10.8098 10.4046 10.8451 10.5041 10.8522 10.5448C10.8547 10.5568 10.8609 10.618 10.8609 10.618C10.7615 10.5725 10.6241 10.4887 10.5464 10.4469C10.4681 10.4055 10.3573 10.3517 10.2574 10.2795C10.1575 10.2078 10.0389 10.1199 9.96008 10.0342C9.87988 9.9492 9.8413 9.91038 9.75866 9.76433C9.67616 9.61797 9.59962 9.45862 9.57111 9.40606C9.54305 9.3532 9.51072 9.30018 9.66031 9.35622ZM2.59592 8.6619C2.6833 8.71039 2.79521 8.74588 2.9021 8.80781C3.00853 8.86928 4.14099 9.38403 4.41942 9.50531C4.69815 9.62644 5.66426 10.016 5.71061 10.0306C5.76444 10.0478 5.80957 10.0682 5.80957 10.0682C5.76002 10.1913 5.74949 10.2823 5.74187 10.3582C5.7344 10.4347 5.71336 10.5239 5.71717 10.5522C5.71915 10.5816 5.71 10.6108 5.71 10.6108C5.55845 10.5509 4.98385 10.3048 4.38093 10.0449L4.01893 9.88862C3.36062 9.60414 2.76356 9.3446 2.75313 9.33947C2.73209 9.32814 2.41585 9.23434 2.41585 9.23434C2.4221 9.11986 2.47669 8.89163 2.50108 8.83922C2.52548 8.78681 2.59592 8.6619 2.59592 8.6619ZM14.306 9.57184C14.2668 9.64313 14.2015 9.80928 14.1202 9.90776C14.0385 10.0067 13.9989 10.0603 13.8654 10.1656C13.7322 10.2709 13.5777 10.3905 13.4716 10.4343C13.3653 10.4782 13.2909 10.4752 13.2909 10.4752C13.3397 10.3002 13.4897 10.0275 13.7381 9.82378C13.9859 9.61836 13.9621 9.62969 14.0946 9.5726C14.2271 9.51551 14.2305 9.50312 14.3183 9.46581C14.4054 9.4282 14.3439 9.5007 14.306 9.57184ZM10.5214 8.48707C10.6333 8.59854 10.6996 8.69989 10.7978 8.82737C10.8967 8.9553 10.9916 9.12628 11.0214 9.1953C11.0505 9.26523 11.1016 9.32595 11.1245 9.39785C11.1513 9.48318 11.1748 9.53121 11.1862 9.59646C11.1996 9.67516 11.2199 9.77001 11.2265 9.86003C11.2321 9.9499 11.2213 10.041 11.2213 10.041C11.0574 9.8703 10.8845 9.6167 10.7989 9.43681C10.7144 9.25662 10.6533 9.08353 10.6094 8.93989C10.5656 8.79731 10.535 8.64265 10.5226 8.57634C10.5107 8.50973 10.5214 8.48707 10.5214 8.48707ZM20.4711 6.68256C20.5359 6.7475 20.5744 6.79478 20.6489 6.91017C20.7219 7.02587 20.7946 7.10743 20.8181 7.15229C20.8419 7.1976 20.9012 7.30544 20.9213 7.32674C20.5866 7.59831 20.6606 7.5391 20.6011 7.58064C20.5427 7.62293 20.4416 7.72926 20.4294 7.74557C20.4099 7.77352 20.3582 7.85009 20.2821 7.91716C20.2054 7.98437 18.6726 9.6375 18.6207 9.68795C18.5678 9.73885 18.5224 9.79322 18.4904 9.82887C18.458 9.86451 18.3522 9.93958 18.3005 9.98036C18.2624 9.85288 18.1988 9.52271 18.1819 9.44266C18.1631 9.362 18.1506 9.22139 18.1259 9.18604C18.1932 9.12668 18.1975 9.1001 18.2491 9.05464C18.2725 9.03404 18.4107 8.8849 18.565 8.71898L18.7515 8.51895C18.8726 8.38977 18.9787 8.27844 19.0192 8.24219C19.0683 8.19769 19.1868 8.08229 19.3082 7.96211L19.4841 7.78651C19.5648 7.70518 19.6284 7.63975 19.6469 7.6181C19.7029 7.55209 19.7816 7.40785 19.8442 7.34124C19.9078 7.27448 20.2881 6.82483 20.3445 6.78013C20.4018 6.73542 20.4711 6.68256 20.4711 6.68256ZM13.408 8.47415C13.408 8.47415 13.3455 8.89041 13.2909 9.05202C13.2404 9.20457 13.1899 9.34308 13.1026 9.53248C13.0146 9.72355 12.8601 9.87504 12.759 9.95721C12.7223 9.97035 12.7075 9.96415 12.6956 9.94558C12.6842 9.927 12.6739 9.86689 12.6739 9.83124C12.6733 9.77415 12.6617 9.7752 12.6881 9.6802C12.7163 9.5852 12.7648 9.36181 12.8 9.26016C12.8351 9.15805 12.9231 8.9682 13.0089 8.88996C13.0934 8.81172 13.2707 8.58184 13.408 8.47415ZM12.0211 7.39638C12.1483 7.57839 12.1523 7.68381 12.2017 7.88183C12.2515 8.07954 12.2607 8.39808 12.2634 8.49339C12.2665 8.57435 12.264 8.61573 12.2625 8.74487C12.2619 8.82688 12.2334 8.99982 12.2261 9.08879C12.2186 9.1779 12.1951 9.28091 12.1869 9.37123C12.1779 9.46971 12.1613 9.50853 12.1419 9.55384C12.1193 9.60806 12.1006 9.63948 12.1006 9.63948C12.0478 9.72406 12.0478 9.73962 11.9957 9.66153C11.9641 9.61214 11.8965 9.33468 11.8627 9.19769C11.829 9.06175 11.8 8.71814 11.8101 8.43131C11.8174 8.22393 11.833 8.01942 11.8523 7.89708C11.8702 7.77459 11.8979 7.52583 12.0211 7.39638ZM5.54824 6.95822C5.57934 6.95429 5.60328 7.02785 5.61014 7.0496C5.6164 7.07135 5.88415 7.8705 5.92867 8.04299C5.97228 8.21532 6.19109 9.02656 6.18575 9.05692C6.18057 9.08682 6.19932 9.12338 6.17325 9.15524C6.17325 9.15524 6.0194 9.11688 5.96877 9.07731C5.94597 9.05973 5.40994 8.77887 4.82646 8.47415L4.47441 8.29037C3.89058 7.9857 3.35247 7.70506 3.32586 7.68789C3.2673 7.65013 3.15843 7.61962 3.08631 7.56887C3.08631 7.56887 3.2237 7.49456 3.29948 7.46798C3.33623 7.45529 3.41872 7.42765 3.53445 7.40333C3.65079 7.37871 5.48237 6.96773 5.54824 6.95822ZM19.849 6.0734C19.8843 6.06615 19.8391 6.103 19.7644 6.15979C19.6896 6.21658 19.5494 6.35599 19.4468 6.42396C19.3443 6.49223 18.7006 7.26888 18.5505 7.44997C18.3999 7.63077 17.937 8.20049 17.8969 8.26891C17.8461 8.3322 17.8288 8.34383 17.831 8.31921C17.8247 8.18735 17.8333 8.04477 17.8375 7.97544C17.8417 7.90627 17.8629 7.70342 17.8629 7.64179C17.8629 7.58017 17.8895 7.21873 17.8921 7.09866C17.894 6.97737 17.9367 6.49767 17.9344 6.44601C18.1506 6.38122 18.3547 6.36128 18.4985 6.33862C18.6434 6.31627 19.5695 6.12973 19.6606 6.11387C19.7515 6.09847 19.8138 6.0808 19.849 6.0734ZM6.63069 6.49702C6.7176 6.50638 8.13382 6.64685 8.17835 6.65939C8.22287 6.67238 8.30246 6.68174 8.33144 6.7127C8.10775 6.84003 7.82993 7.0397 7.50332 7.34088C7.17687 7.64175 6.75846 8.1139 6.70677 8.17673C6.69159 8.10094 6.66479 7.9062 6.63907 7.70362L6.60291 7.40774C6.58682 7.27074 6.57493 7.16059 6.57259 7.12414C6.56512 7.01508 6.46052 6.50185 6.46052 6.50185C6.5238 6.5014 6.54393 6.48796 6.63069 6.49702ZM17.1524 6.47303C17.1453 6.6058 17.1169 7.61459 17.1187 7.66715C17.1209 7.71881 17.1372 7.80747 17.1039 7.77862C16.9972 7.68679 16.802 7.50192 16.652 7.3693C16.5033 7.23639 16.2375 7.02206 16.1241 6.92615C16.0104 6.82964 15.8496 6.68721 15.8175 6.6795C15.9472 6.61833 16.1474 6.60519 16.2501 6.58103C16.3528 6.55686 16.8894 6.45249 16.9449 6.43059C17.0131 6.40355 17.0695 6.38392 17.0983 6.37924C17.1713 6.3664 17.1594 6.34057 17.1524 6.47303ZM5.61103 4.44529C5.64198 4.46357 5.64366 4.48486 5.66836 4.55057C5.69748 4.64043 5.8059 5.38461 5.82023 5.4852C5.83411 5.58549 5.89738 5.90721 5.90242 5.95207C5.82343 5.97246 4.35308 6.23934 4.26479 6.27016C4.21142 6.28888 4.03379 6.29719 3.96959 6.32619C3.91622 6.35006 3.86941 6.3641 3.86941 6.3641C3.95938 6.21654 4.14616 5.92578 4.25275 5.78879C4.35841 5.6524 4.69356 5.22617 4.87273 5.06017C5.05158 4.89388 5.33565 4.62639 5.41494 4.55721C5.46288 4.51589 5.49781 4.48805 5.51808 4.47239L5.5386 4.45692C5.5665 4.44605 5.61103 4.44529 5.61103 4.44529ZM17.2367 3.64718C17.2352 3.6781 17.2292 3.77008 17.2208 3.89476L17.2016 4.17928C17.1736 4.59435 17.1393 5.10737 17.1399 5.18024C17.1408 5.2988 17.101 5.36224 17.075 5.41193C16.9916 5.47552 16.9432 5.51388 16.8365 5.545C16.7299 5.57611 15.4883 6.09101 15.409 6.1117C15.33 6.13209 15.2806 6.13179 15.2806 6.13179C15.4172 5.91233 15.7899 5.33535 15.9356 5.13508C16.081 4.93525 16.5703 4.28502 16.682 4.14878C16.7933 4.01285 17.1561 3.54115 17.2165 3.47122C17.2785 3.40174 17.2438 3.50248 17.2367 3.64718ZM6.38292 4.06378C6.43202 4.11679 8.88541 5.96764 8.95982 6.02881C9.0359 6.09058 9.07387 6.12517 9.03758 6.12457C8.8787 6.12653 6.97759 5.79288 6.88183 5.77189C6.78684 5.75135 6.60859 5.72673 6.60859 5.72673C6.56453 5.40441 6.4555 4.8948 6.42043 4.72186C6.38445 4.54816 6.31614 4.26058 6.29921 4.12676C6.27985 3.97965 6.28884 3.96213 6.38292 4.06378ZM15.4619 2.62151C15.6114 2.61291 15.8375 2.73842 15.9572 2.78192C16.0775 2.82481 16.2016 2.92948 16.2484 2.95803C16.2962 2.98597 16.3375 3.01392 16.3375 3.01392C16.1769 3.24199 16.1191 3.32385 16.0923 3.37218C16.0356 3.47867 15.6806 3.88949 15.5845 4.00987C15.4886 4.13086 15.3776 4.32388 15.2659 4.44668C15.1542 4.56963 14.614 5.33525 14.5285 5.45246C14.4438 5.57027 14.3897 5.66255 14.369 5.7059C14.3292 5.78943 14.3403 5.81676 14.2781 5.79758C14.2052 5.77538 14.0119 5.71194 13.9146 5.68793C13.8172 5.66421 13.6072 5.61407 13.6072 5.61407C13.6682 5.51393 13.7604 5.38162 13.8118 5.29749C13.8626 5.21291 14.7538 3.75401 14.8307 3.63816C14.9075 3.52186 15.2219 3.04714 15.2794 2.95441C15.3368 2.86061 15.4619 2.62151 15.4619 2.62151ZM7.67302 3.13197C7.71663 3.18891 8.42565 3.86512 8.56929 3.98852C8.81447 4.19952 9.29067 4.61307 9.46114 4.76244C9.63085 4.91182 9.95608 5.23369 10.0572 5.32507C10.1587 5.41735 10.3438 5.59921 10.3563 5.61174C10.3701 5.62473 10.3923 5.66642 10.3923 5.66642C10.2493 5.69738 9.9727 5.76475 9.92025 5.77909C9.86887 5.79359 9.87085 5.81247 9.84584 5.79239C9.83258 5.78227 9.6528 5.65494 9.56162 5.58289C9.46891 5.511 7.24089 3.5721 7.19469 3.53917C7.14879 3.50549 7.15276 3.49341 7.18478 3.47513C7.21665 3.45776 7.51581 3.25476 7.58351 3.1939C7.6503 3.13287 7.67302 3.13197 7.67302 3.13197ZM18.1273 3.93095C18.1543 3.96147 18.1455 3.94077 18.2011 4.00164C18.2568 4.06281 18.4183 4.18908 18.4895 4.27955C18.5611 4.37093 19.1566 5.02343 19.234 5.11224C19.3107 5.20029 19.3728 5.29182 19.433 5.36689C19.4925 5.44256 19.5382 5.52246 19.5382 5.52246C19.4144 5.53893 19.4028 5.53893 19.328 5.55584C19.2763 5.56747 17.8953 5.74736 17.8953 5.74736C17.8953 5.74736 17.909 5.56052 17.9134 5.47549C17.9178 5.3906 17.9901 4.33861 18.011 4.24618C18.0365 4.13154 18.0328 4.09287 18.0462 3.99575C18.0531 3.94651 18.0453 3.91041 18.0691 3.89002C18.0866 3.87567 18.1078 3.9083 18.1273 3.93095ZM13.5581 2.10745C13.6474 2.12557 13.7235 2.13041 13.7825 2.14687C13.8496 2.16636 14.0204 2.18644 14.068 2.19702C14.1159 2.20729 14.1499 2.23644 14.1499 2.23644C14.1002 2.29746 14.0849 2.37539 14.0358 2.49305C13.9875 2.61132 13.7525 3.16639 13.6395 3.43645C13.5261 3.70666 13.0644 5.05681 13.0128 5.14637C12.9613 5.23594 12.8823 5.36689 12.8617 5.42036C12.721 5.39166 11.6181 5.43259 11.6181 5.43259C11.6012 5.41855 11.5652 5.37188 11.5166 5.33563C11.4684 5.29953 10.6764 4.50868 10.5622 4.39933C10.4481 4.29043 9.23486 3.12652 9.17067 3.04782C9.12126 2.9868 8.95811 2.87745 8.86098 2.77248C8.81737 2.72445 8.77635 2.69107 8.86967 2.6601C8.96299 2.62944 9.17265 2.54305 9.31003 2.50378C9.44635 2.46496 9.49285 2.44971 9.49285 2.44971C9.69657 2.70738 9.94816 2.93998 10.1644 3.1534C10.2508 3.23895 10.498 3.47639 10.7717 3.7388L11.0493 4.00485C11.3719 4.31398 11.6698 4.59955 11.7299 4.66002C11.7685 4.69886 11.831 4.7672 11.8994 4.84385L12.0392 5.00196C12.1535 5.13248 12.2518 5.24681 12.2518 5.24681C12.3351 5.12674 12.8861 3.52285 12.9407 3.43116C12.9951 3.34009 13.3579 2.52205 13.3858 2.44971C13.4135 2.37736 13.5581 2.10745 13.5581 2.10745ZM12.634 2C12.5412 2.34784 11.9859 3.80689 11.9859 3.80689C11.8642 3.64951 11.5943 3.35573 11.3606 3.09217C11.1272 2.82906 10.8591 2.50629 10.7919 2.43907C10.7257 2.3708 10.5558 2.17823 10.5558 2.17823C10.8484 2.09576 10.9869 2.08504 11.2049 2.06359C11.5009 2.03534 11.8418 2.02613 12.0135 2.01556C12.1806 2.00483 12.3211 2.00483 12.4275 2.00408C12.535 2.00378 12.634 2 12.634 2Z" fill="#473729"/>
</svg>
