<svg width="24" height="24" viewBox="0 0 24 24" fill="none" xmlns="http://www.w3.org/2000/svg">
<g clip-path="url(#clip0_10496_10862)">
<path d="M7 20C6.45 20 5.97917 19.8042 5.5875 19.4125C5.19583 19.0208 5 18.55 5 18V8C5 7.45 5.19583 6.97917 5.5875 6.5875C5.97917 6.19583 6.45 6 7 6H12V8H7V18H17V13H19V18C19 18.55 18.8042 19.0208 18.4125 19.4125C18.0208 19.8042 17.55 20 17 20H7ZM12.7 13.7L11.3 12.3L17.6 6H14V4H21V11H19V7.4L12.7 13.7Z" fill="#323232"/>
</g>
<defs>
<clipPath id="clip0_10496_10862">
<rect width="24" height="24" fill="white"/>
</clipPath>
</defs>
</svg>
