<svg width="48" height="48" viewBox="0 0 48 48" fill="none" xmlns="http://www.w3.org/2000/svg">
<path d="M24.8496 30.7097C24.2996 30.7097 23.8496 30.2597 23.8496 29.7097V27.7397C23.8496 27.1897 24.2996 26.7397 24.8496 26.7397C25.3996 26.7397 25.8496 27.1897 25.8496 27.7397V29.7097C25.8496 30.2597 25.3996 30.7097 24.8496 30.7097Z" fill="#323232"/>
<path d="M14.9492 30.7096C14.3992 30.7096 13.9492 30.2596 13.9492 29.7096V27.8496C13.9492 27.2996 14.3992 26.8496 14.9492 26.8496C15.4992 26.8496 15.9492 27.2996 15.9492 27.8496V29.7096C15.9492 30.2596 15.4992 30.7096 14.9492 30.7096Z" fill="#323232"/>
<path d="M19.9701 30.6298C17.5201 30.6298 15.8001 29.4898 15.7001 29.4198C13.4401 28.0898 11.7401 25.8798 11.0201 23.3198C9.19008 22.8898 8.08008 20.9598 8.08008 18.0698C8.08008 16.9898 8.46008 15.5298 9.30008 14.6898C9.49008 14.4998 9.71008 14.3398 9.93008 14.2198V12.4498C9.93008 5.80984 15.0901 2.83984 20.2101 2.83984C24.6701 2.83984 29.8701 5.36984 29.8701 12.4998V14.1198C31.7301 14.7298 31.7301 17.0598 31.7301 18.0198C31.7301 21.8198 30.1001 22.9198 28.9001 23.2198C28.1201 25.7698 26.4801 27.9598 24.2201 29.4298C22.6901 30.3298 21.2301 30.6298 19.9701 30.6298ZM10.9201 15.9898C10.9201 15.9898 10.8201 15.9898 10.7001 16.1098C10.3401 16.4598 10.0701 17.3298 10.0701 18.0798C10.0701 19.0798 10.2401 21.4098 11.8201 21.4098C12.2901 21.4098 12.7001 21.7398 12.8001 22.2098C13.2801 24.5198 14.7301 26.5398 16.7701 27.7398C16.9401 27.8498 19.8101 29.7098 23.1801 27.7398C25.1601 26.4498 26.5801 24.4398 27.1501 22.0998C27.2601 21.6598 27.6501 21.3398 28.1101 21.3298C29.4601 21.3098 29.7401 19.5298 29.7401 18.0398C29.7401 16.1898 29.4801 15.9898 28.8801 15.9898C28.3301 15.9898 27.8801 15.5398 27.8801 14.9898V12.5098C27.8801 5.39984 22.0201 4.84984 20.2201 4.84984C16.4001 4.84984 11.9401 6.83984 11.9401 12.4598V14.9898C11.9401 15.2598 11.8301 15.5098 11.6501 15.6998C11.4701 15.8898 11.1601 15.9998 10.9401 15.9898H10.9201Z" fill="#323232"/>
<path d="M24.6797 39.8798H5.17967C4.64967 39.8798 4.20967 39.4598 4.17967 38.9298C4.07967 36.9298 5.22967 32.7598 10.2897 31.2298L12.7397 30.4498C13.2097 30.2998 13.7197 30.5198 13.9397 30.9598C13.9897 31.0498 15.3197 33.4998 19.9097 33.4998C23.4297 33.4998 25.0197 31.7698 25.0897 31.6998C25.4597 31.2898 26.0897 31.2498 26.4997 31.6198C26.9097 31.9798 26.9597 32.6098 26.5997 33.0198C26.5097 33.1198 24.3997 35.4998 19.9197 35.4998C15.4397 35.4998 13.5197 33.6498 12.6497 32.5798L10.8897 33.1398C7.45967 34.1698 6.52967 36.5398 6.27967 37.8798H24.6997C25.2497 37.8798 25.6997 38.3298 25.6997 38.8798C25.6997 39.4298 25.2497 39.8798 24.6997 39.8798H24.6797Z" fill="#323232"/>
<path d="M34.9999 45.0999C39.3243 45.0999 42.8299 41.5943 42.8299 37.2699C42.8299 32.9456 39.3243 29.4399 34.9999 29.4399C30.6755 29.4399 27.1699 32.9456 27.1699 37.2699C27.1699 41.5943 30.6755 45.0999 34.9999 45.0999Z" fill="#DF0000"/>
<path d="M33.769 40.44C33.599 40.44 33.429 40.37 33.309 40.25L31.209 38.15C30.959 37.9 30.959 37.48 31.209 37.23C31.459 36.98 31.879 36.98 32.129 37.23L33.769 38.87L38.349 34.29C38.599 34.04 39.019 34.04 39.269 34.29C39.519 34.54 39.519 34.96 39.269 35.21L34.229 40.25C34.109 40.37 33.939 40.44 33.769 40.44Z" fill="white"/>
<path d="M28.8806 14.7298C28.3606 14.7298 27.9206 14.3198 27.8806 13.7998C27.8506 13.3898 27.4806 9.76979 23.9206 9.76979C22.0206 9.76979 20.8806 10.6098 19.4406 11.6798C17.6106 13.0398 15.3206 14.7398 10.8906 14.7398C10.3406 14.7398 9.89062 14.2898 9.89062 13.7398C9.89062 13.1898 10.3406 12.7398 10.8906 12.7398C14.6606 12.7398 16.4806 11.3898 18.2506 10.0798C19.7806 8.94978 21.3606 7.77979 23.9206 7.77979C28.3206 7.77979 29.7406 11.6398 29.8806 13.6798C29.9206 14.2298 29.5006 14.7098 28.9506 14.7398C28.9306 14.7398 28.9106 14.7398 28.8806 14.7398V14.7298Z" fill="#323232"/>
</svg>
