<svg width="48" height="48" viewBox="0 0 48 48" fill="none" xmlns="http://www.w3.org/2000/svg">
<path d="M33 21.6904H15C14.7348 21.6904 14.4804 21.5851 14.2929 21.3975C14.1054 21.21 14 20.9556 14 20.6904C14 20.4252 14.1054 20.1709 14.2929 19.9833C14.4804 19.7958 14.7348 19.6904 15 19.6904H33C33.2652 19.6904 33.5196 19.7958 33.7071 19.9833C33.8946 20.1709 34 20.4252 34 20.6904C34 20.9556 33.8946 21.21 33.7071 21.3975C33.5196 21.5851 33.2652 21.6904 33 21.6904Z" fill="#DF0000"/>
<path d="M33 29.2402H15C14.7348 29.2402 14.4804 29.1349 14.2929 28.9473C14.1054 28.7598 14 28.5055 14 28.2402C14 27.975 14.1054 27.7207 14.2929 27.5331C14.4804 27.3456 14.7348 27.2402 15 27.2402H33C33.2652 27.2402 33.5196 27.3456 33.7071 27.5331C33.8946 27.7207 34 27.975 34 28.2402C34 28.5055 33.8946 28.7598 33.7071 28.9473C33.5196 29.1349 33.2652 29.2402 33 29.2402Z" fill="#DF0000"/>
<path d="M33 37.5801H15C14.7348 37.5801 14.4804 37.4747 14.2929 37.2872C14.1054 37.0996 14 36.8453 14 36.5801C14 36.3149 14.1054 36.0605 14.2929 35.873C14.4804 35.6854 14.7348 35.5801 15 35.5801H33C33.2652 35.5801 33.5196 35.6854 33.7071 35.873C33.8946 36.0605 34 36.3149 34 36.5801C34 36.8453 33.8946 37.0996 33.7071 37.2872C33.5196 37.4747 33.2652 37.5801 33 37.5801Z" fill="#DF0000"/>
<path d="M38.0806 46.0002H9.92063C9.31674 45.9976 8.73834 45.7565 8.31133 45.3295C7.88431 44.9025 7.64326 44.3241 7.64062 43.7202V11.7202C7.64588 11.1181 7.88809 10.5422 8.31483 10.1173C8.74156 9.69248 9.31846 9.4528 9.92063 9.4502H15.0006C15.2658 9.4502 15.5202 9.55555 15.7077 9.74309C15.8953 9.93063 16.0006 10.185 16.0006 10.4502C16.0006 10.7154 15.8953 10.9698 15.7077 11.1573C15.5202 11.3448 15.2658 11.4502 15.0006 11.4502H9.92063C9.84716 11.4527 9.77738 11.483 9.7254 11.535C9.67342 11.5869 9.64312 11.6567 9.64063 11.7302V43.7302C9.64063 43.8045 9.67012 43.8757 9.72263 43.9282C9.77515 43.9807 9.84636 44.0102 9.92063 44.0102H38.0806C38.1174 44.0102 38.1538 44.003 38.1878 43.9889C38.2218 43.9748 38.2526 43.9542 38.2786 43.9282C38.3046 43.9022 38.3252 43.8713 38.3393 43.8373C38.3534 43.8034 38.3606 43.767 38.3606 43.7302V11.7302C38.3581 11.6567 38.3278 11.5869 38.2759 11.535C38.2239 11.483 38.1541 11.4527 38.0806 11.4502H33.0006C32.7354 11.4502 32.4811 11.3448 32.2935 11.1573C32.106 10.9698 32.0006 10.7154 32.0006 10.4502C32.0006 10.185 32.106 9.93063 32.2935 9.74309C32.4811 9.55555 32.7354 9.4502 33.0006 9.4502H38.0806C38.6845 9.45283 39.2629 9.69389 39.6899 10.1209C40.1169 10.5479 40.358 11.1263 40.3606 11.7302V43.7302C40.3554 44.3323 40.1132 44.9082 39.6864 45.333C39.2597 45.7579 38.6828 45.9976 38.0806 46.0002Z" fill="#323232"/>
<path d="M29.6394 8.64H18.3594V7.64C18.3594 6.14418 18.9536 4.70962 20.0113 3.65192C21.069 2.59421 22.5036 2 23.9994 2C25.4952 2 26.9298 2.59421 27.9875 3.65192C29.0452 4.70962 29.6394 6.14418 29.6394 7.64V8.64ZM20.4994 6.64H27.4994C27.2821 5.87938 26.823 5.21025 26.1914 4.73387C25.5599 4.25749 24.7904 3.9998 23.9994 3.9998C23.2083 3.9998 22.4388 4.25749 21.8073 4.73387C21.1758 5.21025 20.7167 5.87938 20.4994 6.64Z" fill="#323232"/>
<path d="M33 14.1104H15C14.7348 14.1104 14.4804 14.005 14.2929 13.8175C14.1054 13.6299 14 13.3756 14 13.1104V9.11035C14 8.44731 14.2634 7.81143 14.7322 7.34258C15.2011 6.87374 15.837 6.61035 16.5 6.61035H31.5C31.8308 6.61033 32.1584 6.67597 32.4637 6.80348C32.769 6.93099 33.0459 7.11783 33.2785 7.35316C33.511 7.58849 33.6945 7.86764 33.8184 8.17443C33.9422 8.48121 34.004 8.80953 34 9.14035V13.1404C33.9922 13.4003 33.8834 13.647 33.6967 13.8281C33.51 14.0092 33.2601 14.1105 33 14.1104ZM16 12.1104H32V9.11035C32 9.04515 31.987 8.98061 31.9618 8.9205C31.9365 8.86039 31.8995 8.80592 31.853 8.76028C31.8064 8.71465 31.7512 8.67877 31.6906 8.65474C31.63 8.63071 31.5652 8.61902 31.5 8.62035H16.5C16.3674 8.62035 16.2402 8.67303 16.1464 8.7668C16.0527 8.86057 16 8.98774 16 9.12035V12.1104Z" fill="#323232"/>
</svg>
