<svg width="48" height="48" viewBox="0 0 48 48" fill="none" xmlns="http://www.w3.org/2000/svg">
<path d="M37.981 18.2797C38.091 5.75975 25.731 4.39975 25.601 4.37975C25.081 4.32975 24.611 4.67974 24.521 5.19974C24.431 5.70974 24.741 6.20975 25.241 6.34975C28.201 7.14974 30.201 8.51974 31.201 10.4397C32.601 13.1297 31.551 16.0797 31.531 16.1297C31.321 16.7497 31.041 17.2997 30.731 17.7697C28.821 16.2497 26.471 15.4097 24.001 15.4097C21.531 15.4097 19.171 16.2397 17.261 17.7697C16.701 16.9897 16.441 16.3697 16.421 16.3197C15.731 14.0597 15.861 12.0797 16.801 10.4397C18.551 7.37974 22.591 6.37975 22.631 6.36975C23.161 6.23975 23.491 5.71975 23.371 5.18975C23.251 4.65975 22.741 4.30974 22.211 4.40974C10.641 6.54975 9.96095 15.6297 10.021 18.2897C7.63095 19.5797 -0.889048 24.9997 2.72095 34.7097C2.90095 35.1997 3.44095 35.4697 3.94095 35.3197C4.44095 35.1697 4.75095 34.6497 4.63095 34.1397C4.56095 33.8397 3.05095 26.8197 11.101 24.9097C11.851 24.7297 12.581 24.6697 13.301 24.7197C13.231 25.2197 13.181 25.7197 13.181 26.2297C13.181 30.3697 15.501 34.0697 19.151 35.8997C19.071 36.0297 18.991 36.1497 18.891 36.2897C18.491 36.8297 16.401 38.9297 13.361 39.2897C10.871 39.5897 8.35095 38.6697 5.86095 36.5597C5.48095 36.2397 4.92095 36.2497 4.55095 36.5797C4.18095 36.9097 4.11095 37.4697 4.38095 37.8797C4.55095 38.1297 8.49095 43.9597 15.881 43.6297C19.661 43.4597 21.371 42.5897 22.741 41.8897L22.981 41.7697C23.321 41.5997 23.661 41.4097 23.991 41.2097C24.321 41.4097 24.661 41.5997 25.001 41.7697L25.241 41.8897C26.621 42.5897 28.3309 43.4697 32.101 43.6297C32.301 43.6297 32.5009 43.6397 32.691 43.6397C39.681 43.6397 43.441 38.1097 43.601 37.8697C43.881 37.4497 43.801 36.8997 43.431 36.5697C43.061 36.2397 42.501 36.2297 42.121 36.5497C39.631 38.6597 37.111 39.5797 34.621 39.2797C31.581 38.9197 29.481 36.8197 29.091 36.2797C29.011 36.1597 28.911 36.0297 28.821 35.8897C32.471 34.0697 34.791 30.3497 34.791 26.2197C34.791 25.7097 34.741 25.2097 34.671 24.7097C35.281 24.6697 35.901 24.7097 36.531 24.8297L36.721 23.8497L36.561 24.8397C36.661 24.8597 36.771 24.8797 36.881 24.9097C44.921 26.8297 43.421 33.8497 43.351 34.1397C43.231 34.6497 43.531 35.1697 44.031 35.3297C44.531 35.4797 45.071 35.2197 45.261 34.7197C48.871 25.0197 40.371 19.5997 37.971 18.2997L37.981 18.2797ZM29.391 19.2397C27.111 21.1197 24.161 21.1097 23.971 21.1097C21.541 21.1097 19.811 20.2397 18.631 19.2297C20.161 18.0397 22.041 17.3997 24.011 17.3997C25.981 17.3997 27.861 18.0497 29.401 19.2397H29.391ZM15.191 26.2097C15.191 25.8397 15.221 25.4797 15.261 25.1197C16.501 25.5797 17.691 26.3997 18.811 27.5897C19.531 28.3597 20.691 30.0597 20.291 32.7797L20.271 32.9097C20.201 33.3897 20.161 33.6597 20.031 34.0497C17.071 32.5597 15.191 29.5697 15.191 26.2097ZM32.811 26.2097C32.811 29.5597 30.921 32.5597 27.961 34.0597C27.791 33.5997 27.771 33.3797 27.721 32.8297C27.501 30.3897 28.501 28.3197 29.191 27.5897C30.311 26.3997 31.491 25.5697 32.741 25.1097C32.791 25.4697 32.821 25.8397 32.821 26.2097H32.811ZM37.361 22.9397C37.231 22.9097 37.101 22.8797 36.961 22.8497H36.921C33.581 22.1997 30.401 23.3697 27.731 26.2197C26.571 27.4497 25.451 30.0997 25.721 33.0097C25.821 34.1097 25.891 34.3497 26.551 35.8797C26.811 36.4897 27.191 37.0297 27.491 37.4497C28.151 38.3597 30.691 40.8197 34.401 41.2597C34.691 41.2897 34.981 41.3197 35.261 41.3297C34.331 41.5597 33.311 41.6697 32.201 41.6197C28.861 41.4697 27.421 40.7397 26.161 40.0897L25.911 39.9597C25.451 39.7297 24.991 39.4597 24.561 39.1597C24.221 38.9297 23.771 38.9297 23.441 39.1597C23.011 39.4597 22.551 39.7197 22.091 39.9597L21.841 40.0897C20.571 40.7397 19.141 41.4697 15.801 41.6197C14.691 41.6697 13.671 41.5497 12.741 41.3297C13.031 41.3297 13.311 41.2997 13.601 41.2597C17.311 40.8197 19.851 38.3597 20.511 37.4497C20.941 36.8597 21.241 36.3697 21.451 35.8897C22.041 34.5497 22.111 34.1697 22.251 33.1997L22.271 33.0697C22.791 29.5197 21.241 27.2597 20.271 26.2197C17.471 23.2397 14.141 22.1097 10.641 22.9397C7.76095 23.6197 5.88095 24.8697 4.66095 26.2997C6.39095 22.4297 10.361 20.3197 11.271 19.8797C11.411 19.8497 11.541 19.7897 11.651 19.7097C11.951 19.4897 12.101 19.1197 12.051 18.7497C12.011 18.3697 11.591 14.1297 14.501 10.6397C13.811 12.4997 13.811 14.6097 14.531 16.9597C14.551 17.0197 16.931 23.1197 23.941 23.1197C26.451 23.1597 31.641 21.9297 33.411 16.7997C33.461 16.6597 34.551 13.6497 33.411 10.4897C34.991 12.3397 36.131 15.0097 35.971 18.8497C35.951 19.2597 36.191 19.6397 36.561 19.7997C36.851 19.9297 41.441 22.0497 43.341 26.2997C42.121 24.8697 40.241 23.6297 37.361 22.9397Z" fill="#323232"/>
<path d="M23.9992 23.4004C22.4492 23.4004 21.1992 24.6604 21.1992 26.2004C21.1992 27.7404 22.4592 29.0004 23.9992 29.0004C25.5392 29.0004 26.7992 27.7404 26.7992 26.2004C26.7992 24.6604 25.5392 23.4004 23.9992 23.4004ZM23.9992 27.0104C23.5592 27.0104 23.1992 26.6504 23.1992 26.2104C23.1992 25.7704 23.5592 25.4104 23.9992 25.4104C24.4392 25.4104 24.7992 25.7704 24.7992 26.2104C24.7992 26.6504 24.4392 27.0104 23.9992 27.0104Z" fill="#323232"/>
</svg>
