<svg width="48" height="48" viewBox="0 0 48 48" fill="none" xmlns="http://www.w3.org/2000/svg">
<path d="M20.2495 45C18.0695 45 16.6395 43.42 16.3395 40.68C16.1495 38.92 16.2995 33.36 19.2395 28.78C19.2495 28.76 19.2695 28.73 19.2395 28.67C19.2295 28.64 19.1695 28.56 19.0595 28.56H7.63945C5.45945 28.56 3.68945 26.79 3.68945 24.61C3.68945 23.01 4.64945 21.62 6.02945 21.01C5.56945 20.36 5.29945 19.58 5.29945 18.72C5.29945 17.12 6.25945 15.73 7.63945 15.12C7.17945 14.47 6.90945 13.69 6.90945 12.83C6.90945 11.22 7.86945 9.83998 9.24945 9.21998C8.78945 8.56998 8.51945 7.78998 8.51945 6.92998C8.51945 4.74998 10.2895 2.97998 12.4695 2.97998H26.9195C32.9195 2.97998 35.0395 6.83998 35.1295 6.99998C35.3895 7.48998 35.2095 8.08998 34.7195 8.34998C34.2295 8.60998 33.6295 8.42998 33.3695 7.93998C33.2895 7.79998 31.6495 4.96998 26.9195 4.96998H12.4695C11.3995 4.96998 10.5195 5.83998 10.5195 6.91998C10.5195 7.99998 11.3895 8.86998 12.4695 8.86998C13.0195 8.86998 13.4695 9.31998 13.4695 9.86998C13.4695 10.42 13.0195 10.87 12.4695 10.87H10.8595C9.78945 10.87 8.90945 11.74 8.90945 12.82C8.90945 13.9 9.77945 14.77 10.8595 14.77C11.4095 14.77 11.8595 15.22 11.8595 15.77C11.8595 16.32 11.4095 16.77 10.8595 16.77H9.24945C8.17945 16.77 7.29945 17.64 7.29945 18.72C7.29945 19.8 8.16945 20.67 9.24945 20.67C9.79945 20.67 10.2495 21.12 10.2495 21.67C10.2495 22.22 9.79945 22.67 9.24945 22.67H7.63945C6.56945 22.67 5.68945 23.54 5.68945 24.62C5.68945 25.7 6.55945 26.57 7.63945 26.57H19.0495C19.8495 26.57 20.5895 27.01 20.9795 27.72C21.3595 28.41 21.3295 29.21 20.9095 29.87C18.2995 33.94 18.1595 39.02 18.3195 40.47C18.5995 43.01 19.8295 43.01 20.2395 43.01C21.9595 43.01 22.3995 41.52 22.4995 40.63C22.9495 36.92 23.8595 35.18 26.2195 32.14C27.0995 31 28.2095 29.84 29.2795 28.71C31.0395 26.86 32.8495 24.94 33.2795 23.53C33.4395 23 33.9995 22.7 34.5295 22.86C35.0595 23.02 35.3595 23.58 35.1995 24.11C34.6295 25.98 32.7395 27.97 30.7295 30.08C29.6895 31.17 28.6195 32.3 27.7995 33.36C25.5095 36.32 24.8595 37.8 24.4895 40.87C24.1795 43.42 22.5495 45.01 20.2395 45.01L20.2495 45Z" fill="#323232"/>
<path d="M43.3 5.08984L43.31 26.7498H34.25V5.08984H43.3Z" fill="#DF0000"/>
<path d="M34.25 27.7498C33.7 27.7498 33.25 27.2998 33.25 26.7498V5.08984C33.25 4.81984 33.35 4.56984 33.54 4.37984C33.73 4.18984 33.98 4.08984 34.25 4.08984H43.3C43.56 4.08984 43.82 4.18984 44.01 4.37984C44.2 4.56984 44.3 4.81984 44.3 5.08984V26.7398C44.3 27.2898 43.86 27.7398 43.3 27.7398H34.25V27.7498ZM35.25 6.08984V25.7398H42.31V6.08984H35.25Z" fill="#DF0000"/>
</svg>
