<svg width="24" height="24" viewBox="0 0 24 24" fill="none" xmlns="http://www.w3.org/2000/svg">
<g clip-path="url(#clip0_16335_4067)">
<path d="M20.4851 20.4853C25.1714 15.799 25.1714 8.20101 20.4851 3.51472C15.7988 -1.17157 8.20081 -1.17157 3.51452 3.51472C-1.17177 8.20101 -1.17177 15.799 3.51452 20.4853C8.20081 25.1716 15.7988 25.1716 20.4851 20.4853Z" fill="white"/>
<mask id="mask0_16335_4067" style="mask-type:luminance" maskUnits="userSpaceOnUse" x="-1" y="0" width="25" height="24">
<path d="M20.4851 20.4853C25.1714 15.799 25.1714 8.20101 20.4851 3.51472C15.7988 -1.17157 8.20081 -1.17157 3.51452 3.51472C-1.17177 8.20101 -1.17177 15.799 3.51452 20.4853C8.20081 25.1716 15.7988 25.1716 20.4851 20.4853Z" fill="white"/>
</mask>
<g mask="url(#mask0_16335_4067)">
<path d="M29.9993 0H-6.00067V24H29.9993V0Z" fill="#FF0000"/>
<path d="M8.34287 0H-6.00067V24H8.34287V0Z" fill="#007C29"/>
<path fill-rule="evenodd" clip-rule="evenodd" d="M13.5889 9.20077C13.8447 9.65634 14.0389 10.1413 14.1689 10.6471C14.2933 11.1349 14.3575 11.6393 14.3575 12.1424C14.3575 12.6022 14.3044 13.0648 14.1996 13.5133C14.0683 14.0765 13.8531 14.6215 13.5666 15.1246C13.4632 15.3049 13.35 15.481 13.2284 15.6501L13.2256 15.6542C12.7002 16.3837 12.0168 16.9902 11.2244 17.4234C10.3398 17.907 9.34904 18.1571 8.34426 18.1571C7.25983 18.1571 6.18938 17.8636 5.25588 17.3033C4.31818 16.7415 3.54957 15.9309 3.03531 14.9695C2.80054 14.5307 2.62026 14.0583 2.50288 13.5762C2.37152 13.0368 2.31562 12.4834 2.33378 11.93C2.34916 11.5038 2.40785 11.0804 2.51266 10.6667C2.64961 10.1245 2.86761 9.59346 3.1499 9.10994C3.70609 8.15966 4.51662 7.37429 5.48785 6.84884C6.36266 6.3751 7.34787 6.12915 8.34287 6.12915C9.33786 6.12915 10.4027 6.39607 11.3069 6.90893C12.2613 7.45115 13.0537 8.2477 13.5889 9.20077ZM3.09261 11.3948C3.24074 11.3403 3.38887 11.2886 3.5384 11.2397C3.70469 11.1838 3.87239 11.1321 4.04148 11.0832C3.9185 10.9839 3.79832 10.8861 3.67954 10.7869C3.55377 10.6821 3.42939 10.5773 3.30781 10.4711C3.28685 10.5339 3.26729 10.5954 3.24912 10.6597C3.17925 10.8987 3.12614 11.1446 3.09121 11.3962L3.09261 11.3948ZM4.70947 8.40282V8.28124C4.67593 8.31338 4.64239 8.34413 4.61025 8.37627C4.58929 8.39723 4.56693 8.41959 4.54596 8.44055C4.60047 8.42797 4.65497 8.414 4.70947 8.40142V8.40282ZM8.69782 7.98917H11.6353C11.23 7.66775 10.7758 7.40364 10.2853 7.20939C9.78784 7.01374 9.25401 6.88937 8.69642 6.85304V7.98917H8.69782ZM5.88334 15.3901C5.65695 15.1875 5.45851 14.9569 5.29221 14.6998C4.89114 14.7808 4.49426 14.8787 4.10157 14.9905C4.39504 15.0743 4.6899 15.1498 4.98896 15.2168C5.28382 15.2825 5.58148 15.3398 5.88334 15.3887V15.3901ZM5.04905 7.98917H7.98651V6.85304C7.42893 6.88937 6.8951 7.01374 6.3976 7.20939C5.90709 7.40224 5.45431 7.66636 5.04765 7.98917H5.04905ZM4.95682 14.043C4.8576 13.783 4.78633 13.5077 4.7472 13.2185C4.46212 13.1682 4.17983 13.1137 3.89894 13.0522C3.62783 12.9935 3.35812 12.9278 3.08841 12.8579C3.10937 13.0172 3.13872 13.1751 3.17366 13.3303C3.2603 13.709 3.38747 14.0723 3.55097 14.4161C3.68373 14.3742 3.81649 14.335 3.95065 14.2959C4.28184 14.2023 4.61724 14.117 4.95682 14.0444V14.043ZM4.70947 12.489V11.6379C4.31958 11.7386 3.93527 11.8545 3.55936 11.9845C3.41961 12.0334 3.27986 12.0837 3.14291 12.1368C3.38887 12.2025 3.63622 12.264 3.88636 12.3199C4.15887 12.3814 4.43417 12.4387 4.70947 12.489ZM11.9763 8.28264V8.40422C12.0308 8.41679 12.0853 8.42937 12.1398 8.44335C12.1188 8.42238 12.0978 8.40002 12.0755 8.37906C12.0433 8.34692 12.0098 8.31478 11.9763 8.28264ZM11.9763 9.13369V9.30278C12.0559 9.28881 12.1384 9.27204 12.225 9.25527L12.3522 9.23012C12.2278 9.19658 12.102 9.16444 11.9763 9.13369ZM11.9763 10.0253V10.9029C12.3731 10.9993 12.7644 11.1125 13.1473 11.2383C13.2969 11.2872 13.4464 11.3403 13.5931 11.3934C13.5428 11.0412 13.459 10.7016 13.343 10.3746C13.2731 10.1748 13.1907 9.98055 13.097 9.79329C12.907 9.83801 12.7155 9.87994 12.5199 9.91907C12.3382 9.9568 12.1565 9.99034 11.9749 10.0225L11.9763 10.0253ZM11.9763 11.6379V12.489C12.253 12.4387 12.5269 12.3828 12.7994 12.3199C13.0495 12.2626 13.2969 12.2025 13.5428 12.1368C13.4045 12.0837 13.2661 12.0334 13.1264 11.9845C12.7505 11.8532 12.3662 11.7372 11.9763 11.6379ZM11.0176 15.1791C10.9491 15.2518 10.8779 15.3217 10.8024 15.3887C10.9743 15.3608 11.1448 15.33 11.3139 15.2965L11.2188 15.2588C11.1532 15.2322 11.0861 15.2057 11.0176 15.1777V15.1791ZM12.137 15.8457C11.5962 15.9771 11.0456 16.0805 10.4838 16.1559C9.89824 16.2342 9.30153 16.2803 8.69782 16.2943V17.4332C9.50416 17.3801 10.2602 17.1467 10.9282 16.7722C11.3754 16.5221 11.782 16.209 12.137 15.8443V15.8457ZM13.5973 12.8565C13.3681 12.9166 13.1376 12.9725 12.9042 13.0242C12.6834 13.0731 12.4598 13.1206 12.2362 13.1626C12.464 13.3414 12.6876 13.5217 12.9084 13.7062C13.0383 13.8152 13.1683 13.9256 13.2969 14.036C13.4073 13.7481 13.4925 13.4477 13.5526 13.1388C13.5708 13.0452 13.5861 12.9516 13.5987 12.8565H13.5973ZM7.98651 16.2943C7.38281 16.2817 6.7861 16.2342 6.20056 16.1559C5.63878 16.0805 5.08818 15.9771 4.54736 15.8457C4.87856 16.1853 5.25448 16.4801 5.66533 16.7219C6.35428 17.1258 7.14385 17.3787 7.98651 17.4346V16.2957V16.2943Z" fill="black"/>
<path fill-rule="evenodd" clip-rule="evenodd" d="M8.34289 16.2134C10.3636 16.2134 11.8924 14.7055 11.8924 12.6806V8.07178H4.79474V12.6806C4.79474 14.7055 6.32356 16.2134 8.34429 16.2134H8.34289ZM4.86741 8.12209H11.8184C11.831 8.12209 11.8421 8.13327 11.8421 8.14584V12.6806C11.8421 14.6776 10.3357 16.1631 8.34289 16.1631C6.35011 16.1631 4.84365 14.6776 4.84365 12.6806V8.14584C4.84365 8.13327 4.85483 8.12209 4.86741 8.12209Z" fill="white"/>
<path fill-rule="evenodd" clip-rule="evenodd" d="M11.7946 8.16968H4.89111V12.6807C4.89111 14.6525 6.37661 16.117 8.34284 16.117C10.3091 16.117 11.7946 14.6525 11.7946 12.6807V8.16968Z" fill="#FF0000"/>
<path fill-rule="evenodd" clip-rule="evenodd" d="M7.98651 6.27467V6.22437C7.10052 6.27747 6.26624 6.52342 5.52698 6.92449C4.76676 7.33535 4.10716 7.90691 3.5929 8.59306L3.6432 8.60983C4.15468 7.93067 4.81008 7.36609 5.56471 6.96083C6.29279 6.56954 7.1145 6.32778 7.98651 6.27467Z" fill="#FED700"/>
<path fill-rule="evenodd" clip-rule="evenodd" d="M4.14071 11.0539L4.2008 11.0372C4.06106 10.9254 3.92131 10.8108 3.78156 10.6948C3.63902 10.576 3.49788 10.4558 3.35813 10.3342L3.33997 10.3859C3.47133 10.5005 3.60409 10.6123 3.73545 10.7227C3.871 10.8359 4.00655 10.9463 4.14211 11.0553L4.14071 11.0539Z" fill="#FED700"/>
<path fill-rule="evenodd" clip-rule="evenodd" d="M2.95148 11.448L3.00458 11.4284C3.04091 11.1573 3.09681 10.8932 3.17088 10.636C3.24494 10.3817 3.33718 10.1358 3.44618 9.89818L3.39866 9.88281C3.28407 10.1316 3.18905 10.3915 3.11219 10.6584C3.03952 10.9141 2.98502 11.1783 2.95148 11.448Z" fill="#FED700"/>
<path fill-rule="evenodd" clip-rule="evenodd" d="M2.53503 11.6129C2.65661 11.5626 2.77959 11.5136 2.90257 11.4675C2.9375 11.1866 2.9934 10.9127 3.06886 10.6458C3.14433 10.3775 3.24075 10.1176 3.35534 9.86744C3.24355 9.8311 3.13175 9.79617 3.01995 9.76123C2.88859 10.0547 2.78099 10.3593 2.69854 10.6752C2.62028 10.9784 2.56438 11.2915 2.53643 11.6115L2.53503 11.6129Z" fill="#FED700"/>
<path fill-rule="evenodd" clip-rule="evenodd" d="M2.43304 11.6548L2.48474 11.6324C2.51269 11.3012 2.56999 10.977 2.65104 10.6626C2.73349 10.3454 2.8411 10.0393 2.97246 9.74584L2.92355 9.73047C2.78799 10.0365 2.6762 10.3551 2.59235 10.6849C2.51269 10.998 2.45959 11.3222 2.43164 11.652L2.43304 11.6548Z" fill="#FED700"/>
<path fill-rule="evenodd" clip-rule="evenodd" d="M3.42241 14.454L3.46992 14.4387C3.30642 14.0935 3.17925 13.7274 3.09261 13.3473C3.00876 12.9811 2.96264 12.5996 2.95845 12.2097L2.90814 12.2293C2.91373 12.622 2.96264 13.0049 3.04789 13.3724C3.13453 13.7497 3.2617 14.1117 3.42241 14.454Z" fill="#FED700"/>
<path fill-rule="evenodd" clip-rule="evenodd" d="M3.04369 14.5825C3.15409 14.5434 3.26588 14.5057 3.37768 14.4693C3.21558 14.1256 3.0898 13.7622 3.00176 13.3835C2.91792 13.0188 2.86901 12.6387 2.86202 12.2488C2.74603 12.2963 2.63144 12.3438 2.51685 12.3941C2.53362 12.7798 2.58672 13.1557 2.67476 13.5177C2.7642 13.888 2.88857 14.2444 3.04509 14.5825H3.04369Z" fill="#FED700"/>
<path fill-rule="evenodd" clip-rule="evenodd" d="M2.95145 14.6146L2.99896 14.5979C2.84244 14.2569 2.71667 13.8991 2.62723 13.5288C2.54059 13.1697 2.48609 12.7965 2.46932 12.415L2.42041 12.4374C2.43858 12.8217 2.49448 13.1962 2.58252 13.5582C2.67195 13.9257 2.79633 14.2793 2.95145 14.616V14.6146Z" fill="#FED700"/>
<path fill-rule="evenodd" clip-rule="evenodd" d="M3.33859 15.2324L3.29108 15.2491C3.78997 16.0597 4.48032 16.7416 5.29783 17.2321C6.09299 17.7087 7.00832 18.0049 7.98794 18.0622V18.0119C7.0209 17.9546 6.11674 17.6625 5.33137 17.193C4.52084 16.7081 3.83609 16.0345 3.33999 15.231L3.33859 15.2324Z" fill="#FED700"/>
<path fill-rule="evenodd" clip-rule="evenodd" d="M3.72708 15.1038C3.61249 15.1401 3.4979 15.1778 3.3847 15.217C3.87661 16.0093 4.55298 16.6745 5.35373 17.1538C6.13211 17.6192 7.02789 17.9085 7.98654 17.9658V17.615C7.10614 17.5591 6.28304 17.295 5.56335 16.8715C4.8213 16.4341 4.19104 15.8276 3.72708 15.1038Z" fill="#FED700"/>
<path fill-rule="evenodd" clip-rule="evenodd" d="M3.82351 15.073L3.7746 15.0884C4.23436 15.8011 4.85623 16.3978 5.5885 16.8296C6.29981 17.2488 7.11593 17.5102 7.98794 17.5675V17.5172C7.1299 17.4613 6.32636 17.2041 5.62484 16.7933C4.89955 16.3684 4.28188 15.7787 3.82491 15.0744L3.82351 15.073Z" fill="#FED700"/>
<path fill-rule="evenodd" clip-rule="evenodd" d="M8.69781 17.5675C9.52371 17.5144 10.2993 17.2768 10.9841 16.8939C11.6912 16.4998 12.3019 15.9506 12.77 15.2938L12.7323 15.2603C12.2697 15.9101 11.6674 16.4537 10.9673 16.845C10.2881 17.2251 9.51672 17.4627 8.69641 17.5158V17.5661L8.69781 17.5675Z" fill="#FED700"/>
<path fill-rule="evenodd" clip-rule="evenodd" d="M8.69781 17.9643C9.58101 17.9112 10.4111 17.6611 11.1448 17.2586C11.9036 16.8422 12.5604 16.2608 13.0663 15.5635C12.9796 15.4838 12.893 15.4042 12.8064 15.3259C12.334 15.9869 11.7205 16.5375 11.0078 16.9344C10.3161 17.3201 9.5335 17.5605 8.69921 17.6136V17.9643H8.69781Z" fill="#FED700"/>
<path fill-rule="evenodd" clip-rule="evenodd" d="M13.1012 15.5971C12.5925 16.2986 11.9315 16.8828 11.1685 17.3006C10.4279 17.7073 9.5894 17.9588 8.69922 18.0119V18.0622C9.59639 18.0091 10.4391 17.7576 11.1839 17.3495C11.9553 16.9275 12.6233 16.3378 13.139 15.6306L13.1012 15.5957V15.5971Z" fill="#FED700"/>
<path fill-rule="evenodd" clip-rule="evenodd" d="M12.1481 13.0942C12.3955 13.0481 12.6414 12.9978 12.886 12.9433C13.1278 12.8888 13.3681 12.8301 13.6085 12.7672L13.6141 12.7141C13.3611 12.7812 13.1054 12.8427 12.8469 12.9014C12.5981 12.9573 12.348 13.0076 12.095 13.0537L12.1481 13.0942Z" fill="#FED700"/>
<path fill-rule="evenodd" clip-rule="evenodd" d="M13.7776 12.2293L13.7273 12.2097C13.7231 12.5325 13.691 12.8498 13.6323 13.1558C13.5708 13.4814 13.4799 13.7958 13.3625 14.0963L13.4031 14.1312C13.5191 13.835 13.6113 13.5261 13.6742 13.2075C13.7371 12.8903 13.772 12.5633 13.7776 12.2307V12.2293Z" fill="#FED700"/>
<path fill-rule="evenodd" clip-rule="evenodd" d="M14.1703 12.3941C14.0557 12.3438 13.9411 12.2963 13.8251 12.2488C13.8195 12.58 13.7832 12.9028 13.7217 13.2158C13.6574 13.5428 13.5624 13.8601 13.4422 14.1647C13.5344 14.2458 13.6267 14.3282 13.7189 14.412C13.8517 14.099 13.9565 13.772 14.0333 13.4338C14.1088 13.097 14.1563 12.7505 14.1717 12.3955L14.1703 12.3941Z" fill="#FED700"/>
<path fill-rule="evenodd" clip-rule="evenodd" d="M14.2653 12.4359L14.2164 12.4136C14.201 12.7657 14.1535 13.1095 14.0781 13.4421C13.9998 13.7887 13.8908 14.1241 13.7538 14.4441L13.793 14.4804C13.9285 14.1646 14.0375 13.8362 14.1172 13.4952C14.1968 13.1528 14.2471 12.7993 14.2653 12.4359Z" fill="#FED700"/>
<path fill-rule="evenodd" clip-rule="evenodd" d="M13.0593 9.4413L12.988 9.41895C13.1613 9.71241 13.3067 10.024 13.4212 10.3497C13.5428 10.6948 13.6309 11.0554 13.6798 11.4285L13.7329 11.4481C13.6882 11.0945 13.6085 10.7507 13.4995 10.4223C13.3849 10.0785 13.2368 9.75014 13.0593 9.4413Z" fill="#FED700"/>
<path fill-rule="evenodd" clip-rule="evenodd" d="M13.6071 9.62992C13.4478 9.57123 13.2885 9.51533 13.1264 9.46362C13.2941 9.76268 13.4352 10.0785 13.5442 10.4083C13.6574 10.7479 13.7385 11.1028 13.7832 11.4676C13.9062 11.5151 14.0292 11.5626 14.1507 11.6129C14.12 11.2691 14.0585 10.9324 13.9705 10.6081C13.8782 10.2686 13.7553 9.94156 13.6071 9.62992Z" fill="#FED700"/>
<path fill-rule="evenodd" clip-rule="evenodd" d="M13.7371 9.67872L13.67 9.65356C13.8111 9.95542 13.9271 10.2698 14.0166 10.5955C14.1074 10.9308 14.1703 11.2774 14.201 11.6324L14.2541 11.6547C14.2262 11.3165 14.1703 10.9867 14.0892 10.6681C14.0012 10.3257 13.8838 9.99455 13.7385 9.67872H13.7371Z" fill="#FED700"/>
<path fill-rule="evenodd" clip-rule="evenodd" d="M13.1194 8.71464L13.199 8.7398C12.6946 8.0201 12.0336 7.4178 11.2664 6.98319C10.5005 6.54858 9.62853 6.27887 8.69922 6.22437V6.27467C9.59499 6.32778 10.4363 6.58212 11.1783 6.99157C11.9469 7.415 12.6093 8.00613 13.1194 8.71464Z" fill="#FED700"/>
<path fill-rule="evenodd" clip-rule="evenodd" d="M8.61537 16.2888L8.56506 16.2916V18.0692L8.61537 18.0664V17.4795V17.4781V17.4767V16.2888Z" fill="#FED700"/>
<path fill-rule="evenodd" clip-rule="evenodd" d="M9.50833 16.1226C9.43147 16.1463 9.35321 16.1687 9.27356 16.1882C9.67743 16.1645 10.0771 16.1268 10.4726 16.0737C11.0735 15.994 11.6646 15.8794 12.2432 15.7341C12.2641 15.7117 12.2837 15.6894 12.3033 15.667C11.8533 15.783 11.3949 15.8794 10.9296 15.9549C10.4614 16.0317 9.98766 16.0876 9.50694 16.1226H9.50833Z" fill="#FED700"/>
<path fill-rule="evenodd" clip-rule="evenodd" d="M10.5215 15.6152C10.2686 15.7982 9.98911 15.9478 9.68726 16.0609C10.1037 16.026 10.516 15.9743 10.924 15.9086C11.4103 15.829 11.8897 15.727 12.3606 15.604C12.4696 15.4768 12.5744 15.344 12.6722 15.2071L12.6275 15.168C12.2823 15.2672 11.933 15.3552 11.578 15.4293C11.2301 15.5034 10.8779 15.5648 10.5215 15.6152Z" fill="#FED700"/>
<path fill-rule="evenodd" clip-rule="evenodd" d="M10.6809 15.4935C10.6543 15.5145 10.6277 15.5355 10.6012 15.5564C10.9268 15.5089 11.2482 15.4502 11.5682 15.3831C11.912 15.3105 12.2516 15.2252 12.5856 15.1302L12.5409 15.0911C12.239 15.1763 11.933 15.2532 11.6227 15.3202C11.3125 15.3873 10.9981 15.446 10.6809 15.4935Z" fill="#FED700"/>
<path fill-rule="evenodd" clip-rule="evenodd" d="M11.1112 15.0759C11.1001 15.0885 11.0889 15.1011 11.0777 15.1151L11.2496 15.1835C11.3292 15.2157 11.4005 15.2436 11.4662 15.2688L11.5528 15.2506L11.367 15.1793C11.2817 15.1458 11.1965 15.1123 11.1112 15.0773V15.0759Z" fill="#FED700"/>
<path fill-rule="evenodd" clip-rule="evenodd" d="M11.6115 14.3129C11.4844 14.5756 11.3278 14.8174 11.1434 15.0368C11.223 15.0689 11.3041 15.1011 11.3851 15.1318C11.469 15.1654 11.5542 15.1975 11.6381 15.2297C11.9162 15.1682 12.1929 15.0997 12.4654 15.0228L12.3843 14.953C12.1328 14.735 11.8742 14.5211 11.6115 14.3115V14.3129Z" fill="#FED700"/>
<path fill-rule="evenodd" clip-rule="evenodd" d="M11.6689 14.1885L11.6479 14.236C11.9162 14.4498 12.1803 14.6678 12.4389 14.8914C12.6932 15.1108 12.9419 15.3344 13.1879 15.5622L13.2172 15.5203C12.9671 15.2869 12.7114 15.0591 12.4514 14.8355C12.1943 14.6147 11.9344 14.3995 11.6689 14.1885Z" fill="#FED700"/>
<path fill-rule="evenodd" clip-rule="evenodd" d="M11.9455 13.1682C11.9022 13.5134 11.8156 13.8404 11.6884 14.1436C11.9581 14.3575 12.2236 14.5769 12.4822 14.8004C12.7407 15.0226 12.995 15.2504 13.2452 15.4824C13.3332 15.3538 13.4157 15.2211 13.4939 15.0855C13.5736 14.9458 13.6477 14.8032 13.7161 14.6565C13.4283 14.3938 13.1348 14.1367 12.8357 13.8851C12.5451 13.6406 12.2474 13.4016 11.9469 13.1696L11.9455 13.1682Z" fill="#FED700"/>
<path fill-rule="evenodd" clip-rule="evenodd" d="M11.9581 13.0537C11.9567 13.0733 11.9539 13.0942 11.9525 13.1138C12.2628 13.3528 12.5674 13.5973 12.8665 13.8475C13.1627 14.0962 13.452 14.3506 13.7371 14.6105L13.7594 14.5616C13.4646 14.2919 13.1613 14.0277 12.8553 13.772C12.5618 13.5275 12.2641 13.2885 11.9595 13.0551L11.9581 13.0537Z" fill="#FED700"/>
<path fill-rule="evenodd" clip-rule="evenodd" d="M11.9763 12.6735V12.6819C11.9763 12.7741 11.9735 12.865 11.9665 12.9558L12.0461 13.0159C12.3117 12.967 12.5758 12.9139 12.8385 12.8552C13.1012 12.7965 13.3612 12.7336 13.6211 12.6651C13.6323 12.5436 13.6407 12.422 13.6448 12.2976C13.3723 12.3717 13.097 12.4401 12.8203 12.5016C12.5422 12.5645 12.2614 12.6218 11.9777 12.6735H11.9763Z" fill="#FED700"/>
<path fill-rule="evenodd" clip-rule="evenodd" d="M11.9763 12.573V12.6248C12.2557 12.5744 12.5324 12.5171 12.8091 12.4557C13.09 12.3928 13.3695 12.3229 13.6448 12.2474V12.1943C13.3709 12.2684 13.0956 12.3383 12.8189 12.4012C12.5408 12.464 12.2599 12.5213 11.9777 12.573H11.9763Z" fill="#FED700"/>
<path fill-rule="evenodd" clip-rule="evenodd" d="M11.9763 11.4998V11.5515C12.3745 11.6535 12.7672 11.7723 13.1529 11.9064C13.533 12.0378 13.9048 12.1859 14.2695 12.3466V12.2921C13.9006 12.1286 13.5205 11.9791 13.1334 11.8463C12.7546 11.715 12.3675 11.6004 11.9763 11.4998Z" fill="#FED700"/>
<path fill-rule="evenodd" clip-rule="evenodd" d="M11.9763 11.0903V11.4509C12.3745 11.5515 12.7658 11.6689 13.1487 11.8016C13.5302 11.933 13.9047 12.0797 14.2723 12.2418C14.2723 12.2111 14.2723 12.179 14.2723 12.144C14.2723 12.049 14.2695 11.954 14.2653 11.8589C13.8936 11.6996 13.5149 11.5557 13.1292 11.4271C12.7504 11.3 12.3661 11.1882 11.9749 11.0917L11.9763 11.0903Z" fill="#FED700"/>
<path fill-rule="evenodd" clip-rule="evenodd" d="M11.9763 10.9897V11.0415C12.3717 11.1393 12.7616 11.2525 13.1459 11.381C13.526 11.5082 13.8992 11.6493 14.2653 11.8059L14.2625 11.75C13.8908 11.5921 13.5107 11.4495 13.1222 11.3209C12.7463 11.1966 12.3648 11.0862 11.9777 10.9911L11.9763 10.9897Z" fill="#FED700"/>
<path fill-rule="evenodd" clip-rule="evenodd" d="M11.9763 9.88988V9.94019C12.1537 9.90805 12.3312 9.87451 12.5045 9.83957C12.689 9.80184 12.8734 9.76131 13.0593 9.71799L13.0355 9.67188C12.8581 9.7138 12.6792 9.75293 12.4975 9.78926C12.3228 9.8242 12.1495 9.85774 11.9763 9.88848V9.88988Z" fill="#FED700"/>
<path fill-rule="evenodd" clip-rule="evenodd" d="M11.9763 9.48735V9.84231C12.1481 9.81156 12.32 9.77942 12.4891 9.74449C12.6638 9.70815 12.8385 9.67042 13.0132 9.62989C12.9671 9.54605 12.9195 9.4622 12.8706 9.38114L12.8497 9.37416L12.7267 9.33643C12.6037 9.36298 12.4793 9.38953 12.355 9.41468C12.2292 9.43984 12.1034 9.4636 11.9777 9.48735H11.9763Z" fill="#FED700"/>
<path fill-rule="evenodd" clip-rule="evenodd" d="M11.9763 9.38812V9.43983C12.0992 9.41747 12.2222 9.39371 12.3452 9.36996C12.4402 9.35039 12.5366 9.33083 12.6317 9.30986L12.5283 9.28052C12.4318 9.30148 12.3354 9.32104 12.2404 9.33921C12.1565 9.35598 12.0685 9.37275 11.9763 9.38952V9.38812Z" fill="#FED700"/>
<path fill-rule="evenodd" clip-rule="evenodd" d="M11.9763 8.99683V9.04853C12.2795 9.1212 12.5786 9.20365 12.8734 9.29449C13.1487 9.37833 13.4198 9.47057 13.6881 9.56979L13.656 9.50411C13.3807 9.40349 13.1012 9.30986 12.8175 9.22461C12.5408 9.14077 12.2599 9.0639 11.9763 8.99683Z" fill="#FED700"/>
<path fill-rule="evenodd" clip-rule="evenodd" d="M11.9763 8.58887V8.94801C12.2641 9.01789 12.5492 9.09475 12.8301 9.17999C13.097 9.26105 13.3625 9.34909 13.6239 9.44411C13.5889 9.37564 13.5526 9.30856 13.5163 9.24288C13.4673 9.15484 13.4156 9.0682 13.3611 8.98295C13.1334 8.90609 12.9014 8.83482 12.668 8.76914C12.4388 8.70486 12.2082 8.64477 11.9763 8.59026V8.58887Z" fill="#FED700"/>
<path fill-rule="evenodd" clip-rule="evenodd" d="M11.9763 8.4895V8.54121C12.2138 8.59711 12.4486 8.6572 12.6806 8.72288C12.8958 8.78437 13.1082 8.84865 13.3206 8.91992L13.2759 8.85284C13.0565 8.78157 12.8343 8.71449 12.6121 8.653C12.4025 8.59431 12.1901 8.53981 11.9763 8.4909V8.4895Z" fill="#FED700"/>
<path fill-rule="evenodd" clip-rule="evenodd" d="M11.9763 8.10107V8.16955C12.0294 8.21846 12.0825 8.26877 12.1342 8.32048C12.1873 8.37218 12.239 8.42668 12.2907 8.48118L12.3801 8.50354C12.253 8.3624 12.1188 8.22824 11.9777 8.10107H11.9763Z" fill="#FED700"/>
<path fill-rule="evenodd" clip-rule="evenodd" d="M11.9204 7.98926H11.9343C11.9581 7.98926 11.9763 8.00743 11.9763 8.03118V8.03817C12.1482 8.19049 12.3103 8.3526 12.4612 8.52589C12.5185 8.54126 12.5758 8.55663 12.6345 8.572C12.7714 8.60973 12.9084 8.65026 13.0439 8.69218C12.5436 8.01162 11.8994 7.44425 11.156 7.03479C10.4195 6.62813 9.58661 6.37659 8.69922 6.32349V6.67425C9.43568 6.72176 10.133 6.91461 10.7605 7.22345C11.1797 7.43028 11.5696 7.68881 11.9204 7.99066V7.98926Z" fill="#FED700"/>
<path fill-rule="evenodd" clip-rule="evenodd" d="M11.7694 7.98935H11.8477C11.5109 7.70567 11.1392 7.46111 10.7395 7.26407C10.1176 6.95803 9.42729 6.76658 8.69781 6.72046V6.77077C9.26658 6.8085 9.81019 6.93287 10.3161 7.13271C10.8457 7.34233 11.3348 7.633 11.768 7.98935H11.7694Z" fill="#FED700"/>
<path fill-rule="evenodd" clip-rule="evenodd" d="M8.56506 7.98927H8.61537V6.21868L8.56506 6.21729V7.98927Z" fill="#FED700"/>
<path fill-rule="evenodd" clip-rule="evenodd" d="M8.16821 7.98931H8.51758V6.21593C8.45888 6.21453 8.40159 6.21313 8.3429 6.21313C8.2842 6.21313 8.22691 6.21313 8.16821 6.21593V7.98931Z" fill="#FED700"/>
<path fill-rule="evenodd" clip-rule="evenodd" d="M8.07037 7.98927H8.12068V6.21729L8.07037 6.21868V7.98927Z" fill="#FED700"/>
<path fill-rule="evenodd" clip-rule="evenodd" d="M4.83807 7.98935H4.91633C5.34954 7.6316 5.83865 7.34093 6.36829 7.13271C6.87417 6.93287 7.41918 6.8071 7.98655 6.77077V6.72046C7.25707 6.76797 6.56812 6.95803 5.94486 7.26547C5.54518 7.46251 5.17346 7.70567 4.83667 7.99075L4.83807 7.98935Z" fill="#FED700"/>
<path fill-rule="evenodd" clip-rule="evenodd" d="M4.70949 8.03688V8.0299C4.70949 8.00614 4.72766 7.98797 4.75141 7.98797H4.76539C5.11615 7.68612 5.50604 7.42619 5.92528 7.22077C6.55414 6.91193 7.25147 6.71908 7.98793 6.67156V6.3208C7.1243 6.37251 6.31098 6.61287 5.58849 6.99997C4.84504 7.39964 4.19802 7.95443 3.69214 8.62242L3.77459 8.64897C3.92272 8.60425 4.07225 8.56233 4.22317 8.5232C4.3741 8.35131 4.5376 8.18781 4.70809 8.03549L4.70949 8.03688Z" fill="#FED700"/>
<path fill-rule="evenodd" clip-rule="evenodd" d="M4.70948 8.16815V8.10107C4.56833 8.22824 4.43418 8.3624 4.30701 8.50354L4.39644 8.48118C4.44675 8.42668 4.49986 8.37218 4.55296 8.32048C4.60467 8.26877 4.65777 8.21846 4.71087 8.17095L4.70948 8.16815Z" fill="#FED700"/>
<path fill-rule="evenodd" clip-rule="evenodd" d="M4.70946 8.54121V8.4895C4.56273 8.52444 4.416 8.56077 4.27066 8.5985C4.15187 8.62925 4.03309 8.66279 3.91431 8.69633L3.99815 8.72428C4.11414 8.69074 4.23153 8.65999 4.35171 8.62785C4.4705 8.59711 4.58928 8.56776 4.70946 8.53981V8.54121Z" fill="#FED700"/>
<path fill-rule="evenodd" clip-rule="evenodd" d="M4.70948 8.94801V8.58887C4.59349 8.61682 4.4775 8.64477 4.36431 8.67411C4.26928 8.69927 4.17425 8.72442 4.07922 8.75097L4.15329 8.77613C4.32518 8.83482 4.49706 8.89491 4.66755 8.9578L4.70948 8.94801Z" fill="#FED700"/>
<path fill-rule="evenodd" clip-rule="evenodd" d="M4.70946 9.11422V9.06252C4.51521 8.99124 4.32096 8.92277 4.12532 8.85569C3.93107 8.79001 3.73683 8.72573 3.53978 8.66284L3.51044 8.70337C3.71167 8.76765 3.91291 8.83333 4.11274 8.90181C4.31258 8.97028 4.51242 9.04155 4.70946 9.11422Z" fill="#FED700"/>
<path fill-rule="evenodd" clip-rule="evenodd" d="M4.70947 10.1553V9.16453C4.50544 9.08907 4.30141 9.0164 4.09738 8.94653C3.89335 8.87665 3.68792 8.80818 3.4825 8.7439C3.39026 8.87666 3.30222 9.01221 3.22117 9.15195C3.14291 9.28611 3.06885 9.42306 3.00177 9.56421C3.29104 9.65364 3.57892 9.74727 3.864 9.84649C4.14769 9.94432 4.42998 10.0477 4.70947 10.1553Z" fill="#FED700"/>
<path fill-rule="evenodd" clip-rule="evenodd" d="M4.70945 10.2601V10.207C4.42297 10.0966 4.1365 9.99179 3.84862 9.89257C3.56074 9.79335 3.27147 9.69832 2.98079 9.60889L2.95844 9.6564C3.54956 9.83807 4.1337 10.0379 4.70945 10.2615V10.2601Z" fill="#FED700"/>
<path fill-rule="evenodd" clip-rule="evenodd" d="M4.70945 10.9045V10.3511C4.31816 10.2002 3.92408 10.0576 3.5258 9.92627C3.4713 10.0451 3.42099 10.1652 3.37488 10.2896C3.51882 10.4154 3.66415 10.5384 3.81089 10.6613C3.95762 10.7829 4.10575 10.9045 4.25668 11.0247C4.4062 10.9828 4.55713 10.9436 4.70945 10.9073V10.9045Z" fill="#FED700"/>
<path fill-rule="evenodd" clip-rule="evenodd" d="M4.70946 11.0415V10.9897C4.32236 11.0848 3.94085 11.1952 3.56494 11.3195C3.17784 11.4481 2.79773 11.5921 2.42461 11.7486L2.42181 11.8045C2.78655 11.6493 3.15967 11.5068 3.54118 11.3796C3.92408 11.2511 4.31398 11.1379 4.71086 11.0401L4.70946 11.0415Z" fill="#FED700"/>
<path fill-rule="evenodd" clip-rule="evenodd" d="M4.70946 11.4509V11.0903C4.31817 11.1868 3.93387 11.2986 3.55516 11.4257C3.16946 11.5543 2.79075 11.6982 2.41902 11.8575L2.41623 11.933C2.41204 12.0364 2.41204 12.1384 2.41343 12.2418C2.78097 12.0797 3.15549 11.933 3.53699 11.8016C3.92129 11.6689 4.31258 11.5529 4.70946 11.4509Z" fill="#FED700"/>
<path fill-rule="evenodd" clip-rule="evenodd" d="M4.70949 11.5515V11.4998C4.3168 11.599 3.9311 11.715 3.55239 11.8463C3.16529 11.9805 2.78518 12.1286 2.41486 12.2921V12.3466C2.78239 12.1845 3.15411 12.0378 3.53282 11.9064C3.91852 11.7723 4.31121 11.6535 4.70949 11.5515Z" fill="#FED700"/>
<path fill-rule="evenodd" clip-rule="evenodd" d="M4.70946 12.6248V12.573C4.42578 12.5213 4.14629 12.464 3.86819 12.4012C3.5901 12.3383 3.3148 12.2698 3.04089 12.1943V12.2474C3.31759 12.3215 3.59569 12.3914 3.87658 12.4543C4.15188 12.5171 4.42997 12.573 4.70946 12.6234V12.6248Z" fill="#FED700"/>
<path fill-rule="evenodd" clip-rule="evenodd" d="M4.72484 13.0298C4.71506 12.9152 4.70947 12.7992 4.70947 12.6804V12.6721C4.42578 12.6204 4.14489 12.5631 3.8668 12.5002C3.5901 12.4373 3.3162 12.3688 3.0423 12.2961C3.04509 12.4191 3.05348 12.5421 3.06605 12.6637C3.33996 12.7363 3.61805 12.8034 3.89754 12.8649C4.17145 12.925 4.44814 12.9809 4.72484 13.0298Z" fill="#FED700"/>
<path fill-rule="evenodd" clip-rule="evenodd" d="M4.73463 13.1306L4.72904 13.0788C4.44535 13.0285 4.16446 12.9726 3.88637 12.9112C3.61247 12.8511 3.33996 12.7854 3.07025 12.7141L3.07584 12.7672C3.35254 12.8399 3.63203 12.907 3.91432 12.9684C4.18543 13.0271 4.45933 13.0816 4.73323 13.1306H4.73463Z" fill="#FED700"/>
<path fill-rule="evenodd" clip-rule="evenodd" d="M5.00712 14.1689C5.00013 14.1535 4.99314 14.1382 4.98755 14.1228C4.64518 14.1955 4.30699 14.2807 3.973 14.3757C3.6404 14.4708 3.3134 14.5756 2.98639 14.6916L3.00875 14.7363C3.33575 14.6203 3.66695 14.5141 4.00234 14.4191C4.33354 14.3254 4.66754 14.2416 5.00712 14.1689Z" fill="#FED700"/>
<path fill-rule="evenodd" clip-rule="evenodd" d="M5.1902 14.535C5.13011 14.4316 5.07561 14.324 5.0267 14.2122C4.68572 14.2848 4.34753 14.3687 4.01493 14.4637C3.68094 14.5587 3.35254 14.6635 3.02972 14.7781C3.05488 14.8298 3.08143 14.8801 3.10798 14.9305C3.13593 14.9836 3.16528 15.0367 3.19602 15.0898C3.52303 14.9752 3.85423 14.8704 4.19101 14.7767C4.51942 14.6845 4.85341 14.6048 5.1902 14.535Z" fill="#FED700"/>
<path fill-rule="evenodd" clip-rule="evenodd" d="M5.24331 14.6245L5.21536 14.5784C4.87438 14.6482 4.5362 14.7307 4.2036 14.8229C3.871 14.9152 3.544 15.0186 3.21979 15.1318L3.24634 15.1765C3.89756 14.9473 4.56694 14.7628 5.24331 14.6245Z" fill="#FED700"/>
<path fill-rule="evenodd" clip-rule="evenodd" d="M6.0832 15.5567C6.05664 15.5357 6.03009 15.5147 6.00354 15.4938C5.65557 15.4407 5.3104 15.3764 4.96942 15.2995C4.62564 15.2227 4.28606 15.1346 3.95207 15.0354L3.90735 15.0494L3.92831 15.0801C4.29445 15.1891 4.66617 15.2855 5.04348 15.368C5.38726 15.4421 5.73383 15.5063 6.08459 15.5581L6.0832 15.5567Z" fill="#FED700"/>
<path fill-rule="evenodd" clip-rule="evenodd" d="M6.99851 16.0611C6.69666 15.9493 6.41717 15.7984 6.16423 15.6153C5.78272 15.5622 5.40541 15.4938 5.03368 15.4127C4.67454 15.3345 4.31958 15.2436 3.97021 15.1416C4.08061 15.3023 4.1994 15.456 4.32657 15.6028C4.79751 15.7257 5.27684 15.8278 5.76316 15.9074C6.16982 15.9745 6.58207 16.0248 6.99991 16.0597L6.99851 16.0611Z" fill="#FED700"/>
<path fill-rule="evenodd" clip-rule="evenodd" d="M7.41214 16.1882C7.33248 16.1687 7.25422 16.1463 7.17736 16.1226C6.69664 16.0876 6.2215 16.0317 5.75475 15.9549C5.28939 15.878 4.83103 15.7816 4.38104 15.667C4.40061 15.6894 4.42157 15.7117 4.44113 15.7341C5.01968 15.8794 5.61081 15.994 6.21172 16.0737C6.6072 16.1268 7.00687 16.1645 7.41074 16.1882H7.41214Z" fill="#FED700"/>
<path fill-rule="evenodd" clip-rule="evenodd" d="M8.12068 16.2916L8.07037 16.2888V17.4753V17.4795V18.0664L8.12068 18.0692V16.2916Z" fill="#FED700"/>
<path fill-rule="evenodd" clip-rule="evenodd" d="M8.3429 16.2972C8.2842 16.2972 8.22551 16.2958 8.16821 16.293V18.0705C8.22691 18.0719 8.2842 18.0733 8.3429 18.0733C8.40159 18.0733 8.45888 18.0733 8.51758 18.0705V16.2944C8.46028 16.2972 8.40159 16.2986 8.3429 16.2986V16.2972Z" fill="#FED700"/>
<path fill-rule="evenodd" clip-rule="evenodd" d="M6.04547 8.65165H6.03289L6.04407 8.81516H6.09857C6.11115 8.81516 6.12233 8.82634 6.12233 8.83891V9.01779C6.12233 9.03036 6.11115 9.04154 6.09857 9.04154H6.06084L6.09019 9.4524C6.09019 9.46497 6.07901 9.47615 6.06643 9.47615H5.5857H5.10637C5.0938 9.47615 5.08262 9.46497 5.08262 9.4524L5.11196 9.04154H5.07423C5.06166 9.04154 5.05048 9.03036 5.05048 9.01779V8.83891C5.05048 8.82634 5.06166 8.81516 5.07423 8.81516H5.12873L5.13991 8.65165H5.12734C5.11476 8.65165 5.10358 8.64047 5.10358 8.6279V8.48815C5.10358 8.47557 5.11476 8.46439 5.12734 8.46439H5.18743C5.2 8.46439 5.21118 8.47557 5.21118 8.48815V8.49933H5.22376V8.48815C5.22376 8.47557 5.23494 8.46439 5.24752 8.46439H5.30761C5.32019 8.46439 5.33137 8.47557 5.33137 8.48815V8.49933H5.34394V8.48815C5.34394 8.47557 5.35512 8.46439 5.3677 8.46439H5.42919C5.42919 8.46439 5.44037 8.46579 5.44316 8.46998V8.44483H5.43198C5.41941 8.44483 5.40823 8.43365 5.40823 8.42107V8.28132C5.40823 8.26875 5.41941 8.25757 5.43198 8.25757H5.49207C5.50465 8.25757 5.51583 8.26875 5.51583 8.28132V8.2925H5.52981V8.28132C5.52981 8.26875 5.54099 8.25757 5.55356 8.25757H5.61365C5.62623 8.25757 5.63741 8.26875 5.63741 8.28132V8.2925H5.64999V8.28132C5.64999 8.26875 5.66117 8.25757 5.67374 8.25757H5.73383C5.74641 8.25757 5.75759 8.26875 5.75759 8.28132V8.42107C5.75759 8.43365 5.74641 8.44483 5.73383 8.44483H5.72126V8.46998C5.72126 8.46998 5.73244 8.46439 5.73803 8.46439H5.79812C5.8107 8.46439 5.82187 8.47557 5.82187 8.48815V8.49933H5.83445V8.48815C5.83445 8.47557 5.84563 8.46439 5.85821 8.46439H5.9183C5.93088 8.46439 5.94206 8.47557 5.94206 8.48815V8.49933H5.95603V8.48815C5.95603 8.47557 5.96721 8.46439 5.97979 8.46439H6.03988C6.05246 8.46439 6.06364 8.47557 6.06364 8.48815V8.6279C6.06364 8.64047 6.05246 8.65165 6.03988 8.65165H6.04547ZM5.74781 8.75227L5.7548 8.65305H5.74082L5.74781 8.75227ZM5.42639 8.75227L5.43338 8.65305H5.41941L5.42639 8.75227Z" fill="black"/>
<path d="M6.07619 8.86279H5.09937V8.99415H6.07619V8.86279Z" fill="#FED700"/>
<path fill-rule="evenodd" clip-rule="evenodd" d="M5.58706 9.17432C5.54374 9.20925 5.50601 9.24978 5.47386 9.2945C5.44452 9.33502 5.42076 9.38114 5.40399 9.42865H5.77152C5.75336 9.38114 5.7296 9.33642 5.70165 9.2945C5.66951 9.24978 5.63178 9.20925 5.58846 9.17432H5.58706Z" fill="#FED700"/>
<path fill-rule="evenodd" clip-rule="evenodd" d="M5.5871 9.04565C5.51443 9.09177 5.45155 9.14907 5.39984 9.21754C5.35233 9.28043 5.31599 9.3517 5.29224 9.42856H5.35372C5.37329 9.37126 5.40124 9.31676 5.43618 9.26785C5.47391 9.21475 5.52002 9.16584 5.57313 9.12531C5.58151 9.11832 5.59409 9.11832 5.60247 9.12531C5.65558 9.16584 5.70169 9.21335 5.73942 9.26785C5.77436 9.31676 5.80231 9.37126 5.82187 9.42856H5.88336C5.85961 9.3517 5.82187 9.28043 5.77576 9.21754C5.72405 9.14907 5.66117 9.09037 5.5885 9.04565H5.5871Z" fill="#FED700"/>
<path fill-rule="evenodd" clip-rule="evenodd" d="M5.51019 9.0415H5.16082L5.13287 9.4286H5.24327C5.26843 9.34056 5.30895 9.26091 5.36345 9.18964C5.40538 9.13374 5.45569 9.08343 5.51159 9.0415H5.51019Z" fill="#FED700"/>
<path fill-rule="evenodd" clip-rule="evenodd" d="M6.01331 9.0415H5.66394C5.71984 9.08343 5.77015 9.13374 5.81207 9.18964C5.86518 9.26091 5.9057 9.34196 5.93225 9.4286H6.04265L6.0147 9.0415H6.01331Z" fill="#FED700"/>
<path fill-rule="evenodd" clip-rule="evenodd" d="M5.17761 8.81511H5.38444L5.37326 8.65161H5.19159L5.17901 8.81511H5.17761ZM5.23351 8.7662V8.72288C5.23351 8.70052 5.25168 8.68236 5.27404 8.68236C5.2964 8.68236 5.31456 8.69912 5.31456 8.72288V8.7662C5.31456 8.77878 5.30338 8.78996 5.29081 8.78996H5.25727C5.24469 8.78996 5.23351 8.77878 5.23351 8.7662Z" fill="#FED700"/>
<path fill-rule="evenodd" clip-rule="evenodd" d="M5.70584 8.81508L5.67929 8.44336H5.49762L5.47107 8.81508H5.70724H5.70584ZM5.54094 8.61105V8.56773C5.54094 8.54537 5.55911 8.52721 5.58147 8.52721C5.60383 8.52721 5.62199 8.54537 5.62199 8.56773V8.61105C5.62199 8.62363 5.61082 8.63481 5.59824 8.63481H5.5647C5.55212 8.63481 5.54094 8.62363 5.54094 8.61105ZM5.54094 8.76617V8.72285C5.54094 8.70049 5.55911 8.68233 5.58147 8.68233C5.60383 8.68233 5.62199 8.69909 5.62199 8.72285V8.76617C5.62199 8.77875 5.61082 8.78993 5.59824 8.78993H5.5647C5.55212 8.78993 5.54094 8.77875 5.54094 8.76617Z" fill="#FED700"/>
<path fill-rule="evenodd" clip-rule="evenodd" d="M5.4599 8.39594H5.71564V8.30371H5.70306V8.31489C5.70306 8.32747 5.69188 8.33865 5.6793 8.33865H5.61781C5.60524 8.33865 5.59406 8.32747 5.59406 8.31489V8.30371H5.58148V8.31489C5.58148 8.32747 5.5703 8.33865 5.55772 8.33865H5.49763C5.48505 8.33865 5.47387 8.32747 5.47387 8.31489V8.30371H5.4613V8.39594H5.4599Z" fill="#FED700"/>
<path fill-rule="evenodd" clip-rule="evenodd" d="M5.76593 8.6042H6.02167V8.51196H6.00909V8.52314C6.00909 8.53572 5.99791 8.5469 5.98533 8.5469H5.92524C5.91266 8.5469 5.90148 8.53572 5.90148 8.52314V8.51196H5.88891V8.52314C5.88891 8.53572 5.87773 8.5469 5.86515 8.5469H5.80506C5.79248 8.5469 5.7813 8.53572 5.7813 8.52314V8.51196H5.76873V8.6042H5.76593Z" fill="#FED700"/>
<path fill-rule="evenodd" clip-rule="evenodd" d="M5.99791 8.81511L5.98673 8.65161H5.80366L5.79248 8.81511H5.99791ZM5.85956 8.7662V8.72288C5.85956 8.70052 5.87773 8.68236 5.90009 8.68236C5.92244 8.68236 5.94061 8.69912 5.94061 8.72288V8.7662C5.94061 8.77878 5.92943 8.78996 5.91685 8.78996H5.88332C5.87074 8.78996 5.85956 8.77878 5.85956 8.7662Z" fill="#FED700"/>
<path fill-rule="evenodd" clip-rule="evenodd" d="M5.15247 8.6042H5.4082V8.51196H5.39562V8.52314C5.39562 8.53572 5.38444 8.5469 5.37187 8.5469H5.31178C5.2992 8.5469 5.28802 8.53572 5.28802 8.52314V8.51196H5.27544V8.52314C5.27544 8.53572 5.26426 8.5469 5.25169 8.5469H5.1916C5.17902 8.5469 5.16784 8.53572 5.16784 8.52314V8.51196H5.15526V8.6042H5.15247Z" fill="#FED700"/>
<path fill-rule="evenodd" clip-rule="evenodd" d="M8.80127 8.65165H8.78869L8.80127 8.81516H8.85577C8.86834 8.81516 8.87952 8.82634 8.87952 8.83891V9.01779C8.87952 9.03036 8.86834 9.04154 8.85577 9.04154H8.81804L8.84738 9.4524C8.84738 9.46497 8.8362 9.47615 8.82363 9.47615H8.3429H7.86217C7.8496 9.47615 7.83842 9.46497 7.83842 9.4524L7.86776 9.04154H7.83003C7.81745 9.04154 7.80627 9.03036 7.80627 9.01779V8.83891C7.80627 8.82634 7.81745 8.81516 7.83003 8.81516H7.88453L7.89571 8.65165H7.88313C7.87056 8.65165 7.85938 8.64047 7.85938 8.6279V8.48815C7.85938 8.47557 7.87056 8.46439 7.88313 8.46439H7.94323C7.9558 8.46439 7.96698 8.47557 7.96698 8.48815V8.49933H7.98096V8.48815C7.98096 8.47557 7.99214 8.46439 8.00471 8.46439H8.0648C8.07738 8.46439 8.08856 8.47557 8.08856 8.48815V8.49933H8.10114V8.48815C8.10114 8.47557 8.11232 8.46439 8.1249 8.46439H8.18638C8.18638 8.46439 8.19756 8.46579 8.20036 8.46998V8.44483H8.18918C8.1766 8.44483 8.16542 8.43365 8.16542 8.42107V8.28132C8.16542 8.26875 8.1766 8.25757 8.18918 8.25757H8.24927C8.26185 8.25757 8.27303 8.26875 8.27303 8.28132V8.2925H8.287V8.28132C8.287 8.26875 8.29818 8.25757 8.31076 8.25757H8.37085C8.38343 8.25757 8.39461 8.26875 8.39461 8.28132V8.2925H8.40718V8.28132C8.40718 8.26875 8.41836 8.25757 8.43094 8.25757H8.49103C8.50361 8.25757 8.51479 8.26875 8.51479 8.28132V8.42107C8.51479 8.43365 8.50361 8.44483 8.49103 8.44483H8.47845V8.46998C8.47845 8.46998 8.48963 8.46439 8.49522 8.46439H8.55531C8.56789 8.46439 8.57907 8.47557 8.57907 8.48815V8.49933H8.59165V8.48815C8.59165 8.47557 8.60283 8.46439 8.6154 8.46439H8.6755C8.68807 8.46439 8.69925 8.47557 8.69925 8.48815V8.49933H8.71183V8.48815C8.71183 8.47557 8.72301 8.46439 8.73559 8.46439H8.79568C8.80825 8.46439 8.81943 8.47557 8.81943 8.48815V8.6279C8.81943 8.64047 8.80825 8.65165 8.79568 8.65165H8.80127ZM8.50361 8.75227L8.5106 8.65305H8.49662L8.50361 8.75227ZM8.18219 8.75227L8.18918 8.65305H8.1752L8.18219 8.75227Z" fill="black"/>
<path d="M8.83058 8.86279H7.85376V8.99415H8.83058V8.86279Z" fill="#FED700"/>
<path fill-rule="evenodd" clip-rule="evenodd" d="M8.34286 9.17432C8.29954 9.20925 8.2618 9.24978 8.22966 9.2945C8.20032 9.33502 8.17656 9.38114 8.15979 9.42865H8.52732C8.50916 9.38114 8.4854 9.33642 8.45745 9.2945C8.42531 9.24978 8.38758 9.20925 8.34425 9.17432H8.34286Z" fill="#FED700"/>
<path fill-rule="evenodd" clip-rule="evenodd" d="M8.3429 9.04565C8.27023 9.09177 8.20735 9.14907 8.15564 9.21754C8.10813 9.28043 8.07179 9.3517 8.04803 9.42856H8.10952C8.12909 9.37126 8.15704 9.31676 8.19197 9.26785C8.2297 9.21475 8.27582 9.16584 8.32892 9.12531C8.33731 9.11832 8.34989 9.11832 8.35827 9.12531C8.41137 9.16584 8.45749 9.21335 8.49522 9.26785C8.53016 9.31676 8.55811 9.37126 8.57767 9.42856H8.63916C8.6154 9.3517 8.57767 9.28043 8.53156 9.21754C8.47985 9.14907 8.41696 9.09037 8.3443 9.04565H8.3429Z" fill="#FED700"/>
<path fill-rule="evenodd" clip-rule="evenodd" d="M8.26464 9.0415H7.91528L7.88733 9.4286H7.99773C8.02288 9.34056 8.06481 9.26091 8.11791 9.18964C8.15983 9.13374 8.21014 9.08343 8.26604 9.0415H8.26464Z" fill="#FED700"/>
<path fill-rule="evenodd" clip-rule="evenodd" d="M8.7691 9.0415H8.41974C8.47564 9.08343 8.52595 9.13374 8.56787 9.18964C8.62097 9.26091 8.6615 9.34196 8.68805 9.4286H8.79845L8.7705 9.0415H8.7691Z" fill="#FED700"/>
<path fill-rule="evenodd" clip-rule="evenodd" d="M7.93201 8.81511H8.13743L8.12486 8.65161H7.94319L7.93201 8.81511ZM7.9893 8.7662V8.72288C7.9893 8.70052 8.00747 8.68236 8.02983 8.68236C8.05219 8.68236 8.07036 8.69912 8.07036 8.72288V8.7662C8.07036 8.77878 8.05918 8.78996 8.0466 8.78996H8.01306C8.00048 8.78996 7.9893 8.77878 7.9893 8.7662Z" fill="#FED700"/>
<path fill-rule="evenodd" clip-rule="evenodd" d="M8.46024 8.81508L8.43369 8.44336H8.25202L8.22546 8.81508H8.46163H8.46024ZM8.29673 8.61105V8.56773C8.29673 8.54537 8.3149 8.52721 8.33726 8.52721C8.35962 8.52721 8.37779 8.54537 8.37779 8.56773V8.61105C8.37779 8.62363 8.36661 8.63481 8.35403 8.63481H8.32049C8.30791 8.63481 8.29673 8.62363 8.29673 8.61105ZM8.29673 8.76617V8.72285C8.29673 8.70049 8.3149 8.68233 8.33726 8.68233C8.35962 8.68233 8.37779 8.69909 8.37779 8.72285V8.76617C8.37779 8.77875 8.36661 8.78993 8.35403 8.78993H8.32049C8.30791 8.78993 8.29673 8.77875 8.29673 8.76617Z" fill="#FED700"/>
<path fill-rule="evenodd" clip-rule="evenodd" d="M8.21429 8.39594H8.47003V8.30371H8.45745V8.31489C8.45745 8.32747 8.44627 8.33865 8.4337 8.33865H8.37221C8.35963 8.33865 8.34845 8.32747 8.34845 8.31489V8.30371H8.33448V8.31489C8.33448 8.32747 8.3233 8.33865 8.31072 8.33865H8.25063C8.23805 8.33865 8.22687 8.32747 8.22687 8.31489V8.30371H8.21429V8.39594Z" fill="#FED700"/>
<path fill-rule="evenodd" clip-rule="evenodd" d="M8.52173 8.6042H8.77746V8.51196H8.76489V8.52314C8.76489 8.53572 8.75371 8.5469 8.74113 8.5469H8.68104C8.66846 8.5469 8.65728 8.53572 8.65728 8.52314V8.51196H8.64471V8.52314C8.64471 8.53572 8.63353 8.5469 8.62095 8.5469H8.56086C8.54828 8.5469 8.5371 8.53572 8.5371 8.52314V8.51196H8.52452V8.6042H8.52173Z" fill="#FED700"/>
<path fill-rule="evenodd" clip-rule="evenodd" d="M8.7523 8.81511L8.74112 8.65161H8.55805L8.54688 8.81511H8.7523ZM8.61535 8.7662V8.72288C8.61535 8.70052 8.63352 8.68236 8.65588 8.68236C8.67824 8.68236 8.6964 8.69912 8.6964 8.72288V8.7662C8.6964 8.77878 8.68522 8.78996 8.67265 8.78996H8.63911C8.62653 8.78996 8.61535 8.77878 8.61535 8.7662Z" fill="#FED700"/>
<path fill-rule="evenodd" clip-rule="evenodd" d="M7.90826 8.6042H8.164V8.51196H8.15142V8.52314C8.15142 8.53572 8.14024 8.5469 8.12767 8.5469H8.06757C8.055 8.5469 8.04382 8.53572 8.04382 8.52314V8.51196H8.03124V8.52314C8.03124 8.53572 8.02006 8.5469 8.00748 8.5469H7.94739C7.93482 8.5469 7.92364 8.53572 7.92364 8.52314V8.51196H7.91106V8.6042H7.90826Z" fill="#FED700"/>
<path fill-rule="evenodd" clip-rule="evenodd" d="M11.557 8.65165H11.5444L11.557 8.81516H11.6115C11.6241 8.81516 11.6353 8.82634 11.6353 8.83891V9.01779C11.6353 9.03036 11.6241 9.04154 11.6115 9.04154H11.5738L11.6031 9.4524C11.6031 9.46497 11.5919 9.47615 11.5794 9.47615H11.0986H10.6179C10.6053 9.47615 10.5942 9.46497 10.5942 9.4524L10.6235 9.04154H10.5858C10.5732 9.04154 10.562 9.03036 10.562 9.01779V8.83891C10.562 8.82634 10.5732 8.81516 10.5858 8.81516H10.6403L10.6514 8.65165H10.6389C10.6263 8.65165 10.6151 8.64047 10.6151 8.6279V8.48815C10.6151 8.47557 10.6263 8.46439 10.6389 8.46439H10.699C10.7115 8.46439 10.7227 8.47557 10.7227 8.48815V8.49933H10.7353V8.48815C10.7353 8.47557 10.7465 8.46439 10.7591 8.46439H10.8191C10.8317 8.46439 10.8429 8.47557 10.8429 8.48815V8.49933H10.8555V8.48815C10.8555 8.47557 10.8667 8.46439 10.8792 8.46439H10.9407C10.9407 8.46439 10.9519 8.46579 10.9547 8.46998V8.44483H10.9435C10.9309 8.44483 10.9198 8.43365 10.9198 8.42107V8.28132C10.9198 8.26875 10.9309 8.25757 10.9435 8.25757H11.0036C11.0162 8.25757 11.0274 8.26875 11.0274 8.28132V8.2925H11.0413V8.28132C11.0413 8.26875 11.0525 8.25757 11.0651 8.25757H11.1252C11.1378 8.25757 11.1489 8.26875 11.1489 8.28132V8.2925H11.1615V8.28132C11.1615 8.26875 11.1727 8.25757 11.1853 8.25757H11.2454C11.2579 8.25757 11.2691 8.26875 11.2691 8.28132V8.42107C11.2691 8.43365 11.2579 8.44483 11.2454 8.44483H11.2328V8.46998C11.2328 8.46998 11.244 8.46439 11.2496 8.46439H11.3097C11.3222 8.46439 11.3334 8.47557 11.3334 8.48815V8.49933H11.346V8.48815C11.346 8.47557 11.3572 8.46439 11.3697 8.46439H11.4298C11.4424 8.46439 11.4536 8.47557 11.4536 8.48815V8.49933H11.4662V8.48815C11.4662 8.47557 11.4773 8.46439 11.4899 8.46439H11.55C11.5626 8.46439 11.5738 8.47557 11.5738 8.48815V8.6279C11.5738 8.64047 11.5626 8.65165 11.55 8.65165H11.557ZM11.2593 8.75227L11.2663 8.65305H11.2524L11.2593 8.75227ZM10.9365 8.75227L10.9435 8.65305H10.9295L10.9365 8.75227Z" fill="black"/>
<path d="M11.5864 8.86279H10.6096V8.99415H11.5864V8.86279Z" fill="#FED700"/>
<path fill-rule="evenodd" clip-rule="evenodd" d="M11.0987 9.17432C11.0553 9.20925 11.0162 9.24978 10.9855 9.2945C10.9561 9.33502 10.9324 9.38114 10.9156 9.42865H11.2831C11.265 9.38114 11.2412 9.33642 11.2132 9.2945C11.1811 9.24978 11.1434 9.20925 11.1001 9.17432H11.0987Z" fill="#FED700"/>
<path fill-rule="evenodd" clip-rule="evenodd" d="M11.0986 9.04565C11.026 9.09177 10.9631 9.14907 10.9114 9.21754C10.8639 9.28043 10.8275 9.3517 10.8038 9.42856H10.8653C10.8848 9.37126 10.9128 9.31676 10.9477 9.26785C10.9854 9.21475 11.0316 9.16584 11.0847 9.12531C11.093 9.11832 11.1056 9.11832 11.114 9.12531C11.1671 9.16584 11.2132 9.21335 11.251 9.26785C11.2859 9.31676 11.3138 9.37126 11.3334 9.42856H11.3949C11.3711 9.3517 11.3334 9.28043 11.2873 9.21754C11.2356 9.14907 11.1727 9.09037 11.1 9.04565H11.0986Z" fill="#FED700"/>
<path fill-rule="evenodd" clip-rule="evenodd" d="M11.0204 9.0415H10.671L10.6431 9.4286H10.7535C10.7786 9.34056 10.8205 9.26091 10.8736 9.18964C10.9156 9.13374 10.9659 9.08343 11.0218 9.0415H11.0204Z" fill="#FED700"/>
<path fill-rule="evenodd" clip-rule="evenodd" d="M11.5249 9.0415H11.1755C11.2314 9.08343 11.2817 9.13374 11.3237 9.18964C11.3768 9.26091 11.4173 9.34196 11.4438 9.4286H11.5542L11.5263 9.0415H11.5249Z" fill="#FED700"/>
<path fill-rule="evenodd" clip-rule="evenodd" d="M10.6878 8.81511H10.8946L10.8821 8.65161H10.7004L10.6878 8.81511ZM10.7451 8.7662V8.72288C10.7451 8.70052 10.7633 8.68236 10.7856 8.68236C10.808 8.68236 10.8262 8.69912 10.8262 8.72288V8.7662C10.8262 8.77878 10.815 8.78996 10.8024 8.78996H10.7689C10.7563 8.78996 10.7451 8.77878 10.7451 8.7662Z" fill="#FED700"/>
<path fill-rule="evenodd" clip-rule="evenodd" d="M11.216 8.81508L11.1895 8.44336H11.0078L10.9813 8.81508H11.2174H11.216ZM11.0511 8.61105V8.56773C11.0511 8.54537 11.0693 8.52721 11.0917 8.52721C11.114 8.52721 11.1322 8.54537 11.1322 8.56773V8.61105C11.1322 8.62363 11.121 8.63481 11.1084 8.63481H11.0749C11.0623 8.63481 11.0511 8.62363 11.0511 8.61105ZM11.0511 8.76617V8.72285C11.0511 8.70049 11.0693 8.68233 11.0917 8.68233C11.114 8.68233 11.1322 8.69909 11.1322 8.72285V8.76617C11.1322 8.77875 11.121 8.78993 11.1084 8.78993H11.0749C11.0623 8.78993 11.0511 8.77875 11.0511 8.76617Z" fill="#FED700"/>
<path fill-rule="evenodd" clip-rule="evenodd" d="M10.9701 8.39594H11.2258V8.30371H11.2133V8.31489C11.2133 8.32747 11.2021 8.33865 11.1895 8.33865H11.128C11.1154 8.33865 11.1042 8.32747 11.1042 8.31489V8.30371H11.0903V8.31489C11.0903 8.32747 11.0791 8.33865 11.0665 8.33865H11.0064C10.9938 8.33865 10.9827 8.32747 10.9827 8.31489V8.30371H10.9701V8.39594Z" fill="#FED700"/>
<path fill-rule="evenodd" clip-rule="evenodd" d="M11.2775 8.6042H11.5333V8.51196H11.5207V8.52314C11.5207 8.53572 11.5095 8.5469 11.4969 8.5469H11.4368C11.4243 8.5469 11.4131 8.53572 11.4131 8.52314V8.51196H11.4005V8.52314C11.4005 8.53572 11.3893 8.5469 11.3767 8.5469H11.3167C11.3041 8.5469 11.2929 8.53572 11.2929 8.52314V8.51196H11.2803V8.6042H11.2775Z" fill="#FED700"/>
<path fill-rule="evenodd" clip-rule="evenodd" d="M11.5081 8.81511L11.4969 8.65161H11.3139L11.3027 8.81511H11.5081ZM11.3711 8.7662V8.72288C11.3711 8.70052 11.3893 8.68236 11.4117 8.68236C11.434 8.68236 11.4522 8.69912 11.4522 8.72288V8.7662C11.4522 8.77878 11.441 8.78996 11.4284 8.78996H11.3949C11.3823 8.78996 11.3711 8.77878 11.3711 8.7662Z" fill="#FED700"/>
<path fill-rule="evenodd" clip-rule="evenodd" d="M10.6627 8.6042H10.9184V8.51196H10.9044V8.52314C10.9044 8.53572 10.8932 8.5469 10.8807 8.5469H10.8206C10.808 8.5469 10.7968 8.53572 10.7968 8.52314V8.51196H10.7842V8.52314C10.7842 8.53572 10.7731 8.5469 10.7605 8.5469H10.7004C10.6878 8.5469 10.6766 8.53572 10.6766 8.52314V8.51196H10.6641V8.6042H10.6627Z" fill="#FED700"/>
<path fill-rule="evenodd" clip-rule="evenodd" d="M11.557 11.4019H11.5444L11.557 11.5654H11.6115C11.6241 11.5654 11.6353 11.5766 11.6353 11.5892V11.768C11.6353 11.7806 11.6241 11.7918 11.6115 11.7918H11.5738L11.6031 12.2026C11.6031 12.2152 11.5919 12.2264 11.5794 12.2264H11.0986H10.6179C10.6053 12.2264 10.5942 12.2152 10.5942 12.2026L10.6235 11.7918H10.5858C10.5732 11.7918 10.562 11.7806 10.562 11.768V11.5892C10.562 11.5766 10.5732 11.5654 10.5858 11.5654H10.6403L10.6514 11.4019H10.6389C10.6263 11.4019 10.6151 11.3907 10.6151 11.3781V11.2384C10.6151 11.2258 10.6263 11.2146 10.6389 11.2146H10.699C10.7115 11.2146 10.7227 11.2258 10.7227 11.2384V11.2496H10.7353V11.2384C10.7353 11.2258 10.7465 11.2146 10.7591 11.2146H10.8191C10.8317 11.2146 10.8429 11.2258 10.8429 11.2384V11.2496H10.8555V11.2384C10.8555 11.2258 10.8667 11.2146 10.8792 11.2146H10.9407C10.9407 11.2146 10.9519 11.216 10.9547 11.2202V11.1951H10.9435C10.9309 11.1951 10.9198 11.1839 10.9198 11.1713V11.0316C10.9198 11.019 10.9309 11.0078 10.9435 11.0078H11.0036C11.0162 11.0078 11.0274 11.019 11.0274 11.0316V11.0427H11.0413V11.0316C11.0413 11.019 11.0525 11.0078 11.0651 11.0078H11.1252C11.1378 11.0078 11.1489 11.019 11.1489 11.0316V11.0427H11.1615V11.0316C11.1615 11.019 11.1727 11.0078 11.1853 11.0078H11.2454C11.2579 11.0078 11.2691 11.019 11.2691 11.0316V11.1713C11.2691 11.1839 11.2579 11.1951 11.2454 11.1951H11.2328V11.2202C11.2328 11.2202 11.244 11.2146 11.2496 11.2146H11.3097C11.3222 11.2146 11.3334 11.2258 11.3334 11.2384V11.2496H11.346V11.2384C11.346 11.2258 11.3572 11.2146 11.3697 11.2146H11.4298C11.4424 11.2146 11.4536 11.2258 11.4536 11.2384V11.2496H11.4662V11.2384C11.4662 11.2258 11.4773 11.2146 11.4899 11.2146H11.55C11.5626 11.2146 11.5738 11.2258 11.5738 11.2384V11.3781C11.5738 11.3907 11.5626 11.4019 11.55 11.4019H11.557ZM11.2593 11.5025L11.2663 11.4033H11.2524L11.2593 11.5025ZM10.9365 11.5025L10.9435 11.4033H10.9295L10.9365 11.5025Z" fill="black"/>
<path d="M11.5864 11.6128H10.6096V11.7442H11.5864V11.6128Z" fill="#FED700"/>
<path fill-rule="evenodd" clip-rule="evenodd" d="M11.0987 11.9246C11.0553 11.9595 11.0162 12 10.9855 12.0447C10.9561 12.0853 10.9324 12.1314 10.9156 12.1789H11.2831C11.265 12.1314 11.2412 12.0867 11.2132 12.0447C11.1811 12 11.1434 11.9595 11.1001 11.9246H11.0987Z" fill="#FED700"/>
<path fill-rule="evenodd" clip-rule="evenodd" d="M11.0986 11.7959C11.026 11.842 10.9631 11.8993 10.9114 11.9678C10.8639 12.0307 10.8275 12.1019 10.8038 12.1788H10.8653C10.8848 12.1215 10.9128 12.067 10.9477 12.0181C10.9854 11.965 11.0316 11.9161 11.0847 11.8756C11.093 11.8686 11.1056 11.8686 11.114 11.8756C11.1671 11.9161 11.2132 11.9636 11.251 12.0181C11.2859 12.067 11.3138 12.1215 11.3334 12.1788H11.3949C11.3711 12.1019 11.3334 12.0307 11.2873 11.9678C11.2356 11.8993 11.1727 11.8406 11.1 11.7959H11.0986Z" fill="#FED700"/>
<path fill-rule="evenodd" clip-rule="evenodd" d="M11.0204 11.7917H10.671L10.6431 12.1788H10.7535C10.7786 12.0908 10.8205 12.0112 10.8736 11.9399C10.9156 11.884 10.9659 11.8337 11.0218 11.7917H11.0204Z" fill="#FED700"/>
<path fill-rule="evenodd" clip-rule="evenodd" d="M11.5249 11.7917H11.1755C11.2314 11.8337 11.2817 11.884 11.3237 11.9399C11.3768 12.0112 11.4173 12.0922 11.4438 12.1788H11.5542L11.5263 11.7917H11.5249Z" fill="#FED700"/>
<path fill-rule="evenodd" clip-rule="evenodd" d="M10.6878 11.5654H10.8946L10.8821 11.4019H10.7004L10.6878 11.5654ZM10.7451 11.5151V11.4717C10.7451 11.4494 10.7633 11.4312 10.7856 11.4312C10.808 11.4312 10.8262 11.448 10.8262 11.4717V11.5151C10.8262 11.5276 10.815 11.5388 10.8024 11.5388H10.7689C10.7563 11.5388 10.7451 11.5276 10.7451 11.5151Z" fill="#FED700"/>
<path fill-rule="evenodd" clip-rule="evenodd" d="M11.216 11.5653L11.1895 11.1936H11.0078L10.9813 11.5653H11.2174H11.216ZM11.0511 11.3613V11.318C11.0511 11.2956 11.0693 11.2775 11.0917 11.2775C11.114 11.2775 11.1322 11.2956 11.1322 11.318V11.3613C11.1322 11.3739 11.121 11.3851 11.1084 11.3851H11.0749C11.0623 11.3851 11.0511 11.3739 11.0511 11.3613ZM11.0511 11.515V11.4717C11.0511 11.4493 11.0693 11.4312 11.0917 11.4312C11.114 11.4312 11.1322 11.4479 11.1322 11.4717V11.515C11.1322 11.5276 11.121 11.5388 11.1084 11.5388H11.0749C11.0623 11.5388 11.0511 11.5276 11.0511 11.515Z" fill="#FED700"/>
<path fill-rule="evenodd" clip-rule="evenodd" d="M10.9701 11.1462H11.2258V11.054H11.2133V11.0651C11.2133 11.0777 11.2021 11.0889 11.1895 11.0889H11.128C11.1154 11.0889 11.1042 11.0777 11.1042 11.0651V11.054H11.0903V11.0651C11.0903 11.0777 11.0791 11.0889 11.0665 11.0889H11.0064C10.9938 11.0889 10.9827 11.0777 10.9827 11.0651V11.054H10.9701V11.1462Z" fill="#FED700"/>
<path fill-rule="evenodd" clip-rule="evenodd" d="M11.2775 11.3544H11.5333V11.2622H11.5207V11.2734C11.5207 11.286 11.5095 11.2971 11.4969 11.2971H11.4368C11.4243 11.2971 11.4131 11.286 11.4131 11.2734V11.2622H11.4005V11.2734C11.4005 11.286 11.3893 11.2971 11.3767 11.2971H11.3167C11.3041 11.2971 11.2929 11.286 11.2929 11.2734V11.2622H11.2803V11.3544H11.2775Z" fill="#FED700"/>
<path fill-rule="evenodd" clip-rule="evenodd" d="M11.5081 11.5654L11.4969 11.4019H11.3139L11.3027 11.5654H11.5081ZM11.3711 11.5151V11.4717C11.3711 11.4494 11.3893 11.4312 11.4117 11.4312C11.434 11.4312 11.4522 11.448 11.4522 11.4717V11.5151C11.4522 11.5276 11.441 11.5388 11.4284 11.5388H11.3949C11.3823 11.5388 11.3711 11.5276 11.3711 11.5151Z" fill="#FED700"/>
<path fill-rule="evenodd" clip-rule="evenodd" d="M10.6627 11.3544H10.9184V11.2622H10.9044V11.2734C10.9044 11.286 10.8932 11.2971 10.8807 11.2971H10.8206C10.808 11.2971 10.7968 11.286 10.7968 11.2734V11.2622H10.7842V11.2734C10.7842 11.286 10.7731 11.2971 10.7605 11.2971H10.7004C10.6878 11.2971 10.6766 11.286 10.6766 11.2734V11.2622H10.6641V11.3544H10.6627Z" fill="#FED700"/>
<path fill-rule="evenodd" clip-rule="evenodd" d="M6.04547 11.4019H6.03289L6.04407 11.5654H6.09857C6.11115 11.5654 6.12233 11.5766 6.12233 11.5892V11.768C6.12233 11.7806 6.11115 11.7918 6.09857 11.7918H6.06084L6.09019 12.2026C6.09019 12.2152 6.07901 12.2264 6.06643 12.2264H5.5857H5.10637C5.0938 12.2264 5.08262 12.2152 5.08262 12.2026L5.11196 11.7918H5.07423C5.06166 11.7918 5.05048 11.7806 5.05048 11.768V11.5892C5.05048 11.5766 5.06166 11.5654 5.07423 11.5654H5.12873L5.13991 11.4019H5.12734C5.11476 11.4019 5.10358 11.3907 5.10358 11.3781V11.2384C5.10358 11.2258 5.11476 11.2146 5.12734 11.2146H5.18743C5.2 11.2146 5.21118 11.2258 5.21118 11.2384V11.2496H5.22376V11.2384C5.22376 11.2258 5.23494 11.2146 5.24752 11.2146H5.30761C5.32019 11.2146 5.33137 11.2258 5.33137 11.2384V11.2496H5.34394V11.2384C5.34394 11.2258 5.35512 11.2146 5.3677 11.2146H5.42919C5.42919 11.2146 5.44037 11.216 5.44316 11.2202V11.1951H5.43198C5.41941 11.1951 5.40823 11.1839 5.40823 11.1713V11.0316C5.40823 11.019 5.41941 11.0078 5.43198 11.0078H5.49207C5.50465 11.0078 5.51583 11.019 5.51583 11.0316V11.0427H5.52981V11.0316C5.52981 11.019 5.54099 11.0078 5.55356 11.0078H5.61365C5.62623 11.0078 5.63741 11.019 5.63741 11.0316V11.0427H5.64999V11.0316C5.64999 11.019 5.66117 11.0078 5.67374 11.0078H5.73383C5.74641 11.0078 5.75759 11.019 5.75759 11.0316V11.1713C5.75759 11.1839 5.74641 11.1951 5.73383 11.1951H5.72126V11.2202C5.72126 11.2202 5.73244 11.2146 5.73803 11.2146H5.79812C5.8107 11.2146 5.82187 11.2258 5.82187 11.2384V11.2496H5.83445V11.2384C5.83445 11.2258 5.84563 11.2146 5.85821 11.2146H5.9183C5.93088 11.2146 5.94206 11.2258 5.94206 11.2384V11.2496H5.95603V11.2384C5.95603 11.2258 5.96721 11.2146 5.97979 11.2146H6.03988C6.05246 11.2146 6.06364 11.2258 6.06364 11.2384V11.3781C6.06364 11.3907 6.05246 11.4019 6.03988 11.4019H6.04547ZM5.74781 11.5025L5.7548 11.4033H5.74082L5.74781 11.5025ZM5.42639 11.5025L5.43338 11.4033H5.41941L5.42639 11.5025Z" fill="black"/>
<path d="M6.07619 11.6128H5.09937V11.7442H6.07619V11.6128Z" fill="#FED700"/>
<path fill-rule="evenodd" clip-rule="evenodd" d="M5.58706 11.9246C5.54374 11.9595 5.50601 12 5.47386 12.0447C5.44452 12.0853 5.42076 12.1314 5.40399 12.1789H5.77152C5.75336 12.1314 5.7296 12.0867 5.70165 12.0447C5.66951 12 5.63178 11.9595 5.58846 11.9246H5.58706Z" fill="#FED700"/>
<path fill-rule="evenodd" clip-rule="evenodd" d="M5.5871 11.7959C5.51443 11.842 5.45155 11.8993 5.39984 11.9678C5.35233 12.0307 5.31599 12.1019 5.29224 12.1788H5.35372C5.37329 12.1215 5.40124 12.067 5.43618 12.0181C5.47391 11.965 5.52002 11.9161 5.57313 11.8756C5.58151 11.8686 5.59409 11.8686 5.60247 11.8756C5.65558 11.9161 5.70169 11.9636 5.73942 12.0181C5.77436 12.067 5.80231 12.1215 5.82187 12.1788H5.88336C5.85961 12.1019 5.82187 12.0307 5.77576 11.9678C5.72405 11.8993 5.66117 11.8406 5.5885 11.7959H5.5871Z" fill="#FED700"/>
<path fill-rule="evenodd" clip-rule="evenodd" d="M5.51019 11.7917H5.16082L5.13287 12.1788H5.24327C5.26843 12.0908 5.30895 12.0112 5.36345 11.9399C5.40538 11.884 5.45569 11.8337 5.51159 11.7917H5.51019Z" fill="#FED700"/>
<path fill-rule="evenodd" clip-rule="evenodd" d="M6.01331 11.7917H5.66394C5.71984 11.8337 5.77015 11.884 5.81207 11.9399C5.86518 12.0112 5.9057 12.0922 5.93225 12.1788H6.04265L6.0147 11.7917H6.01331Z" fill="#FED700"/>
<path fill-rule="evenodd" clip-rule="evenodd" d="M5.17761 11.5654H5.38444L5.37326 11.4019H5.19159L5.17901 11.5654H5.17761ZM5.23351 11.5151V11.4717C5.23351 11.4494 5.25168 11.4312 5.27404 11.4312C5.2964 11.4312 5.31456 11.448 5.31456 11.4717V11.5151C5.31456 11.5276 5.30338 11.5388 5.29081 11.5388H5.25727C5.24469 11.5388 5.23351 11.5276 5.23351 11.5151Z" fill="#FED700"/>
<path fill-rule="evenodd" clip-rule="evenodd" d="M5.70584 11.5653L5.67929 11.1936H5.49762L5.47107 11.5653H5.70724H5.70584ZM5.54094 11.3613V11.318C5.54094 11.2956 5.55911 11.2775 5.58147 11.2775C5.60383 11.2775 5.62199 11.2956 5.62199 11.318V11.3613C5.62199 11.3739 5.61082 11.3851 5.59824 11.3851H5.5647C5.55212 11.3851 5.54094 11.3739 5.54094 11.3613ZM5.54094 11.515V11.4717C5.54094 11.4493 5.55911 11.4312 5.58147 11.4312C5.60383 11.4312 5.62199 11.4479 5.62199 11.4717V11.515C5.62199 11.5276 5.61082 11.5388 5.59824 11.5388H5.5647C5.55212 11.5388 5.54094 11.5276 5.54094 11.515Z" fill="#FED700"/>
<path fill-rule="evenodd" clip-rule="evenodd" d="M5.4599 11.1462H5.71564V11.054H5.70306V11.0651C5.70306 11.0777 5.69188 11.0889 5.6793 11.0889H5.61781C5.60524 11.0889 5.59406 11.0777 5.59406 11.0651V11.054H5.58148V11.0651C5.58148 11.0777 5.5703 11.0889 5.55772 11.0889H5.49763C5.48505 11.0889 5.47387 11.0777 5.47387 11.0651V11.054H5.4613V11.1462H5.4599Z" fill="#FED700"/>
<path fill-rule="evenodd" clip-rule="evenodd" d="M5.76593 11.3544H6.02167V11.2622H6.00909V11.2734C6.00909 11.286 5.99791 11.2971 5.98533 11.2971H5.92524C5.91266 11.2971 5.90148 11.286 5.90148 11.2734V11.2622H5.88891V11.2734C5.88891 11.286 5.87773 11.2971 5.86515 11.2971H5.80506C5.79248 11.2971 5.7813 11.286 5.7813 11.2734V11.2622H5.76873V11.3544H5.76593Z" fill="#FED700"/>
<path fill-rule="evenodd" clip-rule="evenodd" d="M5.99791 11.5654L5.98673 11.4019H5.80366L5.79248 11.5654H5.99791ZM5.85956 11.5151V11.4717C5.85956 11.4494 5.87773 11.4312 5.90009 11.4312C5.92244 11.4312 5.94061 11.448 5.94061 11.4717V11.5151C5.94061 11.5276 5.92943 11.5388 5.91685 11.5388H5.88332C5.87074 11.5388 5.85956 11.5276 5.85956 11.5151Z" fill="#FED700"/>
<path fill-rule="evenodd" clip-rule="evenodd" d="M5.15247 11.3544H5.4082V11.2622H5.39562V11.2734C5.39562 11.286 5.38444 11.2971 5.37187 11.2971H5.31178C5.2992 11.2971 5.28802 11.286 5.28802 11.2734V11.2622H5.27544V11.2734C5.27544 11.286 5.26426 11.2971 5.25169 11.2971H5.1916C5.17902 11.2971 5.16784 11.286 5.16784 11.2734V11.2622H5.15526V11.3544H5.15247Z" fill="#FED700"/>
<path fill-rule="evenodd" clip-rule="evenodd" d="M6.54993 14.1604L6.54015 14.1702L6.66452 14.2764L6.70365 14.2373C6.71343 14.2275 6.72741 14.2275 6.73719 14.2373L6.86296 14.3631C6.87274 14.3729 6.87274 14.3868 6.86296 14.3966L6.83641 14.4232L7.14804 14.6929C7.15783 14.7027 7.15783 14.7166 7.14804 14.7264L6.80846 15.066L6.46888 15.4056C6.4591 15.4154 6.44512 15.4154 6.43534 15.4056L6.16563 15.0939L6.13908 15.1205C6.1293 15.1303 6.11532 15.1303 6.10554 15.1205L5.97977 14.9933C5.96998 14.9835 5.96998 14.9696 5.97977 14.9598L6.0189 14.9207L5.91129 14.7977L5.90151 14.8061C5.89173 14.8159 5.87775 14.8159 5.86797 14.8061L5.76875 14.7069C5.75897 14.6971 5.75897 14.6831 5.76875 14.6733L5.81207 14.63C5.82185 14.6202 5.83583 14.6202 5.84561 14.63L5.854 14.6384L5.86378 14.6286L5.85539 14.6202C5.84561 14.6104 5.84561 14.5965 5.85539 14.5867L5.89871 14.5433C5.9085 14.5336 5.92247 14.5336 5.93225 14.5433L5.94064 14.5517L5.95042 14.5419L5.94204 14.5336C5.93225 14.5238 5.93225 14.5098 5.94204 14.5L5.98536 14.4567C5.98536 14.4567 5.99374 14.4511 5.99933 14.4497L5.98256 14.4302L5.97278 14.4399C5.963 14.4497 5.94902 14.4497 5.93924 14.4399L5.84002 14.3407C5.83024 14.3309 5.83024 14.317 5.84002 14.3072L5.88334 14.2639C5.89312 14.2541 5.9071 14.2555 5.91688 14.2639L5.92527 14.2722L5.93505 14.2625L5.92666 14.2541C5.91688 14.2443 5.91688 14.2303 5.92666 14.2205L5.96999 14.1772C5.97977 14.1674 5.99374 14.1674 6.00352 14.1772L6.01191 14.1856L6.02169 14.1758L6.01331 14.1674C6.00352 14.1576 6.00352 14.1437 6.01331 14.1339L6.05663 14.0906C6.06641 14.0808 6.08038 14.0822 6.09017 14.0906L6.18939 14.1898C6.19917 14.1996 6.19917 14.2135 6.18939 14.2233L6.1796 14.2331L6.19917 14.2499C6.19917 14.2499 6.20196 14.2401 6.20616 14.2359L6.24948 14.1926C6.25926 14.1828 6.27323 14.1828 6.28302 14.1926L6.2914 14.201L6.30118 14.1912L6.2928 14.1828C6.28302 14.173 6.28302 14.159 6.2928 14.1493L6.33612 14.1059C6.3459 14.0962 6.35988 14.0962 6.36966 14.1059L6.37804 14.1143L6.38783 14.1045L6.37944 14.0962C6.36966 14.0864 6.36966 14.0724 6.37944 14.0626L6.42276 14.0193C6.43254 14.0095 6.44652 14.0095 6.4563 14.0193L6.55552 14.1185C6.5653 14.1283 6.5653 14.1423 6.55552 14.1521L6.54993 14.1604ZM6.41018 14.4413L6.3445 14.3659L6.33472 14.3757L6.41018 14.4413ZM6.1824 14.6691L6.11672 14.5937L6.10694 14.6034L6.1824 14.6691Z" fill="black"/>
<path d="M6.72124 14.288L6.03052 14.9788L6.1234 15.0716L6.81412 14.3809L6.72124 14.288Z" fill="#FED700"/>
<path fill-rule="evenodd" clip-rule="evenodd" d="M6.59604 14.855C6.59045 14.9109 6.59185 14.9668 6.60163 15.0199C6.61002 15.0702 6.62539 15.1177 6.64635 15.1638L6.77632 15.0339L6.90628 14.9039C6.86016 14.883 6.81125 14.8676 6.76234 14.8592C6.70784 14.8494 6.65334 14.848 6.59744 14.8536L6.59604 14.855Z" fill="#FED700"/>
<path fill-rule="evenodd" clip-rule="evenodd" d="M6.5038 14.7627C6.48424 14.8466 6.48144 14.9318 6.49262 15.0171C6.5038 15.0953 6.52756 15.1708 6.56529 15.242L6.60861 15.1987C6.58206 15.1442 6.56389 15.0869 6.55271 15.0268C6.54153 14.9626 6.54014 14.8955 6.54992 14.8298C6.54992 14.8186 6.5597 14.8102 6.57088 14.8088C6.63656 14.799 6.70364 14.8004 6.76792 14.8116C6.82801 14.8214 6.88531 14.841 6.93981 14.8675L6.98313 14.8242C6.91186 14.7865 6.835 14.7627 6.75814 14.7515C6.6729 14.739 6.58765 14.7432 6.5038 14.7627Z" fill="#FED700"/>
<path fill-rule="evenodd" clip-rule="evenodd" d="M6.44652 14.8144L6.20056 15.0617L6.4549 15.3552L6.53316 15.2769C6.48984 15.1973 6.46049 15.1106 6.44791 15.0226C6.43813 14.9527 6.43813 14.8829 6.44791 14.813L6.44652 14.8144Z" fill="#FED700"/>
<path fill-rule="evenodd" clip-rule="evenodd" d="M6.80289 14.4583L6.55554 14.7056C6.62542 14.6958 6.69529 14.6958 6.76516 14.7056C6.8532 14.7182 6.93984 14.7461 7.0195 14.7908L7.09776 14.7126L6.80429 14.4583H6.80289Z" fill="#FED700"/>
<path fill-rule="evenodd" clip-rule="evenodd" d="M6.05103 14.89L6.19637 14.7446L6.07339 14.6384L5.94482 14.767L6.05103 14.8914V14.89ZM6.05662 14.8145L6.02588 14.7838C6.00911 14.767 6.0105 14.7432 6.02588 14.7265C6.04265 14.7111 6.0664 14.7097 6.08317 14.7265L6.11392 14.7572C6.1237 14.767 6.1237 14.781 6.11392 14.7908L6.09016 14.8145C6.08038 14.8243 6.0664 14.8243 6.05662 14.8145Z" fill="#FED700"/>
<path fill-rule="evenodd" clip-rule="evenodd" d="M6.42556 14.5168L6.14328 14.2737L6.01471 14.4022L6.25787 14.6845L6.42556 14.5168ZM6.16424 14.4889L6.13349 14.4581C6.11672 14.4414 6.11812 14.4176 6.13349 14.4009C6.15026 14.3855 6.17402 14.3855 6.19079 14.4009L6.22153 14.4316C6.23132 14.4414 6.23132 14.4554 6.22153 14.4651L6.19778 14.4889C6.18799 14.4987 6.17402 14.4987 6.16424 14.4889ZM6.27324 14.5979L6.2425 14.5671C6.22712 14.5504 6.22712 14.5266 6.2425 14.5099C6.25926 14.4931 6.28302 14.4931 6.29979 14.5099L6.33054 14.5406C6.34032 14.5504 6.34032 14.5644 6.33054 14.5741L6.30678 14.5979C6.297 14.6077 6.28302 14.6077 6.27324 14.5979Z" fill="#FED700"/>
<path fill-rule="evenodd" clip-rule="evenodd" d="M5.95458 14.3939L6.13486 14.2136L6.06918 14.1479L6.05939 14.1577L6.06778 14.1661C6.07756 14.1759 6.07756 14.1899 6.06778 14.1997L6.02446 14.243C6.01468 14.2528 6.0007 14.2528 5.99092 14.243L5.98253 14.2346L5.97275 14.2444L5.98114 14.2528C5.99092 14.2625 5.99092 14.2765 5.98114 14.2863L5.93781 14.3296C5.92803 14.3394 5.91406 14.3394 5.90428 14.3296L5.89589 14.3212L5.88611 14.331L5.95179 14.3967L5.95458 14.3939Z" fill="#FED700"/>
<path fill-rule="evenodd" clip-rule="evenodd" d="M6.31933 14.3241L6.4996 14.1438L6.43392 14.0781L6.42414 14.0879L6.43252 14.0963C6.44231 14.1061 6.44231 14.12 6.43252 14.1298L6.3892 14.1732C6.37942 14.1829 6.36545 14.1829 6.35566 14.1732L6.34728 14.1648L6.3375 14.1746L6.34588 14.1829C6.35566 14.1927 6.35566 14.2067 6.34588 14.2165L6.30256 14.2598C6.29278 14.2696 6.2788 14.2696 6.26902 14.2598L6.26064 14.2514L6.25085 14.2612L6.31654 14.3269L6.31933 14.3241Z" fill="#FED700"/>
<path fill-rule="evenodd" clip-rule="evenodd" d="M6.631 14.3101L6.50802 14.2039L6.37946 14.3324L6.48566 14.4554L6.631 14.3101ZM6.49964 14.3716L6.46889 14.3408C6.45212 14.3254 6.45212 14.3003 6.46889 14.2835C6.48566 14.2667 6.50942 14.2667 6.52619 14.2835L6.55693 14.3143C6.56671 14.324 6.56671 14.338 6.55693 14.3478L6.53318 14.3716C6.52339 14.3813 6.50942 14.3813 6.49964 14.3716Z" fill="#FED700"/>
<path fill-rule="evenodd" clip-rule="evenodd" d="M5.88476 14.7586L6.06503 14.5769L5.99935 14.5112L5.98957 14.521L5.99795 14.5294C6.00774 14.5392 6.00774 14.5532 5.99795 14.5629L5.95463 14.6063C5.94485 14.616 5.93088 14.616 5.92109 14.6063L5.91271 14.5979L5.90293 14.6077L5.91131 14.616C5.92109 14.6258 5.92109 14.6398 5.91131 14.6496L5.86799 14.6929C5.85821 14.7027 5.84423 14.7027 5.83445 14.6929L5.82607 14.6845L5.81628 14.6943L5.88197 14.76L5.88476 14.7586Z" fill="#FED700"/>
<path fill-rule="evenodd" clip-rule="evenodd" d="M10.1344 14.1604L10.1428 14.1702L10.0198 14.2764L9.98072 14.2373C9.97094 14.2275 9.95696 14.2275 9.94718 14.2373L9.82141 14.3631C9.81163 14.3729 9.81163 14.3868 9.82141 14.3966L9.84796 14.4232L9.53633 14.6929C9.52655 14.7027 9.52655 14.7166 9.53633 14.7264L9.87591 15.066L10.2155 15.4056C10.2253 15.4154 10.2393 15.4154 10.249 15.4056L10.5187 15.0939L10.5453 15.1205C10.5551 15.1303 10.5691 15.1303 10.5788 15.1205L10.7046 14.9933C10.7144 14.9835 10.7144 14.9696 10.7046 14.9598L10.6655 14.9207L10.7731 14.7977L10.7829 14.8061C10.7926 14.8159 10.8066 14.8159 10.8164 14.8061L10.9156 14.7069C10.9254 14.6971 10.9254 14.6831 10.9156 14.6733L10.8723 14.63C10.8625 14.6202 10.8485 14.6202 10.8388 14.63L10.8304 14.6384L10.8206 14.6286L10.829 14.6202C10.8388 14.6104 10.8388 14.5965 10.829 14.5867L10.7857 14.5433C10.7759 14.5336 10.7619 14.5336 10.7521 14.5433L10.7437 14.5517L10.734 14.5419L10.7423 14.5336C10.7521 14.5238 10.7521 14.5098 10.7423 14.5L10.699 14.4567C10.699 14.4567 10.6906 14.4511 10.685 14.4497L10.7018 14.4302L10.7102 14.4399C10.72 14.4497 10.734 14.4497 10.7437 14.4399L10.843 14.3407C10.8527 14.3309 10.8527 14.317 10.843 14.3072L10.7996 14.2639C10.7899 14.2541 10.7759 14.2555 10.7661 14.2639L10.7577 14.2722L10.7479 14.2625L10.7563 14.2541C10.7661 14.2443 10.7661 14.2303 10.7563 14.2205L10.713 14.1772C10.7032 14.1674 10.6892 14.1674 10.6795 14.1772L10.6711 14.1856L10.6613 14.1758L10.6697 14.1674C10.6795 14.1576 10.6795 14.1437 10.6697 14.1339L10.6263 14.0906C10.6166 14.0808 10.6026 14.0822 10.5928 14.0906L10.4936 14.1898C10.4838 14.1996 10.4838 14.2135 10.4936 14.2233L10.5034 14.2331L10.4838 14.2499C10.4838 14.2499 10.481 14.2401 10.4768 14.2359L10.4335 14.1926C10.4237 14.1828 10.4097 14.1828 10.4 14.1926L10.3916 14.201L10.3818 14.1912L10.3902 14.1828C10.4 14.173 10.4 14.159 10.3902 14.1493L10.3469 14.1059C10.3371 14.0962 10.3231 14.0962 10.3133 14.1059L10.3049 14.1143L10.2951 14.1045L10.3035 14.0962C10.3133 14.0864 10.3133 14.0724 10.3035 14.0626L10.2602 14.0193C10.2504 14.0095 10.2365 14.0095 10.2267 14.0193L10.1275 14.1185C10.1177 14.1283 10.1177 14.1423 10.1275 14.1521L10.1344 14.1604ZM10.2742 14.4413L10.3399 14.3659L10.3497 14.3757L10.2742 14.4413ZM10.502 14.6691L10.5677 14.5937L10.5774 14.6034L10.502 14.6691Z" fill="black"/>
<path d="M9.96477 14.2872L9.87189 14.3801L10.5626 15.0708L10.6555 14.978L9.96477 14.2872Z" fill="#FED700"/>
<path fill-rule="evenodd" clip-rule="evenodd" d="M10.0897 14.855C10.0953 14.9109 10.0939 14.9668 10.0841 15.0199C10.0757 15.0702 10.0604 15.1177 10.0394 15.1638L9.90944 15.0339L9.77948 14.9039C9.8256 14.883 9.87451 14.8676 9.92342 14.8592C9.97792 14.8494 10.0324 14.848 10.0883 14.8536L10.0897 14.855Z" fill="#FED700"/>
<path fill-rule="evenodd" clip-rule="evenodd" d="M10.1806 14.7627C10.2001 14.8466 10.2029 14.9318 10.1917 15.0171C10.1806 15.0953 10.1568 15.1708 10.1191 15.242L10.0758 15.1987C10.1023 15.1442 10.1205 15.0869 10.1317 15.0268C10.1428 14.9626 10.1442 14.8955 10.1344 14.8298C10.133 14.8186 10.1247 14.8102 10.1135 14.8088C10.0478 14.799 9.98073 14.8004 9.91644 14.8116C9.85635 14.8214 9.79906 14.841 9.74455 14.8675L9.70123 14.8242C9.7725 14.7865 9.84936 14.7627 9.92622 14.7515C10.0115 14.739 10.0967 14.7432 10.1806 14.7627Z" fill="#FED700"/>
<path fill-rule="evenodd" clip-rule="evenodd" d="M10.2392 14.8144L10.4852 15.0617L10.2308 15.3552L10.1526 15.2769C10.1959 15.1973 10.2253 15.1106 10.2378 15.0226C10.2476 14.9527 10.2476 14.8829 10.2378 14.813L10.2392 14.8144Z" fill="#FED700"/>
<path fill-rule="evenodd" clip-rule="evenodd" d="M9.88288 14.4583L10.1302 14.7056C10.0604 14.6958 9.99048 14.6958 9.92061 14.7056C9.83257 14.7182 9.74593 14.7461 9.66627 14.7908L9.58801 14.7126L9.88148 14.4583H9.88288Z" fill="#FED700"/>
<path fill-rule="evenodd" clip-rule="evenodd" d="M10.6333 14.89L10.488 14.7446L10.6124 14.6384L10.7409 14.767L10.6347 14.8914L10.6333 14.89ZM10.6291 14.8145L10.6599 14.7838C10.6766 14.767 10.6752 14.7432 10.6599 14.7265C10.6431 14.7111 10.6193 14.7097 10.6026 14.7265L10.5718 14.7572C10.562 14.767 10.562 14.781 10.5718 14.7908L10.5956 14.8145C10.6054 14.8243 10.6193 14.8243 10.6291 14.8145Z" fill="#FED700"/>
<path fill-rule="evenodd" clip-rule="evenodd" d="M10.2602 14.5168L10.5425 14.2737L10.671 14.4022L10.4279 14.6845L10.2602 14.5168ZM10.5215 14.4889L10.5523 14.4581C10.569 14.4414 10.5676 14.4176 10.5523 14.4009C10.5355 14.3855 10.5117 14.3855 10.495 14.4009L10.4642 14.4316C10.4544 14.4414 10.4544 14.4554 10.4642 14.4651L10.488 14.4889C10.4978 14.4987 10.5117 14.4987 10.5215 14.4889ZM10.4111 14.5979L10.4419 14.5671C10.4572 14.5504 10.4572 14.5266 10.4419 14.5099C10.4251 14.4931 10.4013 14.4931 10.3846 14.5099L10.3538 14.5406C10.344 14.5504 10.344 14.5644 10.3538 14.5741L10.3776 14.5979C10.3874 14.6077 10.4013 14.6077 10.4111 14.5979Z" fill="#FED700"/>
<path fill-rule="evenodd" clip-rule="evenodd" d="M10.7311 14.3939L10.5508 14.2136L10.6165 14.1479L10.6263 14.1577L10.6179 14.1661C10.6081 14.1759 10.6081 14.1899 10.6179 14.1997L10.6612 14.243C10.671 14.2528 10.685 14.2528 10.6948 14.243L10.7032 14.2346L10.7129 14.2444L10.7046 14.2528C10.6948 14.2625 10.6948 14.2765 10.7046 14.2863L10.7479 14.3296C10.7577 14.3394 10.7716 14.3394 10.7814 14.3296L10.7898 14.3212L10.7996 14.331L10.7339 14.3967L10.7311 14.3939Z" fill="#FED700"/>
<path fill-rule="evenodd" clip-rule="evenodd" d="M10.3664 14.3241L10.1861 14.1438L10.2518 14.0781L10.2616 14.0879L10.2532 14.0963C10.2434 14.1061 10.2434 14.12 10.2532 14.1298L10.2965 14.1732C10.3063 14.1829 10.3203 14.1829 10.33 14.1732L10.3384 14.1648L10.3482 14.1746L10.3398 14.1829C10.33 14.1927 10.33 14.2067 10.3398 14.2165L10.3831 14.2598C10.3929 14.2696 10.4069 14.2696 10.4167 14.2598L10.4251 14.2514L10.4348 14.2612L10.3692 14.3269L10.3664 14.3241Z" fill="#FED700"/>
<path fill-rule="evenodd" clip-rule="evenodd" d="M10.0533 14.3101L10.1763 14.2039L10.3049 14.3324L10.1987 14.4554L10.0533 14.3101ZM10.1861 14.3716L10.2168 14.3408C10.2322 14.3254 10.2322 14.3003 10.2168 14.2835C10.2001 14.2667 10.1763 14.2667 10.1596 14.2835L10.1288 14.3143C10.119 14.324 10.119 14.338 10.1288 14.3478L10.1526 14.3716C10.1623 14.3813 10.1763 14.3813 10.1861 14.3716Z" fill="#FED700"/>
<path fill-rule="evenodd" clip-rule="evenodd" d="M10.7996 14.7586L10.6193 14.5769L10.685 14.5112L10.6948 14.521L10.6864 14.5294C10.6766 14.5392 10.6766 14.5532 10.6864 14.5629L10.7297 14.6063C10.7395 14.616 10.7535 14.616 10.7633 14.6063L10.7716 14.5979L10.7814 14.6077L10.773 14.616C10.7633 14.6258 10.7633 14.6398 10.773 14.6496L10.8164 14.6929C10.8261 14.7027 10.8401 14.7027 10.8499 14.6929L10.8583 14.6845L10.8681 14.6943L10.8024 14.76L10.7996 14.7586Z" fill="#FED700"/>
<path fill-rule="evenodd" clip-rule="evenodd" d="M8.34286 14.7418C7.30455 14.7418 6.26624 14.0543 6.26624 12.6806V9.5866C6.26624 9.56284 6.2844 9.54468 6.30816 9.54468H10.379C10.4027 9.54468 10.4209 9.56284 10.4209 9.5866V12.6806C10.4209 13.3667 10.161 13.8824 9.77107 14.2262L9.76827 14.229C9.37838 14.5713 8.86132 14.7418 8.34426 14.7418H8.34286Z" fill="black"/>
<path fill-rule="evenodd" clip-rule="evenodd" d="M6.34869 12.6806C6.34869 13.9985 7.34508 14.6581 8.34287 14.6581C8.84176 14.6581 9.33926 14.4946 9.71238 14.1662H9.71518C10.0883 13.835 10.337 13.3403 10.337 12.6806V9.6272H6.35009V12.6793L6.34869 12.6806Z" fill="white"/>
<path fill-rule="evenodd" clip-rule="evenodd" d="M8.34289 11.1782C8.07039 11.1782 7.87195 10.9854 7.87195 10.7115V10.0323C7.87195 10.0197 7.88313 10.0085 7.8957 10.0085H8.79008C8.80266 10.0085 8.81384 10.0197 8.81384 10.0323V10.7115C8.81384 10.9868 8.6168 11.1782 8.34289 11.1782Z" fill="black"/>
<path fill-rule="evenodd" clip-rule="evenodd" d="M8.34286 11.1308C8.59022 11.1308 8.7663 10.9603 8.7663 10.7116V10.0562H7.91943V10.7116C7.91943 10.9603 8.09551 11.1308 8.34286 11.1308Z" fill="#003399"/>
<path fill-rule="evenodd" clip-rule="evenodd" d="M8.1039 10.1357C8.17517 10.1357 8.23387 10.193 8.23387 10.2657C8.23387 10.3384 8.17657 10.3957 8.1039 10.3957C8.03123 10.3957 7.97394 10.3384 7.97394 10.2657C7.97394 10.193 8.03123 10.1357 8.1039 10.1357Z" fill="black"/>
<path fill-rule="evenodd" clip-rule="evenodd" d="M8.10393 10.1833C8.14865 10.1833 8.18638 10.2197 8.18638 10.2658C8.18638 10.3119 8.15005 10.3483 8.10393 10.3483C8.05782 10.3483 8.02148 10.3119 8.02148 10.2658C8.02148 10.2197 8.05782 10.1833 8.10393 10.1833Z" fill="white"/>
<path fill-rule="evenodd" clip-rule="evenodd" d="M8.58187 10.1357C8.65314 10.1357 8.71183 10.193 8.71183 10.2657C8.71183 10.3384 8.65454 10.3957 8.58187 10.3957C8.5092 10.3957 8.4519 10.3384 8.4519 10.2657C8.4519 10.193 8.5092 10.1357 8.58187 10.1357Z" fill="black"/>
<path fill-rule="evenodd" clip-rule="evenodd" d="M8.58184 10.1833C8.62656 10.1833 8.66429 10.2197 8.66429 10.2658C8.66429 10.3119 8.62796 10.3483 8.58184 10.3483C8.53572 10.3483 8.49939 10.3119 8.49939 10.2658C8.49939 10.2197 8.53572 10.1833 8.58184 10.1833Z" fill="white"/>
<path fill-rule="evenodd" clip-rule="evenodd" d="M8.1039 10.6152C8.17517 10.6152 8.23387 10.6725 8.23387 10.7452C8.23387 10.8179 8.17657 10.8752 8.1039 10.8752C8.03123 10.8752 7.97394 10.8179 7.97394 10.7452C7.97394 10.6725 8.03123 10.6152 8.1039 10.6152Z" fill="black"/>
<path fill-rule="evenodd" clip-rule="evenodd" d="M8.10393 10.6626C8.14865 10.6626 8.18638 10.6989 8.18638 10.745C8.18638 10.7912 8.15005 10.8275 8.10393 10.8275C8.05782 10.8275 8.02148 10.7912 8.02148 10.745C8.02148 10.6989 8.05782 10.6626 8.10393 10.6626Z" fill="white"/>
<path fill-rule="evenodd" clip-rule="evenodd" d="M8.58187 10.6152C8.65314 10.6152 8.71183 10.6725 8.71183 10.7452C8.71183 10.8179 8.65454 10.8752 8.58187 10.8752C8.5092 10.8752 8.4519 10.8179 8.4519 10.7452C8.4519 10.6725 8.5092 10.6152 8.58187 10.6152Z" fill="black"/>
<path fill-rule="evenodd" clip-rule="evenodd" d="M8.58184 10.6626C8.62656 10.6626 8.66429 10.6989 8.66429 10.745C8.66429 10.7912 8.62796 10.8275 8.58184 10.8275C8.53572 10.8275 8.49939 10.7912 8.49939 10.745C8.49939 10.6989 8.53572 10.6626 8.58184 10.6626Z" fill="white"/>
<path fill-rule="evenodd" clip-rule="evenodd" d="M8.34285 10.3762C8.41413 10.3762 8.47282 10.4335 8.47282 10.5062C8.47282 10.5789 8.41552 10.6361 8.34285 10.6361C8.27019 10.6361 8.21289 10.5789 8.21289 10.5062C8.21289 10.4335 8.27019 10.3762 8.34285 10.3762Z" fill="black"/>
<path fill-rule="evenodd" clip-rule="evenodd" d="M8.34289 10.4224C8.38761 10.4224 8.42534 10.4587 8.42534 10.5048C8.42534 10.5509 8.389 10.5873 8.34289 10.5873C8.29677 10.5873 8.26044 10.5509 8.26044 10.5048C8.26044 10.4587 8.29677 10.4224 8.34289 10.4224Z" fill="white"/>
<path fill-rule="evenodd" clip-rule="evenodd" d="M8.34289 14.2778C8.07039 14.2778 7.87195 14.085 7.87195 13.8111V13.1319C7.87195 13.1193 7.88313 13.1082 7.8957 13.1082H8.79008C8.80266 13.1082 8.81384 13.1193 8.81384 13.1319V13.8111C8.81384 14.0864 8.6168 14.2778 8.34289 14.2778Z" fill="black"/>
<path fill-rule="evenodd" clip-rule="evenodd" d="M8.34286 14.2304C8.59022 14.2304 8.7663 14.0599 8.7663 13.8112V13.1558H7.91943V13.8112C7.91943 14.0599 8.09551 14.2304 8.34286 14.2304Z" fill="#003399"/>
<path fill-rule="evenodd" clip-rule="evenodd" d="M8.1039 13.2354C8.17517 13.2354 8.23387 13.2926 8.23387 13.3653C8.23387 13.438 8.17657 13.4953 8.1039 13.4953C8.03123 13.4953 7.97394 13.438 7.97394 13.3653C7.97394 13.2926 8.03123 13.2354 8.1039 13.2354Z" fill="black"/>
<path fill-rule="evenodd" clip-rule="evenodd" d="M8.10393 13.283C8.14865 13.283 8.18638 13.3193 8.18638 13.3654C8.18638 13.4115 8.15005 13.4479 8.10393 13.4479C8.05782 13.4479 8.02148 13.4115 8.02148 13.3654C8.02148 13.3193 8.05782 13.283 8.10393 13.283Z" fill="white"/>
<path fill-rule="evenodd" clip-rule="evenodd" d="M8.58187 13.2354C8.65314 13.2354 8.71183 13.2926 8.71183 13.3653C8.71183 13.438 8.65454 13.4953 8.58187 13.4953C8.5092 13.4953 8.4519 13.438 8.4519 13.3653C8.4519 13.2926 8.5092 13.2354 8.58187 13.2354Z" fill="black"/>
<path fill-rule="evenodd" clip-rule="evenodd" d="M8.58184 13.283C8.62656 13.283 8.66429 13.3193 8.66429 13.3654C8.66429 13.4115 8.62796 13.4479 8.58184 13.4479C8.53572 13.4479 8.49939 13.4115 8.49939 13.3654C8.49939 13.3193 8.53572 13.283 8.58184 13.283Z" fill="white"/>
<path fill-rule="evenodd" clip-rule="evenodd" d="M8.1039 13.7146C8.17517 13.7146 8.23387 13.7719 8.23387 13.8446C8.23387 13.9172 8.17657 13.9745 8.1039 13.9745C8.03123 13.9745 7.97394 13.9172 7.97394 13.8446C7.97394 13.7719 8.03123 13.7146 8.1039 13.7146Z" fill="black"/>
<path fill-rule="evenodd" clip-rule="evenodd" d="M8.10393 13.7607C8.14865 13.7607 8.18638 13.7971 8.18638 13.8432C8.18638 13.8893 8.15005 13.9256 8.10393 13.9256C8.05782 13.9256 8.02148 13.8893 8.02148 13.8432C8.02148 13.7971 8.05782 13.7607 8.10393 13.7607Z" fill="white"/>
<path fill-rule="evenodd" clip-rule="evenodd" d="M8.58187 13.7146C8.65314 13.7146 8.71183 13.7719 8.71183 13.8446C8.71183 13.9172 8.65454 13.9745 8.58187 13.9745C8.5092 13.9745 8.4519 13.9172 8.4519 13.8446C8.4519 13.7719 8.5092 13.7146 8.58187 13.7146Z" fill="black"/>
<path fill-rule="evenodd" clip-rule="evenodd" d="M8.58184 13.7607C8.62656 13.7607 8.66429 13.7971 8.66429 13.8432C8.66429 13.8893 8.62796 13.9256 8.58184 13.9256C8.53572 13.9256 8.49939 13.8893 8.49939 13.8432C8.49939 13.7971 8.53572 13.7607 8.58184 13.7607Z" fill="white"/>
<path fill-rule="evenodd" clip-rule="evenodd" d="M8.34285 13.4744C8.41413 13.4744 8.47282 13.5317 8.47282 13.6043C8.47282 13.677 8.41552 13.7343 8.34285 13.7343C8.27019 13.7343 8.21289 13.677 8.21289 13.6043C8.21289 13.5317 8.27019 13.4744 8.34285 13.4744Z" fill="black"/>
<path fill-rule="evenodd" clip-rule="evenodd" d="M8.34289 13.5217C8.38761 13.5217 8.42534 13.5581 8.42534 13.6042C8.42534 13.6503 8.389 13.6866 8.34289 13.6866C8.29677 13.6866 8.26044 13.6503 8.26044 13.6042C8.26044 13.5581 8.29677 13.5217 8.34289 13.5217Z" fill="white"/>
<path fill-rule="evenodd" clip-rule="evenodd" d="M8.34289 12.728C8.07039 12.728 7.87195 12.5352 7.87195 12.2613V11.5821C7.87195 11.5695 7.88313 11.5583 7.8957 11.5583H8.79008C8.80266 11.5583 8.81384 11.5695 8.81384 11.5821V12.2613C8.81384 12.5366 8.6168 12.728 8.34289 12.728Z" fill="black"/>
<path fill-rule="evenodd" clip-rule="evenodd" d="M8.34286 12.6806C8.59022 12.6806 8.7663 12.5101 8.7663 12.2614V11.606H7.91943V12.2614C7.91943 12.5101 8.09551 12.6806 8.34286 12.6806Z" fill="#003399"/>
<path fill-rule="evenodd" clip-rule="evenodd" d="M8.1039 11.6855C8.17517 11.6855 8.23387 11.7428 8.23387 11.8155C8.23387 11.8882 8.17657 11.9455 8.1039 11.9455C8.03123 11.9455 7.97394 11.8882 7.97394 11.8155C7.97394 11.7428 8.03123 11.6855 8.1039 11.6855Z" fill="black"/>
<path fill-rule="evenodd" clip-rule="evenodd" d="M8.10393 11.7332C8.14865 11.7332 8.18638 11.7695 8.18638 11.8156C8.18638 11.8617 8.15005 11.8981 8.10393 11.8981C8.05782 11.8981 8.02148 11.8617 8.02148 11.8156C8.02148 11.7695 8.05782 11.7332 8.10393 11.7332Z" fill="white"/>
<path fill-rule="evenodd" clip-rule="evenodd" d="M8.58187 11.6855C8.65314 11.6855 8.71183 11.7428 8.71183 11.8155C8.71183 11.8882 8.65454 11.9455 8.58187 11.9455C8.5092 11.9455 8.4519 11.8882 8.4519 11.8155C8.4519 11.7428 8.5092 11.6855 8.58187 11.6855Z" fill="black"/>
<path fill-rule="evenodd" clip-rule="evenodd" d="M8.58184 11.7332C8.62656 11.7332 8.66429 11.7695 8.66429 11.8156C8.66429 11.8617 8.62796 11.8981 8.58184 11.8981C8.53572 11.8981 8.49939 11.8617 8.49939 11.8156C8.49939 11.7695 8.53572 11.7332 8.58184 11.7332Z" fill="white"/>
<path fill-rule="evenodd" clip-rule="evenodd" d="M8.1039 12.1636C8.17517 12.1636 8.23387 12.2209 8.23387 12.2935C8.23387 12.3662 8.17657 12.4235 8.1039 12.4235C8.03123 12.4235 7.97394 12.3662 7.97394 12.2935C7.97394 12.2209 8.03123 12.1636 8.1039 12.1636Z" fill="black"/>
<path fill-rule="evenodd" clip-rule="evenodd" d="M8.10393 12.2109C8.14865 12.2109 8.18638 12.2473 8.18638 12.2934C8.18638 12.3395 8.15005 12.3758 8.10393 12.3758C8.05782 12.3758 8.02148 12.3395 8.02148 12.2934C8.02148 12.2473 8.05782 12.2109 8.10393 12.2109Z" fill="white"/>
<path fill-rule="evenodd" clip-rule="evenodd" d="M8.58187 12.1636C8.65314 12.1636 8.71183 12.2209 8.71183 12.2935C8.71183 12.3662 8.65454 12.4235 8.58187 12.4235C8.5092 12.4235 8.4519 12.3662 8.4519 12.2935C8.4519 12.2209 8.5092 12.1636 8.58187 12.1636Z" fill="black"/>
<path fill-rule="evenodd" clip-rule="evenodd" d="M8.58184 12.2109C8.62656 12.2109 8.66429 12.2473 8.66429 12.2934C8.66429 12.3395 8.62796 12.3758 8.58184 12.3758C8.53572 12.3758 8.49939 12.3395 8.49939 12.2934C8.49939 12.2473 8.53572 12.2109 8.58184 12.2109Z" fill="white"/>
<path fill-rule="evenodd" clip-rule="evenodd" d="M8.34285 11.9246C8.41413 11.9246 8.47282 11.9819 8.47282 12.0545C8.47282 12.1272 8.41552 12.1845 8.34285 12.1845C8.27019 12.1845 8.21289 12.1272 8.21289 12.0545C8.21289 11.9819 8.27019 11.9246 8.34285 11.9246Z" fill="black"/>
<path fill-rule="evenodd" clip-rule="evenodd" d="M8.34289 11.9722C8.38761 11.9722 8.42534 12.0085 8.42534 12.0546C8.42534 12.1007 8.389 12.1371 8.34289 12.1371C8.29677 12.1371 8.26044 12.1007 8.26044 12.0546C8.26044 12.0085 8.29677 11.9722 8.34289 11.9722Z" fill="white"/>
<path fill-rule="evenodd" clip-rule="evenodd" d="M9.58801 12.728C9.31551 12.728 9.11707 12.5352 9.11707 12.2613V11.5821C9.11707 11.5695 9.12825 11.5583 9.14082 11.5583H10.0352C10.0478 11.5583 10.059 11.5695 10.059 11.5821V12.2613C10.059 12.5366 9.86191 12.728 9.58801 12.728Z" fill="black"/>
<path fill-rule="evenodd" clip-rule="evenodd" d="M9.58798 12.6806C9.83533 12.6806 10.0114 12.5101 10.0114 12.2614V11.606H9.16455V12.2614C9.16455 12.5101 9.34063 12.6806 9.58798 12.6806Z" fill="#003399"/>
<path fill-rule="evenodd" clip-rule="evenodd" d="M9.35042 11.6855C9.42169 11.6855 9.48039 11.7428 9.48039 11.8155C9.48039 11.8882 9.42309 11.9455 9.35042 11.9455C9.27775 11.9455 9.22046 11.8882 9.22046 11.8155C9.22046 11.7428 9.27775 11.6855 9.35042 11.6855Z" fill="black"/>
<path fill-rule="evenodd" clip-rule="evenodd" d="M9.35046 11.7332C9.39517 11.7332 9.43291 11.7695 9.43291 11.8156C9.43291 11.8617 9.39657 11.8981 9.35046 11.8981C9.30434 11.8981 9.26801 11.8617 9.26801 11.8156C9.26801 11.7695 9.30434 11.7332 9.35046 11.7332Z" fill="white"/>
<path fill-rule="evenodd" clip-rule="evenodd" d="M9.82699 11.6855C9.89826 11.6855 9.95695 11.7428 9.95695 11.8155C9.95695 11.8882 9.89965 11.9455 9.82699 11.9455C9.75432 11.9455 9.69702 11.8882 9.69702 11.8155C9.69702 11.7428 9.75432 11.6855 9.82699 11.6855Z" fill="black"/>
<path fill-rule="evenodd" clip-rule="evenodd" d="M9.82696 11.7332C9.87168 11.7332 9.90941 11.7695 9.90941 11.8156C9.90941 11.8617 9.87307 11.8981 9.82696 11.8981C9.78084 11.8981 9.74451 11.8617 9.74451 11.8156C9.74451 11.7695 9.78084 11.7332 9.82696 11.7332Z" fill="white"/>
<path fill-rule="evenodd" clip-rule="evenodd" d="M9.35042 12.1636C9.42169 12.1636 9.48039 12.2209 9.48039 12.2935C9.48039 12.3662 9.42309 12.4235 9.35042 12.4235C9.27775 12.4235 9.22046 12.3662 9.22046 12.2935C9.22046 12.2209 9.27775 12.1636 9.35042 12.1636Z" fill="black"/>
<path fill-rule="evenodd" clip-rule="evenodd" d="M9.35046 12.2109C9.39517 12.2109 9.43291 12.2473 9.43291 12.2934C9.43291 12.3395 9.39657 12.3758 9.35046 12.3758C9.30434 12.3758 9.26801 12.3395 9.26801 12.2934C9.26801 12.2473 9.30434 12.2109 9.35046 12.2109Z" fill="white"/>
<path fill-rule="evenodd" clip-rule="evenodd" d="M9.82699 12.1636C9.89826 12.1636 9.95695 12.2209 9.95695 12.2935C9.95695 12.3662 9.89965 12.4235 9.82699 12.4235C9.75432 12.4235 9.69702 12.3662 9.69702 12.2935C9.69702 12.2209 9.75432 12.1636 9.82699 12.1636Z" fill="black"/>
<path fill-rule="evenodd" clip-rule="evenodd" d="M9.82696 12.2109C9.87168 12.2109 9.90941 12.2473 9.90941 12.2934C9.90941 12.3395 9.87307 12.3758 9.82696 12.3758C9.78084 12.3758 9.74451 12.3395 9.74451 12.2934C9.74451 12.2473 9.78084 12.2109 9.82696 12.2109Z" fill="white"/>
<path fill-rule="evenodd" clip-rule="evenodd" d="M9.58803 11.9246C9.6593 11.9246 9.718 11.9819 9.718 12.0545C9.718 12.1272 9.6607 12.1845 9.58803 12.1845C9.51536 12.1845 9.45807 12.1272 9.45807 12.0545C9.45807 11.9819 9.51536 11.9246 9.58803 11.9246Z" fill="black"/>
<path fill-rule="evenodd" clip-rule="evenodd" d="M9.588 11.9722C9.63272 11.9722 9.67045 12.0085 9.67045 12.0546C9.67045 12.1007 9.63412 12.1371 9.588 12.1371C9.54189 12.1371 9.50555 12.1007 9.50555 12.0546C9.50555 12.0085 9.54189 11.9722 9.588 11.9722Z" fill="white"/>
<path fill-rule="evenodd" clip-rule="evenodd" d="M7.09631 12.728C6.82381 12.728 6.62537 12.5352 6.62537 12.2613V11.5821C6.62537 11.5695 6.63655 11.5583 6.64912 11.5583H7.5435C7.55608 11.5583 7.56726 11.5695 7.56726 11.5821V12.2613C7.56726 12.5366 7.36882 12.728 7.09631 12.728Z" fill="black"/>
<path fill-rule="evenodd" clip-rule="evenodd" d="M7.09634 12.6806C7.34369 12.6806 7.51977 12.5101 7.51977 12.2614V11.606H6.67291V12.2614C6.67291 12.5101 6.84899 12.6806 7.09634 12.6806Z" fill="#003399"/>
<path fill-rule="evenodd" clip-rule="evenodd" d="M6.85738 11.6855C6.92865 11.6855 6.98734 11.7428 6.98734 11.8155C6.98734 11.8882 6.93005 11.9455 6.85738 11.9455C6.78471 11.9455 6.72742 11.8882 6.72742 11.8155C6.72742 11.7428 6.78471 11.6855 6.85738 11.6855Z" fill="black"/>
<path fill-rule="evenodd" clip-rule="evenodd" d="M6.85735 11.7332C6.90207 11.7332 6.9398 11.7695 6.9398 11.8156C6.9398 11.8617 6.90347 11.8981 6.85735 11.8981C6.81124 11.8981 6.7749 11.8617 6.7749 11.8156C6.7749 11.7695 6.81124 11.7332 6.85735 11.7332Z" fill="white"/>
<path fill-rule="evenodd" clip-rule="evenodd" d="M7.33529 11.6855C7.40656 11.6855 7.46525 11.7428 7.46525 11.8155C7.46525 11.8882 7.40795 11.9455 7.33529 11.9455C7.26262 11.9455 7.20532 11.8882 7.20532 11.8155C7.20532 11.7428 7.26262 11.6855 7.33529 11.6855Z" fill="black"/>
<path fill-rule="evenodd" clip-rule="evenodd" d="M7.33532 11.7332C7.38004 11.7332 7.41777 11.7695 7.41777 11.8156C7.41777 11.8617 7.38144 11.8981 7.33532 11.8981C7.2892 11.8981 7.25287 11.8617 7.25287 11.8156C7.25287 11.7695 7.2892 11.7332 7.33532 11.7332Z" fill="white"/>
<path fill-rule="evenodd" clip-rule="evenodd" d="M6.85738 12.1636C6.92865 12.1636 6.98734 12.2209 6.98734 12.2935C6.98734 12.3662 6.93005 12.4235 6.85738 12.4235C6.78471 12.4235 6.72742 12.3662 6.72742 12.2935C6.72742 12.2209 6.78471 12.1636 6.85738 12.1636Z" fill="black"/>
<path fill-rule="evenodd" clip-rule="evenodd" d="M6.85735 12.2109C6.90207 12.2109 6.9398 12.2473 6.9398 12.2934C6.9398 12.3395 6.90347 12.3758 6.85735 12.3758C6.81124 12.3758 6.7749 12.3395 6.7749 12.2934C6.7749 12.2473 6.81124 12.2109 6.85735 12.2109Z" fill="white"/>
<path fill-rule="evenodd" clip-rule="evenodd" d="M7.33529 12.1636C7.40656 12.1636 7.46525 12.2209 7.46525 12.2935C7.46525 12.3662 7.40795 12.4235 7.33529 12.4235C7.26262 12.4235 7.20532 12.3662 7.20532 12.2935C7.20532 12.2209 7.26262 12.1636 7.33529 12.1636Z" fill="black"/>
<path fill-rule="evenodd" clip-rule="evenodd" d="M7.33532 12.2109C7.38004 12.2109 7.41777 12.2473 7.41777 12.2934C7.41777 12.3395 7.38144 12.3758 7.33532 12.3758C7.2892 12.3758 7.25287 12.3395 7.25287 12.2934C7.25287 12.2473 7.2892 12.2109 7.33532 12.2109Z" fill="white"/>
<path fill-rule="evenodd" clip-rule="evenodd" d="M7.09633 11.9246C7.1676 11.9246 7.2263 11.9819 7.2263 12.0545C7.2263 12.1272 7.169 12.1845 7.09633 12.1845C7.02367 12.1845 6.96637 12.1272 6.96637 12.0545C6.96637 11.9819 7.02367 11.9246 7.09633 11.9246Z" fill="black"/>
<path fill-rule="evenodd" clip-rule="evenodd" d="M7.09637 11.9722C7.14109 11.9722 7.17882 12.0085 7.17882 12.0546C7.17882 12.1007 7.14248 12.1371 7.09637 12.1371C7.05025 12.1371 7.01392 12.1007 7.01392 12.0546C7.01392 12.0085 7.05025 11.9722 7.09637 11.9722Z" fill="white"/>
</g>
</g>
<rect x="0.25" y="0.25" width="23.5" height="23.5" rx="11.75" stroke="#E5E3E1" stroke-width="0.5"/>
<defs>
<clipPath id="clip0_16335_4067">
<rect width="24" height="24" rx="12" fill="white"/>
</clipPath>
</defs>
</svg>
