<svg width="24" height="24" viewBox="0 0 24 24" fill="none" xmlns="http://www.w3.org/2000/svg">
<path fill-rule="evenodd" clip-rule="evenodd" d="M12 24C18.6274 24 24 18.6274 24 12C24 5.37258 18.6274 0 12 0C5.37258 0 0 5.37258 0 12C0 18.6274 5.37258 24 12 24ZM10.0806 16.3413C10.5672 16.5614 11.1364 16.6714 11.7881 16.6714C12.4398 16.6714 13.0132 16.5571 13.5083 16.3286C14.0076 16.0959 14.3991 15.7764 14.6826 15.3701C14.9661 14.9596 15.1079 14.492 15.1079 13.9673V13.9546C15.1079 13.3114 14.9027 12.7951 14.4922 12.4058C14.0817 12.0164 13.54 11.7943 12.8672 11.7393V11.7075C13.2396 11.6313 13.5697 11.498 13.8574 11.3076C14.1494 11.113 14.3779 10.8717 14.543 10.584C14.7122 10.292 14.7969 9.95557 14.7969 9.57471V9.56201C14.7969 9.08805 14.672 8.67334 14.4224 8.31787C14.1727 7.95817 13.8215 7.67676 13.3687 7.47363C12.9159 7.27051 12.3848 7.16895 11.7754 7.16895C11.1787 7.16895 10.6519 7.27686 10.1948 7.49268C9.74202 7.70426 9.37809 8.0026 9.10303 8.3877C8.83219 8.76855 8.67139 9.21924 8.62061 9.73975L8.61426 9.80322H9.95996L9.96631 9.74609C9.99593 9.4541 10.089 9.20443 10.2456 8.99707C10.4022 8.78548 10.6117 8.62256 10.874 8.5083C11.1364 8.39404 11.4368 8.33691 11.7754 8.33691C12.1224 8.33691 12.4165 8.39404 12.6577 8.5083C12.9032 8.61833 13.0894 8.77913 13.2163 8.99072C13.3433 9.19808 13.4067 9.44987 13.4067 9.74609V9.75879C13.4067 10.0423 13.3327 10.2941 13.1846 10.5142C13.0365 10.7342 12.8312 10.9077 12.5688 11.0347C12.3065 11.1574 11.9997 11.2188 11.6484 11.2188H10.582V12.3359H11.6929C12.3022 12.3359 12.7826 12.4756 13.1338 12.7549C13.485 13.0299 13.6606 13.4256 13.6606 13.9419V13.9546C13.6606 14.2508 13.5824 14.5153 13.4258 14.748C13.2692 14.9766 13.0513 15.1564 12.772 15.2876C12.4927 15.4146 12.1647 15.478 11.7881 15.478C11.4115 15.478 11.0771 15.4188 10.7852 15.3003C10.4974 15.1776 10.2689 15.0104 10.0996 14.7988C9.93034 14.5872 9.83089 14.3439 9.80127 14.0688L9.79492 13.999H8.42383L8.43018 14.0815C8.47673 14.5851 8.64176 15.0316 8.92529 15.4209C9.20882 15.8102 9.59391 16.117 10.0806 16.3413Z" fill="#208204"/>
</svg>
