<svg width="48" height="48" viewBox="0 0 48 48" fill="none" xmlns="http://www.w3.org/2000/svg">
<path d="M31.24 34.23H17C16.45 34.23 16 33.78 16 33.23C16 32.68 16.45 32.23 17 32.23H31.24C31.79 32.23 32.24 32.68 32.24 33.23C32.24 33.78 31.79 34.23 31.24 34.23Z" fill="#DF0000"/>
<path d="M21.8502 18.0401H26.1402C26.5202 18.0401 26.8402 17.7301 26.8402 17.3401V11.3301H21.1602V17.3401C21.1602 17.7201 21.4702 18.0401 21.8602 18.0401H21.8502Z" fill="#8DE2E0"/>
<path d="M43.6898 21.2401H42.9998L39.6398 10.4501C39.4398 9.7901 38.8398 9.3501 38.1498 9.3501H9.85977C9.16976 9.3501 8.56977 9.7901 8.36977 10.4501L5.00977 21.2401H4.31977C3.45977 21.2401 2.75977 21.9401 2.75977 22.8001V25.2001C2.75977 26.0601 3.45977 26.7601 4.31977 26.7601H5.00977L8.36977 37.5501C8.57977 38.2101 9.16976 38.6501 9.85977 38.6501H38.1398C38.8298 38.6501 39.4298 38.2101 39.6298 37.5501L42.9898 26.7601H43.6798C44.5398 26.7601 45.2398 26.0601 45.2398 25.2001V22.8001C45.2398 21.9401 44.5398 21.2401 43.6798 21.2401H43.6898ZM4.74977 24.7501V23.2601H43.2498V24.7501H4.74977ZM10.1798 11.3401H37.8198L40.9098 21.2501H7.08977L10.1798 11.3401ZM37.8198 36.6601H10.1798L7.08977 26.7501H40.9098L37.8198 36.6601Z" fill="#323232"/>
</svg>
