<svg width="48" height="48" viewBox="0 0 48 48" fill="none" xmlns="http://www.w3.org/2000/svg">
<path d="M27.4812 32.76C28.7113 31.75 29.5013 30.22 29.5013 28.5C29.5013 25.47 27.0312 23 24.0013 23C20.9713 23 18.5013 25.47 18.5013 28.5C18.5013 30.22 19.2913 31.75 20.5213 32.76C17.4713 34.12 15.3112 37.18 15.2812 40.72V42.01C15.2812 42.56 15.7313 43.01 16.2813 43.01H31.7113C32.2612 43.01 32.7113 42.56 32.7113 42.01V40.72C32.6812 37.19 30.5212 34.13 27.4712 32.77L27.4812 32.76ZM24.0013 25C25.9313 25 27.5013 26.57 27.5013 28.5C27.5013 30.43 25.9313 32 24.0013 32C22.0713 32 20.5013 30.43 20.5013 28.5C20.5013 26.57 22.0713 25 24.0013 25ZM30.7112 41H17.2813V40.72C17.3113 37.05 20.3212 34.03 23.9913 34C27.6613 34.03 30.6713 37.05 30.7013 40.71V41H30.7112Z" fill="#323232"/>
<path d="M40.0816 13.47C41.0816 12.58 41.7216 11.3 41.7216 9.86C41.7216 7.18 39.5416 5 36.8616 5C34.1816 5 32.0016 7.18 32.0016 9.86C32.0016 11.3 32.6416 12.58 33.6416 13.47C31.0616 14.77 29.4316 17.69 29.4316 21.43C29.4316 21.98 29.8816 22.43 30.4316 22.43H43.2916C43.8416 22.43 44.2916 21.98 44.2916 21.43C44.2916 17.69 42.6616 14.77 40.0816 13.47ZM34.0016 9.86C34.0016 8.28 35.2816 7 36.8616 7C38.4416 7 39.7216 8.28 39.7216 9.86C39.7216 11.44 38.4416 12.72 36.8616 12.72C35.2816 12.72 34.0016 11.44 34.0016 9.86ZM31.4816 20.43C31.8216 17.02 33.9416 14.72 36.8616 14.72C39.7816 14.72 41.8916 17.02 42.2416 20.43H31.4816Z" fill="#323232"/>
<path d="M18.5709 21.43C18.5709 17.69 16.9409 14.77 14.3609 13.47C15.3609 12.58 16.0009 11.3 16.0009 9.86C16.0009 7.18 13.8209 5 11.1409 5C8.46094 5 6.28094 7.18 6.28094 9.86C6.28094 11.3 6.92094 12.58 7.92094 13.47C5.34094 14.77 3.71094 17.69 3.71094 21.43C3.71094 21.98 4.16094 22.43 4.71094 22.43H17.5709C18.1209 22.43 18.5709 21.98 18.5709 21.43ZM8.29094 9.86C8.29094 8.28 9.57094 7 11.1509 7C12.7309 7 14.0109 8.28 14.0109 9.86C14.0109 11.44 12.7309 12.72 11.1509 12.72C9.57094 12.72 8.29094 11.44 8.29094 9.86ZM5.76094 20.43C6.10094 17.02 8.22094 14.72 11.1409 14.72C14.0609 14.72 16.1709 17.02 16.5209 20.43H5.76094Z" fill="#323232"/>
<path d="M31.7109 31.4302C31.4509 31.4302 31.2009 31.3302 31.0009 31.1402C30.6109 30.7502 30.6109 30.1202 31.0009 29.7302L36.1409 24.5902C36.5309 24.2002 37.1609 24.2002 37.5509 24.5902C37.9409 24.9802 37.9409 25.6102 37.5509 26.0002L32.4109 31.1402C32.2109 31.3402 31.9609 31.4302 31.7009 31.4302H31.7109ZM16.2909 31.4302C16.0309 31.4302 15.7809 31.3302 15.5809 31.1402L10.4409 26.0002C10.0509 25.6102 10.0509 24.9802 10.4409 24.5902C10.8309 24.2002 11.4609 24.2002 11.8509 24.5902L16.9909 29.7302C17.3809 30.1202 17.3809 30.7502 16.9909 31.1402C16.7909 31.3402 16.5409 31.4302 16.2809 31.4302H16.2909ZM29.1409 13.4302H18.8509C18.3009 13.4302 17.8509 12.9802 17.8509 12.4302C17.8509 11.8802 18.3009 11.4302 18.8509 11.4302H29.1409C29.6909 11.4302 30.1409 11.8802 30.1409 12.4302C30.1409 12.9802 29.6909 13.4302 29.1409 13.4302Z" fill="#DF0000"/>
</svg>
