<svg width="48" height="48" viewBox="0 0 48 48" fill="none" xmlns="http://www.w3.org/2000/svg">
<path d="M24.0009 1.81006L6.96094 8.81006V13.9301L24.0009 6.94006L41.0409 13.9301V8.81006L24.0009 1.81006Z" fill="#8DE2E0"/>
<path d="M24.0009 47.1899C23.9409 47.1899 23.8909 47.1899 23.8309 47.1799C23.6509 47.1499 5.96094 43.8599 5.96094 22.7199V8.80994C5.96094 8.39994 6.21094 8.03994 6.58094 7.87994L23.6209 0.889941C23.8609 0.789941 24.1409 0.789941 24.3809 0.889941L41.4209 7.88994C41.8009 8.03994 42.0409 8.40994 42.0409 8.81994V22.7299C42.0409 43.8699 24.3509 47.1599 24.1709 47.1899C24.1109 47.1899 24.0609 47.1999 24.0009 47.1999V47.1899ZM7.96094 9.47994V22.7199C7.96094 41.2899 22.1709 44.7999 24.0009 45.1699C25.8309 44.7999 40.0409 41.2799 40.0409 22.7199V9.47994L24.0009 2.88994L7.96094 9.47994Z" fill="#323232"/>
<path d="M31.2793 18.9902C31.8193 18.4502 31.8193 17.5602 31.2793 17.0202C30.7393 16.4802 29.8493 16.4802 29.3093 17.0202L25.9693 20.3602C25.8693 20.4602 25.7293 20.5102 25.5893 20.4902L17.5793 19.4702C17.1593 19.4202 16.7293 19.5602 16.4293 19.8602L16.0693 20.2202C15.8493 20.4402 15.9093 20.8102 16.1793 20.9502L21.6893 23.7902C21.9693 23.9302 22.0193 24.3002 21.7993 24.5202L19.4993 26.8202C19.4993 26.8202 19.3793 26.8902 19.3193 26.8802L16.5693 26.4902C16.3493 26.4602 16.1393 26.5302 15.9793 26.6902C15.8493 26.8202 15.6893 26.9802 15.5593 27.1102C15.4493 27.2202 15.4893 27.4102 15.6293 27.4702C16.4093 27.8002 18.4893 28.6902 19.0993 28.9402C19.2093 28.9902 19.2893 29.0702 19.3393 29.1802C19.5993 29.7902 20.4793 31.8702 20.8093 32.6502C20.8693 32.8002 21.0593 32.8302 21.1693 32.7202C21.2993 32.5902 21.4593 32.4302 21.5893 32.3002C21.7493 32.1502 21.8193 31.9302 21.7893 31.7102L21.3993 28.9602C21.3993 28.8902 21.4093 28.8202 21.4593 28.7802L23.7593 26.4802C23.9793 26.2602 24.3493 26.3202 24.4893 26.5902L27.3293 32.1002C27.4693 32.3802 27.8393 32.4302 28.0593 32.2102L28.4193 31.8502C28.7193 31.5502 28.8693 31.1302 28.8093 30.7002L27.7893 22.6902C27.7693 22.5502 27.8193 22.4102 27.9193 22.3102L31.2593 18.9702L31.2793 18.9902Z" fill="#DF0000"/>
</svg>
