<svg width="48" height="48" viewBox="0 0 48 48" fill="none" xmlns="http://www.w3.org/2000/svg">
<path d="M39.6191 5.21973H26.3191C23.3092 5.21973 20.8691 7.65978 20.8691 10.6697V23.9697C20.8691 26.9797 23.3092 29.4197 26.3191 29.4197H39.6191C42.6291 29.4197 45.0691 26.9797 45.0691 23.9697V10.6697C45.0691 7.65978 42.6291 5.21973 39.6191 5.21973Z" fill="#3761A3"/>
<path d="M39.5193 32.1398C38.9693 32.1398 38.5193 32.5898 38.5193 33.1398V35.5198C38.5193 35.6298 38.4293 35.7098 38.3293 35.7098H4.9693C4.8593 35.7098 4.7793 35.6198 4.7793 35.5198V11.6998C4.7793 11.5898 4.8593 11.5098 4.9693 11.5098H16.9793C17.5293 11.5098 17.9793 11.0598 17.9793 10.5098C17.9793 9.95977 17.5293 9.50977 16.9793 9.50977H4.9693C3.7593 9.50977 2.7793 10.4898 2.7793 11.6998V35.5198C2.7793 36.7298 3.7593 37.7098 4.9693 37.7098H20.6493V40.9698H15.6893C15.1393 40.9698 14.6893 41.4198 14.6893 41.9698C14.6893 42.5198 15.1393 42.9698 15.6893 42.9698H27.5993C28.1493 42.9698 28.5993 42.5198 28.5993 41.9698C28.5993 41.4198 28.1493 40.9698 27.5993 40.9698H22.6393V37.7098H38.3193C39.5293 37.7098 40.5093 36.7298 40.5093 35.5198V33.1398C40.5093 32.5898 40.0593 32.1398 39.5093 32.1398H39.5193Z" fill="#323232"/>
<path d="M8.34961 15.0898H16.9796C17.5296 15.0898 17.9796 14.6398 17.9796 14.0898C17.9796 13.5398 17.5296 13.0898 16.9796 13.0898H7.34961C6.79961 13.0898 6.34961 13.5398 6.34961 14.0898V33.1498C6.34961 33.6998 6.79961 34.1498 7.34961 34.1498H35.9396C36.4896 34.1498 36.9396 33.6998 36.9396 33.1498C36.9396 32.5998 36.4896 32.1498 35.9396 32.1498H8.34961V15.0898Z" fill="#323232"/>
<path d="M17.0502 30.0902H10.4102V23.4502L17.0502 30.0902Z" fill="#8DE2E0"/>
<path fill-rule="evenodd" clip-rule="evenodd" d="M37.7697 16.5998C37.5397 16.5998 37.3497 16.7698 37.3097 16.9898L35.8997 23.6498C35.8797 23.7298 35.8497 23.7298 35.8297 23.6498L34.0997 16.9598C34.0497 16.7498 33.8597 16.5998 33.6397 16.5898H32.3297C32.1097 16.5898 31.9197 16.7498 31.8697 16.9598L30.1397 23.6498C30.1197 23.7298 30.0897 23.7298 30.0697 23.6498L28.6597 16.9898C28.6197 16.7698 28.4297 16.5998 28.1997 16.5998H27.2897C27.0697 16.5998 26.9097 16.8198 26.9697 17.0398L28.9597 24.7498C29.0097 24.9598 29.1997 25.1198 29.4197 25.1198H30.8797C31.0897 25.1198 31.2797 24.9698 31.3397 24.7498L32.9897 18.2998L34.6397 24.7498C34.6997 24.9698 34.8797 25.1198 35.0997 25.1198H36.5597C36.7697 25.1198 36.9597 24.9698 37.0197 24.7498L39.0097 17.0398C39.0697 16.8198 38.9097 16.5998 38.6897 16.5998H37.7797H37.7697Z" fill="white"/>
<path fill-rule="evenodd" clip-rule="evenodd" d="M32.9704 9.51953C30.1604 9.51953 27.6204 11.1095 26.4804 13.5795C26.2904 13.9895 26.4404 14.4895 26.8304 14.7095C27.0204 14.8195 27.2504 14.8395 27.4604 14.7695C27.6704 14.6995 27.8404 14.5395 27.9304 14.3395C28.8004 12.4095 30.7804 11.1595 32.9704 11.1595C35.1604 11.1595 37.1404 12.4095 38.0104 14.3395C38.1004 14.5495 38.2704 14.6995 38.4804 14.7695C38.6904 14.8395 38.9204 14.8195 39.1104 14.7095C39.5004 14.4895 39.6504 13.9895 39.4604 13.5795C38.3304 11.1195 35.7804 9.51953 32.9704 9.51953Z" fill="#E9A24E"/>
</svg>
