<svg width="24" height="24" viewBox="0 0 24 24" fill="none" xmlns="http://www.w3.org/2000/svg">
<path fill-rule="evenodd" clip-rule="evenodd" d="M5.19431 9.1548L4.25207 5H2C1.44772 5 1 4.55228 1 4C1 3.44772 1.44772 3 2 3H5.84929L6.98591 8.01191H21.3824L18.4206 17H6.97348L5.2299 9.3117C5.21399 9.26102 5.20201 9.2086 5.19431 9.1548ZM10 20.5C10 21.3284 9.32843 22 8.5 22C7.67157 22 7 21.3284 7 20.5C7 19.6716 7.67157 19 8.5 19C9.32843 19 10 19.6716 10 20.5ZM18 20.5C18 21.3284 17.3284 22 16.5 22C15.6716 22 15 21.3284 15 20.5C15 19.6716 15.6716 19 16.5 19C17.3284 19 18 19.6716 18 20.5Z" fill="#323232"/>
</svg>
