<svg width="24" height="24" viewBox="0 0 24 24" fill="none" xmlns="http://www.w3.org/2000/svg">
<g clip-path="url(#clip0_16335_8200)">
<path d="M23.4854 15.4796C25.4064 9.1367 21.8218 2.43744 15.479 0.516367C9.13609 -1.4047 2.43683 2.17988 0.515759 8.52276C-1.40531 14.8656 2.17928 21.5649 8.52216 23.486C14.865 25.407 21.5643 21.8225 23.4854 15.4796Z" fill="#0072FE"/>
<mask id="mask0_16335_8200" style="mask-type:luminance" maskUnits="userSpaceOnUse" x="-1" y="-1" width="26" height="26">
<path d="M23.4854 15.4796C25.4064 9.1367 21.8218 2.43744 15.479 0.516367C9.13609 -1.4047 2.43683 2.17988 0.515759 8.52276C-1.40531 14.8656 2.17928 21.5649 8.52216 23.486C14.865 25.407 21.5643 21.8225 23.4854 15.4796Z" fill="white"/>
</mask>
<g mask="url(#mask0_16335_8200)">
<path d="M25.0215 6.57495H-1.02155V17.4262H25.0215V6.57495Z" fill="#FED700"/>
<path d="M25.0215 7.65942H-1.02155V16.3405H25.0215V7.65942Z" fill="#FF0000"/>
<path d="M25.0215 3.31885H-1.02155V6.57493H25.0215V3.31885Z" fill="#0072FE"/>
<path d="M25.0215 17.4263H-1.02155V20.6824H25.0215V17.4263Z" fill="#0072FE"/>
<path fill-rule="evenodd" clip-rule="evenodd" d="M21.7836 13.8222C21.7543 13.8641 21.7361 13.9131 21.7347 13.9648C21.7347 13.9899 21.7026 14.0011 21.6844 13.9843C21.662 13.962 21.6481 13.9396 21.6327 13.9131C21.5279 14.0262 21.4454 14.1576 21.3881 14.3001C21.3811 14.3183 21.3616 14.3225 21.3462 14.3141C21.2372 14.2443 21.1338 14.1646 21.0388 14.0794C20.9423 13.9941 20.8529 13.9005 20.7705 13.8013C20.7341 13.7593 20.7062 13.7146 20.6852 13.6643C20.6237 13.7482 20.5385 13.811 20.4393 13.8446C20.4197 13.8516 20.4057 13.839 20.4015 13.8208C20.3917 13.737 20.3736 13.6559 20.3498 13.5777C20.3247 13.498 20.2939 13.4211 20.2562 13.3485C20.2171 13.2744 20.1961 13.1906 20.1961 13.1067C20.1961 13.062 20.2017 13.0229 20.2115 12.9809C20.1528 13.0215 20.0955 13.0634 20.041 13.1095C20.0284 13.1193 20.0102 13.1179 20.0005 13.1053C19.9935 13.0969 19.9921 13.0872 19.9949 13.0774C20.0759 12.8063 20.2115 12.5589 20.3889 12.3465C20.4281 12.3004 20.4686 12.2557 20.5119 12.2123H17.9252L16.2776 13.8809C15.713 14.465 15.0311 14.9374 14.2667 15.2602C13.5316 15.5704 12.7225 15.7423 11.8714 15.7423C11.0204 15.7423 10.2112 15.5704 9.47617 15.2602C8.71315 14.9374 8.02979 14.465 7.46522 13.8809L5.81761 12.2123H3.75776C3.77592 12.2571 3.7857 12.306 3.7857 12.3563V12.7336C3.7857 12.749 3.77313 12.7629 3.75636 12.7629C3.74797 12.7629 3.73959 12.7587 3.734 12.7518C3.72282 12.7392 3.71164 12.7266 3.70046 12.714C3.70884 12.7937 3.71304 12.8747 3.71304 12.9558C3.71304 13.1095 3.69766 13.2632 3.66972 13.4142C3.66692 13.4295 3.65155 13.4407 3.63618 13.4365C3.62919 13.4365 3.625 13.4323 3.6208 13.4281C3.61102 13.4184 3.60264 13.4086 3.59425 13.3988C3.57748 13.4742 3.54674 13.5469 3.50621 13.6112C3.46149 13.6797 3.44752 13.7635 3.46708 13.8432C3.47128 13.8586 3.46149 13.8739 3.44612 13.8781C3.43774 13.8809 3.42795 13.8781 3.42097 13.8725C3.39721 13.8544 3.37765 13.8348 3.35668 13.8124C3.32175 13.8502 3.28262 13.8851 3.2393 13.9144C3.18899 13.9508 3.13309 13.9801 3.0744 14.0039C3.01291 14.0304 2.97797 14.0975 2.99334 14.1632C2.99893 14.187 2.97518 14.2051 2.95421 14.1967C2.85779 14.1548 2.76556 14.1017 2.68171 14.0374C2.65097 14.0752 2.62162 14.1157 2.59646 14.1576C2.58529 14.1744 2.56572 14.1744 2.55175 14.1632C2.40781 14.0276 2.29741 13.8599 2.23033 13.6741C2.21356 13.6252 2.18561 13.5763 2.15347 13.5357C2.13111 13.5916 2.11434 13.6503 2.10176 13.709C2.09897 13.7244 2.0836 13.7342 2.06683 13.7314C2.05704 13.7286 2.05006 13.723 2.04586 13.7132C2.01512 13.6391 1.99136 13.5609 1.97599 13.4798C1.96341 13.4184 1.95643 13.3541 1.95363 13.2898C1.92009 13.3345 1.89075 13.3764 1.8628 13.4239C1.85022 13.4449 1.81948 13.4421 1.81109 13.4197C1.78594 13.3513 1.76637 13.2786 1.7538 13.2045C1.74262 13.1458 1.73703 13.0844 1.73563 13.0229C1.71047 13.0452 1.68532 13.0662 1.66156 13.0899C1.6434 13.1081 1.61125 13.0941 1.61265 13.0676C1.62383 12.8901 1.67135 12.7238 1.74681 12.5729C1.81528 12.4373 1.90891 12.3158 2.01931 12.2137H1.64479C1.52741 12.2137 1.43378 12.1187 1.43378 12.0027C1.43378 11.8867 1.5288 11.7917 1.64479 11.7917H5.81761L6.31511 11.2872H3.30358C3.22113 11.2872 3.15545 11.2201 3.15545 11.1391C3.15545 11.058 3.22253 10.9896 3.30358 10.9896H6.60858L7.05576 10.5368H4.30836C4.2259 10.5368 4.15883 10.4697 4.15883 10.3887C4.15883 10.3076 4.2259 10.2391 4.30836 10.2391H7.35063L7.46522 10.1231C8.02979 9.539 8.71176 9.06666 9.47617 8.74384C10.2112 8.43361 11.0204 8.26172 11.8714 8.26172C12.7225 8.26172 13.5316 8.43361 14.2667 8.74384C15.0297 9.06666 15.713 9.539 16.2776 10.1231L16.3922 10.2391H19.5533L20.2478 9.98619C20.2478 9.98619 20.2618 9.98339 20.2674 9.98619L21.2973 10.3607C21.3127 10.3663 21.3197 10.3831 21.3141 10.397C21.3113 10.4054 21.3043 10.411 21.2973 10.4138L20.2674 10.7883C20.2674 10.7883 20.2534 10.7911 20.2478 10.7883L19.5533 10.5354H16.6857L17.1329 10.9882H18.5485L19.243 10.7352C19.243 10.7352 19.257 10.7324 19.2626 10.7352L20.2925 11.1097C20.3079 11.1153 20.3149 11.1321 20.3093 11.1461C20.3065 11.1545 20.2995 11.1601 20.2925 11.1628L19.2626 11.5374C19.2626 11.5374 19.2486 11.5402 19.243 11.5374L18.5485 11.2844H17.4263L17.9238 11.7889H22.3524C22.4111 11.7889 22.4642 11.8127 22.5019 11.8504C22.5396 11.8881 22.5634 11.9412 22.5634 11.9999C22.5634 12.0586 22.5396 12.1117 22.5019 12.1495C22.4642 12.1872 22.4111 12.2109 22.3524 12.2109H21.9359C22.1386 12.3703 22.2881 12.5952 22.3538 12.8524C22.358 12.8678 22.3482 12.8831 22.3328 12.8873C22.3244 12.8887 22.316 12.8873 22.3091 12.8831C22.2811 12.865 22.2546 12.844 22.2294 12.8202C22.2364 12.851 22.2434 12.8817 22.249 12.9139C22.2629 13.0019 22.2685 13.0872 22.2657 13.1752C22.2657 13.1989 22.2364 13.2115 22.2182 13.1962C22.1875 13.171 22.1595 13.1431 22.1316 13.1151C22.1246 13.1542 22.1218 13.1948 22.1218 13.2353C22.1218 13.3233 22.1386 13.4086 22.1707 13.4896C22.1805 13.5162 22.1525 13.5399 22.1288 13.5246C22.0925 13.505 22.0603 13.484 22.0282 13.4589C22.0254 13.5665 22.01 13.6727 21.9807 13.7761C21.9737 13.7985 21.9443 13.8041 21.9303 13.7859C21.9024 13.7523 21.873 13.7202 21.8423 13.6895C21.8325 13.737 21.8116 13.7817 21.7822 13.8194L21.7836 13.8222Z" fill="black"/>
<path fill-rule="evenodd" clip-rule="evenodd" d="M19.4205 10.3858C19.4205 10.3354 19.38 10.2949 19.3297 10.2949H19.3171C19.3366 10.3201 19.3478 10.3522 19.3478 10.3858C19.3478 10.4193 19.3366 10.4514 19.3171 10.4766H19.3297C19.38 10.4766 19.4205 10.4361 19.4205 10.3858Z" fill="#FED700"/>
<path fill-rule="evenodd" clip-rule="evenodd" d="M19.4471 10.2935C19.4666 10.3186 19.4778 10.3508 19.4778 10.3843C19.4778 10.4178 19.4666 10.45 19.4471 10.4751H19.5854C19.6357 10.4751 19.6763 10.4346 19.6763 10.3843C19.6763 10.334 19.6357 10.2935 19.5854 10.2935H19.4471Z" fill="#FED700"/>
<path fill-rule="evenodd" clip-rule="evenodd" d="M19.1871 10.2935C19.2067 10.3186 19.2179 10.3508 19.2179 10.3843C19.2179 10.4178 19.2067 10.45 19.1871 10.4751H19.1997C19.25 10.4751 19.2905 10.4346 19.2905 10.3843C19.2905 10.334 19.25 10.2935 19.1997 10.2935H19.1871Z" fill="#FED700"/>
<path fill-rule="evenodd" clip-rule="evenodd" d="M19.6637 10.2571C19.707 10.2837 19.735 10.3312 19.735 10.3843C19.735 10.4374 19.707 10.4849 19.6637 10.5115L20.259 10.7281L21.2051 10.3843L20.259 10.0405L19.6637 10.2571Z" fill="white"/>
<path fill-rule="evenodd" clip-rule="evenodd" d="M18.4157 11.1348C18.4157 11.0845 18.3752 11.0439 18.3249 11.0439H18.3123C18.3319 11.0691 18.3431 11.1012 18.3431 11.1348C18.3431 11.1683 18.3319 11.2005 18.3123 11.2256H18.3249C18.3752 11.2256 18.4157 11.1851 18.4157 11.1348Z" fill="#FED700"/>
<path fill-rule="evenodd" clip-rule="evenodd" d="M18.4423 11.0439C18.4619 11.0691 18.4731 11.1012 18.4731 11.1348C18.4731 11.1683 18.4619 11.2005 18.4423 11.2256H18.5807C18.631 11.2256 18.6715 11.1851 18.6715 11.1348C18.6715 11.0845 18.631 11.0439 18.5807 11.0439H18.4423Z" fill="#FED700"/>
<path fill-rule="evenodd" clip-rule="evenodd" d="M18.1824 11.0439C18.2019 11.0691 18.2131 11.1012 18.2131 11.1348C18.2131 11.1683 18.2019 11.2005 18.1824 11.2256H18.1949C18.2453 11.2256 18.2858 11.1851 18.2858 11.1348C18.2858 11.0845 18.2453 11.0439 18.1949 11.0439H18.1824Z" fill="#FED700"/>
<path fill-rule="evenodd" clip-rule="evenodd" d="M18.6589 11.0076C18.7022 11.0342 18.7301 11.0817 18.7301 11.1348C18.7301 11.1879 18.7022 11.2354 18.6589 11.262L19.2542 11.4786L20.2003 11.1348L19.2542 10.791L18.6589 11.0076Z" fill="white"/>
<path fill-rule="evenodd" clip-rule="evenodd" d="M17.1902 11.0439L17.3705 11.2256H18.0664C18.1167 11.2256 18.1572 11.1851 18.1572 11.1348C18.1572 11.0845 18.1167 11.0439 18.0664 11.0439H17.1916H17.1902Z" fill="#FED700"/>
<path fill-rule="evenodd" clip-rule="evenodd" d="M16.4495 10.2935L16.6298 10.4751H19.0712C19.1215 10.4751 19.162 10.4346 19.162 10.3843C19.162 10.334 19.1215 10.2935 19.0712 10.2935H16.4509H16.4495Z" fill="#FED700"/>
<path fill-rule="evenodd" clip-rule="evenodd" d="M7.11447 10.4766L7.29475 10.2949H4.30977C4.25946 10.2949 4.21893 10.3354 4.21893 10.3858C4.21893 10.4361 4.25946 10.4766 4.30977 10.4766H7.11447Z" fill="#FED700"/>
<path fill-rule="evenodd" clip-rule="evenodd" d="M6.37383 11.2256L6.55411 11.0439H3.30501C3.2547 11.0439 3.21417 11.0845 3.21417 11.1348C3.21417 11.1851 3.2547 11.2256 3.30501 11.2256H6.37383Z" fill="#FED700"/>
<path fill-rule="evenodd" clip-rule="evenodd" d="M8.59437 13.3233H8.89622V12.3269H8.59437V13.3233ZM7.99207 13.3233H8.29392V12.3269H7.99207V13.3233ZM11.0064 13.3233H11.3082V12.3269H11.0064V13.3233ZM10.4041 13.3233H10.7059V12.3269H10.4041V13.3233ZM9.80038 13.3233H10.1022V12.3269H9.80038V13.3233ZM9.19807 13.3233H9.49993V12.3269H9.19807V13.3233Z" fill="white"/>
<path fill-rule="evenodd" clip-rule="evenodd" d="M11.8714 8.31616C11.6674 8.54395 11.455 8.81366 11.353 9.10992C11.3348 9.15743 11.325 9.20914 11.325 9.26364C11.325 9.37963 11.3697 9.48584 11.4438 9.5641C11.5598 9.68288 11.6311 9.84918 11.6506 10.0155C11.659 10.0686 11.7051 10.1091 11.761 10.1091H11.8379C11.9539 10.1091 12.0517 10.1902 12.0782 10.2978L12.095 10.3579C12.116 10.4389 12.1998 10.5046 12.2809 10.5046C12.3619 10.5046 12.429 10.5703 12.429 10.6513V11.4213C12.429 11.6142 12.5534 11.7791 12.7267 11.8392C12.8399 11.8811 12.9097 11.9384 12.9097 11.9999C12.9097 12.0544 12.8552 12.1061 12.7644 12.1452C12.5129 12.2696 12.3354 12.5225 12.3214 12.8188C12.3214 13.0396 12.1914 13.2296 12.0042 13.3177C11.884 13.3806 11.8141 13.4546 11.8141 13.5357C11.8141 13.674 12.0209 13.7956 12.334 13.8669C12.5646 13.9214 12.7099 13.9996 12.7099 14.0863C12.7099 14.1925 12.4919 14.2861 12.1649 14.3392C11.8533 14.3895 11.6478 14.4748 11.6478 14.5712C11.6478 14.6536 11.7988 14.7291 12.0363 14.7794C12.3619 14.8535 12.661 15.0002 12.9125 15.2029C13.0285 15.2937 13.1124 15.4125 13.1599 15.548C13.5358 15.467 13.8991 15.3524 14.2457 15.2056C15.0017 14.8856 15.6781 14.4189 16.2371 13.8403L18.0538 11.9999L16.2371 10.1594C15.6781 9.58086 15.0017 9.11272 14.2457 8.79409C13.5176 8.48665 12.7155 8.31616 11.8728 8.31616H11.8714Z" fill="white"/>
<path fill-rule="evenodd" clip-rule="evenodd" d="M3.24072 11.9999C3.28963 11.9776 3.34413 11.9664 3.39723 11.9664C3.50484 11.9664 3.60126 12.0097 3.67253 12.081C3.69489 12.1033 3.71306 12.1271 3.72983 12.1536H5.76174L5.63038 12.0195C5.6192 12.0083 5.6192 11.9901 5.63038 11.979L5.76174 11.8462H1.64621C1.56097 11.8462 1.49249 11.9147 1.49249 11.9999C1.49249 12.0852 1.56097 12.1536 1.64621 12.1536H2.08781C2.13113 12.1201 2.18424 12.1019 2.23874 12.1019C2.27507 12.1019 2.31141 12.1103 2.34494 12.1257C2.34215 12.0824 2.32398 12.0418 2.29324 12.0097C2.28206 11.9985 2.28346 11.9803 2.29324 11.9692C2.30023 11.9622 2.31001 11.9594 2.31979 11.9622C2.36311 11.972 2.40224 11.9943 2.43438 12.0251C2.45255 12.0418 2.47351 12.0516 2.49307 12.0544C2.50845 12.0572 2.52242 12.0544 2.5322 12.0446C2.54059 12.0362 2.54338 12.0223 2.54199 12.0083C2.54059 11.9901 2.53081 11.9706 2.51543 11.9524C2.49866 11.9328 2.51543 11.9035 2.53919 11.9049C2.66496 11.9133 2.78794 11.944 2.90253 11.9971C2.95843 12.0209 3.01712 12.0335 3.07721 12.0335C3.13311 12.0335 3.18761 12.0237 3.23932 12.0027L3.24072 11.9999Z" fill="#FED700"/>
<path fill-rule="evenodd" clip-rule="evenodd" d="M3.26446 12.053C3.20577 12.0767 3.14288 12.0893 3.08 12.0893C3.01152 12.0893 2.94444 12.0753 2.88156 12.0474C2.78933 12.0054 2.6929 11.9789 2.59228 11.9663C2.59648 11.9775 2.59927 11.9901 2.60067 12.0012C2.60346 12.0334 2.59508 12.0627 2.57412 12.0851C2.55176 12.1075 2.51962 12.1158 2.48747 12.1116C2.45673 12.1075 2.42459 12.0921 2.39804 12.0683L2.38965 12.0613C2.40502 12.1061 2.40363 12.1354 2.40083 12.1801C2.39804 12.2025 2.37288 12.2137 2.35472 12.1997C2.32118 12.1745 2.28065 12.1606 2.23873 12.1606C2.18003 12.1606 2.14649 12.1815 2.10178 12.2165C1.9774 12.3213 1.87399 12.4498 1.79992 12.5966C1.73844 12.7181 1.69651 12.8523 1.67834 12.9934C1.7007 12.9739 1.72446 12.9543 1.74822 12.9361C1.76778 12.9222 1.79433 12.9361 1.79433 12.9599C1.79433 13.0396 1.79853 13.1136 1.8125 13.1919C1.82089 13.2422 1.83346 13.2911 1.84883 13.3386C1.88237 13.2855 1.9215 13.2352 1.96343 13.1877C1.96902 13.1821 1.9774 13.1779 1.98579 13.1779C2.00116 13.1779 2.01374 13.1919 2.01374 13.2073C2.01374 13.2953 2.01933 13.3777 2.03609 13.4658C2.04588 13.5119 2.05706 13.558 2.07103 13.6027C2.08501 13.5566 2.10038 13.5119 2.11994 13.4672C2.12833 13.4476 2.15348 13.4434 2.16746 13.4588C2.22056 13.5161 2.25969 13.5804 2.28624 13.6544C2.34633 13.8193 2.44415 13.9717 2.56853 14.096C2.59508 14.0555 2.62582 14.015 2.65797 13.9773C2.66775 13.9661 2.68591 13.9633 2.69849 13.9731C2.77116 14.0318 2.85081 14.0821 2.93466 14.1226C2.93746 14.0471 2.98497 13.9801 3.05345 13.9507C3.10795 13.9297 3.16105 13.9004 3.20856 13.8669C3.25608 13.8333 3.298 13.7942 3.33573 13.7509C3.34971 13.7355 3.37067 13.7313 3.38325 13.7509C3.38884 13.7593 3.39582 13.7676 3.40281 13.7746C3.40281 13.7048 3.42098 13.6391 3.45871 13.5818C3.50902 13.5035 3.53976 13.4169 3.55094 13.3246C3.55094 13.3163 3.55653 13.3079 3.56352 13.3037C3.57749 13.2953 3.59426 13.2995 3.60265 13.3121C3.60964 13.3232 3.61802 13.3344 3.62641 13.3456C3.64737 13.217 3.65855 13.0871 3.65855 12.9571C3.65855 12.8425 3.65016 12.7293 3.63479 12.6175C3.63479 12.6077 3.63759 12.5966 3.64737 12.5896C3.65994 12.5798 3.67811 12.584 3.68789 12.5966C3.70187 12.6161 3.71584 12.6357 3.73261 12.6553V12.3576C3.73261 12.2668 3.69628 12.1829 3.63619 12.1242C3.5761 12.0641 3.49365 12.0278 3.40281 12.0278C3.3567 12.0278 3.31058 12.0376 3.26866 12.0557L3.26446 12.053Z" fill="#0072FE"/>
<path fill-rule="evenodd" clip-rule="evenodd" d="M11.0413 10.6765C11.0525 10.6933 11.0609 10.7114 11.0679 10.7296C11.0888 10.7841 11.0916 10.8456 11.0763 10.9015C11.0693 10.9267 11.0357 10.9309 11.0232 10.9085C11.0176 10.8987 11.012 10.8889 11.0064 10.8805V11.6729H11.3082V10.6765H11.0413ZM7.99207 10.6765H8.29392V11.6729H7.99207V10.6765ZM8.59437 10.6765H8.89622V11.6729H8.59437V10.6765ZM9.49853 10.8386C9.44263 10.7911 9.39232 10.7366 9.3504 10.6765H9.19668V11.6729H9.49853V10.8386ZM10.1022 11.0133C10.0841 11.0496 10.0687 11.0846 10.0575 11.1223C10.0519 11.1405 10.0338 11.1461 10.017 11.1391C9.93593 11.0958 9.86327 11.0371 9.80178 10.9686V11.6729H10.1036V11.0133H10.1022ZM10.7045 11.3808C10.5955 11.3669 10.4935 11.3305 10.4027 11.276V11.6729H10.7045V11.3794V11.3808Z" fill="white"/>
<path fill-rule="evenodd" clip-rule="evenodd" d="M10.6822 11.3193C10.6654 11.202 10.6822 11.093 10.745 10.9909C10.794 10.9043 10.8037 10.7981 10.7688 10.7031C10.7604 10.6807 10.7814 10.6584 10.8037 10.6653C10.861 10.6821 10.9141 10.7101 10.9603 10.7464C10.9854 10.766 11.0078 10.7883 11.0273 10.8135C11.0259 10.7911 11.0217 10.7701 11.0134 10.7506C11.0036 10.7254 10.9896 10.7017 10.9728 10.6821C10.9477 10.6556 10.9267 10.6248 10.9127 10.5913C10.8932 10.5438 10.8876 10.4921 10.8946 10.4403C10.8974 10.4166 10.9267 10.4054 10.9435 10.4236C10.97 10.4515 11.0008 10.4767 11.0343 10.4976C11.0539 10.5102 11.0735 10.52 11.0944 10.5298C11.0748 10.425 11.0427 10.3244 10.9994 10.2293C10.9477 10.1175 10.882 10.0141 10.8023 9.92189C10.794 9.9135 10.7926 9.89953 10.7995 9.88835C10.8079 9.87437 10.8247 9.87018 10.8387 9.87857C10.9002 9.9149 10.9658 9.94564 11.0329 9.9708C11.0874 9.99176 11.1419 10.0085 11.1992 10.0211C11.1503 9.77096 11.0176 9.55016 10.8303 9.38946C10.6025 9.19521 10.3104 9.10158 10.0128 9.12673C9.95688 9.13232 9.90657 9.12953 9.86884 9.11975C9.82552 9.10857 9.79617 9.08621 9.78639 9.05407V9.05127C9.60193 9.17285 9.44122 9.32517 9.30986 9.50125C9.18548 9.67035 9.08766 9.8576 9.02338 10.0602C9.07369 10.0197 9.12679 9.98477 9.18408 9.95403C9.19247 9.94984 9.20365 9.94984 9.21203 9.95403C9.22601 9.96242 9.2302 9.97918 9.22321 9.99316C9.19247 10.0463 9.16871 10.105 9.15194 10.1664C9.12539 10.2657 9.1226 10.3607 9.13657 10.4613C9.16592 10.418 9.19806 10.3789 9.23579 10.3425C9.23998 10.3383 9.24557 10.3341 9.25256 10.3341C9.26793 10.3313 9.2833 10.3425 9.2861 10.3579C9.30287 10.4571 9.3406 10.5507 9.3937 10.6318C9.44122 10.7045 9.49991 10.7674 9.56978 10.8177C9.58795 10.7604 9.61171 10.7059 9.64245 10.6542C9.64664 10.6486 9.65223 10.643 9.65922 10.6416C9.67459 10.6374 9.68997 10.6458 9.69555 10.6611C9.74726 10.833 9.86325 10.9798 10.017 11.072C10.0379 11.0147 10.0673 10.9588 10.1022 10.9071C10.1148 10.8889 10.1427 10.8903 10.1525 10.9113C10.2531 11.1251 10.453 11.2788 10.6864 11.318L10.6822 11.3193Z" fill="#0072FE"/>
<path fill-rule="evenodd" clip-rule="evenodd" d="M20.5706 12.1536C20.6992 12.0335 20.8431 11.93 20.9983 11.8462H17.9811L18.1125 11.979C18.1237 11.9901 18.1237 12.0083 18.1125 12.0195L17.9811 12.1536H20.5692H20.5706Z" fill="#FED700"/>
<path fill-rule="evenodd" clip-rule="evenodd" d="M21.0849 11.8462C21.0723 11.8811 21.0583 11.9314 21.0527 11.9678C21.103 11.9608 21.1534 11.958 21.2037 11.958C21.4454 11.958 21.6704 12.0307 21.8577 12.1536H22.3552C22.3971 12.1536 22.4362 12.1369 22.4642 12.1089C22.4921 12.081 22.5089 12.0432 22.5089 11.9999C22.5089 11.9566 22.4921 11.9189 22.4642 11.8909C22.4362 11.863 22.3985 11.8462 22.3552 11.8462H21.0849Z" fill="#FED700"/>
<path fill-rule="evenodd" clip-rule="evenodd" d="M21.7375 13.7886C21.7725 13.7425 21.792 13.688 21.792 13.6307C21.792 13.607 21.8214 13.593 21.8395 13.6098C21.8745 13.6419 21.9066 13.674 21.9388 13.709C21.9625 13.6056 21.9709 13.5063 21.9709 13.4001C21.9695 13.375 22.0003 13.3596 22.0198 13.3764C22.0422 13.3973 22.0673 13.4169 22.0925 13.4351C22.0743 13.3708 22.0645 13.3037 22.0645 13.2352C22.0645 13.1724 22.0729 13.1095 22.0883 13.0494C22.0939 13.027 22.1218 13.02 22.1372 13.0368C22.161 13.062 22.1847 13.0871 22.2099 13.1109C22.2099 13.0466 22.2029 12.9851 22.1931 12.9236C22.1819 12.8551 22.1652 12.788 22.1414 12.7238C22.1372 12.7126 22.1414 12.7 22.1512 12.6916C22.1638 12.6818 22.1819 12.6832 22.1917 12.6958C22.2169 12.728 22.2434 12.7545 22.2742 12.7825C22.2029 12.57 22.0701 12.387 21.8968 12.2514C21.7054 12.1033 21.465 12.0139 21.2037 12.0139C21.145 12.0139 21.0849 12.018 21.0276 12.0278C21.0081 12.0306 20.9885 12.0194 20.9913 11.9971C20.9941 11.9663 20.9997 11.937 21.0053 11.9062C20.7859 12.0278 20.593 12.1899 20.4337 12.38C20.2814 12.5617 20.1612 12.7713 20.0801 13.0005C20.136 12.9585 20.1905 12.9194 20.2506 12.8831C20.2744 12.8691 20.3037 12.8929 20.2926 12.9194C20.2674 12.9781 20.2548 13.0396 20.2548 13.1025C20.2548 13.1779 20.273 13.2506 20.3079 13.3177C20.3471 13.3931 20.3806 13.4742 20.4057 13.5567C20.4267 13.6265 20.4435 13.6992 20.4547 13.7733C20.5441 13.7341 20.6196 13.6657 20.6685 13.5818C20.681 13.5608 20.7146 13.5636 20.7216 13.5888C20.7397 13.6517 20.7719 13.7104 20.8152 13.7607C20.8949 13.8585 20.9829 13.9493 21.0779 14.0346C21.1632 14.1114 21.254 14.1813 21.3504 14.2442C21.4147 14.0933 21.5069 13.9577 21.6215 13.8403C21.6355 13.8236 21.6635 13.8292 21.6705 13.8487C21.676 13.8627 21.6816 13.8767 21.6886 13.8892C21.7012 13.8501 21.7138 13.8194 21.7375 13.7858V13.7886Z" fill="#0072FE"/>
<path fill-rule="evenodd" clip-rule="evenodd" d="M9.45245 10.5479C9.67465 10.3313 9.77107 10.0266 9.73055 9.73314C9.73055 9.71777 9.72356 9.70239 9.71378 9.68982C9.68723 9.65628 9.63692 9.65069 9.60338 9.67724C9.58242 9.69401 9.57124 9.72196 9.57403 9.74851C9.595 10.0196 9.55447 10.2949 9.45245 10.5479ZM9.94436 10.9447C10.0855 10.717 10.1037 10.4417 10.0086 10.2055C10.0045 10.1929 9.99607 10.1817 9.98628 10.1733C9.95694 10.151 9.91362 10.1566 9.89126 10.1859C9.87728 10.2041 9.87309 10.2292 9.88147 10.2516C9.95554 10.4738 9.9779 10.7128 9.94436 10.9461V10.9447ZM10.6389 11.2689C10.3971 11.1544 10.2336 10.9322 10.1861 10.682C10.1833 10.6694 10.1833 10.6555 10.1875 10.6415C10.2001 10.6066 10.2392 10.5884 10.2742 10.601C10.2965 10.6093 10.3119 10.6275 10.3175 10.6499C10.3762 10.8777 10.4852 11.0901 10.6389 11.2689ZM10.9519 10.3494C10.6836 10.3536 10.4391 10.2264 10.2853 10.0238C10.277 10.014 10.2714 10.0015 10.27 9.98748C10.2658 9.94974 10.2923 9.9162 10.3287 9.91201C10.3524 9.90922 10.3748 9.919 10.3902 9.93717C10.5425 10.116 10.7353 10.2572 10.9519 10.3494ZM10.924 9.79602C10.6207 9.8617 10.3133 9.77366 10.0911 9.57802C10.0785 9.56824 10.0687 9.55566 10.0645 9.54029C10.0506 9.49976 10.0743 9.45504 10.1148 9.44107C10.1414 9.43268 10.1694 9.43827 10.1903 9.45644C10.4055 9.62414 10.6557 9.74152 10.924 9.79742V9.79602Z" fill="#FF0000"/>
<path fill-rule="evenodd" clip-rule="evenodd" d="M12.5492 13.3233H12.851V12.3269H12.5492V13.3233ZM15.5649 13.3233H15.8668V12.3269H15.5649V13.3233ZM14.9612 13.3233H15.2631V12.3269H14.9612V13.3233ZM14.3589 13.3233H14.6608V12.3269H14.3589V13.3233ZM13.7552 13.3233H14.0571V12.3269H13.7552V13.3233ZM13.1529 13.3233H13.4547V12.3269H13.1529V13.3233Z" fill="black"/>
<path fill-rule="evenodd" clip-rule="evenodd" d="M12.5492 10.6765H12.851V11.6729H12.5492V10.6765ZM15.5649 10.6765H15.8668V11.6729H15.5649V10.6765ZM14.9612 10.6765H15.2631V11.6729H14.9612V10.6765ZM14.3589 10.6765H14.6608V11.6729H14.3589V10.6765ZM13.7552 10.6765H14.0571V11.6729H13.7552V10.6765ZM13.1529 10.6765H13.4547V11.6729H13.1529V10.6765Z" fill="black"/>
<path fill-rule="evenodd" clip-rule="evenodd" d="M2.63422 13.9214C2.79493 13.7411 2.85222 13.4994 2.80471 13.2744C2.80331 13.2632 2.79772 13.2506 2.78934 13.2422C2.76698 13.2171 2.72785 13.2157 2.70269 13.238C2.68732 13.252 2.68033 13.2744 2.68453 13.2939C2.71667 13.5036 2.6999 13.7188 2.63422 13.92V13.9214ZM1.97601 13.1067C2.23035 12.9697 2.39385 12.7224 2.43159 12.4499C2.43438 12.4359 2.43298 12.4205 2.42739 12.4066C2.41202 12.3688 2.3687 12.3521 2.33237 12.3674C2.30861 12.3772 2.29324 12.3982 2.28765 12.4233C2.23734 12.6707 2.13113 12.9055 1.97601 13.1067ZM2.32678 13.5553C2.41621 13.3624 2.45953 13.1514 2.45394 12.9404C2.45394 12.9194 2.46233 12.8985 2.4791 12.8859C2.50705 12.8663 2.54478 12.8733 2.56434 12.8999C2.57133 12.9096 2.57552 12.9222 2.57552 12.9334C2.59509 13.1626 2.50705 13.396 2.32538 13.5539L2.32678 13.5553ZM3.45313 12.8901C3.15687 12.8607 2.90113 12.6888 2.75719 12.4443C2.74881 12.4317 2.74462 12.4177 2.74462 12.4024C2.74462 12.3604 2.77816 12.3269 2.82008 12.3269C2.84663 12.3269 2.87039 12.3409 2.88436 12.3618C3.0311 12.5784 3.22534 12.7601 3.45313 12.8901ZM3.33015 13.4309C3.10097 13.3568 2.92768 13.178 2.85641 12.96C2.85222 12.9488 2.85082 12.9362 2.85362 12.9236C2.86061 12.8901 2.89275 12.8691 2.92629 12.8775C2.94725 12.8817 2.96402 12.8971 2.97101 12.9166C3.04926 13.1137 3.17364 13.2898 3.33155 13.4323L3.33015 13.4309Z" fill="#FF0000"/>
<path fill-rule="evenodd" clip-rule="evenodd" d="M20.8431 12.9109C20.7704 13.1066 20.6293 13.2757 20.4351 13.3805C20.5552 13.2254 20.6447 13.0521 20.7034 12.8662C20.7118 12.8341 20.7397 12.8103 20.7746 12.8103C20.8152 12.8103 20.8487 12.8424 20.8487 12.8844C20.8487 12.8942 20.8473 12.9039 20.8431 12.9123V12.9109ZM20.9996 13.2854C21.0304 13.4406 21.0066 13.6055 20.9242 13.7508C20.9395 13.6041 20.9284 13.4545 20.892 13.312C20.885 13.2882 20.8934 13.2617 20.9158 13.2477C20.9423 13.2309 20.9759 13.2393 20.9926 13.2659C20.9968 13.2729 20.9996 13.2785 20.9996 13.2854ZM21.335 13.4448C21.3909 13.646 21.3756 13.8654 21.2805 14.0638C21.2861 13.8682 21.2582 13.6739 21.1953 13.4895C21.1827 13.4587 21.1925 13.4224 21.2204 13.4028C21.254 13.3791 21.2987 13.3861 21.3224 13.4196C21.328 13.428 21.3322 13.4364 21.335 13.4448ZM21.3252 13.1401C21.3909 13.284 21.5069 13.4042 21.6592 13.4727C21.56 13.3623 21.4818 13.2351 21.4273 13.0982C21.4203 13.0744 21.3965 13.0577 21.37 13.0605C21.3392 13.0632 21.3169 13.0898 21.3183 13.1205C21.3183 13.1275 21.321 13.1345 21.3238 13.1415L21.3252 13.1401ZM21.2833 12.7362C21.3965 12.8466 21.5488 12.9151 21.7151 12.9235C21.5824 12.8564 21.4636 12.767 21.363 12.6594C21.3476 12.6398 21.3197 12.6328 21.2959 12.644C21.2679 12.6566 21.2568 12.6901 21.2693 12.7181C21.2721 12.7251 21.2763 12.7306 21.2819 12.7348L21.2833 12.7362Z" fill="#FF0000"/>
</g>
</g>
<rect x="0.25" y="0.25" width="23.5" height="23.5" rx="11.75" stroke="#E5E3E1" stroke-width="0.5"/>
<defs>
<clipPath id="clip0_16335_8200">
<rect width="24" height="24" rx="12" fill="white"/>
</clipPath>
</defs>
</svg>
