<svg width="48" height="48" viewBox="0 0 48 48" fill="none" xmlns="http://www.w3.org/2000/svg">
<path d="M29.3701 18.3203H26.8601C26.5674 18.3203 26.3301 18.5576 26.3301 18.8503V21.3603C26.3301 21.653 26.5674 21.8903 26.8601 21.8903H29.3701C29.6628 21.8903 29.9001 21.653 29.9001 21.3603V18.8503C29.9001 18.5576 29.6628 18.3203 29.3701 18.3203Z" fill="#323232"/>
<path d="M21.3505 18.3203H18.8405C18.5478 18.3203 18.3105 18.5576 18.3105 18.8503V21.3603C18.3105 21.653 18.5478 21.8903 18.8405 21.8903H21.3505C21.6433 21.8903 21.8805 21.653 21.8805 21.3603V18.8503C21.8805 18.5576 21.6433 18.3203 21.3505 18.3203Z" fill="#DF0000"/>
<path d="M29.3701 26.2305H26.8601C26.5674 26.2305 26.3301 26.4678 26.3301 26.7605V29.2705C26.3301 29.5632 26.5674 29.8005 26.8601 29.8005H29.3701C29.6628 29.8005 29.9001 29.5632 29.9001 29.2705V26.7605C29.9001 26.4678 29.6628 26.2305 29.3701 26.2305Z" fill="#323232"/>
<path d="M21.3505 26.2305H18.8405C18.5478 26.2305 18.3105 26.4678 18.3105 26.7605V29.2705C18.3105 29.5632 18.5478 29.8005 18.8405 29.8005H21.3505C21.6433 29.8005 21.8805 29.5632 21.8805 29.2705V26.7605C21.8805 26.4678 21.6433 26.2305 21.3505 26.2305Z" fill="#323232"/>
<path d="M13.3291 26.2305H10.8191C10.5264 26.2305 10.2891 26.4678 10.2891 26.7605V29.2705C10.2891 29.5632 10.5264 29.8005 10.8191 29.8005H13.3291C13.6218 29.8005 13.8591 29.5632 13.8591 29.2705V26.7605C13.8591 26.4678 13.6218 26.2305 13.3291 26.2305Z" fill="#323232"/>
<path d="M29.3701 34.1504H26.8601C26.5674 34.1504 26.3301 34.3877 26.3301 34.6804V37.1904C26.3301 37.4831 26.5674 37.7204 26.8601 37.7204H29.3701C29.6628 37.7204 29.9001 37.4831 29.9001 37.1904V34.6804C29.9001 34.3877 29.6628 34.1504 29.3701 34.1504Z" fill="#323232"/>
<path d="M37.3896 18.3203H34.8796C34.5869 18.3203 34.3496 18.5576 34.3496 18.8503V21.3603C34.3496 21.653 34.5869 21.8903 34.8796 21.8903H37.3896C37.6823 21.8903 37.9196 21.653 37.9196 21.3603V18.8503C37.9196 18.5576 37.6823 18.3203 37.3896 18.3203Z" fill="#323232"/>
<path d="M37.3896 26.2305H34.8796C34.5869 26.2305 34.3496 26.4678 34.3496 26.7605V29.2705C34.3496 29.5632 34.5869 29.8005 34.8796 29.8005H37.3896C37.6823 29.8005 37.9196 29.5632 37.9196 29.2705V26.7605C37.9196 26.4678 37.6823 26.2305 37.3896 26.2305Z" fill="#323232"/>
<path d="M21.3505 34.1504H18.8405C18.5478 34.1504 18.3105 34.3877 18.3105 34.6804V37.1904C18.3105 37.4831 18.5478 37.7204 18.8405 37.7204H21.3505C21.6433 37.7204 21.8805 37.4831 21.8805 37.1904V34.6804C21.8805 34.3877 21.6433 34.1504 21.3505 34.1504Z" fill="#323232"/>
<path d="M13.3291 34.1504H10.8191C10.5264 34.1504 10.2891 34.3877 10.2891 34.6804V37.1904C10.2891 37.4831 10.5264 37.7204 10.8191 37.7204H13.3291C13.6218 37.7204 13.8591 37.4831 13.8591 37.1904V34.6804C13.8591 34.3877 13.6218 34.1504 13.3291 34.1504Z" fill="#323232"/>
<path d="M8.41945 6.95996H39.5795C41.2195 6.95996 42.5595 8.28996 42.5595 9.93996V14.63H5.43945V9.93996C5.43945 8.29996 6.76945 6.95996 8.41945 6.95996Z" fill="#8DE2E0"/>
<path d="M39.5595 5.96H36.7795V4.75C36.7795 4.2 36.3295 3.75 35.7795 3.75C35.2295 3.75 34.7795 4.2 34.7795 4.75V5.96H13.9995V4.75C13.9995 4.2 13.5495 3.75 12.9995 3.75C12.4495 3.75 11.9995 4.2 11.9995 4.75V5.96H8.43945C6.22945 5.96 4.43945 7.75 4.43945 9.96V40.25C4.43945 42.46 6.22945 44.25 8.43945 44.25H39.5495C41.7595 44.25 43.5495 42.46 43.5495 40.25V9.96C43.5495 7.75 41.7595 5.96 39.5495 5.96H39.5595ZM41.5595 40.25C41.5595 41.35 40.6595 42.25 39.5595 42.25H8.43945C7.33945 42.25 6.43945 41.35 6.43945 40.25V9.96C6.43945 8.86 7.33945 7.96 8.43945 7.96H39.5495C40.6495 7.96 41.5495 8.86 41.5495 9.96V40.25H41.5595Z" fill="#323232"/>
<path d="M30.0197 12.25H18.1797C17.6297 12.25 17.1797 11.8 17.1797 11.25C17.1797 10.7 17.6297 10.25 18.1797 10.25H30.0197C30.5697 10.25 31.0197 10.7 31.0197 11.25C31.0197 11.8 30.5697 12.25 30.0197 12.25Z" fill="#323232"/>
</svg>
