<svg width="24" height="24" viewBox="0 0 24 24" fill="none" xmlns="http://www.w3.org/2000/svg">
<path fill-rule="evenodd" clip-rule="evenodd" d="M16.2941 5.15735L2.1031 19.3392H16.2941L21.9795 5.15735H16.2941Z" fill="#0093D0"/>
<path fill-rule="evenodd" clip-rule="evenodd" d="M14.3738 9.01018C14.1264 9.01192 13.9021 9.15374 13.7943 9.37585C13.6368 9.69876 13.7716 10.088 14.095 10.2451V10.4458C13.8598 10.5182 13.6669 10.6862 13.5622 10.9084C13.5081 10.883 13.4527 10.8608 13.3964 10.8429V10.5985C13.6228 10.4921 13.7673 10.2643 13.7673 10.0138C13.7673 9.65207 13.4745 9.35927 13.1132 9.35927C12.751 9.35927 12.4582 9.65207 12.4582 10.0138C12.4591 10.2617 12.6013 10.4868 12.8247 10.5942V10.7814C12.6179 10.8049 12.4167 10.8656 12.2313 10.9607H11.9956C11.9642 10.9585 11.9324 10.9577 11.901 10.9577C11.1775 10.959 10.5932 11.5472 10.5949 12.2698C10.615 12.7433 10.9942 13.1225 11.4676 13.1425C11.4899 13.1421 11.5113 13.1404 11.5335 13.1382C11.9891 13.0897 12.319 12.6817 12.2706 12.2262C12.302 12.3414 12.3181 12.4601 12.3186 12.5796V14.9487C12.4599 15.8284 13.1494 16.5178 14.0287 16.6592C15.154 16.8403 16.2135 16.0745 16.3942 14.9487V12.6015C16.3946 12.4819 16.4108 12.3632 16.4422 12.248C16.4396 12.2742 16.4374 12.3012 16.437 12.3274C16.4304 12.783 16.7939 13.1578 17.249 13.1644C17.7229 13.1443 18.1021 12.7651 18.1222 12.2916C18.1222 12.2615 18.1209 12.2314 18.1191 12.2013C18.0707 11.48 17.4471 10.9345 16.7263 10.9821C16.646 10.9777 16.5657 10.9777 16.4858 10.9821C16.2991 10.8909 16.0988 10.8303 15.8924 10.8036V10.6204C16.0281 10.5558 16.1372 10.4467 16.2018 10.3105C16.3571 9.98414 16.2192 9.59403 15.8924 9.43825C15.6052 9.30167 15.2679 9.39243 15.0851 9.63898C15.0847 9.62458 15.0838 9.61018 15.0825 9.59578C15.0506 9.25934 14.7674 9.00712 14.4358 9.00712C14.4153 9.00712 14.3943 9.008 14.3738 9.01018ZM14.6618 10.4633V10.2669C14.7827 10.222 14.8835 10.1443 14.9564 10.0465C14.9629 10.2848 15.0995 10.5108 15.3295 10.6204L15.3338 10.6291V10.8734C15.2771 10.8909 15.2212 10.9123 15.168 10.9389C15.069 10.7194 14.887 10.5488 14.6618 10.4633Z" fill="white"/>
<path fill-rule="evenodd" clip-rule="evenodd" d="M14.3564 14.2204L14.4801 14.3122C14.7578 14.5391 14.9559 14.8513 15.0415 15.2022L15.1504 15.0761C15.4162 14.7936 15.7604 14.595 16.1411 14.5084V14.9137L16.1118 15.0664C15.9216 15.8667 15.1921 16.4341 14.3564 16.4065L14.2009 16.4048C13.3798 16.3594 12.6924 15.7417 12.5716 14.9137V14.5084L12.7315 14.5533C13.0988 14.6734 13.4245 14.8979 13.6669 15.2022C13.7651 14.7994 14.0112 14.449 14.3564 14.2204ZM13.0774 9.57091L13.1276 9.5738L13.1782 9.58225L13.257 9.60748C13.4571 9.6921 13.5744 9.90991 13.5251 10.1295L13.4979 10.2126C13.4401 10.345 13.3222 10.444 13.1782 10.4764H13.2V11.0044L13.3309 11.0466C13.8847 11.255 14.2592 11.7863 14.2604 12.3876V14.0676L14.1341 14.1521C13.8908 14.3324 13.7036 14.58 13.5967 14.8662L13.5186 14.7833L13.5185 12.46C13.4908 11.8514 13.1128 11.308 12.5407 11.0742L12.6828 11.0293C12.779 11.005 12.8778 10.9921 12.977 10.9913V10.4764L12.8984 10.4511C12.6986 10.3664 12.5817 10.1483 12.6306 9.92916C12.6786 9.71578 12.8675 9.57091 13.0774 9.57091ZM15.5952 9.61541L15.6454 9.61814L15.696 9.62676L15.7707 9.65164C15.9601 9.73444 16.0695 9.94346 16.0202 10.1521L15.9942 10.2293C15.9394 10.3522 15.8298 10.4447 15.696 10.4764L15.7091 10.503V11.0135L15.865 11.0211C15.9683 11.033 16.0698 11.0582 16.1673 11.096L16.0394 11.1559C15.5006 11.4381 15.1663 12.0074 15.1898 12.6233V14.8051L15.143 14.8338L15.0982 14.8662L15.0384 14.7269C14.9059 14.4553 14.6964 14.2276 14.4354 14.072V12.3876L14.4422 12.2501C14.5 11.6606 14.915 11.16 15.4953 11V10.4764L15.4205 10.4515C15.2308 10.3687 15.1218 10.1597 15.1711 9.95141C15.2182 9.75069 15.3975 9.61541 15.5952 9.61541ZM16.6036 11.1484L16.7572 11.154C17.4995 11.2104 17.8604 11.6794 17.8604 12.248V12.2567L17.853 12.3476C17.8068 12.6441 17.5494 12.87 17.2412 12.8676L17.1493 12.8609C16.8494 12.8168 16.6191 12.5598 16.6167 12.248L16.6225 12.1484C16.6423 12.0176 16.7094 11.8972 16.8131 11.8116L16.7863 11.814L16.7599 11.8177L16.6618 11.8388C16.3125 11.9388 16.0827 12.2842 16.1367 12.6538V14.312L15.9726 14.3452C15.7564 14.3994 15.5517 14.493 15.3687 14.6218V12.8284C15.3687 11.624 16.0407 11.1484 16.6036 11.1484ZM12.1091 11.1484L12.2038 11.1528C12.7445 11.2035 13.3396 11.6909 13.3396 12.8284V14.6218L13.1987 14.5314C13.0056 14.4199 12.793 14.3452 12.5716 14.312V12.6538L12.5795 12.5538C12.5832 12.1904 12.3182 11.8713 11.949 11.8173L11.9243 11.814L11.8996 11.8116L11.9689 11.8827C12.0518 11.9848 12.0962 12.1143 12.0916 12.248L12.0829 12.3482C12.0333 12.6417 11.7795 12.8653 11.4716 12.8676L11.3725 12.861C11.0819 12.8178 10.8567 12.5691 10.8524 12.2659V12.248C10.8524 11.6415 11.2626 11.1484 12.1091 11.1484ZM14.3559 9.22181L14.4063 9.22454L14.4567 9.23316L14.5355 9.25839C14.7355 9.343 14.8525 9.56082 14.8032 9.78036L14.7761 9.86351C14.7184 9.99587 14.6007 10.0949 14.4567 10.1273V10.6204L14.5554 10.6412C14.7477 10.6971 14.9072 10.8355 14.9891 11.0218L14.8651 11.1102C14.6268 11.2986 14.4491 11.5547 14.3564 11.8461L14.3025 11.7039C14.1813 11.4258 13.9802 11.1879 13.7232 11.0218L13.7716 10.9337C13.8801 10.766 14.0555 10.651 14.256 10.6204V10.1273L14.1771 10.102C13.9768 10.0174 13.8599 9.79956 13.9095 9.57963C13.9571 9.36669 14.1465 9.22181 14.3559 9.22181Z" fill="#ED1B2F"/>
</svg>
