<svg width="24" height="24" viewBox="0 0 24 24" fill="none" xmlns="http://www.w3.org/2000/svg">
<g clip-path="url(#clip0_16335_3381)">
<path d="M23.4854 15.4793C25.4064 9.13645 21.8218 2.43719 15.479 0.516122C9.13609 -1.40495 2.43683 2.17964 0.515759 8.52252C-1.40531 14.8654 2.17928 21.5647 8.52216 23.4857C14.865 25.4068 21.5643 21.8222 23.4854 15.4793Z" fill="white"/>
<mask id="mask0_16335_3381" style="mask-type:luminance" maskUnits="userSpaceOnUse" x="-1" y="-1" width="26" height="26">
<path d="M23.4854 15.4798C25.4064 9.13694 21.8218 2.43768 15.479 0.516611C9.13609 -1.40446 2.43683 2.18013 0.515759 8.52301C-1.40531 14.8659 2.17928 21.5651 8.52216 23.4862C14.865 25.4073 21.5643 21.8227 23.4854 15.4798Z" fill="white"/>
</mask>
<g mask="url(#mask0_16335_3381)">
<path d="M36 16.001H0V24.0014H36V16.001Z" fill="#FF0000"/>
<path d="M36 8.00049H0V16.001H36V8.00049Z" fill="#003399"/>
<path d="M36 0H0V8.00047H36V0Z" fill="white"/>
<path fill-rule="evenodd" clip-rule="evenodd" d="M6.87553 8.21008L6.68268 4.66332C7.63714 4.20495 8.7076 3.94922 9.83675 3.94922C10.9659 3.94922 12.0364 4.20635 12.9908 4.66332L12.798 8.21008C12.7169 10.0212 11.4969 11.5346 9.83675 12.0531C8.17656 11.5346 6.95658 10.0212 6.87553 8.21008Z" fill="#FF0000"/>
<path fill-rule="evenodd" clip-rule="evenodd" d="M9.83675 11.8211C11.4089 11.3012 12.5045 9.85762 12.5786 8.19883L12.7756 4.56403C11.877 4.16855 10.8821 3.94775 9.83675 3.94775C8.79145 3.94775 7.79646 4.16716 6.89789 4.56403L7.09633 8.19883C7.17039 9.85901 8.266 11.3012 9.83815 11.8211H9.83675Z" fill="#003399"/>
<path fill-rule="evenodd" clip-rule="evenodd" d="M9.83675 11.5708C10.4488 11.3542 10.9799 10.9881 11.3935 10.5213C11.2105 10.5185 11.033 10.4612 10.8835 10.3578C10.8052 10.3117 10.7158 10.2866 10.6249 10.2866C10.5341 10.2866 10.446 10.3103 10.3678 10.3564C10.2113 10.464 10.0282 10.5213 9.83815 10.5213C9.6481 10.5213 9.46503 10.464 9.30851 10.3564C9.23026 10.3103 9.14222 10.2866 9.04998 10.2866C8.95775 10.2866 8.86971 10.3103 8.79145 10.3578C8.64053 10.4612 8.46305 10.5185 8.27998 10.5213C8.69363 10.9881 9.22606 11.3542 9.83675 11.5708ZM11.585 10.288C11.5291 10.3019 11.4718 10.3089 11.4117 10.3089C11.258 10.3089 11.1154 10.26 10.998 10.179C10.889 10.1119 10.7605 10.0742 10.6235 10.0742C10.4866 10.0742 10.3594 10.1119 10.2504 10.179C10.133 10.2614 9.99047 10.3103 9.83675 10.3103C9.68303 10.3103 9.54049 10.2614 9.42311 10.179C9.3141 10.1133 9.18693 10.0742 9.04998 10.0742C8.91303 10.0742 8.78447 10.1119 8.67546 10.179C8.55808 10.2614 8.41554 10.3089 8.26181 10.3089C8.20172 10.3089 8.14443 10.3019 8.08853 10.288C8.01726 10.1929 7.95018 10.0965 7.88869 9.99589C8.00328 10.0462 8.12906 10.0742 8.26181 10.0742C8.45187 10.0742 8.63494 10.0169 8.79006 9.90925C8.86831 9.86314 8.95775 9.83798 9.04859 9.83798C9.13942 9.83798 9.22886 9.86174 9.30712 9.90785C9.46363 10.0155 9.6467 10.0728 9.83675 10.0728C10.0268 10.0728 10.2099 10.0155 10.3664 9.90785C10.4446 9.86174 10.5327 9.83798 10.6235 9.83798C10.7144 9.83798 10.8038 9.86174 10.8821 9.90925C11.0372 10.0169 11.2216 10.0742 11.4103 10.0742C11.5431 10.0742 11.6688 10.0462 11.7834 9.99589C11.7219 10.0965 11.6549 10.1943 11.5836 10.288H11.585ZM12.0657 9.4425C12.1286 9.28878 12.1817 9.13086 12.2236 8.96876L11.0246 7.34211L10.5369 8.00311L9.83675 6.53857L9.13663 8.00172L8.64891 7.34072L7.44989 8.96736C7.49181 9.12807 7.54492 9.28598 7.60641 9.43831C7.721 9.68566 7.97114 9.85894 8.26181 9.85894C8.41554 9.85894 8.55808 9.81143 8.67546 9.72898C8.78447 9.6619 8.91303 9.62417 9.04998 9.62417C9.18693 9.62417 9.3141 9.6619 9.42311 9.72898C9.54049 9.81143 9.68303 9.86034 9.83675 9.86034C9.99047 9.86034 10.133 9.81143 10.2504 9.72898C10.3594 9.6633 10.4866 9.62417 10.6235 9.62417C10.7605 9.62417 10.889 9.6619 10.998 9.72898C11.1154 9.81143 11.258 9.85894 11.4117 9.85894C11.701 9.85894 11.9511 9.68705 12.0657 9.4411V9.4425Z" fill="white"/>
<path fill-rule="evenodd" clip-rule="evenodd" d="M9.83675 5.27246L9.91361 5.52121L10.1693 5.46391L9.99187 5.65537L10.168 5.84682L9.91361 5.78952L9.83675 6.03827L9.75989 5.78952L9.50555 5.84682L9.68163 5.65537L9.50555 5.46391L9.75989 5.52121L9.83675 5.27246Z" fill="#FED700"/>
<path fill-rule="evenodd" clip-rule="evenodd" d="M8.99264 4.18115L9.0695 4.4299L9.32383 4.3726L9.14775 4.56406L9.32383 4.75551L9.0695 4.69682L8.99264 4.94696L8.91578 4.69682L8.66144 4.75551L8.83752 4.56406L8.66144 4.3726L8.91578 4.4299L8.99264 4.18115Z" fill="#FED700"/>
<path fill-rule="evenodd" clip-rule="evenodd" d="M10.6808 4.18115L10.7577 4.4299L11.0134 4.3726L10.8359 4.56406L11.012 4.75551L10.7577 4.69682L10.6808 4.94696L10.6039 4.69682L10.3496 4.75551L10.5257 4.56406L10.3496 4.3726L10.6039 4.4299L10.6808 4.18115Z" fill="#FED700"/>
</g>
</g>
<rect x="0.25" y="0.25" width="23.5" height="23.5" rx="11.75" stroke="#E5E3E1" stroke-width="0.5"/>
<defs>
<clipPath id="clip0_16335_3381">
<rect width="24" height="24" rx="12" fill="white"/>
</clipPath>
</defs>
</svg>
