<svg width="24" height="24" viewBox="0 0 24 24" fill="none" xmlns="http://www.w3.org/2000/svg">
<g clip-path="url(#clip0_16335_4665)">
<path d="M20.4851 20.4853C25.1714 15.799 25.1714 8.20101 20.4851 3.51472C15.7988 -1.17157 8.20081 -1.17157 3.51452 3.51472C-1.17177 8.20101 -1.17177 15.799 3.51452 20.4853C8.20081 25.1716 15.7988 25.1716 20.4851 20.4853Z" fill="white"/>
<mask id="mask0_16335_4665" style="mask-type:luminance" maskUnits="userSpaceOnUse" x="-1" y="0" width="25" height="24">
<path d="M20.4851 20.4853C25.1714 15.799 25.1714 8.20101 20.4851 3.51472C15.7988 -1.17157 8.20081 -1.17157 3.51452 3.51472C-1.17177 8.20101 -1.17177 15.799 3.51452 20.4853C8.20081 25.1716 15.7988 25.1716 20.4851 20.4853Z" fill="white"/>
</mask>
<g mask="url(#mask0_16335_4665)">
<path d="M28.1603 0H-1.90472V24H28.1603V0Z" fill="white"/>
<path d="M28.1603 0H5.56891V24H28.1603V0Z" fill="#007C29"/>
<path fill-rule="evenodd" clip-rule="evenodd" d="M18.0217 7.20947L19.0823 8.39731L20.5371 7.75029L19.7363 9.12679L20.8012 10.309L19.2444 9.97225L18.4493 11.3515L18.2886 9.76683L16.7304 9.43563L18.1866 8.7928L18.0217 7.20947Z" fill="white"/>
<path fill-rule="evenodd" clip-rule="evenodd" d="M21.479 14.1395C20.586 16.328 18.4367 17.8694 15.9283 17.8694C12.6177 17.8694 9.93317 15.1862 9.93317 11.8756C9.93317 9.16178 11.7359 6.87134 14.208 6.13208C12.8539 7.12148 11.9749 8.72158 11.9749 10.5271C11.9749 13.5316 14.4106 15.966 17.4138 15.966C19.0306 15.966 20.4826 15.2603 21.479 14.1409V14.1395Z" fill="white"/>
</g>
</g>
<rect x="0.25" y="0.25" width="23.5" height="23.5" rx="11.75" stroke="#E5E3E1" stroke-width="0.5"/>
<defs>
<clipPath id="clip0_16335_4665">
<rect width="24" height="24" rx="12" fill="white"/>
</clipPath>
</defs>
</svg>
