<svg width="24" height="24" viewBox="0 0 24 24" fill="none" xmlns="http://www.w3.org/2000/svg">
<path fill-rule="evenodd" clip-rule="evenodd" d="M19.7455 18.4353L15.0441 13.6406L14.9565 13.7354C16.7996 11.1 16.3278 7.45943 13.8766 5.40288C11.4254 3.34632 7.8315 3.57568 5.65087 5.92782C3.47023 8.27996 3.44714 11.9521 5.59801 14.3326C7.74889 16.7131 11.3397 16.9894 13.8165 14.9651L13.7993 14.9835L18.4654 19.7408C18.8207 20.0907 19.3855 20.0857 19.7348 19.7295C20.0841 19.3733 20.089 18.7974 19.7458 18.435L19.7455 18.4353ZM10.0501 14.7788C7.54963 14.7788 5.52256 12.7117 5.52256 10.1617C5.52256 7.61166 7.54963 5.54448 10.0501 5.54448C12.5507 5.54448 14.5777 7.61166 14.5777 10.1617C14.5749 12.7105 12.5495 14.776 10.0501 14.7788Z" fill="#323232"/>
</svg>
