<svg width="48" height="48" viewBox="0 0 48 48" fill="none" xmlns="http://www.w3.org/2000/svg">
<path d="M10.1405 23.9399C7.31055 29.5999 3.06055 31.0199 3.06055 31.0199V16.8599C3.06055 16.8599 7.31055 18.2799 10.1405 23.9399Z" fill="#8DE2E0"/>
<path d="M36.3409 21.52C35.4009 21.52 34.6309 22.29 34.6309 23.23C34.6309 24.17 35.4009 24.94 36.3409 24.94C37.2809 24.94 38.0509 24.17 38.0509 23.23C38.0509 22.29 37.2809 21.52 36.3409 21.52ZM36.3409 23.52C36.1809 23.52 36.0509 23.39 36.0509 23.23C36.0509 23.07 36.1809 22.94 36.3409 22.94C36.5009 22.94 36.6309 23.07 36.6309 23.23C36.6309 23.39 36.5009 23.52 36.3409 23.52Z" fill="#323232"/>
<path d="M45.8308 23.5602C45.6508 23.2002 41.9708 16.2202 33.2208 13.8302L33.2008 13.8102C28.8608 9.33015 26.8808 7.39015 25.9808 6.56015C25.5108 6.13015 24.8308 6.01015 24.2508 6.27015C23.6708 6.52015 23.2908 7.10015 23.2908 7.74015V13.3602C15.8108 14.6202 11.7808 19.3802 10.1308 21.9302C7.22078 17.2702 3.54078 15.9802 3.37078 15.9302C3.06078 15.8302 2.73078 15.8802 2.47078 16.0702C2.21078 16.2602 2.05078 16.5602 2.05078 16.8802V31.0402C2.05078 31.3602 2.20078 31.6602 2.47078 31.8502C2.64078 31.9702 2.85078 32.0402 3.05078 32.0402C3.16078 32.0402 3.26078 32.0202 3.37078 31.9902C3.54078 31.9302 7.19078 30.6602 10.0908 26.0602C11.6108 28.4302 15.2308 32.8102 21.8808 34.4102V40.2902C21.8808 40.9102 22.2208 41.4602 22.7808 41.7302C23.0008 41.8402 23.2408 41.8902 23.4708 41.8902C23.8208 41.8902 24.1808 41.7702 24.4908 41.5302L33.1108 34.2502C41.9308 31.8902 45.6408 24.8502 45.8208 24.4902C45.9708 24.2002 45.9708 23.8702 45.8208 23.5802L45.8308 23.5602ZM25.3008 8.66015C26.1608 9.49015 27.5608 10.8902 29.8008 13.1802C28.9508 13.0902 28.0608 13.0302 27.1308 13.0302C26.5008 13.0302 25.8908 13.0602 25.3008 13.1102V8.66015ZM4.06078 29.4002V18.4902C5.37078 19.3002 7.40078 20.9402 9.01078 23.9502C7.39078 26.9602 5.36078 28.6002 4.06078 29.4102V29.4002ZM23.8808 39.4102V34.7702C24.9008 34.9102 25.9808 35.0002 27.1308 35.0002C27.8508 35.0002 28.5408 34.9602 29.2208 34.9102L23.8908 39.4202L23.8808 39.4102ZM27.1308 33.0002C16.3908 33.0002 12.0708 25.6902 11.2108 24.0202C12.0608 22.3402 16.3908 15.0402 27.1308 15.0402C29.0508 15.0402 30.7708 15.2802 32.3308 15.6702C32.3508 15.6702 32.3808 15.6702 32.4108 15.6902C39.3708 17.4802 42.8508 22.4702 43.7908 24.0202C42.6408 25.9302 37.6708 33.0002 27.1308 33.0002Z" fill="#323232"/>
</svg>
