<svg width="48" height="48" viewBox="0 0 48 48" fill="none" xmlns="http://www.w3.org/2000/svg">
<path d="M11.8595 40.1802C11.8395 42.4102 13.6395 44.2402 15.8695 44.2502C17.5595 44.2602 19.0795 43.2302 19.6895 41.6602C20.5495 43.3102 22.5895 43.9402 24.2395 43.0802C25.1095 42.6202 25.7395 41.8102 25.9595 40.8502C27.0995 42.7702 29.5795 43.4102 31.5095 42.2702C32.3095 41.7902 32.9295 41.0602 33.2495 40.1802H11.8595Z" fill="#8DE2E0"/>
<path d="M43.9498 22.4002C42.9598 20.9102 41.5198 19.8302 39.8398 19.3002V18.3902C42.0998 17.9602 45.2298 16.2502 45.2298 11.8402C45.2298 5.38023 39.0798 2.74023 23.9998 2.74023C14.3098 2.75023 2.75977 4.33024 2.75977 11.8502C2.75977 14.4202 3.47977 16.3202 4.88977 17.4702C5.82977 18.2402 6.89977 18.5202 7.75977 18.6102L2.81977 33.1102C2.65977 33.5802 2.86977 34.1002 3.31977 34.3302L8.16977 36.7502V36.8002C8.16977 38.6402 9.31977 40.2202 10.9298 40.8602C11.0698 41.9402 11.5398 42.9502 12.3198 43.7502C13.2698 44.7102 14.5298 45.2402 15.8698 45.2502H15.8998C17.4298 45.2502 18.8598 44.5502 19.8098 43.4002C20.2598 43.7902 20.7898 44.0802 21.3698 44.2702C22.4798 44.6202 23.6698 44.5102 24.6998 43.9702C25.2998 43.6502 25.8198 43.2102 26.2098 42.6702C27.8098 43.9902 30.1298 44.2502 32.0198 43.1302C32.8098 42.6602 33.4398 41.9802 33.8698 41.1802H35.4698C37.8798 41.1802 39.8398 39.2202 39.8398 36.8002V34.0502C42.5098 33.2002 44.5298 31.0002 45.0798 28.2302C45.4898 26.2002 45.0898 24.1302 43.9498 22.4002ZM4.98977 32.9302L8.15977 23.6202V34.5202L4.98977 32.9402V32.9302ZM18.7498 41.3002C18.2998 42.4702 17.1498 43.2502 15.8898 43.2502H15.8698C15.0598 43.2502 14.2998 42.9302 13.7298 42.3502C13.3998 42.0102 13.1498 41.6202 13.0098 41.1802H18.7998C18.7998 41.1802 18.7598 41.2602 18.7398 41.3002H18.7498ZM23.7698 42.1902C23.2098 42.4902 22.5598 42.5402 21.9598 42.3602C21.3598 42.1702 20.8598 41.7602 20.5698 41.2002C20.5698 41.2002 20.5698 41.1902 20.5698 41.1802H24.7898C24.5698 41.6102 24.2198 41.9602 23.7798 42.1902H23.7698ZM30.9898 41.4102C29.8798 42.0702 28.5098 41.9402 27.5398 41.1802H31.3198C31.2198 41.2602 31.1098 41.3402 30.9898 41.4102ZM37.8398 36.8002C37.8398 38.1102 36.7798 39.1802 35.4698 39.1802H12.5298C11.2198 39.1802 10.1598 38.1102 10.1598 36.8002V17.5802C10.1598 17.4402 10.1198 17.3102 10.0698 17.1902C10.0598 17.1602 10.0398 17.1302 10.0198 17.1002C9.96977 17.0102 9.90977 16.9302 9.82977 16.8602C9.81977 16.8502 9.80977 16.8302 9.78977 16.8102C9.76977 16.7902 9.74976 16.7902 9.72976 16.7802C9.67976 16.7402 9.61977 16.7102 9.55977 16.6802C9.50977 16.6602 9.45977 16.6402 9.40977 16.6302C9.37977 16.6302 9.34977 16.6002 9.31977 16.6002C9.28976 16.6002 9.25977 16.6002 9.22976 16.6002C9.19976 16.6002 9.17977 16.5902 9.14977 16.5902C9.08977 16.5902 9.02977 16.5902 8.96977 16.6102C8.94977 16.6102 7.31977 16.9002 6.13977 15.9302C5.21977 15.1702 4.75977 13.8002 4.75977 11.8602C4.75977 5.45023 18.2098 4.76023 23.9998 4.76023C40.8998 4.76023 43.2298 8.17023 43.2298 11.8602C43.2298 16.1902 39.2498 16.5002 38.7998 16.5202C38.2598 16.5402 37.8398 16.9802 37.8398 17.5202V36.8102V36.8002ZM43.1198 27.8302C42.7498 29.6702 41.5098 31.1802 39.8398 31.9302V21.4402C40.8298 21.8802 41.6798 22.5902 42.2898 23.5102C43.1398 24.7902 43.4398 26.3202 43.1298 27.8302H43.1198Z" fill="#323232"/>
<path d="M14.6588 13.6302C15.2719 13.6302 15.7688 13.1332 15.7688 12.5202C15.7688 11.9071 15.2719 11.4102 14.6588 11.4102C14.0458 11.4102 13.5488 11.9071 13.5488 12.5202C13.5488 13.1332 14.0458 13.6302 14.6588 13.6302Z" fill="#323232"/>
<path d="M24.8502 19.7503C25.4633 19.7503 25.9602 19.2533 25.9602 18.6403C25.9602 18.0272 25.4633 17.5303 24.8502 17.5303C24.2372 17.5303 23.7402 18.0272 23.7402 18.6403C23.7402 19.2533 24.2372 19.7503 24.8502 19.7503Z" fill="#323232"/>
<path d="M24.0006 32.6504C23.3906 32.6504 22.8906 33.1504 22.8906 33.7604C22.8906 34.3704 23.3906 34.8704 24.0006 34.8704C24.6106 34.8704 25.1106 34.3704 25.1106 33.7604C25.1106 33.1504 24.6106 32.6504 24.0006 32.6504Z" fill="#323232"/>
<path d="M31.7995 11.9104C32.4095 11.9104 32.9095 11.4104 32.9095 10.8004C32.9095 10.1904 32.4095 9.69043 31.7995 9.69043C31.1895 9.69043 30.6895 10.1904 30.6895 10.8004C30.6895 11.4104 31.1895 11.9104 31.7995 11.9104Z" fill="#323232"/>
<path d="M17.0006 27.5003C17.6137 27.5003 18.1106 27.0033 18.1106 26.3903C18.1106 25.7772 17.6137 25.2803 17.0006 25.2803C16.3876 25.2803 15.8906 25.7772 15.8906 26.3903C15.8906 27.0033 16.3876 27.5003 17.0006 27.5003Z" fill="#323232"/>
<path d="M31.9088 26.4202C32.5219 26.4202 33.0188 25.9232 33.0188 25.3102C33.0188 24.6972 32.5219 24.2002 31.9088 24.2002C31.2958 24.2002 30.7988 24.6972 30.7988 25.3102C30.7988 25.9232 31.2958 26.4202 31.9088 26.4202Z" fill="#323232"/>
</svg>
