<svg width="48" height="48" viewBox="0 0 48 48" fill="none" xmlns="http://www.w3.org/2000/svg">
<path d="M39.0704 14.82C38.0504 14.82 37.0504 14.5 36.2104 13.88C35.1504 13.11 34.4604 11.98 34.2604 10.69C34.0604 9.39999 34.3704 8.10999 35.1404 7.05999C35.9104 5.99999 37.0404 5.30999 38.3304 5.10999C39.6204 4.90999 40.9104 5.21999 41.9604 5.98999C43.0204 6.75999 43.7104 7.88999 43.9104 9.17999C44.1104 10.47 43.8004 11.76 43.0304 12.82C42.2604 13.88 41.1304 14.57 39.8404 14.77C39.5804 14.81 39.3204 14.83 39.0704 14.83V14.82ZM39.0804 7.04999C38.9304 7.04999 38.7804 7.05999 38.6204 7.08999C37.8604 7.20999 37.1904 7.61999 36.7404 8.23999C36.2904 8.85999 36.1004 9.62999 36.2204 10.39C36.3404 11.15 36.7504 11.82 37.3704 12.27C37.9904 12.72 38.7504 12.91 39.5204 12.79C40.2804 12.67 40.9504 12.26 41.4004 11.64C41.8504 11.02 42.0404 10.25 41.9204 9.48999C41.8004 8.72999 41.3904 8.05999 40.7704 7.60999C40.2704 7.24999 39.6804 7.05999 39.0804 7.05999V7.04999Z" fill="#323232"/>
<path d="M30.5193 26.5397C30.3193 26.5397 30.1093 26.4797 29.9293 26.3497C29.4793 26.0297 29.3793 25.3997 29.7093 24.9497L35.1693 17.4397C34.2493 16.8097 33.1493 16.1097 32.6893 15.9297C31.1893 15.3497 28.0893 15.1297 26.1793 15.7097C24.8993 16.0897 21.0993 17.7597 21.0593 17.7797C20.5493 18.0097 19.9593 17.7797 19.7393 17.2697C19.5193 16.7597 19.7393 16.1697 20.2493 15.9497C20.4093 15.8797 24.1993 14.2097 25.5993 13.7897C27.9793 13.0697 31.5593 13.3497 33.4093 14.0597C34.4693 14.4697 36.8893 16.1997 37.1593 16.3897C37.3793 16.5497 37.5193 16.7797 37.5593 17.0397C37.5993 17.2997 37.5393 17.5697 37.3793 17.7897L31.3193 26.1197C31.1193 26.3897 30.8193 26.5297 30.5093 26.5297L30.5193 26.5397Z" fill="#323232"/>
<path d="M43.08 26.4102C42.01 26.4102 40.81 26.2402 39.39 25.5602C37.43 24.6302 36.7 22.6302 36.3 21.5602C36.25 21.4102 36.2 21.2902 36.16 21.1902C35.94 20.6802 36.18 20.0902 36.68 19.8802C37.18 19.6602 37.78 19.9002 37.99 20.4002C38.04 20.5202 38.1 20.6802 38.17 20.8702C38.49 21.7302 39.01 23.1702 40.24 23.7502C41.92 24.5502 43.17 24.4402 44.5 24.3202C44.73 24.3002 44.95 24.2802 45.18 24.2602C45.74 24.2302 46.21 24.6402 46.25 25.1902C46.29 25.7402 45.87 26.2202 45.32 26.2602C45.11 26.2702 44.9 26.2902 44.69 26.3102C44.18 26.3602 43.65 26.4002 43.08 26.4002V26.4102Z" fill="#323232"/>
<path d="M26.0704 43.9001C25.9004 43.9001 25.7204 43.8501 25.5604 43.7601C25.0904 43.4801 24.9304 42.8601 25.2104 42.3901C26.9204 39.5201 28.5804 36.1301 27.8704 32.8001C27.7104 32.0501 27.0504 29.3601 25.9704 25.0401C25.5104 23.2301 25.8904 21.3201 26.9904 19.8001L29.2804 16.6501C29.6004 16.2001 30.2304 16.1001 30.6804 16.4301C31.1304 16.7501 31.2304 17.3801 30.9004 17.8301L28.6104 20.9801C27.8604 22.0101 27.6004 23.3201 27.9104 24.5601C28.6704 27.5901 29.6204 31.4101 29.8304 32.3901C30.6904 36.3901 28.8504 40.2101 26.9404 43.4201C26.7504 43.7301 26.4204 43.9101 26.0804 43.9101L26.0704 43.9001Z" fill="#323232"/>
<path d="M12.2295 34.3099C11.7595 34.3099 11.3395 33.9799 11.2495 33.4999C11.1495 32.9599 11.4995 32.4299 12.0395 32.3299C13.7395 31.9999 15.1095 31.7899 16.2095 31.6199C18.2295 31.3099 19.4495 31.1199 20.5695 30.5899C21.4795 30.1599 22.7595 28.0599 23.3795 26.6999C23.6095 26.1999 24.1995 25.9799 24.7095 26.2099C25.2095 26.4399 25.4295 27.0299 25.2095 27.5299C24.9095 28.1899 23.3195 31.5099 21.4295 32.3999C20.0495 33.0499 18.6495 33.2699 16.5195 33.5999C15.4295 33.7699 14.0795 33.9799 12.4195 34.2999C12.3595 34.3099 12.2895 34.3199 12.2295 34.3199V34.3099Z" fill="#323232"/>
<path d="M16.1705 16H5.98047C5.43047 16 4.98047 15.55 4.98047 15C4.98047 14.45 5.43047 14 5.98047 14H16.1705C16.7205 14 17.1705 14.45 17.1705 15C17.1705 15.55 16.7205 16 16.1705 16Z" fill="#8DE2E0"/>
<path d="M20.6606 22.0703H7.89062C7.34062 22.0703 6.89062 21.6203 6.89062 21.0703C6.89062 20.5203 7.34062 20.0703 7.89062 20.0703H20.6506C21.2006 20.0703 21.6506 20.5203 21.6506 21.0703C21.6506 21.6203 21.2006 22.0703 20.6506 22.0703H20.6606Z" fill="#8DE2E0"/>
<path d="M16.9298 28.1396H2.75977C2.20977 28.1396 1.75977 27.6896 1.75977 27.1396C1.75977 26.5896 2.20977 26.1396 2.75977 26.1396H16.9298C17.4798 26.1396 17.9298 26.5896 17.9298 27.1396C17.9298 27.6896 17.4798 28.1396 16.9298 28.1396Z" fill="#8DE2E0"/>
</svg>
