<svg width="48" height="48" viewBox="0 0 48 48" fill="none" xmlns="http://www.w3.org/2000/svg">
<path d="M24.0009 46.1199C11.8009 46.1199 1.88086 36.1899 1.88086 23.9999C1.88086 11.8099 11.8009 1.87988 24.0009 1.87988C36.2009 1.87988 46.1209 11.8099 46.1209 23.9999C46.1209 36.1899 36.2009 46.1199 24.0009 46.1199ZM24.0009 3.87988C12.9009 3.87988 3.88086 12.8999 3.88086 23.9999C3.88086 35.0999 12.9109 44.1199 24.0009 44.1199C35.0909 44.1199 44.1209 35.0899 44.1209 23.9999C44.1209 12.9099 35.1009 3.87988 24.0009 3.87988Z" fill="#323232"/>
<path d="M12.6098 35.7398C12.3398 35.7398 12.0798 35.6298 11.8798 35.4298C8.95984 32.3298 7.33984 28.2698 7.33984 24.0098C7.33984 15.4098 13.7898 8.27977 22.3398 7.43977C22.9098 7.38977 23.3798 7.78977 23.4298 8.33977C23.4798 8.88977 23.0798 9.37977 22.5298 9.42977C15.0098 10.1698 9.32984 16.4398 9.32984 24.0098C9.32984 27.7598 10.7498 31.3298 13.3198 34.0598C13.6998 34.4598 13.6798 35.0898 13.2798 35.4698C13.0898 35.6498 12.8398 35.7398 12.5898 35.7398H12.6098Z" fill="#8DE2E0"/>
<path d="M35.5407 11.4404H27.8707C27.3207 11.4404 26.8707 11.8904 26.8707 12.4404C26.8707 12.9904 27.3207 13.4404 27.8707 13.4404H33.1307L28.5907 17.9804C27.3207 17.0204 25.7507 16.4404 24.0307 16.4404C19.8607 16.4404 16.4707 19.8304 16.4707 24.0004C16.4707 27.8304 19.3407 31.0004 23.0307 31.4904V34.5804H20.1207C19.5707 34.5804 19.1207 35.0304 19.1207 35.5804C19.1207 36.1304 19.5707 36.5804 20.1207 36.5804H23.0307V39.4904C23.0307 40.0404 23.4807 40.4904 24.0307 40.4904C24.5807 40.4904 25.0307 40.0404 25.0307 39.4904V36.5804H27.9407C28.4907 36.5804 28.9407 36.1304 28.9407 35.5804C28.9407 35.0304 28.4907 34.5804 27.9407 34.5804H25.0307V31.4904C28.7307 31.0004 31.5907 27.8304 31.5907 24.0004C31.5907 22.2604 30.9907 20.6604 30.0007 19.3804L34.5307 14.8504V20.1104C34.5307 20.6604 34.9807 21.1104 35.5307 21.1104C36.0807 21.1104 36.5307 20.6604 36.5307 20.1104V12.4404C36.5307 11.8904 36.0807 11.4404 35.5307 11.4404H35.5407ZM24.0307 29.5604C20.9607 29.5604 18.4707 27.0604 18.4707 24.0004C18.4707 20.9404 20.9707 18.4404 24.0307 18.4404C27.0907 18.4404 29.5907 20.9404 29.5907 24.0004C29.5907 27.0604 27.0907 29.5604 24.0307 29.5604Z" fill="#DF0000"/>
</svg>
