<svg width="24" height="24" viewBox="0 0 24 24" fill="none" xmlns="http://www.w3.org/2000/svg">
<g clip-path="url(#clip0_16335_3312)">
<path d="M23.6789 14.7568C25.2013 8.30659 21.2066 1.84354 14.7564 0.321152C8.30617 -1.20123 1.84311 2.79355 0.320729 9.24374C-1.20165 15.6939 2.79312 22.157 9.24332 23.6794C15.6935 25.2018 22.1566 21.207 23.6789 14.7568Z" fill="white"/>
<mask id="mask0_16335_3312" style="mask-type:luminance" maskUnits="userSpaceOnUse" x="-1" y="-1" width="26" height="26">
<path d="M23.6789 14.7568C25.2013 8.30659 21.2066 1.84354 14.7564 0.321152C8.30617 -1.20123 1.84311 2.79355 0.320729 9.24374C-1.20165 15.6939 2.79312 22.157 9.24332 23.6794C15.6935 25.2018 22.1566 21.207 23.6789 14.7568Z" fill="white"/>
</mask>
<g mask="url(#mask0_16335_3312)">
<path d="M34.2141 0H-1.78595V24H34.2141V0Z" fill="white"/>
<path d="M34.2141 8.3999H-1.78595V15.5996H34.2141V8.3999Z" fill="#FF0000"/>
<path d="M34.2141 0H-1.78595V7.19972H34.2141V0Z" fill="black"/>
<path d="M34.2141 16.8003H-1.78595V24H34.2141V16.8003Z" fill="#007C29"/>
<path fill-rule="evenodd" clip-rule="evenodd" d="M-1.78595 0V24L18.7861 12L-1.78595 0Z" fill="#00ADFE"/>
<path fill-rule="evenodd" clip-rule="evenodd" d="M5.14406 8.08594L6.02166 10.7998L8.87388 10.7956L6.56388 12.4698L7.44987 15.1808L5.14406 13.4983L2.83685 15.1808L3.72284 12.4698L1.41144 10.7956L4.26505 10.7998L5.14406 8.08594Z" fill="#FED700"/>
</g>
</g>
<rect x="0.25" y="0.25" width="23.5" height="23.5" rx="11.75" stroke="#E5E3E1" stroke-width="0.5"/>
<defs>
<clipPath id="clip0_16335_3312">
<rect width="24" height="24" rx="12" fill="white"/>
</clipPath>
</defs>
</svg>
