<svg width="48" height="48" viewBox="0 0 48 48" fill="none" xmlns="http://www.w3.org/2000/svg">
<path fill-rule="evenodd" clip-rule="evenodd" d="M37.81 37.7998H10.17L4.75 43.2498H43.25L37.81 37.7998Z" fill="#8DE2E0"/>
<path d="M21.4298 12.1699H15.0098C14.4598 12.1699 14.0098 11.7199 14.0098 11.1699C14.0098 10.6199 14.4598 10.1699 15.0098 10.1699H21.4298C21.9798 10.1699 22.4298 10.6199 22.4298 11.1699C22.4298 11.7199 21.9798 12.1699 21.4298 12.1699Z" fill="#DF0000"/>
<path d="M32.98 17.2998H15C14.45 17.2998 14 16.8498 14 16.2998C14 15.7498 14.45 15.2998 15 15.2998H32.98C33.53 15.2998 33.98 15.7498 33.98 16.2998C33.98 16.8498 33.53 17.2998 32.98 17.2998Z" fill="#DF0000"/>
<path d="M32.9795 22.4297H15.0195C14.4695 22.4297 14.0195 21.9797 14.0195 21.4297C14.0195 20.8797 14.4695 20.4297 15.0195 20.4297H32.9895C33.5395 20.4297 33.9895 20.8797 33.9895 21.4297C33.9895 21.9797 33.5395 22.4297 32.9895 22.4297H32.9795Z" fill="#DF0000"/>
<path d="M44.2502 21.43C44.2502 21.43 44.2302 21.37 44.2302 21.34C44.2302 21.26 44.2102 21.19 44.1802 21.11C44.1602 21.05 44.1402 21 44.1102 20.94C44.0902 20.91 44.0902 20.88 44.0702 20.85C44.0402 20.81 44.0002 20.79 43.9702 20.76C43.9402 20.73 43.9302 20.7 43.9002 20.67L39.1102 16.52V4.75C39.1102 4.2 38.6602 3.75 38.1102 3.75H9.88023C9.33023 3.75 8.88023 4.2 8.88023 4.75V16.53L4.09023 20.68C4.09023 20.68 4.05023 20.74 4.02023 20.77C3.99023 20.8 3.95023 20.82 3.92023 20.86C3.90023 20.89 3.90023 20.92 3.88023 20.95C3.85023 21 3.83023 21.06 3.81023 21.12C3.78023 21.2 3.77023 21.27 3.76023 21.35C3.76023 21.38 3.74023 21.41 3.74023 21.44V43.26C3.74023 43.39 3.77023 43.52 3.82023 43.64C3.87023 43.76 3.94023 43.87 4.04023 43.96C4.06023 43.98 4.08023 43.98 4.09023 43.99C4.17023 44.06 4.26023 44.13 4.36023 44.17C4.48023 44.22 4.61023 44.25 4.74023 44.25H43.2402C43.2402 44.25 43.3002 44.23 43.3302 44.23C43.4302 44.23 43.5302 44.21 43.6202 44.17C43.7302 44.13 43.8202 44.06 43.9002 43.99C43.9102 43.98 43.9302 43.97 43.9502 43.96C44.0402 43.87 44.1202 43.76 44.1702 43.64C44.2202 43.52 44.2502 43.39 44.2502 43.26V21.44V21.43ZM5.75023 23.35L15.9902 30.52L5.75023 40.83V23.36V23.35ZM18.8902 30.44C20.9902 28.34 27.0202 28.34 29.1202 30.44L29.7502 31.07C29.7502 31.07 29.7702 31.09 29.7902 31.11L40.8602 42.26H7.15023L18.8802 30.45L18.8902 30.44ZM32.0102 30.52L42.2502 23.35V40.82L32.0102 30.51V30.52ZM41.6302 21.35L39.1202 23.11V19.18L41.6302 21.36V21.35ZM37.1202 5.75V24.51L30.5902 29.08L30.5302 29.02C27.6602 26.16 20.3402 26.16 17.4702 29.02L17.4202 29.07L10.8902 24.5V5.75H37.1202ZM8.88023 23.11L6.37023 21.35L8.88023 19.17V23.1V23.11Z" fill="#323232"/>
</svg>
