<svg width="48" height="48" viewBox="0 0 48 48" fill="none" xmlns="http://www.w3.org/2000/svg">
<path d="M18.2378 44.8595L22.4478 36.6095C22.5278 36.4595 22.4278 36.2795 22.2578 36.2695C17.9378 35.8595 14.0578 33.9395 11.1478 31.0395C11.0378 30.9295 10.8478 30.9495 10.7678 31.0995L6.99781 38.5995C6.91781 38.7595 7.03781 38.9595 7.22781 38.9495L13.9478 38.5295C14.0378 38.5295 14.1278 38.5695 14.1678 38.6495L17.8278 44.8895C17.9278 45.0495 18.1578 45.0495 18.2478 44.8795" fill="#8DE2E0"/>
<path d="M30.1775 44.8699L33.8375 38.6299C33.8875 38.5499 33.9676 38.5099 34.0576 38.5099L40.7775 38.9299C40.9675 38.9399 41.0875 38.7499 41.0075 38.5799L37.2376 31.0799C37.1676 30.9399 36.9775 30.9099 36.8575 31.0199C33.9475 33.9199 30.0575 35.8399 25.7375 36.2499C25.5675 36.2699 25.4675 36.4399 25.5475 36.5899L29.7575 44.8399C29.8475 45.0099 30.0775 45.0099 30.1775 44.8499" fill="#8DE2E0"/>
<path d="M18.0392 46.2498C17.6892 46.2498 17.3592 46.0598 17.1792 45.7598L13.5392 39.5498L6.87917 39.9698C6.51917 39.9898 6.17917 39.8198 5.97917 39.5198C5.77917 39.2198 5.75917 38.8398 5.91917 38.5198L9.56917 31.2598C9.81917 30.7698 10.4192 30.5698 10.9092 30.8198C11.3992 31.0698 11.5992 31.6698 11.3492 32.1598L8.47917 37.8698L14.0192 37.5198C14.3992 37.4998 14.7492 37.6898 14.9492 38.0098L17.9792 43.1698L21.2492 36.7698C21.4992 36.2798 22.0992 36.0798 22.5992 36.3298C23.0892 36.5798 23.2892 37.1798 23.0392 37.6798L18.9392 45.7098C18.7692 46.0398 18.4392 46.2398 18.0792 46.2498C18.0792 46.2498 18.0592 46.2498 18.0492 46.2498H18.0392Z" fill="#323232"/>
<path d="M29.9591 46.2498C29.9591 46.2498 29.9391 46.2498 29.9291 46.2498C29.5591 46.2398 29.2291 46.0298 29.0691 45.7098L24.9691 37.6798C24.7191 37.1898 24.9091 36.5898 25.4091 36.3298C25.8991 36.0798 26.4991 36.2698 26.7591 36.7698L30.0291 43.1698L33.0591 38.0098C33.2491 37.6798 33.6091 37.4898 33.9891 37.5198L39.5291 37.8698L36.6591 32.1598C36.4091 31.6698 36.6091 31.0698 37.0991 30.8198C37.5891 30.5698 38.1891 30.7698 38.4391 31.2598L42.0891 38.5198C42.2491 38.8398 42.2291 39.2198 42.0291 39.5198C41.8291 39.8198 41.4891 39.9898 41.1291 39.9698L34.4691 39.5498L30.8291 45.7598C30.6491 46.0698 30.3191 46.2498 29.9691 46.2498H29.9591Z" fill="#323232"/>
<path d="M23.9989 34.5C14.9689 34.5 7.62891 27.16 7.62891 18.13C7.62891 9.1 14.9689 1.75 23.9989 1.75C33.0289 1.75 40.3689 9.1 40.3689 18.12C40.3689 27.14 33.0189 34.49 23.9989 34.49V34.5ZM23.9989 3.75C16.0689 3.75 9.62891 10.2 9.62891 18.12C9.62891 26.04 16.0789 32.49 23.9989 32.49C31.9189 32.49 38.3689 26.04 38.3689 18.12C38.3689 10.2 31.9289 3.75 23.9989 3.75Z" fill="#323232"/>
<path d="M28.3718 22.9301L27.5418 16.3901L30.2518 13.6801C30.7518 13.1801 30.7518 12.3701 30.2518 11.8701C29.7518 11.3701 28.9418 11.3701 28.4418 11.8701L25.7318 14.5801L19.1918 13.7501C19.1918 13.7501 18.7018 13.6601 18.5018 13.8601L17.7418 14.6201C17.6318 14.7101 17.5918 14.8501 17.6318 14.9801C17.6718 15.1201 18.0318 15.2701 18.1518 15.3201L22.6718 17.6301L20.6618 19.6401L18.3518 19.3101C18.2118 19.2801 18.0718 19.3301 17.9718 19.4401L17.4118 20.0001C17.3418 20.0701 17.1918 20.2501 17.5218 20.4001L20.4818 21.6301L21.7118 24.5901C21.8718 24.9301 22.0518 24.7501 22.1118 24.7001L22.6718 24.1401C22.7818 24.0401 22.8218 23.9001 22.8018 23.7601L22.4718 21.4501L24.4818 19.4401L26.7818 23.9801C26.8318 24.1101 27.0018 24.4501 27.1218 24.5001C27.2518 24.5401 27.4018 24.5001 27.4818 24.3901L28.2618 23.6101C28.4618 23.4101 28.3718 22.9201 28.3718 22.9201V22.9301Z" fill="#DF0000"/>
</svg>
