<svg width="48" height="48" viewBox="0 0 48 48" fill="none" xmlns="http://www.w3.org/2000/svg">
<path d="M24.0002 28.3302C21.6102 28.3302 19.6602 26.3902 19.6602 23.9902C19.6602 21.5902 21.6002 19.6602 24.0002 19.6602C26.4002 19.6602 28.3402 21.6002 28.3402 23.9902C28.3402 26.3802 26.4002 28.3302 24.0002 28.3302Z" fill="#8DE2E0"/>
<path d="M21.3404 36.8702H26.5604C27.4204 36.8702 28.1204 36.1702 28.1204 35.3102V33.6302C28.9104 33.2802 29.6504 32.8502 30.3004 32.3502L31.8104 33.2702C32.1704 33.4902 32.6104 33.5602 33.0204 33.4502C33.4304 33.3402 33.7804 33.0702 33.9804 32.7202L36.6004 28.1602C37.0204 27.4202 36.7804 26.4902 36.0504 26.0502C36.0504 26.0502 36.0504 26.0502 36.0404 26.0502L34.4104 25.0902C34.5004 24.3202 34.5004 23.5302 34.4104 22.7402L35.7504 22.0102C36.1204 21.8002 36.3904 21.4702 36.5004 21.0602C36.6104 20.6502 36.5604 20.2302 36.3504 19.8602L33.7604 15.3802C33.5504 15.0202 33.2104 14.7702 32.8104 14.6602C32.4004 14.5502 31.9804 14.6102 31.6304 14.8202L30.2304 15.6302C29.6004 15.1802 28.9304 14.7902 28.2304 14.4802V12.7202C28.2304 11.8602 27.5304 11.1602 26.6704 11.1602H21.4504C20.5904 11.1602 19.8904 11.8602 19.8904 12.7202V14.4002C19.1704 14.7102 18.5004 15.0902 17.8704 15.5502L16.4104 14.7302C15.6604 14.3102 14.7104 14.5702 14.2804 15.3102L11.6704 19.8702C11.4604 20.2302 11.4004 20.6602 11.5104 21.0602C11.6204 21.4602 11.8804 21.8002 12.2504 22.0102L13.5404 22.7402C13.4404 23.5502 13.4404 24.3602 13.5404 25.1702L12.0104 26.0502C11.6504 26.2602 11.4004 26.6002 11.2904 27.0002C11.1804 27.4102 11.2404 27.8302 11.4504 28.1802L14.0504 32.6902C14.4804 33.4302 15.4004 33.6802 16.1504 33.2702L17.6904 32.4202C18.3504 32.9102 19.0504 33.3202 19.8004 33.6402V35.3202C19.8004 36.1802 20.5004 36.8802 21.3604 36.8802L21.3404 36.8702ZM18.7004 30.6702C18.2104 30.2702 17.5404 30.2102 16.9804 30.5102L15.5504 31.3002L13.3804 27.5402L14.7904 26.7302C15.3504 26.4102 15.6504 25.7802 15.5404 25.1402C15.4204 24.3402 15.4204 23.5302 15.5404 22.7202C15.6404 22.0702 15.3304 21.4302 14.7804 21.1202L13.6104 20.4602L15.7904 16.6602L17.1204 17.4102C17.6604 17.7202 18.3304 17.6702 18.8304 17.2902C19.4504 16.8102 20.1404 16.4202 20.8804 16.1302C21.4804 15.8902 21.8704 15.3202 21.8704 14.6902V13.1402H26.2004V14.7702C26.2004 15.4002 26.5904 15.9702 27.1804 16.2002C27.9004 16.4902 28.5904 16.8902 29.2104 17.3602C29.7104 17.7502 30.3804 17.8102 30.9404 17.4902L32.2204 16.7502L34.3604 20.4502L33.1504 21.1102C32.5804 21.4202 32.2704 22.0702 32.3604 22.7002C32.4704 23.4902 32.4704 24.2802 32.3604 25.0502C32.2604 25.6902 32.5404 26.3102 33.1004 26.6302L34.6204 27.5202L32.4404 31.3102L31.0504 30.4602C30.5004 30.1202 29.7804 30.1702 29.2604 30.5902C28.6304 31.1102 27.8904 31.5402 27.0904 31.8702C26.4904 32.1102 26.1104 32.6802 26.1104 33.3102V34.8502H21.7804V33.3102C21.7804 32.6702 21.3904 32.1102 20.8004 31.8702C20.0404 31.5602 19.3204 31.1502 18.6904 30.6502L18.7004 30.6702Z" fill="#323232"/>
<path d="M29.3402 23.9999C29.3402 21.0599 26.9502 18.6699 24.0002 18.6699C21.0502 18.6699 18.6602 21.0599 18.6602 23.9999C18.6602 26.9399 21.0502 29.3399 24.0002 29.3399C26.9502 29.3399 29.3402 26.9499 29.3402 23.9999ZM20.6602 23.9999C20.6602 22.1599 22.1602 20.6699 24.0002 20.6699C25.8402 20.6699 27.3402 22.1699 27.3402 23.9999C27.3402 25.8299 25.8402 27.3399 24.0002 27.3399C22.1602 27.3399 20.6602 25.8399 20.6602 23.9999Z" fill="#323232"/>
<path d="M46.9116 25.2503L43.5416 22.3103C43.1217 21.9503 42.4916 21.9903 42.1316 22.4103L39.1916 25.7803C38.8316 26.2003 38.8717 26.8303 39.2916 27.1903C39.4816 27.3603 39.7116 27.4403 39.9516 27.4403C40.2316 27.4403 40.5117 27.3203 40.7016 27.1003L42.1616 25.4203C41.4416 34.7803 33.6116 42.1803 24.0616 42.1803C15.6516 42.1803 8.39165 36.4803 6.41165 28.3303C6.28165 27.7903 5.74165 27.4703 5.20165 27.6003C4.66165 27.7303 4.33165 28.2703 4.47165 28.8103C6.68165 37.8703 14.7316 44.1903 24.0716 44.1903C34.6816 44.1903 43.3916 35.9503 44.1616 25.5303L45.5916 26.7803C46.0116 27.1403 46.6416 27.1003 47.0016 26.6803C47.3616 26.2603 47.3216 25.6303 46.9016 25.2703L46.9116 25.2503Z" fill="#323232"/>
<path d="M5.11071 25.9801C5.39071 25.9801 5.67071 25.8601 5.86071 25.6401L8.80071 22.2701C9.16071 21.8501 9.12071 21.2201 8.70071 20.8601C8.28071 20.5001 7.65071 20.5401 7.29071 20.9601L5.97071 22.4701C6.76071 13.1701 14.5707 5.83008 24.0707 5.83008C32.5007 5.83008 39.7607 11.5401 41.7307 19.7301C41.8607 20.2701 42.4007 20.6001 42.9407 20.4701C43.4807 20.3401 43.8107 19.8001 43.6807 19.2601C41.4907 10.1801 33.4307 3.83008 24.0707 3.83008C13.4007 3.83008 4.67071 12.1601 3.97071 22.6601L2.41071 21.3001C1.99071 20.9401 1.36071 20.9801 1.00071 21.4001C0.640713 21.8201 0.680713 22.4501 1.10071 22.8101L4.47071 25.7501C4.66071 25.9201 4.89071 26.0001 5.13071 26.0001L5.11071 25.9801Z" fill="#323232"/>
</svg>
