<svg width="24" height="24" viewBox="0 0 24 24" fill="none" xmlns="http://www.w3.org/2000/svg">
<g clip-path="url(#clip0_16335_6239)">
<path d="M20.4851 20.4853C25.1714 15.799 25.1714 8.20101 20.4851 3.51472C15.7988 -1.17157 8.20081 -1.17157 3.51452 3.51472C-1.17177 8.20101 -1.17177 15.799 3.51452 20.4853C8.20081 25.1716 15.7988 25.1716 20.4851 20.4853Z" fill="white"/>
<mask id="mask0_16335_6239" style="mask-type:luminance" maskUnits="userSpaceOnUse" x="-1" y="0" width="25" height="24">
<path d="M20.4851 20.4853C25.1714 15.799 25.1714 8.20101 20.4851 3.51472C15.7988 -1.17157 8.20081 -1.17157 3.51452 3.51472C-1.17177 8.20101 -1.17177 15.799 3.51452 20.4853C8.20081 25.1716 15.7988 25.1716 20.4851 20.4853Z" fill="white"/>
</mask>
<g mask="url(#mask0_16335_6239)">
<path d="M30.0007 0H-5.99927V8.00047H30.0007V0Z" fill="black"/>
<path d="M30.0007 15.9995H-5.99927V24H30.0007V15.9995Z" fill="#007C29"/>
<path d="M30.0007 8.00049H-5.99927V16.001H30.0007V8.00049Z" fill="#FF0000"/>
<path fill-rule="evenodd" clip-rule="evenodd" d="M12 3.76617C14.2569 3.76617 16.177 5.21115 16.8856 7.22629H7.1145C7.82301 5.21115 9.74173 3.76617 12 3.76617Z" fill="#FF0000"/>
<path fill-rule="evenodd" clip-rule="evenodd" d="M12 3.12609C11.8184 2.42457 11.5487 0.772766 12 0.772766C12.4514 0.772766 12.1817 2.42317 12 3.12609Z" fill="#FF0000"/>
<path fill-rule="evenodd" clip-rule="evenodd" d="M11.49 3.14848C11.2482 2.46512 10.8332 0.844066 11.2832 0.804937C11.7331 0.765808 11.6088 2.43438 11.49 3.14848Z" fill="#FF0000"/>
<path fill-rule="evenodd" clip-rule="evenodd" d="M10.9827 3.21555C10.6822 2.55595 10.1274 0.978214 10.5704 0.898559C11.0148 0.818904 11.0372 2.49306 10.9827 3.21555Z" fill="#FF0000"/>
<path fill-rule="evenodd" clip-rule="evenodd" d="M10.4838 3.32737C10.126 2.69711 9.43427 1.17388 9.87028 1.0551C10.3063 0.937709 10.4754 2.60209 10.4838 3.32737Z" fill="#FF0000"/>
<path fill-rule="evenodd" clip-rule="evenodd" d="M9.9975 3.48247C9.58524 2.88575 8.76354 1.4296 9.18697 1.27308C9.6104 1.11796 9.92623 2.76138 9.9975 3.48247Z" fill="#FF0000"/>
<path fill-rule="evenodd" clip-rule="evenodd" d="M9.52513 3.67949C9.06257 3.12191 8.11509 1.74261 8.52454 1.54976C8.9326 1.35831 9.39097 2.96679 9.52513 3.67949Z" fill="#FF0000"/>
<path fill-rule="evenodd" clip-rule="evenodd" d="M9.07234 3.91709C8.56226 3.40143 7.4988 2.11157 7.88869 1.88379C8.27858 1.656 8.87669 3.21976 9.07234 3.91709Z" fill="#FF0000"/>
<path fill-rule="evenodd" clip-rule="evenodd" d="M8.64336 4.1924C8.08996 3.72425 6.9161 2.53082 7.28503 2.27089C7.65396 2.01096 8.38623 3.51463 8.64336 4.1924Z" fill="#FF0000"/>
<path fill-rule="evenodd" clip-rule="evenodd" d="M8.23945 4.50539C7.64693 4.08755 6.37384 3.00172 6.71762 2.71105C7.06139 2.41898 7.92363 3.85278 8.23945 4.50539Z" fill="#FF0000"/>
<path fill-rule="evenodd" clip-rule="evenodd" d="M7.86354 4.85336C7.23748 4.48863 5.87356 3.52019 6.19078 3.19877C6.50801 2.87735 7.49182 4.23149 7.86354 4.85336Z" fill="#FF0000"/>
<path fill-rule="evenodd" clip-rule="evenodd" d="M7.52117 5.23207C6.86577 4.92323 5.42079 4.07916 5.70867 3.7312C5.99654 3.38323 7.09495 4.64514 7.52117 5.23207Z" fill="#FF0000"/>
<path fill-rule="evenodd" clip-rule="evenodd" d="M7.21234 5.64018C6.53178 5.39003 5.01973 4.67593 5.27546 4.3042C5.5312 3.93248 6.73721 5.09237 7.21234 5.64018Z" fill="#FF0000"/>
<path fill-rule="evenodd" clip-rule="evenodd" d="M6.94121 6.07196C6.24108 5.8833 4.67173 5.30335 4.89533 4.91067C5.11752 4.51798 6.42135 5.56748 6.94121 6.07196Z" fill="#FF0000"/>
<path fill-rule="evenodd" clip-rule="evenodd" d="M6.70926 6.52757C5.99516 6.4004 4.38109 5.9616 4.56835 5.55074C4.75561 5.13989 6.14608 6.072 6.70926 6.52757Z" fill="#FF0000"/>
<path fill-rule="evenodd" clip-rule="evenodd" d="M6.51777 7.00126C5.79528 6.93697 4.14908 6.64211 4.3 6.21588C4.45093 5.79106 5.91686 6.59599 6.51777 7.00126Z" fill="#FF0000"/>
<path fill-rule="evenodd" clip-rule="evenodd" d="M4.08904 6.90345C4.17708 6.56247 5.12595 6.89646 5.84145 7.22766H4.78218C4.59072 7.22766 4.00659 7.22766 4.08904 6.90345Z" fill="#FF0000"/>
<path fill-rule="evenodd" clip-rule="evenodd" d="M12.5101 3.14848C12.7519 2.46512 13.1669 0.844066 12.717 0.804937C12.267 0.765808 12.3913 2.43438 12.5101 3.14848Z" fill="#FF0000"/>
<path fill-rule="evenodd" clip-rule="evenodd" d="M13.0174 3.21555C13.3179 2.55595 13.8726 0.978214 13.4283 0.898559C12.9839 0.818904 12.9615 2.49306 13.0174 3.21555Z" fill="#FF0000"/>
<path fill-rule="evenodd" clip-rule="evenodd" d="M13.5163 3.32737C13.874 2.69711 14.5658 1.17388 14.1298 1.0551C13.6938 0.937709 13.5247 2.60209 13.5163 3.32737Z" fill="#FF0000"/>
<path fill-rule="evenodd" clip-rule="evenodd" d="M14.004 3.48247C14.4162 2.88575 15.2379 1.4296 14.8145 1.27308C14.3911 1.11796 14.0752 2.76138 14.004 3.48247Z" fill="#FF0000"/>
<path fill-rule="evenodd" clip-rule="evenodd" d="M14.4749 3.67949C14.9375 3.12191 15.885 1.74261 15.4755 1.54976C15.0674 1.35831 14.6091 2.96679 14.4749 3.67949Z" fill="#FF0000"/>
<path fill-rule="evenodd" clip-rule="evenodd" d="M14.9277 3.91709C15.4378 3.40143 16.5013 2.11157 16.1114 1.88379C15.7215 1.656 15.1234 3.21976 14.9277 3.91709Z" fill="#FF0000"/>
<path fill-rule="evenodd" clip-rule="evenodd" d="M15.3568 4.1924C15.9101 3.72425 17.084 2.53082 16.7151 2.27089C16.3462 2.01096 15.6139 3.51463 15.3568 4.1924Z" fill="#FF0000"/>
<path fill-rule="evenodd" clip-rule="evenodd" d="M15.762 4.50539C16.3545 4.08755 17.6276 3.00172 17.2839 2.71105C16.9401 2.41898 16.0779 3.85278 15.762 4.50539Z" fill="#FF0000"/>
<path fill-rule="evenodd" clip-rule="evenodd" d="M16.1365 4.85336C16.7626 4.48863 18.1265 3.52019 17.8093 3.19877C17.4921 2.87735 16.5083 4.23149 16.1365 4.85336Z" fill="#FF0000"/>
<path fill-rule="evenodd" clip-rule="evenodd" d="M16.4789 5.23207C17.1343 4.92323 18.5793 4.07916 18.2914 3.7312C18.0035 3.38323 16.9051 4.64514 16.4789 5.23207Z" fill="#FF0000"/>
<path fill-rule="evenodd" clip-rule="evenodd" d="M16.7877 5.64018C17.4683 5.39003 18.9803 4.67593 18.7246 4.3042C18.4689 3.93248 17.2629 5.09237 16.7877 5.64018Z" fill="#FF0000"/>
<path fill-rule="evenodd" clip-rule="evenodd" d="M17.0588 6.07196C17.759 5.8833 19.3283 5.30335 19.1061 4.91067C18.8839 4.51798 17.5801 5.56748 17.0588 6.07196Z" fill="#FF0000"/>
<path fill-rule="evenodd" clip-rule="evenodd" d="M17.2922 6.52757C18.0063 6.4004 19.6204 5.9616 19.4331 5.55074C19.2459 5.13989 17.8554 6.072 17.2922 6.52757Z" fill="#FF0000"/>
<path fill-rule="evenodd" clip-rule="evenodd" d="M17.4836 7.00126C18.2061 6.93697 19.8523 6.64211 19.7014 6.21588C19.5505 5.79106 18.0846 6.59599 17.4836 7.00126Z" fill="#FF0000"/>
<path fill-rule="evenodd" clip-rule="evenodd" d="M19.911 6.90345C19.823 6.56247 18.8741 6.89646 18.1586 7.22766H19.2179C19.4094 7.22766 19.9935 7.22766 19.911 6.90345Z" fill="#FF0000"/>
</g>
</g>
<rect x="0.25" y="0.25" width="23.5" height="23.5" rx="11.75" stroke="#E5E3E1" stroke-width="0.5"/>
<defs>
<clipPath id="clip0_16335_6239">
<rect width="24" height="24" rx="12" fill="white"/>
</clipPath>
</defs>
</svg>
