<svg width="48" height="48" viewBox="0 0 48 48" fill="none" xmlns="http://www.w3.org/2000/svg">
<path d="M44.2295 6.20012H34.4395V4.37012C34.4395 3.82012 33.9895 3.37012 33.4395 3.37012C32.8895 3.37012 32.4395 3.82012 32.4395 4.37012V6.20012H24.9995V4.37012C24.9995 3.82012 24.5495 3.37012 23.9995 3.37012C23.4495 3.37012 22.9995 3.82012 22.9995 4.37012V6.20012H15.5595V4.37012C15.5595 3.82012 15.1095 3.37012 14.5595 3.37012C14.0095 3.37012 13.5595 3.82012 13.5595 4.37012V6.20012H3.76953C3.21953 6.20012 2.76953 6.65012 2.76953 7.20012V43.6201C2.76953 44.1701 3.21953 44.6201 3.76953 44.6201H44.2395C44.7895 44.6201 45.2395 44.1701 45.2395 43.6201V7.20012C45.2395 6.65012 44.7895 6.20012 44.2395 6.20012H44.2295ZM32.4395 8.20012V10.6201H24.9995V8.20012H32.4395ZM33.4395 15.0801C33.9895 15.0801 34.4395 14.6301 34.4395 14.0801V12.6201H38.9695V38.2101H9.02953V12.6201H13.5595V14.0801C13.5595 14.6301 14.0095 15.0801 14.5595 15.0801C15.1095 15.0801 15.5595 14.6301 15.5595 14.0801V12.6201H22.9995V14.0801C22.9995 14.6301 23.4495 15.0801 23.9995 15.0801C24.5495 15.0801 24.9995 14.6301 24.9995 14.0801V12.6201H32.4395V14.0801C32.4395 14.6301 32.8895 15.0801 33.4395 15.0801ZM22.9995 8.20012V10.6201H15.5595V8.20012H22.9995ZM43.2295 42.6201H4.76953V8.20012H13.5595V10.6201H8.02953C7.47953 10.6201 7.02953 11.0701 7.02953 11.6201V39.2101C7.02953 39.7601 7.47953 40.2101 8.02953 40.2101H39.9795C40.5295 40.2101 40.9795 39.7601 40.9795 39.2101V11.6201C40.9795 11.0701 40.5295 10.6201 39.9795 10.6201H34.4495V8.20012H43.2395V42.6201H43.2295Z" fill="#323232"/>
<path d="M32.06 21.3103C32.67 20.8403 32.79 19.9703 32.33 19.3503C31.87 18.7303 30.99 18.6203 30.37 19.0803L26.6 21.9403C26.49 22.0303 26.34 22.0503 26.2 22.0203L18.38 19.9203C17.97 19.8103 17.53 19.9003 17.19 20.1503L16.78 20.4603C16.53 20.6503 16.54 21.0203 16.79 21.2003L21.87 24.7703C22.13 24.9503 22.13 25.3203 21.88 25.5103L19.29 27.4803C19.24 27.5203 19.16 27.5403 19.1 27.5203L16.42 26.7603C16.21 26.7003 15.98 26.7403 15.81 26.8803C15.66 26.9903 15.48 27.1303 15.34 27.2403C15.21 27.3403 15.23 27.5303 15.36 27.6103C16.09 28.0403 18.04 29.2003 18.6 29.5403C18.7 29.6003 18.77 29.6903 18.8 29.8103C18.97 30.4503 19.57 32.6303 19.79 33.4503C19.83 33.6003 20.01 33.6603 20.14 33.5703C20.29 33.4603 20.47 33.3303 20.62 33.2103C20.79 33.0803 20.9 32.8703 20.9 32.6603V29.8803C20.89 29.8103 20.92 29.7503 20.97 29.7003L23.56 27.7303C23.81 27.5403 24.17 27.6503 24.27 27.9403L26.34 33.7903C26.44 34.0803 26.8 34.1903 27.05 34.0003L27.46 33.6903C27.8 33.4303 28 33.0303 28 32.6003L28.07 24.5003C28.07 24.3603 28.14 24.2203 28.25 24.1403L32.02 21.2803L32.06 21.3103Z" fill="#DF0000"/>
</svg>
