<svg width="48" height="48" viewBox="0 0 48 48" fill="none" xmlns="http://www.w3.org/2000/svg">
<path d="M36.5809 42.3703C36.1609 42.3703 35.7509 42.3103 35.3709 42.1803C34.2309 41.8103 33.5409 40.9703 33.1209 40.1803C30.3809 42.8703 27.4009 42.2103 27.2609 42.1703C26.7709 42.0503 26.4709 41.5703 26.5909 41.0803C26.7109 40.6003 27.1909 40.3003 27.6709 40.4103C27.8009 40.4403 30.4809 40.9703 32.7109 37.8803C32.9309 37.5803 33.3009 37.4503 33.6509 37.5303C34.0109 37.6203 34.2809 37.9103 34.3309 38.2703C34.3309 38.2803 34.6409 40.0503 35.9209 40.4603C36.8409 40.7503 39.0309 40.5703 43.4709 36.0903C43.8209 35.7303 44.3909 35.7303 44.7509 36.0903C45.1009 36.4403 45.1109 37.0103 44.7509 37.3703C41.4309 40.7203 38.7409 42.3703 36.5609 42.3703H36.5809Z" fill="#8DE2E0"/>
<path d="M37.2699 21.5705C25.7999 24.9805 17.1099 36.7705 13.6999 42.0205C13.1899 42.8105 14.0299 43.7905 14.8899 43.3905C20.5699 40.7405 33.4899 33.7305 38.4099 22.8805C38.7499 22.1405 38.0499 21.3405 37.2699 21.5705Z" fill="#DF0000"/>
<path d="M17.2091 7.63973C17.2091 5.33973 15.3391 3.46973 13.0391 3.46973C10.7391 3.46973 8.86914 5.33973 8.86914 7.63973C8.86914 9.93973 10.7391 11.8097 13.0391 11.8097C15.3391 11.8097 17.2091 9.93973 17.2091 7.63973ZM13.0391 9.80973C11.8391 9.80973 10.8691 8.83973 10.8691 7.63973C10.8691 6.43973 11.8391 5.46973 13.0391 5.46973C14.2391 5.46973 15.2091 6.43973 15.2091 7.63973C15.2091 8.83973 14.2391 9.80973 13.0391 9.80973Z" fill="#323232"/>
<path d="M15.3397 15.3299C16.1997 14.2499 19.5497 10.8599 25.9597 13.2799C26.4797 13.4699 27.0497 13.2199 27.2497 12.6999C27.4497 12.1799 27.1797 11.6099 26.6697 11.4099C17.8597 8.07988 13.6097 14.2899 13.4397 14.5499C13.4197 14.5899 13.4097 14.6299 13.3997 14.6699C13.3597 14.7499 13.3197 14.8199 13.3097 14.9099C13.2897 14.9999 13.3097 15.0899 13.3097 15.1699C13.3097 15.2099 13.3097 15.2499 13.3097 15.2899L16.8497 32.2399C16.9497 32.7099 17.3597 33.0399 17.8297 33.0399C17.8997 33.0399 17.9697 33.0399 18.0397 33.0199C18.5797 32.9099 18.9297 32.3799 18.8097 31.8399L15.3597 15.3199L15.3397 15.3299Z" fill="#323232"/>
<path d="M28.3094 23.2595C26.7594 18.6695 25.4694 18.3195 25.0394 18.1995C23.4494 17.7695 19.9994 19.4695 18.5894 20.2195C18.0994 20.4795 17.9194 21.0895 18.1794 21.5695C18.4394 22.0595 19.0394 22.2395 19.5294 21.9795C21.6294 20.8595 23.9494 19.9995 24.4894 20.1095C24.7894 20.2595 25.5794 21.4095 26.4094 23.8895C26.5494 24.3095 26.9394 24.5695 27.3594 24.5695C27.4694 24.5695 27.5694 24.5495 27.6794 24.5195C28.1994 24.3395 28.4794 23.7795 28.3094 23.2495V23.2595Z" fill="#323232"/>
<path d="M11.5896 16.8201C11.0696 16.6501 10.5096 16.9401 10.3396 17.4701C10.2896 17.6101 9.09965 21.0201 3.95965 20.6101C3.40965 20.5701 2.92965 20.9801 2.87965 21.5301C2.83965 22.0801 3.24965 22.5601 3.79965 22.6101C4.13965 22.6401 4.45965 22.6501 4.77965 22.6501C9.54965 22.6501 11.7496 19.7201 12.2496 18.0701C12.4096 17.5501 12.1196 16.9901 11.5896 16.8301V16.8201Z" fill="#323232"/>
</svg>
