<svg width="182" height="30" viewBox="0 0 182 30" fill="none" xmlns="http://www.w3.org/2000/svg">
<path d="M71.5755 7.84543C71.5755 9.3432 70.9425 10.4754 69.9351 11.0371L71.5131 13.5601H70.0777L68.7672 11.3937C68.5978 11.4294 68.4284 11.4472 68.2412 11.4472C66.262 11.4472 64.9069 10.0564 64.9069 7.84543V3.43235C64.9069 1.22135 66.2085 -0.169434 68.2412 -0.169434C70.2739 -0.169434 71.5755 1.22135 71.5755 3.43235V7.84543ZM66.0748 7.88109C66.0748 9.25404 66.8593 10.2704 68.2323 10.2704C69.6052 10.2704 70.3809 9.25404 70.3809 7.88109V3.39669C70.3809 2.02373 69.6052 1.00739 68.2323 1.00739C66.8593 1.00739 66.0748 2.02373 66.0748 3.39669V7.88109Z" fill="#323232"/>
<path d="M74.3571 11.2779L77.6022 0H78.788L82.0599 11.2779H80.8385L80.0985 8.68351H76.2382L75.516 11.2779H74.3571ZM76.5502 7.55126H79.8043L78.155 1.76523L76.5502 7.55126Z" fill="#323232"/>
<path d="M91.7241 11.2779H90.7523L86.3482 2.55869V11.2779H85.2516V0H86.3036L90.6275 8.58544V0H91.7241V11.2779Z" fill="#323232"/>
<path d="M94.8534 0H101.37V1.18574H98.6959V11.2779H97.5191V1.18574H94.8445V0H94.8534Z" fill="#323232"/>
<path d="M102.841 11.2779L106.087 0H107.272L110.544 11.2779H109.323L108.583 8.68351H104.723L104 11.2779H102.841ZM105.026 7.55126H108.28L106.63 1.76523L105.026 7.55126Z" fill="#323232"/>
<path d="M118.327 3.20947V2.93309C118.327 1.80085 117.605 0.927149 116.339 0.927149C115.073 0.927149 114.378 1.63146 114.378 2.62997C114.378 3.42343 114.868 3.9851 115.537 4.2793L117.204 5.0371C118.363 5.55419 119.656 6.24067 119.656 8.17529C119.656 10.1099 118.309 11.4561 116.348 11.4561C114.387 11.4561 113.032 10.2347 113.032 8.28227V8.0059H114.191V8.34468C114.191 9.49476 114.975 10.3328 116.339 10.3328C117.703 10.3328 118.497 9.47693 118.497 8.32685C118.497 7.10545 117.712 6.62403 116.767 6.21392L115.332 5.56311C114.191 5.06385 113.246 4.24364 113.246 2.72804C113.246 1.02522 114.485 -0.169434 116.33 -0.169434C118.176 -0.169434 119.468 1.05196 119.468 3.00441V3.20947H118.327Z" fill="#323232"/>
<path d="M66.2798 21.3968V30H65.1832V18.7222H66.2174L68.8742 24.5795L71.5131 18.7222H72.5473V30H71.4061V21.4146L69.1951 26.2734H68.4997L66.2798 21.3968Z" fill="#323232"/>
<path d="M83.0495 26.5676C83.0495 28.7786 81.6944 30.1694 79.7152 30.1694C77.736 30.1694 76.3809 28.7786 76.3809 26.5676V22.1545C76.3809 19.9435 77.6825 18.5527 79.7152 18.5527C81.7479 18.5527 83.0495 19.9435 83.0495 22.1545V26.5676ZM77.5488 26.6033C77.5488 27.9762 78.3333 28.9926 79.7063 28.9926C81.0792 28.9926 81.8549 27.9762 81.8549 26.6033V22.1189C81.8549 20.7459 81.0792 19.7296 79.7063 19.7296C78.3333 19.7296 77.5488 20.7459 77.5488 22.1189V26.6033Z" fill="#323232"/>
<path d="M93.3467 30H92.3749L87.9707 21.2809V30H86.8741V18.7222H87.9262L92.2501 27.3076V18.7222H93.3467V30Z" fill="#323232"/>
<path d="M98.6335 24.8201V28.8231H103.376V30.0088H97.4656V18.731H103.261V19.9167H98.6424V23.6611H102.877V24.829H98.6424L98.6335 24.8201Z" fill="#323232"/>
<path d="M107.174 18.7222L109.457 24.214L111.757 18.7222H112.943L110.009 25.4889V30H108.833V25.5067L105.899 18.7222H107.165H107.174Z" fill="#323232"/>
<path d="M53.736 -0.133789V30.1872" stroke="#323232" stroke-width="0.666612" stroke-miterlimit="10"/>
<path d="M131.148 -0.133789V30.1872" stroke="#323232" stroke-width="0.666612" stroke-miterlimit="10"/>
<path d="M149.709 29.9197V27.9048C149.709 27.147 149.228 26.6389 148.443 26.63C148.033 26.63 147.614 26.7548 147.311 27.2005C147.088 26.8439 146.74 26.63 146.25 26.63C145.911 26.63 145.573 26.728 145.314 27.1025V26.7102H144.619V29.9197H145.323V28.1366C145.323 27.575 145.635 27.2808 146.108 27.2808C146.58 27.2808 146.803 27.5839 146.803 28.1277V29.9108H147.507V28.1277C147.507 27.5661 147.828 27.2719 148.292 27.2719C148.755 27.2719 148.996 27.575 148.996 28.1188V29.9019H149.7L149.709 29.9197ZM160.149 26.7102H159.008V25.7384H158.304V26.7102H157.653V27.3521H158.304V28.8142C158.304 29.5631 158.589 29.9999 159.418 29.9999C159.721 29.9999 160.069 29.9019 160.292 29.7503L160.087 29.153C159.882 29.2778 159.65 29.3313 159.472 29.3313C159.124 29.3313 159.008 29.1173 159.008 28.7964V27.3432H160.149V26.7013V26.7102ZM166.105 26.63C165.703 26.63 165.436 26.8172 165.258 27.1025V26.7102H164.562V29.9197H165.258V28.1188C165.258 27.5839 165.489 27.2897 165.944 27.2897C166.087 27.2897 166.229 27.3075 166.381 27.3699L166.595 26.7102C166.443 26.6478 166.238 26.621 166.096 26.621L166.105 26.63ZM157.1 26.9687C156.761 26.7459 156.298 26.63 155.79 26.63C154.978 26.63 154.452 27.0222 154.452 27.6552C154.452 28.1812 154.844 28.5022 155.558 28.6002L155.888 28.6448C156.271 28.6983 156.449 28.7964 156.449 28.9836C156.449 29.2332 156.191 29.3759 155.718 29.3759C155.246 29.3759 154.889 29.2243 154.648 29.0371L154.318 29.5809C154.702 29.8662 155.183 29.9999 155.709 29.9999C156.636 29.9999 157.171 29.5631 157.171 28.9479C157.171 28.3863 156.752 28.0921 156.048 27.9851L155.718 27.9405C155.415 27.8959 155.174 27.8424 155.174 27.6285C155.174 27.3967 155.406 27.254 155.79 27.254C156.2 27.254 156.592 27.4056 156.788 27.5304L157.091 26.9687H157.1ZM175.813 26.63C175.412 26.63 175.145 26.8172 174.966 27.1025V26.7102H174.271V29.9197H174.966V28.1188C174.966 27.5839 175.198 27.2897 175.653 27.2897C175.795 27.2897 175.938 27.3075 176.09 27.3699L176.304 26.7102C176.152 26.6478 175.947 26.621 175.804 26.621L175.813 26.63ZM166.809 28.315C166.809 29.2867 167.486 29.9999 168.521 29.9999C169.002 29.9999 169.323 29.893 169.68 29.6166L169.341 29.0549C169.082 29.2421 168.806 29.3402 168.503 29.3402C167.941 29.3402 167.54 28.9301 167.54 28.315C167.54 27.6998 167.95 27.2897 168.503 27.2897C168.806 27.2897 169.082 27.3878 169.341 27.575L169.68 27.0133C169.332 26.7369 169.011 26.63 168.521 26.63C167.486 26.63 166.809 27.3432 166.809 28.315ZM173.353 28.315V26.7102H172.657V27.1025C172.434 26.8172 172.096 26.63 171.641 26.63C170.74 26.63 170.036 27.3343 170.036 28.315C170.036 29.2956 170.74 29.9999 171.641 29.9999C172.096 29.9999 172.434 29.8216 172.657 29.5274V29.9197H173.353V28.315ZM170.749 28.315C170.749 27.7533 171.115 27.2897 171.721 27.2897C172.327 27.2897 172.684 27.7355 172.684 28.315C172.684 28.8944 172.292 29.3402 171.721 29.3402C171.151 29.3402 170.749 28.8766 170.749 28.315ZM162.324 26.63C161.388 26.63 160.729 27.3164 160.729 28.315C160.729 29.3135 161.415 29.9999 162.378 29.9999C162.859 29.9999 163.305 29.8751 163.697 29.5542L163.359 29.0371C163.091 29.2511 162.743 29.3759 162.423 29.3759C161.977 29.3759 161.567 29.1708 161.46 28.5913H163.84C163.84 28.5022 163.858 28.413 163.858 28.3239C163.858 27.3254 163.234 26.6389 162.333 26.6389L162.324 26.63ZM162.307 27.254C162.752 27.254 163.047 27.5393 163.118 28.0297H161.451C161.522 27.5661 161.807 27.254 162.307 27.254ZM179.834 28.315V25.4175H179.139V27.0936C178.916 26.8083 178.577 26.621 178.122 26.621C177.222 26.621 176.518 27.3254 176.518 28.306C176.518 29.2867 177.222 29.991 178.122 29.991C178.577 29.991 178.916 29.8127 179.139 29.5185V29.9108H179.834V28.306V28.315ZM177.231 28.315C177.231 27.7533 177.596 27.2897 178.203 27.2897C178.809 27.2897 179.165 27.7355 179.165 28.315C179.165 28.8944 178.773 29.3402 178.203 29.3402C177.632 29.3402 177.231 28.8766 177.231 28.315ZM153.65 28.315V26.7102H152.954V27.1025C152.732 26.8172 152.393 26.63 151.938 26.63C151.038 26.63 150.333 27.3343 150.333 28.315C150.333 29.2956 151.038 29.9999 151.938 29.9999C152.393 29.9999 152.732 29.8216 152.954 29.5274V29.9197H153.65V28.315ZM151.047 28.315C151.047 27.7533 151.412 27.2897 152.018 27.2897C152.625 27.2897 152.981 27.7355 152.981 28.315C152.981 28.8944 152.589 29.3402 152.018 29.3402C151.448 29.3402 151.047 28.8766 151.047 28.315ZM181.002 29.4561C181.047 29.4561 181.091 29.4561 181.127 29.4829C181.162 29.5007 181.198 29.5185 181.234 29.5542C181.261 29.5809 181.287 29.6166 181.305 29.6522C181.323 29.6879 181.332 29.7325 181.332 29.7771C181.332 29.8216 181.332 29.8662 181.305 29.9019C181.287 29.9375 181.261 29.9732 181.234 29.9999C181.207 30.0267 181.171 30.0534 181.127 30.0713C181.091 30.0891 181.047 30.098 181.002 30.098C180.957 30.098 180.913 30.098 180.877 30.0713C180.842 30.0534 180.806 30.0356 180.77 29.9999C180.743 29.9732 180.717 29.9375 180.699 29.9019C180.681 29.8662 180.672 29.8216 180.672 29.7771C180.672 29.7325 180.672 29.6879 180.699 29.6522C180.717 29.6166 180.735 29.5809 180.77 29.5542C180.797 29.5274 180.833 29.5007 180.877 29.4829C180.913 29.465 180.957 29.4561 181.002 29.4561ZM181.002 30.0267C181.002 30.0267 181.064 30.0267 181.1 30.0089C181.127 29.9999 181.154 29.9821 181.18 29.9554C181.207 29.9286 181.216 29.9108 181.234 29.8751C181.243 29.8484 181.252 29.8127 181.252 29.7771C181.252 29.7414 181.252 29.7147 181.234 29.679C181.225 29.6523 181.207 29.6255 181.18 29.5988C181.154 29.572 181.136 29.5631 181.1 29.5453C181.064 29.5274 181.038 29.5274 181.002 29.5274C180.966 29.5274 180.931 29.5274 180.904 29.5453C180.877 29.5542 180.85 29.572 180.824 29.5988C180.797 29.6255 180.788 29.6433 180.77 29.679C180.761 29.7057 180.752 29.7414 180.752 29.7771C180.752 29.8127 180.752 29.8395 180.77 29.8751C180.779 29.9019 180.797 29.9286 180.824 29.9554C180.85 29.9821 180.868 29.9999 180.904 30.0089C180.931 30.0178 180.966 30.0267 181.002 30.0267ZM181.02 29.6255C181.02 29.6255 181.091 29.6255 181.109 29.6522C181.127 29.6701 181.136 29.6879 181.136 29.7236C181.136 29.7503 181.136 29.7681 181.109 29.786C181.091 29.8038 181.073 29.8127 181.038 29.8127L181.136 29.9286H181.055L180.966 29.8216H180.94V29.9286H180.877V29.6344H181.011L181.02 29.6255ZM180.94 29.679V29.7592H181.011C181.011 29.7592 181.038 29.7592 181.047 29.7503C181.056 29.7503 181.064 29.7325 181.064 29.7236C181.064 29.7147 181.064 29.6968 181.047 29.6968C181.038 29.6968 181.02 29.6879 181.011 29.6879H180.94V29.679Z" fill="black"/>
<path d="M167.451 2.24658H156.868V21.254H167.451V2.24658Z" fill="#FF5F00"/>
<path d="M157.537 11.7503C157.537 7.88996 159.347 4.45757 162.155 2.24657C160.096 0.623986 157.501 -0.338867 154.684 -0.338867C148.006 -0.338867 142.595 5.07272 142.595 11.7503C142.595 18.4279 148.006 23.8394 154.684 23.8394C157.501 23.8394 160.096 22.8766 162.155 21.254C159.347 19.043 157.537 15.6017 157.537 11.7503Z" fill="#EB001B"/>
<path d="M181.715 11.7503C181.715 18.4279 176.304 23.8394 169.626 23.8394C166.809 23.8394 164.214 22.8766 162.155 21.254C164.963 19.043 166.773 15.6017 166.773 11.7503C166.773 7.89888 164.963 4.45757 162.155 2.24657C164.214 0.623986 166.809 -0.338867 169.626 -0.338867C176.304 -0.338867 181.715 5.07272 181.715 11.7503ZM180.565 19.2391V18.8469H180.726V18.7666H180.324V18.8469H180.485V19.2391H180.574H180.565ZM181.341 19.2391V18.7666H181.216L181.073 19.0876L180.931 18.7666H180.806V19.2391H180.895V18.8825L181.029 19.1856H181.118L181.252 18.8825V19.2391H181.341Z" fill="#F79E1B"/>
<path d="M11.4507 30.0445H42.253L17.5666 5.25099C14.2768 1.96124 9.81917 0.00878906 5.16538 0.00878906H0.00341797L0.386776 1.01622L2.09851 5.50062L11.4507 30.0355V30.0445Z" fill="url(#paint0_linear_15605_2485)"/>
<path d="M2.09858 5.50943C5.46856 11.2687 14.3215 11.875 15.2843 20.8259C15.32 21.1914 15.6053 21.4857 15.9708 21.5481C21.0703 22.3415 26.0362 24.4455 30.3512 27.9047C30.3512 27.9047 30.4136 27.9403 30.4493 27.9403C30.4849 27.9403 30.5295 27.9225 30.5562 27.8958C30.6186 27.8334 30.6186 27.7442 30.5562 27.6818C27.5696 24.5436 23.9143 22.0295 19.8133 20.3802L18.5651 19.8809C17.9232 19.6224 17.4775 18.9894 17.4953 18.2583C17.5666 15.5837 23.8965 16.1276 24.5295 14.8438L24.6365 14.6209C23.3348 13.5065 21.7836 12.6684 20.0807 12.2048C20.0629 12.2672 20.0273 12.5793 20.375 13.1498C20.7494 13.765 19.9649 14.7368 18.8148 13.6848L18.7167 13.5956C10.1848 5.75014 3.77466 9.81552 0.386841 1.01611L2.09858 5.50051V5.50943Z" fill="white"/>
<path d="M22.6572 14.4695C22.6572 14.4695 21.2575 14.5408 20.3927 13.1411C20.6513 13.5601 20.366 14.1396 19.7954 14.1485V16.2793C20.7137 16.0118 21.7657 15.8514 22.6483 15.6641V14.4784L22.6572 14.4695Z" fill="url(#paint1_linear_15605_2485)"/>
<path d="M17.0316 21.7356C21.7567 22.6449 26.3392 24.6865 30.3511 27.905C21.4001 20.2556 17.3169 21.6375 17.0316 21.7356Z" fill="url(#paint2_linear_15605_2485)"/>
<path d="M3.89947 5.91062C2.50868 4.92102 1.33186 3.46782 0.386841 1.01611L2.09858 5.50051C5.46856 11.2598 14.3215 11.866 15.2843 20.817C14.3125 9.38759 9.29323 11.0993 3.89947 5.9017V5.91062Z" fill="url(#paint3_linear_15605_2485)"/>
<defs>
<linearGradient id="paint0_linear_15605_2485" x1="26.7761" y1="29.9286" x2="6.2263" y2="-0.0714472" gradientUnits="userSpaceOnUse">
<stop stop-color="#BE0000"/>
<stop offset="0.39" stop-color="#DD0000"/>
<stop offset="0.77" stop-color="#F60000"/>
<stop offset="1" stop-color="#FF0000"/>
</linearGradient>
<linearGradient id="paint1_linear_15605_2485" x1="21.097" y1="16.3863" x2="21.3734" y2="13.2214" gradientUnits="userSpaceOnUse">
<stop offset="0.65" stop-color="white" stop-opacity="0"/>
<stop offset="0.69" stop-color="#ECECEC" stop-opacity="0.0529"/>
<stop offset="0.76" stop-color="#D6D6D6" stop-opacity="0.25"/>
<stop offset="0.81" stop-color="#C5C5C5" stop-opacity="0.5184"/>
<stop offset="0.87" stop-color="#B9B9B9" stop-opacity="0.7569"/>
<stop offset="0.91" stop-color="#B1B1B1" stop-opacity="0.9409"/>
<stop offset="0.95" stop-color="#AFAFAF"/>
</linearGradient>
<linearGradient id="paint2_linear_15605_2485" x1="17.0316" y1="24.74" x2="30.3511" y2="24.74" gradientUnits="userSpaceOnUse">
<stop stop-color="white" stop-opacity="0"/>
<stop offset="0.07" stop-color="#F3F3F3" stop-opacity="0.0225"/>
<stop offset="0.21" stop-color="#DEDEDE" stop-opacity="0.1681"/>
<stop offset="0.35" stop-color="#CDCDCD" stop-opacity="0.3844"/>
<stop offset="0.49" stop-color="#C0C0C0" stop-opacity="0.6241"/>
<stop offset="0.63" stop-color="#B6B6B6" stop-opacity="0.8281"/>
<stop offset="0.77" stop-color="#B0B0B0" stop-opacity="0.9604"/>
<stop offset="0.9" stop-color="#AFAFAF"/>
</linearGradient>
<linearGradient id="paint3_linear_15605_2485" x1="0.386841" y1="10.921" x2="15.2843" y2="10.921" gradientUnits="userSpaceOnUse">
<stop offset="0.25" stop-color="white" stop-opacity="0"/>
<stop offset="0.36" stop-color="#F6F6F6" stop-opacity="0.0121"/>
<stop offset="0.58" stop-color="#E0E0E0" stop-opacity="0.1444"/>
<stop offset="0.88" stop-color="#BDBDBD" stop-opacity="0.6724"/>
<stop offset="1" stop-color="#AFAFAF"/>
</linearGradient>
</defs>
</svg>
