<svg width="48" height="48" viewBox="0 0 48 48" fill="none" xmlns="http://www.w3.org/2000/svg">
<path d="M14.6596 2.87988H33.3396C34.7696 2.87988 35.9396 4.03988 35.9396 5.47988V9.67988H12.0596V5.47988C12.0596 4.04988 13.2196 2.87988 14.6596 2.87988Z" fill="#DF0000"/>
<path d="M28.5892 41.5298H19.4092C18.8592 41.5298 18.4092 41.0798 18.4092 40.5298C18.4092 39.9798 18.8592 39.5298 19.4092 39.5298H28.5892C29.1392 39.5298 29.5892 39.9798 29.5892 40.5298C29.5892 41.0798 29.1392 41.5298 28.5892 41.5298Z" fill="#323232"/>
<path d="M33.1896 46.1299H14.8096C12.7396 46.1299 11.0596 44.4499 11.0596 42.3799V5.62988C11.0596 3.55988 12.7396 1.87988 14.8096 1.87988H33.1796C35.2496 1.87988 36.9296 3.55988 36.9296 5.62988V42.3699C36.9296 44.4399 35.2496 46.1199 33.1796 46.1199L33.1896 46.1299ZM14.8096 3.87988C13.8396 3.87988 13.0596 4.66988 13.0596 5.62988V42.3699C13.0596 43.3399 13.8496 44.1199 14.8096 44.1199H33.1796C34.1496 44.1199 34.9296 43.3299 34.9296 42.3699V5.62988C34.9296 4.65988 34.1396 3.87988 33.1796 3.87988H14.8096Z" fill="#323232"/>
<path d="M20.9802 12.2998H14.9502V18.3298H20.9802V12.2998ZM20.1202 17.4698H15.8102V13.1598H20.1202V17.4698Z" fill="#323232"/>
<path d="M27.0195 12.2998V18.3298H33.0495V12.2998H27.0195ZM32.1795 17.4698H27.8695V13.1598H32.1795V17.4698Z" fill="#323232"/>
<path d="M19.2597 14.02H16.6797V16.6H19.2597V14.02Z" fill="#323232"/>
<path d="M31.3202 14.02H28.7402V16.6H31.3202V14.02Z" fill="#323232"/>
<path d="M33.0398 22.73H31.5098V24.26H33.0398V22.73Z" fill="#323232"/>
<path d="M14.9502 30.3899H20.9802V24.3599H14.9502V30.3899ZM15.8202 25.2199H20.1302V29.5299H15.8202V25.2199Z" fill="#323232"/>
<path d="M19.2597 26.0801H16.6797V28.6601H19.2597V26.0801Z" fill="#323232"/>
<path d="M25.3803 24.26H28.4503V22.73H23.8503V24.26H22.3203V25.79H25.3803V24.26Z" fill="#323232"/>
<path d="M29.9802 25.7898V27.3298H31.5102H33.0502V25.7898H31.5102V24.2598H28.4502V25.7898H29.9802Z" fill="#323232"/>
<path d="M28.4399 25.79H25.3799V27.32H28.4399V25.79Z" fill="#323232"/>
<path d="M25.1 12.3999H22.04V13.9299H25.1V12.3999Z" fill="#323232"/>
<path d="M28.4502 28.8601V30.3901H29.9802V28.8601V27.3301H28.4502V28.8601Z" fill="#323232"/>
<path d="M25.3803 27.3301H22.3203V28.8601H25.3803V27.3301Z" fill="#323232"/>
<path d="M26.9099 28.8599H25.3799V30.3899H26.9099V28.8599Z" fill="#323232"/>
<path d="M16.5798 22.1099H15.0498V23.6399H16.5798V22.1099Z" fill="#323232"/>
<path d="M28.4499 21.3501V22.8801H29.9799H31.5099V21.3501H29.9799V19.8101H26.9199V21.3501H28.4499Z" fill="#323232"/>
<path d="M26.2898 15.1602H24.7598V16.6902H26.2898V15.1602Z" fill="#323232"/>
<path d="M23.2302 18.25V19.78H24.7702H26.3002V18.25H24.7702V16.71H21.7002V18.25H23.2302Z" fill="#323232"/>
<path d="M26.9096 21.3501H23.8496V22.8801H26.9096V21.3501Z" fill="#323232"/>
<path d="M21.1299 21.7802V23.3102H22.6599V21.7802V20.2402H21.1299V21.7802Z" fill="#323232"/>
<path d="M18.06 19.6201H15V21.1501H18.06V19.6201Z" fill="#323232"/>
<path d="M19.5896 21.1499H18.0596V22.6799H19.5896V21.1499Z" fill="#323232"/>
</svg>
