<svg width="48" height="48" viewBox="0 0 48 48" fill="none" xmlns="http://www.w3.org/2000/svg">
<path fill-rule="evenodd" clip-rule="evenodd" d="M25.7491 43.9799C25.5891 44.7999 24.9791 45.2499 23.9991 45.2499C23.0191 45.2499 22.4091 44.8099 22.2491 43.9799C18.6191 43.6399 18.6191 42.1099 18.6191 39.5699C18.6191 39.0699 19.0791 38.6699 19.6491 38.6699H28.3591C28.9291 38.6699 29.3891 39.0699 29.3891 39.5699C29.3891 42.1099 29.3891 43.6499 25.7591 43.9799H25.7491Z" fill="#DF0000"/>
<path d="M30.5295 14.47C28.2495 12.03 24.8495 10.93 22.4395 11.92C22.2795 11.98 22.1895 12.14 22.1895 12.31C22.1895 12.48 22.3095 12.62 22.4695 12.67C27.7595 14.29 30.5895 17.98 31.1195 23.94C31.1395 24.12 31.2695 24.26 31.4395 24.3C31.4595 24.3 31.4895 24.3 31.5095 24.3C31.6595 24.3 31.7995 24.22 31.8695 24.08C34.0595 19.56 31.9295 15.98 30.5195 14.47H30.5295Z" fill="#8DE2E0"/>
<path d="M24 6.62C23.45 6.62 23 6.17 23 5.62V2.75C23 2.2 23.45 1.75 24 1.75C24.55 1.75 25 2.2 25 2.75V5.62C25 6.17 24.55 6.62 24 6.62Z" fill="#323232"/>
<path d="M13.5403 10.9502C13.2803 10.9502 13.0303 10.8502 12.8303 10.6602L10.8003 8.63023C10.4103 8.24023 10.4103 7.61023 10.8003 7.22023C11.1903 6.83023 11.8203 6.83023 12.2103 7.22023L14.2403 9.25023C14.6303 9.64023 14.6303 10.2702 14.2403 10.6602C14.0403 10.8602 13.7903 10.9502 13.5303 10.9502H13.5403Z" fill="#323232"/>
<path d="M9.20984 21.4102H6.33984C5.78984 21.4102 5.33984 20.9602 5.33984 20.4102C5.33984 19.8602 5.78984 19.4102 6.33984 19.4102H9.20984C9.75984 19.4102 10.2098 19.8602 10.2098 20.4102C10.2098 20.9602 9.75984 21.4102 9.20984 21.4102Z" fill="#323232"/>
<path d="M11.5201 33.8902C11.2601 33.8902 11.0101 33.7902 10.8101 33.6002C10.4201 33.2102 10.4201 32.5802 10.8101 32.1902L12.8401 30.1602C13.2301 29.7702 13.8601 29.7702 14.2501 30.1602C14.6401 30.5502 14.6401 31.1802 14.2501 31.5702L12.2201 33.6002C12.0201 33.8002 11.7701 33.8902 11.5101 33.8902H11.5201Z" fill="#323232"/>
<path d="M19.7505 36.97C19.6905 36.97 19.6305 36.97 19.5705 36.95C19.0305 36.85 18.6605 36.33 18.7605 35.79C18.7805 35.68 19.1905 32.88 16.2305 30.43C16.2005 30.4 16.1705 30.37 16.1405 30.34C13.0705 27.91 11.3105 24.3 11.3105 20.4C11.3105 13.41 17.0005 7.70996 24.0005 7.70996C31.0005 7.70996 36.6905 13.4 36.6905 20.4C36.6905 24.3 34.9305 27.92 31.8605 30.35C31.8305 30.38 31.8005 30.41 31.7705 30.43C28.8005 32.88 29.2205 35.68 29.2405 35.79C29.3305 36.33 28.9605 36.85 28.4205 36.94C27.8805 37.03 27.3705 36.68 27.2705 36.14C27.2405 35.98 26.6105 32.2 30.3605 29C30.4005 28.95 30.4505 28.91 30.5005 28.87C33.1605 26.82 34.6905 23.74 34.6905 20.4C34.6905 14.51 29.9005 9.70996 24.0005 9.70996C18.1005 9.70996 13.3105 14.5 13.3105 20.4C13.3105 23.73 14.8405 26.82 17.5005 28.87C17.5505 28.91 17.6005 28.96 17.6505 29.01C21.4005 32.21 20.7705 35.98 20.7405 36.15C20.6505 36.63 20.2305 36.97 19.7605 36.97H19.7505Z" fill="#323232"/>
<path d="M34.4595 10.9502C34.1995 10.9502 33.9495 10.8502 33.7495 10.6602C33.3595 10.2702 33.3595 9.64023 33.7495 9.25023L35.7795 7.22023C36.1695 6.83023 36.7995 6.83023 37.1895 7.22023C37.5795 7.61023 37.5795 8.24023 37.1895 8.63023L35.1595 10.6602C34.9595 10.8602 34.7095 10.9502 34.4495 10.9502H34.4595Z" fill="#323232"/>
<path d="M41.6591 21.4102H38.7891C38.2391 21.4102 37.7891 20.9602 37.7891 20.4102C37.7891 19.8602 38.2391 19.4102 38.7891 19.4102H41.6591C42.2091 19.4102 42.6591 19.8602 42.6591 20.4102C42.6591 20.9602 42.2091 21.4102 41.6591 21.4102Z" fill="#323232"/>
<path d="M36.4798 33.8902C36.2198 33.8902 35.9698 33.7902 35.7698 33.6002L33.7398 31.5702C33.3498 31.1802 33.3498 30.5502 33.7398 30.1602C34.1298 29.7702 34.7598 29.7702 35.1498 30.1602L37.1798 32.1902C37.5698 32.5802 37.5698 33.2102 37.1798 33.6002C36.9798 33.8002 36.7298 33.8902 36.4698 33.8902H36.4798Z" fill="#323232"/>
</svg>
