<svg width="24" height="24" viewBox="0 0 24 24" fill="none" xmlns="http://www.w3.org/2000/svg">
<g clip-path="url(#clip0_15944_766)">
<path d="M6 20C5.45 20 4.97917 19.8042 4.5875 19.4125C4.19583 19.0208 4 18.55 4 18V8C4 7.45 4.19583 6.97917 4.5875 6.5875C4.97917 6.19583 5.45 6 6 6H11V8H6V18H16V13H18V18C18 18.55 17.8042 19.0208 17.4125 19.4125C17.0208 19.8042 16.55 20 16 20H6ZM11.7 13.7L10.3 12.3L16.6 6H13V4H20V11H18V7.4L11.7 13.7Z" fill="#DF0000"/>
</g>
<defs>
<clipPath id="clip0_15944_766">
<rect width="24" height="24" fill="white"/>
</clipPath>
</defs>
</svg>
