<svg width="48" height="48" viewBox="0 0 48 48" fill="none" xmlns="http://www.w3.org/2000/svg">
<path d="M37.9802 16.9398H35.0902V13.9098C35.0902 7.79982 30.1102 2.81982 23.9902 2.81982C17.8702 2.81982 12.9002 7.78982 12.9002 13.9098V16.9398H10.0102C7.66023 16.9398 5.74023 18.8498 5.74023 21.2098V40.9098C5.74023 43.2598 7.65023 45.1798 10.0102 45.1798H37.9802C40.3302 45.1798 42.2502 43.2698 42.2502 40.9098V21.2098C42.2502 18.8598 40.3402 16.9398 37.9802 16.9398ZM14.9102 13.9098C14.9102 8.89982 18.9902 4.81982 24.0002 4.81982C29.0102 4.81982 33.1002 8.89982 33.1002 13.9098V16.9398H14.9102V13.9098ZM40.2502 40.9098C40.2502 42.1598 39.2302 43.1798 37.9802 43.1798H10.0202C8.77024 43.1798 7.75023 42.1598 7.75023 40.9098V21.2098C7.75023 19.9598 8.77024 18.9398 10.0202 18.9398H13.9102H34.0902H37.9802C39.2302 18.9398 40.2502 19.9598 40.2502 21.2098V40.9098Z" fill="#323232"/>
<path d="M24 35.5701C23.17 35.5701 22.5 34.9001 22.5 34.0701V27.8301C22.5 27.0001 23.17 26.3301 24 26.3301C24.83 26.3301 25.5 27.0001 25.5 27.8301V34.0701C25.5 34.9001 24.83 35.5701 24 35.5701Z" fill="#DF0000"/>
</svg>
