<svg width="48" height="48" viewBox="0 0 48 48" fill="none" xmlns="http://www.w3.org/2000/svg">
<path d="M7.73 6.95996H37.25C38.89 6.95996 40.23 8.28996 40.23 9.93996V14.63H4.75V9.93996C4.75 8.29996 6.08 6.95996 7.73 6.95996Z" fill="#8DE2E0"/>
<path d="M36.8802 5.82984H34.7502V4.83984C34.7502 4.28984 34.3002 3.83984 33.7502 3.83984C33.2002 3.83984 32.7502 4.28984 32.7502 4.83984V5.82984H12.9302V4.83984C12.9302 4.28984 12.4802 3.83984 11.9302 3.83984C11.3802 3.83984 10.9302 4.28984 10.9302 4.83984V5.82984H8.16023C5.72023 5.82984 3.74023 7.80984 3.74023 10.2498V38.1798C3.74023 40.6198 5.72023 42.5998 8.16023 42.5998H19.1702C19.7202 42.5998 20.1702 42.1498 20.1702 41.5998C20.1702 41.0498 19.7202 40.5998 19.1702 40.5998H8.16023C6.83023 40.5998 5.74023 39.5198 5.74023 38.1798V10.2398C5.74023 8.90984 6.82023 7.81984 8.16023 7.81984H36.8702C38.2002 7.81984 39.2902 8.89984 39.2902 10.2398V17.8598C39.2902 18.4098 39.7402 18.8598 40.2902 18.8598C40.8402 18.8598 41.2902 18.4098 41.2902 17.8598V10.2398C41.2902 7.79984 39.3102 5.81984 36.8702 5.81984L36.8802 5.82984Z" fill="#323232"/>
<path d="M28.2306 11.8896H16.8906C16.3406 11.8896 15.8906 11.4396 15.8906 10.8896C15.8906 10.3396 16.3406 9.88965 16.8906 9.88965H28.2306C28.7806 9.88965 29.2306 10.3396 29.2306 10.8896C29.2306 11.4396 28.7806 11.8896 28.2306 11.8896Z" fill="#323232"/>
<path d="M31.2195 44.1703C24.0295 44.1703 18.1895 38.3204 18.1895 31.1404C18.1895 23.9604 24.0395 18.1104 31.2195 18.1104C38.3995 18.1104 44.2495 23.9604 44.2495 31.1404C44.2495 38.3204 38.3995 44.1703 31.2195 44.1703ZM31.2195 20.1004C25.1395 20.1004 20.1895 25.0504 20.1895 31.1304C20.1895 37.2104 25.1395 42.1604 31.2195 42.1604C37.2995 42.1604 42.2495 37.2104 42.2495 31.1304C42.2495 25.0504 37.2995 20.1004 31.2195 20.1004Z" fill="#323232"/>
<path d="M32.6304 31.1296L36.8104 26.9496C37.2004 26.5596 37.2004 25.9296 36.8104 25.5396C36.4204 25.1496 35.7904 25.1496 35.4004 25.5396L31.2204 29.7196L27.0404 25.5396C26.6504 25.1496 26.0204 25.1496 25.6304 25.5396C25.2404 25.9296 25.2404 26.5596 25.6304 26.9496L29.8104 31.1296L25.6304 35.3096C25.2404 35.6996 25.2404 36.3296 25.6304 36.7196C25.8204 36.9196 26.0804 37.0096 26.3404 37.0096C26.6004 37.0096 26.8504 36.9096 27.0504 36.7196L31.2304 32.5396L35.4104 36.7196C35.6104 36.9196 35.8604 37.0096 36.1204 37.0096C36.3804 37.0096 36.6304 36.9096 36.8304 36.7196C37.2204 36.3296 37.2204 35.6996 36.8304 35.3096L32.6504 31.1296H32.6304Z" fill="#DF0000"/>
</svg>
