<svg width="24" height="24" viewBox="0 0 24 24" fill="none" xmlns="http://www.w3.org/2000/svg">
<path fill-rule="evenodd" clip-rule="evenodd" d="M7.5 3C4.52194 2.99895 2.08011 5.34633 2.00036 8.29893L2 8.44444C2.00108 9.00182 2.08802 9.55379 2.25776 10.0831C3.15421 13.3943 5.73773 16.1061 11.3617 20.7698C11.7303 21.0754 12.2638 21.0769 12.6341 20.7733C17.5103 16.775 20.7887 13.2528 21.7193 10.0897C21.7925 9.86239 21.8542 9.60651 21.8968 9.34719L21.91 9.18519V9.17565C21.9326 9.02701 21.9489 8.87753 21.9591 8.7276C21.986 8.63648 22 8.54119 22 8.44444C22 5.43476 19.5348 3 16.5 3C14.7773 3 13.0938 3.79533 12.0054 5.0426C10.9208 3.78889 9.23653 3 7.5 3ZM19.9703 8.44872C19.9662 8.61007 19.9507 8.77095 19.9239 8.93019L19.91 9.0963C19.8844 9.23476 19.8502 9.3696 19.8078 9.50203C19.0642 12.0283 16.2069 15.1799 12.0021 18.6998C7.18474 14.6604 4.89747 12.1808 4.17517 9.51616C4.05538 9.13917 4.00068 8.79189 4 8.4425L4 8.32593C4.04998 6.48914 5.59973 4.99933 7.49965 5C9.06847 5 10.5854 5.98711 11.0592 7.302C11.3759 8.18072 12.6174 8.18412 12.9389 7.30716C13.4169 6.00323 14.9477 5 16.5 5C18.3704 5 19.8939 6.44232 19.9947 8.25321C19.9803 8.31697 19.972 8.38243 19.9703 8.44872Z" fill="#323232"/>
</svg>
