<svg width="48" height="48" viewBox="0 0 48 48" fill="none" xmlns="http://www.w3.org/2000/svg">
<path fill-rule="evenodd" clip-rule="evenodd" d="M32.3683 31.95C32.3683 31.95 32.3983 31.97 32.4083 31.97C32.4383 31.97 32.4483 31.97 32.4783 31.94C32.5083 31.91 32.5083 31.85 32.4783 31.82C30.7883 29.97 28.7183 28.48 26.4083 27.52L25.6983 27.22C25.3283 27.06 25.0883 26.69 25.0883 26.26C25.1283 24.68 28.6983 25 29.0683 24.25L29.1283 24.12C28.3883 23.45 27.5283 22.97 26.5583 22.68C26.5483 22.72 26.5183 22.9 26.7183 23.24C26.9283 23.59 26.4883 24.17 25.8383 23.55L25.7783 23.5C21.0383 18.97 18.8583 21.96 15.6383 16.69C15.6083 16.65 15.5683 16.63 15.5283 16.66C15.4883 16.69 15.4683 16.73 15.4883 16.78C18.0283 23.16 23.2183 21.81 23.8283 27.76C23.8583 27.98 24.0183 28.16 24.2283 28.19C27.1083 28.66 29.9183 29.91 32.3583 31.95H32.3683Z" fill="#DF0000"/>
<path d="M28.5902 41.5303H19.4102C18.8602 41.5303 18.4102 41.0803 18.4102 40.5303C18.4102 39.9803 18.8602 39.5303 19.4102 39.5303H28.5902C29.1402 39.5303 29.5902 39.9803 29.5902 40.5303C29.5902 41.0803 29.1402 41.5303 28.5902 41.5303Z" fill="#323232"/>
<path d="M33.1886 46.1199H14.8186C12.7486 46.1199 11.0586 44.4399 11.0586 42.3699V5.62988C11.0586 3.55988 12.7386 1.87988 14.8186 1.87988H33.1886C35.2586 1.87988 36.9386 3.55988 36.9386 5.62988V42.3699C36.9386 44.4399 35.2586 46.1199 33.1886 46.1199ZM14.8186 3.87988C13.8486 3.87988 13.0586 4.66988 13.0586 5.62988V42.3699C13.0586 43.3399 13.8486 44.1199 14.8186 44.1199H33.1886C34.1586 44.1199 34.9386 43.3299 34.9386 42.3699V5.62988C34.9386 4.65988 34.1486 3.87988 33.1886 3.87988H14.8186Z" fill="#323232"/>
<path fill-rule="evenodd" clip-rule="evenodd" d="M33.0191 20.3299V7.46988C33.0191 6.44988 32.1991 5.62988 31.1791 5.62988H23.5391L33.0191 20.3299Z" fill="#8DE2E0"/>
</svg>
