<svg width="48" height="48" viewBox="0 0 48 48" fill="none" xmlns="http://www.w3.org/2000/svg">
<path d="M16.3906 11.2998C13.7706 11.2998 11.6406 9.1698 11.6406 6.5498C11.6406 3.9298 13.7706 1.7998 16.3906 1.7998C19.0106 1.7998 21.1406 3.9298 21.1406 6.5498C21.1406 9.1698 19.0106 11.2998 16.3906 11.2998ZM16.3906 3.7998C14.8706 3.7998 13.6406 5.0298 13.6406 6.5498C13.6406 8.0698 14.8706 9.2998 16.3906 9.2998C17.9106 9.2998 19.1406 8.0698 19.1406 6.5498C19.1406 5.0298 17.9106 3.7998 16.3906 3.7998Z" fill="#323232"/>
<path d="M18.5709 26.9296C18.0209 26.9296 17.5709 26.4796 17.5709 25.9296V14.7496C15.1509 15.0296 9.38086 16.0596 9.38086 19.5396V24.8796C9.38086 25.4296 8.93086 25.8796 8.38086 25.8796C7.83086 25.8796 7.38086 25.4296 7.38086 24.8796V19.5396C7.38086 13.1696 18.0809 12.6696 18.5309 12.6496C18.8209 12.6396 19.0709 12.7396 19.2609 12.9296C19.4609 13.1196 19.5709 13.3796 19.5709 13.6496V25.9196C19.5709 26.4696 19.1209 26.9196 18.5709 26.9196V26.9296Z" fill="#323232"/>
<path d="M26.3906 21.2198C24.7506 21.2198 21.3106 20.2298 20.0506 16.4998C19.8706 15.9798 20.1506 15.4098 20.6806 15.2298C21.2106 15.0498 21.7706 15.3298 21.9506 15.8598C23.0706 19.1898 26.3606 19.2198 26.4006 19.2198C26.9506 19.2198 27.4006 19.6698 27.4006 20.2198C27.4006 20.7698 26.9506 21.2198 26.4006 21.2198H26.3906Z" fill="#323232"/>
<path d="M24.1709 38.6497C23.6209 38.6497 23.1709 38.1996 23.1709 37.6497V35.0797C23.1709 33.5497 23.1709 31.8096 22.6009 30.5096C22.2609 29.7396 21.7409 29.6996 19.6609 29.8896C19.3009 29.9196 18.9209 29.9596 18.5209 29.9796C17.0109 30.0696 15.7809 29.6696 14.8509 28.7596C13.0809 27.0296 13.2009 24.1196 13.2009 23.9996V17.8896C13.2009 17.3396 13.6509 16.8896 14.2009 16.8896C14.7509 16.8896 15.2009 17.3396 15.2009 17.8896V24.0496C15.2009 24.1096 15.1309 26.2396 16.2509 27.3396C16.7609 27.8396 17.4609 28.0496 18.3909 27.9896C18.7709 27.9696 19.1409 27.9296 19.4809 27.8996C21.4409 27.7196 23.4809 27.5396 24.4309 29.7096C25.1709 31.3996 25.1709 33.3596 25.1709 35.0896V37.6596C25.1709 38.2096 24.7209 38.6596 24.1709 38.6596V38.6497Z" fill="#323232"/>
<path d="M8.72023 44.79C8.31023 44.79 7.92023 44.53 7.78023 44.12C7.60023 43.6 7.87023 43.03 8.40023 42.85C9.54023 42.46 12.0802 40.27 13.1102 37.33C14.2102 34.17 13.7702 30.28 13.7602 30.24C13.7002 29.69 14.0902 29.19 14.6402 29.13C15.2002 29.06 15.6802 29.46 15.7502 30C15.7702 30.18 16.2602 34.39 15.0002 37.99C13.7802 41.47 10.7702 44.15 9.06023 44.74C8.95023 44.78 8.84023 44.8 8.73023 44.8L8.72023 44.79Z" fill="#323232"/>
<path d="M20.2695 47.1498C19.7195 47.1498 19.2695 46.6998 19.2695 46.1498V40.6798C19.2695 40.1298 19.7195 39.6798 20.2695 39.6798H29.2095V34.0098C29.2095 33.4598 29.6595 33.0098 30.2095 33.0098H39.6295C40.1795 33.0098 40.6295 33.4598 40.6295 34.0098C40.6295 34.5598 40.1795 35.0098 39.6295 35.0098H31.2095V40.6798C31.2095 41.2298 30.7595 41.6798 30.2095 41.6798H21.2695V46.1498C21.2695 46.6998 20.8195 47.1498 20.2695 47.1498Z" fill="#8DE2E0"/>
</svg>
