<svg width="48" height="48" viewBox="0 0 48 48" fill="none" xmlns="http://www.w3.org/2000/svg">
<path d="M9.09961 7.33008H16.0496V12.8201C16.0496 13.0301 15.8796 13.2001 15.6696 13.2001H9.47961C9.26961 13.2001 9.09961 13.0301 9.09961 12.8201V7.33008Z" fill="#DF0000"/>
<path d="M31.9502 7.33008H38.9002V12.8201C38.9002 13.0301 38.7302 13.2001 38.5202 13.2001H32.3302C32.1202 13.2001 31.9502 13.0301 31.9502 12.8201V7.33008Z" fill="#DF0000"/>
<path d="M21.2502 24.8501V8.59008C21.2502 7.35008 20.2402 6.33008 18.9902 6.33008H6.25023C5.01023 6.33008 3.99023 7.34008 3.99023 8.59008V24.8201C2.71023 25.1101 1.74023 26.2501 1.74023 27.6201V29.0301C1.74023 30.6101 3.03023 31.9001 4.61023 31.9001H11.5702V39.6701H3.25023C2.70023 39.6701 2.25023 40.1201 2.25023 40.6701C2.25023 41.2201 2.70023 41.6701 3.25023 41.6701H21.8902C22.4402 41.6701 22.8902 41.2201 22.8902 40.6701C22.8902 40.1201 22.4402 39.6701 21.8902 39.6701H13.5702V31.9001H20.5302C22.1102 31.9001 23.4002 30.6101 23.4002 29.0301V27.6201C23.4002 26.2901 22.4902 25.1801 21.2502 24.8601V24.8501ZM6.25023 8.33008H19.0002C19.1402 8.33008 19.2602 8.44008 19.2602 8.59008V24.7501H6.00023V8.59008C6.00023 8.45008 6.11023 8.33008 6.26023 8.33008H6.25023ZM21.4002 29.0201C21.4002 29.5001 21.0102 29.8901 20.5302 29.8901H4.62023C4.14023 29.8901 3.75023 29.5001 3.75023 29.0201V27.6101C3.75023 27.1301 4.14023 26.7401 4.62023 26.7401H20.5402C21.0202 26.7401 21.4102 27.1301 21.4102 27.6101V29.0201H21.4002Z" fill="#323232"/>
<path d="M43.3801 31.8901C44.9601 31.8901 46.2501 30.6001 46.2501 29.0201V27.6101C46.2501 26.2801 45.3301 25.1701 44.1001 24.8501V8.59008C44.1001 7.35008 43.0901 6.33008 41.8401 6.33008H29.0901C27.8501 6.33008 26.8301 7.34008 26.8301 8.59008V24.8201C25.5501 25.1101 24.5801 26.2501 24.5801 27.6201V29.0301C24.5801 30.6101 25.8701 31.9001 27.4501 31.9001H34.4101V39.6701H26.0901C25.5401 39.6701 25.0901 40.1201 25.0901 40.6701C25.0901 41.2201 25.5401 41.6701 26.0901 41.6701H44.7301C45.2801 41.6701 45.7301 41.2201 45.7301 40.6701C45.7301 40.1201 45.2801 39.6701 44.7301 39.6701H36.4101V31.9001H43.3701L43.3801 31.8901ZM29.1001 8.33008H41.8501C41.9901 8.33008 42.1101 8.44008 42.1101 8.59008V24.7501H28.8501V8.59008C28.8501 8.45008 28.9601 8.33008 29.1101 8.33008H29.1001ZM26.6001 29.0201V27.6101C26.6001 27.1301 26.9901 26.7401 27.4701 26.7401H43.3901C43.8701 26.7401 44.2601 27.1301 44.2601 27.6101V29.0201C44.2601 29.5001 43.8701 29.8901 43.3901 29.8901H27.4701C26.9901 29.8901 26.6001 29.5001 26.6001 29.0201Z" fill="#323232"/>
</svg>
