<svg width="48" height="48" viewBox="0 0 48 48" fill="none" xmlns="http://www.w3.org/2000/svg">
<path d="M36.9505 9.26L36.1005 8.47C36.0805 8.45 36.0505 8.43 36.0305 8.42L35.8305 8.24L35.8105 8.26C35.1705 7.89 34.3405 7.97 33.8005 8.52L14.7305 27.58L15.6405 28.43L17.6605 30.31L37.8605 10.11L36.9505 9.26Z" fill="#8DE2E0"/>
<path d="M43.6196 9.84994L37.7296 3.95994H37.7196C36.0796 2.30994 33.4196 2.30994 31.7796 3.94994L12.1996 23.5199C11.9596 23.5299 11.7296 23.6199 11.5496 23.7999L4.62959 30.7199C3.46959 31.8799 3.21959 33.6899 4.02959 35.1199L8.73959 43.4299C9.30959 44.4299 10.2896 45.0999 11.4296 45.2499C11.5996 45.2699 11.7696 45.2799 11.9296 45.2799C12.8896 45.2799 13.8096 44.8999 14.5096 44.2099L23.2296 35.4899C23.4196 35.2999 23.5196 35.0499 23.5196 34.7799C23.5196 34.5099 23.4096 34.2599 23.2296 34.0699L16.3996 27.2499L34.1596 9.48994C34.4596 9.18994 34.9996 9.18994 35.2996 9.48994C35.3196 9.50994 35.3496 9.52994 35.3696 9.54994L38.4996 12.6799C38.4096 12.8199 38.3396 12.9899 38.3396 13.1699C38.3396 13.3399 38.3396 13.4999 38.3396 13.6699C38.3596 14.3199 38.3596 14.6199 38.0096 14.9599C37.6696 15.2999 37.3596 15.3099 36.7196 15.2899C35.9596 15.2699 34.9196 15.2299 33.9496 16.1999C32.9796 17.1699 33.0196 18.2099 33.0396 18.9699C33.0596 19.6199 33.0596 19.9199 32.7196 20.2599C32.3796 20.5999 32.0796 20.5999 31.4296 20.5799C30.6696 20.5499 29.6296 20.5199 28.6596 21.4899C27.6896 22.4599 27.7296 23.4999 27.7496 24.2599C27.7696 24.9099 27.7696 25.2099 27.4296 25.5499C27.0896 25.8899 26.7896 25.8999 26.1396 25.8699C25.3796 25.8499 24.3396 25.8099 23.3696 26.7799C22.3996 27.7499 22.4396 28.7899 22.4596 29.5499C22.4696 29.8599 22.4796 30.1299 22.4196 30.3599C22.2896 30.8999 22.6196 31.4399 23.1496 31.5699C23.2296 31.5899 23.3096 31.5999 23.3896 31.5999C23.8396 31.5999 24.2496 31.2999 24.3596 30.8399C24.4796 30.3499 24.4696 29.8899 24.4496 29.4899C24.4296 28.8399 24.4296 28.5399 24.7696 28.1999C25.1096 27.8599 25.4096 27.8499 26.0596 27.8799C26.8196 27.9099 27.8596 27.9399 28.8296 26.9699C29.7996 25.9999 29.7596 24.9599 29.7396 24.1999C29.7196 23.5499 29.7196 23.2499 30.0596 22.9099C30.3996 22.5699 30.6996 22.5699 31.3496 22.5899C32.1096 22.6199 33.1496 22.6499 34.1196 21.6799C35.0896 20.7099 35.0496 19.6699 35.0296 18.9099C35.0096 18.2599 35.0096 17.9599 35.3496 17.6199C35.6896 17.2799 35.9896 17.2699 36.6396 17.2899C37.3996 17.3099 38.4396 17.3499 39.4096 16.3799C40.1096 15.6799 40.2896 14.9399 40.3196 14.2999C41.3696 14.8099 42.7196 14.6499 43.5696 13.8099C44.6596 12.7199 44.6596 10.9299 43.5696 9.83994L43.6196 9.84994ZM13.1096 42.7999C12.7396 43.1699 12.2296 43.3399 11.7096 43.2699C11.1896 43.1999 10.7496 42.8999 10.4896 42.4399L5.77959 34.1299C5.40959 33.4799 5.51959 32.6599 6.04959 32.1299L12.2596 25.9199L21.1196 34.7799L13.1096 42.7899V42.7999ZM42.1996 12.3999C41.8996 12.6999 41.3596 12.6999 41.0596 12.3999L36.7296 8.06994C36.7296 8.06994 36.6696 8.01994 36.6396 7.98994C35.5696 7.00994 33.7896 7.03994 32.7596 8.06994L15.0096 25.8399L13.8596 24.6899L33.1896 5.35994C34.0396 4.50994 35.4296 4.49994 36.2896 5.33994L42.2096 11.2599C42.5196 11.5699 42.5196 12.0899 42.2096 12.3999H42.1996Z" fill="#323232"/>
<path d="M11.5496 28.9001L7.92957 32.5101C7.45957 32.9801 7.35957 33.7201 7.68957 34.3001L10.9296 40.0201C11.1596 40.4301 11.5596 40.7001 12.0296 40.7601C12.0996 40.7601 12.1696 40.7701 12.2396 40.7701C12.6296 40.7701 13.0096 40.6201 13.2896 40.3301L18.1396 35.4801C18.5296 35.0901 18.5296 34.4601 18.1396 34.0701L12.9696 28.8901C12.7796 28.7001 12.5296 28.6001 12.2596 28.6001C11.9896 28.6001 11.7396 28.7101 11.5496 28.8901V28.9001ZM16.0196 34.7901L12.3496 38.4601L9.62957 33.6601L12.2596 31.0301L16.0196 34.7901Z" fill="#323232"/>
</svg>
