<svg width="24" height="24" viewBox="0 0 24 24" fill="none" xmlns="http://www.w3.org/2000/svg">
<path d="M2 5.5C2 4.94772 2.44772 4.5 3 4.5C3.55228 4.5 4 4.94772 4 5.5V7.37891L5.78027 14.5H10C10.5523 14.5 11 14.9477 11 15.5C11 16.0523 10.5523 16.5 10 16.5H5C4.54113 16.5 4.14157 16.1874 4.03027 15.7422L2.03027 7.74219C2.01048 7.66294 2 7.58168 2 7.5V5.5Z" fill="#323232"/>
<path d="M14 5.5C14 4.94772 14.4477 4.5 15 4.5C15.5523 4.5 16 4.94772 16 5.5V7.37891L17.7803 14.5H22C22.5523 14.5 23 14.9477 23 15.5C23 16.0523 22.5523 16.5 22 16.5H17C16.5411 16.5 16.1416 16.1874 16.0303 15.7422L14.0303 7.74219C14.0105 7.66294 14 7.58168 14 7.5V5.5Z" fill="#323232"/>
<path d="M5 18.5C5 17.9477 5.44772 17.5 6 17.5H10C10.5523 17.5 11 17.9477 11 18.5C11 19.0523 10.5523 19.5 10 19.5H6C5.44772 19.5 5 19.0523 5 18.5Z" fill="#323232"/>
<path d="M17 18.5C17 17.9477 17.4477 17.5 18 17.5H22C22.5523 17.5 23 17.9477 23 18.5C23 19.0523 22.5523 19.5 22 19.5H18C17.4477 19.5 17 19.0523 17 18.5Z" fill="#323232"/>
<path d="M7.5 9.5H10V10.5H7.5V12L5.5 10L7.5 8V9.5Z" fill="#323232"/>
<path d="M11.5 9.5H9V10.5H11.5V12L13.5 10L11.5 8V9.5Z" fill="#323232"/>
</svg>
