<svg width="48" height="48" viewBox="0 0 48 48" fill="none" xmlns="http://www.w3.org/2000/svg">
<path d="M25.7303 16.1895L25.1403 25.7995H23.4103L22.8203 16.1895H25.7403H25.7303ZM25.6703 27.1795V29.9595H22.8903V27.1795H25.6703Z" fill="#323232"/>
<path d="M24.2699 36.1199C17.1799 36.1199 11.4199 30.3499 11.4199 23.2699C11.4199 16.1899 17.1899 10.4199 24.2699 10.4199C31.3499 10.4199 37.1199 16.1899 37.1199 23.2699C37.1199 30.3499 31.3499 36.1199 24.2699 36.1199ZM24.2699 12.4099C18.2899 12.4099 13.4199 17.2799 13.4199 23.2599C13.4199 29.2399 18.2899 34.1099 24.2699 34.1099C30.2499 34.1099 35.1199 29.2399 35.1199 23.2599C35.1199 17.2799 30.2499 12.4099 24.2699 12.4099Z" fill="#323232"/>
<path d="M24.2705 46.5C23.7205 46.5 23.2705 46.05 23.2705 45.5V38.61C23.2705 38.06 23.7205 37.61 24.2705 37.61C24.8205 37.61 25.2705 38.06 25.2705 38.61V45.5C25.2705 46.05 24.8205 46.5 24.2705 46.5ZM38.8305 38.82C38.5705 38.82 38.3205 38.72 38.1205 38.53L34.4105 34.82C34.0205 34.43 34.0205 33.8 34.4105 33.41C34.8005 33.02 35.4305 33.02 35.8205 33.41L39.5305 37.12C39.9205 37.51 39.9205 38.14 39.5305 38.53C39.3305 38.73 39.0805 38.82 38.8205 38.82H38.8305ZM12.9905 35.55C12.7305 35.55 12.4805 35.45 12.2805 35.26C11.8905 34.87 11.8905 34.24 12.2805 33.85L12.7205 33.41C13.1105 33.02 13.7405 33.02 14.1305 33.41C14.5205 33.8 14.5205 34.43 14.1305 34.82L13.6905 35.26C13.4905 35.46 13.2405 35.55 12.9805 35.55H12.9905ZM46.2705 24.26H43.7205C43.1705 24.26 42.7205 23.81 42.7205 23.26C42.7205 22.71 43.1705 22.26 43.7205 22.26H46.2705C46.8205 22.26 47.2705 22.71 47.2705 23.26C47.2705 23.81 46.8205 24.26 46.2705 24.26ZM8.93047 24.26H1.73047C1.18047 24.26 0.730469 23.81 0.730469 23.26C0.730469 22.71 1.18047 22.26 1.73047 22.26H8.94047C9.49047 22.26 9.94047 22.71 9.94047 23.26C9.94047 23.81 9.49047 24.26 8.94047 24.26H8.93047ZM35.1305 13.42C34.8705 13.42 34.6205 13.32 34.4205 13.13C34.0305 12.74 34.0305 12.11 34.4205 11.72L37.9905 8.15C38.3805 7.76 39.0105 7.76 39.4005 8.15C39.7905 8.54 39.7905 9.17 39.4005 9.56L35.8305 13.13C35.6305 13.33 35.3805 13.42 35.1205 13.42H35.1305ZM24.2705 8.92C23.7205 8.92 23.2705 8.47 23.2705 7.92V2.5C23.2705 1.95 23.7205 1.5 24.2705 1.5C24.8205 1.5 25.2705 1.95 25.2705 2.5V7.92C25.2705 8.47 24.8205 8.92 24.2705 8.92ZM8.93047 8.92C8.67047 8.92 8.42047 8.82 8.22047 8.63L7.49047 7.9C7.10047 7.51 7.10047 6.88 7.49047 6.49C7.88047 6.1 8.51047 6.1 8.90047 6.49L9.63047 7.22C10.0205 7.61 10.0205 8.24 9.63047 8.63C9.43047 8.83 9.18047 8.92 8.92047 8.92H8.93047Z" fill="#DF0000"/>
<path d="M8.62945 39.9098C8.36945 39.9098 8.11945 39.8098 7.91945 39.6198C7.52945 39.2298 7.52945 38.5998 7.91945 38.2098L10.0995 36.0298C10.4895 35.6398 11.1195 35.6398 11.5095 36.0298C11.8995 36.4198 11.8995 37.0498 11.5095 37.4398L9.32945 39.6198C9.12945 39.8198 8.87945 39.9098 8.61945 39.9098H8.62945Z" fill="#DF0000"/>
<path d="M13.5006 13.4896C13.2406 13.4896 12.9906 13.3896 12.7906 13.1996L10.3706 10.7796C9.98063 10.3896 9.98063 9.75965 10.3706 9.36965C10.7606 8.97965 11.3906 8.97965 11.7806 9.36965L14.2006 11.7896C14.5906 12.1796 14.5906 12.8096 14.2006 13.1996C14.0006 13.3996 13.7506 13.4896 13.4906 13.4896H13.5006Z" fill="#DF0000"/>
<path d="M41.0091 24.2598H39.6191C39.0691 24.2598 38.6191 23.8098 38.6191 23.2598C38.6191 22.7098 39.0691 22.2598 39.6191 22.2598H41.0091C41.5591 22.2598 42.0091 22.7098 42.0091 23.2598C42.0091 23.8098 41.5591 24.2598 41.0091 24.2598Z" fill="#DF0000"/>
</svg>
