<svg width="48" height="48" viewBox="0 0 48 48" fill="none" xmlns="http://www.w3.org/2000/svg">
<path d="M17.4002 33.7601L17.2702 33.6301C17.1002 33.4401 16.2002 32.5801 14.6002 31.0601L13.9602 30.4501C13.6202 30.1201 13.0702 29.3801 12.9802 29.2301C12.9502 29.1701 12.9602 29.1801 12.9202 29.1301C12.6702 28.6201 12.0202 25.3801 11.5602 22.6601C11.5602 22.6101 11.5302 22.5801 11.5102 22.5401C11.4902 22.4801 11.4702 22.4101 11.4402 22.3601C11.4002 22.2901 11.3602 22.2401 11.3102 22.1901C11.2802 22.1601 11.2702 22.1201 11.2402 22.0901C11.2302 22.0801 11.2102 22.0701 11.2002 22.0601C11.1402 22.0101 11.0802 21.9801 11.0102 21.9501C10.9602 21.9201 10.9102 21.8901 10.8502 21.8801C10.7902 21.8601 10.7302 21.8601 10.6702 21.8501C10.6002 21.8501 10.5302 21.8401 10.4702 21.8501C10.4502 21.8501 10.4302 21.8501 10.4102 21.8501C10.3702 21.8501 10.3302 21.8801 10.2902 21.9001C10.2202 21.9201 10.1602 21.9401 10.1002 21.9701C10.0402 22.0001 9.99019 22.0501 9.93019 22.0901C9.90019 22.1201 9.86019 22.1301 9.83019 22.1701L8.78019 23.3301C8.41019 23.7401 8.44019 24.3701 8.85019 24.7401C9.04019 24.9101 9.28019 25.0001 9.52019 25.0001C9.66019 25.0001 9.79019 24.9701 9.92019 24.9201C10.4302 27.7101 10.8402 29.4501 11.1602 30.0901C11.3402 30.4801 12.1002 31.4701 12.5702 31.9101L13.2202 32.5301C13.9902 33.2701 15.6002 34.8001 15.7902 34.9901L15.9602 35.1701C16.0802 35.2901 16.3402 35.5601 16.4202 35.7101L16.6902 44.2801L18.6902 44.2201L18.4202 35.5701C18.4002 34.8101 17.8002 34.1901 17.4002 33.7801V33.7601Z" fill="#323232"/>
<path d="M42.5306 10.23C41.9606 10.06 41.3806 10.07 40.8306 10.21C40.7606 9.95999 40.6606 9.70999 40.5306 9.46999C40.0906 8.70999 39.3806 8.15999 38.5206 7.92999C37.8506 7.74999 37.1606 7.79999 36.5206 8.03999C36.4106 7.61999 36.2106 7.21999 35.9406 6.86999C35.4006 6.17999 34.6206 5.73999 33.7606 5.62999C33.0706 5.54999 32.4006 5.68999 31.8406 5.98999C31.7906 5.89999 31.7406 5.79999 31.6806 5.71999C31.1606 5.00999 30.4006 4.53999 29.5306 4.39999C28.8606 4.28999 28.1906 4.39999 27.6006 4.67999C27.4906 4.43999 27.3606 4.19999 27.1906 3.97999C26.6506 3.28999 25.8706 2.84999 25.0106 2.73999C24.1306 2.62999 23.2806 2.86999 22.5906 3.40999C21.9506 3.90999 21.5306 4.62999 21.3906 5.42999C20.8506 5.03999 20.1906 4.79999 19.4706 4.79999C18.2106 4.79999 17.1206 5.51999 16.5706 6.57999C15.8906 6.08999 15.0206 5.85999 14.1406 5.99999C13.2806 6.13999 12.5206 6.60999 12.0106 7.31999C11.5006 8.02999 11.2906 8.89999 11.4306 9.78999L12.0406 13.07C11.6906 12.92 11.3006 12.84 10.9106 12.86C10.1106 12.9 9.37064 13.33 8.94064 14.01L8.32064 14.98C8.02064 15.45 8.16064 16.06 8.62064 16.36C9.09064 16.66 9.71064 16.52 10.0006 16.06L10.6206 15.09C10.7406 14.9 10.9206 14.87 11.0106 14.86C11.1006 14.85 11.2906 14.87 11.4306 15.05C12.2406 16.07 12.3806 17.49 11.8006 18.63L11.4806 19.19C11.2106 19.67 11.3806 20.28 11.8606 20.55C12.0206 20.64 12.1806 20.68 12.3506 20.68C12.7006 20.68 13.0406 20.5 13.2206 20.17L13.5606 19.57C13.7106 19.27 13.8306 18.95 13.9206 18.64C13.9206 18.64 13.9406 18.65 13.9506 18.66L14.3006 23.04C14.3406 23.56 14.7806 23.96 15.3006 23.96C15.3306 23.96 15.3506 23.96 15.3806 23.96C15.9306 23.92 16.3406 23.43 16.3006 22.88L16.0206 19.33C16.1706 19.33 16.3206 19.32 16.4606 19.29C17.3206 19.15 18.0806 18.68 18.5906 17.97C19.1006 17.26 19.3106 16.39 19.1706 15.5L18.3406 11.04L18.1806 8.08999C18.1806 7.36999 18.7606 6.78999 19.4806 6.78999C20.2006 6.78999 20.7806 7.36999 20.7806 8.08999V10.61L20.4906 13.11C20.3906 13.98 20.6206 14.84 21.1606 15.53C21.7006 16.22 22.4706 16.66 23.3406 16.77C23.4806 16.79 23.6106 16.79 23.7406 16.79C25.3906 16.79 26.7906 15.55 26.9906 13.91L27.7506 7.46999C27.7506 7.46999 27.7706 7.42999 27.7706 7.39999C27.8106 7.07999 27.9806 6.78999 28.2606 6.58999C28.5406 6.38999 28.8606 6.29999 29.2306 6.35999C29.5706 6.40999 29.8706 6.59999 30.0806 6.87999C30.2606 7.12999 30.3306 7.43999 30.3106 7.74999C30.2306 7.97999 30.1606 8.20999 30.1306 8.45999L29.0706 16C28.9606 16.87 29.2006 17.73 29.7406 18.42C30.2806 19.11 31.0506 19.55 31.9306 19.66C32.0606 19.68 32.2006 19.68 32.3306 19.68C33.9806 19.68 35.3806 18.44 35.5806 16.81L36.4106 10.92C36.4406 10.86 36.4706 10.81 36.4906 10.75C36.5606 10.44 36.7606 10.17 37.0606 9.99999C37.3606 9.82999 37.7206 9.77999 38.0506 9.86999C38.3806 9.95999 38.6706 10.17 38.8406 10.48C39.0106 10.78 39.0606 11.13 38.9706 11.46C38.9706 11.47 38.9706 11.48 38.9706 11.49C38.7606 11.77 38.5906 12.08 38.4806 12.43L36.4406 19.73C35.9306 21.41 36.8506 23.17 38.4906 23.76L37.3206 30.33C36.9006 31.86 36.1306 33.27 35.4806 33.68C34.2706 34.45 33.5406 35.76 33.5406 37.2V38.39C33.5406 38.94 33.9906 39.39 34.5406 39.39C35.0906 39.39 35.5406 38.94 35.5406 38.39V37.2C35.5406 36.45 35.9206 35.77 36.5506 35.37C38.2406 34.3 39.0906 31.43 39.2706 30.77L40.5106 23.82C41.5406 23.51 42.4006 22.7 42.7306 21.62L44.7706 14.32C45.2906 12.59 44.3106 10.76 42.5806 10.23H42.5306ZM16.9606 16.81C16.7606 17.09 16.4606 17.27 16.1206 17.32C15.4006 17.44 14.7706 16.95 14.6606 16.24L13.3906 9.44999C13.3406 9.10999 13.4206 8.77999 13.6206 8.49999C13.8206 8.21999 14.1206 8.03999 14.4606 7.97999C14.5306 7.96999 14.5906 7.95999 14.6606 7.95999C15.2906 7.95999 15.8206 8.40999 15.9206 9.04999L17.1906 15.84C17.2406 16.18 17.1606 16.51 16.9606 16.79V16.81ZM23.5606 14.8C23.2206 14.76 22.9206 14.59 22.7106 14.32C22.5006 14.05 22.4106 13.72 22.4506 13.37L23.3306 5.84999C23.3706 5.50999 23.5406 5.20999 23.8106 4.99999C24.0406 4.81999 24.3006 4.72999 24.5906 4.72999C24.6406 4.72999 24.7006 4.72999 24.7506 4.73999C25.0906 4.77999 25.3906 4.94999 25.6006 5.21999C25.8106 5.48999 25.9006 5.81999 25.8606 6.16999L24.9806 13.69C24.9006 14.38 24.2806 14.89 23.5606 14.8ZM33.5606 16.57C33.4706 17.27 32.8006 17.77 32.1406 17.69C31.8006 17.65 31.5006 17.48 31.2906 17.21C31.0806 16.94 30.9906 16.61 31.0306 16.28L32.0906 8.73999C32.1706 8.09999 32.7106 7.60999 33.3606 7.60999C33.4106 7.60999 33.4706 7.60999 33.5206 7.60999C33.8606 7.64999 34.1606 7.81999 34.3706 8.08999C34.5806 8.35999 34.6706 8.68999 34.6306 9.01999L33.5706 16.55L33.5606 16.57ZM42.7906 13.76L40.7506 21.06C40.5506 21.71 39.8106 22.11 39.1506 21.91C38.4806 21.7 38.1006 20.99 38.3006 20.3L40.3406 13C40.5006 12.47 41.0106 12.09 41.5706 12.09C41.6906 12.09 41.8206 12.11 41.9406 12.14C42.6106 12.35 43.0006 13.06 42.7906 13.75V13.76Z" fill="#323232"/>
<path d="M13.4002 36.1701L11.3502 34.8101C10.9402 34.5401 10.3902 33.1201 10.2002 32.6501L6.73018 23.9101C6.73018 23.9101 6.69018 23.8201 6.66018 23.7701C6.19018 22.9601 6.17018 22.0401 6.61018 21.3101L8.17018 18.8701C8.47018 18.4001 8.33018 17.7901 7.86018 17.4901C7.40018 17.1901 6.78018 17.3301 6.48018 17.8001L4.91018 20.2601C4.08018 21.6201 4.08018 23.2801 4.89018 24.7201L8.34018 33.3901C8.83018 34.6401 9.38018 35.9201 10.2502 36.4901L12.3102 37.8501C12.7202 38.1201 12.9602 38.5701 12.9602 39.0601V44.2301C12.9602 44.7801 13.4102 45.2301 13.9602 45.2301C14.5102 45.2301 14.9602 44.7801 14.9602 44.2301V39.0601C14.9602 37.9001 14.3802 36.8201 13.4102 36.1801L13.4002 36.1701Z" fill="#323232"/>
<path d="M34.4707 40.8901C33.9207 40.8901 33.4707 41.3401 33.4707 41.8901V44.2301C33.4707 44.7801 33.9207 45.2301 34.4707 45.2301C35.0207 45.2301 35.4707 44.7801 35.4707 44.2301V41.8901C35.4707 41.3401 35.0207 40.8901 34.4707 40.8901Z" fill="#323232"/>
<path d="M40.6893 34.6402C40.3993 34.6402 40.1093 34.5102 39.9093 34.2702L39.6393 33.9302C39.2893 33.5002 39.3593 32.8702 39.7893 32.5202C40.2193 32.1702 40.8493 32.2402 41.1993 32.6702L41.4693 33.0102C41.8193 33.4402 41.7493 34.0702 41.3193 34.4202C41.1393 34.5702 40.9093 34.6402 40.6893 34.6402Z" fill="#8DE2E0"/>
<path d="M42.2302 42.8902C40.8102 42.8902 38.8702 42.2102 36.2802 40.8102C32.7602 38.9102 28.3202 35.7602 23.7802 31.9402C23.3602 31.5902 23.3002 30.9502 23.6602 30.5302C24.0102 30.1102 24.6502 30.0502 25.0702 30.4102C29.5102 34.1402 33.8302 37.2102 37.2302 39.0502C40.0402 40.5702 41.5002 40.8902 42.2302 40.8902C42.4002 40.8902 42.6902 40.8702 42.8002 40.7502C42.9902 40.5402 43.0802 39.3502 41.2302 36.3402C40.9402 35.8702 41.0902 35.2502 41.5602 34.9602C42.0302 34.6702 42.6502 34.8202 42.9402 35.2902C44.9902 38.6202 45.4302 40.8502 44.2802 42.1002C43.8002 42.6202 43.1102 42.8902 42.2402 42.8902H42.2302Z" fill="#8DE2E0"/>
<path d="M18.6704 27.4602C18.4204 27.4602 18.1704 27.3602 17.9804 27.1902C13.7204 23.2502 9.59039 18.4702 6.65039 14.0602C5.2804 12.0202 4.26039 10.1602 3.68039 8.7002C2.94039 6.8202 2.92039 5.5302 3.63039 4.7702C4.75039 3.5502 6.91039 3.7402 10.3804 5.4202C10.8804 5.6602 11.0804 6.2602 10.8404 6.7602C10.6004 7.2602 10.0004 7.4602 9.50039 7.2202C7.3904 6.2002 6.25039 5.9802 5.66039 5.9802C5.50039 5.9802 5.21039 6.0002 5.10039 6.1202C5.08039 6.1902 5.06039 6.7602 5.54039 7.9702C6.07039 9.3002 7.03039 11.0302 8.32039 12.9502C11.1704 17.2102 15.1604 21.8402 19.2904 25.6702C19.5304 25.8502 19.6804 26.1402 19.6804 26.4602C19.6804 27.0102 19.2304 27.4602 18.6804 27.4602H18.6704Z" fill="#8DE2E0"/>
</svg>
