<svg width="48" height="48" viewBox="0 0 48 48" fill="none" xmlns="http://www.w3.org/2000/svg">
<path d="M15.5503 38.11C15.4703 38.11 15.4003 38.11 15.3203 38.08C7.23031 36.2 1.57031 29.07 1.57031 20.75C1.57031 10.93 9.56031 2.94995 19.3703 2.94995C29.1803 2.94995 37.1703 10.9399 37.1703 20.75C37.1703 24.01 36.2803 27.1999 34.6003 29.9699C34.3103 30.4399 33.7003 30.59 33.2303 30.3099C32.7603 30.0199 32.6103 29.41 32.8903 28.94C34.3803 26.4799 35.1703 23.65 35.1703 20.76C35.1703 12.05 28.0803 4.95995 19.3703 4.95995C10.6603 4.95995 3.57031 12.04 3.57031 20.75C3.57031 28.1399 8.59031 34.4699 15.7803 36.1399C16.3203 36.2599 16.6503 36.7999 16.5303 37.34C16.4203 37.7999 16.0103 38.11 15.5603 38.11H15.5503Z" fill="#323232"/>
<path d="M26.8808 21.7799H9.93078C9.66078 21.7799 9.41078 21.6699 9.22078 21.4899L3.03078 15.2999C2.64078 14.9099 2.64078 14.2799 3.03078 13.8899C3.42078 13.4999 4.05078 13.4999 4.44078 13.8899L10.3408 19.7899H26.8708C27.4208 19.7899 27.8708 20.2399 27.8708 20.7899C27.8708 21.3399 27.4208 21.7899 26.8708 21.7899L26.8808 21.7799Z" fill="#323232"/>
<path d="M34.3804 14.1899H16.4404C15.8904 14.1899 15.4404 13.7399 15.4404 13.1899C15.4404 12.6399 15.8904 12.1899 16.4404 12.1899H34.3804C34.9304 12.1899 35.3804 12.6399 35.3804 13.1899C35.3804 13.7399 34.9304 14.1899 34.3804 14.1899Z" fill="#323232"/>
<path d="M23.22 28.5999H13.5C12.95 28.5999 12.5 28.1499 12.5 27.5999C12.5 27.0499 12.95 26.5999 13.5 26.5999H23.22C23.77 26.5999 24.22 27.0499 24.22 27.5999C24.22 28.1499 23.77 28.5999 23.22 28.5999Z" fill="#323232"/>
<path d="M14.35 15.2898C15.5098 15.2898 16.45 14.3496 16.45 13.1898C16.45 12.03 15.5098 11.0898 14.35 11.0898C13.1902 11.0898 12.25 12.03 12.25 13.1898C12.25 14.3496 13.1902 15.2898 14.35 15.2898Z" fill="#8DE2E0"/>
<path d="M14.35 16.2899C12.64 16.2899 11.25 14.8999 11.25 13.1999C11.25 11.4999 12.64 10.0999 14.35 10.0999C16.06 10.0999 17.45 11.4899 17.45 13.1999C17.45 14.9099 16.06 16.2899 14.35 16.2899ZM14.35 12.0999C13.75 12.0999 13.25 12.5899 13.25 13.1999C13.25 13.8099 13.74 14.2899 14.35 14.2899C14.96 14.2899 15.45 13.7999 15.45 13.1999C15.45 12.5999 14.96 12.0999 14.35 12.0999Z" fill="#323232"/>
<path d="M28.9701 22.8799C30.1299 22.8799 31.0701 21.9397 31.0701 20.7799C31.0701 19.6201 30.1299 18.6799 28.9701 18.6799C27.8103 18.6799 26.8701 19.6201 26.8701 20.7799C26.8701 21.9397 27.8103 22.8799 28.9701 22.8799Z" fill="#8DE2E0"/>
<path d="M28.9701 23.8699C27.2601 23.8699 25.8701 22.4799 25.8701 20.7699C25.8701 19.0599 27.2601 17.6699 28.9701 17.6699C30.6801 17.6699 32.0601 19.0599 32.0601 20.7699C32.0601 22.4799 30.6701 23.8699 28.9701 23.8699ZM28.9701 19.6799C28.3701 19.6799 27.8701 20.1699 27.8701 20.7799C27.8701 21.3899 28.3601 21.8799 28.9701 21.8799C29.5801 21.8799 30.0601 21.3899 30.0601 20.7799C30.0601 20.1699 29.5701 19.6799 28.9701 19.6799Z" fill="#323232"/>
<path d="M11.4105 29.7C12.5703 29.7 13.5105 28.7598 13.5105 27.6C13.5105 26.4402 12.5703 25.5 11.4105 25.5C10.2507 25.5 9.31055 26.4402 9.31055 27.6C9.31055 28.7598 10.2507 29.7 11.4105 29.7Z" fill="#8DE2E0"/>
<path d="M11.4103 30.69C9.70031 30.69 8.32031 29.3 8.32031 27.59C8.32031 25.88 9.71031 24.49 11.4103 24.49C13.1103 24.49 14.5103 25.88 14.5103 27.59C14.5103 29.3 13.1203 30.69 11.4103 30.69ZM11.4103 26.5C10.8103 26.5 10.3203 26.99 10.3203 27.6C10.3203 28.21 10.8103 28.7 11.4103 28.7C12.0103 28.7 12.5103 28.21 12.5103 27.6C12.5103 26.99 12.0203 26.5 11.4103 26.5Z" fill="#323232"/>
<path d="M28.3102 34.7899C27.9702 34.7899 27.6402 34.6199 27.4502 34.3099C27.3702 34.1699 25.4302 30.9799 24.6802 29.5899C24.5402 29.3299 24.5202 29.0299 24.6302 28.7499C24.7402 28.4799 24.9602 28.2599 25.2302 28.1699C26.5202 27.7199 27.9602 27.9099 29.1002 28.6699L34.8902 32.9799C35.3302 33.3099 35.4302 33.9399 35.1002 34.3799C34.7702 34.8199 34.1502 34.9199 33.7002 34.5899L27.9502 30.3099C27.7302 30.1599 27.4702 30.0599 27.2002 29.9899C28.0602 31.4699 29.1402 33.2499 29.1602 33.2799C29.4502 33.7499 29.2902 34.3699 28.8202 34.6499C28.6602 34.7499 28.4802 34.7899 28.3002 34.7899H28.3102Z" fill="#323232"/>
<path d="M25.8007 45.05C25.4707 45.05 25.1407 45.02 24.8107 44.96C24.4907 44.9 24.2207 44.7 24.0907 44.41C23.9507 44.12 23.9607 43.78 24.1207 43.5L26.8107 38.6H24.9007V38.61C24.3507 38.61 23.9007 38.17 23.9007 37.62C23.9007 37.07 24.3407 36.62 24.8907 36.61L28.5107 36.59C28.8207 36.59 29.1907 36.77 29.3807 37.08C29.5707 37.39 29.5707 37.76 29.4007 38.07L26.7307 42.93C27.2007 42.81 27.6407 42.58 28.0207 42.27C29.6007 40.9 34.4507 36.79 34.4507 36.79C34.6307 36.64 34.8607 36.55 35.0907 36.55L43.5607 36.51C43.5007 36.13 43.3707 35.72 43.0707 35.41C42.6407 34.97 41.9007 34.75 40.8607 34.75L22.1807 34.79C21.6307 34.79 21.1807 34.34 21.1807 33.79C21.1807 33.24 21.6307 32.79 22.1807 32.79L40.8607 32.75C42.4507 32.75 43.6807 33.17 44.4907 34C45.6307 35.15 45.6107 36.7 45.6007 37.37V37.5C45.6007 38.05 45.1507 38.5 44.6007 38.5L35.4507 38.54C34.4007 39.43 30.6607 42.6 29.2907 43.79C28.2807 44.6 27.0607 45.03 25.8007 45.03V45.05Z" fill="#323232"/>
<path d="M20.4704 31.4398C20.1904 31.0598 19.7504 30.8298 19.2804 30.8298H18.1404C17.7304 30.8298 17.4404 31.2598 17.6004 31.6498L19.5904 36.6998C19.8104 37.2698 20.3604 37.6398 20.9604 37.6298L24.8904 37.6098L20.4704 31.4398Z" fill="#8DE2E0"/>
<path d="M20.9502 38.6298C19.9302 38.6298 19.0302 38.0198 18.6502 37.0598L16.6602 32.0098C16.4702 31.5198 16.5302 30.9698 16.8202 30.5298C17.1102 30.0998 17.6002 29.8298 18.1302 29.8298H19.2702C20.0602 29.8298 20.8102 30.2098 21.2702 30.8498L25.6902 37.0198C25.9102 37.3198 25.9402 37.7198 25.7702 38.0598C25.6002 38.3998 25.2602 38.5998 24.8802 38.5998L20.9502 38.6198H20.9402L20.9502 38.6298ZM18.7402 31.8398L20.5202 36.3398C20.5902 36.5198 20.7602 36.6398 20.9602 36.6398H22.9602L19.6702 32.0298C19.5802 31.9098 19.4402 31.8398 19.2902 31.8398H18.7502H18.7402Z" fill="#323232"/>
</svg>
