<svg width="297" height="75" viewBox="0 0 297 75" fill="none" xmlns="http://www.w3.org/2000/svg">
<path d="M22.1046 58H81.5904L33.9227 10.1264C27.5708 3.77488 18.956 0 9.97351 0H-0.000244141L0.742752 1.94931L4.04523 10.6143L22.1046 58Z" fill="url(#paint0_linear_10470_9849)"/>
<path d="M4.04516 10.6142C10.558 21.7358 27.6484 22.9097 29.5078 40.2035C29.5842 40.9151 30.1296 41.4852 30.8368 41.5959C40.6856 43.1348 50.2787 47.19 58.6136 53.872L58.621 53.878C58.6758 53.922 58.7332 53.9431 58.8067 53.9431C58.8802 53.9431 58.954 53.9162 59.0114 53.8615C59.1302 53.7485 59.1349 53.5605 59.0219 53.4417C53.25 47.3759 46.1975 42.5288 38.281 39.3418L35.8717 38.372C34.6326 37.8731 33.7725 36.6439 33.8094 35.2298C33.9447 30.0627 46.164 31.1136 47.4027 28.6296L47.6159 28.2022C45.0998 26.0519 42.1103 24.4349 38.8177 23.5306C38.7884 23.655 38.7084 24.2577 39.3785 25.3486C40.107 26.5348 38.5812 28.4213 36.3602 26.3861L36.1735 26.2151C19.6632 11.0862 7.28381 18.9313 0.742676 1.94922L4.04516 10.6142Z" fill="white"/>
<path d="M43.7489 27.9215C43.7489 27.9215 41.0413 28.0562 39.3783 25.3486C39.873 26.1542 39.3277 27.2833 38.2314 27.2866V31.4089C40.0116 30.8917 42.0423 30.575 43.7489 30.2162V27.9215Z" fill="url(#paint1_linear_10470_9849)"/>
<path d="M32.8811 41.9525C42.0094 43.7097 50.8568 47.6531 58.6135 53.872C41.3211 39.0978 33.4421 41.7693 32.8811 41.9525Z" fill="url(#paint2_linear_10470_9849)"/>
<path d="M7.52218 11.3876C4.83504 9.47689 2.56268 6.67449 0.742676 1.94922L4.04516 10.6142C10.5574 21.7346 27.6449 22.9095 29.5072 40.1984C27.6275 18.1324 17.9351 21.4303 7.52218 11.3876Z" fill="url(#paint3_linear_10470_9849)"/>
<path fill-rule="evenodd" clip-rule="evenodd" d="M67.9998 32.2254C67.9998 39.908 75.5663 46.0045 87.4424 46.0045H103.427C106.234 46.0045 107.536 44.9141 108.589 43.1298L110.242 40.3046H103.227C106.083 38.0245 107.587 35.2489 107.587 31.928C107.587 24.4437 99.6191 18.4463 87.7932 18.4463C75.9672 18.4463 67.9998 24.5428 67.9998 32.2254ZM99.7694 32.2254C99.7694 36.5872 94.2573 39.7593 87.7932 39.7593H87.7431C81.2789 39.7593 75.7668 36.5872 75.7668 32.2254C75.7668 27.8637 81.2288 24.6915 87.7431 24.6915C94.2573 24.6915 99.7694 27.8637 99.7694 32.2254Z" fill="#323232"/>
<path fill-rule="evenodd" clip-rule="evenodd" d="M120.665 41.3455H139.356L142.012 46.0046H149.929L136.951 23.7994C135.949 22.015 134.496 20.6768 131.539 20.6768H128.633C125.726 20.6768 124.223 22.0646 123.221 23.7994L110.242 46.0046H118.009L120.665 41.3455ZM136.199 35.7941H123.822L129.535 25.6828C129.685 25.435 129.785 25.3855 129.986 25.3855C130.186 25.3855 130.286 25.435 130.437 25.6828L136.199 35.7941Z" fill="#323232"/>
<path d="M186.911 20.6766V46.0045H179.945L159.601 29.2018V46.0045H152.686V20.6766H157.045C158.744 20.5686 160.413 21.1606 161.655 22.3123L179.995 37.4297V20.6766H186.911Z" fill="#323232"/>
<path d="M211.565 26.3768V46.0046H204.599V26.3768H190.418V20.6768H225.746V26.3768H211.565Z" fill="#323232"/>
<path fill-rule="evenodd" clip-rule="evenodd" d="M227.449 46.0046L230.105 41.3455H248.846L251.502 46.0046H259.419L246.441 23.7994C245.439 22.015 243.986 20.6768 241.029 20.6768H238.123C235.216 20.6768 233.713 22.0646 232.711 23.7994L219.732 46.0046H227.449ZM245.689 35.7941H233.312L239.025 25.6828C239.175 25.435 239.275 25.3855 239.476 25.3855C239.676 25.3855 239.776 25.435 239.927 25.6828L245.689 35.7941Z" fill="#323232"/>
<path d="M261.825 44.1705L261.173 43.9722L262.927 38.4705C267.827 39.9743 272.93 40.7265 278.06 40.7009C285.928 40.7009 287.882 39.8088 287.882 38.8175C287.882 37.8262 287.631 38.1235 286.98 37.9253C286.328 37.727 284.023 37.2314 277.559 36.1905C271.095 35.1496 267.186 34.4557 264.831 33.3653C262.476 32.2748 261.023 30.5401 261.023 28.0122C261.023 25.4844 261.975 24.5427 263.528 23.3035C266.284 21.2218 270.945 20.3792 276.006 20.3792C282.132 20.2938 288.244 20.9766 294.196 22.4114L294.747 22.5601L293.294 27.9131C286.479 26.4757 282.67 26.0792 277.459 25.9801C273.801 25.9305 271.295 26.2279 269.943 26.6244C268.59 27.0209 268.89 27.2192 268.89 27.6157C268.89 28.0122 269.141 28.3096 269.892 28.5575C270.644 28.8053 272.047 29.1522 279.063 30.2427C286.078 31.3331 289.135 31.9775 291.239 32.7705C293.344 33.5635 295.799 35.8435 295.799 38.3218C295.799 40.8001 293.344 43.774 289.084 45.0627C285.785 45.9406 282.378 46.3577 278.962 46.3018C272.699 46.3514 266.084 45.5583 261.825 44.1705Z" fill="#323232"/>
<path d="M157.446 60.7255V60.3785C157.446 58.9412 156.393 57.8507 154.59 57.8507C152.786 57.8507 151.783 58.7429 151.783 59.982C151.783 61.2212 152.485 61.7168 153.437 62.0638L155.842 63.0055C157.496 63.6498 159.35 64.542 159.35 66.9707C159.35 69.3994 157.396 71.1342 154.59 71.1342C151.783 71.1342 149.829 69.5977 149.829 67.1194V66.7725H151.483V67.2185C151.483 68.6559 152.635 69.7464 154.59 69.7464C156.544 69.7464 157.696 68.6559 157.696 67.2185C157.696 65.7812 156.544 65.0872 155.191 64.542L153.136 63.6994C151.483 63.0551 150.13 62.0142 150.13 60.1307C150.13 58.2472 151.884 56.4629 154.59 56.4629C157.295 56.4629 159.099 57.9994 159.099 60.4777V60.7255H157.446Z" fill="#323232"/>
<path fill-rule="evenodd" clip-rule="evenodd" d="M166.215 60.0808C165.047 60.0349 163.935 60.5757 163.259 61.5182L163.058 60.2791H161.805V74.9008H163.409V69.7956C164.082 70.6447 165.125 71.1237 166.215 71.0843C168.57 71.0843 169.973 69.5478 169.973 67.1687V63.9965C169.973 61.6173 168.57 60.0808 166.215 60.0808ZM163.409 67.0695V64.0956L163.359 64.1452C163.359 62.6582 164.361 61.4191 165.965 61.4191C167.568 61.4191 168.37 62.5095 168.37 63.8973V67.2182C168.37 68.6556 167.518 69.6965 165.965 69.6965C165.26 69.7273 164.576 69.4569 164.087 68.9542C163.598 68.4514 163.351 67.7649 163.409 67.0695Z" fill="#323232"/>
<path fill-rule="evenodd" clip-rule="evenodd" d="M174.333 57.3055C174.333 56.7307 173.862 56.2646 173.281 56.2646C172.699 56.2646 172.228 56.7307 172.228 57.3055C172.228 57.8804 172.699 58.3464 173.281 58.3464C173.862 58.3464 174.333 57.8804 174.333 57.3055ZM174.082 70.936V60.329L172.479 60.2794V70.936H174.082Z" fill="#323232"/>
<path d="M176.838 70.9359V60.2794H178.091L178.342 61.6176C178.953 60.6115 180.062 60.0062 181.248 60.0315H181.799V61.568H181.148C180.435 61.5398 179.743 61.8075 179.238 62.3064C178.734 62.8053 178.463 63.49 178.492 64.195V70.8863L176.838 70.9359Z" fill="#323232"/>
<path fill-rule="evenodd" clip-rule="evenodd" d="M185.608 57.3055C185.608 56.7307 185.136 56.2646 184.555 56.2646C184.276 56.2646 184.008 56.3743 183.811 56.5695C183.614 56.7647 183.503 57.0295 183.503 57.3055C183.503 57.8804 183.974 58.3464 184.555 58.3464C185.136 58.3464 185.608 57.8804 185.608 57.3055ZM185.357 70.936V60.329L183.753 60.2794V70.936H185.357Z" fill="#323232"/>
<path d="M187.361 60.3782H189.466V57.5034H191.12V60.3782H193.224V61.7165H191.12V70.9356H189.466V61.7165H187.361V60.3782Z" fill="#323232"/>
<path fill-rule="evenodd" clip-rule="evenodd" d="M203.146 71.1341C205.602 71.1341 207.305 69.548 207.305 67.0202V64.195C207.305 61.6671 205.602 60.0811 203.146 60.0811C200.691 60.0811 199.037 61.6671 199.037 64.195V67.0202C199.037 69.548 200.691 71.1341 203.146 71.1341ZM203.146 69.7958C201.543 69.7958 200.641 68.6558 200.641 67.1689V64.1454C200.641 62.6584 201.543 61.5184 203.146 61.5184C204.75 61.5184 205.652 62.6584 205.652 64.1454V67.1689C205.652 68.6558 204.75 69.7958 203.146 69.7958Z" fill="#323232"/>
<path d="M208.909 60.3783H210.663V59.8331C210.663 57.5035 211.915 56.2148 214.321 56.2148H215.273V57.6027H214.421C212.867 57.6027 212.316 58.4948 212.316 59.734V60.3783H215.072V61.7166H212.266V70.9357H210.612V61.7166H208.859L208.909 60.3783Z" fill="#323232"/>
<path fill-rule="evenodd" clip-rule="evenodd" d="M224.844 56.6611L220.183 70.9359H221.837L222.889 67.6646H228.451L229.504 70.9359H231.258L226.547 56.6611H224.844ZM228 66.2272H223.34L225.645 58.8916L228 66.2272Z" fill="#323232"/>
<path d="M232.911 60.2793H234.515V67.3176C234.515 68.6558 235.266 69.6967 236.82 69.6967C238.373 69.6967 239.325 68.5567 239.325 67.0697V60.2793H240.929V70.8863H239.676L239.425 69.6471C238.743 70.5827 237.635 71.1214 236.469 71.0845C234.164 71.0845 232.861 69.5976 232.861 67.268L232.911 60.2793Z" fill="#323232"/>
<path d="M244.687 67.6645V68.0115C244.687 69.0524 245.639 69.8454 247.193 69.8454C248.746 69.8454 249.498 69.1019 249.498 68.0611C249.498 67.0202 249.097 66.7724 248.045 66.475L245.94 65.8306C244.687 65.4837 243.434 64.6906 243.434 63.055C243.434 61.4193 244.938 60.0811 247.092 60.0811C249.247 60.0811 250.951 61.2211 250.951 63.2037V63.3524H249.398V63.1045C249.398 62.1132 248.546 61.3202 247.092 61.3202C245.639 61.3202 244.988 61.8158 244.988 62.9063C244.988 63.9967 245.389 64.0463 246.291 64.2941L248.145 64.8393C249.748 65.335 251.051 65.9793 251.051 67.8132C251.051 69.6471 249.548 71.035 247.193 71.035C244.838 71.035 243.134 69.7958 243.134 67.8132V67.5158L244.687 67.6645Z" fill="#323232"/>
<path d="M252.755 60.3782H254.859V57.5034H256.513V60.3782H258.618V61.7165H256.513V70.9356H254.859V61.7165H252.755V60.3782Z" fill="#323232"/>
<path d="M260.572 70.9359V60.2794H261.825L262.075 61.6176C262.686 60.6115 263.795 60.0062 264.982 60.0315H265.533V61.568H264.881C264.169 61.5398 263.477 61.8075 262.972 62.3064C262.468 62.8053 262.197 63.49 262.226 64.195V70.8863L260.572 70.9359Z" fill="#323232"/>
<path fill-rule="evenodd" clip-rule="evenodd" d="M270.794 60.0809C268.439 60.0809 267.036 61.6174 267.036 63.9965V67.1687C267.036 69.5478 268.439 71.0844 270.794 71.0844C271.96 71.1212 273.068 70.5825 273.751 69.647L274.001 70.8861H275.254V60.2791H274.001L273.751 61.5183C273.068 60.5827 271.96 60.044 270.794 60.0809ZM273.601 64.1452V67.1191C273.674 67.8226 273.434 68.523 272.943 69.0372C272.452 69.5513 271.759 69.8283 271.045 69.7957C269.441 69.7957 268.64 68.7052 268.64 67.3174V63.9965C268.64 62.6087 269.441 61.5183 271.045 61.5183C272.648 61.5183 273.601 62.6583 273.601 64.1452Z" fill="#323232"/>
<path d="M279.664 56.2148V70.9357H278.06V56.2148H279.664Z" fill="#323232"/>
<path fill-rule="evenodd" clip-rule="evenodd" d="M284.374 57.3055C284.374 56.7307 283.903 56.2646 283.322 56.2646C282.741 56.2646 282.27 56.7307 282.27 57.3055C282.27 57.8804 282.741 58.3464 283.322 58.3464C283.903 58.3464 284.374 57.8804 284.374 57.3055ZM284.124 70.936V60.329L282.52 60.2794V70.936H284.124Z" fill="#323232"/>
<path fill-rule="evenodd" clip-rule="evenodd" d="M290.337 60.0809C287.982 60.0809 286.579 61.6174 286.579 63.9965V67.1687C286.579 69.5478 287.982 71.0844 290.337 71.0844C291.503 71.1212 292.611 70.5825 293.294 69.647L293.544 70.8861H294.797V60.2791H293.544L293.294 61.5183C292.611 60.5827 291.503 60.044 290.337 60.0809ZM293.143 64.1452V67.1191C293.217 67.8226 292.977 68.523 292.486 69.0372C291.995 69.5513 291.302 69.8283 290.588 69.7957C288.984 69.7957 288.183 68.7052 288.183 67.3174V63.9965C288.183 62.6087 288.984 61.5183 290.588 61.5183C292.191 61.5183 293.143 62.6583 293.143 64.1452Z" fill="#323232"/>
<defs>
<linearGradient id="paint0_linear_10470_9849" x1="51.7528" y1="57.8616" x2="12.0655" y2="-0.100288" gradientUnits="userSpaceOnUse">
<stop stop-color="#BE0000"/>
<stop offset="0.3898" stop-color="#DE0000"/>
<stop offset="0.768" stop-color="#F60000"/>
<stop offset="1" stop-color="#FF0000"/>
</linearGradient>
<linearGradient id="paint1_linear_10470_9849" x1="40.7385" y1="31.6282" x2="41.2734" y2="25.5144" gradientUnits="userSpaceOnUse">
<stop offset="0.65" stop-color="white" stop-opacity="0"/>
<stop offset="0.7285" stop-color="#E0E0E0" stop-opacity="0.2617"/>
<stop offset="0.8148" stop-color="#C5C5C5" stop-opacity="0.5493"/>
<stop offset="0.8914" stop-color="#B5B5B5" stop-opacity="0.8047"/>
<stop offset="0.95" stop-color="#AFAFAF"/>
</linearGradient>
<linearGradient id="paint2_linear_10470_9849" x1="32.8811" y1="47.7614" x2="58.6136" y2="47.7614" gradientUnits="userSpaceOnUse">
<stop stop-color="white" stop-opacity="0"/>
<stop offset="0.0839" stop-color="#F1F1F1" stop-opacity="0.0932"/>
<stop offset="0.2921" stop-color="#D4D4D4" stop-opacity="0.3246"/>
<stop offset="0.4993" stop-color="#C0C0C0" stop-opacity="0.5548"/>
<stop offset="0.7032" stop-color="#B3B3B3" stop-opacity="0.7814"/>
<stop offset="0.9" stop-color="#AFAFAF"/>
</linearGradient>
<linearGradient id="paint3_linear_10470_9849" x1="0.742717" y1="21.0737" x2="29.5072" y2="21.0737" gradientUnits="userSpaceOnUse">
<stop offset="0.25" stop-color="white" stop-opacity="0"/>
<stop offset="0.4615" stop-color="#EDEDED" stop-opacity="0.282"/>
<stop offset="0.886" stop-color="#BDBDBD" stop-opacity="0.848"/>
<stop offset="1" stop-color="#AFAFAF"/>
</linearGradient>
</defs>
</svg>
