<svg width="200" height="30" viewBox="0 0 200 30" fill="none" xmlns="http://www.w3.org/2000/svg">
<path d="M147.05 7.92972C147.05 9.40893 146.425 10.5272 145.43 11.0819L146.988 13.5736H145.571L144.276 11.434C144.109 11.4693 143.942 11.4869 143.757 11.4869C141.802 11.4869 140.464 10.1133 140.464 7.92972V3.57132C140.464 1.38772 141.749 0.0141602 143.757 0.0141602C145.764 0.0141602 147.05 1.38772 147.05 3.57132V7.92972ZM141.626 7.96494C141.626 9.32089 142.401 10.3246 143.757 10.3246C145.113 10.3246 145.879 9.32089 145.879 7.96494V3.5361C145.879 2.18015 145.113 1.1764 143.757 1.1764C142.401 1.1764 141.626 2.18015 141.626 3.5361V7.96494Z" fill="#323232"/>
<path d="M149.806 11.3198L153.011 0.181641H154.182L157.413 11.3198H156.207L155.476 8.75756H151.663L150.95 11.3198H149.806ZM151.972 7.63935H155.185L153.557 1.925L151.972 7.63935Z" fill="#323232"/>
<path d="M166.958 11.3198H165.998L161.648 2.70863V11.3198H160.565V0.181641H161.604L165.875 8.66071V0.181641H166.958V11.3198Z" fill="#323232"/>
<path d="M170.048 0.181641H176.484V1.35269H173.843V11.3198H172.681V1.35269H170.039V0.181641H170.048Z" fill="#323232"/>
<path d="M177.928 11.3198L181.133 0.181641H182.304L185.536 11.3198H184.329L183.599 8.75756H179.786L179.073 11.3198H177.928ZM180.094 7.63935H183.308L181.679 1.925L180.094 7.63935Z" fill="#323232"/>
<path d="M193.231 3.3512V3.07825C193.231 1.96003 192.518 1.09716 191.268 1.09716C190.017 1.09716 189.331 1.79274 189.331 2.77888C189.331 3.56251 189.815 4.11722 190.475 4.40778L192.122 5.15619C193.266 5.66687 194.543 6.34485 194.543 8.2555C194.543 10.1662 193.214 11.4957 191.277 11.4957C189.339 11.4957 188.001 10.2894 188.001 8.36116V8.08821H189.146V8.42279C189.146 9.55862 189.921 10.3863 191.268 10.3863C192.615 10.3863 193.398 9.54101 193.398 8.40518C193.398 7.19892 192.624 6.72345 191.69 6.31843L190.273 5.67568C189.146 5.18261 188.212 4.37256 188.212 2.87574C188.212 1.19401 189.436 0.0141602 191.259 0.0141602C193.081 0.0141602 194.358 1.22042 194.358 3.14869V3.3512H193.231Z" fill="#323232"/>
<path d="M146.979 26.2527V26.6049C146.979 28.6916 145.667 29.9771 143.748 29.9771C141.828 29.9771 140.473 28.6036 140.473 26.42V22.0616C140.473 19.878 141.758 18.5044 143.748 18.5044C145.738 18.5044 146.979 19.7899 146.979 21.8767V22.132H145.87V21.8414C145.87 20.5911 145.104 19.6754 143.748 19.6754C142.392 19.6754 141.626 20.6792 141.626 22.0351V26.464C141.626 27.8199 142.401 28.8237 143.748 28.8237C145.095 28.8237 145.87 27.908 145.87 26.6577V26.2703H146.979V26.2527Z" fill="#323232"/>
<path d="M155.767 29.8095L154.032 25.3983C153.847 25.4159 153.759 25.4159 153.618 25.4159H151.76V29.8095H150.598V18.6714H153.68C155.635 18.6714 157.052 19.9745 157.052 21.9908C157.052 23.4788 156.321 24.597 155.194 25.0901L157.043 29.8007H155.775L155.767 29.8095ZM151.752 19.8072V24.2977H153.583C154.983 24.2977 155.855 23.382 155.855 22.0084C155.855 20.6349 154.983 19.8072 153.583 19.8072H151.752Z" fill="#323232"/>
<path d="M166.685 18.6714V26.4197C166.685 28.6033 165.373 29.9768 163.453 29.9768C161.534 29.9768 160.24 28.6033 160.24 26.4197V18.6714H161.402V26.4549C161.402 27.8108 162.15 28.8146 163.462 28.8146C164.774 28.8146 165.54 27.8108 165.54 26.4549V18.6714H166.702H166.685Z" fill="#323232"/>
<path d="M171.827 29.8095H170.664V18.6714H171.827V29.8095Z" fill="#323232"/>
<path d="M180.57 21.8414V21.5685C180.57 20.4503 179.857 19.5874 178.606 19.5874C177.356 19.5874 176.669 20.283 176.669 21.2691C176.669 22.0527 177.154 22.6075 177.814 22.898L179.46 23.6464C180.605 24.1571 181.882 24.8351 181.882 26.7457C181.882 28.6564 180.552 29.9859 178.615 29.9859C176.678 29.9859 175.34 28.7797 175.34 26.8514V26.5784H176.484V26.913C176.484 28.0489 177.259 28.8765 178.606 28.8765C179.953 28.8765 180.746 28.0312 180.746 26.8954C180.746 25.6892 179.971 25.2137 179.038 24.8087L177.62 24.1659C176.493 23.6728 175.56 22.8628 175.56 21.366C175.56 19.6842 176.775 18.5044 178.606 18.5044C180.438 18.5044 181.706 19.7107 181.706 21.6389V21.8414H180.579H180.57Z" fill="#323232"/>
<path d="M186.584 24.6944V28.6478H191.268V29.8188H185.43V18.6807H191.145V19.8517H186.584V23.5497H190.766V24.7032H186.584V24.6944Z" fill="#323232"/>
<path d="M199.104 21.8414V21.5685C199.104 20.4503 198.391 19.5874 197.141 19.5874C195.89 19.5874 195.204 20.283 195.204 21.2691C195.204 22.0527 195.688 22.6075 196.348 22.898L197.995 23.6464C199.139 24.1571 200.416 24.8351 200.416 26.7457C200.416 28.6564 199.086 29.9859 197.149 29.9859C195.212 29.9859 193.874 28.7797 193.874 26.8514V26.5784H195.019V26.913C195.019 28.0489 195.793 28.8765 197.141 28.8765C198.488 28.8765 199.271 28.0312 199.271 26.8954C199.271 25.6892 198.497 25.2137 197.563 24.8087L196.146 24.1659C195.019 23.6728 194.085 22.8628 194.085 21.366C194.085 19.6842 195.309 18.5044 197.132 18.5044C198.954 18.5044 200.231 19.7107 200.231 21.6389V21.8414H199.104Z" fill="#323232"/>
<path d="M129.431 0.0493164V29.9946" stroke="#323232" stroke-width="0.666673" stroke-miterlimit="10"/>
<path d="M87.6875 29.8276H118.108L93.7364 5.3501C90.4874 2.10111 86.085 0.172852 81.4889 0.172852H76.3909L76.7695 1.1678L78.46 5.59664L87.6963 29.8276H87.6875Z" fill="url(#paint0_linear_15605_1925)"/>
<path d="M78.4512 5.5963C81.7794 11.2842 90.5226 11.883 91.4736 20.723C91.5088 21.084 91.7905 21.3746 92.1515 21.4362C97.1879 22.2199 102.092 24.2978 106.354 27.7141C106.354 27.7141 106.415 27.7493 106.451 27.7493C106.486 27.7493 106.53 27.7317 106.556 27.7053C106.618 27.6436 106.618 27.5556 106.556 27.494C103.607 24.3947 99.9966 21.9117 95.9464 20.2828L94.7137 19.7897C94.0798 19.5344 93.6395 18.9092 93.6572 18.1872C93.7276 15.5458 99.979 16.0829 100.604 14.815L100.71 14.5949C99.4243 13.4943 97.8923 12.6666 96.2106 12.2087C96.1929 12.2704 96.1577 12.5785 96.5011 13.1421C96.8709 13.7496 96.0961 14.7093 94.9603 13.6704L94.8634 13.5823C86.4196 5.84284 80.0889 9.85785 76.743 1.17627L78.4336 5.60511L78.4512 5.5963Z" fill="white"/>
<path d="M98.7552 14.454C98.7552 14.454 97.3728 14.5245 96.5188 13.1421C96.7741 13.5559 96.4923 14.1282 95.9288 14.137V16.2414C96.8357 15.9773 97.8747 15.8188 98.7464 15.6339V14.4628L98.7552 14.454Z" fill="url(#paint1_linear_15605_1925)"/>
<path d="M93.1906 21.6213C97.8571 22.5194 102.383 24.5357 106.345 27.7143C97.5049 20.1597 93.4723 21.5244 93.1906 21.6213Z" fill="url(#paint2_linear_15605_1925)"/>
<path d="M80.2297 5.99254C78.8562 5.0152 77.6939 3.58001 76.7606 1.16748L78.4511 5.59632C81.7794 11.2843 90.5226 11.883 91.4735 20.7231C90.5138 9.43524 85.5567 11.1258 80.2297 5.99254Z" fill="url(#paint3_linear_15605_1925)"/>
<path d="M1.15344 6.49473V11.311H0V0.172852H5.71435V1.3439H1.15344V5.3413H5.33574V6.49473H1.15344Z" fill="#323232"/>
<path d="M14.299 11.311L12.5645 6.89976C12.3796 6.91737 12.2915 6.91737 12.1507 6.91737H10.2928V11.311H9.1394V0.172852H12.2211C14.1758 0.172852 15.5846 1.47597 15.5846 3.49228C15.5846 4.9803 14.8538 6.09852 13.7267 6.59159L15.5669 11.3022H14.299V11.311ZM10.2928 1.30868V5.79915H12.1242C13.5242 5.79915 14.3959 4.88345 14.3959 3.50989C14.3959 2.13633 13.5242 1.30868 12.1242 1.30868H10.2928Z" fill="#323232"/>
<path d="M20.1895 6.19537V10.1399H24.8648V11.311H19.0272V0.172852H24.7416V1.3439H20.1895V5.04193H24.363V6.19537H20.1895Z" fill="#323232"/>
<path d="M34.5415 7.92093C34.5415 9.40015 33.9163 10.5184 32.9302 11.0731L34.4798 13.5648H33.0623L31.7679 11.4253C31.6007 11.4605 31.4334 11.4781 31.2485 11.4781C29.2938 11.4781 27.9554 10.1045 27.9554 7.92093V3.56253C27.9554 1.37893 29.2321 0.00537109 31.2485 0.00537109C33.2648 0.00537109 34.5415 1.37893 34.5415 3.56253V7.92093ZM29.1177 7.95615C29.1177 9.3121 29.8925 10.3158 31.2485 10.3158C32.6044 10.3158 33.3616 9.3121 33.3616 7.95615V3.52731C33.3616 2.17136 32.5956 1.16761 31.2485 1.16761C29.9013 1.16761 29.1177 2.17136 29.1177 3.52731V7.95615Z" fill="#323232"/>
<path d="M44.3148 0.172852V7.92112C44.3148 10.1047 43.0029 11.4783 41.0834 11.4783C39.1639 11.4783 37.8696 10.1047 37.8696 7.92112V0.172852H39.0231V7.95634C39.0231 9.31228 39.7715 10.316 41.0834 10.316C42.3953 10.316 43.1525 9.31228 43.1525 7.95634V0.172852H44.306H44.3148Z" fill="#323232"/>
<path d="M49.2983 6.19537V10.1399H53.9737V11.311H48.1449V0.172852H53.8504V1.3439H49.2983V5.04193H53.4718V6.19537H49.2983Z" fill="#323232"/>
<path d="M63.844 11.311H62.8842L58.5434 2.69984V11.311H57.4604V0.172852H58.4994L62.761 8.65192V0.172852H63.844V11.311Z" fill="#323232"/>
<path d="M66.8024 0.172852H73.2299V1.3439H70.5973V11.311H69.435V1.3439H66.8024V0.172852Z" fill="#323232"/>
<path d="M32.032 24.9845V29.8007H30.8698V18.6626H36.5841V19.8336H32.032V23.831H36.2055V24.9845H32.032Z" fill="#323232"/>
<path d="M41.1627 28.6297H45.5387V29.8007H40.0093V18.6626H41.1627V28.6297Z" fill="#323232"/>
<path d="M48.0568 18.6626L50.3108 24.0864L52.5825 18.6626H53.7535L50.8567 25.3455V29.8007H49.7033V25.3631L46.8065 18.6626H48.0568Z" fill="#323232"/>
<path d="M58.156 24.6851V28.6297H62.8314V29.8007H56.9938V18.6626H62.7081V19.8336H58.156V23.5317H62.3295V24.6851H58.156Z" fill="#323232"/>
<path d="M71.4778 29.8007L69.7432 25.3895C69.5583 25.4071 69.4702 25.4071 69.3294 25.4071H67.4715V29.8007H66.3181V18.6626H69.3998C71.3457 18.6626 72.7633 19.9657 72.7633 21.982C72.7633 23.47 72.0325 24.5883 70.9054 25.0813L72.7457 29.7919H71.4778V29.8007ZM67.4715 19.7984V24.2889H69.303C70.7029 24.2889 71.5746 23.3732 71.5746 21.9996C71.5746 20.6261 70.7029 19.7984 69.303 19.7984H67.4715Z" fill="#323232"/>
<defs>
<linearGradient id="paint0_linear_15605_1925" x1="102.814" y1="29.7219" x2="82.5278" y2="0.0936094" gradientUnits="userSpaceOnUse">
<stop stop-color="#BE0000"/>
<stop offset="0.39" stop-color="#DD0000"/>
<stop offset="0.77" stop-color="#F60000"/>
<stop offset="1" stop-color="#FF0000"/>
</linearGradient>
<linearGradient id="paint1_linear_15605_1925" x1="97.2143" y1="16.3471" x2="97.4873" y2="13.2213" gradientUnits="userSpaceOnUse">
<stop offset="0.65" stop-color="white" stop-opacity="0"/>
<stop offset="0.69" stop-color="#ECECEC" stop-opacity="0.0529"/>
<stop offset="0.76" stop-color="#D6D6D6" stop-opacity="0.25"/>
<stop offset="0.81" stop-color="#C5C5C5" stop-opacity="0.5184"/>
<stop offset="0.87" stop-color="#B9B9B9" stop-opacity="0.7569"/>
<stop offset="0.91" stop-color="#B1B1B1" stop-opacity="0.9409"/>
<stop offset="0.95" stop-color="#AFAFAF"/>
</linearGradient>
<linearGradient id="paint2_linear_15605_1925" x1="93.1906" y1="24.5973" x2="106.354" y2="24.5973" gradientUnits="userSpaceOnUse">
<stop stop-color="white" stop-opacity="0"/>
<stop offset="0.07" stop-color="#F3F3F3" stop-opacity="0.0225"/>
<stop offset="0.21" stop-color="#DEDEDE" stop-opacity="0.1681"/>
<stop offset="0.35" stop-color="#CDCDCD" stop-opacity="0.3844"/>
<stop offset="0.49" stop-color="#C0C0C0" stop-opacity="0.6241"/>
<stop offset="0.63" stop-color="#B6B6B6" stop-opacity="0.8281"/>
<stop offset="0.77" stop-color="#B0B0B0" stop-opacity="0.9604"/>
<stop offset="0.9" stop-color="#AFAFAF"/>
</linearGradient>
<linearGradient id="paint3_linear_15605_1925" x1="76.7606" y1="10.9497" x2="91.4647" y2="10.9497" gradientUnits="userSpaceOnUse">
<stop offset="0.25" stop-color="white" stop-opacity="0"/>
<stop offset="0.36" stop-color="#F6F6F6" stop-opacity="0.0121"/>
<stop offset="0.58" stop-color="#E0E0E0" stop-opacity="0.1444"/>
<stop offset="0.88" stop-color="#BDBDBD" stop-opacity="0.6724"/>
<stop offset="1" stop-color="#AFAFAF"/>
</linearGradient>
</defs>
</svg>
