<svg width="48" height="48" viewBox="0 0 48 48" fill="none" xmlns="http://www.w3.org/2000/svg">
<path d="M28.4699 45.7498H19.3499C18.2599 45.7498 17.3799 44.8598 17.3799 43.7698V40.3098C15.8199 39.6998 14.3399 38.8498 13.0099 37.7998L9.88986 39.5098C8.92986 40.0298 7.75986 39.7098 7.21986 38.7698L2.66986 30.8898C2.39986 30.4398 2.32986 29.8998 2.45986 29.3898C2.58986 28.8798 2.91986 28.4498 3.37986 28.1798L6.51986 26.3798C6.22986 24.7298 6.22986 23.0198 6.48986 21.3298L3.79986 19.8198C3.33986 19.5598 2.99986 19.1298 2.85986 18.6198C2.71986 18.1098 2.78986 17.5698 3.05986 17.1098L7.61986 9.13979C7.87986 8.67979 8.29986 8.35979 8.80986 8.21979C9.31986 8.07979 9.85986 8.14979 10.3199 8.40979L13.3199 10.1098C14.5699 9.10979 15.9999 8.29979 17.5199 7.69979V4.25979C17.5199 3.16979 18.4099 2.27979 19.4899 2.27979H28.6099C29.6999 2.27979 30.5799 3.16979 30.5799 4.25979V7.86979C32.0699 8.43979 33.4799 9.24979 34.7799 10.2398L37.6399 8.57979C38.5699 8.02979 39.7899 8.33979 40.3499 9.28979L44.8799 17.1098C45.1499 17.5798 45.2199 18.1198 45.0799 18.6398C44.9399 19.1598 44.5999 19.5898 44.1299 19.8498L41.3099 21.3898C41.5799 23.0098 41.5799 24.6598 41.3399 26.2798L44.6199 28.1998C44.6199 28.1998 44.6199 28.1998 44.6299 28.1998C45.5599 28.7598 45.8699 29.9398 45.3399 30.8898L40.7599 38.8598C40.5099 39.3098 40.0599 39.6598 39.5499 39.7898C39.0299 39.9298 38.4699 39.8398 38.0199 39.5598L34.9099 37.6698C33.6299 38.7598 32.1099 39.6598 30.4399 40.3398V43.7798C30.4399 44.8698 29.5599 45.7598 28.4699 45.7598V45.7498ZM13.0099 35.7898C13.4499 35.7898 13.8899 35.9398 14.2499 36.2398C15.4199 37.1598 16.7299 37.9198 18.1299 38.4798C18.8799 38.7798 19.3699 39.4998 19.3699 40.3098V43.7698L28.4599 43.7498L28.4299 40.2998C28.4299 39.4898 28.9199 38.7798 29.6799 38.4698C31.1599 37.8698 32.5099 37.0798 33.6699 36.1098C34.3399 35.5698 35.2299 35.5098 35.9399 35.9398L39.0499 37.8298L43.5899 29.8798L40.2899 27.9398C39.5899 27.5298 39.2299 26.7398 39.3599 25.9298C39.5699 24.5198 39.5699 23.0498 39.3599 21.5998C39.2299 20.7898 39.6299 19.9798 40.3499 19.5798L43.1599 18.0398L38.6299 10.2398L35.7499 11.9298C35.0399 12.3298 34.1799 12.2598 33.5599 11.7598C32.4099 10.8898 31.1499 10.1598 29.8299 9.62979C29.0799 9.32979 28.5899 8.61979 28.5899 7.81979V4.20979L19.4999 4.22979L19.5299 7.68979C19.5299 8.48979 19.0399 9.20979 18.2699 9.51979C16.9199 10.0598 15.6499 10.7798 14.5099 11.6498C13.8699 12.1398 13.0199 12.1998 12.3399 11.8098L9.34986 10.1198L4.80986 18.0898L7.51986 19.6098C8.21986 19.9898 8.60986 20.8098 8.48986 21.6298C8.25986 23.1098 8.25986 24.6098 8.48986 26.0898C8.61986 26.8998 8.24986 27.6998 7.53986 28.0998L4.39986 29.8998L8.95986 37.7598L12.0899 36.0098C12.3899 35.8498 12.7099 35.7698 13.0199 35.7698L13.0099 35.7898Z" fill="#323232"/>
<path d="M23.9999 35.8302C17.4799 35.8302 12.1699 30.5202 12.1699 24.0002C12.1699 17.4802 17.4799 12.1802 23.9999 12.1802C30.5199 12.1802 35.8299 17.4802 35.8299 24.0002C35.8299 30.5202 30.5199 35.8302 23.9999 35.8302ZM23.9999 14.1702C18.5799 14.1702 14.1699 18.5802 14.1699 23.9902C14.1699 29.4002 18.5799 33.8202 23.9999 33.8202C29.4199 33.8202 33.8299 29.4102 33.8299 23.9902C33.8299 18.5702 29.4199 14.1702 23.9999 14.1702Z" fill="#323232"/>
<path d="M29.3302 20.2C29.7502 19.78 29.7502 19.09 29.3302 18.67C28.9102 18.25 28.2202 18.25 27.8002 18.67L25.2102 21.26C25.1302 21.34 25.0202 21.38 24.9102 21.36L18.6802 20.57C18.3502 20.53 18.0202 20.64 17.7902 20.87L17.5102 21.15C17.3402 21.32 17.3802 21.61 17.6002 21.72L21.8802 23.93C22.0902 24.04 22.1402 24.33 21.9702 24.5L20.1802 26.29C20.1802 26.29 20.0902 26.35 20.0402 26.34L17.9102 26.04C17.7402 26.02 17.5702 26.07 17.4602 26.19C17.3602 26.29 17.2402 26.42 17.1402 26.52C17.0502 26.61 17.0802 26.75 17.2002 26.8C17.8102 27.06 19.4202 27.74 19.8902 27.94C19.9702 27.98 20.0402 28.04 20.0802 28.13C20.2802 28.6 20.9702 30.22 21.2202 30.82C21.2702 30.93 21.4102 30.96 21.5002 30.88C21.6002 30.78 21.7302 30.66 21.8302 30.56C21.9502 30.44 22.0102 30.27 21.9802 30.11L21.6802 27.98C21.6802 27.93 21.6902 27.87 21.7302 27.84L23.5202 26.05C23.6902 25.88 23.9802 25.92 24.0902 26.14L26.3002 30.42C26.4102 30.63 26.7002 30.68 26.8702 30.51L27.1502 30.23C27.3802 30 27.5002 29.67 27.4502 29.34L26.6602 23.11C26.6502 23 26.6802 22.89 26.7602 22.81L29.3502 20.22L29.3302 20.2Z" fill="#DF0000"/>
</svg>
