<svg width="24" height="24" viewBox="0 0 24 24" fill="none" xmlns="http://www.w3.org/2000/svg">
<g clip-path="url(#clip0_16335_7559)">
<path d="M20.4851 20.4853C25.1714 15.799 25.1714 8.20101 20.4851 3.51472C15.7988 -1.17157 8.20081 -1.17157 3.51452 3.51472C-1.17177 8.20101 -1.17177 15.799 3.51452 20.4853C8.20081 25.1716 15.7988 25.1716 20.4851 20.4853Z" fill="white"/>
<mask id="mask0_16335_7559" style="mask-type:luminance" maskUnits="userSpaceOnUse" x="-1" y="0" width="25" height="24">
<path d="M20.4851 20.4853C25.1714 15.799 25.1714 8.20101 20.4851 3.51472C15.7988 -1.17157 8.20081 -1.17157 3.51452 3.51472C-1.17177 8.20101 -1.17177 15.799 3.51452 20.4853C8.20081 25.1716 15.7988 25.1716 20.4851 20.4853Z" fill="white"/>
</mask>
<g mask="url(#mask0_16335_7559)">
<path d="M30.0007 0H-5.99927V24H30.0007V0Z" fill="white"/>
<path d="M30.0007 0H-5.99927V5.47665H30.0007V0Z" fill="#FF0000"/>
<path d="M30.0007 18.5234H-5.99927V24.0001H30.0007V18.5234Z" fill="#FF0000"/>
<path fill-rule="evenodd" clip-rule="evenodd" d="M17.3565 14.1605C17.2727 14.3688 17.1763 14.5714 17.07 14.767H14.8621C14.9319 14.7167 14.9976 14.6608 15.0591 14.6007C15.1471 14.5127 15.2254 14.4135 15.2897 14.3073C15.3665 14.3296 15.4476 14.3422 15.5328 14.3422C15.7201 14.3422 15.8934 14.2821 16.0345 14.1815C16.2344 14.039 16.4649 13.9635 16.7095 13.9635C16.9541 13.9635 17.1637 14.032 17.3565 14.1619V14.1605ZM14.4512 17.2294C13.7078 17.5787 12.8763 17.7744 12.0001 17.7744C11.1239 17.7744 10.2938 17.5787 9.54891 17.2294C9.69285 17.207 9.82701 17.1553 9.9416 17.0812C10.1624 16.9387 10.4195 16.8632 10.692 16.8632C10.9645 16.8632 11.2217 16.9387 11.4425 17.0812C11.6004 17.1818 11.7932 17.2419 12.0001 17.2419C12.2069 17.2419 12.4011 17.1832 12.5576 17.0812C12.7784 16.9387 13.0356 16.8632 13.3081 16.8632C13.5806 16.8632 13.8377 16.9387 14.0585 17.0812C14.1731 17.1553 14.3059 17.2056 14.4512 17.2294ZM15.8836 16.2735C15.7159 16.4258 15.5398 16.5684 15.354 16.6997H8.64615C8.46169 16.5684 8.28421 16.4258 8.11651 16.2735C8.30797 16.2665 8.48544 16.2078 8.63218 16.1142C8.85298 15.9716 9.11011 15.8962 9.38261 15.8962C9.65512 15.8962 9.91225 15.9716 10.1331 16.1142C10.291 16.2148 10.4838 16.2749 10.6906 16.2749C10.8975 16.2749 11.0917 16.2162 11.2482 16.1142C11.469 15.9716 11.7262 15.8962 11.9987 15.8962C12.2712 15.8962 12.5283 15.9716 12.7491 16.1142C12.907 16.2148 13.0999 16.2749 13.3067 16.2749C13.5135 16.2749 13.7078 16.2162 13.8643 16.1142C14.0851 15.9716 14.3422 15.8962 14.6147 15.8962C14.8872 15.8962 15.1443 15.9716 15.3651 16.1142C15.5119 16.2078 15.6894 16.2665 15.8808 16.2735H15.8836ZM16.7444 15.2911C16.6382 15.4434 16.525 15.5915 16.4049 15.7327H7.59526C7.47508 15.5915 7.36188 15.4434 7.25568 15.2911C7.38424 15.2673 7.50303 15.217 7.60644 15.1471C7.81466 15.0046 8.05502 14.9291 8.31216 14.9291C8.56929 14.9291 8.80965 15.0046 9.01788 15.1471C9.16601 15.2478 9.34768 15.3078 9.54192 15.3078C9.73617 15.3078 9.91784 15.2492 10.066 15.1471C10.2742 15.0046 10.5146 14.9291 10.7717 14.9291C11.0288 14.9291 11.2692 15.0046 11.4774 15.1471C11.6255 15.2478 11.8072 15.3078 12.0015 15.3078C12.1957 15.3078 12.3774 15.2492 12.5255 15.1471C12.7337 15.0046 12.9741 14.9291 13.2312 14.9291C13.4884 14.9291 13.7287 15.0046 13.9369 15.1471C14.0851 15.2478 14.2667 15.3078 14.461 15.3078C14.6552 15.3078 14.8369 15.2492 14.985 15.1471C15.1933 15.0046 15.4336 14.9291 15.6908 14.9291C15.9479 14.9291 16.1882 15.0046 16.3965 15.1471C16.4999 15.217 16.6187 15.2673 16.7472 15.2911H16.7444ZM13.0356 14.7656H10.9659C11.2091 14.591 11.4005 14.3492 11.5123 14.0697C11.6647 13.9984 11.8296 13.9607 12.0015 13.9607C12.1733 13.9607 12.3382 13.9984 12.4906 14.0697C12.6024 14.3492 12.7924 14.591 13.037 14.7656H13.0356ZM9.13946 14.7656H6.93147C6.82526 14.57 6.72883 14.3674 6.64499 14.1591C6.83784 14.0292 7.05864 13.9607 7.29201 13.9607C7.53796 13.9607 7.76855 14.0362 7.96698 14.1787C8.10813 14.2793 8.28281 14.3394 8.46867 14.3394C8.55252 14.3394 8.63497 14.3268 8.71183 14.3045C8.77751 14.4121 8.85437 14.5099 8.94241 14.5979C9.0025 14.658 9.06818 14.7139 9.13946 14.7642V14.7656ZM17.6863 13.0104C17.6388 13.2801 17.5717 13.5429 17.4893 13.7986H15.4881C15.5077 13.698 15.5189 13.5946 15.5189 13.4898V12.9937C15.7732 12.9937 16.001 13.0635 16.2078 13.2117C16.349 13.3123 16.5222 13.3724 16.7095 13.3724C16.8968 13.3724 17.07 13.3123 17.2112 13.2117C17.3551 13.1082 17.5158 13.0398 17.6849 13.0104H17.6863ZM12.4081 13.7986H11.592C11.6116 13.698 11.6227 13.5946 11.6227 13.4898V13.3207C11.6227 13.3095 11.6227 13.2969 11.6199 13.2857C11.7345 13.3416 11.8645 13.3738 12.0001 13.3738C12.1356 13.3738 12.2656 13.3416 12.3802 13.2857C12.3788 13.2969 12.3774 13.3081 12.3774 13.3207V13.4898C12.3774 13.596 12.3872 13.6994 12.4081 13.7986ZM8.51339 13.7986H6.51223C6.42838 13.5429 6.3627 13.2801 6.31519 13.0104C6.48568 13.0398 6.64638 13.1082 6.79032 13.2117C6.93286 13.3123 7.10475 13.3724 7.29201 13.3724C7.47927 13.3724 7.65256 13.3123 7.7937 13.2117C8.00052 13.0635 8.22831 12.9937 8.48265 12.9937V13.4898C8.48265 13.596 8.49383 13.6994 8.51339 13.7986Z" fill="#003399"/>
<path fill-rule="evenodd" clip-rule="evenodd" d="M13.3849 6.39349C13.8181 6.49969 14.2318 6.65481 14.6203 6.85325L13.3919 9.13251V8.48968C13.3919 8.32618 13.2591 8.19202 13.0942 8.19202C13.016 8.19202 12.9419 8.18084 12.8706 8.15988L13.3849 6.39209V6.39349ZM10.6095 9.13251L9.38118 6.85325C9.76968 6.65481 10.1833 6.49969 10.6165 6.39349L10.7241 6.76521C10.6501 6.9343 10.6095 7.12156 10.6095 7.32V9.13391V9.13251ZM15.0744 7.11178L13.3905 9.75718V10.5076L14.4106 9.47489C14.3855 9.42458 14.3715 9.36728 14.3715 9.30719C14.3715 9.22055 14.4023 9.1395 14.4526 9.07382C14.4009 9.00953 14.3715 8.92708 14.3715 8.83904C14.3715 8.71886 14.4693 8.62104 14.5895 8.62104H15.2533L16.0163 7.84824C15.7298 7.57015 15.414 7.3228 15.0758 7.10899L15.0744 7.11178ZM16.3573 8.21158C16.655 8.55396 16.9121 8.93128 17.1245 9.33654L15.5021 10.1317C15.4881 10.087 15.4657 10.0451 15.4378 10.0087C15.4881 9.94444 15.5188 9.86338 15.5188 9.77534C15.5188 9.6873 15.4881 9.60485 15.4378 9.54057C15.4881 9.47629 15.5188 9.39523 15.5188 9.30719C15.5188 9.21915 15.4881 9.1381 15.4378 9.07382C15.4643 9.04028 15.4839 9.00394 15.4979 8.96342L16.3573 8.21019V8.21158ZM14.3715 10.6851L13.3919 11.1644V10.8081L14.4023 9.92347C14.4162 9.95422 14.433 9.98356 14.454 10.0101C14.4023 10.0744 14.3715 10.1555 14.3715 10.2435V10.6851ZM17.3299 9.77674C17.5046 10.196 17.6318 10.6418 17.7045 11.1043L15.5174 11.2622V10.5062L17.3299 9.77674ZM14.3715 11.3461V10.9688L13.2298 11.4285L14.3715 11.3461ZM17.759 11.5795C17.7687 11.7192 17.7743 11.859 17.7743 12.0015C17.7743 12.3034 17.7506 12.5982 17.7073 12.8875H15.5188V11.5795H17.759ZM8.48261 12.8861H6.29419C6.24947 12.5968 6.22711 12.302 6.22711 12.0001C6.22711 11.859 6.2327 11.7178 6.24248 11.5781H8.48261V12.8861ZM6.29559 11.1043C6.36826 10.6418 6.49403 10.196 6.67011 9.77674L8.48261 10.5062V11.2622L6.29559 11.1043ZM9.62993 10.9702L10.7717 11.4299L9.62993 11.3475V10.9702ZM6.87553 9.33794L8.49938 10.1331C8.51336 10.0884 8.53572 10.0465 8.56367 10.0101C8.51336 9.94583 8.48261 9.86478 8.48261 9.77674C8.48261 9.6887 8.51336 9.60625 8.56367 9.54197C8.51336 9.47768 8.48261 9.39663 8.48261 9.30859C8.48261 9.22055 8.51336 9.1395 8.56367 9.07522C8.53851 9.04168 8.51755 9.00534 8.50358 8.96482L7.64274 8.21158C7.34508 8.55396 7.08655 8.93128 6.87553 9.33654V9.33794ZM9.59919 9.92487C9.58521 9.95562 9.56844 9.98496 9.54748 10.0115C9.59919 10.0758 9.62993 10.1569 9.62993 10.2449V10.6865L10.6095 11.1672V10.8109L9.59919 9.92627V9.92487ZM7.98512 7.85104L8.74813 8.62384H9.41193C9.53211 8.62384 9.62993 8.72166 9.62993 8.84184C9.62993 8.92988 9.59919 9.01233 9.54888 9.07661C9.59919 9.1409 9.62993 9.22195 9.62993 9.30999C9.62993 9.37008 9.61595 9.42738 9.5908 9.47768L10.6109 10.5104V9.75997L8.92701 7.11458C8.58742 7.32839 8.273 7.57574 7.98652 7.85383L7.98512 7.85104Z" fill="#FEA000"/>
<path fill-rule="evenodd" clip-rule="evenodd" d="M9.711 12.7239C9.66628 12.7239 9.62994 12.7602 9.62994 12.8049C9.62994 12.8496 9.66628 12.886 9.711 12.886H14.2905C14.3352 12.886 14.3715 12.8496 14.3715 12.8049C14.3715 12.7602 14.3352 12.7239 14.2905 12.7239H9.711Z" fill="#7C0000"/>
<path fill-rule="evenodd" clip-rule="evenodd" d="M10.5313 12.3395C10.5634 12.3716 10.5634 12.4219 10.5313 12.4541C10.4991 12.4862 10.4488 12.4862 10.4167 12.4541L10.133 12.1704L9.84933 12.4541C9.81719 12.4862 9.76688 12.4862 9.73474 12.4541C9.7026 12.4219 9.7026 12.3716 9.73474 12.3395L10.0184 12.0558L9.73474 11.7721C9.7026 11.74 9.7026 11.6897 9.73474 11.6575C9.76688 11.6254 9.81719 11.6254 9.84933 11.6575L10.052 11.8602V11.6282C10.052 11.5835 10.0883 11.5471 10.133 11.5471C10.1777 11.5471 10.2141 11.5835 10.2141 11.6282V11.8602L10.4167 11.6575C10.4488 11.6254 10.4991 11.6254 10.5313 11.6575C10.5634 11.6897 10.5634 11.74 10.5313 11.7721L10.2476 12.0558L10.5313 12.3395Z" fill="#7C0000"/>
<path fill-rule="evenodd" clip-rule="evenodd" d="M12.3983 12.3395C12.4304 12.3716 12.4304 12.4219 12.3983 12.4541C12.3662 12.4862 12.3158 12.4862 12.2837 12.4541L12 12.1704L11.7163 12.4541C11.6842 12.4862 11.6339 12.4862 11.6017 12.4541C11.5696 12.4219 11.5696 12.3716 11.6017 12.3395L11.8854 12.0558L11.6017 11.7721C11.5696 11.74 11.5696 11.6897 11.6017 11.6575C11.6339 11.6254 11.6842 11.6254 11.7163 11.6575L11.919 11.8602V11.6282C11.919 11.5835 11.9553 11.5471 12 11.5471C12.0447 11.5471 12.0811 11.5835 12.0811 11.6282V11.8602L12.2837 11.6575C12.3158 11.6254 12.3662 11.6254 12.3983 11.6575C12.4304 11.6897 12.4304 11.74 12.3983 11.7721L12.1146 12.0558L12.3983 12.3395Z" fill="#7C0000"/>
<path fill-rule="evenodd" clip-rule="evenodd" d="M11.4648 12.3395C11.497 12.3716 11.497 12.4219 11.4648 12.4541C11.4327 12.4862 11.3824 12.4862 11.3502 12.4541L11.0665 12.1704L10.7829 12.4541C10.7507 12.4862 10.7004 12.4862 10.6683 12.4541C10.6361 12.4219 10.6361 12.3716 10.6683 12.3395L10.952 12.0558L10.6683 11.7721C10.6361 11.74 10.6361 11.6897 10.6683 11.6575C10.7004 11.6254 10.7507 11.6254 10.7829 11.6575L10.9855 11.8602V11.6282C10.9855 11.5835 11.0218 11.5471 11.0665 11.5471C11.1113 11.5471 11.1476 11.5835 11.1476 11.6282V11.8602L11.3502 11.6575C11.3824 11.6254 11.4327 11.6254 11.4648 11.6575C11.497 11.6897 11.497 11.74 11.4648 11.7721L11.1811 12.0558L11.4648 12.3395Z" fill="#7C0000"/>
<path fill-rule="evenodd" clip-rule="evenodd" d="M14.2653 12.3395C14.2974 12.3716 14.2974 12.4219 14.2653 12.4541C14.2332 12.4862 14.1829 12.4862 14.1507 12.4541L13.867 12.1704L13.5833 12.4541C13.5512 12.4862 13.5009 12.4862 13.4687 12.4541C13.4366 12.4219 13.4366 12.3716 13.4687 12.3395L13.7524 12.0558L13.4687 11.7721C13.4366 11.74 13.4366 11.6897 13.4687 11.6575C13.5009 11.6254 13.5512 11.6254 13.5833 11.6575L13.786 11.8602V11.6282C13.786 11.5835 13.8223 11.5471 13.867 11.5471C13.9117 11.5471 13.9481 11.5835 13.9481 11.6282V11.8602L14.1507 11.6575C14.1829 11.6254 14.2332 11.6254 14.2653 11.6575C14.2974 11.6897 14.2974 11.74 14.2653 11.7721L13.9816 12.0558L14.2653 12.3395Z" fill="#7C0000"/>
<path fill-rule="evenodd" clip-rule="evenodd" d="M13.3318 12.3395C13.364 12.3716 13.364 12.4219 13.3318 12.4541C13.2997 12.4862 13.2494 12.4862 13.2172 12.4541L12.9336 12.1704L12.6499 12.4541C12.6177 12.4862 12.5674 12.4862 12.5353 12.4541C12.5031 12.4219 12.5031 12.3716 12.5353 12.3395L12.819 12.0558L12.5353 11.7721C12.5031 11.74 12.5031 11.6897 12.5353 11.6575C12.5674 11.6254 12.6177 11.6254 12.6499 11.6575L12.8525 11.8602V11.6282C12.8525 11.5835 12.8888 11.5471 12.9336 11.5471C12.9783 11.5471 13.0146 11.5835 13.0146 11.6282V11.8602L13.2172 11.6575C13.2494 11.6254 13.2997 11.6254 13.3318 11.6575C13.364 11.6897 13.364 11.74 13.3318 11.7721L13.0481 12.0558L13.3318 12.3395Z" fill="#7C0000"/>
<path fill-rule="evenodd" clip-rule="evenodd" d="M12 6.22705C12.1663 6.22705 12.3326 6.23404 12.4961 6.24801C12.6624 6.26199 12.8273 6.28295 12.9894 6.3109C13.0216 6.31649 13.0439 6.34723 13.0383 6.37937C13.0341 6.40732 13.0104 6.42689 12.9824 6.42829C12.7225 6.45623 12.4905 6.58061 12.3256 6.76507C12.1607 6.94814 12.0601 7.1913 12.0601 7.45682C12.0601 7.7419 12.1761 8.00043 12.3634 8.18769C12.5506 8.37495 12.8091 8.49094 13.0942 8.49094C13.1264 8.49094 13.1543 8.51749 13.1543 8.55103V11.3138C13.1543 11.346 13.1278 11.3725 13.0942 11.3725L13.0747 11.3697L10.8918 10.7842C10.8653 10.7772 10.8485 10.7534 10.8485 10.7269V7.37996C10.8485 7.05994 10.9757 6.77486 11.1825 6.56803C11.3907 6.35981 11.68 6.23124 12.0014 6.22705H12Z" fill="#7C0000"/>
<path fill-rule="evenodd" clip-rule="evenodd" d="M12.4864 6.36544C12.3271 6.35147 12.1636 6.34448 12.0001 6.34448C11.7122 6.34728 11.4523 6.46327 11.265 6.65053C11.0805 6.83499 10.9659 7.09212 10.9659 7.3786V10.6808L13.0342 11.2356V8.60837C12.7393 8.593 12.4738 8.46723 12.2782 8.27158C12.0699 8.06336 11.94 7.77409 11.94 7.45686C11.94 7.1606 12.0518 6.88949 12.2362 6.68546C12.3536 6.5541 12.5018 6.45069 12.6694 6.38361L12.4864 6.36544Z" fill="#FF0000"/>
<path fill-rule="evenodd" clip-rule="evenodd" d="M12.6498 13.0481C12.8581 13.3611 13.213 13.568 13.6169 13.568C13.7413 13.568 13.8614 13.5484 13.9746 13.5121C13.8656 13.3164 13.7007 13.1543 13.5023 13.0495H12.6484L12.6498 13.0481Z" fill="#7C0000"/>
<path fill-rule="evenodd" clip-rule="evenodd" d="M15.1387 9.06245L15.129 9.06664C15.129 9.06664 15.1248 9.07223 15.1248 9.07503C15.1248 9.07782 15.1262 9.08202 15.129 9.08341L15.1387 9.089C15.1988 9.089 15.2547 9.11416 15.2939 9.15329C15.333 9.19242 15.3581 9.24831 15.3581 9.3084C15.3581 9.3685 15.333 9.42439 15.2925 9.46352C15.2519 9.50265 15.196 9.52781 15.1359 9.52781L15.1276 9.532C15.1276 9.532 15.1234 9.53899 15.1234 9.54178C15.1234 9.54458 15.1248 9.54877 15.1276 9.55016L15.1373 9.55575C15.1974 9.55575 15.2533 9.58091 15.2925 9.62004C15.3316 9.65917 15.3567 9.71507 15.3567 9.77516C15.3567 9.83525 15.3316 9.89115 15.2911 9.93027C15.2505 9.9694 15.1946 9.99456 15.1345 9.99456L15.1262 9.99875C15.1262 9.99875 15.122 10.0057 15.122 10.0085C15.122 10.0113 15.1234 10.0155 15.1262 10.0169L15.1359 10.0225C15.196 10.0225 15.2519 10.0477 15.2911 10.0868C15.3302 10.1259 15.3553 10.1818 15.3553 10.2419V13.4868C15.3553 13.8767 15.1974 14.2289 14.9417 14.4846C14.686 14.7403 14.3338 14.8983 13.9439 14.8983C13.554 14.8983 13.2019 14.7403 12.9461 14.4846C12.6904 14.2289 12.5325 13.8767 12.5325 13.4868V13.3177C12.5325 13.2856 12.559 13.259 12.5912 13.259C12.6107 13.259 12.6275 13.2688 12.6387 13.2828C12.7589 13.4211 12.9084 13.5329 13.0761 13.6098C13.2382 13.6839 13.4213 13.7258 13.6127 13.7258C13.7916 13.7258 13.9621 13.6894 14.1158 13.6238H14.1186C14.2709 13.5581 14.4079 13.4645 14.5239 13.3499V10.2447C14.5239 10.1846 14.549 10.1287 14.5895 10.0896C14.6301 10.0505 14.686 10.0253 14.746 10.0253L14.7544 10.0211C14.7544 10.0211 14.7586 10.0155 14.7586 10.0113C14.7586 10.0085 14.7572 10.0043 14.7544 10.0029L14.7447 9.99735C14.6846 9.99735 14.6287 9.9722 14.5895 9.93307L14.5867 9.92888C14.549 9.88975 14.5253 9.83525 14.5253 9.77655C14.5253 9.71786 14.5504 9.66056 14.5909 9.62144C14.6315 9.58231 14.6874 9.55715 14.7474 9.55715L14.7558 9.55296C14.7558 9.55296 14.76 9.54737 14.76 9.54318C14.76 9.54038 14.7586 9.53619 14.7558 9.53479L14.746 9.5292C14.686 9.5292 14.6301 9.50405 14.5909 9.46492L14.5881 9.46073C14.5504 9.4216 14.5266 9.3671 14.5266 9.3084C14.5266 9.24971 14.5518 9.19242 14.5923 9.15329C14.6329 9.11416 14.6888 9.089 14.7488 9.089L14.7572 9.08481C14.7572 9.08481 14.7614 9.07922 14.7614 9.07503C14.7614 9.07223 14.76 9.06804 14.7572 9.06664L14.7474 9.06105C14.6874 9.06105 14.6315 9.0359 14.5923 8.99677C14.5532 8.95764 14.528 8.90174 14.528 8.84165C14.528 8.80951 14.5546 8.78296 14.5867 8.78296H15.298C15.3302 8.78296 15.3567 8.80951 15.3567 8.84165C15.3567 8.90174 15.3316 8.95764 15.2925 8.99677C15.2533 9.0359 15.1974 9.06105 15.1359 9.06105L15.1387 9.06245Z" fill="#7C0000"/>
<path fill-rule="evenodd" clip-rule="evenodd" d="M15.2212 8.90186H14.6678C14.686 8.92701 14.7167 8.94378 14.7503 8.94378C14.8229 8.94518 14.8816 9.00387 14.8816 9.07654C14.8816 9.14921 14.8243 9.2079 14.7516 9.2093C14.6957 9.2093 14.6482 9.25402 14.6482 9.30991C14.6482 9.36581 14.693 9.41053 14.7503 9.41053C14.8229 9.41193 14.8816 9.47062 14.8816 9.54329C14.8816 9.61596 14.8243 9.67325 14.7516 9.67605C14.6957 9.67605 14.6482 9.72077 14.6482 9.77667C14.6482 9.83256 14.693 9.87728 14.7503 9.87728C14.8229 9.87868 14.8816 9.93737 14.8816 10.01C14.8816 10.0827 14.8243 10.14 14.7516 10.1428C14.6957 10.1428 14.6482 10.1875 14.6482 10.2434V13.3975L14.6315 13.4143C14.3646 13.6896 14.0012 13.8447 13.6169 13.8447C13.2564 13.8447 12.9154 13.7091 12.6555 13.466V13.4883C12.6555 14.2024 13.234 14.781 13.9481 14.781C14.6622 14.781 15.2408 14.2024 15.2408 13.4883V10.2434C15.2408 10.1875 15.196 10.1428 15.1387 10.1428C15.0661 10.1414 15.0074 10.0827 15.0074 10.01C15.0074 9.93737 15.0647 9.88008 15.1373 9.87728C15.1932 9.87728 15.2408 9.83256 15.2408 9.77667C15.2408 9.72077 15.196 9.67605 15.1387 9.67605C15.0661 9.67465 15.0074 9.61596 15.0074 9.54329C15.0074 9.47062 15.0647 9.41193 15.1373 9.41053C15.1932 9.41053 15.2408 9.36581 15.2408 9.30991C15.2408 9.25402 15.196 9.2093 15.1387 9.2093C15.0661 9.2079 15.0074 9.14921 15.0074 9.07654C15.0074 9.00387 15.0675 8.94657 15.1387 8.94378C15.1723 8.94378 15.203 8.92701 15.2212 8.90186Z" fill="#FF0000"/>
<path fill-rule="evenodd" clip-rule="evenodd" d="M11.3502 13.0481C11.142 13.3611 10.787 13.568 10.3831 13.568C10.2588 13.568 10.1372 13.5484 10.0254 13.5121C10.1344 13.3164 10.2993 13.1543 10.4977 13.0495H11.3516L11.3502 13.0481Z" fill="#7C0000"/>
<path fill-rule="evenodd" clip-rule="evenodd" d="M8.86131 9.06245L8.87109 9.06664C8.87109 9.06664 8.87528 9.07223 8.87528 9.07503C8.87528 9.07782 8.87389 9.08202 8.87109 9.08341L8.86131 9.089C8.80122 9.089 8.74532 9.11416 8.70619 9.15329C8.66706 9.19242 8.64191 9.24831 8.64191 9.3084C8.64191 9.3685 8.66706 9.42439 8.70759 9.46352C8.74811 9.50265 8.80401 9.52781 8.8641 9.52781L8.87249 9.532C8.87249 9.532 8.87668 9.53899 8.87668 9.54178C8.87668 9.54458 8.87528 9.54877 8.87249 9.55016L8.86271 9.55575C8.80261 9.55575 8.74672 9.58091 8.70759 9.62004C8.66846 9.65917 8.6433 9.71507 8.6433 9.77516C8.6433 9.83525 8.66846 9.89115 8.70898 9.93027C8.74951 9.9694 8.80541 9.99456 8.8655 9.99456L8.87389 9.99875C8.87389 9.99875 8.87808 10.0057 8.87808 10.0085C8.87808 10.0113 8.87668 10.0155 8.87389 10.0169L8.8641 10.0225C8.80401 10.0225 8.74811 10.0477 8.70898 10.0868C8.66986 10.1259 8.6447 10.1818 8.6447 10.2419V13.4868C8.6447 13.8767 8.80261 14.2289 9.05835 14.4846C9.31409 14.7403 9.66625 14.8983 10.0561 14.8983C10.446 14.8983 10.7982 14.7403 11.0539 14.4846C11.3097 14.2289 11.4676 13.8767 11.4676 13.4868V13.3177C11.4676 13.2856 11.441 13.259 11.4089 13.259C11.3893 13.259 11.3725 13.2688 11.3614 13.2828C11.2412 13.4211 11.0917 13.5329 10.924 13.6098C10.7619 13.6839 10.5788 13.7258 10.3873 13.7258C10.2085 13.7258 10.038 13.6894 9.88425 13.6238H9.88145C9.72913 13.5581 9.59218 13.4645 9.47619 13.3499V10.2447C9.47619 10.1846 9.45104 10.1287 9.41051 10.0896C9.36998 10.0505 9.31409 10.0253 9.25399 10.0253L9.24561 10.0211C9.24561 10.0211 9.24142 10.0155 9.24142 10.0113C9.24142 10.0085 9.24282 10.0043 9.24561 10.0029L9.25539 9.99735C9.31548 9.99735 9.37138 9.9722 9.41051 9.93307L9.41331 9.92888C9.45104 9.88975 9.47479 9.83525 9.47479 9.77655C9.47479 9.71786 9.44964 9.66056 9.40911 9.62144C9.36859 9.58231 9.31269 9.55715 9.2526 9.55715L9.24421 9.55296C9.24421 9.55296 9.24002 9.54737 9.24002 9.54318C9.24002 9.54038 9.24142 9.53619 9.24421 9.53479L9.25399 9.5292C9.31409 9.5292 9.36998 9.50405 9.40911 9.46492L9.41191 9.46073C9.44964 9.4216 9.4734 9.3671 9.4734 9.3084C9.4734 9.24971 9.44824 9.19242 9.40772 9.15329C9.36719 9.11416 9.31129 9.089 9.2512 9.089L9.24282 9.08481C9.24282 9.08481 9.23862 9.07922 9.23862 9.07503C9.23862 9.07223 9.24002 9.06804 9.24282 9.06664L9.2526 9.06105C9.31269 9.06105 9.36859 9.0359 9.40772 8.99677C9.44684 8.95764 9.472 8.90174 9.472 8.84165C9.472 8.80951 9.44545 8.78296 9.41191 8.78296H8.7006C8.66846 8.78296 8.64191 8.80951 8.64191 8.84165C8.64191 8.90174 8.66706 8.95764 8.70619 8.99677C8.74532 9.0359 8.80122 9.06105 8.86271 9.06105L8.86131 9.06245Z" fill="#7C0000"/>
<path fill-rule="evenodd" clip-rule="evenodd" d="M8.7789 8.90186H9.3323C9.31413 8.92701 9.28339 8.94378 9.24985 8.94378C9.17718 8.94518 9.11849 9.00387 9.11849 9.07654C9.11849 9.14921 9.17578 9.2079 9.24845 9.2093C9.30435 9.2093 9.35186 9.25402 9.35186 9.30991C9.35186 9.36581 9.30714 9.41053 9.24985 9.41053C9.17718 9.41193 9.11849 9.47062 9.11849 9.54329C9.11849 9.61596 9.17578 9.67325 9.24845 9.67605C9.30435 9.67605 9.35186 9.72077 9.35186 9.77667C9.35186 9.83256 9.30714 9.87728 9.24985 9.87728C9.17718 9.87868 9.11849 9.93737 9.11849 10.01C9.11849 10.0827 9.17578 10.14 9.24845 10.1428C9.30435 10.1428 9.35186 10.1875 9.35186 10.2434V13.3975L9.36863 13.4143C9.63555 13.6896 9.99889 13.8447 10.3832 13.8447C10.7437 13.8447 11.0847 13.7091 11.3446 13.466V13.4883C11.3446 14.2024 10.7661 14.781 10.052 14.781C9.33789 14.781 8.75934 14.2024 8.75934 13.4883V10.2434C8.75934 10.1875 8.80406 10.1428 8.86135 10.1428C8.93402 10.1414 8.99271 10.0827 8.99271 10.01C8.99271 9.93737 8.93542 9.88008 8.86275 9.87728C8.80685 9.87728 8.75934 9.83256 8.75934 9.77667C8.75934 9.72077 8.80406 9.67605 8.86135 9.67605C8.93402 9.67465 8.99271 9.61596 8.99271 9.54329C8.99271 9.47062 8.93542 9.41193 8.86275 9.41053C8.80685 9.41053 8.75934 9.36581 8.75934 9.30991C8.75934 9.25402 8.80406 9.2093 8.86135 9.2093C8.93402 9.2079 8.99271 9.14921 8.99271 9.07654C8.99271 9.00387 8.93262 8.94657 8.86135 8.94378C8.82781 8.94378 8.79707 8.92701 8.7789 8.90186Z" fill="#FF0000"/>
</g>
</g>
<rect x="0.25" y="0.25" width="23.5" height="23.5" rx="11.75" stroke="#E5E3E1" stroke-width="0.5"/>
<defs>
<clipPath id="clip0_16335_7559">
<rect width="24" height="24" rx="12" fill="white"/>
</clipPath>
</defs>
</svg>
