<svg width="24" height="24" viewBox="0 0 24 24" fill="none" xmlns="http://www.w3.org/2000/svg">
<path d="M13.6504 2.00002C13.9836 1.86689 14.292 1.91283 14.5752 2.13772C14.8584 2.36267 15 2.65016 15 3.00003V6.00002H16C16.2833 6.00002 16.5212 6.09551 16.7129 6.28713C16.9045 6.47877 17 6.71675 17 7.00002V10H15V8.00002H5V20H10.0352C10.0796 20.8111 10.1824 21.3779 10.4277 21.8594C10.4521 21.9072 10.4796 21.9534 10.5059 22H4C3.71667 22 3.47878 21.9046 3.28711 21.7129C3.09549 21.5213 3 21.2833 3 21V7.04983C3.00004 6.79997 3.05043 6.58706 3.15039 6.41213C3.25043 6.2374 3.41731 6.09992 3.65039 6.00002L13.6504 2.00002ZM17.5195 12C19.0875 12 19.8718 12.0006 20.4707 12.3057C20.9975 12.5741 21.4259 13.0025 21.6943 13.5293C21.9994 14.1282 22 14.9125 22 16.4805V17.5196C22 19.0875 21.9994 19.8718 21.6943 20.4707C21.4259 20.9976 20.9976 21.4259 20.4707 21.6944C19.8718 21.9995 19.0875 22 17.5195 22H16.4805C14.9125 22 14.1282 21.9995 13.5293 21.6944C13.0024 21.4259 12.5741 20.9976 12.3057 20.4707C12.0006 19.8718 12 19.0875 12 17.5196V16.4805C12 14.9125 12.0006 14.1282 12.3057 13.5293C12.5741 13.0025 13.0025 12.5741 13.5293 12.3057C14.1282 12.0006 14.9125 12 16.4805 12H17.5195ZM15.5361 14.5772C15.2424 14.4089 15.0001 14.5242 15 14.8418V19.1485C15 19.4357 15.3149 19.597 15.5605 19.4356C16.0696 19.1426 17.3352 18.4163 19.3574 17.2569C19.5489 17.1522 19.5449 16.8802 19.3584 16.7725C18.6311 16.356 16.341 15.0445 15.5361 14.5772ZM9 6.00002H13V4.45022L9 6.00002Z" fill="#323232"/>
</svg>
