<svg width="24" height="24" viewBox="0 0 24 24" fill="none" xmlns="http://www.w3.org/2000/svg">
<path d="M12.4883 2C15.4676 2 16.9577 2.00025 18.0957 2.58008C19.0964 3.09006 19.9099 3.90365 20.4199 4.9043C20.9997 6.04227 21 7.53243 21 10.5117V11H19V10.5117C19 8.98913 18.9988 7.9674 18.9346 7.18066C18.8722 6.41723 18.76 6.05257 18.6377 5.8125C18.3194 5.1881 17.8119 4.68055 17.1875 4.3623C16.9474 4.23998 16.5828 4.1278 15.8193 4.06543C15.0326 4.00115 14.0109 4 12.4883 4H10.5117C8.98913 4 7.9674 4.00115 7.18066 4.06543C6.41723 4.1278 6.05257 4.23998 5.8125 4.3623C5.1881 4.68055 4.68055 5.1881 4.3623 5.8125C4.23998 6.05257 4.1278 6.41723 4.06543 7.18066C4.00115 7.9674 4 8.98913 4 10.5117V12.4883C4 14.0109 4.00115 15.0326 4.06543 15.8193C4.1278 16.5828 4.23998 16.9474 4.3623 17.1875C4.68055 17.8119 5.1881 18.3194 5.8125 18.6377C6.05257 18.76 6.41723 18.8722 7.18066 18.9346C7.9674 18.9988 8.98913 19 10.5117 19H15.1719L17.1719 21H10.5117C7.53243 21 6.04227 20.9997 4.9043 20.4199C3.90365 19.9099 3.09006 19.0964 2.58008 18.0957C2.00025 16.9577 2 15.4676 2 12.4883V10.5117C2 7.53243 2.00025 6.04227 2.58008 4.9043C3.09006 3.90365 3.90365 3.09006 4.9043 2.58008C6.04227 2.00025 7.53243 2 10.5117 2H12.4883ZM21 13V17.1504L22.5996 15.5752L24 17L20 21L16 17L17.4004 15.5752L19 17.1504V13H21ZM8.74121 8.20605C8.74142 7.72125 9.09657 7.54553 9.52637 7.80273C10.7038 8.51588 14.0524 10.5168 15.1162 11.1523C15.3894 11.3165 15.3963 11.7317 15.1162 11.8916C12.1571 13.6614 10.3048 14.77 9.56055 15.2168C9.20129 15.4628 8.74121 15.2164 8.74121 14.7783V8.20605Z" fill="#323232"/>
</svg>
