<svg width="48" height="48" viewBox="0 0 48 48" fill="none" xmlns="http://www.w3.org/2000/svg">
<path d="M7.56055 34.13C7.01055 34.13 6.56055 33.68 6.56055 33.13V15.42C6.56055 14.5 7.31055 13.75 8.23055 13.75H34.7805C35.7005 13.75 36.4505 14.5 36.4505 15.42V22.67C36.4505 23.22 36.0005 23.67 35.4505 23.67C34.9005 23.67 34.4505 23.22 34.4505 22.67V15.75H8.56055V33.13C8.56055 33.68 8.11055 34.13 7.56055 34.13Z" fill="#323232"/>
<path d="M28.6101 38.1001H6.08014C5.50014 38.1001 4.97014 37.7801 4.69014 37.2701C4.41014 36.7601 4.43014 36.1401 4.75014 35.6501L6.72014 32.5801C6.90014 32.2901 7.22014 32.1201 7.56014 32.1201H28.6101C29.1601 32.1201 29.6101 32.5701 29.6101 33.1201C29.6101 33.6701 29.1601 34.1201 28.6101 34.1201H8.10014L6.83014 36.0901H28.6001C29.1501 36.0901 29.6001 36.5401 29.6001 37.0901C29.6001 37.6401 29.1501 38.0901 28.6001 38.0901L28.6101 38.1001Z" fill="#323232"/>
<path fill-rule="evenodd" clip-rule="evenodd" d="M9.35938 23.5498V16.5498H14.5594L9.35938 23.5498Z" fill="#8DE2E0"/>
<path d="M39.0197 43.54H34.6797C34.1297 43.54 33.6797 43.09 33.6797 42.54C33.6797 41.99 34.1297 41.54 34.6797 41.54H39.0197C39.5697 41.54 40.0197 41.99 40.0197 42.54C40.0197 43.09 39.5697 43.54 39.0197 43.54Z" fill="#323232"/>
<path d="M41.1892 46.25H32.4992C31.2292 46.25 30.1992 45.22 30.1992 43.95V26.57C30.1992 25.3 31.2292 24.27 32.4992 24.27H41.1892C42.4592 24.27 43.4892 25.3 43.4892 26.57V43.95C43.4892 45.22 42.4592 46.25 41.1892 46.25ZM32.5092 26.27C32.3392 26.27 32.2092 26.41 32.2092 26.57V43.95C32.2092 44.12 32.3492 44.25 32.5092 44.25H41.1992C41.3692 44.25 41.4992 44.11 41.4992 43.95V26.57C41.4992 26.4 41.3592 26.27 41.1992 26.27H32.5092Z" fill="#323232"/>
<path fill-rule="evenodd" clip-rule="evenodd" d="M33.0098 32.2498V27.0698H36.8298L33.0098 32.2498Z" fill="#8DE2E0"/>
<path d="M34.8904 11.2202C34.7404 11.2202 34.6104 11.1102 34.5904 10.9602C34.1504 8.00023 33.8704 7.72023 30.9104 7.28023C30.7604 7.26023 30.6504 7.13023 30.6504 6.98023C30.6504 6.83023 30.7604 6.70023 30.9104 6.68023C33.8704 6.24023 34.1504 5.96023 34.5904 3.00023C34.6104 2.85023 34.7404 2.74023 34.8904 2.74023C35.0404 2.74023 35.1704 2.85023 35.1904 3.00023C35.6304 5.96023 35.9104 6.24023 38.8704 6.68023C39.0204 6.70023 39.1304 6.83023 39.1304 6.98023C39.1304 7.13023 39.0204 7.26023 38.8704 7.28023C35.9104 7.72023 35.6304 8.00023 35.1904 10.9602C35.1704 11.1102 35.0404 11.2202 34.8904 11.2202Z" fill="#DF0000"/>
<path d="M30.6602 12.7202C30.6102 12.7202 30.5602 12.6802 30.5502 12.6302C30.3902 11.5802 30.3002 11.4802 29.2502 11.3302C29.2002 11.3302 29.1602 11.2802 29.1602 11.2202C29.1602 11.1602 29.2002 11.1202 29.2502 11.1102C30.3002 10.9502 30.4002 10.8602 30.5502 9.81021C30.5502 9.76021 30.6002 9.72021 30.6602 9.72021C30.7202 9.72021 30.7602 9.76021 30.7702 9.81021C30.9302 10.8602 31.0202 10.9602 32.0702 11.1102C32.1202 11.1102 32.1602 11.1602 32.1602 11.2202C32.1602 11.2802 32.1202 11.3202 32.0702 11.3302C31.0202 11.4902 30.9202 11.5802 30.7702 12.6302C30.7702 12.6802 30.7202 12.7202 30.6602 12.7202Z" fill="#DF0000"/>
<path d="M39.9008 15.9202C39.8108 15.9202 39.7308 15.8502 39.7208 15.7602C39.4508 13.9402 39.2808 13.7702 37.4608 13.5002C37.3708 13.4902 37.3008 13.4102 37.3008 13.3202C37.3008 13.2302 37.3708 13.1502 37.4608 13.1402C39.2808 12.8702 39.4508 12.7002 39.7208 10.8802C39.7308 10.7902 39.8108 10.7202 39.9008 10.7202C39.9908 10.7202 40.0708 10.7902 40.0808 10.8802C40.3508 12.7002 40.5208 12.8702 42.3408 13.1402C42.4308 13.1502 42.5008 13.2302 42.5008 13.3202C42.5008 13.4102 42.4308 13.4902 42.3408 13.5002C40.5208 13.7702 40.3508 13.9402 40.0808 15.7602C40.0708 15.8502 39.9908 15.9202 39.9008 15.9202Z" fill="#DF0000"/>
</svg>
