<svg width="48" height="48" viewBox="0 0 48 48" fill="none" xmlns="http://www.w3.org/2000/svg">
<path d="M29.7297 18.98H17.4297C16.8797 18.98 16.4297 18.53 16.4297 17.98C16.4297 17.43 16.8797 16.98 17.4297 16.98H29.7297C30.2797 16.98 30.7297 17.43 30.7297 17.98C30.7297 18.53 30.2797 18.98 29.7297 18.98Z" fill="#DF0000"/>
<path d="M17.0197 15.5398C17.1497 15.9798 17.5497 16.2698 17.9797 16.2698C18.0697 16.2698 18.1597 16.2598 18.2497 16.2298C18.7797 16.0798 19.0897 15.5198 18.9397 14.9898L17.2697 9.14984C18.2897 8.23984 19.3097 7.81984 20.3297 7.88984C22.0097 8.00984 23.2097 9.45984 23.2197 9.46984C23.2497 9.49984 23.2797 9.51984 23.3097 9.54984C23.3297 9.56984 23.3397 9.59984 23.3697 9.61984C23.3897 9.63984 23.4197 9.63984 23.4397 9.65984C23.4997 9.69984 23.5697 9.73984 23.6397 9.75984C23.6897 9.77984 23.7397 9.79984 23.7897 9.80984C23.8597 9.81984 23.9297 9.82984 24.0097 9.82984C24.0697 9.82984 24.1197 9.82984 24.1697 9.81984C24.2397 9.80984 24.2997 9.78984 24.3697 9.75984C24.4297 9.73984 24.4797 9.70984 24.5297 9.67984C24.5597 9.65984 24.5897 9.65984 24.6197 9.62984C24.6497 9.60984 24.6597 9.56984 24.6897 9.54984C24.7197 9.51984 24.7497 9.50984 24.7697 9.47984C24.7797 9.46984 25.9797 8.01984 27.6597 7.89984C28.6797 7.81984 29.6997 8.24984 30.7197 9.15984L29.0497 14.9998C28.8997 15.5298 29.2097 16.0798 29.7397 16.2398C29.8297 16.2698 29.9197 16.2798 30.0097 16.2798C30.4497 16.2798 30.8497 15.9898 30.9697 15.5498L32.6597 9.61984C32.8497 8.94984 32.6497 8.21984 32.1397 7.75984C31.6797 7.33984 31.2097 6.99984 30.7397 6.71984C30.7297 6.63984 30.7197 6.54984 30.6797 6.46984L28.7597 2.34984C28.5297 1.84984 27.9297 1.62984 27.4297 1.86984C26.9297 2.10984 26.7097 2.69984 26.9497 3.19984L28.2097 5.91984C27.9697 5.89984 27.7297 5.89984 27.4797 5.91984C25.9297 6.03984 24.7097 6.83984 23.9797 7.45984C23.2397 6.82984 22.0297 6.02984 20.4797 5.91984C20.2397 5.89984 19.9897 5.90984 19.7497 5.91984L21.0097 3.19984C21.2397 2.69984 21.0297 2.09984 20.5297 1.86984C20.0297 1.63984 19.4297 1.84984 19.1997 2.34984L17.2797 6.46984C17.2397 6.54984 17.2397 6.62984 17.2197 6.71984C16.7497 6.99984 16.2797 7.33984 15.8197 7.75984C15.3197 8.21984 15.1097 8.94984 15.2997 9.61984L16.9897 15.5498L17.0197 15.5398Z" fill="#323232"/>
<path d="M43.7502 35.8999C43.7502 35.6299 43.6402 35.3599 43.4402 35.1699C32.9702 25.2599 31.5702 20.4799 31.5502 20.3999C31.4202 19.8699 30.8802 19.5399 30.3402 19.6699C29.8002 19.7999 29.4702 20.3399 29.6002 20.8799C29.6502 21.0799 30.9102 25.8899 41.2602 35.8599C40.3702 36.5999 38.8202 37.7599 37.1502 38.5399L28.7502 22.5399C28.4902 22.0499 27.8902 21.8599 27.4002 22.1199C26.9102 22.3799 26.7202 22.9799 26.9802 23.4699L36.6802 41.9599C35.0802 42.7099 31.0102 44.2199 23.9902 44.2199C17.4002 44.2199 13.0602 42.6799 11.3202 41.9199L21.0002 23.4699C21.2602 22.9799 21.0702 22.3799 20.5802 22.1199C20.0902 21.8599 19.4902 22.0499 19.2302 22.5399L10.8402 38.5299C9.16023 37.7599 7.62023 36.5899 6.72023 35.8599C17.0702 25.8899 18.3302 21.0799 18.3802 20.8699C18.5102 20.3399 18.1802 19.8099 17.6502 19.6699C17.1202 19.5299 16.5802 19.8599 16.4402 20.3899C16.4302 20.4399 15.0702 25.2199 4.55023 35.1599C4.35023 35.3499 4.24023 35.6099 4.24023 35.8899C4.24023 36.1699 4.35023 36.4299 4.55023 36.6199C4.66023 36.7299 7.04023 38.9699 9.91023 40.3099L9.07023 41.9099C8.82023 42.3799 8.99023 42.9699 9.45023 43.2399C9.66023 43.3599 14.7002 46.2199 23.9902 46.2199C34.0002 46.2199 38.4102 43.3299 38.5902 43.1999C39.0102 42.9099 39.1502 42.3599 38.9202 41.9099L38.0802 40.3099C40.9302 38.9599 43.3202 36.7199 43.4302 36.6199C43.6302 36.4299 43.7402 36.1699 43.7402 35.8899L43.7502 35.8999Z" fill="#323232"/>
</svg>
