<svg width="24" height="24" viewBox="0 0 24 24" fill="none" xmlns="http://www.w3.org/2000/svg">
<g clip-path="url(#clip0_15785_2139)">
<path d="M6 22C5.45 22 4.97917 21.8042 4.5875 21.4125C4.19583 21.0208 4 20.55 4 20V4C4 3.45 4.19583 2.97917 4.5875 2.5875C4.97917 2.19583 5.45 2 6 2H18C18.55 2 19.0208 2.19583 19.4125 2.5875C19.8042 2.97917 20 3.45 20 4V20C20 20.55 19.8042 21.0208 19.4125 21.4125C19.0208 21.8042 18.55 22 18 22H6ZM12 19C13.3833 19 14.5625 18.5125 15.5375 17.5375C16.5125 16.5625 17 15.3833 17 14C17 12.6167 16.5125 11.4375 15.5375 10.4625C14.5625 9.4875 13.3833 9 12 9C10.6167 9 9.4375 9.4875 8.4625 10.4625C7.4875 11.4375 7 12.6167 7 14C7 15.3833 7.4875 16.5625 8.4625 17.5375C9.4375 18.5125 10.6167 19 12 19ZM12 17.3C11.5667 17.3 11.1458 17.2208 10.7375 17.0625C10.3292 16.9042 9.96667 16.6667 9.65 16.35L14.35 11.65C14.6667 11.9667 14.9042 12.3292 15.0625 12.7375C15.2208 13.1458 15.3 13.5667 15.3 14C15.3 14.9167 14.9792 15.6958 14.3375 16.3375C13.6958 16.9792 12.9167 17.3 12 17.3ZM8 7C8.28333 7 8.52083 6.90417 8.7125 6.7125C8.90417 6.52083 9 6.28333 9 6C9 5.71667 8.90417 5.47917 8.7125 5.2875C8.52083 5.09583 8.28333 5 8 5C7.71667 5 7.47917 5.09583 7.2875 5.2875C7.09583 5.47917 7 5.71667 7 6C7 6.28333 7.09583 6.52083 7.2875 6.7125C7.47917 6.90417 7.71667 7 8 7ZM11 7C11.2833 7 11.5208 6.90417 11.7125 6.7125C11.9042 6.52083 12 6.28333 12 6C12 5.71667 11.9042 5.47917 11.7125 5.2875C11.5208 5.09583 11.2833 5 11 5C10.7167 5 10.4792 5.09583 10.2875 5.2875C10.0958 5.47917 10 5.71667 10 6C10 6.28333 10.0958 6.52083 10.2875 6.7125C10.4792 6.90417 10.7167 7 11 7Z" fill="#323232"/>
</g>
<defs>
<clipPath id="clip0_15785_2139">
<rect width="24" height="24" fill="white"/>
</clipPath>
</defs>
</svg>
