<svg width="24" height="24" viewBox="0 0 24 24" fill="none" xmlns="http://www.w3.org/2000/svg">
<path fill-rule="evenodd" clip-rule="evenodd" d="M11.0868 20.2233V22.0498H12.9132V20.2233C14.8158 20.0102 16.4482 19.2226 17.8105 17.8603C19.1728 16.4981 19.9604 14.8656 20.1735 12.963H22V11.1366H20.1735C19.9604 9.23398 19.1728 7.60156 17.8105 6.2393C16.4482 4.87705 14.8158 4.08938 12.9132 3.87629V2.0498H11.0868V3.87629C9.18417 4.08938 7.55175 4.87705 6.1895 6.2393C4.82724 7.60156 4.03957 9.23398 3.82648 11.1366H2V12.963H3.82648C4.03957 14.8656 4.82724 16.4981 6.1895 17.8603C7.55175 19.2226 9.18417 20.0102 11.0868 20.2233ZM16.5205 16.5704C15.2725 17.8184 13.7656 18.4425 12 18.4425C10.2344 18.4425 8.72755 17.8184 7.47945 16.5704C6.23135 15.3223 5.60731 13.8154 5.60731 12.0498C5.60731 10.2842 6.23135 8.77735 7.47945 7.52926C8.72755 6.28116 10.2344 5.65711 12 5.65711C13.7656 5.65711 15.2725 6.28116 16.5205 7.52926C17.7686 8.77735 18.3927 10.2842 18.3927 12.0498C18.3927 13.8154 17.7686 15.3223 16.5205 16.5704ZM12.0001 13.8306C13.0088 13.8306 13.8266 13.0128 13.8266 12.0041C13.8266 10.9954 13.0088 10.1776 12.0001 10.1776C10.9913 10.1776 10.1736 10.9954 10.1736 12.0041C10.1736 13.0128 10.9913 13.8306 12.0001 13.8306Z" fill="#323232"/>
</svg>
