<svg width="48" height="48" viewBox="0 0 48 48" fill="none" xmlns="http://www.w3.org/2000/svg">
<path d="M2.70996 31.1099H45.29V32.0999C45.29 33.8199 43.9 35.2099 42.18 35.2099H5.81996C4.09996 35.2099 2.70996 33.8199 2.70996 32.0999V31.1099Z" fill="#8DE2E0"/>
<path d="M35.6703 16.1198C35.6703 16.2998 35.5803 16.5798 35.5803 16.7598V19.7898C35.5803 20.1598 35.7603 20.6198 35.7603 20.6198C36.3103 21.8998 36.0403 21.9998 36.0403 21.9998C36.0403 21.9998 35.7603 22.2798 34.9403 21.9098C34.6603 21.8198 34.3903 21.7298 34.0203 21.7298H27.5003C27.1303 21.7298 26.6703 21.9098 26.6703 21.9098C25.3903 22.4598 25.2903 22.1898 25.2903 22.1898C25.2903 22.1898 25.0103 21.8198 25.4703 20.9098C25.5603 20.7298 25.6503 20.4498 25.6503 20.2698V16.3198C25.6503 15.9498 25.4703 15.4898 25.4703 15.4898C24.9203 14.2098 25.1903 14.1098 25.1903 14.1098C25.1903 14.1098 25.5603 13.8298 26.5703 14.2898C26.6603 14.3798 26.7503 14.3798 26.8503 14.3798H34.1003C34.1003 14.3798 34.4703 14.3798 34.7403 14.2898C35.0103 14.1998 35.5703 14.0098 35.8403 14.1098C36.1103 14.2098 36.1203 14.4798 36.1203 14.4798C36.1203 14.4798 35.6603 15.7598 35.6603 16.1298L35.6703 16.1198Z" fill="#DF0000"/>
<path d="M22.2299 16.1198C22.2299 16.2998 22.1399 16.5798 22.1399 16.7598V19.7898C22.1399 20.1598 22.3199 20.6198 22.3199 20.6198C22.8699 21.8998 22.5999 21.9998 22.5999 21.9998C22.5999 21.9998 22.3199 22.2798 21.4999 21.9098C21.2199 21.8198 20.9499 21.7298 20.5799 21.7298H14.0599C13.6899 21.7298 13.2299 21.9098 13.2299 21.9098C11.9499 22.4598 11.8499 22.1898 11.8499 22.1898C11.8499 22.1898 11.5699 21.8198 12.0299 20.9098C12.1199 20.7298 12.2099 20.4498 12.2099 20.2698V16.3198C12.2099 15.9498 12.0299 15.4898 12.0299 15.4898C11.4799 14.2098 11.7499 14.1098 11.7499 14.1098C11.7499 14.1098 12.1199 13.8298 13.1299 14.2898C13.2199 14.3798 13.3099 14.3798 13.4099 14.3798H20.6599C20.6599 14.3798 21.0299 14.3798 21.2999 14.2898C21.5799 14.1998 22.1299 14.0098 22.3999 14.1098C22.6799 14.1998 22.6799 14.4798 22.6799 14.4798C22.6799 14.4798 22.3099 15.7598 22.2199 16.1298L22.2299 16.1198Z" fill="#DF0000"/>
<path d="M46.09 26.5398L42.89 19.1398V12.1898C42.89 9.87982 41.08 8.06982 38.78 8.06982H9.21996C6.90996 8.06982 5.10996 9.87982 5.10996 12.1898V19.1398L1.91996 26.5298C1.78996 26.7898 1.70996 27.0898 1.70996 27.4198V32.0998C1.70996 34.4098 3.51996 36.2198 5.83996 36.2198H5.93996V38.9498C5.93996 39.4998 6.38996 39.9498 6.93996 39.9498C7.48996 39.9498 7.93996 39.4998 7.93996 38.9498V36.2198H40.08V38.9498C40.08 39.4998 40.53 39.9498 41.08 39.9498C41.63 39.9498 42.08 39.4998 42.08 38.9498V36.2198H42.25C43.36 36.2198 44.44 35.7498 45.21 34.9398C45.96 34.1498 46.34 33.1198 46.29 32.0998V27.4198C46.29 27.0998 46.22 26.7998 46.09 26.5398ZM9.21996 10.0598H38.78C39.96 10.0598 40.89 10.9898 40.89 12.1798V18.3398H38.56C38.01 18.3398 37.56 18.7898 37.56 19.3398C37.56 19.8898 38.01 20.3398 38.56 20.3398H41.23L43.46 25.4998H4.53996L6.76996 20.3398H9.43996C9.98996 20.3398 10.44 19.8898 10.44 19.3398C10.44 18.7898 9.98996 18.3398 9.43996 18.3398H7.10996V12.1798C7.10996 10.9898 8.03996 10.0598 9.21996 10.0598ZM43.76 33.5598C43.37 33.9798 42.82 34.2098 42.25 34.2098H5.82996C4.63996 34.2098 3.69996 33.2798 3.69996 32.0898V27.4898H44.28V32.1398C44.31 32.6598 44.12 33.1598 43.75 33.5498L43.76 33.5598Z" fill="#323232"/>
</svg>
