<svg width="24" height="24" viewBox="0 0 24 24" fill="none" xmlns="http://www.w3.org/2000/svg">
<path fill-rule="evenodd" clip-rule="evenodd" d="M18.1247 14.3855C18.4588 14.3855 18.6135 14.6236 18.4687 14.9151L17.7851 16.2892C17.6401 16.5805 17.2482 16.8189 16.9139 16.8189H2.39849C2.06412 16.8189 1.90942 16.5805 2.0545 16.2892L2.73806 14.9151C2.88288 14.6236 3.27497 14.3855 3.60908 14.3855H18.1247ZM12.3224 9.90843L12.7018 10.8296H13.7748C13.9014 10.8335 13.9664 10.9784 13.9168 11.0795L13.099 11.9991L13.4079 12.7035C13.4831 12.8611 13.3822 13.0189 13.2108 13.0176L12.2296 13.0184C11.986 13.2968 11.7423 13.575 11.4984 13.8532C11.4199 13.932 11.3682 13.9403 11.3162 13.8512L11.0429 13.0098H9.93165C9.77929 13.0176 9.70622 12.8754 9.79177 12.742L10.5312 11.8325L10.2385 11.0709C10.195 10.9355 10.2221 10.8265 10.3461 10.8234L11.4095 10.8296L12.1862 9.90505C12.2317 9.84447 12.2772 9.82783 12.3224 9.90843ZM21.6015 7C21.9359 7 22.0906 7.23843 21.9455 7.52989L21.2619 8.90377C21.1169 9.19523 20.725 9.43366 20.3909 9.43366H5.87529C5.54118 9.43366 5.38648 9.19523 5.5313 8.90377L6.21486 7.52989C6.35994 7.23843 6.75177 7 7.08614 7H21.6015Z" fill="#001246"/>
</svg>
