<svg width="48" height="48" viewBox="0 0 48 48" fill="none" xmlns="http://www.w3.org/2000/svg">
<path d="M22.3498 37.6002C25.9298 37.6002 29.1698 36.2102 31.5998 33.9502H31.6198L30.5698 39.9402H14.1398L13.0898 33.9502H13.1098C15.5398 36.2102 18.7798 37.6002 22.3598 37.6002H22.3498Z" fill="#8DE2E0"/>
<path d="M22.3498 10.4001C25.9298 10.4001 29.1698 11.7901 31.5998 14.0501H31.6198L30.5698 8.06006H14.1398L13.0898 14.0501H13.1098C15.5398 11.7901 18.7798 10.4001 22.3598 10.4001H22.3498Z" fill="#8DE2E0"/>
<path d="M36.9595 24.0001C36.9595 19.9101 35.2695 16.2201 32.5595 13.5701L30.8195 3.66008C30.7395 3.18008 30.3195 2.83008 29.8395 2.83008H14.8895C14.3995 2.83008 13.9895 3.18008 13.9095 3.66008L12.1695 13.5701C9.45953 16.2201 7.76953 19.9201 7.76953 24.0001C7.76953 28.0801 9.45953 31.7801 12.1695 34.4301L13.9095 44.3401C13.9895 44.8201 14.4095 45.1701 14.8895 45.1701H29.8395C30.3295 45.1701 30.7395 44.8201 30.8195 44.3401L32.5595 34.4301C35.2695 31.7801 36.9595 28.0801 36.9595 24.0001ZM15.7195 4.83008H28.9895L30.1995 11.7001C27.9295 10.2501 25.2495 9.40008 22.3595 9.40008C19.4695 9.40008 16.7895 10.2501 14.5195 11.7001L15.7295 4.83008H15.7195ZM9.74953 24.0001C9.74953 17.0501 15.3995 11.4001 22.3495 11.4001C29.2995 11.4001 34.9495 17.0501 34.9495 24.0001C34.9495 30.9501 29.2995 36.6001 22.3495 36.6001C15.3995 36.6001 9.74953 30.9501 9.74953 24.0001ZM28.9895 43.1701H15.7195L14.5095 36.3001C16.7795 37.7501 19.4595 38.6001 22.3495 38.6001C25.2395 38.6001 27.9195 37.7501 30.1895 36.3001L28.9795 43.1701H28.9895Z" fill="#323232"/>
<path d="M22.3496 24.9999H27.7296C28.2796 24.9999 28.7296 24.5499 28.7296 23.9999C28.7296 23.4499 28.2796 22.9999 27.7296 22.9999H23.3496V14.6099C23.3496 14.0599 22.8996 13.6099 22.3496 13.6099C21.7996 13.6099 21.3496 14.0599 21.3496 14.6099V23.9999C21.3496 24.5499 21.7996 24.9999 22.3496 24.9999Z" fill="#323232"/>
<path d="M39.25 28.4201C38.7 28.4201 38.25 27.9701 38.25 27.4201V21.1001C38.25 20.5501 38.7 20.1001 39.25 20.1001C39.8 20.1001 40.25 20.5501 40.25 21.1001V27.4201C40.25 27.9701 39.8 28.4201 39.25 28.4201Z" fill="#DF0000"/>
</svg>
