<svg width="48" height="48" viewBox="0 0 48 48" fill="none" xmlns="http://www.w3.org/2000/svg">
<path d="M24 19.9398C23.45 19.9398 23 19.4898 23 18.9398V15.5298C23 14.9798 23.45 14.5298 24 14.5298C24.55 14.5298 25 14.9798 25 15.5298V18.9398C25 19.4898 24.55 19.9398 24 19.9398Z" fill="#DF0000"/>
<path d="M15.82 25.7598C16.46 26.8398 16.09 28.2398 15.01 28.8698C13.93 29.5098 12.53 29.1398 11.9 28.0598C11.48 27.3498 11.48 26.4698 11.9 25.7598M36.16 25.7598C36.8 26.8398 36.43 28.2398 35.35 28.8698C34.27 29.4998 32.87 29.1398 32.24 28.0598C31.82 27.3498 31.82 26.4698 32.24 25.7598" fill="#8DE2E0"/>
<path d="M25.1401 22.4902H22.8701C22.3201 22.4902 21.8701 22.9402 21.8701 23.4902C21.8701 24.0402 22.3201 24.4902 22.8701 24.4902H25.1401C25.6901 24.4902 26.1401 24.0402 26.1401 23.4902C26.1401 22.9402 25.6901 22.4902 25.1401 22.4902Z" fill="#323232"/>
<path d="M45.6401 16.63L24.4401 6.23C24.1601 6.09 23.8401 6.09 23.5601 6.23L2.36005 16.63C1.86005 16.87 1.66005 17.47 1.90005 17.97C2.14005 18.47 2.74005 18.67 3.24005 18.43L3.98005 18.06V40.88C3.98005 41.43 4.43005 41.88 4.98005 41.88H43.0101C43.5601 41.88 44.0101 41.42 44.0101 40.87V18.06L44.7501 18.43C44.8901 18.5 45.0401 18.53 45.1901 18.53C45.5601 18.53 45.9201 18.32 46.0901 17.97C46.3301 17.47 46.1301 16.87 45.6301 16.63H45.6401ZM12.6101 26.76H15.1301C15.1901 27.25 14.9601 27.75 14.5101 28.01C14.2201 28.18 13.8701 28.23 13.5401 28.14C13.2101 28.05 12.9401 27.85 12.7601 27.55C12.6201 27.31 12.5701 27.03 12.6001 26.76H12.6101ZM14.8501 30.03C15.0801 29.96 15.3101 29.86 15.5201 29.74C16.6001 29.1 17.1701 27.94 17.1201 26.77H18.7501C19.4901 29.41 21.5601 31.32 24.0001 31.32C26.4401 31.32 28.5101 29.41 29.2501 26.77H30.9401C30.9101 27.39 31.0401 28.02 31.3701 28.58C31.7801 29.29 32.4301 29.76 33.1501 30V34.86H30.8601C30.3101 34.86 29.8601 35.31 29.8601 35.86V39.88H18.1301V35.86C18.1301 35.31 17.6801 34.86 17.1301 34.86H14.8401V30.04L14.8501 30.03ZM27.5501 24.62C27.5501 27.2 25.9601 29.3 24.0001 29.3C22.0401 29.3 20.4501 27.2 20.4501 24.62C20.4501 22.04 22.0401 19.94 24.0001 19.94C25.9601 19.94 27.5501 22.04 27.5501 24.62ZM35.4601 26.76C35.5201 27.25 35.2901 27.75 34.8401 28.01C34.2301 28.37 33.4501 28.16 33.1001 27.56C32.9601 27.32 32.9101 27.04 32.9401 26.76H35.4601ZM36.4401 39.88H31.8601V36.86H36.4401V39.88ZM16.1401 36.85V39.87H11.5601V36.85H16.1401ZM42.0201 39.88H38.4501V35.86C38.4501 35.31 38.0001 34.86 37.4501 34.86H35.1601V30.04C35.4001 29.97 35.6301 29.87 35.8601 29.74C36.9401 29.1 37.5101 27.94 37.4601 26.77H39.8601C40.4101 26.77 40.8601 26.32 40.8601 25.77C40.8601 25.22 40.4101 24.77 39.8601 24.77H29.5501C29.5501 24.77 29.5501 24.68 29.5501 24.63C29.5501 23.78 29.4101 22.97 29.1701 22.22H31.9001C32.4501 22.22 32.9001 21.77 32.9001 21.22C32.9001 20.67 32.4501 20.22 31.9001 20.22H28.1601C27.1401 18.83 25.6601 17.95 24.0001 17.95C22.3401 17.95 20.8601 18.83 19.8401 20.22H16.1001C15.5501 20.22 15.1001 20.67 15.1001 21.22C15.1001 21.77 15.5501 22.22 16.1001 22.22H18.8301C18.5901 22.97 18.4501 23.78 18.4501 24.63C18.4501 24.68 18.4501 24.72 18.4501 24.77H8.14005C7.59005 24.77 7.14005 25.22 7.14005 25.77C7.14005 26.32 7.59005 26.77 8.14005 26.77H10.6001C10.5701 27.39 10.7001 28.02 11.0301 28.58C11.4401 29.28 12.0801 29.77 12.8401 30.02V34.86H10.5501C10.0001 34.86 9.55005 35.31 9.55005 35.86V39.88H5.98005V17.08L24.0001 8.24L42.0201 17.08V39.88Z" fill="#323232"/>
</svg>
