<svg width="48" height="48" viewBox="0 0 48 48" fill="none" xmlns="http://www.w3.org/2000/svg">
<path d="M12.0809 24.4698C11.9609 24.4698 11.8309 24.4498 11.7109 24.3998C11.2009 24.1998 10.9509 23.6198 11.1509 23.0998L13.4509 17.3098C13.6509 16.7998 14.2309 16.5398 14.7509 16.7498C15.2609 16.9498 15.5109 17.5298 15.3109 18.0498L13.0109 23.8398C12.8509 24.2298 12.4809 24.4698 12.0809 24.4698Z" fill="#DF0000"/>
<path d="M40.1594 27.3497C40.0094 27.3497 39.8694 27.3197 39.7294 27.2497L29.3994 22.2997C28.8994 22.0597 28.6894 21.4597 28.9294 20.9697C29.1694 20.4697 29.7694 20.2597 30.2594 20.4997L40.5894 25.4497C41.0894 25.6897 41.2994 26.2897 41.0594 26.7797C40.8894 27.1397 40.5294 27.3497 40.1594 27.3497Z" fill="#DF0000"/>
<path d="M41.7507 32.2796C41.3107 32.2796 40.9007 31.9796 40.7807 31.5296L39.2007 25.4396C38.2907 22.1796 37.0607 18.6796 33.9707 18.6496H33.9307C31.4707 18.6496 29.8307 20.7096 28.6207 25.3196L26.9207 31.3896C26.7707 31.9196 26.2207 32.2297 25.6907 32.0797C25.1607 31.9297 24.8507 31.3796 25.0007 30.8496L26.7007 24.7896C27.2807 22.5696 28.8307 16.6396 33.9307 16.6396H33.9907C38.8507 16.6796 40.3307 22.0296 41.1307 24.9096L42.7207 31.0096C42.8607 31.5396 42.5407 32.0896 42.0007 32.2296C41.9207 32.2496 41.8307 32.2596 41.7507 32.2596V32.2796Z" fill="#323232"/>
<path d="M34.0597 14.6802H33.9997C32.2997 14.6602 30.7097 13.9902 29.5197 12.7702C28.3297 11.5602 27.6797 9.9502 27.6997 8.2502C27.7197 6.5502 28.3897 4.9602 29.5997 3.7702C30.8097 2.5802 32.3997 1.9202 34.1197 1.9502C37.6297 1.9802 40.4597 4.8602 40.4297 8.3702C40.3997 11.8602 37.5497 14.6802 34.0697 14.6802H34.0597ZM34.0197 12.6802C36.4397 12.7402 38.3997 10.7602 38.4197 8.3502C38.4397 5.9402 36.4997 3.9702 34.0997 3.9402H34.0597C32.9097 3.9402 31.8197 4.3802 30.9997 5.1902C30.1697 6.0102 29.6997 7.1002 29.6897 8.2702C29.6697 10.6802 31.6097 12.6502 34.0197 12.6802Z" fill="#323232"/>
<path d="M12.7904 14.6802H12.7304C11.0304 14.6602 9.44037 13.9902 8.24037 12.7702C7.05037 11.5602 6.40037 9.9502 6.42037 8.2502C6.44037 6.5502 7.11037 4.9602 8.32037 3.7702C9.53037 2.5802 11.1304 1.9202 12.8404 1.9502C16.3504 1.9802 19.1804 4.8602 19.1504 8.3702C19.1204 11.8602 16.2704 14.6802 12.7904 14.6802ZM12.7504 12.6802C15.1804 12.7402 17.1304 10.7602 17.1504 8.3502C17.1704 5.9402 15.2304 3.9702 12.8304 3.9402H12.7904C11.6404 3.9402 10.5504 4.3802 9.73037 5.1902C8.90037 6.0102 8.43037 7.1002 8.42037 8.2702C8.41037 9.4402 8.85037 10.5402 9.67037 11.3702C10.4904 12.2002 11.5804 12.6702 12.7504 12.6802Z" fill="#323232"/>
<path d="M18.9097 32.3004C18.3597 32.3004 17.9097 31.8404 17.9197 31.2904L18.0197 20.0504C18.0197 19.2104 17.3497 18.5104 16.4997 18.5104L8.90969 18.4404C8.50969 18.4404 8.11969 18.5904 7.81969 18.8804C7.5297 19.1704 7.36969 19.5504 7.35969 19.9604L7.2597 31.2004C7.2597 31.7504 6.8097 32.1904 6.25969 32.1904C5.70969 32.1904 5.25969 31.7304 5.26969 31.1804L5.36969 19.9404C5.36969 19.0004 5.74969 18.1104 6.42969 17.4504C7.09969 16.7904 7.98969 16.4704 8.93969 16.4404L16.5297 16.5104C18.4797 16.5304 20.0497 18.1304 20.0297 20.0704L19.9297 31.3104C19.9297 31.8604 19.4797 32.3004 18.9297 32.3004H18.9097Z" fill="#323232"/>
<path d="M12.4902 46.0502H12.4502C11.3902 46.0502 10.4002 45.6702 9.64016 45.0202C8.84016 44.3302 8.41016 43.3902 8.41016 42.4002L8.49016 30.4402C8.49016 29.8902 8.94016 29.4502 9.49016 29.4502C10.0402 29.4502 10.4902 29.9002 10.4802 30.4602L10.4002 42.4202C10.4002 42.8202 10.5902 43.2102 10.9402 43.5202C11.3402 43.8602 11.8702 44.0602 12.4602 44.0602H12.4802C13.6102 44.0602 14.5302 43.3502 14.5402 42.4602L14.6202 30.5002C14.6202 29.9502 15.0702 29.5302 15.6302 29.5102C16.1802 29.5102 16.6302 29.9602 16.6202 30.5202L16.5402 42.4802C16.5202 44.4602 14.7102 46.0602 12.4802 46.0602L12.4902 46.0502Z" fill="#323232"/>
<path d="M33.83 46.0502H33.79C32.73 46.0502 31.74 45.6702 30.98 45.0202C30.18 44.3302 29.75 43.3902 29.75 42.4002L29.83 30.4402C29.83 29.8902 30.28 29.4502 30.83 29.4502C31.38 29.4502 31.83 29.9002 31.82 30.4602L31.74 42.4202C31.74 42.8202 31.93 43.2102 32.28 43.5202C32.68 43.8602 33.21 44.0602 33.8 44.0602C34.38 44.0602 34.92 43.8802 35.32 43.5502C35.68 43.2502 35.87 42.8702 35.88 42.4702L35.96 30.5102C35.96 29.9602 36.43 29.5402 36.97 29.5202C37.52 29.5202 37.97 29.9702 37.96 30.5302L37.88 42.4902C37.88 43.4902 37.42 44.4102 36.61 45.0902C35.85 45.7202 34.87 46.0702 33.83 46.0702V46.0502Z" fill="#323232"/>
<path d="M40.9396 29.17C40.7996 29.17 40.6496 29.14 40.5096 29.07L28.1396 23.16C27.6396 22.92 27.4296 22.33 27.6696 21.83C27.9096 21.33 28.4996 21.12 28.9996 21.36L41.3696 27.27C41.8696 27.51 42.0796 28.1 41.8396 28.6C41.6696 28.96 41.3096 29.17 40.9396 29.17Z" fill="#323232"/>
<path d="M12.5697 26.9203C12.1597 26.9203 11.7897 26.6603 11.6397 26.2703L8.44968 17.7903C8.32968 17.4803 8.37968 17.1403 8.56968 16.8603C8.75968 16.5803 9.02968 16.4103 9.39968 16.4303L15.9397 16.4903C16.2697 16.4903 16.5797 16.6603 16.7597 16.9303C16.9397 17.2003 16.9797 17.5503 16.8597 17.8603L13.5097 26.2803C13.3597 26.6603 12.9897 26.9103 12.5797 26.9103L12.5697 26.9203ZM10.8297 18.4503L12.5997 23.1503L14.4497 18.4903L10.8297 18.4603V18.4503Z" fill="#323232"/>
</svg>
