<svg width="48" height="48" viewBox="0 0 48 48" fill="none" xmlns="http://www.w3.org/2000/svg">
<path d="M14.1289 27.75H7.41891C5.31891 27.75 3.62891 26.07 3.62891 24V19C3.62891 16.93 5.32891 15.25 7.41891 15.25H14.1289V27.75Z" fill="#8DE2E0"/>
<path d="M38.58 8.11027C38.25 7.94027 37.85 7.96027 37.55 8.18027C32.13 11.9503 25.76 14.0503 19.16 14.2503H7.79C5.15 14.2503 3 16.3803 3 19.0003V24.0003C3 26.6203 5.15 28.7503 7.79 28.7503H13.51C13.56 32.4503 14.09 37.4103 20.45 39.9303C20.57 39.9803 20.7 40.0003 20.82 40.0003C21.22 40.0003 21.59 39.7603 21.75 39.3703C21.95 38.8603 21.7 38.2803 21.19 38.0703C16 36.0203 15.55 32.2703 15.51 28.7503H19.16C25.73 28.7703 32.26 30.9203 37.53 34.8103C37.71 34.9403 37.91 35.0103 38.12 35.0103C38.27 35.0103 38.43 34.9703 38.57 34.9003C38.91 34.7303 39.12 34.3803 39.12 34.0103V9.00027C39.12 8.63027 38.91 8.29027 38.58 8.11027ZM5 24.0003V19.0003C5 17.4803 6.25 16.2503 7.79 16.2503H13.5V26.7503H7.79C6.25 26.7503 5 25.5203 5 24.0003ZM37.12 32.0903C31.82 28.6503 25.51 26.7603 19.16 26.7503H15.5V16.2503H19.19C25.57 16.0603 31.73 14.2003 37.12 10.8603V32.1003V32.0903Z" fill="#323232"/>
<path fill-rule="evenodd" clip-rule="evenodd" d="M40.9688 25.2297C42.3288 25.2297 43.5788 24.5197 44.2588 23.3497C44.9388 22.1897 44.9388 20.7597 44.2588 19.5997C43.5788 18.4397 42.3288 17.7197 40.9688 17.7197V25.2297Z" fill="#DF0000"/>
</svg>
