<svg width="48" height="48" viewBox="0 0 48 48" fill="none" xmlns="http://www.w3.org/2000/svg">
<path fill-rule="evenodd" clip-rule="evenodd" d="M17.9996 37.3697H6.59961V28.7197L17.9996 37.3697Z" fill="#8DE2E0"/>
<path d="M44.2193 9.52012H39.8293V5.12012C39.8293 4.57012 39.3793 4.12012 38.8293 4.12012H32.5093C27.5593 4.12012 24.4893 7.85012 23.4293 10.9701C21.7393 10.0201 18.7393 9.52012 14.5693 9.52012H3.7793C3.2293 9.52012 2.7793 9.97012 2.7793 10.5201V40.1801C2.7793 40.7301 3.2293 41.1801 3.7793 41.1801H17.2393C20.9593 41.1801 22.8693 42.3301 22.9993 42.7601C22.9993 42.7601 22.9993 42.7801 22.9993 42.7901C22.9993 42.8201 22.9993 42.8501 22.9993 42.8801C22.9993 43.4301 23.4493 43.8801 23.9993 43.8801C24.5493 43.8801 24.9993 43.4301 24.9993 42.8801C24.9993 42.8401 24.9993 42.8101 24.9993 42.7701C25.1693 42.3001 27.0693 41.1801 30.7493 41.1801H44.2093C44.7593 41.1801 45.2093 40.7301 45.2093 40.1801V10.5201C45.2093 9.97012 44.7593 9.52012 44.2093 9.52012H44.2193ZM32.4993 6.12012H37.8193V35.1301H32.0193C29.4493 35.1301 26.7593 36.1801 24.9893 38.0201V13.2201C24.9893 11.2701 27.2993 6.13012 32.4893 6.13012L32.4993 6.12012ZM17.2393 39.1801H4.7793V11.5201H14.5593C21.4393 11.5201 22.9993 12.9501 22.9993 13.2101V40.3001C21.5993 39.6001 19.5693 39.1701 17.2393 39.1701V39.1801ZM43.2193 39.1801H30.7593C28.9593 39.1801 27.3493 39.4401 26.0693 39.8701C27.3993 38.1601 29.7693 37.1301 32.0293 37.1301H38.8293C39.3793 37.1301 39.8293 36.6801 39.8293 36.1301V11.5201H43.2193V39.1801Z" fill="#323232"/>
</svg>
