<svg width="48" height="48" viewBox="0 0 48 48" fill="none" xmlns="http://www.w3.org/2000/svg">
<path d="M17.2504 26.0202V19.2702C17.2504 17.0302 15.4404 15.2202 13.2004 15.2202C10.9604 15.2202 9.15039 17.0302 9.15039 19.2702V26.0202H17.2504Z" fill="#8DE2E0"/>
<path d="M35.8 12.2499V4.41992C35.8 3.86992 35.35 3.41992 34.8 3.41992H3.75C3.2 3.41992 2.75 3.86992 2.75 4.41992V40.8699C2.75 42.9099 4.41 44.5699 6.45 44.5699H32.1C34.14 44.5699 35.8 42.9099 35.8 40.8699V35.7399C41.09 35.2299 45.25 30.7699 45.25 25.3399V22.6399C45.25 17.2199 41.09 12.7499 35.8 12.2399V12.2499ZM35.8 18.6399C37.67 19.1099 39.06 20.8399 39.06 22.9099V25.0699C39.06 27.1399 37.67 28.8799 35.8 29.3399V18.6299V18.6399ZM13.2 16.2299C14.88 16.2299 16.25 17.5999 16.25 19.2799V25.0299H10.15V19.2799C10.15 17.5999 11.52 16.2299 13.2 16.2299ZM33.8 40.8799C33.8 41.8199 33.04 42.5799 32.1 42.5799H6.45C5.51 42.5799 4.75 41.8199 4.75 40.8799V5.41992H12.2V14.3199C9.89 14.7899 8.15 16.8299 8.15 19.2699V26.0199C8.15 26.5699 8.6 27.0199 9.15 27.0199H17.25C17.8 27.0199 18.25 26.5699 18.25 26.0199V19.2699C18.25 16.8299 16.51 14.7899 14.2 14.3199V5.41992H33.8V40.8699V40.8799ZM43.25 25.3499C43.25 29.6699 39.99 33.2399 35.8 33.7399V31.4099C38.78 30.9199 41.06 28.2699 41.06 25.0899V22.9299C41.06 19.7399 38.78 17.0999 35.8 16.6099V14.2799C39.99 14.7799 43.25 18.3399 43.25 22.6699V25.3699V25.3499Z" fill="#323232"/>
</svg>
