<svg width="70" height="70" viewBox="0 0 70 70" fill="none" xmlns="http://www.w3.org/2000/svg">
<g clip-path="url(#clip0_15605_1701)">
<path d="M36.7898 11.3167C36.831 12.3867 36.3783 13.2509 35.5964 13.7447L36.9544 15.6377L35.4318 15.72L34.3618 14.1562C34.2795 14.1562 34.1972 14.1562 34.1149 14.1562C32.4277 14.2385 31.2343 13.2097 31.152 11.5636L31.0285 8.43604C30.9462 6.74879 31.975 5.63768 33.7446 5.55538C35.4318 5.47307 36.6664 6.50188 36.7487 8.14797L36.8721 11.2755L36.7898 11.3167ZM32.3865 11.5225C32.3865 12.4278 33.0038 13.0451 33.9915 13.0039C34.9791 12.9628 35.5141 12.3044 35.473 11.399L35.3495 8.27143C35.3084 7.36608 34.7322 6.74879 33.7446 6.78995C32.7569 6.8311 32.2219 7.48954 32.2631 8.39488L32.3865 11.5225Z" fill="#DF0000"/>
<path d="M38.1891 14.0327L43.1274 6.83105L44.4442 7.24258V16.008L43.0862 15.5965V13.8269L40.3702 12.9627L39.3825 14.4031L38.1479 14.0327H38.1891ZM41.0286 11.9751L43.2097 12.6747L43.292 8.64175L41.0286 12.0162V11.9751Z" fill="#DF0000"/>
<path d="M50.2055 20.2469L49.3413 19.5885L50.3701 13.0041L46.7487 17.572L45.8022 16.8313L50.9874 10.2881L51.8928 10.9877L50.864 17.4486L54.4031 13.0041L55.3496 13.7449L50.1644 20.2881L50.2055 20.2469Z" fill="#DF0000"/>
<path d="M58.0658 16.6255L61.0699 21.2345L60.0822 21.893L58.93 20.1646L52.9218 24.1152L52.2222 23.0041L58.2304 19.0535L57.0781 17.3251L58.0658 16.6666V16.6255Z" fill="#DF0000"/>
<path d="M54.3208 26.1316L63.0862 26.3374L63.4566 27.6543L56.0903 32.3868L55.72 31.0699L57.2015 30.1234L56.4196 27.325H54.65L54.3208 26.0493V26.1316ZM57.5718 27.4073L58.1891 29.5884L61.6048 27.4485H57.5718V27.4073Z" fill="#DF0000"/>
<path d="M61.6867 38.2717H61.9336C62.6744 38.354 63.2505 37.8601 63.2917 36.9959C63.3328 36.1317 62.9624 35.5968 62.304 35.5556C61.8925 35.5556 61.4398 35.8025 61.1929 36.3375L60.6168 37.5721C60.1641 38.5597 59.588 39.5474 58.0653 39.4651C56.5838 39.3416 55.6373 38.1894 55.7608 36.5021C55.8842 34.8149 56.8719 33.7038 58.3945 33.8272H58.6414L58.5591 35.1441H58.2711C57.4892 35.0618 56.9542 35.5968 56.9131 36.5433C56.8307 37.5309 57.3246 38.1071 58.0653 38.1894C58.7649 38.2305 59.1353 37.819 59.4233 37.1194L59.9995 35.926C60.4933 34.8972 61.1929 34.1976 62.3452 34.2799C63.6209 34.3622 64.5262 35.4733 64.4028 37.0371C64.2793 38.642 63.2917 39.6708 61.8102 39.5474H61.6456L61.7279 38.2305L61.6867 38.2717Z" fill="#DF0000"/>
<path d="M14.0328 32.4279V35.1851C14.0328 36.8312 12.9628 38.0657 11.3167 38.0246C9.62946 38.0246 8.55951 36.79 8.55951 35.1439V33.7036H5.6377V32.3867H13.9916L14.0328 32.4279ZM12.8805 33.7036H9.75292V35.0205C9.75292 36.0081 10.3702 36.6666 11.3579 36.6666C12.3044 36.6666 12.9216 36.0493 12.9216 35.0616V33.7447L12.8805 33.7036Z" fill="#DF0000"/>
<path d="M10.9464 46.9958C9.38261 47.572 7.98344 46.8724 7.36615 45.2674C6.79002 43.6625 7.36615 42.2222 8.92994 41.646L11.8929 40.5761C13.4567 40 14.8147 40.6172 15.432 42.3045C16.0081 43.9094 15.432 45.3498 13.8682 45.9259L10.9052 46.9958H10.9464ZM9.42377 42.8806C8.55957 43.2098 8.14805 43.9506 8.51842 44.8559C8.84764 45.7613 9.62953 46.0905 10.4937 45.7613L13.4567 44.6913C14.3209 44.3621 14.7324 43.6214 14.362 42.716C14.0328 41.8107 13.2509 41.4814 12.3867 41.8107L9.42377 42.8806Z" fill="#DF0000"/>
<path d="M11.6872 52.8393L10.9053 51.7693L17.6542 46.8311L18.4361 47.901L11.6872 52.8393Z" fill="#DF0000"/>
<path d="M19.1357 59.8354L18.2715 59.177L19.2592 52.5927L15.6789 57.1606L14.7324 56.4198L19.8765 49.8354L20.7818 50.535L19.7941 56.9959L23.2921 52.5103L24.2386 53.2511L19.0946 59.8354H19.1357Z" fill="#DF0000"/>
<path d="M25.8023 54.0737L31.0287 55.8021L30.6583 56.9132L28.683 56.2548L26.4196 63.0861L25.1851 62.6746L27.4484 55.8433L25.4731 55.1848L25.8435 54.0737H25.8023Z" fill="#DF0000"/>
<path d="M36.6255 58.4363V58.1894C36.6255 57.4487 36.0905 56.9137 35.2263 56.9137C34.3621 56.9137 33.8683 57.3664 33.8683 58.0248C33.8683 58.4775 34.1563 58.8479 34.7736 59.0536L36.0493 59.5063C37.0782 59.8767 38.107 60.3705 38.1481 61.8931C38.1481 63.3746 37.037 64.4034 35.3909 64.4034C33.7037 64.4034 32.5103 63.4981 32.5103 62.0166V61.7697H33.786V62.0577C33.786 62.8396 34.3621 63.3335 35.3498 63.3335C36.3374 63.3335 36.8724 62.7985 36.8724 62.0577C36.8724 61.3582 36.4197 61.0289 35.7201 60.782L34.4856 60.3293C33.4156 59.9178 32.6749 59.3005 32.6749 58.1483C32.6749 56.8726 33.6625 55.8849 35.2675 55.8438C36.8724 55.8438 37.9835 56.7491 37.9835 58.2306V58.3952H36.6666L36.6255 58.4363Z" fill="#DF0000"/>
<path d="M56.5019 53.7859C56.5019 53.7859 56.5843 53.7859 56.6254 53.7859C56.7077 53.7859 56.7489 53.7859 56.79 53.7036C56.8312 53.6213 56.8723 53.4978 56.79 53.4155C52.469 48.8476 47.1604 45.185 41.1933 42.8394L39.3826 42.0986C38.4361 41.6871 37.8188 40.7818 37.8188 39.7529C37.9423 35.8435 47.1192 36.6665 48.0657 34.8147L48.2303 34.4855C46.3373 32.8394 44.1151 31.646 41.646 30.9464C41.646 31.0698 41.5225 31.4813 42.0575 32.3455C42.5925 33.2097 41.4814 34.6501 39.7941 33.1274L39.6295 33.004C27.4896 21.8517 21.8517 29.218 13.6213 16.255C13.539 16.1316 13.4567 16.0904 13.3332 16.1727C13.2098 16.255 13.1686 16.3373 13.2098 16.4608C19.7118 32.1398 33.0452 28.8476 34.6089 43.4567C34.6912 43.9916 35.0616 44.4443 35.6378 44.5266C43.0452 45.6789 50.2468 48.7653 56.5019 53.7859Z" fill="#DF0000"/>
<path d="M34.9794 70C15.679 70 0 54.2798 0 34.9794C0 15.679 15.679 0 34.9794 0C54.2798 0 69.9588 15.679 69.9588 34.9794C69.9588 54.2798 54.2798 69.9588 34.9794 69.9588V70ZM34.9794 2.18107C16.9136 2.18107 2.18107 16.9136 2.18107 34.9794C2.18107 53.0453 16.9136 67.8189 35.0206 67.8189C53.1276 67.8189 67.8601 53.0864 67.8601 34.9794C67.8601 16.8724 53.0864 2.18107 34.9794 2.18107Z" fill="#DF0000"/>
</g>
<defs>
<clipPath id="clip0_15605_1701">
<rect width="70" height="70" fill="white"/>
</clipPath>
</defs>
</svg>
