<svg width="48" height="48" viewBox="0 0 48 48" fill="none" xmlns="http://www.w3.org/2000/svg">
<path d="M16.8406 19.7903C15.2706 19.7903 13.7006 19.7903 12.1406 19.7903C11.974 19.7903 11.8906 19.8736 11.8906 20.0403V36.5003H12.1006C13.7006 36.5003 15.2906 36.5003 16.8906 36.5003C17.0706 36.5003 17.1006 36.4403 17.1006 36.2703C17.1006 30.8603 17.1006 25.4403 17.1006 20.0303C17.1006 19.7803 17.1006 19.7803 16.8506 19.7803L16.8406 19.7903Z" fill="#323232"/>
<path d="M14.4909 11.5C12.8409 11.5 11.4509 12.88 11.4709 14.52C11.4609 16.19 12.7809 17.57 14.4909 17.56C16.2209 17.56 17.5209 16.24 17.5309 14.53C17.5309 12.84 16.1709 11.51 14.4909 11.5Z" fill="#323232"/>
<path d="M36.4903 25.9899C36.4903 25.4399 36.4003 24.8899 36.3203 24.3499C36.1803 23.4699 35.9303 22.6199 35.4803 21.8399C34.9103 20.8699 34.0903 20.1899 33.0303 19.8199C32.0803 19.4799 31.1003 19.3799 30.0903 19.3999C29.5603 19.4099 29.0403 19.4899 28.5303 19.6399C27.2503 20.0199 26.2203 20.7499 25.4903 21.8799C25.4403 21.9499 25.4103 22.0199 25.3603 22.0899C25.3503 22.0899 25.3303 22.0899 25.3203 22.0799C25.3203 22.0199 25.3203 21.9599 25.3203 21.8999V20.0299C25.3203 19.7999 25.3203 19.7999 25.0903 19.7999C23.5703 19.7999 22.0603 19.7999 20.5403 19.7999C20.3303 19.7999 20.3203 19.7999 20.3203 20.0199C20.3203 25.4399 20.3203 30.8699 20.3203 36.2899C20.3203 36.4699 20.3803 36.5099 20.5403 36.5099C22.1203 36.5099 23.7003 36.5099 25.2803 36.5099C25.447 36.5099 25.5303 36.4266 25.5303 36.2599C25.5403 33.3299 25.5503 30.3999 25.5603 27.4699C25.5603 26.8899 25.6703 26.3199 25.8703 25.7599C26.1603 24.9399 26.7003 24.3599 27.5503 24.1199C28.0403 23.9799 28.5403 23.9399 29.0503 23.9999C29.9303 24.0999 30.5603 24.5299 30.9203 25.3499C31.1903 25.9799 31.2903 26.6399 31.2903 27.3199C31.3003 30.3099 31.2903 33.2899 31.2903 36.2799C31.2903 36.4332 31.367 36.5099 31.5203 36.5099H36.5303V36.2799C36.5303 35.1999 36.5303 34.1299 36.5303 33.0499C36.5303 30.6999 36.5203 28.3499 36.4903 25.9999V25.9899Z" fill="#323232"/>
</svg>
