<svg width="48" height="48" viewBox="0 0 48 48" fill="none" xmlns="http://www.w3.org/2000/svg">
<mask id="mask0_12111_13030" style="mask-type:luminance" maskUnits="userSpaceOnUse" x="2" y="2" width="44" height="44">
<path d="M12.07 2.68018H35.93C38.4177 2.68018 40.8036 3.66842 42.5627 5.42751C44.3218 7.18661 45.31 9.57244 45.31 12.0602V35.9102C45.31 38.4006 44.3207 40.7889 42.5597 42.5499C40.7988 44.3109 38.4104 45.3002 35.92 45.3002H12.07C9.58227 45.3002 7.19643 44.3119 5.43734 42.5528C3.67825 40.7937 2.69 38.4079 2.69 35.9202V12.0602C2.69 9.57244 3.67825 7.18661 5.43734 5.42751C7.19643 3.66842 9.58227 2.68018 12.07 2.68018Z" fill="white"/>
</mask>
<g mask="url(#mask0_12111_13030)">
<path d="M45.31 44.5303H2.69V45.2903H45.31V44.5303Z" fill="#B52A20"/>
<path d="M45.31 43.5303H2.69V44.5403H45.31V43.5303Z" fill="#B6291F"/>
<path d="M45.31 42.52H2.69V43.53H45.31V42.52Z" fill="#B7281E"/>
<path d="M45.31 41.52H2.69V42.53H45.31V41.52Z" fill="#B8271E"/>
<path d="M45.31 40.5103H2.69V41.5203H45.31V40.5103Z" fill="#B9261D"/>
<path d="M45.31 39.5H2.69V40.51H45.31V39.5Z" fill="#BA251C"/>
<path d="M45.31 38.5H2.69V39.51H45.31V38.5Z" fill="#BB241B"/>
<path d="M45.31 37.4902H2.69V38.5002H45.31V37.4902Z" fill="#BC231B"/>
<path d="M45.31 36.4902H2.69V37.5002H45.31V36.4902Z" fill="#BD221A"/>
<path d="M45.31 35.48H2.69V36.49H45.31V35.48Z" fill="#BE2119"/>
<path d="M45.31 34.48H2.69V35.49H45.31V34.48Z" fill="#BF2018"/>
<path d="M45.31 33.4702H2.69V34.4802H45.31V33.4702Z" fill="#C01F17"/>
<path d="M45.31 32.4702H2.69V33.4802H45.31V32.4702Z" fill="#C11E17"/>
<path d="M45.31 31.46H2.69V32.47H45.31V31.46Z" fill="#C21D16"/>
<path d="M45.31 30.4502H2.69V31.4602H45.31V30.4502Z" fill="#C31C15"/>
<path d="M45.31 29.4502H2.69V30.4602H45.31V29.4502Z" fill="#C41B14"/>
<path d="M45.31 28.4399H2.69V29.4499H45.31V28.4399Z" fill="#C51A14"/>
<path d="M45.31 27.4399H2.69V28.4499H45.31V27.4399Z" fill="#C61913"/>
<path d="M45.31 26.4302H2.69V27.4402H45.31V26.4302Z" fill="#C71812"/>
<path d="M45.31 25.4302H2.69V26.4402H45.31V25.4302Z" fill="#C81711"/>
<path d="M45.31 24.4204H2.69V25.4304H45.31V24.4204Z" fill="#C91610"/>
<path d="M45.31 23.4102H2.69V24.4202H45.31V23.4102Z" fill="#CB1410"/>
<path d="M45.31 22.4102H2.69V23.4202H45.31V22.4102Z" fill="#CC130F"/>
<path d="M45.31 21.4004H2.69V22.4104H45.31V21.4004Z" fill="#CD120E"/>
<path d="M45.31 20.4004H2.69V21.4104H45.31V20.4004Z" fill="#CE110D"/>
<path d="M45.31 19.3901H2.69V20.4001H45.31V19.3901Z" fill="#CF100C"/>
<path d="M45.31 18.3901H2.69V19.4001H45.31V18.3901Z" fill="#D00F0C"/>
<path d="M45.31 17.3804H2.69V18.3904H45.31V17.3804Z" fill="#D10E0B"/>
<path d="M45.31 16.3701H2.69V17.3801H45.31V16.3701Z" fill="#D20D0A"/>
<path d="M45.31 15.3701H2.69V16.3801H45.31V15.3701Z" fill="#D30C09"/>
<path d="M45.31 14.3604H2.69V15.3704H45.31V14.3604Z" fill="#D40B09"/>
<path d="M45.31 13.3604H2.69V14.3704H45.31V13.3604Z" fill="#D50A08"/>
<path d="M45.31 12.3501H2.69V13.3601H45.31V12.3501Z" fill="#D60907"/>
<path d="M45.31 11.3501H2.69V12.3601H45.31V11.3501Z" fill="#D70806"/>
<path d="M45.31 10.3403H2.69V11.3503H45.31V10.3403Z" fill="#D80705"/>
<path d="M45.31 9.34033H2.69V10.3503H45.31V9.34033Z" fill="#D90605"/>
<path d="M45.31 8.33008H2.69V9.34008H45.31V8.33008Z" fill="#DA0504"/>
<path d="M45.31 7.32031H2.69V8.33031H45.31V7.32031Z" fill="#DB0403"/>
<path d="M45.31 6.32031H2.69V7.33031H45.31V6.32031Z" fill="#DC0302"/>
<path d="M45.31 5.31006H2.69V6.32006H45.31V5.31006Z" fill="#DD0202"/>
<path d="M45.31 4.31006H2.69V5.32006H45.31V4.31006Z" fill="#DE0101"/>
<path d="M45.31 3.30029H2.69V4.31029H45.31V3.30029Z" fill="#DF0000"/>
<path d="M45.31 2.68018H2.69V3.31018H45.31V2.68018Z" fill="#DF0000"/>
</g>
<path d="M40.25 38.2799C40.2853 38.2938 40.3246 38.2938 40.36 38.2799C40.3955 38.2929 40.4345 38.2929 40.47 38.2799C40.487 38.2648 40.5007 38.2464 40.51 38.2257C40.5193 38.205 40.5242 38.1826 40.5242 38.1599C40.5242 38.1372 40.5193 38.1147 40.51 38.094C40.5007 38.0733 40.487 38.0549 40.47 38.0399C37.1532 34.561 33.1296 31.8332 28.67 30.0399L27.3 29.4899C26.9454 29.3469 26.6431 29.0987 26.4339 28.7786C26.2247 28.4585 26.1186 28.0821 26.13 27.6999C26.2 24.7599 33.13 25.3599 33.86 23.9499L33.98 23.7099C32.5425 22.447 30.8411 21.5211 29 20.9999C29 21.0699 28.93 21.4099 29.32 21.9999C29.71 22.5899 28.86 23.7499 27.6 22.5899L27.49 22.4899C18.28 14.1099 14 19.6899 7.78999 9.87986C7.77881 9.86078 7.76379 9.84422 7.74588 9.83124C7.72797 9.81826 7.70757 9.80913 7.68596 9.80443C7.66434 9.79973 7.64199 9.79957 7.62031 9.80394C7.59863 9.80832 7.57809 9.81714 7.55999 9.82986C7.52597 9.84887 7.50068 9.88037 7.48948 9.9177C7.47828 9.95503 7.48205 9.99526 7.49999 10.0299C12.42 21.9299 22.5 19.4099 23.7 30.4999C23.7186 30.6981 23.8039 30.8842 23.942 31.0277C24.08 31.1711 24.2626 31.2636 24.46 31.2899C30.2479 32.2021 35.6957 34.6157 40.26 38.2899L40.25 38.2799Z" fill="white"/>
<mask id="mask1_12111_13030" style="mask-type:luminance" maskUnits="userSpaceOnUse" x="7" y="9" width="17" height="22">
<path d="M7.78998 9.88007C14.85 21.0801 22.42 15.5501 23.69 30.5001C22.5 19.4101 12.41 21.9301 7.48998 10.0001C7.47204 9.96547 7.46827 9.92525 7.47947 9.88792C7.49067 9.85059 7.51596 9.81908 7.54998 9.80007C7.56808 9.78736 7.58862 9.77853 7.6103 9.77416C7.63198 9.76978 7.65433 9.76995 7.67595 9.77465C7.69756 9.77935 7.71796 9.78847 7.73587 9.80146C7.75378 9.81444 7.7688 9.83099 7.77998 9.85007L7.78998 9.88007Z" fill="white"/>
</mask>
<g mask="url(#mask1_12111_13030)">
<path d="M11.04 9.78027H7.45001V30.5103H11.04V9.78027Z" fill="white"/>
<path d="M11.22 9.78027H11.05V30.5103H11.22V9.78027Z" fill="white"/>
<path d="M11.39 9.78027H11.22V30.5103H11.39V9.78027Z" fill="#FEFEFE"/>
<path d="M11.56 9.78027H11.39V30.5103H11.56V9.78027Z" fill="#FEFEFE"/>
<path d="M11.73 9.78027H11.56V30.5103H11.73V9.78027Z" fill="#FDFDFD"/>
<path d="M11.9 9.78027H11.73V30.5103H11.9V9.78027Z" fill="#FCFCFC"/>
<path d="M12.08 9.78027H11.91V30.5103H12.08V9.78027Z" fill="#FCFCFC"/>
<path d="M12.25 9.78027H12.08V30.5103H12.25V9.78027Z" fill="#FBFBFB"/>
<path d="M12.42 9.78027H12.25V30.5103H12.42V9.78027Z" fill="#FAFAFA"/>
<path d="M12.59 9.78027H12.42V30.5103H12.59V9.78027Z" fill="#F9F9F9"/>
<path d="M12.76 9.78027H12.59V30.5103H12.76V9.78027Z" fill="#F9F9F9"/>
<path d="M12.93 9.78027H12.76V30.5103H12.93V9.78027Z" fill="#F8F8F8"/>
<path d="M13.1 9.78027H12.93V30.5103H13.1V9.78027Z" fill="#F7F7F7"/>
<path d="M13.27 9.78027H13.1V30.5103H13.27V9.78027Z" fill="#F6F6F6"/>
<path d="M13.45 9.78027H13.28V30.5103H13.45V9.78027Z" fill="#F5F5F5"/>
<path d="M13.62 9.78027H13.45V30.5103H13.62V9.78027Z" fill="#F4F4F4"/>
<path d="M13.79 9.78027H13.62V30.5103H13.79V9.78027Z" fill="#F3F3F3"/>
<path d="M13.96 9.78027H13.79V30.5103H13.96V9.78027Z" fill="#F2F2F2"/>
<path d="M14.13 9.78027H13.96V30.5103H14.13V9.78027Z" fill="#F2F2F2"/>
<path d="M14.3 9.78027H14.13V30.5103H14.3V9.78027Z" fill="#F1F1F1"/>
<path d="M14.47 9.78027H14.3V30.5103H14.47V9.78027Z" fill="#F0F0F0"/>
<path d="M14.65 9.78027H14.48V30.5103H14.65V9.78027Z" fill="#EFEFEF"/>
<path d="M14.82 9.78027H14.65V30.5103H14.82V9.78027Z" fill="#EEEEEE"/>
<path d="M14.99 9.78027H14.82V30.5103H14.99V9.78027Z" fill="#EDEDED"/>
<path d="M15.16 9.78027H14.99V30.5103H15.16V9.78027Z" fill="#ECECEC"/>
<path d="M15.33 9.78027H15.16V30.5103H15.33V9.78027Z" fill="#EBEBEB"/>
<path d="M15.5 9.78027H15.33V30.5103H15.5V9.78027Z" fill="#EAEAEA"/>
<path d="M15.67 9.78027H15.5V30.5103H15.67V9.78027Z" fill="#E9E9E9"/>
<path d="M15.85 9.78027H15.68V30.5103H15.85V9.78027Z" fill="#E8E8E8"/>
<path d="M16.02 9.78027H15.85V30.5103H16.02V9.78027Z" fill="#E7E7E7"/>
<path d="M16.19 9.78027H16.02V30.5103H16.19V9.78027Z" fill="#E6E6E6"/>
<path d="M16.36 9.78027H16.19V30.5103H16.36V9.78027Z" fill="#E5E5E5"/>
<path d="M16.53 9.78027H16.36V30.5103H16.53V9.78027Z" fill="#E4E4E4"/>
<path d="M16.7 9.78027H16.53V30.5103H16.7V9.78027Z" fill="#E3E3E3"/>
<path d="M16.87 9.78027H16.7V30.5103H16.87V9.78027Z" fill="#E2E2E2"/>
<path d="M17.04 9.78027H16.87V30.5103H17.04V9.78027Z" fill="#E1E1E1"/>
<path d="M17.22 9.78027H17.05V30.5103H17.22V9.78027Z" fill="#E0E0E0"/>
<path d="M17.39 9.78027H17.22V30.5103H17.39V9.78027Z" fill="#DFDFDF"/>
<path d="M17.56 9.78027H17.39V30.5103H17.56V9.78027Z" fill="#DEDEDE"/>
<path d="M17.73 9.78027H17.56V30.5103H17.73V9.78027Z" fill="#DDDDDD"/>
<path d="M17.9 9.78027H17.73V30.5103H17.9V9.78027Z" fill="#DCDCDC"/>
<path d="M18.07 9.78027H17.9V30.5103H18.07V9.78027Z" fill="#DBDBDB"/>
<path d="M18.24 9.78027H18.07V30.5103H18.24V9.78027Z" fill="#DADADA"/>
<path d="M18.42 9.78027H18.25V30.5103H18.42V9.78027Z" fill="#D9D9D9"/>
<path d="M18.59 9.78027H18.42V30.5103H18.59V9.78027Z" fill="#D7D7D7"/>
<path d="M18.76 9.78027H18.59V30.5103H18.76V9.78027Z" fill="#D6D6D6"/>
<path d="M18.93 9.78027H18.76V30.5103H18.93V9.78027Z" fill="#D5D5D5"/>
<path d="M19.1 9.78027H18.93V30.5103H19.1V9.78027Z" fill="#D4D4D4"/>
<path d="M19.27 9.78027H19.1V30.5103H19.27V9.78027Z" fill="#D3D3D3"/>
<path d="M19.44 9.78027H19.27V30.5103H19.44V9.78027Z" fill="#D2D2D2"/>
<path d="M19.61 9.78027H19.44V30.5103H19.61V9.78027Z" fill="#D1D1D1"/>
<path d="M19.79 9.78027H19.62V30.5103H19.79V9.78027Z" fill="#D0D0D0"/>
<path d="M19.96 9.78027H19.79V30.5103H19.96V9.78027Z" fill="#CFCFCF"/>
<path d="M20.13 9.78027H19.96V30.5103H20.13V9.78027Z" fill="#CECECE"/>
<path d="M20.3 9.78027H20.13V30.5103H20.3V9.78027Z" fill="#CDCDCD"/>
<path d="M20.47 9.78027H20.3V30.5103H20.47V9.78027Z" fill="#CCCCCC"/>
<path d="M20.64 9.78027H20.47V30.5103H20.64V9.78027Z" fill="#CACACA"/>
<path d="M20.81 9.78027H20.64V30.5103H20.81V9.78027Z" fill="#C9C9C9"/>
<path d="M20.99 9.78027H20.82V30.5103H20.99V9.78027Z" fill="#C8C8C8"/>
<path d="M21.16 9.78027H20.99V30.5103H21.16V9.78027Z" fill="#C7C7C7"/>
<path d="M21.33 9.78027H21.16V30.5103H21.33V9.78027Z" fill="#C6C6C6"/>
<path d="M21.5 9.78027H21.33V30.5103H21.5V9.78027Z" fill="#C5C5C5"/>
<path d="M21.67 9.78027H21.5V30.5103H21.67V9.78027Z" fill="#C4C4C4"/>
<path d="M21.84 9.78027H21.67V30.5103H21.84V9.78027Z" fill="#C3C3C3"/>
<path d="M22.01 9.78027H21.84V30.5103H22.01V9.78027Z" fill="#C1C1C1"/>
<path d="M22.19 9.78027H22.02V30.5103H22.19V9.78027Z" fill="#C0C0C0"/>
<path d="M22.36 9.78027H22.19V30.5103H22.36V9.78027Z" fill="#BFBFBF"/>
<path d="M22.53 9.78027H22.36V30.5103H22.53V9.78027Z" fill="#BEBEBE"/>
<path d="M22.7 9.78027H22.53V30.5103H22.7V9.78027Z" fill="#BDBDBD"/>
<path d="M22.87 9.78027H22.7V30.5103H22.87V9.78027Z" fill="#BCBCBC"/>
<path d="M23.04 9.78027H22.87V30.5103H23.04V9.78027Z" fill="#BBBBBB"/>
<path d="M23.21 9.78027H23.04V30.5103H23.21V9.78027Z" fill="#B9B9B9"/>
<path d="M23.38 9.78027H23.21V30.5103H23.38V9.78027Z" fill="#B8B8B8"/>
<path d="M23.56 9.78027H23.39V30.5103H23.56V9.78027Z" fill="#B7B7B7"/>
<path d="M23.69 9.78027H23.56V30.5103H23.69V9.78027Z" fill="#B6B6B6"/>
</g>
<mask id="mask2_12111_13030" style="mask-type:luminance" maskUnits="userSpaceOnUse" x="28" y="22" width="4" height="4">
<path d="M31.79 23.5198C31.285 23.5093 30.7913 23.3685 30.3567 23.1109C29.9222 22.8534 29.5616 22.4878 29.31 22.0498C29.3767 22.163 29.4116 22.292 29.4111 22.4233C29.4106 22.5547 29.3747 22.6834 29.3071 22.7961C29.2395 22.9087 29.1428 23.001 29.0272 23.0632C28.9115 23.1255 28.7812 23.1554 28.65 23.1498V25.4998C29.65 25.2098 30.82 25.0298 31.79 24.8198V23.5198Z" fill="white"/>
</mask>
<g mask="url(#mask2_12111_13030)">
<path d="M28.65 23.2197L31.79 23.4997V25.4997H28.65V23.2197Z" fill="white"/>
<path d="M28.65 23.21L31.79 23.48V23.5L28.65 23.22V23.21Z" fill="white"/>
<path d="M28.65 23.1997L31.79 23.4697V23.4797L28.65 23.2097V23.1997Z" fill="#FDFDFD"/>
<path d="M28.65 23.1797L31.79 23.4597V23.4697L28.65 23.1997V23.1797Z" fill="#FCFCFC"/>
<path d="M28.65 23.1699L31.79 23.4399V23.4599L28.65 23.1799V23.1699Z" fill="#FAFAFA"/>
<path d="M28.65 23.1597L31.79 23.4297V23.4397L28.65 23.1697V23.1597Z" fill="#F9F9F9"/>
<path d="M28.65 23.1396L31.79 23.4196V23.4296L28.65 23.1596V23.1396Z" fill="#F7F7F7"/>
<path d="M28.65 23.1299L31.79 23.3999V23.4199L28.65 23.1399V23.1299Z" fill="#F5F5F5"/>
<path d="M28.65 23.1196L31.79 23.3896V23.3996L28.65 23.1296V23.1196Z" fill="#F4F4F4"/>
<path d="M28.65 23.0996L31.79 23.3796V23.3896L28.65 23.1196V23.0996Z" fill="#F2F2F2"/>
<path d="M28.65 23.0898L31.79 23.3598V23.3798L28.65 23.0998V23.0898Z" fill="#F1F1F1"/>
<path d="M28.65 23.0796L31.79 23.3496V23.3596L28.65 23.0896V23.0796Z" fill="#EFEFEF"/>
<path d="M28.65 23.0596L31.79 23.3396V23.3496L28.65 23.0796V23.0596Z" fill="#EEEEEE"/>
<path d="M28.65 23.0498L31.79 23.3198V23.3398L28.65 23.0598V23.0498Z" fill="#ECECEC"/>
<path d="M28.65 23.04L31.79 23.31V23.32L28.65 23.05V23.04Z" fill="#EBEBEB"/>
<path d="M28.65 23.02L31.79 23.3V23.31L28.65 23.04V23.02Z" fill="#E9E9E9"/>
<path d="M28.65 23.0098L31.79 23.2898V23.2998L28.65 23.0198V23.0098Z" fill="#E8E8E8"/>
<path d="M28.65 23L31.79 23.27V23.29L28.65 23.01V23Z" fill="#E7E7E7"/>
<path d="M28.65 22.98L31.79 23.26V23.27L28.65 23V22.98Z" fill="#E5E5E5"/>
<path d="M28.65 22.9697L31.79 23.2497V23.2597L28.65 22.9797V22.9697Z" fill="#E4E4E4"/>
<path d="M28.65 22.96L31.79 23.23V23.25L28.65 22.97V22.96Z" fill="#E2E2E2"/>
<path d="M28.65 22.9497L31.79 23.2197V23.2297L28.65 22.9597V22.9497Z" fill="#E1E1E1"/>
<path d="M28.65 22.9297L31.79 23.2097V23.2197L28.65 22.9497V22.9297Z" fill="#E0E0E0"/>
<path d="M28.65 22.9199L31.79 23.1899V23.2099L28.65 22.9299V22.9199Z" fill="#DEDEDE"/>
<path d="M28.65 22.9097L31.79 23.1797V23.1897L28.65 22.9197V22.9097Z" fill="#DDDDDD"/>
<path d="M28.65 22.8896L31.79 23.1696V23.1796L28.65 22.9096V22.8896Z" fill="#DCDCDC"/>
<path d="M28.65 22.8799L31.79 23.1499V23.1699L28.65 22.8899V22.8799Z" fill="#DADADA"/>
<path d="M28.65 22.8696L31.79 23.1396V23.1496L28.65 22.8796V22.8696Z" fill="#D9D9D9"/>
<path d="M28.65 22.8496L31.79 23.1296V23.1396L28.65 22.8696V22.8496Z" fill="#D8D8D8"/>
<path d="M28.65 22.8398L31.79 23.1098V23.1298L28.65 22.8498V22.8398Z" fill="#D7D7D7"/>
<path d="M28.65 22.8296L31.79 23.0996V23.1096L28.65 22.8396V22.8296Z" fill="#D5D5D5"/>
<path d="M28.65 22.8096L31.79 23.0896V23.0996L28.65 22.8296V22.8096Z" fill="#D4D4D4"/>
<path d="M28.65 22.7998L31.79 23.0698V23.0898L28.65 22.8098V22.7998Z" fill="#D3D3D3"/>
<path d="M28.65 22.79L31.79 23.06V23.07L28.65 22.8V22.79Z" fill="#D2D2D2"/>
<path d="M28.65 22.77L31.79 23.05V23.06L28.65 22.79V22.77Z" fill="#D1D1D1"/>
<path d="M28.65 22.7598L31.79 23.0398V23.0498L28.65 22.7698V22.7598Z" fill="#CFCFCF"/>
<path d="M28.65 22.75L31.79 23.02V23.04L28.65 22.76V22.75Z" fill="#CECECE"/>
<path d="M28.65 22.73L31.79 23.01V23.02L28.65 22.75V22.73Z" fill="#CDCDCD"/>
<path d="M28.65 22.7197L31.79 22.9997V23.0097L28.65 22.7297V22.7197Z" fill="#CCCCCC"/>
<path d="M28.65 22.71L31.79 22.98V23L28.65 22.72V22.71Z" fill="#CBCBCB"/>
<path d="M28.65 22.6997L31.79 22.9697V22.9797L28.65 22.7097V22.6997Z" fill="#CACACA"/>
<path d="M28.65 22.6797L31.79 22.9597V22.9697L28.65 22.6997V22.6797Z" fill="#C9C9C9"/>
<path d="M28.65 22.6699L31.79 22.9399V22.9599L28.65 22.6799V22.6699Z" fill="#C8C8C8"/>
<path d="M28.65 22.6597L31.79 22.9297V22.9397L28.65 22.6697V22.6597Z" fill="#C7C7C7"/>
<path d="M28.65 22.6396L31.79 22.9196V22.9296L28.65 22.6596V22.6396Z" fill="#C6C6C6"/>
<path d="M28.65 22.6299L31.79 22.9099V22.9199L28.65 22.6399V22.6299Z" fill="#C5C5C5"/>
<path d="M28.65 22.6196L31.79 22.8896V22.9096L28.65 22.6296V22.6196Z" fill="#C4C4C4"/>
<path d="M28.65 22.5996L31.79 22.8796V22.8896L28.65 22.6196V22.5996Z" fill="#C3C3C3"/>
<path d="M28.65 22.5898L31.79 22.8598V22.8798L28.65 22.5998V22.5898Z" fill="#C2C2C2"/>
<path d="M28.65 22.5796L31.79 22.8496V22.8596L28.65 22.5896V22.5796Z" fill="#C1C1C1"/>
<path d="M28.65 22.5596L31.79 22.8396V22.8496L28.65 22.5796V22.5596Z" fill="#C0C0C0"/>
<path d="M28.65 22.5498L31.79 22.8298V22.8398L28.65 22.5598V22.5498Z" fill="#BFBFBF"/>
<path d="M28.65 22.54L31.79 22.81V22.83L28.65 22.55V22.54Z" fill="#BEBEBE"/>
<path d="M28.65 22.52L31.79 22.8V22.81L28.65 22.54V22.52Z" fill="#BDBDBD"/>
<path d="M28.65 22.5098L31.79 22.7898V22.7998L28.65 22.5198V22.5098Z" fill="#BCBCBC"/>
<path d="M28.65 22.5L31.79 22.77V22.79L28.65 22.51V22.5Z" fill="#BCBCBC"/>
<path d="M28.65 22.48L31.79 22.76V22.77L28.65 22.5V22.48Z" fill="#BBBBBB"/>
<path d="M28.65 22.4697L31.79 22.7497V22.7597L28.65 22.4797V22.4697Z" fill="#BABABA"/>
<path d="M28.65 22.46L31.79 22.73V22.75L28.65 22.47V22.46Z" fill="#B9B9B9"/>
<path d="M28.65 22.4497L31.79 22.7197V22.7297L28.65 22.4597V22.4497Z" fill="#B8B8B8"/>
<path d="M28.65 22.4297L31.79 22.7097V22.7197L28.65 22.4497V22.4297Z" fill="#B8B8B8"/>
<path d="M28.65 22.4199L31.79 22.6899V22.7099L28.65 22.4299V22.4199Z" fill="#B7B7B7"/>
<path d="M28.65 22.4097L31.79 22.6797V22.6897L28.65 22.4197V22.4097Z" fill="#B6B6B6"/>
<path d="M28.65 22.3896L31.79 22.6696V22.6796L28.65 22.4096V22.3896Z" fill="#B6B6B6"/>
<path d="M28.65 22.3799L31.79 22.6599V22.6699L28.65 22.3899V22.3799Z" fill="#B5B5B5"/>
<path d="M28.65 22.3696L31.79 22.6396V22.6596L28.65 22.3796V22.3696Z" fill="#B5B5B5"/>
<path d="M28.65 22.3496L31.79 22.6296V22.6396L28.65 22.3696V22.3496Z" fill="#B4B4B4"/>
<path d="M28.65 22.3398L31.79 22.6098V22.6298L28.65 22.3498V22.3398Z" fill="#B3B3B3"/>
<path d="M28.65 22.3296L31.79 22.5996V22.6096L28.65 22.3396V22.3296Z" fill="#B3B3B3"/>
<path d="M28.65 22.3096L31.79 22.5896V22.5996L28.65 22.3296V22.3096Z" fill="#B2B2B2"/>
<path d="M28.65 22.2998L31.79 22.5798V22.5898L28.65 22.3098V22.2998Z" fill="#B2B2B2"/>
<path d="M28.65 22.29L31.79 22.56V22.58L28.65 22.3V22.29Z" fill="#B1B1B1"/>
<path d="M28.65 22.27L31.79 22.55V22.56L28.65 22.29V22.27Z" fill="#B1B1B1"/>
<path d="M28.65 22.2598L31.79 22.5398V22.5498L28.65 22.2698V22.2598Z" fill="#B1B1B1"/>
<path d="M28.65 22.25L31.79 22.52V22.54L28.65 22.26V22.25Z" fill="#B0B0B0"/>
<path d="M28.65 22.2397L31.79 22.5097V22.5197L28.65 22.2497V22.2397Z" fill="#B0B0B0"/>
<path d="M28.65 22.2197L31.79 22.4997V22.5097L28.65 22.2397V22.2197Z" fill="#B0B0B0"/>
<path d="M28.65 22.21L31.79 22.48V22.5L28.65 22.22V22.21Z" fill="#AFAFAF"/>
<path d="M28.65 22.1997L31.79 22.4697V22.4797L28.65 22.2097V22.1997Z" fill="#AFAFAF"/>
<path d="M28.65 22.1797L31.79 22.4597V22.4697L28.65 22.1997V22.1797Z" fill="#AFAFAF"/>
<path d="M28.65 22.1699L31.79 22.4499V22.4599L28.65 22.1799V22.1699Z" fill="#AFAFAF"/>
<path d="M31.79 22.4498L28.65 22.1698V22.0498H31.79V22.4498Z" fill="#AFAFAF"/>
</g>
<mask id="mask3_12111_13030" style="mask-type:luminance" maskUnits="userSpaceOnUse" x="25" y="31" width="16" height="8">
<path d="M25.61 31.4999C30.9702 32.5311 35.9965 34.8589 40.25 38.2798C30.41 29.8698 25.93 31.3899 25.61 31.4999Z" fill="white"/>
</mask>
<g mask="url(#mask3_12111_13030)">
<path d="M25.77 29.8696H25.61V38.2696H25.77V29.8696Z" fill="white"/>
<path d="M25.93 29.8696H25.77V38.2696H25.93V29.8696Z" fill="#FDFDFD"/>
<path d="M26.1 29.8696H25.94V38.2696H26.1V29.8696Z" fill="#FBFBFB"/>
<path d="M26.26 29.8696H26.1V38.2696H26.26V29.8696Z" fill="#F9F9F9"/>
<path d="M26.43 29.8696H26.27V38.2696H26.43V29.8696Z" fill="#F7F7F7"/>
<path d="M26.59 29.8696H26.43V38.2696H26.59V29.8696Z" fill="#F5F5F5"/>
<path d="M26.76 29.8696H26.6V38.2696H26.76V29.8696Z" fill="#F4F4F4"/>
<path d="M26.92 29.8696H26.76V38.2696H26.92V29.8696Z" fill="#F2F2F2"/>
<path d="M27.09 29.8696H26.93V38.2696H27.09V29.8696Z" fill="#F0F0F0"/>
<path d="M27.25 29.8696H27.09V38.2696H27.25V29.8696Z" fill="#EEEEEE"/>
<path d="M27.42 29.8696H27.26V38.2696H27.42V29.8696Z" fill="#ECECEC"/>
<path d="M27.58 29.8696H27.42V38.2696H27.58V29.8696Z" fill="#EBEBEB"/>
<path d="M27.75 29.8696H27.59V38.2696H27.75V29.8696Z" fill="#E9E9E9"/>
<path d="M27.91 29.8696H27.75V38.2696H27.91V29.8696Z" fill="#E7E7E7"/>
<path d="M28.08 29.8696H27.92V38.2696H28.08V29.8696Z" fill="#E6E6E6"/>
<path d="M28.24 29.8696H28.08V38.2696H28.24V29.8696Z" fill="#E4E4E4"/>
<path d="M28.4 29.8696H28.24V38.2696H28.4V29.8696Z" fill="#E3E3E3"/>
<path d="M28.57 29.8696H28.41V38.2696H28.57V29.8696Z" fill="#E1E1E1"/>
<path d="M28.73 29.8696H28.57V38.2696H28.73V29.8696Z" fill="#DFDFDF"/>
<path d="M28.9 29.8696H28.74V38.2696H28.9V29.8696Z" fill="#DEDEDE"/>
<path d="M29.06 29.8696H28.9V38.2696H29.06V29.8696Z" fill="#DCDCDC"/>
<path d="M29.23 29.8696H29.07V38.2696H29.23V29.8696Z" fill="#DBDBDB"/>
<path d="M29.39 29.8696H29.23V38.2696H29.39V29.8696Z" fill="#D9D9D9"/>
<path d="M29.56 29.8696H29.4V38.2696H29.56V29.8696Z" fill="#D8D8D8"/>
<path d="M29.72 29.8696H29.56V38.2696H29.72V29.8696Z" fill="#D7D7D7"/>
<path d="M29.89 29.8696H29.73V38.2696H29.89V29.8696Z" fill="#D5D5D5"/>
<path d="M30.05 29.8696H29.89V38.2696H30.05V29.8696Z" fill="#D4D4D4"/>
<path d="M30.22 29.8696H30.06V38.2696H30.22V29.8696Z" fill="#D2D2D2"/>
<path d="M30.38 29.8696H30.22V38.2696H30.38V29.8696Z" fill="#D1D1D1"/>
<path d="M30.55 29.8696H30.39V38.2696H30.55V29.8696Z" fill="#D0D0D0"/>
<path d="M30.71 29.8696H30.55V38.2696H30.71V29.8696Z" fill="#CFCFCF"/>
<path d="M30.87 29.8696H30.71V38.2696H30.87V29.8696Z" fill="#CDCDCD"/>
<path d="M31.04 29.8696H30.88V38.2696H31.04V29.8696Z" fill="#CCCCCC"/>
<path d="M31.2 29.8696H31.04V38.2696H31.2V29.8696Z" fill="#CBCBCB"/>
<path d="M31.37 29.8696H31.21V38.2696H31.37V29.8696Z" fill="#CACACA"/>
<path d="M31.53 29.8696H31.37V38.2696H31.53V29.8696Z" fill="#C9C9C9"/>
<path d="M31.7 29.8696H31.54V38.2696H31.7V29.8696Z" fill="#C8C8C8"/>
<path d="M31.86 29.8696H31.7V38.2696H31.86V29.8696Z" fill="#C6C6C6"/>
<path d="M32.03 29.8696H31.87V38.2696H32.03V29.8696Z" fill="#C5C5C5"/>
<path d="M32.19 29.8696H32.03V38.2696H32.19V29.8696Z" fill="#C4C4C4"/>
<path d="M32.36 29.8696H32.2V38.2696H32.36V29.8696Z" fill="#C3C3C3"/>
<path d="M32.52 29.8696H32.36V38.2696H32.52V29.8696Z" fill="#C2C2C2"/>
<path d="M32.69 29.8696H32.53V38.2696H32.69V29.8696Z" fill="#C1C1C1"/>
<path d="M32.85 29.8696H32.69V38.2696H32.85V29.8696Z" fill="#C0C0C0"/>
<path d="M33.02 29.8696H32.86V38.2696H33.02V29.8696Z" fill="#BFBFBF"/>
<path d="M33.18 29.8696H33.02V38.2696H33.18V29.8696Z" fill="#BFBFBF"/>
<path d="M33.35 29.8696H33.19V38.2696H33.35V29.8696Z" fill="#BEBEBE"/>
<path d="M33.51 29.8696H33.35V38.2696H33.51V29.8696Z" fill="#BDBDBD"/>
<path d="M33.67 29.8696H33.51V38.2696H33.67V29.8696Z" fill="#BCBCBC"/>
<path d="M33.84 29.8696H33.68V38.2696H33.84V29.8696Z" fill="#BBBBBB"/>
<path d="M34 29.8696H33.84V38.2696H34V29.8696Z" fill="#BABABA"/>
<path d="M34.17 29.8696H34.01V38.2696H34.17V29.8696Z" fill="#BABABA"/>
<path d="M34.33 29.8696H34.17V38.2696H34.33V29.8696Z" fill="#B9B9B9"/>
<path d="M34.5 29.8696H34.34V38.2696H34.5V29.8696Z" fill="#B8B8B8"/>
<path d="M34.66 29.8696H34.5V38.2696H34.66V29.8696Z" fill="#B8B8B8"/>
<path d="M34.83 29.8696H34.67V38.2696H34.83V29.8696Z" fill="#B7B7B7"/>
<path d="M34.99 29.8696H34.83V38.2696H34.99V29.8696Z" fill="#B6B6B6"/>
<path d="M35.16 29.8696H35V38.2696H35.16V29.8696Z" fill="#B6B6B6"/>
<path d="M35.32 29.8696H35.16V38.2696H35.32V29.8696Z" fill="#B5B5B5"/>
<path d="M35.49 29.8696H35.33V38.2696H35.49V29.8696Z" fill="#B5B5B5"/>
<path d="M35.65 29.8696H35.49V38.2696H35.65V29.8696Z" fill="#B4B4B4"/>
<path d="M35.82 29.8696H35.66V38.2696H35.82V29.8696Z" fill="#B4B4B4"/>
<path d="M35.98 29.8696H35.82V38.2696H35.98V29.8696Z" fill="#B3B3B3"/>
<path d="M36.14 29.8696H35.98V38.2696H36.14V29.8696Z" fill="#B3B3B3"/>
<path d="M36.31 29.8696H36.15V38.2696H36.31V29.8696Z" fill="#B2B2B2"/>
<path d="M36.47 29.8696H36.31V38.2696H36.47V29.8696Z" fill="#B2B2B2"/>
<path d="M36.64 29.8696H36.48V38.2696H36.64V29.8696Z" fill="#B1B1B1"/>
<path d="M36.8 29.8696H36.64V38.2696H36.8V29.8696Z" fill="#B1B1B1"/>
<path d="M36.97 29.8696H36.81V38.2696H36.97V29.8696Z" fill="#B1B1B1"/>
<path d="M37.13 29.8696H36.97V38.2696H37.13V29.8696Z" fill="#B0B0B0"/>
<path d="M37.3 29.8696H37.14V38.2696H37.3V29.8696Z" fill="#B0B0B0"/>
<path d="M37.46 29.8696H37.3V38.2696H37.46V29.8696Z" fill="#B0B0B0"/>
<path d="M37.63 29.8696H37.47V38.2696H37.63V29.8696Z" fill="#B0B0B0"/>
<path d="M37.79 29.8696H37.63V38.2696H37.79V29.8696Z" fill="#B0B0B0"/>
<path d="M37.96 29.8696H37.8V38.2696H37.96V29.8696Z" fill="#AFAFAF"/>
<path d="M38.12 29.8696H37.96V38.2696H38.12V29.8696Z" fill="#AFAFAF"/>
<path d="M38.29 29.8696H38.13V38.2696H38.29V29.8696Z" fill="#AFAFAF"/>
<path d="M38.45 29.8696H38.29V38.2696H38.45V29.8696Z" fill="#AFAFAF"/>
<path d="M38.62 29.8696H38.46V38.2696H38.62V29.8696Z" fill="#AFAFAF"/>
<path d="M38.78 29.8696H38.62V38.2696H38.78V29.8696Z" fill="#AFAFAF"/>
<path d="M40.24 29.8696H38.78V38.2696H40.24V29.8696Z" fill="#AFAFAF"/>
</g>
</svg>
