<svg width="48" height="48" viewBox="0 0 48 48" fill="none" xmlns="http://www.w3.org/2000/svg">
<path d="M22.07 30.8501H3.75V36.0801H22.07V30.8501Z" fill="#8DE2E0"/>
<path d="M44.2497 30.8501H25.9297V36.0801H44.2497V30.8501Z" fill="#8DE2E0"/>
<path d="M22.0598 44.6898H3.75977C3.20977 44.6898 2.75977 44.2398 2.75977 43.6898V24.9498C2.75977 24.3998 3.20977 23.9498 3.75977 23.9498C5.18977 23.9498 6.39977 23.4198 7.44977 22.3298C12.0598 17.5698 11.6798 4.4698 11.6798 4.3298C11.6798 4.0598 11.7698 3.7998 11.9598 3.5998C12.1498 3.3998 12.4098 3.2998 12.6798 3.2998H22.0598C22.6098 3.2998 23.0598 3.7498 23.0598 4.2998V43.6898C23.0598 44.2398 22.6098 44.6898 22.0598 44.6898ZM4.75977 42.6898H21.0598V5.3098H13.6998C13.6998 8.6598 13.3198 19.1498 8.89977 23.7298C7.71977 24.9498 6.32977 25.6798 4.76977 25.8898V42.6998L4.75977 42.6898Z" fill="#323232"/>
<path d="M44.2395 44.6901H25.9395C25.3895 44.6901 24.9395 44.2401 24.9395 43.6901V4.31006C24.9395 3.76006 25.3895 3.31006 25.9395 3.31006H35.3195C35.5895 3.31006 35.8495 3.42006 36.0395 3.61006C36.2295 3.80006 36.3295 4.07006 36.3195 4.34006C36.3195 4.47006 35.9395 17.5701 40.5495 22.3401C41.6095 23.4301 42.8095 23.9601 44.2395 23.9601C44.7895 23.9601 45.2395 24.4101 45.2395 24.9601V43.7001C45.2395 44.2501 44.7895 44.7001 44.2395 44.7001V44.6901ZM26.9395 42.6901H43.2395V25.8801C41.6795 25.6701 40.2995 24.9401 39.1095 23.7201C34.6795 19.1401 34.3095 8.66006 34.3095 5.30006H26.9495V42.6901H26.9395Z" fill="#323232"/>
</svg>
