<svg width="147" height="30" viewBox="0 0 147 30" fill="none" xmlns="http://www.w3.org/2000/svg">
<path d="M70.7658 11.303H69.595V6.19741H65.4929V11.303H64.3309V0.16748H65.4929V5.03544H69.595V0.16748H70.7658V11.303Z" fill="#323232"/>
<path d="M80.9067 7.91373C80.9067 10.0968 79.5686 11.4701 77.6144 11.4701C75.6602 11.4701 74.3221 10.0968 74.3221 7.91373V3.55634C74.3221 1.37324 75.6074 0 77.6144 0C79.6214 0 80.9067 1.37324 80.9067 3.55634V7.91373ZM75.4841 7.94894C75.4841 9.30458 76.2588 10.3081 77.6144 10.3081C78.97 10.3081 79.7359 9.30458 79.7359 7.94894V3.52113C79.7359 2.16549 78.97 1.16197 77.6144 1.16197C76.2588 1.16197 75.4841 2.16549 75.4841 3.52113V7.94894Z" fill="#323232"/>
<path d="M83.6708 0.16748H90.1056V1.33825H87.4648V11.303H86.3028V1.33825H83.662V0.16748H83.6708Z" fill="#323232"/>
<path d="M94.419 6.18861V10.1411H99.1021V11.3118H93.2659V0.16748H98.9877V1.33825H94.4278V5.03544H98.6092V6.18861H94.4278H94.419Z" fill="#323232"/>
<path d="M103.627 10.1411H108.002V11.3118H102.465V0.16748H103.627V10.1323V10.1411Z" fill="#323232"/>
<path d="M115.88 3.33627V3.06338C115.88 1.94542 115.167 1.08275 113.917 1.08275C112.667 1.08275 111.981 1.77817 111.981 2.76408C111.981 3.54753 112.465 4.10211 113.125 4.39261L114.771 5.14084C115.915 5.65141 117.192 6.32922 117.192 8.23944C117.192 10.1496 115.863 11.4789 113.926 11.4789C111.989 11.4789 110.651 10.2729 110.651 8.34507V8.07218H111.796V8.40669C111.796 9.54225 112.57 10.3697 113.917 10.3697C115.264 10.3697 116.047 9.52465 116.047 8.38908C116.047 7.1831 115.273 6.70775 114.34 6.30282L112.922 5.66021C111.796 5.16725 110.863 4.35739 110.863 2.86092C110.863 1.17958 112.077 0 113.908 0C115.739 0 117.007 1.20599 117.007 3.1338V3.33627H115.88Z" fill="#323232"/>
<path d="M71.3468 24.4894H70.3081V26.5756C70.3081 28.6267 69.0405 29.9647 67.1391 29.9647C65.2376 29.9647 63.8468 28.7235 63.8468 26.7781C63.8468 25.4225 64.4542 24.4189 65.581 23.9612C64.6831 23.4858 64.2253 22.6056 64.2253 21.4348C64.2253 19.6742 65.3873 18.4858 67.1038 18.4858C68.8204 18.4858 69.9383 19.6918 69.9383 21.5228V21.7429H68.8292V21.47C68.8292 20.4049 68.2306 19.6038 67.1215 19.6038C66.0123 19.6038 65.3873 20.3872 65.3873 21.5052C65.3873 22.6232 65.9067 23.4682 67.3679 23.4682H71.3468V24.4894ZM69.2077 26.602V24.4806H67.3151C65.669 24.4806 65.0264 25.5809 65.0264 26.6461C65.0264 27.9841 65.7746 28.8468 67.1567 28.8468C68.4683 28.8468 69.1989 27.896 69.1989 26.5932L69.2077 26.602Z" fill="#323232"/>
<path d="M85.6338 29.7889H84.4631V24.6833H80.3609V29.7889H79.199V18.6533H80.3609V23.5213H84.4631V18.6533H85.6338V29.7889Z" fill="#323232"/>
<path d="M95.7835 26.3996C95.7835 28.5827 94.4455 29.9559 92.4912 29.9559C90.537 29.9559 89.199 28.5827 89.199 26.3996V22.0422C89.199 19.8591 90.4842 18.4858 92.4912 18.4858C94.4983 18.4858 95.7835 19.8591 95.7835 22.0422V26.3996ZM90.3521 26.4348C90.3521 27.7904 91.1268 28.7939 92.4824 28.7939C93.8381 28.7939 94.6039 27.7904 94.6039 26.4348V22.007C94.6039 20.6513 93.8381 19.6478 92.4824 19.6478C91.1268 19.6478 90.3521 20.6513 90.3521 22.007V26.4348Z" fill="#323232"/>
<path d="M100.502 28.6269H104.877V29.7977H99.3397V18.6621H100.502V28.6269Z" fill="#323232"/>
<path d="M109.155 29.7889H107.993V18.6533H109.155V29.7889Z" fill="#323232"/>
<path d="M119.437 22.2977V26.1445C119.437 28.3804 118.107 29.7889 116.065 29.7889H112.896V18.6533H116.065C118.107 18.6533 119.437 20.0618 119.437 22.2977ZM114.058 19.8241V28.6181H116.074C117.491 28.6181 118.283 27.597 118.283 26.1797V22.2625C118.283 20.8364 117.491 19.8241 116.074 19.8241H114.058Z" fill="#323232"/>
<path d="M122.104 29.7889L125.308 18.6533H126.479L129.71 29.7889H128.504L127.773 27.2273H123.961L123.248 29.7889H122.104ZM124.269 26.1181H127.482L125.854 20.4051L124.269 26.1181Z" fill="#323232"/>
<path d="M132.174 18.6533L134.428 24.0759L136.699 18.6533H137.87L134.974 25.3347V29.7889H133.812V25.3523L130.916 18.6533H132.166H132.174Z" fill="#323232"/>
<path d="M145.475 21.8221V21.5492C145.475 20.4313 144.762 19.5686 143.512 19.5686C142.262 19.5686 141.576 20.264 141.576 21.2499C141.576 22.0334 142.06 22.588 142.72 22.8784L144.366 23.6267C145.511 24.1372 146.787 24.8151 146.787 26.7253C146.787 28.6355 145.458 29.9647 143.521 29.9647C141.584 29.9647 140.246 28.7587 140.246 26.8309V26.558H141.391V26.8925C141.391 28.0281 142.165 28.8556 143.512 28.8556C144.859 28.8556 145.643 28.0105 145.643 26.8749C145.643 25.6689 144.868 25.1936 143.935 24.7887L142.518 24.1461C141.391 23.6531 140.458 22.8432 140.458 21.3468C140.458 19.6654 141.681 18.4858 143.503 18.4858C145.326 18.4858 146.602 19.6918 146.602 21.6196V21.8221H145.475Z" fill="#323232"/>
<path d="M53.0721 0.0615234V29.9999" stroke="#323232" stroke-width="0.5" stroke-miterlimit="10"/>
<path d="M11.3028 29.8593H41.7165L17.3416 5.37869C14.0933 2.13926 9.6919 0.202637 5.09683 0.202637H0L0.378521 1.19735L2.06866 5.62517L11.3028 29.8505V29.8593Z" fill="url(#paint0_linear_15605_2343)"/>
<path d="M2.06868 5.63389C5.39615 11.3205 14.1373 11.9191 15.088 20.7571C15.1233 21.118 15.4049 21.4085 15.7659 21.4702C20.8011 22.2536 25.7042 24.3311 29.9648 27.7466C29.9648 27.7466 30.0264 27.7818 30.0616 27.7818C30.0968 27.7818 30.1409 27.7642 30.1673 27.7378C30.2289 27.6761 30.2289 27.5881 30.1673 27.5265C27.2183 24.4279 23.6092 21.9455 19.5599 20.317L18.3275 19.824C17.6937 19.5687 17.2535 18.9437 17.2711 18.2219C17.3416 15.5811 23.5916 16.118 24.2166 14.8504L24.3222 14.6304C23.037 13.53 21.5053 12.7025 19.824 12.2448C19.8064 12.3064 19.7711 12.6145 20.1145 13.1779C20.4842 13.7853 19.7095 14.7448 18.574 13.7061L18.4771 13.618C10.0528 5.87156 3.72361 9.88565 0.37854 1.19727L2.06868 5.62508V5.63389Z" fill="white"/>
<path d="M22.3679 14.4806C22.3679 14.4806 20.9859 14.551 20.132 13.1689C20.3873 13.5827 20.1056 14.1549 19.5422 14.1637V16.2675C20.4489 16.0035 21.4877 15.845 22.3591 15.6601V14.4894L22.3679 14.4806Z" fill="url(#paint1_linear_15605_2343)"/>
<path d="M16.8134 21.655C21.4788 22.5528 26.0035 24.5687 29.9648 27.7465C21.1267 20.1937 17.095 21.5581 16.8134 21.655Z" fill="url(#paint2_linear_15605_2343)"/>
<path d="M3.84685 6.03001C2.47361 5.0529 1.31164 3.61804 0.37854 1.19727L2.06868 5.62508C5.39615 11.3117 14.1373 11.9103 15.088 20.7483C14.1285 9.46311 9.17255 11.1533 3.84685 6.02121V6.03001Z" fill="url(#paint3_linear_15605_2343)"/>
<defs>
<linearGradient id="paint0_linear_15605_2343" x1="26.4349" y1="29.7449" x2="6.14437" y2="0.12341" gradientUnits="userSpaceOnUse">
<stop stop-color="#BE0000"/>
<stop offset="0.39" stop-color="#DD0000"/>
<stop offset="0.77" stop-color="#F60000"/>
<stop offset="1" stop-color="#FF0000"/>
</linearGradient>
<linearGradient id="paint1_linear_15605_2343" x1="20.8274" y1="16.3732" x2="21.1003" y2="13.2482" gradientUnits="userSpaceOnUse">
<stop offset="0.65" stop-color="white" stop-opacity="0"/>
<stop offset="0.69" stop-color="#ECECEC" stop-opacity="0.0529"/>
<stop offset="0.76" stop-color="#D6D6D6" stop-opacity="0.25"/>
<stop offset="0.81" stop-color="#C5C5C5" stop-opacity="0.5184"/>
<stop offset="0.87" stop-color="#B9B9B9" stop-opacity="0.7569"/>
<stop offset="0.91" stop-color="#B1B1B1" stop-opacity="0.9409"/>
<stop offset="0.95" stop-color="#AFAFAF"/>
</linearGradient>
<linearGradient id="paint2_linear_15605_2343" x1="16.8134" y1="24.6215" x2="29.9648" y2="24.6215" gradientUnits="userSpaceOnUse">
<stop stop-color="white" stop-opacity="0"/>
<stop offset="0.07" stop-color="#F3F3F3" stop-opacity="0.0225"/>
<stop offset="0.21" stop-color="#DEDEDE" stop-opacity="0.1681"/>
<stop offset="0.35" stop-color="#CDCDCD" stop-opacity="0.3844"/>
<stop offset="0.49" stop-color="#C0C0C0" stop-opacity="0.6241"/>
<stop offset="0.63" stop-color="#B6B6B6" stop-opacity="0.8281"/>
<stop offset="0.77" stop-color="#B0B0B0" stop-opacity="0.9604"/>
<stop offset="0.9" stop-color="#AFAFAF"/>
</linearGradient>
<linearGradient id="paint3_linear_15605_2343" x1="0.37854" y1="10.9772" x2="15.088" y2="10.9772" gradientUnits="userSpaceOnUse">
<stop offset="0.25" stop-color="white" stop-opacity="0"/>
<stop offset="0.36" stop-color="#F6F6F6" stop-opacity="0.0121"/>
<stop offset="0.58" stop-color="#E0E0E0" stop-opacity="0.1444"/>
<stop offset="0.88" stop-color="#BDBDBD" stop-opacity="0.6724"/>
<stop offset="1" stop-color="#AFAFAF"/>
</linearGradient>
</defs>
</svg>
