<svg width="146" height="30" viewBox="0 0 146 30" fill="none" xmlns="http://www.w3.org/2000/svg">
<path d="M71.1538 7.97145C71.1538 9.46047 70.5246 10.5861 69.523 11.1445L71.0918 13.6528H69.6648L68.3619 11.499C68.1935 11.5345 68.0251 11.5522 67.839 11.5522C65.8714 11.5522 64.5242 10.1695 64.5242 7.97145V3.58416C64.5242 1.38608 65.8182 0.00341797 67.839 0.00341797C69.8598 0.00341797 71.1538 1.38608 71.1538 3.58416V7.97145ZM65.6852 8.0069C65.6852 9.37183 66.4652 10.3822 67.8301 10.3822C69.1951 10.3822 69.9662 9.37183 69.9662 8.0069V3.5487C69.9662 2.18377 69.1951 1.17336 67.8301 1.17336C66.4652 1.17336 65.6852 2.18377 65.6852 3.5487V8.0069Z" fill="#323232"/>
<path d="M73.9191 11.3838L77.1365 0.171875H78.3153L81.5681 11.3838H80.3538L79.6182 8.80465H75.7804L75.0625 11.3838H73.9103H73.9191ZM76.0995 7.68788H79.3346L77.6949 1.93565L76.0995 7.68788Z" fill="#323232"/>
<path d="M91.1847 11.3838H90.2186L85.8402 2.71562V11.3838H84.75V0.171875H85.7959L90.0945 8.70715V0.171875H91.1847V11.3838Z" fill="#323232"/>
<path d="M94.2957 0.171875H100.775V1.35068H98.1158V11.3838H96.9458V1.35068H94.2869V0.171875H94.2957Z" fill="#323232"/>
<path d="M102.237 11.3838L105.454 0.171875H106.633L109.886 11.3838H108.672L107.936 8.80465H104.098L103.38 11.3838H102.228H102.237ZM104.409 7.68788H107.644L106.004 1.93565L104.409 7.68788Z" fill="#323232"/>
<path d="M117.633 3.36258V3.08782C117.633 1.96219 116.915 1.09359 115.656 1.09359C114.397 1.09359 113.706 1.79379 113.706 2.78647C113.706 3.57529 114.194 4.13368 114.858 4.42616L116.516 5.17953C117.668 5.6936 118.953 6.37607 118.953 8.29939C118.953 10.2227 117.615 11.561 115.665 11.561C113.715 11.561 112.368 10.3468 112.368 8.40574V8.13098H113.52V8.46779C113.52 9.61114 114.3 10.4443 115.656 10.4443C117.012 10.4443 117.801 9.59341 117.801 8.45006C117.801 7.2358 117.021 6.75719 116.081 6.34948L114.655 5.70246C113.52 5.20612 112.581 4.39071 112.581 2.88396C112.581 1.19109 113.812 0.00341797 115.647 0.00341797C117.482 0.00341797 118.767 1.21768 118.767 3.15872V3.36258H117.633Z" fill="#323232"/>
<path d="M65.96 29.9966H64.79V18.7847H65.96V29.9966Z" fill="#323232"/>
<path d="M76.4807 29.9966H75.5146L71.1362 21.3284V29.9966H70.046V18.7847H71.0919L75.3905 27.3199V18.7847H76.4807V29.9966Z" fill="#323232"/>
<path d="M84.9717 21.9754V21.7006C84.9717 20.575 84.2537 19.7064 82.9952 19.7064C81.7366 19.7064 81.0453 20.4066 81.0453 21.3993C81.0453 22.1881 81.5327 22.7465 82.1975 23.039L83.8549 23.7923C85.0071 24.3064 86.2923 24.9889 86.2923 26.9122C86.2923 28.8355 84.9539 30.1738 83.004 30.1738C81.0541 30.1738 79.7069 28.9596 79.7069 27.0185V26.7438H80.8591V27.0806C80.8591 28.2239 81.6391 29.0571 82.9952 29.0571C84.3512 29.0571 85.1489 28.2062 85.1489 27.0629C85.1489 25.8486 84.369 25.37 83.4295 24.9623L82.0025 24.3153C80.868 23.8189 79.9285 23.0035 79.9285 21.4968C79.9285 19.8039 81.1516 18.6162 82.9952 18.6162C84.8387 18.6162 86.115 19.8305 86.115 21.7715V21.9754H84.9805H84.9717Z" fill="#323232"/>
<path d="M96.2722 18.7847V26.5843C96.2722 28.7824 94.9516 30.165 93.0194 30.165C91.0872 30.165 89.7843 28.7824 89.7843 26.5843V18.7847H90.9542V26.6197C90.9542 27.9847 91.7076 28.9951 93.0282 28.9951C94.3489 28.9951 95.12 27.9847 95.12 26.6197V18.7847H96.2899H96.2722Z" fill="#323232"/>
<path d="M105.49 29.9966L103.744 25.5562C103.558 25.5739 103.469 25.5739 103.327 25.5739H101.457V29.9966H100.287V18.7847H103.389C105.357 18.7847 106.784 20.0964 106.784 22.1261C106.784 23.624 106.048 24.7496 104.914 25.2459L106.775 29.9878H105.499L105.49 29.9966ZM101.448 19.928V24.4483H103.292C104.701 24.4483 105.579 23.5265 105.579 22.1438C105.579 20.7612 104.701 19.928 103.292 19.928H101.448Z" fill="#323232"/>
<path d="M109.478 29.9966L112.705 18.7847H113.883L117.136 29.9966H115.922L115.186 27.4174H111.349L110.631 29.9966H109.478ZM111.659 26.3007H114.894L113.254 20.5484L111.659 26.3007Z" fill="#323232"/>
<path d="M126.443 29.9966H125.477L121.098 21.3284V29.9966H120.008V18.7847H121.054L125.352 27.3199V18.7847H126.443V29.9966Z" fill="#323232"/>
<path d="M136.813 26.4158V26.7704C136.813 28.8709 135.492 30.165 133.56 30.165C131.628 30.165 130.263 28.7823 130.263 26.5842V22.1969C130.263 19.9989 131.557 18.6162 133.56 18.6162C135.563 18.6162 136.813 19.9102 136.813 22.0108V22.2679H135.696V21.9754C135.696 20.7168 134.925 19.795 133.56 19.795C132.195 19.795 131.424 20.8054 131.424 22.1704V26.6286C131.424 27.9935 132.204 29.0039 133.56 29.0039C134.916 29.0039 135.696 28.0821 135.696 26.8235V26.4336H136.813V26.4158Z" fill="#323232"/>
<path d="M141.616 24.847V28.8266H146.332V30.0054H140.455V18.7935H146.208V19.9723H141.616V23.6948H145.818V24.8559H141.616V24.847Z" fill="#323232"/>
<path d="M53.4186 0.0390625V30.1829" stroke="#323232" stroke-width="0.666625" stroke-miterlimit="10"/>
<path d="M11.3804 30.0233H42.0028L17.4605 5.37466C14.19 2.10413 9.7584 0.163086 5.1318 0.163086H0L0.381118 1.16463L2.08286 5.62283L11.3804 30.0144V30.0233Z" fill="url(#paint0_linear_15605_2415)"/>
<path d="M2.08284 5.63161C5.43314 11.3572 14.2343 11.9599 15.1915 20.8586C15.227 21.222 15.5106 21.5145 15.874 21.5765C20.9438 22.3654 25.8806 24.4571 30.1704 27.896C30.1704 27.896 30.2324 27.9315 30.2679 27.9315C30.3033 27.9315 30.3476 27.9137 30.3742 27.8871C30.4363 27.8251 30.4363 27.7365 30.3742 27.6744C27.405 24.5546 23.7711 22.0551 19.694 20.4155L18.4532 19.9191C17.815 19.6621 17.3719 19.0328 17.3896 18.306C17.4605 15.647 23.7534 16.1877 24.3827 14.9114L24.489 14.6898C23.195 13.5819 21.6528 12.7488 19.9599 12.2879C19.9422 12.3499 19.9068 12.6601 20.2524 13.2274C20.6247 13.8389 19.8447 14.805 18.7014 13.7592L18.6039 13.6705C10.1218 5.87092 3.74912 9.91254 0.381104 1.16455L2.08284 5.62275V5.63161Z" fill="white"/>
<path d="M22.5215 14.5389C22.5215 14.5389 21.13 14.6098 20.2702 13.2183C20.5273 13.6348 20.2436 14.2109 19.6764 14.2198V16.3381C20.5893 16.0722 21.6352 15.9127 22.5126 15.7266V14.5477L22.5215 14.5389Z" fill="url(#paint1_linear_15605_2415)"/>
<path d="M16.9287 21.7625C21.6262 22.6665 26.1819 24.6962 30.1704 27.8958C21.2717 20.2912 17.2123 21.665 16.9287 21.7625Z" fill="url(#paint2_linear_15605_2415)"/>
<path d="M3.87321 6.03046C2.49055 5.04664 1.3206 3.60193 0.381104 1.16455L2.08284 5.62275C5.43314 11.3484 14.2343 11.9511 15.1915 20.8497C14.2254 9.48711 9.23545 11.1888 3.87321 6.02159V6.03046Z" fill="url(#paint3_linear_15605_2415)"/>
<defs>
<linearGradient id="paint0_linear_15605_2415" x1="26.6162" y1="29.908" x2="6.18653" y2="0.0833162" gradientUnits="userSpaceOnUse">
<stop stop-color="#BE0000"/>
<stop offset="0.39" stop-color="#DD0000"/>
<stop offset="0.77" stop-color="#F60000"/>
<stop offset="1" stop-color="#FF0000"/>
</linearGradient>
<linearGradient id="paint1_linear_15605_2415" x1="20.9704" y1="16.4445" x2="21.2452" y2="13.298" gradientUnits="userSpaceOnUse">
<stop offset="0.65" stop-color="white" stop-opacity="0"/>
<stop offset="0.69" stop-color="#ECECEC" stop-opacity="0.0529"/>
<stop offset="0.76" stop-color="#D6D6D6" stop-opacity="0.25"/>
<stop offset="0.81" stop-color="#C5C5C5" stop-opacity="0.5184"/>
<stop offset="0.87" stop-color="#B9B9B9" stop-opacity="0.7569"/>
<stop offset="0.91" stop-color="#B1B1B1" stop-opacity="0.9409"/>
<stop offset="0.95" stop-color="#AFAFAF"/>
</linearGradient>
<linearGradient id="paint2_linear_15605_2415" x1="16.9287" y1="24.7494" x2="30.1704" y2="24.7494" gradientUnits="userSpaceOnUse">
<stop stop-color="white" stop-opacity="0"/>
<stop offset="0.07" stop-color="#F3F3F3" stop-opacity="0.0225"/>
<stop offset="0.21" stop-color="#DEDEDE" stop-opacity="0.1681"/>
<stop offset="0.35" stop-color="#CDCDCD" stop-opacity="0.3844"/>
<stop offset="0.49" stop-color="#C0C0C0" stop-opacity="0.6241"/>
<stop offset="0.63" stop-color="#B6B6B6" stop-opacity="0.8281"/>
<stop offset="0.77" stop-color="#B0B0B0" stop-opacity="0.9604"/>
<stop offset="0.9" stop-color="#AFAFAF"/>
</linearGradient>
<linearGradient id="paint3_linear_15605_2415" x1="0.381104" y1="11.0116" x2="15.1915" y2="11.0116" gradientUnits="userSpaceOnUse">
<stop offset="0.25" stop-color="white" stop-opacity="0"/>
<stop offset="0.36" stop-color="#F6F6F6" stop-opacity="0.0121"/>
<stop offset="0.58" stop-color="#E0E0E0" stop-opacity="0.1444"/>
<stop offset="0.88" stop-color="#BDBDBD" stop-opacity="0.6724"/>
<stop offset="1" stop-color="#AFAFAF"/>
</linearGradient>
</defs>
</svg>
