<svg width="24" height="24" viewBox="0 0 24 24" fill="none" xmlns="http://www.w3.org/2000/svg">
<g clip-path="url(#clip0_16335_10436)">
<path d="M20.4851 20.4853C25.1714 15.799 25.1714 8.20101 20.4851 3.51472C15.7988 -1.17157 8.20081 -1.17157 3.51452 3.51472C-1.17177 8.20101 -1.17177 15.799 3.51452 20.4853C8.20081 25.1716 15.7988 25.1716 20.4851 20.4853Z" fill="white"/>
<mask id="mask0_16335_10436" style="mask-type:luminance" maskUnits="userSpaceOnUse" x="-1" y="0" width="25" height="24">
<path d="M20.4851 20.4853C25.1714 15.799 25.1714 8.20101 20.4851 3.51472C15.7988 -1.17157 8.20081 -1.17157 3.51452 3.51472C-1.17177 8.20101 -1.17177 15.799 3.51452 20.4853C8.20081 25.1716 15.7988 25.1716 20.4851 20.4853Z" fill="white"/>
</mask>
<g mask="url(#mask0_16335_10436)">
<path d="M29.9993 0H-6.00067V24H29.9993V0Z" fill="#FFFF00"/>
<path d="M5.99933 0H-6.00067V24H5.99933V0Z" fill="#007C29"/>
<path d="M18.0007 0H6.00073V24H18.0007V0Z" fill="#FF0000"/>
<path d="M30.0007 0H18.0007V24H30.0007V0Z" fill="#FED700"/>
<path fill-rule="evenodd" clip-rule="evenodd" d="M12.0001 8.99707L12.7435 11.2959L15.1597 11.2917L13.2033 12.7087L13.9537 15.0048L12.0001 13.5807L10.0478 15.0048L10.7968 12.7087L8.84039 11.2917L11.2566 11.2959L12.0001 8.99707Z" fill="#FED700"/>
</g>
</g>
<rect x="0.25" y="0.25" width="23.5" height="23.5" rx="11.75" stroke="#E5E3E1" stroke-width="0.5"/>
<defs>
<clipPath id="clip0_16335_10436">
<rect width="24" height="24" rx="12" fill="white"/>
</clipPath>
</defs>
</svg>
