<svg width="48" height="48" viewBox="0 0 48 48" fill="none" xmlns="http://www.w3.org/2000/svg">
<path d="M36.9503 24.25H28.4403C28.4303 23.74 28.3503 23.26 28.2303 22.8H30.9103C31.4603 22.8 31.9103 22.35 31.9103 21.8C31.9103 21.25 31.4603 20.8 30.9103 20.8H27.2703C26.6703 20.03 25.8903 19.47 25.0103 19.22V17.48C25.0103 16.93 24.5603 16.48 24.0103 16.48C23.4603 16.48 23.0103 16.93 23.0103 17.48V19.22C22.1203 19.46 21.3403 20.03 20.7503 20.8H17.1103C16.5603 20.8 16.1103 21.25 16.1103 21.8C16.1103 22.35 16.5603 22.8 17.1103 22.8H19.7903C19.6703 23.26 19.5903 23.75 19.5803 24.25H11.0703C10.5203 24.25 10.0703 24.7 10.0703 25.25C10.0703 25.8 10.5203 26.25 11.0703 26.25H12.7103C12.6603 26.81 12.7603 27.37 13.0503 27.87C13.4203 28.5 14.0103 28.95 14.7103 29.13C14.9403 29.19 15.1703 29.22 15.4003 29.22C15.8803 29.22 16.3503 29.09 16.7803 28.84C17.7203 28.29 18.1903 27.27 18.1103 26.25H19.8603C20.5003 28.26 22.1103 29.7 24.0203 29.7C25.9303 29.7 27.5403 28.26 28.1803 26.25H29.9803C29.9303 26.81 30.0303 27.37 30.3203 27.87C30.8303 28.73 31.7403 29.22 32.6803 29.22C33.1503 29.22 33.6203 29.1 34.0603 28.85C35.0003 28.3 35.4803 27.28 35.3903 26.26H36.9803C37.5303 26.26 37.9803 25.81 37.9803 25.26C37.9803 24.71 37.5303 24.26 36.9803 24.26L36.9503 24.25ZM16.0903 26.67C16.0403 26.86 15.9203 27.02 15.7503 27.11C15.5803 27.21 15.3903 27.23 15.2003 27.19C15.0103 27.14 14.8503 27.02 14.7603 26.85C14.6503 26.66 14.6503 26.44 14.7203 26.24H16.0503C16.1003 26.38 16.1203 26.52 16.0803 26.66L16.0903 26.67ZM24.0003 27.7C22.6503 27.7 21.5503 26.21 21.5503 24.38C21.5503 22.55 22.6503 21.06 24.0003 21.06C25.3503 21.06 26.4503 22.55 26.4503 24.38C26.4503 26.21 25.3503 27.7 24.0003 27.7ZM33.0203 27.11C32.6803 27.31 32.2303 27.2 32.0303 26.85C31.9203 26.66 31.9203 26.44 31.9903 26.24H33.3203C33.4303 26.56 33.3203 26.93 33.0203 27.11Z" fill="#323232"/>
<path d="M24.8609 22.52H23.1309C22.5809 22.52 22.1309 22.97 22.1309 23.52C22.1309 24.07 22.5809 24.52 23.1309 24.52H24.8609C25.4109 24.52 25.8609 24.07 25.8609 23.52C25.8609 22.97 25.4109 22.52 24.8609 22.52Z" fill="#323232"/>
<path d="M24.0009 1.81006L6.96094 8.81006V13.9301L24.0009 6.94006L41.0409 13.9301V8.81006L24.0009 1.81006Z" fill="#8DE2E0"/>
<path d="M24.0009 47.1899C23.9409 47.1899 23.8909 47.1899 23.8309 47.1799C23.6509 47.1499 5.96094 43.8599 5.96094 22.7199V8.80994C5.96094 8.39994 6.21094 8.03994 6.58094 7.87994L23.6209 0.889941C23.8609 0.789941 24.1409 0.789941 24.3809 0.889941L41.4209 7.88994C41.8009 8.03994 42.0409 8.40994 42.0409 8.81994V22.7299C42.0409 43.8699 24.3509 47.1599 24.1709 47.1899C24.1109 47.1899 24.0609 47.1999 24.0009 47.1999V47.1899ZM7.96094 9.47994V22.7199C7.96094 41.2899 22.1709 44.7999 24.0009 45.1699C25.8309 44.7999 40.0409 41.2799 40.0409 22.7199V9.47994L24.0009 2.88994L7.96094 9.47994Z" fill="#323232"/>
</svg>
