<svg width="48" height="48" viewBox="0 0 48 48" fill="none" xmlns="http://www.w3.org/2000/svg">
<path fill-rule="evenodd" clip-rule="evenodd" d="M16.5202 19.2207H20.9502C21.5602 19.2207 22.0602 19.7207 22.0602 20.3307V26.9807C22.0602 27.5907 21.5602 28.0907 20.9502 28.0907H16.5202C15.9102 28.0907 15.4102 27.5907 15.4102 26.9807V20.3307C15.4102 19.7207 15.9102 19.2207 16.5202 19.2207Z" fill="#DF0000"/>
<path d="M18.7391 4.00992L24.3991 8.53992C24.3991 8.53992 24.4891 8.60992 24.5291 8.64992L28.5491 11.8599V17.7699C28.5491 18.3199 28.9991 18.7699 29.5491 18.7699C30.0991 18.7699 30.5491 18.3199 30.5491 17.7699V13.4599L32.8491 15.2999C33.0291 15.4499 33.2491 15.5199 33.4691 15.5199C33.7591 15.5199 34.0491 15.3899 34.2491 15.1399C34.5991 14.7099 34.5291 14.0799 34.0891 13.7299L30.5391 10.8899V4.19992C30.5391 3.64992 30.0891 3.19992 29.5391 3.19992H25.1191C24.5691 3.19992 24.1191 3.64992 24.1191 4.19992V5.75992L19.3591 1.94992C18.9891 1.65992 18.4791 1.65992 18.1091 1.94992L3.37908 13.7399C2.94908 14.0799 2.87908 14.7099 3.21908 15.1499C3.55908 15.5799 4.18908 15.6499 4.62908 15.3099L7.15908 13.2899V30.7799C7.15908 31.3299 7.60908 31.7799 8.15908 31.7799H21.1291C21.6791 31.7799 22.1291 31.3299 22.1291 30.7799C22.1291 30.2299 21.6791 29.7799 21.1291 29.7799H9.15908V11.6799L18.7391 4.00992ZM26.1291 5.19992H28.5491V9.28992L26.1291 7.34992V5.18992V5.19992Z" fill="#323232"/>
<path d="M42.2897 23.3197H41.6897C41.4097 22.1197 40.3397 21.2197 39.0597 21.2197H30.8697C29.5897 21.2197 28.5097 22.1197 28.2397 23.3197H27.6397C26.1497 23.3197 24.9297 24.4797 24.9297 25.8997V43.6997C24.9297 45.1197 26.1397 46.2797 27.6397 46.2797H42.3097C43.7997 46.2797 45.0197 45.1197 45.0197 43.6997V25.8997C45.0197 24.4797 43.8097 23.3197 42.3097 23.3197H42.2897ZM30.1597 23.9197C30.1597 23.5297 30.4797 23.2097 30.8697 23.2097H39.0597C39.4497 23.2097 39.7697 23.5297 39.7697 23.9197V24.8497H30.1597V23.9197ZM42.9997 43.6897C42.9997 44.0097 42.6797 44.2697 42.2897 44.2697H27.6197C27.2297 44.2697 26.9097 44.0097 26.9097 43.6897V25.8897C26.9097 25.5697 27.2297 25.3097 27.6197 25.3097H28.1497V25.8497C28.1497 26.3997 28.5997 26.8497 29.1497 26.8497H40.7597C41.3097 26.8497 41.7597 26.3997 41.7597 25.8497V25.3097H42.2897C42.6797 25.3097 42.9997 25.5697 42.9997 25.8897V43.6897Z" fill="#323232"/>
<path d="M39.4587 29.5098H30.7188C30.1687 29.5098 29.7188 29.9598 29.7188 30.5098C29.7188 31.0598 30.1687 31.5098 30.7188 31.5098H39.4587C40.0087 31.5098 40.4587 31.0598 40.4587 30.5098C40.4587 29.9598 40.0087 29.5098 39.4587 29.5098Z" fill="#323232"/>
<path d="M39.4587 34.3999H30.7188C30.1687 34.3999 29.7188 34.8499 29.7188 35.3999C29.7188 35.9499 30.1687 36.3999 30.7188 36.3999H39.4587C40.0087 36.3999 40.4587 35.9499 40.4587 35.3999C40.4587 34.8499 40.0087 34.3999 39.4587 34.3999Z" fill="#323232"/>
<path d="M39.4587 39.29H30.7188C30.1687 39.29 29.7188 39.74 29.7188 40.29C29.7188 40.84 30.1687 41.29 30.7188 41.29H39.4587C40.0087 41.29 40.4587 40.84 40.4587 40.29C40.4587 39.74 40.0087 39.29 39.4587 39.29Z" fill="#323232"/>
</svg>
