<svg width="48" height="48" viewBox="0 0 48 48" fill="none" xmlns="http://www.w3.org/2000/svg">
<path d="M24 37.4295C11.38 37.4295 2.55 25.0695 2.18 24.5495C1.94 24.1995 1.94 23.7395 2.18 23.3995C2.55 22.8695 11.38 10.5195 24 10.5195C36.62 10.5195 45.45 22.8795 45.82 23.3995C46.06 23.7495 46.06 24.2095 45.82 24.5495C45.45 25.0795 36.62 37.4295 24 37.4295ZM4.25 23.9695C6.13 26.3695 13.91 35.4295 24 35.4295C34.09 35.4295 41.87 26.3695 43.75 23.9695C41.87 21.5695 34.09 12.5095 24 12.5095C13.91 12.5095 6.13 21.5795 4.25 23.9695Z" fill="#323232"/>
<path d="M24.0009 30.74C27.9331 30.74 31.1209 27.5523 31.1209 23.62C31.1209 19.6877 27.9331 16.5 24.0009 16.5C20.0686 16.5 16.8809 19.6877 16.8809 23.62C16.8809 27.5523 20.0686 30.74 24.0009 30.74Z" fill="#8DE2E0"/>
<path d="M24.0202 27.4598H23.9902C23.4402 27.4598 22.9902 26.9998 23.0002 26.4498C23.0002 25.8998 23.4502 25.4598 24.0002 25.4598H24.0202C24.3402 25.4598 24.6602 25.3698 24.9402 25.2098C25.3702 24.9598 25.6702 24.5598 25.8002 24.0898C25.9302 23.6198 25.8602 23.1198 25.6102 22.6898C25.3302 22.2098 25.5002 21.5998 25.9802 21.3198C26.4602 21.0398 27.0702 21.2098 27.3502 21.6898C27.8602 22.5798 28.0002 23.6198 27.7302 24.6098C27.4602 25.5998 26.8302 26.4298 25.9402 26.9498C25.3602 27.2898 24.6902 27.4698 24.0202 27.4698V27.4598Z" fill="#323232"/>
<path d="M23.9995 25.5996C25.0931 25.5996 25.9795 24.7132 25.9795 23.6196C25.9795 22.5261 25.0931 21.6396 23.9995 21.6396C22.906 21.6396 22.0195 22.5261 22.0195 23.6196C22.0195 24.7132 22.906 25.5996 23.9995 25.5996Z" fill="white"/>
<path d="M24 37.4295C11.38 37.4295 2.55 25.0695 2.18 24.5495C1.94 24.1995 1.94 23.7395 2.18 23.3995C2.55 22.8695 11.38 10.5195 24 10.5195C36.62 10.5195 45.45 22.8795 45.82 23.3995C46.06 23.7495 46.06 24.2095 45.82 24.5495C45.45 25.0795 36.62 37.4295 24 37.4295ZM4.25 23.9695C6.13 26.3695 13.91 35.4295 24 35.4295C34.09 35.4295 41.87 26.3695 43.75 23.9695C41.87 21.5695 34.09 12.5095 24 12.5095C13.91 12.5095 6.13 21.5795 4.25 23.9695Z" fill="#323232"/>
</svg>
