<svg width="24" height="24" viewBox="0 0 24 24" fill="none" xmlns="http://www.w3.org/2000/svg">
<g clip-path="url(#clip0_10496_9342)">
<path d="M10.5 20H13.5C13.6333 20 13.75 19.95 13.85 19.85C13.95 19.75 14 19.6333 14 19.5C14 19.3667 13.95 19.25 13.85 19.15C13.75 19.05 13.6333 19 13.5 19H10.5C10.3667 19 10.25 19.05 10.15 19.15C10.05 19.25 10 19.3667 10 19.5C10 19.6333 10.05 19.75 10.15 19.85C10.25 19.95 10.3667 20 10.5 20ZM7 23C6.45 23 5.97917 22.8042 5.5875 22.4125C5.19583 22.0208 5 21.55 5 21V3C5 2.45 5.19583 1.97917 5.5875 1.5875C5.97917 1.19583 6.45 1 7 1H17C17.55 1 18.0208 1.19583 18.4125 1.5875C18.8042 1.97917 19 2.45 19 3V21C19 21.55 18.8042 22.0208 18.4125 22.4125C18.0208 22.8042 17.55 23 17 23H7ZM7 21H17V3H7V21Z" fill="#323232"/>
</g>
<defs>
<clipPath id="clip0_10496_9342">
<rect width="24" height="24" fill="white"/>
</clipPath>
</defs>
</svg>
