<svg width="24" height="24" viewBox="0 0 24 24" fill="none" xmlns="http://www.w3.org/2000/svg">
<path fill-rule="evenodd" clip-rule="evenodd" d="M14 10H10V14H14V10ZM8 3H9V2H7V3H6V5H8V3ZM4 12H2V15H4V12ZM16 4H18V2H14V3H12V2H10V4H14V6H10V4H8V6H6V9H4V7H2V6H6V4H4V2H5H3H2V4V5V9V10H4V11H6V17H4V16H2V15V18H4V19H6V18H9V20H6V21H4V19H2V20V22H4H6H7H10H11V18H13V22H12H14H15V18H18V16H22V15V11V12H20V14H18V6H16V4ZM16 16H8V8H16V16ZM20 21V20H19V19H16V21H18V22H20H22V20V21H20ZM2 12V10V12ZM20 2V4H22V3V2H20ZM22 6H20V5H18V7H20V10H22V8V5V6ZM22 18H20V20H22V19V17V18ZM18 22H16H18Z" fill="#323232"/>
</svg>
