<svg width="24" height="24" viewBox="0 0 24 24" fill="none" xmlns="http://www.w3.org/2000/svg">
<path fill-rule="evenodd" clip-rule="evenodd" d="M11.9261 19.8371C13.3977 19.5565 14.7663 19.5774 15.8839 19.8982C17.0252 20.2267 17.8775 20.8646 18.3437 21.7407C18.3874 21.8241 18.427 21.9107 18.4648 22H6.65367C6.87227 21.8573 7.09607 21.7223 7.32284 21.5913C8.8175 20.7336 10.4079 20.1259 11.9261 19.8371ZM11.1918 16.5796C12.9646 16.2415 14.6124 16.2665 15.9564 16.6553C17.3317 17.0496 18.3562 17.8173 18.9184 18.8737C19.3236 19.6369 19.4807 20.52 19.3807 21.4973L19.3303 22H19.1909C19.1025 20.9363 18.6403 20.09 17.8126 19.5067C16.7571 18.7603 15.1438 18.4929 13.2698 18.7507C11.3769 19.0109 9.30964 19.7965 7.44752 20.9644C6.92846 21.2889 6.43595 21.634 5.97322 22H1.99988V21.3996C3.06281 20.3877 4.29893 19.4707 5.65488 18.6916C7.45174 17.6575 9.36695 16.9275 11.1918 16.5796ZM15.9798 11.2612C18.9999 11.0776 21.293 11.4022 21.9976 11.5205V22H19.3716C19.6202 20.6338 19.4902 19.3883 19.4902 19.3883C19.2485 17.4393 18.1183 16.1318 16.2207 15.6055C14.1728 15.0406 11.3334 15.4311 8.43163 16.6814C6.98759 17.3036 5.6103 18.0974 4.34267 19.0414C3.48195 19.6796 2.69989 20.3684 1.99995 21.0961V17.1404C2.6324 16.6784 3.29884 16.2457 3.99704 15.8459C5.98346 14.7024 8.10213 13.8955 10.1243 13.5094C12.0846 13.1363 13.9068 13.1648 15.3945 13.5925C16.917 14.0287 18.0501 14.8795 18.6729 16.0484C18.8525 16.3839 18.9877 16.7464 19.0793 17.1242L19.2547 17.8574C19.1996 16.5709 18.5744 15.3041 18.5744 15.3041C17.7583 13.6179 16.1222 12.6197 13.8408 12.414C12.6531 12.3066 11.3423 12.42 9.94018 12.7494C8.54651 13.077 7.12852 13.6052 5.72468 14.319C4.4109 14.9867 3.16015 15.7916 1.99995 16.7173V16.4469C6.33529 12.8678 11.3587 11.6386 15.3121 11.3096C16.1833 11.7376 16.8889 12.3406 17.3817 13.1177L17.6933 13.6097C17.372 12.6579 16.4004 11.6513 16.4004 11.6513C16.2676 11.5128 16.1262 11.3838 15.9798 11.2612ZM2.43081 13.205C6.67112 10.767 11.098 9.98667 14.1717 10.8722C10.5231 11.1072 6.0935 12.1485 2.00008 15.1403V13.4588C2.142 13.3727 2.28591 13.2893 2.43081 13.205ZM21.9977 2V11.5195C21.982 11.5152 21.9468 11.5056 21.8931 11.4918L21.7611 11.4588C21.0066 11.2748 18.5798 10.7572 15.373 10.8213C14.1344 10.0424 12.5318 9.70228 10.6627 9.83155C8.2838 9.99655 5.54484 10.9235 2.95078 12.4417C2.62898 12.6293 2.31213 12.8251 2 13.0275V12.7544C5.6297 10.3362 9.55837 9.33308 12.8561 8.97331C13.4729 9.19736 14.026 9.49833 14.4989 9.87671L14.7063 10.0444C14.3448 9.53555 13.4938 9.03882 13.298 8.92989C16.7949 8.60362 19.5086 8.98795 20.2715 9.11648C20.2715 9.11648 16.9282 8.19125 12.3849 8.51876C9.54771 7.49826 5.6359 8.24162 2 10.2275V9.93253C4.41343 8.52844 6.91569 7.7697 9.19017 7.38189C9.71915 7.45186 10.2169 7.56699 10.6739 7.73L11.1406 7.89674C10.5657 7.56128 9.99828 7.39207 9.64125 7.3092C13.4178 6.73853 16.4818 7.16926 17.2597 7.29952C17.2597 7.29952 13.2709 6.26537 8.26197 7.11343C6.26165 6.9735 3.95888 7.42953 2 8.32995V7.73769C3.25795 7.27049 4.51714 7.00004 5.68676 6.95662L6.63854 6.91965C4.24943 6.55716 2 7.33351 2 7.33351V2H21.9977ZM2 10.5935C5.32303 8.87451 8.74381 8.18698 11.4081 8.60804C8.50338 8.92488 5.19946 9.78088 2 11.6842V10.5935ZM7.13251 7.33406C5.4751 7.70177 3.73382 8.28831 1.99998 9.18947V8.6915C3.29539 8.11563 4.61488 7.70574 5.88846 7.48764C6.31299 7.41395 6.72734 7.36358 7.13251 7.33406Z" fill="#0060A8"/>
</svg>
