<svg width="197" height="30" viewBox="0 0 197 30" fill="none" xmlns="http://www.w3.org/2000/svg">
<path d="M148.697 7.83422C148.697 9.32964 148.065 10.4601 147.059 11.0209L148.634 13.54H147.201L145.893 11.3769C145.724 11.4126 145.555 11.4304 145.368 11.4304C143.392 11.4304 142.039 10.0417 142.039 7.83422V3.43696C142.039 1.22943 143.338 -0.15918 145.368 -0.15918C147.397 -0.15918 148.697 1.22943 148.697 3.43696V7.84312V7.83422ZM143.214 7.86982C143.214 9.24063 143.997 10.2554 145.368 10.2554C146.738 10.2554 147.513 9.24063 147.513 7.86982V3.40135C147.513 2.03055 146.738 1.0158 145.368 1.0158C143.997 1.0158 143.214 2.03055 143.214 3.40135V7.87872V7.86982Z" fill="#323232"/>
<path d="M151.474 11.2706L154.714 0.00146484H155.898L159.165 11.2616H157.945L157.206 8.67136H153.352L152.631 11.2616H151.474V11.2706ZM153.664 7.54979H156.913L155.266 1.77283L153.664 7.54979Z" fill="#323232"/>
<path d="M168.823 11.2706H167.852L163.455 2.56505V11.2706H162.36V0.00146484H163.411L167.728 8.57345V0.00146484H168.823V11.2616V11.2706Z" fill="#323232"/>
<path d="M171.938 0.00146484H178.445V1.18534H175.775V11.2616H174.6V1.18534H171.929V0.00146484H171.938Z" fill="#323232"/>
<path d="M179.914 11.2706L183.154 0.00146484H184.338L187.604 11.2616H186.385L185.646 8.67136H181.792L181.071 11.2616H179.914V11.2706ZM182.103 7.54979H185.352L183.706 1.77283L182.103 7.54979Z" fill="#323232"/>
<path d="M195.375 3.20564V2.92969C195.375 1.79923 194.654 0.926895 193.39 0.926895C192.126 0.926895 191.432 1.6301 191.432 2.62705C191.432 3.41927 191.922 3.98005 192.589 4.2738L194.254 5.03041C195.411 5.54669 196.702 6.23209 196.702 8.16368C196.702 10.0953 195.357 11.4394 193.399 11.4394C191.441 11.4394 190.088 10.2199 190.088 8.27049V7.99455H191.245V8.3328C191.245 9.48107 192.028 10.3178 193.39 10.3178C194.752 10.3178 195.544 9.46327 195.544 8.315C195.544 7.09552 194.761 6.61485 193.818 6.20538L192.384 5.55559C191.245 5.05711 190.302 4.23819 190.302 2.72496C190.302 1.02481 191.539 -0.167969 193.381 -0.167969C195.224 -0.167969 196.515 1.05151 196.515 3.00091V3.20564H195.375Z" fill="#323232"/>
<path d="M151.892 18.6938L149.578 29.954H148.51L146.703 21.0438L144.931 29.954H143.863L141.549 18.6938H142.706L144.433 27.5596L146.187 18.6938H147.264L149.017 27.5596L150.744 18.6938H151.866H151.892Z" fill="#323232"/>
<path d="M156.414 29.9633H155.239V18.7031H156.414V29.9633Z" fill="#323232"/>
<path d="M166.971 29.9633H166.001L161.604 21.2578V29.9633H160.509V18.7031H161.559L165.876 27.2751V18.7031H166.971V29.9633Z" fill="#323232"/>
<path d="M172.25 24.7827V28.7794H176.985V29.9633H171.084V18.7031H176.869V19.887H172.259V23.6256H176.487V24.7916H172.259L172.25 24.7827Z" fill="#323232"/>
<path d="M130.885 -0.132324V30.15" stroke="#323232" stroke-width="0.666689" stroke-miterlimit="10"/>
<path d="M88.6395 29.9987H119.394L94.7547 5.25303C91.4701 1.96843 87.0195 0.019043 82.373 0.019043H77.2191L77.6019 1.02489L79.3109 5.50226L88.6484 29.9987H88.6395Z" fill="url(#paint0_linear_15605_2288)"/>
<path d="M79.3108 5.50216C82.6755 11.2524 91.5146 11.8577 92.4759 20.7946C92.5115 21.1596 92.7964 21.4533 93.1613 21.5157C98.2529 22.3079 103.211 24.4086 107.519 27.8623C107.519 27.8623 107.581 27.8979 107.617 27.8979C107.653 27.8979 107.697 27.8801 107.724 27.8534C107.786 27.7911 107.786 27.7021 107.724 27.6398C104.742 24.5065 101.092 21.9963 96.9978 20.3496L95.7516 19.8511C95.1107 19.593 94.6656 18.961 94.6834 18.2311C94.7547 15.5607 101.075 16.1036 101.707 14.8219L101.813 14.5993C100.514 13.4867 98.965 12.6499 97.2648 12.1871C97.247 12.2494 97.2114 12.5609 97.5586 13.1306C97.9324 13.7448 97.1491 14.715 96.0008 13.6647L95.9029 13.5757C87.3665 5.7514 80.9665 9.8104 77.584 1.03369L79.293 5.51106L79.3108 5.50216Z" fill="white"/>
<path d="M99.8284 14.4479C99.8284 14.4479 98.4309 14.5191 97.5675 13.1216C97.8256 13.5399 97.5408 14.1185 96.9711 14.1274V16.2549C97.8879 15.9878 98.9383 15.8276 99.8195 15.6407V14.4568L99.8284 14.4479Z" fill="url(#paint1_linear_15605_2288)"/>
<path d="M94.2117 21.7026C98.9294 22.6105 103.505 24.6489 107.51 27.8623C98.5733 20.225 94.4965 21.6047 94.2117 21.7026Z" fill="url(#paint2_linear_15605_2288)"/>
<path d="M81.1089 5.90283C79.7203 4.91478 78.5453 3.46387 77.6018 1.0249L79.3109 5.50227C82.6756 11.2525 91.5146 11.8578 92.4759 20.7948C91.5057 9.38325 86.4942 11.0923 81.1089 5.90283Z" fill="url(#paint3_linear_15605_2288)"/>
<path d="M1.16607 6.39262V11.2616H0V0.00146484H5.77696V1.18534H1.16607V5.22655H5.39421V6.39262H1.16607Z" fill="#323232"/>
<path d="M14.4558 11.2616L12.7022 6.80208C12.5153 6.81988 12.4263 6.81988 12.2839 6.81988H10.4057V11.2616H9.23962V0.00146484H12.3551C14.3312 0.00146484 15.7554 1.31886 15.7554 3.35727C15.7554 4.86159 15.0166 5.99206 13.8772 6.49054L15.7376 11.2527H14.4558V11.2616ZM10.4057 1.14974V5.68942H12.2572C13.6725 5.68942 14.5537 4.76368 14.5537 3.37507C14.5537 1.98646 13.6725 1.14974 12.2572 1.14974H10.4057Z" fill="#323232"/>
<path d="M20.4108 6.08998V10.0778H25.1374V11.2616H19.2358V0.00146484H25.0128V1.18534H20.4108V4.9239H24.63V6.08998H20.4108Z" fill="#323232"/>
<path d="M34.9199 7.83433C34.9199 9.32975 34.2879 10.4602 33.291 11.021L34.8576 13.5401H33.4245L32.116 11.3771C31.9469 11.4127 31.7777 11.4305 31.5908 11.4305C29.6147 11.4305 28.2617 10.0419 28.2617 7.83433V3.42817C28.2617 1.22064 29.5524 -0.167969 31.5908 -0.167969C33.6292 -0.167969 34.9199 1.22064 34.9199 3.42817V7.83433ZM29.4367 7.86993C29.4367 9.24074 30.22 10.2555 31.5908 10.2555C32.9616 10.2555 33.7271 9.24074 33.7271 7.86993V3.39256C33.7271 2.02176 32.9527 1.00701 31.5908 1.00701C30.2289 1.00701 29.4367 2.02176 29.4367 3.39256V7.86993Z" fill="#323232"/>
<path d="M44.8004 0.00146484V7.83464C44.8004 10.0422 43.4741 11.4308 41.5337 11.4308C39.5932 11.4308 38.2847 10.0422 38.2847 7.83464V0.00146484H39.4507V7.87024C39.4507 9.24105 40.2074 10.2558 41.5337 10.2558C42.86 10.2558 43.6255 9.24105 43.6255 7.87024V0.00146484H44.7915H44.8004Z" fill="#323232"/>
<path d="M49.8386 6.08998V10.0778H54.5652V11.2616H48.6725V0.00146484H54.4405V1.18534H49.8386V4.9239H54.0578V6.08998H49.8386Z" fill="#323232"/>
<path d="M64.5436 11.2616H63.5733L59.1849 2.55615V11.2616H58.0901V0.00146484H59.1404L63.4487 8.57345V0.00146484H64.5436V11.2616Z" fill="#323232"/>
<path d="M67.5344 0.00146484H74.0324V1.18534H71.3709V11.2616H70.1959V1.18534H67.5344V0.00146484Z" fill="#323232"/>
<path d="M32.3831 25.085V29.954H31.2081V18.6938H36.9851V19.8777H32.3831V23.9189H36.6023V25.085H32.3831Z" fill="#323232"/>
<path d="M41.6137 28.7702H46.0377V29.954H40.4476V18.6938H41.6137V28.7702Z" fill="#323232"/>
<path d="M48.5834 18.6938L50.8622 24.1771L53.1587 18.6938H54.3426L51.4141 25.45V29.954H50.248V25.4589L47.3195 18.6938H48.5834Z" fill="#323232"/>
<path d="M58.7933 24.7735V28.7702H63.5199V29.954H57.6183V18.6938H63.3952V19.8777H58.7933V23.6074H63.0125V24.7735H58.7933Z" fill="#323232"/>
<path d="M72.261 29.954L70.5074 25.4945C70.3205 25.5123 70.2315 25.5123 70.0891 25.5123H68.2109V29.954H67.0448V18.6938H70.1603C72.1275 18.6938 73.5606 20.0112 73.5606 22.0497C73.5606 23.554 72.8218 24.6844 71.6824 25.1829L73.5428 29.9451H72.261V29.954ZM68.2109 19.8421V24.3818H70.0624C71.4777 24.3818 72.3589 23.4561 72.3589 22.0675C72.3589 20.6788 71.4777 19.8421 70.0624 19.8421H68.2109Z" fill="#323232"/>
<defs>
<linearGradient id="paint0_linear_15605_2288" x1="103.941" y1="29.8919" x2="83.4322" y2="-0.0699705" gradientUnits="userSpaceOnUse">
<stop stop-color="#BE0000"/>
<stop offset="0.39" stop-color="#DD0000"/>
<stop offset="0.77" stop-color="#F60000"/>
<stop offset="1" stop-color="#FF0000"/>
</linearGradient>
<linearGradient id="paint1_linear_15605_2288" x1="98.2796" y1="16.3617" x2="98.5555" y2="13.2017" gradientUnits="userSpaceOnUse">
<stop offset="0.65" stop-color="white" stop-opacity="0"/>
<stop offset="0.69" stop-color="#ECECEC" stop-opacity="0.0529"/>
<stop offset="0.76" stop-color="#D6D6D6" stop-opacity="0.25"/>
<stop offset="0.81" stop-color="#C5C5C5" stop-opacity="0.5184"/>
<stop offset="0.87" stop-color="#B9B9B9" stop-opacity="0.7569"/>
<stop offset="0.91" stop-color="#B1B1B1" stop-opacity="0.9409"/>
<stop offset="0.95" stop-color="#AFAFAF"/>
</linearGradient>
<linearGradient id="paint2_linear_15605_2288" x1="94.2117" y1="24.7023" x2="107.519" y2="24.7023" gradientUnits="userSpaceOnUse">
<stop stop-color="white" stop-opacity="0"/>
<stop offset="0.07" stop-color="#F3F3F3" stop-opacity="0.0225"/>
<stop offset="0.21" stop-color="#DEDEDE" stop-opacity="0.1681"/>
<stop offset="0.35" stop-color="#CDCDCD" stop-opacity="0.3844"/>
<stop offset="0.49" stop-color="#C0C0C0" stop-opacity="0.6241"/>
<stop offset="0.63" stop-color="#B6B6B6" stop-opacity="0.8281"/>
<stop offset="0.77" stop-color="#B0B0B0" stop-opacity="0.9604"/>
<stop offset="0.9" stop-color="#AFAFAF"/>
</linearGradient>
<linearGradient id="paint3_linear_15605_2288" x1="77.6018" y1="10.9054" x2="92.467" y2="10.9054" gradientUnits="userSpaceOnUse">
<stop offset="0.25" stop-color="white" stop-opacity="0"/>
<stop offset="0.36" stop-color="#F6F6F6" stop-opacity="0.0121"/>
<stop offset="0.58" stop-color="#E0E0E0" stop-opacity="0.1444"/>
<stop offset="0.88" stop-color="#BDBDBD" stop-opacity="0.6724"/>
<stop offset="1" stop-color="#AFAFAF"/>
</linearGradient>
</defs>
</svg>
