<svg width="24" height="24" viewBox="0 0 24 24" fill="none" xmlns="http://www.w3.org/2000/svg">
<g clip-path="url(#clip0_10496_8618)">
<path fill-rule="evenodd" clip-rule="evenodd" d="M10.55 19.7004L12 21.0004L13.45 19.7004C15.1333 18.1837 16.525 16.8754 17.625 15.7754C18.725 14.6754 19.6 13.6877 20.25 12.8124C20.9 11.9377 21.3543 11.1337 21.613 10.4004C21.871 9.66706 22 8.91706 22 8.15039C22 6.58372 21.475 5.27539 20.425 4.22539C19.375 3.17539 18.0667 2.65039 16.5 2.65039C15.6333 2.65039 14.8083 2.83372 14.025 3.20039C13.2417 3.56706 12.5667 4.08372 12 4.75039C11.4333 4.08372 10.7583 3.56706 9.975 3.20039C9.19167 2.83372 8.36667 2.65039 7.5 2.65039C5.93333 2.65039 4.625 3.17539 3.575 4.22539C2.525 5.27539 2 6.58372 2 8.15039C2 8.91706 2.12933 9.66706 2.388 10.4004C2.646 11.1337 3.1 11.9377 3.75 12.8124C4.4 13.6877 5.275 14.6754 6.375 15.7754C7.475 16.8754 8.86667 18.1837 10.55 19.7004ZM15.7246 14.8349C14.7274 15.8141 13.4859 16.9693 12 18.3004C10.4 16.8671 9.08333 15.6377 8.05 14.6124C7.01667 13.5877 6.2 12.6964 5.6 11.9384C5 11.1797 4.58333 10.5044 4.35 9.91239C4.11667 9.32106 4 8.73372 4 8.15039C4 7.1678 4.32183 6.34613 4.96548 5.68537C5.79024 7.50194 6.97584 8.30221 8.04732 9.02544C9.27138 9.85167 10.3465 10.5774 10.5645 12.6029C10.5839 12.7474 10.6906 12.8629 10.8359 12.8822C12.5466 13.1501 14.2209 13.7968 15.7246 14.8349ZM15.8908 14.671C14.8565 13.7294 13.6501 12.963 12.3282 12.4393L11.8437 12.2467C11.5917 12.1406 11.427 11.9 11.427 11.6207C11.4445 10.9993 12.34 10.8297 13.1032 10.6853C13.6053 10.5902 14.0501 10.506 14.1501 10.3112L14.1889 10.2245C13.685 9.79117 13.0937 9.47347 12.4348 9.29056C12.4252 9.31941 12.4057 9.43493 12.5413 9.65639C12.6869 9.88753 12.3863 10.263 11.9406 9.85868L11.9018 9.82972C10.4154 8.47657 9.29688 8.15505 8.3088 7.87101C7.18157 7.54698 6.22407 7.27174 5.08373 5.56924C5.73601 4.95667 6.54144 4.65039 7.5 4.65039C8.28333 4.65039 9.00833 4.87106 9.675 5.31239C10.3417 5.75439 10.8 6.31706 11.05 7.00039H12.95C13.2 6.31706 13.6583 5.75439 14.325 5.31239C14.9917 4.87106 15.7167 4.65039 16.5 4.65039C17.5 4.65039 18.3333 4.98372 19 5.65039C19.6667 6.31706 20 7.15039 20 8.15039C20 8.73372 19.8833 9.32106 19.65 9.91239C19.4167 10.5044 19 11.1797 18.4 11.9384C17.8 12.6964 16.9833 13.5877 15.95 14.6124C15.9304 14.6319 15.9107 14.6514 15.8908 14.671Z" fill="#323232"/>
</g>
<defs>
<clipPath id="clip0_10496_8618">
<rect width="24" height="24" fill="white"/>
</clipPath>
</defs>
</svg>
