<svg width="24" height="24" viewBox="0 0 24 24" fill="none" xmlns="http://www.w3.org/2000/svg">
<path fill-rule="evenodd" clip-rule="evenodd" d="M7.61976 4C7.5328 4.66519 7.44584 5.3649 7.36473 6.06575C7.31294 6.51326 7.26521 6.94718 7.22238 7.36262C7.19978 7.58178 7.17869 7.79441 7.1592 8H16.8308C16.8113 7.79441 16.7902 7.58178 16.7676 7.36262C16.7248 6.94718 16.6771 6.51326 16.6253 6.06575C16.5442 5.3649 16.4572 4.66519 16.3702 4H7.61976ZM18.8395 8C18.8147 7.73065 18.7872 7.44948 18.7571 7.15751C18.7133 6.73337 18.6647 6.29125 18.612 5.83583C18.5297 5.12429 18.4415 4.41489 18.3533 3.74041C18.3004 3.33535 18.2591 3.03142 18.2354 2.86156C18.1663 2.36757 17.7438 2 17.245 2H6.745C6.24621 2 5.82368 2.36757 5.75463 2.86156C5.73089 3.03142 5.68963 3.33535 5.63667 3.74041C5.5485 4.41489 5.46034 5.12429 5.37799 5.83583C5.32529 6.29125 5.27665 6.73337 5.23292 7.15751C5.16633 7.80337 5.11227 8.39635 5.07277 8.92558C5.07047 8.95648 5.06959 8.98715 5.07009 9.01754C5.01177 9.72047 5 9.903 5 10.2C5 12.8101 7.51903 15.4639 10.995 15.9285V21H7.97805C7.42577 21 6.97805 21.4477 6.97805 22C6.97805 22.5523 7.42577 23 7.97805 23H16.0119C16.5642 23 17.0119 22.5523 17.0119 22C17.0119 21.4477 16.5642 21 16.0119 21H12.995V15.9483C16.5253 15.5469 19 12.8749 19 10.2C19 9.88931 18.9871 9.70388 18.9215 8.91695L18.8451 8H18.8395Z" fill="#323232"/>
</svg>
