<svg width="48" height="48" viewBox="0 0 48 48" fill="none" xmlns="http://www.w3.org/2000/svg">
<path d="M2.89086 24.2202C2.89086 24.1402 2.88086 24.0602 2.88086 23.9702C2.88086 19.5202 4.26086 15.3902 6.62086 11.9902L9.33086 19.0302L2.90086 24.2202H2.89086Z" fill="#8DE2E0"/>
<path d="M17.2792 43.98L14.7692 36.29L6.94922 36.42C9.49922 39.91 13.0892 42.59 17.2692 44" fill="#8DE2E0"/>
<path d="M45.1199 23.9702C45.1899 19.5602 43.7399 15.3902 41.3799 11.9902L38.6699 19.0302C38.6699 19.0302 45.1099 24.0502 45.1099 23.9702H45.1199Z" fill="#8DE2E0"/>
<path d="M15.0703 20.5603L18.4803 31.0603H18.5003H29.5003H29.5203L32.9303 20.5603L24.0003 14.0703L15.0703 20.5603Z" fill="#8DE2E0"/>
<path d="M30.7109 43.98L33.2209 36.29L41.0409 36.42C38.4909 39.91 34.9009 42.59 30.7209 44" fill="#8DE2E0"/>
<path d="M18.1602 3.66961H18.1802C20.0302 3.14961 21.9802 2.84961 24.0002 2.84961C26.0202 2.84961 27.9702 3.14961 29.8202 3.67961L24.0002 8.43961L18.1802 3.67961" fill="#8DE2E0"/>
<path d="M46.1204 23.9796C46.1204 23.8796 46.1204 23.7796 46.1204 23.6796C46.1204 20.2896 45.2804 16.9596 43.6804 13.8696C43.5604 13.6296 43.4304 13.3896 43.3004 13.1596C43.2104 13.0096 43.1304 12.8496 43.0404 12.6996C42.8104 12.3196 42.5804 11.9496 42.3304 11.5796C42.2804 11.4496 42.1904 11.3396 42.0904 11.2396C38.3704 5.97961 32.4204 2.39961 25.6304 1.90961C25.6104 1.90961 25.5904 1.90961 25.5704 1.90961C25.0504 1.86961 24.5404 1.84961 24.0104 1.84961C23.5304 1.84961 23.0504 1.86961 22.5804 1.89961C15.6504 2.34961 9.58039 5.99961 5.84039 11.3896C5.84039 11.3996 5.82039 11.4096 5.81039 11.4196C5.79039 11.4496 5.78039 11.4696 5.76039 11.4996C5.49039 11.8996 5.23039 12.3096 4.98039 12.7196C4.92039 12.8196 4.87039 12.9196 4.81039 13.0096C4.59039 13.3996 4.38039 13.7896 4.18039 14.1896C4.15039 14.2396 4.13039 14.2896 4.10039 14.3496C3.89039 14.7796 3.70039 15.2196 3.52039 15.6696C3.47039 15.7896 3.42039 15.9096 3.38039 16.0296C3.21039 16.4696 3.05039 16.9096 2.91039 17.3496C2.90039 17.3796 2.89039 17.4096 2.88039 17.4496C2.74039 17.8996 2.62039 18.3496 2.51039 18.8096C2.48039 18.9396 2.45039 19.0596 2.42039 19.1896C2.32039 19.6596 2.22039 20.1396 2.15039 20.6296C2.15039 20.6496 2.15039 20.6796 2.15039 20.6996C2.08039 21.1596 2.03039 21.6296 1.99039 22.1096C1.98039 22.2396 1.97039 22.3596 1.96039 22.4896C1.93039 22.9796 1.90039 23.4796 1.90039 23.9796C1.90039 30.6596 4.88039 36.6596 9.58039 40.7196C9.62039 40.7596 9.67039 40.7996 9.71039 40.8296C10.1004 41.1596 10.5004 41.4796 10.9104 41.7896C10.9804 41.8396 11.0504 41.8896 11.1204 41.9396C11.4704 42.1896 11.8304 42.4396 12.2004 42.6696C12.2904 42.7296 12.3704 42.7796 12.4604 42.8396C12.8704 43.0896 13.2904 43.3296 13.7104 43.5496C13.8104 43.5996 13.9204 43.6596 14.0204 43.7096C14.4604 43.9296 14.9004 44.1396 15.3504 44.3396C15.3604 44.3396 15.3704 44.3496 15.3804 44.3596C15.8504 44.5596 16.3304 44.7396 16.8204 44.9096C16.8704 44.9296 16.9204 44.9496 16.9704 44.9696C16.9804 44.9696 16.9904 44.9696 17.0104 44.9696C19.2104 45.7096 21.5704 46.1096 24.0204 46.1096C26.4704 46.1096 28.8204 45.6996 31.0304 44.9696C31.0404 44.9696 31.0504 44.9696 31.0704 44.9696C31.1204 44.9496 31.1704 44.9296 31.2204 44.9096C31.7104 44.7396 32.1904 44.5596 32.6704 44.3596C32.6704 44.3596 32.6704 44.3596 32.6804 44.3596C33.1404 44.1596 33.5904 43.9496 34.0404 43.7196C34.1404 43.6696 34.2404 43.6196 34.3404 43.5696C34.7704 43.3396 35.2004 43.0996 35.6104 42.8496C35.6904 42.7996 35.7704 42.7496 35.8504 42.6996C36.2304 42.4596 36.6004 42.2096 36.9604 41.9496C37.0204 41.9096 37.0804 41.8596 37.1504 41.8196C37.5704 41.5096 37.9704 41.1896 38.3704 40.8496C38.4104 40.8196 38.4504 40.7796 38.4804 40.7496C43.1804 36.6896 46.1604 30.6996 46.1704 24.0196L46.1204 23.9796ZM38.7804 37.5796C38.4404 37.9496 38.0904 38.2996 37.7304 38.6396C37.5704 38.7896 37.4004 38.9396 37.2304 39.0896C36.9104 39.3696 36.5804 39.6396 36.2504 39.8996C36.0304 40.0696 35.8204 40.2296 35.6004 40.3896C35.2804 40.6096 34.9604 40.8196 34.6304 41.0296C34.3804 41.1796 34.1404 41.3396 33.8804 41.4796C33.5404 41.6696 33.2004 41.8396 32.8504 42.0196C32.6704 42.1096 32.5004 42.1996 32.3204 42.2796L33.9404 37.3096L38.9604 37.3896C38.9004 37.4496 38.8404 37.5196 38.7804 37.5796ZM40.5404 35.4096L33.7504 35.2996L30.6304 30.9196L33.7304 21.3896L38.4704 20.1296C41.5804 22.5596 43.2104 23.8196 44.1104 24.4396C44.0204 28.5096 42.7204 32.2796 40.5504 35.4196L40.5404 35.4096ZM15.1404 42.0096C14.7904 41.8396 14.4504 41.6696 14.1204 41.4796C13.8704 41.3396 13.6204 41.1796 13.3704 41.0196C13.0404 40.8196 12.7204 40.6096 12.4104 40.3796C12.1904 40.2196 11.9704 40.0596 11.7504 39.8896C11.4204 39.6296 11.0904 39.3596 10.7704 39.0796C10.6004 38.9296 10.4404 38.7796 10.2704 38.6296C9.91039 38.2896 9.56039 37.9396 9.22039 37.5696C9.16039 37.5096 9.10039 37.4396 9.04039 37.3796L14.0604 37.2996L15.6804 42.2696C15.5004 42.1896 15.3204 42.0996 15.1404 42.0096ZM14.2504 35.2996L7.46039 35.4096C5.33039 32.3396 4.05039 28.6596 3.91039 24.6796L9.55039 20.1296L14.2804 21.3796L17.3804 30.9096L14.2604 35.2896L14.2504 35.2996ZM3.98039 21.9996C4.02039 21.5896 4.09039 21.1796 4.16039 20.7696C4.20039 20.5096 4.23039 20.2396 4.28039 19.9796C4.38039 19.4896 4.51039 19.0096 4.65039 18.5296C4.70039 18.3596 4.73039 18.1796 4.78039 18.0096C4.98039 17.3696 5.21039 16.7396 5.48039 16.1196C5.55039 15.9596 5.63039 15.8096 5.70039 15.6596C5.91039 15.1996 6.12039 14.7496 6.36039 14.3096C6.37039 14.2896 6.39039 14.2696 6.40039 14.2496L8.12039 18.7296L3.97039 22.0796C3.97039 22.0796 3.97039 22.0396 3.97039 22.0196L3.98039 21.9996ZM19.2004 30.0596L16.2404 20.9396L24.0004 15.2996L31.7604 20.9396L28.8004 30.0596H19.2104H19.2004ZM20.8304 4.11961C21.2604 4.04961 21.6904 3.97961 22.1204 3.93961C22.6604 3.88961 23.2104 3.85961 23.7704 3.85961C23.9304 3.85961 24.0804 3.85961 24.2404 3.85961C24.8004 3.85961 25.3504 3.88961 25.8904 3.93961C26.3204 3.97961 26.7504 4.04961 27.1804 4.11961C27.3304 4.13961 27.4704 4.15961 27.6204 4.18961L24.0104 7.14961L20.3904 4.18961C20.5404 4.15961 20.6804 4.14961 20.8304 4.11961ZM41.6604 14.3396C41.7304 14.4596 41.7804 14.5796 41.8404 14.6996C42.9804 16.8996 43.7504 19.3196 44.0104 21.8896C42.8204 20.9796 41.1904 19.7196 39.8704 18.6896L41.5904 14.2196C41.5904 14.2196 41.6404 14.2896 41.6604 14.3296V14.3396ZM40.2504 12.1596L37.9304 18.1996L33.1404 19.4696L25.0004 13.5596V8.91961L30.0504 4.78961C34.1904 6.09961 37.7404 8.72961 40.2504 12.1596ZM17.9504 4.77961L23.0004 8.90961V13.5496L14.8604 19.4596L10.0704 18.1896L7.75039 12.1496C10.2604 8.70961 13.8104 6.08961 17.9504 4.77961ZM18.0804 43.2096L15.8804 36.4596L19.0104 32.0596H28.9704L32.1004 36.4596L29.9004 43.2096C28.0304 43.7896 26.0404 44.0996 23.9904 44.0996C21.9404 44.0996 19.9504 43.7896 18.0704 43.2096H18.0804Z" fill="#323232"/>
</svg>
