<svg width="48" height="48" viewBox="0 0 48 48" fill="none" xmlns="http://www.w3.org/2000/svg">
<path d="M19.8302 14.8402C17.0902 14.0002 15.2502 12.4802 15.2502 10.7302C15.2502 8.9802 17.0902 7.4602 19.8302 6.6202C21.8602 4.8902 25.1202 3.5902 29.0002 3.0202C27.6202 2.8202 26.1702 2.7002 24.6602 2.7002C15.9602 2.7002 8.91016 6.2902 8.91016 10.7202C8.91016 15.1502 15.9602 18.7402 24.6602 18.7402C26.1702 18.7402 27.6202 18.6302 29.0002 18.4202C25.1202 17.8502 21.8602 16.5502 19.8302 14.8202V14.8402Z" fill="#8DE2E0"/>
<path d="M24.6699 1.70996C15.2799 1.70996 7.91992 5.66996 7.91992 10.73C7.91992 10.78 7.92992 10.83 7.92992 10.88C7.92992 10.9 7.91992 10.92 7.91992 10.95V37.27C7.91992 42.33 15.2799 46.29 24.6699 46.29C34.0599 46.29 41.4199 42.33 41.4199 37.27V10.73C41.4199 5.66996 34.0599 1.70996 24.6699 1.70996ZM34.3399 37.96V22.19C34.8599 22 35.3399 21.79 35.8099 21.56V37.25C35.3499 37.5 34.8599 37.74 34.3399 37.96ZM13.4999 37.24V21.55C13.9699 21.77 14.4599 21.99 14.9699 22.18V37.95C14.4499 37.73 13.9499 37.49 13.4999 37.24ZM24.6699 21.81C16.8899 21.81 10.3099 18.77 9.94992 15.1C12.7699 17.89 18.2399 19.75 24.6699 19.75C31.0999 19.75 36.5699 17.89 39.3899 15.1C39.0399 18.77 32.4499 21.81 24.6699 21.81ZM9.91992 19.13C10.3799 19.59 10.9099 20.01 11.4999 20.42V35.81C10.4999 34.87 9.91992 33.82 9.91992 32.72V19.13ZM16.9699 22.83C17.4499 22.96 17.9399 23.08 18.4399 23.18V39.05C17.9299 38.93 17.4399 38.8 16.9699 38.66V22.83ZM20.4499 23.52C20.9299 23.59 21.4199 23.64 21.9199 23.68V39.6C21.4199 39.55 20.9299 39.5 20.4499 39.42V23.51V23.52ZM23.9199 23.79C24.1699 23.79 24.4199 23.81 24.6699 23.81C24.9199 23.81 25.1499 23.8 25.3999 23.79V39.72C25.1599 39.72 24.9199 39.74 24.6699 39.74C24.4199 39.74 24.1699 39.73 23.9199 39.72V23.79ZM27.3999 23.69C27.8999 23.65 28.3899 23.59 28.8699 23.53V39.44C28.3899 39.51 27.8999 39.57 27.3999 39.61V23.69ZM30.8699 23.19C31.3699 23.08 31.8699 22.97 32.3399 22.84V38.68C31.8599 38.82 31.3699 38.95 30.8699 39.07V23.2V23.19ZM37.8199 20.43C38.4199 20.02 38.9599 19.59 39.4199 19.13V32.72C39.4199 33.83 38.8299 34.89 37.8199 35.83V20.43ZM24.6699 3.70996C32.6699 3.70996 39.4199 6.91996 39.4199 10.73C39.4199 14.54 32.6699 17.75 24.6699 17.75C16.6699 17.75 9.91992 14.54 9.91992 10.73C9.91992 6.91996 16.6699 3.70996 24.6699 3.70996ZM24.6699 44.29C16.6699 44.29 9.91992 41.08 9.91992 37.27V37.06C11.2499 38.4 13.2099 39.51 15.5699 40.33C15.5899 40.33 15.5999 40.34 15.6199 40.35C18.2199 41.23 21.3099 41.75 24.6699 41.75C29.6999 41.75 34.1299 40.61 37.1799 38.77C37.2399 38.75 37.2799 38.71 37.3299 38.68C38.1299 38.19 38.8399 37.65 39.4199 37.07V37.28C39.4199 41.08 32.6699 44.3 24.6699 44.3V44.29Z" fill="#323232"/>
<path d="M15.3298 13.3202C17.0098 15.2302 20.5198 16.5302 24.6698 16.5302C28.8198 16.5302 32.3798 15.2202 34.0498 13.2902C34.0498 13.2902 34.0498 13.2802 34.0598 13.2702C34.7098 12.5102 35.0898 11.6502 35.0898 10.7402C35.0898 7.4902 30.5198 4.9502 24.6698 4.9502C22.6198 4.9502 20.7198 5.2702 19.1298 5.8202C19.0998 5.8302 19.0698 5.8402 19.0398 5.8502C16.1498 6.8702 14.2598 8.6602 14.2598 10.7402C14.2598 11.6002 14.5898 12.4202 15.1798 13.1502C15.2298 13.2202 15.2698 13.2802 15.3298 13.3302V13.3202ZM18.4498 13.2202C17.8398 12.9102 17.3398 12.5502 16.9798 12.1802V9.2802C17.3498 8.9102 17.8398 8.5602 18.4498 8.2402V13.2102V13.2202ZM20.4498 7.4802C20.9098 7.3502 21.3998 7.2502 21.9198 7.1602V14.3102C21.3998 14.2202 20.9098 14.1202 20.4498 13.9902V7.4802ZM32.3398 12.2002C31.9698 12.5702 31.4798 12.9202 30.8698 13.2302V8.2302C31.4798 8.54019 31.9798 8.8902 32.3398 9.2602V12.2002ZM28.8698 13.9902C28.4098 14.1202 27.9198 14.2202 27.3998 14.3102V7.1502C27.9198 7.2302 28.4098 7.3402 28.8698 7.4702V13.9902ZM25.3998 6.9602V14.5102C25.1598 14.5102 24.9198 14.5302 24.6698 14.5302C24.4198 14.5302 24.1698 14.5302 23.9198 14.5102V6.9602C24.1698 6.9502 24.4098 6.9402 24.6698 6.9402C24.9298 6.9402 25.1598 6.9402 25.3998 6.9602Z" fill="#323232"/>
</svg>
