<svg width="48" height="48" viewBox="0 0 48 48" fill="none" xmlns="http://www.w3.org/2000/svg">
<path d="M31.5408 16.3902C34.6508 17.4102 38.7508 19.0702 39.3608 19.8102C39.5508 20.1102 39.8708 20.2702 40.2108 20.2702C40.3908 20.2702 40.5808 20.2202 40.7408 20.1102C41.2108 19.8102 41.3408 19.2002 41.0508 18.7302C40.4008 17.7102 36.8508 16.1302 33.5808 14.9802C35.2108 14.4902 36.7508 13.7002 38.1208 12.6302C38.5608 12.2902 38.6408 11.6602 38.3008 11.2302C37.9608 10.7902 37.3308 10.7202 36.9008 11.0502C35.0408 12.4902 32.8108 13.3402 30.4608 13.5202C32.6808 11.1602 35.3908 7.84023 34.7808 6.34023C34.5708 5.82023 34.0708 5.51023 33.4608 5.51023C31.5908 5.51023 30.7508 4.83023 29.8608 4.11023C29.0708 3.47023 28.1708 2.74023 26.7108 2.74023C25.2508 2.74023 24.3308 3.45023 23.5108 4.08023C22.6008 4.78023 21.7508 5.44023 19.9608 5.44023C19.0708 5.44023 17.6108 4.85023 16.3108 4.34023C14.2608 3.52023 12.6408 2.87023 11.5808 3.59023C11.3108 3.77023 10.8508 4.21023 10.8508 5.10023C10.8508 7.46023 15.8708 12.2502 18.4208 14.5302C15.5108 17.0902 6.80078 25.7302 6.80078 37.5002C6.80078 41.7702 10.2808 45.2502 14.5508 45.2502H33.4508C37.7208 45.2502 41.2008 41.7702 41.2008 37.5002C41.2008 27.7602 35.2408 20.1702 31.5408 16.3902ZM12.8908 5.29023C13.5008 5.38023 14.7108 5.86023 15.5608 6.20023C17.0908 6.81023 18.6808 7.45023 19.9508 7.45023C22.4208 7.45023 23.7008 6.47023 24.7208 5.68023C25.5108 5.07023 25.9608 4.75023 26.7008 4.75023C27.4408 4.75023 27.8408 5.07023 28.5908 5.67023C29.5008 6.40023 30.6008 7.29023 32.6508 7.48023C32.0908 8.53023 30.4908 10.7102 27.6408 13.5502H20.3308C16.8908 10.5302 13.3108 6.74023 12.9008 5.29023H12.8908ZM33.4508 43.2502H14.5508C11.3808 43.2502 8.80078 40.6702 8.80078 37.5002C8.80078 25.7202 18.6008 16.9802 20.3108 15.5502H27.6908C29.3908 16.9702 39.2008 25.7102 39.2008 37.5002C39.2008 40.6702 36.6208 43.2502 33.4508 43.2502Z" fill="#323232"/>
<path d="M25.9504 27.1199V26.7399C25.9504 25.7299 25.2804 25.0199 24.2504 25.0199C23.2204 25.0199 22.6304 25.6499 22.6304 26.4999C22.6304 27.0099 22.8504 27.6499 23.6804 27.9799L25.4404 28.6699C27.0004 29.2999 28.7004 30.1499 28.7004 32.5999C28.7004 34.7699 27.3204 36.3099 25.1604 36.5899V38.6399H23.3204V36.5499C21.2504 36.2099 19.9004 34.8099 19.9004 32.7399V32.2899H22.3904V32.8399C22.3904 33.9099 23.1004 34.5399 24.3104 34.5399C25.5204 34.5399 26.2304 33.8299 26.2304 32.8599C26.2304 32.0299 25.8004 31.4799 24.9704 31.1399L23.0704 30.3899C21.3304 29.6999 20.1704 28.5699 20.1704 26.6799C20.1704 24.8999 21.3204 23.3799 23.3104 23.0099V20.9399H25.1504V23.0099C27.1104 23.3299 28.4304 24.7499 28.4304 26.8399V27.1199H25.9404H25.9504Z" fill="#DF0000"/>
</svg>
