<svg width="24" height="24" viewBox="0 0 24 24" fill="none" xmlns="http://www.w3.org/2000/svg">
<g clip-path="url(#clip0_16335_10762)">
<path d="M20.4851 20.4853C25.1714 15.799 25.1714 8.20101 20.4851 3.51472C15.7988 -1.17157 8.20081 -1.17157 3.51452 3.51472C-1.17177 8.20101 -1.17177 15.799 3.51452 20.4853C8.20081 25.1716 15.7988 25.1716 20.4851 20.4853Z" fill="white"/>
<mask id="mask0_16335_10762" style="mask-type:luminance" maskUnits="userSpaceOnUse" x="-1" y="0" width="25" height="24">
<path d="M20.4851 20.4853C25.1714 15.799 25.1714 8.20101 20.4851 3.51472C15.7988 -1.17157 8.20081 -1.17157 3.51452 3.51472C-1.17177 8.20101 -1.17177 15.799 3.51452 20.4853C8.20081 25.1716 15.7988 25.1716 20.4851 20.4853Z" fill="white"/>
</mask>
<g mask="url(#mask0_16335_10762)">
<path d="M30.0007 0H-5.99927V24H30.0007V0Z" fill="#007C29"/>
<path fill-rule="evenodd" clip-rule="evenodd" d="M-2.33374 12L12 2.69434L26.3338 12L12 21.3057L-2.33374 12Z" fill="#FED700"/>
<path fill-rule="evenodd" clip-rule="evenodd" d="M12 5.896C15.3721 5.896 18.1056 8.62943 18.1056 12.0015C18.1056 12.2684 18.0888 12.5311 18.0552 12.7883C15.3959 10.5831 11.9805 9.25829 8.25625 9.25829C7.66093 9.25829 7.074 9.29322 6.49545 9.35891C7.48066 7.31023 9.57545 5.896 12 5.896ZM17.8442 13.7707C15.2897 11.5124 11.933 10.1401 8.25625 10.1401C7.53656 10.1401 6.82944 10.1932 6.1377 10.2952C5.98118 10.836 5.89594 11.409 5.89594 12.0015C5.89594 15.3736 8.62937 18.107 12.0014 18.107C14.7572 18.107 17.0868 16.2805 17.8456 13.7721L17.8442 13.7707Z" fill="#003399"/>
<path fill-rule="evenodd" clip-rule="evenodd" d="M18.0552 12.7883C18.0119 13.1251 17.9407 13.4535 17.8442 13.7707C15.2897 11.5124 11.933 10.1401 8.25625 10.1401C7.53655 10.1401 6.82944 10.1932 6.1377 10.2952C6.23133 9.97101 6.35151 9.65797 6.49545 9.35892C7.0726 9.29324 7.66093 9.2583 8.25625 9.2583C11.9805 9.2583 15.3959 10.5831 18.0552 12.7883Z" fill="white"/>
<path fill-rule="evenodd" clip-rule="evenodd" d="M6.77912 9.79784C6.77493 9.73915 6.77912 9.68884 6.79449 9.64831C6.80567 9.61757 6.82104 9.58962 6.842 9.56447C6.86297 9.53931 6.88672 9.51975 6.91188 9.50717C6.94681 9.489 6.98734 9.47922 7.03485 9.47503C7.1201 9.46804 7.18997 9.4904 7.24447 9.53931C7.29897 9.58822 7.33112 9.65949 7.3381 9.75452C7.34509 9.84815 7.32553 9.92222 7.27941 9.97951C7.23329 10.0354 7.16761 10.0676 7.08237 10.0745C6.99712 10.0815 6.92585 10.0606 6.87135 10.0117C6.81685 9.96274 6.78611 9.89287 6.77912 9.80064V9.79784ZM6.8993 9.78527C6.90489 9.85095 6.92306 9.89846 6.9566 9.9306C6.98874 9.96274 7.02926 9.97672 7.07538 9.97253C7.1215 9.96973 7.15923 9.94877 7.18578 9.91383C7.21233 9.8775 7.22351 9.82719 7.21932 9.76011C7.21373 9.69443 7.19556 9.64552 7.16482 9.61478C7.13268 9.58403 7.09355 9.57145 7.04603 9.57425C6.99852 9.57844 6.96079 9.59801 6.93424 9.63294C6.90769 9.66788 6.89651 9.71958 6.9021 9.78527H6.8993ZM7.57427 10.0284L7.5603 9.44988L7.80625 9.44429C7.86774 9.44289 7.91246 9.44708 7.94181 9.45686C7.96976 9.46664 7.99351 9.48481 8.01028 9.50997C8.02845 9.53652 8.03683 9.56586 8.03823 9.6008C8.03823 9.64412 8.02705 9.68046 8.0033 9.7098C7.97814 9.73915 7.94041 9.75732 7.8901 9.7657C7.91526 9.77968 7.93622 9.79505 7.95299 9.81182C7.96976 9.82859 7.99351 9.85933 8.02146 9.90405L8.09553 10.0144L7.95578 10.0186L7.86914 9.89427C7.83839 9.84955 7.81604 9.823 7.80486 9.81042C7.79368 9.79924 7.7811 9.79086 7.76852 9.78666C7.75594 9.78247 7.73638 9.78107 7.70983 9.78107H7.68607L7.69166 10.0228L7.57427 10.0256V10.0284ZM7.68328 9.69164L7.76992 9.68884C7.82582 9.68884 7.86075 9.68465 7.87473 9.67906C7.8887 9.67347 7.89988 9.66508 7.90687 9.6539C7.91386 9.64272 7.91805 9.62735 7.91805 9.61058C7.91805 9.59102 7.91246 9.57565 7.90128 9.56307C7.8901 9.55189 7.87613 9.5449 7.85656 9.54211C7.84678 9.54211 7.81883 9.54211 7.77132 9.54211L7.68048 9.5449L7.68467 9.69164H7.68328ZM8.29536 9.43311L8.50778 9.4387C8.55529 9.4387 8.59163 9.44429 8.61678 9.45267C8.65032 9.46385 8.67967 9.48202 8.70203 9.50857C8.72578 9.53512 8.74255 9.56586 8.75513 9.6036C8.76631 9.64133 8.7719 9.68605 8.7705 9.74055C8.7705 9.78806 8.76212 9.82859 8.74954 9.86352C8.73417 9.90545 8.71321 9.93899 8.68526 9.96414C8.66429 9.98371 8.63635 9.99768 8.60281 10.0075C8.57625 10.0144 8.54272 10.0186 8.49939 10.0172L8.27999 10.0117L8.29536 9.43311ZM8.40996 9.53372L8.40017 9.91663L8.48682 9.91942C8.51896 9.91942 8.54272 9.91942 8.55669 9.91523C8.57625 9.91104 8.59163 9.90265 8.6042 9.89287C8.61678 9.88169 8.62796 9.86352 8.63635 9.83837C8.64473 9.81322 8.65032 9.77688 8.65032 9.73216C8.65032 9.68744 8.64892 9.6539 8.64054 9.62875C8.63355 9.60499 8.62237 9.58543 8.6084 9.57145C8.59442 9.55748 8.57625 9.5477 8.55529 9.54351C8.53992 9.53931 8.50778 9.53652 8.46027 9.53512H8.40856L8.40996 9.53372ZM8.98571 10.0284L9.02903 9.45127L9.45666 9.48341L9.44967 9.58124L9.13943 9.55748L9.12965 9.68605L9.41753 9.70841L9.41054 9.80623L9.12266 9.78387L9.11148 9.94038L9.4329 9.96414L9.42591 10.062L8.98711 10.0284H8.98571ZM9.64392 10.0731L9.71658 9.49879L9.89127 9.52115L9.94437 9.92501L10.0953 9.5463L10.27 9.56866L10.1973 10.143L10.0897 10.129L10.147 9.67766L9.97651 10.1151L9.86471 10.1011L9.80882 9.63574L9.75152 10.0871L9.64392 10.0731ZM10.8765 10.2492L10.9785 9.68046L11.4005 9.75592L11.3838 9.85234L11.0777 9.79784L11.0554 9.92361L11.3404 9.97392L11.3237 10.0703L11.0386 10.0186L11.0106 10.1724L11.3279 10.2297L11.3111 10.3261L10.8779 10.2478L10.8765 10.2492ZM11.9609 10.4854L12.1188 9.9292L12.2991 9.98091C12.3676 10.0005 12.4109 10.0158 12.4305 10.027C12.4598 10.0438 12.4808 10.0703 12.4947 10.1039C12.5087 10.1388 12.5087 10.178 12.4961 10.2213C12.4864 10.2548 12.4724 10.2828 12.4528 10.3023C12.4332 10.3219 12.4123 10.3359 12.3899 10.3442C12.3676 10.3526 12.3452 10.3554 12.3242 10.354C12.2963 10.3512 12.2558 10.3429 12.2055 10.3289L12.1328 10.3079L12.0727 10.5175L11.9595 10.4854H11.9609ZM12.2055 10.0564L12.1607 10.2143L12.2222 10.2325C12.267 10.245 12.2963 10.2506 12.3131 10.2492C12.3298 10.2478 12.3438 10.2422 12.3564 10.2325C12.369 10.2227 12.3773 10.2087 12.3815 10.1919C12.3871 10.171 12.3857 10.1528 12.3787 10.136C12.3704 10.1193 12.3578 10.1067 12.341 10.0983C12.3284 10.0927 12.3019 10.0829 12.2614 10.0717L12.2069 10.0564H12.2055ZM12.5968 10.6671L12.7826 10.1193L13.016 10.1975C13.0747 10.2171 13.1152 10.2366 13.139 10.2548C13.1627 10.2744 13.1781 10.2981 13.1851 10.3289C13.1921 10.3596 13.1907 10.3904 13.1795 10.4239C13.1655 10.4644 13.1418 10.4952 13.1082 10.5133C13.0747 10.5315 13.0342 10.5371 12.9838 10.5273C13.0034 10.5497 13.0174 10.5706 13.0272 10.593C13.037 10.6154 13.0481 10.6517 13.0593 10.7034L13.0901 10.8334L12.9573 10.7886L12.9182 10.6419C12.9042 10.5902 12.893 10.5567 12.8874 10.5413C12.8804 10.5273 12.8721 10.5147 12.8623 10.5078C12.8511 10.4994 12.8343 10.491 12.8078 10.4826L12.7854 10.4756L12.7085 10.7048L12.5981 10.6671H12.5968ZM12.8148 10.3876L12.8972 10.4155C12.9503 10.4337 12.9838 10.4421 12.9992 10.4421C13.0146 10.4421 13.0272 10.4379 13.0383 10.4295C13.0495 10.4211 13.0579 10.4085 13.0635 10.3918C13.0705 10.3736 13.0705 10.3568 13.0635 10.3415C13.0579 10.3275 13.0453 10.3149 13.0286 10.3065C13.0202 10.3023 12.9936 10.2925 12.9489 10.2772L12.8623 10.2478L12.8148 10.3876ZM13.3486 10.6168C13.3695 10.5623 13.3961 10.5189 13.4282 10.4882C13.4506 10.4658 13.4772 10.4477 13.5079 10.4337C13.5372 10.4197 13.5666 10.4127 13.5959 10.4127C13.6351 10.4127 13.677 10.4197 13.7203 10.4365C13.8 10.4672 13.8531 10.5175 13.8824 10.586C13.9104 10.6545 13.9076 10.7313 13.8726 10.8194C13.8391 10.906 13.7874 10.9647 13.7217 10.9955C13.6546 11.0262 13.582 11.0262 13.5037 10.9955C13.424 10.9647 13.3695 10.9144 13.3416 10.8473C13.3136 10.7803 13.3164 10.7034 13.35 10.6168H13.3486ZM13.4618 10.6573C13.438 10.7188 13.4338 10.7705 13.4492 10.8124C13.4646 10.8543 13.4939 10.8851 13.5372 10.9018C13.5806 10.9186 13.6225 10.9172 13.663 10.8976C13.7035 10.8767 13.7357 10.8362 13.7594 10.7733C13.7832 10.7118 13.7888 10.6601 13.7734 10.6195C13.758 10.579 13.7287 10.5497 13.684 10.5315C13.6393 10.5133 13.5973 10.5147 13.5568 10.5343C13.5177 10.5539 13.4855 10.5958 13.4604 10.6573H13.4618ZM14.2975 11.0849L14.338 10.9955L14.5672 11.0989L14.4721 11.3085C14.44 11.3197 14.3995 11.3253 14.3492 11.3225C14.2989 11.3197 14.2527 11.3085 14.2094 11.2889C14.1549 11.2638 14.1116 11.2302 14.0809 11.1897C14.0501 11.1478 14.0347 11.1003 14.0333 11.0486C14.0333 10.9969 14.0431 10.9452 14.0655 10.8935C14.0906 10.839 14.1242 10.7942 14.1661 10.7621C14.208 10.7299 14.2569 10.7118 14.3114 10.709C14.3534 10.7062 14.3995 10.7174 14.4498 10.7397C14.5155 10.7691 14.5602 10.8068 14.5839 10.8501C14.6077 10.8949 14.6147 10.9424 14.6035 10.9969L14.4889 10.9689C14.4931 10.9396 14.4889 10.913 14.4749 10.8893C14.461 10.8655 14.4386 10.8459 14.4093 10.832C14.3631 10.811 14.3198 10.8096 14.2779 10.8264C14.2374 10.8431 14.2038 10.8809 14.1773 10.9396C14.1493 11.0025 14.1409 11.0556 14.1549 11.0989C14.1689 11.1422 14.1982 11.1743 14.243 11.1953C14.2653 11.2051 14.2891 11.2107 14.3156 11.2121C14.3422 11.2121 14.3659 11.2121 14.3883 11.2065L14.419 11.1394L14.2975 11.0849ZM14.6468 11.4804L14.9109 10.9661L15.129 11.0779C15.1835 11.1059 15.2212 11.131 15.2421 11.1534C15.2617 11.1757 15.2743 11.2023 15.2771 11.233C15.2799 11.2652 15.2743 11.2959 15.2575 11.3253C15.238 11.3644 15.21 11.3896 15.1751 11.4035C15.1401 11.4175 15.0982 11.4161 15.0493 11.3993C15.0647 11.4245 15.0758 11.4482 15.0828 11.4706C15.0898 11.4944 15.0954 11.5321 15.0996 11.5838L15.1108 11.7166L14.9864 11.6523L14.9696 11.5013C14.9641 11.4482 14.9585 11.4133 14.9529 11.3979C14.9487 11.3826 14.9417 11.37 14.9319 11.3602C14.9221 11.3504 14.9068 11.3392 14.8816 11.3281L14.8606 11.3169L14.7502 11.5321L14.6454 11.479L14.6468 11.4804ZM14.904 11.2372L14.9808 11.2764C15.0311 11.3015 15.0633 11.3155 15.0772 11.3183C15.0912 11.3211 15.1052 11.3183 15.1178 11.3113C15.1303 11.3043 15.1401 11.2931 15.1485 11.2778C15.1569 11.261 15.1597 11.2442 15.1569 11.2288C15.1527 11.2135 15.1429 11.1995 15.1276 11.1883C15.1192 11.1827 15.0954 11.1688 15.0521 11.1478L14.971 11.1059L14.904 11.2372ZM15.2743 11.8046L15.6558 12.024L15.7047 11.9388L15.4252 11.778L15.5035 11.6425L15.7536 11.7864L15.8025 11.7012L15.5524 11.5572L15.6167 11.4455L15.8864 11.6006L15.9353 11.5153L15.5636 11.3015L15.2757 11.8032L15.2743 11.8046ZM15.9213 11.9611L16.0233 12.0128C16.008 12.0492 16.0052 12.0799 16.0135 12.1064C16.0219 12.133 16.0401 12.1554 16.0708 12.1749C16.103 12.1945 16.1309 12.2043 16.1547 12.2001C16.1784 12.1973 16.1966 12.1861 16.2092 12.1679C16.2162 12.1568 16.219 12.1442 16.2176 12.1316C16.2162 12.119 16.2092 12.1051 16.1952 12.0883C16.1868 12.0771 16.1645 12.0533 16.1309 12.017C16.0862 11.9709 16.0597 11.9304 16.0513 11.8982C16.0387 11.8521 16.0443 11.8102 16.0694 11.7711C16.0848 11.7459 16.1072 11.7277 16.1351 11.7152C16.1631 11.7026 16.1938 11.6984 16.2274 11.704C16.2609 11.7096 16.2958 11.7249 16.3336 11.7487C16.3951 11.7878 16.4314 11.8311 16.4454 11.8773C16.4593 11.9234 16.4523 11.9709 16.4244 12.017L16.3238 11.9569C16.335 11.929 16.3378 11.9052 16.3322 11.8857C16.3252 11.8661 16.3084 11.8465 16.2805 11.8298C16.2525 11.8116 16.226 11.8032 16.2022 11.8046C16.1868 11.8046 16.1756 11.813 16.1673 11.8256C16.1603 11.8367 16.1589 11.8507 16.1631 11.8647C16.1687 11.8829 16.191 11.9136 16.2315 11.9555C16.2721 11.9974 16.3 12.0324 16.3154 12.0589C16.3308 12.0855 16.3378 12.1134 16.3378 12.1428C16.3378 12.1721 16.3266 12.2015 16.307 12.2322C16.2888 12.2602 16.2651 12.2811 16.2329 12.2951C16.2022 12.3091 16.1687 12.3133 16.1323 12.3077C16.096 12.3021 16.0569 12.2839 16.0149 12.2574C15.9535 12.2182 15.9157 12.1735 15.9003 12.1232C15.885 12.0743 15.892 12.0198 15.9213 11.9611ZM16.4873 12.3203C16.4565 12.3776 16.4468 12.4307 16.4593 12.481C16.4719 12.5313 16.5082 12.5774 16.5669 12.6193C16.6075 12.6487 16.6466 12.6668 16.6815 12.6752C16.7165 12.6836 16.7514 12.6808 16.7821 12.6682C16.8143 12.6557 16.8394 12.6347 16.859 12.6081C16.88 12.5788 16.8911 12.5494 16.8939 12.5201C16.8953 12.4908 16.8898 12.4628 16.8758 12.4349C16.8618 12.4069 16.8353 12.372 16.7975 12.3286C16.7598 12.2853 16.7374 12.2532 16.7332 12.235C16.729 12.221 16.7318 12.2071 16.7388 12.1959C16.7472 12.1833 16.7598 12.1777 16.7752 12.1777C16.7989 12.1777 16.8241 12.1861 16.852 12.2057C16.8786 12.2238 16.8953 12.2434 16.9009 12.2644C16.9065 12.2853 16.9023 12.3077 16.8898 12.3356L16.9876 12.3999C17.0169 12.3552 17.0267 12.3091 17.0155 12.2616C17.0043 12.2141 16.9694 12.1693 16.9107 12.1274C16.8744 12.1023 16.8394 12.0855 16.8059 12.0785C16.7724 12.0715 16.7416 12.0729 16.7137 12.0841C16.6857 12.0953 16.662 12.1134 16.6452 12.1372C16.6186 12.1749 16.6103 12.2168 16.6214 12.263C16.6284 12.2965 16.6536 12.337 16.6955 12.3859C16.7276 12.4237 16.7486 12.4488 16.757 12.46C16.7696 12.4768 16.7752 12.4921 16.7766 12.5047C16.7766 12.5173 16.7738 12.5285 16.7654 12.5397C16.7528 12.5564 16.7346 12.5662 16.7095 12.569C16.6843 12.5704 16.6578 12.5606 16.627 12.5397C16.5977 12.5187 16.5809 12.4963 16.5739 12.4684C16.5669 12.4418 16.5725 12.4111 16.5879 12.3762L16.4887 12.3189L16.4873 12.3203ZM17.1022 12.6319C17.1385 12.5858 17.1762 12.5522 17.2154 12.5313C17.2433 12.5159 17.2741 12.5061 17.3062 12.5019C17.3383 12.4977 17.3691 12.4991 17.397 12.5075C17.4348 12.5173 17.4725 12.5369 17.5088 12.5662C17.5759 12.6193 17.6136 12.6822 17.6206 12.7549C17.6276 12.8289 17.6025 12.9016 17.5452 12.9757C17.4879 13.0497 17.4222 13.0917 17.3495 13.1014C17.2768 13.1112 17.207 13.0903 17.1399 13.0386C17.0714 12.9855 17.0351 12.9226 17.0267 12.8499C17.0197 12.7772 17.0435 12.7046 17.1008 12.6319H17.1022ZM17.2 12.7032C17.1595 12.7549 17.1413 12.8038 17.1441 12.8485C17.1469 12.8932 17.1664 12.931 17.2042 12.9603C17.2405 12.9896 17.281 12.9994 17.3258 12.991C17.3705 12.9827 17.4124 12.9533 17.4543 12.9002C17.4949 12.8485 17.5144 12.7996 17.5116 12.7563C17.5088 12.7129 17.4893 12.6752 17.4501 12.6459C17.4124 12.6165 17.3719 12.6053 17.3272 12.6123C17.2838 12.6207 17.2405 12.6501 17.2 12.7032Z" fill="#007C29"/>
<path fill-rule="evenodd" clip-rule="evenodd" d="M13.86 9.52393L13.9369 9.76149H14.1856L13.9844 9.90823L14.0613 10.1458L13.86 9.99767L13.6574 10.1458L13.7343 9.90823L13.533 9.76149H13.7832L13.86 9.52393Z" fill="white"/>
<path fill-rule="evenodd" clip-rule="evenodd" d="M7.14524 10.6792L7.2221 10.9168H7.47225L7.26962 11.0635L7.34788 11.3011L7.14524 11.1529L6.94261 11.3011L7.02087 11.0635L6.81824 10.9168H7.06838L7.14524 10.6792Z" fill="white"/>
<path fill-rule="evenodd" clip-rule="evenodd" d="M7.63157 13.2339L7.70843 13.4729L7.95858 13.4715L7.75595 13.6182L7.8342 13.8558L7.63157 13.709L7.42894 13.8558L7.5072 13.6182L7.30457 13.4715L7.55471 13.4729L7.63157 13.2339Z" fill="white"/>
<path fill-rule="evenodd" clip-rule="evenodd" d="M9.50554 15.0742L9.5838 15.3118H9.83255L9.63131 15.4585L9.70817 15.6961L9.50554 15.5494L9.30431 15.6961L9.38117 15.4585L9.17993 15.3118H9.42868L9.50554 15.0742Z" fill="white"/>
<path fill-rule="evenodd" clip-rule="evenodd" d="M12.0335 14.5293L12.1104 14.7683L12.3606 14.7669L12.1579 14.9136L12.2348 15.1512L12.0335 15.0044L11.8309 15.1512L11.9092 14.9136L11.7065 14.7669L11.9567 14.7683L12.0335 14.5293Z" fill="white"/>
<path fill-rule="evenodd" clip-rule="evenodd" d="M16.2064 13.8364L16.2833 14.074H16.5334L16.3308 14.2207L16.409 14.4583L16.2064 14.3102L16.0038 14.4583L16.082 14.2207L15.8794 14.074H16.1295L16.2064 13.8364Z" fill="white"/>
<path fill-rule="evenodd" clip-rule="evenodd" d="M9.67605 11.9736L9.74173 12.1749H9.95275L9.78086 12.2992L9.84654 12.4991L9.67605 12.3747L9.50556 12.4991L9.57124 12.2992L9.39935 12.1749H9.61177L9.67605 11.9736Z" fill="white"/>
<path fill-rule="evenodd" clip-rule="evenodd" d="M6.99435 13.8096L7.06004 14.0108H7.27105L7.10056 14.1338L7.16485 14.335L6.99435 14.2106L6.82386 14.335L6.88955 14.1338L6.71906 14.0108H6.93007L6.99435 13.8096Z" fill="white"/>
<path fill-rule="evenodd" clip-rule="evenodd" d="M8.83896 13.8447L8.90464 14.046H9.11566L8.94517 14.1689L9.01085 14.3702L8.83896 14.2458L8.66847 14.3702L8.73415 14.1689L8.56366 14.046H8.77468L8.83896 13.8447Z" fill="white"/>
<path fill-rule="evenodd" clip-rule="evenodd" d="M12.0602 12.7866L12.1258 12.9879L12.3368 12.9865L12.165 13.1108L12.2306 13.3121L12.0602 13.1877L11.8897 13.3121L11.9553 13.1108L11.7849 12.9865L11.9959 12.9879L12.0602 12.7866Z" fill="white"/>
<path fill-rule="evenodd" clip-rule="evenodd" d="M12.6093 13.3306L12.675 13.5318L12.886 13.5304L12.7156 13.6548L12.7798 13.856L12.6093 13.7302L12.4389 13.856L12.5045 13.6548L12.334 13.5304L12.5451 13.5318L12.6093 13.3306Z" fill="white"/>
<path fill-rule="evenodd" clip-rule="evenodd" d="M11.2342 13.3989L11.2985 13.6002H11.5095L11.339 13.7245L11.4047 13.9244L11.2342 13.8L11.0623 13.9244L11.128 13.7245L10.9575 13.6002H11.1685L11.2342 13.3989Z" fill="white"/>
<path fill-rule="evenodd" clip-rule="evenodd" d="M13.4198 11.3643L13.4841 11.5655L13.6951 11.5641L13.5246 11.6885L13.5903 11.8897L13.4198 11.7653L13.2479 11.8897L13.3136 11.6885L13.1431 11.5641L13.3541 11.5655L13.4198 11.3643Z" fill="white"/>
<path fill-rule="evenodd" clip-rule="evenodd" d="M8.62797 14.5518L8.67968 14.7111H8.84597L8.71042 14.8089L8.76352 14.9682L8.62797 14.8704L8.49242 14.9682L8.54412 14.8089L8.40857 14.7111H8.57626L8.62797 14.5518Z" fill="white"/>
<path fill-rule="evenodd" clip-rule="evenodd" d="M13.2745 15.2798L13.3248 15.4391L13.4925 15.4377L13.357 15.5369L13.4087 15.6948L13.2745 15.597L13.139 15.6948L13.1907 15.5369L13.0551 15.4377L13.2228 15.4391L13.2745 15.2798Z" fill="white"/>
<path fill-rule="evenodd" clip-rule="evenodd" d="M14.3086 15.4351L14.3603 15.5944H14.5266L14.3911 15.6922L14.4428 15.8515L14.3086 15.7523L14.1731 15.8515L14.2248 15.6922L14.0892 15.5944H14.2569L14.3086 15.4351Z" fill="white"/>
<path fill-rule="evenodd" clip-rule="evenodd" d="M15.0143 15.2939L15.066 15.4533H15.2337L15.0982 15.5511L15.1499 15.7104L15.0143 15.6112L14.8802 15.7104L14.9319 15.5511L14.7963 15.4533H14.964L15.0143 15.2939Z" fill="white"/>
<path fill-rule="evenodd" clip-rule="evenodd" d="M15.5971 15.2939L15.6488 15.4533H15.8165L15.6809 15.5511L15.7326 15.7104L15.5971 15.6112L15.4629 15.7104L15.5146 15.5511L15.3791 15.4533H15.5454L15.5971 15.2939Z" fill="white"/>
<path fill-rule="evenodd" clip-rule="evenodd" d="M17.0826 13.9956L17.1343 14.1549H17.302L17.1665 14.2527L17.2182 14.412L17.0826 14.3128L16.9485 14.412L17.0002 14.2527L16.8646 14.1549H17.0309L17.0826 13.9956Z" fill="white"/>
<path fill-rule="evenodd" clip-rule="evenodd" d="M12.0545 16.7441L12.0881 16.849L12.1985 16.8476L12.109 16.9118L12.144 17.0166L12.0545 16.9524L11.9665 17.0166L12 16.9118L11.912 16.8476L12.021 16.849L12.0545 16.7441Z" fill="white"/>
<path fill-rule="evenodd" clip-rule="evenodd" d="M11.6772 13.8208L11.7191 13.9536L11.8575 13.9522L11.7457 14.0332L11.789 14.166L11.6772 14.0835L11.5654 14.166L11.6087 14.0332L11.4955 13.9522L11.6339 13.9536L11.6772 13.8208Z" fill="white"/>
<path fill-rule="evenodd" clip-rule="evenodd" d="M8.1738 12.96L8.21712 13.0913H8.35547L8.24228 13.1724L8.2856 13.3037L8.1738 13.2213L8.06201 13.3037L8.10533 13.1724L7.99353 13.0913H8.13188L8.1738 12.96Z" fill="white"/>
<path fill-rule="evenodd" clip-rule="evenodd" d="M13.7622 15.9702L13.8279 16.1714H14.0389L13.867 16.2944L13.9327 16.4957L13.7622 16.3713L13.5917 16.4957L13.6574 16.2944L13.4869 16.1714H13.698L13.7622 15.9702Z" fill="white"/>
<path fill-rule="evenodd" clip-rule="evenodd" d="M15.0144 15.8179L15.0801 16.0191H15.2911L15.1206 16.1435L15.1863 16.3433L15.0144 16.2189L14.8439 16.3433L14.9096 16.1435L14.7391 16.0191H14.9501L15.0144 15.8179Z" fill="white"/>
<path fill-rule="evenodd" clip-rule="evenodd" d="M15.0143 16.5332L15.066 16.6925H15.2337L15.0982 16.7903L15.1499 16.9496L15.0143 16.8504L14.8802 16.9496L14.9319 16.7903L14.7963 16.6925H14.964L15.0143 16.5332Z" fill="white"/>
<path fill-rule="evenodd" clip-rule="evenodd" d="M16.1547 14.9722L16.2204 15.1734H16.4314L16.2609 15.2978L16.3266 15.4976L16.1547 15.3732L15.9842 15.4976L16.0499 15.2978L15.8794 15.1734H16.0904L16.1547 14.9722Z" fill="white"/>
<path fill-rule="evenodd" clip-rule="evenodd" d="M16.451 14.4971L16.5152 14.6983H16.7263L16.5558 14.8213L16.6214 15.0225L16.451 14.8981L16.2791 15.0225L16.3447 14.8213L16.1743 14.6983H16.3853L16.451 14.4971Z" fill="white"/>
</g>
</g>
<rect x="0.25" y="0.25" width="23.5" height="23.5" rx="11.75" stroke="#E5E3E1" stroke-width="0.5"/>
<defs>
<clipPath id="clip0_16335_10762">
<rect width="24" height="24" rx="12" fill="white"/>
</clipPath>
</defs>
</svg>
