<svg width="24" height="24" viewBox="0 0 24 24" fill="none" xmlns="http://www.w3.org/2000/svg">
<g clip-path="url(#clip0_16335_5368)">
<path d="M20.4851 20.4853C25.1714 15.799 25.1714 8.20101 20.4851 3.51472C15.7988 -1.17157 8.20081 -1.17157 3.51452 3.51472C-1.17177 8.20101 -1.17177 15.799 3.51452 20.4853C8.20081 25.1716 15.7988 25.1716 20.4851 20.4853Z" fill="white"/>
<mask id="mask0_16335_5368" style="mask-type:luminance" maskUnits="userSpaceOnUse" x="-1" y="0" width="25" height="24">
<path d="M20.4851 20.4853C25.1714 15.799 25.1714 8.20101 20.4851 3.51472C15.7988 -1.17157 8.20081 -1.17157 3.51452 3.51472C-1.17177 8.20101 -1.17177 15.799 3.51452 20.4853C8.20081 25.1716 15.7988 25.1716 20.4851 20.4853Z" fill="white"/>
</mask>
<g mask="url(#mask0_16335_5368)">
<path d="M36 0H0V24H36V0Z" fill="white"/>
<path fill-rule="evenodd" clip-rule="evenodd" d="M30.6282 0H36V3.58169L5.37184 24H0V20.4183L30.6282 0Z" fill="#FF0000"/>
<path fill-rule="evenodd" clip-rule="evenodd" d="M36 4.83386V24H7.2514L36 4.83386Z" fill="#007C29"/>
<path fill-rule="evenodd" clip-rule="evenodd" d="M0 0H28.7486L0 19.1662V0Z" fill="#003399"/>
<path fill-rule="evenodd" clip-rule="evenodd" d="M7.8663 8.93402C8.97309 8.93402 9.87585 8.03126 9.87585 6.92447C9.87585 5.81768 8.97309 4.91492 7.8663 4.91492C6.75951 4.91492 5.85675 5.81768 5.85675 6.92447C5.85675 8.03126 6.75951 8.93402 7.8663 8.93402Z" fill="#FED700"/>
<path fill-rule="evenodd" clip-rule="evenodd" d="M10.1735 6.30676L11.8575 6.92444L10.1735 7.54212C10.2266 7.34508 10.2546 7.13825 10.2546 6.92444C10.2546 6.71063 10.2266 6.5038 10.1735 6.30676Z" fill="#FED700"/>
<path fill-rule="evenodd" clip-rule="evenodd" d="M9.55446 5.23629C9.2624 4.94423 8.89486 4.72762 8.48401 4.61722L9.86051 3.46851L9.55446 5.23629Z" fill="#FED700"/>
<path fill-rule="evenodd" clip-rule="evenodd" d="M9.55444 5.23627L11.3222 4.92883L10.1735 6.30533C10.0631 5.89448 9.84651 5.52695 9.55584 5.23488L9.55444 5.23627Z" fill="#FED700"/>
<path fill-rule="evenodd" clip-rule="evenodd" d="M7.24866 4.61717L7.86634 2.93323L8.48401 4.61717C8.28697 4.56407 8.08015 4.53612 7.86634 4.53612C7.65252 4.53612 7.4457 4.56407 7.24866 4.61717Z" fill="#FED700"/>
<path fill-rule="evenodd" clip-rule="evenodd" d="M5.55912 6.30676L3.87518 6.92444L5.55912 7.54212C5.50602 7.34508 5.47807 7.13825 5.47807 6.92444C5.47807 6.71063 5.50602 6.5038 5.55912 6.30676Z" fill="#FED700"/>
<path fill-rule="evenodd" clip-rule="evenodd" d="M6.17677 5.23629C6.46884 4.94423 6.83637 4.72762 7.24723 4.61722L5.87073 3.46851L6.17677 5.23629Z" fill="#FED700"/>
<path fill-rule="evenodd" clip-rule="evenodd" d="M6.17679 5.23627L4.409 4.92883L5.55771 6.30533C5.66811 5.89448 5.88472 5.52695 6.17539 5.23488L6.17679 5.23627Z" fill="#FED700"/>
<path fill-rule="evenodd" clip-rule="evenodd" d="M9.55446 8.61389C9.2624 8.90596 8.89486 9.12257 8.48401 9.23297L9.86051 10.3817L9.55446 8.61389Z" fill="#FED700"/>
<path fill-rule="evenodd" clip-rule="evenodd" d="M9.55444 8.61398L11.3222 8.92142L10.1735 7.54492C10.0631 7.95578 9.84651 8.32331 9.55584 8.61538L9.55444 8.61398Z" fill="#FED700"/>
<path fill-rule="evenodd" clip-rule="evenodd" d="M7.24866 9.23303L7.86634 10.917L8.48401 9.23303C8.28697 9.28614 8.08015 9.31409 7.86634 9.31409C7.65252 9.31409 7.4457 9.28614 7.24866 9.23303Z" fill="#FED700"/>
<path fill-rule="evenodd" clip-rule="evenodd" d="M6.17677 8.61389C6.46884 8.90596 6.83637 9.12257 7.24723 9.23297L5.87073 10.3817L6.17677 8.61389Z" fill="#FED700"/>
<path fill-rule="evenodd" clip-rule="evenodd" d="M6.17679 8.61398L4.409 8.92142L5.55771 7.54492C5.66811 7.95578 5.88472 8.32331 6.17539 8.61538L6.17679 8.61398Z" fill="#FED700"/>
</g>
</g>
<rect x="0.25" y="0.25" width="23.5" height="23.5" rx="11.75" stroke="#E5E3E1" stroke-width="0.5"/>
<defs>
<clipPath id="clip0_16335_5368">
<rect width="24" height="24" rx="12" fill="white"/>
</clipPath>
</defs>
</svg>
