<svg width="48" height="48" viewBox="0 0 48 48" fill="none" xmlns="http://www.w3.org/2000/svg">
<path d="M19.491 27.2605C18.971 27.2605 18.531 26.8605 18.491 26.3305C18.451 25.7805 18.861 25.3005 19.411 25.2605L30.031 24.4705C30.571 24.4305 31.061 24.8405 31.101 25.3905C31.141 25.9405 30.731 26.4205 30.181 26.4605L19.561 27.2505C19.561 27.2505 19.511 27.2505 19.481 27.2505L19.491 27.2605Z" fill="#DF0000"/>
<path d="M33.9803 11.8699L31.7203 13.8199L29.1903 12.0799C28.7403 11.7699 28.1103 11.8799 27.8003 12.3399C27.4903 12.7999 27.6003 13.4199 28.0603 13.7299L31.2203 15.8999C31.3903 16.0199 31.5903 16.0799 31.7903 16.0799C32.0203 16.0799 32.2603 15.9999 32.4403 15.8399L34.8203 13.7799L39.4203 15.6499L36.8003 12.4299L35.0003 11.6999C34.6503 11.5599 34.2503 11.6199 33.9703 11.8699H33.9803Z" fill="#DF0000"/>
<path d="M12.5808 24.4903C11.3208 24.5803 10.3808 25.6803 10.4708 26.9403C10.5608 28.2003 11.6608 29.1403 12.9208 29.0503C14.1808 28.9603 15.1208 27.8603 15.0308 26.6003C14.9408 25.3403 13.8408 24.4003 12.5808 24.4903Z" fill="#323232"/>
<path d="M36.9695 22.2101C35.7095 22.3001 34.7695 23.4001 34.8595 24.6601C34.9495 25.9201 36.0495 26.8601 37.3095 26.7701C38.5695 26.6801 39.5095 25.5801 39.4195 24.3201C39.3295 23.0601 38.2295 22.1201 36.9695 22.2101Z" fill="#323232"/>
<path d="M46.0004 13.67C46.1004 12.75 44.2904 11.26 42.6304 11.66C41.5904 11.91 40.6104 12.91 40.6104 13.93L37.4904 10.1C36.5904 8.99995 35.2004 8.39995 33.7604 8.50995L13.3204 10.03C11.8804 10.14 10.5904 10.93 9.87043 12.15L7.39043 16.35C7.21043 15.36 6.11043 14.55 5.07043 14.46C3.36043 14.31 1.80043 16.05 2.03043 16.94C2.29043 17.94 4.96043 18.5 6.44043 17.97L4.84043 20.69C4.80043 20.77 4.78043 20.85 4.76043 20.93C4.36043 21.62 4.15043 22.41 4.22043 23.24L4.84043 31.53C4.95043 33.03 5.91043 34.2799 7.23043 34.9399V37.08C7.23043 38.28 8.21043 39.2599 9.41043 39.2599H12.7104C13.9104 39.2599 14.8904 38.28 14.8904 37.08V35.0499L34.5204 33.59C34.5204 33.59 34.5104 33.63 34.5104 33.65L34.4904 36.7799C34.4904 38.32 35.4504 39.5299 36.6704 39.5299H39.9704C41.1904 39.5299 42.1504 38.32 42.1504 36.7799L42.1304 32.93C44.1504 32.37 45.5704 30.55 45.4204 28.52L44.8004 20.23C44.7304 19.32 44.3604 18.51 43.7904 17.86C43.7804 17.84 43.7804 17.82 43.7604 17.81L41.7504 15.34C43.2804 15.69 45.9004 14.73 46.0204 13.69L46.0004 13.67ZM12.8704 37.07C12.8704 37.17 12.7904 37.25 12.6904 37.25H9.39043C9.29043 37.25 9.21043 37.17 9.21043 37.07V35.43C9.21043 35.43 9.28043 35.4399 9.32043 35.4399C9.44043 35.4399 9.56043 35.44 9.69043 35.43L12.8704 35.1899V37.07ZM39.9504 37.5099L36.7204 37.5299C36.6604 37.4899 36.4704 37.2299 36.4704 36.77L36.4904 33.65C36.4904 33.57 36.4604 33.5 36.4504 33.43L40.1104 33.16L40.1304 36.77C40.1304 37.2299 39.9404 37.49 39.9504 37.52V37.5099ZM41.0104 31.08L9.55043 33.43C8.14043 33.53 6.91043 32.61 6.82043 31.37L6.20043 23.08C6.11043 21.84 7.18043 20.75 8.60043 20.64L40.0604 18.29C41.4704 18.19 42.7004 19.11 42.7904 20.35L43.4104 28.6399C43.5004 29.8799 42.4304 30.9699 41.0104 31.08ZM39.9004 16.31L8.44043 18.66C8.44043 18.66 8.37043 18.67 8.34043 18.68L11.5904 13.18C11.9804 12.52 12.6804 12.09 13.4604 12.03L33.9004 10.51C34.6904 10.46 35.4404 10.77 35.9204 11.37L39.9504 16.33C39.9504 16.33 39.9104 16.33 39.9004 16.33V16.31Z" fill="#323232"/>
</svg>
