<svg width="48" height="48" viewBox="0 0 48 48" fill="none" xmlns="http://www.w3.org/2000/svg">
<path d="M19.0969 31.0843L16.9261 28.9134C16.5473 28.5346 15.9331 28.5346 15.5543 28.9134L4.00729 40.4605C3.62848 40.8393 3.62848 41.4535 4.00729 41.8323L6.1781 44.0031C6.55691 44.3819 7.17108 44.3819 7.54989 44.0031L19.0969 32.456C19.4758 32.0772 19.4758 31.4631 19.0969 31.0843Z" fill="#8DE2E0"/>
<path d="M41.9505 6.10007C41.9505 6.10007 41.9405 6.09007 41.9305 6.08007C41.9305 6.07007 41.8905 6.04007 41.8705 6.02007L41.8505 6.00007C41.0805 5.28007 34.1305 -0.849926 27.6405 5.64007C24.5405 8.74007 22.6005 14.7801 21.0305 19.6201C20.4105 21.5601 19.8705 23.2401 19.3505 24.4501C18.8105 25.7101 18.2705 27.0601 17.7605 28.3401L17.6305 28.2101C16.8605 27.4401 15.6105 27.4401 14.8505 28.2101L3.31047 39.7501C2.94047 40.1201 2.73047 40.6201 2.73047 41.1401C2.73047 41.6701 2.94047 42.1601 3.31047 42.5301L5.48047 44.7001C5.86047 45.0801 6.37047 45.2801 6.87047 45.2801C7.37047 45.2801 7.88047 45.0901 8.26047 44.7001L19.8005 33.1601C20.1705 32.7901 20.3805 32.2901 20.3805 31.7701C20.3805 31.2401 20.1805 30.7501 19.8005 30.3801L19.6205 30.2001C20.8905 29.6901 22.2505 29.1501 23.5005 28.6101C24.7105 28.0901 26.3805 27.5501 28.3205 26.9301C33.1705 25.3701 39.2005 23.4201 42.3105 20.3201C48.8005 13.8301 42.6705 6.88007 41.9505 6.11007V6.10007ZM6.87047 43.2701L4.72047 41.1601L16.2205 29.6201L18.3905 31.7501L6.87047 43.2701ZM22.9105 20.2801C22.9105 20.2801 22.9205 20.2401 22.9305 20.2301C24.4205 15.5901 26.2805 9.81007 29.0505 7.05007C31.6205 4.48007 34.2705 4.39007 36.3905 5.04007C34.8205 5.29007 33.0705 6.04007 31.3605 7.75007C29.2305 9.88007 25.9005 15.1801 22.9105 20.2901V20.2801ZM32.7805 9.16007C35.2905 6.65007 37.8305 6.72007 39.3605 7.12007L23.9005 22.5801C27.0005 17.1901 30.6105 11.3301 32.7905 9.16007H32.7805ZM40.8005 8.49007C41.2205 10.0101 41.3505 12.6001 38.7805 15.1701C36.5305 17.4201 30.1905 21.2801 25.0705 24.2201L40.8005 8.49007ZM40.9005 18.8901C38.1405 21.6501 32.3605 23.5201 27.7105 25.0101C27.6905 25.0101 27.6805 25.0201 27.6605 25.0301C32.6305 22.1201 38.0405 18.7401 40.2005 16.5701C41.9105 14.8601 42.6605 13.1101 42.9105 11.5401C43.5705 13.6601 43.4805 16.3101 40.9005 18.8801V18.8901Z" fill="#323232"/>
</svg>
