<svg width="70" height="70" viewBox="0 0 70 70" fill="none" xmlns="http://www.w3.org/2000/svg">
<g clip-path="url(#clip0_15605_1544)">
<path d="M36.5432 9.25926L35.0617 9.17695L35.1852 6.70782L36.6255 6.79012C37.4897 6.83128 37.9835 7.3251 37.9424 8.06584C37.9012 8.84774 37.3251 9.30041 36.5021 9.25926H36.5432ZM37.9424 11.7695C37.9835 10.9465 37.4897 10.4115 36.6255 10.3704L34.9794 10.2881L34.856 12.9218L36.4609 13.0041C37.3663 13.0453 37.9012 12.5514 37.9424 11.7695ZM44.0329 14.8971C44.9383 15.3086 45.7202 14.9383 46.0905 14.1152L47.3663 11.2346C47.7366 10.4115 47.4897 9.58848 46.5844 9.17695C45.679 8.76543 44.8971 9.1358 44.5267 9.95885L43.251 12.8395C42.8807 13.6626 43.1276 14.4856 44.0329 14.8971ZM14.3621 42.6749C14.0329 41.7695 13.251 41.4403 12.3868 41.7695L9.42387 42.8395C8.55967 43.1687 8.14815 43.9095 8.51852 44.8148C8.84774 45.7202 9.62963 46.0494 10.4938 45.7202L13.4568 44.6502C14.321 44.321 14.7325 43.5802 14.3621 42.6749ZM11.3169 36.6667C12.2634 36.6667 12.8807 36.0494 12.8807 35.0617V33.7449H9.75309V35.0617C9.75309 36.0494 10.3704 36.7078 11.3169 36.7078V36.6667ZM70 34.9794C70 54.2798 54.321 69.9588 35.0206 69.9588C15.7202 69.9588 0 54.2798 0 34.9794C0 15.679 15.679 0 34.9794 0C54.2798 0 69.9588 15.679 69.9588 34.9794H70ZM55.679 23.3745C54.1152 24.0329 53.5802 25.4732 54.2387 26.9959C54.8971 28.5185 56.2963 29.177 57.8601 28.5185L63.1687 26.2963L62.6749 25.1029L57.3663 27.3251C56.5021 27.6955 55.7202 27.4074 55.3498 26.5432C54.9794 25.679 55.3498 24.9383 56.214 24.5679L61.5226 22.3457L61.0288 21.1523L55.7202 23.3745H55.679ZM54.0741 12.5103L48.0658 18.3539L48.8889 19.2181L53.0453 15.144L51.1523 21.5638L51.893 22.3457L57.9012 16.5021L57.037 15.6379L52.963 19.6296L54.8148 13.3745L54.0329 12.5514L54.0741 12.5103ZM43.5391 15.9671C45.1029 16.6667 46.5844 16.1728 47.284 14.6502L48.5597 11.7695C49.2593 10.2469 48.642 8.80658 47.0782 8.107C45.4321 7.36626 44.0329 7.90123 43.3333 9.42387L42.0576 12.3045C41.358 13.8272 41.9753 15.2675 43.5391 15.9671ZM33.4979 13.9095L36.5844 14.0741C38.107 14.1564 39.2181 13.3333 39.3004 11.893C39.3416 10.8642 38.8889 10.1646 37.9835 9.83539C38.7654 9.54733 39.2593 8.93004 39.3004 8.02469C39.3827 6.70782 38.3539 5.80247 36.8313 5.72016L33.9506 5.55556L33.4979 13.9095ZM5.67901 33.7037H8.60082V35.144C8.60082 36.7901 9.67078 38.0247 11.358 38.0247C12.963 38.0247 14.0329 36.8313 14.0741 35.1852V32.428H5.72016V33.7449L5.67901 33.7037ZM10.9465 46.9959L13.9095 45.9259C15.4733 45.3498 16.0905 43.9095 15.4733 42.3045C14.856 40.6173 13.4979 40 11.9342 40.5761L8.97119 41.6461C7.40741 42.2222 6.79012 43.6626 7.40741 45.2675C7.98354 46.8724 9.38272 47.572 10.9877 46.9959H10.9465ZM11.6872 52.8395L18.4362 47.9012L17.6543 46.8313L10.9053 51.7695L11.6872 52.8395ZM24.2798 53.251L23.3333 52.5103L19.8354 56.9959L20.823 50.535L19.9177 49.8354L14.7737 56.4198L15.7202 57.1605L19.3004 52.5926L18.3128 59.177L19.177 59.8354L24.321 53.251H24.2798ZM30.9877 55.7613L25.7613 54.0329L25.3909 55.144L27.3663 55.8025L25.1029 62.6337L26.3374 63.0453L28.6008 56.214L30.5761 56.8724L30.9465 55.7613H30.9877ZM38.107 61.9342C38.107 60.4115 37.037 59.9177 36.0082 59.5473L34.7325 59.0947C34.1564 58.8889 33.8272 58.4774 33.8272 58.0658C33.8272 57.4486 34.321 56.9959 35.1852 56.9547C36.0494 56.9547 36.5844 57.4897 36.5844 58.2305V58.4774H37.9012V58.3128C37.9012 56.8313 36.7901 55.9259 35.1852 55.9259C33.5802 55.9259 32.5926 56.9547 32.5926 58.2305C32.5926 59.3827 33.3333 60.0412 34.4033 60.4115L35.6379 60.8642C36.3374 61.1111 36.7901 61.4815 36.7901 62.1399C36.7901 62.8807 36.2551 63.4156 35.2675 63.4156C34.321 63.4156 33.7449 62.9218 33.7449 62.1399V61.8519H32.4691V62.0988C32.4691 63.5802 33.6626 64.4856 35.3498 64.4856C37.037 64.4856 38.107 63.4568 38.107 61.9753V61.9342ZM56.7901 53.4568C52.4691 48.8889 47.1605 45.2263 41.1934 42.8807L39.3827 42.1399C38.4362 41.7284 37.8189 40.823 37.8189 39.7942C37.9424 35.8848 47.1193 36.7078 48.0658 34.856L48.2304 34.5267C46.3374 32.8807 44.1152 31.6872 41.6461 30.9877C41.6461 31.1111 41.5226 31.5226 42.0576 32.3868C42.5926 33.251 41.4815 34.6914 39.7942 33.1687L39.6296 33.0453C27.4897 21.893 21.8519 29.2593 13.6214 16.2963C13.5391 16.1728 13.4568 16.1317 13.3333 16.214C13.2099 16.2963 13.1687 16.3786 13.2099 16.5021C19.7119 32.1811 33.0453 28.8889 34.6091 43.4979C34.6914 44.0329 35.0617 44.4856 35.6379 44.5679C43.0453 45.7202 50.2469 48.8066 56.5021 53.8272C56.5021 53.8272 56.5844 53.8272 56.6255 53.8272C56.7078 53.8272 56.749 53.8272 56.7901 53.7449C56.8313 53.6626 56.8724 53.5391 56.7901 53.4568ZM64.4444 34.0329C64.4033 32.428 63.3745 31.4403 62.0988 31.4815C60.9465 31.4815 60.3292 32.2634 59.9177 33.3333L59.465 34.5679C59.2181 35.2675 58.8889 35.7202 58.1893 35.7613C57.4486 35.7613 56.9136 35.2675 56.8724 34.2387C56.8724 33.2922 57.3251 32.6749 58.107 32.6749H58.3951V31.358H58.1481C56.6667 31.3992 55.7613 32.6337 55.8025 34.2798C55.8436 35.9671 56.9136 37.037 58.3951 36.9959C59.9177 36.9547 60.3704 35.8848 60.7407 34.856L61.1934 33.5802C61.3992 33.0041 61.8107 32.6749 62.2222 32.6749C62.8395 32.6749 63.3333 33.1276 63.3333 33.9918C63.3333 34.856 62.8395 35.3909 62.0988 35.4321H61.8519L61.893 36.749H62.0576C63.5391 36.7078 64.4444 35.5556 64.4033 33.9918L64.4444 34.0329Z" fill="#DF0000"/>
</g>
<defs>
<clipPath id="clip0_15605_1544">
<rect width="70" height="70" fill="white"/>
</clipPath>
</defs>
</svg>
