<svg width="48" height="48" viewBox="0 0 48 48" fill="none" xmlns="http://www.w3.org/2000/svg">
<path d="M7.49977 21.4703H16.6698C17.2198 21.4703 17.6698 21.0203 17.6698 20.4703V19.7003C17.6498 17.6403 16.5098 15.8403 14.8298 14.8703C15.3998 14.2203 15.7598 13.3803 15.7598 12.4503C15.7598 10.4203 14.1098 8.78027 12.0898 8.78027C10.0698 8.78027 8.41977 10.4303 8.41977 12.4503C8.41977 13.3803 8.77977 14.2203 9.34977 14.8703C7.66977 15.8403 6.51977 17.6403 6.50977 19.7103V20.4703C6.50977 21.0203 6.95977 21.4703 7.50977 21.4703H7.49977ZM12.0798 10.7703C12.9998 10.7703 13.7498 11.5203 13.7498 12.4403C13.7498 13.3603 12.9998 14.1103 12.0798 14.1103C11.1598 14.1103 10.4098 13.3603 10.4098 12.4403C10.4098 11.5203 11.1598 10.7703 12.0798 10.7703ZM12.0798 16.1203C13.9598 16.1403 15.5198 17.6203 15.6598 19.4703H8.50977C8.64977 17.6203 10.2098 16.1403 12.0798 16.1203Z" fill="#323232"/>
<path d="M20.2598 11.6704H26.9398C27.4898 11.6704 27.9398 11.2204 27.9398 10.6704C27.9398 10.1204 27.4898 9.67041 26.9398 9.67041H20.2598C19.7098 9.67041 19.2598 10.1204 19.2598 10.6704C19.2598 11.2204 19.7098 11.6704 20.2598 11.6704Z" fill="#323232"/>
<path d="M20.2598 16.79H26.9398C27.4898 16.79 27.9398 16.34 27.9398 15.79C27.9398 15.24 27.4898 14.79 26.9398 14.79H20.2598C19.7098 14.79 19.2598 15.24 19.2598 15.79C19.2598 16.34 19.7098 16.79 20.2598 16.79Z" fill="#323232"/>
<path d="M44.96 41.1202L37.41 33.5702C38.68 31.9902 39.45 29.9802 39.45 27.8002C39.45 23.2102 36.08 19.4102 31.68 18.7002V7.74018C31.68 6.33018 30.53 5.18018 29.12 5.18018H5.31C3.9 5.18018 2.75 6.33018 2.75 7.74018V37.4102C2.75 38.8202 3.9 39.9702 5.31 39.9702H29.12C30.53 39.9702 31.68 38.8202 31.68 37.4102V36.9002C33.3 36.6402 34.77 35.9702 36 34.9802L43.55 42.5302C43.75 42.7302 44 42.8202 44.26 42.8202C44.52 42.8202 44.77 42.7202 44.97 42.5302C45.36 42.1402 45.36 41.5102 44.97 41.1202H44.96ZM29.12 37.9702H5.31C5 37.9702 4.75 37.7202 4.75 37.4102V7.74018C4.75 7.43018 5 7.18018 5.31 7.18018H29.12C29.43 7.18018 29.68 7.43018 29.68 7.74018V18.6002C26.38 18.7902 23.54 20.7202 22.07 23.4902H7.5C6.95 23.4902 6.5 23.9402 6.5 24.4902V35.0302C6.5 35.5802 6.95 36.0302 7.5 36.0302H26.08C27.17 36.5802 28.39 36.9202 29.68 37.0002V37.4202C29.68 37.7302 29.43 37.9802 29.12 37.9802V37.9702ZM23.44 34.0202H8.5V25.4802H21.31C21.12 26.2202 21.01 26.9902 21.01 27.7902C21.01 30.1902 21.94 32.3802 23.45 34.0202H23.44ZM30.22 35.0202C26.24 35.0202 23 31.7802 23 27.8002C23 23.8202 26.24 20.5802 30.22 20.5802C34.2 20.5802 37.44 23.8202 37.44 27.8002C37.44 31.7802 34.2 35.0202 30.22 35.0202Z" fill="#323232"/>
<path fill-rule="evenodd" clip-rule="evenodd" d="M28.4807 32.9299C29.0307 33.1199 29.6107 33.2199 30.2207 33.2199C33.2107 33.2199 35.6407 30.7899 35.6407 27.7999C35.6407 25.8399 34.5907 24.1199 33.0207 23.1699C33.3007 23.9699 33.4507 24.8199 33.4507 25.7199C33.4507 29.0199 31.3707 31.8199 28.4707 32.9399L28.4807 32.9299Z" fill="#8DE2E0"/>
</svg>
