<svg width="48" height="48" viewBox="0 0 48 48" fill="none" xmlns="http://www.w3.org/2000/svg">
<path d="M28.6099 17.3498C28.6699 16.9498 28.6699 16.5298 28.6099 16.1298C28.5899 16.0198 28.6399 15.9198 28.7399 15.8698L29.4799 15.4598C29.6099 15.3898 29.6499 15.2298 29.5799 15.0998L28.3799 13.0298C28.3099 12.9098 28.1499 12.8598 28.0299 12.9398L27.2599 13.3798C27.1699 13.4298 27.0599 13.4198 26.9699 13.3598C26.6499 13.1098 26.2899 12.9098 25.9199 12.7598C25.8199 12.7198 25.7599 12.6298 25.7599 12.5198V11.5598C25.7599 11.4198 25.6399 11.2998 25.4999 11.2998H23.0899C22.9499 11.2998 22.8299 11.4198 22.8299 11.5598V12.4798C22.8299 12.5898 22.7599 12.6798 22.6699 12.7198C22.2899 12.8698 21.9399 13.0698 21.6099 13.3198C21.5299 13.3798 21.4199 13.3898 21.3299 13.3398L20.5399 12.8898C20.4199 12.8198 20.2599 12.8598 20.1899 12.9898L18.9799 15.0998C18.9099 15.2198 18.9499 15.3798 19.0799 15.4498L19.7999 15.8598C19.8899 15.9098 19.9399 16.0198 19.9199 16.1198C19.8599 16.5398 19.8599 16.9698 19.9199 17.3798C19.9399 17.4898 19.8899 17.5898 19.7999 17.6398L18.9699 18.1198C18.8499 18.1898 18.7999 18.3498 18.8699 18.4698L20.0699 20.5598C20.1399 20.6798 20.2999 20.7298 20.4199 20.6598L21.2499 20.1998C21.3399 20.1498 21.4499 20.1598 21.5299 20.2298C21.8599 20.4898 22.2299 20.7098 22.6299 20.8698C22.7299 20.9098 22.7899 20.9998 22.7899 21.1098V22.0298C22.7899 22.1698 22.9099 22.2898 23.0499 22.2898H25.4599C25.5999 22.2898 25.7199 22.1698 25.7199 22.0298V21.1098C25.7199 21.0098 25.7799 20.9098 25.8799 20.8698C26.2899 20.7098 26.6699 20.4798 27.0099 20.2098C27.0899 20.1398 27.2099 20.1298 27.2999 20.1898L28.1199 20.6898C28.2399 20.7698 28.4099 20.7198 28.4799 20.5998L29.6899 18.4898C29.7599 18.3698 29.7199 18.2098 29.5999 18.1398L28.7199 17.6198C28.6299 17.5698 28.5799 17.4598 28.5999 17.3598L28.6099 17.3498ZM25.5599 18.1598C23.6299 19.5798 21.4699 17.4198 22.8899 15.4898C22.9099 15.4598 22.9299 15.4398 22.9599 15.4198C24.8899 13.9998 27.0499 16.1598 25.6299 18.0898C25.6099 18.1198 25.5899 18.1398 25.5599 18.1598Z" fill="#DF0000"/>
<path d="M5.47055 35.7399C6.93962 35.7399 8.13055 34.549 8.13055 33.0799C8.13055 31.6108 6.93962 30.4199 5.47055 30.4199C4.00147 30.4199 2.81055 31.6108 2.81055 33.0799C2.81055 34.549 4.00147 35.7399 5.47055 35.7399Z" fill="#8DE2E0"/>
<path d="M42.5291 35.7399C43.9982 35.7399 45.1891 34.549 45.1891 33.0799C45.1891 31.6108 43.9982 30.4199 42.5291 30.4199C41.0601 30.4199 39.8691 31.6108 39.8691 33.0799C39.8691 34.549 41.0601 35.7399 42.5291 35.7399Z" fill="#8DE2E0"/>
<path d="M19.7596 41.6198C21.2287 41.6198 22.4196 40.4289 22.4196 38.9598C22.4196 37.4907 21.2287 36.2998 19.7596 36.2998C18.2905 36.2998 17.0996 37.4907 17.0996 38.9598C17.0996 40.4289 18.2905 41.6198 19.7596 41.6198Z" fill="#8DE2E0"/>
<path d="M27.9901 44.3498C29.4592 44.3498 30.6501 43.1589 30.6501 41.6898C30.6501 40.2207 29.4592 39.0298 27.9901 39.0298C26.521 39.0298 25.3301 40.2207 25.3301 41.6898C25.3301 43.1589 26.521 44.3498 27.9901 44.3498Z" fill="#8DE2E0"/>
<path d="M42.5291 29.42C40.8591 29.42 39.4691 30.55 39.0291 32.08H35.6591V28.2C40.2191 27.66 43.7591 23.78 43.7591 19.08C43.7591 14.12 39.7991 10.06 34.8791 9.88999C33.5491 7.32999 31.3591 5.36999 28.6491 4.34999C25.7391 3.24999 22.5691 3.34999 19.7191 4.63999C16.4191 6.12999 14.0391 9.01999 13.1891 12.48C9.34906 11.97 5.57906 14.38 4.49906 18.23C3.35906 22.42 5.84906 26.79 10.0591 27.97C10.7591 28.15 11.3691 28.23 11.9791 28.23H12.3191V32.08H8.94906C8.50906 30.55 7.11906 29.42 5.44906 29.42C3.42906 29.42 1.78906 31.06 1.78906 33.08C1.78906 35.1 3.42906 36.74 5.44906 36.74C7.11906 36.74 8.50906 35.61 8.94906 34.08H13.3191C13.8691 34.08 14.3191 33.63 14.3191 33.08V28.24H18.7291V35.46C17.2091 35.9 16.0791 37.29 16.0791 38.96C16.0791 40.98 17.7191 42.62 19.7391 42.62C21.7591 42.62 23.3991 40.98 23.3991 38.96C23.3991 37.29 22.2691 35.89 20.7291 35.45V28.25H26.9591V38.19C25.4391 38.63 24.3091 40.02 24.3091 41.69C24.3091 43.71 25.9491 45.35 27.9691 45.35C29.9891 45.35 31.6291 43.71 31.6291 41.69C31.6291 40.02 30.4991 38.62 28.9591 38.18V28.26H33.6391V33.08C33.6391 33.63 34.0891 34.08 34.6391 34.08H39.0091C39.4491 35.61 40.8391 36.74 42.5091 36.74C44.5291 36.74 46.1691 35.1 46.1691 33.08C46.1691 31.06 44.5291 29.42 42.5091 29.42H42.5291ZM5.46906 34.74C4.54906 34.74 3.80906 34 3.80906 33.08C3.80906 32.16 4.54906 31.42 5.46906 31.42C6.38906 31.42 7.12906 32.16 7.12906 33.08C7.12906 34 6.38906 34.74 5.46906 34.74ZM21.4191 38.96C21.4191 39.88 20.6791 40.62 19.7591 40.62C18.8391 40.62 18.0991 39.88 18.0991 38.96C18.0991 38.04 18.8191 37.33 19.7091 37.31C19.7191 37.31 19.7391 37.31 19.7491 37.31C19.7691 37.31 19.7791 37.31 19.7991 37.31C20.6991 37.33 21.4191 38.06 21.4191 38.97V38.96ZM29.6491 41.69C29.6491 42.61 28.9091 43.35 27.9891 43.35C27.0691 43.35 26.3291 42.61 26.3291 41.69C26.3291 40.77 27.0491 40.06 27.9391 40.04C27.9491 40.04 27.9691 40.04 27.9791 40.04C27.9991 40.04 28.0091 40.04 28.0291 40.04C28.9291 40.06 29.6491 40.79 29.6491 41.7V41.69ZM10.5891 26.04C7.44906 25.16 5.58906 21.89 6.43906 18.77C7.17906 16.15 9.57906 14.42 12.1791 14.42C12.6891 14.42 13.2091 14.49 13.7191 14.63C13.9891 14.7 14.2891 14.66 14.5291 14.5C14.7691 14.34 14.9291 14.09 14.9691 13.81C15.4591 10.57 17.5491 7.82999 20.5491 6.46999C22.9091 5.39999 25.5291 5.30999 27.9391 6.22999C30.3491 7.13999 32.2691 8.94999 33.3391 11.31C33.4991 11.67 33.8591 11.9 34.2491 11.9H34.5691C38.5291 11.9 41.7591 15.13 41.7591 19.09C41.7591 23.05 38.5391 26.28 34.5691 26.28L11.9891 26.24C11.5391 26.24 11.0991 26.18 10.5891 26.05V26.04ZM42.5291 34.74C41.6091 34.74 40.8691 34 40.8691 33.08C40.8691 32.16 41.6091 31.42 42.5291 31.42C43.4491 31.42 44.1891 32.16 44.1891 33.08C44.1891 34 43.4491 34.74 42.5291 34.74Z" fill="#323232"/>
</svg>
