<svg width="48" height="48" viewBox="0 0 48 48" fill="none" xmlns="http://www.w3.org/2000/svg">
<g clip-path="url(#clip0_15605_4668)">
<rect width="48" height="48" fill="#F5F5F5"/>
<path d="M27.1845 22.148C27.1845 22.5494 27.0149 22.8528 26.7449 23.0034L27.1678 23.6795H26.7831L26.4319 23.0989C26.3865 23.1085 26.3411 23.1133 26.2909 23.1133C25.7605 23.1133 25.3973 22.7405 25.3973 22.148V20.9653C25.3973 20.3727 25.7462 20 26.2909 20C26.8357 20 27.1845 20.3727 27.1845 20.9653V22.148ZM25.7103 22.1575C25.7103 22.5255 25.9206 22.7979 26.2885 22.7979C26.6565 22.7979 26.8644 22.5255 26.8644 22.1575V20.9557C26.8644 20.5878 26.6565 20.3154 26.2885 20.3154C25.9206 20.3154 25.7103 20.5878 25.7103 20.9557V22.1575Z" fill="#323232"/>
<path d="M27.93 23.0679L28.7973 20.0454H29.1151L29.992 23.0679H29.6646L29.4663 22.3726H28.4318L28.2382 23.0679H27.9276H27.93ZM28.5178 22.0715H29.3899L28.9478 20.5209L28.5178 22.0715Z" fill="#323232"/>
<path d="M32.5844 23.0679H32.3239L31.1436 20.7311V23.0679H30.8497V20.0454H31.1317L32.2905 22.3463V20.0454H32.5844V23.0679Z" fill="#323232"/>
<path d="M33.423 20.0454H35.1696V20.3632H34.4528V23.0679H34.1374V20.3632H33.4207V20.0454H33.423Z" fill="#323232"/>
<path d="M35.5614 23.0679L36.4311 20.0454H36.7489L37.6258 23.0679H37.2984L37.1001 22.3726H36.0655L35.872 23.0679H35.5614ZM36.1492 22.0715H37.0213L36.5792 20.5209L36.1492 22.0715Z" fill="#323232"/>
<path d="M39.7141 20.9055V20.8315C39.7141 20.528 39.5205 20.2939 39.1812 20.2939C38.842 20.2939 38.6556 20.4826 38.6556 20.7502C38.6556 20.9629 38.787 21.1134 38.9662 21.1923L39.413 21.3954C39.7236 21.5339 40.0701 21.7179 40.0701 22.2364C40.0701 22.7549 39.7093 23.1157 39.1836 23.1157C38.658 23.1157 38.2948 22.7883 38.2948 22.2651V22.191H38.6054V22.2818C38.6054 22.59 38.8157 22.8146 39.1812 22.8146C39.5468 22.8146 39.7594 22.5852 39.7594 22.277C39.7594 21.9497 39.5492 21.8207 39.2959 21.7107L38.9112 21.5363C38.6054 21.4025 38.3521 21.1827 38.3521 20.7765C38.3521 20.3202 38.6843 20 39.1788 20C39.6734 20 40.0199 20.3273 40.0199 20.8506V20.9055H39.7141Z" fill="#323232"/>
<path d="M28.0399 25.063L27.4187 28.0855H27.132L26.647 25.6938L26.1715 28.0855H25.8848L25.2635 25.063H25.5742L26.0377 27.4427L26.5084 25.063H26.7975L27.2682 27.4427L27.7317 25.063H28.0328H28.0399Z" fill="#323232"/>
<path d="M29.2536 28.0855H28.9382V25.063H29.2536V28.0855Z" fill="#323232"/>
<path d="M32.0897 28.0855H31.8293L30.649 25.7487V28.0855H30.3551V25.063H30.637L31.7959 27.3639V25.063H32.0897V28.0855Z" fill="#323232"/>
<path d="M33.5043 26.6973V27.7701H34.7754V28.0879H33.1913V25.0654H34.7443V25.3832H33.5067V26.3867H34.6416V26.6997H33.5067L33.5043 26.6973Z" fill="#323232"/>
<path d="M22.4011 20.0098V28.1358" stroke="#323232" stroke-width="0.3" stroke-miterlimit="10"/>
<path d="M11.071 28.0974H19.3261L12.7101 21.4528C11.8285 20.5735 10.6338 20.0479 9.38658 20.0479H8.00317L8.10591 20.3178L8.56466 21.5197L11.071 28.095V28.0974Z" fill="url(#paint0_linear_15605_4668)"/>
<path d="M8.56458 21.5221C9.46774 23.0656 11.8403 23.2281 12.0984 25.627C12.1079 25.7249 12.1844 25.8038 12.2823 25.8205C13.649 26.0331 14.9799 26.597 16.1363 27.5241C16.1363 27.5241 16.153 27.5336 16.1626 27.5336C16.1721 27.5336 16.1841 27.5289 16.1913 27.5217C16.208 27.505 16.208 27.4811 16.1913 27.4643C15.3908 26.6233 14.4112 25.9495 13.3121 25.5075L12.9776 25.3737C12.8056 25.3044 12.6861 25.1348 12.6909 24.9388C12.71 24.2221 14.4064 24.3678 14.5761 24.0237L14.6048 23.964C14.2559 23.6653 13.8402 23.4407 13.3838 23.3165C13.379 23.3332 13.3695 23.4169 13.4627 23.5698C13.563 23.7346 13.3528 23.9951 13.0445 23.7131L13.0183 23.6892C10.7317 21.5866 9.01377 22.6762 8.10583 20.3203L8.56458 21.5221Z" fill="white"/>
<path d="M14.0743 23.9234C14.0743 23.9234 13.6992 23.9425 13.4675 23.5674C13.5367 23.6797 13.4603 23.835 13.3074 23.8374V24.4084C13.5535 24.3367 13.8354 24.2937 14.072 24.2436V23.9258L14.0743 23.9234Z" fill="url(#paint1_linear_15605_4668)"/>
<path d="M12.5668 25.8704C13.8331 26.1142 15.0612 26.6613 16.1364 27.5238C13.7375 25.4738 12.6432 25.8442 12.5668 25.8704Z" fill="url(#paint2_linear_15605_4668)"/>
<path d="M9.04722 21.6297C8.67449 21.3644 8.3591 20.975 8.10583 20.3203L8.56458 21.5221C9.46774 23.0656 11.8403 23.2281 12.0984 25.627C11.8379 22.5639 10.4928 23.0226 9.04722 21.6297Z" fill="url(#paint3_linear_15605_4668)"/>
</g>
<defs>
<linearGradient id="paint0_linear_15605_4668" x1="15.1783" y1="28.0688" x2="9.67091" y2="20.0263" gradientUnits="userSpaceOnUse">
<stop stop-color="#BE0000"/>
<stop offset="0.39" stop-color="#DD0000"/>
<stop offset="0.77" stop-color="#F60000"/>
<stop offset="1" stop-color="#FF0000"/>
</linearGradient>
<linearGradient id="paint1_linear_15605_4668" x1="13.6562" y1="24.4371" x2="13.7303" y2="23.5889" gradientUnits="userSpaceOnUse">
<stop offset="0.65" stop-color="white" stop-opacity="0"/>
<stop offset="0.69" stop-color="#ECECEC" stop-opacity="0.0529"/>
<stop offset="0.76" stop-color="#D6D6D6" stop-opacity="0.25"/>
<stop offset="0.81" stop-color="#C5C5C5" stop-opacity="0.5184"/>
<stop offset="0.87" stop-color="#B9B9B9" stop-opacity="0.7569"/>
<stop offset="0.91" stop-color="#B1B1B1" stop-opacity="0.9409"/>
<stop offset="0.95" stop-color="#AFAFAF"/>
</linearGradient>
<linearGradient id="paint2_linear_15605_4668" x1="12.5668" y1="26.6756" x2="16.1364" y2="26.6756" gradientUnits="userSpaceOnUse">
<stop stop-color="white" stop-opacity="0"/>
<stop offset="0.07" stop-color="#F3F3F3" stop-opacity="0.0225"/>
<stop offset="0.21" stop-color="#DEDEDE" stop-opacity="0.1681"/>
<stop offset="0.35" stop-color="#CDCDCD" stop-opacity="0.3844"/>
<stop offset="0.49" stop-color="#C0C0C0" stop-opacity="0.6241"/>
<stop offset="0.63" stop-color="#B6B6B6" stop-opacity="0.8281"/>
<stop offset="0.77" stop-color="#B0B0B0" stop-opacity="0.9604"/>
<stop offset="0.9" stop-color="#AFAFAF"/>
</linearGradient>
<linearGradient id="paint3_linear_15605_4668" x1="8.10583" y1="22.9724" x2="12.0984" y2="22.9724" gradientUnits="userSpaceOnUse">
<stop offset="0.25" stop-color="white" stop-opacity="0"/>
<stop offset="0.36" stop-color="#F6F6F6" stop-opacity="0.0121"/>
<stop offset="0.58" stop-color="#E0E0E0" stop-opacity="0.1444"/>
<stop offset="0.88" stop-color="#BDBDBD" stop-opacity="0.6724"/>
<stop offset="1" stop-color="#AFAFAF"/>
</linearGradient>
<clipPath id="clip0_15605_4668">
<rect width="48" height="48" rx="12" fill="white"/>
</clipPath>
</defs>
</svg>
