<svg width="24" height="24" viewBox="0 0 24 24" fill="none" xmlns="http://www.w3.org/2000/svg">
<g clip-path="url(#clip0_16335_3365)">
<path d="M20.4851 20.4853C25.1714 15.799 25.1714 8.20101 20.4851 3.51472C15.7988 -1.17157 8.20081 -1.17157 3.51452 3.51472C-1.17177 8.20101 -1.17177 15.799 3.51452 20.4853C8.20081 25.1716 15.7988 25.1716 20.4851 20.4853Z" fill="white"/>
<mask id="mask0_16335_3365" style="mask-type:luminance" maskUnits="userSpaceOnUse" x="-1" y="0" width="25" height="24">
<path d="M20.4851 20.4853C25.1714 15.799 25.1714 8.20101 20.4851 3.51472C15.7988 -1.17157 8.20081 -1.17157 3.51452 3.51472C-1.17177 8.20101 -1.17177 15.799 3.51452 20.4853C8.20081 25.1716 15.7988 25.1716 20.4851 20.4853Z" fill="white"/>
</mask>
<g mask="url(#mask0_16335_3365)">
<path d="M30.0007 0H-5.99927V24H30.0007V0Z" fill="#FED700"/>
<path fill-rule="evenodd" clip-rule="evenodd" d="M30.0007 1.28418V23.9999H-4.07355L30.0007 1.28418Z" fill="#007C29"/>
<path fill-rule="evenodd" clip-rule="evenodd" d="M-5.99927 0H28.0736L-5.99927 22.7157V0Z" fill="#0072FE"/>
<path fill-rule="evenodd" clip-rule="evenodd" d="M6.20758 6.80997H7.14667L7.43595 5.91699L7.72662 6.80997H8.66571L7.9055 7.36057L8.19617 8.25495L7.43595 7.70155L6.67713 8.25495L6.9678 7.36057L6.20758 6.80997Z" fill="white"/>
<path fill-rule="evenodd" clip-rule="evenodd" d="M8.82361 4.53214H9.7627L10.0534 3.63916L10.3426 4.53214H11.2817L10.5215 5.08274L10.8122 5.97711L10.0534 5.42372L9.29316 5.97711L9.58383 5.08274L8.82361 4.53214Z" fill="white"/>
<path fill-rule="evenodd" clip-rule="evenodd" d="M8.82361 9.06095H9.7627L10.0534 8.16797L10.3426 9.06095H11.2817L10.5215 9.61155L10.8122 10.5045L10.0534 9.95113L9.29316 10.5045L9.58383 9.61155L8.82361 9.06095Z" fill="white"/>
<path fill-rule="evenodd" clip-rule="evenodd" d="M3.59009 4.53214H4.52918L4.81985 3.63916L5.10913 4.53214H6.04822L5.288 5.08274L5.57868 5.97711L4.81985 5.42372L4.05963 5.97711L4.35031 5.08274L3.59009 4.53214Z" fill="white"/>
<path fill-rule="evenodd" clip-rule="evenodd" d="M3.59009 9.06095H4.52918L4.81985 8.16797L5.10913 9.06095H6.04822L5.288 9.61155L5.57868 10.5045L4.81985 9.95113L4.05963 10.5045L4.35031 9.61155L3.59009 9.06095Z" fill="white"/>
</g>
</g>
<rect x="0.25" y="0.25" width="23.5" height="23.5" rx="11.75" stroke="#E5E3E1" stroke-width="0.5"/>
<defs>
<clipPath id="clip0_16335_3365">
<rect width="24" height="24" rx="12" fill="white"/>
</clipPath>
</defs>
</svg>
