<svg width="48" height="48" viewBox="0 0 48 48" fill="none" xmlns="http://www.w3.org/2000/svg">
<path d="M33.82 1.78027H14.18C10.91 1.78027 8.25 4.44027 8.25 7.71027V40.2903C8.25 43.5603 10.91 46.2203 14.18 46.2203H33.83C37.1 46.2203 39.76 43.5603 39.76 40.2903V7.71027C39.76 4.44027 37.1 1.78027 33.83 1.78027H33.82ZM37.75 40.2903C37.75 42.4603 35.99 44.2203 33.82 44.2203H14.18C12.01 44.2203 10.25 42.4603 10.25 40.2903V7.71027C10.25 5.54027 12.01 3.78027 14.18 3.78027H33.83C36 3.78027 37.76 5.54027 37.76 7.71027V40.2903H37.75Z" fill="#323232"/>
<path d="M31.5902 13.4902H16.4202C15.1702 13.4902 14.1602 14.5002 14.1602 15.7502V38.1202C14.1602 39.3702 15.1702 40.3802 16.4202 40.3802H31.5902C32.8402 40.3802 33.8502 39.3702 33.8502 38.1202V15.7502C33.8502 14.5002 32.8402 13.4902 31.5902 13.4902ZM16.4102 15.4902H31.5802C31.7202 15.4902 31.8402 15.6102 31.8402 15.7502V25.9402H16.1502V15.7502C16.1502 15.6102 16.2702 15.4902 16.4102 15.4902ZM31.5902 38.3802H16.4202C16.2802 38.3802 16.1602 38.2602 16.1602 38.1202V27.9302H31.8502V38.1202C31.8502 38.2602 31.7302 38.3802 31.5902 38.3802Z" fill="#323232"/>
<path d="M16.1606 11.3203C17.6905 11.3203 18.9306 10.0801 18.9306 8.55027C18.9306 7.02044 17.6905 5.78027 16.1606 5.78027C14.6308 5.78027 13.3906 7.02044 13.3906 8.55027C13.3906 10.0801 14.6308 11.3203 16.1606 11.3203Z" fill="#DF0000"/>
<path d="M26.2902 32.4596H22.7102V32.3496C22.7102 31.6396 23.2902 31.0696 24.0002 31.0696C24.3202 31.0696 24.6202 31.1896 24.8602 31.3996C25.0602 31.5796 25.3802 31.5696 25.5702 31.3596C25.7602 31.1496 25.7402 30.8396 25.5302 30.6496C25.1102 30.2696 24.5702 30.0596 24.0002 30.0596C22.7402 30.0596 21.7102 31.0796 21.7102 32.3396V32.4496C21.5402 32.4496 21.4102 32.5796 21.4102 32.7496V36.2096C21.4102 36.3796 21.5402 36.5096 21.7102 36.5096H26.3002C26.4702 36.5096 26.6002 36.3796 26.6002 36.2096V32.7496C26.6002 32.5796 26.4702 32.4496 26.3002 32.4496L26.2902 32.4596Z" fill="#DF0000"/>
<path d="M26.2899 19.8702V19.7402C26.2899 18.4802 25.2699 17.4502 23.9999 17.4502C22.7299 17.4502 21.7099 18.4702 21.7099 19.7402V19.8702C21.5499 19.8702 21.4199 20.0002 21.4199 20.1702V23.6102C21.4199 23.7802 21.5499 23.9102 21.7199 23.9102H26.2699C26.4399 23.9102 26.5699 23.7802 26.5699 23.6102V20.1702C26.5699 20.0102 26.4399 19.8802 26.2799 19.8702H26.2899ZM23.9999 18.4502C24.7099 18.4502 25.2899 19.0302 25.2899 19.7402V19.8602H22.7199V19.7402C22.7199 19.0302 23.2999 18.4502 24.0099 18.4502H23.9999Z" fill="#DF0000"/>
</svg>
