<svg width="48" height="48" viewBox="0 0 48 48" fill="none" xmlns="http://www.w3.org/2000/svg">
<path d="M27.6495 16.02V27.04C27.6495 30.46 24.7795 33.37 21.4395 34.29C22.1195 34.47 22.8195 34.57 23.5195 34.57H24.3995C28.5595 34.57 32.8095 31.16 32.8095 27V15.98L27.6395 16.01L27.6495 16.02Z" fill="#8DE2E0"/>
<path d="M23.9707 14.3098C24.5207 14.3098 24.9707 13.8598 24.9707 13.3098V8.02978C24.9707 7.47978 24.5207 7.02979 23.9707 7.02979C23.4207 7.02979 22.9707 7.47978 22.9707 8.02978V13.3098C22.9707 13.8598 23.4207 14.3098 23.9707 14.3098Z" fill="#323232"/>
<path d="M28.7109 14.3097C29.2609 14.3097 29.7109 13.8597 29.7109 13.3097V9.42969C29.7109 8.87969 29.2609 8.42969 28.7109 8.42969C28.1609 8.42969 27.7109 8.87969 27.7109 9.42969V13.3097C27.7109 13.8597 28.1609 14.3097 28.7109 14.3097Z" fill="#323232"/>
<path d="M19.2305 14.3097C19.7805 14.3097 20.2305 13.8597 20.2305 13.3097V9.42969C20.2305 8.87969 19.7805 8.42969 19.2305 8.42969C18.6805 8.42969 18.2305 8.87969 18.2305 9.42969V13.3097C18.2305 13.8597 18.6805 14.3097 19.2305 14.3097Z" fill="#323232"/>
<path d="M38.62 33.9497H29.65C32.04 32.4197 33.83 29.9397 33.83 26.9997V26.6897C36.32 26.4097 38.25 24.2997 38.25 21.7397C38.25 19.1797 36.31 17.0697 33.83 16.7897V15.9897C33.83 15.4397 33.38 14.9897 32.83 14.9897H15.12C14.57 14.9897 14.12 15.4397 14.12 15.9897V27.0097C14.12 29.7997 15.77 32.3797 18.19 33.9597H9.38C7.51 33.9597 6 35.4797 6 37.3397V37.5897C6 39.4597 7.52 40.9697 9.38 40.9697H38.61C40.48 40.9697 41.99 39.4497 41.99 37.5897V37.3397C41.99 35.4697 40.47 33.9597 38.61 33.9597L38.62 33.9497ZM33.82 18.8097C35.2 19.0697 36.24 20.2897 36.24 21.7397C36.24 23.1897 35.19 24.4097 33.82 24.6697V18.8097ZM16.12 26.9997V16.9797H31.82V26.9997C31.82 30.6997 27.84 33.5597 24.41 33.5597H23.53C19.65 33.5597 16.12 30.4297 16.12 26.9997ZM40 37.5897C40 38.3497 39.38 38.9697 38.62 38.9697H9.38C8.62 38.9697 8 38.3497 8 37.5897V37.3397C8 36.5797 8.62 35.9597 9.38 35.9597H38.61C39.37 35.9597 39.99 36.5797 39.99 37.3397V37.5897H40Z" fill="#323232"/>
</svg>
