<svg width="48" height="48" viewBox="0 0 48 48" fill="none" xmlns="http://www.w3.org/2000/svg">
<path d="M38.0899 2.84961H9.91992V8.47961H38.0899V2.84961Z" fill="#8DE2E0"/>
<path d="M39.0799 12.7096V2.84961C39.0799 2.29961 38.6299 1.84961 38.0799 1.84961H9.91992C9.36992 1.84961 8.91992 2.29961 8.91992 2.84961V12.7096C8.91992 15.9396 10.6399 17.6696 12.0199 19.0496L16.8199 23.9096C13.7399 26.1396 11.7299 29.7496 11.7299 33.8396C11.7299 40.5996 17.2299 46.1096 23.9999 46.1096C30.7699 46.1096 36.2699 40.6096 36.2699 33.8396C36.2699 29.7596 34.2599 26.1396 31.1799 23.9096L35.9799 19.0496C37.3699 17.6596 39.0899 15.9396 39.0899 12.7096H39.0799ZM10.9199 3.84961H37.0899V7.47961H10.9199V3.84961ZM23.9999 21.5596C22.8799 21.5596 21.7999 21.7196 20.7799 21.9996V9.46961H27.2299V21.9996C26.1999 21.7196 25.1199 21.5596 24.0099 21.5596H23.9999ZM13.4399 17.6296C12.1399 16.3296 10.9199 15.1096 10.9199 12.6996V9.46961H18.7799V22.7396C18.7199 22.7696 18.6499 22.7996 18.5899 22.8296L13.4499 17.6196L13.4399 17.6296ZM34.2699 33.8296C34.2699 39.4896 29.6599 44.0996 23.9999 44.0996C18.3399 44.0996 13.7299 39.4896 13.7299 33.8296C13.7299 29.5596 16.3499 25.8896 20.0699 24.3496C20.1199 24.3296 20.1699 24.3196 20.2199 24.2996C21.3899 23.8296 22.6699 23.5696 23.9999 23.5696C25.3299 23.5696 26.6099 23.8296 27.7799 24.2996C27.8299 24.3196 27.8799 24.3396 27.9299 24.3496C31.6499 25.8996 34.2699 29.5596 34.2699 33.8296ZM29.4199 22.8396C29.3599 22.8096 29.2899 22.7796 29.2299 22.7496V9.47961H37.0899V12.7096C37.0899 15.1096 35.8599 16.3396 34.5599 17.6396L29.4199 22.8396Z" fill="#323232"/>
<path d="M24.0003 40.5104C27.6896 40.5104 30.6803 37.5197 30.6803 33.8304C30.6803 30.1411 27.6896 27.1504 24.0003 27.1504C20.3111 27.1504 17.3203 30.1411 17.3203 33.8304C17.3203 37.5197 20.3111 40.5104 24.0003 40.5104Z" fill="#DF0000"/>
</svg>
