<svg width="24" height="24" viewBox="0 0 24 24" fill="none" xmlns="http://www.w3.org/2000/svg">
<g clip-path="url(#clip0_17860_659)">
<path d="M12 4C12.2761 4 12.5 4.22386 12.5 4.5C12.5 4.77614 12.2761 5 12 5C11.7239 5 11.5 4.77614 11.5 4.5C11.5 4.22386 11.7239 4 12 4Z" fill="#323232"/>
<path fill-rule="evenodd" clip-rule="evenodd" d="M16.5 1C17.8807 1 19 2.11929 19 3.5V20.5C19 21.8807 17.8807 23 16.5 23H7.5C6.11929 23 5 21.8807 5 20.5V3.5C5 2.11929 6.11929 1 7.5 1H16.5ZM7.5 3C7.22386 3 7 3.22386 7 3.5V20.5C7 20.7761 7.22386 21 7.5 21H16.5C16.7761 21 17 20.7761 17 20.5V3.5C17 3.22386 16.7761 3 16.5 3H7.5Z" fill="#323232"/>
</g>
<defs>
<clipPath id="clip0_17860_659">
<rect width="24" height="24" fill="white"/>
</clipPath>
</defs>
</svg>
