<svg width="48" height="48" viewBox="0 0 48 48" fill="none" xmlns="http://www.w3.org/2000/svg">
<path d="M35.2508 24.3001C33.8308 24.3001 32.4808 24.5801 31.2408 25.0701L30.0408 15.7001L37.1608 8.58011C37.9108 7.83011 38.3208 6.83011 38.3208 5.77011C38.3208 4.71011 37.9108 3.71011 37.1608 2.96011C35.6108 1.41011 33.0908 1.41011 31.5408 2.96011L24.4308 10.0801L7.34081 7.90011C6.14081 7.74011 4.92081 8.17011 4.06081 9.02011L3.29081 9.79011C2.84081 10.2301 2.64081 10.8701 2.73081 11.4901C2.83081 12.1101 3.22081 12.6601 3.78081 12.9501L15.5208 18.9701L10.8008 23.6901L5.20081 22.9001C4.43081 22.7901 3.64081 23.0601 3.10081 23.6101L2.21081 24.5101C1.87081 24.8601 1.72081 25.3501 1.81081 25.8301C1.91081 26.3101 2.23081 26.7101 2.68081 26.9001C4.35081 27.6101 8.78081 29.4901 10.0508 30.0201L13.1908 37.4101C13.3808 37.8601 13.7808 38.1901 14.2608 38.2801C14.3608 38.3001 14.4508 38.3101 14.5508 38.3101C14.9308 38.3101 15.3108 38.1601 15.5908 37.8901L16.4908 37.0001C17.0408 36.4601 17.3108 35.6701 17.2008 34.9001L16.4108 29.3001L21.0908 24.5801L24.8308 31.8301C24.4808 32.9101 24.2808 34.0501 24.2808 35.2401C24.2808 41.2801 29.2008 46.2001 35.2408 46.2001C41.2808 46.2001 46.2008 41.2801 46.2008 35.2401C46.2008 29.2001 41.2808 24.2801 35.2408 24.2801L35.2508 24.3001ZM22.8808 23.6701C22.5908 23.1101 22.0508 22.7201 21.4308 22.6201C20.8108 22.5201 20.1708 22.7301 19.7308 23.1801L14.8208 28.0901C14.5008 28.4101 14.3408 28.8801 14.4008 29.3301L15.2208 35.1901C15.2408 35.3401 15.1908 35.4801 15.0908 35.5901L14.7408 35.9401L11.9008 29.2501C11.7008 28.7801 11.3308 28.4101 10.8608 28.2101C9.72081 27.7301 6.15081 26.2101 4.17081 25.3701L4.52081 25.0201C4.62081 24.9101 4.77081 24.8601 4.92081 24.8901L10.7808 25.7101C11.2408 25.7701 11.7008 25.6201 12.0208 25.2901L16.9308 20.3801C17.3808 19.9401 17.5808 19.3001 17.4908 18.6801C17.3908 18.0601 17.0008 17.5101 16.4408 17.2301L4.70081 11.2101L5.48081 10.4401C5.90081 10.0201 6.50081 9.82011 7.09081 9.89011L24.1908 12.0601C24.8008 12.1401 25.4108 11.9301 25.8408 11.5001L32.9608 4.38011C33.7108 3.63011 35.0108 3.63011 35.7508 4.38011C36.5208 5.15011 36.5208 6.40011 35.7508 7.17011L28.6308 14.2901C28.2008 14.7201 27.9908 15.3401 28.0708 15.9401L29.3608 26.0501C27.9708 26.9501 26.8008 28.1501 25.9308 29.5601L22.9008 23.6801L22.8808 23.6701ZM35.2508 44.2101C30.3108 44.2101 26.2908 40.1901 26.2908 35.2501C26.2908 30.3101 30.3108 26.2901 35.2508 26.2901C40.1908 26.2901 44.2108 30.3101 44.2108 35.2501C44.2108 40.1901 40.1908 44.2101 35.2508 44.2101Z" fill="#323232"/>
<path d="M36.5501 33.9799H33.9501V32.6299C33.9501 32.1399 34.3501 31.7399 34.8401 31.7399H35.6601C36.1501 31.7399 36.5501 32.1399 36.5501 32.6299V33.9799ZM38.1601 33.9799H37.8801V32.6299C37.8801 31.3999 36.8801 30.3999 35.6501 30.3999H34.8301C33.6001 30.3999 32.6001 31.3999 32.6001 32.6299V33.9699H32.3201C31.7701 33.9699 31.3301 34.4199 31.3301 34.9599V39.1099C31.3301 39.6599 31.7801 40.0999 32.3201 40.0999H38.1601C38.7101 40.0999 39.1501 39.6499 39.1501 39.1099V34.9699C39.1501 34.4199 38.7001 33.9799 38.1501 33.9799H38.1601Z" fill="#DF0000"/>
</svg>
