<svg width="48" height="48" viewBox="0 0 48 48" fill="none" xmlns="http://www.w3.org/2000/svg">
<path d="M21.3909 32.9698C21.3209 32.9698 21.2509 32.9698 21.1909 32.9498L6.03091 29.7998C4.60091 29.4998 3.55091 28.2798 3.48091 26.8298C2.79091 13.4098 8.17091 8.1098 8.78091 7.5498C9.39091 6.8998 15.6009 0.819796 29.8709 3.4998C43.4909 6.0698 44.5209 21.1398 44.5909 24.1298C44.6109 24.7998 44.3609 25.4298 43.9009 25.9098C43.4409 26.3898 42.8309 26.6598 42.1709 26.6698L31.4909 26.9798C30.3609 27.0098 29.2809 27.3798 28.3709 28.0598L21.9809 32.7898C21.8109 32.9198 21.6009 32.9898 21.3909 32.9898V32.9698ZM23.0109 4.8198C14.2009 4.8198 10.3709 8.7598 10.1709 8.9698C9.90091 9.2198 4.81091 13.9998 5.46091 26.7198C5.49091 27.2698 5.88091 27.7298 6.42091 27.8398L21.1409 30.8998L27.1709 26.4398C28.4109 25.5198 29.8809 25.0198 31.4209 24.9698L42.1109 24.6598C42.2409 24.6598 42.3609 24.6098 42.4409 24.5198C42.5309 24.4298 42.5809 24.3098 42.5709 24.1698C42.5109 21.4398 41.5809 7.7398 29.4809 5.4598C27.0809 5.0098 24.9209 4.8198 23.0009 4.8198H23.0109Z" fill="#323232"/>
<path d="M20.4709 25.52C21.8572 25.52 22.9809 24.3962 22.9809 23.01C22.9809 21.6238 21.8572 20.5 20.4709 20.5C19.0847 20.5 17.9609 21.6238 17.9609 23.01C17.9609 24.3962 19.0847 25.52 20.4709 25.52Z" fill="#8DE2E0"/>
<path d="M20.4709 26.5102C18.5409 26.5102 16.9609 24.9402 16.9609 23.0002C16.9609 21.0602 18.5309 19.4902 20.4709 19.4902C22.4109 19.4902 23.9809 21.0602 23.9809 23.0002C23.9809 24.9402 22.4109 26.5102 20.4709 26.5102ZM20.4709 21.5002C19.6409 21.5002 18.9609 22.1802 18.9609 23.0102C18.9609 23.8402 19.6409 24.5202 20.4709 24.5202C21.3009 24.5202 21.9809 23.8402 21.9809 23.0102C21.9809 22.1802 21.3009 21.5002 20.4709 21.5002Z" fill="#323232"/>
<path d="M29.8607 3.50036C15.5907 0.810359 9.38066 6.89036 8.78066 7.54036C8.16066 8.10036 2.78066 13.4004 3.48066 26.8204C3.55066 28.2704 4.60066 29.5004 6.03066 29.7904L18.8107 32.4504C20.1207 36.2304 22.3607 40.9204 27.6707 44.7704C28.0407 45.0404 28.4807 45.1804 28.9307 45.1804C29.0607 45.1804 29.2007 45.1704 29.3307 45.1404C29.9207 45.0304 30.4507 44.6804 30.7907 44.1704L32.2107 42.0004C32.8507 41.0204 32.6207 39.7204 31.6907 39.0304C28.0707 36.3704 26.5107 33.2404 25.4507 30.1904L28.3707 28.0304C29.2807 27.3604 30.3607 26.9904 31.4907 26.9504L42.1707 26.6404C42.8307 26.6304 43.4407 26.3604 43.9007 25.8804C44.3607 25.4004 44.6007 24.7704 44.5907 24.1004C44.5207 21.1104 43.4807 6.04036 29.8707 3.47036L29.8607 3.50036ZM30.5007 40.6604C30.5707 40.7104 30.5807 40.8304 30.5307 40.9204L29.1107 43.0904C29.0607 43.1604 28.9907 43.1804 28.9707 43.1904C28.9207 43.1904 28.8807 43.1904 28.8507 43.1704C24.5007 40.0104 22.3907 36.2204 21.1307 32.9404H21.2007C21.2707 32.9704 21.3407 32.9704 21.4007 32.9704C21.6107 32.9704 21.8207 32.9004 21.9907 32.7704L23.7707 31.4504C24.9107 34.5204 26.7107 37.8604 30.5107 40.6504L30.5007 40.6604ZM42.4507 24.5204C42.3607 24.6104 42.2507 24.6604 42.1207 24.6604L31.4307 24.9704C29.8907 25.0104 28.4207 25.5204 27.1807 26.4404L21.1507 30.9004L6.43066 27.8404C5.89066 27.7304 5.49066 27.2704 5.47066 26.7204C4.81066 14.0004 9.90066 9.22036 10.1807 8.97036C10.3707 8.77036 14.2107 4.82036 23.0207 4.82036C24.9407 4.82036 27.0907 5.01036 29.5007 5.46036C41.6007 7.74036 42.5307 21.4504 42.5907 24.1704C42.5907 24.3004 42.5507 24.4204 42.4607 24.5204H42.4507Z" fill="#323232"/>
</svg>
