<svg width="24" height="24" viewBox="0 0 24 24" fill="none" xmlns="http://www.w3.org/2000/svg">
<g clip-path="url(#clip0_10496_9632)">
<path fill-rule="evenodd" clip-rule="evenodd" d="M15 22H4C2.89543 22 2 21.1046 2 20V4C2 2.89543 2.89543 2 4 2H15V4H4V20H15V22ZM17 2H18C18.5523 2 19 2.44772 19 3V21C19 21.5523 18.5523 22 18 22H17V2ZM13.75 6H12.25V9.00003L11.4 10.1334C11.1403 10.4796 11 10.9007 11 11.3334V17C11 17.5523 11.4477 18 12 18H14C14.5523 18 15 17.5523 15 17V11.3334C15 10.9007 14.8597 10.4796 14.6 10.1334L13.75 9.00003V6ZM21 9H20V15H21C21.5523 15 22 14.5523 22 14V10C22 9.44772 21.5523 9 21 9ZM7.25 9H8.75V11.1454C9.48296 11.4421 10 12.1607 10 13V17C10 17.5523 9.55228 18 9 18H7C6.44772 18 6 17.5523 6 17V13C6 12.1607 6.51704 11.4421 7.25 11.1454V9Z" fill="#323232"/>
</g>
<defs>
<clipPath id="clip0_10496_9632">
<rect width="24" height="24" fill="white"/>
</clipPath>
</defs>
</svg>
