<svg width="48" height="48" viewBox="0 0 48 48" fill="none" xmlns="http://www.w3.org/2000/svg">
<path d="M27.8502 10.1401V17.2101C25.8902 17.6701 24.4102 19.4201 24.4102 21.5201C24.4102 22.0701 24.8602 22.5201 25.4102 22.5201C25.9602 22.5201 26.4102 22.0701 26.4102 21.5201C26.4102 20.1801 27.5002 19.0801 28.8502 19.0801C30.2002 19.0801 31.2902 20.1701 31.2902 21.5201C31.2902 22.0701 31.7402 22.5201 32.2902 22.5201C32.8402 22.5201 33.2902 22.0701 33.2902 21.5201C33.2902 19.4201 31.8202 17.6601 29.8502 17.2101V10.1401H27.8502Z" fill="#DF0000"/>
<path d="M43.2295 43H40.8095V31.4C40.8095 30.85 40.3595 30.4 39.8095 30.4H34.9095V25.89C34.9095 25.34 34.4595 24.89 33.9095 24.89H23.7795C23.2295 24.89 22.7795 25.34 22.7795 25.89V30.4H17.9095C17.3595 30.4 16.9095 30.85 16.9095 31.4V43H14.3095V10.14H41.9695C42.5195 10.14 42.9695 9.69 42.9695 9.14V4C42.9695 3.45 42.5195 3 41.9695 3H13.3295C13.3295 3 13.2995 3 13.2895 3H4.76953C4.21953 3 3.76953 3.45 3.76953 4V43.99C3.76953 44.54 4.21953 44.99 4.76953 44.99H43.2395C43.7895 44.99 44.2395 44.54 44.2395 43.99C44.2395 43.44 43.7895 42.99 43.2395 42.99L43.2295 43ZM38.8095 32.4V43H34.9095V32.4H38.8095ZM32.9195 26.89V43H29.8595V38.25C29.8595 37.7 29.4095 37.25 28.8595 37.25C28.3095 37.25 27.8595 37.7 27.8595 38.25V43H24.7995V31.46C24.7995 31.46 24.8095 31.43 24.8095 31.41C24.8095 31.39 24.8095 31.38 24.7995 31.36V26.9H32.9295L32.9195 26.89ZM18.9195 32.4H22.7895V43H18.9195V32.4ZM12.3195 31.55L6.69953 25.82H12.3195V31.55ZM5.76953 23.82V18.4L11.0895 23.82H5.76953ZM5.76953 27.72L11.2595 33.32H5.76953V27.72ZM12.3195 22.23L6.69953 16.5H12.3195V22.23ZM12.3195 35.32V41.05L6.69953 35.32H12.3195ZM40.9795 8.14H14.3195V5H40.9795V8.14ZM12.3195 5.01V14.5H5.76953V5.01H12.3195ZM5.76953 37.22L11.4395 43H5.76953V37.22Z" fill="#323232"/>
</svg>
