<svg width="24" height="24" viewBox="0 0 24 24" fill="none" xmlns="http://www.w3.org/2000/svg">
<g clip-path="url(#clip0_10513_11214)">
<path d="M15.5988 12.9274C17.644 13.9212 18.8233 15.7226 19.418 17.2295C19.7925 18.1783 19.8723 19.6397 19.8801 20.7041L19.8802 21.0618C19.8773 21.5128 19.8642 21.8521 19.8642 21.985C17.2715 22.005 13.941 22.005 9.87283 21.985C9.87468 21.0756 9.87608 20.2737 9.877 19.5793L9.87761 19.0786C9.8777 18.9985 9.87778 18.9201 9.87785 18.8434V17.0455L9.87774 16.9821L9.877 16.7027C9.87608 16.4383 9.87468 16.2813 9.87283 16.2319C9.86541 16.0342 9.98093 15.8655 10.2194 15.7259L12.438 14.1426C13.6874 14.0463 14.741 13.6412 15.5988 12.9274ZM8.36255 12.9348C9.37442 13.5552 10.0366 13.8912 10.3492 13.9428C9.88676 14.2332 9.10912 14.751 8.71335 15.0967C8.42128 15.3518 8.43158 15.3295 8.4162 15.7793C8.39857 16.2946 8.38069 18.3656 8.36255 21.9923H4.18346C4.05228 20.3247 4.1233 18.9371 4.39653 17.8295C4.80637 16.1681 5.51223 15.1712 6.27893 14.447C6.79007 13.9642 7.48461 13.4601 8.36255 12.9348ZM12.036 18.6103C11.65 18.6103 11.3372 18.9232 11.3372 19.3091C11.3372 19.6951 11.65 20.0079 12.036 20.0079C12.4219 20.0079 12.7348 19.6951 12.7348 19.3091C12.7348 18.9232 12.4219 18.6103 12.036 18.6103ZM12.036 16.2492C11.65 16.2492 11.3372 16.562 11.3372 16.948C11.3372 17.3339 11.65 17.6467 12.036 17.6467C12.4219 17.6467 12.7348 17.3339 12.7348 16.948C12.7348 16.562 12.4219 16.2492 12.036 16.2492ZM16.2713 7.72275C16.3111 7.98793 16.3285 8.18728 16.3285 8.42716C16.3285 10.8086 14.398 12.7391 12.0165 12.7391C9.63511 12.7391 7.70458 10.8086 7.70458 8.42716C7.70458 8.206 7.72123 7.98872 7.75334 7.77652C9.61339 7.75745 10.642 7.74339 11.5932 7.73424L11.9714 7.73085C12.6008 7.72562 13.2405 7.72257 14.114 7.72166L15.087 7.72148C15.4437 7.72166 15.8355 7.72209 16.2713 7.72275ZM12.0119 2.00266C13.2867 2.04413 15.0756 2.31998 15.6471 2.53932C16.2186 2.75865 16.2816 2.9511 16.3168 3.69148C16.3403 4.18507 16.3343 5.07722 16.2989 6.36793L7.7254 6.30675C7.71959 5.93035 7.71604 5.5874 7.71475 5.27792L7.71452 4.83878C7.71696 4.14872 7.73354 3.66776 7.76425 3.39592C7.83797 2.7435 7.95784 2.62603 8.43479 2.52143C8.91174 2.41683 10.7372 1.96119 12.0119 2.00266Z" fill="#323232"/>
</g>
<defs>
<clipPath id="clip0_10513_11214">
<rect width="24" height="24" fill="white"/>
</clipPath>
</defs>
</svg>
