<svg width="48" height="48" viewBox="0 0 48 48" fill="none" xmlns="http://www.w3.org/2000/svg">
<path d="M33.7299 22.6501L30.8399 20.3701V15.8601C30.8399 15.5901 30.6199 15.3801 30.3599 15.3801H28.2999C28.0299 15.3801 27.8199 15.6001 27.8199 15.8601V17.9901L24.1799 15.1201L14.6299 22.6501C14.3399 22.8801 14.4999 23.3401 14.8699 23.3401H17.5099V30.8701C17.5099 31.1801 17.7599 31.4301 18.0699 31.4301H21.6799V25.6301H26.2699V31.4301H30.2799C30.5899 31.4301 30.8399 31.1801 30.8399 30.8701V23.3401H33.4799C33.8499 23.3401 34.0099 22.8801 33.7199 22.6501H33.7299Z" fill="#DF0000"/>
<path d="M24.0009 1.81006L6.96094 8.81006V13.9301L24.0009 6.94006L41.0409 13.9301V8.81006L24.0009 1.81006Z" fill="#8DE2E0"/>
<path d="M24.0009 47.1899C23.9409 47.1899 23.8909 47.1899 23.8309 47.1799C23.6509 47.1499 5.96094 43.8599 5.96094 22.7199V8.80994C5.96094 8.39994 6.21094 8.03994 6.58094 7.87994L23.6209 0.889941C23.8609 0.789941 24.1409 0.789941 24.3809 0.889941L41.4209 7.88994C41.8009 8.03994 42.0409 8.40994 42.0409 8.81994V22.7299C42.0409 43.8699 24.3509 47.1599 24.1709 47.1899C24.1109 47.1899 24.0609 47.1999 24.0009 47.1999V47.1899ZM7.96094 9.47994V22.7199C7.96094 41.2899 22.1709 44.7999 24.0009 45.1699C25.8309 44.7999 40.0409 41.2799 40.0409 22.7199V9.47994L24.0009 2.88994L7.96094 9.47994Z" fill="#323232"/>
</svg>
