<svg width="24" height="24" viewBox="0 0 24 24" fill="none" xmlns="http://www.w3.org/2000/svg">
<g clip-path="url(#clip0_16335_2442)">
<path d="M23.6789 14.7568C25.2013 8.30659 21.2066 1.84354 14.7564 0.321152C8.30617 -1.20123 1.84311 2.79355 0.320729 9.24374C-1.20165 15.6939 2.79312 22.157 9.24332 23.6794C15.6935 25.2018 22.1566 21.207 23.6789 14.7568Z" fill="white"/>
<mask id="mask0_16335_2442" style="mask-type:luminance" maskUnits="userSpaceOnUse" x="-1" y="-1" width="26" height="26">
<path d="M23.6789 14.7568C25.2013 8.30659 21.2066 1.84354 14.7564 0.321152C8.30617 -1.20123 1.84311 2.79355 0.320729 9.24374C-1.20165 15.6939 2.79312 22.157 9.24332 23.6794C15.6935 25.2018 22.1566 21.207 23.6789 14.7568Z" fill="white"/>
</mask>
<g mask="url(#mask0_16335_2442)">
<path d="M32.3512 0H-3.6488V24H32.3512V0Z" fill="#FF0000"/>
<path fill-rule="evenodd" clip-rule="evenodd" d="M16.0163 9.3335L17.2502 10.9909L19.2039 10.3229L18.0091 12.0068L19.2486 13.6586L17.2768 13.0438L16.0889 14.7319L16.0652 12.6664L14.0906 12.0585L16.047 11.3975L16.0163 9.3335Z" fill="white"/>
<path fill-rule="evenodd" clip-rule="evenodd" d="M9.12819 5.89014C11.2607 5.89014 13.1375 6.98295 14.2303 8.63894C13.3499 7.7264 12.1132 7.15763 10.7451 7.15763C8.07032 7.15763 5.90285 9.3251 5.90285 11.9998C5.90285 14.6746 8.07032 16.842 10.7451 16.842C12.1132 16.842 13.3499 16.2747 14.2303 15.3607C13.1375 17.0167 11.2607 18.1095 9.12819 18.1095C5.75333 18.1095 3.01849 15.3733 3.01849 11.9998C3.01849 8.62637 5.75472 5.89014 9.12819 5.89014Z" fill="white"/>
</g>
</g>
<rect x="0.25" y="0.25" width="23.5" height="23.5" rx="11.75" stroke="#E5E3E1" stroke-width="0.5"/>
<defs>
<clipPath id="clip0_16335_2442">
<rect width="24" height="24" rx="12" fill="white"/>
</clipPath>
</defs>
</svg>
