<svg width="48" height="48" viewBox="0 0 48 48" fill="none" xmlns="http://www.w3.org/2000/svg">
<path d="M35.8494 15.4201C35.7994 15.3001 35.7294 15.1901 35.6294 15.1001L23.7094 3.17012C23.6194 3.08012 23.5094 3.00012 23.3894 2.95012C23.2694 2.90012 23.1394 2.87012 23.0094 2.87012H5.10938C4.55937 2.87012 4.10938 3.32012 4.10938 3.87012V44.1201C4.10938 44.6701 4.55937 45.1201 5.10938 45.1201H23.9994C24.5494 45.1201 24.9994 44.6701 24.9994 44.1201C24.9994 43.5701 24.5494 43.1201 23.9994 43.1201H6.10938V4.88012H21.9994V15.8101C21.9994 16.3601 22.4494 16.8101 22.9994 16.8101H33.9294V19.3801C33.9294 19.9301 34.3794 20.3801 34.9294 20.3801C35.4794 20.3801 35.9294 19.9301 35.9294 19.3801V15.8101C35.9294 15.6801 35.8994 15.5501 35.8494 15.4201ZM23.9994 6.29012L32.5094 14.8001H23.9994V6.29012Z" fill="#323232"/>
<path d="M32.57 44.4498C26.33 44.4498 21.25 39.3698 21.25 33.1298C21.25 26.8898 26.33 21.8198 32.57 21.8198C38.81 21.8198 43.89 26.8998 43.89 33.1298C43.89 39.3598 38.81 44.4498 32.57 44.4498ZM32.57 23.8198C27.43 23.8198 23.25 27.9998 23.25 33.1298C23.25 38.2598 27.43 42.4498 32.57 42.4498C37.71 42.4498 41.89 38.2698 41.89 33.1298C41.89 27.9898 37.71 23.8198 32.57 23.8198Z" fill="#323232"/>
<path d="M37.6504 29.51C38.0504 29.11 38.0504 28.45 37.6504 28.05C37.2504 27.65 36.5904 27.65 36.1904 28.05L33.7204 30.52C33.6504 30.59 33.5404 30.63 33.4404 30.62L27.5104 29.87C27.2004 29.83 26.8804 29.94 26.6604 30.16L26.3904 30.43C26.2304 30.59 26.2704 30.87 26.4704 30.97L30.5504 33.07C30.7504 33.18 30.8004 33.45 30.6304 33.61L28.9304 35.31C28.9304 35.31 28.8404 35.36 28.7904 35.36L26.7604 35.07C26.6004 35.05 26.4404 35.1 26.3304 35.22C26.2304 35.32 26.1204 35.44 26.0204 35.53C25.9404 35.61 25.9704 35.75 26.0704 35.8C26.6504 36.05 28.1904 36.7 28.6404 36.89C28.7204 36.92 28.7804 36.99 28.8204 37.07C29.0104 37.52 29.6704 39.06 29.9104 39.64C29.9604 39.75 30.0904 39.77 30.1804 39.69C30.2804 39.6 30.4004 39.48 30.4904 39.38C30.6004 39.27 30.6604 39.11 30.6404 38.95L30.3504 36.92C30.3504 36.87 30.3504 36.82 30.4004 36.78L32.1004 35.08C32.2604 34.92 32.5404 34.96 32.6404 35.16L34.7404 39.24C34.8504 39.44 35.1204 39.49 35.2804 39.32L35.5504 39.05C35.7704 38.83 35.8804 38.51 35.8404 38.2L35.0904 32.27C35.0804 32.17 35.1104 32.06 35.1904 31.99L37.6604 29.52L37.6504 29.51Z" fill="#DF0000"/>
</svg>
