<svg width="48" height="48" viewBox="0 0 48 48" fill="none" xmlns="http://www.w3.org/2000/svg">
<path d="M45.1092 10.9798C45.1092 8.84981 44.2792 6.84981 42.7692 5.33981C41.1592 3.72981 38.9192 2.87981 36.6492 3.01981C36.0992 3.04981 35.6792 3.52981 35.7092 4.07981C35.7392 4.62981 36.2392 5.04981 36.7692 5.01981C38.4792 4.91981 40.1492 5.54981 41.3592 6.75981C42.4892 7.88981 43.1092 9.38981 43.1092 10.9898C43.1092 12.5898 42.4892 14.0898 41.3592 15.2198C40.8592 15.7198 40.2792 16.1198 39.6492 16.4098L38.8692 9.91981C38.8092 9.45981 38.4492 9.09981 37.9992 9.04981L25.3292 7.51981C25.0192 7.47981 24.7192 7.58981 24.4992 7.80981L3.17922 29.0898C2.78922 29.4798 2.78922 30.1098 3.17922 30.4998L17.3792 44.6998C17.5792 44.8998 17.8292 44.9898 18.0892 44.9898C18.3492 44.9898 18.5992 44.8898 18.7992 44.6998L40.0992 23.3998C40.3192 23.1798 40.4192 22.8798 40.3892 22.5698L39.8892 18.4498C40.9592 18.0598 41.9392 17.4398 42.7692 16.6098C44.2792 15.0998 45.1092 13.0998 45.1092 10.9698V10.9798ZM38.3492 22.3298L18.0992 42.5798L5.30922 29.7898L25.5592 9.53981L36.9692 10.9198L37.6892 16.9298C37.4992 16.9498 37.3192 16.9598 37.1292 16.9598C36.4992 16.9598 35.8792 16.8598 35.2992 16.6698C35.3692 16.3898 35.4292 16.0998 35.4292 15.8098C35.4292 14.9198 35.0792 14.0798 34.4492 13.4498C33.1492 12.1498 31.0292 12.1498 29.7292 13.4498C28.4292 14.7498 28.4292 16.8698 29.7292 18.1698C30.3792 18.8198 31.2292 19.1398 32.0892 19.1398C32.8292 19.1398 33.5592 18.8798 34.1692 18.3898C35.0992 18.7598 36.0992 18.9598 37.1292 18.9598C37.3992 18.9598 37.6692 18.9498 37.9292 18.9198L38.3392 22.3398L38.3492 22.3298ZM32.8992 15.1998C32.5092 14.8098 31.8792 14.8098 31.4892 15.1998C31.0992 15.5898 31.0992 16.2198 31.4892 16.6098C31.6692 16.7898 31.8592 16.9598 32.0492 17.1198C31.7192 17.1198 31.3892 16.9898 31.1392 16.7398C30.6192 16.2198 30.6192 15.3698 31.1392 14.8498C31.3992 14.5898 31.7392 14.4598 32.0792 14.4598C32.4192 14.4598 32.7592 14.5898 33.0192 14.8498C33.2292 15.0598 33.3392 15.3398 33.3792 15.6298C33.2092 15.4898 33.0492 15.3498 32.8892 15.1998H32.8992Z" fill="#323232"/>
<path d="M23.34 23.3401V23.0201C23.34 22.1701 22.78 21.5701 21.91 21.5701C21.04 21.5701 20.55 22.1001 20.55 22.8101C20.55 23.2401 20.74 23.7801 21.44 24.0501L22.92 24.6301C24.23 25.1601 25.66 25.8701 25.66 27.9301C25.66 29.7501 24.5 31.0501 22.68 31.2801V33.0001H21.13V31.2501C19.39 30.9601 18.25 29.7901 18.25 28.0501V27.6801H20.34V28.1401C20.34 29.0401 20.94 29.5701 21.96 29.5701C22.98 29.5701 23.58 28.9701 23.58 28.1601C23.58 27.4601 23.22 27.0001 22.52 26.7101L20.92 26.0801C19.46 25.5001 18.48 24.5501 18.48 22.9601C18.48 21.4601 19.45 20.1801 21.12 19.8801V18.1401H22.67V19.8801C24.32 20.1501 25.43 21.3401 25.43 23.1001V23.3401H23.34Z" fill="#DF0000"/>
</svg>
