<svg width="24" height="24" viewBox="0 0 24 24" fill="none" xmlns="http://www.w3.org/2000/svg">
<path fill-rule="evenodd" clip-rule="evenodd" d="M20 12C20 10.9 20.9 10 22 10V6C22 4.9 21.1 4 20 4H4C2.9 4 2.01 4.9 2.01 6V10C3.11 10 4 10.9 4 12C4 13.1 3.11 14 2 14V18C2 19.1 2.9 20 4 20H20C21.1 20 22 19.1 22 18V14C20.9 14 20 13.1 20 12ZM14.5 16.1L12 14.5L9.5 16.11C9.12 16.35 8.63 16 8.75 15.56L9.5 12.68L7.2 10.8C6.85 10.51 7.03 9.94 7.49 9.91L10.45 9.74L11.53 6.99C11.7 6.57 12.3 6.57 12.46 6.99L13.54 9.75L16.5 9.92C16.95 9.95 17.14 10.52 16.79 10.81L14.49 12.69L15.25 15.55C15.37 16 14.88 16.35 14.5 16.1Z" fill="#323232"/>
</svg>
