<svg width="48" height="48" viewBox="0 0 48 48" fill="none" xmlns="http://www.w3.org/2000/svg">
<g clip-path="url(#clip0_17582_1487)">
<path d="M38.6398 18.2798H37.2598V23.2698H38.6398V18.2798Z" fill="#DF0000"/>
<path d="M38.6398 24.2698H37.2598C36.7098 24.2698 36.2598 23.8198 36.2598 23.2698V18.2798C36.2598 17.7298 36.7098 17.2798 37.2598 17.2798H38.6398C39.1898 17.2798 39.6398 17.7298 39.6398 18.2798V23.2698C39.6398 23.5398 39.5398 23.7898 39.3498 23.9798C39.1598 24.1698 38.9098 24.2698 38.6398 24.2698Z" fill="#DF0000"/>
<path d="M34.4908 24.2698H8.80078C8.25078 24.2698 7.80078 23.8198 7.80078 23.2698V18.2798C7.80078 18.0098 7.91078 17.7598 8.09078 17.5698C8.27078 17.3798 8.53078 17.2798 8.80078 17.2798H34.5008C35.0508 17.2798 35.5008 17.7298 35.5008 18.2798V23.2698C35.5008 23.5398 35.3908 23.7898 35.2108 23.9798C35.0308 24.1698 34.7708 24.2698 34.5008 24.2698H34.4908ZM9.80078 22.2698H33.5008V19.2798H9.80078V22.2698Z" fill="#323232"/>
<path d="M17.7305 24.2698C17.1805 24.2698 16.7305 23.8198 16.7305 23.2698V18.2798C16.7305 17.7298 17.1805 17.2798 17.7305 17.2798C18.2805 17.2798 18.7305 17.7298 18.7305 18.2798V23.2698C18.7305 23.8198 18.2805 24.2698 17.7305 24.2698Z" fill="#323232"/>
<path d="M34.5908 34.9099H8.80078C8.25078 34.9099 7.80078 34.4599 7.80078 33.9099V28.9199C7.80078 28.6499 7.91078 28.3999 8.09078 28.2099C8.27078 28.0199 8.53078 27.9199 8.80078 27.9199H34.5908C35.1408 27.9199 35.5908 28.3699 35.5908 28.9199V33.9099C35.5908 34.1799 35.4808 34.4299 35.3008 34.6199C35.1208 34.8099 34.8608 34.9099 34.5908 34.9099ZM9.80078 32.9099H33.5908V29.9199H9.80078V32.9099Z" fill="#323232"/>
<path d="M34.5898 34.91C34.3598 34.91 34.1298 34.83 33.9498 34.68C33.7198 34.49 33.5898 34.21 33.5898 33.91V28.92C33.5898 28.62 33.7198 28.34 33.9498 28.15C34.1798 27.96 34.4798 27.88 34.7798 27.94L38.8298 28.73C39.2998 28.82 39.6398 29.23 39.6398 29.71V33.12C39.6398 33.6 39.2998 34.01 38.8298 34.1L34.7798 34.89C34.7198 34.9 34.6498 34.91 34.5898 34.91ZM35.5898 30.13V32.69L37.6398 32.29V30.53L35.5898 30.13Z" fill="#323232"/>
<path d="M24.0006 33.0301C23.1106 33.0301 22.3906 32.3101 22.3906 31.4201C22.3906 30.5301 23.1106 29.8101 24.0006 29.8101C24.8906 29.8101 25.6106 30.5301 25.6106 31.4201C25.6106 32.3101 24.8906 33.0301 24.0006 33.0301ZM24.0006 31.0301C23.7906 31.0301 23.6106 31.2001 23.6106 31.4201C23.6106 31.6401 23.7806 31.8101 24.0006 31.8101C24.2206 31.8101 24.3906 31.6401 24.3906 31.4201C24.3906 31.2001 24.2206 31.0301 24.0006 31.0301Z" fill="#323232"/>
<path d="M24.0008 47.1998C11.2108 47.1998 0.800781 36.7898 0.800781 23.9998C0.800781 11.2098 11.2108 0.799805 24.0008 0.799805C36.7908 0.799805 47.2008 11.2098 47.2008 23.9998C47.2008 36.7898 36.7908 47.1998 24.0008 47.1998ZM24.0008 2.7998C12.3108 2.7998 2.80078 12.3098 2.80078 23.9998C2.80078 35.6898 12.3108 45.1998 24.0008 45.1998C35.6908 45.1998 45.2008 35.6898 45.2008 23.9998C45.2008 12.3098 35.6908 2.7998 24.0008 2.7998Z" fill="#DF0000"/>
<path d="M39.6991 40.7001C39.4391 40.7001 39.1891 40.6001 38.9891 40.4101L7.59914 9.01012C7.20914 8.62012 7.20914 7.99012 7.59914 7.60012C7.98914 7.21012 8.61914 7.21012 9.00914 7.60012L40.3991 39.0001C40.7891 39.3901 40.7891 40.0201 40.3991 40.4101C40.1991 40.6101 39.9491 40.7001 39.6891 40.7001H39.6991Z" fill="#DF0000"/>
<path d="M37.6811 16.5898C37.6811 16.5898 37.5811 16.5898 37.5311 16.5798C36.9811 16.4998 36.6111 15.9898 36.6911 15.4398C36.6911 15.4098 36.7811 14.1498 34.8411 12.8998C32.2911 11.2498 32.2711 8.87979 32.6111 7.85979C32.7911 7.33979 33.3511 7.04979 33.8811 7.22979C34.4011 7.39979 34.6811 7.95979 34.5111 8.47979C34.4611 8.64979 34.1111 10.0398 35.9211 11.2098C39.0011 13.1998 38.6711 15.6298 38.6611 15.7298C38.5911 16.2298 38.1611 16.5798 37.6711 16.5798L37.6811 16.5898Z" fill="#323232"/>
<path d="M33.2509 16.5899C33.2509 16.5899 33.1509 16.5899 33.1009 16.5799C32.5509 16.4999 32.1809 15.9899 32.2609 15.4399C32.2609 15.4399 32.3009 14.5699 30.9209 13.6799C28.8209 12.3199 28.8109 10.3499 29.1009 9.49993C29.2809 8.97993 29.8409 8.68993 30.3709 8.86993C30.8909 9.03993 31.1709 9.59993 31.0009 10.1199C30.9509 10.2999 30.7709 11.1999 32.0109 11.9999C34.4809 13.5999 34.2809 15.5199 34.2409 15.7399C34.1709 16.2399 33.7409 16.5899 33.2509 16.5899Z" fill="#323232"/>
</g>
<defs>
<clipPath id="clip0_17582_1487">
<rect width="48" height="48" fill="white"/>
</clipPath>
</defs>
</svg>
