<svg width="135" height="30" viewBox="0 0 135 30" fill="none" xmlns="http://www.w3.org/2000/svg">
<path d="M64.6551 0.00634766H67.8848C69.6633 0.00634766 70.9463 1.14779 70.9463 2.89977C70.9463 4.14739 70.38 4.99684 69.4332 5.40386V5.42156C70.5393 5.79319 71.194 6.71342 71.194 8.12916C71.194 9.98732 69.9199 11.1996 68.159 11.1996H64.6462V0.00634766H64.6551ZM65.8142 1.0947V4.90835H67.8405C69.0173 4.90835 69.7606 4.17394 69.7606 2.95286C69.7606 1.81142 68.9908 1.0947 67.7874 1.0947H65.8231H65.8142ZM65.8142 6.02325V10.1112H68.0175C69.2474 10.1112 69.9818 9.306 69.9818 8.08492C69.9818 6.86384 69.2651 6.02325 68.0794 6.02325H65.8142Z" fill="#191919"/>
<path d="M81.0246 0.00634766V7.79292C81.0246 9.98732 79.7062 11.3677 77.7773 11.3677C75.8483 11.3677 74.5476 9.98732 74.5476 7.79292V0.00634766H75.7156V7.82832C75.7156 9.19097 76.4677 10.1997 77.7861 10.1997C79.1045 10.1997 79.8743 9.19097 79.8743 7.82832V0.00634766H81.0423H81.0246Z" fill="#191919"/>
<path d="M89.6164 3.19186V2.91756C89.6164 1.79381 88.8997 0.926671 87.6432 0.926671C86.3868 0.926671 85.6966 1.62569 85.6966 2.61671C85.6966 3.40422 86.1832 3.96167 86.8469 4.25366L88.5015 5.00577C89.6518 5.51898 90.9348 6.20031 90.9348 8.12041C90.9348 10.0405 89.5987 11.3766 87.6521 11.3766C85.7054 11.3766 84.3605 10.1644 84.3605 8.22659V7.95229H85.5108V8.29737C85.5108 9.43881 86.2894 10.2706 87.6432 10.2706C88.997 10.2706 89.7845 9.42112 89.7845 8.27968C89.7845 7.06745 89.0059 6.58963 88.0679 6.18261L86.6434 5.53668C85.5108 5.04117 84.5728 4.22712 84.5728 2.72289C84.5728 1.03285 85.7939 -0.152832 87.6344 -0.152832C89.4748 -0.152832 90.749 1.0594 90.749 2.99719V3.2007H89.6164V3.19186Z" fill="#191919"/>
<path d="M95.4917 11.1996H94.3237V0.00634766H95.4917V11.1996Z" fill="#191919"/>
<path d="M105.667 11.1996H104.703L100.332 2.54583V11.1996H99.2434V0.00634766H100.288L104.579 8.52734V0.00634766H105.667V11.1996Z" fill="#191919"/>
<path d="M110.614 6.05864V10.0316H115.321V11.2084H109.454V0.00634766H115.206V1.18318H110.622V4.8995H114.825V6.05864H110.622H110.614Z" fill="#191919"/>
<path d="M123.479 3.19186V2.91756C123.479 1.79381 122.762 0.926671 121.506 0.926671C120.25 0.926671 119.559 1.62569 119.559 2.61671C119.559 3.40422 120.046 3.96167 120.71 4.25366L122.364 5.00577C123.515 5.51898 124.798 6.20031 124.798 8.12041C124.798 10.0405 123.462 11.3766 121.515 11.3766C119.568 11.3766 118.223 10.1644 118.223 8.22659V7.95229H119.374V8.29737C119.374 9.43881 120.152 10.2706 121.506 10.2706C122.86 10.2706 123.647 9.42112 123.647 8.27968C123.647 7.06745 122.869 6.58963 121.931 6.18261L120.506 5.53668C119.374 5.04117 118.436 4.22712 118.436 2.72289C118.436 1.03285 119.666 -0.152832 121.497 -0.152832C123.329 -0.152832 124.612 1.0594 124.612 2.99719V3.2007H123.479V3.19186Z" fill="#191919"/>
<path d="M133.168 3.19186V2.91756C133.168 1.79381 132.451 0.926671 131.195 0.926671C129.939 0.926671 129.248 1.62569 129.248 2.61671C129.248 3.40422 129.735 3.96167 130.399 4.25366L132.053 5.00577C133.204 5.51898 134.487 6.20031 134.487 8.12041C134.487 10.0405 133.15 11.3766 131.204 11.3766C129.257 11.3766 127.912 10.1644 127.912 8.22659V7.95229H129.063V8.29737C129.063 9.43881 129.841 10.2706 131.195 10.2706C132.549 10.2706 133.336 9.42112 133.336 8.27968C133.336 7.06745 132.558 6.58963 131.62 6.18261L130.195 5.53668C129.063 5.04117 128.125 4.22712 128.125 2.72289C128.125 1.03285 129.355 -0.152832 131.186 -0.152832C133.018 -0.152832 134.301 1.0594 134.301 2.99719V3.2007H133.168V3.19186Z" fill="#191919"/>
<path d="M65.7435 21.2424V29.7811H64.6552V18.5879H65.6816L68.3184 24.4013L70.9375 18.5879H71.9639V29.7811H70.8313V21.2601L68.6369 26.0825H67.9468L65.7435 21.2424Z" fill="#191919"/>
<path d="M82.1661 26.3746C82.1661 28.569 80.8211 29.9494 78.8568 29.9494C76.8924 29.9494 75.5475 28.569 75.5475 26.3746V21.9947C75.5475 19.8003 76.8394 18.4199 78.8568 18.4199C80.8742 18.4199 82.1661 19.8003 82.1661 21.9947V26.3746ZM76.7066 26.41C76.7066 27.7727 77.4853 28.7814 78.8479 28.7814C80.2106 28.7814 80.9804 27.7727 80.9804 26.41V21.9593C80.9804 20.5966 80.2106 19.5879 78.8479 19.5879C77.4853 19.5879 76.7066 20.5966 76.7066 21.9593V26.41Z" fill="#191919"/>
<path d="M92.1648 29.7811H91.2003L86.8292 21.1274V29.7811H85.7408V18.5879H86.785L91.0764 27.1089V18.5879H92.1648V29.7811Z" fill="#191919"/>
<path d="M97.1021 24.6401V28.613H101.809V29.7899H95.943V18.5967H101.686V19.7735H97.1021V23.4898H101.305V24.649H97.1021V24.6401Z" fill="#191919"/>
<path d="M105.88 18.588L108.145 24.0386L110.428 18.588H111.605L108.693 25.3039V29.7812H107.525V25.3127L104.614 18.5791H105.871L105.88 18.588Z" fill="#191919"/>
<path d="M11.3613 29.8077H41.9325L17.4313 5.2092C14.1663 1.94414 9.74207 0.00634766 5.12321 0.00634766H0L0.38048 1.00621L2.07937 5.45695L11.3613 29.8077Z" fill="url(#paint0_linear_15605_2591)"/>
<path d="M2.07938 5.45708C5.42407 11.1731 14.2105 11.7748 15.1661 20.6586C15.2015 21.0214 15.4847 21.3134 15.8475 21.3753C20.9087 22.1628 25.8373 24.251 30.1199 27.6842C30.1199 27.6842 30.1818 27.7196 30.2172 27.7196C30.2526 27.7196 30.2969 27.7019 30.3234 27.6754C30.3854 27.6134 30.3854 27.525 30.3234 27.463C27.3592 24.3484 23.7314 21.8531 19.6611 20.2162L18.4223 19.7207C17.7853 19.4641 17.3428 18.8358 17.3605 18.1103C17.4313 15.4558 23.7137 15.9955 24.3419 14.7213L24.4481 14.5001C23.1562 13.3941 21.6166 12.5623 19.9266 12.1022C19.9089 12.1642 19.8735 12.4739 20.2186 13.0401C20.5902 13.6507 19.8115 14.6152 18.6701 13.5711L18.5728 13.4826C10.1049 5.70484 3.74288 9.73085 0.380493 1.00635L2.07938 5.45708Z" fill="white"/>
<path d="M22.4838 14.3497C22.4838 14.3497 21.0946 14.4204 20.2363 13.0312C20.4929 13.4471 20.2097 14.0223 19.6434 14.0311V16.1459C20.5548 15.8804 21.5989 15.7212 22.4749 15.5353V14.3585L22.4838 14.3497Z" fill="url(#paint1_linear_15605_2591)"/>
<path d="M16.9004 21.561C21.59 22.4636 26.1381 24.4899 30.1199 27.6841C21.2361 20.0922 17.1835 21.4637 16.9004 21.561Z" fill="url(#paint2_linear_15605_2591)"/>
<path d="M3.86676 5.85526C2.48641 4.87309 1.31842 3.4308 0.380493 1.00635L2.07938 5.45708C5.42407 11.1731 14.2105 11.7748 15.1661 20.6586C14.2017 9.31498 9.22003 11.0139 3.86676 5.85526Z" fill="url(#paint3_linear_15605_2591)"/>
<path d="M53.3292 -0.108398V29.9938" stroke="#191919" stroke-width="0.666625" stroke-miterlimit="10"/>
<defs>
<linearGradient id="paint0_linear_15605_2591" x1="26.5717" y1="29.7015" x2="6.17617" y2="-0.0821316" gradientUnits="userSpaceOnUse">
<stop stop-color="#BE0000"/>
<stop offset="0.39" stop-color="#DD0000"/>
<stop offset="0.77" stop-color="#F60000"/>
<stop offset="1" stop-color="#FF0000"/>
</linearGradient>
<linearGradient id="paint1_linear_15605_2591" x1="20.9353" y1="16.2609" x2="21.2096" y2="13.1197" gradientUnits="userSpaceOnUse">
<stop offset="0.65" stop-color="white" stop-opacity="0"/>
<stop offset="0.69" stop-color="#ECECEC" stop-opacity="0.0529"/>
<stop offset="0.76" stop-color="#D6D6D6" stop-opacity="0.25"/>
<stop offset="0.81" stop-color="#C5C5C5" stop-opacity="0.5184"/>
<stop offset="0.87" stop-color="#B9B9B9" stop-opacity="0.7569"/>
<stop offset="0.91" stop-color="#B1B1B1" stop-opacity="0.9409"/>
<stop offset="0.95" stop-color="#AFAFAF"/>
</linearGradient>
<linearGradient id="paint2_linear_15605_2591" x1="16.9004" y1="24.5518" x2="30.1199" y2="24.5518" gradientUnits="userSpaceOnUse">
<stop stop-color="white" stop-opacity="0"/>
<stop offset="0.07" stop-color="#F3F3F3" stop-opacity="0.0225"/>
<stop offset="0.21" stop-color="#DEDEDE" stop-opacity="0.1681"/>
<stop offset="0.35" stop-color="#CDCDCD" stop-opacity="0.3844"/>
<stop offset="0.49" stop-color="#C0C0C0" stop-opacity="0.6241"/>
<stop offset="0.63" stop-color="#B6B6B6" stop-opacity="0.8281"/>
<stop offset="0.77" stop-color="#B0B0B0" stop-opacity="0.9604"/>
<stop offset="0.9" stop-color="#AFAFAF"/>
</linearGradient>
<linearGradient id="paint3_linear_15605_2591" x1="0.380493" y1="10.8369" x2="15.1661" y2="10.8369" gradientUnits="userSpaceOnUse">
<stop offset="0.25" stop-color="white" stop-opacity="0"/>
<stop offset="0.36" stop-color="#F6F6F6" stop-opacity="0.0121"/>
<stop offset="0.58" stop-color="#E0E0E0" stop-opacity="0.1444"/>
<stop offset="0.88" stop-color="#BDBDBD" stop-opacity="0.6724"/>
<stop offset="1" stop-color="#AFAFAF"/>
</linearGradient>
</defs>
</svg>
