<svg width="247" height="34" viewBox="0 0 247 34" fill="none" xmlns="http://www.w3.org/2000/svg">
<path d="M12.8246 33.65H47.3366L19.6812 5.87506C15.9959 2.19008 10.9979 0 5.7865 0H0L0.431066 1.13093L2.34707 6.15812L12.8246 33.65Z" fill="url(#paint0_linear_10470_9642)"/>
<path d="M2.34716 6.15805C6.12573 12.6105 16.0411 13.2915 17.1199 23.325C17.1642 23.7378 17.4806 24.0686 17.8909 24.1328C23.6049 25.0256 29.1706 27.3783 34.0063 31.255L34.0106 31.2585C34.0423 31.284 34.0756 31.2963 34.1183 31.2963C34.161 31.2963 34.2038 31.2807 34.2371 31.2489C34.306 31.1834 34.3087 31.0743 34.2432 31.0054C30.8945 27.4862 26.8028 24.674 22.2099 22.825L20.8121 22.2623C20.0931 21.9729 19.5941 21.2597 19.6156 20.4393C19.6941 17.4415 26.7833 18.0513 27.502 16.6101L27.6257 16.3621C26.1659 15.1146 24.4315 14.1765 22.5212 13.6518C22.5042 13.7239 22.4578 14.0736 22.8466 14.7065C23.2693 15.3947 22.384 16.4893 21.0955 15.3085L20.9871 15.2092C11.4083 6.43188 4.22614 10.9834 0.431152 1.13086L2.34716 6.15805Z" fill="white"/>
<path d="M25.382 16.1993C25.382 16.1993 23.8111 16.2774 22.8463 14.7065C23.1333 15.1739 22.8169 15.829 22.1809 15.8309V18.2225C23.2137 17.9225 24.3918 17.7387 25.382 17.5306V16.1993Z" fill="url(#paint1_linear_10470_9642)"/>
<path d="M19.0767 24.3395C24.3726 25.359 29.5057 27.6469 34.0059 31.2549C23.9733 22.6833 19.4021 24.2332 19.0767 24.3395Z" fill="url(#paint2_linear_10470_9642)"/>
<path d="M4.36444 6.60673C2.80543 5.49821 1.48707 3.87233 0.431152 1.13086L2.34716 6.15805C6.12537 12.6098 16.0391 13.2914 17.1195 23.322C16.029 10.5199 10.4057 12.4333 4.36444 6.60673Z" fill="url(#paint3_linear_10470_9642)"/>
<path d="M177.55 24.0333H191.4V27.4333H173.55V12.3394H177.55V24.0333Z" fill="#DF0000"/>
<path d="M197.7 27.4848H193.7V12.3394H197.7V27.4848Z" fill="#DF0000"/>
<path d="M221.25 12.3394V27.4849H217.25L205.6 17.4394V27.4849H201.6V12.3394H204.1C205.077 12.2755 206.035 12.6296 206.75 13.3182L217.25 22.3333V12.3394H221.25Z" fill="#DF0000"/>
<path d="M229.15 27.4848H225.15V12.3394H229.15V18.1606H231.05C231.596 18.1967 232.134 18.0119 232.55 17.6454L239.5 12.3394H244.75C244.779 12.3499 244.802 12.3738 244.812 12.404C244.822 12.4342 244.817 12.4674 244.8 12.4939L235.25 19.706L245.4 27.3303C245.417 27.3567 245.422 27.3899 245.412 27.4202C245.402 27.4504 245.379 27.4743 245.35 27.4848H239.65L232.5 22.1272C232.084 21.7607 231.546 21.5759 231 21.6121H229.15V27.4848Z" fill="#DF0000"/>
<path fill-rule="evenodd" clip-rule="evenodd" d="M40 19.2424C40 23.8273 44.35 27.4848 51.15 27.4848L60.3 27.4333C61.5291 27.5456 62.6996 26.8711 63.25 25.7333L64.2 24.0333H60.2C61.85 22.6939 62.7 21.0455 62.7 19.0364C62.7 14.6061 58.1 11 51.35 11C44.6 11 40 14.6576 40 19.2424ZM58.2 19.2424C58.2 21.8182 55.05 23.7242 51.35 23.7242C47.6 23.7242 44.5 21.8697 44.5 19.2424C44.5 16.6152 47.65 14.7606 51.35 14.7606C55.05 14.7606 58.2 16.6667 58.2 19.2424Z" fill="#323232"/>
<path fill-rule="evenodd" clip-rule="evenodd" d="M70.2 24.7028H80.95L82.5 27.4846H87L79.5 14.1937C78.9208 12.9912 77.7007 12.2612 76.4 12.3392H74.75C73.4492 12.2612 72.2291 12.9912 71.65 14.1937L64.2 27.4846H68.65L70.2 24.7028ZM79.15 21.3543H72.05L75.35 15.3271C75.4 15.1725 75.5 15.121 75.6 15.121C75.7 15.121 75.75 15.1725 75.85 15.3271L79.15 21.3543Z" fill="#323232"/>
<path d="M108.25 12.3394V27.4849H104.25L92.55 17.4394V27.4849H88.55V12.3394H91.05C92.0266 12.2755 92.9854 12.6296 93.7 13.3182L104.2 22.3333V12.3394H108.25Z" fill="#323232"/>
<path d="M122.35 15.7394V27.4848H118.35V15.7394H110.25V12.3394H130.55V15.7394H122.35Z" fill="#323232"/>
<path fill-rule="evenodd" clip-rule="evenodd" d="M131.5 27.4846L133.05 24.7028H143.75L145.25 27.4846H149.8L142.35 14.1937C141.771 12.9912 140.551 12.2612 139.25 12.3392H137.6C136.299 12.2612 135.079 12.9912 134.5 14.1937L127.05 27.4846H131.5ZM138.65 15.3271L141.95 21.3543H134.85L138.15 15.3271C138.2 15.1725 138.3 15.121 138.4 15.121C138.5 15.121 138.55 15.1725 138.65 15.3271Z" fill="#323232"/>
<path d="M151.2 26.4031L150.85 26.3001L151.85 23.0031C154.666 23.906 157.601 24.3577 160.55 24.3425C165.1 24.3425 166.2 23.7759 166.2 23.2092C166.2 22.6425 166.05 22.7971 165.7 22.6425C165.35 22.488 164 22.2304 160.3 21.6122C156.6 20.994 154.35 20.5819 153 19.9122C151.65 19.2425 150.8 18.2122 150.8 16.7183C150.835 15.6086 151.372 14.5795 152.25 13.9365C153.8 12.7001 156.5 12.185 159.4 12.185C162.92 12.1399 166.432 12.5553 169.85 13.4213L170.15 13.5243L169.3 16.7183C166.334 15.9921 163.298 15.6119 160.25 15.585C158.808 15.5065 157.361 15.6278 155.95 15.9456C155.5 16.1001 155.35 16.3062 155.35 16.5122C155.35 16.7183 155.5 16.9243 155.9 17.0789C156.3 17.2334 157.15 17.4395 161.15 18.1092C165.15 18.7789 166.95 19.1395 168.15 19.6031C169.35 20.0668 170.75 21.4577 170.75 22.9516C170.75 24.4456 169.35 26.1971 166.9 26.9698C164.993 27.4922 163.023 27.735 161.05 27.691C157.45 27.691 153.65 27.1759 151.2 26.4031Z" fill="#323232"/>
<defs>
<linearGradient id="paint0_linear_10470_9642" x1="30.0257" y1="33.5697" x2="7.00022" y2="-0.0581819" gradientUnits="userSpaceOnUse">
<stop stop-color="#BE0000"/>
<stop offset="0.3898" stop-color="#DE0000"/>
<stop offset="0.768" stop-color="#F60000"/>
<stop offset="1" stop-color="#FF0000"/>
</linearGradient>
<linearGradient id="paint1_linear_10470_9642" x1="23.6354" y1="18.3498" x2="23.9458" y2="14.8027" gradientUnits="userSpaceOnUse">
<stop offset="0.65" stop-color="white" stop-opacity="0"/>
<stop offset="0.7285" stop-color="#E0E0E0" stop-opacity="0.2617"/>
<stop offset="0.8148" stop-color="#C5C5C5" stop-opacity="0.5493"/>
<stop offset="0.8914" stop-color="#B5B5B5" stop-opacity="0.8047"/>
<stop offset="0.95" stop-color="#AFAFAF"/>
</linearGradient>
<linearGradient id="paint2_linear_10470_9642" x1="19.0767" y1="27.7097" x2="34.0059" y2="27.7097" gradientUnits="userSpaceOnUse">
<stop stop-color="white" stop-opacity="0"/>
<stop offset="0.0839" stop-color="#F1F1F1" stop-opacity="0.0932"/>
<stop offset="0.2921" stop-color="#D4D4D4" stop-opacity="0.3246"/>
<stop offset="0.4993" stop-color="#C0C0C0" stop-opacity="0.5548"/>
<stop offset="0.7032" stop-color="#B3B3B3" stop-opacity="0.7814"/>
<stop offset="0.9" stop-color="#AFAFAF"/>
</linearGradient>
<linearGradient id="paint3_linear_10470_9642" x1="0.431176" y1="12.2264" x2="17.1195" y2="12.2264" gradientUnits="userSpaceOnUse">
<stop offset="0.25" stop-color="white" stop-opacity="0"/>
<stop offset="0.4615" stop-color="#EDEDED" stop-opacity="0.282"/>
<stop offset="0.886" stop-color="#BDBDBD" stop-opacity="0.848"/>
<stop offset="1" stop-color="#AFAFAF"/>
</linearGradient>
</defs>
</svg>
