<svg width="24" height="24" viewBox="0 0 24 24" fill="none" xmlns="http://www.w3.org/2000/svg">
<path fill-rule="evenodd" clip-rule="evenodd" d="M2.00345 21.3988C2.00345 21.7287 2.27348 21.9987 2.6035 21.9987L21.4049 22C21.7346 22 22.0048 21.7298 22.0048 21.4001L22.0013 2.60005C22.0013 2.27003 21.7311 2 21.4013 2L2.59972 2.00345C2.26987 2.00362 2 2.27348 2 2.60367L2.00345 21.3988Z" fill="#15458A"/>
<path fill-rule="evenodd" clip-rule="evenodd" d="M8.0723 11.1538C9.03443 11.1544 9.49082 11.4128 9.67426 11.5085C9.79311 11.5707 9.76639 11.6618 9.76639 11.6618C9.76639 11.6618 9.67557 12.1323 9.66738 12.1674C9.65361 12.228 9.61541 12.21 9.56361 12.177C9.2877 12.0039 8.97246 11.8125 8.46738 11.8128C7.87672 11.8131 7.57607 12.259 7.73311 12.878C7.75623 12.9694 7.83809 13.2993 7.92943 13.6695L8.0221 14.0458C8.11428 14.4208 8.19951 14.77 8.22852 14.8952C8.48147 15.9882 7.7582 17.2775 5.76328 17.2779C4.65525 17.2782 3.95705 16.857 3.7218 16.6631C3.59689 16.56 3.55934 16.5016 3.5759 16.4328C3.5759 16.4328 3.73213 15.9074 3.74279 15.8697C3.76311 15.7962 3.80672 15.7777 3.83951 15.8113C4.03738 16.0126 4.62361 16.5941 5.47508 16.5941C6.39197 16.5941 6.33377 15.8333 6.33344 15.7226C6.33197 15.4352 5.93311 13.9443 5.83344 13.5461C5.5218 12.3013 6.28328 11.153 8.0723 11.1538ZM18.5969 11.152C19.5584 11.1525 20.0152 11.4107 20.1987 11.5066C20.3175 11.569 20.2903 11.6598 20.2903 11.6598C20.2903 11.6598 20.1995 12.1303 20.1918 12.1654C20.178 12.2259 20.1398 12.2082 20.0875 12.1751C19.812 12.002 19.4967 11.8105 18.9915 11.8107C18.4011 11.8113 18.1005 12.2569 18.2575 12.8761C18.3113 13.089 18.6852 14.601 18.7526 14.8931C19.0059 15.9862 18.2825 17.2754 16.2879 17.2759C15.1795 17.2762 14.5366 16.8872 14.3013 16.6933C14.1762 16.5903 14.1387 16.5318 14.1552 16.4631C14.1552 16.4631 14.2613 15.9066 14.2672 15.868C14.2761 15.8041 14.3421 15.7875 14.3864 15.8315C14.5857 16.031 15.1477 16.5923 15.9995 16.592C16.9167 16.592 16.8582 15.8311 16.8579 15.721C16.8566 15.4333 16.4575 13.9425 16.3579 13.5441C16.0462 12.2993 16.8077 11.151 18.5969 11.152ZM14.5298 11.2813C14.6026 11.2813 14.5823 11.3418 14.5823 11.3418L13.4508 17.13C13.4452 17.1584 13.4349 17.1679 13.4061 17.1679L13.1017 17.1679C13.0533 17.1679 13.001 17.168 12.9459 17.168L11.3972 17.1684C11.3395 17.1684 11.3348 17.1236 11.3379 17.107C11.3379 17.107 11.5751 15.8872 11.5803 15.8621C11.5852 15.8374 11.5598 15.8389 11.5598 15.8389L11.1325 15.8389C11.0836 15.8389 11.0322 15.839 10.9794 15.839L9.89771 15.8392C9.87705 15.8392 9.86147 15.8621 9.86147 15.8621L8.87148 17.132C8.85918 17.1497 8.85229 17.1684 8.78328 17.1684L8.09459 17.1685C8.04787 17.1685 8.04197 17.1343 8.06918 17.101L12.7213 11.3307C12.7213 11.3307 12.7564 11.2818 12.8415 11.2818L14.5298 11.2813ZM12.132 12.9667C12.1182 12.9667 12.1051 12.9841 12.1051 12.9841L10.3674 15.2129C10.3674 15.2129 10.3574 15.2246 10.3626 15.2326C10.3684 15.2405 10.3766 15.2384 10.3766 15.2384H11.6838C11.6838 15.2384 11.6954 15.2384 11.6995 15.2343C11.7038 15.2302 11.7051 15.2208 11.7051 15.2208L12.1408 12.9859C12.1408 12.9859 12.1456 12.9667 12.132 12.9667Z" fill="#FFFFFE"/>
</svg>
