<svg width="24" height="24" viewBox="0 0 24 24" fill="none" xmlns="http://www.w3.org/2000/svg">
<g clip-path="url(#clip0_10513_11151)">
<path fill-rule="evenodd" clip-rule="evenodd" d="M7.4 17H5.8L7.8 10.2632H3.4L2.2 11.9474H1L1.8 9L1 6.05263H2.2L3.4 7.73684H7.8L5.8 1H7.4L11.4 7.73684H15.8C16.464 7.73684 17 8.30105 17 9C17 9.69895 16.464 10.2632 15.8 10.2632H11.4L7.4 17ZM14.4625 21.5375C15.4375 22.5125 16.6167 23 18 23C19.3833 23 20.5625 22.5125 21.5375 21.5375C22.5125 20.5625 23 19.3833 23 18C23 16.6167 22.5125 15.4375 21.5375 14.4625C20.5625 13.4875 19.3833 13 18 13C16.6167 13 15.4375 13.4875 14.4625 14.4625C13.4875 15.4375 13 16.6167 13 18C13 19.3833 13.4875 20.5625 14.4625 21.5375ZM19.65 20.15C19.5167 20.15 19.4 20.1 19.3 20L17.65 18.35C17.55 18.15 17.5 18.0333 17.5 18V15.5C17.5 15.3667 17.55 15.25 17.65 15.15C17.75 15.05 17.8667 15 18 15C18.1333 15 18.25 15.05 18.35 15.15C18.45 15.25 18.5 15.3667 18.5 15.5V17.8L20 19.3C20.1 19.4 20.15 19.5167 20.15 19.65C20.15 19.7833 20.1 19.9 20 20C19.9 20.1 19.7833 20.15 19.65 20.15Z" fill="#323232"/>
</g>
<defs>
<clipPath id="clip0_10513_11151">
<rect width="24" height="24" fill="white"/>
</clipPath>
</defs>
</svg>
