<svg width="24" height="24" viewBox="0 0 24 24" fill="none" xmlns="http://www.w3.org/2000/svg">
<path d="M18.2369 15.1323C16.575 15.2087 15.1232 14.5784 15.9255 12.9929C16.7278 11.4074 20.701 9.57359 22 9.00053C22 9.00053 15.1232 9.00053 14.703 9.00053C14.4546 9.00053 14.149 8.96232 13.958 9.53539C13.8243 9.95564 13.1557 11.5984 11.7039 12.0951C9.90831 12.7255 8.39924 11.6939 6.10697 9.87923C5.24737 9.21065 5.11366 9.13424 4.29226 9.26796C3.87202 9.34437 2.95511 9.11514 2.68768 9.05784C2.42025 8.98143 2 9.01963 2 9.01963C2 9.05784 3.66189 9.28706 6.87106 11.5793C8.0936 12.458 10.2713 14.1581 12.5253 15.1323C14.9704 16.2021 18.5234 16.756 21.7708 14.502L21.7899 14.3682C21.7517 14.4065 19.8797 15.075 18.2369 15.1323Z" fill="#008BCE"/>
</svg>
