<svg width="48" height="48" viewBox="0 0 48 48" fill="none" xmlns="http://www.w3.org/2000/svg">
<path d="M8.01008 24.8101C7.58008 26.3001 7.33008 27.8601 7.33008 29.4901H40.6701C40.6701 27.8601 40.4301 26.3001 39.9901 24.8101H8.01008Z" fill="#8DE2E0"/>
<path d="M28.7901 12.4799V8.89988C28.7901 8.34988 28.3401 7.89988 27.7901 7.89988H25.0001V2.87988C25.0001 2.32988 24.5501 1.87988 24.0001 1.87988C23.4501 1.87988 23.0001 2.32988 23.0001 2.87988V7.90988H20.2001C19.6501 7.90988 19.2001 8.35988 19.2001 8.90988V12.4899C11.5801 14.6199 6.33008 21.5099 6.33008 29.4999C6.33008 30.0499 6.78008 30.4999 7.33008 30.4999H17.6701C17.9401 33.7599 20.6801 36.3199 24.0001 36.3199C27.3201 36.3199 30.0601 33.7499 30.3301 30.4999H40.6601C41.2101 30.4999 41.6601 30.0499 41.6601 29.4999C41.6601 21.4999 36.4001 14.6099 28.7801 12.4899L28.7901 12.4799ZM24.0101 34.3099C21.7901 34.3099 19.9701 32.6399 19.7001 30.4899H28.3101C28.0401 32.6399 26.2201 34.3099 24.0001 34.3099H24.0101ZM8.36008 28.4899C8.79008 21.5999 13.6301 15.8099 20.4301 14.2299C20.8801 14.1199 21.2001 13.7199 21.2001 13.2599V9.90988H23.9901H26.7701V13.2599C26.7701 13.7299 27.0901 14.1299 27.5401 14.2299C34.3401 15.8099 39.1901 21.5899 39.6201 28.4899H8.36008Z" fill="#323232"/>
<path d="M24.0098 46.1201C23.4598 46.1201 23.0098 45.6701 23.0098 45.1201V39.6401C23.0098 39.0901 23.4598 38.6401 24.0098 38.6401C24.5598 38.6401 25.0098 39.0901 25.0098 39.6401V45.1201C25.0098 45.6701 24.5598 46.1201 24.0098 46.1201Z" fill="#DF0000"/>
<path d="M36.7497 42.58C36.4897 42.58 36.2397 42.48 36.0397 42.29L32.1597 38.41C31.7697 38.02 31.7697 37.39 32.1597 37C32.5497 36.61 33.1797 36.61 33.5697 37L37.4497 40.88C37.8397 41.27 37.8397 41.9 37.4497 42.29C37.2497 42.49 36.9997 42.58 36.7397 42.58H36.7497Z" fill="#DF0000"/>
<path d="M11.2505 42.58C10.9905 42.58 10.7405 42.48 10.5405 42.29C10.1505 41.9 10.1505 41.27 10.5405 40.88L14.4205 37C14.8105 36.61 15.4405 36.61 15.8305 37C16.2205 37.39 16.2205 38.02 15.8305 38.41L11.9505 42.29C11.7505 42.49 11.5005 42.58 11.2405 42.58H11.2505Z" fill="#DF0000"/>
</svg>
