<svg width="24" height="24" viewBox="0 0 24 24" fill="none" xmlns="http://www.w3.org/2000/svg">
<path d="M11.9993 16.8231C11.8243 16.9168 10.5775 17.9792 8.09017 17.9792C5.99655 17.9792 3.76231 16.9105 3.06236 16.9324C2.85561 16.9223 2.64929 16.9597 2.45927 17.0418C2.16867 17.1637 1.97805 16.9699 2.00305 16.8043C2.1075 16.5487 2.2567 16.3138 2.44365 16.1106C2.70135 15.7937 3.00463 15.5167 3.34359 15.2888C4.00889 14.7932 4.83798 14.5698 5.66219 14.6638C5.8663 14.6943 6.05205 14.7989 6.18404 14.9575C6.86212 15.6075 8.08079 16.4231 9.01823 16.5918C9.11823 16.5918 9.5432 16.6449 9.55257 16.5231C9.55257 16.4512 9.43695 16.4231 9.39633 16.4137C7.89018 16.0731 7.01836 15.3388 6.19029 14.5794C5.54428 13.9699 5.01018 13.2518 4.61226 12.4577C4.29978 11.864 3.87793 10.6953 3.09986 10.3047C2.92487 10.2172 2.91862 9.90162 3.28422 9.81725C3.53733 9.75475 5.07473 9.61101 6.90587 10.6016C7.62769 10.9922 7.86205 11.4265 7.88705 11.539C7.88705 11.539 7.9308 11.564 7.94017 11.7515C8.03704 14.3888 9.1901 15.2763 9.76193 15.6825C9.99004 15.8606 10.2744 15.9356 10.3525 15.8575C10.4306 15.7794 10.2931 15.7356 10.2338 15.695C8.61201 14.6294 8.29953 13.2389 8.21203 11.7453C8.12454 10.2516 8.75262 8.97355 9.14947 7.92049C9.32269 7.47372 9.36178 6.98612 9.26197 6.51746C9.14635 6.12686 9.26197 6.03624 9.48383 6.00187C9.70569 5.96749 10.0307 6.41746 10.1463 6.55808C10.4717 6.96164 10.7466 7.40342 10.965 7.87362C11.5285 9.0739 11.8259 10.3818 11.8368 11.7078C11.8212 12.9577 11.5931 13.0202 11.0056 13.3077C10.5751 13.4419 10.2711 13.8265 10.24 14.2763C10.24 14.6669 10.5306 14.9544 11.0619 15.1825L11.1868 15.22C11.4212 15.2763 11.6149 15.22 11.6149 15.1357C11.6149 15.0513 11.3837 15.0263 11.3837 15.0263C10.8681 14.8982 10.5088 14.6076 10.5088 14.2732C10.5088 13.8201 11.1337 13.3608 11.9587 13.3608H12.043C12.8555 13.3608 13.4898 13.8201 13.4898 14.2732C13.4898 14.6076 13.1305 14.8982 12.6149 15.0263C12.6149 15.0263 12.3836 15.0575 12.3836 15.1325C12.3836 15.2075 12.5774 15.2763 12.8117 15.2169L12.9399 15.1794C13.4711 14.9544 13.7586 14.6638 13.7586 14.2732C13.7279 13.8239 13.4235 13.4399 12.993 13.3077C12.4055 13.0202 12.1805 12.9452 12.1618 11.7078C12.1737 10.3823 12.47 9.07481 13.0305 7.87362C13.2483 7.40243 13.5244 6.96046 13.8523 6.55808C13.9648 6.41746 14.296 5.97062 14.5179 6.00187C14.7397 6.03311 14.8522 6.12686 14.7366 6.51433C14.6367 6.98403 14.6758 7.47265 14.8491 7.92049C15.2428 8.97355 15.8709 10.261 15.7866 11.7453C15.7022 13.2295 15.3866 14.6294 13.7648 15.695C13.7023 15.7356 13.6148 15.8169 13.6492 15.8575C13.6836 15.8981 14.0117 15.8575 14.2367 15.6825C14.7991 15.2763 15.9584 14.3888 16.0553 11.7515C16.0709 11.564 16.1147 11.539 16.1147 11.539C16.1397 11.4328 16.3709 10.9953 17.0896 10.6016C18.927 9.60789 20.4613 9.75475 20.7144 9.81412C21.08 9.90162 21.0737 10.2203 20.9019 10.3016C20.1175 10.6953 19.6926 11.864 19.3863 12.4546C18.9942 13.25 18.4654 13.9703 17.8239 14.5826C16.9927 15.3388 16.1209 16.0731 14.6148 16.4168C14.5773 16.4168 14.4554 16.4512 14.4616 16.5231C14.4616 16.6449 14.8929 16.6012 14.996 16.5918C15.9334 16.4262 17.149 15.6075 17.8302 14.9575C17.9627 14.7996 18.1482 14.6952 18.352 14.6638C19.175 14.5734 20.0018 14.7966 20.6675 15.2888C21.0089 15.5124 21.3118 15.7899 21.5643 16.1106C21.7476 16.3153 21.8946 16.55 21.9987 16.8043C22.0237 16.9699 21.833 17.1637 21.5424 17.0418C21.3524 16.9597 21.1461 16.9223 20.9394 16.9324C20.2394 16.9137 18.0052 17.9792 15.9115 17.9792C13.4242 17.9761 12.1743 16.9168 11.9993 16.8231Z" fill="#D09B2B"/>
</svg>
