<svg width="24" height="24" viewBox="0 0 24 24" fill="none" xmlns="http://www.w3.org/2000/svg">
<path fill-rule="evenodd" clip-rule="evenodd" d="M7.29334 14.2923C7.29334 14.2923 6.85576 14.1718 6.66456 13.9305H4.92749C4.16918 13.9305 3.94583 13.7864 3.70491 13.5548H3.2012L3.3038 13.6707C3.659 14.0639 4.0142 14.2923 4.79439 14.2923H7.29334ZM6.53544 13.4159C6.53544 13.4159 6.09786 13.2955 5.90667 13.0541H4.1696C3.26899 13.0541 3.12321 12.8515 2.80596 12.5396H8.38398C8.40859 12.4167 8.43901 12.296 8.47556 12.1778H2L2.54598 12.7944C2.90119 13.1876 3.25639 13.4159 4.0365 13.4159H6.53544ZM9.22135 15.683H6.4432C5.68489 15.683 5.46154 15.539 5.22062 15.3074H4.71691L4.81951 15.4233C5.17471 15.8165 5.53 16.0448 6.3101 16.0448H9.58377C9.45473 15.9327 9.33365 15.8119 9.22135 15.683ZM8.05115 15.1685C8.05115 15.1685 7.61357 15.048 7.42237 14.8068H5.68539C4.92699 14.8068 4.70373 14.6627 4.46281 14.4312H3.95901L4.06169 14.547C4.4169 14.9402 4.7721 15.1685 5.55221 15.1685H8.05115ZM17.5568 15.683H14.7786C14.6664 15.8119 14.5453 15.9327 14.4162 16.0448H17.6899C18.47 16.0448 18.8252 15.8165 19.1804 15.4233L19.2831 15.3074H18.7794C18.5384 15.539 18.3151 15.683 17.5568 15.683ZM18.3146 14.8068H16.5775C16.3864 15.048 15.9488 15.1685 15.9488 15.1685H18.4478C19.2279 15.1685 19.5831 14.9402 19.9383 14.547L20.0409 14.4312H19.5372C19.2963 14.6627 19.073 14.8068 18.3146 14.8068ZM19.0725 13.9305H17.3354C17.1442 14.1718 16.7067 14.2923 16.7067 14.2923H19.2056C19.9857 14.2923 20.3409 14.0639 20.6962 13.6707L20.7988 13.5548H20.2951C20.0541 13.7864 19.8308 13.9305 19.0725 13.9305ZM15.5244 12.1778C15.561 12.296 15.5914 12.4167 15.616 12.5396H21.194C20.8768 12.8515 20.7309 13.0541 19.8303 13.0541H18.0933C17.9021 13.2955 17.4645 13.4159 17.4645 13.4159H19.9635C20.7436 13.4159 21.0988 13.1876 21.454 12.7944L22 12.1778H15.5244ZM9.94817 9.40245C9.94817 9.40245 9.97767 9.19153 9.76684 9.09349C9.62943 9.02976 9.47769 8.92998 9.38951 8.82746C9.30166 8.72403 9.23826 8.59135 9.23685 8.36767C9.23702 8.13636 9.30356 7.98826 9.38826 7.89288C9.47338 7.79823 9.58816 7.74154 9.77164 7.73997C10.0169 7.73997 10.1689 7.89205 10.4435 8.10288C10.666 8.27377 11.1398 8.30891 11.1741 7.99995C10.7868 8.00973 10.5368 7.80867 10.4043 7.68113C10.2572 7.51447 10.0324 7.38062 9.76684 7.38226C9.50901 7.38087 9.28177 7.47949 9.12439 7.65958C8.9661 7.83876 8.88437 8.07918 8.88437 8.36767C8.88305 8.66395 8.99129 8.88663 9.13284 9.04808C9.27373 9.21043 9.54606 9.36814 9.94817 9.40245ZM10.2168 9.22999C10.3109 9.1883 10.4067 9.14985 10.5042 9.11471C10.3625 8.67621 10.0769 8.80343 10.0288 8.94771C10.0288 8.94771 10.1589 8.99296 10.2168 9.22999ZM10.5153 8.68748C10.5153 8.68748 10.6652 8.6903 10.7766 9.02636C10.8805 8.99644 10.986 8.97026 11.0929 8.94788C10.9452 8.51494 10.6539 8.42726 10.5153 8.68748ZM11.2322 7.75224C11.4897 7.64732 11.648 7.29891 11.4783 7.01945C11.4314 6.94602 11.3373 6.91428 11.2537 6.94834C11.1596 6.98672 11.1142 7.09412 11.1526 7.18819C11.179 7.25275 11.2377 7.29435 11.3024 7.30172C11.3024 7.30172 11.2886 7.39256 11.1146 7.46333C10.9407 7.53427 10.8674 7.479 10.8674 7.479C10.9084 7.42844 10.9215 7.35775 10.8951 7.29319C10.8567 7.19896 10.7492 7.15371 10.6551 7.19208C10.5716 7.22614 10.5266 7.31465 10.5442 7.40001C10.6181 7.71851 10.9748 7.85716 11.2322 7.75224ZM13.9493 9.93261V9.53141C13.366 9.22543 12.7031 9.05131 12.0001 9.05131C11.297 9.05131 10.634 9.22543 10.0508 9.53141V9.93261C10.623 9.59704 11.2888 9.40378 12.0001 9.40378C12.7114 9.40378 13.3771 9.59704 13.9493 9.93261ZM11.9998 7.14128C11.8395 7.14128 11.7096 7.27131 11.7096 7.43142C11.7096 7.59179 11.8395 7.72174 11.9998 7.72174C12.1601 7.72174 12.29 7.59179 12.29 7.43142C12.29 7.27131 12.1601 7.14128 11.9998 7.14128ZM11.6395 7.10896L11.9998 6.84715L12.3602 7.10896L12.2225 6.68538L12.5829 6.42358H12.1375L11.9998 6L11.8622 6.42358H11.4168L11.7771 6.68538L11.6395 7.10896ZM12.2966 8.86418C12.409 8.87172 12.5203 8.8834 12.6303 8.89915C12.7325 8.49795 12.9389 8.44988 12.9389 8.44988C12.7692 8.15285 12.4242 8.31413 12.2966 8.86418ZM12.0001 7.92578L11.9998 7.92553V7.92603C11.8461 8.07255 11.7749 8.29001 11.7749 8.29001C11.8763 8.3651 12.0001 8.61687 12.0001 8.61687C12.0001 8.61687 12.1238 8.3651 12.2253 8.29001C12.2253 8.29001 12.154 8.07255 12.0003 7.92603V7.92553L12.0001 7.92578ZM11.3698 8.89915C11.4798 8.8834 11.5911 8.87172 11.7036 8.86418C11.576 8.31413 11.231 8.15285 11.0613 8.44988C11.0613 8.44988 11.2677 8.49795 11.3698 8.89915ZM13.9714 8.94771C13.9233 8.80343 13.6376 8.67621 13.496 9.11471C13.5934 9.14985 13.6892 9.1883 13.7833 9.22999C13.8412 8.99296 13.9714 8.94771 13.9714 8.94771ZM13.5566 8.10288C13.8313 7.89205 13.9833 7.73997 14.2285 7.73997C14.4119 7.74154 14.5268 7.79823 14.6118 7.89288C14.6966 7.98826 14.7632 8.13636 14.7633 8.36767C14.7619 8.59135 14.6984 8.72403 14.6107 8.82746C14.5224 8.92998 14.3707 9.02976 14.2333 9.09349C14.0225 9.19153 14.052 9.40245 14.052 9.40245C14.454 9.36814 14.7264 9.21043 14.8673 9.04808C15.0089 8.88663 15.1171 8.66395 15.1158 8.36767C15.1158 8.07918 15.034 7.83876 14.8758 7.65958C14.7184 7.47949 14.4911 7.38087 14.2333 7.38226C13.9678 7.38062 13.743 7.51447 13.5958 7.68113C13.4634 7.80867 13.2133 8.00973 12.826 7.99995C12.8603 8.30891 13.3341 8.27377 13.5566 8.10288ZM13.4849 8.68748C13.3462 8.42726 13.0548 8.51494 12.9072 8.94788C13.0141 8.97026 13.1196 8.99644 13.2236 9.02636C13.3349 8.6903 13.4849 8.68748 13.4849 8.68748ZM12.5219 7.01945C12.3521 7.29891 12.5104 7.64732 12.7678 7.75224C13.0253 7.85716 13.3821 7.71851 13.4559 7.40001C13.4736 7.31465 13.4285 7.22614 13.345 7.19208C13.2509 7.15371 13.1434 7.19896 13.1051 7.29319C13.0786 7.35775 13.0917 7.42844 13.1327 7.479C13.1327 7.479 13.0595 7.53427 12.8855 7.46333C12.7116 7.39256 12.6978 7.30172 12.6978 7.30172C12.7625 7.29435 12.8211 7.25275 12.8475 7.18819C12.8859 7.09412 12.8405 6.98672 12.7465 6.94834C12.6628 6.91428 12.5688 6.94602 12.5219 7.01945ZM8.66028 12.178L11.5421 14.2719L11.8493 14.0479L9.7738 12.5397L10.9088 12.5399L11.0263 12.1781L9.04383 12.178C9.45299 11.0667 10.4711 10.2477 11.692 10.1287L11.813 9.7565C10.3345 9.83407 9.09903 10.8263 8.66012 12.1778C8.66028 12.1778 8.66037 12.1779 8.66053 12.178H8.66028ZM14.8852 12.0017H15.2771C14.7703 10.6857 13.4947 9.75152 12 9.75144C12 9.75152 11.9999 9.75169 11.9999 9.75177L11.9998 9.75161L10.8991 13.1394L11.207 13.3623L11.9999 10.9223L12.3505 12.0018H12.7309L12.1188 10.1179C13.356 10.1642 14.413 10.9257 14.8852 12.0017ZM15.5115 13.2631C15.5115 12.8843 15.4509 12.5198 15.3399 12.1779H15.3394L15.3395 12.1778H11.7773L11.6605 12.5396H14.2261L13.3078 13.2067L13.4254 13.5685L15.0297 12.403C15.1075 12.6765 15.1498 12.9649 15.1498 13.2631C15.1498 14.198 14.7398 15.0387 14.0907 15.616L14.2121 15.9896C15.0047 15.3458 15.5115 14.3638 15.5115 13.2631ZM12.8179 14.0102L12.6997 13.6487L10.6241 15.1567L10.975 14.0774L10.6673 13.8538L10.0552 15.7375C9.32229 15.1603 8.85024 14.2662 8.85024 13.2631C8.85024 13.0312 8.87618 12.8052 8.924 12.5874L8.607 12.357C8.53001 12.6463 8.4884 12.9498 8.4884 13.2631C8.4884 14.431 9.05908 15.4651 9.93624 16.1035L9.93607 16.1039L12.8179 14.0102ZM12.583 12.7166L13.3757 15.1567L12.4576 14.4895L12.1499 14.713L13.7526 15.8775C13.2513 16.2149 12.6484 16.4127 11.9999 16.4127C11.4193 16.4127 10.8753 16.2542 10.4077 15.9789L10.0905 16.2095C10.6403 16.5664 11.2956 16.7746 11.9999 16.7746C12.7713 16.7746 13.4842 16.5251 14.0636 16.1035L14.064 16.1038L12.9633 12.716L12.583 12.7166Z" fill="#BB2E2C"/>
</svg>
