<svg width="24" height="24" viewBox="0 0 24 24" fill="none" xmlns="http://www.w3.org/2000/svg">
<path fill-rule="evenodd" clip-rule="evenodd" d="M23.3998 4.8C23.3998 4.9 22.8998 5.3 21.6998 5.6C23.6998 7.3 23.5998 9.3 23.5998 9.3C23.5998 9.4 23.4998 9.5 23.3998 9.6C23.3695 9.6 23.3301 9.60917 23.287 9.61918C23.1879 9.64222 23.0695 9.66972 22.9998 9.6C22.8998 9.6 21.7998 9.1 20.1998 8.1C21.1544 10.2001 21.1066 12.2092 21.1003 12.4742C21.1 12.4868 21.0998 12.4955 21.0998 12.5C21.0998 12.7 20.9998 12.8 20.7998 12.9H20.6998C20.5998 12.9 20.4998 12.9 20.3998 12.8L16.8998 8.7C17.1998 12.3 16.8998 17.5 13.9998 21.5C16.5998 22.5 18.2998 24 18.2998 24H1.99982C1.99982 24 4.79982 20.7 9.79982 20.6C10.6998 20.6 11.4998 20.7 12.2998 20.9C15.2998 17.2 15.4998 12.2 15.1998 8.7C14.8595 9.30508 14.4762 9.99597 14.1203 10.6375C13.5352 11.6922 13.0242 12.6135 12.8998 12.8C12.7998 13 12.6998 13 12.4998 13C12.3998 13 12.1998 12.9 12.1998 12.7C11.3998 9.8 12.0998 8 12.5998 7.2H11.6998C10.9998 7.2 10.2998 7.2 9.39982 7.3C9.19982 7.3 9.09982 7.2 8.99982 7.1C8.89982 7 8.89982 6.8 8.99982 6.7C10.0998 4.6 11.9998 4.1 13.1998 4L11.4998 2.3C11.3998 2.2 11.3998 2 11.3998 1.9C11.4332 1.86667 11.4665 1.82222 11.4998 1.77778C11.5665 1.68889 11.6332 1.6 11.6998 1.6C11.6998 1.6 12.0998 1.5 12.6998 1.5C13.3998 1.5 14.4998 1.7 15.6998 2.3C16.6998 0.9 18.7998 0 18.8998 0C19.0998 0 19.1998 0 19.3998 0.1C19.4998 0.2 19.4998 0.3 19.4998 0.5C19.4168 0.5 19.196 1.39587 18.9517 2.3867C18.9017 2.58944 18.8508 2.79616 18.7998 3C19.0998 2.9 19.4998 2.9 19.8998 2.9C21.8998 2.9 23.2998 4.1 23.3998 4.2C23.3998 4.25 23.4248 4.3 23.4498 4.35C23.4748 4.4 23.4998 4.45 23.4998 4.5C23.4998 4.6 23.4998 4.7 23.3998 4.8ZM3.5998 12.6996C5.42234 12.6996 6.8998 11.2221 6.8998 9.39961C6.8998 7.57707 5.42234 6.09961 3.5998 6.09961C1.77726 6.09961 0.299805 7.57707 0.299805 9.39961C0.299805 11.2221 1.77726 12.6996 3.5998 12.6996Z" fill="#323232"/>
</svg>
