<svg width="48" height="48" viewBox="0 0 48 48" fill="none" xmlns="http://www.w3.org/2000/svg">
<path d="M32.2905 37.3298C32.0305 37.3298 31.7805 37.2298 31.5805 37.0398L28.7105 34.1698C28.3205 33.7798 28.3205 33.1498 28.7105 32.7598C29.1005 32.3698 29.7305 32.3698 30.1205 32.7598L32.2805 34.9198L38.4005 28.7998C38.7905 28.4098 39.4205 28.4098 39.8105 28.7998C40.2005 29.1898 40.2005 29.8198 39.8105 30.2098L32.9805 37.0398C32.7805 37.2398 32.5305 37.3298 32.2705 37.3298H32.2905Z" fill="#DF0000"/>
<path d="M27.8307 5.67986C27.4007 5.67986 26.9907 5.76986 26.6107 5.91986C26.3507 4.43986 25.0607 3.29986 23.5007 3.29986C22.9707 3.29986 22.4707 3.44986 22.0307 3.67986C21.5207 2.60986 20.4407 1.85986 19.1807 1.85986C17.9207 1.85986 16.8307 2.60986 16.3307 3.67986C15.8907 3.44986 15.3907 3.29986 14.8607 3.29986C13.1207 3.29986 11.7007 4.71986 11.7007 6.45986V22.3299L10.7107 21.4499L9.72069 17.5099C9.46069 16.4699 8.79069 15.5699 7.73069 14.8799C6.85069 14.3299 5.75069 14.3599 4.88069 14.9599C3.97069 15.5799 3.52069 16.6799 3.74069 17.7399L4.67069 22.4199C4.77069 22.9399 4.94069 23.4399 5.18069 23.8899L8.05069 29.3699C8.37069 29.9799 8.80069 30.4999 9.33069 30.9499L12.9007 33.8499C13.2107 34.0999 13.3807 34.4799 13.3807 34.8799V42.1199C13.3807 42.6699 13.8307 43.1199 14.3807 43.1199C14.9307 43.1199 15.3807 42.6699 15.3807 42.1199V34.8799C15.3807 33.8799 14.9407 32.9499 14.1707 32.3099L10.6007 29.4099C10.2807 29.1399 10.0107 28.8199 9.82069 28.4499L6.95069 22.9699C6.80069 22.6899 6.69069 22.3799 6.63069 22.0499L5.70069 17.3599C5.63069 17.0199 5.82069 16.7499 6.02069 16.6099C6.14069 16.5199 6.40069 16.3999 6.70069 16.5899C7.28069 16.9699 7.65069 17.4399 7.78069 17.9999L8.85069 22.2399C8.90069 22.4399 9.01069 22.6099 9.16069 22.7399L12.1007 25.3399C12.2807 25.4999 12.5107 25.5899 12.7507 25.5899H12.9807C15.6207 25.6299 17.5707 26.5699 19.3107 28.6399C20.4007 29.9399 20.5507 31.2399 20.5507 31.2499C20.6107 31.7999 21.0907 32.1999 21.6507 32.1399C22.2007 32.0799 22.6007 31.5899 22.5407 31.0399C22.5207 30.8499 22.3007 29.0899 20.8407 27.3499C18.8807 25.0099 16.6007 23.8299 13.7107 23.6299V6.46986C13.7107 5.82986 14.2307 5.30986 14.8707 5.30986C15.5107 5.30986 16.0307 5.82986 16.0307 6.46986V19.4799C16.0307 19.5299 16.0307 19.5799 16.0307 19.6399V20.1299H16.0507C16.1107 20.6599 16.3107 21.1299 17.0307 21.1299C17.5807 21.1299 18.0307 20.6799 18.0307 20.1299V17.3399V6.46986V5.02986C18.0307 4.38986 18.5507 3.86986 19.1907 3.86986C19.8307 3.86986 20.3507 4.38986 20.3507 5.02986V6.46986V11.4599C20.3507 11.9399 20.3507 12.3699 20.3507 12.7799V15.2999V16.4499V20.1199C20.3507 20.6699 20.8007 21.1199 21.3507 21.1199C21.9007 21.1199 22.3507 20.6699 22.3507 20.1199V7.17986V6.46986C22.3507 5.82986 22.8707 5.30986 23.5107 5.30986C24.1507 5.30986 24.6707 5.82986 24.6707 6.46986V8.82986V20.1099C24.6707 20.6599 25.1207 21.1099 25.6707 21.1099C26.2207 21.1099 26.6707 20.6599 26.6707 20.1099V14.4299V8.82986C26.6707 8.18986 27.1907 7.66986 27.8307 7.66986C28.4707 7.66986 28.9907 8.18986 28.9907 8.82986V18.0899C28.9907 18.6399 29.4407 19.0899 29.9907 19.0899C30.5407 19.0899 30.9907 18.6399 30.9907 18.0899V8.82986C30.9907 7.08986 29.5707 5.66986 27.8307 5.66986V5.67986Z" fill="#323232"/>
<path d="M34.2691 20.5601L24.8691 24.4901V27.3201L34.2691 23.4601L43.6691 27.3201V24.4901L34.2691 20.5601Z" fill="#8DE2E0"/>
<path d="M34.2694 46.12C34.2094 46.12 34.1594 46.12 34.0994 46.11C33.9994 46.09 23.8594 44.21 23.8594 32.17V24.49C23.8594 24.08 24.1094 23.72 24.4794 23.56L33.8894 19.7C34.1294 19.6 34.4094 19.6 34.6494 19.7L44.0494 23.56C44.4294 23.71 44.6694 24.08 44.6694 24.49V32.17C44.6694 44.21 34.5394 46.09 34.4294 46.11C34.3694 46.11 34.3194 46.12 34.2594 46.12H34.2694ZM25.8694 25.16V32.17C25.8694 41.8 33.0294 43.83 34.2794 44.11C35.5194 43.83 42.6794 41.81 42.6794 32.17V25.16L34.2794 21.71L25.8694 25.16Z" fill="#323232"/>
</svg>
