<svg width="48" height="48" viewBox="0 0 48 48" fill="none" xmlns="http://www.w3.org/2000/svg">
<path d="M37.5294 15.3602C37.4794 15.2402 37.4094 15.1302 37.3094 15.0402L25.3194 3.04023C25.2294 2.95023 25.1194 2.88023 24.9994 2.82023C24.8794 2.77023 24.7494 2.74023 24.6194 2.74023H6.60938C6.05937 2.74023 5.60938 3.19023 5.60938 3.74023V44.2402C5.60938 44.7902 6.05937 45.2402 6.60938 45.2402H29.3294C29.8794 45.2402 30.3294 44.7902 30.3294 44.2402C30.3294 43.6902 29.8794 43.2402 29.3294 43.2402H7.60938V4.75023H23.6094V15.7502C23.6094 16.3002 24.0594 16.7502 24.6094 16.7502H35.6094V24.0302C35.6094 24.5802 36.0594 25.0302 36.6094 25.0302C37.1594 25.0302 37.6094 24.5802 37.6094 24.0302V15.7502C37.6094 15.6202 37.5794 15.4902 37.5294 15.3602ZM25.6094 6.16023L34.1994 14.7502H25.6094V6.16023Z" fill="#323232"/>
<path d="M42.0991 31.7204L37.2991 26.9204C36.9091 26.5304 36.2791 26.5304 35.8891 26.9204L31.0891 31.7204C30.6991 32.1104 30.6991 32.7404 31.0891 33.1304C31.4791 33.5204 32.1091 33.5204 32.4991 33.1304L35.5991 30.0304C35.5991 30.2304 35.5991 30.4404 35.5991 30.6404C35.6491 33.5604 35.6891 36.0804 34.2691 37.5204C33.1191 38.6904 30.9391 39.2604 27.6191 39.2604C27.0691 39.2604 26.6191 39.7104 26.6191 40.2604C26.6191 40.8104 27.0691 41.2604 27.6191 41.2604C31.5591 41.2604 34.1291 40.5204 35.6991 38.9204C37.7091 36.8804 37.6591 33.8304 37.6091 30.6104C37.6091 30.4304 37.6091 30.2404 37.6091 30.0504L40.6891 33.1304C40.8891 33.3304 41.1391 33.4204 41.3991 33.4204C41.6591 33.4204 41.9091 33.3204 42.1091 33.1304C42.4991 32.7404 42.4991 32.1104 42.1091 31.7204H42.0991Z" fill="#DF0000"/>
</svg>
