<svg width="48" height="48" viewBox="0 0 48 48" fill="none" xmlns="http://www.w3.org/2000/svg">
<path d="M15.6891 12.9198C15.4291 12.9198 15.1791 12.8198 14.9791 12.6298L6.84914 4.47984C6.45914 4.08984 6.45914 3.45984 6.84914 3.06984C7.23914 2.67984 7.86914 2.67984 8.25914 3.06984L16.3991 11.2098C16.7891 11.5998 16.7891 12.2298 16.3991 12.6198C16.1991 12.8198 15.9491 12.9098 15.6891 12.9098V12.9198Z" fill="#DF0000"/>
<path d="M28.3195 20.2998C28.3195 27.2398 24.0195 33.1598 17.9395 35.5798C19.8195 36.3298 21.8595 36.7498 24.0095 36.7498C33.0895 36.7498 40.4595 29.3898 40.4595 20.2998H28.3295H28.3195Z" fill="#8DE2E0"/>
<path d="M41.4508 20.2998C41.4508 19.7498 41.0008 19.2998 40.4508 19.2998H38.3408C38.5108 18.3298 38.4808 17.3298 38.2408 16.3698C37.5908 13.8298 35.6008 11.9698 33.2308 11.3498C32.1208 8.63976 29.8608 6.50976 27.0508 5.60976C21.9808 3.97976 16.5608 6.64976 14.6908 11.5698C13.6208 11.9498 12.6408 12.5598 11.8108 13.3798C10.3508 14.8398 9.55078 16.7798 9.55078 18.8498C9.55078 18.9998 9.56078 19.1498 9.57078 19.2898H7.55078C7.00078 19.2898 6.55078 19.7398 6.55078 20.2898C6.55078 29.5698 13.8408 37.1898 23.0008 37.7098V43.2098H19.5208C18.9708 43.2098 18.5208 43.6598 18.5208 44.2098C18.5208 44.7598 18.9708 45.2098 19.5208 45.2098H28.4908C29.0408 45.2098 29.4908 44.7598 29.4908 44.2098C29.4908 43.6598 29.0408 43.2098 28.4908 43.2098H25.0008V37.7098C34.1608 37.1898 41.4508 29.5798 41.4508 20.2898V20.2998ZM36.3008 16.8698C36.5008 17.6698 36.5108 18.4998 36.3008 19.2998H26.6308C26.3208 18.0298 26.5108 16.7098 27.1708 15.5698C27.8508 14.4198 28.9308 13.6098 30.2208 13.2798C32.8808 12.5898 35.6008 14.1998 36.2808 16.8598L36.3008 16.8698ZM26.4408 7.51976C28.3408 8.12976 29.9308 9.44976 30.9108 11.1598C30.5208 11.1898 30.1308 11.2498 29.7408 11.3498C27.9308 11.8098 26.4208 12.9498 25.4708 14.5598C25.0908 15.1998 24.8308 15.8798 24.6708 16.5798C24.3008 15.3898 23.6508 14.2998 22.7408 13.3898C21.2808 11.9298 19.3408 11.1298 17.2808 11.1298C17.2208 11.1298 17.1608 11.1298 17.1008 11.1298C18.9308 7.93976 22.8008 6.34976 26.4508 7.50976L26.4408 7.51976ZM11.5408 18.8598C11.5408 17.3298 12.1308 15.8898 13.2208 14.8098C14.3008 13.7298 15.7408 13.1298 17.2708 13.1298C18.8008 13.1298 20.2408 13.7298 21.3208 14.8098C22.4008 15.8898 23.0008 17.3298 23.0008 18.8598C23.0008 19.0098 22.9908 19.1598 22.9808 19.3098H11.5708C11.5608 19.1598 11.5508 19.0098 11.5508 18.8698L11.5408 18.8598ZM24.0008 35.7498C15.8208 35.7498 9.10078 29.3598 8.58078 21.2998H39.4108C38.8908 29.3498 32.1808 35.7498 23.9908 35.7498H24.0008Z" fill="#323232"/>
</svg>
