<svg width="48" height="48" viewBox="0 0 48 48" fill="none" xmlns="http://www.w3.org/2000/svg">
<path d="M42.6906 37.5696C44.7906 35.7796 45.9906 33.2796 46.1006 30.4196C46.1006 25.9697 42.6506 21.9896 37.6106 20.4996C37.6806 19.9896 37.7206 19.4696 37.7206 18.9396C37.7206 10.9096 29.6606 4.38965 19.7506 4.38965C9.84063 4.38965 1.89062 10.7196 1.89062 18.8296C1.89062 22.5896 3.63063 26.1196 6.82063 28.8296L3.44063 35.8797C3.26063 36.2497 3.33062 36.6996 3.61062 36.9996C3.80062 37.1996 4.07063 37.3097 4.34063 37.3097C4.47063 37.3097 4.60063 37.2896 4.72062 37.2397L15.3106 32.8997C16.9906 33.2197 18.4906 33.3797 19.8606 33.3797C20.1406 33.3797 20.4106 33.3596 20.6906 33.3496C22.2306 37.7896 27.3006 40.9396 33.1006 40.9396C34.2006 40.9396 35.3006 40.8496 36.3006 40.6696L43.2706 43.5597C43.3906 43.6096 43.5206 43.6396 43.6506 43.6396C43.9106 43.6396 44.1606 43.5396 44.3506 43.3496C44.6406 43.0696 44.7206 42.6396 44.5706 42.2696L42.6806 37.5797L42.6906 37.5696ZM15.4006 30.8796C15.2106 30.8396 15.0106 30.8596 14.8206 30.9396L6.36063 34.3997L8.96063 28.9796C9.16062 28.5596 9.04063 28.0497 8.67063 27.7596C5.58063 25.3696 3.88063 22.1996 3.88063 18.8196C3.88063 11.9496 11.0006 6.36965 19.7506 6.36965C28.5006 6.36965 35.7206 11.9996 35.7206 18.9196C35.7206 25.8396 28.6006 31.3696 19.8506 31.3696C18.5206 31.3696 17.0606 31.2097 15.3906 30.8696L15.4006 30.8796ZM36.8006 38.6996C36.6206 38.6196 36.4206 38.5996 36.2206 38.6396C35.2706 38.8296 34.1906 38.9296 33.1006 38.9296C28.3606 38.9296 24.2206 36.5596 22.7706 33.1696C29.8006 32.2296 35.4506 27.9697 37.1706 22.4396C41.3006 23.7097 44.1106 26.8897 44.1106 30.3696C44.0206 32.8396 42.8806 34.9896 40.9006 36.4296C40.5306 36.6996 40.3906 37.1897 40.5606 37.6096L41.8406 40.7796L36.8006 38.6896V38.6996Z" fill="#323232"/>
<path d="M19.0602 9.51955C18.9302 9.54955 18.8502 9.66955 18.8602 9.79955C18.8702 9.92955 18.9802 10.0295 19.1102 10.0395C19.1602 10.0395 23.8702 10.4095 27.2302 12.8995C30.6802 15.4495 32.2402 19.0595 32.2602 19.0895C32.3102 19.2095 32.4402 19.2695 32.5602 19.2395C32.6802 19.2095 32.7702 19.0995 32.7602 18.9695C32.7302 18.4895 32.6602 17.9795 32.5302 17.4395C31.1302 11.6195 25.0902 8.06955 19.0702 9.51955H19.0602Z" fill="#8DE2E0"/>
</svg>
