<svg width="48" height="48" viewBox="0 0 48 48" fill="none" xmlns="http://www.w3.org/2000/svg">
<path d="M6.52961 4.30957C5.82961 4.33957 5.10961 4.38957 4.34961 4.47957C7.90961 15.7896 16.5096 17.3496 19.8696 13.5396C20.0496 13.0996 20.1396 12.5396 20.1096 11.9096C16.5796 14.2296 10.0796 12.5296 6.52961 4.30957Z" fill="#8DE2E0"/>
<path d="M40.8195 4.29004C37.5895 12.22 31.6595 14.36 27.9395 12.79C27.9795 13.06 28.0395 13.32 28.1295 13.53C31.4895 17.36 40.0995 15.78 43.6595 4.48004C42.6595 4.37004 41.7195 4.31004 40.8295 4.29004H40.8195Z" fill="#8DE2E0"/>
<path d="M44.4904 3.9399C44.3304 3.6899 44.0604 3.5299 43.7604 3.4899C34.0604 2.4199 30.0004 5.6999 28.4504 7.7399C26.8504 9.8499 26.6304 12.1799 27.1204 13.6599C25.7404 15.5699 24.8104 17.7399 24.2004 19.6499C23.4404 16.8499 22.3204 14.6899 21.0104 13.0399C21.2604 11.5699 20.9204 9.5699 19.5304 7.7299C17.9804 5.6799 13.9304 2.4099 4.23038 3.4699C3.93038 3.4999 3.67038 3.6699 3.50038 3.9199C3.34038 4.1699 3.29038 4.4799 3.38038 4.7699C5.33038 10.9799 9.18038 15.2599 13.6804 16.2099C14.2804 16.3399 14.8704 16.3999 15.4504 16.3999C17.1404 16.3999 18.6904 15.8599 19.8904 14.8699C21.5804 17.2599 22.6304 20.4299 23.0204 24.3799L23.0604 24.7999C23.0604 24.7999 23.0804 24.8499 23.0904 24.8799C23.1004 24.9399 23.1204 24.9899 23.1404 25.0499C23.1704 25.1099 23.1904 25.1699 23.2304 25.2299C23.2604 25.2799 23.2904 25.3199 23.3304 25.3599C23.3804 25.4099 23.4304 25.4499 23.4904 25.4899C23.5304 25.5199 23.5804 25.5499 23.6304 25.5699C23.7004 25.5999 23.7704 25.6199 23.8404 25.6399C23.8804 25.6399 23.9004 25.6699 23.9404 25.6699C23.9804 25.6699 24.0204 25.6699 24.0504 25.6699C24.0904 25.6699 24.1304 25.6699 24.1704 25.6699C24.2104 25.6699 24.2404 25.6399 24.2704 25.6399C24.3404 25.6199 24.4104 25.5999 24.4804 25.5699C24.5304 25.5499 24.5804 25.5199 24.6204 25.4799C24.6804 25.4399 24.7204 25.3999 24.7704 25.3499C24.8104 25.3099 24.8404 25.2699 24.8704 25.2199C24.9104 25.1599 24.9304 25.1099 24.9604 25.0399C24.9804 24.9799 25.0004 24.9299 25.0104 24.8699C25.0104 24.8399 25.0304 24.8199 25.0304 24.7899C25.0304 24.7099 25.7104 19.2899 28.4804 15.1899C29.6104 15.9799 31.0104 16.3999 32.5004 16.3999C33.0804 16.3999 33.6704 16.3399 34.2704 16.2099C38.7704 15.2599 42.6204 10.9899 44.5704 4.7699C44.6604 4.4799 44.6204 4.1699 44.4504 3.9199L44.4904 3.9399ZM14.1004 14.2599C10.6004 13.5199 7.51038 10.2299 5.70038 5.3599C13.5004 4.7799 16.7104 7.3299 17.9404 8.9499C18.4504 9.6199 18.7504 10.2899 18.9204 10.9199C17.5204 9.7699 16.0404 9.0099 14.6804 8.5199C14.1604 8.3299 13.5904 8.6099 13.4004 9.1299C13.2204 9.6499 13.4904 10.2199 14.0104 10.4099C15.8104 11.0499 17.3504 12.0399 18.6304 13.3499C17.4904 14.2899 15.8504 14.6399 14.1104 14.2699L14.1004 14.2599ZM33.8904 14.2599C32.3404 14.5899 30.8704 14.3399 29.7604 13.6199C30.8904 12.4099 32.2704 11.4399 33.9804 10.9799C34.5104 10.8399 34.8304 10.2899 34.6904 9.7499C34.5504 9.2199 34.0004 8.8999 33.4604 9.0399C31.6604 9.5199 30.1704 10.4399 28.9304 11.5999C29.0304 10.8099 29.3404 9.8699 30.0504 8.9399C31.2804 7.3099 34.4904 4.7699 42.3004 5.3499C40.4904 10.2199 37.4004 13.5099 33.9004 14.2499L33.8904 14.2599Z" fill="#323232"/>
<path d="M39.9898 25.2602L32.9998 29.0202C32.3998 28.1902 31.3898 27.6802 30.4398 27.6802H28.1098C24.4598 27.6802 23.0398 27.3602 21.7998 27.0802C20.8598 26.8702 19.9698 26.6702 18.3998 26.6702C14.6298 26.6702 11.0998 30.0002 9.23984 32.1202L9.00984 31.8902C8.62984 31.5102 7.96984 31.5102 7.59984 31.8902L4.06984 35.4202C3.67984 35.8102 3.67984 36.4402 4.06984 36.8302L12.5198 45.2802C12.7198 45.4802 12.9698 45.5702 13.2298 45.5702C13.4898 45.5702 13.7398 45.4702 13.9398 45.2802L17.4698 41.7502C17.8598 41.3602 17.8598 40.7302 17.4698 40.3402L17.0798 39.9502C18.2698 38.8602 19.9598 37.8102 22.1098 37.8102L29.4198 37.7802C30.4398 37.7802 31.3998 37.5702 32.2898 37.1802C36.0598 35.5102 42.8498 30.2602 43.1298 30.0302C44.2498 29.1702 44.5598 27.5902 43.8598 26.3602C43.0898 25.0002 41.3498 24.5102 39.9898 25.2702V25.2602ZM13.2198 43.1502L6.18984 36.1202L8.30984 34.0002L15.3398 41.0302L13.2198 43.1502ZM41.8898 28.4402C39.5298 30.2702 34.3098 34.0802 31.4598 35.3402C30.8298 35.6202 30.1298 35.7602 29.3898 35.7702L22.0798 35.8002C19.1898 35.8002 16.9898 37.2802 15.6498 38.5202L10.6498 33.5202C12.1398 31.8202 15.3198 28.6602 18.3898 28.6602C19.7298 28.6602 20.4498 28.8202 21.3498 29.0202C22.6298 29.3102 24.2298 29.6702 28.0998 29.6702H30.4298C30.9198 29.6702 31.5098 30.1002 31.5098 30.5902C31.5098 31.0802 30.9098 31.5102 30.3898 31.5102L25.1798 31.6702C24.6298 31.6902 24.1898 32.1502 24.2098 32.7002C24.2298 33.2502 24.6898 33.7102 25.2398 33.6702L30.4198 33.5102C31.7498 33.5102 33.2098 32.5102 33.4498 31.0202L40.9198 27.0002C41.3298 26.7702 41.8498 26.9202 42.0898 27.3302C42.2998 27.7102 42.2098 28.1702 41.8698 28.4302L41.8898 28.4402Z" fill="#323232"/>
</svg>
