<svg width="48" height="48" viewBox="0 0 48 48" fill="none" xmlns="http://www.w3.org/2000/svg">
<path d="M7.09971 18.9298C6.52971 18.4798 5.77971 18.3298 5.07971 18.5298L3.39971 19.0098C2.78971 19.1898 2.54971 19.9298 2.92971 20.4298L7.97971 27.0598C8.54971 27.7998 9.49971 28.1198 10.3997 27.8698L16.1997 26.1998L7.09971 18.9298Z" fill="#8DE2E0"/>
<path d="M46.2103 17.5799L46.1503 17.3799C45.9003 16.4599 45.3303 14.3199 43.3603 13.1999C41.9303 12.3899 40.0903 12.2899 37.8803 12.9099L28.5503 15.5599L18.5303 11.7299C16.6903 11.1299 14.6503 11.4399 13.0703 12.5399C12.8303 12.7099 12.6803 12.9699 12.6503 13.2599C12.6203 13.5499 12.7203 13.8399 12.9303 14.0499C14.0503 15.1999 16.2603 17.3099 17.6803 18.6399L10.8003 20.5999L7.71035 18.1299C6.89035 17.4799 5.80035 17.2699 4.80035 17.5499L3.12035 18.0299C2.52035 18.1999 2.04035 18.6599 1.84035 19.2599C1.64035 19.8599 1.75035 20.5199 2.13035 21.0199L7.18035 27.6499C7.81035 28.4799 8.77035 28.9399 9.76035 28.9399C10.0603 28.9399 10.3703 28.8999 10.6703 28.8099L16.4703 27.1399L20.1603 26.0699L18.0203 35.3099C17.9503 35.6199 18.0203 35.9499 18.2403 36.1899C18.4303 36.4099 18.7103 36.5299 18.9903 36.5299C19.0203 36.5299 19.0503 36.5299 19.0903 36.5299C21.3903 36.3099 23.4703 35.0999 24.8203 33.1999C26.3903 30.8099 30.8303 24.2099 31.8403 22.7099L45.5203 18.7899C46.0503 18.6399 46.3603 18.0799 46.2103 17.5499V17.5799ZM15.3403 13.6399C16.1603 13.3699 17.0603 13.3699 17.8703 13.6299L25.3403 16.4899L19.9303 18.0299C19.0403 17.1899 16.8603 15.1399 15.3403 13.6499V13.6399ZM10.1303 26.9099C9.63035 27.0499 9.10035 26.8799 8.79035 26.4599L3.82035 19.9399L5.37035 19.4999C5.76035 19.3899 6.17035 19.4699 6.49035 19.7199L14.0803 25.7799L10.1403 26.9099H10.1303ZM30.9503 20.9199C30.7203 20.9799 30.5303 21.1299 30.4003 21.3199C30.3503 21.3999 24.9303 29.4299 23.1803 32.0999C22.4703 33.0999 21.4803 33.8399 20.3403 34.2499L22.5103 24.8899C22.5903 24.5399 22.4803 24.1799 22.2203 23.9399C21.9603 23.6999 21.5903 23.6099 21.2503 23.6999L16.4203 25.0999L12.7303 22.1499L38.4303 14.8399C40.1003 14.3699 41.4303 14.3999 42.3803 14.9399C43.3003 15.4599 43.7503 16.3999 44.0103 17.1699L30.9403 20.9199H30.9503Z" fill="#323232"/>
</svg>
