<svg width="48" height="48" viewBox="0 0 48 48" fill="none" xmlns="http://www.w3.org/2000/svg">
<path d="M11.3391 35.4C11.0791 35.4 10.8291 35.3 10.6291 35.11L7.84914 32.33C7.45914 31.94 7.45914 31.31 7.84914 30.92C8.23914 30.53 8.86914 30.53 9.25914 30.92L11.3291 32.99L15.6291 28.69C16.0191 28.3 16.6491 28.3 17.0391 28.69C17.4291 29.08 17.4291 29.71 17.0391 30.1L12.0291 35.11C11.8291 35.31 11.5791 35.4 11.3191 35.4H11.3391Z" fill="#DF0000"/>
<path d="M34.1993 26.5098C33.6493 26.5098 33.1993 26.0698 33.1993 25.5198C33.1993 24.9698 33.6393 24.5198 34.1893 24.5098C34.6893 24.5098 35.1593 24.4698 35.6093 24.4098V19.7498C35.6093 19.0898 35.0693 18.5498 34.4093 18.5498H25.2293C24.5693 18.5498 24.0293 19.0898 24.0293 19.7498V27.0898C24.0293 27.7498 24.5693 28.2898 25.2293 28.2898H34.4093C35.0693 28.2898 35.6093 27.7498 35.6093 27.0898V26.4098C35.1593 26.4598 34.6893 26.4998 34.1993 26.4998V26.5098Z" fill="#8DE2E0"/>
<path d="M12.7309 21.77C7.30086 21.77 2.88086 26.19 2.88086 31.62C2.88086 37.05 7.30086 41.47 12.7309 41.47C18.1609 41.47 22.5809 37.05 22.5809 31.62C22.5809 26.19 18.1609 21.77 12.7309 21.77ZM12.7309 39.48C8.40086 39.48 4.88086 35.96 4.88086 31.63C4.88086 27.3 8.40086 23.78 12.7309 23.78C17.0609 23.78 20.5809 27.3 20.5809 31.63C20.5809 35.96 17.0609 39.48 12.7309 39.48Z" fill="#323232"/>
<path d="M38.1607 14.6198C38.6307 14.7598 39.1007 14.8298 39.5807 14.8298C40.3707 14.8298 41.1507 14.6398 41.8707 14.2498C43.0207 13.6398 43.8607 12.6198 44.2307 11.3698C44.6107 10.1298 44.4807 8.80983 43.8707 7.65983C42.6107 5.28983 39.6507 4.39983 37.2907 5.65983C36.1407 6.26983 35.3107 7.28983 34.9307 8.53983C34.5507 9.77983 34.6807 11.0998 35.2907 12.2498C35.9007 13.3998 36.9207 14.2298 38.1707 14.6098L38.1607 14.6198ZM36.8407 9.12983C37.0607 8.39983 37.5607 7.79983 38.2307 7.43983C38.6607 7.20983 39.1207 7.09983 39.5707 7.09983C40.5907 7.09983 41.5907 7.64983 42.1007 8.60983C42.4607 9.27983 42.5407 10.0598 42.3107 10.7898C42.0807 11.5198 41.5907 12.1198 40.9207 12.4798C40.2507 12.8398 39.4707 12.9198 38.7407 12.6898C38.0107 12.4698 37.4107 11.9698 37.0507 11.2998C36.6907 10.6298 36.6107 9.84983 36.8407 9.11983V9.12983Z" fill="#323232"/>
<path d="M35.6005 19.6898C35.9505 19.0798 36.1805 18.5198 36.3305 18.0898H41.0105C41.5605 18.0898 42.0105 17.6398 42.0105 17.0898C42.0105 16.5398 41.5605 16.0898 41.0105 16.0898H35.5805C35.1005 16.0898 34.6805 16.4398 34.6005 16.9098C34.5805 16.9898 34.4405 17.6798 33.9805 18.5498H34.4205C35.0605 18.5498 35.5705 19.0498 35.6105 19.6798L35.6005 19.6898Z" fill="#323232"/>
<path d="M34.7899 30.75C31.3599 30.75 28.9999 31.73 27.7799 33.68C25.6799 37.02 27.9199 41.8 28.0199 42.01C28.1899 42.37 28.5499 42.58 28.9199 42.58C29.0599 42.58 29.2099 42.55 29.3499 42.48C29.8499 42.24 30.0599 41.65 29.8199 41.15C29.7999 41.11 27.9499 37.15 29.4699 34.75C30.2999 33.43 32.0899 32.76 34.7899 32.76C35.3399 32.76 35.7899 32.31 35.7899 31.76C35.7899 31.21 35.3399 30.76 34.7899 30.76V30.75Z" fill="#323232"/>
<path d="M45.1001 16.9698C45.1001 16.8998 45.0801 16.8398 45.0601 16.7698C45.0401 16.7098 45.0101 16.6498 44.9801 16.5998C44.9501 16.5498 44.9201 16.4898 44.8801 16.4498C44.8401 16.3998 44.7901 16.3598 44.7301 16.3198C44.6801 16.2798 44.6401 16.2498 44.5801 16.2198C44.5201 16.1898 44.4501 16.1698 44.3801 16.1498C44.3401 16.1398 44.3101 16.1198 44.2701 16.1098C44.2501 16.1098 44.2301 16.1098 44.2001 16.1098C44.1701 16.1098 44.1501 16.0898 44.1201 16.0898C44.0701 16.0898 44.0401 16.1098 43.9901 16.1198C43.9201 16.1198 43.8601 16.1398 43.7901 16.1598C43.7301 16.1798 43.6801 16.2098 43.6201 16.2398C43.5601 16.2698 43.5101 16.3098 43.4601 16.3498C43.4101 16.3898 43.3701 16.4398 43.3301 16.4898C43.2901 16.5398 43.2501 16.5898 43.2201 16.6498C43.1901 16.7098 43.1701 16.7698 43.1501 16.8398C43.1401 16.8798 43.1101 16.9198 43.1101 16.9598C43.0601 17.2698 41.9101 24.4798 34.1601 24.5198C33.6101 24.5198 33.1601 24.9698 33.1701 25.5298C33.1701 26.0798 33.6201 26.5198 34.1701 26.5198C38.8401 26.4998 41.5401 24.2798 43.1001 22.0198V30.9698C40.2301 31.1498 38.2201 32.1198 37.1101 33.8698C34.9701 37.2498 37.2301 42.1298 37.3201 42.3398C37.4901 42.6998 37.8501 42.9098 38.2201 42.9098C38.3601 42.9098 38.5101 42.8798 38.6401 42.8198C39.1401 42.5898 39.3501 41.9898 39.1201 41.4898C39.1001 41.4498 37.2301 37.3898 38.7901 34.9398C39.6301 33.6198 41.4101 32.9498 44.0901 32.9498C44.6401 32.9498 45.0901 32.4998 45.0901 31.9498V17.1098C45.0901 17.1098 45.0701 17.0298 45.0601 16.9798L45.1001 16.9698Z" fill="#323232"/>
</svg>
