<svg width="48" height="48" viewBox="0 0 48 48" fill="none" xmlns="http://www.w3.org/2000/svg">
<path d="M32.2696 24.5102C32.1796 24.1702 31.8796 23.5602 30.9196 23.2902C30.0196 23.0402 29.8696 22.8902 29.8596 22.8702C29.8396 22.8402 29.7996 22.7002 29.7596 22.6102C29.7296 22.5202 29.6996 22.4202 29.6596 22.3202C29.6196 22.2202 29.5796 22.1102 29.5296 22.0102C29.9396 21.8702 30.2296 21.4802 30.2096 21.0302C30.1896 20.4802 29.7296 20.0502 29.1696 20.0702C28.6396 20.0902 27.8896 20.1902 27.4896 20.8302C27.0796 21.5002 27.3996 22.1902 27.6096 22.6502C27.6596 22.7602 27.7196 22.8802 27.7596 23.0002L27.8296 23.2202C28.1396 24.1802 28.5396 24.6802 30.1796 25.1702C29.8996 25.6202 29.2096 26.3302 28.8796 26.6702L28.5196 27.0402C27.6396 27.9702 27.7396 29.1402 27.7996 29.8402C27.7996 29.9302 27.8196 30.0402 27.8196 30.1402C27.7796 30.1602 27.7296 30.1802 27.6896 30.2002C27.0796 30.5002 25.9496 31.0502 25.8196 32.7702C25.7596 33.6202 25.4696 33.7502 25.0196 33.7702C24.5696 33.4002 23.8596 31.7302 23.9396 31.2002C24.2996 29.6802 23.9796 28.6502 22.9296 28.0702C22.6296 27.9102 22.5996 27.8902 22.1496 26.6702C21.3996 24.6302 19.7196 25.1802 18.9096 25.4502C18.5696 25.5602 18.2196 25.6702 17.9296 25.6902C17.7496 25.6902 17.4596 25.5602 17.2796 25.2302C16.9396 24.6002 17.1596 23.6502 17.8596 22.7002C19.0896 21.0102 20.4396 20.7802 22.2296 21.9602C23.0496 22.5002 24.0996 22.5002 25.0896 21.9602C26.6196 21.1302 27.7696 19.2702 27.7696 17.6202C27.7696 15.8502 26.3696 15.4302 25.6096 15.2102C24.9096 15.0002 24.9096 14.9702 24.9096 14.7602C24.9096 13.8302 26.9196 12.9402 28.8596 12.0802C29.4996 11.8002 30.1596 11.5102 30.8096 11.1902C30.8596 11.1702 30.8896 11.1302 30.9296 11.1002C30.9896 11.0602 31.0496 11.0202 31.0996 10.9702C31.1496 10.9102 31.1796 10.8502 31.2196 10.7902C31.2396 10.7502 31.2796 10.7202 31.2996 10.6702V10.6502C31.3296 10.5802 31.3296 10.5002 31.3396 10.4302C31.3396 10.3802 31.3696 10.3202 31.3596 10.2702C31.3596 10.2202 31.3396 10.1702 31.3296 10.1102C31.3096 10.0302 31.3096 9.96023 31.2696 9.89023V9.87023C31.2496 9.82023 31.2096 9.79023 31.1796 9.75023C31.1396 9.69023 31.0996 9.63023 31.0496 9.57023C30.9896 9.52023 30.9296 9.49023 30.8596 9.45023C30.8196 9.43023 30.7896 9.39023 30.7396 9.37023C30.7296 9.37023 30.7096 9.37023 30.6996 9.36023C30.6996 9.36023 30.6996 9.36023 30.6896 9.36023C28.8296 8.62023 26.8596 8.24023 24.8396 8.24023C21.6796 8.24023 18.6296 9.17023 16.0296 10.9202C15.5696 11.2302 15.4496 11.8502 15.7596 12.3102C15.9496 12.6002 16.2696 12.7502 16.5896 12.7502C16.7796 12.7502 16.9796 12.6902 17.1496 12.5802C19.4296 11.0502 22.0896 10.2402 24.8496 10.2402C25.7596 10.2402 26.6496 10.3302 27.5296 10.5002C24.9996 11.6302 22.8996 12.6902 22.8996 14.7802C22.8996 16.5102 24.2896 16.9202 25.0296 17.1402C25.7596 17.3602 25.7596 17.3902 25.7596 17.6402C25.7596 18.5502 24.9996 19.7502 24.1296 20.2202C23.7896 20.4102 23.5096 20.4302 23.3096 20.3002C20.6496 18.5602 18.0696 19.0102 16.2296 21.5402C14.5596 23.8302 15.1696 25.5602 15.5096 26.1902C16.0196 27.1502 16.9996 27.7602 17.9996 27.7102C18.5696 27.6902 19.0796 27.5202 19.5196 27.3802C19.7596 27.3002 20.1196 27.1902 20.1496 27.1602C20.1496 27.1602 20.1996 27.2102 20.2696 27.3902C20.8796 29.0502 21.1196 29.4002 22.0596 29.9002C22.0596 29.9002 22.1596 30.0802 21.9996 30.7702C21.7296 31.9302 22.5796 33.9402 23.3196 34.8702C23.8096 35.4802 24.3396 35.8002 24.8996 35.8002C26.6296 35.8002 27.6896 34.7602 27.8196 32.9502C27.8596 32.3802 28.0496 32.2802 28.5696 32.0302C28.7896 31.9202 29.0396 31.8002 29.2696 31.6202C29.9196 31.1002 29.8496 30.2902 29.7996 29.7002C29.7496 29.0902 29.7296 28.7002 29.9796 28.4502L30.3096 28.1002C31.3696 27.0102 32.5696 25.7802 32.2396 24.5502L32.2696 24.5102Z" fill="#323232"/>
<path d="M24.8803 39.81C16.1603 39.81 9.07031 32.72 9.07031 24C9.07031 23.45 9.52031 23 10.0703 23C10.6203 23 11.0703 23.45 11.0703 24C11.0703 31.62 17.2703 37.81 24.8803 37.81C31.1703 37.81 36.6703 33.56 38.2503 27.49C38.3903 26.96 38.9303 26.63 39.4703 26.77C40.0003 26.91 40.3203 27.46 40.1903 27.99C38.3803 34.95 32.0903 39.81 24.8903 39.81H24.8803Z" fill="#323232"/>
<path d="M38.0001 25.7801C37.7301 25.7801 37.4701 25.6701 37.2801 25.4801L29.6301 17.6201C29.3501 17.3301 29.2701 16.9001 29.4201 16.5301C29.5701 16.1601 29.9401 15.9201 30.3401 15.9201H32.0301V10.3101C32.0301 9.76006 32.4801 9.31006 33.0301 9.31006H42.9601C43.5101 9.31006 43.9601 9.76006 43.9601 10.3101V15.9201H45.6501C46.0501 15.9201 46.4201 16.1601 46.5701 16.5301C46.7201 16.9001 46.6501 17.3301 46.3601 17.6201L38.7101 25.4801C38.5201 25.6701 38.2601 25.7801 37.9901 25.7801H38.0001ZM32.7201 17.9201L38.0001 23.3401L43.2801 17.9201H42.9601C42.4101 17.9201 41.9601 17.4701 41.9601 16.9201V11.3101H34.0301V16.9201C34.0301 17.4701 33.5801 17.9201 33.0301 17.9201H32.7101H32.7201Z" fill="#323232"/>
<path d="M38.8308 15.1498V14.9698C38.8308 14.4998 38.5208 14.1798 38.0508 14.1798C37.5808 14.1798 37.3108 14.4698 37.3108 14.8598C37.3108 15.0898 37.4108 15.3898 37.7908 15.5398L38.6008 15.8598C39.3208 16.1498 40.1008 16.5398 40.1008 17.6698C40.1008 18.6698 39.4708 19.3698 38.4708 19.4998V20.4398H37.6208V19.4798C36.6708 19.3198 36.0508 18.6798 36.0508 17.7298V17.5198H37.2008V17.7698C37.2008 18.2598 37.5308 18.5498 38.0808 18.5498C38.6308 18.5498 38.9608 18.2198 38.9608 17.7798C38.9608 17.3998 38.7608 17.1498 38.3808 16.9898L37.5008 16.6498C36.7008 16.3298 36.1708 15.8098 36.1708 14.9498C36.1708 14.1298 36.7008 13.4298 37.6108 13.2698V12.3198H38.4608V13.2698C39.3608 13.4198 39.9708 14.0698 39.9708 15.0298V15.1598H38.8208L38.8308 15.1498Z" fill="#DF0000"/>
<path d="M17.8006 14.5002H13.4606C13.4606 14.5002 10.6606 12.4402 10.0706 11.9802C9.59057 11.6102 8.70057 11.4402 8.13057 11.4102C7.93057 11.4102 7.79057 11.6202 7.90057 11.8002L9.49057 14.5102H5.41057L4.29057 12.9502C4.11057 12.7002 3.81057 12.5502 3.50057 12.5502H2.74057C2.47057 12.5502 2.28057 12.8302 2.38057 13.0902L3.70057 16.4402C3.85057 16.8202 4.21057 17.0602 4.61057 17.0602H7.22057L9.62057 17.0302L7.51057 20.8702C7.41057 21.0502 7.55057 21.2702 7.75057 21.2502C8.32057 21.2202 9.27057 21.0902 9.71057 20.6502C10.7106 19.6502 13.9906 17.0002 13.9906 17.0002C13.9906 17.0002 18.4906 16.9802 19.9206 16.9702C20.1406 16.9702 20.3106 16.7902 20.3006 16.5702C20.2706 15.8002 20.0006 14.4802 17.8206 14.4802L17.8006 14.5002Z" fill="#323232"/>
</svg>
