<svg width="24" height="24" viewBox="0 0 24 24" fill="none" xmlns="http://www.w3.org/2000/svg">
<g clip-path="url(#clip0_16335_5817)">
<path d="M20.4851 20.4853C25.1714 15.799 25.1714 8.20101 20.4851 3.51472C15.7988 -1.17157 8.20081 -1.17157 3.51452 3.51472C-1.17177 8.20101 -1.17177 15.799 3.51452 20.4853C8.20081 25.1716 15.7988 25.1716 20.4851 20.4853Z" fill="white"/>
<mask id="mask0_16335_5817" style="mask-type:luminance" maskUnits="userSpaceOnUse" x="-1" y="0" width="25" height="24">
<path d="M20.4851 20.4853C25.1714 15.799 25.1714 8.20101 20.4851 3.51472C15.7988 -1.17157 8.20081 -1.17157 3.51452 3.51472C-1.17177 8.20101 -1.17177 15.799 3.51452 20.4853C8.20081 25.1716 15.7988 25.1716 20.4851 20.4853Z" fill="white"/>
</mask>
<g mask="url(#mask0_16335_5817)">
<path d="M29.9993 0H-6.00067V24H29.9993V0Z" fill="#00ADFE"/>
<path fill-rule="evenodd" clip-rule="evenodd" d="M9.73053 4.06526H11.4634L11.9986 2.41626L12.5352 4.06526H14.2681L12.865 5.08122L13.4017 6.73162L11.9986 5.70868L10.597 6.73162L11.1336 5.08122L9.73053 4.06526Z" fill="white"/>
<path fill-rule="evenodd" clip-rule="evenodd" d="M9.73193 19.9306L11.1364 18.9146L10.6053 17.2656L12.0042 18.2872L13.4101 17.2726L12.8678 18.9188L14.2695 19.9418L12.5338 19.9348L11.9958 21.5838L11.4648 19.932L9.73193 19.9306Z" fill="white"/>
<path fill-rule="evenodd" clip-rule="evenodd" d="M2.42603 12.0112L4.07363 11.4718L4.06804 9.73755L5.09098 11.1364L6.73719 10.597L5.72124 12L6.74558 13.4003L5.09518 12.8665L4.08202 14.2751L4.07643 12.5409L2.42603 12.0112Z" fill="white"/>
<path fill-rule="evenodd" clip-rule="evenodd" d="M21.5727 12.0112L19.9251 11.4718L19.9306 9.73755L18.9077 11.1364L17.2615 10.597L18.2775 12L17.2531 13.4003L18.9035 12.8665L19.9167 14.2751L19.9223 12.5409L21.5727 12.0112Z" fill="white"/>
</g>
</g>
<rect x="0.25" y="0.25" width="23.5" height="23.5" rx="11.75" stroke="#E5E3E1" stroke-width="0.5"/>
<defs>
<clipPath id="clip0_16335_5817">
<rect width="24" height="24" rx="12" fill="white"/>
</clipPath>
</defs>
</svg>
