<svg width="24" height="24" viewBox="0 0 24 24" fill="none" xmlns="http://www.w3.org/2000/svg">
<path d="M10.5165 1.61426C11.3359 0.795263 12.664 0.795232 13.4833 1.61426L22.3857 10.5166C23.2047 11.3359 23.2047 12.6641 22.3857 13.4834L13.4833 22.3858L13.3242 22.5293C12.555 23.1567 11.4449 23.1567 10.6757 22.5293L10.5165 22.3858L1.61419 13.4834C0.846242 12.7152 0.798504 11.4998 1.47063 10.6758L1.61419 10.5166L10.5165 1.61426ZM12.0693 3.02832C12.031 2.99034 11.9689 2.99038 11.9306 3.02832L3.02825 11.9307C2.99026 11.969 2.99026 12.0311 3.02825 12.0694L11.9306 20.9717C11.9689 21.0097 12.031 21.0097 12.0693 20.9717L20.9716 12.0694C21.0096 12.0311 21.0096 11.9689 20.9716 11.9307L12.0693 3.02832ZM12.999 17H10.9999V15H12.999V17ZM12.999 13H10.9999V7.00001H12.999V13Z" fill="#323232"/>
</svg>
