<svg width="48" height="48" viewBox="0 0 48 48" fill="none" xmlns="http://www.w3.org/2000/svg">
<path d="M27.4194 21.6L22.8994 17.06C22.7294 16.89 22.5694 16.74 22.4094 16.6C20.3094 14.74 17.6694 13.71 14.9494 13.71H11.9394C11.6094 13.71 11.2994 13.87 11.1194 14.14C10.9294 14.41 10.8894 14.76 11.0094 15.06L14.9894 25.51C15.0394 25.64 15.1194 25.77 15.2194 25.87L22.4394 32.96C22.6294 33.14 22.8794 33.25 23.1394 33.25H36.6094C37.0094 33.25 37.3794 33.01 37.5294 32.63C37.6894 32.26 37.5994 31.83 37.3194 31.54L27.4194 21.59V21.6Z" fill="#DF0000"/>
<path d="M45.3505 20.8998L35.4505 10.9498L30.9405 6.41982C30.7705 6.24982 30.6105 6.09982 30.4505 5.95982C28.3505 4.09982 25.7105 3.06982 22.9905 3.06982H19.9805C19.6505 3.06982 19.3405 3.22982 19.1605 3.49982C18.9705 3.76982 18.9305 4.11982 19.0505 4.41982L23.0305 14.8698C23.0805 14.9998 23.1605 15.1298 23.2605 15.2298L30.4805 22.3198C30.6705 22.4998 30.9205 22.6098 31.1805 22.6098H44.6505C45.0505 22.6098 45.4205 22.3698 45.5705 21.9898C45.7305 21.6198 45.6405 21.1898 45.3605 20.8998H45.3505Z" fill="#DF0000"/>
<path d="M19.5 32.62L14.98 28.08C14.82 27.92 14.65 27.76 14.5 27.63C12.44 25.8 9.84 24.79 7.17 24.79H4.16C3.9 24.79 3.65 24.92 3.5 25.14C3.35 25.36 3.32 25.63 3.41 25.88L4.38 28.41C7.56 31.84 10.25 29.81 15.27 34.61L15.34 34.67C16.15 35.44 16.69 34.72 16.43 34.29C16.19 33.87 16.22 33.65 16.24 33.6C17.43 33.95 18.5 34.55 19.41 35.37L19.34 35.53C18.88 36.46 14.47 36.06 14.42 38.02C14.42 38.55 14.72 39.01 15.17 39.21L16.05 39.58C18.5 40.6 20.73 42.1 22.63 43.95H28.85C29.17 43.95 29.46 43.76 29.59 43.46C29.71 43.16 29.65 42.82 29.42 42.59L19.52 32.64L19.5 32.62Z" fill="#DF0000"/>
<path d="M12.8499 39.8702C12.2699 34.2402 8.36992 33.8902 5.16992 30.4902L10.0999 43.4202C10.2199 43.7302 10.5199 43.9302 10.8499 43.9302H21.9299C19.2799 42.0702 16.3499 40.8902 13.3499 40.4002C13.0899 40.3602 12.8899 40.1402 12.8599 39.8702H12.8499Z" fill="#DF0000"/>
</svg>
