<svg width="24" height="24" viewBox="0 0 24 24" fill="none" xmlns="http://www.w3.org/2000/svg">
<path fill-rule="evenodd" clip-rule="evenodd" d="M17.7507 14.6463C18.0559 16.0938 18.0559 19.2941 16.6436 21.9996H14.8759C15.422 21.5017 15.6982 21.0041 16.0023 20.3578C16.1318 20.6714 16.1958 21.0498 16.2108 21.4667C16.3698 20.9944 17.245 19.5573 17.2283 17.5415C17.531 16.5555 17.7059 15.487 17.7507 14.6463ZM16.3796 10.5128C16.9593 11.3053 17.4474 12.1902 17.2603 14.2725C16.9356 17.0914 16.0861 19.9253 13.9205 21.9998H13.0817C13.0965 21.757 13.0606 21.1318 12.9305 20.7105C13.737 19.8793 14.6122 18.5074 14.9374 17.5021C15.1644 17.9649 15.2838 18.3968 15.3437 18.949C15.9101 17.9368 16.3439 16.4629 16.4631 15.461C16.3887 15.1461 16.2417 14.8331 16.0833 14.5997C16.2785 14.1057 16.4439 13.1656 16.4528 12.6519C16.5917 12.7925 16.7351 13.1066 16.8028 13.279C16.8677 12.8902 16.7755 12.2632 16.4993 11.8488C16.509 11.5542 16.4394 10.8313 16.3796 10.5128ZM21.9959 1.9998V21.9985H17.4534C18.083 20.7508 18.7469 18.4699 18.609 15.9064C18.3846 11.6936 16.549 8.63913 13.8632 6.22405C10.559 3.25649 4.86867 2.74134 2.00944 3.64801V1.9998H21.9959ZM14.3685 7.84012C15.3479 8.67132 16.2144 9.77681 15.9655 12.2462C15.5915 15.97 13.3967 19.5196 10.8048 21.992H7.73002C8.79067 21.2895 9.51801 20.6524 10.1958 19.7941C10.4124 20.284 10.5258 21.219 10.5258 21.2182C11.02 20.8013 12.0428 19.6956 12.385 19.0835C12.2823 18.7469 12.0464 18.2161 11.8582 17.9752C12.5301 17.3106 13.1934 16.094 13.4326 15.2823C13.7097 15.5602 13.9848 16.0441 14.0906 16.3596C14.5206 15.5744 14.9162 14.6112 15.1034 13.5463C14.9575 13.235 14.713 12.8858 14.442 12.6185C14.6347 12.0697 14.7405 11.2788 14.7227 10.6334C14.9252 10.789 15.2838 11.2412 15.464 11.5629C15.4598 10.4524 15.3479 9.73978 14.6843 9.14693C14.6718 8.81891 14.5704 8.26588 14.3685 7.84012ZM11.2533 5.38507C13.5609 6.16699 13.838 7.80629 14.0087 8.45705C14.3902 10.9373 13.875 13.1485 12.7676 15.2829C11.365 17.9926 9.6385 19.557 6.64199 21.9855H2.00173V21.7488C3.16458 21.3996 4.51901 20.6628 5.09069 20.1596C5.29257 20.6444 5.49418 21.4355 5.55488 21.893C6.0756 21.5748 6.70074 21.1518 7.13097 20.6467C7.00538 20.2379 6.74669 19.6854 6.48717 19.2925C7.23483 18.7832 8.20332 17.8623 8.77472 17.1456C9.00779 17.5034 9.28848 18.1305 9.43077 18.61C9.99716 18.1394 10.6875 17.3012 11.0386 16.7251C10.8222 16.3339 10.4625 15.8644 10.0868 15.5079C10.6482 14.8388 11.2575 13.6654 11.4362 13.0586C11.757 13.2399 12.3128 13.8606 12.5169 14.1783C12.9171 13.442 13.1566 12.6788 13.2927 11.837C13.0368 11.5354 12.5857 11.1776 12.1641 10.9866C12.2997 10.5135 12.442 9.71652 12.4097 9.19775C12.7695 9.35425 13.2577 9.71207 13.5063 9.97688C13.5609 9.44558 13.5161 8.91985 13.3754 8.39634C13.1465 8.16522 12.6322 7.86086 12.3217 7.7712C12.2908 7.42368 12.1483 6.99095 12.0358 6.75705C12.2908 6.81163 12.7968 7.12461 12.9945 7.28918C12.7968 6.81163 12.2538 6.34186 11.8361 6.18732C11.7102 5.95926 11.4713 5.59531 11.2533 5.38507ZM7.90152 4.19376C8.60686 4.29735 10.1651 4.56495 11.0167 5.91381C11.5357 6.73806 12.0887 8.24815 11.539 10.7451C10.4107 15.876 5.65964 19.6667 2.00095 20.9911V18.1897C2.54812 17.9096 3.09056 17.6234 3.43112 17.2733C3.78198 17.8063 4.09413 18.4521 4.28516 19.0719C4.81256 18.8012 5.43882 18.3607 5.78383 18.0068C5.53127 17.5549 4.97017 16.7668 4.56028 16.3669C5.16258 15.9843 6.0467 15.0908 6.41594 14.4776C6.87707 14.8418 7.53033 15.6984 7.79153 16.1703C8.27633 15.7627 8.71407 15.2278 9.08888 14.5542C8.76447 14.1504 7.92101 13.4055 7.41589 13.0995C7.76062 12.6871 8.24709 11.6685 8.41779 11.1347C8.99392 11.3792 9.89613 11.9411 10.3447 12.3407C10.643 11.7654 10.8549 11.0845 10.934 10.4778C10.5224 10.1823 9.63772 9.73095 9.02901 9.53575C9.16879 9.09522 9.2657 8.506 9.28129 8.10028C9.86801 8.20666 10.6878 8.53301 11.1361 8.78892C11.1389 8.33168 11.1303 7.92625 10.9796 7.46205C10.5778 7.28607 9.78642 7.06441 9.32696 7.00538C9.31666 6.64477 9.27545 6.30087 9.18996 6.01935C9.6483 6.04246 10.2233 6.21204 10.5962 6.37745C10.4029 5.97285 9.98747 5.27391 8.83659 5.0634C8.62524 4.73008 8.20226 4.35276 7.90152 4.19376ZM8.35767 9.37978C7.32514 13.0218 5.14396 15.4683 2.00487 17.3435V15.4271C2.1881 15.5786 2.42368 15.8729 2.58379 16.1394C2.93465 15.9654 3.40358 15.6337 3.64612 15.3684C3.39467 15.0119 2.4738 14.1061 2.00487 13.8248C2.00404 13.829 2.00404 13.5898 2.00487 13.5767C2.43259 13.3498 3.17385 12.8029 3.49491 12.3777C4.02176 12.6041 5.06125 13.4559 5.29627 13.765C5.66997 13.3865 6.11216 12.7703 6.29957 12.3585C5.88076 11.9954 5.06989 11.5256 4.47732 11.3162C4.80451 10.9742 5.13616 10.4123 5.28374 10.0122C5.79806 10.1263 6.7465 10.4034 7.18618 10.6593C7.40143 10.2734 7.566 9.7674 7.67934 9.21883C7.23464 9.0395 6.32324 8.87382 5.73318 8.81256C5.81143 8.56529 5.86712 7.94348 5.85097 7.68758C6.52651 7.67254 7.45629 7.76861 7.95223 7.8864C8.02268 7.59012 8.04551 7.23898 7.98843 6.88199C7.41062 6.79316 6.44381 6.73775 5.78776 6.78509C5.78079 6.51609 5.68835 6.11066 5.58977 5.92075C6.11216 5.83526 7.17115 5.82579 7.78181 5.89513C7.68658 5.60497 7.566 5.30953 7.3023 5.09205C6.87681 5.05251 5.90053 5.09845 5.29627 5.2065C5.18183 4.98735 4.9883 4.7579 4.78168 4.61922C5.17292 4.50032 5.98212 4.41762 6.42376 4.44491C6.06566 4.26029 5.38399 4.08514 4.33586 4.22242C4.0185 4.01942 3.66515 3.92957 3.54715 3.90361L3.50633 3.89523C7.61362 3.13614 9.47207 4.95143 8.35767 9.37978ZM5.02995 6.31254C5.64479 8.76132 4.27644 11.1586 2.00281 12.7015L2.00643 11.8288C2.26234 11.6916 2.95375 11.1121 3.14283 10.8086C2.85239 10.7066 2.32666 10.6329 2.00031 10.639V9.53349C2.54832 9.50063 3.37673 9.60199 3.893 9.71895C4.11354 9.38117 4.23328 9.09547 4.31431 8.71092C3.76352 8.60733 2.60178 8.63546 2.00031 8.72234V7.94849C2.62127 7.7778 3.98434 7.64859 4.51731 7.70735C4.55796 7.46481 4.54822 7.156 4.4683 6.88088C3.93755 6.83939 2.60178 6.99505 2.00281 7.17632V6.54923C2.55611 6.31365 3.80918 6.09284 4.34132 6.05775C4.29315 5.83498 4.15503 5.57211 3.99297 5.42871C3.49619 5.46658 2.5756 5.66011 2.00281 5.84918V5.25996C2.34142 5.10235 3.07238 4.92302 3.45582 4.89768C3.25004 4.75873 2.58424 4.56409 2.0056 4.60474L2.00281 4.15085C3.77939 4.07261 4.72142 5.07952 5.02995 6.31254Z" fill="#0033A1"/>
</svg>
