<svg width="24" height="24" viewBox="0 0 24 24" fill="none" xmlns="http://www.w3.org/2000/svg">
<path fill-rule="evenodd" clip-rule="evenodd" d="M18 11V6H15L19 2L23 6H20V11H18ZM4.28623 2.84938C3.65806 3.75938 3.87742 4.99938 4.7748 5.63938C5.68216 6.26938 6.91855 6.04938 7.55669 5.14938C8.18486 4.23938 7.9655 2.99938 7.06812 2.35938C6.16076 1.72938 4.9144 1.94938 4.28623 2.84938ZM14.3968 18.9994C14.9452 18.9994 15.3938 19.4494 15.3938 19.9994C15.3938 20.5494 14.9452 20.9994 14.3968 20.9994H8.35437C5.89155 20.9994 3.79765 19.1994 3.41876 16.7594L1.67384 8.17938C1.55419 7.56938 2.01286 6.99938 2.63105 6.99938C3.09969 6.99938 3.49852 7.32938 3.58826 7.77938L5.393 16.4594C5.61236 17.9194 6.8687 18.9994 8.3444 18.9994H14.3968ZM10.7574 14.9994H14.9352C15.3839 14.9994 15.8126 15.1494 16.1616 15.4194L20.4391 18.7694C20.9377 19.1594 20.9875 19.8894 20.5388 20.3394C20.1699 20.7094 19.5717 20.7494 19.1529 20.4194L16.0719 17.9994H9.24178C7.80597 17.9994 6.57954 16.9794 6.30036 15.5594L4.95428 9.63938C4.74489 8.41938 5.56251 7.24938 6.78893 7.02938H6.80887C7.13791 6.96938 7.47692 6.99938 7.79599 7.08938C8.06521 7.16938 8.32445 7.28938 8.55379 7.46938L10.189 8.73938C11.1662 9.50938 12.4823 10.0294 13.7885 10.0694C14.3768 10.0894 14.8654 10.5394 14.8654 11.1294C14.8654 11.7094 14.3968 12.2094 13.8184 12.1994C12.3527 12.1794 11.0066 11.6194 9.73036 10.8994L10.7574 14.9994Z" fill="#323232"/>
</svg>
