<svg width="48" height="48" viewBox="0 0 48 48" fill="none" xmlns="http://www.w3.org/2000/svg">
<path d="M33.5896 36.9105C32.9596 36.9105 32.3296 36.6405 31.7496 36.0905C31.5796 35.9305 31.4196 35.7805 31.2496 35.6305C30.2096 34.6905 29.0396 33.6305 28.6696 31.8705C28.6096 31.8605 28.4996 31.8705 28.3596 31.9305C28.2296 31.9705 28.0696 32.0605 27.8796 32.1705C27.7696 32.2305 27.6496 32.3005 27.5296 32.3605C27.1596 32.5505 26.7096 32.4905 26.3996 32.2105L25.8096 31.6705C25.3896 31.2905 24.9796 30.9105 24.5596 30.5405C23.0296 29.2305 21.4096 28.9205 19.7496 29.6305C18.4596 30.1805 17.1896 30.9105 15.9596 31.6205L15.2796 32.0105C14.6596 32.3705 14.0396 32.7505 13.4296 33.1305C12.6396 33.6205 11.8296 34.1305 10.9896 34.5905C10.5796 34.8105 10.1496 34.9405 9.78958 35.0305C9.17958 35.1805 8.54958 35.0505 8.05958 34.6705C7.58958 34.3105 7.30958 33.7605 7.29958 33.1705C7.28958 32.5805 6.94958 32.0705 6.56958 31.4805C6.47958 31.3405 6.37958 31.2005 6.28958 31.0505C4.41958 28.0605 3.37958 25.6005 2.90958 23.0605C2.37958 20.1805 3.16958 18.8405 5.92958 17.9305L6.08958 17.8805C6.38958 17.7805 6.73958 17.6605 7.09958 17.6005C8.97958 17.2505 10.2396 16.1105 11.4296 13.6805C12.0296 12.4505 12.8196 11.3105 13.5696 10.2205L14.0496 9.53045C14.6396 8.66045 15.8096 8.39046 16.7196 8.92045C17.0896 9.14045 17.3996 9.32045 17.7196 9.48045C17.8696 9.56045 17.9996 9.53046 18.0696 9.50045C18.1396 9.48045 18.2596 9.42046 18.3296 9.27046L18.4396 9.05046C18.5896 8.75045 18.7296 8.46045 18.7696 8.23045C18.9496 7.14045 19.6096 5.85045 21.7696 5.90045C22.6696 5.92045 23.5696 5.92045 24.5396 5.91045H25.9196C26.2596 5.91045 26.5696 6.08045 26.7596 6.36045C26.9396 6.64046 26.9696 7.00045 26.8296 7.31045L26.5296 7.98045C26.3296 8.43045 26.1496 8.84045 25.9596 9.24045C25.7496 9.68045 25.8796 10.2105 26.2596 10.4705C27.6396 11.4105 29.2796 11.8705 31.2796 11.8105C31.5896 11.8105 31.8096 11.5405 31.9396 11.0205C32.1896 10.0305 32.3796 8.99045 32.5596 7.98045C32.6296 7.60045 32.6996 7.22045 32.7696 6.83045L32.7896 6.72045C32.8796 6.25045 32.9796 5.68045 33.4096 5.01045C33.6096 4.69045 33.9796 4.52045 34.3596 4.56045C34.7396 4.60045 35.0596 4.85045 35.1896 5.20045C35.3096 5.52045 35.4496 5.84045 35.5996 6.16045C35.9496 6.94045 36.2996 7.75045 36.4396 8.65045C36.9696 12.0005 38.3696 14.4105 40.8496 16.2405C41.5696 16.7705 42.1096 17.4505 42.6296 18.1105C42.8396 18.3705 43.0396 18.6305 43.2496 18.8705C45.2096 21.1105 45.7396 23.7905 44.7696 26.6405C44.3596 27.8505 43.8196 29.0005 43.2896 30.1205C43.0596 30.6005 42.8296 31.0905 42.6196 31.5805L40.8396 35.5705C40.7096 35.8505 40.4596 36.0605 40.1596 36.1305L39.8196 36.2205C39.4296 36.3205 38.8996 36.4705 38.3496 36.5505C37.8496 36.6205 37.1296 36.5705 36.6096 36.1705C36.1096 35.7905 35.7596 35.8005 35.2696 36.2005C34.7296 36.6405 34.1496 36.8705 33.5796 36.8705L33.5896 36.9105ZM28.6596 29.8705C29.0596 29.8705 29.4196 29.9605 29.7396 30.1505C30.1996 30.4205 30.5096 30.8805 30.6196 31.4305C30.8496 32.5805 31.6496 33.3105 32.5896 34.1505C32.7696 34.3105 32.9496 34.4705 33.1196 34.6405C33.5096 35.0105 33.6596 34.9905 34.0196 34.7005C35.2196 33.7205 36.6096 33.7005 37.8296 34.6305C37.8296 34.6305 37.8796 34.6305 37.9396 34.6305C37.9796 34.6305 38.0196 34.6305 38.0596 34.6305C38.4596 34.5705 38.8696 34.4605 39.2196 34.3705L40.7996 30.8205C41.0196 30.3205 41.2596 29.8205 41.4896 29.3205C42.0096 28.2105 42.5096 27.1505 42.8796 26.0605C43.6096 23.9005 43.2296 21.9405 41.7496 20.2505C41.5096 19.9805 41.2896 19.7005 41.0596 19.4105C40.5996 18.8305 40.1596 18.2805 39.6596 17.9105C36.7596 15.7805 35.0596 12.8805 34.4596 9.02046C34.4596 8.97046 34.4396 8.93046 34.4396 8.88046C34.2796 9.76046 34.0996 10.6605 33.8796 11.5505C33.5196 12.9705 32.5596 13.8205 31.3096 13.8505C28.9296 13.8805 26.8396 13.3205 25.1296 12.1605C23.9196 11.3405 23.5096 9.77045 24.1396 8.42045C24.2096 8.26045 24.2896 8.11045 24.3596 7.95045C23.4396 7.95045 22.5696 7.95045 21.6996 7.94045C20.8696 7.92045 20.7996 8.12046 20.7296 8.59046C20.6396 9.12045 20.4196 9.57046 20.2196 9.97046L20.1196 10.1705C19.8296 10.7705 19.3296 11.2205 18.6896 11.4305C18.0596 11.6405 17.3896 11.6005 16.7996 11.3005C16.4496 11.1205 16.1096 10.9205 15.6996 10.6905L15.2096 11.4005C14.4596 12.4805 13.7496 13.5105 13.2196 14.6105C12.1696 16.7505 10.6696 19.0105 7.45958 19.6105C7.20958 19.6605 6.95958 19.7405 6.70958 19.8305L6.53958 19.8805C4.74958 20.4705 4.51958 20.8705 4.85958 22.7405C5.27958 25.0205 6.23958 27.2605 7.96958 30.0305C8.04958 30.1605 8.13958 30.2905 8.21958 30.4205C8.70958 31.1605 9.25958 32.0005 9.27958 33.1705C9.62958 33.0405 9.84958 32.9605 10.0196 32.8705C10.8096 32.4405 11.5996 31.9505 12.3596 31.4705C12.9896 31.0705 13.6296 30.6805 14.2696 30.3105L14.9496 29.9205C16.2296 29.1805 17.5496 28.4105 18.9596 27.8205C21.3396 26.8105 23.7296 27.2405 25.8496 29.0505C26.2896 29.4305 26.7196 29.8205 27.1596 30.2205L27.2196 30.2705C27.3796 30.1905 27.5496 30.1105 27.7296 30.0505C28.0496 29.9505 28.3596 29.9005 28.6496 29.9005L28.6596 29.8705Z" fill="#323232"/>
<path d="M37.1296 43.41C34.0296 43.41 33.9496 40.69 33.8996 39.23L33.8796 38.76C33.8696 38.49 33.9696 38.22 34.1596 38.02C34.3496 37.82 34.6096 37.71 34.8796 37.71H38.9696C39.4696 37.71 39.8896 38.08 39.9596 38.57C40.0696 39.36 40.2096 41.32 39.1796 42.51C38.6696 43.09 37.9596 43.4 37.1196 43.4L37.1296 43.41ZM35.9296 39.71C36.0096 41.15 36.2396 41.41 37.1296 41.41C37.4596 41.41 37.5896 41.31 37.6796 41.2C37.9096 40.93 38.0396 40.38 38.0496 39.71H35.9296Z" fill="#323232"/>
</svg>
