<svg width="48" height="48" viewBox="0 0 48 48" fill="none" xmlns="http://www.w3.org/2000/svg">
<path d="M44.0203 41.1399L37.8303 27.8599H25.4003L19.3103 40.9099C19.3103 40.9099 19.0703 41.4099 19.0703 41.8399C19.0703 43.1899 20.1703 44.2899 21.5203 44.2899H41.7103C43.0603 44.2899 44.1603 43.1899 44.1603 41.8399C44.1603 41.4099 44.0203 41.1299 44.0203 41.1299V41.1399ZM31.6103 41.1399C29.7503 41.1399 28.2303 39.6299 28.2303 37.7599C28.2303 37.3299 28.3103 36.9299 28.4603 36.5499L28.6103 36.1299C29.4903 33.6799 31.6103 31.0099 31.6103 31.0099C31.6103 31.0099 33.5103 33.4899 34.4603 35.8099L34.7603 36.5799C34.9003 36.9399 34.9803 37.3399 34.9803 37.7499C34.9803 39.6099 33.4703 41.1299 31.6003 41.1299L31.6103 41.1399Z" fill="#8DE2E0"/>
<path d="M44.9201 40.6401L35.8301 21.1501V14.3101C36.3701 14.3001 36.8001 13.8601 36.8001 13.3201C36.8001 12.7801 36.3501 12.3201 35.8001 12.3201H27.2201C26.6701 12.3201 26.2201 12.7701 26.2201 13.3201C26.2201 13.8701 26.6701 14.3201 27.2201 14.3201H27.3801V21.1501L26.0101 24.0801C25.8601 23.9001 25.7201 23.7201 25.5601 23.5501C25.5601 23.5501 25.5601 23.5501 25.5501 23.5401C24.2501 22.0901 22.6201 20.9401 20.8201 20.1901V8.89006H22.8401C23.3901 8.89006 23.8401 8.44006 23.8401 7.89006C23.8401 7.34006 23.3901 6.89006 22.8401 6.89006H19.5101C19.5201 6.76006 19.5401 6.63006 19.5401 6.50006C19.5401 4.46006 17.8801 2.81006 15.8501 2.81006C13.8201 2.81006 12.1601 4.47006 12.1601 6.50006C12.1601 6.63006 12.1801 6.76006 12.1901 6.89006H8.86008C8.31008 6.89006 7.86008 7.34006 7.86008 7.89006C7.86008 8.44006 8.31008 8.89006 8.86008 8.89006H10.6701V20.2801C8.94008 21.0301 7.42008 22.1501 6.19008 23.5101C6.17008 23.5301 6.15008 23.5501 6.13008 23.5801C4.06008 25.9201 2.83008 28.9701 2.83008 32.2101C2.83008 39.3901 8.67008 45.2301 15.8501 45.2301C17.1301 45.2301 18.4001 45.0401 19.6401 44.6701C20.1801 45.0101 20.8101 45.2201 21.5001 45.2201H41.6901C43.5901 45.2201 45.1401 43.6701 45.1401 41.7701C45.1401 41.1801 44.9601 40.7501 44.9101 40.6401H44.9201ZM29.2901 21.8001C29.3501 21.6701 29.3801 21.5201 29.3801 21.3801V14.3201H33.8301V21.3801C33.8301 21.5301 33.8601 21.6701 33.9201 21.8001L36.2801 26.8601H26.9201L29.2801 21.8001H29.2901ZM14.1701 6.50006C14.1701 5.57006 14.9301 4.81006 15.8601 4.81006C16.7901 4.81006 17.5501 5.57006 17.5501 6.50006C17.5501 6.63006 17.5101 6.76006 17.4801 6.89006H14.2401C14.2101 6.76006 14.1701 6.63006 14.1701 6.50006ZM12.0301 21.9001C12.4201 21.7501 12.6801 21.3801 12.6801 20.9601V8.89006H18.8301V20.8801C18.8301 21.3001 19.1001 21.6801 19.5001 21.8201C20.4701 22.1601 21.3901 22.6501 22.2301 23.2401H9.50008C10.2701 22.6901 11.1201 22.2301 12.0301 21.8901V21.9001ZM4.85008 32.2201C4.85008 29.6301 5.78008 27.1801 7.36008 25.2501H24.3901C24.6301 25.5401 24.8501 25.8301 25.0601 26.1401L18.4101 40.4101C18.3501 40.5301 18.0701 41.1501 18.0701 41.7801C18.0701 42.2001 18.1601 42.6001 18.3001 42.9701C17.5101 43.1501 16.7001 43.2401 15.8801 43.2401C9.80008 43.2401 4.86008 38.3001 4.86008 32.2201H4.85008ZM41.7001 43.2301H21.5101C20.7101 43.2301 20.0601 42.5801 20.0601 41.7801C20.0601 41.6701 20.1401 41.4201 20.2101 41.2701L26.0001 28.8601H37.2201L43.1101 41.4801C43.1101 41.4801 43.1601 41.6101 43.1601 41.7701C43.1601 42.5701 42.5101 43.2201 41.7101 43.2201L41.7001 43.2301Z" fill="#323232"/>
<path d="M35.7002 36.23L35.3902 35.44C34.4002 33.03 32.4902 30.52 32.4102 30.41C32.2202 30.17 31.9302 30.02 31.6202 30.02C31.3102 30.02 31.0202 30.16 30.8302 30.4C30.7402 30.51 28.6102 33.22 27.6802 35.79L27.5302 36.19C27.3402 36.7 27.2402 37.22 27.2402 37.76C27.2402 40.17 29.2002 42.14 31.6202 42.14C34.0402 42.14 36.0002 40.18 36.0002 37.76C36.0002 37.24 35.9002 36.73 35.7202 36.23C35.7202 36.23 35.7202 36.23 35.7202 36.22L35.7002 36.23ZM31.6102 40.14C30.3002 40.14 29.2302 39.07 29.2302 37.76C29.2302 37.47 29.2802 37.19 29.4002 36.9L29.5602 36.48C30.0502 35.14 30.9502 33.69 31.6002 32.73C32.2102 33.63 33.0202 34.94 33.5302 36.18L33.8302 36.95C33.9302 37.21 33.9802 37.49 33.9802 37.76C33.9802 39.07 32.9102 40.14 31.6002 40.14H31.6102Z" fill="#323232"/>
</svg>
