<svg width="48" height="48" viewBox="0 0 48 48" fill="none" xmlns="http://www.w3.org/2000/svg">
<path d="M18.5795 23.0704H19.3295C20.4595 23.0704 20.8895 22.5704 20.8895 21.6404C20.8895 20.7804 20.3595 20.2604 19.4595 20.2604C18.5595 20.2604 17.9995 20.8104 17.9995 21.6604V21.8904H16.0095V21.6204C16.0095 19.7804 17.4095 18.4004 19.5195 18.4004C21.6295 18.4004 22.9595 19.6504 22.9595 21.4104C22.9595 22.5704 22.4795 23.3504 21.7295 23.8004C22.5895 24.2304 23.1595 25.1104 23.1595 26.4404C23.1595 28.3804 21.7095 29.6504 19.4995 29.6504C17.2895 29.6504 15.9395 28.3704 15.9395 26.4304V26.1804H17.9295V26.4004C17.9295 27.2804 18.4895 27.8604 19.4595 27.8604C20.4695 27.8604 21.0195 27.2604 21.0195 26.2304C21.0195 25.2004 20.4695 24.6804 19.3295 24.6804H18.5795V23.0704Z" fill="#DF0000"/>
<path d="M32.1402 26.1604C32.1402 28.3004 30.6802 29.6504 28.5202 29.6504C26.3602 29.6504 24.9102 28.3004 24.9102 26.1604V21.8904C24.9102 19.7504 26.2102 18.4004 28.5202 18.4004C30.6802 18.4004 32.1402 19.7504 32.1402 21.8904V26.1604ZM26.9702 26.1204C26.9702 27.1204 27.5302 27.7804 28.5102 27.7804C29.4902 27.7804 30.0602 27.1204 30.0602 26.1204V21.9204C30.0602 20.9204 29.4902 20.2604 28.5102 20.2604C27.5302 20.2604 26.9702 20.9204 26.9702 21.9204V26.1204Z" fill="#DF0000"/>
<path d="M46.8587 25.2198L43.4987 22.2898C43.0787 21.9298 42.4487 21.9698 42.0887 22.3898L39.1587 25.7498C38.7987 26.1698 38.8387 26.7998 39.2587 27.1598C39.4487 27.3298 39.6787 27.4098 39.9187 27.4098C40.1987 27.4098 40.4787 27.2898 40.6687 27.0698L42.1287 25.3998C41.3987 34.7298 33.5887 42.1098 24.0787 42.1098C15.7187 42.1098 8.47867 36.4498 6.47867 28.3398C6.34867 27.7998 5.80867 27.4798 5.26867 27.6098C4.72867 27.7398 4.40867 28.2798 4.53867 28.8198C6.75867 37.8198 14.7987 44.1098 24.0787 44.1098C34.6687 44.1098 43.3487 35.8898 44.1287 25.4898L45.5487 26.7298C45.9687 27.0898 46.5987 27.0498 46.9587 26.6298C47.3187 26.2098 47.2787 25.5798 46.8587 25.2198Z" fill="#323232"/>
<path d="M5.90954 25.6096L8.83954 22.2496C9.19954 21.8296 9.15954 21.1996 8.73954 20.8396C8.31954 20.4796 7.68954 20.5196 7.32954 20.9396L6.01954 22.4396C6.79954 13.1596 14.5895 5.84961 24.0695 5.84961C32.4395 5.84961 39.6695 11.5096 41.6695 19.6296C41.7995 20.1696 42.3495 20.4896 42.8795 20.3596C43.4195 20.2296 43.7395 19.6896 43.6095 19.1496C41.3895 10.1396 33.3595 3.84961 24.0695 3.84961C13.4295 3.84961 4.70954 12.1596 4.00954 22.6296L2.45954 21.2696C2.03954 20.9096 1.40954 20.9496 1.04954 21.3696C0.689541 21.7896 0.729541 22.4196 1.14954 22.7796L4.50954 25.7096C4.69954 25.8796 4.92954 25.9596 5.16954 25.9596C5.44954 25.9596 5.72954 25.8396 5.91954 25.6196L5.90954 25.6096Z" fill="#323232"/>
</svg>
