<svg width="48" height="48" viewBox="0 0 48 48" fill="none" xmlns="http://www.w3.org/2000/svg">
<path d="M37.8008 12.7598C38.6292 12.7598 39.3008 12.0882 39.3008 11.2598C39.3008 10.4313 38.6292 9.75977 37.8008 9.75977C36.9724 9.75977 36.3008 10.4313 36.3008 11.2598C36.3008 12.0882 36.9724 12.7598 37.8008 12.7598Z" fill="#DF0000"/>
<path d="M32.0703 12.7598C32.8987 12.7598 33.5703 12.0882 33.5703 11.2598C33.5703 10.4313 32.8987 9.75977 32.0703 9.75977C31.2419 9.75977 30.5703 10.4313 30.5703 11.2598C30.5703 12.0882 31.2419 12.7598 32.0703 12.7598Z" fill="#DF0000"/>
<path d="M26.3398 12.7598C27.1683 12.7598 27.8398 12.0882 27.8398 11.2598C27.8398 10.4313 27.1683 9.75977 26.3398 9.75977C25.5114 9.75977 24.8398 10.4313 24.8398 11.2598C24.8398 12.0882 25.5114 12.7598 26.3398 12.7598Z" fill="#DF0000"/>
<path d="M20.2895 40.79H11.5195C10.9695 40.79 10.5195 40.34 10.5195 39.79C10.5195 39.24 10.9695 38.79 11.5195 38.79H20.2895C20.8395 38.79 21.2895 39.24 21.2895 39.79C21.2895 40.34 20.8395 40.79 20.2895 40.79Z" fill="#323232"/>
<path d="M41.75 2.83008H7.13C5.13 2.83008 3.5 4.46008 3.5 6.46008V41.5401C3.5 43.5401 5.13 45.1701 7.13 45.1701H24.67C26.67 45.1701 28.3 43.5401 28.3 41.5401L28.35 30.4401C28.35 29.8901 27.91 29.4401 27.35 29.4401C26.8 29.4401 26.35 29.8801 26.35 30.4401L26.3 41.5501C26.3 42.4501 25.57 43.1801 24.67 43.1801H7.13C6.23 43.1801 5.5 42.4501 5.5 41.5501V6.46008C5.5 5.56008 6.23 4.83008 7.13 4.83008H19.75C19.68 5.07008 19.63 5.32008 19.63 5.58008V18.2201C19.63 19.7401 20.86 20.9701 22.38 20.9701H26.36V24.6801C26.36 25.0801 26.6 25.4501 26.98 25.6001C27.1 25.6501 27.23 25.6801 27.36 25.6801C27.62 25.6801 27.88 25.5801 28.07 25.3901L32.48 20.9801H41.75C43.27 20.9801 44.5 19.7501 44.5 18.2301V5.58008C44.5 4.06008 43.27 2.83008 41.75 2.83008ZM42.5 18.2201C42.5 18.6301 42.16 18.9701 41.75 18.9701H32.07C31.8 18.9701 31.55 19.0801 31.36 19.2601L28.36 22.2601V19.9701C28.36 19.4201 27.91 18.9701 27.36 18.9701H22.38C21.97 18.9701 21.63 18.6301 21.63 18.2201V5.58008C21.63 5.17008 21.97 4.83008 22.38 4.83008H41.75C42.16 4.83008 42.5 5.17008 42.5 5.58008V18.2201Z" fill="#323232"/>
<path fill-rule="evenodd" clip-rule="evenodd" d="M7.28906 20.49V8.20996C7.28906 7.23996 8.06906 6.45996 9.03906 6.45996H16.3391L7.28906 20.49Z" fill="#8DE2E0"/>
</svg>
