<svg width="48" height="48" viewBox="0 0 48 48" fill="none" xmlns="http://www.w3.org/2000/svg">
<path d="M24.0001 45.1001C16.0501 45.1001 9.58008 38.6301 9.58008 30.6701C9.58008 28.9101 9.91008 27.1701 10.5501 25.5001L11.1501 23.8601C14.6801 14.0801 22.8701 3.6701 23.2201 3.2301C23.4101 2.9901 23.6801 2.8601 24.0101 2.8501C24.3201 2.8501 24.6101 3.0001 24.8001 3.2401C25.1101 3.6501 32.4901 13.3301 36.2801 22.5601L37.5001 25.6501C37.5001 25.6501 37.5001 25.6501 37.5001 25.6601C38.1201 27.2901 38.4301 28.9801 38.4301 30.6701C38.4301 38.6201 31.9601 45.1001 24.0101 45.1001H24.0001ZM23.9901 5.5101C21.8301 8.4001 15.8201 16.8101 13.0301 24.5501L12.4201 26.2101C11.8601 27.6601 11.5801 29.1601 11.5801 30.6701C11.5801 37.5201 17.1501 43.1001 24.0001 43.1001C30.8501 43.1001 36.4201 37.5301 36.4201 30.6701C36.4201 29.2201 36.1501 27.7801 35.6201 26.3701L34.4101 23.3001C31.4401 16.0501 26.0001 8.2801 23.9801 5.5001L23.9901 5.5101Z" fill="#323232"/>
<path d="M32.8105 30.7302C32.8105 27.5602 31.1105 24.7902 28.5805 23.2402C29.0205 24.5202 29.2705 25.9002 29.2705 27.3302C29.2705 32.6802 25.9205 37.2102 21.2305 39.0502C22.1105 39.3402 23.0305 39.5402 24.0005 39.5402C28.8605 39.5402 32.8105 35.5902 32.8105 30.7302Z" fill="#8DE2E0"/>
</svg>
