<svg width="48" height="48" viewBox="0 0 48 48" fill="none" xmlns="http://www.w3.org/2000/svg">
<path d="M14.4202 13.2798V20.9498C14.4202 25.0498 10.5002 27.2298 9.99023 27.4998C10.0302 27.5198 10.0502 27.5298 10.0502 27.5298H15.4202C15.4202 27.5298 19.9102 25.3398 19.9102 20.9498V13.2798H14.4202Z" fill="#8DE2E0"/>
<path d="M35.3909 26.3799V34.0499C35.3909 38.1499 31.4709 40.3299 30.9609 40.5999C31.0009 40.6199 31.0209 40.6299 31.0209 40.6299H36.3909C36.3909 40.6299 40.8809 38.4399 40.8809 34.0499V26.3799H35.3909Z" fill="#8DE2E0"/>
<path d="M12.7793 11.3701C13.3293 11.3701 13.7793 10.9201 13.7793 10.3701V4.56006C13.7793 4.01006 13.3293 3.56006 12.7793 3.56006C12.2293 3.56006 11.7793 4.01006 11.7793 4.56006V10.3701C11.7793 10.9201 12.2293 11.3701 12.7793 11.3701Z" fill="#323232"/>
<path d="M17.9902 11.3701C18.5402 11.3701 18.9902 10.9201 18.9902 10.3701V6.1001C18.9902 5.5501 18.5402 5.1001 17.9902 5.1001C17.4402 5.1001 16.9902 5.5501 16.9902 6.1001V10.3701C16.9902 10.9201 17.4402 11.3701 17.9902 11.3701Z" fill="#323232"/>
<path d="M7.57031 11.3701C8.12031 11.3701 8.57031 10.9201 8.57031 10.3701V6.1001C8.57031 5.5501 8.12031 5.1001 7.57031 5.1001C7.02031 5.1001 6.57031 5.5501 6.57031 6.1001V10.3701C6.57031 10.9201 7.02031 11.3701 7.57031 11.3701Z" fill="#323232"/>
<path d="M23.5098 29.1203V28.7503C23.5098 27.5303 22.5198 26.5403 21.2998 26.5403H18.4298C19.4998 25.4703 20.5598 23.9603 20.8398 21.9603H20.9998C23.3598 21.9603 25.2898 20.0403 25.2898 17.6703C25.2898 15.3003 23.3698 13.3803 20.9998 13.3803H20.8998V13.2803C20.8998 12.7303 20.4498 12.2803 19.8998 12.2803H5.65977C5.10977 12.2803 4.65977 12.7303 4.65977 13.2803V20.9503C4.65977 23.4403 5.85977 25.2903 7.07977 26.5303H3.96977C2.74977 26.5303 1.75977 27.5203 1.75977 28.7403V29.1103C1.75977 30.3303 2.74977 31.3203 3.96977 31.3203H21.2998C22.5198 31.3203 23.5098 30.3303 23.5098 29.1103V29.1203ZM20.8998 15.3803H20.9998C22.2598 15.3803 23.2898 16.4103 23.2898 17.6703C23.2898 18.9303 22.2598 19.9603 20.9998 19.9603H20.8998V15.3803ZM6.65977 20.9603V14.2903H18.9098V20.9603C18.9098 24.1803 15.9498 26.0903 15.1698 26.5403H10.3098C9.53977 26.0803 6.66977 24.1803 6.66977 20.9603H6.65977ZM21.5098 29.1203C21.5098 29.2403 21.4098 29.3303 21.2998 29.3303H3.95977C3.83977 29.3303 3.74977 29.2303 3.74977 29.1203V28.7503C3.74977 28.6303 3.84977 28.5403 3.95977 28.5403H21.2898C21.4098 28.5403 21.4998 28.6403 21.4998 28.7503V29.1203H21.5098Z" fill="#323232"/>
<path d="M33.7402 24.4799C34.2902 24.4799 34.7402 24.0299 34.7402 23.4799V17.6699C34.7402 17.1199 34.2902 16.6699 33.7402 16.6699C33.1902 16.6699 32.7402 17.1199 32.7402 17.6699V23.4799C32.7402 24.0299 33.1902 24.4799 33.7402 24.4799Z" fill="#323232"/>
<path d="M38.959 24.48C39.509 24.48 39.959 24.03 39.959 23.48V19.21C39.959 18.66 39.509 18.21 38.959 18.21C38.409 18.21 37.959 18.66 37.959 19.21V23.48C37.959 24.03 38.409 24.48 38.959 24.48Z" fill="#323232"/>
<path d="M28.5293 24.48C29.0793 24.48 29.5293 24.03 29.5293 23.48V19.21C29.5293 18.66 29.0793 18.21 28.5293 18.21C27.9793 18.21 27.5293 18.66 27.5293 19.21V23.48C27.5293 24.03 27.9793 24.48 28.5293 24.48Z" fill="#323232"/>
<path d="M41.799 35.0599H41.959C44.319 35.0599 46.249 33.1399 46.249 30.7699C46.249 28.3999 44.329 26.4799 41.959 26.4799H41.859V26.3799C41.859 25.8299 41.409 25.3799 40.859 25.3799H26.609C26.059 25.3799 25.609 25.8299 25.609 26.3799V34.0499C25.609 36.5399 26.809 38.3899 28.029 39.6299H24.919C23.699 39.6299 22.709 40.6199 22.709 41.8399V42.2099C22.709 43.4299 23.699 44.4199 24.919 44.4199H42.249C43.469 44.4199 44.459 43.4299 44.459 42.2099V41.8399C44.459 40.6199 43.469 39.6299 42.249 39.6299H39.379C40.449 38.5599 41.509 37.0499 41.789 35.0499L41.799 35.0599ZM41.869 28.4899H41.969C43.229 28.4899 44.259 29.5199 44.259 30.7799C44.259 32.0399 43.229 33.0699 41.969 33.0699H41.869V28.4899ZM42.469 41.8499V42.2199C42.469 42.3399 42.369 42.4299 42.259 42.4299H24.929C24.809 42.4299 24.719 42.3299 24.719 42.2199V41.8499C24.719 41.7299 24.819 41.6399 24.929 41.6399H42.259C42.379 41.6399 42.469 41.7399 42.469 41.8499ZM31.259 39.6399C30.489 39.1799 27.619 37.2799 27.619 34.0599V27.3899H39.869V34.0599C39.869 37.2799 36.909 39.1899 36.129 39.6399H31.269H31.259Z" fill="#323232"/>
</svg>
