<svg width="24" height="24" viewBox="0 0 24 24" fill="none" xmlns="http://www.w3.org/2000/svg">
<path fill-rule="evenodd" clip-rule="evenodd" d="M9.88019 2C9.88019 2 11.0928 3.9402 12.3856 6.01095L12.872 6.79007C14.1132 8.77872 15.2981 10.6795 15.4301 10.8998C16.1957 12.1437 16.0043 13.4831 15.4301 14.536C14.9518 15.3017 12.368 19.0334 12.2721 19.2248C12.464 19.2248 12.7508 19.3203 12.9422 19.0334C13.0713 18.8611 13.4524 18.3014 13.85 17.7115L14.1149 17.3178C14.5082 16.7323 14.8657 16.1961 14.9518 16.0668C15.2387 15.5885 15.8129 15.2057 16.1957 15.2057H18.3967L19.832 17.4067H19.1623C18.8749 17.4067 18.4921 17.5981 18.2053 17.9809C18.0138 18.2678 16.4826 20.4687 16.1002 21.043C15.6215 21.7127 15.1432 22 14.1862 22H5C5 22 8.25346 17.4067 8.44487 17.0239C8.73175 16.5456 8.73175 15.8754 8.44487 15.4926C8.40126 15.3622 7.74482 14.3025 7.04167 13.1853L6.75927 12.7374C6.0067 11.5458 5.28688 10.421 5.28688 10.421C4.90406 9.65584 5 9.27303 5.19094 8.89021C5.47828 8.5074 6.24392 7.35895 6.24392 7.35895C6.24392 7.35895 10.5499 14.1532 10.6458 14.3446C10.9327 14.7274 10.9327 15.3971 10.6458 15.8754C10.4544 16.2582 7.39189 20.7561 7.39189 20.7561H14.0907C14.7604 20.7561 15.0473 20.3733 15.3346 20.0859C15.526 19.799 17.1527 17.4067 17.3442 17.0239C17.631 16.737 17.9184 16.5456 18.3007 16.4496H16.6745C16.1957 16.4496 15.8129 17.0239 15.6215 17.2153C15.526 17.4067 14.1862 19.4162 13.8993 19.7031C13.7079 19.9905 13.4205 20.2773 12.5594 20.2773H10.0716C10.0716 20.2773 13.2291 15.684 13.6119 15.0143C13.9948 14.3446 14.0907 13.1962 13.6119 12.4305C13.3251 12.0477 8.92315 4.96659 8.92315 4.96659C8.54034 4.29689 8.63628 3.81814 8.82721 3.4358C9.11456 3.05298 9.88019 2 9.88019 2ZM8.06205 4.58377C8.06205 4.58377 12.9422 12.2391 13.1337 12.622C13.7079 13.4831 13.5165 14.3446 13.1337 15.0143C12.7508 15.684 9.59284 20.2773 9.59284 20.2773H8.25346C8.25346 20.2773 8.26461 20.261 8.28553 20.2303L8.37618 20.0974C8.66911 19.6677 9.43324 18.5448 10.0832 17.5745L10.3357 17.1965C10.7417 16.5867 11.0624 16.0948 11.1241 15.9714C11.411 15.3971 11.411 14.6315 11.2196 14.2487C11.0375 14.0666 7.3925 8.34334 7.03732 7.7854L7.00955 7.74176C6.7222 7.07207 6.81767 6.59332 7.00955 6.21097C7.39189 5.63675 8.06205 4.58377 8.06205 4.58377Z" fill="#F99F1B"/>
</svg>
