<svg width="48" height="48" viewBox="0 0 48 48" fill="none" xmlns="http://www.w3.org/2000/svg">
<path d="M40.3396 18.2199C40.3396 18.2199 40.3596 18.1499 40.3696 18.1199C41.7896 13.6799 42.9296 8.96988 43.7596 4.01988C43.7596 3.97988 43.7596 3.92988 43.7596 3.88988C43.7596 3.86988 43.7596 3.83988 43.7596 3.81988C43.7596 3.70988 43.7296 3.59988 43.6896 3.49988C43.6896 3.47988 43.6696 3.45988 43.6596 3.43988C43.6096 3.33988 43.5496 3.24988 43.4796 3.16988C43.4796 3.16988 43.4796 3.15988 43.4696 3.14988C43.3896 3.06988 43.2896 3.00988 43.1796 2.96988C43.1596 2.96988 43.1396 2.94988 43.1096 2.93988C42.9996 2.89988 42.8896 2.87988 42.7796 2.87988C42.7696 2.87988 42.7596 2.87988 42.7396 2.87988C42.6796 2.87988 42.6196 2.87988 42.5596 2.89988C32.4896 5.13988 25.2296 7.34988 20.4996 9.60988C20.4996 9.60988 20.4896 9.60988 20.4796 9.61988C19.2396 10.2099 18.1696 10.8099 17.2796 11.4099C10.5596 16.0799 9.28959 23.0499 13.4696 32.1099C11.0596 34.5599 6.36959 39.9399 4.34959 43.6499C4.08959 44.1299 4.26959 44.7399 4.74959 45.0099C4.89959 45.0899 5.06959 45.1299 5.22959 45.1299C5.57959 45.1299 5.92959 44.9399 6.10959 44.6099C8.05959 41.0299 12.7096 35.7499 14.8896 33.5299C18.8096 35.3399 22.2796 36.2599 25.2696 36.2599C30.1296 36.2599 33.7396 33.8699 36.0496 29.0999C36.3996 28.3699 36.7396 27.6199 37.0796 26.8699C37.0796 26.8599 37.0896 26.8499 37.0996 26.8399C38.3196 24.1099 39.3996 21.2499 40.3596 18.2599L40.3396 18.2199ZM38.7496 16.6299C36.7196 16.3399 34.8296 15.8999 32.8996 15.2599L41.1996 6.86988C40.5296 10.2499 39.7096 13.5099 38.7496 16.6299ZM31.4396 13.8999C30.8496 12.1899 30.4796 10.1599 30.3696 8.06988C33.0896 7.24988 36.1896 6.41988 39.6396 5.59988L31.4396 13.8999ZM29.8896 15.4599L23.7696 21.6499C22.6296 18.1199 22.0096 14.5999 21.8996 11.1299C23.6896 10.3199 25.8596 9.49988 28.3896 8.67988C28.5696 11.1499 29.0996 13.5299 29.8796 15.4599H29.8896ZM31.3396 16.8399C33.6096 17.6599 35.7796 18.2099 38.1196 18.5599C37.3396 20.9099 36.4796 23.1799 35.5296 25.3599C31.8896 25.1499 28.4596 24.4199 25.1096 23.1399L31.3296 16.8399H31.3396ZM18.3996 13.0299C18.8596 12.7199 19.3696 12.4099 19.9396 12.1099C20.1396 15.7899 20.9096 19.5199 22.2096 23.2399L14.9696 30.5599C11.5696 22.7499 12.6896 16.9999 18.3996 13.0299ZM16.3796 31.9799L23.5896 24.6799C27.1496 26.1499 30.7796 27.0199 34.6396 27.3099C34.4996 27.5999 34.3696 27.8999 34.2296 28.1899C31.0896 34.6499 25.2396 35.8899 16.3696 31.9799H16.3796Z" fill="#8DE2E0"/>
</svg>
