<svg width="24" height="24" viewBox="0 0 24 24" fill="none" xmlns="http://www.w3.org/2000/svg">
<path fill-rule="evenodd" clip-rule="evenodd" d="M21.9648 6H19.644L11.8075 12.0949C10.232 13.2084 8.84593 14.2861 7.82924 14.5446C6.44618 14.8963 4.64899 15.0955 2 15.0408C2.797 15.2206 3.49174 15.304 3.94569 15.3612C6.11798 15.6346 7.67682 16.3694 8.99352 17.3303C9.86086 17.9632 10.3933 18.5105 11.0095 18.8775C11.6854 19.2799 12.627 19.5495 13.4319 19.5495C14.2368 19.5495 15.0416 19.4479 15.6901 19.276C14.9869 19.3072 14.0727 19.2525 13.4084 19.1119C12.7442 18.9713 11.3328 18.4707 11.1736 17.6585C11.0213 16.881 12.9687 16.2853 13.7366 16.1738C15.7292 15.8846 17.4248 15.9629 18.0421 16.0097C17.2217 15.6894 16.995 15.2987 16.995 14.9626C16.995 14.6267 17.2295 14.3063 17.3702 14.064L21.9648 6Z" fill="#BB2A33"/>
<path fill-rule="evenodd" clip-rule="evenodd" d="M13.6914 12.0428L13.5888 12.0831C13.7974 13.1016 14.0087 13.8576 14.4331 14.6684C14.5917 14.9714 14.8389 15.4892 15.0882 16.0252C15.1584 16.0199 15.2278 16.0149 15.2965 16.0104C15.107 15.4274 14.9265 14.8527 14.8333 14.5113C14.592 13.6284 14.2321 12.9308 13.6914 12.0428ZM12.6272 11.9536L12.5401 11.8859C11.7709 12.5855 11.229 13.1533 10.7486 13.9324C10.2962 14.6659 8.95786 16.5812 8.73278 16.8786C8.96514 16.587 10.4894 14.816 11.0881 14.1961C11.7239 13.5377 12.1399 12.872 12.6272 11.9536ZM13.9269 11.8941L13.838 11.9593C14.3002 12.8906 14.6979 13.5673 15.3157 14.2428C15.6447 14.6024 16.2597 15.3384 16.7725 15.9637C16.8204 15.9639 16.8673 15.9642 16.9133 15.9646C16.4609 15.2744 15.9154 14.4248 15.6622 13.9884C15.2031 13.1965 14.6768 12.6143 13.9269 11.8941ZM14.3116 11.1733L14.2939 11.2821C15.2761 11.623 16.034 11.8274 16.9479 11.8767C17.3064 11.896 17.9185 11.9524 18.5374 12.0155L18.6367 11.8411C18.0067 11.6996 17.3761 11.5516 17.0171 11.4524C16.1348 11.2089 15.3513 11.162 14.3116 11.1733ZM14.1166 11.69L14.0473 11.7758C14.7324 12.558 15.29 13.1105 16.0599 13.6053C16.3242 13.7752 16.7432 14.0658 17.1834 14.3776C17.2212 14.3098 17.2607 14.2451 17.2981 14.184C16.9094 13.8276 16.5473 13.4887 16.3298 13.2708C15.6835 12.6228 15.0257 12.1944 14.1166 11.69ZM16.991 10.4727C16.0757 10.463 15.3063 10.618 14.3041 10.8949L14.3148 11.0046C15.3515 11.0829 16.1365 11.0867 17.0326 10.9005C17.5384 10.7955 18.5713 10.6301 19.3976 10.5056L19.4574 10.4007C18.6119 10.4391 17.522 10.4783 16.991 10.4727ZM14.2477 11.4444L14.2028 11.545C15.065 12.1258 15.7454 12.5173 16.6163 12.7987C16.9037 12.8917 17.3581 13.0558 17.8418 13.2362L17.9548 13.0379C17.4903 12.7942 17.0565 12.5607 16.7917 12.4063C16.0011 11.9452 15.2557 11.6994 14.2477 11.4444ZM13.0383 12.1233C12.7158 13.1117 12.5257 13.8733 12.4935 14.788C12.4796 15.1806 12.4272 15.8779 12.3697 16.5554C12.4324 16.5304 12.4957 16.5065 12.559 16.4836C12.6892 15.8485 12.8262 15.2115 12.919 14.8492C13.1459 13.9625 13.1782 13.1782 13.1475 12.139L13.0383 12.1233ZM12.4196 11.7678L12.3528 11.6801C12.3404 11.6866 12.3284 11.6929 12.3161 11.6993L11.8075 12.0949C11.0273 12.6463 10.2938 13.1887 9.62832 13.6275C8.84275 14.3257 7.63229 15.347 7.39498 15.5327C7.69425 15.3103 9.62086 13.9881 10.3582 13.542C11.1412 13.0681 11.7136 12.531 12.4196 11.7678ZM13.4257 12.1262L13.3162 12.139C13.2572 13.177 13.2683 13.9619 13.4711 14.8544C13.5399 15.1574 13.6342 15.6507 13.7289 16.175C13.7314 16.1746 13.7341 16.1742 13.7366 16.1738C13.8081 16.1635 13.8793 16.1536 13.95 16.1442C13.9219 15.6139 13.9006 15.1144 13.898 14.8048C13.8907 13.8895 13.7213 13.1231 13.4257 12.1262ZM12.7738 12.0371C12.2092 12.91 11.8305 13.5977 11.5654 14.4736C11.3157 15.2985 10.5118 17.4924 10.3703 17.8375C10.5204 17.4961 11.5409 15.3942 11.961 14.6417C12.4073 13.8426 12.6391 13.0927 12.8753 12.0801L12.7738 12.0371ZM14.2256 10.6042L14.264 10.7075C15.2862 10.518 16.046 10.3209 16.8648 9.91168C17.6357 9.52642 19.7821 8.60336 20.1301 8.46917C19.7789 8.59468 17.5505 9.29706 16.715 9.50875C15.8278 9.73346 15.1236 10.0802 14.2256 10.6042ZM16.3779 8.92593C17.0028 8.33254 18.7865 6.82336 19.0802 6.59339C18.8979 6.72899 18.1119 7.27242 17.3588 7.77737L14.0958 10.3152C14.0823 10.3297 14.0691 10.3437 14.0555 10.3583L14.1224 10.446C15.045 9.96648 15.7141 9.55621 16.3779 8.92593Z" fill="#D8783B"/>
</svg>
