<svg width="24" height="24" viewBox="0 0 24 24" fill="none" xmlns="http://www.w3.org/2000/svg">
<rect x="12" width="16.5" height="16.5" rx="2" transform="rotate(45 12 0)" fill="#F5A623"/>
<mask id="path-2-inside-1_15604_325" fill="white">
<path fill-rule="evenodd" clip-rule="evenodd" d="M13.0249 7.08984L13.0249 12.4147H11.25V7.08984H13.0249ZM13.0249 14.1914H11.25V15.9664H13.0249L13.0249 14.1914Z"/>
</mask>
<path fill-rule="evenodd" clip-rule="evenodd" d="M13.0249 7.08984L13.0249 12.4147H11.25V7.08984H13.0249ZM13.0249 14.1914H11.25V15.9664H13.0249L13.0249 14.1914Z" fill="#4C2F00"/>
<path d="M13.0249 12.4147V13.4147H14.0249V12.4147H13.0249ZM13.0249 7.08984L14.0249 7.08984V6.08984H13.0249V7.08984ZM11.25 12.4147H10.25V13.4147H11.25V12.4147ZM11.25 7.08984V6.08984H10.25V7.08984H11.25ZM11.25 14.1914V13.1914H10.25V14.1914H11.25ZM13.0249 14.1914H14.0249L14.0249 13.1914H13.0249V14.1914ZM11.25 15.9664H10.25V16.9664H11.25V15.9664ZM13.0249 15.9664V16.9664H14.0249V15.9664H13.0249ZM14.0249 12.4147L14.0249 7.08984L12.0249 7.08984L12.0249 12.4147H14.0249ZM11.25 13.4147H13.0249V11.4147H11.25V13.4147ZM10.25 7.08984V12.4147H12.25V7.08984H10.25ZM13.0249 6.08984H11.25V8.08984H13.0249V6.08984ZM11.25 15.1914H13.0249V13.1914H11.25V15.1914ZM12.25 15.9664V14.1914H10.25V15.9664H12.25ZM13.0249 14.9664H11.25V16.9664H13.0249V14.9664ZM12.0249 14.1914L12.0249 15.9664H14.0249V14.1914H12.0249Z" fill="#4C2F00" mask="url(#path-2-inside-1_15604_325)"/>
</svg>
