<svg width="24" height="24" viewBox="0 0 24 24" fill="none" xmlns="http://www.w3.org/2000/svg">
<path fill-rule="evenodd" clip-rule="evenodd" d="M11.3425 16.4056C11.1505 16.3143 11.3425 16.0388 11.3144 15.8257C11.3425 15.8257 11.3425 15.7024 11.3987 15.7945C11.3987 15.8257 11.3987 15.8257 11.3698 15.8569C11.3698 15.8874 11.3776 15.8944 11.3987 15.917C11.4244 15.9467 11.4775 15.9467 11.4775 15.9787C11.4775 16.0708 11.5072 16.0997 11.4775 16.1605C11.4517 16.2518 11.3698 16.436 11.3425 16.4056ZM10.0813 7.99414C10.1102 7.99414 10.1102 8.02614 10.1102 8.05658H10.3303C10.3303 8.02614 10.3303 7.99414 10.3545 7.99414C10.3833 7.99414 10.4107 8.05658 10.4107 8.05658C10.4934 7.99414 10.6026 8.05658 10.6565 8.11745C10.4934 8.24076 10.3014 8.11745 10.1352 8.11745C9.99938 8.11745 9.83549 8.14867 9.69735 8.05658C9.88934 7.90439 10.1102 7.90439 10.3303 7.90439C10.5753 7.90439 10.7946 7.8443 11.0412 7.90439C10.7384 8.08701 10.4107 7.90439 10.0813 7.99414ZM10.9031 13.6015C10.8766 13.6319 10.85 13.6624 10.8219 13.6928C10.7946 13.6928 10.7681 13.6928 10.7681 13.6624C10.7681 13.5726 10.7681 13.4501 10.85 13.4501C10.8578 13.447 10.8649 13.4446 10.8727 13.4439L10.85 13.4197L10.8766 13.3885V13.4439C10.9398 13.4439 10.9671 13.5344 10.9031 13.6015ZM10.7681 14.3023C10.7384 14.2719 10.7111 14.2719 10.7111 14.2422C10.7681 14.0885 10.6565 13.9074 10.8219 13.8161C10.8766 13.9668 10.85 14.1502 10.7681 14.3023ZM10.6565 15.5206C10.6026 15.3083 10.5332 15.018 10.6854 14.851C10.7111 14.8205 10.7681 14.851 10.7681 14.8799C10.7384 15.0929 10.7681 15.3372 10.6565 15.5206ZM10.4934 12.0492C10.4934 11.986 10.6026 11.9579 10.63 12.0172C10.6565 12.0789 10.63 12.1991 10.5753 12.1991C10.5207 12.2311 10.4934 12.1086 10.4934 12.0492ZM10.2452 11.1955C10.2725 11.1955 10.2725 11.1955 10.3014 11.1955C10.3014 11.2243 10.4146 11.2868 10.3303 11.2868C10.3014 11.2868 10.2452 11.3172 10.2202 11.2555C10.2202 11.2243 10.2202 11.1955 10.2452 11.1955ZM10.548 10.159C10.548 10.191 10.6565 10.2207 10.5753 10.2504C10.4934 10.2504 10.4107 10.2207 10.3545 10.191C10.4107 10.1278 10.4934 10.159 10.548 10.159ZM10.5207 9.18429C10.4661 9.15464 10.4107 9.03289 10.4934 8.97202C10.5207 8.97202 10.5574 8.9728 10.63 9.00011C10.7111 9.03289 10.7681 9.00011 10.7946 9.09299C10.8219 9.15464 10.7681 9.15464 10.7384 9.18429C10.6565 9.21395 10.5753 9.21395 10.5207 9.18429ZM10.3303 10.4033C10.3014 10.4033 10.3014 10.3713 10.3014 10.3432C10.3833 10.2207 10.548 10.2808 10.6565 10.2808C10.6854 10.2808 10.6854 10.3112 10.7111 10.3112C10.6026 10.4338 10.4661 10.4033 10.3303 10.4033ZM10.63 11.0737C10.6026 11.0121 10.4934 10.9832 10.5207 10.8887C10.548 10.8591 10.5753 10.8887 10.5753 10.9215C10.5753 10.8887 10.6026 10.8887 10.63 10.8887C10.6854 10.9215 10.7111 10.9832 10.6854 11.0425C10.6854 11.0425 10.6565 11.0737 10.63 11.0737ZM10.6854 10.8279C10.63 10.8591 10.5753 10.8887 10.5207 10.8279C10.5753 10.7678 10.63 10.7678 10.6854 10.8279ZM10.4388 11.4077C10.4388 11.4382 10.4388 11.4686 10.4107 11.4686C10.3545 11.4686 10.2725 11.5006 10.2452 11.4382C10.2452 11.3781 10.3303 11.3781 10.3833 11.3781C10.4107 11.3781 10.4107 11.4077 10.4388 11.4077ZM10.4107 10.8591C10.3833 10.8591 10.3833 10.8591 10.3545 10.8591C10.3545 10.8279 10.2452 10.7998 10.3303 10.7678C10.2725 10.7085 10.2725 10.6156 10.3303 10.5867C10.3833 10.5867 10.4388 10.5555 10.4934 10.6156C10.5207 10.6476 10.6026 10.6765 10.6026 10.7085C10.548 10.7998 10.4107 10.6765 10.3303 10.7678C10.3833 10.7678 10.4661 10.7366 10.5207 10.7998C10.5207 10.8279 10.5207 10.8591 10.4934 10.8591H10.4107ZM10.4661 11.2555C10.4934 11.2243 10.548 11.2243 10.5753 11.2243C10.5753 11.2548 10.6744 11.2829 10.6136 11.3125C10.6393 11.3234 10.6565 11.3437 10.6565 11.3781C10.6565 11.4382 10.5753 11.4686 10.5207 11.4686C10.4661 11.4686 10.4388 11.3484 10.5207 11.3172C10.5316 11.3102 10.5418 11.3071 10.5543 11.3055C10.5207 11.2938 10.484 11.2751 10.4661 11.2555ZM10.4388 9.79381C10.4388 9.8539 10.3014 9.88434 10.2202 9.8539C10.2452 9.82346 10.2725 9.76337 10.3303 9.76337C10.3833 9.76337 10.4661 9.73137 10.4388 9.79381ZM10.2202 11.5919C10.2202 11.5303 10.3389 11.4811 10.3833 11.5303C10.4107 11.5623 10.3833 11.6216 10.3545 11.6216H10.5207C10.548 11.6216 10.7111 11.652 10.63 11.684C10.548 11.7441 10.3833 11.652 10.3014 11.7441C10.3014 11.684 10.2202 11.7441 10.2202 11.684C10.2202 11.6567 10.2202 11.6302 10.2366 11.6231C10.2265 11.6184 10.2202 11.6075 10.2202 11.5919ZM10.1352 12.3833C10.1102 12.3513 10.1352 12.3216 10.164 12.3216C10.2202 12.3216 10.3014 12.292 10.3545 12.3513C10.3545 12.3513 10.3833 12.3216 10.4107 12.3216C10.4388 12.3513 10.4661 12.3833 10.4934 12.4137C10.4107 12.5058 10.2202 12.4738 10.1352 12.3833ZM10.2202 12.626C10.2452 12.5955 10.2452 12.5354 10.3014 12.5651C10.3303 12.5651 10.3482 12.6049 10.3303 12.626C10.3014 12.6572 10.3014 12.6884 10.2725 12.6884C10.2452 12.6884 10.2452 12.6572 10.2202 12.626ZM10.3303 14.0885C10.2452 13.877 10.3014 13.6319 10.2452 13.3885C10.2452 13.3291 10.3303 13.3572 10.3545 13.3572C10.4107 13.3572 10.4661 13.4197 10.4661 13.4501C10.4388 13.6624 10.4934 13.9371 10.3303 14.0885ZM10.0267 10.4338C10.0267 10.4033 9.94553 10.4033 9.99938 10.3432C10.054 10.2808 10.1352 10.3112 10.1352 10.3713C10.1352 10.4033 10.0813 10.4642 10.0267 10.4338ZM10.0267 10.8279C9.97206 10.8591 9.94553 10.7998 9.91821 10.7678C9.91821 10.7366 9.97206 10.7366 9.99938 10.7366C10.0267 10.7366 10.0267 10.7678 10.054 10.7678C10.054 10.7998 10.054 10.8279 10.0267 10.8279ZM9.83549 14.851C9.80895 14.851 9.80895 14.8205 9.80895 14.7893C9.80895 14.7597 9.83549 14.7597 9.83549 14.7292C9.88934 14.7597 9.88934 14.8205 9.83549 14.851ZM9.75354 11.4077C9.69735 11.4382 9.58965 11.2868 9.69735 11.2243C9.69735 11.2243 9.74183 11.2275 9.75354 11.2555C9.78008 11.3172 9.80895 11.4077 9.75354 11.4077ZM9.64428 14.0573C9.58965 14.0003 9.53424 13.9074 9.53424 13.8161C9.53424 13.7857 9.58965 13.7857 9.61697 13.7857C9.64428 13.7857 9.63179 13.8169 9.64428 13.845C9.67082 13.9074 9.69735 14.0003 9.64428 14.0573ZM9.50849 13.6624C9.50849 13.6015 9.56156 13.6015 9.61697 13.6624C9.56156 13.6928 9.50849 13.7225 9.50849 13.6624ZM9.39533 13.0224L9.42498 13.0529C9.56156 13.145 9.58965 13.3572 9.45152 13.3572C9.39533 13.3572 9.31494 13.145 9.39533 13.0224ZM9.31494 10.9504C9.36957 10.9215 9.46869 10.9832 9.47883 11.0121C9.50849 11.1026 9.39533 11.0121 9.34304 11.0425C9.34304 11.0121 9.23222 10.9832 9.31494 10.9504ZM9.28685 15.4597C9.26031 15.5206 9.15027 15.5518 9.12452 15.4909C9.12452 15.4301 9.15027 15.3676 9.17759 15.3083C8.87712 15.3372 8.60319 15.3083 8.30117 15.3676C8.13572 15.4301 7.93983 15.4847 7.83447 15.3676C7.80716 15.3372 7.72521 15.3083 7.80716 15.2771C8.08265 15.1866 8.43774 15.4301 8.60319 15.1241C8.82093 15.1866 9.04101 15.0633 9.23222 15.1866C9.31494 15.2162 9.31494 15.3676 9.28685 15.4597ZM9.26031 16.2206C9.2049 16.3439 9.0972 16.2518 9.0137 16.2823C8.93253 16.3143 8.76786 16.3915 8.76786 16.2823C8.76786 16.2518 8.7944 16.1902 8.82093 16.1902C8.90366 16.1902 8.95829 16.1605 9.0137 16.1301C9.0972 16.1301 9.17759 16.0708 9.26031 16.1301V16.2206ZM7.61517 14.2422C7.58786 14.179 7.50591 14.2102 7.47938 14.2102C7.2312 14.1197 6.98615 14.2422 6.76607 14.3023C6.68412 14.3312 6.52023 14.3944 6.49214 14.3023C6.46482 14.179 6.63027 14.2422 6.71222 14.1502C6.76607 14.1197 6.87689 14.179 6.93074 14.1502C7.20467 14.0292 7.47938 14.0292 7.75409 14.0885C8.02646 14.1197 8.32848 14.1197 8.57432 14.3023C8.40965 14.364 8.27463 14.364 8.10918 14.364C8.02646 14.364 8.0007 14.2422 7.91798 14.2102C7.80716 14.2102 7.69946 14.179 7.61517 14.2422ZM7.39743 14.6972C7.20467 14.7893 6.98615 14.7597 6.76607 14.7597C6.43829 14.6972 6.16358 14.851 5.83502 14.9438C5.80848 14.9438 5.78195 14.8799 5.78195 14.8799C5.86389 14.7597 6.00047 14.7893 6.11051 14.7292C6.13704 14.6972 6.00047 14.6972 6.00047 14.6972C6.13704 14.5763 6.30171 14.6676 6.43829 14.6371L6.41097 14.5763C6.41097 14.5154 6.49214 14.5154 6.52023 14.4857C6.65681 14.4569 6.79494 14.5154 6.93074 14.4569C6.98615 14.3944 7.04078 14.3023 7.12194 14.2719H7.28739L7.31471 14.3312C7.26008 14.4241 7.17813 14.4241 7.09541 14.4857C7.12194 14.4857 7.12194 14.5154 7.12194 14.5466C7.17813 14.5466 7.2312 14.5466 7.28739 14.4857C7.36934 14.4569 7.39743 14.5466 7.45206 14.6067C7.47938 14.6371 7.42397 14.6676 7.39743 14.6972ZM6.52023 15.4004C6.49214 15.4004 6.49214 15.4597 6.49214 15.4909C6.3821 15.5807 6.22055 15.5518 6.13704 15.4909C6.02856 15.4301 5.94506 15.5807 5.83502 15.4597C6.16358 15.3372 6.52023 15.3083 6.84879 15.1866C7.0119 15.1241 7.20467 15.0929 7.39743 15.1866C7.12194 15.3372 6.8207 15.4004 6.52023 15.4004ZM5.50646 15.2162C5.45261 15.2162 5.45261 15.1241 5.42529 15.0633C5.42529 14.9727 5.54626 14.936 5.5884 14.9727C5.69766 15.0633 5.78195 15.0032 5.89043 15.0032C6.00047 15.0344 6.13704 14.9134 6.2463 14.8799C6.30171 14.8799 6.35634 14.9134 6.41097 14.9438C6.46482 14.9438 6.54677 14.8799 6.60374 14.9438C6.27284 15.2162 5.89043 15.1561 5.50646 15.2162ZM6.63027 12.9335C6.57408 12.9608 6.54677 12.9928 6.49214 12.9928C6.46482 13.2363 6.19323 13.113 6.0551 13.2363C5.97237 13.2659 5.97237 13.145 5.91696 13.113C6.00047 13.0529 6.11051 13.0833 6.22055 13.0529C6.27284 13.0529 6.2463 12.9608 6.2463 12.9608C6.0551 12.9007 5.86389 13.0224 5.67191 12.9608C5.64303 12.9335 5.56187 12.8695 5.61728 12.8695C6.02856 12.7789 6.43829 12.7485 6.84879 12.8695V12.9335C6.76607 12.9335 6.68412 12.9007 6.63027 12.9335ZM5.94506 12.626C6.46482 12.5955 6.98615 12.5651 7.50591 12.5354C7.36934 12.4441 7.20467 12.5354 7.06809 12.5058C7.06809 12.5058 6.95805 12.4441 7.04078 12.4137C7.42397 12.292 7.83603 12.3677 8.24498 12.292C8.40965 12.2607 8.57432 12.3216 8.62895 12.4738C8.68358 12.5955 8.52047 12.5354 8.49315 12.5354C8.21922 12.5651 7.91798 12.4441 7.67136 12.5955C7.83447 12.5651 7.99992 12.5651 8.16381 12.626C8.16381 12.626 8.27463 12.6884 8.19113 12.6884C7.86413 12.7485 7.5621 12.8094 7.26008 12.8094C7.12194 12.8398 6.95805 12.7789 6.82148 12.7485C6.46482 12.7188 6.08007 12.7188 5.72498 12.7188C5.78195 12.626 5.89043 12.626 5.94506 12.626ZM6.11051 11.8651C6.16358 11.8354 6.19323 11.8947 6.22055 11.9259C6.22055 11.9579 6.22055 12.0172 6.19323 12.0172C6.11051 12.0172 6.02856 12.0492 5.94506 11.986C6.00047 11.9579 6.0551 11.8947 6.11051 11.8651ZM6.16358 11.0425C6.2463 11.0121 6.29859 11.0425 6.3821 11.0425C6.52023 11.0425 6.63027 10.9832 6.76607 11.0121C6.79494 11.0425 6.82148 11.1026 6.87689 11.1346C6.82148 11.2243 6.71222 11.1346 6.63027 11.165C6.63027 11.165 6.63027 11.2243 6.63027 11.2555C6.43829 11.3781 6.27284 11.1955 6.11051 11.1026C6.13704 11.0737 6.13704 11.0425 6.16358 11.0425ZM7.04078 10.7678L7.0119 10.7998C7.15082 10.9215 7.31471 10.7085 7.42397 10.8279C7.42397 10.8591 7.35451 10.8318 7.3428 10.8591C7.2312 11.1026 6.93074 11.0121 6.74031 10.9504C6.65681 10.9215 6.54677 10.9215 6.46482 10.8591C6.63027 10.7678 6.84879 10.6765 7.04078 10.7678ZM7.06809 9.91399C7.06809 9.94443 7.06809 9.97643 7.06809 9.97643C6.93074 10.0365 6.76607 10.099 6.60374 10.0076C6.74031 9.91399 6.90498 9.97643 7.06809 9.91399ZM7.80716 12.1382C7.64483 12.2311 7.39743 12.2311 7.20467 12.1694C7.26086 12.0492 7.33812 12.0789 7.42397 12.0789C7.5621 12.0789 7.69946 12.0172 7.80716 12.1382ZM7.86413 11.2868C7.80716 11.3484 7.75409 11.3484 7.67136 11.3484C7.58786 11.3484 7.50591 11.3172 7.45284 11.2868C7.58786 11.2243 7.72521 11.2243 7.86413 11.2868ZM7.91798 8.9088C8.13572 8.84793 8.38389 8.84793 8.60319 8.9088C8.60319 8.87915 8.60319 8.84793 8.62895 8.84793C8.74055 8.84793 8.90366 8.7574 8.95829 8.9088C8.98638 9.00011 8.87712 8.97202 8.84903 8.97202C8.40965 9.03289 7.97183 9.03289 7.53479 9.00011C7.64483 8.84793 7.77984 8.9408 7.91798 8.9088ZM8.16381 8.26963C8.27463 8.24076 8.38389 8.26963 8.49315 8.30007C8.40965 8.36094 8.32848 8.30007 8.24498 8.36094C8.38389 8.36094 8.52047 8.26963 8.62895 8.4226C8.43774 8.51469 8.21922 8.51469 7.99992 8.45382C7.91798 8.45382 7.86413 8.4226 7.77984 8.48347C7.75409 8.39138 7.72521 8.36094 7.64483 8.33129C7.80716 8.24076 8.00226 8.3149 8.16381 8.26963ZM8.27463 7.66168H8.38389C8.40965 7.66168 8.40965 7.69134 8.40965 7.72099C8.3558 7.78265 8.24498 7.81855 8.24498 7.72099C8.24498 7.69134 8.27463 7.66168 8.27463 7.66168ZM8.49315 7.60003C8.57432 7.60003 8.62895 7.62344 8.71245 7.60003C8.82093 7.56959 8.90366 7.60003 8.98638 7.62968C8.90366 7.66168 8.87712 7.72099 8.82093 7.75143C8.71245 7.81387 8.57432 7.72099 8.4674 7.66168C8.4674 7.62968 8.4674 7.60003 8.49315 7.60003ZM9.06833 7.8443C9.0972 7.8443 9.0972 7.87474 9.12452 7.87474C9.06833 7.93483 9.0137 7.93483 8.98638 7.87474C8.98638 7.8443 9.04101 7.8443 9.06833 7.8443ZM9.04101 10.5555C8.98638 10.5555 9.0137 10.4338 8.95829 10.4033C9.04101 10.3432 9.13232 10.3331 9.2049 10.3713C9.26031 10.4033 9.34304 10.4033 9.39533 10.4642C9.31494 10.6156 9.15027 10.4939 9.04101 10.5555ZM8.60319 11.4686C8.71245 11.4382 8.85371 11.2618 8.93253 11.3484C8.95829 11.3781 9.04101 11.3172 9.06833 11.3484C9.12452 11.4382 9.2049 11.4077 9.28685 11.4686C9.31494 11.5006 9.28685 11.5303 9.26031 11.5303C9.04101 11.5303 8.82093 11.5623 8.60319 11.4686ZM9.23222 14.8205C9.23222 14.851 9.26031 14.9134 9.2049 14.9438C9.17759 14.9438 9.15027 14.9134 9.0972 14.9134C9.06833 14.9134 9.06833 14.8799 9.04101 14.851C9.0972 14.8205 9.17759 14.8205 9.23222 14.8205ZM8.7944 14.5763C8.90366 14.5763 9.06833 14.5466 9.17759 14.5763C9.23222 14.6067 9.26031 14.7292 9.2049 14.7893C9.04101 14.5763 8.76942 14.6972 8.52047 14.6972C8.4674 14.6972 8.43774 14.6676 8.40965 14.6371C8.52047 14.5466 8.68358 14.5763 8.7944 14.5763ZM9.17759 14.0003C9.2049 14.0292 9.23222 14.1197 9.17759 14.1197C9.06833 14.1502 8.90366 14.1197 8.90366 14.0292C8.90366 13.9074 9.10735 13.9191 9.17759 14.0003ZM8.87712 13.5726C8.95829 13.6015 9.11827 13.5992 9.0972 13.7225C9.06833 13.877 8.87712 13.8161 8.76786 13.7225C8.7944 13.6624 8.82093 13.5726 8.87712 13.5726ZM9.12452 12.0172C9.04101 12.0492 8.98638 12.0789 8.90366 12.0172C8.98638 11.9579 9.04101 11.9579 9.12452 12.0172ZM8.87712 11.8947C8.84903 11.8947 8.7944 11.9259 8.76786 11.8651C8.76786 11.8354 8.76786 11.805 8.7944 11.805C8.82093 11.805 8.8303 11.7839 8.84903 11.805C8.87712 11.8354 8.95829 11.8651 8.87712 11.8947ZM8.95829 14.4241C8.87712 14.5763 8.71245 14.3944 8.62895 14.5154C8.57432 14.4241 8.4674 14.5466 8.40965 14.4569C8.54856 14.3312 8.7944 14.3944 8.95829 14.4241ZM8.62895 13.6319C8.62895 13.6624 8.74055 13.6624 8.65704 13.7225C8.60319 13.7529 8.52047 13.6858 8.52047 13.7529C8.52047 13.7857 8.52047 13.8161 8.52047 13.8161C8.40965 13.845 8.24498 13.9074 8.16381 13.7857C8.30117 13.6319 8.4674 13.6624 8.62895 13.6319ZM8.65704 12.7188C8.57432 12.7789 8.49315 12.8398 8.38389 12.8398C8.21922 12.8398 8.08265 12.9608 7.91798 12.9007C7.99992 12.7485 8.16381 12.8398 8.27463 12.7485C8.3558 12.6572 8.52047 12.6884 8.65704 12.7188ZM8.10918 10.8591C8.21922 10.7678 8.38389 10.7998 8.52047 10.8591C8.38389 10.9832 8.21922 10.9215 8.10918 10.8591ZM8.16381 11.4686C8.08265 11.5303 8.03114 11.5919 7.94607 11.5919H7.86413C7.83447 11.5919 7.80716 11.5623 7.83447 11.5303C7.91798 11.4382 8.08265 11.3781 8.16381 11.4686ZM7.72521 10.7085C7.77984 10.5867 7.94607 10.6476 8.08265 10.7085C8.02646 10.7678 7.97183 10.7998 7.94607 10.8591C7.86413 10.8887 7.69946 10.7678 7.72521 10.7085ZM8.82093 10.4338C8.82093 10.4642 8.78893 10.4798 8.76786 10.4642C8.68358 10.4033 8.57432 10.3713 8.52047 10.2808C8.52047 10.2504 8.52047 10.2207 8.54856 10.2207C8.65704 10.2207 8.7944 10.3112 8.82093 10.4338ZM8.43774 9.61197C8.49315 9.64163 8.43774 9.73137 8.4674 9.76337C8.52047 9.79381 8.6227 9.74776 8.65704 9.82346C8.68358 9.88434 8.60319 9.88434 8.57432 9.91399C8.4674 9.8539 8.30117 10.0076 8.24498 9.91399C8.16381 9.79381 8.30117 9.88434 8.3558 9.82346C8.10918 9.73137 7.86413 9.79381 7.61517 9.73137C7.89144 9.70094 8.16381 9.61197 8.43774 9.61197ZM7.58786 9.06333C7.80716 8.97202 8.05377 9.03289 8.27463 9.12264C8.24498 9.24361 8.13572 9.21395 8.02646 9.21395C7.89144 9.21395 7.77984 9.24361 7.64483 9.18429C7.69946 9.12264 7.77984 9.15464 7.86413 9.12264C7.77984 9.09299 7.67136 9.15464 7.58786 9.06333ZM8.4674 12.0172C8.43774 12.0172 8.38389 11.986 8.38389 11.9579C8.38389 11.8947 8.43774 11.8354 8.49315 11.8651C8.54856 11.9259 8.60319 12.0172 8.65704 12.1086C8.65704 12.1382 8.65704 12.1694 8.62895 12.1694C8.57432 12.1694 8.54856 12.1382 8.52047 12.1086C8.52047 12.0789 8.52047 12.0789 8.52047 12.0492C8.52047 12.0172 8.49315 12.0172 8.4674 12.0172ZM6.95805 13.145C6.90498 13.145 6.79494 13.1762 6.79494 13.113C6.82148 12.9608 7.0119 13.0224 7.12194 12.9928C7.28739 12.9335 7.4185 12.9608 7.61517 12.9608C7.64483 12.9608 7.64483 12.9928 7.67136 12.9928C7.45206 13.113 7.20467 13.0529 6.95805 13.145ZM8.10918 13.5094C7.94607 13.6624 7.72521 13.6319 7.58786 13.5094C7.64483 13.4501 7.72521 13.5094 7.77984 13.5422C7.91798 13.5726 7.99992 13.3885 8.10918 13.5094ZM7.93124 13.2012C7.78296 13.2784 7.61205 13.2402 7.49811 13.1395C7.55274 13.0778 7.63624 13.1395 7.69087 13.1692C7.80013 13.1926 7.87271 13.0833 7.95466 13.0974C8.09826 13.0349 8.24732 13.006 8.40965 12.9608C8.49315 12.9608 8.54856 13.0224 8.60319 13.0833C8.36984 13.1098 8.15835 13.223 7.93124 13.2012ZM9.42498 9.03289C9.39532 9.06333 9.36957 9.12264 9.34304 9.12264C9.23222 9.12264 9.15027 9.21395 9.06833 9.24361C9.04101 9.24361 9.04101 9.18429 8.98638 9.18429C8.82093 9.18429 8.62895 9.21395 8.4674 9.09299C8.60319 8.97202 8.76786 9.09299 8.93253 9.03289C9.06833 8.97202 9.26031 8.9408 9.42498 9.03289ZM9.56156 13.5422C9.53424 13.5422 9.53424 13.5094 9.53424 13.479C9.53424 13.4501 9.56156 13.4501 9.56156 13.4197C9.61697 13.4501 9.61697 13.5094 9.56156 13.5422ZM9.58965 10.4939C9.58965 10.4642 9.58965 10.4338 9.61697 10.4338C9.64428 10.4338 9.63179 10.4642 9.67082 10.4642C9.69735 10.4642 9.69735 10.4939 9.72623 10.4939C9.67082 10.5555 9.64428 10.5555 9.58965 10.4939ZM9.94553 10.099C9.97206 10.1278 9.94553 10.159 9.91821 10.159C9.83549 10.159 9.78008 10.159 9.69735 10.099L9.64428 10.159C9.58965 10.1278 9.53424 10.0685 9.53424 10.0076C9.53424 9.94443 9.61931 9.9616 9.67082 9.97643C9.78008 10.0076 9.8628 10.0365 9.94553 10.099ZM9.72623 8.54356C9.72623 8.51469 9.80895 8.48347 9.80895 8.54356C9.80895 8.57634 9.72623 8.57634 9.72623 8.54356ZM10.0267 9.88434C10.0267 9.91399 9.99938 9.94443 9.99938 9.94443C9.91821 9.88434 9.75354 9.91399 9.78008 9.79381C9.78008 9.73137 9.8628 9.70094 9.94553 9.70094C10.0267 9.70094 10.054 9.76337 10.0813 9.79381C10.0813 9.8539 9.99938 9.82346 9.97206 9.82346C9.99938 9.8539 9.99938 9.8539 10.0267 9.88434ZM9.97206 7.44784C10.2202 7.41741 10.4388 7.41741 10.6565 7.50794C10.63 7.60003 10.548 7.56959 10.4934 7.56959C10.4107 7.60003 10.3303 7.62968 10.2725 7.60003C10.1921 7.53759 10.1352 7.50794 10.054 7.50794C10.054 7.56959 10.0267 7.60003 9.99938 7.60003C9.80895 7.62968 9.61697 7.62968 9.45152 7.53759C9.61697 7.4775 9.80895 7.46736 9.97206 7.44784ZM10.8766 7.26444C10.9031 7.26444 10.9031 7.26444 10.9304 7.26444C10.9593 7.26444 11.0412 7.20513 11.0412 7.26444C11.0132 7.3261 10.9304 7.41741 10.85 7.3261C10.85 7.2941 10.85 7.26444 10.8766 7.26444ZM11.2332 7.26444C11.2598 7.26444 11.2598 7.2941 11.2598 7.3261C11.1778 7.41741 11.0412 7.50794 10.9304 7.41741C10.9874 7.3261 11.0678 7.35653 11.1224 7.2941C11.1505 7.26444 11.2051 7.3261 11.2332 7.26444ZM11.6164 10.5555C11.6437 10.5867 11.6164 10.6156 11.5899 10.6156H11.3698C11.3425 10.6156 11.3425 10.5867 11.3144 10.5867C11.3698 10.4939 11.5345 10.4939 11.6164 10.5555ZM11.5345 9.55031C11.6164 9.55031 11.6991 9.55032 11.753 9.61197C11.6726 9.6705 11.5618 9.76337 11.4517 9.73137C11.4244 9.73137 11.4244 9.70094 11.4244 9.6705C11.4518 9.64162 11.4517 9.64163 11.4775 9.61197C11.4517 9.61197 11.3698 9.64162 11.3698 9.58075C11.3987 9.51988 11.4775 9.55031 11.5345 9.55031ZM11.7795 7.62968C11.8084 7.62968 11.8357 7.60003 11.8638 7.56959C11.8896 7.56959 11.9184 7.60003 11.8896 7.62968C11.7795 7.72099 11.5899 7.75143 11.4517 7.69134C11.5345 7.56959 11.6687 7.62968 11.7795 7.62968ZM11.6437 7.44784C11.6726 7.4775 11.6991 7.50794 11.6437 7.53759C11.5899 7.53759 11.5072 7.56959 11.5072 7.50794C11.4775 7.44784 11.6016 7.39946 11.6437 7.44784ZM11.8638 7.38619C11.8896 7.38619 11.9262 7.37761 11.9442 7.41741C11.9739 7.4775 12.0831 7.41741 12.1089 7.4775C12.0285 7.50794 11.8896 7.56959 11.8084 7.50794C11.8638 7.4775 11.8084 7.41741 11.8638 7.38619ZM11.8084 11.986L11.7795 12.0172C11.753 12.0172 11.7265 12.0172 11.7265 12.0172C11.6991 11.986 11.7265 11.9579 11.753 11.9579C11.7795 11.9579 11.8084 11.9579 11.8084 11.986ZM11.9442 11.3484C11.9739 11.3781 12.0285 11.3781 12.0558 11.4382C12.0558 11.4686 12.0558 11.5006 12.0285 11.5006C11.9442 11.5303 11.8334 11.5818 11.8084 11.5006C11.7795 11.4077 11.8896 11.3484 11.9442 11.3484ZM12.0831 9.61197C12.1362 9.61197 12.2173 9.61197 12.1924 9.6705C12.1643 9.8539 11.9184 9.76337 11.8084 9.70094C11.8896 9.6705 11.9739 9.61197 12.0831 9.61197ZM12.0831 8.57634C12.3563 8.57634 12.6318 8.48347 12.8768 8.66609C12.9041 8.69731 12.8768 8.72696 12.8495 8.72696C12.7121 8.72696 12.5483 8.60678 12.4101 8.69731C12.2478 8.78862 12.0285 8.69731 11.8357 8.69731C11.8084 8.69731 11.8084 8.63565 11.8084 8.60678C11.8896 8.51469 11.9988 8.57634 12.0831 8.57634ZM12.9322 9.39735C13.0415 9.42701 13.1515 9.45666 13.2335 9.51988C13.2046 9.55031 13.2046 9.58075 13.1781 9.58075C13.0415 9.55031 12.8768 9.61197 12.7675 9.4871C12.8206 9.45666 12.8479 9.37472 12.9322 9.39735ZM13.3419 9.88434C13.6728 9.94443 13.9733 9.8539 14.2746 9.94443C14.1926 10.099 14.0537 9.94443 13.9452 10.0076C13.8906 10.0365 13.8086 10.099 13.7532 10.0685C13.6167 9.97643 13.452 10.0076 13.3162 9.94443C13.2873 9.91399 13.3162 9.88434 13.3419 9.88434ZM14.4103 10.3112C14.4103 10.3432 14.4103 10.3713 14.3846 10.3713C14.2184 10.2808 14.0537 10.4642 13.8906 10.3432C14.0006 10.2504 14.1333 10.2504 14.2746 10.2504C14.3284 10.2504 14.3846 10.2504 14.4103 10.3112ZM14.6023 10.0685C14.575 10.0685 14.5493 10.0685 14.5493 10.0365C14.6296 9.97643 14.7405 9.97643 14.8224 10.0365C14.7943 10.099 14.7405 10.0685 14.6835 10.0685C14.9044 10.191 15.1502 9.97643 15.3437 10.099C15.1502 10.159 14.9574 10.1715 14.7405 10.2207C14.6023 10.2504 14.5493 10.1278 14.4384 10.099C14.4946 10.0076 14.5493 10.1278 14.6023 10.0685ZM14.959 12.3216C14.959 12.3513 14.959 12.3833 14.9325 12.3833C14.6577 12.3833 14.3573 12.4441 14.0826 12.292C14.1645 12.1991 14.3026 12.3216 14.3846 12.1991C14.4384 12.1382 14.5337 12.2256 14.6296 12.1991C14.7405 12.1694 14.9044 12.1694 14.959 12.3216ZM13.9452 12.9335C13.8906 12.9335 13.7813 12.9608 13.7251 12.8695C13.9733 12.8094 14.2184 12.8094 14.4658 12.8094C14.5485 12.8094 14.6577 12.8094 14.7405 12.8695C14.4946 13.0833 14.2184 12.9335 13.9452 12.9335ZM13.4809 12.6884C13.452 12.626 13.5113 12.5354 13.6728 12.5354C13.6986 12.5354 13.6986 12.5651 13.7251 12.5651L13.6986 12.5955C13.8086 12.626 13.9452 12.5955 14.0537 12.7188C14.0826 12.7485 14.0537 12.7789 14.0264 12.7789C13.8352 12.7789 13.5612 12.8695 13.4809 12.6884ZM13.3966 11.8651C13.37 11.8354 13.3966 11.805 13.4262 11.805C13.452 11.805 13.4582 11.7878 13.4809 11.805C13.5893 11.8947 13.7532 11.7738 13.8648 11.8947C13.8648 11.9259 13.8648 11.9579 13.8352 11.9579C13.6986 11.8947 13.5339 11.986 13.3966 11.8651ZM13.2616 11.5303C13.1226 11.6216 12.9588 11.652 12.7933 11.5919C12.8768 11.5623 12.9588 11.5623 13.0157 11.4686C13.0961 11.5303 13.1781 11.4686 13.2616 11.5303ZM13.2873 10.4338C13.2873 10.4033 13.3419 10.4033 13.37 10.4033C13.37 10.4338 13.37 10.4338 13.37 10.4642C13.3419 10.4642 13.2873 10.4642 13.2873 10.4338ZM13.6167 11.0121C13.6728 11.0425 13.8086 11.0425 13.7813 11.1026C13.6986 11.2868 13.4262 11.1026 13.2616 11.0425C13.37 10.9832 13.5183 10.9574 13.6167 11.0121ZM13.6986 10.4642C13.8352 10.4033 13.978 10.3612 14.1099 10.4338C14.1645 10.4642 14.2184 10.4033 14.2746 10.4642C14.1099 10.5555 13.8906 10.5555 13.6986 10.4642ZM14.0264 11.165C14.0264 11.1346 14.0826 11.1346 14.1099 11.1346C14.138 11.1346 14.3284 11.1346 14.2449 11.2243C14.1926 11.2555 14.0826 11.2243 14.0264 11.165ZM14.0537 12.4738C14.0537 12.4441 14.0826 12.4441 14.1099 12.4137C14.1099 12.4441 14.138 12.4387 14.1645 12.4441C14.3284 12.4738 14.4946 12.4738 14.6296 12.5651C14.5219 12.5955 14.5485 12.626 14.4946 12.7188C14.3573 12.626 14.138 12.6884 14.0264 12.5354C14.0264 12.5058 14.0826 12.5058 14.1099 12.5058C14.0826 12.5058 14.0537 12.5058 14.0537 12.4738ZM13.6167 10.1278C13.7532 10.0685 14.0006 10.0365 14.0264 10.191C14.0537 10.2207 13.9218 10.2347 13.8648 10.2504C13.6455 10.3112 13.4262 10.3713 13.2046 10.2504C13.3419 10.2207 13.4809 10.159 13.6455 10.159L13.6167 10.1278ZM12.3282 10.8887C12.3555 10.8279 12.4125 10.845 12.4655 10.8591C12.574 10.8887 12.6848 10.7998 12.7675 10.8887C12.6575 11.0121 12.3009 11.1346 12.3282 10.8887ZM13.3419 13.2363C13.3419 13.2066 13.3162 13.2066 13.2873 13.2066C13.2873 13.2363 13.2873 13.2659 13.2616 13.2659C13.1781 13.2659 13.1226 13.2363 13.0415 13.2066C12.8206 13.1762 12.6013 13.2363 12.4101 13.113C12.4655 12.8695 12.6848 13.0833 12.8495 12.9928C12.5202 12.8398 12.1362 13.1762 11.8638 12.9335C11.8357 12.9007 11.9739 12.9007 12.0285 12.8695C11.9739 12.8094 11.9239 12.8398 11.8638 12.8398C11.8357 12.8398 11.8357 12.8094 11.8084 12.8094C11.9442 12.6572 12.0831 12.5651 12.2478 12.4738C12.3282 12.4137 12.5202 12.4441 12.6318 12.5651C12.5202 12.626 12.3555 12.5354 12.2735 12.6884C12.2735 12.7188 12.2735 12.7789 12.3009 12.7789C12.3851 12.7789 12.4655 12.7485 12.5483 12.7485C12.7121 12.7789 12.8206 12.9007 12.9853 12.8398C13.0415 12.8094 13.0961 12.7188 13.1781 12.7485C13.2616 12.7789 13.2616 12.9007 13.1781 12.9335H13.0415C13.0688 13.145 13.3419 12.9608 13.4262 13.145C13.452 13.2066 13.37 13.2066 13.3419 13.2363ZM13.4262 13.6624C13.452 13.6624 13.452 13.6928 13.4809 13.7225C13.4809 13.7529 13.4809 13.7857 13.452 13.7857C13.3966 13.7857 13.3419 13.7225 13.2873 13.7529C13.1515 13.7857 13.0157 13.7225 12.9041 13.8161C13.0157 13.845 13.1515 13.7857 13.2616 13.845C13.0157 13.9668 12.7121 14.0573 12.4655 14.0003C12.4468 13.9917 12.4273 13.987 12.4078 13.9824C12.4164 13.9948 12.4226 14.0105 12.439 14.0292C12.3555 14.0885 12.3009 14.1502 12.1924 14.1502C12.1643 14.1502 12.1643 14.179 12.1362 14.179C12.1089 14.179 12.1089 14.1502 12.1089 14.1197C12.158 14.0105 12.2525 14.0003 12.3516 13.9746C12.2173 13.9652 12.0784 13.9948 11.9739 13.877C12.1089 13.7225 12.3009 13.7225 12.4655 13.7857C12.439 13.8161 12.439 13.8161 12.4101 13.845C12.5202 13.7857 12.6848 13.877 12.7402 13.7529C12.7676 13.7225 12.6318 13.7225 12.6318 13.6624C12.6318 13.6319 12.7121 13.6015 12.7675 13.6015C12.8768 13.6015 13.0157 13.6624 13.1226 13.6624C13.2335 13.6928 13.3162 13.6624 13.4262 13.6624ZM13.5612 14.1197C13.5612 14.179 13.4809 14.1197 13.452 14.179C13.4262 14.2102 13.3966 14.179 13.3966 14.1502C13.4262 14.1197 13.4457 14.0885 13.5066 14.0885C13.5339 14.0885 13.5612 14.1197 13.5612 14.1197ZM13.5612 15.4909C13.452 15.4597 13.3419 15.5206 13.2616 15.4909C13.2335 15.4597 13.1781 15.4909 13.1781 15.4301C13.1781 15.4004 13.1781 15.4004 13.2046 15.3676C13.2335 15.3372 13.2428 15.4324 13.2873 15.4004C13.37 15.3372 13.5066 15.3676 13.5893 15.4301C13.6167 15.4597 13.5893 15.4909 13.5612 15.4909ZM13.7532 16.2518C13.6455 16.2823 13.5612 16.3143 13.452 16.2823C13.5066 16.2518 13.5612 16.1605 13.6167 16.1902C13.6728 16.2206 13.7251 16.1902 13.7532 16.2518ZM13.7532 14.9438C13.8352 14.9438 13.9163 14.9181 14.0006 14.9438C14.1099 14.9727 14.2449 14.9438 14.3284 15.0344C14.3573 15.0633 14.3284 15.0929 14.3026 15.0929C14.1645 15.0633 14.0264 15.1241 13.8906 15.0633C13.8352 15.0633 13.7813 15.0633 13.7251 15.0032C13.6986 14.9727 13.7251 14.9438 13.7532 14.9438ZM14.3573 13.4197C14.4384 13.479 14.5219 13.5094 14.6023 13.5094C14.6296 13.5094 14.6577 13.5422 14.6577 13.5726C14.6296 13.6319 14.5727 13.6156 14.5485 13.6015C14.4384 13.5422 14.3026 13.6319 14.2184 13.5094C14.2746 13.479 14.3026 13.3885 14.3573 13.4197ZM14.8224 14.0003C14.8497 14.0573 14.7405 14.0573 14.6577 14.0573C14.5485 14.0573 14.4103 14.0885 14.3284 14.0003C14.4946 13.9371 14.7662 13.8161 14.8224 14.0003ZM15.0417 14.7597C14.877 14.8205 14.6296 14.9134 14.5219 14.7292C14.4658 14.6676 14.6055 14.6254 14.6296 14.6371C14.7662 14.6972 14.9325 14.6067 15.0417 14.7597ZM13.4262 16.2823H13.2616C13.2616 16.3143 13.2616 16.3439 13.2335 16.3439C13.1226 16.3143 13.0157 16.3439 12.9322 16.2823C13.0157 16.0997 13.1781 16.1902 13.3419 16.1902C13.37 16.1902 13.4262 16.1605 13.452 16.2206C13.452 16.2518 13.452 16.2823 13.4262 16.2823ZM12.7933 15.5518C12.7933 15.5206 12.7933 15.4909 12.8206 15.4909C12.8495 15.4909 12.8495 15.4855 12.8768 15.4909C13.0688 15.5206 13.2616 15.5206 13.452 15.6142C13.4262 15.6431 13.3966 15.7024 13.37 15.7024C13.2046 15.6431 13.0688 15.6735 12.9322 15.6142C12.9041 15.6142 12.8206 15.6142 12.7933 15.5518ZM12.4928 14.7893C12.3555 14.7893 12.2173 14.8205 12.0831 14.7893C12.1362 14.6676 12.2735 14.7292 12.3282 14.6371C12.4101 14.6972 12.5202 14.6067 12.574 14.6972C12.6013 14.7597 12.5202 14.7597 12.4928 14.7893ZM11.7265 13.5422C11.6726 13.5094 11.5985 13.4306 11.6726 13.3885C11.7265 13.3572 11.8084 13.3885 11.8638 13.3885C12.0558 13.2964 12.2478 13.2964 12.439 13.2964C12.4655 13.2964 12.4655 13.3291 12.4928 13.3572C12.4928 13.3885 12.4928 13.4197 12.4655 13.4197C12.3009 13.479 12.1362 13.3572 11.9988 13.4501C11.9184 13.479 11.8357 13.5422 11.7265 13.5422ZM11.8357 15.0929C11.8357 15.1241 11.7998 15.1031 11.7795 15.1241C11.6991 15.2162 11.6437 15.4004 11.5072 15.3083C11.5899 15.1866 11.6726 15.0633 11.7795 15.0032C11.8084 15.0032 11.8357 15.0032 11.8357 15.0344C11.8357 15.0633 11.8357 15.0633 11.8357 15.0929ZM11.4517 14.6371C11.4775 14.5154 11.6164 14.4857 11.753 14.5154C11.7795 14.5154 11.7795 14.5466 11.7795 14.5763C11.753 14.6371 11.6867 14.6512 11.6437 14.6972C11.5618 14.7893 11.4775 14.9727 11.3698 14.9438C11.2598 14.9134 11.3987 14.7597 11.4517 14.6371ZM11.4517 14.0573C11.4244 14.0885 11.3987 14.1197 11.3698 14.0573C11.3698 14.0003 11.3698 13.9074 11.4244 13.877C11.4775 13.877 11.5072 14.0003 11.4517 14.0573ZM11.3425 11.8947C11.3425 11.8947 11.3425 11.8651 11.3425 11.8354C11.4244 11.8354 11.5345 11.7441 11.6164 11.8354C11.5345 11.9259 11.4517 11.9259 11.3425 11.8947ZM11.8084 15.6735C11.753 15.6735 11.6991 15.7024 11.6726 15.6431C11.6726 15.6735 11.6726 15.7024 11.6437 15.7024H11.3987C11.3698 15.7024 11.3698 15.6431 11.3698 15.6142C11.3987 15.5807 11.4517 15.5518 11.5072 15.5518C11.5899 15.5518 11.6164 15.5807 11.6726 15.6431C11.7265 15.6142 11.7795 15.5807 11.8357 15.6142C11.8357 15.6431 11.8084 15.6735 11.8084 15.6735ZM5.28638 13.0529C5.28638 13.0833 5.28638 13.113 5.26062 13.113C5.04054 13.0833 4.84856 13.2066 4.63082 13.113C4.68389 13.0833 4.7112 13.0529 4.76739 13.0833C4.76739 13.0529 4.76739 13.0529 4.76739 13.0224C4.65657 13.0529 4.54887 13.0224 4.43883 13.0224C4.43883 13.0833 4.41152 13.0833 4.3842 13.113C4.32879 13.145 4.32879 13.0833 4.29992 13.0529C4.29992 13.0833 4.29992 13.113 4.27416 13.113C4.24685 13.0529 4.21953 13.145 4.19144 13.113C4.16412 13.0833 4.13759 13.0833 4.16412 13.0529C4.35611 12.9335 4.54887 12.8695 4.76739 12.9007C4.79471 12.9007 4.79471 12.9335 4.79471 12.9608C4.98591 12.9608 5.1498 12.8695 5.34179 12.9608C5.31447 12.9928 5.28638 12.9928 5.26062 12.9928C5.23253 13.0224 5.26062 13.0224 5.28638 13.0529ZM5.28638 13.6928C5.23253 13.6928 5.12249 13.7225 5.12249 13.6624C5.09595 13.6015 5.23253 13.5726 5.28638 13.6319C5.28638 13.6319 5.28638 13.6624 5.28638 13.6928ZM5.06864 13.845C5.01323 14.0003 4.79471 13.877 4.65657 13.8161C4.68389 13.7529 4.76739 13.7225 4.79471 13.7529C4.90397 13.7529 5.10064 13.7568 5.06864 13.845ZM3.67089 12.9608C3.61548 12.8094 3.97292 12.8094 4.13759 12.8094C4.16412 12.8094 4.16412 12.8398 4.19144 12.8398C4.05486 12.9928 3.75284 13.145 3.67089 12.9608ZM15.755 11.0737C15.7808 11.0737 15.787 11.1744 15.8354 11.1346C15.9462 11.0425 16.0555 11.1346 16.1663 11.165C16.1663 11.1955 16.2732 11.2243 16.1928 11.2555C16.0555 11.2868 15.9181 11.2868 15.7808 11.2555C15.7269 11.2243 15.645 11.1026 15.755 11.0737ZM16.3567 13.4501C16.5479 13.479 16.7672 13.4501 16.9592 13.5726C16.9865 13.6015 16.9592 13.6319 16.9311 13.6319C16.8219 13.6319 16.729 13.6561 16.6299 13.6015C16.5198 13.5422 16.4114 13.5726 16.3005 13.5094C16.3279 13.479 16.3279 13.4501 16.3567 13.4501ZM15.2337 15.7024C15.2868 15.7336 15.3695 15.7336 15.4257 15.7945C15.3437 15.8257 15.2056 15.917 15.1237 15.8257C15.0963 15.7649 15.2337 15.8257 15.2056 15.7649C15.1791 15.7336 15.0963 15.7945 15.0963 15.7336C15.1237 15.6735 15.1838 15.6767 15.2337 15.7024ZM15.7566 18.5252C15.7566 18.5252 15.6707 18.5237 15.5053 18.5252C14.92 18.5252 15.8799 18.5338 14.1653 18.5486C13.5917 18.5291 13.1702 18.4995 13.022 18.455C12.6856 18.3551 12.3555 18.2958 12.0558 18.0788C11.9988 18.0492 11.9809 18.039 11.9262 18.0086C11.8989 18.0086 11.8638 17.9594 11.8357 17.9594C11.6437 17.8065 11.4775 17.6527 11.4517 17.4108C11.4104 17.1103 11.5118 16.8262 11.6929 16.6007H11.6945C11.7522 16.5281 11.817 16.4626 11.8896 16.4056C11.9739 16.3439 12.0831 16.3744 12.1643 16.3439C12.2173 16.3439 12.2478 16.1605 12.3555 16.1902C12.4655 16.2518 12.3851 16.3744 12.3009 16.436C12.3009 16.4649 12.3009 16.5273 12.3009 16.5273C12.3516 16.5453 12.4086 16.5297 12.4655 16.5359C12.4125 16.6241 12.3617 16.6257 12.3282 16.6787C12.3282 16.7084 12.439 16.7084 12.439 16.7388C12.3555 16.8309 12.1924 16.7716 12.0831 16.8309C12.0831 16.8309 12.0831 16.8621 12.0831 16.8926C12.3555 16.8621 12.6575 16.6483 12.9322 16.8013C12.9322 16.8013 12.8495 16.8309 12.7933 16.8621C12.9322 16.9519 13.0688 16.8621 13.2046 16.8926C13.37 16.9519 13.5339 16.8926 13.6986 16.9222C13.6728 16.8621 13.5893 16.8926 13.5612 16.8309C13.7813 16.7716 14.0006 16.8926 14.2184 16.9519C14.138 16.8621 14.0264 16.8013 13.8906 16.8013C13.8086 16.8013 13.7251 16.7084 13.6728 16.6179V16.6007C13.6728 16.5749 13.6767 16.5578 13.6986 16.5578C13.7673 16.5406 13.8438 16.5726 13.9179 16.6007C13.9881 16.6257 14.0553 16.6467 14.1099 16.6179C14.2121 16.5617 14.2917 16.6655 14.3908 16.6007H14.3924C14.3994 16.596 14.4057 16.5913 14.4103 16.5882C14.3026 16.4649 14.1099 16.5882 14.0006 16.436C14.1099 16.3744 14.2184 16.436 14.3284 16.3439C14.3846 16.2823 14.5219 16.2823 14.6296 16.2823C14.7662 16.2518 14.9044 16.3143 15.0417 16.3143C15.069 16.3143 15.1237 16.3744 15.1502 16.3744C15.2602 16.3744 15.3695 16.4953 15.4788 16.436C15.4788 16.4056 15.4257 16.3744 15.3984 16.3439C15.3141 16.3439 15.2056 16.3439 15.1502 16.2518C15.1502 16.2206 15.1502 16.1902 15.1791 16.1902C15.3141 16.1902 15.4257 16.3439 15.563 16.2823C15.3437 16.1301 15.0963 16.2206 14.877 16.0997C14.7405 16.0083 14.5485 15.9787 14.4384 15.8257C14.4103 15.8874 14.3573 15.8569 14.3284 15.8569C14.3026 15.8569 14.3026 15.7945 14.2746 15.7945C14.138 15.7945 13.9733 15.8257 13.9733 15.7024C13.9733 15.5807 14.138 15.6142 14.2184 15.6142C14.5219 15.5518 14.7662 15.7336 15.069 15.7649C15.0963 15.7649 15.0963 15.8257 15.0963 15.8569C15.0963 15.917 15.0417 15.8874 15.0144 15.8874C15.1502 15.917 15.3141 15.917 15.4514 15.917C15.645 15.917 15.8635 15.9467 16.0555 16.0083C16.1663 16.0388 16.2732 16.0997 16.3848 16.0388C16.3005 15.9787 16.1382 16.0708 16.1663 15.917C16.1663 15.8569 16.2732 15.917 16.3279 15.8874L16.3005 15.8569C16.3279 15.7945 16.3848 15.8257 16.4395 15.8257C16.2483 15.7336 16.0555 15.6431 15.8635 15.5518C15.972 15.3676 16.1663 15.4909 16.3279 15.4909C16.3279 15.4909 16.3279 15.4301 16.3005 15.4301C16.3567 15.3372 16.4395 15.4597 16.5198 15.4301C16.4925 15.3676 16.4395 15.3676 16.3848 15.3372C16.1928 15.3083 16.0001 15.2459 15.8081 15.2162C15.8354 15.1561 15.972 15.2459 15.9462 15.1241C15.8893 14.9727 15.6973 15.0032 15.5888 14.9438C15.6973 14.8799 15.8354 14.851 15.9462 14.8799C16.0828 14.9134 16.2483 14.851 16.3848 14.8799C16.1663 14.6676 15.8635 14.9134 15.6161 14.6972C15.6707 14.6371 15.755 14.6067 15.7808 14.5154C15.9462 14.5763 16.1382 14.4857 16.3005 14.5154C16.0945 14.4303 15.8893 14.3437 15.6824 14.2844C15.67 14.2805 15.6583 14.275 15.645 14.2719C15.5591 14.2344 15.4741 14.2547 15.3874 14.2844C15.3375 14.3 15.2844 14.3211 15.2337 14.3312C15.0417 14.3944 14.8497 14.3944 14.6577 14.3023C14.6687 14.2953 14.6835 14.2891 14.6944 14.2844C14.7974 14.2352 14.9168 14.2102 15.0144 14.2102H15.1791C15.2337 14.2102 15.1791 14.1197 15.2337 14.1197C15.3437 14.1197 15.4788 14.0885 15.5888 14.1197C15.7425 14.2048 15.9119 14.2446 16.0734 14.2844C16.1413 14.2984 16.2085 14.314 16.2732 14.3312C16.3005 14.364 16.3279 14.3944 16.3567 14.4241C16.5198 14.4569 16.6861 14.4569 16.7946 14.5763C16.8219 14.6067 16.8492 14.5763 16.8492 14.5466C16.8234 14.4038 16.7985 14.3406 16.9069 14.2844C16.9147 14.2805 16.9241 14.275 16.9311 14.2719C16.9054 14.179 16.8492 14.1502 16.7672 14.1197C16.9592 14.0573 17.1785 14.0292 17.3143 14.2422H17.3978C17.3978 14.179 17.454 14.1502 17.4805 14.1197C17.6179 14.0885 17.6991 14.2422 17.8372 14.2422C18.1104 14.179 18.357 14.2102 18.602 14.179C18.4132 14.1197 18.2469 14.0885 18.0549 14.0292C17.9988 14.0292 17.9176 14.0292 17.863 13.9668C17.9465 13.877 18.1104 13.9074 18.1907 13.9371C18.2469 13.9668 18.2469 13.8161 18.2727 13.845C18.4132 13.877 18.549 13.9074 18.6582 13.9668C18.7409 14.0003 18.904 14.0573 19.0141 14.1197C18.904 13.877 18.549 13.9074 18.549 13.6928C18.5201 13.5734 18.7316 13.7755 18.8166 13.6702C18.2977 13.5469 17.781 13.5968 17.2612 13.5094C17.2332 13.479 17.2058 13.4501 17.1785 13.4197C17.3424 13.3291 17.5079 13.2659 17.6725 13.2964C17.6991 13.3291 17.7248 13.3291 17.7529 13.3572C17.863 13.3572 17.9176 13.3572 18.0292 13.3885C18.0292 13.3572 18.0292 13.3291 18.0292 13.3291C17.8372 13.2659 17.6452 13.2964 17.454 13.2659C17.3143 13.2066 17.1504 13.2964 17.0139 13.3291C16.5479 13.3572 16.0828 13.2659 15.6161 13.2964C15.3984 13.2964 15.1791 13.2659 14.9325 13.2964C14.7405 13.3572 14.5219 13.2964 14.3284 13.2964C14.1645 13.2659 13.9733 13.2964 13.8086 13.3291C13.6728 13.3291 13.5339 13.3291 13.4262 13.2659C13.3966 13.2363 13.4262 13.2066 13.452 13.2066C13.8086 13.145 14.138 13.2363 14.4658 13.2066C14.3284 13.0833 14.138 13.145 13.9733 13.113C13.9452 13.113 13.9179 13.0529 13.8906 13.0224C14.0006 12.9608 14.138 12.9928 14.2449 12.9928C14.2746 12.9928 14.2746 13.0224 14.2746 13.0529H14.7943L14.7662 13.0224C15.1237 12.9335 15.4788 12.9928 15.8354 12.9335C15.5888 12.8398 15.2868 12.9608 15.0417 12.8695C15.1237 12.8094 15.2056 12.8094 15.2868 12.8398C15.2602 12.7789 15.1502 12.8094 15.1237 12.7485C15.3695 12.6572 15.6161 12.7188 15.8635 12.6884C15.8635 12.626 15.8081 12.5651 15.8635 12.5058C15.8893 12.5651 15.9462 12.5955 15.972 12.5955C16.1382 12.5651 16.2732 12.5354 16.3848 12.6884C16.3005 12.7485 16.2202 12.7485 16.1382 12.7485C16.2202 12.8695 16.3567 12.7485 16.466 12.7789C16.4925 12.7789 16.4925 12.8094 16.4925 12.8398C16.6572 12.8398 16.8492 12.8695 17.0139 12.7789C17.0412 12.7789 17.0966 12.9007 17.1504 12.8094C16.9865 12.7188 16.7946 12.7485 16.6572 12.6572C16.5198 12.5651 16.3567 12.4441 16.2202 12.3216C16.2732 12.2607 16.3848 12.2607 16.4395 12.3216C16.5198 12.3833 16.5768 12.3833 16.6572 12.4137C16.7118 12.4441 16.6861 12.3216 16.7399 12.3216C16.8492 12.292 16.9865 12.292 17.0966 12.3513C17.2612 12.4441 17.4259 12.4137 17.6179 12.4441C17.6452 12.4441 17.6452 12.4137 17.6725 12.3833C17.6725 12.4176 17.6998 12.4129 17.7225 12.4137C17.5625 12.2779 17.3604 12.4067 17.2058 12.292C17.1504 12.2311 17.0966 12.1991 17.0139 12.1382C17.1239 12.0789 17.2332 12.1086 17.3143 12.1991C17.3143 12.1694 17.3143 12.1086 17.3424 12.1086C17.3978 12.1086 17.454 12.1991 17.5079 12.1694C17.4259 12.0492 17.2886 12.1086 17.1785 12.0172C16.9865 11.9259 16.7399 11.986 16.5479 11.8947C16.5479 11.8651 16.5768 11.8651 16.6026 11.8651C16.6299 11.8354 16.6026 11.805 16.5768 11.805C16.3848 11.805 16.1928 11.805 16.0282 11.684C16.1928 11.5919 16.3848 11.6216 16.5479 11.684C16.6026 11.7129 16.6861 11.7738 16.7672 11.805C16.7946 11.805 16.8765 11.8354 16.8765 11.7738C16.8492 11.7441 16.8219 11.684 16.7672 11.652C16.8492 11.5623 16.9592 11.7441 17.0412 11.652C17.0139 11.6216 17.0139 11.5919 17.0139 11.5623C17.1504 11.4686 17.3689 11.652 17.454 11.5623C17.589 11.4382 17.6725 11.5919 17.8099 11.5623C17.6928 11.4686 17.5672 11.4226 17.4392 11.3874C17.2612 11.3406 17.0778 11.3133 16.9054 11.2243C16.9311 11.165 16.9865 11.165 17.0412 11.165C16.9592 11.0737 16.8492 11.0737 16.7399 11.0121C16.8765 10.9832 17.0139 10.9832 17.1504 11.0121C17.2612 11.0425 17.3689 11.1026 17.4805 11.1346C17.5336 11.165 17.589 11.1955 17.6179 11.2555C17.5336 11.0737 17.4259 10.9832 17.2612 10.9215C17.2332 10.8887 17.2612 10.8591 17.2886 10.8591C17.3424 10.8279 17.3978 10.8887 17.454 10.9215C17.4805 10.9215 17.5079 10.8887 17.4805 10.8591C17.454 10.8591 17.4259 10.8279 17.4259 10.8279C17.5336 10.7085 17.6452 10.8279 17.7529 10.8279C17.7818 10.8279 17.8099 10.8887 17.8372 10.9215C17.8372 10.8887 17.8372 10.8591 17.863 10.8279C17.5625 10.7085 17.2612 10.5555 16.9592 10.5251C16.7118 10.4939 16.466 10.4939 16.2202 10.4939C15.7269 10.4642 15.2337 10.4939 14.7405 10.4338C15.0144 10.2808 15.3437 10.4642 15.6161 10.3432C15.5888 10.2808 15.5053 10.3112 15.4788 10.2504C15.6707 10.1278 15.9181 10.3432 16.0828 10.2207C15.8354 10.1278 15.563 10.159 15.3141 10.0685C15.3601 10.0069 15.4132 9.99438 15.4702 9.99672C15.4382 9.96394 15.3781 9.90853 15.4514 9.8539C15.5349 9.82346 15.645 9.88434 15.7269 9.8539C15.4514 9.79381 15.1502 9.79381 14.959 9.55031C15.3141 9.39735 15.6973 9.45666 16.0828 9.39735C16.2732 9.3357 16.466 9.3357 16.6572 9.39735C16.7118 9.42701 16.7672 9.45666 16.7946 9.51988C16.8492 9.42701 16.7672 9.42701 16.7399 9.39735C16.6026 9.2756 16.4395 9.2756 16.2732 9.21395C16.1663 9.18429 16.0555 9.18429 15.9462 9.15464C15.6161 9.03289 15.2868 9.15464 14.9325 9.09299C14.877 9.06333 14.7943 9.12264 14.7124 9.12264C14.7405 9.1843 14.8497 9.12264 14.8224 9.18429C14.7405 9.3357 14.5493 9.21395 14.3846 9.24361C14.0826 9.30604 13.7813 9.21395 13.4809 9.15464C13.6986 9.03289 13.9452 9.15464 14.1926 9.12264C14.1645 9.09299 14.2449 9.06333 14.1926 9.03289C14.3284 8.9408 14.4384 9.12264 14.575 9.06333C14.6023 9.03289 14.5219 8.97202 14.5493 8.9088C14.575 8.84793 14.6296 8.9088 14.6835 8.87915V8.81984C14.9044 8.66609 15.0963 8.81984 15.3141 8.9088C15.2056 8.81984 15.069 8.78862 14.9871 8.66609C14.959 8.60678 15.0144 8.57634 15.0417 8.57634C15.2602 8.57634 15.4788 8.57634 15.6707 8.66609C15.4514 8.45382 15.1237 8.45382 14.8224 8.45382C14.3846 8.48347 13.9179 8.57634 13.4809 8.48347C12.8206 8.39138 12.2173 8.33129 11.5618 8.17989C11.5345 8.14867 11.4775 8.11745 11.4775 8.08702C11.4775 7.96605 11.6164 8.08701 11.6437 7.99414L11.6164 7.96605C11.6726 7.9044 11.753 7.9044 11.8084 7.96605C11.8357 7.99414 11.8084 8.02614 11.7795 8.02614C11.753 8.02614 11.7265 8.02614 11.7265 8.02614C11.6991 8.14867 11.8357 8.08702 11.8638 8.08702C12.0558 8.11745 12.2735 8.08701 12.4655 8.05658C12.7121 7.99414 12.9588 8.14867 13.2046 8.17989C13.1781 8.14867 13.0961 8.14867 13.1226 8.08702C13.2046 7.96605 13.37 8.05658 13.4809 8.05658C13.6986 8.05658 13.9179 8.11745 14.1645 8.20798C14.2184 8.20798 14.2746 8.26963 14.3284 8.24076C14.4103 8.24076 14.3026 8.20798 14.3026 8.17989C14.0006 7.99414 13.6728 8.05658 13.3966 7.8443C13.37 7.81386 13.3966 7.78265 13.4262 7.78265C13.4809 7.75143 13.5066 7.8443 13.5612 7.81387C13.3162 7.53759 12.9041 7.81387 12.6013 7.62968C12.6575 7.53759 12.6013 7.44784 12.6318 7.38619C12.6575 7.2941 12.7933 7.35653 12.9041 7.35653C12.9322 7.38619 12.9588 7.38619 12.9853 7.38619C13.1781 7.41741 13.3419 7.50794 13.5066 7.56959C13.5612 7.60003 13.4809 7.53759 13.4809 7.50794C13.4809 7.4775 13.5066 7.44784 13.5339 7.44784C13.5893 7.44784 13.6455 7.4775 13.6455 7.53759C13.7532 7.50794 13.8648 7.50794 13.9452 7.53759C14.0264 7.60003 14.0826 7.72099 14.1926 7.72099C14.1645 7.62968 14.0826 7.60003 14.0264 7.53759C14.0006 7.50794 14.0264 7.4775 14.0537 7.4775H14.1926C14.1099 7.4775 14.0537 7.44784 14.0006 7.44784C13.8352 7.41741 13.7251 7.2941 13.5893 7.23401C13.6167 7.17392 13.6986 7.20513 13.7532 7.17392C13.5893 7.05061 13.3419 7.17392 13.1781 7.02095C13.3419 6.92964 13.4809 6.92964 13.6455 6.95852C13.452 6.89921 13.2873 6.92964 13.0961 6.92964C13.0157 6.95852 12.9322 6.92964 12.8768 6.83833C12.8495 6.77746 12.9853 6.8079 12.9322 6.7478C12.8206 6.68537 12.6848 6.77746 12.5483 6.71502L12.574 6.68537C12.439 6.5644 12.3009 6.62528 12.1643 6.65649C12.2478 6.71502 12.1362 6.71502 12.1362 6.7478C11.9442 6.7478 11.753 6.8079 11.5618 6.8079C11.3698 6.83833 11.1505 6.89921 10.9874 6.92964C10.8766 6.92964 10.7946 6.77746 10.6565 6.7478C10.6854 6.68537 10.7681 6.71502 10.8219 6.71502C11.0412 6.68537 11.2879 6.77746 11.5072 6.71502C11.5618 6.71502 11.6991 6.8079 11.7265 6.65649C11.6726 6.65649 11.6164 6.68537 11.5899 6.62528C11.7795 6.53397 11.9739 6.62528 12.1643 6.53397C12.0558 6.53397 11.9739 6.44266 11.8896 6.41222C11.9739 6.2616 12.0831 6.381 12.1643 6.44266C12.2173 6.47387 12.2478 6.381 12.3009 6.41222C12.439 6.53397 12.6013 6.62527 12.7675 6.5644C12.6013 6.50431 12.439 6.47387 12.3282 6.32091C12.5483 6.2616 12.7675 6.32091 12.9588 6.41222C12.8495 6.29047 12.7121 6.22882 12.5483 6.19916C11.9184 6.13673 11.3144 6.07742 10.7111 6.13673C10.6565 6.13673 10.4934 6.2616 10.4661 6.16873C10.4388 6.01498 10.6565 6.10629 10.7384 6.01498C10.63 5.92601 10.4934 6.07742 10.4388 5.95567C10.7111 5.83392 11.0132 5.95567 11.3144 6.01498C11.2879 5.89323 11.1505 5.98454 11.1224 5.89323C11.1224 5.86358 11.1505 5.83392 11.1778 5.83392C11.3144 5.83392 11.4775 5.92601 11.5899 5.89323C11.753 5.83392 11.9442 5.92601 12.1089 5.92601C11.9988 5.80349 11.8638 5.80349 11.753 5.77227C11.5072 5.68018 11.2332 5.74261 10.9874 5.59043L11.0132 5.55843C10.9874 5.55843 10.9601 5.52721 10.9601 5.52721C11.1505 5.31494 11.3987 5.55843 11.5899 5.52721C11.5345 5.52721 11.5072 5.49912 11.4775 5.46712C11.5618 5.40625 11.6437 5.46712 11.7265 5.43747C11.2332 5.31494 10.7384 5.31494 10.2202 5.22363C10.164 5.22363 10.1921 5.16275 10.1921 5.13388C10.3833 4.9497 10.63 5.13388 10.85 5.04023C10.5753 5.01057 10.2725 4.98482 9.99938 5.01057C9.75198 5.0332 9.50459 5.05662 9.25875 5.04023H9.26031C9.26031 5.07144 9.36957 5.10188 9.28685 5.13388C9.15027 5.16275 9.0137 5.13388 8.87712 5.19319C8.98638 5.22363 9.12452 5.16276 9.23222 5.22363C8.98638 5.37737 8.65704 5.28372 8.43774 5.46712C8.38389 5.52721 8.24498 5.46712 8.16381 5.49912C7.99992 5.59043 7.77984 5.59043 7.61517 5.71296C7.83447 5.74261 8.02646 5.71296 8.24498 5.6193C8.27463 5.6193 8.30117 5.68018 8.30117 5.68018C8.49315 5.55843 8.68358 5.6193 8.90366 5.59043C8.93253 5.55843 8.98638 5.59043 8.98638 5.52721C9.0137 5.59043 9.0972 5.64974 9.0137 5.68018C8.82093 5.74261 8.65704 5.86358 8.4674 5.80349C8.38389 5.80349 8.30117 5.80349 8.21922 5.83392C8.16381 5.86358 8.10918 5.92601 8.02646 5.92601C8.05377 5.95567 7.91798 5.98454 7.99992 5.98454C8.05377 5.98454 8.08265 5.92601 8.16381 5.92601C8.21922 5.92601 8.19113 6.0462 8.24498 6.01498C8.27463 5.95567 8.3558 5.92601 8.38389 5.95567C8.62895 5.98454 8.90366 5.83392 9.12452 5.95567C9.12452 5.95567 9.06833 6.07742 9.0137 6.07742C8.74055 6.07742 8.4674 6.13673 8.21922 6.16873C7.99992 6.16873 7.75409 6.2616 7.50591 6.16873C7.36934 6.13673 7.26086 6.16873 7.15082 6.2616C7.26086 6.29047 7.36934 6.22882 7.45284 6.29047C7.3428 6.41222 7.17813 6.41222 7.04078 6.50431C6.98615 6.5644 6.90498 6.59328 6.84879 6.68537C7.17813 6.53397 7.53479 6.47387 7.86413 6.35135C7.91798 6.32091 7.94607 6.47387 7.86413 6.50431C7.81808 6.50431 7.77204 6.56518 7.72677 6.57065C7.82745 6.58469 7.92734 6.53631 8.02646 6.5644C8.08265 6.5644 8.19113 6.5644 8.21922 6.50431C8.21922 6.47387 8.13572 6.44266 8.10918 6.41222C8.27463 6.29047 8.65704 6.22882 8.62895 6.53397C8.62895 6.59328 8.54856 6.5644 8.52047 6.5644C8.4674 6.53396 8.52047 6.47387 8.49315 6.44266C8.43774 6.41222 8.38389 6.50431 8.32848 6.47387C8.32848 6.5644 8.49315 6.50431 8.4674 6.62528C8.43774 6.65649 8.40965 6.71502 8.38389 6.71502C8.05377 6.65649 7.77984 6.80789 7.47938 6.77746C7.36934 6.77746 7.17813 6.71502 7.09541 6.8079C7.15082 6.8079 7.2312 6.8079 7.26086 6.86955C7.26086 6.92964 7.15082 6.92964 7.12194 6.9913C7.15082 6.9913 7.17813 6.9913 7.20467 7.02095C7.26086 6.95852 7.3428 6.95852 7.39743 6.95852C7.83447 6.89921 8.27463 6.83833 8.71245 6.83833C8.7944 6.83833 8.98638 6.80789 8.98638 6.8992C8.95829 7.05061 8.74055 6.95852 8.57432 6.9913C8.52047 7.02095 8.4674 7.11382 8.43774 7.11382C8.24498 7.17392 8.08265 7.05061 7.89144 7.08261C7.89144 7.11382 7.89144 7.1427 7.86413 7.1427H7.47938L7.50591 7.17392C7.47938 7.23401 7.39743 7.20513 7.3428 7.20513C7.12194 7.11382 6.90498 7.02095 6.65681 7.08261C6.71222 7.08261 6.79494 7.05061 6.84879 7.08261C6.90498 7.11382 6.93074 7.1427 6.98615 7.1427C7.04078 7.17392 6.98615 7.2941 6.95805 7.2941C6.74031 7.23401 6.54677 7.23401 6.35634 7.26444C6.41097 7.35654 6.52023 7.23401 6.54677 7.3261C6.54677 7.44784 6.41097 7.3261 6.3821 7.41741C6.22055 7.3261 6.0551 7.50794 5.86389 7.4775C6.02856 7.56959 6.19323 7.44784 6.3821 7.50794C6.43829 7.50794 6.49214 7.4775 6.54677 7.44784C6.79494 7.41741 7.04078 7.41741 7.28739 7.50794C7.28739 7.50794 7.28739 7.56959 7.26086 7.56959H7.04078C7.0119 7.56959 7.0119 7.62968 7.0119 7.62968C7.17813 7.69134 7.3428 7.53759 7.50591 7.69134C7.47938 7.72099 7.45284 7.78265 7.39743 7.75143C7.28739 7.72099 7.17813 7.75143 7.06809 7.72099C7.06809 7.78265 6.98615 7.75143 7.0119 7.78265C7.09541 7.8443 7.20467 7.81387 7.28739 7.81387C7.28739 7.8443 7.39743 7.8443 7.31471 7.90439C7.3069 7.91376 7.29676 7.91688 7.28739 7.91922C7.39119 7.96059 7.51528 7.94029 7.61517 7.99414C7.64483 8.02614 7.61517 8.05658 7.58786 8.05658H7.47938C7.53479 8.14867 7.67136 8.02614 7.69946 8.14867C7.69946 8.17989 7.67136 8.20798 7.64483 8.20798C7.3428 8.20798 7.04078 8.24076 6.76607 8.05658C6.74031 8.02614 6.76607 7.99414 6.79494 7.99414C6.95805 7.96605 7.06809 8.08702 7.2312 8.08702C7.06809 7.96605 6.82148 8.02614 6.65681 7.87474C6.71222 7.81387 6.76607 7.81387 6.84879 7.81387C6.68412 7.72099 6.54677 7.8443 6.3821 7.81387C6.30171 7.78265 6.2463 7.72099 6.16358 7.75143V7.81387C5.94506 7.90439 5.72498 7.90439 5.50646 7.99414C5.69766 8.02614 5.86389 7.90439 6.0551 7.99414C6.02856 8.05658 5.91696 8.02614 5.91696 8.11745C6.0551 8.11745 6.16358 8.08701 6.30171 8.14867C5.97237 8.26963 5.5884 8.20798 5.26062 8.39138C5.47992 8.33129 5.67191 8.30007 5.89043 8.33129C5.94506 8.33129 5.91696 8.4226 5.94506 8.4226C6.22055 8.33129 6.43829 8.4226 6.68412 8.48347C6.71222 8.51469 6.74031 8.54356 6.76607 8.57634C6.63027 8.63565 6.46482 8.54356 6.32825 8.54356C5.94506 8.48347 5.61728 8.63565 5.26062 8.78862C5.47992 8.72696 5.72498 8.63566 5.97237 8.66609C6.00047 8.66609 6.0551 8.7574 6.08007 8.72696C6.27284 8.72696 6.46482 8.78862 6.65681 8.7574C6.90498 8.69731 7.12194 8.69731 7.36934 8.78862C7.26086 8.84793 7.12194 8.78862 7.0119 8.81984C7.0119 8.81984 7.0119 8.87915 7.04078 8.87915C6.68412 9.06333 6.32825 8.87915 5.94506 8.9408C5.78195 9.00011 5.64303 9.03289 5.47992 9.03289C5.72498 9.06333 6.00047 8.9088 6.22055 9.03289C6.35634 9.12264 6.57408 9.09299 6.76607 9.09299C6.79494 9.09299 6.79494 9.12264 6.79494 9.15464C6.90498 9.15464 6.90498 9.21395 6.93074 9.30604C6.65681 9.36613 6.41097 9.21395 6.13704 9.21395C6.11051 9.21395 6.11051 9.27561 6.11051 9.27561C6.22055 9.30604 6.32825 9.24361 6.41097 9.3357C6.35634 9.39735 6.32825 9.4871 6.27284 9.51988C6.08007 9.55031 5.91696 9.45666 5.72498 9.55031C5.86389 9.55031 6.02856 9.51988 6.0551 9.64163C6.08007 9.70094 5.97237 9.64162 5.94506 9.70094C5.78195 9.61197 5.61728 9.73137 5.45261 9.73137C5.53299 9.79381 5.61728 9.70094 5.69766 9.73137C5.72498 9.73137 5.72498 9.76337 5.72498 9.79381C5.69766 9.82346 5.69766 9.8539 5.67191 9.8539C5.5884 9.8539 5.50646 9.88434 5.42529 9.88434C5.20521 9.91399 4.95938 9.88434 4.74086 9.88434C4.74086 9.94443 4.65657 9.91399 4.68389 9.94443C4.79471 9.97643 4.93128 9.8539 5.04054 9.94443C4.87587 10.099 4.65657 9.94443 4.4919 10.0365C4.41152 10.099 4.29992 10.1278 4.24685 10.2207C4.46459 10.191 4.65657 10.0685 4.87587 10.1278C4.87587 10.191 4.79471 10.191 4.79471 10.2207C4.84856 10.2504 4.95938 10.191 5.01323 10.2504C4.87587 10.3713 4.68389 10.3713 4.54887 10.4642C4.63082 10.4939 4.74086 10.4033 4.7112 10.4642C4.63082 10.6156 4.41152 10.6765 4.27416 10.7998C4.3842 10.7678 4.4919 10.7366 4.60428 10.7085C4.76739 10.6765 4.95938 10.5867 5.1498 10.6156C5.23253 10.6476 5.20521 10.7366 5.1498 10.7678C4.90397 10.7678 4.68389 10.7998 4.43883 10.8591C4.32879 10.8887 4.19144 10.9832 4.10949 11.1026C4.27416 11.0121 4.43883 10.8591 4.63082 10.9215C4.68389 10.9215 4.79471 10.9215 4.82124 10.9832C4.82124 11.0425 4.68389 11.1346 4.7112 11.1346C4.87587 11.1955 5.06864 11.0737 5.23253 11.165C5.10766 11.2758 4.86963 11.2353 4.76583 11.3874C4.75569 11.4023 4.74632 11.4194 4.74086 11.4382C4.79081 11.4194 4.84231 11.4007 4.89304 11.3874C4.92504 11.3828 4.95548 11.3781 4.98591 11.3781C5.36988 11.3484 5.72498 11.1955 6.11051 11.2868C6.00047 11.332 5.89043 11.364 5.77961 11.3874C5.2575 11.5029 4.72369 11.4194 4.20549 11.5357C4.3007 11.5326 4.3842 11.5833 4.46459 11.652C4.29992 11.7441 4.10949 11.6216 3.97292 11.7129C3.86288 11.7738 3.69977 11.7441 3.61548 11.8947C3.78015 11.8651 3.97292 11.684 4.05486 11.8651C4.08062 11.9579 3.83478 11.8651 3.89097 12.0172C3.89097 12.0492 4.05486 11.9579 4.10949 12.0492C4.10949 12.0789 4.02833 12.0492 4.02833 12.1086C4.24685 12.1382 4.46459 12.0492 4.65657 12.1382C4.4919 12.2311 4.29992 12.1694 4.13759 12.1991V12.2607C4.16412 12.292 4.24685 12.2607 4.21953 12.292C4.16412 12.3833 3.99945 12.3216 3.91595 12.4137C4.02833 12.4137 4.10949 12.4137 4.21953 12.4738C4.27416 12.5354 4.43883 12.4137 4.46459 12.5058C4.4919 12.6572 4.27416 12.626 4.16412 12.626C3.86288 12.626 3.56085 12.626 3.25883 12.6572C3.25883 12.6572 3.25883 12.6884 3.25883 12.7188C3.36965 12.6884 3.47813 12.6572 3.58817 12.7188C3.34311 12.9007 3.04265 12.8094 2.7656 12.9335C2.93105 12.9335 3.0965 12.9335 3.25883 13.0224C3.0965 13.1762 2.87642 13.0833 2.68443 13.145C3.06684 13.2066 3.47813 13.0833 3.86288 13.1762C3.86288 13.2363 3.80747 13.2066 3.78015 13.2363C3.67089 13.2659 3.56085 13.2066 3.45081 13.2659C3.36965 13.2964 3.2877 13.3291 3.20498 13.3291C3.17688 13.3572 3.14957 13.3885 3.0965 13.3885C3.25883 13.4501 3.39618 13.2659 3.56085 13.3291C3.6428 13.3885 3.78015 13.3291 3.75284 13.4197C3.75284 13.479 3.61548 13.4501 3.56085 13.5726C3.6428 13.5726 3.75284 13.5422 3.80747 13.6319C3.58817 13.7529 3.36965 13.7529 3.14957 13.7225C2.90373 13.6624 2.62902 13.6928 2.38319 13.7225C2.46435 13.7529 2.54864 13.7225 2.60171 13.8161C2.49323 13.9074 2.35509 13.9668 2.21774 14.0292C2.30046 14.0292 2.35509 14.0003 2.40972 13.9668C2.43704 13.9668 2.49323 14.0292 2.54864 14.0003C2.54864 13.9668 2.54864 13.9371 2.57439 13.9371C2.68443 13.9371 2.79369 13.9074 2.87642 13.9668C2.82179 14.0292 2.71175 13.9371 2.68443 14.0573C2.87642 14.0885 3.14957 13.9371 3.31502 14.0885C3.15659 14.1837 2.98178 14.2368 2.80462 14.2844C2.52289 14.3601 2.23569 14.4217 2 14.6067C2.08194 14.6067 2.21774 14.5763 2.27471 14.5763C2.65868 14.5154 3.01299 14.4569 3.39618 14.4857C3.47813 14.4857 3.6428 14.4569 3.61548 14.5763C3.56085 14.7597 3.36965 14.8205 3.14957 14.8205C3.14957 14.8205 3.14957 14.8799 3.17688 14.8799C3.2877 14.851 3.39618 14.8799 3.47813 14.8205C3.56085 14.7893 3.6428 14.7597 3.7263 14.6972C3.80747 14.6676 3.89097 14.6371 3.97292 14.6676C3.99945 14.6972 3.99945 14.7292 3.99945 14.7597C3.83478 14.9438 3.61548 14.9438 3.39618 15.0032C3.56085 15.0633 3.7263 14.9438 3.91595 14.9438C4.08062 14.9727 4.21953 14.851 4.41152 14.8799C4.3842 14.8205 4.27416 14.851 4.29992 14.7893C4.35611 14.6972 4.54887 14.4569 4.63082 14.5763C4.68389 14.6371 4.51922 14.6972 4.54887 14.6972C4.74086 14.9134 4.93128 14.5466 5.1779 14.6371C5.1779 14.6067 5.1779 14.5763 5.1779 14.5763C5.09595 14.5466 5.01323 14.6067 4.93128 14.5466C5.12249 14.4241 5.36988 14.4241 5.56187 14.3023C5.57592 14.3023 5.55641 14.2953 5.53299 14.2844C5.50802 14.2719 5.47992 14.2571 5.47992 14.2422C5.47992 14.1197 5.5884 14.1502 5.64303 14.1502C6.00047 14.0573 6.35634 13.9074 6.68412 14.0573C6.49214 14.1197 6.32825 14.179 6.13704 14.1502C6.22055 14.2719 6.41097 14.0573 6.43829 14.2422C6.44219 14.2547 6.44219 14.2696 6.44141 14.2844C6.43126 14.3499 6.34386 14.3897 6.27284 14.364C6.30171 14.5154 6.46482 14.364 6.43829 14.4569C6.43829 14.4857 6.3821 14.5763 6.35634 14.5763C6.22055 14.6371 6.0551 14.5466 5.91696 14.5763C5.72498 14.6371 5.53299 14.5466 5.34179 14.6676C5.31447 14.6972 5.34179 14.7292 5.36988 14.7292C5.23253 14.8205 5.06864 14.7292 4.95938 14.8799H4.87587C5.06864 14.9134 5.23253 14.851 5.42529 14.8799L5.3972 14.9134L5.42529 14.9438C5.34179 14.9727 5.28638 15.0633 5.20521 15.0929C5.04054 15.1241 4.87587 15.0344 4.7112 15.1561C4.84856 15.1866 4.98591 15.1241 5.12249 15.1866C5.04054 15.2459 4.93128 15.2162 4.84856 15.2459C4.84856 15.2771 4.84856 15.3083 4.87587 15.3083C5.06864 15.3083 5.28638 15.2771 5.47992 15.3372C5.34179 15.4301 5.1779 15.5206 5.04054 15.5807C5.04054 15.5807 5.01323 15.5206 4.98591 15.5206C4.87587 15.5206 4.79471 15.4597 4.68389 15.4301C4.54887 15.4004 4.41152 15.4597 4.27416 15.4909C4.29992 15.4909 4.35611 15.4909 4.35611 15.5206C4.32879 15.5807 4.24685 15.5518 4.19144 15.5518C3.99945 15.4301 3.78015 15.4909 3.58817 15.4004C3.39618 15.3083 3.17688 15.2771 2.98646 15.3676C2.98646 15.3676 2.8491 15.3676 2.90373 15.4004C3.0965 15.4597 3.34311 15.3372 3.50778 15.4597C3.2877 15.6735 2.9568 15.6142 2.7656 15.8257C3.12303 15.7024 3.47813 15.6431 3.83478 15.6431C3.97292 15.6431 4.13759 15.5807 4.27416 15.7024C3.97292 15.7649 3.7263 15.917 3.42428 16.0083C3.39618 16.0388 3.39618 16.0997 3.34311 16.1301C3.06684 16.2206 2.82179 16.3439 2.60171 16.4953C2.73906 16.5273 2.87642 16.4056 3.01299 16.4056C3.17688 16.4056 3.42428 16.1605 3.58817 16.3143C3.4953 16.4438 3.30019 16.4626 3.212 16.6007C3.19639 16.621 3.18547 16.6483 3.17688 16.6787C3.19327 16.6428 3.21591 16.621 3.24478 16.6007C3.26741 16.5827 3.29161 16.571 3.31502 16.5578C3.45081 16.5273 3.56085 16.4953 3.67089 16.4056C3.7263 16.3744 3.80747 16.436 3.86288 16.4056C3.94482 16.3439 4.02833 16.3143 4.10949 16.2823C4.13759 16.2823 4.13759 16.3143 4.13759 16.3439C4.10949 16.4056 4.02833 16.4056 3.99945 16.4649C4.08062 16.5273 4.16412 16.4056 4.24685 16.4056C4.3842 16.4056 4.4919 16.2206 4.60428 16.1902C4.84856 16.0997 5.09595 16.0997 5.34179 16.0388C5.42529 16.0388 5.50646 15.9787 5.5884 15.9467C5.89043 15.8874 6.16358 15.8569 6.46482 15.7945C6.60374 15.7649 6.74031 15.7024 6.87689 15.7945C6.54677 15.9467 6.19323 16.0083 5.83502 16.0083C5.75307 16.0388 5.69766 16.1605 5.5884 16.1902C5.23253 16.2518 4.90397 16.2518 4.57619 16.4056C4.74086 16.4953 4.93128 16.3143 5.09595 16.436C5.09595 16.4649 5.09595 16.5273 5.06864 16.5273C4.94767 16.5656 4.83841 16.5788 4.72369 16.6007C4.65657 16.6124 4.59024 16.6257 4.51922 16.6483C4.65657 16.6179 4.82124 16.5578 4.95938 16.6483C4.90397 16.6787 4.87587 16.7388 4.84856 16.8013C4.84856 16.8309 4.90397 16.8309 4.93128 16.8309C4.98591 16.8013 4.98591 16.7388 5.04054 16.7084C5.1498 16.6483 5.26062 16.6483 5.36988 16.6483C5.3972 16.6483 5.42529 16.7084 5.42529 16.7716C5.52129 16.7357 5.60791 16.6561 5.7 16.6007C5.7679 16.5578 5.83892 16.5273 5.91696 16.5273C6.22055 16.4953 6.49214 16.4649 6.79494 16.436C6.63027 16.4056 6.49214 16.4649 6.32825 16.4056C6.60374 16.2518 6.90498 16.2518 7.20467 16.1605C7.26008 16.1605 7.3428 16.1301 7.31471 16.1902C7.28739 16.3143 7.09541 16.1902 7.0119 16.3439C7.12194 16.4056 7.2312 16.3439 7.3428 16.3744C7.36934 16.3744 7.36934 16.3143 7.39743 16.3143C7.69946 16.2823 8.05377 16.1902 8.30117 16.3744C8.05377 16.4649 7.77984 16.3143 7.53479 16.3744C7.33968 16.4407 7.15784 16.5063 6.94088 16.6007H6.88079C6.83396 16.6155 6.78948 16.6335 6.74031 16.6483H6.54677C6.30171 16.6483 6.0551 16.6483 5.80848 16.7388C5.80848 16.7388 5.80848 16.8013 5.83502 16.8013C5.56187 16.8926 5.26062 17.044 4.98591 17.0736C4.79471 17.0736 4.60428 17.2578 4.3842 17.3179C4.51922 17.4108 4.63082 17.2578 4.79471 17.1954C4.82124 17.1954 4.84856 17.1954 4.87587 17.2274C4.90397 17.3179 4.87587 17.3796 4.82124 17.4412C4.79471 17.5013 4.84856 17.531 4.87587 17.563C4.93128 17.4412 5.06864 17.3179 5.1779 17.4412C5.20521 17.4709 5.1779 17.531 5.1779 17.563C5.28638 17.4108 5.45261 17.2875 5.61728 17.2875C5.67191 17.2875 5.67191 17.3796 5.61728 17.4108C5.75307 17.4108 5.86389 17.3179 5.97237 17.2274C6.0551 17.1954 6.13704 17.2875 6.22055 17.2274C6.41097 17.1353 6.60374 17.044 6.8207 17.0143C6.84879 17.0143 6.84879 17.044 6.84879 17.0736C6.93074 17.044 7.0119 17.0143 7.09541 17.0143C7.12194 16.9847 7.17813 17.0143 7.17813 16.9519C7.17813 16.9847 7.28739 16.9847 7.20467 17.044C7.47938 17.0736 7.75409 16.9847 8.02646 16.9847C7.91798 16.8926 7.77984 17.0143 7.69946 16.8926C7.69946 16.8621 7.69946 16.8309 7.72521 16.8309C8.0007 16.8309 8.30117 16.8621 8.57432 16.8309C8.43774 16.7084 8.24498 16.8309 8.08265 16.8013C8.05377 16.8013 8.05377 16.7716 8.02646 16.7388C8.07094 16.7084 8.11855 16.6834 8.16381 16.6616C8.48379 16.5359 8.90054 16.5484 9.17759 16.5273C9.21114 16.5273 9.21427 16.5617 9.21114 16.6007C9.2088 16.6257 9.2049 16.6545 9.2049 16.6787C9.12452 16.9519 9.04023 17.2274 8.93253 17.4709C8.7944 17.7448 8.60319 17.9883 8.3558 18.1717C8.02646 18.3855 7.68385 18.5424 7.28739 18.5978C7.22418 18.6064 7.15238 18.615 7.0759 18.6204C5.34179 18.6392 5.24658 18.6548 5.01167 18.6595C4.73696 18.6634 3.87615 18.7164 3.52417 18.7679C3.52417 18.7679 3.19874 18.7945 3.2042 18.8507H3.20888C3.12225 18.8647 3.03016 18.8873 3.03172 18.9154L15.5857 18.9092H22L15.7566 18.5252Z" fill="#007456"/>
</svg>
