<svg width="48" height="48" viewBox="0 0 48 48" fill="none" xmlns="http://www.w3.org/2000/svg">
<path d="M33.9195 37.7302C33.9195 37.7302 33.8695 37.7302 33.8395 37.7302C33.8295 37.7302 33.8095 37.7302 33.7995 37.7302C30.2695 37.6802 26.9095 35.9702 24.8095 33.1302C24.4995 32.7502 24.2895 32.2901 24.1995 31.8001C21.9295 35.0602 18.9795 37.7402 14.0995 37.7402C7.29953 37.7402 1.76953 32.5202 1.76953 26.1102C1.76953 19.5702 6.88953 14.2902 13.4195 14.0802C13.5395 14.0602 13.6595 14.0502 13.7895 14.0502C14.5195 14.0502 15.2195 14.1202 15.9095 14.2702L15.8695 14.1302C15.4495 12.4602 16.4695 10.7602 18.1395 10.3402C18.9495 10.1402 19.7895 10.2602 20.5095 10.6902C21.2295 11.1202 21.7295 11.8002 21.9395 12.6102L23.3695 21.1202C25.7695 17.4402 28.9495 14.0702 34.2195 14.0702C40.8595 14.0702 46.2595 19.4802 46.2695 26.1202C46.2695 32.4902 40.7995 37.6802 34.0595 37.7502C34.0195 37.7502 33.9795 37.7502 33.9395 37.7502L33.9195 37.7302ZM27.2495 30.0602C26.9995 30.0602 26.7495 30.1402 26.5495 30.3102C26.3195 30.5002 26.1695 30.7702 26.1395 31.0702C26.1095 31.3701 26.1995 31.6602 26.3795 31.9002C28.1595 34.3001 30.9695 35.7201 33.9195 35.7302C39.6195 35.7302 44.2495 31.4102 44.2495 26.1002C44.2495 20.5702 39.7395 16.0602 34.1995 16.0502C28.4495 16.0502 25.6895 20.8802 23.0195 25.5402C20.2095 30.4602 18.2695 33.4702 14.0795 33.4702C9.54953 33.4702 5.99953 30.2302 5.99953 26.0902C5.99953 21.8102 9.47953 18.3202 13.7495 18.2902C13.7895 18.2902 13.8195 18.2902 13.8495 18.2902C14.7295 18.3102 15.5095 18.5002 16.2495 18.8402C16.6495 19.0202 16.8795 19.4402 16.8195 19.8702C16.7595 20.3002 16.4395 20.6502 16.0095 20.7302L13.5995 21.1702C13.0595 21.2702 12.6695 21.7302 12.6695 22.2802C12.6695 22.8702 13.1295 23.3602 13.7095 23.4002L21.4395 21.7802L19.9695 13.0002C19.9095 12.7902 19.7295 12.5402 19.4695 12.3902C19.2095 12.2302 18.9095 12.1902 18.6195 12.2602C18.3295 12.3302 18.0795 12.5202 17.9295 12.7702C17.7795 13.0302 17.7295 13.3302 17.7995 13.6202L18.2695 15.4902C18.3595 15.8602 18.2395 16.2502 17.9495 16.4902C17.6595 16.7402 17.2595 16.8002 16.9095 16.6502C15.9195 16.2302 14.8695 16.0202 13.7995 16.0202C13.7595 16.0202 13.7195 16.0202 13.6595 16.0402C13.6095 16.0402 13.5695 16.0502 13.5195 16.0502C8.04953 16.2002 3.74953 20.6102 3.74953 26.0902C3.74953 31.4002 8.38953 35.7101 14.0795 35.7101C19.7695 35.7101 22.2895 31.3502 24.9295 26.7302C27.8695 21.6002 30.0695 18.2902 34.1995 18.2902C38.4995 18.2902 41.9895 21.7902 41.9995 26.0902C41.9995 26.2102 41.9995 26.3702 41.9995 26.5202C41.9395 28.4402 41.1295 30.2102 39.7295 31.5302C38.3395 32.8402 36.5095 33.5202 34.6195 33.4702C32.1395 33.6102 29.6895 32.5002 28.1295 30.4802C27.8995 30.2001 27.5695 30.0501 27.2395 30.0501L27.2495 30.0602ZM27.2495 28.0602C28.1595 28.0602 29.0595 28.4601 29.6795 29.2201C30.8595 30.7502 32.6595 31.5802 34.5295 31.4802C34.5695 31.4802 34.6095 31.4802 34.6395 31.4802C34.6495 31.4802 34.6695 31.4802 34.6795 31.4802C36.0395 31.5202 37.3495 31.0202 38.3595 30.0802C39.3695 29.1301 39.9495 27.8501 39.9895 26.4701C39.9895 26.3601 39.9895 26.2502 39.9895 26.1402C39.9895 22.9102 37.3795 20.3102 34.1895 20.3102C31.2295 20.3102 29.5595 22.6602 26.6995 27.6602C26.5995 27.8402 26.4995 28.0102 26.3995 28.1902C26.6695 28.1102 26.9595 28.0802 27.2395 28.0802L27.2495 28.0602ZM10.9095 21.0702C9.16953 22.0702 7.99953 23.9502 7.99953 26.1002C7.99953 29.4602 11.0895 31.4802 14.0795 31.4802C17.0695 31.4802 18.4695 29.4802 21.2795 24.5502C21.4295 24.2902 21.5795 24.0202 21.7295 23.7602L13.9895 25.3802C13.9195 25.3902 13.8495 25.4002 13.7795 25.4002C12.0595 25.4002 10.6595 24.0002 10.6595 22.2702C10.6595 21.8502 10.7495 21.4402 10.8995 21.0702H10.9095Z" fill="#323232"/>
</svg>
