<svg width="24" height="24" viewBox="0 0 24 24" fill="none" xmlns="http://www.w3.org/2000/svg">
<path fill-rule="evenodd" clip-rule="evenodd" d="M22 15.2963L21.7956 15.8177H11.4046L14.5513 18.0713C15.7437 18.9282 15.8177 21.0321 15.2223 21.852L9.28136 15.8177L2.11184 15.837L2 15.557C4.45796 14.9053 6.8419 14.1418 9.00217 13.4345L14.421 2C14.9986 3.17387 16.5442 4.30912 15.4267 6.07837L11.218 12.7265C13.7137 12.0563 14.3284 14.5143 14.9986 14.9801C15.52 15.3341 16.9352 15.2778 17.7358 15.1105C18.5741 14.9238 17.7921 14.0677 18.4993 14.0677C21.9445 14.0677 20.6226 15.5948 21.5535 15.4267C21.6838 15.4267 21.8705 15.2778 22 15.2963Z" fill="#040166"/>
</svg>
