<svg width="48" height="48" viewBox="0 0 48 48" fill="none" xmlns="http://www.w3.org/2000/svg">
<path d="M26.4696 35.4702L24.0396 34.7002C24.0396 34.7002 22.5396 37.7602 17.2696 37.7602C11.9996 37.7602 10.4996 34.7002 10.4996 34.7002L8.06956 35.4702C2.50956 37.1402 2.74956 42.0702 2.74956 42.0702H31.7896C31.7896 42.0702 32.0296 37.1502 26.4696 35.4702Z" fill="#8DE2E0"/>
<path d="M8.48984 26.7307C9.00984 28.5507 10.0298 30.1907 11.3798 31.4507V33.0107C11.3798 33.5607 11.8298 34.0107 12.3798 34.0107C12.9298 34.0107 13.3798 33.5607 13.3798 33.0107V32.9107C13.9498 33.2407 15.3998 33.9407 17.3298 33.9407C18.4698 33.9407 19.7698 33.6707 21.1498 32.9507V33.0107C21.1498 33.5607 21.5998 34.0107 22.1498 34.0107C22.6998 34.0107 23.1498 33.5607 23.1498 33.0107V31.4807C24.5498 30.1607 25.5798 28.5007 26.1498 26.6407C27.3398 26.3507 28.9398 25.2607 28.9398 21.5007C28.9398 20.5507 28.9398 18.2507 27.1098 17.6407V16.0507C27.1098 9.01074 21.9698 6.51074 17.5698 6.51074C12.5198 6.51074 7.41984 9.45074 7.41984 16.0007V17.7407C7.19984 17.8507 6.98984 18.0107 6.79984 18.2007C5.96984 19.0307 5.58984 20.4807 5.58984 21.5507C5.58984 24.4007 6.67984 26.3107 8.48984 26.7407V26.7307ZM9.41984 16.0007C9.41984 10.4707 13.8098 8.51074 17.5698 8.51074C18.9398 8.51074 22.7198 8.84074 24.3498 12.2407C23.5398 11.7207 22.5098 11.3907 21.2298 11.3907C18.6998 11.3907 17.1498 12.5407 15.6398 13.6607C14.0698 14.8207 12.4498 16.0207 9.40984 16.2407V16.0007H9.41984ZM8.20984 19.6207C8.31984 19.5107 8.38984 19.5007 8.40984 19.5007C8.66984 19.5007 8.92984 19.4007 9.11984 19.2107C9.30984 19.0207 9.40984 18.7707 9.40984 18.5007V18.2507C13.1298 18.0207 15.1598 16.5107 16.8298 15.2707C18.2498 14.2207 19.3598 13.3907 21.2298 13.3907C24.6398 13.3907 25.0698 16.7807 25.1098 17.3107V18.4907C25.1098 19.0407 25.5598 19.4907 26.1098 19.4907C26.6598 19.4907 26.9398 19.6807 26.9398 21.5007C26.9398 22.9707 26.6598 24.7207 25.3398 24.7307C24.8798 24.7307 24.4898 25.0507 24.3798 25.5007C23.9298 27.3607 22.9198 29.0107 21.5198 30.2407C21.4798 30.2707 21.4298 30.3107 21.3998 30.3507C21.1098 30.6007 20.7998 30.8407 20.4698 31.0507C17.1598 32.9907 14.3298 31.1607 14.1698 31.0507C12.1598 29.8707 10.7398 27.8807 10.2598 25.6007C10.1598 25.1407 9.75984 24.8007 9.27984 24.8007C7.73984 24.8007 7.56984 22.5107 7.56984 21.5207C7.56984 20.8007 7.84984 19.9307 8.18984 19.5907L8.20984 19.6207Z" fill="#323232"/>
<path d="M26.7696 34.5103L24.3496 33.7403C23.8896 33.6003 23.3796 33.8103 23.1596 34.2403C23.1096 34.3403 21.7896 36.7503 17.2796 36.7503C12.7696 36.7503 11.4496 34.3403 11.4096 34.2503C11.1896 33.8103 10.6796 33.5903 10.2096 33.7403L7.79956 34.5103C2.80956 36.0103 1.66956 40.1403 1.76956 42.1103C1.79956 42.6403 2.23956 43.0603 2.76956 43.0603H31.8096C32.3396 43.0603 32.7796 42.6403 32.8096 42.1103C32.9096 40.1403 31.7696 36.0103 26.7896 34.5103H26.7696ZM3.83956 41.0603C4.08956 39.7403 5.00956 37.4303 8.36956 36.4203L10.0896 35.8703C10.9496 36.9303 13.0396 38.7503 17.2596 38.7503C21.4796 38.7503 23.5696 36.9303 24.4296 35.8703L26.1496 36.4203H26.1596C29.5096 37.4303 30.4296 39.7503 30.6796 41.0603H3.83956Z" fill="#323232"/>
<path d="M40.74 17.6105V16.0205C40.74 10.8405 37.96 8.13047 34.74 7.05047C34.7 7.04047 34.67 7.01047 34.63 7.01047C34.63 7.01047 34.63 7.01047 34.62 7.01047C33.5 6.65047 32.32 6.48047 31.2 6.48047C29.18 6.48047 26.85 7.03047 25.78 7.76047C25.32 8.07047 25.2 8.69047 25.52 9.15047C25.84 9.61047 26.45 9.73047 26.91 9.42047C27.56 8.98047 29.48 8.48047 31.21 8.48047C31.67 8.48047 32.41 8.52047 33.25 8.70047C32.77 10.2705 31.42 13.5505 28.29 15.2305C27.8 15.4905 27.62 16.1005 27.88 16.5805C28.06 16.9205 28.41 17.1105 28.76 17.1105C28.92 17.1105 29.08 17.0705 29.23 16.9905C31.01 16.0305 32.3 14.6905 33.22 13.3305C33.44 15.0005 33.97 16.3705 34.84 17.4205C36.48 19.4105 38.67 19.4605 38.76 19.4605H38.77C38.95 19.4605 39.11 19.4005 39.26 19.3105C39.41 19.3905 39.57 19.4605 39.75 19.4605C40.33 19.4605 40.58 19.6505 40.58 21.4705C40.58 22.9405 40.3 24.6905 38.98 24.7005C38.52 24.7005 38.13 25.0205 38.02 25.4705C37.53 27.4805 36.69 28.9205 35.25 30.1605C35.16 30.2205 35.09 30.2805 35.02 30.3505C34.74 30.5805 34.45 30.8005 34.12 31.0105C29.17 33.3205 26.9 30.6605 26.79 30.5305C26.78 30.5105 26.76 30.5105 26.75 30.4905C26.7 30.4405 26.65 30.4005 26.59 30.3605C26.54 30.3205 26.49 30.2805 26.44 30.2605C26.39 30.2305 26.33 30.2205 26.27 30.2105C26.2 30.1905 26.14 30.1705 26.06 30.1705C26.04 30.1705 26.02 30.1605 26 30.1605C25.96 30.1605 25.92 30.1805 25.88 30.1805C25.81 30.1805 25.74 30.2005 25.67 30.2205C25.61 30.2405 25.55 30.2705 25.49 30.3105C25.45 30.3305 25.41 30.3405 25.38 30.3705C25.36 30.3805 25.36 30.4005 25.34 30.4205C25.29 30.4705 25.25 30.5205 25.21 30.5805C25.17 30.6305 25.13 30.6805 25.11 30.7305C25.08 30.7805 25.07 30.8405 25.05 30.9005C25.03 30.9705 25.01 31.0305 25.01 31.1005C25.01 31.1205 25 31.1405 25 31.1605V32.9905C25 33.5405 25.45 33.9905 26 33.9905C26.5 33.9905 26.89 33.6205 26.97 33.1505C27.8 33.5905 28.91 33.9805 30.35 33.9805C31.59 33.9805 33.07 33.6805 34.77 32.9205V33.0005C34.77 33.5505 35.22 34.0005 35.77 34.0005C36.32 34.0005 36.77 33.5505 36.77 33.0005V31.5005C38.25 30.1705 39.19 28.6205 39.78 26.6205C40.97 26.3305 42.57 25.2305 42.57 21.4905C42.57 20.5405 42.57 18.2405 40.74 17.6305V17.6105ZM36.35 16.1105C35.25 14.7405 34.87 12.4405 35.25 9.41047C37.07 10.3605 38.74 12.2505 38.74 16.0105V17.4505C38.51 17.4305 37.3 17.2905 36.35 16.1105Z" fill="#323232"/>
<path d="M32.5096 36.2002C33.9096 35.7902 34.4496 35.8302 36.6496 34.4402C37.1596 34.1202 37.7696 33.9902 38.3896 34.1802C41.1596 35.0402 45.6596 35.2002 45.8696 41.5102C45.8796 41.9402 46.0296 42.4502 44.0796 42.4402C41.7796 42.4202 37.5896 42.4702 35.2396 42.4402C34.9796 42.4402 33.8696 42.6002 33.8696 41.6402C33.8696 41.6402 33.6896 38.8902 32.1396 36.9802C31.9996 36.8102 31.9796 36.3502 32.4996 36.2002H32.5096Z" fill="#DF0000"/>
</svg>
