<svg width="24" height="24" viewBox="0 0 24 24" fill="none" xmlns="http://www.w3.org/2000/svg">
<g clip-path="url(#clip0_16335_2536)">
<path d="M23.6789 14.7568C25.2013 8.30659 21.2066 1.84354 14.7564 0.321152C8.30617 -1.20123 1.84311 2.79355 0.320729 9.24374C-1.20165 15.6939 2.79312 22.157 9.24332 23.6794C15.6935 25.2018 22.1566 21.207 23.6789 14.7568Z" fill="white"/>
<mask id="mask0_16335_2536" style="mask-type:luminance" maskUnits="userSpaceOnUse" x="-1" y="-1" width="26" height="26">
<path d="M23.6789 14.7568C25.2013 8.30659 21.2066 1.84354 14.7564 0.321152C8.30617 -1.20123 1.84311 2.79355 0.320729 9.24374C-1.20165 15.6939 2.79312 22.157 9.24332 23.6794C15.6935 25.2018 22.1566 21.207 23.6789 14.7568Z" fill="white"/>
</mask>
<g mask="url(#mask0_16335_2536)">
<path d="M30.0007 0H-5.99933V24H30.0007V0Z" fill="#FED700"/>
<path fill-rule="evenodd" clip-rule="evenodd" d="M24.6274 0H30.0007V3.58169L-0.627487 24H-5.99933V20.4183L24.6274 0Z" fill="black"/>
<path fill-rule="evenodd" clip-rule="evenodd" d="M30.0007 5.61621V23.9998H2.42316L30.0007 5.61621Z" fill="#00ADFE"/>
<path fill-rule="evenodd" clip-rule="evenodd" d="M-5.99933 0H21.5768L-5.99933 18.385V0Z" fill="#007C29"/>
</g>
</g>
<rect x="0.25" y="0.25" width="23.5" height="23.5" rx="11.75" stroke="#E5E3E1" stroke-width="0.5"/>
<defs>
<clipPath id="clip0_16335_2536">
<rect width="24" height="24" rx="12" fill="white"/>
</clipPath>
</defs>
</svg>
