<svg width="24" height="24" viewBox="0 0 24 24" fill="none" xmlns="http://www.w3.org/2000/svg">
<g clip-path="url(#clip0_16335_12454)">
<path d="M23.8449 13.9238C24.9068 7.382 20.4644 1.218 13.9226 0.156118C7.38083 -0.905765 1.21683 3.53658 0.154948 10.0784C-0.906935 16.6202 3.53541 22.7842 10.0772 23.846C16.619 24.9079 22.783 20.4656 23.8449 13.9238Z" fill="white"/>
<mask id="mask0_16335_12454" style="mask-type:luminance" maskUnits="userSpaceOnUse" x="-1" y="-1" width="26" height="26">
<path d="M23.8449 13.9238C24.9068 7.382 20.4644 1.218 13.9226 0.156118C7.38083 -0.905765 1.21683 3.53658 0.154948 10.0784C-0.906935 16.6202 3.53541 22.7842 10.0772 23.846C16.619 24.9079 22.783 20.4656 23.8449 13.9238Z" fill="white"/>
</mask>
<g mask="url(#mask0_16335_12454)">
<path d="M29.9993 0H-6.00067V24H29.9993V0Z" fill="#FF0000"/>
<path d="M29.9993 12H-6.00067V24H29.9993V12Z" fill="black"/>
<path fill-rule="evenodd" clip-rule="evenodd" d="M10.6976 7.21924L11.1029 8.47416L12.4221 8.47136L11.3544 9.24556L11.7639 10.4991L10.6976 9.72069L9.63134 10.4991L10.0408 9.24556L8.97174 8.47136L10.2909 8.47416L10.6976 7.21924Z" fill="#FED700"/>
<path fill-rule="evenodd" clip-rule="evenodd" d="M16.6494 19.1454C16.4509 18.8016 16.1798 18.4899 15.8402 18.2384C15.5216 18.0008 15.1695 17.8373 14.8075 17.7423L15.4476 16.8801L17.4934 18.3991C17.7492 18.5878 17.8023 18.9483 17.6122 19.2041C17.4236 19.4584 17.063 19.5129 16.8073 19.3228C16.7402 19.2739 16.6871 19.2124 16.6494 19.144V19.1454ZM14.6929 17.685L15.0716 17.1749L9.15618 12.7827C9.12823 12.7618 9.12264 12.7226 9.14361 12.6947C9.16457 12.6667 9.2037 12.6611 9.23165 12.6821L15.1471 17.0743L15.3455 16.806L9.43009 12.4138C8.85852 11.9904 8.47422 11.4048 8.29115 10.7676C7.58404 11.873 7.93201 13.3179 9.0388 14.0055L14.6929 17.685ZM16.4733 17.9659C16.4258 17.931 16.3587 17.9407 16.3238 17.9883C16.2888 18.0358 16.2986 18.1029 16.3461 18.1378C16.3936 18.1727 16.4607 18.1629 16.4957 18.1154C16.5306 18.0679 16.5208 18.0008 16.4733 17.9659ZM16.968 18.3334C16.9205 18.2985 16.8534 18.3083 16.8185 18.3558C16.7835 18.4033 16.7933 18.4704 16.8408 18.5053C16.8883 18.5403 16.9554 18.5305 16.9904 18.483C17.0253 18.4354 17.0155 18.3684 16.968 18.3334ZM15.9786 17.5998C15.9311 17.5648 15.864 17.5746 15.8291 17.6221C15.7941 17.6696 15.8039 17.7367 15.8514 17.7717C15.8989 17.8066 15.966 17.7968 16.0009 17.7493C16.0359 17.7018 16.0261 17.6347 15.9786 17.5998Z" fill="#FED700"/>
<path fill-rule="evenodd" clip-rule="evenodd" d="M10.6976 4.56285C11.1043 4.58801 11.4998 4.6495 11.8841 4.74452L11.7807 5.6375C12.1146 5.72694 12.4361 5.84433 12.7435 5.98826L13.2382 5.23783C13.5988 5.4153 13.9425 5.62353 14.2639 5.86109L13.8265 6.64647C14.0976 6.85469 14.3506 7.08667 14.5812 7.33821L15.326 6.83513C15.5901 7.13558 15.8291 7.45839 16.0359 7.80217L15.3316 8.36115C15.5021 8.65602 15.6474 8.96625 15.7648 9.29047L16.6452 9.11019C16.7724 9.48471 16.8688 9.8746 16.9289 10.2757L16.0639 10.5216C16.096 10.7718 16.1142 11.0289 16.1142 11.2874C16.1142 11.3741 16.1114 11.4593 16.1086 11.5446L16.9918 11.7151C16.9666 12.1217 16.9051 12.5172 16.8101 12.9015L15.9171 12.7981C15.8277 13.1321 15.7103 13.4535 15.5664 13.7609L16.3168 14.2556C16.1393 14.6162 15.9297 14.96 15.6935 15.28L14.9082 14.8426C14.7 15.1137 14.468 15.3666 14.2164 15.5972L13.4953 15.062C14.5602 14.1508 15.2366 12.7967 15.2366 11.2846C15.2366 8.57077 13.0607 6.36418 10.3566 6.31667L10.6948 4.56006L10.6976 4.56285ZM7.14388 15.15L6.27466 16.7138C6.59607 16.95 6.93845 17.1596 7.30039 17.337L7.7951 16.5866C8.10254 16.7305 8.42535 16.8479 8.75795 16.9374L8.65453 17.8303C9.03744 17.924 9.43432 17.9855 9.83958 18.012L10.0101 17.1288C10.0953 17.133 10.182 17.1344 10.2672 17.1344C10.5271 17.1344 10.7829 17.1176 11.033 17.0841L11.279 17.9491C11.6535 17.8932 12.0182 17.8052 12.369 17.6906L12.0937 16.3504L11.6493 16.0612C11.2105 16.1883 10.7465 16.2568 10.2658 16.2568C9.08216 16.2568 7.99493 15.8418 7.14108 15.1514L7.14388 15.15Z" fill="#FED700"/>
</g>
</g>
<rect x="0.25" y="0.25" width="23.5" height="23.5" rx="11.75" stroke="#E5E3E1" stroke-width="0.5"/>
<defs>
<clipPath id="clip0_16335_12454">
<rect width="24" height="24" rx="12" fill="white"/>
</clipPath>
</defs>
</svg>
