<svg width="24" height="24" viewBox="0 0 24 24" fill="none" xmlns="http://www.w3.org/2000/svg">
<path fill-rule="evenodd" clip-rule="evenodd" d="M6.77437 7.71014H6.32312V8.61281H7.2258V7.71014H6.77437ZM16.6793 9.0997H17.4632C17.4632 9.0997 16.9763 9.74102 16.6793 10.3823C16.6556 10.4299 16.6318 10.4893 16.6081 10.5368H15.8836V9.0997H16.6793ZM16.6793 6H17.7006V7.25889H19.5179C19.5179 7.25889 18.532 7.80517 17.582 8.93339V7.31829H15.8361V8.95715H14.0903V10.6675H12.5106V12.342H10.9431V14.1353H12.5106V15.5961L11.7151 14.8597L10.0879 13.3872L8.41341 11.8551L6.77437 10.3467L2 6H7.91464V6.92626H8.82902V6H11.1213V7.09257H12.2495V6H14.3515V7.19949H15.741V6H16.6793ZM19.6248 7.17573C19.6248 7.17573 20.7055 6.49877 22 6H19.6248V7.17573ZM14.9573 17.8171L15.5868 18.3871V17.4607H14.5653L14.9573 17.8171ZM14.9573 14.1947H14.3633V15.2993H15.5392V14.1947H14.9573ZM14.9573 10.7623H14.1378V12.2826H15.6697V10.7623H14.9573ZM13.2589 8.86211H14.0309V7.4963H12.6651V8.86211H13.2589ZM13.2589 15.8574H13.9477V16.8906L13.2589 16.2731L12.8076 15.8574H13.2589ZM13.2589 12.4726H12.57V13.8741H13.9596V12.4726H13.2589ZM11.7151 10.5011H12.3919V9.12346H11.0262V10.5011H11.7151ZM10.0879 12.1638H10.7768V10.798H9.41095V12.1638H10.0879ZM10.0879 8.71955H10.5869V7.60322H9.45846V8.71955H10.0879ZM8.41341 10.4061H8.98346V9.26602H7.84336V10.4061H8.41341Z" fill="#D8232A"/>
</svg>
