<svg width="48" height="48" viewBox="0 0 48 48" fill="none" xmlns="http://www.w3.org/2000/svg">
<path d="M24 2C11.85 2 2 11.85 2 24C2 36.15 11.85 46 24 46C36.15 46 46 36.15 46 24C46 11.85 36.15 2 24 2ZM30.04 24.03H26.1V37.98C26.1 37.98 26.1 38.04 26.1 38.08H20.24C20.24 38.08 20.24 38 20.24 37.97V24.03H17.4V19.25C17.4 19.25 17.47 19.25 17.5 19.25C18.37 19.25 19.25 19.25 20.12 19.25H20.22C20.22 19.25 20.22 19.19 20.22 19.16C20.22 18.63 20.22 18.1 20.22 17.57C20.22 16.77 20.22 15.97 20.22 15.17C20.22 14.65 20.27 14.14 20.4 13.64C20.66 12.63 21.17 11.78 21.99 11.12C22.8 10.48 23.74 10.16 24.76 10.03C25.4 9.95 26.04 9.93 26.68 9.93C27.93 9.93 29.17 9.93 30.42 9.93H30.51V14.88H30.42C30.02 14.88 29.62 14.88 29.21 14.88C28.63 14.88 28.05 14.88 27.46 14.88C27.19 14.88 26.93 14.94 26.7 15.08C26.28 15.35 26.09 15.75 26.09 16.23C26.09 17.21 26.09 18.18 26.09 19.16C26.09 19.18 26.09 19.2 26.09 19.23H30.55C30.37 20.83 30.19 22.42 30.01 24.02L30.04 24.03Z" fill="#323232"/>
</svg>
