<svg width="24" height="24" viewBox="0 0 24 24" fill="none" xmlns="http://www.w3.org/2000/svg">
<g clip-path="url(#clip0_16335_9518)">
<path d="M20.4851 20.4853C25.1714 15.799 25.1714 8.20101 20.4851 3.51472C15.7988 -1.17157 8.20081 -1.17157 3.51452 3.51472C-1.17177 8.20101 -1.17177 15.799 3.51452 20.4853C8.20081 25.1716 15.7988 25.1716 20.4851 20.4853Z" fill="white"/>
<mask id="mask0_16335_9518" style="mask-type:luminance" maskUnits="userSpaceOnUse" x="-1" y="0" width="25" height="24">
<path d="M20.4851 20.4853C25.1714 15.799 25.1714 8.20101 20.4851 3.51472C15.7988 -1.17157 8.20081 -1.17157 3.51452 3.51472C-1.17177 8.20101 -1.17177 15.799 3.51452 20.4853C8.20081 25.1716 15.7988 25.1716 20.4851 20.4853Z" fill="white"/>
</mask>
<g mask="url(#mask0_16335_9518)">
<path d="M29.9993 0H-6.00067V24H29.9993V0Z" fill="white"/>
<path d="M29.9993 0H-6.00067V8.00047H29.9993V0Z" fill="#FF0000"/>
<path d="M29.9993 16.001H-6.00067V24.0014H29.9993V16.001Z" fill="#003399"/>
<path fill-rule="evenodd" clip-rule="evenodd" d="M7.36046 7.87614L6.10693 5.17485L6.91047 3.79137L8.3834 4.37271L9.3714 3.15133L10.7591 3.96605L12.0014 2.92773L13.2438 3.96605L14.6314 3.15133L15.6195 4.37271L17.091 3.79137L17.8945 5.17485L16.641 7.87614C15.224 7.24309 13.6532 6.89093 12.0014 6.89093C10.3496 6.89093 8.77888 7.24309 7.36185 7.87614H7.36046Z" fill="white"/>
<path fill-rule="evenodd" clip-rule="evenodd" d="M15.5775 4.52228L14.5993 3.31348L13.2284 4.11841L12.988 6.80853C13.6351 6.86303 14.2667 6.97063 14.8788 7.12855L15.5775 4.52228Z" fill="#003399"/>
<path fill-rule="evenodd" clip-rule="evenodd" d="M13.6336 6.09298C13.6336 6.09298 13.6294 6.09857 13.6253 6.09857H13.4729C13.4729 6.09857 13.4687 6.09857 13.4673 6.09578C13.4645 6.09298 13.4645 6.08739 13.4673 6.0846L13.54 6.01193L13.6127 5.73942L13.5498 5.50605C13.5372 5.45993 13.5386 5.41381 13.5498 5.37189C13.5624 5.32997 13.5847 5.29084 13.6169 5.26009L13.5805 5.12314C13.5749 5.10218 13.5749 5.08262 13.5805 5.06305C13.5819 5.05606 13.5847 5.05047 13.5875 5.04349C13.5763 5.04768 13.5652 5.04908 13.5526 5.04908C13.5274 5.04908 13.5023 5.03929 13.4827 5.02113L13.4212 4.95964C13.4212 4.95964 13.4184 4.95125 13.4212 4.94846L13.5568 4.81291C13.5568 4.81291 13.5512 4.81011 13.5484 4.80871C13.5246 4.79474 13.5051 4.77517 13.4939 4.75142C13.4813 4.72766 13.4771 4.70111 13.4799 4.67316C13.4799 4.66757 13.4841 4.66478 13.4897 4.66617L13.649 4.70949C13.6951 4.66058 13.7496 4.62145 13.8111 4.5949C13.8726 4.56835 13.9397 4.55298 14.0096 4.55298C14.0641 4.55298 14.1158 4.56136 14.1647 4.57813C14.215 4.5949 14.2625 4.61866 14.3044 4.6508C14.3855 4.7081 14.4805 4.73744 14.5797 4.73744C14.6272 4.73744 14.6747 4.73046 14.7209 4.71648C14.7251 4.71648 14.7292 4.71648 14.7306 4.72207C14.7306 4.72487 14.7306 4.72906 14.7279 4.73046C14.6943 4.75561 14.6566 4.77517 14.6161 4.78915C14.5378 4.8157 14.4512 4.8157 14.3715 4.78915C14.3561 4.78356 14.3408 4.77797 14.3254 4.77098C14.3352 4.78216 14.3463 4.79474 14.3547 4.80592C14.3994 4.86042 14.4553 4.90514 14.521 4.93588C14.5825 4.96523 14.6524 4.982 14.7251 4.982C14.774 4.982 14.8215 4.97501 14.8676 4.95964C14.8718 4.95964 14.876 4.95964 14.8774 4.96523C14.8774 4.96802 14.8774 4.97222 14.8746 4.97361C14.8019 5.02812 14.7139 5.05886 14.6216 5.05886C14.5546 5.05886 14.4917 5.04349 14.4344 5.01554C14.3757 4.98619 14.3254 4.94427 14.2863 4.89256C14.2234 4.80871 14.1255 4.7598 14.0207 4.7598C13.9816 4.7598 13.9425 4.76679 13.9061 4.78076L14.0599 4.82129C14.0599 4.82129 14.0669 4.82688 14.0655 4.83107C14.0543 4.85762 14.0361 4.87859 14.0137 4.89256C13.9914 4.90654 13.9662 4.91492 13.9383 4.91492C13.9229 4.91492 13.9089 4.91213 13.895 4.90793C13.8852 4.90514 13.8768 4.90095 13.8684 4.89536V5.0351L14.0682 5.23494H14.1898C14.215 5.23494 14.2373 5.24193 14.2569 5.2559C14.2751 5.26848 14.2904 5.28525 14.2988 5.30621H14.5434C14.5643 5.30621 14.5839 5.3118 14.6021 5.32158C14.6188 5.33136 14.6328 5.34394 14.644 5.35931H14.9682C14.9682 5.35931 14.978 5.3649 14.9752 5.37049C14.9584 5.41661 14.9319 5.45714 14.8969 5.48928C14.8634 5.52002 14.8229 5.54238 14.7782 5.55496V5.78274C14.7782 5.84423 14.7586 5.90293 14.7251 5.95044C14.6915 5.99795 14.6426 6.03568 14.5867 6.05665L14.405 6.36968C14.405 6.36968 14.4008 6.37387 14.3981 6.37387H14.2499C14.2499 6.37387 14.2457 6.37387 14.2443 6.37108C14.2415 6.36828 14.2415 6.36269 14.2443 6.3599L14.3352 6.26906L14.4875 6.00494L14.3827 5.90013C14.3659 5.92109 14.3477 5.94066 14.3268 5.95603C14.3044 5.9728 14.2793 5.98677 14.2513 5.99795L14.0948 6.26906C14.0948 6.26906 14.0906 6.27325 14.0878 6.27325H13.9397C13.9397 6.27325 13.9355 6.27325 13.9327 6.27046C13.9299 6.26766 13.9299 6.26207 13.9327 6.25928L14.0235 6.16844L14.1423 5.96302C14.1395 5.93227 14.1409 5.90153 14.1437 5.87078H13.8796L13.7776 6.2495C13.7776 6.2495 13.7734 6.25509 13.7692 6.25509H13.6155C13.6155 6.25509 13.6057 6.2467 13.6099 6.24251L13.6826 6.16984L13.765 5.8624L13.7384 5.76597C13.7287 5.77576 13.7175 5.78414 13.7063 5.79253L13.6253 6.09578L13.6336 6.09298Z" fill="black"/>
<path fill-rule="evenodd" clip-rule="evenodd" d="M6.2467 5.18189L7.42197 7.71269C7.96838 7.47652 8.53575 7.27948 9.12128 7.12855L8.42255 4.52229L6.965 3.94653L6.2481 5.18049L6.2467 5.18189Z" fill="#00ADFE"/>
<path fill-rule="evenodd" clip-rule="evenodd" d="M11.0106 6.80849L10.7703 4.11838L12 3.08984L13.2298 4.11838L12.9894 6.80849C12.6638 6.78054 12.334 6.76517 12.0014 6.76517C11.6688 6.76517 11.339 6.78054 11.0134 6.80849H11.0106Z" fill="#00ADFE"/>
<path fill-rule="evenodd" clip-rule="evenodd" d="M16.8618 7.1005L16.5781 7.71258C16.0317 7.47641 15.4643 7.27937 14.8788 7.12844L15.0535 6.47583C15.6767 6.63654 16.2804 6.84616 16.8618 7.0991V7.1005Z" fill="#00ADFE"/>
<path fill-rule="evenodd" clip-rule="evenodd" d="M17.2349 6.29558L16.9415 6.92723C16.3504 6.6701 15.7369 6.45629 15.1024 6.29278L15.2827 5.62061C15.9563 5.79529 16.6075 6.02168 17.2349 6.29698V6.29558Z" fill="#FF0000"/>
<path fill-rule="evenodd" clip-rule="evenodd" d="M17.752 5.18189L17.3146 6.12238C16.6788 5.84289 16.0164 5.61231 15.3316 5.43483L15.5762 4.52229L17.0337 3.94653L17.7506 5.18049L17.752 5.18189Z" fill="#00ADFE"/>
<path fill-rule="evenodd" clip-rule="evenodd" d="M8.42255 4.52228L9.40077 3.31348L10.7731 4.11841L11.0134 6.80853C10.3664 6.86303 9.73476 6.97063 9.12267 7.12855L8.42394 4.52228H8.42255Z" fill="#003399"/>
<path fill-rule="evenodd" clip-rule="evenodd" d="M10.8919 5.46411L10.952 6.13629C10.2658 6.19498 9.59502 6.30958 8.94659 6.47727L8.77191 5.82466C9.45807 5.64718 10.1666 5.5256 10.8919 5.46411Z" fill="#FF0000"/>
<path fill-rule="evenodd" clip-rule="evenodd" d="M8.42255 4.52221L8.42534 4.51802C9.18416 4.32097 9.96954 4.18682 10.7717 4.11694L10.8318 4.78912C10.0674 4.8548 9.31972 4.98337 8.59723 5.17063L8.42255 4.52081V4.52221Z" fill="#FF0000"/>
<path fill-rule="evenodd" clip-rule="evenodd" d="M7.36047 7.87476H16.6396V13.6323C16.6396 16.1952 14.563 18.2719 12 18.2719C9.4371 18.2719 7.36047 16.1952 7.36047 13.6323V7.87476Z" fill="#FF0000"/>
<path fill-rule="evenodd" clip-rule="evenodd" d="M7.4848 8.00049V13.6337C7.4848 16.1267 9.50693 18.1489 12 18.1489C14.4931 18.1489 16.5152 16.1267 16.5152 13.6337V8.00049H7.4848Z" fill="white"/>
<path fill-rule="evenodd" clip-rule="evenodd" d="M8.72296 16.3657C8.93398 16.6187 9.17434 16.8478 9.43986 17.0463V16.3657H8.72296ZM11.1462 17.8135C11.4215 17.8694 11.7079 17.8987 12 17.8987C12.2921 17.8987 12.5772 17.8694 12.8539 17.8135V16.3657H11.1476V17.8135H11.1462ZM14.5588 17.0463C14.8229 16.8478 15.0632 16.6187 15.2757 16.3657H14.5588V17.0463Z" fill="#FF0000"/>
<path fill-rule="evenodd" clip-rule="evenodd" d="M7.73358 12.3074V13.6336C7.73358 13.8739 7.75315 14.1087 7.79227 14.3365H9.44128V12.3074H7.73498H7.73358ZM16.2078 14.3365C16.2455 14.1073 16.2665 13.8725 16.2665 13.6336V12.3074H14.5602V14.3365H16.2092H16.2078ZM11.1462 14.3365H12.8525V12.3074H11.1462V14.3365Z" fill="#FF0000"/>
<path fill-rule="evenodd" clip-rule="evenodd" d="M7.73358 8.24927V10.2784H9.43988V8.24927H7.73358ZM16.2651 10.2784V8.24927H14.5588V10.2784H16.2651ZM12.8525 8.24927H11.1462V10.2784H12.8525V8.24927Z" fill="#FF0000"/>
<path fill-rule="evenodd" clip-rule="evenodd" d="M9.43988 10.2783H11.1462V12.3074H9.43988V10.2783ZM12.8525 10.2783H14.5588V12.3074H12.8525V10.2783Z" fill="#FF0000"/>
<path fill-rule="evenodd" clip-rule="evenodd" d="M9.43988 14.3367H11.1462V16.3658H9.43988V14.3367ZM12.8525 14.3367H14.5588V16.3658H12.8525V14.3367Z" fill="#FF0000"/>
<path fill-rule="evenodd" clip-rule="evenodd" d="M15.7271 5.99366C15.7816 6.00064 15.8347 6.01602 15.8836 6.03558C15.9353 6.05654 15.9828 6.0831 16.0275 6.11663L16.2651 6.17952C16.2819 6.17533 16.3 6.17114 16.3182 6.16974C16.3364 6.16694 16.3559 6.16555 16.3741 6.16555C16.4146 6.16555 16.4523 6.17114 16.4901 6.18092C16.5278 6.1907 16.5641 6.20607 16.5977 6.22564C16.6438 6.25219 16.6927 6.27455 16.743 6.29132C16.7933 6.30669 16.845 6.31787 16.8995 6.32206C16.9135 6.32206 16.9289 6.32625 16.9443 6.32905C16.9596 6.33324 16.975 6.33743 16.9918 6.34302C17.0337 6.35839 17.07 6.38075 17.0938 6.40172C17.1189 6.42547 17.1315 6.44923 17.1245 6.46879C17.1175 6.48836 17.0924 6.49954 17.0575 6.50094C17.0253 6.50094 16.9834 6.49395 16.9415 6.47858C16.9261 6.47299 16.9121 6.4674 16.8995 6.46041C16.8856 6.45342 16.873 6.44644 16.8618 6.43805C16.8325 6.41849 16.8003 6.40032 16.7668 6.38495C16.7402 6.37237 16.7123 6.36119 16.6829 6.35141C16.6871 6.35979 16.6899 6.36957 16.6927 6.37936C16.6969 6.39473 16.6997 6.4101 16.6997 6.42687C16.6997 6.43526 16.6997 6.44364 16.6983 6.45063C16.6983 6.45622 16.6969 6.4632 16.6955 6.46879L16.7877 6.5219C16.7877 6.5219 16.7905 6.5233 16.7905 6.52469L16.8758 6.67282C16.8758 6.67282 16.8758 6.68121 16.873 6.684L16.778 6.7385C16.778 6.7385 16.7752 6.7385 16.7738 6.7385H16.6899C16.6899 6.7385 16.6815 6.73431 16.6815 6.73012C16.6815 6.73012 16.6815 6.72732 16.6815 6.72593C16.6871 6.71056 16.6969 6.69798 16.7095 6.6882C16.7193 6.67981 16.7318 6.67282 16.7458 6.67003V6.62391L16.5292 6.49814L16.402 6.4646L16.184 6.5233C16.184 6.5233 16.1798 6.5233 16.1771 6.5233L16.0667 6.45901C16.0667 6.45901 16.0611 6.45202 16.0639 6.44783C16.0639 6.44783 16.0639 6.44643 16.0653 6.44504C16.0736 6.43805 16.0834 6.43246 16.0946 6.42827C16.1044 6.42408 16.117 6.42268 16.1281 6.42268C16.1393 6.42268 16.1519 6.42547 16.1617 6.42827C16.1715 6.43106 16.1784 6.43665 16.1868 6.44224L16.2609 6.39892H16.205C16.205 6.39892 16.2022 6.39892 16.2008 6.39892L16.0848 6.33184L16.0094 6.37516C16.0094 6.37516 16.0066 6.37516 16.0052 6.37516H15.7438C15.7438 6.37516 15.741 6.37516 15.7396 6.37377L15.6209 6.30529C15.6209 6.30529 15.6153 6.2983 15.6181 6.29411C15.6181 6.29411 15.6181 6.29271 15.6195 6.29271C15.6278 6.28573 15.6376 6.28014 15.6474 6.27594C15.6572 6.27175 15.6684 6.27035 15.6796 6.27035C15.6935 6.27035 15.7075 6.27315 15.7201 6.28014C15.7313 6.28573 15.741 6.29271 15.7494 6.3025L15.8417 6.27734L15.7061 6.19908H15.4504C15.4504 6.19908 15.4462 6.19908 15.4448 6.19629L15.3819 6.1334C15.3819 6.1334 15.3791 6.12502 15.3819 6.12222C15.3819 6.12222 15.3833 6.12083 15.3847 6.12083C15.3903 6.11803 15.3959 6.11663 15.4029 6.11524C15.4084 6.11524 15.4154 6.11384 15.4224 6.11384C15.435 6.11384 15.4476 6.11663 15.4588 6.12083C15.4685 6.12502 15.4783 6.13061 15.4867 6.1376L15.6125 6.10406L15.5468 5.98947H15.4699C15.4588 5.98947 15.4448 5.98527 15.4336 5.97689C15.4224 5.9699 15.4112 5.95872 15.4057 5.94754L15.3679 5.88186C15.3679 5.88186 15.3679 5.87348 15.3707 5.87068C15.3707 5.87068 15.3735 5.87068 15.3749 5.87068H15.5035C15.5035 5.87068 15.5105 5.8609 15.5147 5.85671C15.5174 5.85391 15.5216 5.85112 15.5258 5.84832C15.5244 5.84553 15.5216 5.84133 15.5202 5.83714C15.5174 5.83015 15.5161 5.82317 15.5161 5.81618C15.5161 5.81338 15.5161 5.81059 15.5161 5.8078C15.5161 5.805 15.5161 5.80221 15.5174 5.79941C15.5174 5.79522 15.523 5.79242 15.5272 5.79382C15.5272 5.79382 15.5272 5.79382 15.5286 5.79382L15.7201 5.90422C15.7201 5.90422 15.7257 5.91121 15.7229 5.9154C15.7187 5.92239 15.7145 5.92798 15.7075 5.93357C15.7033 5.93636 15.7005 5.93916 15.6963 5.94055L15.7229 5.98807L15.7271 5.99366Z" fill="black"/>
<path fill-rule="evenodd" clip-rule="evenodd" d="M16.1211 6.31519L16.1016 6.32637L16.2078 6.38785H16.3825C16.3811 6.36969 16.3727 6.35152 16.3601 6.33894C16.3461 6.32357 16.3252 6.31519 16.3028 6.31519H16.1211Z" fill="white"/>
<path fill-rule="evenodd" clip-rule="evenodd" d="M8.40154 5.74491C8.4211 5.77985 8.43927 5.81619 8.45324 5.85392C8.52312 6.04118 8.51194 6.23822 8.43508 6.40591C8.35822 6.57361 8.21847 6.71336 8.03121 6.78323C7.84395 6.8531 7.64691 6.84192 7.47921 6.76506C7.31152 6.6882 7.17177 6.54846 7.1019 6.3612C7.08792 6.32346 7.07674 6.28433 7.06836 6.24521C7.06836 6.24101 7.06976 6.23682 7.07395 6.23542C7.07674 6.23542 7.08094 6.23542 7.08233 6.23962C7.16758 6.38775 7.30173 6.49535 7.45546 6.54985C7.60778 6.60435 7.77827 6.60715 7.94037 6.54566C8.10248 6.48417 8.22965 6.36958 8.30791 6.22983C8.38756 6.08729 8.41691 5.9168 8.38477 5.7505C8.38477 5.74631 8.38617 5.74212 8.39175 5.74072C8.39455 5.74072 8.39874 5.74072 8.40014 5.74491H8.40154Z" fill="black"/>
<path fill-rule="evenodd" clip-rule="evenodd" d="M13.6197 6.08311L13.6294 6.04677L13.5498 6.02441L13.4911 6.08311H13.6197Z" fill="#FF0000"/>
<path fill-rule="evenodd" clip-rule="evenodd" d="M13.642 6.2382H13.7706L13.7804 6.20187L13.6993 6.18091L13.642 6.2382Z" fill="#FF0000"/>
<path fill-rule="evenodd" clip-rule="evenodd" d="M14.1074 6.22283L14.0361 6.18091L13.962 6.25497H14.0878L14.1074 6.22283Z" fill="#FF0000"/>
<path fill-rule="evenodd" clip-rule="evenodd" d="M14.3995 6.35696L14.419 6.32342L14.3477 6.28149L14.2737 6.35696H14.3995Z" fill="#FF0000"/>
<path fill-rule="evenodd" clip-rule="evenodd" d="M13.561 4.79326V4.79047C13.561 4.76811 13.5708 4.74714 13.5848 4.73177C13.5931 4.72339 13.6029 4.7178 13.6141 4.71361L13.4981 4.68286C13.4981 4.70382 13.5023 4.72479 13.5121 4.74295C13.5233 4.76391 13.54 4.78348 13.561 4.79466V4.79326Z" fill="#FED700"/>
<path fill-rule="evenodd" clip-rule="evenodd" d="M13.888 4.77083C13.9327 4.75127 13.9803 4.74149 14.0278 4.74149C14.1368 4.74149 14.2402 4.79319 14.3059 4.88123C14.3436 4.93014 14.3925 4.97207 14.4484 5.00002C14.5029 5.02657 14.563 5.04194 14.6273 5.04194C14.6999 5.04194 14.7698 5.02238 14.8327 4.98604C14.7992 4.99303 14.7642 4.99722 14.7293 4.99722C14.6538 4.99722 14.5826 4.98045 14.5183 4.94971C14.4512 4.91757 14.3939 4.87285 14.3464 4.81555C14.3059 4.76105 14.2528 4.71633 14.1913 4.68699C14.1326 4.65764 14.0669 4.64087 13.9956 4.64087C13.9439 4.64087 13.895 4.64925 13.8489 4.66602C13.8056 4.6814 13.7664 4.70375 13.7315 4.73031L13.8866 4.77223L13.888 4.77083Z" fill="#FF0000"/>
<path fill-rule="evenodd" clip-rule="evenodd" d="M13.6294 5.74088L13.5568 6.01059L13.6336 6.03155L13.7007 5.7828C13.7007 5.7828 13.7021 5.77861 13.7035 5.77861C13.7175 5.76882 13.7301 5.75904 13.7412 5.74646L13.7091 5.62768C13.7091 5.62768 13.7091 5.6193 13.7147 5.6179C13.7189 5.6179 13.7231 5.6193 13.7245 5.62349L13.7874 5.85966L13.7063 6.16291L13.7832 6.18387L13.8712 5.85686C13.8712 5.85686 13.8754 5.85127 13.8782 5.85127H14.2248C14.2248 5.85127 14.2332 5.85407 14.2332 5.85966C14.2332 5.86525 14.2304 5.86804 14.2248 5.86804H14.1633C14.1591 5.89879 14.1591 5.92953 14.1619 5.96167C14.1619 5.96307 14.1619 5.96587 14.1605 5.96726L14.0445 6.1685L14.1144 6.20902L14.2429 5.98683C14.2429 5.98683 14.2457 5.98403 14.2471 5.98264C14.2737 5.97285 14.2988 5.95888 14.3212 5.94211C14.3422 5.92674 14.3603 5.90857 14.3757 5.88761L14.2988 5.81075C14.2988 5.81075 14.296 5.80236 14.2988 5.79957C14.3016 5.79677 14.3072 5.79677 14.31 5.79957L14.5071 5.99661C14.5071 5.99661 14.5098 6.0036 14.5071 6.00639L14.3547 6.26912L14.4246 6.30964L14.5769 6.04552C14.5769 6.04552 14.5797 6.04273 14.5811 6.04133C14.6356 6.02176 14.6817 5.98683 14.7139 5.94071C14.746 5.89599 14.7642 5.84149 14.7642 5.7828V5.54942C14.7642 5.54942 14.767 5.54244 14.7698 5.54244C14.8145 5.53126 14.855 5.5089 14.8886 5.47815C14.9193 5.4502 14.9431 5.41527 14.9598 5.37614H14.6426C14.6426 5.37614 14.637 5.37614 14.6356 5.37195C14.6258 5.35657 14.6133 5.344 14.5979 5.33561C14.5825 5.32723 14.5657 5.32303 14.5476 5.32303H14.2988C14.2988 5.32303 14.2932 5.32164 14.2918 5.31744C14.2835 5.29788 14.2709 5.28111 14.2527 5.26993C14.2359 5.25875 14.2164 5.25176 14.194 5.25176H14.0682C14.0682 5.25176 14.0641 5.25176 14.0627 5.24897L13.8572 5.04354C13.8572 5.04354 13.8544 5.04075 13.8544 5.03795V4.88004C13.8544 4.88004 13.8544 4.87724 13.8558 4.87585C13.8586 4.87305 13.8628 4.87165 13.867 4.87445C13.8782 4.88283 13.8894 4.88842 13.902 4.89262C13.9145 4.89681 13.9271 4.8996 13.9411 4.8996C13.9662 4.8996 13.9886 4.89262 14.0082 4.88004C14.0249 4.86886 14.0403 4.85349 14.0501 4.83392L13.8964 4.792L13.6504 4.72632C13.6504 4.72632 13.6448 4.72632 13.6406 4.72632C13.6225 4.72632 13.6043 4.73331 13.5931 4.74588C13.5805 4.75846 13.5735 4.77523 13.5735 4.7934C13.5735 4.79899 13.5735 4.80597 13.5763 4.81156C13.5763 4.81436 13.5763 4.81715 13.5749 4.81995L13.4394 4.9555L13.4953 5.0114C13.5121 5.02677 13.533 5.03516 13.554 5.03516C13.5777 5.03516 13.5959 5.02677 13.6127 5.0114L13.6378 4.98625C13.6378 4.98625 13.6462 4.98345 13.649 4.98625C13.6518 4.98904 13.6518 4.99463 13.649 4.99743L13.6239 5.02258C13.6113 5.03655 13.6015 5.04913 13.5973 5.0687C13.5931 5.08547 13.5931 5.10363 13.5973 5.1204L13.635 5.26155C13.635 5.26155 13.635 5.26714 13.6322 5.26853C13.6015 5.29788 13.5777 5.33561 13.5666 5.37754C13.5554 5.41806 13.554 5.46138 13.5666 5.50331L13.6294 5.73948C13.6294 5.73948 13.6294 5.74227 13.6294 5.74367V5.74088ZM13.649 4.81576H13.7426C13.7426 4.81576 13.7524 4.82135 13.7496 4.82694C13.7482 4.83392 13.7454 4.83951 13.7412 4.8451C13.7315 4.86327 13.7161 4.87585 13.6979 4.88423C13.6798 4.89262 13.6602 4.89401 13.6406 4.88982C13.6364 4.88982 13.6322 4.88703 13.6294 4.88563C13.6211 4.88004 13.6141 4.87165 13.6127 4.86327C13.6085 4.8465 13.6155 4.82973 13.6294 4.82135C13.635 4.81855 13.6406 4.81576 13.6476 4.81576H13.649Z" fill="#FED700"/>
<path fill-rule="evenodd" clip-rule="evenodd" d="M13.6518 4.87577C13.6518 4.87577 13.6434 4.8618 13.6434 4.85202C13.6434 4.84363 13.6462 4.83664 13.6504 4.83105H13.649C13.649 4.83105 13.642 4.83105 13.6392 4.83385C13.6309 4.83804 13.6267 4.84922 13.6295 4.85761C13.6309 4.8632 13.6351 4.86739 13.6392 4.87018C13.642 4.87158 13.6434 4.87158 13.6462 4.87298C13.649 4.87298 13.6504 4.87298 13.6532 4.87298L13.6518 4.87577Z" fill="#FED700"/>
<path fill-rule="evenodd" clip-rule="evenodd" d="M13.7105 4.83105C13.7105 4.83105 13.7175 4.84363 13.7175 4.85202C13.7175 4.85202 13.7259 4.84363 13.7287 4.83664C13.7287 4.83385 13.7315 4.83245 13.7315 4.83105H13.7105Z" fill="#FED700"/>
<path fill-rule="evenodd" clip-rule="evenodd" d="M13.6798 4.83105C13.691 4.83105 13.7007 4.84084 13.7007 4.85202C13.7007 4.8632 13.691 4.87298 13.6798 4.87298C13.6686 4.87298 13.6588 4.8632 13.6588 4.85202C13.6588 4.84084 13.6686 4.83105 13.6798 4.83105Z" fill="#FED700"/>
<path fill-rule="evenodd" clip-rule="evenodd" d="M14.2988 4.66052C14.2583 4.63118 14.2122 4.60742 14.1633 4.59065C14.1158 4.57528 14.0655 4.56689 14.0124 4.56689C13.9439 4.56689 13.8782 4.58087 13.8195 4.60742C13.7622 4.63258 13.7105 4.66891 13.6686 4.71223L13.7119 4.72341C13.751 4.69127 13.7957 4.66611 13.8433 4.64934C13.8908 4.63258 13.9425 4.62279 13.9956 4.62279C14.0683 4.62279 14.1367 4.63956 14.1982 4.67031C14.2248 4.68428 14.2499 4.69965 14.2737 4.71782C14.3058 4.74018 14.3408 4.75835 14.3785 4.77092C14.454 4.79468 14.5378 4.79468 14.6133 4.77092C14.637 4.76254 14.6594 4.75276 14.6817 4.74018C14.6496 4.74717 14.6161 4.74996 14.5825 4.74996C14.4805 4.74996 14.3813 4.71922 14.2974 4.66052H14.2988Z" fill="#FF0000"/>
<path fill-rule="evenodd" clip-rule="evenodd" d="M8.40998 5.79248C8.42954 5.949 8.3974 6.10411 8.32333 6.23687C8.24368 6.38081 8.11371 6.4982 7.94742 6.55969C7.78112 6.62257 7.60644 6.61978 7.45132 6.56388C7.30878 6.51217 7.18161 6.41715 7.09357 6.28718C7.10055 6.31094 7.10754 6.3333 7.11593 6.35566C7.1844 6.53872 7.32135 6.67568 7.48486 6.74974C7.64976 6.82381 7.84261 6.83638 8.02567 6.76791C8.20874 6.69943 8.34569 6.56248 8.41976 6.39898C8.49382 6.23408 8.5064 6.04123 8.43793 5.85816C8.42954 5.8358 8.41976 5.81484 8.40998 5.79248Z" fill="white"/>
<path fill-rule="evenodd" clip-rule="evenodd" d="M12.784 4.45082L12.9196 4.41448C12.9196 4.41448 12.9294 4.41588 12.9294 4.42147C12.9322 4.45501 12.9266 4.48855 12.9154 4.52069C12.9056 4.54864 12.8902 4.57379 12.8693 4.59615H12.9517C12.9517 4.59615 12.9601 4.60035 12.9587 4.60594C12.9545 4.6283 12.9461 4.64926 12.9322 4.66882C12.9196 4.68699 12.9028 4.70236 12.8818 4.71494L12.8413 4.7387L12.9433 4.83931C12.9433 4.83931 12.9461 4.8477 12.9433 4.85189C12.9056 4.87704 12.8595 4.88543 12.8148 4.87425L12.8665 4.96369C12.8665 4.96369 12.8665 4.97347 12.8623 4.97487C12.8427 4.98185 12.8218 4.98465 12.8008 4.98325C12.7854 4.98325 12.77 4.97906 12.7561 4.97487L12.7812 5.0671C12.7812 5.0671 12.7798 5.07688 12.7742 5.07688C12.7533 5.07828 12.7323 5.07688 12.7127 5.06989C12.6988 5.0643 12.6848 5.05871 12.6722 5.04893V5.14815C12.6722 5.14815 12.668 5.15793 12.6624 5.15654C12.6443 5.15234 12.6261 5.14675 12.6093 5.13557C12.5968 5.12719 12.5842 5.11881 12.5744 5.10623L12.5339 5.1761C12.5339 5.1761 12.5227 5.18169 12.5199 5.1761L12.4794 5.10623C12.4696 5.11741 12.457 5.12719 12.4444 5.13557C12.4277 5.14536 12.4095 5.15234 12.3913 5.15654C12.3857 5.15654 12.3816 5.15374 12.3816 5.14815V5.04753C12.369 5.05592 12.355 5.06291 12.341 5.0685C12.3215 5.07548 12.3005 5.07688 12.2795 5.07548C12.2753 5.07548 12.2712 5.07129 12.2725 5.0657L12.2977 4.97347C12.2837 4.97906 12.2684 4.98185 12.253 4.98185C12.232 4.98185 12.2125 4.98046 12.1929 4.97347C12.1887 4.97207 12.1859 4.96648 12.1887 4.96229L12.2404 4.87285C12.218 4.87844 12.1957 4.87984 12.1747 4.87565C12.1524 4.87145 12.1314 4.86307 12.1118 4.85049C12.1076 4.8477 12.1063 4.84211 12.1104 4.83792L12.2125 4.7373L12.1719 4.71354C12.151 4.70236 12.1342 4.68559 12.1216 4.66743C12.109 4.64786 12.0993 4.6269 12.0951 4.60594C12.0951 4.60035 12.0979 4.59615 12.1021 4.59615H12.1845C12.1635 4.57379 12.1482 4.54724 12.1384 4.52069C12.1272 4.48855 12.1216 4.45501 12.1244 4.42147C12.1244 4.41728 12.1286 4.41309 12.1342 4.41448L12.2698 4.45082L12.0881 4.13639C12.0881 4.13639 12.0867 4.1308 12.0881 4.128C12.0909 4.12381 12.0951 4.12242 12.0993 4.12521L12.3899 4.29291L12.5199 4.06791C12.5199 4.06791 12.5311 4.06232 12.5339 4.06791L12.6638 4.29291L12.9545 4.12521C12.9545 4.12521 12.9601 4.12381 12.9629 4.12521C12.9671 4.128 12.9685 4.1322 12.9657 4.13639L12.784 4.45082Z" fill="black"/>
<path fill-rule="evenodd" clip-rule="evenodd" d="M12.2865 4.47199C12.2865 4.47199 12.2865 4.47199 12.2851 4.47199L12.1398 4.43286C12.1398 4.46081 12.144 4.48876 12.1537 4.51671C12.1663 4.55025 12.1845 4.5754 12.2096 4.60056C12.2152 4.60615 12.211 4.61453 12.204 4.61453H12.1118C12.116 4.6313 12.123 4.64807 12.1342 4.66205C12.1454 4.67881 12.1607 4.69279 12.1789 4.70257L12.2278 4.73052C12.2278 4.73052 12.2334 4.73891 12.2292 4.7431L12.1272 4.84511C12.1426 4.8535 12.1593 4.86048 12.1761 4.86328C12.2054 4.86747 12.225 4.86328 12.253 4.85629C12.2599 4.85489 12.2655 4.86188 12.2613 4.86747L12.2054 4.9639C12.2208 4.96809 12.2362 4.96949 12.2516 4.96949C12.2697 4.96949 12.2879 4.9639 12.3047 4.95551C12.3103 4.95272 12.3172 4.95831 12.3158 4.96529L12.2893 5.06451C12.3047 5.06451 12.32 5.06172 12.3354 5.05753C12.3522 5.05194 12.3689 5.04215 12.3843 5.02958C12.3899 5.02539 12.3969 5.02958 12.3969 5.03517V5.14137C12.4109 5.13718 12.4235 5.13299 12.436 5.1246C12.45 5.11622 12.464 5.10504 12.4738 5.09107C12.478 5.08687 12.4835 5.08687 12.4863 5.09107L12.5255 5.15954L12.5646 5.09107C12.5646 5.09107 12.5744 5.08548 12.5772 5.09107C12.5884 5.10504 12.6009 5.11622 12.6149 5.1246C12.6261 5.13159 12.6401 5.13718 12.654 5.14137V5.03517C12.654 5.03517 12.6624 5.02539 12.6666 5.02958C12.6806 5.04215 12.6974 5.05194 12.7155 5.05753C12.7309 5.06312 12.7463 5.06451 12.7616 5.06451L12.7351 4.96529C12.7351 4.96529 12.7407 4.95272 12.7463 4.95691C12.763 4.96529 12.7812 4.96949 12.7994 4.97088C12.8147 4.97088 12.8301 4.97088 12.8455 4.96529L12.7896 4.86887C12.7896 4.86887 12.7924 4.85629 12.798 4.85769L12.8147 4.86188C12.8525 4.87166 12.8916 4.86607 12.9251 4.84651L12.8231 4.7445C12.8231 4.7445 12.8203 4.73332 12.8259 4.73192L12.8748 4.70397C12.893 4.69279 12.9084 4.67881 12.9195 4.66344C12.9293 4.64947 12.9377 4.6327 12.9419 4.61593H12.8497C12.8427 4.61593 12.8385 4.60615 12.8441 4.60195C12.8692 4.5768 12.8874 4.55304 12.9 4.51811C12.9098 4.49156 12.914 4.46361 12.914 4.43426L12.7686 4.47339C12.7686 4.47339 12.7672 4.47339 12.7658 4.47339H12.2837L12.2865 4.47199ZM12.5115 4.99464C12.5115 4.99464 12.5031 4.99185 12.5031 4.98626C12.5031 4.98067 12.5059 4.97787 12.5115 4.97787H12.5436C12.5436 4.97787 12.552 4.98206 12.552 4.98626C12.552 4.99045 12.5492 4.99464 12.5436 4.99464H12.5115ZM12.5856 4.59357C12.5856 4.59357 12.5772 4.59357 12.5744 4.59077C12.5716 4.58658 12.5744 4.58239 12.5772 4.57959L12.654 4.53488C12.654 4.53488 12.6624 4.53488 12.6652 4.53767C12.6666 4.54186 12.6652 4.54606 12.6624 4.54885L12.5856 4.59357ZM12.4905 4.5223C12.4905 4.5223 12.4849 4.51531 12.4877 4.51112C12.4905 4.50693 12.4947 4.50553 12.4989 4.50832C12.5115 4.51531 12.5213 4.52649 12.5269 4.53907C12.5325 4.52649 12.5422 4.51671 12.5548 4.50832C12.559 4.50553 12.5632 4.50832 12.566 4.51112C12.5688 4.51531 12.566 4.5195 12.5632 4.5223C12.5492 4.53068 12.5408 4.54326 12.5366 4.55724C12.5325 4.57121 12.5338 4.58658 12.5422 4.60056C12.5506 4.61453 12.5632 4.62292 12.5772 4.62711C12.5911 4.6313 12.6065 4.6299 12.6205 4.62152L12.7197 4.56422C12.7197 4.56422 12.7281 4.56422 12.7309 4.56702C12.7337 4.57121 12.7309 4.5754 12.7281 4.5782L12.7015 4.59357C12.7015 4.59357 12.7015 4.60335 12.7015 4.60754C12.7015 4.62851 12.6946 4.64667 12.6834 4.66205C12.6722 4.67742 12.6554 4.68999 12.6373 4.69558C12.6135 4.70537 12.587 4.6858 12.587 4.66065C12.587 4.65506 12.587 4.64947 12.5897 4.64528C12.5842 4.64528 12.5772 4.64528 12.5716 4.64248C12.5534 4.63829 12.538 4.62571 12.5269 4.60894C12.5269 4.60894 12.5269 4.60615 12.5255 4.60475C12.5255 4.60475 12.5255 4.60754 12.5241 4.60894C12.5143 4.62571 12.4975 4.63829 12.4807 4.64248C12.4752 4.64388 12.4682 4.64528 12.4626 4.64528C12.4654 4.64947 12.4654 4.65506 12.4654 4.66065C12.4654 4.6858 12.4388 4.70537 12.4151 4.69558C12.3969 4.68999 12.3801 4.67742 12.3689 4.66205C12.3578 4.64667 12.3508 4.62851 12.3508 4.60754C12.3508 4.60335 12.3508 4.59776 12.3508 4.59357L12.3242 4.5782C12.3242 4.5782 12.3186 4.57121 12.3214 4.56702C12.3228 4.56283 12.3284 4.56143 12.3326 4.56422L12.4318 4.62152C12.4458 4.6299 12.4612 4.6313 12.4752 4.62711C12.4891 4.62292 12.5017 4.61453 12.5101 4.60056C12.5185 4.58658 12.5199 4.57121 12.5157 4.55724C12.5115 4.54326 12.5031 4.53068 12.4891 4.5223H12.4905ZM12.6163 4.64108C12.6163 4.64108 12.6163 4.64388 12.6163 4.64528C12.6163 4.66065 12.6261 4.67322 12.6387 4.67881C12.6373 4.67881 12.6345 4.68021 12.6331 4.68021C12.6177 4.6844 12.6037 4.67602 12.6037 4.66065C12.6037 4.65226 12.6079 4.64388 12.6163 4.64108ZM12.6834 4.62711C12.6834 4.62711 12.6736 4.61453 12.6666 4.61174L12.6862 4.60056C12.6862 4.60056 12.6862 4.60335 12.6862 4.60615C12.6862 4.61313 12.6862 4.62012 12.6834 4.62711ZM12.6526 4.62431C12.6638 4.62431 12.6722 4.6327 12.6722 4.64388C12.6722 4.65506 12.6638 4.66344 12.6526 4.66344C12.6415 4.66344 12.6331 4.65506 12.6331 4.64388C12.6331 4.6327 12.6429 4.62431 12.6526 4.62431ZM12.4374 4.64108C12.4458 4.64388 12.45 4.65226 12.45 4.66065C12.45 4.67742 12.4346 4.6858 12.4207 4.68021C12.4193 4.68021 12.4165 4.68021 12.4151 4.67881C12.429 4.67322 12.4374 4.66065 12.4374 4.64528C12.4374 4.64388 12.4374 4.64248 12.4374 4.64108ZM12.3703 4.62711C12.3703 4.62711 12.3676 4.61313 12.3676 4.60615C12.3676 4.60475 12.3676 4.60195 12.3676 4.60056L12.3857 4.61174C12.3857 4.61174 12.3731 4.62012 12.3703 4.62711ZM12.4025 4.62431C12.4137 4.62431 12.4221 4.6327 12.4221 4.64388C12.4221 4.65506 12.4137 4.66344 12.4025 4.66344C12.3913 4.66344 12.3829 4.65506 12.3829 4.64388C12.3829 4.6327 12.3913 4.62431 12.4025 4.62431ZM12.4766 4.58099C12.4766 4.58099 12.4821 4.58798 12.4793 4.59217C12.4766 4.59636 12.4724 4.59776 12.4682 4.59497L12.3913 4.55025C12.3913 4.55025 12.3857 4.54326 12.3885 4.53907C12.3913 4.53488 12.3955 4.53348 12.3997 4.53627L12.4766 4.58099ZM12.4905 4.68161C12.4905 4.68161 12.4989 4.67881 12.5017 4.68161C12.5045 4.6844 12.5045 4.68999 12.5017 4.69279L12.4598 4.73471C12.4598 4.73471 12.4514 4.73751 12.4486 4.73471C12.4458 4.73192 12.4458 4.72633 12.4486 4.72353L12.4905 4.68161ZM12.5534 4.69139C12.5534 4.69139 12.5506 4.68301 12.5534 4.68021C12.5562 4.67742 12.5618 4.67742 12.5646 4.68021L12.6065 4.72214C12.6065 4.72214 12.6093 4.73052 12.6065 4.73332C12.6037 4.73611 12.5981 4.73611 12.5953 4.73332L12.5534 4.69139ZM12.4542 4.80319C12.4542 4.80319 12.457 4.7948 12.4626 4.7948C12.4668 4.7948 12.471 4.7976 12.471 4.80319V4.83393C12.471 4.8521 12.4863 4.86747 12.5045 4.86747H12.552C12.5702 4.86747 12.5856 4.8521 12.5856 4.83393V4.80319C12.5856 4.80319 12.5884 4.7948 12.5939 4.7948C12.5995 4.7948 12.6023 4.7976 12.6023 4.80319V4.83393C12.6023 4.86048 12.58 4.88284 12.5534 4.88284H12.538V4.92896C12.538 4.94293 12.5492 4.95411 12.5632 4.95411H12.6051C12.6051 4.95411 12.6135 4.95831 12.6135 4.9625C12.6135 4.96669 12.6107 4.97088 12.6051 4.97088H12.5632C12.5492 4.97088 12.538 4.9639 12.5297 4.95411C12.5227 4.96529 12.5101 4.97088 12.4961 4.97088H12.4542C12.4542 4.97088 12.4458 4.96809 12.4458 4.9625C12.4458 4.95691 12.45 4.95411 12.4542 4.95411H12.4961C12.5101 4.95411 12.5213 4.94293 12.5213 4.92896V4.88284H12.5059C12.4793 4.88284 12.457 4.86048 12.457 4.83393V4.80319H12.4542ZM12.4193 4.87725C12.4193 4.87725 12.4137 4.87027 12.4165 4.86607C12.4193 4.86188 12.4235 4.86048 12.4276 4.86328L12.4975 4.90381C12.4975 4.90381 12.5031 4.91079 12.5003 4.91499C12.4975 4.91918 12.4933 4.92058 12.4891 4.91778L12.4193 4.87725ZM12.4193 4.908C12.4193 4.908 12.4137 4.90101 12.4165 4.89682C12.4193 4.89263 12.4235 4.89123 12.4276 4.89402L12.4849 4.92617C12.4849 4.92617 12.4905 4.93315 12.4877 4.93735C12.4849 4.94154 12.4807 4.94293 12.4766 4.94014L12.4207 4.908H12.4193ZM12.6261 4.86328C12.6261 4.86328 12.6345 4.86328 12.6373 4.86607C12.6387 4.87027 12.6373 4.87446 12.6345 4.87725L12.5646 4.91778C12.5646 4.91778 12.5562 4.91778 12.5534 4.91499C12.552 4.91079 12.5534 4.9066 12.5562 4.90381L12.6261 4.86328ZM12.6261 4.89402C12.6261 4.89402 12.6345 4.89402 12.6373 4.89682C12.6387 4.90101 12.6373 4.9052 12.6345 4.908L12.5772 4.94014C12.5772 4.94014 12.5688 4.94014 12.566 4.93735C12.5632 4.93315 12.566 4.92896 12.5688 4.92617L12.6261 4.89402Z" fill="#FED700"/>
<path d="M12.5262 4.24058L12.4876 4.27905L12.5261 4.31765L12.5647 4.27917L12.5262 4.24058Z" fill="#FED700"/>
<path fill-rule="evenodd" clip-rule="evenodd" d="M12.3857 4.37552V4.30844L12.116 4.15332L12.2446 4.37552H12.3857Z" fill="#FED700"/>
<path fill-rule="evenodd" clip-rule="evenodd" d="M12.6694 4.30844V4.37552H12.8092L12.9377 4.15332L12.6694 4.30844Z" fill="#FED700"/>
<path fill-rule="evenodd" clip-rule="evenodd" d="M12.654 4.37552V4.30565L12.5282 4.08765L12.4025 4.30565V4.37552H12.6554H12.654ZM12.4709 4.27351L12.5212 4.2232C12.5212 4.2232 12.5296 4.22041 12.5324 4.2232L12.5827 4.27351C12.5827 4.27351 12.5855 4.28189 12.5827 4.28469L12.5324 4.335C12.5324 4.335 12.524 4.33779 12.5212 4.335L12.4709 4.28469C12.4709 4.28469 12.4681 4.2763 12.4709 4.27351Z" fill="#FED700"/>
<path fill-rule="evenodd" clip-rule="evenodd" d="M12.2907 4.45522H12.7631L12.8008 4.39233H12.2544L12.2907 4.45522Z" fill="#FED700"/>
<path fill-rule="evenodd" clip-rule="evenodd" d="M11.7163 4.45082L11.8519 4.41448C11.8519 4.41448 11.8617 4.41588 11.8617 4.42147C11.8645 4.45501 11.8589 4.48855 11.8477 4.52069C11.8379 4.54864 11.8225 4.57379 11.8016 4.59615H11.884C11.884 4.59615 11.8924 4.60035 11.891 4.60594C11.8868 4.6283 11.8784 4.64926 11.8645 4.66882C11.8519 4.68699 11.8351 4.70236 11.8142 4.71494L11.7736 4.7387L11.8756 4.83931C11.8756 4.83931 11.8784 4.8477 11.8756 4.85189C11.8379 4.87704 11.7918 4.88543 11.7471 4.87425L11.7988 4.96369C11.7988 4.96369 11.7988 4.97347 11.7946 4.97487C11.775 4.98185 11.7541 4.98465 11.7331 4.98325C11.7177 4.98325 11.7024 4.97906 11.6884 4.97487L11.7135 5.0671C11.7135 5.0671 11.7121 5.07688 11.7065 5.07688C11.6856 5.07828 11.6646 5.07688 11.6451 5.06989C11.6311 5.0643 11.6171 5.05871 11.6045 5.04893V5.14815C11.6045 5.14815 11.6003 5.15793 11.5948 5.15654C11.5766 5.15234 11.5584 5.14675 11.5416 5.13557C11.5291 5.12719 11.5165 5.11881 11.5067 5.10623L11.4662 5.1761C11.4662 5.1761 11.455 5.18169 11.4522 5.1761L11.4117 5.10623C11.4019 5.11741 11.3893 5.12719 11.3767 5.13557C11.36 5.14536 11.3418 5.15234 11.3236 5.15654C11.3181 5.15654 11.3139 5.15374 11.3139 5.14815V5.04753C11.3013 5.05592 11.2873 5.06291 11.2733 5.0685C11.2538 5.07548 11.2328 5.07688 11.2118 5.07548C11.2077 5.07548 11.2035 5.07129 11.2049 5.0657L11.23 4.97347C11.216 4.97906 11.2007 4.98185 11.1853 4.98185C11.1643 4.98185 11.1448 4.98046 11.1252 4.97347C11.121 4.97207 11.1182 4.96648 11.121 4.96229L11.1727 4.87285C11.1504 4.87844 11.128 4.87984 11.107 4.87565C11.0847 4.87145 11.0637 4.86307 11.0442 4.85049C11.04 4.8477 11.0386 4.84211 11.0428 4.83792L11.1448 4.7373L11.1042 4.71354C11.0833 4.70236 11.0665 4.68559 11.0539 4.66743C11.0414 4.64786 11.0316 4.6269 11.0274 4.60594C11.0274 4.60035 11.0302 4.59615 11.0344 4.59615H11.1168C11.0959 4.57379 11.0805 4.54724 11.0707 4.52069C11.0581 4.48855 11.0539 4.45501 11.0567 4.42147C11.0567 4.41728 11.0609 4.41309 11.0665 4.41448L11.2021 4.45082L11.0204 4.13639C11.0204 4.13639 11.019 4.1308 11.0204 4.128C11.0232 4.12381 11.0274 4.12242 11.0316 4.12521L11.3222 4.29291L11.4522 4.06791C11.4522 4.06791 11.4634 4.06232 11.4662 4.06791L11.5962 4.29291L11.8868 4.12521C11.8868 4.12521 11.8924 4.12381 11.8952 4.12521C11.8994 4.128 11.9008 4.1322 11.898 4.13639L11.7163 4.45082Z" fill="black"/>
<path fill-rule="evenodd" clip-rule="evenodd" d="M11.2175 4.47199C11.2175 4.47199 11.2175 4.47199 11.2161 4.47199L11.0707 4.43286C11.0707 4.46081 11.0749 4.48876 11.0847 4.51671C11.0973 4.55025 11.1155 4.5754 11.1406 4.60056C11.1462 4.60615 11.142 4.61453 11.135 4.61453H11.0428C11.047 4.6313 11.054 4.64807 11.0651 4.66205C11.0763 4.67881 11.0917 4.69279 11.1099 4.70257L11.1588 4.73052C11.1588 4.73052 11.1644 4.73891 11.1602 4.7431L11.0582 4.84511C11.0735 4.8535 11.0903 4.86048 11.1071 4.86328C11.1364 4.86747 11.156 4.86328 11.1839 4.85629C11.1909 4.85489 11.1965 4.86188 11.1923 4.86747L11.1364 4.9639C11.1518 4.96809 11.1672 4.96949 11.1825 4.96949C11.2007 4.96949 11.2189 4.9639 11.2356 4.95551C11.2412 4.95272 11.2482 4.95831 11.2468 4.96529L11.2203 5.06451C11.2356 5.06451 11.2524 5.06172 11.2664 5.05753C11.2831 5.05194 11.2999 5.04215 11.3153 5.02958C11.3209 5.02539 11.3293 5.02958 11.3279 5.03517V5.14137C11.3418 5.13718 11.3544 5.13299 11.367 5.1246C11.381 5.11622 11.3949 5.10504 11.4047 5.09107C11.4075 5.08687 11.4145 5.08687 11.4173 5.09107L11.4564 5.15954L11.4956 5.09107C11.4956 5.09107 11.5053 5.08548 11.5081 5.09107C11.5193 5.10504 11.5319 5.11622 11.5459 5.1246C11.5571 5.13159 11.571 5.13718 11.585 5.14137V5.03517C11.585 5.03517 11.5934 5.02539 11.5976 5.02958C11.6116 5.04215 11.6283 5.05194 11.6465 5.05753C11.6619 5.06312 11.6772 5.06451 11.6926 5.06451L11.6661 4.96529C11.6661 4.96529 11.6716 4.95272 11.6772 4.95691C11.694 4.96529 11.7122 4.96949 11.7303 4.97088C11.7457 4.97088 11.7611 4.97088 11.7765 4.96529L11.7206 4.86887C11.7206 4.86887 11.7233 4.85629 11.7289 4.85769L11.7457 4.86188C11.7834 4.87166 11.8226 4.86607 11.8561 4.84651L11.7541 4.7445C11.7541 4.7445 11.7513 4.73332 11.7569 4.73192L11.8058 4.70397C11.824 4.69279 11.8393 4.67881 11.8505 4.66344C11.8603 4.64947 11.8687 4.6327 11.8729 4.61593H11.7806C11.7737 4.61593 11.7695 4.60615 11.7751 4.60195C11.8002 4.5768 11.8184 4.55304 11.831 4.51811C11.8407 4.49156 11.8449 4.46361 11.8449 4.43426L11.6996 4.47339C11.6996 4.47339 11.6982 4.47339 11.6968 4.47339H11.2147L11.2175 4.47199ZM11.4425 4.99464C11.4425 4.99464 11.4341 4.99185 11.4341 4.98626C11.4341 4.98067 11.4369 4.97787 11.4425 4.97787H11.4746C11.4746 4.97787 11.483 4.98206 11.483 4.98626C11.483 4.99045 11.4788 4.99464 11.4746 4.99464H11.4425ZM11.5179 4.59357C11.5179 4.59357 11.5095 4.59357 11.5067 4.59077C11.5039 4.58658 11.5067 4.58239 11.5095 4.57959L11.5864 4.53488C11.5864 4.53488 11.5948 4.53488 11.5976 4.53767C11.599 4.54186 11.5976 4.54606 11.5948 4.54885L11.5179 4.59357ZM11.4229 4.5223C11.4229 4.5223 11.4173 4.51531 11.4201 4.51112C11.4229 4.50693 11.4271 4.50553 11.4313 4.50832C11.4439 4.51531 11.4536 4.52649 11.4592 4.53907C11.4662 4.52649 11.4746 4.51671 11.4886 4.50832C11.4928 4.50553 11.497 4.50832 11.4998 4.51112C11.5026 4.51531 11.4998 4.5195 11.497 4.5223C11.483 4.53068 11.4746 4.54326 11.4704 4.55724C11.4662 4.57121 11.469 4.58658 11.476 4.60056C11.4844 4.61453 11.497 4.62292 11.5109 4.62711C11.5249 4.6313 11.5403 4.6299 11.5543 4.62152L11.6535 4.56422C11.6535 4.56422 11.6619 4.56422 11.6647 4.56702C11.6675 4.57121 11.6647 4.5754 11.6619 4.5782L11.6353 4.59357C11.6353 4.59357 11.6353 4.60335 11.6353 4.60754C11.6353 4.62851 11.6283 4.64667 11.6171 4.66205C11.606 4.67742 11.5892 4.68999 11.571 4.69558C11.5473 4.70537 11.5207 4.6858 11.5207 4.66065C11.5207 4.65506 11.5207 4.64947 11.5235 4.64528C11.5179 4.64528 11.5109 4.64528 11.5053 4.64248C11.4872 4.63829 11.4718 4.62571 11.4606 4.60894C11.4606 4.60894 11.4606 4.60615 11.4592 4.60475C11.4592 4.60475 11.4592 4.60754 11.4578 4.60894C11.448 4.62571 11.4313 4.63829 11.4145 4.64248C11.4089 4.64388 11.4019 4.64528 11.3963 4.64528C11.3991 4.64947 11.3991 4.65506 11.3991 4.66065C11.3991 4.6858 11.3726 4.70537 11.3488 4.69558C11.3307 4.68999 11.3139 4.67742 11.3027 4.66205C11.2915 4.64667 11.2845 4.62851 11.2845 4.60754C11.2845 4.60335 11.2845 4.59776 11.2845 4.59357L11.258 4.5782C11.258 4.5782 11.2524 4.57121 11.2552 4.56702C11.2566 4.56283 11.2622 4.56143 11.2664 4.56422L11.3656 4.62152C11.3796 4.6299 11.3949 4.6313 11.4089 4.62711C11.4229 4.62292 11.4355 4.61453 11.4439 4.60056C11.4522 4.58658 11.4536 4.57121 11.4494 4.55724C11.4453 4.54326 11.4369 4.53068 11.4229 4.5223ZM11.5487 4.64108C11.5487 4.64108 11.5487 4.64388 11.5487 4.64528C11.5487 4.66065 11.5584 4.67322 11.571 4.67881C11.5696 4.67881 11.5668 4.68021 11.5654 4.68021C11.5501 4.6844 11.5361 4.67602 11.5361 4.66065C11.5361 4.65226 11.5403 4.64388 11.5487 4.64108ZM11.6157 4.62711C11.6157 4.62711 11.606 4.61453 11.599 4.61174L11.6185 4.60056C11.6185 4.60056 11.6185 4.60335 11.6185 4.60615C11.6185 4.61313 11.6185 4.62012 11.6157 4.62711ZM11.5836 4.62431C11.5948 4.62431 11.6032 4.6327 11.6032 4.64388C11.6032 4.65506 11.5948 4.66344 11.5836 4.66344C11.5724 4.66344 11.564 4.65506 11.564 4.64388C11.564 4.6327 11.5738 4.62431 11.5836 4.62431ZM11.3698 4.64108C11.3782 4.64388 11.3824 4.65226 11.3824 4.66065C11.3824 4.67742 11.367 4.6858 11.353 4.68021C11.3516 4.68021 11.3488 4.68021 11.3474 4.67881C11.3614 4.67322 11.3698 4.66065 11.3698 4.64528C11.3698 4.64388 11.3698 4.64248 11.3698 4.64108ZM11.3027 4.62711C11.3027 4.62711 11.2999 4.61313 11.2999 4.60615C11.2999 4.60475 11.2999 4.60195 11.2999 4.60056L11.3181 4.61174C11.3181 4.61174 11.3055 4.62012 11.3027 4.62711ZM11.3335 4.62431C11.3446 4.62431 11.353 4.6327 11.353 4.64388C11.353 4.65506 11.3446 4.66344 11.3335 4.66344C11.3223 4.66344 11.3139 4.65506 11.3139 4.64388C11.3139 4.6327 11.3223 4.62431 11.3335 4.62431ZM11.4089 4.58099C11.4089 4.58099 11.4145 4.58798 11.4117 4.59217C11.4089 4.59636 11.4047 4.59776 11.4005 4.59497L11.3237 4.55025C11.3237 4.55025 11.3181 4.54326 11.3209 4.53907C11.3223 4.53488 11.3279 4.53348 11.3321 4.53627L11.4089 4.58099ZM11.4229 4.68161C11.4229 4.68161 11.4313 4.67881 11.4341 4.68161C11.4369 4.6844 11.4369 4.68999 11.4341 4.69279L11.3922 4.73471C11.3922 4.73471 11.3838 4.73751 11.381 4.73471C11.3782 4.73192 11.3782 4.72633 11.381 4.72353L11.4229 4.68161ZM11.4844 4.69139C11.4844 4.69139 11.4816 4.68301 11.4844 4.68021C11.4872 4.67742 11.4928 4.67742 11.4956 4.68021L11.5375 4.72214C11.5375 4.72214 11.5403 4.73052 11.5375 4.73332C11.5347 4.73611 11.5291 4.73611 11.5263 4.73332L11.4844 4.69139ZM11.3866 4.80319C11.3866 4.80319 11.3894 4.7948 11.3949 4.7948C11.3991 4.7948 11.4033 4.7976 11.4033 4.80319V4.83393C11.4033 4.8521 11.4187 4.86747 11.4369 4.86747H11.4844C11.5026 4.86747 11.5179 4.8521 11.5179 4.83393V4.80319C11.5179 4.80319 11.5207 4.7948 11.5263 4.7948C11.5319 4.7948 11.5347 4.7976 11.5347 4.80319V4.83393C11.5347 4.86048 11.5123 4.88284 11.4858 4.88284H11.4704V4.92896C11.4704 4.94293 11.4816 4.95411 11.4956 4.95411H11.5375C11.5375 4.95411 11.5459 4.95831 11.5459 4.9625C11.5459 4.96669 11.5431 4.97088 11.5375 4.97088H11.4956C11.4816 4.97088 11.4704 4.9639 11.462 4.95411C11.455 4.96529 11.4425 4.97088 11.4285 4.97088H11.3866C11.3866 4.97088 11.3782 4.96809 11.3782 4.9625C11.3782 4.95691 11.381 4.95411 11.3866 4.95411H11.4285C11.4425 4.95411 11.4536 4.94293 11.4536 4.92896V4.88284H11.4383C11.4117 4.88284 11.3894 4.86048 11.3894 4.83393V4.80319H11.3866ZM11.3516 4.87725C11.3516 4.87725 11.346 4.87027 11.3488 4.86607C11.3516 4.86188 11.3558 4.86048 11.36 4.86328L11.4299 4.90381C11.4299 4.90381 11.4355 4.91079 11.4327 4.91499C11.4299 4.91918 11.4257 4.92058 11.4215 4.91778L11.3516 4.87725ZM11.3516 4.908C11.3516 4.908 11.346 4.90101 11.3488 4.89682C11.3516 4.89263 11.3558 4.89123 11.36 4.89402L11.4173 4.92617C11.4173 4.92617 11.4229 4.93315 11.4201 4.93735C11.4173 4.94154 11.4131 4.94293 11.4089 4.94014L11.353 4.908H11.3516ZM11.5584 4.86328C11.5584 4.86328 11.5668 4.86328 11.5696 4.86607C11.5724 4.87027 11.5696 4.87446 11.5668 4.87725L11.497 4.91778C11.497 4.91778 11.4886 4.91778 11.4858 4.91499C11.4844 4.91079 11.4858 4.9066 11.4886 4.90381L11.5584 4.86328ZM11.5584 4.89402C11.5584 4.89402 11.5668 4.89402 11.5696 4.89682C11.5724 4.90101 11.5696 4.9052 11.5668 4.908L11.5095 4.94014C11.5095 4.94014 11.5012 4.94014 11.4984 4.93735C11.4956 4.93315 11.4984 4.92896 11.5012 4.92617L11.5584 4.89402Z" fill="#FED700"/>
<path d="M11.4586 4.23933L11.42 4.27783L11.4585 4.31641L11.4971 4.27791L11.4586 4.23933Z" fill="#FED700"/>
<path fill-rule="evenodd" clip-rule="evenodd" d="M11.3167 4.37552V4.30844L11.0483 4.15332L11.1769 4.37552H11.3167Z" fill="#FED700"/>
<path fill-rule="evenodd" clip-rule="evenodd" d="M11.6003 4.30844V4.37552H11.7415L11.8701 4.15332L11.6003 4.30844Z" fill="#FED700"/>
<path fill-rule="evenodd" clip-rule="evenodd" d="M11.585 4.37552V4.30565L11.4592 4.08765L11.3334 4.30565V4.37552H11.5864H11.585ZM11.4033 4.27351L11.4536 4.2232C11.4536 4.2232 11.462 4.22041 11.4648 4.2232L11.5151 4.27351C11.5151 4.27351 11.5179 4.28189 11.5151 4.28469L11.4648 4.335C11.4648 4.335 11.4564 4.33779 11.4536 4.335L11.4033 4.28469C11.4033 4.28469 11.4005 4.2763 11.4033 4.27351Z" fill="#FED700"/>
<path fill-rule="evenodd" clip-rule="evenodd" d="M11.223 4.45522H11.6954L11.7317 4.39233H11.1853L11.223 4.45522Z" fill="#FED700"/>
<path fill-rule="evenodd" clip-rule="evenodd" d="M12.2501 5.66817L12.3857 5.63184C12.3857 5.63184 12.3955 5.63323 12.3955 5.63882C12.3983 5.67236 12.3927 5.7059 12.3815 5.73804C12.3717 5.76599 12.3564 5.79115 12.3354 5.81351H12.4178C12.4178 5.81351 12.4262 5.8177 12.4248 5.82329C12.4206 5.84565 12.4123 5.86661 12.3983 5.88617C12.3857 5.90434 12.3689 5.91971 12.348 5.93229L12.3074 5.95605L12.4095 6.05667C12.4095 6.05667 12.4123 6.06505 12.4095 6.06924C12.3717 6.0944 12.3256 6.10278 12.2809 6.0916L12.3326 6.18104C12.3326 6.18104 12.3326 6.19082 12.3284 6.19222C12.3088 6.19921 12.2879 6.202 12.2669 6.2006C12.2515 6.2006 12.2376 6.19641 12.2222 6.19222L12.2474 6.28445C12.2474 6.28445 12.246 6.29423 12.2404 6.29423C12.2194 6.29563 12.1984 6.29423 12.1789 6.28725C12.1649 6.28166 12.1509 6.27607 12.1383 6.26628V6.3655C12.1383 6.3655 12.1342 6.37529 12.1286 6.37389C12.1104 6.37109 12.0922 6.36411 12.0755 6.35293C12.0629 6.34454 12.0503 6.33616 12.0405 6.32358L12 6.39345C12 6.39345 11.9888 6.39904 11.986 6.39345L11.9455 6.32358C11.9357 6.33476 11.9231 6.34454 11.9106 6.35293C11.8938 6.36271 11.8756 6.3697 11.8575 6.37389C11.8519 6.37389 11.8477 6.37109 11.8477 6.3669V6.26628C11.8351 6.27607 11.8211 6.28166 11.8072 6.28725C11.7876 6.29423 11.7666 6.29563 11.7457 6.29423C11.7415 6.29423 11.7373 6.29004 11.7387 6.28445L11.7638 6.19222C11.7499 6.19781 11.7345 6.2006 11.7191 6.2006C11.6981 6.2006 11.6786 6.19921 11.659 6.19222C11.6548 6.19082 11.652 6.18523 11.6548 6.18104L11.7065 6.0916C11.6842 6.09719 11.6618 6.09719 11.6409 6.0944C11.6185 6.0902 11.5975 6.08182 11.578 6.06924C11.5738 6.06645 11.5724 6.06086 11.5766 6.05667L11.6786 5.95605L11.6381 5.93229C11.6171 5.92111 11.6003 5.90434 11.5877 5.88617C11.5752 5.86801 11.5654 5.84565 11.5612 5.82469C11.5612 5.8191 11.564 5.8149 11.5682 5.8149H11.6506C11.6297 5.79254 11.6143 5.76599 11.6045 5.73944C11.5919 5.7073 11.5877 5.67376 11.5905 5.64022C11.5905 5.63603 11.5947 5.63184 11.6003 5.63323L11.7359 5.66957L11.5542 5.35514C11.5542 5.35514 11.5528 5.34955 11.5542 5.34675C11.557 5.34256 11.5612 5.34117 11.5654 5.34396L11.8561 5.51165L11.986 5.28666C11.986 5.28666 11.9972 5.28107 12 5.28666L12.13 5.51165L12.4206 5.34396C12.4206 5.34396 12.4262 5.34256 12.429 5.34396C12.4332 5.34675 12.4346 5.35095 12.4318 5.35514L12.2501 5.66957V5.66817Z" fill="black"/>
<path fill-rule="evenodd" clip-rule="evenodd" d="M11.7527 5.68903C11.7527 5.68903 11.7527 5.68903 11.7513 5.68903L11.606 5.6499C11.606 5.67785 11.6101 5.7058 11.6199 5.73375C11.6325 5.76729 11.6507 5.79244 11.6758 5.8176C11.6814 5.82319 11.6772 5.83157 11.6702 5.83157H11.578C11.5822 5.84834 11.5892 5.86511 11.6004 5.87909C11.6115 5.89586 11.6269 5.90983 11.6451 5.91961L11.694 5.94756C11.694 5.94756 11.6996 5.95595 11.6954 5.96014L11.5934 6.06215C11.6087 6.07054 11.6255 6.07753 11.6423 6.08032C11.6716 6.08451 11.6912 6.08032 11.7191 6.07333C11.7261 6.07194 11.7317 6.07892 11.7275 6.08451L11.6716 6.18094C11.687 6.18513 11.7024 6.18653 11.7177 6.18653C11.7359 6.18653 11.7541 6.18094 11.7709 6.17255C11.7764 6.16976 11.7834 6.17535 11.782 6.18234L11.7555 6.28155C11.7709 6.28155 11.7862 6.27876 11.8016 6.27457C11.8184 6.26898 11.8351 6.2592 11.8505 6.24662C11.8561 6.24243 11.8631 6.24662 11.8631 6.25221V6.35842C11.8771 6.35562 11.8896 6.35003 11.9022 6.34165C11.9162 6.33326 11.9302 6.32208 11.9399 6.30811C11.9427 6.30391 11.9497 6.30391 11.9525 6.30811L11.9917 6.37658L12.0308 6.30811C12.0308 6.30811 12.0406 6.30252 12.0434 6.30811C12.0545 6.32208 12.0671 6.33326 12.0811 6.34165C12.0937 6.34863 12.1062 6.35422 12.1202 6.35842V6.25221C12.1202 6.25221 12.1286 6.24243 12.1328 6.24662C12.1468 6.2592 12.1635 6.26898 12.1817 6.27457C12.1971 6.28016 12.2125 6.28155 12.2278 6.28155L12.2013 6.18234C12.2013 6.18234 12.2069 6.16976 12.2125 6.17395C12.2292 6.18234 12.2474 6.18653 12.2656 6.18792C12.2809 6.18792 12.2963 6.18793 12.3117 6.18234L12.2558 6.08591C12.2558 6.08591 12.2586 6.07333 12.2642 6.07473L12.2809 6.07892C12.3187 6.08871 12.3578 6.08312 12.3913 6.06355L12.2893 5.96154C12.2893 5.96154 12.2865 5.95036 12.2921 5.94896L12.341 5.92101C12.3592 5.90983 12.3746 5.89586 12.3857 5.88048C12.3955 5.86651 12.4039 5.84974 12.4081 5.83297H12.3159C12.3089 5.83297 12.3047 5.82319 12.3103 5.819C12.3354 5.79384 12.3536 5.77008 12.3662 5.73515C12.376 5.7086 12.3801 5.68065 12.3801 5.6513L12.2348 5.69043C12.2348 5.69043 12.2334 5.69043 12.232 5.69043H11.7499L11.7527 5.68903ZM11.9763 6.21168C11.9763 6.21168 11.9679 6.20889 11.9679 6.2033C11.9679 6.19771 11.9721 6.19491 11.9763 6.19491H12.0084C12.0084 6.19491 12.0168 6.1991 12.0168 6.2033C12.0168 6.20749 12.014 6.21168 12.0084 6.21168H11.9763ZM12.0517 5.81061C12.0517 5.81061 12.0434 5.81061 12.0406 5.80782C12.0378 5.80362 12.0406 5.79943 12.0434 5.79664L12.1202 5.75192C12.1202 5.75192 12.1286 5.75192 12.1314 5.75471C12.1328 5.7589 12.1314 5.7631 12.1286 5.76589L12.0517 5.81061ZM11.9567 5.73934C11.9567 5.73934 11.9511 5.73235 11.9539 5.72816C11.9567 5.72397 11.9609 5.72257 11.9651 5.72537C11.9777 5.73235 11.9875 5.74353 11.993 5.75611C12 5.74353 12.0084 5.73375 12.0224 5.72537C12.0266 5.72257 12.0308 5.72537 12.0336 5.72816C12.0364 5.73235 12.0336 5.73654 12.0308 5.73934C12.0168 5.74772 12.0084 5.7603 12.0042 5.77428C12 5.78825 12.0014 5.80362 12.0098 5.8176C12.0182 5.83157 12.0308 5.83996 12.0448 5.84415C12.0587 5.84834 12.0741 5.84694 12.0881 5.83856L12.1873 5.78126C12.1873 5.78126 12.1957 5.78126 12.1985 5.78406C12.2013 5.78825 12.1985 5.79244 12.1957 5.79524L12.1691 5.81061C12.1691 5.81061 12.1691 5.82039 12.1691 5.82459C12.1691 5.84555 12.1621 5.86371 12.151 5.87909C12.1398 5.89446 12.123 5.90704 12.1048 5.91263C12.0811 5.92101 12.0545 5.90424 12.0545 5.87769C12.0545 5.8721 12.0545 5.86651 12.0573 5.86232C12.0517 5.86232 12.0448 5.86232 12.0392 5.85952C12.021 5.85533 12.0056 5.84275 11.9944 5.82598C11.9944 5.82598 11.9944 5.82319 11.993 5.82179C11.993 5.82179 11.993 5.82458 11.9917 5.82598C11.9819 5.84275 11.9651 5.85533 11.9483 5.85952C11.9427 5.86092 11.9358 5.86232 11.9302 5.86232C11.933 5.86651 11.933 5.8721 11.933 5.87769C11.933 5.90284 11.9064 5.92101 11.8826 5.91263C11.8645 5.90704 11.8477 5.89446 11.8365 5.87909C11.8254 5.86371 11.8184 5.84415 11.8184 5.82459C11.8184 5.82039 11.8184 5.8148 11.8184 5.81061L11.7918 5.79524C11.7918 5.79524 11.7862 5.78825 11.789 5.78406C11.7904 5.77987 11.796 5.77847 11.8002 5.78126L11.8994 5.83856C11.9134 5.84694 11.9288 5.84834 11.9427 5.84415C11.9567 5.83996 11.9693 5.83157 11.9777 5.8176C11.9861 5.80362 11.9875 5.78825 11.9833 5.77428C11.9791 5.7603 11.9707 5.74772 11.9567 5.73934ZM12.0825 5.85812C12.0825 5.85812 12.0825 5.86092 12.0825 5.86232C12.0825 5.87769 12.0923 5.89027 12.1048 5.89586C12.1034 5.89586 12.1007 5.89725 12.0993 5.89725C12.0839 5.90145 12.0699 5.89306 12.0699 5.87769C12.0699 5.8693 12.0741 5.86092 12.0825 5.85812ZM12.1496 5.84415C12.1496 5.84415 12.1398 5.83157 12.1328 5.82878L12.1524 5.8176C12.1524 5.8176 12.1524 5.82039 12.1524 5.82319C12.1524 5.83017 12.1524 5.83716 12.1496 5.84415ZM12.1174 5.84135C12.1286 5.84135 12.137 5.84974 12.137 5.86092C12.137 5.8721 12.1286 5.88048 12.1174 5.88048C12.1062 5.88048 12.0979 5.8721 12.0979 5.86092C12.0979 5.84974 12.1076 5.84135 12.1174 5.84135ZM11.9036 5.85812C11.912 5.86092 11.9162 5.8693 11.9162 5.87769C11.9162 5.89446 11.9008 5.90284 11.8868 5.89725C11.8854 5.89725 11.8826 5.89725 11.8813 5.89586C11.8952 5.89027 11.9036 5.87769 11.9036 5.86232C11.9036 5.86092 11.9036 5.85952 11.9036 5.85812ZM11.8365 5.84415C11.8365 5.84415 11.8337 5.83017 11.8337 5.82319C11.8337 5.82179 11.8337 5.819 11.8337 5.8176L11.8519 5.82878C11.8519 5.82878 11.8393 5.83716 11.8365 5.84415ZM11.8673 5.84135C11.8785 5.84135 11.8868 5.84974 11.8868 5.86092C11.8868 5.8721 11.8785 5.88048 11.8673 5.88048C11.8561 5.88048 11.8477 5.8721 11.8477 5.86092C11.8477 5.84974 11.8561 5.84135 11.8673 5.84135ZM11.9427 5.79803C11.9427 5.79803 11.9483 5.80502 11.9455 5.80921C11.9427 5.81341 11.9385 5.8148 11.9344 5.81201L11.8575 5.76729C11.8575 5.76729 11.8519 5.7603 11.8547 5.75611C11.8575 5.75192 11.8617 5.75052 11.8659 5.75331L11.9427 5.79803ZM11.9567 5.89725C11.9567 5.89725 11.9651 5.89446 11.9679 5.89725C11.9707 5.90005 11.9707 5.90564 11.9679 5.90843L11.926 5.95036C11.926 5.95036 11.9176 5.95315 11.9148 5.95036C11.912 5.94756 11.912 5.94197 11.9148 5.93918L11.9567 5.89725ZM12.0182 5.90843C12.0182 5.90843 12.0154 5.90005 12.0182 5.89725C12.021 5.89446 12.0266 5.89446 12.0294 5.89725L12.0713 5.93918C12.0713 5.93918 12.0741 5.94756 12.0713 5.95036C12.0685 5.95315 12.0629 5.95315 12.0601 5.95036L12.0182 5.90843ZM11.9204 6.02023C11.9204 6.02023 11.9232 6.01184 11.9288 6.01184C11.933 6.01184 11.9372 6.01604 11.9372 6.02023V6.05097C11.9372 6.06914 11.9525 6.08451 11.9707 6.08451H12.0182C12.0364 6.08451 12.0517 6.06914 12.0517 6.05097V6.02023C12.0517 6.02023 12.0559 6.01184 12.0601 6.01184C12.0643 6.01184 12.0685 6.01604 12.0685 6.02023V6.05097C12.0685 6.07753 12.0462 6.09989 12.0196 6.09989H12.0042V6.146C12.0042 6.15998 12.0154 6.17116 12.0294 6.17116H12.0713C12.0713 6.17116 12.0797 6.17535 12.0797 6.17954C12.0797 6.18373 12.0769 6.18792 12.0713 6.18792H12.0294C12.0154 6.18792 12.0042 6.18094 11.9958 6.17116C11.9889 6.18234 11.9763 6.18792 11.9623 6.18792H11.9204C11.9204 6.18792 11.912 6.18513 11.912 6.17954C11.912 6.17395 11.9148 6.17116 11.9204 6.17116H11.9623C11.9763 6.17116 11.9875 6.15998 11.9875 6.146V6.09989H11.9721C11.9455 6.09989 11.9232 6.07753 11.9232 6.05097V6.02023H11.9204ZM11.8854 6.0943C11.8854 6.0943 11.8799 6.08731 11.8826 6.08312C11.8854 6.07892 11.8896 6.07753 11.8938 6.08032L11.9637 6.12085C11.9637 6.12085 11.9693 6.12783 11.9665 6.13203C11.9637 6.13622 11.9595 6.13762 11.9553 6.13482L11.8854 6.0943ZM11.8854 6.12504C11.8854 6.12504 11.8799 6.11805 11.8826 6.11386C11.8854 6.10967 11.8896 6.10827 11.8938 6.11106L11.9511 6.14321C11.9511 6.14321 11.9567 6.15019 11.9539 6.15439C11.9511 6.15858 11.9469 6.15998 11.9427 6.15718L11.8868 6.12504H11.8854ZM12.0923 6.08032C12.0923 6.08032 12.1007 6.08032 12.1034 6.08312C12.1062 6.08731 12.1034 6.0915 12.1007 6.0943L12.0308 6.13482C12.0308 6.13482 12.0224 6.13482 12.0196 6.13203C12.0182 6.12783 12.0196 6.12364 12.0224 6.12085L12.0923 6.08032ZM12.0923 6.11106C12.0923 6.11106 12.1007 6.11106 12.1034 6.11386C12.1062 6.11805 12.1034 6.12224 12.1007 6.12504L12.0434 6.15718C12.0434 6.15718 12.035 6.15718 12.0322 6.15439C12.0294 6.15019 12.0322 6.146 12.035 6.14321L12.0923 6.11106Z" fill="#FED700"/>
<path d="M11.9921 5.45639L11.9536 5.49487L11.992 5.53346L12.0306 5.49498L11.9921 5.45639Z" fill="#FED700"/>
<path fill-rule="evenodd" clip-rule="evenodd" d="M11.8505 5.59256V5.52548L11.5822 5.37036L11.7108 5.59256H11.8505Z" fill="#FED700"/>
<path fill-rule="evenodd" clip-rule="evenodd" d="M12.1342 5.52548V5.59256H12.2753L12.4039 5.37036L12.1342 5.52548Z" fill="#FED700"/>
<path fill-rule="evenodd" clip-rule="evenodd" d="M12.1188 5.59256V5.52269L11.993 5.30469L11.8672 5.52269V5.59256H12.1202H12.1188ZM11.9371 5.49055L11.9874 5.44024C11.9874 5.44024 11.9958 5.43745 11.9986 5.44024L12.0489 5.49055C12.0489 5.49055 12.0517 5.49893 12.0489 5.50173L11.9986 5.55204C11.9986 5.55204 11.9902 5.55483 11.9874 5.55204L11.9371 5.50173C11.9371 5.50173 11.9343 5.49335 11.9371 5.49055Z" fill="#FED700"/>
<path fill-rule="evenodd" clip-rule="evenodd" d="M11.7568 5.67226H12.2292L12.2655 5.60938H11.7191L11.7568 5.67226Z" fill="#FED700"/>
<path fill-rule="evenodd" clip-rule="evenodd" d="M16.6508 4.59351L16.8534 4.40904C16.8534 4.40904 16.8562 4.40625 16.8576 4.40625C16.8618 4.40625 16.866 4.40904 16.866 4.41324L16.8967 4.68574L17.1581 4.76959C17.1581 4.76959 17.1609 4.77099 17.1622 4.77238C17.165 4.77518 17.1636 4.78077 17.1609 4.78356L16.9401 4.94707L16.9987 5.21538C16.9987 5.21538 16.9987 5.21817 16.9987 5.21957C16.9973 5.22376 16.9918 5.22516 16.989 5.22376L16.7374 5.11476L16.5348 5.29923C16.5348 5.29923 16.532 5.30202 16.5306 5.30202C16.5264 5.30202 16.5222 5.29923 16.5222 5.29504L16.4915 5.02253L16.2301 4.93868C16.2301 4.93868 16.2273 4.93729 16.2259 4.93589C16.2232 4.93309 16.2246 4.9275 16.2273 4.92471L16.4481 4.76121L16.3895 4.49289C16.3895 4.49289 16.3895 4.4901 16.3895 4.4887C16.3908 4.48451 16.395 4.48311 16.3992 4.48451L16.6508 4.59351Z" fill="black"/>
<path fill-rule="evenodd" clip-rule="evenodd" d="M16.6913 4.88403L16.5474 5.26694L16.7262 5.10343L16.6913 4.88403Z" fill="#FED700"/>
<path fill-rule="evenodd" clip-rule="evenodd" d="M16.532 5.26132L16.6759 4.87842L16.504 5.01956L16.532 5.26132Z" fill="#FED700"/>
<path fill-rule="evenodd" clip-rule="evenodd" d="M16.7109 4.82968L16.8828 4.68854L16.8548 4.44678L16.7109 4.82968Z" fill="#FED700"/>
<path fill-rule="evenodd" clip-rule="evenodd" d="M16.6661 4.86597L16.2637 4.93304L16.4943 5.00711L16.6661 4.86597Z" fill="#FED700"/>
<path fill-rule="evenodd" clip-rule="evenodd" d="M17.1273 4.79053L16.7234 4.85761L16.9317 4.93586L17.1273 4.79053Z" fill="#FED700"/>
<path fill-rule="evenodd" clip-rule="evenodd" d="M16.7206 4.84232L17.1245 4.77524L16.8925 4.70117L16.7206 4.84232Z" fill="#FED700"/>
<path fill-rule="evenodd" clip-rule="evenodd" d="M16.2609 4.91755L16.6633 4.85047L16.4551 4.77222L16.2609 4.91755Z" fill="#FED700"/>
<path fill-rule="evenodd" clip-rule="evenodd" d="M16.6689 4.83658L16.4104 4.52075L16.4607 4.75832L16.6689 4.83658Z" fill="#FED700"/>
<path fill-rule="evenodd" clip-rule="evenodd" d="M16.9652 5.19717L16.7067 4.88135L16.7416 5.10075L16.9652 5.19717Z" fill="#FED700"/>
<path fill-rule="evenodd" clip-rule="evenodd" d="M16.7178 4.87158L16.9778 5.18741L16.9261 4.94984L16.7178 4.87158Z" fill="#FED700"/>
<path fill-rule="evenodd" clip-rule="evenodd" d="M16.4216 4.51099L16.6815 4.82681L16.6452 4.60741L16.4216 4.51099Z" fill="#FED700"/>
<path fill-rule="evenodd" clip-rule="evenodd" d="M16.8409 4.44116L16.6606 4.60467L16.6969 4.82407L16.8409 4.44116Z" fill="#FED700"/>
<path fill-rule="evenodd" clip-rule="evenodd" d="M7.25987 4.7108L7.4625 4.89527L7.71404 4.78627C7.71404 4.78627 7.72243 4.78627 7.72382 4.79046C7.72382 4.79186 7.72382 4.79325 7.72382 4.79465L7.66513 5.06296L7.88593 5.22647C7.88593 5.22647 7.89012 5.23345 7.88733 5.23765C7.88733 5.23904 7.88453 5.24044 7.88313 5.24044L7.62181 5.32429L7.58967 5.59679C7.58967 5.59679 7.58548 5.60378 7.58128 5.60378C7.57989 5.60378 7.57709 5.60378 7.57709 5.60099L7.37446 5.41652L7.12292 5.52552C7.12292 5.52552 7.11453 5.52552 7.11313 5.52133C7.11313 5.51993 7.11313 5.51854 7.11313 5.51714L7.17183 5.24883L6.95103 5.08532C6.95103 5.08532 6.94684 5.07834 6.94963 5.07414C6.94963 5.07414 6.95242 5.07135 6.95382 5.07135L7.21515 4.9875L7.24729 4.715C7.24729 4.715 7.25148 4.70801 7.25567 4.70801C7.25707 4.70801 7.25987 4.70801 7.25987 4.7108Z" fill="black"/>
<path fill-rule="evenodd" clip-rule="evenodd" d="M7.43732 5.18042L7.58126 5.56332L7.6092 5.32156L7.43732 5.18042Z" fill="#FED700"/>
<path fill-rule="evenodd" clip-rule="evenodd" d="M7.2724 4.74438L7.41634 5.12589L7.45267 4.90789L7.2724 4.74438Z" fill="#FED700"/>
<path fill-rule="evenodd" clip-rule="evenodd" d="M7.40236 5.13151L7.25702 4.75L7.23047 4.99036L7.40236 5.13151Z" fill="#FED700"/>
<path fill-rule="evenodd" clip-rule="evenodd" d="M7.56589 5.56894L7.42195 5.18604L7.38562 5.40544L7.56589 5.56894Z" fill="#FED700"/>
<path fill-rule="evenodd" clip-rule="evenodd" d="M7.44989 5.15394L7.85236 5.21962L7.65671 5.07568L7.44989 5.15394Z" fill="#FED700"/>
<path fill-rule="evenodd" clip-rule="evenodd" d="M6.98871 5.077L7.39118 5.14407L7.22069 5.00293L6.98871 5.077Z" fill="#FED700"/>
<path fill-rule="evenodd" clip-rule="evenodd" d="M7.38983 5.15936L6.98596 5.09229L7.18161 5.23762L7.38983 5.15936Z" fill="#FED700"/>
<path fill-rule="evenodd" clip-rule="evenodd" d="M7.84955 5.23627L7.44708 5.16919L7.61897 5.31033L7.84955 5.23627Z" fill="#FED700"/>
<path fill-rule="evenodd" clip-rule="evenodd" d="M7.4317 5.12857L7.69163 4.81274L7.46804 4.90917L7.4317 5.12857Z" fill="#FED700"/>
<path fill-rule="evenodd" clip-rule="evenodd" d="M7.13544 5.49063L7.39536 5.1748L7.18714 5.25167L7.13544 5.49063Z" fill="#FED700"/>
<path fill-rule="evenodd" clip-rule="evenodd" d="M7.4066 5.18457L7.14807 5.5004L7.37027 5.40257L7.4066 5.18457Z" fill="#FED700"/>
<path fill-rule="evenodd" clip-rule="evenodd" d="M7.70281 4.82275L7.44427 5.13858L7.6511 5.06032L7.70281 4.82275Z" fill="#FED700"/>
</g>
</g>
<rect x="0.25" y="0.25" width="23.5" height="23.5" rx="11.75" stroke="#E5E3E1" stroke-width="0.5"/>
<defs>
<clipPath id="clip0_16335_9518">
<rect width="24" height="24" rx="12" fill="white"/>
</clipPath>
</defs>
</svg>
