<svg width="24" height="24" viewBox="0 0 24 24" fill="none" xmlns="http://www.w3.org/2000/svg">
<path d="M12.0003 2C16.4184 2.0002 20.0003 5.58184 20.0003 10C20.0003 12.1067 19.1839 14.0215 17.8528 15.4502L19.9105 19.9775C20.2152 20.6483 19.7157 21.3919 19.0042 21.3916L18.89 21.3848L16.6019 21.1309L15.2269 22.667C14.7586 23.1901 13.9245 23.0752 13.6028 22.4785L13.5521 22.3682L12.0032 18.4561L10.4818 22.3633C10.2273 23.0159 9.40889 23.2018 8.89777 22.7588L8.81086 22.6738L7.40363 21.1309L5.10968 21.3848C4.37745 21.4657 3.82643 20.7602 4.04816 20.084L4.08918 19.9775L6.14582 15.4502C4.81515 14.0215 4.00031 12.1064 4.00031 10C4.00031 5.58172 7.58203 2 12.0003 2ZM12.0003 4C8.6866 4 6.00031 6.68629 6.00031 10C6.00031 13.3137 8.6866 16 12.0003 16C15.3138 15.9998 18.0003 13.3136 18.0003 10C18.0003 6.68641 15.3138 4.0002 12.0003 4ZM11.7405 7.16797C11.8418 6.94384 12.1607 6.94382 12.262 7.16797L12.9984 8.79883L14.7454 8.98047C14.9908 9.00588 15.0915 9.30917 14.9095 9.47559L13.6224 10.6514L13.9905 12.3701C14.0424 12.6124 13.7821 12.8017 13.5677 12.6777L12.0013 11.7715L10.4349 12.6777C10.2204 12.8018 9.96018 12.6124 10.012 12.3701L10.3802 10.6514L9.09308 9.47559C8.91104 9.30918 9.01179 9.00588 9.25714 8.98047L11.0042 8.79883L11.7405 7.16797Z" fill="#DF0000"/>
</svg>
