<svg width="48" height="48" viewBox="0 0 48 48" fill="none" xmlns="http://www.w3.org/2000/svg">
<path fill-rule="evenodd" clip-rule="evenodd" d="M16.4709 31.1196C19.6509 31.1196 22.2309 28.5396 22.2309 25.3596C22.2309 22.1796 19.6509 19.5996 16.4709 19.5996C13.2909 19.5996 10.7109 22.1796 10.7109 25.3596C10.7109 28.5396 13.2909 31.1196 16.4709 31.1196Z" fill="#DF0000"/>
<path fill-rule="evenodd" clip-rule="evenodd" d="M19.9295 23.8802H17.9495V21.9102H14.9895V23.8802H13.0195V26.8402H14.9895V28.8102H17.9495V26.8402H19.9295V23.8802Z" fill="white"/>
<path d="M30.4707 20.3096H36.4707C37.3907 20.3096 38.2207 20.8396 38.5707 21.6496L41.0107 27.3996H30.4807V20.3196L30.4707 20.3096Z" fill="#8DE2E0"/>
<path d="M26.1191 9.27043C26.6691 9.27043 27.1191 8.82043 27.1191 8.27043V5.44043C27.1191 4.89043 26.6691 4.44043 26.1191 4.44043C25.5691 4.44043 25.1191 4.89043 25.1191 5.44043V8.27043C25.1191 8.82043 25.5691 9.27043 26.1191 9.27043Z" fill="#323232"/>
<path d="M30.0798 10.2701C30.3398 10.2701 30.5898 10.1701 30.7898 9.98008L32.7898 7.98008C32.9898 7.78008 33.0798 7.53008 33.0798 7.27008C33.0798 7.01008 32.9798 6.76008 32.7898 6.56008C32.3998 6.17008 31.7698 6.17008 31.3798 6.56008L29.3798 8.56008C29.1798 8.76008 29.0898 9.01008 29.0898 9.27008C29.0898 9.53008 29.1898 9.78008 29.3798 9.98008C29.5798 10.1701 29.8298 10.2701 30.0898 10.2701H30.0798Z" fill="#323232"/>
<path d="M21.4597 9.98008C21.6597 10.1701 21.9097 10.2701 22.1697 10.2701C22.4297 10.2701 22.6797 10.1701 22.8797 9.98008C23.0797 9.79008 23.1697 9.53008 23.1697 9.27008C23.1697 9.01008 23.0697 8.76008 22.8797 8.56008L20.8797 6.56008C20.4897 6.17008 19.8597 6.17008 19.4697 6.56008C19.2697 6.76008 19.1797 7.01008 19.1797 7.27008C19.1797 7.53008 19.2797 7.78008 19.4697 7.98008L21.4697 9.98008H21.4597Z" fill="#323232"/>
<path fill-rule="evenodd" clip-rule="evenodd" d="M28.2502 13.6496V12.5196C28.2502 11.7396 27.6202 11.0996 26.8302 11.0996H25.4102C24.6302 11.0996 23.9902 11.7296 23.9902 12.5196V13.6496H28.2402H28.2502Z" fill="#DF0000"/>
<path d="M43.63 27.2204L41.76 26.6004L39.63 21.2804C39.15 20.0904 38.01 19.3204 36.73 19.3204H31.47V16.0704C31.47 14.7404 30.39 13.6504 29.05 13.6504H4.17C2.84 13.6504 1.75 14.7304 1.75 16.0704V36.1704C1.75 37.1104 2.52 37.8804 3.46 37.8804H8.85C9.04 39.8204 10.68 41.3404 12.66 41.3404C14.64 41.3404 16.28 39.8204 16.48 37.8804H35.06C35.25 39.8204 36.89 41.3404 38.88 41.3404C40.87 41.3404 42.52 39.8104 42.7 37.8504H44.55C45.49 37.8504 46.26 37.0804 46.26 36.1404V30.8704C46.26 29.2204 45.21 27.7604 43.64 27.2304L43.63 27.2204ZM36.73 21.3104C37.19 21.3104 37.6 21.5904 37.77 22.0204L39.52 26.4004H31.46V21.3204H36.72L36.73 21.3104ZM12.67 39.3204C11.66 39.3204 10.84 38.5004 10.84 37.4904C10.84 37.4104 10.84 37.3204 10.86 37.2404C10.9 37.1404 10.92 37.0304 10.93 36.9204C11.17 36.1804 11.86 35.6504 12.68 35.6504C13.5 35.6504 14.19 36.1804 14.43 36.9204C14.43 37.0304 14.46 37.1404 14.5 37.2404C14.5 37.3204 14.52 37.4004 14.52 37.4804C14.52 38.4904 13.7 39.3104 12.69 39.3104L12.67 39.3204ZM29.47 35.8704H16.14C15.53 34.5604 14.2 33.6604 12.67 33.6604C11.14 33.6604 9.81 34.5704 9.2 35.8704H3.75V16.0704C3.75 15.8404 3.94 15.6504 4.17 15.6504H29.05C29.28 15.6504 29.47 15.8404 29.47 16.0704V35.8704ZM38.88 39.3204C37.87 39.3204 37.05 38.5004 37.05 37.4904C37.05 37.4104 37.05 37.3304 37.07 37.2504C37.11 37.1504 37.14 37.0404 37.14 36.9304C37.38 36.1904 38.07 35.6604 38.89 35.6604C39.71 35.6604 40.4 36.2004 40.64 36.9404C40.64 37.0304 40.67 37.1204 40.7 37.2004C40.72 37.3004 40.72 37.3904 40.72 37.4904C40.72 38.5004 39.9 39.3204 38.89 39.3204H38.88ZM44.25 35.8404H42.33C41.71 34.5504 40.39 33.6604 38.87 33.6604C37.35 33.6604 36.01 34.5704 35.4 35.8704H31.47V28.4004H40.84L43 29.1204C43.75 29.3704 44.25 30.0704 44.25 30.8604V35.8404Z" fill="#323232"/>
</svg>
