<svg width="24" height="24" viewBox="0 0 24 24" fill="none" xmlns="http://www.w3.org/2000/svg">
<path fill-rule="evenodd" clip-rule="evenodd" d="M4.67103 6.95517C4.68276 6.95517 4.69655 6.96828 4.69655 6.98207L4.69379 6.98897C3.87862 8.39379 3.41379 10.0262 3.41379 11.7655C3.41379 17.02 7.6731 21.2793 12.929 21.2793C16.4786 21.2793 19.5752 19.3331 21.2145 16.4614C21.2172 16.4497 21.2269 16.4407 21.2372 16.4407C21.2538 16.4407 21.2628 16.4559 21.2628 16.4669C21.2628 16.4697 21.2614 16.471 21.2614 16.4724L21.2597 16.4778C19.7221 19.7414 16.4448 21.9428 12.6034 21.9428C7.30276 21.9428 3 17.6655 3 12.3641C3 10.3476 3.58828 8.50759 4.65172 6.96276C4.65862 6.95793 4.66276 6.95517 4.67103 6.95517ZM9.80276 17.4669L10.2717 17.9683C8.49103 18.9683 7.79724 18.7683 7.48345 18.4152C7.40897 18.3338 7.39448 18.2655 7.43517 18.22C7.47655 18.1793 7.5531 18.2 7.63931 18.2372C8.10276 18.4255 8.85172 18.069 9.80276 17.4669ZM16.0883 17.4669C17.0345 18.069 17.7876 18.4255 18.2524 18.2372C18.3372 18.2 18.4138 18.1779 18.4545 18.22C18.4966 18.2655 18.4814 18.3338 18.4076 18.4117C18.0952 18.7683 17.4 18.9669 15.6193 17.9683L16.0883 17.4669ZM21.2855 13.6434C19.2362 12.8269 16.1812 14.3366 13.6842 15.8419C14.4835 16.3738 15.2245 16.9046 15.8793 17.3317L15.6638 17.1858C16.6205 16.2572 16.9772 16.4105 17.0641 16.4469C17.1545 16.4834 17.2228 16.569 17.2241 16.6752C17.2303 16.8193 17.1193 16.9338 16.9848 16.9379C16.8462 16.9421 16.7317 16.829 16.729 16.6876C16.729 16.6683 16.7303 16.6524 16.7345 16.6338C16.5507 16.7479 16.3774 16.8901 16.0829 17.1778L15.8672 17.3925C15.7884 17.472 15.7021 17.5601 15.6069 17.6579C14.7433 18.5559 14.4663 18.6745 14.2785 18.684L14.2185 18.684C14.2088 18.6837 14.1992 18.6832 14.1897 18.6828C14.0552 18.6779 13.9483 18.5759 13.9462 18.4379C13.9434 18.2966 14.0524 18.18 14.1897 18.1779C14.3262 18.1724 14.4393 18.2841 14.4448 18.4241C14.4448 18.4331 14.4448 18.4407 14.4434 18.4503C14.6161 18.325 14.7977 18.1008 15.1671 17.7015C14.5712 17.3401 13.8058 16.8342 12.9462 16.2966C12.0846 16.8343 11.3189 17.3404 10.7227 17.7031C11.0939 18.1027 11.2754 18.325 11.4503 18.4503V18.4241C11.4545 18.2841 11.5676 18.1724 11.7041 18.1793C11.8379 18.18 11.9497 18.2966 11.9462 18.4379C11.9421 18.5759 11.8379 18.6779 11.7021 18.6841L11.6445 18.686C11.4568 18.6864 11.1974 18.6057 10.2821 17.6579C9.66828 17.0221 9.41862 16.7986 9.15517 16.6366C9.15931 16.6524 9.15931 16.6683 9.15931 16.689C9.15655 16.831 9.04345 16.9421 8.90414 16.9379C8.76828 16.9338 8.65793 16.8193 8.66138 16.6752C8.66483 16.5717 8.73172 16.4834 8.82483 16.4469C8.91116 16.4104 9.26616 16.2583 10.2269 17.1868L10.011 17.3317C10.6657 16.9045 11.4059 16.3733 12.205 15.8412C9.70885 14.3355 6.6547 12.8251 4.60621 13.6434C6.40414 11.7772 9.92483 13.5414 12.4952 15.0855C12.6464 15.1763 12.7962 15.2686 12.9444 15.3618C13.0925 15.2686 13.2424 15.1763 13.3938 15.0855C15.9655 13.5414 19.4876 11.7772 21.2855 13.6434ZM12.9469 2C13.3841 2.30069 13.4545 3.06966 13.4545 3.06966C13.8221 2.65793 14.7634 2.51172 15.3621 2.78966C15.0007 2.90207 14.7676 3.03793 14.5269 3.28966C15.9517 3.12897 18.1152 3.72483 19.5428 5.37724C18.2255 4.73655 16.771 4.26 15.2807 4.41034C16.6345 4.69517 18.9097 6.09034 19.3883 8.39448C17.9331 6.67172 16.4124 5.76966 15.251 5.55448C16.4407 6.44621 17.56 8.52 17.211 9.97931C16.5793 8.43103 15.4793 6.91793 14.469 6.36621C15.0407 7.3131 15.2283 9.59517 14.68 10.6021C14.5538 9.29241 14.1414 7.59724 13.4855 6.75586L13.2917 8.39448H13.5152L13.2821 10.0731H13.4655L13.2724 11.7379H13.4303L13.1876 13.3979L12.9469 13.5834L13.1848 13.4007L13.9752 13.8021V13.8614H11.92V13.8021L12.7041 13.4007L12.764 13.445L12.7014 13.3979L12.4593 11.7379H12.6179L12.4255 10.0731H12.6076L12.3745 8.39448H12.5993L12.4055 6.75586C11.7545 7.59724 11.3428 9.29241 11.2145 10.6021C10.6621 9.59517 10.8524 7.3131 11.4262 6.36621C10.4117 6.91793 9.31103 8.43103 8.68069 9.97931C8.3331 8.52 9.44828 6.44621 10.6421 5.55448C9.47655 5.76966 7.96138 6.67172 6.50345 8.39448C6.98483 6.09034 9.25724 4.69517 10.611 4.41034C9.12069 4.26 7.66759 4.73655 6.35172 5.37724C7.78069 3.72483 9.94 3.12897 11.371 3.28966C11.1255 3.03793 10.891 2.90207 10.5303 2.78966C11.1303 2.51172 12.0697 2.65793 12.4352 3.06966C12.4352 3.06966 12.5076 2.30069 12.9469 2L12.945 13.582L12.9469 13.5834V2Z" fill="#B99338"/>
</svg>
