<svg width="223" height="30" viewBox="0 0 223 30" fill="none" xmlns="http://www.w3.org/2000/svg">
<path d="M148.047 7.97953C148.047 9.46869 147.418 10.5944 146.416 11.1529L147.985 13.6614H146.558L145.255 11.5074C145.087 11.5429 144.918 11.5606 144.732 11.5606C142.764 11.5606 141.417 10.1778 141.417 7.97953V3.59182C141.417 1.39353 142.711 0.0107422 144.732 0.0107422C146.753 0.0107422 148.047 1.39353 148.047 3.59182V7.97953ZM142.587 8.01498C142.587 9.38005 143.367 10.3905 144.732 10.3905C146.097 10.3905 146.869 9.38005 146.869 8.01498V3.55636C146.869 2.1913 146.097 1.1808 144.732 1.1808C143.367 1.1808 142.587 2.1913 142.587 3.55636V8.01498Z" fill="#323232"/>
<path d="M150.813 11.3922L154.04 0.179199H155.218L158.472 11.3922H157.257L156.521 8.81279H152.683L151.965 11.3922H150.813ZM152.994 7.68705H156.229L154.589 1.93428L152.994 7.68705Z" fill="#323232"/>
<path d="M168.089 11.3922H167.123L162.744 2.72318V11.3922H161.654V0.179199H162.7L166.999 8.71528V0.179199H168.089V11.3922Z" fill="#323232"/>
<path d="M171.191 0.179199H177.671V1.35812H175.012V11.3922H173.842V1.35812H171.183V0.179199H171.191Z" fill="#323232"/>
<path d="M179.134 11.3922L182.36 0.179199H183.539L186.792 11.3922H185.578L184.842 8.81279H181.004L180.286 11.3922H179.134ZM181.314 7.68705H184.55L182.91 1.93428L181.314 7.68705Z" fill="#323232"/>
<path d="M194.539 3.37022V3.09543C194.539 1.9697 193.821 1.10102 192.563 1.10102C191.304 1.10102 190.613 1.80128 190.613 2.79406C190.613 3.58296 191.1 4.14139 191.765 4.43391L193.423 5.18735C194.575 5.70146 195.86 6.384 195.86 8.3075C195.86 10.231 194.522 11.5695 192.572 11.5695C190.622 11.5695 189.274 10.3551 189.274 8.41387V8.13908H190.426V8.47591C190.426 9.61938 191.207 10.4526 192.563 10.4526C193.919 10.4526 194.708 9.60165 194.708 8.45819C194.708 7.24381 193.928 6.76515 192.988 6.3574L191.561 5.71033C190.426 5.21394 189.487 4.39845 189.487 2.89156C189.487 1.19853 190.719 0.0107422 192.554 0.0107422C194.389 0.0107422 195.674 1.22512 195.674 3.16635V3.37022H194.539Z" fill="#323232"/>
<path d="M142.862 30.007H141.692V18.7939H142.862V30.007Z" fill="#323232"/>
<path d="M153.375 30.007H152.409L148.03 21.3379V30.007H146.939V18.7939H147.985L152.284 27.33V18.7939H153.375V30.007Z" fill="#323232"/>
<path d="M161.866 21.985V21.7102C161.866 20.5844 161.148 19.7158 159.89 19.7158C158.631 19.7158 157.94 20.416 157.94 21.4088C157.94 22.1977 158.427 22.7561 159.092 23.0487L160.75 23.8021C161.902 24.3162 163.187 24.9987 163.187 26.9222C163.187 28.8457 161.849 30.1842 159.899 30.1842C157.949 30.1842 156.601 28.9698 156.601 27.0286V26.7538H157.754V27.0907C157.754 28.2341 158.534 29.0673 159.89 29.0673C161.246 29.0673 162.044 28.2164 162.044 27.0729C162.044 25.8586 161.264 25.3799 160.324 24.9722L158.897 24.3251C157.762 23.8287 156.823 23.0132 156.823 21.5063C156.823 19.8133 158.046 18.6255 159.89 18.6255C161.733 18.6255 163.01 19.8399 163.01 21.7811V21.985H161.875H161.866Z" fill="#323232"/>
<path d="M173.177 18.7939V26.5943C173.177 28.7926 171.856 30.1754 169.924 30.1754C167.992 30.1754 166.689 28.7926 166.689 26.5943V18.7939H167.859V26.6298C167.859 27.9948 168.612 29.0053 169.933 29.0053C171.254 29.0053 172.025 27.9948 172.025 26.6298V18.7939H173.195H173.177Z" fill="#323232"/>
<path d="M182.387 30.007L180.641 25.5661C180.454 25.5838 180.366 25.5838 180.224 25.5838H178.354V30.007H177.184V18.7939H180.286C182.254 18.7939 183.681 20.1058 183.681 22.1357C183.681 23.6337 182.945 24.7595 181.811 25.2558L183.672 29.9981H182.396L182.387 30.007ZM178.354 19.9374V24.4581H180.197C181.607 24.4581 182.484 23.5362 182.484 22.1534C182.484 20.7706 181.607 19.9374 180.197 19.9374H178.354Z" fill="#323232"/>
<path d="M186.384 30.007L189.611 18.7939H190.79L194.043 30.007H192.829L192.093 27.4275H188.255L187.537 30.007H186.384ZM188.565 26.3018H191.8L190.16 20.549L188.565 26.3018Z" fill="#323232"/>
<path d="M203.35 30.007H202.384L198.005 21.3379V30.007H196.915V18.7939H197.961L202.26 27.33V18.7939H203.35V30.007Z" fill="#323232"/>
<path d="M213.712 26.4259V26.7804C213.712 28.8812 212.392 30.1754 210.459 30.1754C208.527 30.1754 207.162 28.7926 207.162 26.5943V22.2066C207.162 20.0083 208.456 18.6255 210.459 18.6255C212.462 18.6255 213.712 19.9196 213.712 22.0204V22.2775H212.595V21.985C212.595 20.7263 211.824 19.8044 210.459 19.8044C209.094 19.8044 208.323 20.8149 208.323 22.18V26.6386C208.323 28.0037 209.103 29.0142 210.459 29.0142C211.815 29.0142 212.595 28.0923 212.595 26.8336V26.4436H213.712V26.4259Z" fill="#323232"/>
<path d="M218.526 24.8569V28.8368H223.241V30.0158H217.364V18.8027H223.117V19.9817H218.526V23.7046H222.727V24.8657H218.526V24.8569Z" fill="#323232"/>
<path d="M130.31 0.0463867V30.193" stroke="#323232" stroke-width="0.666689" stroke-miterlimit="10"/>
<path d="M88.2771 30.0245H118.902L94.3667 5.38247C91.0959 2.11164 86.6639 0.17041 82.0368 0.17041H76.9045L77.2857 1.17205L78.9876 5.63067L88.286 30.0245H88.2771Z" fill="url(#paint0_linear_15605_2068)"/>
<path d="M78.9788 5.63091C82.3294 11.3571 91.1314 11.9598 92.0887 20.8594C92.1242 21.2228 92.4078 21.5153 92.7712 21.5773C97.8415 22.3662 102.779 24.4582 107.069 27.8974C107.069 27.8974 107.131 27.9329 107.166 27.9329C107.202 27.9329 107.246 27.9151 107.273 27.8885C107.335 27.8265 107.335 27.7379 107.273 27.6758C104.303 24.5557 100.669 22.056 96.5917 20.4162L95.3507 19.9198C94.7125 19.6627 94.2693 19.0334 94.287 18.3065C94.3579 15.6473 100.651 16.188 101.281 14.9116L101.387 14.69C100.093 13.582 98.5506 12.7487 96.8576 12.2878C96.8398 12.3499 96.8044 12.6601 97.1501 13.2274C97.5224 13.839 96.7423 14.8052 95.5989 13.7592L95.5014 13.6706C87.0007 5.8791 80.6275 9.92111 77.2592 1.18115L78.9611 5.63977L78.9788 5.63091Z" fill="white"/>
<path d="M99.4192 14.5478C99.4192 14.5478 98.0276 14.6187 97.1677 13.2271C97.4248 13.6437 97.1412 14.2198 96.5739 14.2287V16.3472C97.4869 16.0813 98.5328 15.9217 99.4104 15.7356V14.5567L99.4192 14.5478Z" fill="url(#paint1_linear_15605_2068)"/>
<path d="M93.8171 21.7635C98.5151 22.6676 103.071 24.6975 107.06 27.8974C98.1605 20.292 94.1008 21.666 93.8171 21.7635Z" fill="url(#paint2_linear_15605_2068)"/>
<path d="M80.7693 6.02938C79.3865 5.04547 78.2164 3.60063 77.2769 1.17188L78.9788 5.63049C82.3294 11.3567 91.1314 11.9594 92.0887 20.8589C91.1225 9.49522 86.132 11.1971 80.7693 6.02938Z" fill="url(#paint3_linear_15605_2068)"/>
<path d="M1.16119 6.5348V11.3834H0V0.17041H5.75277V1.34933H1.16119V5.37361H5.37162V6.5348H1.16119Z" fill="#323232"/>
<path d="M14.3953 11.3834L12.649 6.94255C12.4629 6.96028 12.3743 6.96028 12.2324 6.96028H10.3621V11.3834H9.20093V0.17041H12.3033C14.2712 0.17041 15.6894 1.48229 15.6894 3.51216C15.6894 5.01018 14.9537 6.13592 13.8191 6.63231L15.6717 11.3746H14.3953V11.3834ZM10.3621 1.31387V5.83454H12.2058C13.6152 5.83454 14.4928 4.91268 14.4928 3.52989C14.4928 2.14709 13.6152 1.31387 12.2058 1.31387H10.3621Z" fill="#323232"/>
<path d="M20.3253 6.23342V10.2045H25.0321V11.3834H19.1553V0.17041H24.908V1.34933H20.3253V5.07223H24.5269V6.23342H20.3253Z" fill="#323232"/>
<path d="M34.7736 7.97074C34.7736 9.4599 34.1443 10.5856 33.1515 11.1441L34.7116 13.6526H33.2845L31.9814 11.4986C31.813 11.5341 31.6446 11.5518 31.4585 11.5518C29.4906 11.5518 28.1433 10.169 28.1433 7.97074V3.58303C28.1433 1.38475 29.4286 0.00195312 31.4585 0.00195312C33.4883 0.00195312 34.7736 1.38475 34.7736 3.58303V7.97074ZM29.3134 8.00619C29.3134 9.37126 30.0934 10.3818 31.4585 10.3818C32.8235 10.3818 33.5858 9.37126 33.5858 8.00619V3.54757C33.5858 2.18251 32.8147 1.17201 31.4585 1.17201C30.1023 1.17201 29.3134 2.18251 29.3134 3.54757V8.00619Z" fill="#323232"/>
<path d="M44.6128 0.17041V7.97078C44.6128 10.1691 43.292 11.5519 41.3596 11.5519C39.4273 11.5519 38.1243 10.1691 38.1243 7.97078V0.17041H39.2855V8.00623C39.2855 9.3713 40.0389 10.3818 41.3596 10.3818C42.6804 10.3818 43.4427 9.3713 43.4427 8.00623V0.17041H44.6039H44.6128Z" fill="#323232"/>
<path d="M49.6298 6.23342V10.2045H54.3366V11.3834H48.4686V0.17041H54.2125V1.34933H49.6298V5.07223H53.8314V6.23342H49.6298Z" fill="#323232"/>
<path d="M64.2732 11.3834H63.3071L58.9371 2.71439V11.3834H57.8468V0.17041H58.8928L63.183 8.7065V0.17041H64.2732V11.3834Z" fill="#323232"/>
<path d="M67.2516 0.17041H73.7223V1.34933H71.072V11.3834H69.9019V1.34933H67.2516V0.17041Z" fill="#323232"/>
<path d="M32.2474 25.1495V29.9982H31.0774V18.7852H36.8302V19.9641H32.2474V23.9884H36.449V25.1495H32.2474Z" fill="#323232"/>
<path d="M41.4394 28.8193H45.8448V29.9982H40.2782V18.7852H41.4394V28.8193Z" fill="#323232"/>
<path d="M48.38 18.7852L50.6492 24.2454L52.9362 18.7852H54.1151L51.1988 25.513V29.9982H50.0376V25.5307L47.1213 18.7852H48.38Z" fill="#323232"/>
<path d="M58.5471 24.8482V28.8193H63.2539V29.9982H57.3771V18.7852H63.1298V19.9641H58.5471V23.687H62.7487V24.8482H58.5471Z" fill="#323232"/>
<path d="M71.9584 29.9982L70.2122 25.5573C70.026 25.575 69.9374 25.575 69.7955 25.575H67.9252V29.9982H66.764V18.7852H69.8665C71.8254 18.7852 73.2525 20.097 73.2525 22.1269C73.2525 23.6249 72.5168 24.7507 71.3822 25.2471L73.2348 29.9893H71.9584V29.9982ZM67.9252 19.9286V24.4493H69.769C71.1783 24.4493 72.0559 23.5274 72.0559 22.1446C72.0559 20.7618 71.1783 19.9286 69.769 19.9286H67.9252Z" fill="#323232"/>
<defs>
<linearGradient id="paint0_linear_15605_2068" x1="103.506" y1="29.9182" x2="83.0828" y2="0.0906358" gradientUnits="userSpaceOnUse">
<stop stop-color="#BE0000"/>
<stop offset="0.39" stop-color="#DD0000"/>
<stop offset="0.77" stop-color="#F60000"/>
<stop offset="1" stop-color="#FF0000"/>
</linearGradient>
<linearGradient id="paint1_linear_15605_2068" x1="97.868" y1="16.4536" x2="98.1428" y2="13.3068" gradientUnits="userSpaceOnUse">
<stop offset="0.65" stop-color="white" stop-opacity="0"/>
<stop offset="0.69" stop-color="#ECECEC" stop-opacity="0.0529"/>
<stop offset="0.76" stop-color="#D6D6D6" stop-opacity="0.25"/>
<stop offset="0.81" stop-color="#C5C5C5" stop-opacity="0.5184"/>
<stop offset="0.87" stop-color="#B9B9B9" stop-opacity="0.7569"/>
<stop offset="0.91" stop-color="#B1B1B1" stop-opacity="0.9409"/>
<stop offset="0.95" stop-color="#AFAFAF"/>
</linearGradient>
<linearGradient id="paint2_linear_15605_2068" x1="93.8171" y1="24.7595" x2="107.069" y2="24.7595" gradientUnits="userSpaceOnUse">
<stop stop-color="white" stop-opacity="0"/>
<stop offset="0.07" stop-color="#F3F3F3" stop-opacity="0.0225"/>
<stop offset="0.21" stop-color="#DEDEDE" stop-opacity="0.1681"/>
<stop offset="0.35" stop-color="#CDCDCD" stop-opacity="0.3844"/>
<stop offset="0.49" stop-color="#C0C0C0" stop-opacity="0.6241"/>
<stop offset="0.63" stop-color="#B6B6B6" stop-opacity="0.8281"/>
<stop offset="0.77" stop-color="#B0B0B0" stop-opacity="0.9604"/>
<stop offset="0.9" stop-color="#AFAFAF"/>
</linearGradient>
<linearGradient id="paint3_linear_15605_2068" x1="77.2769" y1="11.0198" x2="92.0798" y2="11.0198" gradientUnits="userSpaceOnUse">
<stop offset="0.25" stop-color="white" stop-opacity="0"/>
<stop offset="0.36" stop-color="#F6F6F6" stop-opacity="0.0121"/>
<stop offset="0.58" stop-color="#E0E0E0" stop-opacity="0.1444"/>
<stop offset="0.88" stop-color="#BDBDBD" stop-opacity="0.6724"/>
<stop offset="1" stop-color="#AFAFAF"/>
</linearGradient>
</defs>
</svg>
