<svg width="48" height="48" viewBox="0 0 48 48" fill="none" xmlns="http://www.w3.org/2000/svg">
<path d="M18.1491 15.2602C18.2691 15.6202 18.6591 15.8202 19.0291 15.7002L22.8591 14.4302C23.2191 14.3102 23.4191 13.9202 23.2991 13.5502L21.5191 8.18018L16.3691 9.89018L18.1491 15.2602Z" fill="#8DE2E0"/>
<path d="M34.9991 39.0098H27.9991C27.5131 39.0098 27.1191 39.4038 27.1191 39.8898V40.1298C27.1191 40.6158 27.5131 41.0098 27.9991 41.0098H34.9991C35.4852 41.0098 35.8791 40.6158 35.8791 40.1298V39.8898C35.8791 39.4038 35.4852 39.0098 34.9991 39.0098Z" fill="#DF0000"/>
<path d="M42.9794 33.27C43.8294 33.27 44.5194 32.58 44.5194 31.73V29.44C44.5194 28.59 43.8294 27.9 42.9794 27.9H42.1694C42.1994 27.65 42.1294 27.38 41.9694 27.17C41.9294 27.12 41.8594 26.97 41.8194 26.87C41.2294 25.6 40.4694 25.59 39.9394 25.81C39.4294 26.02 39.1894 26.6 39.3994 27.12C39.5094 27.4 39.7394 27.59 39.9994 27.68C39.9994 27.68 39.9994 27.7 40.0094 27.71C40.0394 27.78 40.0794 27.85 40.1194 27.93H37.0994C37.6194 27.82 37.9994 27.32 37.9094 26.8C37.8194 26.26 37.3494 25.89 36.7994 25.98C36.6594 25.95 36.2594 25.66 35.9394 25.43C35.1494 24.86 33.9594 24 32.1194 23.32C29.2094 22.26 26.6894 24.9 25.1794 26.47C24.8594 26.8 24.4194 27.26 24.2594 27.37C23.9994 27.48 23.8194 27.69 23.7194 27.94H19.8794C20.2494 27.6 20.3194 27.05 20.0294 26.63C19.7094 26.18 19.0894 26.09 18.6394 26.4C18.5894 26.43 18.4394 26.49 18.3294 26.54C17.3294 26.93 17.0694 27.47 17.0894 27.95H8.76937L40.4094 17.43C40.4094 17.43 40.4694 17.43 40.5094 17.42L41.4294 17.12C41.4994 17.1 41.5394 17.05 41.6094 17.02C41.6694 16.99 41.7294 16.96 41.7894 16.92C41.8894 16.85 41.9794 16.77 42.0694 16.68C42.1294 16.62 42.1794 16.55 42.2294 16.48C42.2594 16.43 42.2994 16.4 42.3294 16.35C42.5094 15.98 42.5394 15.57 42.4094 15.18V15.16L41.6894 13C41.5594 12.61 41.2894 12.29 40.9194 12.11C40.5494 11.93 40.1394 11.9 39.7494 12.03L39.1594 12.23L32.8794 3.49C32.4894 2.94 31.7894 2.72 31.1494 2.93L5.49937 11.4C4.85937 11.61 4.43937 12.21 4.44937 12.89L4.64937 23.64L4.05937 23.84C3.25937 24.11 2.81937 24.98 3.08937 25.78L3.48937 26.99L3.80937 27.96C3.80937 27.96 3.83937 28.01 3.84937 28.03C3.90937 28.17 3.97937 28.3 4.05937 28.41C4.08937 28.45 4.13937 28.49 4.16937 28.52C3.97937 28.78 3.85937 29.09 3.85937 29.43V31.72C3.85937 32.57 4.54937 33.26 5.39937 33.26H6.02937L9.22937 43.53C9.42937 44.18 10.0194 44.61 10.6994 44.61H37.6894C38.3694 44.61 38.9594 44.18 39.1594 43.53L42.3594 33.26H42.9894L42.9794 33.27ZM5.86937 31.25V29.92H42.5194V31.25H5.86937ZM26.6094 27.83C27.8594 26.53 29.7394 24.56 31.4194 25.17C32.9994 25.75 34.0194 26.48 34.7494 27.02C35.3094 27.43 35.8194 27.79 36.3794 27.91H26.5294C26.5294 27.91 26.5794 27.86 26.6094 27.83ZM31.4194 4.9L37.1494 12.87L6.62937 23L6.44937 13.19L31.4194 4.9ZM39.9094 14.05L39.9594 14.2L40.3294 15.31L5.54937 26.87L5.12937 25.61L39.9094 14.05ZM37.3494 42.62H11.0394L8.11937 33.25H40.2694L37.3494 42.62Z" fill="#323232"/>
<path d="M44.8589 42.94C44.5389 42.41 43.5789 41.72 42.6889 41.87C42.1089 41.97 41.6689 42.41 41.5489 43.01C41.5289 43.05 41.4589 43.11 41.3989 43.15C41.0489 42.85 40.5289 42.83 40.1489 43.11C39.7089 43.44 39.6189 44.07 39.9489 44.51C40.2789 44.94 40.7689 45.18 41.3089 45.18C41.4589 45.18 41.6089 45.16 41.7589 45.13C42.3689 44.99 42.9089 44.6 43.2289 44.09C43.5389 44.46 44.0789 44.56 44.5089 44.31C44.9789 44.03 45.1389 43.41 44.8489 42.94H44.8589Z" fill="#323232"/>
<path d="M31.2398 13.07C31.3798 13.07 31.5198 13.04 31.6498 12.98C31.9198 12.86 32.1098 12.63 32.1898 12.37C32.1898 12.37 32.2098 12.37 32.2098 12.36C32.4298 12.25 32.6998 12.12 32.9298 11.91C33.3398 11.55 33.3698 10.94 33.0198 10.52C32.6698 10.1 32.0298 10.06 31.6098 10.4C31.5598 10.44 31.4098 10.51 31.3098 10.56C30.0498 11.19 30.0698 11.95 30.3098 12.47C30.4798 12.84 30.8398 13.06 31.2198 13.06L31.2398 13.07Z" fill="#323232"/>
<path d="M7.64888 42.84C7.64888 42.84 7.64888 42.82 7.64888 42.81C7.59888 42.57 7.53888 42.28 7.39888 42C7.15888 41.51 6.56888 41.32 6.07888 41.56C5.58888 41.8 5.37888 42.4 5.60888 42.89C5.62888 42.94 5.66888 43.11 5.68888 43.22C5.93888 44.4 6.51888 44.69 7.03888 44.69C7.12888 44.69 7.20888 44.69 7.28888 44.67C7.82888 44.58 8.19888 44.06 8.10888 43.52C8.05888 43.23 7.88888 42.98 7.64888 42.84Z" fill="#323232"/>
<path d="M25.7086 35.3798C24.1486 35.8998 22.4486 35.4898 20.9586 35.1298L20.2786 34.9698C18.1786 34.4898 15.8386 36.1898 15.5786 36.3898C15.1386 36.7198 15.0486 37.3498 15.3786 37.7898C15.5786 38.0498 15.8786 38.1898 16.1786 38.1898C16.3886 38.1898 16.5986 38.1298 16.7786 37.9898C17.2486 37.6398 18.8186 36.6898 19.8286 36.9198L20.4786 37.0698C22.1486 37.4698 24.2386 37.9798 26.3386 37.2798C26.8586 37.1098 27.1486 36.5398 26.9686 36.0198C26.7986 35.4998 26.2286 35.2098 25.6986 35.3898L25.7086 35.3798Z" fill="#323232"/>
</svg>
