<svg width="48" height="48" viewBox="0 0 48 48" fill="none" xmlns="http://www.w3.org/2000/svg">
<path d="M40.8002 23.7H30.4102V16.83H36.2002C37.4502 16.83 38.5702 17.61 39.0002 18.79L40.8002 23.7Z" fill="#8DE2E0"/>
<path d="M46.2104 31.92V27.39C46.2104 25.22 44.9204 24.14 44.1404 23.84L41.5804 22.92L39.8304 18.13C39.8304 18.13 39.8004 18.05 39.7704 18C38.9804 16.51 37.4604 15.83 36.3904 15.83H31.4204V12.66C31.4204 11.71 31.0204 11.15 30.6804 10.84C29.8804 10.11 28.7804 10.19 28.7504 10.2H4.90038C3.80038 10.2 2.96038 10.51 2.40038 11.13C1.69038 11.91 1.75038 12.86 1.76038 12.87V31.64C1.76038 32.62 2.04038 33.38 2.60038 33.9C3.21038 34.46 3.91038 34.52 4.15038 34.52C4.19038 34.52 4.21038 34.52 4.23038 34.52H9.02038C9.32038 36.36 10.9104 37.78 12.8304 37.78C14.7504 37.78 16.3504 36.36 16.6404 34.52H34.1204C34.4204 36.36 36.0104 37.78 37.9304 37.78C39.8504 37.78 41.4504 36.36 41.7404 34.52H44.3204C44.9204 34.52 45.4404 34.29 45.7904 33.86C46.3404 33.18 46.2704 32.26 46.2104 31.9V31.92ZM36.3904 17.84C36.7004 17.84 37.5304 18.11 37.9804 18.89L39.3804 22.7H31.4204V17.83H36.3904V17.84ZM4.18038 32.54C3.83038 32.54 3.75038 32.06 3.75038 31.66V12.82C3.75038 12.82 3.75038 12.62 3.88038 12.48C4.05038 12.31 4.41038 12.21 4.89038 12.21H28.8204C28.9704 12.2 29.2204 12.23 29.3304 12.33C29.4104 12.4 29.4204 12.58 29.4204 12.67V32.53H16.4404C15.8804 31.08 14.4804 30.04 12.8304 30.04C11.1804 30.04 9.78038 31.08 9.22038 32.53H4.19038L4.18038 32.54ZM12.8204 35.8C11.7904 35.8 10.9404 34.96 10.9404 33.92C10.9404 32.88 11.7804 32.04 12.8204 32.04C13.8604 32.04 14.7004 32.88 14.7004 33.92C14.7004 34.96 13.8604 35.8 12.8204 35.8ZM37.9304 35.8C36.9004 35.8 36.0504 34.96 36.0504 33.92C36.0504 32.88 36.8904 32.04 37.9304 32.04C38.9704 32.04 39.8104 32.88 39.8104 33.92C39.8104 34.96 38.9704 35.8 37.9304 35.8ZM44.2404 32.54H41.5304C40.9704 31.09 39.5704 30.05 37.9204 30.05C36.2704 30.05 34.8704 31.09 34.3104 32.54H31.4104V24.71H40.6204L43.4104 25.71C43.4904 25.75 44.2004 26.1 44.2004 27.39V32.01C44.2004 32.07 44.2004 32.14 44.2204 32.2C44.2404 32.3 44.2404 32.44 44.2304 32.54H44.2404Z" fill="#323232"/>
<path d="M24.8002 29.83L24.8402 29.85L24.9202 29.82V29.69C23.1302 27.73 20.9502 26.15 18.5002 25.14L17.7502 24.83C17.3602 24.66 17.1002 24.27 17.1002 23.81C17.1402 22.14 20.9302 22.48 21.3202 21.68L21.3802 21.54C20.6002 20.84 19.6802 20.32 18.6602 20.02C18.6502 20.07 18.6202 20.25 18.8202 20.61C19.0502 20.99 18.5802 21.6 17.8902 20.94L17.8302 20.89C12.8202 16.1 10.5102 19.26 7.1102 13.69L6.9902 13.66L6.9502 13.79C9.6402 20.53 15.1202 19.11 15.7702 25.4C15.8002 25.63 15.9602 25.82 16.1902 25.85C19.2302 26.35 22.2002 27.66 24.7802 29.82H24.7902L24.8002 29.83Z" fill="#DF0000"/>
</svg>
