<svg width="24" height="24" viewBox="0 0 24 24" fill="none" xmlns="http://www.w3.org/2000/svg">
<path d="M19.6 20.9996L13.25 14.6496L14.65 13.2496L21 19.5996L19.6 20.9996ZM5.95 20.2996C4.95 19.2996 4.20833 18.1746 3.725 16.9246C3.24167 15.6746 3 14.3996 3 13.0996C3 11.7996 3.24167 10.5329 3.725 9.29961C4.20833 8.06628 4.95 6.94961 5.95 5.94961C6.95 4.94961 8.07083 4.20378 9.3125 3.71211C10.5542 3.22044 11.825 2.97461 13.125 2.97461C14.425 2.97461 15.6958 3.22044 16.9375 3.71211C18.1792 4.20378 19.3 4.94961 20.3 5.94961L5.95 20.2996ZM6.15 17.2496L7.5 15.8996C7.23333 15.5496 6.97917 15.1913 6.7375 14.8246C6.49583 14.4579 6.275 14.0913 6.075 13.7246C5.875 13.3579 5.7 12.9913 5.55 12.6246C5.4 12.2579 5.26667 11.8996 5.15 11.5496C4.96667 12.5329 4.95417 13.5163 5.1125 14.4996C5.27083 15.4829 5.61667 16.3996 6.15 17.2496ZM8.95 14.4996L14.5 8.89961C13.7833 8.34961 13.0625 7.90378 12.3375 7.56211C11.6125 7.22044 10.9333 6.98711 10.3 6.86211C9.66667 6.73711 9.09583 6.71628 8.5875 6.79961C8.07917 6.88294 7.68333 7.06628 7.4 7.34961C7.11667 7.64961 6.93333 8.05378 6.85 8.56211C6.76667 9.07044 6.7875 9.64544 6.9125 10.2871C7.0375 10.9288 7.27083 11.6079 7.6125 12.3246C7.95417 13.0413 8.4 13.7663 8.95 14.4996ZM15.9 7.49961L17.3 6.14961C16.4167 5.61628 15.4833 5.26628 14.5 5.09961C13.5167 4.93294 12.5333 4.94961 11.55 5.14961C11.9167 5.26628 12.2833 5.39961 12.65 5.54961C13.0167 5.69961 13.3833 5.87044 13.75 6.06211C14.1167 6.25378 14.4792 6.47044 14.8375 6.71211C15.1958 6.95378 15.55 7.21628 15.9 7.49961Z" fill="#323232"/>
</svg>
