<svg width="48" height="48" viewBox="0 0 48 48" fill="none" xmlns="http://www.w3.org/2000/svg">
<path d="M21.7304 3.99021C21.0004 3.99021 20.3004 4.13021 19.6504 4.36021C22.0004 5.21021 23.6804 7.46021 23.6804 10.1002C23.6804 12.7402 22.0004 14.9902 19.6504 15.8402C20.3004 16.0802 21.0004 16.2102 21.7304 16.2102C25.1104 16.2102 27.8504 13.4702 27.8504 10.0902C27.8504 6.71021 25.1104 3.97021 21.7304 3.97021V3.99021Z" fill="#8DE2E0"/>
<path d="M32.5209 45.0098H29.9409C28.5709 45.0098 27.4509 43.8898 27.4509 42.5198V40.6898C27.4509 40.6198 27.3809 40.5498 27.3109 40.5498H16.2509C16.1709 40.5498 16.1109 40.6198 16.1109 40.6998V42.5198C16.1109 43.8898 14.9909 45.0098 13.6209 45.0098H11.0409C9.67086 45.0098 8.55086 43.8898 8.55086 42.5198V39.3698C8.55086 38.8698 8.29086 38.3998 7.85086 38.0898C4.17086 35.5698 1.88086 30.5898 1.88086 25.1098C1.88086 18.0398 6.14086 12.2898 12.4909 10.8198C13.0309 10.6898 13.5709 11.0298 13.6909 11.5698C13.8109 12.1098 13.4809 12.6498 12.9409 12.7698C7.43086 14.0498 3.88086 18.8998 3.88086 25.1198C3.88086 29.9598 5.83086 34.2998 8.98086 36.4498C9.97086 37.1298 10.5509 38.2198 10.5509 39.3798V42.5298C10.5509 42.7998 10.7709 43.0198 11.0409 43.0198H13.6209C13.8909 43.0198 14.1109 42.7998 14.1109 42.5298V40.7098C14.1109 39.5298 15.0709 38.5698 16.2509 38.5698H27.3109C27.8809 38.5698 28.4209 38.7898 28.8209 39.1998C29.2209 39.6098 29.4509 40.1398 29.4509 40.7098V42.5398C29.4509 42.8098 29.6709 43.0298 29.9409 43.0298H32.5209C32.7909 43.0298 33.0109 42.8098 33.0109 42.5398V39.0098C33.0109 38.0498 33.4709 37.1198 34.2409 36.5398L34.5009 36.3398C36.2909 34.9898 37.9709 33.7198 38.9709 31.5398C39.4809 30.4098 40.5909 29.6898 41.7909 29.6898C42.4509 29.6898 42.9409 29.2998 43.0709 28.7398L44.1309 22.8198C44.1009 21.6798 43.4409 21.6798 43.1909 21.6798H41.8709C40.6609 21.6798 39.5609 20.9998 39.0609 19.9598C38.4609 18.6998 37.5809 17.9298 36.3509 16.8598C36.1009 16.6398 35.8409 16.4098 35.5709 16.1698C35.3609 15.9798 35.2409 15.7098 35.2409 15.4298V10.1298L32.8809 12.4898C32.6909 12.6798 32.4409 12.7798 32.1709 12.7798H30.6809C30.1309 12.7798 29.6809 12.3298 29.6809 11.7798C29.6809 11.2298 30.1309 10.7798 30.6809 10.7798H31.7609L34.3209 8.21976C34.8109 7.72976 35.5509 7.57976 36.1909 7.84976C36.8309 8.11976 37.2509 8.73976 37.2509 9.42976V14.9698C37.4009 15.0998 37.5409 15.2198 37.6809 15.3498C38.9809 16.4798 40.1009 17.4598 40.8809 19.0898C41.0509 19.4398 41.4409 19.6698 41.8809 19.6698H43.2009C44.9909 19.6698 46.1409 20.9398 46.1409 22.8898C46.1409 22.9498 46.1409 23.0098 46.1209 23.0698L45.0309 29.1298C44.6709 30.6498 43.3809 31.6698 41.8709 31.6698C41.3709 31.6698 40.9809 31.9298 40.7909 32.3498C39.5809 34.9998 37.6109 36.4798 35.7009 37.9198L35.4409 38.1198C35.1709 38.3298 35.0109 38.6498 35.0109 38.9898V42.5198C35.0109 43.8898 33.8909 45.0098 32.5209 45.0098Z" fill="#323232"/>
<path d="M7.33075 25.8299C7.33075 25.8299 7.30075 25.8299 7.29075 25.8299C6.74075 25.8099 6.31075 25.3399 6.33075 24.7899C6.46075 21.5599 7.70075 18.6599 9.82075 16.6099C10.2207 16.2299 10.8507 16.2399 11.2307 16.6299C11.6107 17.0299 11.6007 17.6599 11.2107 18.0399C9.46075 19.7299 8.44075 22.1599 8.33075 24.8699C8.31075 25.4099 7.86075 25.8299 7.33075 25.8299Z" fill="#8DE2E0"/>
<path d="M21.7291 17.22C17.8091 17.22 14.6191 14.03 14.6191 10.1C14.6191 6.16998 17.8091 2.97998 21.7291 2.97998C25.6491 2.97998 28.8491 6.16998 28.8491 10.1C28.8491 14.03 25.6591 17.22 21.7291 17.22ZM21.7291 4.98998C18.9091 4.98998 16.6191 7.27998 16.6191 10.11C16.6191 12.94 18.9091 15.23 21.7291 15.23C24.5491 15.23 26.8491 12.94 26.8491 10.11C26.8491 7.27998 24.5591 4.98998 21.7291 4.98998Z" fill="#323232"/>
<path d="M36.2305 22.7801C35.6805 22.7801 35.2305 22.3301 35.2305 21.7801V19.5601C35.2305 19.0101 35.6805 18.5601 36.2305 18.5601C36.7805 18.5601 37.2305 19.0101 37.2305 19.5601V21.7801C37.2305 22.3301 36.7805 22.7801 36.2305 22.7801Z" fill="#323232"/>
</svg>
