<svg width="48" height="48" viewBox="0 0 48 48" fill="none" xmlns="http://www.w3.org/2000/svg">
<path fill-rule="evenodd" clip-rule="evenodd" d="M15.0993 20.27H19.3793C19.9693 20.27 20.4493 20.75 20.4493 21.34V27.76C20.4493 28.35 19.9693 28.83 19.3793 28.83H15.0993C14.5093 28.83 14.0293 28.35 14.0293 27.76V21.34C14.0293 20.75 14.5093 20.27 15.0993 20.27Z" fill="#DF0000"/>
<path d="M19.5291 30.4198H8.00908V12.9998L17.2291 5.61977L22.6691 9.96977C22.6691 9.96977 22.7491 10.0398 22.7891 10.0698L26.6591 13.1698V18.8598C26.6591 19.4098 27.1091 19.8598 27.6591 19.8598C28.2091 19.8598 28.6591 19.4098 28.6591 18.8598V14.7698L30.8291 16.5098C31.0091 16.6598 31.2291 16.7298 31.4491 16.7298C31.7391 16.7298 32.0291 16.5998 32.2291 16.3498C32.5791 15.9198 32.5091 15.2898 32.0691 14.9398L28.6491 12.1998V5.74977C28.6491 5.19977 28.1991 4.74977 27.6491 4.74977H23.3791C22.8291 4.74977 22.3791 5.19977 22.3791 5.74977V7.17977L17.8391 3.53977C17.4691 3.24977 16.9591 3.24977 16.5891 3.53977L2.37908 14.9498C1.94908 15.2898 1.87908 15.9198 2.21908 16.3598C2.55908 16.7898 3.18908 16.8598 3.62908 16.5198L6.01908 14.6098V31.4298C6.01908 31.9798 6.46908 32.4298 7.01908 32.4298H19.5391C20.0891 32.4298 20.5391 31.9798 20.5391 31.4298C20.5391 30.8798 20.0891 30.4298 19.5391 30.4298L19.5291 30.4198ZM24.3991 6.76977H26.6691V10.6198L24.3991 8.79977V6.76977Z" fill="#323232"/>
<path d="M34.1984 21.0596C27.6884 21.0596 22.3984 26.3496 22.3984 32.8596C22.3984 39.3696 27.6884 44.6596 34.1984 44.6596C40.7084 44.6596 45.9984 39.3696 45.9984 32.8596C45.9984 26.3496 40.7084 21.0596 34.1984 21.0596ZM34.1984 42.6596C28.7984 42.6596 24.3984 38.2596 24.3984 32.8596C24.3984 27.4596 28.7984 23.0596 34.1984 23.0596C39.5984 23.0596 43.9984 27.4596 43.9984 32.8596C43.9984 38.2596 39.5984 42.6596 34.1984 42.6596Z" fill="#323232"/>
<path d="M35.5404 31.25V30.99C35.5404 30.3 35.0804 29.82 34.3804 29.82C33.6804 29.82 33.2704 30.25 33.2704 30.83C33.2704 31.18 33.4204 31.62 33.9904 31.84L35.1904 32.31C36.2504 32.74 37.4204 33.32 37.4204 34.99C37.4204 36.47 36.4804 37.52 35.0004 37.71V39.11H33.7404V37.69C32.3304 37.45 31.4004 36.5 31.4004 35.09V34.79H33.1004V35.16C33.1004 35.89 33.5804 36.32 34.4104 36.32C35.2404 36.32 35.7204 35.84 35.7204 35.17C35.7204 34.6 35.4304 34.23 34.8604 33.99L33.5604 33.48C32.3704 33.01 31.5804 32.24 31.5804 30.95C31.5804 29.73 32.3704 28.7 33.7204 28.45V27.04H34.9804V28.45C36.3204 28.67 37.2204 29.64 37.2204 31.06V31.25H35.5204H35.5404Z" fill="#DF0000"/>
</svg>
