<svg width="48" height="48" viewBox="0 0 48 48" fill="none" xmlns="http://www.w3.org/2000/svg">
<path fill-rule="evenodd" clip-rule="evenodd" d="M20.8109 28.6099H27.1909C28.0709 28.6099 28.7909 29.3199 28.7909 30.2099V39.7999C28.7909 40.6799 28.0809 41.3999 27.1909 41.3999H20.8109C19.9309 41.3999 19.2109 40.6899 19.2109 39.7999V30.2099C19.2109 29.3299 19.9209 28.6099 20.8109 28.6099Z" fill="#DF0000"/>
<path d="M45.8691 20.0102L40.5791 15.7802V5.91021C40.5791 5.36021 40.1291 4.91021 39.5791 4.91021H33.1991C32.6491 4.91021 32.1991 5.36021 32.1991 5.91021V9.07021L24.6191 3.00021C24.2491 2.71021 23.7391 2.71021 23.3691 3.00021L15.8191 9.04022C15.3891 9.38022 15.3191 10.0102 15.6591 10.4502C15.9991 10.8802 16.6291 10.9502 17.0691 10.6102L23.9991 5.07021L38.5791 16.7402V43.2202H9.73908V16.4802L11.9091 14.7502C12.3391 14.4102 12.4091 13.7802 12.0691 13.3402C11.7191 12.9102 11.0991 12.8402 10.6591 13.1802L2.12908 20.0102C1.69908 20.3502 1.62908 20.9802 1.96908 21.4202C2.16908 21.6702 2.45908 21.8002 2.74908 21.8002C2.96908 21.8002 3.18908 21.7302 3.36908 21.5802L7.72908 18.0902V44.2302C7.72908 44.7802 8.17908 45.2302 8.72908 45.2302H39.5791C40.1291 45.2302 40.5791 44.7802 40.5791 44.2302V18.3502L44.6191 21.5802C44.7991 21.7302 45.0191 21.8002 45.2391 21.8002C45.5291 21.8002 45.8191 21.6702 46.0191 21.4202C46.3691 20.9902 46.2991 20.3602 45.8591 20.0102H45.8691ZM34.2091 10.6702V6.91021H38.5891V14.1702L34.2091 10.6702Z" fill="#323232"/>
<path d="M28.2603 18.6598C28.0303 18.6598 27.8103 18.5798 27.6203 18.4298L22.0503 13.7998L18.1203 16.8798C17.7103 17.1998 17.1303 17.1498 16.7803 16.7798L10.5503 10.1898C10.1703 9.78977 10.1903 9.15977 10.5903 8.77977C10.9903 8.39977 11.6203 8.41977 12.0003 8.81977L17.6103 14.7498L21.4503 11.7398C21.8203 11.4498 22.3403 11.4598 22.7103 11.7598L28.9003 16.8998C29.3203 17.2498 29.3803 17.8798 29.0303 18.3098C28.8303 18.5498 28.5503 18.6698 28.2603 18.6698V18.6598Z" fill="#DF0000"/>
</svg>
