<svg width="48" height="48" viewBox="0 0 48 48" fill="none" xmlns="http://www.w3.org/2000/svg">
<path d="M12.9895 27.3699C12.8695 27.3699 12.7595 27.3499 12.6395 27.3099C8.07953 25.6099 5.01953 21.1999 5.01953 16.3399C5.01953 9.87988 10.2695 4.62988 16.7295 4.62988C23.1895 4.62988 28.4395 9.87988 28.4395 16.3399C28.4395 21.1999 25.3795 25.6099 20.8195 27.3099C20.2995 27.4999 19.7295 27.2399 19.5295 26.7199C19.3395 26.1999 19.5995 25.6299 20.1195 25.4299C23.8995 24.0199 26.4395 20.3599 26.4395 16.3299C26.4395 10.9799 22.0795 6.61988 16.7295 6.61988C11.3795 6.61988 7.01953 10.9799 7.01953 16.3299C7.01953 20.3599 9.55953 24.0199 13.3395 25.4299C13.8595 25.6199 14.1195 26.1999 13.9295 26.7199C13.7795 27.1199 13.3995 27.3699 12.9895 27.3699Z" fill="#323232"/>
<path d="M19.901 26.8103C19.901 26.8103 19.861 26.8103 19.851 26.8103C19.301 26.7803 18.881 26.3103 18.901 25.7603C19.011 23.7203 18.541 21.7003 17.551 19.9203L17.331 19.5103C17.061 19.0303 17.241 18.4203 17.721 18.1503C18.201 17.8803 18.811 18.0603 19.081 18.5403L19.301 18.9403C20.481 21.0503 21.031 23.4403 20.901 25.8603C20.871 26.3903 20.431 26.8103 19.901 26.8103Z" fill="#323232"/>
<path d="M14.3595 25.9901C14.1695 25.9901 13.9795 25.9401 13.7995 25.8201C13.3395 25.5101 13.2195 24.8901 13.5295 24.4301C14.4795 23.0101 15.0895 21.3801 15.2795 19.7001L15.3295 19.2601C15.3895 18.7101 15.8595 18.3201 16.4295 18.3801C16.9795 18.4401 17.3695 18.9301 17.3095 19.4801L17.2595 19.9301C17.0195 21.9301 16.2995 23.8701 15.1795 25.5501C14.9895 25.8401 14.6695 25.9901 14.3495 25.9901H14.3595Z" fill="#323232"/>
<path d="M25.0693 23.4502C24.7393 23.4502 24.4193 23.2902 24.2293 23.0002L24.0193 22.6802C22.9093 20.9702 21.3493 19.6102 19.4893 18.7502L19.0793 18.5602C18.5793 18.3302 18.3593 17.7302 18.5893 17.2302C18.8193 16.7302 19.4193 16.5102 19.9193 16.7402L20.3293 16.9302C22.5293 17.9502 24.3893 19.5602 25.6993 21.5902L25.9093 21.9102C26.2093 22.3702 26.0793 22.9902 25.6193 23.2902C25.4493 23.4002 25.2593 23.4502 25.0693 23.4502Z" fill="#323232"/>
<path d="M8.33925 23.3701C7.89925 23.3701 7.49925 23.0801 7.37925 22.6301C7.23925 22.1001 7.54925 21.5501 8.08925 21.4001L8.45925 21.3001C10.4292 20.7701 12.1992 19.7001 13.5992 18.2001L13.9092 17.8701C14.2892 17.4701 14.9192 17.4501 15.3192 17.8301C15.7192 18.2101 15.7392 18.8401 15.3592 19.2401L15.0492 19.5701C13.3992 21.3401 11.2992 22.6001 8.96925 23.2301L8.59925 23.3301C8.50925 23.3501 8.42925 23.3601 8.33925 23.3601V23.3701Z" fill="#323232"/>
<path d="M27.0704 17.3697C26.9504 17.3697 26.8304 17.3497 26.7104 17.2997L26.3504 17.1597C24.4204 16.4197 22.2904 16.2597 20.3904 16.6397L19.9404 16.7297C19.4004 16.8397 18.8704 16.4897 18.7604 15.9397C18.6504 15.3997 19.0004 14.8697 19.5504 14.7597L20.0004 14.6697C22.2704 14.2197 24.7904 14.4097 27.0704 15.2897L27.4304 15.4297C27.9404 15.6297 28.2004 16.2097 28.0004 16.7197C27.8504 17.1197 27.4704 17.3597 27.0704 17.3597V17.3697Z" fill="#323232"/>
<path d="M10.9904 18.2101C9.41037 18.2101 7.86037 17.9301 6.39037 17.3701L6.02037 17.2301C5.51037 17.0301 5.25037 16.4501 5.45037 15.9401C5.65037 15.4201 6.23037 15.1701 6.74037 15.3701L7.10037 15.5101C9.00037 16.2301 11.1604 16.4001 13.0604 16.0201L13.5104 15.9301C14.0504 15.8201 14.5804 16.1701 14.6904 16.7201C14.8004 17.2601 14.4504 17.7901 13.9004 17.9001L13.4504 17.9901C12.6604 18.1501 11.8304 18.2301 10.9804 18.2301L10.9904 18.2101Z" fill="#323232"/>
<path d="M18.8308 15.1098C18.5808 15.1098 18.3408 15.0198 18.1508 14.8398C17.7508 14.4598 17.7308 13.8298 18.1108 13.4298L18.4208 13.0998C20.0708 11.3298 22.1708 10.0698 24.5008 9.43977L24.8708 9.33977C25.4008 9.18977 25.9508 9.50977 26.1008 10.0398C26.2408 10.5698 25.9308 11.1198 25.4008 11.2698L25.0308 11.3698C23.0608 11.8998 21.2808 12.9698 19.8908 14.4698L19.5808 14.7998C19.3808 15.0098 19.1208 15.1198 18.8508 15.1198L18.8308 15.1098Z" fill="#323232"/>
<path d="M13.9602 16.0298C13.8202 16.0298 13.6802 15.9998 13.5402 15.9398L13.1302 15.7498C10.9302 14.7298 9.07017 13.1198 7.76018 11.0998L7.55017 10.7898C7.25017 10.3298 7.38017 9.70978 7.84017 9.39978C8.30017 9.09978 8.92017 9.22978 9.23017 9.68978L9.44017 10.0098C10.5502 11.7198 12.1202 13.0798 13.9702 13.9398L14.3802 14.1298C14.8802 14.3598 15.1002 14.9598 14.8702 15.4598C14.7002 15.8298 14.3402 16.0398 13.9602 16.0398V16.0298Z" fill="#323232"/>
<path d="M17.1309 14.2901C17.1309 14.2901 17.0609 14.2901 17.0209 14.2901C16.4709 14.2301 16.0809 13.7401 16.1409 13.1901L16.1909 12.7401C16.4709 10.3401 17.4309 8.08007 18.9609 6.19007L19.2009 5.90007C19.5409 5.47007 20.1709 5.40007 20.6109 5.74007C21.0409 6.08007 21.1109 6.71007 20.7709 7.15007L20.5309 7.45007C19.2409 9.05007 18.4309 10.9601 18.1909 12.9701L18.1409 13.4101C18.0809 13.9201 17.6509 14.3001 17.1509 14.3001L17.1309 14.2901Z" fill="#323232"/>
<path d="M15.2499 14.65C14.8999 14.65 14.5499 14.46 14.3699 14.13L14.1499 13.73C12.9699 11.62 12.4199 9.23 12.5499 6.80999L12.5699 6.42999C12.5999 5.87999 13.0799 5.45 13.6199 5.48C14.1699 5.51 14.5899 5.98 14.5699 6.53L14.5499 6.90999C14.4399 8.94999 14.9099 10.97 15.8999 12.75L16.1199 13.16C16.3899 13.64 16.2099 14.25 15.7199 14.52C15.5699 14.6 15.3999 14.64 15.2399 14.64L15.2499 14.65Z" fill="#323232"/>
<path d="M38.5113 25.1999C36.5013 25.1999 34.8613 23.5599 34.8613 21.5499C34.8613 19.5399 36.5013 17.8999 38.5113 17.8999C40.5213 17.8999 42.1613 19.5399 42.1613 21.5499C42.1613 23.5599 40.5213 25.1999 38.5113 25.1999ZM38.5113 19.9099C37.6013 19.9099 36.8613 20.6499 36.8613 21.5599C36.8613 22.4699 37.6013 23.2099 38.5113 23.2099C39.4213 23.2099 40.1613 22.4699 40.1613 21.5599C40.1613 20.6499 39.4213 19.9099 38.5113 19.9099Z" fill="#323232"/>
<path d="M44.1807 35.53C43.6307 35.53 43.1807 35.08 43.1807 34.53V30.75C43.1807 28.64 39.7507 27.92 37.9707 27.68V33.97C37.9707 34.52 37.5207 34.97 36.9707 34.97C36.4207 34.97 35.9707 34.52 35.9707 33.97V26.58C35.9707 26.31 36.0807 26.05 36.2807 25.86C36.4807 25.67 36.7407 25.56 37.0107 25.58C37.3407 25.59 45.1807 25.96 45.1807 30.75V34.53C45.1807 35.08 44.7307 35.53 44.1807 35.53Z" fill="#323232"/>
<path d="M30.4609 32.2399C29.9109 32.2399 29.4609 31.7899 29.4609 31.2399C29.4609 30.6899 29.9109 30.2399 30.4609 30.2399C30.4809 30.2399 32.6109 30.1799 33.3309 28.0599C33.5109 27.5399 34.0809 27.2599 34.6009 27.4399C35.1209 27.6199 35.4009 28.1899 35.2209 28.7099C34.2609 31.5099 31.6809 32.2499 30.4509 32.2499L30.4609 32.2399Z" fill="#323232"/>
<path d="M33.1406 46.7797C32.5906 46.7797 32.1406 46.3297 32.1406 45.7797V43.7697C32.1406 42.3497 32.4006 41.0497 32.9106 39.8997C33.7706 37.9197 35.1406 36.7197 36.8906 36.4397C39.0206 36.0797 39.0706 34.3197 39.0606 33.9697V30.2197C39.0606 29.6697 39.5106 29.2197 40.0606 29.2197C40.6106 29.2197 41.0606 29.6697 41.0606 30.2197V33.9297C41.1206 35.2197 40.4006 37.8797 37.2206 38.4197C36.1606 38.5897 35.3206 39.3697 34.7406 40.7097C34.3406 41.6097 34.1406 42.6397 34.1406 43.7797V45.7897C34.1406 46.3397 33.6906 46.7897 33.1406 46.7897V46.7797Z" fill="#323232"/>
<path d="M45.3911 45.3699C45.2811 45.3699 45.1711 45.35 45.0611 45.31C40.1311 43.59 39.0611 39.6499 39.0211 39.4799C38.8811 38.9499 39.2011 38.3999 39.7411 38.2599C40.2711 38.1199 40.8211 38.44 40.9611 38.97C41.0011 39.11 41.8511 42.0599 45.7211 43.4099C46.2411 43.5899 46.5211 44.1599 46.3411 44.6799C46.2011 45.0899 45.8111 45.3499 45.4011 45.3499L45.3911 45.3699Z" fill="#323232"/>
<path d="M16.7295 20.2901C14.5495 20.2901 12.7695 18.5101 12.7695 16.3301C12.7695 14.1501 14.5495 12.3701 16.7295 12.3701C18.9095 12.3701 20.6895 14.1501 20.6895 16.3301C20.6895 18.5101 18.9095 20.2901 16.7295 20.2901ZM16.7295 14.3701C15.6495 14.3701 14.7695 15.2501 14.7695 16.3301C14.7695 17.4101 15.6495 18.2901 16.7295 18.2901C17.8095 18.2901 18.6895 17.4101 18.6895 16.3301C18.6895 15.2501 17.8095 14.3701 16.7295 14.3701Z" fill="#323232"/>
<path d="M23.0594 29.96C22.6894 29.96 22.3394 29.76 22.1694 29.41C21.9194 28.92 22.1194 28.32 22.6094 28.07C27.0694 25.83 29.8494 21.33 29.8494 16.34C29.8494 9.10996 23.9694 3.21996 16.7294 3.21996C9.48938 3.21996 3.60937 9.09996 3.60937 16.33C3.60937 21.32 6.37938 25.82 10.8494 28.06C11.3394 28.31 11.5394 28.91 11.2894 29.4C11.0394 29.89 10.4394 30.09 9.94938 29.84C4.80938 27.26 1.60938 22.08 1.60938 16.32C1.60938 7.99996 8.38937 1.20996 16.7294 1.20996C25.0694 1.20996 31.8494 7.98996 31.8494 16.33C31.8494 22.08 28.6494 27.26 23.5094 29.85C23.3694 29.92 23.2094 29.96 23.0594 29.96Z" fill="#323232"/>
<path d="M16.7295 43.4302C16.1095 43.4302 15.4895 43.1902 15.0095 42.7202L6.83945 34.5402C5.88945 33.5902 5.88945 32.0502 6.83945 31.1002L15.0095 22.9302C15.9295 22.0102 17.5295 22.0102 18.4495 22.9302L26.6195 31.1002C27.5695 32.0502 27.5695 33.5902 26.6195 34.5402L18.4495 42.7102C17.9795 43.1802 17.3495 43.4202 16.7295 43.4202V43.4302ZM16.7295 24.2202C16.6195 24.2202 16.5095 24.2602 16.4295 24.3502L8.25945 32.5202C8.08945 32.6902 8.08945 32.9602 8.25945 33.1302L16.4295 41.3002C16.5995 41.4702 16.8695 41.4702 17.0395 41.3002L25.2095 33.1302C25.3795 32.9602 25.3795 32.6902 25.2095 32.5202L17.0395 24.3502C16.9595 24.2702 16.8495 24.2202 16.7395 24.2202H16.7295Z" fill="#DF0000"/>
<path d="M17.63 28.83C17.68 28.98 17.73 29.14 17.73 29.32C17.71 29.81 17.68 30.31 17.63 30.78C17.59 31.53 17.53 32.31 17.5 33.05C17.48 33.3 17.48 33.52 17.48 33.76C17.46 34.16 17.16 34.47 16.74 34.47C16.32 34.47 16.03 34.18 16 33.78C15.95 32.6 15.87 31.43 15.8 30.25C15.78 29.94 15.76 29.63 15.75 29.31C15.75 28.79 16.04 28.37 16.5 28.23C16.94 28.15 17.43 28.38 17.62 28.83H17.63Z" fill="#323232"/>
<path d="M17.6805 36.5801C17.7005 37.1001 17.2405 37.5401 16.7205 37.5401C16.2005 37.5401 15.7305 37.1001 15.7305 36.5501C15.7305 36.0001 16.1705 35.5601 16.7205 35.5601C17.2705 35.5601 17.7305 36.0001 17.6805 36.5701V36.5801Z" fill="#323232"/>
</svg>
