<svg width="48" height="48" viewBox="0 0 48 48" fill="none" xmlns="http://www.w3.org/2000/svg">
<path d="M39.5296 9.75977C36.5096 9.75977 34.0596 12.2098 34.0596 15.2298C34.0596 20.1598 39.5296 25.3898 39.5296 25.3898C39.5296 25.3898 44.9996 20.1498 44.9996 15.2298C44.9996 12.2098 42.5496 9.75977 39.5296 9.75977ZM39.5296 17.5298C38.2596 17.5298 37.2296 16.4998 37.2296 15.2298C37.2296 13.9598 38.2596 12.9298 39.5296 12.9298C40.7996 12.9298 41.8296 13.9598 41.8296 15.2298C41.8296 16.4998 40.7996 17.5298 39.5296 17.5298Z" fill="#DF0000"/>
<path d="M8.47 17.6499C5.45 17.6499 3 20.0999 3 23.1199C3 28.0499 8.47 33.2799 8.47 33.2799C8.47 33.2799 13.94 28.0399 13.94 23.1199C13.94 20.0999 11.49 17.6499 8.47 17.6499ZM8.47 25.4199C7.2 25.4199 6.17 24.3899 6.17 23.1199C6.17 21.8499 7.2 20.8199 8.47 20.8199C9.74 20.8199 10.77 21.8499 10.77 23.1199C10.77 24.3899 9.74 25.4199 8.47 25.4199Z" fill="#DF0000"/>
<path d="M8.46955 39.2402C8.28955 39.2402 8.10955 39.1902 7.94955 39.0902C7.47955 38.8002 7.32955 38.1902 7.60955 37.7202C12.9095 28.9802 26.3495 22.4602 40.7995 27.5902C41.3195 27.7702 41.5896 28.3502 41.4095 28.8702C41.2295 29.3902 40.6595 29.6602 40.1296 29.4802C29.9496 25.8702 15.6395 28.3502 9.31955 38.7702C9.12955 39.0802 8.79955 39.2502 8.45955 39.2502L8.46955 39.2402Z" fill="#323232"/>
</svg>
