<svg width="24" height="24" viewBox="0 0 24 24" fill="none" xmlns="http://www.w3.org/2000/svg">
<path d="M21.8281 13.8906C21.4297 15.1719 20.1016 16.375 18.5078 16.625C18.7656 17.0234 18.8828 17.5156 18.8203 18.0625C18.6484 19.5469 17.2266 20.7422 15.7031 20.7578C14.6719 20.7656 13.2734 20.3203 12.2891 18.7656C11.4062 17.3828 11.2812 15.1875 11.3437 14.5234C10.2656 15.625 9.59375 16.6953 9.27344 17.4375C8.55469 19.1172 8.28125 21.1641 8.29687 22.125C8.29687 22.125 8.16406 22.25 8.03906 22.2734C7.64062 22.2031 7.29687 22.0547 7.03906 21.8281C6.72656 21.5469 6.65625 21.2813 6.65625 21.2813C7.13281 18.8984 7.89062 17.4141 9.02344 15.7188C10.5469 13.4297 12.8984 12.0156 15.6875 11.1641C17.7031 10.5469 19.7969 10.4141 21.2344 11.6328C22.0078 12.2734 22.0547 13.1953 21.8281 13.8906ZM9.95312 12.625C9.47656 13.4219 8.17187 14.7031 7.14062 15.3672C4.99219 16.7422 3.44531 16.8359 2.67187 16.3438C2.57812 16.2891 2.5 16.2188 2.42969 16.1484C1.82812 15.5156 1.92969 14.3906 2.63281 13.4688C2.97656 13.0156 3.42187 12.6953 3.85156 12.5469C3.51562 12.3906 3.28906 12.0625 3.24219 11.6016C3.14844 10.6797 3.84375 9.46876 4.80469 8.97657C5.64844 8.54689 7.46875 8.1172 8.80469 10.1094C9.32812 10.8828 9.79687 11.9844 9.95312 12.625ZM18.7812 4.25001C18.6641 3.10157 17.4375 2.6797 16.0859 3.25782C15.4453 3.53126 14.8828 3.9922 14.4844 4.51564C14.5469 3.9922 14.3984 3.53126 14.0234 3.25782C13.2812 2.71876 11.9297 3.1172 11.0078 4.1172C10.6875 4.46876 9.64062 5.73439 9.58594 7.59376C9.5625 8.4922 9.96094 10.4844 11.2734 11.8594C14.7734 10.5391 16.6562 8.51564 17.375 7.6797C18.2031 6.71095 18.5547 5.85939 18.7031 5.23439C18.8125 4.7422 18.7969 4.39064 18.7812 4.25001Z" fill="#82C341"/>
<path d="M11.5703 13.1094C11.5156 13.3516 11.4297 13.7813 11.3516 14.5156C10.2734 15.6172 9.60156 16.6875 9.28125 17.4297C8.5625 19.1172 8.28906 21.1563 8.30469 22.1172C8.30469 22.1172 8.17187 22.2422 8.04687 22.2656L8.06217 21.8823C8.24234 17.9477 9.11743 14.8579 11.5469 13.1172C11.5469 13.1172 11.5547 13.1094 11.5703 13.1094ZM21.9375 13.3516C21.9219 13.5391 21.8828 13.7188 21.8281 13.8906C21.4297 15.1719 20.1016 16.375 18.5078 16.6172L18.422 16.4933C18.3112 16.3428 18.2125 16.2453 18.0937 16.1328C19.0156 16.2109 19.8281 15.9219 20.5312 15.4844C21.3281 14.9922 21.8281 14.0938 21.9375 13.3516ZM9.95312 12.6172L9.8471 12.7827C9.30382 13.5822 8.10312 14.7396 7.14062 15.3594C4.99219 16.7344 3.44531 16.8281 2.67187 16.3281C3.04687 16.5078 4.17969 16.3203 5.33594 15.8281C7.67187 14.7969 9.03125 13.4922 9.95312 12.6172ZM18.7266 5.13282C18.7187 5.17189 18.7109 5.20314 18.7031 5.23439C18.5547 5.85939 18.2031 6.71095 17.375 7.6797C16.6562 8.51564 14.7734 10.5391 11.2812 11.8516C11.7422 11.5391 12.9453 10.7422 15.0547 9.15626C17.0859 7.62501 18.5547 5.82814 18.7266 5.13282Z" fill="#3CB14A"/>
</svg>
