<svg width="48" height="48" viewBox="0 0 48 48" fill="none" xmlns="http://www.w3.org/2000/svg">
<path d="M42.22 37.7996H5.78C4.11 37.7996 2.75 36.4396 2.75 34.7696V13.1696C2.75 11.4996 4.11 10.1396 5.78 10.1396H42.23C43.9 10.1396 45.26 11.4996 45.26 13.1696V34.7696C45.26 36.4396 43.9 37.7996 42.23 37.7996H42.22ZM4.75 17.8996V34.7796C4.75 35.3496 5.21 35.8097 5.78 35.8097H42.23C42.8 35.8097 43.26 35.3496 43.26 34.7796V13.1696C43.26 12.5996 42.8 12.1396 42.23 12.1396H5.78C5.21 12.1396 4.75 12.5996 4.75 13.1696V17.8896V17.8996Z" fill="#323232"/>
<path d="M18.1396 23.7501C18.9496 22.9601 19.4596 21.8701 19.4596 20.6501C19.4596 18.2701 17.5196 16.3301 15.1396 16.3301C12.7596 16.3301 10.8196 18.2701 10.8196 20.6501C10.8196 21.8701 11.3296 22.9601 12.1396 23.7501C9.98961 24.9601 8.59961 27.4801 8.59961 30.6201C8.59961 31.1701 9.04961 31.6201 9.59961 31.6201H20.6796C21.2296 31.6201 21.6796 31.1701 21.6796 30.6201C21.6796 27.4801 20.2996 24.9601 18.1396 23.7501ZM12.8096 20.6501C12.8096 19.3701 13.8496 18.3301 15.1296 18.3301C16.4096 18.3301 17.4496 19.3701 17.4496 20.6501C17.4496 21.9301 16.4096 22.9701 15.1296 22.9701C13.8496 22.9701 12.8096 21.9301 12.8096 20.6501ZM10.6596 29.6201C10.9896 26.8001 12.6996 24.9701 15.1396 24.9701C17.5796 24.9701 19.2996 26.8001 19.6196 29.6201H10.6596Z" fill="#323232"/>
<path d="M35.5001 18.9004H26.8301C26.2801 18.9004 25.8301 18.4504 25.8301 17.9004C25.8301 17.3504 26.2801 16.9004 26.8301 16.9004H35.5001C36.0501 16.9004 36.5001 17.3504 36.5001 17.9004C36.5001 18.4504 36.0501 18.9004 35.5001 18.9004Z" fill="#DF0000"/>
<path d="M38.1701 25.0703H26.8301C26.2801 25.0703 25.8301 24.6203 25.8301 24.0703C25.8301 23.5203 26.2801 23.0703 26.8301 23.0703H38.1701C38.7201 23.0703 39.1701 23.5203 39.1701 24.0703C39.1701 24.6203 38.7201 25.0703 38.1701 25.0703Z" fill="#323232"/>
<path d="M38.1701 31.2305H26.8301C26.2801 31.2305 25.8301 30.7805 25.8301 30.2305C25.8301 29.6805 26.2801 29.2305 26.8301 29.2305H38.1701C38.7201 29.2305 39.1701 29.6805 39.1701 30.2305C39.1701 30.7805 38.7201 31.2305 38.1701 31.2305Z" fill="#323232"/>
</svg>
