<svg width="24" height="24" viewBox="0 0 24 24" fill="none" xmlns="http://www.w3.org/2000/svg">
<g clip-path="url(#clip0_16335_6675)">
<path d="M20.4851 20.4853C25.1714 15.799 25.1714 8.20101 20.4851 3.51472C15.7988 -1.17157 8.20081 -1.17157 3.51452 3.51472C-1.17177 8.20101 -1.17177 15.799 3.51452 20.4853C8.20081 25.1716 15.7988 25.1716 20.4851 20.4853Z" fill="white"/>
<mask id="mask0_16335_6675" style="mask-type:luminance" maskUnits="userSpaceOnUse" x="-1" y="0" width="25" height="24">
<path d="M20.4851 20.4853C25.1714 15.799 25.1714 8.20101 20.4851 3.51472C15.7988 -1.17157 8.20081 -1.17157 3.51452 3.51472C-1.17177 8.20101 -1.17177 15.799 3.51452 20.4853C8.20081 25.1716 15.7988 25.1716 20.4851 20.4853Z" fill="white"/>
</mask>
<g mask="url(#mask0_16335_6675)">
<path d="M29.9993 0H-6.00067V24H29.9993V0Z" fill="white"/>
<path d="M29.9993 2.26526H-6.00067V5.99369H29.9993V2.26526Z" fill="#003399"/>
<path d="M29.9993 18.0077H-6.00067V21.7361H29.9993V18.0077Z" fill="#003399"/>
<path fill-rule="evenodd" clip-rule="evenodd" d="M11.9986 6.80981L7.50439 14.5937H16.4915L11.9972 6.80981H11.9986ZM11.9986 8.45043L15.0716 13.7734H8.92561L11.9986 8.45043Z" fill="#003399"/>
<path fill-rule="evenodd" clip-rule="evenodd" d="M11.9986 17.1902L7.50439 9.40631H16.4915L11.9972 17.1902H11.9986ZM11.9986 15.5496L15.0716 10.2266H8.92561L11.9986 15.5496Z" fill="#003399"/>
</g>
</g>
<rect x="0.25" y="0.25" width="23.5" height="23.5" rx="11.75" stroke="#E5E3E1" stroke-width="0.5"/>
<defs>
<clipPath id="clip0_16335_6675">
<rect width="24" height="24" rx="12" fill="white"/>
</clipPath>
</defs>
</svg>
