<svg width="48" height="48" viewBox="0 0 48 48" fill="none" xmlns="http://www.w3.org/2000/svg">
<path d="M45.6795 18.9299L43.0495 16.2999C42.9595 16.2099 42.8495 16.1299 42.7195 16.0799C42.4795 15.9799 42.1995 15.9799 41.9595 16.0799C41.8395 16.1299 41.7295 16.1999 41.6295 16.2999L38.9995 18.9299C38.6095 19.3199 38.6095 19.9499 38.9995 20.3399C39.1995 20.5399 39.4495 20.6299 39.7095 20.6299C39.9695 20.6299 40.2195 20.5299 40.4195 20.3399L41.3395 19.4199V41.7899C41.3395 42.3399 41.7895 42.7899 42.3395 42.7899C42.8895 42.7899 43.3395 42.3399 43.3395 41.7899V19.4199L44.2595 20.3399C44.6495 20.7299 45.2795 20.7299 45.6695 20.3399C46.0595 19.9499 46.0595 19.3199 45.6695 18.9299H45.6795Z" fill="#DF0000"/>
<path d="M39.6892 41.82L34.8092 34.72C34.6392 34.47 34.3592 34.31 34.0592 34.29C33.7592 34.27 33.4592 34.38 33.2592 34.6L30.9092 37.1L23.8592 24.61C23.6792 24.29 23.3592 24.06 22.9792 24.1C22.6192 24.1 22.2792 24.3 22.1092 24.62L18.1292 31.84L15.8392 28.81C15.6492 28.55 15.3192 28.4 15.0192 28.41C14.6992 28.41 14.3992 28.58 14.2192 28.85L10.3692 34.54L8.72921 33.07C8.49921 32.87 8.19922 32.78 7.89922 32.83C7.59922 32.88 7.33922 33.06 7.18922 33.33L2.40922 41.9C2.13922 42.38 2.30921 42.99 2.79921 43.26C2.94921 43.35 3.11921 43.39 3.28921 43.39C3.63921 43.39 3.97921 43.21 4.15921 42.88L8.32922 35.4L9.88922 36.8C10.0992 36.99 10.3892 37.08 10.6792 37.05C10.9692 37.02 11.2192 36.86 11.3892 36.62L15.0992 31.14L17.0792 33.76L15.6792 36.3C15.4092 36.78 15.5892 37.39 16.0692 37.66C16.5492 37.93 17.1592 37.75 17.4292 37.27L22.9992 27.17L29.8292 39.28C29.9892 39.56 30.2692 39.74 30.5792 39.78C30.8892 39.82 31.2092 39.7 31.4292 39.47L33.8692 36.88L38.0492 42.96C38.2392 43.24 38.5592 43.39 38.8792 43.39C39.0792 43.39 39.2692 43.33 39.4492 43.21C39.9092 42.9 40.0192 42.27 39.7092 41.82H39.6892Z" fill="#323232"/>
<path d="M10.8499 17.23L7.29994 17.25C6.53994 17.25 5.85994 16.79 5.57994 16.09L3.06994 9.78004C2.87994 9.30004 3.22994 8.77004 3.74994 8.77004H5.16994C5.75994 8.76004 6.31994 9.03004 6.66994 9.51004L11.4299 16.05C11.7899 16.54 11.4299 17.22 10.8399 17.23" fill="#DF0000"/>
<path d="M36.2307 12.1201C35.2607 11.1401 33.7907 10.6401 31.8807 10.6401H23.9907L17.0607 5.49011C15.7107 4.58011 13.9807 4.36011 12.4407 4.90011C12.1607 5.00011 11.9407 5.21011 11.8407 5.48011C11.7307 5.75011 11.7507 6.06011 11.9007 6.32011C12.5007 7.43011 13.6607 9.36011 14.4307 10.6501H10.9707C10.4207 10.6501 9.9707 11.1001 9.9707 11.6601C9.9707 12.2101 10.4207 12.6601 10.9707 12.6601L31.8707 12.6301H31.8807C33.2407 12.6301 34.2207 12.9301 34.8107 13.5201C35.3207 14.0301 35.4807 14.7301 35.5307 15.3201C32.5807 15.3401 24.6607 15.3901 24.6607 15.3901C24.4207 15.3901 24.2007 15.4801 24.0207 15.6301C24.0207 15.6301 17.9707 20.7801 15.9907 22.5001C15.3407 23.0301 14.5607 23.3601 13.7407 23.4801L17.3307 16.9201C17.5007 16.6101 17.4907 16.2301 17.3107 15.9301C17.1307 15.6301 16.8507 15.4401 16.4407 15.4401L13.7707 15.4601C13.2207 15.4601 12.7707 15.9101 12.7807 16.4701C12.7807 17.0201 13.2307 17.4601 13.7807 17.4601H14.7507L11.1907 23.9601C11.0407 24.2401 11.0307 24.5801 11.1707 24.8701C11.3107 25.1601 11.5807 25.3701 11.9007 25.4201C12.2907 25.4901 12.6807 25.5201 13.0707 25.5201C14.5907 25.5201 16.0707 25.0001 17.2807 24.0201C19.0207 22.5001 23.8307 18.4101 25.0407 17.3801C26.9407 17.3701 35.6307 17.3201 36.5707 17.3101C37.1207 17.3101 37.5607 16.8501 37.5607 16.3001V16.1201C37.5607 15.3201 37.5907 13.4601 36.2407 12.1001L36.2307 12.1201ZM14.3607 6.62011C14.9207 6.65011 15.4607 6.83011 15.9107 7.13011L20.6607 10.6501H16.7707C16.3707 9.99011 15.2407 8.12011 14.3707 6.62011H14.3607Z" fill="#323232"/>
</svg>
