<svg width="48" height="48" viewBox="0 0 48 48" fill="none" xmlns="http://www.w3.org/2000/svg">
<path d="M44.1194 12.6496C44.1194 13.2296 44.0794 13.8896 44.0194 14.5896C43.3294 14.2396 39.2994 12.1296 37.5494 10.3896C35.5194 8.35961 33.6694 4.58961 33.3594 3.94961C34.0794 3.88961 34.7294 3.84961 35.3094 3.84961C40.5894 3.84961 42.2094 5.20961 42.4794 5.47961C42.7494 5.74961 44.1094 7.36961 44.1094 12.6496H44.1194Z" fill="#8DE2E0"/>
<path d="M14.6209 43.9996C13.9209 44.0596 13.2609 44.0996 12.6809 44.0996C7.39086 44.0996 5.77086 42.7496 5.50086 42.4796C5.23086 42.2096 3.88086 40.5796 3.88086 35.2996C3.88086 34.7196 3.92086 34.0596 3.98086 33.3496C4.62086 33.6596 8.39086 35.5096 10.4209 37.5396C12.1609 39.2796 14.2809 43.3096 14.6209 44.0096V43.9996Z" fill="#8DE2E0"/>
<path d="M29.8702 16.69L27.7102 18.85L26.5502 17.69C26.1602 17.3 25.5302 17.3 25.1402 17.69C24.7502 18.08 24.7502 18.71 25.1402 19.1L26.3002 20.26L24.0002 22.56L22.8402 21.4C22.4502 21.01 21.8202 21.01 21.4302 21.4C21.0402 21.79 21.0402 22.42 21.4302 22.81L22.5902 23.97L20.2902 26.27L19.1302 25.11C18.7402 24.72 18.1102 24.72 17.7202 25.11C17.3302 25.5 17.3302 26.13 17.7202 26.52L18.8802 27.68L16.7202 29.84C16.3302 30.23 16.3302 30.86 16.7202 31.25C16.9202 31.45 17.1702 31.54 17.4302 31.54C17.6902 31.54 17.9402 31.44 18.1402 31.25L20.3002 29.09L21.4602 30.25C21.6602 30.45 21.9102 30.54 22.1702 30.54C22.4302 30.54 22.6802 30.44 22.8802 30.25C23.2702 29.86 23.2702 29.23 22.8802 28.84L21.7202 27.68L24.0202 25.38L25.1802 26.54C25.3802 26.74 25.6302 26.83 25.8902 26.83C26.1502 26.83 26.4002 26.73 26.6002 26.54C26.9902 26.15 26.9902 25.52 26.6002 25.13L25.4402 23.97L27.7402 21.67L28.9002 22.83C29.1002 23.03 29.3502 23.12 29.6102 23.12C29.8702 23.12 30.1202 23.02 30.3202 22.83C30.7102 22.44 30.7102 21.81 30.3202 21.42L29.1602 20.26L31.3202 18.1C31.7102 17.71 31.7102 17.08 31.3202 16.69C30.9302 16.3 30.3002 16.3 29.9102 16.69H29.8702Z" fill="#323232"/>
<path d="M45.1206 12.6498C45.1206 7.27984 43.7706 5.34984 43.2006 4.76984C42.6206 4.18984 40.7006 2.83984 35.3206 2.83984C34.7506 2.83984 34.0806 2.86984 33.2806 2.93984C27.3606 3.50984 18.3306 6.30984 12.3506 12.2998C6.36063 18.2898 3.56062 27.3198 2.99062 33.2298C2.92062 34.0298 2.89062 34.6998 2.89062 35.2698C2.89062 40.8198 4.35063 42.7098 4.80063 43.1598C5.38063 43.7398 7.30062 45.0698 12.6906 45.0698C13.2706 45.0698 13.9306 45.0398 14.7206 44.9698C20.6206 44.4098 29.6506 41.6198 35.6706 35.6098C41.6906 29.5898 44.4706 20.5698 45.0306 14.6698C45.0306 14.6698 45.0306 14.6598 45.0306 14.6498C45.1006 13.8598 45.1306 13.1998 45.1306 12.6198L45.1206 12.6498ZM41.7906 6.18984C41.8406 6.23984 43.1306 7.58984 43.1306 12.6498C43.1306 12.7498 43.1306 12.8598 43.1306 12.9798C43.0906 12.9598 43.0506 12.9398 43.0106 12.9198C42.8906 12.8498 42.7706 12.7898 42.6506 12.7098C42.5906 12.6698 42.5306 12.6398 42.4606 12.5998C42.2806 12.4998 42.1006 12.3898 41.9206 12.2798C41.8706 12.2498 41.8206 12.2198 41.7606 12.1898C41.6106 12.0998 41.4606 12.0098 41.3106 11.9198C41.2506 11.8798 41.1906 11.8498 41.1306 11.8098C40.9406 11.6898 40.7506 11.5698 40.5606 11.4398C40.5206 11.4198 40.4806 11.3898 40.4506 11.3598C40.2906 11.2498 40.1306 11.1498 39.9806 11.0398C39.9306 10.9998 39.8806 10.9698 39.8306 10.9298C39.6506 10.7998 39.4706 10.6698 39.3006 10.5398C39.2806 10.5298 39.2606 10.5098 39.2406 10.4998C39.0906 10.3798 38.9506 10.2698 38.8106 10.1598C38.7706 10.1298 38.7306 10.0898 38.6906 10.0598C38.5406 9.92984 38.4006 9.80984 38.2806 9.67984C38.1306 9.52984 37.9906 9.36984 37.8406 9.20984C37.8006 9.15984 37.7606 9.10984 37.7206 9.06984C37.6106 8.93984 37.5006 8.79984 37.3906 8.65984C37.3606 8.61984 37.3206 8.56984 37.2906 8.52984C37.1506 8.34984 37.0206 8.16984 36.8806 7.97984C36.8506 7.93984 36.8206 7.89984 36.7906 7.84984C36.6806 7.69984 36.5806 7.54984 36.4806 7.38984C36.4406 7.32984 36.4006 7.26984 36.3606 7.19984C36.2606 7.04984 36.1706 6.89984 36.0806 6.74984C36.0506 6.69984 36.0206 6.65984 35.9906 6.60984C35.8806 6.42984 35.7706 6.24984 35.6706 6.07984C35.6206 5.99984 35.5806 5.91984 35.5306 5.83984C35.4706 5.73984 35.4206 5.64984 35.3606 5.54984C35.3106 5.45984 35.2606 5.36984 35.2106 5.27984C35.1806 5.21984 35.1506 5.15984 35.1106 5.10984C35.0606 5.01984 35.0106 4.91984 34.9606 4.82984C35.0906 4.82984 35.2106 4.82984 35.3306 4.82984C40.4006 4.82984 41.7406 6.10984 41.7906 6.16984V6.18984ZM6.20062 41.7698C6.15062 41.7198 4.87062 40.3898 4.87062 35.2898C4.87062 35.1698 4.87062 35.0498 4.87062 34.9298C4.89062 34.9298 4.90062 34.9498 4.92062 34.9598C5.06063 35.0398 5.21062 35.1198 5.36063 35.1998C5.40062 35.2198 5.43062 35.2398 5.47062 35.2598C5.83062 35.4598 6.22062 35.6898 6.62062 35.9398C6.66062 35.9698 6.71062 35.9898 6.75062 36.0198C6.91062 36.1198 7.07062 36.2198 7.22062 36.3198C7.27063 36.3498 7.32062 36.3898 7.37062 36.4198C7.77062 36.6798 8.16062 36.9598 8.53062 37.2398C8.58062 37.2798 8.63062 37.3098 8.67062 37.3498C8.81062 37.4598 8.94062 37.5698 9.07062 37.6798C9.12062 37.7198 9.17062 37.7598 9.22062 37.7998C9.39062 37.9498 9.55062 38.0898 9.69062 38.2398C9.81062 38.3598 9.94063 38.4998 10.0606 38.6498C10.0906 38.6898 10.1306 38.7298 10.1606 38.7698C10.2706 38.8998 10.3806 39.0398 10.5006 39.1898C10.5206 39.2098 10.5406 39.2298 10.5506 39.2598C10.6806 39.4298 10.8006 39.5998 10.9306 39.7798C10.9706 39.8298 11.0106 39.8898 11.0506 39.9498C11.1506 40.0998 11.2606 40.2498 11.3606 40.4098C11.3906 40.4498 11.4106 40.4898 11.4406 40.5298C11.5606 40.7198 11.6906 40.9098 11.8106 41.0998C11.8406 41.1598 11.8806 41.2098 11.9106 41.2698C12.0106 41.4298 12.1106 41.5898 12.2006 41.7498C12.2206 41.7898 12.2506 41.8298 12.2706 41.8698C12.3906 42.0698 12.5006 42.2598 12.6106 42.4498C12.6306 42.4798 12.6406 42.5098 12.6606 42.5298C12.7706 42.7098 12.8706 42.8898 12.9606 43.0598C12.9606 43.0598 12.9606 43.0698 12.9706 43.0798C12.8606 43.0798 12.7506 43.0798 12.6406 43.0798C7.55062 43.0798 6.22062 41.8098 6.16062 41.7498L6.20062 41.7698ZM34.2506 34.2198C28.8306 39.6398 20.7606 42.2698 15.1906 42.9298C15.1906 42.9298 15.1906 42.9198 15.1906 42.9098C15.1006 42.7498 15.0006 42.5598 14.8906 42.3498C14.8906 42.3498 14.8906 42.3298 14.8806 42.3198C14.7806 42.1298 14.6606 41.9298 14.5406 41.7098C14.5106 41.6598 14.4906 41.6198 14.4606 41.5698C14.3306 41.3398 14.1906 41.1098 14.0506 40.8598C14.0306 40.8198 14.0006 40.7798 13.9806 40.7398C13.8506 40.5198 13.7106 40.2898 13.5706 40.0698C13.5406 40.0198 13.5106 39.9698 13.4806 39.9198C13.3206 39.6698 13.1506 39.4098 12.9906 39.1598C12.9606 39.1098 12.9206 39.0598 12.8906 39.0098C12.7306 38.7798 12.5706 38.5498 12.4106 38.3298C12.3906 38.2998 12.3706 38.2698 12.3406 38.2398C12.1606 37.9998 11.9906 37.7798 11.8106 37.5598C11.7706 37.5098 11.7306 37.4598 11.6906 37.4198C11.5106 37.2098 11.3306 36.9998 11.1506 36.8198C10.9506 36.6198 10.7306 36.4298 10.5106 36.2298C10.4706 36.1898 10.4206 36.1598 10.3806 36.1198C10.1606 35.9398 9.94062 35.7598 9.70062 35.5798C9.65062 35.5398 9.60063 35.5098 9.55062 35.4698C9.32062 35.2998 9.08062 35.1298 8.84062 34.9598C8.83062 34.9598 8.81063 34.9398 8.80062 34.9298C8.55062 34.7598 8.30062 34.5998 8.05062 34.4398C8.00062 34.4098 7.94063 34.3698 7.89062 34.3398C7.65063 34.1898 7.41062 34.0498 7.18062 33.9098C7.13062 33.8798 7.08063 33.8498 7.03063 33.8198C6.81063 33.6898 6.60063 33.5698 6.40062 33.4598C6.38063 33.4498 6.35062 33.4298 6.33062 33.4198C6.12062 33.2998 5.92062 33.1898 5.73062 33.0898C5.68062 33.0598 5.63062 33.0398 5.58062 33.0098C5.41062 32.9198 5.25063 32.8398 5.11063 32.7598C5.10063 32.7598 5.08063 32.7398 5.07063 32.7398C5.75063 27.1698 8.39062 19.0998 13.7806 13.7098C19.1606 8.31984 27.2306 5.67984 32.8106 4.99984C32.8106 5.00984 32.8306 5.02984 32.8306 5.03984C32.9206 5.20984 33.0106 5.38984 33.1106 5.57984C33.1206 5.60984 33.1406 5.63984 33.1606 5.66984C33.2506 5.83984 33.3506 6.02984 33.4606 6.21984C33.4906 6.26984 33.5106 6.30984 33.5406 6.35984C33.6606 6.56984 33.7806 6.78984 33.9106 7.00984C33.9406 7.06984 33.9806 7.12984 34.0206 7.18984C34.1606 7.41984 34.3006 7.64984 34.4406 7.87984C34.4706 7.92984 34.5006 7.97984 34.5306 8.01984C34.6706 8.23984 34.8206 8.46984 34.9706 8.68984C34.9906 8.71984 35.0206 8.75984 35.0406 8.78984C35.2006 9.02984 35.3706 9.26984 35.5506 9.49984C35.5906 9.54984 35.6306 9.59984 35.6606 9.64984C35.8306 9.87984 36.0106 10.0998 36.1906 10.3198C36.2206 10.3598 36.2606 10.3998 36.2906 10.4398C36.4806 10.6598 36.6806 10.8798 36.8806 11.0798C37.0606 11.2598 37.2606 11.4398 37.4806 11.6198C37.5306 11.6598 37.5706 11.6998 37.6206 11.7398C37.8406 11.9198 38.0606 12.0898 38.3006 12.2698C38.3306 12.2898 38.3606 12.3098 38.3906 12.3298C38.6106 12.4898 38.8406 12.6598 39.0806 12.8098C39.1306 12.8398 39.1806 12.8798 39.2306 12.9098C39.4806 13.0798 39.7406 13.2498 40.0006 13.4098C40.0506 13.4398 40.0906 13.4698 40.1306 13.4898C40.3606 13.6398 40.5906 13.7798 40.8206 13.9098C40.8606 13.9298 40.8906 13.9498 40.9306 13.9798C41.1806 14.1298 41.4206 14.2698 41.6506 14.3998C41.7006 14.4298 41.7406 14.4498 41.7806 14.4798C42.0006 14.5998 42.2106 14.7198 42.4006 14.8298C42.4006 14.8298 42.4006 14.8298 42.4106 14.8298C42.6206 14.9398 42.8006 15.0398 42.9606 15.1298C42.9606 15.1298 42.9806 15.1398 42.9906 15.1498C42.3306 20.7098 39.7006 28.7798 34.2806 34.2098L34.2506 34.2198Z" fill="#323232"/>
</svg>
