<svg width="48" height="48" viewBox="0 0 48 48" fill="none" xmlns="http://www.w3.org/2000/svg">
<path fill-rule="evenodd" clip-rule="evenodd" d="M31.8897 27.2799C31.8897 27.2799 31.9197 27.2799 31.9297 27.2699C31.9497 27.2499 31.9597 27.2399 31.9697 27.1999C31.9697 27.1599 31.9397 27.1099 31.8997 27.0999C29.4297 26.6299 26.8697 26.6899 24.4397 27.3099L23.6897 27.4999C23.2997 27.5899 22.8797 27.4399 22.6197 27.0999C21.6997 25.8099 24.7597 23.9199 24.5997 23.0899L24.5697 22.9499C23.5797 22.8599 22.5897 22.9899 21.6497 23.3499C21.6697 23.3899 21.7497 23.5499 22.1097 23.7099C22.4897 23.8699 22.4897 24.5899 21.5897 24.4899H21.5197C14.9997 23.7099 15.0497 27.4299 9.28972 25.1399C9.23972 25.1199 9.19972 25.1399 9.17972 25.1899C9.15972 25.2399 9.17972 25.2799 9.21972 25.3099C15.0997 28.8899 18.4397 24.6799 22.5197 29.0799C22.6797 29.2399 22.9097 29.2899 23.0997 29.1899C25.6897 27.8299 28.6897 27.1399 31.8797 27.3099H31.8897" fill="#DF0000"/>
<path d="M29.1403 14.74C28.8403 14.74 28.5403 14.6 28.3403 14.34L27.1303 12.74C26.8003 12.3 26.8803 11.67 27.3203 11.34C27.7603 11.01 28.3903 11.09 28.7203 11.53L29.9303 13.13C30.2603 13.57 30.1803 14.2 29.7403 14.53C29.5603 14.67 29.3503 14.73 29.1403 14.73V14.74Z" fill="#323232"/>
<path d="M32.7497 19.5001C32.4497 19.5001 32.1497 19.3601 31.9497 19.1001L30.7397 17.5001C30.4097 17.0601 30.4897 16.4301 30.9297 16.1001C31.3697 15.7701 31.9997 15.8501 32.3297 16.2901L33.5397 17.8901C33.8697 18.3301 33.7897 18.9601 33.3497 19.2901C33.1697 19.4301 32.9597 19.4901 32.7497 19.4901V19.5001Z" fill="#323232"/>
<path d="M36.3503 24.2701C36.0503 24.2701 35.7503 24.1301 35.5503 23.8701L34.3403 22.2701C34.0103 21.8301 34.0903 21.2001 34.5303 20.8701C34.9703 20.5401 35.6003 20.6201 35.9303 21.0601L37.1403 22.6601C37.4703 23.1001 37.3903 23.7301 36.9503 24.0601C36.7703 24.2001 36.5603 24.2601 36.3503 24.2601V24.2701Z" fill="#323232"/>
<path d="M14.92 44.3401C14.3 44.3401 13.68 44.0601 13.28 43.5301L10.65 40.0401C10.49 39.8301 10.42 39.5601 10.46 39.3001C10.5 39.0401 10.64 38.8001 10.85 38.6401C11.84 37.8901 12.41 36.7401 12.41 35.4801C12.41 33.2901 10.63 31.5101 8.44005 31.5101C7.58005 31.5101 6.75005 31.7901 6.06005 32.3101C5.62005 32.6401 4.99005 32.5501 4.66005 32.1101L2.30005 28.9901C1.62005 28.0801 1.80005 26.7901 2.70005 26.1101L31.85 4.07007C32.74 3.39007 34.0301 3.57007 34.7201 4.47007L37.37 7.98007C37.53 8.19007 37.6001 8.46007 37.5601 8.72007C37.5201 8.98007 37.38 9.22007 37.17 9.38007C36.17 10.1301 35.6 11.2801 35.6 12.5401C35.6 14.7301 37.3801 16.5101 39.57 16.5101C40.4501 16.5101 41.2801 16.2301 41.9701 15.7101C42.18 15.5501 42.4501 15.4701 42.71 15.5101C42.97 15.5501 43.21 15.6901 43.37 15.9001L45.71 19.0001C46.39 19.9101 46.2001 21.2001 45.3101 21.8801L16.16 43.9201C15.79 44.2001 15.35 44.3301 14.92 44.3301V44.3401ZM12.79 39.5701L14.87 42.3201L44.1 20.3001C44.1 20.3001 44.14 20.2401 44.1 20.2101L42.32 17.8501C41.48 18.2901 40.5401 18.5201 39.5601 18.5201C36.2701 18.5201 33.59 15.8401 33.59 12.5501C33.59 11.0001 34.17 9.55007 35.21 8.46007L33.12 5.69007L3.90005 27.7101L5.71005 30.1801C6.55005 29.7501 7.48005 29.5201 8.44005 29.5201C11.73 29.5201 14.41 32.2001 14.41 35.4901C14.41 37.0401 13.83 38.4801 12.8 39.5801L12.79 39.5701Z" fill="#323232"/>
</svg>
