<svg width="48" height="48" viewBox="0 0 48 48" fill="none" xmlns="http://www.w3.org/2000/svg">
<g clip-path="url(#clip0_17484_917)">
<path d="M27.211 36.5498H20.791C20.241 36.5498 19.791 36.0998 19.791 35.5498C19.791 34.9998 20.241 34.5498 20.791 34.5498H27.211C27.761 34.5498 28.211 34.9998 28.211 35.5498C28.211 36.0998 27.761 36.5498 27.211 36.5498Z" fill="#323232"/>
<path d="M30.4204 39.76H17.5804C15.9704 39.76 14.6504 38.45 14.6504 36.83V11.16C14.6504 9.54998 15.9604 8.22998 17.5804 8.22998H30.4204C32.0304 8.22998 33.3504 9.53998 33.3504 11.16V36.84C33.3504 38.45 32.0404 39.77 30.4204 39.77V39.76ZM17.5804 10.24C17.0704 10.24 16.6504 10.66 16.6504 11.17V36.85C16.6504 37.36 17.0704 37.78 17.5804 37.78H30.4204C30.9304 37.78 31.3504 37.36 31.3504 36.85V11.16C31.3504 10.65 30.9304 10.23 30.4204 10.23H17.5804V10.24Z" fill="#323232"/>
<path d="M24.0008 0.799805C11.2108 0.799805 0.800781 11.2098 0.800781 23.9998C0.800781 36.7898 11.2108 47.1998 24.0008 47.1998C36.7908 47.1998 47.2008 36.7898 47.2008 23.9998C47.2008 11.2098 36.7908 0.799805 24.0008 0.799805ZM2.80078 23.9998C2.80078 18.5098 4.91078 13.5198 8.34078 9.7598L38.2408 39.6598C34.4708 43.0898 29.4808 45.1998 24.0008 45.1998C12.3108 45.1998 2.80078 35.6898 2.80078 23.9998ZM39.6608 38.2398L9.76078 8.3398C13.5308 4.9098 18.5208 2.7998 24.0008 2.7998C35.6908 2.7998 45.2008 12.3098 45.2008 23.9998C45.2008 29.4898 43.0908 34.4798 39.6608 38.2398Z" fill="#DF0000"/>
</g>
<defs>
<clipPath id="clip0_17484_917">
<rect width="48" height="48" fill="white"/>
</clipPath>
</defs>
</svg>
