<svg width="48" height="48" viewBox="0 0 48 48" fill="none" xmlns="http://www.w3.org/2000/svg">
<path d="M15.5605 29.0696C15.5605 27.4496 15.8405 26.0896 17.5505 24.9696L19.6105 23.5996C20.3605 23.1196 20.9605 22.4596 20.9605 21.4496C20.9605 20.6296 20.4405 20.0796 19.4205 20.0796C18.4005 20.0796 17.8005 20.6796 17.8005 21.5896V21.9096H15.6705V21.5596C15.6705 19.5396 17.2005 18.0996 19.4905 18.0996C21.7805 18.0996 23.2605 19.3396 23.2605 21.3496C23.2605 23.0196 22.4805 24.1196 21.0805 25.0396L19.0005 26.4296C18.2505 26.9296 18.0805 27.4996 18.0205 27.9196H23.2605V29.9396H15.5705V29.0696H15.5605Z" fill="#DF0000"/>
<path d="M32.1814 18.2695V25.5895H33.4414V27.4595H32.1814V29.9495H30.0014V27.4595H24.6914V25.3495L29.5714 18.2795H32.1814V18.2695ZM30.0014 25.5895V20.8295L26.7114 25.5895H30.0014Z" fill="#DF0000"/>
<path d="M46.1209 23.9997C46.1209 23.9997 46.1009 23.9297 46.1009 23.8897C46.0909 22.1397 45.8909 20.3797 45.4609 18.6297C42.5009 6.7997 30.4609 -0.420296 18.6309 2.5397C18.0909 2.6697 17.7709 3.2197 17.9009 3.7497C18.0309 4.2897 18.5809 4.6097 19.1109 4.4797C20.5109 4.1297 21.9109 3.9397 23.3009 3.8997V7.1997C23.3009 7.7497 23.7509 8.1997 24.3009 8.1997C24.8509 8.1997 25.3009 7.7497 25.3009 7.1997V3.9297C33.7909 4.4897 41.3409 10.4297 43.5209 19.1197C43.8409 20.4097 44.0309 21.7097 44.1009 23.0097H40.8809C40.3309 23.0097 39.8809 23.4597 39.8809 24.0197C39.8809 24.5697 40.3309 25.0197 40.8809 25.0197H44.1009C43.9409 28.2797 42.9809 31.4797 41.2509 34.3597C38.4909 38.9697 34.0909 42.2297 28.8809 43.5297C27.6809 43.8297 26.4909 43.9997 25.3009 44.0697V40.1797C25.3009 39.6297 24.8509 39.1797 24.3009 39.1797C23.7509 39.1797 23.3009 39.6297 23.3009 40.1797V44.0997C14.5709 43.7897 6.70086 37.7797 4.48086 28.8897C4.16086 27.6097 3.97086 26.3097 3.91086 25.0097H7.91086C8.46086 25.0097 8.91086 24.5597 8.91086 24.0097C8.91086 23.4597 8.46086 23.0097 7.91086 23.0097H3.91086C4.13086 18.4997 5.87086 14.1397 8.94086 10.6597L9.71086 13.7297C9.82086 14.1797 10.2309 14.4897 10.6809 14.4897C10.7609 14.4897 10.8409 14.4897 10.9209 14.4597C11.4609 14.3297 11.7809 13.7797 11.6509 13.2497L10.3009 7.8397C10.2409 7.5797 10.0709 7.3597 9.84086 7.2297C9.61086 7.0897 9.34086 7.0497 9.08086 7.1197L3.77086 8.4497C3.23086 8.5797 2.91086 9.1297 3.04086 9.6597C3.17086 10.1997 3.72086 10.5197 4.25086 10.3897L7.18086 9.6597C3.73086 13.6897 1.88086 18.7797 1.88086 23.9897C1.88086 23.9897 1.88086 23.9997 1.88086 24.0097C1.88086 24.0097 1.88086 24.0197 1.88086 24.0297C1.88086 25.8097 2.10086 27.5997 2.54086 29.3697C5.05086 39.4097 14.0909 46.1197 24.0009 46.1197C24.0909 46.1197 24.1709 46.1197 24.2609 46.1197C24.2709 46.1197 24.2909 46.1197 24.3009 46.1197C24.3209 46.1197 24.3309 46.1197 24.3509 46.1097C26.0109 46.0797 27.6909 45.8797 29.3609 45.4597C35.0909 44.0297 39.9209 40.4397 42.9609 35.3797C45.0309 31.9197 46.0809 28.0497 46.0909 24.1197C46.0909 24.0797 46.1109 24.0497 46.1109 24.0097L46.1209 23.9997Z" fill="#323232"/>
</svg>
