<svg width="48" height="48" viewBox="0 0 48 48" fill="none" xmlns="http://www.w3.org/2000/svg">
<path fill-rule="evenodd" clip-rule="evenodd" d="M25.2891 15.4899C32.6391 13.3299 35.3391 10.9899 33.3891 8.47988C30.9591 6.27988 28.2591 8.61988 25.2891 15.4899Z" fill="#8DE2E0"/>
<path fill-rule="evenodd" clip-rule="evenodd" d="M22.7094 15.4899C15.3594 13.3299 12.6594 10.9899 14.6094 8.47988C17.0394 6.27988 19.7394 8.61988 22.7094 15.4899Z" fill="#8DE2E0"/>
<path d="M16.8009 36.5801H9.96094C9.41094 36.5801 8.96094 37.0301 8.96094 37.5801C8.96094 38.1301 9.41094 38.5801 9.96094 38.5801H16.8009C17.3509 38.5801 17.8009 38.1301 17.8009 37.5801C17.8009 37.0301 17.3509 36.5801 16.8009 36.5801Z" fill="#323232"/>
<path d="M9.96094 31.2197H12.0609C12.6109 31.2197 13.0609 30.7697 13.0609 30.2197C13.0609 29.6697 12.6109 29.2197 12.0609 29.2197H9.96094C9.41094 29.2197 8.96094 29.6697 8.96094 30.2197C8.96094 30.7697 9.41094 31.2197 9.96094 31.2197Z" fill="#323232"/>
<path d="M18.9105 29.2197H16.8105C16.2605 29.2197 15.8105 29.6697 15.8105 30.2197C15.8105 30.7697 16.2605 31.2197 16.8105 31.2197H18.9105C19.4605 31.2197 19.9105 30.7697 19.9105 30.2197C19.9105 29.6697 19.4605 29.2197 18.9105 29.2197Z" fill="#323232"/>
<path d="M25.7406 29.2197H23.6406C23.0906 29.2197 22.6406 29.6697 22.6406 30.2197C22.6406 30.7697 23.0906 31.2197 23.6406 31.2197H25.7406C26.2906 31.2197 26.7406 30.7697 26.7406 30.2197C26.7406 29.6697 26.2906 29.2197 25.7406 29.2197Z" fill="#323232"/>
<path d="M32.5805 29.2197H30.4805C29.9305 29.2197 29.4805 29.6697 29.4805 30.2197C29.4805 30.7697 29.9305 31.2197 30.4805 31.2197H32.5805C33.1305 31.2197 33.5805 30.7697 33.5805 30.2197C33.5805 29.6697 33.1305 29.2197 32.5805 29.2197Z" fill="#323232"/>
<path d="M41.81 15.6699H32.26C33.88 15.0999 35.36 14.4099 36.29 13.6199C38.25 11.9499 38.95 9.24991 38.02 6.87991C37.1 4.53991 34.75 2.96991 32.19 2.96991C30.29 2.91991 28.46 3.74991 27.3 5.22991C26.13 6.51991 24.81 9.22991 24 12.0299C23.19 9.21991 21.87 6.49991 20.73 5.26991C19.58 3.76991 17.74 2.91991 15.85 2.96991C13.31 2.96991 10.9 4.53991 9.98 6.88991C9.05 9.24991 9.75 11.9599 11.71 13.6299C12.64 14.4199 14.13 15.0999 15.74 15.6699H6.19C4.29 15.6699 2.75 17.2099 2.75 19.1099V41.5799C2.75 43.4799 4.29 45.0199 6.19 45.0199H41.81C43.71 45.0199 45.25 43.4799 45.25 41.5799V19.1099C45.25 17.2099 43.71 15.6699 41.81 15.6699ZM28.8 6.55991C28.8 6.55991 28.84 6.50991 28.86 6.48991C29.59 5.53991 30.75 4.96991 32.01 4.96991C32.06 4.96991 32.1 4.96991 32.15 4.96991C33.92 4.96991 35.53 6.02991 36.15 7.61991C36.77 9.18991 36.3 10.9899 34.99 12.0999C33.2 13.6199 28.18 14.8799 25.31 15.4499C25.7 12.0399 27.55 7.89991 28.79 6.54991L28.8 6.55991ZM11.84 7.62991C12.46 6.04991 14.07 4.97991 15.88 4.97991C17.17 4.93991 18.38 5.49991 19.2 6.55991C20.45 7.90991 22.3 12.0399 22.68 15.4599C19.81 14.8799 14.79 13.6299 13 12.1099C11.69 10.9999 11.22 9.19991 11.84 7.62991ZM43.25 41.5799C43.25 42.3699 42.6 43.0199 41.81 43.0199H6.19C5.39 43.0199 4.75 42.3699 4.75 41.5799V19.1099C4.75 18.3199 5.4 17.6699 6.19 17.6699H21.46L16.67 22.8299C16.29 23.2299 16.32 23.8699 16.72 24.2399C16.91 24.4199 17.16 24.5099 17.4 24.5099C17.67 24.5099 17.94 24.3999 18.13 24.1899L23.99 17.8799L29.85 24.1899C30.05 24.3999 30.31 24.5099 30.58 24.5099C30.82 24.5099 31.07 24.4199 31.26 24.2399C31.66 23.8599 31.69 23.2299 31.31 22.8299L26.52 17.6699H41.79C42.58 17.6699 43.23 18.3199 43.23 19.1099V41.5799H43.25Z" fill="#323232"/>
</svg>
