<svg width="24" height="24" viewBox="0 0 24 24" fill="none" xmlns="http://www.w3.org/2000/svg">
<path fill-rule="evenodd" clip-rule="evenodd" d="M11.4 1.0195C6.62 1.3295 3 5.5195 3 10.3095V16.9995C3 18.6595 4.34 19.9995 6 19.9995H7C8.1 19.9995 9 19.0995 9 17.9995V13.9995C9 12.8995 8.1 11.9995 7 11.9995H5V10.2895C5 6.4495 7.96 3.1095 11.79 2.9995C15.76 2.8895 19 6.0595 19 9.9995V11.9995H17C15.9 11.9995 15 12.8995 15 13.9995V17.9995C15 19.0995 15.9 19.9995 17 19.9995H19V20.9995H13C12.45 20.9995 12 21.4495 12 21.9995C12 22.5495 12.45 22.9995 13 22.9995H18C19.66 22.9995 21 21.6595 21 19.9995V9.9995C21 4.8295 16.64 0.679502 11.4 1.0195Z" fill="#323232"/>
</svg>
