<svg width="70" height="70" viewBox="0 0 70 70" fill="none" xmlns="http://www.w3.org/2000/svg">
<g clip-path="url(#clip0_15605_1622)">
<path d="M56.4911 53.7999C56.5274 53.8363 56.5638 53.8363 56.6002 53.8363C56.6729 53.8363 56.7092 53.8363 56.782 53.7636C56.8547 53.6909 56.8547 53.5454 56.782 53.4727C52.4547 48.9272 47.1274 45.2545 41.2002 42.8727L39.382 42.1454C38.4365 41.7454 37.8183 40.8363 37.8183 39.7818C37.9274 35.8909 47.1092 36.6909 48.0547 34.8363L48.2002 34.509C46.3092 32.8727 44.0911 31.6727 41.6183 30.9818C41.582 31.0909 41.5093 31.5272 42.0183 32.3636C42.5638 33.2363 41.4365 34.6545 39.7638 33.1272L39.6183 33.0181C27.4547 21.8727 21.8547 29.2363 13.6002 16.2727C13.5274 16.1636 13.4183 16.1272 13.3093 16.1999C13.2002 16.2727 13.1638 16.3818 13.2002 16.4909C19.7093 32.1818 33.0365 28.8727 34.6002 43.4909C34.6729 44.0363 35.0729 44.4727 35.6183 44.5454C43.0002 45.709 50.2183 48.7636 56.4729 53.7999H56.5092H56.4911Z" fill="#DF0000"/>
<path d="M35 70C15.7091 70 0 54.2909 0 35C0 15.7091 15.7091 0 35 0C54.2909 0 70 15.7091 70 35C70 54.2909 54.2909 70 35 70ZM35 2.18182C16.9091 2.18182 2.18182 16.9091 2.18182 35C2.18182 53.0909 16.9091 67.8182 35 67.8182C53.0909 67.8182 67.8182 53.0909 67.8182 35C67.8182 16.9091 53.0909 2.18182 35 2.18182Z" fill="#DF0000"/>
<path d="M31.2911 9.85462L28.982 10.2364L29.2729 12.0001L31.8911 11.5455L32.0365 12.3819L28.4911 12.9819L27.5093 7.10916L30.9638 6.52734L31.1093 7.36371L28.5638 7.78189L28.8366 9.43643L31.1456 9.03643L31.2911 9.85462Z" fill="#DF0000"/>
<path d="M33.5639 12.3271L32.6548 12.2907L34.6184 6.41797L35.673 6.45433L37.2002 12.4543L36.3275 12.418L36.0184 11.218L33.9457 11.1452L33.5457 12.3271H33.5639ZM35.1093 7.63615L34.2002 10.3634L35.8002 10.418L35.1093 7.63615Z" fill="#DF0000"/>
<path d="M41.9091 13.5636L40.9091 13.3272L40.5273 10.909C40.4909 10.909 40.4545 10.909 40.3818 10.8909L39.4364 10.6727L38.9091 12.8545L38 12.6363L39.3636 6.85449L41.2727 7.30904C41.8545 7.45449 42.2909 7.72722 42.5818 8.12722C42.8727 8.5454 42.9636 8.99995 42.8364 9.5454C42.7455 9.90904 42.5818 10.2181 42.3455 10.4545C42.1091 10.6909 41.8182 10.8363 41.4727 10.909L41.9091 13.5636ZM41.0364 8.09086L40.1091 7.87267L39.6364 9.87267L40.5636 10.0909C40.9091 10.1636 41.2 10.1454 41.4545 9.99995C41.7091 9.85449 41.8545 9.63631 41.9273 9.32722C42 9.03631 41.9455 8.76358 41.8 8.5454C41.6364 8.32722 41.3818 8.16358 41.0364 8.09086Z" fill="#DF0000"/>
<path d="M48.9456 10.2911L46.3638 15.6366L45.6729 15.3093L45.382 10.582L43.582 14.2911L42.8184 13.9275L45.4184 8.58203L46.1274 8.92749L46.4184 13.582L48.182 9.9093L48.9456 10.2911Z" fill="#DF0000"/>
<path d="M54.6183 16.5272L54.4911 16.6727L53.8729 16.0909L54.0183 15.9272C54.182 15.7636 54.2547 15.5818 54.2547 15.3999C54.2547 15.2181 54.182 15.0545 54.0183 14.8909C53.8547 14.7454 53.7092 14.6727 53.5274 14.6909C53.3638 14.6909 53.2001 14.7818 53.0729 14.9272C52.8365 15.1818 52.7092 15.5272 52.7092 15.9636L52.5092 18.0181L53.8729 17.509L54.5638 18.0363L52.4365 18.7636L52.2729 20.4545L51.5092 19.7454L51.582 18.9636C50.9456 19.0181 50.4001 18.8363 49.9638 18.4363C49.5638 18.0727 49.3456 17.6727 49.2911 17.2545C49.2365 16.8363 49.4002 16.4363 49.7456 16.0545C50.0183 15.7636 50.3274 15.6181 50.6911 15.5636C51.0547 15.5272 51.4365 15.5999 51.8547 15.7999V15.7454C51.9456 15.1272 52.1274 14.6545 52.4183 14.3272C52.7092 13.9999 53.0547 13.8545 53.4547 13.8545C53.8547 13.8545 54.2183 14.0181 54.5638 14.3454C54.9092 14.6727 55.0911 15.0181 55.1092 15.3999C55.1092 15.7818 54.9638 16.1454 54.6547 16.4909M50.5638 17.9636C50.8547 18.2363 51.2002 18.3272 51.6365 18.2545L51.8001 16.4545C51.2729 16.1999 50.8547 16.2727 50.5092 16.6363C50.3092 16.8545 50.2002 17.0909 50.2183 17.309C50.2183 17.5272 50.3456 17.7454 50.582 17.9636" fill="#DF0000"/>
<path d="M60.5453 22.2726L61.018 23.0726L57.4907 25.1271C56.9816 25.418 56.4726 25.509 55.9998 25.3635C55.5089 25.218 55.1271 24.909 54.818 24.3817C54.5271 23.8726 54.4362 23.3635 54.5635 22.8726C54.6907 22.3817 54.9998 21.9817 55.5089 21.6908L59.0362 19.6362L59.5089 20.4362L55.9816 22.4908C55.6907 22.6544 55.5089 22.8726 55.4362 23.1271C55.3453 23.3817 55.3998 23.6544 55.5635 23.9453C55.7271 24.218 55.9453 24.3999 56.218 24.4544C56.4907 24.509 56.7635 24.4544 57.0544 24.2908L60.5816 22.2362L60.5453 22.2726Z" fill="#DF0000"/>
<path d="M61.4727 29.2362L61.1817 28.3635L61.3454 28.3089C61.5999 28.218 61.7817 28.0726 61.8727 27.8544C61.9817 27.6362 61.9817 27.3817 61.8727 27.0908C61.7817 26.7999 61.6363 26.5999 61.4363 26.4908C61.2363 26.3817 61.0363 26.3453 60.8181 26.4362C60.6727 26.4908 60.5454 26.5817 60.4363 26.7271C60.3454 26.8726 60.2908 27.0544 60.2908 27.2544L60.2363 28.218C60.2363 28.3999 60.2181 28.5635 60.1999 28.6908C60.1999 28.818 60.1636 28.9635 60.109 29.1271C60.0545 29.2908 59.9999 29.4362 59.9272 29.5453C59.8545 29.6544 59.7454 29.7817 59.5999 29.8908C59.4545 29.9999 59.2908 30.0908 59.109 30.1453C58.5999 30.3089 58.1454 30.2726 57.709 30.0362C57.2908 29.7999 56.9817 29.3999 56.7817 28.8362C56.5817 28.2726 56.5818 27.7453 56.7636 27.2908C56.9454 26.8362 57.2727 26.5271 57.7817 26.3635L57.9454 26.3089L58.2363 27.1817L58.0363 27.2544C57.7818 27.3453 57.5999 27.5089 57.509 27.7453C57.4181 27.9817 57.4181 28.2544 57.509 28.5817C57.6181 28.9089 57.7817 29.1271 57.9999 29.2726C58.2181 29.3999 58.4545 29.418 58.709 29.3453C59.109 29.218 59.309 28.8544 59.3272 28.2726L59.3636 27.3271C59.3999 26.418 59.7636 25.8544 60.4545 25.618C60.8908 25.4726 61.309 25.5089 61.709 25.7271C62.109 25.9453 62.3999 26.3271 62.5817 26.8544C62.7636 27.3999 62.7636 27.8908 62.5817 28.3089C62.3999 28.7453 62.0545 29.0362 61.5636 29.1999L61.4363 29.2362H61.4727Z" fill="#DF0000"/>
<path d="M60.7452 34.5453L60.4361 32.218L58.6907 32.4544L59.0361 35.0907L58.1998 35.1998L57.7271 31.6362L63.618 30.8726L64.0725 34.3453L63.2361 34.4544L62.9089 31.8907L61.2543 32.1089L61.5634 34.4362L60.7452 34.5453Z" fill="#DF0000"/>
<path d="M11.0363 30.9818L8.8727 30.4363C8.12725 30.2363 7.65452 29.7999 7.4727 29.1272L5.92725 29.6545L6.19997 28.5999L7.4727 28.1818C7.4727 28.109 7.4727 28.0545 7.50906 27.9999C7.65452 27.4181 7.94543 26.9818 8.38179 26.709C8.81816 26.4363 9.32725 26.3818 9.89088 26.5272L12.0545 27.0909C12.6363 27.2363 13.0545 27.5272 13.3091 27.9636C13.5636 28.3999 13.6 28.9272 13.4363 29.5272C13.2909 30.109 13 30.5454 12.5636 30.8181C12.1272 31.0909 11.6182 31.1636 11.0545 31.0181M11.8182 27.9636L9.65452 27.4181C9.32725 27.3272 9.05452 27.3636 8.79997 27.4909C8.56361 27.6363 8.39997 27.8545 8.30906 28.1999C8.21816 28.5272 8.25452 28.8181 8.39997 29.0545C8.54543 29.2909 8.78179 29.4545 9.10906 29.5272L11.2727 30.0727C11.6 30.1636 11.8727 30.1272 12.1272 29.9999C12.3636 29.8727 12.5272 29.6363 12.6182 29.2909C12.7091 28.9636 12.6727 28.6727 12.5272 28.4363C12.3818 28.1999 12.1454 28.0363 11.8182 27.9636Z" fill="#DF0000"/>
<path d="M6.7635 32.7275L6.79987 31.8184L12.6726 33.7638L12.6362 34.8184L6.63623 36.3638L6.67259 35.4911L7.87259 35.182L7.94532 33.1093L6.7635 32.7275ZM11.4726 34.2729L8.74532 33.382L8.69078 34.982L11.4726 34.2729Z" fill="#DF0000"/>
<path d="M13.4363 41.3454L7.61813 42.4908L7.45449 41.7272L11.0545 38.6727L7.01813 39.4545L6.85449 38.6181L12.6727 37.4727L12.8363 38.2545L9.29086 41.2727L13.2727 40.4908L13.4363 41.3454Z" fill="#DF0000"/>
<path d="M12.9273 42.4908L13.691 42.1636L15.2364 45.7454L14.4728 46.0727L13.891 44.709L9.20006 46.7272L8.83643 45.8727L13.5092 43.8545L12.9273 42.4908Z" fill="#DF0000"/>
<path d="M10.7635 49.7637L10.2544 49.0001L16.1635 47.1455L16.7635 48.0182L12.7998 52.7819L12.3089 52.0546L13.1089 51.1091L11.9635 49.3819L10.7817 49.7637H10.7635ZM15.4726 48.2728L12.7271 49.1455L13.618 50.4728L15.4544 48.2728H15.4726Z" fill="#DF0000"/>
<path d="M19.6726 53.8544L19.0181 53.2181L19.1271 53.109C19.309 52.909 19.3999 52.709 19.3817 52.4544C19.3817 52.2181 19.2544 51.9817 19.0362 51.7817C18.8181 51.5635 18.5999 51.4544 18.3817 51.4362C18.1635 51.4362 17.9635 51.4908 17.7999 51.6726C17.6908 51.7817 17.6181 51.9272 17.5999 52.109C17.5817 52.2726 17.5999 52.4544 17.709 52.6544L18.109 53.5272C18.1817 53.6908 18.2544 53.8363 18.2908 53.9453C18.3453 54.0726 18.3817 54.1999 18.4181 54.3817C18.4544 54.5453 18.4544 54.709 18.4544 54.8362C18.4544 54.9817 18.3999 55.1272 18.3271 55.2908C18.2544 55.4544 18.1453 55.5999 18.0181 55.7453C17.6544 56.1272 17.2181 56.309 16.7271 56.2908C16.2362 56.2726 15.7817 56.0544 15.3635 55.6544C14.9271 55.2362 14.6908 54.7817 14.6362 54.309C14.5817 53.8181 14.7453 53.3999 15.109 53.0181L15.2362 52.8908L15.8908 53.5272L15.7453 53.6726C15.5635 53.8726 15.4726 54.0908 15.4908 54.3453C15.509 54.5999 15.6544 54.8362 15.8908 55.0726C16.1453 55.309 16.3817 55.4362 16.6362 55.4544C16.8908 55.4544 17.109 55.3817 17.2908 55.1999C17.5817 54.8908 17.5999 54.4908 17.3453 53.9635L16.9453 53.109C16.5635 52.2908 16.6181 51.6181 17.1271 51.0908C17.4544 50.7635 17.8362 50.5999 18.2908 50.6181C18.7453 50.6181 19.1817 50.8362 19.5817 51.2362C19.9999 51.6362 20.2181 52.0726 20.2544 52.5272C20.2908 52.9999 20.1271 53.4181 19.7635 53.7999L19.6726 53.8908V53.8544Z" fill="#DF0000"/>
<path d="M20.9092 59.7638L23.5455 54.4365L25.291 55.3093C25.8183 55.5638 26.1819 55.9456 26.3637 56.4365C26.5455 56.9274 26.5092 57.4183 26.2728 57.9274C26.0183 58.4547 25.6365 58.8002 25.1274 58.9456C24.6183 59.0911 24.1092 59.0365 23.5819 58.782L22.6728 58.3274L21.7455 60.182L20.9092 59.7638ZM24.8546 56.0002L24.0001 55.582L23.0001 57.582L23.8546 58.0002C24.1637 58.1456 24.4728 58.182 24.7455 58.0911C25.0183 58.0002 25.2365 57.8002 25.4001 57.4911C25.5455 57.182 25.5819 56.9093 25.4728 56.6365C25.3637 56.3638 25.1637 56.1456 24.8546 56.0002Z" fill="#DF0000"/>
<path d="M31.3816 59.2184L30.8543 61.382C30.7089 61.9638 30.418 62.3638 29.9816 62.6184C29.5452 62.8729 29.018 62.9275 28.418 62.782C27.818 62.6366 27.3998 62.3457 27.1089 61.9275C26.8361 61.4911 26.7634 61.0002 26.9089 60.4184L27.4361 58.2547C27.5816 57.6729 27.8725 57.2547 28.2907 57.0002C28.727 56.7457 29.2361 56.6911 29.8543 56.8547C30.4543 57.0002 30.8907 57.2911 31.1634 57.7093C31.4361 58.1457 31.5089 58.6366 31.3816 59.2184ZM28.3452 58.4729L27.818 60.6366C27.7452 60.9638 27.7634 61.2366 27.9089 61.4911C28.0543 61.7275 28.2907 61.8911 28.618 61.982C28.9452 62.0547 29.2361 62.0366 29.4725 61.8729C29.7089 61.7275 29.8725 61.4911 29.9452 61.1638L30.4725 59.0002C30.5452 58.6729 30.527 58.4002 30.3816 58.1457C30.2361 57.9093 29.9998 57.7457 29.6725 57.6547C29.3452 57.582 29.0543 57.6002 28.818 57.7638C28.5816 57.9093 28.418 58.1457 28.3452 58.4729Z" fill="#DF0000"/>
<path d="M33.0984 57.475L32.6733 63.4053L33.5982 63.4716L34.0233 57.5413L33.0984 57.475Z" fill="#DF0000"/>
<path d="M39.3817 57.2729L39.9817 63.182L39.2181 63.2548L36.509 59.382L36.909 63.4911L36.0727 63.5639L35.4727 57.6548L36.2727 57.582L38.9454 61.4002L38.5272 57.3457L39.3817 57.2729Z" fill="#DF0000"/>
<path d="M40.4729 57.8911L40.2002 57.0911L43.9093 55.8911L44.182 56.6911L42.7638 57.1457L44.3275 62.0002L43.4547 62.2911L41.8729 57.4366L40.4729 57.8911Z" fill="#DF0000"/>
<path d="M48.6908 55.2911L47.8908 55.7456L47.8181 55.6002C47.6908 55.3638 47.509 55.2183 47.2726 55.1638C47.0363 55.1093 46.7817 55.1638 46.5272 55.2911C46.2726 55.4365 46.0908 55.6183 46.0181 55.8365C45.9454 56.0365 45.9635 56.2547 46.0726 56.4547C46.1454 56.6002 46.2726 56.6911 46.4363 56.7638C46.5999 56.8365 46.7817 56.8547 46.9999 56.8183L47.9454 56.6911C48.1272 56.6729 48.2726 56.6547 48.3999 56.6365C48.5272 56.6365 48.6726 56.6365 48.8545 56.6365C49.0363 56.6365 49.1817 56.6911 49.309 56.7456C49.4363 56.8002 49.5635 56.8911 49.709 57.0002C49.8363 57.1093 49.9635 57.2547 50.0545 57.4365C50.309 57.8911 50.3635 58.3638 50.1999 58.8183C50.0363 59.2729 49.709 59.6547 49.1817 59.9456C48.6545 60.2365 48.1454 60.3456 47.6726 60.2547C47.1999 60.1638 46.8363 59.8911 46.5635 59.4365L46.4726 59.2911L47.2726 58.8365L47.3817 59.0183C47.509 59.2547 47.709 59.4002 47.9635 59.4547C48.2181 59.5093 48.4908 59.4547 48.7817 59.2729C49.0726 59.1093 49.2726 58.9093 49.3635 58.6547C49.4545 58.4183 49.4363 58.182 49.309 57.9456C49.109 57.582 48.709 57.4547 48.1454 57.5456L47.2181 57.6729C46.309 57.8002 45.6908 57.5638 45.3272 56.9274C45.0908 56.5274 45.0545 56.1093 45.1999 55.6729C45.3454 55.2365 45.6726 54.8911 46.1635 54.6183C46.6545 54.3456 47.1454 54.2547 47.5999 54.3456C48.0545 54.4365 48.4181 54.7274 48.6726 55.182L48.7272 55.2911H48.6908Z" fill="#DF0000"/>
</g>
<defs>
<clipPath id="clip0_15605_1622">
<rect width="70" height="70" fill="white"/>
</clipPath>
</defs>
</svg>
