<svg width="24" height="24" viewBox="0 0 24 24" fill="none" xmlns="http://www.w3.org/2000/svg">
<g clip-path="url(#clip0_16335_2008)">
<path d="M20.4851 20.4853C25.1714 15.799 25.1714 8.20101 20.4851 3.51472C15.7988 -1.17157 8.20081 -1.17157 3.51452 3.51472C-1.17177 8.20101 -1.17177 15.799 3.51452 20.4853C8.20081 25.1716 15.7988 25.1716 20.4851 20.4853Z" fill="#00ADFE"/>
<mask id="mask0_16335_2008" style="mask-type:luminance" maskUnits="userSpaceOnUse" x="-1" y="0" width="25" height="24">
<path d="M20.4851 20.4853C25.1714 15.799 25.1714 8.20101 20.4851 3.51472C15.7988 -1.17157 8.20081 -1.17157 3.51452 3.51472C-1.17177 8.20101 -1.17177 15.799 3.51452 20.4853C8.20081 25.1716 15.7988 25.1716 20.4851 20.4853Z" fill="white"/>
</mask>
<g mask="url(#mask0_16335_2008)">
<path fill-rule="evenodd" clip-rule="evenodd" d="M10.3426 20.4351L10.5969 21.2246L11.4256 21.2218L10.7549 21.7081L11.012 22.4963L10.3426 22.0086L9.67183 22.4963L9.93036 21.7081L9.25818 21.2218L10.0869 21.2246L10.3426 20.4351Z" fill="#FED700"/>
<path fill-rule="evenodd" clip-rule="evenodd" d="M17.9113 15.5649L18.1656 16.3545L18.9943 16.3531L18.3235 16.8394L18.5807 17.6276L17.9113 17.1385L17.2405 17.6276L17.499 16.8394L16.8268 16.3531L17.6555 16.3545L17.9113 15.5649Z" fill="#FED700"/>
<path fill-rule="evenodd" clip-rule="evenodd" d="M20.9689 13.0688L21.2232 13.8584L22.0533 13.857L21.3811 14.3419L21.6383 15.1315L20.9689 14.6424L20.2995 15.1315L20.5566 14.3419L19.8845 13.857L20.7146 13.8584L20.9689 13.0688Z" fill="#FED700"/>
<path fill-rule="evenodd" clip-rule="evenodd" d="M20.2632 5.83838L20.5175 6.62794L21.3476 6.62655L20.6755 7.11147L20.9326 7.89963L20.2632 7.41192L19.5938 7.89963L19.851 7.11147L19.1788 6.62655L20.0089 6.62794L20.2632 5.83838Z" fill="#FED700"/>
<path fill-rule="evenodd" clip-rule="evenodd" d="M15.3958 18.2524L16.0624 18.7457L16.736 18.2608L16.4733 19.0476L17.1413 19.5381L16.3126 19.5311L16.0527 20.3193L15.8025 19.5283L14.9738 19.5241L15.6488 19.042L15.3958 18.2524Z" fill="#FED700"/>
<path fill-rule="evenodd" clip-rule="evenodd" d="M13.0216 19.4834L13.6882 19.9767L14.3617 19.4918L14.0976 20.2786L14.767 20.7691L13.9383 20.7621L13.6784 21.5502L13.4282 20.7593L12.5995 20.7551L13.2745 20.2744L13.0216 19.4834Z" fill="#FED700"/>
<path fill-rule="evenodd" clip-rule="evenodd" d="M13.0216 15.8501L13.6882 16.342L14.3617 15.8585L14.0976 16.6453L14.767 17.1358L13.9383 17.1288L13.6784 17.9155L13.4282 17.1246L12.5995 17.1204L13.2745 16.6397L13.0216 15.8501Z" fill="#FED700"/>
<path fill-rule="evenodd" clip-rule="evenodd" d="M17.5186 9.57275L18.1852 10.0661L18.8574 9.58254L18.5946 10.3679L19.264 10.8584L18.4353 10.8514L18.1754 11.6396L17.9253 10.8486L17.0966 10.8444L17.7701 10.3637L17.5186 9.57275Z" fill="#FED700"/>
<path fill-rule="evenodd" clip-rule="evenodd" d="M14.7279 10.7632L15.3945 11.2565L16.0666 10.7716L15.8039 11.5583L16.4733 12.0488L15.6432 12.0419L15.3833 12.83L15.1345 12.0391L14.3058 12.0349L14.9794 11.5527L14.7279 10.7632Z" fill="#FED700"/>
<path d="M13.9802 0H0.122986V9.25678H13.9802V0Z" fill="white"/>
<path fill-rule="evenodd" clip-rule="evenodd" d="M0.122986 3.14135V1.11084L3.02971 3.14135H0.122986Z" fill="#003399"/>
<path fill-rule="evenodd" clip-rule="evenodd" d="M0.122986 8.16967V6.13916H3.02971L0.122986 8.16967Z" fill="#003399"/>
<path fill-rule="evenodd" clip-rule="evenodd" d="M5.61782 9.25659H1.71332L5.61782 6.52734V9.25659Z" fill="#003399"/>
<path fill-rule="evenodd" clip-rule="evenodd" d="M12.4263 9.2569H8.48682V6.50391L12.4263 9.2569Z" fill="#003399"/>
<path fill-rule="evenodd" clip-rule="evenodd" d="M13.9802 6.11523V8.14575L11.0749 6.11523H13.9802Z" fill="#003399"/>
<path fill-rule="evenodd" clip-rule="evenodd" d="M13.9802 1.0874V3.11791H11.0749L13.9802 1.0874Z" fill="#003399"/>
<path fill-rule="evenodd" clip-rule="evenodd" d="M12.3913 0L8.48682 2.72924V0H12.3913Z" fill="#003399"/>
<path fill-rule="evenodd" clip-rule="evenodd" d="M5.61779 0V2.753L1.67834 0H5.61779Z" fill="#003399"/>
<path d="M13.9802 3.73145H0.122986V5.54954H13.9802V3.73145Z" fill="#FF0000"/>
<path d="M7.92221 0H6.18097V9.25678H7.92221V0Z" fill="#FF0000"/>
<path fill-rule="evenodd" clip-rule="evenodd" d="M1.15711 9.2569L5.6178 6.13916H4.58368L0.122986 9.2569H1.15711Z" fill="#FF0000"/>
<path fill-rule="evenodd" clip-rule="evenodd" d="M3.5859 3.14149L0.122986 0.722488V0L4.61862 3.14149H3.5859Z" fill="#FF0000"/>
<path fill-rule="evenodd" clip-rule="evenodd" d="M12.9475 0L8.48682 3.11774H9.52094L13.9802 0H12.9475Z" fill="#FF0000"/>
<path fill-rule="evenodd" clip-rule="evenodd" d="M10.5187 6.11523L13.9802 8.53424V9.25673L9.48596 6.11523H10.5187Z" fill="#FF0000"/>
</g>
</g>
<rect x="0.25" y="0.25" width="23.5" height="23.5" rx="11.75" stroke="#E5E3E1" stroke-width="0.5"/>
<defs>
<clipPath id="clip0_16335_2008">
<rect width="24" height="24" rx="12" fill="white"/>
</clipPath>
</defs>
</svg>
