<svg width="48" height="48" viewBox="0 0 48 48" fill="none" xmlns="http://www.w3.org/2000/svg">
<path d="M24.0194 31.3899C24.0194 31.3899 23.9594 31.3899 23.9494 31.3899C23.9194 31.3899 23.8894 31.3899 23.8694 31.3899C23.2194 31.3699 20.6494 31.1999 16.8094 29.8899C16.2894 29.7099 16.0094 29.1399 16.1894 28.6199C16.3694 28.0999 16.9294 27.8199 17.4594 27.9999C21.2094 29.2799 23.6594 29.3799 23.9994 29.3899C24.3294 29.3899 26.7794 29.2699 30.5294 27.9999C31.0594 27.8199 31.6194 28.0999 31.7994 28.6199C31.9794 29.1399 31.6994 29.7099 31.1794 29.8899C27.3394 31.1899 24.7694 31.3699 24.1194 31.3899C24.0994 31.3899 24.0694 31.3899 24.0494 31.3899H24.0194Z" fill="#8DE2E0"/>
<path d="M24.0209 26.03C24.0209 26.03 23.9709 26.03 23.9509 26.03C23.3609 26.03 19.2809 25.92 15.1609 24.51C14.6409 24.33 14.3609 23.76 14.5409 23.24C14.7209 22.72 15.2809 22.44 15.8109 22.62C19.6409 23.92 23.5509 24.02 23.9909 24.03C24.4309 24.03 28.3409 23.92 32.1709 22.62C32.7009 22.44 33.2609 22.72 33.4409 23.24C33.6209 23.76 33.3409 24.33 32.8209 24.51C28.8209 25.87 24.8509 26.01 24.0909 26.03C24.0709 26.03 24.0509 26.03 24.0309 26.03H24.0209Z" fill="#8DE2E0"/>
<path d="M14.1193 20.1505C13.5793 20.1505 13.1293 19.7205 13.1193 19.1705C13.1093 18.6205 13.5493 18.1605 14.0993 18.1505C14.4993 18.1405 17.5393 18.0005 19.1193 17.7205C19.9393 17.5705 20.4393 17.3605 20.9593 17.1405C21.7093 16.8205 22.4993 16.4805 23.9793 16.4805C25.4593 16.4805 26.2493 16.8105 26.9993 17.1405C27.5193 17.3605 28.0093 17.5705 28.8393 17.7205C30.4193 18.0005 33.4593 18.1405 33.8693 18.1505C34.4193 18.1605 34.8593 18.6205 34.8393 19.1705C34.8293 19.7205 34.3793 20.1605 33.8193 20.1505C33.7893 20.1505 30.3893 20.0305 28.4893 19.6905C27.4393 19.5005 26.7893 19.2305 26.2193 18.9805C25.5493 18.6905 25.0593 18.4805 23.9793 18.4805C22.8993 18.4805 22.4193 18.6905 21.7393 18.9805C21.1693 19.2305 20.5093 19.5005 19.4593 19.6905C17.5593 20.0305 14.1593 20.1505 14.1293 20.1505H14.1093H14.1193Z" fill="#8DE2E0"/>
<path d="M46.2402 21.1904C46.2402 19.5904 45.6902 18.2704 44.5902 17.2604C42.2202 15.0804 38.0502 15.2204 37.2902 15.2704L33.1202 14.6904C29.5202 14.1904 28.7602 13.6604 27.3902 12.7104C25.5302 11.4204 24.4302 11.2904 23.9902 11.3104C23.5702 11.3004 22.4502 11.4304 20.5902 12.7204C19.2102 13.6704 18.4602 14.2004 14.8602 14.7004L10.6902 15.2804C9.93023 15.2304 5.76023 15.0904 3.39023 17.2704C2.30023 18.2704 1.74023 19.6004 1.74023 21.2004C1.74023 25.4704 5.15023 28.1204 10.8802 28.4004C11.0502 28.7504 11.2302 29.1004 11.4302 29.4504C14.5602 34.8404 21.3602 36.6504 23.9902 36.6504C26.6202 36.6504 33.4202 34.8404 36.5502 29.4504C36.7502 29.1004 36.9302 28.7504 37.1002 28.4004C42.8402 28.1204 46.2402 25.4704 46.2402 21.2004V21.1904ZM3.75023 21.1904C3.75023 20.1604 4.08023 19.3504 4.75023 18.7304C6.03023 17.5504 8.21023 17.2904 9.54023 17.2504C9.26023 19.0704 8.98023 22.6604 10.1102 26.3204C7.26023 26.0404 3.76023 24.9304 3.76023 21.1804L3.75023 21.1904ZM23.9902 34.6404C22.0602 34.6404 15.9102 33.1704 13.1602 28.4404C10.6802 24.1704 11.2602 18.9704 11.5702 17.1704L15.1402 16.6704C19.0202 16.1304 20.1202 15.4704 21.7302 14.3504C23.1402 13.3704 23.8502 13.3104 23.8602 13.3004C23.9902 13.3404 23.9202 13.3204 24.0602 13.3004C24.0602 13.3004 24.7702 13.3204 26.2502 14.3504C27.8602 15.4704 28.9602 16.1304 32.8402 16.6704L36.4102 17.1704C36.7202 18.9704 37.3002 24.1704 34.8202 28.4404C32.0702 33.1704 25.9202 34.6404 23.9902 34.6404ZM37.8902 26.3404C39.0202 22.6804 38.7302 19.0804 38.4602 17.2604C39.7802 17.3004 41.9702 17.5604 43.2502 18.7404C43.9202 19.3604 44.2502 20.1604 44.2502 21.2004C44.2502 24.9504 40.7502 26.0604 37.9002 26.3404H37.8902Z" fill="#323232"/>
</svg>
