<svg width="24" height="24" viewBox="0 0 24 24" fill="none" xmlns="http://www.w3.org/2000/svg">
<path fill-rule="evenodd" clip-rule="evenodd" d="M6 7C6 9.76228 8.23772 12 11 12C13.7623 12 16 9.76228 16 7C16 4.23772 13.7623 2 11 2C8.23772 2 6 4.23772 6 7ZM14 7C14 8.65772 12.6577 10 11 10C9.34228 10 8 8.65772 8 7C8 5.34228 9.34228 4 11 4C12.6577 4 14 5.34228 14 7ZM12.9655 13.1364C12.3081 13.0465 11.6461 13 11 13C6.83098 13 2 14.9353 2 18V20H4V18C4 16.5399 7.844 15 11 15C11.2183 15 11.44 15.0074 11.6634 15.0216C11.9928 14.3221 12.4346 13.6859 12.9655 13.1364ZM17.995 13C15.235 13 13 15.24 13 18C13 20.76 15.235 23 17.995 23C20.76 23 23 20.76 23 18C23 15.24 20.76 13 17.995 13ZM16.4346 20.6764C16.2202 20.8005 15.9602 20.6115 16.0121 20.3693L16.3799 18.6502L15.0934 17.4749C14.9113 17.3086 15.0113 17.0051 15.2567 16.9797L17.0036 16.7988L17.7402 15.1681C17.8415 14.944 18.1598 14.944 18.2611 15.1681L18.9977 16.7988L20.7446 16.9797C20.99 17.0051 21.09 17.3086 20.9079 17.4749L19.6214 18.6502L19.9892 20.3693C20.0411 20.6115 19.7811 20.8005 19.5667 20.6764L18.0006 19.7701L16.4346 20.6764Z" fill="#323232"/>
</svg>
