<svg width="48" height="48" viewBox="0 0 48 48" fill="none" xmlns="http://www.w3.org/2000/svg">
<path d="M42.5301 40.8202V36.4502H34.5801V40.8202V45.1902H45.1901V40.8202H42.5301Z" fill="#8DE2E0"/>
<path d="M30.3803 22.4404C31.0803 23.3504 31.6903 24.2704 32.1803 25.1604L31.9803 25.3604C31.5903 25.7504 31.5903 26.3804 31.9803 26.7704L35.6203 30.4104C35.8103 30.6004 36.0603 30.7004 36.3303 30.7004C36.6003 30.7004 36.8503 30.5904 37.0403 30.4104L45.9303 21.5204C46.1203 21.3304 46.2203 21.0804 46.2203 20.8104C46.2203 20.5403 46.1103 20.2904 45.9303 20.1004L42.2903 16.4604C41.9003 16.0704 41.2703 16.0704 40.8803 16.4604L40.6803 16.6604C38.9303 15.7004 37.0803 14.2904 35.4103 12.6204C33.7403 10.9504 32.3203 9.10035 31.3703 7.35035L31.5703 7.15035C31.7603 6.96035 31.8603 6.71035 31.8603 6.44035C31.8603 6.17035 31.7503 5.92035 31.5703 5.73035L27.9303 2.09035C27.5403 1.70035 26.9103 1.70035 26.5203 2.09035L17.6303 10.9804C17.4403 11.1704 17.3403 11.4204 17.3403 11.6904C17.3403 11.9604 17.4503 12.2104 17.6303 12.4004L21.2703 16.0404C21.4703 16.2404 21.7203 16.3304 21.9803 16.3304C22.2403 16.3304 22.4903 16.2304 22.6903 16.0404L22.8903 15.8404C23.7803 16.3304 24.7003 16.9404 25.6103 17.6404L15.1203 28.1304C14.7403 27.9303 14.2703 27.9804 13.9603 28.3004L2.10033 40.1604C1.96033 40.3004 1.86033 40.4903 1.82033 40.6903C1.77033 40.9804 1.61033 42.5204 3.57033 44.4804C5.12033 46.0303 6.40033 46.2504 7.02033 46.2504C7.18033 46.2504 7.30033 46.2304 7.36033 46.2204C7.56033 46.1804 7.74033 46.0904 7.89033 45.9403L19.7503 34.0804C19.9403 33.8904 20.0403 33.6404 20.0403 33.3703C20.0403 33.2104 19.9903 33.0604 19.9203 32.9104L30.4103 22.4204L30.3803 22.4404ZM43.8103 20.8204L36.3303 28.3004L34.1103 26.0804L41.5903 18.6004L43.8103 20.8204ZM19.7403 11.7104L27.2203 4.23035L29.4403 6.45035L21.9803 13.9204L19.7603 11.7004L19.7403 11.7104ZM29.9003 8.83035C30.9303 10.5904 32.3303 12.3704 34.0003 14.0404C35.6703 15.7104 37.4503 17.1104 39.2103 18.1404L33.6503 23.7004C32.9803 22.5604 32.1503 21.4204 31.2003 20.3004C31.1903 20.2803 31.1803 20.2604 31.1703 20.2504C31.1703 20.2504 31.1603 20.2504 31.1503 20.2404C30.6503 19.6504 30.1203 19.0604 29.5503 18.4904C28.9803 17.9204 28.3903 17.4004 27.8003 16.8904C27.8003 16.8904 27.8003 16.8804 27.7903 16.8704C27.7703 16.8504 27.7503 16.8504 27.7403 16.8404C26.6203 15.8904 25.4803 15.0604 24.3403 14.3904L29.9003 8.83035ZM27.1303 18.9404C27.4703 19.2504 27.8103 19.5604 28.1403 19.8904C28.4703 20.2204 28.7803 20.5604 29.0903 20.9004L18.5103 31.4804L17.5303 30.5004L16.5503 29.5204L27.1303 18.9404ZM6.76033 44.2304C6.42033 44.1503 5.78033 43.9004 4.96033 43.0804C4.14033 42.2604 3.88033 41.6003 3.80033 41.2803L14.6403 30.4404L16.1203 31.9204L17.6003 33.4004L6.76033 44.2404V44.2304Z" fill="#323232"/>
<path d="M45.2005 39.8202H43.5405V36.4502C43.5405 35.9002 43.0905 35.4502 42.5405 35.4502H26.6405C26.0905 35.4502 25.6405 35.9002 25.6405 36.4502V39.8202H23.9805C23.4305 39.8202 22.9805 40.2702 22.9805 40.8202V45.1902C22.9805 45.7402 23.4305 46.1902 23.9805 46.1902H45.2005C45.7505 46.1902 46.2005 45.7402 46.2005 45.1902V40.8202C46.2005 40.2702 45.7505 39.8202 45.2005 39.8202ZM27.6305 37.4502H41.5305V39.8202H27.6305V37.4502ZM44.2005 44.1902H24.9805V41.8202H44.2005V44.1902Z" fill="#323232"/>
</svg>
