<svg width="48" height="48" viewBox="0 0 48 48" fill="none" xmlns="http://www.w3.org/2000/svg">
<path d="M16.3892 40.4901C13.8592 40.4901 11.5792 39.8701 9.94922 38.8701C9.94922 41.8401 12.8292 44.2501 16.3892 44.2501C19.9492 44.2501 22.8292 41.8401 22.8292 38.8701C21.1892 39.8701 18.9092 40.4901 16.3892 40.4901Z" fill="#8DE2E0"/>
<path d="M31.8404 40.4901C29.3104 40.4901 27.0304 39.8701 25.4004 38.8701C25.4004 41.8401 28.2804 44.2501 31.8404 44.2501C35.4004 44.2501 38.2804 41.8401 38.2804 38.8701C36.6404 39.8701 34.3604 40.4901 31.8404 40.4901Z" fill="#8DE2E0"/>
<path d="M42.7995 30.9199C42.7995 27.5699 38.6395 25.5399 36.4095 24.4399L36.0995 24.2899C34.3395 23.4199 32.1895 22.9599 30.1495 22.7299C33.1195 21.0199 35.0895 18.0899 35.0895 14.7699C35.0895 14.1399 35.0195 13.5299 34.8795 12.9399C36.1695 11.9299 36.9895 10.4799 37.1095 8.95989C37.2295 7.43989 36.6695 5.93989 35.5295 4.73989C34.3095 3.44989 32.5595 2.68989 30.8495 2.74989C28.9695 2.79989 27.1995 3.78989 26.0595 5.36989C25.4195 5.26989 24.7695 5.20989 24.0895 5.20989C23.1495 5.20989 22.2495 5.31989 21.3795 5.51989C20.2495 3.84989 18.4395 2.79989 16.4995 2.74989C14.8095 2.69989 13.0495 3.44989 11.8195 4.73989C10.6795 5.93989 10.1195 7.43989 10.2395 8.95989C10.3795 10.7599 11.5195 12.4499 13.2195 13.4399C13.1495 13.8799 13.0995 14.3199 13.0995 14.7699C13.0995 18.0799 15.0495 20.9999 17.9995 22.7199C15.9095 22.9499 13.6995 23.4099 11.8895 24.2999L11.5795 24.4499C9.34945 25.5399 5.18945 27.5799 5.18945 30.9299C5.18945 32.0799 5.55945 33.0299 6.28945 33.7499C7.13945 34.5799 8.40945 35.0599 10.2695 35.2399C9.42945 36.2699 8.93945 37.5199 8.93945 38.8799C8.93945 42.3999 12.2795 45.2599 16.3795 45.2599C18.5895 45.2599 20.5695 44.4299 21.9295 43.1099C22.6395 43.1999 23.3195 43.2599 23.9995 43.2599C24.7395 43.2599 25.4895 43.1899 26.2395 43.0799C27.6095 44.4099 29.5995 45.2599 31.8295 45.2599C35.9295 45.2599 39.2695 42.3999 39.2695 38.8799C39.2695 37.5199 38.7695 36.2599 37.9195 35.2299C39.6695 35.0399 40.8695 34.5599 41.6895 33.7599C42.4195 33.0399 42.7895 32.0899 42.7895 30.9399L42.7995 30.9199ZM30.9095 4.74989C32.0595 4.74989 33.2395 5.22989 34.0795 6.11989C34.8195 6.89989 35.1895 7.85989 35.1195 8.79989C35.0595 9.55989 34.6995 10.2899 34.1395 10.8999C32.9895 8.64989 30.8695 6.85989 28.2295 5.91989C28.9695 5.20989 29.9195 4.77989 30.9095 4.74989ZM12.2495 8.79989C12.1795 7.84989 12.5395 6.89989 13.2895 6.11989C14.1295 5.22989 15.3095 4.71989 16.4595 4.74989C17.5595 4.77989 18.6095 5.29989 19.3695 6.15989C16.8195 7.21989 14.8195 9.10989 13.8195 11.4299C12.9195 10.7599 12.3295 9.79989 12.2495 8.79989ZM15.1195 14.7699C15.1195 10.6099 19.1495 7.21989 24.1095 7.21989C29.0695 7.21989 33.0895 10.6099 33.0895 14.7699C33.0895 18.9299 29.0595 22.3199 24.1095 22.3199C19.1595 22.3199 15.1195 18.9299 15.1195 14.7699ZM7.19945 30.9199C7.19945 28.8199 10.7595 27.0799 12.4695 26.2399L12.7895 26.0799C13.4995 25.7299 14.3595 25.4399 15.3295 25.1999C12.8995 27.1099 11.3795 29.7999 11.3795 32.7899C11.3795 32.9599 11.3995 33.1299 11.4095 33.2999C9.53945 33.2399 8.31945 32.9199 7.70945 32.3199C7.36945 31.9799 7.20945 31.5399 7.20945 30.9199H7.19945ZM16.3895 43.2499C13.3895 43.2499 10.9495 41.2799 10.9495 38.8699C10.9495 37.4299 11.8195 36.1599 13.1495 35.3599C13.1495 35.3599 13.1695 35.3599 13.1695 35.3499C14.0695 34.8099 15.1795 34.4899 16.3895 34.4899C19.3895 34.4899 21.8295 36.4599 21.8295 38.8699C21.8295 41.2799 19.3895 43.2499 16.3895 43.2499ZM23.2995 41.2199C23.6395 40.4899 23.8295 39.6999 23.8295 38.8699C23.8295 35.3499 20.4895 32.4899 16.3895 32.4899C15.3195 32.4899 14.2995 32.6899 13.3795 33.0399C13.3795 32.9599 13.3695 32.8799 13.3695 32.7899C13.3695 29.4499 15.8195 26.5599 19.3595 25.1799C19.3595 25.1799 19.3595 25.1799 19.3695 25.1799C19.7995 24.9999 21.5595 24.6799 23.9995 24.5599C26.4395 24.6799 28.1895 24.9999 28.6095 25.1799C28.6295 25.1799 28.6495 25.1799 28.6795 25.1899C32.2095 26.5699 34.6495 29.4499 34.6495 32.7899C34.6495 32.8499 34.6495 32.8999 34.6495 32.9599C33.7795 32.6599 32.8395 32.4899 31.8495 32.4899C27.7495 32.4899 24.4095 35.3499 24.4095 38.8699C24.4095 39.6999 24.5995 40.4799 24.9395 41.2099C24.3995 41.2499 23.8695 41.2499 23.3195 41.2199H23.2995ZM31.8395 43.2499C28.8395 43.2499 26.3995 41.2799 26.3995 38.8699C26.3995 36.4599 28.8395 34.4899 31.8395 34.4899C32.9695 34.4899 34.0295 34.7699 34.8995 35.2499C34.8995 35.2499 34.9195 35.2599 34.9295 35.2699C36.3495 36.0599 37.2895 37.3799 37.2895 38.8699C37.2895 41.2899 34.8495 43.2499 31.8495 43.2499H31.8395ZM40.2995 32.3199C39.6895 32.9199 38.4795 33.2399 36.6295 33.2999C36.6295 33.1299 36.6595 32.9599 36.6595 32.7899C36.6595 29.8099 35.1395 27.1199 32.7095 25.2099C33.6595 25.4499 34.5095 25.7399 35.2095 26.0899L35.5295 26.2499C37.2395 27.0899 40.7995 28.8299 40.7995 30.9299C40.7995 31.5399 40.6395 31.9899 40.2995 32.3299V32.3199Z" fill="#323232"/>
<path d="M26.4004 14.2296C26.9504 14.2296 27.4004 13.7796 27.4004 13.2296C27.4004 12.9096 27.6604 12.6396 27.9904 12.6396C28.3204 12.6396 28.5804 12.8996 28.5804 13.2296C28.5804 13.7796 29.0304 14.2296 29.5804 14.2296C30.1304 14.2296 30.5804 13.7796 30.5804 13.2296C30.5804 11.7996 29.4204 10.6396 27.9904 10.6396C26.5604 10.6396 25.4004 11.7996 25.4004 13.2296C25.4004 13.7796 25.8504 14.2296 26.4004 14.2296Z" fill="#323232"/>
<path d="M26.6898 17.7598C26.6898 17.2098 26.2398 16.7598 25.6898 16.7598C25.1398 16.7598 24.6898 17.2098 24.6898 17.7598C24.6898 18.0898 24.4298 18.3498 24.0998 18.3498C23.7698 18.3498 23.5098 18.0898 23.5098 17.7598C23.5098 17.2098 23.0598 16.7598 22.5098 16.7598C21.9598 16.7598 21.5098 17.2098 21.5098 17.7598C21.5098 19.1898 22.6698 20.3498 24.0998 20.3498C25.5298 20.3498 26.6898 19.1898 26.6898 17.7598Z" fill="#323232"/>
<path d="M22.6292 13.2296C22.6292 11.7996 21.4692 10.6396 20.0392 10.6396C18.6092 10.6396 17.4492 11.7996 17.4492 13.2296C17.4492 13.7796 17.8992 14.2296 18.4492 14.2296C18.9992 14.2296 19.4492 13.7796 19.4492 13.2296C19.4492 12.9096 19.7092 12.6396 20.0392 12.6396C20.3692 12.6396 20.6292 12.8996 20.6292 13.2296C20.6292 13.7796 21.0792 14.2296 21.6292 14.2296C22.1792 14.2296 22.6292 13.7796 22.6292 13.2296Z" fill="#323232"/>
</svg>
