<svg width="48" height="48" viewBox="0 0 48 48" fill="none" xmlns="http://www.w3.org/2000/svg">
<path d="M23.9999 21.8501C19.2599 21.8501 15.4199 25.6901 15.4199 30.4301C15.4199 35.1701 19.2599 39.0101 23.9999 39.0101C28.7399 39.0101 32.5799 35.1701 32.5799 30.4301C32.5799 25.6901 28.7399 21.8501 23.9999 21.8501ZM23.9999 33.2501C22.4399 33.2501 21.1799 31.9901 21.1799 30.4301C21.1799 28.8701 22.4399 27.6101 23.9999 27.6101C25.5599 27.6101 26.8199 28.8701 26.8199 30.4301C26.8199 31.9901 25.5599 33.2501 23.9999 33.2501Z" fill="#8DE2E0"/>
<path d="M38.7807 45.25H9.2207C8.6707 45.25 8.2207 44.8 8.2207 44.25V3.75C8.2207 3.2 8.6707 2.75 9.2207 2.75H38.7807C39.3307 2.75 39.7807 3.2 39.7807 3.75V44.25C39.7807 44.8 39.3307 45.25 38.7807 45.25ZM10.2207 43.25H37.7807V4.75H10.2207V43.25Z" fill="#323232"/>
<path d="M23.9999 40.0096C18.7199 40.0096 14.4199 35.7096 14.4199 30.4296C14.4199 25.1496 18.7199 20.8496 23.9999 20.8496C29.2799 20.8496 33.5799 25.1496 33.5799 30.4296C33.5799 35.7096 29.2799 40.0096 23.9999 40.0096ZM23.9999 22.8496C19.8199 22.8496 16.4199 26.2496 16.4199 30.4296C16.4199 34.6096 19.8199 38.0096 23.9999 38.0096C28.1799 38.0096 31.5799 34.6096 31.5799 30.4296C31.5799 26.2496 28.1799 22.8496 23.9999 22.8496Z" fill="#323232"/>
<path d="M23.9995 17.0098C26.0596 17.0098 27.7295 15.3398 27.7295 13.2798C27.7295 11.2198 26.0596 9.5498 23.9995 9.5498C21.9395 9.5498 20.2695 11.2198 20.2695 13.2798C20.2695 15.3398 21.9395 17.0098 23.9995 17.0098Z" fill="#8DE2E0"/>
<path d="M23.9995 18.0098C21.3895 18.0098 19.2695 15.8898 19.2695 13.2798C19.2695 10.6698 21.3895 8.5498 23.9995 8.5498C26.6095 8.5498 28.7295 10.6698 28.7295 13.2798C28.7295 15.8898 26.6095 18.0098 23.9995 18.0098ZM23.9995 10.5498C22.4895 10.5498 21.2695 11.7798 21.2695 13.2798C21.2695 14.7798 22.4995 16.0098 23.9995 16.0098C25.4995 16.0098 26.7295 14.7798 26.7295 13.2798C26.7295 11.7798 25.4995 10.5498 23.9995 10.5498Z" fill="#323232"/>
</svg>
