<svg width="48" height="48" viewBox="0 0 48 48" fill="none" xmlns="http://www.w3.org/2000/svg">
<path d="M24 46.2202C11.73 46.2202 1.75 36.2402 1.75 23.9702C1.75 11.7002 11.73 1.72021 24 1.72021C36.27 1.72021 46.25 11.7002 46.25 23.9702C46.25 36.2402 36.27 46.2202 24 46.2202ZM24 3.72021C12.83 3.72021 3.75 12.8102 3.75 23.9702C3.75 35.1302 12.83 44.2202 24 44.2202C35.17 44.2202 44.25 35.1402 44.25 23.9702C44.25 12.8002 35.17 3.72021 24 3.72021Z" fill="#323232"/>
<path d="M24.0402 37.7002C21.5402 37.7002 19.0802 37.0302 16.8702 35.7202C14.7602 34.4702 13.0102 32.6802 11.8002 30.5502C11.5302 30.0702 11.7002 29.4602 12.1802 29.1902C12.6602 28.9202 13.2702 29.0902 13.5402 29.5702C14.5802 31.4002 16.0802 32.9302 17.8902 34.0002C20.6702 35.6502 23.9302 36.1202 27.0602 35.3202C30.1902 34.5202 32.8302 32.5502 34.4702 29.7702C34.7502 29.2902 35.3702 29.1402 35.8402 29.4202C36.3202 29.7002 36.4702 30.3202 36.1902 30.7902C34.2702 34.0302 31.2002 36.3302 27.5502 37.2602C26.3802 37.5602 25.2102 37.7002 24.0302 37.7002H24.0402ZM31.0802 23.4902C28.9702 23.4902 27.2502 21.7702 27.2502 19.6602C27.2502 19.1102 27.7002 18.6602 28.2502 18.6602C28.8002 18.6602 29.2502 19.1102 29.2502 19.6602C29.2502 20.6702 30.0702 21.4902 31.0802 21.4902C32.0902 21.4902 32.9102 20.6702 32.9102 19.6602C32.9102 19.1102 33.3602 18.6602 33.9102 18.6602C34.4602 18.6602 34.9102 19.1102 34.9102 19.6602C34.9102 21.7702 33.1902 23.4902 31.0802 23.4902ZM16.9202 23.4902C14.8102 23.4902 13.0902 21.7702 13.0902 19.6602C13.0902 19.1102 13.5402 18.6602 14.0902 18.6602C14.6402 18.6602 15.0902 19.1102 15.0902 19.6602C15.0902 20.6702 15.9102 21.4902 16.9202 21.4902C17.9302 21.4902 18.7502 20.6702 18.7502 19.6602C18.7502 19.1102 19.2002 18.6602 19.7502 18.6602C20.3002 18.6602 20.7502 19.1102 20.7502 19.6602C20.7502 21.7702 19.0302 23.4902 16.9202 23.4902Z" fill="#323232"/>
<path fill-rule="evenodd" clip-rule="evenodd" d="M38.4309 14.8899C39.3109 13.6399 37.6009 10.9299 34.6309 8.84995C31.6509 6.76995 28.5309 6.08995 27.6509 7.34995C26.7709 8.59995 29.6109 9.10994 32.5809 11.1899C35.5609 13.2699 37.5509 16.1399 38.4209 14.8899" fill="#8DE2E0"/>
</svg>
