<svg width="24" height="24" viewBox="0 0 24 24" fill="none" xmlns="http://www.w3.org/2000/svg">
<g clip-path="url(#clip0_16335_1263)">
<path d="M12.6632 23.9818C19.2805 23.6153 24.3477 17.9539 23.9812 11.3366C23.6147 4.71932 17.9533 -0.347943 11.336 0.0185443C4.71873 0.385032 -0.348533 6.04649 0.0179548 12.6638C0.384442 19.281 6.0459 24.3483 12.6632 23.9818Z" fill="white"/>
<mask id="mask0_16335_1263" style="mask-type:luminance" maskUnits="userSpaceOnUse" x="-1" y="0" width="25" height="25">
<path d="M12.6632 23.9818C19.2805 23.6153 24.3477 17.9539 23.9812 11.3366C23.6147 4.71932 17.9533 -0.347943 11.336 0.0185443C4.71873 0.385032 -0.348533 6.04649 0.0179548 12.6638C0.384442 19.281 6.0459 24.3483 12.6632 23.9818Z" fill="white"/>
</mask>
<g mask="url(#mask0_16335_1263)">
<path d="M30.0007 0H-5.99933V24H30.0007V0Z" fill="#FF0000"/>
<path fill-rule="evenodd" clip-rule="evenodd" d="M11.9999 4.93604L13.5847 9.84671L18.7441 9.83553L14.5643 12.8596L16.1686 17.7633L11.9999 14.7239L7.83272 17.7633L9.437 12.8596L5.2558 9.83553L10.4138 9.84671L11.9999 4.93604Z" fill="#FED700"/>
</g>
</g>
<rect x="0.25" y="0.25" width="23.5" height="23.5" rx="11.75" stroke="#E5E3E1" stroke-width="0.5"/>
<defs>
<clipPath id="clip0_16335_1263">
<rect width="24" height="24" rx="12" fill="white"/>
</clipPath>
</defs>
</svg>
