<svg width="48" height="48" viewBox="0 0 48 48" fill="none" xmlns="http://www.w3.org/2000/svg">
<path d="M37.1802 27.4705C36.9202 27.4705 36.6702 27.3705 36.4702 27.1805C36.0802 26.7905 36.0802 26.1605 36.4702 25.7705C38.3802 23.8605 38.6302 22.9705 38.6602 22.8005C38.5702 22.3505 38.8002 21.8805 39.2402 21.6905C39.7402 21.4705 40.3402 21.6905 40.5602 22.2005C40.8802 22.9305 40.6802 24.3905 37.8902 27.1805C37.6902 27.3805 37.4402 27.4705 37.1802 27.4705Z" fill="#323232"/>
<path d="M36.2705 32.3597C35.4105 32.3597 34.5505 32.0397 33.8905 31.3997L30.6205 28.1297C30.2305 27.7397 30.2305 27.1097 30.6205 26.7197C31.0105 26.3297 31.6405 26.3297 32.0305 26.7197L35.2905 29.9797C35.8305 30.5097 36.7305 30.4997 37.2705 29.9497C37.8005 29.4097 37.8005 28.5297 37.2705 27.9897L29.2005 19.9197C28.0305 18.7597 27.0405 18.7897 25.8005 20.0397L23.5605 22.2297C23.5105 22.2897 22.6605 23.1797 21.3505 23.2297C20.4405 23.2597 19.5805 22.9097 18.7805 22.1697C17.4705 20.8197 17.4705 18.7497 18.7405 17.4197C18.7605 17.3997 22.6205 13.5897 22.8105 13.3997C24.6905 11.6197 27.4105 10.9497 29.9405 11.6497C30.4705 11.7997 30.7805 12.3497 30.6405 12.8797C30.4905 13.4097 29.9405 13.7197 29.4105 13.5797C27.5605 13.0697 25.5705 13.5597 24.2005 14.8497C24.0105 15.0297 20.1805 18.8197 20.1805 18.8197C19.6805 19.3497 19.6805 20.1997 20.2005 20.7497C21.1605 21.6497 21.8905 21.1097 22.1505 20.8397L24.4105 18.6297C26.4105 16.6197 28.6805 16.5697 30.6305 18.5097L38.7105 26.5897C40.0105 27.9197 40.0105 30.0597 38.7105 31.3697C38.0405 32.0397 37.1605 32.3797 36.2805 32.3797L36.2705 32.3597Z" fill="#323232"/>
<path d="M33.7396 36.6305C32.8296 36.6305 31.9796 36.2805 31.3296 35.6305L27.5796 31.8805C27.1896 31.4905 27.1896 30.8605 27.5796 30.4705C27.9696 30.0805 28.5996 30.0805 28.9896 30.4705L32.7396 34.2205C33.2696 34.7505 34.1896 34.7505 34.7296 34.2205C35.2696 33.6905 35.2796 32.7805 34.7296 32.2305L30.6196 28.1205C30.2296 27.7305 30.2296 27.1005 30.6196 26.7105C31.0096 26.3205 31.6396 26.3205 32.0296 26.7105L36.1396 30.8205C37.4696 32.1505 37.4696 34.3105 36.1396 35.6305C35.4996 36.2705 34.6396 36.6305 33.7296 36.6305H33.7396Z" fill="#323232"/>
<path d="M29.8104 39.4898C28.9704 39.4898 28.1404 39.1898 27.4904 38.5898L25.3804 36.4898C24.9904 36.0998 24.9904 35.4698 25.3804 35.0798C25.7704 34.6898 26.4004 34.6898 26.7904 35.0798L28.8704 37.1598C29.3904 37.6398 30.2204 37.6398 30.7704 37.1298C31.3304 36.5998 31.3604 35.7098 30.8304 35.1498L27.5704 31.8998C27.1804 31.5098 27.1804 30.8798 27.5704 30.4898C27.9604 30.0998 28.5904 30.0998 28.9804 30.4898L32.2604 33.7698C33.5604 35.1698 33.4904 37.3198 32.1304 38.5998C31.4804 39.2098 30.6404 39.5098 29.8004 39.5098L29.8104 39.4898Z" fill="#323232"/>
<path d="M25.911 42.3902C25.071 42.3902 24.221 42.0802 23.571 41.4502L22.631 40.5202C22.241 40.1302 22.231 39.5002 22.631 39.1102C23.021 38.7202 23.651 38.7102 24.041 39.1102L24.971 40.0302C25.501 40.5302 26.351 40.5302 26.891 40.0202C27.451 39.4802 27.481 38.5902 26.951 38.0302L25.591 36.6802C25.201 36.2902 25.191 35.6602 25.591 35.2702C25.981 34.8802 26.611 34.8702 27.001 35.2702L28.381 36.6402C29.691 38.0202 29.641 40.1802 28.281 41.4702C27.621 42.0902 26.781 42.4102 25.941 42.4102L25.911 42.3902ZM24.071 14.6202C23.811 14.6202 23.561 14.5202 23.361 14.3302C22.471 13.4402 19.701 13.9302 18.501 14.3002C17.971 14.4602 17.411 14.1702 17.251 13.6402C17.091 13.1102 17.381 12.5502 17.911 12.3902C18.411 12.2402 22.811 10.9402 24.781 12.9102C25.171 13.3002 25.171 13.9302 24.781 14.3202C24.581 14.5202 24.331 14.6102 24.071 14.6102V14.6202Z" fill="#323232"/>
<path d="M10.13 33.8503C9.28999 33.8503 8.45999 33.5403 7.81999 32.9103C6.48999 31.6403 6.43999 29.5103 7.70999 28.1703L9.46999 26.4103C10.87 25.0903 13 25.1603 14.27 26.5103C15.5 27.8203 15.47 29.8603 14.23 31.1403C14.21 31.1703 14.18 31.2003 14.15 31.2303L12.49 32.8903C11.82 33.5203 10.98 33.8403 10.14 33.8403L10.13 33.8503ZM11.81 27.4603C11.47 27.4603 11.14 27.5903 10.89 27.8203L9.13999 29.5703C8.90999 29.8203 8.76999 30.1603 8.77999 30.5203C8.77999 30.8803 8.93999 31.2203 9.19999 31.4703C9.72999 31.9803 10.55 31.9803 11.08 31.4703L12.64 29.9103C12.64 29.9103 12.7 29.8303 12.74 29.8003C13.29 29.2803 13.32 28.4303 12.81 27.8803C12.56 27.6203 12.22 27.4603 11.86 27.4503C11.84 27.4503 11.83 27.4503 11.81 27.4503V27.4603Z" fill="#323232"/>
<path d="M16.7902 40.5004C15.9602 40.5004 15.1302 40.1904 14.4902 39.5804C14.0002 39.1204 13.6702 38.5304 13.5302 37.8904C12.4202 38.2004 11.2002 37.9304 10.3202 37.0804C9.67016 36.4604 9.30016 35.6304 9.28016 34.7304C9.26016 33.8404 9.59016 32.9804 10.2102 32.3404L12.7202 29.8304C13.9902 28.5604 16.2002 28.5604 17.4602 29.8304C18.0902 30.4604 18.4402 31.3104 18.4402 32.2004V32.2204C19.2402 32.2404 20.0402 32.5404 20.6602 33.1304C21.3102 33.7304 21.6902 34.5604 21.7202 35.4604C21.7502 36.3604 21.4302 37.2204 20.8102 37.8804L19.1202 39.5704C18.4602 40.2004 17.6202 40.5104 16.7902 40.5104V40.5004ZM15.7202 36.3204C15.3002 36.8504 15.3502 37.6404 15.8702 38.1304C16.3902 38.6304 17.2102 38.6304 17.7302 38.1304L19.3802 36.4804C19.6102 36.2404 19.7402 35.8904 19.7302 35.5204C19.7202 35.1604 19.5702 34.8304 19.3102 34.5904C18.8102 34.1204 18.0402 34.0904 17.5202 34.5204C17.5102 34.5404 17.4902 34.5504 17.4802 34.5704L15.7302 36.3204H15.7202ZM15.0902 30.8404C14.7302 30.8404 14.3902 30.9804 14.1302 31.2404L11.6302 33.7404C11.1302 34.2604 11.1502 35.1204 11.6902 35.6404C12.2202 36.1504 13.0402 36.1504 13.5702 35.6404L14.2502 34.9604C14.2502 34.9604 14.3202 34.8804 14.3602 34.8404L16.0402 33.1604C16.3002 32.9004 16.4402 32.5604 16.4402 32.2004C16.4402 31.8404 16.3002 31.5004 16.0402 31.2404C15.7802 30.9804 15.4402 30.8404 15.0802 30.8404H15.0902Z" fill="#323232"/>
<path d="M20.899 42.31C20.089 42.31 19.289 42.01 18.659 41.4C17.419 40.21 17.479 38.42 18.799 37.06L19.589 36.27C20.929 34.93 22.719 34.83 23.929 36.05C24.539 36.66 24.879 37.48 24.879 38.34C24.879 39.2 24.559 39.98 23.969 40.59C23.969 40.6 23.949 40.61 23.939 40.62L23.159 41.4C22.519 42.01 21.709 42.32 20.889 42.32L20.899 42.31ZM21.949 37.2C21.949 37.2 21.889 37.2 21.859 37.2C21.579 37.23 21.269 37.4 20.999 37.68L20.219 38.46C19.959 38.73 19.799 39.04 19.769 39.32C19.749 39.56 19.829 39.77 20.039 39.96C20.519 40.42 21.289 40.42 21.759 39.96L22.489 39.23C22.489 39.23 22.499 39.22 22.509 39.21C22.749 38.98 22.869 38.66 22.869 38.34C22.869 38.02 22.739 37.7 22.509 37.47C22.329 37.29 22.149 37.21 21.949 37.21V37.2Z" fill="#323232"/>
<path d="M10.4008 27.9304C10.1408 27.9304 9.88083 27.8304 9.69083 27.6304C7.51083 25.4104 7.41083 23.1404 7.41083 23.0404C7.39083 22.4904 7.82083 22.0304 8.38083 22.0104C8.92083 21.9904 9.39083 22.4204 9.41083 22.9704C9.41083 23.0504 9.52083 24.6104 11.1208 26.2304C11.5108 26.6204 11.5008 27.2604 11.1108 27.6404C10.9208 27.8304 10.6608 27.9304 10.4108 27.9304H10.4008Z" fill="#323232"/>
<path d="M2.57031 19.2605L14.7703 7.06055L19.5503 11.8405L7.36031 24.0305L2.58031 19.2505L2.57031 19.2605Z" fill="#8DE2E0"/>
<path d="M7.35031 25.0304C7.09031 25.0304 6.84031 24.9304 6.64031 24.7404L1.86031 19.9604C1.67031 19.7704 1.57031 19.5204 1.57031 19.2504C1.57031 18.9804 1.68031 18.7304 1.86031 18.5404L14.0603 6.35043C14.4403 5.97043 15.1003 5.97043 15.4703 6.35043L20.2503 11.1304C20.6403 11.5204 20.6403 12.1504 20.2503 12.5404L8.06031 24.7304C7.86031 24.9304 7.61031 25.0204 7.35031 25.0204V25.0304ZM3.99031 19.2604L7.35031 22.6204L18.1303 11.8404L14.7703 8.48043L3.99031 19.2604Z" fill="#323232"/>
<path d="M45.429 18.7994L33.239 6.60938L28.459 11.3894L40.649 23.5794L45.429 18.7994Z" fill="#8DE2E0"/>
<path d="M40.6495 24.5797C40.3895 24.5797 40.1395 24.4797 39.9395 24.2897L27.7495 12.0997C27.3595 11.7097 27.3595 11.0797 27.7495 10.6897L32.5295 5.90969C32.9195 5.51969 33.5495 5.51969 33.9395 5.90969L46.1295 18.0997C46.5195 18.4897 46.5195 19.1197 46.1295 19.5097L41.3495 24.2897C41.1495 24.4897 40.8995 24.5797 40.6395 24.5797H40.6495ZM29.8695 11.3797L40.6495 22.1597L44.0095 18.7997L33.2295 8.01969L29.8695 11.3797Z" fill="#323232"/>
</svg>
