<svg width="24" height="24" viewBox="0 0 24 24" fill="none" xmlns="http://www.w3.org/2000/svg">
<g clip-path="url(#clip0_16335_6487)">
<path d="M12 24C18.6274 24 24 18.6274 24 12C24 5.37258 18.6274 0 12 0C5.37258 0 0 5.37258 0 12C0 18.6274 5.37258 24 12 24Z" fill="white"/>
<mask id="mask0_16335_6487" style="mask-type:luminance" maskUnits="userSpaceOnUse" x="0" y="0" width="24" height="24">
<path d="M12 24C18.6274 24 24 18.6274 24 12C24 5.37258 18.6274 0 12 0C5.37258 0 0 5.37258 0 12C0 18.6274 5.37258 24 12 24Z" fill="white"/>
</mask>
<g mask="url(#mask0_16335_6487)">
<path d="M29.9993 0H-6.00067V24H29.9993V0Z" fill="#FF0000"/>
<path fill-rule="evenodd" clip-rule="evenodd" d="M11.9161 6.16839C11.8784 6.28718 11.8575 6.41295 11.8575 6.54431C11.8575 6.75673 11.912 6.95796 12.007 7.13125C12.0126 7.07255 12.0196 7.01386 12.0293 6.95517C12.0964 6.54152 12.2627 6.16979 12.4989 5.85816C12.6149 5.70444 12.6959 5.52137 12.7295 5.31874C12.7574 5.14685 12.7476 4.97636 12.7071 4.81845C12.9419 5.08396 13.0607 5.4487 12.9992 5.82602C12.9754 5.96996 12.9279 6.10411 12.8608 6.22569C12.8035 6.33609 12.763 6.45767 12.742 6.58624C12.7113 6.77629 12.7253 6.96355 12.7784 7.13544C12.7896 7.09771 12.8007 7.05858 12.8133 7.02085C12.9447 6.62397 13.1655 6.28159 13.4478 6.01048C13.5861 5.87633 13.6937 5.70863 13.758 5.51299C13.8125 5.34669 13.8293 5.17759 13.8139 5.01409C14.004 5.31315 14.064 5.69186 13.9453 6.0538C13.8991 6.19215 13.8321 6.31792 13.7468 6.42693C13.6742 6.52754 13.6141 6.64074 13.5735 6.76511C13.5134 6.94818 13.4995 7.13544 13.5232 7.31292C13.54 7.27658 13.5568 7.24025 13.5749 7.20531C13.7664 6.83359 14.0375 6.53034 14.3589 6.30535C14.5168 6.19495 14.6496 6.04542 14.7432 5.86235C14.8229 5.70723 14.8662 5.54233 14.876 5.37883C15.0185 5.70304 15.0185 6.08734 14.8438 6.42693C14.7768 6.55689 14.6901 6.67008 14.5895 6.76371C14.5015 6.85175 14.426 6.95517 14.3659 7.07115C14.2779 7.24304 14.2345 7.42471 14.2317 7.60498C14.2541 7.57145 14.2765 7.5393 14.3002 7.50577C14.5462 7.16758 14.862 6.91045 15.2142 6.73856C15.386 6.65331 15.5412 6.52754 15.6627 6.36124C15.7662 6.2201 15.8332 6.06498 15.8682 5.90427C15.9576 6.24665 15.8989 6.62536 15.6739 6.9342C15.5873 7.05299 15.4853 7.15081 15.3707 7.22767C15.2701 7.30034 15.1792 7.39117 15.1024 7.49598C14.9878 7.6525 14.9165 7.82718 14.8858 8.00606C14.9109 7.97811 14.9375 7.95016 14.9654 7.92221C15.2617 7.62595 15.6138 7.42052 15.987 7.30593C16.17 7.24863 16.3433 7.14802 16.4886 7.00268C16.6116 6.8797 16.7039 6.73576 16.7639 6.58344C16.7989 6.9356 16.6829 7.30174 16.4118 7.57145C16.3084 7.67486 16.191 7.75591 16.0666 7.8146C15.9562 7.8719 15.8514 7.94597 15.7592 8.0382C15.6096 8.18773 15.5076 8.3652 15.4517 8.55386C15.4937 8.51892 15.5384 8.48539 15.5831 8.45324C15.9227 8.20869 16.3028 8.06335 16.6913 8.01025C16.8813 7.9837 17.0686 7.91103 17.2349 7.79085C17.376 7.68883 17.4906 7.56166 17.5731 7.42052C17.5521 7.77408 17.3774 8.11506 17.0672 8.33865C16.9484 8.4239 16.8198 8.48539 16.6871 8.52312C16.5683 8.56085 16.4537 8.61814 16.3475 8.69501C16.191 8.8068 16.0694 8.94934 15.9842 9.10865C16.0191 9.08909 16.054 9.06952 16.0904 9.05136C16.4635 8.8627 16.8618 8.77746 17.2531 8.78584C17.4445 8.78863 17.6415 8.74671 17.8246 8.65448C17.9797 8.57622 18.1125 8.46862 18.2159 8.34145C18.139 8.68802 17.9141 8.99825 17.5731 9.17014C17.4431 9.23582 17.3062 9.27635 17.1692 9.29312C17.0462 9.31268 16.9247 9.35041 16.8073 9.4105C16.6354 9.49715 16.4928 9.61873 16.3838 9.76267C16.4216 9.74869 16.4593 9.73611 16.497 9.72354C16.8953 9.59497 17.302 9.57261 17.6877 9.64109C17.8763 9.67462 18.0776 9.66345 18.2732 9.59916C18.4395 9.54606 18.5862 9.45942 18.7092 9.35041C18.5806 9.68022 18.3095 9.95132 17.9462 10.0687C17.8064 10.1134 17.6653 10.1316 17.5284 10.1274C17.404 10.1274 17.2768 10.147 17.1524 10.1861C16.9694 10.2448 16.8101 10.344 16.6801 10.4684C16.7192 10.46 16.7584 10.453 16.7989 10.4474C17.2125 10.3831 17.6178 10.4237 17.9881 10.5508C18.1698 10.6123 18.3696 10.6333 18.5723 10.6011C18.7441 10.5746 18.9035 10.5117 19.0418 10.4237C18.8629 10.7297 18.5527 10.9561 18.1754 11.0148C18.0314 11.0371 17.8889 11.0344 17.7533 11.0078C17.6304 10.9882 17.5032 10.9868 17.3732 11.0078C17.1832 11.0371 17.0099 11.1098 16.8632 11.2132C16.9037 11.2118 16.9428 11.2104 16.9833 11.2104C17.4012 11.2104 17.7953 11.3138 18.1418 11.4983C18.3123 11.5877 18.5052 11.6381 18.7106 11.6381C18.8853 11.6381 19.0516 11.6017 19.2011 11.536C18.9775 11.8099 18.6365 11.986 18.2536 11.986C18.1069 11.986 17.9672 11.9609 17.8372 11.9134C17.7184 11.8756 17.5926 11.8547 17.4613 11.8547C17.2489 11.8547 17.0476 11.9092 16.8743 12.0042C16.933 12.0098 16.9917 12.0168 17.0504 12.0266C17.4627 12.0936 17.8358 12.2599 18.1474 12.4961C18.3012 12.6121 18.4842 12.6931 18.6868 12.7267C18.8587 12.7546 19.0292 12.7448 19.1871 12.7043C18.9216 12.9391 18.5569 13.0579 18.1796 12.9964C18.0356 12.9726 17.9015 12.9251 17.7799 12.858C17.6695 12.8007 17.5479 12.7602 17.418 12.7393C17.2279 12.7085 17.0406 12.7225 16.8688 12.7756C16.9065 12.7868 16.9456 12.798 16.9833 12.8105C17.3802 12.9419 17.7226 13.1627 17.9937 13.445C18.1279 13.5833 18.2956 13.6909 18.4912 13.7552C18.6575 13.8097 18.8266 13.8265 18.9901 13.8111C18.691 14.0012 18.3123 14.0613 17.9504 13.9425C17.812 13.8964 17.6863 13.8293 17.5773 13.744C17.4766 13.6714 17.3635 13.6113 17.2391 13.5707C17.056 13.5107 16.8688 13.4967 16.6913 13.5204C16.7276 13.5372 16.7639 13.554 16.7989 13.5721C17.1706 13.7636 17.4739 14.0347 17.6988 14.3561C17.8092 14.514 17.9588 14.6468 18.1418 14.7404C18.297 14.8201 18.4619 14.8634 18.6254 14.8732C18.3012 15.0157 17.9168 15.0157 17.5773 14.841C17.4473 14.774 17.3341 14.6873 17.2405 14.5867C17.1524 14.4987 17.049 14.4232 16.933 14.3631C16.7611 14.2751 16.5795 14.2317 16.3992 14.229C16.4327 14.2513 16.4649 14.2737 16.4984 14.2974C16.8366 14.5434 17.0937 14.8592 17.2656 15.2114C17.3509 15.3833 17.4766 15.5384 17.6429 15.66C17.7841 15.7634 17.9392 15.8304 18.0999 15.8654C17.7575 15.9548 17.3788 15.8961 17.07 15.6711C16.9512 15.5845 16.8534 15.4825 16.7765 15.3679C16.7039 15.2673 16.613 15.1764 16.5082 15.0996C16.3517 14.985 16.177 14.9137 15.9981 14.883C16.0261 14.9081 16.054 14.9347 16.0806 14.9626C16.3768 15.2589 16.5823 15.611 16.6969 15.9842C16.7542 16.1672 16.8548 16.3405 17.0001 16.4859C17.1231 16.6088 17.267 16.7011 17.4194 16.7612C17.0672 16.7961 16.7011 16.6801 16.4313 16.409C16.3279 16.3056 16.2469 16.1882 16.1882 16.0638C16.1323 15.9534 16.0568 15.8486 15.9646 15.7564C15.8151 15.6068 15.6376 15.5048 15.4489 15.4489C15.4839 15.4909 15.5174 15.5356 15.5495 15.5803C15.7941 15.9199 15.9394 16.3 15.9925 16.6885C16.0191 16.8785 16.0918 17.0658 16.2119 17.2321C16.314 17.3732 16.4411 17.4878 16.5823 17.5703C16.2287 17.5493 15.8877 17.3746 15.6641 17.0644C15.5789 16.9456 15.5174 16.817 15.4797 16.6843C15.4419 16.5655 15.3846 16.4509 15.3078 16.3447C15.196 16.1882 15.0535 16.0666 14.8941 15.9814C14.9137 16.0163 14.9333 16.0512 14.9514 16.0876C15.1401 16.4607 15.2253 16.859 15.217 17.2503C15.2142 17.4417 15.2561 17.6388 15.3483 17.8218C15.4266 17.9769 15.5342 18.1097 15.6613 18.2131C15.3148 18.1363 15.0045 17.9113 14.8327 17.5703C14.767 17.4403 14.7264 17.3034 14.7097 17.1664C14.6901 17.0434 14.6524 16.9219 14.5923 16.8045C14.5056 16.6326 14.3841 16.49 14.2401 16.381C14.2541 16.4188 14.2667 16.4565 14.2793 16.4942C14.4078 16.8925 14.4302 17.2992 14.3617 17.6849C14.3282 17.8735 14.3393 18.0748 14.4036 18.2704C14.4567 18.4367 14.5434 18.5834 14.6524 18.7064C14.3226 18.5779 14.0515 18.3067 13.9341 17.9434C13.8894 17.8037 13.8712 17.6625 13.8754 17.5242C13.8754 17.3998 13.8558 17.2726 13.8167 17.1482C13.758 16.9652 13.6588 16.8059 13.5344 16.6759C13.5428 16.715 13.5498 16.7542 13.5554 16.7947C13.6211 17.2083 13.5791 17.6136 13.452 17.9839C13.3891 18.1656 13.3695 18.3654 13.4017 18.5681C13.4282 18.74 13.4911 18.8993 13.5791 19.0376C13.2731 18.8587 13.0467 18.5485 12.988 18.1712C12.9656 18.0273 12.9684 17.8847 12.995 17.7492C13.0146 17.6262 13.016 17.499 12.995 17.369C12.9656 17.179 12.893 17.0057 12.7896 16.859C12.791 16.8981 12.7924 16.9386 12.7924 16.9792C12.7924 17.397 12.6889 17.7911 12.5059 18.1376C12.4164 18.3081 12.3661 18.501 12.3661 18.7064C12.3661 18.8811 12.4025 19.0474 12.4681 19.1969C12.1942 18.9733 12.0182 18.6324 12.0182 18.2494C12.0182 18.1027 12.0433 17.963 12.0908 17.833C12.1286 17.7142 12.1495 17.5884 12.1495 17.4571C12.1495 17.2447 12.095 17.0434 12 16.8702C11.9944 16.9288 11.9874 16.9875 11.9776 17.0462C11.9106 17.4585 11.7443 17.8316 11.5081 18.1432C11.3921 18.297 11.311 18.48 11.2789 18.6827C11.251 18.8545 11.2607 19.025 11.3013 19.1843C11.0665 18.9188 10.9491 18.5541 11.0106 18.1768C11.0344 18.0328 11.0819 17.8987 11.1489 17.7771C11.2062 17.6667 11.2468 17.5451 11.2677 17.4166C11.2985 17.2265 11.2845 17.0392 11.2314 16.8674C11.2202 16.9065 11.209 16.9442 11.1965 16.9819C11.0665 17.3788 10.8443 17.7212 10.562 17.9923C10.4237 18.1265 10.3147 18.2942 10.2518 18.4898C10.1973 18.6561 10.1805 18.8252 10.1959 18.9887C10.0058 18.6896 9.94573 18.3109 10.0645 17.949C10.1106 17.8106 10.1777 17.6849 10.263 17.5759C10.3356 17.4753 10.3957 17.3621 10.4362 17.2377C10.4963 17.0546 10.5103 16.8674 10.4865 16.6899C10.4698 16.7262 10.453 16.7625 10.4348 16.7975C10.2434 17.1692 9.97228 17.4725 9.65086 17.6975C9.49295 17.8078 9.36019 17.9574 9.26656 18.1404C9.18691 18.2956 9.14359 18.4605 9.1338 18.624C8.99126 18.2998 8.99126 17.9155 9.16595 17.5759C9.23302 17.4459 9.31967 17.3327 9.42028 17.2377C9.50832 17.1496 9.58379 17.0476 9.64388 16.9302C9.73192 16.7584 9.77524 16.5767 9.77803 16.3964C9.75567 16.43 9.73332 16.4621 9.70956 16.4956C9.46361 16.8338 9.14778 17.091 8.79562 17.2628C8.62233 17.3481 8.46861 17.4739 8.34703 17.6402C8.24362 17.7813 8.17654 17.9364 8.14161 18.0971C8.05217 17.7547 8.11086 17.376 8.33585 17.0672C8.4225 16.9484 8.52451 16.8506 8.6391 16.7737C8.73972 16.7011 8.83056 16.6102 8.90742 16.5054C9.02201 16.3489 9.09328 16.1742 9.12402 15.9953C9.09887 16.0233 9.07232 16.0512 9.04437 16.0778C8.74811 16.3741 8.39594 16.5795 8.02282 16.6941C7.83975 16.7514 7.66647 16.852 7.52113 16.9973C7.39816 17.1203 7.30592 17.2642 7.24583 17.4166C7.2109 17.0644 7.32828 16.6983 7.59799 16.4286C7.70141 16.3251 7.81879 16.2441 7.94317 16.1854C8.05357 16.1295 8.15838 16.054 8.25061 15.9618C8.40014 15.8123 8.50215 15.6348 8.55805 15.4461C8.51613 15.4811 8.47141 15.5146 8.42669 15.5468C8.08711 15.7913 7.707 15.9366 7.3185 15.9898C7.12845 16.0163 6.94119 16.089 6.77489 16.2092C6.63375 16.3112 6.51915 16.4369 6.4367 16.5795C6.45767 16.2259 6.63235 15.8849 6.94258 15.6613C7.06137 15.5761 7.18994 15.5146 7.32269 15.4769C7.44148 15.4392 7.55607 15.3819 7.66228 15.305C7.81879 15.1918 7.94037 15.0493 8.02562 14.8913C7.99068 14.9109 7.95574 14.9305 7.91941 14.9486C7.54629 15.1373 7.14801 15.2225 6.75672 15.2142C6.56387 15.2114 6.36823 15.2533 6.18516 15.3455C6.03004 15.4238 5.89728 15.5314 5.79387 15.6586C5.87073 15.312 6.09572 15.0017 6.4367 14.8299C6.56667 14.7642 6.70362 14.7237 6.84057 14.7069C6.96355 14.6873 7.08513 14.6496 7.20251 14.5895C7.3744 14.5029 7.51694 14.3813 7.62594 14.2373C7.58821 14.2513 7.55048 14.2639 7.51275 14.2765C7.11447 14.405 6.70781 14.4274 6.32211 14.3589C6.13345 14.3254 5.93362 14.3366 5.73658 14.4008C5.57028 14.4539 5.42354 14.5406 5.30057 14.6496C5.42913 14.3198 5.70024 14.0487 6.06358 13.9313C6.20333 13.8866 6.34447 13.8684 6.48142 13.8726C6.6058 13.8726 6.73297 13.853 6.85734 13.8139C7.04041 13.7552 7.19972 13.656 7.32968 13.5316C7.29055 13.54 7.25142 13.547 7.2109 13.5526C6.79725 13.6183 6.39199 13.5763 6.02166 13.4492C5.83999 13.3863 5.64015 13.3667 5.43752 13.3989C5.26563 13.4254 5.10632 13.4883 4.96797 13.5763C5.14685 13.2703 5.45708 13.0439 5.8344 12.9852C5.97834 12.9629 6.12088 12.9656 6.25643 12.9922C6.37941 13.0118 6.50658 13.0132 6.63654 12.9922C6.8266 12.9629 6.99988 12.8902 7.14801 12.7868C7.10888 12.7882 7.06836 12.7896 7.02783 12.7896C6.60999 12.7896 6.2159 12.6862 5.86933 12.5017C5.69884 12.4123 5.50599 12.3619 5.30057 12.3619C5.12589 12.3619 4.95959 12.3983 4.81006 12.464C5.03365 12.1901 5.37463 12.014 5.75754 12.014C5.90427 12.014 6.04402 12.0391 6.17398 12.0866C6.29277 12.1244 6.41854 12.1453 6.5499 12.1453C6.76231 12.1453 6.96355 12.0908 7.13683 11.9958C7.07814 11.9902 7.01945 11.9832 6.96075 11.9734C6.5485 11.9064 6.17538 11.7401 5.86374 11.5039C5.71002 11.3879 5.52696 11.3069 5.32432 11.2747C5.15244 11.2468 4.98195 11.2566 4.82403 11.2971C5.08955 11.0623 5.45429 10.9449 5.8316 11.0064C5.97554 11.0302 6.1097 11.0777 6.23128 11.1448C6.34168 11.2021 6.46326 11.2426 6.59182 11.2635C6.78188 11.2943 6.96914 11.2803 7.14102 11.2272C7.1019 11.216 7.06416 11.2048 7.02643 11.1923C6.62955 11.0623 6.28718 10.8401 6.01607 10.5578C5.88191 10.4195 5.71422 10.3119 5.51857 10.2476C5.35227 10.1931 5.18318 10.1763 5.01968 10.1917C5.31873 10.0016 5.69745 9.94154 6.05939 10.0603C6.19774 10.1064 6.32351 10.1735 6.43251 10.2588C6.53313 10.3314 6.64632 10.3915 6.7707 10.432C6.95376 10.4921 7.14102 10.5061 7.3185 10.4824C7.28217 10.4656 7.24583 10.4488 7.2109 10.4307C6.83917 10.2392 6.53592 9.96809 6.31093 9.64668C6.20053 9.48876 6.051 9.356 5.86794 9.26237C5.71282 9.18272 5.54792 9.1394 5.38442 9.12962C5.70863 8.98707 6.09293 8.98707 6.43251 9.16176C6.56248 9.22883 6.67567 9.31548 6.7693 9.41609C6.85734 9.50413 6.95935 9.5796 7.07674 9.63969C7.24863 9.72773 7.4303 9.77105 7.61057 9.77385C7.57703 9.75149 7.54489 9.72913 7.51135 9.70537C7.17317 9.45942 6.91603 9.14359 6.74415 8.79143C6.6589 8.61814 6.53313 8.46442 6.36683 8.34284C6.22569 8.23943 6.07057 8.17235 5.90986 8.13742C6.25224 8.04798 6.63095 8.10667 6.93979 8.33166C7.05857 8.41831 7.1564 8.52032 7.23326 8.63491C7.30592 8.73553 7.39676 8.82637 7.50157 8.90323C7.65809 9.01782 7.83277 9.08909 8.01164 9.11983C7.98369 9.09468 7.95574 9.06813 7.92919 9.04018C7.63293 8.74392 7.4275 8.39176 7.31291 8.01863C7.25562 7.83557 7.155 7.66228 7.00966 7.51695C6.88669 7.39397 6.74275 7.30174 6.59042 7.24165C6.94258 7.20671 7.30872 7.3227 7.57843 7.59381C7.68184 7.69722 7.76289 7.8146 7.82159 7.93898C7.87749 8.04938 7.95295 8.15419 8.04518 8.24642C8.19331 8.39595 8.37219 8.49796 8.56084 8.55386C8.52591 8.51194 8.49237 8.46722 8.46023 8.4225C8.21567 8.08292 8.07034 7.70281 8.01723 7.31431C7.99068 7.12426 7.91801 6.937 7.79783 6.7707C7.69582 6.62956 7.57005 6.51497 7.4275 6.43251C7.78106 6.45348 8.12204 6.62816 8.34564 6.9384C8.43088 7.05718 8.49237 7.18575 8.5301 7.31851C8.56783 7.43729 8.62513 7.55188 8.70199 7.65809C8.81518 7.8146 8.95772 7.93618 9.11564 8.02143C9.09607 7.98649 9.07651 7.95156 9.05834 7.91522C8.86968 7.5421 8.78444 7.14382 8.79282 6.75253C8.79562 6.55968 8.75369 6.36404 8.66146 6.18097C8.5832 6.02585 8.4756 5.8931 8.34843 5.78968C8.695 5.86654 9.00524 6.09153 9.17712 6.43251C9.24281 6.56248 9.28333 6.69943 9.3001 6.83638C9.31967 6.95936 9.3574 7.08094 9.41749 7.19832C9.50413 7.37021 9.62571 7.51275 9.76965 7.62175C9.75567 7.58402 9.7431 7.54629 9.73052 7.50856C9.60195 7.11028 9.57959 6.70362 9.64807 6.31792C9.68161 6.12927 9.67043 5.92943 9.60615 5.73239C9.55304 5.56609 9.4664 5.41936 9.3574 5.29638C9.6872 5.42495 9.95831 5.69605 10.0757 6.05939C10.1204 6.19914 10.1386 6.34028 10.1344 6.47723C10.1344 6.60161 10.154 6.72878 10.1931 6.85315C10.2518 7.03622 10.351 7.19553 10.4754 7.32549C10.467 7.28636 10.46 7.24724 10.4544 7.20671C10.3887 6.79306 10.4306 6.3878 10.5578 6.01747C10.6193 5.8358 10.6403 5.63596 10.6081 5.43333C10.5816 5.26144 10.5187 5.10213 10.4306 4.96378C10.7367 5.14266 10.9631 5.45289 11.0218 5.83021C11.0441 5.97415 11.0413 6.11669 11.0148 6.25224C10.9952 6.37522 10.9938 6.50239 11.0148 6.63235C11.0441 6.82241 11.1168 6.99569 11.2202 7.14382C11.2188 7.10469 11.2174 7.06417 11.2174 7.02364C11.2174 6.6058 11.3208 6.21172 11.5053 5.86515C11.5947 5.69466 11.645 5.50181 11.645 5.29638C11.645 5.1217 11.6087 4.9554 11.543 4.80587C11.8169 5.02946 11.993 5.37184 11.993 5.75335C11.993 5.90008 11.9679 6.03983 11.9203 6.16979L11.9161 6.16839ZM11.9986 7.67067C9.60754 7.67067 7.66787 9.60894 7.66787 12.0014C7.66787 14.3939 9.60615 16.3321 11.9986 16.3321C14.3911 16.3321 16.3293 14.3939 16.3293 12.0014C16.3293 9.60894 14.3911 7.67067 11.9986 7.67067Z" fill="#FED700"/>
<path fill-rule="evenodd" clip-rule="evenodd" d="M11.9986 7.99907C12.6918 7.99907 13.3402 8.18214 13.902 8.50355C13.2326 8.6447 12.5954 8.86969 11.9986 9.16595C11.4019 8.86969 10.7647 8.6447 10.0953 8.50355C10.6571 8.18214 11.3055 7.99907 11.9986 7.99907ZM14.2052 8.6964C13.5554 8.84174 12.9363 9.06393 12.3578 9.356C12.4864 9.42867 12.6135 9.50414 12.7379 9.58379C13.2913 9.30011 13.8824 9.07791 14.5001 8.92559C14.4065 8.84453 14.3073 8.76767 14.2066 8.6964H14.2052ZM14.7614 9.17154C14.8313 9.24421 14.8998 9.31967 14.9641 9.39793C14.4232 9.56982 13.9062 9.79481 13.4199 10.0701C13.3206 9.99045 13.2186 9.91359 13.1152 9.83953C13.6323 9.56003 14.1843 9.33504 14.7614 9.17154ZM15.1765 9.68161C14.6804 9.86188 14.2066 10.0883 13.7608 10.3566C14.5672 11.0735 15.2268 11.9497 15.6921 12.9363C15.7914 12.5939 15.8459 12.2306 15.8459 11.8561C15.8459 11.0497 15.5985 10.3007 15.1765 9.68161ZM15.4755 13.5079C15.3973 13.6742 15.3064 13.8335 15.2058 13.9858C14.7447 12.7686 14.0012 11.6898 13.0579 10.8289C13.1753 10.7409 13.2955 10.6556 13.4185 10.5732C14.3086 11.3767 15.0172 12.3773 15.4769 13.5065L15.4755 13.5079ZM14.7936 14.5057C14.6762 14.6314 14.549 14.7474 14.4163 14.8564C14.0208 13.5414 13.3039 12.3661 12.3564 11.4201C12.4584 11.325 12.5618 11.2314 12.6694 11.1406C13.6309 12.0615 14.3687 13.213 14.7936 14.507V14.5057ZM13.9285 15.1932C13.3612 15.523 12.703 15.7131 12 15.7131C11.2971 15.7131 10.6375 15.5244 10.0715 15.1932C10.4321 13.8964 11.1043 12.7295 12 11.7764C12.8958 12.7295 13.568 13.8964 13.9285 15.1932ZM9.58243 14.8564C9.97792 13.5414 10.6948 12.3661 11.6423 11.4201C11.5403 11.325 11.4369 11.2314 11.3293 11.1406C10.3678 12.0615 9.62995 13.213 9.20512 14.507C9.32251 14.6328 9.44968 14.7488 9.58243 14.8578V14.8564ZM8.79287 13.9858C9.25403 12.7686 9.99748 11.6898 10.9408 10.8289C10.8234 10.7409 10.7032 10.6556 10.5802 10.5732C9.69004 11.3767 8.98153 12.3773 8.52176 13.5065C8.60002 13.6728 8.69085 13.8321 8.79147 13.9844L8.79287 13.9858ZM8.30655 12.9363C8.77191 11.9497 9.43291 11.0735 10.2378 10.3566C9.79205 10.0883 9.31831 9.86188 8.82222 9.68161C8.40018 10.3007 8.15283 11.0497 8.15283 11.8561C8.15283 12.2306 8.20594 12.5939 8.30655 12.9363ZM9.03463 9.39933C9.09891 9.32107 9.16739 9.2456 9.23726 9.17294C9.81441 9.33644 10.365 9.56143 10.8835 9.84092C10.7801 9.91499 10.6794 9.99185 10.5788 10.0715C10.0925 9.7976 9.57545 9.57121 9.03463 9.39933ZM9.49859 8.92559C10.1163 9.07791 10.7074 9.30011 11.2608 9.58379C11.3852 9.50414 11.5123 9.42867 11.6409 9.356C11.0609 9.06393 10.4419 8.84174 9.79345 8.6964C9.69144 8.76767 9.59361 8.84453 9.49859 8.92559ZM11.9986 9.54885C12.1272 9.62152 12.2544 9.69838 12.3774 9.77944C12.2488 9.8535 12.1216 9.93176 11.9986 10.0128C11.8743 9.93176 11.7485 9.8535 11.6199 9.77944C11.7443 9.69978 11.8701 9.62292 11.9986 9.54885ZM12.7631 10.0408C12.8679 10.1176 12.9713 10.1959 13.0719 10.2769C12.9461 10.3552 12.8231 10.4376 12.703 10.5229C12.601 10.439 12.4961 10.358 12.3885 10.2797C12.5101 10.1959 12.6359 10.1162 12.7617 10.0394L12.7631 10.0408ZM11.2356 10.0408C11.3628 10.1176 11.4872 10.1973 11.6088 10.2811C11.5025 10.3594 11.3977 10.4404 11.2943 10.5243C11.1741 10.439 11.0512 10.3566 10.9254 10.2783C11.026 10.1973 11.1294 10.1176 11.2342 10.0422L11.2356 10.0408ZM11.9986 10.5648C12.1049 10.6473 12.2097 10.7325 12.3131 10.8191C12.2069 10.9044 12.1021 10.9938 11.9986 11.0847C11.8966 10.9938 11.7918 10.9058 11.6842 10.8191C11.7862 10.7325 11.891 10.6473 11.9986 10.5648Z" fill="#FED700"/>
</g>
</g>
<rect x="0.25" y="0.25" width="23.5" height="23.5" rx="11.75" stroke="#E5E3E1" stroke-width="0.5"/>
<defs>
<clipPath id="clip0_16335_6487">
<rect width="24" height="24" rx="12" fill="white"/>
</clipPath>
</defs>
</svg>
