<svg width="48" height="48" viewBox="0 0 48 48" fill="none" xmlns="http://www.w3.org/2000/svg">
<path d="M20.7196 41.69C20.6596 41.69 20.5996 41.69 20.5496 41.67C9.45961 39.71 6.30962 28.58 6.17962 28.11C6.02962 27.58 6.34962 27.03 6.87962 26.88C7.40962 26.74 7.95962 27.05 8.10962 27.58C8.13962 27.68 11.0696 37.96 20.8896 39.7C21.4296 39.8 21.7996 40.31 21.6996 40.86C21.6096 41.35 21.1896 41.69 20.7196 41.69Z" fill="#8DE2E0"/>
<path d="M42.9203 12.5399C41.6803 10.3699 40.0603 8.49994 38.1203 6.98994C36.3903 5.54994 34.4503 4.37994 32.3703 3.51994C26.0103 0.919945 18.9403 1.39994 12.9803 4.81994C12.5003 5.09994 12.3403 5.70994 12.6103 6.18994C12.8803 6.66994 13.5003 6.82994 13.9803 6.55994C18.6603 3.86994 24.0903 3.17994 29.2103 4.56994C28.8603 4.70994 28.4903 4.85994 28.1603 4.98994C25.2603 6.12994 22.9603 7.02994 22.9603 9.86994C22.9603 12.0899 24.7203 12.5999 25.7703 12.9099C27.0003 13.2699 27.1803 13.4199 27.1803 14.0899C27.1803 15.2399 26.5303 16.3299 25.5303 16.8599C24.7103 17.2999 23.8303 17.2699 23.1103 16.7799C22.6103 16.4399 22.1003 16.1499 21.6103 15.9299C21.1103 15.6999 20.5103 15.9199 20.2803 16.4199C20.0503 16.9199 20.2703 17.5199 20.7703 17.7499C21.1603 17.9299 21.5703 18.1599 21.9803 18.4399C23.3103 19.3399 24.9903 19.4099 26.4603 18.6299C28.1303 17.7399 29.1703 15.9999 29.1703 14.0899C29.1703 11.8199 27.3903 11.2999 26.3203 10.9899C25.1303 10.6399 24.9503 10.4999 24.9503 9.86994C24.9503 8.49994 25.9103 8.00994 28.8803 6.84994C29.8103 6.47994 30.8503 6.07994 31.9803 5.54994C32.1803 5.63994 32.3703 5.72994 32.5703 5.81994C32.7603 5.90994 32.9403 5.98994 33.1203 6.08994C33.3903 6.22994 33.6503 6.37994 33.9203 6.52994C34.0903 6.61995 34.2503 6.70994 34.4203 6.80994C34.7103 6.97994 34.9803 7.16994 35.2603 7.35994C35.3903 7.44994 35.5303 7.53994 35.6603 7.62994C36.0703 7.91994 36.4603 8.21994 36.8503 8.54994C37.2503 8.86995 37.6403 9.19994 38.0103 9.54994C38.1203 9.65995 38.2303 9.76994 38.3403 9.87994C38.6003 10.1299 38.8503 10.3899 39.0903 10.6599C39.2003 10.7899 39.3103 10.9199 39.4203 11.0499C39.6503 11.3299 39.8803 11.6099 40.0903 11.9099C40.1803 12.0299 40.2703 12.1599 40.3603 12.2799C40.4003 12.3399 40.4403 12.4099 40.4803 12.4699C39.6503 12.9399 38.9703 13.7599 38.2603 14.5999C37.8703 15.0599 37.4703 15.5399 37.0203 16.0099C35.6103 17.4599 33.6503 18.2599 31.5803 18.2399C30.9303 18.2599 30.0203 18.3699 29.5603 19.0999C29.0903 19.8499 29.4403 20.6399 29.7203 21.2799C29.8003 21.4699 29.8903 21.6699 29.9503 21.8599C29.9903 21.9899 30.0203 22.1099 30.0503 22.2199C30.4103 23.5899 30.9703 24.2599 33.4603 24.9199C33.6403 24.9699 33.7303 25.0099 33.7603 25.0199C33.7203 25.6599 32.0203 27.3399 31.3703 27.9799L31.0303 28.3199C29.8003 29.5499 29.9503 31.1199 30.0603 32.1499C30.0803 32.3799 30.1103 32.6999 30.1103 32.8799C29.9903 32.9499 29.8203 33.0299 29.6603 33.1099C28.7803 33.5199 27.3003 34.2099 27.1603 36.4999C27.0603 38.0599 26.3903 38.3799 25.4103 38.3899C24.7003 38.1199 23.3103 34.8899 23.5003 33.9499C23.7003 33.0099 24.1103 31.0499 22.4103 30.0099L22.2403 29.8999C21.6403 29.5399 21.5303 29.4699 20.8603 27.5699C19.9603 25.0099 17.8503 25.7199 16.7203 26.0999C16.1903 26.2799 15.6503 26.4599 15.1603 26.4799C14.9203 26.5299 14.5503 26.2199 14.2303 25.6099C13.4803 24.2199 13.4103 21.8399 14.9603 19.6799C15.0603 19.5399 15.1503 19.4099 15.2503 19.2899C15.5903 18.8599 15.5203 18.2299 15.0903 17.8899C14.6603 17.5499 14.0303 17.6199 13.6903 18.0499C13.5703 18.1999 13.4503 18.3499 13.3403 18.5199C11.3003 21.3799 11.4403 24.6199 12.4803 26.5599C13.1503 27.7999 14.1803 28.5399 15.2503 28.4799C16.0303 28.4499 16.7403 28.2099 17.3703 27.9999C18.7403 27.5399 18.7603 27.5899 18.9903 28.2399C19.8203 30.5799 20.1503 30.9699 21.2203 31.6199L21.3803 31.7199C21.5903 31.8499 21.8803 32.0299 21.5603 33.5499C21.2603 34.9999 22.3603 37.9099 23.4703 39.2899C24.0603 40.0199 24.7003 40.3899 25.3503 40.3899C27.6603 40.3899 29.0103 39.0599 29.1603 36.6399C29.2303 35.5399 29.7103 35.3099 30.5103 34.9399C30.8203 34.7899 31.1403 34.6399 31.4303 34.4199C32.2403 33.8199 32.1403 32.7899 32.0603 31.9799C31.9603 30.9699 31.9403 30.2799 32.4603 29.7599L32.7903 29.4299C34.6903 27.5499 36.1103 25.9999 35.7103 24.5099C35.5703 23.9999 35.1603 23.3299 33.9803 23.0199C32.2103 22.5499 32.1503 22.3499 31.9903 21.7399C31.9503 21.5999 31.9103 21.4499 31.8603 21.2999C31.7803 21.0299 31.6603 20.7599 31.5503 20.5099C31.5203 20.4399 31.4903 20.3699 31.4503 20.2899C31.4903 20.2899 31.5403 20.2899 31.6003 20.2899C34.1803 20.3099 36.6703 19.2899 38.4603 17.4499C38.9703 16.9199 39.4103 16.3899 39.8003 15.9299C40.5203 15.0699 41.0303 14.4799 41.5203 14.2299C44.0203 18.6899 44.7503 23.8399 43.5303 28.8299C42.2503 34.0499 39.0203 38.4599 34.4303 41.2499C24.9503 47.0099 12.5503 43.9799 6.79034 34.4999C2.17034 26.8999 3.14034 17.0099 9.15034 10.4599C9.52034 10.0499 9.50034 9.41994 9.09034 9.04994C8.68034 8.67994 8.05034 8.69994 7.68034 9.10994C1.08034 16.2499 0.0203385 27.1199 5.09034 35.4799C8.16034 40.5299 13.0103 44.0799 18.7503 45.4899C20.5003 45.9199 22.2803 46.1299 24.0403 46.1299C28.0403 46.1299 31.9803 45.0399 35.4803 42.9099C40.5303 39.8399 44.0803 34.9899 45.4903 29.2499C46.8903 23.5099 45.9703 17.5699 42.9203 12.5399Z" fill="#323232"/>
<path d="M27.1797 32.4C27.7099 32.4 28.1397 31.9702 28.1397 31.44C28.1397 30.9098 27.7099 30.48 27.1797 30.48C26.6495 30.48 26.2197 30.9098 26.2197 31.44C26.2197 31.9702 26.6495 32.4 27.1797 32.4Z" fill="#8DE2E0"/>
<path d="M17.3399 23.59C17.8701 23.59 18.2999 23.1602 18.2999 22.63C18.2999 22.0998 17.8701 21.67 17.3399 21.67C16.8097 21.67 16.3799 22.0998 16.3799 22.63C16.3799 23.1602 16.8097 23.59 17.3399 23.59Z" fill="#8DE2E0"/>
<path d="M27.3999 29.78C26.9099 29.78 26.4799 29.42 26.4099 28.92C25.3599 21.52 18.7499 21.26 18.4699 21.26C18.0099 21.25 17.6199 20.93 17.5199 20.49C14.1699 6.11997 3.64989 5.84997 3.20989 5.83997C2.65989 5.83997 2.20989 5.37997 2.21989 4.82997C2.21989 4.27997 2.66989 3.83997 3.21989 3.83997C3.33989 3.83997 15.3899 4.05997 19.2999 19.33C21.4499 19.64 27.3399 21.17 28.3999 28.63C28.4799 29.18 28.0999 29.68 27.5499 29.76C27.4999 29.76 27.4499 29.76 27.4099 29.76L27.3999 29.78Z" fill="#DF0000"/>
</svg>
