<svg width="256" height="30" viewBox="0 0 256 30" fill="none" xmlns="http://www.w3.org/2000/svg">
<path d="M206.254 0V30" stroke="#323232" stroke-width="0.666583" stroke-miterlimit="10"/>
<path d="M224.623 29.7355V27.7425C224.623 26.993 224.146 26.4903 223.37 26.4815C222.965 26.4815 222.55 26.605 222.251 27.0459C222.03 26.6932 221.686 26.4815 221.201 26.4815C220.866 26.4815 220.531 26.5785 220.275 26.9489V26.5609H219.587V29.7355H220.284V27.9718C220.284 27.4163 220.593 27.1253 221.06 27.1253C221.527 27.1253 221.748 27.4251 221.748 27.963V29.7267H222.445V27.963C222.445 27.4074 222.762 27.1164 223.221 27.1164C223.679 27.1164 223.917 27.4163 223.917 27.9542V29.7179H224.614L224.623 29.7355ZM234.94 26.5609H233.811V25.5997H233.115V26.5609H232.471V27.1958H233.115V28.642C233.115 29.3828 233.397 29.8149 234.217 29.8149C234.517 29.8149 234.861 29.7179 235.081 29.5679L234.878 28.9771C234.676 29.1006 234.446 29.1535 234.27 29.1535C233.926 29.1535 233.811 28.9418 233.811 28.6244V27.187H234.94V26.5521V26.5609ZM240.84 26.4815C240.443 26.4815 240.178 26.6667 240.002 26.9489V26.5609H239.314V29.7355H240.002V27.9542C240.002 27.4251 240.231 27.1341 240.681 27.1341C240.822 27.1341 240.963 27.1517 241.113 27.2134L241.325 26.5609C241.175 26.4992 240.972 26.4727 240.831 26.4727L240.84 26.4815ZM231.924 26.8078C231.589 26.5873 231.131 26.4727 230.628 26.4727C229.826 26.4727 229.305 26.8607 229.305 27.4868C229.305 28.0071 229.693 28.3246 230.399 28.4216L230.725 28.4656C231.104 28.5186 231.281 28.6156 231.281 28.8007C231.281 29.0477 231.025 29.1888 230.557 29.1888C230.09 29.1888 229.737 29.0388 229.499 28.8537L229.173 29.3916C229.552 29.6738 230.028 29.806 230.549 29.806C231.466 29.806 231.995 29.3739 231.995 28.7655C231.995 28.2099 231.58 27.9189 230.884 27.8131L230.557 27.769C230.258 27.7249 230.02 27.672 230.02 27.4604C230.02 27.2311 230.249 27.09 230.628 27.09C231.034 27.09 231.422 27.2399 231.616 27.3634L231.915 26.8078H231.924ZM250.434 26.4815C250.037 26.4815 249.773 26.6667 249.596 26.9489V26.5609H248.908V29.7355H249.596V27.9542C249.596 27.4251 249.825 27.1341 250.275 27.1341C250.416 27.1341 250.557 27.1517 250.707 27.2134L250.919 26.5609C250.769 26.4992 250.566 26.4727 250.425 26.4727L250.434 26.4815ZM241.536 28.1482C241.536 29.1094 242.206 29.8149 243.229 29.8149C243.706 29.8149 244.023 29.709 244.376 29.4357L244.041 28.8801C243.785 29.0653 243.512 29.1623 243.212 29.1623C242.656 29.1623 242.259 28.7567 242.259 28.1482C242.259 27.5397 242.665 27.1341 243.212 27.1341C243.512 27.1341 243.785 27.2311 244.041 27.4163L244.376 26.8607C244.032 26.5873 243.714 26.4815 243.229 26.4815C242.206 26.4815 241.536 27.187 241.536 28.1482ZM248 28.1482V26.5609H247.312V26.9489C247.092 26.6667 246.757 26.4815 246.307 26.4815C245.416 26.4815 244.72 27.1782 244.72 28.1482C244.72 29.1182 245.416 29.8149 246.307 29.8149C246.757 29.8149 247.092 29.6385 247.312 29.3475V29.7355H248V28.1482ZM245.434 28.1482C245.434 27.5926 245.796 27.1341 246.395 27.1341C246.995 27.1341 247.348 27.575 247.348 28.1482C247.348 28.7214 246.96 29.1623 246.395 29.1623C245.831 29.1623 245.434 28.7037 245.434 28.1482ZM237.101 26.4815C236.175 26.4815 235.522 27.1605 235.522 28.1482C235.522 29.1358 236.201 29.8149 237.154 29.8149C237.63 29.8149 238.071 29.6914 238.459 29.3739L238.124 28.8625C237.859 29.0741 237.515 29.1976 237.198 29.1976C236.757 29.1976 236.351 28.9947 236.245 28.4216H238.6C238.6 28.3334 238.617 28.2452 238.617 28.157C238.617 27.1694 238 26.4903 237.109 26.4903L237.101 26.4815ZM237.083 27.0988C237.524 27.0988 237.815 27.381 237.885 27.866H236.236C236.307 27.4074 236.589 27.0988 237.083 27.0988ZM254.411 28.1482V25.2822H253.723V26.9401C253.503 26.6579 253.168 26.4727 252.718 26.4727C251.827 26.4727 251.131 27.1694 251.131 28.1394C251.131 29.1094 251.827 29.806 252.718 29.806C253.168 29.806 253.503 29.6297 253.723 29.3387V29.7267H254.411V28.1394V28.1482ZM251.845 28.1482C251.845 27.5926 252.206 27.1341 252.806 27.1341C253.406 27.1341 253.758 27.575 253.758 28.1482C253.758 28.7214 253.37 29.1623 252.806 29.1623C252.242 29.1623 251.845 28.7037 251.845 28.1482ZM228.512 28.1482V26.5609H227.824V26.9489C227.603 26.6667 227.268 26.4815 226.818 26.4815C225.928 26.4815 225.231 27.1782 225.231 28.1482C225.231 29.1182 225.928 29.8149 226.818 29.8149C227.268 29.8149 227.603 29.6385 227.824 29.3475V29.7355H228.512V28.1482ZM225.945 28.1482C225.945 27.5926 226.307 27.1341 226.907 27.1341C227.506 27.1341 227.859 27.575 227.859 28.1482C227.859 28.7214 227.471 29.1623 226.907 29.1623C226.342 29.1623 225.945 28.7037 225.945 28.1482ZM255.566 29.2769C255.61 29.2769 255.654 29.2769 255.69 29.3034C255.725 29.321 255.76 29.3387 255.795 29.3739C255.822 29.4004 255.848 29.4357 255.866 29.4709C255.884 29.5062 255.893 29.5503 255.893 29.5944C255.893 29.6385 255.893 29.6826 255.866 29.7179C255.848 29.7531 255.822 29.7884 255.795 29.8149C255.769 29.8413 255.734 29.8678 255.69 29.8854C255.654 29.903 255.61 29.9119 255.566 29.9119C255.522 29.9119 255.478 29.9119 255.443 29.8854C255.407 29.8678 255.372 29.8501 255.337 29.8149C255.31 29.7884 255.284 29.7531 255.266 29.7179C255.249 29.6826 255.24 29.6385 255.24 29.5944C255.24 29.5503 255.24 29.5062 255.266 29.4709C255.284 29.4357 255.302 29.4004 255.337 29.3739C255.363 29.3475 255.399 29.321 255.443 29.3034C255.478 29.2858 255.522 29.2769 255.566 29.2769ZM255.566 29.8325C255.566 29.8325 255.628 29.8325 255.663 29.8149C255.69 29.806 255.716 29.7884 255.743 29.7619C255.769 29.7355 255.778 29.7179 255.795 29.6826C255.804 29.6561 255.813 29.6208 255.813 29.5856C255.813 29.5503 255.813 29.5238 255.795 29.4886C255.787 29.4621 255.769 29.4357 255.743 29.4092C255.716 29.3828 255.699 29.3739 255.663 29.3563C255.628 29.3387 255.602 29.3387 255.566 29.3387C255.531 29.3387 255.496 29.3387 255.469 29.3563C255.443 29.3651 255.416 29.3828 255.39 29.4092C255.363 29.4357 255.355 29.4533 255.337 29.4886C255.328 29.515 255.319 29.5503 255.319 29.5856C255.319 29.6208 255.319 29.6473 255.337 29.6826C255.346 29.709 255.363 29.7355 255.39 29.7619C255.416 29.7884 255.434 29.806 255.469 29.8149C255.496 29.8237 255.531 29.8325 255.566 29.8325ZM255.584 29.4445C255.584 29.4445 255.654 29.4445 255.672 29.4709C255.69 29.4886 255.699 29.5062 255.699 29.5415C255.699 29.5679 255.699 29.5856 255.672 29.6032C255.654 29.6209 255.637 29.6297 255.601 29.6297L255.699 29.7443H255.619L255.531 29.6385H255.505V29.7443H255.443V29.4533H255.575L255.584 29.4445ZM255.513 29.4974V29.5768H255.584C255.584 29.5768 255.61 29.5768 255.619 29.5679C255.628 29.5679 255.637 29.5503 255.637 29.5415C255.637 29.5327 255.637 29.515 255.619 29.515C255.61 29.515 255.593 29.5062 255.584 29.5062H255.513V29.4974Z" fill="black"/>
<path d="M242.162 2.35449H231.695V21.1552H242.162V2.35449Z" fill="#FF5F00"/>
<path d="M232.365 11.7638C232.365 7.94548 234.155 4.55042 236.933 2.36347C234.896 0.758533 232.33 -0.193848 229.543 -0.193848C222.938 -0.193848 217.586 5.15889 217.586 11.7638C217.586 18.3688 222.938 23.7215 229.543 23.7215C232.33 23.7215 234.896 22.7691 236.933 21.1642C234.155 18.9772 232.365 15.5733 232.365 11.7638Z" fill="#EB001B"/>
<path d="M256.281 11.7638C256.281 18.3688 250.928 23.7215 244.323 23.7215C241.536 23.7215 238.97 22.7691 236.933 21.1642C239.711 18.9772 241.501 15.5733 241.501 11.7638C241.501 7.9543 239.711 4.55042 236.933 2.36347C238.97 0.758533 241.536 -0.193848 244.323 -0.193848C250.928 -0.193848 256.281 5.15889 256.281 11.7638ZM255.143 19.1712V18.7832H255.302V18.7039H254.905V18.7832H255.064V19.1712H255.152H255.143ZM255.91 19.1712V18.7039H255.787L255.646 19.0213L255.505 18.7039H255.381V19.1712H255.469V18.8185L255.602 19.1183H255.69L255.822 18.8185V19.1712H255.91Z" fill="#F79E1B"/>
<path d="M147.33 7.89253C147.33 9.37401 146.704 10.4939 145.707 11.0495L147.268 13.5451H145.848L144.552 11.4022C144.385 11.4375 144.217 11.4551 144.032 11.4551C142.074 11.4551 140.734 10.0795 140.734 7.89253V3.52745C140.734 1.34051 142.021 -0.0351562 144.032 -0.0351562C146.042 -0.0351562 147.33 1.34051 147.33 3.52745V7.89253ZM141.898 7.92781C141.898 9.28583 142.674 10.2911 144.032 10.2911C145.39 10.2911 146.157 9.28583 146.157 7.92781V3.501C146.157 2.14297 145.39 1.13768 144.032 1.13768C142.674 1.13768 141.898 2.14297 141.898 3.501V7.93663V7.92781Z" fill="#323232"/>
<path d="M150.081 11.2963L153.291 0.141113H154.464L157.7 11.2963H156.492L155.76 8.73018H151.942L151.228 11.2963H150.081ZM152.25 7.61025H155.469L153.838 1.88715L152.25 7.61025Z" fill="#323232"/>
<path d="M167.268 11.2963H166.307L161.951 2.67201V11.2963H160.866V0.132324H161.907L166.184 8.62439V0.132324H167.268V11.2875V11.2963Z" fill="#323232"/>
<path d="M170.355 0.132324H176.801V1.30516H174.155V11.2875H172.991V1.30516H170.346V0.132324H170.355Z" fill="#323232"/>
<path d="M178.256 11.2963L181.466 0.141113H182.638L185.875 11.2963H184.667L183.935 8.73018H180.116L179.402 11.2963H178.256ZM180.425 7.61025H183.644L182.012 1.88715L180.425 7.61025Z" fill="#323232"/>
<path d="M193.573 3.31578V3.04242C193.573 1.92249 192.859 1.05829 191.607 1.05829C190.355 1.05829 189.667 1.75494 189.667 2.74259C189.667 3.52742 190.152 4.08298 190.813 4.37399L192.462 5.12355C193.609 5.63501 194.887 6.31402 194.887 8.2276C194.887 10.1412 193.556 11.4728 191.616 11.4728C189.676 11.4728 188.335 10.2646 188.335 8.33342V8.06005H189.482V8.39515C189.482 9.53272 190.258 10.3616 191.607 10.3616C192.956 10.3616 193.741 9.51508 193.741 8.37751C193.741 7.1694 192.965 6.69321 192.03 6.28757L190.61 5.64383C189.482 5.15 188.547 4.33871 188.547 2.83959C188.547 1.15529 189.773 -0.0263672 191.598 -0.0263672C193.423 -0.0263672 194.702 1.18175 194.702 3.11296V3.31578H193.573Z" fill="#323232"/>
<path d="M142.092 21.3052V29.8149H141.007V18.6597H142.03L144.658 24.4533L147.268 18.6597H148.291V29.8149H147.162V21.3228L144.975 26.1288H144.288L142.092 21.3052Z" fill="#323232"/>
<path d="M158.679 26.4111C158.679 28.598 157.339 29.9737 155.381 29.9737C153.423 29.9737 152.083 28.598 152.083 26.4111V22.046C152.083 19.8591 153.37 18.4834 155.381 18.4834C157.392 18.4834 158.679 19.8591 158.679 22.046V26.4111ZM153.247 26.4464C153.247 27.8044 154.023 28.8097 155.381 28.8097C156.739 28.8097 157.506 27.8044 157.506 26.4464V22.0107C157.506 20.6527 156.739 19.6474 155.381 19.6474C154.023 19.6474 153.247 20.6527 153.247 22.0107V26.4464Z" fill="#323232"/>
<path d="M168.873 29.8149H167.912L163.556 21.1905V29.8149H162.471V18.6597H163.512L167.788 27.1517V18.6597H168.873V29.8149Z" fill="#323232"/>
<path d="M174.102 24.6826V28.642H178.794V29.8149H172.947V18.6597H178.679V19.8325H174.111V23.5362H178.3V24.6914H174.111L174.102 24.6826Z" fill="#323232"/>
<path d="M182.55 18.6509L184.808 24.083L187.083 18.6509H188.256L185.355 25.344V29.8061H184.191V25.3616L181.289 18.6509H182.542H182.55Z" fill="#323232"/>
<path d="M129.684 0V30" stroke="#323232" stroke-width="0.666583" stroke-miterlimit="10"/>
<path d="M87.8414 29.8501H118.309L93.8996 5.33509C90.6456 2.08112 86.2365 0.149902 81.6333 0.149902H76.5275L76.9067 1.14638L78.5998 5.582L87.8502 29.8501H87.8414Z" fill="url(#paint0_linear_15605_2177)"/>
<path d="M78.5909 5.58208C81.9242 11.2787 90.6808 11.8784 91.6332 20.732C91.6685 21.0935 91.9507 21.3846 92.3122 21.4463C97.3563 22.2311 102.268 24.3122 106.536 27.7338C106.536 27.7338 106.598 27.769 106.633 27.769C106.668 27.769 106.713 27.7514 106.739 27.7249C106.801 27.6632 106.801 27.575 106.739 27.5133C103.785 24.4092 100.169 21.9225 96.1129 20.2911L94.8784 19.7972C94.2434 19.5415 93.8025 18.9154 93.8202 18.1923C93.8907 15.5468 100.152 16.0847 100.778 14.8149L100.884 14.5944C99.5962 13.4921 98.0618 12.6632 96.3775 12.2047C96.3598 12.2664 96.3246 12.575 96.6685 13.1394C97.0389 13.7479 96.2628 14.7091 95.1253 13.6685L95.0283 13.5803C86.5715 5.82899 80.2311 9.85016 76.8801 1.15527L78.5732 5.5909L78.5909 5.58208Z" fill="white"/>
<path d="M98.926 14.4443C98.926 14.4443 97.5416 14.5149 96.6862 13.1304C96.9419 13.5448 96.6597 14.118 96.0953 14.1268V16.2344C97.0036 15.9699 98.0442 15.8111 98.9172 15.626V14.4531L98.926 14.4443Z" fill="url(#paint1_linear_15605_2177)"/>
<path d="M93.3528 21.6313C98.0265 22.5308 102.559 24.5502 106.527 27.7336C97.6738 20.1675 93.635 21.5343 93.3528 21.6313Z" fill="url(#paint2_linear_15605_2177)"/>
<path d="M80.3723 5.97894C78.9966 5.0001 77.8326 3.56271 76.8978 1.14648L78.5909 5.58211C81.9243 11.2788 90.6809 11.8784 91.6333 20.732C90.6721 9.42691 85.7074 11.12 80.3723 5.97894Z" fill="url(#paint3_linear_15605_2177)"/>
<path d="M1.17473 6.48147V11.3051H0.0195312V0.149902H5.74263V1.32274H1.17473V5.32627H5.36345V6.48147H1.17473Z" fill="#323232"/>
<path d="M14.3405 11.3051L12.6033 6.88712C12.4181 6.90475 12.3299 6.90475 12.1888 6.90475H10.3282V11.3051H9.17297V0.149902H12.2594C14.2171 0.149902 15.628 1.45502 15.628 3.47442C15.628 4.96472 14.8961 6.08465 13.7673 6.57847L15.6104 11.2963H14.3405V11.3051ZM10.3282 1.28747V5.78482H12.1624C13.5645 5.78482 14.4375 4.86772 14.4375 3.49205C14.4375 2.11639 13.5645 1.28747 12.1624 1.28747H10.3282Z" fill="#323232"/>
<path d="M20.2399 6.17283V10.1323H24.9225V11.3051H19.0759V0.149902H24.799V1.32274H20.2399V5.01763H24.4198V6.17283H20.2399Z" fill="#323232"/>
<path d="M34.6138 7.91011C34.6138 9.39159 33.9877 10.5115 33.0001 11.0671L34.5521 13.5627H33.1323L31.836 11.4198C31.6685 11.4551 31.5009 11.4727 31.3158 11.4727C29.3581 11.4727 28.0177 10.0971 28.0177 7.91011V3.54503C28.0177 1.35808 29.3052 -0.0175781 31.3158 -0.0175781C33.3263 -0.0175781 34.6138 1.35808 34.6138 3.54503V7.91011ZM29.1817 7.94539C29.1817 9.30341 29.9577 10.3087 31.3158 10.3087C32.6738 10.3087 33.4322 9.30341 33.4322 7.94539V3.50976C33.4322 2.15173 32.665 1.14644 31.3158 1.14644C29.9666 1.14644 29.1817 2.15173 29.1817 3.50976V7.94539Z" fill="#323232"/>
<path d="M44.4022 0.149902V7.91004C44.4022 10.097 43.0882 11.4727 41.1658 11.4727C39.2434 11.4727 37.9471 10.097 37.9471 7.91004V0.149902H39.1023V7.94532C39.1023 9.30334 39.8519 10.3086 41.1658 10.3086C42.4798 10.3086 43.2381 9.30334 43.2381 7.94532V0.149902H44.3934H44.4022Z" fill="#323232"/>
<path d="M49.3934 6.17283V10.1323H54.0759V11.3051H48.2382V0.149902H53.9524V1.32274H49.3934V5.01763H53.5733V6.17283H49.3934Z" fill="#323232"/>
<path d="M63.9613 11.3051H63.0001L58.6526 2.68077V11.3051H57.568V0.149902H58.6086L62.8766 8.64197V0.149902H63.9613V11.3051Z" fill="#323232"/>
<path d="M66.9242 0.149902H73.3616V1.32274H70.7249V11.3051H69.5609V1.32274H66.9242V0.149902Z" fill="#323232"/>
<path d="M32.1007 25V29.8237H30.9366V18.6685H36.6597V19.8413H32.1007V23.8448H36.2806V25H32.1007Z" fill="#323232"/>
<path d="M41.2452 28.6508H45.6279V29.8237H40.09V18.6685H41.2452V28.6508Z" fill="#323232"/>
<path d="M48.15 18.6685L50.4075 24.1006L52.6827 18.6685H53.8555L50.9543 25.3528V29.8237H49.7991V25.3704L46.8978 18.6685H48.15Z" fill="#323232"/>
<path d="M58.2646 24.6914V28.6508H62.9471V29.8237H57.1006V18.6685H62.8237V19.8413H58.2646V23.5362H62.4445V24.6914H58.2646Z" fill="#323232"/>
<path d="M71.6068 29.8237L69.8695 25.4057C69.6844 25.4233 69.5962 25.4233 69.4551 25.4233H67.5944V29.8237H66.4392V18.6685H69.5256C71.4745 18.6685 72.8942 19.9736 72.8942 21.993C72.8942 23.4833 72.1623 24.6032 71.0336 25.097L72.8766 29.8148H71.6068V29.8237ZM67.5944 19.806V24.3034H69.4286C70.8307 24.3034 71.7038 23.3863 71.7038 22.0106C71.7038 20.6349 70.8307 19.806 69.4286 19.806H67.5944Z" fill="#323232"/>
<defs>
<linearGradient id="paint0_linear_15605_2177" x1="102.991" y1="29.7443" x2="82.6738" y2="0.0617222" gradientUnits="userSpaceOnUse">
<stop stop-color="#BE0000"/>
<stop offset="0.39" stop-color="#DD0000"/>
<stop offset="0.77" stop-color="#F60000"/>
<stop offset="1" stop-color="#FF0000"/>
</linearGradient>
<linearGradient id="paint1_linear_15605_2177" x1="97.3828" y1="16.3491" x2="97.6562" y2="13.2097" gradientUnits="userSpaceOnUse">
<stop offset="0.65" stop-color="white" stop-opacity="0"/>
<stop offset="0.69" stop-color="#ECECEC" stop-opacity="0.0529"/>
<stop offset="0.76" stop-color="#D6D6D6" stop-opacity="0.25"/>
<stop offset="0.81" stop-color="#C5C5C5" stop-opacity="0.5184"/>
<stop offset="0.87" stop-color="#B9B9B9" stop-opacity="0.7569"/>
<stop offset="0.91" stop-color="#B1B1B1" stop-opacity="0.9409"/>
<stop offset="0.95" stop-color="#AFAFAF"/>
</linearGradient>
<linearGradient id="paint2_linear_15605_2177" x1="93.3528" y1="24.6031" x2="106.536" y2="24.6031" gradientUnits="userSpaceOnUse">
<stop stop-color="white" stop-opacity="0"/>
<stop offset="0.07" stop-color="#F3F3F3" stop-opacity="0.0225"/>
<stop offset="0.21" stop-color="#DEDEDE" stop-opacity="0.1681"/>
<stop offset="0.35" stop-color="#CDCDCD" stop-opacity="0.3844"/>
<stop offset="0.49" stop-color="#C0C0C0" stop-opacity="0.6241"/>
<stop offset="0.63" stop-color="#B6B6B6" stop-opacity="0.8281"/>
<stop offset="0.77" stop-color="#B0B0B0" stop-opacity="0.9604"/>
<stop offset="0.9" stop-color="#AFAFAF"/>
</linearGradient>
<linearGradient id="paint3_linear_15605_2177" x1="76.8978" y1="10.9437" x2="91.6245" y2="10.9437" gradientUnits="userSpaceOnUse">
<stop offset="0.25" stop-color="white" stop-opacity="0"/>
<stop offset="0.36" stop-color="#F6F6F6" stop-opacity="0.0121"/>
<stop offset="0.58" stop-color="#E0E0E0" stop-opacity="0.1444"/>
<stop offset="0.88" stop-color="#BDBDBD" stop-opacity="0.6724"/>
<stop offset="1" stop-color="#AFAFAF"/>
</linearGradient>
</defs>
</svg>
