<svg width="24" height="24" viewBox="0 0 24 24" fill="none" xmlns="http://www.w3.org/2000/svg">
<g clip-path="url(#clip0_16335_2641)">
<path d="M20.4851 20.4853C25.1714 15.799 25.1714 8.20101 20.4851 3.51472C15.7988 -1.17157 8.20081 -1.17157 3.51452 3.51472C-1.17177 8.20101 -1.17177 15.799 3.51452 20.4853C8.20081 25.1716 15.7988 25.1716 20.4851 20.4853Z" fill="#FED700"/>
<mask id="mask0_16335_2641" style="mask-type:luminance" maskUnits="userSpaceOnUse" x="-1" y="0" width="25" height="24">
<path d="M20.4851 20.4853C25.1714 15.799 25.1714 8.20101 20.4851 3.51472C15.7988 -1.17157 8.20081 -1.17157 3.51452 3.51472C-1.17177 8.20101 -1.17177 15.799 3.51452 20.4853C8.20081 25.1716 15.7988 25.1716 20.4851 20.4853Z" fill="white"/>
</mask>
<g mask="url(#mask0_16335_2641)">
<path d="M22.9072 4.68848H1.01733V19.3115H22.9072V4.68848Z" fill="#FED700"/>
<path d="M4.88271 5.69873H2.03888V18.2899H4.88271V5.69873Z" fill="#007C29"/>
<path d="M7.72652 5.69873H4.88269V18.2885H7.72652V5.69873Z" fill="#FF6600"/>
<path d="M21.8856 5.69873H8.74811V18.2899H21.8856V5.69873Z" fill="#8D153A"/>
<path fill-rule="evenodd" clip-rule="evenodd" d="M11.0539 12.4163L11.9203 13.2827C11.8966 13.1709 11.884 13.0536 11.884 12.9348C11.884 12.605 11.979 12.2975 12.1453 12.0376C12.3158 11.7707 12.5604 11.5541 12.8496 11.4185C12.9628 11.3626 13.0691 11.29 13.1613 11.2047C13.2046 11.1628 13.2102 11.1013 13.1669 11.0566C13.1152 11.0049 13.0467 11.0258 13.0048 11.0789C12.9684 11.1251 12.9475 11.1893 12.9405 11.2383C12.9377 11.2606 12.9111 11.2718 12.893 11.2592C12.8329 11.2173 12.7812 11.1656 12.7379 11.1069C12.7085 11.0678 12.6847 11.0244 12.6652 10.9783C12.647 11.0189 12.633 11.0608 12.6247 11.1041C12.6205 11.1251 12.6023 11.1334 12.5827 11.1279C12.4947 11.0943 12.422 11.0286 12.3801 10.9434C12.32 10.9685 12.2585 10.9923 12.1956 11.0105C12.1244 11.0314 12.0503 11.0482 11.9748 11.0608C11.9483 11.065 11.9301 11.0356 11.9441 11.0147L12.0573 10.819C11.9986 10.8372 11.9385 10.8512 11.8784 10.8609C11.7904 10.8749 11.7009 10.8819 11.6115 10.8791C11.5891 10.8791 11.5794 10.8595 11.5822 10.84L11.7065 10.3774C11.7191 10.3285 11.754 10.288 11.7988 10.267C11.7401 10.2321 11.6939 10.186 11.666 10.1426C11.6339 10.0895 11.6255 10.0364 11.6492 9.99451C11.673 9.95399 11.7205 9.93442 11.7778 9.93442C11.8295 9.93442 11.8924 9.95119 11.9539 9.98333C12.1355 10.0784 12.3284 10.1566 12.5296 10.2125C12.7043 10.2614 12.886 10.295 13.0732 10.3103C13.0551 10.288 13.0369 10.2656 13.0173 10.2447C12.9265 10.1454 12.8455 10.0378 12.7742 9.92324C12.7602 9.97635 12.7518 10.0308 12.7476 10.0853C12.7462 10.1091 12.7197 10.1217 12.7001 10.1091C12.6302 10.07 12.5646 10.0211 12.5073 9.96517V10.0714C12.5073 10.0951 12.4807 10.1105 12.4598 10.0979C12.2711 10.0043 12.0419 9.81284 11.8728 9.59344C11.7289 9.40758 11.6283 9.19936 11.6283 9.0107C11.6283 8.83742 11.768 8.69767 11.9413 8.69767C12.0251 8.69767 12.102 8.72981 12.1579 8.78431C12.2166 8.84161 12.2529 8.91847 12.2543 9.00092L13.0928 8.88772C13.1613 8.87794 13.22 8.84161 13.2591 8.7913C13.315 8.71863 13.3262 8.62081 13.2885 8.53836C13.2801 8.52019 13.2898 8.50342 13.308 8.49644C13.3905 8.47128 13.4743 8.4587 13.561 8.4587C13.7664 8.4587 13.9634 8.53277 14.1171 8.66832C14.1521 8.56491 14.1605 8.46569 14.1549 8.35529C14.1535 8.33433 14.1689 8.32175 14.1884 8.32175C14.3114 8.33014 14.426 8.36507 14.528 8.42097C14.6202 8.47128 14.7027 8.53696 14.7698 8.61662C14.8117 8.53696 14.8382 8.45032 14.8508 8.36088C14.8536 8.34411 14.869 8.33293 14.8857 8.33433C15.0828 8.36368 15.2617 8.4601 15.393 8.60963C15.4363 8.65155 15.495 8.67391 15.5551 8.67391C15.6068 8.67391 15.6585 8.65714 15.6991 8.625C15.7703 8.56771 15.8304 8.50063 15.8793 8.42377C15.8947 8.39861 15.9338 8.4084 15.9366 8.43774C15.945 8.58028 15.9171 8.72422 15.8556 8.85279C15.8053 8.9562 15.7354 9.04843 15.6502 9.1239C15.7522 9.22172 15.8109 9.35727 15.8109 9.49842V10.4641C15.8109 10.4878 15.7843 10.5032 15.7648 10.4906C15.7396 10.478 15.7144 10.4641 15.6893 10.4501C15.6921 10.5172 15.7005 10.5828 15.7158 10.6471C15.7354 10.7296 15.7648 10.8092 15.8039 10.8847C15.8165 10.9099 15.7913 10.9378 15.7662 10.928C15.6991 10.9071 15.6334 10.8805 15.5719 10.847C15.5971 11.0063 15.6599 11.1572 15.7536 11.2872H18.7246C18.923 11.2872 19.2346 11.2299 19.4596 11.0957C19.6148 11.0035 19.728 10.8735 19.728 10.7016C19.728 10.5912 19.6832 10.492 19.6106 10.4193C19.5379 10.3467 19.4387 10.302 19.3283 10.302H19.039C18.8615 10.302 18.6854 10.3173 18.5108 10.3467C18.2117 10.3984 17.9252 10.4389 17.6387 10.4319C17.3537 10.4249 17.07 10.3704 16.7807 10.2307C16.7136 10.1985 16.6074 10.158 16.532 10.158C16.4733 10.158 16.4202 10.1818 16.381 10.2195C16.3433 10.2586 16.3195 10.3117 16.3195 10.3704C16.3195 10.411 16.3307 10.4487 16.3517 10.4836C16.3615 10.4976 16.3559 10.5172 16.3419 10.5255C16.3321 10.5311 16.3209 10.5311 16.3112 10.5255C16.2273 10.4864 16.156 10.4235 16.1071 10.3467C16.0582 10.2712 16.0303 10.1818 16.0303 10.0853C16.0303 9.97215 16.0694 9.86315 16.1421 9.77651C16.054 9.70803 15.9814 9.62139 15.9297 9.52217C15.8752 9.41596 15.8444 9.29578 15.8444 9.16861C15.8444 9.08337 15.8584 9.00092 15.8835 8.92406C15.9101 8.8444 15.9492 8.77034 15.9981 8.70605C16.1449 8.50622 16.3363 8.36368 16.5515 8.27005C16.7947 8.16384 17.0672 8.11772 17.3355 8.11772C17.6374 8.11772 17.9546 8.19039 18.2578 8.30778C18.6016 8.44054 18.9286 8.63059 19.1927 8.83322L19.8915 9.38382C19.9152 9.40059 19.939 9.40758 19.9683 9.40758C19.9641 9.38802 19.9627 9.36985 19.9627 9.34889C19.9627 9.19377 20.0885 9.06939 20.2422 9.06939C20.4281 9.06939 20.5357 9.23429 20.5357 9.40618C20.5357 9.65773 20.3372 9.81005 20.0969 9.81005C19.9152 9.81005 19.7405 9.75136 19.5952 9.64235L18.9873 9.16442C19.0055 9.2888 19.0558 9.40479 19.1354 9.50261C19.1522 9.52357 19.1354 9.55431 19.1089 9.55292C18.9845 9.54453 18.8671 9.5068 18.7665 9.44531C18.6771 9.39081 18.6002 9.31814 18.5401 9.2329C18.4311 9.40758 18.2466 9.52357 18.0412 9.54593C18.0244 9.54733 18.0091 9.53475 18.0077 9.51798C18.0077 9.5082 18.0105 9.49842 18.0161 9.49283C18.0957 9.40479 18.139 9.29159 18.139 9.17281C18.139 9.06939 18.1069 8.97297 18.0496 8.89611C18.0063 8.83602 17.9504 8.78711 17.8847 8.75217C17.9071 8.81226 17.9168 8.87654 17.9168 8.94083C17.9168 9.09595 17.854 9.23709 17.7519 9.3391C17.6304 9.46068 17.4836 9.5082 17.3159 9.50261C17.2992 9.50261 17.2866 9.48724 17.2866 9.47047C17.2866 9.46348 17.2908 9.45649 17.295 9.4509C17.3844 9.35727 17.4333 9.2343 17.4333 9.10433C17.4333 8.97437 17.383 8.85419 17.302 8.76475C17.2293 8.68509 17.1315 8.62919 17.0211 8.60963C17.0406 8.70466 17.0336 8.7913 16.9931 8.87934C16.9666 8.93524 16.9288 8.98415 16.8827 9.02328C16.8673 9.03586 16.8436 9.03166 16.8352 9.0135C16.7793 8.91847 16.6787 8.86117 16.5697 8.86117C16.4844 8.86117 16.4076 8.89611 16.3517 8.95061C16.2483 9.05402 16.2315 9.22032 16.3154 9.3405C16.3447 9.38382 16.3852 9.41876 16.4327 9.44252C16.5194 9.29159 16.6801 9.19936 16.8534 9.19936C16.9791 9.19936 17.0993 9.24827 17.1902 9.33491C17.2027 9.34749 17.2027 9.36705 17.1902 9.37823C17.1846 9.38382 17.1762 9.38802 17.1692 9.38802C17.0881 9.39221 17.0141 9.42714 16.961 9.48304C16.9079 9.53754 16.8757 9.61301 16.8757 9.69546C16.8757 9.74157 16.8855 9.78629 16.9051 9.82822C16.9302 9.77511 16.968 9.7276 17.0141 9.69266C17.077 9.64515 17.1538 9.6158 17.2391 9.6158C17.26 9.6158 17.2824 9.6172 17.302 9.62139C17.3257 9.62558 17.3355 9.65353 17.3201 9.6717C17.2908 9.70664 17.2796 9.75415 17.2894 9.79887C17.3062 9.87713 17.39 9.92883 17.5018 9.96237C17.6905 10.0197 18.0133 10.0281 18.2075 9.98473C18.4381 9.93582 18.6743 9.91346 18.9104 9.91346H19.4177C19.6357 9.91346 19.8328 10.0015 19.9753 10.144C20.1164 10.2866 20.2059 10.485 20.2059 10.7016C20.2017 10.9979 20.0382 11.269 19.7727 11.4032C19.8998 11.5443 20.0033 11.7092 20.0745 11.8895C20.2185 12.25 20.2268 12.6581 20.0997 13.0242L19.7615 13.9982C19.721 14.1072 19.7014 14.2204 19.7014 14.3364C19.7014 14.6215 19.8356 15.0393 20.1947 14.989C20.2129 14.989 20.2296 15.0002 20.2296 15.0198C20.231 15.1973 20.129 15.358 19.9641 15.4264C19.8244 15.4823 19.7335 15.6179 19.7335 15.7688C19.7335 15.8736 19.7769 15.9715 19.8551 16.0427C19.9488 16.1308 19.9991 16.2537 19.9907 16.3823C19.9907 16.3949 19.9823 16.4061 19.9697 16.4103C19.9082 16.4298 19.8439 16.441 19.7797 16.441C19.6511 16.441 19.5267 16.4005 19.4233 16.3236C19.359 16.3907 19.271 16.4284 19.1774 16.4284C19.0837 16.4284 19.0027 16.3935 18.9384 16.3306C18.8867 16.3921 18.8098 16.4284 18.7302 16.4284C18.6505 16.4284 18.5764 16.3935 18.5247 16.3348C18.4577 16.4117 18.3556 16.4452 18.255 16.4214C18.2411 16.4186 18.2313 16.4075 18.2299 16.3935C18.2285 16.3725 18.2271 16.3516 18.2285 16.332C18.167 16.3921 18.0831 16.4298 17.9909 16.4298C17.8987 16.4298 17.8134 16.3935 17.7505 16.3292C17.6863 16.3935 17.5996 16.4298 17.5088 16.4298C17.4179 16.4298 17.3341 16.3949 17.2698 16.332C17.2181 16.3935 17.1426 16.4298 17.0616 16.4298C16.9805 16.4298 16.9079 16.3949 16.8562 16.3362C16.8352 16.36 16.8115 16.3795 16.7835 16.3963C16.7234 16.4298 16.6535 16.4396 16.5879 16.4228C16.5739 16.42 16.5641 16.4089 16.5627 16.3949C16.5557 16.2454 16.5948 16.1182 16.7038 16.0092C16.8268 15.8876 17.0029 15.8387 17.1706 15.882C17.2517 15.9002 17.3271 15.8904 17.3886 15.8303C17.4263 15.7926 17.4501 15.7409 17.4501 15.6836V15.1777C17.4501 14.9667 17.3621 14.7627 17.2083 14.6187C17.0798 14.4957 16.9736 14.3476 16.8995 14.1841C16.831 14.0318 16.7877 13.8655 16.7779 13.6894C16.5683 13.6992 16.3643 13.7327 16.1686 13.7858C15.9366 13.8501 15.7186 13.9437 15.516 14.0625C15.3805 14.1464 15.2156 14.2246 15.0688 14.2861C14.9207 14.349 14.767 14.4035 14.6105 14.4496C14.5378 14.5754 14.4581 14.6984 14.3743 14.8158C14.3435 14.8591 14.3268 14.8912 14.3268 14.9471C14.3268 15.0393 14.3897 15.1204 14.4791 15.1428L14.7907 15.2266C14.8103 15.2322 14.8201 15.2546 14.8089 15.2727C14.7432 15.4041 14.644 15.5159 14.5238 15.5969C14.4148 15.671 14.289 15.7199 14.1521 15.7381L14.2122 15.9631C14.222 15.9952 14.2261 16.0301 14.2261 16.0651C14.2261 16.1671 14.1842 16.2593 14.1185 16.3264C14.0515 16.3935 13.9592 16.434 13.8572 16.434C13.7552 16.434 13.6616 16.3935 13.5917 16.3222C13.5218 16.3935 13.4254 16.434 13.3262 16.434C13.227 16.434 13.1319 16.3949 13.0621 16.325C13.0062 16.3935 12.9223 16.434 12.8329 16.434C12.7434 16.434 12.6624 16.3949 12.6065 16.3292C12.5841 16.3558 12.5562 16.3795 12.524 16.3963C12.4584 16.4326 12.3815 16.4438 12.3088 16.4256C12.2949 16.4228 12.2865 16.4117 12.2851 16.3977C12.2781 16.2342 12.3214 16.0944 12.4388 15.9756C12.573 15.8415 12.7672 15.7898 12.9489 15.8359C13.0914 15.868 13.2423 15.8247 13.3457 15.7199C13.4226 15.6417 13.4715 15.5354 13.4715 15.4167C13.4715 15.3859 13.4687 15.3566 13.4617 15.3272L13.2661 14.5936C13.0173 14.5502 12.7868 14.4524 12.5897 14.3113L12.4136 14.4874C12.3214 14.5796 12.2012 14.6257 12.0796 14.6257C11.9581 14.6257 11.8379 14.5796 11.7457 14.4874L11.434 14.1757C11.4131 14.1548 11.3865 14.145 11.3586 14.145C11.3138 14.145 11.2747 14.1729 11.2593 14.2148C11.2537 14.2288 11.2524 14.2456 11.2537 14.2596C11.2551 14.2847 11.2286 14.3015 11.2062 14.2889C11.1112 14.2358 11.0511 14.1352 11.0511 14.0262V13.6377L10.8918 13.4784L10.8667 13.5035C10.8471 13.5231 10.8205 13.5329 10.794 13.5329C10.7674 13.5329 10.7437 13.5231 10.7241 13.5049C10.7199 13.5007 10.7157 13.4966 10.7115 13.491C10.7073 13.4952 10.7018 13.4979 10.6976 13.5007C10.6766 13.5119 10.6528 13.5189 10.6277 13.5161V13.607C10.6277 13.6237 10.6417 13.6377 10.6584 13.6377C10.6696 13.6377 10.6766 13.6335 10.6836 13.6251C10.7101 13.593 10.7507 13.5748 10.7912 13.5748C10.8694 13.5748 10.9323 13.6377 10.9323 13.716C10.9323 13.7942 10.8694 13.8571 10.7912 13.8571H10.6445C10.6696 13.9354 10.7185 14.0052 10.7856 14.0541C10.7996 14.0667 10.8024 14.0863 10.7884 14.1003C10.7521 14.1366 10.7227 14.1813 10.7018 14.2302C10.6822 14.2777 10.6724 14.328 10.6724 14.3825C10.6724 14.458 10.6934 14.5307 10.7325 14.5936C10.7604 14.5377 10.8163 14.5013 10.8792 14.5013C10.9687 14.5013 11.0427 14.574 11.0427 14.6648C11.0427 14.7165 11.0204 14.7585 10.9812 14.792C10.917 14.8465 10.8471 14.8898 10.7688 14.922L10.9337 15.0869C10.9533 15.1036 10.9449 15.1358 10.9198 15.14C10.8359 15.1567 10.7521 15.1693 10.6682 15.1763C10.6654 15.242 10.6445 15.3021 10.6109 15.3468C10.5732 15.3985 10.5201 15.4306 10.4614 15.4306C10.4027 15.4306 10.3496 15.3985 10.3119 15.3468C10.2797 15.3021 10.2588 15.242 10.2546 15.1763C10.1693 15.1693 10.0855 15.1567 10.003 15.14C9.97787 15.1344 9.96948 15.1036 9.98905 15.0869L10.1539 14.922C10.0771 14.8898 10.0058 14.8465 9.94153 14.792C9.9024 14.7585 9.88004 14.7165 9.88004 14.6648C9.88004 14.5754 9.95271 14.5013 10.0435 14.5013C10.1064 14.5013 10.1623 14.5377 10.1903 14.5936C10.2294 14.5293 10.2504 14.4566 10.2504 14.3825C10.2504 14.328 10.2392 14.2763 10.221 14.2302C10.2015 14.1813 10.1721 14.138 10.1344 14.1003C10.1204 14.0863 10.1232 14.0667 10.1372 14.0541C10.2029 14.0038 10.2532 13.9354 10.2783 13.8571H10.1316C10.0533 13.8571 9.99044 13.7942 9.99044 13.716C9.99044 13.6377 10.0533 13.5748 10.1316 13.5748C10.1721 13.5748 10.214 13.593 10.2392 13.6251C10.2462 13.6335 10.2532 13.6377 10.2643 13.6377C10.2811 13.6377 10.2951 13.6237 10.2951 13.607V13.4309L10.2853 13.4281C10.2196 13.4113 10.1819 13.3428 10.1987 13.2785C10.2043 13.2576 10.2154 13.2394 10.2294 13.224L10.1959 13.2157C10.1595 13.2059 10.1316 13.1821 10.1134 13.1528C10.0953 13.1234 10.0897 13.0857 10.0994 13.0494C10.1064 13.0228 10.1218 13.0005 10.1414 12.9823C10.0729 12.9557 10.0352 12.8803 10.0547 12.809C10.0673 12.7601 10.105 12.7224 10.1539 12.707C10.1302 12.6693 10.1232 12.6273 10.1344 12.584C10.1414 12.5589 10.1539 12.5365 10.1707 12.5197C9.97367 12.4792 9.75427 12.3409 9.75427 12.1354C9.75427 11.9775 9.88284 11.8503 10.0394 11.8503C10.0617 11.8503 10.0855 11.8531 10.1078 11.8587V9.70105C10.1078 9.27901 10.207 8.87794 10.3817 8.52019C10.5634 8.14987 10.8289 7.82565 11.1517 7.57271C11.1657 7.56293 11.1839 7.56433 11.1951 7.5783C11.2034 7.58809 11.2034 7.60206 11.1978 7.61184C10.9896 7.99614 10.8806 8.42377 10.8806 8.86117V11.8573C10.903 11.8517 10.9267 11.8489 10.9491 11.8489C11.107 11.8489 11.2342 11.9775 11.2342 12.134C11.2342 12.2584 11.1531 12.3576 11.0469 12.4261L11.0539 12.4163ZM18.3501 14.4985L18.2341 14.6984C18.1614 14.8186 18.2466 14.9751 18.3906 14.9751H18.6589C18.6799 14.9751 18.6966 14.9946 18.6896 15.0156C18.6268 15.2098 18.5122 15.3258 18.3696 15.4642C18.276 15.555 18.2369 15.671 18.2718 15.7982L18.3235 15.991C18.3291 16.0092 18.3319 16.0288 18.3347 16.0469C18.4339 15.9225 18.5988 15.8541 18.7833 15.8611C18.8587 15.8611 18.9286 15.8317 18.9817 15.7828C19.0446 15.7241 19.0711 15.6542 19.0739 15.569V15.1973C19.0739 15.0435 18.9929 14.901 18.8615 14.8227C18.6854 14.7221 18.515 14.6145 18.3501 14.4985Z" fill="black"/>
<path fill-rule="evenodd" clip-rule="evenodd" d="M11.9217 10.2574C12.0629 10.3146 12.2096 10.3594 12.3577 10.3887C12.5184 10.4209 12.6819 10.4362 12.8468 10.4348C12.8706 10.4348 12.8846 10.46 12.8748 10.4795C12.8496 10.5271 12.8217 10.5704 12.7909 10.6151C12.8664 10.6151 12.9391 10.6151 13.0145 10.6249C13.076 10.6319 13.1375 10.6417 13.1962 10.6542C13.2116 10.6584 13.2297 10.6542 13.2409 10.6417C13.2563 10.6263 13.2577 10.6053 13.2493 10.5858C13.213 10.5117 13.171 10.4404 13.1221 10.3747C12.9125 10.3608 12.7085 10.3244 12.5128 10.2699C12.3074 10.2126 12.1104 10.133 11.9245 10.0366C11.8728 10.0086 11.8197 9.99463 11.7778 9.99463C11.7414 9.99463 11.7135 10.0044 11.7023 10.024C11.6897 10.0449 11.6967 10.0757 11.7177 10.1092C11.7652 10.1861 11.8421 10.2252 11.9217 10.2574Z" fill="#FED700"/>
<path fill-rule="evenodd" clip-rule="evenodd" d="M16.8422 13.6772C16.852 13.8449 16.8925 14.0042 16.9582 14.1481C17.0295 14.306 17.1315 14.4472 17.2559 14.566C17.4208 14.7197 17.5158 14.9433 17.5158 15.1683V15.6742C17.5158 15.7482 17.485 15.8167 17.4361 15.8656C17.3607 15.9411 17.26 15.9592 17.1594 15.9341C17.0141 15.8963 16.859 15.9383 16.7528 16.0459C16.6675 16.1311 16.627 16.2387 16.6284 16.3589C16.6745 16.3645 16.7192 16.3561 16.7598 16.3338C16.7919 16.3156 16.8184 16.2904 16.8366 16.2597C16.845 16.2457 16.8646 16.2401 16.8785 16.2499C16.8827 16.2527 16.8869 16.2555 16.8883 16.2597C16.9261 16.3226 16.9945 16.3603 17.0672 16.3603C17.1399 16.3603 17.2083 16.3226 17.2461 16.2597C17.2573 16.2415 17.2838 16.2401 17.2978 16.2569C17.3509 16.3226 17.4305 16.3603 17.5144 16.3603C17.5982 16.3603 17.6779 16.3226 17.731 16.2569C17.745 16.2387 17.7645 16.2415 17.7799 16.2569C17.833 16.3226 17.9113 16.3617 17.9965 16.3617C18.0734 16.3617 18.1418 16.331 18.1922 16.2806C18.2634 16.2094 18.29 16.1046 18.262 16.0081L18.2103 15.8153C18.1698 15.6755 18.2131 15.5204 18.3221 15.4226C18.4437 15.3052 18.5527 15.199 18.6142 15.0383H18.3892C18.1977 15.0383 18.0831 14.8287 18.1796 14.668L18.297 14.4639L18.2606 14.4374C18.0692 14.299 17.8847 14.1495 17.71 13.9902C17.5912 13.8882 17.4683 13.8127 17.3215 13.7568C17.1818 13.7051 17.0323 13.6758 16.8743 13.6758H16.8408L16.8422 13.6772Z" fill="#FED700"/>
<path fill-rule="evenodd" clip-rule="evenodd" d="M10.7199 13.2369C10.7129 13.2439 10.7087 13.2537 10.7087 13.2635C10.7087 13.2733 10.7129 13.2844 10.7199 13.2914C10.7269 13.2984 10.7381 13.3026 10.7479 13.3026C10.7577 13.3026 10.7674 13.2984 10.7758 13.2914L10.9952 13.072C11.0022 13.065 11.005 13.0553 11.005 13.0455C11.005 13.0357 11.0008 13.0245 10.9938 13.0175C10.9854 13.0091 10.9757 13.0063 10.9659 13.0063C10.9561 13.0063 10.9449 13.0105 10.9379 13.0175L10.7185 13.2369H10.7199Z" fill="#FED700"/>
<path fill-rule="evenodd" clip-rule="evenodd" d="M10.7171 13.0395C10.7087 13.0479 10.7059 13.0577 10.7059 13.0675C10.7059 13.0773 10.7101 13.0885 10.7171 13.0954C10.7255 13.1038 10.7353 13.1066 10.7451 13.1066C10.7548 13.1066 10.7646 13.1038 10.7716 13.0968L11.0064 12.8621C11.0134 12.8551 11.0162 12.8453 11.0162 12.8355C11.0162 12.8257 11.012 12.8146 11.005 12.8076C10.9966 12.7992 10.9868 12.7964 10.977 12.7964C10.9673 12.7964 10.9575 12.8006 10.9505 12.8062L10.7171 13.0395Z" fill="#FED700"/>
<path fill-rule="evenodd" clip-rule="evenodd" d="M10.7353 12.8189C10.7213 12.8342 10.7213 12.8594 10.7353 12.8748C10.7506 12.8901 10.7744 12.8901 10.7898 12.8762L11.0022 12.6638C11.0106 12.6554 11.0134 12.6456 11.0134 12.6358C11.0134 12.626 11.0092 12.6148 11.0022 12.6079C10.9938 12.5995 10.984 12.5967 10.9742 12.5967C10.9645 12.5967 10.9533 12.6009 10.9463 12.6079L10.7339 12.8203L10.7353 12.8189Z" fill="#FED700"/>
<path fill-rule="evenodd" clip-rule="evenodd" d="M10.629 12.8621L10.2224 12.7531C10.1777 12.742 10.1316 12.7671 10.1204 12.8118C10.1078 12.8565 10.1343 12.9027 10.1791 12.9138L10.5871 13.0228C10.6095 13.0284 10.6318 13.0242 10.65 13.0145C10.6682 13.0033 10.6836 12.9865 10.6891 12.9641C10.6947 12.9418 10.6919 12.9208 10.6822 12.9027C10.6682 12.8817 10.657 12.8691 10.6304 12.8621H10.629Z" fill="#FED700"/>
<path fill-rule="evenodd" clip-rule="evenodd" d="M10.6137 12.795C10.6612 12.8062 10.7088 12.7769 10.7227 12.7293C10.7353 12.6804 10.7074 12.6301 10.6584 12.6176L10.3119 12.5239C10.2867 12.5169 10.263 12.5211 10.242 12.5323C10.221 12.5435 10.2057 12.5631 10.1987 12.5882C10.1861 12.6371 10.2141 12.686 10.263 12.7L10.6151 12.7936L10.6137 12.795Z" fill="#FED700"/>
<path fill-rule="evenodd" clip-rule="evenodd" d="M10.6207 13.0968L10.256 12.9989C10.2364 12.9934 10.2154 12.9961 10.2001 13.0059C10.1833 13.0157 10.1707 13.0311 10.1651 13.0506C10.1596 13.0702 10.1623 13.0912 10.1721 13.1065C10.1819 13.1233 10.1973 13.1359 10.2168 13.1415L10.583 13.2393C10.6025 13.2449 10.6221 13.2407 10.6389 13.2323C10.6557 13.2225 10.6682 13.2072 10.6738 13.1876C10.6794 13.168 10.6766 13.1471 10.6668 13.1317C10.657 13.1149 10.6417 13.1024 10.6221 13.0968H10.6207Z" fill="#FED700"/>
<path fill-rule="evenodd" clip-rule="evenodd" d="M10.6542 13.3235L10.337 13.2383C10.3203 13.2341 10.3049 13.2369 10.2909 13.2439C10.2769 13.2523 10.2671 13.2648 10.263 13.2802C10.2546 13.3124 10.2727 13.3459 10.3063 13.3543L10.6235 13.4395C10.6403 13.4437 10.6556 13.4409 10.6696 13.4339C10.6836 13.4256 10.6934 13.413 10.6976 13.3976C10.7018 13.3808 10.7004 13.3655 10.692 13.3515C10.685 13.3389 10.671 13.3277 10.6556 13.3235H10.6542Z" fill="#FED700"/>
<path fill-rule="evenodd" clip-rule="evenodd" d="M10.7101 12.4584C10.8876 12.4584 11.1797 12.3326 11.1797 12.123C11.1797 12 11.0791 11.8994 10.9561 11.8994C10.889 11.8994 10.794 11.9316 10.794 12.0126C10.794 12.0545 10.8205 12.0909 10.8611 12.102C10.875 12.1062 10.8848 12.1202 10.8834 12.1356C10.8736 12.2292 10.7954 12.2991 10.7018 12.2991H10.3007C10.2071 12.2991 10.1288 12.2278 10.119 12.1356C10.1176 12.1202 10.1274 12.1062 10.1414 12.102C10.1805 12.0909 10.2085 12.0531 10.2085 12.0126C10.2085 11.933 10.1134 11.8994 10.0463 11.8994C9.92337 11.8994 9.82275 12 9.82275 12.123C9.82275 12.3312 10.1148 12.4584 10.2923 12.4584H10.7129H10.7101Z" fill="#FED700"/>
<path fill-rule="evenodd" clip-rule="evenodd" d="M10.5676 13.4895L10.3608 13.4336V13.5929C10.3608 13.6446 10.3188 13.6851 10.2671 13.6851C10.2392 13.6851 10.2126 13.6726 10.1945 13.6502C10.1805 13.632 10.1567 13.6223 10.1344 13.6223C10.0911 13.6223 10.0561 13.6572 10.0561 13.7019C10.0561 13.7466 10.0911 13.7802 10.1344 13.7802H10.3188C10.3398 13.7802 10.3552 13.7969 10.351 13.8179C10.33 13.9143 10.2783 14.0024 10.2029 14.068C10.235 14.1044 10.2602 14.1477 10.2797 14.1924C10.3021 14.2469 10.3147 14.3056 10.3147 14.3685C10.3147 14.4803 10.2741 14.5865 10.2015 14.6717C10.1959 14.6787 10.1875 14.6829 10.1777 14.6829C10.1609 14.6829 10.147 14.6689 10.147 14.6522C10.147 14.5963 10.1008 14.5502 10.0449 14.5502C9.98905 14.5502 9.94293 14.5963 9.94293 14.6522C9.94293 14.6843 9.95691 14.7123 9.98206 14.7318C10.0519 14.7905 10.1316 14.838 10.2182 14.8674C10.2406 14.873 10.249 14.9023 10.2322 14.9191L10.0729 15.0784C10.1442 15.091 10.2168 15.0994 10.2881 15.105C10.3049 15.105 10.3175 15.1203 10.3161 15.1357C10.3161 15.193 10.3258 15.2503 10.3608 15.2978C10.3873 15.3327 10.4223 15.3551 10.46 15.3551C10.4977 15.3551 10.5327 15.3327 10.5592 15.2978C10.5941 15.2503 10.6053 15.193 10.6039 15.1357C10.6039 15.1189 10.6165 15.105 10.6319 15.105C10.7045 15.0994 10.7758 15.091 10.8471 15.0784L10.6892 14.9191C10.6724 14.9023 10.6794 14.8744 10.7018 14.8674C10.7884 14.838 10.8681 14.7905 10.9379 14.7318C10.9631 14.7123 10.9771 14.6829 10.9771 14.6522C10.9771 14.5963 10.9323 14.5502 10.8764 14.5502C10.8205 14.5502 10.7744 14.5963 10.7744 14.6522C10.7744 14.6689 10.7604 14.6829 10.7437 14.6829C10.7339 14.6829 10.7255 14.6787 10.7199 14.6717C10.6473 14.5879 10.6067 14.4803 10.6067 14.3685C10.6067 14.3056 10.6193 14.2469 10.6417 14.1924C10.6612 14.1463 10.6864 14.1044 10.7185 14.068C10.6445 14.0024 10.5928 13.9157 10.5718 13.8179C10.5676 13.7969 10.583 13.7802 10.6039 13.7802H10.7884C10.8317 13.7802 10.8667 13.7452 10.8667 13.7019C10.8667 13.6586 10.8317 13.6223 10.7884 13.6223C10.7646 13.6223 10.7423 13.632 10.7283 13.6502C10.7101 13.6726 10.685 13.6851 10.6556 13.6851C10.6039 13.6851 10.562 13.6432 10.562 13.5929V13.4881L10.5676 13.4895Z" fill="#FED700"/>
<path fill-rule="evenodd" clip-rule="evenodd" d="M10.7004 12.2374C10.7535 12.2374 10.801 12.2025 10.8164 12.1508C10.7647 12.1242 10.7325 12.0711 10.7325 12.0124C10.7325 11.9453 10.7716 11.8978 10.8247 11.8699V8.84995C10.8247 8.45168 10.9128 8.06178 11.0819 7.70264C10.8164 7.93322 10.5984 8.2169 10.4418 8.53413C10.2714 8.88349 10.1749 9.27478 10.1749 9.68703V11.8671C10.228 11.895 10.2672 11.9425 10.2672 12.0096C10.2672 12.0683 10.235 12.1214 10.1833 12.148C10.1987 12.1997 10.2462 12.2346 10.2993 12.2346H10.7004V12.2374Z" fill="#FED700"/>
<path fill-rule="evenodd" clip-rule="evenodd" d="M11.9496 13.3989L10.998 12.4473C10.9043 12.4948 10.7981 12.5199 10.7101 12.5199H10.5382L10.6738 12.5563C10.7143 12.5674 10.7478 12.594 10.7674 12.6275C10.7772 12.6443 10.7828 12.6625 10.787 12.682L10.9057 12.5633C10.9253 12.5437 10.9519 12.5339 10.9784 12.5339C11.005 12.5339 11.0301 12.5437 11.0497 12.5633C11.0692 12.5828 11.079 12.6094 11.079 12.6359C11.079 12.6625 11.0692 12.6876 11.0497 12.7072L11.0161 12.7407C11.0287 12.7463 11.0399 12.7533 11.0497 12.7631C11.0692 12.7827 11.079 12.8092 11.079 12.8358C11.079 12.8623 11.0692 12.8861 11.0511 12.9056L11.0064 12.9504C11.0189 12.9559 11.0301 12.9629 11.0413 12.9727C11.0609 12.9923 11.0706 13.0188 11.0706 13.0454C11.0706 13.0719 11.0609 13.0957 11.0427 13.1153L11.0147 13.1432C11.0273 13.1488 11.0385 13.1558 11.0483 13.1656C11.0678 13.1851 11.0776 13.2117 11.0776 13.2382C11.0776 13.2648 11.0678 13.2885 11.0497 13.3081L10.9365 13.4227L11.1056 13.5918C11.1056 13.5918 11.114 13.6058 11.114 13.6141V14.0152C11.114 14.0851 11.1447 14.1508 11.1978 14.1969L11.202 14.1829C11.2258 14.1172 11.2886 14.0725 11.3599 14.0725C11.4032 14.0725 11.4466 14.0893 11.4787 14.1214L11.7903 14.4331C11.87 14.5127 11.9748 14.5532 12.081 14.5532C12.1872 14.5532 12.292 14.5127 12.3717 14.4331L12.5408 14.264C12.4457 14.1913 12.3591 14.1088 12.2822 14.018C12.1313 13.8405 12.0167 13.6309 11.9496 13.4003V13.3989Z" fill="#FED700"/>
<path fill-rule="evenodd" clip-rule="evenodd" d="M10.9477 13.21L10.766 13.3916C10.7521 13.407 10.7521 13.4322 10.766 13.4475C10.7828 13.4629 10.8066 13.4629 10.8233 13.4475L11.005 13.2659C11.012 13.2589 11.0148 13.2491 11.0148 13.2393C11.0148 13.2295 11.0106 13.2184 11.0036 13.2114C10.9952 13.203 10.9854 13.2002 10.9757 13.2002C10.9645 13.2002 10.9547 13.2044 10.9477 13.2114V13.21Z" fill="#FED700"/>
<path fill-rule="evenodd" clip-rule="evenodd" d="M13.0607 10.2C13.1585 10.3076 13.2395 10.4278 13.3038 10.5578C13.3262 10.5997 13.3164 10.6514 13.2843 10.6849C13.2577 10.7115 13.2186 10.7227 13.1823 10.7143C13.125 10.7017 13.0663 10.6919 13.0062 10.6863C12.9097 10.6765 12.8231 10.6765 12.7281 10.6793C12.7015 10.6821 12.6848 10.6514 12.7015 10.629C12.7351 10.5857 12.7658 10.541 12.7938 10.4949C12.6428 10.4935 12.4919 10.4781 12.3452 10.4488C12.1928 10.418 12.0433 10.3733 11.898 10.3146C11.8393 10.3006 11.7792 10.3356 11.7638 10.3929L11.6506 10.8177C11.7233 10.8177 11.796 10.8121 11.8672 10.7995C11.9511 10.7855 12.0335 10.7632 12.1132 10.7338C12.1216 10.731 12.1314 10.731 12.1397 10.7366C12.1551 10.745 12.1593 10.7646 12.1509 10.7786L12.0293 10.9882C12.0797 10.9784 12.1286 10.9658 12.1775 10.9504C12.2474 10.9295 12.3158 10.9043 12.3815 10.8736C12.3983 10.8666 12.4164 10.8722 12.4234 10.8904C12.4514 10.9602 12.5045 11.0189 12.5716 11.0539C12.5869 10.9952 12.6107 10.9379 12.6442 10.8862C12.6484 10.8806 12.654 10.875 12.661 10.8736C12.6778 10.868 12.6945 10.8778 12.6987 10.8946C12.7183 10.9588 12.7476 11.0175 12.7868 11.0706C12.8161 11.1112 12.8511 11.1475 12.8902 11.1796C12.9028 11.1321 12.9251 11.0818 12.9559 11.0413C13.0215 10.9574 13.1319 10.9351 13.2102 11.0133C13.2759 11.079 13.2731 11.188 13.2032 11.2495C13.1068 11.3389 12.9922 11.4186 12.8734 11.4745C12.5953 11.6045 12.3605 11.8127 12.197 12.0698C12.0377 12.3186 11.9469 12.6162 11.9469 12.9334C11.9469 13.3317 12.0908 13.6951 12.3298 13.976C12.5618 14.2499 12.8846 14.4441 13.2507 14.5154L13.2032 14.3393C13.1264 14.0696 13.1278 13.7789 13.2088 13.5106C13.213 13.4938 13.2312 13.4854 13.2479 13.4896C13.2647 13.4938 13.2731 13.512 13.2689 13.5288C13.1906 13.7859 13.1892 14.064 13.2633 14.3211C13.3569 14.6132 13.4548 15.0003 13.5246 15.3007C13.5316 15.3343 13.5358 15.3692 13.5358 15.4042C13.5358 15.5397 13.4813 15.6627 13.3919 15.7507C13.2773 15.8653 13.0956 15.924 12.9363 15.8821C12.7742 15.8402 12.6023 15.8863 12.4835 16.0051C12.3885 16.1015 12.3438 16.2203 12.3452 16.3544C12.3969 16.3614 12.4472 16.3544 12.4947 16.3279C12.5296 16.3083 12.559 16.2804 12.5799 16.2454C12.5925 16.2259 12.6205 16.2259 12.633 16.2454C12.6764 16.3153 12.7518 16.3572 12.8329 16.3572C12.9139 16.3572 12.9908 16.3153 13.0327 16.2454C13.0439 16.2273 13.0691 16.2259 13.083 16.2426C13.1417 16.3167 13.2312 16.3586 13.3248 16.3586C13.4184 16.3586 13.5065 16.3167 13.5666 16.2426C13.5777 16.2259 13.6029 16.2259 13.6155 16.2426C13.6742 16.3167 13.7622 16.3586 13.8558 16.3586C13.9411 16.3586 14.0179 16.3237 14.0724 16.2692C14.1283 16.2133 14.1619 16.1364 14.1619 16.0526C14.1619 16.0246 14.1577 15.9953 14.1507 15.9687L14.0808 15.7088C14.0766 15.6892 14.0864 15.6711 14.1074 15.6683C14.2471 15.6557 14.3771 15.6082 14.4861 15.5341C14.5881 15.4642 14.6733 15.372 14.7348 15.2644L14.4609 15.1917C14.3435 15.1624 14.2625 15.0576 14.2625 14.936C14.2625 14.8689 14.2835 14.8214 14.3212 14.7683C14.5056 14.5126 14.6622 14.2359 14.7851 13.9424C14.9067 13.6531 14.9962 13.3471 15.0493 13.0299C15.0521 13.0131 15.0674 13.0019 15.0842 13.0047C15.101 13.0075 15.1121 13.0229 15.1094 13.0397C15.0549 13.3625 14.9654 13.6727 14.8424 13.9662C14.7851 14.1017 14.7223 14.2345 14.6524 14.3617C14.7851 14.3211 14.9165 14.2736 15.0437 14.2191C15.2002 14.152 15.3357 14.0808 15.4839 13.9983C15.6907 13.8767 15.9157 13.7803 16.1519 13.7146C16.381 13.6503 16.6228 13.6154 16.8729 13.6126C17.0378 13.6126 17.1958 13.642 17.3411 13.6965C17.4767 13.7468 17.6443 13.8418 17.7506 13.941C17.9238 14.0975 18.1055 14.2457 18.297 14.384C18.487 14.5224 18.6855 14.6495 18.8895 14.7669C19.0404 14.8578 19.134 15.0185 19.134 15.1945V15.5663C19.134 15.6641 19.0935 15.7577 19.0208 15.8248C18.958 15.8835 18.8727 15.9198 18.7805 15.9198C18.5052 15.9198 18.2914 16.0582 18.2956 16.3544C18.3794 16.3642 18.4591 16.3279 18.5038 16.2552C18.5164 16.2356 18.5443 16.2356 18.5569 16.2552C18.596 16.3181 18.6631 16.3558 18.7358 16.3558C18.8084 16.3558 18.8769 16.3181 18.9146 16.2552C18.9258 16.237 18.9524 16.2356 18.9663 16.2524C19.0194 16.3181 19.0991 16.3558 19.183 16.3558C19.2668 16.3558 19.3479 16.3181 19.401 16.251C19.4121 16.237 19.4317 16.2356 19.4457 16.2468C19.5421 16.3251 19.6609 16.367 19.7853 16.367C19.8356 16.367 19.8859 16.36 19.9348 16.346C19.9348 16.244 19.8929 16.1462 19.8188 16.0763C19.728 15.9939 19.6777 15.8793 19.6777 15.7577C19.6777 15.5816 19.7839 15.4237 19.9474 15.358C20.0773 15.3035 20.1626 15.1834 20.1738 15.0436C19.7881 15.0548 19.6469 14.6467 19.6469 14.3253C19.6469 14.2023 19.6693 14.0808 19.7112 13.9648L20.0494 12.9921C20.171 12.64 20.1626 12.2473 20.0242 11.9007C19.9502 11.7149 19.8412 11.5458 19.7056 11.4032C19.6902 11.3879 19.6958 11.3627 19.7154 11.3543C19.9823 11.2369 20.15 10.9728 20.15 10.6821C20.1472 10.4865 20.0675 10.3076 19.939 10.179C19.8076 10.0477 19.6245 9.96524 19.4233 9.96524H18.916C18.6841 9.96524 18.4535 9.9876 18.2257 10.0351C18.0203 10.0812 17.6891 10.0714 17.4892 10.0114C17.3579 9.97223 17.2572 9.90655 17.2349 9.80313C17.2237 9.75422 17.2307 9.71509 17.2489 9.66898C17.179 9.66898 17.1119 9.68994 17.056 9.73186C17.0029 9.77239 16.9638 9.82968 16.9456 9.89676C16.9442 9.90375 16.94 9.90934 16.9344 9.91493C16.9205 9.92471 16.9009 9.92192 16.8911 9.90934C16.8422 9.84506 16.817 9.7668 16.817 9.68714C16.817 9.58792 16.8562 9.49849 16.9191 9.43281C16.9666 9.3825 17.0281 9.34616 17.0965 9.32939C17.0253 9.28048 16.9414 9.25393 16.8548 9.25393C16.6941 9.25393 16.5473 9.34477 16.4761 9.4887C16.4691 9.50408 16.4523 9.51106 16.4369 9.50408C16.3671 9.47613 16.3084 9.42861 16.2664 9.36852C16.1672 9.22319 16.1854 9.02475 16.3112 8.90037C16.3782 8.83329 16.4705 8.79277 16.5725 8.79277C16.6913 8.79277 16.8017 8.85006 16.8716 8.94649C16.8995 8.91854 16.9233 8.885 16.94 8.84867C16.9792 8.76482 16.9833 8.667 16.9526 8.58035C16.9428 8.55939 16.9596 8.53424 16.9833 8.53703C17.1273 8.54961 17.2572 8.61669 17.3495 8.71731C17.4417 8.81792 17.4976 8.95068 17.4976 9.09741C17.4976 9.21899 17.4585 9.33638 17.3858 9.4342C17.5116 9.42722 17.6262 9.37271 17.71 9.28747C17.8009 9.19663 17.8568 9.07086 17.8568 8.93251C17.8568 8.85006 17.8372 8.77041 17.7995 8.69774C17.7953 8.69075 17.7953 8.68237 17.7981 8.67398C17.8037 8.65721 17.8204 8.64883 17.8372 8.65442C17.9448 8.69075 18.037 8.76063 18.1027 8.85146C18.1656 8.9395 18.2033 9.04711 18.2033 9.16449C18.2033 9.2707 18.1726 9.37411 18.1125 9.46355C18.2844 9.42302 18.4297 9.30843 18.5122 9.15192C18.5233 9.13095 18.5541 9.12956 18.5667 9.15052C18.624 9.24694 18.705 9.3266 18.8 9.38529C18.8741 9.43001 18.958 9.46215 19.046 9.47613C18.9691 9.36153 18.9258 9.22878 18.9202 9.09182C18.9202 9.08484 18.9202 9.07645 18.9272 9.06947C18.9384 9.05549 18.9566 9.05409 18.9705 9.06388L19.6343 9.58653C19.7685 9.68714 19.9306 9.74164 20.0983 9.74164C20.3051 9.74164 20.4756 9.61727 20.4756 9.39927C20.4756 9.26092 20.3945 9.12397 20.2436 9.12397C20.1234 9.12397 20.0256 9.22179 20.0256 9.34197C20.0256 9.36712 20.0298 9.39088 20.0382 9.41464C20.0438 9.43141 20.0354 9.44958 20.0172 9.45377C19.9627 9.47054 19.9026 9.45936 19.8565 9.42582L19.1564 8.87382C18.8965 8.67398 18.5751 8.48812 18.2369 8.35676C17.9406 8.24217 17.6304 8.1709 17.3369 8.1709C17.0756 8.1709 16.8115 8.21422 16.5767 8.31763C16.3713 8.40847 16.1882 8.54262 16.0484 8.73408C16.0037 8.79417 15.9674 8.86124 15.9436 8.93391C15.9199 9.00518 15.9073 9.08065 15.9073 9.1589C15.9073 9.27629 15.9353 9.38669 15.9856 9.48451C16.0373 9.58513 16.1141 9.67317 16.2064 9.73745C16.2217 9.74863 16.2231 9.77099 16.2106 9.78497C16.1351 9.86462 16.0946 9.96803 16.0946 10.077C16.0946 10.1609 16.1197 10.2391 16.1616 10.3048C16.1896 10.3481 16.2245 10.3859 16.2664 10.4166C16.2623 10.3985 16.2609 10.3789 16.2609 10.3593C16.2609 10.2839 16.2916 10.2154 16.3419 10.1651C16.3922 10.1148 16.4607 10.084 16.5362 10.084C16.6242 10.084 16.7318 10.1273 16.8115 10.1637C17.0923 10.2992 17.3663 10.3523 17.6443 10.3579C17.9252 10.3649 18.2089 10.3244 18.5052 10.2727C18.6827 10.2419 18.8629 10.2266 19.0432 10.2266H19.3325C19.4596 10.2266 19.5742 10.2783 19.6581 10.3621C19.7419 10.446 19.7936 10.5606 19.7936 10.6877C19.7936 10.8862 19.6679 11.0315 19.4946 11.1349C19.2584 11.2761 18.9328 11.3348 18.7274 11.3348H15.8053C15.8668 11.406 15.938 11.4703 16.0163 11.522C16.0387 11.5374 16.0317 11.5709 16.0065 11.5779C15.9143 11.6031 15.8165 11.6156 15.72 11.6156C15.6669 11.6156 15.6124 11.6114 15.5593 11.6031V11.9007C15.5593 11.9203 15.544 11.9329 15.5244 11.9315C15.3539 11.9203 15.1904 11.8686 15.0437 11.7805C14.9486 11.8937 14.8313 11.986 14.6985 12.0503C14.6803 12.0586 14.6622 12.0489 14.6552 12.0307L14.5238 11.5388C14.4665 11.6841 14.3771 11.8155 14.2639 11.9217C14.2485 11.9357 14.2248 11.9315 14.215 11.9133L14.0752 11.6715C14.0529 11.7246 14.0263 11.775 13.9956 11.8211C13.9523 11.8867 13.8991 11.9468 13.8391 11.9985C13.8223 12.0139 13.7943 12.0055 13.7887 11.9832L13.7356 11.7833C13.7105 11.8322 13.6784 11.877 13.642 11.9175C13.5847 11.9804 13.5148 12.0307 13.438 12.067C13.4198 12.0754 13.4017 12.0656 13.3961 12.0475L13.3038 11.7037L13.0271 11.863C13.0034 11.877 12.974 11.8546 12.9824 11.8281C13.0062 11.7456 13.0397 11.6659 13.0816 11.5933C13.125 11.5192 13.1767 11.4507 13.2368 11.3893C13.2479 11.3767 13.2689 11.3767 13.2801 11.3893C13.2927 11.4018 13.2927 11.4214 13.2801 11.4326C13.2242 11.4899 13.1753 11.5542 13.1347 11.624C13.1082 11.6701 13.0858 11.7191 13.0663 11.7694L13.3066 11.631C13.3234 11.6198 13.3486 11.6282 13.3527 11.6492L13.445 11.9957C13.5023 11.965 13.554 11.9245 13.5973 11.877C13.649 11.8211 13.6881 11.7554 13.7133 11.6827C13.7161 11.6729 13.7245 11.6646 13.7356 11.6618C13.7524 11.6576 13.7692 11.6673 13.7734 11.6841L13.8363 11.9203C13.8768 11.8812 13.9131 11.8364 13.9453 11.7889C13.9858 11.7288 14.0179 11.6618 14.0417 11.5919C14.0445 11.5849 14.0487 11.5793 14.0557 11.5751C14.0696 11.5667 14.0892 11.5723 14.0976 11.5863L14.2513 11.8518C14.3687 11.733 14.4539 11.5863 14.5001 11.427C14.5029 11.4172 14.5112 11.4074 14.5224 11.4046C14.5392 11.4004 14.556 11.4102 14.5601 11.427L14.7083 11.9804C14.8271 11.9175 14.9319 11.8295 15.0157 11.7232C15.0255 11.7107 15.0437 11.7079 15.0562 11.7163C15.1904 11.8015 15.3427 11.8532 15.5006 11.8686V11.5681C15.5034 11.5486 15.516 11.5346 15.537 11.5374C15.5985 11.5486 15.66 11.5542 15.7228 11.5542C15.7913 11.5542 15.8612 11.5472 15.9283 11.5332C15.8528 11.4759 15.7857 11.4074 15.727 11.3334C15.5887 11.3208 15.4559 11.283 15.3357 11.2244C15.2253 11.1699 15.1247 11.0972 15.0381 11.0119L15.0031 11.1405C14.9976 11.1615 14.978 11.1671 14.9584 11.1601C14.8955 11.1335 14.8368 11.1014 14.7809 11.065C14.7809 11.0762 14.7809 11.086 14.7809 11.0972C14.7809 11.1503 14.7754 11.2034 14.7628 11.2537C14.7516 11.3054 14.7334 11.3557 14.7111 11.4018C14.7041 11.4172 14.6859 11.4242 14.6705 11.4158C14.665 11.413 14.6608 11.4088 14.658 11.4032C14.616 11.3306 14.5601 11.2663 14.4931 11.216C14.4372 11.1726 14.3743 11.1391 14.3058 11.1167C14.2974 11.2062 14.2723 11.2928 14.2303 11.3725C14.222 11.3879 14.2038 11.3934 14.1884 11.3851C14.1814 11.3809 14.1758 11.3739 14.1731 11.3669C14.1521 11.2984 14.1199 11.2355 14.078 11.1796C14.0431 11.1321 14.0012 11.0888 13.9537 11.0511C13.8894 11.1559 13.8027 11.2467 13.7021 11.318C13.6881 11.3278 13.6686 11.3236 13.6588 11.311C13.6546 11.304 13.6518 11.2956 13.6532 11.2872C13.6588 11.2579 13.6616 11.2271 13.6616 11.1964C13.6616 11.1489 13.6546 11.1014 13.642 11.0567C13.6294 11.0832 13.6141 11.1098 13.5987 11.1335C13.5666 11.181 13.526 11.2244 13.4813 11.2593C13.4645 11.2733 13.438 11.2649 13.4324 11.2439L13.3597 10.9742C13.3555 10.9574 13.3653 10.9407 13.3821 10.9365C13.3989 10.9323 13.4156 10.9421 13.4198 10.9588L13.4799 11.1796C13.5051 11.1559 13.5288 11.1279 13.5484 11.0986C13.5763 11.0567 13.5987 11.0105 13.6127 10.963C13.6141 10.9532 13.6211 10.9463 13.6294 10.9421C13.6448 10.9351 13.663 10.9421 13.67 10.956C13.7063 11.0315 13.7245 11.114 13.7245 11.1964V11.223C13.8013 11.1573 13.867 11.079 13.9173 10.991C13.9271 10.9742 13.9467 10.9686 13.962 10.9798C14.0263 11.0245 14.0822 11.079 14.1269 11.1419C14.1577 11.1838 14.1828 11.2285 14.2038 11.2761C14.2276 11.2118 14.2415 11.1433 14.2443 11.0762C14.2443 11.0553 14.2625 11.0399 14.2835 11.0455C14.3729 11.0706 14.4553 11.1112 14.528 11.1671C14.5853 11.2104 14.6356 11.2635 14.6761 11.3222C14.6859 11.2956 14.6943 11.2677 14.7013 11.2397C14.7111 11.1936 14.7167 11.1461 14.7167 11.0972C14.7167 11.0706 14.7153 11.0441 14.7125 11.0175C14.6538 10.9728 14.6007 10.9225 14.5518 10.8666L14.4749 10.9994C14.4665 11.0147 14.447 11.0189 14.433 11.0105C14.426 11.0063 14.4218 11.0008 14.419 10.9952C14.3925 10.9239 14.3561 10.8582 14.3114 10.7981C14.2737 10.7478 14.229 10.7017 14.18 10.6612L14.085 10.8261C14.0766 10.8414 14.0571 10.8456 14.0431 10.8373C13.9816 10.7995 13.9271 10.7534 13.8782 10.7017H13.8768C13.8293 10.6486 13.7874 10.5913 13.7524 10.5284C13.744 10.513 13.7496 10.4949 13.765 10.4865C13.7804 10.4781 13.7985 10.4837 13.8069 10.4991C13.8377 10.5564 13.8768 10.6095 13.9215 10.657H13.9229C13.9606 10.6989 14.004 10.7352 14.0487 10.766L14.1479 10.5941C14.1577 10.5801 14.1772 10.5773 14.1912 10.5885C14.2555 10.6374 14.3142 10.6947 14.3631 10.759C14.398 10.8065 14.4288 10.8582 14.4539 10.9127L14.5196 10.7981C14.5196 10.7981 14.5238 10.7911 14.528 10.7883C14.542 10.7772 14.5601 10.78 14.5713 10.7925C14.6258 10.8596 14.6887 10.9211 14.7586 10.9728C14.8187 11.0175 14.883 11.0567 14.95 11.0874L14.9892 10.9393C14.9892 10.9393 14.9934 10.9281 14.9976 10.9239C15.0101 10.9127 15.0297 10.9127 15.0409 10.9253C15.1303 11.0231 15.2379 11.1056 15.3581 11.1643C15.4559 11.2118 15.5621 11.2453 15.6739 11.2607C15.5803 11.1181 15.523 10.956 15.5034 10.7883C15.4573 10.759 15.414 10.7269 15.3721 10.6905C15.2729 10.6039 15.189 10.4991 15.1275 10.3817L15.0045 10.5941C14.9962 10.6095 14.9766 10.6137 14.9612 10.6053C14.9095 10.5731 14.862 10.5354 14.8187 10.4907L14.7097 10.6807C14.7013 10.6961 14.6817 10.7003 14.6664 10.6919C14.5643 10.629 14.4777 10.5396 14.4148 10.4376C14.4064 10.4236 14.4106 10.404 14.4246 10.3957C14.4386 10.3873 14.4581 10.3915 14.4665 10.4054C14.5182 10.4921 14.5881 10.5647 14.6705 10.622L14.774 10.4432C14.7474 10.411 14.7223 10.3761 14.7013 10.3398C14.6929 10.3244 14.6985 10.3062 14.7125 10.2978C14.7264 10.2894 14.746 10.2936 14.7544 10.309C14.7837 10.3593 14.8187 10.4054 14.8578 10.446C14.8899 10.4795 14.9263 10.5102 14.9654 10.5368L15.0996 10.3048C15.1107 10.2825 15.1443 10.2825 15.1555 10.3048C15.2156 10.4362 15.3036 10.5508 15.4112 10.6444C15.4992 10.7213 15.6013 10.7842 15.7131 10.8275C15.6879 10.7674 15.6669 10.7059 15.6516 10.643C15.632 10.562 15.6236 10.4767 15.6236 10.3929C15.5272 10.3272 15.4405 10.2447 15.3707 10.1511C15.3148 10.077 15.2673 9.99598 15.2323 9.90934C15.2198 9.99179 15.1918 10.07 15.1499 10.1413C15.1373 10.1623 15.1066 10.1609 15.0954 10.1399C15.0618 10.0756 15.0185 10.0169 14.9668 9.96943C14.9249 9.9303 14.876 9.89537 14.8243 9.86881C14.8089 9.95685 14.7754 10.0407 14.7264 10.1148C14.7153 10.1329 14.6943 10.1315 14.6789 10.1204L14.5448 9.9862C14.5294 10.0477 14.5029 10.105 14.4693 10.1581C14.4581 10.1763 14.4372 10.1749 14.4218 10.1637L14.3282 10.07C14.3226 10.1427 14.3058 10.2126 14.2765 10.2797C14.2681 10.2992 14.2415 10.3048 14.2262 10.2894L14.0417 10.105L13.9271 10.3034C13.9187 10.3174 13.9019 10.323 13.888 10.316C13.8223 10.2881 13.7622 10.2489 13.7105 10.2028C13.6574 10.1567 13.6113 10.1022 13.5749 10.0421C13.5666 10.0281 13.5707 10.0086 13.5847 10.0002C13.5987 9.99179 13.6183 9.99598 13.6266 10.01C13.6602 10.0659 13.7021 10.1148 13.751 10.1567C13.7929 10.193 13.8391 10.2238 13.888 10.2475L14.0068 10.0407C14.0151 10.0211 14.0417 10.0155 14.0571 10.0323L14.2373 10.2126C14.2625 10.1413 14.2695 10.0756 14.2681 10.0002C14.2653 9.97083 14.3002 9.95406 14.3212 9.97502L14.4386 10.0938C14.4679 10.0407 14.4875 9.98061 14.4973 9.92052C14.5015 9.89537 14.5322 9.88558 14.5504 9.90375L14.6971 10.0505C14.7376 9.97921 14.7614 9.90235 14.7712 9.8213C14.774 9.80174 14.7949 9.78916 14.8145 9.79615C14.8872 9.82829 14.9542 9.87161 15.0115 9.92471C15.0548 9.96524 15.0926 10.0114 15.1247 10.0617C15.1625 9.98061 15.1806 9.89257 15.1806 9.80313C15.1806 9.764 15.1764 9.72627 15.1694 9.68714C15.1666 9.67037 15.1778 9.6536 15.1946 9.65081C15.2114 9.64801 15.2281 9.65919 15.2309 9.67596C15.2603 9.83807 15.326 9.9876 15.4224 10.1134C15.509 10.228 15.6208 10.3244 15.7494 10.3943V9.47892C15.7494 9.34337 15.6893 9.2148 15.5859 9.12816C15.5719 9.11418 15.5677 9.09322 15.5859 9.07925C15.6767 9.00658 15.7508 8.91295 15.8025 8.80674C15.8444 8.7187 15.871 8.62088 15.878 8.51747C15.8374 8.56778 15.7927 8.6125 15.7424 8.65302C15.6935 8.69355 15.6222 8.71731 15.5593 8.71731C15.4867 8.71731 15.4028 8.68656 15.3525 8.63346C15.2379 8.50349 15.0814 8.41545 14.9109 8.38331C14.8941 8.48393 14.8578 8.58035 14.8061 8.66839C14.7963 8.68796 14.7684 8.69215 14.7544 8.67398C14.6873 8.58594 14.6007 8.51328 14.5029 8.46017C14.4176 8.41406 14.3226 8.38331 14.222 8.37213C14.2248 8.49371 14.208 8.60411 14.1633 8.71731C14.1563 8.73827 14.1283 8.74525 14.113 8.72849C13.9662 8.58455 13.7706 8.50489 13.5652 8.50489C13.4967 8.50489 13.4282 8.51328 13.3625 8.53144C13.3919 8.62927 13.3765 8.73128 13.3136 8.81513C13.2647 8.87801 13.192 8.92413 13.1068 8.93531L12.232 9.05409C12.2124 9.05409 12.1956 9.04291 12.197 9.02056C12.1998 8.9395 12.1789 8.86963 12.1188 8.81373C12.0741 8.77181 12.014 8.74665 11.9469 8.74665C11.8071 8.74665 11.6954 8.85985 11.6954 8.9982C11.6954 9.17288 11.7918 9.36713 11.9273 9.54321C12.0783 9.73885 12.2781 9.91214 12.45 10.0072V9.8744C12.45 9.84645 12.4849 9.83248 12.5045 9.85484C12.559 9.91912 12.6233 9.97502 12.6945 10.0197C12.7029 9.95406 12.7183 9.88838 12.7407 9.82549C12.749 9.80034 12.784 9.79754 12.7966 9.8213C12.872 9.95406 12.9629 10.0798 13.0663 10.1916L13.0607 10.2ZM15.4475 9.5991C15.435 9.58653 15.435 9.56696 15.4475 9.55578C15.4601 9.5432 15.4797 9.5432 15.4909 9.55578L15.6809 9.74584C15.6935 9.75841 15.6935 9.77798 15.6809 9.78916C15.6683 9.80174 15.6488 9.80174 15.6376 9.78916L15.4475 9.5991ZM13.4268 9.31542C13.41 9.31542 13.3961 9.30144 13.3961 9.28468C13.3961 9.26791 13.41 9.25393 13.4268 9.25393C13.5065 9.25393 13.5721 9.31821 13.5721 9.39927C13.5721 9.4887 13.5009 9.546 13.4142 9.546C13.3024 9.546 13.2116 9.45517 13.2116 9.34337C13.2116 9.23157 13.3024 9.14074 13.4142 9.14074C13.5079 9.14074 13.6211 9.18406 13.6979 9.23716C13.8586 9.34616 14.0459 9.40905 14.2401 9.41883C14.1996 9.36713 14.1675 9.30983 14.1437 9.24694C14.1339 9.22039 14.1619 9.19664 14.1856 9.20921C14.2639 9.24694 14.3463 9.27769 14.4316 9.29725C14.5154 9.31682 14.6035 9.3266 14.6929 9.3266C14.7544 9.3266 14.8159 9.32241 14.876 9.31262C14.8131 9.25393 14.7558 9.18965 14.7027 9.12117C14.6929 9.1072 14.6943 9.08763 14.7083 9.07785C14.7139 9.07366 14.7209 9.07086 14.7278 9.07226C14.869 9.07226 15.0045 9.0527 15.1345 9.01636C15.2687 8.97863 15.3944 8.92273 15.5118 8.85146C15.5258 8.84308 15.5454 8.84727 15.5537 8.86124C15.5621 8.87522 15.5579 8.89478 15.544 8.90317C15.4238 8.97723 15.291 9.03593 15.1513 9.07506C15.0353 9.1072 14.9151 9.12676 14.7893 9.13235C14.841 9.19524 14.8983 9.25253 14.9598 9.30703C14.9808 9.32241 14.9738 9.35595 14.9472 9.36153C14.8634 9.3797 14.7768 9.38809 14.6901 9.38809C14.5951 9.38809 14.5029 9.37691 14.4148 9.35594C14.3505 9.34057 14.289 9.32101 14.229 9.29725C14.2555 9.34477 14.2876 9.38948 14.3268 9.42861C14.3449 9.44818 14.3324 9.48032 14.3058 9.48172C14.0766 9.48451 13.8488 9.41604 13.6588 9.28747C13.5917 9.24135 13.4925 9.20222 13.41 9.20222C13.3318 9.20222 13.2689 9.26511 13.2689 9.34337C13.2689 9.42163 13.3318 9.48451 13.41 9.48451C13.4617 9.48451 13.5065 9.45517 13.5065 9.39927C13.5065 9.35315 13.4687 9.31542 13.4226 9.31542H13.4268Z" fill="#FED700"/>
<path fill-rule="evenodd" clip-rule="evenodd" d="M10.1861 7.38569C10.2657 7.46674 10.3314 7.55897 10.3803 7.66099C10.3929 7.68754 10.432 7.68055 10.4348 7.6526C10.4544 7.51565 10.4418 7.3759 10.3971 7.24594C10.3356 7.06008 10.2965 6.86862 10.2797 6.67438C10.2643 6.48991 10.1903 6.28588 10.0575 6.15312C9.9052 6.0008 9.66484 5.97425 9.48317 6.09164C9.4119 6.13636 9.32386 6.14614 9.2456 6.11959C9.22184 6.1112 9.20088 6.13356 9.20927 6.15732C9.23722 6.23697 9.22743 6.32501 9.18132 6.39489C9.06533 6.57656 9.08908 6.81552 9.24281 6.96924C9.32246 7.0489 9.42727 7.09641 9.54046 7.1034C9.78502 7.11458 10.0142 7.2152 10.1875 7.38848L10.1861 7.38569Z" fill="black"/>
<path fill-rule="evenodd" clip-rule="evenodd" d="M10.2294 7.34506C10.045 7.1606 9.80319 7.05299 9.54326 7.04181C9.44544 7.03622 9.35461 6.9957 9.28473 6.92722C9.15058 6.79307 9.12682 6.58624 9.22883 6.42553C9.27495 6.35426 9.29172 6.26902 9.27635 6.18517C9.3588 6.20054 9.44404 6.18517 9.51531 6.13905C9.67323 6.03564 9.88285 6.0594 10.017 6.19216C10.14 6.31374 10.2085 6.50519 10.2224 6.67568C10.2392 6.87552 10.2797 7.07256 10.3426 7.26261C10.3734 7.35345 10.3887 7.44987 10.3859 7.5463C10.3426 7.47223 10.2895 7.40515 10.2294 7.34506Z" fill="#FED700"/>
<path fill-rule="evenodd" clip-rule="evenodd" d="M20.449 7.38569C20.3694 7.46674 20.3037 7.55897 20.2548 7.66099C20.2422 7.68754 20.2031 7.68055 20.2003 7.6526C20.1807 7.51565 20.1933 7.3759 20.238 7.24594C20.2995 7.06008 20.3386 6.86862 20.3554 6.67438C20.3708 6.48991 20.4448 6.28588 20.5776 6.15312C20.7299 6.0008 20.9703 5.97425 21.1519 6.09164C21.2232 6.13636 21.3113 6.14614 21.3895 6.11959C21.4133 6.1112 21.4342 6.13356 21.4272 6.15732C21.3993 6.23697 21.4091 6.32501 21.4552 6.39489C21.5712 6.57656 21.5474 6.81552 21.3937 6.96924C21.3141 7.0489 21.2092 7.09641 21.096 7.1034C20.8515 7.11458 20.6223 7.2152 20.449 7.38848V7.38569Z" fill="black"/>
<path fill-rule="evenodd" clip-rule="evenodd" d="M20.4057 7.34506C20.5902 7.1606 20.832 7.05299 21.0919 7.04181C21.1897 7.03622 21.2806 6.9957 21.3504 6.92722C21.4846 6.79307 21.5083 6.58624 21.4063 6.42553C21.3602 6.35426 21.3434 6.26902 21.3588 6.18517C21.2764 6.20054 21.1911 6.18517 21.1198 6.13905C20.9619 6.03564 20.7523 6.0594 20.6182 6.19216C20.4952 6.31374 20.4267 6.50519 20.4127 6.67568C20.396 6.87552 20.3554 7.07256 20.2925 7.26261C20.2618 7.35345 20.2464 7.44987 20.2492 7.5463C20.2925 7.47223 20.3457 7.40515 20.4057 7.34506Z" fill="#FED700"/>
<path fill-rule="evenodd" clip-rule="evenodd" d="M10.1861 16.6044C10.2657 16.5234 10.3314 16.4312 10.3803 16.3291C10.3929 16.3026 10.432 16.3096 10.4348 16.3375C10.4544 16.4745 10.4418 16.6142 10.3971 16.7442C10.3356 16.9301 10.2965 17.1215 10.2797 17.3158C10.2643 17.5002 10.1903 17.7042 10.0575 17.837C9.9052 17.9893 9.66484 18.0159 9.48317 17.8985C9.4119 17.8538 9.32386 17.844 9.2456 17.8705C9.22184 17.8789 9.20088 17.8566 9.20927 17.8328C9.23722 17.7532 9.22743 17.6651 9.18132 17.5952C9.06533 17.4136 9.08908 17.1746 9.24281 17.0209C9.32246 16.9412 9.42727 16.8937 9.54046 16.8867C9.78502 16.8756 10.0142 16.7749 10.1875 16.6017L10.1861 16.6044Z" fill="black"/>
<path fill-rule="evenodd" clip-rule="evenodd" d="M10.2294 16.6437C10.045 16.8281 9.80319 16.9358 9.54326 16.9469C9.44544 16.9525 9.35461 16.993 9.28473 17.0615C9.15058 17.1957 9.12682 17.4025 9.22883 17.5632C9.27495 17.6345 9.29172 17.7197 9.27635 17.8036C9.3588 17.7882 9.44404 17.8036 9.51531 17.8497C9.67323 17.9517 9.88285 17.9293 10.017 17.7966C10.14 17.675 10.2085 17.4822 10.2224 17.3131C10.2392 17.1132 10.2797 16.9162 10.3426 16.7275C10.3734 16.6353 10.3887 16.5403 10.3859 16.4438C10.3426 16.5179 10.2895 16.585 10.2294 16.6451V16.6437Z" fill="#FED700"/>
<path fill-rule="evenodd" clip-rule="evenodd" d="M20.449 16.6044C20.3694 16.5234 20.3037 16.4312 20.2548 16.3291C20.2422 16.3026 20.2031 16.3096 20.2003 16.3375C20.1807 16.4745 20.1933 16.6142 20.238 16.7442C20.2995 16.9301 20.3386 17.1215 20.3554 17.3158C20.3708 17.5002 20.4448 17.7042 20.5776 17.837C20.7299 17.9893 20.9703 18.0159 21.1519 17.8985C21.2232 17.8538 21.3113 17.844 21.3895 17.8705C21.4133 17.8789 21.4342 17.8566 21.4272 17.8328C21.3993 17.7532 21.4091 17.6651 21.4552 17.5952C21.5712 17.4136 21.5474 17.1746 21.3937 17.0209C21.3141 16.9412 21.2092 16.8937 21.096 16.8867C20.8515 16.8756 20.6223 16.7749 20.449 16.6017V16.6044Z" fill="black"/>
<path fill-rule="evenodd" clip-rule="evenodd" d="M20.4057 16.6437C20.5902 16.8281 20.832 16.9358 21.0919 16.9469C21.1897 16.9525 21.2806 16.993 21.3504 17.0615C21.4846 17.1957 21.5083 17.4025 21.4063 17.5632C21.3602 17.6345 21.3434 17.7197 21.3588 17.8036C21.2764 17.7882 21.1911 17.8036 21.1198 17.8497C20.9619 17.9517 20.7523 17.9293 20.6182 17.7966C20.4952 17.675 20.4267 17.4822 20.4127 17.3131C20.396 17.1132 20.3554 16.9162 20.2925 16.7275C20.2618 16.6353 20.2464 16.5403 20.2492 16.4438C20.2925 16.5179 20.3457 16.585 20.4057 16.6451V16.6437Z" fill="#FED700"/>
</g>
</g>
<rect x="0.25" y="0.25" width="23.5" height="23.5" rx="11.75" stroke="#E5E3E1" stroke-width="0.5"/>
<defs>
<clipPath id="clip0_16335_2641">
<rect width="24" height="24" rx="12" fill="white"/>
</clipPath>
</defs>
</svg>
