<svg width="24" height="24" viewBox="0 0 24 24" fill="none" xmlns="http://www.w3.org/2000/svg">
<g clip-path="url(#clip0_16335_5343)">
<path d="M23.8449 13.9238C24.9068 7.382 20.4644 1.218 13.9226 0.156118C7.38083 -0.905765 1.21683 3.53658 0.154948 10.0784C-0.906935 16.6202 3.53541 22.7842 10.0772 23.846C16.619 24.9079 22.783 20.4656 23.8449 13.9238Z" fill="white"/>
<mask id="mask0_16335_5343" style="mask-type:luminance" maskUnits="userSpaceOnUse" x="-1" y="-1" width="26" height="26">
<path d="M23.8449 13.9238C24.9068 7.382 20.4644 1.218 13.9226 0.156118C7.38083 -0.905765 1.21683 3.53658 0.154948 10.0784C-0.906935 16.6202 3.53541 22.7842 10.0772 23.846C16.619 24.9079 22.783 20.4656 23.8449 13.9238Z" fill="white"/>
</mask>
<g mask="url(#mask0_16335_5343)">
<path d="M31.3926 3.27417H5.21393V20.7271H31.3926V3.27417Z" fill="white"/>
<path fill-rule="evenodd" clip-rule="evenodd" d="M19.032 20.7271H5.21393V3.27417L20.7355 12.2361H10.5411L19.032 20.7271Z" fill="#003399"/>
<path fill-rule="evenodd" clip-rule="evenodd" d="M17.7771 20.2073L9.28611 11.7163H18.7958L5.73376 4.17419V20.2073H17.7771Z" fill="#FF0000"/>
<path fill-rule="evenodd" clip-rule="evenodd" d="M7.60639 17.0825L6.55969 17.2111L7.19414 16.367L6.2229 15.9548L7.19414 15.5411L6.55969 14.6985L7.60639 14.8256L7.47922 13.7789L8.32189 14.4134L8.73554 13.4421L9.14779 14.4134L9.99046 13.7789L9.86329 14.8256L10.91 14.6985L10.2769 15.5411L11.2468 15.9548L10.2769 16.367L10.91 17.2111L9.86329 17.0825L9.99046 18.1292L9.14779 17.4962L8.73554 18.466L8.32189 17.4962L7.47922 18.1292L7.60639 17.0825Z" fill="white"/>
<path fill-rule="evenodd" clip-rule="evenodd" d="M11.1392 8.8389V8.87523C11.1392 10.2028 10.0631 11.2803 8.73413 11.2803C7.40515 11.2803 6.3291 10.2028 6.3291 8.87523V8.8389C6.54431 9.3923 6.94398 9.85346 7.45406 10.1455L7.64411 9.99181L7.23745 9.69694L7.71818 9.56139L7.46105 9.13097L7.95575 9.19525L7.89007 8.69776L8.31909 8.95349L8.45464 8.46997L8.74811 8.87384L9.04157 8.46997L9.17713 8.95349L9.60615 8.69776L9.54047 9.19525L10.0352 9.13097L9.77804 9.56139L10.2588 9.69694L9.8521 9.99181L10.0324 10.1385C10.5355 9.84647 10.9309 9.3881 11.1434 8.8403L11.1392 8.8389Z" fill="white"/>
</g>
</g>
<rect x="0.25" y="0.25" width="23.5" height="23.5" rx="11.75" stroke="#E5E3E1" stroke-width="0.5"/>
<defs>
<clipPath id="clip0_16335_5343">
<rect width="24" height="24" rx="12" fill="white"/>
</clipPath>
</defs>
</svg>
