<svg width="24" height="24" viewBox="0 0 24 24" fill="none" xmlns="http://www.w3.org/2000/svg">
<g clip-path="url(#clip0_16335_6744)">
<path d="M23.6789 14.7567C25.2013 8.30653 21.2066 1.84347 14.7564 0.321091C8.30617 -1.20129 1.84311 2.79349 0.320729 9.24368C-1.20165 15.6939 2.79312 22.1569 9.24332 23.6793C15.6935 25.2017 22.1566 21.2069 23.6789 14.7567Z" fill="white"/>
<mask id="mask0_16335_6744" style="mask-type:luminance" maskUnits="userSpaceOnUse" x="-1" y="-1" width="26" height="26">
<path d="M23.6789 14.7567C25.2013 8.30653 21.2066 1.84347 14.7564 0.321091C8.30617 -1.20129 1.84311 2.79349 0.320729 9.24368C-1.20165 15.6939 2.79312 22.1569 9.24332 23.6793C15.6935 25.2017 22.1566 21.2069 23.6789 14.7567Z" fill="white"/>
</mask>
<g mask="url(#mask0_16335_6744)">
<path d="M29.9993 8.00049H-6.00073V16.001H29.9993V8.00049Z" fill="white"/>
<path d="M29.9993 0H-6.00073V8.00047H29.9993V0Z" fill="#FF6600"/>
<path d="M29.9993 16.0009H-6.00073V24.0014H29.9993V16.0009Z" fill="#007C29"/>
<path fill-rule="evenodd" clip-rule="evenodd" d="M11.9986 11.4396C12.3074 11.4396 12.5589 11.6912 12.5589 12C12.5589 12.3089 12.3074 12.5604 11.9986 12.5604C11.6897 12.5604 11.4382 12.3089 11.4382 12C11.4382 11.6912 11.6897 11.4396 11.9986 11.4396Z" fill="#003399"/>
<path fill-rule="evenodd" clip-rule="evenodd" d="M12.088 10.8499L11.9986 9.18414L11.9091 10.8499L11.9986 11.6395L12.088 10.8499Z" fill="#003399"/>
<path fill-rule="evenodd" clip-rule="evenodd" d="M12.088 13.1515L11.9986 14.8159L11.9091 13.1515L11.9986 12.3605L12.088 13.1515Z" fill="#003399"/>
<path fill-rule="evenodd" clip-rule="evenodd" d="M11.7876 10.8652L11.2705 9.28052L11.6143 10.9114L11.905 11.652L11.7876 10.8652Z" fill="#003399"/>
<path fill-rule="evenodd" clip-rule="evenodd" d="M12.3829 13.0886L12.7281 14.7208L12.211 13.1347L12.0922 12.348L12.3829 13.0886Z" fill="#003399"/>
<path fill-rule="evenodd" clip-rule="evenodd" d="M11.5011 10.9589L10.5913 9.5614L11.3459 11.0483L11.8183 11.6883L11.5011 10.9589Z" fill="#003399"/>
<path fill-rule="evenodd" clip-rule="evenodd" d="M12.6512 12.9531L13.4072 14.4386L12.4975 13.0411L12.1788 12.3116L12.6512 12.9531Z" fill="#003399"/>
<path fill-rule="evenodd" clip-rule="evenodd" d="M11.2481 11.1238L10.0072 10.0086L11.121 11.2496L11.7442 11.7457L11.2481 11.1238Z" fill="#003399"/>
<path fill-rule="evenodd" clip-rule="evenodd" d="M12.8762 12.7504L13.99 13.9914L12.749 12.8776L12.2529 12.2543L12.8762 12.7504Z" fill="#003399"/>
<path fill-rule="evenodd" clip-rule="evenodd" d="M11.0469 11.3474L9.56 10.5928L10.9575 11.5025L11.6869 11.8197L11.0469 11.3474Z" fill="#003399"/>
<path fill-rule="evenodd" clip-rule="evenodd" d="M13.0397 12.4989L14.4371 13.4087L12.9502 12.6526L12.3102 12.1803L13.0397 12.4989Z" fill="#003399"/>
<path fill-rule="evenodd" clip-rule="evenodd" d="M10.91 11.6157L9.27911 11.2719L10.8638 11.789L11.6506 11.9064L10.91 11.6157Z" fill="#003399"/>
<path fill-rule="evenodd" clip-rule="evenodd" d="M13.1333 12.2124L14.7194 12.7295L13.0872 12.3843L12.3466 12.0936L13.1333 12.2124Z" fill="#003399"/>
<path fill-rule="evenodd" clip-rule="evenodd" d="M10.8471 11.9106L9.18268 12L10.8471 12.0895L11.638 12L10.8471 11.9106Z" fill="#003399"/>
<path fill-rule="evenodd" clip-rule="evenodd" d="M13.1501 11.9106L14.8145 12L13.1501 12.0895L12.3591 12L13.1501 11.9106Z" fill="#003399"/>
<path fill-rule="evenodd" clip-rule="evenodd" d="M10.8638 12.2124L9.27911 12.7295L10.91 12.3843L11.6506 12.0936L10.8638 12.2124Z" fill="#003399"/>
<path fill-rule="evenodd" clip-rule="evenodd" d="M13.0872 11.6157L14.7194 11.2719L13.1333 11.789L12.3466 11.9064L13.0872 11.6157Z" fill="#003399"/>
<path fill-rule="evenodd" clip-rule="evenodd" d="M10.9575 12.4989L9.56 13.4087L11.0469 12.6526L11.6869 12.1803L10.9575 12.4989Z" fill="#003399"/>
<path fill-rule="evenodd" clip-rule="evenodd" d="M12.9502 11.3474L14.4371 10.5928L13.0397 11.5025L12.3102 11.8197L12.9502 11.3474Z" fill="#003399"/>
<path fill-rule="evenodd" clip-rule="evenodd" d="M11.121 12.7504L10.0072 13.9914L11.2481 12.8776L11.7442 12.2543L11.121 12.7504Z" fill="#003399"/>
<path fill-rule="evenodd" clip-rule="evenodd" d="M12.749 11.1238L13.99 10.0086L12.8762 11.2496L12.2529 11.7457L12.749 11.1238Z" fill="#003399"/>
<path fill-rule="evenodd" clip-rule="evenodd" d="M11.3459 12.9531L10.5913 14.4386L11.5011 13.0411L11.8183 12.3116L11.3459 12.9531Z" fill="#003399"/>
<path fill-rule="evenodd" clip-rule="evenodd" d="M12.4975 10.9589L13.4072 9.5614L12.6512 11.0483L12.1788 11.6883L12.4975 10.9589Z" fill="#003399"/>
<path fill-rule="evenodd" clip-rule="evenodd" d="M11.6143 13.0886L11.2705 14.7208L11.7876 13.1347L11.905 12.348L11.6143 13.0886Z" fill="#003399"/>
<path fill-rule="evenodd" clip-rule="evenodd" d="M12.211 10.8652L12.7281 9.28052L12.3829 10.9114L12.0922 11.652L12.211 10.8652Z" fill="#003399"/>
<path fill-rule="evenodd" clip-rule="evenodd" d="M11.9986 8.72852C13.8055 8.72852 15.27 10.1931 15.27 12C15.27 13.8069 13.8055 15.2714 11.9986 15.2714C10.1917 15.2714 8.72711 13.8069 8.72711 12C8.72711 10.1931 10.1917 8.72852 11.9986 8.72852ZM11.9986 9.13378C10.4152 9.13378 9.13238 10.4166 9.13238 12C9.13238 13.5833 10.4152 14.8662 11.9986 14.8662C13.5819 14.8662 14.8648 13.5833 14.8648 12C14.8648 10.4166 13.5819 9.13378 11.9986 9.13378Z" fill="#003399"/>
<path fill-rule="evenodd" clip-rule="evenodd" d="M12.3717 9.0108C12.2921 9.0108 12.225 9.07648 12.225 9.15754C12.225 9.23859 12.2907 9.30427 12.3717 9.30427C12.4528 9.30427 12.5184 9.23999 12.5184 9.15754C12.5184 9.07509 12.4528 9.0108 12.3717 9.0108Z" fill="#003399"/>
<path fill-rule="evenodd" clip-rule="evenodd" d="M11.6254 14.9891C11.7051 14.9891 11.7722 14.9235 11.7722 14.8424C11.7722 14.7614 11.7065 14.6957 11.6254 14.6957C11.5444 14.6957 11.4787 14.76 11.4787 14.8424C11.4787 14.9249 11.5444 14.9891 11.6254 14.9891Z" fill="#003399"/>
<path fill-rule="evenodd" clip-rule="evenodd" d="M11.5877 9.01641C11.5095 9.03737 11.4619 9.11842 11.4843 9.19668C11.5053 9.27494 11.5849 9.32106 11.6632 9.30009C11.7414 9.27913 11.7889 9.19808 11.7666 9.11982C11.7456 9.04156 11.666 8.99545 11.5877 9.01641Z" fill="#003399"/>
<path fill-rule="evenodd" clip-rule="evenodd" d="M12.4108 14.9836C12.4891 14.9626 12.5366 14.8815 12.5142 14.8033C12.4932 14.725 12.4136 14.6789 12.3353 14.6999C12.2571 14.7208 12.2096 14.8019 12.2319 14.8802C12.2529 14.9584 12.3325 15.0045 12.4108 14.9836Z" fill="#003399"/>
<path fill-rule="evenodd" clip-rule="evenodd" d="M10.8289 9.22602C10.759 9.26655 10.7338 9.35599 10.7758 9.42586C10.8163 9.49713 10.9057 9.52089 10.977 9.48036C11.0469 9.43983 11.0706 9.349 11.0301 9.27913C10.9896 9.20925 10.8987 9.1841 10.8289 9.22602Z" fill="#003399"/>
<path fill-rule="evenodd" clip-rule="evenodd" d="M13.1683 14.7753C13.2381 14.7348 13.2633 14.6454 13.2214 14.5755C13.1809 14.5042 13.0914 14.4805 13.0201 14.521C12.9503 14.5615 12.9265 14.6524 12.967 14.7222C13.0076 14.7921 13.0984 14.8173 13.1683 14.7753Z" fill="#003399"/>
<path fill-rule="evenodd" clip-rule="evenodd" d="M10.1497 9.62293C10.0924 9.68022 10.0924 9.77246 10.1497 9.82975C10.207 9.88705 10.2993 9.88705 10.3565 9.82975C10.4138 9.77246 10.4138 9.68022 10.3565 9.62293C10.2993 9.56563 10.207 9.56563 10.1497 9.62293Z" fill="#003399"/>
<path fill-rule="evenodd" clip-rule="evenodd" d="M13.8474 14.3771C13.9047 14.3198 13.9047 14.2261 13.8474 14.1702C13.7901 14.1129 13.6979 14.1129 13.6406 14.1702C13.5833 14.2275 13.5833 14.3198 13.6406 14.3771C13.6965 14.4343 13.7901 14.4343 13.8474 14.3771Z" fill="#003399"/>
<path fill-rule="evenodd" clip-rule="evenodd" d="M9.59771 10.1819C9.55719 10.2532 9.58094 10.3426 9.65082 10.3831C9.72209 10.4236 9.81153 10.3999 9.85205 10.33C9.89258 10.2601 9.86882 10.1707 9.79895 10.1288C9.72908 10.0883 9.63964 10.112 9.59771 10.1819Z" fill="#003399"/>
<path fill-rule="evenodd" clip-rule="evenodd" d="M14.3994 13.8181C14.4399 13.7468 14.4162 13.6574 14.3463 13.6169C14.275 13.5764 14.1856 13.6001 14.1451 13.67C14.1046 13.7399 14.1283 13.8293 14.1982 13.8712C14.2681 13.9117 14.3575 13.888 14.3994 13.8181Z" fill="#003399"/>
<path fill-rule="evenodd" clip-rule="evenodd" d="M9.20922 10.8652C9.18826 10.9435 9.23437 11.0246 9.31263 11.0455C9.39089 11.0665 9.47054 11.0204 9.4929 10.9421C9.51386 10.8639 9.46775 10.7842 9.38949 10.7632C9.31123 10.7423 9.23158 10.7884 9.20922 10.8666V10.8652Z" fill="#003399"/>
<path fill-rule="evenodd" clip-rule="evenodd" d="M14.7893 13.1347C14.8103 13.0565 14.7641 12.9754 14.6859 12.9545C14.6076 12.9335 14.528 12.9796 14.5056 13.0579C14.4846 13.1361 14.5308 13.2158 14.609 13.2367C14.6873 13.2577 14.7669 13.2116 14.7893 13.1333V13.1347Z" fill="#003399"/>
<path fill-rule="evenodd" clip-rule="evenodd" d="M9.0094 11.6269C9.0094 11.7066 9.07508 11.7736 9.15613 11.7736C9.23718 11.7736 9.30287 11.7079 9.30287 11.6269C9.30287 11.5458 9.23858 11.4802 9.15613 11.4802C9.07368 11.4802 9.0094 11.5458 9.0094 11.6269Z" fill="#003399"/>
<path fill-rule="evenodd" clip-rule="evenodd" d="M14.9877 12.3731C14.9877 12.2935 14.9221 12.2264 14.841 12.2264C14.76 12.2264 14.6943 12.2921 14.6943 12.3731C14.6943 12.4542 14.7586 12.5198 14.841 12.5198C14.9235 12.5198 14.9877 12.4542 14.9877 12.3731Z" fill="#003399"/>
<path fill-rule="evenodd" clip-rule="evenodd" d="M9.015 12.4123C9.03736 12.4905 9.11702 12.538 9.19528 12.5157C9.27353 12.4947 9.31965 12.4151 9.29869 12.3368C9.27633 12.2585 9.19667 12.211 9.11842 12.2334C9.04016 12.2543 8.99404 12.334 9.015 12.4123Z" fill="#003399"/>
<path fill-rule="evenodd" clip-rule="evenodd" d="M14.9822 11.5892C14.9598 11.5109 14.8801 11.4634 14.8019 11.4858C14.7236 11.5067 14.6775 11.5864 14.6985 11.6646C14.7194 11.7429 14.8005 11.7904 14.8787 11.768C14.957 11.7471 15.0031 11.6674 14.9822 11.5892Z" fill="#003399"/>
<path fill-rule="evenodd" clip-rule="evenodd" d="M9.22462 13.1711C9.26514 13.241 9.35458 13.2661 9.42445 13.2242C9.49573 13.1837 9.51948 13.0942 9.47896 13.023C9.43843 12.9531 9.34759 12.9293 9.27772 12.9698C9.20785 13.0104 9.18269 13.0998 9.22462 13.1711Z" fill="#003399"/>
<path fill-rule="evenodd" clip-rule="evenodd" d="M14.7739 10.8303C14.7334 10.7605 14.644 10.7353 14.5741 10.7772C14.5028 10.8178 14.4791 10.9072 14.5196 10.9785C14.5601 11.0483 14.651 11.0721 14.7208 11.0316C14.7907 10.991 14.8159 10.9016 14.7739 10.8303Z" fill="#003399"/>
<path fill-rule="evenodd" clip-rule="evenodd" d="M9.62146 13.8489C9.67876 13.9062 9.77099 13.9062 9.82829 13.8489C9.88558 13.7916 9.88558 13.6993 9.82829 13.642C9.77099 13.5847 9.67876 13.5847 9.62146 13.642C9.56417 13.6993 9.56417 13.7916 9.62146 13.8489Z" fill="#003399"/>
<path fill-rule="evenodd" clip-rule="evenodd" d="M14.3757 10.1512C14.3184 10.0939 14.2261 10.0939 14.1688 10.1512C14.1115 10.2085 14.1115 10.3007 14.1688 10.358C14.2247 10.4153 14.3184 10.4153 14.3757 10.358C14.4329 10.3007 14.4329 10.2085 14.3757 10.1512Z" fill="#003399"/>
<path fill-rule="evenodd" clip-rule="evenodd" d="M10.1805 14.4008C10.2518 14.4413 10.3412 14.4176 10.3817 14.3477C10.4222 14.2764 10.3985 14.187 10.3286 14.1465C10.2587 14.106 10.1693 14.1297 10.1274 14.1996C10.0869 14.2695 10.1106 14.3589 10.1805 14.4008Z" fill="#003399"/>
<path fill-rule="evenodd" clip-rule="evenodd" d="M13.8166 9.59918C13.7454 9.55865 13.6559 9.58241 13.6154 9.65228C13.5749 9.72355 13.5986 9.81299 13.6685 9.85352C13.7384 9.89404 13.8278 9.87029 13.8698 9.80041C13.9103 9.73054 13.8865 9.6411 13.8166 9.59918Z" fill="#003399"/>
<path fill-rule="evenodd" clip-rule="evenodd" d="M10.8638 14.7908C10.9421 14.8117 11.0232 14.7656 11.0441 14.6873C11.0651 14.6091 11.019 14.5294 10.9407 14.5071C10.8624 14.4861 10.7828 14.5322 10.7618 14.6105C10.7409 14.6887 10.787 14.7684 10.8652 14.7908H10.8638Z" fill="#003399"/>
<path fill-rule="evenodd" clip-rule="evenodd" d="M13.1333 9.21068C13.0551 9.18972 12.974 9.23584 12.9531 9.31409C12.9321 9.39235 12.9782 9.47201 13.0565 9.49437C13.1347 9.51533 13.2144 9.46921 13.2353 9.39095C13.2563 9.3127 13.2102 9.23304 13.1319 9.21068H13.1333Z" fill="#003399"/>
</g>
</g>
<rect x="0.25" y="0.25" width="23.5" height="23.5" rx="11.75" stroke="#E5E3E1" stroke-width="0.5"/>
<defs>
<clipPath id="clip0_16335_6744">
<rect width="24" height="24" rx="12" fill="white"/>
</clipPath>
</defs>
</svg>
