<svg width="48" height="48" viewBox="0 0 48 48" fill="none" xmlns="http://www.w3.org/2000/svg">
<path d="M43.229 19.5103C42.049 19.1003 40.739 19.7203 40.319 20.8903L38.469 25.8203C38.369 25.8103 38.269 25.7903 38.169 25.7903C37.559 25.7903 36.959 26.0103 36.519 26.4003L35.299 27.4603C33.409 29.1103 32.539 29.5803 31.779 29.9903C31.169 30.3203 30.599 30.6303 29.759 31.3703C27.739 33.1403 27.379 36.7803 27.349 38.8103H26.959C26.409 38.8103 25.959 39.2603 25.959 39.8103V43.2803C25.959 43.8303 26.409 44.2803 26.959 44.2803H36.089C36.639 44.2803 37.089 43.8303 37.089 43.2803V39.8103C37.089 39.2603 36.639 38.8103 36.089 38.8103H35.699C35.869 37.8503 36.269 36.7803 37.199 35.9703L41.009 32.6103C41.569 32.1103 42.009 31.5303 42.309 30.8903C43.539 28.2603 44.689 22.3703 44.739 22.1203C44.959 21.0103 44.309 19.8903 43.249 19.5203L43.229 19.5103ZM35.069 42.2803H27.939V40.8103H35.069V42.2803ZM40.479 30.0403C40.299 30.4403 40.019 30.8003 39.669 31.1103L35.859 34.4703C34.359 35.7803 33.839 37.5103 33.659 38.8103H29.329C29.369 36.5703 29.819 33.9603 31.059 32.8803C31.739 32.2903 32.169 32.0503 32.719 31.7603C33.539 31.3203 34.549 30.7703 36.609 28.9703L37.829 27.9103C37.889 27.8503 38.019 27.8003 38.169 27.8003C38.169 27.8003 38.329 27.8003 38.389 27.8703C38.489 27.9803 38.419 28.2903 38.249 28.4403L35.599 30.9003C35.199 31.2803 35.169 31.9103 35.549 32.3103C35.929 32.7103 36.559 32.7403 36.959 32.3603L39.589 29.9203C40.349 29.2503 40.709 27.9603 40.179 26.9603L42.199 21.5803C42.249 21.4303 42.419 21.3503 42.569 21.4003C42.709 21.4503 42.789 21.5903 42.759 21.7303C42.359 23.7603 41.379 28.1103 40.479 30.0403Z" fill="#323232"/>
<path d="M21.0597 38.8002H20.6697C20.6397 36.7702 20.2797 33.1302 18.2597 31.3602C17.4097 30.6202 16.8397 30.3102 16.2397 29.9802C15.4697 29.5602 14.5997 29.0902 12.7197 27.4502L11.4997 26.3802C11.0597 26.0002 10.4597 25.7802 9.84974 25.7702C9.74974 25.7702 9.64974 25.7902 9.54974 25.8002L7.69974 20.8802C7.27974 19.7002 5.96974 19.0802 4.78974 19.4902C3.71974 19.8602 3.07974 20.9802 3.28974 22.0902C3.33974 22.3402 4.49974 28.2302 5.71974 30.8602C6.01974 31.5102 6.45974 32.0902 7.01974 32.5802L10.8397 35.9402C11.7597 36.7502 12.1697 37.8102 12.3397 38.7702H11.9497C11.3997 38.7702 10.9497 39.2202 10.9497 39.7702V43.2402C10.9497 43.7902 11.3997 44.2402 11.9497 44.2402H21.0797C21.6297 44.2402 22.0797 43.7902 22.0797 43.2402V39.7702C22.0797 39.2202 21.6297 38.7702 21.0797 38.7702L21.0597 38.8002ZM12.1497 34.4702L8.33974 31.1102C7.98974 30.8002 7.70974 30.4402 7.52974 30.0402C6.62974 28.1102 5.63974 23.7602 5.24974 21.7302C5.21974 21.5902 5.29974 21.4502 5.43974 21.4002C5.58974 21.3402 5.75974 21.4302 5.81974 21.5902L7.82974 26.9502C7.29974 27.9602 7.64974 29.2402 8.39974 29.8902L11.0497 32.3502C11.4497 32.7302 12.0897 32.7002 12.4597 32.3002C12.8397 31.8902 12.8097 31.2602 12.4097 30.8902L9.72974 28.4102C9.57974 28.2802 9.50974 27.9702 9.60974 27.8602C9.66974 27.7902 9.78974 27.7902 9.82974 27.7902C9.97974 27.7902 10.1097 27.8502 10.1697 27.9002L11.3897 28.9602C13.4397 30.7502 14.4597 31.3002 15.2797 31.7502C15.8297 32.0502 16.2597 32.2802 16.9397 32.8702C18.1797 33.9502 18.6297 36.5602 18.6697 38.8002H14.3397C14.1697 37.5002 13.6397 35.7702 12.1497 34.4602V34.4702ZM20.0597 42.2802H12.9297V40.8102H20.0597V42.2802Z" fill="#323232"/>
<path d="M13.209 26.3402H34.799C35.349 26.3402 35.799 25.8902 35.799 25.3402V10.9102C35.799 10.7102 35.739 10.5102 35.619 10.3402L31.299 4.15021C31.109 3.88021 30.809 3.72021 30.479 3.72021H17.529C17.199 3.72021 16.899 3.88021 16.709 4.15021L12.389 10.3402C12.269 10.5102 12.209 10.7102 12.209 10.9102V25.3402C12.209 25.8902 12.659 26.3402 13.209 26.3402ZM24.999 5.72021H29.949L32.749 9.73021H24.989V5.72021H24.999ZM18.049 5.72021H22.999V9.73021H15.239L18.039 5.72021H18.049ZM14.209 11.7402H33.799V24.3402H14.209V11.7402Z" fill="#323232"/>
<path d="M20.4601 13.0498H16.2401C15.8756 13.0498 15.5801 13.3453 15.5801 13.7098V17.9298C15.5801 18.2943 15.8756 18.5898 16.2401 18.5898H20.4601C20.8246 18.5898 21.1201 18.2943 21.1201 17.9298V13.7098C21.1201 13.3453 20.8246 13.0498 20.4601 13.0498Z" fill="#8DE2E0"/>
</svg>
