<svg width="24" height="24" viewBox="0 0 24 24" fill="none" xmlns="http://www.w3.org/2000/svg">
<g clip-path="url(#clip0_16335_3932)">
<path d="M23.8449 13.9238C24.9068 7.382 20.4644 1.218 13.9226 0.156118C7.38083 -0.905765 1.21683 3.53658 0.154948 10.0784C-0.906935 16.6202 3.53541 22.7842 10.0772 23.846C16.619 24.9079 22.783 20.4656 23.8449 13.9238Z" fill="white"/>
<mask id="mask0_16335_3932" style="mask-type:luminance" maskUnits="userSpaceOnUse" x="-1" y="-1" width="26" height="26">
<path d="M23.8449 13.9238C24.9068 7.382 20.4644 1.218 13.9226 0.156118C7.38083 -0.905765 1.21683 3.53658 0.154948 10.0784C-0.906935 16.6202 3.53541 22.7842 10.0772 23.846C16.619 24.9079 22.783 20.4656 23.8449 13.9238Z" fill="white"/>
</mask>
<g mask="url(#mask0_16335_3932)">
<path d="M29.1678 0H0V24.0014H29.1678V0Z" fill="#FF0000"/>
<path d="M14.5546 0H0V12H14.5546V0Z" fill="#003399"/>
<path fill-rule="evenodd" clip-rule="evenodd" d="M7.61475 8.35547L7.94175 9.37142L9.00941 9.36863L8.14438 9.99469L8.47698 11.0106L7.61475 10.3804L6.75112 11.0106L7.08371 9.99469L6.21729 9.36863L7.28634 9.37142L7.61475 8.35547Z" fill="white"/>
<path fill-rule="evenodd" clip-rule="evenodd" d="M7.61476 2.94727L7.87189 3.74801L8.71316 3.74522L8.0326 4.23852L8.29392 5.03787L7.61476 4.54317L6.93419 5.03787L7.19552 4.23852L6.51495 3.74522L7.35623 3.74801L7.61476 2.94727Z" fill="white"/>
<path fill-rule="evenodd" clip-rule="evenodd" d="M4.40901 4.52075L4.66614 5.3215L5.50741 5.3201L4.82685 5.8134L5.08817 6.61275L4.40901 6.11665L3.72844 6.61275L3.99117 5.8134L3.3092 5.3201L4.15048 5.3215L4.40901 4.52075Z" fill="white"/>
<path fill-rule="evenodd" clip-rule="evenodd" d="M10.4754 4.03857L10.7339 4.83932L11.5752 4.83792L10.8932 5.32983L11.1545 6.12918L10.4754 5.63448L9.79619 6.12918L10.0575 5.32983L9.37555 4.83792L10.2168 4.83932L10.4754 4.03857Z" fill="white"/>
<path fill-rule="evenodd" clip-rule="evenodd" d="M8.92701 6.61841L9.09331 7.13547H9.63692L9.19672 7.45269L9.36581 7.96975L8.92701 7.64973L8.48821 7.96975L8.6573 7.45269L8.2171 7.13547H8.75932L8.92701 6.61841Z" fill="white"/>
</g>
</g>
<rect x="0.25" y="0.25" width="23.5" height="23.5" rx="11.75" stroke="#E5E3E1" stroke-width="0.5"/>
<defs>
<clipPath id="clip0_16335_3932">
<rect width="24" height="24" rx="12" fill="white"/>
</clipPath>
</defs>
</svg>
