<svg width="48" height="48" viewBox="0 0 48 48" fill="none" xmlns="http://www.w3.org/2000/svg">
<path d="M15.9008 28.6001L21.0008 37.2001L19.5008 39.4001C19.5008 39.4001 17.8008 39.7001 17.7008 39.7001C17.6008 39.7001 15.5008 39.0001 15.5008 39.0001C15.5008 39.0001 14.7008 37.8001 14.7008 37.7001C14.7008 37.6001 12.6008 37.1001 12.6008 37.1001C12.6008 37.1001 11.7008 35.8001 11.7008 35.7001C11.7008 35.6001 11.8008 33.5001 11.7008 33.3001C11.6008 33.1001 12.9008 31.6001 12.9008 31.6001L13.6008 30.9001L14.1008 28.6001H15.3008C15.3008 28.5001 15.8008 28.6001 15.8008 28.6001H15.9008Z" fill="#8DE2E0"/>
<path d="M34.1008 29.8C34.1008 27.7 32.3008 26 30.2008 26C28.1008 26 28.8008 26.2 28.3008 26.5L32.0008 32.7L31.5008 34.4L30.0008 36.2C30.7008 36.8 31.6008 37.2 32.6008 37.2C34.8008 37.2 36.5008 35.4 36.5008 33.3C36.5008 31.2 35.5008 30.3 34.1008 29.7V29.8Z" fill="#8DE2E0"/>
<path d="M12.0008 19.2005C11.7008 19.7005 12.0008 20.3005 12.4008 20.6005C12.9008 20.9005 13.5008 20.6005 13.8008 20.2005L17.3008 13.8005C17.7008 13.2005 17.8008 12.4005 17.6008 11.7005C17.4008 11.0005 16.9008 10.4005 16.2008 10.0005C15.0008 9.40048 13.5008 9.60048 12.7008 10.8005L8.40078 17.1005C8.00078 17.7005 7.60078 18.3005 7.50078 18.9005L6.00078 23.0005C6.00078 23.0005 6.00078 23.1005 6.00078 23.2005C5.10078 23.4005 4.50078 24.0005 4.20078 24.8005L2.20078 30.2005C2.00078 30.9005 2.00078 31.5005 2.20078 32.1005L3.80078 36.6005C4.10078 37.4005 4.50078 38.1005 5.10078 38.8005L6.40078 40.3005C7.20078 41.1005 7.60078 42.2005 7.60078 43.3005V45.1005C7.60078 45.6005 8.00078 46.1005 8.60078 46.1005C9.20078 46.1005 9.60078 45.6005 9.60078 45.1005V43.3005C9.60078 41.7005 9.00078 40.1005 7.90078 39.0005L6.60078 37.5005C6.20078 37.1005 5.90078 36.6005 5.70078 36.0005L4.10078 31.5005C4.10078 31.3005 4.10078 31.1005 4.10078 30.9005L6.10078 25.5005C6.10078 25.4005 6.20078 25.3005 6.40078 25.3005L11.7008 24.3005C11.8008 24.3005 11.9008 24.3005 12.0008 24.3005C12.0008 24.3005 12.1008 24.4005 12.1008 24.6005C12.0008 25.6005 11.4008 26.1005 10.3008 26.3005C10.3008 26.3005 10.2008 26.3005 10.1008 26.3005L8.50078 26.9005C8.10078 27.0005 7.90078 27.4005 7.80078 27.8005L7.60078 30.7005C7.60078 31.2005 8.00078 31.7005 8.50078 31.8005C9.10078 31.8005 9.50078 31.4005 9.60078 30.9005V28.6005C9.70078 28.6005 10.7008 28.2005 10.7008 28.2005C12.6008 27.8005 13.8008 26.6005 14.0008 24.8005C14.1008 24.1005 13.8008 23.3005 13.3008 22.8005C12.7008 22.3005 12.0008 22.1005 11.2008 22.2005L8.30078 22.8005L9.50078 19.5005C9.60078 19.1005 9.80078 18.7005 10.1008 18.3005L14.4008 12.0005C14.6008 11.7005 15.0008 11.6005 15.4008 11.8005C15.6008 11.9005 15.8008 12.1005 15.8008 12.3005C15.8008 12.5005 15.8008 12.7005 15.8008 12.9005L12.2008 19.3005L12.0008 19.2005Z" fill="#323232"/>
<path d="M20.5996 46.4996C20.0996 46.4996 19.5996 46.0996 19.5996 45.4996V43.6996C19.5996 42.5996 19.9996 41.5996 20.6996 40.8996C21.0996 40.4996 21.6996 40.4996 22.0996 40.8996C22.4996 41.2996 22.4996 41.8996 22.0996 42.2996C21.6996 42.5996 21.4996 43.0996 21.4996 43.5996V45.3996C21.4996 45.8996 21.0996 46.3996 20.5996 46.3996V46.4996Z" fill="#323232"/>
<path d="M27.4 46.5001C26.9 46.5001 26.4 46.1001 26.4 45.5001V43.7001C26.4 43.2001 26.2 42.7001 25.8 42.4001C25.4 42.1001 25.3 41.4001 25.7 41.0001C26.1 40.6001 26.7 40.5001 27.1 40.9001C27.9 41.6001 28.4 42.6001 28.4 43.7001V45.5001C28.4 46.0001 28 46.5001 27.5 46.5001H27.4Z" fill="#323232"/>
<path d="M33.3004 38.2C32.9004 38.2 32.5004 38.2 32.2004 38.1C31.7004 38 31.3004 37.4 31.5004 36.9C31.7004 36.4 32.2004 36 32.7004 36.2C32.9004 36.2 33.1004 36.2 33.4004 36.2C34.9004 36.2 36.2004 35 36.2004 33.4C36.2004 31.8 35.5004 31.2 34.4004 30.8H34.0004C33.6004 30.5 33.4004 30.1 33.4004 29.7V29.3C33.4004 28 32.3004 27 31.1004 27C29.9004 27 30.1004 26.6 30.1004 26C30.1004 25.4 30.5004 25 31.0004 25H31.1004C33.4004 25 35.2004 26.8 35.4004 29.1C37.1004 29.9 38.2004 31.5 38.2004 33.5C38.2004 35.5 36.1004 38.3 33.4004 38.3L33.3004 38.2Z" fill="#323232"/>
<path d="M24.0997 39.9998C23.6997 39.9998 23.3997 39.9998 23.0997 39.8998C22.5997 39.7998 22.1997 39.1998 22.3997 38.6998C22.4997 38.1998 23.0997 37.7998 23.5997 37.9998C24.1997 38.1998 24.8997 37.9998 25.4997 37.6998L28.9997 35.4998C30.1997 34.7998 30.4997 33.1998 29.7997 32.0998L25.0997 24.5998C24.6997 23.9998 24.1997 23.5998 23.5997 23.4998C22.9997 23.3998 22.2997 23.4998 21.6997 23.7998L18.1997 25.9998C16.9997 26.6998 16.6997 28.2998 17.3997 29.3998L20.4997 34.2998C20.7997 34.7998 20.5997 35.3998 20.1997 35.6998C19.6997 35.9998 19.0997 35.8998 18.7997 35.3998L15.6997 30.4998C14.3997 28.3998 14.9997 25.5998 17.0997 24.2998L20.5997 22.0998C21.5997 21.4998 22.7997 21.2998 23.9997 21.4998C25.1997 21.7998 26.1997 22.4998 26.7997 23.4998L31.4997 30.9998C32.7997 33.0998 32.1997 35.8998 30.0997 37.1998L26.5997 39.3998C25.8997 39.8998 25.0997 40.0998 24.1997 40.0998L24.0997 39.9998Z" fill="#323232"/>
<path d="M31.3996 30.8999L26.6996 23.3999C26.0996 22.3999 25.0996 21.6999 23.8996 21.3999C22.6996 21.0999 21.4996 21.3999 20.4996 21.9999L16.9996 24.1999C16.0996 24.7999 15.3996 25.6999 15.0996 26.6999C13.7996 27.2999 12.7996 28.5999 12.6996 30.0999C12.6996 30.2999 12.6996 30.4999 12.6996 30.5999C11.3996 31.1999 10.4996 32.4999 10.3996 33.9999C10.2996 35.0999 10.5996 36.1999 11.2996 37.0999C11.9996 37.9999 12.9996 38.4999 14.0996 38.5999C14.7996 39.7999 15.9996 40.6999 17.3996 40.7999C17.4996 40.7999 17.6996 40.7999 17.7996 40.7999C18.7996 40.7999 19.6996 40.4999 20.4996 39.7999C21.3996 39.0999 21.8996 37.9999 21.9996 36.8999C21.9996 36.3999 21.5996 35.8999 20.9996 35.8999C20.4996 35.8999 19.9996 36.2999 19.9996 36.8999C19.9996 37.4999 19.6996 37.9999 19.1996 38.2999C18.7996 38.5999 18.2996 38.7999 17.7996 38.7999H17.5996C16.7996 38.7999 16.0996 38.1999 15.7996 37.4999V37.1999C15.4996 36.7999 15.1996 36.5999 14.7996 36.5999H14.2996C13.6996 36.5999 13.1996 36.1999 12.7996 35.7999C12.3996 35.3999 12.2996 34.7999 12.2996 34.1999C12.2996 33.3999 12.8996 32.6999 13.6996 32.3999L14.0996 32.1999C14.4996 31.9999 14.7996 31.5999 14.6996 31.0999V30.6999C14.6996 30.4999 14.6996 30.3999 14.6996 30.1999C14.6996 29.7999 14.8996 29.4999 15.0996 29.1999C15.1996 29.5999 15.3996 29.9999 15.5996 30.2999L18.6996 35.1999C18.9996 35.6999 19.5996 35.7999 20.0996 35.4999C20.5996 35.1999 20.6996 34.5999 20.3996 34.0999L17.2996 29.1999C16.5996 27.9999 16.8996 26.4999 18.0996 25.7999L21.5996 23.5999C22.1996 23.1999 22.7996 23.0999 23.4996 23.2999C24.1996 23.4999 24.6996 23.7999 24.9996 24.3999L29.6996 31.8999C30.3996 33.0999 30.0996 34.5999 28.8996 35.2999L25.3996 37.4999C24.7996 37.8999 24.1996 37.9999 23.4996 37.7999C22.9996 37.6999 22.3996 37.9999 22.2996 38.4999C22.1996 38.9999 22.4996 39.5999 22.9996 39.6999C23.2996 39.6999 23.6996 39.7999 23.9996 39.7999C24.7996 39.7999 25.5996 39.5999 26.3996 39.0999L29.8996 36.8999C31.9996 35.5999 32.5996 32.7999 31.2996 30.6999L31.3996 30.8999Z" fill="#323232"/>
<path d="M22.9 19.4996C23.4 19.4996 23.8 19.4996 24.3 19.6996C25 19.7996 25.6 20.0996 26.2 20.4996V2.59961H21.8V5.79961C21.8 6.19961 21.4 6.59961 21 6.59961C20.6 6.59961 20.2 6.19961 20.2 5.79961V2.59961H18.5V21.1996L19.5 20.5996C20.5 19.9996 21.7 19.5996 22.8 19.5996L22.9 19.4996ZM20.2 8.09961C20.2 7.69961 20.6 7.29961 21 7.29961C21.4 7.29961 21.8 7.69961 21.8 8.09961V9.29961C21.8 9.69961 21.4 10.0996 21 10.0996C20.6 10.0996 20.2 9.69961 20.2 9.29961V8.09961Z" fill="#8DE2E0"/>
<path d="M45.9994 29.9996L43.9994 24.6996C43.7994 23.8996 43.0994 23.1996 42.1994 23.0996L40.6994 22.7996L39.4994 18.3996C39.2994 17.6996 38.9994 16.9996 38.4994 16.4996L34.1994 10.1996C33.3994 9.09961 31.8994 8.79961 30.6994 9.49961C30.0994 9.89961 29.5994 10.4996 29.3994 11.1996C29.3994 11.4996 29.2994 11.7996 29.3994 12.1996C29.1994 12.1996 28.9994 12.1996 28.7994 12.3996C28.0994 12.6996 27.5994 13.2996 27.2994 13.9996C26.9994 14.6996 27.0994 15.4996 27.4994 16.1996L30.0994 20.7996C30.2994 21.0996 30.5994 21.2996 30.9994 21.2996C31.3994 21.2996 31.2994 21.2996 31.4994 21.1996C31.9994 20.8996 32.0994 20.2996 31.8994 19.7996L29.2994 15.1996C29.2994 14.9996 29.1994 14.7996 29.2994 14.5996C29.2994 14.3996 29.4994 14.2996 29.6994 14.1996C29.9994 14.0996 30.3994 14.1996 30.5994 14.4996L32.0994 16.8996L34.0994 20.1996C34.3994 20.6996 34.9994 20.7996 35.4994 20.4996C35.9994 20.1996 36.0994 19.5996 35.7994 19.0996L33.7994 15.7996L31.6994 12.1996C31.5994 11.9996 31.5994 11.7996 31.6994 11.5996C31.7994 11.3996 31.8994 11.1996 32.0994 11.0996C32.2994 10.9996 32.3994 10.9996 32.4994 10.9996C32.6994 10.9996 32.8994 11.0996 32.9994 11.1996L37.3994 17.4996C37.6994 17.8996 37.8994 18.2996 37.9994 18.6996L38.8994 22.0996L37.2994 21.7996C36.5994 21.6996 35.7994 21.7996 35.2994 22.3996C34.7994 22.8996 34.4994 23.6996 34.5994 24.3996C34.7994 26.1996 35.9994 27.3996 37.8994 27.7996L38.8994 28.1996L39.0994 30.4996C39.0994 30.9996 39.5994 31.4996 40.1994 31.3996C40.6994 31.3996 41.1994 30.8996 41.0994 30.2996L40.8994 27.3996C40.8994 26.9996 40.5994 26.6996 40.1994 26.4996L38.5994 25.8996C38.5994 25.8996 38.4994 25.8996 38.3994 25.8996C37.2994 25.6996 36.7994 25.1996 36.5994 24.1996C36.5994 24.0996 36.5994 23.9996 36.5994 23.8996C36.5994 23.8996 36.6994 23.7996 36.8994 23.8996L42.1994 24.8996C42.2994 24.8996 42.3994 24.9996 42.4994 25.1996L44.4994 30.4996C44.4994 30.6996 44.4994 30.9996 44.4994 31.1996L42.8994 35.6996C42.6994 36.2996 42.3994 36.7996 41.9994 37.1996L40.6994 38.6996C39.5994 39.8996 38.9994 41.3996 38.9994 42.9996V44.7996C38.9994 45.2996 39.4994 45.7996 39.9994 45.7996C40.4994 45.7996 40.9994 45.2996 40.9994 44.7996V42.9996C40.9994 41.8996 41.3994 40.7996 42.1994 39.9996L43.4994 38.4996C44.0994 37.8996 44.4994 37.0996 44.7994 36.2996L46.3994 31.7996C46.5994 31.1996 46.6994 30.4996 46.3994 29.7996L45.9994 29.9996Z" fill="#323232"/>
</svg>
