<svg width="24" height="24" viewBox="0 0 24 24" fill="none" xmlns="http://www.w3.org/2000/svg">
<g clip-path="url(#clip0_16335_6464)">
<path d="M23.9413 13.1802C24.5938 6.58497 19.7762 0.709552 13.181 0.0570735C6.58578 -0.595405 0.710359 4.22214 0.0578813 10.8174C-0.594597 17.4126 4.22295 23.288 10.8182 23.9405C17.4134 24.593 23.2888 19.7754 23.9413 13.1802Z" fill="white"/>
<mask id="mask0_16335_6464" style="mask-type:luminance" maskUnits="userSpaceOnUse" x="-1" y="-1" width="26" height="25">
<path d="M23.9413 13.1802C24.5938 6.58497 19.7762 0.709552 13.181 0.0570735C6.58578 -0.595405 0.710359 4.22214 0.0578813 10.8174C-0.594597 17.4126 4.22295 23.288 10.8182 23.9405C17.4134 24.593 23.2888 19.7754 23.9413 13.1802Z" fill="white"/>
</mask>
<g mask="url(#mask0_16335_6464)">
<path d="M29.9979 14.3813H-6.00208V24H29.9979V14.3813Z" fill="#BA003E"/>
<path d="M29.9979 9.61873H-6.00208V14.3813H29.9979V9.61873Z" fill="white"/>
<path d="M29.9979 0H-6.00208V9.61873H29.9979V0Z" fill="#BA003E"/>
</g>
</g>
<rect x="0.25" y="0.25" width="23.5" height="23.5" rx="11.75" stroke="#E5E3E1" stroke-width="0.5"/>
<defs>
<clipPath id="clip0_16335_6464">
<rect width="24" height="24" rx="12" fill="white"/>
</clipPath>
</defs>
</svg>
