<svg width="24" height="24" viewBox="0 0 24 24" fill="none" xmlns="http://www.w3.org/2000/svg">
<path fill-rule="evenodd" clip-rule="evenodd" d="M9.55479 11.9543C9.50719 11.8477 9.47198 11.7416 9.43579 11.634L3.87081 11.9543L4.99581 12.4987L9.55479 11.9543ZM10.3124 12.937C10.2653 12.9013 10.2177 12.8547 10.1706 12.818C10.0759 12.7357 9.99259 12.6524 9.93358 12.5696L7.15258 13.0957L8.33608 13.4933L10.3124 12.937ZM12.5153 12.7114C12.6457 12.6881 12.847 12.6177 13.0007 12.4987L12.1955 10.9007L13.0359 10.4976L12.3254 9.88136L12.0413 10.0127L10.8216 10.5685L11.1766 11.3742L11.7572 11.1139L12.5153 12.7114ZM13.8887 9.37216C14.1966 9.73955 14.4212 10.1902 14.5397 10.7108H14.0305C13.9953 10.5571 13.9482 10.4029 13.8887 10.2607C13.5451 9.36125 12.847 8.72116 12.0413 8.18816C11.9347 8.12916 11.84 8.05826 11.7334 7.99976C11.84 8.03545 11.9347 8.07066 12.0413 8.10636C12.7756 8.40136 13.4271 8.80396 13.8887 9.37216ZM13.8887 14.2152L14.0424 14.5003L13.8887 14.5712L13.4742 14.7601L13.0007 13.8245C12.7047 13.9311 12.373 13.9911 12.0413 14.0025C11.6863 14.0144 11.3194 13.9673 10.9996 13.8607L10.597 14.7601C10.4666 14.7725 10.2886 14.7601 10.1706 14.6773C10.1111 14.6426 10.0516 14.5826 10.0288 14.5003L10.1706 14.2628L10.5142 13.6465C10.4071 13.5761 10.3124 13.5295 10.2177 13.4338L10.5023 13.0907C10.9877 13.3872 11.5202 13.5533 12.0413 13.5533C12.5624 13.5647 13.083 13.3981 13.5689 13.0555L13.8887 13.1502L14.0186 13.1978C13.9715 13.233 13.9358 13.2687 13.8887 13.3044C13.794 13.3981 13.7107 13.4938 13.557 13.5761L13.8887 14.2152ZM20.5315 11.8006L22.0001 10.865H14.0424C14.0424 11.1972 13.9953 11.4808 13.8887 11.7292C13.5808 12.5225 12.8108 12.9013 12.0413 12.8889C11.2832 12.8656 10.5142 12.4754 10.1706 11.753C10.0516 11.4917 9.98118 11.2076 9.98118 10.865H2.00012L3.45681 11.8006L9.55479 11.4808C9.67328 11.9186 9.88648 12.2969 10.1706 12.582C10.656 13.0907 11.3546 13.3753 12.0413 13.3753C12.7161 13.3872 13.4033 13.1388 13.8887 12.5944C14.1495 12.3088 14.3503 11.9429 14.4688 11.5041L20.5315 11.8006ZM20.1289 11.9543L19.0039 12.4754L14.5045 11.9543C14.5397 11.8477 14.5754 11.7416 14.6106 11.634L20.1289 11.9543ZM16.8724 13.1016L15.6409 13.5166L13.8887 12.9846L13.7345 12.937C13.794 12.8889 13.8411 12.8423 13.8887 12.7838C13.9596 12.7238 14.0186 12.641 14.09 12.582L16.8724 13.1016ZM17.4649 13.0312L18.4476 12.582L14.3979 12.0956C14.3622 12.227 14.2556 12.3336 14.1847 12.4397L17.4649 13.0312ZM6.5353 13.0312L5.5526 12.6048L9.62618 12.1085C9.69708 12.227 9.76798 12.3336 9.85078 12.4397L6.5353 13.0312Z" fill="#0C2D83"/>
</svg>
