<svg width="48" height="48" viewBox="0 0 48 48" fill="none" xmlns="http://www.w3.org/2000/svg">
<path d="M26.3398 20.1699V19.6599C26.3398 18.3099 25.4498 17.3599 24.0698 17.3599C22.6898 17.3599 21.9098 18.1999 21.9098 19.3299C21.9098 20.0099 22.2098 20.8699 23.3198 21.2999L25.6698 22.2199C27.7498 23.0599 30.0198 24.1899 30.0198 27.4599C30.0198 30.3499 28.1798 32.4099 25.2898 32.7799V35.5099H22.8298V32.7299C20.0698 32.2699 18.2598 30.4099 18.2598 27.6499V27.0599H21.5798V27.7899C21.5798 29.2199 22.5298 30.0599 24.1498 30.0599C25.7698 30.0599 26.7198 29.1099 26.7198 27.8199C26.7198 26.7099 26.1498 25.9799 25.0398 25.5199L22.4998 24.5199C20.1798 23.5999 18.6398 22.0899 18.6398 19.5699C18.6398 17.1899 20.1798 15.1699 22.8298 14.6799V11.9199H25.2898V14.6799C27.9098 15.1099 29.6698 16.9999 29.6698 19.7899V20.1699H26.3498H26.3398Z" fill="#DF0000"/>
<path d="M46.7791 25.24L43.4291 22.32C43.0091 21.96 42.3791 22 42.0191 22.42L39.0991 25.77C38.7391 26.19 38.7791 26.82 39.1991 27.18C39.3891 27.35 39.6191 27.43 39.8591 27.43C40.1391 27.43 40.4191 27.31 40.6091 27.09L42.0591 25.43C41.3291 34.7301 33.5491 42.07 24.0691 42.07C15.4991 42.07 8.04912 35.9801 6.35912 27.59C6.24912 27.05 5.71912 26.7 5.17912 26.81C4.63912 26.92 4.28912 27.45 4.39912 27.99C6.27912 37.31 14.5491 44.07 24.0691 44.07C34.6191 44.07 43.2791 35.88 44.0591 25.52L45.4691 26.75C45.8891 27.11 46.5191 27.07 46.8791 26.65C47.2391 26.23 47.1991 25.6 46.7791 25.24Z" fill="#323232"/>
<path d="M5.21962 25.9799C5.49962 25.9799 5.77962 25.8599 5.96962 25.6399L8.88962 22.2899C9.24962 21.8699 9.20962 21.2399 8.78962 20.8799C8.36962 20.5199 7.73962 20.5599 7.37962 20.9799L6.07962 22.4699C6.86962 13.2199 14.6296 5.93994 24.0696 5.93994C32.6096 5.93994 40.0496 11.9999 41.7596 20.3599C41.8696 20.8999 42.3996 21.2499 42.9396 21.1399C43.4796 21.0299 43.8296 20.4999 43.7196 19.9599C41.8196 10.6799 33.5596 3.93994 24.0696 3.93994C13.4596 3.93994 4.76962 12.2199 4.07962 22.6499L2.53962 21.2999C2.11962 20.9399 1.48962 20.9799 1.12962 21.3999C0.76962 21.8199 0.80962 22.4499 1.22962 22.8099L4.57962 25.7299C4.76962 25.8999 4.99962 25.9799 5.23962 25.9799H5.21962Z" fill="#323232"/>
</svg>
