<svg width="48" height="48" viewBox="0 0 48 48" fill="none" xmlns="http://www.w3.org/2000/svg">
<path d="M20.139 23.7199C19.939 23.7199 19.739 23.6299 19.619 23.4599L18.819 22.3799L17.799 23.2499C17.529 23.4799 17.119 23.4499 16.879 23.1799C16.649 22.9099 16.679 22.4999 16.949 22.2599L18.499 20.9399C18.639 20.8199 18.819 20.7699 18.999 20.7899C19.179 20.8099 19.339 20.8999 19.449 21.0499L20.659 22.6999C20.869 22.9899 20.809 23.3999 20.519 23.6099C20.399 23.6999 20.269 23.7399 20.139 23.7399V23.7199Z" fill="#DF0000"/>
<path d="M14.9997 26.4998C13.7497 26.4998 12.5897 26.0098 11.7197 25.1098C11.4697 24.8498 11.4797 24.4398 11.7297 24.1898C11.9897 23.9398 12.3997 23.9398 12.6497 24.1998C13.2697 24.8398 14.1097 25.1898 14.9997 25.1898C16.8097 25.1898 18.2797 23.7198 18.2797 21.9098C18.2797 21.7698 18.2797 21.6298 18.2497 21.4998C18.2097 21.1398 18.4597 20.8198 18.8097 20.7698C19.1597 20.7198 19.4897 20.9798 19.5397 21.3298C19.5597 21.5198 19.5797 21.7098 19.5797 21.9098C19.5797 24.4398 17.5197 26.4898 14.9997 26.4898V26.4998Z" fill="#DF0000"/>
<path d="M11.0698 23.07C11.0698 23.07 11.0198 23.07 10.9998 23.07C10.8198 23.05 10.6598 22.96 10.5498 22.81L9.3398 21.16C9.1298 20.87 9.1898 20.46 9.4798 20.25C9.7698 20.04 10.1798 20.1 10.3898 20.39L11.1898 21.47L12.2098 20.6C12.4798 20.37 12.8898 20.4 13.1298 20.67C13.3598 20.94 13.3298 21.35 13.0598 21.59L11.5098 22.91C11.3898 23.01 11.2398 23.07 11.0898 23.07H11.0698Z" fill="#DF0000"/>
<path d="M11.0999 23.0601C10.7799 23.0601 10.4999 22.8201 10.4599 22.4901C10.4399 22.3001 10.4199 22.1101 10.4199 21.9101C10.4199 19.3801 12.4799 17.3301 14.9999 17.3301C16.2499 17.3301 17.4099 17.8201 18.2799 18.7201C18.5299 18.9801 18.5199 19.3901 18.2699 19.6401C18.0099 19.8901 17.5999 19.8901 17.3499 19.6301C16.7299 18.9901 15.8899 18.6401 14.9999 18.6401C13.1899 18.6401 11.7199 20.1101 11.7199 21.9201C11.7199 22.0601 11.7199 22.2001 11.7499 22.3301C11.7899 22.6901 11.5399 23.0101 11.1899 23.0601C11.1599 23.0601 11.1299 23.0601 11.1099 23.0601H11.0999Z" fill="#DF0000"/>
<path d="M38.4003 37.67C37.9103 37.67 37.4203 37.46 36.9803 37.05L36.6703 36.76C36.0803 36.22 35.3503 35.57 35.0203 34.56C35.0003 34.57 34.9703 34.59 34.9503 34.6C34.8703 34.64 34.7903 34.69 34.7103 34.73C34.3403 34.92 33.8903 34.86 33.5903 34.58L33.2103 34.23C32.9503 33.99 32.6903 33.75 32.4303 33.53C31.5603 32.78 30.6803 32.61 29.7503 33.01C28.9503 33.35 28.1903 33.79 27.3803 34.26L26.9403 34.51C26.5503 34.74 26.1603 34.98 25.7803 35.22C25.2603 35.55 24.7403 35.87 24.2003 36.16C23.8203 36.37 23.4303 36.46 23.0103 36.55C22.8303 36.59 22.6403 36.63 22.4203 36.69C22.0603 36.79 21.6703 36.68 21.4203 36.4C21.1703 36.12 21.0903 35.72 21.2303 35.37C21.4203 34.87 21.3103 34.65 20.9103 34.06L20.7303 33.78C19.5103 31.83 18.8303 30.23 18.5303 28.57C18.1603 26.56 18.7703 25.53 20.7003 24.9L20.8003 24.87C21.0303 24.79 21.2603 24.72 21.4903 24.68C22.5803 24.48 23.2803 23.83 23.9903 22.38C24.3903 21.57 24.8903 20.84 25.3803 20.13C25.5903 19.83 25.8003 19.52 26.0003 19.21C26.2903 18.77 26.8703 18.62 27.3303 18.89L27.8103 19.17C28.0303 19.3 28.2203 19.41 28.4103 19.51L28.4403 19.44C28.5203 19.29 28.6003 19.11 28.6203 19.02C28.7103 18.47 29.1503 17.19 30.9003 17.23C31.4703 17.24 32.0403 17.24 32.6503 17.23H33.5303C33.8703 17.23 34.1803 17.4 34.3703 17.68C34.5503 17.96 34.5803 18.32 34.4403 18.63L34.2503 19.06C34.1303 19.34 34.0103 19.6 33.8903 19.85C33.8303 19.98 33.8103 20.06 33.8103 20.09C33.8103 20.09 33.8503 20.13 33.9203 20.18C34.7403 20.75 35.7303 21.02 36.9303 20.99C36.9203 20.99 36.9703 20.91 37.0103 20.76C37.1703 20.14 37.2803 19.52 37.4003 18.86L37.5403 18.12C37.6103 17.74 37.6903 17.32 38.0003 16.84C38.2003 16.52 38.5703 16.35 38.9503 16.39C39.3303 16.43 39.6503 16.68 39.7803 17.03C39.8603 17.23 39.9403 17.43 40.0303 17.63C40.2503 18.13 40.5003 18.69 40.5903 19.31C40.9103 21.34 41.7603 22.8 43.2603 23.9C43.7603 24.27 44.1403 24.74 44.4703 25.16C44.6003 25.32 44.7203 25.48 44.8603 25.63C46.2003 27.16 46.5603 28.99 45.9003 30.93C45.6303 31.72 45.2803 32.46 44.9403 33.18C44.8003 33.49 44.6503 33.79 44.5203 34.1L43.3903 36.64C43.2603 36.92 43.0103 37.13 42.7103 37.2L42.5103 37.25C42.2303 37.32 41.8803 37.42 41.5203 37.47C41.3303 37.5 40.6703 37.56 40.1403 37.16C39.9603 37.02 39.9303 37.01 39.7403 37.16C39.3203 37.5 38.8803 37.67 38.4303 37.67H38.4003ZM35.2603 32.46C35.5803 32.46 35.8703 32.54 36.1303 32.69C36.5103 32.92 36.7803 33.29 36.8703 33.75C36.9903 34.33 37.3803 34.71 38.0103 35.28L38.3503 35.6C38.3503 35.6 38.3903 35.64 38.4103 35.65C38.4203 35.65 38.4303 35.63 38.4503 35.62C39.3203 34.91 40.3203 34.87 41.2103 35.48C41.4003 35.45 41.5803 35.41 41.7303 35.37L42.6703 33.27C42.8103 32.95 42.9603 32.63 43.1103 32.31C43.4403 31.61 43.7503 30.95 43.9803 30.27C44.4103 29.01 44.1903 27.91 43.3303 26.93C43.1803 26.75 43.0303 26.57 42.8803 26.38C42.6003 26.03 42.3403 25.7 42.0603 25.49C40.5503 24.38 39.5203 22.95 38.9603 21.15C38.9603 21.18 38.9503 21.21 38.9403 21.24C38.6703 22.29 37.9103 22.96 36.9603 22.98C35.3303 22.99 33.9303 22.61 32.7703 21.81C31.8603 21.18 31.5803 20.25 31.9703 19.22C31.5803 19.22 31.2003 19.22 30.8303 19.21C30.7103 19.21 30.6403 19.21 30.6003 19.22C30.6003 19.24 30.6003 19.27 30.5803 19.31C30.5203 19.7 30.3503 20.03 30.2203 20.3L30.1603 20.42C29.8403 21.08 29.3903 21.35 29.0603 21.46C28.7303 21.57 28.2103 21.63 27.5503 21.3C27.4103 21.23 27.2703 21.15 27.1203 21.07C27.0803 21.13 27.0403 21.19 27.0003 21.25C26.5303 21.93 26.0903 22.57 25.7603 23.25C25.0903 24.61 24.0503 26.22 21.8303 26.63C21.6903 26.66 21.5503 26.71 21.4103 26.75L21.3003 26.79C20.3303 27.11 20.2903 27.19 20.4803 28.2C20.7403 29.6 21.3303 30.99 22.4103 32.72L22.5603 32.96C22.8003 33.33 23.1103 33.8 23.2403 34.4C23.7403 34.13 24.2203 33.83 24.7003 33.52C25.1103 33.27 25.5103 33.01 25.9303 32.77L26.3603 32.52C27.1803 32.04 28.0403 31.55 28.9503 31.16C30.5803 30.47 32.2703 30.77 33.7203 32C33.9603 32.2 34.1903 32.41 34.4203 32.63C34.4703 32.61 34.5203 32.59 34.5603 32.58C34.8003 32.5 35.0303 32.46 35.2603 32.46Z" fill="#323232"/>
<path d="M40.5905 42.39C38.2705 42.39 38.2005 40.28 38.1705 39.38V39.09C38.1505 38.82 38.2505 38.55 38.4305 38.35C38.6205 38.15 38.8805 38.04 39.1505 38.04H41.7605C42.2605 38.04 42.6805 38.41 42.7505 38.9C42.8405 39.59 42.9005 40.86 42.1705 41.7C41.7805 42.15 41.2305 42.39 40.5905 42.39ZM40.2205 40.03C40.2405 40.18 40.2705 40.3 40.3105 40.34C40.3205 40.34 40.4105 40.38 40.5905 40.38C40.6705 40.34 40.7305 40.21 40.7705 40.03H40.2205Z" fill="#323232"/>
<path d="M15.0005 6.61035L2.81055 11.6204V15.2804L15.0005 10.2804L27.1805 15.2804V11.6204L15.0005 6.61035Z" fill="#8DE2E0"/>
<path d="M15.0005 39.3502C14.9405 39.3502 14.8905 39.3502 14.8305 39.3402C14.7005 39.3202 1.81055 36.9302 1.81055 21.5702V11.6202C1.81055 11.2102 2.06055 10.8502 2.43055 10.6902L14.6205 5.69023C14.8605 5.59023 15.1405 5.59023 15.3805 5.69023L27.5705 10.6902C27.9505 10.8402 28.1905 11.2102 28.1905 11.6202V16.2602C28.1905 16.8102 27.7405 17.2602 27.1905 17.2602C26.6405 17.2602 26.1905 16.8102 26.1905 16.2602V12.2902L15.0005 7.70023L3.81055 12.2902V21.5702C3.81055 34.4302 13.5005 37.0202 14.9905 37.3402C15.4605 37.2402 16.8505 36.8702 18.4905 35.9802C18.9705 35.7202 19.5805 35.9002 19.8505 36.3802C20.1105 36.8602 19.9305 37.4702 19.4505 37.7402C17.1305 39.0002 15.2505 39.3402 15.1705 39.3502C15.1105 39.3502 15.0605 39.3602 15.0005 39.3602V39.3502Z" fill="#323232"/>
</svg>
