<svg width="24" height="24" viewBox="0 0 24 24" fill="none" xmlns="http://www.w3.org/2000/svg">
<path fill-rule="evenodd" clip-rule="evenodd" d="M2.26667 19.9589C2.62222 20.6214 3.24444 21 3.95556 21H20.0444C20.7556 21 21.3778 20.6214 21.7333 19.9589C22.0889 19.32 22.0889 18.5392 21.7333 17.9004L13.6889 3.0411C13.3333 2.37858 12.7111 2 12 2C11.2889 2 10.6667 2.40224 10.3111 3.0411L2.26667 17.9004C1.91111 18.5392 1.91111 19.32 2.26667 19.9589ZM19.9745 18.8525C20.0047 18.9071 20.0047 18.9522 19.9858 18.9863C19.9827 18.992 19.9808 18.9965 19.9799 19H4.02206C3.99535 18.9456 3.99664 18.9046 4.01424 18.873L12 4.12238L19.9745 18.8525ZM13 15V9H11V15H13ZM13 18V16H11V18H13Z" fill="#323232"/>
</svg>
