<svg width="48" height="48" viewBox="0 0 48 48" fill="none" xmlns="http://www.w3.org/2000/svg">
<path d="M46.2498 14.8498C46.2498 13.8098 45.5598 12.9098 44.6398 12.5998C44.6598 12.4698 44.6698 12.3398 44.6698 12.2098C44.6698 10.9498 43.6398 9.91977 42.3798 9.91977H37.1398C38.1398 9.25977 38.4698 7.91977 37.8598 6.86977C37.4298 6.10977 36.6298 5.65977 35.7998 5.72977C35.5098 5.74977 35.1398 5.85977 34.6498 6.05977L27.9198 8.71977C27.3198 8.95977 27.0098 9.31977 26.7898 9.58977C26.5498 9.86977 26.4398 9.99977 25.6498 9.99977H24.2398C23.6898 10.0198 23.2398 10.4698 23.2498 11.0198C23.2598 11.5698 23.6998 12.0198 24.2598 12.0098H25.6598C27.2398 11.9998 27.8398 11.4398 28.3198 10.8798C28.4798 10.6898 28.5398 10.6298 28.6598 10.5798L35.3998 7.90977C35.8198 7.73977 35.9698 7.71977 35.9598 7.71977C35.9898 7.72977 36.0698 7.75977 36.1298 7.86977C36.1798 7.94977 36.1698 8.02977 36.1598 8.08977C36.1498 8.12977 36.1198 8.20976 36.0998 8.22976L32.2298 10.0398C31.7998 10.2398 31.5698 10.7098 31.6798 11.1698C31.7898 11.6198 32.1898 11.9398 32.6498 11.9398H32.6698L42.3798 11.9198C42.5398 11.9198 42.6698 12.0498 42.6698 12.2098C42.6698 12.3598 42.5598 12.4798 42.4098 12.4998H39.1698H36.4598C35.9098 12.4998 35.4598 12.9498 35.4598 13.4998C35.4598 14.0498 35.9098 14.4998 36.4598 14.4998H42.3798C42.3798 14.4998 42.4298 14.4998 42.4598 14.4998H43.9598C44.0798 14.4998 44.2498 14.6698 44.2498 14.8598C44.2498 15.0198 44.1198 15.1498 43.9598 15.1498H36.4098C35.8598 15.1498 35.4098 15.5998 35.4098 16.1498C35.4098 16.6998 35.8598 17.1498 36.4098 17.1498H42.3798C42.5298 17.1498 42.6698 17.2998 42.6698 17.4598C42.6698 17.6198 42.5298 17.7898 42.3798 17.7898H38.8998H36.4598C35.9098 17.7898 35.4598 18.2398 35.4598 18.7898C35.4598 19.3398 35.9098 19.7898 36.4598 19.7898H40.6198C40.7798 19.7898 40.9098 19.9198 40.9098 20.0698C40.9098 20.2198 40.7798 20.3598 40.6198 20.3598H31.2398C30.2098 20.3598 29.3298 20.0798 28.6298 19.5298C27.9098 18.9698 26.9998 18.6598 26.0598 18.6598H22.1298C22.2998 18.0698 22.3998 17.4398 22.3998 16.7698V7.37977C22.3998 6.11977 21.3698 5.08977 20.1098 5.08977C19.9898 5.08977 19.8798 5.08977 19.7698 5.11977C19.5398 4.09977 18.6098 3.32977 17.4998 3.32977C17.3598 3.32977 17.2198 3.33977 17.0898 3.36977C16.7998 2.43977 15.9298 1.75977 14.8998 1.75977C13.8698 1.75977 12.9598 2.44977 12.6498 3.36977C12.5198 3.34977 12.3898 3.33977 12.2598 3.33977C10.9998 3.33977 9.96977 4.36977 9.96977 5.62977V10.8698C9.30977 9.86977 7.96977 9.53976 6.91977 10.1498C6.15977 10.5898 5.71977 11.3898 5.77977 12.2098C5.79977 12.4998 5.89977 12.8598 6.10977 13.3598L8.76977 20.0898C9.00977 20.6898 9.36977 20.9998 9.63977 21.2198C9.91977 21.4598 10.0498 21.5698 10.0498 22.3598V23.7698C10.0698 24.3198 10.4798 24.7898 11.0698 24.7598C11.6198 24.7598 12.0698 24.2998 12.0598 23.7498V22.3498C12.0498 20.7698 11.4898 20.1698 10.9298 19.6898C10.7398 19.5298 10.6798 19.4698 10.6298 19.3498L7.95977 12.6098C7.78977 12.1898 7.76977 12.0498 7.76977 12.0498C7.76977 12.0298 7.80977 11.9398 7.91977 11.8798C8.05977 11.7998 8.22977 11.8498 8.26977 11.9098L10.0798 15.7798C10.2798 16.2098 10.7498 16.4398 11.2098 16.3298C11.6698 16.2198 11.9898 15.8098 11.9798 15.3398L11.9598 5.62977C11.9598 5.31977 12.5098 5.30977 12.5298 5.60977V8.23977V11.5498C12.5298 12.0998 12.9798 12.5498 13.5298 12.5498C14.0798 12.5498 14.5298 12.0998 14.5298 11.5498V5.62977C14.5298 5.62977 14.5298 5.58977 14.5298 5.55977V4.04977C14.5298 3.90977 14.7098 3.75977 14.8898 3.75977C15.0498 3.75977 15.1798 3.88977 15.1798 4.04977V11.5998C15.1798 12.1498 15.6298 12.5998 16.1798 12.5998C16.7298 12.5998 17.1798 12.1498 17.1798 11.5998V5.62977C17.1798 5.47977 17.3298 5.33977 17.4898 5.33977C17.6498 5.33977 17.8198 5.47977 17.8198 5.62977V9.10977V11.5498C17.8198 12.0998 18.2698 12.5498 18.8198 12.5498C19.3698 12.5498 19.8198 12.0998 19.8198 11.5498V7.39977C19.8198 7.23977 19.9498 7.10977 20.0998 7.10977C20.2498 7.10977 20.3898 7.23977 20.3898 7.39977V16.7698C20.3898 17.7998 20.1098 18.6798 19.5598 19.3798C18.9998 20.0998 18.6898 21.0098 18.6898 21.9498V25.8998C18.0798 25.7198 17.4398 25.6198 16.7398 25.6198H7.37977C6.11977 25.6198 5.08977 26.6498 5.08977 27.9098C5.08977 28.0298 5.08977 28.1398 5.11977 28.2498C4.09977 28.4798 3.32977 29.4098 3.32977 30.5198C3.32977 30.6598 3.33977 30.7998 3.36977 30.9398C2.43977 31.2298 1.75977 32.0998 1.75977 33.1198C1.75977 34.1398 2.44977 35.0598 3.36977 35.3698C3.34977 35.4998 3.33977 35.6298 3.33977 35.7598C3.33977 36.3698 3.57977 36.9398 4.00977 37.3798C4.43977 37.8098 5.01977 38.0498 5.61977 38.0498H10.8598C9.85977 38.7098 9.52977 40.0498 10.1398 41.0998C10.5498 41.8098 11.2798 42.2498 12.0498 42.2498C12.0998 42.2498 12.1498 42.2498 12.1998 42.2498C12.4898 42.2298 12.8598 42.1198 13.3498 41.9198L20.0798 39.2598C20.6798 39.0198 20.9898 38.6598 21.2098 38.3898C21.4498 38.1098 21.5598 37.9798 22.3498 37.9798H23.8898C24.4398 37.9598 24.8898 37.5098 24.8798 36.9598C24.8798 36.4098 24.4398 36.0098 23.8698 35.9698H22.3398C20.7598 35.9798 20.1598 36.5398 19.6798 37.0998C19.5198 37.2898 19.4598 37.3498 19.3398 37.3998L12.5998 40.0698C12.1798 40.2398 12.0298 40.2598 12.0398 40.2598C12.0098 40.2598 11.9298 40.2198 11.8698 40.1098C11.7898 39.9698 11.8398 39.7998 11.8998 39.7598L15.7698 37.9498C16.1998 37.7498 16.4298 37.2798 16.3198 36.8198C16.2098 36.3698 15.8098 36.0498 15.3498 36.0498H15.3298L5.61977 36.0698C5.51977 36.0698 5.44977 36.0198 5.41977 35.9898C5.38977 35.9598 5.33977 35.8898 5.33977 35.7898C5.33977 35.6398 5.44977 35.5198 5.59977 35.4998H8.23977H11.5498C12.0998 35.4998 12.5498 35.0498 12.5498 34.4998C12.5498 33.9498 12.0998 33.4998 11.5498 33.4998H5.62977C5.62977 33.4998 5.57977 33.4998 5.54977 33.4998H4.05977C3.93977 33.4998 3.76977 33.3298 3.76977 33.1398C3.76977 32.9798 3.89977 32.8498 4.05977 32.8498H11.6098C12.1598 32.8498 12.6098 32.3998 12.6098 31.8498C12.6098 31.2998 12.1598 30.8498 11.6098 30.8498H5.62977C5.47977 30.8498 5.34977 30.6998 5.34977 30.5398C5.34977 30.3798 5.48977 30.2098 5.63977 30.2098H9.52977H11.5498C12.0998 30.2098 12.5498 29.7598 12.5498 29.2098C12.5498 28.6598 12.0998 28.2098 11.5498 28.2098H7.38977C7.22977 28.2098 7.09977 28.0798 7.09977 27.9298C7.09977 27.7798 7.22977 27.6398 7.38977 27.6398H16.7598C17.7998 27.6798 18.6698 27.9198 19.3698 28.4698C20.0898 29.0298 20.9998 29.3398 21.9398 29.3398H25.8698C25.6998 29.9298 25.5998 30.5598 25.5998 31.2298V40.5998C25.5998 41.8598 26.6298 42.8898 27.8898 42.8898C28.0098 42.8898 28.1198 42.8898 28.2298 42.8598C28.4598 43.8798 29.3898 44.6498 30.4998 44.6498C30.6398 44.6498 30.7798 44.6398 30.9098 44.6098C31.1998 45.5398 32.0698 46.2198 33.0998 46.2198C34.1298 46.2198 35.0398 45.5298 35.3498 44.6098C35.4798 44.6298 35.6098 44.6398 35.7398 44.6398C36.9998 44.6398 38.0298 43.6098 38.0298 42.3498V37.1098C38.6898 38.1098 40.0298 38.4398 41.0798 37.8298C41.8398 37.3898 42.2798 36.5898 42.2198 35.7698C42.1998 35.4798 42.0998 35.1198 41.8898 34.6198L39.2298 27.8898C38.9898 27.2898 38.6298 26.9798 38.3598 26.7598C38.0798 26.5198 37.9498 26.4098 37.9498 25.6198V24.2698C37.9298 23.7198 37.4798 23.2798 36.9398 23.2798C36.3898 23.2798 35.9398 23.7398 35.9498 24.2898V25.6298C35.9598 27.2098 36.5198 27.8098 37.0798 28.2898C37.2698 28.4498 37.3298 28.5098 37.3798 28.6298L40.0498 35.3698C40.2198 35.7898 40.2398 35.9298 40.2398 35.9298C40.2398 35.9598 40.1998 36.0498 40.0898 36.0998C39.9498 36.1798 39.7798 36.1298 39.7398 36.0698L37.9298 32.1998C37.7298 31.7698 37.2598 31.5398 36.7998 31.6498C36.3398 31.7598 36.0198 32.1698 36.0298 32.6398L36.0498 42.3498C36.0498 42.5098 35.9198 42.6398 35.7598 42.6398C35.5998 42.6398 35.4898 42.5198 35.4698 42.3798V39.7498V36.4398C35.4698 35.8898 35.0198 35.4398 34.4698 35.4398C33.9198 35.4398 33.4698 35.8898 33.4698 36.4398V42.3598C33.4698 42.3598 33.4698 42.3998 33.4698 42.4298V43.9398C33.4698 44.0798 33.2898 44.2298 33.1098 44.2298C32.9498 44.2298 32.8198 44.0998 32.8198 43.9398V36.3898C32.8198 35.8398 32.3698 35.3898 31.8198 35.3898C31.2698 35.3898 30.8198 35.8398 30.8198 36.3898V42.3598C30.8198 42.5098 30.6698 42.6498 30.5098 42.6498C30.3498 42.6498 30.1798 42.5098 30.1798 42.3598V38.8798V36.4398C30.1798 35.8898 29.7298 35.4398 29.1798 35.4398C28.6298 35.4398 28.1798 35.8898 28.1798 36.4398V40.5898C28.1798 40.7498 28.0498 40.8798 27.8998 40.8798C27.7498 40.8798 27.6098 40.7498 27.6098 40.5898V31.2198C27.6098 30.1898 27.8898 29.3098 28.4398 28.6098C28.9998 27.8898 29.3098 26.9798 29.3098 26.0398V22.0898C29.9198 22.2698 30.5598 22.3698 31.2598 22.3698H40.6398C41.8998 22.3698 42.9298 21.3398 42.9298 20.0798C42.9298 19.9598 42.9298 19.8498 42.8998 19.7398C43.9198 19.5098 44.6898 18.5798 44.6898 17.4698C44.6898 17.3298 44.6798 17.1898 44.6498 17.0598C45.5798 16.7698 46.2598 15.8998 46.2598 14.8698L46.2498 14.8498ZM20.6998 26.9198V21.9298C20.6998 21.4498 20.8498 20.9998 21.1198 20.6398H26.0698C26.5198 20.6398 26.9498 20.7798 27.2998 21.0198V26.0098C27.2998 26.4898 27.1498 26.9398 26.8798 27.2998H21.9298C21.4798 27.2998 21.0498 27.1598 20.6998 26.9198Z" fill="#323232"/>
</svg>
