<svg width="70" height="70" viewBox="0 0 70 70" fill="none" xmlns="http://www.w3.org/2000/svg">
<g clip-path="url(#clip0_15605_1548)">
<path d="M36.3373 8.3537L36.5019 11.1109C36.6253 12.8393 35.5554 13.9916 33.7447 14.0739L30.9875 14.2385L30.4937 5.88456L33.2509 5.71995C35.0616 5.5965 36.255 6.6253 36.3373 8.3537ZM31.8517 6.99567L32.222 12.9628L33.7035 12.8804C34.7323 12.7981 35.2673 12.1397 35.2262 11.1521L35.0616 8.39485C35.0204 7.44835 34.362 6.83106 33.3332 6.87222L31.8517 6.95452V6.99567Z" fill="#DF0000"/>
<path d="M44.6911 13.2921C44.1973 14.897 42.7981 15.5555 41.152 15.0616C39.547 14.5678 38.724 13.2098 39.2178 11.6048L40.1232 8.60073C40.617 6.99579 41.9339 6.2962 43.6623 6.83118C45.3084 7.32501 46.0903 8.68303 45.5964 10.288L44.6911 13.2921ZM40.4524 12.0164C40.1643 12.8806 40.5347 13.6625 41.4812 13.9505C42.4277 14.2386 43.1273 13.7859 43.4154 12.9217L44.3207 9.9176C44.6088 9.0534 44.2384 8.27151 43.2919 7.98344C42.3454 7.69538 41.6458 8.14805 41.3577 9.01225L40.4524 12.0164Z" fill="#DF0000"/>
<path d="M55.1026 13.4567L51.6047 18.0246C50.5759 19.3414 49.0533 19.506 47.7364 18.4772C46.4195 17.4484 46.1726 15.9258 47.2014 14.6089L50.6993 10.041L51.7281 10.8229L48.2302 15.3908C47.6541 16.1316 47.6952 16.9546 48.436 17.5307C49.1767 18.1069 49.9998 17.9422 50.5347 17.2015L54.0327 12.6336L55.0615 13.4155L55.1026 13.4567Z" fill="#DF0000"/>
<path d="M58.4771 17.2013L59.9997 19.6293C60.8228 20.905 60.6582 22.263 59.5471 22.9626C58.7652 23.4565 57.9833 23.4153 57.3249 22.9215C57.5718 23.8268 57.2425 24.6499 56.3783 25.1848C55.1849 25.9256 53.8681 25.5141 53.045 24.2383L51.3989 21.6046L58.4771 17.1602V17.2013ZM55.2261 20.7816L53.0039 22.1807L53.8681 23.5388C54.3619 24.2795 55.0615 24.4853 55.7199 24.0326C56.4195 23.6211 56.5841 22.8803 56.0903 22.1396L55.2261 20.7404V20.7816ZM58.2714 18.8886L56.1726 20.2054L56.9545 21.44C57.4072 22.1396 58.0656 22.3453 58.7652 21.9338C59.4236 21.5223 59.5059 20.8227 59.0532 20.1231L58.3125 18.9297L58.2714 18.8886Z" fill="#DF0000"/>
<path d="M56.4198 29.3001L57.2017 32.6334L56.0494 32.9215L54.9795 28.3124L63.1276 26.4194L63.4157 27.6952L56.4198 29.3412V29.3001Z" fill="#DF0000"/>
<path d="M59.6296 36.337L57.1605 36.0901L56.7901 39.835L55.5967 39.7115L56.0494 34.6909L64.3621 35.4728L63.9094 40.4111L62.716 40.2876L63.0452 36.6662L60.6996 36.4605L60.4115 39.7526L59.2592 39.6292L59.5473 36.337H59.6296Z" fill="#DF0000"/>
<path d="M14.0328 32.4279V35.1851C14.0328 36.8312 12.9628 38.0657 11.3167 38.0246C9.62946 38.0246 8.55951 36.79 8.55951 35.1439V33.7036H5.6377V32.3867H13.9916L14.0328 32.4279ZM12.8805 33.7036H9.75292V35.0205C9.75292 36.0081 10.3702 36.6666 11.3579 36.6666C12.3044 36.6666 12.9216 36.0493 12.9216 35.0616V33.7447L12.8805 33.7036Z" fill="#DF0000"/>
<path d="M10.9464 46.9958C9.38261 47.572 7.98344 46.8724 7.36615 45.2674C6.79002 43.6625 7.36615 42.2222 8.92994 41.646L11.8929 40.5761C13.4567 40 14.8147 40.6172 15.432 42.3045C16.0081 43.9094 15.432 45.3498 13.8682 45.9259L10.9052 46.9958H10.9464ZM9.42377 42.8806C8.55957 43.2098 8.14805 43.9506 8.51842 44.8559C8.84764 45.7613 9.62953 46.0905 10.4937 45.7613L13.4567 44.6913C14.3209 44.3621 14.7324 43.6214 14.362 42.716C14.0328 41.8107 13.2509 41.4814 12.3867 41.8107L9.42377 42.8806Z" fill="#DF0000"/>
<path d="M11.6872 52.8393L10.9053 51.7693L17.6542 46.8311L18.4361 47.901L11.6872 52.8393Z" fill="#DF0000"/>
<path d="M19.1357 59.8354L18.2715 59.177L19.2592 52.5927L15.6789 57.1606L14.7324 56.4198L19.8765 49.8354L20.7818 50.535L19.7941 56.9959L23.2921 52.5103L24.2386 53.2511L19.0946 59.8354H19.1357Z" fill="#DF0000"/>
<path d="M25.8023 54.0737L31.0287 55.8021L30.6583 56.9132L28.683 56.2548L26.4196 63.0861L25.1851 62.6746L27.4484 55.8433L25.4731 55.1848L25.8435 54.0737H25.8023Z" fill="#DF0000"/>
<path d="M36.6255 58.4363V58.1894C36.6255 57.4487 36.0905 56.9137 35.2263 56.9137C34.3621 56.9137 33.8683 57.3664 33.8683 58.0248C33.8683 58.4775 34.1563 58.8479 34.7736 59.0536L36.0493 59.5063C37.0782 59.8767 38.107 60.3705 38.1481 61.8931C38.1481 63.3746 37.037 64.4034 35.3909 64.4034C33.7037 64.4034 32.5103 63.4981 32.5103 62.0166V61.7697H33.786V62.0577C33.786 62.8396 34.3621 63.3335 35.3498 63.3335C36.3374 63.3335 36.8724 62.7985 36.8724 62.0577C36.8724 61.3582 36.4197 61.0289 35.7201 60.782L34.4856 60.3293C33.4156 59.9178 32.6749 59.3005 32.6749 58.1483C32.6749 56.8726 33.6625 55.8849 35.2675 55.8438C36.8724 55.8438 37.9835 56.7491 37.9835 58.2306V58.3952H36.6666L36.6255 58.4363Z" fill="#DF0000"/>
<path d="M56.5019 53.7859C56.5019 53.7859 56.5843 53.7859 56.6254 53.7859C56.7077 53.7859 56.7489 53.7859 56.79 53.7036C56.8312 53.6213 56.8723 53.4978 56.79 53.4155C52.469 48.8476 47.1604 45.185 41.1933 42.8394L39.3826 42.0986C38.4361 41.6871 37.8188 40.7818 37.8188 39.7529C37.9423 35.8435 47.1192 36.6665 48.0657 34.8147L48.2303 34.4855C46.3373 32.8394 44.1151 31.646 41.646 30.9464C41.646 31.0698 41.5225 31.4813 42.0575 32.3455C42.5925 33.2097 41.4814 34.6501 39.7941 33.1274L39.6295 33.004C27.4896 21.8517 21.8517 29.218 13.6213 16.255C13.539 16.1316 13.4567 16.0904 13.3332 16.1727C13.2098 16.255 13.1686 16.3373 13.2098 16.4608C19.7118 32.1398 33.0452 28.8476 34.6089 43.4567C34.6912 43.9916 35.0616 44.4443 35.6378 44.5266C43.0452 45.6789 50.2468 48.7653 56.5019 53.7859Z" fill="#DF0000"/>
<path d="M34.9794 70C15.679 70 0 54.2798 0 34.9794C0 15.679 15.679 0 34.9794 0C54.2798 0 69.9588 15.679 69.9588 34.9794C69.9588 54.2798 54.2798 69.9588 34.9794 69.9588V70ZM34.9794 2.18107C16.9136 2.18107 2.18107 16.9136 2.18107 34.9794C2.18107 53.0453 16.9136 67.8189 35.0206 67.8189C53.1276 67.8189 67.8601 53.0864 67.8601 34.9794C67.8601 16.8724 53.0864 2.18107 34.9794 2.18107Z" fill="#DF0000"/>
</g>
<defs>
<clipPath id="clip0_15605_1548">
<rect width="70" height="70" fill="white"/>
</clipPath>
</defs>
</svg>
