<svg width="48" height="48" viewBox="0 0 48 48" fill="none" xmlns="http://www.w3.org/2000/svg">
<path d="M24.0009 1.81006L6.96094 8.81006V13.9301L24.0009 6.94006L41.0409 13.9301V8.81006L24.0009 1.81006Z" fill="#8DE2E0"/>
<path d="M24.0009 47.1899C23.9409 47.1899 23.8909 47.1899 23.8309 47.1799C23.6509 47.1499 5.96094 43.8599 5.96094 22.7199V8.80994C5.96094 8.39994 6.21094 8.03994 6.58094 7.87994L23.6209 0.889941C23.8609 0.789941 24.1409 0.789941 24.3809 0.889941L41.4209 7.88994C41.8009 8.03994 42.0409 8.40994 42.0409 8.81994V22.7299C42.0409 43.8699 24.3509 47.1599 24.1709 47.1899C24.1109 47.1899 24.0609 47.1999 24.0009 47.1999V47.1899ZM7.96094 9.47994V22.7199C7.96094 41.2899 22.1709 44.7999 24.0009 45.1699C25.8309 44.7999 40.0409 41.2799 40.0409 22.7199V9.47994L24.0009 2.88994L7.96094 9.47994Z" fill="#323232"/>
<path d="M32.8606 29.48V22.64C32.8606 22.41 32.8106 22.18 32.7106 21.98L31.7106 19.87L30.3106 16.89C29.9706 16.18 29.1406 15.71 28.2106 15.71H19.7906C18.8606 15.71 18.0106 16.18 17.6906 16.89L16.2906 19.87L15.2906 21.98C15.1906 22.19 15.1406 22.41 15.1406 22.64V29.48V31.03C15.1406 31.73 15.7006 32.29 16.4006 32.29H17.3506C18.0506 32.29 18.6106 31.73 18.6106 31.03V29.48H29.3806V31.03C29.3806 31.73 29.9406 32.29 30.6406 32.29H31.5906C32.2906 32.29 32.8506 31.73 32.8506 31.03V29.48H32.8606ZM19.0706 20.44L20.0606 18.35C20.2206 18.02 20.6106 17.79 21.0506 17.79H26.9506C27.3906 17.79 27.7906 18.01 27.9506 18.35L28.9406 20.44L29.6706 21.99H18.3406L19.0706 20.44ZM19.1606 27.23C18.3706 27.23 17.7406 26.59 17.7406 25.81C17.7406 25.03 18.3806 24.39 19.1606 24.39C19.9406 24.39 20.5806 25.03 20.5806 25.81C20.5806 26.59 19.9406 27.23 19.1606 27.23ZM28.6806 27.23C27.8906 27.23 27.2606 26.59 27.2606 25.81C27.2606 25.03 27.9006 24.39 28.6806 24.39C29.4606 24.39 30.1006 25.03 30.1006 25.81C30.1006 26.59 29.4606 27.23 28.6806 27.23Z" fill="#DF0000"/>
</svg>
