<svg width="48" height="48" viewBox="0 0 48 48" fill="none" xmlns="http://www.w3.org/2000/svg">
<path d="M3.07086 45.9301C2.81086 45.9301 2.56086 45.8301 2.36086 45.6401C1.97086 45.2501 1.97086 44.6201 2.36086 44.2301L20.0309 26.5601C20.4209 26.1701 21.0509 26.1701 21.4409 26.5601C21.8309 26.9501 21.8309 27.5801 21.4409 27.9701L3.78086 45.6301C3.58086 45.8301 3.33086 45.9201 3.07086 45.9201V45.9301Z" fill="#DF0000"/>
<path d="M45.6298 2.36965C45.2398 1.97965 44.6098 1.97965 44.2198 2.36965L35.5898 10.9996C35.8898 11.6696 36.1298 12.3696 36.3298 13.0896L45.6398 3.77965C46.0298 3.38965 46.0298 2.75965 45.6398 2.36965H45.6298Z" fill="#DF0000"/>
<path d="M33.3696 7.65966C31.1096 5.26966 28.0796 4.07966 24.5396 4.19966C16.2496 4.49966 12.9196 9.34966 11.5896 13.3797C10.3396 17.1497 12.1596 23.7097 12.2296 23.9897C12.3796 24.5197 12.9296 24.8297 13.4596 24.6797C13.9896 24.5297 14.2996 23.9797 14.1496 23.4497C14.1296 23.3897 12.4196 17.1997 13.4796 14.0097C15.1296 9.03966 18.8696 6.40966 24.5996 6.19966C27.5196 6.08966 30.0496 7.06966 31.8996 9.02966C34.0096 11.2597 35.0796 14.5997 34.7796 17.9797C34.4396 21.7897 33.0896 23.7797 31.5296 26.0797C30.1996 28.0497 28.6896 30.2797 27.8096 33.8597C26.3496 39.8097 25.3696 41.6797 22.1296 41.7997C20.8396 41.8497 19.8296 41.4297 19.1696 40.5697C18.3296 39.4597 18.1196 37.6697 18.6496 35.9997C18.8196 35.4697 18.5196 34.9097 17.9996 34.7497C17.4696 34.5797 16.9096 34.8797 16.7496 35.3997C16.0296 37.6997 16.3496 40.1497 17.5896 41.7797C18.2996 42.7097 19.6296 43.7997 21.9396 43.7997C22.0296 43.7997 22.1196 43.7997 22.2096 43.7997C27.1296 43.6197 28.3396 40.1097 29.7596 34.3397C30.5596 31.0997 31.8996 29.1197 33.1896 27.1997C34.7596 24.8797 36.3796 22.4797 36.7696 18.1597C37.1296 14.2197 35.8496 10.2897 33.3496 7.65966H33.3696Z" fill="#323232"/>
<path d="M28.8493 22.9293C29.2893 23.2693 29.9093 23.1893 30.2493 22.7593C32.3593 20.0493 32.8693 16.4993 31.5793 13.4993C30.5993 11.2393 28.7093 9.6993 26.2493 9.1693C23.4793 8.5693 20.4592 9.3793 18.3792 11.2793C15.1092 14.2593 14.8293 19.5393 17.7493 23.2993C17.9493 23.5493 18.2393 23.6893 18.5393 23.6893C18.7493 23.6893 18.9693 23.6193 19.1493 23.4793C19.5893 23.1393 19.6693 22.5093 19.3293 22.0793C18.8893 21.5093 18.5493 20.8993 18.2893 20.2493C21.2093 19.9693 23.7593 21.1793 24.8293 23.4493C25.9893 25.9393 25.3193 29.6393 23.3393 31.6993C22.9593 32.0993 22.9693 32.7293 23.3693 33.1093C23.5593 33.2993 23.8092 33.3893 24.0592 33.3893C24.3092 33.3893 24.5793 33.2893 24.7793 33.0793C27.3693 30.3893 28.1692 25.8893 26.6392 22.5993C25.1593 19.4593 21.6892 17.7993 17.8093 18.2793C17.5793 16.2093 18.2293 14.1193 19.7293 12.7493C21.3493 11.2793 23.6793 10.6493 25.8293 11.1093C27.6392 11.4993 29.0293 12.6293 29.7493 14.2793C30.7593 16.6093 30.3493 19.3893 28.6793 21.5193C28.3393 21.9593 28.4193 22.5793 28.8493 22.9193V22.9293Z" fill="#323232"/>
</svg>
