<svg width="48" height="48" viewBox="0 0 48 48" fill="none" xmlns="http://www.w3.org/2000/svg">
<path d="M14.5991 21.5298H8.78906C8.37485 21.5298 8.03906 21.8656 8.03906 22.2798V28.0898C8.03906 28.504 8.37485 28.8398 8.78906 28.8398H14.5991C15.0133 28.8398 15.3491 28.504 15.3491 28.0898V22.2798C15.3491 21.8656 15.0133 21.5298 14.5991 21.5298Z" fill="#8DE2E0"/>
<path d="M28.1791 30.9399H22.3691C21.9549 30.9399 21.6191 31.2757 21.6191 31.6899V37.4999C21.6191 37.9142 21.9549 38.2499 22.3691 38.2499H28.1791C28.5934 38.2499 28.9291 37.9142 28.9291 37.4999V31.6899C28.9291 31.2757 28.5934 30.9399 28.1791 30.9399Z" fill="#8DE2E0"/>
<path d="M29.9506 11.5899L29.9492 8.87988L9.13922 8.89078L9.14064 11.6008L29.9506 11.5899Z" fill="#8DE2E0"/>
<path d="M37.1309 8.66016H34.3309C33.7809 8.66016 33.3309 9.11016 33.3309 9.66016V16.3602H3.88086C3.33086 16.3602 2.88086 16.8102 2.88086 17.3602V41.8202C2.88086 42.3702 3.33086 42.8202 3.88086 42.8202H37.1409C41.7709 42.8202 45.1309 39.7502 45.1309 35.5302V16.6502C45.1309 12.2402 41.5509 8.66016 37.1409 8.66016H37.1309ZM37.1309 40.8202H4.88086V18.3602H33.3409V29.2402C33.3409 29.7902 33.7909 30.2402 34.3409 30.2402H37.1409C40.6709 30.2402 43.1309 32.4202 43.1309 35.5302C43.1309 38.6402 40.6709 40.8202 37.1409 40.8202H37.1309ZM43.1209 30.5402C41.6909 29.1002 39.5909 28.2302 37.1309 28.2302H35.3309V10.6602H37.1309C40.4309 10.6602 43.1209 13.3502 43.1209 16.6502V30.5502V30.5402Z" fill="#323232"/>
<path d="M8.79102 29.85H14.601C15.571 29.85 16.351 29.06 16.351 28.1V22.29C16.351 21.32 15.561 20.54 14.601 20.54H8.79102C7.82102 20.54 7.04102 21.33 7.04102 22.29V28.1C7.04102 29.07 7.83102 29.85 8.79102 29.85ZM9.04102 22.53H14.351V27.84H9.04102V22.53Z" fill="#323232"/>
<path d="M28.1811 29.9399H22.3711C21.4011 29.9399 20.6211 30.7299 20.6211 31.6899V37.4999C20.6211 38.4699 21.4111 39.2499 22.3711 39.2499H28.1811C29.1511 39.2499 29.9311 38.4599 29.9311 37.4999V31.6899C29.9311 30.7199 29.1411 29.9399 28.1811 29.9399ZM27.9411 37.2499H22.6311V31.9399H27.9411V37.2499Z" fill="#323232"/>
<path d="M28.941 21.5801H19.541C18.991 21.5801 18.541 22.0301 18.541 22.5801C18.541 23.1301 18.991 23.5801 19.541 23.5801H28.941C29.491 23.5801 29.941 23.1301 29.941 22.5801C29.941 22.0301 29.491 21.5801 28.941 21.5801Z" fill="#323232"/>
<path d="M28.941 25.7598H19.541C18.991 25.7598 18.541 26.2098 18.541 26.7598C18.541 27.3098 18.991 27.7598 19.541 27.7598H28.941C29.491 27.7598 29.941 27.3098 29.941 26.7598C29.941 26.2098 29.491 25.7598 28.941 25.7598Z" fill="#323232"/>
<path d="M17.441 32.0298H8.04102C7.49102 32.0298 7.04102 32.4798 7.04102 33.0298C7.04102 33.5798 7.49102 34.0298 8.04102 34.0298H17.441C17.991 34.0298 18.441 33.5798 18.441 33.0298C18.441 32.4798 17.991 32.0298 17.441 32.0298Z" fill="#323232"/>
<path d="M17.441 36.21H8.04102C7.49102 36.21 7.04102 36.66 7.04102 37.21C7.04102 37.76 7.49102 38.21 8.04102 38.21H17.441C17.991 38.21 18.441 37.76 18.441 37.21C18.441 36.66 17.991 36.21 17.441 36.21Z" fill="#323232"/>
<path d="M3.83031 9.76992L8.65031 12.4699C8.65031 12.4699 8.70031 12.4899 8.72031 12.4999C8.75031 12.5099 8.77031 12.5199 8.80031 12.5299C8.91031 12.5699 9.02031 12.5999 9.14031 12.5999H28.9303C30.0403 12.5899 30.9403 11.6799 30.9403 10.5699V7.17992C30.9403 6.63992 30.7303 6.13992 30.3503 5.75992C29.9703 5.37992 29.4703 5.16992 28.9303 5.16992H9.14031C9.14031 5.16992 9.13031 5.17992 9.12031 5.17992C9.01031 5.17992 8.90031 5.20992 8.80031 5.24992C8.77031 5.25992 8.75031 5.26992 8.72031 5.27992C8.70031 5.28992 8.68031 5.28992 8.65031 5.30992L3.83031 8.01992C3.51031 8.19992 3.32031 8.52992 3.32031 8.88992C3.32031 9.24992 3.52031 9.57992 3.83031 9.75992V9.76992ZM28.9503 7.19992V10.5899H29.9503L10.1403 10.6099V8.90992V7.19992H28.9503ZM8.14031 7.89992V8.89992V9.88992L6.36031 8.88992L8.14031 7.88992V7.89992Z" fill="#323232"/>
</svg>
