<svg width="48" height="48" viewBox="0 0 48 48" fill="none" xmlns="http://www.w3.org/2000/svg">
<path d="M33.7394 30.3798H33.9594C34.9194 30.3798 35.4294 29.2398 34.7994 28.5198L29.4994 22.5298C28.8594 21.8098 29.3694 20.6698 30.3394 20.6698C31.3194 20.6698 31.8194 19.4998 31.1494 18.7898L24.8094 12.0498C24.3694 11.5798 23.6194 11.5798 23.1794 12.0498L22.0494 13.2498C21.6394 13.6898 21.6494 14.3698 22.0694 14.7998L25.9794 18.7598C26.6794 19.4698 26.1794 20.6598 25.1894 20.6598H25.0594C24.0894 20.6598 23.5794 21.7998 24.2294 22.5198L29.5794 28.4998C30.2194 29.2198 29.7094 30.3598 28.7494 30.3598H27.5894C26.6394 30.3598 26.1294 31.4598 26.7294 32.1898L32.7994 39.4798C33.0094 39.7298 33.3294 39.8798 33.6594 39.8798H37.1994C38.1594 39.8798 38.6694 38.7398 38.0394 38.0198L32.8994 32.2098C32.2594 31.4898 32.7694 30.3498 33.7394 30.3498V30.3798Z" fill="#8DE2E0"/>
<path d="M24.1707 2.53961L25.0007 5.09961H27.6907C27.8607 5.09961 27.9407 5.31961 27.8007 5.41961L25.6307 6.99961L26.4607 9.55961C26.5107 9.72961 26.3207 9.85961 26.1807 9.75961L24.0107 8.17961L21.8407 9.75961C21.7007 9.85961 21.5107 9.71961 21.5607 9.55961L22.3907 6.99961L20.2207 5.41961C20.0807 5.31961 20.1507 5.09961 20.3307 5.09961H23.0207L23.8507 2.53961C23.9007 2.36961 24.1407 2.36961 24.1907 2.53961H24.1707Z" fill="#DF0000"/>
<path d="M40.4308 39.25L33.4708 31.39H36.4308C36.8208 31.39 37.1808 31.16 37.3408 30.8C37.5008 30.44 37.4408 30.02 37.1808 29.73L30.0708 21.69H32.9108C33.3108 21.69 33.6708 21.45 33.8308 21.09C33.9908 20.73 33.9108 20.3 33.6408 20.01L24.7208 10.52C24.5308 10.32 24.2708 10.21 23.9908 10.21C23.7108 10.21 23.4508 10.32 23.2608 10.53L14.3608 20.02C14.0908 20.31 14.0108 20.74 14.1708 21.1C14.3308 21.47 14.6908 21.7 15.0908 21.7H17.9208L10.8108 29.74C10.5508 30.03 10.4908 30.45 10.6508 30.81C10.8108 31.17 11.1708 31.4 11.5608 31.4H14.5208L7.56076 39.26C7.30076 39.55 7.24076 39.97 7.40076 40.33C7.56076 40.69 7.92076 40.92 8.31076 40.92H18.7408V44.21C18.7408 45.53 19.8108 46.6 21.1308 46.6H26.8708C28.1908 46.6 29.2608 45.53 29.2608 44.21V40.92H39.6908C40.0808 40.92 40.4408 40.69 40.6008 40.33C40.7608 39.97 40.7008 39.55 40.4408 39.26L40.4308 39.25ZM27.2608 44.2C27.2608 44.41 27.0908 44.59 26.8708 44.59H21.1308C20.9208 44.59 20.7408 44.42 20.7408 44.2V40.91H27.2508V44.2H27.2608ZM28.2608 38.91H10.5408L17.5008 31.05C17.7608 30.76 17.8208 30.34 17.6608 29.98C17.5008 29.62 17.1408 29.39 16.7508 29.39H13.7908L20.9008 21.35C21.1608 21.06 21.2208 20.64 21.0608 20.28C20.9008 19.92 20.5408 19.69 20.1508 19.69H17.4108L24.0008 12.67L30.6108 19.69H27.8608C27.4708 19.69 27.1108 19.92 26.9508 20.28C26.7908 20.64 26.8508 21.06 27.1108 21.35L34.2208 29.39H31.2608C30.8708 29.39 30.5108 29.62 30.3508 29.98C30.1908 30.34 30.2508 30.76 30.5108 31.05L37.4708 38.91H28.2608Z" fill="#323232"/>
</svg>
