<svg width="24" height="24" viewBox="0 0 24 24" fill="none" xmlns="http://www.w3.org/2000/svg">
<rect x="0.25" y="0.25" width="23.5" height="23.5" rx="11.75" fill="white"/>
<rect x="0.25" y="0.25" width="23.5" height="23.5" rx="11.75" stroke="#CCCAC8" stroke-width="0.5"/>
<path d="M13.9444 11.8056C13.6722 11.8056 13.4423 11.7114 13.2546 11.5232C13.0663 11.3355 12.9722 11.1056 12.9722 10.8333C12.9722 10.5611 13.0663 10.3311 13.2546 10.1434C13.4423 9.95522 13.6722 9.86111 13.9444 9.86111C14.2167 9.86111 14.4466 9.95522 14.6343 10.1434C14.8226 10.3311 14.9167 10.5611 14.9167 10.8333C14.9167 11.1056 14.8226 11.3355 14.6343 11.5232C14.4466 11.7114 14.2167 11.8056 13.9444 11.8056ZM10.0556 11.8056C9.78333 11.8056 9.55337 11.7114 9.36567 11.5232C9.17744 11.3355 9.08333 11.1056 9.08333 10.8333C9.08333 10.5611 9.17744 10.3311 9.36567 10.1434C9.55337 9.95522 9.78333 9.86111 10.0556 9.86111C10.3278 9.86111 10.5577 9.95522 10.7454 10.1434C10.9337 10.3311 11.0278 10.5611 11.0278 10.8333C11.0278 11.1056 10.9337 11.3355 10.7454 11.5232C10.5577 11.7114 10.3278 11.8056 10.0556 11.8056ZM12 15.8889C11.2222 15.8889 10.5191 15.675 9.89067 15.2472C9.2617 14.8194 8.79815 14.2556 8.5 13.5556H15.5C15.2019 14.2556 14.7386 14.8194 14.1101 15.2472C13.4811 15.675 12.7778 15.8889 12 15.8889ZM12 19C11.0278 19 10.1173 18.8154 9.26844 18.4462C8.41911 18.0765 7.68022 17.5772 7.05178 16.9482C6.42281 16.3198 5.92348 15.5809 5.55378 14.7316C5.18459 13.8827 5 12.9722 5 12C5 11.0278 5.18459 10.117 5.55378 9.26767C5.92348 8.41885 6.42281 7.67996 7.05178 7.051C7.68022 6.42256 8.41911 5.92348 9.26844 5.55378C10.1173 5.18459 11.0278 5 12 5C12.9722 5 13.883 5.18459 14.7323 5.55378C15.5811 5.92348 16.32 6.42256 16.949 7.051C17.5774 7.67996 18.0765 8.41885 18.4462 9.26767C18.8154 10.117 19 11.0278 19 12C19 12.9722 18.8154 13.8827 18.4462 14.7316C18.0765 15.5809 17.5774 16.3198 16.949 16.9482C16.32 17.5772 15.5811 18.0765 14.7323 18.4462C13.883 18.8154 12.9722 19 12 19ZM12 17.4444C13.5037 17.4444 14.787 16.913 15.85 15.85C16.913 14.787 17.4444 13.5037 17.4444 12C17.4444 10.4963 16.913 9.21296 15.85 8.15C14.787 7.08704 13.5037 6.55556 12 6.55556H11.7667C11.6889 6.55556 11.6111 6.56852 11.5333 6.59444C11.4556 6.67222 11.4037 6.75648 11.3778 6.84722C11.3519 6.93796 11.3389 7.03519 11.3389 7.13889C11.3389 7.41111 11.4327 7.64107 11.6204 7.82878C11.8087 8.017 12.0389 8.11111 12.3111 8.11111C12.4278 8.11111 12.5346 8.09167 12.6316 8.05278C12.729 8.01389 12.8296 7.99444 12.9333 7.99444C13.0889 7.99444 13.2185 8.05278 13.3222 8.16944C13.4259 8.28611 13.4778 8.42222 13.4778 8.57778C13.4778 8.87593 13.3386 9.067 13.0601 9.151C12.7811 9.23552 12.5315 9.27778 12.3111 9.27778C11.7278 9.27778 11.2256 9.06726 10.8046 8.64622C10.383 8.22467 10.1722 7.72222 10.1722 7.13889V7.02222C10.1722 6.98333 10.1787 6.93148 10.1917 6.86667C9.11574 7.25556 8.24074 7.91019 7.56667 8.83056C6.89259 9.75093 6.55556 10.8074 6.55556 12C6.55556 13.5037 7.08704 14.787 8.15 15.85C9.21296 16.913 10.4963 17.4444 12 17.4444Z" fill="#323232"/>
</svg>
