<svg width="48" height="48" viewBox="0 0 48 48" fill="none" xmlns="http://www.w3.org/2000/svg">
<path d="M24.0009 1.81006L6.96094 8.81006V13.9301L24.0009 6.94006L41.0409 13.9301V8.81006L24.0009 1.81006Z" fill="#8DE2E0"/>
<path d="M24.0009 47.1899C23.9409 47.1899 23.8909 47.1899 23.8309 47.1799C23.6509 47.1499 5.96094 43.8599 5.96094 22.7199V8.80994C5.96094 8.39994 6.21094 8.03994 6.58094 7.87994L23.6209 0.889941C23.8609 0.789941 24.1409 0.789941 24.3809 0.889941L41.4209 7.88994C41.8009 8.03994 42.0409 8.40994 42.0409 8.81994V22.7299C42.0409 43.8699 24.3509 47.1599 24.1709 47.1899C24.1109 47.1899 24.0609 47.1999 24.0009 47.1999V47.1899ZM7.96094 9.47994V22.7199C7.96094 41.2899 22.1709 44.7999 24.0009 45.1699C25.8309 44.7999 40.0409 41.2799 40.0409 22.7199V9.47994L24.0009 2.88994L7.96094 9.47994Z" fill="#323232"/>
<path d="M26.2391 20.77V20.29C26.2391 19.02 25.3991 18.13 24.0991 18.13C22.7991 18.13 22.0591 18.92 22.0591 19.99C22.0591 20.63 22.3391 21.44 23.3791 21.85L25.5891 22.72C27.5491 23.51 29.6891 24.58 29.6891 27.66C29.6891 30.38 27.9591 32.32 25.2391 32.67V35.24H22.9191V32.62C20.3191 32.19 18.6191 30.43 18.6191 27.83V27.27H21.7491V27.96C21.7491 29.31 22.6391 30.1 24.1691 30.1C25.6991 30.1 26.5891 29.21 26.5891 27.99C26.5891 26.95 26.0591 26.26 25.0091 25.83L22.6191 24.89C20.4291 24.02 18.9791 22.6 18.9791 20.23C18.9791 17.99 20.4291 16.08 22.9191 15.62V13.02H25.2391V15.62C27.7091 16.03 29.3591 17.81 29.3591 20.43V20.79H26.2291L26.2391 20.77Z" fill="#DF0000"/>
</svg>
