<svg width="48" height="48" viewBox="0 0 48 48" fill="none" xmlns="http://www.w3.org/2000/svg">
<path d="M11.9095 37.3402C11.6495 37.3402 11.3995 37.2402 11.1995 37.0502L8.16945 34.0202C7.77945 33.6302 7.77945 33.0002 8.16945 32.6102C8.55945 32.2202 9.18945 32.2202 9.57945 32.6102L11.9095 34.9402L16.6695 30.1802C17.0595 29.7902 17.6895 29.7902 18.0795 30.1802C18.4695 30.5702 18.4695 31.2002 18.0795 31.5902L12.6095 37.0602C12.4095 37.2602 12.1595 37.3502 11.8995 37.3502L11.9095 37.3402Z" fill="#DF0000"/>
<path d="M44.2501 22.7298C44.2501 22.0698 43.7101 21.5298 43.0501 21.5298H27.0301C26.3701 21.5298 25.8301 22.0698 25.8301 22.7298V27.6998C25.8301 28.3598 26.3701 28.8998 27.0301 28.8998H27.3501V26.1998C27.3501 25.6498 27.8001 25.1998 28.3501 25.1998C28.9001 25.1998 29.3501 25.6498 29.3501 26.1998V28.8998H40.6601V26.1998C40.6601 25.6498 41.1101 25.1998 41.6601 25.1998C42.2101 25.1998 42.6601 25.6498 42.6601 26.1998V28.8998H43.0501C43.7101 28.8998 44.2501 28.3598 44.2501 27.6998V22.7298Z" fill="#8DE2E0"/>
<path d="M13.43 22.6299C7.54 22.6299 2.75 27.4199 2.75 33.3099C2.75 39.1999 7.54 43.9899 13.43 43.9899C19.32 43.9899 24.11 39.1999 24.11 33.3099C24.11 27.4199 19.32 22.6299 13.43 22.6299ZM13.43 41.9799C8.65 41.9799 4.75 38.0899 4.75 33.2999C4.75 28.5099 8.64 24.6199 13.43 24.6199C18.22 24.6199 22.11 28.5099 22.11 33.2999C22.11 38.0899 18.22 41.9799 13.43 41.9799Z" fill="#323232"/>
<path d="M33.5196 13.1701C34.0196 13.3201 34.5296 13.4001 35.0396 13.4001C35.8896 13.4001 36.7296 13.1901 37.4896 12.7801C40.0296 11.4201 40.9896 8.25006 39.6396 5.71006C38.2796 3.17006 35.1096 2.21006 32.5696 3.56006C31.3396 4.22006 30.4396 5.31006 30.0296 6.65006C29.6196 7.99006 29.7596 9.40006 30.4196 10.6301C31.0796 11.8601 32.1696 12.7601 33.5096 13.1701H33.5196ZM31.9596 7.23006C32.2096 6.41006 32.7696 5.73006 33.5196 5.32006C33.9996 5.06006 34.5196 4.94006 35.0296 4.94006C36.1796 4.94006 37.2996 5.56006 37.8796 6.64006C38.7196 8.21006 38.1196 10.1601 36.5596 11.0001C34.9896 11.8401 33.0396 11.2401 32.1996 9.68006C31.7896 8.92006 31.7096 8.05006 31.9596 7.23006Z" fill="#323232"/>
<path d="M41.6502 16.24C40.9702 15.64 40.0702 15.3 39.1202 15.29L31.1302 15.22C29.1002 15.18 27.4602 16.68 27.4402 18.51L27.4102 21.53H29.4102L29.4402 18.53C29.4402 17.8 30.2102 17.21 31.1102 17.22L39.1002 17.29C39.5702 17.29 40.0002 17.45 40.3202 17.74C40.6002 17.99 40.7502 18.31 40.7502 18.63L40.7202 21.53H42.7202L42.7502 18.65C42.7502 17.74 42.3702 16.88 41.6502 16.24Z" fill="#323232"/>
<path d="M30.16 28.8999L29.23 43.9899C29.2 44.5399 29.62 45.0199 30.17 45.0499C30.19 45.0499 30.21 45.0499 30.23 45.0499C30.75 45.0499 31.19 44.6399 31.23 44.1099L32.16 28.9599C32.16 28.9599 32.16 28.9199 32.16 28.8999H30.17H30.16Z" fill="#323232"/>
<path d="M37.8892 28.8999C37.8892 28.8999 37.8792 28.9399 37.8892 28.9599L38.8192 44.1099C38.8492 44.6399 39.2892 45.0499 39.8192 45.0499C39.8392 45.0499 39.8592 45.0499 39.8792 45.0499C40.4292 45.0199 40.8492 44.5399 40.8192 43.9899L39.8892 28.8999H37.8992H37.8892Z" fill="#323232"/>
<path d="M41.6602 25.2002C41.1102 25.2002 40.6602 25.6502 40.6602 26.2002V28.9002C40.6602 29.4502 41.1102 29.9002 41.6602 29.9002C42.2102 29.9002 42.6602 29.4502 42.6602 28.9002V26.2002C42.6602 25.6502 42.2102 25.2002 41.6602 25.2002Z" fill="#323232"/>
<path d="M29.3496 26.2002C29.3496 25.6502 28.8996 25.2002 28.3496 25.2002C27.7996 25.2002 27.3496 25.6502 27.3496 26.2002V28.9002C27.3496 29.4502 27.7996 29.9002 28.3496 29.9002C28.8996 29.9002 29.3496 29.4502 29.3496 28.9002V26.2002Z" fill="#323232"/>
</svg>
