<svg width="48" height="48" viewBox="0 0 48 48" fill="none" xmlns="http://www.w3.org/2000/svg">
<path d="M36.6393 39.3499C39.4615 39.3499 41.7493 37.0621 41.7493 34.2399C41.7493 31.4177 39.4615 29.1299 36.6393 29.1299C33.8171 29.1299 31.5293 31.4177 31.5293 34.2399C31.5293 37.0621 33.8171 39.3499 36.6393 39.3499Z" fill="#DF0000"/>
<path d="M26.9993 21.3699L33.5993 16.9199L31.0593 14.3799L26.6093 20.9799C26.4293 21.2399 26.7293 21.5399 26.9993 21.3699Z" fill="#8DE2E0"/>
<path d="M45.33 3.0098L45 2.6798C43.91 1.5898 42 1.5898 40.91 2.6798L31.21 12.3798L27.87 11.8198C27.55 11.7698 27.23 11.8698 27 12.0998L26.54 12.5598V4.6998C26.54 4.1498 26.09 3.6998 25.54 3.6998H21.99C21.44 3.6998 20.99 4.1498 20.99 4.6998V18.1098L18.43 20.6698V4.6998C18.43 4.1498 17.98 3.6998 17.43 3.6998H13.88C13.33 3.6998 12.88 4.1498 12.88 4.6998V26.2298L10.32 28.7898V4.6998C10.32 4.1498 9.87 3.6998 9.32 3.6998H5.77C5.22 3.6998 4.77 4.1498 4.77 4.6998V34.3398L2.15 36.9498C1.96 37.1398 1.85 37.3998 1.86 37.6698C1.86 37.7998 1.92 40.8798 4.54 43.4998C7.16 46.1198 10.24 46.1798 10.37 46.1798C10.64 46.1798 10.89 46.0698 11.08 45.8898L13.09 43.8798C13.27 44.1298 13.55 44.3098 13.89 44.3098H17.44C17.99 44.3098 18.44 43.8598 18.44 43.3098V38.5298L21 35.9698V43.3198C21 43.8698 21.45 44.3198 22 44.3198H25.55C26.1 44.3198 26.55 43.8698 26.55 43.3198V30.4198L35.93 21.0398C36.16 20.8098 36.26 20.4898 36.21 20.1698L35.65 16.8298L45.35 7.1298C46.48 5.9998 46.48 4.1698 45.35 3.0398L45.33 3.0098ZM22.97 5.6998H24.52V14.5598L22.97 16.1098V5.6998ZM14.85 5.6998H16.4V22.6798L14.85 24.2298V5.6998ZM6.74 5.6998H8.29V30.7898L6.74 32.3398V5.6998ZM16.41 42.2998H14.86V42.0698L16.41 40.5198V42.2998ZM24.52 42.2998H22.97V33.9498L24.52 32.3998V42.2998ZM13.17 40.9298C13.17 40.9298 13.14 40.9598 13.13 40.9698L9.96 44.1398C9.2 44.0398 7.47 43.6398 5.92 42.0798C4.37 40.5198 3.97 38.7998 3.86 38.0398L6.41 35.4898C6.41 35.4898 6.44 35.4598 6.46 35.4398L28.04 13.8798L31.06 14.3798L33.62 16.9398L34.12 19.9598L13.17 40.9198V40.9298ZM43.91 5.6898L34.55 15.0498L32.95 13.4498L42.31 4.0898C42.65 3.7498 43.24 3.7498 43.57 4.0898L43.9 4.4198C44.25 4.7698 44.25 5.3398 43.9 5.6798L43.91 5.6898Z" fill="#323232"/>
</svg>
