<svg width="48" height="48" viewBox="0 0 48 48" fill="none" xmlns="http://www.w3.org/2000/svg">
<path d="M9 24.5201L36.38 12.5601H9V24.5201Z" fill="#8DE2E0"/>
<path d="M28.3 9.32007H19.71C19.16 9.32007 18.71 8.87007 18.71 8.32007C18.71 7.77007 19.16 7.32007 19.71 7.32007H28.3C28.85 7.32007 29.3 7.77007 29.3 8.32007C29.3 8.87007 28.85 9.32007 28.3 9.32007Z" fill="#DF0000"/>
<path d="M34.69 2.71997H13.31C10.38 2.71997 8 5.09997 8 8.02997V33.38C8 35.66 9.85 37.51 12.13 37.51H12.45L8.41 43.66C8.11 44.12 8.24 44.74 8.7 45.04C8.87 45.15 9.06 45.2 9.25 45.2C9.58 45.2 9.89 45.04 10.09 44.75L11.63 42.41C11.7 42.43 11.77 42.45 11.84 42.45H36.41L37.92 44.75C38.11 45.04 38.43 45.2 38.76 45.2C38.95 45.2 39.14 45.15 39.31 45.04C39.77 44.74 39.9 44.12 39.6 43.66L35.56 37.51H35.88C38.16 37.51 40.01 35.66 40.01 33.38V8.02997C40.01 5.09997 37.63 2.71997 34.7 2.71997H34.69ZM10 13.56H38V25.99H10V13.56ZM13.31 4.71997H34.69C36.52 4.71997 38 6.20997 38 8.02997V11.56H10V8.02997C10 6.19997 11.49 4.71997 13.31 4.71997ZM33.18 37.57L35.09 40.47H12.91L14.82 37.57C14.82 37.57 14.83 37.54 14.84 37.52H33.16C33.16 37.52 33.16 37.55 33.18 37.57ZM35.87 35.52H12.13C10.95 35.52 10 34.56 10 33.39V27.99H38V33.39C38 34.57 37.04 35.52 35.87 35.52Z" fill="#323232"/>
<path d="M13.9596 30.6599C13.4796 31.1399 13.4796 31.9099 13.9596 32.3899C14.1996 32.6299 14.5096 32.7499 14.8196 32.7499C15.1296 32.7499 15.4396 32.6299 15.6796 32.3899C16.1596 31.9099 16.1596 31.1399 15.6796 30.6599C15.1996 30.1799 14.4296 30.1799 13.9496 30.6599H13.9596Z" fill="#323232"/>
<path d="M33.15 30.6599C32.67 31.1399 32.67 31.9099 33.15 32.3899C33.39 32.6299 33.7 32.7499 34.01 32.7499C34.32 32.7499 34.63 32.6299 34.87 32.3899C35.35 31.9099 35.35 31.1399 34.87 30.6599C34.39 30.1799 33.62 30.1799 33.14 30.6599H33.15Z" fill="#323232"/>
</svg>
