<svg width="24" height="24" viewBox="0 0 24 24" fill="none" xmlns="http://www.w3.org/2000/svg">
<g clip-path="url(#clip0_10496_10120)">
<path d="M10 12H13.5V13.3C13.5 13.5333 13.6 13.6917 13.8 13.775C14 13.8583 14.1833 13.8167 14.35 13.65L16.3 11.7C16.5 11.5 16.6 11.2667 16.6 11C16.6 10.7333 16.5 10.5 16.3 10.3L14.35 8.35C14.1833 8.18333 14 8.14167 13.8 8.225C13.6 8.30833 13.5 8.46667 13.5 8.7V10H9C8.71667 10 8.47933 10.0957 8.288 10.287C8.096 10.479 8 10.7167 8 11V14C8 14.2833 8.096 14.5207 8.288 14.712C8.47933 14.904 8.71667 15 9 15C9.28333 15 9.521 14.904 9.713 14.712C9.90433 14.5207 10 14.2833 10 14V12ZM12 22C11.75 22 11.504 21.95 11.262 21.85C11.0207 21.75 10.8 21.6 10.6 21.4L2.6 13.4C2.4 13.2 2.25 12.9793 2.15 12.738C2.05 12.496 2 12.25 2 12C2 11.75 2.05 11.504 2.15 11.262C2.25 11.0207 2.4 10.8 2.6 10.6L10.6 2.6C10.8 2.4 11.0207 2.25 11.262 2.15C11.504 2.05 11.75 2 12 2C12.25 2 12.496 2.05 12.738 2.15C12.9793 2.25 13.2 2.4 13.4 2.6L21.4 10.6C21.6 10.8 21.75 11.0207 21.85 11.262C21.95 11.504 22 11.75 22 12C22 12.25 21.95 12.496 21.85 12.738C21.75 12.9793 21.6 13.2 21.4 13.4L13.4 21.4C13.2 21.6 12.9793 21.75 12.738 21.85C12.496 21.95 12.25 22 12 22ZM8 16L12 20L20 12L12 4L4 12L8 16Z" fill="#DF0000"/>
</g>
<defs>
<clipPath id="clip0_10496_10120">
<rect width="24" height="24" fill="white"/>
</clipPath>
</defs>
</svg>
