<svg width="24" height="24" viewBox="0 0 24 24" fill="none" xmlns="http://www.w3.org/2000/svg">
<g clip-path="url(#clip0_16335_6452)">
<path d="M17.3675 22.7316C23.295 19.7672 25.697 12.5589 22.7327 6.63143C19.7683 0.703939 12.56 -1.69813 6.6325 1.26625C0.705018 4.23064 -1.69705 11.4389 1.26733 17.3664C4.23171 23.2939 11.44 25.696 17.3675 22.7316Z" fill="white"/>
<mask id="mask0_16335_6452" style="mask-type:luminance" maskUnits="userSpaceOnUse" x="-1" y="-1" width="26" height="26">
<path d="M17.3675 22.7316C23.295 19.7672 25.697 12.5589 22.7327 6.63144C19.7683 0.703955 12.56 -1.69811 6.6325 1.26627C0.705018 4.23065 -1.69705 11.4389 1.26733 17.3664C4.23171 23.2939 11.44 25.696 17.3675 22.7316Z" fill="white"/>
</mask>
<g mask="url(#mask0_16335_6452)">
<path d="M29.9979 0H-6.00208V24H29.9979V0Z" fill="white"/>
<path d="M29.9979 18.0007H-6.00208V24.0014H29.9979V18.0007Z" fill="#FF0000"/>
<path d="M29.9979 0H-6.00208V5.9993H29.9979V0Z" fill="#FF0000"/>
<path fill-rule="evenodd" clip-rule="evenodd" d="M10.8248 8.1458C10.8737 8.12204 10.9072 8.07173 10.9072 8.01443C10.9072 7.93338 10.8415 7.8677 10.7605 7.8677C10.7521 7.8677 10.7437 7.8677 10.7353 7.8691C10.7074 7.87469 10.6794 7.88028 10.6515 7.88726C10.6459 7.88866 10.6403 7.89006 10.6347 7.89006C10.597 7.89006 10.5662 7.85932 10.5662 7.82158C10.5662 7.80482 10.5718 7.78944 10.583 7.77687C10.713 7.62734 10.8639 7.49737 11.0302 7.38697C11.3865 7.16059 11.673 6.83637 11.8533 6.45207C11.9316 7.06137 12.4235 7.5393 13.0369 7.60079C13.3486 7.62175 13.6323 7.74053 13.8614 7.9236C13.9942 8.034 14.1381 8.12903 14.2947 8.20589C14.3268 8.22405 14.3492 8.25899 14.3492 8.29952C14.3492 8.35821 14.3016 8.40572 14.243 8.40572C14.2122 8.40433 14.1801 8.40293 14.1479 8.40293C14.113 8.40293 14.0767 8.40293 14.0431 8.40712C13.976 8.40712 13.9215 8.46162 13.9215 8.5287C13.9215 8.56503 13.9369 8.59718 13.9621 8.61953C14.1912 8.83754 14.4624 9.01222 14.7628 9.12821C14.7894 9.1366 14.8075 9.16175 14.8075 9.1911C14.8075 9.22743 14.7782 9.25678 14.7418 9.25678C14.412 9.24001 14.099 9.15756 13.8153 9.022C13.7902 9.01082 13.7622 9.00384 13.7329 9.00384C13.6197 9.00384 13.5288 9.09467 13.5288 9.20787C13.5288 9.29032 13.5778 9.36159 13.6476 9.39373C13.902 9.50972 14.1284 9.67602 14.3142 9.88004C14.7516 10.3175 15.2701 10.6766 15.8416 10.9351C15.8864 10.9561 15.9171 11.0022 15.9171 11.0539C15.9171 11.1252 15.8584 11.1839 15.7871 11.1839C15.7816 11.1839 15.7746 11.1839 15.769 11.1839C15.5328 11.1489 15.3008 11.1028 15.0744 11.0441C15.0563 11.0385 15.0381 11.0357 15.0185 11.0357C14.9095 11.0357 14.8201 11.1238 14.8201 11.2342C14.8201 11.3362 14.897 11.42 14.9962 11.4312C15.4252 11.5011 15.8375 11.6171 16.2301 11.775C16.2763 11.7932 16.3098 11.8393 16.3098 11.891C16.3098 11.9595 16.2539 12.0168 16.184 12.0168C16.0429 12.0028 15.8989 11.9972 15.7536 11.9972C15.5105 11.9972 15.2715 12.0168 15.0381 12.0531C14.9585 12.0671 14.8998 12.1369 14.8998 12.2194C14.8998 12.313 14.9752 12.3885 15.0689 12.3885C15.4392 12.3927 15.7648 12.5744 15.9688 12.851C16.177 13.1263 16.4509 13.3485 16.7668 13.4953C16.8185 13.5204 16.8534 13.5749 16.8534 13.6364C16.8534 13.7217 16.7849 13.7915 16.6997 13.7943C16.4286 13.7915 16.1812 13.6909 15.9912 13.5232C15.9283 13.4603 15.8416 13.4212 15.7438 13.4212C15.551 13.4212 15.3959 13.5777 15.3959 13.7706C15.3959 13.9075 15.4755 14.0263 15.5915 14.0836C16.2399 14.3952 16.8297 14.8075 17.3439 15.2994C17.3803 15.3357 17.404 15.3874 17.404 15.4433C17.404 15.5565 17.3132 15.6474 17.2 15.6474C17.1511 15.6474 17.105 15.6292 17.07 15.6013C16.7598 15.3357 16.4272 15.0996 16.0722 14.8927C15.8794 14.7781 15.6544 14.7125 15.4126 14.7125C15.2547 14.7125 15.1024 14.7404 14.9626 14.7935C14.8257 14.8424 14.6776 14.8704 14.5238 14.8704C14.2234 14.8704 13.9467 14.7684 13.7273 14.5965C13.663 14.542 13.5792 14.5098 13.4883 14.5098C13.2829 14.5098 13.1166 14.6761 13.1166 14.8816V15.6502C13.1166 16.3545 13.5442 16.9582 14.1549 17.2167C14.215 17.2447 14.2569 17.3062 14.2569 17.376C14.2569 17.4725 14.1787 17.5521 14.0808 17.5521C14.0068 17.5521 13.9425 17.506 13.9173 17.4389C13.8349 17.2125 13.6155 17.0462 13.3626 17.0574C13.2983 17.0574 13.2284 17.0462 13.1725 17.0141C13.132 16.9917 13.0845 16.9791 13.0355 16.9791C12.8762 16.9791 12.7477 17.1077 12.7477 17.267C12.7477 17.2894 12.7505 17.3103 12.7547 17.3313C12.7547 17.3369 12.7575 17.3425 12.7575 17.3481C12.7575 17.3886 12.7253 17.4207 12.6848 17.4207C12.6596 17.4207 12.6373 17.4082 12.6233 17.3872C12.5772 17.3089 12.5045 17.2489 12.4193 17.2153C12.2558 17.151 12.1272 17.0183 12.0657 16.8548C12.021 16.7234 11.8966 16.6298 11.7499 16.6298C11.7177 16.6298 11.6744 16.6354 11.6451 16.6466C11.6018 16.6591 11.5654 16.6661 11.5193 16.6661C11.4606 16.6661 11.4047 16.6535 11.3544 16.6312C11.2426 16.5781 11.1168 16.5501 10.9841 16.5501C10.7227 16.5501 10.488 16.6647 10.3273 16.8464C10.119 17.07 9.8116 17.1678 9.51394 17.1077C9.45944 17.0965 9.39236 17.0895 9.33647 17.0895C9.04859 17.0895 8.79425 17.2279 8.63494 17.4417C8.61817 17.4669 8.58882 17.4822 8.55668 17.4822C8.50358 17.4822 8.46165 17.4389 8.46165 17.3872C8.46165 17.3648 8.46864 17.3453 8.48122 17.3299C8.62376 17.1482 8.81941 17.0113 9.0444 16.9414C9.76409 16.7388 10.474 15.9967 10.474 15.2253C10.474 14.8941 10.2057 14.6258 9.87449 14.6258C9.74313 14.6258 9.62295 14.6677 9.52373 14.739C8.90325 15.1988 8.13465 15.4713 7.30316 15.4713C7.20254 15.4741 7.12009 15.3944 7.12009 15.2938C7.12009 15.203 7.18717 15.1289 7.27521 15.1177C7.90407 15.0339 8.48401 14.7949 8.97313 14.4386C9.043 14.391 9.08912 14.31 9.08912 14.2192C9.08912 14.0724 8.97033 13.9536 8.8236 13.9536C8.7649 13.9536 8.70901 13.9732 8.66568 14.0054C8.10949 14.4036 7.44011 14.6552 6.71483 14.6971C6.64635 14.6971 6.59045 14.6468 6.59045 14.5769C6.59045 14.5154 6.63657 14.4651 6.69526 14.4581C6.86436 14.4316 7.01388 14.3421 7.1159 14.215C7.49461 13.7552 7.99071 13.3961 8.55808 13.185C8.68525 13.1361 8.77608 13.0118 8.77608 12.8664C8.77608 12.6778 8.62376 12.5254 8.4351 12.5254C8.34427 12.5254 8.26042 12.5618 8.20033 12.6191C8.04801 12.7574 7.86354 12.8608 7.65811 12.9153C7.64134 12.9195 7.62318 12.9223 7.60501 12.9223C7.48902 12.9223 7.39539 12.8287 7.39539 12.7127C7.39539 12.64 7.43312 12.5757 7.48902 12.538C7.65113 12.4262 7.79646 12.2907 7.91944 12.1369C8.06198 11.9567 8.2688 11.8295 8.50358 11.7904C8.88229 11.7163 9.18554 11.4284 9.28336 11.0581C9.29314 11.026 9.29873 10.9924 9.29873 10.9589C9.29873 10.7688 9.14501 10.6151 8.95496 10.6151C8.92282 10.6151 8.89207 10.6193 8.86412 10.6277C8.73136 10.6612 8.6042 10.7045 8.47982 10.7549C8.45746 10.7632 8.43371 10.7688 8.40995 10.7688C8.30374 10.7688 8.2185 10.6836 8.2185 10.5774C8.2185 10.5089 8.25483 10.4488 8.30933 10.4153C8.53712 10.2602 8.78028 10.1246 9.03601 10.0128C9.24843 9.92197 9.4287 9.76825 9.55307 9.5768C9.66207 9.39513 9.85912 9.27215 10.0841 9.26516C10.1917 9.26516 10.2798 9.17712 10.2798 9.06952C10.2798 8.97449 10.2113 8.89623 10.1232 8.87807C10.0645 8.86549 10.0058 8.8571 9.94716 8.8599C9.90383 8.8599 9.8689 8.82496 9.8689 8.78164C9.8689 8.75369 9.88287 8.72993 9.90523 8.71596C10.1903 8.49935 10.4992 8.3107 10.8262 8.15558L10.8248 8.1458ZM15.2701 13.0369C15.1639 12.9307 14.9571 12.9684 14.8061 13.1194C14.6552 13.2703 14.6189 13.4785 14.7237 13.5833C14.8299 13.6895 15.0367 13.6518 15.1876 13.5009C15.3386 13.3499 15.3749 13.1417 15.2701 13.0369ZM9.88846 12.2991C9.85492 12.1761 9.62993 12.13 9.38538 12.1956C9.14082 12.2613 8.96754 12.4136 9.00108 12.5366C9.03461 12.6596 9.25961 12.7057 9.50416 12.64C9.74872 12.5743 9.922 12.422 9.88846 12.2991ZM11.9204 11.5025C11.8421 11.5235 11.8114 11.659 11.8505 11.8057C11.8896 11.9525 11.9847 12.0545 12.0629 12.0335C12.1412 12.0126 12.1719 11.877 12.1328 11.7303C12.0937 11.5836 11.9986 11.4815 11.9204 11.5025ZM11.04 9.27215C10.9757 9.20787 10.8206 9.25818 10.6934 9.38534C10.5662 9.51251 10.5159 9.66763 10.5802 9.73191C10.6445 9.7962 10.7996 9.74589 10.9268 9.61872C11.0539 9.49155 11.1043 9.33643 11.04 9.27215ZM11.9525 8.87248C11.9064 8.79422 11.7443 8.8026 11.5878 8.89204C11.4327 8.98148 11.3432 9.11843 11.3879 9.19669C11.4341 9.27494 11.5962 9.26656 11.7513 9.17712C11.9064 9.08768 11.9958 8.95073 11.9511 8.87248H11.9525ZM13.0328 8.73413C12.9587 8.69081 12.8511 8.73692 12.7938 8.83614C12.7365 8.93536 12.7505 9.05135 12.8245 9.09467C12.8986 9.13799 13.0062 9.09188 13.0635 8.99266C13.1208 8.89344 13.1068 8.77745 13.0328 8.73413ZM10.604 8.59298C10.5285 8.59298 10.467 8.66845 10.467 8.76208C10.467 8.85571 10.5285 8.93117 10.604 8.93117C10.6794 8.93117 10.7409 8.85571 10.7409 8.76208C10.7409 8.66845 10.6794 8.59298 10.604 8.59298ZM12.3704 8.70199C12.2767 8.70199 12.2013 8.77745 12.2013 8.87108C12.2013 8.96471 12.2767 9.04017 12.3704 9.04017C12.464 9.04017 12.5394 8.96471 12.5394 8.87108C12.5394 8.77745 12.464 8.70199 12.3704 8.70199ZM12.4696 9.82415C12.3885 9.80318 12.2991 9.87725 12.2683 9.99184C12.2376 10.1064 12.2781 10.2168 12.3592 10.2378C12.4402 10.2602 12.5297 10.1847 12.5604 10.0701C12.5912 9.95551 12.5506 9.84511 12.4696 9.82275V9.82415ZM11.7974 9.88144C11.7038 9.88144 11.6269 9.9583 11.6269 10.0519C11.6269 10.1456 11.7038 10.2224 11.7974 10.2224C11.891 10.2224 11.9679 10.1456 11.9679 10.0519C11.9679 9.9583 11.891 9.88144 11.7974 9.88144ZM11.5459 13.343C11.4648 13.3891 11.4564 13.526 11.5277 13.6476C11.5976 13.7692 11.7205 13.8307 11.8002 13.7832C11.8812 13.737 11.8896 13.6001 11.8184 13.4785C11.7485 13.3569 11.6255 13.2954 11.5459 13.343ZM10.583 10.256C10.5299 10.1651 10.3902 10.147 10.2714 10.2154C10.1526 10.2839 10.0981 10.4139 10.1512 10.5061C10.2043 10.5969 10.344 10.6151 10.4628 10.5466C10.583 10.4782 10.6361 10.3482 10.5844 10.256H10.583ZM9.45385 10.3594C9.35463 10.4586 9.37979 10.6417 9.50835 10.7716C9.63692 10.9002 9.82138 10.9253 9.9206 10.8261C10.0184 10.7269 9.99467 10.5438 9.8661 10.4139C9.73754 10.2853 9.55307 10.2602 9.45385 10.3594ZM13.1697 9.94852C12.9838 9.94852 12.8329 10.0715 12.8329 10.2224C12.8329 10.3733 12.9838 10.4963 13.1697 10.4963C13.3556 10.4963 13.5065 10.3733 13.5065 10.2224C13.5065 10.0715 13.3556 9.94852 13.1697 9.94852ZM14.0082 10.8806C13.8782 10.8806 13.7734 10.9854 13.7734 11.1154C13.7734 11.2454 13.8782 11.3502 14.0082 11.3502C14.1381 11.3502 14.243 11.2454 14.243 11.1154C14.243 10.9854 14.1381 10.8806 14.0082 10.8806ZM10.2211 13.2996C10.1232 13.3262 10.0813 13.4813 10.126 13.6462C10.1707 13.8111 10.2853 13.9243 10.3818 13.8977C10.4796 13.8712 10.5215 13.7161 10.4768 13.5512C10.4321 13.3863 10.3175 13.2731 10.2211 13.2996ZM10.8723 13.4603C10.8122 13.4953 10.8122 13.6057 10.8709 13.7077C10.9296 13.8097 11.026 13.8642 11.0861 13.8293C11.1462 13.7943 11.1462 13.6839 11.0875 13.5819C11.0288 13.4799 10.9324 13.4254 10.8723 13.4603ZM10.6668 11.4829C10.6068 11.5179 10.5956 11.6087 10.6403 11.687C10.685 11.7652 10.7703 11.8002 10.8304 11.7666C10.8904 11.7317 10.9016 11.6408 10.8569 11.5626C10.8122 11.4843 10.7269 11.4494 10.6668 11.4829ZM11.4941 11.3124C11.4355 11.2971 11.3698 11.3502 11.3474 11.4326C11.3251 11.5151 11.3558 11.5933 11.4131 11.6101C11.4718 11.6255 11.5375 11.5724 11.5598 11.4899C11.5822 11.4075 11.5514 11.3292 11.4941 11.3124ZM12.429 11.6926C12.369 11.6926 12.3186 11.761 12.3186 11.8463C12.3186 11.9315 12.3676 12 12.429 12C12.4905 12 12.5394 11.9315 12.5394 11.8463C12.5394 11.761 12.4905 11.6926 12.429 11.6926ZM14.3478 12.9433C14.3086 12.7993 14.1102 12.7267 13.9048 12.7826C13.6993 12.8371 13.5624 12.9992 13.6015 13.1445C13.6406 13.2885 13.8391 13.3611 14.0445 13.3052C14.2499 13.2507 14.3869 13.0886 14.3478 12.9433Z" fill="#007C29"/>
</g>
</g>
<rect x="0.25" y="0.25" width="23.5" height="23.5" rx="11.75" stroke="#E5E3E1" stroke-width="0.5"/>
<defs>
<clipPath id="clip0_16335_6452">
<rect width="24" height="24" rx="12" fill="white"/>
</clipPath>
</defs>
</svg>
