<svg width="48" height="48" viewBox="0 0 48 48" fill="none" xmlns="http://www.w3.org/2000/svg">
<path d="M37.0999 33.7404C36.8399 33.7404 36.5899 33.6404 36.3899 33.4504L28.4699 25.5504C28.1799 25.2604 28.0999 24.8304 28.2499 24.4604C28.3999 24.0904 28.7699 23.8404 29.1699 23.8404H31.3399V18.1904C31.3399 17.6404 31.7899 17.1904 32.3399 17.1904H41.8399C42.3899 17.1904 42.8399 17.6404 42.8399 18.1904V23.8404H45.0099C45.4099 23.8404 45.7799 24.0804 45.9299 24.4604C46.0799 24.8304 45.9999 25.2604 45.7099 25.5504L37.7899 33.4504C37.5999 33.6404 37.3399 33.7404 37.0799 33.7404H37.0999ZM31.5899 25.8404L37.0899 31.3304L42.5899 25.8404H41.8399C41.2899 25.8404 40.8399 25.3904 40.8399 24.8404V19.1904H33.3399V24.8404C33.3399 25.3904 32.8899 25.8404 32.3399 25.8404H31.5899Z" fill="#323232"/>
<path d="M35.559 16.6599C35.249 16.6599 34.939 16.5199 34.749 16.2499C33.879 15.0599 33.289 13.6899 32.939 12.0999C32.859 12.5099 32.769 12.9199 32.659 13.3299C32.349 14.5699 31.499 15.3099 30.389 15.3299C28.399 15.3499 26.669 14.8899 25.239 13.9299C24.189 13.2199 23.819 11.8099 24.369 10.6599L24.419 10.5499C23.769 10.5499 23.149 10.5499 22.529 10.5399C21.989 10.5399 21.969 10.5999 21.919 10.9099C21.849 11.3699 21.649 11.7499 21.489 12.0899L21.409 12.2399C21.149 12.7699 20.699 13.1599 20.139 13.3499C19.579 13.5399 18.979 13.4999 18.449 13.2299C18.199 13.0999 17.949 12.9699 17.679 12.8099L16.629 14.2199C16.299 14.6599 15.669 14.7499 15.229 14.4199C14.789 14.0899 14.699 13.4599 15.029 13.0199L16.149 11.5199C16.659 10.7699 17.729 10.5299 18.539 10.9999C18.839 11.1699 19.089 11.3199 19.349 11.4499C19.409 11.4799 19.459 11.4699 19.499 11.4499C19.529 11.4399 19.579 11.4099 19.609 11.3599L19.689 11.1899C19.799 10.9699 19.919 10.7399 19.939 10.5799C20.069 9.78987 20.589 8.48987 22.579 8.53987C23.309 8.55987 24.049 8.55987 24.839 8.54987H25.969C26.309 8.54987 26.629 8.71987 26.809 8.99987C26.989 9.27987 27.019 9.63987 26.879 9.94987L26.639 10.4799C26.469 10.8499 26.329 11.1899 26.169 11.5199C26.039 11.7899 26.119 12.1199 26.349 12.2699C27.449 13.0099 28.759 13.3599 30.349 13.3299C30.509 13.3299 30.629 13.1599 30.719 12.8299C30.919 12.0299 31.069 11.2299 31.229 10.3699L31.399 9.44987C31.489 8.98987 31.579 8.47987 31.949 7.90987C32.149 7.58987 32.519 7.41987 32.889 7.45987C33.259 7.49987 33.589 7.74987 33.719 8.09987C33.819 8.35987 33.929 8.61987 34.049 8.86987C34.339 9.51987 34.629 10.1899 34.749 10.9399C35.009 12.5799 35.539 13.9299 36.359 15.0599C36.679 15.5099 36.579 16.1299 36.139 16.4599C35.959 16.5899 35.759 16.6499 35.549 16.6499L35.559 16.6599Z" fill="#323232"/>
<path d="M32.2497 34.04C31.6897 34.04 31.1297 33.8 30.6197 33.33C30.4897 33.21 30.3497 33.08 30.2097 32.96C29.3797 32.21 28.4297 31.37 28.0897 29.98C28.0697 29.98 28.0497 29.99 28.0297 30C27.8997 30.04 27.7897 30.11 27.6697 30.18C27.5797 30.23 27.4797 30.29 27.3797 30.34C27.0097 30.53 26.5697 30.47 26.2597 30.19L25.7697 29.75C25.4297 29.44 25.0997 29.14 24.7497 28.85C23.5397 27.82 22.3097 27.59 20.9997 28.14C19.9597 28.58 18.9697 29.15 17.9197 29.75L17.3697 30.07C16.8597 30.36 16.3597 30.67 15.8697 30.98C15.2197 31.38 14.5597 31.8 13.8597 32.17C13.5097 32.36 13.1397 32.46 12.8297 32.54C12.2897 32.67 11.6997 32.54 11.2597 32.21C10.8297 31.88 10.5797 31.39 10.5697 30.85C10.5697 30.45 10.3497 30.11 9.99973 29.58C9.91973 29.46 9.84973 29.35 9.76973 29.23C9.14973 28.25 8.65973 27.36 8.24973 26.51C8.00973 26.01 8.22973 25.41 8.72973 25.18C9.22973 24.95 9.82973 25.16 10.0597 25.66C10.4297 26.44 10.8897 27.26 11.4597 28.17L11.6597 28.48C12.0197 29.02 12.4497 29.67 12.5397 30.54C12.6897 30.5 12.8097 30.45 12.8897 30.41C13.5297 30.07 14.1397 29.68 14.7897 29.28C15.3097 28.96 15.8297 28.64 16.3597 28.33L16.9097 28.02C17.9597 27.42 19.0497 26.79 20.2097 26.3C22.2197 25.45 24.2397 25.81 26.0297 27.33C26.3797 27.63 26.7197 27.93 27.0597 28.24C27.1597 28.19 27.2697 28.15 27.3897 28.11C28.0397 27.9 28.6797 27.94 29.1697 28.23C29.5897 28.48 29.8797 28.89 29.9797 29.39C30.1497 30.26 30.7897 30.83 31.5297 31.49C31.6797 31.62 31.8197 31.75 31.9697 31.89C32.2197 32.13 32.2497 32.11 32.4697 31.93C32.8997 31.58 33.5297 31.65 33.8797 32.08C34.2297 32.51 34.1597 33.14 33.7297 33.49C33.2497 33.88 32.7397 34.07 32.2297 34.07L32.2497 34.04Z" fill="#323232"/>
<path d="M33.3989 40.5399C30.6289 40.5399 30.5589 38.0499 30.5189 36.8599V36.4699C30.4889 36.1999 30.5889 35.9299 30.7789 35.7299C30.9689 35.5299 31.2289 35.4199 31.4989 35.4199H34.9489C35.4489 35.4199 35.8689 35.7899 35.9389 36.2799C36.0389 36.9699 36.1589 38.6799 35.2489 39.7299C34.7889 40.2599 34.1489 40.5399 33.3889 40.5399H33.3989ZM32.5489 37.4199C32.6289 38.4899 32.8389 38.5399 33.3989 38.5399C33.6389 38.5399 33.7089 38.4599 33.7489 38.4199C33.8989 38.2399 33.9989 37.8699 34.0189 37.4199H32.5589H32.5489Z" fill="#323232"/>
<path d="M38.1297 23.1797V23.0097C38.1297 22.5597 37.8297 22.2397 37.3697 22.2397C36.9097 22.2397 36.6497 22.5197 36.6497 22.8997C36.6497 23.1297 36.7497 23.4097 37.1197 23.5597L37.8997 23.8697C38.5897 24.1497 39.3497 24.5297 39.3497 25.6197C39.3497 26.5797 38.7397 27.2697 37.7697 27.3997V28.3097H36.9497V27.3797C36.0297 27.2297 35.4297 26.5997 35.4297 25.6797V25.4797H36.5397V25.7197C36.5397 26.1997 36.8597 26.4797 37.3997 26.4797C37.9397 26.4797 38.2597 26.1597 38.2597 25.7297C38.2597 25.3597 38.0697 25.1197 37.6997 24.9597L36.8497 24.6297C36.0697 24.3197 35.5597 23.8197 35.5597 22.9797C35.5597 22.1897 36.0697 21.5097 36.9597 21.3497V20.4297H37.7797V21.3497C38.6597 21.4897 39.2397 22.1297 39.2397 23.0497V23.1797H38.1297Z" fill="#DF0000"/>
<path d="M18.4392 16.3595H14.0992C14.0992 16.3595 11.2992 14.2995 10.7092 13.8395C10.2292 13.4695 9.33924 13.2995 8.76924 13.2695C8.56924 13.2695 8.42924 13.4795 8.53924 13.6595L10.1292 16.3695H6.04924L4.92924 14.8095C4.74924 14.5595 4.44924 14.4095 4.13924 14.4095H3.37924C3.10924 14.4095 2.91924 14.6895 3.01924 14.9495L4.33924 18.2995C4.48924 18.6795 4.84924 18.9195 5.24924 18.9195H7.85924L10.2592 18.8895L8.14924 22.7295C8.04924 22.9095 8.18924 23.1295 8.38924 23.1095C8.95924 23.0795 9.90924 22.9495 10.3492 22.5095C11.3492 21.5095 14.6292 18.8595 14.6292 18.8595C14.6292 18.8595 19.1292 18.8395 20.5592 18.8295C20.7792 18.8295 20.9492 18.6495 20.9392 18.4295C20.9092 17.6595 20.6392 16.3395 18.4592 16.3395L18.4392 16.3595Z" fill="#323232"/>
</svg>
