<svg width="24" height="24" viewBox="0 0 24 24" fill="none" xmlns="http://www.w3.org/2000/svg">
<path fill-rule="evenodd" clip-rule="evenodd" d="M13 2H6C4.89543 2 4 2.89543 4 4V20C4 21.1046 4.89543 22 6 22H18C19.1046 22 20 21.1046 20 20V9L13 2ZM9.00931 17.0074H10.9947V18.5397H12.9964V17.0075C14.5572 17.0284 15.5406 16.1103 15.5406 14.5623C15.5406 13.0377 14.5935 12.0948 13.0375 12.018L11.0174 12.0168C10.5589 12.0317 10.5305 12.004 10.5305 11.5712C10.5305 11.1053 10.6105 11.0207 11.0694 10.9967L15.0013 10.9981V8.9981H13.0011V7.52835H11.0013V8.99895C9.43561 9.08547 8.53053 10.0482 8.53053 11.5712C8.53053 13.1325 9.49335 14.0686 11.0509 14.0163L12.9882 14.0168C13.4528 14.041 13.5406 14.1284 13.5406 14.5623C13.5406 14.9703 13.4925 15.015 13.0036 15.0075L9.00931 15.0074V17.0074Z" fill="#323232"/>
</svg>
