<svg width="24" height="24" viewBox="0 0 24 24" fill="none" xmlns="http://www.w3.org/2000/svg">
<g clip-path="url(#clip0_16335_10043)">
<path d="M20.4851 20.4853C25.1714 15.799 25.1714 8.20101 20.4851 3.51472C15.7988 -1.17157 8.20081 -1.17157 3.51452 3.51472C-1.17177 8.20101 -1.17177 15.799 3.51452 20.4853C8.20081 25.1716 15.7988 25.1716 20.4851 20.4853Z" fill="#FF0000"/>
<mask id="mask0_16335_10043" style="mask-type:luminance" maskUnits="userSpaceOnUse" x="-1" y="0" width="25" height="24">
<path d="M20.4851 20.4853C25.1714 15.799 25.1714 8.20101 20.4851 3.51472C15.7988 -1.17157 8.20081 -1.17157 3.51452 3.51472C-1.17177 8.20101 -1.17177 15.799 3.51452 20.4853C8.20081 25.1716 15.7988 25.1716 20.4851 20.4853Z" fill="white"/>
</mask>
<g mask="url(#mask0_16335_10043)">
<path d="M36.6177 1.73145H0.617676V25.7314H36.6177V1.73145Z" fill="#FF0000"/>
<path fill-rule="evenodd" clip-rule="evenodd" d="M6.7064 4.28174L7.49736 6.73149L10.0729 6.7259L7.98647 8.23516L8.78722 10.6821L6.7064 9.16586L4.62697 10.6821L5.42772 8.23516L3.34131 6.7259L5.91543 6.73149L6.7064 4.28174Z" fill="#FFFF00"/>
<path fill-rule="evenodd" clip-rule="evenodd" d="M14.985 9.04736L15.2826 9.84671L16.1365 9.80758L15.4671 10.3386L15.7689 11.1366L15.0576 10.6656L14.391 11.1995L14.6188 10.3763L13.9061 9.9082L14.7586 9.87047L14.985 9.04736Z" fill="#FFFF00"/>
<path fill-rule="evenodd" clip-rule="evenodd" d="M13.0663 11.5068L13.0216 12.3593L13.8209 12.6625L12.995 12.8833L12.9545 13.7358L12.4891 13.0203L11.666 13.2453L12.2026 12.5815L11.7345 11.8674L12.5324 12.1734L13.0663 11.5068Z" fill="#FFFF00"/>
<path fill-rule="evenodd" clip-rule="evenodd" d="M14.5112 5.59424L15.1038 6.20772L15.871 5.83041L15.4699 6.58504L16.0652 7.19573L15.2239 7.049L14.8271 7.80502L14.7083 6.95816L13.8656 6.81422L14.6342 6.4397L14.5112 5.59424Z" fill="#FFFF00"/>
<path fill-rule="evenodd" clip-rule="evenodd" d="M11.7694 3.48545L12.552 3.82503L13.1152 3.18359L13.0341 4.03325L13.8181 4.37144L12.9852 4.5559L12.9056 5.40695L12.4724 4.67049L11.6395 4.85775L12.2054 4.21911L11.7694 3.48545Z" fill="#FFFF00"/>
</g>
</g>
<rect x="0.25" y="0.25" width="23.5" height="23.5" rx="11.75" stroke="#E5E3E1" stroke-width="0.5"/>
<defs>
<clipPath id="clip0_16335_10043">
<rect width="24" height="24" rx="12" fill="white"/>
</clipPath>
</defs>
</svg>
