<svg width="24" height="24" viewBox="0 0 24 24" fill="none" xmlns="http://www.w3.org/2000/svg">
<g clip-path="url(#clip0_10513_11117)">
<path d="M15.5 2L15.5 3.5L13.5 5L13.5 10.5L22 8L22 10L13.5 15L13.5 20.5C13.5 20.9167 13.3542 21.2708 13.0625 21.5625C12.7708 21.8542 12.4167 22 12 22C11.5833 22 11.2292 21.8542 10.9375 21.5625C10.6458 21.2708 10.5 20.9167 10.5 20.5L10.5 15L2 10L2 8L10.5 10.5L10.5 5L8.5 3.5L8.5 2L12 3L15.5 2Z" fill="#323232"/>
</g>
<defs>
<clipPath id="clip0_10513_11117">
<rect width="24" height="24" fill="white"/>
</clipPath>
</defs>
</svg>
