<svg width="48" height="48" viewBox="0 0 48 48" fill="none" xmlns="http://www.w3.org/2000/svg">
<path d="M24.9193 5.80004C24.9593 5.70004 24.9793 5.59004 24.9793 5.49004C24.9793 5.47004 24.9893 5.45004 24.9893 5.42004C24.9893 5.39004 24.9793 5.38004 24.9793 5.35004C24.9793 5.24004 24.9593 5.14004 24.9193 5.04004C24.8693 4.92004 24.7993 4.81004 24.6993 4.71004L22.0093 2.02004C21.6193 1.63004 20.9893 1.63004 20.5993 2.02004C20.2093 2.41004 20.2093 3.04004 20.5993 3.43004L21.7193 4.55004C16.8293 5.12004 12.3093 7.52004 9.08928 11.32C8.72928 11.74 8.77928 12.37 9.20928 12.73C9.39928 12.89 9.62928 12.97 9.85928 12.97C10.1393 12.97 10.4193 12.85 10.6193 12.62C13.3893 9.36004 17.2093 7.27004 21.3693 6.64004L20.5993 7.41004C20.2093 7.80004 20.2093 8.43004 20.5993 8.82004C20.7993 9.02004 21.0493 9.11004 21.3093 9.11004C21.5693 9.11004 21.8193 9.01004 22.0193 8.82004L24.7093 6.13004C24.7993 6.04004 24.8793 5.93004 24.9293 5.80004H24.9193Z" fill="#323232"/>
<path d="M6.87094 31.17C7.39094 30.98 7.66094 30.41 7.47094 29.89C6.03094 25.86 6.14094 21.51 7.67094 17.59L7.95094 18.64C8.07094 19.09 8.47094 19.38 8.92094 19.38C9.01094 19.38 9.09094 19.37 9.18094 19.35C9.71094 19.21 10.0309 18.66 9.89094 18.13L8.90094 14.45C8.87094 14.32 8.81094 14.2 8.73094 14.1C8.57094 13.89 8.33094 13.75 8.07094 13.72C7.94094 13.7 7.80094 13.72 7.67094 13.75L3.99094 14.73C3.46094 14.87 3.14094 15.42 3.28094 15.95C3.42094 16.48 3.97094 16.8 4.50094 16.66L6.04094 16.25C4.09094 20.77 3.91094 25.88 5.59094 30.58C5.74094 30.99 6.12094 31.24 6.53094 31.24C6.64094 31.24 6.76094 31.22 6.87094 31.18V31.17Z" fill="#323232"/>
<path d="M20.8608 41.2398C16.6508 40.4698 12.9308 38.2098 10.3108 34.9198L11.3608 35.1998C11.8908 35.3398 12.4408 35.0298 12.5808 34.4898C12.7208 33.9598 12.4108 33.4098 11.8708 33.2698L8.19081 32.2798C8.06081 32.2498 7.93081 32.2398 7.80081 32.2498C7.67081 32.2698 7.54081 32.3098 7.43081 32.3798C7.31081 32.4498 7.21081 32.5398 7.14081 32.6398C7.06081 32.7398 7.00081 32.8598 6.97081 32.9898L5.98081 36.6698C5.84081 37.1998 6.15081 37.7498 6.69081 37.8898C6.78081 37.9098 6.86081 37.9198 6.95081 37.9198C7.39081 37.9198 7.80081 37.6298 7.92081 37.1798L8.33081 35.6398C11.2708 39.5898 15.6008 42.3098 20.5108 43.1998C20.5708 43.2098 20.6308 43.2198 20.6908 43.2198C21.1608 43.2198 21.5908 42.8798 21.6708 42.3998C21.7708 41.8598 21.4108 41.3398 20.8708 41.2398H20.8608Z" fill="#323232"/>
<path d="M37.3895 35.3301C34.6195 38.5901 30.7995 40.6801 26.6395 41.3101L27.4095 40.5401C27.7995 40.1501 27.7995 39.5201 27.4095 39.1301C27.0195 38.7401 26.3895 38.7401 25.9995 39.1301L23.3095 41.8201C23.2195 41.9101 23.1395 42.0201 23.0895 42.1501C23.0495 42.2501 23.0295 42.3601 23.0295 42.4601C23.0295 42.4801 23.0195 42.5001 23.0195 42.5301C23.0195 42.5601 23.0295 42.5701 23.0295 42.6001C23.0295 42.7101 23.0495 42.8101 23.0895 42.9101C23.1395 43.0301 23.2095 43.1401 23.3095 43.2401L25.9995 45.9301C26.1995 46.1301 26.4495 46.2201 26.7095 46.2201C26.9695 46.2201 27.2195 46.1201 27.4195 45.9301C27.8095 45.5401 27.8095 44.9101 27.4195 44.5201L26.2995 43.4001C31.1895 42.8301 35.7095 40.4301 38.9295 36.6301C39.2895 36.2101 39.2395 35.5801 38.8095 35.2201C38.3895 34.8601 37.7595 34.9101 37.3995 35.3401L37.3895 35.3301Z" fill="#323232"/>
<path d="M44.7208 31.9998C44.5808 31.4698 44.0308 31.1498 43.5008 31.2898L41.9608 31.6998C43.9108 27.1798 44.0908 22.0698 42.4108 17.3698C42.2208 16.8498 41.6508 16.5798 41.1308 16.7698C40.6108 16.9598 40.3408 17.5298 40.5308 18.0498C41.9708 22.0798 41.8608 26.4298 40.3308 30.3498L40.0508 29.2998C39.9108 28.7698 39.3608 28.4498 38.8308 28.5898C38.3008 28.7298 37.9808 29.2798 38.1208 29.8098L39.1108 33.4898C39.1408 33.6098 39.2008 33.7098 39.2608 33.8098C39.2808 33.8398 39.3108 33.8598 39.3308 33.8798C39.3908 33.9498 39.4508 34.0098 39.5308 34.0598C39.5508 34.0598 39.5508 34.0898 39.5708 34.0898C39.6108 34.1098 39.6508 34.1198 39.6908 34.1398C39.7208 34.1498 39.7508 34.1698 39.7808 34.1798C39.8708 34.2098 39.9708 34.2298 40.0608 34.2298C40.0608 34.2298 40.0608 34.2298 40.0708 34.2298C40.1108 34.2298 40.1508 34.2198 40.2008 34.2098C40.2408 34.2098 40.2908 34.2098 40.3308 34.1898L44.0108 33.1998C44.5408 33.0598 44.8608 32.5098 44.7208 31.9798V31.9998Z" fill="#323232"/>
<path d="M27.1409 6.69967C31.3509 7.46967 35.0709 9.72967 37.6909 13.0197L36.6409 12.7397C36.1009 12.5897 35.5609 12.9097 35.4209 13.4497C35.2809 13.9797 35.5909 14.5297 36.1309 14.6697L39.8109 15.6597C39.8809 15.6797 39.9509 15.6797 40.0209 15.6897C40.0409 15.6897 40.0509 15.6897 40.0709 15.6897C40.1609 15.6897 40.2409 15.6797 40.3309 15.6597C40.4109 15.6397 40.5009 15.5997 40.5709 15.5597C40.6909 15.4897 40.7909 15.3997 40.8609 15.2997C40.9409 15.1997 41.0009 15.0797 41.0309 14.9497L42.0209 11.2697C42.1609 10.7397 41.8509 10.1897 41.3109 10.0497C40.7809 9.89967 40.2309 10.2197 40.0909 10.7597L39.6809 12.2997C36.7409 8.34967 32.4109 5.62967 27.5009 4.73967C26.9609 4.64967 26.4409 4.99967 26.3409 5.53967C26.2409 6.07967 26.6009 6.59967 27.1409 6.69967Z" fill="#323232"/>
</svg>
