<svg width="48" height="48" viewBox="0 0 48 48" fill="none" xmlns="http://www.w3.org/2000/svg">
<path d="M28.1994 8.18994L28.2194 8.08994C28.2894 7.75994 28.1094 7.46994 27.7194 7.38994C27.3294 7.30994 27.0694 7.45994 27.0094 7.73994C26.9694 7.92994 27.0594 8.13995 27.2994 8.29994L27.8194 8.63995C28.2294 8.90995 28.6494 9.24994 28.5094 9.91995C28.3594 10.5899 27.7694 10.9299 27.0194 10.7599C26.2694 10.5999 25.8394 10.0699 25.9794 9.39994L25.9994 9.28994L26.5694 9.41995L26.5394 9.54995C26.4694 9.88995 26.6694 10.1699 27.0994 10.2699C27.5394 10.3699 27.8394 10.1799 27.9094 9.85994C27.9794 9.54994 27.8094 9.34995 27.5294 9.16995L27.0294 8.82994C26.5994 8.53994 26.3294 8.17994 26.4394 7.66994C26.5594 7.09994 27.1194 6.75994 27.8294 6.90994C28.5394 7.06994 28.9394 7.58994 28.7894 8.24994L28.7694 8.32994L28.1894 8.19994L28.1994 8.18994Z" fill="#323232"/>
<path d="M30.4689 7.70996L32.7189 8.81996L32.4789 9.30996L31.6189 8.88996L30.1689 11.83L29.6289 11.56L31.0789 8.61996L30.2189 8.19996L30.4589 7.70996H30.4689Z" fill="#323232"/>
<path d="M31.1289 12.26L34.3989 9.95996L34.8989 10.34L33.4889 14.09L32.9989 13.71L33.2889 12.96L32.2489 12.15L31.5989 12.62L31.1389 12.26H31.1289ZM32.6789 11.83L33.4989 12.47L34.1689 10.75L32.6689 11.84L32.6789 11.83Z" fill="#323232"/>
<path d="M36.4597 11.6802L38.0897 13.5802L37.6797 13.9302L37.0597 13.2102L34.5697 15.3502L34.1797 14.9002L36.6697 12.7602L36.0497 12.0402L36.4597 11.6902V11.6802Z" fill="#323232"/>
<path d="M40.159 17.25L37.799 18.42C37.109 18.76 36.449 18.51 36.109 17.83C35.769 17.15 35.979 16.47 36.669 16.13L39.029 14.96L39.299 15.5L36.939 16.67C36.559 16.86 36.409 17.2 36.599 17.59C36.789 17.97 37.159 18.07 37.539 17.88L39.899 16.71L40.169 17.25H40.159Z" fill="#323232"/>
<path d="M40.0793 21.0099L40.1793 20.9899C40.5093 20.9199 40.6993 20.6299 40.6093 20.2499C40.5293 19.8599 40.2793 19.6899 39.9893 19.7499C39.7993 19.7899 39.6393 19.9599 39.5993 20.2499L39.5093 20.8599C39.4393 21.3499 39.3093 21.8699 38.6393 22.0199C37.9693 22.1699 37.4193 21.7599 37.2493 21.0199C37.0893 20.2699 37.3893 19.6599 38.0493 19.5099L38.1593 19.4899L38.2893 20.0599L38.1593 20.0899C37.8193 20.1599 37.6493 20.4699 37.7393 20.8999C37.8393 21.3399 38.1293 21.5399 38.4493 21.4599C38.7593 21.3899 38.8693 21.1499 38.9193 20.8199L39.0193 20.2199C39.0993 19.7099 39.3193 19.3099 39.8293 19.1999C40.3993 19.0799 40.9393 19.4299 41.0993 20.1499C41.2593 20.8599 40.9493 21.4399 40.2793 21.5899L40.1993 21.6099L40.0693 21.0299L40.0793 21.0099Z" fill="#323232"/>
<path d="M8.02891 27.46H7.91891C7.16891 27.56 6.64891 27.1 6.55891 26.35C6.46891 25.59 6.88891 25 7.64891 24.91L9.07891 24.74C9.83891 24.65 10.3789 25.07 10.4789 25.88C10.5689 26.63 10.1689 27.2 9.41891 27.29H9.32891L9.25891 26.72H9.34891C9.73891 26.66 9.97891 26.37 9.92891 25.93C9.87891 25.5 9.55891 25.28 9.13891 25.33L7.70891 25.5C7.28891 25.55 7.03891 25.84 7.08891 26.27C7.13891 26.72 7.44891 26.94 7.83891 26.89H7.95891L8.02891 27.45V27.46Z" fill="#323232"/>
<path d="M7.95734 31.1698L9.10734 30.0998C9.10734 30.0998 9.07734 30.0398 9.06734 30.0098L8.84734 29.4298L7.48734 29.9398L7.27734 29.3798L10.8573 28.0298L11.3073 29.2098C11.5773 29.9198 11.3373 30.5898 10.6773 30.8398C10.2173 31.0098 9.76734 30.9098 9.45734 30.5998L8.19734 31.7898L7.96734 31.1698H7.95734ZM10.5773 28.7698L9.33734 29.2398L9.55734 29.8098C9.71734 30.2298 10.0673 30.4098 10.4473 30.2698C10.8173 30.1298 10.9473 29.7698 10.7873 29.3398L10.5673 28.7698H10.5773Z" fill="#323232"/>
<path d="M10.8802 32.8902L9.94016 33.5402L10.9202 34.9402L10.4802 35.2502L9.16016 33.3502L12.3002 31.1602L13.5902 33.0102L13.1502 33.3202L12.2002 31.9602L11.3202 32.5702L12.1802 33.8102L11.7502 34.1102L10.8902 32.8702L10.8802 32.8902Z" fill="#323232"/>
<path d="M15.4073 36.3702L14.5873 37.3302C14.0773 37.9302 13.3673 37.9702 12.7373 37.4302L11.7773 36.6002L14.2673 33.7002L15.2273 34.5302C15.8573 35.0702 15.9173 35.7802 15.4073 36.3702ZM14.3673 34.5002L12.5773 36.5802L13.0873 37.0202C13.4473 37.3302 13.8373 37.2802 14.1273 36.9402L14.9473 35.9802C15.2373 35.6402 15.2273 35.2402 14.8673 34.9402L14.3573 34.5002H14.3673Z" fill="#323232"/>
<path d="M15.7387 39.4698L15.2188 39.1798L17.0787 35.8398L17.5988 36.1298L15.7387 39.4698Z" fill="#323232"/>
<path d="M18.1805 36.46L20.5305 37.35L20.3405 37.86L19.4505 37.52L18.2905 40.59L17.7305 40.38L18.8905 37.31L18.0005 36.97L18.1905 36.46H18.1805Z" fill="#323232"/>
<path d="M22.8174 38.7999V38.6999C22.8674 38.3599 22.6574 38.0899 22.2674 38.0499C21.8774 38.0099 21.6274 38.1799 21.5874 38.4699C21.5674 38.6699 21.6774 38.8699 21.9274 38.9999L22.4774 39.2899C22.9174 39.5199 23.3674 39.8099 23.2874 40.4899C23.2074 41.1699 22.6474 41.5599 21.8874 41.4699C21.1274 41.3799 20.6474 40.8899 20.7274 40.2199V40.1099L21.3274 40.1799L21.3074 40.3099C21.2674 40.6599 21.4974 40.9199 21.9274 40.9699C22.3774 41.0199 22.6574 40.8099 22.6974 40.4799C22.7374 40.1699 22.5474 39.9799 22.2474 39.8299L21.7174 39.5399C21.2574 39.2999 20.9574 38.9599 21.0274 38.4399C21.0974 37.8599 21.6174 37.4699 22.3374 37.5499C23.0574 37.6399 23.5074 38.1199 23.4274 38.7899V38.8699L22.8274 38.7999H22.8174Z" fill="#323232"/>
<path d="M23.9989 46.1201C11.7989 46.1201 1.87891 36.1901 1.87891 24.0001C1.87891 11.8101 11.7989 1.87012 23.9989 1.87012C36.1989 1.87012 46.1189 11.8001 46.1189 23.9901C46.1189 36.1801 36.1889 46.1101 23.9989 46.1101V46.1201ZM23.9989 3.87012C12.8989 3.87012 3.87891 12.9001 3.87891 24.0001C3.87891 35.1001 12.9089 44.1201 23.9989 44.1201C35.0889 44.1201 44.1189 35.0901 44.1189 24.0001C44.1189 12.9101 35.0989 3.87012 23.9989 3.87012Z" fill="#323232"/>
<path d="M31.8411 21.3902H26.3911L24.6811 15.9502C24.5611 15.6602 24.3011 15.4702 24.0011 15.4702C23.7011 15.4702 23.4311 15.6602 23.3211 15.9502L21.6211 21.3902H16.2211C15.9211 21.4202 15.6711 21.6402 15.5811 21.9402C15.4911 22.2402 15.5811 22.5702 15.8211 22.7702L20.2011 26.1202L18.4911 31.5602C18.4111 31.8702 18.5311 32.2102 18.7811 32.4002C19.0311 32.5902 19.3711 32.5902 19.6311 32.4002L24.0011 29.0502L28.3711 32.4002C28.6211 32.5902 28.9611 32.5902 29.2211 32.4002C29.4711 32.2102 29.5911 31.8802 29.5111 31.5602L27.8111 26.1202L32.1811 22.7702C32.4111 22.5702 32.5111 22.2402 32.4211 21.9402C32.3311 21.6402 32.0811 21.4202 31.7811 21.3902H31.8411Z" fill="#DF0000"/>
</svg>
