<svg width="48" height="48" viewBox="0 0 48 48" fill="none" xmlns="http://www.w3.org/2000/svg">
<path d="M38.92 36.9299L35.31 29.6699H12.7L9.08997 36.9299C8.50997 38.0099 8.29997 39.2499 8.48997 40.4599C8.97997 43.2599 11.43 45.2899 14.28 45.2499H33.72C36.75 45.2899 39.3 42.9999 39.58 39.9799C39.66 38.9199 39.43 37.8599 38.93 36.9299H38.92ZM18.81 37.0399C17.62 37.0399 16.65 36.0799 16.65 34.8799C16.65 33.6799 17.61 32.7199 18.81 32.7199C20.01 32.7199 20.97 33.6799 20.97 34.8799C20.97 36.0799 20.01 37.0399 18.81 37.0399ZM28.25 40.9899C26.3 40.9899 24.71 39.4099 24.71 37.4499C24.71 35.4899 26.29 33.9099 28.25 33.9099C30.21 33.9099 31.79 35.4899 31.79 37.4499C31.79 39.4099 30.21 40.9899 28.25 40.9899Z" fill="#8DE2E0"/>
<path d="M39.8098 36.48L30.9298 18.63C30.7598 18.28 30.6598 17.89 30.6598 17.5V3.75H31.7798C32.3298 3.75 32.7798 3.3 32.7798 2.75C32.7798 2.2 32.3298 1.75 31.7798 1.75H16.1998C15.6498 1.75 15.1998 2.2 15.1998 2.75C15.1998 3.3 15.6498 3.75 16.1998 3.75H17.3198V17.5C17.3198 17.89 17.2298 18.28 17.0498 18.63L8.17984 36.46C7.49984 37.72 7.24984 39.2 7.47984 40.63C8.05984 43.9 10.8598 46.25 14.1598 46.25C14.1898 46.25 14.2198 46.25 14.2498 46.25H33.6698C37.1798 46.3 40.2098 43.58 40.5398 40.05C40.6298 38.8 40.3698 37.56 39.7898 36.48H39.8098ZM38.5698 39.89C38.3398 42.37 36.1898 44.31 33.7098 44.25H14.2598C14.2598 44.25 14.2198 44.25 14.1898 44.25C11.8598 44.25 9.86984 42.59 9.46984 40.3C9.30984 39.31 9.48984 38.28 9.97984 37.37L18.8598 19.52C19.1698 18.9 19.3398 18.2 19.3398 17.5V3.75H28.6698V17.5C28.6698 18.2 28.8298 18.9 29.1398 19.53L38.0398 37.41C38.4498 38.18 38.6398 39.05 38.5698 39.9V39.89Z" fill="#323232"/>
<path d="M23.2891 16.8898C24.0734 16.8898 24.7091 16.254 24.7091 15.4698C24.7091 14.6856 24.0734 14.0498 23.2891 14.0498C22.5049 14.0498 21.8691 14.6856 21.8691 15.4698C21.8691 16.254 22.5049 16.8898 23.2891 16.8898Z" fill="#8DE2E0"/>
<path d="M26.1192 25.3898C26.9035 25.3898 27.5392 24.754 27.5392 23.9698C27.5392 23.1856 26.9035 22.5498 26.1192 22.5498C25.335 22.5498 24.6992 23.1856 24.6992 23.9698C24.6992 24.754 25.335 25.3898 26.1192 25.3898Z" fill="#8DE2E0"/>
</svg>
