<svg width="48" height="48" viewBox="0 0 48 48" fill="none" xmlns="http://www.w3.org/2000/svg">
<path d="M39.4297 14.3101C39.4297 14.3101 39.4297 14.3101 39.4197 14.3001C39.4097 14.2901 39.3897 14.2801 39.3797 14.2701C39.2097 14.0901 38.9797 13.9701 38.7497 13.9501C38.7297 13.9501 38.7097 13.9501 38.6897 13.9501C38.5797 13.9501 38.4697 13.9501 38.3597 13.9901C38.3197 14.0001 38.2797 14.0301 38.2397 14.0501C38.1697 14.0801 38.0897 14.1101 38.0297 14.1601C38.0297 14.1601 38.0297 14.1601 38.0197 14.1701C37.9497 14.2301 37.8897 14.3101 37.8397 14.3901C37.8197 14.4201 37.7897 14.4401 37.7797 14.4701C37.7497 14.5301 37.7397 14.5901 37.7197 14.6501C37.6997 14.7101 37.6697 14.7701 37.6697 14.8301C37.6697 14.8301 37.6697 14.8301 37.6697 14.8401C37.4897 16.8801 35.8597 19.2801 35.5797 19.6901L35.1397 20.1301C33.9797 21.3201 32.3597 22.0001 30.6597 22.0001H30.6397C30.0297 22.0201 29.1597 22.1301 28.7297 22.8401C28.2797 23.5701 28.6397 24.3401 28.8997 24.9001C28.9697 25.0501 29.0497 25.2101 29.0997 25.3701C29.1397 25.4701 29.1697 25.5701 29.1997 25.6601C29.5897 26.8901 30.1097 27.4301 32.2197 28.0201C32.2597 28.0301 32.2897 28.0401 32.3197 28.0501C32.1197 28.6201 30.9397 29.8301 30.4697 30.3101L30.0197 30.7701C28.9897 31.8601 29.0997 33.2201 29.1797 34.1201C29.1997 34.3001 29.2197 34.5301 29.2097 34.6801C29.1197 34.7301 28.9997 34.7901 28.8897 34.8401C28.1097 35.2201 26.8197 35.8501 26.6697 37.8801C26.5797 39.1101 26.0997 39.3801 25.2997 39.4001C24.6897 39.0401 23.5897 36.5201 23.7497 35.8101C24.1697 34.0201 23.8197 32.8001 22.6997 32.1901L22.5997 32.1401C22.1397 31.8901 22.0897 31.8601 21.4797 30.2101C20.6197 27.8701 18.7197 28.4901 17.6997 28.8201C17.2497 28.9701 16.7897 29.1201 16.3797 29.1301C16.2597 29.1301 15.9497 28.9501 15.6797 28.4401C15.0597 27.2801 15.0197 25.3001 16.3197 23.5101C17.9597 21.2501 19.8397 20.9301 22.2297 22.5001C23.4097 23.2701 24.8897 23.3101 26.1997 22.6101C27.6797 21.8101 28.5997 20.2701 28.5997 18.5901C28.5997 16.5401 26.9997 16.0701 26.0497 15.7801C24.9997 15.4701 24.9697 15.3701 24.9697 14.9501C24.9697 14.4601 25.1897 13.8301 26.8497 12.9501C27.3397 12.6901 27.5197 12.0801 27.2597 11.6001C26.9997 11.1101 26.3997 10.9301 25.9097 11.1901C24.5397 11.9201 22.9697 13.0001 22.9697 14.9501C22.9697 16.9001 24.5397 17.4101 25.4797 17.6901C26.5197 18.0001 26.5997 18.1101 26.5997 18.5801C26.5997 19.5101 26.0697 20.4001 25.2497 20.8401C24.9397 21.0101 24.1297 21.3401 23.3297 20.8201C20.0397 18.6701 16.9797 19.2001 14.6997 22.3301C12.8797 24.8201 12.9897 27.6601 13.9097 29.3801C14.5097 30.5101 15.4397 31.1601 16.4597 31.1201C17.1497 31.0901 17.7697 30.8901 18.3197 30.7101C19.0464 30.4701 19.473 30.5267 19.5997 30.8801C20.3497 32.9301 20.6197 33.3301 21.6497 33.8801L21.7397 33.9301C22.0497 34.1001 21.9097 34.8901 21.7997 35.3401C21.4997 36.6101 22.4297 39.0601 23.4197 40.3201C23.9797 41.0301 24.5897 41.3901 25.2197 41.3901C27.2597 41.3901 28.5097 40.1601 28.6597 38.0101C28.7197 37.1301 29.0897 36.9501 29.7597 36.6201C30.0397 36.4801 30.3297 36.3401 30.5997 36.1301C31.3097 35.5601 31.2397 34.6501 31.1697 33.9201C31.0997 33.1001 31.0797 32.5301 31.4697 32.1201L31.8997 31.6801C33.1997 30.3501 34.6697 28.8501 34.2897 27.4301C34.1697 26.9701 33.7997 26.3601 32.7697 26.0701C31.3197 25.6601 31.2697 25.5301 31.1097 25.0301C31.0697 24.9201 31.0397 24.8001 30.9897 24.6701C30.9097 24.4501 30.8097 24.2401 30.7197 24.0301C30.7197 24.0101 30.6997 24.0001 30.6997 23.9801C32.8897 23.9801 35.0297 23.0801 36.5597 21.5201L37.0497 21.0301C37.0497 21.0301 37.1197 20.9501 37.1497 20.9101C37.2197 20.8201 38.3797 19.2101 39.1097 17.2701C40.8897 20.0901 41.8297 23.3201 41.8297 26.7201C41.8297 36.5401 33.8397 44.5401 24.0097 44.5401C14.1797 44.5401 6.17969 36.5701 6.17969 26.7501C6.17969 16.9301 14.1797 8.93005 23.9997 8.93005C24.4097 8.93005 24.8197 8.94005 25.2197 8.97005C25.7797 9.01005 26.2497 8.59005 26.2797 8.04005C26.3197 7.49005 25.8997 7.01005 25.3497 6.98005C24.8997 6.95005 24.4497 6.93005 23.9897 6.93005C13.0697 6.93005 4.17969 15.8201 4.17969 26.7501C4.17969 37.6801 13.0697 46.5701 23.9997 46.5701C34.9297 46.5701 43.8197 37.6801 43.8197 26.7501C43.8197 22.2401 42.2597 17.8201 39.4297 14.3201V14.3101Z" fill="#323232"/>
<path d="M21.0199 42.68C20.9599 42.68 20.8999 42.68 20.8499 42.66C10.8999 40.9 8.06989 30.92 7.95989 30.49C7.80989 29.96 8.12989 29.41 8.65989 29.26C9.18989 29.12 9.73989 29.43 9.88989 29.96C9.91989 30.05 12.5099 39.15 21.1999 40.68C21.7399 40.78 22.1099 41.29 22.0099 41.84C21.9199 42.33 21.4999 42.67 21.0299 42.67L21.0199 42.68Z" fill="#8DE2E0"/>
<path d="M33.6203 14.6199C36.9837 14.6199 39.7103 11.8934 39.7103 8.52994C39.7103 5.16653 36.9837 2.43994 33.6203 2.43994C30.2569 2.43994 27.5303 5.16653 27.5303 8.52994C27.5303 11.8934 30.2569 14.6199 33.6203 14.6199Z" fill="#DF0000"/>
<path d="M32.6603 11.14C32.4903 11.14 32.3303 11.08 32.2003 10.95L30.5703 9.31998C30.3203 9.06998 30.3203 8.64998 30.5703 8.39998C30.8203 8.14998 31.2403 8.14998 31.4903 8.39998L32.6603 9.56998L36.1203 6.10999C36.3703 5.85999 36.7903 5.85999 37.0403 6.10999C37.2903 6.35999 37.2903 6.77999 37.0403 7.02999L33.1203 10.95C32.9903 11.08 32.8303 11.14 32.6603 11.14Z" fill="white"/>
</svg>
