<svg width="48" height="48" viewBox="0 0 48 48" fill="none" xmlns="http://www.w3.org/2000/svg">
<path d="M37.7092 14.1601V8.42008C37.7092 6.22008 35.9192 4.43008 33.7192 4.43008C32.7492 4.43008 31.8692 4.79008 31.1692 5.37008C30.4792 4.19008 29.2092 3.38008 27.7392 3.38008C26.7692 3.38008 25.8892 3.74008 25.1892 4.32008C24.4992 3.14008 23.2292 2.33008 21.7592 2.33008C20.2892 2.33008 18.9292 3.20008 18.2592 4.45008C17.5792 3.90008 16.7192 3.56008 15.7892 3.56008C13.5892 3.56008 11.7992 5.35008 11.7992 7.55008V13.8101C11.7992 13.9301 11.8292 14.0401 11.8692 14.1501C10.4392 15.4301 9.39921 17.1701 9.00921 19.1601L8.48921 21.8401C7.95921 24.6001 8.76921 27.4801 10.6792 29.5501L15.6992 36.2501C15.6992 36.2501 15.7392 36.3101 15.7692 36.3301C16.1292 36.7201 16.3292 37.2201 16.3292 37.7501V44.6401C16.3292 45.1901 16.7792 45.6401 17.3292 45.6401C17.8792 45.6401 18.3292 45.1901 18.3292 44.6401V37.7501C18.3292 36.7301 17.9592 35.7601 17.2692 35.0101L12.2492 28.3101C12.2492 28.3101 12.2092 28.2501 12.1792 28.2301C10.6792 26.6201 10.0392 24.3701 10.4592 22.2201L10.9792 19.5401C11.6192 16.2301 14.5292 13.8301 17.8992 13.8301H21.3492C22.3692 13.8301 23.1992 14.6601 23.1992 15.6801C23.1992 16.7001 22.3692 17.5301 21.3492 17.5301H18.6092C16.6692 17.5301 14.9692 18.9101 14.5792 20.8201C14.5792 20.8701 14.5592 20.9101 14.5592 20.9601L14.3592 24.3601C14.3292 24.9101 14.7492 25.3801 15.2992 25.4201C15.8492 25.4401 16.3192 25.0301 16.3592 24.4801L16.5092 21.9201C17.7292 22.3001 21.4292 23.9601 20.8992 30.1401C20.8492 30.6901 21.2592 31.1801 21.8092 31.2201C21.8392 31.2201 21.8692 31.2201 21.8992 31.2201C22.4092 31.2201 22.8492 30.8301 22.8992 30.3101C23.5292 23.0001 19.0492 20.6901 17.2392 20.0601C17.6192 19.7301 18.0992 19.5301 18.6292 19.5301H21.3692C22.8692 19.5301 24.1592 18.6601 24.7992 17.4001C25.5292 18.2301 26.5892 18.7601 27.7692 18.7601C29.0392 18.7601 30.1592 18.1501 30.8892 17.2201C31.6192 17.9701 32.6192 18.4301 33.7392 18.4301C35.1092 18.4301 36.3192 17.7301 37.0392 16.6801C37.5392 17.6801 37.7692 18.8201 37.6592 20.0501L37.6092 26.1001C37.5992 26.2501 37.5892 26.4201 37.5692 26.6001C37.4492 28.3101 37.2592 31.1801 34.2692 33.8701C33.0292 34.9901 32.3092 36.5301 32.3092 38.0901V44.6501C32.3092 45.2001 32.7592 45.6501 33.3092 45.6501C33.8592 45.6501 34.3092 45.2001 34.3092 44.6501V38.0901C34.3092 37.0801 34.7692 36.1001 35.5992 35.3601C39.1992 32.1301 39.4292 28.6201 39.5592 26.7401L39.6492 20.1401C39.8392 17.9001 39.1492 15.7901 37.7192 14.1501L37.7092 14.1601ZM13.7992 7.56008C13.7992 6.46008 14.6892 5.57008 15.7892 5.57008C16.8892 5.57008 17.7792 6.46008 17.7792 7.56008V11.8501C16.3592 11.8701 15.0092 12.2201 13.7992 12.8401V7.56008ZM21.3392 11.8501H19.7692V6.33008C19.7692 5.23008 20.6592 4.34008 21.7592 4.34008C22.8592 4.34008 23.7492 5.23008 23.7492 6.33008V12.7301C23.0892 12.1901 22.2592 11.8601 21.3392 11.8601V11.8501ZM29.7292 14.7801C29.7292 15.8801 28.8392 16.7701 27.7392 16.7701C26.6392 16.7701 25.7492 15.8801 25.7492 14.7801V7.37008C25.7492 6.27008 26.6392 5.38008 27.7392 5.38008C28.8392 5.38008 29.7292 6.27008 29.7292 7.37008V14.7801ZM33.7192 16.4401C32.6192 16.4401 31.7292 15.5501 31.7292 14.4501V8.42008C31.7292 7.32008 32.6192 6.43008 33.7192 6.43008C34.8192 6.43008 35.7092 7.32008 35.7092 8.42008V14.4501C35.7092 15.5501 34.8192 16.4401 33.7192 16.4401Z" fill="#323232"/>
</svg>
