<svg width="24" height="24" viewBox="0 0 24 24" fill="none" xmlns="http://www.w3.org/2000/svg">
<path fill-rule="evenodd" clip-rule="evenodd" d="M20 16.674V19H4V16.676C5.196 16.042 6 14.856 6 13.5C6 12.148 5.2 10.963 4.01 10.327V8H9.08L7 10.83L8.62 12L11 8.759L12 7.4L12.441 8L13 8.759L15.38 12L17 10.83L14.92 8H20V10.325C18.806 10.961 18 12.146 18 13.5C18 14.853 18.806 16.039 20 16.674ZM8 5C8 4.45 8.45 4 9 4C9.55 4 10 4.45 10 5C10 5.549 9.55 6 9 6C8.45 6 8 5.549 8 5ZM15 4C15.55 4 16 4.45 16 5C16 5.549 15.55 6 15 6C14.45 6 14 5.549 14 5C14 4.45 14.45 4 15 4ZM20 6H17.82C17.93 5.69 18 5.35 18 5C18 3.34 16.66 2 15 2C13.95 2 13.04 2.54 12.5 3.35L12 4.02L11.5 3.34C10.96 2.54 10.05 2 9 2C7.34 2 6 3.34 6 5C6 5.35 6.07 5.69 6.18 6H4C2.9 6 2.01 6.843 2.01 7.875V8C2.003 10.666 2 11 2 11H2.01V11.625C3.11 11.625 4 12.468 4 13.5C4 14.531 3.11 15.375 2 15.375V19.125C2 20.156 2.9 21 4 21H20C21.1 21 22 20.156 22 19.125V15.375C20.9 15.375 20 14.531 20 13.5C20 12.468 20.9 11.625 22 11.625V11V8V7.875C22 6.843 21.1 6 20 6Z" fill="#323232"/>
</svg>
