<svg width="24" height="24" viewBox="0 0 24 24" fill="none" xmlns="http://www.w3.org/2000/svg">
<g clip-path="url(#clip0_10513_11126)">
<path fill-rule="evenodd" clip-rule="evenodd" d="M13.371 12.3918L16.0388 9.72403L18.9405 15.0595L19.9702 14.0299L18.2853 7.4775L21.0935 4.66934C21.3587 4.40413 21.4913 4.09211 21.4913 3.73329C21.4913 3.37447 21.3587 3.06245 21.0935 2.79724C20.8282 2.53202 20.5162 2.39941 20.1574 2.39941C19.7986 2.39941 19.4866 2.53202 19.2214 2.79724L16.4132 5.6054L9.86082 3.9205L8.83116 4.95016L14.1667 7.85192L11.4989 10.5197L9.86082 10.2857L8.92477 11.2217L11.3585 12.5322L12.669 14.9659L13.605 14.0299L13.371 12.3918ZM9.70711 15.7072C10.0976 15.3167 10.0976 14.6835 9.70711 14.293C9.31658 13.9024 8.68342 13.9024 8.29289 14.293L1.29289 21.293C0.902369 21.6835 0.902369 22.3167 1.29289 22.7072C1.68342 23.0977 2.31658 23.0977 2.70711 22.7072L9.70711 15.7072Z" fill="#323232"/>
</g>
<defs>
<clipPath id="clip0_10513_11126">
<rect width="24" height="24" fill="white"/>
</clipPath>
</defs>
</svg>
