<svg width="48" height="48" viewBox="0 0 48 48" fill="none" xmlns="http://www.w3.org/2000/svg">
<path d="M32.9896 15.3599C32.1696 20.2399 30.8196 24.6199 28.9396 28.4899C27.0696 32.3599 23.4496 33.0099 18.0996 30.4299C20.9596 24.7199 32.9896 15.3599 32.9896 15.3599Z" fill="#8DE2E0"/>
<path d="M40.9591 23.9702C40.9591 23.6102 40.7591 23.3002 40.4591 23.1302V7.98022C40.7691 7.64021 40.9591 7.26021 40.9591 6.83021C40.9591 2.84021 25.7291 2.72021 23.9991 2.72021C22.2691 2.72021 7.03906 2.84021 7.03906 6.83021C7.03906 7.26021 7.21906 7.64021 7.53906 7.98022V23.1302C7.24906 23.3002 7.03906 23.6102 7.03906 23.9702C7.03906 24.2702 7.13906 24.7102 7.52906 25.1602V39.9102C7.12906 40.3602 7.03906 40.8002 7.03906 41.1102C7.03906 45.1002 22.2691 45.2202 23.9991 45.2202C25.7291 45.2202 40.9591 45.1002 40.9591 41.1102C40.9591 40.7902 40.8591 40.3502 40.4591 39.9002V25.1502C40.8491 24.7102 40.9591 24.2702 40.9591 23.9602V23.9702ZM23.9991 4.72021C32.8591 4.72021 37.8491 6.03021 38.8491 6.83021C37.8491 7.62021 32.8591 8.94021 23.9991 8.94021C15.1391 8.94021 10.1491 7.63021 9.14906 6.83021C10.1491 6.04021 15.1391 4.72021 23.9991 4.72021ZM23.9991 43.2202C15.1791 43.2202 10.1791 41.9102 9.15906 41.1202C9.38906 40.9302 9.52906 40.6402 9.52906 40.3402V26.3502C10.7191 26.7902 12.3191 27.1602 14.3691 27.4602C14.4191 27.4602 14.4691 27.4702 14.5091 27.4702C14.9991 27.4702 15.4291 27.1102 15.4991 26.6102C15.5791 26.0602 15.1991 25.5602 14.6491 25.4802C11.9791 25.1002 10.3591 24.6102 9.52906 24.1702V9.19021C13.9191 10.8702 22.6991 10.9402 23.9991 10.9402C25.2991 10.9402 34.0691 10.8702 38.4691 9.19021V24.1802C37.5491 24.6502 35.5491 25.2302 32.1691 25.6302C31.6191 25.6902 31.2291 26.1902 31.2891 26.7402C31.3491 27.2502 31.7791 27.6202 32.2791 27.6202C32.3191 27.6202 32.3591 27.6202 32.3991 27.6202C34.3791 27.3902 36.7391 26.9902 38.4591 26.3402V40.3402C38.4591 40.6402 38.5991 40.9302 38.8291 41.1202C37.8091 41.9102 32.8191 43.2202 23.9891 43.2202H23.9991Z" fill="#323232"/>
<path d="M33.979 15.5001C33.979 15.5001 33.979 15.4701 33.979 15.4501C33.979 15.3501 33.979 15.2401 33.959 15.1501C33.959 15.1301 33.959 15.1101 33.949 15.0901C33.919 14.9801 33.8689 14.8801 33.799 14.7801C33.799 14.7801 33.799 14.7601 33.789 14.7501C33.789 14.7401 33.7689 14.7301 33.7589 14.7201C33.7389 14.6901 33.719 14.6601 33.6889 14.6401C33.5389 14.5001 33.359 14.4201 33.159 14.3901C33.139 14.3901 33.119 14.3901 33.089 14.3901C32.989 14.3901 32.879 14.3901 32.7789 14.4001C25.959 15.9301 21.5189 17.4301 19.2189 18.9901C16.6289 20.7901 14.199 24.2301 16.999 30.4201C15.799 32.8201 15.209 34.0401 14.829 34.8201C14.389 35.7401 14.219 36.0801 13.629 37.1601C13.369 37.6401 13.539 38.2501 14.029 38.5201C14.179 38.6001 14.349 38.6401 14.509 38.6401C14.859 38.6401 15.209 38.4501 15.389 38.1201C15.999 37.0001 16.1689 36.6401 16.6289 35.6901C16.9789 34.9601 17.509 33.8601 18.5589 31.7501C20.5789 32.6201 22.269 32.9801 23.689 32.9801C27.019 32.9801 28.839 30.9901 29.839 28.9401C31.749 25.0101 33.139 20.5001 33.979 15.5401C33.979 15.5401 33.979 15.5201 33.979 15.5101V15.5001ZM20.339 20.6201C21.899 19.5601 24.799 18.4701 28.949 17.3701C25.649 20.1701 20.819 24.5501 18.269 28.2201C17.129 24.8701 17.809 22.3701 20.349 20.6101L20.339 20.6201ZM28.039 28.0501C27.069 30.0501 25.139 32.3301 19.519 29.9601C22.009 25.9901 28.179 20.6001 31.469 17.8801C30.659 21.5901 29.519 25.0201 28.039 28.0501Z" fill="#323232"/>
</svg>
