<svg width="24" height="24" viewBox="0 0 24 24" fill="none" xmlns="http://www.w3.org/2000/svg">
<g clip-path="url(#clip0_16335_1972)">
<path d="M23.6789 14.7568C25.2013 8.30659 21.2066 1.84354 14.7564 0.321152C8.30617 -1.20123 1.84311 2.79355 0.320729 9.24374C-1.20165 15.6939 2.79312 22.157 9.24332 23.6794C15.6935 25.2018 22.1566 21.207 23.6789 14.7568Z" fill="white"/>
<mask id="mask0_16335_1972" style="mask-type:luminance" maskUnits="userSpaceOnUse" x="-1" y="-1" width="26" height="26">
<path d="M23.6789 14.7568C25.2013 8.30659 21.2066 1.84354 14.7564 0.321152C8.30617 -1.20123 1.84311 2.79355 0.320729 9.24374C-1.20165 15.6939 2.79312 22.157 9.24332 23.6794C15.6935 25.2018 22.1566 21.207 23.6789 14.7568Z" fill="white"/>
</mask>
<g mask="url(#mask0_16335_1972)">
<path d="M29.9993 0H-6.00073V24H29.9993V0Z" fill="#FED700"/>
<path d="M29.9993 12H-6.00073V15.9995H29.9993V12Z" fill="black"/>
<path d="M29.9993 20.0005H-6.00073V24H29.9993V20.0005Z" fill="#FF0000"/>
<path d="M29.9993 8.00049H-6.00073V12H29.9993V8.00049Z" fill="#FF0000"/>
<path d="M29.9993 0H-6.00073V3.99953H29.9993V0Z" fill="black"/>
<path fill-rule="evenodd" clip-rule="evenodd" d="M11.9999 15.5996C13.9829 15.5996 15.5998 13.9828 15.5998 11.9998C15.5998 10.0168 13.9829 8.3999 11.9999 8.3999C10.0169 8.3999 8.40009 10.0168 8.40009 11.9998C8.40009 13.9828 10.0169 15.5996 11.9999 15.5996Z" fill="white"/>
<path fill-rule="evenodd" clip-rule="evenodd" d="M12.225 13.7763V14.7587H12.4178C12.5813 14.7587 12.735 14.83 12.8412 14.953C12.851 14.9642 12.8426 14.9795 12.8287 14.9795H12.4723C12.2781 14.9795 12.0922 15.0242 11.9273 15.1025C11.7554 15.185 11.6045 15.3037 11.4843 15.4505C11.4787 15.4575 11.4689 15.4589 11.4605 15.4533C11.4563 15.4505 11.455 15.4449 11.455 15.4407V15.4016C11.455 15.2395 11.5248 15.0871 11.6478 14.9809H11.1783C11.1685 14.9809 11.1615 14.9739 11.1615 14.9642C11.1615 14.96 11.1629 14.9558 11.1671 14.953C11.2733 14.83 11.427 14.7587 11.5891 14.7587H11.9888V13.7763H11.3753C11.2998 13.7763 11.23 13.8071 11.1797 13.8574C11.1293 13.9077 11.0986 13.9775 11.0986 14.053V14.2207C11.0986 14.2333 11.0846 14.2417 11.0734 14.2347C11.0161 14.1969 10.9686 14.1452 10.9351 14.0838C10.9127 14.0432 10.8974 13.9985 10.8904 13.9524C10.8778 13.9901 10.8708 14.0307 10.8708 14.0712V14.2766C10.8708 14.2766 10.8708 14.2836 10.8666 14.2878C10.861 14.2948 10.8499 14.2962 10.8429 14.2892C10.7786 14.2347 10.7325 14.162 10.7087 14.081C10.6612 14.1438 10.6207 14.2123 10.5857 14.2822C10.5829 14.2878 10.5773 14.292 10.5704 14.292C10.562 14.292 10.5536 14.285 10.5536 14.2752V13.9524C10.5536 13.8378 10.5997 13.7344 10.6752 13.6589C10.7506 13.5835 10.854 13.5359 10.9686 13.5359H11.986V12.9336C11.9133 12.8917 11.8393 12.8554 11.768 12.8246C11.6212 12.7618 11.4955 12.6877 11.3823 12.5997C11.2705 12.5116 11.1699 12.411 11.072 12.2908C11.0441 12.2936 11.0148 12.295 10.9854 12.2964C10.9812 12.2964 10.977 12.2964 10.9742 12.2922C10.7702 12.1343 10.6514 11.8939 10.6514 11.6354C10.6556 11.3196 10.7436 11.0205 10.8946 10.7634C11.0036 10.5789 11.1447 10.4154 11.3096 10.2813C11.2859 10.2813 11.2607 10.2743 11.2383 10.2617C11.1671 10.2198 11.1433 10.1303 11.1838 10.0591L11.2593 9.9291H10.7534C10.7408 9.9291 10.7325 9.91513 10.7395 9.90395C10.766 9.85364 10.8037 9.80752 10.8499 9.77119C10.8946 9.73625 10.9463 9.7083 11.0036 9.69293L11.209 9.63843C11.216 9.50986 11.2677 9.39387 11.3501 9.30583L11.0301 8.98582C11.0301 8.98582 11.0231 8.96905 11.0301 8.96206C11.2174 8.7748 11.4675 8.67139 11.7316 8.67139C11.958 8.67139 12.1677 8.74685 12.3354 8.87542C12.5058 9.00678 12.633 9.19264 12.6903 9.40645C12.6931 9.41484 12.6875 9.42462 12.6791 9.42602L12.2431 9.5434C12.2683 9.64681 12.2599 9.75861 12.218 9.86063C12.1928 9.92351 12.1537 9.98081 12.1076 10.0283C11.9105 10.2449 11.8015 10.5244 11.8015 10.8179C11.8015 10.9409 11.8211 11.0638 11.8588 11.1812C11.8784 11.1756 11.8979 11.1728 11.9189 11.1728C11.9524 11.1728 11.9846 11.1798 12.0139 11.1952L13.7077 12.0029C14.0794 12.1762 14.3183 12.5493 14.3183 12.9588C14.3183 13.2229 14.2289 13.4731 14.0794 13.6855C13.9201 13.9119 13.6937 14.0977 13.4379 14.2165C13.431 14.2193 13.424 14.2179 13.4198 14.2137C13.4128 14.2067 13.4128 14.1969 13.4198 14.19C13.4547 14.155 13.4855 14.1145 13.5106 14.0698C13.5288 14.0376 13.5428 14.0027 13.5539 13.9664C13.5064 13.9901 13.4547 14.0055 13.4016 14.0111C13.3974 14.0111 13.3932 14.0111 13.389 14.0069C13.3821 14.0013 13.3807 13.9915 13.3862 13.9831C13.4072 13.958 13.424 13.93 13.4379 13.9007C13.4128 13.9147 13.3876 13.9272 13.3611 13.937C13.2968 13.9594 13.2283 13.965 13.1613 13.9552C13.1557 13.9552 13.1515 13.951 13.1487 13.9454C13.1445 13.937 13.1487 13.9272 13.1571 13.923C13.2018 13.9021 13.2423 13.8727 13.2758 13.8364C13.2353 13.8322 13.1962 13.8224 13.1585 13.8057C13.1543 13.8043 13.1501 13.8015 13.1487 13.7959C13.1459 13.7875 13.1487 13.7777 13.1571 13.7749C13.273 13.7274 13.3709 13.645 13.4407 13.5415C13.5078 13.4423 13.547 13.3207 13.547 13.1922C13.547 13.174 13.547 13.1558 13.5442 13.1391C13.5204 13.2341 13.4673 13.3193 13.3932 13.3836C13.3834 13.392 13.3681 13.3864 13.3653 13.3738C13.3541 13.297 13.3345 13.2229 13.308 13.1516C13.2856 13.0957 13.2479 13.0482 13.2004 13.0133C13.1501 12.977 13.0872 12.9546 13.0187 12.9546H12.7434C12.7141 12.9546 12.6875 12.9672 12.6679 12.9853C12.6344 13.0189 12.6274 13.0706 12.6498 13.1111L12.8818 13.5136C12.9181 13.5807 12.9069 13.6631 12.8524 13.7176C12.8217 13.7484 12.7783 13.7679 12.7308 13.7679H12.2208L12.225 13.7763ZM12.225 13.093V13.5387H12.4625C12.4877 13.5387 12.51 13.529 12.5268 13.5122C12.5534 13.4856 12.5659 13.4339 12.5422 13.4018C12.4597 13.29 12.3479 13.1852 12.2264 13.093H12.225Z" fill="black"/>
<path fill-rule="evenodd" clip-rule="evenodd" d="M12.1229 11.8954L12.2627 11.9625C12.443 12.0478 12.5967 12.1777 12.7127 12.3398H12.8943L12.6721 12.1176C12.668 12.1134 12.6666 12.1078 12.668 12.1023C12.6707 12.0939 12.6791 12.0883 12.6875 12.0911L13.0942 12.2001L12.9027 11.9863C12.9027 11.9863 12.8971 11.9751 12.8985 11.9695C12.9013 11.9611 12.9111 11.9569 12.9195 11.9597L13.3723 12.1288L13.2269 11.9835L12.2934 11.5377C12.2445 11.5139 12.19 11.5125 12.1411 11.5293C12.0936 11.5461 12.0517 11.581 12.0279 11.6313C12.0042 11.6802 12.0028 11.7347 12.0195 11.7836C12.0363 11.8311 12.0712 11.8731 12.1215 11.8968L12.1229 11.8954Z" fill="white"/>
<path fill-rule="evenodd" clip-rule="evenodd" d="M13.403 13.3376C13.4799 13.2565 13.5246 13.1503 13.5274 13.0385C13.5274 13.0302 13.5358 13.0218 13.5442 13.0232C13.5511 13.0232 13.5581 13.0288 13.5595 13.0358C13.5735 13.0889 13.5805 13.1448 13.5805 13.2007C13.5805 13.3362 13.54 13.4634 13.4687 13.5682C13.403 13.666 13.3136 13.7443 13.2074 13.796C13.2409 13.8058 13.2744 13.8113 13.3094 13.8127C13.3192 13.8127 13.3261 13.8211 13.3248 13.8295C13.3248 13.8337 13.3248 13.8365 13.322 13.8393C13.2926 13.8756 13.2577 13.9078 13.2185 13.9329C13.2647 13.9329 13.308 13.9273 13.3513 13.912C13.3918 13.898 13.431 13.877 13.4645 13.8505C13.4715 13.8449 13.4827 13.8463 13.4883 13.8533C13.491 13.8575 13.4924 13.863 13.491 13.8686C13.4785 13.9078 13.4617 13.9441 13.4379 13.979C13.4855 13.9693 13.5316 13.9511 13.5721 13.9259C13.5805 13.9217 13.5903 13.9231 13.5945 13.9315C13.5973 13.9357 13.5973 13.9399 13.5973 13.9441C13.5861 13.9972 13.5665 14.0475 13.5414 14.0922C13.5288 14.1146 13.5148 14.137 13.4994 14.1579C13.7202 14.0419 13.9145 13.8742 14.0556 13.6744C14.201 13.4676 14.289 13.2244 14.289 12.9673C14.289 12.569 14.0584 12.2085 13.6979 12.0408C13.5414 11.9695 13.3834 11.8968 13.2241 11.8228H13.1137L13.4519 12.1609C13.4519 12.1609 13.4589 12.1777 13.4519 12.1847C13.4463 12.1903 13.4393 12.1903 13.4338 12.1875L12.974 12.0156L13.1585 12.2224C13.1585 12.2224 13.164 12.2392 13.1585 12.2462C13.1543 12.2504 13.1487 12.2518 13.1431 12.2504L12.7434 12.1428L12.9502 12.3496C12.9502 12.3496 12.9572 12.3664 12.9502 12.3734C12.9474 12.3761 12.9418 12.3789 12.9377 12.3775H12.7825L12.8454 12.4069C13.0369 12.4977 13.185 12.6431 13.2814 12.8163C13.3709 12.9757 13.4156 13.1587 13.4086 13.3432L13.403 13.3376Z" fill="#FF0000"/>
<path fill-rule="evenodd" clip-rule="evenodd" d="M11.2747 9.84521H11.0357C10.9868 9.84521 10.9393 9.8522 10.8946 9.86618C10.8667 9.87456 10.8415 9.88574 10.8163 9.89832H11.2747V9.84521Z" fill="white"/>
<path fill-rule="evenodd" clip-rule="evenodd" d="M10.8065 9.86592C10.8317 9.85334 10.8568 9.84356 10.8848 9.83517C10.9323 9.8198 10.984 9.81281 11.0357 9.81281H11.2747V9.7066C11.2747 9.69542 11.2719 9.68285 11.2621 9.67586C11.2537 9.66887 11.2425 9.66887 11.2313 9.67167L11.0147 9.73036C10.9616 9.74434 10.9141 9.76949 10.8736 9.80163C10.8498 9.8212 10.8275 9.84356 10.8079 9.86871L10.8065 9.86592Z" fill="black"/>
<path fill-rule="evenodd" clip-rule="evenodd" d="M11.5835 9.16575L11.4703 8.74512C11.3208 8.78844 11.1825 8.8667 11.0679 8.97849L11.3753 9.28593C11.4354 9.22864 11.5081 9.18951 11.5835 9.16715V9.16575Z" fill="#FF0000"/>
<path fill-rule="evenodd" clip-rule="evenodd" d="M12.0936 9.28467L12.401 8.97723C12.3745 8.95207 12.3465 8.92832 12.3172 8.90596C12.1551 8.78158 11.9538 8.70752 11.7344 8.70752C11.6548 8.70752 11.5779 8.7173 11.5024 8.73547L11.6156 9.1561C11.7819 9.11698 11.9636 9.1603 12.095 9.28327L12.0936 9.28467Z" fill="#FED700"/>
<path fill-rule="evenodd" clip-rule="evenodd" d="M12.4248 9.00091L12.1174 9.30835C12.1733 9.36844 12.2138 9.43971 12.2376 9.51517L12.6582 9.40198C12.6149 9.24826 12.5338 9.11131 12.4262 8.99951L12.4248 9.00091Z" fill="#FF0000"/>
<path fill-rule="evenodd" clip-rule="evenodd" d="M11.2565 10.2351C11.297 10.2589 11.3473 10.2561 11.3851 10.2282C11.4256 10.1988 11.4703 10.1695 11.5136 10.1443C11.4689 10.1233 11.427 10.0968 11.3907 10.0633C11.3529 10.0297 11.3194 9.99059 11.2914 9.94727L11.216 10.0772C11.1838 10.1317 11.2034 10.203 11.2579 10.2337L11.2565 10.2351Z" fill="#FF0000"/>
<path fill-rule="evenodd" clip-rule="evenodd" d="M11.8309 11.198C11.7917 11.0764 11.7722 10.9506 11.7722 10.8234C11.7722 10.5216 11.884 10.2337 12.0866 10.0115C12.1313 9.96679 12.1663 9.91229 12.1914 9.8522C12.2655 9.67053 12.2235 9.45812 12.0838 9.31837C11.8951 9.12971 11.5849 9.12692 11.3935 9.31418C11.3082 9.39663 11.2537 9.50843 11.2453 9.6342C11.2593 9.6342 11.2719 9.63839 11.2831 9.64817C11.2998 9.66215 11.3082 9.68311 11.3082 9.70547V9.91089C11.3362 9.95841 11.3711 10.0017 11.413 10.0381C11.4549 10.0744 11.5039 10.1051 11.557 10.1261C11.5695 10.1317 11.5709 10.1485 11.5584 10.1554C11.297 10.305 11.079 10.523 10.9253 10.7829C10.7772 11.0345 10.6905 11.3265 10.6863 11.6368C10.6863 11.8827 10.7981 12.1133 10.9924 12.2642C11.1489 12.2586 11.2984 12.2251 11.4368 12.1706C11.5779 12.1133 11.7051 12.0336 11.8169 11.9344C11.7456 11.8142 11.7037 11.6731 11.7037 11.5222V11.3964C11.7037 11.3363 11.7274 11.2818 11.768 11.2413C11.7861 11.2231 11.8071 11.2077 11.8309 11.198Z" fill="black"/>
<path fill-rule="evenodd" clip-rule="evenodd" d="M12.5492 13.5345C12.5268 13.5569 12.4947 13.5709 12.4611 13.5709H10.9701C10.8652 13.5709 10.7688 13.6142 10.6989 13.6827C10.6291 13.7526 10.5858 13.8476 10.5858 13.9538V14.2095C10.6207 14.148 10.6598 14.0893 10.7031 14.0334C10.7087 14.0265 10.7185 14.0251 10.7255 14.0306C10.7283 14.0334 10.7311 14.0362 10.7311 14.0404C10.7451 14.1159 10.7814 14.1844 10.8345 14.2375V14.0698C10.8345 14.0013 10.8513 13.9356 10.8834 13.8741C10.8876 13.8657 10.8974 13.863 10.9058 13.8671C10.9128 13.8713 10.9142 13.8769 10.9142 13.8853C10.9142 13.951 10.9309 14.0125 10.9603 14.067C10.9854 14.1131 11.0204 14.155 11.0623 14.1872V14.0516C11.0623 13.9664 11.0972 13.8895 11.1531 13.8322C11.209 13.7763 11.2873 13.7414 11.3725 13.7414H12.7337C12.7714 13.7414 12.8063 13.726 12.8315 13.7008C12.8748 13.6575 12.8846 13.5904 12.8552 13.5359C12.784 13.4004 12.6959 13.2676 12.6233 13.1335C12.5939 13.0804 12.6037 13.0119 12.647 12.9686C12.6722 12.9434 12.7071 12.928 12.7462 12.928H13.0215C13.097 12.928 13.1655 12.9518 13.2214 12.9923C13.2284 12.9979 13.2353 13.0035 13.2423 13.0091C13.2158 12.9588 13.185 12.9113 13.1501 12.8652C13.0383 12.717 12.8902 12.5968 12.7155 12.5158L12.1705 12.2559C12.0321 12.1916 11.9147 12.0896 11.8323 11.9624C11.7191 12.0616 11.5891 12.1427 11.4466 12.2C11.3404 12.2433 11.2286 12.2726 11.1112 12.2866C11.2034 12.397 11.2985 12.492 11.4033 12.5731C11.5151 12.6597 11.638 12.7338 11.782 12.7939C11.9301 12.8568 12.0894 12.9476 12.2334 13.0552C12.3633 13.1516 12.4807 13.2634 12.5688 13.3808C12.6009 13.4227 12.5855 13.4954 12.5492 13.5304V13.5345Z" fill="black"/>
<path fill-rule="evenodd" clip-rule="evenodd" d="M12.0195 13.7764V14.7756C12.0195 14.7853 12.0125 14.7923 12.0028 14.7923H11.5863C11.4452 14.7923 11.3124 14.8482 11.2132 14.9474H11.6911C11.6911 14.9474 11.7009 14.9502 11.7051 14.9544C11.7107 14.9614 11.7093 14.9726 11.7009 14.9782C11.5668 15.076 11.4871 15.2311 11.4857 15.396C11.6031 15.2619 11.7484 15.1515 11.9105 15.0746C12.081 14.9936 12.2697 14.9488 12.4695 14.9488H12.7881C12.6889 14.8496 12.5562 14.7937 12.415 14.7937H12.2054C12.197 14.7937 12.1886 14.7867 12.1886 14.7769V13.7778H12.0167L12.0195 13.7764Z" fill="black"/>
<path fill-rule="evenodd" clip-rule="evenodd" d="M12.1914 13.5388V13.0692C12.1355 13.0287 12.0782 12.991 12.0195 12.9561V13.5388H12.1914Z" fill="black"/>
<path fill-rule="evenodd" clip-rule="evenodd" d="M11.8169 12.6459C11.8113 12.6109 11.8071 12.5774 11.8043 12.5424C11.8015 12.5075 11.8001 12.4726 11.8001 12.4376C11.8001 12.3915 11.8029 12.3454 11.8071 12.3007C11.8127 12.2546 11.8197 12.2099 11.8295 12.1651C11.8309 12.1568 11.8406 12.1512 11.849 12.1526C11.8532 12.1526 11.8574 12.1567 11.8602 12.1609C11.9105 12.242 11.972 12.3175 12.0405 12.3845C12.1089 12.4516 12.1858 12.5103 12.2683 12.5592C12.2766 12.5634 12.2794 12.5746 12.2738 12.5816C12.2711 12.5872 12.2641 12.59 12.2585 12.59H12.2375C12.169 12.59 12.1006 12.5956 12.0349 12.6067C11.9678 12.6179 11.9021 12.6361 11.8392 12.6584C11.8309 12.6612 11.8211 12.657 11.8183 12.6487V12.6459H11.8169Z" fill="black"/>
<path fill-rule="evenodd" clip-rule="evenodd" d="M11.1084 11.9104C11.0664 11.7595 11.0455 11.6044 11.0455 11.4479C11.0455 11.1781 11.1084 10.9224 11.2188 10.6946C11.3347 10.4585 11.5024 10.253 11.7079 10.0923C11.7149 10.0867 11.726 10.0881 11.7302 10.0951C11.7344 10.1007 11.7344 10.1091 11.7302 10.1161C11.5639 10.3257 11.4745 10.5842 11.4745 10.8525C11.4745 11.037 11.5164 11.2173 11.5989 11.3822C11.6031 11.3906 11.5989 11.4003 11.5919 11.4045C11.5891 11.4045 11.5877 11.4059 11.5849 11.4059H11.5262L11.5737 11.4884C11.5779 11.4968 11.5751 11.5065 11.5681 11.5107C11.5653 11.5121 11.5625 11.5135 11.5597 11.5135H11.42L11.4675 11.596C11.4717 11.6044 11.4689 11.6142 11.4619 11.6183C11.4591 11.6197 11.4563 11.6211 11.4535 11.6211H11.3138L11.3613 11.7036C11.3655 11.712 11.3627 11.7218 11.3557 11.7259C11.3529 11.7273 11.3501 11.7287 11.3459 11.7287H11.1908L11.1405 11.9146C11.1377 11.923 11.1293 11.9286 11.1209 11.9258C11.1153 11.9244 11.1112 11.9188 11.1098 11.9132L11.1084 11.9104Z" fill="black"/>
<path fill-rule="evenodd" clip-rule="evenodd" d="M11.5444 9.54736C11.5989 9.54736 11.6422 9.59068 11.6422 9.64519C11.6422 9.69969 11.5989 9.74301 11.5444 9.74301C11.4899 9.74301 11.4466 9.69829 11.4466 9.64519C11.4466 9.59208 11.4899 9.54736 11.5444 9.54736Z" fill="black"/>
<path fill-rule="evenodd" clip-rule="evenodd" d="M11.9105 9.34333C12.1132 9.45512 12.1649 9.72344 12.0195 9.90091C11.9567 9.97777 11.796 10.0812 11.6995 10.0043C11.6255 9.94563 11.6408 9.83244 11.7247 9.79191C11.8826 9.71645 11.9539 9.525 11.8882 9.36289C11.8854 9.35451 11.8882 9.34472 11.8966 9.34193C11.9022 9.34053 11.9064 9.34193 11.9105 9.34193V9.34333Z" fill="black"/>
<path fill-rule="evenodd" clip-rule="evenodd" d="M11.5444 9.58105C11.5807 9.58105 11.6101 9.6104 11.6101 9.64674C11.6101 9.68307 11.5807 9.71242 11.5444 9.71242C11.508 9.71242 11.4787 9.68307 11.4787 9.64674C11.4787 9.6104 11.508 9.58105 11.5444 9.58105Z" fill="white"/>
<path fill-rule="evenodd" clip-rule="evenodd" d="M11.9329 9.39648C11.9776 9.56418 11.8966 9.74725 11.7386 9.82271C11.6772 9.85345 11.666 9.93591 11.7191 9.97923C11.7973 10.0421 11.9427 9.94149 11.993 9.88001C12.1146 9.73187 12.0866 9.50968 11.9329 9.39648Z" fill="#999999"/>
<path fill-rule="evenodd" clip-rule="evenodd" d="M12.1858 12.2263L12.7308 12.4862C12.9111 12.5686 13.062 12.6944 13.1766 12.8453C13.2619 12.9599 13.3275 13.0885 13.3681 13.2269C13.3583 13.0857 13.3164 12.9474 13.2465 12.8244C13.1529 12.6581 13.0089 12.5169 12.8245 12.4289L12.6959 12.3674C12.6959 12.3674 12.6903 12.3646 12.6889 12.3618C12.5757 12.2011 12.4234 12.0725 12.2473 11.9887L12.1062 11.9216C12.0489 11.8937 12.0069 11.8462 11.9874 11.7903C11.9678 11.7344 11.9692 11.6715 11.9972 11.6128C12.0251 11.5555 12.0726 11.5136 12.1285 11.494C12.1844 11.4744 12.2473 11.4758 12.306 11.5038L13.1557 11.909L13.0578 11.8112C13.0578 11.8112 13.0536 11.8042 13.0536 11.8C13.0536 11.7917 13.0606 11.7833 13.0704 11.7833H13.1515C12.7644 11.6016 12.3731 11.4129 12.0014 11.2257C11.9762 11.2131 11.9482 11.2075 11.9203 11.2075C11.8686 11.2075 11.8225 11.2285 11.7889 11.262C11.7554 11.2956 11.7344 11.3417 11.7344 11.3934V11.5192C11.7344 11.6729 11.7792 11.8154 11.856 11.937C11.9357 12.0614 12.0489 12.162 12.1844 12.2249L12.1858 12.2263Z" fill="#999999"/>
<path fill-rule="evenodd" clip-rule="evenodd" d="M11.8365 12.5379C11.8393 12.5659 11.8421 12.5924 11.8462 12.6204C11.9049 12.6008 11.9664 12.5855 12.0293 12.5743C12.0852 12.5645 12.1439 12.5589 12.2026 12.5575C12.1355 12.5142 12.074 12.4639 12.0167 12.408C11.9553 12.3479 11.9008 12.2822 11.8532 12.2109C11.8476 12.2417 11.8421 12.2724 11.8393 12.3032C11.8337 12.3465 11.8323 12.3912 11.8323 12.4359C11.8323 12.4709 11.8323 12.5044 11.8365 12.5379Z" fill="#999999"/>
<path fill-rule="evenodd" clip-rule="evenodd" d="M11.1237 11.8422L11.1615 11.7039C11.1629 11.6969 11.1699 11.6913 11.1769 11.6913H11.3166L11.2691 11.6102C11.2691 11.6102 11.2663 11.6046 11.2663 11.6018C11.2663 11.5935 11.2733 11.5851 11.2831 11.5851H11.4228L11.3767 11.504C11.3767 11.504 11.3739 11.4984 11.3739 11.4942C11.3739 11.4859 11.3809 11.4775 11.3907 11.4775H11.5304L11.4829 11.3964C11.4829 11.3964 11.4801 11.3908 11.4801 11.388C11.4801 11.3783 11.4871 11.3713 11.4969 11.3713H11.557C11.4801 11.2078 11.4396 11.0303 11.4396 10.85C11.4396 10.6194 11.5039 10.3944 11.6282 10.2002C11.4717 10.3427 11.3418 10.516 11.2467 10.7089C11.1377 10.9325 11.0762 11.1826 11.0762 11.4481C11.0762 11.5809 11.0916 11.7136 11.1223 11.8422H11.1237Z" fill="#999999"/>
</g>
</g>
<rect x="0.25" y="0.25" width="23.5" height="23.5" rx="11.75" stroke="#E5E3E1" stroke-width="0.5"/>
<defs>
<clipPath id="clip0_16335_1972">
<rect width="24" height="24" rx="12" fill="white"/>
</clipPath>
</defs>
</svg>
