<svg width="24" height="24" viewBox="0 0 24 24" fill="none" xmlns="http://www.w3.org/2000/svg">
<g clip-path="url(#clip0_16335_8646)">
<path d="M20.4851 20.4853C25.1714 15.799 25.1714 8.20101 20.4851 3.51472C15.7988 -1.17157 8.20081 -1.17157 3.51452 3.51472C-1.17177 8.20101 -1.17177 15.799 3.51452 20.4853C8.20081 25.1716 15.7988 25.1716 20.4851 20.4853Z" fill="white"/>
<mask id="mask0_16335_8646" style="mask-type:luminance" maskUnits="userSpaceOnUse" x="-1" y="0" width="25" height="24">
<path d="M20.4851 20.4853C25.1714 15.799 25.1714 8.20101 20.4851 3.51472C15.7988 -1.17157 8.20081 -1.17157 3.51452 3.51472C-1.17177 8.20101 -1.17177 15.799 3.51452 20.4853C8.20081 25.1716 15.7988 25.1716 20.4851 20.4853Z" fill="white"/>
</mask>
<g mask="url(#mask0_16335_8646)">
<path d="M29.9979 16.001H-6.00208V24.0014H29.9979V16.001Z" fill="black"/>
<path d="M29.9979 8.00049H-6.00208V16.001H29.9979V8.00049Z" fill="white"/>
<path d="M29.9979 0H-6.00208V8.00047H29.9979V0Z" fill="#FF0000"/>
<path fill-rule="evenodd" clip-rule="evenodd" d="M11.3251 14.8411L11.2957 15.2477L11.3879 15.2519L11.4033 14.9221L11.3251 14.8411Z" fill="#C09300"/>
<path fill-rule="evenodd" clip-rule="evenodd" d="M11.1657 14.8885L11.1867 14.9179L11.1769 15.1471L11.0651 15.1541L11.0553 15.1303L11.0833 15.101L11.1126 15.1149L11.1308 15.0884L11.0483 14.9347L10.9072 15.0227L10.889 15.0758L10.9743 15.101L10.9952 15.0744L10.9701 15.0381L11.0232 15.0073L11.0595 15.0632L10.9813 15.1401L10.7647 15.1107L10.7199 14.9766L10.6696 15.0576L10.7116 15.1233C10.7116 15.1233 10.7241 15.1988 10.6752 15.2225C10.6263 15.2449 10.5788 15.2323 10.5788 15.2323L10.5662 15.2547L10.6109 15.284C10.6109 15.284 10.7116 15.2924 10.7423 15.2575C10.773 15.2225 10.7758 15.168 10.7758 15.168L10.9729 15.196L11.0106 15.182L11.0414 15.2128L11.2342 15.2365L11.2622 14.8201L11.1671 14.8899L11.1657 14.8885Z" fill="#C09300"/>
<path fill-rule="evenodd" clip-rule="evenodd" d="M10.3482 15.136L10.3105 15.1723C10.3105 15.1723 10.3049 15.2059 10.3203 15.217C10.3357 15.2296 10.372 15.1905 10.372 15.1905L10.3468 15.136H10.3482Z" fill="#C09300"/>
<path fill-rule="evenodd" clip-rule="evenodd" d="M10.2518 15.1218H10.2798C10.2798 15.1218 10.291 15.1651 10.2714 15.1833C10.2518 15.2001 10.2239 15.1777 10.2239 15.1777L10.2365 15.126L10.2518 15.1232V15.1218Z" fill="#C09300"/>
<path fill-rule="evenodd" clip-rule="evenodd" d="M10.6054 15.1358L10.1792 15.0534L10.1386 15.0212C10.1386 15.0212 10.1372 14.9234 10.1596 14.8982C10.1819 14.8731 10.2197 14.8675 10.2323 14.8675C10.2448 14.8675 10.2714 14.8759 10.2714 14.8759V14.813L10.3608 14.7725L10.3161 15.0254L10.3944 15.0296L10.4027 14.9975L10.3776 14.9695L10.4614 14.908L10.4712 14.9136L10.4545 15.0534L10.5285 15.0478L10.5439 14.9891L10.5257 14.9597L10.5998 14.9066L10.6319 14.915L10.6054 15.1358ZM10.1917 14.9402C10.1917 14.9402 10.1792 14.9779 10.2001 14.9947C10.2211 15.0114 10.256 14.9975 10.256 14.9975V14.9234C10.256 14.9234 10.2057 14.901 10.1903 14.9402H10.1917Z" fill="#C09300"/>
<path fill-rule="evenodd" clip-rule="evenodd" d="M10.2099 14.718C10.2099 14.718 10.1875 14.7543 10.1973 14.7669C10.2071 14.7795 10.2462 14.7865 10.2588 14.7655C10.27 14.7432 10.2825 14.7138 10.2686 14.704C10.2546 14.6956 10.2099 14.718 10.2099 14.718Z" fill="#C09300"/>
<path fill-rule="evenodd" clip-rule="evenodd" d="M10.1232 14.7055C10.1232 14.7055 10.1177 14.7432 10.1302 14.7502C10.1428 14.7572 10.168 14.739 10.168 14.7167C10.168 14.6943 10.1624 14.679 10.1484 14.679C10.1344 14.679 10.1246 14.7055 10.1246 14.7055H10.1232Z" fill="#C09300"/>
<path fill-rule="evenodd" clip-rule="evenodd" d="M11.448 15.3356L11.4662 15.3147C11.4662 15.3147 11.5291 15.3091 11.5543 15.2825C11.5794 15.256 11.5892 15.1931 11.5696 15.1638C11.5515 15.1358 11.5361 15.1218 11.5361 15.1218L11.5612 15.0156L11.6353 15.1107V15.161H11.7499V15.0939L11.8072 15.017L11.8282 15.0338L12.0336 15.0436L12.0587 15.1526H12.0909V15.0757L12.2097 15.0254L12.2404 15.0534L12.2446 15.2252L12.035 15.2224L12.0392 15.263C12.0392 15.263 12.0028 15.2993 11.9861 15.3119C11.9693 15.3245 11.9218 15.2923 11.9218 15.2923L11.8952 15.235L11.6423 15.2224C11.6423 15.2224 11.6353 15.2951 11.6004 15.3203C11.5668 15.3468 11.5081 15.3608 11.4453 15.3384L11.448 15.3356ZM12.137 15.1148V15.1568L12.1817 15.1666V15.0925L12.137 15.1148ZM11.8072 15.1652L11.9386 15.1624L11.9302 15.2029L11.9637 15.2476L11.9931 15.2183L11.9889 15.1232L11.8519 15.1023L11.796 15.14L11.8058 15.1666L11.8072 15.1652Z" fill="#C09300"/>
<path fill-rule="evenodd" clip-rule="evenodd" d="M12.3606 15.2492L12.348 15.1989C12.348 15.1989 12.3452 15.0899 12.3857 15.0689C12.4263 15.0466 12.4696 15.0564 12.4696 15.0564L12.4542 14.9921C12.4542 14.9921 12.5003 14.9544 12.5087 14.9404C12.5171 14.9264 12.5367 14.9376 12.5367 14.9376V15.1752L12.6051 15.1668L12.6093 15.1248L12.587 15.0927L12.6387 15.0005L12.6652 15.013L12.6624 15.2171L12.6289 15.2422L12.3606 15.2478V15.2492ZM12.3983 15.1388C12.3983 15.1388 12.3997 15.2017 12.4305 15.1975C12.4612 15.1947 12.4822 15.1318 12.4612 15.1179C12.4416 15.1039 12.3941 15.1081 12.3969 15.1374L12.3983 15.1388Z" fill="#C09300"/>
<path fill-rule="evenodd" clip-rule="evenodd" d="M12.3857 14.9096C12.3857 14.9096 12.4151 14.9292 12.3969 14.9529C12.3787 14.9781 12.3606 14.9781 12.3438 14.9599C12.327 14.9403 12.3256 14.9194 12.3396 14.911C12.3522 14.9026 12.3731 14.8858 12.3857 14.911V14.9096Z" fill="#C09300"/>
<path fill-rule="evenodd" clip-rule="evenodd" d="M12.5269 15.3233C12.5269 15.3233 12.5325 15.2911 12.5506 15.2925C12.5688 15.2925 12.587 15.3121 12.5786 15.3344C12.5702 15.3568 12.5227 15.3484 12.5269 15.3233Z" fill="#C09300"/>
<path fill-rule="evenodd" clip-rule="evenodd" d="M12.6205 15.2953C12.6205 15.2953 12.6093 15.3359 12.6163 15.3428C12.6219 15.3498 12.6722 15.3512 12.6806 15.3512C12.689 15.3512 12.7826 15.3065 12.7826 15.3065C12.7826 15.3065 12.8693 15.3331 12.9196 15.3065C12.9699 15.2786 12.9852 15.2045 12.9852 15.2045L13.0132 15.1975C13.0132 15.1975 13.0565 15.2646 13.1138 15.2772C13.1725 15.2897 13.2074 15.2813 13.2074 15.2813L13.1977 15.1584L13.3961 15.1388C13.3961 15.1388 13.445 15.1975 13.4911 15.1919C13.5372 15.1877 13.568 15.1304 13.568 15.1304V15.1053L13.7469 15.0661L13.8153 15.1248L13.8335 15.0983L13.8181 15.055C13.8181 15.055 13.8824 15.0438 13.8726 15.0102C13.8628 14.9767 13.8251 14.9641 13.8251 14.9641L13.7888 14.9711L13.7329 14.8733L13.5834 14.8803L13.568 14.9446H13.7035L13.7399 14.9949C13.7399 14.9949 13.6574 15.0312 13.6393 15.0326C13.6211 15.034 13.5512 15.0494 13.5512 15.0494C13.5512 15.0494 13.5414 14.9879 13.4799 14.9907C13.4171 14.9935 13.4045 15.0606 13.4045 15.0606L13.3095 15.0564C13.3095 15.0564 13.2885 15.0116 13.2438 14.9725C13.1991 14.932 13.1781 14.939 13.1781 14.939L13.1753 14.8733L13.1096 14.9012L13.1208 14.9515C13.1208 14.9515 13.0551 14.9809 13.0286 15.0172C13.002 15.0536 13.009 15.1164 13.009 15.1164H12.9769L12.9629 14.9767L12.8651 15.0102V15.048L12.9028 15.0536C12.9028 15.0536 12.8329 15.0578 12.8245 15.1123C12.8161 15.1668 12.8217 15.2045 12.8217 15.2045L12.9265 15.1975C12.9265 15.1975 12.9224 15.259 12.8762 15.2646C12.8301 15.2716 12.7868 15.2562 12.7868 15.2562C12.7868 15.2562 12.7826 15.1751 12.7728 15.1304C12.763 15.0857 12.7211 15.0256 12.7211 15.0256L12.6904 15.1151C12.6904 15.1151 12.7407 15.1905 12.7379 15.2115C12.7351 15.2324 12.7183 15.2786 12.696 15.2897C12.6736 15.3009 12.6191 15.2897 12.6191 15.2897L12.6205 15.2953ZM13.4548 15.0606C13.4813 15.0256 13.5051 15.0647 13.5093 15.0913C13.5135 15.1164 13.4813 15.1346 13.4576 15.1137C13.4338 15.0927 13.4548 15.0606 13.4548 15.0606ZM13.0775 15.1709L13.1376 15.1598L13.1404 15.2157C13.1404 15.2157 13.0914 15.2268 13.0775 15.1709ZM12.8706 15.1458C12.8665 15.0955 12.9084 15.0927 12.9182 15.1025C12.9279 15.1123 12.914 15.1388 12.914 15.1388C12.914 15.1388 12.8776 15.1458 12.8706 15.1458ZM13.097 15.0214L13.1306 15.1053L13.0635 15.1192C13.0635 15.1192 13.0579 15.1123 13.0593 15.0871C13.0593 15.0619 13.0984 15.0214 13.0984 15.0214H13.097ZM13.1655 15.0172C13.1767 15.0005 13.2186 15.0172 13.2298 15.0354C13.241 15.055 13.241 15.0857 13.241 15.0857L13.1725 15.0927L13.1655 15.0158V15.0172Z" fill="#C09300"/>
<path fill-rule="evenodd" clip-rule="evenodd" d="M13.6602 15.1527C13.6602 15.1527 13.6308 15.2016 13.649 15.2184C13.6672 15.2366 13.7133 15.231 13.7161 15.2002C13.7189 15.1681 13.6825 15.1178 13.6602 15.1527Z" fill="#C09300"/>
<path fill-rule="evenodd" clip-rule="evenodd" d="M12.436 14.9096C12.436 14.9096 12.4165 14.9305 12.4319 14.9473C12.4472 14.9655 12.4724 14.9627 12.4766 14.9361C12.4822 14.9096 12.4738 14.8928 12.436 14.9096Z" fill="#C09300"/>
<path fill-rule="evenodd" clip-rule="evenodd" d="M11.912 8.91727C11.9315 8.92845 11.9385 8.9536 11.9259 8.97177C11.9148 8.99133 11.8896 8.99832 11.8714 8.98574L11.7722 8.92845C11.775 9.18558 11.7219 9.45948 11.6283 9.69985C11.5318 9.9472 11.3893 10.1708 11.2118 10.3622C11.1965 10.379 11.1713 10.379 11.1545 10.365C11.1378 10.3497 11.1378 10.3245 11.1517 10.3077C11.1993 10.256 11.2454 10.2015 11.2873 10.1442C11.1406 10.1093 10.9966 10.0646 10.8583 10.0101C10.7004 9.9472 10.548 9.87034 10.4055 9.7823C10.3272 9.73478 10.2434 9.71242 10.1623 9.71242C10.0869 9.71242 10.0128 9.73199 9.94853 9.76692C9.88424 9.80186 9.82974 9.85357 9.78922 9.91645C9.75707 9.96816 9.73611 10.0282 9.72912 10.0953C9.73751 10.0883 9.74729 10.08 9.75707 10.0744C9.80319 10.0436 9.86048 10.0255 9.92058 10.0255C9.96809 10.0255 10.0156 10.038 10.0589 10.0604C10.1008 10.0827 10.1372 10.1149 10.1637 10.154C10.2825 10.3189 10.439 10.4545 10.6207 10.5481C10.7954 10.6375 10.9952 10.6892 11.2062 10.6892C11.3474 10.6892 11.4843 10.6669 11.6101 10.625C11.7415 10.5816 11.863 10.5174 11.972 10.4363C11.9874 10.4251 12.007 10.4251 12.0224 10.4363C12.1314 10.5174 12.2529 10.5816 12.3843 10.625C12.5115 10.6669 12.647 10.6892 12.7882 10.6892C12.9992 10.6892 13.199 10.6375 13.3737 10.5481C13.5554 10.4545 13.7119 10.3189 13.8307 10.154C13.8572 10.1149 13.8936 10.0827 13.9355 10.0604C13.9774 10.038 14.0263 10.0255 14.0738 10.0255C14.1339 10.0255 14.1898 10.0436 14.2373 10.0744C14.2471 10.0814 14.2569 10.0883 14.2653 10.0953C14.2583 10.0269 14.2359 9.96536 14.2024 9.91226C14.1633 9.84937 14.1074 9.79906 14.0445 9.76553C13.9802 9.73059 13.9075 9.71242 13.8335 9.71242C13.744 9.71242 13.6602 9.74177 13.5847 9.78789C13.4422 9.87313 13.2927 9.94859 13.1361 10.0101C12.9964 10.066 12.8525 10.1121 12.7029 10.1456C12.7351 10.2029 12.77 10.2588 12.8077 10.3119C12.8203 10.3301 12.8161 10.3553 12.7979 10.3678C12.7798 10.3804 12.7546 10.3762 12.7421 10.358C12.5981 10.1512 12.4947 9.92344 12.4332 9.68308C12.3731 9.4469 12.3536 9.19955 12.3773 8.95081C12.3787 8.93264 12.3801 8.91447 12.3801 8.89491C12.3801 8.79569 12.3452 8.70346 12.2851 8.63498C12.225 8.5665 12.1411 8.51899 12.0419 8.50921C12.0293 8.50921 12.014 8.50641 11.9986 8.50641C11.9623 8.50641 11.9273 8.512 11.8938 8.52039C11.8826 8.52318 11.8714 8.52738 11.8603 8.53157L12.021 8.6238C12.0405 8.63498 12.0461 8.66013 12.0349 8.6797C12.0238 8.69926 11.9986 8.70485 11.9804 8.69507L11.7415 8.55672C11.6828 8.52318 11.6143 8.5162 11.5528 8.53157C11.4927 8.54834 11.4368 8.58747 11.4033 8.64476C11.3809 8.68669 11.3683 8.72302 11.3697 8.77193C11.4089 8.75237 11.4508 8.74119 11.4927 8.73839C11.5556 8.7342 11.6199 8.74678 11.6786 8.78032L11.912 8.91587V8.91727ZM10.9393 10.7424C11.026 10.7591 11.1154 10.7689 11.2076 10.7689C11.353 10.7689 11.4997 10.7451 11.6367 10.699C11.7666 10.6557 11.8882 10.5928 11.9986 10.5146C12.1076 10.5928 12.2292 10.6543 12.3605 10.699C12.4975 10.7451 12.6456 10.7689 12.7896 10.7689C12.8818 10.7689 12.9712 10.7605 13.0579 10.7424C13.0243 11.1574 12.9153 11.5515 12.7365 11.9274C12.5576 12.3005 12.3005 12.6513 11.9986 12.935C11.6967 12.6513 11.4396 12.3005 11.2607 11.9274C11.0819 11.5501 10.9743 11.1574 10.9393 10.7424ZM13.4617 10.5914C13.6001 10.5132 13.7217 10.4112 13.8251 10.291V13.8797L13.4617 13.5163V10.59V10.5914ZM13.3807 13.4367L13.1823 13.2382L13.0187 12.6261V11.4131C13.0816 11.1909 13.1236 10.9604 13.1417 10.7228C13.2256 10.7004 13.3052 10.6711 13.3821 10.6333V13.4367H13.3807ZM13.9061 10.1876C13.9243 10.1638 13.9481 10.1442 13.9746 10.1303C14.0054 10.1135 14.0403 10.1051 14.0752 10.1051C14.1185 10.1051 14.1605 10.1177 14.194 10.1414C14.2262 10.1638 14.2527 10.1945 14.2695 10.2309V14.3254L13.9061 13.9621V10.1876ZM10.1721 10.2924C10.2741 10.4126 10.3971 10.5132 10.5355 10.5928V13.5191L10.1721 13.8824V10.2938V10.2924ZM10.0911 13.9621L9.72773 14.3254V10.2309C9.7445 10.1945 9.77105 10.1638 9.80319 10.1414C9.83673 10.1191 9.87725 10.1051 9.92197 10.1051C9.95691 10.1051 9.99185 10.1135 10.0226 10.1303C10.0491 10.1442 10.0729 10.1638 10.0911 10.1876V13.9621ZM10.6165 10.6347C10.6934 10.6711 10.773 10.7018 10.8569 10.7242C10.875 10.9618 10.917 11.1923 10.9799 11.4145V12.6275L10.8163 13.2396L10.6179 13.4381V10.6347H10.6165ZM13.0341 14.7824L13.1319 14.6343L12.9642 14.3422L12.8804 14.6552L13.0341 14.7824ZM12.9377 12.3243V11.6619C12.9056 11.7499 12.8692 11.8366 12.8301 11.9218L12.9377 12.3243ZM13.2242 13.3947L13.4645 14.2905C13.5372 14.2793 13.6113 14.2681 13.6839 14.2542C13.6909 14.2542 13.6965 14.2542 13.7021 14.2542L14.0179 14.3394C14.0361 14.3436 14.0487 14.3604 14.0487 14.3785V14.6972L14.2122 14.8607C14.2248 14.8732 14.2276 14.8928 14.2192 14.9096L13.9467 15.3805C13.9411 15.3917 13.9299 15.4001 13.9173 15.4029C13.6043 15.4588 13.2857 15.5007 12.9642 15.5287C12.647 15.5566 12.3242 15.5706 12 15.5706C11.6758 15.5706 11.353 15.5566 11.0358 15.5287C10.7143 15.5007 10.3957 15.4588 10.0827 15.4029C10.0715 15.4015 10.0603 15.3945 10.0547 15.3833L9.78223 14.9124C9.77105 14.897 9.77245 14.8746 9.78642 14.8607L9.95132 14.6972V14.3785C9.95132 14.3604 9.9639 14.345 9.98067 14.3394L10.2965 14.2542C10.2965 14.2542 10.3091 14.2514 10.3147 14.2542C10.3873 14.2667 10.46 14.2793 10.5341 14.2905L10.7744 13.3947L9.71794 14.4512C9.70257 14.4666 9.67602 14.4666 9.66065 14.4512C9.65226 14.4428 9.64807 14.433 9.64807 14.4233V10.147C9.64807 10.0436 9.67602 9.95139 9.72353 9.87453C9.76965 9.79907 9.83673 9.73758 9.91219 9.69705C9.98905 9.65513 10.0757 9.63277 10.1651 9.63277C10.2602 9.63277 10.3594 9.65932 10.4502 9.71522C10.59 9.80186 10.7367 9.87593 10.8904 9.93602C11.0344 9.99331 11.1853 10.0394 11.3404 10.0744C11.4256 9.94999 11.4969 9.81444 11.5528 9.6719C11.6422 9.44271 11.6912 9.19396 11.6912 8.93404V8.88373L11.6381 8.85298C11.5933 8.82783 11.5444 8.81805 11.4983 8.82224C11.4494 8.82643 11.4005 8.8446 11.3614 8.87534C11.3376 8.89491 11.3027 8.88093 11.2971 8.85159C11.2775 8.77193 11.2901 8.6783 11.3334 8.60703C11.3795 8.53017 11.4508 8.47707 11.5318 8.4561C11.6115 8.43514 11.6981 8.44353 11.775 8.48545C11.8058 8.46868 11.8379 8.45471 11.8714 8.44492C11.912 8.43375 11.9553 8.42676 11.9986 8.42676C12.0154 8.42676 12.0321 8.42676 12.0489 8.42955C12.1691 8.44213 12.2725 8.49943 12.3452 8.58327C12.4178 8.66712 12.4598 8.77752 12.4598 8.8963C12.4598 8.91727 12.4584 8.93683 12.4556 8.9564C12.4318 9.19536 12.45 9.43433 12.5087 9.66351C12.545 9.80326 12.5953 9.94021 12.6624 10.0702C12.8147 10.0352 12.9628 9.98912 13.1054 9.93322C13.2591 9.87173 13.4072 9.79767 13.547 9.71382C13.6378 9.65652 13.737 9.62997 13.8321 9.62997C13.9201 9.62997 14.0068 9.65233 14.0822 9.69286C14.1577 9.73338 14.2234 9.79348 14.2709 9.86894C14.3198 9.9472 14.3491 10.0408 14.3491 10.1456V14.4219C14.3491 14.4442 14.331 14.4624 14.3086 14.4624C14.2974 14.4624 14.2862 14.4582 14.2793 14.4498L13.2228 13.3933L13.2242 13.3947ZM11.0595 11.6619V12.3243L11.1671 11.9218C11.128 11.8366 11.0916 11.7499 11.0595 11.6619ZM11.8533 12.907C11.6003 12.6513 11.3865 12.3564 11.2216 12.0322L10.5438 14.5588C10.6277 14.5714 10.7115 14.5826 10.7954 14.5924L11.012 14.2178C11.0232 14.1983 11.0483 14.1913 11.0665 14.2025C11.0763 14.2081 11.0833 14.2164 11.0847 14.2276L11.1937 14.6329C11.2593 14.6385 11.3236 14.6427 11.3865 14.6469L11.8533 12.907ZM12.7756 12.0322C12.6107 12.3564 12.3969 12.6513 12.1439 12.907L12.6107 14.6469C12.6736 14.6427 12.7379 14.6385 12.8035 14.6329L12.9125 14.2276C12.9153 14.2178 12.9223 14.2081 12.9321 14.2025C12.9517 14.1913 12.9768 14.1983 12.9866 14.2178L13.2032 14.5924C13.2871 14.5826 13.3709 14.5714 13.4548 14.5588L12.777 12.0322H12.7756ZM12.0797 12.9825L12.1747 14.0473C12.2376 14.0473 12.3005 14.0446 12.3633 14.0418L12.0797 12.9811V12.9825ZM12.095 14.0487L11.9986 12.9741L11.9022 14.0487C11.9329 14.0487 11.9651 14.0487 11.9986 14.0487C12.0321 14.0487 12.0629 14.0487 12.095 14.0487ZM11.8211 14.0473L11.9162 12.9825L11.6325 14.0432C11.6856 14.0446 11.7387 14.0473 11.7904 14.0473H11.8211ZM12.3857 14.1228C12.2557 14.1284 12.1258 14.1312 11.9986 14.1312C11.9329 14.1312 11.863 14.1312 11.789 14.1284C11.7289 14.1284 11.6702 14.1256 11.6115 14.1228L11.5402 14.3897C11.5836 14.3911 11.6255 14.3939 11.6674 14.3953C11.7275 14.3967 11.7862 14.3981 11.8449 14.3995C11.8617 14.3995 11.8728 14.4093 11.8812 14.4219L11.9986 14.6259L12.116 14.4219C12.1244 14.4079 12.1356 14.3995 12.1523 14.3995C12.2543 14.3981 12.355 14.3953 12.457 14.3897L12.3857 14.1228ZM13.4855 14.3674L13.533 14.5476C13.6127 14.5351 13.6909 14.5225 13.7678 14.5085L13.67 14.338C13.6085 14.3478 13.547 14.359 13.4855 14.3674ZM11.5193 14.468L11.4704 14.6511C11.5374 14.6538 11.6045 14.658 11.6702 14.6594L11.775 14.4778C11.7387 14.4778 11.7009 14.4764 11.6646 14.475C11.6143 14.4736 11.5654 14.4708 11.5179 14.4694L11.5193 14.468ZM12.5268 14.6511L12.4779 14.468C12.3927 14.4722 12.3074 14.475 12.2208 14.4764L12.3256 14.658C12.3913 14.6552 12.4584 14.6524 12.5254 14.6497L12.5268 14.6511ZM13.7734 14.3576L13.8628 14.5127L13.9662 14.6161V14.4093L13.7734 14.3576ZM12.8217 14.7125L13.0174 14.8732C13.0369 14.89 13.0621 14.883 13.076 14.8649L13.2018 14.6748C13.3066 14.6622 13.4086 14.6483 13.5107 14.6329C13.6113 14.6175 13.7133 14.6007 13.8153 14.5826L14.1297 14.8984L13.881 15.3288C13.5763 15.3819 13.2661 15.4224 12.9531 15.4504C12.6372 15.4783 12.3186 15.4923 11.9958 15.4923C11.673 15.4923 11.3544 15.4783 11.0385 15.4504C10.7255 15.4224 10.4153 15.3819 10.1106 15.3288L9.86188 14.8984L10.1777 14.5826C10.2797 14.6007 10.3817 14.6189 10.4824 14.6329C10.5844 14.6483 10.6878 14.6622 10.7912 14.6748L10.917 14.8649C10.9323 14.8844 10.9575 14.89 10.9757 14.8732L11.1713 14.7125C11.2524 14.7195 11.3362 14.7251 11.4215 14.7293C11.5025 14.7335 11.585 14.7377 11.6688 14.7405L11.8113 14.9166C11.8295 14.9375 11.8603 14.9361 11.8756 14.9166L11.9944 14.7698L12.1132 14.9166C12.13 14.9389 12.1593 14.9375 12.1775 14.9166L12.32 14.7405C12.4039 14.7377 12.4863 14.7335 12.5674 14.7293C12.6526 14.7251 12.7365 14.7181 12.8175 14.7125H12.8217ZM10.4642 14.5476L10.5117 14.3674C10.4502 14.3576 10.3887 14.3478 10.3272 14.338L10.2294 14.5085C10.3063 14.5225 10.3845 14.5351 10.4642 14.5476ZM10.031 14.6161L10.1344 14.5127L10.2238 14.3576L10.031 14.4093V14.6161ZM10.8653 14.6343L10.9631 14.7824L11.1168 14.6552L11.033 14.3422L10.8639 14.6343H10.8653ZM11.8449 14.5197L11.7429 14.6972L11.8477 14.8271L11.9497 14.7014L11.8449 14.5197ZM12.1495 14.8285L12.2543 14.6986L12.1523 14.5211L12.0475 14.7028L12.1495 14.8285ZM11.5584 10.2924C11.5458 10.3105 11.5207 10.3147 11.5025 10.3022C11.4843 10.2896 11.4801 10.2644 11.4927 10.2463C11.5318 10.1918 11.5682 10.1317 11.6003 10.0702C11.6325 10.0073 11.6618 9.94161 11.687 9.87453C11.694 9.85357 11.7177 9.84239 11.7387 9.85077C11.7596 9.85776 11.7708 9.88152 11.7624 9.90248C11.7359 9.97515 11.7065 10.0436 11.6716 10.1079C11.6381 10.1736 11.5989 10.2351 11.5584 10.2938V10.2924ZM11.863 10.2784C11.8575 10.2994 11.8365 10.3133 11.8141 10.3077C11.7918 10.3022 11.7792 10.2812 11.7848 10.2588C11.7974 10.2043 11.8099 10.1442 11.8225 10.08C11.8337 10.0171 11.8435 9.95139 11.8519 9.88152C11.8547 9.85916 11.8742 9.84378 11.8966 9.84658C11.9189 9.84937 11.9343 9.86894 11.9315 9.8913C11.9231 9.96117 11.9134 10.0296 11.9008 10.0939C11.8896 10.1582 11.877 10.2197 11.863 10.2784ZM12.0419 9.8899C12.0405 9.86754 12.0559 9.84798 12.0783 9.84658C12.1006 9.84518 12.1202 9.86055 12.1216 9.88291C12.1272 9.95139 12.1342 10.0171 12.1425 10.0786C12.1509 10.1414 12.1607 10.2029 12.1705 10.2616C12.1747 10.284 12.1593 10.3049 12.1383 10.3077C12.116 10.3119 12.095 10.2966 12.0922 10.2756C12.0811 10.2155 12.0713 10.154 12.0629 10.0897C12.0545 10.0227 12.0461 9.95698 12.0405 9.8899H12.0419ZM12.2432 9.89689C12.2376 9.87593 12.2501 9.85357 12.2725 9.84798C12.2935 9.84239 12.3158 9.85496 12.3214 9.87732C12.3382 9.943 12.3591 10.0087 12.3829 10.0702C12.4067 10.1317 12.4346 10.1931 12.4654 10.2504C12.4765 10.27 12.4681 10.2952 12.4486 10.3049C12.429 10.3161 12.4053 10.3077 12.3941 10.2882C12.3619 10.2281 12.3326 10.1638 12.3074 10.0995C12.2823 10.0338 12.2599 9.96676 12.2432 9.89689Z" fill="#C09300"/>
<path fill-rule="evenodd" clip-rule="evenodd" d="M11.0302 10.8388C11.0721 11.2063 11.1727 11.5571 11.3334 11.8924C11.4969 12.2348 11.7275 12.5562 11.9986 12.8232C12.2697 12.5562 12.5003 12.2348 12.6638 11.8924C12.8245 11.5571 12.9251 11.2049 12.967 10.8388C12.9083 10.8457 12.8482 10.8499 12.7896 10.8499C12.6358 10.8499 12.4807 10.8248 12.334 10.7759C12.2152 10.7367 12.102 10.6822 11.9986 10.6138C11.8938 10.6822 11.7806 10.7367 11.6632 10.7759C11.5179 10.8248 11.3613 10.8499 11.2076 10.8499C11.1475 10.8499 11.0888 10.8457 11.0302 10.8388ZM11.9986 12.7086C11.8435 12.5479 11.7037 12.369 11.5835 12.1789V10.8835C11.6185 10.8751 11.6534 10.8639 11.6884 10.8527C11.7974 10.8164 11.9008 10.7689 11.9986 10.7088C12.0964 10.7689 12.2012 10.8164 12.3088 10.8527C12.341 10.8639 12.3731 10.8723 12.4053 10.8807V12.1915C12.2879 12.376 12.1495 12.5507 11.9986 12.7072V12.7086Z" fill="#C09300"/>
</g>
</g>
<rect x="0.25" y="0.25" width="23.5" height="23.5" rx="11.75" stroke="#E5E3E1" stroke-width="0.5"/>
<defs>
<clipPath id="clip0_16335_8646">
<rect width="24" height="24" rx="12" fill="white"/>
</clipPath>
</defs>
</svg>
