<svg width="48" height="48" viewBox="0 0 48 48" fill="none" xmlns="http://www.w3.org/2000/svg">
<path d="M24 2C11.85 2 2 11.85 2 24C2 36.15 11.85 46 24 46C36.15 46 46 36.15 46 24C46 11.85 36.15 2 24 2ZM18.14 34.26C16.67 34.26 15.2 34.26 13.73 34.26H13.54V19.11C13.54 18.9567 13.6167 18.88 13.77 18.88C15.21 18.88 16.66 18.88 18.1 18.88C18.33 18.88 18.33 18.88 18.33 19.11C18.33 24.09 18.33 29.08 18.33 34.06C18.33 34.21 18.3 34.27 18.13 34.27L18.14 34.26ZM15.94 16.83C14.37 16.83 13.15 15.57 13.16 14.03C13.14 12.52 14.42 11.24 15.94 11.25C17.48 11.25 18.74 12.49 18.73 14.04C18.73 15.61 17.52 16.82 15.93 16.83H15.94ZM36.23 34.05V34.26H31.62C31.4733 34.26 31.4 34.19 31.4 34.05C31.4 31.3 31.4 28.55 31.4 25.8C31.4 25.18 31.31 24.57 31.06 23.99C30.73 23.24 30.15 22.84 29.34 22.75C28.87 22.7 28.41 22.73 27.96 22.86C27.17 23.08 26.68 23.62 26.41 24.37C26.23 24.88 26.13 25.4 26.12 25.94C26.11 28.64 26.1 31.33 26.09 34.03C26.09 34.1833 26.0133 34.26 25.86 34.26C24.41 34.26 22.95 34.26 21.5 34.26C21.34 34.26 21.29 34.23 21.29 34.06C21.29 29.07 21.29 24.07 21.29 19.08C21.29 18.88 21.29 18.88 21.49 18.88C22.89 18.88 24.28 18.88 25.68 18.88C25.89 18.88 25.89 18.88 25.89 19.1V20.82C25.89 20.87 25.89 20.93 25.89 20.98C25.9 20.98 25.92 20.98 25.93 20.99C25.97 20.93 26 20.86 26.05 20.8C26.72 19.76 27.67 19.09 28.85 18.74C29.32 18.6 29.8 18.53 30.29 18.52C31.21 18.5 32.12 18.59 32.99 18.9C33.97 19.25 34.72 19.87 35.25 20.76C35.67 21.47 35.9 22.26 36.03 23.07C36.11 23.57 36.18 24.08 36.19 24.58C36.22 26.74 36.22 28.91 36.23 31.07C36.23 32.06 36.23 33.05 36.23 34.04V34.05Z" fill="#323232"/>
</svg>
