<svg width="48" height="48" viewBox="0 0 48 48" fill="none" xmlns="http://www.w3.org/2000/svg">
<path d="M36.4785 33.7595C35.9285 33.7595 35.4785 33.3095 35.4785 32.7595V30.9395C35.4785 30.3895 35.9285 29.9395 36.4785 29.9395C37.0285 29.9395 37.4785 30.3895 37.4785 30.9395V32.7595C37.4785 33.3095 37.0285 33.7595 36.4785 33.7595Z" fill="#323232"/>
<path d="M27.6094 33.7596C27.0594 33.7596 26.6094 33.3096 26.6094 32.7596V31.0996C26.6094 30.5496 27.0594 30.0996 27.6094 30.0996C28.1594 30.0996 28.6094 30.5496 28.6094 31.0996V32.7596C28.6094 33.3096 28.1594 33.7596 27.6094 33.7596Z" fill="#323232"/>
<path d="M32.0995 33.6898C29.8695 33.6898 28.3095 32.6598 28.2095 32.5898C25.9795 31.2798 24.3595 29.0198 23.8195 26.4198C23.7095 25.8798 24.0495 25.3498 24.5895 25.2398C25.1295 25.1298 25.6595 25.4698 25.7695 26.0098C26.1995 28.0498 27.4795 29.8398 29.2695 30.8998C29.4295 30.9998 31.9495 32.6298 34.8995 30.8998C36.6495 29.7598 37.9095 27.9798 38.4095 25.9098C38.5195 25.4698 38.9095 25.1498 39.3695 25.1398C40.4895 25.1298 40.7295 23.5898 40.7295 22.2898C40.7295 20.6398 40.4995 20.5598 40.0695 20.5598C39.5195 20.5598 39.0695 20.1098 39.0695 19.5598V17.3398C39.0695 11.0698 33.8995 10.5798 32.3095 10.5798C31.2195 10.5798 27.5195 10.8098 25.8195 13.8298C25.5495 14.3098 24.9395 14.4798 24.4595 14.2098C23.9795 13.9398 23.8095 13.3298 24.0795 12.8498C25.5895 10.1798 28.6695 8.58984 32.3095 8.58984C36.3495 8.58984 41.0695 10.8798 41.0695 17.3498V18.7298C42.7295 19.3198 42.7295 21.4298 42.7295 22.2998C42.7295 25.7198 41.2795 26.7498 40.1695 27.0398C39.4595 29.3298 37.9795 31.2798 35.9495 32.5998C34.5595 33.4198 33.2295 33.6898 32.0895 33.6898H32.0995Z" fill="#323232"/>
<path d="M45.2296 41.9699H18.8496C18.2996 41.9699 17.8496 41.5199 17.8496 40.9699C17.8496 40.4199 18.2996 39.9699 18.8496 39.9699H44.1696C43.9596 38.9099 43.1796 37.1799 40.3596 36.3299L38.9296 35.8799C38.2196 36.9099 36.5496 38.4399 32.8496 38.4399C32.2996 38.4399 31.8496 37.9899 31.8496 37.4399C31.8496 36.8899 32.2996 36.4399 32.8496 36.4399C36.7396 36.4399 37.4496 34.4599 37.4796 34.3799C37.6496 33.8599 38.2196 33.5599 38.7396 33.7199L40.9496 34.4199C45.5696 35.8099 46.4196 39.3899 46.2196 41.0899C46.1596 41.5899 45.7296 41.9699 45.2296 41.9699Z" fill="#323232"/>
<path d="M21.2891 33.3299C20.7391 33.3299 20.2891 32.8799 20.2891 32.3299V30.4199C20.2891 29.8699 20.7391 29.4199 21.2891 29.4199C21.8391 29.4199 22.2891 29.8699 22.2891 30.4199V32.3299C22.2891 32.8799 21.8391 33.3299 21.2891 33.3299Z" fill="#323232"/>
<path d="M11.959 33.3301C11.409 33.3301 10.959 32.8801 10.959 32.3301V30.5801C10.959 30.0301 11.409 29.5801 11.959 29.5801C12.509 29.5801 12.959 30.0301 12.959 30.5801V32.3301C12.959 32.8801 12.509 33.3301 11.959 33.3301Z" fill="#323232"/>
<path d="M16.6897 33.2597C14.3597 33.2597 12.7297 32.1797 12.6297 32.1097C10.4997 30.8597 8.89969 28.7797 8.20969 26.3597C6.46969 25.9397 5.42969 24.1097 5.42969 21.3697C5.42969 20.3397 5.78969 18.9497 6.59969 18.1397C6.77969 17.9597 6.96969 17.8197 7.17969 17.7097V16.0797C7.17969 9.78973 12.0697 6.96973 16.9197 6.96973C21.1497 6.96973 26.0797 9.36973 26.0797 16.1297V17.6097C27.8297 18.2097 27.8297 20.4197 27.8297 21.3297C27.8297 24.9197 26.2997 25.9797 25.1497 26.2697C24.4097 28.6797 22.8497 30.7297 20.7297 32.1197C19.2697 32.9697 17.8897 33.2597 16.6897 33.2597ZM8.16969 19.4697C8.16969 19.4697 8.09969 19.4697 8.00969 19.5697C7.68969 19.8897 7.42969 20.6997 7.42969 21.3797C7.42969 22.3097 7.57969 24.4597 9.01969 24.4597C9.48969 24.4597 9.89969 24.7897 9.99969 25.2497C10.4497 27.4197 11.8097 29.2997 13.7097 30.4197C13.8697 30.5297 16.5397 32.2497 19.6897 30.4197C21.5397 29.2197 22.8697 27.3297 23.3997 25.1397C23.5097 24.6997 23.8997 24.3797 24.3597 24.3697C25.5797 24.3597 25.8397 22.7097 25.8397 21.3297C25.8397 19.5397 25.5697 19.4597 25.0897 19.4597C24.5397 19.4597 24.0897 19.0097 24.0897 18.4597V16.1297C24.0897 9.48973 18.6097 8.96973 16.9297 8.96973C13.3597 8.96973 9.18969 10.8297 9.18969 16.0797V18.4597C9.18969 18.7297 9.07969 18.9797 8.89969 19.1697C8.70969 19.3597 8.45969 19.4597 8.18969 19.4597L8.16969 19.4697Z" fill="#323232"/>
<path d="M30.4909 41.9696H2.76088C2.23088 41.9696 1.79088 41.5496 1.76088 41.0196C1.67088 39.1196 2.76088 35.1596 7.55088 33.7096L9.85088 32.9796C10.3209 32.8296 10.8309 33.0496 11.0509 33.4896C11.0909 33.5796 12.3409 35.8496 16.6209 35.8496C20.9009 35.8496 22.1409 33.5696 22.2009 33.4796C22.4309 33.0496 22.9409 32.8396 23.3909 32.9796L25.7009 33.7196C30.4909 35.1696 31.5809 39.1296 31.4909 41.0296C31.4609 41.5596 31.0209 41.9796 30.4909 41.9796V41.9696ZM3.85088 39.9696H29.3909C29.1409 38.7196 28.2509 36.5696 25.1109 35.6296H25.1009L23.4809 35.1096C22.6409 36.1296 20.6309 37.8496 16.6109 37.8496C12.5909 37.8496 10.5809 36.1296 9.74088 35.1096L8.12088 35.6196C4.98088 36.5696 4.08088 38.7096 3.83088 39.9696H3.85088Z" fill="#323232"/>
<path d="M25.0699 18.2999C24.5499 18.2999 24.1099 17.8899 24.0699 17.3699C24.0399 16.9899 23.6999 13.6399 20.4099 13.6399C18.6399 13.6399 17.5799 14.4299 16.2399 15.4199C14.5099 16.6999 12.3599 18.2999 8.16992 18.2999C7.61992 18.2999 7.16992 17.8499 7.16992 17.2999C7.16992 16.7499 7.61992 16.2999 8.16992 16.2999C11.6899 16.2999 13.3999 15.0399 15.0499 13.8099C16.4899 12.7399 17.9899 11.6299 20.4099 11.6299C24.5899 11.6299 25.9399 15.2899 26.0699 17.2299C26.1099 17.7799 25.6899 18.2599 25.1399 18.2899C25.1199 18.2899 25.0999 18.2899 25.0699 18.2899V18.2999Z" fill="#323232"/>
</svg>
