<svg width="48" height="48" viewBox="0 0 48 48" fill="none" xmlns="http://www.w3.org/2000/svg">
<path d="M31.0591 25.3096H34.3891C34.9491 25.3096 35.4091 25.7696 35.4091 26.3296V33.6896C35.4091 34.2496 34.9491 34.7096 34.3891 34.7096H31.0591C30.4991 34.7096 30.0391 34.2496 30.0391 33.6896V26.3296C30.0391 25.7696 30.4991 25.3096 31.0591 25.3096Z" fill="#DF0000"/>
<path d="M43.4508 43.0996H41.7708V6.52961C41.7708 4.49961 40.1208 2.84961 38.0908 2.84961H20.6508C18.6208 2.84961 16.9708 4.49961 16.9708 6.52961V24.3096H16.6308C13.8608 24.3096 11.6008 26.5596 11.6008 29.3296V38.7196C11.6008 40.3896 10.2408 41.7396 8.58078 41.7396C6.92078 41.7396 5.55078 40.3796 5.55078 38.7196V24.9596H9.92078C10.4708 24.9596 10.9208 24.5096 10.9208 23.9596V21.2796C10.9208 21.0096 10.8108 20.7596 10.6308 20.5696L5.97078 15.9096L10.6308 11.2496C11.0208 10.8596 11.0208 10.2296 10.6308 9.83961C10.2408 9.44961 9.61078 9.44961 9.22078 9.83961L3.85078 15.2096C3.76078 15.2996 3.68078 15.4196 3.63078 15.5396C3.58078 15.6596 3.55078 15.7896 3.55078 15.9196V38.7296C3.55078 41.4996 5.80078 43.7496 8.58078 43.7496C11.3608 43.7496 13.6008 41.4996 13.6008 38.7296V29.3396C13.6008 27.6696 14.9608 26.3196 16.6308 26.3196H16.9708V43.0996H15.2908C14.7408 43.0996 14.2908 43.5496 14.2908 44.0996C14.2908 44.6496 14.7408 45.0996 15.2908 45.0996H43.4608C44.0108 45.0996 44.4608 44.6496 44.4608 44.0996C44.4608 43.5496 44.0108 43.0996 43.4608 43.0996H43.4508ZM8.91078 22.9696H5.54078V18.3296L8.91078 21.6996V22.9696ZM39.7708 43.0996H18.9608V20.9496H39.7708V43.0996ZM39.7708 18.9496H18.9608V6.52961C18.9608 5.59961 19.7108 4.84961 20.6408 4.84961H38.0808C39.0108 4.84961 39.7608 5.59961 39.7608 6.52961V18.9496H39.7708Z" fill="#323232"/>
</svg>
