<svg width="24" height="24" viewBox="0 0 24 24" fill="none" xmlns="http://www.w3.org/2000/svg">
<path fill-rule="evenodd" clip-rule="evenodd" d="M17.82 6H20C21.11 6 22 6.89 22 8V19C22 20.11 21.11 21 20 21H4C2.89 21 2 20.11 2 19L2.01 8C2.01 6.89 2.89 6 4 6H6.18C6.07 5.69 6 5.35 6 5C6 3.34 7.34 2 9 2C10.05 2 10.96 2.54 11.5 3.34L12 4.02L12.5 3.35C13.04 2.54 13.95 2 15 2C16.66 2 18 3.34 18 5C18 5.35 17.93 5.69 17.82 6ZM16 5C16 4.45 15.55 4 15 4C14.45 4 14 4.45 14 5C14 5.55 14.45 6 15 6C15.55 6 16 5.55 16 5ZM10 5C10 4.45 9.55 4 9 4C8.45 4 8 4.45 8 5C8 5.55 8.45 6 9 6C9.55 6 10 5.55 10 5ZM13 19H20V15H13V19ZM11 19V15H4V19H11ZM13 13H20V8H14.92L17 10.83L15.38 12L13 8.76V13ZM11 8.76V13H4V8H9.08L7 10.83L8.62 12L11 8.76Z" fill="#323232"/>
</svg>
