<svg width="48" height="48" viewBox="0 0 48 48" fill="none" xmlns="http://www.w3.org/2000/svg">
<path d="M44.0292 3.64047C44.0292 3.57047 44.0092 3.51047 43.9892 3.44047C43.9692 3.38047 43.9492 3.32047 43.9192 3.27047C43.8892 3.21047 43.8592 3.17047 43.8192 3.12047C43.7792 3.07047 43.7292 3.02047 43.6792 2.97047C43.6592 2.95047 43.6392 2.92047 43.6192 2.91047C43.5892 2.89047 43.5592 2.89047 43.5292 2.87047C43.4692 2.84047 43.4092 2.81047 43.3492 2.79047C43.2792 2.77047 43.2192 2.76047 43.1492 2.75047C43.1192 2.75047 43.0892 2.73047 43.0592 2.73047H4.94922C4.39922 2.73047 3.94922 3.18047 3.94922 3.73047V44.2305C3.94922 44.7805 4.39922 45.2305 4.94922 45.2305H43.0492C43.5992 45.2305 44.0492 44.7805 44.0492 44.2305V3.72047C44.0492 3.72047 44.0392 3.66047 44.0292 3.63047V3.64047ZM41.1392 4.72047L37.7492 9.63047L34.3492 4.72047H41.1392ZM5.94922 4.72047H31.4392V43.2205H5.94922V4.72047ZM33.4392 43.2205V6.93047L36.9192 11.9605C37.1092 12.2305 37.4092 12.3905 37.7392 12.3905C38.0692 12.3905 38.3792 12.2305 38.5592 11.9605L42.0392 6.93047V43.2205H33.4392Z" fill="#323232"/>
<path d="M18.9802 21.4604C18.0202 21.4604 17.6002 20.9004 15.6002 20.9004C13.6002 20.9004 11.6602 22.8104 11.6602 25.9604C11.6602 29.1104 13.9702 33.2704 16.4102 33.2704C17.9002 33.2704 18.0102 32.1404 18.8302 32.1404C19.6502 32.1404 20.2902 33.2704 21.2802 33.2704C22.2702 33.2704 25.7202 30.6004 25.7202 25.9604C25.7202 21.3204 22.7902 20.9004 21.7802 20.9004C20.7702 20.9004 20.0602 21.4604 18.9702 21.4604H18.9802Z" fill="#DF0000"/>
<path d="M19.2893 19.5505C19.3993 17.1305 20.3793 14.8605 24.1693 14.6605C24.4493 14.6505 24.7093 14.8905 24.6993 15.1705C24.5893 17.5905 23.6093 19.8605 19.8193 20.0605C19.5393 20.0705 19.2793 19.8305 19.2893 19.5505Z" fill="#8DE2E0"/>
<path d="M17.821 20.0704C16.001 19.9804 14.291 19.2504 14.141 16.4004C14.131 16.1904 14.311 15.9904 14.531 16.0004C16.351 16.0904 18.061 16.8204 18.211 19.6704C18.221 19.8804 18.041 20.0804 17.821 20.0704Z" fill="#8DE2E0"/>
</svg>
