<svg width="48" height="48" viewBox="0 0 48 48" fill="none" xmlns="http://www.w3.org/2000/svg">
<path d="M36.8809 4.07006V36.3101C40.9109 35.7701 43.7309 34.6101 43.7309 33.2801V7.10006C43.7309 5.75006 40.9209 4.60006 36.8809 4.06006V4.07006Z" fill="#8DE2E0"/>
<path d="M21.0996 11.6899V43.9299C25.1296 43.3899 27.9496 42.2299 27.9496 40.8999V14.7299C27.9496 13.3799 25.1396 12.2299 21.0996 11.6899Z" fill="#8DE2E0"/>
<path d="M31.8898 2.75C25.7098 2.75 19.0498 4.11 19.0498 7.1C19.0498 7.15 19.0698 7.2 19.0698 7.26C19.0698 7.3 19.0498 7.33 19.0498 7.37V10.48C18.0698 10.41 17.0898 10.37 16.0998 10.37C9.91977 10.37 3.25977 11.73 3.25977 14.72C3.25977 14.77 3.27977 14.82 3.27977 14.88C3.27977 14.92 3.25977 14.95 3.25977 14.99V40.9C3.25977 43.89 9.90977 45.25 16.0998 45.25C22.2898 45.25 28.9398 43.89 28.9398 40.9V37.51C29.8898 37.58 30.8698 37.63 31.8898 37.63C38.0698 37.63 44.7298 36.27 44.7298 33.28V7.1C44.7298 4.11 38.0798 2.75 31.8898 2.75ZM42.7298 26.73C42.5998 27.38 39.0698 29.09 31.8898 29.09C30.8698 29.09 29.8898 29.04 28.9398 28.97V24.43C29.8998 24.5 30.8798 24.55 31.8898 24.55C35.9898 24.55 40.2898 23.95 42.7298 22.67V26.74V26.73ZM16.1098 19.08C20.2098 19.08 24.5098 18.48 26.9498 17.2V21.27C26.8198 21.92 23.2898 23.63 16.1098 23.63C8.92977 23.63 5.40977 21.92 5.26977 21.27V17.2C7.70977 18.48 11.9998 19.08 16.1098 19.08ZM16.1098 25.62C20.2098 25.62 24.5098 25.02 26.9498 23.74V27.81C26.8198 28.46 23.2898 30.17 16.1098 30.17C8.92977 30.17 5.40977 28.46 5.26977 27.81V23.74C7.70977 25.02 11.9998 25.62 16.1098 25.62ZM5.26977 34.35V30.28C7.70977 31.56 11.9998 32.16 16.1098 32.16C20.2198 32.16 24.5098 31.56 26.9498 30.28V34.35C26.8198 35 23.2798 36.71 16.1098 36.71C8.93977 36.71 5.40977 35 5.26977 34.35ZM42.7298 20.18C42.5998 20.83 39.0698 22.54 31.8898 22.54C30.8798 22.54 29.8998 22.49 28.9398 22.42V17.88C29.8998 17.95 30.8798 18 31.8898 18C35.9898 18 40.2898 17.4 42.7298 16.12V20.18ZM31.8898 4.75C38.7698 4.75 42.6098 6.4 42.7298 7.1C42.6098 7.8 38.7798 9.46 31.8898 9.46C24.9998 9.46 21.1698 7.81 21.0498 7.11C21.1698 6.41 24.9998 4.75 31.8898 4.75ZM21.0498 9.58C23.4898 10.86 27.7798 11.46 31.8898 11.46C35.9998 11.46 40.2898 10.86 42.7298 9.58V13.64C42.5998 14.29 39.0698 16 31.8898 16C30.8798 16 29.8998 15.95 28.9398 15.88V14.73C28.9398 12.54 25.3798 11.23 21.0498 10.68V9.58ZM16.1098 12.37C22.9998 12.37 26.8298 14.02 26.9498 14.72C26.8298 15.42 22.9998 17.08 16.1098 17.08C9.21977 17.08 5.38977 15.43 5.26977 14.73C5.38977 14.03 9.21977 12.37 16.1098 12.37ZM16.1098 43.25C8.93977 43.25 5.40977 41.54 5.26977 40.89V36.82C7.70977 38.1 11.9998 38.7 16.1098 38.7C20.2198 38.7 24.5098 38.1 26.9498 36.82V40.89C26.8198 41.54 23.2898 43.25 16.1098 43.25ZM31.8898 35.63C30.8698 35.63 29.8898 35.58 28.9398 35.51V30.97C29.8898 31.04 30.8698 31.09 31.8898 31.09C35.9898 31.09 40.2898 30.49 42.7298 29.21V33.27C42.5998 33.92 39.0698 35.63 31.8898 35.63Z" fill="#323232"/>
</svg>
