<svg width="24" height="24" viewBox="0 0 24 24" fill="none" xmlns="http://www.w3.org/2000/svg">
<g clip-path="url(#clip0_16335_6652)">
<path d="M23.6789 14.7567C25.2013 8.30653 21.2066 1.84347 14.7564 0.321091C8.30617 -1.20129 1.84311 2.79349 0.320729 9.24368C-1.20165 15.6939 2.79312 22.1569 9.24332 23.6793C15.6935 25.2017 22.1566 21.2069 23.6789 14.7567Z" fill="white"/>
<mask id="mask0_16335_6652" style="mask-type:luminance" maskUnits="userSpaceOnUse" x="-1" y="-1" width="26" height="26">
<path d="M23.6789 14.7567C25.2013 8.30653 21.2066 1.84347 14.7564 0.321091C8.30617 -1.20129 1.84311 2.79349 0.320729 9.24368C-1.20165 15.6939 2.79312 22.1569 9.24332 23.6793C15.6935 25.2017 22.1566 21.2069 23.6789 14.7567Z" fill="white"/>
</mask>
<g mask="url(#mask0_16335_6652)">
<path d="M29.9993 0H-6.00073V24H29.9993V0Z" fill="white"/>
<path d="M29.9993 0H-6.00073V24H29.9993V0Z" fill="white"/>
<path d="M5.99927 0H-6.00073V24H5.99927V0Z" fill="#FF6600"/>
<path d="M30.0007 0H18.0007V24H30.0007V0Z" fill="#007C29"/>
</g>
</g>
<rect x="0.25" y="0.25" width="23.5" height="23.5" rx="11.75" stroke="#E5E3E1" stroke-width="0.5"/>
<defs>
<clipPath id="clip0_16335_6652">
<rect width="24" height="24" rx="12" fill="white"/>
</clipPath>
</defs>
</svg>
