<svg width="24" height="24" viewBox="0 0 24 24" fill="none" xmlns="http://www.w3.org/2000/svg">
<path fill-rule="evenodd" clip-rule="evenodd" d="M12 24C18.6274 24 24 18.6274 24 12C24 5.37258 18.6274 0 12 0C5.37258 0 0 5.37258 0 12C0 18.6274 5.37258 24 12 24ZM8.71582 15.5288V16.5H14.8984V15.2812H10.6646V15.1617L12.6069 13.2246C13.1613 12.6745 13.5929 12.2048 13.9019 11.8154C14.215 11.4261 14.4351 11.0685 14.562 10.7427C14.689 10.4168 14.7524 10.0804 14.7524 9.7334V9.71436C14.7524 9.21077 14.6234 8.76432 14.3652 8.375C14.1071 7.98145 13.7537 7.67464 13.3052 7.45459C12.8608 7.23031 12.3551 7.11816 11.7881 7.11816C11.1745 7.11816 10.6307 7.24089 10.1567 7.48633C9.68278 7.72754 9.3125 8.06396 9.0459 8.49561C8.7793 8.92301 8.64388 9.41602 8.63965 9.97461L8.646 9.9873L9.9917 9.99365V9.96826C9.9917 9.63395 10.0636 9.34196 10.2075 9.09229C10.3514 8.84261 10.5524 8.64795 10.8105 8.5083C11.0687 8.36865 11.367 8.29883 11.7056 8.29883C12.0399 8.29883 12.3276 8.36654 12.5688 8.50195C12.8101 8.63314 12.9941 8.81722 13.1211 9.0542C13.2523 9.28695 13.3179 9.55355 13.3179 9.854V9.8667C13.3179 10.1164 13.2713 10.3491 13.1782 10.5649C13.0894 10.7808 12.9328 11.0262 12.7085 11.3013C12.4842 11.5721 12.1689 11.9191 11.7627 12.3423L8.71582 15.5288Z" fill="#208204"/>
</svg>
