<svg width="24" height="24" viewBox="0 0 24 24" fill="none" xmlns="http://www.w3.org/2000/svg">
<g clip-path="url(#clip0_16335_3431)">
<path d="M23.8449 13.9238C24.9068 7.382 20.4644 1.218 13.9226 0.156118C7.38083 -0.905765 1.21683 3.53658 0.154948 10.0784C-0.906935 16.6202 3.53541 22.7842 10.0772 23.846C16.619 24.9079 22.783 20.4656 23.8449 13.9238Z" fill="white"/>
<mask id="mask0_16335_3431" style="mask-type:luminance" maskUnits="userSpaceOnUse" x="-1" y="-1" width="26" height="26">
<path d="M23.8449 13.9238C24.9068 7.382 20.4644 1.218 13.9226 0.156118C7.38083 -0.905765 1.21683 3.53658 0.154948 10.0784C-0.906935 16.6202 3.53541 22.7842 10.0772 23.846C16.619 24.9079 22.783 20.4656 23.8449 13.9238Z" fill="white"/>
</mask>
<g mask="url(#mask0_16335_3431)">
<path d="M30.0007 0H-5.99927V8.00047H30.0007V0Z" fill="#007C29"/>
<path d="M30.0007 8.00049H-5.99927V16.001H30.0007V8.00049Z" fill="white"/>
<path d="M30.0007 16.001H-5.99927V24.0014H30.0007V16.001Z" fill="#0072FE"/>
</g>
</g>
<rect x="0.25" y="0.25" width="23.5" height="23.5" rx="11.75" stroke="#E5E3E1" stroke-width="0.5"/>
<defs>
<clipPath id="clip0_16335_3431">
<rect width="24" height="24" rx="12" fill="white"/>
</clipPath>
</defs>
</svg>
