<svg width="48" height="48" viewBox="0 0 48 48" fill="none" xmlns="http://www.w3.org/2000/svg">
<path d="M43.1705 19.96H38.8105V43.58H43.1705V19.96Z" fill="#8DE2E0"/>
<path d="M43.1706 43.79C42.6206 43.79 42.1706 43.34 42.1706 42.79V20.96H34.3906V42.79C34.3906 43.34 33.9406 43.79 33.3906 43.79C32.8406 43.79 32.3906 43.34 32.3906 42.79V19.96C32.3906 19.41 32.8406 18.96 33.3906 18.96H43.1706C43.7206 18.96 44.1706 19.41 44.1706 19.96V42.79C44.1706 43.34 43.7206 43.79 43.1706 43.79Z" fill="#323232"/>
<path d="M28.8793 27.5703H24.5293V43.5803H28.8793V27.5703Z" fill="#8DE2E0"/>
<path d="M28.8894 43.7903C28.3394 43.7903 27.8894 43.3403 27.8894 42.7903V28.5703H20.1094V42.7903C20.1094 43.3403 19.6594 43.7903 19.1094 43.7903C18.5594 43.7903 18.1094 43.3403 18.1094 42.7903V27.5703C18.1094 27.0203 18.5594 26.5703 19.1094 26.5703H28.8894C29.4394 26.5703 29.8894 27.0203 29.8894 27.5703V42.7903C29.8894 43.3403 29.4394 43.7903 28.8894 43.7903Z" fill="#323232"/>
<path d="M14.59 34.0898H10.25V43.5798H14.59V34.0898Z" fill="#8DE2E0"/>
<path d="M14.6101 43.7898C14.0601 43.7898 13.6101 43.3398 13.6101 42.7898V35.0898H5.83008V42.7898C5.83008 43.3398 5.38008 43.7898 4.83008 43.7898C4.28008 43.7898 3.83008 43.3398 3.83008 42.7898V34.0898C3.83008 33.5398 4.28008 33.0898 4.83008 33.0898H14.6101C15.1601 33.0898 15.6101 33.5398 15.6101 34.0898V42.7898C15.6101 43.3398 15.1601 43.7898 14.6101 43.7898Z" fill="#323232"/>
<path d="M33.4207 3.41992H24.7108C24.1608 3.41992 23.7108 3.86992 23.7108 4.41992C23.7108 4.96992 24.1608 5.41992 24.7108 5.41992H31.0508L7.58075 28.4999C7.19075 28.8899 7.18075 29.5199 7.57075 29.9099C7.77075 30.1099 8.02075 30.2099 8.28075 30.2099C8.54075 30.2099 8.79075 30.1099 8.98075 29.9199L32.4207 6.87992V13.1299C32.4207 13.6799 32.8708 14.1299 33.4207 14.1299C33.9707 14.1299 34.4207 13.6799 34.4207 13.1299V4.41992C34.4207 3.86992 33.9707 3.41992 33.4207 3.41992Z" fill="#DF0000"/>
</svg>
