<svg width="48" height="48" viewBox="0 0 48 48" fill="none" xmlns="http://www.w3.org/2000/svg">
<path d="M28.2499 9.64976C28.1399 10.1398 27.8399 10.4598 27.4299 10.5898L27.8099 11.5798L27.1199 11.4298L26.8199 10.6098C26.8199 10.6098 26.7399 10.6098 26.6999 10.5998C25.9399 10.4298 25.5199 9.84976 25.6899 9.08976L25.9999 7.67976C26.1699 6.92976 26.7399 6.54976 27.5499 6.72976C28.3199 6.89976 28.7299 7.48976 28.5699 8.23976L28.2599 9.64976H28.2499ZM26.2799 9.20976C26.1899 9.61976 26.3799 9.95976 26.8199 10.0598C27.2599 10.1598 27.5699 9.92976 27.6599 9.50976L27.9699 8.09976C28.0599 7.68976 27.8699 7.34976 27.4299 7.24976C26.9899 7.14976 26.6799 7.37976 26.5899 7.79976L26.2799 9.20976Z" fill="#323232"/>
<path d="M28.5586 10.9298L31.3186 8.00977L31.8886 8.28977L31.2486 12.2698L30.6886 11.9898L30.8286 11.1998L29.6386 10.6098L29.0886 11.1998L28.5586 10.9398V10.9298ZM29.9886 10.1998L30.9286 10.6598L31.2486 8.82977L29.9886 10.1998Z" fill="#323232"/>
<path d="M33.8111 14.3298L33.4311 14.0098L34.0311 11.0098L32.2911 13.0398L31.8711 12.6798L34.3811 9.75977L34.7811 10.0998L34.1911 13.0398L35.8911 11.0498L36.3111 11.4098L33.8011 14.3298H33.8111Z" fill="#323232"/>
<path d="M37.3211 12.49L38.8711 14.48L38.4411 14.81L37.8511 14.05L35.2411 16.07L34.8711 15.59L37.4811 13.57L36.8911 12.81L37.3211 12.48V12.49Z" fill="#323232"/>
<path d="M35.9102 16.95L39.9102 16.5L40.1602 17.08L37.1102 19.7L36.8602 19.13L37.4802 18.61L36.9502 17.39L36.1502 17.49L35.9102 16.95ZM37.4802 17.32L37.9002 18.28L39.3302 17.09L37.4802 17.32Z" fill="#323232"/>
<path d="M40.2702 21.5998L40.3702 21.5798C40.7002 21.5198 40.9102 21.2498 40.8402 20.8498C40.7702 20.4598 40.5302 20.2698 40.2402 20.3198C40.0402 20.3498 39.8802 20.5198 39.8302 20.7998L39.7102 21.4098C39.6102 21.8998 39.4602 22.4098 38.7802 22.5298C38.1002 22.6398 37.5602 22.2098 37.4302 21.4598C37.3002 20.6998 37.6302 20.0998 38.3102 19.9798L38.4202 19.9598L38.5202 20.5398L38.3902 20.5598C38.0402 20.6198 37.8602 20.9198 37.9302 21.3498C38.0102 21.7998 38.2902 22.0098 38.6202 21.9498C38.9302 21.8998 39.0602 21.6598 39.1202 21.3298L39.2402 20.7298C39.3402 20.2198 39.5802 19.8398 40.1102 19.7498C40.6902 19.6498 41.2202 20.0398 41.3402 20.7698C41.4602 21.4898 41.1202 22.0598 40.4502 22.1698H40.3702L40.2702 21.5898V21.5998Z" fill="#323232"/>
<path d="M10.3389 26.2998L10.6689 27.5198C10.8689 28.2498 10.5389 28.9198 9.81891 29.1098C9.06891 29.3098 8.44891 28.8998 8.24891 28.1698L8.07891 27.5298L6.78891 27.8798L6.62891 27.2998L10.3389 26.2998ZM9.97891 27.0198L8.57891 27.3998L8.73891 27.9898C8.85891 28.4298 9.21891 28.6398 9.63891 28.5198C10.0589 28.4098 10.2489 28.0498 10.1289 27.6098L9.96891 27.0198H9.97891Z" fill="#323232"/>
<path d="M10.2281 33.0597C9.55808 33.4397 8.86808 33.2097 8.48808 32.5197C8.10808 31.8397 8.27808 31.1397 8.94808 30.7597L10.2081 30.0597C10.8781 29.6797 11.5481 29.8697 11.9481 30.5897C12.3281 31.2797 12.1681 31.9797 11.4881 32.3497L10.2281 33.0497V33.0597ZM9.24808 31.2897C8.87808 31.4997 8.74808 31.8597 8.96808 32.2597C9.18808 32.6597 9.56808 32.7397 9.93808 32.5297L11.1981 31.8297C11.5681 31.6197 11.6981 31.2597 11.4781 30.8597C11.2581 30.4597 10.8781 30.3797 10.5081 30.5897L9.24808 31.2897Z" fill="#323232"/>
<path d="M10.6205 35.4798L10.2305 35.0198L13.1505 32.5098L13.5405 32.9698L10.6205 35.4798Z" fill="#323232"/>
<path d="M13.6197 38.3298L13.2397 38.0098L13.8397 35.0098L12.0997 37.0398L11.6797 36.6798L14.1897 33.7598L14.5897 34.0998L13.9997 37.0398L15.6997 35.0498L16.1197 35.4098L13.6097 38.3298H13.6197Z" fill="#323232"/>
<path d="M16.758 35.8L19.018 36.92L18.778 37.41L17.918 36.98L16.458 39.94L15.918 39.67L17.378 36.71L16.518 36.28L16.758 35.79V35.8Z" fill="#323232"/>
<path d="M21.1603 38.6496L21.1803 38.5496C21.2503 38.2196 21.0703 37.9296 20.6803 37.8396C20.2903 37.7496 20.0203 37.9096 19.9603 38.1896C19.9203 38.3796 20.0103 38.5996 20.2503 38.7496L20.7703 39.0896C21.1803 39.3596 21.6103 39.6996 21.4603 40.3696C21.3103 41.0396 20.7103 41.3796 19.9603 41.2196C19.2003 41.0496 18.7703 40.5196 18.9203 39.8496L18.9403 39.7396L19.5203 39.8696L19.4903 39.9996C19.4103 40.3396 19.6203 40.6296 20.0503 40.7196C20.5003 40.8196 20.7903 40.6296 20.8703 40.3096C20.9403 39.9996 20.7703 39.7996 20.4803 39.6096L19.9703 39.2696C19.5403 38.9796 19.2703 38.6196 19.3803 38.0996C19.5103 37.5296 20.0603 37.1796 20.7803 37.3396C21.4903 37.4996 21.9003 38.0196 21.7503 38.6896L21.7303 38.7696L21.1503 38.6396L21.1603 38.6496Z" fill="#323232"/>
<path d="M24 46.25C11.73 46.25 1.75 36.27 1.75 24C1.75 11.73 11.73 1.75 24 1.75C36.27 1.75 46.25 11.73 46.25 24C46.25 36.27 36.27 46.25 24 46.25ZM24 3.75C12.83 3.75 3.75 12.83 3.75 24C3.75 35.17 12.83 44.25 24 44.25C35.17 44.25 44.25 35.17 44.25 24C44.25 12.83 35.17 3.75 24 3.75Z" fill="#323232"/>
<path d="M35.1492 34.1701L35.2092 34.1901L35.2992 34.1501V33.9901C33.0492 31.5301 30.2992 29.5401 27.2292 28.2601L26.2892 27.8701C25.7992 27.6501 25.4792 27.1601 25.4792 26.5901C25.5392 24.4801 30.2892 24.9201 30.7792 23.9101L30.8592 23.7301C29.8792 22.8401 28.7292 22.1901 27.4392 21.8201C27.4192 21.8801 27.3792 22.1101 27.6492 22.5701C27.9292 23.0401 27.3492 23.8101 26.4792 22.9801L26.3992 22.9201C20.0992 16.9001 17.1892 20.8701 12.9092 13.8701L12.7592 13.8301L12.6992 13.9901C16.0792 22.4701 22.9792 20.6801 23.7892 28.6001C23.8292 28.8901 24.0292 29.1301 24.3192 29.1701C28.1492 29.8001 31.8892 31.4501 35.1292 34.1701H35.1492Z" fill="#DF0000"/>
</svg>
