<svg width="48" height="48" viewBox="0 0 48 48" fill="none" xmlns="http://www.w3.org/2000/svg">
<path d="M41.0604 32.42C40.5404 31.67 39.7504 31.27 38.7904 31.27C37.9004 31.27 37.1404 31.45 36.5004 31.75V17.57C36.5004 13.64 33.5104 10.4 29.6904 10.01C29.9404 9.52003 30.1004 8.97003 30.1004 8.39003V5.84003C30.1004 3.88003 28.5104 2.28003 26.5404 2.28003H21.4304C19.4704 2.28003 17.8704 3.87003 17.8704 5.84003V8.39003C17.8704 8.98003 18.0304 9.53003 18.2804 10.02C14.4704 10.42 11.4804 13.66 11.4804 17.58V31.76C10.8304 31.47 10.0804 31.29 9.19035 31.29C8.23035 31.29 7.45036 31.69 6.92036 32.44C4.87036 35.37 7.67036 43.48 8.25036 45.08C8.39036 45.47 8.77035 45.74 9.19035 45.74H38.7804C39.2004 45.74 39.5804 45.48 39.7204 45.08C40.3004 43.48 43.1004 35.37 41.0504 32.44L41.0604 32.42ZM19.8804 5.83003C19.8804 4.97003 20.5804 4.27003 21.4404 4.27003H26.5504C27.4104 4.27003 28.1104 4.97003 28.1104 5.83003V8.38003C28.1104 9.24003 27.4104 9.94003 26.5504 9.94003H21.4404C20.5804 9.94003 19.8804 9.24003 19.8804 8.38003V5.83003ZM13.4904 17.57C13.4904 14.48 16.0004 11.96 19.0904 11.96H28.8904C31.9804 11.96 34.4904 14.47 34.4904 17.57V33.38C33.9504 34.11 33.6004 34.94 33.3804 35.73C31.7804 34.68 28.7904 33.32 24.0004 33.32H23.9704C19.1804 33.32 16.1904 34.67 14.5904 35.72C14.3704 34.92 14.0104 34.09 13.4704 33.36V17.56L13.4904 17.57ZM38.0904 43.72H9.91035C8.69035 40.15 7.56035 35.01 8.57035 33.57C8.69035 33.39 8.85035 33.28 9.20035 33.28C12.6404 33.28 12.8704 37.19 12.8904 37.64C12.9004 38.05 13.1704 38.41 13.5504 38.55C13.9304 38.69 14.3704 38.58 14.6404 38.27C14.6704 38.24 17.3004 35.35 23.9804 35.35H24.0104C30.6804 35.35 33.3204 38.25 33.3404 38.27C33.6104 38.58 34.0404 38.7 34.4304 38.56C34.8204 38.42 35.0904 38.06 35.1004 37.65C35.1204 37.2 35.3504 33.29 38.7904 33.29C39.1404 33.29 39.3004 33.41 39.4204 33.58C40.4304 35.02 39.3004 40.16 38.0804 43.73L38.0904 43.72Z" fill="#323232"/>
<path d="M19.8203 25.24L21.3903 23.37C20.2303 19.39 18.5203 17.33 18.0303 17.17C17.5003 17 16.9403 17.28 16.7703 17.8C16.6403 18.19 16.7703 18.6 17.0503 18.86C17.2203 19.06 18.8703 21.03 19.8203 25.24Z" fill="#323232"/>
<path d="M20.5106 31.77C20.5106 32.32 20.9606 32.77 21.5106 32.77C22.0606 32.77 22.5106 32.32 22.5106 31.77C22.5106 29.81 22.3506 28.06 22.0906 26.5L20.3506 28.58C20.4506 29.56 20.5006 30.62 20.5006 31.77H20.5106Z" fill="#323232"/>
<path d="M26.4805 32.77C27.0305 32.77 27.4805 32.32 27.4805 31.77C27.4805 22.97 30.6905 19.14 30.9405 18.86C31.2305 18.6 31.3505 18.19 31.2205 17.8C31.0505 17.28 30.4805 16.99 29.9605 17.17C29.9305 17.18 29.8805 17.21 29.8405 17.24L28.5905 18.74C27.2405 20.88 25.4805 25.2 25.4805 31.78C25.4805 32.33 25.9305 32.78 26.4805 32.78V32.77Z" fill="#323232"/>
<path d="M30.6702 12.26L13.4902 32.82V33.42C13.9802 34.08 14.3202 34.81 14.5402 35.54L32.8602 13.62C32.2502 13.01 31.5002 12.54 30.6602 12.26H30.6702Z" fill="#DF0000"/>
</svg>
