<svg width="48" height="48" viewBox="0 0 48 48" fill="none" xmlns="http://www.w3.org/2000/svg">
<path d="M46.0998 31.5699L41.5798 13.3099C41.4898 12.9499 41.2098 12.6699 40.8498 12.5799C37.0898 11.6599 30.7898 11.1099 24.0098 11.1099C17.2298 11.1099 10.9298 11.6599 7.16979 12.5799C6.80979 12.6699 6.52979 12.9499 6.43979 13.3099L1.89979 31.5699C1.82979 31.8699 1.89979 32.1799 2.07979 32.4299C2.25979 32.6799 2.55979 32.8099 2.86979 32.8099H9.48979L10.2798 30.8099H4.14979L8.21979 14.3799C11.8898 13.5799 17.7198 13.1099 23.9998 13.1099C30.2798 13.1099 36.1098 13.5799 39.7798 14.3799L43.8498 30.8099H32.1098C31.5598 30.8099 31.1098 31.2599 31.1098 31.8099C31.1098 32.3599 31.5598 32.8099 32.1098 32.8099H45.1198C45.4298 32.8099 45.7198 32.6699 45.9098 32.4299C46.0998 32.1899 46.1698 31.8699 46.0898 31.5699H46.0998Z" fill="#323232"/>
<path d="M26.8306 30.8101H15.1406C14.5906 30.8101 14.1406 31.2601 14.1406 31.8101C14.1406 32.3601 14.5906 32.8101 15.1406 32.8101H26.0406L26.8306 30.8101Z" fill="#323232"/>
<path d="M39.11 24.7702C38.98 24.2302 38.44 23.9002 37.91 24.0202L25.03 27.0402C24.49 27.1702 24.16 27.7002 24.28 28.2402C24.39 28.7002 24.8 29.0102 25.25 29.0102C25.33 29.0102 25.4 29.0102 25.48 28.9802L27.76 28.4502L25.22 34.8902H24C23.45 34.8902 23 35.3402 23 35.8902C23 36.4402 23.45 36.8902 24 36.8902H28.44C28.99 36.8902 29.44 36.4402 29.44 35.8902C29.44 35.3402 28.99 34.8902 28.44 34.8902H27.37L30.13 27.9002L38.36 25.9702C38.9 25.8402 39.23 25.3102 39.11 24.7702Z" fill="#DF0000"/>
<path d="M21.3495 24.0202L8.46945 27.0402C7.92945 27.1702 7.59945 27.7002 7.71945 28.2402C7.82945 28.7002 8.23945 29.0102 8.68945 29.0102C8.76945 29.0102 8.83945 29.0102 8.91945 28.9802L11.1995 28.4502L8.65945 34.8902H7.43945C6.88945 34.8902 6.43945 35.3402 6.43945 35.8902C6.43945 36.4402 6.88945 36.8902 7.43945 36.8902H11.8795C12.4295 36.8902 12.8795 36.4402 12.8795 35.8902C12.8795 35.3402 12.4295 34.8902 11.8795 34.8902H10.8095L13.5695 27.9002L21.7995 25.9702C22.3395 25.8402 22.6695 25.3102 22.5495 24.7702C22.4295 24.2302 21.8795 23.9002 21.3495 24.0202Z" fill="#DF0000"/>
</svg>
