<svg width="24" height="24" viewBox="0 0 24 24" fill="none" xmlns="http://www.w3.org/2000/svg">
<g clip-path="url(#clip0_16335_5356)">
<path d="M23.6789 14.7568C25.2013 8.30659 21.2066 1.84354 14.7564 0.321152C8.30617 -1.20123 1.84311 2.79355 0.320729 9.24374C-1.20165 15.6939 2.79312 22.157 9.24332 23.6794C15.6935 25.2018 22.1566 21.207 23.6789 14.7568Z" fill="white"/>
<mask id="mask0_16335_5356" style="mask-type:luminance" maskUnits="userSpaceOnUse" x="-1" y="-1" width="26" height="26">
<path d="M23.6789 14.7568C25.2013 8.30659 21.2066 1.84354 14.7564 0.321152C8.30617 -1.20123 1.84311 2.79355 0.320729 9.24374C-1.20165 15.6939 2.79312 22.157 9.24332 23.6794C15.6935 25.2018 22.1566 21.207 23.6789 14.7568Z" fill="white"/>
</mask>
<g mask="url(#mask0_16335_5356)">
<path d="M32.0661 0H-3.9339V24H32.0661V0Z" fill="#FED700"/>
<path d="M32.0661 0H-3.9339V10.9924H32.0661V0Z" fill="#003399"/>
<path d="M32.0661 13.0089H-3.9339V24.0013H32.0661V13.0089Z" fill="#003399"/>
<path fill-rule="evenodd" clip-rule="evenodd" d="M8.60834 15.0841L10.0924 13.5441L9.49992 15.5998L11.5556 15.0073L10.0142 16.4914L12.0908 17.007L10.0142 17.5213L11.5556 19.0054L9.49992 18.4129L10.0924 20.4686L8.60834 18.9286L8.09268 21.0038L7.57841 18.9286L6.09431 20.4686L6.68544 18.4129L4.62977 19.0054L6.17117 17.5213L4.09454 17.007L6.17117 16.4914L4.62977 15.0073L6.68544 15.5998L6.09431 13.5441L7.57841 15.0841L8.09268 13.0089L8.60834 15.0841Z" fill="white"/>
</g>
</g>
<rect x="0.25" y="0.25" width="23.5" height="23.5" rx="11.75" stroke="#E5E3E1" stroke-width="0.5"/>
<defs>
<clipPath id="clip0_16335_5356">
<rect width="24" height="24" rx="12" fill="white"/>
</clipPath>
</defs>
</svg>
