<svg width="24" height="24" viewBox="0 0 24 24" fill="none" xmlns="http://www.w3.org/2000/svg">
<path d="M18.0291 17.3373C18.3635 17.442 18.5061 17.4143 18.5061 17.4143C20.8721 17.605 21.8097 16.5705 21.8097 16.5705C21.975 16.4368 21.9985 16.5432 22.0008 16.5971L22.0004 16.6236C21.966 18.8365 20.7158 19.6022 20.7158 19.6022C19.2562 20.8305 16.7558 20.1742 16.7558 20.1742C16.1878 19.9555 15.6877 19.7173 15.251 19.4762C12.0094 21.7989 7.69801 20.6399 7.69801 20.6399C5.63346 20.1381 3.88987 18.762 2.92221 16.8705C0.746843 12.6792 3.10661 8.88167 3.10661 8.88167C4.85691 4.79661 9.92651 3.33699 9.92651 3.33699C12.1501 2.7031 14.5339 2.97033 16.562 4.08087C20.9127 6.46877 20.4345 11.2977 20.4345 11.2977C20.3748 13.9835 19.1629 15.9761 17.9428 17.3097L17.9427 17.3088L18.0291 17.3373ZM17.4653 5.66863C17.4653 5.66863 14.6492 3.27761 9.71397 5.40296C7.4106 6.47719 5.52162 8.27506 4.33494 10.5226C4.33494 10.5226 2.38774 13.7606 3.97863 17.1581C3.97863 17.1581 6.79473 22.3902 14.0147 18.7833C14.0147 18.7833 14.0408 18.7658 14.0892 18.7323C13.1716 18.0529 12.7707 17.4987 12.7707 17.4987C11.6222 16.2671 10.7674 14.7914 10.2703 13.1824C10.2141 12.9355 10.1328 13.073 10.1328 13.073C9.83274 13.1886 9.4233 14.6358 9.4233 14.6358C8.8357 17.0674 9.77335 17.5237 9.77335 17.5237L6.33528 17.4206C6.16481 16.0099 6.285 14.5792 6.68846 13.2168C6.71034 12.9511 8.64817 8.41909 8.64817 8.41909L7.97618 8.45347C7.81053 8.39721 7.90429 8.35033 7.90429 8.35033C8.87477 7.15393 10.4927 6.79477 11.0396 6.70465L11.1568 6.68686C11.2021 6.68065 11.2267 6.67818 11.2267 6.67818C12.6457 6.56878 12.1269 7.4158 12.1269 7.4158L11.1892 9.87246C10.9954 10.2538 11.2424 10.0912 11.2424 10.0912L14.4741 7.98465C15.3092 7.39784 16.0877 6.73444 16.7995 6.00306C16.8652 5.81241 17.1121 5.97493 17.1121 5.97493C17.8091 7.00636 17.359 8.7629 17.359 8.7629C17.0621 10.3632 14.8742 11.4383 14.8742 11.4383C14.1616 12.0103 11.7331 12.4479 11.7331 12.4479C11.4611 12.476 11.6518 12.6135 11.6518 12.6135L15.8306 16.0516C16.1412 16.2887 16.4205 16.4848 16.6705 16.6471C17.628 15.7432 18.5682 14.6639 18.9499 13.6325C18.9499 13.6262 21.4441 8.63788 17.4653 5.66863Z" fill="#EC2227"/>
</svg>
