<svg width="48" height="48" viewBox="0 0 48 48" fill="none" xmlns="http://www.w3.org/2000/svg">
<path d="M40.41 26C39.86 26 39.41 26.45 39.41 27V33.76C39.41 33.88 39.31 33.98 39.19 33.98H4.97C4.85 33.98 4.75 33.88 4.75 33.76V11.76C4.75 11.64 4.85 11.54 4.97 11.54H22.49C23.04 11.54 23.49 11.09 23.49 10.54C23.49 9.99004 23.04 9.54004 22.49 9.54004H4.97C3.74 9.54004 2.75 10.54 2.75 11.76V33.76C2.75 34.99 3.75 35.98 4.97 35.98H21.08V41.31H15.97C15.42 41.31 14.97 41.76 14.97 42.31C14.97 42.86 15.42 43.31 15.97 43.31H28.19C28.74 43.31 29.19 42.86 29.19 42.31C29.19 41.76 28.74 41.31 28.19 41.31H23.08V35.98H39.19C40.42 35.98 41.41 34.98 41.41 33.76V27C41.41 26.45 40.96 26 40.41 26Z" fill="#323232"/>
<path d="M36.7399 32.3102H7.41992C6.86992 32.3102 6.41992 31.8602 6.41992 31.3102V14.2002C6.41992 13.6502 6.86992 13.2002 7.41992 13.2002H21.6999C22.2499 13.2002 22.6999 13.6502 22.6999 14.2002C22.6999 14.7502 22.2499 15.2002 21.6999 15.2002H8.41992V30.3102H35.7499V28.1402C35.7499 27.5902 36.1999 27.1402 36.7499 27.1402C37.2999 27.1402 37.7499 27.5902 37.7499 28.1402V31.3102C37.7499 31.8602 37.2999 32.3102 36.7499 32.3102H36.7399Z" fill="#323232"/>
<path fill-rule="evenodd" clip-rule="evenodd" d="M22.4707 16.5098H9.7207V24.7298L22.4707 16.5098Z" fill="#8DE2E0"/>
<path d="M33.2598 19.1698C32.9898 19.1698 32.7398 19.0598 32.5498 18.8798L29.5698 15.8998C29.1798 15.5098 29.1798 14.8798 29.5698 14.4898C29.9598 14.0998 30.5898 14.0998 30.9798 14.4898L33.2498 16.7598L38.4998 11.5098C38.8898 11.1198 39.5198 11.1198 39.9098 11.5098C40.2998 11.8998 40.2998 12.5298 39.9098 12.9198L33.9498 18.8798C33.7598 19.0698 33.5098 19.1698 33.2398 19.1698H33.2598Z" fill="#DF0000"/>
<path d="M34.75 25.6899C28.96 25.6899 24.25 20.9799 24.25 15.1899C24.25 9.39994 28.96 4.68994 34.75 4.68994C40.54 4.68994 45.25 9.39994 45.25 15.1899C45.25 20.9799 40.54 25.6899 34.75 25.6899ZM34.75 6.68994C30.06 6.68994 26.25 10.4999 26.25 15.1899C26.25 19.8799 30.06 23.6899 34.75 23.6899C39.44 23.6899 43.25 19.8799 43.25 15.1899C43.25 10.4999 39.44 6.68994 34.75 6.68994Z" fill="#323232"/>
</svg>
