<svg width="48" height="48" viewBox="0 0 48 48" fill="none" xmlns="http://www.w3.org/2000/svg">
<path d="M23.9991 45.1498C23.2491 45.1498 22.5391 44.8598 21.9991 44.3398L2.75908 30.7498C2.75908 30.7498 2.68908 30.6998 2.65908 30.6698C2.63908 30.6498 2.61908 30.6298 2.59908 30.6098C1.86908 29.9598 1.57908 29.0998 1.85908 28.3598C2.10908 27.6698 2.77908 27.2398 3.59908 27.2398H6.26908V5.78977C6.26908 4.03977 7.48908 2.75977 9.17908 2.75977H38.8191C40.4791 2.75977 41.7291 4.05977 41.7291 5.78977V27.2398H44.4091C45.1591 27.2398 45.7891 27.5998 46.0791 28.1998C46.3891 28.8198 46.2691 29.5798 45.7691 30.2198C45.7491 30.2498 45.7191 30.2798 45.6991 30.2998L45.3991 30.6098C45.3991 30.6098 45.3091 30.6998 45.2591 30.7298L25.9891 44.3498C25.4491 44.8698 24.7391 45.1598 23.9891 45.1598L23.9991 45.1498ZM4.07908 29.2298L23.2291 42.7598C23.2791 42.7998 23.3291 42.8398 23.3691 42.8798C23.7091 43.2298 24.2991 43.2298 24.6391 42.8798C24.6791 42.8398 24.7291 42.7998 24.7791 42.7598L43.9091 29.2398H40.7391C40.1891 29.2398 39.7391 28.7898 39.7391 28.2398V5.78977C39.7391 5.16977 39.3691 4.75977 38.8291 4.75977H9.17908C8.60908 4.75977 8.26908 5.13977 8.26908 5.78977V28.2398C8.26908 28.7898 7.81908 29.2398 7.26908 29.2398H4.07908V29.2298Z" fill="#323232"/>
<path d="M25.6495 18.1602V17.7702C25.6495 16.7502 24.9795 16.0302 23.9295 16.0302C22.8795 16.0302 22.2895 16.6602 22.2895 17.5202C22.2895 18.0302 22.5195 18.6902 23.3495 19.0102L25.1295 19.7102C26.6995 20.3402 28.4195 21.2002 28.4195 23.6802C28.4195 25.8702 27.0295 27.4202 24.8395 27.7102V29.7702H22.9795V27.6602C20.8895 27.3102 19.5195 25.9002 19.5195 23.8202V23.3702H22.0395V23.9202C22.0395 25.0002 22.7595 25.6402 23.9795 25.6402C25.1995 25.6402 25.9195 24.9202 25.9195 23.9402C25.9195 23.1002 25.4895 22.5502 24.6495 22.2002L22.7295 21.4402C20.9695 20.7502 19.8095 19.6002 19.8095 17.7002C19.8095 15.9002 20.9795 14.3702 22.9795 14.0002V11.9102H24.8395V14.0002C26.8195 14.3302 28.1495 15.7602 28.1495 17.8602V18.1502H25.6395L25.6495 18.1602Z" fill="#DF0000"/>
</svg>
