<svg width="24" height="24" viewBox="0 0 24 24" fill="none" xmlns="http://www.w3.org/2000/svg">
<g clip-path="url(#clip0_16335_3414)">
<mask id="mask0_16335_3414" style="mask-type:luminance" maskUnits="userSpaceOnUse" x="0" y="0" width="25" height="24">
<path d="M12.0001 24.0002C18.6276 24.0002 24.0002 18.6276 24.0002 12.0001C24.0002 5.37264 18.6276 0 12.0001 0C5.37264 0 0 5.37264 0 12.0001C0 18.6276 5.37264 24.0002 12.0001 24.0002Z" fill="white"/>
</mask>
<g mask="url(#mask0_16335_3414)">
<path d="M45.2832 0H0V24H45.2832V0Z" fill="white"/>
<path d="M45.2832 0H0V11.8846H45.2832V0Z" fill="#F90D18"/>
<path d="M9.77517 4.12207L9.96479 4.70394L10.5756 4.70804L10.0789 5.06676L10.2663 5.65128L9.77131 5.29014L9.27316 5.64838L9.46398 5.06796L8.97089 4.7008L9.5817 4.70466L9.77517 4.12207Z" fill="white"/>
<path d="M10.8815 7.72607L11.0711 8.30794L11.6819 8.31204L11.1852 8.671L11.3724 9.25528L10.8774 8.89439L10.3792 9.25263L10.5701 8.67197L10.077 8.3048L10.6878 8.3089L10.8815 7.72607Z" fill="white"/>
<path d="M8.6329 7.72607L8.82251 8.30794L9.43333 8.31204L8.93662 8.671L9.12406 9.25528L8.62904 8.89439L8.13088 9.25263L8.32146 8.67197L7.82861 8.3048L8.43943 8.3089L8.6329 7.72607Z" fill="white"/>
<path d="M11.6028 5.50439L11.7924 6.0865L12.4032 6.09036L11.9065 6.44932L12.094 7.03384L11.5989 6.67271L11.1008 7.03095L11.2916 6.45029L10.7985 6.08312L11.4093 6.08722L11.6028 5.50439Z" fill="white"/>
<path d="M7.9476 5.50439L8.13721 6.0865L8.74802 6.09036L8.25132 6.44932L8.43876 7.03384L7.94374 6.67271L7.44558 7.03095L7.63616 6.45029L7.14331 6.08312L7.75412 6.08722L7.9476 5.50439Z" fill="white"/>
<path d="M8.82929 10.0153C8.50555 10.1149 8.16178 10.1684 7.80547 10.1684C5.88378 10.1684 4.32562 8.61053 4.32562 6.68884C4.32562 4.76714 5.88353 3.20898 7.80547 3.20898C8.16178 3.20898 8.50579 3.26254 8.82929 3.36217C7.15727 3.54889 5.85748 4.96712 5.85748 6.68884C5.85748 8.41055 7.15727 9.82878 8.82929 10.0155V10.0153Z" fill="white"/>
</g>
</g>
<rect x="0.25" y="0.25" width="23.5" height="23.5" rx="11.75" stroke="#E5E3E1" stroke-width="0.5"/>
<defs>
<clipPath id="clip0_16335_3414">
<rect width="24" height="24" rx="12" fill="white"/>
</clipPath>
</defs>
</svg>
