<svg width="48" height="48" viewBox="0 0 48 48" fill="none" xmlns="http://www.w3.org/2000/svg">
<path d="M24 46.2202C11.73 46.2202 1.75 36.2402 1.75 23.9702C1.75 11.7002 11.73 1.72021 24 1.72021C36.27 1.72021 46.25 11.7002 46.25 23.9702C46.25 36.2402 36.27 46.2202 24 46.2202ZM24 3.72021C12.83 3.72021 3.75 12.8102 3.75 23.9702C3.75 35.1302 12.83 44.2202 24 44.2202C35.17 44.2202 44.25 35.1402 44.25 23.9702C44.25 12.8002 35.17 3.72021 24 3.72021Z" fill="#323232"/>
<path fill-rule="evenodd" clip-rule="evenodd" d="M35.8602 21.5301H26.4402V12.1401C26.4402 11.8701 26.2202 11.6401 25.9402 11.6401H22.0502C21.7802 11.6401 21.5502 11.8601 21.5502 12.1401V21.5301H12.1302C11.8702 21.5301 11.6602 21.7401 11.6602 22.0001V25.9501C11.6602 26.2101 11.8702 26.4201 12.1302 26.4201H21.5502V35.8101C21.5502 36.0801 21.7702 36.3101 22.0502 36.3101H25.9402C26.2102 36.3101 26.4402 36.0901 26.4402 35.8101V26.4201H35.8602C36.1202 26.4201 36.3302 26.2101 36.3302 25.9501V22.0001C36.3302 21.7401 36.1202 21.5301 35.8602 21.5301Z" fill="#DF0000"/>
<path d="M24.3992 5.9099C24.1892 5.9099 24.0192 6.0599 23.9792 6.2599C23.9492 6.4599 24.0692 6.6599 24.2692 6.7199C24.3392 6.7399 31.4392 9.0499 35.6792 14.1099C40.0292 19.3099 41.0992 25.4199 41.1092 25.4799C41.1392 25.6799 41.3192 25.8299 41.5192 25.8299C41.7192 25.8299 41.8992 25.6899 41.9292 25.4899C42.0692 24.7499 42.1392 23.9299 42.1392 23.0499C42.1392 13.5999 34.1792 5.8999 24.3892 5.8999L24.3992 5.9099Z" fill="#8DE2E0"/>
</svg>
