<svg width="48" height="48" viewBox="0 0 48 48" fill="none" xmlns="http://www.w3.org/2000/svg">
<path d="M3.86914 33.4702V38.9802H33.0991L39.1291 33.4702H3.86914Z" fill="#8DE2E0"/>
<path fill-rule="evenodd" clip-rule="evenodd" d="M28.9009 31.3199C28.9009 31.3199 28.9409 31.3399 28.9509 31.3399C28.9909 31.3399 29.0009 31.3399 29.0409 31.2999C29.0709 31.2599 29.0709 31.1899 29.0409 31.1499C26.9609 28.8599 24.4009 27.0199 21.5409 25.8299L20.6609 25.4599C20.2009 25.2599 19.9109 24.7999 19.9109 24.2699C19.9609 22.3099 24.3809 22.7199 24.8309 21.7799L24.9009 21.6199C23.9909 20.7999 22.9209 20.1899 21.7309 19.8499C21.7109 19.8999 21.6809 20.1199 21.9209 20.5399C22.1809 20.9799 21.6409 21.6899 20.8309 20.9199L20.7609 20.8599C14.9109 15.2699 12.2109 18.9599 8.23087 12.4499C8.19087 12.3899 8.14087 12.3799 8.09087 12.4099C8.04087 12.4499 8.02087 12.4999 8.04087 12.5599C11.1809 20.4399 17.5909 18.7699 18.3409 26.1199C18.3809 26.3899 18.5709 26.6099 18.8309 26.6499C22.3909 27.2399 25.8609 28.7699 28.8709 31.2899H28.8909" fill="#DF0000"/>
<path d="M44.1309 8.02002H3.88086C3.33086 8.02002 2.88086 8.47002 2.88086 9.02002V38.98C2.88086 39.53 3.33086 39.98 3.88086 39.98H33.1109C33.2409 39.98 33.3709 39.95 33.4809 39.9C33.5309 39.88 33.5609 39.85 33.6109 39.82C33.6709 39.79 33.7309 39.76 33.7809 39.71L44.8009 29.65C45.0109 29.46 45.1309 29.19 45.1309 28.91V9.02002C45.1309 8.47002 44.6809 8.02002 44.1309 8.02002ZM4.88086 10.02H32.1109V37.98H4.88086V10.02ZM43.1309 28.48L34.1109 36.72V10.02H43.1309V28.48Z" fill="#323232"/>
</svg>
