<svg width="24" height="24" viewBox="0 0 24 24" fill="none" xmlns="http://www.w3.org/2000/svg">
<path d="M24 12C24 18.6274 18.6274 24 12 24C5.37258 24 0 18.6274 0 12C0 5.37258 5.37258 0 12 0C18.6274 0 24 5.37258 24 12Z" fill="#E0F8D9"/>
<path fill-rule="evenodd" clip-rule="evenodd" d="M10.4483 14.5836L8.135 12.2703C7.875 12.0103 7.455 12.0103 7.195 12.2703C6.935 12.5303 6.935 12.9503 7.195 13.2103L9.98167 15.9969C10.2417 16.2569 10.6617 16.2569 10.9217 15.9969L17.975 8.94359C18.235 8.68359 18.235 8.26359 17.975 8.00359C17.715 7.74359 17.295 7.74359 17.035 8.00359L10.4483 14.5836Z" fill="#0F4400"/>
</svg>
