<svg width="48" height="48" viewBox="0 0 48 48" fill="none" xmlns="http://www.w3.org/2000/svg">
<path d="M25.6097 14.5398L22.8997 15.3198C22.3197 15.4798 21.6997 15.2798 21.3297 14.7998L18.0497 10.4998C17.7997 10.1698 17.9597 9.68979 18.3497 9.57979L19.4397 9.26979C19.8897 9.13979 20.3797 9.22979 20.7497 9.52979L25.7997 13.5198C26.1797 13.8198 26.0597 14.4098 25.5997 14.5498" fill="#DF0000"/>
<path d="M36.3399 42.14H31.6499L33.6799 31.89C33.7399 31.6 33.6599 31.29 33.4699 31.06C33.2799 30.83 32.9999 30.69 32.6999 30.69H19.6199C19.0699 30.69 18.6199 31.14 18.6199 31.69C18.6199 32.24 19.0699 32.69 19.6199 32.69H31.4799L29.6099 42.14H26.5999V36.18C26.5999 35.63 26.1499 35.18 25.5999 35.18C25.0499 35.18 24.5999 35.63 24.5999 36.18V42.14H20.5899V36.18C20.5899 35.63 20.1399 35.18 19.5899 35.18C19.0399 35.18 18.5899 35.63 18.5899 36.18V42.14H16.3399V28.38H19.6399C20.0899 28.38 20.4899 28.08 20.6099 27.64L22.8699 19.26C22.9499 18.96 22.8899 18.64 22.6999 18.39C22.5099 18.14 22.2199 18 21.9099 18H4.02988C3.71988 18 3.42988 18.15 3.23988 18.39C3.04988 18.64 2.98988 18.96 3.06988 19.26L5.32988 27.64C5.44988 28.08 5.83988 28.38 6.29988 28.38H9.59988V42.14H2.87988C2.32988 42.14 1.87988 42.59 1.87988 43.14C1.87988 43.69 2.32988 44.14 2.87988 44.14H36.3399C36.8899 44.14 37.3399 43.69 37.3399 43.14C37.3399 42.59 36.8899 42.14 36.3399 42.14ZM7.05988 26.38L5.33988 20H20.5999L18.8799 26.38H7.05988ZM14.3399 42.14H11.5899V28.38H14.3399V42.14Z" fill="#323232"/>
<path d="M9.16992 16.6101H16.7499C17.2999 16.6101 17.7499 16.1601 17.7499 15.6101C17.7499 15.0601 17.2999 14.6101 16.7499 14.6101H13.9599V11.8701C13.9599 11.3201 13.5099 10.8701 12.9599 10.8701C12.4099 10.8701 11.9599 11.3201 11.9599 11.8701V14.6101H9.16992C8.61992 14.6101 8.16992 15.0601 8.16992 15.6101C8.16992 16.1601 8.61992 16.6101 9.16992 16.6101Z" fill="#323232"/>
<path d="M46.0795 8.04013L46.0395 7.91013C45.8695 7.27013 45.4595 5.78013 44.0595 4.99013C43.0495 4.42013 41.7695 4.35013 40.2495 4.77013L34.2795 6.45013L27.9095 4.01013C26.6195 3.59013 25.1795 3.80013 24.0595 4.58013C23.8195 4.75013 23.6695 5.01013 23.6395 5.31013C23.6095 5.60013 23.7095 5.89013 23.9195 6.10013C24.5595 6.75013 25.6795 7.83013 26.5395 8.63013L24.2395 9.28013C23.7095 9.43013 23.3995 9.98013 23.5495 10.5101C23.6995 11.0401 24.2495 11.3501 24.7795 11.2001L40.7895 6.69013C41.7795 6.41013 42.5495 6.42013 43.0695 6.72013C43.4495 6.93013 43.6795 7.28013 43.8395 7.64013C41.4295 8.33013 35.7395 9.97013 35.7395 9.97013C35.5095 10.0301 35.3195 10.1801 35.1895 10.3701C35.1895 10.3701 31.6595 15.6201 30.5195 17.3501C30.2395 17.7501 29.8795 18.0701 29.4695 18.3201L30.7095 12.9501C30.7895 12.6001 30.6795 12.2401 30.4195 12.0001C30.1595 11.7601 29.7895 11.6701 29.4595 11.7601L27.4195 12.3501C26.8895 12.5001 26.5795 13.0601 26.7395 13.5901C26.8895 14.1201 27.4495 14.4301 27.9795 14.2701L28.3795 14.1501L27.1295 19.5601C27.0595 19.8701 27.1395 20.2001 27.3495 20.4501C27.5395 20.6701 27.8195 20.7901 28.0995 20.7901C28.1295 20.7901 28.1695 20.7901 28.1995 20.7901C29.7895 20.6301 31.2295 19.8001 32.1695 18.4801C33.1595 16.9701 35.8795 12.9301 36.6495 11.7901C38.2395 11.3401 44.6895 9.48013 45.3995 9.28013C45.9295 9.13013 46.2295 8.57013 46.0795 8.04013ZM26.4595 5.80013C26.7295 5.78013 26.9895 5.82013 27.2395 5.90013L31.0595 7.36013L28.7795 8.00013C28.3195 7.57013 27.3195 6.63013 26.4595 5.80013Z" fill="#323232"/>
</svg>
