<svg width="48" height="48" viewBox="0 0 48 48" fill="none" xmlns="http://www.w3.org/2000/svg">
<path d="M6.2207 19.5302L6.8907 12.7002L9.0607 11.1102H12.2107L18.5807 5.93018L23.0107 8.67018L26.9007 11.5402L21.4607 10.6202L19.4707 11.0702L18.2707 12.3602L17.4707 13.0502L16.1507 13.0202L15.2607 14.2602L14.5507 14.8402H12.6907L11.4007 15.6702L10.8307 16.9402L9.8607 17.6402L8.6507 18.4402L8.2607 19.2302L7.8707 19.5302H6.2207Z" fill="#8DE2E0"/>
<path d="M5.92047 26.5601L4.23047 41.8001L9.41047 39.9901L15.3005 40.8701L14.9905 31.0001L12.1105 30.0601L10.6805 28.7401L8.78047 28.5801L5.92047 26.5601Z" fill="#8DE2E0"/>
<path d="M20.4297 31.2999L22.9897 33.2999L22.2697 45.2099L25.3497 43.3499L28.1797 42.6699L30.6097 43.4399L31.3897 42.8699L30.5197 36.2199L28.4897 32.7199L19.1797 25.8999L20.5097 29.5299L20.4297 31.2999Z" fill="#8DE2E0"/>
<path d="M44.5693 25.6898L37.9693 19.2498C37.3293 18.6298 36.8193 17.9298 36.4293 17.1798L33.2093 9.14977C33.1693 9.04977 33.1093 8.94977 33.0393 8.86977L29.0193 4.23977C28.0993 3.17977 26.6593 2.84977 25.3593 3.37977C24.0793 3.90977 23.3193 5.12977 23.4093 6.49977C23.4693 7.37977 23.7893 8.26977 24.3693 9.16977L24.9293 9.99977C24.4793 9.81977 23.9993 9.71977 23.4993 9.71977H20.6193C19.6893 9.71977 18.7893 10.1198 18.1393 10.8398L17.4893 11.6098C16.7693 11.6798 16.0893 11.9698 15.5393 12.4798L14.2493 13.7298H13.6993C12.4693 13.7298 11.3193 14.2798 10.5293 15.2598L9.56928 16.5098C8.90928 16.8098 8.31928 17.2698 7.87928 17.8898L7.30928 18.7598C6.96928 18.8098 6.62928 18.8898 6.28928 19.0298C5.40928 19.4198 4.72928 20.1298 4.36928 21.0098C4.00928 21.9098 4.01928 22.8798 4.40928 23.7498L5.85928 26.9798C6.24928 27.8498 6.96928 28.5098 7.87928 28.8398C8.27928 28.9898 8.69928 29.0598 9.11928 29.0598C9.42928 29.0598 9.73928 29.0098 10.0393 28.9298L10.1793 29.2298C10.5693 30.0998 11.2893 30.7598 12.1993 31.0898C12.5993 31.2398 13.0193 31.3098 13.4393 31.3098C13.5093 31.3098 13.5693 31.2898 13.6393 31.2898L14.3693 39.5298L11.0193 39.0698C9.83928 38.9198 8.64928 39.0498 7.53928 39.4598L5.23928 40.3298L6.57928 30.1698C6.64928 29.6198 6.26928 29.1198 5.71928 29.0498C5.15928 28.9698 4.66928 29.3598 4.59928 29.9098L3.03928 41.7198C2.98928 42.0698 3.12928 42.4198 3.40928 42.6298C3.58928 42.7698 3.80928 42.8498 4.02928 42.8498C4.14928 42.8498 4.26928 42.8298 4.37928 42.7898L8.22928 41.3398C9.03928 41.0398 9.92928 40.9498 10.7493 41.0598L15.3293 41.6898C15.6293 41.7298 15.9293 41.6298 16.1593 41.4198C16.3793 41.2098 16.4893 40.9098 16.4693 40.6098L15.8093 33.1998C16.3793 33.5398 17.0493 33.7298 17.7393 33.7298C18.2693 33.7298 18.7993 33.6198 19.3193 33.3898C19.8493 33.1498 20.2893 32.7998 20.6593 32.3798L21.8293 33.4398L21.2093 45.1698C21.1893 45.5398 21.3793 45.8898 21.6893 46.0798C21.8493 46.1798 22.0293 46.2198 22.1993 46.2198C22.3693 46.2198 22.5593 46.1698 22.7193 46.0798L25.2993 44.5298C26.7093 43.6998 28.4693 43.5598 29.9893 44.1398L30.9493 44.5098C31.2693 44.6298 31.6393 44.5798 31.9093 44.3798C32.1893 44.1698 32.3293 43.8398 32.2993 43.4898L31.8293 38.2498C31.6593 36.3298 30.9193 34.5298 29.7593 33.0398C30.2493 33.1498 30.7093 33.3798 31.0793 33.7398L41.5393 43.8498C41.7293 44.0398 41.9893 44.1298 42.2393 44.1298C42.4893 44.1298 42.7593 44.0298 42.9593 43.8198C43.3393 43.4198 43.3293 42.7898 42.9393 42.4098L32.4793 32.2998C31.5893 31.4398 30.4193 30.9698 29.1793 30.9698H27.6093L19.8193 25.2398C19.8193 25.2398 19.7993 25.2398 19.7893 25.2298C19.0593 23.5898 17.2193 22.7898 15.4793 23.2498L15.3793 23.0298C14.6593 21.4298 12.8793 20.6398 11.1993 21.0798L11.0693 20.7798C10.7293 20.0298 10.1493 19.4698 9.45928 19.1098L9.52928 19.0098C9.90928 18.4698 10.5393 18.1398 11.1993 18.1398H13.4993C14.0793 18.1398 14.6193 18.4298 14.9493 18.8998L16.5593 21.2498C16.7493 21.5298 17.0693 21.6898 17.3893 21.6898C17.5793 21.6898 17.7793 21.6298 17.9493 21.5198C18.4093 21.2098 18.5193 20.5898 18.2093 20.1298L16.5993 17.7798C15.8993 16.7598 14.7393 16.1398 13.4993 16.1398H12.4493C12.7993 15.8698 13.2293 15.7198 13.6893 15.7198H16.7993C17.2193 15.7198 17.6093 15.9098 17.8693 16.2298L20.7893 19.8298C20.9893 20.0698 21.2793 20.1998 21.5693 20.1998C21.7893 20.1998 22.0093 20.1298 22.1993 19.9798C22.6293 19.6298 22.6893 18.9998 22.3493 18.5698L19.4293 14.9698C18.8593 14.2698 18.0593 13.8598 17.1793 13.7598C17.3693 13.6498 17.5793 13.5798 17.7993 13.5798H20.4493C20.7593 13.5798 21.0493 13.7098 21.2593 13.9398L24.7393 17.8198C24.9393 18.0398 25.2093 18.1498 25.4793 18.1498C25.7193 18.1498 25.9593 18.0698 26.1493 17.8898C26.5593 17.5198 26.5993 16.8898 26.2293 16.4798L22.7493 12.5998C22.3593 12.1698 21.8593 11.8698 21.3093 11.7098H23.4993C23.8693 11.7098 24.2293 11.8098 24.5393 12.0098L29.2593 14.9898C29.4293 15.0898 29.6093 15.1398 29.7893 15.1398C30.1193 15.1398 30.4493 14.9798 30.6393 14.6698C30.9293 14.1998 30.7993 13.5898 30.3293 13.2898L28.9793 12.4398C28.9593 12.3898 28.9493 12.3298 28.9193 12.2898L26.0293 8.03977C25.6493 7.44977 25.4393 6.87977 25.3993 6.33977C25.3493 5.57977 25.9393 5.27977 26.1193 5.19977C26.5093 5.03977 27.0893 5.02977 27.5093 5.51977L31.4193 10.0198L34.6093 17.9798C35.1293 18.9998 35.7793 19.8798 36.5693 20.6498L43.1693 27.0898C43.3593 27.2798 43.6193 27.3698 43.8693 27.3698C44.1193 27.3698 44.3893 27.2698 44.5893 27.0698C44.9793 26.6698 44.9693 26.0398 44.5693 25.6598V25.6898ZM8.56928 26.9698C8.17928 26.8298 7.86928 26.5398 7.69928 26.1698L6.24928 22.9398C6.07928 22.5698 6.07928 22.1498 6.23928 21.7598C6.39928 21.3598 6.70928 21.0398 7.11928 20.8598C7.94928 20.4898 8.90928 20.8198 9.24928 21.5998L9.46928 22.0898C9.13928 22.4298 8.87928 22.8298 8.69928 23.2698C8.33928 24.1698 8.34928 25.1398 8.73928 26.0098L9.20928 27.0698C8.98928 27.0798 8.76928 27.0498 8.55928 26.9798L8.56928 26.9698ZM30.1893 42.0998C28.2393 41.5198 26.0793 41.7698 24.2993 42.8198L23.3293 43.4098L23.8693 33.0798C23.8893 32.7798 23.7693 32.4898 23.5393 32.2898L21.5493 30.4798C21.6293 29.9398 21.5693 29.3998 21.3993 28.8798L26.6593 32.7498C28.4893 34.0998 29.6593 36.1698 29.8593 38.4398L30.1893 42.0998ZM16.4693 25.1198C17.1193 25.1198 17.7193 25.4598 17.9793 26.0498L19.4693 29.3798C19.6393 29.7698 19.6493 30.1998 19.4693 30.6098C19.2893 31.0398 18.9593 31.3798 18.5193 31.5798C17.6293 31.9798 16.6093 31.6298 16.2393 30.8198L14.7493 27.4898C14.5793 27.0998 14.5693 26.6698 14.7493 26.2598C14.9293 25.8298 15.2593 25.4898 15.6993 25.2898C15.9493 25.1798 16.2093 25.1198 16.4693 25.1198ZM13.5693 23.8498L13.7393 24.2398C13.3793 24.5898 13.0893 25.0098 12.8893 25.4898C12.5093 26.4098 12.5193 27.4098 12.9193 28.2998L13.3693 29.3098C13.1993 29.3098 13.0393 29.2798 12.8793 29.2198C12.4793 29.0798 12.1793 28.7898 12.0093 28.4198L10.5593 25.1898C10.3893 24.8198 10.3893 24.3998 10.5493 24.0098C10.7093 23.6098 11.0193 23.2898 11.4293 23.1098C12.2593 22.7398 13.2193 23.0698 13.5593 23.8498H13.5693Z" fill="#323232"/>
<path d="M6.19905 18.1396C6.19905 18.1396 6.25905 18.1396 6.28905 18.1396C6.79905 18.1396 7.23905 17.7496 7.28905 17.2296L7.52905 14.5396C7.65905 13.2496 8.69905 12.2496 9.98905 12.1596L12.3291 11.9996C12.5291 11.9896 12.7191 11.9096 12.8691 11.7896L18.9891 7.0296L21.7491 8.9496C22.1991 9.2696 22.8291 9.1496 23.139 8.6996C23.449 8.2496 23.3391 7.6196 22.889 7.3096L19.5191 4.9796C19.1591 4.7296 18.6791 4.7396 18.3391 5.0096L11.8791 10.0296L9.84905 10.1696C7.57905 10.3296 5.76905 12.0796 5.53905 14.3596L5.29905 17.0596C5.24905 17.6096 5.65905 18.0996 6.20905 18.1396H6.19905Z" fill="#323232"/>
</svg>
