<svg width="70" height="70" viewBox="0 0 70 70" fill="none" xmlns="http://www.w3.org/2000/svg">
<g clip-path="url(#clip0_15605_1795)">
<path d="M34.9794 0C15.679 0 0 15.679 0 34.9794C0 54.2798 15.679 69.9588 34.9794 69.9588C54.2798 69.9588 69.9588 54.2798 69.9588 34.9794C69.9588 15.679 54.2798 0 34.9794 0ZM56.7901 53.7449C56.7078 53.8272 56.6667 53.8272 56.6255 53.8272C56.5844 53.8272 56.5432 53.8272 56.5021 53.8272C50.2469 48.8066 43.0453 45.7613 35.6379 44.5679C35.1029 44.4856 34.6914 44.0741 34.6091 43.4979C33.0453 28.8477 19.7119 32.1811 13.2099 16.5021C13.2099 16.3786 13.2099 16.2963 13.3333 16.214C13.4568 16.1317 13.5391 16.214 13.6214 16.2963C21.893 29.2593 27.4897 21.893 39.6296 33.0453L39.7942 33.1687C41.4815 34.6914 42.5926 33.2922 42.0576 32.3868C41.5638 31.5638 41.6049 31.1111 41.6461 30.9877C44.1152 31.6872 46.3374 32.8807 48.2304 34.5267L48.0658 34.856C47.1193 36.7078 37.9424 35.9259 37.8189 39.7942C37.8189 40.8642 38.4362 41.7695 39.3827 42.1399L41.1934 42.8807C47.1193 45.2263 52.428 48.93 56.7901 53.4568C56.8724 53.5391 56.8724 53.6626 56.7901 53.7449Z" fill="white"/>
</g>
<defs>
<clipPath id="clip0_15605_1795">
<rect width="70" height="70" fill="white"/>
</clipPath>
</defs>
</svg>
