<svg width="24" height="24" viewBox="0 0 24 24" fill="none" xmlns="http://www.w3.org/2000/svg">
<g clip-path="url(#clip0_16335_4655)">
<path d="M20.4851 20.4853C25.1714 15.799 25.1714 8.20101 20.4851 3.51472C15.7988 -1.17157 8.20081 -1.17157 3.51452 3.51472C-1.17177 8.20101 -1.17177 15.799 3.51452 20.4853C8.20081 25.1716 15.7988 25.1716 20.4851 20.4853Z" fill="white"/>
<mask id="mask0_16335_4655" style="mask-type:luminance" maskUnits="userSpaceOnUse" x="-1" y="0" width="25" height="24">
<path d="M20.4851 20.4853C25.1714 15.799 25.1714 8.20101 20.4851 3.51472C15.7988 -1.17157 8.20081 -1.17157 3.51452 3.51472C-1.17177 8.20101 -1.17177 15.799 3.51452 20.4853C8.20081 25.1716 15.7988 25.1716 20.4851 20.4853Z" fill="white"/>
</mask>
<g mask="url(#mask0_16335_4655)">
<path d="M29.9979 0H-6.00208V24H29.9979V0Z" fill="#00ADFE"/>
<path fill-rule="evenodd" clip-rule="evenodd" d="M9.62713 4.64795C13.6868 4.64795 16.9792 7.94037 16.9792 12C16.9792 16.0596 13.6868 19.352 9.62713 19.352C5.5675 19.352 2.27509 16.0596 2.27509 12C2.27509 7.94037 5.5675 4.64795 9.62713 4.64795Z" fill="#FED700"/>
</g>
</g>
<rect x="0.25" y="0.25" width="23.5" height="23.5" rx="11.75" stroke="#E5E3E1" stroke-width="0.5"/>
<defs>
<clipPath id="clip0_16335_4655">
<rect width="24" height="24" rx="12" fill="white"/>
</clipPath>
</defs>
</svg>
