<svg width="48" height="48" viewBox="0 0 48 48" fill="none" xmlns="http://www.w3.org/2000/svg">
<path d="M9.33047 29.91C12.9755 29.91 15.9305 26.955 15.9305 23.31C15.9305 19.6649 12.9755 16.71 9.33047 16.71C5.68539 16.71 2.73047 19.6649 2.73047 23.31C2.73047 26.955 5.68539 29.91 9.33047 29.91Z" fill="#DF0000"/>
<path d="M6.41992 45.1001C10.0999 41.3601 15.7699 37.6401 21.0099 37.6401C29.8499 37.6401 35.5999 45.1001 35.5999 45.1001H6.41992Z" fill="#8DE2E0"/>
<path d="M46.2101 15.5902C44.6401 10.1402 39.2701 8.76021 36.7201 8.41021C37.1501 7.16021 37.8301 5.18021 38.3101 3.65021C38.4201 3.31021 38.3401 2.94021 38.1001 2.67021C37.8601 2.41021 37.5001 2.29021 37.1501 2.37021C37.0001 2.40021 33.6101 3.18021 30.7701 6.13021C27.4301 4.18021 23.0401 4.48021 22.8401 4.49021C22.4501 4.52021 22.1201 4.77021 21.9801 5.13021C21.8401 5.49021 21.9301 5.90021 22.2001 6.18021L25.5601 9.64021C21.0401 10.5802 18.8401 13.7302 18.7301 13.8902C18.5201 14.2002 18.5001 14.5902 18.6701 14.9202C18.8401 15.2502 19.1801 15.4502 19.5501 15.4502C21.6701 15.4502 23.5701 15.4802 24.8701 15.5102C22.1701 20.1402 22.7801 24.6002 22.8101 24.8102C22.8701 25.2002 23.1401 25.5202 23.5201 25.6302C23.6101 25.6602 23.7101 25.6702 23.8001 25.6702C24.0901 25.6702 24.3701 25.5502 24.5601 25.3202L29.4301 19.6302C29.7901 19.2102 29.7401 18.5802 29.3201 18.2202C28.9001 17.8602 28.2701 17.9102 27.9101 18.3302L24.8301 21.9302C25.0401 20.1102 25.6901 17.5802 27.5001 15.1602C27.7201 14.8602 27.7601 14.4602 27.6001 14.1302C27.4401 13.7902 27.1001 13.5702 26.7301 13.5602C26.7001 13.5602 24.7101 13.4902 21.9101 13.4702C23.1101 12.5302 25.0201 11.5002 27.7001 11.4002C28.0901 11.3902 28.4401 11.1402 28.5901 10.7702C28.7401 10.4002 28.6601 9.99021 28.3801 9.70021L25.3401 6.56021C26.8801 6.72021 28.8601 7.15021 30.3401 8.24021C30.7701 8.55021 31.3601 8.48021 31.7001 8.08021C33.0201 6.51021 34.5901 5.55021 35.7701 4.99021C35.1101 6.97021 34.4201 8.93021 34.4101 8.96021C34.3001 9.26021 34.3501 9.60021 34.5301 9.86021C34.7101 10.1202 35.0101 10.2802 35.3301 10.2902C35.5901 10.2902 40.7701 10.4402 43.2801 14.0202C41.1801 13.2802 38.1401 12.4302 36.0001 12.7402C35.6301 12.7902 35.3201 13.0502 35.2001 13.4102C35.0801 13.7702 35.1701 14.1602 35.4401 14.4302C35.4701 14.4602 38.1401 17.2002 39.0301 20.6302L31.9201 13.7402C31.9201 13.7402 31.8801 13.7202 31.8701 13.7102C31.8101 13.6602 31.7501 13.6202 31.6801 13.5902C31.6301 13.5702 31.5901 13.5402 31.5401 13.5202C31.4701 13.5002 31.4001 13.4902 31.3301 13.4802C31.2701 13.4802 31.2101 13.4702 31.1501 13.4802C31.1201 13.4802 31.1001 13.4802 31.0701 13.4802C31.0301 13.4802 30.9901 13.5102 30.9501 13.5302C30.8901 13.5502 30.8401 13.5602 30.7801 13.5902C30.7101 13.6202 30.6501 13.6702 30.6001 13.7202C30.5701 13.7402 30.5401 13.7502 30.5101 13.7802C30.5001 13.8002 30.4901 13.8202 30.4801 13.8302C30.4301 13.8902 30.4001 13.9502 30.3601 14.0202C30.3301 14.0702 30.3101 14.1202 30.2901 14.1702C30.2701 14.2302 30.2601 14.2902 30.2601 14.3602C30.2601 14.4302 30.2501 14.4902 30.2601 14.5602C30.2601 14.5802 30.2601 14.6002 30.2601 14.6302C31.7501 24.1102 30.4101 31.5802 26.1801 37.4602C24.6101 36.9702 22.9001 36.6602 21.0401 36.6602C15.3901 36.6602 9.43006 40.6702 5.74006 44.4202C5.46006 44.7102 5.37006 45.1402 5.53006 45.5102C5.69006 45.8802 6.05006 46.1202 6.45006 46.1202H35.6301C36.0101 46.1202 36.3601 45.9002 36.5301 45.5602C36.7001 45.2202 36.6601 44.8102 36.4201 44.5102C36.2401 44.2802 33.1901 40.4102 28.1201 38.1902C32.0001 32.5602 33.4701 25.6602 32.6001 17.1902L39.6201 23.9902C39.9001 24.2602 40.3101 24.3502 40.6801 24.2002C41.0401 24.0602 41.2901 23.7202 41.3201 23.3302C41.5401 19.8502 39.7301 16.6702 38.3501 14.7902C40.7501 15.1402 43.6901 16.2602 44.8801 16.7902C45.2301 16.9502 45.6501 16.8902 45.9401 16.6302C46.2301 16.3702 46.3501 15.9702 46.2401 15.6002L46.2101 15.5902ZM8.95006 44.1002C12.3001 41.2302 16.7901 38.6402 21.0001 38.6402C26.7101 38.6402 31.1201 42.0102 33.2901 44.1002H8.95006Z" fill="#323232"/>
</svg>
