<svg width="48" height="48" viewBox="0 0 48 48" fill="none" xmlns="http://www.w3.org/2000/svg">
<path d="M41.5226 7.92013L26.2109 17.1531L31.509 25.9393L46.8207 16.7064L41.5226 7.92013Z" fill="#8DE2E0"/>
<path d="M6.47739 41.0271L21.7891 31.7942L16.491 23.008L1.17929 32.2409L6.47739 41.0271Z" fill="#8DE2E0"/>
<path d="M45.0309 11.7899C44.7409 11.3199 44.1309 11.1599 43.6609 11.4499L25.9509 22.1299L24.7009 20.0599C24.4109 19.5899 23.8009 19.4299 23.3309 19.7199L20.1409 21.6399C19.9109 21.7799 19.7509 21.9999 19.6909 22.2599C19.6309 22.5199 19.6709 22.7899 19.8009 23.0199L21.0509 25.0899L3.31088 35.7799C2.84088 36.0699 2.69088 36.6799 2.97088 37.1499C3.16088 37.4599 3.49088 37.6299 3.83088 37.6299C4.01088 37.6299 4.18088 37.5799 4.35088 37.4899L22.0809 26.7999L23.3309 28.8699C23.5209 29.1799 23.8509 29.3499 24.1909 29.3499C24.3709 29.3499 24.5409 29.2999 24.7109 29.2099L27.9009 27.2899C28.1309 27.1499 28.2909 26.9299 28.3509 26.6699C28.4109 26.4099 28.3709 26.1399 28.2409 25.9099L26.9909 23.8399L44.7009 13.1599C45.1709 12.8699 45.3209 12.2599 45.0409 11.7899H45.0309ZM24.5209 26.9799L22.0209 22.8299L23.5009 21.9399L26.0009 26.0899L24.5209 26.9799Z" fill="#323232"/>
</svg>
