<svg width="48" height="48" viewBox="0 0 48 48" fill="none" xmlns="http://www.w3.org/2000/svg">
<path d="M15.3203 29.46H21.7603C22.4403 29.46 22.9903 28.91 22.9903 28.23V21.79L15.3203 29.46Z" fill="#8DE2E0"/>
<path d="M40.4793 16.22V14.96C40.4793 14.41 40.0293 13.96 39.4793 13.96H34.8093C33.0793 13.96 31.6693 15.37 31.6693 17.1V17.46H28.9093C27.5793 17.46 26.4893 18.54 26.4893 19.88V26.05C26.4893 27.38 27.5693 28.46 28.8993 28.46H31.6693V28.82C31.6693 30.55 33.0793 31.96 34.8093 31.96H39.4793C40.0293 31.96 40.4793 31.51 40.4793 30.96V29.83C42.1493 30.73 42.7693 32.12 42.9693 33.23C43.0593 33.71 43.4693 34.05 43.9493 34.05H44.1093C44.6593 34.05 45.1093 33.6 45.1093 33.05V22.47C45.1093 19.84 43.3493 16.88 40.4693 16.24L40.4793 16.22ZM28.9093 26.45C28.6793 26.45 28.4993 26.27 28.4993 26.04V19.87C28.4993 19.64 28.6893 19.45 28.9193 19.45H31.6793V21.95H30.1693C29.6193 21.95 29.1693 22.4 29.1693 22.95C29.1693 23.5 29.6193 23.95 30.1693 23.95H31.6793V26.45H28.9093ZM38.4793 29.94H34.8093C34.1793 29.94 33.6693 29.43 33.6693 28.8V17.1C33.6693 16.47 34.1793 15.96 34.8093 15.96H38.4793V29.94ZM43.1193 29.28C42.4793 28.63 41.6093 28.05 40.4793 27.61V18.32C42.0693 18.94 43.1193 20.81 43.1193 22.45V29.28Z" fill="#323232"/>
<path d="M21.9796 14.8899H10.9896C10.0696 14.8899 9.26965 15.3799 8.81965 16.1099C7.50965 16.0699 6.28965 16.4999 5.23965 17.3799C3.80965 18.5899 2.88965 20.5799 2.88965 22.4599V33.0399C2.88965 33.5899 3.33965 34.0399 3.88965 34.0399H4.04965C4.52965 34.0399 4.94965 33.6899 5.02965 33.2199C5.26965 31.8699 6.10965 30.1699 8.58965 29.3599C8.95965 30.3299 9.88965 31.0199 10.9796 31.0199H21.9696C23.3896 31.0199 24.5396 29.8699 24.5396 28.4499V17.4599C24.5396 16.0399 23.3896 14.8899 21.9696 14.8899H21.9796ZM4.86965 29.2999V22.4499C4.86965 21.1599 5.52965 19.7299 6.50965 18.8999C7.07965 18.4199 7.71965 18.1599 8.39965 18.1099V27.3199C6.96965 27.7199 5.75965 28.3799 4.85965 29.2999H4.86965ZM22.5396 28.4499C22.5396 28.7599 22.2896 29.0199 21.9696 29.0199H10.9796C10.6696 29.0199 10.4096 28.7699 10.4096 28.4499V17.4599C10.4096 17.1499 10.6596 16.8899 10.9796 16.8899H21.9696C22.2796 16.8899 22.5396 17.1399 22.5396 17.4599V28.4499Z" fill="#323232"/>
</svg>
