<svg width="24" height="24" viewBox="0 0 24 24" fill="none" xmlns="http://www.w3.org/2000/svg">
<g clip-path="url(#clip0_16335_2453)">
<path d="M20.4851 20.4853C25.1714 15.799 25.1714 8.20101 20.4851 3.51472C15.7988 -1.17157 8.20081 -1.17157 3.51452 3.51472C-1.17177 8.20101 -1.17177 15.799 3.51452 20.4853C8.20081 25.1716 15.7988 25.1716 20.4851 20.4853Z" fill="white"/>
<mask id="mask0_16335_2453" style="mask-type:luminance" maskUnits="userSpaceOnUse" x="-1" y="0" width="25" height="24">
<path d="M20.4851 20.4853C25.1714 15.799 25.1714 8.20101 20.4851 3.51472C15.7988 -1.17157 8.20081 -1.17157 3.51452 3.51472C-1.17177 8.20101 -1.17177 15.799 3.51452 20.4853C8.20081 25.1716 15.7988 25.1716 20.4851 20.4853Z" fill="white"/>
</mask>
<g mask="url(#mask0_16335_2453)">
<path d="M29.9979 0H-6.00208V24H29.9979V0Z" fill="#FF0000"/>
<path fill-rule="evenodd" clip-rule="evenodd" d="M11.9986 5.8999C15.3679 5.8999 18.0985 8.63054 18.0985 11.9998C18.0985 15.3691 15.3679 18.0997 11.9986 18.0997C8.62932 18.0997 5.89868 15.3691 5.89868 11.9998C5.89868 8.63054 8.62932 5.8999 11.9986 5.8999ZM11.9986 7.52515C9.52649 7.52515 7.52393 9.52911 7.52393 11.9998C7.52393 14.4705 9.52789 16.4745 11.9986 16.4745C13.4771 16.4745 14.7879 15.7576 15.6027 14.6508C14.9682 15.2266 14.1255 15.5773 13.2004 15.5773C11.2244 15.5773 9.62292 13.9758 9.62292 11.9998C9.62292 10.0238 11.2244 8.42232 13.2004 8.42232C14.1241 8.42232 14.9668 8.77308 15.6027 9.34884C14.7879 8.24344 13.4771 7.52515 11.9986 7.52515ZM10.5145 12.025L12.3773 12.6161L12.3885 14.5725L13.526 12.9794L15.3902 13.5762L14.2303 11.9998L15.3707 10.4137L13.5148 11.0286L12.3563 9.45365L12.3689 11.4087L10.5131 12.0236L10.5145 12.025Z" fill="white"/>
</g>
</g>
<rect x="0.25" y="0.25" width="23.5" height="23.5" rx="11.75" stroke="#E5E3E1" stroke-width="0.5"/>
<defs>
<clipPath id="clip0_16335_2453">
<rect width="24" height="24" rx="12" fill="white"/>
</clipPath>
</defs>
</svg>
