<svg width="48" height="48" viewBox="0 0 48 48" fill="none" xmlns="http://www.w3.org/2000/svg">
<path fill-rule="evenodd" clip-rule="evenodd" d="M27.9191 26.1699C28.6591 26.1799 29.2091 26.5399 29.5691 27.2499C29.9191 27.9599 31.3291 30.6899 33.7891 35.4399C33.8091 36.1199 33.4591 36.4599 32.7391 36.4599H15.0491C14.2791 36.2599 13.8291 35.8499 13.6891 35.2299C13.5591 34.6099 13.1091 32.2099 12.3391 28.0199C12.2791 27.2999 12.5991 26.9299 13.2891 26.9299L27.9291 26.1699H27.9191Z" fill="#8DE2E0"/>
<path d="M36.271 29.5999L32.091 29.9699C31.211 28.2699 30.661 27.1899 30.461 26.7999C29.941 25.7699 29.051 25.1899 27.931 25.1699C27.911 25.1699 27.891 25.1699 27.861 25.1699L21.761 25.4899C16.731 18.3799 13.971 14.4899 13.571 13.9499C13.441 13.7799 13.431 13.6999 13.521 13.5499C14.521 12.6799 15.241 12.0599 15.691 11.6899C16.181 11.2799 16.751 10.5199 16.671 9.2399C16.671 9.1999 16.671 9.1699 16.661 9.1299C16.371 7.4799 16.161 6.3999 16.021 5.8199C15.791 4.8499 15.141 4.2399 14.231 4.1499C14.201 4.1499 14.161 4.1499 14.131 4.1499H8.69096C7.97096 4.1499 7.54096 4.4599 7.31096 4.7199C6.95096 5.1299 6.81096 5.6899 6.89096 6.3699L7.69096 15.6799C7.69096 15.7699 7.72096 15.8599 7.75096 15.9499L11.751 26.5899C11.431 26.9799 11.281 27.4799 11.331 28.1099C11.331 28.1399 11.331 28.1799 11.341 28.2099C12.131 32.5299 12.561 34.8299 12.701 35.4499C12.771 35.7899 12.961 36.2799 13.411 36.7099L12.061 44.4699C12.011 44.7599 12.091 45.0599 12.281 45.2899C12.471 45.5199 12.751 45.6499 13.051 45.6499H31.101C31.651 45.6499 32.101 45.1999 32.101 44.6499V37.4799H32.731C33.381 37.4799 33.891 37.2899 34.261 36.9099C34.481 36.6799 34.731 36.2599 34.771 35.6199H36.451C38.301 35.4499 39.341 34.2499 39.221 32.3999C39.161 31.4199 38.841 30.6799 38.291 30.1999C37.781 29.7499 37.101 29.5599 36.281 29.6199L36.271 29.5999ZM8.89096 6.1599H14.031C14.031 6.1599 14.061 6.2299 14.081 6.3099C14.211 6.8299 14.411 7.8799 14.681 9.4299C14.701 9.8699 14.561 10.0499 14.411 10.1699C13.951 10.5599 13.191 11.2099 12.121 12.1299C12.061 12.1799 12.011 12.2299 11.971 12.2899C11.301 13.1999 11.301 14.2399 11.971 15.1399C12.231 15.4899 13.761 17.6299 19.411 25.6099L13.651 25.9099L9.69096 15.3599L8.90096 6.1599H8.89096ZM30.101 43.6199H14.241L15.321 37.4499H30.101V43.6199ZM15.191 35.4599C14.731 35.3099 14.691 35.1199 14.671 35.0199C14.541 34.4299 14.111 32.1099 13.341 27.9399L27.941 27.1799C28.231 27.1899 28.471 27.2899 28.681 27.6999C29.021 28.3899 30.351 30.9699 32.681 35.4599H15.191ZM36.361 33.5999H33.961C33.651 32.9899 33.351 32.4199 33.081 31.8899L36.431 31.5899C36.611 31.5799 36.851 31.5899 36.961 31.6899C37.091 31.8099 37.181 32.1099 37.211 32.5099C37.261 33.2899 37.051 33.5399 36.351 33.5999H36.361Z" fill="#323232"/>
<path d="M31.5905 21.4399C36.8505 21.4399 41.1205 17.1599 41.1205 11.9099C41.1205 6.65988 36.8405 2.37988 31.5905 2.37988C26.3405 2.37988 22.0605 6.65988 22.0605 11.9099C22.0605 17.1599 26.3405 21.4399 31.5905 21.4399ZM31.5905 4.37988C35.7405 4.37988 39.1205 7.75988 39.1205 11.9099C39.1205 16.0599 35.7405 19.4399 31.5905 19.4399C27.4405 19.4399 24.0605 16.0599 24.0605 11.9099C24.0605 7.75988 27.4405 4.37988 31.5905 4.37988Z" fill="#323232"/>
<path d="M30.5609 16.08C30.3409 16.08 30.1309 16.01 29.9509 15.87L26.8809 13.52C26.4409 13.19 26.3609 12.56 26.6909 12.12C27.0209 11.68 27.6509 11.6 28.0909 11.93L30.3709 13.67L34.3309 8.47999C34.6609 8.03999 35.2909 7.95999 35.7309 8.28999C36.1709 8.61999 36.2509 9.24999 35.9209 9.68999L31.3509 15.68C31.1909 15.89 30.9509 16.03 30.6909 16.06C30.6509 16.06 30.6009 16.06 30.5609 16.06V16.08Z" fill="#DF0000"/>
</svg>
