<svg width="48" height="48" viewBox="0 0 48 48" fill="none" xmlns="http://www.w3.org/2000/svg">
<path d="M2.79905 44.7196C2.52905 44.7196 2.25905 44.6096 2.06905 44.3996C1.68905 43.9996 1.71905 43.3596 2.11905 42.9896L15.069 30.9196C15.469 30.5396 16.109 30.5696 16.479 30.9696C16.859 31.3696 16.8291 32.0096 16.4291 32.3796L3.47905 44.4496C3.28905 44.6296 3.03905 44.7196 2.79905 44.7196Z" fill="#DF0000"/>
<path d="M23.9998 30.4196C27.9542 30.4196 31.1598 27.214 31.1598 23.2596C31.1598 19.3053 27.9542 16.0996 23.9998 16.0996C20.0455 16.0996 16.8398 19.3053 16.8398 23.2596C16.8398 27.214 20.0455 30.4196 23.9998 30.4196Z" fill="#8DE2E0"/>
<path d="M24.0202 27.1197H23.9902C23.4402 27.1197 22.9902 26.6597 23.0002 26.1097C23.0102 25.5597 23.4402 25.1397 24.0102 25.1197C24.3302 25.1197 24.6702 25.0397 24.9602 24.8697C25.8502 24.3597 26.1602 23.2097 25.6402 22.3197C25.3602 21.8397 25.5302 21.2297 26.0102 20.9497C26.4902 20.6697 27.1002 20.8397 27.3802 21.3197C28.4502 23.1697 27.8102 25.5297 25.9602 26.5997C25.3702 26.9397 24.7102 27.1197 24.0302 27.1197H24.0202Z" fill="#323232"/>
<path d="M23.9998 25.2495C25.0988 25.2495 25.9898 24.3586 25.9898 23.2595C25.9898 22.1605 25.0988 21.2695 23.9998 21.2695C22.9007 21.2695 22.0098 22.1605 22.0098 23.2595C22.0098 24.3586 22.9007 25.2495 23.9998 25.2495Z" fill="white"/>
<path d="M36.2492 13.9299L45.8892 4.94995C46.2892 4.56995 46.3192 3.93995 45.9392 3.53995C45.5592 3.13995 44.9292 3.10995 44.5292 3.48995L34.4492 12.8799C35.0692 13.2099 35.6692 13.5699 36.2492 13.9299Z" fill="#DF0000"/>
<path d="M23.9991 37.1498C21.8291 37.1498 19.6291 36.7798 17.4491 36.0398C16.9291 35.8598 16.6491 35.2998 16.8191 34.7698C16.9891 34.2398 17.5691 33.9598 18.0891 34.1398C20.0591 34.8098 22.0491 35.1398 23.9991 35.1398C34.1591 35.1398 41.9891 26.0098 43.8791 23.6098C41.9891 21.1998 34.1591 12.0798 23.9991 12.0798C13.8391 12.0798 6.00914 21.2098 4.11914 23.6198C5.09914 24.8698 7.67914 27.9498 11.3391 30.5898C11.7891 30.9098 11.8891 31.5398 11.5691 31.9898C11.2491 32.4398 10.6191 32.5398 10.1691 32.2198C5.17914 28.6198 2.16914 24.3798 2.04914 24.1998C1.80914 23.8498 1.80914 23.3898 2.04914 23.0498C2.41914 22.5198 11.3091 10.0898 23.9991 10.0898C36.6891 10.0898 45.5791 22.5198 45.9491 23.0498C46.1891 23.3998 46.1891 23.8598 45.9491 24.1998C45.5791 24.7298 36.6891 37.1598 23.9991 37.1598V37.1498Z" fill="#323232"/>
</svg>
