<svg width="48" height="48" viewBox="0 0 48 48" fill="none" xmlns="http://www.w3.org/2000/svg">
<path d="M24 46.2197C11.73 46.2197 1.75 36.2397 1.75 23.9697C1.75 11.6997 11.73 1.71973 24 1.71973C36.27 1.71973 46.25 11.6997 46.25 23.9697C46.25 36.2397 36.27 46.2197 24 46.2197ZM24 3.71973C12.83 3.71973 3.75 12.8097 3.75 23.9697C3.75 35.1297 12.83 44.2197 24 44.2197C35.17 44.2197 44.25 35.1397 44.25 23.9697C44.25 12.7997 35.17 3.71973 24 3.71973Z" fill="#323232"/>
<path d="M19.25 13.9199H25.99V29.4499H29.28V32.5399H19.25V29.4499H22.48V17.0699H19.25V13.9199Z" fill="#DF0000"/>
<path d="M24.3992 5.91039C24.1892 5.91039 24.0192 6.06039 23.9792 6.26039C23.9492 6.46039 24.0692 6.66039 24.2692 6.72039C24.3392 6.74039 31.4392 9.05039 35.6792 14.1104C40.0292 19.3104 41.0992 25.4204 41.1092 25.4804C41.1392 25.6804 41.3192 25.8304 41.5192 25.8304C41.7192 25.8304 41.8992 25.6904 41.9292 25.4904C42.0692 24.7504 42.1392 23.9304 42.1392 23.0504C42.1392 13.6004 34.1792 5.90039 24.3892 5.90039L24.3992 5.91039Z" fill="#8DE2E0"/>
</svg>
