<svg width="48" height="48" viewBox="0 0 48 48" fill="none" xmlns="http://www.w3.org/2000/svg">
<path d="M27.3304 19.9399H10.6504V39.1999H27.3304V19.9399Z" fill="#8DE2E0"/>
<path d="M39.8192 42.25H38.1792V15.38H39.8192C40.3692 15.38 40.8192 14.93 40.8192 14.38C40.8192 13.83 40.3692 13.38 39.8192 13.38H34.2492V10.77C34.2492 6.9 31.0892 3.75 27.2192 3.75H20.7992C16.9192 3.75 13.7692 6.9 13.7692 10.77V13.38H8.19922C7.64922 13.38 7.19922 13.83 7.19922 14.38C7.19922 14.93 7.64922 15.38 8.19922 15.38H9.66922V42.25H8.19922C7.64922 42.25 7.19922 42.7 7.19922 43.25C7.19922 43.8 7.64922 44.25 8.19922 44.25H10.6592C10.6592 44.25 10.6592 44.25 10.6692 44.25H37.1992C37.1992 44.25 37.1992 44.25 37.2092 44.25H39.8392C40.3892 44.25 40.8392 43.8 40.8392 43.25C40.8392 42.7 40.3892 42.25 39.8392 42.25H39.8192ZM15.7492 10.77C15.7492 8 18.0092 5.75 20.7792 5.75H27.1992C29.9792 5.75 32.2292 8 32.2292 10.77V13.38H15.7492V10.77ZM11.6492 20.94H26.3392V38.2H11.6492V20.94ZM11.6492 40.2H27.3392C27.8892 40.2 28.3392 39.75 28.3392 39.2V19.94C28.3392 19.39 27.8892 18.94 27.3392 18.94H11.6492V15.39H36.1792V42.25H11.6492V40.2Z" fill="#323232"/>
<path d="M32.4905 21.9199C33.7386 21.9199 34.7505 20.9081 34.7505 19.6599C34.7505 18.4117 33.7386 17.3999 32.4905 17.3999C31.2423 17.3999 30.2305 18.4117 30.2305 19.6599C30.2305 20.9081 31.2423 21.9199 32.4905 21.9199Z" fill="#DF0000"/>
</svg>
