<svg width="48" height="48" viewBox="0 0 48 48" fill="none" xmlns="http://www.w3.org/2000/svg">
<path d="M24 20.0701C23.45 20.0701 23 19.6201 23 19.0701V14.8401C23 14.2901 23.45 13.8401 24 13.8401C24.55 13.8401 25 14.2901 25 14.8401V19.0701C25 19.6201 24.55 20.0701 24 20.0701Z" fill="#DF0000"/>
<path d="M12.3796 27.52C13.1696 28.86 12.7196 30.59 11.3796 31.37C10.0396 32.16 8.30965 31.71 7.52965 30.37C7.00965 29.49 7.00965 28.4 7.52965 27.52M40.5496 27.52C41.3396 28.86 40.8896 30.59 39.5496 31.37C38.2096 32.16 36.4797 31.71 35.6996 30.37C35.1796 29.49 35.1796 28.4 35.6996 27.52" fill="#8DE2E0"/>
<path d="M25.4098 23.7H22.5898C22.0398 23.7 21.5898 24.15 21.5898 24.7C21.5898 25.25 22.0398 25.7 22.5898 25.7H25.4098C25.9598 25.7 26.4098 25.25 26.4098 24.7C26.4098 24.15 25.9598 23.7 25.4098 23.7Z" fill="#323232"/>
<path d="M45.1201 26.5201H30.6101C30.6101 26.3801 30.6301 26.2501 30.6301 26.1101C30.6301 24.9601 30.4301 23.8701 30.0701 22.8901H35.2601C35.8101 22.8901 36.2601 22.4401 36.2601 21.8901C36.2601 21.3401 35.8101 20.8901 35.2601 20.8901H29.0301C27.8101 19.1701 26.0101 18.0701 24.0001 18.0701C21.9901 18.0701 20.1901 19.1701 18.9701 20.8901H12.7401C12.1901 20.8901 11.7401 21.3401 11.7401 21.8901C11.7401 22.4401 12.1901 22.8901 12.7401 22.8901H17.9301C17.5701 23.8801 17.3701 24.9701 17.3701 26.1101C17.3701 26.2501 17.3801 26.3801 17.3901 26.5201H2.87012C2.32012 26.5201 1.87012 26.9701 1.87012 27.5201C1.87012 28.0701 2.32012 28.5201 2.87012 28.5201H6.16012C6.07012 29.3301 6.23012 30.1501 6.66012 30.8801C7.18012 31.7601 8.00012 32.3901 8.99012 32.6401C9.31012 32.7201 9.64012 32.7601 9.96012 32.7601C10.6301 32.7601 11.2901 32.5801 11.8901 32.2301C13.2301 31.4401 13.9001 29.9601 13.7401 28.5101H17.6701C18.5201 31.7701 21.0301 34.1401 24.0001 34.1401C26.9701 34.1401 29.4801 31.7701 30.3301 28.5101H34.3301C34.2401 29.3201 34.4001 30.1401 34.8301 30.8701C35.5401 32.0801 36.8201 32.7501 38.1301 32.7501C38.7901 32.7501 39.4501 32.5801 40.0501 32.2301C40.9301 31.7101 41.5601 30.8901 41.8101 29.9001C41.9301 29.4401 41.9501 28.9701 41.9001 28.5101H45.1201C45.6701 28.5101 46.1201 28.0601 46.1201 27.5101C46.1201 26.9601 45.6701 26.5101 45.1201 26.5101V26.5201ZM10.8701 30.5101C10.0101 31.0201 8.89012 30.7301 8.38012 29.8601C8.14012 29.4501 8.08012 28.9701 8.19012 28.5201H11.7101C11.8901 29.2801 11.5801 30.1001 10.8701 30.5101ZM24.0001 32.1501C21.4501 32.1501 19.3701 29.4401 19.3701 26.1101C19.3701 22.7801 21.4501 20.0701 24.0001 20.0701C26.5501 20.0701 28.6301 22.7801 28.6301 26.1101C28.6301 29.4401 26.5501 32.1501 24.0001 32.1501ZM39.8801 29.4001C39.7601 29.8701 39.4601 30.2601 39.0401 30.5101C38.1801 31.0201 37.0601 30.7301 36.5501 29.8601C36.3101 29.4501 36.2501 28.9701 36.3601 28.5201H39.8801C39.9501 28.8101 39.9601 29.1101 39.8801 29.4001Z" fill="#323232"/>
</svg>
