<svg width="24" height="24" viewBox="0 0 24 24" fill="none" xmlns="http://www.w3.org/2000/svg">
<path fill-rule="evenodd" clip-rule="evenodd" d="M12.3537 19.1343C13.3958 20.8474 15.0605 20.8134 15.5029 20.8134H20.8571L14.5398 13.1436C11.6258 13.2645 10.0833 15.1331 10.3995 15.9171L12.3537 19.1343Z" fill="url(#paint0_linear_10470_4206)"/>
<path fill-rule="evenodd" clip-rule="evenodd" d="M10.3995 15.9171C10.3916 15.9034 10.2263 15.5173 10.2263 15.0495C10.2263 13.2985 11.7781 12.2956 13.5421 11.9329L14.5398 13.1436C11.6258 13.2645 10.0833 15.1331 10.3995 15.9171Z" fill="url(#paint1_linear_10470_4206)"/>
<path fill-rule="evenodd" clip-rule="evenodd" d="M12.8365 10.2251C10.1734 10.2251 8.1846 10.6635 8.1846 11.7062C8.1846 12.0891 8.30481 12.4223 8.63019 13.0084L10.3995 15.9171C10.3916 15.9034 10.2263 15.5173 10.2263 15.0495C10.2263 13.2985 11.7781 12.2956 13.5421 11.9329C14.0537 11.8271 14.5797 11.7781 15.0939 11.7781C15.5264 11.7781 15.9315 11.801 16.2438 11.914C16.0602 11.243 15.5728 10.2251 12.8365 10.2251Z" fill="url(#paint2_linear_10470_4206)"/>
<path fill-rule="evenodd" clip-rule="evenodd" d="M5.8299 8.41004C6.56231 9.61026 6.83345 9.91015 8.57661 9.91211H11.9074L7.31628 4.11291C6.30227 2.86042 5.71882 2.63044 4.78844 2.61084H2.2998L5.8299 8.41004Z" fill="url(#paint3_linear_10470_4206)"/>
<defs>
<linearGradient id="paint0_linear_10470_4206" x1="11.5787" y1="2.13264" x2="11.5787" y2="30.1803" gradientUnits="userSpaceOnUse">
<stop stop-color="#E30613"/>
<stop offset="0.1277" stop-color="#DF0813"/>
<stop offset="0.2732" stop-color="#D10E13"/>
<stop offset="0.4275" stop-color="#BC1312"/>
<stop offset="0.5879" stop-color="#9F1610"/>
<stop offset="0.7516" stop-color="#7D150C"/>
<stop offset="0.7546" stop-color="#7C150C"/>
</linearGradient>
<linearGradient id="paint1_linear_10470_4206" x1="2.30205" y1="11.7133" x2="20.8611" y2="11.7133" gradientUnits="userSpaceOnUse">
<stop stop-color="#6F251A"/>
<stop offset="0.1792" stop-color="#84281C"/>
<stop offset="0.5326" stop-color="#AC2B1E"/>
<stop offset="0.8188" stop-color="#C52B1E"/>
<stop offset="1" stop-color="#CF2B1E"/>
</linearGradient>
<linearGradient id="paint2_linear_10470_4206" x1="5.91378" y1="12.0708" x2="16.9145" y2="7.3107" gradientUnits="userSpaceOnUse">
<stop offset="0.1" stop-color="#F5F7FA"/>
<stop offset="0.3638" stop-color="#E1E6EB"/>
<stop offset="0.8932" stop-color="#B0BCC3"/>
<stop offset="1" stop-color="#A5B3BA"/>
</linearGradient>
<linearGradient id="paint3_linear_10470_4206" x1="7.10362" y1="10.863" x2="7.10362" y2="2.69813" gradientUnits="userSpaceOnUse">
<stop stop-color="#212B6C"/>
<stop offset="0.1918" stop-color="#054A88"/>
<stop offset="0.3985" stop-color="#006AA7"/>
<stop offset="0.5901" stop-color="#0084C2"/>
<stop offset="0.7603" stop-color="#0097D5"/>
<stop offset="0.9027" stop-color="#00A3E1"/>
<stop offset="1" stop-color="#00A7E5"/>
</linearGradient>
</defs>
</svg>
