<svg width="24" height="24" viewBox="0 0 24 24" fill="none" xmlns="http://www.w3.org/2000/svg">
<path fill-rule="evenodd" clip-rule="evenodd" d="M2.19077 18.4246H13.4892L15.5012 7.19385L2.19077 18.4246Z" fill="#2E3291"/>
<path fill-rule="evenodd" clip-rule="evenodd" d="M13.7323 8.68923L13.6431 12.1323L13.2277 13.6708L12.5166 12.3662L12.1354 10.04L11.8677 10.2677L12.2031 12.3631V14.0031L11.2185 12.8523L10.3723 11.5292L10.1477 11.72L10.9538 12.9846L11.3385 14.4582H11.32L10.0095 13.5692L9.17538 12.5231L8.95384 12.7077L9.79692 13.7323L10.5354 15.0554L9.02769 14.44L7.92 13.5692L7.69846 13.7569L8.83692 14.6554L9.88307 15.7785L9.86769 15.8L8.23077 15.5169L6.548 14.7477L6.31077 14.9508L8.10153 15.7385L9.34584 16.6151C9.34277 16.6225 9.33907 16.6298 9.33538 16.6369V16.6185L7.72923 16.5015L5.26769 15.8338L5.00923 16.0526L7.6523 16.7662L9.01569 17.4985L7.42153 17.6862L3.34153 17.4554L3.03415 17.7138L7.36923 17.9603L8.84307 18.3723L14.4 13.7723L13.9446 12.0985L14.04 8.42769L13.7323 8.68923Z" fill="#F7B727"/>
<path fill-rule="evenodd" clip-rule="evenodd" d="M8.57246 18.4246H19.8706L21.8829 7.19385L8.57246 18.4246Z" fill="#ED2129"/>
</svg>
