<svg width="48" height="48" viewBox="0 0 48 48" fill="none" xmlns="http://www.w3.org/2000/svg">
<path d="M24 46.25C11.73 46.25 1.75 36.27 1.75 24C1.75 11.73 11.73 1.75 24 1.75C36.27 1.75 46.25 11.73 46.25 24C46.25 36.27 36.27 46.25 24 46.25ZM24 3.75C12.83 3.75 3.75 12.83 3.75 24C3.75 35.17 12.83 44.25 24 44.25C35.17 44.25 44.25 35.17 44.25 24C44.25 12.83 35.17 3.75 24 3.75Z" fill="#323232"/>
<path d="M24.3992 5.94018C24.1892 5.94018 24.0192 6.09018 23.9792 6.29018C23.9492 6.49018 24.0692 6.69018 24.2692 6.75018C24.3392 6.77018 31.4392 9.08018 35.6792 14.1402C40.0292 19.3402 41.0992 25.4502 41.1092 25.5102C41.1392 25.7102 41.3192 25.8602 41.5192 25.8602C41.7192 25.8602 41.8992 25.7202 41.9292 25.5202C42.0692 24.7802 42.1392 23.9602 42.1392 23.0802C42.1392 13.6302 34.1792 5.93018 24.3892 5.93018L24.3992 5.94018Z" fill="#8DE2E0"/>
<path d="M21.3292 31.7598C20.9292 31.7598 20.5492 31.5998 20.2692 31.3198L15.5792 26.6298C14.9892 26.0398 14.9892 25.0898 15.5792 24.5098C16.1692 23.9198 17.1192 23.9198 17.6992 24.5098L21.3292 28.1398L32.2692 17.1998C32.8592 16.6098 33.8092 16.6098 34.3892 17.1998C34.9792 17.7898 34.9792 18.7398 34.3892 19.3198L22.3892 31.3198C22.1092 31.5998 21.7292 31.7598 21.3292 31.7598Z" fill="#DF0000"/>
</svg>
