<svg width="48" height="48" viewBox="0 0 48 48" fill="none" xmlns="http://www.w3.org/2000/svg">
<path d="M26.0908 46.7902C25.8708 46.7902 25.6508 46.7302 25.4608 46.6102L11.7708 37.2602C11.5408 37.1002 11.3908 36.8602 11.3508 36.5902C11.3108 36.3202 11.3808 36.0402 11.5508 35.8202C12.0008 35.2402 12.3508 34.5602 12.5608 33.8502C12.7108 33.3202 13.2708 33.0202 13.8008 33.1702C14.3308 33.3202 14.6408 33.8802 14.4808 34.4102C14.3008 35.0302 14.0508 35.6202 13.7208 36.1802L25.7308 44.3902C29.0308 36.8902 29.8608 36.8902 30.5308 36.8902C31.3408 36.8902 32.3208 37.2002 33.4508 37.5502C34.6508 37.9302 36.0108 38.3502 37.0908 38.3502C37.7308 38.3502 38.0208 35.8102 38.1608 34.5902C38.2808 33.5302 38.4008 32.5302 38.6508 31.7802L38.8308 31.2502C39.4008 29.5402 39.7408 28.5102 39.7408 27.7102C39.7408 27.2002 40.1308 26.7702 40.6408 26.7102C41.3508 26.6402 41.7208 26.5402 41.9008 26.4702C41.8708 26.3902 41.8308 26.3002 41.8008 26.2302L41.7508 26.1102C41.6408 25.8402 40.9108 24.8102 40.3708 24.0602C38.7008 21.7102 38.2808 21.0302 38.2808 20.4402C38.2808 20.0202 38.4108 19.4302 38.5808 18.6902C38.7708 17.8402 39.0108 16.7802 39.0108 16.0702C39.0108 12.2102 37.5508 3.24023 24.0108 3.24023C21.4708 3.24023 19.1808 3.63023 17.2208 4.41023C16.7108 4.61023 16.1308 4.36023 15.9208 3.85023C15.7108 3.34023 15.9708 2.76023 16.4808 2.55023C18.6808 1.68023 21.2108 1.24023 24.0108 1.24023C39.7808 1.24023 41.0108 12.5902 41.0108 16.0702C41.0108 17.0002 40.7608 18.1302 40.5308 19.1202C40.4308 19.5502 40.3208 20.0702 40.2908 20.3302C40.5008 20.7902 41.4308 22.1002 42.0008 22.9002C42.8908 24.1602 43.4108 24.8902 43.5908 25.3402L43.6408 25.4502C43.8408 25.9202 44.1708 26.7102 43.7208 27.4802C43.3808 28.0502 42.7508 28.4002 41.6708 28.6002C41.5308 29.4802 41.2008 30.4802 40.7308 31.8902L40.5508 32.4202C40.3608 32.9802 40.2608 33.8802 40.1508 34.8302C39.8708 37.3002 39.5208 40.3602 37.0908 40.3602C35.7108 40.3602 34.1908 39.8902 32.8508 39.4702C32.0908 39.2302 31.3108 38.9902 30.7908 38.9202C30.2508 39.5602 28.9608 41.9502 27.1708 46.1002C27.1208 46.2102 27.0608 46.3102 26.9708 46.4002C26.7808 46.6202 26.5508 46.7502 26.3008 46.7902C26.2308 46.8002 26.1508 46.8102 26.0808 46.8102L26.0908 46.7902Z" fill="#323232"/>
<path fill-rule="evenodd" clip-rule="evenodd" d="M20.3502 16.8698H16.5302V13.0498H13.0602V16.8698H9.24023V20.3398H13.0602V24.1598H16.5302V20.3398H20.3502V16.8698Z" fill="#DF0000"/>
<path d="M14.7793 32.4102L14.6093 32.3802C14.4993 32.3602 4.0293 30.4102 4.0293 17.9602V9.32016L14.7793 4.91016L25.5293 9.32016V17.9602C25.5293 30.4202 15.0493 32.3602 14.9493 32.3802L14.7793 32.4102ZM6.0393 10.6602V17.9602C6.0393 27.9902 13.5193 30.0802 14.7893 30.3702C16.0593 30.0902 23.5393 28.0002 23.5393 17.9602V10.6602L14.7893 7.07016L6.0393 10.6602Z" fill="#323232"/>
</svg>
