<svg width="24" height="24" viewBox="0 0 24 24" fill="none" xmlns="http://www.w3.org/2000/svg">
<g clip-path="url(#clip0_16335_8161)">
<path d="M20.4851 20.4853C25.1714 15.799 25.1714 8.20101 20.4851 3.51472C15.7988 -1.17157 8.20081 -1.17157 3.51452 3.51472C-1.17177 8.20101 -1.17177 15.799 3.51452 20.4853C8.20081 25.1716 15.7988 25.1716 20.4851 20.4853Z" fill="white"/>
<mask id="mask0_16335_8161" style="mask-type:luminance" maskUnits="userSpaceOnUse" x="-1" y="0" width="25" height="24">
<path d="M20.4851 20.4853C25.1714 15.799 25.1714 8.20101 20.4851 3.51472C15.7988 -1.17157 8.20081 -1.17157 3.51452 3.51472C-1.17177 8.20101 -1.17177 15.799 3.51452 20.4853C8.20081 25.1716 15.7988 25.1716 20.4851 20.4853Z" fill="white"/>
</mask>
<g mask="url(#mask0_16335_8161)">
<path d="M29.963 0H-5.96576V24H29.963V0Z" fill="#003399"/>
<path fill-rule="evenodd" clip-rule="evenodd" d="M11.9986 2.68311L12.2935 3.59844L13.2563 3.59705L12.4765 4.16162L12.7756 5.07696L11.9986 4.50959L11.2202 5.07696L11.5193 4.16162L10.7395 3.59705L11.7024 3.59844L11.9986 2.68311Z" fill="#FED700"/>
<path fill-rule="evenodd" clip-rule="evenodd" d="M11.9986 18.6743L12.2935 19.5911L13.2563 19.5883L12.4765 20.1528L12.7756 21.0682L11.9986 20.5008L11.2202 21.0682L11.5193 20.1528L10.7395 19.5883L11.7024 19.5911L11.9986 18.6743Z" fill="#FED700"/>
<path fill-rule="evenodd" clip-rule="evenodd" d="M15.9995 17.6067L16.2944 18.522L17.2572 18.5206L16.4775 19.0852L16.7765 19.9991L15.9995 19.4332L15.2211 19.9991L15.5216 19.0852L14.7404 18.5206L15.7033 18.522L15.9995 17.6067Z" fill="#FED700"/>
<path fill-rule="evenodd" clip-rule="evenodd" d="M7.9963 17.6067L8.29256 18.522L9.25541 18.5206L8.47563 19.0852L8.77469 19.9991L7.9963 19.4332L7.21931 19.9991L7.51837 19.0852L6.73859 18.5206L7.70144 18.522L7.9963 17.6067Z" fill="#FED700"/>
<path fill-rule="evenodd" clip-rule="evenodd" d="M15.9995 3.75073L16.2944 4.66747L17.2572 4.66607L16.4775 5.22925L16.7765 6.14458L15.9995 5.57721L15.2211 6.14458L15.5216 5.22925L14.7404 4.66607L15.7033 4.66747L15.9995 3.75073Z" fill="#FED700"/>
<path fill-rule="evenodd" clip-rule="evenodd" d="M7.9963 3.75073L8.29256 4.66747L9.25541 4.66607L8.47563 5.22925L8.77469 6.14458L7.9963 5.57721L7.21931 6.14458L7.51837 5.22925L6.73859 4.66607L7.70144 4.66747L7.9963 3.75073Z" fill="#FED700"/>
<path fill-rule="evenodd" clip-rule="evenodd" d="M18.9216 6.67847L19.2165 7.5952L20.1794 7.59241L19.3996 8.15698L19.6986 9.07232L18.9216 8.50495L18.1433 9.07232L18.4423 8.15698L17.6625 7.59241L18.6254 7.5952L18.9216 6.67847Z" fill="#FED700"/>
<path fill-rule="evenodd" clip-rule="evenodd" d="M5.07558 6.67847L5.37044 7.5952L6.3333 7.59241L5.55351 8.15698L5.85257 9.07232L5.07558 8.50495L4.29719 9.07232L4.59625 8.15698L3.81647 7.59241L4.77932 7.5952L5.07558 6.67847Z" fill="#FED700"/>
<path fill-rule="evenodd" clip-rule="evenodd" d="M18.9216 14.679L19.2165 15.5957L20.1794 15.5929L19.3996 16.1575L19.6986 17.0728L18.9216 16.5054L18.1433 17.0728L18.4423 16.1575L17.6625 15.5929L18.6254 15.5957L18.9216 14.679Z" fill="#FED700"/>
<path fill-rule="evenodd" clip-rule="evenodd" d="M5.07558 14.679L5.37044 15.5957L6.3333 15.5929L5.55351 16.1575L5.85257 17.0728L5.07558 16.5054L4.29719 17.0728L4.59625 16.1575L3.81647 15.5929L4.77932 15.5957L5.07558 14.679Z" fill="#FED700"/>
<path fill-rule="evenodd" clip-rule="evenodd" d="M19.9935 10.6697L20.2898 11.5864L21.2526 11.585L20.4714 12.1482L20.7719 13.0635L19.9935 12.4962L19.2151 13.0635L19.5156 12.1482L18.7358 11.585L19.6972 11.5864L19.9935 10.6697Z" fill="#FED700"/>
<path fill-rule="evenodd" clip-rule="evenodd" d="M4.00234 10.6697L4.29861 11.5864L5.26146 11.585L4.48167 12.1482L4.78073 13.0635L4.00234 12.4962L3.22536 13.0635L3.52441 12.1482L2.74463 11.585L3.70748 11.5864L4.00234 10.6697Z" fill="#FED700"/>
</g>
</g>
<rect x="0.25" y="0.25" width="23.5" height="23.5" rx="11.75" stroke="#E5E3E1" stroke-width="0.5"/>
<defs>
<clipPath id="clip0_16335_8161">
<rect width="24" height="24" rx="12" fill="white"/>
</clipPath>
</defs>
</svg>
