<svg width="48" height="48" viewBox="0 0 48 48" fill="none" xmlns="http://www.w3.org/2000/svg">
<path d="M27.7305 16.1899C31.5105 17.1299 36.7805 19.3899 36.7805 24.7299V39.0399H41.5105V21.2099L40.5305 19.0899L39.1305 17.5399L37.1505 16.4799L36.0005 16.1699L27.7305 16.1899Z" fill="#8DE2E0"/>
<path d="M21.6395 30.1704H9.93945C10.6195 27.6704 11.6095 26.8004 12.4795 26.4904C14.2395 25.8604 15.8595 27.4904 17.7995 26.6804C18.9895 26.1904 19.6495 25.0504 20.0295 24.1504C20.0295 24.1504 23.2295 26.5704 21.6395 30.1704Z" fill="#8DE2E0"/>
<path d="M36.4102 15.2897V11.9697C36.4102 11.4197 35.9602 10.9697 35.4102 10.9697H32.9402V8.24973H34.9202C35.4702 8.24973 35.9202 7.79973 35.9202 7.24973V3.71973C35.9202 3.16973 35.4702 2.71973 34.9202 2.71973H27.3802C27.1202 2.71973 26.8702 2.81973 26.6902 2.99973L23.0102 6.52973C22.7202 6.80973 22.6202 7.24973 22.7702 7.61973C22.9202 7.98973 23.2902 8.24973 23.7002 8.24973H27.2402V10.9697H24.7702C24.2202 10.9697 23.7702 11.4197 23.7702 11.9697V15.2897C20.9402 15.7497 18.6002 17.8297 17.8902 20.6797C17.7602 21.2197 18.0802 21.7597 18.6202 21.8897C19.1502 22.0197 19.7002 21.6997 19.8302 21.1597C20.4202 18.8197 22.5202 17.1797 24.9402 17.1797H35.2602C38.1602 17.1797 40.5302 19.5397 40.5302 22.4497V38.0397H28.2502C27.7002 38.0397 27.2502 38.4897 27.2502 39.0397C27.2502 39.5897 27.7002 40.0397 28.2502 40.0397H41.5302C42.0802 40.0397 42.5302 39.5897 42.5302 39.0397V22.4497C42.5302 18.8397 39.8802 15.8397 36.4202 15.2897H36.4102ZM27.7802 4.71973H33.9202V6.24973H31.9502C31.9502 6.24973 31.9502 6.24973 31.9402 6.24973C31.9302 6.24973 31.9402 6.24973 31.9302 6.24973H28.2502C28.2502 6.24973 28.2502 6.24973 28.2402 6.24973C28.2302 6.24973 28.2402 6.24973 28.2302 6.24973H26.1902L27.7802 4.71973ZM29.2302 8.24973H30.9402V10.9697H29.2302V8.24973ZM28.2102 12.9697C28.2102 12.9697 28.2202 12.9697 28.2302 12.9697C28.2402 12.9697 28.2402 12.9697 28.2502 12.9697H31.9202C31.9202 12.9697 31.9302 12.9697 31.9402 12.9697C31.9502 12.9697 31.9502 12.9697 31.9602 12.9697H34.4102V15.1897H25.7702V12.9697H28.2202H28.2102Z" fill="#323232"/>
<path d="M24.4509 33.43H23.5709C23.5909 33.36 23.6109 33.29 23.6109 33.21V30.17C23.6109 29.74 23.3409 29.38 22.9609 29.24C23.5009 26.44 21.7709 24.22 20.6209 23.35C20.3709 23.16 20.0609 23.1 19.7609 23.18C19.4609 23.26 19.2209 23.47 19.1009 23.76C18.6509 24.82 18.1009 25.47 17.4009 25.76C16.7309 26.04 16.1309 25.9 15.1909 25.66C14.2809 25.42 13.2509 25.15 12.1309 25.55C10.8109 26.02 9.84094 27.21 9.19094 29.17H8.29094C7.74094 29.17 7.29094 29.62 7.29094 30.17V33.21C7.29094 33.29 7.32094 33.36 7.33094 33.43H6.46094C5.91094 33.43 5.46094 33.88 5.46094 34.43V39.76C5.46094 42.78 7.91094 45.23 10.9309 45.23H19.9609C22.9709 45.23 25.4309 42.78 25.4309 39.76V34.43C25.4309 33.88 24.9809 33.43 24.4309 33.43H24.4509ZM12.8209 27.43C13.3409 27.24 13.8709 27.37 14.6909 27.59C15.6509 27.85 16.8509 28.16 18.1709 27.61C18.9909 27.28 19.6809 26.68 20.2509 25.84C20.7909 26.58 21.3309 27.74 20.9309 29.17H11.3309C11.7409 28.22 12.2309 27.64 12.8209 27.43ZM9.31094 33.21V31.17H21.6309V33.21C21.6309 33.29 21.6609 33.36 21.6709 33.43H9.26094C9.28094 33.36 9.30094 33.29 9.30094 33.21H9.31094ZM23.4509 39.76C23.4509 41.67 21.8909 43.23 19.9809 43.23H10.9509C9.04094 43.23 7.48094 41.67 7.48094 39.76V35.43H23.4509V39.76Z" fill="#323232"/>
</svg>
