<svg width="48" height="48" viewBox="0 0 48 48" fill="none" xmlns="http://www.w3.org/2000/svg">
<path d="M6.23953 15.1802C6.23953 10.9702 9.22953 7.46023 13.1995 6.66023C12.6395 6.55023 12.0595 6.49023 11.4595 6.49023C6.65953 6.49023 2.76953 10.3802 2.76953 15.1802C2.76953 19.9802 6.65953 23.8702 11.4595 23.8702C12.0495 23.8702 12.6395 23.8102 13.1995 23.7002C9.22953 22.9002 6.23953 19.3902 6.23953 15.1802Z" fill="#8DE2E0"/>
<path d="M21.3909 21.8301H39.6409L32.8109 28.0701H15.7109L21.3909 21.8301Z" fill="#8DE2E0"/>
<path d="M46.1887 28.0601C46.1887 27.8201 46.0987 27.5801 45.9387 27.4001L40.3887 21.1701C40.3887 21.1701 40.3587 21.1501 40.3387 21.1301C40.2687 21.0601 40.1987 21.0101 40.1187 20.9601C40.0887 20.9401 40.0487 20.9301 40.0187 20.9101C39.9387 20.8801 39.8587 20.8601 39.7787 20.8501C39.7487 20.8501 39.7087 20.8401 39.6787 20.8301C39.6687 20.8301 39.6588 20.8301 39.6488 20.8301H21.4087C21.1287 20.8301 20.8587 20.9501 20.6687 21.1601L14.9787 27.3901C14.9087 27.4701 14.8488 27.5601 14.8088 27.6601C14.7988 27.6801 14.7987 27.7101 14.7887 27.7301C14.7587 27.8201 14.7387 27.9101 14.7287 28.0101C14.7287 28.0301 14.7188 28.0501 14.7188 28.0601V41.8001C14.7188 42.3501 15.1687 42.8001 15.7188 42.8001H32.7787C33.3287 42.8001 33.7787 42.3501 33.7787 41.8001L33.8187 28.5001L39.5687 23.2501L44.1987 28.4401L44.2388 41.7101C44.2388 42.2601 44.6888 42.7101 45.2388 42.7101C45.7887 42.7101 46.2388 42.2601 46.2388 41.7101L46.1887 28.0601ZM31.7687 40.8101H16.7087V29.0701H31.8088L31.7687 40.8101ZM32.4287 27.0701H17.9787L21.8387 22.8401H37.0588L32.4287 27.0701Z" fill="#323232"/>
<path d="M26.0703 35.9705H29.3103C29.8603 35.9705 30.3103 35.5205 30.3103 34.9705V31.8105C30.3103 31.2605 29.8603 30.8105 29.3103 30.8105H26.0703C25.5203 30.8105 25.0703 31.2605 25.0703 31.8105V34.9705C25.0703 35.5205 25.5203 35.9705 26.0703 35.9705ZM27.0703 32.8105H28.3103V33.9705H27.0703V32.8105Z" fill="#323232"/>
<path d="M37.8398 31.65H41.0398C41.5898 31.65 42.0398 31.2 42.0398 30.65V27.54C42.0398 26.99 41.5898 26.54 41.0398 26.54H37.8398C37.2898 26.54 36.8398 26.99 36.8398 27.54V30.65C36.8398 31.2 37.2898 31.65 37.8398 31.65ZM38.8398 28.53H40.0398V29.64H38.8398V28.53Z" fill="#323232"/>
<path d="M19.3594 35.9705H22.5994C23.1494 35.9705 23.5994 35.5205 23.5994 34.9705V31.8105C23.5994 31.2605 23.1494 30.8105 22.5994 30.8105H19.3594C18.8094 30.8105 18.3594 31.2605 18.3594 31.8105V34.9705C18.3594 35.5205 18.8094 35.9705 19.3594 35.9705ZM20.3594 32.8105H21.5994V33.9705H20.3594V32.8105Z" fill="#323232"/>
<path d="M40.2799 32.7998H38.5999C37.2599 32.7998 36.1699 33.8898 36.1699 35.2298V41.8498C36.1699 42.3998 36.6199 42.8498 37.1699 42.8498H41.7099C42.2599 42.8498 42.7099 42.3998 42.7099 41.8498V35.2298C42.7099 33.8898 41.6199 32.7998 40.2799 32.7998ZM40.7099 40.8498H38.1699V35.2298C38.1699 34.9898 38.3599 34.7998 38.5999 34.7998H40.2799C40.5199 34.7998 40.7099 34.9898 40.7099 35.2298V40.8498Z" fill="#323232"/>
<path d="M21.1595 15.1802C21.1595 9.83024 16.8095 5.49023 11.4695 5.49023C6.12953 5.49023 1.76953 9.84023 1.76953 15.1802C1.76953 20.0702 5.40953 24.1102 10.1195 24.7702V41.7102C10.1195 42.2602 10.5695 42.7102 11.1195 42.7102C11.6695 42.7102 12.1195 42.2602 12.1195 41.7102V24.8402C17.1595 24.5002 21.1595 20.3002 21.1595 15.1802ZM12.1195 22.8402V20.5502L15.6195 17.2002C16.0195 16.8202 16.0295 16.1802 15.6495 15.7902C15.2695 15.3902 14.6295 15.3802 14.2395 15.7602L12.1195 17.7902V13.3502C12.1195 12.8002 11.6695 12.3502 11.1195 12.3502C10.5695 12.3502 10.1195 12.8002 10.1195 13.3502V17.1802L8.68953 15.7702C8.29953 15.3802 7.65953 15.3902 7.27953 15.7802C6.88953 16.1702 6.89953 16.8102 7.28953 17.1902L10.1195 19.9802V22.7502C6.50953 22.1102 3.76953 18.9702 3.76953 15.1802C3.76953 10.9402 7.21953 7.49023 11.4695 7.49023C15.7195 7.49023 19.1595 10.9402 19.1595 15.1802C19.1595 19.2002 16.0595 22.5102 12.1195 22.8402Z" fill="#323232"/>
</svg>
