<svg width="48" height="48" viewBox="0 0 48 48" fill="none" xmlns="http://www.w3.org/2000/svg">
<path d="M26.5804 27.9098C24.4104 27.9098 22.6504 26.1498 22.6504 23.9798C22.6504 21.8098 24.4104 20.0498 26.5804 20.0498C28.7504 20.0498 30.5104 21.8098 30.5104 23.9798C30.5104 26.1498 28.7504 27.9098 26.5804 27.9098ZM26.5804 22.0398C25.5104 22.0398 24.6504 22.9098 24.6504 23.9698C24.6504 25.0298 25.5204 25.8998 26.5804 25.8998C27.6404 25.8998 28.5104 25.0298 28.5104 23.9698C28.5104 22.9098 27.6404 22.0398 26.5804 22.0398Z" fill="#DF0000"/>
<path d="M12.5999 27.9098C10.4299 27.9098 8.66992 26.1498 8.66992 23.9798C8.66992 21.8098 10.4299 20.0498 12.5999 20.0498C14.7699 20.0498 16.5299 21.8098 16.5299 23.9798C16.5299 26.1498 14.7699 27.9098 12.5999 27.9098ZM12.5999 22.0398C11.5299 22.0398 10.6699 22.9098 10.6699 23.9698C10.6699 25.0298 11.5399 25.8998 12.5999 25.8998C13.6599 25.8998 14.5299 25.0298 14.5299 23.9698C14.5299 22.9098 13.6599 22.0398 12.5999 22.0398Z" fill="#323232"/>
<path d="M7.40947 27.7498H3.79947C3.39947 27.7498 3.04947 27.5198 2.88947 27.1498C2.72947 26.7898 2.79947 26.3598 3.06947 26.0698C3.73947 25.3298 4.34947 24.7498 4.83947 24.2798C5.75947 23.3998 6.19947 22.9498 6.19947 22.5298C6.19947 22.3098 6.07947 22.2598 6.03947 22.2398C5.82947 22.1398 5.25947 22.1598 4.45947 22.8398C4.03947 23.1998 3.40947 23.1498 3.04947 22.7298C2.68947 22.3098 2.73947 21.6798 3.15947 21.3198C4.42947 20.2398 5.77947 19.9198 6.87947 20.4198C7.68947 20.7998 8.19947 21.5998 8.19947 22.5298C8.19947 23.8198 7.36947 24.6198 6.22947 25.7198L6.20947 25.7398H7.42947C7.97947 25.7398 8.42947 26.1898 8.42947 26.7398C8.42947 27.2898 7.97947 27.7398 7.42947 27.7398L7.40947 27.7498Z" fill="#323232"/>
<path d="M19.5703 27.7899C18.7003 27.7899 17.8003 27.5099 17.1603 26.9899C16.7303 26.6399 16.6703 26.0099 17.0203 25.5799C17.3703 25.1499 18.0003 25.0899 18.4303 25.4399C18.8403 25.7799 19.7003 25.8999 20.1603 25.6799C20.3303 25.5999 20.3903 25.5099 20.3903 25.3199C20.3903 24.6099 19.1603 24.5999 19.1003 24.5999C18.7103 24.5999 18.3403 24.3699 18.1803 24.0099C18.0203 23.6499 18.0803 23.2299 18.3503 22.9399L19.0403 22.1699H18.0403C17.4903 22.1699 17.0403 21.7199 17.0403 21.1699C17.0403 20.6199 17.4903 20.1699 18.0403 20.1699H21.2803C21.6703 20.1699 22.0303 20.3999 22.1903 20.7599C22.3503 21.1199 22.2803 21.5399 22.0203 21.8399L20.9403 23.0399C21.1903 23.1699 21.4403 23.3299 21.6503 23.5399C22.1203 24.0099 22.3703 24.6299 22.3703 25.3299C22.3703 26.2999 21.8703 27.0899 21.0003 27.4999C20.5703 27.6999 20.0703 27.7999 19.5603 27.7999L19.5703 27.7899Z" fill="#323232"/>
<path d="M26.5791 42.6001C18.5391 42.6001 11.4391 37.4701 8.90906 29.8401C8.73906 29.3201 9.01906 28.7501 9.53906 28.5801C10.0691 28.4101 10.6291 28.6901 10.7991 29.2101C13.0591 36.0201 19.3991 40.6001 26.5691 40.6001C35.7391 40.6001 43.1891 33.1401 43.1891 23.9801C43.1891 14.8201 35.7391 7.3501 26.5791 7.3501C19.4091 7.3501 13.0691 11.9301 10.8091 18.7401C10.6391 19.2601 10.0691 19.5501 9.54906 19.3701C9.02906 19.2001 8.73906 18.6301 8.91906 18.1101C11.4491 10.4801 18.5491 5.3501 26.5891 5.3501C36.8591 5.3501 45.2091 13.7001 45.2091 23.9701C45.2091 34.2401 36.8591 42.5901 26.5891 42.5901L26.5791 42.6001Z" fill="#323232"/>
<path d="M26.5797 35.8099C22.3797 35.8099 18.5797 33.6499 16.4197 30.0299C16.1397 29.5599 16.2897 28.9399 16.7697 28.6599C17.2397 28.3799 17.8597 28.5299 18.1397 29.0099C19.9397 32.0199 23.0997 33.8099 26.5797 33.8099C32.0097 33.8099 36.4197 29.3999 36.4197 23.9699C36.4197 18.5399 32.0097 14.1299 26.5797 14.1299C23.0897 14.1299 19.9397 15.9299 18.1397 18.9299C17.8597 19.4099 17.2397 19.5599 16.7697 19.2799C16.2997 18.9999 16.1397 18.3799 16.4197 17.9099C18.5797 14.2899 22.3797 12.1299 26.5797 12.1299C33.1097 12.1299 38.4197 17.4399 38.4197 23.9699C38.4197 30.4999 33.1097 35.8099 26.5797 35.8099Z" fill="#323232"/>
</svg>
