<svg width="24" height="24" viewBox="0 0 24 24" fill="none" xmlns="http://www.w3.org/2000/svg">
<path fill-rule="evenodd" clip-rule="evenodd" d="M15.5641 1.97135C15.6307 1.80252 15.8697 1.80252 15.9362 1.97135L17.6275 6.25961C17.6478 6.31116 17.6886 6.35196 17.7402 6.37229L22.0284 8.06355C22.1973 8.13014 22.1973 8.36907 22.0284 8.43566L17.7402 10.1269C17.6886 10.1473 17.6478 10.1881 17.6275 10.2396L15.9362 14.5279C15.8697 14.6967 15.6307 14.6967 15.5641 14.5279L13.8729 10.2396C13.8525 10.1881 13.8117 10.1473 13.7602 10.1269L9.47193 8.43566C9.3031 8.36907 9.3031 8.13014 9.47193 8.06355L13.7602 6.37229C13.8117 6.35196 13.8525 6.31116 13.8729 6.25961L15.5641 1.97135ZM6.55285 11.6977C6.58963 11.4743 6.91074 11.4743 6.94753 11.6977L7.46934 14.8656C7.48327 14.9502 7.54958 15.0165 7.63417 15.0305L10.8021 15.5523C11.0254 15.589 11.0254 15.9102 10.8021 15.9469L7.63417 16.4688C7.54958 16.4827 7.48327 16.549 7.46934 16.6336L6.94753 19.8015C6.91074 20.0249 6.58963 20.0249 6.55285 19.8015L6.03104 16.6336C6.0171 16.549 5.9508 16.4827 5.8662 16.4688L2.69826 15.9469C2.47493 15.9102 2.47493 15.589 2.69826 15.5523L5.8662 15.0305C5.9508 15.0165 6.0171 14.9502 6.03104 14.8656L6.55285 11.6977ZM15.9475 17.6977C15.9107 17.4743 15.5896 17.4743 15.5528 17.6977L15.2432 19.5778C15.2292 19.6623 15.1629 19.7287 15.0783 19.7426L13.1983 20.0523C12.9749 20.0891 12.9749 20.4102 13.1983 20.4469L15.0783 20.7566C15.1629 20.7706 15.2292 20.8369 15.2432 20.9215L15.5528 22.8015C15.5896 23.0249 15.9107 23.0249 15.9475 22.8015L16.2572 20.9215C16.2711 20.8369 16.3374 20.7706 16.422 20.7566L18.3021 20.4469C18.5254 20.4102 18.5254 20.0891 18.3021 20.0523L16.422 19.7426C16.3374 19.7287 16.2711 19.6623 16.2572 19.5778L15.9475 17.6977Z" fill="#323232"/>
</svg>
