<svg width="24" height="24" viewBox="0 0 24 24" fill="none" xmlns="http://www.w3.org/2000/svg">
<path fill-rule="evenodd" clip-rule="evenodd" d="M6.05497 14.7029C4.66204 14.7029 3.51048 14.7029 2.97231 14.7027H2L3.03107 13.668C3.43676 13.292 3.74454 13.1482 4.62935 13.1482C4.62935 13.1482 13.7818 13.1474 14.1112 13.1474C14.673 13.1474 14.7114 13.1277 15.0377 12.7918L16.921 10.5708C17.2628 10.1582 17.6436 10 18.2583 10H21.9858L21.3239 10.8502C20.9286 11.3159 20.4403 11.4552 19.8603 11.4552H17.9148C17.8025 11.4552 17.7476 11.4822 17.6853 11.5531C17.6491 11.5942 17.2656 12.0657 17.2656 12.0657H19.7849L19.2804 12.677C18.9392 13.0411 18.571 13.2479 17.9862 13.2479H16.5358L15.8622 14.0763C15.4472 14.5551 15.0866 14.7027 14.3178 14.7027C12.5893 14.7027 8.84033 14.7029 6.05497 14.7029Z" fill="#0B1560"/>
</svg>
