<svg width="24" height="24" viewBox="0 0 24 24" fill="none" xmlns="http://www.w3.org/2000/svg">
<g clip-path="url(#clip0_16335_3781)">
<path d="M23.6789 14.7568C25.2013 8.30659 21.2066 1.84354 14.7564 0.321152C8.30617 -1.20123 1.84311 2.79355 0.320729 9.24374C-1.20165 15.6939 2.79312 22.157 9.24332 23.6794C15.6935 25.2018 22.1566 21.207 23.6789 14.7568Z" fill="white"/>
<mask id="mask0_16335_3781" style="mask-type:luminance" maskUnits="userSpaceOnUse" x="-1" y="-1" width="26" height="26">
<path d="M23.6789 14.7568C25.2013 8.30659 21.2066 1.84354 14.7564 0.321152C8.30617 -1.20123 1.84311 2.79355 0.320729 9.24374C-1.20165 15.6939 2.79312 22.157 9.24332 23.6794C15.6935 25.2018 22.1566 21.207 23.6789 14.7568Z" fill="white"/>
</mask>
<g mask="url(#mask0_16335_3781)">
<path d="M18.0007 0H6.00067V24H18.0007V0Z" fill="#FED700"/>
<path d="M30.0007 0H18.0007V24H30.0007V0Z" fill="#FF0000"/>
<path d="M6.00067 0H-5.99933V24H6.00067V0Z" fill="#007C29"/>
<path fill-rule="evenodd" clip-rule="evenodd" d="M8.2254 10.8106H11.1084L11.9999 8.06738L12.8915 10.8106H15.7759L13.4421 12.5029L14.3337 15.2489L11.9999 13.5468L9.66619 15.2489L10.5592 12.5029L8.2254 10.8106Z" fill="#007C29"/>
</g>
</g>
<rect x="0.25" y="0.25" width="23.5" height="23.5" rx="11.75" stroke="#E5E3E1" stroke-width="0.5"/>
<defs>
<clipPath id="clip0_16335_3781">
<rect width="24" height="24" rx="12" fill="white"/>
</clipPath>
</defs>
</svg>
