<svg width="24" height="24" viewBox="0 0 24 24" fill="none" xmlns="http://www.w3.org/2000/svg">
<path fill-rule="evenodd" clip-rule="evenodd" d="M21.6819 20.0442L15.8051 14.0507L15.6957 14.1692C17.9995 10.875 17.4097 6.32429 14.3458 3.7536C11.2818 1.1829 6.78938 1.46959 4.06358 4.40977C1.33779 7.34995 1.30893 11.9402 3.99752 14.9157C6.68611 17.8913 11.1746 18.2367 14.2706 15.7063L14.2491 15.7294L20.0818 21.676C20.5259 22.1134 21.2319 22.1072 21.6685 21.6619C22.1051 21.2167 22.1112 20.4967 21.6823 20.0438L21.6819 20.0442ZM9.56268 15.4736C6.43703 15.4736 3.9032 12.8896 3.9032 9.70208C3.9032 6.51458 6.43703 3.9306 9.56268 3.9306C12.6883 3.9306 15.2222 6.51458 15.2222 9.70208C15.2186 12.8881 12.6869 15.47 9.56268 15.4736Z" fill="#323232"/>
</svg>
