<svg width="48" height="48" viewBox="0 0 48 48" fill="none" xmlns="http://www.w3.org/2000/svg">
<path d="M24.2699 36.1202C17.1799 36.1202 11.4199 30.3502 11.4199 23.2602C11.4199 16.1702 17.1899 10.4102 24.2699 10.4102C31.3499 10.4102 37.1299 16.1802 37.1299 23.2602C37.1299 30.3402 31.3599 36.1202 24.2699 36.1202ZM24.2699 12.4102C18.2799 12.4102 13.4199 17.2802 13.4199 23.2602C13.4199 29.2402 18.2899 34.1202 24.2699 34.1202C30.2499 34.1202 35.1299 29.2502 35.1299 23.2602C35.1299 17.2702 30.2599 12.4102 24.2699 12.4102Z" fill="#323232"/>
<path d="M24.2705 46.5C23.7205 46.5 23.2705 46.05 23.2705 45.5V38.61C23.2705 38.06 23.7205 37.61 24.2705 37.61C24.8205 37.61 25.2705 38.06 25.2705 38.61V45.5C25.2705 46.05 24.8205 46.5 24.2705 46.5ZM38.8305 38.82C38.5705 38.82 38.3205 38.72 38.1205 38.53L34.4105 34.82C34.0205 34.43 34.0205 33.8 34.4105 33.41C34.8005 33.02 35.4305 33.02 35.8205 33.41L39.5305 37.12C39.9205 37.51 39.9205 38.14 39.5305 38.53C39.3305 38.73 39.0805 38.82 38.8205 38.82H38.8305ZM12.9905 35.55C12.7305 35.55 12.4805 35.45 12.2805 35.26C11.8905 34.87 11.8905 34.24 12.2805 33.85L12.7205 33.41C13.1105 33.02 13.7405 33.02 14.1305 33.41C14.5205 33.8 14.5205 34.43 14.1305 34.82L13.6905 35.26C13.4905 35.46 13.2405 35.55 12.9805 35.55H12.9905ZM46.2705 24.26H43.7205C43.1705 24.26 42.7205 23.81 42.7205 23.26C42.7205 22.71 43.1705 22.26 43.7205 22.26H46.2705C46.8205 22.26 47.2705 22.71 47.2705 23.26C47.2705 23.81 46.8205 24.26 46.2705 24.26ZM8.93047 24.26H1.73047C1.18047 24.26 0.730469 23.81 0.730469 23.26C0.730469 22.71 1.18047 22.26 1.73047 22.26H8.94047C9.49047 22.26 9.94047 22.71 9.94047 23.26C9.94047 23.81 9.49047 24.26 8.94047 24.26H8.93047ZM35.1305 13.42C34.8705 13.42 34.6205 13.32 34.4205 13.13C34.0305 12.74 34.0305 12.11 34.4205 11.72L37.9905 8.15C38.3805 7.76 39.0105 7.76 39.4005 8.15C39.7905 8.54 39.7905 9.17 39.4005 9.56L35.8305 13.13C35.6305 13.33 35.3805 13.42 35.1205 13.42H35.1305ZM24.2705 8.92C23.7205 8.92 23.2705 8.47 23.2705 7.92V2.5C23.2705 1.95 23.7205 1.5 24.2705 1.5C24.8205 1.5 25.2705 1.95 25.2705 2.5V7.92C25.2705 8.47 24.8205 8.92 24.2705 8.92ZM8.93047 8.92C8.67047 8.92 8.42047 8.82 8.22047 8.63L7.49047 7.9C7.10047 7.51 7.10047 6.88 7.49047 6.49C7.88047 6.1 8.51047 6.1 8.90047 6.49L9.63047 7.22C10.0205 7.61 10.0205 8.24 9.63047 8.63C9.43047 8.83 9.18047 8.92 8.92047 8.92H8.93047Z" fill="#DF0000"/>
<path d="M8.62945 39.9098C8.36945 39.9098 8.11945 39.8098 7.91945 39.6198C7.52945 39.2298 7.52945 38.5998 7.91945 38.2098L10.0995 36.0298C10.4895 35.6398 11.1195 35.6398 11.5095 36.0298C11.8995 36.4198 11.8995 37.0498 11.5095 37.4398L9.32945 39.6198C9.12945 39.8198 8.87945 39.9098 8.61945 39.9098H8.62945Z" fill="#DF0000"/>
<path d="M13.5006 13.4896C13.2406 13.4896 12.9906 13.3896 12.7906 13.1996L10.3706 10.7796C9.98063 10.3896 9.98063 9.75965 10.3706 9.36965C10.7606 8.97965 11.3906 8.97965 11.7806 9.36965L14.2006 11.7896C14.5906 12.1796 14.5906 12.8096 14.2006 13.1996C14.0006 13.3996 13.7506 13.4896 13.4906 13.4896H13.5006Z" fill="#DF0000"/>
<path d="M41.0091 24.2598H39.6191C39.0691 24.2598 38.6191 23.8098 38.6191 23.2598C38.6191 22.7098 39.0691 22.2598 39.6191 22.2598H41.0091C41.5591 22.2598 42.0091 22.7098 42.0091 23.2598C42.0091 23.8098 41.5591 24.2598 41.0091 24.2598Z" fill="#DF0000"/>
<path d="M31.1496 24.3596C31.7596 24.3596 32.2496 23.8696 32.2496 23.2596C32.2496 22.6496 31.7596 22.1596 31.1496 22.1596H27.4296C27.3196 22.1596 27.2096 22.1096 27.1396 22.0196L23.2396 16.9796C23.0296 16.7096 22.7196 16.5596 22.3796 16.5596H21.9796C21.7296 16.5596 21.5596 16.7996 21.6396 17.0296L23.1296 21.6796C23.1996 21.9096 23.0296 22.1496 22.7896 22.1496H20.2296C20.1796 22.1496 20.1296 22.1196 20.0896 22.0796L18.7696 20.3296C18.6696 20.1896 18.5096 20.1096 18.3296 20.1096C18.1796 20.1096 18.0096 20.1096 17.8596 20.1096C17.7396 20.1096 17.6496 20.2396 17.6996 20.3496C17.9496 20.9696 18.6196 22.6196 18.8096 23.0996C18.8496 23.1896 18.8496 23.2796 18.8096 23.3696C18.6196 23.8496 17.9496 25.4996 17.6996 26.1196C17.6496 26.2396 17.7396 26.3596 17.8596 26.3596C17.9996 26.3596 18.1796 26.3596 18.3296 26.3596C18.4996 26.3596 18.6596 26.2796 18.7696 26.1396L20.0896 24.3896C20.0896 24.3896 20.1696 24.3196 20.2296 24.3196H22.7896C23.0396 24.3196 23.2096 24.5596 23.1296 24.7896L21.6396 29.4396C21.5696 29.6696 21.7396 29.9096 21.9796 29.9096H22.3796C22.7196 29.9096 23.0296 29.7496 23.2396 29.4896L27.1396 24.4496C27.2096 24.3596 27.3096 24.3096 27.4296 24.3096H31.1496V24.3596Z" fill="#323232"/>
</svg>
