<svg width="24" height="24" viewBox="0 0 24 24" fill="none" xmlns="http://www.w3.org/2000/svg">
<g clip-path="url(#clip0_16335_12160)">
<path d="M23.8449 13.9238C24.9068 7.382 20.4644 1.218 13.9226 0.156118C7.38083 -0.905765 1.21683 3.53658 0.154948 10.0784C-0.906935 16.6202 3.53541 22.7842 10.0772 23.846C16.619 24.9079 22.783 20.4656 23.8449 13.9238Z" fill="white"/>
<mask id="mask0_16335_12160" style="mask-type:luminance" maskUnits="userSpaceOnUse" x="-1" y="-1" width="26" height="26">
<path d="M23.8449 13.9238C24.9068 7.382 20.4644 1.218 13.9226 0.156118C7.38083 -0.905765 1.21683 3.53658 0.154948 10.0784C-0.906935 16.6202 3.53541 22.7842 10.0772 23.846C16.619 24.9079 22.783 20.4656 23.8449 13.9238Z" fill="white"/>
</mask>
<g mask="url(#mask0_16335_12160)">
<path d="M33.5573 0H-2.37146V24H33.5573V0Z" fill="white"/>
<path d="M12 0H-2.37146V24H12V0Z" fill="#003399"/>
<path fill-rule="evenodd" clip-rule="evenodd" d="M11.3278 5.85235H11.8295L11.9847 5.37441C11.9874 5.36603 11.9958 5.36184 12.0042 5.36463C12.0098 5.36603 12.0126 5.37022 12.014 5.37441L12.1691 5.85235H12.6722C12.6806 5.85235 12.6876 5.85933 12.6876 5.86772C12.6876 5.87331 12.6848 5.8775 12.6806 5.8803L12.2739 6.17516L12.429 6.65309C12.4318 6.66148 12.4276 6.66986 12.4193 6.67266C12.4137 6.67405 12.4081 6.67266 12.4039 6.66986L11.9986 6.3736L11.592 6.66986C11.585 6.67545 11.5752 6.67266 11.5696 6.66707C11.5668 6.66287 11.5654 6.65728 11.5668 6.65309L11.7219 6.17516L11.3153 5.8803C11.3083 5.87471 11.3069 5.86492 11.3111 5.85794C11.3139 5.85374 11.3195 5.85095 11.3237 5.85095L11.3278 5.85235Z" fill="black"/>
<path fill-rule="evenodd" clip-rule="evenodd" d="M11.8421 5.88484H11.3768L11.7527 6.15734C11.7527 6.15734 11.7611 6.16852 11.7583 6.17551L11.6143 6.61851L11.9903 6.3446C11.9903 6.3446 12.0028 6.34041 12.0084 6.3446L12.3843 6.61851L12.2404 6.17551C12.2404 6.17551 12.2404 6.16154 12.246 6.15734L12.6219 5.88484H12.1566C12.1566 5.88484 12.144 5.88065 12.1412 5.87366L11.9972 5.43066L11.8533 5.87226C11.8533 5.87226 11.8449 5.88484 11.8379 5.88484H11.8421Z" fill="#FED700"/>
<path fill-rule="evenodd" clip-rule="evenodd" d="M14.2709 6.16989L14.7558 6.29986C14.7558 6.29986 14.7642 6.30405 14.767 6.30964C14.7698 6.31802 14.767 6.32641 14.7572 6.3306L14.2877 6.50948L14.3142 7.01116C14.3142 7.01116 14.3128 7.02095 14.3086 7.02374C14.3017 7.02933 14.2919 7.02793 14.2863 7.02095L13.9705 6.62966L13.5009 6.81133C13.5009 6.81133 13.4911 6.81133 13.4869 6.80993C13.4799 6.80574 13.4772 6.79596 13.4827 6.78757L13.7566 6.36554L13.4408 5.97704C13.4408 5.97704 13.4352 5.96726 13.4366 5.96167C13.4394 5.95329 13.4478 5.9477 13.4562 5.95049L13.9411 6.08045L14.215 5.65982C14.215 5.65982 14.222 5.65283 14.2276 5.65283C14.236 5.65283 14.2444 5.65982 14.2444 5.6682L14.2709 6.16989Z" fill="black"/>
<path fill-rule="evenodd" clip-rule="evenodd" d="M14.7013 6.31777L14.2527 6.19759C14.2458 6.19619 14.2416 6.18921 14.2416 6.18222L14.2178 5.71826L13.9649 6.10815C13.9649 6.10815 13.9537 6.11654 13.9481 6.11514L13.4995 5.99496L13.793 6.3555C13.793 6.3555 13.7972 6.36808 13.793 6.37367L13.54 6.76496L13.9746 6.59727C13.9746 6.59727 13.9886 6.59727 13.9928 6.60146L14.2849 6.9634L14.2611 6.49805C14.2611 6.49805 14.2653 6.48547 14.2709 6.48267L14.7055 6.31638L14.7013 6.31777Z" fill="#FED700"/>
<path fill-rule="evenodd" clip-rule="evenodd" d="M16.2008 6.94138L16.6354 7.19293C16.6354 7.19293 16.6424 7.19991 16.6438 7.2055C16.6438 7.21389 16.6382 7.22227 16.6298 7.22227L16.1309 7.27398L16.0261 7.76588C16.0261 7.76588 16.0219 7.77567 16.0163 7.77706C16.008 7.77986 15.9996 7.77706 15.9954 7.76868L15.7913 7.30892L15.2911 7.36202C15.2911 7.36202 15.2813 7.36202 15.2771 7.35643C15.2715 7.34944 15.2715 7.33966 15.2771 7.33407L15.6516 6.99728L15.4462 6.53891C15.4462 6.53891 15.4448 6.52913 15.4462 6.52494C15.4504 6.51795 15.4601 6.51516 15.4671 6.51935L15.9017 6.77089L16.2749 6.4341C16.2749 6.4341 16.2833 6.42851 16.2888 6.42991C16.2972 6.43131 16.3028 6.43969 16.3014 6.44808L16.1966 6.93999L16.2008 6.94138Z" fill="black"/>
<path fill-rule="evenodd" clip-rule="evenodd" d="M16.5781 7.19553L16.1756 6.96355C16.1756 6.96355 16.1672 6.95377 16.1686 6.94678L16.2651 6.49121L15.9199 6.80284C15.9199 6.80284 15.9059 6.80843 15.9003 6.80284L15.4979 6.57087L15.6879 6.99569C15.6879 6.99569 15.6879 7.00967 15.6837 7.01386L15.3372 7.32549L15.7997 7.27658C15.8067 7.27658 15.8137 7.27938 15.8165 7.28637L16.0051 7.71259L16.1016 7.25702C16.103 7.25003 16.1086 7.24444 16.1155 7.24444L16.5767 7.19693L16.5781 7.19553Z" fill="#FED700"/>
<path fill-rule="evenodd" clip-rule="evenodd" d="M17.9141 8.17952L18.269 8.53448C18.269 8.53448 18.2746 8.54286 18.2732 8.54845C18.2732 8.55684 18.2634 8.56243 18.255 8.56103L17.7589 8.48137L17.5312 8.92996C17.5312 8.92996 17.5242 8.93695 17.52 8.93834C17.5116 8.93834 17.5032 8.93415 17.5018 8.92577L17.4236 8.42827L16.9275 8.35001C16.9275 8.35001 16.9177 8.34582 16.9149 8.34163C16.9107 8.33324 16.9149 8.32486 16.9219 8.32067L17.3705 8.09288L17.2922 7.59818C17.2922 7.59818 17.2922 7.587 17.2964 7.58281C17.302 7.57722 17.3132 7.57722 17.3187 7.58281L17.6737 7.93776L18.1209 7.70997C18.1209 7.70997 18.1307 7.70718 18.1349 7.70997C18.1432 7.71417 18.146 7.72395 18.1419 7.73094L17.9141 8.17812V8.17952Z" fill="black"/>
<path fill-rule="evenodd" clip-rule="evenodd" d="M18.2132 8.52151L17.8847 8.19311C17.8847 8.19311 17.8792 8.18053 17.882 8.17494L18.093 7.7613L17.6779 7.97231C17.6779 7.97231 17.6639 7.97371 17.6598 7.96952L17.3314 7.64111L17.404 8.09948C17.404 8.09948 17.4012 8.11346 17.3956 8.11625L16.9806 8.32727L17.4404 8.39993C17.4473 8.39993 17.4529 8.40692 17.4529 8.41251L17.5242 8.87228L17.7352 8.45723C17.7352 8.45723 17.7464 8.44745 17.7534 8.44885L18.2118 8.52151H18.2132Z" fill="#FED700"/>
<path fill-rule="evenodd" clip-rule="evenodd" d="M19.3032 9.78384L19.5547 10.2185C19.5547 10.2185 19.5575 10.2282 19.5547 10.2324C19.5519 10.2408 19.5422 10.2436 19.5338 10.2408L19.0754 10.0354L18.7386 10.4085C18.7386 10.4085 18.7302 10.4141 18.7246 10.4141C18.7163 10.4141 18.7093 10.4057 18.7107 10.3973L18.7638 9.89704L18.304 9.69301C18.304 9.69301 18.2956 9.68742 18.2942 9.68183C18.2928 9.67344 18.2984 9.66506 18.3068 9.66366L18.7987 9.55885L18.8504 9.05996C18.8504 9.05996 18.8532 9.05017 18.8588 9.04738C18.8658 9.04319 18.8756 9.04598 18.8798 9.05297L19.1313 9.48758L19.6232 9.38277C19.6232 9.38277 19.633 9.38277 19.6372 9.38696C19.6442 9.39255 19.6442 9.40234 19.6372 9.40932L19.3004 9.78244L19.3032 9.78384Z" fill="black"/>
<path fill-rule="evenodd" clip-rule="evenodd" d="M19.503 10.1931L19.271 9.79063C19.271 9.79063 19.2682 9.77665 19.2724 9.77246L19.5841 9.42729L19.1285 9.52371C19.1215 9.52511 19.1145 9.52092 19.1103 9.51533L18.8783 9.11426L18.8308 9.57682C18.8308 9.57682 18.8252 9.58939 18.8182 9.59079L18.3627 9.68722L18.7889 9.87587C18.7889 9.87587 18.7987 9.88566 18.7987 9.89264L18.7498 10.3552L19.0614 10.0086C19.0614 10.0086 19.074 10.0016 19.081 10.0058L19.5044 10.1945L19.503 10.1931Z" fill="#FED700"/>
<path fill-rule="evenodd" clip-rule="evenodd" d="M9.24422 6.29986L9.72913 6.16989L9.75569 5.6682C9.75569 5.65982 9.76407 5.65283 9.77246 5.65283C9.77805 5.65283 9.78224 5.65563 9.78503 5.65982L10.0589 6.08045L10.5439 5.95049C10.5522 5.9477 10.5606 5.95329 10.5634 5.96167C10.5648 5.96726 10.5634 5.97285 10.5592 5.97704L10.2434 6.36554L10.5173 6.78757C10.5215 6.79456 10.5201 6.80434 10.5131 6.80993C10.5089 6.81272 10.5033 6.81273 10.4991 6.81133L10.0296 6.62966L9.71376 7.02095C9.71376 7.02095 9.69839 7.02933 9.6914 7.02374C9.68721 7.02095 9.68581 7.01536 9.68581 7.01116L9.71236 6.50948L9.24282 6.3306C9.23443 6.32781 9.23024 6.31802 9.23443 6.30964C9.23583 6.30405 9.24002 6.30125 9.24561 6.29986H9.24422Z" fill="black"/>
<path fill-rule="evenodd" clip-rule="evenodd" d="M9.74869 6.19766L9.30011 6.31784L9.73472 6.48414C9.73472 6.48414 9.7459 6.49252 9.7445 6.49951L9.72074 6.96486L10.0128 6.60292C10.0128 6.60292 10.024 6.59593 10.031 6.59873L10.4656 6.76642L10.2113 6.37514C10.2113 6.37514 10.2085 6.36256 10.2113 6.35697L10.5047 5.99642L10.0561 6.11661C10.0561 6.11661 10.0422 6.11661 10.0394 6.10962L9.78643 5.71973L9.76267 6.18368C9.76267 6.19067 9.75848 6.19766 9.75149 6.19906L9.74869 6.19766Z" fill="#FED700"/>
<path fill-rule="evenodd" clip-rule="evenodd" d="M7.36328 7.19277L7.79789 6.94123L7.69308 6.44932C7.69168 6.44093 7.69727 6.43255 7.70566 6.43115C7.71125 6.43115 7.71544 6.43115 7.71963 6.43534L8.09276 6.77213L8.52737 6.52059C8.53435 6.5164 8.54414 6.51919 8.54833 6.52618C8.55112 6.53037 8.55112 6.53596 8.54833 6.54015L8.3429 6.99852L8.71742 7.33531C8.71742 7.33531 8.72441 7.35068 8.71742 7.35767C8.71323 7.36186 8.70904 7.36326 8.70345 7.36326L8.20316 7.31016L7.99913 7.76992C7.99493 7.7783 7.98655 7.7811 7.97816 7.7783C7.97397 7.77551 7.96978 7.77132 7.96838 7.76713L7.86357 7.27522L7.36468 7.22351C7.35629 7.22351 7.34931 7.21513 7.3507 7.20674C7.3507 7.20115 7.3549 7.19696 7.35909 7.19417L7.36328 7.19277Z" fill="black"/>
<path fill-rule="evenodd" clip-rule="evenodd" d="M7.82441 6.96349L7.42194 7.19546L7.8831 7.24298C7.8831 7.24298 7.89568 7.24857 7.89707 7.25555L7.9935 7.71113L8.18215 7.2849C8.18215 7.2849 8.19194 7.27512 8.19892 7.27512L8.66148 7.32403L8.31491 7.0124C8.31491 7.0124 8.30793 7.00122 8.31072 6.99423L8.50078 6.5694L8.0997 6.80138C8.0997 6.80138 8.08573 6.80557 8.08014 6.80138L7.73497 6.48975L7.83139 6.94532C7.83139 6.94532 7.82999 6.95929 7.82441 6.96209V6.96349Z" fill="#FED700"/>
<path fill-rule="evenodd" clip-rule="evenodd" d="M5.73099 8.5343L6.08595 8.17935L5.85816 7.73216C5.85397 7.72377 5.85816 7.71539 5.86515 7.7112C5.86934 7.7084 5.87493 7.7084 5.87912 7.7112L6.32631 7.93898L6.68127 7.58403C6.68127 7.58403 6.69804 7.57844 6.70363 7.58403C6.70782 7.58822 6.70922 7.59381 6.70782 7.5994L6.62816 8.0941L7.07675 8.32189C7.08513 8.32608 7.08793 8.33586 7.08373 8.34285C7.08094 8.34844 7.07535 8.35123 7.07116 8.35123L6.57506 8.42949L6.4968 8.92699C6.4968 8.93537 6.48702 8.94096 6.47863 8.93956C6.47304 8.93956 6.46885 8.93537 6.46745 8.93118L6.23967 8.4826L5.74357 8.56225C5.73518 8.56225 5.7268 8.55806 5.7254 8.54967C5.7254 8.54408 5.7254 8.53989 5.7296 8.5357L5.73099 8.5343Z" fill="black"/>
<path fill-rule="evenodd" clip-rule="evenodd" d="M6.11673 8.19311L5.78833 8.52151L6.2467 8.44885C6.2467 8.44885 6.26067 8.45024 6.26486 8.45723L6.47588 8.87228L6.54855 8.41251C6.54855 8.41251 6.55414 8.39993 6.56113 8.39993L7.02089 8.32727L6.60585 8.11625C6.60585 8.11625 6.59606 8.10647 6.59746 8.09948L6.67013 7.64111L6.34173 7.96952C6.34173 7.96952 6.32915 7.97511 6.32356 7.97231L5.90851 7.7613L6.11953 8.17494C6.11953 8.17494 6.12232 8.18892 6.11673 8.19311Z" fill="#FED700"/>
<path fill-rule="evenodd" clip-rule="evenodd" d="M4.44674 10.2195L4.69828 9.78489L4.36149 9.41176C4.36149 9.41176 4.3559 9.39499 4.36149 9.3894C4.36569 9.38521 4.36988 9.38521 4.37547 9.38521L4.86737 9.49002L5.11892 9.05541C5.12311 9.04842 5.13289 9.04563 5.13988 9.04982C5.14407 9.05262 5.14687 9.05681 5.14826 9.0624L5.19997 9.56129L5.69188 9.6661C5.70026 9.6675 5.70585 9.67588 5.70445 9.68427C5.70445 9.68986 5.70026 9.69405 5.69467 9.69545L5.23491 9.89948L5.28801 10.3998C5.28801 10.4082 5.28242 10.4165 5.27404 10.4165C5.26845 10.4165 5.26425 10.4151 5.26006 10.4109L4.92327 10.0378L4.46491 10.2433C4.45652 10.2474 4.44814 10.2433 4.44394 10.2349C4.44115 10.2307 4.44255 10.2251 4.44394 10.2209L4.44674 10.2195Z" fill="black"/>
<path fill-rule="evenodd" clip-rule="evenodd" d="M4.73046 9.7891L4.49848 10.1916L4.92191 10.0029C4.92191 10.0029 4.93588 10.0015 4.94147 10.0057L5.25311 10.3523L5.2042 9.88971C5.2042 9.88971 5.20699 9.87574 5.21398 9.87295L5.6402 9.68429L5.18463 9.58786C5.18463 9.58786 5.17345 9.58088 5.17205 9.57389L5.12454 9.11133L4.89256 9.5124C4.89256 9.5124 4.88278 9.52218 4.8744 9.52078L4.41882 9.42436L4.73046 9.76953C4.73046 9.76953 4.73605 9.78211 4.73185 9.7877L4.73046 9.7891Z" fill="#FED700"/>
<path fill-rule="evenodd" clip-rule="evenodd" d="M12.812 15.2996L13.1362 16.5112C13.1683 16.6328 13.0859 16.7278 12.9629 16.7278C12.9224 16.7278 12.8832 16.7181 12.8469 16.7013V16.869C12.8469 16.869 12.8427 16.8816 12.8371 16.8843C12.8287 16.8871 12.8203 16.8843 12.8161 16.8746C12.7994 16.8312 12.7728 16.7935 12.7393 16.7628C12.7113 16.7362 12.6778 16.7167 12.6415 16.7027V16.869C12.6415 16.869 12.6373 16.8816 12.6317 16.8843C12.6233 16.8871 12.6149 16.8843 12.6107 16.8746C12.5884 16.8187 12.5492 16.7698 12.5003 16.7362C12.4528 16.7027 12.3941 16.6845 12.3326 16.6845H12.2781C12.2152 16.6845 12.1579 16.7041 12.1104 16.7362C12.0615 16.7698 12.0224 16.8187 12 16.8746C11.9972 16.8802 11.9916 16.8843 11.9847 16.8843C11.9763 16.8843 11.9693 16.8774 11.9693 16.869V16.7139C11.9441 16.7236 11.9176 16.7278 11.891 16.7278C11.8631 16.7278 11.8337 16.7222 11.8072 16.7111V16.8676C11.8072 16.8676 11.803 16.8802 11.7974 16.883C11.789 16.8857 11.7806 16.883 11.7764 16.8732C11.7597 16.8298 11.7331 16.7921 11.6996 16.7614C11.6716 16.7348 11.6381 16.7153 11.6018 16.7013V16.8676C11.6018 16.8676 11.5976 16.8802 11.592 16.883C11.5836 16.8857 11.5752 16.883 11.571 16.8732C11.5487 16.8173 11.5109 16.7684 11.4606 16.7348C11.4131 16.7013 11.3544 16.6831 11.2929 16.6831H11.237C11.1741 16.6831 11.1168 16.7027 11.0693 16.7348C11.0204 16.7684 10.9813 16.8173 10.9589 16.8732C10.9561 16.8788 10.9505 16.883 10.9436 16.883C10.9352 16.883 10.9282 16.876 10.9282 16.8676V16.7153C10.9128 16.7111 10.8974 16.7041 10.8849 16.6971C10.8387 16.6705 10.8066 16.6258 10.801 16.5727L10.7912 16.5895C10.7619 16.6412 10.7102 16.6817 10.6515 16.7041C10.5774 16.7334 10.4852 16.7362 10.4153 16.6957C10.3692 16.6691 10.3371 16.6244 10.3315 16.5713L10.3217 16.5881C10.2518 16.7083 10.0673 16.7656 9.94576 16.6957C9.85912 16.6454 9.83956 16.5476 9.88707 16.4637L10.8932 14.7197V14.1872L10.8332 14.2473C10.7773 14.3032 10.706 14.3326 10.6319 14.3368C10.562 14.341 10.4908 14.32 10.4321 14.2753C10.3818 14.313 10.3231 14.334 10.263 14.3368C10.1931 14.341 10.1218 14.32 10.0632 14.2753C10.0128 14.313 9.95415 14.334 9.89406 14.3368C9.82418 14.3396 9.75291 14.32 9.69562 14.2767C9.64251 14.3172 9.57823 14.3368 9.51395 14.3382C9.44128 14.3382 9.36721 14.313 9.30992 14.2613C9.23585 14.3298 9.14222 14.3633 9.0472 14.3633C8.95217 14.3633 8.85435 14.3284 8.78028 14.2571C8.73416 14.2683 8.68805 14.2739 8.64053 14.2753C8.48681 14.2767 8.33309 14.2236 8.21291 14.1118C8.08155 14.1523 7.94041 14.1523 7.81044 14.1188C7.63296 14.0727 7.47365 13.9637 7.37583 13.7988H6.34171C6.17961 13.7988 6.03287 13.7331 5.92527 13.6269C5.82185 13.5235 5.75478 13.3837 5.75058 13.2272C5.59407 13.223 5.45292 13.1573 5.34951 13.0539C5.2461 12.9505 5.18042 12.808 5.17623 12.6514C5.01971 12.6472 4.87717 12.5816 4.77376 12.4782C4.67035 12.3747 4.60467 12.2322 4.60047 12.0757C4.44396 12.0715 4.30142 12.0058 4.198 11.9024C4.0904 11.7948 4.02472 11.6467 4.02472 11.4846C4.02472 11.4762 4.03171 11.4692 4.04149 11.4692H8.74674C9.03462 11.4692 9.31132 11.567 9.5377 11.7459L10.4139 12.4041C10.6263 12.5578 10.8793 12.6403 11.1406 12.6403H11.4033C11.4424 12.5257 11.4969 12.4167 11.5668 12.3202C11.6395 12.2182 11.7261 12.1274 11.8253 12.0519L12.6191 11.4706C12.6624 11.4356 12.7155 11.4175 12.77 11.4175H13.2703C13.3374 11.4175 13.3989 11.4454 13.4422 11.4888C13.4827 11.5293 13.5093 11.5852 13.5135 11.6453H13.6225C13.7566 11.6453 13.867 11.7557 13.867 11.8898V11.9331C13.867 11.9471 13.8517 11.9541 13.8419 11.9457C13.8265 11.9331 13.807 11.9262 13.786 11.9262H13.5806C13.5722 12.01 13.5009 12.0757 13.4157 12.0757H13.3206C13.2466 12.0757 13.1865 12.1358 13.1865 12.2098V12.5285C13.1865 12.5606 13.1851 12.5927 13.1823 12.6249C13.3709 12.5941 13.5498 12.5187 13.7063 12.4055L14.5825 11.7473C14.8075 11.5684 15.0856 11.4706 15.3735 11.4706H20.0788C20.0871 11.4706 20.0955 11.4776 20.0955 11.486C20.0955 11.6481 20.0284 11.7962 19.9222 11.9038C19.8188 12.0072 19.6763 12.0729 19.5198 12.0771C19.5156 12.2336 19.4499 12.3761 19.3465 12.4796C19.2431 12.583 19.1005 12.6486 18.944 12.6528C18.9398 12.8094 18.8741 12.9519 18.7707 13.0553C18.6673 13.1587 18.5262 13.2244 18.3697 13.2286C18.3641 13.3837 18.2984 13.5249 18.195 13.6283C18.0874 13.7345 17.9406 13.8002 17.7785 13.8002H16.7444C16.6466 13.9651 16.4859 14.0741 16.3098 14.1202C16.1784 14.1537 16.0387 14.1523 15.9073 14.1132C15.7872 14.2236 15.6334 14.2781 15.4797 14.2767C15.4322 14.2767 15.3861 14.2697 15.34 14.2585C15.2659 14.3298 15.1695 14.3647 15.073 14.3647C14.9766 14.3647 14.8844 14.3312 14.8103 14.2627C14.753 14.3144 14.679 14.3396 14.6063 14.3396C14.542 14.3396 14.4777 14.3186 14.4246 14.2781C14.3659 14.3214 14.2961 14.3424 14.2262 14.3382C14.1661 14.3354 14.1074 14.3144 14.0571 14.2767C13.9984 14.3214 13.9271 14.3424 13.8573 14.3382C13.7972 14.3354 13.7385 14.3144 13.6882 14.2767C13.6295 14.3214 13.5582 14.3424 13.4883 14.3382C13.4157 14.334 13.343 14.3046 13.2871 14.2487L12.9154 13.8798V13.9231C12.9154 14.0824 12.8818 14.2334 12.8189 14.3689V15.2982L12.812 15.2996Z" fill="black"/>
<path fill-rule="evenodd" clip-rule="evenodd" d="M8.23945 13.1964C8.2101 13.181 8.18355 13.1628 8.15979 13.1391C8.10809 13.0874 8.07455 13.0175 8.07036 12.9392C7.99349 12.9351 7.92222 12.9015 7.87052 12.8498C7.81881 12.7981 7.78527 12.7282 7.78108 12.6514H5.20416C5.20835 12.7995 5.26984 12.9337 5.36906 13.0315C5.47108 13.1335 5.61082 13.1964 5.76454 13.1964H8.23805H8.23945Z" fill="#FED700"/>
<path fill-rule="evenodd" clip-rule="evenodd" d="M8.64331 13.4563C8.53291 13.4297 8.44627 13.3431 8.41692 13.2285H5.78131C5.7869 13.3752 5.84979 13.508 5.94761 13.6058C6.04823 13.7064 6.18797 13.7693 6.34169 13.7693H7.3856C7.44848 13.7693 7.50997 13.7609 7.57006 13.7456L8.64331 13.4577V13.4563Z" fill="#FED700"/>
<path fill-rule="evenodd" clip-rule="evenodd" d="M8.98013 13.6545C8.96336 13.6531 8.94519 13.6503 8.92982 13.6447C8.83759 13.6195 8.76352 13.5539 8.72719 13.4658L7.57847 13.7733C7.52397 13.7872 7.46947 13.7956 7.41357 13.7984C7.5086 13.9479 7.65673 14.0458 7.82024 14.0891C7.99492 14.1338 8.18637 14.1142 8.34848 14.0206L8.98292 13.6545H8.98013Z" fill="#FED700"/>
<path fill-rule="evenodd" clip-rule="evenodd" d="M9.3337 13.7873C9.29597 13.7929 9.25824 13.7915 9.2205 13.7845C9.14504 13.7678 9.07936 13.723 9.03604 13.6602L8.36386 14.0487C8.32753 14.0696 8.2884 14.0878 8.24927 14.1018C8.36106 14.1982 8.50221 14.2471 8.64195 14.2443C8.79009 14.2429 8.93682 14.1856 9.04862 14.0724L9.3337 13.7873Z" fill="#FED700"/>
<path fill-rule="evenodd" clip-rule="evenodd" d="M9.65367 13.8725C9.6383 13.8753 9.62153 13.8767 9.60615 13.8767C9.51811 13.8767 9.44405 13.8418 9.38396 13.7803L9.06953 14.0947C8.99686 14.1674 8.90882 14.2191 8.81659 14.247C8.88227 14.3029 8.96472 14.3323 9.04717 14.3323C9.13801 14.3323 9.22884 14.2973 9.29871 14.2289L9.65507 13.8725H9.65367Z" fill="#FED700"/>
<path fill-rule="evenodd" clip-rule="evenodd" d="M10.0045 13.9286C9.97371 13.9384 9.94157 13.944 9.90943 13.944C9.83676 13.944 9.76409 13.9174 9.7068 13.8657L9.33228 14.2402C9.38398 14.285 9.44827 14.3073 9.51395 14.3073C9.58382 14.3073 9.65369 14.2808 9.7068 14.2277L10.0059 13.9286H10.0045Z" fill="#FED700"/>
<path fill-rule="evenodd" clip-rule="evenodd" d="M10.3706 13.9284C10.3454 13.9368 10.3189 13.9409 10.2937 13.9423C10.2239 13.9451 10.154 13.9256 10.0967 13.8809L9.72916 14.2484C9.72916 14.2484 9.72357 14.254 9.72217 14.2554C9.77387 14.2917 9.83397 14.3085 9.89406 14.3057C9.95974 14.3029 10.024 14.2763 10.0743 14.226L10.372 13.9284H10.3706Z" fill="#FED700"/>
<path fill-rule="evenodd" clip-rule="evenodd" d="M10.7409 13.9284C10.7158 13.9368 10.6892 13.9409 10.6627 13.9423C10.5928 13.9451 10.5229 13.9242 10.4642 13.8809H10.4628L10.0967 14.2498L10.0897 14.2568C10.1414 14.2931 10.2029 14.3113 10.263 14.3071C10.3287 14.3043 10.393 14.2777 10.4433 14.2274L10.7409 13.9298V13.9284Z" fill="#FED700"/>
<path fill-rule="evenodd" clip-rule="evenodd" d="M11.1098 13.9284C11.0847 13.9368 11.0581 13.9409 11.0316 13.9423C10.9617 13.9451 10.8904 13.9242 10.8331 13.8809H10.8317L10.4656 14.2498C10.4642 14.2526 10.4614 14.254 10.4586 14.2568C10.5103 14.2945 10.5718 14.3113 10.6319 14.3071C10.6976 14.3043 10.7619 14.2777 10.8122 14.2274L11.1098 13.9298V13.9284Z" fill="#FED700"/>
<path fill-rule="evenodd" clip-rule="evenodd" d="M4.63122 12.0757C4.63541 12.2238 4.6969 12.358 4.79612 12.4558C4.89813 12.5578 5.03788 12.6207 5.1916 12.6207H7.66511C7.63576 12.6053 7.60781 12.5858 7.58545 12.5634C7.53375 12.5117 7.50021 12.4418 7.49601 12.3636C7.41915 12.3594 7.34788 12.3258 7.29618 12.2741C7.24447 12.2224 7.21093 12.1525 7.20674 12.0757H4.62982H4.63122Z" fill="#FED700"/>
<path fill-rule="evenodd" clip-rule="evenodd" d="M15.8738 13.1964C15.9031 13.181 15.9297 13.1628 15.9534 13.1391C16.0051 13.0874 16.0387 13.0175 16.0429 12.9392C16.1197 12.9351 16.191 12.9015 16.2427 12.8498C16.2944 12.7981 16.328 12.7282 16.3321 12.6514H18.9091C18.9049 12.7995 18.8434 12.9337 18.7442 13.0315C18.6422 13.1335 18.5024 13.1964 18.3487 13.1964H15.8752H15.8738Z" fill="#FED700"/>
<path fill-rule="evenodd" clip-rule="evenodd" d="M15.4713 13.4563C15.5817 13.4297 15.6684 13.3431 15.6977 13.2285H18.3333C18.3277 13.3752 18.2662 13.508 18.167 13.6058C18.065 13.7064 17.9267 13.7693 17.7729 13.7693H16.729C16.6661 13.7693 16.6047 13.7609 16.5446 13.7456L15.4713 13.4577V13.4563Z" fill="#FED700"/>
<path fill-rule="evenodd" clip-rule="evenodd" d="M15.1332 13.6545C15.1499 13.6531 15.1681 13.6503 15.1835 13.6447C15.2757 13.6195 15.3498 13.5539 15.3861 13.4658L16.5348 13.7733C16.5893 13.7872 16.6438 13.7956 16.6997 13.7984C16.6047 13.9479 16.4566 14.0458 16.2931 14.0891C16.1184 14.1338 15.9269 14.1142 15.7648 14.0206L15.1304 13.6545H15.1332Z" fill="#FED700"/>
<path fill-rule="evenodd" clip-rule="evenodd" d="M14.781 13.7873C14.8187 13.7929 14.8565 13.7915 14.8942 13.7845C14.9697 13.7678 15.0353 13.723 15.0787 13.6602L15.7508 14.0487C15.7872 14.0696 15.8263 14.0878 15.8654 14.1018C15.7536 14.1982 15.6125 14.2471 15.4727 14.2443C15.3246 14.2429 15.1779 14.1856 15.0661 14.0724L14.781 13.7873Z" fill="#FED700"/>
<path fill-rule="evenodd" clip-rule="evenodd" d="M14.4596 13.8725C14.475 13.8753 14.4917 13.8767 14.5071 13.8767C14.5951 13.8767 14.6692 13.8418 14.7293 13.7803L15.0437 14.0947C15.1164 14.1674 15.2044 14.2191 15.2967 14.247C15.231 14.3029 15.1485 14.3323 15.0661 14.3323C14.9753 14.3323 14.8844 14.2973 14.8145 14.2289L14.4582 13.8725H14.4596Z" fill="#FED700"/>
<path fill-rule="evenodd" clip-rule="evenodd" d="M14.1088 13.9286C14.1396 13.9384 14.1717 13.944 14.2038 13.944C14.2765 13.944 14.3492 13.9174 14.4065 13.8657L14.781 14.2402C14.7293 14.285 14.665 14.3073 14.5993 14.3073C14.5295 14.3073 14.4596 14.2808 14.4065 14.2277L14.1074 13.9286H14.1088Z" fill="#FED700"/>
<path fill-rule="evenodd" clip-rule="evenodd" d="M13.7441 13.9284C13.7692 13.9368 13.7958 13.9409 13.8223 13.9423C13.8922 13.9451 13.9621 13.9256 14.0194 13.8809L14.3869 14.2484C14.3869 14.2484 14.3925 14.254 14.3939 14.2554C14.3422 14.2917 14.2821 14.3085 14.222 14.3057C14.1563 14.3029 14.092 14.2763 14.0417 14.226L13.7441 13.9284Z" fill="#FED700"/>
<path fill-rule="evenodd" clip-rule="evenodd" d="M13.3737 13.9284C13.3989 13.9368 13.4254 13.9409 13.4506 13.9423C13.5204 13.9451 13.5917 13.9242 13.649 13.8809H13.6504L14.0165 14.2498L14.0235 14.2568C13.9718 14.2931 13.9103 14.3113 13.8502 14.3071C13.7846 14.3043 13.7203 14.2777 13.67 14.2274L13.3723 13.9298L13.3737 13.9284Z" fill="#FED700"/>
<path fill-rule="evenodd" clip-rule="evenodd" d="M13.0048 13.9284C13.03 13.9368 13.0565 13.9409 13.0831 13.9423C13.153 13.9451 13.2242 13.9242 13.2815 13.8809H13.2829L13.6504 14.2498C13.6532 14.2526 13.6546 14.254 13.6574 14.2568C13.6057 14.2945 13.5442 14.3113 13.4842 14.3071C13.4185 14.3043 13.3542 14.2777 13.3039 14.2274L13.0062 13.9298L13.0048 13.9284Z" fill="#FED700"/>
<path fill-rule="evenodd" clip-rule="evenodd" d="M19.4834 12.0757C19.4792 12.2238 19.4163 12.358 19.3185 12.4558C19.2165 12.5578 19.0768 12.6207 18.923 12.6207H16.4495C16.4789 12.6053 16.5068 12.5858 16.5292 12.5634C16.5809 12.5117 16.6144 12.4418 16.6186 12.3636C16.6955 12.3594 16.7667 12.3258 16.8185 12.2741C16.8702 12.2224 16.9037 12.1525 16.9079 12.0757H19.4848H19.4834Z" fill="#FED700"/>
<path fill-rule="evenodd" clip-rule="evenodd" d="M13.0942 12.9543C13.0789 12.9893 13.0621 13.0242 13.0425 13.0577C12.9531 13.2157 12.907 13.3917 12.907 13.5734V13.8361C12.9573 13.8836 13.0202 13.9074 13.0831 13.9102C13.1432 13.913 13.2046 13.8962 13.2549 13.8585L13.2494 13.8529L13.0272 13.6307C13.0272 13.6307 13.0216 13.6139 13.0272 13.6083C13.0328 13.6027 13.0439 13.6027 13.0495 13.6083L13.2717 13.8305C13.322 13.8808 13.3863 13.9074 13.452 13.9102C13.5121 13.913 13.5736 13.8962 13.6239 13.8585L13.6183 13.8529L13.3961 13.6307C13.3961 13.6307 13.3905 13.6139 13.3961 13.6083C13.4017 13.6027 13.4129 13.6027 13.4185 13.6083L13.6406 13.8305C13.691 13.8808 13.7552 13.9074 13.8209 13.9102C13.881 13.913 13.9425 13.8962 13.9928 13.8585L13.9872 13.8529L13.765 13.6307C13.765 13.6307 13.7594 13.6139 13.765 13.6083C13.7706 13.6027 13.7818 13.6027 13.7874 13.6083L14.0096 13.8305C14.0627 13.8836 14.1326 13.9102 14.2024 13.9102C14.2653 13.9102 14.3268 13.8892 14.3771 13.8473C14.3464 13.8333 14.317 13.8124 14.2905 13.7872L14.134 13.6307C14.134 13.6307 14.1284 13.6139 14.134 13.6083C14.1395 13.6027 14.1507 13.6027 14.1563 13.6083L14.3128 13.7649C14.3659 13.818 14.4358 13.8445 14.5057 13.8445C14.5756 13.8445 14.6496 13.8152 14.6999 13.7635C14.6678 13.7481 14.637 13.7271 14.6119 13.702L14.4554 13.5455C14.4554 13.5455 14.4498 13.5287 14.4554 13.5231C14.461 13.5175 14.4721 13.5175 14.4777 13.5231L14.6342 13.6796C14.6622 13.7076 14.6957 13.7285 14.7321 13.7425C14.781 13.7607 14.8341 13.7635 14.8858 13.7523C14.9515 13.7383 15.0046 13.702 15.0451 13.6489C15.013 13.6433 14.9822 13.6307 14.9529 13.6139L14.5979 13.4085C14.5909 13.4043 14.5881 13.3945 14.5923 13.3875C14.5965 13.3806 14.6063 13.3778 14.6133 13.3819L14.9682 13.5874C15.0325 13.6251 15.1066 13.6321 15.1751 13.6139C15.2561 13.5916 15.3204 13.5371 15.3539 13.4602C15.3428 13.4588 15.3316 13.456 15.3204 13.4532L14.7209 13.2925C14.7125 13.2897 14.7069 13.2813 14.7097 13.2729C14.7125 13.2646 14.7209 13.259 14.7293 13.2618L15.3288 13.4225C15.4727 13.4616 15.6264 13.3736 15.6628 13.2268H15.3288C15.3022 13.2268 15.2743 13.224 15.2477 13.217L14.8914 13.122C14.883 13.1192 14.8774 13.1108 14.8802 13.1025C14.883 13.0941 14.8914 13.0885 14.8998 13.0913L15.2561 13.1863C15.2799 13.1933 15.3036 13.1961 15.3288 13.1961H15.7382C15.8123 13.1961 15.8808 13.1653 15.9297 13.1164C15.9758 13.0703 16.0052 13.0088 16.0093 12.9404H15.0772C15.0689 12.9404 15.0619 12.9334 15.0619 12.925C15.0619 12.9166 15.0689 12.9096 15.0772 12.9096H16.0247C16.0988 12.9096 16.1673 12.8789 16.2162 12.83C16.2623 12.7838 16.2916 12.7223 16.2958 12.6539H15.3637C15.3553 12.6539 15.3483 12.6469 15.3483 12.6385C15.3483 12.6301 15.3553 12.6231 15.3637 12.6231H16.3112C16.3867 12.6231 16.4537 12.5924 16.5026 12.5435C16.5488 12.4974 16.5781 12.4359 16.5823 12.3674H15.6502C15.6418 12.3674 15.6348 12.3604 15.6348 12.352C15.6348 12.3436 15.6418 12.3366 15.6502 12.3366H16.5977C16.6731 12.3366 16.7402 12.3059 16.7905 12.257C16.8366 12.2109 16.866 12.1494 16.8702 12.0809H15.9381C15.9297 12.0809 15.9227 12.0739 15.9227 12.0655C15.9227 12.0572 15.9297 12.0502 15.9381 12.0502H16.8856C16.961 12.0502 17.0281 12.0194 17.0784 11.9705C17.1245 11.9244 17.1539 11.8629 17.1581 11.7944H15.3637C15.1471 11.7944 14.9403 11.8671 14.7712 12.0013C14.4805 12.2262 14.1703 12.4387 13.8852 12.6678C13.6504 12.8383 13.3765 12.939 13.09 12.9613L13.0942 12.9543Z" fill="#FED700"/>
<path fill-rule="evenodd" clip-rule="evenodd" d="M13.1753 12.6552C13.1641 12.746 13.1418 12.8355 13.1082 12.9221C13.3835 12.8984 13.6462 12.8005 13.8712 12.637L14.7572 11.9719C14.9319 11.8335 15.1457 11.758 15.3693 11.758H18.0231C18.0315 11.758 18.0385 11.765 18.0385 11.7734C18.0385 11.7818 18.0315 11.7888 18.0231 11.7888H17.1944C17.1902 11.8656 17.1567 11.9355 17.105 11.9872C17.0812 12.011 17.0546 12.0305 17.0253 12.0445H19.4988C19.6525 12.0445 19.7923 11.9816 19.8943 11.8796C19.9921 11.7818 20.055 11.6476 20.0592 11.4995H15.3693C15.0884 11.4995 14.8187 11.5945 14.5979 11.7692C14.303 11.983 14.0166 12.2164 13.7217 12.4274C13.5582 12.5462 13.3723 12.6231 13.1767 12.6538L13.1753 12.6552Z" fill="#FED700"/>
<path fill-rule="evenodd" clip-rule="evenodd" d="M13.0174 11.6743C13.0244 11.7232 13.0677 11.761 13.118 11.761C13.1683 11.761 13.2116 11.7232 13.2186 11.6743H13.0174Z" fill="#FED700"/>
<path fill-rule="evenodd" clip-rule="evenodd" d="M10.9003 15.5243C10.8975 15.495 10.8947 15.4657 10.8947 15.4363V14.7837L9.91504 16.4802C9.87452 16.5487 9.88989 16.6269 9.96116 16.6689C10.0674 16.7304 10.2323 16.6786 10.2938 16.5738L10.9003 15.5243Z" fill="#FED700"/>
<path fill-rule="evenodd" clip-rule="evenodd" d="M11.0986 15.9939L10.998 15.8207C10.9533 15.7438 10.924 15.6613 10.9072 15.5747L10.3845 16.4803C10.344 16.5501 10.3608 16.6284 10.4307 16.6689C10.4921 16.7053 10.5746 16.7011 10.6389 16.6745C10.6906 16.6535 10.7367 16.6186 10.7619 16.5725L11.0959 15.9925L11.0986 15.9939Z" fill="#FED700"/>
<path fill-rule="evenodd" clip-rule="evenodd" d="M10.9282 16.6827V16.6701C10.9282 16.617 10.9505 16.5681 10.9855 16.5332C11.0204 16.4982 11.0693 16.4759 11.1224 16.4759C11.1881 16.4759 11.2412 16.4228 11.2412 16.3571V16.2746C11.2412 16.2509 11.2342 16.2271 11.2216 16.2062L11.1168 16.0259L10.8527 16.4828C10.8122 16.5527 10.8303 16.6296 10.9002 16.6701C10.9086 16.6757 10.9184 16.6799 10.9282 16.6827Z" fill="#FED700"/>
<path fill-rule="evenodd" clip-rule="evenodd" d="M12.109 16.4831C12.1258 16.4775 12.1439 16.4747 12.1635 16.4747C12.2292 16.4747 12.2823 16.4216 12.2823 16.356V16.2735C12.2823 16.2498 12.2753 16.226 12.2627 16.205L12.1104 15.9409V16.4817L12.109 16.4831Z" fill="#FED700"/>
<path fill-rule="evenodd" clip-rule="evenodd" d="M11.4257 16.3572C11.4257 16.3894 11.4382 16.4187 11.4606 16.4411C11.4816 16.462 11.5109 16.476 11.5444 16.476H11.6129C11.6339 16.476 11.6534 16.4788 11.6716 16.4858V15.8164L11.6688 15.8206L11.4466 16.2063C11.434 16.2259 11.4271 16.251 11.4271 16.2748V16.3572H11.4257Z" fill="#FED700"/>
<path fill-rule="evenodd" clip-rule="evenodd" d="M11.6017 16.6673C11.6465 16.6827 11.687 16.7065 11.7205 16.7372C11.7415 16.7568 11.7596 16.7777 11.775 16.8015V16.6701C11.775 16.6254 11.7569 16.5849 11.7275 16.5555C11.6982 16.5262 11.6576 16.508 11.6129 16.508H11.5444C11.5305 16.508 11.5179 16.5066 11.5053 16.5024C11.564 16.5374 11.6003 16.5989 11.6017 16.6673Z" fill="#FED700"/>
<path fill-rule="evenodd" clip-rule="evenodd" d="M12.6415 16.6673C12.6862 16.6827 12.7267 16.7065 12.7603 16.7372C12.7812 16.7568 12.7994 16.7777 12.8148 16.8015V16.6701C12.8148 16.6254 12.7966 16.5849 12.7672 16.5555C12.7379 16.5262 12.6974 16.508 12.6526 16.508H12.5842C12.5702 16.508 12.5576 16.5066 12.545 16.5024C12.6037 16.5374 12.6401 16.5989 12.6415 16.6673Z" fill="#FED700"/>
<path fill-rule="evenodd" clip-rule="evenodd" d="M12.587 16.0317L12.7086 16.4844C12.7393 16.4942 12.7672 16.511 12.7896 16.5333C12.8231 16.5669 12.8455 16.6144 12.8469 16.6661C12.8832 16.6843 12.9224 16.6968 12.9629 16.6968C13.0649 16.6968 13.132 16.6228 13.1054 16.5208L12.8106 15.4224V15.4377C12.8106 15.5733 12.7756 15.7047 12.7086 15.822L12.587 16.0331V16.0317Z" fill="#FED700"/>
<path fill-rule="evenodd" clip-rule="evenodd" d="M12.6736 16.4775L12.5646 16.0708L12.4864 16.2064C12.4738 16.2259 12.4654 16.2511 12.4654 16.2748V16.3573C12.4654 16.423 12.5185 16.4761 12.5842 16.4761H12.6527C12.6596 16.4761 12.6666 16.4761 12.6736 16.4761V16.4775Z" fill="#FED700"/>
<path fill-rule="evenodd" clip-rule="evenodd" d="M11.5696 16.6704C11.5696 16.6089 11.5347 16.553 11.4788 16.5237C11.4271 16.4971 11.3935 16.444 11.3935 16.3853V16.2749C11.3935 16.2442 11.4019 16.2148 11.4187 16.1897L11.6409 15.8054C11.7052 15.6936 11.7387 15.5664 11.7387 15.4379V14.605C11.7387 14.5966 11.7457 14.5896 11.7541 14.5896C11.7625 14.5896 11.7695 14.5966 11.7695 14.605V15.4379C11.7695 15.5483 11.7457 15.6545 11.701 15.7537V16.4985C11.7178 16.5069 11.7345 16.5195 11.7471 16.5335C11.782 16.5684 11.8044 16.6173 11.8044 16.6704V16.676C11.831 16.6886 11.8589 16.6956 11.8883 16.6956C11.9162 16.6956 11.9428 16.69 11.9665 16.6788V16.6704C11.9665 16.595 12.0112 16.5279 12.0755 16.4957V15.8878L12.0364 15.8208C11.9693 15.7034 11.9344 15.572 11.9344 15.4365V15.0675C11.9344 15.0591 11.9414 15.0522 11.9497 15.0522C11.9581 15.0522 11.9651 15.0591 11.9651 15.0675V15.4365C11.9651 15.5664 11.9987 15.6922 12.0629 15.804L12.2851 16.1883C12.3019 16.2135 12.3103 16.2428 12.3103 16.2735V16.356C12.3103 16.4384 12.2432 16.5055 12.1608 16.5055C12.0713 16.5055 11.9987 16.5782 11.9987 16.669V16.8004C12.0224 16.7641 12.0532 16.7319 12.0895 16.7068C12.1426 16.6704 12.2069 16.6495 12.2753 16.6495H12.3298C12.3983 16.6495 12.4626 16.6704 12.5157 16.7068C12.552 16.7319 12.5828 16.7641 12.6065 16.8004V16.669C12.6065 16.6075 12.5716 16.5516 12.5157 16.5223C12.464 16.4957 12.4305 16.4426 12.4305 16.3839V16.2735C12.4305 16.2428 12.4389 16.2135 12.4556 16.1883L12.6778 15.804C12.7421 15.6922 12.7756 15.565 12.7756 15.4365V14.4331C12.7044 14.5644 12.6065 14.6804 12.4892 14.7727C12.4822 14.7783 12.4724 14.7769 12.4668 14.7699C12.4612 14.7629 12.4626 14.7531 12.4696 14.7475C12.594 14.6497 12.6974 14.5225 12.7673 14.3786C12.8343 14.2402 12.8721 14.0851 12.8721 13.9216V13.5709C12.8721 13.385 12.9196 13.2019 13.0118 13.0398C13.1012 12.8819 13.1474 12.7058 13.1474 12.5242V12.2055C13.1474 12.1147 13.2214 12.0392 13.3137 12.0392H13.4087C13.4758 12.0392 13.5345 11.9875 13.5414 11.9204H13.3598C13.3514 11.9204 13.3444 11.9135 13.3444 11.9051C13.3444 11.8967 13.3514 11.8897 13.3598 11.8897H13.779C13.7986 11.8897 13.8112 11.8939 13.8279 11.9009V11.8855C13.8279 11.7681 13.7329 11.6731 13.6155 11.6731H13.4995L13.4618 11.7388C13.4576 11.7458 13.4478 11.7486 13.4408 11.7444C13.4338 11.7402 13.431 11.7304 13.4352 11.7234L13.4758 11.6535C13.4758 11.5962 13.4506 11.5445 13.4129 11.5082C13.3738 11.4691 13.3206 11.4453 13.2634 11.4453H12.7631C12.7142 11.4453 12.668 11.4621 12.6303 11.4914L11.8379 12.0728C11.7415 12.1468 11.6563 12.2349 11.5864 12.3341C11.5207 12.4263 11.4676 12.5283 11.4299 12.6373C11.5081 12.6485 11.5682 12.7156 11.5682 12.7953C11.5682 12.8036 11.5612 12.8106 11.5529 12.8106C11.5445 12.8106 11.5375 12.8036 11.5375 12.7953C11.5375 12.7254 11.4802 12.6681 11.4103 12.6681H11.1364C10.8681 12.6681 10.6082 12.5828 10.3902 12.4249C10.0939 12.2139 9.80883 11.9791 9.51397 11.7667C9.29456 11.592 9.02346 11.497 8.74257 11.497H4.05548C4.05967 11.6451 4.12116 11.7793 4.22038 11.8771C4.3224 11.9791 4.46214 12.042 4.61586 12.042H7.08937C7.06002 12.0267 7.03207 12.0071 7.00971 11.9847C6.95801 11.933 6.92447 11.8632 6.92028 11.7863H6.09158C6.0832 11.7863 6.07621 11.7793 6.07621 11.7709C6.07621 11.7625 6.0832 11.7555 6.09158 11.7555H8.74536C8.96896 11.7555 9.18277 11.831 9.35745 11.9694L10.2434 12.6346C10.5048 12.8246 10.8164 12.9252 11.1392 12.9252H11.4131C11.4215 12.9252 11.4285 12.9322 11.4285 12.9406C11.4285 12.949 11.4215 12.956 11.4131 12.956H11.1392C10.8094 12.956 10.4908 12.8526 10.2253 12.6583C9.93879 12.4305 9.62995 12.2167 9.33928 11.9917C9.17019 11.8576 8.96337 11.7849 8.74676 11.7849H6.95242C6.95661 11.8534 6.98596 11.9149 7.03207 11.961C7.08098 12.0099 7.14946 12.0406 7.22353 12.0406H8.171C8.17939 12.0406 8.18638 12.0476 8.18638 12.056C8.18638 12.0644 8.17939 12.0714 8.171 12.0714H7.2389C7.24309 12.1399 7.27244 12.2013 7.31855 12.2475C7.36746 12.2964 7.43594 12.3271 7.51001 12.3271H8.45748C8.46587 12.3271 8.47286 12.3341 8.47286 12.3425C8.47286 12.3509 8.46587 12.3579 8.45748 12.3579H7.52538C7.52957 12.4263 7.55892 12.4878 7.60503 12.5339C7.65394 12.5828 7.72242 12.6136 7.79648 12.6136H8.74396C8.75235 12.6136 8.75934 12.6206 8.75934 12.629C8.75934 12.6373 8.75235 12.6443 8.74396 12.6443H7.81186C7.81605 12.7128 7.8454 12.7743 7.89151 12.8204C7.94042 12.8693 8.0089 12.9001 8.08436 12.9001H9.03184C9.04023 12.9001 9.04721 12.9071 9.04721 12.9154C9.04721 12.9238 9.04023 12.9308 9.03184 12.9308H8.09973C8.10393 12.9993 8.13327 13.0608 8.17939 13.1069C8.2283 13.1558 8.29678 13.1865 8.37224 13.1865H8.78169C8.80685 13.1865 8.83061 13.1838 8.85436 13.1768L9.21072 13.0817C9.2191 13.0789 9.22749 13.0845 9.23028 13.0929C9.23308 13.1013 9.22749 13.1097 9.2191 13.1125L8.86275 13.2075C8.8362 13.2145 8.80964 13.2173 8.78169 13.2173H8.4477C8.48404 13.3626 8.63776 13.4507 8.78169 13.4129L9.3826 13.2522C9.39099 13.2494 9.39937 13.255 9.40217 13.2634C9.40496 13.2718 9.39937 13.2802 9.39099 13.283L8.79148 13.4437C8.7803 13.4465 8.76912 13.4493 8.75794 13.4507C8.79148 13.5275 8.85576 13.5834 8.93681 13.6044C9.00389 13.6226 9.07796 13.6156 9.14364 13.5778L9.49859 13.3724C9.50558 13.3682 9.51536 13.371 9.51956 13.378C9.52375 13.385 9.52095 13.3948 9.51397 13.399L9.15901 13.6044C9.12966 13.6212 9.09892 13.6323 9.06678 13.6393C9.1073 13.6924 9.16041 13.7274 9.22609 13.7427C9.2764 13.7539 9.3295 13.7497 9.37981 13.733C9.41754 13.719 9.44968 13.698 9.47763 13.6701L9.63275 13.5136C9.63275 13.5136 9.64952 13.508 9.65511 13.5136C9.6607 13.5191 9.6607 13.5303 9.65511 13.5359L9.49859 13.6924C9.47344 13.7176 9.44269 13.7385 9.41055 13.7539C9.46086 13.807 9.53213 13.835 9.6048 13.835C9.67747 13.835 9.74455 13.8084 9.79765 13.7553L9.95417 13.5988C9.95417 13.5988 9.97093 13.5932 9.97652 13.5988C9.98211 13.6044 9.98211 13.6156 9.97652 13.6212L9.82001 13.7777C9.79485 13.8028 9.76551 13.8238 9.73337 13.8378C9.78368 13.8797 9.84656 13.9007 9.90805 13.9007C9.97792 13.9007 10.0478 13.8741 10.1009 13.821L10.3231 13.5988C10.3231 13.5988 10.3399 13.5932 10.3455 13.5988C10.351 13.6044 10.351 13.6156 10.3455 13.6212L10.1233 13.8434L10.1177 13.8489C10.168 13.8867 10.2295 13.9034 10.2896 13.9007C10.3552 13.8979 10.4195 13.8713 10.4698 13.821L10.692 13.5988C10.692 13.5988 10.7088 13.5932 10.7144 13.5988C10.72 13.6044 10.72 13.6156 10.7144 13.6212L10.4922 13.8434L10.4866 13.8489C10.5369 13.8867 10.5984 13.9034 10.6585 13.9007C10.7242 13.8979 10.7884 13.8713 10.8388 13.821L11.061 13.5988C11.061 13.5988 11.0777 13.5932 11.0833 13.5988C11.0889 13.6044 11.0889 13.6156 11.0833 13.6212L10.8611 13.8434L10.8555 13.8489C10.9058 13.8867 10.9673 13.9034 11.0274 13.9007C11.0931 13.8979 11.1574 13.8713 11.2077 13.821L11.3153 13.7134C11.3642 13.6631 11.3922 13.5946 11.3922 13.5233V13.2956C11.3922 13.2872 11.3991 13.2802 11.4075 13.2802C11.4159 13.2802 11.4229 13.2872 11.4229 13.2956V13.5233C11.4229 13.603 11.3922 13.6785 11.3363 13.7344L10.9212 14.1466V15.4267C10.9212 15.5566 10.9547 15.6824 11.019 15.7942L11.2412 16.1785C11.258 16.2037 11.2664 16.233 11.2664 16.2638V16.3462C11.2664 16.4287 11.1993 16.4957 11.1169 16.4957C11.0721 16.4957 11.0316 16.5139 11.0023 16.5433C10.9729 16.5726 10.9547 16.6131 10.9547 16.6578V16.7892C10.9785 16.7529 11.0092 16.7207 11.0456 16.6956C11.0987 16.6592 11.163 16.6383 11.2314 16.6383H11.2873C11.3558 16.6383 11.4201 16.6592 11.4732 16.6956C11.5095 16.7207 11.5403 16.7529 11.564 16.7892V16.6578L11.5696 16.6704ZM13.2508 11.6745C13.2424 11.7402 13.1865 11.7919 13.118 11.7919C13.0495 11.7919 12.9936 11.7402 12.9853 11.6745H12.8665C12.8581 11.6745 12.8511 11.6675 12.8511 11.6591C12.8511 11.6507 12.8581 11.6438 12.8665 11.6438H13.2759C13.3262 11.6438 13.3668 11.6843 13.3668 11.7346C13.3668 11.743 13.3598 11.75 13.3514 11.75C13.343 11.75 13.336 11.743 13.336 11.7346C13.336 11.701 13.3095 11.6745 13.2759 11.6745H13.2494H13.2508Z" fill="#FED700"/>
<path fill-rule="evenodd" clip-rule="evenodd" d="M-1.5791 0.77832H2.04312C2.04312 0.77832 2.0557 0.78391 2.0557 0.790897V3.154C2.0557 4.19511 1.27033 4.96931 0.232012 4.96931C-0.806302 4.96931 -1.59167 4.19511 -1.59167 3.154V0.790897C-1.59167 0.790897 -1.58608 0.77832 -1.5791 0.77832Z" fill="black"/>
<path fill-rule="evenodd" clip-rule="evenodd" d="M2.03053 0.803711H-1.56793V3.15564C-1.56793 4.18277 -0.793739 4.94579 0.230601 4.94579C1.25494 4.94579 2.02913 4.18277 2.02913 3.15564V0.803711H2.03053Z" fill="#FF0000"/>
<path fill-rule="evenodd" clip-rule="evenodd" d="M0.470973 1.05497H0.463985L0.469575 1.14021H0.497525C0.497525 1.14021 0.510102 1.1458 0.510102 1.15279V1.24642C0.510102 1.24642 0.504512 1.259 0.497525 1.259H0.47796L0.493332 1.47281C0.493332 1.47281 0.487742 1.48539 0.480755 1.48539H-0.0181387C-0.0181387 1.48539 -0.0307158 1.4798 -0.0307158 1.47281L-0.0153437 1.259H-0.0349082C-0.0349082 1.259 -0.0474854 1.25341 -0.0474854 1.24642V1.15279C-0.0474854 1.15279 -0.0418955 1.14021 -0.0349082 1.14021H-0.00695898L-0.00136913 1.05497H-0.00835643C-0.00835643 1.05497 -0.0209336 1.04938 -0.0209336 1.04239V0.969724C-0.0209336 0.969724 -0.0153437 0.957146 -0.00835643 0.957146H0.0237852C0.0237852 0.957146 0.0363623 0.962736 0.0363623 0.969724V0.975313H0.0433496V0.969724C0.0433496 0.969724 0.0489395 0.957146 0.0559268 0.957146H0.0880684C0.0880684 0.957146 0.100646 0.962736 0.100646 0.969724V0.975313H0.107633V0.969724C0.107633 0.969724 0.113223 0.957146 0.12021 0.957146H0.152352C0.152352 0.957146 0.157941 0.957146 0.159339 0.959941V0.945967H0.153749C0.146762 0.945967 0.141172 0.940377 0.141172 0.93339V0.860722C0.141172 0.860722 0.146762 0.848145 0.153749 0.848145H0.185891C0.185891 0.848145 0.198468 0.853734 0.198468 0.860722V0.866311H0.205455V0.860722C0.205455 0.860722 0.211045 0.848145 0.218032 0.848145H0.250174C0.250174 0.848145 0.262751 0.853734 0.262751 0.860722V0.866311H0.269738V0.860722C0.269738 0.860722 0.275328 0.848145 0.282315 0.848145H0.314457C0.314457 0.848145 0.327034 0.853734 0.327034 0.860722V0.93339C0.327034 0.93339 0.321444 0.945967 0.314457 0.945967H0.30747V0.959941C0.30747 0.959941 0.31306 0.957146 0.315855 0.957146H0.347996C0.347996 0.957146 0.360573 0.962736 0.360573 0.969724V0.975313H0.367561V0.969724C0.367561 0.969724 0.37315 0.957146 0.380138 0.957146H0.412279C0.412279 0.957146 0.424857 0.962736 0.424857 0.969724V0.975313H0.431844V0.969724C0.431844 0.969724 0.437434 0.957146 0.444421 0.957146H0.476563C0.476563 0.957146 0.48914 0.962736 0.48914 0.969724V1.04239C0.48914 1.04239 0.48355 1.05497 0.476563 1.05497H0.470973ZM0.315855 1.10667L0.320047 1.05497H0.311662L0.315855 1.10667ZM0.148159 1.10667L0.152352 1.05497H0.145364L0.149557 1.10667H0.148159Z" fill="black"/>
<path d="M0.486337 1.16553H-0.0223389V1.234H0.486337V1.16553Z" fill="#FED700"/>
<path fill-rule="evenodd" clip-rule="evenodd" d="M0.23199 1.32764C0.209631 1.3458 0.190066 1.36677 0.173297 1.39052C0.157925 1.41148 0.145348 1.43524 0.136963 1.4604H0.328415C0.318633 1.43524 0.306056 1.41288 0.292081 1.39052C0.275312 1.36677 0.255747 1.3458 0.233388 1.32764H0.23199Z" fill="#FED700"/>
<path fill-rule="evenodd" clip-rule="evenodd" d="M0.232029 1.26074C0.194297 1.2845 0.160758 1.31524 0.134207 1.35018C0.109052 1.38232 0.0908853 1.42005 0.0783081 1.46058H0.11045C0.120232 1.43123 0.135604 1.40189 0.153771 1.37673C0.173335 1.34878 0.197092 1.32363 0.225042 1.30267C0.229234 1.29847 0.236221 1.29847 0.240414 1.30267C0.268363 1.32363 0.29212 1.34878 0.311684 1.37673C0.329851 1.40189 0.343826 1.43123 0.355005 1.46058H0.387147C0.37457 1.42005 0.355005 1.38372 0.331249 1.35018C0.304697 1.31524 0.271158 1.2845 0.233426 1.26074H0.232029Z" fill="#FED700"/>
<path fill-rule="evenodd" clip-rule="evenodd" d="M0.191488 1.25781H0.00981787L-0.0055542 1.45905H0.0517417C0.0643189 1.41293 0.0866782 1.37101 0.114627 1.33467C0.136987 1.30533 0.162141 1.28017 0.191488 1.25781Z" fill="#FED700"/>
<path fill-rule="evenodd" clip-rule="evenodd" d="M0.454192 1.25781H0.272522C0.301869 1.28017 0.327023 1.30533 0.349382 1.33467C0.377332 1.37101 0.398293 1.41433 0.412268 1.45905H0.469564L0.454192 1.25781Z" fill="#FED700"/>
<path fill-rule="evenodd" clip-rule="evenodd" d="M0.0181885 1.14042H0.125793L0.120203 1.05518H0.0237783L0.0181885 1.14042ZM0.0475352 1.11387V1.09151C0.0475352 1.07893 0.0573174 1.07055 0.0684971 1.07055C0.0796768 1.07055 0.089459 1.08033 0.089459 1.09151V1.11387C0.089459 1.11387 0.0838692 1.12645 0.0768819 1.12645H0.0601123C0.0601123 1.12645 0.0475352 1.12086 0.0475352 1.11387Z" fill="#FED700"/>
<path fill-rule="evenodd" clip-rule="evenodd" d="M0.293509 1.14054L0.279534 0.946289H0.184507L0.170532 1.14054H0.293509ZM0.206866 1.03433V1.01197C0.206866 0.999393 0.216648 0.991008 0.227828 0.991008C0.239008 0.991008 0.24879 1.00079 0.24879 1.01197V1.03433C0.24879 1.03433 0.2432 1.04691 0.236213 1.04691H0.219443C0.219443 1.04691 0.206866 1.04132 0.206866 1.03433ZM0.206866 1.11398V1.09163C0.206866 1.07905 0.216648 1.07066 0.227828 1.07066C0.239008 1.07066 0.24879 1.08045 0.24879 1.09163V1.11398C0.24879 1.11398 0.2432 1.12656 0.236213 1.12656H0.219443C0.219443 1.12656 0.206866 1.12097 0.206866 1.11398Z" fill="#FED700"/>
<path fill-rule="evenodd" clip-rule="evenodd" d="M0.164904 0.922446H0.297663V0.873535H0.290676V0.879125C0.290676 0.879125 0.285086 0.891702 0.278099 0.891702H0.245957C0.245957 0.891702 0.23338 0.886112 0.23338 0.879125V0.873535H0.226393V0.879125C0.226393 0.879125 0.220803 0.891702 0.213815 0.891702H0.181674C0.181674 0.891702 0.169097 0.886112 0.169097 0.879125V0.873535H0.162109V0.922446H0.164904Z" fill="#FED700"/>
<path fill-rule="evenodd" clip-rule="evenodd" d="M0.32561 1.02987H0.458369V0.980957H0.451381V0.986547C0.451381 0.986547 0.445792 0.999124 0.438804 0.999124H0.406663C0.406663 0.999124 0.394085 0.993534 0.394085 0.986547V0.980957H0.387098V0.986547C0.387098 0.986547 0.381508 0.999124 0.374521 0.999124H0.342379C0.342379 0.999124 0.329802 0.993534 0.329802 0.986547V0.980957H0.322815V1.02987H0.32561Z" fill="#FED700"/>
<path fill-rule="evenodd" clip-rule="evenodd" d="M0.445807 1.14042L0.440217 1.05518H0.345189L0.3396 1.14042H0.447204H0.445807ZM0.374536 1.11387V1.09151C0.374536 1.08033 0.384318 1.07055 0.395498 1.07055C0.406678 1.07055 0.41646 1.08033 0.41646 1.09151V1.11387C0.41646 1.11387 0.41087 1.12645 0.403883 1.12645H0.387113C0.387113 1.12645 0.374536 1.12086 0.374536 1.11387Z" fill="#FED700"/>
<path fill-rule="evenodd" clip-rule="evenodd" d="M0.00560889 1.02987H0.139765V0.980957H0.132778V0.986547C0.132778 0.986547 0.127188 0.999124 0.120201 0.999124H0.0880591C0.0880591 0.999124 0.075482 0.993534 0.075482 0.986547V0.980957H0.0684946V0.986547C0.0684946 0.986547 0.0629048 0.999124 0.0559175 0.999124H0.0237759C0.0237759 0.999124 0.0111987 0.993534 0.0111987 0.986547V0.980957H0.00421143V1.02987H0.00560889Z" fill="#FED700"/>
<path fill-rule="evenodd" clip-rule="evenodd" d="M1.90615 1.05497H1.89916L1.90475 1.14021H1.9327C1.9327 1.14021 1.94528 1.1458 1.94528 1.15279V1.24642C1.94528 1.24642 1.93969 1.259 1.9327 1.259H1.91313L1.92851 1.47281C1.92851 1.47281 1.92292 1.48539 1.91593 1.48539H1.41564C1.41564 1.48539 1.40306 1.4798 1.40306 1.47281L1.41843 1.259H1.39887C1.39887 1.259 1.38629 1.25341 1.38629 1.24642V1.15279C1.38629 1.15279 1.39188 1.14021 1.39887 1.14021H1.42682L1.43241 1.05497H1.42542C1.42542 1.05497 1.41284 1.04938 1.41284 1.04239V0.969724C1.41284 0.969724 1.41843 0.957146 1.42542 0.957146H1.45756C1.45756 0.957146 1.47014 0.962736 1.47014 0.969724V0.975313H1.47713V0.969724C1.47713 0.969724 1.48272 0.957146 1.4897 0.957146H1.52185C1.52185 0.957146 1.53442 0.962736 1.53442 0.969724V0.975313H1.54141V0.969724C1.54141 0.969724 1.547 0.957146 1.55399 0.957146H1.58613C1.58613 0.957146 1.59172 0.957146 1.59312 0.959941V0.945967H1.58753C1.58054 0.945967 1.57495 0.940377 1.57495 0.93339V0.860722C1.57495 0.860722 1.58054 0.848145 1.58753 0.848145H1.61967C1.61967 0.848145 1.63224 0.853734 1.63224 0.860722V0.866311H1.63923V0.860722C1.63923 0.860722 1.64482 0.848145 1.65181 0.848145H1.68395C1.68395 0.848145 1.69653 0.853734 1.69653 0.860722V0.866311H1.70352V0.860722C1.70352 0.860722 1.70911 0.848145 1.71609 0.848145H1.74823C1.74823 0.848145 1.76081 0.853734 1.76081 0.860722V0.93339C1.76081 0.93339 1.75522 0.945967 1.74823 0.945967H1.74125V0.959941C1.74125 0.959941 1.74684 0.957146 1.74963 0.957146H1.78177C1.78177 0.957146 1.79435 0.962736 1.79435 0.969724V0.975313H1.80134V0.969724C1.80134 0.969724 1.80693 0.957146 1.81391 0.957146H1.84606C1.84606 0.957146 1.85863 0.962736 1.85863 0.969724V0.975313H1.86562V0.969724C1.86562 0.969724 1.87121 0.957146 1.8782 0.957146H1.91034C1.91034 0.957146 1.92292 0.962736 1.92292 0.969724V1.04239C1.92292 1.04239 1.91733 1.05497 1.91034 1.05497H1.90615ZM1.75103 1.10667L1.75522 1.05497H1.74823L1.75243 1.10667H1.75103ZM1.58333 1.10667L1.58753 1.05497H1.58054L1.58473 1.10667H1.58333Z" fill="black"/>
<path d="M1.92152 1.16553H1.41284V1.234H1.92152V1.16553Z" fill="#FED700"/>
<path fill-rule="evenodd" clip-rule="evenodd" d="M1.66723 1.32764C1.64487 1.3458 1.62531 1.36677 1.60854 1.39052C1.59317 1.41148 1.58059 1.43524 1.5722 1.4604H1.76366C1.75387 1.43524 1.74269 1.41288 1.72732 1.39052C1.71055 1.36677 1.69099 1.3458 1.66863 1.32764H1.66723Z" fill="#FED700"/>
<path fill-rule="evenodd" clip-rule="evenodd" d="M1.66721 1.26074C1.62948 1.2845 1.59594 1.31524 1.56939 1.35018C1.54423 1.38232 1.52607 1.42005 1.51349 1.46058H1.54563C1.55541 1.43123 1.57078 1.40189 1.58895 1.37673C1.60852 1.34878 1.63227 1.32363 1.66022 1.30267C1.66441 1.29847 1.6714 1.29847 1.67559 1.30267C1.70354 1.32363 1.7273 1.34878 1.74686 1.37673C1.76503 1.40189 1.77901 1.43123 1.79019 1.46058H1.82233C1.80975 1.42005 1.79019 1.38372 1.76643 1.35018C1.73988 1.31524 1.70634 1.2845 1.66861 1.26074H1.66721Z" fill="#FED700"/>
<path fill-rule="evenodd" clip-rule="evenodd" d="M1.62807 1.25781H1.4464L1.43103 1.45905H1.48833C1.5023 1.41293 1.52326 1.37101 1.55121 1.33467C1.57357 1.30533 1.59873 1.28017 1.62807 1.25781Z" fill="#FED700"/>
<path fill-rule="evenodd" clip-rule="evenodd" d="M1.88937 1.25781H1.7077C1.73705 1.28017 1.7622 1.30533 1.78456 1.33467C1.81251 1.37101 1.83347 1.41433 1.84745 1.45905H1.90474L1.88937 1.25781Z" fill="#FED700"/>
<path fill-rule="evenodd" clip-rule="evenodd" d="M1.45477 1.14042H1.56238L1.55679 1.05518H1.46176L1.45617 1.14042H1.45477ZM1.48412 1.11387V1.09151C1.48412 1.07893 1.4939 1.07055 1.50508 1.07055C1.51626 1.07055 1.52604 1.08033 1.52604 1.09151V1.11387C1.52604 1.11387 1.52045 1.12645 1.51347 1.12645H1.4967C1.4967 1.12645 1.48412 1.12086 1.48412 1.11387Z" fill="#FED700"/>
<path fill-rule="evenodd" clip-rule="evenodd" d="M1.72869 1.14054L1.71471 0.946289H1.61969L1.60571 1.14054H1.72869ZM1.64344 1.03433V1.01197C1.64344 0.999393 1.65183 0.991008 1.66441 0.991008C1.67698 0.991008 1.68537 1.00079 1.68537 1.01197V1.03433C1.68537 1.03433 1.67978 1.04691 1.67279 1.04691H1.65602C1.65602 1.04691 1.64344 1.04132 1.64344 1.03433ZM1.64344 1.11398V1.09163C1.64344 1.07905 1.65183 1.07066 1.66441 1.07066C1.67698 1.07066 1.68537 1.08045 1.68537 1.09163V1.11398C1.68537 1.11398 1.67978 1.12656 1.67279 1.12656H1.65602C1.65602 1.12656 1.64344 1.12097 1.64344 1.11398Z" fill="#FED700"/>
<path fill-rule="evenodd" clip-rule="evenodd" d="M1.60155 0.922446H1.73431V0.873535H1.72732V0.879125C1.72732 0.879125 1.72173 0.891702 1.71474 0.891702H1.6826C1.6826 0.891702 1.67003 0.886112 1.67003 0.879125V0.873535H1.66304V0.879125C1.66304 0.879125 1.65745 0.891702 1.65046 0.891702H1.61832C1.61832 0.891702 1.60574 0.886112 1.60574 0.879125V0.873535H1.59875V0.922446H1.60155Z" fill="#FED700"/>
<path fill-rule="evenodd" clip-rule="evenodd" d="M1.76085 1.02987H1.89361V0.980957H1.88662V0.986547C1.88662 0.986547 1.88103 0.999124 1.87405 0.999124H1.8419C1.8419 0.999124 1.82933 0.993534 1.82933 0.986547V0.980957H1.82234V0.986547C1.82234 0.986547 1.81675 0.999124 1.80976 0.999124H1.77762C1.77762 0.999124 1.76504 0.993534 1.76504 0.986547V0.980957H1.75806V1.02987H1.76085Z" fill="#FED700"/>
<path fill-rule="evenodd" clip-rule="evenodd" d="M1.88099 1.14042L1.8754 1.05518H1.78037L1.77478 1.14042H1.88238H1.88099ZM1.80972 1.11387V1.09151C1.80972 1.08033 1.8195 1.07055 1.83068 1.07055C1.84186 1.07055 1.85164 1.08033 1.85164 1.09151V1.11387C1.85164 1.11387 1.84605 1.12645 1.83906 1.12645H1.82229C1.82229 1.12645 1.80972 1.12086 1.80972 1.11387Z" fill="#FED700"/>
<path fill-rule="evenodd" clip-rule="evenodd" d="M1.44079 1.02987H1.57495V0.980957H1.56796V0.986547C1.56796 0.986547 1.56237 0.999124 1.55538 0.999124H1.52324C1.52324 0.999124 1.51066 0.993534 1.51066 0.986547V0.980957H1.50368V0.986547C1.50368 0.986547 1.49809 0.999124 1.4911 0.999124H1.45896C1.45896 0.999124 1.44638 0.993534 1.44638 0.986547V0.980957H1.43939V1.02987H1.44079Z" fill="#FED700"/>
<path fill-rule="evenodd" clip-rule="evenodd" d="M1.90615 2.48905H1.89916L1.90475 2.5743H1.9327C1.9327 2.5743 1.94528 2.57989 1.94528 2.58687V2.6805C1.94528 2.6805 1.93969 2.69308 1.9327 2.69308H1.91313L1.92851 2.90689C1.92851 2.90689 1.92292 2.91947 1.91593 2.91947H1.66578H1.41564C1.40865 2.91947 1.40306 2.91388 1.40306 2.90689L1.41843 2.69308H1.39887C1.39887 2.69308 1.38629 2.68749 1.38629 2.6805V2.58687C1.38629 2.58687 1.39188 2.5743 1.39887 2.5743H1.42682L1.43241 2.48905H1.42542C1.42542 2.48905 1.41284 2.48346 1.41284 2.47647V2.40381C1.41284 2.40381 1.41843 2.39123 1.42542 2.39123H1.45756C1.45756 2.39123 1.47014 2.39682 1.47014 2.40381V2.4094H1.47713V2.40381C1.47713 2.40381 1.48272 2.39123 1.4897 2.39123H1.52185C1.52185 2.39123 1.53442 2.39682 1.53442 2.40381V2.4094H1.54141V2.40381C1.54141 2.40381 1.547 2.39123 1.55399 2.39123H1.58613C1.58613 2.39123 1.59172 2.39123 1.59312 2.39402V2.38005H1.58753C1.58054 2.38005 1.57495 2.37446 1.57495 2.36747V2.2948C1.57495 2.2948 1.58054 2.28223 1.58753 2.28223H1.61967C1.61967 2.28223 1.63224 2.28782 1.63224 2.2948V2.30039H1.63923V2.2948C1.63923 2.2948 1.64482 2.28223 1.65181 2.28223H1.68395C1.68395 2.28223 1.69653 2.28782 1.69653 2.2948V2.30039H1.70352V2.2948C1.70352 2.2948 1.70911 2.28223 1.71609 2.28223H1.74823C1.74823 2.28223 1.76081 2.28782 1.76081 2.2948V2.36747C1.76081 2.36747 1.75522 2.38005 1.74823 2.38005H1.74125V2.39402C1.74125 2.39402 1.74684 2.39123 1.74963 2.39123H1.78177C1.78177 2.39123 1.79435 2.39682 1.79435 2.40381V2.4094H1.80134V2.40381C1.80134 2.40381 1.80693 2.39123 1.81391 2.39123H1.84606C1.84606 2.39123 1.85863 2.39682 1.85863 2.40381V2.4094H1.86562V2.40381C1.86562 2.40381 1.87121 2.39123 1.8782 2.39123H1.91034C1.91034 2.39123 1.92292 2.39682 1.92292 2.40381V2.47647C1.92292 2.47647 1.91733 2.48905 1.91034 2.48905H1.90615ZM1.75103 2.54076L1.75522 2.48905H1.74823L1.75243 2.54076H1.75103ZM1.58333 2.54076L1.58753 2.48905H1.58054L1.58473 2.54076H1.58333Z" fill="black"/>
<path d="M1.92152 2.59766H1.41284V2.66613H1.92152V2.59766Z" fill="#FED700"/>
<path fill-rule="evenodd" clip-rule="evenodd" d="M1.66723 2.76123C1.64487 2.7794 1.62531 2.80036 1.60854 2.82412C1.59317 2.84508 1.58059 2.86883 1.5722 2.89399H1.76366C1.75387 2.86883 1.74269 2.84648 1.72732 2.82412C1.71055 2.80036 1.69099 2.7794 1.66863 2.76123H1.66723Z" fill="#FED700"/>
<path fill-rule="evenodd" clip-rule="evenodd" d="M1.66721 2.69287C1.62948 2.71663 1.59594 2.74737 1.56939 2.78231C1.54423 2.81445 1.52607 2.85218 1.51349 2.89271H1.54563C1.55541 2.86336 1.57078 2.83401 1.58895 2.80886C1.60852 2.78091 1.63227 2.75576 1.66022 2.73479C1.66441 2.732 1.6714 2.732 1.67559 2.73479C1.70354 2.75576 1.7273 2.78091 1.74686 2.80886C1.76503 2.83401 1.77901 2.86336 1.79019 2.89271H1.82233C1.80975 2.85218 1.79019 2.81585 1.76643 2.78231C1.73988 2.74737 1.70634 2.71663 1.66861 2.69287H1.66721Z" fill="#FED700"/>
<path fill-rule="evenodd" clip-rule="evenodd" d="M1.62807 2.69141H1.4464L1.43103 2.89264H1.48833C1.5023 2.84652 1.52326 2.8046 1.55121 2.76827C1.57357 2.73892 1.59873 2.71377 1.62807 2.69141Z" fill="#FED700"/>
<path fill-rule="evenodd" clip-rule="evenodd" d="M1.88937 2.69141H1.7077C1.73705 2.71377 1.7622 2.73892 1.78456 2.76827C1.81251 2.8046 1.83347 2.84792 1.84745 2.89264H1.90474L1.88937 2.69141Z" fill="#FED700"/>
<path fill-rule="evenodd" clip-rule="evenodd" d="M1.45477 2.57255H1.56238L1.55679 2.4873H1.46176L1.45617 2.57255H1.45477ZM1.48412 2.5474V2.52504C1.48412 2.51246 1.4939 2.50407 1.50508 2.50407C1.51626 2.50407 1.52604 2.51246 1.52604 2.52504V2.5474C1.52604 2.5474 1.52045 2.55997 1.51347 2.55997H1.4967C1.4967 2.55997 1.48412 2.55438 1.48412 2.5474Z" fill="#FED700"/>
<path fill-rule="evenodd" clip-rule="evenodd" d="M1.72869 2.57273L1.71471 2.37988H1.61969L1.60571 2.57273H1.72869ZM1.64344 2.46653V2.44417C1.64344 2.43159 1.65183 2.4232 1.66441 2.4232C1.67698 2.4232 1.68537 2.43159 1.68537 2.44417V2.46653C1.68537 2.46653 1.67978 2.4791 1.67279 2.4791H1.65602C1.65602 2.4791 1.64344 2.47351 1.64344 2.46653ZM1.64344 2.54758V2.52522C1.64344 2.51404 1.65183 2.50426 1.66441 2.50426C1.67698 2.50426 1.68537 2.51264 1.68537 2.52522V2.54758C1.68537 2.54758 1.67978 2.56016 1.67279 2.56016H1.65602C1.65602 2.56016 1.64344 2.55457 1.64344 2.54758Z" fill="#FED700"/>
<path fill-rule="evenodd" clip-rule="evenodd" d="M1.60155 2.35458H1.73431V2.30566H1.72732V2.31125C1.72732 2.31125 1.72173 2.32383 1.71474 2.32383H1.6826C1.6826 2.32383 1.67003 2.31824 1.67003 2.31125V2.30566H1.66304V2.31125C1.66304 2.31125 1.65745 2.32383 1.65046 2.32383H1.61832C1.61832 2.32383 1.60574 2.31824 1.60574 2.31125V2.30566H1.59875V2.35458H1.60155Z" fill="#FED700"/>
<path fill-rule="evenodd" clip-rule="evenodd" d="M1.76085 2.46395H1.89361V2.41504H1.88662V2.42063C1.88662 2.42063 1.88103 2.43321 1.87405 2.43321H1.8419C1.8419 2.43321 1.82933 2.42762 1.82933 2.42063V2.41504H1.82234V2.42063C1.82234 2.42063 1.81675 2.43321 1.80976 2.43321H1.77762C1.77762 2.43321 1.76504 2.42762 1.76504 2.42063V2.41504H1.75806V2.46395H1.76085Z" fill="#FED700"/>
<path fill-rule="evenodd" clip-rule="evenodd" d="M1.88099 2.57255L1.8754 2.4873H1.78037L1.77478 2.57255H1.88238H1.88099ZM1.80972 2.5474V2.52504C1.80972 2.51386 1.8195 2.50407 1.83068 2.50407C1.84186 2.50407 1.85164 2.51246 1.85164 2.52504V2.5474C1.85164 2.5474 1.84605 2.55997 1.83906 2.55997H1.82229C1.82229 2.55997 1.80972 2.55438 1.80972 2.5474Z" fill="#FED700"/>
<path fill-rule="evenodd" clip-rule="evenodd" d="M1.44079 2.46395H1.57495V2.41504H1.56796V2.42063C1.56796 2.42063 1.56237 2.43321 1.55538 2.43321H1.52324C1.52324 2.43321 1.51066 2.42762 1.51066 2.42063V2.41504H1.50368V2.42063C1.50368 2.42063 1.49809 2.43321 1.4911 2.43321H1.45896C1.45896 2.43321 1.44638 2.42762 1.44638 2.42063V2.41504H1.43939V2.46395H1.44079Z" fill="#FED700"/>
<path fill-rule="evenodd" clip-rule="evenodd" d="M1.16549 3.92561L1.16968 3.9298L1.1054 3.9857L1.08583 3.96613C1.08583 3.96613 1.07325 3.96054 1.06766 3.96613L1.00198 4.03181C1.00198 4.03181 0.997792 4.04439 1.00198 4.04858L1.01596 4.06256L0.853853 4.2037C0.853853 4.2037 0.849661 4.21628 0.853853 4.22047L1.03133 4.39795L1.20881 4.57543C1.20881 4.57543 1.22139 4.57962 1.22558 4.57543L1.36672 4.41332L1.3807 4.42729C1.3807 4.42729 1.39327 4.43149 1.39886 4.42729L1.46454 4.36161C1.46454 4.36161 1.46874 4.34904 1.46454 4.34484L1.44498 4.32528L1.50088 4.261L1.50507 4.26519C1.50507 4.26519 1.51765 4.26938 1.52184 4.26519L1.57355 4.21348C1.57355 4.21348 1.57774 4.20091 1.57355 4.19532L1.55119 4.17296C1.55119 4.17296 1.53861 4.16876 1.53302 4.17296L1.52883 4.17715L1.52324 4.17156L1.52743 4.16737C1.52743 4.16737 1.53162 4.15479 1.52743 4.1506L1.50507 4.12824C1.50507 4.12824 1.49249 4.12265 1.4869 4.12824L1.48271 4.13243L1.47852 4.12684L1.48271 4.12265C1.48271 4.12265 1.4869 4.11007 1.48271 4.10588L1.46035 4.08352C1.46035 4.08352 1.45616 4.08072 1.45336 4.08072L1.46175 4.07094L1.46594 4.07513C1.46594 4.07513 1.47852 4.07933 1.48271 4.07513L1.53442 4.02343C1.53442 4.02343 1.53861 4.01085 1.53442 4.00526L1.51206 3.9829C1.51206 3.9829 1.49948 3.97871 1.49529 3.9829L1.4911 3.98709L1.48551 3.9815L1.4897 3.97731C1.4897 3.97731 1.49529 3.96473 1.4897 3.95914L1.46734 3.93679C1.46734 3.93679 1.45476 3.93259 1.44917 3.93679L1.44498 3.94098L1.43939 3.93679L1.44358 3.93259C1.44358 3.93259 1.44777 3.92002 1.44358 3.91443L1.42122 3.89207C1.42122 3.89207 1.40865 3.88787 1.40306 3.89207L1.35135 3.94377C1.35135 3.94377 1.34716 3.95635 1.35135 3.96054L1.35554 3.96473L1.34576 3.97312C1.34576 3.97312 1.34436 3.96753 1.34296 3.96613L1.32061 3.94377C1.32061 3.94377 1.30803 3.93818 1.30384 3.94377L1.29964 3.94796L1.29405 3.94237L1.29825 3.93818C1.29825 3.93818 1.30244 3.92561 1.29825 3.92002L1.27589 3.89766C1.27589 3.89766 1.26331 3.89346 1.25772 3.89766L1.25353 3.90185L1.24933 3.89766L1.25353 3.89346C1.25353 3.89346 1.25772 3.88089 1.25353 3.8753L1.23117 3.85294C1.23117 3.85294 1.21859 3.84875 1.213 3.85294L1.16129 3.90464C1.16129 3.90464 1.1571 3.91722 1.16129 3.92281L1.16549 3.92561ZM1.23815 4.07234L1.27169 4.03321L1.27728 4.0388L1.23815 4.07234ZM1.35694 4.19112L1.39048 4.15199L1.39607 4.15758L1.35694 4.19112Z" fill="black"/>
<path d="M1.07759 3.99162L1.02917 4.04004L1.38886 4.39973L1.43728 4.35131L1.07759 3.99162Z" fill="#FED700"/>
<path fill-rule="evenodd" clip-rule="evenodd" d="M1.14178 4.28748C1.14458 4.31683 1.14458 4.34478 1.13899 4.37412C1.13479 4.40067 1.12641 4.42583 1.11523 4.44959L1.04815 4.38111L0.979675 4.31403C1.00343 4.30285 1.02859 4.29587 1.05514 4.29028C1.08309 4.28469 1.11243 4.28469 1.14178 4.28748Z" fill="#FED700"/>
<path fill-rule="evenodd" clip-rule="evenodd" d="M1.18929 4.23994C1.19908 4.28326 1.20047 4.32798 1.19488 4.3727C1.18929 4.41323 1.17672 4.45375 1.15715 4.49009L1.13479 4.46773C1.14877 4.43978 1.15855 4.40903 1.16414 4.37829C1.16973 4.34475 1.17113 4.30981 1.16554 4.27488C1.16554 4.26929 1.15995 4.26509 1.15436 4.2637C1.11942 4.25811 1.08448 4.2595 1.05094 4.26509C1.0202 4.27068 0.989457 4.28047 0.961507 4.29444L0.939148 4.27208C0.976879 4.25252 1.01601 4.23994 1.05653 4.23435C1.09986 4.22736 1.14597 4.23016 1.18929 4.23994Z" fill="#FED700"/>
<path fill-rule="evenodd" clip-rule="evenodd" d="M1.22001 4.26807L1.34858 4.39663L1.21582 4.55035L1.17529 4.50983C1.19765 4.4679 1.21302 4.42318 1.22001 4.37707C1.2256 4.34073 1.2256 4.3044 1.22001 4.26807Z" fill="#FED700"/>
<path fill-rule="evenodd" clip-rule="evenodd" d="M1.03415 4.08203L1.16272 4.2106C1.12639 4.20501 1.09005 4.20501 1.05372 4.2106C1.0076 4.21759 0.962882 4.23156 0.920959 4.25532L0.880432 4.21479L1.03415 4.08203Z" fill="#FED700"/>
<path fill-rule="evenodd" clip-rule="evenodd" d="M1.42544 4.30714L1.34998 4.23168L1.41426 4.17578L1.48134 4.24286L1.42544 4.30714ZM1.42264 4.26801L1.43802 4.25264C1.4464 4.24426 1.4464 4.23168 1.43802 4.22329C1.42963 4.21491 1.41705 4.21491 1.40867 4.22329L1.3933 4.23867C1.3933 4.23867 1.3891 4.25124 1.3933 4.25683L1.40587 4.26941C1.40587 4.26941 1.41845 4.2736 1.42404 4.26941L1.42264 4.26801Z" fill="#FED700"/>
<path fill-rule="evenodd" clip-rule="evenodd" d="M1.2312 4.11154L1.37793 3.98438L1.44501 4.05145L1.31784 4.19819L1.2312 4.11154ZM1.36675 4.09757L1.38213 4.0822C1.39051 4.07381 1.39051 4.06124 1.38213 4.05285C1.37374 4.04447 1.36117 4.04447 1.35278 4.05285L1.33741 4.06822C1.33741 4.06822 1.33322 4.0808 1.33741 4.08499L1.34999 4.09757C1.34999 4.09757 1.36256 4.10316 1.36815 4.09757H1.36675ZM1.30946 4.15487L1.32483 4.13949C1.33322 4.13111 1.33322 4.11853 1.32483 4.11015C1.31645 4.10176 1.30387 4.10176 1.29548 4.11015L1.28011 4.12552C1.28011 4.12552 1.27452 4.1381 1.28011 4.14369L1.29269 4.15626C1.29269 4.15626 1.30527 4.16046 1.31086 4.15626L1.30946 4.15487Z" fill="#FED700"/>
<path fill-rule="evenodd" clip-rule="evenodd" d="M1.47577 4.04856L1.38214 3.95493L1.41568 3.92139L1.41987 3.92558L1.41568 3.92977C1.41568 3.92977 1.41149 3.94235 1.41568 3.94654L1.43804 3.9689C1.43804 3.9689 1.45062 3.97309 1.45481 3.9689L1.459 3.96471L1.46459 3.9703L1.4604 3.97449C1.4604 3.97449 1.45621 3.98707 1.4604 3.99126L1.48276 4.01362C1.48276 4.01362 1.49534 4.01781 1.49953 4.01362L1.50372 4.00943L1.50791 4.01362L1.47298 4.04716L1.47577 4.04856Z" fill="#FED700"/>
<path fill-rule="evenodd" clip-rule="evenodd" d="M1.28571 4.01193L1.19208 3.9183L1.22562 3.88477L1.22981 3.88896L1.22562 3.89315C1.22562 3.89315 1.22142 3.90573 1.22562 3.91132L1.24798 3.93368C1.24798 3.93368 1.26055 3.93787 1.26614 3.93368L1.27034 3.92948L1.27453 3.93368L1.27034 3.93787C1.27034 3.93787 1.26614 3.95045 1.27034 3.95464L1.29269 3.977C1.29269 3.977 1.30527 3.98119 1.30946 3.977L1.31366 3.97281L1.31785 3.977L1.28431 4.01054L1.28571 4.01193Z" fill="#FED700"/>
<path fill-rule="evenodd" clip-rule="evenodd" d="M1.1236 4.00365L1.18788 3.94775L1.25496 4.01483L1.19906 4.07912L1.1236 4.00365ZM1.19207 4.03579L1.20744 4.02042C1.21583 4.01204 1.21583 3.99946 1.20744 3.99108C1.19906 3.98269 1.18648 3.98269 1.1781 3.99108L1.16273 4.00645C1.16273 4.00645 1.15853 4.01902 1.16273 4.02461L1.1753 4.03719C1.1753 4.03719 1.18788 4.04278 1.19347 4.03719L1.19207 4.03579Z" fill="#FED700"/>
<path fill-rule="evenodd" clip-rule="evenodd" d="M1.51209 4.23843L1.41846 4.1434L1.452 4.10986L1.45759 4.11406L1.45339 4.11825C1.45339 4.11825 1.4492 4.13083 1.45339 4.13642L1.47575 4.15877C1.47575 4.15877 1.48833 4.16297 1.49392 4.15877L1.49811 4.15458L1.5023 4.15877L1.49811 4.16297C1.49811 4.16297 1.49392 4.17554 1.49811 4.18113L1.52047 4.20349C1.52047 4.20349 1.53305 4.20769 1.53864 4.20349L1.54283 4.1993L1.54842 4.20489L1.51348 4.23983L1.51209 4.23843Z" fill="#FED700"/>
<path fill-rule="evenodd" clip-rule="evenodd" d="M0.962858 3.94647C1.19344 3.74244 1.29545 3.45875 1.29545 3.1555V1.54283C1.29545 1.54283 1.29545 1.54004 1.29266 1.54004H-0.828687C-0.828687 1.54004 -0.831482 1.54004 -0.831482 1.54283V3.1555C-0.831482 3.46015 -0.730865 3.74244 -0.498886 3.94647C-0.299049 4.12255 -0.0321341 4.21059 0.233384 4.21059C0.498901 4.21059 0.763021 4.12394 0.962858 3.94786H0.964256L0.962858 3.94647Z" fill="black"/>
<path fill-rule="evenodd" clip-rule="evenodd" d="M-0.807678 3.15561C-0.807678 3.84316 -0.287823 4.18553 0.230636 4.18553C0.490564 4.18553 0.749094 4.10029 0.944739 3.9284C1.13899 3.75651 1.26895 3.49798 1.26895 3.15421V1.5625H-0.807678V3.15421V3.15561Z" fill="white"/>
<path fill-rule="evenodd" clip-rule="evenodd" d="M0.231996 2.37143C0.0894554 2.37143 -0.0139567 2.27082 -0.0125592 2.12827V1.77332C-0.0125592 1.77332 -0.0069694 1.76074 1.79047e-05 1.76074H0.465373C0.465373 1.76074 0.47795 1.76633 0.47795 1.77332V2.12827C0.47795 2.27082 0.374538 2.37143 0.231996 2.37143Z" fill="black"/>
<path fill-rule="evenodd" clip-rule="evenodd" d="M0.232029 2.34749C0.360596 2.34749 0.452828 2.25805 0.452828 2.12949V1.78711H0.0112305V2.12949C0.0112305 2.25945 0.103463 2.34749 0.232029 2.34749Z" fill="#003399"/>
<path fill-rule="evenodd" clip-rule="evenodd" d="M0.107667 1.8291C0.145398 1.8291 0.174745 1.85985 0.174745 1.89618C0.174745 1.93251 0.144001 1.96326 0.107667 1.96326C0.0713325 1.96326 0.0405884 1.93251 0.0405884 1.89618C0.0405884 1.85985 0.0713325 1.8291 0.107667 1.8291Z" fill="black"/>
<path fill-rule="evenodd" clip-rule="evenodd" d="M0.107652 1.85303C0.131409 1.85303 0.150974 1.87259 0.150974 1.89635C0.150974 1.92011 0.131409 1.93967 0.107652 1.93967C0.0838955 1.93967 0.0643311 1.92011 0.0643311 1.89635C0.0643311 1.87259 0.0838955 1.85303 0.107652 1.85303Z" fill="white"/>
<path fill-rule="evenodd" clip-rule="evenodd" d="M0.356385 1.8291C0.394116 1.8291 0.423463 1.85985 0.423463 1.89618C0.423463 1.93251 0.392719 1.96326 0.356385 1.96326C0.320051 1.96326 0.289307 1.93251 0.289307 1.89618C0.289307 1.85985 0.320051 1.8291 0.356385 1.8291Z" fill="black"/>
<path fill-rule="evenodd" clip-rule="evenodd" d="M0.356371 1.85303C0.380127 1.85303 0.399692 1.87259 0.399692 1.89635C0.399692 1.92011 0.380127 1.93967 0.356371 1.93967C0.332614 1.93967 0.313049 1.92011 0.313049 1.89635C0.313049 1.87259 0.332614 1.85303 0.356371 1.85303Z" fill="white"/>
<path fill-rule="evenodd" clip-rule="evenodd" d="M0.107667 2.07812C0.145398 2.07812 0.174745 2.10887 0.174745 2.1452C0.174745 2.18154 0.144001 2.21228 0.107667 2.21228C0.0713325 2.21228 0.0405884 2.18154 0.0405884 2.1452C0.0405884 2.10887 0.0713325 2.07812 0.107667 2.07812Z" fill="black"/>
<path fill-rule="evenodd" clip-rule="evenodd" d="M0.107652 2.10303C0.131409 2.10303 0.150974 2.12259 0.150974 2.14635C0.150974 2.17011 0.131409 2.18967 0.107652 2.18967C0.0838955 2.18967 0.0643311 2.17011 0.0643311 2.14635C0.0643311 2.12259 0.0838955 2.10303 0.107652 2.10303Z" fill="white"/>
<path fill-rule="evenodd" clip-rule="evenodd" d="M0.356385 2.07812C0.394116 2.07812 0.423463 2.10887 0.423463 2.1452C0.423463 2.18154 0.392719 2.21228 0.356385 2.21228C0.320051 2.21228 0.289307 2.18154 0.289307 2.1452C0.289307 2.10887 0.320051 2.07812 0.356385 2.07812Z" fill="black"/>
<path fill-rule="evenodd" clip-rule="evenodd" d="M0.356371 2.10303C0.380127 2.10303 0.399692 2.12259 0.399692 2.14635C0.399692 2.17011 0.380127 2.18967 0.356371 2.18967C0.332614 2.18967 0.313049 2.17011 0.313049 2.14635C0.313049 2.12259 0.332614 2.10303 0.356371 2.10303Z" fill="white"/>
<path fill-rule="evenodd" clip-rule="evenodd" d="M0.231995 1.95361C0.269727 1.95361 0.299073 1.98296 0.299073 2.02069C0.299073 2.05842 0.268329 2.08777 0.231995 2.08777C0.195661 2.08777 0.164917 2.05703 0.164917 2.02069C0.164917 1.98436 0.195661 1.95361 0.231995 1.95361Z" fill="black"/>
<path fill-rule="evenodd" clip-rule="evenodd" d="M0.231981 1.97754C0.255738 1.97754 0.275302 1.9971 0.275302 2.02086C0.275302 2.04462 0.255738 2.06418 0.231981 2.06418C0.208224 2.06418 0.18866 2.04462 0.18866 2.02086C0.18866 1.9971 0.208224 1.97754 0.231981 1.97754Z" fill="white"/>
<path fill-rule="evenodd" clip-rule="evenodd" d="M0.231996 3.98716C0.0894554 3.98716 -0.0139567 3.88654 -0.0125592 3.744V3.38904C-0.0125592 3.38904 -0.0069694 3.37646 1.79047e-05 3.37646H0.465373C0.465373 3.37646 0.47795 3.38205 0.47795 3.38904V3.744C0.47795 3.88654 0.374538 3.98716 0.231996 3.98716Z" fill="black"/>
<path fill-rule="evenodd" clip-rule="evenodd" d="M0.232029 3.96315C0.360596 3.96315 0.452828 3.87371 0.452828 3.74375V3.40137H0.0112305V3.74375C0.0112305 3.87371 0.103463 3.96315 0.232029 3.96315Z" fill="#003399"/>
<path fill-rule="evenodd" clip-rule="evenodd" d="M0.107667 3.44482C0.145398 3.44482 0.174745 3.47557 0.174745 3.5119C0.174745 3.54824 0.144001 3.57898 0.107667 3.57898C0.0713325 3.57898 0.0405884 3.54824 0.0405884 3.5119C0.0405884 3.47557 0.0713325 3.44482 0.107667 3.44482Z" fill="black"/>
<path fill-rule="evenodd" clip-rule="evenodd" d="M0.107652 3.46826C0.131409 3.46826 0.150974 3.48783 0.150974 3.51158C0.150974 3.53534 0.131409 3.5549 0.107652 3.5549C0.0838955 3.5549 0.0643311 3.53534 0.0643311 3.51158C0.0643311 3.48783 0.0838955 3.46826 0.107652 3.46826Z" fill="white"/>
<path fill-rule="evenodd" clip-rule="evenodd" d="M0.356385 3.44482C0.394116 3.44482 0.423463 3.47557 0.423463 3.5119C0.423463 3.54824 0.392719 3.57898 0.356385 3.57898C0.320051 3.57898 0.289307 3.54824 0.289307 3.5119C0.289307 3.47557 0.320051 3.44482 0.356385 3.44482Z" fill="black"/>
<path fill-rule="evenodd" clip-rule="evenodd" d="M0.356371 3.46826C0.380127 3.46826 0.399692 3.48783 0.399692 3.51158C0.399692 3.53534 0.380127 3.5549 0.356371 3.5549C0.332614 3.5549 0.313049 3.53534 0.313049 3.51158C0.313049 3.48783 0.332614 3.46826 0.356371 3.46826Z" fill="white"/>
<path fill-rule="evenodd" clip-rule="evenodd" d="M0.107667 3.69336C0.145398 3.69336 0.174745 3.7241 0.174745 3.76044C0.174745 3.79677 0.144001 3.82752 0.107667 3.82752C0.0713325 3.82752 0.0405884 3.79677 0.0405884 3.76044C0.0405884 3.7241 0.0713325 3.69336 0.107667 3.69336Z" fill="black"/>
<path fill-rule="evenodd" clip-rule="evenodd" d="M0.107652 3.71875C0.131409 3.71875 0.150974 3.73831 0.150974 3.76207C0.150974 3.78583 0.131409 3.80539 0.107652 3.80539C0.0838955 3.80539 0.0643311 3.78583 0.0643311 3.76207C0.0643311 3.73831 0.0838955 3.71875 0.107652 3.71875Z" fill="white"/>
<path fill-rule="evenodd" clip-rule="evenodd" d="M0.356385 3.69336C0.394116 3.69336 0.423463 3.7241 0.423463 3.76044C0.423463 3.79677 0.392719 3.82752 0.356385 3.82752C0.320051 3.82752 0.289307 3.79677 0.289307 3.76044C0.289307 3.7241 0.320051 3.69336 0.356385 3.69336Z" fill="black"/>
<path fill-rule="evenodd" clip-rule="evenodd" d="M0.356371 3.71875C0.380127 3.71875 0.399692 3.73831 0.399692 3.76207C0.399692 3.78583 0.380127 3.80539 0.356371 3.80539C0.332614 3.80539 0.313049 3.78583 0.313049 3.76207C0.313049 3.73831 0.332614 3.71875 0.356371 3.71875Z" fill="white"/>
<path fill-rule="evenodd" clip-rule="evenodd" d="M0.231995 3.56934C0.269727 3.56934 0.299073 3.60008 0.299073 3.63641C0.299073 3.67275 0.268329 3.70349 0.231995 3.70349C0.195661 3.70349 0.164917 3.67275 0.164917 3.63641C0.164917 3.60008 0.195661 3.56934 0.231995 3.56934Z" fill="black"/>
<path fill-rule="evenodd" clip-rule="evenodd" d="M0.231981 3.59277C0.255738 3.59277 0.275302 3.61234 0.275302 3.63609C0.275302 3.65985 0.255738 3.67942 0.231981 3.67942C0.208224 3.67942 0.18866 3.65985 0.18866 3.63609C0.18866 3.61234 0.208224 3.59277 0.231981 3.59277Z" fill="white"/>
<path fill-rule="evenodd" clip-rule="evenodd" d="M0.231996 3.17905C0.0894554 3.17905 -0.0139567 3.07843 -0.0125592 2.93589V2.58094C-0.0125592 2.58094 -0.0069694 2.56836 1.79047e-05 2.56836H0.465373C0.465373 2.56836 0.47795 2.57395 0.47795 2.58094V2.93589C0.47795 3.07843 0.374538 3.17905 0.231996 3.17905Z" fill="black"/>
<path fill-rule="evenodd" clip-rule="evenodd" d="M0.232029 3.15553C0.360596 3.15553 0.452828 3.06609 0.452828 2.93613V2.59375H0.0112305V2.93613C0.0112305 3.06609 0.103463 3.15553 0.232029 3.15553Z" fill="#003399"/>
<path fill-rule="evenodd" clip-rule="evenodd" d="M0.107667 2.63721C0.145398 2.63721 0.174745 2.66795 0.174745 2.70429C0.174745 2.74062 0.144001 2.77136 0.107667 2.77136C0.0713325 2.77136 0.0405884 2.74062 0.0405884 2.70429C0.0405884 2.66795 0.0713325 2.63721 0.107667 2.63721Z" fill="black"/>
<path fill-rule="evenodd" clip-rule="evenodd" d="M0.107652 2.66064C0.131409 2.66064 0.150974 2.68021 0.150974 2.70397C0.150974 2.72772 0.131409 2.74729 0.107652 2.74729C0.0838955 2.74729 0.0643311 2.72772 0.0643311 2.70397C0.0643311 2.68021 0.0838955 2.66064 0.107652 2.66064Z" fill="white"/>
<path fill-rule="evenodd" clip-rule="evenodd" d="M0.356385 2.63721C0.394116 2.63721 0.423463 2.66795 0.423463 2.70429C0.423463 2.74062 0.392719 2.77136 0.356385 2.77136C0.320051 2.77136 0.289307 2.74062 0.289307 2.70429C0.289307 2.66795 0.320051 2.63721 0.356385 2.63721Z" fill="black"/>
<path fill-rule="evenodd" clip-rule="evenodd" d="M0.356371 2.66064C0.380127 2.66064 0.399692 2.68021 0.399692 2.70397C0.399692 2.72772 0.380127 2.74729 0.356371 2.74729C0.332614 2.74729 0.313049 2.72772 0.313049 2.70397C0.313049 2.68021 0.332614 2.66064 0.356371 2.66064Z" fill="white"/>
<path fill-rule="evenodd" clip-rule="evenodd" d="M0.107667 2.88574C0.145398 2.88574 0.174745 2.91649 0.174745 2.95282C0.174745 2.98915 0.144001 3.0199 0.107667 3.0199C0.0713325 3.0199 0.0405884 2.98915 0.0405884 2.95282C0.0405884 2.91649 0.0713325 2.88574 0.107667 2.88574Z" fill="black"/>
<path fill-rule="evenodd" clip-rule="evenodd" d="M0.107652 2.91113C0.131409 2.91113 0.150974 2.9307 0.150974 2.95445C0.150974 2.97821 0.131409 2.99778 0.107652 2.99778C0.0838955 2.99778 0.0643311 2.97821 0.0643311 2.95445C0.0643311 2.9307 0.0838955 2.91113 0.107652 2.91113Z" fill="white"/>
<path fill-rule="evenodd" clip-rule="evenodd" d="M0.356385 2.88574C0.394116 2.88574 0.423463 2.91649 0.423463 2.95282C0.423463 2.98915 0.392719 3.0199 0.356385 3.0199C0.320051 3.0199 0.289307 2.98915 0.289307 2.95282C0.289307 2.91649 0.320051 2.88574 0.356385 2.88574Z" fill="black"/>
<path fill-rule="evenodd" clip-rule="evenodd" d="M0.356371 2.91113C0.380127 2.91113 0.399692 2.9307 0.399692 2.95445C0.399692 2.97821 0.380127 2.99778 0.356371 2.99778C0.332614 2.99778 0.313049 2.97821 0.313049 2.95445C0.313049 2.9307 0.332614 2.91113 0.356371 2.91113Z" fill="white"/>
<path fill-rule="evenodd" clip-rule="evenodd" d="M0.231995 2.76123C0.269727 2.76123 0.299073 2.79197 0.299073 2.82831C0.299073 2.86464 0.268329 2.89539 0.231995 2.89539C0.195661 2.89539 0.164917 2.86464 0.164917 2.82831C0.164917 2.79197 0.195661 2.76123 0.231995 2.76123Z" fill="black"/>
<path fill-rule="evenodd" clip-rule="evenodd" d="M0.231981 2.78516C0.255738 2.78516 0.275302 2.80472 0.275302 2.82848C0.275302 2.85223 0.255738 2.8718 0.231981 2.8718C0.208224 2.8718 0.18866 2.85223 0.18866 2.82848C0.18866 2.80472 0.208224 2.78516 0.231981 2.78516Z" fill="white"/>
<path fill-rule="evenodd" clip-rule="evenodd" d="M0.880434 3.17905C0.737893 3.17905 0.634481 3.07843 0.635878 2.93589V2.58094C0.635878 2.58094 0.641468 2.56836 0.648455 2.56836H1.11381C1.11381 2.56836 1.12639 2.57395 1.12639 2.58094V2.93589C1.12639 3.07843 1.02298 3.17905 0.880434 3.17905Z" fill="black"/>
<path fill-rule="evenodd" clip-rule="evenodd" d="M0.880406 3.15553C1.00897 3.15553 1.1012 3.06609 1.1012 2.93613V2.59375H0.659607V2.93613C0.659607 3.06609 0.751839 3.15553 0.880406 3.15553Z" fill="#003399"/>
<path fill-rule="evenodd" clip-rule="evenodd" d="M0.756043 2.63721C0.793774 2.63721 0.823121 2.66795 0.823121 2.70429C0.823121 2.74062 0.792377 2.77136 0.756043 2.77136C0.719709 2.77136 0.688965 2.74062 0.688965 2.70429C0.688965 2.66795 0.719709 2.63721 0.756043 2.63721Z" fill="black"/>
<path fill-rule="evenodd" clip-rule="evenodd" d="M0.756029 2.66064C0.779786 2.66064 0.79935 2.68021 0.79935 2.70397C0.79935 2.72772 0.779786 2.74729 0.756029 2.74729C0.732272 2.74729 0.712708 2.72772 0.712708 2.70397C0.712708 2.68021 0.732272 2.66064 0.756029 2.66064Z" fill="white"/>
<path fill-rule="evenodd" clip-rule="evenodd" d="M1.00482 2.63721C1.04255 2.63721 1.0719 2.66795 1.0719 2.70429C1.0719 2.74062 1.04116 2.77136 1.00482 2.77136C0.968488 2.77136 0.937744 2.74062 0.937744 2.70429C0.937744 2.66795 0.968488 2.63721 1.00482 2.63721Z" fill="black"/>
<path fill-rule="evenodd" clip-rule="evenodd" d="M1.00481 2.66064C1.02856 2.66064 1.04813 2.68021 1.04813 2.70397C1.04813 2.72772 1.02856 2.74729 1.00481 2.74729C0.981051 2.74729 0.961487 2.72772 0.961487 2.70397C0.961487 2.68021 0.981051 2.66064 1.00481 2.66064Z" fill="white"/>
<path fill-rule="evenodd" clip-rule="evenodd" d="M0.756043 2.88574C0.793774 2.88574 0.823121 2.91649 0.823121 2.95282C0.823121 2.98915 0.792377 3.0199 0.756043 3.0199C0.719709 3.0199 0.688965 2.98915 0.688965 2.95282C0.688965 2.91649 0.719709 2.88574 0.756043 2.88574Z" fill="black"/>
<path fill-rule="evenodd" clip-rule="evenodd" d="M0.756029 2.91113C0.779786 2.91113 0.79935 2.9307 0.79935 2.95445C0.79935 2.97821 0.779786 2.99778 0.756029 2.99778C0.732272 2.99778 0.712708 2.97821 0.712708 2.95445C0.712708 2.9307 0.732272 2.91113 0.756029 2.91113Z" fill="white"/>
<path fill-rule="evenodd" clip-rule="evenodd" d="M1.00482 2.88574C1.04255 2.88574 1.0719 2.91649 1.0719 2.95282C1.0719 2.98915 1.04116 3.0199 1.00482 3.0199C0.968488 3.0199 0.937744 2.98915 0.937744 2.95282C0.937744 2.91649 0.968488 2.88574 1.00482 2.88574Z" fill="black"/>
<path fill-rule="evenodd" clip-rule="evenodd" d="M1.00481 2.91113C1.02856 2.91113 1.04813 2.9307 1.04813 2.95445C1.04813 2.97821 1.02856 2.99778 1.00481 2.99778C0.981051 2.99778 0.961487 2.97821 0.961487 2.95445C0.961487 2.9307 0.981051 2.91113 1.00481 2.91113Z" fill="white"/>
<path fill-rule="evenodd" clip-rule="evenodd" d="M0.880433 2.76123C0.918164 2.76123 0.947511 2.79197 0.947511 2.82831C0.947511 2.86464 0.916767 2.89539 0.880433 2.89539C0.844099 2.89539 0.813354 2.86464 0.813354 2.82831C0.813354 2.79197 0.844099 2.76123 0.880433 2.76123Z" fill="black"/>
<path fill-rule="evenodd" clip-rule="evenodd" d="M0.880419 2.78516C0.904175 2.78516 0.92374 2.80472 0.92374 2.82848C0.92374 2.85223 0.904175 2.8718 0.880419 2.8718C0.856662 2.8718 0.837097 2.85223 0.837097 2.82848C0.837097 2.80472 0.856662 2.78516 0.880419 2.78516Z" fill="white"/>
</g>
</g>
<rect x="0.25" y="0.25" width="23.5" height="23.5" rx="11.75" stroke="#E5E3E1" stroke-width="0.5"/>
<defs>
<clipPath id="clip0_16335_12160">
<rect width="24" height="24" rx="12" fill="white"/>
</clipPath>
</defs>
</svg>
