<svg width="24" height="24" viewBox="0 0 24 24" fill="none" xmlns="http://www.w3.org/2000/svg">
<g clip-path="url(#clip0_16335_3398)">
<path d="M12.6632 23.9818C19.2805 23.6153 24.3477 17.9539 23.9812 11.3366C23.6147 4.71932 17.9533 -0.347943 11.336 0.0185443C4.71873 0.385032 -0.348533 6.04649 0.0179548 12.6638C0.384442 19.281 6.0459 24.3483 12.6632 23.9818Z" fill="white"/>
<mask id="mask0_16335_3398" style="mask-type:luminance" maskUnits="userSpaceOnUse" x="-1" y="0" width="25" height="25">
<path d="M12.6632 23.9818C19.2805 23.6153 24.3477 17.9539 23.9812 11.3366C23.6147 4.71932 17.9533 -0.347943 11.336 0.0185443C4.71873 0.385032 -0.348533 6.04649 0.0179548 12.6638C0.384442 19.281 6.0459 24.3483 12.6632 23.9818Z" fill="white"/>
</mask>
<g mask="url(#mask0_16335_3398)">
<path d="M36 0H0V8.00047H36V0Z" fill="white"/>
<path d="M36 15.9995H0V24H36V15.9995Z" fill="#FF0000"/>
<path d="M36 8.00049H0V16.001H36V8.00049Z" fill="#003399"/>
<path fill-rule="evenodd" clip-rule="evenodd" d="M14.5057 5.50732V11.1028C14.5057 14.3686 12.45 17.2935 9.40075 18.4283L9.22467 18.4939L9.04859 18.4283C5.99933 17.2935 3.94366 14.3686 3.94366 11.1028V5.50732H14.5057Z" fill="white"/>
<path fill-rule="evenodd" clip-rule="evenodd" d="M14.0012 6.01172V11.1027C14.0012 14.233 12.0056 16.9203 9.22464 17.9558C6.44369 16.9203 4.44812 14.2344 4.44812 11.1027V6.01172H14.0012Z" fill="#FF0000"/>
<path fill-rule="evenodd" clip-rule="evenodd" d="M13.1207 14.5684C12.2795 16.1182 10.8932 17.334 9.22461 17.9559C7.55605 17.3354 6.16976 16.1182 5.32849 14.5684C5.63733 14.1799 6.11247 13.9312 6.6463 13.9312C7.01802 13.9312 7.3618 14.0513 7.63989 14.2554C7.87327 13.607 8.49514 13.1416 9.22461 13.1416C9.95409 13.1416 10.5746 13.6056 10.8093 14.2554C11.0874 14.0513 11.4312 13.9312 11.8029 13.9312C12.3368 13.9312 12.8133 14.1799 13.1207 14.5684Z" fill="#FF0000"/>
<path fill-rule="evenodd" clip-rule="evenodd" d="M9.63972 17.7853C9.50276 17.8454 9.36581 17.9027 9.22467 17.9544C9.08492 17.9027 8.94518 17.8454 8.80962 17.7853V11.3332H8.44768C7.70283 11.3332 6.97476 11.4408 6.28162 11.642C6.29839 11.4045 6.30817 11.1641 6.30817 10.9224C6.30817 10.6806 6.29839 10.4346 6.28162 10.1943C6.97476 10.3955 7.70283 10.5031 8.44768 10.5031H8.80962V9.18112C8.12627 9.19649 7.45968 9.3027 6.82243 9.48856C6.8392 9.25099 6.84899 9.01063 6.84899 8.76887C6.84899 8.52711 6.8392 8.28116 6.82243 8.04079C7.45828 8.22526 8.12347 8.33146 8.80543 8.34823C8.78307 7.69422 8.67826 7.05698 8.50078 6.44629C8.73835 6.46306 8.97872 6.47284 9.22048 6.47284C9.46224 6.47284 9.70819 6.46306 9.94855 6.44629C9.77108 7.05698 9.66627 7.69562 9.64391 8.34963C10.3259 8.33286 10.9911 8.22805 11.6269 8.04219C11.6101 8.28255 11.6004 8.52571 11.6004 8.77027C11.6004 9.01482 11.6087 9.25239 11.6269 9.48996C10.9897 9.3041 10.3231 9.19929 9.63972 9.18252V10.5045H10.0017C10.7479 10.5045 11.476 10.3969 12.1677 10.1957C12.151 10.436 12.1412 10.6792 12.1412 10.9238C12.1412 11.1683 12.151 11.4059 12.1677 11.6434C11.4746 11.4422 10.7479 11.3346 10.0017 11.3346H9.63972V17.7867V17.7853Z" fill="white"/>
<path fill-rule="evenodd" clip-rule="evenodd" d="M13.1207 14.5684C12.2795 16.1182 10.8932 17.334 9.22461 17.9559C7.55605 17.3354 6.16976 16.1182 5.32849 14.5684C5.63733 14.1799 6.11247 13.9312 6.6463 13.9312C7.01802 13.9312 7.3618 14.0513 7.63989 14.2554C7.87327 13.607 8.49514 13.1416 9.22461 13.1416C9.95409 13.1416 10.5746 13.6056 10.8093 14.2554C11.0874 14.0513 11.4312 13.9312 11.8029 13.9312C12.3368 13.9312 12.8133 14.1799 13.1207 14.5684Z" fill="#003399"/>
</g>
</g>
<rect x="0.25" y="0.25" width="23.5" height="23.5" rx="11.75" stroke="#E5E3E1" stroke-width="0.5"/>
<defs>
<clipPath id="clip0_16335_3398">
<rect width="24" height="24" rx="12" fill="white"/>
</clipPath>
</defs>
</svg>
