<svg width="24" height="24" viewBox="0 0 24 24" fill="none" xmlns="http://www.w3.org/2000/svg">
<path fill-rule="evenodd" clip-rule="evenodd" d="M7.32614 19.1857C8.60732 19.1857 12.5063 19.2735 12.5063 19.3792C12.5063 19.4867 8.60693 19.5747 7.32614 19.5747C7.07739 19.5747 6.87542 19.4867 6.87542 19.3792C6.87542 19.2735 7.07739 19.1857 7.32614 19.1857ZM20.9895 4.01617C21.0449 4.06915 21.073 4.11192 21.0649 4.17346C21.0577 4.23512 21.0215 4.26636 20.7625 4.37055C18.6054 5.2346 16.088 6.67293 14.6583 7.51072C12.9 8.28958 11.2206 9.40133 11.159 9.42841C11.0245 9.50492 11.1238 9.61553 11.2061 9.56919C14.1753 7.77386 17.658 6.55068 21.505 5.54894C21.6896 5.50119 21.79 5.50119 21.8214 5.53837C21.8557 5.579 21.8698 5.62593 21.8747 5.67725C21.8806 5.7414 21.8227 5.77502 21.6644 5.83157C17.7032 7.16888 14.7393 8.41583 12.7748 9.57162L12.5242 9.72185C12.5242 9.72185 12.3207 9.83317 12.318 9.96195C12.3174 10.0101 12.427 10.0164 12.427 10.0164C13.4083 10.0323 14.7199 10.0847 15.3433 10.1183C15.3433 10.1183 15.2549 10.4052 14.6573 10.6367C14.3272 10.7646 14.0155 10.7866 13.7103 10.7896L13.3463 10.7899C13.2521 10.7887 13.1725 10.8743 13.2478 10.9669C13.2858 11.0124 14.1842 12.3281 17.4525 12.6286C17.4616 12.8406 17.4599 13.0513 17.4484 13.2579C15.1786 13.3397 13.0289 13.4636 13.0289 13.6033C13.0289 13.7404 15.1319 13.8634 17.3735 13.9444C17.3343 14.1799 17.2837 14.4115 17.2214 14.6375C15.0109 14.7194 12.96 14.8405 12.96 14.9764C12.96 15.1078 14.8743 15.2249 16.9957 15.3077C16.8982 15.5541 16.7881 15.7924 16.6641 16.0218C14.8437 16.1014 13.3378 16.2072 13.3378 16.3232C13.3378 16.4318 14.6532 16.5316 16.3109 16.6091C16.2173 16.7472 16.121 16.8816 16.0183 17.0094C15.9106 17.1481 15.7944 17.2857 15.6693 17.421C14.6331 17.4929 13.9228 17.5737 13.9228 17.6602C13.9228 17.7359 14.4317 17.8057 15.216 17.8682C14.7883 18.2532 14.282 18.6134 13.6846 18.9271C13.6846 18.9271 12.9823 18.3774 12.4024 17.7349C11.8851 17.162 10.7883 15.6522 10.5297 15.3143C10.2718 14.9765 10.1016 14.8776 9.79952 14.9761C9.39508 15.1059 8.92462 15.1714 8.77874 15.1714C8.63429 15.1714 8.5556 15.1203 8.79795 15.0324C9.03952 14.9445 9.99534 14.534 10.4665 13.6857C10.9947 12.7311 10.5297 11.4131 10.5297 11.4131C10.3527 12.1171 9.94906 12.3809 9.94906 12.3809C10.0798 11.7266 9.93769 11.1331 9.58174 10.7168L9.38357 11.5445C9.38357 11.5445 9.259 11.5394 8.95259 11.7739C8.64606 12.0085 8.5607 12.3511 8.5607 12.3511C8.80279 12.4397 9.09312 12.2195 9.09312 12.2195C8.7224 13.4813 8.19076 14.5078 7.80253 15.0507C7.41521 15.5935 7.09521 15.7981 6.70671 15.9414C6.37913 16.0612 6.27116 15.9214 6.27116 15.9214C5.98488 15.6956 5.77076 15.49 5.54737 15.2449C5.54737 15.2449 5.52946 15.2162 5.5905 15.2176C5.74972 15.2196 6.03364 14.9716 6.09599 14.8681C6.1675 14.7512 6.15926 14.6606 6.12384 14.654C6.0888 14.6487 6.0275 14.7424 5.72018 14.9185C5.41325 15.0949 5.27312 14.9723 5.17103 14.8744C5.09233 14.7969 5.1692 14.7001 5.21926 14.6396C5.26514 14.5857 6.88541 11.8406 11.1718 8.9563C16.7892 5.17626 20.3765 4.15623 20.5815 4.0821C20.7173 4.03327 20.9387 3.96971 20.9895 4.01617ZM5.53542 18.0419C6.87542 18.0419 9.84392 18.085 12.0265 18.1527C12.1293 18.2618 12.2324 18.3681 12.335 18.4687C11.6742 18.4907 10.9244 18.5104 10.1605 18.5273L9.39463 18.5431C7.86466 18.5728 6.37833 18.5901 5.53542 18.5901C5.09843 18.5901 4.74366 18.4665 4.74366 18.3156C4.74366 18.1644 5.09843 18.0419 5.53542 18.0419ZM4.40458 16.6322C5.47702 16.6322 7.37031 16.6539 9.31908 16.6917L10.0997 16.7076C10.3597 16.7132 10.6189 16.7191 10.8754 16.7252C11.0024 16.8931 11.1312 17.0624 11.2591 17.2274C8.72444 17.2897 5.83399 17.3292 4.40458 17.3292C3.84824 17.3292 3.39765 17.1733 3.39765 16.9815C3.39765 16.7889 3.84824 16.6322 4.40458 16.6322ZM3.72471 15.2544C4.02261 15.2544 4.38131 15.2562 4.77961 15.2591C4.84627 15.3144 5.39333 15.8865 5.55556 16.0308C4.83529 16.0377 4.20536 16.042 3.72471 16.042C3.09739 16.042 2.58797 15.8651 2.58797 15.6489C2.58797 15.431 3.09739 15.2544 3.72471 15.2544ZM9.87791 15.4231C9.90418 15.4454 9.95046 15.4926 10.0324 15.5994C10.0331 15.5999 10.2336 15.8677 10.2974 15.9537C9.34941 15.9741 8.38863 15.9916 7.48288 16.0055C7.70144 15.8347 8.30876 15.647 8.68301 15.647C8.89111 15.647 9.41882 15.5709 9.86693 15.4256C9.87464 15.4234 9.87229 15.4247 9.87791 15.4231ZM3.35399 13.8912C3.81503 13.8912 4.40562 13.8951 5.07752 13.9009C4.93438 14.0983 4.81791 14.268 4.73033 14.4033C4.71425 14.4284 4.72379 14.415 4.73752 14.3987L4.733 14.403L4.67296 14.4852C4.63556 14.5416 4.609 14.5955 4.59075 14.6467L4.56928 14.7216C4.29156 14.7239 4.03228 14.7253 3.79568 14.7261L3.35399 14.7268C2.68706 14.7268 2.14641 14.5407 2.14641 14.3087C2.14641 14.0784 2.68706 13.8912 3.35399 13.8912ZM3.22993 12.5491C3.95373 12.5491 4.98536 12.5574 6.16314 12.5727C5.89843 12.8668 5.66915 13.1389 5.47203 13.3854C4.58536 13.3953 3.80693 13.4009 3.22993 13.4009C2.55059 13.4009 2 13.2102 2 12.9745C2 12.7405 2.55059 12.5491 3.22993 12.5491ZM3.35399 11.223C4.30523 11.223 5.79699 11.2372 7.45477 11.2631C7.17085 11.5287 6.91203 11.7841 6.6732 12.0298C5.33359 12.0486 4.15333 12.0589 3.35399 12.0589C2.68706 12.0589 2.14641 11.8723 2.14641 11.6405C2.14641 11.41 2.68706 11.223 3.35399 11.223ZM14.4541 11.4321C16.095 11.4938 17.2288 11.5649 17.2288 11.6405C17.2288 11.7021 16.4928 11.7602 15.3482 11.8125C14.9869 11.6924 14.6944 11.5615 14.4541 11.4321ZM3.72471 9.90848C4.87817 9.90848 6.87216 9.93177 8.95961 9.97026C8.67085 10.1998 8.39765 10.4262 8.14131 10.648C6.36131 10.678 4.72601 10.6952 3.72471 10.6952C3.09739 10.6952 2.58797 10.5189 2.58797 10.302C2.58797 10.0847 3.09739 9.90848 3.72471 9.90848ZM15.746 10.1784C16.394 10.2175 16.7871 10.2593 16.7871 10.302C16.7871 10.3472 16.3518 10.3914 15.64 10.432C15.6842 10.3608 15.708 10.3027 15.7184 10.2695L15.746 10.1784ZM4.40458 8.62091C5.72523 8.62091 8.29111 8.65405 10.6719 8.70858C10.4075 8.88904 10.1527 9.06832 9.90824 9.24652C7.76039 9.29047 5.58536 9.31744 4.40458 9.31744C3.84824 9.31744 3.39765 9.16169 3.39765 8.96924C3.39765 8.7769 3.84824 8.62091 4.40458 8.62091ZM15.0995 8.86255C15.6461 8.89641 15.9778 8.93193 15.9778 8.96924C15.9778 9.01711 15.4418 9.06202 14.5988 9.1036C14.763 9.02282 14.9256 8.94346 15.0995 8.86255ZM5.53542 7.36066C6.36418 7.36066 7.81629 7.37723 9.32033 7.40579L10.074 7.42105C10.9522 7.43997 11.8157 7.46271 12.551 7.48837C12.3916 7.58674 12.2271 7.69259 12.0637 7.79595C9.87791 7.8639 6.88366 7.90822 5.53542 7.90822C5.09843 7.90822 4.74366 7.7855 4.74366 7.63414C4.74366 7.48279 5.09843 7.36066 5.53542 7.36066ZM7.32614 6.37603C8.60693 6.37603 12.5063 6.46288 12.5063 6.57039C12.5063 6.67731 8.60732 6.76451 7.32614 6.76451C7.07739 6.76451 6.87542 6.67731 6.87542 6.57039C6.87542 6.46288 7.07739 6.37603 7.32614 6.37603Z" fill="#4E0930"/>
</svg>
