<svg width="48" height="48" viewBox="0 0 48 48" fill="none" xmlns="http://www.w3.org/2000/svg">
<path d="M12.6394 18.2002C11.5194 18.2002 10.6094 19.1102 10.6094 20.2302C10.6094 21.3502 11.5194 22.2602 12.6394 22.2602C13.7594 22.2602 14.6694 21.3502 14.6694 20.2302C14.6694 19.1102 13.7594 18.2002 12.6394 18.2002Z" fill="#DF0000"/>
<path d="M23.9988 18.2002C22.8788 18.2002 21.9688 19.1102 21.9688 20.2302C21.9688 21.3502 22.8788 22.2602 23.9988 22.2602C25.1188 22.2602 26.0288 21.3502 26.0288 20.2302C26.0288 19.1102 25.1188 18.2002 23.9988 18.2002Z" fill="#DF0000"/>
<path d="M35.3581 18.2002C34.2381 18.2002 33.3281 19.1102 33.3281 20.2302C33.3281 21.3502 34.2381 22.2602 35.3581 22.2602C36.4781 22.2602 37.3881 21.3502 37.3881 20.2302C37.3881 19.1102 36.4781 18.2002 35.3581 18.2002Z" fill="#DF0000"/>
<path d="M41.5506 34.5799H23.6406C23.0906 34.5799 22.6406 34.1299 22.6406 33.5799C22.6406 33.0299 23.0906 32.5799 23.6406 32.5799H41.5506C42.4106 32.5799 43.1006 31.8899 43.1006 31.0399V9.42988C43.1006 8.56988 42.4006 7.87988 41.5506 7.87988H6.43062C5.58062 7.87988 4.89062 8.57988 4.89062 9.42988V31.0399C4.89062 31.8899 5.58062 32.5799 6.43062 32.5799H12.3506C12.9006 32.5799 13.3506 33.0299 13.3506 33.5799C13.3506 34.1299 12.9006 34.5799 12.3506 34.5799H6.43062C4.48062 34.5799 2.89062 32.9899 2.89062 31.0399V9.42988C2.89062 7.46988 4.48062 5.87988 6.43062 5.87988H41.5506C43.5106 5.87988 45.1006 7.46988 45.1006 9.42988V31.0399C45.1006 32.9899 43.5106 34.5799 41.5506 34.5799Z" fill="#323232"/>
<path d="M12.3516 42.1203C12.1916 42.1203 12.0316 42.0803 11.8816 42.0003C11.5516 41.8303 11.3516 41.4903 11.3516 41.1203V33.5703C11.3516 33.0203 11.8016 32.5703 12.3516 32.5703C12.9016 32.5703 13.3516 33.0203 13.3516 33.5703V39.2503L23.0816 32.7403C23.5416 32.4303 24.1616 32.5603 24.4716 33.0103C24.7816 33.4703 24.6516 34.0903 24.1916 34.4003L12.9016 41.9503C12.7316 42.0603 12.5416 42.1203 12.3416 42.1203H12.3516Z" fill="#323232"/>
</svg>
