<svg width="24" height="24" viewBox="0 0 24 24" fill="none" xmlns="http://www.w3.org/2000/svg">
<g clip-path="url(#clip0_16335_9086)">
<path d="M13.9226 23.8439C20.4644 22.782 24.9068 16.618 23.8449 10.0762C22.783 3.53441 16.619 -0.907932 10.0772 0.153951C3.53541 1.21583 -0.906935 7.37983 0.154948 13.9216C1.21683 20.4634 7.38083 24.9058 13.9226 23.8439Z" fill="white"/>
<mask id="mask0_16335_9086" style="mask-type:luminance" maskUnits="userSpaceOnUse" x="-1" y="-1" width="26" height="26">
<path d="M13.9226 23.8439C20.4644 22.782 24.9068 16.618 23.8449 10.0762C22.783 3.53441 16.619 -0.907932 10.0772 0.153951C3.53541 1.21583 -0.906935 7.37983 0.154948 13.9216C1.21683 20.4634 7.38083 24.9058 13.9226 23.8439Z" fill="white"/>
</mask>
<g mask="url(#mask0_16335_9086)">
<path d="M23.1672 4.5542H0.830139V19.4455H23.1672V4.5542Z" fill="white"/>
<path fill-rule="evenodd" clip-rule="evenodd" d="M2.16748 7.11719C2.16748 7.11719 2.37989 9.02892 3.5314 9.73463C4.68151 10.4404 5.46689 10.2461 5.97277 9.74721C6.29279 9.43138 6.42415 9.22596 6.52057 9.08342C6.63237 8.91712 6.79587 8.75501 7.01108 8.75082C6.79308 8.63763 6.53734 8.75361 6.41576 8.93948C6.19916 9.27207 6.0105 9.8632 5.63318 9.23853C5.50602 9.02752 5.4571 8.87799 5.37605 8.83886C5.27823 8.79135 5.26286 8.86122 5.32435 8.9269C5.4585 9.06804 5.3467 9.16028 5.2419 9.01354C5.06162 8.7634 5.06582 8.71728 4.71086 8.73405C4.4705 8.74523 4.47748 8.77737 4.37826 8.85144C4.27904 8.9241 4.2469 8.9283 4.07502 8.78995C3.90313 8.6516 3.80531 8.58871 3.41402 8.53142C3.02273 8.47272 2.41204 8.14712 2.16748 7.12138V7.11719ZM4.81008 8.97441C4.81707 8.86821 4.87436 8.93109 4.91489 8.97162C5.00712 9.06525 5.12032 9.2008 4.99734 9.17425C4.88275 9.1491 4.8003 9.10018 4.80868 8.97302L4.81008 8.97441ZM3.49926 9.04568C3.46712 8.95485 3.46991 8.82209 3.56075 8.76619C3.59988 8.74243 3.56774 8.71309 3.52581 8.72008C3.48668 8.72567 3.45314 8.75361 3.41961 8.85563C3.35532 9.04708 3.50625 9.19801 3.59429 9.35732C3.66975 9.49287 3.60966 9.5879 3.48529 9.45235C3.36091 9.31679 3.36091 9.13512 3.34554 8.93109C3.33017 8.72706 3.45594 8.62645 3.58311 8.65998C3.71028 8.69352 3.68093 8.72846 3.6446 8.92411C3.61246 9.10158 3.53979 9.16167 3.49786 9.04568H3.49926ZM3.78155 8.78296C3.88636 8.75781 3.9157 8.82209 3.90453 8.91153C3.89894 8.95066 3.89474 8.97861 3.93946 8.96184C4.16026 8.87519 4.13231 8.9255 4.00374 9.05826C3.94785 9.11695 3.91011 9.1491 3.90313 9.20779C3.89474 9.28744 3.94785 9.28605 3.98278 9.21058C4.01772 9.13512 4.06104 9.10857 4.1365 9.13512C4.21197 9.16167 4.23013 9.21478 4.12812 9.31959C3.75919 9.6969 3.85561 9.43558 3.85701 9.10158C3.85701 9.00516 3.84304 9.01214 3.8081 9.04149C3.755 9.08621 3.77037 9.02193 3.79413 8.95764C3.81648 8.89895 3.80391 8.8738 3.76757 8.87659C3.68932 8.88218 3.72565 8.80113 3.78155 8.78436V8.78296ZM3.65438 9.23294C3.65438 8.99957 3.73823 8.97441 3.70609 9.22456C3.69211 9.33356 3.65857 9.43697 3.65438 9.23294ZM4.09458 9.46353C4.18402 9.37269 4.29442 9.24971 4.31119 9.11975C4.33075 8.96882 4.45652 8.98699 4.5222 9.07224C4.69689 9.30002 4.39364 9.52641 4.15747 9.55296C4.05685 9.56414 4.05545 9.50824 4.09598 9.46353H4.09458ZM4.27066 9.77935C4.27066 9.77935 4.67313 9.73603 4.86318 9.80031C5.10355 9.88276 5.05324 9.90373 4.93026 10.0309C4.87436 10.0882 4.82545 10.1329 4.62003 10.0714C4.3587 9.99316 4.17982 9.92469 4.17982 9.92469C4.17982 9.92469 4.25529 9.90931 4.48587 9.94984C4.71505 9.99037 4.97358 9.95683 4.76676 9.86879C4.55993 9.77935 4.37407 9.78774 4.27206 9.77935H4.27066ZM4.03589 9.66616C4.30001 9.66336 4.1393 9.93028 3.9199 9.8618C3.79832 9.82407 3.75639 9.7514 3.85002 9.70249C3.90452 9.67314 3.98278 9.66616 4.03589 9.66616Z" fill="#FF0000"/>
<path fill-rule="evenodd" clip-rule="evenodd" d="M2.07248 7.25122C2.07248 7.25122 2.26673 9.20487 3.52025 9.91618C4.77378 10.6275 5.61644 10.2376 5.96581 9.91059C6.20058 9.69119 6.4116 9.37816 6.55414 9.17273C6.62122 9.07631 6.67153 8.98827 6.76935 8.92398C6.8518 8.86948 6.94683 8.84293 7.03068 8.92119C7.13549 9.01901 6.93984 9.03997 6.84342 9.026C6.71904 9.00783 6.69808 9.04975 6.63939 9.14618C6.45073 9.45502 6.10695 9.95671 5.81069 10.1537C5.72405 10.211 5.67933 10.253 5.79113 10.3312C6.32077 10.7002 6.60026 10.7085 7.19418 11.2731C7.8999 11.9453 8.75375 12.0808 9.23308 11.9956C9.7138 11.9104 10.1708 11.8097 10.6683 12.2947C11.0805 12.6971 12.8818 12.7307 13.329 12.2947C13.8265 11.8083 14.2835 11.9104 14.7642 11.9956C15.245 12.0808 16.0974 11.9453 16.8031 11.2731C17.397 10.7071 17.6765 10.6988 18.2062 10.3312C18.318 10.253 18.2733 10.211 18.1866 10.1537C17.8903 9.95671 17.5466 9.45362 17.3579 9.14618C17.2992 9.04975 17.2783 9.00783 17.1539 9.026C17.0589 9.03997 16.8632 9.02041 16.9666 8.92119C17.0491 8.84293 17.1441 8.86948 17.228 8.92398C17.3272 8.98827 17.3775 9.07631 17.4432 9.17273C17.5857 9.37816 17.7967 9.69119 18.0315 9.91059C18.3823 10.2376 19.2235 10.6275 20.477 9.91618C21.7306 9.20487 21.9248 7.25122 21.9248 7.25122C22.0184 8.52151 21.18 9.71495 20.3345 10.5856C19.823 11.111 19.3451 11.5806 19.1047 12.3771C18.8504 13.2198 18.3655 14.6703 15.6418 16.1391C13.2256 17.4415 10.7717 17.4415 8.35547 16.1391C5.63321 14.6717 5.1483 13.2212 4.89256 12.3771C4.6522 11.5806 4.17287 11.111 3.66279 10.5856C2.81733 9.71495 1.97885 8.52012 2.07248 7.25122ZM14.1521 12.106C14.0948 12.0739 14.0096 12.0529 13.9327 12.1284C13.8 12.2583 13.9775 12.3645 14.1004 12.3617C14.2402 12.3575 14.3073 12.1912 14.1521 12.106ZM9.84656 12.106C9.69284 12.1912 9.75992 12.3575 9.89827 12.3617C10.0212 12.3645 10.1973 12.2569 10.066 12.1284C9.9891 12.0529 9.90386 12.0753 9.84656 12.106Z" fill="#FF0000"/>
<path fill-rule="evenodd" clip-rule="evenodd" d="M21.8312 7.11719C21.8312 7.11719 21.6188 9.02892 20.4673 9.73463C19.3172 10.4404 18.5318 10.2461 18.0273 9.74721C17.7073 9.43138 17.5759 9.22596 17.4795 9.08342C17.3677 8.91712 17.2042 8.75501 16.989 8.75082C17.207 8.63763 17.4628 8.75361 17.5843 8.93948C17.8009 9.27207 17.9896 9.8632 18.3669 9.23853C18.4941 9.02752 18.543 8.87799 18.624 8.83886C18.7219 8.79135 18.7372 8.86122 18.6757 8.9269C18.543 9.06804 18.6534 9.16028 18.7582 9.01354C18.9385 8.7634 18.9343 8.71728 19.2892 8.73405C19.5296 8.74523 19.5226 8.77737 19.6218 8.85144C19.7211 8.9241 19.7532 8.9283 19.9251 8.78995C20.097 8.6516 20.1948 8.58871 20.5861 8.53142C20.9774 8.47272 21.5881 8.14712 21.8326 7.12138L21.8312 7.11719ZM19.1886 8.97441C19.1816 8.86821 19.1229 8.93109 19.0838 8.97162C18.9916 9.06525 18.877 9.2008 19.0014 9.17425C19.116 9.1491 19.1984 9.10018 19.19 8.97302L19.1886 8.97441ZM20.4994 9.04568C20.5316 8.95485 20.5288 8.82209 20.4379 8.76619C20.3988 8.74243 20.431 8.71309 20.4729 8.72008C20.512 8.72567 20.5456 8.75361 20.5791 8.85563C20.642 9.04708 20.4924 9.19801 20.4044 9.35732C20.3289 9.49287 20.389 9.5879 20.5134 9.45235C20.6378 9.31679 20.6378 9.13512 20.6532 8.93109C20.6685 8.72706 20.5428 8.62645 20.4156 8.65998C20.2884 8.69352 20.3178 8.72846 20.3527 8.92411C20.3848 9.10158 20.4575 9.16167 20.4994 9.04568ZM20.2171 8.78296C20.1109 8.75781 20.083 8.82209 20.0942 8.91153C20.0998 8.95066 20.104 8.97861 20.0592 8.96184C19.8384 8.87519 19.8664 8.9255 19.995 9.05826C20.0509 9.11695 20.0886 9.1491 20.0956 9.20779C20.104 9.28744 20.0509 9.28605 20.0159 9.21058C19.981 9.13512 19.9377 9.10857 19.8622 9.13512C19.7867 9.16167 19.7686 9.21478 19.8706 9.31959C20.2395 9.6969 20.1431 9.43558 20.1417 9.10158C20.1417 9.00516 20.1557 9.01214 20.1906 9.04149C20.2437 9.08621 20.2283 9.02193 20.2046 8.95764C20.1822 8.89895 20.1948 8.8738 20.2311 8.87659C20.3094 8.88218 20.273 8.80113 20.2171 8.78436V8.78296ZM20.3443 9.23294C20.3443 8.99957 20.2605 8.97441 20.2926 9.22456C20.3066 9.33356 20.3401 9.43697 20.3443 9.23294ZM19.9041 9.46353C19.8147 9.37269 19.7043 9.24971 19.6875 9.11975C19.6679 8.96882 19.5422 8.98699 19.4765 9.07224C19.3018 9.30002 19.6051 9.52641 19.8412 9.55296C19.9405 9.56414 19.9432 9.50824 19.9027 9.46353H19.9041ZM19.728 9.77935C19.728 9.77935 19.3256 9.73603 19.1355 9.80031C18.8952 9.88276 18.9455 9.90373 19.0684 10.0309C19.1243 10.0882 19.1732 10.1329 19.3787 10.0714C19.64 9.99316 19.8189 9.92469 19.8189 9.92469C19.8189 9.92469 19.7434 9.90931 19.5128 9.94984C19.2836 9.99037 19.0251 9.95683 19.2319 9.86879C19.4388 9.77935 19.6246 9.78774 19.7266 9.77935H19.728ZM19.9628 9.66616C19.6987 9.66336 19.8594 9.93028 20.0788 9.8618C20.2004 9.82407 20.2423 9.7514 20.1487 9.70249C20.0942 9.67314 20.0159 9.66616 19.9628 9.66616Z" fill="#FF0000"/>
</g>
</g>
<rect x="0.25" y="0.25" width="23.5" height="23.5" rx="11.75" stroke="#E5E3E1" stroke-width="0.5"/>
<defs>
<clipPath id="clip0_16335_9086">
<rect width="24" height="24" rx="12" fill="white"/>
</clipPath>
</defs>
</svg>
