<svg width="48" height="48" viewBox="0 0 48 48" fill="none" xmlns="http://www.w3.org/2000/svg">
<path d="M12.7606 12.4004H12.1406V35.5504H12.7606C14.3706 35.5504 15.6806 34.2404 15.6806 32.6204V15.3204C15.6806 13.7104 14.3706 12.4004 12.7606 12.4004Z" fill="#8DE2E0"/>
<path d="M36.4794 12.4004H35.8594V35.5504H36.4794C38.0894 35.5504 39.3994 34.2404 39.3994 32.6204V15.3204C39.3994 13.7104 38.0894 12.4004 36.4794 12.4004Z" fill="#8DE2E0"/>
<path d="M42.33 16.3896H40.4V15.3096C40.4 13.1496 38.64 11.3896 36.48 11.3896H35.24C33.08 11.3896 31.32 13.1496 31.32 15.3096V20.4596H16.68V15.3096C16.68 13.1496 14.92 11.3896 12.76 11.3896H11.52C9.36 11.3896 7.6 13.1496 7.6 15.3096V16.3796H5.67C3.51 16.3796 1.75 18.1396 1.75 20.2996V27.6096C1.75 29.7796 3.51 31.5396 5.67 31.5396H7.6V32.5996C7.6 34.7696 9.36 36.5296 11.52 36.5296H12.76C14.92 36.5296 16.68 34.7696 16.68 32.5996V28.2996H31.32V32.5996C31.32 34.7696 33.08 36.5296 35.24 36.5296H36.48C38.64 36.5296 40.4 34.7696 40.4 32.5996V31.5496H42.33C44.49 31.5496 46.25 29.7896 46.25 27.6196V20.3096C46.25 18.1496 44.49 16.3896 42.33 16.3896ZM5.67 29.5496C4.61 29.5496 3.75 28.6796 3.75 27.6196V20.3096C3.75 19.2496 4.61 18.3896 5.67 18.3896H7.6V29.5596H5.67V29.5496ZM14.68 32.6096C14.68 33.6796 13.82 34.5396 12.76 34.5396H11.52C10.46 34.5396 9.6 33.6696 9.6 32.6096V15.3196C9.6 14.2596 10.46 13.3996 11.52 13.3996H12.76C13.82 13.3996 14.68 14.2596 14.68 15.3196V32.6096ZM16.68 26.3096V22.4596H31.32V26.3096H16.68ZM38.4 32.6096C38.4 33.6796 37.54 34.5396 36.48 34.5396H35.24C34.18 34.5396 33.32 33.6696 33.32 32.6096V15.3196C33.32 14.2596 34.18 13.3996 35.24 13.3996H36.48C37.54 13.3996 38.4 14.2596 38.4 15.3196V32.6096ZM44.25 27.6296C44.25 28.6996 43.39 29.5596 42.33 29.5596H40.4V18.3896H42.33C43.39 18.3896 44.25 19.2496 44.25 20.3096V27.6196V27.6296Z" fill="#323232"/>
</svg>
