<svg width="170" height="30" viewBox="0 0 170 30" fill="none" xmlns="http://www.w3.org/2000/svg">
<path d="M11.4488 30.0267H42.2512L17.5647 5.2422C14.275 1.95245 9.81734 0 5.16355 0H0.00158691L0.384945 1.00743L2.09668 5.49183L11.4488 30.0267Z" fill="url(#paint0_linear_15605_2439)"/>
<path d="M2.09675 5.49172C5.46673 11.251 14.3196 11.8573 15.2825 20.8082C15.3181 21.1737 15.6034 21.468 15.969 21.5304C21.0685 22.3238 26.0343 24.4278 30.3493 27.887C30.3493 27.887 30.4118 27.9226 30.4474 27.9226C30.4831 27.9226 30.5277 27.9048 30.5544 27.8781C30.6168 27.8156 30.6168 27.7265 30.5544 27.6641C27.5678 24.5259 23.9125 22.0118 19.8115 20.3625L18.5633 19.8632C17.9214 19.6047 17.4756 18.9717 17.4935 18.2406C17.5648 15.566 23.8947 16.1098 24.5277 14.826L24.6346 14.6032C23.333 13.4888 21.7817 12.6507 20.0789 12.1871C20.0611 12.2495 20.0254 12.5616 20.3731 13.1321C20.7476 13.7473 19.963 14.7191 18.8129 13.6671L18.7149 13.5779C10.1829 5.74135 3.77283 9.79781 0.38501 1.00732L2.09675 5.49172Z" fill="white"/>
<path d="M22.6554 14.4519C22.6554 14.4519 21.2557 14.5232 20.3909 13.1235C20.6494 13.5426 20.3642 14.122 19.7936 14.131V16.2617C20.7119 15.9943 21.7639 15.8338 22.6465 15.6466V14.4608L22.6554 14.4519Z" fill="url(#paint1_linear_15605_2439)"/>
<path d="M17.0298 21.7175C21.7549 22.6269 26.3374 24.6685 30.3493 27.8869C21.3983 20.2376 17.3151 21.6194 17.0298 21.7175Z" fill="url(#paint2_linear_15605_2439)"/>
<path d="M3.89764 5.89291C2.50685 4.90331 1.33003 3.45903 0.38501 1.00732L2.09675 5.49172C5.46673 11.251 14.3196 11.8573 15.2825 20.8082C14.3107 9.3788 9.2914 11.0905 3.89764 5.89291Z" fill="url(#paint3_linear_15605_2439)"/>
<path d="M53.7341 -0.115723V30.2141" stroke="#323232" stroke-width="0.666612" stroke-miterlimit="10"/>
<path d="M71.538 7.84543C71.538 9.3432 70.905 10.4754 69.8976 11.0371L71.4756 13.5601H70.0403L68.7297 11.3937C68.5603 11.4294 68.3909 11.4472 68.2037 11.4472C66.2245 11.4472 64.8694 10.0564 64.8694 7.84543V3.43235C64.8694 1.22135 66.171 -0.169434 68.2037 -0.169434C70.2364 -0.169434 71.538 1.22135 71.538 3.43235V7.84543ZM66.0373 7.88109C66.0373 9.25404 66.8218 10.2704 68.1948 10.2704C69.5677 10.2704 70.3434 9.25404 70.3434 7.88109V3.39669C70.3434 2.02373 69.5677 1.00739 68.1948 1.00739C66.8218 1.00739 66.0373 2.02373 66.0373 3.39669V7.88109Z" fill="#323232"/>
<path d="M74.2928 11.2779L77.538 0H78.7238L81.9957 11.2779H80.7743L80.0343 8.68351H76.174L75.4518 11.2779H74.2928ZM76.486 7.55126H79.7401L78.0908 1.76523L76.486 7.55126Z" fill="#323232"/>
<path d="M91.6955 11.2779H90.7238L86.3196 2.55869V11.2779H85.223V0H86.275L90.599 8.58544V0H91.6955V11.2779Z" fill="#323232"/>
<path d="M94.8783 0H101.395V1.18574H98.7208V11.2779H97.544V1.18574H94.8694V0H94.8783Z" fill="#323232"/>
<path d="M102.777 11.2779L106.022 0H107.208L110.48 11.2779H109.259L108.519 8.68351H104.658L103.936 11.2779H102.777ZM104.97 7.55126H108.224L106.575 1.76523L104.97 7.55126Z" fill="#323232"/>
<path d="M118.424 3.20934V2.93297C118.424 1.80072 117.701 0.927023 116.436 0.927023C115.17 0.927023 114.474 1.63133 114.474 2.62985C114.474 3.42331 114.964 3.98497 115.633 4.27918L117.3 5.03698C118.459 5.55407 119.752 6.24054 119.752 8.17517C119.752 10.1098 118.406 11.456 116.444 11.456C114.483 11.456 113.128 10.2346 113.128 8.28215V8.00577H114.287V8.35347C114.287 9.50355 115.071 10.3416 116.436 10.3416C117.8 10.3416 118.593 9.48572 118.593 8.33564C118.593 7.11424 117.808 6.63282 116.863 6.22271L115.428 5.5719C114.287 5.07264 113.342 4.25243 113.342 2.73683C113.342 1.03401 114.572 -0.160645 116.427 -0.160645C118.281 -0.160645 119.565 1.06075 119.565 3.0132V3.21826H118.424V3.20934Z" fill="#323232"/>
<path d="M66.2423 21.3968V30H65.1458V18.7222H66.1799L68.8367 24.5795L71.4756 18.7222H72.5098V30H71.3686V21.4146L69.1576 26.2734H68.4622L66.2423 21.3968Z" fill="#323232"/>
<path d="M75.7371 30L78.9822 18.7222H80.168L83.4399 30H82.2185L81.4785 27.4057H77.6182L76.8961 30H75.7371ZM77.9302 26.2734H81.1843L79.535 20.4874L77.9302 26.2734Z" fill="#323232"/>
<path d="M91.9005 30L90.1442 25.5335C90.0016 25.5335 89.8678 25.5513 89.7252 25.5513H87.8441V30H86.6672V18.7222H89.7876C91.7668 18.7222 93.2022 20.0416 93.2022 22.0832C93.2022 23.5899 92.4622 24.7311 91.321 25.2214L93.1932 29.9911H91.9094L91.9005 30ZM87.8441 19.8722V24.419H89.6984C91.116 24.419 91.9986 23.4919 91.9986 22.1011C91.9986 20.7103 91.116 19.8722 89.6984 19.8722H87.8441Z" fill="#323232"/>
<path d="M97.8026 25.0431L101.984 18.7222H103.294L100.326 23.3046L103.384 30H102.055L99.5054 24.3834L97.7936 26.9777V30H96.6168V18.7222H97.7936V25.0431H97.8026Z" fill="#323232"/>
<path d="M107.761 24.8201V28.8231H112.504V30.0088H106.593V18.731H112.379V19.9167H107.761V23.6611H111.996V24.829H107.761V24.8201Z" fill="#323232"/>
<path d="M115.357 18.7222H121.874V19.9079H119.199V30H118.022V19.9079H115.348V18.7222H115.357Z" fill="#323232"/>
<path d="M125.066 18.7222H128.168C130.156 18.7222 131.592 20.1308 131.592 22.3061C131.592 24.4815 130.156 25.9614 128.168 25.9614H126.242V30H125.066V18.7222ZM126.242 19.8722V24.8202H128.097C129.514 24.8202 130.397 23.8217 130.397 22.3329C130.397 20.844 129.514 19.8812 128.097 19.8812H126.242V19.8722Z" fill="#323232"/>
<path d="M136.103 28.8143H140.534V30H134.926V18.7222H136.103V28.8143Z" fill="#323232"/>
<path d="M143.253 30L146.498 18.7222H147.684L150.956 30H149.734L148.994 27.4057H145.134L144.412 30H143.253ZM145.446 26.2734H148.7L147.051 20.4874L145.446 26.2734Z" fill="#323232"/>
<path d="M160.29 26.3982V26.7548C160.29 28.8677 158.961 30.1694 157.018 30.1694C155.074 30.1694 153.701 28.7786 153.701 26.5676V22.1545C153.701 19.9435 155.003 18.5527 157.018 18.5527C159.033 18.5527 160.29 19.8544 160.29 21.9673V22.2258H159.167V21.9316C159.167 20.6657 158.391 19.7385 157.018 19.7385C155.645 19.7385 154.869 20.7548 154.869 22.1278V26.6122C154.869 27.9851 155.654 29.0015 157.018 29.0015C158.382 29.0015 159.167 28.0743 159.167 26.8083V26.416H160.29V26.3982Z" fill="#323232"/>
<path d="M164.917 24.8201V28.8231H169.66V30.0088H163.749V18.731H169.544V19.9167H164.926V23.6611H169.161V24.829H164.926L164.917 24.8201Z" fill="#323232"/>
<defs>
<linearGradient id="paint0_linear_15605_2439" x1="26.7742" y1="29.9198" x2="6.22447" y2="-0.0891504" gradientUnits="userSpaceOnUse">
<stop stop-color="#BE0000"/>
<stop offset="0.39" stop-color="#DD0000"/>
<stop offset="0.77" stop-color="#F60000"/>
<stop offset="1" stop-color="#FF0000"/>
</linearGradient>
<linearGradient id="paint1_linear_15605_2439" x1="21.0952" y1="16.3776" x2="21.3716" y2="13.2127" gradientUnits="userSpaceOnUse">
<stop offset="0.65" stop-color="white" stop-opacity="0"/>
<stop offset="0.69" stop-color="#ECECEC" stop-opacity="0.0529"/>
<stop offset="0.76" stop-color="#D6D6D6" stop-opacity="0.25"/>
<stop offset="0.81" stop-color="#C5C5C5" stop-opacity="0.5184"/>
<stop offset="0.87" stop-color="#B9B9B9" stop-opacity="0.7569"/>
<stop offset="0.91" stop-color="#B1B1B1" stop-opacity="0.9409"/>
<stop offset="0.95" stop-color="#AFAFAF"/>
</linearGradient>
<linearGradient id="paint2_linear_15605_2439" x1="17.0298" y1="24.7309" x2="30.3493" y2="24.7309" gradientUnits="userSpaceOnUse">
<stop stop-color="white" stop-opacity="0"/>
<stop offset="0.07" stop-color="#F3F3F3" stop-opacity="0.0225"/>
<stop offset="0.21" stop-color="#DEDEDE" stop-opacity="0.1681"/>
<stop offset="0.35" stop-color="#CDCDCD" stop-opacity="0.3844"/>
<stop offset="0.49" stop-color="#C0C0C0" stop-opacity="0.6241"/>
<stop offset="0.63" stop-color="#B6B6B6" stop-opacity="0.8281"/>
<stop offset="0.77" stop-color="#B0B0B0" stop-opacity="0.9604"/>
<stop offset="0.9" stop-color="#AFAFAF"/>
</linearGradient>
<linearGradient id="paint3_linear_15605_2439" x1="0.38501" y1="10.9122" x2="15.2825" y2="10.9122" gradientUnits="userSpaceOnUse">
<stop offset="0.25" stop-color="white" stop-opacity="0"/>
<stop offset="0.36" stop-color="#F6F6F6" stop-opacity="0.0121"/>
<stop offset="0.58" stop-color="#E0E0E0" stop-opacity="0.1444"/>
<stop offset="0.88" stop-color="#BDBDBD" stop-opacity="0.6724"/>
<stop offset="1" stop-color="#AFAFAF"/>
</linearGradient>
</defs>
</svg>
