<svg width="115" height="30" viewBox="0 0 115 30" fill="none" xmlns="http://www.w3.org/2000/svg">
<g clip-path="url(#clip0_17866_1587)">
<mask id="mask0_17866_1587" style="mask-type:luminance" maskUnits="userSpaceOnUse" x="0" y="0" width="115" height="30">
<path d="M115 0H0V30H115V0Z" fill="white"/>
</mask>
<g mask="url(#mask0_17866_1587)">
<path d="M84.4338 29.9272H115.012L90.5082 5.22635C87.2401 1.9523 82.818 0 78.2015 0H73.0747L73.4513 1.00647L75.1521 5.481L84.4338 29.9272Z" fill="url(#paint0_linear_17866_1587)"/>
<path d="M75.14 5.4808C78.493 11.2165 87.2766 11.8228 88.2242 20.7476C88.2606 21.1114 88.54 21.4145 88.9045 21.463C93.9705 22.2512 98.9029 24.349 103.179 27.7928C103.179 27.7928 103.24 27.8292 103.276 27.8292C103.313 27.8292 103.349 27.8171 103.386 27.7928C103.447 27.7322 103.447 27.6352 103.386 27.5746C100.422 24.446 96.789 21.9481 92.7192 20.2989L91.48 19.8017C90.8483 19.5471 90.3988 18.9044 90.4231 18.1768C90.496 15.5091 96.7769 16.0548 97.4086 14.7694L97.518 14.5511C96.218 13.4355 94.6873 12.611 92.9986 12.138C92.9865 12.1987 92.9379 12.5139 93.2902 13.0717C93.6668 13.6781 92.8771 14.6603 91.7352 13.6053L91.638 13.5204C83.1581 5.7112 76.7922 9.76132 73.427 0.994141L75.1278 5.46868L75.14 5.4808Z" fill="white"/>
<path d="M95.5499 14.4057C95.5499 14.4057 94.1528 14.4785 93.3024 13.084C93.5575 13.4963 93.2781 14.0783 92.7192 14.0783V16.2004C93.6304 15.9336 94.6752 15.776 95.5499 15.582V14.3936V14.4057Z" fill="url(#paint1_linear_17866_1587)"/>
<path d="M89.9736 21.6452C94.663 22.5546 99.2188 24.5918 103.204 27.7931C94.3107 20.1658 90.2652 21.5481 89.9736 21.6452Z" fill="url(#paint2_linear_17866_1587)"/>
<path d="M76.938 5.88104C75.553 4.89883 74.3867 3.4437 73.4513 1.00635L75.1521 5.48088C78.5052 11.2165 87.2766 11.8228 88.2363 20.7477C87.2766 9.36124 82.2834 11.0589 76.938 5.88104Z" fill="url(#paint3_linear_17866_1587)"/>
<path d="M0 0.0244141H3.07363C5.04173 0.0244141 6.46313 1.41892 6.46313 3.58949C6.46313 5.76007 5.04173 7.2152 3.07363 7.2152H1.15413V11.2168H0V0.0244141ZM1.16628 1.16427V6.07534H3.00074C4.40999 6.07534 5.2847 5.09313 5.2847 3.60162C5.2847 2.11011 4.39784 1.16427 3.00074 1.16427H1.16628Z" fill="#323232"/>
<path d="M10.9946 10.0406H15.3803V11.2168H9.82837V0.0244141H10.9946V10.0406Z" fill="#323232"/>
<path d="M17.5306 11.2168L20.7501 0.0244141H21.9285L25.1722 11.2168H23.9695L23.2405 8.64608H19.4258L18.7091 11.2168H17.5671H17.5306ZM19.7053 7.51835H22.9247L21.2846 1.77057L19.6931 7.51835H19.7053Z" fill="#323232"/>
<path d="M26.6057 0.0244141H33.0567V1.20065H30.4204V11.2168H29.2541V1.20065H26.6179V0.0244141H26.6057Z" fill="#323232"/>
<path d="M37.3087 11.2168H36.1425V0.0244141H37.3087V11.2168Z" fill="#323232"/>
<path d="M47.781 11.2168H46.8212L42.472 2.55877V11.2168H41.3907V0.0244141H42.4355L46.7119 8.54907V0.0244141H47.7931V11.2168H47.781Z" fill="#323232"/>
<path d="M58.2289 0.0244141V7.80938C58.2289 10.0042 56.9168 11.3866 54.9852 11.3866C53.0535 11.3866 51.7657 10.0042 51.7657 7.80938V0.0244141H52.932V7.84576C52.932 9.20388 53.6852 10.2103 54.9973 10.2103C56.3094 10.2103 57.0747 9.20388 57.0747 7.84576V0.0244141H58.241H58.2289Z" fill="#323232"/>
<path d="M63.295 2.68003V11.2168H62.2137V0.0244141H63.2342L65.8584 5.83282L68.4825 0.0244141H69.503V11.2168H68.3732V2.70428L66.1864 7.53048H65.4939L63.295 2.69216V2.68003Z" fill="#323232"/>
<path d="M49.6033 26.423C49.6033 28.6178 48.2548 30.0002 46.2988 30.0002C44.3429 30.0002 42.9944 28.6178 42.9944 26.423V22.0455C42.9944 19.8506 44.2822 18.4683 46.2988 18.4683C48.3155 18.4683 49.6033 19.8506 49.6033 22.0455V26.423ZM44.1607 26.4594C44.1607 27.8175 44.9382 28.824 46.2988 28.824C47.6595 28.824 48.4249 27.8175 48.4249 26.4594V22.0091C48.4249 20.651 47.6595 19.6445 46.2988 19.6445C44.9382 19.6445 44.1607 20.651 44.1607 22.0091V26.4594Z" fill="#323232"/>
<path d="M59.7961 29.8301H58.8364L54.4871 21.1721V29.8301H53.4059V18.6377H54.4507L58.727 27.1624V18.6377H59.8083V29.8301H59.7961Z" fill="#323232"/>
<path d="M65.02 24.6886V28.6539H69.7095V29.8301H63.8538V18.6377H69.588V19.8139H65.02V23.5245H69.2114V24.6886H65.02Z" fill="#323232"/>
</g>
</g>
<defs>
<linearGradient id="paint0_linear_17866_1587" x1="99.644" y1="29.8181" x2="79.1403" y2="-0.0114635" gradientUnits="userSpaceOnUse">
<stop stop-color="#BE2025"/>
<stop offset="0.39" stop-color="#DB1F26"/>
<stop offset="0.77" stop-color="#ED1C24"/>
<stop offset="1" stop-color="#ED2024"/>
</linearGradient>
<linearGradient id="paint1_linear_17866_1587" x1="94.007" y1="16.3217" x2="94.2854" y2="13.1567" gradientUnits="userSpaceOnUse">
<stop offset="0.65" stop-color="white" stop-opacity="0"/>
<stop offset="0.69" stop-color="#ECECEC" stop-opacity="0.05"/>
<stop offset="0.76" stop-color="#D6D6D6" stop-opacity="0.25"/>
<stop offset="0.81" stop-color="#C5C5C4" stop-opacity="0.52"/>
<stop offset="0.87" stop-color="#BAB9BA" stop-opacity="0.76"/>
<stop offset="0.91" stop-color="#B2B1B2" stop-opacity="0.94"/>
<stop offset="0.95" stop-color="#B0B0B0"/>
</linearGradient>
<linearGradient id="paint2_linear_17866_1587" x1="89.9736" y1="24.6403" x2="103.191" y2="24.6403" gradientUnits="userSpaceOnUse">
<stop stop-color="white" stop-opacity="0"/>
<stop offset="0.07" stop-color="#F3F3F4" stop-opacity="0.02"/>
<stop offset="0.21" stop-color="#DFDEDE" stop-opacity="0.17"/>
<stop offset="0.35" stop-color="#CECDCD" stop-opacity="0.38"/>
<stop offset="0.49" stop-color="#C0C0C0" stop-opacity="0.62"/>
<stop offset="0.63" stop-color="#B6B6B6" stop-opacity="0.83"/>
<stop offset="0.77" stop-color="#B0B0B1" stop-opacity="0.96"/>
<stop offset="0.9" stop-color="#B0B0B0"/>
</linearGradient>
<linearGradient id="paint3_linear_17866_1587" x1="73.4513" y1="10.8649" x2="88.2363" y2="10.8649" gradientUnits="userSpaceOnUse">
<stop offset="0.25" stop-color="white" stop-opacity="0"/>
<stop offset="0.36" stop-color="#F6F6F6" stop-opacity="0.01"/>
<stop offset="0.58" stop-color="#E0E0E0" stop-opacity="0.14"/>
<stop offset="0.88" stop-color="#BDBDBD" stop-opacity="0.67"/>
<stop offset="1" stop-color="#B0B0B0"/>
</linearGradient>
<clipPath id="clip0_17866_1587">
<rect width="115" height="30" fill="white"/>
</clipPath>
</defs>
</svg>
