<svg width="48" height="48" viewBox="0 0 48 48" fill="none" xmlns="http://www.w3.org/2000/svg">
<path d="M45.2495 8.09961C41.9995 8.09961 40.2695 13.7296 40.2695 17.7896C40.2695 22.3496 42.2395 24.3796 44.2495 24.8696V38.8996C44.2495 39.4496 44.6995 39.8996 45.2495 39.8996C45.7995 39.8996 46.2495 39.4496 46.2495 38.8996V9.09961C46.2495 8.54961 45.7995 8.09961 45.2495 8.09961ZM42.2695 17.7896C42.2695 14.7096 43.2595 11.9896 44.2495 10.7696V22.7596C43.0195 22.1396 42.2695 20.3196 42.2695 17.7896Z" fill="#323232"/>
<path d="M9.71 16.0498V9.08984C9.71 8.53984 9.26 8.08984 8.71 8.08984C8.16 8.08984 7.71 8.53984 7.71 9.08984V16.0498C7.71 16.5898 7.27 17.0298 6.73 17.0398V9.09984C6.73 8.54984 6.28 8.09984 5.73 8.09984C5.18 8.09984 4.73 8.54984 4.73 9.09984V17.0398C4.19 17.0398 3.75 16.5998 3.75 16.0498V9.08984C3.75 8.53984 3.3 8.08984 2.75 8.08984C2.2 8.08984 1.75 8.53984 1.75 9.08984V16.0498C1.75 17.6898 3.09 19.0298 4.73 19.0398V38.8998C4.73 39.4498 5.18 39.8998 5.73 39.8998C6.28 39.8998 6.73 39.4498 6.73 38.8998V19.0398C8.37 19.0398 9.71 17.6998 9.71 16.0498Z" fill="#323232"/>
<path d="M24.5301 8.7998C16.1501 8.7998 9.33008 15.6198 9.33008 23.9998C9.33008 32.3798 16.1501 39.1998 24.5301 39.1998C32.9101 39.1998 39.7301 32.3798 39.7301 23.9998C39.7301 15.6198 32.9101 8.7998 24.5301 8.7998ZM24.5301 37.1998C17.2501 37.1998 11.3301 31.2798 11.3301 23.9998C11.3301 16.7198 17.2501 10.7998 24.5301 10.7998C31.8101 10.7998 37.7301 16.7198 37.7301 23.9998C37.7301 31.2798 31.8101 37.1998 24.5301 37.1998Z" fill="#323232"/>
<path fill-rule="evenodd" clip-rule="evenodd" d="M28.5698 33.24C23.0298 31.6 18.9798 26.47 18.9798 20.4C18.9798 18.47 19.3898 16.63 20.1198 14.98C16.7898 16.62 14.5098 20.05 14.5098 24.01C14.5098 29.57 19.0098 34.07 24.5698 34.07C25.9898 34.07 27.3398 33.78 28.5698 33.25" fill="#8DE2E0"/>
</svg>
