<svg width="24" height="24" viewBox="0 0 24 24" fill="none" xmlns="http://www.w3.org/2000/svg">
<path fill-rule="evenodd" clip-rule="evenodd" d="M17.94 7C20.1167 7 21.8812 8.76447 21.8812 10.9412C21.8812 13.1179 20.1167 14.8823 17.94 14.8823H15.5751V18.0355H12.5099V7H17.94ZM15.5751 11.7295H17.6771C18.306 11.7295 18.8157 11.259 18.8157 10.6784C18.8157 10.0981 18.306 9.62757 17.6771 9.62757H15.5751V11.7295Z" fill="#D6242C"/>
<path fill-rule="evenodd" clip-rule="evenodd" d="M9.44447 7H12.5099L15.5751 18.0355H12.5099L11.9016 15.8458H8.14505L7.60524 17.7887V18.0355L7.5365 18.0367H4.47107V9.89029H2V7H9.44447ZM9.79942 9.89029L8.94777 12.9555H11.0988L10.0761 9.27437L10.0763 9.89029H9.79942Z" fill="#A2C83D"/>
<path fill-rule="evenodd" clip-rule="evenodd" d="M4.47107 18.0367L7.5365 7.00136L9.44447 7H10.0763L10.0761 9.27437L10.0233 9.08388L9.79942 9.89029H7.60524V17.7887L7.5365 18.0367H4.47107Z" fill="#168547"/>
<path fill-rule="evenodd" clip-rule="evenodd" d="M15.5751 18.0355H12.5099V7L15.5751 18.0355Z" fill="#B3282D"/>
</svg>
