<svg width="48" height="48" viewBox="0 0 48 48" fill="none" xmlns="http://www.w3.org/2000/svg">
<path d="M33.1194 12.6498C32.2894 11.1498 30.6894 10.1198 28.8594 10.1198H28.6394H28.6494C28.7794 9.65984 28.8494 9.18984 28.8494 8.71984C28.8494 8.71984 28.7994 7.43984 28.4994 6.92984L28.3594 6.65984L28.6394 6.51984C29.5494 5.22984 31.4694 3.83984 33.0394 3.83984H33.0494C34.3494 3.84984 35.5594 4.34984 36.4694 5.26984C37.3894 6.18984 37.8894 7.40984 37.8894 8.70984C37.8894 8.91984 37.8694 9.13984 37.8494 9.34984L37.7594 10.0298L38.4394 10.1098C40.8894 10.4098 42.7394 12.4798 42.7494 14.9498C42.7494 15.8398 42.4994 16.7098 42.0394 17.4598L41.7294 17.9598L42.1794 18.3498C43.4294 19.3998 44.1294 20.9398 44.1294 22.5798C44.1294 24.2198 43.4294 25.7598 42.1794 26.8098L41.7294 27.1998L42.0394 27.6998C42.5094 28.4598 42.7494 29.3198 42.7494 30.2098C42.7394 32.8998 40.5494 35.0798 37.8794 35.0798H28.8594V35.0598C31.5194 35.0598 33.6994 32.8898 33.6994 30.2198H33.7194C33.7194 29.3198 33.4894 28.4498 33.0194 27.6998L32.7094 27.1998L33.1594 26.8098C33.5494 26.4798 33.8794 26.0998 34.1494 25.6798C34.2394 25.5698 34.3094 25.4598 34.3594 25.3298C34.5694 24.9798 34.7394 24.6098 34.8494 24.2098C34.8994 24.0798 34.9294 23.9398 34.9494 23.8098C35.0194 23.5498 35.0594 23.2898 35.0694 23.0098C35.0994 22.5198 35.0794 22.0198 34.9794 21.5198L34.9394 21.2498C34.6594 20.1198 34.0394 19.1098 33.1494 18.3498L32.6994 17.9698L33.0094 17.4698C33.4794 16.6998 33.7194 15.8398 33.7094 14.9498C33.7094 14.1098 33.4994 13.3298 33.1194 12.6298H33.1094L33.1194 12.6498Z" fill="#8DE2E0"/>
<path d="M45.1301 22.5896C45.1301 20.7396 44.3601 18.9996 43.0201 17.7696C43.5001 16.9096 43.7501 15.9496 43.7501 14.9596C43.7401 12.0996 41.6601 9.66961 38.8701 9.17961C38.8801 9.02961 38.8901 8.86961 38.8901 8.71961C38.8901 7.14961 38.2801 5.67961 37.1801 4.57961C36.0901 3.47961 34.6301 2.86961 33.0401 2.84961C31.4601 2.84961 29.7401 3.88961 28.5701 5.06961C27.4701 3.67961 25.8001 2.84961 24.0001 2.84961C22.7901 2.84961 21.6201 3.21961 20.6101 3.93961C20.1901 4.23961 19.8101 4.59961 19.4901 4.98961C18.3801 3.64961 16.7201 2.85961 14.9701 2.85961C13.7501 2.85961 12.5801 3.23961 11.5801 3.94961C9.89006 5.14961 8.97007 7.12961 9.13006 9.17961C6.34007 9.66961 4.26006 12.0996 4.25006 14.9696C4.25006 15.9596 4.50006 16.9296 4.98006 17.7796C3.76006 18.8896 3.02007 20.4096 2.88007 22.0796C2.75007 23.8296 3.30007 25.5196 4.42007 26.8296C4.59007 27.0396 4.78006 27.2396 4.97006 27.4096C4.49006 28.2696 4.24006 29.2396 4.24006 30.2196C4.25006 33.4496 6.89006 36.0896 10.1101 36.0896H13.9601V43.0996H12.1901C11.6401 43.0996 11.1901 43.5496 11.1901 44.0996C11.1901 44.6496 11.6401 45.0996 12.1901 45.0996H14.9601H23.9701C23.9701 45.0996 23.9701 45.0996 23.9801 45.0996C23.9801 45.0996 23.9801 45.0996 23.9901 45.0996H33.0001H35.7701C36.3201 45.0996 36.7701 44.6496 36.7701 44.0996C36.7701 43.5496 36.3201 43.0996 35.7701 43.0996H34.0001V36.0896H37.8501C41.0701 36.0896 43.7101 33.4596 43.7201 30.2196C43.7201 29.2296 43.4701 28.2596 42.9901 27.4096C44.3301 26.1796 45.1001 24.4396 45.1001 22.5896H45.1301ZM10.1301 34.0896C8.00006 34.0896 6.27007 32.3496 6.26007 30.2196C6.26007 29.5196 6.46006 28.8296 6.82007 28.2296L7.13006 27.7396C7.39007 27.3196 7.31006 26.7796 6.94006 26.4496L6.47006 26.0396C6.30006 25.8996 6.13006 25.7296 5.97006 25.5396C5.18006 24.6196 4.80006 23.4396 4.89006 22.2296C4.99006 21.0096 5.56006 19.8996 6.49006 19.1196L6.94006 18.7296C7.31006 18.4096 7.39006 17.8696 7.14006 17.4496L6.83006 16.9396C6.46006 16.3496 6.27006 15.6596 6.27006 14.9596C6.27006 12.9996 7.75006 11.3396 9.70006 11.1096L10.3801 11.0296C10.6501 10.9996 10.8901 10.8596 11.0501 10.6496C11.2101 10.4396 11.2901 10.1696 11.2501 9.89961L11.1601 9.21961C10.9701 7.79961 11.5801 6.39961 12.7501 5.56961C13.4101 5.09961 14.1801 4.84961 14.9801 4.84961C16.2301 4.84961 17.4001 5.45961 18.1301 6.46961L18.4501 6.90961C18.3701 7.15961 18.3001 7.41961 18.2501 7.69961C18.2501 7.71961 18.2501 7.73961 18.2501 7.75961C18.2501 7.79961 18.2401 7.83961 18.2401 7.84961C18.1701 8.27961 18.1501 8.71961 18.1901 9.16961C15.3901 9.64961 13.3101 12.0796 13.3101 14.9596C13.3101 15.5296 13.4001 16.0796 13.5501 16.6096L11.3801 14.4396C10.9901 14.0496 10.3601 14.0496 9.97007 14.4396C9.58007 14.8296 9.58007 15.4596 9.97007 15.8496L13.0401 18.9296C11.1801 21.6596 11.6801 25.4096 14.2101 27.5796L14.6601 27.9696C14.8501 28.1296 15.0801 28.2096 15.3101 28.2096C15.5901 28.2096 15.8701 28.0896 16.0701 27.8596C16.4301 27.4396 16.3801 26.8096 15.9701 26.4496L15.5201 26.0596C13.7101 24.5196 13.3901 21.8096 14.8101 19.8896L15.0801 19.5196L15.9801 18.7096C16.3401 18.3896 16.4101 17.8596 16.1701 17.4496L15.8701 16.9496C15.5101 16.3696 15.3201 15.6796 15.3201 14.9696C15.3201 12.9996 16.7901 11.3496 18.7401 11.1196L19.4301 11.0396C19.7001 11.0096 19.9401 10.8696 20.1001 10.6596C20.2601 10.4496 20.3401 10.1796 20.3001 9.90961L20.2101 9.20961C20.1601 8.84961 20.1601 8.49961 20.2301 8.10961C20.2301 8.09961 20.2301 8.07961 20.2301 8.06961C20.2301 8.05961 20.2301 8.04961 20.2301 8.03961C20.2601 7.85961 20.3101 7.68961 20.3801 7.47961C20.4201 7.34961 20.4301 7.22961 20.4401 7.10961L20.9001 6.46961C21.1501 6.11961 21.4601 5.80961 21.8001 5.55961C22.4701 5.08961 23.2401 4.83961 24.0301 4.83961C25.2601 4.83961 26.4201 5.42961 27.1301 6.41961L27.6701 7.41961C27.7601 7.58961 27.8601 8.21961 27.8801 8.70961C27.8801 9.04961 27.8301 9.38961 27.7401 9.73961C27.6401 9.98961 27.6401 10.2696 27.7501 10.5296C27.9201 10.9096 28.3001 11.1396 28.7101 11.1196H28.8801C29.1901 11.1196 29.4901 11.1496 29.7801 11.2296C29.8401 11.2396 29.8901 11.2496 29.9501 11.2696C30.2601 11.3596 30.5601 11.4896 30.8401 11.6496C30.9801 11.7296 31.1101 11.8196 31.2301 11.9196C31.3001 11.9696 31.3601 12.0396 31.4301 12.0896C31.5901 12.2296 31.7401 12.3896 31.8801 12.5596C31.9801 12.6896 32.0701 12.8196 32.1601 12.9596C32.1901 13.0096 32.2301 13.0596 32.2601 13.1196C32.5601 13.6796 32.7201 14.3196 32.7201 14.9496C32.7201 14.9796 32.7301 14.9996 32.7401 15.0296C32.7401 15.6996 32.5501 16.3696 32.1901 16.9596L31.8801 17.4596C31.6201 17.8796 31.7101 18.4296 32.0901 18.7496L32.5301 19.1196C33.2601 19.7396 33.7701 20.5596 33.9801 21.4096L34.0301 21.6996C34.0301 21.6996 34.0301 21.7196 34.0301 21.7296C34.1101 22.1096 34.1301 22.5096 34.1001 22.9396C34.0801 23.1596 34.0501 23.3696 34.0001 23.5896C33.9801 23.6996 33.9501 23.8096 33.9201 23.9096C33.8101 24.2596 33.6801 24.5496 33.5001 24.8596C33.4601 24.9396 33.4101 25.0196 33.3601 25.0896C33.3501 25.1096 33.3401 25.1196 33.3301 25.1396C33.1201 25.4696 32.8401 25.7896 32.5301 26.0496L32.0801 26.4396C31.7101 26.7596 31.6301 27.2996 31.8801 27.7196L32.1901 28.2296C32.5401 28.7896 32.7301 29.4596 32.7401 30.1496C32.7401 30.1796 32.7201 30.1996 32.7201 30.2296C32.7201 32.3496 31.0001 34.0696 28.8801 34.0696H25.0301V25.0896L25.0901 25.0296C25.0901 25.0296 25.1201 24.9796 25.1401 24.9596L29.5601 20.5296C29.9501 20.1396 29.9501 19.5096 29.5601 19.1196C29.1701 18.7296 28.5401 18.7296 28.1501 19.1196L25.0101 22.2696V19.4896C25.0101 19.4896 25.0101 19.4896 25.0101 19.4796C25.0101 19.4796 25.0101 19.4696 25.0101 19.4596V13.0896C25.0101 12.5396 24.5601 12.0896 24.0101 12.0896C23.4601 12.0896 23.0101 12.5396 23.0101 13.0896V17.3596L19.9201 14.7896C19.5001 14.4396 18.8601 14.4896 18.5101 14.9196C18.1601 15.3396 18.2201 15.9796 18.6401 16.3296L23.0101 19.9596V30.9096C23.0101 30.9096 23.0301 30.9696 23.0301 31.0096V34.1096H15.0001H10.1501L10.1301 34.0896ZM22.9901 43.0996H15.9801V36.0896H22.9901V43.0996ZM32.0201 43.0996H25.0101V36.0896H32.0201V43.0996ZM40.8801 27.7296L41.1901 28.2396C41.5601 28.8296 41.7501 29.5196 41.7501 30.2196C41.7501 32.3596 40.0101 34.0896 37.8801 34.0896H33.2301C34.1201 33.0896 34.6601 31.7796 34.6901 30.3496C34.6901 30.2996 34.7201 30.2596 34.7201 30.2196C34.7201 29.2196 34.4701 28.2496 34.0001 27.4096C34.3701 27.0696 34.6901 26.6896 34.9601 26.2696C34.9601 26.2596 34.9701 26.2496 34.9801 26.2296C35.0801 26.0896 35.1601 25.9496 35.2201 25.8396C35.2201 25.8296 35.2401 25.8096 35.2501 25.7996C35.4901 25.3996 35.6801 24.9596 35.7901 24.5696C35.7901 24.5696 35.7901 24.5596 35.7901 24.5496C35.7901 24.5296 35.8001 24.5196 35.8101 24.4996C35.8501 24.3696 35.8801 24.2396 35.9101 24.1096C35.9101 24.0796 35.9301 24.0496 35.9301 24.0196C36.0101 23.7296 36.0501 23.4296 36.0701 23.1196C36.0801 23.0396 36.0901 22.9696 36.0901 22.9096L38.5601 20.5196C38.9601 20.1396 38.9701 19.4996 38.5801 19.1096C38.1901 18.7096 37.5601 18.6996 37.1701 19.0896L35.7601 20.4596C35.4101 19.4296 34.8101 18.5096 34.0101 17.7696C34.4901 16.8996 34.7401 15.9296 34.7301 14.9596C34.7301 13.9796 34.4901 13.0296 34.0201 12.1696C33.1701 10.5796 31.6201 9.47961 29.8401 9.17961C29.8501 9.00961 29.8601 8.83961 29.8601 8.66961C29.8501 8.38961 29.8001 7.57961 29.5901 6.92961C30.3901 5.90961 31.9301 4.83961 33.0501 4.83961C34.0901 4.83961 35.0501 5.24961 35.7701 5.97961C36.5001 6.70961 36.9001 7.67961 36.9001 8.70961C36.9001 8.88961 36.8801 9.07961 36.8701 9.21961L36.7801 9.89961C36.7401 10.1696 36.8201 10.4296 36.9801 10.6496C37.1401 10.8596 37.3901 10.9996 37.6501 11.0296L38.3301 11.1096C40.2801 11.3496 41.7501 12.9996 41.7601 14.9596C41.7601 15.6596 41.5701 16.3496 41.1901 16.9496L40.8801 17.4496C40.6201 17.8696 40.7101 18.4096 41.0801 18.7296L41.5401 19.1296C42.5501 19.9896 43.1401 21.2496 43.1401 22.5896C43.1401 23.9296 42.5601 25.1996 41.5401 26.0596L41.0901 26.4496C40.7201 26.7696 40.6301 27.3096 40.8901 27.7296H40.8801Z" fill="#323232"/>
</svg>
