<svg width="315" height="35" viewBox="0 0 315 35" fill="none" xmlns="http://www.w3.org/2000/svg">
<path d="M12.8248 33.15H47.3369L19.6814 5.37506C15.9962 1.69008 10.9981 -0.5 5.78674 -0.5H0.000244141L0.43131 0.630934L2.34732 5.65812L12.8248 33.15Z" fill="url(#paint0_linear_10470_9608)"/>
<path d="M2.34741 5.65805C6.12598 12.1105 16.0413 12.7915 17.1201 22.825C17.1645 23.2378 17.4809 23.5686 17.8912 23.6328C23.6052 24.5256 29.1708 26.8783 34.0065 30.755L34.0108 30.7585C34.0426 30.784 34.0759 30.7963 34.1185 30.7963C34.1612 30.7963 34.204 30.7807 34.2373 30.7489C34.3062 30.6834 34.309 30.5743 34.2434 30.5054C30.8947 26.9862 26.803 24.174 22.2101 22.325L20.8123 21.7623C20.0934 21.4729 19.5944 20.7597 19.6158 19.9393C19.6943 16.9415 26.7836 17.5513 27.5023 16.1101L27.626 15.8621C26.1662 14.6146 24.4317 13.6765 22.5215 13.1518C22.5044 13.2239 22.4581 13.5736 22.8468 14.2065C23.2695 14.8947 22.3843 15.9893 21.0957 14.8085L20.9874 14.7092C11.4085 5.93188 4.22638 10.4834 0.431396 0.630859L2.34741 5.65805Z" fill="white"/>
<path d="M25.3822 15.6993C25.3822 15.6993 23.8113 15.7774 22.8465 14.2065C23.1335 14.6739 22.8171 15.329 22.1812 15.3309V17.7225C23.2139 17.4225 24.3921 17.2387 25.3822 17.0306V15.6993Z" fill="url(#paint1_linear_10470_9608)"/>
<path d="M19.0769 23.8395C24.3729 24.859 29.5059 27.1469 34.0061 30.7549C23.9736 22.1833 19.4024 23.7332 19.0769 23.8395Z" fill="url(#paint2_linear_10470_9608)"/>
<path d="M4.36468 6.10673C2.80568 4.99821 1.48731 3.37233 0.431396 0.630859L2.34741 5.65805C6.12562 12.1098 16.0393 12.7914 17.1198 22.822C16.0292 10.0199 10.406 11.9333 4.36468 6.10673Z" fill="url(#paint3_linear_10470_9608)"/>
<path fill-rule="evenodd" clip-rule="evenodd" d="M177.389 15.2509V18.6878H191.367V22.1052H177.389V26.9984H173.415V11.8335H191.757V15.2509H177.389Z" fill="#DF0000"/>
<path fill-rule="evenodd" clip-rule="evenodd" d="M210.156 16.9692C210.156 15.8774 209.393 15.2514 208.062 15.2514H198.745V18.6883H208.062C209.393 18.6883 210.156 18.0611 210.156 16.9692ZM214.307 16.787C214.307 19.6787 212.133 21.8012 208.629 21.8012H208.003L215.539 26.8362C215.598 26.8766 215.598 26.9976 215.481 26.9976H209.785L203.207 22.448C202.816 22.1851 202.463 22.0029 201.622 22.0029H198.745V26.9976H194.771V11.834H208.746C212.055 11.834 214.307 13.8147 214.307 16.787Z" fill="#DF0000"/>
<path fill-rule="evenodd" clip-rule="evenodd" d="M236.327 23.5805V26.9979H217.749V11.833H236.327V15.2504H221.723V17.697H235.935V21.1144H221.723V23.5805H236.327Z" fill="#DF0000"/>
<path fill-rule="evenodd" clip-rule="evenodd" d="M239.868 26.9976H243.842V11.834H239.868V26.9976Z" fill="#DF0000"/>
<path fill-rule="evenodd" clip-rule="evenodd" d="M258.014 27.1999C248.951 27.1999 246.699 23.055 246.699 19.4163C246.699 15.7764 249.401 11.6523 257.877 11.6523C261.674 11.6523 264.16 11.9751 266.921 12.4605L267.371 12.5412V16.0601L266.784 15.9378C264.317 15.4328 260.97 15.0489 258.269 15.0489C255.313 15.0489 253.648 15.5343 252.65 16.2813C251.515 17.1311 251.143 18.3037 251.143 19.4163C251.143 20.5277 251.515 21.7002 252.65 22.55C253.648 23.2983 255.313 23.8033 258.072 23.8033C261.557 23.8033 264.63 23.176 265.335 21.3567H257.739V18.0811H269.171V20.326C269.171 24.1468 266.49 27.1999 258.014 27.1999Z" fill="#DF0000"/>
<path fill-rule="evenodd" clip-rule="evenodd" d="M288.412 26.9976V21.1141H276.001V26.9976H272.027V11.834H276.001V17.495H288.412V11.834H292.386V26.9976H288.412Z" fill="#DF0000"/>
<path fill-rule="evenodd" clip-rule="evenodd" d="M306.713 15.2509V26.9984H302.739V15.2509H294.596V11.8335H314.857V15.2509H306.713Z" fill="#DF0000"/>
<path fill-rule="evenodd" clip-rule="evenodd" d="M51.3338 23.2574C55.0533 23.2574 58.1857 21.3574 58.1857 18.7494C58.1857 16.1402 55.0533 14.2401 51.3338 14.2401C47.6143 14.2401 44.4819 16.1402 44.4819 18.7494C44.4819 21.3574 47.6143 23.2574 51.3338 23.2574ZM51.1384 26.9975C44.3256 26.9975 40 23.338 40 18.7494C40 14.0788 44.5801 10.5 51.3337 10.5C58.0873 10.5 62.6674 14.0996 62.6674 18.5672C62.6674 20.5687 61.8068 22.2059 60.1625 23.5814H64.1756L63.2155 25.2797C62.6094 26.3507 61.8648 26.9975 60.2595 26.9975H51.1384Z" fill="#323232"/>
<path fill-rule="evenodd" clip-rule="evenodd" d="M72.0032 20.8717H79.0894L75.8008 14.8268C75.7227 14.685 75.6635 14.6446 75.5463 14.6446C75.4291 14.6446 75.3699 14.685 75.2918 14.8268L72.0032 20.8717ZM80.9102 24.2071H70.1825L68.6554 26.9973H64.2126L71.6517 13.6946C72.2376 12.6431 73.0805 11.835 74.7626 11.835H76.4271C78.1104 11.835 78.9521 12.6431 79.5393 13.6946L86.9783 26.9973H82.4373L80.9102 24.2071Z" fill="#323232"/>
<path fill-rule="evenodd" clip-rule="evenodd" d="M108.157 11.8345V26.9981H104.183L92.5165 16.9502V26.9981H88.5425V11.8345H91.0285C92.3011 11.8345 92.9474 12.178 93.6719 12.8248L104.183 21.8629V11.8345H108.157Z" fill="#323232"/>
<path fill-rule="evenodd" clip-rule="evenodd" d="M121.406 15.4457V27.1932H117.431V15.4457H109.288V12.0283H129.549V15.4457H121.406Z" fill="#323232"/>
<path fill-rule="evenodd" clip-rule="evenodd" d="M134.757 20.8717H141.843L138.554 14.8268C138.476 14.685 138.417 14.6446 138.3 14.6446C138.183 14.6446 138.124 14.685 138.045 14.8268L134.757 20.8717ZM143.664 24.2071H132.936L131.409 26.9973H126.966L134.405 13.6946C134.991 12.6431 135.834 11.835 137.516 11.835H139.181C140.864 11.835 141.706 12.6431 142.293 13.6946L149.732 26.9973H145.191L143.664 24.2071Z" fill="#323232"/>
<path fill-rule="evenodd" clip-rule="evenodd" d="M151.1 25.9063L150.729 25.7853L151.727 22.4889C154.584 23.4389 157.638 23.8241 160.399 23.8241C164.92 23.8241 166.036 23.2775 166.036 22.6919C166.036 22.4485 165.879 22.2663 165.527 22.1453C165.076 21.9839 163.824 21.7211 160.124 21.0951C156.033 20.4067 154.192 20.0631 152.843 19.4163C151.492 18.7696 150.669 17.7389 150.669 16.2215C150.669 15.0697 151.218 14.1393 152.098 13.4118C153.664 12.1573 156.347 11.6523 159.264 11.6523C163.021 11.6523 166.174 11.9764 169.678 12.8652L169.99 12.9667L169.149 16.1811C165.234 15.3118 163.06 15.0698 160.085 15.0294C157.991 15.0086 156.542 15.17 155.779 15.4133C155.348 15.5552 155.171 15.7569 155.171 15.9989C155.171 16.2215 155.309 16.4245 155.74 16.5663C156.21 16.7277 156.973 16.9099 160.986 17.5762C165.332 18.3037 166.761 18.6082 167.954 19.0936C169.58 19.7404 170.557 20.9324 170.557 22.429C170.557 24.3095 169.149 25.7046 166.702 26.4724C165.195 26.937 163.177 27.1999 160.907 27.1999C157.345 27.1999 153.547 26.7157 151.1 25.9063Z" fill="#323232"/>
<defs>
<linearGradient id="paint0_linear_10470_9608" x1="30.026" y1="33.0697" x2="7.00047" y2="-0.558182" gradientUnits="userSpaceOnUse">
<stop stop-color="#BE0000"/>
<stop offset="0.3898" stop-color="#DE0000"/>
<stop offset="0.768" stop-color="#F60000"/>
<stop offset="1" stop-color="#FF0000"/>
</linearGradient>
<linearGradient id="paint1_linear_10470_9608" x1="23.6357" y1="17.8498" x2="23.946" y2="14.3027" gradientUnits="userSpaceOnUse">
<stop offset="0.65" stop-color="white" stop-opacity="0"/>
<stop offset="0.7285" stop-color="#E0E0E0" stop-opacity="0.2617"/>
<stop offset="0.8148" stop-color="#C5C5C5" stop-opacity="0.5493"/>
<stop offset="0.8914" stop-color="#B5B5B5" stop-opacity="0.8047"/>
<stop offset="0.95" stop-color="#AFAFAF"/>
</linearGradient>
<linearGradient id="paint2_linear_10470_9608" x1="19.0769" y1="27.2097" x2="34.0062" y2="27.2097" gradientUnits="userSpaceOnUse">
<stop stop-color="white" stop-opacity="0"/>
<stop offset="0.0839" stop-color="#F1F1F1" stop-opacity="0.0932"/>
<stop offset="0.2921" stop-color="#D4D4D4" stop-opacity="0.3246"/>
<stop offset="0.4993" stop-color="#C0C0C0" stop-opacity="0.5548"/>
<stop offset="0.7032" stop-color="#B3B3B3" stop-opacity="0.7814"/>
<stop offset="0.9" stop-color="#AFAFAF"/>
</linearGradient>
<linearGradient id="paint3_linear_10470_9608" x1="0.43142" y1="11.7264" x2="17.1198" y2="11.7264" gradientUnits="userSpaceOnUse">
<stop offset="0.25" stop-color="white" stop-opacity="0"/>
<stop offset="0.4615" stop-color="#EDEDED" stop-opacity="0.282"/>
<stop offset="0.886" stop-color="#BDBDBD" stop-opacity="0.848"/>
<stop offset="1" stop-color="#AFAFAF"/>
</linearGradient>
</defs>
</svg>
