<svg width="212" height="48" viewBox="0 0 212 48" fill="none" xmlns="http://www.w3.org/2000/svg">
<path d="M12.8248 33.65H47.3369L19.6814 5.87506C15.9962 2.19008 10.9981 0 5.78674 0H0.000244141L0.43131 1.13093L2.34732 6.15812L12.8248 33.65Z" fill="url(#paint0_linear_10470_9671)"/>
<path d="M2.34741 6.15805C6.12598 12.6105 16.0413 13.2915 17.1201 23.325C17.1645 23.7378 17.4809 24.0686 17.8912 24.1328C23.6052 25.0256 29.1708 27.3783 34.0065 31.255L34.0108 31.2585C34.0426 31.284 34.0759 31.2963 34.1185 31.2963C34.1612 31.2963 34.204 31.2807 34.2373 31.2489C34.3062 31.1834 34.309 31.0743 34.2434 31.0054C30.8947 27.4862 26.803 24.674 22.2101 22.825L20.8123 22.2623C20.0934 21.9729 19.5944 21.2597 19.6158 20.4393C19.6943 17.4415 26.7836 18.0513 27.5023 16.6101L27.626 16.3621C26.1662 15.1146 24.4317 14.1765 22.5215 13.6518C22.5044 13.7239 22.4581 14.0736 22.8468 14.7065C23.2695 15.3947 22.3843 16.4893 21.0957 15.3085L20.9874 15.2092C11.4085 6.43188 4.22638 10.9834 0.431396 1.13086L2.34741 6.15805Z" fill="white"/>
<path d="M25.3822 16.1993C25.3822 16.1993 23.8113 16.2774 22.8465 14.7065C23.1335 15.1739 22.8171 15.829 22.1812 15.8309V18.2225C23.2139 17.9225 24.3921 17.7387 25.3822 17.5306V16.1993Z" fill="url(#paint1_linear_10470_9671)"/>
<path d="M19.0769 24.3395C24.3729 25.359 29.5059 27.6469 34.0061 31.2549C23.9736 22.6833 19.4024 24.2332 19.0769 24.3395Z" fill="url(#paint2_linear_10470_9671)"/>
<path d="M4.36468 6.60673C2.80568 5.49821 1.48731 3.87233 0.431396 1.13086L2.34741 6.15805C6.12562 12.6098 16.0393 13.2914 17.1198 23.322C16.0292 10.5199 10.406 12.4333 4.36468 6.60673Z" fill="url(#paint3_linear_10470_9671)"/>
<path fill-rule="evenodd" clip-rule="evenodd" d="M75.974 36.0488V39.4857H89.9512V42.9031H75.974V47.7963H72V32.6313H90.3418V36.0488H75.974Z" fill="#DF0000"/>
<path fill-rule="evenodd" clip-rule="evenodd" d="M108.741 37.7671C108.741 36.6752 107.978 36.0492 106.647 36.0492H97.3293V39.4862H106.647C107.978 39.4862 108.741 38.8589 108.741 37.7671ZM112.892 37.5849C112.892 40.4765 110.718 42.5991 107.214 42.5991H106.588L114.124 47.6341C114.183 47.6744 114.183 47.7954 114.066 47.7954H108.369L101.792 43.2458C101.4 42.983 101.048 42.8008 100.207 42.8008H97.3293V47.7954H93.3552V32.6318H107.331C110.64 32.6318 112.892 34.6125 112.892 37.5849Z" fill="#DF0000"/>
<path fill-rule="evenodd" clip-rule="evenodd" d="M134.911 44.3784V47.7958H116.334V32.6309H134.911V36.0483H120.308V38.4948H134.52V41.9123H120.308V44.3784H134.911Z" fill="#DF0000"/>
<path fill-rule="evenodd" clip-rule="evenodd" d="M138.453 47.7954H142.427V32.6318H138.453V47.7954Z" fill="#DF0000"/>
<path fill-rule="evenodd" clip-rule="evenodd" d="M156.599 47.9977C147.536 47.9977 145.284 43.8528 145.284 40.2142C145.284 36.5742 147.985 32.4502 156.461 32.4502C160.259 32.4502 162.745 32.7729 165.506 33.2583L165.955 33.339V36.8579L165.368 36.7356C162.901 36.2307 159.555 35.8468 156.853 35.8468C153.897 35.8468 152.233 36.3322 151.235 37.0792C150.1 37.929 149.728 39.1015 149.728 40.2142C149.728 41.3256 150.1 42.4981 151.235 43.3479C152.233 44.0962 153.897 44.6011 156.657 44.6011C160.142 44.6011 163.215 43.9739 163.919 42.1545H156.324V38.879H167.756V41.1238C167.756 44.9447 165.075 47.9977 156.599 47.9977Z" fill="#DF0000"/>
<path fill-rule="evenodd" clip-rule="evenodd" d="M186.997 47.7954V41.9119H174.586V47.7954H170.612V32.6318H174.586V38.2928H186.997V32.6318H190.971V47.7954H186.997Z" fill="#DF0000"/>
<path fill-rule="evenodd" clip-rule="evenodd" d="M205.298 36.0488V47.7963H201.324V36.0488H193.181V32.6313H213.441V36.0488H205.298Z" fill="#DF0000"/>
<path fill-rule="evenodd" clip-rule="evenodd" d="M51.3338 23.7574C55.0533 23.7574 58.1857 21.8574 58.1857 19.2494C58.1857 16.6402 55.0533 14.7401 51.3338 14.7401C47.6143 14.7401 44.4819 16.6402 44.4819 19.2494C44.4819 21.8574 47.6143 23.7574 51.3338 23.7574ZM51.1384 27.4975C44.3256 27.4975 40 23.838 40 19.2494C40 14.5788 44.5801 11 51.3337 11C58.0873 11 62.6674 14.5996 62.6674 19.0672C62.6674 21.0687 61.8068 22.7059 60.1625 24.0814H64.1756L63.2155 25.7797C62.6094 26.8507 61.8648 27.4975 60.2595 27.4975H51.1384Z" fill="#323232"/>
<path fill-rule="evenodd" clip-rule="evenodd" d="M72.0032 21.3717H79.0894L75.8008 15.3268C75.7227 15.185 75.6635 15.1446 75.5463 15.1446C75.4291 15.1446 75.3699 15.185 75.2918 15.3268L72.0032 21.3717ZM80.9102 24.7071H70.1825L68.6554 27.4973H64.2126L71.6517 14.1946C72.2376 13.1431 73.0805 12.335 74.7626 12.335H76.4271C78.1104 12.335 78.9521 13.1431 79.5393 14.1946L86.9783 27.4973H82.4373L80.9102 24.7071Z" fill="#323232"/>
<path fill-rule="evenodd" clip-rule="evenodd" d="M108.157 12.3345V27.4981H104.183L92.5165 17.4502V27.4981H88.5425V12.3345H91.0285C92.3011 12.3345 92.9474 12.678 93.6719 13.3248L104.183 22.3629V12.3345H108.157Z" fill="#323232"/>
<path fill-rule="evenodd" clip-rule="evenodd" d="M121.406 15.9457V27.6932H117.431V15.9457H109.288V12.5283H129.549V15.9457H121.406Z" fill="#323232"/>
<path fill-rule="evenodd" clip-rule="evenodd" d="M134.757 21.3717H141.843L138.554 15.3268C138.476 15.185 138.417 15.1446 138.3 15.1446C138.183 15.1446 138.124 15.185 138.045 15.3268L134.757 21.3717ZM143.664 24.7071H132.936L131.409 27.4973H126.966L134.405 14.1946C134.991 13.1431 135.834 12.335 137.516 12.335H139.181C140.864 12.335 141.706 13.1431 142.293 14.1946L149.732 27.4973H145.191L143.664 24.7071Z" fill="#323232"/>
<path fill-rule="evenodd" clip-rule="evenodd" d="M151.1 26.4063L150.729 26.2853L151.727 22.9889C154.584 23.9389 157.638 24.3241 160.399 24.3241C164.92 24.3241 166.036 23.7775 166.036 23.1919C166.036 22.9485 165.879 22.7663 165.527 22.6453C165.076 22.4839 163.824 22.2211 160.124 21.5951C156.033 20.9067 154.192 20.5631 152.843 19.9163C151.492 19.2696 150.669 18.2389 150.669 16.7215C150.669 15.5697 151.218 14.6393 152.098 13.9118C153.664 12.6573 156.347 12.1523 159.264 12.1523C163.021 12.1523 166.174 12.4764 169.678 13.3652L169.99 13.4667L169.149 16.6811C165.234 15.8118 163.06 15.5698 160.085 15.5294C157.991 15.5086 156.542 15.67 155.779 15.9133C155.348 16.0552 155.171 16.2569 155.171 16.4989C155.171 16.7215 155.309 16.9245 155.74 17.0663C156.21 17.2277 156.973 17.4099 160.986 18.0762C165.332 18.8037 166.761 19.1082 167.954 19.5936C169.58 20.2404 170.557 21.4324 170.557 22.929C170.557 24.8095 169.149 26.2046 166.702 26.9724C165.195 27.437 163.177 27.6999 160.907 27.6999C157.345 27.6999 153.547 27.2157 151.1 26.4063Z" fill="#323232"/>
<defs>
<linearGradient id="paint0_linear_10470_9671" x1="30.026" y1="33.5697" x2="7.00047" y2="-0.0581819" gradientUnits="userSpaceOnUse">
<stop stop-color="#BE0000"/>
<stop offset="0.3898" stop-color="#DE0000"/>
<stop offset="0.768" stop-color="#F60000"/>
<stop offset="1" stop-color="#FF0000"/>
</linearGradient>
<linearGradient id="paint1_linear_10470_9671" x1="23.6357" y1="18.3498" x2="23.946" y2="14.8027" gradientUnits="userSpaceOnUse">
<stop offset="0.65" stop-color="white" stop-opacity="0"/>
<stop offset="0.7285" stop-color="#E0E0E0" stop-opacity="0.2617"/>
<stop offset="0.8148" stop-color="#C5C5C5" stop-opacity="0.5493"/>
<stop offset="0.8914" stop-color="#B5B5B5" stop-opacity="0.8047"/>
<stop offset="0.95" stop-color="#AFAFAF"/>
</linearGradient>
<linearGradient id="paint2_linear_10470_9671" x1="19.0769" y1="27.7097" x2="34.0062" y2="27.7097" gradientUnits="userSpaceOnUse">
<stop stop-color="white" stop-opacity="0"/>
<stop offset="0.0839" stop-color="#F1F1F1" stop-opacity="0.0932"/>
<stop offset="0.2921" stop-color="#D4D4D4" stop-opacity="0.3246"/>
<stop offset="0.4993" stop-color="#C0C0C0" stop-opacity="0.5548"/>
<stop offset="0.7032" stop-color="#B3B3B3" stop-opacity="0.7814"/>
<stop offset="0.9" stop-color="#AFAFAF"/>
</linearGradient>
<linearGradient id="paint3_linear_10470_9671" x1="0.43142" y1="12.2264" x2="17.1198" y2="12.2264" gradientUnits="userSpaceOnUse">
<stop offset="0.25" stop-color="white" stop-opacity="0"/>
<stop offset="0.4615" stop-color="#EDEDED" stop-opacity="0.282"/>
<stop offset="0.886" stop-color="#BDBDBD" stop-opacity="0.848"/>
<stop offset="1" stop-color="#AFAFAF"/>
</linearGradient>
</defs>
</svg>
