<svg width="93" height="90" viewBox="0 0 93 90" fill="none" xmlns="http://www.w3.org/2000/svg">
<path fill-rule="evenodd" clip-rule="evenodd" d="M21.1086 71.3542C21.1086 73.7331 23.5014 75.6448 27.2428 75.6448L32.2893 75.6661C33.1812 75.6661 33.5944 75.3262 33.9207 74.774L34.4428 73.8818H32.2241C33.1159 73.1596 33.5944 72.31 33.5944 71.2692C33.5944 68.9327 31.0712 67.0635 27.3515 67.0635C23.6319 67.0635 21.1086 68.9752 21.1086 71.3542ZM31.1147 71.3542C31.1147 72.6923 29.3963 73.6907 27.3515 73.6907V73.7119C25.3068 73.7119 23.5884 72.6923 23.5884 71.3542C23.5884 70.016 25.3068 69.0176 27.3515 69.0176C29.3963 69.0176 31.1147 70.016 31.1147 71.3542Z" fill="#323232"/>
<path fill-rule="evenodd" clip-rule="evenodd" d="M37.7275 74.2003H43.6223L44.4707 75.6446H46.9722L42.8828 68.7201C42.5618 68.088 41.8858 67.7036 41.1643 67.743H40.2507C39.5293 67.7036 38.8533 68.088 38.5323 68.7201L34.4429 75.6446H36.8791L37.7275 74.2003ZM42.6217 72.4585H38.7281L40.5553 69.3148C40.5988 69.2511 40.6205 69.2299 40.6858 69.2299C40.751 69.2299 40.7728 69.2511 40.8163 69.3148L42.6217 72.4585Z" fill="#323232"/>
<path d="M58.6312 67.7645V75.6662H56.4342L50.0173 70.4409V75.6662H47.8203V67.7645H49.1907C49.728 67.7292 50.2561 67.9139 50.6481 68.2743L56.4342 72.9686V67.7645H58.6312Z" fill="#323232"/>
<path d="M66.3969 69.5489V75.6663H64.2217V69.5489H59.7407V67.7646H70.8996V69.5489H66.3969Z" fill="#323232"/>
<path fill-rule="evenodd" clip-rule="evenodd" d="M72.2699 74.2003H78.1648L79.0131 75.6446H81.5147L77.4252 68.7201C77.1043 68.088 76.4282 67.7036 75.7068 67.743H74.7932C74.0718 67.7036 73.3958 68.088 73.0748 68.7201L68.9854 75.6446H71.4216L72.2699 74.2003ZM77.1642 72.4585H73.2705L75.0977 69.3148C75.1412 69.2511 75.163 69.2299 75.2283 69.2299C75.2935 69.2299 75.3153 69.2511 75.3588 69.3148L77.1642 72.4585Z" fill="#323232"/>
<path d="M82.2542 75.0924L82.0584 75.0287L82.6022 73.3081C84.1442 73.7777 85.7507 74.014 87.366 74.0091C89.8457 74.0091 90.4765 73.733 90.4765 73.4143C90.4765 73.0957 90.3895 73.2019 90.1937 73.1382C89.998 73.0745 89.2584 72.9258 87.2137 72.5859C85.169 72.2461 83.9508 72.0549 83.2113 71.7151C82.4717 71.3752 82.0149 70.8442 82.0149 70.0583C82.0251 69.4766 82.3152 68.9336 82.798 68.5926C83.6681 67.9342 85.1255 67.6793 86.7351 67.6793C88.6692 67.6538 90.5988 67.8679 92.4777 68.3165L92.6518 68.359L92.195 70.037C90.0415 69.591 88.8451 69.4635 87.2137 69.4423C86.0608 69.4423 85.256 69.506 84.8427 69.6334C84.4294 69.7609 84.5164 69.8034 84.5164 69.9308C84.5164 70.0583 84.5817 70.1432 84.8209 70.2282C85.0602 70.3132 85.4953 70.3981 87.714 70.7592C89.9327 71.1203 90.8898 71.2902 91.5424 71.5451C92.195 71.8 92.978 72.501 92.978 73.2869C92.978 74.0728 92.195 74.9862 90.8463 75.3897C89.804 75.6624 88.7276 75.7911 87.6487 75.7721C85.691 75.7508 83.6028 75.496 82.2542 75.0924Z" fill="#323232"/>
<path d="M26.7424 82.4847V82.3148C26.7424 81.6563 26.2421 81.1253 25.3938 81.1253C24.5455 81.1253 24.0669 81.5501 24.0669 82.1236C24.0669 82.6971 24.3932 82.9308 24.85 83.1007L25.9811 83.5467C26.7642 83.8441 27.6343 84.2477 27.6343 85.3947C27.6343 86.5417 26.7207 87.3276 25.3938 87.3276C24.0669 87.3276 23.1533 86.6054 23.1533 85.4584V85.2885H23.9582V85.5009C23.9582 86.1806 24.502 86.6692 25.4156 86.6692C26.3292 86.6692 26.873 86.1594 26.873 85.4797C26.873 84.8 26.3292 84.4813 25.6983 84.2265L24.7195 83.8441C23.9364 83.5467 23.3056 83.0582 23.3056 82.1661C23.3056 81.274 24.1322 80.4668 25.3938 80.4668C26.6554 80.4668 27.5255 81.189 27.5255 82.336V82.4634L26.7424 82.4847Z" fill="#323232"/>
<path fill-rule="evenodd" clip-rule="evenodd" d="M30.8753 82.1869C30.3234 82.1688 29.7995 82.4246 29.4832 82.8666L29.3744 82.2931H28.7871V89.1115H29.5484V86.7325C29.8679 87.1265 30.3611 87.3475 30.8753 87.3273C31.9847 87.3273 32.6373 86.6051 32.6373 85.5005V84.0137C32.6373 82.9091 31.9847 82.1869 30.8753 82.1869ZM29.5484 85.4793V84.0774H29.5267C29.5267 83.3764 30.0052 82.8454 30.7448 82.8454C31.4844 82.8454 31.8759 83.3552 31.8759 83.9924V85.543C31.8759 86.2015 31.4844 86.69 30.7448 86.69C30.0052 86.69 29.5484 86.159 29.5484 85.4793Z" fill="#323232"/>
<path fill-rule="evenodd" clip-rule="evenodd" d="M34.7037 80.8914C34.7037 80.6216 34.4797 80.4028 34.2034 80.4028C33.9271 80.4028 33.7031 80.6216 33.7031 80.8914C33.7031 81.1612 33.9271 81.3799 34.2034 81.3799C34.4797 81.3799 34.7037 81.1612 34.7037 80.8914ZM34.5732 87.2424V82.2933H33.8119V87.2424H34.5732Z" fill="#323232"/>
<path d="M35.8784 87.2422V82.2931H36.4657L36.5962 82.9303C36.8854 82.4757 37.3969 82.2019 37.9449 82.2081H38.2059V82.9091H37.8796C37.5432 82.8966 37.217 83.0231 36.981 83.2576C36.745 83.4921 36.6211 83.8128 36.6397 84.141V87.2635L35.8784 87.2422Z" fill="#323232"/>
<path fill-rule="evenodd" clip-rule="evenodd" d="M40.0113 80.8914C40.0113 80.6216 39.7874 80.4028 39.511 80.4028C39.2347 80.4028 39.0107 80.6216 39.0107 80.8914C39.0107 81.1612 39.2347 81.3799 39.511 81.3799C39.7874 81.3799 40.0113 81.1612 40.0113 80.8914ZM39.8808 87.2424V82.2933H39.1195V87.2424H39.8808Z" fill="#323232"/>
<path d="M40.8379 82.3147H41.8167V80.9766H42.5998V82.3147H43.5787V82.952H42.5998V87.2427H41.8167V82.952H40.8379V82.3147Z" fill="#323232"/>
<path fill-rule="evenodd" clip-rule="evenodd" d="M48.2773 87.3276C49.4301 87.3276 50.235 86.6054 50.235 85.4159V84.1202C50.235 82.9519 49.4301 82.2085 48.2773 82.2085C47.1244 82.2085 46.3413 82.9307 46.3413 84.1202V85.4159C46.3413 86.5841 47.1244 87.3276 48.2773 87.3276ZM48.2773 86.7116C47.5377 86.7116 47.1026 86.1806 47.1026 85.4796V84.0565C47.1026 83.3555 47.5377 82.8245 48.2773 82.8245C49.0168 82.8245 49.4519 83.3555 49.4519 84.0565V85.4796C49.4519 86.1806 49.0168 86.7116 48.2773 86.7116Z" fill="#323232"/>
<path d="M51.0181 82.3145H51.8229V82.0809C51.8229 80.9976 52.4102 80.4028 53.5413 80.4028H53.9764V81.0401H53.5848C52.8453 81.0401 52.606 81.4649 52.606 82.0384V82.3358H53.9329V82.973H52.606V87.2637H51.8229V82.9517H51.0181L51.0181 82.3145Z" fill="#323232"/>
<path fill-rule="evenodd" clip-rule="evenodd" d="M58.5007 80.5942L56.3037 87.2427H57.0868L57.5871 85.7133H60.1974L60.6977 87.2427H61.5243L59.3055 80.5942H58.5007ZM59.9798 85.0548H57.7829L58.8705 81.6563L59.9798 85.0548Z" fill="#323232"/>
<path d="M62.3291 82.2935H63.0904V85.5646C63.0904 86.2018 63.4602 86.6691 64.178 86.6691C64.8959 86.6691 65.3744 86.1381 65.3744 85.4584V82.2935H66.1357V87.2426H65.5484L65.4397 86.6691C65.1159 87.1001 64.5946 87.3467 64.0475 87.3276C62.9599 87.3276 62.3509 86.6266 62.3509 85.5646L62.3291 82.2935Z" fill="#323232"/>
<path d="M67.876 85.713V85.8829C67.876 86.3715 68.311 86.7326 69.0724 86.7326C69.8337 86.7326 70.16 86.3927 70.16 85.9042C70.16 85.4156 69.9642 85.2882 69.4857 85.1607L68.5068 84.8634C67.9195 84.6934 67.3322 84.3324 67.3322 83.5677C67.3322 82.803 68.0283 82.187 69.0506 82.187C70.073 82.187 70.8778 82.718 70.8778 83.6314V83.7164H70.16V83.5889C70.16 83.1429 69.7685 82.7605 69.0724 82.7605C68.3763 82.7605 68.0718 82.9942 68.0718 83.504C68.0718 84.0137 68.2675 84.035 68.6808 84.1624L69.5509 84.4173C70.3123 84.651 70.9213 84.9483 70.9213 85.8192C70.9213 86.6901 70.2035 87.3273 69.0941 87.3273C67.9848 87.3273 67.1799 86.7538 67.1799 85.8405V85.713H67.876Z" fill="#323232"/>
<path d="M71.6609 82.3147H72.6397V80.9766H73.4228V82.3147H74.4017V82.952H73.4228V87.2427H72.6397V82.952H71.6609V82.3147Z" fill="#323232"/>
<path d="M75.3586 87.2422V82.2931H75.946L76.0765 82.9303C76.3657 82.4757 76.8771 82.2019 77.4251 82.2081H77.6861V82.9091H77.3816C77.0452 82.8966 76.719 83.0231 76.483 83.2576C76.247 83.4921 76.1231 83.8128 76.1417 84.141V87.2635L75.3586 87.2422Z" fill="#323232"/>
<path fill-rule="evenodd" clip-rule="evenodd" d="M80.166 82.1871C79.0566 82.1871 78.4041 82.9093 78.4041 84.0138V85.4794C78.4041 86.584 79.0566 87.3061 80.166 87.3061C80.7131 87.3253 81.2343 87.0787 81.5581 86.6477L81.6669 87.2212H82.2542V82.272H81.6669L81.5581 82.8455C81.2343 82.4145 80.7131 82.1679 80.166 82.1871ZM81.4929 84.0563V85.4582H81.5146C81.5146 86.1591 81.0361 86.6689 80.2965 86.6689C79.5569 86.6689 79.1654 86.1591 79.1654 85.5219V83.9713C79.1654 83.3341 79.5569 82.8243 80.2965 82.8243C81.0361 82.8243 81.4929 83.3766 81.4929 84.0563Z" fill="#323232"/>
<path d="M84.3641 80.4028V87.2424H83.6028V80.4028H84.3641Z" fill="#323232"/>
<path fill-rule="evenodd" clip-rule="evenodd" d="M86.5829 80.8914C86.5829 80.6216 86.3589 80.4028 86.0826 80.4028C85.8063 80.4028 85.5823 80.6216 85.5823 80.8914C85.5823 81.1612 85.8063 81.3799 86.0826 81.3799C86.3589 81.3799 86.5829 81.1612 86.5829 80.8914ZM86.4524 87.2424V82.2933H85.691V87.2424H86.4524Z" fill="#323232"/>
<path fill-rule="evenodd" clip-rule="evenodd" d="M89.3889 82.1871C88.2795 82.1871 87.627 82.9093 87.627 84.0138V85.4794C87.627 86.584 88.2795 87.3061 89.3889 87.3061C89.936 87.3253 90.4573 87.0787 90.781 86.6477L90.8898 87.2212H91.4771V82.272H90.8898L90.781 82.8455C90.4573 82.4145 89.936 82.1679 89.3889 82.1871ZM90.7158 84.0563V85.4582C90.7158 86.1591 90.259 86.6689 89.5194 86.6689C88.7798 86.6689 88.3883 86.1591 88.3883 85.5219V83.9713C88.3883 83.3341 88.7798 82.8243 89.5194 82.8243C90.259 82.8243 90.7158 83.3766 90.7158 84.0563Z" fill="#323232"/>
<path d="M23.2994 61.1345H86L35.7562 10.6737C29.061 3.97889 19.9807 0 10.5128 0H0L0.78315 2.05465L4.26411 11.1879L23.2994 61.1345Z" fill="url(#paint0_linear_10470_9766)"/>
<path d="M4.26416 11.188C11.129 22.9106 29.143 24.1479 31.1029 42.3764C31.1835 43.1264 31.7582 43.7273 32.5037 43.844C42.8848 45.4661 52.9963 49.7404 61.7816 56.7835L61.7895 56.7899C61.8472 56.8362 61.9077 56.8584 61.9852 56.8584C62.0627 56.8584 62.1404 56.8301 62.201 56.7724C62.3261 56.6533 62.3312 56.4552 62.2121 56.33C56.1282 49.9364 48.6945 44.8273 40.3503 41.468L37.8107 40.4458C36.5046 39.92 35.598 38.6243 35.637 37.1338C35.7796 31.6875 48.6592 32.7952 49.9649 30.1769L50.1896 29.7264C47.5375 27.4599 44.3864 25.7556 40.9159 24.8024C40.885 24.9335 40.8007 25.5688 41.507 26.7186C42.2749 27.969 40.6666 29.9574 38.3256 27.8122L38.1288 27.6319C20.7262 11.6855 7.67784 19.9546 0.783203 2.05469L4.26416 11.188Z" fill="white"/>
<path d="M46.1135 29.4307C46.1135 29.4307 43.2595 29.5727 41.5067 26.7188C42.0281 27.5679 41.4533 28.7579 40.2979 28.7614V33.1065C42.1742 32.5614 44.3146 32.2276 46.1135 31.8494V29.4307Z" fill="url(#paint1_linear_10470_9766)"/>
<path d="M34.6582 44.2197C44.2798 46.0719 53.6053 50.2285 61.7813 56.7835C43.5544 41.2108 35.2495 44.0266 34.6582 44.2197Z" fill="url(#paint2_linear_10470_9766)"/>
<path d="M7.92909 12.0031C5.09673 9.98917 2.70156 7.03532 0.783203 2.05469L4.26416 11.188C11.1283 22.9093 29.1393 24.1477 31.1022 42.3709C29.121 19.1124 18.9047 22.5886 7.92909 12.0031Z" fill="url(#paint3_linear_10470_9766)"/>
<defs>
<linearGradient id="paint0_linear_10470_9766" x1="54.55" y1="60.9886" x2="12.7178" y2="-0.105706" gradientUnits="userSpaceOnUse">
<stop stop-color="#BE0000"/>
<stop offset="0.3898" stop-color="#DE0000"/>
<stop offset="0.768" stop-color="#F60000"/>
<stop offset="1" stop-color="#FF0000"/>
</linearGradient>
<linearGradient id="paint1_linear_10470_9766" x1="42.9404" y1="33.3377" x2="43.5042" y2="26.8935" gradientUnits="userSpaceOnUse">
<stop offset="0.65" stop-color="white" stop-opacity="0"/>
<stop offset="0.7285" stop-color="#E0E0E0" stop-opacity="0.2617"/>
<stop offset="0.8148" stop-color="#C5C5C5" stop-opacity="0.5493"/>
<stop offset="0.8914" stop-color="#B5B5B5" stop-opacity="0.8047"/>
<stop offset="0.95" stop-color="#AFAFAF"/>
</linearGradient>
<linearGradient id="paint2_linear_10470_9766" x1="34.6582" y1="50.3426" x2="61.7814" y2="50.3426" gradientUnits="userSpaceOnUse">
<stop stop-color="white" stop-opacity="0"/>
<stop offset="0.0839" stop-color="#F1F1F1" stop-opacity="0.0932"/>
<stop offset="0.2921" stop-color="#D4D4D4" stop-opacity="0.3246"/>
<stop offset="0.4993" stop-color="#C0C0C0" stop-opacity="0.5548"/>
<stop offset="0.7032" stop-color="#B3B3B3" stop-opacity="0.7814"/>
<stop offset="0.9" stop-color="#AFAFAF"/>
</linearGradient>
<linearGradient id="paint3_linear_10470_9766" x1="0.783247" y1="22.2128" x2="31.1022" y2="22.2128" gradientUnits="userSpaceOnUse">
<stop offset="0.25" stop-color="white" stop-opacity="0"/>
<stop offset="0.4615" stop-color="#EDEDED" stop-opacity="0.282"/>
<stop offset="0.886" stop-color="#BDBDBD" stop-opacity="0.848"/>
<stop offset="1" stop-color="#AFAFAF"/>
</linearGradient>
</defs>
</svg>
