<svg width="48" height="48" viewBox="0 0 48 48" fill="none" xmlns="http://www.w3.org/2000/svg">
<path fill-rule="evenodd" clip-rule="evenodd" d="M24.4977 3.0498C18.7577 3.0498 14.0977 7.7098 14.0977 13.4498C14.0977 19.1898 18.7577 23.8698 24.4977 23.8698C30.2377 23.8698 34.9177 19.2098 34.9177 13.4498C34.9177 7.6898 30.2477 3.0498 24.4977 3.0498Z" fill="#DF0000"/>
<path fill-rule="evenodd" clip-rule="evenodd" d="M29.6583 12.7302L26.8983 14.7302L27.9583 17.9602C28.0883 18.3802 27.6183 18.7302 27.2583 18.4702L24.4983 16.4702L21.7483 18.4702C21.3883 18.7302 20.9183 18.3702 21.0483 17.9602L22.1083 14.7302L19.3483 12.7302C18.9883 12.4702 19.1683 11.9102 19.6083 11.9102H23.0183L24.0683 8.68023C24.2083 8.26023 24.7983 8.26023 24.9283 8.68023L25.9883 11.9102H29.3883C29.8283 11.9102 30.0083 12.4702 29.6583 12.7302Z" fill="white"/>
<path d="M42.3589 45.2398H5.63891C4.11891 45.2398 2.87891 43.9998 2.87891 42.4798V21.3498C2.87891 19.8298 4.11891 18.5898 5.63891 18.5898H12.0589C12.6089 18.5898 13.0589 19.0398 13.0589 19.5898C13.0589 20.1398 12.6089 20.5898 12.0589 20.5898H5.63891C5.21891 20.5898 4.87891 20.9298 4.87891 21.3498V42.4798C4.87891 42.8998 5.21891 43.2398 5.63891 43.2398H42.3589C42.7789 43.2398 43.1189 42.8998 43.1189 42.4798V21.3498C43.1189 20.9298 42.7789 20.5898 42.3589 20.5898H36.9689C36.4189 20.5898 35.9689 20.1398 35.9689 19.5898C35.9689 19.0398 36.4189 18.5898 36.9689 18.5898H42.3589C43.8789 18.5898 45.1189 19.8298 45.1189 21.3498V42.4798C45.1189 43.9998 43.8789 45.2398 42.3589 45.2398Z" fill="#323232"/>
<path fill-rule="evenodd" clip-rule="evenodd" d="M34.4692 41.4704C34.4692 41.4704 34.5092 41.4904 34.5192 41.4904C34.5592 41.4904 34.5692 41.4904 34.6092 41.4504C34.6392 41.4104 34.6392 41.3404 34.6092 41.3004C32.4992 38.9904 29.9092 37.1204 27.0192 35.9204L26.1292 35.5504C25.6692 35.3504 25.3692 34.8804 25.3692 34.3504C25.4192 32.3704 29.8892 32.7804 30.3492 31.8304L30.4192 31.6604C29.4992 30.8304 28.4192 30.2204 27.2092 29.8704C27.1892 29.9204 27.1592 30.1504 27.3992 30.5704C27.6692 31.0104 27.1192 31.7304 26.2992 30.9604L26.2292 30.9004C20.3092 25.2404 17.5792 28.9804 13.5492 22.3904C13.5092 22.3304 13.4592 22.3204 13.4092 22.3504C13.3592 22.3904 13.3392 22.4404 13.3592 22.5004C16.5292 30.4704 23.0192 28.7904 23.7792 36.2204C23.8192 36.5004 24.0092 36.7204 24.2792 36.7604C27.8792 37.3504 31.3892 38.9104 34.4392 41.4604H34.4592" fill="#DF0000"/>
</svg>
