<svg width="48" height="48" viewBox="0 0 48 48" fill="none" xmlns="http://www.w3.org/2000/svg">
<path d="M38.5901 20.7399C38.5901 20.6399 38.6201 20.5399 38.6201 20.4299C38.6201 18.2899 37.2801 16.6499 35.0101 16.6499C34.3101 16.6499 33.8301 17.0099 33.2501 17.2999C32.9901 17.2699 32.0501 16.9699 31.7801 16.9699C28.8801 16.9699 26.4801 18.9899 26.0801 21.6199H33.4101C34.4001 21.6199 35.2101 22.4299 35.2101 23.4199V24.2799C35.2101 25.2699 34.4001 26.0799 33.4101 26.0799H27.5601C27.6101 26.1299 27.6601 26.1799 27.7201 26.2299H36.1701C37.1601 26.2299 37.9701 27.0399 37.9701 28.0299V28.8899C37.9701 29.1799 37.9401 30.4099 37.8201 30.6499C39.8601 29.9599 41.2701 27.1899 41.2701 25.0299C41.2701 23.1799 40.1901 21.5799 38.5901 20.7199V20.7399Z" fill="#8DE2E0"/>
<path d="M36.2993 40.7199H14.0693C11.8193 40.7199 9.6893 39.9899 7.9193 38.5999C7.1593 38.0099 6.1893 37.6799 5.1893 37.6799H3.7793C3.2293 37.6799 2.7793 37.2299 2.7793 36.6799C2.7793 36.1299 3.2293 35.6799 3.7793 35.6799H5.1893C6.6393 35.6799 8.0493 36.1599 9.1593 37.0199C10.5793 38.1299 12.2793 38.7099 14.0793 38.7099H30.1393C30.7993 38.7099 31.3493 38.1699 31.3493 37.4999C31.3493 36.8299 30.8093 36.2999 30.1393 36.2999H23.0193C22.4693 36.2999 22.0193 35.8499 22.0193 35.2999V35.1799C22.0193 34.6299 22.4693 34.1799 23.0193 34.1799H33.1593C33.8193 34.1799 34.3693 33.6399 34.3693 32.9799C34.3693 32.3199 33.8293 31.7699 33.1593 31.7699H22.7293C22.1793 31.7699 21.7293 31.3199 21.7293 30.7699V30.6499C21.7293 30.0999 22.1793 29.6499 22.7293 29.6499H35.8693C36.5293 29.6499 37.0693 29.1099 37.0693 28.4499C37.0693 27.7899 36.5293 27.2399 35.8693 27.2399H23.0193C22.4693 27.2399 22.0193 26.7899 22.0193 26.2399V26.1199C22.0193 25.5699 22.4693 25.1199 23.0193 25.1199H33.1593C33.8193 25.1199 34.3593 24.5799 34.3593 23.9199C34.3593 23.2599 33.8193 22.7099 33.1593 22.7099H20.7093C20.2593 22.7099 19.8593 22.4099 19.7493 21.9699L19.7193 21.8599C19.5993 21.4199 19.7893 20.9599 20.1793 20.7299L22.6293 19.3199C23.2093 18.9899 23.3993 18.2499 23.0693 17.6699C22.7493 17.1199 21.9793 16.9099 21.4193 17.2299L8.7493 24.6199C7.5293 25.2399 6.5693 25.7399 5.1893 25.7399H3.7793C3.2293 25.7399 2.7793 25.2899 2.7793 24.7399C2.7793 24.1899 3.2293 23.7399 3.7793 23.7399H5.1893C6.0793 23.7399 6.7093 23.4199 7.8293 22.8399L8.1093 22.6999L20.4093 15.4999C21.8393 14.6799 23.7593 15.1399 24.6693 16.4699L26.5293 15.3999C27.6593 14.7499 29.1593 14.8399 30.1993 15.6299C30.2993 15.6999 30.3693 15.7899 30.4393 15.8899C31.3793 15.7999 32.3593 15.9599 33.2293 16.3699C33.9793 15.7899 34.9093 15.4999 35.8893 15.5699C36.9893 15.6499 38.0093 16.1899 38.6893 17.0599C39.3093 17.8599 39.5993 18.8699 39.4893 19.8799C40.1193 20.3399 40.6793 20.9099 41.1793 21.5999C41.5093 22.0499 41.4093 22.6699 40.9593 22.9999C40.5093 23.3199 39.8893 23.2299 39.5593 22.7799C39.1393 22.1999 38.6793 21.7499 38.1493 21.3899C37.6293 21.0399 37.3693 20.4099 37.4793 19.7999C37.5693 19.2699 37.4393 18.7199 37.0993 18.2999C36.7693 17.8799 36.2693 17.6099 35.7393 17.5799H35.5993C35.1293 17.5799 34.6793 17.7499 34.3293 18.0599C33.8493 18.4899 33.1093 18.5799 32.5293 18.2699C32.0393 18.0099 31.5193 17.8699 30.9693 17.8699C29.2893 17.8699 27.9093 19.0999 27.6793 20.7199H33.1493C34.9193 20.7199 36.3493 22.1599 36.3493 23.9299C36.3493 24.3999 36.2493 24.8499 36.0593 25.2599C37.7293 25.3699 39.0493 26.7599 39.0493 28.4599C39.0493 28.7199 39.0193 28.9599 38.9593 29.1999L39.0993 29.0499C39.5293 28.5699 39.8893 27.9499 40.2493 27.0499C40.5193 26.3699 40.5793 25.9699 40.5993 24.6699C40.5993 24.1199 41.0593 23.6899 41.5993 23.6899H41.6193C42.1693 23.6899 42.6093 24.1499 42.5993 24.7099C42.5993 24.9199 42.5993 25.1199 42.5893 25.3099C44.0893 25.5799 45.2293 26.8899 45.2293 28.4599C45.2293 30.1599 43.9093 31.5499 42.2393 31.6599C42.4293 32.0599 42.5293 32.5199 42.5293 32.9899C42.5293 34.7299 41.1293 36.1599 39.3993 36.1899C39.5493 36.5699 39.6293 36.9799 39.6293 37.3999C39.6293 39.2299 38.1393 40.7199 36.3093 40.7199H36.2993ZM33.0993 38.7199H36.2993C37.0293 38.7199 37.6193 38.1299 37.6193 37.3999C37.6193 37.1299 37.5393 36.8699 37.3793 36.6399L37.0593 36.1899H33.0393C33.2193 36.5899 33.3293 37.0399 33.3293 37.5099C33.3293 37.9399 33.2493 38.3399 33.0893 38.7199H33.0993ZM37.5893 34.1999H39.3193C39.9793 34.1999 40.5293 33.6599 40.5293 32.9999C40.5293 32.3399 39.9893 31.7899 39.3193 31.7899H36.1193C36.2693 32.1599 36.3593 32.5699 36.3593 32.9999C36.3593 33.4299 36.2793 33.8299 36.1193 34.1999H37.5893ZM41.1593 29.6699H42.0293C42.6893 29.6699 43.2293 29.1299 43.2293 28.4699C43.2293 27.8999 42.8293 27.4199 42.2993 27.2999C42.2493 27.4699 42.1893 27.6399 42.1093 27.8199C41.8893 28.3599 41.5993 29.0299 41.1593 29.6799V29.6699ZM24.0993 20.7299H25.6593C25.7793 19.3199 26.4493 18.0699 27.4493 17.1899L25.2093 18.4799C25.1593 19.3299 24.7693 20.1499 24.0993 20.7199V20.7299Z" fill="#323232"/>
<path d="M35.7692 11.8602C36.7744 11.8602 37.5892 11.0454 37.5892 10.0402C37.5892 9.03506 36.7744 8.22021 35.7692 8.22021C34.7641 8.22021 33.9492 9.03506 33.9492 10.0402C33.9492 11.0454 34.7641 11.8602 35.7692 11.8602Z" fill="#8DE2E0"/>
<path d="M39.98 16.3199C41.3497 16.3199 42.46 15.2095 42.46 13.8399C42.46 12.4702 41.3497 11.3599 39.98 11.3599C38.6103 11.3599 37.5 12.4702 37.5 13.8399C37.5 15.2095 38.6103 16.3199 39.98 16.3199Z" fill="#8DE2E0"/>
</svg>
