<svg width="24" height="24" viewBox="0 0 24 24" fill="none" xmlns="http://www.w3.org/2000/svg">
<g clip-path="url(#clip0_10513_11145)">
<path d="M6.84981 17.1498L3.6498 15.3998L4.6998 14.3498L7.19981 14.6998L11.0998 10.7998L3.2998 6.5498L4.6998 5.1498L14.2498 7.5998L18.1748 3.7248C18.4581 3.44147 18.8123 3.2998 19.2373 3.2998C19.6623 3.2998 20.0165 3.44147 20.2998 3.7248C20.5831 4.00814 20.7248 4.3623 20.7248 4.7873C20.7248 5.2123 20.5831 5.56647 20.2998 5.8498L16.3998 9.7498L18.8498 19.2998L17.4498 20.6998L13.1998 12.8998L9.29981 16.7998L9.64981 19.2998L8.59981 20.3498L6.84981 17.1498Z" fill="#323232"/>
</g>
<defs>
<clipPath id="clip0_10513_11145">
<rect width="24" height="24" fill="white"/>
</clipPath>
</defs>
</svg>
