<svg width="48" height="48" viewBox="0 0 48 48" fill="none" xmlns="http://www.w3.org/2000/svg">
<path fill-rule="evenodd" clip-rule="evenodd" d="M38.3298 22.6501C38.7998 22.0201 38.5798 19.9401 37.0898 18.8301C35.5998 17.7201 33.3998 18.0101 32.9398 18.6401C32.4698 19.2701 34.9198 18.6601 36.4098 19.7701C37.8998 20.8801 37.8698 23.2801 38.3298 22.6601" fill="#8DE2E0"/>
<path d="M45.3105 31.0602L40.6405 18.4902C40.1405 17.1402 39.1405 16.0602 37.8205 15.4502C36.8105 14.9902 35.7105 14.8502 34.6405 15.0402L34.3905 14.3702C33.8905 13.0302 32.4005 12.3502 31.0605 12.8402L30.8605 12.9202L30.5505 12.0802L32.2505 11.4502C32.5005 11.3602 32.7005 11.1702 32.8105 10.9302C32.9205 10.6902 32.9305 10.4102 32.8405 10.1602L31.6705 7.00023C31.4805 6.48023 30.9005 6.22023 30.3805 6.41023L22.3905 9.38023C21.8705 9.57023 21.6105 10.1502 21.8005 10.6702L22.3205 12.0602L18.5405 13.4702C18.1605 13.6102 17.9005 13.9702 17.8905 14.3802L17.8305 16.3602C17.8205 16.9102 18.2505 17.3702 18.8005 17.3902C18.8005 17.3902 18.8205 17.3902 18.8305 17.3902C19.3705 17.3902 19.8105 16.9602 19.8305 16.4202L19.8705 15.1102L23.0405 13.9302C23.1405 14.1302 23.2905 14.3002 23.5005 14.3902C23.6305 14.4502 23.7705 14.4802 23.9205 14.4802C24.0405 14.4802 24.1605 14.4602 24.2705 14.4202L26.0205 13.7702L26.3305 14.6102L26.0705 14.7102C25.4205 14.9502 24.9005 15.4302 24.6105 16.0602C24.3205 16.6902 24.3005 17.3902 24.5405 18.0402L24.7905 18.7202C23.8805 19.2802 23.1505 20.0902 22.7005 21.0802C22.1005 22.3902 22.0405 23.8602 22.5505 25.2202L22.6505 25.4802C20.5905 25.4002 19.5805 25.1802 18.6905 24.9802C17.8505 24.7902 17.0505 24.6102 15.6405 24.6102C12.2905 24.6102 9.16055 27.5102 7.47055 29.4102L7.35055 29.2902C6.97055 28.9102 6.31055 28.9102 5.94055 29.2902L2.79055 32.4402C2.40055 32.8302 2.40055 33.4602 2.79055 33.8502L10.3105 41.3702C10.5105 41.5702 10.7605 41.6602 11.0205 41.6602C11.2805 41.6602 11.5305 41.5602 11.7305 41.3702L14.8805 38.2202C15.2705 37.8302 15.2705 37.2002 14.8805 36.8102L14.6105 36.5402C15.6505 35.6102 17.1005 34.7402 18.9305 34.7402L25.4405 34.7102C25.6505 34.7102 25.8605 34.7002 26.0705 34.6802L27.2305 37.7902C27.7205 39.1102 28.9705 39.9202 30.3005 39.9202C30.6805 39.9202 31.0605 39.8502 31.4405 39.7202L43.4105 35.2702C45.1005 34.6402 45.9705 32.7602 45.3405 31.0602H45.3105ZM32.5205 15.0702L32.7405 15.6502L26.6305 17.9202L26.4105 17.3402C26.3505 17.1902 26.3605 17.0302 26.4305 16.8902C26.5005 16.7502 26.6105 16.6402 26.7605 16.5802L30.6205 15.1502L31.7605 14.7302C32.0705 14.6202 32.4105 14.7702 32.5205 15.0802V15.0702ZM24.0105 10.9102L30.1305 8.64023L30.6105 9.92023L24.4905 12.1902L24.0105 10.9102ZM27.8805 13.0702L28.6705 12.7802L28.9805 13.6202L28.1905 13.9102L27.8805 13.0702ZM11.0005 39.2302L4.89055 33.1202L6.62055 31.3902L12.7305 37.5002L11.0005 39.2302ZM25.4105 32.7002L18.9005 32.7302C16.3505 32.7302 14.3905 34.0102 13.1705 35.1202L8.87055 30.8202C10.2105 29.3002 12.9705 26.6002 15.6205 26.6002C16.8105 26.6002 17.4405 26.7402 18.2305 26.9202C19.3505 27.1702 20.7505 27.4802 24.0305 27.5002C24.0305 27.5002 24.0405 27.5002 24.0505 27.5002C24.1305 27.5002 24.1905 27.5002 24.2705 27.5002H26.3405C26.7205 27.5002 27.2005 27.8402 27.2005 28.2102C27.2005 28.5802 26.7205 28.9202 26.3105 28.9202L21.6705 29.0602C21.1205 29.0802 20.6805 29.5402 20.7005 30.0902C20.7205 30.6402 21.1805 31.1002 21.7305 31.0602L26.3405 30.9202C27.5605 30.9202 28.8905 30.0102 29.1405 28.6602L35.7405 25.1102C36.0505 24.9302 36.4505 25.0502 36.6305 25.3602C36.7905 25.6502 36.7205 26.0002 36.4605 26.2002C34.3605 27.8302 29.7205 31.2102 27.1905 32.3302C26.6405 32.5702 26.0405 32.7002 25.3905 32.7002H25.4105ZM42.6905 33.3902L30.7205 37.8402C30.0605 38.0902 29.3305 37.7502 29.0805 37.0902L28.0005 34.1702C28.0005 34.1702 28.0105 34.1702 28.0205 34.1702C31.3905 32.6702 37.4505 27.9902 37.7005 27.7902C38.7405 26.9902 39.0305 25.5202 38.3805 24.3802C37.6605 23.1202 36.0505 22.6702 34.7905 23.3602L28.6605 26.6602C28.1005 25.9402 27.1905 25.5002 26.3505 25.5002H24.7805L24.4105 24.5202C24.0905 23.6702 24.1305 22.7402 24.5105 21.9102C24.8905 21.0802 25.5705 20.4502 26.4205 20.1302L34.3805 17.1702C35.2405 16.8502 36.1605 16.8902 36.9905 17.2702C37.8205 17.6502 38.4505 18.3302 38.7705 19.1802L43.4405 31.7502C43.6805 32.4102 43.3505 33.1402 42.6905 33.3802V33.3902Z" fill="#323232"/>
</svg>
