<svg width="24" height="24" viewBox="0 0 24 24" fill="none" xmlns="http://www.w3.org/2000/svg">
<path fill-rule="evenodd" clip-rule="evenodd" d="M6.06896 8.15212C6.14036 8.11265 6.2379 8.14545 6.2379 8.14545L9.31299 9.26247L9.36828 9.28292C9.41699 9.30281 9.48741 9.33637 9.5351 9.37984C9.6144 9.4523 9.63808 9.60019 9.63808 9.60019L7.42562 10.2321L6.85896 10.3969C6.85896 10.3969 6.38913 10.4749 6.19089 10.1681C5.99247 9.86124 6.00019 9.72423 6.00019 9.72423L6.00048 8.28324C6.00209 8.2557 6.01183 8.1837 6.06896 8.15212ZM6.06878 4.56037C6.14019 4.52089 6.23773 4.5537 6.23773 4.5537L18.0691 8.85107C18.0691 8.85107 18.1763 8.88949 18.2556 8.96212C18.3351 9.03458 18.2912 9.30458 18.2912 9.30458L16.2332 10.3707L6.7172 6.91422C6.7172 6.91422 6.39545 6.83493 6.19703 6.52791C5.99878 6.22107 6 5.93545 6 5.93545L6.00032 4.69148C6.00197 4.66394 6.0118 4.59194 6.06878 4.56037ZM9.01176 2.09703C9.08317 2.05756 9.18071 2.09037 9.18071 2.09037L18.0691 5.26212C18.0691 5.26212 18.1635 5.28458 18.2428 5.35703C18.3221 5.42966 18.2912 5.62879 18.2912 5.62879L16.2332 6.78177L9.66019 4.45107C9.66019 4.45107 9.33843 4.37159 9.14019 4.06475C8.94177 3.75773 8.94298 3.47212 8.94298 3.47212V2.23914C8.94298 2.23914 8.94054 2.13651 9.01176 2.09703Z" fill="#D72147"/>
<path fill-rule="evenodd" clip-rule="evenodd" d="M10.929 19.1616C10.9997 19.2324 11.0115 19.3741 11.0135 19.4194L11.0139 20.6544C11.0139 20.6544 11.0091 20.8774 10.9176 21.0779C10.8262 21.2786 10.6921 21.326 10.6921 21.326L10.4133 21.4272L8.91089 22V19.8128L10.4133 19.24C10.4133 19.24 10.8439 19.0765 10.929 19.1616ZM13.6597 14.5969C13.7306 14.6676 13.7424 14.8094 13.7444 14.8547L13.7447 16.0897C13.7447 16.0897 13.7398 16.3126 13.6483 16.5132C13.5569 16.7137 13.4228 16.7612 13.4228 16.7612L8.91089 18.4002V16.213L13.144 14.6753C13.144 14.6753 13.5747 14.5118 13.6597 14.5969ZM18.0691 8.85107C18.0691 8.85124 18.1893 8.86914 18.2911 8.96844C18.393 9.06756 18.3942 9.18861 18.3942 9.18861V10.8211C18.3942 10.8211 18.3893 11.0442 18.2977 11.2448C18.2063 11.4453 18.0723 11.4928 18.0723 11.4928L8.91106 14.8204V12.6332L17.7935 9.40686C17.7935 9.40686 18.2449 9.22265 18.2449 9.03563C18.2449 8.90651 18.0691 8.85107 18.0691 8.85107ZM18.0691 5.26212C18.0691 5.26159 18.1893 5.28037 18.2911 5.37949C18.393 5.47861 18.3942 5.59984 18.3942 5.59984V7.2323C18.3942 7.2323 18.3893 7.45528 18.2977 7.6558C18.2063 7.85633 18.0723 7.90387 18.0723 7.90387L8.91106 11.2316C8.91106 11.2316 8.86826 11.2448 8.81282 11.2448C8.7572 11.2448 8.7144 11.2316 8.7144 11.2316L6.23966 10.3326C6.23966 10.3326 6.17826 10.3183 6.09124 10.1818C6.01755 10.067 6.00311 9.86733 6.0005 9.77465L6.00019 9.72423C6.00019 9.72423 6.01545 9.88054 6.10369 9.95458C6.19176 10.0286 6.4265 9.94738 6.4265 9.94738L17.7937 5.81844C17.7937 5.81844 18.2449 5.6344 18.2449 5.44721C18.2449 5.31808 18.0691 5.26212 18.0691 5.26212Z" fill="#282656"/>
</svg>
