<svg width="48" height="48" viewBox="0 0 48 48" fill="none" xmlns="http://www.w3.org/2000/svg">
<path fill-rule="evenodd" clip-rule="evenodd" d="M13.7704 43.8202L11.1504 22.1202C11.1504 22.1202 12.8404 17.7102 16.2104 16.8302C19.5804 15.9502 19.0304 19.3402 21.5004 20.1502C23.9704 20.9602 27.3404 17.3002 29.8804 20.1502C32.4204 23.0002 29.6404 25.1102 31.5304 27.1302C33.1804 28.9002 35.0204 26.5002 35.0204 26.5002L34.3604 44.5902L13.7604 43.8102L13.7704 43.8202Z" fill="#8DE2E0"/>
<path d="M41.6905 2.3501H6.31055C5.76055 2.3501 5.31055 2.8001 5.31055 3.3501C5.31055 3.9001 5.76055 4.3501 6.31055 4.3501H8.79055L12.8005 44.2701C12.8505 44.7801 13.2805 45.1701 13.8005 45.1701H34.2105C34.7205 45.1701 35.1505 44.7801 35.2105 44.2701L39.1605 4.3601H41.7005C42.2505 4.3601 42.7005 3.9101 42.7005 3.3601C42.7005 2.8101 42.2505 2.3601 41.7005 2.3601L41.6905 2.3501ZM35.4505 21.4001H29.5305L29.9105 13.8801H36.2005L35.4605 21.4001H35.4505ZM34.3805 32.2801H28.9805L29.4305 23.4001H35.2605L34.3805 32.2801ZM21.0105 32.2801L20.5705 23.4001H27.4305L26.9805 32.2801H21.0105ZM26.8705 34.2801L26.4205 43.1601H21.5505L21.1105 34.2801H26.8805H26.8705ZM11.7605 13.8701H18.0905L18.4705 21.3901H12.5205L11.7605 13.8701ZM12.7105 23.4001H18.5605L19.0005 32.2801H13.6005L12.7105 23.4001ZM27.5305 21.4001H20.4705L20.0905 13.8801H27.9105L27.5305 21.4001ZM19.9905 11.8701L19.6105 4.3501H28.3905L28.0105 11.8701H19.9905ZM17.6105 4.3501L17.9905 11.8701H11.5605L10.8005 4.3501H17.6105ZM13.8105 34.2801H19.1105L19.5505 43.1601H14.7005L13.8105 34.2801ZM28.4305 43.1601L28.8805 34.2801H34.1805L33.3005 43.1601H28.4305ZM36.3905 11.8701H30.0105L30.3905 4.3501H37.1405L36.4005 11.8701H36.3905Z" fill="#323232"/>
</svg>
