<svg width="118" height="30" viewBox="0 0 118 30" fill="none" xmlns="http://www.w3.org/2000/svg">
<path d="M70.7462 7.92071C70.7462 9.40088 70.1206 10.5198 69.125 11.0749L70.6845 13.5683H69.266L67.9709 11.4273C67.8035 11.4626 67.6361 11.4802 67.451 11.4802C65.4951 11.4802 64.1559 10.1057 64.1559 7.92071V3.55947C64.1559 1.37445 65.4422 0 67.451 0C69.4598 0 70.7462 1.37445 70.7462 3.55947V7.92071ZM65.3101 7.95595C65.3101 9.31278 66.0854 10.3172 67.4422 10.3172C68.7991 10.3172 69.5656 9.31278 69.5656 7.95595V3.52423C69.5656 2.1674 68.7991 1.163 67.4422 1.163C66.0854 1.163 65.3101 2.1674 65.3101 3.52423V7.95595Z" fill="#323232"/>
<path d="M73.495 11.3129L76.6933 0.16748H77.8651L81.0985 11.3129H79.8915L79.1602 8.74898H75.3452L74.6316 11.3129H73.4862H73.495ZM75.6624 7.63885H78.8783L77.2483 1.92078L75.6624 7.63885Z" fill="#323232"/>
<path d="M90.6581 11.3129H89.6977L85.3453 2.69612V11.3129H84.2616V0.16748H85.3012L89.5744 8.65206V0.16748H90.6581V11.3129Z" fill="#323232"/>
<path d="M93.7505 0.16748H100.191V1.33929H97.5479V11.3129H96.3849V1.33929H93.7417V0.16748H93.7505Z" fill="#323232"/>
<path d="M101.645 11.3129L104.843 0.16748H106.015L109.248 11.3129H108.041L107.31 8.74898H103.495L102.781 11.3129H101.636H101.645ZM103.803 7.63885H107.019L105.389 1.92078L103.803 7.63885Z" fill="#323232"/>
<path d="M116.949 3.33921V3.06608C116.949 1.94714 116.235 1.0837 114.984 1.0837C113.733 1.0837 113.046 1.77974 113.046 2.76652C113.046 3.55066 113.53 4.10573 114.191 4.39648L115.839 5.14538C116.984 5.65639 118.262 6.3348 118.262 8.2467C118.262 10.1586 116.931 11.489 114.993 11.489C113.055 11.489 111.715 10.2819 111.715 8.35242V8.0793H112.861V8.4141C112.861 9.55066 113.636 10.3789 114.984 10.3789C116.332 10.3789 117.116 9.53304 117.116 8.39648C117.116 7.18943 116.341 6.71366 115.407 6.30837L113.988 5.6652C112.861 5.17181 111.927 4.36123 111.927 2.86344C111.927 1.18062 113.151 0 114.975 0C116.799 0 118.077 1.20705 118.077 3.13656V3.33921H116.949Z" fill="#323232"/>
<path d="M70.8695 29.8148H69.6977V24.7047H65.592V29.8148H64.429V18.6694H65.592V23.5417H69.6977V18.6694H70.8695V29.8148Z" fill="#323232"/>
<path d="M81.2484 26.4231C81.2484 28.6082 79.9092 29.9826 77.9532 29.9826C75.9973 29.9826 74.6581 28.6082 74.6581 26.4231V22.0619C74.6581 19.8769 75.9444 18.5024 77.9532 18.5024C79.962 18.5024 81.2484 19.8769 81.2484 22.0619V26.4231ZM75.8123 26.4584C75.8123 27.8152 76.5876 28.8196 77.9444 28.8196C79.3012 28.8196 80.0678 27.8152 80.0678 26.4584V22.0267C80.0678 20.6698 79.3012 19.6654 77.9444 19.6654C76.5876 19.6654 75.8123 20.6698 75.8123 22.0267V26.4584Z" fill="#323232"/>
<path d="M83.9531 18.6694H90.3937V19.8412H87.7505V29.8148H86.5875V19.8412H83.9443V18.6694H83.9531Z" fill="#323232"/>
<path d="M94.6492 24.6958V28.6518H99.3364V29.8236H93.495V18.6782H99.2131V19.85H94.6492V23.5505H98.8254V24.7047H94.6492V24.6958Z" fill="#323232"/>
<path d="M104.024 28.643H108.403V29.8148H102.861V18.6694H104.024V28.643Z" fill="#323232"/>
<path d="M115.821 21.8416V21.5685C115.821 20.4496 115.107 19.5861 113.856 19.5861C112.605 19.5861 111.918 20.2822 111.918 21.269C111.918 22.0531 112.403 22.6082 113.063 22.8989L114.711 23.6478C115.856 24.1588 117.134 24.8372 117.134 26.7491C117.134 28.661 115.803 29.9914 113.865 29.9914C111.927 29.9914 110.588 28.7844 110.588 26.8549V26.5817H111.733V26.9165C111.733 28.0531 112.508 28.8813 113.856 28.8813C115.204 28.8813 115.988 28.0355 115.988 26.8989C115.988 25.6919 115.213 25.2161 114.279 24.8108L112.861 24.1676C111.733 23.6742 110.799 22.8637 110.799 21.3659C110.799 19.6831 112.015 18.5024 113.847 18.5024C115.68 18.5024 116.949 19.7095 116.949 21.639V21.8416H115.821Z" fill="#323232"/>
<path d="M53.1162 0.0351562V29.9999" stroke="#323232" stroke-width="0.666551" stroke-miterlimit="10"/>
<path d="M11.3277 29.8415H41.7682L17.3717 5.3481C14.1206 2.097 9.71533 0.16748 5.11621 0.16748H0.0148926L0.393747 1.16308L2.08538 5.59479L11.3277 29.8415Z" fill="url(#paint0_linear_15605_2394)"/>
<path d="M2.08531 5.5948C5.4157 11.2864 14.1646 11.8856 15.1161 20.7314C15.1514 21.0926 15.4333 21.3834 15.7946 21.445C20.8342 22.2292 25.7417 24.3085 30.006 27.727C30.006 27.727 30.0677 27.7622 30.1029 27.7622C30.1382 27.7622 30.1822 27.7446 30.2087 27.7182C30.2703 27.6565 30.2703 27.5684 30.2087 27.5067C27.2571 24.4054 23.6448 21.9208 19.5919 20.2908L18.3584 19.7974C17.7241 19.5419 17.2835 18.9164 17.3012 18.1939C17.3717 15.5508 23.6272 16.0882 24.2527 14.8195L24.3584 14.5992C23.0721 13.4979 21.5391 12.6697 19.8562 12.2115C19.8386 12.2732 19.8034 12.5816 20.147 13.1455C20.517 13.7534 19.7417 14.7137 18.6051 13.6741L18.5082 13.586C10.0765 5.83269 3.74169 9.85031 0.393677 1.16309L2.08531 5.5948Z" fill="white"/>
<path d="M22.4025 14.4495C22.4025 14.4495 21.0193 14.52 20.1646 13.1367C20.4202 13.5508 20.1382 14.1235 19.5743 14.1323V16.238C20.4818 15.9737 21.5215 15.8151 22.3937 15.6301V14.4583L22.4025 14.4495Z" fill="url(#paint1_linear_15605_2394)"/>
<path d="M16.843 21.6302C21.5126 22.5289 26.0413 24.5465 30.006 27.7271C21.1602 20.1676 17.125 21.5333 16.843 21.6302Z" fill="url(#paint2_linear_15605_2394)"/>
<path d="M3.86504 5.99128C2.49059 5.01331 1.3276 3.57718 0.393677 1.16309L2.08531 5.5948C5.4157 11.2864 14.1646 11.8856 15.1161 20.7314C14.1558 9.43622 9.19544 11.1278 3.86504 5.99128Z" fill="url(#paint3_linear_15605_2394)"/>
<defs>
<linearGradient id="paint0_linear_15605_2394" x1="26.473" y1="29.7358" x2="6.16467" y2="0.0793763" gradientUnits="userSpaceOnUse">
<stop stop-color="#BE0000"/>
<stop offset="0.39" stop-color="#DD0000"/>
<stop offset="0.77" stop-color="#F60000"/>
<stop offset="1" stop-color="#FF0000"/>
</linearGradient>
<linearGradient id="paint1_linear_15605_2394" x1="20.8607" y1="16.3438" x2="21.1338" y2="13.216" gradientUnits="userSpaceOnUse">
<stop offset="0.65" stop-color="white" stop-opacity="0"/>
<stop offset="0.69" stop-color="#ECECEC" stop-opacity="0.0529"/>
<stop offset="0.76" stop-color="#D6D6D6" stop-opacity="0.25"/>
<stop offset="0.81" stop-color="#C5C5C5" stop-opacity="0.5184"/>
<stop offset="0.87" stop-color="#B9B9B9" stop-opacity="0.7569"/>
<stop offset="0.91" stop-color="#B1B1B1" stop-opacity="0.9409"/>
<stop offset="0.95" stop-color="#AFAFAF"/>
</linearGradient>
<linearGradient id="paint2_linear_15605_2394" x1="16.843" y1="24.5994" x2="30.006" y2="24.5994" gradientUnits="userSpaceOnUse">
<stop stop-color="white" stop-opacity="0"/>
<stop offset="0.07" stop-color="#F3F3F3" stop-opacity="0.0225"/>
<stop offset="0.21" stop-color="#DEDEDE" stop-opacity="0.1681"/>
<stop offset="0.35" stop-color="#CDCDCD" stop-opacity="0.3844"/>
<stop offset="0.49" stop-color="#C0C0C0" stop-opacity="0.6241"/>
<stop offset="0.63" stop-color="#B6B6B6" stop-opacity="0.8281"/>
<stop offset="0.77" stop-color="#B0B0B0" stop-opacity="0.9604"/>
<stop offset="0.9" stop-color="#AFAFAF"/>
</linearGradient>
<linearGradient id="paint3_linear_15605_2394" x1="0.393677" y1="10.9428" x2="15.1161" y2="10.9428" gradientUnits="userSpaceOnUse">
<stop offset="0.25" stop-color="white" stop-opacity="0"/>
<stop offset="0.36" stop-color="#F6F6F6" stop-opacity="0.0121"/>
<stop offset="0.58" stop-color="#E0E0E0" stop-opacity="0.1444"/>
<stop offset="0.88" stop-color="#BDBDBD" stop-opacity="0.6724"/>
<stop offset="1" stop-color="#AFAFAF"/>
</linearGradient>
</defs>
</svg>
