<svg width="48" height="48" viewBox="0 0 48 48" fill="none" xmlns="http://www.w3.org/2000/svg">
<path d="M37.7 36.1603L37.49 36.4303C37.22 36.7803 37.05 37.0503 36.94 37.2903C36.77 37.6703 36.54 38.0003 36.27 38.2703C36.23 38.2603 36.17 38.2303 36.08 38.1903C35.9 38.1103 35.69 38.0703 35.42 38.0303C35.45 37.9803 35.47 37.9303 35.5 37.8903C35.67 37.6203 35.94 37.3603 36.33 37.0803C36.53 36.9403 36.81 36.7103 37.12 36.4403C37.54 36.0803 37.58 35.4403 37.21 35.0303C36.85 34.6203 36.21 34.5703 35.8 34.9403C35.55 35.1603 35.32 35.3503 35.16 35.4603C34.56 35.8903 34.11 36.3403 33.81 36.8303C33.55 37.2403 33 38.2803 33.4 39.1403C33.69 39.7703 34.39 39.8903 35.07 40.0103C35.18 40.0303 35.28 40.0503 35.28 40.0303C35.47 40.1203 35.88 40.3003 36.37 40.3003C36.75 40.3003 37.18 40.1903 37.57 39.8203C38.07 39.3503 38.47 38.7903 38.77 38.1303C38.78 38.1103 38.85 37.9803 39.09 37.6603L39.27 37.4303C39.62 37.0003 39.55 36.3703 39.12 36.0203C38.69 35.6703 38.06 35.7403 37.71 36.1703L37.7 36.1603Z" fill="#323232"/>
<path d="M46.0702 27.9701C45.8702 27.2901 45.2302 27.0801 43.6602 26.6301C43.6102 26.6201 43.5702 26.6001 43.5202 26.5901C42.5702 24.7401 41.8002 24.4601 41.2902 24.4101C40.9302 24.3701 40.5702 24.5101 40.2802 24.7801C39.8402 25.2001 39.5102 26.0301 39.5502 26.6401C39.5502 26.8101 39.6302 27.3001 39.8702 28.7701C39.9702 29.3701 40.0502 29.9101 40.0602 30.0301C40.1802 30.8701 41.9702 32.9101 42.5302 33.1001C42.6302 33.1401 42.7402 33.1501 42.8602 33.1501C43.1802 33.1501 43.5002 33.0101 43.6902 32.7601C43.8202 32.6001 43.9302 32.4201 44.0302 32.2401L44.1202 32.0901C44.2402 31.8901 44.7402 31.1401 45.1302 30.5301C45.4002 30.1101 45.6302 29.7701 45.6702 29.7001C45.8702 29.3701 46.2902 28.6901 46.0702 27.9601V27.9701ZM43.4502 29.4501C43.2002 29.8301 42.9202 30.2601 42.7102 30.5901C42.4302 30.2501 42.1502 29.8801 42.0302 29.6801C42.0002 29.5001 41.9502 29.1601 41.8402 28.4601C41.7802 28.0901 41.7202 27.7001 41.6702 27.3601C41.7402 27.4901 41.8202 27.6401 41.8902 27.8001C41.9102 27.8401 41.9502 27.9201 41.9802 27.9601C42.2002 28.2901 42.4302 28.3601 43.1102 28.5501C43.3002 28.6001 43.6102 28.7001 43.9002 28.7901C43.8102 28.9301 43.6502 29.1801 43.4702 29.4601L43.4502 29.4501Z" fill="#323232"/>
<path d="M24.8804 21.79H24.8704C24.0807 21.79 23.4404 22.4303 23.4404 23.22V23.23C23.4404 24.0198 24.0807 24.66 24.8704 24.66H24.8804C25.6702 24.66 26.3104 24.0198 26.3104 23.23V23.22C26.3104 22.4303 25.6702 21.79 24.8804 21.79Z" fill="#8DE2E0"/>
<path d="M38 30.9797C37.58 30.9797 37.19 30.7097 37.05 30.2997C35.11 24.4797 28.18 24.5897 27.89 24.6097C27.34 24.6597 26.88 24.1897 26.86 23.6397C26.84 23.0897 27.28 22.6297 27.83 22.6097C27.91 22.6097 36.53 22.4397 38.94 29.6697C39.11 30.1897 38.83 30.7597 38.31 30.9297C38.21 30.9697 38.1 30.9797 37.99 30.9797H38Z" fill="#DF0000"/>
<path d="M26.3696 33.5999C25.8196 33.5999 25.2796 33.3599 24.7796 32.8899C24.6496 32.7699 24.5196 32.6499 24.3896 32.5299C23.5896 31.8099 22.6896 30.9899 22.3396 29.6499C22.3396 29.6499 22.3296 29.6499 22.3196 29.6499C22.1996 29.6899 22.0896 29.7599 21.9796 29.8199C21.8896 29.8699 21.7996 29.9199 21.6996 29.9699C21.3296 30.1599 20.8796 30.0999 20.5696 29.8199L20.0896 29.3899C19.7696 29.0899 19.4496 28.7999 19.1196 28.5199C17.9696 27.5299 16.7996 27.3099 15.5496 27.8399C14.5496 28.2699 13.5996 28.8199 12.5896 29.3999L12.0496 29.7099C11.5596 29.9899 11.0796 30.2899 10.5996 30.5899C9.97961 30.9799 9.32961 31.3799 8.65961 31.7499C8.45961 31.8599 8.23961 31.9499 7.97961 32.0299C7.42961 32.1999 6.82961 32.1099 6.34961 31.7999C5.83961 31.4699 5.50961 30.9399 5.42961 30.3199C5.37961 29.9699 5.15961 29.6199 4.89961 29.2299L4.67961 28.8899C3.18961 26.5099 2.35961 24.5499 1.98961 22.5299C1.54961 20.1599 2.23961 18.9999 4.50961 18.2499L4.62961 18.2099C4.89961 18.1199 5.17961 18.0299 5.44961 17.9799C6.87961 17.7099 7.78961 16.8799 8.70961 15.0099C9.18961 14.0199 9.81961 13.1199 10.4196 12.2499L10.6896 11.8599C11.2796 10.9999 12.4396 10.7399 13.3496 11.2599C13.5696 11.3799 13.7596 11.4899 13.9596 11.5899C13.9996 11.6099 14.0396 11.6099 14.0696 11.5999C14.0996 11.5899 14.1296 11.5599 14.1496 11.5199L14.2296 11.3499C14.3396 11.1399 14.4396 10.9199 14.4696 10.7599C14.5896 9.98987 15.0996 8.70987 17.0496 8.74987C17.7596 8.76987 18.4696 8.76987 19.2296 8.75987H20.3096C20.6496 8.75987 20.9596 8.92987 21.1496 9.20987C21.3396 9.48987 21.3596 9.84987 21.2196 10.1599L20.9896 10.6899C20.8196 11.0699 20.6796 11.3999 20.5196 11.7299C20.4196 11.9499 20.4596 12.2099 20.6296 12.3199C21.6996 13.0699 22.9796 13.4299 24.5396 13.3999C24.7196 13.3999 24.8196 13.1099 24.8596 12.9399C25.0596 12.1699 25.1996 11.3899 25.3496 10.5599L25.5196 9.65987C25.5996 9.20987 25.6996 8.70987 26.0496 8.15987C26.2496 7.83987 26.6096 7.66987 26.9996 7.70987C27.3796 7.74987 27.6996 7.99987 27.8296 8.34987C27.9296 8.59987 28.0396 8.84987 28.1496 9.09987C28.4296 9.72987 28.7096 10.3799 28.8296 11.1199C29.2396 13.6999 30.3096 15.5599 32.2196 16.9599C32.8096 17.3899 33.2496 17.9399 33.6696 18.4699C33.8296 18.6699 33.9896 18.8699 34.1496 19.0599C35.0896 20.1299 35.6296 20.8099 35.6996 22.2799C35.7296 22.8299 35.2996 23.2999 34.7496 23.3299C34.2096 23.3399 33.7296 22.9299 33.6996 22.3799C33.6596 21.5699 33.4696 21.3199 32.6496 20.3899C32.4596 20.1699 32.2796 19.9499 32.0996 19.7199C31.7496 19.2699 31.4096 18.8499 31.0396 18.5799C28.9596 17.0599 27.6496 15.0399 27.0496 12.4199C26.9796 12.7599 26.8996 13.1099 26.8196 13.4499C26.5096 14.6599 25.6796 15.3999 24.5896 15.4199C22.6196 15.4499 20.8996 14.9699 19.4896 13.9799C18.5196 13.2999 18.1996 11.9999 18.7296 10.8899C18.7496 10.8499 18.7696 10.8199 18.7796 10.7799C18.1696 10.7799 17.5896 10.7799 17.0096 10.7699C16.5196 10.7599 16.5096 10.8099 16.4596 11.0999C16.3896 11.5499 16.1996 11.9199 16.0396 12.2499L15.9596 12.3999C15.7096 12.9299 15.2696 13.3199 14.7196 13.4999C14.1696 13.6899 13.5796 13.6399 13.0596 13.3799C12.8296 13.2599 12.6096 13.1399 12.3496 12.9899L12.0796 13.3799C11.4896 14.2299 10.9396 15.0299 10.5196 15.8799C9.71961 17.5099 8.45961 19.4399 5.82961 19.9299C5.63961 19.9699 5.45961 20.0299 5.26961 20.0899L5.13961 20.1299C3.82961 20.5599 3.70961 20.7699 3.95961 22.1399C4.27961 23.8999 5.02961 25.6499 6.37961 27.8099L6.56961 28.1099C6.91961 28.6399 7.30961 29.2299 7.41961 30.0399C7.54961 30.0499 7.63961 30.0199 7.71961 29.9699C8.33961 29.6399 8.92961 29.2699 9.54961 28.8799C10.0496 28.5699 10.5496 28.2499 11.0596 27.9599L11.5896 27.6499C12.5996 27.0599 13.6496 26.4599 14.7696 25.9799C16.7296 25.1499 18.6796 25.4999 20.4196 26.9899C20.7496 27.2699 21.0696 27.5599 21.3896 27.8599C21.4796 27.8199 21.5796 27.7799 21.6896 27.7399C22.3296 27.5299 22.9496 27.5699 23.4396 27.8499C23.8596 28.0899 24.1396 28.4999 24.2396 28.9999C24.3996 29.8299 25.0196 30.3899 25.7196 31.0299C25.8596 31.1599 25.9996 31.2899 26.1396 31.4199C26.2796 31.5599 26.3596 31.5799 26.3696 31.5799C26.3696 31.5799 26.4396 31.5599 26.5696 31.4599C27.5696 30.6399 28.7396 30.5999 29.7696 31.3499C29.7996 31.3499 29.8296 31.3499 29.8596 31.3499C30.1396 31.3099 30.4096 31.2399 30.6496 31.1799L31.9696 28.2099C32.0096 28.0999 32.0696 27.9799 32.1296 27.8299C32.3596 27.3299 32.9496 27.1099 33.4596 27.3399C33.9596 27.5699 34.1796 28.1699 33.9496 28.6699L33.8196 28.9599C33.7796 29.0599 33.7296 29.1699 33.6796 29.2899L32.2796 32.4299C32.1496 32.7099 31.8996 32.9199 31.5996 32.9899L31.3396 33.0599C31.0296 33.1399 30.5996 33.2599 30.1496 33.3199C29.7096 33.3899 29.0796 33.3299 28.6196 32.9799C28.3096 32.7399 28.1396 32.7499 27.8296 32.9999C27.3596 33.3899 26.8596 33.5799 26.3596 33.5799L26.3696 33.5999Z" fill="#323232"/>
<path d="M29.1703 38.7098C26.5203 38.7098 26.4503 36.3498 26.4203 35.2098V34.8498C26.3903 34.5798 26.4903 34.3098 26.6803 34.1098C26.8703 33.9098 27.1303 33.7998 27.4003 33.7998H30.6203C31.1203 33.7998 31.5403 34.1698 31.6103 34.6598C31.7203 35.4698 31.7803 36.9698 30.9503 37.9298C30.5103 38.4398 29.8903 38.7098 29.1703 38.7098ZM28.4503 35.7998C28.5303 36.7098 28.7203 36.7098 29.1703 36.7098C29.3703 36.7098 29.4103 36.6498 29.4403 36.6198C29.5603 36.4798 29.6403 36.1698 29.6703 35.7998H28.4503Z" fill="#323232"/>
<path d="M39.16 31.8398H39.14C38.2343 31.8398 37.5 32.5741 37.5 33.4798V33.4998C37.5 34.4056 38.2343 35.1398 39.14 35.1398H39.16C40.0657 35.1398 40.8 34.4056 40.8 33.4998V33.4798C40.8 32.5741 40.0657 31.8398 39.16 31.8398Z" fill="#8DE2E0"/>
</svg>
