<svg width="48" height="48" viewBox="0 0 48 48" fill="none" xmlns="http://www.w3.org/2000/svg">
<path d="M42.1299 16.15V22.07H30.1699L32.4499 16.15H42.1299Z" fill="#8DE2E0"/>
<path d="M44.2398 21.07H43.1298V16.15C43.1298 15.6 42.6798 15.15 42.1298 15.15H32.4498C32.0398 15.15 31.6698 15.4 31.5198 15.79L29.2398 21.71L26.9598 27.66H19.4798C19.4198 27.66 19.3698 27.68 19.3098 27.69C18.3698 27.07 17.2598 26.71 16.0498 26.71C15.5298 26.71 15.0298 26.78 14.5498 26.91C14.4998 26.87 14.4598 26.83 14.3998 26.8L4.74977 22.41V19.12H26.6998C27.1098 19.12 27.4698 18.87 27.6298 18.49L29.7798 13.16H40.8998C41.4498 13.16 41.8998 12.71 41.8998 12.16C41.8998 11.61 41.4498 11.16 40.8998 11.16H29.1098C28.6998 11.16 28.3398 11.41 28.1798 11.79L26.0298 17.12H3.75977C3.20977 17.12 2.75977 17.57 2.75977 18.12V23.05C2.75977 23.44 2.98977 23.8 3.34977 23.96L12.3098 28.04C10.9698 29.13 10.0998 30.8 10.0998 32.66C10.0998 35.94 12.7698 38.61 16.0498 38.61C18.9898 38.61 21.4298 36.46 21.9098 33.66H29.3998C29.8798 36.47 32.3198 38.61 35.2598 38.61C38.5298 38.61 41.1998 35.95 41.2098 32.68H44.2398C44.7898 32.68 45.2398 32.23 45.2398 31.68V22.05C45.2398 21.5 44.7898 21.05 44.2398 21.05V21.07ZM33.1398 17.15H41.1298V21.07H31.6298L33.1398 17.15ZM16.0498 36.62C13.8698 36.62 12.0998 34.85 12.0998 32.67C12.0998 30.49 13.8698 28.72 16.0498 28.72C18.2298 28.72 19.9998 30.49 19.9998 32.67C19.9998 34.85 18.2298 36.62 16.0498 36.62ZM35.2598 36.62C33.0798 36.62 31.3098 34.85 31.3098 32.67C31.3098 30.49 33.0798 28.72 35.2598 28.72C37.4398 28.72 39.2098 30.49 39.2098 32.67C39.2098 34.85 37.4398 36.62 35.2598 36.62ZM43.2398 30.7H40.8698C40.0498 28.39 37.8498 26.73 35.2598 26.73C32.3198 26.73 29.8798 28.88 29.3998 31.68H21.9098C21.7898 30.96 21.5298 30.28 21.1698 29.67H27.6398C28.0498 29.67 28.4298 29.41 28.5698 29.03L30.8498 23.07H43.2298V30.7H43.2398Z" fill="#323232"/>
<path d="M21.03 10.97C20.7 10.59 20.23 10.38 19.74 10.38H15.01C14.65 10.38 14.3 10.49 14.01 10.7L6.20996 16.02H25.01L21.03 10.96V10.97Z" fill="#DF0000"/>
</svg>
