<svg width="48" height="48" viewBox="0 0 48 48" fill="none" xmlns="http://www.w3.org/2000/svg">
<path d="M2.93973 33.6298C2.53973 33.6298 2.16973 33.3898 2.01973 33.0098C1.72973 32.3198 1.00973 23.1698 8.59973 17.8198C9.04973 17.4998 9.67973 17.6098 9.98973 18.0598C10.3097 18.5098 10.1997 19.1398 9.74973 19.4498C3.16973 24.0998 3.86973 31.8898 3.91973 32.4198C3.93973 32.4998 3.93973 32.5798 3.93973 32.6598C3.91973 33.1298 3.57973 33.5198 3.11973 33.5998C3.05973 33.6098 2.99973 33.6198 2.93973 33.6198V33.6298Z" fill="#DF0000"/>
<path d="M45.0596 33.6302C44.5096 33.6302 44.0596 33.1802 44.0596 32.6302C44.0596 32.5602 44.0596 32.5002 44.0796 32.4302C44.0896 32.3202 44.1296 31.9502 44.1296 31.4002C44.1296 30.6002 44.0596 29.3302 43.7396 27.8702C43.6196 27.3302 43.9596 26.8002 44.4996 26.6802C45.0396 26.5602 45.5696 26.9002 45.6896 27.4402C46.0496 29.0802 46.1296 30.5002 46.1296 31.4002C46.1296 32.5902 46.1296 33.6202 45.0696 33.6202L45.0596 33.6302ZM42.8996 24.0202C42.5596 24.0202 42.2296 23.8502 42.0396 23.5302C41.2496 22.1902 40.2296 21.0202 39.0196 20.0302C38.5896 19.6802 38.5296 19.0502 38.8796 18.6202C39.2296 18.1902 39.8596 18.1302 40.2896 18.4802C41.6796 19.6102 42.8496 20.9702 43.7696 22.5102C44.0496 22.9802 43.8996 23.6002 43.4196 23.8802C43.2596 23.9802 43.0796 24.0202 42.9096 24.0202H42.8996Z" fill="#DF0000"/>
<path d="M17.9608 30.1002L15.1608 32.0902C14.5608 32.5102 13.7608 32.5202 13.1508 32.1202L7.65081 28.5002C7.23081 28.2202 7.22081 27.6102 7.62081 27.3202L8.74081 26.5202C9.21081 26.1902 9.80081 26.1002 10.3508 26.2902L17.7608 28.8402C18.3208 29.0302 18.4208 29.7602 17.9408 30.1002" fill="#DF0000"/>
<path d="M38.6905 14.5202L38.5905 14.3802C38.1505 13.7402 37.1205 12.2402 35.2905 11.9102C33.9605 11.6702 32.5105 12.0902 30.9805 13.1602L24.7405 17.5402L16.3805 17.3102C14.7905 17.3402 13.2905 18.1302 12.3605 19.4202C12.1905 19.6602 12.1305 19.9602 12.2005 20.2402C12.2705 20.5202 12.4605 20.7602 12.7305 20.8902C13.8105 21.4302 15.7705 22.3102 17.1005 22.9002L14.4005 24.7902C13.9505 25.1102 13.8405 25.7302 14.1605 26.1802C14.4805 26.6302 15.1005 26.7402 15.5505 26.4202L32.1305 14.7802C33.2005 14.0302 34.1505 13.7202 34.9305 13.8602C35.5905 13.9802 36.1005 14.4202 36.4705 14.8502C34.1205 16.5202 27.9005 20.9202 27.9005 20.9202C27.7105 21.0602 27.5705 21.2602 27.5105 21.4802C27.5105 21.4802 25.5605 28.9302 24.9505 31.3902C24.7305 32.1502 24.3205 32.8202 23.7605 33.3602L22.9805 26.2202C22.9405 25.8702 22.7205 25.5602 22.4005 25.4202C22.0805 25.2702 21.7005 25.3102 21.4105 25.5202L19.3005 27.0202C18.8505 27.3402 18.7405 27.9602 19.0605 28.4102C19.3805 28.8602 20.0005 28.9702 20.4505 28.6502L21.1705 28.1402L21.9505 35.2302C21.9905 35.5502 22.1705 35.8302 22.4505 35.9902C22.6005 36.0802 22.7705 36.1202 22.9405 36.1202C23.0805 36.1202 23.2305 36.0902 23.3605 36.0302C25.0705 35.2302 26.3505 33.7502 26.8705 31.9202C27.4105 29.7502 28.9505 23.8502 29.3405 22.3502C30.8605 21.2702 37.7005 16.4202 38.4505 15.8902C38.9005 15.5702 39.0005 14.9502 38.6805 14.5002L38.6905 14.5202ZM14.9205 19.7302C15.3605 19.4702 15.8705 19.3202 16.3705 19.3102L22.0005 19.4702L19.0005 21.5702C18.2905 21.2602 16.4105 20.4202 14.9105 19.7302H14.9205Z" fill="#323232"/>
</svg>
