<svg width="48" height="48" viewBox="0 0 48 48" fill="none" xmlns="http://www.w3.org/2000/svg">
<path d="M31.3401 32.5301C30.9001 32.5301 30.4901 32.2301 30.3701 31.7801L28.9001 26.1201C28.0601 23.1101 26.9301 19.8801 24.1001 19.8601H24.0601C21.8101 19.8601 20.3001 21.7601 19.1901 26.0201L17.6101 31.6701C17.4601 32.2001 16.9001 32.5101 16.3801 32.3601C15.8501 32.2101 15.5401 31.6601 15.6901 31.1301L17.2701 25.4901C17.8101 23.4101 19.2701 17.8501 24.0701 17.8501H24.1301C28.7001 17.8901 30.0901 22.9001 30.8401 25.5901L32.3201 31.2701C32.4601 31.8001 32.1401 32.3501 31.6001 32.4901C31.5201 32.5101 31.4301 32.5201 31.3501 32.5201L31.3401 32.5301Z" fill="#323232"/>
<path d="M24.1897 16.24H24.1297C20.8297 16.21 18.1597 13.5 18.1897 10.19C18.2197 6.9 20.8997 4.25 24.1797 4.25H24.2297C25.8297 4.26 27.3297 4.9 28.4497 6.04C29.5697 7.18 30.1797 8.69 30.1697 10.29C30.1597 11.89 29.5197 13.39 28.3797 14.51C27.2497 15.62 25.7597 16.23 24.1797 16.23L24.1897 16.24ZM24.1897 6.25C22.0097 6.25 20.2197 8.02 20.1997 10.21C20.1797 12.41 21.9597 14.22 24.1597 14.24H24.1997C25.2497 14.24 26.2397 13.83 26.9997 13.1C27.7597 12.35 28.1797 11.35 28.1897 10.29C28.1897 9.22 27.7897 8.22 27.0497 7.46C26.2997 6.7 25.2997 6.27 24.2397 6.27H24.1997L24.1897 6.25Z" fill="#323232"/>
<path d="M36.879 13.71H36.819C35.219 13.7 33.719 13.06 32.599 11.92C31.479 10.78 30.869 9.26998 30.879 7.66998C30.889 6.06998 31.529 4.56998 32.669 3.44998C33.809 2.32998 35.339 1.72998 36.919 1.72998C40.219 1.75998 42.889 4.46998 42.859 7.77998C42.849 9.37998 42.209 10.88 41.069 12C39.939 13.11 38.449 13.72 36.869 13.72L36.879 13.71ZM36.879 3.72998C35.829 3.72998 34.829 4.13998 34.079 4.86998C33.319 5.61998 32.899 6.61998 32.889 7.67998C32.879 8.74998 33.289 9.74998 34.029 10.51C34.769 11.27 35.779 11.7 36.839 11.7C37.939 11.7 38.909 11.3 39.669 10.56C40.429 9.80998 40.849 8.80998 40.859 7.74998C40.879 5.54998 39.109 3.73998 36.909 3.71998H36.869L36.879 3.72998Z" fill="#323232"/>
<path d="M42.5802 30.1601C42.0302 30.1601 41.5802 29.7101 41.5802 29.1601V18.7001C41.5802 17.9501 40.9702 17.3501 40.2302 17.3501H33.1602C32.6102 17.3501 32.1602 16.9001 32.1602 16.3501C32.1602 15.8001 32.6102 15.3501 33.1602 15.3501H40.2302C42.0802 15.3501 43.5802 16.8501 43.5802 18.7001V29.1601C43.5802 29.7101 43.1302 30.1601 42.5802 30.1601Z" fill="#323232"/>
<path d="M36.6898 42.8701C34.5698 42.8701 32.8398 41.3301 32.8398 39.4401V28.3101C32.8398 27.7601 33.2898 27.3101 33.8398 27.3101C34.3898 27.3101 34.8398 27.7601 34.8398 28.3101V39.4401C34.8398 40.2301 35.6698 40.8701 36.6898 40.8701C37.7098 40.8701 38.5398 40.2301 38.5398 39.4401V28.3101C38.5398 27.7601 38.9898 27.3101 39.5398 27.3101C40.0898 27.3101 40.5398 27.7601 40.5398 28.3101V39.4401C40.5398 41.3301 38.8098 42.8701 36.6898 42.8701Z" fill="#323232"/>
<path d="M11.1192 13.7102C9.53916 13.7102 8.04916 13.1002 6.91916 11.9902C5.77916 10.8702 5.13916 9.37021 5.12916 7.77022C5.09916 4.47022 7.75916 1.75021 11.0692 1.72021H11.1292C12.7092 1.72021 14.1992 2.33021 15.3292 3.44021C16.4692 4.56021 17.1092 6.06021 17.1192 7.66021C17.1392 9.26021 16.5292 10.7702 15.3992 11.9102C14.2792 13.0502 12.7792 13.6902 11.1792 13.7002H11.1192V13.7102ZM11.1192 3.72021H11.0792C8.87916 3.74021 7.10916 5.55021 7.12916 7.75021C7.12916 8.82021 7.55916 9.82022 8.31916 10.5602C9.06916 11.3002 10.0592 11.7002 11.1192 11.7002H11.1592C12.2292 11.7002 13.2292 11.2702 13.9692 10.5102C14.7092 9.75021 15.1192 8.74021 15.1092 7.68021C15.1092 6.61021 14.6792 5.61021 13.9192 4.87021C13.1692 4.13021 12.1792 3.73021 11.1192 3.73021V3.72021Z" fill="#323232"/>
<path d="M5.41992 30.1498C4.86992 30.1498 4.41992 29.6998 4.41992 29.1498V18.6898C4.41992 16.8398 5.91992 15.3398 7.76992 15.3398H14.8399C15.3899 15.3398 15.8399 15.7898 15.8399 16.3398C15.8399 16.8898 15.3899 17.3398 14.8399 17.3398H7.76992C7.01992 17.3398 6.41992 17.9498 6.41992 18.6898V29.1498C6.41992 29.6998 5.96992 30.1498 5.41992 30.1498Z" fill="#323232"/>
<path d="M11.3109 42.8701C9.19094 42.8701 7.46094 41.3301 7.46094 39.4401V28.3101C7.46094 27.7601 7.91094 27.3101 8.46094 27.3101C9.01094 27.3101 9.46094 27.7601 9.46094 28.3101V39.4401C9.46094 40.2301 10.2909 40.8701 11.3109 40.8701C12.3309 40.8701 13.1609 40.2301 13.1609 39.4401V28.3101C13.1609 27.7601 13.6109 27.3101 14.1609 27.3101C14.7109 27.3101 15.1609 27.7601 15.1609 28.3101V39.4401C15.1609 41.3301 13.4309 42.8701 11.3109 42.8701Z" fill="#323232"/>
<path d="M24.1898 46.2202C22.0698 46.2202 20.3398 44.6802 20.3398 42.7902V31.6602C20.3398 31.1102 20.7898 30.6602 21.3398 30.6602C21.8898 30.6602 22.3398 31.1102 22.3398 31.6602V42.7902C22.3398 43.5802 23.1698 44.2202 24.1898 44.2202C25.2098 44.2202 26.0398 43.5802 26.0398 42.7902V31.6602C26.0398 31.1102 26.4898 30.6602 27.0398 30.6602C27.5898 30.6602 28.0398 31.1102 28.0398 31.6602V42.7902C28.0398 44.6802 26.3098 46.2202 24.1898 46.2202Z" fill="#323232"/>
</svg>
