<svg width="24" height="24" viewBox="0 0 24 24" fill="none" xmlns="http://www.w3.org/2000/svg">
<g clip-path="url(#clip0_16335_5423)">
<path d="M23.6789 14.7568C25.2013 8.30659 21.2066 1.84354 14.7564 0.321152C8.30617 -1.20123 1.84311 2.79355 0.320729 9.24374C-1.20165 15.6939 2.79312 22.157 9.24332 23.6794C15.6935 25.2018 22.1566 21.207 23.6789 14.7568Z" fill="white"/>
<mask id="mask0_16335_5423" style="mask-type:luminance" maskUnits="userSpaceOnUse" x="-1" y="-1" width="26" height="26">
<path d="M23.6789 14.7568C25.2013 8.30659 21.2066 1.84354 14.7564 0.321152C8.30617 -1.20123 1.84311 2.79355 0.320729 9.24374C-1.20165 15.6939 2.79312 22.157 9.24332 23.6794C15.6935 25.2018 22.1566 21.207 23.6789 14.7568Z" fill="white"/>
</mask>
<g mask="url(#mask0_16335_5423)">
<path d="M36 0H0V24H36V0Z" fill="white"/>
<path d="M36 8.27576H0V15.7242H36V8.27576Z" fill="black"/>
<path d="M36 0H0V7.44987H36V0Z" fill="#007C29"/>
<path d="M36 16.5515H0V24H36V16.5515Z" fill="#FED700"/>
<path fill-rule="evenodd" clip-rule="evenodd" d="M0 0V24L15.9758 12L0 0Z" fill="#FF0000"/>
<path fill-rule="evenodd" clip-rule="evenodd" d="M0.681946 10.9421H4.28181L5.39419 7.51831L6.50656 10.9421H10.1064L7.19272 13.0537L8.30649 16.4816L5.39419 14.3575L2.48188 16.4816L3.59565 13.0537L0.681946 10.9421Z" fill="#FED700"/>
<path fill-rule="evenodd" clip-rule="evenodd" d="M3.6739 9.5517L3.10234 9.51257H3.09954H3.09675C3.05063 9.51257 3.00452 9.52655 2.96818 9.55869C2.9584 9.56707 2.94862 9.57685 2.94163 9.58664V9.58943V9.59223L1.86838 11.1923V11.1951L1.86559 11.1965C1.84183 11.2398 1.84323 11.2915 1.87397 11.3307L2.44274 11.9819C2.46929 12.007 2.51121 12.0098 2.53916 11.9847C2.54196 11.9819 2.54475 11.9791 2.54755 11.9749L3.83321 10.3664C3.84439 10.351 3.85138 10.3343 3.85278 10.3161L3.88492 9.83678L4.16441 10.1554L4.39639 10.1708L5.12027 10.9981L4.9973 11.1015L5.16779 11.3027L5.29356 11.1965L5.3257 11.2328L5.1622 11.3712L4.96096 11.1336L4.94 11.0134L4.54592 11.3474C4.23149 11.3614 3.90448 11.4201 3.618 11.5389C3.61521 11.5389 3.61241 11.5417 3.60962 11.5445L3.33292 11.8212C3.33292 11.8212 3.32733 11.8296 3.32593 11.8352L3.16942 12.6079L3.06321 12.5996L3.03107 12.9853L3.07439 12.9895L3.06601 13.0887L2.99753 13.0831L2.54755 13.5303C2.44833 13.5093 2.34072 13.5303 2.25827 13.6015L1.4729 14.2667C1.44355 14.2919 1.43936 14.3352 1.46451 14.3646L1.92707 14.911C1.99276 14.9878 2.10874 14.9864 2.17303 14.911L2.82564 14.1172H4.92463C5.06018 14.2332 5.24465 14.2891 5.42213 14.2891C5.5996 14.2891 5.78966 14.2318 5.92521 14.1116C6.10968 13.9747 6.65469 13.9453 6.88387 13.9453C7.0865 13.9453 7.63291 13.9705 7.83135 14.1046L8.48676 14.8537C8.54825 14.8383 8.60694 14.8076 8.65725 14.7628C8.70756 14.7181 8.74529 14.6636 8.77044 14.6063L7.98367 13.7064L7.51971 11.8352C7.51971 11.8352 7.51692 11.8268 7.51273 11.8226L7.23743 11.5473C7.23743 11.5473 7.23044 11.5417 7.22485 11.5403C6.89225 11.4019 6.50656 11.346 6.14741 11.346C6.07334 11.346 5.99928 11.3488 5.92521 11.353L5.85813 11.2762L6.05657 11.1085C6.11806 11.0568 6.14042 10.9729 6.11946 10.9002L6.47441 10.5998L6.61416 10.7647C6.63512 10.7898 6.67285 10.7926 6.69661 10.7717L7.58819 10.0157C7.64968 10.0576 7.73353 10.052 7.79082 9.99609L9.30008 8.53854C9.31126 8.52876 9.31405 8.51059 9.30288 8.49801C9.29309 8.48683 9.27772 8.48404 9.26654 8.49242L7.58679 9.68865L7.59658 9.56288C7.59797 9.53773 7.59098 9.51257 7.57282 9.49161C7.53788 9.44968 7.475 9.44409 7.43307 9.48043L7.33665 9.56148C7.24861 9.51956 7.16616 9.46086 7.09768 9.38261L7.03899 9.39239L7.01523 9.67747L6.58062 10.045L6.35563 10.0268L5.81202 10.488L5.80223 10.604L5.71 10.495L5.40256 10.7549L4.67448 9.92203L4.68986 9.69005L4.27341 9.21351C4.14485 9.06678 3.92265 9.05141 3.77592 9.17998C3.66831 9.275 3.63058 9.42034 3.67111 9.54891L3.6739 9.5517ZM5.61078 10.9925L5.57864 10.9561L5.78826 10.7787L5.819 10.815L5.60939 10.9925H5.61078Z" fill="black"/>
<path fill-rule="evenodd" clip-rule="evenodd" d="M3.14007 12.935L3.96178 12.239L3.99951 12.2823L4.61859 11.796L4.07637 12.2935L4.08476 12.341L3.98274 12.4277L3.92964 12.3648L3.1261 13.1012L3.14007 12.935Z" fill="white"/>
<path fill-rule="evenodd" clip-rule="evenodd" d="M5.87631 14.092C5.77988 13.9788 5.62337 13.8754 5.42213 13.7915C5.2209 13.8754 5.06298 13.9788 4.96796 14.092C5.09373 14.194 5.26142 14.2429 5.42213 14.2429C5.58284 14.2429 5.75053 14.1954 5.87631 14.092Z" fill="white"/>
<path fill-rule="evenodd" clip-rule="evenodd" d="M3.48804 12.3619L4.47744 11.5248L4.45927 11.4228L4.48303 11.4019C4.19795 11.42 3.90588 11.4759 3.64595 11.5821L3.48804 12.3619Z" fill="white"/>
<path fill-rule="evenodd" clip-rule="evenodd" d="M3.22113 12.5883L3.42795 12.4123L3.58587 11.6381L3.36926 11.8533L3.22113 12.5883Z" fill="white"/>
<path fill-rule="evenodd" clip-rule="evenodd" d="M3.61943 13.5191L3.59847 13.4632L3.4727 13.3542L3.81787 13.0369L3.94085 13.0467L4.10854 12.8916L4.0191 12.7854L3.89613 12.8986C3.92128 12.9154 3.95063 12.9237 3.97998 12.9265L3.97578 12.9824L3.81927 12.9699L3.26308 13.4799C3.26448 13.5079 3.26168 13.5372 3.2533 13.5638C3.37767 13.5428 3.50065 13.5275 3.61803 13.5177L3.61943 13.5191Z" fill="white"/>
<path fill-rule="evenodd" clip-rule="evenodd" d="M3.82208 14.0711L3.63622 13.5652C3.50765 13.5764 3.3707 13.5931 3.23375 13.6169C3.22676 13.6295 3.21838 13.642 3.20999 13.6532L2.86761 14.0697H3.82348L3.82208 14.0711Z" fill="white"/>
<path fill-rule="evenodd" clip-rule="evenodd" d="M4.04426 13.5484L4.14628 13.8265L3.8584 14.0696H4.92187C5.0155 13.9551 5.16502 13.8516 5.35787 13.765C4.95121 13.6085 4.47608 13.5498 4.04286 13.547L4.04426 13.5484Z" fill="white"/>
<path fill-rule="evenodd" clip-rule="evenodd" d="M5.39839 13.1319C4.97915 13.0537 4.57808 12.872 4.2357 12.5897L4.15046 12.668L4.36008 12.9153L3.95062 13.2912L4.02748 13.5009C4.47747 13.5009 4.97636 13.5638 5.39839 13.7301V13.1319Z" fill="white"/>
<path fill-rule="evenodd" clip-rule="evenodd" d="M5.39836 11.6688L5.09372 11.9273C5.07695 11.9413 5.05319 11.9385 5.03922 11.9231L4.85056 11.7009L4.81422 11.7316L4.96515 11.9091C4.97214 11.9175 4.97074 11.9287 4.96236 11.9357C4.95816 11.9399 4.95257 11.9413 4.94698 11.9399C4.89528 11.9287 4.83938 11.9399 4.79466 11.9762C4.70103 12.0559 4.7178 12.197 4.81981 12.2599C5.00009 12.3731 5.19433 12.4555 5.39697 12.5058V11.6674L5.39836 11.6688Z" fill="white"/>
<path fill-rule="evenodd" clip-rule="evenodd" d="M7.52254 13.1794L5.96716 11.4004C6.02725 11.3976 6.08874 11.3962 6.14883 11.3962C6.4982 11.3962 6.87272 11.4493 7.19833 11.5835L7.52114 13.1808L7.52254 13.1794Z" fill="white"/>
<path fill-rule="evenodd" clip-rule="evenodd" d="M7.91524 13.628L7.58543 13.2521L7.25983 11.6381L7.47504 11.8547L7.91524 13.628Z" fill="white"/>
<path fill-rule="evenodd" clip-rule="evenodd" d="M7.37161 13.5805L7.75032 14.0138C7.49878 13.9187 7.07116 13.9006 6.8839 13.9006C6.63375 13.9006 6.12787 13.9285 5.91406 14.0641C5.82043 13.9523 5.6723 13.8517 5.48364 13.7678C5.89869 13.6085 6.385 13.5498 6.82521 13.5498C7.00548 13.5498 7.18855 13.5596 7.37022 13.5805H7.37161Z" fill="white"/>
<path fill-rule="evenodd" clip-rule="evenodd" d="M5.5731 11.5207L7.32551 13.526C7.15922 13.5079 6.99152 13.5009 6.82802 13.5009C6.37524 13.5009 5.87215 13.5624 5.44733 13.7301V13.1403C5.59546 13.1655 5.74638 13.1767 5.89591 13.1753C5.91128 13.1753 5.92526 13.1697 5.93784 13.1599C5.95041 13.1501 5.9574 13.1361 5.9602 13.1208L6.00072 12.6303C6.00072 12.6135 5.99653 12.5981 5.98535 12.5855C5.97277 12.5702 5.95321 12.5618 5.93364 12.5632C5.77014 12.5688 5.60664 12.5534 5.44733 12.5171V11.6269L5.5731 11.5193V11.5207Z" fill="white"/>
</g>
</g>
<rect x="0.25" y="0.25" width="23.5" height="23.5" rx="11.75" stroke="#E5E3E1" stroke-width="0.5"/>
<defs>
<clipPath id="clip0_16335_5423">
<rect width="24" height="24" rx="12" fill="white"/>
</clipPath>
</defs>
</svg>
