<svg width="48" height="48" viewBox="0 0 48 48" fill="none" xmlns="http://www.w3.org/2000/svg">
<path d="M44.0702 21.5999L42.8002 19.7399C42.5102 19.3199 42.3702 18.7999 42.4102 18.2899L42.5802 16.0399C42.7102 14.2799 41.7702 12.6399 40.1802 11.8799L38.1502 10.8999C37.6902 10.6799 37.3102 10.2999 37.0902 9.83992L36.1102 7.80992C35.3402 6.21992 33.7002 5.27992 31.9502 5.40992L29.7002 5.57992C29.1902 5.61992 28.6802 5.47992 28.2602 5.18992L26.4002 3.91992C24.9402 2.91992 23.0502 2.91992 21.5902 3.91992L19.7302 5.18992C19.3102 5.47992 18.8002 5.61992 18.2802 5.57992L16.0302 5.40992C14.2702 5.27992 12.6302 6.21992 11.8702 7.80992L10.8902 9.83992C10.6702 10.2999 10.2902 10.6799 9.83016 10.8999L7.80016 11.8799C6.21016 12.6499 5.26016 14.2799 5.40016 16.0399L5.57016 18.2899C5.61016 18.7999 5.47016 19.3099 5.18016 19.7299L3.91016 21.5899C2.91016 23.0499 2.91016 24.9399 3.91016 26.3999L5.18016 28.2599C5.47016 28.6799 5.61016 29.1999 5.57016 29.7099L5.40016 31.9599C5.27016 33.7199 6.21016 35.3599 7.80016 36.1199L9.83016 37.0999C10.2902 37.3199 10.6702 37.6999 10.8902 38.1599L11.8702 40.1899C12.6402 41.7799 14.2702 42.7299 16.0302 42.5899L18.2802 42.4199C18.7902 42.3799 19.3002 42.5199 19.7202 42.8099L21.5802 44.0799C22.3102 44.5799 23.1502 44.8299 23.9802 44.8299C24.8202 44.8299 25.6502 44.5799 26.3802 44.0799L28.2402 42.8099C28.6602 42.5199 29.1702 42.3799 29.6902 42.4199L31.9402 42.5899C33.7002 42.7199 35.3302 41.7799 36.1002 40.1899L37.0802 38.1599C37.3002 37.6999 37.6802 37.3199 38.1402 37.0999L40.1702 36.1199C41.7602 35.3499 42.7102 33.7199 42.5702 31.9599L42.4002 29.7099C42.3602 29.1999 42.5002 28.6899 42.7902 28.2699L44.0602 26.4099C45.0602 24.9499 45.0602 23.0599 44.0602 21.5999H44.0702Z" fill="#DF0000"/>
<path d="M24.3209 39.1901C15.9409 39.1901 9.13086 32.3701 9.13086 24.0001C9.13086 15.6301 15.9509 8.81006 24.3209 8.81006C32.6909 8.81006 39.5109 15.6301 39.5109 24.0001C39.5109 32.3701 32.6909 39.1901 24.3209 39.1901ZM24.3209 9.81006C16.4909 9.81006 10.1309 16.1801 10.1309 24.0001C10.1309 31.8201 16.5009 38.1901 24.3209 38.1901C32.1409 38.1901 38.5109 31.8201 38.5109 24.0001C38.5109 16.1801 32.1409 9.81006 24.3209 9.81006Z" fill="white"/>
<path d="M12.0391 22.8799H14.0691V23.3999H13.3391V25.9199H12.7691V23.3999H12.0391V22.8799Z" fill="white"/>
<path d="M14.2285 25.9199L15.1385 22.8799H15.7485L16.6585 25.9199H16.0685L15.9185 25.3699H14.9485L14.7985 25.9199H14.2385H14.2285ZM15.0685 24.8799H15.7785L15.4185 23.5899L15.0685 24.8799Z" fill="white"/>
<path d="M17.6386 24.3299L18.5686 22.8799H19.2086L18.4186 24.1399L19.2386 25.9199H18.5886L18.0086 24.6299L17.6386 25.2099V25.9299H17.0586V22.8899H17.6386V24.3399V24.3299Z" fill="white"/>
<path d="M20.2089 24.6299V25.3999H21.5189V25.9199H19.6289V22.8799H21.4789V23.3999H20.2089V24.1199H21.3489V24.6299H20.2089Z" fill="white"/>
<path d="M24.1185 24.9501C24.1185 25.5701 23.6885 25.9601 23.0485 25.9601C22.4085 25.9601 21.9785 25.5701 21.9785 24.9501V23.8401C21.9785 23.2201 22.3585 22.8301 23.0485 22.8301C23.6785 22.8301 24.1185 23.2201 24.1185 23.8401V24.9501ZM22.5585 24.9401C22.5585 25.2501 22.7385 25.4401 23.0585 25.4401C23.3785 25.4401 23.5485 25.2401 23.5485 24.9401V23.8501C23.5485 23.5501 23.3685 23.3501 23.0585 23.3501C22.7485 23.3501 22.5585 23.5501 22.5585 23.8501V24.9401Z" fill="white"/>
<path d="M25.289 24.7099V25.9199H24.709V22.8799H26.559V23.3999H25.289V24.1999H26.429V24.7099H25.289Z" fill="white"/>
<path d="M27.6386 24.7099V25.9199H27.0586V22.8799H28.9086V23.3999H27.6386V24.1999H28.7786V24.7099H27.6386Z" fill="white"/>
<path d="M29.1387 25.9199L30.0487 22.8799H30.6587L31.5687 25.9199H30.9787L30.8287 25.3699H29.8587L29.7087 25.9199H29.1487H29.1387ZM29.9787 24.8799H30.6887L30.3287 23.5899L29.9787 24.8799Z" fill="white"/>
<path d="M34.039 22.8799V24.9499C34.039 25.5699 33.619 25.9599 32.999 25.9599C32.379 25.9599 31.959 25.5699 31.959 24.9499V22.8799H32.529V24.9399C32.529 25.2499 32.699 25.4399 32.999 25.4399C33.299 25.4399 33.469 25.2399 33.469 24.9399V22.8799H34.039Z" fill="white"/>
<path d="M36.0091 23.7901V23.7001C36.0091 23.4601 35.8391 23.3001 35.5691 23.3001C35.2991 23.3001 35.1591 23.4401 35.1591 23.6401C35.1591 23.7601 35.2191 23.9001 35.4491 23.9801L35.8791 24.1401C36.2591 24.2801 36.6391 24.4701 36.6391 25.0301C36.6391 25.5901 36.2291 25.9601 35.5991 25.9601C34.9691 25.9601 34.5391 25.6201 34.5391 25.0601V24.9601H35.1091V25.0801C35.1091 25.3201 35.2891 25.4701 35.5891 25.4701C35.9091 25.4701 36.0791 25.3101 36.0791 25.0901C36.0791 24.9001 35.9691 24.7701 35.7491 24.6901L35.2891 24.5101C34.8591 24.3501 34.6091 24.1001 34.6091 23.6701C34.6091 23.2001 34.9791 22.8101 35.5791 22.8101C36.1791 22.8101 36.5791 23.1501 36.5791 23.7101V23.7701H36.0191L36.0091 23.7901Z" fill="white"/>
<path d="M16.8405 30.9097L17.4305 31.4497C17.7705 31.7597 17.8205 32.1997 17.5205 32.5297C17.2105 32.8797 16.7605 32.8697 16.4205 32.5697L16.1505 32.3297L15.6305 32.9097L15.3105 32.6197L16.8405 30.9297V30.9097ZM16.9105 31.4797L16.4105 32.0297L16.6505 32.2497C16.8305 32.4097 17.0405 32.3997 17.1905 32.2297C17.3405 32.0597 17.3305 31.8497 17.1505 31.6897L16.9105 31.4697V31.4797Z" fill="white"/>
<path d="M17.9112 34.59L18.0712 33.7L17.7612 33.51L17.3212 34.22L16.9512 33.99L18.1512 32.04L18.8412 32.46C19.2312 32.7 19.3612 33.11 19.1312 33.47C18.9712 33.72 18.7412 33.84 18.4912 33.82L18.3212 34.82L17.9212 34.57L17.9112 34.59ZM18.3212 32.6L17.9612 33.19L18.2412 33.36C18.4512 33.49 18.6412 33.45 18.7512 33.27C18.8612 33.09 18.8012 32.9 18.6012 32.78L18.3212 32.61V32.6Z" fill="white"/>
<path d="M20.5701 34.9797C20.4001 35.4197 19.9901 35.5697 19.5401 35.3997C19.0901 35.2297 18.8901 34.8297 19.0601 34.3897L19.3601 33.6097C19.5301 33.1697 19.9101 32.9997 20.3901 33.1897C20.8401 33.3597 21.0401 33.7597 20.8601 34.1897L20.5601 34.9697L20.5701 34.9797ZM19.4701 34.5397C19.3901 34.7497 19.4601 34.9397 19.6801 35.0297C19.9001 35.1097 20.0801 35.0297 20.1601 34.8097L20.4601 34.0497C20.5401 33.8397 20.4701 33.6497 20.2501 33.5597C20.0301 33.4697 19.8501 33.5597 19.7601 33.7797L19.4601 34.5397H19.4701Z" fill="white"/>
<path d="M21.6107 34.5101L21.3707 35.9301L20.9707 35.8601L21.3607 33.6001L21.7307 33.6601L22.1007 34.7401L22.8007 33.8501L23.1707 33.9101L22.7807 36.1701L22.3607 36.1001L22.6007 34.6901L22.1207 35.2901L21.8707 35.2501L21.6107 34.5101Z" fill="white"/>
<path d="M25.0404 35.4501C25.0404 35.9201 24.7304 36.2201 24.2504 36.2301C23.7704 36.2401 23.4404 35.9501 23.4204 35.4801L23.4004 34.6501C23.4004 34.1801 23.6704 33.8801 24.1904 33.8701C24.6704 33.8701 25.0004 34.1501 25.0104 34.6201L25.0304 35.4501H25.0404ZM23.8604 35.4601C23.8604 35.6901 24.0004 35.8401 24.2404 35.8301C24.4704 35.8301 24.6104 35.6701 24.6004 35.4401L24.5804 34.6201C24.5804 34.3901 24.4404 34.2401 24.2004 34.2501C23.9604 34.2501 23.8304 34.4101 23.8304 34.6401L23.8504 35.4601H23.8604Z" fill="white"/>
<path d="M27.6905 34.8301L27.7105 34.8901C27.8305 35.3401 27.6005 35.7001 27.1505 35.8201C26.6905 35.9401 26.3005 35.7401 26.1805 35.2801L25.9705 34.4801C25.8505 34.0201 26.0605 33.6701 26.5505 33.5401C27.0005 33.4201 27.3805 33.6201 27.5005 34.0701V34.1201L27.1105 34.2301V34.1801C27.0405 33.9701 26.8705 33.8601 26.6505 33.9201C26.4305 33.9801 26.3405 34.1601 26.4005 34.3801L26.6105 35.1701C26.6705 35.3901 26.8405 35.5001 27.0505 35.4501C27.2805 35.3901 27.3705 35.2101 27.3105 35.0001L27.2905 34.9401L27.6905 34.8301Z" fill="white"/>
<path d="M29.5804 34.0398C29.7804 34.4698 29.6104 34.8698 29.1704 35.0698C28.7304 35.2698 28.3104 35.1498 28.1104 34.7198L27.7604 33.9698C27.5604 33.5398 27.7004 33.1598 28.1704 32.9398C28.6004 32.7398 29.0204 32.8598 29.2204 33.2898L29.5704 34.0398H29.5804ZM28.5104 34.5398C28.6104 34.7498 28.7904 34.8298 29.0104 34.7298C29.2204 34.6298 29.2804 34.4398 29.1804 34.2298L28.8304 33.4898C28.7304 33.2798 28.5504 33.1998 28.3304 33.2998C28.1204 33.3998 28.0604 33.5898 28.1504 33.7998L28.5004 34.5398H28.5104Z" fill="white"/>
<path d="M30.9009 32.1998L31.3209 32.7898C31.6009 33.1798 31.5309 33.5998 31.1009 33.8998L30.4609 34.3598L29.1309 32.4998L29.7709 32.0398C30.1909 31.7398 30.6109 31.7998 30.8909 32.1898L30.9009 32.1998ZM29.7109 32.5698L30.5909 33.7898L30.8809 33.5798C31.0809 33.4298 31.1109 33.2298 30.9709 33.0298L30.5509 32.4498C30.4109 32.2498 30.2109 32.2098 30.0009 32.3598L29.7109 32.5698Z" fill="white"/>
<path d="M31.8709 31.9899L32.2909 32.3999L32.9809 31.6899L33.2609 31.9599L32.2709 32.9799L30.6309 31.3799L31.6009 30.3799L31.8809 30.6499L31.2109 31.3399L31.6009 31.7199L32.2009 31.1099L32.4709 31.3799L31.8709 31.9899Z" fill="white"/>
<path d="M25.1093 15.1599L23.1793 14.4199C22.8793 14.3199 22.5393 14.3699 22.2793 14.5499C22.6093 14.8899 23.4093 15.6299 23.4093 15.6299" fill="white"/>
<path d="M23.4195 15.74C23.4195 15.74 23.3695 15.74 23.3495 15.71C23.3495 15.71 22.5495 14.96 22.2195 14.62C22.1995 14.6 22.1895 14.57 22.1895 14.54C22.1895 14.51 22.2095 14.48 22.2295 14.47C22.5195 14.27 22.8795 14.22 23.2095 14.32L25.1395 15.06C25.1895 15.08 25.2195 15.14 25.1995 15.19C25.1795 15.24 25.1195 15.27 25.0695 15.25L23.1395 14.51C22.9095 14.44 22.6495 14.46 22.4395 14.57C22.7995 14.93 23.4695 15.55 23.4795 15.56C23.5195 15.6 23.5195 15.66 23.4795 15.7C23.4595 15.72 23.4295 15.73 23.4095 15.73L23.4195 15.74Z" fill="white"/>
<path d="M22.439 17.1801L23.829 16.7801L23.329 18.9201C23.719 18.8801 24.079 18.6801 24.309 18.3501C24.659 17.8201 25.729 16.2301 25.729 16.2301C25.729 16.2301 28.229 15.5101 28.479 15.4401C28.409 15.2101 28.249 14.3301 27.089 14.6601L21.709 16.1901" fill="white"/>
<path d="M23.3398 19.0099C23.3398 19.0099 23.2798 18.9999 23.2598 18.9799C23.2398 18.9599 23.2298 18.9199 23.2398 18.8899L23.6998 16.9199L22.4698 17.2799C22.4198 17.2899 22.3598 17.2599 22.3498 17.2099C22.3398 17.1599 22.3698 17.0999 22.4198 17.0899L23.8098 16.6899C23.8098 16.6899 23.8798 16.6899 23.9098 16.7099C23.9398 16.7299 23.9498 16.7699 23.9398 16.8099L23.4798 18.7999C23.7898 18.7299 24.0598 18.5599 24.2498 18.2999C24.5998 17.7699 25.6698 16.1799 25.6698 16.1799C25.6798 16.1599 25.6998 16.1499 25.7298 16.1399L28.3898 15.3799C28.3398 15.2099 28.2498 14.9399 27.9998 14.7899C27.7898 14.6699 27.5098 14.6599 27.1498 14.7599L21.7698 16.2899C21.7098 16.2999 21.6598 16.2699 21.6498 16.2199C21.6298 16.1699 21.6698 16.1099 21.7198 16.0999L27.0998 14.5699C27.5098 14.4599 27.8398 14.4699 28.0998 14.6199C28.4498 14.8199 28.5498 15.1999 28.5998 15.3799V15.4199C28.6298 15.4699 28.5998 15.5299 28.5398 15.5399L25.8198 16.3199C25.6698 16.5399 24.7398 17.9199 24.4198 18.4099C24.1698 18.7599 23.7898 18.9799 23.3698 19.0199L23.3398 19.0099Z" fill="white"/>
<path d="M20.9995 15.6501C20.8895 15.5601 20.7395 15.5301 20.5995 15.5701L20.2695 15.6601C20.1495 15.6901 20.0995 15.8401 20.1795 15.9401L21.1695 17.2401C21.2795 17.3901 21.4695 17.4501 21.6395 17.4001L22.7795 17.0701L20.9995 15.6401V15.6501Z" fill="white"/>
<path d="M21.5291 17.52C21.3591 17.52 21.1991 17.44 21.0991 17.3L20.1091 16C20.0491 15.93 20.0391 15.83 20.0691 15.74C20.0991 15.65 20.1691 15.59 20.2591 15.56L20.5891 15.47C20.7591 15.42 20.9391 15.46 21.0791 15.57L22.8591 17C22.8591 17 22.8991 17.06 22.8991 17.1C22.8991 17.14 22.8691 17.17 22.8291 17.18L21.6891 17.51C21.6391 17.52 21.5891 17.53 21.5391 17.53L21.5291 17.52ZM20.7291 15.65C20.7291 15.65 20.6691 15.65 20.6391 15.66L20.3091 15.75C20.3091 15.75 20.2591 15.79 20.2591 15.8C20.2591 15.81 20.2491 15.84 20.2691 15.87L21.2591 17.17C21.3491 17.28 21.4891 17.33 21.6291 17.29L22.5791 17.02L20.9491 15.71C20.8891 15.66 20.8091 15.64 20.7391 15.64L20.7291 15.65Z" fill="white"/>
</svg>
