<svg width="24" height="24" viewBox="0 0 24 24" fill="none" xmlns="http://www.w3.org/2000/svg">
<path fill-rule="evenodd" clip-rule="evenodd" d="M12 22C17.5228 22 22 17.5228 22 12C22 6.47715 17.5228 2 12 2C6.47715 2 2 6.47715 2 12C2 17.5228 6.47715 22 12 22ZM12 20C7.58172 20 4 16.4183 4 12C4 9.95305 4.76878 8.08565 6.03336 6.67079C6.88656 8.80087 8.14888 9.71208 9.28653 10.5333C10.5498 11.4452 11.6594 12.2462 11.8844 14.4818C11.9044 14.6412 12.0144 14.7687 12.1644 14.79C14.178 15.1273 16.1426 16.0083 17.853 17.4537C16.3926 19.0203 14.3107 20 12 20ZM17.9468 17.3513C19.2232 15.9338 20 14.0576 20 12C20 7.58172 16.4183 4 12 4C9.68134 4 7.59308 4.98641 6.13195 6.56248C7.35148 8.58132 8.36154 8.89184 9.55639 9.25916C10.5761 9.57265 11.7305 9.92752 13.2645 11.421L13.3045 11.453C13.7645 11.8993 14.0747 11.4848 13.9245 11.2297C13.7845 10.9853 13.8046 10.8578 13.8146 10.8259C14.4946 11.0278 15.1048 11.3784 15.6248 11.8567L15.5848 11.9524C15.4816 12.1675 15.0225 12.2604 14.5044 12.3653C13.7167 12.5247 12.7925 12.7118 12.7745 13.3977C12.7745 13.706 12.9444 13.9715 13.2045 14.0886L13.7046 14.3012C15.3173 14.9845 16.7637 16.0423 17.9468 17.3513Z" fill="#323232"/>
</svg>
