<svg width="48" height="48" viewBox="0 0 48 48" fill="none" xmlns="http://www.w3.org/2000/svg">
<path d="M10.2503 20.8199C10.7803 20.8199 11.1903 21.2299 11.1903 21.7599C11.1903 22.2899 10.7803 22.6899 10.2503 22.6899C9.72031 22.6899 9.32031 22.2799 9.32031 21.7599C9.32031 21.2399 9.73031 20.8199 10.2503 20.8199ZM10.7303 20.0799H9.76031L9.42031 16.0699V13.8599H11.0603V16.0699L10.7303 20.0799Z" fill="#DF0000"/>
<path d="M30.9491 29.01C30.9491 29.01 30.9791 29.06 30.9891 29.09L32.2591 33.31C32.2891 33.41 32.3291 33.45 32.3291 33.45C32.3291 33.45 32.3691 33.44 32.4191 33.4L33.2691 32.7C33.3591 32.63 33.4091 32.52 33.3991 32.4L33.2691 29.19C33.2691 29.12 33.2991 29.04 33.3591 29L36.3791 26.53C36.4391 26.48 36.5191 26.47 36.5891 26.48C36.6591 26.49 36.7191 26.55 36.7491 26.62C36.7491 26.62 39.4691 33.63 39.5691 33.75C39.6291 33.82 39.7491 33.77 39.8091 33.7L40.9691 32.75C41.1091 32.64 41.1391 32.25 41.1291 32.02L40.8891 22.96C40.8891 22.89 40.9191 22.82 40.9791 22.77L45.0591 19.43C45.7091 18.9 45.7991 17.94 45.2691 17.29C44.7391 16.64 43.7791 16.55 43.1291 17.08L39.0491 20.42C38.9891 20.47 38.9191 20.48 38.8491 20.47L30.0091 18.44C29.7791 18.37 29.3991 18.33 29.2591 18.44L28.0991 19.39C28.0191 19.44 27.9491 19.55 28.0091 19.62C28.1091 19.74 34.4391 23.79 34.4391 23.79C34.4991 23.83 34.5391 23.9 34.5491 23.98C34.5591 24.06 34.5191 24.13 34.4591 24.18L31.4391 26.65C31.3791 26.7 31.3091 26.71 31.2291 26.7L28.1091 25.94C27.9891 25.9 27.8691 25.94 27.7891 26.01L26.9391 26.71C26.9391 26.71 26.8791 26.78 26.8691 26.78C26.8691 26.78 26.8991 26.82 26.9991 26.87L30.8791 28.95C30.8791 28.95 30.9291 28.99 30.9491 29.01Z" fill="#323232"/>
<path d="M25.2008 23.9102H20.3008C19.7508 23.9102 19.3008 23.4602 19.3008 22.9102C19.3008 22.3602 19.7508 21.9102 20.3008 21.9102H25.2008C25.7508 21.9102 26.2008 22.3602 26.2008 22.9102C26.2008 23.4602 25.7508 23.9102 25.2008 23.9102Z" fill="#323232"/>
<path d="M23.2906 31.1699H19.3706C18.8206 31.1699 18.3706 30.7199 18.3706 30.1699C18.3706 29.6199 18.8206 29.1699 19.3706 29.1699H23.2906C23.8406 29.1699 24.2906 29.6199 24.2906 30.1699C24.2906 30.7199 23.8406 31.1699 23.2906 31.1699ZM14.8006 31.1699H10.8806C10.3306 31.1699 9.88062 30.7199 9.88062 30.1699C9.88062 29.6199 10.3306 29.1699 10.8806 29.1699H14.8006C15.3506 29.1699 15.8006 29.6199 15.8006 30.1699C15.8006 30.7199 15.3506 31.1699 14.8006 31.1699ZM6.31063 31.1699H2.39063C1.84063 31.1699 1.39062 30.7199 1.39062 30.1699C1.39062 29.6199 1.84063 29.1699 2.39063 29.1699H6.31063C6.86063 29.1699 7.31063 29.6199 7.31063 30.1699C7.31063 30.7199 6.86063 31.1699 6.31063 31.1699Z" fill="#323232"/>
<path d="M39.6406 38.4302H2.39063C1.84063 38.4302 1.39062 37.9802 1.39062 37.4302C1.39062 36.8802 1.84063 36.4302 2.39063 36.4302H39.6406C40.1906 36.4302 40.6406 36.8802 40.6406 37.4302C40.6406 37.9802 40.1906 38.4302 39.6406 38.4302Z" fill="#323232"/>
<path d="M10.2506 27.3001C5.36062 27.3001 1.39062 23.3201 1.39062 18.4401C1.39062 13.5601 5.37062 9.58008 10.2506 9.58008C15.1306 9.58008 19.1106 13.5601 19.1106 18.4401C19.1106 23.3201 15.1306 27.3001 10.2506 27.3001ZM10.2506 11.5701C6.47062 11.5701 3.39062 14.6501 3.39062 18.4301C3.39062 22.2101 6.47062 25.2901 10.2506 25.2901C14.0306 25.2901 17.1106 22.2101 17.1106 18.4301C17.1106 14.6501 14.0306 11.5701 10.2506 11.5701Z" fill="#323232"/>
</svg>
