<svg width="24" height="24" viewBox="0 0 24 24" fill="none" xmlns="http://www.w3.org/2000/svg">
<g clip-path="url(#clip0_10513_11165)">
<path d="M20.2524 13.3129C20.2245 12.8877 20.2202 12.5184 20.1751 12.1535C19.8595 9.54262 18.7194 7.29895 17.0597 5.30433C16.0892 4.13633 15.0028 3.08212 13.6308 2.37574C13.3388 2.22544 13.0061 2.14815 12.5874 2C13.1349 3.98174 13.4483 5.83465 13.4741 7.7305C13.4999 9.62421 13.195 11.4728 12.6153 13.3129C15.1703 13.3129 17.6587 13.3129 20.2524 13.3129ZM21.1348 14.8115C15.0758 14.8115 9.10484 14.8115 3.08878 14.8115C3.31852 16.1513 3.99913 17.1582 4.98893 17.9698C5.07911 18.0428 5.33461 18.0085 5.45484 17.9312C5.86922 17.6692 6.25569 17.3644 6.67222 17.0638C7.44087 17.783 8.26534 18.3477 9.39255 18.3434C10.5155 18.3391 11.3271 17.7401 12.1086 17.0359C12.903 17.7981 13.7339 18.3477 14.8611 18.3434C15.9862 18.337 16.787 17.7229 17.5278 17.0616C17.9701 17.3815 18.3651 17.6864 18.7795 17.9548C18.8869 18.0235 19.1209 18.0514 19.2046 17.9827C20.1966 17.1733 20.8493 16.1448 21.1348 14.8115ZM11.1016 13.3215C11.1016 9.94842 11.1016 6.58183 11.1016 3.07782C8.6969 6.53674 6.36305 9.89259 3.97981 13.3215C6.43175 13.3215 8.74628 13.3215 11.1016 13.3215ZM3.00504 20.2457C3.00504 20.7116 3.01793 21.1496 3.00075 21.5855C2.99002 21.8796 3.09307 21.9977 3.39796 21.9999C4.3856 22.0042 5.34749 21.9033 6.26643 21.4975C6.47469 21.4051 6.79031 21.403 7.00072 21.491C8.57881 22.1523 10.1419 22.1566 11.7221 21.4953C11.9347 21.4073 12.2481 21.3987 12.4564 21.4867C14.0538 22.163 15.6319 22.1523 17.225 21.4717C17.4183 21.3901 17.7103 21.4051 17.9078 21.491C18.9448 21.9419 20.0162 22.0535 21.1327 21.9591C21.1327 21.3665 21.1327 20.8254 21.1327 20.2414C19.8981 20.3058 18.7645 20.0868 17.7231 19.4513C17.6072 19.3805 17.3496 19.4556 17.1993 19.5372C15.5976 20.4132 14.013 20.4068 12.4135 19.5243C12.2503 19.4341 11.9518 19.4234 11.793 19.5136C10.1762 20.4132 8.57452 20.4175 6.95993 19.5179C6.82252 19.4427 6.58419 19.3783 6.47684 19.4449C5.43766 20.0933 4.29972 20.3015 3.00504 20.2457Z" fill="#323232"/>
</g>
<defs>
<clipPath id="clip0_10513_11165">
<rect width="24" height="24" fill="white"/>
</clipPath>
</defs>
</svg>
