<svg width="48" height="48" viewBox="0 0 48 48" fill="none" xmlns="http://www.w3.org/2000/svg">
<path d="M42.3702 32.2998H32.1602V39.5198C32.1602 42.3398 34.4402 44.6198 37.2602 44.6198C40.0802 44.6198 42.3602 42.3398 42.3602 39.5198V32.2998H42.3702Z" fill="#8DE2E0"/>
<path d="M29.2491 14.7599C28.8991 9.98988 27.9691 3.30988 27.9591 3.23988C27.8891 2.74988 27.4691 2.37988 26.9691 2.37988H7.04914C6.54914 2.37988 6.12914 2.74988 6.05914 3.23988C6.05914 3.30988 5.12914 9.97988 4.76914 14.7599L4.74914 14.9999C4.67914 15.9899 4.61914 16.9299 4.61914 17.6899C4.61914 22.5299 8.65914 29.4199 15.9991 30.0799V43.6199H9.88914C9.33914 43.6199 8.88914 44.0699 8.88914 44.6199C8.88914 45.1699 9.33914 45.6199 9.88914 45.6199H24.1191C24.6691 45.6199 25.1191 45.1699 25.1191 44.6199C25.1191 44.0699 24.6691 43.6199 24.1191 43.6199H18.0091V30.1099C22.1991 29.8299 24.8691 27.5699 26.4091 25.6499C28.2491 23.3499 29.3891 20.2999 29.3891 17.6899C29.3891 16.9299 29.3291 15.9899 29.2591 14.9999L29.2391 14.7599H29.2491ZM17.1491 28.1499C10.1391 28.1499 6.62914 21.4499 6.62914 17.6999C6.62914 17.0099 6.68914 16.0999 6.74914 15.1499L6.76914 14.9099C7.03914 11.2099 7.66914 6.33988 7.92914 4.38988H26.0991C26.3591 6.33988 26.9791 11.2099 27.2591 14.8999L27.2791 15.1399C27.3391 16.0999 27.3991 16.9999 27.3991 17.6899C27.3991 21.2199 24.3091 28.1399 17.1591 28.1399L17.1491 28.1499Z" fill="#323232"/>
<path d="M37.2699 18.9902C33.8999 18.9902 31.1699 21.7302 31.1699 25.0902V39.5202C31.1699 42.8902 33.9099 45.6202 37.2699 45.6202C40.6299 45.6202 43.3699 42.8802 43.3699 39.5202V25.0902C43.3699 21.7202 40.6299 18.9902 37.2699 18.9902ZM37.2699 20.9902C39.5299 20.9902 41.3699 22.8302 41.3699 25.0902V31.3102H33.1599V25.0902C33.1599 22.8302 34.9999 20.9902 37.2599 20.9902H37.2699ZM37.2699 43.6202C35.0099 43.6202 33.1699 41.7802 33.1699 39.5202V33.3102H41.3799V39.5202C41.3799 41.7802 39.5399 43.6202 37.2799 43.6202H37.2699Z" fill="#323232"/>
<path d="M8.42969 17.6905C8.42969 20.7105 11.4297 26.3405 17.1497 26.3405C23.1597 26.3405 25.5897 20.2305 25.5897 17.6905C25.5897 17.0505 25.5297 16.1805 25.4697 15.2505V15.2305H8.54969V15.3005C8.48969 16.2005 8.42969 17.0605 8.42969 17.6805V17.6905Z" fill="#DF0000"/>
</svg>
