<svg width="48" height="48" viewBox="0 0 48 48" fill="none" xmlns="http://www.w3.org/2000/svg">
<path d="M8.41945 6.95996H39.5795C41.2195 6.95996 42.5595 8.28996 42.5595 9.93996V14.63H5.43945V9.93996C5.43945 8.29996 6.76945 6.95996 8.41945 6.95996Z" fill="#8DE2E0"/>
<path d="M15.6699 32.3396C15.6699 30.6196 15.9699 29.1596 17.7899 27.9696L19.9899 26.5096C20.7899 25.9996 21.4299 25.2996 21.4299 24.2196C21.4299 23.3496 20.8799 22.7596 19.7799 22.7596C18.6799 22.7596 18.0599 23.3996 18.0599 24.3696V24.7096H15.7899V24.3296C15.7899 22.1696 17.4199 20.6396 19.8599 20.6396C22.2999 20.6396 23.8699 21.9696 23.8699 24.1096C23.8699 25.8896 23.0399 27.0596 21.5399 28.0496L19.3199 29.5296C18.5199 30.0596 18.3399 30.6697 18.2799 31.1196H23.8699V33.2796H15.6699V32.3496V32.3396Z" fill="#DF0000"/>
<path d="M25.709 20.8193H30.219V31.1993H32.419V33.2593H25.719V31.1993H27.879V22.9193H25.719V20.8193H25.709Z" fill="#DF0000"/>
<path d="M39.5 5.94988H36.69V4.87988C36.69 4.32988 36.24 3.87988 35.69 3.87988C35.14 3.87988 34.69 4.32988 34.69 4.87988V5.94988H13.98V4.87988C13.98 4.32988 13.53 3.87988 12.98 3.87988C12.43 3.87988 11.98 4.32988 11.98 4.87988V5.94988H8.5C6.29 5.94988 4.5 7.73988 4.5 9.94988V40.1299C4.5 42.3399 6.29 44.1299 8.5 44.1299H39.5C41.71 44.1299 43.5 42.3399 43.5 40.1299V9.94988C43.5 7.73988 41.71 5.94988 39.5 5.94988ZM41.5 40.1299C41.5 41.2299 40.6 42.1299 39.5 42.1299H8.5C7.4 42.1299 6.5 41.2299 6.5 40.1299V9.94988C6.5 8.84988 7.4 7.94988 8.5 7.94988H39.5C40.6 7.94988 41.5 8.84988 41.5 9.94988V40.1299Z" fill="#323232"/>
<path d="M29.9506 12.1797H18.1406C17.5906 12.1797 17.1406 11.7297 17.1406 11.1797C17.1406 10.6297 17.5906 10.1797 18.1406 10.1797H29.9506C30.5006 10.1797 30.9506 10.6297 30.9506 11.1797C30.9506 11.7297 30.5006 12.1797 29.9506 12.1797Z" fill="#323232"/>
</svg>
