<svg width="48" height="48" viewBox="0 0 48 48" fill="none" xmlns="http://www.w3.org/2000/svg">
<path d="M20.8904 31.1099H15.4704C15.0004 31.1099 14.6104 30.7299 14.6104 30.2499V22.1199C14.6104 21.8899 14.7004 21.6699 14.8604 21.5099L17.5704 18.7999C17.9104 18.4599 18.4504 18.4599 18.7804 18.7999L21.4904 21.5099C21.6504 21.6699 21.7404 21.8899 21.7404 22.1199V30.2499C21.7404 30.7199 21.3604 31.1099 20.8804 31.1099" fill="#DF0000"/>
<path d="M41.92 39.23H28.49C27.25 39.23 26.25 38.23 26.25 36.99V34.75H44.16V36.99C44.16 38.23 43.16 39.23 41.92 39.23Z" fill="#8DE2E0"/>
<path d="M22.6398 37.35H11.0998V13.38H17.1798V15.97C17.1798 16.52 17.6298 16.97 18.1798 16.97C18.7298 16.97 19.1798 16.52 19.1798 15.97V13.38H41.0298C41.7098 13.38 42.2698 13.94 42.2698 14.62V16.83C42.2698 17.38 42.7198 17.83 43.2698 17.83C43.8198 17.83 44.2698 17.38 44.2698 16.83V14.62C44.2698 12.83 42.8198 11.38 41.0298 11.38H29.9298V7.9C29.9298 6.85 29.0798 6 28.0298 6H19.0798C18.0298 6 17.1798 6.85 17.1798 7.9V11.38H6.07984C4.28984 11.38 2.83984 12.83 2.83984 14.62V36.12C2.83984 37.91 4.28984 39.36 6.07984 39.36H9.09984V41.01C9.09984 41.56 9.54984 42.01 10.0998 42.01C10.6498 42.01 11.0998 41.56 11.0998 41.01V39.36H22.6398C23.1898 39.36 23.6398 38.91 23.6398 38.36C23.6398 37.81 23.1898 37.36 22.6398 37.36V37.35ZM19.1798 8H27.9298V11.38H19.1798V8ZM6.07984 37.35C5.39984 37.35 4.83984 36.79 4.83984 36.11V14.61C4.83984 13.93 5.39984 13.37 6.07984 13.37H9.09984V37.34H6.07984V37.35Z" fill="#323232"/>
<path d="M41.9202 19.4103H38.8902V17.7203C38.8902 16.6703 38.0402 15.8203 36.9902 15.8203H33.4102C32.3602 15.8203 31.5102 16.6703 31.5102 17.7203V19.4103H28.4802C26.6902 19.4103 25.2402 20.8603 25.2402 22.6503V36.9803C25.2402 38.7303 26.6402 40.1503 28.3702 40.2103V41.0103C28.3702 41.5603 28.8202 42.0103 29.3702 42.0103C29.9202 42.0103 30.3702 41.5603 30.3702 41.0103V40.2203H40.0102V41.0103C40.0102 41.5603 40.4602 42.0103 41.0102 42.0103C41.5602 42.0103 42.0102 41.5603 42.0102 41.0103V40.2103C43.7502 40.1503 45.1402 38.7303 45.1402 36.9803V22.6503C45.1402 20.8603 43.6902 19.4103 41.9002 19.4103H41.9202ZM33.5202 17.8203H36.8902V19.4003H33.5202V17.8203ZM43.1602 36.9703C43.1602 37.6503 42.6002 38.2103 41.9202 38.2103H28.4902C27.8102 38.2103 27.2502 37.6503 27.2502 36.9703V22.6403C27.2502 21.9603 27.8102 21.4003 28.4902 21.4003H32.5102H37.8802H41.9002C42.5802 21.4003 43.1402 21.9603 43.1402 22.6403V36.9703H43.1602Z" fill="#323232"/>
</svg>
