<svg width="48" height="48" viewBox="0 0 48 48" fill="none" xmlns="http://www.w3.org/2000/svg">
<path d="M32.0802 7.06006V2.81006C32.0802 2.26006 31.6302 1.81006 31.0802 1.81006H16.9102C16.3602 1.81006 15.9102 2.26006 15.9102 2.81006V7.06006C15.9102 19.2201 18.5402 26.8101 22.9902 27.7801V44.2001H18.3202C17.7702 44.2001 17.3202 44.6501 17.3202 45.2001C17.3202 45.7501 17.7702 46.2001 18.3202 46.2001H29.6502C30.2002 46.2001 30.6502 45.7501 30.6502 45.2001C30.6502 44.6501 30.2002 44.2001 29.6502 44.2001H24.9802V27.7801C29.4402 26.8101 32.0602 19.2201 32.0602 7.06006H32.0802ZM17.9202 7.06006V3.81006H30.0902V7.06006C30.0902 20.0701 27.0302 25.8901 24.0102 25.8901C20.9902 25.8901 17.9302 20.0701 17.9302 7.06006H17.9202Z" fill="#323232"/>
<path d="M22.9205 7.65994C23.5336 7.65994 24.0305 7.16298 24.0305 6.54994C24.0305 5.93691 23.5336 5.43994 22.9205 5.43994C22.3075 5.43994 21.8105 5.93691 21.8105 6.54994C21.8105 7.16298 22.3075 7.65994 22.9205 7.65994Z" fill="#8DE2E0"/>
<path d="M26.7409 10.5799C27.3509 10.5799 27.8509 10.0799 27.8509 9.46986C27.8509 8.85986 27.3509 8.35986 26.7409 8.35986C26.1309 8.35986 25.6309 8.85986 25.6309 9.46986C25.6309 10.0799 26.1309 10.5799 26.7409 10.5799Z" fill="#8DE2E0"/>
<path d="M21.7315 12.7398C22.4015 12.7398 22.9415 12.1998 22.9415 11.5298C22.9415 10.8598 22.4015 10.3198 21.7315 10.3198C21.0615 10.3198 20.5215 10.8598 20.5215 11.5298C20.5215 12.1998 21.0615 12.7398 21.7315 12.7398Z" fill="#8DE2E0"/>
<path d="M20.1309 14.4302C21.0209 21.6202 23.1109 24.0902 24.0009 24.0902C24.8909 24.0902 26.9809 21.6302 27.8709 14.4302H20.1309Z" fill="#8DE2E0"/>
</svg>
