<svg width="24" height="24" viewBox="0 0 24 24" fill="none" xmlns="http://www.w3.org/2000/svg">
<path d="M9.05152 10.7788H9.11212C9.59394 10.7182 9.05152 11.3849 9.53334 11.4395L9.83637 11.2607C9.89697 11.4395 9.71515 11.8001 10.0182 11.8001C10.2576 11.8607 10.7394 11.6819 10.8576 11.9213C10.9788 12.3425 10.497 12.2243 10.4394 12.4637C10.1361 12.5537 9.85097 12.6963 9.59697 12.8849C9.17576 13.2455 8.57273 13.4243 8.38485 14.0273L8.50606 14.1455C9.46667 13.7243 10.2485 13.1243 11.3303 12.9334C10.4879 13.597 9.40606 14.4485 8.50606 15.1001L7.9 13.7758L7.77879 13.897C7.72121 14.4364 7.9 15.0394 7.77879 15.6395C7.52325 15.5718 7.2611 15.5321 6.99697 15.5213L6.87879 15.7607C6.45758 15.7001 6.21515 15.4001 5.85455 15.2788C5.73637 15.3394 5.73637 15.4001 5.73637 15.5213L6.0394 15.7001C5.59514 15.731 5.17152 15.8994 4.82727 16.1819C4.70606 16.0607 4.64849 16.1819 4.52424 16.1819L4.64546 16.3031C5.52335 16.2008 6.40734 16.1603 7.29091 16.1819C7.46041 16.4784 7.79123 16.6444 8.13031 16.6031C8.31212 16.5425 8.19091 16.1819 8.37273 16.3607C8.67576 16.6637 8.73334 17.0849 8.85455 17.4455C9.09394 17.2031 8.97273 16.6637 9.03334 16.3607C9.15455 16.4213 9.27273 16.7819 9.51515 16.6031C9.63334 16.4213 9.81818 16.2425 9.69394 15.997C9.57576 15.8182 9.21515 15.694 9.21515 15.4576C9.69394 15.2182 10.2364 15.5182 10.7303 15.6364C11.0333 15.397 10.6697 15.1576 10.6697 14.8546C11.0909 14.6152 11.7515 14.5516 12.1121 14.3152C11.317 14.3671 10.5302 14.5084 9.76667 14.7364C10.4835 13.9603 11.2914 13.2735 12.1727 12.691C12.7788 12.8122 13.6152 12.9304 13.7364 13.6001L13.6152 13.7182L13.8576 14.0213L13.5152 14.3879C13.7545 14.994 14.5364 15.6485 13.7545 16.2516C13.3576 16.7007 12.7902 16.9624 12.1909 16.9728C11.5849 16.6698 10.9788 16.191 10.3273 15.9516C10.7485 16.6728 11.4091 17.2728 11.5909 18.1152C11.6182 18.3426 11.5759 18.5729 11.4697 18.7758C11.2879 18.9576 10.8636 19.4364 10.5606 19.497C10.3212 19.6182 10.3212 19.3182 10.0788 19.4364C9.9 19.2576 9.96061 18.897 9.71818 18.7758C9.35758 18.7152 9.47879 19.497 9.05758 19.0182C8.39697 19.197 7.79394 19.497 7.01212 19.4364C7.01212 18.897 6.89394 18.2243 7.13334 17.7546C6.95455 17.4516 7.43637 17.394 7.13334 17.091C6.05152 17.5728 5.45152 18.3546 4.90909 19.2576C4.6697 19.2576 4.60606 19.4364 4.30303 19.3788C4.06364 19.197 3.69697 19.0182 3.58182 18.7728C3.46364 18.594 3.82424 18.1667 3.40303 18.1667C3.07865 18.1095 2.76933 17.9868 2.49394 17.8061C2.31515 17.5031 2.55455 17.0819 2.31515 16.7819C2.19394 15.5213 2.85455 14.8001 3.69697 14.2576L3.57576 13.8364C3.68197 13.9165 3.82221 13.9356 3.94593 13.8867C4.06965 13.8378 4.15902 13.7281 4.18182 13.597C4.30303 13.4758 4.24243 13.1758 4.48485 13.0546C4.60606 12.8758 4.60606 12.5152 4.90606 12.394C5.68788 13.3031 6.04849 14.5576 7.1303 15.2213C7.31212 15.1607 7.49091 15.4001 7.61212 15.1607C7.43031 14.6182 6.89091 14.4395 6.70303 13.8364C6.62033 13.3358 6.59997 12.8269 6.64243 12.3213H6.70303C6.72789 11.9953 6.78887 11.6731 6.88485 11.3607C6.88485 11.3607 7.00606 11.2395 7.00606 11.1788C7.11645 10.8733 7.40548 10.669 7.7303 10.6667C8.09091 10.4879 8.6394 10.7879 8.94243 10.6667L9.06061 10.7879L9.05152 10.7788Z" fill="#E2631C"/>
<path d="M20.0576 6.33036C19.7545 6.50915 19.3333 6.80915 19.5758 7.16975C19.7545 7.29097 19.8788 7.23036 20.1818 7.16975C20.4848 6.99097 20.9636 6.75157 20.903 6.33036C20.6576 5.90915 20.2364 6.20915 20.0576 6.33036ZM14.9455 11.1395C14.9455 11.2607 14.703 11.4425 14.8848 11.5607C14.9455 11.6213 15.0667 11.6213 15.3667 11.5607C15.5455 11.3819 16.1485 11.0788 15.8455 10.7788C15.5019 10.7237 15.1559 10.8623 14.9455 11.1395ZM18.7939 6.02733C18.3727 6.20915 17.8848 6.38794 17.8848 6.86975C17.9455 7.11218 18.1273 7.11218 18.1273 7.17278C17.8541 7.15445 17.5952 7.29634 17.4636 7.53642C17.4521 7.4384 17.3999 7.34973 17.3198 7.29209C17.2397 7.23445 17.139 7.21315 17.0424 7.23339C16.6212 7.41521 15.9606 7.71521 16.0212 8.19703C16.1424 8.67884 16.803 8.13642 17.103 8.07581C15.2849 10.0152 13.1636 11.597 11.0909 13.1364C10.2879 13.7637 9.32424 14.5122 8.50606 15.1122C8.4576 15.0293 8.41702 14.942 8.38485 14.8516L7.90909 13.7849L7.78788 13.9061C7.7303 14.4485 7.90909 15.0485 7.78788 15.6516C7.53275 15.5815 7.27044 15.5408 7.00606 15.5304L6.88788 15.7698C6.46667 15.7091 6.22727 15.4091 5.86364 15.2879C5.74546 15.3485 5.74546 15.4091 5.74546 15.5304L6.04849 15.7091C5.60423 15.7401 5.18061 15.9085 4.83637 16.191C4.71515 16.0698 4.65758 16.191 4.53333 16.191L4.65455 16.3122C5.53244 16.2099 6.41643 16.1694 7.3 16.191C7.4695 16.4875 7.80032 16.6535 8.1394 16.6122C8.32121 16.5516 8.2 16.191 8.38182 16.3728C8.61567 16.661 8.77212 17.0042 8.83637 17.3698L8.87576 17.4364C9.09394 17.1879 8.98485 16.6637 9.04243 16.3728C9.16364 16.4304 9.28182 16.791 9.52424 16.6122C9.64546 16.4304 9.82727 16.2516 9.70303 16.0061C9.58485 15.8243 9.22424 15.7031 9.22424 15.4637C9.70303 15.2243 10.2455 15.5243 10.7394 15.6425C11.0424 15.4031 10.6788 15.1637 10.6788 14.8607C11.1 14.6213 11.7606 14.5576 12.1212 14.3213C11.3261 14.3731 10.5393 14.5144 9.77576 14.7425C10.4837 13.9793 11.2779 13.301 12.1424 12.7213C13.603 11.4819 15.0697 10.297 16.5121 9.08491C16.6126 9.22093 16.7653 9.30882 16.9333 9.32733C17.3809 9.2169 17.7679 8.93647 18.0121 8.54551C18.1333 8.36369 17.9515 8.18491 17.7697 8.18491L18.4333 7.70309C18.6727 7.40006 18.5515 7.22127 18.4333 7.09703C18.7939 6.91521 19.2758 6.67581 19.2758 6.18794C19.1563 6.05074 18.9718 5.98924 18.7939 6.02733ZM21.5667 4.30309C21.3895 4.19065 21.1599 4.20662 21 4.34248C20.9424 4.40006 20.9788 4.36369 20.8697 4.46369C20.7028 4.58422 20.5511 4.72465 20.4182 4.88187C20.283 5.0061 20.2573 5.20985 20.3576 5.36369C20.597 5.48491 20.7182 5.4243 20.9636 5.36369C21.26 5.19533 21.5003 4.94345 21.6545 4.63945C21.7636 4.45157 21.6485 4.38794 21.5667 4.30309Z" fill="#EECE39"/>
</svg>
