<svg width="48" height="48" viewBox="0 0 48 48" fill="none" xmlns="http://www.w3.org/2000/svg">
<path d="M11.3695 15.0604C9.51953 15.0604 8.01953 13.5604 8.01953 11.7104C8.01953 9.86035 9.51953 8.36035 11.3695 8.36035C13.2195 8.36035 14.7195 9.86035 14.7195 11.7104C14.7195 13.5604 13.2195 15.0604 11.3695 15.0604ZM11.3695 10.3604C10.6295 10.3604 10.0195 10.9604 10.0195 11.7104C10.0195 12.4604 10.6195 13.0604 11.3695 13.0604C12.1195 13.0604 12.7195 12.4604 12.7195 11.7104C12.7195 10.9604 12.1195 10.3604 11.3695 10.3604Z" fill="#8DE2E0"/>
<path d="M17.2605 18.8901C15.8605 18.8901 14.7305 17.7601 14.7305 16.3601C14.7305 14.9601 15.8605 13.8301 17.2605 13.8301C18.6605 13.8301 19.7905 14.9601 19.7905 16.3601C19.7905 17.7601 18.6605 18.8901 17.2605 18.8901ZM17.2605 15.5201C16.8005 15.5201 16.4205 15.9001 16.4205 16.3601C16.4205 16.8201 16.8005 17.2001 17.2605 17.2001C17.7205 17.2001 18.1005 16.8201 18.1005 16.3601C18.1005 15.9001 17.7205 15.5201 17.2605 15.5201Z" fill="#8DE2E0"/>
<path d="M26.2505 32.3302C25.4605 32.3302 24.8105 31.6902 24.8105 30.8902C24.8105 30.0902 25.4505 29.4502 26.2505 29.4502C27.0505 29.4502 27.6905 30.0902 27.6905 30.8902C27.6905 31.6902 27.0505 32.3302 26.2505 32.3302Z" fill="#8DE2E0"/>
<path d="M43.7697 18.8301C42.8097 17.9001 41.2797 17.9201 40.3397 18.8701L38.6997 20.5501V18.1601C38.6997 17.8101 38.9797 17.5301 39.3297 17.5301C41.1697 17.5301 42.6697 16.0301 42.6697 14.1901V8.61008C42.6697 7.27008 41.5797 6.19008 40.2497 6.19008C38.9197 6.19008 37.8297 7.28008 37.8297 8.61008V12.4601C37.8297 12.7001 37.3997 12.7001 37.3997 12.4601V5.25008C37.3997 3.91008 36.3097 2.83008 34.9797 2.83008C33.6497 2.83008 32.5597 3.92008 32.5597 5.25008V8.56008C32.5597 8.80008 32.1297 8.80008 32.1297 8.56008V7.21008C32.1297 5.87008 31.0397 4.79008 29.7097 4.79008C28.3797 4.79008 27.2897 5.88008 27.2897 7.21008V9.82008C27.2897 11.9201 28.9997 13.6301 31.0997 13.6301C31.1897 13.6301 31.2597 13.7001 31.2597 13.7901V14.3301L26.0697 12.5501C25.4597 12.3401 24.7997 12.3801 24.2197 12.6601C23.6397 12.9401 23.1997 13.4401 22.9897 14.0501C22.7797 14.6601 22.8197 15.3201 23.1097 15.9001C23.3897 16.4801 23.8897 16.9201 24.4997 17.1301L31.0997 19.4001C31.1997 19.4401 31.2697 19.5301 31.2697 19.6401V22.5601L31.2297 22.5201C30.7697 22.0701 30.1597 21.8501 29.5097 21.8401C28.8597 21.8401 28.2597 22.1101 27.8097 22.5801C27.3597 23.0401 27.1197 23.6601 27.1197 24.3001C27.1197 24.9501 27.3897 25.5501 27.8597 26.0001L30.4697 28.5401C30.9797 29.0401 31.2797 29.7301 31.2797 30.4401V35.6701C31.2797 36.2201 31.7297 36.6701 32.2797 36.6701C32.8297 36.6701 33.2797 36.2201 33.2797 35.6701V30.4401C33.2797 29.1901 32.7697 27.9701 31.8697 27.1001L29.2597 24.5601C29.1497 24.4501 29.1297 24.3301 29.1297 24.2601C29.1297 24.1901 29.1397 24.0701 29.2497 23.9601C29.4097 23.7901 29.6797 23.7901 29.8497 23.9601L31.5897 25.6501C31.8797 25.9301 32.3097 26.0101 32.6797 25.8501C33.0497 25.6901 33.2897 25.3301 33.2897 24.9301V19.6501C33.2897 18.6901 32.6797 17.8301 31.7697 17.5201L25.1697 15.2501C25.0197 15.2001 24.9597 15.0901 24.9297 15.0401C24.8997 14.9901 24.8597 14.8601 24.9097 14.7201C24.9597 14.5701 25.0697 14.5101 25.1197 14.4801C25.1697 14.4501 25.2997 14.4101 25.4397 14.4601L31.1697 16.4301C31.6597 16.6001 32.1997 16.5201 32.6197 16.2201C33.0397 15.9201 33.2897 15.4301 33.2897 14.9201V13.8201C33.2897 12.6301 32.3197 11.6601 31.1297 11.6601C30.1297 11.6601 29.3197 10.8501 29.3197 9.85008V7.24008C29.3197 7.01008 29.5097 6.82008 29.7397 6.82008C29.9697 6.82008 30.1597 7.01008 30.1597 7.24008V8.59008C30.1597 9.81008 31.1497 10.8101 32.3797 10.8101C33.6097 10.8101 34.5997 9.82008 34.5997 8.59008V5.28008C34.5997 5.05008 34.7897 4.86008 35.0197 4.86008C35.2497 4.86008 35.4397 5.05008 35.4397 5.28008V12.4901C35.4397 13.7101 36.4297 14.7101 37.6597 14.7101C38.8897 14.7101 39.8797 13.7201 39.8797 12.4901V8.64008C39.8797 8.41008 40.0697 8.22008 40.2997 8.22008C40.5297 8.22008 40.7197 8.41008 40.7197 8.64008V14.2201C40.7197 14.9601 40.1197 15.5601 39.3797 15.5601C37.9297 15.5601 36.7497 16.7401 36.7497 18.1901V23.0301C36.7497 23.4401 36.9997 23.8001 37.3697 23.9601C37.7497 24.1101 38.1797 24.0201 38.4597 23.7301L41.8097 20.2901C41.9697 20.1201 42.2397 20.1201 42.4097 20.2901C42.5197 20.4001 42.5397 20.5201 42.5397 20.5901C42.5397 20.6601 42.5297 20.7801 42.4197 20.8901L38.0597 25.3601C37.2097 26.2301 36.7397 27.3901 36.7397 28.6101V43.1401H35.9897V42.3301C35.9897 39.2201 33.4597 36.6901 30.3497 36.6901H25.7997C24.7397 36.6901 23.8697 37.5501 23.8697 38.6201V39.7801C23.8697 42.7301 26.2697 45.1401 29.2297 45.1401H37.7397C38.2897 45.1401 38.7397 44.6901 38.7397 44.1401V28.6101C38.7397 27.9101 39.0097 27.2601 39.4897 26.7601L43.8497 22.2901C44.2997 21.8301 44.5497 21.2101 44.5397 20.5701C44.5397 19.9201 44.2697 19.3201 43.8097 18.8601L43.7697 18.8301ZM25.8397 39.7501V38.6701H30.3197C31.4197 38.6701 32.3997 39.1701 33.0597 39.9501C32.7097 40.1101 32.3497 40.3301 32.0097 40.6701C31.3897 41.2901 30.9997 42.1101 30.8497 43.1201H29.1997C27.3497 43.1201 25.8397 41.6101 25.8397 39.7601V39.7501ZM32.8897 43.1101C33.0897 42.3101 33.4997 41.9201 33.8897 41.7401C33.9197 41.9301 33.9497 42.1101 33.9497 42.3001V43.1101H32.8897Z" fill="#323232"/>
<path d="M19.2103 38.5404L22.0703 33.4604C22.3903 32.9004 22.4503 32.2504 22.2403 31.6404C22.0203 31.0104 21.5203 30.4904 20.8703 30.2304L19.2403 29.5604L21.1403 25.5804C21.3703 25.0904 21.3903 24.5204 21.1803 24.0204C20.9603 23.4904 20.5103 23.0804 19.9403 22.8804L16.0203 21.5204C15.4503 21.3204 14.8203 21.3704 14.2803 21.6404C13.7703 21.9004 13.4103 22.3304 13.2603 22.8604L12.3603 25.8904L11.7403 23.8304C11.5703 23.2704 11.1603 22.8104 10.6103 22.5704C10.0203 22.3104 9.35031 22.3104 8.76031 22.5904L5.97031 23.9104C5.03031 24.3504 4.58031 25.3604 4.90031 26.3104L5.73031 28.7704L4.45031 29.6304C3.97031 29.9504 3.65031 30.4304 3.54031 30.9804C3.44031 31.5104 3.56031 32.0604 3.87031 32.5104L8.71031 39.4404L6.44031 41.7804C5.94031 42.3004 5.80031 43.0304 6.07031 43.6904C6.36031 44.3804 7.05031 44.8204 7.84031 44.8204H21.3603C22.1703 44.8204 22.8703 44.3504 23.1503 43.6304C23.4103 42.9504 23.2303 42.1904 22.6803 41.6904L19.2103 38.5404ZM12.8103 32.5704L15.7603 34.0204V36.6704H12.8103V32.5704ZM20.3403 32.3004C20.3603 32.3604 20.3603 32.4204 20.3203 32.4804L17.7503 37.0404V33.8604C17.7503 33.1904 17.3603 32.5804 16.7303 32.2704L16.1103 31.9704L16.5003 31.1004C16.5903 30.9104 16.9103 30.7804 17.2003 30.9004L20.1003 32.0804C20.2203 32.1304 20.3103 32.2104 20.3403 32.3004ZM15.1503 23.4404C15.1503 23.4404 15.2503 23.3804 15.3503 23.4104L19.3203 24.7204L17.3403 28.8804C16.2503 28.7304 15.1403 29.2704 14.6903 30.2704L14.3203 31.0804L13.8203 30.8404L13.3903 29.3904L15.1503 23.4404ZM9.60031 24.4004C9.69031 24.3604 9.79031 24.4004 9.81031 24.4004L11.6903 30.6604C11.6903 30.6604 11.6303 30.6804 11.6103 30.7004C11.4303 30.8104 11.2803 30.9604 11.1603 31.1204L9.38031 28.8404C8.95031 28.2804 8.27031 27.9904 7.58031 27.9904L6.81031 25.7004L9.60031 24.3804V24.4004ZM5.55031 31.2804L7.40031 30.0404C7.53031 29.9504 7.73031 29.9904 7.80031 30.0804L10.8103 33.9304V37.2604L10.1403 37.9504L5.56031 31.2804H5.55031ZM8.22031 42.8104L12.2303 38.6704H16.3703L20.9403 42.8104H8.23031H8.22031Z" fill="#323232"/>
</svg>
