<svg width="48" height="48" viewBox="0 0 48 48" fill="none" xmlns="http://www.w3.org/2000/svg">
<path d="M43.8299 33.2202L42.4099 36.7602C42.0399 38.0102 40.8899 38.8802 39.5799 38.8802H8.41992C7.21992 38.8802 6.14992 37.9602 5.58992 36.7602L4.16992 33.2202H43.8399H43.8299Z" fill="#8DE2E0"/>
<path d="M45.2498 32.2202H43.4198V31.8002C43.4198 22.3702 36.6598 14.4902 27.7398 12.7402C27.9498 11.7802 27.7798 10.7502 27.2298 9.89021C26.6798 9.02021 25.8298 8.42021 24.8298 8.20021C23.8298 7.97021 22.8098 8.15021 21.9398 8.70021C21.0698 9.25021 20.4698 10.1002 20.2498 11.1002C20.1198 11.6502 20.1198 12.2102 20.2398 12.7502C11.3298 14.5102 4.58977 22.3802 4.58977 31.8002V32.2202H2.75977C2.20977 32.2202 1.75977 32.6702 1.75977 33.2202C1.75977 33.7702 2.20977 34.2202 2.75977 34.2202H3.49977L4.68977 37.1902C5.46977 38.8602 6.90977 39.8902 8.42977 39.8902H39.5998C41.3598 39.8802 42.8798 38.7402 43.3598 37.1402L44.5298 34.2302H45.2698C45.8198 34.2302 46.2698 33.7802 46.2698 33.2302C46.2698 32.6802 45.8198 32.2302 45.2698 32.2302L45.2498 32.2202ZM22.1998 11.5402C22.3098 11.0602 22.5998 10.6602 23.0098 10.3902C23.3098 10.2002 23.6498 10.1102 23.9898 10.1102C24.5998 10.1102 25.1998 10.4102 25.5398 10.9602C25.8298 11.4102 25.8898 11.9602 25.7498 12.4602C24.5898 12.3602 23.3898 12.3602 22.2298 12.4602C22.1398 12.1602 22.1298 11.8502 22.1998 11.5302V11.5402ZM6.57977 31.8002C6.57977 22.2002 14.3898 14.3802 23.9998 14.3802C33.6098 14.3802 41.4198 22.1902 41.4198 31.8002V32.2202H6.57977V31.8002ZM41.4598 36.4802C41.2098 37.3202 40.4498 37.8902 39.5898 37.8902H8.41977C7.68977 37.8902 6.93977 37.2802 6.51977 36.3902L5.64977 34.2202H42.3598L41.4598 36.4802Z" fill="#323232"/>
</svg>
