<svg width="48" height="48" viewBox="0 0 48 48" fill="none" xmlns="http://www.w3.org/2000/svg">
<path d="M28.1191 14.8802C29.3591 16.6302 30.6191 19.5202 30.6191 19.5202C32.1691 18.1602 35.8191 16.8002 35.8191 16.8002L33.4491 10.9302C33.4491 10.9302 31.2191 12.0202 28.1191 14.8902" fill="#8DE2E0"/>
<path d="M19.8797 14.8802C18.6397 16.6302 17.3797 19.5202 17.3797 19.5202C15.8297 18.1602 12.1797 16.8002 12.1797 16.8002L14.5497 10.9302C14.5497 10.9302 16.7797 12.0202 19.8797 14.8902" fill="#8DE2E0"/>
<path d="M46.0305 14.86C46.0305 14.58 45.9005 14.32 45.7005 14.14C45.4905 13.96 45.2105 13.86 44.9405 13.89C44.6905 13.91 40.7505 14.3 36.4905 15.66C35.4705 12.69 34.3805 10.56 34.3305 10.47C34.2005 10.22 33.9805 10.04 33.7105 9.96004C33.4405 9.88004 33.1605 9.92004 32.9205 10.07C32.8205 10.13 30.7505 11.39 28.2905 13.42C26.5105 10.85 24.8705 9.07004 24.7205 8.91004C24.3405 8.50004 23.6405 8.50004 23.2605 8.91004C23.1105 9.07004 21.4705 10.85 19.6905 13.42C17.2305 11.39 15.1605 10.13 15.0605 10.07C14.8205 9.93004 14.5405 9.89004 14.2705 9.96004C14.0005 10.04 13.7805 10.22 13.6505 10.47C13.6005 10.57 12.5205 12.69 11.4905 15.66C7.24046 14.3 3.29046 13.91 3.04046 13.89C2.77046 13.86 2.49046 13.95 2.28046 14.14C2.07046 14.32 1.95046 14.59 1.95046 14.86C1.94046 15.36 1.75046 27.05 6.70046 32.6C10.7405 37.12 14.8005 38.73 18.0105 38.73C18.9505 38.73 19.8105 38.59 20.5805 38.34C21.7605 39.07 22.9605 39.41 23.9805 39.41C25.0005 39.41 26.2005 39.07 27.3805 38.34C28.1505 38.58 29.0105 38.73 29.9505 38.73C33.1605 38.73 37.2205 37.12 41.2605 32.6C46.2205 27.05 46.0205 15.35 46.0105 14.86H46.0305ZM33.0305 12.38C33.4305 13.26 34.0305 14.66 34.6005 16.32C33.3705 16.8 32.1505 17.37 31.0305 18.05C30.5305 17.02 29.9705 16.03 29.3905 15.1C30.8405 13.89 32.1805 12.95 33.0205 12.38H33.0305ZM14.9705 12.38C15.8205 12.95 17.1605 13.9 18.6005 15.1C18.0205 16.03 17.4605 17.02 16.9605 18.05C15.8405 17.37 14.6205 16.8 13.3905 16.32C13.9605 14.66 14.5605 13.26 14.9605 12.38H14.9705ZM8.21046 31.27C4.60046 27.23 4.05046 19 3.98046 16.01C6.37046 16.35 12.1205 17.38 16.1505 19.9C15.4605 21.68 15.0005 23.52 15.0005 25.3C15.0005 30.85 16.6105 34.5 18.6405 36.71C15.8905 36.95 12.1105 35.64 8.21046 31.27ZM24.0005 37.41C21.7205 37.41 17.0005 34.45 17.0005 25.3C17.0005 19.88 22.0705 13.38 24.0005 11.1C25.9305 13.38 31.0005 19.89 31.0005 25.3C31.0005 34.45 26.2805 37.41 24.0005 37.41ZM39.7905 31.27C35.8905 35.64 32.1105 36.95 29.3605 36.71C31.3905 34.51 33.0005 30.85 33.0005 25.3C33.0005 23.52 32.5405 21.68 31.8505 19.9C35.8805 17.38 41.6405 16.35 44.0205 16.01C43.9405 18.99 43.3905 27.23 39.7905 31.27Z" fill="#323232"/>
</svg>
