<svg width="24" height="24" viewBox="0 0 24 24" fill="none" xmlns="http://www.w3.org/2000/svg">
<g clip-path="url(#clip0_16335_4558)">
<path d="M23.849 13.9076C24.9018 7.3643 20.4508 1.20651 13.9075 0.153763C7.36426 -0.898985 1.20647 3.55196 0.153727 10.0952C-0.899021 16.6385 3.55193 22.7963 10.0952 23.849C16.6385 24.9018 22.7963 20.4508 23.849 13.9076Z" fill="white"/>
<mask id="mask0_16335_4558" style="mask-type:luminance" maskUnits="userSpaceOnUse" x="-1" y="-1" width="26" height="26">
<path d="M23.849 13.9076C24.9018 7.3643 20.4508 1.20651 13.9075 0.153763C7.36426 -0.898985 1.20647 3.55196 0.153727 10.0952C-0.899021 16.6385 3.55193 22.7963 10.0952 23.849C16.6385 24.9018 22.7963 20.4508 23.849 13.9076Z" fill="white"/>
</mask>
<g mask="url(#mask0_16335_4558)">
<path d="M30.0007 0H-5.99933V8.00047H30.0007V0Z" fill="#FF0000"/>
<path d="M30.0007 15.9995H-5.99933V24H30.0007V15.9995Z" fill="#003399"/>
<path d="M30.0007 7.99902H-5.99933V15.9995H30.0007V7.99902Z" fill="white"/>
<path fill-rule="evenodd" clip-rule="evenodd" d="M12 8.96045C13.6783 8.96045 15.0395 10.3216 15.0395 11.9999C15.0395 13.6783 13.6783 15.0394 12 15.0394C10.3216 15.0394 8.96051 13.6783 8.96051 11.9999C8.96051 10.3216 10.3216 8.96045 12 8.96045ZM12 9.00517C10.3468 9.00517 9.00523 10.3453 9.00523 11.9999C9.00523 13.6545 10.3454 14.9947 12 14.9947C13.6546 14.9947 14.9947 13.6545 14.9947 11.9999C14.9947 10.3453 13.6546 9.00517 12 9.00517ZM12 9.76958C10.7688 9.76958 9.76964 10.7688 9.76964 11.9999C9.76964 13.2311 10.7688 14.2303 12 14.2303C13.2312 14.2303 14.2303 13.2325 14.2303 11.9999C14.2303 10.7674 13.2325 9.76958 12 9.76958ZM12 9.81569C10.794 9.81569 9.81576 10.7939 9.81576 11.9999C9.81576 13.2059 10.794 14.1842 12 14.1842C13.206 14.1842 14.1842 13.2059 14.1842 11.9999C14.1842 10.7939 13.206 9.81569 12 9.81569Z" fill="black"/>
<path fill-rule="evenodd" clip-rule="evenodd" d="M12 8.43237C13.9704 8.43237 15.5677 10.0297 15.5677 12.0001C15.5677 13.9705 13.9704 15.5678 12 15.5678C10.0295 15.5678 8.43225 13.9705 8.43225 12.0001C8.43225 10.0297 10.0295 8.43237 12 8.43237ZM12 8.52461C10.0799 8.52461 8.52448 10.08 8.52448 12.0001C8.52448 13.9202 10.0813 15.4756 12 15.4756C13.9187 15.4756 15.4755 13.9188 15.4755 12.0001C15.4755 10.0814 13.9201 8.52461 12 8.52461Z" fill="black"/>
<path fill-rule="evenodd" clip-rule="evenodd" d="M11.2733 11.7428H11.8225L11.9916 11.2216C11.9916 11.2216 11.9985 11.2146 12.0027 11.216C12.0055 11.216 12.0069 11.2188 12.0083 11.2216L12.1774 11.7428H12.7266C12.7266 11.7428 12.735 11.747 12.735 11.7512C12.735 11.754 12.7336 11.7568 12.7308 11.7582L12.2878 12.0796L12.4569 12.6023C12.4569 12.6023 12.4569 12.6121 12.4513 12.6135C12.4485 12.6135 12.4457 12.6135 12.4429 12.6121L11.9999 12.2893L11.5556 12.6135C11.5556 12.6135 11.5458 12.6149 11.543 12.6121C11.5416 12.6093 11.5416 12.6065 11.543 12.6037L11.7121 12.081L11.2677 11.7596C11.2677 11.7596 11.2635 11.7512 11.2663 11.747C11.2677 11.7442 11.2705 11.7428 11.2733 11.7428Z" fill="black"/>
<path fill-rule="evenodd" clip-rule="evenodd" d="M11.8281 11.7597H11.2999L11.7275 12.07C11.7275 12.07 11.7317 12.0755 11.7303 12.0797L11.5668 12.5828L11.9944 12.2712C11.9944 12.2712 12.0014 12.2684 12.0042 12.2712L12.4318 12.5828L12.2683 12.0797C12.2683 12.0797 12.2683 12.0714 12.2711 12.07L12.6987 11.7597H12.1705C12.1705 11.7597 12.1635 11.7569 12.1621 11.7541L11.9986 11.2524L11.8351 11.7541C11.8351 11.7541 11.8309 11.7611 11.8267 11.7611L11.8281 11.7597Z" fill="#FED700"/>
<path fill-rule="evenodd" clip-rule="evenodd" d="M13.1207 10.8598C13.1752 10.8779 13.2269 10.9045 13.2717 10.9394C13.2619 10.9198 13.2535 10.8989 13.2479 10.8779C13.2381 10.843 13.2325 10.808 13.2311 10.7717C13.2004 10.7689 13.1766 10.7424 13.1766 10.7102C13.1766 10.6767 13.2046 10.6487 13.2381 10.6487C13.2717 10.6487 13.2996 10.6767 13.2996 10.7102C13.2996 10.741 13.2773 10.7661 13.2479 10.7703C13.2479 10.8053 13.2535 10.8388 13.2633 10.8723C13.2703 10.8933 13.2773 10.9143 13.2884 10.9352C13.2884 10.9296 13.2884 10.924 13.2884 10.9198C13.2884 10.8374 13.3234 10.7591 13.3849 10.7032C13.3891 10.7004 13.3932 10.7004 13.3974 10.7032C13.3988 10.706 13.4002 10.7074 13.4002 10.7102C13.4002 10.7759 13.424 10.8388 13.4659 10.8877C13.519 10.9478 13.5484 11.0247 13.5484 11.1043C13.5484 11.1476 13.54 11.1882 13.5246 11.2259C13.5106 11.2622 13.4897 11.2944 13.4645 11.3223C13.5246 11.3684 13.5749 11.4285 13.6099 11.497C13.614 11.5054 13.6182 11.5152 13.6224 11.5249C13.621 11.4844 13.6224 11.4453 13.628 11.4048C13.6322 11.3768 13.6378 11.3489 13.6448 11.3223C13.6168 11.3167 13.5959 11.2916 13.5959 11.2622C13.5959 11.2287 13.6238 11.2007 13.6574 11.2007C13.6909 11.2007 13.7189 11.2287 13.7189 11.2622C13.7189 11.2958 13.6937 11.3209 13.6616 11.3237C13.6546 11.3517 13.649 11.3796 13.6448 11.4076C13.6392 11.4495 13.6378 11.4914 13.6392 11.5333C13.6518 11.4886 13.6699 11.4453 13.6923 11.4048C13.7244 11.3475 13.7664 11.2972 13.8153 11.2538C13.8195 11.251 13.8251 11.251 13.8279 11.2538C13.8293 11.2566 13.8307 11.2594 13.8293 11.2622C13.8195 11.3069 13.8139 11.3517 13.8139 11.3978C13.8139 11.4593 13.8223 11.5208 13.8418 11.5808C13.846 11.599 13.8488 11.6172 13.8488 11.6353C13.8488 11.6731 13.839 11.708 13.8209 11.7388C13.8027 11.7709 13.7761 11.7975 13.7454 11.8156C13.7119 11.8394 13.6797 11.8673 13.6518 11.8981C13.6671 11.9414 13.6783 11.9847 13.6853 12.0308C13.6881 12.0434 13.6895 12.0574 13.6909 12.07C13.6965 12.049 13.7021 12.0294 13.7105 12.0099C13.7258 11.9707 13.7454 11.9344 13.7692 11.8995C13.765 11.8911 13.7636 11.8827 13.7636 11.8743C13.7636 11.8408 13.7915 11.8128 13.8251 11.8128C13.8586 11.8128 13.8865 11.8408 13.8865 11.8743C13.8865 11.9079 13.8586 11.9358 13.8251 11.9358C13.8069 11.9358 13.7901 11.9274 13.7789 11.9148C13.758 11.9456 13.7398 11.9791 13.7258 12.0155C13.7175 12.0392 13.7091 12.063 13.7049 12.0881C13.7133 12.0741 13.723 12.0616 13.7342 12.049C13.7566 12.0238 13.7817 12.0015 13.8097 11.9833C13.8153 11.9805 13.8209 11.9833 13.8223 11.9889C13.8293 12.0141 13.8348 12.0392 13.839 12.0658C13.8446 12.1035 13.846 12.1426 13.8432 12.1804C13.8614 12.1678 13.8768 12.1524 13.8921 12.137C13.9215 12.1063 13.9452 12.07 13.9634 12.0294C13.9648 12.0252 13.9704 12.0224 13.9746 12.0252C13.9774 12.0252 13.9802 12.0294 13.9802 12.0322C13.983 12.0574 13.9858 12.0839 13.9858 12.1091C13.9858 12.2279 13.9494 12.3369 13.8865 12.4277C13.8223 12.5213 13.73 12.5926 13.6224 12.6331C13.5903 12.6457 13.5609 12.6653 13.5358 12.689C13.5162 12.7086 13.4981 12.731 13.4855 12.7547C13.5078 12.7477 13.5302 12.7379 13.5512 12.7282C13.5805 12.7128 13.6085 12.6946 13.635 12.6723C13.6392 12.6695 13.6434 12.6695 13.6476 12.6723C13.649 12.6737 13.6504 12.6765 13.649 12.6779C13.6476 12.6974 13.6448 12.717 13.6406 12.7365C13.6699 12.7156 13.7035 12.6988 13.7384 12.6862C13.7384 12.682 13.737 12.6765 13.737 12.6709C13.737 12.6373 13.765 12.6094 13.7985 12.6094C13.832 12.6094 13.86 12.6373 13.86 12.6709C13.86 12.7044 13.832 12.7324 13.7985 12.7324C13.7761 12.7324 13.7566 12.7198 13.7454 12.7016C13.7049 12.7142 13.6671 12.7351 13.635 12.7617C13.6238 12.8022 13.6085 12.8414 13.5875 12.8791C13.5945 12.8791 13.6001 12.8777 13.6071 12.8763C13.6881 12.8637 13.765 12.8386 13.8362 12.798C13.8404 12.7952 13.846 12.798 13.8474 12.8008C13.8474 12.8036 13.8474 12.8064 13.8474 12.8078C13.7957 12.9322 13.7091 13.037 13.5987 13.1097C13.4925 13.1809 13.3639 13.2229 13.2255 13.2229C13.1892 13.2229 13.1543 13.2201 13.1179 13.2145C13.0816 13.276 13.0383 13.3333 12.9894 13.3836C13.002 13.378 13.0159 13.3738 13.0299 13.3696C13.0579 13.3626 13.0886 13.357 13.1193 13.357C13.1235 13.3277 13.1487 13.3039 13.1808 13.3039C13.2144 13.3039 13.2423 13.3319 13.2423 13.3654C13.2423 13.3989 13.2144 13.4269 13.1808 13.4269C13.1501 13.4269 13.1235 13.4045 13.1193 13.3738C13.09 13.3738 13.062 13.378 13.0341 13.3864C13.0117 13.392 12.9908 13.4003 12.9698 13.4101C13.0145 13.4199 13.0579 13.4367 13.097 13.4604C13.1431 13.4884 13.185 13.5247 13.2172 13.568C13.22 13.5722 13.22 13.5778 13.2158 13.5806C13.2144 13.582 13.2116 13.582 13.2088 13.582C13.1962 13.582 13.1836 13.5806 13.171 13.5806C13.0844 13.5806 13.002 13.6072 12.9321 13.6589C12.8594 13.712 12.7728 13.7413 12.6819 13.7413C12.6498 13.7413 12.6177 13.7371 12.5855 13.7301C12.6204 13.7651 12.6512 13.7986 12.6749 13.8308C12.6791 13.8363 12.6819 13.8405 12.6819 13.8475C12.6819 13.8769 12.6288 13.9006 12.5632 13.9006C12.5087 13.9006 12.4625 13.8839 12.4486 13.8629C12.4052 13.8014 12.3535 13.7455 12.2962 13.6966C12.2571 13.7273 12.211 13.7343 12.1621 13.7218C12.0992 13.705 12.0377 13.6812 11.9804 13.6519C11.9595 13.6407 11.9399 13.6295 11.9203 13.6169C11.87 13.6491 11.8225 13.6854 11.7778 13.7273C11.7331 13.7693 11.6939 13.814 11.659 13.8643C11.6394 13.895 11.5779 13.9034 11.5444 13.9034C11.4787 13.9034 11.4256 13.8797 11.4256 13.8503C11.4256 13.8447 11.427 13.8405 11.4298 13.835C11.4578 13.7944 11.5011 13.7469 11.5374 13.7134C11.5696 13.6826 11.6045 13.6547 11.6394 13.6281C11.6255 13.6281 11.6115 13.6281 11.5975 13.6281C11.4647 13.6281 11.3334 13.6211 11.2048 13.6086C11.1936 13.6086 11.1839 13.6058 11.1727 13.6058C11.2062 13.6714 11.2342 13.7399 11.2565 13.8098C11.2579 13.814 11.2565 13.8196 11.2509 13.821C11.2481 13.821 11.2439 13.821 11.2426 13.8182C11.1182 13.7036 10.9742 13.6128 10.8163 13.5527C10.8135 13.5527 10.8107 13.5499 10.8093 13.5471C10.8024 13.5261 10.794 13.5038 10.7856 13.4814C10.7716 13.4451 10.7576 13.4087 10.7465 13.3724C10.7451 13.3668 10.7492 13.3612 10.7548 13.3612C10.801 13.3612 10.8471 13.3612 10.8932 13.364C10.8065 13.3053 10.7171 13.2508 10.6249 13.2005L10.6095 13.1921C10.6095 13.234 10.6053 13.2746 10.5997 13.3151C10.5927 13.3598 10.5816 13.4045 10.5676 13.4493C10.5662 13.4534 10.5606 13.4562 10.5564 13.4548C10.5536 13.4548 10.5508 13.452 10.5508 13.4493C10.5298 13.3724 10.4991 13.3011 10.4586 13.2354C10.418 13.1684 10.3677 13.1069 10.3104 13.0538C10.3077 13.0524 10.3077 13.0482 10.3077 13.0454C10.3244 12.9643 10.344 12.8833 10.3663 12.8022C10.323 12.7198 10.2685 12.6443 10.2056 12.5758C10.1427 12.506 10.091 12.4249 10.0575 12.3355C10.024 12.2488 10.0058 12.1566 10.0058 12.0588C10.0058 12.0155 10.01 11.9721 10.017 11.9302C10.017 11.926 10.0226 11.9218 10.0268 11.9232C10.0296 11.9232 10.0324 11.926 10.0337 11.9288C10.0603 12.0169 10.1022 12.0979 10.1553 12.1692C10.1861 12.2097 10.221 12.2474 10.2601 12.2824C10.2238 12.1873 10.1959 12.0895 10.1763 11.9889C10.1553 11.8785 10.1441 11.7653 10.1441 11.6493C10.1441 11.4677 10.1721 11.286 10.2266 11.1127C10.228 11.1085 10.2336 11.1057 10.2378 11.1071C10.2406 11.1071 10.242 11.1099 10.2434 11.1127C10.2755 11.1812 10.3049 11.2524 10.3314 11.3251C10.3384 11.2035 10.3635 11.0861 10.4055 10.9771C10.4544 10.85 10.5271 10.734 10.6165 10.6334C10.6193 10.6292 10.6249 10.6292 10.6291 10.6334C10.6305 10.6348 10.6319 10.6362 10.6319 10.639C10.6361 10.6739 10.6388 10.7102 10.6416 10.7452C10.643 10.7689 10.6444 10.7927 10.6444 10.8178C10.6961 10.7088 10.7604 10.6068 10.8331 10.5118C10.9141 10.407 11.0078 10.3106 11.1112 10.2267C11.1154 10.2239 11.1196 10.2239 11.1238 10.2267C11.1252 10.2281 11.1266 10.2309 11.1252 10.2337C11.107 10.3385 11.079 10.4405 11.0413 10.5369C11.114 10.488 11.1978 10.4629 11.2859 10.4629C11.3739 10.4629 11.4634 10.4405 11.5374 10.3888C11.5416 10.386 11.5472 10.3874 11.55 10.3902C11.5514 10.393 11.5514 10.3958 11.55 10.3986C11.5095 10.4782 11.4424 10.5425 11.3613 10.5789C11.2412 10.632 11.1433 10.727 11.0874 10.8444C11.1531 10.8416 11.2174 10.829 11.2775 10.808C11.346 10.7843 11.4102 10.7494 11.4661 10.706C11.4703 10.7032 11.4759 10.7032 11.4787 10.7074C11.4815 10.7102 11.4815 10.7144 11.4787 10.7172C11.3963 10.8584 11.2691 10.9702 11.1168 11.0316C10.9756 11.0889 10.8457 11.1714 10.7353 11.2734C10.787 11.2399 10.8457 11.2133 10.9058 11.1951C10.9714 11.1756 11.0343 11.1476 11.093 11.1099C11.0972 11.1071 11.1028 11.1085 11.1056 11.1127C11.107 11.1155 11.107 11.1197 11.1056 11.1225C11.0385 11.2413 10.9491 11.3461 10.8429 11.4299C10.7506 11.5012 10.671 11.5878 10.6067 11.6857C10.5564 11.7611 10.5173 11.845 10.4879 11.933C10.5424 11.845 10.6123 11.7681 10.6947 11.7038C10.7423 11.6647 10.787 11.6214 10.8261 11.5725C10.8652 11.5249 10.8988 11.4718 10.9253 11.4173C10.9281 11.4131 10.9323 11.4118 10.9365 11.4132C10.9393 11.4145 10.9421 11.4187 10.9407 11.4229C10.9309 11.504 10.9141 11.5836 10.8918 11.6605C10.868 11.7388 10.8373 11.8142 10.801 11.8855C10.7506 11.9805 10.7101 12.0839 10.6836 12.1901C10.6752 12.2237 10.6682 12.2572 10.6626 12.2922C10.6668 12.2754 10.6724 12.2572 10.678 12.2404C10.7115 12.1384 10.759 12.0434 10.8219 11.9596C10.8247 11.9554 10.8303 11.9554 10.8345 11.9582C10.8373 11.9596 10.8387 11.9637 10.8373 11.9665C10.8289 12.042 10.8247 12.1175 10.8247 12.1929C10.8247 12.4137 10.8596 12.6261 10.9253 12.826C10.9379 12.8651 10.9519 12.9028 10.9659 12.9406C10.9617 12.914 10.9603 12.8875 10.9603 12.8595C10.9603 12.8469 10.9603 12.8344 10.9603 12.8204C10.9603 12.8162 10.9645 12.812 10.9686 12.812H11.0343C11.0343 12.812 11.0399 12.812 11.0413 12.8148C11.1056 12.8889 11.1797 12.9559 11.2607 13.0104C11.3418 13.0649 11.4298 13.1083 11.5234 13.1376C11.5276 13.139 11.5304 13.1446 11.529 13.1488C11.529 13.1516 11.5248 13.1544 11.522 13.1544C11.4941 13.1572 11.4647 13.1572 11.4354 13.1572C11.3767 13.1572 11.3166 13.153 11.2593 13.1432C11.3306 13.2131 11.4061 13.276 11.4871 13.3347C11.5919 13.4087 11.7037 13.4744 11.8211 13.5261C11.8518 13.5093 11.8812 13.4996 11.9119 13.4968C11.9427 13.4954 11.9748 13.4996 12.014 13.5149C12.0461 13.494 12.0838 13.4828 12.1216 13.4828C12.1733 13.4828 12.2306 13.4982 12.2893 13.5247C12.3144 13.4968 12.341 13.4716 12.3689 13.4479C12.3759 13.3123 12.4346 13.1921 12.5268 13.1041C12.6316 13.0049 12.77 12.9546 12.9139 12.9629C12.9181 12.9629 12.9223 12.9671 12.9223 12.9727C12.9223 12.9755 12.9223 12.9769 12.9195 12.9783C12.8902 13.0063 12.865 13.0384 12.8468 13.0747C12.8287 13.1097 12.8161 13.1488 12.8105 13.1893C12.8077 13.2075 12.8049 13.2271 12.8007 13.2452C12.8273 13.2298 12.851 13.2117 12.8734 13.1907C12.8971 13.167 12.9181 13.139 12.9335 13.1083C12.9195 13.0971 12.9097 13.0789 12.9097 13.0594C12.9097 13.0258 12.9377 12.9979 12.9712 12.9979C13.0048 12.9979 13.0327 13.0258 13.0327 13.0594C13.0327 13.0929 13.0048 13.1208 12.9712 13.1208C12.9628 13.1208 12.9558 13.1195 12.9489 13.1167C12.9321 13.1488 12.9111 13.1781 12.886 13.2033C12.8692 13.2201 12.851 13.234 12.8315 13.248C12.851 13.2452 12.8692 13.2438 12.8888 13.2438C12.9614 13.2382 13.0327 13.2243 13.1026 13.2005C13.1026 13.1516 13.0914 13.1027 13.0704 13.0566C13.0467 13.0049 13.0341 12.949 13.0341 12.8931C13.0341 12.826 13.0509 12.7603 13.0844 12.7016C13.1165 12.6443 13.1319 12.5786 13.1277 12.513C13.1277 12.5088 13.1305 12.5046 13.1361 12.5032C13.1389 12.5032 13.1417 12.5032 13.1431 12.506C13.1822 12.5479 13.2144 12.5968 13.2367 12.6499C13.2437 12.6681 13.2493 12.6862 13.2549 12.7044C13.2605 12.6918 13.2661 12.6779 13.2689 12.6639C13.2745 12.6457 13.2773 12.6261 13.2801 12.6066C13.2479 12.6038 13.2228 12.5772 13.2228 12.5451C13.2228 12.5116 13.2507 12.4836 13.2842 12.4836C13.3178 12.4836 13.3457 12.5116 13.3457 12.5451C13.3457 12.5744 13.3248 12.5996 13.2968 12.6052C13.2954 12.6261 13.2912 12.6485 13.2856 12.6681C13.2828 12.6793 13.2787 12.6904 13.2745 12.7002C13.2912 12.689 13.3094 12.6793 13.3276 12.6737C13.3583 12.6625 13.3904 12.6583 13.424 12.6625C13.4296 12.6625 13.4338 12.6695 13.431 12.6751C13.4156 12.7072 13.4058 12.7407 13.403 12.7757C13.4212 12.7687 13.4394 12.7645 13.4575 12.7603C13.4561 12.6681 13.424 12.58 13.3653 12.5074C13.3094 12.4417 13.2745 12.3634 13.2661 12.2768C13.2633 12.246 13.2633 12.2139 13.2661 12.1832C13.2703 12.1538 13.2703 12.1245 13.2675 12.0965C13.2647 12.0658 13.2577 12.0364 13.2479 12.0071C13.2465 12.0029 13.2479 11.9973 13.2535 11.9959C13.2549 11.9959 13.2577 11.9959 13.2591 11.9959C13.3052 12.0127 13.3471 12.035 13.3863 12.063C13.4184 12.0867 13.4477 12.1133 13.4729 12.1426C13.4715 12.1217 13.4673 12.1007 13.4603 12.0825C13.4519 12.0574 13.4408 12.0336 13.4254 12.0113C13.417 12.0155 13.4072 12.0183 13.396 12.0183C13.3625 12.0183 13.3346 11.9903 13.3346 11.9568C13.3346 11.9232 13.3625 11.8953 13.396 11.8953C13.4296 11.8953 13.4575 11.9232 13.4575 11.9568C13.4575 11.9735 13.4505 11.9903 13.4394 12.0015C13.4547 12.0252 13.4673 12.0504 13.4771 12.0769C13.4827 12.0937 13.4869 12.1091 13.4883 12.1273C13.5204 12.0434 13.5665 11.9665 13.6224 11.8995C13.5903 11.8883 13.5554 11.8841 13.5218 11.8855C13.4477 11.8883 13.3793 11.8645 13.329 11.8212C13.2801 11.7793 13.2465 11.7192 13.2395 11.6451C13.2353 11.5906 13.2144 11.5375 13.1794 11.4942C13.1766 11.49 13.1766 11.4844 13.1794 11.4816C13.1808 11.4816 13.1836 11.4802 13.185 11.4802C13.2297 11.4844 13.2731 11.4956 13.3122 11.5138C13.3457 11.5291 13.3751 11.5487 13.403 11.5739C13.4002 11.5389 13.403 11.5026 13.41 11.4677C13.4002 11.4593 13.3904 11.4523 13.3793 11.4453C13.3695 11.4397 13.3597 11.4355 13.3485 11.4313C13.3401 11.4565 13.3178 11.4746 13.2898 11.4746C13.2563 11.4746 13.2283 11.4467 13.2283 11.4132C13.2283 11.3796 13.2563 11.3517 13.2898 11.3517C13.3234 11.3517 13.3513 11.3796 13.3513 11.4132C13.3639 11.4187 13.3765 11.4229 13.3877 11.4299C13.3974 11.4355 13.4058 11.4411 13.4142 11.4481C13.417 11.4383 13.4198 11.4299 13.4226 11.4201C13.4324 11.3908 13.4366 11.3586 13.4352 11.3279C13.4072 11.3167 13.3765 11.3153 13.3457 11.3209C13.3248 11.3251 13.3024 11.3279 13.2801 11.3279C13.1724 11.3279 13.0732 11.272 13.0173 11.1798C12.9894 11.1309 12.9475 11.0917 12.8971 11.0666C12.893 11.0638 12.8916 11.0596 12.893 11.0554C12.893 11.054 12.8957 11.0526 12.8971 11.0512C12.9391 11.0316 12.9838 11.0205 13.0299 11.0205C13.062 11.0205 13.0942 11.0261 13.1249 11.0358C13.111 11.0191 13.0956 11.0051 13.0774 10.9925C13.0551 10.9771 13.0299 10.9646 13.0034 10.9562C12.9992 10.9869 12.974 11.0093 12.9419 11.0093C12.9083 11.0093 12.8804 10.9813 12.8804 10.9478C12.8804 10.9143 12.9083 10.8863 12.9419 10.8863C12.9726 10.8863 12.9978 10.9087 13.002 10.938C13.0327 10.9464 13.062 10.9604 13.0872 10.9771C13.1054 10.9897 13.1207 11.0037 13.1347 11.0205C13.1333 11.0093 13.1319 10.9967 13.1291 10.9855C13.1221 10.9562 13.1082 10.9296 13.0872 10.9087C13.0369 10.8584 12.9558 10.8514 12.8916 10.8751C12.8594 10.8891 12.8245 10.8961 12.7909 10.8961C12.6973 10.8961 12.6121 10.8458 12.5659 10.7633C12.5492 10.7354 12.5254 10.713 12.4947 10.699C12.4891 10.6963 12.4877 10.6879 12.4933 10.6851C12.538 10.6473 12.5953 10.6278 12.654 10.6278C12.6624 10.6278 12.6708 10.6278 12.6791 10.6278C12.6763 10.6236 12.675 10.6194 12.6736 10.6138C12.661 10.5845 12.6456 10.5579 12.6274 10.5327C12.6079 10.5076 12.5869 10.4852 12.5618 10.4671C12.559 10.4643 12.5576 10.4629 12.5576 10.4587C12.5576 10.4545 12.5618 10.4503 12.5673 10.4503C12.647 10.4573 12.7225 10.4782 12.7909 10.5118C12.784 10.4643 12.7867 10.4154 12.8021 10.3692C12.8119 10.3385 12.8273 10.3092 12.8454 10.284C12.8482 10.2798 12.8538 10.2798 12.858 10.2826C12.8608 10.284 12.8622 10.2868 12.8622 10.2896C12.8594 10.3399 12.886 10.3874 12.9307 10.4112C12.9866 10.4405 13.0327 10.4838 13.0648 10.5369C13.1054 10.604 13.1207 10.6809 13.111 10.7591C13.1068 10.7913 13.1082 10.8248 13.1138 10.857L13.1207 10.8598Z" fill="black"/>
<path fill-rule="evenodd" clip-rule="evenodd" d="M12.5645 13.8152C12.6204 13.8152 12.6652 13.8306 12.6652 13.8501C12.6652 13.8697 12.6204 13.8851 12.5645 13.8851C12.5086 13.8851 12.4639 13.8697 12.4639 13.8501C12.4639 13.8306 12.5086 13.8152 12.5645 13.8152Z" fill="#007C29"/>
<path fill-rule="evenodd" clip-rule="evenodd" d="M11.842 13.5401C11.8882 13.5779 11.9385 13.61 11.9916 13.6379C12.0475 13.6673 12.1076 13.6897 12.169 13.7064C12.211 13.7176 12.2501 13.7134 12.285 13.6869C12.2767 13.6799 12.2683 13.6743 12.2613 13.6673C12.1886 13.6114 12.1062 13.5667 12.0181 13.5345C11.9804 13.5192 11.9482 13.515 11.9189 13.5164C11.8924 13.5178 11.8686 13.5261 11.842 13.5401Z" fill="#007C29"/>
<path fill-rule="evenodd" clip-rule="evenodd" d="M10.9001 13.5693C11.0217 13.6252 11.1349 13.6979 11.2355 13.7859C11.2146 13.7245 11.188 13.663 11.1573 13.6057C11.0706 13.5959 10.9854 13.5847 10.9001 13.5693Z" fill="#007C29"/>
<path fill-rule="evenodd" clip-rule="evenodd" d="M11.5486 13.8152C11.6045 13.8152 11.6492 13.8306 11.6492 13.8501C11.6492 13.8697 11.6045 13.8851 11.5486 13.8851C11.4927 13.8851 11.448 13.8697 11.448 13.8501C11.448 13.8306 11.4927 13.8152 11.5486 13.8152Z" fill="#007C29"/>
<path fill-rule="evenodd" clip-rule="evenodd" d="M11.5486 13.7985C11.6031 13.7985 11.6478 13.8139 11.6618 13.8362C11.6939 13.7929 11.7302 13.7524 11.7694 13.7161C11.8071 13.6811 11.8476 13.649 11.8896 13.6196C11.8183 13.6252 11.747 13.628 11.6757 13.6294C11.6324 13.6588 11.5919 13.6909 11.5542 13.7272C11.5276 13.7524 11.5011 13.7803 11.4787 13.8097C11.4983 13.8027 11.5234 13.7999 11.55 13.7999L11.5486 13.7985Z" fill="#007C29"/>
<path fill-rule="evenodd" clip-rule="evenodd" d="M10.9016 13.4926C10.9016 13.4926 10.8932 13.4884 10.8932 13.4842C10.8932 13.48 10.8974 13.4758 10.9016 13.4758C11.0651 13.4772 11.2272 13.4856 11.3865 13.4996C11.536 13.5122 11.6855 13.5303 11.8323 13.5541C11.8295 13.5513 11.8253 13.5485 11.8225 13.5457C11.6534 13.4912 11.4787 13.4507 11.2998 13.4227C11.128 13.3962 10.9505 13.3808 10.7716 13.3794C10.7814 13.4115 10.794 13.4437 10.8065 13.4758C10.8149 13.4968 10.8219 13.5163 10.8289 13.5373C10.9561 13.5625 11.0832 13.5806 11.2118 13.5918C11.3404 13.6044 11.4717 13.61 11.6031 13.61C11.7009 13.61 11.8001 13.6058 11.898 13.5988C11.8854 13.5904 11.8728 13.582 11.8616 13.5736C11.7051 13.5485 11.5458 13.5275 11.3851 13.5136C11.2258 13.4996 11.0637 13.4912 10.9016 13.4898V13.4926Z" fill="#007C29"/>
<path fill-rule="evenodd" clip-rule="evenodd" d="M11.1978 13.0775C11.2118 13.0929 11.2272 13.1083 11.2425 13.1236C11.3082 13.1362 11.3739 13.1418 11.441 13.1418C11.455 13.1418 11.4689 13.1418 11.4829 13.1418C11.4032 13.1125 11.3264 13.0733 11.2565 13.0258C11.1866 12.9783 11.1224 12.9238 11.0651 12.8623C11.079 12.8944 11.0944 12.9252 11.1112 12.9559C11.1363 12.9993 11.1657 13.0398 11.1992 13.0775H11.1978Z" fill="#007C29"/>
<path fill-rule="evenodd" clip-rule="evenodd" d="M11.3809 13.4183C11.3124 13.3666 11.2481 13.3079 11.1908 13.2451C11.1251 13.1724 11.0678 13.0913 11.0189 13.0047C11.0161 13.0005 11.0189 12.9949 11.0217 12.9935C11.0259 12.9907 11.0315 12.9935 11.0329 12.9963C11.0804 13.0816 11.1377 13.1612 11.2034 13.2325C11.2677 13.3038 11.3403 13.3694 11.42 13.4253C11.522 13.4449 11.6226 13.4687 11.7219 13.4966C11.638 13.4533 11.5584 13.4044 11.4815 13.3499C11.3739 13.273 11.2747 13.185 11.1852 13.0885C11.1517 13.0494 11.1209 13.0075 11.0958 12.9628C11.0706 12.9208 11.0497 12.8761 11.0329 12.8286H10.9812C10.9812 12.8384 10.9812 12.8482 10.9812 12.858C10.9812 12.9362 10.9994 13.0145 11.0343 13.0843C11.0874 13.192 11.1489 13.294 11.2188 13.3904C11.2467 13.3946 11.2747 13.3988 11.3026 13.403C11.3292 13.4072 11.3557 13.4114 11.3823 13.4169L11.3809 13.4183Z" fill="#007C29"/>
<path fill-rule="evenodd" clip-rule="evenodd" d="M10.5969 13.185C10.5201 13.1445 10.4404 13.1068 10.3594 13.0732C10.4041 13.1194 10.4446 13.1711 10.4782 13.227C10.5145 13.2857 10.5424 13.3499 10.5634 13.417C10.5732 13.3835 10.5802 13.3485 10.5858 13.3136C10.5928 13.2717 10.5955 13.2284 10.5955 13.185H10.5969Z" fill="#007C29"/>
<path fill-rule="evenodd" clip-rule="evenodd" d="M11.1895 13.3891C11.0735 13.2745 10.9491 13.1683 10.8163 13.0732C10.6808 12.9754 10.5368 12.8888 10.3859 12.8147C10.365 12.8902 10.3468 12.9656 10.3314 13.0425C10.4362 13.0844 10.5382 13.1333 10.6375 13.1864C10.7381 13.2409 10.8359 13.301 10.9309 13.3667C10.9812 13.3695 11.0315 13.3723 11.0819 13.3779C11.0036 13.2996 10.917 13.2283 10.8247 13.1669C10.7269 13.1012 10.6207 13.0467 10.5089 13.0034C10.5047 13.002 10.5019 12.9964 10.5033 12.9922C10.5047 12.988 10.5103 12.9852 10.5145 12.9866C10.6277 13.0299 10.7339 13.0858 10.8331 13.1515C10.9323 13.2172 11.0246 13.294 11.107 13.3793C11.1336 13.3821 11.1615 13.3849 11.1881 13.3877L11.1895 13.3891Z" fill="#007C29"/>
<path fill-rule="evenodd" clip-rule="evenodd" d="M10.3537 12.5828C10.309 12.5395 10.2671 12.492 10.2308 12.4402C10.1944 12.3899 10.1623 12.3354 10.1343 12.2795C10.1315 12.2753 10.1343 12.2698 10.1385 12.2684C10.1427 12.2656 10.1483 12.2684 10.1497 12.2726C10.1763 12.3285 10.2084 12.3816 10.2447 12.4305C10.2811 12.4808 10.3216 12.5269 10.3663 12.5702C10.4711 12.668 10.555 12.7868 10.6123 12.9182C10.6542 12.9433 10.6947 12.9685 10.7353 12.995C10.7059 12.935 10.6835 12.8735 10.6668 12.8092C10.6193 12.6289 10.5047 12.4696 10.3496 12.3676C10.2713 12.3173 10.2028 12.253 10.1469 12.1803C10.0994 12.1174 10.0617 12.0462 10.0337 11.9707C10.0295 12 10.0281 12.0294 10.0281 12.0601C10.0281 12.1552 10.0463 12.2474 10.0784 12.3312C10.112 12.4179 10.1623 12.4975 10.2238 12.566C10.2881 12.6359 10.3426 12.7128 10.3873 12.7966C10.4544 12.8301 10.5214 12.8651 10.5857 12.9028C10.5298 12.7826 10.4502 12.675 10.3537 12.5842V12.5828Z" fill="#007C29"/>
<path fill-rule="evenodd" clip-rule="evenodd" d="M10.8611 13.0845C10.8205 12.9811 10.787 12.8749 10.7618 12.7645C10.7353 12.6471 10.7185 12.5255 10.7115 12.4011C10.7115 12.3969 10.7143 12.3927 10.7199 12.3913C10.7241 12.3913 10.7283 12.3941 10.7297 12.3997C10.7367 12.5227 10.7534 12.6429 10.78 12.7603C10.8066 12.879 10.8443 12.9936 10.889 13.104C10.9812 13.1739 11.0707 13.2494 11.1545 13.329C11.0525 13.1753 10.9715 13.009 10.9128 12.8301C10.8471 12.6289 10.8121 12.4151 10.8121 12.1915C10.8121 12.1258 10.8149 12.0615 10.8219 11.9958C10.7702 12.0727 10.7297 12.1566 10.7003 12.2446C10.6696 12.341 10.6528 12.4444 10.6528 12.5506C10.6528 12.6331 10.6626 12.7127 10.6822 12.7896C10.7017 12.8679 10.7297 12.9419 10.766 13.0118C10.787 13.0258 10.8079 13.0412 10.8303 13.0565C10.8415 13.0649 10.8527 13.0733 10.8652 13.0817L10.8611 13.0845Z" fill="#007C29"/>
<path fill-rule="evenodd" clip-rule="evenodd" d="M10.4222 12.4011C10.3775 12.3046 10.3426 12.2026 10.316 12.0978C10.2867 11.9818 10.2685 11.8616 10.2643 11.7387C10.2643 11.7345 10.2685 11.7303 10.2727 11.7303C10.2769 11.7303 10.2811 11.7345 10.2811 11.7387C10.2867 11.8603 10.3034 11.9804 10.3328 12.095C10.3593 12.2026 10.3971 12.306 10.4432 12.4053C10.453 12.3172 10.4572 12.2292 10.4572 12.1397C10.4572 11.9595 10.4376 11.7848 10.3999 11.6157C10.3635 11.4494 10.309 11.2901 10.2406 11.1392C10.1903 11.3041 10.1651 11.4759 10.1651 11.6492C10.1651 11.7638 10.1763 11.877 10.1972 11.986C10.2182 12.0964 10.2503 12.204 10.2923 12.3074C10.3132 12.3242 10.3356 12.3396 10.358 12.355C10.3803 12.3703 10.4027 12.3857 10.4222 12.4025V12.4011Z" fill="#007C29"/>
<path fill-rule="evenodd" clip-rule="evenodd" d="M10.5256 12.5031C10.5158 12.45 10.5117 12.3969 10.5117 12.3438C10.5117 12.2431 10.5284 12.1467 10.5606 12.0573C10.5927 11.9637 10.6402 11.8784 10.7003 11.8029C10.7031 11.7988 10.7087 11.7988 10.7129 11.8029C10.7171 11.8057 10.7171 11.8113 10.7129 11.8155C10.6542 11.8896 10.6067 11.9734 10.5759 12.0657C10.5452 12.1537 10.5284 12.2487 10.5284 12.3466C10.5284 12.4108 10.5354 12.4737 10.5494 12.5366C10.5857 12.5855 10.6179 12.6372 10.6416 12.6945C10.6332 12.6372 10.6304 12.5785 10.6304 12.5212C10.6304 12.408 10.6444 12.2976 10.671 12.1914C10.6975 12.0824 10.738 11.979 10.7897 11.8826C10.8261 11.8113 10.8554 11.7373 10.8792 11.6604C10.8974 11.5989 10.9113 11.5374 10.9211 11.4731C10.8974 11.5137 10.8708 11.5528 10.8415 11.5891C10.8023 11.638 10.7576 11.6828 10.7087 11.7233C10.6095 11.8002 10.5284 11.898 10.4711 12.0098C10.4739 12.0545 10.4753 12.0978 10.4753 12.1425C10.4753 12.2404 10.4697 12.3382 10.4572 12.436C10.4809 12.4584 10.5047 12.4821 10.5256 12.5073V12.5031Z" fill="#007C29"/>
<path fill-rule="evenodd" clip-rule="evenodd" d="M10.4502 11.6311C10.5089 11.511 10.5536 11.3852 10.5843 11.2524C10.6137 11.1239 10.629 10.9897 10.629 10.8514C10.629 10.815 10.629 10.7801 10.6263 10.7466C10.6249 10.7172 10.6221 10.6893 10.6193 10.6599C10.5368 10.7549 10.4711 10.8639 10.425 10.9827C10.3789 11.1029 10.3523 11.2343 10.351 11.3698C10.3677 11.4201 10.3831 11.4704 10.3971 11.5221C10.4041 11.4425 10.4152 11.3642 10.432 11.2888C10.453 11.1923 10.4823 11.1001 10.5173 11.0107C10.5186 11.0065 10.5242 11.0037 10.5284 11.0065C10.5326 11.0079 10.5354 11.0135 10.5326 11.0177C10.4977 11.1057 10.4683 11.1979 10.4474 11.293C10.4278 11.3852 10.4138 11.4816 10.4096 11.578C10.4124 11.5892 10.4152 11.6004 10.418 11.6116C10.4222 11.6325 10.4264 11.6535 10.4306 11.6745C10.4376 11.6605 10.4446 11.6451 10.4516 11.6311H10.4502Z" fill="#007C29"/>
<path fill-rule="evenodd" clip-rule="evenodd" d="M10.6067 11.4173C10.576 11.4564 10.5466 11.4969 10.5215 11.5389C10.5452 11.5109 10.5704 11.4844 10.5969 11.4592C10.671 11.3921 10.7562 11.3404 10.8513 11.3055C10.8555 11.3041 10.861 11.3055 10.8624 11.3111C10.8638 11.3153 10.8624 11.3209 10.8569 11.3223C10.7632 11.3558 10.6794 11.4075 10.6081 11.4732C10.5368 11.5389 10.4781 11.6171 10.4362 11.7052C10.4502 11.7862 10.4614 11.8687 10.4684 11.9525C10.4977 11.8547 10.541 11.7625 10.5955 11.6786C10.6612 11.5794 10.7423 11.4913 10.8359 11.4187C10.9309 11.3418 11.0134 11.2496 11.0763 11.1448C11.0259 11.1741 10.9714 11.1979 10.9141 11.2146C10.8499 11.2328 10.7898 11.2608 10.7367 11.2971C10.6878 11.3306 10.643 11.3712 10.6067 11.4173Z" fill="#007C29"/>
<path fill-rule="evenodd" clip-rule="evenodd" d="M10.9868 10.9938C10.9044 11.0105 10.8275 11.0441 10.7604 11.0916C10.6933 11.1405 10.6374 11.2034 10.5955 11.2746C10.5773 11.3501 10.5536 11.4242 10.527 11.4968C10.548 11.4647 10.5718 11.4326 10.5955 11.4032C10.6277 11.3627 10.6612 11.325 10.6975 11.29C10.8149 11.174 10.9561 11.0804 11.1126 11.0175C11.2467 10.963 11.3613 10.868 11.4424 10.7478C11.3935 10.7799 11.3418 10.8065 11.2859 10.8261C11.2174 10.8498 11.1447 10.8638 11.0693 10.8638C11.0078 10.8638 10.9505 10.8792 10.8974 10.9029C10.8429 10.9281 10.7954 10.9644 10.7562 11.0091C10.7143 11.0566 10.6696 11.1014 10.6235 11.1433C10.6193 11.1712 10.6137 11.1978 10.6081 11.2257C10.6472 11.1684 10.6947 11.1195 10.7506 11.079C10.8191 11.0301 10.8974 10.9952 10.984 10.9784C11.0511 10.9658 11.1154 10.9407 11.1727 10.9057C11.1769 10.9029 11.1824 10.9057 11.1852 10.9085C11.188 10.9127 11.1852 10.9183 11.1824 10.9211C11.1224 10.9574 11.0567 10.9826 10.9882 10.9966L10.9868 10.9938Z" fill="#007C29"/>
<path fill-rule="evenodd" clip-rule="evenodd" d="M10.6431 10.9742C10.7213 10.7911 10.8303 10.6234 10.9645 10.4781C10.9673 10.4739 10.9729 10.4739 10.9771 10.4781C10.9798 10.4809 10.9812 10.4864 10.9771 10.4906C10.8303 10.6485 10.7157 10.833 10.6375 11.0328C10.6347 11.0608 10.6319 11.0887 10.6277 11.1153C10.7507 11.0021 10.8555 10.8707 10.9379 10.724C11.0176 10.5801 11.0763 10.4222 11.107 10.2559C11.012 10.3355 10.9253 10.425 10.8499 10.5228C10.7702 10.6262 10.7018 10.738 10.6472 10.8582C10.6472 10.8973 10.6459 10.9364 10.6431 10.9756V10.9742Z" fill="#007C29"/>
<path fill-rule="evenodd" clip-rule="evenodd" d="M11.3572 10.5634C11.4242 10.5326 11.4815 10.4823 11.5207 10.4194C11.4494 10.46 11.3697 10.4781 11.2887 10.4781C11.195 10.4781 11.1056 10.5089 11.0315 10.5662C11.0106 10.6193 10.9854 10.6696 10.9589 10.7185C10.9882 10.6877 11.0204 10.6612 11.0539 10.636C11.1224 10.5871 11.1992 10.5494 11.2831 10.5284C11.2873 10.5284 11.2929 10.5298 11.2943 10.534C11.2943 10.5382 11.2929 10.5438 11.2887 10.5452C11.2076 10.5662 11.1308 10.6025 11.0651 10.65C10.998 10.6989 10.9393 10.759 10.8932 10.8289C10.8722 10.861 10.8499 10.8918 10.8275 10.9211C10.8485 10.9071 10.8694 10.8946 10.8918 10.8848C10.9491 10.8582 11.0092 10.8443 11.0721 10.8443C11.1308 10.7185 11.2328 10.6179 11.3585 10.562L11.3572 10.5634Z" fill="#007C29"/>
<path fill-rule="evenodd" clip-rule="evenodd" d="M13.1822 13.3262C13.206 13.3262 13.2269 13.3457 13.2269 13.3709C13.2269 13.396 13.2074 13.4156 13.1822 13.4156C13.1571 13.4156 13.1375 13.396 13.1375 13.3709C13.1375 13.3457 13.1571 13.3262 13.1822 13.3262Z" fill="#FF0000"/>
<path fill-rule="evenodd" clip-rule="evenodd" d="M12.4611 13.6266C12.5981 13.6126 12.7239 13.5665 12.8343 13.4952C12.9405 13.4254 13.0313 13.3331 13.097 13.2241C13.0313 13.2451 12.9642 13.2577 12.8957 13.2633C12.7812 13.2688 12.6708 13.2968 12.5715 13.3443C12.4751 13.3904 12.3885 13.4533 12.3158 13.5302C12.4248 13.5302 12.5268 13.5162 12.6302 13.4785C12.7266 13.4435 12.8133 13.3918 12.8902 13.3261C12.8943 13.3233 12.8999 13.3233 12.9027 13.3261C12.9055 13.3303 12.9055 13.3359 12.9027 13.3387C12.8245 13.4044 12.735 13.4575 12.6372 13.4938C12.5436 13.5288 12.4416 13.5469 12.3368 13.5469C12.3591 13.5581 12.3815 13.5721 12.4024 13.5861C12.422 13.5986 12.4416 13.6126 12.4611 13.6266Z" fill="#007C29"/>
<path fill-rule="evenodd" clip-rule="evenodd" d="M12.5617 13.7077C12.6009 13.7203 12.6428 13.7273 12.6847 13.7273C12.7714 13.7273 12.8552 13.6993 12.9251 13.649C12.9977 13.5959 13.0844 13.568 13.1738 13.568C13.1794 13.568 13.1864 13.568 13.1934 13.568C13.164 13.533 13.1291 13.5037 13.09 13.4799C13.0481 13.4548 13.0005 13.4366 12.9488 13.4282C12.9153 13.4576 12.8804 13.4841 12.844 13.5093C12.7504 13.5708 12.6442 13.6141 12.5296 13.6336C12.6023 13.6378 12.6749 13.6337 12.7448 13.6169C12.8007 13.6043 12.8524 13.5861 12.9027 13.561C12.9069 13.5596 12.9125 13.561 12.9139 13.5652C12.9153 13.5694 12.9139 13.575 12.9097 13.5764C12.8594 13.6015 12.8049 13.6197 12.7476 13.6336C12.6638 13.6532 12.5757 13.6574 12.4891 13.6476C12.5142 13.6672 12.538 13.6882 12.5603 13.7077H12.5617Z" fill="#007C29"/>
<path fill-rule="evenodd" clip-rule="evenodd" d="M12.7993 13.1906C12.8049 13.1473 12.8175 13.1068 12.837 13.069C12.8538 13.0369 12.8748 13.0075 12.8985 12.981C12.7644 12.9796 12.6414 13.0243 12.5436 13.1179C12.4583 13.199 12.4024 13.3094 12.3926 13.4338C12.4443 13.3918 12.5016 13.3555 12.5631 13.3262C12.5743 13.3206 12.5841 13.3164 12.5953 13.3122C12.6078 13.2633 12.6288 13.2172 12.6554 13.1752C12.6833 13.1319 12.7196 13.0928 12.7602 13.062C12.7644 13.0592 12.77 13.0592 12.7727 13.0634C12.7755 13.0676 12.7755 13.0732 12.7714 13.076C12.7322 13.1068 12.6973 13.1431 12.6707 13.185C12.647 13.2214 12.6288 13.2619 12.6162 13.3038C12.6707 13.2828 12.7266 13.2661 12.7853 13.2563C12.7909 13.2339 12.7951 13.2116 12.7979 13.1892L12.7993 13.1906Z" fill="#007C29"/>
<path fill-rule="evenodd" clip-rule="evenodd" d="M12.9768 13.0188C13.0005 13.0188 13.0215 13.0384 13.0215 13.0635C13.0215 13.0887 13.0019 13.1082 12.9768 13.1082C12.9516 13.1082 12.9321 13.0887 12.9321 13.0635C12.9321 13.0384 12.9516 13.0188 12.9768 13.0188Z" fill="#FF0000"/>
<path fill-rule="evenodd" clip-rule="evenodd" d="M13.4659 12.7798C13.3667 12.8021 13.2815 12.8594 13.22 12.9349C13.1669 13.002 13.1319 13.0858 13.1263 13.1781C13.178 13.1012 13.2451 13.0355 13.3234 12.9852C13.3583 12.9629 13.3891 12.9391 13.4198 12.9083C13.445 12.8832 13.4687 12.8552 13.4883 12.8245C13.4911 12.8203 13.4967 12.8189 13.5009 12.8217C13.5051 12.8245 13.5065 12.8301 13.5037 12.8343C13.4827 12.865 13.4589 12.8944 13.4324 12.9209C13.4282 12.9251 13.4254 12.9279 13.4212 12.9321C13.4673 12.9111 13.5162 12.8958 13.5679 12.886C13.6029 12.8287 13.6252 12.7658 13.6336 12.6987C13.6113 12.7155 13.5875 12.7309 13.5637 12.7434C13.533 12.7588 13.5009 12.7714 13.4673 12.7798H13.4659Z" fill="#007C29"/>
<path fill-rule="evenodd" clip-rule="evenodd" d="M13.8013 12.6289C13.8251 12.6289 13.846 12.6485 13.846 12.6736C13.846 12.6988 13.8265 12.7183 13.8013 12.7183C13.7762 12.7183 13.7566 12.6988 13.7566 12.6736C13.7566 12.6485 13.7762 12.6289 13.8013 12.6289Z" fill="#FF0000"/>
<path fill-rule="evenodd" clip-rule="evenodd" d="M13.1515 13.1726C13.2144 13.1278 13.2828 13.0873 13.3527 13.0538C13.438 13.0133 13.5274 12.9825 13.6196 12.9602C13.6238 12.9602 13.6294 12.9615 13.6294 12.9671C13.6294 12.9713 13.628 12.9769 13.6224 12.9769C13.5302 12.9979 13.4422 13.03 13.3583 13.0692C13.28 13.1069 13.2046 13.1516 13.1361 13.2033C13.1655 13.2075 13.1962 13.2089 13.2255 13.2089C13.3597 13.2089 13.4855 13.1684 13.5889 13.0985C13.6895 13.0314 13.7706 12.9378 13.8223 12.8274C13.7552 12.8609 13.6839 12.8847 13.6084 12.8959C13.5064 12.9098 13.4114 12.9462 13.329 12.9993C13.2591 13.0454 13.1976 13.1041 13.1473 13.1712L13.1515 13.1726Z" fill="#007C29"/>
<path fill-rule="evenodd" clip-rule="evenodd" d="M13.0914 13.0509C13.1012 13.0732 13.1096 13.0984 13.1152 13.1236C13.1207 13.097 13.1277 13.0705 13.1375 13.0453C13.1501 13.0104 13.1599 12.9726 13.1669 12.9349C13.1794 12.8636 13.1794 12.791 13.1697 12.7197C13.1697 12.7155 13.1725 12.7099 13.1766 12.7099C13.1808 12.7099 13.185 12.7127 13.1864 12.7169C13.1976 12.7896 13.1976 12.865 13.1836 12.9377C13.1836 12.9461 13.1808 12.9545 13.1794 12.9614C13.1878 12.9489 13.1962 12.9363 13.206 12.9237C13.22 12.9056 13.2367 12.8888 13.2535 12.8734C13.2563 12.8566 13.2563 12.8385 13.2563 12.8203C13.2563 12.763 13.2451 12.7085 13.2256 12.6582C13.2074 12.6135 13.1822 12.573 13.1515 12.5366C13.1515 12.5981 13.1361 12.6582 13.1054 12.7113C13.0732 12.7672 13.0579 12.8301 13.0579 12.8944C13.0579 12.9489 13.069 13.002 13.0928 13.0509H13.0914Z" fill="#007C29"/>
<path fill-rule="evenodd" clip-rule="evenodd" d="M13.2898 12.5032C13.3136 12.5032 13.3346 12.5227 13.3346 12.5479C13.3346 12.573 13.315 12.5926 13.2898 12.5926C13.2647 12.5926 13.2451 12.573 13.2451 12.5479C13.2451 12.5227 13.2647 12.5032 13.2898 12.5032Z" fill="#FF0000"/>
<path fill-rule="evenodd" clip-rule="evenodd" d="M13.3918 12.7853C13.3932 12.749 13.4016 12.714 13.4156 12.6819C13.389 12.6819 13.3625 12.6847 13.3387 12.6931C13.3122 12.7028 13.287 12.7168 13.2661 12.7364C13.2716 12.7643 13.2744 12.7923 13.2744 12.8216V12.8286C13.2772 12.8216 13.2814 12.8146 13.2856 12.8077C13.2982 12.7853 13.3122 12.7657 13.3261 12.7448C13.3289 12.7406 13.3345 12.7406 13.3387 12.7434C13.3429 12.7462 13.3429 12.7518 13.3401 12.756C13.3261 12.7755 13.3122 12.7951 13.301 12.816C13.2954 12.8258 13.2898 12.837 13.2842 12.8482C13.3164 12.823 13.3527 12.8021 13.3918 12.7853Z" fill="#007C29"/>
<path fill-rule="evenodd" clip-rule="evenodd" d="M13.4729 12.6079C13.4799 12.6443 13.4827 12.6806 13.4827 12.7169C13.5176 12.6219 13.547 12.5241 13.5693 12.4235C13.5959 12.3075 13.6126 12.1901 13.621 12.0685C13.621 12.0643 13.6252 12.0601 13.6308 12.0601C13.635 12.0601 13.6392 12.0643 13.6392 12.0699C13.6308 12.1915 13.6126 12.3117 13.5875 12.4277C13.5693 12.5087 13.547 12.5884 13.5204 12.6666C13.5721 12.5968 13.614 12.5185 13.642 12.4333C13.6685 12.3522 13.6839 12.2642 13.6839 12.1733C13.6839 12.1258 13.6797 12.0797 13.6727 12.035C13.6657 11.9945 13.656 11.9539 13.6434 11.9148C13.5861 11.9861 13.54 12.0671 13.5078 12.1552C13.4757 12.2446 13.4575 12.341 13.4575 12.4416C13.4575 12.4975 13.4631 12.5548 13.4743 12.6093L13.4729 12.6079Z" fill="#007C29"/>
<path fill-rule="evenodd" clip-rule="evenodd" d="M13.5875 12.6316C13.6546 12.5938 13.7147 12.5449 13.7622 12.4862C13.8097 12.4275 13.846 12.3605 13.8698 12.2878C13.8712 12.2836 13.8768 12.2808 13.881 12.2822C13.8852 12.2836 13.888 12.2878 13.8866 12.2934C13.8628 12.3689 13.8251 12.4387 13.7762 12.4974C13.7496 12.531 13.7189 12.5603 13.6853 12.5883C13.7622 12.5477 13.8265 12.489 13.8754 12.4178C13.9355 12.3297 13.9718 12.2235 13.9718 12.1089C13.9718 12.0936 13.9718 12.0796 13.9704 12.0642C13.9536 12.095 13.9327 12.1243 13.9089 12.1481C13.8782 12.1802 13.8405 12.2081 13.7999 12.2277C13.758 12.2473 13.7203 12.2752 13.6895 12.3088C13.6825 12.3535 13.6714 12.3954 13.6574 12.4373C13.6308 12.5184 13.5917 12.5924 13.5442 12.6595C13.5582 12.6483 13.5721 12.6386 13.5875 12.6302V12.6316Z" fill="#007C29"/>
<path fill-rule="evenodd" clip-rule="evenodd" d="M13.4058 11.9148C13.431 11.9148 13.4505 11.9344 13.4505 11.9595C13.4505 11.9847 13.431 12.0042 13.4058 12.0042C13.3806 12.0042 13.3611 11.9847 13.3611 11.9595C13.3611 11.9344 13.3806 11.9148 13.4058 11.9148Z" fill="#FF0000"/>
<path fill-rule="evenodd" clip-rule="evenodd" d="M13.3849 12.4976C13.4184 12.5381 13.4422 12.5814 13.4589 12.6318C13.4589 12.6248 13.4575 12.6192 13.4562 12.6122C13.4436 12.5507 13.438 12.4892 13.4394 12.4263C13.4394 12.376 13.438 12.3327 13.4282 12.2838C13.4198 12.2377 13.4044 12.1943 13.3849 12.151C13.3835 12.1468 13.3849 12.1412 13.3891 12.1398C13.3933 12.1385 13.3989 12.1398 13.4003 12.144C13.4198 12.1874 13.4352 12.2335 13.4436 12.281C13.445 12.2894 13.4464 12.2992 13.4478 12.3075C13.4548 12.2614 13.4659 12.2167 13.4799 12.1734C13.452 12.1385 13.4184 12.1077 13.3821 12.0812C13.3499 12.0574 13.3136 12.0378 13.2759 12.0225C13.2829 12.0476 13.2885 12.0728 13.2913 12.0979C13.294 12.1287 13.294 12.158 13.2899 12.1888C13.2857 12.2195 13.2857 12.2489 13.2885 12.2796C13.2968 12.362 13.329 12.4375 13.3835 12.5004L13.3849 12.4976Z" fill="#007C29"/>
<path fill-rule="evenodd" clip-rule="evenodd" d="M13.8279 11.8308C13.8516 11.8308 13.8726 11.8504 13.8726 11.8755C13.8726 11.9007 13.853 11.9202 13.8279 11.9202C13.8027 11.9202 13.7831 11.9007 13.7831 11.8755C13.7831 11.8504 13.8027 11.8308 13.8279 11.8308Z" fill="#FF0000"/>
<path fill-rule="evenodd" clip-rule="evenodd" d="M13.7663 12.1173C13.7663 12.1173 13.7733 12.1103 13.7775 12.1117C13.7817 12.1131 13.7845 12.1187 13.7831 12.1229C13.7649 12.169 13.744 12.2151 13.7202 12.2584C13.7426 12.2403 13.7677 12.2249 13.7929 12.2123C13.8055 12.2067 13.8181 12.1997 13.8292 12.1913C13.8334 12.1494 13.832 12.1075 13.8264 12.0656C13.8236 12.0446 13.8194 12.0236 13.8139 12.0027C13.7915 12.0195 13.7705 12.0376 13.7524 12.0586C13.7328 12.0823 13.7146 12.1089 13.7021 12.1368C13.7021 12.148 13.7021 12.1592 13.7021 12.1718C13.7021 12.2025 13.7007 12.2333 13.6965 12.264C13.723 12.2165 13.7468 12.1676 13.7663 12.1159V12.1173Z" fill="#007C29"/>
<path fill-rule="evenodd" clip-rule="evenodd" d="M13.6197 11.8742C13.5833 11.8169 13.554 11.7568 13.5302 11.6926C13.5037 11.6199 13.4869 11.543 13.4813 11.462C13.4813 11.4578 13.4841 11.4536 13.4897 11.4522C13.4939 11.4522 13.4981 11.455 13.4995 11.4606C13.5065 11.5388 13.5218 11.6143 13.5484 11.6856C13.5707 11.7499 13.6015 11.8113 13.6378 11.8686C13.6378 11.8421 13.6406 11.8155 13.6448 11.789C13.6476 11.7694 13.649 11.7471 13.649 11.7275C13.649 11.6478 13.6294 11.5724 13.5959 11.5053C13.5638 11.441 13.5176 11.3865 13.4631 11.3418C13.4631 11.3711 13.4589 11.3991 13.4506 11.427C13.4198 11.5179 13.4254 11.6143 13.4617 11.6968C13.4939 11.7694 13.5484 11.8323 13.6224 11.8742H13.6197Z" fill="#007C29"/>
<path fill-rule="evenodd" clip-rule="evenodd" d="M13.5288 11.8686C13.5469 11.8686 13.5651 11.8686 13.5819 11.8714C13.5721 11.8644 13.5637 11.8588 13.5553 11.8518C13.5064 11.8294 13.4617 11.8001 13.424 11.7638C13.3848 11.7274 13.3527 11.6841 13.3275 11.6366C13.3261 11.6324 13.3275 11.6268 13.3317 11.6254C13.3359 11.6226 13.3415 11.6254 13.3429 11.6296C13.3667 11.6757 13.3974 11.7177 13.4351 11.7526C13.4575 11.7749 13.4841 11.7931 13.5106 11.8099C13.4827 11.7791 13.4603 11.7442 13.4435 11.7051C13.4296 11.6729 13.4198 11.638 13.4142 11.6031C13.3848 11.5737 13.3513 11.55 13.3136 11.5318C13.2814 11.5164 13.2479 11.5066 13.2115 11.5024C13.2409 11.5444 13.2591 11.5947 13.2633 11.6464C13.2702 11.7149 13.301 11.7708 13.3471 11.8099C13.3946 11.8504 13.4575 11.8714 13.5274 11.87L13.5288 11.8686Z" fill="#007C29"/>
<path fill-rule="evenodd" clip-rule="evenodd" d="M13.7384 11.8029C13.7678 11.7862 13.7929 11.761 13.8083 11.7317C13.825 11.7037 13.8334 11.6716 13.8334 11.6367C13.8334 11.6199 13.832 11.6031 13.8264 11.5863C13.8083 11.5249 13.7985 11.462 13.7985 11.3991C13.7985 11.3614 13.8013 11.3236 13.8083 11.2859C13.7691 11.3236 13.7356 11.3669 13.7077 11.4145C13.6769 11.4676 13.656 11.5276 13.6448 11.5905C13.6546 11.6227 13.6601 11.6576 13.6629 11.6925C13.6811 11.6255 13.7091 11.5612 13.744 11.5011C13.7468 11.4969 13.7524 11.4955 13.7566 11.4983C13.7608 11.5011 13.7622 11.5067 13.7594 11.5109C13.7258 11.5682 13.6993 11.6311 13.6811 11.6981C13.6657 11.7554 13.656 11.8155 13.6546 11.877C13.6797 11.8505 13.7091 11.8267 13.7398 11.8057L13.7384 11.8029Z" fill="#007C29"/>
<path fill-rule="evenodd" clip-rule="evenodd" d="M13.6574 11.2175C13.6811 11.2175 13.7021 11.2371 13.7021 11.2622C13.7021 11.2874 13.6825 11.307 13.6574 11.307C13.6322 11.307 13.6127 11.2874 13.6127 11.2622C13.6127 11.2371 13.6322 11.2175 13.6574 11.2175Z" fill="#FF0000"/>
<path fill-rule="evenodd" clip-rule="evenodd" d="M13.2996 11.3711C13.3234 11.3711 13.3443 11.3907 13.3443 11.4158C13.3443 11.441 13.3248 11.4605 13.2996 11.4605C13.2744 11.4605 13.2549 11.441 13.2549 11.4158C13.2549 11.3907 13.2744 11.3711 13.2996 11.3711Z" fill="#FF0000"/>
<path fill-rule="evenodd" clip-rule="evenodd" d="M13.3611 10.8582C13.3611 10.8582 13.3639 10.8499 13.3695 10.8485C13.3737 10.8485 13.3778 10.8512 13.3792 10.8568C13.382 10.8988 13.396 10.9407 13.4198 10.9756C13.4617 11.0413 13.4827 11.1168 13.4827 11.195C13.4827 11.2258 13.4799 11.2565 13.4729 11.2859C13.4882 11.2649 13.5008 11.2425 13.5092 11.2188C13.5232 11.1838 13.5316 11.1447 13.5316 11.1042C13.5316 11.0287 13.5036 10.9561 13.4533 10.8988C13.4114 10.8512 13.3876 10.7912 13.3834 10.7283C13.3345 10.78 13.3066 10.8471 13.3066 10.9183C13.3066 10.9365 13.308 10.9547 13.3122 10.9728C13.3317 10.9924 13.3499 11.012 13.3667 11.0343C13.4156 11.1014 13.4491 11.181 13.4589 11.2677C13.4631 11.2439 13.4659 11.2188 13.4659 11.1936C13.4659 11.1196 13.4449 11.0469 13.4058 10.984C13.3806 10.9463 13.3667 10.9016 13.3625 10.8568L13.3611 10.8582Z" fill="#007C29"/>
<path fill-rule="evenodd" clip-rule="evenodd" d="M12.9516 10.9072C12.9754 10.9072 12.9964 10.9268 12.9964 10.9519C12.9964 10.9771 12.9768 10.9967 12.9516 10.9967C12.9265 10.9967 12.9069 10.9771 12.9069 10.9519C12.9069 10.9268 12.9265 10.9072 12.9516 10.9072Z" fill="#FF0000"/>
<path fill-rule="evenodd" clip-rule="evenodd" d="M13.3848 11.3028C13.3345 11.2818 13.2856 11.2511 13.2465 11.2147C13.2199 11.1924 13.192 11.1714 13.1612 11.1546C13.1305 11.1365 13.097 11.1225 13.062 11.1113C13.0578 11.1113 13.055 11.1057 13.0564 11.1001C13.0578 11.0959 13.062 11.0931 13.0676 11.0945C13.1039 11.1057 13.1389 11.1211 13.171 11.1393C13.1794 11.1435 13.1864 11.149 13.1948 11.1532C13.1766 11.1253 13.1612 11.0959 13.1529 11.0624C13.1165 11.047 13.0788 11.04 13.0397 11.04C13.0005 11.04 12.9642 11.047 12.9293 11.061C12.9754 11.0876 13.0131 11.1267 13.0397 11.1714C13.0928 11.258 13.1864 11.3111 13.2884 11.3111C13.3094 11.3111 13.3303 11.3084 13.3513 11.3042C13.3625 11.3014 13.3737 11.3014 13.3848 11.3014V11.3028Z" fill="#007C29"/>
<path fill-rule="evenodd" clip-rule="evenodd" d="M13.4128 11.2943C13.4212 11.2971 13.4296 11.3013 13.438 11.3054C13.4198 11.2523 13.3947 11.202 13.3653 11.1559C13.3304 11.1028 13.2885 11.0553 13.2395 11.0134C13.2354 11.0106 13.2354 11.005 13.2395 11.0008C13.2423 10.9966 13.2479 10.9966 13.2521 11.0008C13.3024 11.0427 13.3458 11.0916 13.3807 11.1461C13.4045 11.1825 13.4254 11.2216 13.4408 11.2621C13.4296 11.1811 13.3989 11.1084 13.3527 11.0455C13.2968 10.9701 13.2186 10.9128 13.1292 10.8806C13.1459 10.9267 13.1571 10.9742 13.1627 11.0232C13.1711 11.0846 13.199 11.1377 13.2395 11.1811C13.2857 11.2314 13.3472 11.2691 13.4128 11.2943Z" fill="#007C29"/>
<path fill-rule="evenodd" clip-rule="evenodd" d="M13.2381 10.6655C13.2619 10.6655 13.2829 10.6851 13.2829 10.7102C13.2829 10.7354 13.2633 10.755 13.2381 10.755C13.213 10.755 13.1934 10.7354 13.1934 10.7102C13.1934 10.6851 13.213 10.6655 13.2381 10.6655Z" fill="#FF0000"/>
<path fill-rule="evenodd" clip-rule="evenodd" d="M13.0159 10.8513C13.0341 10.8541 13.0523 10.8611 13.0691 10.8695C13.0369 10.8276 13.002 10.7884 12.9642 10.7507C12.9083 10.6948 12.8483 10.6431 12.7826 10.597C12.7784 10.5942 12.7784 10.5886 12.7812 10.5844C12.784 10.5802 12.7896 10.5802 12.7938 10.583C12.8594 10.6291 12.9209 10.6822 12.9768 10.7381C13.0285 10.7912 13.0774 10.8485 13.1208 10.91C13.0886 10.8094 13.0327 10.72 12.9587 10.6487C12.8636 10.5579 12.7406 10.495 12.6037 10.4768C12.6205 10.4922 12.6358 10.5089 12.6498 10.5271C12.6694 10.5523 12.6861 10.5816 12.6987 10.6124C12.7267 10.6766 12.77 10.7325 12.8259 10.7745C12.8804 10.815 12.9461 10.8429 13.0159 10.8513Z" fill="#007C29"/>
<path fill-rule="evenodd" clip-rule="evenodd" d="M12.5911 10.7578C12.6344 10.8346 12.7127 10.8821 12.8007 10.8821C12.8329 10.8821 12.865 10.8751 12.8958 10.8626C12.9083 10.857 12.9223 10.8542 12.9363 10.8514C12.9014 10.8402 12.8692 10.8248 12.8385 10.8053C12.8119 10.7885 12.7826 10.7745 12.7532 10.7633C12.7225 10.7522 12.6917 10.7438 12.6582 10.7382C12.654 10.7382 12.6498 10.7326 12.6512 10.7284C12.6512 10.7242 12.6568 10.72 12.661 10.7214C12.6945 10.727 12.7281 10.7354 12.7588 10.748C12.763 10.7494 12.7672 10.7508 12.7714 10.7536C12.742 10.7242 12.7169 10.6907 12.6959 10.6529C12.6847 10.6515 12.6736 10.6501 12.661 10.6501C12.6107 10.6501 12.5632 10.6655 12.5226 10.6949C12.5506 10.7102 12.573 10.7326 12.5883 10.7591L12.5911 10.7578Z" fill="#007C29"/>
<path fill-rule="evenodd" clip-rule="evenodd" d="M13.1012 10.7604C13.1109 10.6878 13.0956 10.6123 13.0564 10.5494C13.0257 10.4991 12.981 10.4572 12.9293 10.4292C12.8874 10.4069 12.8594 10.3664 12.8538 10.3188C12.8426 10.337 12.8342 10.3566 12.8273 10.3775C12.8119 10.4251 12.8091 10.4754 12.8189 10.5243C12.8538 10.5424 12.8874 10.5634 12.9181 10.5872C12.9139 10.5816 12.9111 10.576 12.9083 10.5704C12.8874 10.5369 12.8706 10.4991 12.8566 10.4614C12.8552 10.4572 12.8566 10.4516 12.8622 10.4502C12.8664 10.4488 12.872 10.4502 12.8734 10.4558C12.886 10.4935 12.9027 10.5285 12.9237 10.562C12.9446 10.5955 12.967 10.6277 12.9936 10.6556C13.0355 10.7004 13.0718 10.7521 13.0998 10.808C13.0998 10.7912 13.0998 10.7744 13.1026 10.7577L13.1012 10.7604Z" fill="#007C29"/>
<path fill-rule="evenodd" clip-rule="evenodd" d="M12.5646 13.7985C12.5911 13.7985 12.6149 13.8027 12.6344 13.8082C12.5758 13.7384 12.4863 13.6601 12.3927 13.6C12.3032 13.5427 12.2068 13.5022 12.1272 13.5022C12.0964 13.5022 12.0671 13.5092 12.0405 13.5246C12.1244 13.5567 12.2012 13.6 12.2711 13.6531C12.3396 13.7048 12.3997 13.7663 12.45 13.8348C12.464 13.8124 12.5101 13.7971 12.5632 13.7971L12.5646 13.7985Z" fill="#007C29"/>
<path fill-rule="evenodd" clip-rule="evenodd" d="M14.5378 13.3556L14.4651 13.4688L14.2275 13.4437L14.3491 13.6505L14.2764 13.7637L14.0948 13.4297L13.955 13.3402L14.0193 13.2396L14.1591 13.3305L14.5378 13.357V13.3556ZM13.2647 9.82424L13.1878 9.95839L13.083 9.8983L13.3318 9.46509L13.5106 9.5685C13.6029 9.6216 13.6364 9.71663 13.5819 9.80886C13.5274 9.90389 13.4296 9.91926 13.3359 9.86476L13.2647 9.82424ZM13.3122 9.74178L13.3639 9.77113C13.4072 9.79629 13.4491 9.7907 13.4743 9.74598C13.4995 9.70266 13.4827 9.66353 13.4394 9.63837L13.3877 9.60903L13.3122 9.74039V9.74178ZM13.5372 10.2015L13.6336 10.1484L13.758 10.2672L13.7091 10.3665L13.8027 10.4559L14.0263 9.97796L13.9103 9.86756L13.4436 10.1121L13.5372 10.2015ZM13.7999 10.1806L13.7161 10.1009L13.8838 10.0087L13.7985 10.1806H13.7999ZM14.0794 10.5467L13.9355 10.639L13.8712 10.5369L14.2932 10.2686L14.4036 10.4433C14.4609 10.5327 14.4525 10.6278 14.3603 10.6865C14.2988 10.7256 14.2415 10.7214 14.1926 10.6907L14.0878 10.8807L14.0165 10.7689L14.1115 10.5998L14.078 10.5481L14.0794 10.5467ZM14.1591 10.4964L14.1912 10.5467C14.215 10.5845 14.2485 10.6096 14.2918 10.5803C14.3365 10.5523 14.3295 10.5118 14.3058 10.4727L14.2736 10.4223L14.1591 10.495V10.4964ZM14.1744 11.068L14.1269 10.9478L14.6538 10.924L14.7124 11.0736L14.3086 11.4118L14.2611 11.2902L14.3463 11.2217L14.2834 11.061L14.1744 11.068ZM14.4218 11.1616L14.5713 11.0414L14.3799 11.054L14.4218 11.1616ZM14.5461 11.8058L14.5336 11.708L14.6202 11.6968L14.6482 11.9106L14.5825 11.919C14.4497 11.9358 14.3589 11.8561 14.3421 11.7276C14.3226 11.5739 14.4204 11.4746 14.5643 11.4565C14.7069 11.4383 14.8312 11.5082 14.8508 11.6591C14.8648 11.7625 14.8173 11.8687 14.711 11.8967L14.6957 11.7751C14.7376 11.7583 14.753 11.7192 14.7474 11.6759C14.7362 11.5892 14.6579 11.5683 14.5839 11.578C14.5084 11.5878 14.4371 11.627 14.4497 11.715C14.4567 11.7695 14.4875 11.8128 14.5489 11.8058H14.5461ZM14.834 12.4305L14.8187 12.5507L14.4986 12.5102C14.3757 12.4948 14.3281 12.3886 14.3421 12.2782C14.3561 12.1664 14.4274 12.0755 14.5503 12.0909L14.8704 12.1314L14.855 12.2516L14.5461 12.2125C14.493 12.2055 14.4525 12.239 14.4469 12.2922C14.4399 12.3439 14.4707 12.3858 14.5238 12.3928L14.8326 12.4319L14.834 12.4305ZM14.2583 12.7128L14.3002 12.5898L14.7166 12.9126L14.6635 13.0649L14.1367 13.0608L14.1786 12.9378L14.289 12.9406L14.3463 12.7771L14.2583 12.7114V12.7128ZM14.3868 12.9434L14.5783 12.949L14.4246 12.8344L14.3868 12.9434Z" fill="black"/>
<path fill-rule="evenodd" clip-rule="evenodd" d="M12.3871 9.66636L12.4989 9.17864L12.6163 9.2052L12.5268 9.59648L12.7294 9.6426L12.7071 9.73763L12.3871 9.66496V9.66636ZM11.55 9.68173L11.3683 9.71387L11.2817 9.22196L11.4633 9.18982C11.6185 9.16187 11.7233 9.24293 11.7498 9.39245C11.7764 9.54198 11.7051 9.65378 11.55 9.68173ZM11.4689 9.59229L11.5276 9.58251C11.6255 9.56574 11.645 9.50285 11.6296 9.41481C11.6143 9.32538 11.5737 9.27647 11.4745 9.29323L11.4172 9.30302L11.4689 9.59229ZM11.9133 9.63561L11.9273 9.13672L12.2753 9.1465L12.2725 9.24432L12.0447 9.23873L12.0419 9.34075L12.2515 9.34634L12.2487 9.44416L12.0391 9.43857L12.0363 9.54198L12.2641 9.54757L12.2613 9.64539L11.9133 9.63561Z" fill="black"/>
<path fill-rule="evenodd" clip-rule="evenodd" d="M10.6291 9.83681L10.7283 9.77952L10.5871 9.64955L10.6277 9.83681H10.6291ZM9.92055 13.4618L10.0645 13.3696L10.1288 13.4716L9.70674 13.7399L9.59634 13.5652C9.53904 13.4758 9.54743 13.3808 9.63826 13.3221C9.69975 13.283 9.75704 13.2871 9.80596 13.3179L9.91077 13.1278L9.98204 13.2396L9.88701 13.4087L9.92055 13.4604V13.4618ZM9.84089 13.5121L9.80875 13.4618C9.78499 13.4241 9.75145 13.3989 9.70813 13.4283C9.66341 13.4562 9.6704 13.4968 9.69416 13.5359L9.7263 13.5862L9.84089 13.5135V13.5121ZM9.86465 13.0412L9.73888 12.717L9.64804 12.7519L9.73049 12.9643L9.63407 13.0021L9.55861 12.8064L9.46777 12.8428L9.54323 13.0384L9.44821 13.0761L9.36575 12.8637L9.27492 12.8987L9.40069 13.2229L9.86605 13.0412H9.86465ZM9.52926 12.5046L9.68158 12.4766L9.70254 12.5954L9.21064 12.6834L9.1743 12.4808C9.15474 12.376 9.20644 12.2894 9.31265 12.2712C9.42165 12.2516 9.49572 12.3173 9.51389 12.4235L9.52786 12.5046H9.52926ZM9.43563 12.5213L9.42445 12.4626C9.41606 12.4137 9.38392 12.3858 9.33501 12.3942C9.2847 12.4026 9.26654 12.4403 9.27492 12.4892L9.2861 12.5479L9.43563 12.5213ZM9.14076 11.7863L9.14496 11.6661L9.46637 11.6759C9.58935 11.6801 9.64665 11.7793 9.64385 11.8925C9.64106 12.0071 9.57677 12.1021 9.4538 12.0979L9.13098 12.0881L9.13517 11.9679L9.44681 11.9777C9.49991 11.9791 9.53764 11.9428 9.53904 11.8897C9.54044 11.8366 9.5055 11.7975 9.4524 11.7961L9.14076 11.7863ZM9.66761 11.5543L9.18688 11.4187L9.24418 11.2189C9.26654 11.1392 9.31964 11.0638 9.41187 11.0889C9.46777 11.1043 9.49432 11.1532 9.49013 11.2077H9.49432C9.51528 11.1462 9.57677 11.1155 9.64106 11.1337C9.73608 11.1602 9.75145 11.2552 9.7277 11.3391L9.66621 11.5543H9.66761ZM9.41746 11.3586L9.43563 11.2944C9.44541 11.2608 9.43842 11.2245 9.40069 11.2133C9.36436 11.2035 9.3406 11.2287 9.33082 11.2622L9.31265 11.3279L9.41746 11.3573V11.3586ZM9.60752 11.4118L9.62848 11.3405C9.63826 11.3041 9.63826 11.2636 9.59494 11.251C9.55302 11.2399 9.52507 11.2678 9.51389 11.3055L9.49292 11.3796L9.60752 11.4118ZM9.82133 11.0722L9.96946 10.7787L9.88142 10.734L9.78779 10.9198L9.43004 10.7396L9.37554 10.8472L9.82133 11.0722ZM9.69556 10.3008L10.1036 10.5886L10.0337 10.6865L9.62568 10.3986L9.69556 10.3008ZM10.2783 9.93603C10.2559 9.91647 10.2322 9.9025 10.207 9.89411C10.126 9.86616 10.0477 9.89691 9.98902 9.9542C9.92614 10.0143 9.89819 10.0953 9.92195 10.1806C9.9443 10.2658 10.0309 10.3553 10.1148 10.3818C10.2 10.4098 10.2811 10.3846 10.344 10.3245C10.4055 10.2658 10.4362 10.1848 10.4097 10.0995C10.4027 10.0772 10.3915 10.0562 10.3789 10.0394L10.2909 10.1233C10.2979 10.1331 10.3021 10.1443 10.3048 10.154C10.3132 10.1904 10.2993 10.2211 10.2727 10.2463C10.2378 10.2798 10.1972 10.2868 10.1525 10.2686C10.1078 10.2491 10.0561 10.196 10.0379 10.1498C10.0198 10.1051 10.0282 10.0618 10.0645 10.0283C10.091 10.0031 10.1246 9.99054 10.1609 10.0031C10.1721 10.0073 10.1819 10.0129 10.1917 10.0213L10.2797 9.93743L10.2783 9.93603ZM10.7982 9.8452L10.6486 9.93044L10.6724 10.038L10.5592 10.1023L10.4572 9.58527L10.5969 9.50562L10.991 9.85498L10.8778 9.91926L10.7968 9.8452H10.7982Z" fill="black"/>
</g>
</g>
<rect x="0.25" y="0.25" width="23.5" height="23.5" rx="11.75" stroke="#E5E3E1" stroke-width="0.5"/>
<defs>
<clipPath id="clip0_16335_4558">
<rect width="24" height="24" rx="12" fill="white"/>
</clipPath>
</defs>
</svg>
