<svg width="48" height="48" viewBox="0 0 48 48" fill="none" xmlns="http://www.w3.org/2000/svg">
<path d="M8.58984 24.6602H10.2798C11.4198 24.6602 12.3498 25.5902 12.3498 26.7302V39.0202C12.3498 40.1602 11.4198 41.0902 10.2798 41.0902H8.58984V24.6602Z" fill="#8DE2E0"/>
<path d="M40.4883 24.6602H42.1783C43.3183 24.6602 44.2483 25.5902 44.2483 26.7302V39.0202C44.2483 40.1602 43.3183 41.0902 42.1783 41.0902H40.4883V24.6602Z" fill="#8DE2E0"/>
<path d="M42.07 23.6604H41.64C41.16 13.6304 33.6 5.90039 24 5.90039C14.4 5.90039 6.84 13.6304 6.36 23.6604H5.93C4.18 23.6604 2.75 25.0904 2.75 26.8404V38.7504C2.75 40.5004 4.18 41.9304 5.93 41.9304H10.16C11.91 41.9304 13.34 40.5004 13.34 38.7504V26.8404C13.34 25.0904 11.91 23.6604 10.16 23.6604H8.35C8.82 14.7504 15.51 7.90039 23.99 7.90039C32.47 7.90039 39.16 14.7504 39.63 23.6604H37.82C36.07 23.6604 34.64 25.0904 34.64 26.8404V38.7504C34.64 40.5004 36.07 41.9304 37.82 41.9304H42.05C43.8 41.9304 45.23 40.5004 45.23 38.7504V26.8404C45.23 25.0904 43.8 23.6604 42.05 23.6604H42.07ZM11.35 26.8404V38.7504C11.35 39.4004 10.82 39.9304 10.17 39.9304H5.94C5.29 39.9304 4.76 39.4004 4.76 38.7504V26.8404C4.76 26.1904 5.29 25.6604 5.94 25.6604H10.17C10.82 25.6604 11.35 26.1904 11.35 26.8404ZM43.25 38.7604C43.25 39.4104 42.72 39.9404 42.07 39.9404H37.84C37.19 39.9404 36.66 39.4104 36.66 38.7604V26.8504C36.66 26.2004 37.19 25.6704 37.84 25.6704H42.07C42.72 25.6704 43.25 26.2004 43.25 26.8504V38.7604Z" fill="#323232"/>
</svg>
