<svg width="48" height="48" viewBox="0 0 48 48" fill="none" xmlns="http://www.w3.org/2000/svg">
<path d="M29.5591 35.6398C31.5971 35.6398 33.2491 33.9877 33.2491 31.9498C33.2491 29.9118 31.5971 28.2598 29.5591 28.2598C27.5212 28.2598 25.8691 29.9118 25.8691 31.9498C25.8691 33.9877 27.5212 35.6398 29.5591 35.6398Z" fill="#DF0000"/>
<path d="M42.6999 30.95H38.3499C37.9999 27.92 36.1099 25.26 33.3699 23.98V14.35C33.3699 7.4 27.7199 1.75 20.7699 1.75H18.5199C11.5699 1.75 5.91992 7.4 5.91992 14.35V21.1C5.91992 21.65 6.36992 22.1 6.91992 22.1H12.0199C12.5699 22.1 13.0199 21.65 13.0199 21.1V14.35C13.0199 11.32 15.4899 8.85 18.5199 8.85H20.7699C23.7999 8.85 26.2699 11.32 26.2699 14.35V23.73C23.8299 24.7 21.9199 26.72 21.1099 29.26C20.8299 30.11 20.6899 31.01 20.6899 31.95C20.6899 34.83 22.0699 37.38 24.1999 39.01V44.26H19.8899C19.3399 44.26 18.8899 44.71 18.8899 45.26C18.8899 45.81 19.3399 46.26 19.8899 46.26H39.2099C39.7599 46.26 40.2099 45.81 40.2099 45.26C40.2099 44.71 39.7599 44.26 39.2099 44.26H35.4699V38.55C37.0399 37.13 38.1099 35.17 38.3599 32.96H42.6899C43.2399 32.96 43.6899 32.51 43.6899 31.96C43.6899 31.41 43.2399 30.96 42.6899 30.96L42.6999 30.95ZM20.7799 6.85H18.5299C14.3999 6.85 11.0299 10.21 11.0299 14.35V20.1H7.92992V14.35C7.92992 8.51 12.6899 3.75 18.5299 3.75H20.7799C26.6199 3.75 31.3799 8.51 31.3799 14.35V23.27C30.7999 23.15 30.1999 23.08 29.5699 23.08C29.1299 23.08 28.6899 23.11 28.2699 23.17V14.35C28.2699 10.22 24.9099 6.85 20.7699 6.85H20.7799ZM33.4799 44.25H26.2099V40.16C27.2499 40.59 28.3799 40.82 29.5699 40.82C30.9799 40.82 32.2999 40.48 33.4799 39.9V44.25ZM29.5699 38.82C25.7799 38.82 22.6999 35.74 22.6999 31.95C22.6999 31.23 22.8099 30.54 23.0199 29.88C23.6899 27.76 25.3399 26.09 27.4399 25.43C27.4899 25.41 27.5299 25.4 27.5799 25.38C28.2099 25.18 28.8799 25.08 29.5799 25.08C30.4499 25.08 31.2599 25.23 32.0399 25.55C34.6699 26.54 36.4399 29.11 36.4399 31.95C36.4399 35.74 33.3599 38.82 29.5799 38.82H29.5699Z" fill="#323232"/>
<path d="M14.3308 33.3701L13.9508 32.4001C12.7408 29.4401 10.3808 26.3501 10.2808 26.2201C10.0908 25.9801 9.80078 25.8301 9.49078 25.8301C9.18078 25.8501 8.89078 25.9701 8.70078 26.2101C8.59078 26.3501 5.97078 29.6801 4.83078 32.8301L4.65078 33.3301C4.42078 33.9301 4.30078 34.5501 4.30078 35.1901C4.30078 38.0501 6.63078 40.3801 9.49078 40.3801C12.3508 40.3801 14.6808 38.0501 14.6808 35.1901C14.6808 34.5801 14.5708 33.9701 14.3408 33.3801C14.3408 33.3801 14.3408 33.3801 14.3408 33.3701H14.3308ZM9.48078 38.3701C7.72078 38.3701 6.29078 36.9401 6.29078 35.1801C6.29078 34.7901 6.36078 34.4101 6.51078 34.0301L6.70078 33.5101C7.36078 31.6801 8.63078 29.7101 9.46078 28.5201C10.2308 29.6401 11.3808 31.4401 12.0808 33.1401L12.4608 34.0901C12.6008 34.4501 12.6608 34.8201 12.6608 35.1801C12.6608 36.9401 11.2308 38.3701 9.47078 38.3701H9.48078Z" fill="#323232"/>
</svg>
