<svg width="48" height="48" viewBox="0 0 48 48" fill="none" xmlns="http://www.w3.org/2000/svg">
<path d="M20.3203 26.3398C19.7703 26.3398 19.3203 25.8898 19.3203 25.3398C19.3203 24.7898 19.7703 24.3398 20.3203 24.3398H27.6903C28.2403 24.3398 28.6903 24.7798 28.6903 25.3398C28.6903 25.8998 28.2403 26.3398 27.6903 26.3398H20.3203Z" fill="#DF0000"/>
<path d="M39.2585 18.01C39.3785 17.38 38.1985 16.26 37.0385 16.45C36.4485 16.55 35.8585 16.98 35.6285 17.51L33.8185 14.92C33.1985 14.03 32.1785 13.5 31.0785 13.5H16.8985C15.7985 13.5 14.7785 14.04 14.1585 14.93L12.3785 17.49C12.1385 16.97 11.5585 16.55 10.9785 16.45C9.80851 16.26 8.63851 17.38 8.75851 18.01C8.86851 18.63 10.2785 19.1 11.3285 19.01L10.2485 20.56C10.2485 20.56 10.2085 20.66 10.1885 20.7C9.82851 21.22 9.62851 21.82 9.62851 22.46V28.21C9.62851 29.55 10.4985 30.7 11.7385 31.2V33.24C11.7385 34.24 12.5485 35.05 13.5485 35.05H15.8385C16.8385 35.05 17.6485 34.24 17.6485 33.24V31.46H30.5985V32.85C30.5985 34.09 31.3985 35.06 32.4085 35.06H34.6985C35.7185 35.06 36.5085 34.09 36.5085 32.85V31.08C37.6285 30.54 38.3985 29.46 38.3985 28.21V22.46C38.3985 21.78 38.1685 21.13 37.7585 20.59C37.7585 20.59 37.7585 20.57 37.7485 20.56L36.6785 19.02C37.7285 19.12 39.1585 18.64 39.2685 18.02L39.2585 18.01ZM15.7885 16.07C16.0385 15.72 16.4485 15.51 16.8885 15.51H31.0685C31.5085 15.51 31.9185 15.72 32.1685 16.07L34.3585 19.21H13.6085L15.7885 16.08V16.07ZM11.6085 22.46C11.6085 22.14 11.7485 21.84 12.0085 21.61C12.2885 21.35 12.6685 21.21 13.0785 21.21H34.9085C35.3185 21.21 35.6985 21.35 35.9785 21.61C36.2385 21.84 36.3785 22.15 36.3785 22.46V28.21C36.3785 28.9 35.7185 29.46 34.9085 29.46H13.0885C12.2785 29.46 11.6185 28.9 11.6185 28.21V22.46H11.6085ZM15.6385 33.06H13.7185V31.46H15.6385V33.06ZM34.4685 33.06H32.6085C32.6085 33.06 32.5785 32.94 32.5785 32.86V31.46H34.4985V32.85C34.4985 32.94 34.4785 33.01 34.4685 33.06Z" fill="#323232"/>
<path d="M15.6386 26.9198C16.5086 26.9198 17.2186 26.2098 17.2186 25.3398C17.2186 24.4698 16.5086 23.7598 15.6386 23.7598C14.7686 23.7598 14.0586 24.4698 14.0586 25.3398C14.0586 26.2098 14.7686 26.9198 15.6386 26.9198Z" fill="#323232"/>
<path d="M32.5898 26.5897C33.4598 26.5897 34.1698 25.8797 34.1698 25.0097C34.1698 24.1397 33.4598 23.4297 32.5898 23.4297C31.7198 23.4297 31.0098 24.1397 31.0098 25.0097C31.0098 25.8797 31.7198 26.5897 32.5898 26.5897Z" fill="#323232"/>
<path d="M22.2895 39.1097C21.8695 38.7497 21.2395 38.7897 20.8795 39.2097C20.5195 39.6297 20.5595 40.2597 20.9795 40.6197L22.4695 41.9197C13.2295 41.1397 5.93945 33.3797 5.93945 23.9397C5.93945 15.3997 11.9995 7.95975 20.3595 6.24975C20.8995 6.13975 21.2495 5.60975 21.1395 5.06975C21.0295 4.52975 20.4995 4.17975 19.9595 4.28975C10.6795 6.17975 3.93945 14.4397 3.93945 23.9297C3.93945 34.5397 12.2195 43.2197 22.6495 43.9197L21.2995 45.4597C20.9395 45.8797 20.9795 46.5097 21.3995 46.8697C21.5895 47.0397 21.8195 47.1197 22.0595 47.1197C22.3395 47.1197 22.6195 46.9997 22.8095 46.7797L25.7295 43.4297C26.0895 43.0098 26.0495 42.3797 25.6295 42.0197L22.2795 39.0997L22.2895 39.1097Z" fill="#323232"/>
<path d="M25.5093 3.94962L26.7393 2.53962C27.0993 2.11962 27.0593 1.48962 26.6393 1.12962C26.2193 0.76962 25.5893 0.80962 25.2293 1.22962L22.3093 4.57962C21.9493 4.99962 21.9893 5.62962 22.4093 5.98962L25.7593 8.90962C25.9493 9.07962 26.1793 9.15962 26.4193 9.15962C26.6993 9.15962 26.9793 9.03962 27.1693 8.81962C27.5293 8.39962 27.4893 7.76962 27.0693 7.40962L25.4093 5.95962C34.7093 6.68962 42.0493 14.4696 42.0493 23.9496C42.0493 32.5196 35.9593 39.9696 27.5693 41.6596C27.0293 41.7696 26.6793 42.2996 26.7893 42.8396C26.8893 43.3196 27.2993 43.6396 27.7693 43.6396C27.8393 43.6396 27.8993 43.6396 27.9693 43.6196C37.2893 41.7396 44.0493 33.4696 44.0493 23.9496C44.0493 13.3996 35.8593 4.73962 25.4993 3.95962L25.5093 3.94962Z" fill="#323232"/>
</svg>
