<svg width="48" height="48" viewBox="0 0 48 48" fill="none" xmlns="http://www.w3.org/2000/svg">
<path d="M23.2102 41.69C24.4584 41.69 25.4702 40.6781 25.4702 39.43C25.4702 38.1818 24.4584 37.17 23.2102 37.17C21.962 37.17 20.9502 38.1818 20.9502 39.43C20.9502 40.6781 21.962 41.69 23.2102 41.69Z" fill="#8DE2E0"/>
<path d="M30.1199 25.01C29.5699 25.01 29.1199 25.46 29.1199 26.01V28.71C29.1199 29.54 28.5499 30.22 27.7799 30.42L27.5199 29.22C27.3999 28.68 26.8699 28.33 26.3299 28.45C25.7899 28.57 25.4499 29.1 25.5599 29.64L28.3499 42.69C28.3999 42.93 28.2999 43.1 28.2299 43.18C28.1599 43.26 28.0199 43.4 27.7799 43.4H18.6199C18.3799 43.4 18.2299 43.26 18.1699 43.18C18.0999 43.1 17.9999 42.93 18.0499 42.69L19.3499 36.63C19.4699 36.09 19.1199 35.56 18.5799 35.44C18.0399 35.32 17.5099 35.67 17.3899 36.21L16.0899 42.27C15.9299 43.04 16.1099 43.82 16.6099 44.43C17.0999 45.04 17.8299 45.39 18.6199 45.39H27.7799C28.5599 45.39 29.2899 45.04 29.7899 44.43C30.2799 43.82 30.4699 43.03 30.3099 42.27L28.1999 32.38C29.8699 31.99 31.1199 30.5 31.1199 28.72V26.02C31.1199 25.47 30.6699 25.02 30.1199 25.02V25.01Z" fill="#323232"/>
<path d="M26.4702 39.43C26.4702 37.63 25.0102 36.17 23.2102 36.17C21.4102 36.17 19.9502 37.63 19.9502 39.43C19.9502 41.23 21.4102 42.69 23.2102 42.69C25.0102 42.69 26.4702 41.23 26.4702 39.43ZM21.9502 39.43C21.9502 38.74 22.5102 38.17 23.2102 38.17C23.9102 38.17 24.4702 38.73 24.4702 39.43C24.4702 40.13 23.9102 40.69 23.2102 40.69C22.5102 40.69 21.9502 40.13 21.9502 39.43Z" fill="#323232"/>
<path d="M26.4195 10.88C26.7295 10.88 27.0295 10.74 27.2295 10.47C27.6595 9.88998 28.1195 9.32998 28.6195 8.81998C29.0095 8.41998 28.9995 7.78998 28.5995 7.40998C28.1995 7.01998 27.5695 7.02998 27.1895 7.42998C26.6295 8.00998 26.0995 8.63998 25.6195 9.28998C25.2895 9.73998 25.3895 10.36 25.8395 10.69C26.0195 10.82 26.2195 10.88 26.4295 10.88H26.4195Z" fill="#323232"/>
<path d="M23.7202 15.53C23.8202 15.56 23.9302 15.58 24.0302 15.58C24.4502 15.58 24.8402 15.31 24.9802 14.89C25.2002 14.2 25.4702 13.53 25.7802 12.88C26.0202 12.38 25.8102 11.78 25.3202 11.54C24.8202 11.3 24.2302 11.51 23.9802 12C23.6302 12.73 23.3202 13.49 23.0702 14.26C22.9002 14.79 23.1902 15.35 23.7102 15.52L23.7202 15.53Z" fill="#323232"/>
<path d="M30.1801 7.16997C30.3801 7.16997 30.5801 7.10997 30.7601 6.98997C31.3501 6.56997 31.9701 6.19997 32.6001 5.87997C33.0901 5.62997 33.2901 5.02997 33.0401 4.53997C32.7901 4.04997 32.1901 3.84997 31.7001 4.09997C30.9801 4.46997 30.2701 4.88997 29.6101 5.35997C29.1601 5.67997 29.0501 6.29997 29.3701 6.74997C29.5601 7.02997 29.8701 7.16997 30.1901 7.16997H30.1801Z" fill="#323232"/>
<path d="M34.9402 4.89997C35.0302 4.89997 35.1202 4.88997 35.2102 4.85997C35.9002 4.66997 36.6102 4.51997 37.3202 4.42997C37.8702 4.35997 38.2502 3.85997 38.1802 3.30997C38.1102 2.75997 37.6002 2.38997 37.0602 2.44997C36.2502 2.55997 35.4502 2.71997 34.6702 2.93997C34.1402 3.08997 33.8302 3.63997 33.9802 4.16997C34.1002 4.60997 34.5102 4.89997 34.9402 4.89997Z" fill="#323232"/>
<path d="M11.5094 4.98997C12.2094 5.11997 12.9094 5.30997 13.5894 5.53997C13.6994 5.57997 13.8094 5.59997 13.9194 5.59997C14.3294 5.59997 14.7194 5.33997 14.8594 4.92997C15.0394 4.40997 14.7694 3.83997 14.2394 3.65997C13.4694 3.38997 12.6794 3.17997 11.8794 3.02997C11.3394 2.92997 10.8094 3.27997 10.7094 3.82997C10.6094 4.36997 10.9594 4.89997 11.5094 4.99997V4.98997Z" fill="#323232"/>
<path d="M16.1396 6.70997C16.7596 7.06997 17.3596 7.47997 17.9196 7.91997C18.0996 8.06997 18.3196 8.13997 18.5396 8.13997C18.8296 8.13997 19.1296 8.00997 19.3196 7.75997C19.6596 7.32997 19.5896 6.69997 19.1596 6.34997C18.5196 5.84997 17.8396 5.37997 17.1396 4.97997C16.6596 4.69997 16.0496 4.85997 15.7696 5.33997C15.4896 5.81997 15.6496 6.42997 16.1296 6.70997H16.1396Z" fill="#323232"/>
<path d="M21.2502 11.59C21.4402 11.88 21.7602 12.05 22.0902 12.05C22.2802 12.05 22.4702 12 22.6302 11.89C23.0902 11.59 23.2202 10.97 22.9202 10.51C22.4802 9.82997 21.9802 9.16997 21.4502 8.55997C21.0902 8.13997 20.4602 8.09997 20.0402 8.45997C19.6202 8.81997 19.5802 9.44997 19.9402 9.86997C20.4102 10.41 20.8502 10.99 21.2402 11.59H21.2502Z" fill="#323232"/>
<path d="M43.2399 9.96997C42.8699 9.55997 42.2299 9.53997 41.8299 9.90997L30.3899 20.44C29.8099 19.47 28.7599 18.91 27.3599 18.91H24.2499C24.2699 18.48 24.3099 18.05 24.3699 17.63C24.4399 17.08 24.0599 16.58 23.5099 16.51C22.9699 16.44 22.4599 16.82 22.3899 17.37C22.3199 17.88 22.2799 18.4 22.2599 18.91H19.8399C17.7599 18.91 16.0699 20.6 16.0699 22.68V28.71C16.0699 30.08 16.8099 31.27 17.9099 31.93L4.83987 43.95C4.42987 44.32 4.40987 44.96 4.77987 45.36C4.97987 45.57 5.24987 45.68 5.51987 45.68C5.75987 45.68 5.99987 45.59 6.19987 45.42L43.1799 11.39C43.5899 11.02 43.6099 10.38 43.2399 9.97997V9.96997ZM20.9599 29.11L21.2699 27.65C21.3299 27.38 21.5699 27.19 21.8399 27.19H23.0399L20.9499 29.11H20.9599ZM18.0499 22.68C18.0499 21.71 18.8399 20.91 19.8199 20.91H27.3499C28.4199 20.91 28.7199 21.37 28.8299 21.87L25.1499 25.26C24.9599 25.22 24.7699 25.19 24.5799 25.19H21.8499C20.6399 25.19 19.5799 26.05 19.3299 27.23L18.7199 30.08C18.3199 29.76 18.0599 29.27 18.0599 28.71V22.68H18.0499Z" fill="#323232"/>
</svg>
