<svg width="24" height="24" viewBox="0 0 24 24" fill="none" xmlns="http://www.w3.org/2000/svg">
<g clip-path="url(#clip0_16335_6843)">
<path d="M23.6789 14.7568C25.2013 8.30659 21.2066 1.84354 14.7564 0.321152C8.30617 -1.20123 1.84311 2.79355 0.320729 9.24374C-1.20165 15.6939 2.79312 22.157 9.24332 23.6794C15.6935 25.2018 22.1566 21.207 23.6789 14.7568Z" fill="white"/>
<mask id="mask0_16335_6843" style="mask-type:luminance" maskUnits="userSpaceOnUse" x="-1" y="-1" width="26" height="26">
<path d="M23.6789 14.7568C25.2013 8.30659 21.2066 1.84354 14.7564 0.321152C8.30617 -1.20123 1.84311 2.79355 0.320729 9.24374C-1.20165 15.6939 2.79312 22.157 9.24332 23.6794C15.6935 25.2018 22.1566 21.207 23.6789 14.7568Z" fill="white"/>
</mask>
<g mask="url(#mask0_16335_6843)">
<path d="M29.9993 0H-6.00073V8.00047H29.9993V0Z" fill="#0072FE"/>
<path d="M29.9993 15.9995H-6.00073V24H29.9993V15.9995Z" fill="#0072FE"/>
<path d="M29.9993 8.00049H-6.00073V16.001H29.9993V8.00049Z" fill="white"/>
<path fill-rule="evenodd" clip-rule="evenodd" d="M11.9986 10.8121L12.2935 11.7219L13.2493 11.7205L12.4751 12.2809L12.7714 13.1878L11.9986 12.6246L11.2272 13.1878L11.5235 12.2809L10.7493 11.7205L11.7051 11.7219L11.9986 10.8121Z" fill="#0072FE"/>
<path fill-rule="evenodd" clip-rule="evenodd" d="M5.35785 8.81384L5.65132 9.72359L6.60718 9.72219L5.83299 10.2826L6.13065 11.1909L5.35785 10.6277L4.58506 11.1909L4.88132 10.2826L4.10852 9.72219L5.06438 9.72359L5.35785 8.81384Z" fill="#0072FE"/>
<path fill-rule="evenodd" clip-rule="evenodd" d="M5.35785 12.8105L5.65132 13.7189L6.60718 13.7175L5.83299 14.2779L6.13065 15.1862L5.35785 14.6231L4.58506 15.1862L4.88132 14.2779L4.10852 13.7175L5.06438 13.7189L5.35785 12.8105Z" fill="#0072FE"/>
<path fill-rule="evenodd" clip-rule="evenodd" d="M18.6407 8.81384L18.9342 9.72359L19.89 9.72219L19.1172 10.2826L19.4135 11.1909L18.6407 10.6277L17.8679 11.1909L18.1656 10.2826L17.3914 9.72219L18.3472 9.72359L18.6407 8.81384Z" fill="#0072FE"/>
<path fill-rule="evenodd" clip-rule="evenodd" d="M18.6407 12.8105L18.9342 13.7189L19.89 13.7175L19.1172 14.2779L19.4135 15.1862L18.6407 14.6231L17.8679 15.1862L18.1656 14.2779L17.3914 13.7175L18.3472 13.7189L18.6407 12.8105Z" fill="#0072FE"/>
</g>
</g>
<rect x="0.25" y="0.25" width="23.5" height="23.5" rx="11.75" stroke="#E5E3E1" stroke-width="0.5"/>
<defs>
<clipPath id="clip0_16335_6843">
<rect width="24" height="24" rx="12" fill="white"/>
</clipPath>
</defs>
</svg>
