<svg width="48" height="48" viewBox="0 0 48 48" fill="none" xmlns="http://www.w3.org/2000/svg">
<path d="M43.43 32.56C43.43 32.56 43.47 32.48 43.49 32.44C44.62 29.85 45.25 27 45.25 24C45.25 21 44.62 18.15 43.49 15.56C43.47 15.52 43.45 15.48 43.43 15.44C40.13 7.98 32.67 2.75 23.99 2.75C15.31 2.75 7.88 7.97 4.57 15.43C4.54 15.48 4.52 15.52 4.5 15.57C3.38 18.16 2.75 21.01 2.75 24C2.75 26.99 3.38 29.84 4.5 32.43C4.52 32.48 4.54 32.53 4.57 32.58C7.87 40.02 15.31 45.24 23.97 45.25C23.97 45.25 23.99 45.25 24 45.25H24.02C32.68 45.25 40.13 40.02 43.43 32.56ZM4.75 24C4.75 21.49 5.25 19.1 6.12 16.9H12.8C12.37 19.11 12.13 21.49 12.13 24C12.13 26.51 12.37 28.89 12.8 31.1H6.12C5.24 28.9 4.75 26.51 4.75 24ZM14.13 24C14.13 21.51 14.39 19.11 14.86 16.9H23V31.1H14.86C14.39 28.89 14.13 26.49 14.13 24ZM25 4.85C28.26 5.53 31.11 9.46 32.65 14.9H25V4.85ZM23 4.85V14.9H15.35C16.89 9.46 19.74 5.53 23 4.85ZM23 33.1V43.15C19.74 42.47 16.89 38.54 15.35 33.1H23ZM25 43.15V33.1H32.65C31.11 38.54 28.26 42.47 25 43.15ZM25 31.1V16.9H33.14C33.61 19.11 33.87 21.51 33.87 24C33.87 26.49 33.61 28.89 33.14 31.1H25ZM35.2 16.9H41.88C42.76 19.1 43.25 21.49 43.25 24C43.25 26.51 42.75 28.9 41.88 31.1H35.2C35.63 28.89 35.87 26.51 35.87 24C35.87 21.49 35.63 19.11 35.2 16.9ZM40.96 14.9H34.75C33.76 11.08 32.17 7.92 30.17 5.78C34.81 7.36 38.67 10.64 40.96 14.9ZM17.83 5.78C15.83 7.92 14.24 11.08 13.25 14.9H7.04C9.33 10.64 13.19 7.36 17.83 5.78ZM7.04 33.1H13.25C14.24 36.92 15.83 40.07 17.83 42.22C13.19 40.64 9.34 37.36 7.05 33.1H7.04ZM30.17 42.22C32.17 40.08 33.76 36.92 34.75 33.1H40.96C38.67 37.36 34.81 40.64 30.17 42.22Z" fill="#323232"/>
</svg>
