<svg width="48" height="48" viewBox="0 0 48 48" fill="none" xmlns="http://www.w3.org/2000/svg">
<path d="M16.1113 23.7898C16.6613 23.7898 17.1113 23.3398 17.1113 22.7898V11.3198C17.1113 10.7698 16.6613 10.3198 16.1113 10.3198C15.5613 10.3198 15.1113 10.7698 15.1113 11.3198V22.7898C15.1113 23.3398 15.5613 23.7898 16.1113 23.7898Z" fill="#323232"/>
<path d="M22.3301 23.7899C22.8801 23.7899 23.3301 23.3399 23.3301 22.7899V14.3599C23.3301 13.8099 22.8801 13.3599 22.3301 13.3599C21.7801 13.3599 21.3301 13.8099 21.3301 14.3599V22.7899C21.3301 23.3399 21.7801 23.7899 22.3301 23.7899Z" fill="#323232"/>
<path d="M9.90039 23.7899C10.4504 23.7899 10.9004 23.3399 10.9004 22.7899V14.3599C10.9004 13.8099 10.4504 13.3599 9.90039 13.3599C9.35039 13.3599 8.90039 13.8099 8.90039 14.3599V22.7899C8.90039 23.3399 9.35039 23.7899 9.90039 23.7899Z" fill="#323232"/>
<path d="M45.6805 23.9998C45.3004 23.5498 44.7605 23.3098 44.1805 23.3298C38.5304 23.5198 33.5305 24.6798 30.3505 26.4498C30.3905 26.1698 30.3204 25.8898 30.1404 25.6698C29.9504 25.4398 29.6705 25.3098 29.3705 25.3098H2.88045C2.58045 25.3098 2.30045 25.4398 2.11045 25.6698C1.92045 25.8998 1.84045 26.1998 1.90045 26.4898C1.90045 26.5298 2.70045 30.8098 3.22045 33.1498C3.83045 35.8998 6.20045 37.6798 9.26045 37.6798H22.9904C26.0504 37.6798 28.4205 35.8998 29.0305 33.1498C29.0605 33.0098 29.1004 32.8298 29.1304 32.6798C31.4504 30.6198 36.8604 28.3798 43.6704 28.1498C44.7904 28.1098 45.7304 27.3298 45.9604 26.2498L46.0905 25.6298C46.2104 25.0498 46.0605 24.4598 45.6805 24.0098V23.9998ZM27.9205 28.4998C27.7204 29.5298 27.4804 30.7398 27.2705 31.7798C27.2205 31.8998 27.1905 32.0298 27.1905 32.1598C27.1504 32.3498 27.1105 32.5498 27.0704 32.7198C26.6604 34.5798 25.1304 35.6898 22.9804 35.6898H9.25045C7.10045 35.6898 5.57045 34.5798 5.16045 32.7198C4.82045 31.1698 4.35045 28.7498 4.08045 27.3098H28.1504C28.0805 27.6598 28.0105 28.0598 27.9205 28.4998ZM44.0005 25.8298C43.9604 26.0098 43.8004 26.1398 43.6004 26.1398C37.7004 26.3398 32.8004 27.9398 29.7104 29.7998C29.7505 29.5998 29.7904 29.3998 29.8204 29.2098C32.2505 27.0698 37.7804 25.5598 44.1004 25.3298L44.0005 25.8298Z" fill="#323232"/>
<path d="M5.91992 31.4902C5.98992 31.8502 6.06992 32.1902 6.12992 32.4902C6.43992 33.8802 7.56992 34.6702 9.23992 34.6702H22.9699C24.6399 34.6702 25.7799 33.8702 26.0799 32.4902C26.1499 32.1802 26.2199 31.8402 26.2999 31.4902H5.91992Z" fill="#DF0000"/>
</svg>
