<svg width="24" height="24" viewBox="0 0 24 24" fill="none" xmlns="http://www.w3.org/2000/svg">
<g clip-path="url(#clip0_16335_12062)">
<path d="M12.6632 23.9818C19.2805 23.6153 24.3477 17.9539 23.9812 11.3366C23.6147 4.71932 17.9533 -0.347943 11.336 0.0185443C4.71873 0.385032 -0.348533 6.04649 0.0179548 12.6638C0.384442 19.281 6.0459 24.3483 12.6632 23.9818Z" fill="white"/>
<mask id="mask0_16335_12062" style="mask-type:luminance" maskUnits="userSpaceOnUse" x="-1" y="0" width="25" height="25">
<path d="M12.6632 23.9818C19.2805 23.6153 24.3477 17.9539 23.9812 11.3366C23.6147 4.71932 17.9533 -0.347943 11.336 0.0185443C4.71873 0.385032 -0.348533 6.04649 0.0179548 12.6638C0.384442 19.281 6.0459 24.3483 12.6632 23.9818Z" fill="white"/>
</mask>
<g mask="url(#mask0_16335_12062)">
<path d="M29.9993 0H-6.00067V24H29.9993V0Z" fill="#FFFF00"/>
<path d="M5.99933 0H-6.00067V24H5.99933V0Z" fill="#003399"/>
<path d="M17.9993 0H5.99933V24H17.9993V0Z" fill="#FED700"/>
<path d="M30.0007 0H18.0007V24H30.0007V0Z" fill="#003399"/>
<path fill-rule="evenodd" clip-rule="evenodd" d="M13.6686 9.21068C12.8385 8.41133 12.2446 7.36883 12.0001 6.19775C11.7555 7.36883 11.1616 8.41133 10.3315 9.21068C10.699 9.10168 11.0819 9.02761 11.476 8.99128V13.5861C11.0428 13.6029 10.6096 13.6392 10.1792 13.6951C9.9933 12.0601 9.52235 10.5131 8.81943 9.10308C9.08215 9.11845 9.34068 9.15199 9.59223 9.2009C8.82642 8.52313 7.88173 8.0424 6.83783 7.83837C8.27582 9.84653 9.14644 12.2865 9.21631 14.9263C9.94858 14.7642 10.7032 14.6636 11.476 14.6328V17.7995H12.5241V14.6328C13.2969 14.665 14.0529 14.7642 14.7838 14.9263C14.8537 12.2865 15.7257 9.84513 17.1623 7.83837C16.1184 8.04101 15.1737 8.52173 14.4079 9.2009C14.6608 9.15199 14.918 9.11845 15.1807 9.10308C14.4764 10.5117 14.0068 12.0587 13.8209 13.6951C13.3905 13.6378 12.9587 13.6015 12.5241 13.5861V8.99128C12.9182 9.02622 13.3011 9.10028 13.6686 9.21068Z" fill="black"/>
</g>
</g>
<rect x="0.25" y="0.25" width="23.5" height="23.5" rx="11.75" stroke="#E5E3E1" stroke-width="0.5"/>
<defs>
<clipPath id="clip0_16335_12062">
<rect width="24" height="24" rx="12" fill="white"/>
</clipPath>
</defs>
</svg>
