<svg width="48" height="48" viewBox="0 0 48 48" fill="none" xmlns="http://www.w3.org/2000/svg">
<path d="M18.2096 15.6104L23.9796 18.1004L29.7896 15.6104V20.5804L33.9896 23.9404L29.6996 27.3204L29.8396 32.2104L23.9796 29.7204L18.2096 32.2104V27.3404L14.0596 23.9404L18.2096 20.6104V15.6104Z" fill="#8DE2E0"/>
<path d="M43.7897 34.3996L37.8497 30.9196L41.8397 27.9196C42.2797 27.5896 42.3697 26.9596 42.0397 26.5196C41.7097 26.0796 41.0797 25.9896 40.6397 26.3196L35.9897 29.8196L31.4897 27.1896L34.6197 24.7296C34.8597 24.5396 34.9997 24.2496 34.9997 23.9496C34.9997 23.6496 34.8597 23.3596 34.6197 23.1596L31.5597 20.7096L35.9697 18.1096L40.6197 21.6096C40.7997 21.7496 41.0097 21.8096 41.2197 21.8096C41.5197 21.8096 41.8197 21.6696 42.0197 21.4096C42.3497 20.9696 42.2597 20.3396 41.8197 20.0096L37.8297 17.0096L43.7797 13.5096C44.2597 13.2296 44.4097 12.6196 44.1397 12.1396C43.8597 11.6596 43.2497 11.5096 42.7697 11.7896L36.9097 15.2396L36.3097 10.4996C36.2397 9.94961 35.7397 9.55961 35.1897 9.62961C34.6397 9.69961 34.2497 10.1996 34.3197 10.7496L35.0297 16.3396L30.7797 18.8396V15.5996C30.7797 15.2596 30.6097 14.9496 30.3297 14.7696C30.0497 14.5896 29.6897 14.5496 29.3897 14.6896L25.0197 16.5596V10.8996L30.3397 8.48961C30.8397 8.25961 31.0697 7.66961 30.8397 7.16961C30.6097 6.66961 30.0197 6.43961 29.5197 6.66961L25.0297 8.70961V1.84961C25.0297 1.29961 24.5797 0.849609 24.0297 0.849609C23.4797 0.849609 23.0297 1.29961 23.0297 1.84961V8.70961L18.5397 6.66961C18.0397 6.43961 17.4497 6.66961 17.2197 7.16961C16.9897 7.66961 17.2197 8.26961 17.7197 8.48961L23.0397 10.8996V16.5996L18.6197 14.6896C18.3097 14.5596 17.9597 14.5896 17.6697 14.7696C17.3897 14.9596 17.2197 15.2696 17.2197 15.6096V18.8496L13.1597 16.4596L13.8797 10.7496C13.9497 10.1996 13.5597 9.69961 13.0097 9.62961C12.4697 9.55961 11.9597 9.94961 11.8897 10.4996L11.2697 15.3496L5.21969 11.7896C4.73969 11.5096 4.12969 11.6696 3.84969 12.1396C3.56969 12.6196 3.72969 13.2296 4.20969 13.5096L10.2797 17.0796L6.37969 20.0096C5.93969 20.3396 5.84969 20.9696 6.17969 21.4096C6.37969 21.6696 6.67969 21.8096 6.97969 21.8096C7.18969 21.8096 7.39969 21.7396 7.57969 21.6096L12.1397 18.1796L16.4597 20.7196L13.4297 23.1496C13.1897 23.3396 13.0597 23.6196 13.0597 23.9196C13.0597 24.2196 13.1897 24.5096 13.4297 24.6996L16.4797 27.1996L12.1497 29.7396L7.58969 26.3096C7.14969 25.9796 6.51969 26.0696 6.18969 26.5096C5.85969 26.9496 5.94969 27.5796 6.38969 27.9096L10.2897 30.8396L4.22969 34.3896C3.74969 34.6696 3.58969 35.2796 3.86969 35.7596C4.05969 36.0796 4.38969 36.2496 4.72969 36.2496C4.89969 36.2496 5.07969 36.2096 5.22969 36.1096L11.2797 32.5696L11.8997 37.4296C11.9597 37.9296 12.3997 38.2996 12.8897 38.2996C12.9297 38.2996 12.9697 38.2996 13.0197 38.2996C13.5697 38.2296 13.9597 37.7296 13.8897 37.1796L13.1697 31.4696L17.2297 29.0896V32.1996C17.2297 32.5396 17.3997 32.8496 17.6797 33.0396C17.9597 33.2196 18.3197 33.2496 18.6297 33.1196L23.0497 31.2096V36.9496L17.7297 39.3596C17.2297 39.5896 16.9997 40.1796 17.2297 40.6796C17.4597 41.1796 18.0497 41.4096 18.5497 41.1796L23.0397 39.1396V46.0796C23.0397 46.6296 23.4897 47.0796 24.0397 47.0796C24.5897 47.0796 25.0397 46.6296 25.0397 46.0796V39.1396L29.5297 41.1796C29.6597 41.2396 29.7997 41.2696 29.9397 41.2696C30.3197 41.2696 30.6797 41.0496 30.8497 40.6796C31.0797 40.1796 30.8497 39.5796 30.3497 39.3596L25.0297 36.9496V31.2496L29.4497 33.1296C29.5797 33.1796 29.7097 33.2096 29.8397 33.2096C30.0397 33.2096 30.2397 33.1496 30.3997 33.0396C30.6797 32.8496 30.8497 32.5296 30.8397 32.1896L30.7497 29.0796L35.0397 31.5896L34.3297 37.1796C34.2597 37.7296 34.6497 38.2296 35.1997 38.2996C35.2397 38.2996 35.2797 38.2996 35.3297 38.2996C35.8297 38.2996 36.2597 37.9296 36.3197 37.4296L36.9197 32.6796L42.7797 36.1096C42.9397 36.1996 43.1097 36.2496 43.2797 36.2496C43.6197 36.2496 43.9597 36.0696 44.1397 35.7596C44.4197 35.2796 44.2597 34.6696 43.7797 34.3896L43.7897 34.3996ZM28.7897 30.6796L25.0197 29.0796V27.9196C25.0197 27.3696 24.5697 26.9196 24.0197 26.9196C23.4697 26.9196 23.0197 27.3696 23.0197 27.9196V29.0396L19.2097 30.6896V27.9296L21.1297 26.7996C21.6097 26.5196 21.7697 25.9096 21.4897 25.4296C21.2097 24.9496 20.5897 24.7896 20.1197 25.0696L18.3097 26.1296L15.6397 23.9396L18.2997 21.7996L20.1197 22.8696C20.2797 22.9596 20.4497 23.0096 20.6297 23.0096C20.9697 23.0096 21.3097 22.8296 21.4897 22.5196C21.7697 22.0396 21.6097 21.4296 21.1297 21.1496L19.1997 20.0196V17.1296L23.0097 18.7796V20.3396C23.0097 20.8896 23.4597 21.3396 24.0097 21.3396C24.5597 21.3396 25.0097 20.8896 25.0097 20.3396V18.7396L28.7797 17.1296V20.0296L26.8497 21.1696C26.3697 21.4496 26.2197 22.0596 26.4897 22.5396C26.6797 22.8596 27.0097 23.0296 27.3497 23.0296C27.5197 23.0296 27.6997 22.9896 27.8597 22.8896L29.6997 21.8096L32.3697 23.9496L29.6097 26.1196L27.8597 25.0996C27.3897 24.8196 26.7697 24.9796 26.4897 25.4596C26.2097 25.9396 26.3697 26.5496 26.8497 26.8296L28.6997 27.9096L28.7797 30.7096L28.7897 30.6796Z" fill="#323232"/>
</svg>
