<svg width="48" height="48" viewBox="0 0 48 48" fill="none" xmlns="http://www.w3.org/2000/svg">
<path d="M39.1901 6.7998H5.75008C5.38005 6.7998 5.08008 7.09977 5.08008 7.4698V13.4498C5.08008 13.8198 5.38005 14.1198 5.75008 14.1198H39.1901C39.5601 14.1198 39.8601 13.8198 39.8601 13.4498V7.4698C39.8601 7.09977 39.5601 6.7998 39.1901 6.7998Z" fill="#8DE2E0"/>
<path d="M36.8491 5.83961H34.7291V4.84961C34.7291 4.29961 34.2791 3.84961 33.7291 3.84961C33.1791 3.84961 32.7291 4.29961 32.7291 4.84961V5.83961H12.9591V4.84961C12.9591 4.29961 12.5091 3.84961 11.9591 3.84961C11.4091 3.84961 10.9591 4.29961 10.9591 4.84961V5.83961H8.19906C5.76906 5.83961 3.78906 7.81961 3.78906 10.2496V38.1196C3.78906 40.5496 5.76906 42.5296 8.19906 42.5296H19.1891C19.7391 42.5296 20.1891 42.0796 20.1891 41.5296C20.1891 40.9796 19.7391 40.5296 19.1891 40.5296H8.19906C6.86906 40.5296 5.78906 39.4496 5.78906 38.1196V10.2396C5.78906 8.90961 6.86906 7.82961 8.19906 7.82961H36.8491C38.1791 7.82961 39.2591 8.90961 39.2591 10.2396V17.8496C39.2591 18.3996 39.7091 18.8496 40.2591 18.8496C40.8091 18.8496 41.2591 18.3996 41.2591 17.8496V10.2396C41.2591 7.80961 39.2791 5.82961 36.8491 5.82961V5.83961Z" fill="#323232"/>
<path d="M28.2204 11.8896H16.9004C16.3504 11.8896 15.9004 11.4396 15.9004 10.8896C15.9004 10.3396 16.3504 9.88965 16.9004 9.88965H28.2204C28.7704 9.88965 29.2204 10.3396 29.2204 10.8896C29.2204 11.4396 28.7704 11.8896 28.2204 11.8896Z" fill="#323232"/>
<path d="M31.1897 34.9403C32.0497 34.9403 32.7197 35.6104 32.7197 36.4704C32.7197 37.3304 32.0497 37.9804 31.1897 37.9804C30.3297 37.9804 29.6797 37.3104 29.6797 36.4704C29.6797 35.6304 30.3497 34.9403 31.1897 34.9403ZM31.9897 33.7304H30.4197L29.8597 27.2104V23.6104H32.5297V27.2104L31.9897 33.7304Z" fill="#DF0000"/>
<path d="M31.1995 44.1001C24.0295 44.1001 18.1895 38.2601 18.1895 31.0901C18.1895 23.9201 24.0295 18.0801 31.1995 18.0801C38.3695 18.0801 44.2095 23.9201 44.2095 31.0901C44.2095 38.2601 38.3695 44.1001 31.1995 44.1001ZM31.1995 20.0801C25.1295 20.0801 20.1895 25.0201 20.1895 31.0901C20.1895 37.1601 25.1295 42.1001 31.1995 42.1001C37.2695 42.1001 42.2095 37.1601 42.2095 31.0901C42.2095 25.0201 37.2695 20.0801 31.1995 20.0801Z" fill="#323232"/>
</svg>
