<svg width="48" height="48" viewBox="0 0 48 48" fill="none" xmlns="http://www.w3.org/2000/svg">
<path d="M32.509 27.5101C32.509 27.5101 32.469 27.5301 32.449 27.5301C32.429 27.5301 32.409 27.5301 32.399 27.5101C29.949 25.5401 27.129 24.3501 24.229 23.9001C24.019 23.8701 23.859 23.7001 23.839 23.4901C23.219 17.7601 18.009 19.0601 15.469 12.9101C15.449 12.8701 15.469 12.8301 15.499 12.8001C15.539 12.7701 15.589 12.7901 15.619 12.8301C18.849 17.9001 21.039 15.0201 25.799 19.3801L25.849 19.4301C26.499 20.0301 26.949 19.4701 26.739 19.1201C26.539 18.8001 26.569 18.6201 26.579 18.5901C27.549 18.8601 28.429 19.3301 29.169 19.9601L29.109 20.0901C28.749 20.8201 25.149 20.5101 25.109 22.0301C25.099 22.4501 25.349 22.8101 25.719 22.9501L26.429 23.2401C28.759 24.1801 30.829 25.6001 32.529 27.3901C32.559 27.4201 32.559 27.4801 32.529 27.5101H32.509Z" fill="#DF0000"/>
<path d="M11.2307 25.0001C11.1407 25.0001 11.0507 24.9901 10.9507 24.9601L2.59066 22.5701C2.33066 22.5001 2.11066 22.3201 1.98066 22.0801C1.85066 21.8401 1.83066 21.5601 1.91066 21.3001L5.53066 10.3201C6.36066 8.3401 7.83066 6.8001 9.70066 5.9101L16.9707 2.4501C17.1007 2.3901 17.2507 2.3501 17.4007 2.3501H23.9807C24.5307 2.3501 24.9807 2.8001 24.9807 3.3501C24.9807 3.9001 24.5307 4.3501 23.9807 4.3501H17.6307L10.5607 7.7101C9.14066 8.3901 8.01066 9.5601 7.40066 11.0201L4.13066 20.9401L11.4907 23.0401C12.0207 23.1901 12.3307 23.7501 12.1807 24.2801C12.0507 24.7201 11.6507 25.0101 11.2207 25.0101L11.2307 25.0001Z" fill="#323232"/>
<path d="M36.7705 45.6501H11.2305C10.6805 45.6501 10.2305 45.2001 10.2305 44.6501V15.0601C10.2305 14.5101 10.6805 14.0601 11.2305 14.0601C11.7805 14.0601 12.2305 14.5101 12.2305 15.0601V43.6501H35.7605V15.0601C35.7605 14.5101 36.2105 14.0601 36.7605 14.0601C37.3105 14.0601 37.7605 14.5101 37.7605 15.0601V44.6501C37.7605 45.2001 37.3105 45.6501 36.7605 45.6501H36.7705Z" fill="#323232"/>
<path d="M23.9988 8.93997C18.4288 8.93997 16.5588 3.89997 16.4788 3.68997C16.2888 3.16997 16.5588 2.59997 17.0788 2.40997C17.5988 2.21997 18.1688 2.48997 18.3588 3.00997C18.4188 3.16997 19.8488 6.93997 23.9988 6.93997C24.5488 6.93997 24.9988 7.38997 24.9988 7.93997C24.9988 8.48997 24.5488 8.93997 23.9988 8.93997Z" fill="#323232"/>
<path d="M36.7717 25.0001C36.3317 25.0001 35.9317 24.7101 35.8117 24.2701C35.6617 23.7401 35.9717 23.1901 36.5017 23.0301L43.8617 20.9301L40.5617 10.9401C39.9817 9.5601 38.8517 8.3801 37.4317 7.7101L30.3617 4.3501H24.0117C23.4617 4.3501 23.0117 3.9001 23.0117 3.3501C23.0117 2.8001 23.4617 2.3501 24.0117 2.3501H30.5917C30.7417 2.3501 30.8917 2.3801 31.0217 2.4501L38.2917 5.9101C40.1617 6.8001 41.6317 8.3401 42.4317 10.2501L46.0817 21.3001C46.1717 21.5601 46.1417 21.8401 46.0117 22.0801C45.8817 22.3201 45.6617 22.5001 45.4017 22.5701L37.0417 24.9601C36.9517 24.9901 36.8617 25.0001 36.7617 25.0001H36.7717Z" fill="#323232"/>
<path d="M24 8.93997C23.45 8.93997 23 8.48997 23 7.93997C23 7.38997 23.45 6.93997 24 6.93997C28.14 6.93997 29.58 3.16997 29.64 3.00997C29.83 2.48997 30.4 2.21997 30.92 2.40997C31.44 2.59997 31.71 3.16997 31.52 3.68997C31.44 3.89997 29.57 8.93997 24 8.93997Z" fill="#323232"/>
</svg>
