<svg width="90" height="73" viewBox="0 0 90 73" fill="none" xmlns="http://www.w3.org/2000/svg">
<g clip-path="url(#clip0_15605_2809)">
<path d="M22.5097 59.0313H83.0852L34.5443 10.3065C28.0761 3.84201 19.3035 0 10.1564 0H0L0.756607 1.98397L4.11958 10.803L22.5097 59.0313Z" fill="url(#paint0_linear_15605_2809)"/>
<path d="M4.11957 10.8029C10.7517 22.1223 28.1551 23.3171 30.0486 40.9184C30.1265 41.6426 30.6818 42.2229 31.402 42.3356C41.4312 43.9018 51.2 48.0291 59.6876 54.8299L59.6951 54.836C59.7509 54.8808 59.8093 54.9022 59.8842 54.9022C59.9591 54.9022 60.0342 54.8749 60.0927 54.8192C60.2136 54.7042 60.2185 54.5129 60.1034 54.392C54.2258 48.2183 47.044 43.285 38.9826 40.0413L36.5291 39.0542C35.2673 38.5465 34.3914 37.2954 34.4291 35.8562C34.5668 30.5972 47.0099 31.6669 48.2714 29.1386L48.4884 28.7036C45.9262 26.5151 42.8819 24.8694 39.529 23.949C39.4992 24.0756 39.4178 24.689 40.1001 25.7993C40.842 27.0066 39.2882 28.9267 37.0266 26.8553L36.8364 26.6812C20.0237 11.2833 7.41755 19.268 0.756592 1.98389L4.11957 10.8029Z" fill="white"/>
<path d="M44.5506 28.418C44.5506 28.418 41.7934 28.555 40.1 25.7993C40.6037 26.6192 40.0484 27.7684 38.9321 27.7717V31.9673C40.7449 31.4409 42.8128 31.1186 44.5506 30.7535V28.418Z" fill="url(#paint1_linear_15605_2809)"/>
<path d="M33.4836 42.6986C42.7792 44.487 51.7886 48.5006 59.6874 54.83C42.0783 39.7931 34.0549 42.5121 33.4836 42.6986Z" fill="url(#paint2_linear_15605_2809)"/>
<path d="M7.66028 11.5901C4.92392 9.6454 2.60993 6.79317 0.756592 1.98389L4.11957 10.8029C10.7511 22.121 28.1516 23.3168 30.048 40.9131C28.1339 18.4548 18.2639 21.8114 7.66028 11.5901Z" fill="url(#paint3_linear_15605_2809)"/>
<path d="M26.4373 72.8956C22.8114 72.8956 20.5088 71.0108 20.5088 68.6468C20.5088 66.2413 22.9469 64.3979 26.5414 64.3979C30.136 64.3979 32.5741 66.2518 32.5741 68.553C32.5741 69.584 32.1156 70.4274 31.2405 71.1357H33.3764L32.8659 72.0105C32.5428 72.5623 32.1469 72.8956 31.2925 72.8956H26.4373ZM26.5414 70.969C28.521 70.969 30.1882 69.9901 30.1882 68.6468C30.1882 67.3034 28.5212 66.3245 26.5414 66.3245C24.5619 66.3245 22.8947 67.3034 22.8947 68.6468C22.8947 69.9901 24.5619 70.969 26.5414 70.969Z" fill="white"/>
<path d="M42.2837 71.4585H36.5741L35.7613 72.8956H33.3962L37.3555 66.0435C37.6681 65.5019 38.1161 65.0854 39.0122 65.0854H39.8978C40.7938 65.0854 41.2418 65.5019 41.5544 66.0435L45.5137 72.8956H43.0965L42.2837 71.4585ZM37.543 69.7402H41.3146L39.5641 66.6267C39.5225 66.5537 39.4912 66.5329 39.4287 66.5329C39.3662 66.5329 39.3349 66.5537 39.2932 66.6267L37.543 69.7402Z" fill="white"/>
<path d="M56.7862 65.0854V72.8956H54.6712L48.4614 67.7201V72.8956H46.3464V65.0854H47.6697C48.3468 65.0854 48.6907 65.2625 49.0763 65.5957L54.6714 70.2507V65.0854H56.7862Z" fill="white"/>
<path d="M64.308 66.8453V72.8956H62.193V66.8453H57.8586V65.0854H68.6423V66.8453H64.308Z" fill="white"/>
<path d="M75.6851 71.4585H69.9755L69.1627 72.8956H66.7976L70.7569 66.0435C71.0695 65.5019 71.5175 65.0854 72.4136 65.0854H73.2991C74.1952 65.0854 74.6432 65.5019 74.9558 66.0435L78.9151 72.8956H76.4978L75.6851 71.4585ZM70.9443 69.7402H74.716L72.9655 66.6267C72.9239 66.5537 72.8925 66.5329 72.8301 66.5329C72.7676 66.5329 72.7362 66.5537 72.6946 66.6267L70.9443 69.7402Z" fill="white"/>
<path d="M79.6434 72.3333L79.4454 72.2709L79.9768 70.5735C81.498 71.0629 83.1233 71.2607 84.5923 71.2607C86.9991 71.2607 87.5931 70.9796 87.5931 70.6777C87.5931 70.5526 87.5098 70.4589 87.3222 70.3964C87.0826 70.3132 86.4158 70.1778 84.4466 69.8551C82.2689 69.5011 81.2895 69.324 80.5708 68.9908C79.8518 68.6576 79.4143 68.1265 79.4143 67.3455C79.4143 66.7518 79.7061 66.2729 80.1749 65.8981C81.0085 65.2525 82.4359 64.9922 83.9882 64.9922C85.9886 64.9922 87.6663 65.1589 89.5312 65.617L89.698 65.6691L89.25 67.3249C87.1661 66.8771 86.0096 66.7523 84.426 66.7314C83.3111 66.7209 82.54 66.8042 82.1338 66.9293C81.9046 67.0022 81.8107 67.1065 81.8107 67.2314C81.8107 67.346 81.8837 67.45 82.113 67.523C82.3631 67.6062 82.7693 67.7 84.9053 68.0437C87.2183 68.4186 87.9789 68.5748 88.6145 68.8247C89.4793 69.158 90.0003 69.7725 90.0003 70.5428C90.0003 71.5113 89.25 72.2299 87.9477 72.6255C87.1455 72.865 86.0723 73.0004 84.8637 73.0004C82.967 72.9998 80.9458 72.7498 79.6434 72.3333Z" fill="white"/>
</g>
<defs>
<linearGradient id="paint0_linear_15605_2809" x1="52.7011" y1="58.8904" x2="12.3158" y2="-0.121927" gradientUnits="userSpaceOnUse">
<stop stop-color="#BE0000"/>
<stop offset="0.3898" stop-color="#DE0000"/>
<stop offset="0.768" stop-color="#F60000"/>
<stop offset="1" stop-color="#FF0000"/>
</linearGradient>
<linearGradient id="paint1_linear_15605_2809" x1="41.4851" y1="32.1905" x2="42.0292" y2="25.968" gradientUnits="userSpaceOnUse">
<stop offset="0.65" stop-color="white" stop-opacity="0"/>
<stop offset="0.7285" stop-color="#E0E0E0" stop-opacity="0.2617"/>
<stop offset="0.8148" stop-color="#C5C5C5" stop-opacity="0.5493"/>
<stop offset="0.8914" stop-color="#B5B5B5" stop-opacity="0.8047"/>
<stop offset="0.95" stop-color="#AFAFAF"/>
</linearGradient>
<linearGradient id="paint2_linear_15605_2809" x1="33.4837" y1="48.6107" x2="59.6875" y2="48.6107" gradientUnits="userSpaceOnUse">
<stop stop-color="white" stop-opacity="0"/>
<stop offset="0.0839" stop-color="#F1F1F1" stop-opacity="0.0932"/>
<stop offset="0.2921" stop-color="#D4D4D4" stop-opacity="0.3246"/>
<stop offset="0.4993" stop-color="#C0C0C0" stop-opacity="0.5548"/>
<stop offset="0.7032" stop-color="#B3B3B3" stop-opacity="0.7814"/>
<stop offset="0.9" stop-color="#AFAFAF"/>
</linearGradient>
<linearGradient id="paint3_linear_15605_2809" x1="0.756634" y1="21.4485" x2="30.048" y2="21.4485" gradientUnits="userSpaceOnUse">
<stop offset="0.25" stop-color="white" stop-opacity="0"/>
<stop offset="0.4615" stop-color="#EDEDED" stop-opacity="0.282"/>
<stop offset="0.886" stop-color="#BDBDBD" stop-opacity="0.848"/>
<stop offset="1" stop-color="#AFAFAF"/>
</linearGradient>
<clipPath id="clip0_15605_2809">
<rect width="90" height="73" fill="white"/>
</clipPath>
</defs>
</svg>
