<svg width="24" height="24" viewBox="0 0 24 24" fill="none" xmlns="http://www.w3.org/2000/svg">
<g clip-path="url(#clip0_16335_12367)">
<path d="M23.8449 13.9238C24.9068 7.382 20.4644 1.218 13.9226 0.156118C7.38083 -0.905765 1.21683 3.53658 0.154948 10.0784C-0.906935 16.6202 3.53541 22.7842 10.0772 23.846C16.619 24.9079 22.783 20.4656 23.8449 13.9238Z" fill="#00ADFE"/>
<mask id="mask0_16335_12367" style="mask-type:luminance" maskUnits="userSpaceOnUse" x="-1" y="-1" width="26" height="26">
<path d="M23.8449 13.9238C24.9068 7.382 20.4644 1.218 13.9226 0.156118C7.38083 -0.905765 1.21683 3.53658 0.154948 10.0784C-0.906935 16.6202 3.53541 22.7842 10.0772 23.846C16.619 24.9079 22.783 20.4656 23.8449 13.9238Z" fill="white"/>
</mask>
<g mask="url(#mask0_16335_12367)">
<path d="M29.9993 1.44775H-6.00067V25.4478H29.9993V1.44775Z" fill="#FED700"/>
<path d="M29.9993 21.4565H-6.00067V25.4491H29.9993V21.4565Z" fill="#00ADFE"/>
<path d="M29.9993 18.7847H-6.00067V20.1206H29.9993V18.7847Z" fill="#00ADFE"/>
<path d="M29.9993 1.44775H-6.00067V17.4487H29.9993V1.44775Z" fill="#00ADFE"/>
<path fill-rule="evenodd" clip-rule="evenodd" d="M8.44486 5.84829L11.5305 6.79437L8.44486 7.74185L7.49878 10.826L6.5513 7.74185L3.4671 6.79437L6.5513 5.84829L7.49878 2.7627L8.44486 5.84829Z" fill="white"/>
<path fill-rule="evenodd" clip-rule="evenodd" d="M7.49883 3.70312L8.22411 6.06903L10.59 6.79431L8.22411 7.52099L7.49883 9.88689L6.77215 7.52099L4.40625 6.79431L6.77215 6.06903L7.49883 3.70312Z" fill="#FF0000"/>
</g>
</g>
<rect x="0.25" y="0.25" width="23.5" height="23.5" rx="11.75" stroke="#E5E3E1" stroke-width="0.5"/>
<defs>
<clipPath id="clip0_16335_12367">
<rect width="24" height="24" rx="12" fill="white"/>
</clipPath>
</defs>
</svg>
