<svg width="48" height="48" viewBox="0 0 48 48" fill="none" xmlns="http://www.w3.org/2000/svg">
<path d="M24 46.25C11.73 46.25 1.75 36.27 1.75 24C1.75 11.73 11.73 1.75 24 1.75C36.27 1.75 46.25 11.73 46.25 24C46.25 36.27 36.27 46.25 24 46.25ZM24 3.75C12.83 3.75 3.75 12.83 3.75 24C3.75 35.17 12.83 44.25 24 44.25C35.17 44.25 44.25 35.17 44.25 24C44.25 12.83 35.17 3.75 24 3.75Z" fill="#323232"/>
<path d="M32.6091 21.1499H26.6191L24.7491 15.1799C24.6191 14.8599 24.3291 14.6499 23.9991 14.6499C23.6691 14.6499 23.3791 14.8599 23.2491 15.1799L21.3791 21.1499H15.4491C15.1191 21.1799 14.8491 21.4199 14.7491 21.7499C14.6491 22.0799 14.7491 22.4399 15.0091 22.6599L19.8191 26.3399L17.9491 32.3099C17.8591 32.6599 17.9891 33.0199 18.2691 33.2299C18.5491 33.4299 18.9191 33.4399 19.1991 33.2299L23.9991 29.5499L28.7991 33.2299C29.0791 33.4299 29.4491 33.4299 29.7291 33.2299C30.0091 33.0199 30.1391 32.6599 30.0491 32.3099L28.1791 26.3399L32.9791 22.6599C33.2291 22.4399 33.3391 22.0799 33.2391 21.7499C33.1491 21.4199 32.8691 21.1799 32.5391 21.1499H32.5991H32.6091Z" fill="#DF0000"/>
<path d="M24.3992 5.94018C24.1892 5.94018 24.0192 6.09018 23.9792 6.29018C23.9492 6.49018 24.0692 6.69018 24.2692 6.75018C24.3392 6.77018 31.4392 9.08018 35.6792 14.1402C40.0292 19.3402 41.0992 25.4502 41.1092 25.5102C41.1392 25.7102 41.3192 25.8602 41.5192 25.8602C41.7192 25.8602 41.8992 25.7202 41.9292 25.5202C42.0692 24.7802 42.1392 23.9602 42.1392 23.0802C42.1392 13.6302 34.1792 5.93018 24.3892 5.93018L24.3992 5.94018Z" fill="#8DE2E0"/>
</svg>
