<svg width="24" height="24" viewBox="0 0 24 24" fill="none" xmlns="http://www.w3.org/2000/svg">
<g clip-path="url(#clip0_16335_5309)">
<path d="M20.4851 20.4853C25.1714 15.799 25.1714 8.20101 20.4851 3.51472C15.7988 -1.17157 8.20081 -1.17157 3.51452 3.51472C-1.17177 8.20101 -1.17177 15.799 3.51452 20.4853C8.20081 25.1716 15.7988 25.1716 20.4851 20.4853Z" fill="#003399"/>
<mask id="mask0_16335_5309" style="mask-type:luminance" maskUnits="userSpaceOnUse" x="-1" y="0" width="25" height="24">
<path d="M20.4851 20.4853C25.1714 15.799 25.1714 8.20101 20.4851 3.51472C15.7988 -1.17157 8.20081 -1.17157 3.51452 3.51472C-1.17177 8.20101 -1.17177 15.799 3.51452 20.4853C8.20081 25.1716 15.7988 25.1716 20.4851 20.4853Z" fill="white"/>
</mask>
<g mask="url(#mask0_16335_5309)">
<path fill-rule="evenodd" clip-rule="evenodd" d="M17.4739 7.24438L18.6603 7.24159L17.6988 7.93613L18.0678 9.06248L17.1105 8.36375L16.1533 9.06248L16.5208 7.93613L15.5607 7.24159L16.7458 7.24438L17.1105 6.11523L17.4739 7.24438Z" fill="white"/>
<path fill-rule="evenodd" clip-rule="evenodd" d="M17.1105 6.677L17.3495 7.41626L18.1265 7.41486L17.4962 7.87043L17.738 8.60829L17.1105 8.15132L16.483 8.60829L16.7248 7.87043L16.0945 7.41486L16.8715 7.41626L17.1105 6.677Z" fill="#FF0000"/>
<path fill-rule="evenodd" clip-rule="evenodd" d="M17.513 19.1592L18.8266 19.1564L17.7632 19.9264L18.1712 21.173L17.1106 20.4002L16.0499 21.173L16.4579 19.9264L15.3945 19.1564L16.7067 19.1592L17.1106 17.9099L17.513 19.1592Z" fill="white"/>
<path fill-rule="evenodd" clip-rule="evenodd" d="M17.1105 18.4731L17.3872 19.3326L18.29 19.3312L17.5591 19.8594L17.84 20.7175L17.1105 20.1864L16.3811 20.7175L16.662 19.8594L15.9311 19.3312L16.8325 19.3326L17.1105 18.4731Z" fill="#FF0000"/>
<path fill-rule="evenodd" clip-rule="evenodd" d="M21.3993 10.7003L22.5858 10.6989L21.6243 11.3934L21.9933 12.5198L21.036 11.821L20.0787 12.5198L20.4463 11.3934L19.4862 10.6989L20.6713 10.7003L21.036 9.57251L21.3993 10.7003Z" fill="white"/>
<path fill-rule="evenodd" clip-rule="evenodd" d="M21.036 10.1343L21.2749 10.8735L22.0519 10.8721L21.4217 11.3263L21.6634 12.0656L21.036 11.6072L20.4085 12.0656L20.6503 11.3263L20.02 10.8721L20.797 10.8735L21.036 10.1343Z" fill="#FF0000"/>
<path fill-rule="evenodd" clip-rule="evenodd" d="M12.907 11.8646L14.0934 11.8632L13.132 12.5577L13.5009 13.6841L12.5436 12.9853L11.585 13.6841L11.9539 12.5577L10.9938 11.8632L12.1789 11.8646L12.5436 10.7368L12.907 11.8646Z" fill="white"/>
<path fill-rule="evenodd" clip-rule="evenodd" d="M12.5436 11.2986L12.7812 12.0378L13.5582 12.0364L12.9293 12.4906L13.1711 13.2299L12.5436 12.7715L11.9147 13.2299L12.1565 12.4906L11.5276 12.0364L12.3046 12.0378L12.5436 11.2986Z" fill="#FF0000"/>
<path fill-rule="evenodd" clip-rule="evenodd" d="M0.122986 0H1.67836L5.6178 2.753V0H8.48679V2.72924L12.3913 0H13.9802V1.08722L11.0749 3.11774H13.9802V6.11529H11.0749L13.9802 8.1458V9.25678H12.4262L8.48679 6.50379V9.25678H5.6178V6.52754L1.7133 9.25678H0.122986V8.16956L3.02971 6.13905H0.122986V3.14149H3.02971L0.122986 1.11098V0Z" fill="white"/>
<path d="M13.9802 3.7312H0.122986V5.5493H13.9802V3.7312Z" fill="#FF0000"/>
<path d="M7.92221 0H6.18097V9.25678H7.92221V0Z" fill="#FF0000"/>
<path fill-rule="evenodd" clip-rule="evenodd" d="M1.15711 9.2569L5.6178 6.13916H4.58368L0.122986 9.2569H1.15711Z" fill="#FF0000"/>
<path fill-rule="evenodd" clip-rule="evenodd" d="M3.5859 3.14149L0.122986 0.722488V0L4.61862 3.14149H3.5859Z" fill="#FF0000"/>
<path fill-rule="evenodd" clip-rule="evenodd" d="M12.9475 0L8.48682 3.11774H9.52094L13.9802 0H12.9475Z" fill="#FF0000"/>
<path fill-rule="evenodd" clip-rule="evenodd" d="M10.5187 6.11523L13.9802 8.53424V9.25673L9.48596 6.11523H10.5187Z" fill="#FF0000"/>
</g>
</g>
<rect x="0.25" y="0.25" width="23.5" height="23.5" rx="11.75" stroke="#E5E3E1" stroke-width="0.5"/>
<defs>
<clipPath id="clip0_16335_5309">
<rect width="24" height="24" rx="12" fill="white"/>
</clipPath>
</defs>
</svg>
