<svg width="48" height="48" viewBox="0 0 48 48" fill="none" xmlns="http://www.w3.org/2000/svg">
<path fill-rule="evenodd" clip-rule="evenodd" d="M22.3106 37.8901H6.64062V39.7401C6.64062 41.5001 8.07063 42.9301 9.83063 42.9301H24.6706C24.8406 42.9301 25.0106 42.9101 25.1706 42.8801C23.8006 41.5301 22.7906 39.8101 22.3106 37.8901Z" fill="#8DE2E0"/>
<path d="M32.6607 43.9498C37.4601 43.9498 41.3507 40.0592 41.3507 35.2598C41.3507 30.4605 37.4601 26.5698 32.6607 26.5698C27.8613 26.5698 23.9707 30.4605 23.9707 35.2598C23.9707 40.0592 27.8613 43.9498 32.6607 43.9498Z" fill="#DF0000"/>
<path d="M24.6706 43.93H9.83063C7.52063 43.93 5.64062 42.05 5.64062 39.74V6.94C5.64062 4.63 7.52063 2.75 9.83063 2.75H24.6706C26.9806 2.75 28.8606 4.63 28.8606 6.94V25.39C28.8606 25.94 28.4106 26.39 27.8606 26.39C27.3106 26.39 26.8606 25.94 26.8606 25.39V6.94C26.8606 5.73 25.8806 4.75 24.6706 4.75H9.83063C8.62063 4.75 7.64062 5.73 7.64062 6.94V39.74C7.64062 40.95 8.62063 41.93 9.83063 41.93H24.6706C25.2206 41.93 25.6706 42.38 25.6706 42.93C25.6706 43.48 25.2206 43.93 24.6706 43.93Z" fill="#323232"/>
<path d="M21.9309 22.3101H19.8809V24.3601H21.9309V22.3101Z" fill="#323232"/>
<path d="M23.9699 20.27H21.9199V22.32H23.9699V20.27Z" fill="#323232"/>
<path d="M19.8801 20.27H17.8301V22.32H19.8801V20.27Z" fill="#323232"/>
<path d="M23.9699 24.3599H21.9199V26.4099H23.9699V24.3599Z" fill="#323232"/>
<path d="M19.8801 24.3599H17.8301V26.4099H19.8801V24.3599Z" fill="#323232"/>
<path d="M15.3906 19.2801H11.8606C11.0506 19.2801 10.3906 18.6201 10.3906 17.8101V14.2801C10.3906 13.4701 11.0506 12.8101 11.8606 12.8101H15.3906C16.2006 12.8101 16.8606 13.4701 16.8606 14.2801V17.8101C16.8606 18.6201 16.2006 19.2801 15.3906 19.2801ZM12.3906 17.2801H14.8706V14.8001H12.3906V17.2801Z" fill="#323232"/>
<path d="M15.3906 26.5799H11.8606C11.0506 26.5799 10.3906 25.9199 10.3906 25.1099V21.5799C10.3906 20.7699 11.0506 20.1099 11.8606 20.1099H15.3906C16.2006 20.1099 16.8606 20.7699 16.8606 21.5799V25.1099C16.8606 25.9199 16.2006 26.5799 15.3906 26.5799ZM12.3906 24.5799H14.8706V22.0999H12.3906V24.5799Z" fill="#323232"/>
<path d="M22.6699 19.2801H19.1399C18.3299 19.2801 17.6699 18.6201 17.6699 17.8101V14.2801C17.6699 13.4701 18.3299 12.8101 19.1399 12.8101H22.6699C23.4799 12.8101 24.1399 13.4701 24.1399 14.2801V17.8101C24.1399 18.6201 23.4799 19.2801 22.6699 19.2801ZM19.6599 17.2801H22.1399V14.8001H19.6599V17.2801Z" fill="#323232"/>
<path d="M20.3197 8.91016H14.1797C13.6297 8.91016 13.1797 8.46016 13.1797 7.91016C13.1797 7.36016 13.6297 6.91016 14.1797 6.91016H20.3197C20.8697 6.91016 21.3197 7.36016 21.3197 7.91016C21.3197 8.46016 20.8697 8.91016 20.3197 8.91016Z" fill="#323232"/>
<path d="M31.7301 39.5402C31.4701 39.5402 31.2201 39.4402 31.0401 39.2602L28.2901 36.6202C27.8901 36.2402 27.8801 35.6002 28.2601 35.2102C28.6401 34.8202 29.2801 34.8002 29.6701 35.1802L31.6601 37.0902L36.7501 31.3002C37.1201 30.8802 37.7501 30.8502 38.1601 31.2102C38.5801 31.5802 38.6201 32.2102 38.2501 32.6202L32.4701 39.1902C32.2901 39.3902 32.0301 39.5202 31.7601 39.5302C31.7501 39.5302 31.7301 39.5302 31.7201 39.5302L31.7301 39.5402Z" fill="white"/>
</svg>
