<svg width="48" height="48" viewBox="0 0 48 48" fill="none" xmlns="http://www.w3.org/2000/svg">
<path d="M24.58 45.2302C24.35 45.2302 24.12 45.1602 23.92 45.0302L11.24 36.3502C11.01 36.1902 10.86 35.9502 10.82 35.6802C10.78 35.4102 10.85 35.1302 11.02 34.9102C11.78 33.9302 12.18 32.7102 12.16 31.4802C12.16 29.3002 11.09 28.1702 9.73 26.7402C8.29 25.2202 6.75 21.7602 6.75 16.5802C6.75 11.4002 11.06 2.72021 22.64 2.72021C37.37 2.72021 38.52 13.3202 38.52 16.5802C38.52 17.4502 38.28 18.5002 38.08 19.4302C38 19.8002 37.89 20.2802 37.86 20.5302C38.07 20.9702 38.92 22.1702 39.45 22.9102C40.28 24.0802 40.75 24.7602 40.93 25.1702L40.97 25.2702C41.16 25.7202 41.48 26.4802 41.04 27.2202C40.72 27.7602 40.13 28.0902 39.13 28.2802C38.99 29.1102 38.68 30.0602 38.23 31.4002L38.1 31.7902C37.93 32.3002 37.83 33.1702 37.74 34.0102C37.47 36.3302 37.14 39.2202 34.82 39.2202C33.52 39.2202 32.11 38.7802 30.86 38.3902C30.18 38.1802 29.48 37.9602 29 37.8902C28.47 38.5402 27.22 40.8902 25.67 44.5202C25.65 44.5802 25.6 44.6602 25.57 44.7102C25.34 45.0502 24.97 45.2302 24.59 45.2302H24.58ZM13.19 35.2502L24.23 42.8102C27.28 35.8802 28.08 35.8802 28.73 35.8802C29.49 35.8802 30.4 36.1602 31.46 36.4902C32.57 36.8402 33.83 37.2302 34.82 37.2302C35.36 37.2302 35.64 34.7302 35.75 33.7902C35.86 32.8102 35.97 31.8702 36.2 31.1702L36.33 30.7802C36.87 29.1502 37.2 28.1602 37.2 27.4102C37.2 26.9002 37.59 26.4702 38.1 26.4102C38.68 26.3502 39.01 26.2702 39.19 26.2102C39.17 26.1502 39.14 26.1002 39.12 26.0502L39.07 25.9402C38.96 25.6902 38.3 24.7502 37.81 24.0702C36.24 21.8602 35.84 21.2202 35.84 20.6402C35.84 20.2502 35.96 19.6902 36.12 18.9902C36.3 18.2002 36.52 17.2202 36.52 16.5802C36.52 13.0202 35.17 4.72021 22.64 4.72021C17.27 4.72021 8.75 7.94021 8.75 16.5802C8.75 21.1702 10.06 24.1802 11.18 25.3602C12.65 26.9002 14.16 28.5002 14.16 31.4602C14.18 32.7802 13.84 34.1002 13.18 35.2502H13.19Z" fill="#323232"/>
<path d="M30.3509 16.1001C29.9709 16.1001 29.6409 15.8501 29.5409 15.4901C29.4109 15.0601 29.2409 14.6501 29.0309 14.2601C28.8509 13.9301 28.9009 13.5201 29.1709 13.2501C29.5009 12.9201 29.5009 12.3901 29.1709 12.0601L28.4409 11.3301C28.1109 11.0001 27.5809 11.0001 27.2509 11.3301C26.9809 11.5901 26.5709 11.6501 26.2409 11.4701C25.8509 11.2601 25.4409 11.0901 25.0109 10.9601C24.6509 10.8601 24.4009 10.5301 24.3909 10.1501C24.3909 9.69006 24.0109 9.31006 23.5509 9.31006H22.5109C22.0509 9.31006 21.6709 9.69006 21.6709 10.1501C21.6709 10.5301 21.4209 10.8601 21.0609 10.9601C20.6309 11.0901 20.2209 11.2601 19.8309 11.4701C19.5009 11.6501 19.0909 11.6001 18.8209 11.3301C18.4909 11.0001 17.9609 11.0001 17.6309 11.3301L16.9009 12.0601C16.5709 12.3901 16.5709 12.9201 16.9009 13.2501C17.1609 13.5201 17.2209 13.9301 17.0409 14.2601C16.8309 14.6501 16.6609 15.0601 16.5309 15.4901C16.4309 15.8501 16.1009 16.1001 15.7209 16.1001C15.2609 16.1001 14.8809 16.4801 14.8809 16.9401V17.9801C14.8809 18.4501 15.2609 18.8201 15.7209 18.8201C16.1009 18.8201 16.4309 19.0701 16.5309 19.4301C16.6609 19.8601 16.8309 20.2701 17.0409 20.6601C17.2209 20.9901 17.1709 21.4001 16.9009 21.6701C16.5709 22.0001 16.5709 22.5301 16.9009 22.8601L17.6409 23.6001C17.9709 23.9301 18.5009 23.9301 18.8309 23.6001C19.1009 23.3401 19.5109 23.2801 19.8409 23.4601C20.2309 23.6701 20.6409 23.8401 21.0709 23.9701C21.4309 24.0701 21.6809 24.4001 21.6809 24.7801C21.6809 25.2401 22.0609 25.6201 22.5209 25.6201H23.5609C24.0209 25.6201 24.4009 25.2401 24.4009 24.7801C24.4009 24.4001 24.6509 24.0701 25.0109 23.9701C25.4409 23.8401 25.8509 23.6701 26.2409 23.4601C26.5709 23.2801 26.9809 23.3301 27.2509 23.6001C27.5809 23.9301 28.1109 23.9301 28.4409 23.6001L29.1809 22.8701C29.5109 22.5401 29.5109 22.0101 29.1809 21.6801C28.9209 21.4101 28.8609 21.0001 29.0409 20.6701C29.2509 20.2801 29.4209 19.8701 29.5509 19.4401C29.6509 19.0801 29.9809 18.8301 30.3609 18.8201C30.8209 18.8201 31.2009 18.4401 31.2009 17.9801V16.9401C31.2009 16.4801 30.8209 16.1001 30.3609 16.1001H30.3509ZM23.0209 21.2701C20.9209 21.2701 19.2109 19.5601 19.2109 17.4601C19.2109 15.3601 20.9209 13.6501 23.0209 13.6501C25.1209 13.6501 26.8309 15.3601 26.8309 17.4601C26.8309 19.5601 25.1209 21.2701 23.0209 21.2701Z" fill="#8DE2E0"/>
</svg>
