<svg width="24" height="24" viewBox="0 0 24 24" fill="none" xmlns="http://www.w3.org/2000/svg">
<path d="M12 2C17.5229 2 22.0008 6.47713 22.001 12C22.001 17.523 17.523 22.001 12 22.001C6.47713 22.0008 2 17.5229 2 12C2.00014 6.47721 6.47721 2.00014 12 2ZM10.6182 12.3838L6 17.7334H7.41309L11.2441 13.2949L14.2881 17.7334H17.9951L13.3037 10.8945L13.3115 10.9014L17.541 6H16.1279L12.6826 9.98926L9.94629 6H6.24023L10.6182 12.3838ZM15.9678 16.667H14.8477L8.26172 7.06641H9.38672L15.9678 16.667Z" fill="#323232"/>
</svg>
