<svg width="24" height="24" viewBox="0 0 24 24" fill="none" xmlns="http://www.w3.org/2000/svg">
<path fill-rule="evenodd" clip-rule="evenodd" d="M23.81 22.4798C23.8299 22.5 23.8498 22.5 23.87 22.5C23.91 22.5 23.9301 22.5 23.9701 22.4594C24.01 22.4188 24.01 22.3378 23.9701 22.2972C21.5898 19.7608 18.6695 17.7118 15.4091 16.3931C14.409 15.9873 14.409 15.9873 14.409 15.9873C13.8889 15.7638 13.5489 15.2568 13.5489 14.6684C13.6089 12.4975 18.6494 12.9439 19.1696 11.9091C19.2496 11.7265 19.2496 11.7265 19.2496 11.7265C18.2095 10.8134 16.9891 10.144 15.6292 9.7586C15.6093 9.8194 15.569 10.0628 15.849 10.5294C16.1494 11.0164 15.529 11.8077 14.609 10.9556C14.5289 10.8946 14.5289 10.8946 14.5289 10.8946C7.84823 4.68609 4.76809 8.7845 0.227613 1.56176C0.187582 1.50074 0.127649 1.48055 0.0674889 1.52115C0.00755532 1.56176 -0.0125733 1.62255 0.00755532 1.68335C3.58797 10.428 10.9087 8.5817 11.7688 16.7379C11.8088 17.0423 12.0289 17.2857 12.3288 17.3263C16.3891 17.9756 20.3497 19.6799 23.7901 22.4798H23.81Z" fill="#DF0000"/>
</svg>
