<svg width="24" height="24" viewBox="0 0 24 24" fill="none" xmlns="http://www.w3.org/2000/svg">
<path fill-rule="evenodd" clip-rule="evenodd" d="M2 12C2 17.52 6.48 22 12 22C17.52 22 22 17.52 22 12C22 6.48 17.52 2 12 2C6.48 2 2 6.48 2 12ZM12 4C16.4154 4 20 7.58457 20 12C20 16.4154 16.4154 20 12 20C7.58457 20 4 16.4154 4 12C4 7.58457 7.58457 4 12 4ZM9.17157 16.2426L12 13.4142L14.8284 16.2426L16.2426 14.8284L13.4142 12L16.2426 9.17157L14.8284 7.75736L12 10.5858L9.17157 7.75736L7.75736 9.17157L10.5858 12L7.75736 14.8284L9.17157 16.2426Z" fill="#323232"/>
</svg>
