<svg width="24" height="24" viewBox="0 0 24 24" fill="none" xmlns="http://www.w3.org/2000/svg">
<path fill-rule="evenodd" clip-rule="evenodd" d="M12.342 15.9935C12.342 15.3601 12.6676 15.2454 13.2716 15.5826C14.3822 16.2029 15.5391 16.8458 15.5391 16.8458C15.578 16.4907 15.8846 16.1903 16.5496 16.3455C17.1715 16.4907 17.8644 16.6432 17.8644 16.6432C17.8644 16.6432 17.4908 15.8005 17.323 15.4316C17.0189 14.7535 17.3125 14.4268 17.6087 14.3321C17.6087 14.3321 17.1836 14.0433 16.9053 13.8491C16.3055 13.4331 16.4471 13.0279 17.0279 12.7765C17.8238 12.4371 18.8071 11.9941 18.8071 11.9941C18.4962 11.81 18.1263 11.295 18.5388 10.6957C18.9465 10.1028 19.5547 9.27581 19.5547 9.27581C19.5547 9.27581 18.4789 9.28686 17.7623 9.27581C17.1115 9.26847 16.9521 8.75339 16.9595 8.38147C16.9595 8.38147 15.9005 9.13009 15.1429 9.64248C14.5042 10.0728 13.926 9.65359 14.0207 8.91494C14.1727 7.75857 14.3085 6.4812 14.3085 6.4812C13.9155 6.75002 13.2442 6.73689 12.9454 6.09608C12.5024 5.14228 11.9927 4.02538 11.9927 4.02538C11.9927 4.02538 11.4839 5.14228 11.042 6.09608C10.7442 6.73689 10.0677 6.75002 9.67569 6.4812C9.67569 6.4812 9.81199 7.75857 9.96135 8.91494C10.0576 9.65359 9.47946 10.0728 8.84343 9.64248C8.08586 9.13009 7.02579 8.38147 7.02579 8.38147C7.03104 8.75339 6.87428 9.26847 6.22189 9.27581C5.5064 9.28686 4.43158 9.27581 4.43158 9.27581C4.43158 9.27581 5.04027 10.1028 5.44646 10.6957C5.85838 11.295 5.48586 11.81 5.17919 11.9941C5.17919 11.9941 6.16296 12.4371 6.95367 12.7765C7.53926 13.0279 7.67973 13.4331 7.07785 13.8491C6.79852 14.0433 6.37448 14.3321 6.37448 14.3321C6.67273 14.4268 6.96471 14.7535 6.65859 15.4316C6.49232 15.8005 6.11987 16.6432 6.11987 16.6432C6.11987 16.6432 6.81273 16.4907 7.43508 16.3455C8.10216 16.1903 8.40889 16.4907 8.44727 16.8458C8.44727 16.8458 9.60155 16.2029 10.7142 15.5826C11.3171 15.2454 11.6396 15.3601 11.6433 15.9935V17.5471C11.6433 18.4425 11.486 19.4263 11.143 19.9482C6.88108 19.4826 3.35677 16.0761 3.34788 11.5775C3.34209 6.94625 7.21886 3.19312 11.9905 3.19312C16.757 3.19312 20.6274 6.94625 20.6274 11.5775C20.6274 15.9073 17.2609 19.4452 12.9523 19.9092V21.0446C18.0164 20.5826 21.9774 16.5196 21.9774 11.5775C21.9774 6.32652 17.5051 2.06726 11.9905 2.06726C6.47232 2.06726 2 6.32652 2 11.5775C2 16.2008 5.46485 20.0471 10.0576 20.9078C10.8341 21.054 11.3281 21.1692 11.7348 21.6701C12.2257 20.7736 12.342 18.8723 12.342 17.7986C12.3414 17.7986 12.342 16.4881 12.342 15.9935Z" fill="#EC1D24"/>
</svg>
