<svg width="48" height="48" viewBox="0 0 48 48" fill="none" xmlns="http://www.w3.org/2000/svg">
<path d="M13.1296 9.11022C12.6496 8.73022 12.0196 8.61022 11.4296 8.77022L10.0196 9.18022C9.50961 9.33022 9.29961 9.95022 9.62961 10.3802L13.8796 15.9602C14.3596 16.5902 15.1596 16.8502 15.9096 16.6402L20.7896 15.2402L13.1296 9.12022V9.11022Z" fill="#8DE2E0"/>
<path d="M6.42063 30.35C5.94063 29.97 5.31063 29.85 4.72063 30.01L3.31063 30.42C2.80063 30.57 2.59063 31.19 2.92063 31.62L7.17063 37.2C7.65063 37.83 8.45063 38.09 9.20063 37.88L14.0806 36.48L6.42063 30.36V30.35Z" fill="#8DE2E0"/>
<path d="M46.21 7.94019L46.16 7.77019C45.95 6.98019 45.45 5.13019 43.74 4.15019C42.5 3.44019 40.91 3.36019 39.01 3.89019L31.21 6.11019L22.82 2.91019C21.22 2.39019 19.45 2.66019 18.09 3.61019C17.85 3.78019 17.7 4.04019 17.67 4.34019C17.64 4.63019 17.74 4.92019 17.95 5.13019C18.84 6.05019 20.56 7.68019 21.75 8.81019L16.3 10.3602L13.77 8.34019C13.04 7.76019 12.07 7.57019 11.18 7.83019L9.76 8.24019C9.2 8.40019 8.76 8.82019 8.58 9.38019C8.4 9.93019 8.5 10.5402 8.85 11.0102L13.1 16.5902C13.66 17.3302 14.51 17.7402 15.4 17.7402C15.67 17.7402 15.94 17.7002 16.21 17.6302L21.09 16.2302L23.94 15.4102L22.2 22.9302C22.13 23.2402 22.2 23.5702 22.42 23.8202C22.61 24.0402 22.89 24.1602 23.17 24.1602C23.2 24.1602 23.23 24.1602 23.27 24.1602C25.25 23.9702 27.05 22.9302 28.21 21.2902C29.51 19.3102 33.18 13.8602 34.08 12.5102L45.54 9.22019C46.07 9.07019 46.38 8.51019 46.23 7.98019L46.21 7.94019ZM20.38 4.74019C20.97 4.60019 21.59 4.62019 22.15 4.80019L27.99 7.03019L23.98 8.17019C23.23 7.47019 21.6 5.93019 20.38 4.74019ZM15.64 15.6802C15.29 15.7802 14.91 15.6602 14.68 15.3602L10.64 10.0502L11.72 9.74019C12 9.66019 12.3 9.72019 12.52 9.90019L18.67 14.8102L15.65 15.6802H15.64ZM33.16 10.6402C32.93 10.7002 32.74 10.8502 32.61 11.0402C32.56 11.1102 28.01 17.8702 26.54 20.1102C26.02 20.8402 25.31 21.4102 24.5 21.7502L26.26 14.1602C26.34 13.8102 26.23 13.4502 25.97 13.2102C25.71 12.9702 25.34 12.8702 25 12.9802L21.01 14.1302L18.21 11.8902L39.55 5.82019C40.92 5.44019 41.99 5.46019 42.75 5.89019C43.42 6.27019 43.78 6.94019 44 7.53019L33.16 10.6402Z" fill="#323232"/>
<path d="M39.4393 29.0104C39.2293 28.2204 38.7293 26.3704 37.0193 25.3904C35.7793 24.6804 34.1893 24.6004 32.2893 25.1304L24.4893 27.3504L16.0993 24.1504C14.4993 23.6304 12.7393 23.9004 11.3693 24.8504C11.1293 25.0204 10.9793 25.2804 10.9493 25.5804C10.9193 25.8704 11.0193 26.1604 11.2293 26.3704C12.1193 27.2904 13.8393 28.9204 15.0293 30.0504L9.57929 31.6004L7.04929 29.5804C6.31929 29.0104 5.34929 28.8104 4.45929 29.0704L3.03929 29.4804C2.47929 29.6404 2.03929 30.0604 1.85929 30.6204C1.67929 31.1704 1.77929 31.7804 2.12929 32.2504L6.37929 37.8304C6.93929 38.5704 7.78929 38.9804 8.67929 38.9804C8.94929 38.9804 9.21929 38.9404 9.48929 38.8704L14.3693 37.4704L17.2193 36.6504L15.4793 44.1704C15.4093 44.4804 15.4793 44.8104 15.6993 45.0604C15.8893 45.2804 16.1693 45.4004 16.4493 45.4004C16.4793 45.4004 16.5093 45.4004 16.5493 45.4004C18.5293 45.2104 20.3293 44.1704 21.4893 42.5304C22.7893 40.5504 26.4593 35.1004 27.3593 33.7504L38.8193 30.4604C39.3493 30.3104 39.6593 29.7504 39.5093 29.2204L39.4593 29.0504L39.4393 29.0104ZM13.6593 25.9804C14.2493 25.8404 14.8693 25.8604 15.4293 26.0404L21.2693 28.2704L17.2593 29.4104C16.5093 28.7104 14.8793 27.1704 13.6593 25.9804ZM8.91929 36.9104C8.55929 37.0104 8.17929 36.8904 7.95929 36.5904L3.91929 31.2804L4.99929 30.9704C5.27929 30.8904 5.57929 30.9504 5.79929 31.1304L11.9493 36.0404L8.92929 36.9104H8.91929ZM26.4393 31.8704C26.2093 31.9304 26.0193 32.0804 25.8893 32.2704C25.8393 32.3404 21.2893 39.1004 19.8193 41.3404C19.2993 42.0704 18.5893 42.6404 17.7793 42.9804L19.5393 35.3904C19.6193 35.0404 19.5093 34.6804 19.2493 34.4404C18.9893 34.1904 18.6193 34.1004 18.2793 34.2104L14.2893 35.3604L11.4793 33.1204L32.8193 27.0504C34.1793 26.6704 35.2593 26.6904 36.0193 27.1204C36.6893 27.5004 37.0493 28.1704 37.2693 28.7604L26.4293 31.8704H26.4393Z" fill="#323232"/>
</svg>
