<svg width="48" height="48" viewBox="0 0 48 48" fill="none" xmlns="http://www.w3.org/2000/svg">
<path d="M33.8803 46.7502C33.3303 46.7502 32.8803 46.3002 32.8803 45.7502V40.5302C32.8803 36.3402 30.1403 33.7402 25.7403 33.7402H22.2103C17.8103 33.7402 15.0703 36.3402 15.0703 40.5302V45.6702C15.0703 46.2202 14.6203 46.6702 14.0703 46.6702C13.5203 46.6702 13.0703 46.2202 13.0703 45.6702V40.5302C13.0703 35.1902 16.6603 31.7402 22.2103 31.7402H25.7403C31.2903 31.7402 34.8803 35.1902 34.8803 40.5302V45.7502C34.8803 46.3002 34.4303 46.7502 33.8803 46.7502Z" fill="#323232"/>
<path d="M18.5 46.5702C17.95 46.5702 17.5 46.1202 17.5 45.5702V40.4302C17.5 39.8802 17.95 39.4302 18.5 39.4302C19.05 39.4302 19.5 39.8802 19.5 40.4302V45.5702C19.5 46.1202 19.05 46.5702 18.5 46.5702Z" fill="#323232"/>
<path d="M29.4395 46.5702C28.8895 46.5702 28.4395 46.1202 28.4395 45.5702V40.4302C28.4395 39.8802 28.8895 39.4302 29.4395 39.4302C29.9895 39.4302 30.4395 39.8802 30.4395 40.4302V45.5702C30.4395 46.1202 29.9895 46.5702 29.4395 46.5702Z" fill="#323232"/>
<path d="M23.9701 30.4001C20.8601 30.4001 18.3301 27.8701 18.3301 24.7601C18.3301 21.6501 20.8601 19.1201 23.9701 19.1201C27.0801 19.1201 29.6101 21.6501 29.6101 24.7601C29.6101 27.8701 27.0801 30.4001 23.9701 30.4001ZM23.9701 21.1201C21.9601 21.1201 20.3301 22.7501 20.3301 24.7601C20.3301 26.7701 21.9601 28.4001 23.9701 28.4001C25.9801 28.4001 27.6101 26.7701 27.6101 24.7601C27.6101 22.7501 25.9801 21.1201 23.9701 21.1201Z" fill="#323232"/>
<path d="M10.0996 27.1699C5.68961 27.1699 2.09961 23.5799 2.09961 19.1699C2.09961 14.7599 5.68961 11.1699 10.0996 11.1699C14.5096 11.1699 18.0996 14.7599 18.0996 19.1699C18.0996 23.5799 14.5096 27.1699 10.0996 27.1699ZM10.0996 13.1699C6.78961 13.1699 4.09961 15.8599 4.09961 19.1699C4.09961 22.4799 6.78961 25.1699 10.0996 25.1699C13.4096 25.1699 16.0996 22.4799 16.0996 19.1699C16.0996 15.8599 13.4096 13.1699 10.0996 13.1699Z" fill="#323232"/>
<path d="M15.41 19.17H11.98C11.98 18.46 11.58 17.84 11 17.52L12.64 14.5C14.29 15.4 15.41 17.15 15.41 19.17Z" fill="#DF0000"/>
<path d="M8.23078 19.1698V19.2198L4.80078 19.3098V19.1698C4.80078 17.2098 5.87078 15.4898 7.45078 14.5698L9.17078 17.5498C8.61078 17.8698 8.23078 18.4798 8.23078 19.1698Z" fill="#DF0000"/>
<path d="M12.8712 23.6998C12.0612 24.1998 11.1112 24.4798 10.1012 24.4798C9.09117 24.4798 8.23117 24.2198 7.45117 23.7698L9.17117 20.7898C9.45117 20.9498 9.77117 21.0398 10.1112 21.0398C10.4712 21.0398 10.8012 20.9398 11.0912 20.7598L12.8812 23.6898L12.8712 23.6998Z" fill="#DF0000"/>
<path d="M10.0996 20.4199C10.79 20.4199 11.3496 19.8603 11.3496 19.1699C11.3496 18.4796 10.79 17.9199 10.0996 17.9199C9.40925 17.9199 8.84961 18.4796 8.84961 19.1699C8.84961 19.8603 9.40925 20.4199 10.0996 20.4199Z" fill="#DF0000"/>
<path d="M37.9004 27.1699C33.4904 27.1699 29.9004 23.5799 29.9004 19.1699C29.9004 14.7599 33.4904 11.1699 37.9004 11.1699C42.3104 11.1699 45.9004 14.7599 45.9004 19.1699C45.9004 23.5799 42.3104 27.1699 37.9004 27.1699ZM37.9004 13.1699C34.5904 13.1699 31.9004 15.8599 31.9004 19.1699C31.9004 22.4799 34.5904 25.1699 37.9004 25.1699C41.2104 25.1699 43.9004 22.4799 43.9004 19.1699C43.9004 15.8599 41.2104 13.1699 37.9004 13.1699Z" fill="#323232"/>
<path d="M23.9707 17.25C19.5607 17.25 15.9707 13.66 15.9707 9.25C15.9707 4.84 19.5607 1.25 23.9707 1.25C28.3807 1.25 31.9707 4.84 31.9707 9.25C31.9707 13.66 28.3807 17.25 23.9707 17.25ZM23.9707 3.25C20.6607 3.25 17.9707 5.94 17.9707 9.25C17.9707 12.56 20.6607 15.25 23.9707 15.25C27.2807 15.25 29.9707 12.56 29.9707 9.25C29.9707 5.94 27.2807 3.25 23.9707 3.25Z" fill="#323232"/>
<path d="M23.9691 6.57959C23.3791 6.57959 22.8191 6.76959 22.3591 7.11959C22.3791 7.16959 22.4091 7.20959 22.4391 7.24959C22.5391 7.40959 22.6591 7.53959 22.7991 7.65959C23.1291 7.41959 23.5391 7.26959 23.9691 7.26959C24.3991 7.26959 24.8191 7.40959 25.1391 7.65959C25.2791 7.53959 25.3991 7.39959 25.4991 7.24959C25.5291 7.20959 25.5491 7.15959 25.5791 7.11959C25.1191 6.76959 24.5591 6.57959 23.9691 6.57959ZM26.6191 8.91959H26.4691C26.2791 8.91959 26.0991 8.95959 25.9291 9.02959C25.9291 9.09959 25.9391 9.17959 25.9391 9.24959C25.9391 10.0596 25.4491 10.7596 24.7491 11.0596C24.7791 11.2396 24.8391 11.4096 24.9291 11.5796C24.9491 11.6296 24.9791 11.6696 25.0091 11.7096C25.3191 11.5796 25.6091 11.3796 25.8591 11.1396C26.3591 10.6396 26.6391 9.95959 26.6391 9.24959C26.6391 9.13959 26.6391 9.02959 26.6191 8.91959ZM21.9891 9.24959C21.9891 9.16959 21.9891 9.09959 21.9991 9.02959C21.8291 8.96959 21.6491 8.92959 21.4591 8.91959H21.3091C21.2991 9.02959 21.2891 9.13959 21.2891 9.24959C21.2891 9.95959 21.5691 10.6396 22.0691 11.1396C22.3191 11.3896 22.6091 11.5796 22.9191 11.7096C22.9491 11.6696 22.9691 11.6196 22.9991 11.5796C23.0891 11.4196 23.1391 11.2396 23.1791 11.0596C22.4791 10.7596 21.9891 10.0596 21.9891 9.24959Z" fill="#DF0000"/>
<path d="M19.4295 11.3996L19.2895 11.4796C18.7295 10.1196 19.2495 8.52959 20.5595 7.76959C20.7095 7.67959 20.8695 7.60959 21.0395 7.54959C21.0095 7.37959 20.9895 7.20959 20.9895 7.02959C20.9895 5.51959 22.1095 4.26959 23.5695 4.07959V4.23959C22.6195 4.42959 21.8995 5.25959 21.8995 6.26959C21.8995 6.67959 22.0195 7.05959 22.2195 7.37959C22.5395 7.88959 23.0795 8.23959 23.7095 8.31959H23.7995V8.65959C23.5495 8.72959 23.3595 8.95959 23.3595 9.23959C23.3595 9.28959 23.3595 9.33959 23.3795 9.38959L23.0895 9.55959C23.0895 9.55959 23.0495 9.50959 23.0395 9.48959C22.6595 8.98959 22.0795 8.69959 21.4795 8.66959C21.0995 8.64959 20.7095 8.73959 20.3495 8.94959C19.4795 9.44959 19.1095 10.4896 19.4295 11.4096V11.3996Z" fill="#DF0000"/>
<path d="M28.109 12.0997L28.249 12.1797C27.349 13.3397 25.709 13.6897 24.409 12.9397C24.259 12.8497 24.109 12.7497 23.979 12.6397C23.849 12.7497 23.699 12.8497 23.549 12.9397C22.239 13.6897 20.599 13.3497 19.709 12.1797L19.849 12.0997C20.489 12.8297 21.569 13.0297 22.439 12.5297C22.789 12.3297 23.069 12.0297 23.239 11.6897C23.519 11.1597 23.559 10.5097 23.309 9.92969C23.299 9.89969 23.289 9.86969 23.269 9.84969L23.559 9.67969C23.669 9.77969 23.819 9.84969 23.979 9.84969C24.139 9.84969 24.289 9.78969 24.399 9.67969L24.689 9.84969C24.689 9.84969 24.659 9.90969 24.649 9.92969C24.409 10.5097 24.439 11.1497 24.719 11.6897C24.899 12.0297 25.169 12.3197 25.519 12.5297C26.389 13.0297 27.469 12.8297 28.109 12.0997Z" fill="#DF0000"/>
<path d="M28.6487 11.4798L28.5087 11.3998C28.8187 10.4798 28.4587 9.43982 27.5887 8.93982C27.2387 8.73982 26.8487 8.64982 26.4587 8.65982C25.8587 8.68982 25.2787 8.97982 24.8987 9.47982C24.8787 9.49982 24.8587 9.52982 24.8487 9.54982L24.5587 9.37982C24.5587 9.37982 24.5787 9.27982 24.5787 9.22982C24.5787 8.94982 24.3987 8.71982 24.1387 8.64982V8.30982H24.2287C24.8487 8.22982 25.3887 7.87982 25.7187 7.36982C25.9287 7.04982 26.0387 6.66982 26.0387 6.25982C26.0387 5.25982 25.3187 4.41982 24.3687 4.22982V4.06982C25.8287 4.26982 26.9487 5.50982 26.9487 7.01982C26.9487 7.19982 26.9287 7.36982 26.8987 7.53982C27.0587 7.59982 27.2187 7.66982 27.3787 7.75982C28.6887 8.50982 29.2087 10.1098 28.6487 11.4698V11.4798Z" fill="#DF0000"/>
<path d="M40.8697 23.44C40.7197 23.44 40.5897 23.36 40.5197 23.22L40.2697 22.71H40.2497C39.6897 22.48 38.8397 22.18 37.9197 21.86H37.8797C36.9597 22.18 36.1197 22.48 35.5497 22.7H35.5297L35.2797 23.22C35.2097 23.35 35.0797 23.44 34.9297 23.44C34.8697 23.44 34.8097 23.43 34.7597 23.4C34.5697 23.31 34.4897 23.08 34.5797 22.88L34.7297 22.57L34.4197 22.42C34.3297 22.37 34.2597 22.3 34.2197 22.2C34.1897 22.1 34.1897 22 34.2397 21.9C34.3097 21.77 34.4397 21.68 34.5897 21.68C34.6497 21.68 34.7097 21.69 34.7597 21.72L35.2697 21.97H35.2897C35.6397 21.86 36.0997 21.71 36.6097 21.54L36.7897 21.48L36.6097 21.42C36.0997 21.25 35.6397 21.1 35.2897 21H35.2697L34.7597 21.24C34.7597 21.24 34.6497 21.28 34.5897 21.28C34.4397 21.28 34.3097 21.2 34.2397 21.06C34.1897 20.97 34.1897 20.86 34.2197 20.76C34.2497 20.66 34.3197 20.58 34.4197 20.54L34.7297 20.39L34.5797 20.08C34.4897 19.89 34.5797 19.66 34.7597 19.56C34.8097 19.53 34.8697 19.52 34.9297 19.52C35.0797 19.52 35.2097 19.6 35.2797 19.74L35.5297 20.25H35.5497C36.1097 20.48 36.9597 20.78 37.8797 21.1H37.9197C38.8397 20.78 39.6797 20.48 40.2497 20.26H40.2697L40.5197 19.74C40.5897 19.61 40.7197 19.52 40.8697 19.52C40.9297 19.52 40.9897 19.53 41.0397 19.56C41.1297 19.61 41.1997 19.68 41.2397 19.78C41.2697 19.88 41.2697 19.98 41.2197 20.08L41.0697 20.39L41.3797 20.54C41.4697 20.59 41.5397 20.66 41.5797 20.76C41.6097 20.86 41.6097 20.96 41.5597 21.06C41.4897 21.19 41.3597 21.28 41.2097 21.28C41.1497 21.28 41.0897 21.27 41.0397 21.24L40.5297 20.99H40.5097C40.1597 21.1 39.6997 21.25 39.1897 21.42L39.0097 21.48L39.1897 21.54C39.6997 21.71 40.1597 21.86 40.5097 21.96H40.5297L41.0397 21.72C41.0397 21.72 41.1497 21.68 41.2097 21.68C41.3597 21.68 41.4897 21.76 41.5597 21.9C41.6097 21.99 41.6097 22.1 41.5797 22.2C41.5497 22.3 41.4797 22.38 41.3797 22.42L41.0697 22.57L41.2197 22.88C41.2697 22.97 41.2697 23.08 41.2397 23.18C41.2097 23.28 41.1397 23.36 41.0397 23.4C40.9897 23.43 40.9297 23.44 40.8697 23.44Z" fill="#DF0000"/>
<path d="M40.8499 16.6798C40.7799 15.2898 39.3999 14.2798 37.9499 14.2598H37.8699C36.4199 14.2798 35.0399 15.2898 34.9699 16.6798C34.8699 18.5298 35.3599 19.3598 36.2399 19.3298V19.8598C36.2399 20.0598 36.3999 20.2198 36.5999 20.2198C36.7499 20.2198 36.8599 20.1098 36.9099 19.9798C36.9299 20.1598 37.0699 20.3098 37.2599 20.3098C37.4199 20.3098 37.5299 20.1898 37.5799 20.0498C37.6099 20.2198 37.7399 20.3498 37.9199 20.3498C38.0999 20.3498 38.2299 20.2098 38.2599 20.0498C38.3099 20.1898 38.4199 20.3098 38.5799 20.3098C38.7699 20.3098 38.9099 20.1598 38.9299 19.9798C38.9799 20.1098 39.0899 20.2198 39.2399 20.2198C39.4399 20.2198 39.5999 20.0598 39.5999 19.8598V19.3298C40.4799 19.3598 40.9699 18.5298 40.8699 16.6798H40.8499ZM36.7099 19.0198C36.2599 19.0198 35.8999 18.5898 35.8999 18.2498C35.8999 17.9098 36.2599 17.6298 36.7099 17.6298C37.1599 17.6298 37.5199 17.9098 37.5199 18.2498C37.5199 18.5898 37.1599 19.0198 36.7099 19.0198ZM38.1999 19.5398C38.0799 19.5998 37.9599 19.5398 37.8999 19.4398C37.8399 19.5398 37.7199 19.5898 37.5999 19.5398C37.4399 19.4598 37.4299 19.2398 37.5699 19.1398L37.8899 18.9198L38.2099 19.1398C38.3599 19.2398 38.3399 19.4598 38.1799 19.5398H38.1999ZM39.0899 19.0198C38.6399 19.0198 38.2799 18.5898 38.2799 18.2498C38.2799 17.9098 38.6399 17.6298 39.0899 17.6298C39.5399 17.6298 39.8999 17.9098 39.8999 18.2498C39.8999 18.5898 39.5399 19.0198 39.0899 19.0198Z" fill="#DF0000"/>
</svg>
