<svg width="48" height="48" viewBox="0 0 48 48" fill="none" xmlns="http://www.w3.org/2000/svg">
<path d="M19.8906 9.87012H25.7306V23.3101H28.5706V25.9801H19.8906V23.3101H22.6806V12.5901H19.8906V9.87012Z" fill="#DF0000"/>
<path d="M18.2603 44.7607L22.4503 36.5407C22.5303 36.3907 22.4303 36.2207 22.2603 36.2007C17.9603 35.7907 14.0903 33.8707 11.1903 30.9907C11.0803 30.8807 10.8903 30.9007 10.8103 31.0507L7.06031 38.5207C6.98031 38.6807 7.10031 38.8807 7.29031 38.8607L13.9803 38.4407C14.0703 38.4407 14.1503 38.4807 14.2003 38.5607L17.8403 44.7707C17.9403 44.9307 18.1703 44.9207 18.2603 44.7607Z" fill="#8DE2E0"/>
<path d="M30.1595 44.7706L33.7995 38.5606C33.8495 38.4806 33.9295 38.4406 34.0195 38.4406L40.7095 38.8606C40.8895 38.8706 41.0195 38.6806 40.9395 38.5206L37.1895 31.0506C37.1195 30.9106 36.9295 30.8806 36.8095 30.9906C33.9095 33.8806 30.0395 35.7906 25.7395 36.2006C25.5695 36.2206 25.4695 36.3906 25.5495 36.5406L29.7395 44.7606C29.8295 44.9306 30.0595 44.9306 30.1595 44.7706Z" fill="#8DE2E0"/>
<path d="M18.0599 46.1402C17.7099 46.1402 17.3799 45.9502 17.1999 45.6502L13.5699 39.4702L6.92995 39.8902C6.57995 39.9102 6.22995 39.7402 6.02995 39.4402C5.82995 39.1402 5.80995 38.7602 5.96995 38.4402L9.59995 31.2002C9.84995 30.7102 10.4499 30.5102 10.9399 30.7602C11.4299 31.0102 11.6299 31.6102 11.3799 32.1002L8.52995 37.7802L14.0399 37.4302C14.4199 37.4102 14.7799 37.6002 14.9599 37.9202L17.9699 43.0602L21.2199 36.6902C21.4699 36.2002 22.0699 36.0002 22.5599 36.2502C23.0499 36.5002 23.2499 37.1002 22.9999 37.6002L18.9199 45.6002C18.7499 45.9302 18.4199 46.1302 18.0599 46.1402C18.0599 46.1402 18.0399 46.1402 18.0299 46.1402H18.0599Z" fill="#323232"/>
<path d="M29.9391 46.1402C29.9391 46.1402 29.9191 46.1402 29.9091 46.1402C29.5391 46.1302 29.2091 45.9202 29.0491 45.6002L24.9691 37.6002C24.7191 37.1102 24.9091 36.5102 25.4091 36.2502C25.8991 36.0002 26.4991 36.1902 26.7491 36.6902L29.9991 43.0602L33.0091 37.9202C33.1991 37.6002 33.5691 37.4002 33.9291 37.4302L39.4391 37.7802L36.5891 32.1002C36.3391 31.6102 36.5391 31.0102 37.0291 30.7602C37.5291 30.5102 38.1291 30.7102 38.3691 31.2002L41.9991 38.4302C42.1591 38.7502 42.1391 39.1302 41.9391 39.4302C41.7391 39.7302 41.3991 39.9002 41.0391 39.8802L34.3991 39.4602L30.7691 45.6402C30.5891 45.9502 30.2591 46.1302 29.9091 46.1302L29.9391 46.1402Z" fill="#323232"/>
<path d="M23.9997 34.4298C14.9997 34.4298 7.67969 27.1098 7.67969 18.1098C7.67969 9.10981 14.9997 1.7998 23.9997 1.7998C32.9997 1.7998 40.3197 9.11981 40.3197 18.1198C40.3197 27.1198 32.9997 34.4398 23.9997 34.4398V34.4298ZM23.9997 3.7998C16.1097 3.7998 9.67969 10.2198 9.67969 18.1198C9.67969 26.0198 16.0997 32.4398 23.9997 32.4398C31.8997 32.4398 38.3197 26.0198 38.3197 18.1198C38.3197 10.2198 31.8897 3.7998 23.9997 3.7998Z" fill="#323232"/>
</svg>
