<svg width="101" height="30" viewBox="0 0 101 30" fill="none" xmlns="http://www.w3.org/2000/svg">
<path d="M69.5811 29.8303H100.002L75.6252 5.34706C72.3775 2.09937 67.9712 0.16748 63.3772 0.16748H58.2762L58.6565 1.16385L60.345 5.59552L69.5811 29.8278V29.8303Z" fill="url(#paint0_linear_15605_2640)"/>
<path d="M60.3451 5.59778C63.6764 11.2844 72.4155 11.8853 73.3663 20.7284C73.4043 21.0934 73.6832 21.385 74.0457 21.4408C79.0833 22.2267 83.9891 24.3006 88.2509 27.7181H88.256C88.2839 27.7435 88.3143 27.7536 88.3498 27.7536C88.3853 27.7536 88.4258 27.7409 88.4537 27.7131C88.5146 27.6547 88.5171 27.5584 88.4588 27.4976C85.5077 24.3944 81.9 21.9174 77.8512 20.2872L76.619 19.7903C75.9852 19.5342 75.5466 18.9055 75.5644 18.1829C75.6328 15.5412 81.8823 16.0786 82.5161 14.8085L82.6251 14.5904C81.3372 13.4901 79.8084 12.6636 78.125 12.2022C78.1098 12.2656 78.0692 12.5749 78.4115 13.1326C78.7842 13.7386 78.0033 14.7045 76.8675 13.6625L76.7712 13.5738C68.3287 5.8361 61.9981 9.84945 58.6515 1.16357L60.34 5.59525L60.3451 5.59778Z" fill="white"/>
<path d="M80.6477 14.4486C80.6477 14.4486 79.2634 14.5171 78.4116 13.1328C78.6651 13.5435 78.3862 14.1216 77.8259 14.1241V16.2335C78.7361 15.9698 79.7756 15.8075 80.6477 15.6225V14.4486Z" fill="url(#paint1_linear_15605_2640)"/>
<path d="M75.0903 21.6236C79.7578 22.5211 84.2833 24.5392 88.251 27.7184C79.4079 20.1633 75.3794 21.5298 75.0903 21.6236Z" fill="url(#paint2_linear_15605_2640)"/>
<path d="M62.1223 5.99319C60.7482 5.01711 59.587 3.58214 58.6541 1.16602L60.3426 5.59769C63.6739 11.2843 72.4105 11.8852 73.3638 20.7257C72.4029 9.44118 67.4464 11.1271 62.1198 5.99319H62.1223Z" fill="url(#paint3_linear_15605_2640)"/>
<path d="M54.9576 3.3339V2.96121C54.9576 1.18398 53.6875 0 51.8595 0C50.0316 0 48.7437 1.25243 48.7437 2.80909C48.7437 4.36576 49.7096 5.14409 50.962 5.73735L52.2145 6.3306C53.1449 6.77174 53.9232 7.14443 53.9232 8.42982C53.9232 9.46168 53.1956 10.3769 51.8418 10.3769C50.4879 10.3769 49.7755 9.58083 49.7755 8.56672V8.05966H48.5231V8.5008C48.5231 10.278 49.9276 11.4646 51.857 11.4646C53.9055 11.4646 55.1579 10.1437 55.1579 8.29798C55.1579 6.45229 53.8548 5.72467 52.6024 5.13141L51.3499 4.53816C50.5716 4.16547 49.9606 3.79278 49.9606 2.72796C49.9606 1.84822 50.6375 1.0851 51.824 1.0851C53.0105 1.0851 53.7382 1.84569 53.7382 2.89783V3.33897H54.9576V3.3339ZM44.7658 11.2922H46.1044L42.8871 0.169864H41.5663L38.3845 11.2922H39.6547L40.3316 8.73658H44.0737L44.7683 11.2922H44.7658ZM43.7517 7.61853H40.6536L42.195 1.89639L43.7517 7.61853ZM30.3603 1.32088H32.9666V11.2922H34.252V1.32088H36.876V0.169864H30.3578V1.32088H30.3603ZM27.1253 0.169864H25.9413V8.48306L21.7758 0.169864H20.6426V11.2922H21.8266V2.84459L26.0579 11.2922H27.1253V0.169864ZM16.0208 11.2922H17.3594L14.1421 0.169864H12.8212L9.63945 11.2922H10.9096L11.5865 8.73658H15.3286L16.0233 11.2922H16.0208ZM15.0041 7.61853H11.906L13.4474 1.89639L15.0041 7.61853ZM1.29076 3.43784C1.29076 2.13471 2.05134 1.15355 3.35702 1.15355C4.66269 1.15355 5.42327 2.13471 5.42327 3.43784V8.02671C5.42327 9.32984 4.6779 10.311 3.35702 10.311C2.03613 10.311 1.29076 9.32984 1.29076 8.02671V3.43784ZM6.55654 13.3736L5.10129 11.0538C6.10019 10.5113 6.70866 9.42872 6.70866 7.98868V3.4708C6.70866 1.33863 5.33707 0 3.35702 0C1.37696 0 0.00537109 1.33863 0.00537109 3.4708V7.99121C0.00537109 10.1234 1.35921 11.462 3.35702 11.462C3.52688 11.462 3.679 11.4443 3.83111 11.4113L4.99988 13.3762H6.55654V13.3736ZM51.8418 24.6835C53.0765 24.6835 53.8396 25.4973 53.8396 26.7143C53.8396 27.9312 53.0435 28.7121 51.7226 28.7121H49.8085V24.6835H51.8392H51.8418ZM51.4868 19.8234C52.8077 19.8234 53.6038 20.5333 53.6038 21.6336C53.6038 22.8353 52.8255 23.5807 51.606 23.5807H49.811V19.8234H51.4868ZM51.8088 29.8301C53.8396 29.8301 55.1605 28.6284 55.1605 26.765C55.1605 25.5126 54.6356 24.648 53.401 24.0725V24.0548C54.4506 23.4615 54.9069 22.6654 54.9069 21.5499C54.9069 19.8234 53.5176 18.7053 51.5375 18.7053H48.5231V29.8276H51.8063L51.8088 29.8301ZM43.1229 18.7079V26.5622C43.1229 27.8653 42.3953 28.8464 41.1429 28.8464C39.8904 28.8464 39.1451 27.8653 39.1451 26.5622V18.7079H37.8597V26.5292C37.8597 28.6614 39.1983 30 41.1429 30C43.0874 30 44.4109 28.6614 44.4109 26.5292V18.7079H43.1255H43.1229ZM30.6645 18.7079H29.3792V29.8301H34.9821V28.6791H30.6645V18.7079ZM24.3999 26.2909V26.7472C24.3999 27.949 23.6545 28.8464 22.3336 28.8464C21.0127 28.8464 20.3028 27.8653 20.3028 26.5622V21.9733C20.3028 20.6702 21.0482 19.689 22.3336 19.689C23.619 19.689 24.3999 20.5865 24.3999 21.7882V22.1609H25.6345V21.8212C25.6345 19.7904 24.2959 18.538 22.3514 18.538C20.4068 18.538 19.0327 19.8766 19.0327 22.0088V26.5292C19.0327 28.6614 20.3865 30 22.3514 30C24.3162 30 25.6345 28.7476 25.6345 26.7168V26.2934H24.3999V26.2909Z" fill="#323232"/>
<defs>
<linearGradient id="paint0_linear_15605_2640" x1="84.7167" y1="29.7213" x2="64.4243" y2="0.0863482" gradientUnits="userSpaceOnUse">
<stop stop-color="#BE0000"/>
<stop offset="0.39" stop-color="#DD0000"/>
<stop offset="0.77" stop-color="#F60000"/>
<stop offset="1" stop-color="#FF0000"/>
</linearGradient>
<linearGradient id="paint1_linear_15605_2640" x1="79.1088" y1="16.3425" x2="79.3826" y2="13.2165" gradientUnits="userSpaceOnUse">
<stop offset="0.65" stop-color="white" stop-opacity="0"/>
<stop offset="0.69" stop-color="#ECECEC" stop-opacity="0.0529"/>
<stop offset="0.76" stop-color="#D6D6D6" stop-opacity="0.25"/>
<stop offset="0.81" stop-color="#C5C5C5" stop-opacity="0.5184"/>
<stop offset="0.87" stop-color="#B9B9B9" stop-opacity="0.7569"/>
<stop offset="0.91" stop-color="#B1B1B1" stop-opacity="0.9409"/>
<stop offset="0.95" stop-color="#AFAFAF"/>
</linearGradient>
<linearGradient id="paint2_linear_15605_2640" x1="75.0903" y1="24.595" x2="88.251" y2="24.595" gradientUnits="userSpaceOnUse">
<stop stop-color="white" stop-opacity="0"/>
<stop offset="0.07" stop-color="#F3F3F3" stop-opacity="0.0225"/>
<stop offset="0.21" stop-color="#DEDEDE" stop-opacity="0.1681"/>
<stop offset="0.35" stop-color="#CDCDCD" stop-opacity="0.3844"/>
<stop offset="0.49" stop-color="#C0C0C0" stop-opacity="0.6241"/>
<stop offset="0.63" stop-color="#B6B6B6" stop-opacity="0.8281"/>
<stop offset="0.77" stop-color="#B0B0B0" stop-opacity="0.9604"/>
<stop offset="0.9" stop-color="#AFAFAF"/>
</linearGradient>
<linearGradient id="paint3_linear_15605_2640" x1="58.6566" y1="10.9471" x2="73.3663" y2="10.9471" gradientUnits="userSpaceOnUse">
<stop offset="0.25" stop-color="white" stop-opacity="0"/>
<stop offset="0.36" stop-color="#F6F6F6" stop-opacity="0.0121"/>
<stop offset="0.58" stop-color="#E0E0E0" stop-opacity="0.1444"/>
<stop offset="0.88" stop-color="#BDBDBD" stop-opacity="0.6724"/>
<stop offset="1" stop-color="#AFAFAF"/>
</linearGradient>
</defs>
</svg>
