<svg width="48" height="48" viewBox="0 0 48 48" fill="none" xmlns="http://www.w3.org/2000/svg">
<path d="M24 20.24C23.45 20.24 23 19.79 23 19.24V15.54C23 14.99 23.45 14.54 24 14.54C24.55 14.54 25 14.99 25 15.54V19.24C25 19.79 24.55 20.24 24 20.24Z" fill="#DF0000"/>
<path d="M16.1196 25.8701C16.7196 26.9001 16.3796 28.2201 15.3496 28.8201C14.3196 29.4201 12.9996 29.0801 12.3996 28.0501C11.9996 27.3801 11.9996 26.5401 12.3996 25.8701" fill="#8DE2E0"/>
<path d="M35.5999 25.8701C35.9999 26.5401 35.9999 27.3801 35.5999 28.0501C34.9999 29.0801 33.6799 29.4201 32.6499 28.8201C31.6199 28.2201 31.2799 26.9001 31.8799 25.8701" fill="#8DE2E0"/>
<path d="M9.15984 26.04C9.67984 26.92 9.37984 28.05 8.49984 28.57C7.61984 29.09 6.48984 28.79 5.96984 27.91C5.62984 27.33 5.62984 26.62 5.96984 26.04" fill="#8DE2E0"/>
<path d="M42.0295 26.04C42.3695 26.62 42.3695 27.33 42.0295 27.91C41.5095 28.79 40.3795 29.09 39.4995 28.57C38.6195 28.05 38.3195 26.92 38.8395 26.04" fill="#8DE2E0"/>
<path d="M25.0799 22.71H22.9199C22.3699 22.71 21.9199 23.16 21.9199 23.71C21.9199 24.26 22.3699 24.71 22.9199 24.71H25.0799C25.6299 24.71 26.0799 24.26 26.0799 23.71C26.0799 23.16 25.6299 22.71 25.0799 22.71Z" fill="#323232"/>
<path d="M45.1201 24.8699H29.8601C29.7701 24.0499 29.5701 23.2699 29.2901 22.5599H32.6201C33.1701 22.5599 33.6201 22.1099 33.6201 21.5599C33.6201 21.0099 33.1701 20.5599 32.6201 20.5599H28.1401C27.0701 19.2299 25.6101 18.3999 23.9901 18.3999C22.3701 18.3999 20.9101 19.2199 19.8401 20.5599H15.6201C15.0701 20.5599 14.6201 21.0099 14.6201 21.5599C14.6201 22.1099 15.0701 22.5599 15.6201 22.5599H18.6901C18.4101 23.2699 18.2101 24.0499 18.1201 24.8699H2.87012C2.32012 24.8699 1.87012 25.3199 1.87012 25.8699C1.87012 26.4199 2.32012 26.8699 2.87012 26.8699H4.72012C4.70012 27.3999 4.82012 27.9399 5.10012 28.4199C5.63012 29.3199 6.58012 29.8299 7.56012 29.8299C8.05012 29.8299 8.54012 29.6999 9.00012 29.4399C9.66012 29.0499 10.1201 28.4399 10.3201 27.6999C10.3901 27.4299 10.4101 27.1499 10.4001 26.8699H11.1201C11.1001 27.4499 11.2401 28.0399 11.5401 28.5599C11.9701 29.2899 12.6501 29.8099 13.4701 30.0199C13.7401 30.0899 14.0001 30.1199 14.2701 30.1199C14.8201 30.1199 15.3701 29.9699 15.8601 29.6799C16.8901 29.0799 17.4301 27.9799 17.4001 26.8699H18.1201C18.4901 30.5799 20.9801 33.4599 24.0001 33.4599C27.0201 33.4599 29.5101 30.5799 29.8801 26.8699H30.6001C30.6001 27.1699 30.6101 27.4599 30.6901 27.7599C30.9001 28.5799 31.4201 29.2599 32.1501 29.6899C32.6401 29.9799 33.1901 30.1299 33.7401 30.1299C34.0101 30.1299 34.2801 30.0999 34.5401 30.0299C35.3601 29.8199 36.0401 29.2999 36.4701 28.5699C36.7801 28.0499 36.9101 27.4599 36.8901 26.8799H37.6101C37.5701 27.8899 38.0701 28.8999 39.0001 29.4399C39.4401 29.6999 39.9401 29.8299 40.4401 29.8299C40.6801 29.8299 40.9201 29.7999 41.1601 29.7399C41.9001 29.5499 42.5101 29.0799 42.9001 28.4199C43.1801 27.9399 43.3001 27.4099 43.2801 26.8699H45.1301C45.6801 26.8699 46.1301 26.4199 46.1301 25.8699C46.1301 25.3199 45.6801 24.8699 45.1301 24.8699H45.1201ZM8.38012 27.1899C8.32012 27.4099 8.18012 27.5899 7.99012 27.7099C7.58012 27.9499 7.07012 27.8099 6.83012 27.4099C6.73012 27.2499 6.70012 27.0599 6.73012 26.8699H8.40012C8.41012 26.9799 8.40012 27.0799 8.38012 27.1899ZM14.8401 27.9599C14.5701 28.1199 14.2601 28.1599 13.9601 28.0799C13.6601 27.9999 13.4101 27.8099 13.2501 27.5499C13.1301 27.3399 13.0801 27.1099 13.1001 26.8699H15.3901C15.4201 27.2999 15.2301 27.7299 14.8301 27.9599H14.8401ZM24.0001 31.4599C21.8301 31.4599 20.0701 28.9799 20.0701 25.9299C20.0701 22.8799 21.8301 20.3999 24.0001 20.3999C26.1701 20.3999 27.9301 22.8799 27.9301 25.9299C27.9301 28.9799 26.1701 31.4599 24.0001 31.4599ZM34.7401 27.5499C34.4201 28.0999 33.7101 28.2799 33.1601 27.9599C32.7701 27.7299 32.5701 27.2999 32.6001 26.8699H34.8901C34.9101 27.0999 34.8701 27.3399 34.7401 27.5499ZM41.1701 27.4099C41.0601 27.6099 40.8701 27.7399 40.6501 27.7999C40.4301 27.8599 40.2001 27.8299 40.0101 27.7099C39.7101 27.5299 39.5601 27.1999 39.6001 26.8699H41.2801C41.3001 27.0499 41.2801 27.2399 41.1801 27.4099H41.1701Z" fill="#323232"/>
</svg>
