<svg width="24" height="24" viewBox="0 0 24 24" fill="none" xmlns="http://www.w3.org/2000/svg">
<path fill-rule="evenodd" clip-rule="evenodd" d="M5.19018 18.2775C6.25001 20.5986 8.0057 22 10.1515 22C12.1699 22 13.5417 20.3853 13.5417 18.8412C13.5417 17.0944 12.2704 15.9497 10.7659 15.9497C9.16096 15.9497 8.82612 17.2198 8.82612 17.5407C8.82612 18.2775 9.40797 18.9565 10.1515 18.9565C11.3228 18.9565 11.4103 17.9773 11.4103 17.9773C11.4103 17.9773 11.7704 18.2142 11.7704 18.8412C11.7704 19.4446 11.284 20.211 10.1515 20.211C9.24921 20.211 7.92041 19.7127 7.00414 17.68C5.92699 15.2998 5.84846 14.5951 5.84846 14.5951H20.0468L20.8575 12.7005H3C3 12.7005 3.94118 15.5528 5.19018 18.2775ZM7.57755 9.8132C7.57755 9.8132 8.68045 8.25216 11.0374 5.91631C11.6298 5.33404 13.182 3.8659 14.7624 3.8659C15.7995 3.8659 16.6017 4.54655 16.6017 5.47127C16.6017 6.38711 15.8628 6.65059 15.8628 6.65059C15.9401 6.26044 15.7024 5.18879 14.7236 5.18879C13.7089 5.18879 13.2816 6.00287 13.2816 6.55137C13.2816 7.67707 14.249 8.48186 15.3793 8.48186C17.5514 8.48186 18.5605 6.86129 18.5605 5.29097C18.5605 3.70629 17.1051 2 14.7624 2C12.6048 2 10.608 3.60073 9.47384 4.7695C5.43888 8.90706 3.30655 11.7027 3.30655 11.7027H21.2827L22.0863 9.82671V9.8132H7.57755Z" fill="black"/>
</svg>
