<svg width="24" height="24" viewBox="0 0 24 24" fill="none" xmlns="http://www.w3.org/2000/svg">
<path fill-rule="evenodd" clip-rule="evenodd" d="M21.2596 14.5263C21.0796 14.1406 20.8739 13.7806 20.6168 13.472C20.3596 13.1635 20.0768 12.9063 19.7682 12.6749C19.6139 12.5463 19.4339 12.4435 19.2539 12.3663C19.1768 12.3149 19.0739 12.2635 18.9968 12.212C19.0739 12.1863 19.1768 12.1349 19.2539 12.0835C19.4339 12.0063 19.6139 11.9035 19.7682 11.7749C20.0768 11.5435 20.3596 11.2863 20.6168 10.9778C20.8739 10.6692 21.0796 10.3092 21.2596 9.92347C21.4396 9.53776 21.5682 9.12633 21.6454 8.68919C21.6711 8.38062 21.6968 8.07205 21.6968 7.78919C21.6968 7.66062 21.6968 7.53205 21.6968 7.37776C21.6711 7.01776 21.5939 6.65776 21.4654 6.29776C21.3368 5.96347 21.1825 5.60347 20.9768 5.29526C20.7711 4.96097 20.5396 4.67812 20.2568 4.39526C19.9739 4.13812 19.6654 3.88097 19.3311 3.67526C18.9711 3.46955 18.6111 3.31526 18.1996 3.2124C17.7882 3.08383 17.3768 3.00669 16.9139 3.00669C16.4768 2.98097 16.0654 3.0324 15.6539 3.10955C15.2682 3.2124 14.8825 3.36669 14.5482 3.54669C14.1882 3.72669 13.8796 3.95812 13.5968 4.24097C13.3396 4.49812 13.1082 4.80669 12.9282 5.14097C12.7482 5.4749 12.6196 5.8349 12.5682 6.22062C12.5168 6.42633 12.5168 6.60633 12.5168 6.81205C12.5168 6.99205 12.5168 7.14633 12.5425 7.30062C12.1829 7.0949 11.8229 6.9149 11.4629 6.81205C11.0257 6.65776 10.5114 6.58062 9.99714 6.5549C9.50857 6.5549 9.04571 6.60633 8.60857 6.70919C8.19714 6.78633 7.78571 6.94062 7.4 7.14633C7.06571 7.32633 6.70571 7.55776 6.37143 7.84062C6.16571 8.02062 5.96 8.20062 5.75429 8.40633C5.75429 8.40633 5.44571 8.7149 5.29143 8.92062C5.11143 9.10062 4.93143 9.33205 4.75143 9.56347L4.34 10.0778C4.23714 10.232 4.13429 10.3606 4.00571 10.4892C3.85143 10.6949 3.67143 10.8749 3.49143 11.0549C3.18286 11.3635 2.84857 11.6463 2.48857 11.8778C2.41143 11.9292 2.33429 11.9806 2.25714 12.032C2.20571 12.0578 2.15429 12.0835 2.10286 12.1092C2.05143 12.1349 2 12.1606 2 12.212C2 12.2892 2.05143 12.3149 2.10286 12.3406C2.15429 12.3663 2.20571 12.392 2.25714 12.4178C2.33429 12.4692 2.41143 12.5206 2.48857 12.572C2.84857 12.8035 3.18286 13.0863 3.49143 13.3949C3.67143 13.5749 3.85143 13.7549 4.00571 13.9606C4.13429 14.0892 4.23714 14.2178 4.34 14.372L4.75143 14.8863C4.93143 15.1178 5.11143 15.3492 5.29143 15.5292C5.44571 15.7349 5.75429 16.0178 5.75429 16.0178C5.96 16.2492 6.16571 16.4292 6.37143 16.6092C6.70571 16.892 7.06571 17.1235 7.4 17.3035C7.78571 17.5092 8.19714 17.6635 8.60857 17.7406C9.04571 17.8692 9.50857 17.8949 9.99714 17.8949C10.5114 17.8692 11.0257 17.792 11.4629 17.6378C11.8229 17.5349 12.1829 17.3549 12.5425 17.1492C12.5168 17.3035 12.5168 17.4578 12.5168 17.6378C12.5168 17.8435 12.5168 18.0235 12.5682 18.2292C12.6196 18.6149 12.7482 18.9749 12.9282 19.3088C13.1082 19.6431 13.3396 19.9517 13.5968 20.2088C13.8796 20.4917 14.1882 20.7231 14.5482 20.9031C14.8825 21.0831 15.2682 21.2374 15.6539 21.3403C16.0654 21.4174 16.4768 21.4688 16.9139 21.4431C17.3768 21.4431 17.7882 21.366 18.1996 21.2374C18.6111 21.1345 18.9711 20.9803 19.3311 20.7745C19.6654 20.5688 19.9739 20.3117 20.2568 20.0545C20.5396 19.7717 20.7711 19.4888 20.9768 19.1545C21.1825 18.8463 21.3368 18.4863 21.4654 18.152C21.5939 17.792 21.6711 17.432 21.6968 17.0463C21.6968 16.9178 21.6968 16.7892 21.6968 16.6606C21.6968 16.3778 21.6711 16.0692 21.6454 15.7606C21.5682 15.3235 21.4396 14.912 21.2596 14.5263Z" fill="#F9C623"/>
<path fill-rule="evenodd" clip-rule="evenodd" d="M20.1796 14.9378C20.0254 14.6035 19.8454 14.2949 19.5882 14.012C19.3568 13.7292 19.0739 13.4978 18.7654 13.3178C18.4311 13.112 18.0968 12.9578 17.7368 12.8806C17.3768 12.752 16.9911 12.7006 16.6054 12.7006C16.1939 12.7006 15.8082 12.752 15.3968 12.8549C15.0625 12.932 14.7539 13.0349 14.4454 13.1892C14.1625 13.3178 13.9054 13.4978 13.6739 13.6778C13.4425 13.832 13.2111 14.012 13.0054 14.192C12.7739 14.3463 12.5682 14.5006 12.3371 14.6549C12.1314 14.7835 11.9 14.912 11.6429 15.0149C11.36 15.092 11.0771 15.1435 10.7943 15.1435C10.4086 15.1435 10.0229 15.0663 9.66286 14.912C9.30286 14.7578 8.99429 14.552 8.73714 14.2692C8.45429 14.012 8.24857 13.6778 8.12 13.3178C7.96571 12.9835 7.91429 12.5978 7.91429 12.212C7.91429 11.852 7.96571 11.4663 8.12 11.132C8.24857 10.772 8.45429 10.4635 8.73714 10.1806C8.99429 9.89776 9.30286 9.69205 9.66286 9.53776C10.0229 9.38347 10.4086 9.30633 10.7943 9.30633C11.0771 9.30633 11.36 9.35776 11.6429 9.4349C11.9 9.53776 12.1314 9.66633 12.3371 9.7949C12.5682 9.94919 12.7739 10.1035 13.0054 10.2835C13.2111 10.4378 13.4425 10.6178 13.6739 10.7978C13.9054 10.952 14.1625 11.132 14.4454 11.2606C14.7539 11.4149 15.0625 11.5178 15.3968 11.5949C15.8082 11.6978 16.1939 11.7492 16.6054 11.7492C16.9911 11.7492 17.3768 11.6978 17.7368 11.5949C18.0968 11.492 18.4311 11.3378 18.7654 11.132C19.0739 10.952 19.3568 10.7206 19.5882 10.4378C19.8454 10.1549 20.0254 9.84633 20.1796 9.51205C20.3339 9.15205 20.4368 8.79205 20.4882 8.40633C20.5396 7.9949 20.5396 7.58347 20.4625 7.17205C20.3854 6.78633 20.2568 6.40062 20.0768 6.06633C19.8968 5.73205 19.6654 5.44919 19.4082 5.1924C19.1254 4.90955 18.8425 4.70383 18.5082 4.52383C18.1739 4.36955 17.8139 4.24097 17.4539 4.16383C17.0939 4.08669 16.6825 4.06097 16.2968 4.1124C15.9368 4.16383 15.5511 4.26669 15.2168 4.44669C14.9082 4.60097 14.5996 4.8324 14.3682 5.08955C14.1111 5.34633 13.9311 5.6549 13.7768 5.98919C13.6482 6.32347 13.5454 6.68347 13.5196 7.04347C13.5196 7.40347 13.5454 7.78919 13.6739 8.14919C13.6739 8.20062 13.6996 8.25205 13.7254 8.30347C13.7254 8.32919 13.7254 8.3549 13.7511 8.38062C13.7511 8.40633 13.7511 8.43205 13.7768 8.45776C13.7768 8.45776 13.8025 8.48347 13.8282 8.48347C13.8282 8.48347 13.8539 8.45776 13.8539 8.43205C13.8539 8.38062 13.8539 8.32919 13.8539 8.27776C13.8796 8.07205 13.9311 7.89205 14.0082 7.71205C14.1625 7.37776 14.3939 7.0949 14.6768 6.88919C14.9854 6.70919 15.3454 6.60633 15.7054 6.58062C16.0911 6.5549 16.4768 6.60633 16.8111 6.78633C17.1196 6.94062 17.3768 7.19776 17.5568 7.50633C17.7368 7.8149 17.8139 8.20062 17.8139 8.56062C17.8139 8.92062 17.7111 9.30633 17.5054 9.6149C17.3254 9.92347 17.0425 10.1806 16.7082 10.3606C16.3739 10.5149 15.9882 10.592 15.6282 10.5406C15.3711 10.5149 15.1139 10.4378 14.8825 10.3349C14.6511 10.232 14.4196 10.0778 14.2139 9.92347C13.9825 9.74347 13.7511 9.56347 13.5454 9.38347C13.3139 9.17776 13.0825 8.97205 12.8511 8.79205C12.5939 8.58633 12.3371 8.40633 12.0543 8.27776C11.7457 8.09776 11.4371 7.96919 11.1029 7.86633C10.7429 7.76347 10.3571 7.71205 9.97143 7.71205C9.58571 7.71205 9.2 7.73776 8.81429 7.84062C8.48 7.91776 8.17143 8.02062 7.86286 8.1749C7.60571 8.32919 7.34857 8.50919 7.09143 8.7149C6.86 8.8949 6.65429 9.12633 6.44857 9.35776C6.24286 9.58919 6.06286 9.82062 5.88286 10.052C5.67714 10.2835 5.49714 10.5406 5.31714 10.772C5.11143 11.0035 4.93143 11.2092 4.7 11.4406C4.49429 11.6463 4.28857 11.8263 4.03143 12.0063C3.98 12.032 3.92857 12.0578 3.87714 12.0835C3.85143 12.1092 3.8 12.1349 3.77429 12.1606C3.74857 12.1606 3.69714 12.1863 3.69714 12.212C3.69714 12.2635 3.74857 12.2892 3.77429 12.3149C3.8 12.3149 3.85143 12.3406 3.87714 12.3663C3.92857 12.392 3.98 12.4178 4.03143 12.4692C4.28857 12.6235 4.49429 12.8035 4.7 13.0092C4.93143 13.2149 5.11143 13.4463 5.31714 13.6778C5.49714 13.9092 5.67714 14.1663 5.88286 14.3978C6.06286 14.6292 6.24286 14.8606 6.44857 15.092C6.65429 15.3235 6.86 15.5549 7.09143 15.7349C7.34857 15.9406 7.60571 16.1206 7.86286 16.2749C8.17143 16.4292 8.48 16.532 8.81429 16.6092C9.2 16.712 9.58571 16.7378 9.97143 16.7378C10.3571 16.7378 10.7429 16.6863 11.1029 16.5835C11.4371 16.4806 11.7457 16.352 12.0543 16.1978C12.3371 16.0435 12.5939 15.8635 12.8511 15.6578C13.0825 15.4778 13.3139 15.272 13.5454 15.092C13.7511 14.8863 13.9825 14.7063 14.2139 14.5263C14.4196 14.372 14.6511 14.2178 14.8825 14.1149C15.1139 14.012 15.3711 13.9349 15.6282 13.9092C15.9882 13.8578 16.3739 13.9349 16.7082 14.0892C17.0425 14.2435 17.3254 14.5263 17.5054 14.8349C17.7111 15.1435 17.8139 15.5292 17.8139 15.8892C17.8139 16.2749 17.7368 16.6349 17.5568 16.9435C17.3768 17.252 17.1196 17.5092 16.8111 17.6635C16.4768 17.8435 16.0911 17.8949 15.7054 17.8692C15.3454 17.8692 14.9854 17.7406 14.6768 17.5606C14.3939 17.3549 14.1625 17.072 14.0082 16.7378C13.9311 16.5578 13.8796 16.3778 13.8539 16.172C13.8539 16.1206 13.8539 16.0692 13.8539 16.0178C13.8539 15.992 13.8282 15.9663 13.8282 15.9663C13.8025 15.9663 13.7768 15.992 13.7768 15.992C13.7511 16.0178 13.7511 16.0435 13.7511 16.0692C13.7254 16.0949 13.7254 16.1206 13.7254 16.1463C13.6996 16.1978 13.6739 16.2492 13.6739 16.3006C13.5454 16.6606 13.5196 17.0463 13.5196 17.4063C13.5454 17.7663 13.6482 18.1263 13.7768 18.4606C13.9311 18.7949 14.1111 19.1035 14.3682 19.3603C14.5996 19.6174 14.9082 19.8488 15.2168 20.0031C15.5511 20.1831 15.9368 20.286 16.2968 20.3374C16.6825 20.3888 17.0939 20.3631 17.4539 20.286C17.8139 20.2088 18.1739 20.0803 18.5082 19.926C18.8425 19.746 19.1254 19.5145 19.4082 19.2574C19.6654 19.0006 19.8968 18.7178 20.0768 18.3835C20.2568 18.0492 20.3854 17.6635 20.4625 17.2778C20.5396 16.8663 20.5396 16.4549 20.4882 16.0435C20.4368 15.6578 20.3339 15.2978 20.1796 14.9378Z" fill="#311C56"/>
<path fill-rule="evenodd" clip-rule="evenodd" d="M14.7025 12.212L14.6768 12.1863C14.2139 12.0835 13.8025 11.8263 13.4425 11.5692C13.0311 11.2606 12.6454 10.952 12.26 10.6692C11.8486 10.3863 11.3857 10.1549 10.8971 10.1292C10.5114 10.1035 10.1 10.1806 9.76571 10.3863C9.45714 10.5663 9.2 10.8235 9.02 11.132C8.81429 11.4663 8.73714 11.852 8.73714 12.212C8.73714 12.2378 8.73714 12.2378 8.73714 12.2378C8.73714 12.5978 8.81429 12.9835 9.02 13.3178C9.2 13.6263 9.45714 13.8835 9.76571 14.0635C10.1 14.2435 10.5114 14.3463 10.8971 14.3206C11.3857 14.2949 11.8486 14.0635 12.26 13.7806C12.6454 13.4978 13.0311 13.1892 13.4425 12.8806C13.8025 12.6235 14.2139 12.3663 14.6768 12.2635C14.6768 12.2635 14.7025 12.2378 14.7025 12.212Z" fill="#B21D7B"/>
</svg>
