<svg width="24" height="24" viewBox="0 0 24 24" fill="none" xmlns="http://www.w3.org/2000/svg">
<path d="M19.6499 21L13.2999 14.65L14.6999 13.25L21.0499 19.6L19.6499 21ZM5.99989 20.3C4.33323 18.6667 3.35406 16.75 3.06239 14.55C2.77073 12.35 3.14989 10.2917 4.19989 8.37501C4.24989 8.94168 4.39156 9.57918 4.62489 10.2875C4.85823 10.9958 5.17906 11.7417 5.58739 12.525C5.99573 13.3083 6.48323 14.1125 7.04989 14.9375C7.61656 15.7625 8.24156 16.575 8.92489 17.375L5.99989 20.3ZM10.2999 16C9.49989 15.2 8.79989 14.3292 8.19989 13.3875C7.59989 12.4458 7.12906 11.5333 6.78739 10.65C6.44573 9.76668 6.25406 8.96251 6.21239 8.23751C6.17073 7.51251 6.32489 6.97501 6.67489 6.62501C7.02489 6.25835 7.56239 6.09168 8.28739 6.12501C9.01239 6.15835 9.82073 6.34585 10.7124 6.68751C11.6041 7.02918 12.5207 7.50418 13.4624 8.11251C14.4041 8.72085 15.2749 9.42501 16.0749 10.225L10.2999 16ZM17.4499 8.85001C16.6666 8.16668 15.8624 7.55001 15.0374 7.00001C14.2124 6.45001 13.4124 5.96668 12.6374 5.55001C11.8624 5.13335 11.1207 4.80418 10.4124 4.56251C9.70406 4.32085 9.06656 4.17501 8.49989 4.12501C10.4166 3.12501 12.4707 2.77918 14.6624 3.08751C16.8541 3.39585 18.7499 4.35001 20.3499 5.95001L17.4499 8.85001Z" fill="#323232"/>
</svg>
