<svg width="145" height="30" viewBox="0 0 145 30" fill="none" xmlns="http://www.w3.org/2000/svg">
<path d="M11.3192 29.8327H41.7598L17.3633 5.33931C14.1122 2.08821 9.70691 0.158691 5.10779 0.158691H0.00646973L0.385324 1.15429L2.07695 5.586L11.3192 29.8327Z" fill="url(#paint0_linear_15605_2533)"/>
<path d="M2.07701 5.59483C5.4074 11.2865 14.1563 11.8856 15.1078 20.7314C15.1431 21.0926 15.425 21.3834 15.7863 21.445C20.8259 22.2292 25.7334 24.3085 29.9977 27.727C29.9977 27.727 30.0594 27.7622 30.0946 27.7622C30.1299 27.7622 30.1739 27.7446 30.2004 27.7182C30.262 27.6565 30.262 27.5684 30.2004 27.5067C27.2488 24.4054 23.6365 21.9208 19.5836 20.2909L18.3501 19.7975C17.7158 19.542 17.2752 18.9164 17.2929 18.1939C17.3634 15.5508 23.6189 16.0882 24.2444 14.8195L24.3501 14.5992C23.0638 13.4979 21.5308 12.6697 19.8479 12.2116C19.8303 12.2732 19.7951 12.5816 20.1387 13.1455C20.5087 13.7534 19.7334 14.7138 18.5968 13.6741L18.4999 13.586C10.0682 5.83271 3.73339 9.85033 0.385376 1.1543L2.07701 5.58602V5.59483Z" fill="white"/>
<path d="M22.3942 14.4495C22.3942 14.4495 21.011 14.52 20.1563 13.1367C20.4119 13.5508 20.1299 14.1235 19.566 14.1323V16.238C20.4735 15.9737 21.5132 15.8151 22.3854 15.6301V14.4583L22.3942 14.4495Z" fill="url(#paint1_linear_15605_2533)"/>
<path d="M16.8347 21.6302C21.5043 22.5289 26.033 24.5465 29.9977 27.7271C21.1519 20.1676 17.1167 21.5333 16.8347 21.6302Z" fill="url(#paint2_linear_15605_2533)"/>
<path d="M3.85674 5.98249C2.48229 5.00452 1.3193 3.5772 0.385376 1.1543L2.07701 5.58602C5.4074 11.2776 14.1563 11.8768 15.1078 20.7226C14.1475 9.42743 9.18714 11.1191 3.85674 5.98249Z" fill="url(#paint3_linear_15605_2533)"/>
<path d="M70.7378 7.92071C70.7378 9.40088 70.1122 10.5198 69.1166 11.0749L70.6761 13.5683H69.2576L67.9624 11.4273C67.795 11.4626 67.6276 11.4802 67.4426 11.4802C65.4867 11.4802 64.1475 10.1057 64.1475 7.92071V3.55947C64.1475 1.37445 65.4338 0 67.4426 0C69.4514 0 70.7378 1.37445 70.7378 3.55947V7.92071ZM65.3016 7.95595C65.3016 9.31278 66.077 10.3172 67.4338 10.3172C68.7906 10.3172 69.5572 9.31278 69.5572 7.95595V3.52423C69.5572 2.1674 68.7906 1.163 67.4338 1.163C66.077 1.163 65.3016 2.1674 65.3016 3.52423V7.95595Z" fill="#323232"/>
<path d="M73.4867 11.3129L76.685 0.16748H77.8568L81.0902 11.3129H79.8832L79.1519 8.74898H75.3369L74.6233 11.3129H73.4779H73.4867ZM75.6541 7.63885H78.87L77.24 1.92078L75.6541 7.63885Z" fill="#323232"/>
<path d="M90.6496 11.3129H89.6893L85.3369 2.69612V11.3129H84.2532V0.16748H85.2928L89.5659 8.65206V0.16748H90.6496V11.3129Z" fill="#323232"/>
<path d="M93.7422 0.16748H100.183V1.33929H97.5396V11.3129H96.3766V1.33929H93.7334V0.16748H93.7422Z" fill="#323232"/>
<path d="M101.628 11.3129L104.835 0.16748H106.007L109.24 11.3129H108.033L107.302 8.74898H103.487L102.773 11.3129H101.628ZM103.795 7.63885H107.011L105.381 1.92078L103.795 7.63885Z" fill="#323232"/>
<path d="M116.94 3.33921V3.06608C116.94 1.94714 116.227 1.0837 114.976 1.0837C113.725 1.0837 113.037 1.77974 113.037 2.76652C113.037 3.55066 113.522 4.10573 114.183 4.39648L115.83 5.14538C116.976 5.65639 118.253 6.3348 118.253 8.2467C118.253 10.1586 116.923 11.489 114.984 11.489C113.046 11.489 111.707 10.2819 111.707 8.35242V8.0793H112.852V8.4141C112.852 9.55066 113.628 10.3789 114.976 10.3789C116.324 10.3789 117.108 9.53304 117.108 8.39648C117.108 7.18943 116.332 6.71366 115.399 6.30837L113.98 5.6652C112.852 5.17181 111.918 4.36123 111.918 2.86344C111.918 1.18062 113.134 0 114.967 0C116.799 0 118.068 1.20705 118.068 3.13656V3.33921H116.94Z" fill="#323232"/>
<path d="M73.8919 18.6694L71.6012 29.8148H70.5439L68.7554 20.9954L67.0021 29.8148H65.9448L63.6541 18.6694H64.7994L66.5087 27.4448L68.2444 18.6694H69.3104L71.0461 27.4448L72.7554 18.6694H73.8655H73.8919Z" fill="#323232"/>
<path d="M78.3677 24.6958V28.6518H83.0549V29.8236H77.2135V18.6782H82.9404V19.85H78.3765V23.5505H82.5615V24.7047H78.3765L78.3677 24.6958Z" fill="#323232"/>
<path d="M87.7422 28.643H92.1211V29.8148H86.5792V18.6694H87.7422V28.643Z" fill="#323232"/>
<path d="M96.3149 28.643H100.694V29.8148H95.1519V18.6694H96.3149V28.643Z" fill="#323232"/>
<path d="M103.733 18.6694H106.949C108.72 18.6694 109.998 19.806 109.998 21.5505C109.998 22.7928 109.434 23.6386 108.491 24.0439V24.0615C109.592 24.4315 110.244 25.3478 110.244 26.7575C110.244 28.6078 108.976 29.8148 107.222 29.8148H103.725V18.6694H103.733ZM104.896 19.7531V23.5505H106.914C108.086 23.5505 108.826 22.8192 108.826 21.6034C108.826 20.4668 108.059 19.7531 106.861 19.7531H104.905H104.896ZM104.896 24.6606V28.7311H107.09C108.315 28.7311 109.046 27.9293 109.046 26.7135C109.046 25.4976 108.333 24.6606 107.152 24.6606H104.896Z" fill="#323232"/>
<path d="M114.94 24.6958V28.6518H119.628V29.8236H113.786V18.6782H119.504V19.85H114.94V23.5505H119.125V24.7047H114.94V24.6958Z" fill="#323232"/>
<path d="M124.315 29.8148H123.152V18.6694H124.315V29.8148Z" fill="#323232"/>
<path d="M134.764 29.8148H133.804L129.451 21.1981V29.8148H128.368V18.6694H129.407L133.681 27.154V18.6694H134.764V29.8148Z" fill="#323232"/>
<path d="M142.112 24.3703H145.073V26.6082C145.073 28.6963 143.777 29.9826 141.857 29.9826C139.936 29.9826 138.562 28.6082 138.562 26.4231V22.0619C138.562 19.8769 139.874 18.5024 141.857 18.5024C143.839 18.5024 145.073 19.7271 145.073 21.7095V21.965H143.962V21.6742C143.962 20.5201 143.214 19.6742 141.857 19.6742C140.5 19.6742 139.725 20.6787 139.725 22.0355V26.4672C139.725 27.824 140.5 28.8284 141.857 28.8284C143.214 28.8284 143.989 27.9121 143.989 26.661V25.4364H142.112V24.3879V24.3703Z" fill="#323232"/>
<path d="M53.099 0.0351562V29.9999" stroke="#323232" stroke-width="0.666551" stroke-miterlimit="10"/>
<defs>
<linearGradient id="paint0_linear_15605_2533" x1="26.4646" y1="29.727" x2="6.15625" y2="0.0793978" gradientUnits="userSpaceOnUse">
<stop stop-color="#BE1818"/>
<stop offset="0.11" stop-color="#C31919"/>
<stop offset="0.66" stop-color="#DC211E"/>
<stop offset="1" stop-color="#E52421"/>
</linearGradient>
<linearGradient id="paint1_linear_15605_2533" x1="20.8524" y1="16.3438" x2="21.1255" y2="13.216" gradientUnits="userSpaceOnUse">
<stop offset="0.65" stop-color="white" stop-opacity="0"/>
<stop offset="0.69" stop-color="#ECECEC" stop-opacity="0.0529"/>
<stop offset="0.76" stop-color="#D6D6D6" stop-opacity="0.25"/>
<stop offset="0.81" stop-color="#C5C5C5" stop-opacity="0.5184"/>
<stop offset="0.87" stop-color="#B9B9B9" stop-opacity="0.7569"/>
<stop offset="0.91" stop-color="#B1B1B1" stop-opacity="0.9409"/>
<stop offset="0.95" stop-color="#AFAFAF"/>
</linearGradient>
<linearGradient id="paint2_linear_15605_2533" x1="16.8347" y1="24.5994" x2="29.9977" y2="24.5994" gradientUnits="userSpaceOnUse">
<stop stop-color="white" stop-opacity="0"/>
<stop offset="0.07" stop-color="#F3F3F3" stop-opacity="0.0225"/>
<stop offset="0.21" stop-color="#DEDEDE" stop-opacity="0.1681"/>
<stop offset="0.35" stop-color="#CDCDCD" stop-opacity="0.3844"/>
<stop offset="0.49" stop-color="#C0C0C0" stop-opacity="0.6241"/>
<stop offset="0.63" stop-color="#B6B6B6" stop-opacity="0.8281"/>
<stop offset="0.77" stop-color="#B0B0B0" stop-opacity="0.9604"/>
<stop offset="0.9" stop-color="#AFAFAF"/>
</linearGradient>
<linearGradient id="paint3_linear_15605_2533" x1="0.385376" y1="10.9428" x2="15.1078" y2="10.9428" gradientUnits="userSpaceOnUse">
<stop offset="0.25" stop-color="white" stop-opacity="0"/>
<stop offset="0.36" stop-color="#F6F6F6" stop-opacity="0.0121"/>
<stop offset="0.58" stop-color="#E0E0E0" stop-opacity="0.1444"/>
<stop offset="0.88" stop-color="#BDBDBD" stop-opacity="0.6724"/>
<stop offset="1" stop-color="#AFAFAF"/>
</linearGradient>
</defs>
</svg>
