<svg width="72" height="72" viewBox="0 0 72 72" fill="none" xmlns="http://www.w3.org/2000/svg">
<circle cx="36" cy="36" r="36" fill="url(#paint0_linear_11415_5918)"/>
<circle cx="36" cy="36" r="36" stroke="white"/>
<path d="M44.8758 26.6276C44.8758 26.6276 44.9379 26.6276 44.8758 26.6276C44.9379 26.6276 44.9379 26.6276 45 26.6276C45 26.6276 45.062 26.5655 45 26.5035C43.2 24.5793 40.9034 23.0276 38.4207 21.9724L37.6758 21.6621C37.3034 21.4759 36.9931 21.1035 36.9931 20.669C37.0551 18.9931 40.9034 19.3656 41.3379 18.6207L41.4 18.4966C40.5931 17.8138 39.662 17.2552 38.6069 17.0069C38.6069 17.069 38.5448 17.2552 38.7931 17.5656C39.0414 17.938 38.5448 18.5587 37.862 17.8759L37.8 17.8138C32.6483 13.0345 30.2276 16.138 26.7517 10.6138C26.7517 10.5518 26.6896 10.5518 26.6276 10.5518C26.5655 10.5518 26.5655 10.6138 26.5655 10.6759C29.2965 17.3173 34.9448 15.9518 35.5655 22.1587C35.5655 22.4069 35.7517 22.5931 36 22.5931C39.1655 23.1518 42.2069 24.5173 44.8758 26.6276Z" fill="white"/>
<path d="M15.0977 41.586H16.4185V37.5019H18.5909C20.8328 37.5019 22.4491 36.042 22.4491 33.8001C22.4491 31.5929 20.8328 30.1678 18.5909 30.1678H15.0977V41.586ZM18.504 31.3322C20.1029 31.3322 21.0935 32.3055 21.0935 33.8175C21.0935 35.3295 20.1029 36.3375 18.504 36.3375H16.4185V31.3322H18.504Z" fill="white"/>
<path d="M30.5299 36.2158C30.5299 34.1824 29.2091 32.9137 27.28 32.9137C25.3509 32.9137 24.0475 34.1824 24.0475 36.2158V38.4577C24.0475 40.4911 25.3509 41.7598 27.28 41.7598C29.2091 41.7598 30.5299 40.4911 30.5299 38.4577V36.2158ZM25.3161 36.1289C25.3161 34.9297 26.0287 34.026 27.28 34.026C28.5313 34.026 29.2439 34.9297 29.2439 36.1289V38.562C29.2439 39.7612 28.5313 40.6649 27.28 40.6649C26.0287 40.6649 25.3161 39.7612 25.3161 38.562V36.1289Z" fill="white"/>
<path d="M32.5529 30.6892C32.5529 31.141 32.9178 31.506 33.3871 31.506C33.8389 31.506 34.2039 31.141 34.2039 30.6892C34.2039 30.2199 33.8389 29.855 33.3871 29.855C32.9178 29.855 32.5529 30.2199 32.5529 30.6892ZM32.744 33.0875V41.586H34.0127V33.0875H32.744Z" fill="white"/>
<path d="M37.7805 41.586V36.1463C37.7805 34.9645 38.5278 34.0434 39.7791 34.0434C41.0131 34.0434 41.6561 34.9124 41.6561 36.0073V41.586H42.9248V36.0246C42.9248 34.1303 41.8646 32.9137 40.0051 32.9137C38.9971 32.9137 38.1802 33.3482 37.6762 34.0955L37.4851 33.0875H36.5118V41.586H37.7805Z" fill="white"/>
<path d="M44.4869 34.2172H46.1205V41.586H47.4066V34.2172H49.0403V33.1397H47.4066V30.8282H46.1205V33.1397H44.4869V34.2172Z" fill="white"/>
<path d="M50.2473 38.9617V39.1877C50.2473 40.7866 51.5681 41.7598 53.4277 41.7598C55.2699 41.7598 56.4517 40.6997 56.4517 39.1703C56.4517 37.6931 55.4263 37.1717 54.1577 36.7719L52.7152 36.3201C52.0026 36.1115 51.6898 35.7639 51.6898 35.1904C51.6898 34.3215 52.5761 33.9217 53.3582 33.9217C54.5226 33.9217 55.183 34.5474 55.183 35.3295V35.538H56.3822V35.399C56.3822 33.8348 55.1483 32.9137 53.3582 32.9137C51.655 32.9137 50.4906 34.0086 50.4906 35.2947C50.4906 36.6155 51.4639 37.2238 52.4545 37.5193L54.0881 38.0233C54.8876 38.2666 55.2178 38.6142 55.2178 39.3093C55.2178 40.1435 54.5921 40.7344 53.4103 40.7344C52.159 40.7344 51.4291 40.1088 51.4291 39.2572V38.9617H50.2473Z" fill="white"/>
<path d="M27.7647 54.0746V54.4744C27.7647 55.7604 26.8957 56.6989 25.349 56.6989C23.8196 56.6989 22.9333 55.6735 22.9333 54.2832V49.7472C22.9333 48.3568 23.8196 47.3315 25.349 47.3315C26.8957 47.3315 27.7647 48.2699 27.7647 49.556V49.8515H29.0334V49.5908C29.0334 47.4531 27.5388 46.1323 25.349 46.1323C23.0723 46.1323 21.6124 47.54 21.6124 49.7819V54.2484C21.6124 56.4904 23.1418 57.8981 25.349 57.8981C27.5388 57.8981 29.0334 56.5773 29.0334 54.4396V54.0746H27.7647Z" fill="white"/>
<path d="M31.2909 45.9585V57.7243H32.577V45.9585H31.2909Z" fill="white"/>
<path d="M35.0724 54.8567C35.0724 56.6989 36.0978 57.8981 37.9053 57.8981C38.8959 57.8981 39.7127 57.4636 40.2167 56.751L40.4079 57.7243H41.3811V49.2258H40.1124V54.6829C40.1124 55.8647 39.3651 56.7684 38.1312 56.7684C36.9494 56.7684 36.3411 55.9342 36.3411 54.8567V49.2258H35.0724V54.8567Z" fill="white"/>
<path d="M45.0469 56.751C45.5509 57.4636 46.3504 57.8981 47.3584 57.8981C49.2006 57.8981 50.2955 56.6642 50.2955 54.7524V52.1977C50.2955 50.2859 49.2006 49.052 47.3584 49.052C46.4199 49.052 45.6552 49.4344 45.1512 50.0774V45.9585H43.8825V57.7243H44.8558L45.0469 56.751ZM45.1512 54.6829V52.2846C45.1512 51.1028 45.8985 50.1817 47.1498 50.1817C48.3838 50.1817 49.0268 51.0506 49.0268 52.1455V54.8046C49.0268 55.9168 48.3838 56.7684 47.1498 56.7684C45.8985 56.7684 45.1512 55.8647 45.1512 54.6829Z" fill="white"/>
<defs>
<linearGradient id="paint0_linear_11415_5918" x1="0.627141" y1="35.6432" x2="71.4578" y2="36.3645" gradientUnits="userSpaceOnUse">
<stop stop-color="#188095"/>
<stop offset="1" stop-color="#186979"/>
</linearGradient>
</defs>
</svg>
