<svg width="48" height="48" viewBox="0 0 48 48" fill="none" xmlns="http://www.w3.org/2000/svg">
<path d="M30.0109 31.5198C29.7909 31.5198 29.5709 31.4498 29.3909 31.2998L23.0909 26.2698C22.8509 26.0798 22.7109 25.7898 22.7109 25.4898V12.0898C22.7109 11.5398 23.1609 11.0898 23.7109 11.0898C24.2609 11.0898 24.7109 11.5398 24.7109 12.0898V25.0098L30.6409 29.7398C31.0709 30.0798 31.1409 30.7098 30.8009 31.1498C30.6009 31.3998 30.3109 31.5298 30.0209 31.5298L30.0109 31.5198Z" fill="#DF0000"/>
<path d="M24 1.75C24 1.75 23.95 1.75 23.92 1.75C23.92 1.75 23.92 1.75 23.91 1.75C23.91 1.75 23.91 1.75 23.9 1.75C11.67 1.81 1.75 11.77 1.75 24C1.75 36.23 11.67 46.19 23.89 46.25C23.89 46.25 23.89 46.25 23.9 46.25C23.9 46.25 23.9 46.25 23.91 46.25C23.94 46.25 23.96 46.25 23.99 46.25C36.26 46.25 46.24 36.27 46.24 24C46.24 11.73 36.27 1.75 24 1.75ZM24.91 44.2V40.26C24.91 39.71 24.46 39.26 23.91 39.26C23.36 39.26 22.91 39.71 22.91 40.26V44.19C12.59 43.64 4.31 35.33 3.8 25H7.41C7.96 25 8.41 24.55 8.41 24C8.41 23.45 7.96 23 7.41 23H3.8C4.31 12.66 12.58 4.36 22.91 3.81V7.09C22.91 7.64 23.36 8.09 23.91 8.09C24.46 8.09 24.91 7.64 24.91 7.09V3.8C35.32 4.26 43.69 12.61 44.2 23H40.59C40.04 23 39.59 23.45 39.59 24C39.59 24.55 40.04 25 40.59 25H44.2C43.69 35.4 35.32 43.74 24.91 44.2Z" fill="#323232"/>
</svg>
