<svg width="48" height="48" viewBox="0 0 48 48" fill="none" xmlns="http://www.w3.org/2000/svg">
<path d="M10.8602 22.1096C11.4802 22.1096 11.9802 21.6096 11.9802 20.9896C11.9802 20.3696 11.4802 19.8696 10.8602 19.8696C10.2402 19.8696 9.74023 20.3696 9.74023 20.9896C9.74023 21.6096 10.2402 22.1096 10.8602 22.1096Z" fill="#323232"/>
<path d="M15.1805 15.9099C15.8005 15.9099 16.3005 15.4099 16.3005 14.7899C16.3005 14.1699 15.8005 13.6699 15.1805 13.6699C14.5605 13.6699 14.0605 14.1699 14.0605 14.7899C14.0605 15.4099 14.5605 15.9099 15.1805 15.9099Z" fill="#323232"/>
<path d="M19.2899 22.1096C19.9099 22.1096 20.4099 21.6096 20.4099 20.9896C20.4099 20.3696 19.9099 19.8696 19.2899 19.8696C18.6699 19.8696 18.1699 20.3696 18.1699 20.9896C18.1699 21.6096 18.6699 22.1096 19.2899 22.1096Z" fill="#323232"/>
<path d="M23.37 15.9099C23.99 15.9099 24.49 15.4099 24.49 14.7899C24.49 14.1699 23.99 13.6699 23.37 13.6699C22.75 13.6699 22.25 14.1699 22.25 14.7899C22.25 15.4099 22.75 15.9099 23.37 15.9099Z" fill="#323232"/>
<path d="M27.7098 22.1096C28.3298 22.1096 28.8298 21.6096 28.8298 20.9896C28.8298 20.3696 28.3298 19.8696 27.7098 19.8696C27.0898 19.8696 26.5898 20.3696 26.5898 20.9896C26.5898 21.6096 27.0898 22.1096 27.7098 22.1096Z" fill="#323232"/>
<path d="M36.1395 22.1096C36.7595 22.1096 37.2595 21.6096 37.2595 20.9896C37.2595 20.3696 36.7595 19.8696 36.1395 19.8696C35.5195 19.8696 35.0195 20.3696 35.0195 20.9896C35.0195 21.6096 35.5195 22.1096 36.1395 22.1096Z" fill="#323232"/>
<path d="M31.5595 15.9099C32.1795 15.9099 32.6795 15.4099 32.6795 14.7899C32.6795 14.1699 32.1795 13.6699 31.5595 13.6699C30.9395 13.6699 30.4395 14.1699 30.4395 14.7899C30.4395 15.4099 30.9395 15.9099 31.5595 15.9099Z" fill="#323232"/>
<path d="M43.4098 21.1898C43.4998 17.4998 41.4398 11.5598 37.3298 7.33977C33.7698 3.68977 29.1598 1.75977 23.9998 1.75977C13.7298 1.74977 4.58984 12.5998 4.58984 21.1598C4.58984 23.6098 5.28984 25.5498 6.67984 26.9098C7.03984 27.2598 7.42984 27.5398 7.83984 27.7998C8.15984 30.3498 9.62984 42.1298 9.74984 43.5298C9.74984 44.2498 10.0198 44.9298 10.5298 45.4498C11.0398 45.9598 11.7098 46.2498 12.4298 46.2598H12.4498C12.5398 46.2598 12.6298 46.2598 12.7198 46.2498H16.5898C16.5898 46.2498 16.6398 46.2498 16.6598 46.2498H23.9298C23.9298 46.2498 24.0098 46.2498 24.0498 46.2498H31.2798C31.3298 46.2498 31.3798 46.2498 31.4298 46.2498H35.1598C35.8798 46.3098 36.5798 46.0898 37.1298 45.6198C37.6798 45.1498 38.0198 44.4998 38.0798 43.7798C38.0798 43.7298 38.0798 43.6698 38.0798 43.6198C38.2998 41.8798 39.7498 30.1598 40.0598 27.5998C41.9598 26.3398 43.3098 24.2898 43.3898 21.1998L43.4098 21.1898ZM6.58984 21.1598C6.58984 13.5598 15.0298 3.74977 23.9998 3.74977C28.6698 3.74977 32.6798 5.42977 35.8998 8.72977C39.6198 12.5498 41.4898 17.8598 41.4098 21.1298C41.2698 26.7998 35.6898 27.2398 33.9798 27.2398H16.9098C16.6198 27.2398 16.2898 27.2398 15.9398 27.2498C13.5898 27.2998 10.0198 27.3798 8.06984 25.4698C7.06984 24.4898 6.57984 23.0798 6.57984 21.1498L6.58984 21.1598ZM36.1098 43.4098C36.1098 43.4098 36.0998 43.5498 36.0998 43.5998C36.0798 43.7898 35.9998 43.9498 35.8498 44.0798C35.7098 44.1998 35.5198 44.2598 35.2598 44.2398H32.4698L33.4898 34.0098C33.5398 33.4598 33.1398 32.9698 32.5898 32.9198C32.0398 32.8598 31.5498 33.2698 31.4998 33.8198L30.4598 44.2498H24.9998V33.9198C24.9998 33.3698 24.5498 32.9198 23.9998 32.9198C23.4498 32.9198 22.9998 33.3698 22.9998 33.9198V44.2498H17.5398L16.4998 33.8198C16.4398 33.2698 15.9598 32.8698 15.4098 32.9198C14.8598 32.9798 14.4598 33.4598 14.5098 34.0098L15.5298 44.2398H12.6698C12.6698 44.2398 12.4898 44.2398 12.4498 44.2498C12.0598 44.2498 11.7498 43.9298 11.7498 43.4498C11.6398 42.0798 10.4598 32.6398 9.96984 28.7298C11.5098 29.1798 13.1598 29.2698 14.5998 29.2698C15.0898 29.2698 15.5498 29.2698 15.9798 29.2498C16.3198 29.2498 16.6298 29.2398 16.9098 29.2398H33.9798C35.3098 29.2398 36.6698 29.0498 37.9398 28.6198C37.4398 32.6198 36.2698 42.0698 36.1098 43.4098Z" fill="#323232"/>
<path fill-rule="evenodd" clip-rule="evenodd" d="M36.83 14.1198C37.55 12.3098 35.12 9.0698 31.41 6.8898C27.7 4.6998 24.11 4.3998 23.39 6.2098C22.67 8.0198 25.91 8.1598 29.62 10.3498C33.33 12.5398 36.11 15.9398 36.83 14.1298" fill="#8DE2E0"/>
</svg>
