<svg width="24" height="24" viewBox="0 0 24 24" fill="none" xmlns="http://www.w3.org/2000/svg">
<g clip-path="url(#clip0_16335_1874)">
<path d="M20.4851 20.4853C25.1714 15.799 25.1714 8.20101 20.4851 3.51472C15.7988 -1.17157 8.20081 -1.17157 3.51452 3.51472C-1.17177 8.20101 -1.17177 15.799 3.51452 20.4853C8.20081 25.1716 15.7988 25.1716 20.4851 20.4853Z" fill="white"/>
<mask id="mask0_16335_1874" style="mask-type:luminance" maskUnits="userSpaceOnUse" x="-1" y="0" width="25" height="24">
<path d="M20.4851 20.4853C25.1714 15.799 25.1714 8.20101 20.4851 3.51472C15.7988 -1.17157 8.20081 -1.17157 3.51452 3.51472C-1.17177 8.20101 -1.17177 15.799 3.51452 20.4853C8.20081 25.1716 15.7988 25.1716 20.4851 20.4853Z" fill="white"/>
</mask>
<g mask="url(#mask0_16335_1874)">
<path d="M38.0906 0H0V24H38.0906V0Z" fill="white"/>
<path fill-rule="evenodd" clip-rule="evenodd" d="M0 18.6674H38.0906V21.3338H0V18.6674ZM15.4238 8.00061H38.0906V10.667H15.4238V8.00061ZM15.4238 2.6665H38.0906V5.33286H15.4238V2.6665ZM0 13.3333H38.0906V15.9997H0V13.3333Z" fill="#003399"/>
<path fill-rule="evenodd" clip-rule="evenodd" d="M10.8946 5.16939C11.1098 5.18336 11.3223 5.15961 11.5249 5.09952C11.7415 5.03523 11.9469 4.92903 12.13 4.78509C12.2963 4.65233 12.5101 4.58106 12.7225 4.58106C12.9349 4.58106 13.1306 4.64674 13.2969 4.77111C13.3122 4.78229 13.315 4.80465 13.3039 4.82002C13.2955 4.8312 13.2829 4.8354 13.2703 4.834C13.0859 4.81024 12.8972 4.84378 12.7337 4.93182C12.6065 5.0003 12.4975 5.09812 12.4165 5.2169C12.2404 5.47264 12.0811 5.6599 11.8323 5.84856C11.6423 5.99249 11.4299 6.10988 11.2021 6.19233L13.5484 6.63393C13.5666 6.63812 13.5792 6.65629 13.5764 6.67446C13.5736 6.68843 13.5624 6.69961 13.5484 6.7024L11.3278 7.12025C11.4704 7.28235 11.6381 7.41511 11.8239 7.51712C12.0224 7.62473 12.2432 7.696 12.4738 7.72255C12.6862 7.74631 12.8874 7.84693 13.0369 7.99785C13.1837 8.14458 13.2787 8.33324 13.3081 8.53867C13.3108 8.55823 13.2983 8.575 13.2787 8.5778C13.2647 8.5792 13.2522 8.57361 13.2452 8.56382C13.132 8.41709 12.9741 8.30669 12.7966 8.25359C12.6582 8.21166 12.5115 8.20328 12.3704 8.22983C12.0657 8.28573 11.8198 8.30669 11.5109 8.26337C11.2747 8.23123 11.0428 8.16415 10.822 8.06213L12.1691 10.0326C12.1803 10.0479 12.1761 10.0703 12.1607 10.0801C12.1482 10.0885 12.1328 10.0885 12.1216 10.0801L10.256 8.80558C10.242 9.02079 10.2658 9.23321 10.3259 9.43584C10.3902 9.65384 10.4964 9.85787 10.6403 10.0409C10.7731 10.2086 10.8443 10.421 10.8443 10.6335C10.8443 10.8459 10.7786 11.0415 10.6543 11.2078C10.6431 11.2232 10.6207 11.226 10.6054 11.2148C10.5942 11.2064 10.59 11.1938 10.5914 11.1813C10.6151 10.9968 10.5816 10.8081 10.4936 10.6446C10.4251 10.5175 10.3273 10.4085 10.2085 10.3274C9.95275 10.1513 9.76549 9.99203 9.57683 9.74328C9.43289 9.55323 9.3155 9.34081 9.23305 9.11303L8.79145 11.4594C8.78866 11.4775 8.7691 11.4901 8.75093 11.4873C8.73695 11.4845 8.72577 11.4733 8.72298 11.4594L8.30514 9.2388C8.14303 9.38134 8.00888 9.54903 7.90826 9.7349C7.80065 9.93473 7.72938 10.1541 7.70283 10.3847C7.67908 10.5971 7.57846 10.7984 7.42753 10.9479C7.2808 11.0946 7.09214 11.1897 6.88672 11.219C6.86715 11.2218 6.85038 11.2092 6.84759 11.1897C6.84619 11.1757 6.85178 11.1631 6.86156 11.1561C7.00829 11.0429 7.11869 10.885 7.1718 10.7075C7.21372 10.5692 7.22211 10.4238 7.19555 10.2813C7.13966 9.97666 7.11869 9.7307 7.16202 9.42186C7.19416 9.18569 7.26123 8.95371 7.36325 8.73292L5.39283 10.0801C5.37746 10.0912 5.3551 10.0871 5.34532 10.0703C5.33693 10.0577 5.33693 10.0423 5.34532 10.0312L6.6198 8.16555C6.40459 8.15157 6.19218 8.17533 5.98955 8.23542C5.77294 8.2997 5.56751 8.40591 5.38444 8.54985C5.21675 8.68261 5.00433 8.75388 4.79192 8.75388C4.57951 8.75388 4.38386 8.6882 4.21756 8.56382C4.20219 8.55264 4.1994 8.53028 4.21058 8.51491C4.21896 8.50373 4.23154 8.49954 4.24412 8.50094C4.42858 8.52469 4.61724 8.49116 4.78074 8.40312C4.90791 8.33464 5.01691 8.23682 5.09796 8.11943C5.27404 7.86369 5.43336 7.67644 5.6821 7.48778C5.87216 7.34384 6.08457 7.22645 6.31236 7.144L3.96602 6.7024C3.94785 6.69961 3.93528 6.68144 3.93807 6.66188C3.94087 6.6479 3.95205 6.63672 3.96602 6.63393L6.18659 6.21609C6.04405 6.05398 5.87635 5.91983 5.69049 5.81921C5.49205 5.7116 5.27125 5.64033 5.04067 5.61378C4.82825 5.59003 4.62702 5.48941 4.47749 5.33848C4.33076 5.19175 4.23573 5.00309 4.20499 4.79767C4.20219 4.7781 4.21477 4.76133 4.23433 4.75854C4.24831 4.75714 4.26089 4.76273 4.26787 4.77251C4.38107 4.91924 4.53898 5.02964 4.71646 5.08275C4.85481 5.12467 5.00014 5.13306 5.14268 5.1065C5.44733 5.05061 5.69328 5.02964 6.00212 5.07296C6.23829 5.10511 6.47027 5.17358 6.69107 5.2742L5.34392 3.30378C5.33274 3.28841 5.33693 3.26605 5.3537 3.25627C5.36628 3.24788 5.38165 3.24788 5.39283 3.25627L7.25844 4.53075C7.27241 4.31554 7.24866 4.10313 7.18857 3.90049C7.12428 3.68389 7.01808 3.47846 6.87414 3.29539C6.74138 3.1277 6.67011 2.91528 6.67011 2.70287C6.67011 2.49046 6.73579 2.29481 6.86016 2.12851C6.87134 2.11314 6.8937 2.11035 6.90907 2.12153C6.92025 2.12991 6.92445 2.14249 6.92305 2.15507C6.89929 2.33953 6.93283 2.52819 7.02087 2.69169C7.08935 2.81886 7.18717 2.92786 7.30456 3.00891C7.56029 3.18499 7.74755 3.34431 7.93621 3.59305C8.08015 3.78311 8.19753 3.99552 8.27998 4.22331L8.72158 1.87697C8.72577 1.8588 8.74254 1.84623 8.76211 1.84902C8.77608 1.85182 8.78726 1.863 8.79006 1.87697L9.2079 4.09754C9.37 3.955 9.50416 3.7873 9.60478 3.60144C9.71238 3.4016 9.78365 3.1822 9.8102 2.95162C9.83396 2.7392 9.93458 2.53797 10.0855 2.38844C10.2322 2.24171 10.4209 2.14668 10.6263 2.11733C10.6459 2.11454 10.6627 2.12712 10.6655 2.14668C10.6668 2.16066 10.6613 2.17323 10.6515 2.18022C10.5047 2.29341 10.3943 2.45133 10.3412 2.62881C10.2993 2.76715 10.2909 2.91249 10.3175 3.05503C10.3734 3.35968 10.3943 3.60563 10.351 3.91447C10.3189 4.15064 10.2504 4.38262 10.1498 4.60342L12.1202 3.25627C12.1356 3.24509 12.1579 3.24928 12.1677 3.26465C12.1761 3.27723 12.1761 3.2926 12.1677 3.30378L10.8932 5.16939H10.8946Z" fill="black"/>
<path fill-rule="evenodd" clip-rule="evenodd" d="M8.75788 5.08398C9.63269 5.08398 10.3412 5.7925 10.3412 6.66731C10.3412 7.54212 9.63269 8.25063 8.75788 8.25063C7.88307 8.25063 7.17456 7.54212 7.17456 6.66731C7.17456 5.7925 7.88307 5.08398 8.75788 5.08398ZM8.64748 7.84397C8.66565 7.83978 8.68382 7.83559 8.70199 7.83279C8.72015 7.83 8.73832 7.8286 8.75788 7.8286C8.77745 7.8286 8.79562 7.8286 8.81378 7.83279C8.83195 7.83559 8.85012 7.83838 8.86828 7.84397C8.88645 7.84956 8.90601 7.83838 8.91021 7.81882C8.9158 7.80065 8.90462 7.78108 8.88505 7.77689C8.86549 7.7713 8.84313 7.76711 8.82077 7.76432C8.79841 7.76152 8.77745 7.76012 8.75649 7.76012C8.73552 7.76012 8.71317 7.76152 8.6922 7.76432C8.66984 7.76711 8.64888 7.7713 8.62792 7.77689C8.60975 7.78108 8.59857 7.80065 8.60277 7.81882C8.60836 7.83698 8.62652 7.84816 8.64469 7.84397H8.64748ZM8.18073 7.42054C8.22825 7.4443 8.27436 7.47225 8.32048 7.50019C8.42669 7.57147 8.59159 7.6064 8.75788 7.6064C8.92418 7.6064 9.08769 7.57147 9.19529 7.50019C9.24141 7.47085 9.28752 7.4443 9.33504 7.41914C9.25259 7.41355 9.16734 7.39259 9.09467 7.35765C9.04436 7.3339 8.98847 7.32831 8.93396 7.33809C8.86968 7.35067 8.83195 7.37722 8.75928 7.37722C8.68661 7.37722 8.64888 7.35067 8.5846 7.33809C8.5301 7.32691 8.4742 7.3339 8.42389 7.35765C8.35122 7.39259 8.26598 7.41355 8.18353 7.41914L8.18073 7.42054ZM8.42808 7.48902C8.48258 7.48622 8.53848 7.48343 8.59298 7.48203C8.64469 7.48203 8.69919 7.48063 8.75928 7.48063C8.81937 7.48063 8.87387 7.48063 8.92558 7.48203C8.98008 7.48203 9.03458 7.48482 9.08908 7.48902C9.10865 7.48902 9.12402 7.47504 9.12542 7.45548C9.12542 7.43591 9.11144 7.42054 9.09188 7.41914C9.03877 7.41635 8.98288 7.41355 8.92558 7.41355C8.86689 7.41215 8.81099 7.41076 8.75788 7.41076C8.70478 7.41076 8.64888 7.41076 8.59019 7.41355C8.53289 7.41355 8.47839 7.41774 8.42389 7.41914C8.40433 7.41914 8.39035 7.43591 8.39035 7.45548C8.39035 7.47504 8.40712 7.48902 8.42669 7.48902H8.42808ZM7.93059 7.48063C7.93618 7.45268 7.94736 7.42613 7.96133 7.40237C8.07313 7.4401 8.18492 7.49321 8.28135 7.55749C8.40013 7.63575 8.57901 7.67628 8.75649 7.67628C8.93396 7.67628 9.11284 7.63715 9.23162 7.55749C9.32945 7.49181 9.44124 7.4401 9.55304 7.40237C9.56701 7.42753 9.5768 7.45408 9.58378 7.48203C9.58798 7.5002 9.60614 7.51277 9.62571 7.50858C9.64387 7.50439 9.65645 7.48622 9.65226 7.46666C9.64248 7.42333 9.62571 7.38421 9.60335 7.34927C9.57959 7.31294 9.55024 7.28219 9.51531 7.25704C9.49994 7.24586 9.47758 7.24865 9.4664 7.26402C9.45522 7.2794 9.45801 7.30176 9.47338 7.31294C9.48596 7.32132 9.49574 7.3311 9.50692 7.34088C9.37975 7.36604 9.2442 7.35067 9.12542 7.29756C9.05415 7.26822 8.99545 7.25704 8.91999 7.27241C8.8613 7.28359 8.82356 7.31014 8.75788 7.31014C8.6922 7.31014 8.65447 7.28359 8.59578 7.27241C8.52032 7.25704 8.46162 7.26822 8.39035 7.29756C8.27157 7.35067 8.13601 7.36604 8.00885 7.34088C8.01863 7.3311 8.02981 7.32132 8.04238 7.31294C8.05776 7.30176 8.06055 7.2794 8.04937 7.26402C8.03819 7.24865 8.01583 7.24446 8.00046 7.25704C7.96552 7.28219 7.93618 7.31433 7.91242 7.34927C7.89006 7.38421 7.87189 7.42473 7.86351 7.46666C7.85932 7.48482 7.8705 7.50439 7.89006 7.50858C7.90823 7.51277 7.92779 7.50159 7.93198 7.48203L7.93059 7.48063ZM8.74391 7.10891C8.79562 7.10891 8.84173 7.09074 8.87667 7.06139C8.89204 7.04881 8.90462 7.03484 8.9144 7.01807C8.91859 7.02087 8.92278 7.02366 8.92698 7.02646C8.95493 7.04183 8.98707 7.04462 9.01781 7.03484C9.04017 7.02925 9.06253 7.02646 9.08489 7.02646C9.12262 7.02646 9.15896 7.03344 9.1911 7.04742C9.22464 7.06139 9.25538 7.08235 9.28193 7.10751C9.29591 7.12148 9.31687 7.12148 9.33084 7.10751C9.34482 7.09353 9.34482 7.07257 9.33084 7.0586C9.2987 7.02646 9.25957 7.0013 9.21765 6.98313C9.17992 6.96776 9.13799 6.95798 9.09327 6.95658C9.10306 6.93003 9.10585 6.89789 9.10026 6.86575C9.09048 6.81125 9.05275 6.75954 8.99825 6.74417C8.98008 6.73858 8.96052 6.74976 8.95493 6.76793C8.94934 6.78609 8.96052 6.80566 8.97868 6.81125C9.00803 6.81963 9.0262 6.85038 9.03179 6.87832C9.03598 6.90208 9.03179 6.92444 9.0234 6.94121C9.01502 6.95658 9.00244 6.96636 8.98847 6.96916C8.97868 6.97056 8.9675 6.96916 8.95772 6.96357C8.94934 6.95938 8.94095 6.95239 8.93396 6.94261C8.93396 6.92444 8.93117 6.90627 8.92418 6.88811C8.91719 6.86994 8.89763 6.86156 8.87946 6.86854C8.8613 6.87553 8.85291 6.89509 8.8599 6.91326C8.86269 6.92304 8.86549 6.93003 8.86549 6.94121C8.86549 6.96636 8.85291 6.99012 8.83195 7.00829C8.80959 7.02646 8.77885 7.03903 8.74391 7.03903C8.70897 7.03903 8.67823 7.02785 8.65587 7.00829C8.63491 6.99152 8.62233 6.96776 8.62233 6.94121C8.62233 6.93003 8.62513 6.92444 8.62792 6.91326C8.63491 6.89509 8.62513 6.87553 8.60696 6.86854C8.58879 6.86156 8.56923 6.87134 8.56224 6.88811C8.55525 6.90627 8.55246 6.92304 8.55246 6.94261C8.54547 6.95099 8.53709 6.95798 8.5287 6.96357C8.51892 6.96916 8.50774 6.97056 8.49796 6.96916C8.48398 6.96636 8.4714 6.95658 8.46302 6.94121C8.45324 6.92444 8.45044 6.90208 8.45464 6.87832C8.46022 6.85038 8.47839 6.81963 8.50774 6.81125C8.52591 6.80566 8.53709 6.78749 8.5315 6.76793C8.52591 6.74976 8.50634 6.73858 8.48817 6.74417C8.43367 6.75954 8.39594 6.81125 8.38616 6.86575C8.38057 6.89789 8.38336 6.92863 8.39315 6.95658C8.34983 6.95658 8.3079 6.96636 8.26877 6.98313C8.22685 6.9999 8.18772 7.02646 8.15558 7.0586C8.1416 7.07257 8.1416 7.09353 8.15558 7.10751C8.16955 7.12148 8.19051 7.12148 8.20449 7.10751C8.22964 7.08235 8.26039 7.06139 8.29532 7.04742C8.32747 7.03344 8.3638 7.02646 8.40153 7.02646C8.42389 7.02646 8.44625 7.02925 8.46861 7.03484C8.49935 7.04462 8.5315 7.04183 8.55944 7.02646C8.56364 7.02366 8.56783 7.02087 8.57202 7.01807C8.5818 7.03484 8.59438 7.04881 8.60975 7.06139C8.64469 7.09074 8.69081 7.10891 8.74251 7.10891H8.74391ZM9.10725 6.25645C9.14219 6.29838 9.18411 6.33331 9.23302 6.35847C9.247 6.36546 9.26097 6.37244 9.27634 6.37803C9.247 6.34589 9.23023 6.30397 9.23023 6.25645C9.23023 6.20894 9.24839 6.16702 9.27774 6.13488C9.26237 6.14047 9.24839 6.14745 9.23302 6.15444C9.18411 6.17959 9.14079 6.21453 9.10725 6.25645ZM9.53907 6.38223C9.55863 6.37524 9.57819 6.36825 9.59636 6.35847C9.64527 6.33331 9.68859 6.29838 9.72213 6.25645C9.6872 6.21453 9.64527 6.17959 9.59636 6.15444C9.57819 6.14466 9.55863 6.13627 9.53907 6.13068C9.57121 6.16282 9.59077 6.20754 9.59077 6.25785C9.59077 6.30816 9.57121 6.35148 9.53907 6.38362V6.38223ZM8.23803 6.13488C8.26738 6.16702 8.28554 6.21034 8.28554 6.25645C8.28554 6.30257 8.26738 6.34589 8.23803 6.37803C8.2534 6.37244 8.26737 6.36685 8.28135 6.35847C8.33026 6.33331 8.37358 6.29838 8.40712 6.25645C8.37218 6.21453 8.33026 6.17959 8.28135 6.15444C8.26737 6.14745 8.252 6.14047 8.23663 6.13488H8.23803ZM7.9767 6.38223C7.94456 6.35008 7.925 6.30537 7.925 6.25645C7.925 6.20754 7.94456 6.16282 7.9767 6.12929C7.95714 6.13627 7.93757 6.14326 7.91941 6.15304C7.8705 6.1782 7.82718 6.21313 7.79364 6.25506C7.82857 6.29698 7.8705 6.33192 7.91941 6.35707C7.93757 6.36685 7.95574 6.37384 7.97531 6.38083L7.9767 6.38223ZM9.20088 6.41996C9.26516 6.4535 9.33783 6.47166 9.41469 6.47166C9.49155 6.47166 9.56422 6.4535 9.6271 6.41996C9.69279 6.38642 9.75008 6.33611 9.7934 6.27602C9.80179 6.26344 9.80179 6.24667 9.7934 6.23549C9.75008 6.1754 9.69418 6.12649 9.6285 6.09295C9.56422 6.05941 9.49155 6.04125 9.41609 6.04125C9.34063 6.04125 9.26656 6.05941 9.20367 6.09295C9.13799 6.12649 9.0807 6.1768 9.03738 6.23689C9.02899 6.24947 9.02899 6.26624 9.03738 6.27742C9.0807 6.33751 9.1366 6.38642 9.20228 6.41996H9.20088ZM8.47979 6.27742C8.48817 6.26624 8.48957 6.24947 8.47979 6.23689C8.43647 6.1768 8.37917 6.12649 8.31349 6.09295C8.24921 6.05941 8.17654 6.04125 8.10108 6.04125C8.02561 6.04125 7.95155 6.05941 7.88866 6.09295C7.82298 6.12649 7.76569 6.1768 7.72237 6.23549C7.71398 6.24667 7.71258 6.26344 7.72237 6.27602C7.76569 6.33611 7.82298 6.38642 7.88866 6.41996C7.95295 6.4535 8.02561 6.47166 8.10108 6.47166C8.17654 6.47166 8.25061 6.4535 8.31349 6.41996C8.37917 6.38642 8.43647 6.33611 8.47839 6.27742H8.47979ZM9.92896 6.0105C9.86607 5.94063 9.79061 5.88613 9.70816 5.8484C9.62571 5.81066 9.53767 5.7911 9.44543 5.7911C9.3532 5.7911 9.25538 5.81346 9.17014 5.85399C9.08489 5.89451 9.00803 5.9546 8.94375 6.03007C8.93117 6.04544 8.93396 6.0664 8.94794 6.07898C8.96331 6.09155 8.98427 6.08876 8.99685 6.07478C9.05415 6.00631 9.12262 5.95321 9.19948 5.91687C9.27495 5.88054 9.35879 5.86097 9.44404 5.86097C9.52928 5.86097 9.60475 5.87914 9.67881 5.91128C9.75288 5.94482 9.81995 5.99373 9.87725 6.05662C9.88983 6.07059 9.91219 6.07199 9.92616 6.05941C9.94014 6.04684 9.94153 6.02448 9.92896 6.0105ZM7.63852 6.05801C7.69442 5.99513 7.76289 5.94622 7.83696 5.91268C7.90963 5.87914 7.98928 5.86237 8.07173 5.86237C8.15418 5.86237 8.24082 5.88193 8.31629 5.91827C8.39315 5.9546 8.46162 6.0091 8.51892 6.07618C8.5315 6.09016 8.55386 6.09295 8.56783 6.08037C8.5818 6.0678 8.5846 6.04544 8.57202 6.03146C8.50914 5.956 8.43088 5.89591 8.34563 5.85538C8.26039 5.81486 8.16676 5.7925 8.07033 5.7925C7.97391 5.7925 7.88866 5.81206 7.80761 5.84979C7.72516 5.88752 7.6497 5.94203 7.58681 6.0119C7.57423 6.02587 7.57563 6.04823 7.58961 6.06081C7.60358 6.07339 7.62594 6.07199 7.63852 6.05801Z" fill="#FFCC00"/>
<path fill-rule="evenodd" clip-rule="evenodd" d="M7.56448 7.81028C7.43731 7.67892 7.3339 7.5252 7.25564 7.3575L5.61363 9.76114L7.56448 7.81028ZM7.25564 5.97541C7.3325 5.80772 7.43731 5.654 7.56448 5.52264L5.61363 3.57178L7.25564 5.97541ZM6.4535 7.16885L7.07397 7.28623C6.74976 7.35331 6.44092 7.46511 6.15305 7.61184C5.80368 7.79211 5.48646 8.02689 5.21256 8.30498C5.02949 8.48945 4.77795 8.58447 4.51942 8.56491C4.62423 8.54814 4.72344 8.5132 4.81428 8.46429C4.95263 8.39023 5.07002 8.28402 5.15806 8.15545C5.32994 7.9067 5.48227 7.72503 5.72542 7.54197C5.94203 7.37846 6.18659 7.2513 6.4521 7.16885H6.4535ZM7.18857 7.33375L6.66731 8.09816C6.43114 8.0772 6.19497 8.10235 5.97138 8.16803C5.74639 8.23511 5.53258 8.34411 5.34392 8.49364C5.1902 8.61661 4.99036 8.68369 4.79332 8.68369C4.68851 8.68369 4.59348 8.66692 4.49426 8.63338C4.78074 8.65994 5.06023 8.55792 5.26286 8.35389C5.53118 8.08139 5.84281 7.85081 6.18519 7.67473C6.49543 7.51542 6.83221 7.39943 7.18857 7.33514V7.33375ZM7.10612 6.63222C7.11031 6.44356 7.14525 6.26189 7.20813 6.0942L4.34753 6.63222H7.10612ZM8.18496 5.11597C8.35265 5.05309 8.53432 5.01815 8.72298 5.01396V2.25537L8.18496 5.11597ZM7.61339 5.47372L5.66254 3.52287L8.06617 5.16489C7.89848 5.24175 7.74476 5.34656 7.61339 5.47372ZM7.20673 7.24012C7.14385 7.07242 7.10891 6.89075 7.10472 6.70209H4.34613L7.20673 7.24012ZM8.13884 4.98322C8.07176 4.659 7.95997 4.35017 7.81323 4.06229C7.63296 3.71292 7.39819 3.3957 7.12009 3.1218C6.93563 2.93873 6.8406 2.68719 6.86016 2.42866C6.87693 2.53347 6.91187 2.63269 6.96078 2.72352C7.03485 2.86187 7.14105 2.97926 7.26962 3.0673C7.51837 3.23918 7.70004 3.39151 7.8845 3.63467C8.04801 3.85127 8.17517 4.09583 8.25762 4.36135L8.14024 4.98182L8.13884 4.98322ZM11.0623 6.16547C11.3278 6.08302 11.5738 5.95585 11.789 5.79235C12.0322 5.60788 12.1845 5.42621 12.3564 5.17886C12.4444 5.05029 12.5618 4.94409 12.7002 4.87002C12.791 4.82111 12.8902 4.78757 12.995 4.7694C12.7365 4.75124 12.4835 4.84487 12.3019 5.02933C12.028 5.30743 11.7108 5.5422 11.3614 5.72247C11.0749 5.8706 10.7661 5.981 10.4405 6.04808L11.0609 6.16547H11.0623ZM10.3273 5.99917L10.8485 5.23476C11.0847 5.25572 11.3209 5.23057 11.5445 5.16489C11.7694 5.09781 11.9833 4.98881 12.1719 4.83928C12.3256 4.7163 12.5255 4.64922 12.7225 4.64922C12.8273 4.64922 12.9224 4.66599 13.0216 4.70093C12.7351 4.67438 12.4556 4.77639 12.253 4.98042C11.9847 5.25293 11.673 5.48351 11.3306 5.65959C11.0204 5.8189 10.6836 5.93489 10.3273 5.99917ZM10.7423 7.94164C10.9883 8.07161 11.2524 8.15406 11.5207 8.19179C11.8225 8.23371 12.0587 8.21275 12.3564 8.15825C12.5087 8.1289 12.668 8.13729 12.8175 8.1834C12.9154 8.21275 13.0104 8.25886 13.097 8.32175C12.9265 8.12471 12.682 8.01431 12.4221 8.01571C12.0322 8.0185 11.6423 7.96121 11.2678 7.84102C10.9603 7.7432 10.6641 7.60206 10.386 7.42039L10.7423 7.94164ZM10.3384 7.3044L11.2482 7.13391C11.4005 7.31558 11.585 7.46511 11.789 7.5769C11.9958 7.6887 12.2236 7.76277 12.4626 7.79072C12.6582 7.81168 12.8469 7.9067 12.9866 8.04645C13.0607 8.12052 13.1152 8.20017 13.1613 8.2938C12.9782 8.073 12.7071 7.94723 12.4207 7.94863C12.0378 7.95142 11.6549 7.89413 11.2873 7.77674C10.9547 7.67053 10.6347 7.51402 10.3384 7.30719V7.3044ZM9.2596 8.97157C9.34205 9.23709 9.46922 9.48304 9.63273 9.69825C9.81719 9.94141 9.99886 10.0937 10.2462 10.2656C10.3748 10.3537 10.481 10.471 10.5551 10.6094C10.604 10.7002 10.6375 10.7994 10.6557 10.9043C10.6738 10.6443 10.5802 10.3928 10.3957 10.2111C10.1176 9.93722 9.88287 9.61999 9.7026 9.27063C9.55447 8.98415 9.44407 8.67531 9.37699 8.3497L9.2596 8.97017V8.97157ZM9.42451 8.23651L10.1889 8.75776C10.168 8.99393 10.1931 9.2301 10.2588 9.45369C10.3259 9.67869 10.4349 9.8925 10.5844 10.0812C10.7074 10.2349 10.7745 10.4347 10.7745 10.6318C10.7745 10.7366 10.7577 10.8316 10.7241 10.9308C10.7507 10.6443 10.6487 10.3648 10.4447 10.1622C10.1721 9.89389 9.94157 9.58226 9.76549 9.23988C9.60617 8.92965 9.49019 8.59286 9.4259 8.23651H9.42451ZM7.48343 8.65015L8.00468 8.2938C7.82301 8.5705 7.68327 8.86816 7.58405 9.1756C7.46387 9.55012 7.40657 9.94001 7.40937 10.3299C7.40937 10.5898 7.29897 10.8344 7.10332 11.0049C7.16481 10.9182 7.21093 10.8232 7.24167 10.7254C7.28779 10.5759 7.29477 10.4165 7.26682 10.2642C7.21232 9.96656 7.19276 9.73039 7.23329 9.42854C7.27102 9.16023 7.35347 8.89611 7.48343 8.65015ZM8.11928 8.24769L8.29116 9.15603C8.10949 9.30836 7.95997 9.49282 7.84817 9.69685C7.73637 9.90368 7.66231 10.1315 7.63436 10.3704C7.61339 10.5661 7.51837 10.7547 7.37862 10.8945C7.30456 10.9685 7.2249 11.023 7.13127 11.0692C7.35207 10.8861 7.47784 10.615 7.47644 10.3285C7.47365 9.9456 7.53094 9.5627 7.64833 9.19656C7.75454 8.86397 7.91105 8.54395 8.11788 8.24769H8.11928ZM8.79285 5.01396C8.98151 5.01815 9.16318 5.05309 9.33087 5.11597L8.79285 2.25537V5.01396ZM7.32692 4.57516C7.34788 4.33899 7.32272 4.10282 7.25704 3.87922C7.18996 3.65423 7.08096 3.44042 6.93143 3.25176C6.80846 3.09804 6.74138 2.8982 6.74138 2.70116C6.74138 2.59635 6.75815 2.50132 6.79169 2.4021C6.76514 2.68858 6.86715 2.96808 7.07118 3.17071C7.34368 3.43902 7.57427 3.75065 7.75035 4.09303C7.90966 4.40327 8.02565 4.74006 8.08993 5.09641L7.32552 4.57516H7.32692ZM7.17599 6.02852L6.26764 6.19901C6.11532 6.01734 5.93085 5.86781 5.72682 5.75601C5.52 5.64421 5.29221 5.57015 5.05325 5.5422C4.8576 5.52124 4.66894 5.42621 4.53059 5.28646C4.45653 5.2124 4.40203 5.13274 4.35591 5.03911C4.53898 5.25991 4.81009 5.38568 5.09657 5.38429C5.47947 5.38149 5.86238 5.43879 6.22851 5.55617C6.56111 5.66238 6.88113 5.8189 7.17739 6.02572L7.17599 6.02852ZM9.22467 4.17548L9.39516 5.08523C9.60198 4.78897 9.7585 4.46895 9.8647 4.13635C9.98209 3.76882 10.0394 3.38592 10.0366 3.00301C10.0352 2.71653 10.161 2.44543 10.3818 2.26236C10.2881 2.30847 10.2085 2.36298 10.1344 2.43704C9.99607 2.57539 9.90104 2.76405 9.87868 2.96109C9.85073 3.20006 9.77806 3.42784 9.66487 3.63467C9.55447 3.83869 9.40494 4.02316 9.22187 4.17548H9.22467ZM6.77352 5.39267L7.12987 5.91392C6.85178 5.73225 6.55552 5.59251 6.24808 5.49329C5.87356 5.37311 5.48366 5.31581 5.09377 5.31861C4.83384 5.31861 4.58929 5.20821 4.4188 5.01256C4.50544 5.07405 4.60047 5.12017 4.69829 5.15091C4.84782 5.19703 5.00713 5.20541 5.15945 5.17607C5.45711 5.12156 5.69328 5.102 5.99513 5.14253C6.26345 5.18026 6.52757 5.26271 6.77352 5.39267ZM9.51115 5.03911L10.0324 4.68276C10.1624 4.43681 10.2448 4.17269 10.2825 3.90438C10.3245 3.60252 10.3035 3.36635 10.249 3.06869C10.2197 2.91637 10.228 2.75706 10.2742 2.60753C10.3035 2.50971 10.3496 2.41468 10.4125 2.32804C10.2155 2.49853 10.1051 2.74309 10.1065 3.00301C10.1093 3.3929 10.052 3.7828 9.93178 4.15732C9.83396 4.46476 9.69282 4.76102 9.51115 5.03911ZM9.44826 5.16489L11.8519 3.52287L9.90104 5.47372C9.76968 5.34656 9.61596 5.24314 9.44826 5.16489ZM9.94995 5.52264L11.9008 3.57178L10.2588 5.97541C10.1819 5.80772 10.0771 5.654 9.94995 5.52264ZM10.3077 6.0928L13.1683 6.63082H10.4097C10.4055 6.44217 10.3706 6.2605 10.3077 6.0928ZM10.4097 6.70209C10.4055 6.89075 10.3706 7.07242 10.3077 7.24012L13.1683 6.70209H10.4097ZM10.2588 7.3575L11.9008 9.76114L9.94995 7.81028C10.0771 7.67892 10.1805 7.5252 10.2588 7.3575ZM9.90104 7.85919L11.8519 9.81005L9.44826 8.16803C9.61596 8.09117 9.76968 7.98636 9.90104 7.85919ZM9.33087 8.21694L8.79285 11.0775V8.31896C8.98151 8.31476 9.16318 8.27983 9.33087 8.21694ZM8.72298 8.31896C8.53432 8.31476 8.35265 8.27983 8.18496 8.21694L8.72298 11.0775V8.31896ZM8.06617 8.16803L5.66254 9.81005L7.61339 7.85919C7.74476 7.98496 7.89848 8.08977 8.06617 8.16803Z" fill="#FFCC00"/>
</g>
</g>
<rect x="0.25" y="0.25" width="23.5" height="23.5" rx="11.75" stroke="#E5E3E1" stroke-width="0.5"/>
<defs>
<clipPath id="clip0_16335_1874">
<rect width="24" height="24" rx="12" fill="white"/>
</clipPath>
</defs>
</svg>
