<svg width="48" height="48" viewBox="0 0 48 48" fill="none" xmlns="http://www.w3.org/2000/svg">
<path fill-rule="evenodd" clip-rule="evenodd" d="M28.9795 39.02C28.9795 41.77 26.7495 44 23.9995 44C21.2495 44 19.0195 41.77 19.0195 39.02C19.0195 36.27 21.2495 34.04 23.9995 34.04C26.7495 34.04 28.9795 36.27 28.9795 39.02Z" fill="#DF0000"/>
<path d="M23.56 25.67C23.01 25.69 22.58 26.15 22.59 26.7C22.61 27.25 23.07 27.7 23.62 27.67C26.8 27.56 29.78 28.75 32.03 30.99C32.23 31.19 32.48 31.28 32.74 31.28C33 31.28 33.25 31.18 33.45 30.99C33.84 30.6 33.84 29.97 33.45 29.58C30.85 26.98 27.24 25.56 23.56 25.67Z" fill="#323232"/>
<path d="M30.0595 18.4006C29.5295 18.2406 28.9695 18.5506 28.8195 19.0806C28.6595 19.6106 28.9695 20.1706 29.4995 20.3206C32.6095 21.2306 35.4795 22.9306 37.7795 25.2406C37.9795 25.4406 38.2295 25.5306 38.4895 25.5306C38.7495 25.5306 38.9995 25.4306 39.1995 25.2406C39.5895 24.8506 39.5895 24.2206 39.1995 23.8306C36.6595 21.2906 33.4995 19.4106 30.0695 18.4106L30.0595 18.4006Z" fill="#323232"/>
<path d="M44.9184 18.1005C42.3084 15.4905 39.2784 13.4105 35.9284 11.9405C35.4184 11.7205 34.8284 11.9405 34.6084 12.4505C34.3884 12.9605 34.6084 13.5505 35.1184 13.7705C38.2484 15.1505 41.0684 17.0805 43.4984 19.5205C43.6984 19.7205 43.9484 19.8105 44.2084 19.8105C44.4684 19.8105 44.7184 19.7105 44.9184 19.5205C45.3084 19.1305 45.3084 18.5005 44.9184 18.1105V18.1005Z" fill="#323232"/>
<path d="M37.2181 3.22037C36.7881 2.87037 36.1581 2.94037 35.8081 3.37037L30.3281 10.1304C20.4081 7.96037 10.2581 10.9004 3.05812 18.1004C2.66813 18.4904 2.66813 19.1204 3.05812 19.5104C3.25813 19.7104 3.50813 19.8004 3.76813 19.8004C4.02813 19.8004 4.27813 19.7004 4.47813 19.5104C10.9481 13.0404 19.9781 10.2504 28.9181 11.8804L24.3281 17.5404C18.4581 17.4504 12.9481 19.6704 8.79813 23.8204C8.40813 24.2104 8.40813 24.8404 8.79813 25.2304C8.98813 25.4304 9.24813 25.5204 9.50813 25.5204C9.76813 25.5204 10.0181 25.4204 10.2181 25.2304C13.5981 21.8504 17.9681 19.8804 22.6781 19.5704L9.81812 35.4404C9.46812 35.8704 9.53813 36.5004 9.96813 36.8504C10.1581 37.0004 10.3781 37.0704 10.5981 37.0704C10.8881 37.0704 11.1781 36.9404 11.3781 36.7004L37.3681 4.63037C37.7181 4.20037 37.6481 3.57037 37.2181 3.22037Z" fill="#323232"/>
</svg>
