<svg width="304" height="60" viewBox="0 0 304 60" fill="none" xmlns="http://www.w3.org/2000/svg">
<path d="M35.0296 10.4615C28.4744 3.89744 19.5633 0 10.2938 0H0L0.768194 2C7.5283 19.5897 20.3315 11.4872 37.3854 27.1282L37.5903 27.2821C39.8949 29.3846 41.4825 27.4359 40.7143 26.2051C39.9973 25.0769 40.0997 24.4615 40.1509 24.3077C43.531 25.2308 46.655 26.9231 49.2156 29.1282L49.0108 29.5897C47.7305 32.1538 35.1321 31.0769 34.9784 36.4103C34.9272 37.8974 35.8491 39.1282 37.1294 39.641L39.6388 40.6667C47.8329 43.9487 55.1051 48.9744 61.0458 55.2308C61.1482 55.3333 61.1482 55.5385 61.0458 55.641C60.9946 55.6923 60.8922 55.7436 60.841 55.7436C60.7898 55.7436 60.6873 55.7436 60.6361 55.6923C52.0323 48.7692 42.097 44.5641 31.9569 42.9744C31.2399 42.8718 30.6765 42.2564 30.5741 41.5385C28.5768 23.6923 10.9084 22.4615 4.19946 10.9744L22.841 60H84.2965L35.0296 10.4615Z" fill="white"/>
<path d="M111.081 34.4101C111.081 26.6666 102.938 20.4614 90.8517 20.4614C78.8167 20.4614 70.6738 26.6666 70.6738 34.7178C70.6738 42.6665 78.407 48.9742 90.5445 48.9742H106.83C109.698 48.9742 110.978 47.846 112.054 45.9999L113.744 43.0768H106.625C109.544 40.7178 111.081 37.846 111.081 34.4101ZM90.8517 42.5127C84.2453 42.5127 78.6118 39.2307 78.6118 34.7178C78.6118 30.205 84.194 26.923 90.8517 26.923C97.4582 26.923 103.092 30.205 103.092 34.7178C103.092 39.2307 97.5094 42.5127 90.8517 42.5127ZM185.34 22.7691H192.407V48.9742H185.34L164.547 31.5896V48.9742H157.48V22.7691H161.935C164.189 22.7691 165.367 23.3845 166.647 24.4614L185.391 40.1024V22.7691H185.34ZM232.251 28.6666H217.706V48.9742H210.639V28.6666H196.094V22.7691H232.199V28.6666H232.251ZM135.97 22.7691H132.693C129.876 22.7691 128.34 24.1537 127.315 25.9999L113.949 48.9742H121.989L124.703 44.1537H143.857L146.571 48.9742H154.765L141.348 25.9999C140.272 24.1537 138.736 22.7691 135.97 22.7691ZM127.879 38.4101L133.768 27.8973C133.973 27.5383 134.485 27.5383 134.69 27.8973L140.579 38.4101H127.879ZM248.434 22.7691H245.156C242.34 22.7691 240.803 24.1537 239.779 25.9999L226.412 48.9742H234.453L237.167 44.1537H256.321L259.035 48.9742H267.229L253.863 25.9999C252.787 24.1537 251.199 22.7691 248.434 22.7691ZM240.342 38.4101L246.232 27.8973C246.437 27.5383 246.949 27.5383 247.154 27.8973L253.043 38.4101H240.342ZM304 41.0768C304 44.3076 301.491 46.7178 297.137 48.0512C294.474 48.8717 290.838 49.3332 286.792 49.3332C280.442 49.3332 273.682 48.5127 269.329 47.0768L268.663 46.8717L270.456 41.1794C275.577 42.8204 281.005 43.4871 285.922 43.4871C293.962 43.4871 295.96 42.564 295.96 41.5383C295.96 41.1281 295.703 40.8204 295.038 40.6153C294.218 40.3589 292.016 39.8973 285.41 38.8204C278.137 37.6409 274.809 37.0255 272.402 35.8973C269.995 34.7691 268.509 32.9742 268.509 30.3589C268.509 28.3589 269.482 26.7691 271.07 25.4871C273.887 23.3332 278.65 22.4614 283.822 22.4614C290.531 22.4614 296.164 23.0255 302.412 24.564L302.976 24.7178L301.491 30.2563C294.526 28.7691 290.633 28.3589 285.307 28.2563C281.569 28.205 279.008 28.5127 277.625 28.923C276.857 29.1794 276.55 29.5383 276.55 29.9486C276.55 30.3076 276.806 30.6666 277.574 30.923C278.394 31.1794 279.776 31.5383 286.946 32.6666C294.679 33.9486 297.24 34.4614 299.391 35.2819C302.259 36.4101 304 38.5127 304 41.0768Z" fill="white"/>
</svg>
