<svg width="24" height="24" viewBox="0 0 24 24" fill="none" xmlns="http://www.w3.org/2000/svg">
<g clip-path="url(#clip0_16335_10014)">
<path d="M20.4851 20.4853C25.1714 15.799 25.1714 8.20101 20.4851 3.51472C15.7988 -1.17157 8.20081 -1.17157 3.51452 3.51472C-1.17177 8.20101 -1.17177 15.799 3.51452 20.4853C8.20081 25.1716 15.7988 25.1716 20.4851 20.4853Z" fill="white"/>
<mask id="mask0_16335_10014" style="mask-type:luminance" maskUnits="userSpaceOnUse" x="-1" y="0" width="25" height="24">
<path d="M20.4851 20.4853C25.1714 15.799 25.1714 8.20101 20.4851 3.51472C15.7988 -1.17157 8.20081 -1.17157 3.51452 3.51472C-1.17177 8.20101 -1.17177 15.799 3.51452 20.4853C8.20081 25.1716 15.7988 25.1716 20.4851 20.4853Z" fill="white"/>
</mask>
<g mask="url(#mask0_16335_10014)">
<path d="M36 12H0V18.0007H36V12Z" fill="#FF0000"/>
<path d="M36 18.0005H0V24.0012H36V18.0005Z" fill="#003399"/>
<path d="M36 0H0V6.0007H36V0Z" fill="#FED700"/>
<path d="M36 6.00049H0V12.0012H36V6.00049Z" fill="white"/>
<path fill-rule="evenodd" clip-rule="evenodd" d="M0 0L17.9644 12L0 24V12V0Z" fill="#007C29"/>
<path fill-rule="evenodd" clip-rule="evenodd" d="M6.85175 6.28564C7.3171 6.28564 7.76988 6.34154 8.20309 6.44775C5.71701 7.05425 3.87096 9.29578 3.87096 11.9691C3.87096 14.6425 5.71701 16.884 8.20309 17.4905C7.76988 17.5967 7.3171 17.6526 6.85175 17.6526C3.71305 17.6526 1.16827 15.1078 1.16827 11.9691C1.16827 8.83042 3.71305 6.28564 6.85175 6.28564Z" fill="white"/>
<path fill-rule="evenodd" clip-rule="evenodd" d="M8.48261 7.34521L8.7034 8.02997L9.4231 8.02857L8.84036 8.45061L9.06395 9.13397L8.48261 8.71053L7.90126 9.13397L8.12486 8.45061L7.54211 8.02857L8.26181 8.02997L8.48261 7.34521Z" fill="white"/>
<path fill-rule="evenodd" clip-rule="evenodd" d="M8.48261 9.83105L8.7034 10.5158L9.4231 10.5144L8.84036 10.9364L9.06395 11.6198L8.48261 11.1964L7.90126 11.6198L8.12486 10.9364L7.54211 10.5144L8.26181 10.5158L8.48261 9.83105Z" fill="white"/>
<path fill-rule="evenodd" clip-rule="evenodd" d="M8.48261 12.3174L8.7034 13.0021L9.4231 13.0007L8.84036 13.4228L9.06395 14.1061L8.48261 13.6827L7.90126 14.1061L8.12486 13.4228L7.54211 13.0007L8.26181 13.0021L8.48261 12.3174Z" fill="white"/>
<path fill-rule="evenodd" clip-rule="evenodd" d="M8.48261 14.8047L8.7034 15.488H9.4231L8.84036 15.9101L9.06395 16.5934L8.48261 16.1686L7.90126 16.5934L8.12486 15.9101L7.54211 15.488H8.26181L8.48261 14.8047Z" fill="white"/>
</g>
</g>
<rect x="0.25" y="0.25" width="23.5" height="23.5" rx="11.75" stroke="#E5E3E1" stroke-width="0.5"/>
<defs>
<clipPath id="clip0_16335_10014">
<rect width="24" height="24" rx="12" fill="white"/>
</clipPath>
</defs>
</svg>
