<svg width="24" height="24" viewBox="0 0 24 24" fill="none" xmlns="http://www.w3.org/2000/svg">
<g clip-path="url(#clip0_16335_12009)">
<path d="M23.8449 13.9238C24.9068 7.382 20.4644 1.218 13.9226 0.156118C7.38083 -0.905765 1.21683 3.53658 0.154948 10.0784C-0.906935 16.6202 3.53541 22.7842 10.0772 23.846C16.619 24.9079 22.783 20.4656 23.8449 13.9238Z" fill="white"/>
<mask id="mask0_16335_12009" style="mask-type:luminance" maskUnits="userSpaceOnUse" x="-1" y="-1" width="26" height="26">
<path d="M23.8449 13.9238C24.9068 7.382 20.4644 1.218 13.9226 0.156118C7.38083 -0.905765 1.21683 3.53658 0.154948 10.0784C-0.906935 16.6202 3.53541 22.7842 10.0772 23.846C16.619 24.9079 22.783 20.4656 23.8449 13.9238Z" fill="white"/>
</mask>
<g mask="url(#mask0_16335_12009)">
<path d="M36 0H0V24H36V0Z" fill="white"/>
<path d="M36.0014 16.001H5.78131V24.0014H36.0014V16.001Z" fill="#007C29"/>
<path d="M36.0014 0H5.78131V16.0009H36.0014V0Z" fill="#FF0000"/>
<path fill-rule="evenodd" clip-rule="evenodd" d="M1.46734 18.7499H1.29545V18.4438H1.12356V18.7499H0.951673V19.1132H0.779785V19.4584H0.951673V19.8217H1.12356V20.1278H1.29545V19.8217H1.46734V19.4584H1.63922V19.1132H1.46734V18.7499ZM1.12356 19.1132H1.29545V19.4584H1.12356V19.1132Z" fill="#FF0000"/>
<path d="M0.951673 17.7368H0.779785V18.2944H0.951673V17.7368Z" fill="#FF0000"/>
<path fill-rule="evenodd" clip-rule="evenodd" d="M1.79152 19.6426H1.9634V20.1261H2.27504V20.4643H2.53217V20.9744H2.75576V21.4313H3.02408V20.9744H3.24767V20.4643H3.5048V20.1261H3.81644V19.6426H3.98832V20.1261H4.29996V20.4643H4.55709V20.9744H4.78068V21.4313H5.00428V22.0658H4.78068V22.587H4.55709V23.2438H4.29996V23.6449H3.50341V23.2438H3.24627V22.587H3.02268V22.0658H2.75437V22.587H2.53077V23.2438H2.27364V23.6449H1.47709V23.2438H1.21995V22.587H0.99636V22.0658H0.772766V21.4313H0.99636V20.9744H1.21995V20.4643H1.47709V20.1261H1.78872V19.6426H1.79152ZM4.44669 21.4858H4.21751V20.9744H3.98832V20.5621H3.81644V20.9744H3.58725V21.4858H3.35807V22.0336H3.58725V22.5451H3.81644V22.9574H3.98832V22.5451H4.21751V22.0336H4.44669V21.4858ZM1.33455 21.4858V22.0336H1.56373V22.5451H1.79291V22.9574H1.9648V22.5451H2.19398V22.0336H2.42317V21.4858H2.19398V20.9744H1.9648V20.5621H1.79291V20.9744H1.56373V21.4858H1.33455Z" fill="#FF0000"/>
<path d="M0.951673 20.2534H0.779785V20.811H0.951673V20.2534Z" fill="#FF0000"/>
<path d="M1.98439 21.4858H1.8125V22.0336H1.98439V21.4858Z" fill="#FF0000"/>
<path d="M0.951673 22.7422H0.779785V23.2453H0.951673V22.7422Z" fill="#FF0000"/>
<path d="M0.951673 15.1162H0.779785V15.671H0.951673V15.1162Z" fill="#FF0000"/>
<path fill-rule="evenodd" clip-rule="evenodd" d="M0.898569 14.3729V14.8285H0.779785V13.1361H0.948878V12.5716H1.17247V12.1845H1.39467V11.8197H1.17247V11.4326H0.948878V10.8681H0.779785V9.17574H0.898569V9.63131H1.01735V10.1973H1.22138V10.6473H1.41004V11.2188H1.67835V10.6473H1.86701V10.0226H2.1479V9.44125H2.38826V8.95354H2.644V8.30372H2.35892V7.47503H2.16048V7.01107H1.84745V7.70701H2.10039V8.21848H1.9285V8.88786H1.67137V9.36998H1.431V8.88786H1.22418V8.21848H0.95307V7.70701H0.781183V7.01107H0.95307V6.53593H1.22418V5.949H1.57075V5.49203H1.75941V5.1748H1.99977V5.49203H2.19122V6.0021H2.46233V6.53174H2.72365V7.12706H3.06324V6.53174H3.32456V6.0021H3.59427V5.49203H3.78572V5.1748H4.02609V5.49203H4.21475V5.949H4.56132V6.53593H4.83242V7.01107H5.00431V7.70701H4.83242V8.21848H4.56132V8.88786H4.35449V9.36998H4.11413V8.88786H3.857V8.21848H3.68511V7.70701H3.93805V7.01107H3.62502V7.47503H3.42658V8.30372H3.14149V8.95354H3.39723V9.44125H3.63759V10.0226H3.91848V10.6473H4.10714V11.2188H4.37545V10.6473H4.56411V10.1973H4.76814V9.63131H4.88692V9.17574H5.00571V10.8681H4.83662V11.4326H4.61302V11.8197H4.39083V12.1845H4.61302V12.5716H4.83662V13.1361H5.00571V14.8285H4.88692V14.3729H4.76814V13.8069H4.56411V13.3569H4.37545V12.7854H4.10714V13.3569H3.91848V13.9816H3.63759V14.563H3.39723V15.0507H3.14149V15.7005H3.42658V16.5292H3.62502V16.9931H3.93805V16.2972H3.68511V15.7857H3.857V15.1163H4.11413V14.6342H4.35449V15.1163H4.56132V15.7857H4.83242V16.2972H5.00431V16.9931H4.83242V17.4683H4.56132V18.0552H4.21475V18.5122H4.02609V18.8294H3.78572V18.5122H3.59427V18.0021H3.32456V17.4725H3.06324V16.8771H2.72365V17.4725H2.46233V18.0021H2.19122V18.5122H1.99977V18.8294H1.75941V18.5122H1.57075V18.0552H1.22418V17.4683H0.95307V16.9931H0.781183V16.2972H0.95307V15.7857H1.22418V15.1163H1.431V14.6342H1.67137V15.1163H1.9285V15.7857H2.10039V16.2972H1.84745V16.9931H2.16048V16.5292H2.35892V15.7005H2.644V15.0507H2.38826V14.563H2.1479V13.9816H1.86701V13.3569H1.67835V12.7854H1.41004V13.3569H1.22138V13.8069H1.01735V14.3729H0.898569ZM1.61267 12.1845H1.78735V12.5716H2.06126V13.1361H2.30721V13.7357H2.51124V14.2318H2.70549V14.7446H3.07162V14.2318H3.26587V13.7357H3.4699V13.1361H3.71585V12.5716H3.98975V12.1845H4.16444V11.8197H3.98975V11.4326H3.71585V10.8681H3.4699V10.2686H3.26587V9.77245H3.07162V9.25958H2.70549V9.77245H2.51124V10.2686H2.30721V10.8681H2.06126V11.4326H1.78735V11.8197H1.61267V12.1845Z" fill="#FF0000"/>
<path d="M0.951673 11.7417H0.779785V12.263H0.951673V11.7417Z" fill="#FF0000"/>
<path fill-rule="evenodd" clip-rule="evenodd" d="M4.31398 18.7499H4.48587V18.4438H4.65775V18.7499H4.82964V19.1132H5.00153V19.4584H4.82964V19.8217H4.65775V20.1278H4.48587V19.8217H4.31398V19.4584H4.14209V19.1132H4.31398V18.7499ZM4.65775 19.1132H4.48587V19.4584H4.65775V19.1132Z" fill="#FF0000"/>
<path fill-rule="evenodd" clip-rule="evenodd" d="M2.97657 18.7499H3.14845V18.4438H3.32034V18.7499H3.49223V19.1132H3.66412V19.4584H3.49223V19.8217H3.32034V20.1278H3.14845V19.8217H2.97657V19.4584H2.80468V19.8217H2.63279V20.1278H2.4609V19.8217H2.28901V19.4584H2.11713V19.1132H2.28901V18.7499H2.4609V18.4438H2.63279V18.7499H2.80468V19.1132H2.97657V18.7499ZM2.4595 19.1132V19.4584H2.63139V19.1132H2.4595ZM3.32174 19.1132H3.14985V19.4584H3.32174V19.1132Z" fill="#FF0000"/>
<path d="M5.00154 20.2534H4.82965V20.811H5.00154V20.2534Z" fill="#FF0000"/>
<path d="M2.97658 17.7368H2.80469V18.2944H2.97658V17.7368Z" fill="#FF0000"/>
<path d="M5.00154 17.7368H4.82965V18.2944H5.00154V17.7368Z" fill="#FF0000"/>
<path d="M5.00154 15.1162H4.82965V15.671H5.00154V15.1162Z" fill="#FF0000"/>
<path d="M5.00154 11.7417H4.82965V12.263H5.00154V11.7417Z" fill="#FF0000"/>
<path d="M3.96876 21.4858H3.79688V22.0336H3.96876V21.4858Z" fill="#FF0000"/>
<path d="M5.00154 22.7422H4.82965V23.2453H5.00154V22.7422Z" fill="#FF0000"/>
<path d="M2.97658 20.2534H2.80469V20.811H2.97658V20.2534Z" fill="#FF0000"/>
<path d="M2.97658 23.0747H2.80469V23.6463H2.97658V23.0747Z" fill="#FF0000"/>
<path d="M2.97658 13.1362H2.80469V13.691H2.97658V13.1362Z" fill="#FF0000"/>
<path d="M2.26948 11.7417H2.0976V12.263H2.26948V11.7417Z" fill="#FF0000"/>
<path d="M3.68373 11.7417H3.51184V12.263H3.68373V11.7417Z" fill="#FF0000"/>
<path fill-rule="evenodd" clip-rule="evenodd" d="M2.5727 12.1801H2.73201V11.8251H2.5727V11.5261H2.38544V10.9727H2.55732V11.2703H2.76694V11.5386H3.01429V11.2703H3.22391V10.9727H3.3958V11.5261H3.20854V11.8251H3.04923V12.1801H3.20854V12.4777H3.3958V13.0325H3.22391V12.7349H3.01429V12.4651H2.76694V12.7349H2.55732V13.0325H2.38544V12.4777H2.5727V12.1801Z" fill="#FF0000"/>
<path fill-rule="evenodd" clip-rule="evenodd" d="M1.46734 5.25583H1.29545V5.56187H1.12356V5.25583H0.951673V4.89249H0.779785V4.54731H0.951673V4.18397H1.12356V3.87793H1.29545V4.18397H1.46734V4.54731H1.63922V4.89249H1.46734V5.25583ZM1.12356 4.89249H1.29545V4.54731H1.12356V4.89249Z" fill="#FF0000"/>
<path d="M0.951673 5.71143H0.779785V6.26901H0.951673V5.71143Z" fill="#FF0000"/>
<path fill-rule="evenodd" clip-rule="evenodd" d="M1.79152 4.3617H1.9634V3.87818H2.27504V3.54H2.53217V3.02992H2.75576V2.57295H3.02408V3.02992H3.24767V3.54H3.5048V3.87818H3.81644V4.3617H3.98832V3.87818H4.29996V3.54H4.55709V3.02992H4.78068V2.57295H5.00428V1.93851H4.78068V1.41725H4.55709V0.760446H4.29996V0.359375H3.50341V0.760446H3.24627V1.41725H3.02268V1.93851H2.75437V1.41725H2.53077V0.760446H2.27364V0.359375H1.47709V0.760446H1.21995V1.41725H0.99636V1.93851H0.772766V2.57295H0.99636V3.02992H1.21995V3.54H1.47709V3.87818H1.78872V4.3617H1.79152ZM4.44669 2.51845H4.21751V3.02992H3.98832V3.44217H3.81644V3.02992H3.58725V2.51845H3.35807V1.97065H3.58725V1.45918H3.81644V1.04693H3.98832V1.45918H4.21751V1.97065H4.44669V2.51845ZM1.33455 2.51845V1.97065H1.56373V1.45918H1.79291V1.04693H1.9648V1.45918H2.19398V1.97065H2.42317V2.51845H2.19398V3.02992H1.9648V3.44217H1.79291V3.02992H1.56373V2.51845H1.33455Z" fill="#FF0000"/>
<path d="M0.951673 3.19482H0.779785V3.75241H0.951673V3.19482Z" fill="#FF0000"/>
<path d="M1.98439 1.97021H1.8125V2.51802H1.98439V1.97021Z" fill="#FF0000"/>
<path d="M0.951673 0.758789H0.779785V1.26188H0.951673V0.758789Z" fill="#FF0000"/>
<path d="M0.951673 8.33447H0.779785V8.88927H0.951673V8.33447Z" fill="#FF0000"/>
<path fill-rule="evenodd" clip-rule="evenodd" d="M4.31398 5.25583H4.48587V5.56187H4.65775V5.25583H4.82964V4.89249H5.00153V4.54731H4.82964V4.18397H4.65775V3.87793H4.48587V4.18397H4.31398V4.54731H4.14209V4.89249H4.31398V5.25583ZM4.65775 4.89249H4.48587V4.54731H4.65775V4.89249Z" fill="#FF0000"/>
<path fill-rule="evenodd" clip-rule="evenodd" d="M2.97657 5.25583H3.14845V5.56187H3.32034V5.25583H3.49223V4.89249H3.66412V4.54731H3.49223V4.18397H3.32034V3.87793H3.14845V4.18397H2.97657V4.54731H2.80468V4.18397H2.63279V3.87793H2.4609V4.18397H2.28901V4.54731H2.11713V4.89249H2.28901V5.25583H2.4609V5.56187H2.63279V5.25583H2.80468V4.89249H2.97657V5.25583ZM2.4595 4.89249V4.54731H2.63139V4.89249H2.4595ZM3.32174 4.89249H3.14985V4.54731H3.32174V4.89249Z" fill="#FF0000"/>
<path d="M5.00154 3.19482H4.82965V3.75241H5.00154V3.19482Z" fill="#FF0000"/>
<path d="M2.97658 5.71143H2.80469V6.26901H2.97658V5.71143Z" fill="#FF0000"/>
<path d="M5.00154 5.71143H4.82965V6.26901H5.00154V5.71143Z" fill="#FF0000"/>
<path d="M5.00154 8.33447H4.82965V8.88927H5.00154V8.33447Z" fill="#FF0000"/>
<path d="M3.96876 1.97021H3.79688V2.51802H3.96876V1.97021Z" fill="#FF0000"/>
<path d="M5.00154 0.758789H4.82965V1.26188H5.00154V0.758789Z" fill="#FF0000"/>
<path d="M2.97658 3.19482H2.80469V3.75241H2.97658V3.19482Z" fill="#FF0000"/>
<path d="M2.97658 0.359375H2.80469V0.930937H2.97658V0.359375Z" fill="#FF0000"/>
<path d="M2.97658 10.3145H2.80469V10.8692H2.97658V10.3145Z" fill="#FF0000"/>
</g>
</g>
<rect x="0.25" y="0.25" width="23.5" height="23.5" rx="11.75" stroke="#E5E3E1" stroke-width="0.5"/>
<defs>
<clipPath id="clip0_16335_12009">
<rect width="24" height="24" rx="12" fill="white"/>
</clipPath>
</defs>
</svg>
