<svg width="48" height="48" viewBox="0 0 48 48" fill="none" xmlns="http://www.w3.org/2000/svg">
<path d="M26.8598 21.4002H22.2798L20.8498 16.8302C20.7498 16.5902 20.5298 16.4302 20.2798 16.4302C20.0298 16.4302 19.7998 16.5902 19.7098 16.8302L18.2798 21.4002H13.7498C13.4998 21.4302 13.2898 21.6102 13.2198 21.8602C13.1498 22.1102 13.2198 22.3902 13.4198 22.5502L17.0898 25.3602L15.6598 29.9302C15.5898 30.1902 15.6898 30.4702 15.8998 30.6302C16.1098 30.7902 16.3998 30.7902 16.6098 30.6302L20.2798 27.8202L23.9498 30.6302C24.1598 30.7902 24.4498 30.7902 24.6598 30.6302C24.8698 30.4702 24.9698 30.1902 24.8998 29.9302L23.4698 25.3602L27.1398 22.5502C27.3298 22.3802 27.4098 22.1102 27.3398 21.8602C27.2698 21.6102 27.0598 21.4302 26.8098 21.4002H26.8598Z" fill="#DF0000"/>
<path d="M44.25 19.5101C44.8 19.5101 45.25 19.0601 45.25 18.5101V11.8301C45.25 11.2801 44.8 10.8301 44.25 10.8301H3.75C3.2 10.8301 2.75 11.2801 2.75 11.8301V18.5101C2.75 19.0601 3.2 19.5101 3.75 19.5101C6 19.5101 7.83 21.3401 7.83 23.5901C7.83 25.8401 6 27.6701 3.75 27.6701C3.2 27.6701 2.75 28.1201 2.75 28.6701V36.1201C2.75 36.6701 3.2 37.1201 3.75 37.1201H44.25C44.8 37.1201 45.25 36.6701 45.25 36.1201V28.6701C45.25 28.1201 44.8 27.6701 44.25 27.6701C41.99 27.6701 40.16 25.8401 40.16 23.5901C40.16 21.3401 42 19.5101 44.25 19.5101ZM43.25 29.5901V35.1201H33.1V33.4101C33.1 32.8601 32.65 32.4101 32.1 32.4101C31.55 32.4101 31.1 32.8601 31.1 33.4101V35.1201H4.75V29.5901C7.63 29.1101 9.83 26.6001 9.83 23.5901C9.83 20.5801 7.63 18.0701 4.75 17.5901V12.8301H31.1V14.4401C31.1 14.9901 31.55 15.4401 32.1 15.4401C32.65 15.4401 33.1 14.9901 33.1 14.4401V12.8301H43.25V17.5901C40.36 18.0701 38.16 20.5801 38.16 23.5901C38.16 26.6001 40.37 29.1101 43.25 29.5901Z" fill="#323232"/>
<path d="M32.0996 16.8301C31.5496 16.8301 31.0996 17.2801 31.0996 17.8301V19.6301C31.0996 20.1801 31.5496 20.6301 32.0996 20.6301C32.6496 20.6301 33.0996 20.1801 33.0996 19.6301V17.8301C33.0996 17.2801 32.6496 16.8301 32.0996 16.8301Z" fill="#323232"/>
<path d="M32.0996 22.0303C31.5496 22.0303 31.0996 22.4803 31.0996 23.0303V24.8303C31.0996 25.3803 31.5496 25.8303 32.0996 25.8303C32.6496 25.8303 33.0996 25.3803 33.0996 24.8303V23.0303C33.0996 22.4803 32.6496 22.0303 32.0996 22.0303Z" fill="#323232"/>
<path d="M32.0996 27.2202C31.5496 27.2202 31.0996 27.6702 31.0996 28.2202V30.0202C31.0996 30.5702 31.5496 31.0202 32.0996 31.0202C32.6496 31.0202 33.0996 30.5702 33.0996 30.0202V28.2202C33.0996 27.6702 32.6496 27.2202 32.0996 27.2202Z" fill="#323232"/>
</svg>
