<svg width="48" height="48" viewBox="0 0 48 48" fill="none" xmlns="http://www.w3.org/2000/svg">
<path d="M31.1094 45.2498C33.4794 45.2498 35.1794 36.0098 34.7694 32.6498C34.7694 32.6498 38.7394 30.1598 39.3394 27.5098C39.3394 27.5098 40.6494 34.1998 39.1694 38.7698C37.6894 43.3498 34.8094 45.2498 34.8094 45.2498H31.1094Z" fill="#8DE2E0"/>
<path d="M13.9707 45.2498C16.3407 45.2498 18.0407 36.0098 17.6307 32.6498C17.6307 32.6498 21.6007 30.1598 22.2007 27.5098C22.2007 27.5098 23.5107 34.1998 22.0307 38.7698C20.5507 43.3498 17.6707 45.2498 17.6707 45.2498H13.9707Z" fill="#8DE2E0"/>
<path d="M39.7605 25.13C39.7005 24.91 39.6505 24.72 39.6105 24.58C39.1105 22.59 39.1105 14.24 39.1105 10.22C39.1105 9.87 39.0905 9.53 39.0705 9.19C39.0705 9.18 39.0705 9.16 39.0705 9.15C38.7005 4.81 36.1305 1.75 32.6605 1.75C29.1905 1.75 26.5705 4.85 26.2405 9.25C26.2405 9.25 26.2405 9.26 26.2405 9.27C26.2205 9.58 26.2005 9.89 26.2005 10.22C26.2005 14.24 26.2005 22.59 25.7005 24.58C25.6605 24.73 25.6105 24.91 25.5505 25.13C24.7105 28.14 22.1705 37.3 28.7405 45.14C29.3305 45.84 30.2005 46.25 31.1105 46.25H34.2005C35.1205 46.25 35.9905 45.85 36.5705 45.14C43.1405 37.29 40.5905 28.13 39.7605 25.13ZM32.6505 32.24C31.7105 32.24 30.2005 31.53 29.0105 30.17C29.2305 28.51 29.6105 27.15 29.8405 26.32C29.9205 26.05 29.9805 25.83 30.0205 25.65C30.2705 24.67 30.4305 22.99 30.5205 20.42L32.7205 19.2L34.7705 20.34C34.8705 22.96 35.0305 24.66 35.2805 25.65C35.3205 25.83 35.3805 26.05 35.4605 26.32C35.6905 27.16 36.0705 28.51 36.2905 30.17C35.1105 31.52 33.5905 32.24 32.6505 32.24ZM37.1305 15.6C37.1405 16.93 37.1705 18.22 37.2005 19.4L28.1805 14.4C28.1805 13.26 28.1905 12.11 28.1905 10.97L37.1305 15.6ZM32.6505 7.08C34.2005 7.08 34.6005 8.58 34.6405 9.95L32.6405 11.02L30.6605 9.99C30.7005 8.61 31.0805 7.07 32.6505 7.07V7.08ZM37.1105 10.9C37.1105 11.71 37.1105 12.53 37.1105 13.34L34.7905 12.14L37.1005 10.9H37.1105ZM29.1905 18.88L28.1105 19.48C28.1405 18.6 28.1605 17.65 28.1705 16.68L30.6705 18.07L29.2005 18.88H29.1905ZM27.5905 25.26C27.6105 25.19 27.6305 25.12 27.6405 25.06C27.8005 24.4 27.9205 23.26 28.0005 21.82L28.4705 21.56C28.3805 23.29 28.2505 24.48 28.0805 25.17C28.0405 25.33 27.9805 25.54 27.9105 25.78C27.8105 26.15 27.6805 26.62 27.5405 27.17C27.4405 26.59 27.4305 25.95 27.5805 25.25L27.5905 25.26ZM37.3905 25.78C37.3205 25.53 37.2705 25.33 37.2205 25.17C37.0505 24.47 36.9205 23.25 36.8205 21.48L37.2905 21.74C37.3705 23.22 37.4905 24.39 37.6605 25.06C37.6705 25.12 37.6905 25.19 37.7105 25.26C37.8605 25.95 37.8405 26.59 37.7505 27.18C37.6205 26.63 37.4805 26.16 37.3805 25.78H37.3905ZM32.6505 3.75C34.8705 3.75 36.5605 5.76 36.9905 8.7L36.5505 8.93C36.1305 6.12 34.3405 5.08 32.6405 5.08C30.9405 5.08 29.1205 6.14 28.7205 9L28.2805 8.77C28.7005 5.79 30.4005 3.75 32.6405 3.75H32.6505ZM35.0405 43.86C34.8305 44.11 34.5305 44.25 34.2005 44.25H31.1105C30.7805 44.25 30.4805 44.11 30.2705 43.86C26.3705 39.21 26.0805 33.97 26.5405 30.15C26.7305 30.47 26.9305 30.78 27.1705 31.08C27.1805 31.09 27.1905 31.11 27.2005 31.12C27.2205 31.15 27.2405 31.18 27.2705 31.21C28.7305 33.02 30.8905 34.24 32.6505 34.24C34.4105 34.24 36.5805 33.02 38.0305 31.21C38.0505 31.18 38.0705 31.15 38.1005 31.12C38.1105 31.11 38.1205 31.09 38.1305 31.08C38.3605 30.78 38.5705 30.47 38.7605 30.15C39.2305 33.97 38.9305 39.2 35.0305 43.86H35.0405Z" fill="#323232"/>
<path d="M22.3 24.58C21.8 22.59 21.8 14.24 21.8 10.22C21.8 9.87 21.78 9.53 21.76 9.19C21.76 9.18 21.76 9.16 21.76 9.15C21.39 4.81 18.82 1.75 15.35 1.75C11.88 1.75 9.26 4.85 8.93 9.25C8.93 9.25 8.93 9.26 8.93 9.27C8.91 9.58 8.89 9.89 8.89 10.22C8.89 14.24 8.89 22.59 8.39 24.58C8.35 24.73 8.3 24.91 8.24 25.13C7.4 28.14 4.86 37.3 11.43 45.14C12.02 45.84 12.88 46.25 13.8 46.25H16.89C17.81 46.25 18.67 45.85 19.26 45.14C25.83 37.29 23.28 28.13 22.45 25.13C22.39 24.91 22.34 24.72 22.3 24.58ZM15.35 32.24C14.41 32.24 12.9 31.53 11.71 30.17C11.93 28.51 12.31 27.15 12.54 26.32C12.62 26.05 12.68 25.83 12.72 25.65C12.97 24.67 13.13 22.99 13.22 20.42L15.42 19.2L17.47 20.34C17.57 22.96 17.73 24.66 17.98 25.65C18.02 25.83 18.08 26.05 18.16 26.32C18.39 27.16 18.77 28.51 18.99 30.17C17.81 31.52 16.29 32.24 15.35 32.24ZM19.83 15.6C19.84 16.93 19.87 18.22 19.9 19.4L10.88 14.4C10.88 13.26 10.89 12.11 10.89 10.97L19.83 15.6ZM15.35 7.08C16.9 7.08 17.3 8.58 17.34 9.95L15.34 11.02L13.36 9.99C13.4 8.61 13.78 7.07 15.35 7.07V7.08ZM19.8 10.9C19.8 11.71 19.8 12.53 19.8 13.34L17.48 12.14L19.8 10.9ZM10.79 19.48C10.82 18.6 10.84 17.65 10.85 16.68L13.35 18.07L10.79 19.49V19.48ZM10.28 25.26C10.3 25.19 10.32 25.12 10.33 25.06C10.49 24.4 10.61 23.26 10.69 21.82L11.16 21.56C11.07 23.29 10.94 24.48 10.77 25.17C10.73 25.33 10.67 25.54 10.6 25.78C10.5 26.15 10.37 26.62 10.23 27.17C10.13 26.59 10.12 25.95 10.27 25.25L10.28 25.26ZM20.08 25.78C20.01 25.53 19.96 25.33 19.91 25.17C19.74 24.47 19.61 23.25 19.51 21.48L19.98 21.74C20.06 23.22 20.18 24.39 20.35 25.06C20.36 25.12 20.38 25.19 20.4 25.26C20.55 25.95 20.53 26.59 20.44 27.18C20.31 26.63 20.17 26.16 20.07 25.78H20.08ZM15.35 3.75C17.57 3.75 19.26 5.76 19.69 8.7L19.25 8.93C18.83 6.12 17.04 5.08 15.34 5.08C13.64 5.08 11.82 6.14 11.42 9L10.98 8.77C11.4 5.79 13.1 3.75 15.34 3.75H15.35ZM17.73 43.86C17.52 44.11 17.21 44.25 16.89 44.25H13.8C13.47 44.25 13.17 44.11 12.96 43.86C9.06 39.21 8.77 33.97 9.23 30.15C9.42 30.47 9.62 30.78 9.86 31.08C9.87 31.09 9.88 31.11 9.89 31.12C9.91 31.15 9.93 31.18 9.96 31.21C11.42 33.02 13.58 34.24 15.34 34.24C17.1 34.24 19.27 33.02 20.72 31.21C20.74 31.18 20.76 31.15 20.79 31.12C20.8 31.11 20.81 31.09 20.82 31.08C21.05 30.78 21.26 30.47 21.45 30.15C21.92 33.97 21.62 39.2 17.72 43.86H17.73Z" fill="#323232"/>
</svg>
