<svg width="48" height="48" viewBox="0 0 48 48" fill="none" xmlns="http://www.w3.org/2000/svg">
<path d="M44.25 5.54004H3.75C3.2 5.54004 2.75 5.99004 2.75 6.54004V39.99C2.75 40.54 3.2 40.99 3.75 40.99H44.25C44.8 40.99 45.25 40.54 45.25 39.99V6.54004C45.25 5.99004 44.8 5.54004 44.25 5.54004ZM36.15 33.26H4.75V13.27H43.25V33.25H36.15V33.26ZM43.25 11.27H37.15V7.54004H43.25V11.27ZM35.15 11.27H29.05V7.54004H35.15V11.27ZM27.05 11.27H20.95V7.54004H27.05V11.27ZM18.95 11.27H12.85V7.54004H18.95V11.27ZM4.75 7.54004H10.85V11.27H4.75V7.54004ZM4.75 35.26H10.85V38.99H4.75V35.26ZM12.85 35.26H18.95V38.99H12.85V35.26ZM20.95 35.26H27.05V38.99H20.95V35.26ZM29.05 35.26H35.15V38.99H29.05V35.26ZM43.25 38.99H37.15V35.26H43.25V38.99Z" fill="#323232"/>
<path d="M29.7598 24.1L19.1898 30.01C18.5498 30.37 17.7598 29.9 17.7598 29.17V17.36C17.7598 16.62 18.5498 16.16 19.1898 16.52L29.7598 22.43C30.4198 22.8 30.4198 23.74 29.7598 24.11" fill="#DF0000"/>
</svg>
