<svg width="24" height="24" viewBox="0 0 24 24" fill="none" xmlns="http://www.w3.org/2000/svg">
<path d="M5 13.75H9C9.69036 13.75 10.25 14.3096 10.25 15V19C10.25 19.6904 9.69036 20.25 9 20.25H5C4.30964 20.25 3.75 19.6904 3.75 19V15C3.75 14.3096 4.30964 13.75 5 13.75ZM15 13.75H19C19.6904 13.75 20.25 14.3096 20.25 15V19C20.25 19.6904 19.6904 20.25 19 20.25H15C14.3096 20.25 13.75 19.6904 13.75 19V15C13.75 14.3096 14.3096 13.75 15 13.75ZM5 3.75H9C9.69036 3.75 10.25 4.30964 10.25 5V9C10.25 9.69036 9.69036 10.25 9 10.25H5C4.30964 10.25 3.75 9.69036 3.75 9V5C3.75 4.30964 4.30964 3.75 5 3.75ZM15 3.75H19C19.6904 3.75 20.25 4.30964 20.25 5V9C20.25 9.69036 19.6904 10.25 19 10.25H15C14.3096 10.25 13.75 9.69036 13.75 9V5C13.75 4.30964 14.3096 3.75 15 3.75Z" stroke="#323232" stroke-width="1.5"/>
</svg>
