<svg width="24" height="24" viewBox="0 0 24 24" fill="none" xmlns="http://www.w3.org/2000/svg">
<path fill-rule="evenodd" clip-rule="evenodd" d="M15.981 15.8059C16.5865 16.1455 17.0404 16.7063 17.3493 17.3195C17.6931 17.9878 17.8509 18.7295 18.1402 19.4187C18.3166 19.8339 18.5373 20.26 18.9162 20.5244C19.3122 20.7897 19.7907 20.8802 20.2522 20.9547C19.2364 21.4248 18.0779 21.5711 16.9722 21.4126C16.0846 21.2867 15.2318 20.897 14.5764 20.2823C14.0352 19.7808 13.652 19.1335 13.383 18.452C13.228 18.0787 13.1408 17.6694 12.8914 17.3414C12.7175 17.0993 12.444 16.9356 12.1491 16.8907C12.1554 16.8703 12.1665 16.8303 12.1728 16.8097C12.7966 16.3724 13.5829 16.176 14.3402 16.2701C14.5518 16.3029 14.7813 16.3755 14.9084 16.5614C15.0166 16.713 14.9802 16.9553 14.8126 17.0492C14.6318 17.1646 14.3356 17.0583 14.3189 16.8303C14.3029 16.7094 14.396 16.6217 14.4764 16.5482C14.351 16.6067 14.208 16.6562 14.1326 16.7825C13.9608 17.0301 14.0394 17.3895 14.2665 17.5739C14.6337 17.8836 15.2347 17.816 15.5495 17.4631C15.8044 17.1924 15.833 16.748 15.6326 16.4381C15.449 16.1507 15.1307 15.9749 14.804 15.8995C14.3248 15.7922 13.82 15.8532 13.3579 16.0076C12.876 16.1734 12.419 16.4515 12.1091 16.8629C12.041 16.892 11.9638 16.8638 11.8926 16.8703C11.524 16.8665 11.1575 17.0452 10.9411 17.345C10.6918 17.6743 10.6059 18.0859 10.4491 18.4602C10.1808 19.1398 9.79638 19.7867 9.25619 20.2865C8.57809 20.9233 7.68762 21.3149 6.76686 21.4284C5.69067 21.5625 4.56762 21.4172 3.58267 20.9547C4.10476 20.8737 4.664 20.7667 5.07143 20.4054C5.49791 20.0006 5.70152 19.4311 5.89467 18.8909C6.12133 18.2175 6.32248 17.5217 6.71581 16.9212C7.08381 16.3351 7.62495 15.8427 8.28267 15.6101C9.55981 15.1566 11.1303 15.6006 11.9192 16.7189C12.7956 15.4697 14.6545 15.0608 15.981 15.8059ZM8.79333 15.9739C8.53809 16.0762 8.30095 16.2488 8.16971 16.4945C8.00114 16.8075 8.05295 17.2299 8.30629 17.4831C8.5899 17.7793 9.07314 17.8574 9.43524 17.6657C9.7179 17.5244 9.88457 17.1629 9.74971 16.8644C9.68648 16.6958 9.51981 16.6113 9.364 16.5486C9.45391 16.6303 9.55105 16.7385 9.51029 16.8707C9.4579 17.0882 9.16038 17.1619 8.99314 17.0297C8.82933 16.9107 8.82838 16.6509 8.96514 16.5105C9.16171 16.3 9.46705 16.2593 9.73962 16.2497C10.4192 16.2292 11.1288 16.4069 11.6686 16.8307C11.6827 16.8195 11.6968 16.8067 11.7116 16.7953C11.5823 16.7076 11.4882 16.5814 11.3655 16.4863C10.9771 16.1756 10.5042 15.9762 10.0171 15.8886C9.61105 15.8185 9.18038 15.8221 8.79333 15.9739ZM4.92057 9.05069C5.54743 9.14288 6.164 9.42402 6.57638 9.9166C6.86667 10.2549 7.06076 10.6642 7.19924 11.0859C7.33048 11.4802 7.39048 11.8958 7.55143 12.281C7.77257 12.848 8.15276 13.3528 8.64667 13.7103C9.22229 14.1377 9.9099 14.3635 10.5688 14.6269C11.0926 14.8515 11.6213 15.1667 11.9147 15.6732C12.1147 15.328 12.4335 15.0709 12.7733 14.8709C13.228 14.6012 13.7413 14.4602 14.2221 14.2463C14.8375 13.9855 15.4299 13.6181 15.837 13.0751C16.1754 12.6358 16.3785 12.1075 16.4989 11.5705C16.6661 10.8688 16.9469 10.1528 17.5042 9.66802C18.107 9.13964 18.9434 8.97564 19.7248 9.00479C20.469 9.03659 21.1916 9.28326 21.8322 9.65793C21.496 9.69431 21.1625 9.81469 20.9059 10.04C20.5665 10.3172 20.3857 10.737 20.2745 11.1503C20.115 11.7722 19.9478 12.3987 19.6598 12.9756C19.3322 13.6313 18.8021 14.1922 18.1398 14.5143C17.1598 14.9995 16.0379 15.084 14.9608 15.0375C14.1825 14.9949 13.3707 15.085 12.677 15.4638C12.3882 15.6191 12.1282 15.8276 11.917 16.0789C11.3924 15.4543 10.5851 15.1385 9.78876 15.0585C9.57543 15.032 9.36164 15.0276 9.14767 15.0308L8.50552 15.0489C8.3985 15.0509 8.2915 15.0512 8.18457 15.048C7.24381 15.0267 6.2739 14.8705 5.45429 14.3835C4.9461 14.0836 4.53619 13.633 4.24914 13.1202C3.97924 12.6299 3.81086 12.092 3.664 11.5551C3.55048 11.1099 3.44419 10.6429 3.1539 10.2741C2.87867 9.91374 2.44571 9.69945 2 9.6566C2.87124 9.14288 3.91295 8.88117 4.92057 9.05069ZM9.28267 8.93526C8.80933 9.46307 8.43676 10.1436 8.48533 10.8732C8.51086 11.4789 8.82191 12.0471 9.28038 12.4355C9.81771 12.9084 10.5015 13.1596 11.1693 13.3859C11.4341 13.4808 11.7112 13.5766 11.917 13.7779C12.2137 13.4958 12.6288 13.4113 13 13.2678C13.7537 13.0061 14.5219 12.6276 14.9848 11.9513C15.3387 11.433 15.4453 10.7534 15.2632 10.1532C15.1307 9.69717 14.8712 9.28555 14.5442 8.94345C15.1501 9.34269 15.6257 9.95736 15.8029 10.6675C15.9629 11.2975 15.8011 11.9922 15.4 12.5004C14.8331 13.2265 13.963 13.613 13.1217 13.9265C12.6838 14.104 12.1796 14.2568 11.9156 14.6796C11.6827 14.3017 11.2465 14.14 10.8554 13.9833C10.1339 13.7116 9.39752 13.4217 8.81333 12.9044C8.37581 12.5273 8.04648 12.0031 7.98476 11.4215C7.89619 10.7442 8.17771 10.0692 8.60343 9.5545C8.796 9.31412 9.03905 9.12155 9.28267 8.93526ZM11.9206 3.14136C12.0973 4.1166 12.3305 5.08612 12.6779 6.01602C12.9886 6.85107 13.4507 7.61564 13.859 8.40288C14.233 9.12059 14.5314 9.92193 14.4324 10.7442C14.372 11.496 13.9177 12.1966 13.2558 12.5587C12.831 12.8172 12.3154 12.897 11.9211 13.2073C11.7326 13.0465 11.4981 12.9579 11.2705 12.8684C10.8322 12.7008 10.3916 12.5 10.0613 12.1583C9.55524 11.6627 9.34895 10.9282 9.39848 10.2335C9.44476 9.41412 9.8341 8.67126 10.2162 7.96269C10.576 7.2985 10.944 6.63431 11.2002 5.92193C11.5263 5.01983 11.753 4.08441 11.9206 3.14136ZM11.6362 10.9974C11.2888 11.1358 11.097 11.5606 11.2269 11.9132C11.3419 12.2734 11.7621 12.4932 12.1236 12.3796C12.5175 12.2787 12.7596 11.8164 12.6162 11.4347C12.4916 11.044 12.011 10.8269 11.6362 10.9974Z" fill="#D2232A"/>
</svg>
