<svg width="24" height="24" viewBox="0 0 24 24" fill="none" xmlns="http://www.w3.org/2000/svg">
<path fill-rule="evenodd" clip-rule="evenodd" d="M21.1351 5.04633L21.9846 5.06949C21.9846 5.06949 16.0077 19.2548 15.9923 19.2625H15.1737C15.1776 19.2587 16.6699 15.7104 18.1612 12.1631L18.4494 11.4775C19.8386 8.17299 21.1429 5.06949 21.1429 5.06949H21.1274C21.1274 5.05405 21.1351 5.04633 21.1351 5.04633ZM19.7529 5.0386C19.7529 5.0386 19.8456 5.04633 19.8533 5.04633L19.9305 5.08494L20 5.13127C20 5.13127 20.0541 5.18532 20.0541 5.19305L20.0772 5.27027L20.0849 5.35521L20.0772 5.44015L20.0463 5.54054L14.471 18.861C14.471 18.861 14.4667 18.8668 14.4602 18.8755L14.4015 18.9537L14.3243 19.0386L14.2317 19.1081L14.1313 19.1699L14.0309 19.2239L13.9305 19.2471L13.8147 19.2548H2.37838C2.37838 19.2548 2.37162 19.2543 2.36149 19.2536L2.27027 19.2471L2.18533 19.2085L2.10811 19.1467L2.04633 19.0772L2.00772 19L2 18.9151L2.03089 18.8301L2.08494 18.7452L14.5714 5.52509L14.7336 5.35521L14.9035 5.20077L14.9884 5.13127L15.0811 5.07721L15.1737 5.04633L15.2664 5.0386H19.7529Z" fill="#003A87"/>
<path fill-rule="evenodd" clip-rule="evenodd" d="M12.3938 9.99613C14.2548 9.99613 15.7606 11.5174 15.7606 13.3707C15.7606 15.2394 14.2548 16.7606 12.3938 16.7606C10.5251 16.7606 8.99614 15.2394 8.99614 13.3707C9.00386 11.5096 10.5251 9.99613 12.3938 9.99613ZM11.0193 14.2587C10.749 14.2278 10.5946 14.1815 10.3707 14.2046C10.1158 14.2278 9.76834 14.4517 9.55212 14.6911C9.3668 14.2896 9.26641 13.8417 9.26641 13.3629C9.26641 11.6486 10.6641 10.2432 12.3938 10.2432C13.1274 10.2432 13.8224 10.5135 14.3629 10.9537L11.0193 14.2587ZM12.1776 14.4672L15.0579 14.9923C15.3514 14.5135 15.5058 13.973 15.5058 13.3707C15.5058 12.4595 15.1042 11.6332 14.471 11.054L12.1776 14.4672ZM12.3166 14.9459L13.7683 16.1351L11.0811 14.8069C10.834 14.7374 10.5946 14.722 10.3707 14.7143C10.1081 14.7066 9.86873 14.7452 9.59846 14.7915C10.1236 15.8031 11.1815 16.4981 12.4015 16.4981C13.4672 16.4981 14.4247 15.9498 14.9884 15.1004L12.3166 14.9459Z" fill="white"/>
</svg>
