<svg width="24" height="24" viewBox="0 0 24 24" fill="none" xmlns="http://www.w3.org/2000/svg">
<path fill-rule="evenodd" clip-rule="evenodd" d="M4 3C2.89543 3 2 3.89543 2 5V13C1.44772 13 1 13.4477 1 14V16C1 16.5523 1.44772 17 2 17V18C2 18.5523 2.44772 19 3 19C3.55228 19 4 18.5523 4 18V17H8V18C8 18.5523 8.44772 19 9 19C9.55229 19 10 18.5523 10 18V17C10.5523 17 11 16.5523 11 16V14C11 13.4477 10.5523 13 10 13V5C10 3.89543 9.10457 3 8 3H4ZM14 5C14 3.89543 14.8954 3 16 3H20C21.1046 3 22 3.89543 22 5V13C22.5523 13 23 13.4477 23 14V16C23 16.5523 22.5523 17 22 17V18C22 18.5523 21.5523 19 21 19C20.4477 19 20 18.5523 20 18V17H16V18C16 18.5523 15.5523 19 15 19C14.4477 19 14 18.5523 14 18V17C13.4477 17 13 16.5523 13 16V14C13 13.4477 13.4477 13 14 13V5ZM16 5H20V15H16V5Z" fill="#323232"/>
</svg>
