<svg width="48" height="48" viewBox="0 0 48 48" fill="none" xmlns="http://www.w3.org/2000/svg">
<path fill-rule="evenodd" clip-rule="evenodd" d="M33.9198 26.8298C33.9198 28.7098 33.1698 30.5098 31.8498 31.8398C30.5198 33.1698 28.7198 33.9098 26.8398 33.9098H21.1698C17.2598 33.9098 14.0898 30.7398 14.0898 26.8298V25.5298H33.9198V26.8298Z" fill="#8DE2E0"/>
<path d="M36.75 12.6H29.93V2.75C29.93 2.2 29.48 1.75 28.93 1.75C28.38 1.75 27.93 2.2 27.93 2.75V12.6H19.95V2.75C19.95 2.2 19.5 1.75 18.95 1.75C18.4 1.75 17.95 2.2 17.95 2.75V12.6H11.25C10.7 12.6 10.25 13.05 10.25 13.6C10.25 14.15 10.7 14.6 11.25 14.6H13.08V26.83C13.08 30.88 16.08 34.24 19.98 34.82V39.58C19.98 40.13 20.43 40.58 20.98 40.58H22.96V45.25C22.96 45.8 23.41 46.25 23.96 46.25C24.51 46.25 24.96 45.8 24.96 45.25V40.58H26.94C27.49 40.58 27.94 40.13 27.94 39.58V34.83C29.68 34.59 31.29 33.81 32.55 32.55C34.08 31.02 34.92 28.99 34.92 26.83V14.6H36.75C37.3 14.6 37.75 14.15 37.75 13.6C37.75 13.05 37.3 12.6 36.75 12.6ZM21.98 38.58V34.91H25.94V38.58H21.98ZM32.92 26.83C32.92 28.45 32.29 29.98 31.14 31.13C29.99 32.28 28.46 32.91 26.84 32.91H21.17C17.82 32.91 15.09 30.18 15.09 26.83V26.53H32.92V26.83ZM32.92 24.53H15.08V14.6H32.91V24.53H32.92Z" fill="#323232"/>
</svg>
