<svg width="48" height="48" viewBox="0 0 48 48" fill="none" xmlns="http://www.w3.org/2000/svg">
<path d="M29.6905 8.37988L32.8205 17.3399L26.5705 19.6999L23.3105 10.5299" fill="#DF0000"/>
<path d="M19.1401 42.1298C22.2108 42.1298 24.7001 39.6405 24.7001 36.5698C24.7001 33.4991 22.2108 31.0098 19.1401 31.0098C16.0694 31.0098 13.5801 33.4991 13.5801 36.5698C13.5801 39.6405 16.0694 42.1298 19.1401 42.1298Z" fill="#8DE2E0"/>
<path d="M44.4594 30.9697L40.2894 29.5797C40.0794 29.5097 39.8494 29.5097 39.6394 29.5797L25.4194 34.6897C25.1294 33.7297 24.6294 32.8697 23.9794 32.1597L43.0994 25.2197C43.6194 25.0297 43.8894 24.4597 43.6994 23.9397L37.0994 5.53966C37.0094 5.28966 36.8194 5.08966 36.5794 4.96966C36.3394 4.85966 36.0594 4.84966 35.8094 4.93966L16.2994 12.0197C15.7794 12.2097 15.5094 12.7797 15.6994 13.2997L21.9194 30.6397C21.0794 30.2397 20.1394 30.0097 19.1394 30.0097C18.8894 30.0097 18.6294 30.0297 18.3894 30.0597L10.3494 8.43966C10.1994 8.04966 9.82938 7.78966 9.40938 7.78966H3.85938C3.30937 7.78966 2.85938 8.23966 2.85938 8.78966C2.85938 9.33966 3.30937 9.78966 3.85938 9.78966H8.71938L16.4494 30.5997C14.1694 31.6297 12.5794 33.9197 12.5794 36.5697C12.5794 40.1897 15.5194 43.1297 19.1394 43.1297C22.7594 43.1297 25.6094 40.2697 25.6894 36.7297L39.9894 31.5997L43.8294 32.8797C44.3494 33.0597 44.9194 32.7697 45.0994 32.2497C45.2794 31.7297 44.9894 31.1597 44.4694 30.9897L44.4594 30.9697ZM35.5494 7.15966L41.4694 23.6797L23.8394 30.0797L17.9194 13.5597L35.5494 7.15966ZM19.1394 41.1197C16.6294 41.1197 14.5794 39.0797 14.5794 36.5597C14.5794 34.0397 16.6194 31.9997 19.1394 31.9997C21.6594 31.9997 23.6994 34.0397 23.6994 36.5597C23.6994 39.0797 21.6594 41.1197 19.1394 41.1197Z" fill="#323232"/>
</svg>
