<svg width="48" height="48" viewBox="0 0 48 48" fill="none" xmlns="http://www.w3.org/2000/svg">
<path d="M27.081 27.4605C26.741 27.4605 26.411 27.2905 26.221 26.9705L21.551 19.1905C21.271 18.7205 21.421 18.1005 21.891 17.8205C22.361 17.5405 22.981 17.6905 23.261 18.1605L27.931 25.9405C28.211 26.4105 28.061 27.0305 27.591 27.3105C27.431 27.4105 27.251 27.4505 27.081 27.4505V27.4605Z" fill="#DF0000"/>
<path d="M24.7493 34.3596H23.1893L24.5893 27.2696C24.6493 26.9796 24.5693 26.6696 24.3793 26.4396C24.1893 26.2097 23.9093 26.0696 23.6093 26.0696H14.1493C13.5993 26.0696 13.1493 26.5196 13.1493 27.0696C13.1493 27.6196 13.5993 28.0696 14.1493 28.0696H22.3993L21.1593 34.3496H19.4893V31.5596C19.4893 31.0096 19.0393 30.5596 18.4893 30.5596C17.9393 30.5596 17.4893 31.0096 17.4893 31.5596V34.3496H15.1393V31.5596C15.1393 31.0096 14.6893 30.5596 14.1393 30.5596C13.5893 30.5596 13.1393 31.0096 13.1393 31.5596V34.3496H12.0693V24.9496H14.1793C14.6293 24.9496 15.0293 24.6496 15.1493 24.2096L16.7893 18.1496C16.8693 17.8496 16.8093 17.5296 16.6193 17.2796C16.4293 17.0296 16.1393 16.8896 15.8293 16.8896H2.87929C2.56929 16.8896 2.27929 17.0396 2.08929 17.2796C1.89929 17.5296 1.83929 17.8496 1.91929 18.1496L3.55929 24.2096C3.67929 24.6496 4.06929 24.9496 4.52929 24.9496H6.63929V34.3496H3.08929C2.53929 34.3496 2.08929 34.7996 2.08929 35.3496C2.08929 35.8996 2.53929 36.3496 3.08929 36.3496H24.7693C25.3193 36.3496 25.7693 35.8996 25.7693 35.3496C25.7693 34.7996 25.3193 34.3496 24.7693 34.3496L24.7493 34.3596ZM4.17929 18.8896H14.4993L13.3993 22.9496H5.27929L4.17929 18.8896ZM8.61929 24.9596H10.0593V34.3596H8.61929V24.9596Z" fill="#323232"/>
<path d="M6.59937 16.2H12.0894C12.6394 16.2 13.0894 15.75 13.0894 15.2C13.0894 14.65 12.6394 14.2 12.0894 14.2H10.3494V12.5C10.3494 11.95 9.89938 11.5 9.34938 11.5C8.79938 11.5 8.34938 11.95 8.34938 12.5V14.2H6.60938C6.05937 14.2 5.60938 14.65 5.60938 15.2C5.60938 15.75 6.05937 16.2 6.60938 16.2H6.59937Z" fill="#323232"/>
<path d="M36.9396 8.75C34.6896 8.75 32.8496 10.58 32.8496 12.84C32.8496 15.1 34.6796 16.93 36.9396 16.93C39.1996 16.93 41.0296 15.1 41.0296 12.84C41.0296 10.58 39.1996 8.75 36.9396 8.75ZM36.9396 14.92C35.7896 14.92 34.8496 13.98 34.8496 12.83C34.8496 11.68 35.7896 10.74 36.9396 10.74C38.0896 10.74 39.0296 11.68 39.0296 12.83C39.0296 13.98 38.0896 14.92 36.9396 14.92Z" fill="#323232"/>
<path d="M34.099 21.0695C34.139 20.9395 34.159 20.8095 34.149 20.6795V28.7795C34.149 29.3295 34.599 29.7795 35.149 29.7795C35.699 29.7795 36.149 29.3295 36.149 28.7795V19.7795C38.189 20.0295 42.539 20.8795 42.539 23.5295V27.9195C42.539 28.4695 42.989 28.9195 43.539 28.9195C44.089 28.9195 44.539 28.4695 44.539 27.9195V23.5295C44.539 18.1195 35.569 17.6995 35.189 17.6895C34.929 17.6895 34.649 17.7795 34.459 17.9695C34.259 18.1595 34.149 18.4195 34.149 18.6895V20.6795C34.119 20.2895 33.859 19.9395 33.469 19.8095C32.949 19.6295 32.379 19.9095 32.199 20.4395C31.319 23.0595 28.739 23.0895 28.709 23.0895C28.159 23.0895 27.709 23.5395 27.709 24.0895C27.709 24.6395 28.159 25.0895 28.709 25.0895C30.109 25.0895 33.029 24.2495 34.099 21.0795V21.0695Z" fill="#323232"/>
<path d="M39.7395 27.2194V22.1494C39.7395 21.5994 39.2895 21.1494 38.7395 21.1494C38.1895 21.1494 37.7395 21.5994 37.7395 22.1494V27.2494C37.7395 27.5094 37.7395 29.8394 35.0695 30.2894C33.0995 30.6194 31.5395 31.9794 30.5595 34.2294C29.9795 35.5594 29.6895 37.0494 29.6895 38.6594V40.6694C29.6895 41.2194 30.1395 41.6694 30.6895 41.6694C31.2395 41.6694 31.6895 41.2194 31.6895 40.6694V38.6594C31.6895 37.3194 31.9295 36.0994 32.3995 35.0294C33.1095 33.4094 34.1195 32.4794 35.4095 32.2594C38.9995 31.6594 39.8095 28.6594 39.7495 27.2094L39.7395 27.2194Z" fill="#323232"/>
<path d="M45.4499 39.1199C40.8399 37.5199 39.4599 32.4399 39.4299 32.3499C39.2899 31.8199 38.7499 31.4899 38.2099 31.6299C37.6699 31.7699 37.3499 32.3099 37.4899 32.8499C37.5499 33.0999 39.1299 39.0499 44.7899 41.0199C44.8999 41.0599 45.0099 41.0799 45.1199 41.0799C45.5299 41.0799 45.9199 40.8199 46.0599 40.4099C46.2399 39.8899 45.9699 39.3199 45.4399 39.1399L45.4499 39.1199Z" fill="#323232"/>
<path d="M30.1698 14.9496H32.2798V13.0396C32.3898 12.8796 32.4698 12.6896 32.4698 12.4796V9.05957C32.4698 9.05957 32.4698 8.78957 32.6398 8.60957C32.8198 8.41957 33.1998 8.31957 33.7098 8.31957H40.5198C40.6798 8.30957 41.0498 8.33957 41.2398 8.50957C41.3598 8.61957 41.4198 8.81957 41.4198 9.10957V12.4796C41.4198 12.6896 41.4998 12.8696 41.6098 13.0296V14.9396H43.7198C44.2198 14.9396 44.6298 14.5796 44.6298 14.1396V11.7396C44.6298 11.2996 44.2198 10.9396 43.7198 10.9396H43.4198V9.09957C43.4198 8.00957 42.9598 7.36957 42.5798 7.01957C41.6898 6.20957 40.4798 6.29957 40.4398 6.30957H33.7098C32.5998 6.30957 31.7398 6.62957 31.1598 7.25957C30.4098 8.07957 30.4698 9.07957 30.4798 9.10957V10.9296H30.1698C29.6698 10.9296 29.2598 11.2896 29.2598 11.7296V14.1296C29.2598 14.5696 29.6698 14.9296 30.1698 14.9296V14.9496Z" fill="#323232"/>
</svg>
