<svg width="48" height="48" viewBox="0 0 48 48" fill="none" xmlns="http://www.w3.org/2000/svg">
<path d="M45.2102 28.59H39.6902C38.9102 28.59 38.9102 28.03 38.9102 28.03V22.58H40.5602C41.1502 22.58 41.7002 22.87 42.0402 23.35L44.8902 27.48C45.1102 27.8 45.2202 28.19 45.2102 28.59Z" fill="#8DE2E0"/>
<path d="M46.21 28.61V28.59C46.21 28.59 46.21 28.59 46.21 28.58C46.21 27.97 46.05 27.4 45.72 26.91L42.86 22.77C42.33 22.02 41.47 21.58 40.56 21.58H36.16V19.54C36.16 16.78 33.92 14.54 31.16 14.54H6.79004C4.03004 14.54 1.79004 16.78 1.79004 19.54V24.72C1.79004 24.83 1.81004 24.94 1.82004 25.05V33.02C1.82004 33.57 2.27004 34.02 2.82004 34.02H3.41004C3.41004 34.1 3.39004 34.17 3.39004 34.25C3.39004 35.98 4.80004 37.39 6.53004 37.39C8.26004 37.39 9.67004 35.98 9.67004 34.25C9.67004 34.17 9.65004 34.1 9.65004 34.02H9.99004C9.99004 34.1 9.97004 34.17 9.97004 34.25C9.97004 35.98 11.38 37.39 13.11 37.39C14.84 37.39 16.25 35.98 16.25 34.25C16.25 34.17 16.23 34.1 16.23 34.02H21.76C21.76 34.1 21.74 34.17 21.74 34.25C21.74 35.98 23.15 37.39 24.88 37.39C26.61 37.39 28.02 35.98 28.02 34.25C28.02 34.17 28 34.1 28 34.02H28.34C28.34 34.1 28.32 34.17 28.32 34.25C28.32 35.98 29.73 37.39 31.46 37.39C33.19 37.39 34.6 35.98 34.6 34.25C34.6 34.17 34.58 34.1 34.58 34.02H35.23H35.25H36.5C36.5 34.1 36.48 34.17 36.48 34.25C36.48 35.98 37.89 37.39 39.62 37.39C41.35 37.39 42.76 35.98 42.76 34.25C42.76 34.17 42.74 34.09 42.74 34.02H43.18C44.62 34.02 45.81 32.97 45.96 31.55L46.24 28.84C46.26 28.74 46.26 28.67 46.26 28.62L46.21 28.61ZM41.22 23.92L43.75 27.59H39.91V23.58H40.56C40.82 23.58 41.07 23.71 41.22 23.92ZM31.42 31.11C30.56 31.11 29.78 31.46 29.22 32.02H27.05C26.48 31.46 25.71 31.11 24.85 31.11C23.99 31.11 23.21 31.46 22.65 32.02H15.3C14.73 31.46 13.96 31.11 13.1 31.11C12.24 31.11 11.47 31.46 10.9 32.02H8.73004C8.16004 31.46 7.39004 31.11 6.53004 31.11C5.67004 31.11 4.90004 31.46 4.33004 32.02H3.83004V28.18C4.41004 28.51 5.08004 28.72 5.80004 28.72H32.17C32.91 28.72 33.6 28.5 34.2 28.15V32.02H33.64C33.07 31.46 32.3 31.11 31.44 31.11H31.42ZM6.79004 16.54H31.16C32.81 16.54 34.16 17.89 34.16 19.54V24.72C34.16 25.82 33.26 26.72 32.16 26.72H5.79004C4.80004 26.72 3.98004 26 3.82004 25.05V24.88C3.82004 24.82 3.80004 24.77 3.79004 24.71V19.53C3.79004 17.88 5.14004 16.53 6.79004 16.53V16.54ZM6.52004 35.39C5.89004 35.39 5.38004 34.88 5.38004 34.25C5.38004 33.62 5.89004 33.11 6.52004 33.11C7.15004 33.11 7.66004 33.62 7.66004 34.25C7.66004 34.88 7.15004 35.39 6.52004 35.39ZM13.1 35.39C12.47 35.39 11.96 34.88 11.96 34.25C11.96 33.62 12.47 33.11 13.1 33.11C13.73 33.11 14.24 33.62 14.24 34.25C14.24 34.88 13.73 35.39 13.1 35.39ZM24.85 35.39C24.22 35.39 23.71 34.88 23.71 34.25C23.71 33.62 24.22 33.11 24.85 33.11C25.48 33.11 25.99 33.62 25.99 34.25C25.99 34.88 25.48 35.39 24.85 35.39ZM31.42 35.39C30.79 35.39 30.28 34.88 30.28 34.25C30.28 33.62 30.79 33.11 31.42 33.11C32.05 33.11 32.56 33.62 32.56 34.25C32.56 34.88 32.05 35.39 31.42 35.39ZM39.58 35.39C38.95 35.39 38.44 34.88 38.44 34.25C38.44 33.62 38.95 33.11 39.58 33.11C40.21 33.11 40.72 33.62 40.72 34.25C40.72 34.88 40.21 35.39 39.58 35.39ZM43.09 32.02H41.78C41.21 31.46 40.44 31.12 39.58 31.12C38.72 31.12 37.95 31.47 37.38 32.02H36.19V24.16V23.59H37.91V28.04C37.91 28.64 38.39 29.6 39.69 29.6H44.1L43.92 31.35C43.88 31.75 43.51 32.02 43.08 32.03L43.09 32.02Z" fill="#323232"/>
<path d="M13.4995 11.61H7.76953V13.73H13.4995V11.61Z" fill="#DF0000"/>
</svg>
