<svg width="48" height="48" viewBox="0 0 48 48" fill="none" xmlns="http://www.w3.org/2000/svg">
<path d="M17.4893 45.0202L17.2793 44.9502C17.3493 44.9702 17.4193 45.0002 17.4893 45.0202Z" fill="#323232"/>
<path d="M24 2C11.85 2 2 11.85 2 24C2 33.29 7.77 41.22 15.91 44.45C15.91 44.24 15.87 41.29 15.83 40.26C15.79 39.19 15.92 38.16 16.34 36.66C16.77 35.16 18.61 27.18 18.61 27.18C18.61 27.18 17.54 24.69 18.1 22.29C18.66 19.89 20.37 18.56 22.09 18.56C23.81 18.56 24.83 20.28 24.83 21.56C24.83 22.84 24.38 24.92 23.76 26.54C23.56 27.06 21.36 31.9 25.26 32.89C29.16 33.88 31.57 30.23 32.72 26.37C33.88 22.51 33.06 15.43 25.77 14.27C18.48 13.11 15.05 17.66 14.26 21.97C13.62 25.45 15.22 28.01 15.72 28.71C15.81 28.84 15.84 28.99 15.81 29.15L15.21 31.73C15.13 32.07 14.74 32.27 14.44 32.09C11.7 30.49 9.13 26.47 10.33 20.24C11.62 13.55 19.42 8.83 27.58 10.55C35.74 12.27 39.28 19.15 37.61 26.66C35.94 34.17 30.66 36.5 26.85 36.58C23.03 36.67 21.57 34.22 21.57 34.05C21.57 33.88 21.06 36.5 20.15 39.63C19.25 42.75 17.51 45.04 17.5 45.05C19.55 45.68 21.73 46.02 23.98 46.02C36.13 46.02 45.98 36.17 45.98 24.02C45.98 11.87 36.15 2 24 2Z" fill="#323232"/>
</svg>
