<svg width="48" height="48" viewBox="0 0 48 48" fill="none" xmlns="http://www.w3.org/2000/svg">
<path d="M23.1602 37.5098C23.1602 38.8398 24.2402 39.9098 25.5602 39.9098H42.8502C44.1802 39.9098 45.2502 38.8298 45.2502 37.5098H23.1602Z" fill="#8DE2E0"/>
<path fill-rule="evenodd" clip-rule="evenodd" d="M14.8493 21.1299H19.1293C19.7193 21.1299 20.1993 21.6099 20.1993 22.1999V28.6199C20.1993 29.2099 19.7193 29.6899 19.1293 29.6899H14.8493C14.2593 29.6899 13.7793 29.2099 13.7793 28.6199V22.1999C13.7793 21.6099 14.2593 21.1299 14.8493 21.1299Z" fill="#DF0000"/>
<path d="M19.2891 31.2901H7.75908V13.8601L16.9791 6.48012L22.4191 10.8301C22.4191 10.8301 22.4991 10.9001 22.5491 10.9301L26.4191 14.0301V19.7301C26.4191 20.2801 26.8691 20.7301 27.4191 20.7301C27.9691 20.7301 28.4191 20.2801 28.4191 19.7301V15.6301L30.5891 17.3701C30.7691 17.5201 30.9891 17.5901 31.2091 17.5901C31.4991 17.5901 31.7891 17.4601 31.9891 17.2101C32.3391 16.7801 32.2691 16.1501 31.8291 15.8001L28.4091 13.0601V6.61012C28.4091 6.06012 27.9591 5.61012 27.4091 5.61012H23.1391C22.5891 5.61012 22.1391 6.06012 22.1391 6.61012V8.04012L17.5991 4.40012C17.2291 4.11012 16.7191 4.11012 16.3491 4.40012L2.12908 15.8101C1.69908 16.1501 1.62908 16.7801 1.96908 17.2201C2.30908 17.6501 2.93908 17.7201 3.37908 17.3801L5.76908 15.4701V32.2901C5.76908 32.8401 6.21908 33.2901 6.76908 33.2901H19.2891C19.8391 33.2901 20.2891 32.8401 20.2891 32.2901C20.2891 31.7401 19.8391 31.2901 19.2891 31.2901ZM24.1591 7.63012H26.4291V11.4801L24.1591 9.66012V7.63012Z" fill="#323232"/>
<path d="M36.8088 26.1001H36.2487C35.956 26.1001 35.7188 26.3374 35.7188 26.6301V27.1901C35.7188 27.4828 35.956 27.7201 36.2487 27.7201H36.8088C37.1015 27.7201 37.3387 27.4828 37.3387 27.1901V26.6301C37.3387 26.3374 37.1015 26.1001 36.8088 26.1001Z" fill="#323232"/>
<path d="M32.1584 26.1001H31.5984C31.3056 26.1001 31.0684 26.3374 31.0684 26.6301V27.1901C31.0684 27.4828 31.3056 27.7201 31.5984 27.7201H32.1584C32.4511 27.7201 32.6884 27.4828 32.6884 27.1901V26.6301C32.6884 26.3374 32.4511 26.1001 32.1584 26.1001Z" fill="#323232"/>
<path d="M36.8088 30.3403H36.2487C35.956 30.3403 35.7188 30.5776 35.7188 30.8703V31.4303C35.7188 31.723 35.956 31.9603 36.2487 31.9603H36.8088C37.1015 31.9603 37.3387 31.723 37.3387 31.4303V30.8703C37.3387 30.5776 37.1015 30.3403 36.8088 30.3403Z" fill="#323232"/>
<path d="M32.1584 30.3403H31.5984C31.3056 30.3403 31.0684 30.5776 31.0684 30.8703V31.4303C31.0684 31.723 31.3056 31.9603 31.5984 31.9603H32.1584C32.4511 31.9603 32.6884 31.723 32.6884 31.4303V30.8703C32.6884 30.5776 32.4511 30.3403 32.1584 30.3403Z" fill="#323232"/>
<path d="M43.4787 29.3301V27.5001C43.4787 24.9501 41.3987 22.8701 38.8487 22.8701H29.5387C26.9887 22.8701 24.9087 24.9501 24.9087 27.5001V29.3301C23.3387 29.6301 22.1387 31.0101 22.1387 32.6701V37.5101C22.1387 39.3901 23.6687 40.9101 25.5387 40.9101H26.2487V42.8001C26.2487 43.3501 26.6987 43.8001 27.2487 43.8001C27.7987 43.8001 28.2487 43.3501 28.2487 42.8001V40.9101H40.1287V42.8001C40.1287 43.3501 40.5787 43.8001 41.1287 43.8001C41.6787 43.8001 42.1287 43.3501 42.1287 42.8001V40.9101H42.8387C44.7187 40.9101 46.2387 39.3801 46.2387 37.5101V32.6701C46.2387 31.0101 45.0487 29.6301 43.4687 29.3301H43.4787ZM29.5487 24.8801H38.8587C40.3087 24.8801 41.4887 26.0601 41.4887 27.5101V29.5601C40.2887 30.0901 39.4487 31.2801 39.4487 32.6701V33.7201H28.9587V32.6701C28.9587 31.2801 28.1187 30.0901 26.9187 29.5601V27.5101C26.9187 26.0601 28.0987 24.8801 29.5487 24.8801ZM44.2487 37.5101C44.2487 38.2801 43.6187 38.9101 42.8487 38.9101H25.5587C24.7887 38.9101 24.1587 38.2801 24.1587 37.5101V32.6701C24.1587 31.9001 24.7887 31.2701 25.5587 31.2701C26.3287 31.2701 26.9587 31.9001 26.9587 32.6701V34.7201C26.9587 35.2701 27.4087 35.7201 27.9587 35.7201H40.4487C40.9987 35.7201 41.4487 35.2701 41.4487 34.7201V32.6701C41.4487 31.9001 42.0787 31.2701 42.8487 31.2701C43.6187 31.2701 44.2487 31.9001 44.2487 32.6701V37.5101Z" fill="#323232"/>
</svg>
