<svg width="48" height="48" viewBox="0 0 48 48" fill="none" xmlns="http://www.w3.org/2000/svg">
<path d="M38.6409 9.46031L6.59089 21.1303L5.07089 16.9703C4.65089 15.8203 5.24089 14.5503 6.39089 14.1303L34.2909 3.97031C35.4409 3.55031 36.7109 4.14031 37.1309 5.29031L38.6509 9.45031L38.6409 9.46031Z" fill="#8DE2E0"/>
<path fill-rule="evenodd" clip-rule="evenodd" d="M33.4303 36.2998C32.4403 36.2998 31.6003 36.8898 31.2203 37.7298C30.8403 36.8898 29.9903 36.2998 29.0103 36.2998C27.6603 36.2998 26.5703 37.3898 26.5703 38.7398C26.5703 40.0898 27.6603 41.1798 29.0103 41.1798C30.0003 41.1798 30.8403 40.5898 31.2203 39.7498C31.6003 40.5898 32.4503 41.1798 33.4303 41.1798C34.7803 41.1798 35.8703 40.0898 35.8703 38.7398C35.8703 37.3898 34.7803 36.2998 33.4303 36.2998Z" fill="#DF0000"/>
<path d="M44.4309 22.4396L38.0709 4.95965C37.7809 4.14965 37.1909 3.50965 36.4109 3.14965C35.6309 2.78965 34.7609 2.74965 33.9509 3.03965L6.06086 13.1896C5.25086 13.4796 4.61086 14.0696 4.25086 14.8496C3.89086 15.6296 3.85086 16.4996 4.14086 17.3096L5.27086 20.4196C4.16086 20.9296 3.38086 22.0396 3.38086 23.3396V41.9396C3.38086 43.7096 4.82086 45.1497 6.59086 45.1497H36.2709C38.0409 45.1497 39.4809 43.7096 39.4809 41.9396V27.6496L42.5009 26.5496C44.1709 25.9396 45.0309 24.0996 44.4209 22.4296L44.4309 22.4396ZM6.74086 15.0596L34.6309 4.90965C34.9309 4.79965 35.2609 4.80965 35.5609 4.94965C35.8509 5.08965 36.0809 5.32965 36.1909 5.63965L37.3609 8.85965L7.19086 19.8396L6.02086 16.6196C5.79086 15.9896 6.12086 15.2896 6.75086 15.0596H6.74086ZM37.4809 41.9496C37.4809 42.6196 36.9409 43.1596 36.2709 43.1596H6.59086C5.92086 43.1596 5.38086 42.6196 5.38086 41.9496V23.3496C5.38086 22.6796 5.92086 22.1396 6.59086 22.1296H36.2609C36.9309 22.1296 37.4709 22.6796 37.4709 23.3496V41.9496H37.4809ZM41.8209 24.6796L39.4809 25.5296V23.3396C39.4809 21.5696 38.0409 20.1196 36.2709 20.1196H12.2609L38.0409 10.7396L42.5509 23.1196C42.7809 23.7496 42.4509 24.4496 41.8209 24.6796Z" fill="#323232"/>
<path d="M35.651 14.1995L32.321 15.4095C31.801 15.5995 31.531 16.1695 31.721 16.6895C31.871 17.0995 32.251 17.3495 32.661 17.3495C32.771 17.3495 32.891 17.3295 33.001 17.2895L36.331 16.0795C36.851 15.8895 37.121 15.3195 36.931 14.7995C36.741 14.2795 36.161 14.0095 35.651 14.1995Z" fill="#323232"/>
<path d="M9.61133 27.3301H15.3713C15.9213 27.3301 16.3713 26.8801 16.3713 26.3301C16.3713 25.7801 15.9213 25.3301 15.3713 25.3301H9.61133C9.06133 25.3301 8.61133 25.7801 8.61133 26.3301C8.61133 26.8801 9.06133 27.3301 9.61133 27.3301Z" fill="#323232"/>
<path d="M15.3713 37.7295H9.61133C9.06133 37.7295 8.61133 38.1795 8.61133 38.7295C8.61133 39.2795 9.06133 39.7295 9.61133 39.7295H15.3713C15.9213 39.7295 16.3713 39.2795 16.3713 38.7295C16.3713 38.1795 15.9213 37.7295 15.3713 37.7295Z" fill="#323232"/>
<path d="M9.61133 31.5293C9.06133 31.5293 8.61133 31.9793 8.61133 32.5293C8.61133 33.0793 9.06133 33.5293 9.61133 33.5293H11.3813C11.9313 33.5293 12.3813 33.0793 12.3813 32.5293C12.3813 31.9793 11.9313 31.5293 11.3813 31.5293H9.61133Z" fill="#323232"/>
<path d="M17.1411 31.5293H15.3711C14.8211 31.5293 14.3711 31.9793 14.3711 32.5293C14.3711 33.0793 14.8211 33.5293 15.3711 33.5293H17.1411C17.6911 33.5293 18.1411 33.0793 18.1411 32.5293C18.1411 31.9793 17.6911 31.5293 17.1411 31.5293Z" fill="#323232"/>
<path d="M22.9009 31.5293H21.1309C20.5809 31.5293 20.1309 31.9793 20.1309 32.5293C20.1309 33.0793 20.5809 33.5293 21.1309 33.5293H22.9009C23.4509 33.5293 23.9009 33.0793 23.9009 32.5293C23.9009 31.9793 23.4509 31.5293 22.9009 31.5293Z" fill="#323232"/>
<path d="M28.6606 31.5293H26.8906C26.3406 31.5293 25.8906 31.9793 25.8906 32.5293C25.8906 33.0793 26.3406 33.5293 26.8906 33.5293H28.6606C29.2106 33.5293 29.6606 33.0793 29.6606 32.5293C29.6606 31.9793 29.2106 31.5293 28.6606 31.5293Z" fill="#323232"/>
</svg>
