<svg width="48" height="48" viewBox="0 0 48 48" fill="none" xmlns="http://www.w3.org/2000/svg">
<path d="M28.51 2.77979V9.65979H11.5L28.51 2.77979Z" fill="#8DE2E0"/>
<path d="M36.4995 8.66018H29.5095V2.78018C29.5095 2.45018 29.3395 2.14018 29.0695 1.95018C28.7895 1.76018 28.4395 1.73018 28.1395 1.85018L11.1295 8.73018C11.0995 8.74018 11.0895 8.76018 11.0595 8.77018C10.9695 8.81018 10.8895 8.86018 10.8195 8.93018C10.7895 8.96018 10.7695 8.99018 10.7495 9.02018C10.6995 9.08018 10.6495 9.15018 10.6195 9.22018C10.5995 9.26018 10.5895 9.30018 10.5795 9.35018C10.5595 9.43018 10.5395 9.50018 10.5295 9.58018C10.5295 9.60018 10.5195 9.62018 10.5195 9.65018V45.2102C10.5195 45.7602 10.9695 46.2102 11.5195 46.2102H36.5195C37.0695 46.2102 37.5195 45.7602 37.5195 45.2102V9.66018C37.5195 9.11018 37.0695 8.66018 36.5195 8.66018H36.4995ZM27.5095 4.26018V8.65018H16.6395L27.5095 4.26018ZM35.4995 44.2202H12.4995V10.6602H35.4995V44.2202Z" fill="#323232"/>
<path d="M25.0802 17.4301V16.1001C25.0802 15.5501 24.6302 15.1001 24.0802 15.1001C23.5302 15.1001 23.0802 15.5501 23.0802 16.1001V17.4301C19.3302 17.8701 16.3602 20.7501 15.8102 24.4801H15.2402C14.6902 24.4801 14.2402 24.9301 14.2402 25.4801C14.2402 26.0301 14.6902 26.4801 15.2402 26.4801H16.6902C16.6902 26.4801 16.7102 26.4801 16.7202 26.4801H31.4402C31.4402 26.4801 31.4602 26.4801 31.4702 26.4801H32.9202C33.4702 26.4801 33.9202 26.0301 33.9202 25.4801C33.9202 24.9301 33.4702 24.4801 32.9202 24.4801H32.3402C31.7902 20.7501 28.8202 17.8701 25.0702 17.4301H25.0802ZM17.8402 24.4901C18.4102 21.5501 20.9802 19.3701 24.0802 19.3701C27.1802 19.3701 29.7502 21.5501 30.3202 24.4901H17.8302H17.8402Z" fill="#323232"/>
<path d="M31.7399 35.48H16.4199C15.8699 35.48 15.4199 35.03 15.4199 34.48C15.4199 33.93 15.8699 33.48 16.4199 33.48H31.7399C32.2899 33.48 32.7399 33.93 32.7399 34.48C32.7399 35.03 32.2899 35.48 31.7399 35.48Z" fill="#DF0000"/>
<path d="M31.7399 40.4302H16.4199C15.8699 40.4302 15.4199 39.9802 15.4199 39.4302C15.4199 38.8802 15.8699 38.4302 16.4199 38.4302H31.7399C32.2899 38.4302 32.7399 38.8802 32.7399 39.4302C32.7399 39.9802 32.2899 40.4302 31.7399 40.4302Z" fill="#DF0000"/>
</svg>
