<svg width="70" height="70" viewBox="0 0 70 70" fill="none" xmlns="http://www.w3.org/2000/svg">
<g clip-path="url(#clip0_15605_1762)">
<path d="M43.2922 8.60059L41.0288 11.9751L43.2099 12.6335L43.2922 8.60059Z" fill="white"/>
<path d="M34.9794 0C15.679 0 0 15.679 0 34.9794C0 54.2798 15.679 69.9588 34.9794 69.9588C54.2798 69.9588 69.9588 54.2798 69.9588 34.9794C69.9588 15.679 54.2798 0 34.9794 0ZM63.4156 27.6955L56.0494 32.428L55.679 31.1111L57.1605 30.1646L56.3786 27.3663H54.6091L54.2798 26.0905L63.0453 26.2963L63.4156 27.6132V27.6955ZM58.0658 16.6255L61.07 21.2346L60.0823 21.893L58.93 20.1646L52.9218 24.1152L52.2222 23.0041L58.2305 19.0535L57.0782 17.3251L58.0658 16.6667V16.6255ZM51.0288 10.2881L51.9342 10.9877L50.9053 17.4486L54.4444 13.0041L55.3909 13.7449L50.2058 20.2881L49.3416 19.6296L50.3704 13.0453L46.749 17.6132L45.8025 16.8724L50.9877 10.3292L51.0288 10.2881ZM43.1687 6.83128L44.4856 7.2428V16.0082L43.1276 15.5967V13.8272L40.4115 12.963L39.4239 14.4033L38.1893 14.0329L43.1276 6.83128H43.1687ZM33.6626 5.55556C35.3498 5.47325 36.5844 6.50206 36.6667 8.14815L36.7901 11.2757C36.8313 12.3457 36.3786 13.2099 35.5967 13.7037L36.9547 15.5967L35.4321 15.679L34.3621 14.1152C34.2798 14.1152 34.1975 14.1152 34.1152 14.1152C32.428 14.1975 31.2346 13.1687 31.1523 11.5226L31.0288 8.39506C30.9465 6.70782 31.9753 5.59671 33.7449 5.5144L33.6626 5.55556ZM5.67901 32.3868H14.0329V35.144C14.0329 36.7901 12.963 38.0247 11.358 37.9835C9.67078 37.9835 8.60082 36.749 8.60082 35.1029V33.6626H5.67901V32.3457V32.3868ZM7.36625 45.2675C6.79012 43.6626 7.36626 42.2222 8.93004 41.6461L11.893 40.5761C13.4568 40 14.8148 40.6173 15.4321 42.3045C16.0082 43.9095 15.4321 45.3498 13.8683 45.9259L10.9053 46.9959C9.34156 47.572 7.94239 46.8724 7.3251 45.2675H7.36625ZM10.9053 51.8107L17.6543 46.8724L18.4362 47.9424L11.6872 52.8807L10.9053 51.8107ZM19.1358 59.8354L18.2716 59.177L19.2593 52.5926L15.679 57.1605L14.7325 56.4198L19.8765 49.8354L20.7819 50.535L19.7942 56.9959L23.2922 52.5103L24.2387 53.251L19.0947 59.8354H19.1358ZM30.6173 56.9136L28.642 56.2551L26.3786 63.0864L25.144 62.6749L27.4074 55.8436L25.4321 55.1852L25.8025 54.0741L31.0288 55.8025L30.6584 56.9136H30.6173ZM35.3498 64.4856C33.6626 64.4856 32.4691 63.5802 32.4691 62.0988V61.8519H33.7449V62.1399C33.7449 62.9218 34.321 63.4156 35.3086 63.4156C36.2963 63.4156 36.8313 62.8807 36.8313 62.1399C36.8313 61.4403 36.3786 61.1111 35.679 60.8642L34.4444 60.4115C33.3745 60 32.6337 59.3827 32.6337 58.2305C32.6337 56.9547 33.6214 55.9671 35.2263 55.9259C36.8313 55.9259 37.9424 56.8313 37.9424 58.3128V58.4774H36.6255V58.2305C36.6255 57.4897 36.0905 56.9547 35.2263 56.9547C34.3621 56.9547 33.8683 57.4074 33.8683 58.0658C33.8683 58.5185 34.1564 58.8889 34.7737 59.0947L36.0494 59.5473C37.0782 59.9177 38.107 60.4115 38.1481 61.9342C38.1481 63.4156 37.037 64.4444 35.3909 64.4444L35.3498 64.4856ZM56.7901 53.7449C56.7078 53.8272 56.6667 53.8272 56.6255 53.8272C56.5844 53.8272 56.5432 53.8272 56.5021 53.8272C50.2469 48.8066 43.0453 45.7613 35.6379 44.5679C35.1029 44.4856 34.6914 44.0741 34.6091 43.4979C33.0453 28.8477 19.7119 32.1811 13.2099 16.5021C13.2099 16.3786 13.2099 16.2963 13.3333 16.214C13.4568 16.1317 13.5391 16.214 13.6214 16.2963C21.893 29.2593 27.4897 21.893 39.6296 33.0453L39.7942 33.1687C41.4815 34.6914 42.5926 33.2922 42.0576 32.3868C41.5638 31.5638 41.6049 31.1111 41.6461 30.9877C44.1152 31.6872 46.3374 32.8807 48.2304 34.5267L48.0658 34.856C47.1193 36.7078 37.9424 35.9259 37.8189 39.7942C37.8189 40.8642 38.4362 41.7695 39.3827 42.1399L41.1934 42.8807C47.1193 45.2263 52.428 48.93 56.7901 53.4568C56.8724 53.5391 56.8724 53.6626 56.7901 53.7449ZM61.8107 39.5885H61.6461L61.7284 38.2716H61.9753C62.716 38.3539 63.2922 37.8601 63.3333 36.9959C63.3745 36.1317 63.0041 35.5967 62.3457 35.5556C61.9342 35.5556 61.4815 35.8025 61.2346 36.3374L60.6584 37.572C60.2058 38.5597 59.6296 39.5473 58.107 39.465C56.6255 39.3416 55.679 38.1893 55.8025 36.5021C55.9259 34.8148 56.9136 33.7037 58.4362 33.8272H58.6831L58.6008 35.144H58.3128C57.5309 35.0617 56.9959 35.5967 56.9547 36.5432C56.8724 37.5309 57.3663 38.107 58.107 38.1893C58.8066 38.2305 59.177 37.8189 59.465 37.1193L60.0411 35.9259C60.535 34.8971 61.2346 34.1975 62.3868 34.2798C63.6626 34.3621 64.5679 35.4733 64.4444 37.037C64.321 38.642 63.3333 39.6708 61.8519 39.5473L61.8107 39.5885Z" fill="white"/>
<path d="M11.3167 36.6664C12.2632 36.6664 12.8805 36.0492 12.8805 35.0615V33.7446H9.75293V35.0615C9.75293 36.0492 10.3702 36.7076 11.3167 36.7076V36.6664Z" fill="white"/>
<path d="M33.9918 13.004C34.9795 12.9629 35.5145 12.3044 35.4733 11.3991L35.3499 8.27151C35.3087 7.36616 34.7326 6.74887 33.7449 6.79003C32.7573 6.83118 32.2223 7.48961 32.2634 8.39496L32.3869 11.5225C32.3869 12.4279 33.0042 13.0452 33.9918 13.004Z" fill="white"/>
<path d="M14.3623 42.6747C14.033 41.7693 13.2512 41.4401 12.387 41.7693L9.42399 42.8393C8.55979 43.1685 8.14827 43.9092 8.51864 44.8146C8.84786 45.7199 9.62975 46.0491 10.4939 45.7199L13.4569 44.65C14.3211 44.3207 14.7326 43.58 14.3623 42.6747Z" fill="white"/>
<path d="M61.6459 27.4484L57.5718 27.4072L58.1891 29.5883L61.6459 27.4484Z" fill="white"/>
</g>
<defs>
<clipPath id="clip0_15605_1762">
<rect width="70" height="70" fill="white"/>
</clipPath>
</defs>
</svg>
