<svg width="24" height="24" viewBox="0 0 24 24" fill="none" xmlns="http://www.w3.org/2000/svg">
<g clip-path="url(#clip0_16335_12075)">
<path d="M23.673 14.7855C25.2111 8.339 21.2322 1.8662 14.7857 0.328065C8.33926 -1.21008 1.86646 2.7689 0.328324 9.21536C-1.20982 15.6618 2.76916 22.1346 9.21561 23.6727C15.6621 25.2109 22.1349 21.2319 23.673 14.7855Z" fill="white"/>
<mask id="mask0_16335_12075" style="mask-type:luminance" maskUnits="userSpaceOnUse" x="-1" y="-1" width="26" height="26">
<path d="M23.673 14.7855C25.2111 8.339 21.2322 1.8662 14.7857 0.328065C8.33926 -1.21008 1.86646 2.7689 0.328324 9.21536C-1.20982 15.6618 2.76916 22.1346 9.21561 23.6727C15.6621 25.2109 22.1349 21.2319 23.673 14.7855Z" fill="white"/>
</mask>
<g mask="url(#mask0_16335_12075)">
<path d="M29.9993 0H-6.00067V24H29.9993V0Z" fill="#007C29"/>
<path fill-rule="evenodd" clip-rule="evenodd" d="M10.3496 3.92529C14.8089 3.92529 18.4241 7.54053 18.4241 11.9998C18.4241 16.4591 14.8089 20.0744 10.3496 20.0744C5.89032 20.0744 2.27509 16.4591 2.27509 11.9998C2.27509 7.54053 5.89032 3.92529 10.3496 3.92529Z" fill="#FF0000"/>
</g>
</g>
<rect x="0.25" y="0.25" width="23.5" height="23.5" rx="11.75" stroke="#E5E3E1" stroke-width="0.5"/>
<defs>
<clipPath id="clip0_16335_12075">
<rect width="24" height="24" rx="12" fill="white"/>
</clipPath>
</defs>
</svg>
