<svg width="48" height="48" viewBox="0 0 48 48" fill="none" xmlns="http://www.w3.org/2000/svg">
<path d="M29.8398 35.3197C29.2898 35.3197 28.8398 34.8697 28.8398 34.3197V31.9297C28.8398 31.3797 29.2898 30.9297 29.8398 30.9297C30.3898 30.9297 30.8398 31.3797 30.8398 31.9297V34.3197C30.8398 34.8697 30.3898 35.3197 29.8398 35.3197Z" fill="#323232"/>
<path d="M18.1602 35.3199C17.6102 35.3199 17.1602 34.8699 17.1602 34.3199V32.1299C17.1602 31.5799 17.6102 31.1299 18.1602 31.1299C18.7102 31.1299 19.1602 31.5799 19.1602 32.1299V34.3199C19.1602 34.8699 18.7102 35.3199 18.1602 35.3199Z" fill="#323232"/>
<path d="M24.0807 35.2293C21.2407 35.2293 19.2607 33.9193 19.1407 33.8293C16.4707 32.2593 14.4907 29.6493 13.6607 26.6293C11.4907 26.2093 10.2207 24.0093 10.2207 20.5893C10.2207 19.3593 10.6507 17.6793 11.6107 16.7293C11.8507 16.4893 12.1207 16.2993 12.4107 16.1693V15.4893C12.4107 14.9393 12.8607 14.4893 13.4107 14.4893C13.9607 14.4893 14.4107 14.9393 14.4107 15.4893V16.9493C14.4107 17.2193 14.3007 17.4693 14.1207 17.6593C13.9307 17.8493 13.6807 17.9493 13.4107 17.9493C13.3507 17.9493 13.2207 17.9493 13.0307 18.1493C12.5807 18.5993 12.2307 19.6693 12.2307 20.5993C12.2307 21.8393 12.4507 24.7193 14.4707 24.7193C14.9407 24.7193 15.3507 25.0493 15.4507 25.5193C16.0307 28.2993 17.7707 30.7193 20.2207 32.1593C20.4207 32.2893 23.8807 34.5393 27.9607 32.1593C30.3407 30.6093 32.0507 28.1993 32.7307 25.3893C32.8407 24.9493 33.2307 24.6293 33.6907 24.6193C35.4307 24.5993 35.7907 22.3993 35.7907 20.5493C35.7907 18.3393 35.4807 17.9493 34.6007 17.9493C34.0507 17.9493 33.6007 17.4993 33.6007 16.9493V15.4893C33.6007 14.9393 34.0507 14.4893 34.6007 14.4893C35.1507 14.4893 35.6007 14.9393 35.6007 15.4893V16.0793C37.7907 16.6893 37.7907 19.3393 37.7907 20.5493C37.7907 25.0193 35.8607 26.2293 34.4907 26.5293C33.5907 29.5493 31.6707 32.1293 29.0107 33.8593C27.2307 34.8993 25.5507 35.2493 24.0907 35.2493L24.0807 35.2293Z" fill="#323232"/>
<path d="M34.5899 16.4896C34.0399 16.4896 33.5899 16.0396 33.5899 15.4896V14.0296C33.5899 5.46957 26.5299 4.80957 24.3699 4.80957C19.7799 4.80957 14.4199 7.20957 14.4199 13.9696V15.4896C14.4199 16.0396 13.9699 16.4896 13.4199 16.4896C12.8699 16.4896 12.4199 16.0396 12.4199 15.4896V13.9696C12.4199 6.25957 18.4199 2.80957 24.3699 2.80957C29.5499 2.80957 35.5899 5.74957 35.5899 14.0296V15.4896C35.5899 16.0396 35.1399 16.4896 34.5899 16.4896Z" fill="#323232"/>
<path d="M41.3699 46.1393H6.62993C6.09993 46.1393 5.65993 45.7193 5.62993 45.1893C5.62993 45.1193 5.37993 38.4893 12.7099 36.2893L15.5999 35.3693C16.0699 35.2193 16.5799 35.4393 16.7999 35.8793C16.8599 35.9993 18.4699 38.9793 23.9999 38.9793C29.5299 38.9793 31.1399 35.9993 31.2099 35.8693C31.4299 35.4393 31.9399 35.2193 32.4099 35.3693L35.3099 36.2893C42.6199 38.4993 42.3799 45.1193 42.3799 45.1893C42.3499 45.7193 41.9099 46.1393 41.3799 46.1393H41.3699ZM7.69993 44.1393H40.3099C40.0699 42.5693 39.0399 39.4993 34.7199 38.1993H34.7099L32.5199 37.4993C31.5799 38.7093 29.1299 40.9793 24.0099 40.9793C18.8899 40.9793 16.4399 38.7093 15.4999 37.4993L13.3099 38.1993C8.98993 39.4993 7.94993 42.5693 7.70993 44.1393H7.69993Z" fill="#323232"/>
<path d="M13.4102 16.4896C12.8602 16.4896 12.4102 16.0396 12.4102 15.4896C12.4102 14.9396 12.8602 14.4896 13.4102 14.4896C17.9102 14.4896 20.0802 12.8796 22.1802 11.3196C23.9602 9.99965 25.7902 8.63965 28.7502 8.63965C33.8002 8.63965 35.4302 13.0696 35.5902 15.4096C35.6302 15.9596 35.2102 16.4396 34.6602 16.4696C34.1202 16.5196 33.6302 16.0896 33.6002 15.5396C33.5902 15.3396 33.1902 10.6396 28.7602 10.6396C26.4602 10.6396 25.1002 11.6496 23.3802 12.9196C21.1302 14.5896 18.5802 16.4796 13.4202 16.4796L13.4102 16.4896Z" fill="#323232"/>
</svg>
