<svg width="24" height="24" viewBox="0 0 24 24" fill="none" xmlns="http://www.w3.org/2000/svg">
<g clip-path="url(#clip0_16335_9299)">
<path d="M23.4854 15.4796C25.4064 9.1367 21.8218 2.43744 15.479 0.516367C9.13609 -1.4047 2.43683 2.17988 0.515759 8.52276C-1.40531 14.8656 2.17928 21.5649 8.52216 23.486C14.865 25.407 21.5643 21.8225 23.4854 15.4796Z" fill="white"/>
<mask id="mask0_16335_9299" style="mask-type:luminance" maskUnits="userSpaceOnUse" x="-1" y="-1" width="26" height="26">
<path d="M23.4854 15.4796C25.4064 9.1367 21.8218 2.43744 15.479 0.516367C9.13609 -1.4047 2.43683 2.17988 0.515759 8.52276C-1.40531 14.8656 2.17928 21.5649 8.52216 23.486C14.865 25.407 21.5643 21.8225 23.4854 15.4796Z" fill="white"/>
</mask>
<g mask="url(#mask0_16335_9299)">
<path d="M29.9993 0H-6.00073V24H29.9993V0Z" fill="white"/>
<path d="M8.99263 15.0073H-6.00073V24.0014H8.99263V15.0073Z" fill="#007C29"/>
<path d="M29.9993 15.0073H15.0059V24.0014H29.9993V15.0073Z" fill="#007C29"/>
<path d="M29.9993 0H15.0059V8.99406H29.9993V0Z" fill="#007C29"/>
<path d="M8.99263 0H-6.00073V8.99406H8.99263V0Z" fill="#007C29"/>
<path d="M29.9993 8.99414H-6.00073V10.9981H29.9993V8.99414Z" fill="#FED700"/>
<path d="M10.9966 0H8.99261V24H10.9966V0Z" fill="#FED700"/>
<path d="M13.0005 0H10.9966V24H13.0005V0Z" fill="black"/>
<path d="M29.9993 10.998H-6.00073V13.002H29.9993V10.998Z" fill="black"/>
<path fill-rule="evenodd" clip-rule="evenodd" d="M11.9986 17.9811C15.2924 17.9811 17.9797 15.2937 17.9797 11.9999C17.9797 8.70612 15.2924 6.0188 11.9986 6.0188C8.70477 6.0188 6.01746 8.70612 6.01746 11.9999C6.01746 15.2937 8.70477 17.9811 11.9986 17.9811Z" fill="#FF0000"/>
<path fill-rule="evenodd" clip-rule="evenodd" d="M14.6607 14.7767L14.8522 15.3707H15.4768C15.4894 15.3707 15.4992 15.3791 15.4992 15.3916C15.4992 15.3986 15.4964 15.4056 15.4908 15.4098L14.9849 15.7759L15.1792 16.3699C15.1834 16.381 15.1764 16.3936 15.1652 16.3978C15.1582 16.4006 15.1498 16.3978 15.1442 16.3936L14.6412 16.0261L14.1367 16.3936C14.1269 16.4006 14.1129 16.3992 14.1059 16.3894C14.1017 16.3838 14.1003 16.3768 14.1031 16.3699L14.2974 15.7759L13.7915 15.4098C13.7817 15.4028 13.7789 15.3888 13.7873 15.3791C13.7915 15.3735 13.7999 15.3693 13.8069 15.3707H14.4301L14.6216 14.7781C14.6258 14.767 14.637 14.76 14.6495 14.7642C14.6565 14.767 14.6607 14.7712 14.6635 14.7781L14.6607 14.7767Z" fill="black"/>
<path fill-rule="evenodd" clip-rule="evenodd" d="M14.8158 15.3985L14.6398 14.8535L14.4637 15.3985C14.4609 15.4069 14.4525 15.4139 14.4427 15.4139H13.8698L14.3337 15.7479C14.3407 15.7535 14.3449 15.7633 14.3421 15.7716L14.1632 16.3167L14.6258 15.9799C14.6328 15.9743 14.6439 15.9743 14.6509 15.9799L15.1135 16.3181L14.936 15.7744C14.9332 15.7661 14.936 15.7549 14.943 15.7493L15.407 15.4139H14.8354C14.8256 15.4153 14.8172 15.4097 14.813 15.3999L14.8158 15.3985Z" fill="#007C29"/>
<path fill-rule="evenodd" clip-rule="evenodd" d="M11.4913 15.7717L11.9972 16.1379L12.5002 15.7676C12.51 15.7606 12.524 15.762 12.531 15.7717C12.5352 15.7773 12.5366 15.7857 12.5338 15.7927L12.3423 16.3852L12.8496 16.75C12.8594 16.757 12.8622 16.7709 12.8552 16.7807C12.851 16.7863 12.844 16.7905 12.837 16.7891H12.2138L12.0237 17.3844C12.0195 17.3956 12.0083 17.4026 11.9972 17.3984C11.9902 17.3956 11.9846 17.3914 11.9832 17.3844L11.7889 16.7905L11.1643 16.7933C11.1517 16.7933 11.1419 16.7835 11.1419 16.7723C11.1419 16.7653 11.1461 16.7584 11.1517 16.7542L11.6562 16.3866L11.4605 15.7941C11.4563 15.7829 11.4633 15.7703 11.4745 15.7662C11.4815 15.7634 11.4885 15.7662 11.4941 15.7689L11.4913 15.7717Z" fill="black"/>
<path fill-rule="evenodd" clip-rule="evenodd" d="M11.9846 16.1827L11.5207 15.8473L11.7009 16.3909C11.7037 16.3993 11.7009 16.4091 11.6925 16.4146L11.23 16.7528L11.8015 16.75C11.8113 16.75 11.8211 16.7556 11.8239 16.7654L12.0014 17.3104L12.1747 16.7654C12.1775 16.7556 12.1858 16.75 12.1956 16.75H12.7686L12.3032 16.4146C12.2948 16.4091 12.2921 16.3993 12.2948 16.3895L12.4709 15.8445L12.0098 16.1827C12.0028 16.1883 11.9916 16.1897 11.9832 16.1827H11.9846Z" fill="#007C29"/>
<path fill-rule="evenodd" clip-rule="evenodd" d="M12.0196 6.61415L12.211 7.20807H12.8357C12.8482 7.20807 12.858 7.21645 12.858 7.22903C12.858 7.23602 12.8552 7.24301 12.8496 7.2472L12.3438 7.61333L12.538 8.20725C12.5422 8.21843 12.5352 8.23101 12.524 8.2352C12.517 8.238 12.5087 8.2352 12.5031 8.23101L12 7.86348L11.4955 8.23101C11.4857 8.238 11.4717 8.2366 11.4648 8.22682C11.4606 8.22123 11.4592 8.21424 11.462 8.20725L11.6562 7.61333L11.1503 7.2472C11.1405 7.24021 11.1378 7.22624 11.1461 7.21645C11.1503 7.21086 11.1587 7.20667 11.1657 7.20807H11.789L11.9804 6.61555C11.9846 6.60437 11.9958 6.59738 12.007 6.60157C12.014 6.60437 12.0196 6.60856 12.0209 6.61555L12.0196 6.61415Z" fill="black"/>
<path fill-rule="evenodd" clip-rule="evenodd" d="M12.1747 7.23739L11.9986 6.69238L11.8225 7.23739C11.8197 7.24578 11.8113 7.25277 11.8015 7.25277H11.2286L11.6925 7.58816C11.6995 7.59375 11.7037 7.60353 11.7009 7.61191L11.5234 8.15692L11.986 7.82013C11.993 7.81454 12.0042 7.81454 12.0112 7.82013L12.4737 8.15832L12.2962 7.61471C12.2934 7.60632 12.2962 7.59514 12.3032 7.58955L12.7672 7.25416H12.1956C12.1858 7.25556 12.1775 7.24997 12.1747 7.24019V7.23739Z" fill="#007C29"/>
<path fill-rule="evenodd" clip-rule="evenodd" d="M16.2971 9.73469L16.4886 10.3286H17.1133C17.1258 10.3286 17.1342 10.337 17.1342 10.3496C17.1342 10.3566 17.13 10.3635 17.1258 10.3663L16.6199 10.7325L16.8142 11.3264C16.8184 11.3376 16.8114 11.3502 16.8002 11.3543C16.7932 11.3571 16.7848 11.3543 16.7793 11.3502L16.2762 10.9826L15.7717 11.3502C15.7619 11.3571 15.7479 11.3557 15.7409 11.346C15.7368 11.3404 15.7354 11.3334 15.7381 11.3264L15.9324 10.7325L15.4265 10.3663C15.4167 10.3594 15.4139 10.3454 15.4223 10.3356C15.4265 10.3286 15.4349 10.3258 15.4419 10.3272H16.0652L16.2566 9.73469C16.2608 9.72351 16.272 9.71652 16.2832 9.72071C16.2901 9.72351 16.2957 9.7277 16.2971 9.73469Z" fill="black"/>
<path fill-rule="evenodd" clip-rule="evenodd" d="M16.4523 10.3565L16.2762 9.81152L16.1001 10.3565C16.0974 10.3649 16.089 10.3719 16.0792 10.3719H15.5062L15.9702 10.7073C15.9772 10.7129 15.9814 10.7227 15.9786 10.7311L15.7997 11.2761L16.2623 10.9393C16.2692 10.9337 16.2804 10.9337 16.2874 10.9393L16.75 11.2775L16.5725 10.7338C16.5697 10.7255 16.5725 10.7143 16.5795 10.7087L17.0434 10.3733H16.4719C16.4621 10.3747 16.4537 10.3691 16.4509 10.3593L16.4523 10.3565Z" fill="#007C29"/>
<path fill-rule="evenodd" clip-rule="evenodd" d="M7.74331 9.73469L7.93476 10.3286H8.55942C8.572 10.3286 8.58178 10.337 8.58178 10.3496C8.58178 10.3566 8.57759 10.3635 8.5734 10.3663L8.06752 10.7325L8.26177 11.3264C8.26596 11.3376 8.25897 11.3502 8.24779 11.3543C8.2408 11.3571 8.23242 11.3543 8.22683 11.3502L7.72374 10.9826L7.21926 11.3502C7.20948 11.3571 7.1955 11.3557 7.18852 11.346C7.18432 11.3404 7.18293 11.3334 7.18572 11.3264L7.37997 10.7325L6.87409 10.3663C6.8643 10.3594 6.86151 10.3454 6.86989 10.3356C6.87409 10.3286 6.88247 10.3258 6.88946 10.3272H7.51273L7.70418 9.73469C7.70837 9.72351 7.71955 9.71652 7.73213 9.72071C7.73912 9.72351 7.7447 9.7277 7.7461 9.73469H7.74331Z" fill="black"/>
<path fill-rule="evenodd" clip-rule="evenodd" d="M7.89841 10.3565L7.72233 9.81152L7.54625 10.3565C7.54346 10.3649 7.53507 10.3719 7.52529 10.3719H6.95233L7.41629 10.7073C7.42328 10.7129 7.42747 10.7227 7.42467 10.7311L7.2458 11.2761L7.70836 10.9393C7.71535 10.9337 7.72653 10.9337 7.73351 10.9393L8.19607 11.2775L8.01859 10.7338C8.0158 10.7255 8.01859 10.7143 8.02558 10.7087L8.48954 10.3733H7.91798C7.9082 10.3747 7.89981 10.3691 7.89702 10.3593L7.89841 10.3565Z" fill="#007C29"/>
<path fill-rule="evenodd" clip-rule="evenodd" d="M9.37832 14.7767L9.56977 15.3707H10.1944C10.207 15.3707 10.2168 15.3791 10.2168 15.3916C10.2168 15.3986 10.2126 15.4056 10.2084 15.4098L9.70253 15.7759L9.89678 16.3699C9.90097 16.381 9.89398 16.3936 9.8828 16.3978C9.87581 16.4006 9.86743 16.3978 9.86184 16.3936L9.35875 16.0261L8.85427 16.3936C8.84449 16.4006 8.83051 16.3992 8.82352 16.3894C8.81933 16.3838 8.81793 16.3768 8.82073 16.3699L9.01498 15.7759L8.5091 15.4098C8.49931 15.4028 8.49652 15.3888 8.5049 15.3791C8.5091 15.3735 8.51748 15.3693 8.52447 15.3707H9.14774L9.33919 14.7781C9.34338 14.767 9.35456 14.76 9.36574 14.7642C9.37273 14.767 9.37832 14.7712 9.37971 14.7781L9.37832 14.7767Z" fill="black"/>
<path fill-rule="evenodd" clip-rule="evenodd" d="M9.53483 15.3985L9.35875 14.8535L9.18267 15.3985C9.17987 15.4069 9.17149 15.4139 9.1617 15.4139H8.58875L9.0527 15.7479C9.05969 15.7535 9.06388 15.7633 9.06109 15.7716L8.88361 16.3167L9.34617 15.9799C9.35316 15.9743 9.36434 15.9743 9.37132 15.9799L9.83388 16.3181L9.65641 15.7744C9.65361 15.7661 9.65641 15.7549 9.66339 15.7493L10.1274 15.4139H9.55579C9.54601 15.4153 9.53762 15.4097 9.53483 15.3999V15.3985Z" fill="#007C29"/>
<path fill-rule="evenodd" clip-rule="evenodd" d="M8.84448 7.64559L9.34897 8.01172L9.85205 7.64279C9.86183 7.63581 9.87581 7.63721 9.8828 7.64699C9.88699 7.65258 9.88839 7.66096 9.88559 7.66795L9.69414 8.26047L10.2014 8.62521C10.2112 8.6322 10.214 8.64617 10.207 8.65595C10.2028 8.66154 10.1958 8.66574 10.1888 8.66434H9.56557L9.37552 9.25966C9.37132 9.27084 9.36015 9.27782 9.34897 9.27363C9.34198 9.27084 9.33639 9.26665 9.33499 9.25966L9.14074 8.66574L8.51608 8.66853C8.5035 8.66853 8.49512 8.65875 8.49512 8.64757C8.49512 8.64058 8.49931 8.63359 8.5049 8.6294L9.00938 8.26187L8.81374 7.66935C8.80955 7.65817 8.81653 7.64559 8.82771 7.6414C8.8347 7.6386 8.84169 7.6414 8.84728 7.64419L8.84448 7.64559Z" fill="black"/>
<path fill-rule="evenodd" clip-rule="evenodd" d="M9.33782 8.05498L8.87386 7.71959L9.05414 8.2632C9.05693 8.27159 9.05414 8.28137 9.04575 8.28696L8.58319 8.62375L9.15475 8.62095C9.16454 8.62095 9.17432 8.62654 9.17711 8.63633L9.35459 9.18134L9.52788 8.63633C9.53067 8.62654 9.53905 8.62095 9.54884 8.62095H10.1218L9.65644 8.28696C9.64806 8.28137 9.64526 8.27159 9.64806 8.26181L9.82414 7.7168L9.36297 8.05498C9.35599 8.06057 9.34481 8.06197 9.33642 8.05498H9.33782Z" fill="#007C29"/>
<path fill-rule="evenodd" clip-rule="evenodd" d="M14.1381 7.64559L14.6426 8.01172L15.1457 7.64279C15.1555 7.63581 15.1694 7.63721 15.1764 7.64699C15.1806 7.65258 15.182 7.66096 15.1792 7.66795L14.9878 8.26047L15.495 8.62521C15.5048 8.6322 15.5076 8.64617 15.5006 8.65595C15.4964 8.66154 15.4895 8.66574 15.4825 8.66434H14.8592L14.6691 9.25966C14.665 9.27084 14.6538 9.27782 14.6412 9.27363C14.6342 9.27084 14.6286 9.26665 14.6272 9.25966L14.433 8.66574L13.8083 8.66853C13.7957 8.66853 13.7859 8.65875 13.7859 8.64757C13.7859 8.64058 13.7901 8.63359 13.7957 8.6294L14.3002 8.26187L14.1046 7.66935C14.1004 7.65817 14.1074 7.64559 14.1185 7.6414C14.1255 7.6386 14.1325 7.6414 14.1381 7.64419V7.64559Z" fill="black"/>
<path fill-rule="evenodd" clip-rule="evenodd" d="M14.6314 8.05498L14.1674 7.71959L14.3477 8.2632C14.3505 8.27159 14.3477 8.28137 14.3393 8.28696L13.8768 8.62375L14.4483 8.62095C14.4581 8.62095 14.4679 8.62654 14.4707 8.63633L14.6482 9.18134L14.8215 8.63633C14.8242 8.62654 14.8326 8.62095 14.8424 8.62095H15.4154L14.95 8.28696C14.9416 8.28137 14.9388 8.27159 14.9416 8.26181L15.1177 7.7168L14.6566 8.05498C14.6496 8.06057 14.6384 8.06197 14.63 8.05498H14.6314Z" fill="#007C29"/>
<path fill-rule="evenodd" clip-rule="evenodd" d="M7.20111 12.6737L7.70559 13.0398L8.20868 12.6709C8.21846 12.6639 8.23244 12.6653 8.23942 12.6751C8.24362 12.6807 8.24501 12.689 8.24222 12.696L8.05077 13.2885L8.55805 13.6533C8.56783 13.6603 8.57062 13.6742 8.56364 13.684C8.55944 13.6896 8.55246 13.6924 8.54547 13.6924H7.9222L7.73215 14.2877C7.72795 14.2989 7.71677 14.3059 7.70559 14.3017C7.69861 14.2989 7.69302 14.2947 7.69162 14.2877L7.49737 13.6938L6.87271 13.6966C6.86013 13.6966 6.85175 13.6868 6.85175 13.6742C6.85175 13.6673 6.85594 13.6603 6.86153 13.6561L7.36601 13.2885L7.17037 12.696C7.16617 12.6848 7.17316 12.6723 7.18434 12.6681C7.19133 12.6653 7.19832 12.6681 7.20391 12.6709L7.20111 12.6737Z" fill="black"/>
<path fill-rule="evenodd" clip-rule="evenodd" d="M7.69298 13.0843L7.22903 12.749L7.4093 13.2926C7.41209 13.301 7.4093 13.3107 7.40091 13.3163L6.93835 13.6545L7.50992 13.6517C7.5197 13.6517 7.52948 13.6573 7.53228 13.6671L7.70975 14.2121L7.88304 13.6671C7.88583 13.6587 7.89422 13.6517 7.904 13.6517H8.47696L8.013 13.3177C8.00462 13.3121 8.00182 13.3024 8.00462 13.2926L8.1807 12.7476L7.71954 13.0857C7.71255 13.0913 7.70137 13.0927 7.69298 13.0857V13.0843Z" fill="#007C29"/>
<path fill-rule="evenodd" clip-rule="evenodd" d="M15.7829 12.6737L16.2874 13.0398L16.7905 12.6709C16.8002 12.6639 16.8142 12.6653 16.8212 12.6751C16.8254 12.6807 16.8268 12.689 16.824 12.696L16.6325 13.2885L17.1398 13.6533C17.1496 13.6603 17.1524 13.6742 17.1454 13.684C17.1412 13.6896 17.1342 13.6924 17.1272 13.6924H16.504L16.3139 14.2877C16.3097 14.2989 16.2986 14.3059 16.2874 14.3017C16.2804 14.2989 16.2748 14.2947 16.2734 14.2877L16.0792 13.6938L15.4545 13.6966C15.4419 13.6966 15.4335 13.6868 15.4321 13.6742C15.4321 13.6673 15.4363 13.6603 15.4419 13.6561L15.9464 13.2885L15.7507 12.696C15.7466 12.6848 15.7535 12.6723 15.7647 12.6681C15.7717 12.6653 15.7787 12.6681 15.7843 12.6709L15.7829 12.6737Z" fill="black"/>
<path fill-rule="evenodd" clip-rule="evenodd" d="M16.2762 13.0843L15.8122 12.749L15.9925 13.2926C15.9953 13.301 15.9925 13.3107 15.9841 13.3163L15.5215 13.6545L16.0931 13.6517C16.1029 13.6517 16.1127 13.6573 16.1155 13.6671L16.2929 14.2121L16.4662 13.6671C16.469 13.6587 16.4774 13.6517 16.4872 13.6517H17.0602L16.5962 13.3177C16.5878 13.3121 16.585 13.3024 16.5878 13.2926L16.7639 12.7476L16.3027 13.0857C16.2957 13.0913 16.2846 13.0927 16.2762 13.0857V13.0843Z" fill="#007C29"/>
<path fill-rule="evenodd" clip-rule="evenodd" d="M11.6325 14.922H10.4348C10.4278 14.922 10.4195 14.9178 10.4167 14.9109L10.1931 14.5238C10.1833 14.5098 10.1931 14.4888 10.2112 14.4888H10.3147C10.3622 14.4888 10.4027 14.4581 10.4153 14.4134C10.4334 14.3407 10.4796 14.2778 10.5382 14.2331C10.5983 14.187 10.6752 14.1604 10.7507 14.1604C10.8261 14.1604 10.903 14.187 10.9631 14.2331C11.0218 14.2778 11.0679 14.3407 11.0861 14.4134C11.0986 14.4581 11.1406 14.4888 11.1867 14.4888H11.6325C11.6394 14.4762 11.6464 14.4651 11.6534 14.4525C11.6995 14.384 11.7624 14.3281 11.8379 14.2918C11.8113 14.2233 11.796 14.1353 11.7932 14.0388C11.789 14.0388 11.7834 14.0388 11.7792 14.0388C11.7219 14.0388 11.6702 13.9885 11.6353 13.9089C11.6031 13.8334 11.5821 13.7314 11.5821 13.6182C11.5821 13.5903 11.5822 13.5623 11.5863 13.533L11.5821 13.5246C11.5514 13.4743 11.529 13.4044 11.5165 13.3233C11.3991 13.1892 11.2943 13.0383 11.2048 12.8748C10.9882 12.4779 10.8625 12.0013 10.8625 11.4899C10.8625 11.2593 10.8876 11.0371 10.9365 10.8247C10.9854 10.6081 11.0581 10.4026 11.1503 10.214C11.1503 10.207 11.1503 10.2014 11.1503 10.1958C11.1503 10.1315 11.1783 10.0687 11.2258 10.0253V10.0225C11.2258 9.96385 11.2482 9.90795 11.2873 9.86463C11.2873 9.83947 11.2901 9.81711 11.2971 9.79336C11.237 9.8241 11.1629 9.84367 11.1028 9.84367C11.0539 9.84367 11.005 9.83528 10.9589 9.81711C10.9295 9.86882 10.9086 9.92472 10.8974 9.98341C10.8946 9.99459 10.8834 10.003 10.8722 10.0002C10.8653 10.0002 10.8597 9.99459 10.8569 9.989C10.8219 9.92891 10.7954 9.86323 10.7786 9.79615C10.7381 9.63265 10.7479 9.45517 10.8722 9.3266C10.9295 9.26651 11.0064 9.22599 11.0972 9.21481C11.1224 9.07227 11.2006 8.96746 11.3069 8.89339C11.4354 8.80395 11.6045 8.76343 11.7652 8.76343C11.9078 8.76343 12.0419 8.79557 12.1635 8.85426C12.2949 8.91715 12.3941 9.001 12.4863 9.11279C12.5729 9.21621 12.6694 9.30844 12.777 9.38949C12.8846 9.47054 13.002 9.54042 13.1263 9.59631C13.1459 9.6047 13.1417 9.63405 13.1208 9.63684C13.0327 9.65082 12.9419 9.65221 12.8524 9.63964C12.8874 9.66759 12.9265 9.69134 12.967 9.71091C13.0299 9.74025 13.0984 9.75982 13.1697 9.7668C13.1878 9.7682 13.1962 9.79056 13.1836 9.80314C13.1319 9.85485 13.0732 9.89817 13.0076 9.93031C13.0537 9.97083 13.1054 10.0044 13.1613 10.0295C13.2256 10.0589 13.2954 10.077 13.3681 10.0812C13.3863 10.0812 13.3947 10.1036 13.3835 10.1162C13.3304 10.1832 13.2619 10.2391 13.185 10.2783C13.2172 10.3006 13.2521 10.3188 13.2884 10.3342C13.3346 10.3537 13.3849 10.3677 13.4366 10.3761C13.4547 10.3789 13.4617 10.3999 13.4492 10.4124C13.3961 10.4739 13.329 10.5256 13.2535 10.5606L13.2423 10.5648C13.3248 10.6193 13.4198 10.6542 13.519 10.664C13.5358 10.6654 13.5442 10.6863 13.5344 10.6989C13.4254 10.8345 13.2619 10.9113 13.0872 10.9113C13.0369 10.9113 12.9866 10.9043 12.9377 10.8904C12.9656 10.9267 12.9936 10.9644 13.0201 11.0036C13.0607 11.0609 13.0998 11.1195 13.1375 11.1796C13.3723 11.5486 13.5386 11.9343 13.6392 12.3088C13.7426 12.6973 13.7748 13.076 13.7342 13.417C13.7664 13.505 13.7845 13.6 13.7845 13.7007C13.7845 13.7663 13.7762 13.832 13.7608 13.8963C13.7887 14.0039 13.8027 14.1157 13.8027 14.2317C13.8027 14.3379 13.7901 14.4441 13.765 14.5461C13.765 14.5545 13.758 14.5615 13.7496 14.5629C13.7384 14.5657 13.7259 14.5601 13.7231 14.5489C13.6853 14.4259 13.6392 14.3058 13.5833 14.1912V14.3267C13.5833 14.3896 13.5819 14.4539 13.5777 14.5168C13.6378 14.5559 13.6769 14.623 13.6769 14.6984C13.6769 14.7935 13.6155 14.8731 13.5316 14.9025C13.5065 15.0324 13.4715 15.1414 13.4324 15.2183C13.3947 15.2924 13.3499 15.3399 13.301 15.3511C13.294 15.379 13.2871 15.4042 13.2801 15.4293C13.2395 15.5663 13.185 15.6487 13.1236 15.6487C13.0621 15.6487 13.0076 15.5677 12.967 15.4293C12.96 15.4056 12.9531 15.379 12.9461 15.3511C12.9377 15.3539 12.9279 15.3539 12.9195 15.3539C12.8804 15.3539 12.8427 15.3315 12.8091 15.2924C12.7798 15.2574 12.7532 15.2085 12.7309 15.1484C12.7183 15.1526 12.7043 15.154 12.6903 15.154C12.6414 15.154 12.5939 15.1456 12.5492 15.1317C12.5268 15.1456 12.5003 15.154 12.4737 15.154C12.4248 15.154 12.3773 15.1456 12.3326 15.1317C12.3102 15.1456 12.2837 15.154 12.2571 15.154C12.2082 15.154 12.1607 15.1456 12.116 15.1317C12.0936 15.1456 12.0671 15.154 12.0405 15.154C11.9147 15.154 11.8002 15.1023 11.7177 15.0199C11.687 14.9891 11.659 14.9528 11.638 14.9137L11.6325 14.922Z" fill="black"/>
<path fill-rule="evenodd" clip-rule="evenodd" d="M13.1822 13.635C12.9376 13.4673 12.7043 13.2186 12.503 12.9097C12.2948 12.5911 12.1215 12.2082 12.0027 11.782C12.1076 12.2767 12.278 12.7099 12.4821 13.0355C12.6931 13.3723 12.939 13.5903 13.1822 13.6364V13.635Z" fill="#FF0000"/>
<path fill-rule="evenodd" clip-rule="evenodd" d="M13.2842 14.7055C13.2842 14.8005 13.3611 14.8788 13.4575 14.8788C13.554 14.8788 13.6308 14.8019 13.6308 14.7055C13.6308 14.6091 13.554 14.5322 13.4575 14.5322C13.3611 14.5322 13.2842 14.6091 13.2842 14.7055Z" fill="#996633"/>
<path fill-rule="evenodd" clip-rule="evenodd" d="M12.6847 14.8788H13.3261C13.2744 14.8397 13.2395 14.7768 13.2395 14.7055C13.2395 14.6342 13.273 14.5728 13.3261 14.5322H12.6847C12.5897 14.5322 12.5114 14.6091 12.5114 14.7055C12.5114 14.8019 12.5883 14.8788 12.6847 14.8788Z" fill="#663300"/>
<path fill-rule="evenodd" clip-rule="evenodd" d="M11.9064 14.4064C11.8868 14.3882 11.87 14.3631 11.8547 14.3337C11.7876 14.3659 11.7303 14.4162 11.6898 14.4777C11.6464 14.5434 11.6213 14.6216 11.6213 14.7055C11.6213 14.8201 11.6674 14.9235 11.7429 14.9975C11.8183 15.073 11.9203 15.1191 12.0349 15.1191C12.0419 15.1191 12.0475 15.1191 12.0531 15.1177C12.007 15.0954 11.9651 15.0646 11.9287 15.0297C11.8463 14.9472 11.7946 14.8326 11.7946 14.7069C11.7946 14.6468 11.8057 14.5895 11.8267 14.5364C11.8463 14.4889 11.8728 14.4455 11.905 14.4078L11.9064 14.4064Z" fill="#FED700"/>
<path fill-rule="evenodd" clip-rule="evenodd" d="M12.1649 14.3645C12.1551 14.3477 12.1453 14.3296 12.1369 14.3086L12.1342 14.3142C12.0992 14.3938 12.0489 14.4441 11.9902 14.4441C11.9734 14.4441 11.9567 14.44 11.9413 14.4316C11.9106 14.4665 11.8854 14.507 11.8672 14.5504C11.8477 14.5979 11.8379 14.6496 11.8379 14.7041C11.8379 14.8187 11.884 14.9221 11.9595 14.9961C12.0335 15.0702 12.1383 15.1177 12.2515 15.1177C12.2585 15.1177 12.2641 15.1177 12.2697 15.1163C12.2236 15.094 12.1817 15.0632 12.1453 15.0283C12.0629 14.9458 12.0112 14.8312 12.0112 14.7055C12.0112 14.6356 12.0265 14.5685 12.0559 14.5098C12.0824 14.4553 12.1202 14.405 12.1649 14.3645Z" fill="#FED700"/>
<path fill-rule="evenodd" clip-rule="evenodd" d="M12.313 14.4399C12.3032 14.4427 12.292 14.4455 12.2822 14.4455C12.2487 14.4455 12.2179 14.4288 12.1914 14.3994C12.1523 14.4357 12.1187 14.4791 12.095 14.528C12.0698 14.5811 12.0544 14.6426 12.0544 14.7069C12.0544 14.8214 12.1006 14.9249 12.176 14.9989C12.2501 15.0744 12.3549 15.1205 12.4681 15.1205C12.4751 15.1205 12.4807 15.1205 12.4863 15.1191C12.4401 15.0967 12.3982 15.066 12.3619 15.0311C12.2794 14.9486 12.2277 14.834 12.2277 14.7083C12.2277 14.6412 12.2417 14.5769 12.2683 14.5196C12.2808 14.493 12.2948 14.4665 12.313 14.4427V14.4399Z" fill="#FED700"/>
<path fill-rule="evenodd" clip-rule="evenodd" d="M12.5631 14.317C12.5296 14.3757 12.4863 14.4106 12.4388 14.4106C12.4262 14.4106 12.415 14.4078 12.4038 14.405C12.3647 14.4414 12.3312 14.4861 12.3088 14.5364C12.285 14.5881 12.2725 14.6468 12.2725 14.7069C12.2725 14.8215 12.3186 14.9249 12.394 14.999C12.4681 15.0744 12.5715 15.1205 12.6861 15.1205C12.7406 15.1205 12.7853 15.0758 12.7853 15.0213C12.7853 14.9668 12.7406 14.9221 12.6861 14.9221C12.5673 14.9221 12.4695 14.8257 12.4695 14.7055C12.4695 14.5853 12.5659 14.4889 12.6861 14.4889C12.7099 14.4889 12.7308 14.4805 12.749 14.4665C12.7392 14.4693 12.7294 14.4707 12.7196 14.4707C12.6777 14.4707 12.64 14.4428 12.6162 14.4092C12.5967 14.3841 12.5799 14.3519 12.5659 14.3142L12.5631 14.317Z" fill="#FED700"/>
<path fill-rule="evenodd" clip-rule="evenodd" d="M10.8666 9.92209C10.889 9.84803 10.9253 9.77955 10.9728 9.72086C11.0329 9.64679 11.1112 9.5895 11.2006 9.55177C11.2607 9.52522 11.2998 9.47631 11.2998 9.40923C11.2998 9.32538 11.2328 9.2583 11.1489 9.2583C11.0469 9.2583 10.9617 9.29743 10.9016 9.36032C10.7898 9.47631 10.7828 9.6426 10.8191 9.79073C10.8303 9.83545 10.8471 9.88017 10.8666 9.92209ZM11.1266 9.43997C11.1503 9.43997 11.1699 9.45954 11.1699 9.48329C11.1699 9.50705 11.1503 9.52661 11.1266 9.52661C11.1028 9.52661 11.0832 9.50705 11.0832 9.48329C11.0832 9.45954 11.1028 9.43997 11.1266 9.43997Z" fill="#FED700"/>
<path fill-rule="evenodd" clip-rule="evenodd" d="M11.3026 9.52783C11.2816 9.55578 11.2495 9.57954 11.216 9.59212C11.1321 9.62565 11.0609 9.68016 11.005 9.74863C10.9966 9.75981 10.9868 9.77099 10.9798 9.78357C11.0189 9.79754 11.0595 9.80453 11.1 9.80453C11.1726 9.80453 11.2705 9.77099 11.3264 9.72627C11.3571 9.70251 11.3837 9.66898 11.3837 9.62705C11.3837 9.57814 11.3487 9.53761 11.3026 9.52923V9.52783Z" fill="#FED700"/>
<path fill-rule="evenodd" clip-rule="evenodd" d="M11.8141 9.18695C11.7834 9.17018 11.7484 9.1604 11.7121 9.1604C11.6758 9.1604 11.6394 9.17018 11.6101 9.18695C11.5821 9.20232 11.5584 9.22329 11.5402 9.24844C11.5584 9.27359 11.5821 9.29456 11.6101 9.30993C11.6408 9.3267 11.6758 9.33648 11.7121 9.33648C11.7484 9.33648 11.7848 9.3267 11.8141 9.30993C11.8421 9.29456 11.8658 9.27359 11.884 9.24844C11.8658 9.22329 11.8421 9.20232 11.8141 9.18695ZM11.7121 9.20512C11.7359 9.20512 11.7554 9.22468 11.7554 9.24844C11.7554 9.2722 11.7359 9.29176 11.7121 9.29176C11.6884 9.29176 11.6688 9.2722 11.6688 9.24844C11.6688 9.22468 11.6884 9.20512 11.7121 9.20512Z" fill="#FF0000"/>
<path fill-rule="evenodd" clip-rule="evenodd" d="M11.3851 9.73045C11.4368 9.75561 11.4941 9.77378 11.5542 9.78775C11.6325 9.80452 11.7163 9.81291 11.7974 9.81291C11.9455 9.81291 12.0866 9.78775 12.2194 9.74163C12.3563 9.69412 12.4821 9.62285 12.5925 9.53341C12.5995 9.52782 12.6079 9.52643 12.6163 9.53062C12.6722 9.55717 12.7309 9.57813 12.791 9.59211C12.872 9.61027 12.9559 9.61726 13.0369 9.61027C12.9349 9.55996 12.8371 9.49987 12.7476 9.4314C12.6386 9.34895 12.538 9.25252 12.45 9.14771C12.3577 9.03871 12.2711 8.96185 12.1411 8.90036C12.0265 8.84586 11.898 8.81372 11.7624 8.81372C11.6087 8.81372 11.4494 8.85145 11.3278 8.9353C11.2342 9.00098 11.1629 9.09321 11.1392 9.21759H11.1489C11.2565 9.21759 11.3432 9.30423 11.3432 9.41183C11.3432 9.43978 11.3376 9.46633 11.3264 9.49149C11.3851 9.50966 11.4284 9.56416 11.4284 9.62844C11.4284 9.66897 11.4117 9.7039 11.3851 9.73185V9.73045ZM11.7121 9.11697C11.7568 9.11697 11.7988 9.12815 11.8365 9.14911C11.8742 9.17007 11.9064 9.20082 11.9301 9.23715C11.9343 9.24414 11.9343 9.25392 11.9301 9.26091C11.9078 9.29724 11.8756 9.32799 11.8379 9.34895C11.8016 9.36991 11.7596 9.38109 11.7135 9.38109C11.6674 9.38109 11.6269 9.36991 11.5905 9.34895C11.5528 9.32799 11.5207 9.29724 11.4969 9.26091C11.4927 9.25392 11.4927 9.24414 11.4969 9.23715C11.5193 9.20082 11.5514 9.17007 11.5891 9.14911C11.6255 9.12815 11.6674 9.11697 11.7121 9.11697Z" fill="#6574FF"/>
<path fill-rule="evenodd" clip-rule="evenodd" d="M12.2711 9.76682C12.3242 9.82412 12.3884 9.87024 12.4597 9.90378C12.538 9.94011 12.6246 9.96107 12.7168 9.96107C12.7993 9.96107 12.879 9.9443 12.9516 9.91495C13.0131 9.8898 13.069 9.85486 13.1179 9.81154C13.0578 9.80176 13.0005 9.7822 12.9474 9.75704C12.8804 9.7249 12.8203 9.68158 12.7686 9.62987C12.7141 9.6159 12.6609 9.59773 12.6106 9.57397C12.5086 9.65363 12.3954 9.71931 12.2739 9.76682H12.2711Z" fill="#6574FF"/>
<path fill-rule="evenodd" clip-rule="evenodd" d="M12.183 9.79767C12.2823 9.93322 12.4094 10.0688 12.5492 10.1652C12.6694 10.2476 12.7993 10.3021 12.9265 10.3021C13.0103 10.3021 13.0886 10.2826 13.1585 10.249C13.2186 10.2197 13.2731 10.1792 13.3192 10.1289C13.2563 10.1205 13.1948 10.1023 13.1389 10.0772C13.0732 10.0478 13.0117 10.0059 12.96 9.95698C12.8846 9.98772 12.8021 10.0045 12.7169 10.0045C12.6191 10.0045 12.5254 9.98213 12.4416 9.9444C12.3591 9.90667 12.2865 9.85077 12.2264 9.78369C12.2124 9.78928 12.197 9.79347 12.183 9.79767Z" fill="#6574FF"/>
<path fill-rule="evenodd" clip-rule="evenodd" d="M12.2347 9.93182C12.2305 9.94579 12.2291 9.95977 12.2291 9.97374C12.2291 10.0017 12.2389 10.0366 12.2571 10.059C12.3535 10.1903 12.4863 10.3399 12.64 10.4447C12.7546 10.5229 12.8817 10.576 13.0103 10.576C13.09 10.576 13.1654 10.5593 13.2325 10.5271C13.2912 10.5006 13.3429 10.4629 13.3876 10.4181C13.3457 10.4097 13.3066 10.3972 13.2688 10.3804C13.2213 10.3608 13.1766 10.3343 13.1361 10.3049C13.0718 10.3301 13.0019 10.3441 12.9279 10.3441C12.7895 10.3441 12.6526 10.2868 12.5254 10.1987C12.4192 10.1261 12.3214 10.031 12.2347 9.93042V9.93182Z" fill="#6574FF"/>
<path fill-rule="evenodd" clip-rule="evenodd" d="M13.1892 10.5914C13.1319 10.6095 13.0718 10.6207 13.0089 10.6207C12.8692 10.6207 12.735 10.5648 12.6134 10.481C12.5044 10.4069 12.4052 10.3105 12.3228 10.2126C12.3172 10.2322 12.3144 10.2518 12.3144 10.2713C12.3144 10.3175 12.3298 10.3636 12.3605 10.3999C12.4625 10.5327 12.5897 10.6626 12.7266 10.7535C12.8412 10.8275 12.9628 10.8764 13.083 10.8764C13.2297 10.8764 13.3695 10.8163 13.4701 10.7087C13.3681 10.692 13.273 10.6514 13.1892 10.59V10.5914Z" fill="#6574FF"/>
<path fill-rule="evenodd" clip-rule="evenodd" d="M11.7093 10.3902C11.6981 10.3916 11.6869 10.393 11.6758 10.393C11.631 10.393 11.5863 10.3804 11.55 10.3553C11.5053 10.4028 11.4438 10.4307 11.3795 10.4307C11.3152 10.4307 11.2579 10.4042 11.216 10.3623C11.1936 10.3399 11.1769 10.3147 11.1643 10.2854C11.0846 10.4573 11.0217 10.6432 10.977 10.8374C10.9295 11.0456 10.9044 11.265 10.9044 11.4928C10.9044 11.9973 11.0287 12.4654 11.2411 12.8567C11.4522 13.2438 11.7512 13.5555 12.102 13.7483C12.0908 13.6938 12.0838 13.6337 12.0838 13.5694C12.0838 13.5191 12.088 13.4702 12.095 13.4255C12.102 13.3808 12.1132 13.3403 12.1257 13.3039C12.116 13.2536 12.1104 13.1963 12.1104 13.1376C12.1104 13.03 12.1285 12.9308 12.1593 12.8567C12.1858 12.791 12.2222 12.7449 12.2655 12.7254C12.109 12.3886 11.9846 11.9833 11.9133 11.5389C11.8966 11.4313 11.8826 11.3251 11.8728 11.2203C11.856 11.0414 11.8323 10.7941 11.8826 10.6194C11.8365 10.6082 11.7959 10.5817 11.7652 10.5467C11.7261 10.502 11.7079 10.4475 11.7079 10.3888L11.7093 10.3902Z" fill="#6574FF"/>
<path fill-rule="evenodd" clip-rule="evenodd" d="M11.6115 14.5337H11.1853C11.1196 14.5337 11.0595 14.4889 11.0427 14.4247C11.0274 14.3618 10.9868 14.3073 10.9365 14.2681C10.8834 14.2276 10.8163 14.2039 10.7507 14.2039C10.685 14.2039 10.6179 14.2276 10.5648 14.2681C10.5131 14.3073 10.474 14.3618 10.4586 14.4247C10.4404 14.4889 10.3817 14.5337 10.316 14.5337H10.2504L10.4502 14.8788H11.6157C11.5933 14.8257 11.5821 14.767 11.5821 14.7055C11.5821 14.6441 11.5947 14.5868 11.6157 14.5323L11.6115 14.5337Z" fill="#663300"/>
<path fill-rule="evenodd" clip-rule="evenodd" d="M13.3136 14.9221H12.9251C12.9391 15.1248 12.967 15.2994 13.0048 15.4238C13.0397 15.5412 13.0802 15.6111 13.1208 15.6111C13.1613 15.6111 13.2018 15.5412 13.2367 15.4238C13.2745 15.2994 13.3024 15.1248 13.3164 14.9221H13.3136Z" fill="#007C29"/>
<path fill-rule="evenodd" clip-rule="evenodd" d="M13.4813 14.9206C13.4729 14.9206 13.4645 14.9206 13.4575 14.9206H13.3569C13.3471 15.0659 13.3303 15.1973 13.308 15.3063C13.3359 15.2895 13.3639 15.2546 13.3904 15.2043C13.4268 15.1344 13.4575 15.0366 13.4827 14.9192L13.4813 14.9206Z" fill="#007C29"/>
<path fill-rule="evenodd" clip-rule="evenodd" d="M13.3667 13.8306V14.4888H13.4575C13.4841 14.4888 13.5092 14.493 13.5316 14.5013C13.5344 14.4454 13.5358 14.3882 13.5358 14.3323V14.1101C13.5064 14.0528 13.4743 13.9969 13.4408 13.9424C13.417 13.9046 13.3933 13.8669 13.3667 13.8306Z" fill="#007C29"/>
<path fill-rule="evenodd" clip-rule="evenodd" d="M12.7644 15.1387C12.7868 15.196 12.8119 15.2421 12.8371 15.2729C12.8622 15.3022 12.8874 15.319 12.9139 15.319C12.9195 15.319 12.9251 15.319 12.9307 15.3162C12.9069 15.2044 12.8902 15.0703 12.879 14.9221H12.7868C12.8119 14.9473 12.8259 14.9822 12.8259 15.0213C12.8259 15.0689 12.8021 15.1122 12.763 15.1387H12.7644Z" fill="#007C29"/>
<path fill-rule="evenodd" clip-rule="evenodd" d="M12.8706 14.3184C12.8678 14.3267 12.865 14.3337 12.8608 14.3421C12.851 14.3659 12.8384 14.3868 12.8259 14.4036C12.8231 14.4371 12.8091 14.4665 12.7867 14.4888H12.8692V14.3184H12.8706Z" fill="#007C29"/>
<path fill-rule="evenodd" clip-rule="evenodd" d="M12.6302 14.0794C12.6233 14.1465 12.6093 14.208 12.5897 14.2583C12.6037 14.3114 12.6247 14.3533 12.647 14.3841C12.6652 14.405 12.6861 14.4274 12.7169 14.4274C12.756 14.4274 12.7924 14.3883 12.8203 14.324C12.8496 14.2569 12.8678 14.1647 12.8692 14.0626V14.0403C12.8538 14.0123 12.8399 13.9788 12.8301 13.9411C12.8175 13.9467 12.8035 13.9495 12.7896 13.9495C12.77 13.9495 12.7518 13.9439 12.7351 13.9341C12.7197 13.9774 12.7001 14.0137 12.6778 14.0403C12.6638 14.0585 12.647 14.071 12.6302 14.0808V14.0794Z" fill="#007C29"/>
<path fill-rule="evenodd" clip-rule="evenodd" d="M12.4402 13.8237C12.4528 13.8922 12.4737 13.9509 12.5003 13.9914C12.524 14.0277 12.552 14.0487 12.5799 14.0487C12.6023 14.0487 12.6246 14.0347 12.6442 14.011C12.6652 13.9858 12.6847 13.9481 12.6987 13.9033C12.6875 13.8908 12.6763 13.8768 12.6666 13.86C12.64 13.8153 12.6191 13.7566 12.6065 13.6881C12.5869 13.7021 12.566 13.7091 12.5436 13.7091C12.517 13.7091 12.4933 13.6993 12.4709 13.6812C12.4639 13.7329 12.4542 13.7804 12.4388 13.8223L12.4402 13.8237Z" fill="#007C29"/>
<path fill-rule="evenodd" clip-rule="evenodd" d="M12.2138 13.9663C12.2054 13.9803 12.1956 13.9929 12.1858 14.004V14.0236C12.1858 14.1047 12.1761 14.1787 12.1579 14.243C12.1733 14.2919 12.1928 14.3338 12.2152 14.3618C12.2362 14.3869 12.2585 14.4009 12.2809 14.4009C12.3074 14.4009 12.3298 14.3828 12.3452 14.3632C12.3256 14.3422 12.3074 14.3129 12.2935 14.2793C12.2613 14.2053 12.2403 14.1019 12.2403 13.9887V13.9831C12.2306 13.9789 12.2208 13.9733 12.2124 13.9663H12.2138Z" fill="#007C29"/>
<path fill-rule="evenodd" clip-rule="evenodd" d="M11.8379 14.0234C11.8379 14.131 11.856 14.2275 11.8868 14.2973C11.9147 14.3616 11.9511 14.4007 11.9902 14.4007C12.0293 14.4007 12.0657 14.3616 12.0936 14.2973C12.123 14.2316 12.1411 14.1408 12.1425 14.0402C12.1258 14.0486 12.109 14.0542 12.0908 14.0542C12.0349 14.0542 11.986 14.0081 11.9511 13.934C11.9441 13.9186 11.9371 13.9032 11.9315 13.8865C11.9189 13.9214 11.9036 13.9522 11.8854 13.9759C11.87 13.9969 11.8533 14.0136 11.8351 14.0248L11.8379 14.0234Z" fill="#007C29"/>
<path fill-rule="evenodd" clip-rule="evenodd" d="M11.747 13.5541C11.6869 13.5024 11.6282 13.4479 11.5737 13.3892C11.5849 13.4353 11.6017 13.4744 11.6198 13.5065C11.645 13.5471 11.6743 13.5722 11.7037 13.5722C11.7205 13.5722 11.7344 13.5652 11.747 13.5555V13.5541Z" fill="#007C29"/>
<path fill-rule="evenodd" clip-rule="evenodd" d="M11.8965 13.6701C11.8574 13.6421 11.8183 13.6128 11.7806 13.582C11.7582 13.6016 11.733 13.6142 11.7037 13.6142C11.6757 13.6142 11.6506 13.603 11.6282 13.5834C11.6282 13.5946 11.6282 13.6072 11.6282 13.6198C11.6282 13.7274 11.6464 13.8238 11.6771 13.8937C11.7051 13.9579 11.7414 13.9971 11.7806 13.9971C11.8057 13.9971 11.8309 13.9789 11.8532 13.9482C11.8784 13.9132 11.8993 13.8643 11.9133 13.8042C11.9049 13.7623 11.8993 13.7162 11.8979 13.6687L11.8965 13.6701Z" fill="#007C29"/>
<path fill-rule="evenodd" clip-rule="evenodd" d="M12.1188 13.807C12.0587 13.7748 11.9986 13.7399 11.9413 13.7021C11.9483 13.786 11.9664 13.8601 11.9916 13.916C12.0195 13.9747 12.0545 14.011 12.0922 14.011C12.1327 14.011 12.1649 13.9677 12.1816 13.9355C12.1663 13.916 12.1509 13.8908 12.1383 13.8629C12.1313 13.8461 12.1244 13.8279 12.1188 13.8084V13.807Z" fill="#007C29"/>
<path fill-rule="evenodd" clip-rule="evenodd" d="M12.7993 12.4583C12.8343 12.4974 12.8678 12.5254 12.8972 12.5421C12.9237 12.5561 12.9475 12.5603 12.9656 12.5519C13.0048 12.5337 13.0215 12.4639 13.0146 12.3647C13.0076 12.2584 12.9726 12.1229 12.9139 11.9818C12.9069 11.965 12.9 11.9482 12.8916 11.93C12.886 11.9175 12.8804 11.9049 12.8734 11.8923C12.8497 11.8895 12.8231 11.8755 12.7951 11.8518C12.7742 11.8336 12.7532 11.8099 12.7309 11.7805C12.7351 11.8127 12.7365 11.8434 12.7365 11.87C12.7365 11.9524 12.7183 12.0083 12.6792 12.0237H12.6764C12.6624 12.0293 12.647 12.0293 12.6302 12.0237L12.6344 12.0321C12.6624 12.0824 12.6903 12.1383 12.7155 12.1984C12.7546 12.2892 12.7826 12.38 12.7993 12.4611V12.4583Z" fill="#007C29"/>
<path fill-rule="evenodd" clip-rule="evenodd" d="M12.8761 12.5801C12.8552 12.5689 12.8342 12.5535 12.8119 12.5339C12.8147 12.5549 12.8175 12.5745 12.8189 12.594C12.8272 12.7114 12.8035 12.7981 12.7448 12.8246H12.7406C12.7266 12.8316 12.7126 12.833 12.6987 12.833C12.7266 12.935 12.7685 13.0314 12.8216 13.1209C12.8817 13.2215 12.9572 13.3123 13.0424 13.3906C13.2087 13.5485 13.3555 13.7274 13.4771 13.923C13.5819 14.0935 13.6685 14.2752 13.7342 14.468C13.7468 14.3926 13.7538 14.3171 13.7538 14.2402C13.7538 14.0572 13.716 13.8839 13.6475 13.7274C13.5763 13.5639 13.4729 13.4185 13.3457 13.2969C13.2409 13.1963 13.1473 13.0831 13.0676 12.9616C12.9907 12.8428 12.9265 12.7156 12.8761 12.5814V12.5801Z" fill="#007C29"/>
<path fill-rule="evenodd" clip-rule="evenodd" d="M13.0494 12.4919C13.0383 12.5408 13.0159 12.5743 12.9838 12.5897C12.967 12.5967 12.9488 12.5995 12.9307 12.5967C12.9768 12.7155 13.0369 12.8287 13.1053 12.9349C13.1836 13.0537 13.2744 13.1641 13.3765 13.2619C13.5092 13.3863 13.6154 13.5372 13.6881 13.7063C13.7021 13.7398 13.716 13.7747 13.7286 13.8097C13.7328 13.7747 13.7356 13.7398 13.7356 13.7049C13.7356 13.6098 13.7188 13.519 13.6881 13.4352C13.6559 13.3485 13.6084 13.2675 13.5497 13.199C13.4463 13.083 13.3499 12.9586 13.2605 12.8315C13.185 12.7225 13.1151 12.6079 13.0508 12.4905L13.0494 12.4919Z" fill="#007C29"/>
<path fill-rule="evenodd" clip-rule="evenodd" d="M13.2604 12.3535C13.2604 12.3535 13.2535 12.3577 13.2493 12.3591C13.2143 12.3759 13.1724 12.3689 13.1277 12.3437C13.1025 12.3297 13.076 12.3088 13.048 12.2822C13.0522 12.3088 13.055 12.3353 13.0564 12.3605C13.0564 12.38 13.0578 12.3996 13.0564 12.4178C13.1277 12.5533 13.2073 12.6833 13.294 12.8091C13.382 12.9362 13.4771 13.0578 13.5791 13.1724C13.6154 13.2143 13.6475 13.2604 13.6741 13.3094C13.6559 13.1473 13.6168 12.9921 13.5581 12.8468C13.4854 12.6651 13.3834 12.4988 13.2577 12.3535H13.2604Z" fill="#007C29"/>
<path fill-rule="evenodd" clip-rule="evenodd" d="M13.3289 12.1244C13.3331 12.2111 13.3205 12.2796 13.2912 12.3215C13.3611 12.4025 13.4226 12.4878 13.4785 12.58C13.4799 12.5115 13.4687 12.4403 13.4519 12.3746C13.4337 12.3075 13.4086 12.2474 13.3806 12.1971C13.3639 12.1678 13.3471 12.144 13.3289 12.123V12.1244Z" fill="#007C29"/>
<path fill-rule="evenodd" clip-rule="evenodd" d="M12.6693 11.3306C12.6246 11.2789 12.5743 11.2146 12.524 11.142C12.4933 11.1531 12.4499 11.1364 12.4038 11.0986C12.4094 11.1238 12.4122 11.1461 12.4122 11.1643C12.4122 11.1965 12.4066 11.2216 12.394 11.2384C12.4052 11.2691 12.4136 11.3013 12.422 11.3306C12.4653 11.4117 12.5114 11.4759 12.5534 11.5165C12.5897 11.5514 12.6218 11.5682 12.6428 11.5598C12.6596 11.5528 12.6707 11.5291 12.6763 11.4941C12.6819 11.4522 12.6791 11.3963 12.6693 11.3306Z" fill="#007C29"/>
<path fill-rule="evenodd" clip-rule="evenodd" d="M12.8804 11.4857C12.8454 11.4885 12.7965 11.4591 12.7392 11.4046C12.7336 11.3991 12.7266 11.3935 12.7211 11.3865C12.7252 11.4298 12.7252 11.4689 12.7211 11.4997C12.7155 11.5332 12.7057 11.5598 12.6903 11.5779C12.6987 11.6143 12.7071 11.6492 12.7141 11.6827C12.7532 11.7428 12.7909 11.7889 12.8231 11.8169C12.8496 11.8406 12.8706 11.8504 12.8846 11.8462C12.9041 11.8379 12.9139 11.8001 12.9139 11.74C12.9139 11.6744 12.9013 11.5877 12.8776 11.4857H12.8804Z" fill="#007C29"/>
<path fill-rule="evenodd" clip-rule="evenodd" d="M12.9139 11.29C12.9348 11.3697 12.9362 11.4298 12.9181 11.4619C12.9446 11.5723 12.9586 11.6688 12.9586 11.74C12.9586 11.8085 12.9446 11.8574 12.9153 11.8798C12.9209 11.8896 12.9251 11.8993 12.9293 11.9105C12.9376 11.9273 12.9446 11.9441 12.953 11.9636C12.9879 12.0461 13.0145 12.1271 13.0313 12.2012C13.0718 12.2501 13.1123 12.2864 13.1487 12.3074C13.1808 12.3256 13.2087 12.3311 13.2297 12.3214C13.273 12.3018 13.2912 12.2235 13.2828 12.1159C13.2744 11.9999 13.2381 11.8518 13.1738 11.6995C13.1291 11.5919 13.076 11.4969 13.0229 11.42C12.9865 11.3683 12.9502 11.325 12.9139 11.2928V11.29Z" fill="#007C29"/>
<path fill-rule="evenodd" clip-rule="evenodd" d="M12.2892 11.2439C12.2976 11.276 12.3018 11.3054 12.3032 11.3291C12.3046 11.3739 12.2934 11.406 12.2683 11.42C12.2306 11.4409 12.1747 11.4172 12.1146 11.3599C12.1565 11.4521 12.204 11.5304 12.2487 11.5877C12.3018 11.6534 12.3493 11.6883 12.3787 11.6771C12.4052 11.6659 12.4178 11.617 12.415 11.5444C12.4122 11.4675 12.3927 11.3697 12.3563 11.2621C12.3368 11.2649 12.3144 11.2579 12.2892 11.2453V11.2439Z" fill="#007C29"/>
<path fill-rule="evenodd" clip-rule="evenodd" d="M12.5324 11.9497C12.538 12.0489 12.5198 12.1146 12.4751 12.1314H12.4723C12.4192 12.1495 12.3465 12.0895 12.2683 11.9777L12.2599 11.9651C12.2627 12.007 12.2683 12.0531 12.2795 12.102C12.2962 12.1817 12.3242 12.2683 12.3605 12.3564C12.3675 12.3717 12.3731 12.3871 12.3801 12.4011C12.4388 12.5283 12.5072 12.6345 12.5715 12.7029C12.6316 12.7658 12.6861 12.798 12.7224 12.7826H12.7252C12.7644 12.763 12.7797 12.6932 12.7728 12.5939C12.7658 12.4877 12.7308 12.3522 12.6721 12.211C12.6484 12.1537 12.6204 12.0992 12.5939 12.0503C12.5729 12.014 12.552 11.9791 12.5296 11.9497H12.5324Z" fill="#007C29"/>
<path fill-rule="evenodd" clip-rule="evenodd" d="M12.4583 11.5793C12.4905 11.6856 12.5128 11.7834 12.524 11.8658C12.5562 11.9091 12.5855 11.9427 12.6121 11.9622C12.633 11.9776 12.6498 11.9846 12.6624 11.9818C12.6833 11.9734 12.6931 11.9329 12.6917 11.8686C12.6917 11.8001 12.6777 11.7079 12.6512 11.6031C12.6134 11.6129 12.5701 11.5919 12.524 11.5472C12.5003 11.5234 12.4751 11.4927 12.4485 11.4578C12.4527 11.4871 12.4555 11.5151 12.4569 11.5416C12.4569 11.5542 12.4569 11.5682 12.4569 11.5793H12.4583Z" fill="#007C29"/>
<path fill-rule="evenodd" clip-rule="evenodd" d="M11.9147 11.0888C11.9245 11.174 11.9357 11.2593 11.9511 11.3459C11.9734 11.4731 12.0014 11.6017 12.0363 11.7316C12.1537 12.169 12.3298 12.5617 12.5408 12.8859C12.7225 13.1654 12.9307 13.3946 13.1501 13.5567C13.1068 13.5092 13.062 13.4631 13.0145 13.4184C12.9251 13.3373 12.8482 13.2437 12.7854 13.1389C12.7253 13.0397 12.6805 12.9307 12.6512 12.8161C12.6163 12.8007 12.5799 12.7727 12.5436 12.7336C12.4751 12.6609 12.4038 12.5519 12.3438 12.4192C12.3368 12.4038 12.3298 12.3884 12.3228 12.3731C12.2837 12.2822 12.2557 12.1914 12.2389 12.1103C12.2208 12.0293 12.2138 11.9552 12.2194 11.8951C12.1607 11.7959 12.0992 11.6715 12.0447 11.5318C12.0405 11.5206 12.0447 11.508 12.0573 11.5038C12.0685 11.4997 12.081 11.5038 12.0852 11.5164C12.1551 11.6953 12.2348 11.8476 12.3074 11.9524C12.3731 12.0475 12.429 12.1006 12.4611 12.0908C12.4863 12.081 12.4947 12.0279 12.4905 11.9468C12.4863 11.8728 12.4695 11.7777 12.4402 11.6715C12.4304 11.6939 12.415 11.7093 12.3955 11.7163C12.3452 11.7358 12.2809 11.6953 12.2152 11.6142C12.1551 11.5388 12.0922 11.4284 12.0419 11.2984C12.0377 11.2872 12.0335 11.2747 12.0279 11.2621C11.986 11.2076 11.9483 11.1489 11.9147 11.0874V11.0888Z" fill="#007C29"/>
<path fill-rule="evenodd" clip-rule="evenodd" d="M12.9418 13.586C12.8706 13.5427 12.8007 13.4882 12.7322 13.4211C12.721 13.4966 12.7001 13.5623 12.6735 13.6112C12.6651 13.6266 12.6554 13.6405 12.6456 13.6531C12.6567 13.7286 12.6777 13.7943 12.7043 13.839C12.7294 13.8809 12.7588 13.9061 12.7895 13.9061C12.8244 13.9061 12.8594 13.8725 12.8859 13.8166C12.9139 13.7579 12.9348 13.6769 12.9404 13.586H12.9418Z" fill="#007C29"/>
<path fill-rule="evenodd" clip-rule="evenodd" d="M13.1501 13.6727C13.0942 13.6602 13.0383 13.6392 12.9838 13.6099C12.9754 13.6993 12.9558 13.7776 12.9265 13.8363C12.9097 13.8698 12.8916 13.8963 12.8692 13.9159C12.8832 13.9704 12.9027 14.0165 12.9265 14.0487C12.9489 14.078 12.9726 14.0962 12.9978 14.0962C13.0369 14.0962 13.0732 14.0571 13.1012 13.9928C13.1319 13.9229 13.1501 13.8265 13.1501 13.7189V13.6741V13.6727Z" fill="#007C29"/>
<path fill-rule="evenodd" clip-rule="evenodd" d="M13.2591 13.6867C13.2367 13.6867 13.2157 13.6839 13.1934 13.6812V13.7175C13.1934 13.8307 13.1738 13.9341 13.1417 14.0082C13.1067 14.0878 13.0564 14.1381 12.9977 14.1381C12.967 14.1381 12.939 14.1241 12.9139 14.099V14.4889H13.3233V13.7692C13.3024 13.7412 13.2814 13.7133 13.2604 13.6867H13.2591Z" fill="#007C29"/>
<path fill-rule="evenodd" clip-rule="evenodd" d="M12.2865 12.7658C12.2543 12.7784 12.225 12.8175 12.2026 12.8734C12.1747 12.9419 12.1565 13.0355 12.1565 13.1375C12.1565 13.2395 12.1747 13.3416 12.2054 13.4114C12.2334 13.4757 12.2711 13.5148 12.3088 13.5148C12.3465 13.5148 12.3843 13.4757 12.4122 13.4114C12.443 13.3416 12.4611 13.2451 12.4611 13.1375V13.1054L12.4597 13.0788L12.4458 13.0565C12.3899 12.967 12.3368 12.8692 12.2865 12.7644V12.7658Z" fill="#007C29"/>
<path fill-rule="evenodd" clip-rule="evenodd" d="M12.3829 13.5316C12.3605 13.5498 12.3354 13.561 12.3088 13.561C12.2515 13.561 12.1998 13.5107 12.1649 13.431C12.1593 13.417 12.1537 13.4031 12.1481 13.3877C12.1439 13.4031 12.1411 13.4184 12.1383 13.4338C12.1313 13.4757 12.1271 13.5219 12.1271 13.5708C12.1271 13.6784 12.1467 13.7748 12.176 13.8447C12.204 13.9089 12.2403 13.9481 12.2795 13.9481C12.3144 13.9481 12.3465 13.9159 12.3731 13.8642C12.4024 13.8083 12.422 13.7287 12.429 13.6392C12.4094 13.6113 12.3927 13.575 12.3787 13.533L12.3829 13.5316Z" fill="#007C29"/>
<path fill-rule="evenodd" clip-rule="evenodd" d="M12.5058 13.1487C12.5058 13.2577 12.4849 13.3569 12.4527 13.4296C12.4415 13.4533 12.4304 13.4757 12.4164 13.4939C12.4304 13.547 12.4513 13.5917 12.4737 13.6224C12.4946 13.6504 12.5184 13.6671 12.5436 13.6671C12.5757 13.6671 12.6078 13.6378 12.6344 13.5903C12.6623 13.5386 12.6833 13.4659 12.6917 13.3821C12.6274 13.315 12.5645 13.2367 12.5044 13.1501L12.5058 13.1487Z" fill="#007C29"/>
<path fill-rule="evenodd" clip-rule="evenodd" d="M12.6177 10.7296C12.5087 10.643 12.408 10.5354 12.3242 10.4264C12.3158 10.4152 12.3088 10.404 12.3018 10.3928C12.2487 10.3705 12.1928 10.3621 12.1369 10.3775C12.0531 10.3998 11.9888 10.4697 11.9469 10.5689C11.8938 10.6975 11.891 10.8302 11.9022 10.9672C11.9105 10.9868 11.9203 11.0077 11.9315 11.0287C11.9846 11.1321 12.0559 11.2453 12.1383 11.3235C12.1872 11.3697 12.2264 11.3934 12.2459 11.3822C12.2557 11.3766 12.2599 11.3571 12.2599 11.3305C12.2599 11.297 12.2487 11.2523 12.232 11.2006C12.2278 11.1964 12.2236 11.1922 12.2194 11.1894C12.1369 11.1097 12.0657 11.0021 12.0126 10.9001C12.0028 10.8833 11.9944 10.8666 11.9874 10.8498C11.9818 10.8386 11.9874 10.826 11.9972 10.8205C12.0084 10.8149 12.0209 10.8205 12.0265 10.8302C12.0349 10.847 12.0419 10.8624 12.0503 10.8791C12.102 10.977 12.1705 11.0818 12.2487 11.1572C12.2669 11.1754 12.327 11.2327 12.3563 11.2145C12.3661 11.2076 12.3703 11.1908 12.3689 11.1642C12.3689 11.1307 12.3591 11.0874 12.3424 11.0371C12.2725 10.9602 12.2138 10.868 12.1649 10.7757C12.1551 10.7562 12.1453 10.738 12.1369 10.7184C12.1313 10.7073 12.1369 10.6947 12.1481 10.6891C12.1593 10.6835 12.1719 10.6891 12.1775 10.7003C12.1858 10.7184 12.1942 10.7366 12.204 10.7548C12.2557 10.8554 12.3256 10.9616 12.4053 11.0385C12.4248 11.0566 12.4835 11.1125 12.5129 11.0958C12.531 11.0832 12.5296 11.0385 12.5143 10.9742C12.4877 10.8638 12.4262 10.7464 12.3633 10.6486C12.3494 10.6276 12.3368 10.608 12.3228 10.5899C12.3158 10.5801 12.3172 10.5661 12.327 10.5591C12.3368 10.5521 12.3508 10.5535 12.3577 10.5633C12.3717 10.5815 12.3857 10.6024 12.3997 10.6234C12.4653 10.7254 12.5282 10.847 12.5562 10.963C12.5715 11.0259 12.5715 11.0776 12.5562 11.1083C12.6344 11.2201 12.7085 11.311 12.7686 11.3683C12.8217 11.42 12.8608 11.4451 12.8776 11.4367C12.9027 11.4228 12.8888 11.3389 12.8455 11.2159C12.7993 11.0832 12.7197 10.9099 12.6149 10.724L12.6177 10.7296Z" fill="#007C29"/>
<path fill-rule="evenodd" clip-rule="evenodd" d="M12.858 10.8737C12.8049 10.8527 12.7532 10.8248 12.7015 10.7913H12.6987C12.7825 10.9478 12.8482 11.0931 12.8873 11.2077L12.8915 11.2189C12.9432 11.2538 13.0005 11.3139 13.0564 11.3936C13.1123 11.4732 13.1654 11.571 13.2129 11.6814C13.2702 11.817 13.3066 11.9498 13.3205 12.0602C13.3541 12.0853 13.3862 12.1258 13.4156 12.1775C13.4449 12.2306 13.4715 12.2935 13.491 12.3648C13.5148 12.4528 13.5288 12.5577 13.5134 12.6485C13.5455 12.7072 13.5735 12.7687 13.5986 12.8316C13.6434 12.9433 13.6769 13.0593 13.6993 13.1809C13.7034 12.9112 13.6671 12.6233 13.5889 12.3285C13.4896 11.9567 13.3247 11.5766 13.0928 11.2105C13.055 11.1504 13.0159 11.0931 12.9768 11.0358C12.9376 10.9799 12.8971 10.9254 12.8552 10.8723L12.858 10.8737Z" fill="#007C29"/>
<path fill-rule="evenodd" clip-rule="evenodd" d="M11.3557 9.76416C11.3487 9.77534 11.3418 9.78931 11.3376 9.80189C11.3152 9.86897 11.3334 9.94443 11.3837 9.99474C11.4172 10.0283 11.4647 10.0492 11.5164 10.0492C11.5681 10.0492 11.6157 10.0283 11.6492 9.99474C11.6827 9.9612 11.7037 9.91369 11.7037 9.86198V9.8522C11.6492 9.84801 11.5961 9.84102 11.5444 9.82984C11.4773 9.81587 11.413 9.79351 11.3557 9.76416Z" fill="#007C29"/>
<path fill-rule="evenodd" clip-rule="evenodd" d="M11.2942 9.92767C11.2761 9.95701 11.2663 9.99055 11.2663 10.0255C11.2663 10.1289 11.3501 10.2127 11.4536 10.2127C11.5444 10.2127 11.6226 10.1471 11.638 10.0576C11.6017 10.08 11.5598 10.0926 11.515 10.0926C11.4508 10.0926 11.3935 10.066 11.3515 10.0241C11.325 9.99754 11.304 9.964 11.2928 9.92627L11.2942 9.92767Z" fill="#007C29"/>
<path fill-rule="evenodd" clip-rule="evenodd" d="M11.23 10.0842C11.2048 10.1177 11.1909 10.1568 11.1909 10.1988C11.1909 10.2505 11.2118 10.298 11.2454 10.3315C11.2789 10.3651 11.3264 10.386 11.3781 10.386C11.4703 10.386 11.5486 10.3189 11.564 10.2281C11.5318 10.2463 11.4941 10.256 11.4536 10.256C11.3474 10.256 11.2565 10.1848 11.23 10.0828V10.0842Z" fill="#007C29"/>
<path fill-rule="evenodd" clip-rule="evenodd" d="M11.6953 10.0072C11.7261 10.0268 11.761 10.0379 11.7973 10.0379C11.9007 10.0379 11.9846 9.95408 11.9846 9.85067V9.84229C11.9231 9.85067 11.8602 9.85626 11.7959 9.85626C11.7792 9.85626 11.7624 9.85626 11.7456 9.85626V9.86325C11.7456 9.91915 11.7261 9.96945 11.6939 10.0086L11.6953 10.0072Z" fill="#007C29"/>
<path fill-rule="evenodd" clip-rule="evenodd" d="M11.5765 10.3201C11.6073 10.3397 11.6408 10.3495 11.6772 10.3495C11.7289 10.3495 11.7764 10.3285 11.8099 10.295C11.8435 10.2614 11.8644 10.2139 11.8644 10.1622C11.8644 10.1329 11.8574 10.1049 11.8449 10.0784C11.8295 10.0812 11.8141 10.0826 11.7987 10.0826C11.7582 10.0826 11.7191 10.0728 11.6855 10.0532C11.6786 10.1105 11.6534 10.158 11.6115 10.1972C11.6115 10.2391 11.6003 10.2852 11.5779 10.3215L11.5765 10.3201Z" fill="#007C29"/>
<path fill-rule="evenodd" clip-rule="evenodd" d="M11.8183 10.344C11.7987 10.3594 11.7778 10.3705 11.754 10.3789C11.7512 10.4334 11.7624 10.4782 11.7987 10.5201C11.8239 10.5494 11.8588 10.5704 11.8966 10.5802C11.8993 10.5718 11.9035 10.562 11.9063 10.5536C11.9287 10.5005 11.9552 10.4558 11.9902 10.4209C11.9245 10.4209 11.863 10.3929 11.8183 10.3454V10.344Z" fill="#007C29"/>
<path fill-rule="evenodd" clip-rule="evenodd" d="M11.979 9.99459C12.0069 10.01 12.0391 10.0183 12.0712 10.0183C12.1118 10.0183 12.1523 10.0044 12.1844 9.98062V9.97503C12.1844 9.94708 12.19 9.91913 12.2026 9.89537C12.1802 9.86742 12.1593 9.83947 12.1383 9.81152C12.102 9.82131 12.0656 9.82969 12.0279 9.83668C12.0279 9.84227 12.0279 9.84786 12.0279 9.85205C12.0279 9.90655 12.0097 9.95686 11.9776 9.99599L11.979 9.99459Z" fill="#007C29"/>
<path fill-rule="evenodd" clip-rule="evenodd" d="M12.123 10.0562C12.1062 10.0604 12.0894 10.0618 12.0713 10.0618C12.0279 10.0618 11.9846 10.0492 11.9483 10.0269C11.9301 10.0422 11.9092 10.0548 11.8868 10.0646C11.9008 10.0953 11.9078 10.1275 11.9078 10.161C11.9078 10.2197 11.8854 10.2728 11.8505 10.3147C11.8868 10.3539 11.9371 10.3762 11.9902 10.3762C12.0433 10.3762 12.0894 10.3553 12.123 10.3217C12.1565 10.2882 12.1775 10.2407 12.1775 10.189C12.1775 10.1373 12.1579 10.0925 12.123 10.0562Z" fill="#007C29"/>
<path fill-rule="evenodd" clip-rule="evenodd" d="M12.1928 10.0269C12.1844 10.0324 12.176 10.0366 12.1677 10.0408C12.2026 10.0828 12.2208 10.1345 12.2208 10.189C12.2208 10.2435 12.2026 10.2896 12.1733 10.3287C12.2096 10.3259 12.2445 10.3301 12.2795 10.3399C12.2739 10.3189 12.2697 10.2966 12.2697 10.2728C12.2697 10.2393 12.2767 10.2057 12.2892 10.175C12.2641 10.1442 12.2403 10.1135 12.2194 10.0842C12.2068 10.0646 12.1984 10.0492 12.1914 10.0269H12.1928Z" fill="#007C29"/>
<path fill-rule="evenodd" clip-rule="evenodd" d="M12.5296 14.2891C12.5561 14.2402 12.5757 14.1718 12.5855 14.0935H12.5799C12.5352 14.0935 12.4961 14.0656 12.4639 14.0152C12.4429 13.9831 12.4248 13.9398 12.4108 13.8909C12.3773 13.9524 12.3339 13.9887 12.285 13.9915C12.285 14.0977 12.3046 14.1941 12.3339 14.2626C12.3619 14.3269 12.3982 14.366 12.4374 14.366C12.4709 14.366 12.5016 14.3367 12.5282 14.2877L12.5296 14.2891Z" fill="#007C29"/>
</g>
</g>
<rect x="0.25" y="0.25" width="23.5" height="23.5" rx="11.75" stroke="#E5E3E1" stroke-width="0.5"/>
<defs>
<clipPath id="clip0_16335_9299">
<rect width="24" height="24" rx="12" fill="white"/>
</clipPath>
</defs>
</svg>
