<svg width="24" height="24" viewBox="0 0 24 24" fill="none" xmlns="http://www.w3.org/2000/svg">
<path fill-rule="evenodd" clip-rule="evenodd" d="M7.01948 21.8655C6.26907 22.2998 5.35931 21.6386 5.54073 20.7907L6.82814 14.7746L2.32561 10.6614C1.68831 10.0792 2.03847 9.01731 2.89707 8.9284L9.01056 8.29529L11.5888 2.5883C11.9431 1.8039 13.057 1.8039 13.4114 2.5883L15.9896 8.29529L22.1031 8.9284C22.9617 9.01731 23.3118 10.0792 22.6745 10.6614L18.172 14.7746L19.4594 20.7907C19.6408 21.6386 18.7311 22.2998 17.9807 21.8655L12.5001 18.6938L7.01948 21.8655ZM11.9992 16.6729C12.309 16.4936 12.6911 16.4936 13.001 16.6729L17.0322 19.0059L16.0963 14.6323C16.022 14.285 16.1375 13.9243 16.3997 13.6848L19.6799 10.6882L15.2119 10.2254C14.8579 10.1888 14.5501 9.96678 14.4036 9.64247L12.5001 5.42896L10.5966 9.64247C10.4501 9.96678 10.1422 10.1888 9.78827 10.2254L5.32022 10.6882L8.60047 13.6848C8.8627 13.9243 8.97819 14.285 8.90386 14.6323L7.96797 19.0059L11.9992 16.6729Z" fill="#323232"/>
</svg>
