<svg width="24" height="24" viewBox="0 0 24 24" fill="none" xmlns="http://www.w3.org/2000/svg">
<g clip-path="url(#clip0_10496_9988)">
<path d="M12.6 14H10.325C10.0417 14 9.80833 14.096 9.625 14.288C9.44167 14.4793 9.35 14.7167 9.35 15C9.35 15.2833 9.446 15.521 9.638 15.713C9.82933 15.9043 10.0667 16 10.35 16H15C15.2833 16 15.521 15.9043 15.713 15.713C15.9043 15.521 16 15.2833 16 15L16 10.325C16 10.0417 15.9043 9.80833 15.713 9.625C15.521 9.44167 15.2833 9.35 15 9.35C14.7167 9.35 14.4793 9.446 14.288 9.638C14.096 9.82933 14 10.0667 14 10.35V12.575L9.6 8.175C9.41667 7.99167 9.18333 7.90433 8.9 7.913C8.61667 7.921 8.38333 8.01667 8.2 8.2C8 8.4 7.9 8.63333 7.9 8.9C7.9 9.16667 8 9.4 8.2 9.6L12.6 14ZM2 12C2 10.6167 2.26267 9.31667 2.788 8.1C3.31267 6.88333 4.025 5.825 4.925 4.925C5.825 4.025 6.88333 3.31267 8.1 2.788C9.31667 2.26267 10.6167 2 12 2C13.3833 2 14.6833 2.26267 15.9 2.788C17.1167 3.31267 18.175 4.025 19.075 4.925C19.975 5.825 20.6877 6.88333 21.213 8.1C21.7377 9.31667 22 10.6167 22 12C22 13.3833 21.7377 14.6833 21.213 15.9C20.6877 17.1167 19.975 18.175 19.075 19.075C18.175 19.975 17.1167 20.6873 15.9 21.212C14.6833 21.7373 13.3833 22 12 22C10.6167 22 9.31667 21.7373 8.1 21.212C6.88333 20.6873 5.825 19.975 4.925 19.075C4.025 18.175 3.31267 17.1167 2.788 15.9C2.26267 14.6833 2 13.3833 2 12ZM4 12C4 14.2167 4.779 16.1043 6.337 17.663C7.89567 19.221 9.78333 20 12 20C14.2167 20 16.1043 19.221 17.663 17.663C19.221 16.1043 20 14.2167 20 12C20 9.78333 19.221 7.896 17.663 6.338C16.1043 4.77933 14.2167 4 12 4C9.78333 4 7.89567 4.77933 6.337 6.338C4.779 7.896 4 9.78333 4 12Z" fill="#323232"/>
</g>
<defs>
<clipPath id="clip0_10496_9988">
<rect width="24" height="24" fill="white"/>
</clipPath>
</defs>
</svg>
