<svg width="24" height="24" viewBox="0 0 24 24" fill="none" xmlns="http://www.w3.org/2000/svg">
<path fill-rule="evenodd" clip-rule="evenodd" d="M16.8829 4.07787C16.4383 4.31246 15.5227 4.42178 15.1488 4.03027C14.7433 4.66345 15.5282 5.26496 16.433 4.92811C16.9657 4.73753 17.5195 4.4889 18.1016 4.40596C18.7084 4.32132 19.4387 4.40596 19.6978 4.66883C17.4402 4.80813 14.5421 6.03933 12.3885 7.56148C10.7093 8.7433 9.6651 9.8104 8.40562 11.4914C8.23624 11.7312 8.26273 11.9112 8.56612 11.7525C10.0443 10.9975 11.9511 10.3767 13.5931 9.96564C14.9071 9.63765 16.313 9.33246 17.6502 9.6958C18.3237 9.881 18.9501 10.3202 19.1916 10.994C19.5057 11.8654 19.2676 12.8972 18.2251 13.0577C17.7065 13.1354 17.3661 12.9343 17.1755 12.6661C17.0838 12.5339 17.038 12.5303 16.9657 12.5497L15.6285 12.9608C15.5528 12.9837 15.454 13.0895 15.5105 13.2217C15.6321 13.5287 15.9162 13.9344 16.2354 14.1672C17.0838 14.8004 18.1987 14.8709 19.1687 14.4918C20.5058 13.9714 21.2149 12.5727 21.0174 11.0875C20.8321 9.72936 19.8407 8.60569 18.5655 8.16827C17.2796 7.73085 15.5227 7.92661 14.1117 8.4399C13.7378 8.57931 13.6531 8.63397 13.8665 8.45404C14.8684 7.64094 16.874 6.6972 18.5566 6.21398C19.712 5.8841 20.7757 5.80643 21.0843 6.06223C21.4001 4.1396 19.802 2.88191 17.8494 3.38296C18.5339 2.94723 17.994 1.99652 17.0081 1.99999C15.3765 2.00887 13.8243 2.75316 12.2932 2.91726C11.436 3.01245 10.4216 2.8397 9.74435 2.4904C9.61392 3.838 11.2525 4.82575 12.817 4.50294C13.9124 4.27183 14.9301 3.73743 15.9462 3.5117C16.844 3.30877 17.3078 3.85742 16.8829 4.07787ZM8.28563 19.7569C7.4108 21.0639 6.93634 21.0074 6.14962 20.9211C5.96969 20.8999 5.97318 20.9299 5.89213 21.0622L5.68582 21.3956C5.5958 21.5401 5.59929 21.5597 5.80918 21.6478C7.30147 22.2739 8.66142 22.1646 9.76029 20.503L14.8154 12.8902C15.3218 12.1334 15.5423 11.7278 16.2496 11.6943C16.687 11.6714 16.9974 11.9589 17.0838 12.3204C17.1226 12.4951 17.225 12.5056 17.3272 12.4774L18.6449 12.0858C18.7173 12.0629 18.7701 11.9553 18.7736 11.8319C18.793 11.4403 18.5566 10.8723 18.204 10.5936C17.2003 9.8104 15.6744 10.082 14.5421 10.299C12.7271 10.6518 10.4975 11.3715 8.58375 12.3204C8.0846 12.5727 7.5254 12.8284 7.21504 13.2888C6.68761 14.079 5.20767 16.365 4.64151 17.134C3.68542 18.4181 3.28873 18.3741 2.48788 18.2893C2.36441 18.277 2.35206 18.2929 2.29201 18.3935L2.05384 18.7797C1.97279 18.9137 1.98155 18.9332 2.09098 18.9808C3.60965 19.6458 4.93794 19.6405 6.08261 17.9225L8.48149 14.3225C8.83596 13.7862 9.42334 13.4705 9.86962 13.3153L6.46188 18.4358C5.59053 19.7428 5.13011 19.6846 4.34518 19.5999C4.16705 19.5806 4.16705 19.6105 4.08949 19.734L3.8778 20.0779C3.80899 20.1855 3.77195 20.2243 3.96422 20.3037C5.59053 20.9863 6.87292 20.7906 7.93643 19.1818L12.1327 12.8284C12.3549 12.4951 12.8824 12.227 13.3833 12.1212L8.28563 19.7569Z" fill="#C51724"/>
</svg>
