<svg width="48" height="48" viewBox="0 0 48 48" fill="none" xmlns="http://www.w3.org/2000/svg">
<path d="M23.9198 41.1599C29.5098 41.1599 34.0398 36.6299 34.0398 31.0399C34.0398 25.4499 29.5098 20.9199 23.9198 20.9199C18.3298 20.9199 13.7998 25.4499 13.7998 31.0399C13.7998 36.6299 18.3298 41.1599 23.9198 41.1599Z" fill="#DF0000"/>
<path fill-rule="evenodd" clip-rule="evenodd" d="M30.1899 36.7604C30.1899 36.7604 30.2099 36.7704 30.2199 36.7704C30.2399 36.7704 30.2499 36.7704 30.2699 36.7504C30.2899 36.7304 30.2899 36.6804 30.2699 36.6604C29.0099 35.2704 27.4499 34.1504 25.7199 33.4304L25.1899 33.2104C24.9099 33.0904 24.7299 32.8104 24.7299 32.4904C24.7599 31.3004 27.4399 31.5504 27.7199 30.9804L27.7599 30.8804C27.2099 30.3804 26.5599 30.0204 25.8399 29.8004C25.8299 29.8304 25.8099 29.9704 25.9599 30.2204C26.1199 30.4904 25.7899 30.9204 25.2999 30.4504L25.2599 30.4204C21.7099 27.0304 20.0699 29.2704 17.6599 25.3204C17.6399 25.2904 17.6099 25.2804 17.5699 25.3004C17.5399 25.3204 17.5299 25.3604 17.5399 25.3904C19.4399 30.1704 23.3299 29.1604 23.7899 33.6204C23.8099 33.7904 23.9299 33.9204 24.0899 33.9404C26.2499 34.3004 28.3499 35.2304 30.1799 36.7604H30.1899Z" fill="white"/>
<path d="M33.3504 19.1904L31.6404 13.8904C31.4704 13.3804 31.1204 12.9904 30.6804 12.7304V8.55035C30.6804 4.86035 27.6804 1.86035 23.9904 1.86035C20.3004 1.86035 17.3004 4.86035 17.3004 8.55035V12.7304C16.8604 12.9904 16.5104 13.3804 16.3404 13.8904L14.6404 19.1804C10.9904 22.0604 8.90039 26.3604 8.90039 31.0204C8.90039 39.3404 15.6704 46.1104 24.0004 46.1104C32.3304 46.1104 39.1004 39.3404 39.1004 31.0204C39.1004 26.3604 37.0104 22.0604 33.3604 19.1804L33.3504 19.1904ZM24.0004 3.87035C26.5804 3.87035 28.6904 5.97035 28.6904 8.56035V12.6504C28.3104 12.8304 27.9904 13.1304 27.7604 13.5204L26.2804 16.1304C24.7304 15.9004 23.2604 15.9004 21.7104 16.1304L20.2404 13.5204C20.0204 13.1304 19.6904 12.8404 19.3104 12.6504V8.56035C19.3104 5.98035 21.4104 3.87035 24.0004 3.87035ZM24.0004 44.1203C16.7804 44.1203 10.9004 38.2504 10.9004 31.0304C10.9004 26.9004 12.8004 23.0904 16.1004 20.5904C16.2604 20.4704 16.3904 20.2904 16.4504 20.1004L18.2504 14.5204C18.2504 14.5204 18.2804 14.4404 18.3604 14.4304C18.3604 14.4304 18.3704 14.4304 18.3804 14.4304C18.4504 14.4304 18.4804 14.4804 18.4904 14.4904L20.3004 17.7204C20.5104 18.1004 20.9404 18.3004 21.3604 18.2104C23.1704 17.8603 24.8204 17.8603 26.6004 18.2104C27.0204 18.2903 27.4504 18.0904 27.6604 17.7204L29.4804 14.4904C29.4804 14.4904 29.5204 14.4104 29.6104 14.4204C29.7004 14.4204 29.7204 14.4804 29.7204 14.5004L31.5204 20.0904C31.5804 20.2904 31.7004 20.4604 31.8704 20.5804C35.1804 23.0804 37.0704 26.8904 37.0704 31.0204C37.0704 38.2404 31.2004 44.1104 23.9704 44.1104L24.0004 44.1203Z" fill="#323232"/>
</svg>
