<svg width="48" height="48" viewBox="0 0 48 48" fill="none" xmlns="http://www.w3.org/2000/svg">
<path d="M24 46.25C11.73 46.25 1.75 36.27 1.75 24C1.75 11.73 11.73 1.75 24 1.75C36.27 1.75 46.25 11.73 46.25 24C46.25 36.27 36.27 46.25 24 46.25ZM24 3.75C12.83 3.75 3.75 12.83 3.75 24C3.75 35.17 12.83 44.25 24 44.25C35.17 44.25 44.25 35.17 44.25 24C44.25 12.83 35.17 3.75 24 3.75Z" fill="#323232"/>
<path d="M24.4011 5.91039C24.1911 5.91039 24.0211 6.06039 23.9811 6.26039C23.9511 6.46039 24.0711 6.66039 24.2711 6.72039C24.3411 6.74039 31.4411 9.05039 35.6811 14.1104C40.0311 19.3104 41.1011 25.4204 41.1111 25.4804C41.1411 25.6804 41.3211 25.8304 41.5211 25.8304C41.7211 25.8304 41.9011 25.6904 41.9311 25.4904C42.0711 24.7504 42.1411 23.9304 42.1411 23.0504C42.1411 13.6004 34.1811 5.90039 24.3911 5.90039L24.4011 5.91039Z" fill="#8DE2E0"/>
<path d="M24.0184 13.1299C25.1884 13.1299 26.1084 14.0499 26.1084 15.2199C26.1084 16.3899 25.1884 17.3099 24.0184 17.3099C22.8484 17.3099 21.8984 16.3899 21.8984 15.2199C21.8984 14.0499 22.8184 13.1299 24.0184 13.1299ZM25.8584 19.2699V34.3099H22.1484V19.2699H25.8584Z" fill="#DF0000"/>
</svg>
