<svg width="48" height="48" viewBox="0 0 48 48" fill="none" xmlns="http://www.w3.org/2000/svg">
<path d="M24.8516 30.7202C24.3016 30.7202 23.8516 30.2702 23.8516 29.7202V27.7402C23.8516 27.1902 24.3016 26.7402 24.8516 26.7402C25.4016 26.7402 25.8516 27.1902 25.8516 27.7402V29.7202C25.8516 30.2702 25.4016 30.7202 24.8516 30.7202Z" fill="#323232"/>
<path d="M14.9219 30.7204C14.3719 30.7204 13.9219 30.2704 13.9219 29.7204V27.8604C13.9219 27.3104 14.3719 26.8604 14.9219 26.8604C15.4719 26.8604 15.9219 27.3104 15.9219 27.8604V29.7204C15.9219 30.2704 15.4719 30.7204 14.9219 30.7204Z" fill="#323232"/>
<path d="M19.961 30.65C17.501 30.65 15.781 29.51 15.681 29.44C13.411 28.11 11.711 25.89 10.991 23.32C9.15102 22.89 8.04102 20.96 8.04102 18.06C8.04102 16.98 8.42102 15.51 9.26102 14.67C9.46102 14.47 9.67102 14.32 9.90102 14.2V12.42C9.90102 5.76004 15.081 2.79004 20.211 2.79004C24.681 2.79004 29.901 5.33004 29.901 12.48V14.11C31.761 14.72 31.761 17.06 31.761 18.02C31.761 21.83 30.131 22.93 28.921 23.23C28.141 25.79 26.491 27.98 24.231 29.45C22.691 30.35 21.231 30.65 19.971 30.65H19.961ZM10.891 15.96C10.891 15.96 10.791 15.96 10.671 16.08C10.311 16.44 10.031 17.3 10.031 18.05C10.031 19.06 10.201 21.4 11.781 21.4C12.251 21.4 12.661 21.73 12.761 22.2C13.251 24.52 14.701 26.54 16.741 27.75C16.911 27.86 19.791 29.72 23.171 27.75C25.161 26.46 26.581 24.44 27.151 22.09C27.261 21.65 27.651 21.33 28.111 21.32C29.471 21.3 29.751 19.51 29.751 18.02C29.751 16.16 29.491 15.96 28.891 15.96C28.341 15.96 27.891 15.51 27.891 14.96V12.48C27.891 5.35004 22.011 4.79004 20.201 4.79004C16.371 4.79004 11.891 6.79004 11.891 12.42V14.96C11.891 15.23 11.781 15.48 11.601 15.67C11.411 15.86 11.161 15.96 10.891 15.96Z" fill="#323232"/>
<path d="M24.6908 39.92H5.13084C4.60084 39.92 4.16084 39.5 4.13084 38.97C4.03084 36.97 5.18084 32.78 10.2508 31.26L12.7008 30.48C13.1708 30.33 13.6808 30.55 13.9008 30.99C13.9508 31.08 15.2908 33.54 19.8908 33.54C23.4208 33.54 25.0208 31.81 25.0908 31.74C25.4608 31.33 26.0908 31.29 26.5008 31.66C26.9108 32.02 26.9608 32.65 26.6008 33.06C26.5108 33.16 24.3908 35.55 19.9008 35.55C15.4108 35.55 13.4808 33.69 12.6108 32.62L10.8508 33.18C7.41084 34.22 6.48084 36.59 6.23084 37.93H24.7008C25.2508 37.93 25.7008 38.38 25.7008 38.93C25.7008 39.48 25.2508 39.93 24.7008 39.93L24.6908 39.92Z" fill="#323232"/>
<path d="M35.0316 45.16C39.3671 45.16 42.8816 41.6454 42.8816 37.31C42.8816 32.9745 39.3671 29.46 35.0316 29.46C30.6962 29.46 27.1816 32.9745 27.1816 37.31C27.1816 41.6454 30.6962 45.16 35.0316 45.16Z" fill="#DF0000"/>
<path d="M36.8523 37.9602H33.0523C32.6923 37.9602 32.4023 37.6702 32.4023 37.3102C32.4023 36.9502 32.6923 36.6602 33.0523 36.6602H36.8523C37.2123 36.6602 37.5023 36.9502 37.5023 37.3102C37.5023 37.6702 37.2123 37.9602 36.8523 37.9602Z" fill="white"/>
<path d="M33.0918 40.6502H32.2618C30.6518 40.6502 29.3418 39.1502 29.3418 37.3102C29.3418 35.4702 30.6518 33.9702 32.2618 33.9702H33.0918C33.4518 33.9702 33.7418 34.2602 33.7418 34.6202C33.7418 34.9802 33.4518 35.2702 33.0918 35.2702H32.2618C31.3718 35.2702 30.6418 36.1902 30.6418 37.3102C30.6418 38.4302 31.3618 39.3502 32.2618 39.3502H33.0918C33.4518 39.3502 33.7418 39.6402 33.7418 40.0002C33.7418 40.3602 33.4518 40.6502 33.0918 40.6502Z" fill="white"/>
<path d="M37.8023 40.6502H36.9723C36.6123 40.6502 36.3223 40.3602 36.3223 40.0002C36.3223 39.6402 36.6123 39.3502 36.9723 39.3502H37.8023C38.6923 39.3502 39.4223 38.4302 39.4223 37.3102C39.4223 36.1902 38.7023 35.2702 37.8023 35.2702H36.9723C36.6123 35.2702 36.3223 34.9802 36.3223 34.6202C36.3223 34.2602 36.6123 33.9702 36.9723 33.9702H37.8023C39.4123 33.9702 40.7223 35.4702 40.7223 37.3102C40.7223 39.1502 39.4123 40.6502 37.8023 40.6502Z" fill="white"/>
<path d="M28.8806 14.7298C28.3606 14.7298 27.9206 14.3198 27.8806 13.7998C27.8506 13.3898 27.4806 9.76979 23.9206 9.76979C22.0206 9.76979 20.8806 10.6098 19.4406 11.6798C17.6106 13.0398 15.3206 14.7398 10.8906 14.7398C10.3406 14.7398 9.89062 14.2898 9.89062 13.7398C9.89062 13.1898 10.3406 12.7398 10.8906 12.7398C14.6606 12.7398 16.4806 11.3898 18.2506 10.0798C19.7806 8.94978 21.3606 7.77979 23.9206 7.77979C28.3206 7.77979 29.7406 11.6398 29.8806 13.6798C29.9206 14.2298 29.5006 14.7098 28.9506 14.7398C28.9306 14.7398 28.9106 14.7398 28.8806 14.7398V14.7298Z" fill="#323232"/>
</svg>
