<svg width="48" height="48" viewBox="0 0 48 48" fill="none" xmlns="http://www.w3.org/2000/svg">
<path d="M18.1195 30.8499C18.1195 30.8499 18.0995 30.8599 18.0795 30.8599C18.0595 30.8599 18.0595 30.8599 18.0495 30.8499C16.5195 29.6299 14.7695 28.8799 12.9695 28.5999C12.8395 28.5799 12.7395 28.4799 12.7295 28.3499C12.3495 24.7799 9.09953 25.5899 7.51953 21.7599C7.51953 21.7399 7.51953 21.7099 7.53953 21.6899C7.56953 21.6699 7.59953 21.6899 7.61953 21.7099C9.62953 24.8699 10.9995 23.0699 13.9595 25.7899L13.9895 25.8199C14.3995 26.1899 14.6795 25.8499 14.5395 25.6299C14.4195 25.4299 14.4295 25.3199 14.4395 25.2999C15.0395 25.4699 15.5895 25.7599 16.0495 26.1599L16.0095 26.2399C15.7795 26.6899 13.5495 26.4999 13.5195 27.4499C13.5195 27.7099 13.6695 27.9299 13.8995 28.0299L14.3395 28.2099C15.7895 28.7899 17.0795 29.6799 18.1395 30.7899C18.1595 30.8099 18.1595 30.8499 18.1395 30.8699L18.1195 30.8499Z" fill="#DF0000"/>
<path d="M43.96 13.1202L33.56 10.2402C33.56 10.2402 33.54 10.2402 33.52 10.2402V6.85016C33.52 5.92016 32.76 5.16016 31.83 5.16016H4.44C3.51 5.16016 2.75 5.92016 2.75 6.85016V34.2602C2.75 35.1902 3.51 35.9402 4.44 35.9402H10.53L35.75 42.7802C35.91 42.8202 36.06 42.8402 36.22 42.8402C36.52 42.8402 36.81 42.7602 37.08 42.6102C37.49 42.3802 37.78 42.0002 37.91 41.5502L45.19 15.2702C45.45 14.3402 44.9 13.3702 43.97 13.1102L43.96 13.1202ZM4.75 7.16016H31.53V33.9402H4.75V7.16016ZM36.04 40.7902L18.16 35.9402H31.84C32.77 35.9402 33.53 35.1802 33.53 34.2602V12.3002L43.19 14.9802L36.04 40.7902Z" fill="#323232"/>
</svg>
