<svg width="48" height="48" viewBox="0 0 48 48" fill="none" xmlns="http://www.w3.org/2000/svg">
<path d="M19.62 38.88H3.75C3.2 38.88 2.75 38.43 2.75 37.88V6.25C2.75 5.7 3.2 5.25 3.75 5.25H43.5C44.05 5.25 44.5 5.7 44.5 6.25V19.54C44.5 20.09 44.05 20.54 43.5 20.54C42.95 20.54 42.5 20.09 42.5 19.54V15.38H4.75V36.87H19.62C20.17 36.87 20.62 37.32 20.62 37.87C20.62 38.42 20.17 38.87 19.62 38.87V38.88ZM4.75 13.38H42.5V7.25H4.75V13.38Z" fill="#323232"/>
<path d="M32.6909 17.6396C25.7709 17.6396 20.1309 23.2696 20.1309 30.1996C20.1309 37.1297 25.7609 42.7596 32.6909 42.7596C39.6209 42.7596 45.2509 37.1297 45.2509 30.1996C45.2509 23.2696 39.6209 17.6396 32.6909 17.6396Z" fill="#DF0000"/>
<path d="M38.6905 31.2304C38.3005 30.8404 37.6705 30.8404 37.2805 31.2304L33.7005 34.8104V23.1504C33.7005 22.6004 33.2505 22.1504 32.7005 22.1504C32.1505 22.1504 31.7005 22.6004 31.7005 23.1504V34.8104L28.1205 31.2304C27.7305 30.8404 27.1005 30.8404 26.7105 31.2304C26.3205 31.6204 26.3205 32.2504 26.7105 32.6404L32.0005 37.9304C32.1905 38.1204 32.4405 38.2204 32.7105 38.2204C32.9805 38.2204 33.2305 38.1104 33.4205 37.9304L38.7105 32.6404C39.1005 32.2504 39.1005 31.6204 38.7105 31.2304H38.6905Z" fill="white"/>
<path d="M7.87063 11.7998C8.68801 11.7998 9.35063 11.1372 9.35063 10.3198C9.35063 9.50246 8.68801 8.83984 7.87063 8.83984C7.05324 8.83984 6.39062 9.50246 6.39062 10.3198C6.39062 11.1372 7.05324 11.7998 7.87063 11.7998Z" fill="#DF0000"/>
<path d="M12.5991 11.7998C13.4165 11.7998 14.0791 11.1372 14.0791 10.3198C14.0791 9.50246 13.4165 8.83984 12.5991 8.83984C11.7818 8.83984 11.1191 9.50246 11.1191 10.3198C11.1191 11.1372 11.7818 11.7998 12.5991 11.7998Z" fill="#323232"/>
<path d="M17.3101 11.7998C18.1275 11.7998 18.7901 11.1372 18.7901 10.3198C18.7901 9.50246 18.1275 8.83984 17.3101 8.83984C16.4927 8.83984 15.8301 9.50246 15.8301 10.3198C15.8301 11.1372 16.4927 11.7998 17.3101 11.7998Z" fill="#323232"/>
</svg>
