<svg width="48" height="48" viewBox="0 0 48 48" fill="none" xmlns="http://www.w3.org/2000/svg">
<path d="M38.1401 43.3904C35.0401 43.3904 34.9601 40.6704 34.9201 39.2104L34.9001 38.7404C34.8901 38.4704 34.9901 38.2004 35.1801 38.0004C35.3701 37.8004 35.6301 37.6904 35.9001 37.6904H39.9901C40.4901 37.6904 40.9101 38.0604 40.9801 38.5504C41.0901 39.3404 41.2301 41.3004 40.2001 42.4904C39.6901 43.0704 38.9801 43.3804 38.1401 43.3804V43.3904ZM36.9401 39.7004C37.0201 41.1404 37.2501 41.3904 38.1401 41.3904C38.4701 41.3904 38.6001 41.2904 38.6901 41.1804C38.9201 40.9104 39.0501 40.3604 39.0601 39.6904H36.9401V39.7004Z" fill="#323232"/>
<path d="M44.2603 18.92C44.0503 18.68 43.8403 18.42 43.6403 18.16C43.1203 17.5 42.5803 16.82 41.8603 16.29C39.3803 14.47 37.9803 12.06 37.4503 8.71002C37.3103 7.81002 36.9503 7.00002 36.6103 6.22002C36.4703 5.90002 36.3303 5.58002 36.2003 5.25002C36.0703 4.90002 35.7403 4.65002 35.3703 4.61002C34.9903 4.57002 34.6303 4.75002 34.4203 5.06002C34.0003 5.72002 33.8903 6.30002 33.8003 6.76002L33.7803 6.87002C33.7103 7.25002 33.6403 7.63002 33.5703 8.01002C33.3903 9.02002 33.2003 10.06 32.9503 11.05C32.8203 11.57 32.6003 11.83 32.2903 11.83C30.3003 11.86 28.6503 11.42 27.2703 10.49C26.8903 10.23 26.7603 9.70002 26.9703 9.26002C27.1603 8.86002 27.3403 8.45002 27.5403 7.99002L27.8303 7.33002C27.9703 7.02002 27.9403 6.66002 27.7603 6.38002C27.5803 6.10002 27.2603 5.92002 26.9203 5.92002H25.5403C24.5703 5.92002 23.6703 5.94002 22.7703 5.92002C20.6203 5.85002 19.9503 7.15002 19.7703 8.25002C19.7303 8.48002 19.5903 8.77002 19.4403 9.07002L19.3403 9.28002C19.2703 9.43002 19.1403 9.49002 19.0803 9.51002C19.0103 9.53002 18.8803 9.56002 18.7303 9.49002C18.4103 9.33002 18.1003 9.15002 17.7303 8.93002C16.8303 8.40002 15.6603 8.67002 15.0603 9.54002L14.5803 10.23C13.9303 11.17 13.2703 12.13 12.7103 13.16C12.4503 13.65 12.6303 14.25 13.1103 14.51C13.6003 14.77 14.2003 14.59 14.4603 14.11C14.9603 13.18 15.5703 12.3 16.2203 11.36L16.7103 10.65C17.1203 10.89 17.4603 11.09 17.8103 11.27C18.4003 11.57 19.0803 11.62 19.7003 11.4C20.3303 11.19 20.8403 10.74 21.1203 10.14L21.2203 9.94002C21.4203 9.54002 21.6403 9.09002 21.7303 8.56002C21.8103 8.10002 21.8703 7.89002 22.7003 7.91002C23.5703 7.93002 24.4303 7.93002 25.3603 7.92002C25.2903 8.08002 25.2203 8.24002 25.1403 8.39002C24.5003 9.73002 24.9203 11.31 26.1303 12.13C27.8403 13.29 29.9003 13.85 32.3003 13.82C33.5503 13.8 34.5103 12.94 34.8703 11.53C35.0903 10.64 35.2703 9.74002 35.4303 8.86002C35.4303 8.91002 35.4503 8.95002 35.4503 9.00002C36.0503 12.85 37.7603 15.76 40.6503 17.88C41.1503 18.25 41.5903 18.8 42.0503 19.38C42.2803 19.67 42.5003 19.95 42.7403 20.22C44.2203 21.91 44.6003 23.86 43.8703 26.02C43.5003 27.12 43.0003 28.17 42.4803 29.28C42.2503 29.78 42.0103 30.27 41.7903 30.77L40.2103 34.31C39.8703 34.4 39.4503 34.51 39.0503 34.57C39.0103 34.57 38.9603 34.57 38.9203 34.57C38.8603 34.57 38.8103 34.57 38.8103 34.57C37.5803 33.64 36.1903 33.66 35.0003 34.64C34.6503 34.93 34.5003 34.95 34.1003 34.58C33.9303 34.42 33.7503 34.25 33.5703 34.09C32.6403 33.25 31.8303 32.52 31.6103 31.37C31.5003 30.81 31.1903 30.36 30.7303 30.09C30.1803 29.77 29.4803 29.73 28.7303 29.97C28.5503 30.03 28.3803 30.11 28.2203 30.19L28.1503 30.13C27.7203 29.73 27.3003 29.35 26.8603 28.97C24.7403 27.15 22.3603 26.73 19.9703 27.74C18.5703 28.34 17.2403 29.1 15.9603 29.84L15.2803 30.23C14.6303 30.6 14.0003 31 13.3703 31.39C12.6103 31.87 11.8203 32.36 11.0403 32.79C10.8703 32.88 10.6503 32.96 10.3003 33.09C10.2803 31.92 9.72032 31.08 9.24032 30.34C9.16032 30.21 9.07032 30.08 8.99032 29.96C7.26032 27.2 6.30032 24.95 5.89032 22.68C5.55032 20.81 5.78032 20.41 7.57032 19.82L7.74032 19.76C7.99032 19.68 8.23032 19.59 8.48032 19.55C9.51032 19.36 10.4103 18.97 11.2203 18.4C11.2003 17.58 11.0903 16.81 10.8703 16.1C10.8603 16.11 10.8403 16.12 10.8303 16.13C10.0703 16.92 9.21032 17.39 8.11032 17.59C7.74032 17.66 7.40032 17.77 7.10032 17.87L6.94032 17.92C4.18032 18.83 3.39032 20.17 3.92032 23.04C4.39032 25.57 5.43032 28.03 7.30032 31.02C7.39032 31.16 7.48032 31.3 7.58032 31.45C7.97032 32.04 8.30032 32.54 8.31032 33.14C8.32032 33.73 8.60032 34.27 9.07032 34.64C9.56032 35.02 10.2003 35.15 10.8003 35C11.1603 34.91 11.5903 34.79 12.0003 34.56C12.8403 34.1 13.6503 33.59 14.4403 33.1C15.0503 32.72 15.6603 32.33 16.2903 31.98L16.9703 31.59C18.2003 30.88 19.4703 30.14 20.7503 29.6C22.4103 28.9 24.0303 29.2 25.5503 30.51C25.9703 30.87 26.3803 31.24 26.7903 31.62L27.3903 32.17C27.7003 32.45 28.1503 32.51 28.5203 32.32C28.6403 32.26 28.7503 32.2 28.8703 32.13C29.0503 32.03 29.2103 31.94 29.3503 31.89C29.4903 31.84 29.5903 31.81 29.6603 31.83C30.0303 33.6 31.2003 34.65 32.2303 35.59C32.4003 35.74 32.5703 35.89 32.7303 36.05C33.3103 36.59 33.9403 36.86 34.5703 36.86C35.1403 36.86 35.7203 36.64 36.2603 36.2C36.7503 35.8 37.1003 35.79 37.6003 36.17C38.1103 36.56 38.8303 36.62 39.3403 36.54C39.8903 36.46 40.4203 36.32 40.8103 36.21L41.1503 36.12C41.4503 36.05 41.7003 35.84 41.8303 35.55L43.6103 31.56C43.8303 31.07 44.0503 30.59 44.2803 30.1C44.8103 28.99 45.3503 27.83 45.7603 26.63C46.7203 23.79 46.2003 21.1 44.2403 18.87L44.2603 18.92Z" fill="#323232"/>
<path d="M40.0504 29.5304C40.8456 29.5304 41.4904 28.8857 41.4904 28.0904C41.4904 27.2951 40.8456 26.6504 40.0504 26.6504C39.2551 26.6504 38.6104 27.2951 38.6104 28.0904C38.6104 28.8857 39.2551 29.5304 40.0504 29.5304Z" fill="#DF0000"/>
<path d="M9.9898 27.5196C10.7851 27.5196 11.4298 26.8749 11.4298 26.0796C11.4298 25.2844 10.7851 24.6396 9.9898 24.6396C9.19451 24.6396 8.5498 25.2844 8.5498 26.0796C8.5498 26.8749 9.19451 27.5196 9.9898 27.5196Z" fill="#DF0000"/>
<path d="M39.4004 25.6397C39.0604 25.6397 38.7204 25.4597 38.5404 25.1497C38.5004 25.0797 34.4804 18.4097 27.5404 17.3797C22.7204 16.6697 17.5804 18.7897 12.2504 23.6897C11.9204 23.9897 11.4304 24.0397 11.0404 23.7997C10.6604 23.5597 10.4804 23.0997 10.6104 22.6697C11.6204 19.2597 11.4204 16.4097 10.0204 14.2197C7.67044 10.5497 2.66044 9.77974 2.61044 9.76974C2.06044 9.68974 1.69044 9.17974 1.76044 8.63974C1.84044 8.08974 2.35044 7.71974 2.89044 7.78974C3.13044 7.81974 8.84044 8.67974 11.6904 13.1297C12.9904 15.1497 13.4704 17.5497 13.1504 20.2997C18.1704 16.3497 23.1004 14.6997 27.8504 15.4097C35.7404 16.5897 40.0804 23.8297 40.2604 24.1397C40.5404 24.6197 40.3804 25.2297 39.9104 25.5097C39.7504 25.5997 39.5804 25.6497 39.4004 25.6497V25.6397Z" fill="#8DE2E0"/>
</svg>
