<svg width="24" height="24" viewBox="0 0 24 24" fill="none" xmlns="http://www.w3.org/2000/svg">
<path d="M13.4863 12.2368C14.6437 11.2895 15.5474 10.25 16.1974 9.11842C16.8474 7.98684 17.1724 6.85965 17.1724 5.73684C17.1724 5.17544 17.0892 4.76316 16.9227 4.5C16.7562 4.23684 16.5303 4.10526 16.2449 4.10526C15.4998 4.10526 14.8419 4.80263 14.2711 6.19737C13.7004 7.59211 13.415 9.16667 13.415 10.9211C13.415 11.1667 13.4189 11.3991 13.4269 11.6184C13.4348 11.8377 13.4546 12.0439 13.4863 12.2368ZM2.95125 22V19.8947H4.85375V22H2.95125ZM6.75624 22V19.8947H8.65874V22H6.75624ZM10.5612 22V19.8947H12.4637V22H10.5612ZM14.3662 22V19.8947H16.2687V22H14.3662ZM18.1712 22V19.8947H20.0737V22H18.1712ZM3.33175 17.7895L2 16.3158L3.522 14.6316L2 12.9474L3.33175 11.4737L4.85375 13.1579L6.37574 11.4737L7.70749 12.9474L6.18549 14.6316L7.70749 16.3158L6.37574 17.7895L4.85375 16.1053L3.33175 17.7895ZM14.7943 16.7368C14.3187 16.7368 13.8827 16.636 13.4863 16.4342C13.09 16.2325 12.7491 15.9035 12.4637 15.4474C12.0674 15.693 11.6591 15.9123 11.239 16.1053C10.8189 16.2982 10.3868 16.4912 9.94292 16.6842L9.27705 14.7105C9.72097 14.5351 10.1451 14.3465 10.5493 14.1447C10.9536 13.943 11.346 13.7281 11.7265 13.5C11.6472 13.114 11.5878 12.693 11.5482 12.2368C11.5085 11.7807 11.4887 11.2895 11.4887 10.7632C11.4887 8.23684 11.9405 6.14474 12.8442 4.48684C13.7479 2.82895 14.8815 2 16.2449 2C17.0694 2 17.7432 2.33772 18.2663 3.01316C18.7895 3.6886 19.0511 4.63158 19.0511 5.84211C19.0511 7.35088 18.6191 8.84211 17.7551 10.3158C16.891 11.7895 15.6901 13.114 14.1522 14.2895C14.2632 14.4123 14.3781 14.5044 14.497 14.5658C14.6159 14.6272 14.7388 14.6579 14.8656 14.6579C15.2778 14.6579 15.7574 14.3684 16.3044 13.7895C16.8514 13.2105 17.3468 12.4474 17.7907 11.5L19.5268 12.3947C19.4158 12.693 19.3286 13.0526 19.2652 13.4737C19.2017 13.8947 19.2097 14.2632 19.2889 14.5789C19.4475 14.4912 19.6338 14.3421 19.8478 14.1316C20.0618 13.9211 20.2798 13.6579 20.5018 13.3421L22 14.6316C21.5878 15.2632 21.1122 15.7719 20.5731 16.1579C20.0341 16.5439 19.5347 16.7368 19.0749 16.7368C18.742 16.7368 18.4447 16.6272 18.1831 16.4079C17.9215 16.1886 17.7035 15.8509 17.5291 15.3947C17.0852 15.8333 16.6334 16.1667 16.1736 16.3947C15.7138 16.6228 15.2541 16.7368 14.7943 16.7368Z" fill="#323232"/>
</svg>
