<svg width="24" height="24" viewBox="0 0 24 24" fill="none" xmlns="http://www.w3.org/2000/svg">
<g clip-path="url(#clip0_16335_6215)">
<path d="M23.6733 14.7838C25.2104 8.3371 21.2303 1.865 14.7835 0.327986C8.3368 -1.20903 1.8647 2.77108 0.32769 9.2178C-1.20933 15.6645 2.77078 22.1366 9.2175 23.6736C15.6642 25.2107 22.1363 21.2305 23.6733 14.7838Z" fill="#FF0000"/>
<mask id="mask0_16335_6215" style="mask-type:luminance" maskUnits="userSpaceOnUse" x="-1" y="-1" width="26" height="26">
<path d="M23.6733 14.7838C25.2104 8.3371 21.2303 1.865 14.7835 0.327986C8.3368 -1.20903 1.8647 2.77108 0.32769 9.2178C-1.20933 15.6645 2.77078 22.1366 9.2175 23.6736C15.6642 25.2107 22.1363 21.2305 23.6733 14.7838Z" fill="white"/>
</mask>
<g mask="url(#mask0_16335_6215)">
<path d="M25.8544 2.59784H-2.35052V21.4007H25.8544V2.59784Z" fill="#FF0000"/>
<path d="M21.1534 7.29889H2.35052V16.701H21.1534V7.29889Z" fill="#007C29"/>
<path fill-rule="evenodd" clip-rule="evenodd" d="M12.9475 8.84308C13.1529 8.84308 13.3527 8.86264 13.547 8.90037C12.0894 9.18126 10.9896 10.4613 10.9896 11.9999C10.9896 13.5385 12.0908 14.82 13.547 15.0995C13.3527 15.1372 13.1529 15.1568 12.9475 15.1568C11.2034 15.1568 9.79059 13.744 9.79059 11.9999C9.79059 10.2559 11.2048 8.84308 12.9475 8.84308Z" fill="white"/>
</g>
</g>
<rect x="0.25" y="0.25" width="23.5" height="23.5" rx="11.75" stroke="#E5E3E1" stroke-width="0.5"/>
<defs>
<clipPath id="clip0_16335_6215">
<rect width="24" height="24" rx="12" fill="white"/>
</clipPath>
</defs>
</svg>
