<svg width="48" height="48" viewBox="0 0 48 48" fill="none" xmlns="http://www.w3.org/2000/svg">
<path d="M28.7709 46.6799C28.5409 46.6799 28.3209 46.6399 28.1009 46.5599C27.5109 46.3499 27.0609 45.8599 26.8909 45.2599L23.2809 32.8099L17.9209 36.4699L17.6209 41.9999C17.5809 42.7699 17.1709 43.4799 16.5309 43.8999L15.4909 44.5799C15.0809 44.8499 14.5709 44.8999 14.1209 44.7099C13.6709 44.5299 13.3509 44.1299 13.2409 43.6599L11.6109 35.9499L11.0409 35.5799L5.11094 31.5699C4.71094 31.2999 4.47094 30.8499 4.46094 30.3599C4.46094 29.8699 4.70094 29.4199 5.10094 29.1399L6.12094 28.4399C6.76094 28.0099 7.57094 27.8999 8.29094 28.1499L13.5209 29.9599L18.9409 26.3199L8.78094 18.3399C8.29094 17.9499 8.01094 17.3499 8.04094 16.7299C8.06094 16.1099 8.39094 15.5299 8.91094 15.1799L9.80094 14.5799C10.8009 13.9099 12.0409 13.7399 13.1809 14.1199L29.2209 19.4399L37.3809 13.9399C38.2509 13.3599 39.2909 13.1499 40.3209 13.3499C41.3509 13.5499 42.2309 14.1399 42.8209 15.0099C43.4009 15.8799 43.6109 16.9199 43.4109 17.9499C43.2109 18.9799 42.6209 19.8599 41.7509 20.4499L33.5509 25.9599L32.4309 42.7899C32.3509 43.9799 31.7109 45.0799 30.7209 45.7499L29.8309 46.3499C29.5009 46.5699 29.1209 46.6799 28.7309 46.6799H28.7709ZM23.3209 30.8499C23.5509 30.8499 23.7709 30.8899 23.9909 30.9699C24.5809 31.1799 25.0309 31.6699 25.2009 32.2699L28.8109 44.7199L29.6409 44.0999C30.1209 43.7799 30.4309 43.2399 30.4709 42.6699L31.6109 25.8099C31.6509 25.2099 31.9709 24.6499 32.4709 24.3199L40.6709 18.8099C41.0909 18.5199 41.3809 18.0899 41.4809 17.5899C41.5809 17.0899 41.4809 16.5799 41.1909 16.1499C40.9009 15.7199 40.4709 15.4399 39.9709 15.3399C39.4709 15.2399 38.9609 15.3399 38.5309 15.6299L30.3309 21.1399C29.8309 21.4799 29.1909 21.5599 28.6209 21.3699L12.5809 16.0499C12.0209 15.8699 11.4309 15.9499 10.9409 16.2699L10.0509 16.8699L20.2109 24.8499C20.7009 25.2399 20.9809 25.8399 20.9509 26.4599C20.9309 27.0799 20.6009 27.6599 20.0809 28.0099L14.4309 31.7999C14.0509 32.0499 13.5709 32.1199 13.1409 31.9699L7.66094 30.0699C7.53094 30.0199 7.38094 30.0399 7.27094 30.1199L6.90094 30.3799L12.7709 34.3599C13.1909 34.6399 13.4809 35.0699 13.5809 35.5699L15.0409 42.5099L15.4209 42.2599C15.5409 42.1799 15.6109 42.0599 15.6109 41.9199L15.9209 36.1199C15.9409 35.6699 16.1809 35.2399 16.5609 34.9899L22.2109 31.1999C22.5409 30.9799 22.9209 30.8699 23.3009 30.8699L23.3209 30.8499Z" fill="#323232"/>
<path d="M22.4203 15.3099C22.4203 15.3099 22.5003 14.0599 23.3003 13.2599C24.2703 12.2899 26.3003 11.7799 26.5403 10.3799C26.5703 10.2099 26.7903 10.1599 26.8903 10.2999C27.1003 10.5799 27.3203 10.9799 27.3203 11.3999C27.3203 12.1899 26.8003 12.8499 26.5803 13.1499C26.3603 13.4499 25.7603 14.1599 26.0603 14.5399C26.2003 14.7199 26.5003 14.8099 26.9503 14.4299C27.2603 14.1699 27.5603 13.8699 27.7503 13.6599C27.8503 13.5499 28.0303 13.5799 28.0803 13.7199C28.2703 14.2199 28.4603 15.3499 27.3303 16.8699L28.6603 17.2899C28.6603 17.2899 31.7603 15.9599 31.7603 12.5599C31.7603 9.15991 29.0903 7.71991 29.0903 4.47991C29.0903 4.47991 29.1203 3.49991 29.4703 2.68991C29.5603 2.47991 29.3703 2.25991 29.1603 2.32991C28.4403 2.55991 27.2603 3.04991 26.4203 3.92991C25.4403 4.96991 25.4003 7.06991 25.4303 7.97991C25.4303 8.15991 25.2203 8.24991 25.0903 8.11991C24.7703 7.76991 24.3603 7.06991 24.5103 5.84991C24.5403 5.63991 24.3203 5.47991 24.1303 5.57991C23.0403 6.13991 20.3803 7.76991 20.2003 10.4899C19.9903 13.7699 21.1003 14.8299 21.1003 14.8299L22.4303 15.2999L22.4203 15.3099Z" fill="#DF0000"/>
</svg>
