<svg width="24" height="24" viewBox="0 0 24 24" fill="none" xmlns="http://www.w3.org/2000/svg">
<path fill-rule="evenodd" clip-rule="evenodd" d="M20.6 19.0667C20.6 19.0667 20 12.7334 12.7 10.6667C5.20003 8.56672 5.83336 2.93338 6.63336 2.50005C7.55202 2.16587 8.52248 1.9966 9.50003 2.00005C14.8667 2.00005 20.3 6.46672 21.6667 12.0001C22.3667 14.7667 21.9 17.2667 20.6 19.0667ZM3.40003 4.90005C3.40003 6.66672 4.50003 10.9001 12 13.3334C18.9 15.5667 18.0667 21.0667 17.3334 21.5001C16.4252 21.8304 15.4664 21.9996 14.5 22.0001C9.13336 22.0001 3.70003 17.5334 2.33336 12.0001C1.63336 9.23338 2.10003 6.70005 3.40003 4.90005Z" fill="#323232"/>
</svg>
