<svg width="48" height="48" viewBox="0 0 48 48" fill="none" xmlns="http://www.w3.org/2000/svg">
<path d="M19.2398 32.8802L14.7198 28.3402C14.5498 28.1702 14.3898 28.0202 14.2298 27.8802C12.1298 26.0202 9.48976 24.9902 6.76976 24.9902H3.75976C3.42976 24.9902 3.11976 25.1502 2.93976 25.4202C2.74976 25.6902 2.70976 26.0402 2.82976 26.3402L9.50976 43.8802C9.65976 44.2702 10.0298 44.5202 10.4398 44.5202H28.4298C28.8298 44.5202 29.1998 44.2802 29.3498 43.9002C29.5098 43.5302 29.4198 43.1002 29.1398 42.8102L19.2398 32.8602V32.8802Z" fill="#323232"/>
<path d="M27.0198 22.0001L22.5098 17.4701C22.3398 17.3001 22.1798 17.1501 22.0198 17.0101C19.9198 15.1501 17.2798 14.1201 14.5598 14.1201H11.5498C11.2198 14.1201 10.9098 14.2801 10.7298 14.5501C10.5398 14.8201 10.4998 15.1701 10.6198 15.4701L14.5998 25.9201C14.6498 26.0501 14.7298 26.1801 14.8298 26.2801L22.0498 33.3701C22.2398 33.5501 22.4898 33.6601 22.7498 33.6601H36.2198C36.6198 33.6601 36.9898 33.4201 37.1398 33.0401C37.2998 32.6701 37.2098 32.2401 36.9298 31.9501L27.0298 22.0001H27.0198Z" fill="#323232"/>
<path d="M44.9503 21.3002L35.0503 11.3502L30.5303 6.82021C30.3603 6.65021 30.2003 6.50022 30.0403 6.36021C27.9403 4.50021 25.3003 3.47021 22.5803 3.47021H19.5703C19.2403 3.47021 18.9303 3.63021 18.7503 3.90021C18.5603 4.17021 18.5203 4.52022 18.6403 4.82021L22.6203 15.2702C22.6703 15.4002 22.7503 15.5302 22.8503 15.6302L30.0703 22.7202C30.2603 22.9002 30.5103 23.0102 30.7703 23.0102H44.2403C44.6403 23.0102 45.0103 22.7702 45.1603 22.3902C45.3203 22.0202 45.2303 21.5902 44.9503 21.3002Z" fill="#323232"/>
</svg>
