<svg width="24" height="24" viewBox="0 0 24 24" fill="none" xmlns="http://www.w3.org/2000/svg">
<path fill-rule="evenodd" clip-rule="evenodd" d="M11.8038 4.14648H20.6703C15.2768 5.83114 9.8817 8.68741 8.27146 12.9914C7.98542 13.7553 7.94658 14.2635 8.17774 15.0376C8.901 17.4581 11.4794 19.0651 14.3798 20.0818H9.73751C5.62332 20.0818 3.21774 14.4879 2.12891 11.2604H4.45077C5.08007 11.2604 6.08193 9.51183 7.13402 8.10207L9.04635 5.53928C9.671 4.70207 9.72495 4.14648 11.8038 4.14648Z" fill="#DF1F00"/>
<path d="M21.9352 9.84602C21.7996 10.1879 21.4496 10.4693 21.0882 10.529C16.0761 11.3607 12.8819 12.5386 11.8973 14.0202C11.655 14.3849 11.5447 14.7532 11.8952 15.0883C12.6677 15.8274 14.4312 16.4972 16.4582 17.0702C16.5615 17.0995 16.6947 17.1302 16.8117 17.1811C16.9605 17.2463 17.004 17.363 17.0826 17.5142C13.0026 16.9935 8.98402 16.4697 8.14751 14.593C8.00937 14.2837 8.03356 13.9949 8.1417 13.6814C9.20286 10.6202 19.0098 9.84602 21.9352 9.84602Z" fill="white"/>
<path d="M21.9352 9.84602C21.7996 10.1879 21.4496 10.4693 21.0882 10.529C16.0761 11.3607 12.8819 12.5386 11.8973 14.0202C11.655 14.3849 11.5447 14.7532 11.8952 15.0883C12.6677 15.8274 14.4312 16.4972 16.4582 17.0702C16.5615 17.0995 16.6947 17.1302 16.8117 17.1811C16.9605 17.2463 17.004 17.363 17.0826 17.5142C13.0026 16.9935 8.98402 16.4697 8.14751 14.593C8.00937 14.2837 8.03356 13.9949 8.1417 13.6814C9.20286 10.6202 19.0098 9.84602 21.9352 9.84602Z" fill="#1C1581"/>
</svg>
