<svg width="48" height="48" viewBox="0 0 48 48" fill="none" xmlns="http://www.w3.org/2000/svg">
<path d="M44.0702 21.5999L42.8002 19.7399C42.5102 19.3199 42.3702 18.7999 42.4102 18.2899L42.5802 16.0399C42.7102 14.2799 41.7702 12.6399 40.1802 11.8799L38.1502 10.8999C37.6902 10.6799 37.3102 10.2999 37.0902 9.83992L36.1102 7.80992C35.3402 6.21992 33.7002 5.27992 31.9502 5.40992L29.7002 5.57992C29.1902 5.61992 28.6802 5.47992 28.2602 5.18992L26.4002 3.91992C24.9402 2.91992 23.0502 2.91992 21.5902 3.91992L19.7302 5.18992C19.3102 5.47992 18.8002 5.61992 18.2802 5.57992L16.0302 5.40992C14.2702 5.27992 12.6302 6.21992 11.8702 7.80992L10.8902 9.83992C10.6702 10.2999 10.2902 10.6799 9.83016 10.8999L7.80016 11.8799C6.21016 12.6499 5.26016 14.2799 5.40016 16.0399L5.57016 18.2899C5.61016 18.7999 5.47016 19.3099 5.18016 19.7299L3.91016 21.5899C2.91016 23.0499 2.91016 24.9399 3.91016 26.3999L5.18016 28.2599C5.47016 28.6799 5.61016 29.1999 5.57016 29.7099L5.40016 31.9599C5.27016 33.7199 6.21016 35.3599 7.80016 36.1199L9.83016 37.0999C10.2902 37.3199 10.6702 37.6999 10.8902 38.1599L11.8702 40.1899C12.6402 41.7799 14.2702 42.7299 16.0302 42.5899L18.2802 42.4199C18.7902 42.3799 19.3002 42.5199 19.7202 42.8099L21.5802 44.0799C22.3102 44.5799 23.1502 44.8299 23.9802 44.8299C24.8202 44.8299 25.6502 44.5799 26.3802 44.0799L28.2402 42.8099C28.6602 42.5199 29.1702 42.3799 29.6902 42.4199L31.9402 42.5899C33.7002 42.7199 35.3402 41.7799 36.1002 40.1899L37.0802 38.1599C37.3002 37.6999 37.6802 37.3199 38.1402 37.0999L40.1702 36.1199C41.7602 35.3499 42.7102 33.7199 42.5702 31.9599L42.4002 29.7099C42.3602 29.1999 42.5002 28.6899 42.7902 28.2699L44.0602 26.4099C45.0602 24.9499 45.0602 23.0599 44.0602 21.5999H44.0702Z" fill="#DF0000"/>
<path d="M24.3209 39.1901C15.9409 39.1901 9.13086 32.3701 9.13086 24.0001C9.13086 15.6301 15.9509 8.81006 24.3209 8.81006C32.6909 8.81006 39.5109 15.6301 39.5109 24.0001C39.5109 32.3701 32.6909 39.1901 24.3209 39.1901ZM24.3209 9.81006C16.4909 9.81006 10.1309 16.1801 10.1309 24.0001C10.1309 31.8201 16.5009 38.1901 24.3209 38.1901C32.1409 38.1901 38.5109 31.8201 38.5109 24.0001C38.5109 16.1801 32.1409 9.81006 24.3209 9.81006Z" fill="white"/>
<path d="M13.1406 22.8198H15.2706V23.3598H14.5106V25.9998H13.9106V23.3598H13.1406V22.8198Z" fill="white"/>
<path d="M15.4414 26.0098L16.3914 22.8198H17.0314L17.9814 26.0098H17.3614L17.2014 25.4398H16.1914L16.0314 26.0098H15.4414ZM16.3214 24.9198H17.0614L16.6914 23.5698L16.3214 24.9198Z" fill="white"/>
<path d="M19.0104 24.3401L19.9904 22.8201H20.6604L19.8304 24.1401L20.6904 26.0001H20.0104L19.4004 24.6401L19.0104 25.2501V26.0001H18.4004V22.8101H19.0104V24.3301V24.3401Z" fill="white"/>
<path d="M21.7113 24.6501V25.4601H23.0913V26.0001H21.1113V22.8101H23.0513V23.3501H21.7213V24.1101H22.9113V24.6401H21.7213L21.7113 24.6501Z" fill="white"/>
<path d="M25.8008 24.99C25.8008 25.65 25.3408 26.05 24.6808 26.05C24.0208 26.05 23.5508 25.64 23.5508 24.99V23.83C23.5508 23.17 23.9508 22.77 24.6808 22.77C25.3508 22.77 25.8008 23.18 25.8008 23.83V24.99ZM24.1608 24.98C24.1608 25.3 24.3508 25.51 24.6808 25.51C25.0108 25.51 25.1908 25.3 25.1908 24.98V23.84C25.1908 23.52 25.0008 23.31 24.6808 23.31C24.3608 23.31 24.1608 23.52 24.1608 23.84V24.98Z" fill="white"/>
<path d="M27.0299 24.7398V26.0098H26.4199V22.8198H28.3599V23.3598H27.0299V24.1998H28.2199V24.7398H27.0299Z" fill="white"/>
<path d="M29.4909 24.7398V26.0098H28.8809V22.8198H30.8209V23.3598H29.4909V24.1998H30.6809V24.7398H29.4909Z" fill="white"/>
<path d="M31.2209 22.8198H32.3709V25.4798H32.9309V26.0098H31.2109V25.4798H31.7609V23.3598H31.2109V22.8198H31.2209Z" fill="white"/>
<path d="M35.4616 25.04C35.4616 25.67 35.0316 26.06 34.4016 26.06C33.7716 26.06 33.3516 25.67 33.3516 25.04V23.79C33.3516 23.16 33.7316 22.77 34.4016 22.77C35.0316 22.77 35.4616 23.16 35.4616 23.79V25.04ZM33.9516 25.03C33.9516 25.32 34.1216 25.51 34.4016 25.51C34.6816 25.51 34.8516 25.32 34.8516 25.03V23.8C34.8516 23.51 34.6816 23.32 34.4016 23.32C34.1216 23.32 33.9516 23.51 33.9516 23.8V25.03Z" fill="white"/>
<path d="M17.9799 32.61L15.9999 34.05L15.6899 33.77L16.5499 32.36L15.2299 33.36L14.9199 33.08L16.1499 30.96L16.4899 31.27L15.6199 32.65L16.9199 31.66L17.2299 31.94L16.3699 33.33L17.6599 32.33L17.9799 32.62V32.61Z" fill="white"/>
<path d="M17.2394 34.8896L16.8594 34.6396L18.1594 32.6196L18.5394 32.8696L17.2394 34.8896Z" fill="white"/>
<path d="M18.7002 33L20.1402 33.7L19.9602 34.07L19.4402 33.82L18.5702 35.61L18.1602 35.41L19.0302 33.62L18.5102 33.37L18.6902 33H18.7002Z" fill="white"/>
<path d="M21.1701 36.5197L20.7301 36.3897L21.0101 35.4097L20.3001 35.1997L20.0201 36.1697L19.5801 36.0397L20.2501 33.7397L20.6901 33.8697L20.4201 34.8097L21.1301 35.0197L21.4001 34.0797L21.8401 34.2097L21.1701 36.5097V36.5197Z" fill="white"/>
<path d="M24.3708 36.0696C24.3608 36.3796 24.2108 36.6096 23.9908 36.7396L24.3208 37.3196L23.7908 37.2996L23.5308 36.8396C23.5308 36.8396 23.5008 36.8396 23.4908 36.8396C22.9908 36.8196 22.6508 36.4996 22.6708 36.0096L22.7008 35.1396C22.7208 34.6496 23.0308 34.3496 23.5808 34.3696C24.0808 34.3896 24.4108 34.7096 24.4008 35.1996L24.3708 36.0696ZM23.1308 36.0096C23.1308 36.2496 23.2608 36.4096 23.5108 36.4196C23.7608 36.4196 23.9008 36.2796 23.9108 36.0396L23.9408 35.1796C23.9408 34.9396 23.8108 34.7796 23.5708 34.7696C23.3208 34.7696 23.1708 34.9096 23.1608 35.1496L23.1308 36.0096Z" fill="white"/>
<path d="M24.8105 36.82L25.1905 34.34L25.6705 34.27L26.7105 36.55L26.2505 36.61L26.0705 36.2L25.3105 36.3L25.2505 36.74L24.8105 36.8V36.82ZM25.3505 35.92L25.9005 35.84L25.4805 34.87L25.3405 35.92H25.3505Z" fill="white"/>
<path d="M28.7807 35.9096L28.4307 36.0296L27.1507 34.8596L27.6207 36.2996L27.2207 36.4296L26.4707 34.1497L26.8407 34.0296L28.0907 35.1796L27.6307 33.7696L28.0307 33.6396L28.7807 35.9196V35.9096Z" fill="white"/>
<path d="M28.1699 33.5698L29.5899 32.8198L29.7799 33.1798L29.2699 33.4498L30.2099 35.2098L29.8099 35.4198L28.8699 33.6598L28.3599 33.9298L28.1699 33.5698Z" fill="white"/>
<path d="M30.9701 34.7899L30.0801 32.4399L30.4601 32.1499L32.4901 33.6299L32.1201 33.9099L31.7601 33.6399L31.1501 34.0999L31.3201 34.5099L30.9601 34.7799L30.9701 34.7899ZM31.0101 33.7299L31.4601 33.3899L30.6201 32.7499L31.0201 33.7299H31.0101Z" fill="white"/>
<path d="M32.3505 31.3598L32.3005 31.3098C32.1605 31.1798 31.9805 31.1898 31.8305 31.3498C31.6905 31.4998 31.6905 31.6598 31.8005 31.7698C31.8705 31.8298 31.9905 31.8698 32.1505 31.7898L32.4705 31.6298C32.7505 31.4898 33.0705 31.3698 33.3905 31.6698C33.7105 31.9698 33.7005 32.4098 33.3705 32.7698C33.0305 33.1298 32.6005 33.1998 32.2805 32.8998L32.2205 32.8398L32.5305 32.5098L32.6005 32.5798C32.7405 32.7098 32.9205 32.6898 33.0905 32.5198C33.2605 32.3398 33.2605 32.1498 33.1305 32.0298C33.0205 31.9298 32.8905 31.9198 32.7205 32.0098L32.3705 32.1798C32.0505 32.3398 31.7705 32.3498 31.5205 32.1198C31.2505 31.8698 31.2205 31.4498 31.5505 31.0998C31.8705 30.7498 32.2905 30.7098 32.6105 31.0098L32.6505 31.0398L32.3505 31.3698V31.3598Z" fill="white"/>
<path d="M25.1093 15.1599L23.1793 14.4199C22.8793 14.3199 22.5393 14.3699 22.2793 14.5499C22.6093 14.8899 23.4093 15.6299 23.4093 15.6299" fill="white"/>
<path d="M23.4195 15.74C23.4195 15.74 23.3695 15.74 23.3495 15.71C23.3495 15.71 22.5495 14.96 22.2195 14.62C22.1995 14.6 22.1895 14.57 22.1895 14.54C22.1895 14.51 22.2095 14.48 22.2295 14.47C22.5195 14.27 22.8795 14.22 23.2095 14.32L25.1395 15.06C25.1895 15.08 25.2195 15.14 25.1995 15.19C25.1795 15.24 25.1195 15.27 25.0695 15.25L23.1395 14.51C22.9095 14.44 22.6595 14.46 22.4395 14.57C22.7995 14.93 23.4695 15.55 23.4795 15.56C23.5195 15.6 23.5195 15.66 23.4795 15.7C23.4595 15.72 23.4295 15.73 23.4095 15.73L23.4195 15.74Z" fill="white"/>
<path d="M22.439 17.1801L23.829 16.7801L23.329 18.9201C23.719 18.8801 24.079 18.6801 24.309 18.3501C24.659 17.8201 25.729 16.2301 25.729 16.2301C25.729 16.2301 28.229 15.5101 28.479 15.4401C28.409 15.2101 28.249 14.3301 27.089 14.6601L21.709 16.1901" fill="white"/>
<path d="M23.3398 19.0099C23.3398 19.0099 23.2798 18.9999 23.2598 18.9799C23.2398 18.9599 23.2298 18.9199 23.2398 18.8899L23.6998 16.9199L22.4698 17.2799C22.4198 17.2899 22.3598 17.2599 22.3498 17.2099C22.3298 17.1599 22.3698 17.0999 22.4198 17.0899L23.8098 16.6899C23.8098 16.6899 23.8798 16.6899 23.9098 16.7099C23.9398 16.7299 23.9498 16.7699 23.9398 16.8099L23.4798 18.7999C23.7898 18.7299 24.0598 18.5599 24.2498 18.2999C24.5998 17.7699 25.6698 16.1799 25.6698 16.1799C25.6798 16.1599 25.6998 16.1499 25.7298 16.1399L28.3898 15.3799C28.3398 15.2099 28.2498 14.9399 27.9998 14.7899C27.7898 14.6699 27.5098 14.6599 27.1498 14.7599L21.7698 16.2899C21.7098 16.2999 21.6598 16.2699 21.6498 16.2199C21.6298 16.1699 21.6698 16.1099 21.7198 16.0999L27.0998 14.5699C27.5098 14.4599 27.8398 14.4699 28.0998 14.6199C28.4498 14.8199 28.5498 15.1999 28.5998 15.3799V15.4199C28.6298 15.4699 28.5998 15.5299 28.5398 15.5399L25.8198 16.3199C25.6698 16.5399 24.7398 17.9199 24.4198 18.4099C24.1698 18.7599 23.7898 18.9799 23.3698 19.0199L23.3398 19.0099Z" fill="white"/>
<path d="M20.9995 15.6501C20.8895 15.5601 20.7395 15.5301 20.5995 15.5701L20.2695 15.6601C20.1495 15.6901 20.0995 15.8401 20.1795 15.9401L21.1695 17.2401C21.2795 17.3901 21.4695 17.4501 21.6395 17.4001L22.7795 17.0701L20.9995 15.6401V15.6501Z" fill="white"/>
<path d="M21.5291 17.52C21.3591 17.52 21.1991 17.44 21.0991 17.3L20.1091 16C20.0491 15.93 20.0391 15.83 20.0691 15.74C20.0991 15.65 20.1691 15.59 20.2591 15.56L20.5891 15.47C20.7591 15.42 20.9391 15.46 21.0791 15.57L22.8591 17C22.8591 17 22.8991 17.06 22.8991 17.1C22.8991 17.14 22.8691 17.17 22.8291 17.18L21.6891 17.51C21.6391 17.52 21.5891 17.53 21.5391 17.53L21.5291 17.52ZM20.7291 15.65C20.7291 15.65 20.6691 15.65 20.6391 15.66L20.3091 15.75C20.3091 15.75 20.2591 15.79 20.2591 15.8C20.2591 15.81 20.2491 15.84 20.2691 15.87L21.2591 17.17C21.3491 17.28 21.4891 17.33 21.6291 17.29L22.5791 17.02L20.9491 15.71C20.8891 15.66 20.8091 15.64 20.7391 15.64L20.7291 15.65Z" fill="white"/>
</svg>
