<svg width="48" height="48" viewBox="0 0 48 48" fill="none" xmlns="http://www.w3.org/2000/svg">
<path d="M24.0009 46.0996C11.8009 46.0996 1.88086 36.1696 1.88086 23.9796C1.88086 11.7896 11.8009 1.84961 24.0009 1.84961C36.2009 1.84961 46.1209 11.7796 46.1209 23.9696C46.1209 36.1596 36.2009 46.0896 24.0009 46.0896V46.0996ZM24.0009 3.84961C12.9009 3.84961 3.88086 12.8796 3.88086 23.9696C3.88086 35.0596 12.9109 44.0896 24.0009 44.0896C35.0909 44.0896 44.1209 35.0596 44.1209 23.9696C44.1209 12.8796 35.1009 3.84961 24.0009 3.84961Z" fill="#323232"/>
<path d="M22.5698 21.6102H23.8398C25.7598 21.6102 26.4898 20.7602 26.4898 19.1902C26.4898 17.7302 25.5898 16.8502 24.0698 16.8502C22.5498 16.8502 21.5898 17.7802 21.5898 19.2202V19.6102H18.2098V19.1602C18.2098 16.0302 20.5798 13.7002 24.1498 13.7002C27.7198 13.7002 29.9798 15.8102 29.9798 18.8002C29.9798 20.7702 29.1598 22.1002 27.8998 22.8602C29.3598 23.5902 30.3198 25.0902 30.3198 27.3402C30.3198 30.6402 27.8698 32.7802 24.1198 32.7802C20.3698 32.7802 18.0898 30.6102 18.0898 27.3202V26.9002H21.4698V27.2702C21.4698 28.7602 22.4298 29.7502 24.0598 29.7502C25.7798 29.7502 26.7098 28.7402 26.7098 26.9902C26.7098 25.2402 25.7798 24.3702 23.8398 24.3702H22.5698V21.6402V21.6102Z" fill="#DF0000"/>
<path d="M24.3992 5.91039C24.1892 5.91039 24.0192 6.06039 23.9792 6.26039C23.9492 6.46039 24.0692 6.66039 24.2692 6.72039C24.3392 6.74039 31.4392 9.05039 35.6792 14.1104C40.0292 19.3104 41.0992 25.4204 41.1092 25.4804C41.1392 25.6804 41.3192 25.8304 41.5192 25.8304C41.7192 25.8304 41.8992 25.6904 41.9292 25.4904C42.0692 24.7504 42.1392 23.9304 42.1392 23.0504C42.1392 13.6004 34.1792 5.90039 24.3892 5.90039L24.3992 5.91039Z" fill="#8DE2E0"/>
</svg>
