<svg width="124" height="30" viewBox="0 0 124 30" fill="none" xmlns="http://www.w3.org/2000/svg">
<path d="M70.7445 7.92365C70.7445 9.4041 70.1188 10.5233 69.123 11.0784L70.6828 13.5723H69.264L67.9686 11.4309C67.8012 11.4662 67.6338 11.4838 67.4487 11.4838C65.4924 11.4838 64.153 10.1091 64.153 7.92365V3.5616C64.153 1.37617 65.4395 0.00146484 67.4487 0.00146484C69.4579 0.00146484 70.7445 1.37617 70.7445 3.5616V7.92365ZM65.3074 7.9589C65.3074 9.31598 66.0828 10.3206 67.4399 10.3206C68.797 10.3206 69.5637 9.31598 69.5637 7.9589V3.52635C69.5637 2.16927 68.797 1.16468 67.4399 1.16468C66.0828 1.16468 65.3074 2.16927 65.3074 3.52635V7.9589Z" fill="#323232"/>
<path d="M73.4939 11.3164L76.6928 0.168945H77.8648L81.0989 11.3164H79.8916L79.1602 8.75205H75.3445L74.6307 11.3164H73.4851H73.4939ZM75.6617 7.64171H78.8782L77.2479 1.92258L75.6617 7.64171Z" fill="#323232"/>
<path d="M90.6601 11.3164H89.6996L85.3464 2.69805V11.3164H84.2625V0.168945H85.3023L89.5762 8.65511V0.168945H90.6601V11.3164Z" fill="#323232"/>
<path d="M93.7532 0.168945H100.195V1.34097H97.5513V11.3164H96.3881V1.34097H93.7444V0.168945H93.7532Z" fill="#323232"/>
<path d="M101.649 11.3164L104.848 0.168945H106.02L109.254 11.3164H108.047L107.315 8.75205H103.5L102.786 11.3164H101.64H101.649ZM103.808 7.64171H107.024L105.394 1.92258L103.808 7.64171Z" fill="#323232"/>
<path d="M116.956 3.3413V3.06812C116.956 1.94897 116.242 1.08537 114.991 1.08537C113.739 1.08537 113.052 1.78153 113.052 2.7685C113.052 3.55279 113.537 4.10796 114.198 4.39876L115.845 5.1478C116.991 5.65891 118.269 6.33745 118.269 8.2497C118.269 10.162 116.938 11.4926 114.999 11.4926C113.061 11.4926 111.721 10.2853 111.721 8.35545V8.08227H112.867V8.41714C112.867 9.55391 113.642 10.3823 114.991 10.3823C116.339 10.3823 117.123 9.53629 117.123 8.39951C117.123 7.19224 116.348 6.71638 115.414 6.31101L113.995 5.66772C112.867 5.17424 111.933 4.36351 111.933 2.86544C111.933 1.1823 113.158 0.00146484 114.982 0.00146484C116.806 0.00146484 118.084 1.20874 118.084 3.13862V3.3413H116.956Z" fill="#323232"/>
<path d="M70.6652 26.2621V26.6146C70.6652 28.7031 69.3522 29.9896 67.4311 29.9896C65.51 29.9896 64.153 28.6149 64.153 26.4295V22.0675C64.153 19.882 65.4395 18.5073 67.4311 18.5073C69.4227 18.5073 70.6652 19.7939 70.6652 21.8824V22.138H69.5548V21.8472C69.5548 20.5958 68.7882 19.6793 67.4311 19.6793C66.074 19.6793 65.3074 20.6839 65.3074 22.041V26.4736C65.3074 27.8307 66.0828 28.8352 67.4311 28.8352C68.7794 28.8352 69.5548 27.9188 69.5548 26.6674V26.2797H70.6652V26.2621Z" fill="#323232"/>
<path d="M79.4598 29.8223L77.7237 25.4073C77.5387 25.425 77.4506 25.425 77.3096 25.425H75.4502V29.8223H74.287V18.6748H77.3713C79.3276 18.6748 80.7463 19.979 80.7463 21.997C80.7463 23.4863 80.0149 24.6054 78.887 25.0989L80.7375 29.8135H79.4686L79.4598 29.8223ZM75.4414 19.8116V24.3058H77.2743C78.6755 24.3058 79.5479 23.3893 79.5479 22.0146C79.5479 20.6399 78.6755 19.8116 77.2743 19.8116H75.4414Z" fill="#323232"/>
<path d="M90.3869 18.6748V26.4296C90.3869 28.615 89.0739 29.9897 87.1529 29.9897C85.2318 29.9897 83.9364 28.615 83.9364 26.4296V18.6748H85.0996V26.4648C85.0996 27.8219 85.8487 28.8265 87.1617 28.8265C88.4747 28.8265 89.2414 27.8219 89.2414 26.4648V18.6748H90.4046H90.3869Z" fill="#323232"/>
<path d="M95.5332 29.8223H94.37V18.6748H95.5332V29.8223Z" fill="#323232"/>
<path d="M104.284 21.8472V21.574C104.284 20.4548 103.57 19.5912 102.319 19.5912C101.067 19.5912 100.38 20.2874 100.38 21.2744C100.38 22.0586 100.865 22.6138 101.526 22.9046L103.173 23.6537C104.319 24.1648 105.597 24.8433 105.597 26.7556C105.597 28.6678 104.266 29.9985 102.327 29.9985C100.389 29.9985 99.0493 28.7912 99.0493 26.8613V26.5881H100.195V26.923C100.195 28.0598 100.97 28.8881 102.319 28.8881C103.667 28.8881 104.46 28.0421 104.46 26.9054C104.46 25.6981 103.685 25.2222 102.75 24.8169L101.332 24.1736C100.204 23.6801 99.2696 22.8694 99.2696 21.3713C99.2696 19.6882 100.486 18.5073 102.319 18.5073C104.152 18.5073 105.421 19.7146 105.421 21.6445V21.8472H104.293H104.284Z" fill="#323232"/>
<path d="M110.303 24.7023V28.659H114.991V29.831H109.148V18.6836H114.867V19.8556H110.303V23.5568H114.488V24.7112H110.303V24.7023Z" fill="#323232"/>
<path d="M122.834 21.8472V21.574C122.834 20.4548 122.12 19.5912 120.868 19.5912C119.617 19.5912 118.93 20.2874 118.93 21.2744C118.93 22.0586 119.414 22.6138 120.075 22.9046L121.723 23.6537C122.869 24.1648 124.147 24.8433 124.147 26.7556C124.147 28.6678 122.816 29.9985 120.877 29.9985C118.939 29.9985 117.599 28.7912 117.599 26.8613V26.5881H118.745V26.923C118.745 28.0598 119.52 28.8881 120.868 28.8881C122.217 28.8881 123.001 28.0421 123.001 26.9054C123.001 25.6981 122.226 25.2222 121.291 24.8169L119.873 24.1736C118.745 23.6801 117.811 22.8694 117.811 21.3713C117.811 19.6882 119.036 18.5073 120.86 18.5073C122.684 18.5073 123.962 19.7146 123.962 21.6445V21.8472H122.834Z" fill="#323232"/>
<path d="M53.1112 0.0366211V30.007" stroke="#323232" stroke-width="0.666676" stroke-miterlimit="10"/>
<path d="M11.3149 29.8485H41.7611L17.3601 5.34174C14.1084 2.09003 9.70225 0.160156 5.10227 0.160156H0L0.378925 1.15594L2.07087 5.58848L11.3149 29.8397V29.8485Z" fill="url(#paint0_linear_15605_2321)"/>
<path d="M2.07085 5.59712C5.40187 11.2898 14.1524 11.889 15.1041 20.7365C15.1394 21.0978 15.4214 21.3886 15.7827 21.4503C20.8233 22.2346 25.7317 24.3143 29.9968 27.7334C29.9968 27.7334 30.0585 27.7687 30.0937 27.7687C30.129 27.7687 30.173 27.751 30.1995 27.7246C30.2611 27.6629 30.2611 27.5748 30.1995 27.5131C27.2474 24.4112 23.6344 21.9262 19.5807 20.2959L18.347 19.8024C17.7125 19.5469 17.2719 18.9212 17.2896 18.1986C17.3601 15.5549 23.6167 16.0925 24.2424 14.8235L24.3481 14.6032C23.0616 13.5017 21.5282 12.6733 19.8451 12.2151C19.8275 12.2768 19.7922 12.5852 20.1359 13.1492C20.506 13.7572 19.7305 14.7178 18.5938 13.6779L18.4968 13.5898C10.0635 5.83505 3.72755 9.85342 0.378906 1.15576L2.07085 5.58831V5.59712Z" fill="white"/>
<path d="M22.3918 14.4536C22.3918 14.4536 21.0083 14.5241 20.1535 13.1406C20.4091 13.5548 20.1271 14.1276 19.5631 14.1364V16.2425C20.4708 15.9782 21.5106 15.8195 22.383 15.6345V14.4625L22.3918 14.4536Z" fill="url(#paint1_linear_15605_2321)"/>
<path d="M16.8313 21.6356C21.5018 22.5344 26.0313 24.5524 29.9968 27.7336C21.1493 20.1728 17.1133 21.5387 16.8313 21.6356Z" fill="url(#paint2_linear_15605_2321)"/>
<path d="M3.85092 5.99367C2.47621 5.01551 1.313 3.57912 0.378906 1.15576L2.07085 5.58831C5.40187 11.281 14.1524 11.8802 15.1041 20.7277C14.1436 9.43044 9.18231 11.1224 3.85092 5.98486V5.99367Z" fill="url(#paint3_linear_15605_2321)"/>
<defs>
<linearGradient id="paint0_linear_15605_2321" x1="26.4631" y1="29.734" x2="6.15093" y2="0.0808458" gradientUnits="userSpaceOnUse">
<stop stop-color="#BE0000"/>
<stop offset="0.39" stop-color="#DD0000"/>
<stop offset="0.77" stop-color="#F60000"/>
<stop offset="1" stop-color="#FF0000"/>
</linearGradient>
<linearGradient id="paint1_linear_15605_2321" x1="20.8497" y1="16.3483" x2="21.1229" y2="13.2199" gradientUnits="userSpaceOnUse">
<stop offset="0.65" stop-color="white" stop-opacity="0"/>
<stop offset="0.69" stop-color="#ECECEC" stop-opacity="0.0529"/>
<stop offset="0.76" stop-color="#D6D6D6" stop-opacity="0.25"/>
<stop offset="0.81" stop-color="#C5C5C5" stop-opacity="0.5184"/>
<stop offset="0.87" stop-color="#B9B9B9" stop-opacity="0.7569"/>
<stop offset="0.91" stop-color="#B1B1B1" stop-opacity="0.9409"/>
<stop offset="0.95" stop-color="#AFAFAF"/>
</linearGradient>
<linearGradient id="paint2_linear_15605_2321" x1="16.8313" y1="24.6053" x2="29.9968" y2="24.6053" gradientUnits="userSpaceOnUse">
<stop stop-color="white" stop-opacity="0"/>
<stop offset="0.07" stop-color="#F3F3F3" stop-opacity="0.0225"/>
<stop offset="0.21" stop-color="#DEDEDE" stop-opacity="0.1681"/>
<stop offset="0.35" stop-color="#CDCDCD" stop-opacity="0.3844"/>
<stop offset="0.49" stop-color="#C0C0C0" stop-opacity="0.6241"/>
<stop offset="0.63" stop-color="#B6B6B6" stop-opacity="0.8281"/>
<stop offset="0.77" stop-color="#B0B0B0" stop-opacity="0.9604"/>
<stop offset="0.9" stop-color="#AFAFAF"/>
</linearGradient>
<linearGradient id="paint3_linear_15605_2321" x1="0.378906" y1="10.9461" x2="15.1041" y2="10.9461" gradientUnits="userSpaceOnUse">
<stop offset="0.25" stop-color="white" stop-opacity="0"/>
<stop offset="0.36" stop-color="#F6F6F6" stop-opacity="0.0121"/>
<stop offset="0.58" stop-color="#E0E0E0" stop-opacity="0.1444"/>
<stop offset="0.88" stop-color="#BDBDBD" stop-opacity="0.6724"/>
<stop offset="1" stop-color="#AFAFAF"/>
</linearGradient>
</defs>
</svg>
