<svg width="48" height="48" viewBox="0 0 48 48" fill="none" xmlns="http://www.w3.org/2000/svg">
<path d="M24.7091 43.5102H7.71906C7.16906 43.5102 6.71906 43.0602 6.71906 42.5102V29.7702C6.71906 29.2202 7.16906 28.7702 7.71906 28.7702C8.26906 28.7702 8.71906 29.2202 8.71906 29.7702V41.5102H24.7091C25.2591 41.5102 25.7091 41.9602 25.7091 42.5102C25.7091 43.0602 25.2591 43.5102 24.7091 43.5102ZM31.7891 28.7202C31.2391 28.7202 30.7891 28.2702 30.7891 27.7202V24.1102C30.7891 23.5602 31.2391 23.1102 31.7891 23.1102C32.3391 23.1102 32.7891 23.5602 32.7891 24.1102V27.7202C32.7891 28.2702 32.3391 28.7202 31.7891 28.7202ZM7.71906 18.1002C7.16906 18.1002 6.71906 17.6502 6.71906 17.1002V7.54019L2.76906 3.5902C2.37906 3.2002 2.37906 2.5702 2.76906 2.1802C3.15906 1.7902 3.78906 1.7902 4.17906 2.1802L8.12906 6.1302H31.3591L35.3091 2.1802C35.6991 1.7902 36.3291 1.7902 36.7191 2.1802C37.1091 2.5702 37.1091 3.2002 36.7191 3.5902L32.7691 7.54019V11.3702C32.7691 11.9202 32.3191 12.3702 31.7691 12.3702C31.2191 12.3702 30.7691 11.9202 30.7691 11.3702V8.12019H8.71906V17.1002C8.71906 17.6502 8.26906 18.1002 7.71906 18.1002Z" fill="#323232"/>
<path d="M23.3008 35.0099C22.7508 35.0099 22.3008 34.5599 22.3008 34.0099C22.3008 31.1199 24.6508 28.7599 27.5408 28.7599C28.0508 28.7599 28.5408 28.8399 29.0008 28.9899C29.5808 28.0899 30.3708 27.3299 31.2908 26.8099C31.7108 26.5499 32.2108 26.3399 32.8008 26.1599C34.5208 25.6799 36.3108 25.8899 37.8608 26.7499C39.3908 27.5999 40.5008 28.9999 40.9908 30.6799C41.0308 30.7899 41.0608 30.9199 41.0608 31.0399C41.0608 31.5899 40.6108 32.0399 40.0608 32.0399C39.6608 32.0399 39.3208 31.8099 39.1608 31.4799C39.1308 31.4199 39.1008 31.3599 39.0908 31.2899C38.7508 30.0999 37.9708 29.1099 36.8908 28.4999C35.8108 27.8999 34.5508 27.7499 33.3508 28.0899C32.9508 28.2099 32.5908 28.3599 32.3008 28.5399C31.4308 29.0299 30.7508 29.7799 30.3608 30.6699C30.2508 30.9299 30.0308 31.1199 29.7708 31.2099C29.5108 31.2999 29.2208 31.2699 28.9708 31.1399C28.5308 30.8999 28.0408 30.7699 27.5208 30.7599C25.7508 30.7599 24.3008 32.2199 24.3008 34.0099C24.3008 34.5599 23.8508 35.0099 23.3008 35.0099Z" fill="#323232"/>
<path d="M31.7807 11.3701V24.1101L7.7207 29.7701V17.1001L31.7807 11.3701Z" fill="#8DE2E0"/>
<path d="M7.7207 30.7701C7.5007 30.7701 7.2807 30.7001 7.1007 30.5501C6.8607 30.3601 6.7207 30.0701 6.7207 29.7701V17.1101C6.7207 16.6501 7.0407 16.2401 7.4907 16.1401L31.5507 10.4001C31.8507 10.3301 32.1607 10.4001 32.4007 10.5901C32.6407 10.7801 32.7807 11.0701 32.7807 11.3701V24.1101C32.7807 24.5701 32.4607 24.9801 32.0107 25.0801L7.9507 30.7401C7.8707 30.7601 7.8007 30.7701 7.7207 30.7701ZM8.7207 17.8901V28.5001L30.7807 23.3101V12.6301L8.7207 17.8901Z" fill="#323232"/>
<path d="M32.4495 46.12C25.7095 46.12 19.9895 40.91 19.4695 34.09C19.4495 33.81 19.5395 33.54 19.7295 33.33C19.9195 33.13 20.1895 33.01 20.4595 33.01H38.1795L43.5895 19.48C43.7995 18.97 44.3795 18.72 44.8895 18.92C45.3995 19.13 45.6495 19.71 45.4495 20.22L40.3395 33H44.4495C44.7295 33 44.9895 33.12 45.1795 33.32C45.3695 33.52 45.4595 33.8 45.4395 34.08C44.9395 40.53 39.8995 45.58 33.4495 46.07C33.1095 46.1 32.7795 46.11 32.4395 46.11L32.4495 46.12ZM21.5895 35.02C22.5595 40.54 27.5895 44.53 33.2995 44.1C38.3995 43.71 42.4595 39.96 43.3195 35.02H38.8795C38.8795 35.02 38.8495 35.02 38.8295 35.02H21.5895Z" fill="#323232"/>
</svg>
