<svg width="48" height="48" viewBox="0 0 48 48" fill="none" xmlns="http://www.w3.org/2000/svg">
<path d="M44.9898 3.57009C44.8598 3.25009 44.5698 3.02009 44.2198 2.97009C43.7998 2.90009 33.7498 1.45009 22.4898 12.7101C20.7498 14.4501 19.0998 16.3801 17.5998 18.2801L17.1698 18.2201C13.3498 17.7201 10.3398 17.3201 6.95981 22.1101C3.57981 26.9101 2.90981 30.8401 2.88981 31.0001C2.83981 31.3201 2.94981 31.6501 3.17981 31.8801C3.36981 32.0601 3.61981 32.1601 3.87981 32.1601C3.93981 32.1601 4.00981 32.1601 4.06981 32.1401L10.6598 30.8501L17.1798 37.3701L15.8598 43.9301C15.7998 44.2501 15.8898 44.5801 16.1198 44.8201C16.3098 45.0201 16.5698 45.1301 16.8398 45.1301C16.8898 45.1301 16.9398 45.1301 16.9898 45.1201C17.1598 45.0901 21.1098 44.4601 25.9198 41.0801C30.7098 37.7001 30.3098 34.6901 29.8098 30.8701L29.7498 30.4401C31.6598 28.9401 33.5798 27.2801 35.3198 25.5401C46.7698 14.0901 45.0298 3.67009 44.9998 3.58009L44.9898 3.57009ZM8.57981 23.2601C11.0798 19.7201 12.9898 19.7101 16.1798 20.1101C13.1898 24.1201 11.0098 27.7101 10.3298 28.8701L5.21981 29.8701C5.67981 28.4101 6.65981 25.9801 8.56981 23.2601H8.57981ZM24.7498 39.4301C22.0198 41.3501 19.5798 42.3101 18.1198 42.7601L19.1398 37.6701C20.2998 36.9901 23.8898 34.8101 27.8998 31.8201C28.2998 35.0201 28.2898 36.9301 24.7498 39.4301ZM18.4098 35.7901L12.2298 29.6101C13.5998 27.3301 18.3898 19.6301 23.8998 14.1201C32.6498 5.37009 40.6598 4.81009 43.1298 4.89009C43.1998 7.36009 42.6398 15.3701 33.8998 24.1201C28.3898 29.6301 20.6798 34.4301 18.4098 35.7901Z" fill="#323232"/>
<path d="M34.6701 16.36C36.3546 16.36 37.7201 14.9945 37.7201 13.31C37.7201 11.6255 36.3546 10.26 34.6701 10.26C32.9856 10.26 31.6201 11.6255 31.6201 13.31C31.6201 14.9945 32.9856 16.36 34.6701 16.36Z" fill="#8DE2E0"/>
<path d="M34.6701 17.37C32.4301 17.37 30.6201 15.55 30.6201 13.32C30.6201 11.09 32.4401 9.27002 34.6701 9.27002C36.9001 9.27002 38.7201 11.09 38.7201 13.32C38.7201 15.55 36.9001 17.37 34.6701 17.37ZM34.6701 11.26C33.5401 11.26 32.6201 12.18 32.6201 13.31C32.6201 14.44 33.5401 15.36 34.6701 15.36C35.8001 15.36 36.7201 14.44 36.7201 13.31C36.7201 12.18 35.8001 11.26 34.6701 11.26Z" fill="#323232"/>
<path d="M26.9697 24.56C28.9248 24.56 30.5097 22.9751 30.5097 21.02C30.5097 19.0649 28.9248 17.48 26.9697 17.48C25.0146 17.48 23.4297 19.0649 23.4297 21.02C23.4297 22.9751 25.0146 24.56 26.9697 24.56Z" fill="#8DE2E0"/>
<path d="M26.9697 25.55C24.4697 25.55 22.4297 23.51 22.4297 21.01C22.4297 18.51 24.4597 16.47 26.9697 16.47C29.4797 16.47 31.5097 18.51 31.5097 21.01C31.5097 22.22 31.0397 23.36 30.1797 24.22C29.3197 25.08 28.1797 25.55 26.9697 25.55ZM26.9697 18.48C25.5697 18.48 24.4297 19.62 24.4297 21.02C24.4297 22.42 25.5697 23.56 26.9697 23.56C27.6497 23.56 28.2797 23.3 28.7597 22.82C29.2397 22.34 29.4997 21.7 29.4997 21.03C29.4997 19.63 28.3597 18.49 26.9597 18.49L26.9697 18.48Z" fill="#323232"/>
</svg>
