<svg width="48" height="48" viewBox="0 0 48 48" fill="none" xmlns="http://www.w3.org/2000/svg">
<path d="M8.9807 45.2198C11.7507 45.2198 13.9907 42.9998 13.9907 40.2598C13.9907 37.5198 11.7507 35.2998 8.9807 35.2998C6.2107 35.2998 3.9707 37.5198 3.9707 40.2598C3.9707 42.9998 6.2107 45.2198 8.9807 45.2198Z" fill="#8DE2E0"/>
<path d="M8.9807 46.2198C5.6707 46.2198 2.9707 43.5498 2.9707 40.2598C2.9707 36.9698 5.6607 34.2998 8.9807 34.2998C12.3007 34.2998 14.9907 36.9698 14.9907 40.2598C14.9907 43.5498 12.3007 46.2198 8.9807 46.2198ZM8.9807 36.3098C6.7707 36.3098 4.9707 38.0898 4.9707 40.2698C4.9707 42.4498 6.7707 44.2298 8.9807 44.2298C11.1907 44.2298 12.9907 42.4498 12.9907 40.2698C12.9907 38.0898 11.1907 36.3098 8.9807 36.3098Z" fill="#323232"/>
<path d="M25.4305 46.2202C20.5505 46.2102 16.5705 42.2602 16.5605 37.4302V19.7202C16.5605 17.9302 15.0805 16.4702 13.2705 16.4702C11.4705 16.4702 9.99047 17.9402 9.98047 19.7202V35.3002C9.98047 35.8502 9.53047 36.3002 8.98047 36.3002C8.43047 36.3002 7.98047 35.8502 7.98047 35.3002V19.7202C7.98047 16.8302 10.3605 14.4802 13.2705 14.4702C16.1805 14.4702 18.5605 16.8302 18.5605 19.7202V37.4302C18.5705 41.1602 21.6505 44.2102 25.4305 44.2202C29.2005 44.2102 32.2805 41.1602 32.3005 37.4302V36.5202C32.3005 35.9702 32.7505 35.5202 33.3005 35.5202C33.8505 35.5202 34.3005 35.9702 34.3005 36.5202V37.4302C34.2905 42.2602 30.3105 46.2102 25.4305 46.2202Z" fill="#323232"/>
<path d="M44.0299 17.46C43.4799 17.46 43.0299 17.01 43.0299 16.46V5.55998C43.0299 4.54998 42.1999 3.72998 41.1699 3.72998C40.6199 3.72998 40.1699 3.27998 40.1699 2.72998C40.1699 2.17998 40.6199 1.72998 41.1699 1.72998C43.2999 1.72998 45.0299 3.44998 45.0299 5.55998V16.46C45.0299 17.01 44.5799 17.46 44.0299 17.46Z" fill="#323232"/>
<path d="M22.5703 17.46C22.0203 17.46 21.5703 17.01 21.5703 16.46V5.55998C21.5703 3.44998 23.3003 1.72998 25.4303 1.72998C25.9803 1.72998 26.4303 2.17998 26.4303 2.72998C26.4303 3.27998 25.9803 3.72998 25.4303 3.72998C24.4003 3.72998 23.5703 4.54998 23.5703 5.55998V16.46C23.5703 17.01 23.1203 17.46 22.5703 17.46Z" fill="#323232"/>
<path d="M33.3008 34.4802C32.7508 34.4802 32.3008 34.0302 32.3008 33.4802V28.9302C32.3008 28.3802 32.7508 27.9302 33.3008 27.9302C33.8508 27.9302 34.3008 28.3802 34.3008 28.9302V33.4802C34.3008 34.0302 33.8508 34.4802 33.3008 34.4802Z" fill="#DF0000"/>
<path d="M33.3008 32.9702C32.7508 32.9702 32.3008 32.5202 32.3008 31.9702V28.9302C32.3008 28.3802 32.7508 27.9302 33.3008 27.9302C33.8508 27.9302 34.3008 28.3802 34.3008 28.9302V31.9702C34.3008 32.5202 33.8508 32.9702 33.3008 32.9702Z" fill="#DF0000"/>
<path d="M33.2997 29.9302C27.5597 29.9302 22.6197 25.6502 21.7997 19.9702C21.7197 19.4202 22.0997 18.9202 22.6497 18.8402C23.1997 18.7602 23.6997 19.1402 23.7797 19.6902C24.4497 24.3902 28.5397 27.9402 33.2897 27.9402C38.0397 27.9402 42.1297 24.3902 42.7997 19.6902C42.8797 19.1402 43.3897 18.7702 43.9297 18.8402C44.4797 18.9202 44.8597 19.4202 44.7797 19.9702C43.9697 25.6502 39.0297 29.9302 33.2897 29.9302H33.2997Z" fill="#DF0000"/>
</svg>
