<svg width="48" height="48" viewBox="0 0 48 48" fill="none" xmlns="http://www.w3.org/2000/svg">
<path d="M39.2598 17.76H34.4698V13.99C34.4698 13.44 34.0198 12.99 33.4698 12.99H25.1598V10.35C25.1598 10.35 25.1398 10.29 25.1398 10.25H32.4498C32.9998 10.25 33.4498 9.8 33.4498 9.25C33.4498 8.7 32.9998 8.25 32.4498 8.25H15.8598C15.3098 8.25 14.8598 8.7 14.8598 9.25C14.8598 9.8 15.3098 10.25 15.8598 10.25H23.1698C23.1698 10.25 23.1498 10.31 23.1498 10.35V12.99H16.8598C15.4998 12.99 14.3998 14.09 14.3998 15.45C14.3998 15.72 14.1798 15.94 13.9098 15.94H9.26984C8.71984 15.94 8.26984 16.39 8.26984 16.94V24.29H4.83984V17.28C4.83984 16.73 4.38984 16.28 3.83984 16.28C3.28984 16.28 2.83984 16.73 2.83984 17.28V33.3C2.83984 33.85 3.28984 34.3 3.83984 34.3C4.38984 34.3 4.83984 33.85 4.83984 33.3V26.29H8.26984V33.41C8.26984 33.96 8.71984 34.41 9.26984 34.41H12.8098C13.6698 34.41 14.4998 34.71 15.1598 35.25L19.3198 38.68C20.1498 39.37 21.2098 39.75 22.2898 39.75H37.4698C39.0098 39.75 40.2598 38.5 40.2598 36.96V18.75C40.2598 18.2 39.8098 17.75 39.2598 17.75V17.76ZM38.2598 36.96C38.2598 37.39 37.9098 37.75 37.4698 37.75H22.2898C21.6698 37.75 21.0698 37.53 20.5898 37.14L16.4298 33.71C15.4098 32.87 14.1198 32.41 12.8098 32.41H10.2698V17.94H13.9098C15.2798 17.94 16.3998 16.82 16.3998 15.45C16.3998 15.2 16.6098 14.99 16.8598 14.99H32.4598V18.76C32.4598 19.31 32.9098 19.76 33.4598 19.76H38.2498V36.97L38.2598 36.96Z" fill="#323232"/>
<path d="M44.1602 19.6904C43.6102 19.6904 43.1602 20.1404 43.1602 20.6904V36.7104C43.1602 37.2604 43.6102 37.7104 44.1602 37.7104C44.7102 37.7104 45.1602 37.2604 45.1602 36.7104V20.6904C45.1602 20.1404 44.7102 19.6904 44.1602 19.6904Z" fill="#323232"/>
<path d="M33.4398 23.9297H14.0098C13.4598 23.9297 13.0098 23.4797 13.0098 22.9297C13.0098 22.3797 13.4598 21.9297 14.0098 21.9297H33.4298C33.9798 21.9297 34.4298 22.3797 34.4298 22.9297C34.4298 23.4797 33.9798 23.9297 33.4298 23.9297H33.4398Z" fill="#8DE2E0"/>
<path d="M33.4398 29.3398H14.0098C13.4598 29.3398 13.0098 28.8898 13.0098 28.3398C13.0098 27.7898 13.4598 27.3398 14.0098 27.3398H33.4298C33.9798 27.3398 34.4298 27.7898 34.4298 28.3398C34.4298 28.8898 33.9798 29.3398 33.4298 29.3398H33.4398Z" fill="#8DE2E0"/>
</svg>
