<svg width="24" height="24" viewBox="0 0 24 24" fill="none" xmlns="http://www.w3.org/2000/svg">
<g clip-path="url(#clip0_16335_8182)">
<path d="M23.6789 14.7568C25.2013 8.30659 21.2066 1.84354 14.7564 0.321152C8.30617 -1.20123 1.84311 2.79355 0.320729 9.24374C-1.20165 15.6939 2.79312 22.157 9.24332 23.6794C15.6935 25.2018 22.1566 21.207 23.6789 14.7568Z" fill="white"/>
<mask id="mask0_16335_8182" style="mask-type:luminance" maskUnits="userSpaceOnUse" x="-1" y="-1" width="26" height="26">
<path d="M23.6789 14.7565C25.2013 8.30635 21.2066 1.84329 14.7564 0.320908C8.30617 -1.20148 1.84311 2.7933 0.320729 9.2435C-1.20165 15.6937 2.79312 22.1567 9.24332 23.6791C15.6935 25.2015 22.1566 21.2067 23.6789 14.7565Z" fill="white"/>
</mask>
<g mask="url(#mask0_16335_8182)">
<path d="M30.0007 0H-5.99933V8.00047H30.0007V0Z" fill="#007C29"/>
<path d="M30.0007 15.9995H-5.99933V24H30.0007V15.9995Z" fill="#FF0000"/>
<path d="M30.0007 8.00049H-5.99933V16.001H30.0007V8.00049Z" fill="#FED700"/>
<path fill-rule="evenodd" clip-rule="evenodd" d="M12 19.8831C16.3419 19.8831 19.883 16.3419 19.883 12C19.883 7.65811 16.3419 4.11694 12 4.11694C7.65805 4.11694 4.11688 7.65811 4.11688 12C4.11688 16.3419 7.65805 19.8831 12 19.8831Z" fill="#003399"/>
<path fill-rule="evenodd" clip-rule="evenodd" d="M5.86932 9.98636H10.5536L11.6073 6.74285L11.9022 7.6512L10.3817 12.3313L9.90379 11.9847L10.3705 10.5467H6.64352L5.86932 9.98496V9.98636ZM12 5.53125L11.7051 6.4396L12.858 9.98636H11.3404L11.1573 10.5481H16.0806L16.8548 9.98636H13.4478L12 5.53125ZM13.1012 10.7354H13.6909L14.1577 12.1734L17.1748 9.98636H18.132L14.3407 12.7338L15.3958 15.9787L14.623 15.4141L13.1026 10.734L13.1012 10.7354ZM15.4936 16.2833L12.4779 14.0837L13.7035 13.1963L13.5218 12.6345L9.53906 15.5301L9.2428 16.4412L12 14.4303L15.7899 17.1945L15.4936 16.2833ZM8.98427 16.6299L10.1372 13.0803L11.3627 13.9677L11.8393 13.6198L7.85791 10.734H6.90205L9.65924 12.7324L8.21007 17.1917L8.98287 16.6271L8.98427 16.6299Z" fill="#FED700"/>
<path d="M12.0908 14.9346H11.9036V18.3975H12.0908V14.9346Z" fill="#FED700"/>
<path d="M15.7124 6.72702L13.6716 9.52466L13.8229 9.63502L15.8637 6.83738L15.7124 6.72702Z" fill="#FED700"/>
<path d="M9.15055 12.7986L5.85919 13.875L5.9174 14.053L9.20876 12.9766L9.15055 12.7986Z" fill="#FED700"/>
<path d="M14.8507 12.7996L14.7925 12.9775L18.0838 14.054L18.1421 13.876L14.8507 12.7996Z" fill="#FED700"/>
<path d="M8.28782 6.72753L8.13654 6.83789L10.1774 9.63553L10.3286 9.52517L8.28782 6.72753Z" fill="#FED700"/>
</g>
</g>
<rect x="0.25" y="0.25" width="23.5" height="23.5" rx="11.75" stroke="#E5E3E1" stroke-width="0.5"/>
<defs>
<clipPath id="clip0_16335_8182">
<rect width="24" height="24" rx="12" fill="white"/>
</clipPath>
</defs>
</svg>
