<svg width="48" height="48" viewBox="0 0 48 48" fill="none" xmlns="http://www.w3.org/2000/svg">
<path d="M44.3199 7.81015C44.1799 7.52015 43.9099 7.31016 43.5899 7.26016C43.2699 7.20016 42.9399 7.31015 42.7099 7.54015L37.7299 12.5202L36.0299 11.9702L35.4799 10.2702L40.4599 5.29015C40.6899 5.06015 40.7899 4.73015 40.7399 4.41015C40.6899 4.09015 40.4799 3.82016 40.1899 3.68016C36.8399 2.08016 32.8299 2.76016 30.2099 5.38016C27.9699 7.62016 27.1299 10.9202 27.9699 13.9502L13.9399 27.9702C10.9099 27.1202 7.6099 27.9702 5.3699 30.2102C2.7499 32.8302 2.0699 36.8402 3.6699 40.1902C3.8099 40.4802 4.0799 40.6902 4.3999 40.7402C4.7199 40.7902 5.0499 40.6902 5.2799 40.4602L10.2599 35.4802L11.9599 36.0302L12.5099 37.7302L7.5299 42.7102C7.2999 42.9402 7.1999 43.2702 7.2499 43.5902C7.2999 43.9102 7.5099 44.1802 7.7999 44.3202C9.0099 44.9002 10.2999 45.1802 11.5799 45.1802C13.8599 45.1802 16.0999 44.3002 17.7799 42.6202C20.0199 40.3802 20.8599 37.0802 20.0199 34.0502L34.0499 20.0302C37.0799 20.8802 40.3799 20.0302 42.6199 17.7902C45.2399 15.1702 45.9199 11.1602 44.3199 7.81015ZM41.2099 16.3702C39.3599 18.2202 36.5799 18.8302 34.1199 17.9402C33.7599 17.8102 33.3499 17.9002 33.0699 18.1702L18.1799 33.0602C18.0899 33.1502 18.0299 33.2502 17.9799 33.3602C17.9799 33.3802 17.9699 33.4002 17.9599 33.4202C17.9199 33.5202 17.8999 33.6202 17.8999 33.7302C17.8999 33.7402 17.8999 33.7502 17.8999 33.7702V33.7902C17.8999 33.8302 17.8999 33.8602 17.9099 33.9002C17.9099 33.9202 17.9099 33.9402 17.9099 33.9702C17.9099 33.9902 17.9199 34.0102 17.9299 34.0402C17.9299 34.0702 17.9299 34.0902 17.9499 34.1202C18.8399 36.5802 18.2199 39.3702 16.3799 41.2102C14.7099 42.8802 12.3199 43.5302 10.0699 43.0102L14.3599 38.7202C14.6299 38.4502 14.7199 38.0602 14.5999 37.7002L13.6999 34.9402C13.5999 34.6402 13.3599 34.4002 13.0599 34.3002L10.2999 33.4002C9.9399 33.2802 9.5499 33.3802 9.2799 33.6402L4.9899 37.9302C4.4699 35.6902 5.1199 33.2902 6.7899 31.6202C8.6399 29.7802 11.4199 29.1602 13.8799 30.0502C13.9899 30.0902 14.0999 30.1002 14.2099 30.1002C14.2099 30.1002 14.2199 30.1002 14.2299 30.1002C14.2399 30.1002 14.2599 30.1002 14.2699 30.1002C14.3699 30.1002 14.4599 30.0802 14.5599 30.0402C14.5899 30.0302 14.6199 30.0202 14.6499 30.0102C14.7499 29.9602 14.8499 29.9002 14.9399 29.8202L29.8299 14.9302C30.0999 14.6602 30.1999 14.2502 30.0599 13.8802C29.1699 11.4202 29.7899 8.63016 31.6299 6.79015C33.2999 5.12015 35.6899 4.47015 37.9399 4.99015L33.6499 9.28015C33.3799 9.55015 33.2899 9.94016 33.4099 10.3002L34.3099 13.0602C34.4099 13.3602 34.6499 13.6002 34.9499 13.7002L37.7099 14.6002C38.0699 14.7202 38.4599 14.6202 38.7299 14.3602L43.0199 10.0702C43.5399 12.3102 42.8899 14.7102 41.2199 16.3802L41.2099 16.3702Z" fill="#323232"/>
<path d="M17.5806 31.4201C17.3206 31.4201 17.0706 31.3201 16.8706 31.1301C16.4806 30.7401 16.4806 30.1101 16.8706 29.7201L29.9706 16.6201C30.3606 16.2301 30.9906 16.2301 31.3806 16.6201C31.7706 17.0101 31.7706 17.6401 31.3806 18.0301L18.2806 31.1301C18.0806 31.3301 17.8306 31.4201 17.5706 31.4201H17.5806Z" fill="#8DE2E0"/>
</svg>
