<svg width="48" height="48" viewBox="0 0 48 48" fill="none" xmlns="http://www.w3.org/2000/svg">
<path d="M11.1309 36.2598L11.9209 44.1098H36.0609L36.8709 36.2598H11.1309Z" fill="#8DE2E0"/>
<path d="M42.1209 2.83008H5.88086C5.33086 2.83008 4.88086 3.28008 4.88086 3.83008C4.88086 4.38008 5.33086 4.83008 5.88086 4.83008H6.99086L10.9309 44.2101C10.9809 44.7201 11.4109 45.1101 11.9309 45.1101H36.1009C36.6109 45.1101 37.0409 44.7201 37.1009 44.2101L41.0409 4.83008H42.1509C42.7009 4.83008 43.1509 4.38008 43.1509 3.83008C43.1509 3.28008 42.7009 2.83008 42.1509 2.83008H42.1209ZM10.6409 21.2501H37.3709L37.2009 22.9801H10.8109L10.6409 21.2501ZM11.0109 24.9701H36.9909L36.8109 26.7201H11.1809L11.0009 24.9701H11.0109ZM39.0109 4.83008L37.5709 19.2401H10.4409L9.00086 4.83008H39.0109ZM35.1809 43.1101H12.8209L11.3809 28.7201H36.6109L35.1709 43.1101H35.1809Z" fill="#323232"/>
</svg>
