<svg width="48" height="48" viewBox="0 0 48 48" fill="none" xmlns="http://www.w3.org/2000/svg">
<path d="M38.9103 15.6501V12.4601C38.9103 12.1401 38.6703 11.8701 38.3703 11.8701H35.1103C34.8103 11.8701 34.5703 12.1301 34.5703 12.4601V15.6501" fill="#8DE2E0"/>
<path d="M18.0906 32.5299C22.3432 32.5299 25.7906 29.0825 25.7906 24.8299C25.7906 20.5773 22.3432 17.1299 18.0906 17.1299C13.838 17.1299 10.3906 20.5773 10.3906 24.8299C10.3906 29.0825 13.838 32.5299 18.0906 32.5299Z" fill="#DF0000"/>
<path d="M16.8793 28.46C16.6093 28.46 16.3593 28.35 16.1693 28.17L13.7593 25.76C13.3693 25.37 13.3693 24.74 13.7593 24.35C14.1493 23.96 14.7793 23.96 15.1693 24.35L16.8793 26.06L20.9993 21.94C21.3893 21.55 22.0193 21.55 22.4093 21.94C22.7993 22.33 22.7993 22.96 22.4093 23.35L17.5793 28.18C17.3893 28.37 17.1393 28.47 16.8693 28.47L16.8793 28.46Z" fill="white"/>
<path d="M38.7692 37.5H34.6992V43.64H38.7692V37.5Z" fill="#8DE2E0"/>
<path d="M44.2505 36.4998H42.5705V18.3598C42.5705 16.6798 41.4505 15.2798 39.9105 14.8198V12.4498C39.9105 11.5798 39.2205 10.8598 38.3705 10.8598H37.7405V4.2998C37.7405 3.7498 37.2905 3.2998 36.7405 3.2998C36.1905 3.2998 35.7405 3.7498 35.7405 4.2998V10.8598H35.1105C34.2605 10.8598 33.5705 11.5698 33.5705 12.4498V14.8198C32.0405 15.2798 30.9205 16.6798 30.9105 18.3598V36.4998H29.2305C28.6805 36.4998 28.2305 36.9498 28.2305 37.4998C28.2305 38.0498 28.6805 38.4998 29.2305 38.4998H33.7005V42.6398H32.4205C31.8705 42.6398 31.4205 43.0898 31.4205 43.6398C31.4205 44.1898 31.8705 44.6398 32.4205 44.6398H41.0505C41.6005 44.6398 42.0505 44.1898 42.0505 43.6398C42.0505 43.0898 41.6005 42.6398 41.0505 42.6398H39.7705V38.4998H44.2505C44.8005 38.4998 45.2505 38.0498 45.2505 37.4998C45.2505 36.9498 44.8005 36.4998 44.2505 36.4998ZM37.9105 12.8698V14.6498H35.5605V12.8698H37.9105ZM37.7705 42.6398H35.7005V38.4998H37.7705V42.6398ZM38.7705 36.4998H32.9005V18.3598C32.9005 17.4098 33.6705 16.6398 34.6105 16.6398H38.8405C39.7905 16.6398 40.5505 17.4098 40.5505 18.3498V19.5698H37.4805C36.9305 19.5698 36.4805 20.0198 36.4805 20.5698C36.4805 21.1198 36.9305 21.5698 37.4805 21.5698H40.5505V23.8198H37.4805C36.9305 23.8198 36.4805 24.2698 36.4805 24.8198C36.4805 25.3698 36.9305 25.8198 37.4805 25.8198H40.5505V28.0698H37.4805C36.9305 28.0698 36.4805 28.5198 36.4805 29.0698C36.4805 29.6198 36.9305 30.0698 37.4805 30.0698H40.5505V32.3198H37.4805C36.9305 32.3198 36.4805 32.7698 36.4805 33.3198C36.4805 33.8698 36.9305 34.3198 37.4805 34.3198H40.5505V36.4898H38.7605L38.7705 36.4998Z" fill="#323232"/>
<path d="M24.3298 39.3897C21.5098 41.5397 18.6798 42.2597 17.9798 42.4197C16.3398 42.0697 4.83984 39.1097 4.83984 23.9497V13.0697L17.9898 7.66971L29.5698 12.4197C30.0798 12.6297 30.6698 12.3897 30.8698 11.8697C31.0798 11.3597 30.8398 10.7697 30.3298 10.5597L18.3698 5.64971C18.1298 5.54971 17.8498 5.54971 17.6098 5.64971L3.45984 11.4797C3.07984 11.6297 2.83984 11.9997 2.83984 12.4097V23.9597C2.83984 41.6497 17.6698 44.4097 17.8198 44.4297C17.8798 44.4297 17.9298 44.4397 17.9898 44.4397C18.0498 44.4397 18.0998 44.4397 18.1598 44.4297C18.3098 44.3997 21.8998 43.7597 25.5398 40.9897C25.9798 40.6597 26.0598 40.0297 25.7298 39.5897C25.3998 39.1497 24.7698 39.0597 24.3298 39.3997V39.3897Z" fill="#323232"/>
</svg>
