<svg width="24" height="24" viewBox="0 0 24 24" fill="none" xmlns="http://www.w3.org/2000/svg">
<path fill-rule="evenodd" clip-rule="evenodd" d="M18.5709 13.9216C18.5904 14.1226 18.6038 14.3247 18.6038 14.5296C18.6038 15.1721 18.3442 16.3338 18.3442 16.3338C18.3334 16.3804 18.3202 16.4331 18.3155 16.4508C18.3102 16.4694 18.2658 16.4829 18.2181 16.4829H17.4583C17.4117 16.4829 17.3819 16.4561 17.3922 16.422C17.4036 16.3893 17.4231 16.324 17.4351 16.2775C17.4351 16.2775 17.7207 15.1545 17.7207 14.5296C17.7207 14.3732 17.7137 14.2164 17.7004 14.0628C18.0034 14.0225 18.2968 13.9758 18.5709 13.9216ZM5.54552 14.4882C5.82581 14.4975 6.12278 14.5206 6.42898 14.5597C6.43632 15.111 6.64775 16.0127 6.70049 16.2295L6.71232 16.2775C6.72452 16.324 6.743 16.3893 6.75501 16.422C6.76587 16.4561 6.73681 16.4829 6.68908 16.4829H5.93023C5.88193 16.4829 5.83839 16.4694 5.83248 16.4508C5.82858 16.4331 5.81467 16.3804 5.80485 16.3338C5.80485 16.3338 5.54533 15.1704 5.54533 14.5296L5.54552 14.4882ZM14.5513 12.5112C15.0384 12.4076 16.0733 12.7313 17.4672 12.9195C18.1059 13.0047 20.1945 12.9558 20.6344 13.0084C20.7394 13.0204 21.1273 13.1329 20.9576 13.147C20.05 13.2225 18.8726 13.6559 17.3858 13.8146C15.9 13.9742 15.3778 13.4836 14.1357 13.9925C14.1357 13.9925 12.0638 14.8367 11.831 14.965L11.8056 14.9796C11.445 15.1811 11.1053 15.37 10.3458 15.5084C9.96397 15.579 9.7176 15.5952 9.53868 15.6084C9.39996 15.617 9.29945 15.6231 9.20979 15.65C8.97009 15.7214 8.58967 15.7016 8.58967 15.7016C8.7119 15.6237 9.01363 15.3225 9.0061 15.1381C9.00248 15.0708 8.95246 15.0136 8.85119 14.9638C7.54015 14.3119 5.90279 14.1444 4.80678 14.2069C4.232 14.2396 3.61626 14.2756 2.52577 14.4975C1.98148 14.608 1.52265 14.6809 1.38974 14.6987C1.2575 14.7177 0.809246 14.6873 1.09163 14.5999C1.09163 14.5999 1.18758 14.5749 1.3498 14.5321L1.5744 14.4729C2.41646 14.2502 4.12932 13.792 4.81507 13.5697C6.70365 12.9612 10.2551 14.1349 10.5208 14.2002L10.6134 14.1796C10.7597 14.1465 11.0256 14.0857 11.0369 14.0835C11.9109 13.6422 14.069 12.6154 14.5513 12.5112ZM7.38723 11.3832C7.03463 11.9053 6.77063 12.4932 6.60876 13.1203C6.28274 13.1017 5.97987 13.1017 5.70186 13.1221C5.82581 12.5628 6.01865 12.0291 6.27598 11.5343C6.74576 11.446 7.09494 11.4063 7.38723 11.3832ZM16.4971 11.0254L16.5626 11.0314C16.8526 11.0614 17.1778 11.0911 17.6015 11.0622C17.9147 11.5592 18.1631 12.1026 18.3337 12.6784C17.9848 12.6711 17.6828 12.6582 17.5058 12.6334C17.4659 12.6297 17.4266 12.6225 17.3858 12.6165C17.1759 12.036 16.8733 11.5001 16.4971 11.0254ZM15.5001 9.73805C15.8863 9.65593 16.7083 9.91155 17.8109 10.0599C18.0133 10.0868 18.3996 10.097 18.8126 10.1022L19.2286 10.1061C19.7108 10.1098 20.158 10.112 20.3205 10.1313C20.4028 10.1403 20.7106 10.2298 20.5758 10.24C19.8565 10.3004 18.9237 10.6443 17.7467 10.7687C16.5677 10.896 16.1546 10.5063 15.1704 10.9091C15.1704 10.9091 13.5306 11.579 13.3458 11.6823L13.3255 11.6937C13.0399 11.8517 12.77 12.0019 12.1679 12.1124C11.8656 12.1673 11.6705 12.1811 11.5276 12.1907C11.4185 12.1972 11.3392 12.2035 11.2675 12.225L11.192 12.2426C11.0074 12.2767 10.776 12.2646 10.776 12.2646C10.8731 12.2048 11.1134 11.9641 11.1068 11.8192C11.1042 11.7652 11.0651 11.72 10.9847 11.6811C9.94501 11.1641 8.64712 11.0316 7.77995 11.0801C7.32331 11.1064 6.83513 11.1355 5.97091 11.31C5.54143 11.3976 5.17653 11.4576 5.07192 11.4718C4.96608 11.4856 4.61138 11.4608 4.83412 11.3932C4.83412 11.3932 4.87185 11.3834 4.9391 11.3657L5.11052 11.3206C5.72825 11.1575 7.21164 10.7622 7.78747 10.5759C9.28268 10.0928 12.0965 11.024 12.3066 11.0752L12.7161 10.9828C13.4084 10.6342 15.1185 9.81989 15.5001 9.73805ZM12.0747 8C13.6576 8 15.1087 8.56592 16.2408 9.50502C15.907 9.44966 15.6449 9.42366 15.4409 9.4671C15.3362 9.48968 15.1495 9.55847 14.918 9.65364C14.0813 9.16461 13.1105 8.88203 12.0747 8.88203C10.7129 8.88203 9.46131 9.36668 8.48525 10.1728C8.19105 10.1934 7.92924 10.2399 7.70116 10.3133C7.51442 10.3736 7.22699 10.4574 6.9043 10.546C8.09978 8.99969 9.97236 8 12.0747 8Z" fill="#0E2855"/>
</svg>
