<svg width="24" height="24" viewBox="0 0 24 24" fill="none" xmlns="http://www.w3.org/2000/svg">
<g clip-path="url(#clip0_16335_5393)">
<path d="M23.6789 14.7568C25.2013 8.30659 21.2066 1.84354 14.7564 0.321152C8.30617 -1.20123 1.84311 2.79355 0.320729 9.24374C-1.20165 15.6939 2.79312 22.157 9.24332 23.6794C15.6935 25.2018 22.1566 21.207 23.6789 14.7568Z" fill="white"/>
<mask id="mask0_16335_5393" style="mask-type:luminance" maskUnits="userSpaceOnUse" x="-1" y="-1" width="26" height="26">
<path d="M23.6789 14.7568C25.2013 8.30659 21.2066 1.84354 14.7564 0.321152C8.30617 -1.20123 1.84311 2.79355 0.320729 9.24374C-1.20165 15.6939 2.79312 22.157 9.24332 23.6794C15.6935 25.2018 22.1566 21.207 23.6789 14.7568Z" fill="white"/>
</mask>
<g mask="url(#mask0_16335_5393)">
<path d="M29.9644 0H-5.96436V24H29.9644V0Z" fill="#003399"/>
<path fill-rule="evenodd" clip-rule="evenodd" d="M12.7533 7.39954C14.7237 7.71955 16.2805 9.27633 16.6005 11.2467L16.2707 11.1475C15.9283 9.42585 14.5728 8.07032 12.8511 7.72934L12.7519 7.39954H12.7533ZM16.6005 12.7532C16.2805 14.725 14.7237 16.2804 12.7533 16.6004L12.8525 16.2706C14.5742 15.9282 15.9297 14.5727 16.2707 12.851L16.6005 12.7518V12.7532ZM11.2468 16.6004C9.27498 16.2804 7.71961 14.7236 7.39959 12.7532L7.72939 12.8524C8.07177 14.5741 9.42731 15.9296 11.149 16.272L11.2482 16.6018L11.2468 16.6004ZM7.39959 11.2467C7.71961 9.27633 9.27638 7.71955 11.2468 7.39954L11.1476 7.72934C9.42591 8.07032 8.07037 9.42725 7.72799 11.1475L7.39819 11.2467H7.39959Z" fill="white"/>
<path d="M25.6183 11.8463H18.814V12.1524H25.6183V11.8463Z" fill="white"/>
<path d="M12.1524 2.37573H11.8463V5.18742H12.1524V2.37573Z" fill="white"/>
<path d="M5.18601 11.8463H-1.61823V12.1524H5.18601V11.8463Z" fill="white"/>
<path d="M12.1524 18.814H11.8463V21.6257H12.1524V18.814Z" fill="white"/>
<path fill-rule="evenodd" clip-rule="evenodd" d="M10.5998 10.5997L12 5.96851V11.9999L10.9338 10.9337L6.45349 11.8532L10.5998 10.5997Z" fill="white"/>
<path fill-rule="evenodd" clip-rule="evenodd" d="M10.5998 13.4003L5.96857 12H12L10.9337 13.0663L11.8533 17.5465L10.5998 13.4003Z" fill="white"/>
<path fill-rule="evenodd" clip-rule="evenodd" d="M13.4017 13.4003L12 18.0314V12L13.0663 13.0663L17.5465 12.1467L13.4017 13.4003Z" fill="white"/>
<path fill-rule="evenodd" clip-rule="evenodd" d="M13.4003 10.5998L18.0314 12H12L13.0663 10.9338L12.1467 6.45349L13.4003 10.5998Z" fill="white"/>
</g>
</g>
<rect x="0.25" y="0.25" width="23.5" height="23.5" rx="11.75" stroke="#E5E3E1" stroke-width="0.5"/>
<defs>
<clipPath id="clip0_16335_5393">
<rect width="24" height="24" rx="12" fill="white"/>
</clipPath>
</defs>
</svg>
