<svg width="24" height="24" viewBox="0 0 24 24" fill="none" xmlns="http://www.w3.org/2000/svg">
<path fill-rule="evenodd" clip-rule="evenodd" d="M12 22C17.5228 22 22 17.5228 22 12C22 6.47715 17.5228 2 12 2C6.47715 2 2 6.47715 2 12C2 17.5228 6.47715 22 12 22ZM18.6667 12C18.6667 11.193 18.0117 10.538 17.2047 10.538C16.807 10.538 16.4561 10.6901 16.1988 10.9474C15.2047 10.2339 13.8246 9.76608 12.3041 9.7076L12.9708 6.58479L15.1345 7.04094C15.1579 7.59064 15.614 8.03509 16.1754 8.03509C16.7485 8.03509 17.2164 7.56725 17.2164 6.99415C17.2164 6.42105 16.7485 5.95322 16.1754 5.95322C15.7661 5.95322 15.4152 6.18713 15.2515 6.53801L12.8304 6.02339C12.7602 6.0117 12.6901 6.02339 12.6316 6.05848C12.5731 6.09357 12.538 6.15205 12.5146 6.22222L11.7778 9.7076C10.2222 9.75439 8.83041 10.2105 7.82456 10.9474C7.56725 10.7018 7.20468 10.538 6.81871 10.538C6.0117 10.538 5.35673 11.193 5.35673 12C5.35673 12.5965 5.7076 13.0994 6.22222 13.3333C6.19883 13.4737 6.18713 13.6257 6.18713 13.7778C6.18713 16.0234 8.79532 17.8363 12.0234 17.8363C15.2515 17.8363 17.8596 16.0234 17.8596 13.7778C17.8596 13.6257 17.848 13.4854 17.8246 13.345C18.3041 13.1111 18.6667 12.5965 18.6667 12ZM8.66667 13.0409C8.66667 12.4678 9.1345 12 9.7076 12C10.2807 12 10.7485 12.4678 10.7485 13.0409C10.7485 13.614 10.2807 14.0819 9.7076 14.0819C9.1345 14.0819 8.66667 13.614 8.66667 13.0409ZM12.0117 16.5497C12.4094 16.5497 13.7661 16.5029 14.4795 15.7895C14.5848 15.6842 14.5848 15.5205 14.5029 15.4035C14.3977 15.2982 14.2222 15.2982 14.117 15.4035C13.6608 15.848 12.7135 16.0117 12.0234 16.0117C11.3333 16.0117 10.3743 15.848 9.92982 15.4035C9.82456 15.2982 9.64912 15.2982 9.54386 15.4035C9.4386 15.5088 9.4386 15.6842 9.54386 15.7895C10.2456 16.4912 11.614 16.5497 12.0117 16.5497ZM14.2924 14.0819C13.7193 14.0819 13.2515 13.614 13.2515 13.0409C13.2515 12.4678 13.7193 12 14.2924 12C14.8655 12 15.3333 12.4678 15.3333 13.0409C15.3333 13.614 14.8655 14.0819 14.2924 14.0819Z" fill="#323232"/>
</svg>
