<svg width="48" height="48" viewBox="0 0 48 48" fill="none" xmlns="http://www.w3.org/2000/svg">
<path d="M40.5305 4.62012H7.48047V22.0501H40.5305V4.62012Z" fill="#8DE2E0"/>
<path d="M21.6195 26.96H19.5495C19.2568 26.96 19.0195 27.1973 19.0195 27.49V29.56C19.0195 29.8527 19.2568 30.09 19.5495 30.09H21.6195C21.9122 30.09 22.1495 29.8527 22.1495 29.56V27.49C22.1495 27.1973 21.9122 26.96 21.6195 26.96Z" fill="#323232"/>
<path d="M14.7895 26.96H12.7195C12.4267 26.96 12.1895 27.1973 12.1895 27.49V29.56C12.1895 29.8527 12.4267 30.09 12.7195 30.09H14.7895C15.0822 30.09 15.3195 29.8527 15.3195 29.56V27.49C15.3195 27.1973 15.0822 26.96 14.7895 26.96Z" fill="#323232"/>
<path d="M21.6195 34.4697H19.5495C19.2568 34.4697 19.0195 34.707 19.0195 34.9997V37.0697C19.0195 37.3624 19.2568 37.5997 19.5495 37.5997H21.6195C21.9122 37.5997 22.1495 37.3624 22.1495 37.0697V34.9997C22.1495 34.707 21.9122 34.4697 21.6195 34.4697Z" fill="#323232"/>
<path d="M14.7895 34.4697H12.7195C12.4267 34.4697 12.1895 34.707 12.1895 34.9997V37.0697C12.1895 37.3624 12.4267 37.5997 12.7195 37.5997H14.7895C15.0822 37.5997 15.3195 37.3624 15.3195 37.0697V34.9997C15.3195 34.707 15.0822 34.4697 14.7895 34.4697Z" fill="#323232"/>
<path d="M35.2797 26.96H33.2097C32.917 26.96 32.6797 27.1973 32.6797 27.49V29.56C32.6797 29.8527 32.917 30.09 33.2097 30.09H35.2797C35.5724 30.09 35.8097 29.8527 35.8097 29.56V27.49C35.8097 27.1973 35.5724 26.96 35.2797 26.96Z" fill="#323232"/>
<path d="M28.4496 26.96H26.3796C26.0869 26.96 25.8496 27.1973 25.8496 27.49V29.56C25.8496 29.8527 26.0869 30.09 26.3796 30.09H28.4496C28.7423 30.09 28.9796 29.8527 28.9796 29.56V27.49C28.9796 27.1973 28.7423 26.96 28.4496 26.96Z" fill="#323232"/>
<path d="M35.2797 34.4697H33.2097C32.917 34.4697 32.6797 34.707 32.6797 34.9997V37.0697C32.6797 37.3624 32.917 37.5997 33.2097 37.5997H35.2797C35.5724 37.5997 35.8097 37.3624 35.8097 37.0697V34.9997C35.8097 34.707 35.5724 34.4697 35.2797 34.4697Z" fill="#323232"/>
<path d="M28.4496 34.4697H26.3796C26.0869 34.4697 25.8496 34.707 25.8496 34.9997V37.0697C25.8496 37.3624 26.0869 37.5997 26.3796 37.5997H28.4496C28.7423 37.5997 28.9796 37.3624 28.9796 37.0697V34.9997C28.9796 34.707 28.7423 34.4697 28.4496 34.4697Z" fill="#323232"/>
<path fill-rule="evenodd" clip-rule="evenodd" d="M24.2591 18.7095C27.1391 18.7095 29.4791 16.3695 29.4791 13.4895C29.4791 10.6095 27.1391 8.26953 24.2591 8.26953C21.3791 8.26953 19.0391 10.6095 19.0391 13.4895C19.0391 16.3695 21.3791 18.7095 24.2591 18.7095Z" fill="#DF0000"/>
<path fill-rule="evenodd" clip-rule="evenodd" d="M27.3891 12.1494H25.5991V10.3594H22.9191V12.1494H21.1191V14.8294H22.9191V16.6194H25.5991V14.8294H27.3891V12.1494Z" fill="white"/>
<path d="M43.6803 42.3801H41.5203V4.62012C41.5203 4.07012 41.0703 3.62012 40.5203 3.62012H7.48031C6.93031 3.62012 6.48031 4.07012 6.48031 4.62012V42.3801H4.32031C3.77031 42.3801 3.32031 42.8301 3.32031 43.3801C3.32031 43.9301 3.77031 44.3801 4.32031 44.3801H43.6903C44.2403 44.3801 44.6903 43.9301 44.6903 43.3801C44.6903 42.8301 44.2403 42.3801 43.6903 42.3801H43.6803ZM8.48031 42.3801V5.62012H39.5303V42.3801H8.48031Z" fill="#323232"/>
</svg>
