<svg width="48" height="48" viewBox="0 0 48 48" fill="none" xmlns="http://www.w3.org/2000/svg">
<path d="M6.55078 30.3301L10.3208 35.7401H37.6808L41.4508 30.3301H6.55078Z" fill="#8DE2E0"/>
<path d="M37.6791 36.8402H10.3191C9.98914 36.8402 9.67914 36.6802 9.48914 36.4002L3.03914 26.9802C2.92914 26.8102 2.86914 26.6202 2.86914 26.4202V12.1602C2.86914 11.6102 3.31914 11.1602 3.86914 11.1602H44.1191C44.6691 11.1602 45.1191 11.6102 45.1191 12.1602V26.4202C45.1191 26.6202 45.0591 26.8202 44.9491 26.9802L38.4991 36.4002C38.3091 36.6702 37.9991 36.8402 37.6691 36.8402H37.6791ZM10.8491 34.8402H37.1491L43.1291 26.1102V13.1602H4.87914V26.1102L10.8591 34.8402H10.8491Z" fill="#323232"/>
<path d="M20.0395 18.1602V23.9802C20.0395 25.7402 18.8595 26.8302 17.1195 26.8302C15.3795 26.8302 14.1895 25.7402 14.1895 23.9802V18.1602H15.7995V23.9602C15.7995 24.8202 16.2795 25.3802 17.1095 25.3802C17.9395 25.3802 18.4195 24.8202 18.4195 23.9602V18.1602H20.0295H20.0395Z" fill="#DF0000"/>
<path d="M23.5089 25.2499H26.8489V26.7099H21.8789V18.1699H23.4989V25.2599L23.5089 25.2499Z" fill="#DF0000"/>
<path d="M34.0085 21.0702V23.7902C34.0085 25.5802 32.8685 26.7002 30.9285 26.7002H27.9785V18.1602H30.9285C32.8685 18.1602 34.0085 19.2802 34.0085 21.0702ZM29.5985 19.6202V25.2502H30.9285C31.8685 25.2502 32.3885 24.6802 32.3885 23.7702V21.1002C32.3885 20.1902 31.8685 19.6202 30.9285 19.6202H29.5985Z" fill="#DF0000"/>
</svg>
