<svg width="24" height="24" viewBox="0 0 24 24" fill="none" xmlns="http://www.w3.org/2000/svg">
<rect x="0.25" y="0.25" width="23.5" height="23.5" rx="11.75" fill="white"/>
<rect x="0.25" y="0.25" width="23.5" height="23.5" rx="11.75" stroke="#CCCAC8" stroke-width="0.5"/>
<path d="M15.9999 10.9997H13.3333V11.9997H15.9999V10.9997Z" fill="#323232"/>
<path d="M15.9999 12.9997H13.3333V13.9997H15.9999V12.9997Z" fill="#323232"/>
<path d="M17.3333 7.66634H13.9999V5.66634C13.9999 4.93301 13.3999 4.33301 12.6666 4.33301H11.3333C10.5999 4.33301 9.99992 4.93301 9.99992 5.66634V7.66634H6.66659C5.93325 7.66634 5.33325 8.26634 5.33325 8.99967V16.333C5.33325 17.0663 5.93325 17.6663 6.66659 17.6663H17.3333C18.0666 17.6663 18.6666 17.0663 18.6666 16.333V8.99967C18.6666 8.26634 18.0666 7.66634 17.3333 7.66634ZM11.3333 5.66634H12.6666V8.99967H11.3333V5.66634ZM17.3333 16.333H6.66659V8.99967H9.99992C9.99992 9.73301 10.5999 10.333 11.3333 10.333H12.6666C13.3999 10.333 13.9999 9.73301 13.9999 8.99967H17.3333V16.333Z" fill="#323232"/>
<path d="M9.99992 12.9997C10.5522 12.9997 10.9999 12.552 10.9999 11.9997C10.9999 11.4474 10.5522 10.9997 9.99992 10.9997C9.44763 10.9997 8.99992 11.4474 8.99992 11.9997C8.99992 12.552 9.44763 12.9997 9.99992 12.9997Z" fill="#323232"/>
<path d="M11.3866 13.7863C10.9599 13.5997 10.4933 13.4997 9.99992 13.4997C9.50659 13.4997 9.03992 13.5997 8.61325 13.7863C8.23992 13.9463 7.99992 14.3063 7.99992 14.713V14.9997H11.9999V14.713C11.9999 14.3063 11.7599 13.9463 11.3866 13.7863Z" fill="#323232"/>
</svg>
