<svg width="90" height="73" viewBox="0 0 90 73" fill="none" xmlns="http://www.w3.org/2000/svg">
<g clip-path="url(#clip0_15605_2841)">
<path d="M34.5443 10.3065C28.0761 3.84201 19.3035 0 10.1564 0H0L0.756607 1.98376C7.41756 19.2678 20.0237 11.2832 36.8362 26.6811L37.0264 26.8551C39.288 28.9266 40.8418 27.0065 40.0999 25.7991C39.4178 24.6891 39.499 24.0754 39.5289 23.9489C42.8817 24.8695 45.9258 26.5152 48.4882 28.7035L48.2712 29.1385C47.0097 31.6667 34.5666 30.5971 34.4289 35.8561C34.3912 37.2953 35.2671 38.5464 36.5289 39.0541L38.9824 40.041C47.0438 43.2846 54.2256 48.218 60.1032 54.3917C60.2183 54.5125 60.2136 54.7039 60.0927 54.8188C60.0342 54.8746 59.9591 54.9019 59.8842 54.9019C59.8094 54.9019 59.7509 54.8805 59.6951 54.8357L59.6876 54.8296C51.2 48.0287 41.4312 43.9017 31.402 42.3352C30.6818 42.2225 30.1265 41.6423 30.0487 40.918C28.1549 23.3167 10.7517 22.1218 4.11958 10.8026L22.5099 59.0309H83.0854L34.5443 10.3065Z" fill="white"/>
<path d="M26.4373 72.8956C22.8114 72.8956 20.5088 71.0108 20.5088 68.6468C20.5088 66.2413 22.9469 64.3979 26.5414 64.3979C30.136 64.3979 32.5741 66.2518 32.5741 68.553C32.5741 69.584 32.1156 70.4274 31.2405 71.1357H33.3764L32.8659 72.0105C32.5428 72.5623 32.1469 72.8956 31.2925 72.8956H26.4373ZM26.5414 70.969C28.521 70.969 30.1882 69.9901 30.1882 68.6468C30.1882 67.3034 28.5212 66.3245 26.5414 66.3245C24.5619 66.3245 22.8947 67.3034 22.8947 68.6468C22.8947 69.9904 24.5619 70.969 26.5414 70.969Z" fill="white"/>
<path d="M42.2837 71.4585H36.5741L35.7613 72.8956H33.3962L37.3555 66.0435C37.6681 65.5019 38.1161 65.0854 39.0122 65.0854H39.8978C40.7938 65.0854 41.2419 65.5019 41.5544 66.0435L45.5137 72.8956H43.0965L42.2837 71.4585ZM37.5432 69.7402H41.3148L39.5644 66.6267C39.5227 66.5537 39.4914 66.5329 39.4289 66.5329C39.3664 66.5329 39.3351 66.5537 39.2934 66.6267L37.5432 69.7402Z" fill="white"/>
<path d="M56.7862 65.0854V72.8956H54.6712L48.4614 67.7201V72.8956H46.3464V65.0854H47.6697C48.3468 65.0854 48.6907 65.2625 49.0763 65.5957L54.6714 70.2507V65.0854H56.7862Z" fill="white"/>
<path d="M64.308 66.8453V72.8956H62.193V66.8453H57.8586V65.0854H68.6423V66.8453H64.308Z" fill="white"/>
<path d="M75.6851 71.4585H69.9755L69.1627 72.8956H66.7976L70.7569 66.0435C71.0695 65.5019 71.5175 65.0854 72.4136 65.0854H73.2991C74.1952 65.0854 74.6432 65.5019 74.9558 66.0435L78.9151 72.8956H76.4978L75.6851 71.4585ZM70.9443 69.7402H74.716L72.9655 66.6267C72.9239 66.5537 72.8925 66.5329 72.8301 66.5329C72.7676 66.5329 72.7362 66.5537 72.6946 66.6267L70.9443 69.7402Z" fill="white"/>
<path d="M79.6434 72.3333L79.4454 72.2709L79.9768 70.5735C81.498 71.0629 83.1233 71.2607 84.5923 71.2607C86.9991 71.2607 87.5931 70.9796 87.5931 70.6777C87.5931 70.5526 87.5098 70.4589 87.3222 70.3964C87.0826 70.3132 86.4158 70.1778 84.4466 69.8551C82.2689 69.5011 81.2895 69.324 80.5708 68.9908C79.8518 68.6576 79.4143 68.1265 79.4143 67.3455C79.4143 66.7518 79.7061 66.2729 80.1749 65.8981C81.0085 65.2525 82.4359 64.9922 83.9882 64.9922C85.9886 64.9922 87.6663 65.1589 89.5312 65.617L89.698 65.6691L89.25 67.3249C87.1661 66.8771 86.0096 66.7523 84.426 66.7314C83.3111 66.7209 82.54 66.8042 82.1338 66.9293C81.9046 67.0022 81.8107 67.1065 81.8107 67.2314C81.8107 67.346 81.8837 67.45 82.113 67.523C82.3631 67.6062 82.7693 67.7 84.9053 68.0437C87.2183 68.4186 87.9789 68.5748 88.6145 68.8247C89.4793 69.158 90.0003 69.7725 90.0003 70.5428C90.0003 71.5113 89.25 72.2299 87.9477 72.6255C87.1455 72.865 86.0723 73.0004 84.8637 73.0004C82.967 72.9998 80.9458 72.7498 79.6434 72.3333Z" fill="white"/>
</g>
<defs>
<clipPath id="clip0_15605_2841">
<rect width="90" height="73" fill="white"/>
</clipPath>
</defs>
</svg>
