<svg width="48" height="48" viewBox="0 0 48 48" fill="none" xmlns="http://www.w3.org/2000/svg">
<path d="M24.0207 27.7101L20.9907 22.5701L17.9707 27.7101H24.0207Z" fill="#8DE2E0"/>
<path d="M39.4094 27.7099L33.6294 16.45L27.8594 27.7099H39.4094Z" fill="#8DE2E0"/>
<path d="M45.1896 39.9801C44.8296 39.9801 44.4796 39.7801 44.2996 39.4401L33.6296 18.6501L26.9496 31.6701C26.7796 31.9901 26.4496 32.2001 26.0896 32.2101C25.6996 32.2101 25.3796 32.0301 25.1996 31.7201L20.9896 24.5501L12.2096 39.4901C11.9296 39.9701 11.3196 40.1301 10.8396 39.8501C10.3596 39.5701 10.1996 38.9601 10.4796 38.4801L20.1196 22.0701C20.2996 21.7601 20.6296 21.5801 20.9796 21.5801C21.3296 21.5801 21.6596 21.7701 21.8396 22.0701L25.9896 29.1401L32.7296 16.0101C33.0696 15.3401 34.1696 15.3401 34.5096 16.0101L46.0696 38.5301C46.3196 39.0201 46.1296 39.6201 45.6396 39.8801C45.4896 39.9601 45.3396 39.9901 45.1796 39.9901L45.1896 39.9801Z" fill="#323232"/>
<path d="M7.23054 13.6801L5.61054 11.4201C5.34054 11.0501 4.92054 10.8401 4.47054 10.8401H3.38054C2.98054 10.8401 2.72054 11.2501 2.86054 11.6201L4.76054 16.4401C4.97054 16.9801 5.49054 17.3301 6.07054 17.3301L9.82054 17.3101L7.22054 13.6801" fill="#8DE2E0"/>
<path d="M28.56 13.8501C27.77 13.0501 26.59 12.6401 25.06 12.6401H19.15L13.88 8.73005C12.78 8.00005 11.38 7.82005 10.14 8.25005C9.85997 8.35005 9.63997 8.56005 9.53997 8.83005C9.42997 9.10005 9.44997 9.41005 9.58997 9.67005C9.98997 10.4001 10.73 11.6601 11.32 12.6601H7.72997L6.40997 10.8201C5.95997 10.2001 5.22997 9.83005 4.45997 9.83005H3.35997C2.83997 9.83005 2.35997 10.0901 2.07997 10.5201C1.78997 10.9501 1.72997 11.4901 1.91997 11.9701L3.81997 16.7901C4.18997 17.7201 5.05997 18.3101 6.05997 18.3101H6.06997L9.81997 18.2901H11.57L9.03997 22.8801C8.87997 23.1601 8.86997 23.5001 9.00997 23.7901C9.14997 24.0801 9.41997 24.2901 9.73997 24.3401C10.06 24.4001 10.37 24.4201 10.69 24.4201C11.9 24.4201 13.08 24.0101 14.05 23.2201C15.35 22.0901 18.89 19.0801 19.91 18.2201L28.62 18.1801C29.17 18.1801 29.62 17.7301 29.62 17.1801V17.0601C29.62 16.4201 29.65 14.9301 28.55 13.8201L28.56 13.8501ZM12.14 10.1001C12.35 10.1601 12.55 10.2501 12.73 10.3701L15.81 12.6601H13.66C13.3 12.0701 12.68 11.0401 12.14 10.1001ZM6.07997 16.3301C5.90997 16.3301 5.76997 16.2301 5.70997 16.0701L4.03997 11.8401H4.48997C4.63997 11.8401 4.73997 11.9001 4.80997 12.0001L7.89997 16.3201H6.07997V16.3301ZM19.55 16.2601C19.32 16.2601 19.09 16.3401 18.91 16.5001C18.91 16.5001 14.28 20.4201 12.78 21.7301C12.45 22.0001 12.07 22.2001 11.67 22.3201L14.17 17.7701C14.34 17.4601 14.33 17.0801 14.15 16.7801C13.97 16.4801 13.64 16.2901 13.29 16.2901L10.36 16.3101L9.18997 14.6801H13.12L25.08 14.6601C26.06 14.6601 26.75 14.8701 27.16 15.2701C27.43 15.5401 27.55 15.9001 27.61 16.2401L19.57 16.2801L19.55 16.2601Z" fill="#323232"/>
</svg>
