<svg width="48" height="48" viewBox="0 0 48 48" fill="none" xmlns="http://www.w3.org/2000/svg">
<path d="M7.73 6.95996H37.25C38.89 6.95996 40.23 8.28996 40.23 9.93996V14.63H4.75V9.93996C4.75 8.29996 6.08 6.95996 7.73 6.95996Z" fill="#8DE2E0"/>
<path d="M34.8507 36.3005C34.6507 36.3005 34.4407 36.2405 34.2707 36.1105L30.6407 33.5005C30.3807 33.3105 30.2207 33.0105 30.2207 32.6905V25.7305C30.2207 25.1805 30.6707 24.7305 31.2207 24.7305C31.7707 24.7305 32.2207 25.1805 32.2207 25.7305V32.1805L35.4407 34.5005C35.8907 34.8205 35.9907 35.4505 35.6707 35.9005C35.4707 36.1705 35.1707 36.3205 34.8607 36.3205L34.8507 36.3005Z" fill="#DF0000"/>
<path d="M19.1802 40.5801H8.17023C6.84023 40.5801 5.75023 39.5001 5.75023 38.1601V10.2401C5.75023 8.91008 6.83023 7.82008 8.17023 7.82008H36.8802C38.2102 7.82008 39.3002 8.90008 39.3002 10.2401V17.8601C39.3002 18.4101 39.7502 18.8601 40.3002 18.8601C40.8502 18.8601 41.3002 18.4101 41.3002 17.8601V10.2401C41.3002 7.80008 39.3202 5.82008 36.8802 5.82008H34.7502V4.83008C34.7502 4.28008 34.3002 3.83008 33.7502 3.83008C33.2002 3.83008 32.7502 4.28008 32.7502 4.83008V5.82008H12.9302V4.83008C12.9302 4.28008 12.4802 3.83008 11.9302 3.83008C11.3802 3.83008 10.9302 4.28008 10.9302 4.83008V5.82008H8.16023C5.72023 5.82008 3.74023 7.80008 3.74023 10.2401V38.1701C3.74023 40.6101 5.72023 42.5901 8.16023 42.5901H19.1702C19.7202 42.5901 20.1702 42.1401 20.1702 41.5901C20.1702 41.0401 19.7202 40.5901 19.1702 40.5901L19.1802 40.5801Z" fill="#323232"/>
<path d="M16.8906 9.88965C16.3406 9.88965 15.8906 10.3396 15.8906 10.8896C15.8906 11.4396 16.3406 11.8896 16.8906 11.8896H28.2306C28.7806 11.8896 29.2306 11.4396 29.2306 10.8896C29.2306 10.3396 28.7806 9.88965 28.2306 9.88965H16.8906Z" fill="#323232"/>
<path d="M31.2195 18.0996C24.0295 18.0996 18.1895 23.9496 18.1895 31.1296C18.1895 38.3096 24.0395 44.1596 31.2195 44.1596C38.3995 44.1596 44.2495 38.3096 44.2495 31.1296C44.2495 23.9496 38.3995 18.0996 31.2195 18.0996ZM32.1695 42.1196V40.1396C32.1695 39.5896 31.7195 39.1396 31.1695 39.1396C30.6195 39.1396 30.1695 39.5896 30.1695 40.1396V42.1196C24.9595 41.6296 20.7995 37.4996 20.2495 32.3096H22.2195C22.7695 32.3096 23.2195 31.8596 23.2195 31.3096C23.2195 30.7596 22.7695 30.3096 22.2195 30.3096H20.2295C20.6295 24.9596 24.8495 20.6596 30.1695 20.1496V22.1296C30.1695 22.6796 30.6195 23.1296 31.1695 23.1296C31.7195 23.1296 32.1695 22.6796 32.1695 22.1296V20.1496C37.5395 20.6096 41.8095 24.9296 42.2095 30.3096H40.2195C39.6695 30.3096 39.2195 30.7596 39.2195 31.3096C39.2195 31.8596 39.6695 32.3096 40.2195 32.3096H42.1895C41.6295 37.5296 37.4195 41.6696 32.1695 42.1196Z" fill="#323232"/>
</svg>
