<svg width="24" height="24" viewBox="0 0 24 24" fill="none" xmlns="http://www.w3.org/2000/svg">
<path fill-rule="evenodd" clip-rule="evenodd" d="M3.59245 19.5778C7.7068 19.9643 9.25941 19.9948 11.1481 19.9757C12.9559 19.9183 14.3146 20.1761 15.8442 18.5587C17.4438 16.9009 17.2542 16.0404 16.2903 16.3096C14.859 16.7352 9.63593 18.5157 3.47419 19.3722C3.19854 19.4087 3.26767 19.557 3.59245 19.5778Z" fill="#B64648"/>
<path fill-rule="evenodd" clip-rule="evenodd" d="M2.1968 19.1326C6.4081 18.0574 16.9485 12.3952 18.512 11.3887C19.2807 10.9078 20.1316 11.1948 18.7711 13.4126C17.8459 14.7783 17.1855 15.5087 14.7338 16.3191C11.7503 17.3048 8.58897 18.16 2.30288 19.3322C1.97854 19.3922 1.87201 19.24 2.1968 19.1326Z" fill="#F6C635"/>
<path fill-rule="evenodd" clip-rule="evenodd" d="M2.61767 18.8335C6.28897 17.547 14.289 13.3361 17.0168 11.6622C18.9768 10.4678 20.4942 9.58696 21.0885 8.08957C21.4051 7.23652 21.582 6.50957 21.6511 5.91565V4.89348C21.5655 4.34217 21.3233 4.03913 20.9985 4H20.8516C20.6477 4.02261 20.4194 4.13652 20.182 4.34696C18.6442 5.84174 11.4124 13.4274 2.1581 18.7613C2.01854 18.8413 1.99462 19.0235 2.61767 18.8335Z" fill="#689668"/>
</svg>
