<svg width="24" height="24" viewBox="0 0 24 24" fill="none" xmlns="http://www.w3.org/2000/svg">
<path fill-rule="evenodd" clip-rule="evenodd" d="M15 10C15 12.7614 12.7614 15 10 15C7.23858 15 5 12.7614 5 10C5 7.23858 7.23858 5 10 5C12.7614 5 15 7.23858 15 10ZM14.4946 16.619C13.2135 17.4906 11.6662 18 10 18C5.58172 18 2 14.4183 2 10C2 5.58172 5.58172 2 10 2C14.4183 2 18 5.58172 18 10C18 11.6679 17.4896 13.2165 16.6165 14.4983L21.5584 19.4392C22.1443 20.0249 22.1444 20.9747 21.5586 21.5605C20.9729 22.1464 20.0232 22.1465 19.4373 21.5608L14.4946 16.619Z" fill="#323232"/>
</svg>
