<svg width="48" height="48" viewBox="0 0 48 48" fill="none" xmlns="http://www.w3.org/2000/svg">
<path d="M32.7591 42.3901C32.7591 42.3901 32.7191 42.4101 32.6991 42.4101C32.6791 42.4101 32.6591 42.4101 32.6491 42.3901C30.1891 40.4101 27.3491 39.2201 24.4391 38.7601C24.2291 38.7301 24.0691 38.5601 24.0491 38.3501C23.4291 32.5901 18.1891 33.9001 15.6291 27.7201C15.6091 27.6801 15.6291 27.6401 15.6591 27.6101C15.6991 27.5801 15.7591 27.6001 15.7791 27.6401C19.0191 32.7301 21.2291 29.8401 26.0091 34.2201L26.0691 34.2701C26.7291 34.8701 27.1791 34.3101 26.9591 33.9601C26.7591 33.6401 26.7891 33.4601 26.7891 33.4201C27.7591 33.6901 28.6491 34.1601 29.3891 34.8001L29.3291 34.9301C28.9591 35.6601 25.3491 35.3501 25.3091 36.8801C25.2991 37.3001 25.5491 37.6601 25.9191 37.8101L26.6291 38.1001C28.9691 39.0401 31.0491 40.4701 32.7591 42.2701C32.7891 42.3101 32.7891 42.3601 32.7591 42.3901Z" fill="#DF0000"/>
<path d="M8.54047 17.7305C7.81047 17.7305 7.23047 18.3205 7.23047 19.0405V22.0705C7.23047 24.4705 9.15047 26.4105 11.5105 26.4105C13.5305 26.4105 15.2205 24.9805 15.6605 23.0705C16.1105 24.9805 17.7905 26.4105 19.8105 26.4105C21.8305 26.4105 23.5205 24.9805 23.9605 23.0705C24.4105 24.9805 26.0905 26.4105 28.1105 26.4105C30.1305 26.4105 31.8205 24.9805 32.2605 23.0705C32.7105 24.9805 34.3905 26.4105 36.4105 26.4105C38.7705 26.4105 40.6905 24.4705 40.6905 22.0705V19.0405C40.6905 18.3105 40.1005 17.7305 39.3805 17.7305H8.54047Z" fill="#8DE2E0"/>
<path d="M15.6393 6.57973C15.6593 5.05973 14.9393 3.61973 13.7093 2.71973C13.7093 2.71973 11.7793 4.43973 11.7793 6.57973C11.7793 7.63973 12.6393 8.50973 13.6993 8.50973C14.5493 8.50973 15.2993 7.94973 15.5493 7.13973C15.6093 6.95973 15.6393 6.76973 15.6393 6.57973ZM25.9293 6.57973C25.9493 5.05973 25.2293 3.61973 23.9993 2.71973C23.9993 2.71973 22.0693 4.43973 22.0693 6.57973C22.0693 7.63973 22.9293 8.50973 23.9893 8.50973C24.8393 8.50973 25.5893 7.94973 25.8393 7.13973C25.8993 6.95973 25.9293 6.76973 25.9293 6.57973ZM36.2093 6.57973C36.2293 5.05973 35.5093 3.61973 34.2793 2.71973C34.2793 2.71973 32.3493 4.43973 32.3493 6.57973C32.3493 7.63973 33.2093 8.50973 34.2693 8.50973C35.1193 8.50973 35.8693 7.94973 36.1193 7.13973C36.1793 6.95973 36.2093 6.76973 36.2093 6.57973Z" fill="#DF0000"/>
<path d="M43.2792 44.22H41.7092V19.01C41.7092 17.75 40.6792 16.72 39.4192 16.72H35.2792V11.29C35.2792 10.74 34.8292 10.29 34.2792 10.29C33.7292 10.29 33.2792 10.74 33.2792 11.29V16.72H24.9892V11.29C24.9892 10.74 24.5392 10.29 23.9892 10.29C23.4392 10.29 22.9892 10.74 22.9892 11.29V16.72H14.6992V11.29C14.6992 10.74 14.2492 10.29 13.6992 10.29C13.1492 10.29 12.6992 10.74 12.6992 11.29V16.72H8.55922C7.29922 16.72 6.26922 17.75 6.26922 19.01V44.22H4.69922C4.14922 44.22 3.69922 44.67 3.69922 45.22C3.69922 45.77 4.14922 46.22 4.69922 46.22H43.2692C43.8192 46.22 44.2692 45.77 44.2692 45.22C44.2692 44.67 43.8192 44.22 43.2692 44.22H43.2792ZM8.28922 19.01C8.28922 18.85 8.41922 18.72 8.57922 18.72H39.4292C39.5892 18.72 39.7192 18.85 39.7192 19.01V44.22H8.28922V19.01Z" fill="#323232"/>
</svg>
