<svg width="24" height="24" viewBox="0 0 24 24" fill="none" xmlns="http://www.w3.org/2000/svg">
<path fill-rule="evenodd" clip-rule="evenodd" d="M4.25207 5L5.19431 9.1548C5.20201 9.2086 5.21399 9.26102 5.2299 9.3117L6.97348 17H18.4206L21.3824 8.01191H6.98591L5.84929 3H2C1.44772 3 1 3.44772 1 4C1 4.55228 1.44772 5 2 5H4.25207ZM18.6176 10.0119L16.9739 15H8.5707L7.43948 10.0119H18.6176ZM10 20.5C10 21.3284 9.32843 22 8.5 22C7.67157 22 7 21.3284 7 20.5C7 19.6716 7.67157 19 8.5 19C9.32843 19 10 19.6716 10 20.5ZM18 20.5C18 21.3284 17.3284 22 16.5 22C15.6716 22 15 21.3284 15 20.5C15 19.6716 15.6716 19 16.5 19C17.3284 19 18 19.6716 18 20.5Z" fill="#323232"/>
</svg>
