<svg width="24" height="24" viewBox="0 0 24 24" fill="none" xmlns="http://www.w3.org/2000/svg">
<g clip-path="url(#clip0_10496_9598)">
<path fill-rule="evenodd" clip-rule="evenodd" d="M20.0996 17.1002C18.7543 16.1107 18.0761 15.6104 18.0761 15.6104C18.0761 15.6104 18.4319 14.9544 19.1434 13.6313C19.5659 12.9754 20.4999 12.9754 20.9224 13.6313L21.8229 15.0322C22.0342 15.3658 22.0564 15.7883 21.8896 16.1441L21.645 16.6666C21.3671 17.267 20.6333 17.4671 20.0996 17.1002ZM3.91151 17.1002C3.37784 17.4671 2.65516 17.267 2.36608 16.6777L2.11036 16.1552C1.94359 15.7994 1.96583 15.3769 2.17707 15.0433L3.07765 13.6425C3.50014 12.9865 4.43407 12.9865 4.85656 13.6425C5.57924 14.9544 5.93502 15.6104 5.93502 15.6104C5.93502 15.6104 5.25681 16.1107 3.91151 17.1002ZM15.7413 9.35083C15.8413 8.5948 16.5529 8.1723 17.1533 8.51697L18.9211 9.51761C19.4325 9.80668 19.6215 10.5294 19.3213 11.0853L17.0087 15.6104H15.0075L15.7413 9.35083ZM8.25873 9.35083L9.00365 15.6104H7.00237L4.67867 11.0742C4.37848 10.5182 4.56749 9.79556 5.07892 9.50649L6.84672 8.50585C7.43598 8.1723 8.15866 8.5948 8.25873 9.35083ZM14.0068 15.6104H10.0043L9.18154 7.96106C9.10371 7.30508 9.57067 6.71582 10.1599 6.71582H13.8289C14.4182 6.71582 14.8741 7.30508 14.8073 7.96106L14.0068 15.6104Z" fill="#323232"/>
</g>
<defs>
<clipPath id="clip0_10496_9598">
<rect width="24" height="24" fill="white"/>
</clipPath>
</defs>
</svg>
