<svg width="119" height="30" viewBox="0 0 119 30" fill="none" xmlns="http://www.w3.org/2000/svg">
<path d="M1.16608 6.39218V11.2612H0V0.000976562H5.77701V1.18486H1.16608V5.2261H5.39425V6.39218H1.16608Z" fill="#323232"/>
<path d="M14.4558 11.2612L12.7023 6.80164C12.5153 6.81945 12.4263 6.81945 12.2839 6.81945H10.4057V11.2612H9.23962V0.000976562H12.3551C14.3223 0.000976562 15.7554 1.31838 15.7554 3.3568C15.7554 4.86114 15.0166 5.99162 13.8773 6.4901L15.7376 11.2523H14.4558V11.2612ZM10.4057 1.14926V5.68897H12.2572C13.6725 5.68897 14.5538 4.76322 14.5538 3.37461C14.5538 1.98599 13.6725 1.14926 12.2572 1.14926H10.4057Z" fill="#323232"/>
<path d="M20.4109 6.08953V10.0774H25.1376V11.2612H19.236V0.000976562H25.013V1.18486H20.4109V4.92345H24.6302V6.08953H20.4109Z" fill="#323232"/>
<path d="M34.9202 7.83439C34.9202 9.32982 34.2882 10.4603 33.2913 11.0211L34.8579 13.5402H33.4248L32.1163 11.3771C31.9471 11.4127 31.778 11.4306 31.5911 11.4306C29.615 11.4306 28.262 10.0419 28.262 7.83439V3.4282C28.262 1.22065 29.5527 -0.167969 31.5911 -0.167969C33.6295 -0.167969 34.9202 1.22065 34.9202 3.4282V7.83439ZM29.4369 7.86999C29.4369 9.24081 30.2203 10.2556 31.5911 10.2556C32.9619 10.2556 33.7274 9.24081 33.7274 7.86999V3.39259C33.7274 2.02178 32.953 1.00702 31.5911 1.00702C30.2292 1.00702 29.4369 2.02178 29.4369 3.39259V7.86999Z" fill="#323232"/>
<path d="M44.8007 0.000976562V7.83421C44.8007 10.0418 43.4744 11.4304 41.5339 11.4304C39.5934 11.4304 38.2849 10.0418 38.2849 7.83421V0.000976562H39.451V7.86981C39.451 9.24063 40.2076 10.2554 41.5339 10.2554C42.8602 10.2554 43.6258 9.24063 43.6258 7.86981V0.000976562H44.7918H44.8007Z" fill="#323232"/>
<path d="M49.8389 6.08953V10.0774H54.5656V11.2612H48.6729V0.000976562H54.441V1.18486H49.8389V4.92345H54.0582V6.08953H49.8389Z" fill="#323232"/>
<path d="M64.5441 11.2612H63.5738L59.1854 2.55568V11.2612H58.0906V0.000976562H59.1409L63.4492 8.57302V0.000976562H64.5441V11.2612Z" fill="#323232"/>
<path d="M67.5349 0.000976562H74.0329V1.18486H71.3714V11.2612H70.1964V1.18486H67.5349V0.000976562Z" fill="#323232"/>
<path d="M32.3832 25.0851V29.9541H31.2083V18.6938H36.9853V19.8777H32.3832V23.919H36.6025V25.0851H32.3832Z" fill="#323232"/>
<path d="M41.6141 28.7702H46.0381V29.9541H40.448V18.6938H41.6141V28.7702Z" fill="#323232"/>
<path d="M48.5838 18.6938L50.8626 24.1771L53.1591 18.6938H54.343L51.4145 25.45V29.9541H50.2484V25.4589L47.3198 18.6938H48.5838Z" fill="#323232"/>
<path d="M58.7938 24.7735V28.7702H63.5204V29.9541H57.6188V18.6938H63.3958V19.8777H58.7938V23.6074H63.013V24.7735H58.7938Z" fill="#323232"/>
<path d="M72.2615 29.9541L70.5079 25.4945C70.321 25.5123 70.232 25.5123 70.0896 25.5123H68.2114V29.9541H67.0453V18.6938H70.1608C72.128 18.6938 73.5611 20.0113 73.5611 22.0497C73.5611 23.554 72.8223 24.6845 71.6829 25.183L73.5433 29.9452H72.2615V29.9541ZM68.2114 19.8421V24.3818H70.0629C71.4782 24.3818 72.3594 23.4561 72.3594 22.0675C72.3594 20.6789 71.4782 19.8421 70.0629 19.8421H68.2114Z" fill="#323232"/>
<path d="M88.6401 29.9991H119.394L94.7554 5.25318C91.4707 1.96856 87.02 0.0102539 82.3735 0.0102539H77.2196L77.6024 1.01611L79.3114 5.49352L88.649 29.9902L88.6401 29.9991Z" fill="url(#paint0_linear_15605_1903)"/>
<path d="M79.3115 5.50219C82.6762 11.2525 91.5153 11.8578 92.4766 20.7948C92.5122 21.1598 92.7971 21.4535 93.162 21.5158C98.2536 22.308 103.212 24.4088 107.52 27.8625C107.52 27.8625 107.582 27.8981 107.618 27.8981C107.654 27.8981 107.698 27.8803 107.725 27.8536C107.787 27.7913 107.787 27.7023 107.725 27.64C104.743 24.5067 101.093 21.9965 96.9985 20.3497L95.7523 19.8512C95.1114 19.5931 94.6664 18.9611 94.6842 18.2312C94.7554 15.5608 101.075 16.1038 101.707 14.822L101.814 14.5994C100.515 13.4867 98.9657 12.65 97.2656 12.1871C97.2478 12.2495 97.2122 12.561 97.5593 13.1307C97.9332 13.7449 97.1499 14.7151 96.0016 13.6648L95.9037 13.5758C87.3672 5.75143 80.9671 9.81047 77.5846 1.03369L79.2937 5.51109L79.3115 5.50219Z" fill="white"/>
<path d="M99.8291 14.4479C99.8291 14.4479 98.4316 14.5191 97.5682 13.1216C97.8263 13.5399 97.5415 14.1185 96.9718 14.1274V16.2549C97.8886 15.9878 98.939 15.8276 99.8202 15.6407V14.4568L99.8291 14.4479Z" fill="url(#paint1_linear_15605_1903)"/>
<path d="M94.2124 21.7026C98.9301 22.6105 103.505 24.649 107.511 27.8624C98.5741 20.225 94.4972 21.6047 94.2124 21.7026Z" fill="url(#paint2_linear_15605_1903)"/>
<path d="M81.1096 5.90287C79.721 4.91481 78.546 3.46389 77.6024 1.0249L79.3115 5.50231C82.6762 11.2526 91.5153 11.8579 92.4767 20.7949C91.5064 9.38332 86.4949 11.0924 81.1096 5.90287Z" fill="url(#paint3_linear_15605_1903)"/>
<defs>
<linearGradient id="paint0_linear_15605_1903" x1="103.942" y1="29.8923" x2="83.4328" y2="-0.0698573" gradientUnits="userSpaceOnUse">
<stop stop-color="#BE0000"/>
<stop offset="0.39" stop-color="#DD0000"/>
<stop offset="0.77" stop-color="#F60000"/>
<stop offset="1" stop-color="#FF0000"/>
</linearGradient>
<linearGradient id="paint1_linear_15605_1903" x1="98.2803" y1="16.3617" x2="98.5563" y2="13.2017" gradientUnits="userSpaceOnUse">
<stop offset="0.65" stop-color="white" stop-opacity="0"/>
<stop offset="0.69" stop-color="#ECECEC" stop-opacity="0.0529"/>
<stop offset="0.76" stop-color="#D6D6D6" stop-opacity="0.25"/>
<stop offset="0.81" stop-color="#C5C5C5" stop-opacity="0.5184"/>
<stop offset="0.87" stop-color="#B9B9B9" stop-opacity="0.7569"/>
<stop offset="0.91" stop-color="#B1B1B1" stop-opacity="0.9409"/>
<stop offset="0.95" stop-color="#AFAFAF"/>
</linearGradient>
<linearGradient id="paint2_linear_15605_1903" x1="94.2124" y1="24.7024" x2="107.52" y2="24.7024" gradientUnits="userSpaceOnUse">
<stop stop-color="white" stop-opacity="0"/>
<stop offset="0.07" stop-color="#F3F3F3" stop-opacity="0.0225"/>
<stop offset="0.21" stop-color="#DEDEDE" stop-opacity="0.1681"/>
<stop offset="0.35" stop-color="#CDCDCD" stop-opacity="0.3844"/>
<stop offset="0.49" stop-color="#C0C0C0" stop-opacity="0.6241"/>
<stop offset="0.63" stop-color="#B6B6B6" stop-opacity="0.8281"/>
<stop offset="0.77" stop-color="#B0B0B0" stop-opacity="0.9604"/>
<stop offset="0.9" stop-color="#AFAFAF"/>
</linearGradient>
<linearGradient id="paint3_linear_15605_1903" x1="77.6024" y1="10.9055" x2="92.4678" y2="10.9055" gradientUnits="userSpaceOnUse">
<stop offset="0.25" stop-color="white" stop-opacity="0"/>
<stop offset="0.36" stop-color="#F6F6F6" stop-opacity="0.0121"/>
<stop offset="0.58" stop-color="#E0E0E0" stop-opacity="0.1444"/>
<stop offset="0.88" stop-color="#BDBDBD" stop-opacity="0.6724"/>
<stop offset="1" stop-color="#AFAFAF"/>
</linearGradient>
</defs>
</svg>
