<svg width="48" height="48" viewBox="0 0 48 48" fill="none" xmlns="http://www.w3.org/2000/svg">
<path d="M43.4693 27.6499V33.6499L4.5293 26.1499V20.1699L43.4693 27.6499Z" fill="#8DE2E0"/>
<path d="M25.5 19.6699C24.95 19.6699 24.5 19.2199 24.5 18.6699V3.87988C24.5 3.32988 24.95 2.87988 25.5 2.87988C26.05 2.87988 26.5 3.32988 26.5 3.87988V18.6699C26.5 19.2199 26.05 19.6699 25.5 19.6699Z" fill="#DF0000"/>
<path d="M44.4491 27.5405C44.4491 27.4805 44.4391 27.4205 44.4191 27.3605C44.3991 27.3105 44.3791 27.2605 44.3591 27.2205C44.3291 27.1705 44.3091 27.1205 44.2691 27.0705C44.2391 27.0205 44.1991 26.9905 44.1591 26.9505C44.1291 26.9205 44.1091 26.8905 44.0791 26.8705C43.9791 26.7905 33.5991 18.8505 26.1291 12.7305C24.1791 11.1305 22.7691 9.92048 21.6691 8.95048C21.4391 8.75048 21.1291 8.66048 20.8191 8.72048C8.50906 11.0105 3.83906 19.3405 3.64906 19.6905C3.64906 19.6905 3.64906 19.7105 3.64906 19.7205C3.59906 19.8105 3.58906 19.9105 3.56906 20.0105C3.56906 20.0605 3.53906 20.1005 3.53906 20.1505C3.53906 20.1505 3.53906 20.1505 3.53906 20.1705V30.6405V35.1305C3.53906 35.6005 3.85906 36.0005 4.31906 36.1005L43.2691 45.0905C43.3391 45.1105 43.4191 45.1205 43.4891 45.1205C43.7091 45.1205 43.9291 45.0405 44.1091 44.9005C44.3491 44.7105 44.4891 44.4205 44.4891 44.1205V27.6505C44.4891 27.6505 44.4691 27.5805 44.4691 27.5405H44.4491ZM5.52906 25.3305V21.3805L42.4791 28.4805V32.4405L23.1191 28.7105L5.52906 25.3305ZM5.52906 27.3605L24.8891 31.0905L42.4791 34.4705V36.1205C40.7891 37.2305 38.6391 37.4305 36.7791 36.6305C36.0191 36.2805 35.4791 35.9705 34.9891 35.7005C33.3391 34.7705 32.3791 34.3105 28.5391 34.1405C27.6591 34.1005 26.8591 34.0905 26.1291 34.0905C25.7191 34.0905 25.3291 34.0905 24.9591 34.0905C22.1491 34.1105 20.5991 34.1305 18.5291 32.7905C16.5591 31.5705 14.2891 31.0005 11.8991 31.1405C8.97906 31.4805 6.40906 30.5805 5.51906 30.1205V27.3505L5.52906 27.3605ZM20.7191 10.7605C21.7791 11.6905 23.1091 12.8205 24.8691 14.2605C29.7391 18.2505 35.8291 23.0105 39.5291 25.8805L23.3591 22.7705L6.20906 19.4705C7.89906 17.2405 12.3791 12.4605 20.7191 10.7505V10.7605ZM5.52906 34.3405V32.3105C7.16906 32.9405 9.64906 33.4305 12.0891 33.1405C14.0091 33.0205 15.8691 33.4905 17.4691 34.4805C20.0291 36.1305 22.1091 36.1105 24.9891 36.0905C25.9891 36.0905 27.1291 36.0705 28.4591 36.1305C31.9991 36.2905 32.6691 36.6705 34.0091 37.4305C34.5291 37.7205 35.1091 38.0505 35.9691 38.4505C36.9891 38.8905 38.0791 39.1105 39.1591 39.1105C40.2991 39.1105 41.4291 38.8405 42.4791 38.3605V42.8605L5.52906 34.3405Z" fill="#323232"/>
</svg>
