<svg width="48" height="48" viewBox="0 0 48 48" fill="none" xmlns="http://www.w3.org/2000/svg">
<path d="M26.8207 9.60988C26.2607 8.12988 24.0007 5.37988 24.0007 5.37988C24.0007 5.37988 21.6707 8.12988 21.1807 9.60988C17.4407 9.04988 12.7207 11.0199 12.7207 11.0199C12.7207 11.0199 16.0307 13.5599 18.3607 13.8399C16.7207 15.5399 15.3007 17.4299 14.1307 19.4799C14.1307 19.4799 20.9007 19.3399 24.0007 16.6599C26.5707 18.2199 29.4607 19.1899 32.4607 19.4799C32.4607 19.4799 30.5607 14.8999 29.6407 13.8399C34.4307 12.4299 35.2807 11.0199 35.2807 11.0199C35.2807 11.0199 29.3607 9.11988 26.8207 9.60988Z" fill="#8DE2E0"/>
<path d="M32.6896 9.25988C31.0196 8.84988 28.9596 8.45988 27.4196 8.53988C26.5896 6.97988 24.9796 4.99988 24.7696 4.74988C24.5796 4.51988 24.2996 4.38988 23.9996 4.37988C23.7096 4.37988 23.4296 4.50988 23.2396 4.72988C23.0296 4.97988 21.3696 6.95988 20.5596 8.52988C18.7796 8.40988 16.9096 8.71988 15.3996 9.09988C9.18961 9.39988 1.84961 12.6799 1.84961 26.5199C1.84961 32.2099 3.96961 36.8299 7.97961 39.8899C12.9096 43.6499 19.5196 44.1899 23.9996 43.0599C25.3496 43.4099 26.8996 43.6099 28.5296 43.6099C32.2796 43.6099 36.5096 42.5699 39.9496 39.9599C42.7796 37.8199 46.1496 33.7499 46.1496 26.5099C46.1496 15.6799 41.4896 9.70988 32.6896 9.23988V9.25988ZM21.0296 10.5999C21.5096 10.6799 21.9696 10.3899 22.1296 9.92988C22.3596 9.23988 23.2196 7.99988 23.9896 6.98988C24.6996 7.93988 25.5996 9.20988 25.8896 9.96988C26.0596 10.4199 26.5396 10.6899 27.0196 10.5999C28.3696 10.3399 31.0896 10.9099 33.0996 11.4399C32.3196 11.8599 31.1396 12.3699 29.3696 12.8899C29.0396 12.9899 28.7896 13.2399 28.6896 13.5699C28.5896 13.8999 28.6696 14.2499 28.8896 14.5099C29.3196 14.9999 30.1396 16.6999 30.8396 18.2499C28.6096 17.8199 26.4596 16.9999 24.5296 15.8199C24.1596 15.5899 23.6896 15.6299 23.3596 15.9199C21.5296 17.4999 18.1496 18.1199 16.0296 18.3499C16.9396 16.9999 17.9596 15.7199 19.0996 14.5499C19.3596 14.2799 19.4496 13.8799 19.3196 13.5199C19.1896 13.1599 18.8696 12.9099 18.4996 12.8599C17.4596 12.7299 16.0696 12.0099 14.9496 11.3299C16.5696 10.8499 18.9996 10.2999 21.0496 10.6199L21.0296 10.5999ZM38.7396 38.3799C34.2396 41.7899 28.2296 42.1899 24.2696 41.0699C24.0996 41.0199 23.9096 41.0199 23.7396 41.0699C19.7296 42.1599 13.6796 41.7299 9.18961 38.3099C5.69961 35.6399 3.84961 31.5699 3.84961 26.5299C3.84961 18.2999 6.58961 13.3399 11.9996 11.6999C12.0396 11.7399 12.0696 11.7799 12.1196 11.8199C12.3996 12.0399 14.4396 13.5699 16.5296 14.3799C15.2996 15.8099 14.2096 17.3499 13.2696 18.9899C13.0896 19.2999 13.0996 19.6899 13.2696 19.9999C13.4496 20.3099 13.7496 20.4899 14.1496 20.4899C14.4196 20.4899 20.5896 20.3299 24.0796 17.8699C26.6196 19.2999 29.4696 20.1999 32.3596 20.4799C32.3896 20.4799 32.4196 20.4799 32.4596 20.4799C32.7696 20.4799 33.0696 20.3299 33.2596 20.0699C33.4696 19.7899 33.5096 19.4199 33.3796 19.0899C33.1296 18.4899 32.0896 16.0299 31.1796 14.3899C34.2796 13.3299 35.4996 12.2899 35.9296 11.7899C41.4396 13.3599 44.1396 18.1999 44.1396 26.5199C44.1396 31.5999 42.2696 35.6999 38.7296 38.3699L38.7396 38.3799Z" fill="#323232"/>
</svg>
