<svg width="48" height="48" viewBox="0 0 48 48" fill="none" xmlns="http://www.w3.org/2000/svg">
<path d="M23.9492 46.2204C23.3992 46.2204 22.9492 45.7704 22.9492 45.2204V33.6504C22.9492 33.1004 23.3992 32.6504 23.9492 32.6504C24.4992 32.6504 24.9492 33.1004 24.9492 33.6504V45.2204C24.9492 45.7704 24.4992 46.2204 23.9492 46.2204Z" fill="#DF0000"/>
<path d="M20.4901 25.9702C18.0301 23.7002 15.4801 21.3602 15.4801 16.5902V10.4802L17.6101 12.3202C18.0301 12.6802 18.6601 12.6402 19.0201 12.2202C19.3801 11.8002 19.3401 11.1702 18.9201 10.8102L15.1401 7.53021C14.7601 7.20021 14.1801 7.20021 13.8101 7.55021L10.1201 10.9502C9.71014 11.3202 9.69014 11.9602 10.0601 12.3602C10.2601 12.5702 10.5301 12.6802 10.8001 12.6802C11.0401 12.6802 11.2901 12.5902 11.4801 12.4102L13.4901 10.5502V16.5702C13.4901 22.2202 16.5001 24.9802 19.1501 27.4202C21.2001 29.3002 22.9701 30.9302 22.9701 33.6402C22.9701 34.1902 23.4201 34.6402 23.9701 34.6402C24.5201 34.6402 24.9701 34.1902 24.9701 33.6402C24.9701 30.0602 22.7001 27.9702 20.5001 25.9502L20.4901 25.9702Z" fill="#323232"/>
<path d="M37.8698 5.24966L34.0898 1.96966C33.7098 1.63966 33.1298 1.63966 32.7598 1.98966L29.0698 5.38966C28.6598 5.75966 28.6398 6.39966 29.0098 6.79966C29.2098 7.00966 29.4798 7.11966 29.7498 7.11966C29.9898 7.11966 30.2398 7.02966 30.4298 6.84966L32.4898 4.94966V16.5697C32.4898 21.3397 29.9398 23.6897 27.4798 25.9497C25.2798 27.9697 23.0098 30.0597 23.0098 33.6397C23.0098 34.1897 23.4598 34.6397 24.0098 34.6397C24.5598 34.6397 25.0098 34.1897 25.0098 33.6397C25.0098 30.9397 26.7798 29.3097 28.8298 27.4197C31.4798 24.9797 34.4898 22.2197 34.4898 16.5697V4.94966L36.5698 6.74966C36.9898 7.10966 37.6198 7.06966 37.9798 6.64966C38.3398 6.22966 38.2998 5.59966 37.8798 5.23966L37.8698 5.24966Z" fill="#DF0000"/>
</svg>
