<svg width="24" height="24" viewBox="0 0 24 24" fill="none" xmlns="http://www.w3.org/2000/svg">
<path fill-rule="evenodd" clip-rule="evenodd" d="M17.5 7.5166C16.3 7.5166 15.1667 7.98327 14.3583 8.7916L12 10.8833L10.7333 11.9999H10.7417L8.5 13.9916C7.96667 14.5249 7.25833 14.8166 6.5 14.8166C4.94167 14.8166 3.675 13.5583 3.675 11.9999C3.675 10.4416 4.94167 9.18327 6.5 9.18327C7.25833 9.18327 7.96667 9.47493 8.53333 10.0416L9.475 10.8749L10.7333 9.75827L9.68333 8.83327C8.83333 7.98327 7.7 7.5166 6.5 7.5166C4.01667 7.5166 2 9.53327 2 11.9999C2 14.4666 4.01667 16.4833 6.5 16.4833C7.7 16.4833 8.83333 16.0166 9.64167 15.2083L12 13.1249L12.0083 13.1333L13.2667 11.9999H13.2583L15.5 10.0083C16.0333 9.47493 16.7417 9.18327 17.5 9.18327C19.0583 9.18327 20.325 10.4416 20.325 11.9999C20.325 13.5583 19.0583 14.8166 17.5 14.8166C16.75 14.8166 16.0333 14.5249 15.4667 13.9583L14.5167 13.1166L13.2583 14.2333L14.3167 15.1666C15.1667 16.0083 16.2917 16.4749 17.5 16.4749C19.9833 16.4749 22 14.4666 22 11.9916C22 9.5166 19.9833 7.5166 17.5 7.5166V7.5166Z" fill="#323232"/>
</svg>
