<svg width="24" height="24" viewBox="0 0 24 24" fill="none" xmlns="http://www.w3.org/2000/svg">
<g clip-path="url(#clip0_16335_12575)">
<path d="M20.4851 20.4853C25.1714 15.799 25.1714 8.20101 20.4851 3.51472C15.7988 -1.17157 8.20081 -1.17157 3.51452 3.51472C-1.17177 8.20101 -1.17177 15.799 3.51452 20.4853C8.20081 25.1716 15.7988 25.1716 20.4851 20.4853Z" fill="white"/>
<mask id="mask0_16335_12575" style="mask-type:luminance" maskUnits="userSpaceOnUse" x="-1" y="0" width="25" height="24">
<path d="M20.4851 20.4853C25.1714 15.799 25.1714 8.20101 20.4851 3.51472C15.7988 -1.17157 8.20081 -1.17157 3.51452 3.51472C-1.17177 8.20101 -1.17177 15.799 3.51452 20.4853C8.20081 25.1716 15.7988 25.1716 20.4851 20.4853Z" fill="white"/>
</mask>
<g mask="url(#mask0_16335_12575)">
<path d="M29.9993 0H-6.00067V24H29.9993V0Z" fill="#FF0000"/>
<path fill-rule="evenodd" clip-rule="evenodd" d="M12.0001 6.96236C12.1552 6.69684 12.3648 6.46906 12.6149 6.29298C12.5017 6.25944 12.383 6.23568 12.2628 6.22171C12.5101 6.03165 12.8008 5.8947 13.118 5.82902C12.9405 5.81505 12.7631 5.80387 12.5842 5.79688C12.777 5.57328 13.0146 5.38882 13.2857 5.26025C13.118 5.15544 12.9643 5.02967 12.8287 4.88573C13.2186 4.9067 13.6001 4.83263 13.9523 4.66074C14.1284 4.5741 14.3715 4.521 14.6413 4.521C14.8299 4.521 14.9934 4.6314 15.0703 4.7921C15.1653 4.76835 15.2645 4.75577 15.3679 4.75437C15.5999 4.75158 15.7886 4.93045 15.7886 5.16523C15.7886 5.18898 15.769 5.20855 15.7452 5.20855C15.7285 5.20855 15.7131 5.19876 15.7061 5.18339C15.667 5.09535 15.5789 5.03386 15.4769 5.03386C15.435 5.03386 15.3945 5.04504 15.3595 5.06321C15.2226 5.13029 15.1038 5.2323 15.0186 5.35808C15.108 5.38043 15.2044 5.39301 15.3023 5.39301C15.6558 5.39301 15.9702 5.2337 16.1603 4.98915C16.2413 4.88294 16.3238 4.89272 16.3615 4.95141C16.4035 5.0157 16.3895 5.14147 16.2525 5.2337C15.994 5.40978 15.6628 5.50481 15.3246 5.50481C15.1988 5.50481 15.0759 5.49083 14.9571 5.46568C14.9445 5.49083 14.9333 5.51599 14.9221 5.54254C15.0339 5.61381 15.1667 5.65434 15.3092 5.65434C15.4518 5.65434 15.5817 5.61381 15.6921 5.54534C15.6991 5.54114 15.7061 5.53835 15.7145 5.53835C15.7383 5.53835 15.7578 5.55791 15.7578 5.58167C15.7578 5.59425 15.7522 5.60682 15.7425 5.61381C15.565 5.76194 15.34 5.85697 15.0954 5.87374C14.6818 5.90169 14.2877 6.02606 13.9355 6.24267C13.5261 6.49561 13.2536 6.94559 13.2536 7.46265C13.2536 7.77708 13.5079 8.03142 13.8223 8.03142C14.1368 8.03142 14.3911 7.77708 14.3911 7.46265C14.3911 7.40815 14.3827 7.35505 14.3687 7.30334C14.3017 7.02944 14.4191 6.73178 14.6748 6.58505L15.7606 5.95759C15.8081 5.92824 15.864 5.91147 15.9241 5.91147C16.0653 5.91147 16.1854 6.0037 16.2246 6.13227C17.0239 6.07358 17.7087 5.59984 18.065 4.92626C18.1167 4.81307 18.2034 4.739 18.2998 4.739C18.4591 4.739 18.5877 4.94023 18.5877 5.18898C18.5877 6.04842 17.2112 6.63815 16.4859 6.62837C16.3545 6.62837 16.2469 6.73457 16.2469 6.86733C16.2469 7.13984 16.6061 7.13425 16.8017 7.13425C17.337 7.13425 17.8233 6.92183 18.1796 6.57526C18.2313 6.52356 18.2942 6.49701 18.3557 6.50679C18.4885 6.52915 18.5667 6.71501 18.5304 6.92183C18.5108 7.03922 18.4577 7.13704 18.392 7.19713C18.0972 7.47802 17.6975 7.65131 17.2587 7.65131C16.9554 7.65131 16.6606 7.61637 16.3769 7.54929C16.2903 7.53392 16.2092 7.601 16.2092 7.68904C16.2092 7.72118 16.2204 7.75193 16.2385 7.77568C16.4733 8.08312 16.8437 8.28156 17.2601 8.28156C17.5941 8.28156 17.8987 8.1544 18.1279 7.94478C18.2397 7.84975 18.3669 7.81621 18.4605 7.87071C18.5975 7.95037 18.6086 8.18933 18.4843 8.40454C18.3208 8.68683 17.9407 8.83496 17.6276 8.83496C17.2447 8.83496 16.7612 8.66028 16.4412 8.46184C16.4132 8.44227 16.3783 8.43249 16.342 8.43249C16.2441 8.43249 16.1645 8.51215 16.1645 8.60997C16.1645 8.65748 16.1827 8.69941 16.212 8.73155C16.5236 9.04039 17.0253 9.37857 17.4823 9.37857C17.6695 9.37857 17.8848 9.32267 18.0525 9.22485C18.1978 9.13681 18.3655 9.13541 18.4647 9.23463C18.5863 9.35621 18.5569 9.5854 18.3962 9.74471C18.2341 9.90681 17.9574 9.92638 17.7394 9.92638C17.2447 9.92638 16.7947 9.72514 16.4621 9.40932C16.4342 9.38276 16.409 9.36599 16.3685 9.36599C16.3014 9.36599 16.2469 9.4205 16.2469 9.48757C16.2469 9.51552 16.2567 9.54068 16.2721 9.56024C16.5097 9.86629 16.8171 10.115 17.1707 10.2827C17.3831 10.3861 17.622 10.4448 17.8736 10.4448C18.0049 10.4448 18.1335 10.4281 18.2565 10.3973C18.3152 10.3833 18.3711 10.3889 18.42 10.4169C18.5527 10.4937 18.5695 10.7104 18.4591 10.9004C18.3487 11.0919 18.1684 11.1645 17.9546 11.1645C17.4474 11.1645 16.785 10.7411 16.4566 10.375C16.4244 10.3372 16.3769 10.3121 16.3224 10.3121C16.226 10.3121 16.1491 10.3903 16.1491 10.4854C16.1491 10.5091 16.1547 10.5329 16.1631 10.5538C16.4663 11.3127 17.2014 11.7515 18.0063 11.7361C18.1167 11.7333 18.2243 11.7179 18.3264 11.69C18.3753 11.6774 18.4228 11.6802 18.4633 11.7025C18.5751 11.764 18.5933 11.9443 18.5052 12.1064C18.4158 12.2685 18.2663 12.3328 18.0888 12.3356C17.3202 12.3356 16.6466 11.9233 16.2777 11.3085C16.219 11.2106 16.1519 11.1911 16.1086 11.2162C16.0639 11.2414 16.0429 11.3113 16.0778 11.3895C16.2637 11.7976 16.5166 12.1693 16.8213 12.4907C17.1581 12.8485 17.6374 13.0273 18.1265 12.9784C18.3208 12.9603 18.4885 13.0315 18.522 13.1601C18.5667 13.3292 18.434 13.4578 18.2579 13.5416C17.9211 13.7051 17.4669 13.7233 17.1581 13.4885C16.7682 13.1992 16.4244 12.8499 16.1421 12.453C15.9898 12.2378 15.8193 12.0351 15.6334 11.8493C15.5314 11.7487 15.4574 11.7305 15.4057 11.7598C15.2575 11.8465 15.2995 12.221 15.3498 12.3691C15.4504 12.664 15.7061 12.8974 16.0052 12.9826C16.1379 13.0176 16.2316 13.1084 16.2316 13.2146C16.2316 13.3516 16.0778 13.462 15.8892 13.462C15.3665 13.462 14.9207 12.5494 14.8676 12.0994C14.8579 11.989 14.7656 11.9024 14.6524 11.9024C14.5336 11.9024 14.4372 11.9988 14.4372 12.1176C14.4372 12.4278 14.6413 12.7576 14.89 12.9351C14.9669 12.9826 15.0102 13.0455 14.9948 13.1014C14.9738 13.1825 14.8355 13.216 14.6874 13.1755C14.3632 13.0888 14.0334 12.4767 13.9327 12.1875C13.9146 12.1302 13.8615 12.0896 13.7986 12.0896C13.7091 12.0896 13.6421 12.1735 13.6616 12.2601C13.8363 13.1461 14.5546 13.8365 15.4532 13.9706C15.4895 13.9734 15.5189 14.0042 15.5189 14.0419C15.5189 14.0615 15.5105 14.0796 15.4979 14.0922L15.1066 14.4835C15.6516 14.5366 16.1687 14.6791 16.6466 14.8957L17.4585 14.4276C17.439 14.3438 17.4613 14.2515 17.527 14.1872C17.6164 14.0978 17.7981 14.0601 17.9183 14.0657C17.9602 14.0671 18.0007 14.074 18.0357 14.0894C18.1656 14.0503 18.3124 14.0824 18.4158 14.1844C18.4479 14.2166 18.4717 14.2529 18.4913 14.2906C18.4996 14.3074 18.4968 14.3256 18.4857 14.3354C18.4745 14.3451 18.4563 14.3479 18.4368 14.334C18.3445 14.2697 18.2299 14.2515 18.1237 14.2781C18.1056 14.3521 18.0483 14.4248 17.9952 14.4779C17.882 14.5911 17.7087 14.6833 17.5661 14.5841L16.8912 14.974H17.9644C17.9798 14.9069 18.0217 14.8482 18.086 14.8105C18.195 14.7476 18.3809 14.7574 18.4955 14.7937C18.5737 14.8189 18.6408 14.8566 18.6562 14.9391C18.7428 14.967 18.8183 15.0257 18.8672 15.111C18.8895 15.1501 18.9035 15.192 18.9119 15.2325C18.9161 15.2521 18.9077 15.2675 18.8951 15.2745C18.8812 15.2814 18.863 15.2787 18.849 15.2605C18.7805 15.1794 18.6827 15.1319 18.5807 15.1263C18.5444 15.1613 18.5024 15.1906 18.4633 15.213C18.311 15.301 18.0986 15.3457 17.9924 15.1627H16.996L17.5647 15.4911C17.615 15.4436 17.6835 15.4156 17.759 15.4156C17.8987 15.4156 18.0706 15.5274 18.1615 15.6266C18.2229 15.6937 18.2663 15.7678 18.2355 15.8544C18.3026 15.9299 18.3431 16.0277 18.3431 16.1367C18.3431 16.187 18.3333 16.2345 18.318 16.2792C18.311 16.3002 18.2942 16.3114 18.2774 16.31C18.2607 16.31 18.2439 16.296 18.2411 16.2708C18.2201 16.1549 18.1517 16.0556 18.058 15.9928C18.0049 16.0067 17.9476 16.0109 17.8973 16.0109C17.7031 16.0109 17.4739 15.9355 17.4739 15.7021C17.4739 15.6881 17.4739 15.6741 17.4767 15.6602L16.7975 15.2675L15.9269 15.5008V15.5162C15.9269 15.7272 15.7201 15.7957 15.5454 15.7957C15.5007 15.7957 15.449 15.7915 15.4001 15.7803C15.3148 15.8362 15.2533 15.9271 15.2338 16.0319C15.231 16.0556 15.2156 16.0668 15.2002 16.0668C15.1849 16.0668 15.1709 16.0584 15.1639 16.0389C15.1499 15.9983 15.1415 15.955 15.1415 15.9103C15.1415 15.8125 15.1779 15.723 15.2394 15.656C15.2114 15.5777 15.2505 15.5106 15.3064 15.4505C15.3875 15.3611 15.5426 15.2605 15.6698 15.2605C15.7369 15.2605 15.7983 15.287 15.8445 15.329L16.5362 15.1431C16.0205 14.9083 15.4532 14.7672 14.8579 14.7378L14.5378 15.0579C14.4917 15.1026 14.4302 15.1291 14.3618 15.1291C14.2528 15.1291 14.1605 15.0606 14.1256 14.9642C14.0389 14.7253 13.9271 14.4821 13.7888 14.2417C13.684 14.0615 13.5708 13.8924 13.452 13.7373C13.2382 13.4508 12.9517 13.3068 12.7701 13.413C12.5674 13.529 12.5646 13.9077 12.7589 14.2711C12.9741 14.7197 13.2885 15.1124 13.6742 15.4184C13.8056 15.5218 13.9705 15.5833 14.1507 15.5833C14.1927 15.5833 14.2332 15.5805 14.2723 15.5735C14.5057 15.5372 14.7083 15.5959 14.7447 15.7175C14.7852 15.853 14.6035 16.0151 14.3394 16.0794C14.018 16.1577 13.6952 16.0445 13.5205 15.7552C13.4618 15.6616 13.343 15.6196 13.2522 15.6937C13.1907 15.744 13.1879 15.8362 13.2186 15.9201C13.3793 16.3477 13.7804 16.602 14.236 16.5951C14.366 16.5895 14.4708 16.6356 14.4917 16.7166C14.5197 16.8214 14.3967 16.9458 14.2164 16.9947C13.8209 17.1009 13.3402 16.7991 13.1404 16.4693C13.1194 16.433 13.0803 16.4092 13.0342 16.4092C12.9657 16.4092 12.9112 16.4637 12.9112 16.5322C12.8888 16.9975 13.2564 17.3748 13.7217 17.3707C13.7916 17.3707 13.8489 17.3944 13.8754 17.4405C13.9285 17.5328 13.8223 17.6949 13.6854 17.7731C13.5484 17.8514 13.4492 17.857 13.3696 17.8262C13.0426 17.7032 12.7952 17.4196 12.7197 17.0716C12.71 17.0143 12.6597 16.971 12.5982 16.971C12.5367 16.971 12.4864 17.0157 12.4766 17.073C12.4626 17.1429 12.4556 17.2155 12.4556 17.2882C12.4556 17.5928 12.5786 17.8681 12.777 18.0666C12.805 18.0973 12.8106 18.1225 12.7896 18.1588L12.042 19.4529C12.0336 19.4696 12.0154 19.4808 11.9959 19.4808C11.9763 19.4808 11.9595 19.4696 11.9497 19.4529L11.2021 18.1588C11.1811 18.1225 11.1867 18.0973 11.2147 18.0666C11.4131 17.8667 11.5361 17.5915 11.5361 17.2882C11.5361 17.2141 11.5291 17.1429 11.5151 17.073C11.5053 17.0143 11.455 16.971 11.3936 16.971C11.3321 16.971 11.2832 17.0143 11.272 17.0716C11.1979 17.4196 10.9492 17.7018 10.6222 17.8262C10.5439 17.857 10.4433 17.8514 10.3077 17.7731C10.1708 17.6949 10.0646 17.5328 10.1177 17.4405C10.1442 17.3944 10.2015 17.3707 10.2714 17.3707C10.7367 17.3748 11.1043 16.9975 11.0819 16.5322C11.0819 16.4637 11.026 16.4092 10.9589 16.4092C10.9142 16.4092 10.8751 16.433 10.8527 16.4693C10.6529 16.8005 10.1722 17.1009 9.77669 16.9947C9.59642 16.9458 9.47344 16.8228 9.50139 16.7166C9.52235 16.6356 9.62856 16.5895 9.75712 16.5951C10.2127 16.602 10.6152 16.3477 10.7745 15.9201C10.8052 15.8376 10.8024 15.7454 10.7409 15.6937C10.6501 15.6196 10.5313 15.6616 10.4726 15.7552C10.2979 16.0445 9.97513 16.1577 9.65371 16.0794C9.38959 16.0151 9.20792 15.853 9.24845 15.7175C9.28478 15.5959 9.48741 15.5372 9.72079 15.5735C9.75992 15.5805 9.80184 15.5833 9.84237 15.5833C10.0226 15.5833 10.1875 15.5218 10.3189 15.4184C10.7046 15.1124 11.0204 14.7197 11.2342 14.2711C11.4285 13.9077 11.4243 13.529 11.2231 13.413C11.04 13.3068 10.7549 13.4508 10.5411 13.7373C10.4209 13.8924 10.3077 14.0615 10.2043 14.2417C10.066 14.4821 9.95277 14.7253 9.86752 14.9642C9.83259 15.0606 9.73896 15.1291 9.63135 15.1291C9.56288 15.1291 9.49999 15.1012 9.45527 15.0579L9.13525 14.7378C8.53854 14.7672 7.97257 14.9083 7.4569 15.1431L8.14865 15.329C8.19476 15.2856 8.25625 15.2605 8.32333 15.2605C8.4491 15.2605 8.60422 15.3611 8.68667 15.4505C8.74117 15.5106 8.7817 15.5777 8.75375 15.656C8.81384 15.723 8.85157 15.8125 8.85157 15.9103C8.85157 15.955 8.84318 15.9983 8.82921 16.0389C8.82362 16.057 8.80825 16.0668 8.79288 16.0668C8.7775 16.0668 8.76353 16.0542 8.75934 16.0319C8.74117 15.9271 8.67968 15.8376 8.59304 15.7803C8.54413 15.7929 8.49242 15.7957 8.4477 15.7957C8.27162 15.7957 8.0648 15.7272 8.0648 15.5162V15.5008L7.19418 15.2675L6.51501 15.6602C6.51781 15.6741 6.51781 15.6881 6.51781 15.7021C6.51781 15.9355 6.28863 16.0109 6.09438 16.0109C6.04547 16.0109 5.98817 16.0067 5.93367 15.9928C5.83864 16.0556 5.77017 16.1549 5.7506 16.2708C5.74641 16.296 5.73104 16.3086 5.71427 16.31C5.6975 16.31 5.68073 16.3002 5.67374 16.2792C5.65837 16.2345 5.64859 16.187 5.64859 16.1367C5.64859 16.0291 5.68911 15.9299 5.75619 15.8544C5.72545 15.7678 5.76877 15.6937 5.83026 15.6266C5.9197 15.5274 6.09298 15.4156 6.23273 15.4156C6.30679 15.4156 6.37527 15.445 6.42697 15.4911L6.99574 15.1627H5.99935C5.89314 15.3457 5.68073 15.301 5.52841 15.213C5.48928 15.1906 5.44735 15.1613 5.41102 15.1263C5.30901 15.1319 5.21118 15.1794 5.14271 15.2605C5.12873 15.2787 5.11057 15.2814 5.09659 15.2745C5.08262 15.2675 5.07563 15.2521 5.07982 15.2325C5.08821 15.1906 5.10218 15.1487 5.12454 15.111C5.17345 15.0257 5.25031 14.967 5.33556 14.9391C5.35093 14.8566 5.41801 14.8189 5.49627 14.7937C5.61086 14.7574 5.79672 14.7476 5.90572 14.8105C5.97 14.8468 6.01193 14.9069 6.0273 14.974H7.10055L6.42558 14.5841C6.28304 14.6833 6.10975 14.5925 5.99656 14.4779C5.94485 14.4262 5.88616 14.3535 5.86799 14.2781C5.76178 14.2515 5.64719 14.2697 5.55496 14.334C5.53679 14.3479 5.51723 14.3451 5.50605 14.3354C5.49487 14.3256 5.49068 14.3074 5.50046 14.2906C5.52002 14.2529 5.54378 14.2166 5.57592 14.1844C5.67933 14.081 5.82607 14.0503 5.95603 14.0894C5.98957 14.074 6.0301 14.0671 6.07342 14.0657C6.1936 14.0601 6.37527 14.0992 6.46471 14.1872C6.53039 14.2529 6.55275 14.3438 6.53318 14.4276L7.34511 14.8957C7.82164 14.6791 8.3401 14.5366 8.88511 14.4835L8.49382 14.0922C8.48124 14.0796 8.47286 14.0615 8.47286 14.0419C8.47286 14.0042 8.5022 13.9734 8.53854 13.9706C9.4385 13.8365 10.1554 13.1461 10.3301 12.2601C10.3496 12.1735 10.2826 12.0896 10.1931 12.0896C10.1302 12.0896 10.0771 12.1316 10.059 12.1875C9.95836 12.4767 9.62716 13.0888 9.30435 13.1755C9.15622 13.2146 9.01926 13.1811 8.99691 13.1014C8.98153 13.0455 9.02625 12.9826 9.10311 12.9351C9.35046 12.759 9.55589 12.4278 9.55589 12.1176C9.55589 11.9988 9.45947 11.9024 9.34068 11.9024C9.22749 11.9024 9.13525 11.989 9.12547 12.0994C9.07237 12.5494 8.62658 13.462 8.10393 13.462C7.91527 13.462 7.76155 13.3516 7.76155 13.2146C7.76155 13.107 7.85658 13.0162 7.98794 12.9826C8.287 12.8988 8.54273 12.6654 8.64335 12.3691C8.69366 12.221 8.73558 11.8465 8.58745 11.7598C8.53574 11.7291 8.46028 11.7473 8.35966 11.8493C8.1738 12.0351 8.00331 12.2364 7.85099 12.453C7.5687 12.8485 7.22492 13.1992 6.83503 13.4885C6.52619 13.7233 6.07202 13.7051 5.73523 13.5416C5.56055 13.4564 5.42639 13.3292 5.47111 13.1601C5.50605 13.0315 5.67235 12.9603 5.86659 12.9784C6.3557 13.0273 6.83503 12.8485 7.17182 12.4907C7.47647 12.1693 7.72941 11.7976 7.91527 11.3895C7.95021 11.3113 7.92924 11.2414 7.88453 11.2162C7.84121 11.1911 7.77413 11.2106 7.71543 11.3085C7.3465 11.9233 6.67293 12.3356 5.90432 12.3356C5.72545 12.3314 5.57592 12.2685 5.48788 12.1064C5.39844 11.9443 5.41801 11.764 5.5298 11.7025C5.57033 11.6802 5.61784 11.6774 5.66676 11.69C5.76877 11.7179 5.87637 11.7333 5.98677 11.7361C6.79171 11.7515 7.52678 11.3113 7.83003 10.5538C7.83981 10.5329 7.844 10.5091 7.844 10.4854C7.844 10.3889 7.76574 10.3121 7.67071 10.3121C7.61621 10.3121 7.5687 10.3372 7.53656 10.375C7.20816 10.7411 6.54576 11.1645 6.03848 11.1645C5.82467 11.1645 5.6444 11.0919 5.534 10.9004C5.4236 10.709 5.44176 10.4923 5.57313 10.4169C5.62064 10.3889 5.67794 10.3833 5.73663 10.3973C5.85961 10.4281 5.98817 10.4448 6.11953 10.4448C6.37247 10.4448 6.61004 10.3861 6.82246 10.2827C7.17601 10.115 7.48346 9.86489 7.72102 9.56024C7.7364 9.53928 7.74478 9.51412 7.74478 9.48757C7.74478 9.4205 7.69028 9.36599 7.6232 9.36599C7.58267 9.36599 7.55752 9.38137 7.52957 9.40932C7.19698 9.72514 6.74699 9.92638 6.25229 9.92638C6.03429 9.92638 5.75759 9.90681 5.59549 9.74471C5.43617 9.5854 5.40543 9.35621 5.52701 9.23463C5.62483 9.13541 5.79392 9.13681 5.93926 9.22485C6.10696 9.32267 6.32077 9.37857 6.50942 9.37857C6.96639 9.37857 7.46808 9.03899 7.77972 8.73155C7.80906 8.69941 7.82723 8.65748 7.82723 8.60997C7.82723 8.51215 7.74758 8.43249 7.64975 8.43249C7.61342 8.43249 7.57988 8.44367 7.55053 8.46184C7.22912 8.66028 6.74699 8.83496 6.36409 8.83496C6.05106 8.83496 5.67095 8.68683 5.50744 8.40454C5.38307 8.18933 5.39425 7.95037 5.5312 7.87071C5.62483 7.81621 5.7534 7.84975 5.8638 7.94478C6.09298 8.1544 6.39763 8.28156 6.73162 8.28156C7.14806 8.28156 7.51839 8.08312 7.75317 7.77568C7.77133 7.75193 7.78251 7.72118 7.78251 7.68904C7.78251 7.5996 7.70146 7.53253 7.61482 7.54929C7.33253 7.61637 7.03627 7.65131 6.73302 7.65131C6.29282 7.65131 5.89454 7.47942 5.59968 7.19713C5.534 7.13704 5.48229 7.03922 5.46133 6.92183C5.42639 6.71501 5.50465 6.52915 5.63601 6.50679C5.6975 6.49701 5.75899 6.52216 5.81209 6.57526C6.16844 6.92183 6.65476 7.13425 7.18999 7.13425C7.38703 7.13425 7.74618 7.13984 7.74618 6.86733C7.74618 6.73597 7.63997 6.62837 7.50721 6.62837C6.78053 6.63815 5.40543 6.04702 5.40543 5.18898C5.40543 4.94023 5.534 4.739 5.69331 4.739C5.78973 4.739 5.87498 4.81307 5.92808 4.92626C6.28443 5.59984 6.96779 6.07358 7.76854 6.13227C7.80906 6.0051 7.92785 5.91147 8.06899 5.91147C8.12908 5.91147 8.18498 5.92824 8.23249 5.95759L9.31832 6.58505C9.57406 6.73318 9.69144 7.03084 9.62437 7.30334C9.61039 7.35365 9.60201 7.40675 9.60201 7.46265C9.60201 7.77708 9.85634 8.03142 10.1708 8.03142C10.4852 8.03142 10.7395 7.77708 10.7395 7.46265C10.7395 6.94699 10.467 6.49561 10.0576 6.24267C9.70402 6.02606 9.30994 5.90169 8.89769 5.87374C8.65173 5.85697 8.42814 5.76194 8.25066 5.61381C8.24228 5.60543 8.23669 5.59425 8.23669 5.58167C8.23669 5.55791 8.25625 5.53835 8.28001 5.53835C8.28839 5.53835 8.29538 5.54114 8.30237 5.54534C8.41416 5.61521 8.54553 5.65434 8.68527 5.65434C8.82502 5.65434 8.96057 5.61381 9.07237 5.54254C9.06259 5.51599 9.05141 5.49083 9.03743 5.46568C8.91865 5.49083 8.79427 5.50481 8.6699 5.50481C8.33171 5.50481 8.00052 5.41118 7.74199 5.2337C7.60503 5.14147 7.59106 5.0157 7.63298 4.95141C7.67071 4.89412 7.75317 4.88434 7.83422 4.98915C8.02427 5.2337 8.3373 5.39301 8.69226 5.39301C8.79008 5.39301 8.88511 5.38043 8.97594 5.35808C8.8893 5.2323 8.77191 5.13169 8.63496 5.06321C8.60003 5.04504 8.5595 5.03386 8.51758 5.03386C8.41556 5.03386 8.32752 5.09535 8.28839 5.18339C8.28141 5.19737 8.26743 5.20855 8.24926 5.20855C8.22551 5.20855 8.20594 5.18898 8.20594 5.16523C8.20594 4.93185 8.3946 4.75297 8.62658 4.75437C8.72859 4.75437 8.82781 4.76835 8.92424 4.7921C9.0011 4.6314 9.1646 4.521 9.35326 4.521C9.62157 4.521 9.86613 4.5741 10.0422 4.66074C10.393 4.83263 10.7759 4.9067 11.1658 4.88573C11.0316 5.02967 10.8779 5.15544 10.7102 5.26025C10.9799 5.38882 11.2189 5.57189 11.4117 5.79688C11.2328 5.80387 11.0554 5.81505 10.8779 5.82902C11.1951 5.8947 11.4858 6.03165 11.7331 6.22171C11.6116 6.23568 11.4942 6.25944 11.381 6.29298C11.6311 6.46906 11.8421 6.69684 11.9973 6.96236H12.0001ZM9.59222 4.9612C9.43571 4.9612 9.30994 5.03247 9.30994 5.12051C9.30994 5.20855 9.43711 5.27982 9.59222 5.27982C9.74734 5.27982 9.87451 5.20855 9.87451 5.12051C9.87451 5.03247 9.74734 4.9612 9.59222 4.9612ZM14.4079 4.9612C14.2514 4.9612 14.1256 5.03247 14.1256 5.12051C14.1256 5.20855 14.2528 5.27982 14.4079 5.27982C14.563 5.27982 14.6902 5.20855 14.6902 5.12051C14.6902 5.03247 14.563 4.9612 14.4079 4.9612Z" fill="black"/>
</g>
</g>
<rect x="0.25" y="0.25" width="23.5" height="23.5" rx="11.75" stroke="#E5E3E1" stroke-width="0.5"/>
<defs>
<clipPath id="clip0_16335_12575">
<rect width="24" height="24" rx="12" fill="white"/>
</clipPath>
</defs>
</svg>
