<svg width="24" height="24" viewBox="0 0 24 24" fill="none" xmlns="http://www.w3.org/2000/svg">
<g clip-path="url(#clip0_15784_758)">
<path d="M19.8004 22.6L13.2004 16H2.00039V13H10.2004L1.40039 4.2L2.80039 2.8L21.2004 21.2L19.8004 22.6ZM18.8504 16L18.0004 15.15V13H19.5004V16H18.8504ZM20.5004 16V13H22.0004V16H20.5004ZM17.0004 14.15L15.8504 13H17.0004V14.15ZM18.0004 12V10.7C18.0004 10.05 17.8087 9.55417 17.4254 9.2125C17.0421 8.87083 16.5837 8.7 16.0504 8.7H14.5004C13.5671 8.7 12.7754 8.375 12.1254 7.725C11.4754 7.075 11.1504 6.28333 11.1504 5.35C11.1504 4.41667 11.4754 3.625 12.1254 2.975C12.7754 2.325 13.5671 2 14.5004 2V3.5C14.0004 3.5 13.5671 3.675 13.2004 4.025C12.8337 4.375 12.6504 4.81667 12.6504 5.35C12.6504 5.88333 12.8337 6.325 13.2004 6.675C13.5671 7.025 14.0004 7.2 14.5004 7.2H16.0504C16.9837 7.2 17.7921 7.5 18.4754 8.1C19.1587 8.7 19.5004 9.45 19.5004 10.35V12H18.0004ZM20.5004 12V9.75C20.5004 8.65 20.1171 7.7 19.3504 6.9C18.5837 6.1 17.6337 5.7 16.5004 5.7V4.2C17.0004 4.2 17.4337 4.01667 17.8004 3.65C18.1671 3.28333 18.3504 2.85 18.3504 2.35H19.8504C19.8504 2.83333 19.7587 3.27083 19.5754 3.6625C19.3921 4.05417 19.1504 4.41667 18.8504 4.75C19.7837 5.18333 20.5421 5.85 21.1254 6.75C21.7087 7.65 22.0004 8.65 22.0004 9.75V12H20.5004Z" fill="#323232"/>
</g>
<defs>
<clipPath id="clip0_15784_758">
<rect width="24" height="24" fill="white"/>
</clipPath>
</defs>
</svg>
