<svg width="48" height="48" viewBox="0 0 48 48" fill="none" xmlns="http://www.w3.org/2000/svg">
<path d="M6.22055 21.23C7.25055 21.23 7.37055 24.12 7.37055 24.12H5.06055C5.06055 24.12 5.18055 21.23 6.21055 21.23H6.22055Z" fill="#8DE2E0"/>
<path d="M45.3606 19C45.3206 18.47 44.8906 18.07 44.3606 18.07H39.1506C38.6206 18.07 38.1906 18.48 38.1506 19L38.0106 21.15C37.4506 20.16 36.7106 19.14 35.7006 18.19C34.5806 17.14 33.2506 16.28 31.7506 15.65C30.5706 15.15 29.2606 14.78 27.8706 14.56C26.6806 14.36 25.3606 14.27 24.0406 14.27C24.0406 14.27 24.0406 14.27 24.0306 14.27C22.7106 14.27 21.3906 14.37 20.2006 14.57C18.8106 14.8 17.5006 15.17 16.3206 15.67C14.8206 16.31 13.4906 17.16 12.3706 18.21C11.3406 19.18 10.5806 20.22 10.0206 21.22L9.88056 19.17C9.84056 18.64 9.41056 18.24 8.88056 18.24H3.64056C3.11056 18.24 2.68056 18.65 2.64056 19.17L1.75056 32.61C1.73056 32.89 1.83056 33.16 2.02056 33.36C2.21056 33.56 2.47056 33.68 2.75056 33.68H9.75056C10.0306 33.68 10.2906 33.57 10.4806 33.36C10.6706 33.16 10.7706 32.89 10.7506 32.61L10.4106 27.49H37.5906L37.2606 32.44C37.2406 32.72 37.3406 32.99 37.5306 33.19C37.7206 33.39 37.9806 33.51 38.2606 33.51H45.2606C45.5406 33.51 45.8006 33.4 45.9906 33.19C46.1806 32.99 46.2806 32.72 46.2606 32.44L45.3706 19H45.3606ZM3.82056 31.68L4.58056 20.24H7.92056L8.68056 31.68H3.82056ZM32.8906 18.52V25.5H29.9506V17.14C30.2906 17.25 30.6406 17.36 30.9606 17.49C31.6506 17.78 32.2906 18.13 32.8806 18.52H32.8906ZM27.9606 16.62V25.5H25.0206V16.3C25.8906 16.34 26.7506 16.4 27.5406 16.53C27.6806 16.55 27.8106 16.59 27.9606 16.62ZM20.5006 16.54C21.2906 16.41 22.1506 16.34 23.0206 16.3V25.5H20.0806V16.63C20.2206 16.6 20.3506 16.56 20.5006 16.54ZM17.0706 17.51C17.3906 17.37 17.7406 17.27 18.0806 17.16V25.5H15.1406V18.54C15.7406 18.15 16.3806 17.8 17.0706 17.51ZM13.1506 20.26V25.5H10.5006C10.7606 24.26 11.4406 22.14 13.1506 20.26ZM34.8906 25.5V20.24C36.5906 22.13 37.2506 24.26 37.5006 25.5H34.8906ZM39.3206 31.51L40.0806 20.07H43.4206L44.1806 31.51H39.3206Z" fill="#323232"/>
<path d="M41.7694 21.23C42.7994 21.23 42.9194 24.12 42.9194 24.12H40.6094C40.6094 24.12 40.7294 21.23 41.7594 21.23H41.7694Z" fill="#8DE2E0"/>
</svg>
