<svg width="48" height="48" viewBox="0 0 48 48" fill="none" xmlns="http://www.w3.org/2000/svg">
<path d="M14.5295 40.3004C12.8295 40.3004 11.4495 38.9204 11.4495 37.2204V17.0904L7.00953 21.5304C6.40953 22.1104 5.62953 22.4104 4.79953 22.4104C3.97953 22.4004 3.20953 22.0604 2.63953 21.4704C1.47953 20.2704 1.47953 18.3904 2.63953 17.1904C2.63953 17.1904 2.63953 17.1904 2.64953 17.1804L13.8295 6.02035C14.2095 5.64035 14.8695 5.64035 15.2395 6.02035L26.4095 17.1904C27.5995 18.4204 27.5695 20.3804 26.3495 21.5604C25.1495 22.7204 23.2695 22.7204 22.0695 21.5604L17.6095 17.1004V37.2304C17.6095 38.9304 16.2295 40.3104 14.5295 40.3104V40.3004ZM12.4495 13.6804C12.5795 13.6804 12.7095 13.7004 12.8295 13.7604C13.1995 13.9104 13.4495 14.2804 13.4495 14.6804V37.2204C13.4495 37.8204 13.9295 38.3004 14.5295 38.3004C15.1295 38.3004 15.6095 37.8204 15.6095 37.2204V14.6804C15.6095 14.2804 15.8495 13.9104 16.2295 13.7604C16.6095 13.6104 17.0295 13.6904 17.3195 13.9804L23.4695 20.1304C23.8795 20.5204 24.5395 20.5204 24.9595 20.1204C25.3895 19.7104 25.3995 19.0204 24.9895 18.5904L14.5395 8.14035L4.07953 18.6004C3.67953 19.0204 3.67953 19.6804 4.07953 20.0904C4.27953 20.3004 4.54953 20.4104 4.83953 20.4204C4.83953 20.4204 4.84953 20.4204 4.85953 20.4204C5.13953 20.4204 5.40953 20.3104 5.60953 20.1204L11.7495 13.9804C11.9395 13.7904 12.1995 13.6904 12.4595 13.6904L12.4495 13.6804Z" fill="#323232"/>
<path d="M33.4692 42.2197C33.1992 42.2197 32.9492 42.1096 32.7592 41.9296L21.5892 30.7596C21.0092 30.1596 20.6992 29.3796 20.7092 28.5596C20.7192 27.7396 21.0592 26.9696 21.6492 26.3996C22.8492 25.2396 24.7292 25.2396 25.9292 26.3996L30.3892 30.8596V10.7196C30.3892 9.01965 31.7692 7.63965 33.4692 7.63965C35.1692 7.63965 36.5492 9.01965 36.5492 10.7196V30.8496L40.9892 26.4096C41.5892 25.8296 42.3692 25.5296 43.1992 25.5296C44.0192 25.5396 44.7892 25.8796 45.3592 26.4696C46.5192 27.6696 46.5192 29.5496 45.3592 30.7496C45.3592 30.7496 45.3592 30.7496 45.3492 30.7596L34.1792 41.9296C33.9892 42.1196 33.7392 42.2197 33.4692 42.2197ZM23.7992 27.5296C23.5292 27.5296 23.2592 27.6297 23.0492 27.8396C22.8392 28.0396 22.7292 28.3096 22.7192 28.5996C22.7192 28.8897 22.8192 29.1597 23.0192 29.3696L33.4692 39.8196L43.9292 29.3596C44.3292 28.9396 44.3292 28.2796 43.9292 27.8696C43.7292 27.6597 43.4592 27.5497 43.1692 27.5396C43.1692 27.5396 43.1592 27.5396 43.1492 27.5396C42.8692 27.5396 42.5992 27.6496 42.3992 27.8396L36.2592 33.9796C35.9692 34.2696 35.5492 34.3496 35.1692 34.1996C34.7992 34.0497 34.5492 33.6796 34.5492 33.2796V10.7196C34.5492 10.1196 34.0692 9.63965 33.4692 9.63965C32.8692 9.63965 32.3892 10.1196 32.3892 10.7196V33.2596C32.3892 33.6596 32.1492 34.0296 31.7692 34.1796C31.3992 34.3296 30.9692 34.2496 30.6792 33.9596L24.5292 27.8096C24.3292 27.6096 24.0592 27.5196 23.7992 27.5196V27.5296Z" fill="#323232"/>
</svg>
