<svg width="48" height="48" viewBox="0 0 48 48" fill="none" xmlns="http://www.w3.org/2000/svg">
<path d="M24 33.9499C23.17 33.9499 22.5 33.2799 22.5 32.4499V27.3599C22.5 26.5299 23.17 25.8599 24 25.8599C24.83 25.8599 25.5 26.5299 25.5 27.3599V32.4499C25.5 33.2799 24.83 33.9499 24 33.9499Z" fill="#DF0000"/>
<path d="M33.6104 13.6102V10.9802C33.6104 5.89023 29.4604 1.74023 24.3604 1.74023C19.2604 1.74023 15.1204 5.88023 15.1204 10.9802V13.5602C10.0304 13.7502 5.94043 17.9302 5.94043 23.0702C5.94043 30.4902 11.6604 38.0202 23.4304 46.0702C23.6004 46.1902 23.8004 46.2402 23.9904 46.2402C24.1804 46.2402 24.3804 46.1802 24.5504 46.0702C36.3204 38.0202 42.0404 30.4902 42.0404 23.0702C42.0404 18.1802 38.3404 14.1502 33.5904 13.6102H33.6104ZM24.3604 3.75023C28.3604 3.75023 31.6104 7.00023 31.6104 10.9902V13.6102C28.5304 13.9002 25.6404 15.6002 24.0004 18.0502C22.4904 15.8002 19.9204 14.1802 17.1204 13.7102V10.9902C17.1204 7.00023 20.3704 3.75023 24.3604 3.75023ZM24.0004 44.0402C13.3504 36.6402 7.94043 29.5902 7.94043 23.0802C7.94043 18.9302 11.3204 15.5502 15.4704 15.5502C18.7604 15.5502 22.0204 17.7102 23.0604 20.5802C23.2004 20.9802 23.5804 21.2402 24.0004 21.2402C24.4204 21.2402 24.8004 20.9802 24.9404 20.5802C25.9804 17.7102 29.2404 15.5502 32.5304 15.5502C36.6804 15.5502 40.0604 18.9302 40.0604 23.0802C40.0604 29.5902 34.6604 36.6302 24.0004 44.0402Z" fill="#323232"/>
<path fill-rule="evenodd" clip-rule="evenodd" d="M38.0401 22.7501C38.6601 22.0401 37.5201 18.8201 34.9201 17.8101C32.3201 16.8001 29.6601 17.4101 29.5101 18.6901C29.3001 20.4401 31.1701 18.4801 34.3001 19.9801C36.8301 21.2001 37.4201 23.1901 38.0501 22.7501H38.0401Z" fill="#8DE2E0"/>
</svg>
