<svg width="48" height="48" viewBox="0 0 48 48" fill="none" xmlns="http://www.w3.org/2000/svg">
<path d="M43.8493 26.3499C43.0793 24.9899 41.3393 24.4999 39.9893 25.2599L32.9993 29.0199C32.3993 28.1899 31.3893 27.6799 30.4393 27.6799H28.1093C24.4593 27.6799 23.0393 27.3599 21.7993 27.0799C20.8593 26.8699 19.9693 26.6699 18.3993 26.6699C14.6293 26.6699 11.0993 29.9999 9.2393 32.1199L9.0093 31.8899C8.6193 31.4999 7.9893 31.4999 7.5993 31.8899L4.0693 35.4199C3.8793 35.6099 3.7793 35.8599 3.7793 36.1299C3.7793 36.3999 3.8893 36.6499 4.0693 36.8399L12.5193 45.2899C12.7193 45.4899 12.9693 45.5799 13.2293 45.5799C13.4893 45.5799 13.7393 45.4799 13.9393 45.2899L17.4693 41.7599C17.6593 41.5699 17.7593 41.3199 17.7593 41.0499C17.7593 40.7799 17.6493 40.5299 17.4693 40.3399L17.0793 39.9499C18.2693 38.8599 19.9593 37.8099 22.1093 37.8099L29.4193 37.7799C30.4393 37.7799 31.3993 37.5699 32.2893 37.1799C36.0693 35.5099 42.8493 30.2599 43.1293 30.0299C44.2393 29.1599 44.5593 27.5899 43.8593 26.3599L43.8493 26.3499ZM13.2193 43.1499L6.1893 36.1199L8.3093 33.9999L15.3393 41.0299L13.2193 43.1499ZM41.8893 28.4399C39.5293 30.2699 34.3093 34.0799 31.4593 35.3399C30.8293 35.6199 30.1393 35.7599 29.3893 35.7699L22.0793 35.7999C19.1893 35.7999 16.9893 37.2799 15.6493 38.5199L10.6493 33.5199C12.1393 31.8199 15.3193 28.6599 18.3893 28.6599C19.7393 28.6599 20.4493 28.8199 21.3493 29.0199C22.6293 29.3099 24.2293 29.6699 28.0993 29.6699H30.4293C30.9193 29.6699 31.5193 30.0999 31.5193 30.5899C31.5193 30.8799 31.3193 31.0999 31.1993 31.1999C30.9793 31.3899 30.6893 31.5099 30.4093 31.5099L25.1993 31.6699C24.6493 31.6899 24.2093 32.1499 24.2293 32.6999C24.2493 33.2499 24.7393 33.6799 25.2593 33.6699L30.4393 33.5099C31.1793 33.5099 31.9293 33.2199 32.5193 32.7099C33.0493 32.2499 33.3793 31.6599 33.4793 31.0199L40.9493 26.9999C41.3593 26.7699 41.8793 26.9199 42.1193 27.3299C42.3293 27.7099 42.2393 28.1699 41.8993 28.4299L41.8893 28.4399Z" fill="#323232"/>
<path d="M24.0003 25.2899C30.0403 25.2899 34.9303 20.3999 34.9303 14.3599C34.9303 8.31994 30.0403 3.43994 24.0003 3.43994C17.9603 3.43994 13.0703 8.32994 13.0703 14.3699C13.0703 20.4099 17.9603 25.2999 24.0003 25.2999" fill="#DF0000"/>
<path fill-rule="evenodd" clip-rule="evenodd" d="M30.9195 20.4202C30.9195 20.4202 30.9395 20.4302 30.9495 20.4302C30.9695 20.4302 30.9795 20.4302 31.0095 20.4102C31.0295 20.3902 31.0295 20.3402 31.0095 20.3102C29.6395 18.8102 27.9695 17.6102 26.0995 16.8302L25.5295 16.5902C25.2295 16.4602 25.0395 16.1602 25.0395 15.8102C25.0695 14.5302 27.9595 14.7902 28.2595 14.1802L28.3095 14.0702C27.7095 13.5302 27.0095 13.1402 26.2295 12.9102C26.2195 12.9502 26.1995 13.0902 26.3595 13.3702C26.5295 13.6602 26.1795 14.1202 25.6495 13.6202L25.5995 13.5802C21.7695 9.92016 19.9995 12.3402 17.3995 8.07016C17.3795 8.03016 17.3395 8.02016 17.3095 8.05016C17.2795 8.07016 17.2595 8.11016 17.2795 8.15016C19.3295 13.3102 23.5295 12.2202 24.0295 17.0302C24.0495 17.2102 24.1795 17.3502 24.3495 17.3802C26.6795 17.7602 28.9495 18.7702 30.9195 20.4202H30.9295H30.9195Z" fill="white"/>
</svg>
