<svg width="48" height="48" viewBox="0 0 48 48" fill="none" xmlns="http://www.w3.org/2000/svg">
<path d="M28.8209 14.1396H19.1709C16.3909 14.1396 14.1309 16.3996 14.1309 19.1796V28.8296C14.1309 31.6096 16.3909 33.8696 19.1709 33.8696H28.8209C31.6009 33.8696 33.8609 31.6096 33.8609 28.8296V19.1796C33.8609 16.3996 31.6009 14.1396 28.8209 14.1396ZM24.0009 30.6196C20.5009 30.6196 17.6409 27.7696 17.6409 24.2596C17.6409 20.7496 20.4909 17.8996 24.0009 17.8996C27.5109 17.8996 30.3609 20.7496 30.3609 24.2596C30.3609 27.7696 27.5109 30.6196 24.0009 30.6196ZM30.4009 19.3096C29.5909 19.3096 28.9309 18.6496 28.9309 17.8396C28.9309 17.0296 29.5909 16.3696 30.4009 16.3696C31.2109 16.3696 31.8709 17.0296 31.8709 17.8396C31.8709 18.6496 31.2109 19.3096 30.4009 19.3096Z" fill="#323232"/>
<path d="M24.0007 20.4805C21.9207 20.4805 20.2207 22.1805 20.2207 24.2605C20.2207 26.3405 21.9107 28.0405 24.0007 28.0405C26.0907 28.0405 27.7807 26.3405 27.7807 24.2605C27.7807 22.1805 26.0807 20.4805 24.0007 20.4805Z" fill="#323232"/>
<path d="M24 2C11.85 2 2 11.85 2 24C2 36.15 11.85 46 24 46C36.15 46 46 36.15 46 24C46 11.85 36.15 2 24 2ZM36.44 28.83C36.44 33.03 33.02 36.45 28.82 36.45H19.17C14.97 36.45 11.55 33.03 11.55 28.83V19.18C11.55 14.98 14.97 11.56 19.17 11.56H28.82C33.02 11.56 36.44 14.98 36.44 19.18V28.83Z" fill="#323232"/>
</svg>
