<svg width="48" height="48" viewBox="0 0 48 48" fill="none" xmlns="http://www.w3.org/2000/svg">
<path d="M31.8206 12.1201C30.9106 12.1201 29.9306 12.0001 28.9406 11.6801C28.4206 11.5101 28.1306 10.9401 28.3006 10.4201C28.4706 9.90005 29.0406 9.61005 29.5606 9.78005C32.3606 10.7001 35.3106 9.46005 35.3406 9.45005C35.8506 9.23005 36.4306 9.47005 36.6506 9.97005C36.8706 10.4701 36.6406 11.0601 36.1306 11.2801C36.0206 11.3301 34.1606 12.1201 31.8106 12.1201H31.8206Z" fill="#DF0000"/>
<path d="M14.8604 44.2195C14.0104 44.2195 13.1904 43.9195 12.4104 43.3395C7.56035 39.6895 5.36035 24.5995 4.80035 20.0595C4.22035 15.3595 5.17035 11.3495 7.55035 8.46952C9.50035 6.09952 12.3504 4.66952 15.5704 4.44952C19.5004 4.17952 21.8904 5.09952 23.8104 6.23952C26.7404 4.35952 31.9904 2.15952 37.6504 5.33952C44.1504 8.98952 44.4204 21.3795 41.9104 31.3495C40.3604 37.5195 37.3404 44.1495 33.5004 44.2295C29.3604 44.3095 28.9304 40.2495 28.5704 36.6495C28.1104 32.0495 27.5704 29.2595 23.9404 29.1695C20.0704 29.0795 19.5704 31.9895 19.1704 36.7895C18.8904 40.1795 18.6004 43.6895 15.4704 44.1895C15.2704 44.2195 15.0704 44.2395 14.8704 44.2395L14.8604 44.2195ZM16.9204 6.39952C16.5304 6.39952 16.1204 6.40952 15.6904 6.43952C12.9904 6.62952 10.7004 7.76952 9.08035 9.72952C7.06035 12.1795 6.26035 15.6595 6.77035 19.7995C7.82035 28.3395 10.2404 39.1995 13.6004 41.7295C14.1204 42.1195 14.6204 42.2695 15.1404 42.1895C16.6204 41.9495 16.8904 39.9195 17.1704 36.5995C17.5104 32.5495 17.9404 26.9995 23.9804 27.1395C29.6404 27.2795 30.1504 32.3495 30.5504 36.4195C30.9604 40.4695 31.3804 42.2595 33.4504 42.1995C35.2804 42.1595 38.1004 38.2495 39.9604 30.8395C42.3604 21.2895 41.9904 10.0595 36.6604 7.05952C32.4804 4.71952 28.5504 5.78952 25.6604 7.42952C25.7104 7.46952 25.7604 7.49952 25.8204 7.53952C26.2704 7.84952 26.7304 8.16952 27.2204 8.46952C27.6904 8.75952 27.8304 9.37953 27.5304 9.84952C27.2404 10.3195 26.6204 10.4595 26.1504 10.1595C25.6404 9.83952 25.1604 9.50952 24.6904 9.18952C24.2204 8.86952 23.7604 8.55953 23.2904 8.25952C21.5404 7.13952 19.7404 6.39952 16.9404 6.39952H16.9204Z" fill="#323232"/>
<path d="M17.3155 15.8815C19.8812 13.3158 20.7392 10.0138 19.2318 8.50641C17.7243 6.99898 14.4224 7.85692 11.8566 10.4227C9.29088 12.9884 8.43295 16.2904 9.94037 17.7978C11.4478 19.3052 14.7497 18.4473 17.3155 15.8815Z" fill="#8DE2E0"/>
</svg>
