<svg width="133" height="30" viewBox="0 0 133 30" fill="none" xmlns="http://www.w3.org/2000/svg">
<path d="M70.7646 7.85294C70.7646 9.35294 70.147 10.5 69.1764 11.0294L70.7646 13.5H69.3529L68.0293 11.3824C67.8529 11.3824 67.6764 11.4706 67.4999 11.4706C65.5588 11.4706 64.2352 10.0588 64.2352 7.94118V3.52941C64.2352 1.32353 65.5588 0 67.4999 0C69.4411 0 70.7646 1.41176 70.7646 3.52941V7.85294ZM65.3823 7.85294C65.3823 9.17647 66.1764 10.2353 67.4999 10.2353C68.8235 10.2353 69.6176 9.26471 69.6176 7.85294V3.44118C69.6176 2.11765 68.8235 1.05882 67.4999 1.05882C66.1764 1.05882 65.3823 2.02941 65.3823 3.44118V7.85294Z" fill="#323232"/>
<path d="M73.4999 11.206L76.7646 0.0883789H77.9116L81.1763 11.206H79.9411L79.2352 8.6472H75.4411L74.7352 11.206H73.4999ZM75.7058 7.58838H78.9705L77.3822 1.85308L75.7058 7.58838Z" fill="#323232"/>
<path d="M90.7059 11.206H89.7353L85.4117 2.55897V11.206H84.3529V0.0883789H85.4117L89.647 8.55897V0.0883789H90.7059V11.206Z" fill="#323232"/>
<path d="M93.8823 0.0883789H100.323V1.23544H97.6764V11.206H96.5294V1.23544H93.8823V0.0883789Z" fill="#323232"/>
<path d="M101.735 11.206L104.912 0.0883789H106.059L109.323 11.206H108.088L107.382 8.6472H103.588L102.882 11.206H101.735ZM103.853 7.58838H107.029L105.353 1.85308L103.853 7.58838Z" fill="#323232"/>
<path d="M117.176 3.26471V3C117.176 1.85294 116.47 1.05882 115.235 1.05882C114 1.05882 113.294 1.76471 113.294 2.73529C113.294 3.52941 113.823 4.05882 114.441 4.41176L116.118 5.20588C117.265 5.73529 118.588 6.44118 118.588 8.29412C118.588 10.2353 117.265 11.5588 115.323 11.5588C113.382 11.5588 112.059 10.3235 112.059 8.38235V8.02941H113.206V8.38235C113.206 9.52941 114 10.3235 115.323 10.3235C116.647 10.3235 117.441 9.44118 117.441 8.38235C117.441 7.14706 116.647 6.70588 115.765 6.26471L114.353 5.64706C113.206 5.11765 112.323 4.32353 112.323 2.82353C112.323 1.14706 113.559 0 115.412 0C117.265 0 118.5 1.23529 118.5 3.17647V3.35294L117.176 3.26471Z" fill="#323232"/>
<path d="M70.9412 29.8236H69.7059V24.7059H65.5588V29.8236H64.4117V18.6177H65.5588V23.4706H69.7059V18.6177H70.8529C70.9412 18.6177 70.9412 29.8236 70.9412 29.8236Z" fill="#323232"/>
<path d="M81.0881 26.3826C81.0881 28.5885 79.7646 29.912 77.8234 29.912C75.8822 29.912 74.5587 28.5002 74.5587 26.3826V21.9708C74.5587 19.7649 75.8822 18.4414 77.8234 18.4414C79.7646 18.4414 81.0881 19.8532 81.0881 21.9708V26.3826ZM75.6175 26.3826C75.6175 27.7061 76.4117 28.7649 77.7352 28.7649C79.0587 28.7649 79.8528 27.7943 79.8528 26.3826V21.9708C79.8528 20.6473 79.0587 19.5885 77.7352 19.5885C76.4117 19.5885 75.6175 20.5591 75.6175 21.9708V26.3826Z" fill="#323232"/>
<path d="M85.8529 28.5883H90.2646V29.7353H84.7058V18.6177H85.8529V28.5883Z" fill="#323232"/>
<path d="M94.5 29.8236H93.3529V18.6177H94.5V29.8236Z" fill="#323232"/>
<path d="M104.823 22.2353V26.1177C104.823 28.3236 103.5 29.7353 101.471 29.7353H98.2941V18.6177H101.471C103.5 18.6177 104.823 20.0294 104.823 22.2353ZM99.4411 19.7647V28.5883H101.471C102.882 28.5883 103.676 27.5294 103.676 26.1177V22.1471C103.676 20.7353 102.882 19.6765 101.471 19.6765C101.382 19.7647 99.4411 19.7647 99.4411 19.7647Z" fill="#323232"/>
<path d="M107.471 29.8236L110.647 18.6177H111.794L115.059 29.8236H113.824L113.118 27.2647H109.324L108.618 29.8236H107.471ZM109.676 26.1177H112.853L111.176 20.3824L109.676 26.1177Z" fill="#323232"/>
<path d="M117.529 18.6177L119.823 24.0883L122.118 18.6177H123.265L120.353 25.3236V29.8236H119.206V25.3236L116.294 18.6177H117.529Z" fill="#323232"/>
<path d="M130.941 21.794V21.5293C130.941 20.3822 130.235 19.5881 129 19.5881C127.765 19.5881 127.059 20.294 127.059 21.2646C127.059 22.0587 127.588 22.5881 128.206 22.8528L129.882 23.5587C131.029 24.0881 132.353 24.7058 132.353 26.6469C132.353 28.5881 131.029 29.9116 129.088 29.9116C127.147 29.9116 125.823 28.6764 125.823 26.7352V26.5587H126.971V26.9116C126.971 28.0587 127.765 28.8528 129.088 28.8528C130.412 28.8528 131.206 27.9705 131.206 26.9116C131.206 25.6764 130.412 25.2352 129.529 24.794L128.118 24.1764C126.971 23.6469 126.088 22.8528 126.088 21.3528C126.088 19.6764 127.323 18.5293 129.176 18.5293C131.029 18.5293 132.265 19.7646 132.265 21.7058V21.8822L130.941 21.794Z" fill="#323232"/>
<path d="M11.2941 29.8237H41.7353L17.3824 5.29426C14.1176 2.02955 9.70588 0.0883789 5.11765 0.0883789H0L0.352941 1.05897L2.02941 5.47073L11.2941 29.8237Z" fill="url(#paint0_linear_15605_2367)"/>
<path d="M2.11761 5.55908C5.47055 11.2944 14.2058 11.8238 15.1764 20.7356C15.1764 21.0885 15.5294 21.3532 15.8823 21.4414C20.9117 22.2356 25.8529 24.265 30.0882 27.7061H30.1764H30.2647C30.3529 27.6179 30.3529 27.5297 30.2647 27.5297C27.3529 24.4414 23.647 21.9708 19.6764 20.2944L18.4411 19.765C17.8235 19.5003 17.3823 18.8826 17.3823 18.1767C17.4706 15.5297 23.7353 16.0591 24.3529 14.8238L24.4411 14.6473C23.1176 13.5885 21.6176 12.7061 19.9411 12.265C19.9411 12.3532 19.8529 12.6179 20.2058 13.2356C20.5588 13.8532 19.7647 14.8238 18.6176 13.765L18.5294 13.5003C10.0588 5.73555 3.70585 9.79438 0.352905 1.05908L2.11761 5.55908Z" fill="white"/>
<path d="M22.4118 14.3826C22.4118 14.3826 21 14.4708 20.2059 13.0591C20.4706 13.5003 20.2059 14.0297 19.5883 14.0297V16.1473C20.4706 15.8826 21.5294 15.7061 22.4118 15.5297V14.3826Z" fill="url(#paint1_linear_15605_2367)"/>
<path d="M16.8529 21.618C21.5294 22.5003 26.0294 24.5297 30 27.7062C21.1764 20.118 17.1176 21.5297 16.8529 21.618Z" fill="url(#paint2_linear_15605_2367)"/>
<path d="M3.88234 5.91202C2.47057 4.94144 1.32351 3.52967 0.441162 1.05908L2.11763 5.47085C5.47057 11.2061 14.2059 11.7356 15.1765 20.6473C14.1176 9.3532 9.17646 11.0297 3.88234 5.91202Z" fill="url(#paint3_linear_15605_2367)"/>
<path d="M53.2059 0V30" stroke="#323232" stroke-width="0.5" stroke-miterlimit="10"/>
<defs>
<linearGradient id="paint0_linear_15605_2367" x1="26.4974" y1="29.697" x2="6.16376" y2="0.00058433" gradientUnits="userSpaceOnUse">
<stop stop-color="#BE0000"/>
<stop offset="0.3898" stop-color="#DE0000"/>
<stop offset="0.768" stop-color="#F60000"/>
<stop offset="1" stop-color="#FF0000"/>
</linearGradient>
<linearGradient id="paint1_linear_15605_2367" x1="20.8714" y1="16.2948" x2="21.1454" y2="13.1613" gradientUnits="userSpaceOnUse">
<stop offset="0.65" stop-color="white" stop-opacity="0"/>
<stop offset="0.7285" stop-color="#E0E0E0" stop-opacity="0.2617"/>
<stop offset="0.8148" stop-color="#C5C5C5" stop-opacity="0.5493"/>
<stop offset="0.8914" stop-color="#B5B5B5" stop-opacity="0.8047"/>
<stop offset="0.95" stop-color="#AFAFAF"/>
</linearGradient>
<linearGradient id="paint2_linear_15605_2367" x1="16.8529" y1="24.5594" x2="30.0353" y2="24.5594" gradientUnits="userSpaceOnUse">
<stop stop-color="white" stop-opacity="0"/>
<stop offset="0.0839" stop-color="#F1F1F1" stop-opacity="0.0932"/>
<stop offset="0.2921" stop-color="#D4D4D4" stop-opacity="0.3246"/>
<stop offset="0.4993" stop-color="#C0C0C0" stop-opacity="0.5548"/>
<stop offset="0.7032" stop-color="#B3B3B3" stop-opacity="0.7814"/>
<stop offset="0.9" stop-color="#AFAFAF"/>
</linearGradient>
<linearGradient id="paint3_linear_15605_2367" x1="0.379397" y1="10.8841" x2="15.1235" y2="10.8841" gradientUnits="userSpaceOnUse">
<stop offset="0.25" stop-color="white" stop-opacity="0"/>
<stop offset="0.4615" stop-color="#EDEDED" stop-opacity="0.282"/>
<stop offset="0.886" stop-color="#BDBDBD" stop-opacity="0.848"/>
<stop offset="1" stop-color="#AFAFAF"/>
</linearGradient>
</defs>
</svg>
