<svg width="48" height="48" viewBox="0 0 48 48" fill="none" xmlns="http://www.w3.org/2000/svg">
<path d="M34.0002 4C28.7002 4 24.4102 8.3 24.4102 13.59C24.4102 18.88 28.7002 23.18 34.0002 23.18C39.3002 23.18 43.5902 18.89 43.5902 13.59C43.5902 8.29 39.3002 4 34.0002 4Z" fill="#DF0000"/>
<path d="M14.1901 20.3701H9.83008V44.0001H14.1901V20.3701Z" fill="#8DE2E0"/>
<path d="M14.1902 44.2099C13.6402 44.2099 13.1902 43.7599 13.1902 43.2099V21.3799H5.41016V43.2099C5.41016 43.7599 4.96016 44.2099 4.41016 44.2099C3.86016 44.2099 3.41016 43.7599 3.41016 43.2099V20.3799C3.41016 19.8299 3.86016 19.3799 4.41016 19.3799H14.1902C14.7402 19.3799 15.1902 19.8299 15.1902 20.3799V43.2099C15.1902 43.7599 14.7402 44.2099 14.1902 44.2099Z" fill="#323232"/>
<path d="M28.4691 27.9902H24.1191V44.0002H28.4691V27.9902Z" fill="#8DE2E0"/>
<path d="M28.4695 44.2102C27.9195 44.2102 27.4695 43.7602 27.4695 43.2102V28.9902H19.6895V43.2102C19.6895 43.7602 19.2395 44.2102 18.6895 44.2102C18.1395 44.2102 17.6895 43.7602 17.6895 43.2102V27.9902C17.6895 27.4402 18.1395 26.9902 18.6895 26.9902H28.4695C29.0195 26.9902 29.4695 27.4402 29.4695 27.9902V43.2102C29.4695 43.7602 29.0195 44.2102 28.4695 44.2102Z" fill="#323232"/>
<path d="M42.7502 34.5098H38.4102V43.9998H42.7502V34.5098Z" fill="#8DE2E0"/>
<path d="M42.7507 44.2098C42.2007 44.2098 41.7507 43.7598 41.7507 43.2098V35.5098H33.9707V43.2098C33.9707 43.7598 33.5207 44.2098 32.9707 44.2098C32.4207 44.2098 31.9707 43.7598 31.9707 43.2098V34.5098C31.9707 33.9598 32.4207 33.5098 32.9707 33.5098H42.7507C43.3007 33.5098 43.7507 33.9598 43.7507 34.5098V43.2098C43.7507 43.7598 43.3007 44.2098 42.7507 44.2098Z" fill="#323232"/>
<path d="M34.5504 17.9296V19.2496H33.3604V17.8996C32.0204 17.6796 31.1504 16.7696 31.1504 15.4396V15.1496H32.7604V15.4996C32.7604 16.1896 33.2204 16.5996 34.0004 16.5996C34.7804 16.5996 35.2404 16.1396 35.2404 15.5096C35.2404 14.9696 34.9704 14.6196 34.4304 14.3996L33.2004 13.9196C32.0704 13.4696 31.3304 12.7396 31.3304 11.5196C31.3304 10.3696 32.0804 9.38957 33.3604 9.14957V7.80957H34.5504V9.14957C35.8204 9.35957 36.6704 10.2796 36.6704 11.6196V11.7996H35.0604V11.5496C35.0604 10.8996 34.6304 10.4396 33.9604 10.4396C33.2904 10.4396 32.9104 10.8496 32.9104 11.3996C32.9104 11.7296 33.0504 12.1496 33.5904 12.3596L34.7304 12.8096C35.7404 13.2196 36.8404 13.7696 36.8404 15.3496C36.8404 16.7496 35.9504 17.7496 34.5504 17.9296Z" fill="white"/>
</svg>
