<svg width="48" height="48" viewBox="0 0 48 48" fill="none" xmlns="http://www.w3.org/2000/svg">
<path d="M9.27086 20.0201C6.22086 19.0601 2.88086 17.2301 2.88086 16.3201C2.88086 15.4101 6.23086 13.5701 9.27086 12.6201" fill="#8DE2E0"/>
<path d="M40.9492 11.21C43.1592 12.53 45.1192 15.06 45.1192 16.32C45.1192 17.58 43.1492 20.11 40.9492 21.43" fill="#8DE2E0"/>
<path d="M36.3398 23.3498C36.3398 23.3498 36.2998 23.3698 36.2798 23.3698C36.2598 23.3698 36.2398 23.3698 36.2298 23.3498C33.8798 21.4698 31.1798 20.3298 28.4098 19.8898C28.2098 19.8598 28.0598 19.6998 28.0398 19.4998C27.4498 14.0098 22.4598 15.2598 20.0198 9.36977C19.9998 9.32977 20.0198 9.28977 20.0498 9.26977C20.0898 9.24977 20.1398 9.25977 20.1698 9.29977C23.2598 14.1498 25.3598 11.3898 29.9098 15.5698L29.9598 15.6198C30.5898 16.1898 31.0098 15.6598 30.8098 15.3298C30.6198 15.0198 30.6398 14.8498 30.6498 14.8198C31.5798 15.0698 32.4198 15.5298 33.1298 16.1298L33.0698 16.2498C32.7198 16.9498 29.2798 16.6498 29.2398 18.1098C29.2298 18.5098 29.4698 18.8498 29.8198 18.9898L30.4998 19.2598C32.7298 20.1598 34.7098 21.5198 36.3398 23.2298C36.3698 23.2598 36.3698 23.3198 36.3398 23.3498Z" fill="#DF0000"/>
<path d="M41.9509 10.6601V6.06008C41.9509 5.59008 41.6209 5.18008 41.1709 5.08008C34.8209 3.68008 21.1809 3.44008 15.0909 6.28008C14.7409 6.44008 14.5109 6.80008 14.5109 7.19008V7.78008C13.0309 8.17008 10.8309 8.83008 8.86086 9.72008C8.50086 9.88008 8.27086 10.2401 8.27086 10.6301V11.9001C6.48086 12.5501 1.88086 14.4001 1.88086 16.3101C1.88086 18.2201 6.48086 20.0801 8.27086 20.7201V21.9901C8.27086 22.3801 8.50086 22.7401 8.86086 22.9001C10.8309 23.7901 13.0309 24.4401 14.5109 24.8401V25.4301C14.5109 25.8201 14.7409 26.1701 15.0909 26.3401C18.4909 27.9301 24.2509 28.5501 29.7809 28.5501C34.1509 28.5501 38.3709 28.1601 41.1809 27.5401C41.6409 27.4401 41.9609 27.0301 41.9609 26.5601V21.9601C44.0209 20.5501 46.1309 18.0501 46.1309 16.3101C46.1309 14.5701 44.0209 12.0601 41.9609 10.6601H41.9509ZM4.01086 16.3201C4.56086 15.8001 6.17086 14.8301 8.27086 14.0301V18.6101C6.17086 17.8101 4.56086 16.8401 4.01086 16.3201ZM10.2709 21.3401V11.2901C11.4809 10.7901 12.9609 10.2901 14.5109 9.86007V22.7701C12.9609 22.3401 11.4809 21.8401 10.2709 21.3401ZM39.9509 25.7501C33.1809 27.0401 21.7509 26.8501 16.5109 24.7701V7.85008C21.7509 5.78008 33.1809 5.58008 39.9509 6.87008V25.7501ZM41.9509 19.4201V13.2001C43.2609 14.4001 44.1209 15.7901 44.1209 16.3101C44.1209 16.8301 43.2609 18.2201 41.9509 19.4201Z" fill="#323232"/>
<path d="M42.1408 36.3801C42.4608 36.3801 42.7708 36.2201 42.9608 35.9601C43.1508 35.6901 43.1908 35.3601 43.0908 35.0501C42.1508 32.3901 39.6308 30.6001 36.8108 30.6001C34.4608 30.6001 32.2708 31.8601 31.0808 33.8701H16.9308C15.7408 31.8701 13.5508 30.6001 11.2008 30.6001C8.38084 30.6001 5.86084 32.3901 4.92084 35.0501C4.81084 35.3601 4.86084 35.7001 5.05084 35.9601C5.24084 36.2201 5.54084 36.3801 5.87084 36.3801H10.8408L11.2908 37.2701L10.8408 38.1601H5.87084C5.55084 38.1601 5.24084 38.3201 5.05084 38.5801C4.86084 38.8501 4.82084 39.1801 4.92084 39.4901C5.86084 42.1501 8.38084 43.9401 11.2008 43.9401C13.5508 43.9401 15.7408 42.6801 16.9308 40.6701H31.0808C32.2708 42.6701 34.4608 43.9401 36.8108 43.9401C39.6308 43.9401 42.1508 42.1501 43.0908 39.4901C43.2008 39.1801 43.1508 38.8401 42.9608 38.5801C42.7708 38.3201 42.4708 38.1601 42.1408 38.1601H37.1708L36.7208 37.2701L37.1708 36.3801H42.1408ZM34.7108 37.7201L35.6708 39.6101C35.8408 39.9401 36.1908 40.1601 36.5608 40.1601H40.4608C39.5908 41.2601 38.2508 41.9401 36.8008 41.9401C35.0008 41.9401 33.3408 40.8801 32.5808 39.2501C32.4108 38.9001 32.0608 38.6701 31.6708 38.6701H16.3208C15.9308 38.6701 15.5808 38.8901 15.4108 39.2501C14.6408 40.8801 12.9908 41.9401 11.1908 41.9401C9.74084 41.9401 8.40084 41.2601 7.53084 40.1601H11.4308C11.8108 40.1601 12.1508 39.9501 12.3208 39.6101L13.2808 37.7201C13.4308 37.4301 13.4308 37.1001 13.2808 36.8101L12.3208 34.9201C12.1508 34.5901 11.8008 34.3701 11.4308 34.3701H7.53084C8.40084 33.2701 9.74084 32.5901 11.1908 32.5901C12.9908 32.5901 14.6508 33.6501 15.4108 35.2801C15.5808 35.6301 15.9308 35.8601 16.3208 35.8601H31.6708C32.0608 35.8601 32.4108 35.6401 32.5808 35.2801C33.3508 33.6501 35.0008 32.5901 36.8008 32.5901C38.2508 32.5901 39.5908 33.2701 40.4608 34.3701H36.5608C36.1808 34.3701 35.8408 34.5801 35.6708 34.9201L34.7108 36.8101C34.5608 37.1001 34.5608 37.4301 34.7108 37.7201Z" fill="#323232"/>
</svg>
