<svg width="24" height="24" viewBox="0 0 24 24" fill="none" xmlns="http://www.w3.org/2000/svg">
<g clip-path="url(#clip0_16335_6415)">
<path d="M23.8173 14.0815C24.967 7.55456 20.6078 1.33141 14.0809 0.181715C7.55398 -0.967985 1.33084 3.39113 0.181142 9.91806C-0.968558 16.445 3.39055 22.6681 9.91748 23.8178C16.4444 24.9675 22.6676 20.6084 23.8173 14.0815Z" fill="white"/>
<mask id="mask0_16335_6415" style="mask-type:luminance" maskUnits="userSpaceOnUse" x="-1" y="-1" width="26" height="26">
<path d="M23.8173 14.0815C24.967 7.55456 20.6078 1.33141 14.0809 0.181715C7.55398 -0.967985 1.33084 3.39113 0.181142 9.91806C-0.968558 16.445 3.39055 22.6681 9.91748 23.8178C16.4444 24.9675 22.6676 20.6084 23.8173 14.0815Z" fill="white"/>
</mask>
<g mask="url(#mask0_16335_6415)">
<path d="M30.0007 6.0007H-5.99933V18.0007H30.0007V6.0007Z" fill="black"/>
<path d="M30.0007 0H-5.99933V6.0007H30.0007V0Z" fill="#FF0000"/>
<path d="M30.0007 17.9993H-5.99933V24H30.0007V17.9993Z" fill="#007C29"/>
<path fill-rule="evenodd" clip-rule="evenodd" d="M10.7465 8.99127C11.5933 8.99127 12.3591 9.34203 12.9055 9.90521C12.4723 9.58519 11.9371 9.39514 11.3572 9.39514C9.91777 9.39514 8.75229 10.562 8.75229 12C8.75229 13.438 9.91917 14.6049 11.3572 14.6049C11.9371 14.6049 12.4723 14.4148 12.9055 14.0948C12.3591 14.658 11.5933 15.0087 10.7465 15.0087C9.08488 15.0087 7.73773 13.6616 7.73773 12C7.73773 10.3384 9.08488 8.99127 10.7465 8.99127Z" fill="white"/>
<path fill-rule="evenodd" clip-rule="evenodd" d="M12.1411 12.0042L13.7147 11.4913L13.7119 9.83533L14.6873 11.1741L16.2594 10.6598L15.2882 11.9986L16.2636 13.3374L14.6873 12.8245L13.7175 14.1689L13.7147 12.5115L12.1411 12.0042Z" fill="white"/>
</g>
</g>
<rect x="0.25" y="0.25" width="23.5" height="23.5" rx="11.75" stroke="#E5E3E1" stroke-width="0.5"/>
<defs>
<clipPath id="clip0_16335_6415">
<rect width="24" height="24" rx="12" fill="white"/>
</clipPath>
</defs>
</svg>
