<svg width="48" height="48" viewBox="0 0 48 48" fill="none" xmlns="http://www.w3.org/2000/svg">
<path d="M2.96016 26.6204H6.30016V32.7504H2.96016C2.66016 32.7504 2.41016 32.5104 2.41016 32.2004V27.1604C2.41016 26.8604 2.65016 26.6104 2.96016 26.6104V26.6204Z" fill="#DF0000"/>
<path d="M43.5898 11.0898H8.2998C6.6498 11.0898 5.2998 12.4398 5.2998 14.0898V33.8998C5.2998 35.5498 6.6498 36.8998 8.2998 36.8998H43.5898C45.2398 36.8998 46.5898 35.5498 46.5898 33.8998V14.0898C46.5898 12.4398 45.2398 11.0898 43.5898 11.0898ZM43.5898 34.9098H8.2998C7.7498 34.9098 7.2998 34.4598 7.2998 33.9098V16.8798C7.7598 16.7898 8.1098 16.3998 8.1098 15.9198C8.1098 15.4398 7.7598 15.0498 7.2998 14.9598V14.0998C7.2998 13.5498 7.7498 13.0998 8.2998 13.0998H43.5898C44.1398 13.0998 44.5898 13.5498 44.5898 14.0998V14.9598C44.1298 15.0498 43.7798 15.4398 43.7798 15.9198C43.7798 16.3998 44.1298 16.7898 44.5898 16.8798V33.9098C44.5898 34.4598 44.1398 34.9098 43.5898 34.9098Z" fill="#323232"/>
<path d="M12.73 14.9199H11.04C10.49 14.9199 10.04 15.3699 10.04 15.9199C10.04 16.4699 10.49 16.9199 11.04 16.9199H12.73C13.28 16.9199 13.73 16.4699 13.73 15.9199C13.73 15.3699 13.28 14.9199 12.73 14.9199Z" fill="#323232"/>
<path d="M18.3502 14.9199H16.6602C16.1102 14.9199 15.6602 15.3699 15.6602 15.9199C15.6602 16.4699 16.1102 16.9199 16.6602 16.9199H18.3502C18.9002 16.9199 19.3502 16.4699 19.3502 15.9199C19.3502 15.3699 18.9002 14.9199 18.3502 14.9199Z" fill="#323232"/>
<path d="M23.98 14.9199H22.29C21.74 14.9199 21.29 15.3699 21.29 15.9199C21.29 16.4699 21.74 16.9199 22.29 16.9199H23.98C24.53 16.9199 24.98 16.4699 24.98 15.9199C24.98 15.3699 24.53 14.9199 23.98 14.9199Z" fill="#323232"/>
<path d="M40.8394 14.9199H39.1494C38.5994 14.9199 38.1494 15.3699 38.1494 15.9199C38.1494 16.4699 38.5994 16.9199 39.1494 16.9199H40.8394C41.3894 16.9199 41.8394 16.4699 41.8394 15.9199C41.8394 15.3699 41.3894 14.9199 40.8394 14.9199Z" fill="#323232"/>
<path d="M35.2203 14.9199H33.5303C32.9803 14.9199 32.5303 15.3699 32.5303 15.9199C32.5303 16.4699 32.9803 16.9199 33.5303 16.9199H35.2203C35.7703 16.9199 36.2203 16.4699 36.2203 15.9199C36.2203 15.3699 35.7703 14.9199 35.2203 14.9199Z" fill="#323232"/>
<path d="M29.6002 14.9199H27.9102C27.3602 14.9199 26.9102 15.3699 26.9102 15.9199C26.9102 16.4699 27.3602 16.9199 27.9102 16.9199H29.6002C30.1502 16.9199 30.6002 16.4699 30.6002 15.9199C30.6002 15.3699 30.1502 14.9199 29.6002 14.9199Z" fill="#323232"/>
<path d="M33.7297 32.7104C33.7297 32.7104 33.6897 32.7304 33.6697 32.7304C33.6497 32.7304 33.6297 32.7304 33.6197 32.7104C31.3797 30.9104 28.7997 29.8204 26.1497 29.4104C25.9597 29.3804 25.8097 29.2304 25.7897 29.0404C25.2297 23.8004 20.4597 24.9904 18.1297 19.3604C18.1197 19.3204 18.1297 19.2804 18.1597 19.2604C18.1997 19.2404 18.2497 19.2504 18.2697 19.2804C21.2197 23.9204 23.2297 21.2804 27.5797 25.2704L27.6297 25.3204C28.2297 25.8704 28.6397 25.3604 28.4397 25.0404C28.2597 24.7504 28.2797 24.5804 28.2897 24.5504C29.1797 24.7904 29.9797 25.2304 30.6597 25.8104L30.5997 25.9204C30.2697 26.5904 26.9797 26.3104 26.9397 27.7004C26.9397 28.0804 27.1597 28.4104 27.4897 28.5504L28.1397 28.8104C30.2697 29.6704 32.1697 30.9704 33.7197 32.6004C33.7497 32.6304 33.7497 32.6804 33.7197 32.7104H33.7297Z" fill="#DF0000"/>
</svg>
