<svg width="48" height="48" viewBox="0 0 48 48" fill="none" xmlns="http://www.w3.org/2000/svg">
<path d="M32.9796 37.1696C32.3396 37.1696 31.6996 36.8896 31.1096 36.3396C30.9396 36.1796 30.7696 36.0296 30.5996 35.8696C29.5396 34.9096 28.3396 33.8296 27.9696 32.0196C27.8996 32.0196 27.7796 32.0196 27.6296 32.0796C27.4896 32.1196 27.3296 32.2196 27.1396 32.3196C27.0296 32.3796 26.9096 32.4496 26.7896 32.5096C26.4196 32.6996 25.9696 32.6396 25.6596 32.3596L25.0496 31.8096C24.6196 31.4196 24.1996 31.0296 23.7696 30.6596C22.1996 29.3196 20.5396 28.9996 18.8296 29.7196C17.5096 30.2796 16.2096 31.0296 14.9596 31.7596L14.2596 32.1596C13.6196 32.5296 12.9996 32.9196 12.3696 33.3096C11.5696 33.8096 10.7296 34.3296 9.86963 34.7996C9.44963 35.0296 8.99963 35.1596 8.60963 35.2496C8.00963 35.3996 7.35963 35.2496 6.86963 34.8796C6.39963 34.5196 6.12963 33.9696 6.11963 33.3896C6.11963 32.7696 5.77963 32.2696 5.36963 31.6296C5.26963 31.4896 5.17964 31.3396 5.08964 31.1896C3.17964 28.1396 2.11963 25.6196 1.63963 23.0296C1.09963 20.0996 1.90964 18.7396 4.70964 17.8196L4.86963 17.7696C5.18963 17.6596 5.52963 17.5496 5.89963 17.4796C7.82963 17.1196 9.11963 15.9596 10.3396 13.4596C10.9596 12.1996 11.7596 11.0396 12.5296 9.9196L13.0296 9.1996C13.6196 8.3296 14.7896 8.0596 15.6996 8.5896C16.0896 8.8196 16.4096 8.9996 16.7396 9.1696C16.8996 9.2496 17.0396 9.2196 17.1096 9.1996C17.1796 9.1796 17.3196 9.1096 17.3896 8.9496L17.4996 8.7296C17.6496 8.4196 17.7996 8.1296 17.8396 7.8896C18.0196 6.7796 18.6996 5.4496 20.8796 5.5296C21.7996 5.5596 22.7296 5.5496 23.7196 5.5396H25.1196C25.4596 5.5396 25.7696 5.7096 25.9596 5.9896C26.1496 6.2696 26.1696 6.6296 26.0296 6.9396L25.7296 7.6196C25.5296 8.0796 25.3396 8.4996 25.1496 8.9096C24.9296 9.3696 25.0696 9.9196 25.4696 10.1896C26.8896 11.1496 28.5796 11.6096 30.6096 11.5696C30.9396 11.5696 31.1696 11.2896 31.3096 10.7496C31.5696 9.7396 31.7596 8.6696 31.9496 7.6396C32.0196 7.2496 32.0896 6.8596 32.1696 6.4696L32.1896 6.3596C32.2796 5.8896 32.3896 5.2996 32.8196 4.6296C33.0196 4.3096 33.3896 4.1396 33.7696 4.1796C34.1496 4.2196 34.4696 4.4696 34.5996 4.8196C34.7296 5.1496 34.8696 5.4796 35.0196 5.8096C35.3696 6.6096 35.7396 7.4396 35.8796 8.3496C36.3796 11.5096 37.6896 13.9296 39.8996 15.7296C40.3296 16.0796 40.3896 16.7096 40.0396 17.1396C39.6896 17.5696 39.0596 17.6296 38.6296 17.2796C36.0296 15.1496 34.4796 12.3296 33.8996 8.6596C33.8896 8.5796 33.8696 8.4896 33.8496 8.4096C33.6796 9.3496 33.4996 10.2996 33.2596 11.2496C32.8996 12.6896 31.9196 13.5596 30.6596 13.5796C28.2096 13.6096 26.0996 13.0396 24.3596 11.8596C23.1296 11.0296 22.7096 9.42959 23.3596 8.0696C23.4396 7.8996 23.5196 7.7296 23.5996 7.5596C22.6396 7.5596 21.7496 7.5596 20.8496 7.5396C19.9896 7.5196 19.9096 7.7496 19.8296 8.2196C19.7396 8.7596 19.5096 9.2196 19.3096 9.6296L19.2096 9.8296C18.9196 10.4396 18.4096 10.8896 17.7696 11.1096C17.1296 11.3296 16.4496 11.2796 15.8496 10.9696C15.4796 10.7796 15.1296 10.5796 14.6996 10.3296L14.1896 11.0696C13.4196 12.1796 12.6996 13.2296 12.1496 14.3496C11.0796 16.5296 9.54963 18.8396 6.27963 19.4496C6.01964 19.4996 5.76963 19.5896 5.51963 19.6696L5.34963 19.7296C3.50963 20.3396 3.26963 20.7496 3.61963 22.6796C4.04963 25.0096 5.02963 27.3096 6.79963 30.1396C6.87963 30.2696 6.96963 30.3996 7.05963 30.5396C7.55963 31.2996 8.12963 32.1696 8.13964 33.3796C8.52963 33.2296 8.74964 33.1496 8.92964 33.0496C9.73964 32.6096 10.5396 32.1096 11.3196 31.6196C11.9696 31.2196 12.6096 30.8096 13.2796 30.4296L13.9696 30.0296C15.2796 29.2696 16.6296 28.4896 18.0596 27.8796C20.4896 26.8496 22.9196 27.2796 25.0796 29.1396C25.5296 29.5296 25.9696 29.9296 26.4096 30.3296L26.4796 30.3996C26.6396 30.3196 26.8196 30.2396 27.0096 30.1696C27.7596 29.9196 28.4796 29.9696 29.0296 30.2896C29.4896 30.5596 29.8096 31.0196 29.9196 31.5896C30.1496 32.7696 30.9796 33.5196 31.9396 34.3796C32.1196 34.5396 32.2996 34.7096 32.4796 34.8796C32.8896 35.2696 33.0496 35.2396 33.4296 34.9396C34.6596 33.9296 36.0396 33.9096 37.2996 34.8696C37.2996 34.8696 37.3596 34.8696 37.4296 34.8696C37.4696 34.8696 37.5096 34.8696 37.5496 34.8696C37.9696 34.8096 38.3896 34.6996 38.7496 34.5996L39.2896 33.3996C39.5196 32.8996 40.0996 32.6696 40.6096 32.8896C41.1096 33.1196 41.3396 33.7096 41.1196 34.2096L40.3896 35.8496C40.2596 36.1296 40.0096 36.3396 39.7096 36.4196L39.3596 36.5096C38.9596 36.6196 38.4096 36.7596 37.8496 36.8396C37.3396 36.9196 36.6096 36.8596 36.0896 36.4596C35.5696 36.0596 35.1996 36.0696 34.6896 36.4896C34.1396 36.9396 33.5496 37.1596 32.9796 37.1596V37.1696Z" fill="#323232"/>
<path d="M36.5995 43.8093C33.4495 43.8093 33.3695 41.0393 33.3195 39.5593L33.2995 39.0793C33.2895 38.8093 33.3895 38.5393 33.5795 38.3393C33.7695 38.1393 34.0295 38.0293 34.2995 38.0293H38.4795C38.9795 38.0293 39.3995 38.3993 39.4695 38.8893C39.5795 39.6893 39.7295 41.6993 38.6795 42.8993C38.1595 43.4893 37.4395 43.7993 36.5895 43.7993L36.5995 43.8093ZM35.3495 40.0293C35.4295 41.5293 35.6795 41.8093 36.5995 41.8093C36.9495 41.8093 37.0895 41.6893 37.1795 41.5893C37.4195 41.3093 37.5595 40.7293 37.5595 40.0293H35.3495Z" fill="#323232"/>
<path d="M41.11 18.29C38.68 18.29 36.71 20.26 36.71 22.69C36.71 26.67 41.11 31.51 41.11 31.51C41.11 31.51 45.52 26.66 45.52 22.69C45.52 20.26 43.55 18.29 41.11 18.29ZM41.11 24.56C40.09 24.56 39.26 23.72 39.26 22.7C39.26 21.68 40.09 20.85 41.11 20.85C42.13 20.85 42.96 21.68 42.96 22.7C42.96 23.72 42.13 24.56 41.11 24.56Z" fill="#DF0000"/>
</svg>
