<svg width="102" height="32" viewBox="0 0 102 32" fill="none" xmlns="http://www.w3.org/2000/svg">
<path fill-rule="evenodd" clip-rule="evenodd" d="M12.9047 4.03906H18.0073V4.95307H15.9306V12.7319H15.0011V4.95307H12.9047V4.03906ZM24.6326 9.28976L26.017 12.7319V12.7124H27.0059L25.5424 9.03695C26.4521 8.66745 27.0256 7.79234 27.0256 6.62552C27.0256 5.05031 25.8983 4.03906 24.3557 4.03906H21.9034V12.7319H22.8329V9.30921H24.2964C24.3557 9.30921 24.4101 9.30434 24.4645 9.29948C24.5189 9.29462 24.5733 9.28976 24.6326 9.28976ZM22.8329 8.43409V4.93363H24.2766C25.3841 4.93363 26.0763 5.59482 26.0763 6.64496C26.0763 7.71455 25.3841 8.43409 24.2766 8.43409H22.8329ZM30.6053 12.7319L33.1566 4.03906H34.0861L36.6571 12.7319H35.6881L35.1145 10.7288H32.0886L31.5151 12.7319H30.6053ZM32.3259 9.85372H34.8772L33.5917 5.40035L32.3259 9.85372ZM45.0031 4.03906L42.709 12.7319H41.7596L39.4655 4.03906H40.4543L42.2739 11.1178L44.0934 4.03906H45.0031ZM49.8881 11.7984V8.72579H53.2304V7.83123H49.9078V4.95307H53.5271V4.03906H48.9783V12.7124H53.6062V11.7984H49.8881ZM58.768 11.8179H62.2488V12.7319H57.8385V4.03906H58.768V11.8179ZM8 26.831H8.92953V18.1382H8V26.831ZM18.6599 26.831H17.8886L14.4474 20.1023V26.8115H13.5969V18.1382H14.4276L17.8095 24.7501V18.1382H18.6599V26.831ZM27.0256 20.394V20.6079H27.9156V20.4523C27.9156 18.9355 26.907 18.002 25.4632 18.002C24.0195 18.002 23.0504 18.9355 23.0109 20.1995C23.0109 21.3664 23.7624 21.9887 24.6524 22.3776L25.7797 22.8832C26.5312 23.2138 27.1443 23.5833 27.1443 24.5168C27.1443 25.4113 26.5114 26.0725 25.4435 26.0725C24.3755 26.0725 23.7624 25.4308 23.7624 24.5362V24.264H22.8527V24.4779C22.8527 25.9948 23.9206 26.9282 25.4632 26.9282C27.0059 26.9282 28.0541 25.9364 28.0541 24.4001C28.0541 22.9221 27.0454 22.3776 26.1357 21.9887L24.8304 21.4053C24.3162 21.1913 23.9206 20.7441 23.9206 20.1412C23.9206 19.3828 24.4744 18.8382 25.4632 18.8382C26.4521 18.8382 27.0256 19.5189 27.0256 20.394ZM33.2357 26.831H32.3062V18.1382H33.2357V26.831ZM43.0847 20.9774V23.9723C43.0847 25.7225 42.0365 26.8115 40.4148 26.8115H37.9031V18.1382H40.4148C42.0365 18.1382 43.0847 19.2272 43.0847 20.9774ZM38.8128 19.0522V25.917H40.4148C41.5421 25.917 42.175 25.1196 42.175 24.0112V20.958C42.175 19.8495 41.5421 19.0522 40.4148 19.0522H38.8128ZM48.4443 22.8249V25.8975H52.1624V26.8115H47.5346V18.1382H52.0833V19.0522H48.4641V21.9303H51.7867V22.8249H48.4443ZM60.4886 26.831L59.1042 23.3888C59.0449 23.3888 58.9905 23.3937 58.9361 23.3986C58.8817 23.4034 58.8274 23.4083 58.768 23.4083H57.2847V26.831H56.3552V18.1382H58.8274C60.37 18.1382 61.4973 19.1494 61.4973 20.7246C61.4973 21.8914 60.9237 22.7665 60.014 23.136L61.4775 26.8115H60.4886V26.831ZM57.3045 19.0327V22.5332H58.7482C59.8558 22.5332 60.548 21.8136 60.548 20.7441C60.548 19.6939 59.8558 19.0327 58.7482 19.0327H57.3045Z" fill="#323232"/>
<path d="M94.3997 26.9408C94.4234 26.9585 94.4529 26.9704 94.4825 26.9704C94.5121 26.9704 94.5475 26.9585 94.5771 26.9349C94.6303 26.8817 94.6362 26.7989 94.583 26.7398C91.9401 23.9608 88.7118 21.7436 85.0874 20.2832L83.9817 19.8398C83.4141 19.6092 83.018 19.0475 83.0357 18.403C83.0948 16.038 88.6941 16.5169 89.2617 15.3817L89.3622 15.1866C88.2092 14.2051 86.8434 13.4601 85.3357 13.0462C85.3239 13.1053 85.2884 13.3773 85.59 13.8799C85.9211 14.4238 85.2234 15.2871 84.2064 14.3529L84.1236 14.276C76.7151 7.48835 73.2977 11.976 68.272 4.08861V4.0827C68.2306 4.01766 68.1478 3.99992 68.0828 4.04131C68.0236 4.07678 68.0059 4.14773 68.0295 4.20686C71.9969 13.7853 80.109 11.7513 81.0727 20.6794C81.1082 21.0045 81.3565 21.2647 81.6817 21.3179C86.193 22.0274 90.5802 23.884 94.3997 26.9408Z" fill="#DF0000"/>
<path d="M68.2779 4.08855C73.9658 13.0994 80.0558 8.65308 81.0787 20.6852C80.1208 11.7572 72.0028 13.7911 68.0355 4.21272C68.0118 4.15359 68.0296 4.08264 68.0887 4.04717C68.1478 4.00578 68.2306 4.02352 68.2779 4.08855Z" fill="url(#paint0_linear_10470_9533)"/>
<path d="M87.5943 15.0623C87.5943 15.0623 86.3527 15.1215 85.5959 13.8857C85.8205 14.2523 85.5722 14.7726 85.0696 14.7726V16.6587C85.8856 16.4222 86.8139 16.2744 87.5943 16.1148V15.0623Z" fill="url(#paint1_linear_10470_9533)"/>
<path d="M82.6159 21.4832C86.7961 22.2874 90.8462 24.0907 94.3938 26.9406C86.4827 20.1766 82.8761 21.4005 82.6159 21.4832Z" fill="url(#paint2_linear_10470_9533)"/>
<defs>
<linearGradient id="paint0_linear_10470_9533" x1="67.2236" y1="21.7389" x2="81.9318" y2="21.7389" gradientUnits="userSpaceOnUse">
<stop offset="0.25" stop-color="#E40000" stop-opacity="0.01"/>
<stop offset="0.4933" stop-color="#D20000" stop-opacity="0.3243"/>
<stop offset="0.9817" stop-color="#A20000" stop-opacity="0.9756"/>
<stop offset="1" stop-color="#A00000"/>
</linearGradient>
<linearGradient id="paint1_linear_10470_9533" x1="87.4895" y1="16.8913" x2="87.7844" y2="14.0977" gradientUnits="userSpaceOnUse">
<stop offset="0.65" stop-color="#E40000" stop-opacity="0.01"/>
<stop offset="0.705" stop-color="#D10000" stop-opacity="0.1834"/>
<stop offset="0.8004" stop-color="#B60000" stop-opacity="0.5015"/>
<stop offset="0.8852" stop-color="#A60000" stop-opacity="0.784"/>
<stop offset="0.95" stop-color="#A00000"/>
</linearGradient>
<linearGradient id="paint2_linear_10470_9533" x1="82.6182" y1="26.9406" x2="94.3986" y2="26.9406" gradientUnits="userSpaceOnUse">
<stop stop-color="#E40000" stop-opacity="0.01"/>
<stop offset="0.012716" stop-color="#E20000" stop-opacity="0.0141289"/>
<stop offset="0.2391" stop-color="#C50000" stop-opacity="0.2657"/>
<stop offset="0.4643" stop-color="#B10000" stop-opacity="0.5159"/>
<stop offset="0.686" stop-color="#A40000" stop-opacity="0.7622"/>
<stop offset="0.9" stop-color="#A00000"/>
</linearGradient>
</defs>
</svg>
