<svg width="24" height="24" viewBox="0 0 24 24" fill="none" xmlns="http://www.w3.org/2000/svg">
<g clip-path="url(#clip0_10744_662)">
<path fill-rule="evenodd" clip-rule="evenodd" d="M7.71221 14.0882L6.40414 20.2391L12 16.9805L17.5959 20.2391L16.2878 14.0882L20.8879 9.85966L14.6347 9.20806L12 3.33963L9.3653 9.20806L3.11212 9.85966L7.71221 14.0882ZM8.01248 7.3382L1.02649 8.06617C0.0453565 8.16841 -0.354775 9.3894 0.373475 10.0588L5.51859 14.7884L4.04745 21.706C3.84013 22.6808 4.87972 23.4411 5.73723 22.9418L12 19.2949L18.2628 22.9418C19.1203 23.4411 20.1599 22.6808 19.9526 21.706L18.4814 14.7884L23.6265 10.0588C24.3548 9.3894 23.9546 8.16841 22.9735 8.06617L15.9875 7.3382L13.0414 0.776063C12.6364 -0.125875 11.3636 -0.125875 10.9586 0.776063L8.01248 7.3382Z" fill="#F5A623"/>
</g>
<defs>
<clipPath id="clip0_10744_662">
<rect width="24" height="24" fill="white"/>
</clipPath>
</defs>
</svg>
