<svg width="48" height="48" viewBox="0 0 48 48" fill="none" xmlns="http://www.w3.org/2000/svg">
<path d="M19.4209 28.2501C18.6409 28.9601 17.1809 29.8201 14.6709 29.8201C10.3809 29.8201 9.16093 27.3301 9.16093 27.3301L7.18093 27.9601C2.65093 29.3201 2.85093 33.3301 2.85093 33.3301H18.2909" fill="#8DE2E0"/>
<path d="M18.2902 34.3199H2.85024C2.32024 34.3199 1.88024 33.8999 1.85024 33.3699C1.77024 31.7099 2.72024 28.25 6.89024 27L8.85024 26.3799C9.32024 26.2299 9.83024 26.4499 10.0502 26.8899C10.0902 26.9599 11.1202 28.8199 14.6602 28.8199C16.8502 28.8199 18.0902 28.11 18.7402 27.51C19.1502 27.14 19.7802 27.1699 20.1502 27.5699C20.5202 27.9799 20.4902 28.6099 20.0902 28.9799C19.1802 29.8099 17.4902 30.8099 14.6602 30.8099C11.2902 30.8099 9.54024 29.3999 8.76024 28.4899L7.48024 28.8999C5.02024 29.6399 4.23024 31.27 3.97024 32.31H18.2902C18.8402 32.31 19.2902 32.76 19.2902 33.31C19.2902 33.86 18.8402 34.31 18.2902 34.31V34.3199Z" fill="#323232"/>
<path d="M14.7207 26.9C15.7607 26.9 16.9707 26.65 18.2407 25.91C20.0607 24.73 21.3907 22.98 22.0407 20.93C23.0607 20.65 24.3507 19.68 24.3507 16.6C24.3507 15.81 24.3507 13.9 22.8607 13.32V12.16C22.8607 6.28996 18.5807 4.20996 14.9107 4.20996C10.7007 4.20996 6.4607 6.65996 6.4607 12.12V13.42C6.3007 13.51 6.1507 13.63 6.0107 13.77C5.2407 14.53 4.9707 15.79 4.9707 16.62C4.9707 19.35 6.1007 20.63 7.3707 20.99C7.8007 22.44 8.6107 23.74 9.6907 24.76V25.95C9.6907 26.5 10.1407 26.95 10.6907 26.95C11.1707 26.95 11.5507 26.61 11.6507 26.15C12.2407 26.45 13.3307 26.88 14.7207 26.88V26.9ZM14.9107 6.20996C15.9107 6.20996 18.5307 6.42996 19.9407 8.58996C19.3607 8.33996 18.6907 8.18996 17.8907 8.18996C15.7707 8.18996 14.4807 9.14996 13.2307 10.07C12.0107 10.97 10.7507 11.9 8.4607 12.12C8.4607 7.76996 11.9407 6.21996 14.9107 6.21996V6.20996ZM9.1607 19.9C9.0607 19.44 8.6607 19.1 8.1807 19.1C7.0607 19.1 6.9807 17.2 6.9807 16.62C6.9807 15.9 7.3107 15.22 7.4707 15.14C7.7307 15.14 7.9907 15.04 8.1807 14.85C8.3707 14.66 8.4707 14.41 8.4707 14.14V14.11C11.4407 13.88 13.0807 12.66 14.4307 11.66C15.5507 10.83 16.4407 10.17 17.8907 10.17C20.4807 10.17 20.8207 12.75 20.8607 13.18V14.13C20.8607 14.68 21.3107 15.13 21.8607 15.13C22.1507 15.13 22.3507 15.13 22.3507 16.58C22.3507 17.69 22.1607 19.01 21.2307 19.02C20.7707 19.02 20.3807 19.34 20.2707 19.79C19.8307 21.62 18.7207 23.19 17.1807 24.19C14.5907 25.7 12.3807 24.28 12.2407 24.19C10.6507 23.25 9.5307 21.68 9.1507 19.88L9.1607 19.9Z" fill="#323232"/>
<path d="M42.4701 13.32V12.16C42.4701 6.28996 38.1901 4.20996 34.5201 4.20996C30.3201 4.20996 26.0701 6.65996 26.0701 12.12V13.42C25.9101 13.51 25.7601 13.63 25.6201 13.77C24.8501 14.53 24.5801 15.78 24.5801 16.62C24.5801 19.35 25.7101 20.63 26.9801 20.99C27.5901 23.05 28.9701 24.82 30.7801 25.89C30.8701 25.95 32.2901 26.89 34.3201 26.89C35.2101 26.89 36.2201 26.69 37.2801 26.18C37.3801 26.62 37.7601 26.95 38.2301 26.95C38.7801 26.95 39.2301 26.5 39.2301 25.95V24.78C40.3301 23.71 41.1601 22.4 41.6301 20.92C42.6501 20.64 43.9401 19.67 43.9401 16.59C43.9401 15.8 43.9401 13.89 42.4501 13.31L42.4701 13.32ZM40.4701 12.16V13.11C40.1301 13.05 39.4001 12.84 38.8001 12.1C37.9701 11.07 37.6801 9.33996 37.9201 7.05996C39.2701 7.83996 40.4601 9.32996 40.4601 12.15L40.4701 12.16ZM40.8501 19.04C40.3901 19.04 40.0001 19.36 39.8901 19.81C39.4501 21.64 38.3401 23.21 36.8001 24.21C34.2101 25.72 32.0001 24.3 31.8601 24.21C30.2701 23.28 29.1501 21.71 28.7701 19.9C28.6701 19.44 28.2701 19.1 27.7901 19.1C26.6701 19.1 26.5901 17.2 26.5901 16.62C26.5901 15.89 26.9201 15.22 27.0801 15.14C27.3401 15.14 27.6001 15.04 27.7901 14.85C27.9801 14.66 28.0801 14.41 28.0801 14.14V12.11C28.0801 7.74996 31.5501 6.19996 34.5301 6.19996C34.8401 6.19996 35.3201 6.22996 35.8601 6.31996C35.3201 7.74996 33.9201 10.5 30.7601 11.96C30.2601 12.19 30.0401 12.79 30.2701 13.29C30.4401 13.66 30.8001 13.87 31.1801 13.87C31.3201 13.87 31.4601 13.84 31.6001 13.78C33.5901 12.86 35.0001 11.54 35.9801 10.24C36.1801 11.52 36.6201 12.58 37.3001 13.4C38.6901 15.08 40.5501 15.13 40.6301 15.13H40.6401C40.7901 15.13 40.9201 15.09 41.0501 15.04C41.1801 15.1 41.3201 15.15 41.4801 15.15C41.7701 15.15 41.9701 15.15 41.9701 16.6C41.9701 17.71 41.7801 19.03 40.8601 19.04H40.8501Z" fill="#323232"/>
<path d="M24.2309 23.8203C21.3409 23.8203 18.4209 25.5103 18.4209 29.3003V29.9603C17.8009 30.4403 17.4609 31.3403 17.4609 32.2203C17.4609 34.0603 18.2009 34.9903 19.0809 35.3203C19.5309 36.6603 20.4409 37.8103 21.6309 38.5103C21.6909 38.5503 22.6909 39.2103 24.1209 39.2103C24.8509 39.2103 25.7009 39.0403 26.5909 38.5203C27.7909 37.7403 28.6809 36.6003 29.1409 35.2703C29.8509 35.0003 30.7009 34.2403 30.7009 32.2003C30.7009 31.0003 30.3809 30.2203 29.7409 29.8503V29.3203C29.7409 25.2603 26.7809 23.8203 24.2409 23.8203H24.2309ZM24.2309 25.8203C24.7609 25.8203 25.6409 25.9103 26.3909 26.3903C26.3209 26.3903 26.2409 26.3903 26.1609 26.3903C24.6809 26.3903 23.7509 27.0703 22.9409 27.6803C22.7909 27.7903 22.6509 27.8903 22.5009 28.0003C22.4609 28.0303 22.4209 28.0603 22.3709 28.0903C22.2109 28.2003 22.0509 28.3003 21.8709 28.4003C21.8409 28.4103 21.8209 28.4303 21.7909 28.4403C21.6309 28.5203 21.4609 28.6003 21.2809 28.6603C21.2409 28.6803 21.2009 28.6903 21.1609 28.7103C20.9609 28.7803 20.7309 28.8403 20.4909 28.8803C20.4709 28.8803 20.4509 28.8803 20.4309 28.8803C20.6909 25.9803 23.6209 25.8303 24.2209 25.8303L24.2309 25.8203ZM28.3309 33.4103C27.8709 33.4103 27.4809 33.7303 27.3709 34.1703C27.1109 35.2603 26.4409 36.2103 25.5309 36.8003C24.0509 37.6603 22.7909 36.8603 22.6909 36.8003C21.7409 36.2403 21.0709 35.3103 20.8509 34.2403C20.7509 33.7803 20.3509 33.4403 19.8709 33.4403C19.5609 33.4403 19.4509 32.7003 19.4509 32.2003C19.4509 31.9703 19.5309 31.7103 19.6009 31.5803C19.9709 31.5103 20.2609 31.2503 20.3709 30.9003C20.6009 30.8703 20.8209 30.8403 21.0309 30.8003C21.0609 30.8003 21.0809 30.7903 21.1109 30.7803C21.3009 30.7403 21.4909 30.6903 21.6609 30.6303C21.7309 30.6103 21.7909 30.5803 21.8609 30.5603C21.9809 30.5203 22.1109 30.4703 22.2209 30.4203C22.2909 30.3903 22.3609 30.3603 22.4309 30.3303C22.5309 30.2803 22.6409 30.2303 22.7309 30.1803C22.7909 30.1503 22.8609 30.1103 22.9209 30.0803C23.0109 30.0303 23.1109 29.9703 23.1909 29.9203C23.2509 29.8903 23.3009 29.8503 23.3509 29.8203C23.4409 29.7603 23.5309 29.7003 23.6209 29.6303C23.6609 29.6003 23.7009 29.5703 23.7409 29.5403C23.8609 29.4503 23.9809 29.3703 24.0909 29.2803C24.8209 28.7403 25.3009 28.3903 26.1209 28.3903C27.4709 28.3903 27.6609 29.7203 27.6909 30.0103V30.6103C27.6909 31.1303 28.1209 31.5503 28.6209 31.6103C28.6509 31.7703 28.6509 32.0503 28.6509 32.2003C28.6509 32.6203 28.5709 33.4203 28.2809 33.4203L28.3309 33.4103Z" fill="#323232"/>
<path d="M30.28 38.68C29.2 38.34 27.98 38.56 27.04 39.28C26.57 39.63 25.72 40.06 24.28 40.06C22.84 40.06 21.98 39.64 21.52 39.28C20.57 38.56 19.36 38.34 18.28 38.68C14.95 39.68 14.2 42.45 14.27 43.78C14.3 44.31 14.74 44.73 15.27 44.73H33.3C33.83 44.73 34.27 44.31 34.3 43.78C34.37 42.45 33.61 39.68 30.29 38.68H30.28ZM16.42 42.73C16.67 42 17.3 41.06 18.86 40.59C19.34 40.44 19.86 40.54 20.29 40.87C21 41.41 22.27 42.05 24.26 42.05C26.25 42.05 27.52 41.41 28.23 40.87C28.67 40.54 29.19 40.44 29.66 40.59H29.67C31.23 41.06 31.85 42.01 32.1 42.73H16.39H16.42Z" fill="#323232"/>
<path d="M45.9409 32.0905C45.6309 30.8005 44.6709 28.8305 41.7609 27.9505L40.3109 27.4905C40.0209 27.4005 39.7109 27.4905 39.5209 27.7205C38.9709 28.4205 37.4809 29.8105 34.2809 29.8105C33.0109 29.8105 32.0109 29.5905 31.2309 29.2805C31.0509 29.2105 30.8709 29.4205 30.9809 29.5805C31.7809 30.7805 31.7709 32.1105 31.6909 32.8205C31.6609 33.0905 31.8709 33.3205 32.1409 33.3205H44.9809C45.6309 33.3205 46.1009 32.7205 45.9509 32.0905H45.9409Z" fill="#DF0000"/>
</svg>
