<svg width="48" height="48" viewBox="0 0 48 48" fill="none" xmlns="http://www.w3.org/2000/svg">
<path d="M38.9196 39.8501C38.6596 39.8501 38.4096 39.7501 38.2096 39.5601L30.8696 32.2201C30.4796 31.8301 30.4796 31.2001 30.8696 30.8101C31.2596 30.4201 31.8896 30.4201 32.2796 30.8101L39.6196 38.1501C40.0096 38.5401 40.0096 39.1701 39.6196 39.5601C39.4196 39.7601 39.1696 39.8501 38.9096 39.8501H38.9196Z" fill="#DF0000"/>
<path d="M31.5796 39.8501C31.3196 39.8501 31.0696 39.7501 30.8696 39.5601C30.4796 39.1701 30.4796 38.5401 30.8696 38.1501L38.2096 30.8101C38.5996 30.4201 39.2296 30.4201 39.6196 30.8101C40.0096 31.2001 40.0096 31.8301 39.6196 32.2201L32.2796 39.5601C32.0796 39.7601 31.8296 39.8501 31.5696 39.8501H31.5796Z" fill="#DF0000"/>
<path d="M35.2498 24.2999C33.8298 24.2999 32.4798 24.5799 31.2398 25.0699L30.0398 15.6999L37.1598 8.57986C37.9098 7.82986 38.3198 6.82986 38.3198 5.76986C38.3198 4.70986 37.9098 3.70986 37.1598 2.95986C35.6098 1.40986 33.0898 1.40986 31.5398 2.95986L24.4298 10.0799L7.33983 7.89986C6.13983 7.74986 4.91983 8.16986 4.05983 9.01986L3.28983 9.78986C2.83983 10.2299 2.63983 10.8699 2.72983 11.4899C2.82983 12.1099 3.21983 12.6599 3.77983 12.9499L15.5198 18.9699L10.7998 23.6899L5.19983 22.8999C4.42983 22.7899 3.63983 23.0599 3.09983 23.6099L2.20983 24.5099C1.86983 24.8599 1.71983 25.3499 1.80983 25.8299C1.90983 26.3099 2.22983 26.7099 2.67983 26.8999L10.0498 30.0199L13.1898 37.4199C13.3798 37.8699 13.7798 38.1999 14.2598 38.2899C14.3598 38.3099 14.4498 38.3199 14.5498 38.3199C14.9298 38.3199 15.3098 38.1699 15.5898 37.8999L16.4898 37.0099C17.0398 36.4699 17.3098 35.6799 17.1998 34.9099L16.4098 29.3099L21.0898 24.5899L24.8298 31.8399C24.4798 32.9199 24.2798 34.0599 24.2798 35.2499C24.2798 41.2899 29.1998 46.2099 35.2398 46.2099C41.2798 46.2099 46.1998 41.2899 46.1998 35.2499C46.1998 29.2099 41.2798 24.2899 35.2398 24.2899L35.2498 24.2999ZM22.8798 23.6699C22.5898 23.1099 22.0498 22.7199 21.4298 22.6199C20.8098 22.5199 20.1698 22.7299 19.7298 23.1799L14.8198 28.0899C14.4998 28.4099 14.3398 28.8799 14.3998 29.3299L15.2198 35.1899C15.2398 35.3399 15.1898 35.4799 15.0898 35.5899L14.7398 35.9299L11.8998 29.2499C11.6998 28.7799 11.3298 28.4099 10.8298 28.1999L4.16983 25.3699L4.51983 25.0199C4.61983 24.9099 4.76983 24.8699 4.91983 24.8899L10.7898 25.7199C11.2398 25.7799 11.6998 25.6299 12.0198 25.2999L16.9298 20.3899C17.3798 19.9399 17.5798 19.3099 17.4898 18.6899C17.3898 18.0699 16.9998 17.5199 16.4398 17.2399L4.69983 11.2199L5.47983 10.4499C5.89983 10.0299 6.49983 9.82986 7.08983 9.89986L24.1898 12.0699C24.7998 12.1499 25.4098 11.9399 25.8398 11.5099L32.9598 4.38986C33.7098 3.63986 35.0098 3.63986 35.7498 4.38986C36.5198 5.15986 36.5198 6.40986 35.7498 7.17986L28.6298 14.2999C28.1998 14.7299 27.9898 15.3499 28.0698 15.9499L29.3598 26.0599C27.9698 26.9599 26.7998 28.1599 25.9298 29.5699L22.8998 23.6899L22.8798 23.6699ZM35.2498 44.2099C30.3098 44.2099 26.2898 40.1899 26.2898 35.2499C26.2898 30.3099 30.3098 26.2899 35.2498 26.2899C40.1898 26.2899 44.2098 30.3099 44.2098 35.2499C44.2098 40.1899 40.1898 44.2099 35.2498 44.2099Z" fill="#323232"/>
</svg>
