<svg width="48" height="48" viewBox="0 0 48 48" fill="none" xmlns="http://www.w3.org/2000/svg">
<path fill-rule="evenodd" clip-rule="evenodd" d="M28.9712 35.7796C28.9712 38.5196 26.7412 40.7496 24.0012 40.7496C21.2612 40.7496 19.0312 38.5196 19.0312 35.7796C19.0312 33.0396 21.2612 30.8096 24.0012 30.8096C26.7412 30.8096 28.9712 33.0396 28.9712 35.7796Z" fill="#DF0000"/>
<path d="M32.7198 28.06C32.4598 28.06 32.2098 27.96 32.0098 27.77C27.5898 23.35 20.3998 23.35 15.9798 27.77C15.5898 28.16 14.9598 28.16 14.5698 27.77C14.1798 27.38 14.1798 26.75 14.5698 26.36C19.7698 21.16 28.2298 21.16 33.4298 26.36C33.8198 26.75 33.8198 27.38 33.4298 27.77C33.2298 27.97 32.9798 28.06 32.7198 28.06Z" fill="#323232"/>
<path d="M9.54156 22.3196C9.28156 22.3196 9.03156 22.2196 8.83156 22.0296C8.44156 21.6396 8.44156 21.0096 8.83156 20.6196C17.1916 12.2596 30.8016 12.2596 39.1616 20.6196C39.5516 21.0096 39.5516 21.6396 39.1616 22.0296C38.7716 22.4196 38.1416 22.4196 37.7516 22.0296C30.1716 14.4496 17.8316 14.4496 10.2516 22.0296C10.0516 22.2296 9.80156 22.3196 9.54156 22.3196Z" fill="#323232"/>
<path d="M3.81891 16.6097C3.55891 16.6097 3.30891 16.5097 3.10891 16.3197C2.71891 15.9297 2.71891 15.2997 3.10891 14.9097C14.6189 3.39969 33.3589 3.38969 44.8689 14.9097C45.2589 15.2997 45.2589 15.9297 44.8689 16.3197C44.4789 16.7097 43.8489 16.7097 43.4589 16.3197C32.7289 5.57969 15.2589 5.58969 4.51891 16.3197C4.31891 16.5197 4.06891 16.6097 3.80891 16.6097H3.81891Z" fill="#323232"/>
</svg>
