<svg width="48" height="48" viewBox="0 0 48 48" fill="none" xmlns="http://www.w3.org/2000/svg">
<path d="M21.25 13.7002C19.73 13.7002 18.5 14.9302 18.5 16.4502C18.5 17.9702 19.73 19.2102 21.25 19.2102C22.77 19.2102 24 17.9702 24 16.4502C24 14.9302 22.77 13.7002 21.25 13.7002Z" fill="#8DE2E0"/>
<path d="M21.25 20.2102C19.18 20.2102 17.5 18.5202 17.5 16.4502C17.5 14.3802 19.18 12.7002 21.25 12.7002C23.32 12.7002 25 14.3802 25 16.4502C25 18.5202 23.32 20.2102 21.25 20.2102ZM21.25 14.7002C20.29 14.7002 19.5 15.4802 19.5 16.4502C19.5 17.4202 20.28 18.2102 21.25 18.2102C22.22 18.2102 23 17.4202 23 16.4502C23 15.4802 22.22 14.7002 21.25 14.7002Z" fill="#323232"/>
<path d="M40.7699 20.4898H30.1699C29.6199 20.4898 29.1699 20.0398 29.1699 19.4898C29.1699 18.9398 29.6199 18.4898 30.1699 18.4898H40.7699C41.5199 18.4898 42.1199 17.8798 42.1199 17.1298C42.1199 16.3798 41.5099 15.7798 40.7699 15.7798C40.0699 15.7798 39.4899 16.2998 39.4199 16.9998C39.3599 17.5498 38.8599 17.9598 38.3199 17.8898C37.7699 17.8298 37.3699 17.3398 37.4299 16.7898C37.5999 15.0898 39.0099 13.7998 40.7199 13.7798C40.7399 13.7798 40.7599 13.7798 40.7699 13.7798C42.6199 13.7798 44.1299 15.2898 44.1299 17.1398C44.1299 18.9898 42.6299 20.4998 40.7699 20.4998V20.4898Z" fill="#8DE2E0"/>
<path d="M32.72 18.1398H28.75C28.2 18.1398 27.75 17.6898 27.75 17.1398C27.75 16.5898 28.2 16.1398 28.75 16.1398H32.72C33.14 16.1398 33.49 15.7998 33.49 15.3698C33.49 14.9398 33.15 14.5998 32.72 14.5998C32.44 14.5998 32.18 14.7498 32.05 14.9998C31.79 15.4798 31.18 15.6598 30.69 15.3998C30.2 15.1398 30.03 14.5298 30.29 14.0398C30.77 13.1598 31.67 12.6098 32.66 12.5898C32.68 12.5898 32.7 12.5898 32.72 12.5898C34.25 12.5898 35.49 13.8298 35.49 15.3598C35.49 16.8898 34.25 18.1298 32.72 18.1298V18.1398Z" fill="#8DE2E0"/>
<path d="M39.2698 26.4001C38.2298 26.4001 37.2798 25.8201 36.8098 24.8901C36.5598 24.4001 36.7498 23.8001 37.2398 23.5401C37.7298 23.2901 38.3298 23.4801 38.5898 23.9701C38.7198 24.2201 38.9598 24.3701 39.2298 24.3901C39.6698 24.3701 40.0398 24.0601 40.0398 23.6201C40.0398 23.1801 39.6998 22.8501 39.2698 22.8501H29.2598C28.7098 22.8501 28.2598 22.4001 28.2598 21.8501C28.2598 21.3001 28.7098 20.8501 29.2598 20.8501H39.2698C40.7998 20.8501 42.0398 22.0901 42.0398 23.6201C42.0398 25.1501 40.7998 26.3901 39.2698 26.3901V26.4001Z" fill="#8DE2E0"/>
<path d="M11.0399 11.9099L12.2099 12.0699C14.3099 12.3699 16.8499 13.6099 18.6799 15.2299C18.8699 15.3999 19.1099 15.4799 19.3399 15.4799C19.6199 15.4799 19.8899 15.3699 20.0899 15.1399C20.4599 14.7299 20.4199 14.0999 20.0099 13.7299C17.9099 11.8699 14.9599 10.4399 12.4899 10.0799L11.3099 9.91992C10.7599 9.84992 10.2599 10.2299 10.1899 10.7799C10.1199 11.3299 10.4999 11.8299 11.0499 11.8999L11.0399 11.9099Z" fill="#323232"/>
<path d="M34.3696 4.60009L33.1096 3.34009C32.2996 2.53009 30.9296 2.45009 30.0296 3.15009L22.8896 8.77009C21.9896 9.48009 21.5696 10.6201 21.7896 11.7601C21.8396 11.9901 21.8096 12.2001 21.7196 12.4101L21.2496 13.4401C21.0196 13.9401 21.2496 14.5401 21.7496 14.7601C22.2496 14.9901 22.8396 14.7601 23.0696 14.2601L23.5396 13.2401C23.8096 12.6601 23.8896 12.0001 23.7596 11.3601C23.6796 10.9701 23.8296 10.5801 24.1396 10.3301L31.2796 4.71009C31.3996 4.61009 31.5896 4.62009 31.7096 4.74009L32.9696 6.00009C33.0796 6.11009 33.0996 6.29009 32.9996 6.42009L29.5796 10.8201C28.2696 12.4801 25.8796 14.1001 23.6196 14.8501C23.0996 15.0201 22.8096 15.5901 22.9896 16.1101C23.1296 16.5301 23.5196 16.8001 23.9396 16.8001C24.0396 16.8001 24.1496 16.7801 24.2496 16.7501C26.8896 15.8701 29.5996 14.0301 31.1596 12.0501L34.5796 7.65009C35.2996 6.73009 35.2196 5.42009 34.3896 4.59009L34.3696 4.60009Z" fill="#323232"/>
<path d="M26.7902 39.9401H26.2502L25.5802 33.5801L26.6902 33.2901C27.8302 32.9601 28.5402 31.8901 28.3702 30.7201L27.0702 21.7201C26.9202 20.5901 26.1402 19.6501 25.0502 19.2801C24.8202 19.2001 24.6402 19.0701 24.5002 18.8801L23.8402 17.9701C23.5202 17.5201 22.8902 17.4201 22.4402 17.7401C21.9902 18.0601 21.8902 18.6901 22.2102 19.1401L22.8602 20.0501C23.2302 20.5701 23.7602 20.9701 24.3802 21.1801C24.7502 21.3101 25.0202 21.6201 25.0702 22.0101L26.3702 31.0101C26.3902 31.1801 26.2902 31.3301 26.1302 31.3701L24.4302 31.8201C24.4302 31.8201 24.3302 31.8401 24.3202 31.8401C24.1902 31.8401 24.0802 31.7701 24.0302 31.6401L21.9302 26.4701C21.1402 24.5301 20.9202 21.5701 21.3802 19.2901C21.4902 18.7501 21.1402 18.2201 20.6002 18.1101C20.5002 18.0901 20.4102 18.1101 20.3202 18.1101C20.1602 17.8501 19.9102 17.6601 19.5902 17.6301C19.4702 17.6201 19.3502 17.6301 19.2402 17.6601C19.4302 17.4601 19.5402 17.1901 19.5202 16.8901C19.4802 16.3401 19.0002 15.9301 18.4402 15.9801L17.2902 16.0801C16.6402 16.1501 16.0402 16.4201 15.5602 16.8401C15.2602 17.0901 14.8502 17.1701 14.4902 17.0201L6.04017 13.6501C5.89017 13.5901 5.81017 13.4201 5.85017 13.2701L6.32017 11.5401C6.36017 11.4001 6.48017 11.3001 6.58017 11.3001L8.17017 11.4601C8.72017 11.5201 9.21017 11.1201 9.27017 10.5701C9.33017 10.0201 8.93017 9.53006 8.38017 9.47006L6.83017 9.31006H6.64017C5.59017 9.31006 4.67017 10.0101 4.40017 11.0201L3.93017 12.7501C3.64017 13.8901 4.24017 15.0701 5.32017 15.5001L13.7502 18.8601C14.1102 19.0101 14.4902 19.0801 14.8902 19.0801C15.6102 19.0801 16.3202 18.8201 16.8802 18.3401C17.0602 18.1801 17.2802 18.0801 17.5002 18.0601L18.6202 17.9701C18.6902 17.9701 18.7402 17.9301 18.8002 17.9201C18.6402 18.0801 18.5302 18.2801 18.5002 18.5101L16.2202 39.9501H15.6302C14.6302 39.9501 13.8202 40.7601 13.8202 41.7601V43.5401C13.8202 44.5401 14.6302 45.3501 15.6302 45.3501H26.7702C27.7702 45.3501 28.5802 44.5401 28.5802 43.5401V41.7601C28.5802 40.7601 27.7702 39.9501 26.7702 39.9501L26.7902 39.9401ZM22.2002 32.3801C22.4502 33.0101 22.9602 33.4701 23.5702 33.6901L23.6102 34.0901C22.0802 34.3301 20.3902 34.3301 18.8702 34.0901L19.7202 26.0701C19.8302 26.4701 19.9602 26.8601 20.1002 27.2201L22.1902 32.3801H22.2002ZM18.6602 36.0801C19.4902 36.2001 20.3302 36.2901 21.2202 36.2901C22.1102 36.2901 22.9902 36.2001 23.8302 36.0701L24.2402 39.9401H18.2502L18.6602 36.0801ZM26.6002 43.3501H15.8302V41.9501H26.6002V43.3501Z" fill="#323232"/>
</svg>
