<svg width="464" height="59" viewBox="0 0 464 59" fill="none" xmlns="http://www.w3.org/2000/svg">
<path d="M315.36 22.22V45.74H326.84V48.5H312.32V22.22H315.36ZM350.505 30.22V40.5C350.505 45.66 346.985 48.9 341.865 48.9C336.745 48.9 333.225 45.66 333.225 40.5V30.22C333.225 25.06 336.585 21.82 341.865 21.82C346.985 21.82 350.505 25.06 350.505 30.22ZM336.265 30.14V40.58C336.265 43.78 338.305 46.14 341.865 46.14C345.425 46.14 347.425 43.78 347.425 40.58V30.14C347.425 26.94 345.425 24.58 341.865 24.58C338.305 24.58 336.265 26.94 336.265 30.14ZM356.601 22.22H359.881L365.801 35.02L371.761 22.22H374.841L367.241 37.98V48.5H364.201V38.02L356.601 22.22ZM381 48.5H378L386.4 22.22H389.48L397.96 48.5H394.8L392.88 42.46H382.88L381 48.5ZM387.84 26.34L383.68 39.82H392.12L387.84 26.34ZM408.774 22.22V45.74H420.254V48.5H405.734V22.22H408.774ZM422.299 24.98V22.22H439.179V24.98H432.259V48.5H429.219V24.98H422.299ZM444.117 22.22H447.397L453.317 35.02L459.277 22.22H462.357L454.757 37.98V48.5H451.717V38.02L444.117 22.22Z" fill="#323232"/>
<path d="M89 20.2036C100.75 20.2036 108.75 26.36 108.75 34.0425C108.75 37.451 107.25 40.2999 104.4 42.6401H111.4L109.75 45.5405C108.7 47.3721 107.4 48.4917 104.6 48.4917H88.6504C76.8004 48.4917 69.25 42.2331 69.25 34.3472C69.2502 26.3596 77.2002 20.2036 89 20.2036ZM88.9502 26.6138C82.5003 26.6138 77.0002 29.8701 77 34.3472C77 38.8244 82.5002 42.0806 88.9502 42.0806C95.4001 42.0805 100.9 38.8243 100.9 34.3472C100.9 29.8702 95.45 26.6138 88.9502 26.6138Z" fill="#323232"/>
<path d="M132.65 22.4932C135.6 22.4932 137.05 23.8667 138.05 25.6982L151 48.4912H143.1L140.45 43.709H121.8L119.15 48.4912H111.4L124.35 25.6982C125.35 23.9177 126.85 22.4933 129.75 22.4932H132.65ZM131.1 27.3262C130.9 27.3262 130.8 27.3774 130.65 27.6318L124.95 38.0107H137.3L131.55 27.6318C131.4 27.3775 131.3 27.3262 131.1 27.3262Z" fill="#323232"/>
<path d="M187.9 22.4932V48.4914H181L160.7 31.244V48.4914H153.8V22.4932H158.15C160.35 22.4932 161.5 23.1037 162.75 24.1721L181.05 39.6897V22.4932H187.9V22.4932Z" fill="#323232"/>
<path d="M212.5 28.344V48.4914H205.6V28.344H191.4V22.4932H226.65V28.344H212.5Z" fill="#323232"/>
<path d="M241.85 22.4932C244.8 22.4932 246.25 23.8667 247.25 25.6982L260.2 48.4912H252.3L249.7 43.709H231L228.35 48.4912H220.6L233.55 25.6982C234.55 23.9177 236.05 22.4933 238.95 22.4932H241.85ZM240.35 27.3262C240.15 27.3262 240.05 27.3774 239.9 27.6318L234.2 38.0107H246.55L240.8 27.6318C240.65 27.3774 240.55 27.3262 240.35 27.3262Z" fill="#323232"/>
<path d="M262.65 46.609L262 46.4055L263.75 40.7582C268.75 42.3862 274.05 43.0476 278.85 43.0476C286.7 43.0476 288.65 42.1318 288.65 41.1143C288.65 40.7073 288.4 40.402 287.75 40.1985C286.95 39.9441 284.8 39.4862 278.35 38.4178C271.25 37.2476 268 36.6371 265.65 35.5178C263.3 34.3985 261.85 32.6178 261.85 30.0231C261.85 28.0389 262.8 26.4617 264.35 25.1897C267.1 23.0529 271.75 22.188 276.8 22.188C283.35 22.188 288.85 22.7476 294.95 24.274L295.5 24.4266L294.05 29.9213C287.25 28.4459 283.45 28.0389 278.25 27.9371C274.6 27.8862 272.1 28.1915 270.75 28.5985C270 28.8529 269.7 29.209 269.7 29.6161C269.7 30.0231 269.95 30.3283 270.7 30.5827C271.5 30.8371 272.85 31.1933 279.85 32.3125C287.4 33.5845 289.9 34.0933 292 34.9073C294.85 36.0266 296.55 38.0617 296.55 40.6055C296.55 43.8108 294.1 46.202 289.85 47.5248C287.25 48.3389 283.7 48.7968 279.75 48.7968C273.5 48.8476 266.9 48.0336 262.65 46.609Z" fill="#323232"/>
<path d="M22.4861 59H82.9975L34.5079 10.301C28.0465 3.83997 19.2832 0 10.1458 0H0.00012207L0.755929 1.98292L4.11535 10.7973L22.4861 59Z" fill="url(#paint0_linear_17660_3731)"/>
<path d="M4.11528 10.7973C10.7404 22.1107 28.1254 23.3048 30.0169 40.8968C30.0947 41.6206 30.6494 42.2006 31.3689 42.3132C41.3875 43.8786 51.1459 48.0037 59.6245 54.8009L59.6321 54.807C59.6878 54.8518 59.7462 54.8732 59.821 54.8732C59.8958 54.8732 59.9708 54.8459 60.0292 54.7902C60.15 54.6753 60.1549 54.4841 60.0399 54.3632C54.1685 48.1928 46.9943 43.2621 38.9414 40.0201L36.4906 39.0336C35.2301 38.5262 34.3551 37.2757 34.3927 35.8373C34.5304 30.5811 46.9603 31.6502 48.2204 29.1232L48.4372 28.6885C45.8778 26.5011 42.8367 24.8563 39.4873 23.9364C39.4575 24.0629 39.3762 24.676 40.0578 25.7857C40.7989 26.9924 39.2467 28.9114 36.9875 26.8411L36.7976 26.6671C20.0026 11.2774 7.40977 19.2578 0.755859 1.98291L4.11528 10.7973Z" fill="white"/>
<path d="M44.5037 28.4029C44.5037 28.4029 41.7494 28.5399 40.0577 25.7856C40.5609 26.6051 40.0062 27.7536 38.8911 27.757V31.9504C40.7019 31.4243 42.7676 31.1021 44.5037 30.7372V28.4029Z" fill="url(#paint1_linear_17660_3731)"/>
<path d="M33.4482 42.6759C42.7339 44.4634 51.7339 48.4749 59.6243 54.801C42.0338 39.7721 34.0189 42.4896 33.4482 42.6759Z" fill="url(#paint2_linear_17660_3731)"/>
<path d="M7.65226 11.584C4.91879 9.64037 2.60724 6.78965 0.755859 1.98291L4.11528 10.7973C10.7398 22.1094 28.1219 23.3046 30.0163 40.8915C28.1042 18.4451 18.2447 21.7999 7.65226 11.584Z" fill="url(#paint3_linear_17660_3731)"/>
<defs>
<linearGradient id="paint0_linear_17660_3731" x1="52.6455" y1="58.8592" x2="12.2739" y2="-0.102018" gradientUnits="userSpaceOnUse">
<stop stop-color="#BE0000"/>
<stop offset="0.3898" stop-color="#DE0000"/>
<stop offset="0.768" stop-color="#F60000"/>
<stop offset="1" stop-color="#FF0000"/>
</linearGradient>
<linearGradient id="paint1_linear_17660_3731" x1="41.4414" y1="32.1735" x2="41.9855" y2="25.9543" gradientUnits="userSpaceOnUse">
<stop offset="0.65" stop-color="white" stop-opacity="0"/>
<stop offset="0.7285" stop-color="#E0E0E0" stop-opacity="0.2617"/>
<stop offset="0.8148" stop-color="#C5C5C5" stop-opacity="0.5493"/>
<stop offset="0.8914" stop-color="#B5B5B5" stop-opacity="0.8047"/>
<stop offset="0.95" stop-color="#AFAFAF"/>
</linearGradient>
<linearGradient id="paint2_linear_17660_3731" x1="33.4483" y1="48.585" x2="59.6244" y2="48.585" gradientUnits="userSpaceOnUse">
<stop stop-color="white" stop-opacity="0"/>
<stop offset="0.0839" stop-color="#F1F1F1" stop-opacity="0.0932"/>
<stop offset="0.2921" stop-color="#D4D4D4" stop-opacity="0.3246"/>
<stop offset="0.4993" stop-color="#C0C0C0" stop-opacity="0.5548"/>
<stop offset="0.7032" stop-color="#B3B3B3" stop-opacity="0.7814"/>
<stop offset="0.9" stop-color="#AFAFAF"/>
</linearGradient>
<linearGradient id="paint3_linear_17660_3731" x1="0.755901" y1="21.4372" x2="30.0163" y2="21.4372" gradientUnits="userSpaceOnUse">
<stop offset="0.25" stop-color="white" stop-opacity="0"/>
<stop offset="0.4615" stop-color="#EDEDED" stop-opacity="0.282"/>
<stop offset="0.886" stop-color="#BDBDBD" stop-opacity="0.848"/>
<stop offset="1" stop-color="#AFAFAF"/>
</linearGradient>
</defs>
</svg>
