<svg width="48" height="48" viewBox="0 0 48 48" fill="none" xmlns="http://www.w3.org/2000/svg">
<path d="M11.4102 9.16016H12.8302C13.6402 9.16016 14.2302 9.69016 14.2302 10.4802C14.2302 11.3102 13.6402 11.8402 12.8302 11.8402H12.1902V13.2202H11.4202V9.16016H11.4102ZM12.1902 9.83016V11.1602H12.7602C13.1902 11.1602 13.4502 10.9002 13.4502 10.4902C13.4502 10.0802 13.1902 9.83016 12.7602 9.83016H12.1902Z" fill="#323232"/>
<path d="M14.3799 13.2202L15.5899 9.16016H16.4099L17.6199 13.2202H16.8299L16.6299 12.4902H15.3399L15.1399 13.2202H14.3899H14.3799ZM15.5099 11.8402H16.4599L15.9799 10.1202L15.5099 11.8402Z" fill="#323232"/>
<path d="M19.8003 10.3801V10.2601C19.8003 9.9401 19.5703 9.7301 19.2103 9.7301C18.8503 9.7301 18.6603 9.9201 18.6603 10.1801C18.6603 10.3401 18.7503 10.5301 19.0403 10.6401L19.6103 10.8501C20.1203 11.0401 20.6303 11.2901 20.6303 12.0401C20.6303 12.7901 20.0803 13.2801 19.2403 13.2801C18.4003 13.2801 17.8203 12.8201 17.8203 12.0801V11.9401H18.5803V12.1101C18.5803 12.4401 18.8203 12.6401 19.2203 12.6401C19.6503 12.6401 19.8703 12.4201 19.8703 12.1301C19.8703 11.8801 19.7203 11.7001 19.4303 11.6001L18.8103 11.3601C18.2403 11.1501 17.9003 10.8201 17.9003 10.2401C17.9003 9.6201 18.3903 9.1001 19.2003 9.1001C20.0103 9.1001 20.5403 9.5601 20.5403 10.3001V10.3901H19.7903L19.8003 10.3801Z" fill="#323232"/>
<path d="M22.9702 10.3801V10.2601C22.9702 9.9401 22.7402 9.7301 22.3802 9.7301C22.0202 9.7301 21.8302 9.9201 21.8302 10.1801C21.8302 10.3401 21.9202 10.5301 22.2102 10.6401L22.7802 10.8501C23.2902 11.0401 23.8002 11.2901 23.8002 12.0401C23.8002 12.7901 23.2502 13.2801 22.4102 13.2801C21.5702 13.2801 20.9902 12.8201 20.9902 12.0801V11.9401H21.7502V12.1101C21.7502 12.4401 21.9902 12.6401 22.3902 12.6401C22.8202 12.6401 23.0402 12.4201 23.0402 12.1301C23.0402 11.8801 22.8902 11.7001 22.6002 11.6001L21.9802 11.3601C21.4102 11.1501 21.0702 10.8201 21.0702 10.2401C21.0702 9.6201 21.5602 9.1001 22.3702 9.1001C23.1802 9.1001 23.7102 9.5601 23.7102 10.3001V10.3901H22.9602L22.9702 10.3801Z" fill="#323232"/>
<path d="M24.3906 9.16016H25.8106C26.6206 9.16016 27.2106 9.69016 27.2106 10.4802C27.2106 11.3102 26.6206 11.8402 25.8106 11.8402H25.1706V13.2202H24.4006V9.16016H24.3906ZM25.1606 9.83016V11.1602H25.7306C26.1606 11.1602 26.4206 10.9002 26.4206 10.4902C26.4206 10.0802 26.1606 9.83016 25.7306 9.83016H25.1606Z" fill="#323232"/>
<path d="M30.4606 11.9301C30.4606 12.7601 29.8806 13.2801 29.0306 13.2801C28.1806 13.2801 27.6006 12.7601 27.6006 11.9301V10.4501C27.6006 9.6201 28.1106 9.1001 29.0306 9.1001C29.8806 9.1001 30.4606 9.6201 30.4606 10.4501V11.9301ZM28.3706 11.9201C28.3706 12.3301 28.6106 12.5901 29.0306 12.5901C29.4506 12.5901 29.6906 12.3201 29.6906 11.9201V10.4701C29.6906 10.0601 29.4506 9.8001 29.0306 9.8001C28.6106 9.8001 28.3706 10.0701 28.3706 10.4701V11.9201Z" fill="#323232"/>
<path d="M33.1299 13.2202L32.5399 11.7302H31.8999V13.2202H31.1299V9.16016H32.5599C33.3599 9.16016 33.9499 9.66016 33.9499 10.4202C33.9499 10.9502 33.6999 11.3402 33.3099 11.5502L33.9799 13.2202H33.1399H33.1299ZM31.8999 9.83016V11.0502H32.4699C32.8999 11.0502 33.1599 10.8102 33.1599 10.4302C33.1599 10.0502 32.8999 9.82016 32.4699 9.82016H31.8999V9.83016Z" fill="#323232"/>
<path d="M34.2102 9.16016H36.9202V9.85016H35.9502V13.2202H35.1802V9.85016H34.2002V9.16016H34.2102Z" fill="#323232"/>
<path d="M34.9004 32.64C35.5304 31.19 35.8804 29.6 35.8804 27.92C35.8804 26.24 35.5304 24.65 34.9004 23.2C34.9004 23.18 34.8804 23.16 34.8703 23.14C33.0303 18.96 28.8504 16.04 24.0004 16.04C19.1504 16.04 14.9804 18.96 13.1304 23.13C13.1204 23.16 13.1004 23.18 13.0904 23.21C12.4604 24.66 12.1104 26.25 12.1104 27.92C12.1104 29.59 12.4604 31.18 13.0904 32.63C13.1004 32.66 13.1104 32.68 13.1304 32.71C14.9804 36.88 19.1504 39.8 23.9904 39.8C28.8404 39.8 33.0204 36.87 34.8604 32.7C34.8704 32.68 34.8804 32.66 34.8904 32.63L34.9004 32.64ZM14.1204 27.92C14.1204 26.74 14.3404 25.62 14.7204 24.57H17.4304C17.2604 25.63 17.1604 26.75 17.1604 27.92C17.1604 29.09 17.2604 30.21 17.4304 31.27H14.7204C14.3404 30.22 14.1204 29.1 14.1204 27.92ZM19.1604 27.92C19.1604 26.71 19.2704 25.59 19.4504 24.57H23.0004V31.28H19.4504C19.2604 30.25 19.1604 29.13 19.1604 27.93V27.92ZM25.0004 18.29C26.1904 18.85 27.3204 20.36 28.0504 22.57H25.0004V18.29ZM23.0004 18.29V22.57H19.9504C20.6704 20.36 21.8004 18.84 23.0004 18.29ZM23.0004 33.28V37.56C21.8104 37 20.6804 35.49 19.9504 33.28H23.0004ZM25.0004 37.56V33.28H28.0504C27.3304 35.49 26.2004 37.01 25.0004 37.56ZM25.0004 31.28V24.57H28.5504C28.7404 25.6 28.8404 26.72 28.8404 27.92C28.8404 29.12 28.7304 30.25 28.5504 31.27H25.0004V31.28ZM30.5704 24.57H33.2904C33.6704 25.62 33.8904 26.74 33.8904 27.92C33.8904 29.1 33.6704 30.22 33.2904 31.27H30.5704C30.7404 30.21 30.8404 29.09 30.8404 27.92C30.8404 26.75 30.7404 25.63 30.5704 24.57ZM32.2904 22.57H30.1204C29.7604 21.31 29.2804 20.18 28.6904 19.23C30.1504 20.02 31.3904 21.18 32.2904 22.57ZM19.3004 19.23C18.7204 20.18 18.2304 21.31 17.8804 22.57H15.7104C16.6104 21.18 17.8404 20.02 19.3004 19.23ZM15.7104 33.28H17.8804C18.2404 34.54 18.7204 35.67 19.3004 36.62C17.8404 35.83 16.6104 34.67 15.7104 33.28ZM28.7004 36.62C29.2804 35.67 29.7704 34.54 30.1204 33.28H32.2904C31.3904 34.67 30.1504 35.83 28.6904 36.62H28.7004Z" fill="#8DE2E0"/>
<path d="M36.53 45.1501H8.5C7.95 45.1501 7.5 44.7001 7.5 44.1501V3.8501C7.5 3.3001 7.95 2.8501 8.5 2.8501H36.53C38.72 2.8501 40.5 4.6301 40.5 6.8201V41.2001C40.5 43.3901 38.72 45.1701 36.53 45.1701V45.1501ZM9.5 43.1501H36.53C37.61 43.1501 38.5 42.2701 38.5 41.1801V6.8101C38.5 5.7301 37.62 4.8401 36.53 4.8401H9.5V43.1501Z" fill="#323232"/>
</svg>
