<svg width="48" height="48" viewBox="0 0 48 48" fill="none" xmlns="http://www.w3.org/2000/svg">
<path d="M23.3496 22.8901C23.3496 22.3401 22.8996 21.8901 22.3496 21.8901C21.7996 21.8901 21.3496 22.3401 21.3496 22.8901V44.1901H23.3496V22.8901Z" fill="#8DE2E0"/>
<path d="M26.6309 22.8901C26.6309 22.3401 26.1809 21.8901 25.6309 21.8901C25.0809 21.8901 24.6309 22.3401 24.6309 22.8901V44.1901H26.6309V22.8901Z" fill="#8DE2E0"/>
<path d="M35.8809 33.12H35.2709V27.14C35.2709 26.59 34.8209 26.14 34.2709 26.14H32.3509V19.07C32.3509 18.52 31.9009 18.07 31.3509 18.07H31.0709V16.01C31.0709 15.46 30.6209 15.01 30.0709 15.01H29.6409V13.28C29.6409 12.73 29.1909 12.28 28.6409 12.28H27.1409C26.6609 11.7 26.1709 9.00002 26.0609 6.33002C26.0409 5.79002 25.6009 5.37002 25.0609 5.37002H24.9709V2.77002C24.9709 2.22002 24.5209 1.77002 23.9709 1.77002C23.4209 1.77002 22.9709 2.22002 22.9709 2.77002V5.37002H22.8809C22.3409 5.37002 21.9009 5.79002 21.8809 6.33002C21.7709 9.00002 21.2809 11.7 20.8009 12.28H19.3009C18.7509 12.28 18.3009 12.73 18.3009 13.28V15.01H17.8709C17.3209 15.01 16.8709 15.46 16.8709 16.01V18.07H16.6609C16.1109 18.07 15.6609 18.52 15.6609 19.07V26.14H13.7409C13.1909 26.14 12.7409 26.59 12.7409 27.14V33.12H12.1309C11.5809 33.12 11.1309 33.57 11.1309 34.12V45.19C11.1309 45.74 11.5809 46.19 12.1309 46.19H35.8809C36.4309 46.19 36.8809 45.74 36.8809 45.19V34.12C36.8809 33.57 36.4309 33.12 35.8809 33.12ZM33.2609 33.12H30.3309V28.14H33.2609V33.12ZM23.8209 7.36002H24.1009C24.2309 9.50002 24.5209 11.12 24.9409 12.27H22.9709C23.4009 11.12 23.6809 9.50002 23.8209 7.36002ZM20.2909 14.27H27.6209V15H20.2909V14.27ZM18.8709 17H29.0609V18.06H18.8709V17ZM17.6609 20.06H30.3409V26.13H29.3309C28.7809 26.13 28.3309 26.58 28.3309 27.13V44.18H19.6609V27.13C19.6609 26.58 19.2109 26.13 18.6609 26.13H17.6509V20.06H17.6609ZM14.7409 28.13H17.6709V33.11H14.7409V28.13ZM13.1209 44.19V35.12H17.6609V44.19H13.1209ZM30.3309 44.19V35.12H34.8709V44.19H30.3309Z" fill="#323232"/>
</svg>
