<svg width="24" height="24" viewBox="0 0 24 24" fill="none" xmlns="http://www.w3.org/2000/svg">
<rect x="0.25" y="0.25" width="23.5" height="23.5" rx="11.75" fill="white"/>
<rect x="0.25" y="0.25" width="23.5" height="23.5" rx="11.75" stroke="#CCCAC8" stroke-width="0.5"/>
<path fill-rule="evenodd" clip-rule="evenodd" d="M9.99992 11.833C9.53992 11.833 9.16658 12.2063 9.16658 12.6663C9.16658 13.1263 9.53992 13.4997 9.99992 13.4997C10.4599 13.4997 10.8333 13.1263 10.8333 12.6663C10.8333 12.2063 10.4599 11.833 9.99992 11.833ZM13.9999 11.833C13.5399 11.833 13.1666 12.2063 13.1666 12.6663C13.1666 13.1263 13.5399 13.4997 13.9999 13.4997C14.4599 13.4997 14.8333 13.1263 14.8333 12.6663C14.8333 12.2063 14.4599 11.833 13.9999 11.833ZM11.9999 5.33301C8.31992 5.33301 5.33325 8.31967 5.33325 11.9997C5.33325 15.6797 8.31992 18.6663 11.9999 18.6663C15.6799 18.6663 18.6666 15.6797 18.6666 11.9997C18.6666 8.31967 15.6799 5.33301 11.9999 5.33301ZM11.9999 17.333C9.05992 17.333 6.66659 14.9397 6.66659 11.9997C6.66659 11.8063 6.67992 11.613 6.69992 11.4263C8.27325 10.7263 9.51992 9.43967 10.1733 7.84634C11.3799 9.55301 13.3666 10.6663 15.6133 10.6663C16.1333 10.6663 16.6333 10.6063 17.1133 10.493C17.2533 10.9663 17.3333 11.473 17.3333 11.9997C17.3333 14.9397 14.9399 17.333 11.9999 17.333Z" fill="#323232"/>
</svg>
