<svg width="48" height="48" viewBox="0 0 48 48" fill="none" xmlns="http://www.w3.org/2000/svg">
<path fill-rule="evenodd" clip-rule="evenodd" d="M5.82031 16.88C5.82031 16.88 17.6103 16.37 16.4903 29.83L17.6103 16.88H5.82031Z" fill="#8DE2E0"/>
<path fill-rule="evenodd" clip-rule="evenodd" d="M17.6094 16.8799C17.6094 16.8799 29.3794 18.2099 30.3894 30.0899L29.2694 16.8799H17.6094Z" fill="#8DE2E0"/>
<path fill-rule="evenodd" clip-rule="evenodd" d="M18.6309 5.10013C18.6309 5.10013 28.2509 5.00012 29.2609 16.8801L28.2409 5.10013H18.6309Z" fill="#8DE2E0"/>
<path fill-rule="evenodd" clip-rule="evenodd" d="M29.2695 16.8799C29.2695 16.8799 41.0595 16.8799 43.8295 29.8299L41.0695 16.8799H29.2795H29.2695Z" fill="#8DE2E0"/>
<path fill-rule="evenodd" clip-rule="evenodd" d="M28.2402 5.1001C28.2402 5.1001 38.3902 5.1001 41.0602 16.8801L38.3902 5.1001H28.2402Z" fill="#8DE2E0"/>
<path fill-rule="evenodd" clip-rule="evenodd" d="M8.7207 5.1001C8.7207 5.1001 18.6307 5.1001 17.6107 16.8801L18.6307 5.1001H8.7207Z" fill="#8DE2E0"/>
<path d="M45.0092 25.8598L40.0692 7.04984C39.6092 5.30984 38.0392 4.08984 36.2392 4.08984H11.7492C9.94916 4.08984 8.36916 5.30984 7.91916 7.04984L2.98916 25.8598C2.67916 27.0598 2.92916 28.3098 3.68916 29.2898C4.44916 30.2698 5.58916 30.8298 6.82916 30.8298H22.4492V41.8498H12.9692C12.4192 41.8498 11.9692 42.2998 11.9692 42.8498C11.9692 43.3998 12.4192 43.8498 12.9692 43.8498H33.9292C34.4792 43.8498 34.9292 43.3998 34.9292 42.8498C34.9292 42.2998 34.4792 41.8498 33.9292 41.8498H24.4492V30.8298H41.1892C42.4292 30.8298 43.5692 30.2698 44.3292 29.2898C45.0892 28.3098 45.3392 27.0598 45.0292 25.8598H45.0092ZM38.1392 7.55984L40.3192 15.8798H30.1792L29.3292 6.09984H36.2392C37.1292 6.09984 37.9092 6.69984 38.1392 7.55984ZM27.3292 6.09984L28.1792 15.8798H18.7092L19.5592 6.09984H27.3392H27.3292ZM9.85916 7.55984C10.0892 6.69984 10.8692 6.09984 11.7592 6.09984H17.5492L16.6992 15.8798H7.66916L9.84916 7.55984H9.85916ZM5.26916 28.0698C4.88916 27.5798 4.76916 26.9698 4.91916 26.3698L7.14916 17.8798H16.5192L15.5692 28.8298H6.81916C6.20916 28.8298 5.63916 28.5498 5.26916 28.0698ZM17.5792 28.8298L18.5292 17.8798H28.3492L29.2992 28.8298H17.5792ZM42.7292 28.0698C42.3592 28.5498 41.7892 28.8298 41.1792 28.8298H31.2992L30.3492 17.8798H40.8392L43.0692 26.3698C43.2292 26.9598 43.0992 27.5798 42.7292 28.0698Z" fill="#323232"/>
</svg>
