<svg width="48" height="48" viewBox="0 0 48 48" fill="none" xmlns="http://www.w3.org/2000/svg">
<path d="M30.4405 24.0295H26.2405V38.8995C26.2405 38.8995 26.2405 38.9695 26.2405 38.9995H20.0005C20.0005 38.9995 20.0005 38.9195 20.0005 38.8795V24.0295H16.9805V18.9395C16.9805 18.9395 17.0505 18.9395 17.0905 18.9395C18.0205 18.9395 18.9505 18.9395 19.8905 18.9395H20.0005C20.0005 18.9395 20.0005 18.8695 20.0005 18.8495C20.0005 18.2795 20.0005 17.7195 20.0005 17.1495C20.0005 16.2995 20.0005 15.4495 20.0005 14.5995C20.0005 14.0495 20.0605 13.4995 20.1905 12.9595C20.4705 11.8795 21.0105 10.9695 21.8805 10.2795C22.7405 9.58953 23.7505 9.24953 24.8305 9.11953C25.5105 9.02953 26.2005 9.01953 26.8805 9.01953C28.2105 9.01953 29.5405 9.01953 30.8605 9.01953H30.9505V14.2995H30.8505C30.4205 14.2995 29.9905 14.2995 29.5605 14.2995C28.9405 14.2995 28.3205 14.2995 27.7005 14.2995C27.4105 14.2995 27.1405 14.3595 26.8905 14.5195C26.4405 14.7995 26.2505 15.2295 26.2405 15.7495C26.2405 16.7895 26.2405 17.8295 26.2405 18.8695C26.2405 18.8895 26.2405 18.9095 26.2405 18.9495H30.9905C30.8005 20.6595 30.6005 22.3495 30.4105 24.0595L30.4405 24.0295Z" fill="#323232"/>
</svg>
