<svg width="24" height="24" viewBox="0 0 24 24" fill="none" xmlns="http://www.w3.org/2000/svg">
<path fill-rule="evenodd" clip-rule="evenodd" d="M14 20C14 21.1 13.1 22 12 22C10.9 22 10 21.1 10 20H14ZM4.29 3.79L21.25 20.74L19.98 22L16.976 19H4V18L6 16V11C6 10.0956 6.14139 9.23612 6.41354 8.45586L3 5.05L4.29 3.79ZM8.06763 10.1082C8.02287 10.3965 8 10.6948 8 11V17H14.972L8.06763 10.1082ZM12 2.5C12.83 2.5 13.5 3.17 13.5 4V4.68C16.37 5.36 18 7.93 18 11V15.492L16 13.493V11C16 8.59294 14.5775 6.61922 12.2171 6.5052L12 6.5C11.1036 6.5 10.3342 6.76179 9.71655 7.21259L8.26613 5.76337C8.89332 5.25744 9.64172 4.88407 10.5 4.68V4C10.5 3.17 11.17 2.5 12 2.5Z" fill="#323232"/>
</svg>
