<svg width="24" height="24" viewBox="0 0 24 24" fill="none" xmlns="http://www.w3.org/2000/svg">
<g clip-path="url(#clip0_16335_5666)">
<path d="M23.8477 13.9079C24.9016 7.3648 20.4517 1.20623 13.9086 0.152345C7.3655 -0.901545 1.20694 3.54833 0.153048 10.0914C-0.900841 16.6345 3.54903 22.7931 10.0921 23.847C16.6352 24.9008 22.7938 20.451 23.8477 13.9079Z" fill="white"/>
<mask id="mask0_16335_5666" style="mask-type:luminance" maskUnits="userSpaceOnUse" x="-1" y="-1" width="26" height="26">
<path d="M23.8477 13.9079C24.9016 7.3648 20.4517 1.20623 13.9086 0.152345C7.3655 -0.901545 1.20694 3.54833 0.153048 10.0914C-0.900841 16.6345 3.54903 22.7931 10.0921 23.847C16.6352 24.9008 22.7938 20.451 23.8477 13.9079Z" fill="white"/>
</mask>
<g mask="url(#mask0_16335_5666)">
<path d="M18.0007 0H6.00073V24H18.0007V0Z" fill="#FED700"/>
<path d="M30.0007 0H18.0007V24H30.0007V0Z" fill="#FF0000"/>
<path d="M6.00073 0H-5.99927V24H6.00073V0Z" fill="#003399"/>
<path fill-rule="evenodd" clip-rule="evenodd" d="M9.85215 8.58186C9.90665 8.58325 9.95975 8.59164 10.0101 8.60561C10.0688 8.62099 10.1247 8.64474 10.1778 8.67549L11.0665 9.18836C11.1294 9.13525 11.1853 9.07516 11.2342 9.00948C11.3656 8.8334 11.4425 8.6154 11.4425 8.38062V7.98514C11.4425 7.79229 11.3852 7.61202 11.2873 7.46249C11.1923 7.31715 11.0596 7.19837 10.903 7.12151V7.51979C10.903 7.55053 10.9156 7.57708 10.9352 7.59804C10.9547 7.61901 10.9827 7.63019 11.0134 7.63019C11.026 7.63019 11.0372 7.64137 11.0372 7.65394C11.0372 7.66373 11.0302 7.67351 11.0218 7.6763C10.9827 7.69447 10.9478 7.71962 10.9156 7.75177C10.8835 7.78391 10.8555 7.82304 10.8346 7.86636C10.8262 7.88313 10.801 7.88313 10.7926 7.86636C10.7717 7.82304 10.7437 7.7853 10.7116 7.75177C10.6794 7.71962 10.6431 7.69447 10.604 7.6763C10.5914 7.67071 10.5872 7.65674 10.5928 7.64556C10.597 7.63717 10.6054 7.63158 10.6138 7.63158C10.6445 7.63158 10.6711 7.61901 10.692 7.59944C10.7116 7.57988 10.7242 7.55193 10.7242 7.52118V6.6296H10.5327C10.4866 6.6296 10.4461 6.65755 10.4293 6.70087C10.4223 6.71764 10.4013 6.72184 10.3888 6.70786C10.3678 6.6855 10.351 6.65895 10.3385 6.631C10.3273 6.60305 10.3203 6.57231 10.3203 6.53877C10.3203 6.50523 10.3273 6.47588 10.3385 6.44654C10.3496 6.41719 10.3678 6.39064 10.3902 6.36828C10.4027 6.3557 10.4237 6.35989 10.4293 6.37666C10.4461 6.41859 10.4866 6.44793 10.5327 6.44793H10.7242V6.25648C10.7242 6.21037 10.6962 6.16984 10.6529 6.15307C10.6361 6.14608 10.6319 6.12512 10.6459 6.11254C10.6683 6.09158 10.6948 6.07481 10.7228 6.06223C10.7507 6.05105 10.7815 6.04407 10.815 6.04407C10.8485 6.04407 10.8779 6.05105 10.9072 6.06223C10.9366 6.07341 10.9631 6.09158 10.9855 6.11394C10.9981 6.12652 10.9939 6.14748 10.9771 6.15307C10.9352 6.16984 10.9058 6.21037 10.9058 6.25648V6.44793H11.0973C11.1434 6.44793 11.1839 6.41998 11.2007 6.37666C11.2077 6.35989 11.2286 6.3557 11.2412 6.36968C11.2622 6.39204 11.2804 6.41859 11.2915 6.44654C11.3027 6.47449 11.3097 6.50523 11.3097 6.53877C11.3097 6.57231 11.3041 6.60165 11.2915 6.631C11.279 6.66035 11.2622 6.6869 11.2398 6.70926C11.2272 6.72184 11.2063 6.71764 11.2007 6.70087C11.1839 6.65895 11.1434 6.6296 11.0973 6.6296H10.9058V6.83224C10.9296 6.82525 10.9561 6.82106 10.9827 6.82106H11.3013C11.3265 6.7442 11.3782 6.6841 11.4439 6.64637C11.5151 6.60585 11.6004 6.59187 11.6856 6.61423L12.8958 6.93844C12.914 6.94264 12.9196 6.96639 12.9056 6.97897C12.8511 7.02928 12.7882 7.06701 12.7197 7.09216C12.784 7.13409 12.8385 7.18859 12.8804 7.25287C12.8902 7.26964 12.879 7.2906 12.8595 7.28921C12.812 7.28501 12.7631 7.28921 12.7155 7.29899C12.7896 7.37445 12.8399 7.47088 12.8609 7.57429C12.8651 7.59525 12.8413 7.61062 12.8245 7.59804C12.7798 7.5659 12.7295 7.54215 12.6764 7.52677C12.682 7.56171 12.6848 7.59804 12.6848 7.63298C12.6848 7.71823 12.6694 7.80068 12.6415 7.87754C12.6135 7.9544 12.573 8.02427 12.5227 8.08576V8.38202C12.5227 8.61679 12.601 8.8348 12.7309 9.01088C12.7798 9.07656 12.8357 9.13665 12.8986 9.18975L13.7874 8.67688C13.8866 8.61959 13.997 8.58745 14.1116 8.58325V8.09694C14.1116 8.09694 14.1144 8.08436 14.1186 8.08017L14.8998 7.29899C14.9096 7.28921 14.9235 7.28921 14.9333 7.29899L15.449 7.81465C15.5342 7.90269 15.6041 8.0061 15.6502 8.12209C15.6963 8.23389 15.7215 8.35547 15.7215 8.48403V12.8679L16.0289 12.239C16.0373 12.2222 16.0499 12.2097 16.0653 12.2027C16.0569 12.1901 16.0499 12.1775 16.0457 12.1636C16.0331 12.1258 16.0345 12.0825 16.0527 12.0434C16.0918 11.9637 16.1156 11.8799 16.1253 11.796C16.1351 11.7094 16.1295 11.6213 16.11 11.5375C16.1072 11.5249 16.1142 11.5137 16.1267 11.5095C16.1882 11.4914 16.2525 11.4802 16.3182 11.476C16.3601 11.4732 16.402 11.476 16.444 11.4788C16.4384 11.4648 16.4342 11.4508 16.4342 11.4341C16.4342 11.388 16.4635 11.3474 16.5041 11.3321C16.4887 11.3167 16.4747 11.3013 16.4635 11.2831C16.4565 11.272 16.4607 11.258 16.4705 11.251L16.6801 11.1043C16.6955 11.0931 16.7165 11.1043 16.7165 11.1224L16.7305 11.3796C16.7305 11.3922 16.7221 11.4033 16.7095 11.4047C16.6885 11.4075 16.6676 11.4061 16.6466 11.4033C16.6494 11.4131 16.6508 11.4243 16.6508 11.4355C16.6508 11.4872 16.6159 11.5291 16.5683 11.5417C16.5977 11.5724 16.6242 11.6046 16.648 11.6395C16.6857 11.6926 16.7165 11.7499 16.7388 11.8114C16.743 11.8226 16.7388 11.8365 16.7263 11.8407C16.648 11.8771 16.5767 11.926 16.5138 11.9875C16.4538 12.0462 16.402 12.1174 16.3629 12.1971C16.3448 12.2362 16.3112 12.2642 16.2721 12.2767C16.2581 12.2809 16.2441 12.2837 16.2288 12.2851C16.233 12.3019 16.2316 12.3201 16.2232 12.3368L15.7928 13.22C15.7844 13.2354 15.7718 13.248 15.7578 13.255C15.7746 13.2843 15.7774 13.322 15.762 13.3556C15.7522 13.3751 15.7369 13.3919 15.7187 13.4017V15.8459C15.7187 15.864 15.6977 15.8752 15.6824 15.8654C15.523 15.7858 15.3889 15.6614 15.2939 15.5105C15.2561 15.449 15.2254 15.3833 15.2016 15.3148C15.0745 15.2575 14.9613 15.1751 14.8704 15.0703C14.8676 15.0703 14.8648 15.0703 14.862 15.0703C14.8774 15.0954 14.8872 15.1248 14.8872 15.1569C14.8872 15.2394 14.8257 15.3078 14.7447 15.3176L14.774 15.3414C14.795 15.3581 14.8061 15.3791 14.8117 15.4043L14.8746 15.6614C14.8802 15.6838 14.8537 15.6991 14.8369 15.6852L14.8299 15.6796C14.8285 15.7019 14.8201 15.7243 14.8034 15.7424C14.7796 15.7704 14.7461 15.783 14.7125 15.783C14.7195 15.8151 14.7125 15.8515 14.6888 15.878C14.665 15.906 14.6315 15.9185 14.5993 15.9185C14.6063 15.9507 14.5993 15.987 14.5756 16.0136C14.5364 16.0597 14.468 16.0667 14.4204 16.0303C14.4177 16.0778 14.3869 16.117 14.345 16.1323C14.3701 16.1533 14.3911 16.1785 14.4079 16.205C14.4149 16.2162 14.4121 16.2302 14.4009 16.2372L14.1312 16.4258C14.1158 16.437 14.0934 16.4272 14.0934 16.409L14.0753 16.0792C14.0753 16.0667 14.0837 16.0555 14.0962 16.0541C14.1284 16.0513 14.1605 16.0527 14.1927 16.0583C14.1899 16.0471 14.1871 16.0359 14.1871 16.0233C14.1871 15.9688 14.2248 15.9213 14.2765 15.9101C14.2653 15.9004 14.2555 15.8878 14.25 15.8766L14.1256 15.674L13.4101 14.6231L13.3933 14.7209C13.3891 14.7433 13.3598 14.7475 13.35 14.7293L13.0915 14.3478L12.5618 14.5909C12.7421 14.9738 12.9475 15.3414 13.1767 15.6935C13.4115 16.0555 13.67 16.3993 13.9495 16.7249C13.9593 16.736 13.9565 16.7556 13.9411 16.7612C13.8265 16.8129 13.7133 16.8688 13.6001 16.9261C13.4869 16.9834 13.3765 17.0421 13.2661 17.1036C13.255 17.1106 13.241 17.1078 13.234 17.0966C13.0384 16.8199 12.8581 16.5306 12.6918 16.2316C12.5688 16.008 12.4542 15.7802 12.348 15.5482C12.4095 15.8039 12.4822 16.0541 12.5646 16.3014C12.675 16.6312 12.8022 16.9527 12.9461 17.2657C12.9517 17.2769 12.9475 17.2894 12.9377 17.2964C12.7742 17.397 12.6135 17.5019 12.457 17.6109C12.3005 17.7199 12.1468 17.8344 11.9972 17.9546C11.9889 17.9616 11.9763 17.9616 11.9679 17.9546C11.8184 17.8358 11.6647 17.7213 11.5081 17.6109C11.3516 17.5019 11.1923 17.397 11.0274 17.2964C11.0176 17.2908 11.0134 17.2769 11.0176 17.2657C11.1616 16.9527 11.2901 16.6312 11.3991 16.3014C11.4816 16.0555 11.5529 15.8039 11.6157 15.5482C11.5109 15.7816 11.3963 16.0094 11.272 16.2316C11.1071 16.5306 10.9254 16.8199 10.7298 17.0966C10.7228 17.1064 10.7102 17.1092 10.699 17.1036C10.59 17.0421 10.4782 16.9834 10.365 16.9261C10.2518 16.8688 10.1386 16.8143 10.024 16.7626C10.0087 16.757 10.0045 16.7374 10.0156 16.7249C10.2965 16.3993 10.5551 16.0555 10.7884 15.6935C11.0162 15.3414 11.2217 14.9724 11.4033 14.5909L10.8737 14.3478L10.6152 14.7279C10.604 14.7475 10.5746 14.7419 10.5718 14.7195L10.5551 14.6217L9.83957 15.6726L9.83398 15.6824C9.88149 15.7201 9.9318 15.7536 9.98351 15.783C10.0408 15.8151 10.1009 15.8431 10.1638 15.8654C10.1764 15.8696 10.1819 15.8836 10.1778 15.8948C10.1568 15.9563 10.1414 16.0205 10.1316 16.0862C10.1219 16.1519 10.1177 16.219 10.1191 16.2861C10.1191 16.3056 10.0967 16.3182 10.0799 16.3056C10.0282 16.2623 9.97233 16.2246 9.91503 16.1924C9.85774 16.1603 9.79765 16.1323 9.73616 16.11C9.72358 16.1058 9.71799 16.0932 9.72218 16.0806C9.74314 16.0191 9.75852 15.9549 9.7683 15.8878C9.77389 15.8487 9.77808 15.8095 9.77948 15.7704L9.71519 15.8738C9.70821 15.8864 9.69982 15.8976 9.68864 15.9073L9.5461 16.0275C9.49859 16.0667 9.42732 16.0611 9.38679 16.0136C9.36443 15.9856 9.35605 15.9507 9.36303 15.9185C9.3295 15.9185 9.29596 15.906 9.2736 15.878C9.24984 15.8501 9.24285 15.8151 9.24984 15.783C9.2163 15.783 9.18276 15.7704 9.15901 15.7424C9.14363 15.7243 9.13525 15.7019 9.13245 15.6796L9.12547 15.6852C9.1087 15.7005 9.08214 15.6838 9.08773 15.6614L9.15062 15.4043C9.15621 15.3777 9.16739 15.3581 9.18835 15.3414L9.36024 15.2072C9.38539 15.1863 9.41754 15.1779 9.44968 15.1821L9.48741 15.1863L9.44828 15.1066C9.43011 15.1373 9.39657 15.1597 9.35744 15.1597C9.29875 15.1597 9.25124 15.1122 9.25124 15.0535C9.25124 15.0381 9.25403 15.0228 9.26102 15.0102C9.23447 15.013 9.20931 15.0144 9.18276 15.0144C9.16879 15.0144 9.15342 15.0144 9.13944 15.013C9.09053 15.0773 9.03323 15.136 8.97035 15.1877C8.90607 15.238 8.83619 15.2813 8.76073 15.3148C8.73697 15.3833 8.70623 15.449 8.6685 15.5105C8.57487 15.6614 8.44071 15.7858 8.28 15.8654C8.26463 15.8752 8.24367 15.8654 8.24367 15.8459V13.874C8.20035 13.8349 8.16262 13.7916 8.13047 13.7441C8.12069 13.7301 8.12908 13.7119 8.14445 13.7077C8.17659 13.698 8.21013 13.6896 8.24367 13.684V13.5932L8.23808 13.5848C8.20733 13.5373 8.18218 13.4855 8.16401 13.431C8.15842 13.4157 8.1696 13.4003 8.18497 13.4003C8.20454 13.4003 8.2241 13.4003 8.24367 13.4003V12.9908C8.2269 12.9908 8.21153 12.9908 8.19476 12.9908C8.11929 12.9908 8.04383 12.9769 7.96977 12.9517C7.8957 12.9266 7.82722 12.8888 7.76853 12.8441C7.70704 12.7966 7.65394 12.7407 7.61202 12.6778C7.60363 12.6652 7.60922 12.6471 7.62459 12.6415C7.6777 12.6247 7.7336 12.6135 7.78949 12.6093C7.76294 12.58 7.73918 12.5492 7.71822 12.5171C7.68748 12.4696 7.66232 12.4179 7.64416 12.3634C7.63857 12.348 7.64975 12.3326 7.66512 12.3326C7.74058 12.3285 7.81744 12.3368 7.89291 12.3578C7.96557 12.3774 8.03545 12.4095 8.10113 12.4542C8.13327 12.4752 8.16262 12.4989 8.18917 12.5241L7.97256 12.0811C7.95439 12.1118 7.92085 12.1328 7.88173 12.1328C7.82303 12.1328 7.77552 12.0853 7.77552 12.0266C7.77552 12 7.7853 11.9749 7.80207 11.9567C7.7853 11.9539 7.76713 11.9497 7.75036 11.9441C7.6777 11.9246 7.60782 11.8924 7.54214 11.8477C7.47646 11.803 7.42056 11.7499 7.37584 11.6912C7.32833 11.6297 7.292 11.5612 7.26684 11.49C7.26125 11.4746 7.27243 11.4592 7.2878 11.4592C7.36327 11.455 7.44013 11.4634 7.51559 11.4844C7.54494 11.4928 7.57289 11.5026 7.60223 11.5151C7.57428 11.4774 7.54773 11.4369 7.52677 11.3935C7.49183 11.3223 7.47087 11.2482 7.46109 11.1741C7.45131 11.0973 7.4541 11.0204 7.46808 10.945C7.47087 10.9282 7.48904 10.9212 7.50301 10.9296C7.57009 10.9645 7.63158 11.0092 7.68608 11.0637C7.73779 11.1169 7.7839 11.1797 7.81744 11.251C7.8384 11.2943 7.85517 11.3404 7.86775 11.3852C7.87614 11.3558 7.88592 11.3265 7.8971 11.2985C7.92644 11.2273 7.96697 11.1616 8.01728 11.1043C8.02706 11.0917 8.04663 11.0945 8.05501 11.1071C8.09554 11.1714 8.12768 11.2412 8.14724 11.3167C8.16541 11.3894 8.1738 11.4662 8.16821 11.5445C8.16262 11.6227 8.14445 11.6982 8.1165 11.7681C8.10951 11.7834 8.10252 11.8002 8.09554 11.8142H8.10113C8.15982 11.8142 8.20733 11.8617 8.20733 11.919C8.20733 11.9763 8.15982 12.0252 8.10113 12.0252C8.09693 12.0252 8.09134 12.0252 8.08715 12.0252L8.24646 12.3522V8.48683C8.24646 8.35826 8.27162 8.23668 8.31773 8.12489C8.36525 8.0089 8.43372 7.90549 8.51897 7.81745L9.03463 7.30178C9.04441 7.292 9.05839 7.292 9.06817 7.30178L9.84935 8.08296C9.84935 8.08296 9.85634 8.09275 9.85634 8.09973V8.58605L9.85215 8.58186ZM14.6273 14.3492C14.4722 14.2681 14.3422 14.1479 14.2514 13.9998C14.1913 13.902 14.1479 13.793 14.1242 13.677C14.1088 13.7203 14.0892 13.7608 14.0655 13.7986C14.0082 13.888 13.9257 13.9607 13.8237 14.0068L13.7008 14.0627L13.909 14.3953C13.9216 14.4149 13.902 14.4372 13.881 14.4302L13.7776 14.3911L14.215 15.0884C14.2374 15.1262 14.2695 15.1541 14.3045 15.1723C14.3422 15.1905 14.3841 15.1974 14.426 15.1932L14.5099 15.1821C14.5281 15.1793 14.5462 15.1821 14.563 15.1863C14.5616 15.1765 14.5602 15.1667 14.5602 15.1569C14.5602 15.0731 14.6245 15.0032 14.7069 14.9962C14.693 14.9752 14.6832 14.9515 14.6776 14.9249C14.6678 14.8788 14.672 14.8257 14.6902 14.7754C14.6496 14.6678 14.6273 14.5518 14.6273 14.4358V14.3492ZM9.83398 13.677C9.8214 13.7399 9.80324 13.8 9.77948 13.8573C9.73336 13.9691 9.66628 14.0711 9.58383 14.1577C9.59082 14.1801 9.59501 14.2038 9.59921 14.2276C9.63694 14.1857 9.68026 14.1479 9.72637 14.1172C9.73895 14.1074 9.75852 14.113 9.76271 14.1284C9.78647 14.201 9.79765 14.2765 9.79765 14.3548C9.79765 14.4302 9.78507 14.5057 9.75852 14.5798C9.73336 14.6538 9.69563 14.7223 9.65091 14.781C9.63554 14.802 9.61737 14.8215 9.59921 14.8411C9.64532 14.8523 9.68026 14.8942 9.68026 14.9445C9.68026 15.0032 9.63275 15.0507 9.57405 15.0507C9.56846 15.0507 9.56427 15.0507 9.55868 15.0507L9.62296 15.1835C9.63275 15.1807 9.64253 15.1765 9.65091 15.1723C9.68725 15.1541 9.71939 15.1262 9.74175 15.0884L10.1792 14.3925L10.0757 14.4316C10.0548 14.44 10.0352 14.4163 10.0478 14.3967L10.256 14.0641L10.133 14.0082C10.0324 13.9607 9.94857 13.8894 9.89127 13.8C9.86612 13.7622 9.84656 13.7217 9.83258 13.6784L9.83398 13.677ZM10.903 7.0181V7.06561L11.3921 7.19697L11.1392 7.05164C11.0777 7.0167 11.0092 7.00412 10.9436 7.01111C10.9296 7.01251 10.9156 7.0153 10.903 7.0181Z" fill="black"/>
<path fill-rule="evenodd" clip-rule="evenodd" d="M11.4942 7.20246L11.3013 6.86707H10.9785C10.8835 6.86707 10.7996 6.93275 10.7745 7.02358C10.8234 6.99144 10.8793 6.97048 10.938 6.96349C11.0134 6.95511 11.0931 6.96908 11.163 7.00961L11.4942 7.20106V7.20246Z" fill="#FF0000"/>
<path fill-rule="evenodd" clip-rule="evenodd" d="M11.8366 14.7683C11.8897 14.8103 11.9372 14.8592 11.9791 14.9123C12.021 14.8592 12.0685 14.8117 12.1216 14.7683C12.1817 14.7194 12.2474 14.6775 12.3187 14.6454L13.8042 13.9648C13.8964 13.9215 13.9733 13.8558 14.0264 13.7733C14.0781 13.6923 14.1074 13.5973 14.1074 13.4953V9.86884C14.1074 9.77102 14.1326 9.67879 14.1773 9.59913C14.2108 9.53764 14.257 9.48454 14.3101 9.43982H9.64813C9.70124 9.48454 9.74735 9.53764 9.78089 9.59913C9.82561 9.67879 9.85076 9.77102 9.85076 9.86884V13.4953C9.85076 13.5973 9.88011 13.6923 9.93182 13.7733C9.98492 13.8544 10.0604 13.9215 10.154 13.9648L11.6395 14.6454C11.7108 14.6775 11.7765 14.7194 11.8366 14.7683ZM11.9959 14.6985C11.9875 14.7069 11.9735 14.7069 11.9637 14.6985C11.8841 14.6272 11.7946 14.5671 11.6968 14.5224L10.2113 13.8418C10.1428 13.8097 10.0855 13.7608 10.0478 13.7021C10.0087 13.642 9.98772 13.5721 9.98772 13.4966V9.87024C9.98772 9.7808 9.97095 9.69276 9.93741 9.61031C9.92902 9.59494 9.9402 9.57537 9.95837 9.57537H14.004C14.0208 9.57537 14.032 9.59214 14.0264 9.60751C13.9928 9.68996 13.9747 9.7794 13.9747 9.86884V13.4953C13.9747 13.5707 13.9537 13.6406 13.9146 13.7007C13.8755 13.7608 13.8196 13.8097 13.7511 13.8404L12.2656 14.521C12.1678 14.5657 12.0783 14.6258 11.9987 14.6971L11.9959 14.6985Z" fill="#FED700"/>
<path fill-rule="evenodd" clip-rule="evenodd" d="M14.3016 15.9534C14.3408 15.9534 14.3715 15.9841 14.3715 16.0232C14.3715 16.0624 14.3408 16.0931 14.3016 16.0931C14.2625 16.0931 14.2318 16.0624 14.2318 16.0232C14.2318 15.9841 14.2625 15.9534 14.3016 15.9534Z" fill="#FED700"/>
<path fill-rule="evenodd" clip-rule="evenodd" d="M14.3031 15.8724C14.2751 15.8486 14.2723 15.8081 14.2947 15.7801C14.3184 15.7522 14.359 15.7494 14.3869 15.7717L14.5295 15.8919C14.5574 15.9157 14.5602 15.9562 14.5378 15.9842C14.5141 16.0121 14.4736 16.0149 14.4456 15.9925L14.3031 15.8724Z" fill="#FF0000"/>
<path fill-rule="evenodd" clip-rule="evenodd" d="M14.4176 15.7369C14.3897 15.7131 14.3869 15.6726 14.4093 15.6446C14.433 15.6167 14.4735 15.6139 14.5015 15.6362L14.644 15.7564C14.672 15.7802 14.6748 15.8207 14.6524 15.8487C14.6287 15.8766 14.5881 15.8794 14.5602 15.857L14.4176 15.7369Z" fill="#FF0000"/>
<path fill-rule="evenodd" clip-rule="evenodd" d="M14.5309 15.6012C14.5029 15.5775 14.5001 15.537 14.5225 15.509C14.5462 15.4811 14.5868 15.4783 14.6147 15.5006L14.7572 15.6208C14.7852 15.6446 14.788 15.6851 14.7656 15.713C14.7419 15.741 14.7013 15.7438 14.6734 15.7214L14.5309 15.6012Z" fill="#FF0000"/>
<path fill-rule="evenodd" clip-rule="evenodd" d="M14.5113 15.4559L14.4149 15.4182L14.4694 15.5063C14.4735 15.4965 14.4791 15.4867 14.4861 15.4783C14.4931 15.4699 14.5015 15.4615 14.5113 15.4559Z" fill="black"/>
<path fill-rule="evenodd" clip-rule="evenodd" d="M14.2835 15.7284L14.1871 15.6907L14.2416 15.7787C14.2458 15.7689 14.2514 15.7591 14.2583 15.7508C14.2653 15.7424 14.2737 15.734 14.2835 15.7284Z" fill="black"/>
<path fill-rule="evenodd" clip-rule="evenodd" d="M14.3981 15.5929L14.3016 15.5552L14.3561 15.6432C14.3603 15.6334 14.3659 15.6237 14.3729 15.6153C14.3799 15.6069 14.3883 15.5985 14.3981 15.5929Z" fill="black"/>
<path fill-rule="evenodd" clip-rule="evenodd" d="M14.6678 15.4839C14.6943 15.4992 14.7293 15.4936 14.7502 15.4699C14.7726 15.4419 14.7698 15.4014 14.7419 15.3776C14.6888 15.3315 14.6245 15.2882 14.57 15.2435C14.5546 15.2309 14.5364 15.2267 14.5169 15.2295L14.433 15.2407C14.3813 15.2477 14.3296 15.2379 14.2849 15.2155C14.2402 15.1932 14.2024 15.1596 14.1745 15.1135L13.7049 14.3659L13.6938 14.3617L13.6574 14.5713C13.6546 14.5881 13.6393 14.5937 13.6253 14.5895L13.4268 14.514L13.4199 14.5573L14.1451 15.625L14.3352 15.7005L14.2248 15.5216C14.2136 15.502 14.2332 15.4783 14.2541 15.4867L14.4484 15.5635L14.3394 15.3846C14.3268 15.3651 14.3492 15.3413 14.3701 15.3511L14.6091 15.4461C14.6231 15.4503 14.6357 15.4573 14.6468 15.4671L14.6692 15.4853L14.6678 15.4839Z" fill="#FF0000"/>
<path fill-rule="evenodd" clip-rule="evenodd" d="M14.7851 15.5006C14.7698 15.5188 14.7502 15.53 14.7292 15.5355L14.8103 15.604L14.7851 15.5006Z" fill="black"/>
<path fill-rule="evenodd" clip-rule="evenodd" d="M14.1354 16.3643L14.3534 16.2119C14.3268 16.1756 14.2905 16.1477 14.2514 16.1281C14.2108 16.1085 14.1675 16.0974 14.1228 16.0987L14.1368 16.3643H14.1354Z" fill="#FED700"/>
<path fill-rule="evenodd" clip-rule="evenodd" d="M9.65507 15.8724C9.68302 15.8486 9.68582 15.8081 9.66346 15.7801C9.6397 15.7522 9.59918 15.7494 9.57123 15.7717L9.42869 15.8919C9.40074 15.9157 9.39794 15.9562 9.4203 15.9842C9.44406 16.0121 9.48458 16.0149 9.51253 15.9925L9.65507 15.8724Z" fill="#FF0000"/>
<path fill-rule="evenodd" clip-rule="evenodd" d="M9.54192 15.7369C9.56987 15.7131 9.57266 15.6726 9.5503 15.6446C9.52654 15.6167 9.48602 15.6139 9.45807 15.6362L9.31553 15.7564C9.28758 15.7802 9.28478 15.8207 9.30714 15.8487C9.3309 15.8766 9.37143 15.8794 9.39938 15.857L9.54192 15.7369Z" fill="#FF0000"/>
<path fill-rule="evenodd" clip-rule="evenodd" d="M9.42729 15.6012C9.45524 15.5775 9.45804 15.537 9.43568 15.509C9.41192 15.4811 9.37139 15.4783 9.34344 15.5006L9.2009 15.6208C9.17295 15.6446 9.17016 15.6851 9.19252 15.713C9.21628 15.741 9.2568 15.7438 9.28475 15.7214L9.42729 15.6012Z" fill="#FF0000"/>
<path fill-rule="evenodd" clip-rule="evenodd" d="M9.4469 15.4559L9.54332 15.4182L9.48882 15.5063C9.48463 15.4965 9.47904 15.4867 9.47205 15.4783C9.46507 15.4699 9.45668 15.4615 9.4469 15.4559Z" fill="black"/>
<path fill-rule="evenodd" clip-rule="evenodd" d="M9.67468 15.7284L9.77111 15.6907L9.71661 15.7787C9.71241 15.7689 9.70682 15.7591 9.69984 15.7508C9.69285 15.7424 9.68446 15.734 9.67468 15.7284Z" fill="black"/>
<path fill-rule="evenodd" clip-rule="evenodd" d="M9.56146 15.5929L9.65789 15.5552L9.60339 15.6432C9.59919 15.6334 9.5936 15.6237 9.58662 15.6153C9.57963 15.6069 9.57124 15.5985 9.56146 15.5929Z" fill="black"/>
<path fill-rule="evenodd" clip-rule="evenodd" d="M9.29175 15.4839C9.2652 15.4992 9.23027 15.4936 9.2093 15.4699C9.18694 15.4419 9.18974 15.4014 9.21769 15.3776C9.27079 15.3315 9.33508 15.2882 9.38958 15.2435C9.40495 15.2309 9.42311 15.2267 9.44268 15.2295L9.52653 15.2407C9.57823 15.2463 9.62994 15.2379 9.67466 15.2155C9.71938 15.1932 9.75711 15.1596 9.78506 15.1135L10.2546 14.3659L10.2658 14.3617L10.3021 14.5713C10.3049 14.5881 10.3203 14.5937 10.3343 14.5895L10.5327 14.514L10.5397 14.5573L9.8144 15.625L9.62435 15.7005L9.73475 15.5216C9.74593 15.502 9.72636 15.4783 9.7054 15.4867L9.50976 15.5635L9.62016 15.3846C9.63273 15.3651 9.61037 15.3413 9.58941 15.3511L9.35045 15.4461C9.33647 15.4503 9.32389 15.4573 9.31272 15.4671L9.29036 15.4853L9.29175 15.4839Z" fill="#FF0000"/>
<path fill-rule="evenodd" clip-rule="evenodd" d="M9.17439 15.5006C9.18976 15.5188 9.20932 15.53 9.23028 15.5355L9.14923 15.604L9.17439 15.5006Z" fill="black"/>
<path fill-rule="evenodd" clip-rule="evenodd" d="M9.82556 15.7368C9.82556 15.7899 9.81997 15.843 9.81299 15.8947C9.8046 15.9548 9.79063 16.0149 9.77246 16.0736C9.82976 16.0946 9.88426 16.1211 9.93736 16.1519C9.98348 16.1784 10.0268 16.2064 10.0701 16.2399C10.0701 16.1868 10.0757 16.1337 10.0827 16.082C10.0911 16.0219 10.1051 15.9618 10.1232 15.9031C10.0659 15.8822 10.0114 15.8556 9.95693 15.8249C9.91081 15.7983 9.86609 15.7704 9.82417 15.7382L9.82556 15.7368Z" fill="#FED700"/>
<path fill-rule="evenodd" clip-rule="evenodd" d="M14.7223 15.0422C14.7851 15.0422 14.8368 15.0939 14.8368 15.1568C14.8368 15.2197 14.7851 15.2714 14.7223 15.2714C14.6594 15.2714 14.6077 15.2197 14.6077 15.1568C14.6077 15.0939 14.6594 15.0422 14.7223 15.0422Z" fill="#FED700"/>
<path fill-rule="evenodd" clip-rule="evenodd" d="M15.428 13.6309C15.3987 13.6169 15.3861 13.5806 15.4001 13.5512C15.414 13.5219 15.4504 13.5093 15.4797 13.5233L15.5426 13.554C15.5719 13.568 15.5845 13.6043 15.5705 13.6337C15.5566 13.663 15.5202 13.6756 15.4909 13.6616L15.428 13.6309Z" fill="#FED700"/>
<path fill-rule="evenodd" clip-rule="evenodd" d="M15.502 13.4799C15.4727 13.4659 15.4601 13.4296 15.4741 13.4002C15.4881 13.3709 15.5244 13.3583 15.5537 13.3723L15.6166 13.403C15.646 13.417 15.6586 13.4533 15.6446 13.4827C15.6306 13.512 15.5943 13.5246 15.5649 13.5106L15.502 13.4799Z" fill="#FED700"/>
<path fill-rule="evenodd" clip-rule="evenodd" d="M15.5747 13.3304C15.5454 13.3164 15.5328 13.28 15.5468 13.2507C15.5608 13.2214 15.5971 13.2088 15.6264 13.2228L15.6893 13.2535C15.7187 13.2675 15.7313 13.3038 15.7173 13.3331C15.7033 13.3625 15.667 13.3751 15.6376 13.3611L15.5747 13.3304Z" fill="#FED700"/>
<path fill-rule="evenodd" clip-rule="evenodd" d="M16.5376 11.3726C16.5711 11.3726 16.5991 11.4005 16.5991 11.434C16.5991 11.4676 16.5711 11.4955 16.5376 11.4955C16.504 11.4955 16.4761 11.4676 16.4761 11.434C16.4761 11.4005 16.504 11.3726 16.5376 11.3726Z" fill="#FED700"/>
<path fill-rule="evenodd" clip-rule="evenodd" d="M16.6787 11.3585L16.669 11.1685L16.5125 11.2775C16.5194 11.2872 16.5278 11.2956 16.5376 11.304C16.567 11.3306 16.6061 11.3487 16.6438 11.3557C16.6564 11.3585 16.6676 11.3585 16.6787 11.3585Z" fill="#FED700"/>
<path fill-rule="evenodd" clip-rule="evenodd" d="M16.1547 12.1915L16.1519 12.2153L16.1617 12.2194L16.1785 12.2027C16.1966 12.1831 16.2162 12.1524 16.2274 12.1286C16.2679 12.0448 16.3112 11.9665 16.3559 11.8966C16.4007 11.8254 16.4468 11.7625 16.4915 11.7094C16.4971 11.6563 16.5013 11.592 16.4859 11.5403C16.437 11.5612 16.3881 11.6032 16.3504 11.6395C16.3364 11.708 16.314 11.7834 16.2861 11.8631C16.2581 11.9414 16.2232 12.0238 16.1827 12.1077C16.1701 12.1342 16.1589 12.1622 16.1547 12.1915Z" fill="#FED700"/>
<path fill-rule="evenodd" clip-rule="evenodd" d="M16.5418 11.5835C16.546 11.6296 16.5432 11.6771 16.5376 11.7218C16.5376 11.7274 16.5348 11.7316 16.532 11.7344C16.4873 11.7875 16.4412 11.8504 16.3964 11.9217C16.3531 11.9902 16.3098 12.067 16.2693 12.1495C16.2525 12.1816 16.2371 12.2096 16.212 12.2361C16.2273 12.2361 16.2427 12.2361 16.2567 12.2305C16.2832 12.2207 16.307 12.2026 16.3196 12.1746C16.3615 12.0894 16.416 12.0153 16.4789 11.9524C16.5404 11.8923 16.6089 11.8434 16.6843 11.8057C16.6634 11.7568 16.6368 11.7093 16.6061 11.6645C16.5865 11.6366 16.5641 11.6087 16.5404 11.5835H16.5418Z" fill="#FED700"/>
<path fill-rule="evenodd" clip-rule="evenodd" d="M16.1072 12.1859C16.1128 12.1524 16.1239 12.1188 16.1393 12.0881C16.1798 12.0056 16.2134 11.9246 16.2413 11.8491C16.2693 11.7695 16.2916 11.694 16.3056 11.6255C16.3056 11.6213 16.3084 11.6171 16.3126 11.6129C16.3447 11.5808 16.3811 11.5487 16.4188 11.5249C16.3839 11.5221 16.3489 11.5221 16.3154 11.5235C16.2623 11.5263 16.2078 11.5347 16.1561 11.5487C16.1729 11.6311 16.177 11.7164 16.1673 11.8002C16.1575 11.8896 16.1323 11.9777 16.0904 12.0629C16.0778 12.0895 16.0764 12.1202 16.0848 12.1468C16.0904 12.1607 16.0974 12.1747 16.1072 12.1859Z" fill="#FED700"/>
<path d="M15.6352 13.1436L16.065 12.2601C16.0717 12.2463 16.0891 12.2392 16.1042 12.2466L16.167 12.2771C16.1809 12.2839 16.1867 12.3007 16.18 12.3145L15.7502 13.1979C15.7435 13.2118 15.7261 13.2188 15.711 13.2115L15.6482 13.1809C15.6343 13.1742 15.6273 13.1568 15.6346 13.1417L15.6352 13.1436Z" fill="#FED700"/>
<path fill-rule="evenodd" clip-rule="evenodd" d="M15.4392 13.6882L15.4084 13.6728C15.3945 13.6658 15.3763 13.6728 15.3707 13.6854L15.196 14.0445C15.196 14.0445 15.196 14.0473 15.1946 14.0487L14.978 14.4931C14.9403 14.5616 14.8914 14.6217 14.8313 14.6692C14.7935 14.6958 14.7684 14.7237 14.7488 14.7656C14.7237 14.8159 14.7181 14.869 14.7279 14.9152C14.7363 14.9585 14.7614 14.9934 14.7977 15.0116C14.8341 15.0297 14.8774 15.0256 14.9165 15.0074C14.9585 14.9864 14.9962 14.9487 15.0213 14.8984C15.0437 14.8523 15.0465 14.8215 15.0465 14.7726C15.0465 14.6958 15.0647 14.6189 15.0954 14.549C15.2184 14.2821 15.3567 14.0068 15.4881 13.7427C15.4951 13.7287 15.4881 13.7119 15.4741 13.705L15.4434 13.6896L15.4392 13.6882Z" fill="#FED700"/>
<path fill-rule="evenodd" clip-rule="evenodd" d="M11.3292 7.44151C11.3362 7.3912 11.36 7.34508 11.3949 7.31015C11.4145 7.29058 11.4355 7.27521 11.4606 7.26403L11.0526 7.15503C11.1602 7.23049 11.2538 7.32552 11.3251 7.43592L11.3292 7.44151Z" fill="#FF0000"/>
<path fill-rule="evenodd" clip-rule="evenodd" d="M11.7275 6.98169C11.7694 6.98169 11.803 7.01523 11.803 7.05715C11.803 7.09908 11.7694 7.13262 11.7275 7.13262C11.6856 7.13262 11.652 7.09908 11.652 7.05715C11.652 7.01523 11.6856 6.98169 11.7275 6.98169Z" fill="#FED700"/>
<path fill-rule="evenodd" clip-rule="evenodd" d="M10.7675 7.08929V7.52111C10.7675 7.56443 10.7493 7.60356 10.7213 7.6329C10.7088 7.64548 10.692 7.65666 10.6752 7.66504C10.699 7.68042 10.7213 7.69858 10.7423 7.71955C10.7689 7.7461 10.7912 7.77544 10.8122 7.80759C10.8317 7.77544 10.8555 7.7447 10.8821 7.71955C10.903 7.69858 10.9254 7.68042 10.9491 7.66504C10.9324 7.65666 10.917 7.64548 10.903 7.6329C10.8751 7.60495 10.8569 7.56443 10.8569 7.52111V7.03479C10.8248 7.04876 10.7954 7.06693 10.7689 7.08929H10.7675Z" fill="#FED700"/>
<path fill-rule="evenodd" clip-rule="evenodd" d="M10.8555 6.8517V6.60435C10.8555 6.59178 10.8667 6.5806 10.8793 6.5806H11.0945C11.1462 6.5806 11.1937 6.60575 11.223 6.64767C11.2314 6.63649 11.2384 6.62392 11.2426 6.60994C11.2524 6.58758 11.2566 6.56243 11.2566 6.53588C11.2566 6.50933 11.251 6.48417 11.2426 6.46181C11.237 6.44924 11.23 6.43526 11.223 6.42408C11.1937 6.466 11.1462 6.49116 11.0945 6.49116H10.8793C10.8667 6.49116 10.8555 6.47998 10.8555 6.4674V6.25219C10.8555 6.20049 10.8807 6.15297 10.9226 6.12363C10.9114 6.11524 10.8988 6.10825 10.8848 6.10406C10.8625 6.09428 10.8373 6.09009 10.8108 6.09009C10.7842 6.09009 10.7591 6.09568 10.7367 6.10406C10.7241 6.10965 10.7116 6.11664 10.699 6.12363C10.7409 6.15297 10.7661 6.20049 10.7661 6.25219V6.4674C10.7661 6.47998 10.7549 6.49116 10.7423 6.49116H10.5271C10.4754 6.49116 10.4279 6.466 10.3985 6.42408C10.3901 6.43526 10.3832 6.44784 10.379 6.46181C10.3692 6.48417 10.365 6.50933 10.365 6.53588C10.365 6.56243 10.3706 6.58758 10.379 6.60994C10.3846 6.62252 10.3915 6.6351 10.3985 6.64767C10.4279 6.60575 10.4754 6.5806 10.5271 6.5806H10.7423C10.7549 6.5806 10.7661 6.59178 10.7661 6.60435V6.92856C10.7884 6.89642 10.8192 6.86987 10.8541 6.85031L10.8555 6.8517Z" fill="#FED700"/>
<path fill-rule="evenodd" clip-rule="evenodd" d="M13.4981 12.9265C13.4408 12.8986 13.3765 12.8832 13.3081 12.8832C13.1879 12.8832 13.0775 12.9321 12.9992 13.0117C12.9196 13.0914 12.8707 13.2004 12.8707 13.3206C12.8707 13.4296 12.9112 13.5302 12.9769 13.6057C13.0314 13.6686 13.104 13.7175 13.1879 13.7412C13.1418 13.6658 13.118 13.5791 13.118 13.4911C13.118 13.3569 13.1725 13.2353 13.2606 13.1487C13.3486 13.0607 13.4688 13.0062 13.6029 13.0062H13.6127C13.5792 12.974 13.5414 12.9475 13.4995 12.9265H13.4981Z" fill="#FED700"/>
<path fill-rule="evenodd" clip-rule="evenodd" d="M11.3656 13.5218C11.4047 13.4911 11.4369 13.4534 11.4606 13.4101C11.4914 13.3556 11.5081 13.2927 11.5081 13.2284V12.784C11.4718 12.7784 11.4369 12.7714 11.4019 12.763C11.3712 12.756 11.3418 12.7491 11.3111 12.7421C11.3307 12.8734 11.3432 13.0048 11.353 13.1361C11.3614 13.2633 11.3656 13.3919 11.3656 13.5218Z" fill="#FED700"/>
<path fill-rule="evenodd" clip-rule="evenodd" d="M12.4878 13.4114C12.5115 13.4533 12.5437 13.4924 12.5828 13.5232C12.5828 13.3932 12.5856 13.2647 12.5954 13.1375C12.6037 13.0061 12.6177 12.8748 12.6373 12.7434C12.6065 12.7504 12.5772 12.7588 12.5465 12.7644C12.5115 12.7714 12.4766 12.7783 12.4402 12.7853V13.2297C12.4402 13.294 12.457 13.3569 12.4878 13.4114Z" fill="#FED700"/>
<path fill-rule="evenodd" clip-rule="evenodd" d="M11.3991 12.4122C11.3837 12.3969 11.3698 12.3801 11.3586 12.3619C11.3474 12.3801 11.3334 12.3969 11.3181 12.4122C11.3013 12.429 11.2831 12.443 11.2635 12.457C11.2831 12.4695 11.3013 12.4849 11.3181 12.5017C11.3334 12.5171 11.3474 12.5338 11.3586 12.552C11.3698 12.5338 11.3837 12.5171 11.3991 12.5017C11.4159 12.4849 11.434 12.4709 11.4536 12.457C11.434 12.4444 11.4159 12.429 11.3991 12.4122Z" fill="#FED700"/>
<path fill-rule="evenodd" clip-rule="evenodd" d="M11.7932 10.2545L11.5934 10.3356L11.7946 10.4166C11.8072 10.4222 11.8128 10.4362 11.8072 10.4474L11.7219 10.6458L11.9218 10.5606C11.9344 10.5564 11.9469 10.5606 11.9525 10.5732L12.0336 10.773L12.1146 10.5718C12.1202 10.5592 12.1342 10.5536 12.1454 10.5592L12.3438 10.6444L12.2586 10.4446C12.253 10.432 12.2586 10.4194 12.2712 10.4138L12.471 10.3328L12.2698 10.2517C12.2586 10.2461 12.253 10.2322 12.2572 10.221L12.3424 10.0226L12.1426 10.1078C12.13 10.112 12.1174 10.1078 12.1118 10.0952L12.0308 9.89539L11.9497 10.0966C11.9441 10.1092 11.9302 10.1148 11.919 10.1092L11.7206 10.024L11.8058 10.2238C11.81 10.2364 11.8058 10.2503 11.7932 10.2545Z" fill="#FED700"/>
<path fill-rule="evenodd" clip-rule="evenodd" d="M11.9581 11.4033C11.9008 11.3502 11.8337 11.3083 11.7625 11.2776C11.708 11.3125 11.6562 11.353 11.6073 11.3949C11.6017 11.3991 11.5962 11.4019 11.5892 11.4005C11.4019 11.3754 11.237 11.2831 11.1196 11.149C11.0036 11.0162 10.9324 10.8416 10.9324 10.6515C10.9324 10.5439 10.9547 10.4391 10.998 10.3399L11.1895 9.88708C11.0288 9.98491 10.889 10.1163 10.787 10.2686C10.6836 10.4265 10.6207 10.6082 10.6207 10.8038C10.6207 11.0162 10.6948 11.2133 10.8178 11.367C10.9435 11.5249 11.1196 11.6395 11.3237 11.687C11.339 11.6912 11.3474 11.708 11.339 11.722C11.2789 11.8254 11.2314 11.9372 11.2021 12.0518C11.3376 12.0671 11.4592 12.1328 11.5486 12.2278C11.6437 12.3284 11.701 12.464 11.701 12.6135V13.2284C11.701 13.3304 11.673 13.4255 11.6255 13.5093C11.5766 13.5945 11.5053 13.6672 11.4187 13.7175C11.3712 13.7455 11.3432 13.7958 11.3432 13.8503C11.3432 13.9299 11.4047 13.997 11.4844 14.004C11.5766 14.0124 11.6632 14.0515 11.7303 14.1158C11.7611 14.1493 11.8002 14.1773 11.8421 14.1955C11.8826 14.2122 11.9274 14.222 11.9735 14.222C12.0196 14.222 12.0643 14.2122 12.1048 14.1955C12.1468 14.1773 12.1859 14.1493 12.2166 14.1158C12.2837 14.0515 12.3703 14.0124 12.4626 14.004C12.5422 13.997 12.6037 13.9299 12.6037 13.8503C12.6037 13.7958 12.5744 13.7455 12.5283 13.7175C12.443 13.6672 12.3717 13.5959 12.3214 13.5093C12.2739 13.4269 12.246 13.3304 12.246 13.2284V12.6135C12.246 12.4654 12.3047 12.3298 12.3983 12.2278C12.4877 12.1328 12.6093 12.0671 12.7449 12.0518C12.7141 11.9358 12.668 11.824 12.6079 11.722C12.5995 11.708 12.6079 11.6912 12.6233 11.687C12.8259 11.6409 13.0034 11.5249 13.1292 11.367C13.2521 11.2119 13.3248 11.0162 13.3248 10.8038C13.3248 10.6082 13.2619 10.4265 13.1585 10.2686C13.0579 10.1149 12.9168 9.98491 12.756 9.88708L12.9475 10.3399C12.9908 10.4391 13.0132 10.5439 13.0132 10.6515C13.0132 10.8416 12.9419 11.0162 12.8259 11.149C12.7085 11.2831 12.5422 11.3768 12.3564 11.4005C12.3494 11.4005 12.3424 11.4005 12.3382 11.3949C12.2893 11.3516 12.2376 11.3125 12.1831 11.2776C12.1118 11.3083 12.0447 11.3516 11.9874 11.4033C11.9791 11.4117 11.9651 11.4117 11.9553 11.4033H11.9581Z" fill="#FED700"/>
<path fill-rule="evenodd" clip-rule="evenodd" d="M12.6289 12.4122C12.6135 12.3969 12.5996 12.3801 12.5884 12.3619C12.5772 12.3801 12.5632 12.3969 12.5478 12.4122C12.5311 12.429 12.5129 12.443 12.4933 12.457C12.5129 12.4695 12.5311 12.4849 12.5478 12.5017C12.5632 12.5171 12.5772 12.5338 12.5884 12.552C12.5996 12.5338 12.6135 12.5171 12.6289 12.5017C12.6457 12.4849 12.6638 12.4709 12.6834 12.457C12.6638 12.4444 12.6457 12.429 12.6289 12.4122Z" fill="#FED700"/>
<path fill-rule="evenodd" clip-rule="evenodd" d="M13.1976 11.7275C13.1389 11.7638 13.0761 11.7946 13.009 11.8225C13.0747 11.8505 13.1375 11.8826 13.1976 11.9176C13.2661 11.9595 13.3304 12.007 13.3863 12.0573C13.4422 12.0056 13.5065 11.9595 13.5749 11.9176C13.6336 11.8826 13.6965 11.8505 13.7636 11.8225C13.6979 11.7946 13.635 11.7625 13.5749 11.7275C13.5065 11.6856 13.4422 11.6381 13.3863 11.5878C13.3304 11.6395 13.2661 11.6856 13.1976 11.7275Z" fill="#FED700"/>
<path fill-rule="evenodd" clip-rule="evenodd" d="M13.9243 11.7988V9.86893C13.9243 9.78509 13.9383 9.70124 13.9677 9.62158H9.99188C10.0198 9.70124 10.0338 9.78369 10.0338 9.86893V11.7988H10.1163C10.2001 11.7681 10.277 11.7304 10.3482 11.687C10.4209 11.6437 10.4866 11.5934 10.5453 11.5375C10.5537 11.5291 10.569 11.5291 10.5774 11.5375C10.6361 11.592 10.7018 11.6423 10.7745 11.687C10.8457 11.7304 10.924 11.7681 11.0064 11.7988H11.244C11.2552 11.7737 11.2678 11.7499 11.2817 11.7262C11.0805 11.6731 10.9058 11.5557 10.7801 11.3978C10.6501 11.2343 10.5732 11.0288 10.5732 10.8052C10.5732 10.5998 10.6389 10.4084 10.7465 10.2435C10.8639 10.0646 11.033 9.91505 11.2258 9.81024C11.2454 9.79906 11.2678 9.82002 11.2594 9.84098L11.04 10.358C10.9995 10.4517 10.9785 10.5495 10.9785 10.6515C10.9785 10.8304 11.0442 10.9939 11.1546 11.1183C11.2636 11.2426 11.4145 11.3279 11.585 11.353C11.6367 11.3083 11.6898 11.2678 11.7471 11.2315C11.7541 11.2273 11.7625 11.2273 11.7695 11.2301C11.8435 11.2608 11.912 11.3027 11.9735 11.3558C12.035 11.3027 12.102 11.2608 12.1775 11.2301C12.1845 11.2273 12.1929 11.2273 12.1999 11.2315C12.2572 11.2678 12.3117 11.3083 12.362 11.353C12.5325 11.3279 12.6834 11.2426 12.7924 11.1183C12.9014 10.9939 12.9685 10.8304 12.9685 10.6515C12.9685 10.5509 12.9475 10.4517 12.907 10.358L12.6876 9.84098C12.6792 9.82002 12.7002 9.80046 12.7211 9.81024C12.914 9.91505 13.0831 10.0646 13.2005 10.2435C13.3095 10.4084 13.3737 10.5998 13.3737 10.8052C13.3737 11.0288 13.2969 11.2356 13.1669 11.3978C13.0411 11.5557 12.8665 11.6731 12.6652 11.7262C12.6792 11.7499 12.6918 11.7751 12.703 11.7988H12.9405C13.0244 11.7681 13.1012 11.7304 13.1725 11.687C13.2452 11.6437 13.3109 11.5934 13.3695 11.5375C13.3793 11.5291 13.3933 11.5291 13.4017 11.5375C13.459 11.592 13.5261 11.6423 13.5987 11.687C13.67 11.7304 13.7483 11.7681 13.8307 11.7988H13.9243ZM11.5207 10.3133L11.7527 10.2197L11.6549 9.98912C11.6465 9.96955 11.666 9.94999 11.6856 9.95837L11.9162 10.0562L12.0098 9.82421C12.0182 9.80465 12.0462 9.80465 12.0531 9.82421L12.1468 10.0562L12.3773 9.95837C12.3969 9.94999 12.4165 9.96955 12.4081 9.98912L12.3103 10.2197L12.5422 10.3133C12.5618 10.3217 12.5618 10.3497 12.5422 10.3566L12.3103 10.4503L12.4081 10.6809C12.4165 10.7004 12.3969 10.72 12.3773 10.7116L12.1468 10.6138L12.0531 10.8458C12.0448 10.8653 12.0168 10.8653 12.0098 10.8458L11.9162 10.6138L11.6856 10.7116C11.666 10.72 11.6465 10.7004 11.6549 10.6809L11.7527 10.4503L11.5207 10.3566C11.5011 10.3483 11.5011 10.3203 11.5207 10.3133Z" fill="#FF0000"/>
<path fill-rule="evenodd" clip-rule="evenodd" d="M11.9791 14.6496C12.0587 14.5811 12.1482 14.5238 12.2432 14.4791L13.7287 13.7986C13.7888 13.7706 13.8391 13.7273 13.8726 13.6756C13.9062 13.6239 13.9257 13.5624 13.9257 13.4953V11.8463H13.8321C13.7483 11.8771 13.6714 11.9148 13.6001 11.9581C13.5275 12.0014 13.4618 12.0517 13.4031 12.1076C13.3933 12.116 13.3793 12.116 13.3709 12.1076C13.3136 12.0531 13.2466 12.0028 13.1739 11.9581C13.1026 11.9148 13.0244 11.8771 12.9419 11.8463H12.7253C12.7561 11.9176 12.7812 11.9903 12.7994 12.0671C12.8022 12.0825 12.7952 12.0965 12.7784 12.0979C12.6429 12.1062 12.5227 12.1677 12.4346 12.2614C12.348 12.3536 12.2949 12.478 12.2949 12.6149V13.2298C12.2949 13.3234 12.3201 13.4115 12.3634 13.4869C12.4081 13.5652 12.4738 13.6309 12.552 13.677C12.6135 13.7133 12.6513 13.779 12.6513 13.8503C12.6513 13.9551 12.5702 14.0431 12.4668 14.0515C12.3857 14.0585 12.3089 14.0934 12.2502 14.1507C12.2152 14.1885 12.1719 14.2178 12.1244 14.2388C12.0783 14.2583 12.028 14.2695 11.9735 14.2695C11.919 14.2695 11.8701 14.2583 11.8226 14.2388C11.775 14.2178 11.7317 14.1871 11.6968 14.1507C11.6381 14.0934 11.5612 14.0585 11.4802 14.0515C11.3754 14.0431 11.2957 13.9551 11.2957 13.8503C11.2957 13.779 11.3334 13.7133 11.3949 13.677C11.4732 13.6309 11.5389 13.5652 11.5836 13.4869C11.6269 13.4115 11.6521 13.3234 11.6521 13.2298V12.6149C11.6521 12.4794 11.599 12.355 11.5123 12.2614C11.4257 12.1677 11.3041 12.1062 11.1685 12.0979C11.1518 12.0979 11.1448 12.0825 11.1476 12.0671C11.1658 11.9916 11.1909 11.9176 11.2216 11.8463H11.005C10.9212 11.8771 10.8443 11.9148 10.7731 11.9581C10.7004 12.0014 10.6347 12.0517 10.576 12.1076C10.5676 12.116 10.5523 12.116 10.5439 12.1076C10.4866 12.0531 10.4195 12.0028 10.3468 11.9581C10.2756 11.9148 10.1973 11.8771 10.1149 11.8463H10.0324V13.4953C10.0324 13.561 10.0506 13.6225 10.0855 13.6756C10.1191 13.7287 10.1694 13.7706 10.2295 13.7986L11.715 14.4791C11.81 14.5225 11.8994 14.5797 11.9791 14.6496ZM11.5011 13.4338C11.4662 13.4953 11.4159 13.5498 11.353 13.5876C11.3376 13.5973 11.3167 13.5862 11.3167 13.5666C11.3181 13.424 11.3153 13.2815 11.3055 13.139C11.2957 12.9978 11.2803 12.8553 11.2594 12.7141C11.2566 12.6974 11.272 12.6834 11.2887 12.6876C11.3293 12.6988 11.3698 12.7085 11.4117 12.7169C11.4522 12.7253 11.4928 12.7337 11.5333 12.7407C11.5459 12.7407 11.5542 12.7519 11.5542 12.7644V13.2284C11.5542 13.3011 11.5347 13.3723 11.4997 13.4338H11.5011ZM11.381 12.3047C11.3935 12.3326 11.4117 12.3578 11.4327 12.3787C11.455 12.4011 11.4816 12.4207 11.5123 12.436C11.5305 12.4444 11.5291 12.4696 11.5123 12.478C11.483 12.4933 11.4564 12.5115 11.4341 12.5353C11.4117 12.5576 11.3935 12.5828 11.381 12.6093C11.3726 12.6275 11.346 12.6275 11.3376 12.6093C11.3251 12.5814 11.3069 12.5562 11.2845 12.5353C11.2622 12.5129 11.2356 12.4933 11.2049 12.478C11.1867 12.4696 11.1881 12.4444 11.2049 12.436C11.2342 12.4207 11.2608 12.4011 11.2845 12.3801C11.3069 12.3578 11.3251 12.3326 11.3376 12.3061C11.346 12.2879 11.3726 12.2879 11.381 12.3061V12.3047ZM12.6093 12.3047C12.6219 12.3326 12.6401 12.3578 12.6624 12.3787C12.6848 12.4011 12.7113 12.4207 12.7421 12.436C12.7603 12.4444 12.7589 12.4696 12.7421 12.478C12.7127 12.4933 12.6862 12.5115 12.6624 12.5353C12.6401 12.5576 12.6219 12.5828 12.6093 12.6093C12.6009 12.6275 12.5744 12.6275 12.566 12.6093C12.5534 12.5814 12.5353 12.5562 12.5129 12.5353C12.4905 12.5129 12.464 12.4933 12.4332 12.478C12.4151 12.4696 12.4165 12.4444 12.4332 12.436C12.4626 12.4207 12.4891 12.4011 12.5129 12.3801C12.5353 12.3578 12.5534 12.3326 12.566 12.3061C12.5744 12.2879 12.6009 12.2879 12.6093 12.3061V12.3047ZM12.594 13.5876C12.5311 13.5498 12.4808 13.4953 12.4458 13.4338C12.4109 13.3723 12.3913 13.3025 12.3913 13.2284V12.7644C12.3913 12.7519 12.4011 12.7421 12.4123 12.7407C12.4528 12.7337 12.4933 12.7267 12.5339 12.7169C12.5758 12.7085 12.6163 12.6974 12.6568 12.6876C12.6736 12.6834 12.689 12.6974 12.6862 12.7141C12.6652 12.8567 12.6499 12.9978 12.6401 13.139C12.6303 13.2815 12.6261 13.424 12.6289 13.5666C12.6289 13.5862 12.6093 13.5959 12.5926 13.5876H12.594ZM13.3081 12.8357C13.3835 12.8357 13.4548 12.8525 13.5191 12.8832C13.5848 12.9154 13.6434 12.9615 13.6882 13.0188C13.7021 13.0356 13.6882 13.0593 13.6658 13.0565C13.6448 13.0537 13.6239 13.0523 13.6015 13.0523C13.4813 13.0523 13.3709 13.1012 13.2927 13.1809C13.213 13.2605 13.1641 13.3695 13.1641 13.4897C13.1641 13.5889 13.1977 13.684 13.2591 13.7608C13.2731 13.7776 13.2591 13.8014 13.2368 13.7986C13.1194 13.7818 13.0146 13.7217 12.9405 13.6351C12.8679 13.5498 12.8231 13.4394 12.8231 13.3178C12.8231 13.1837 12.8776 13.0621 12.9657 12.9755C13.0537 12.8874 13.1739 12.8329 13.3081 12.8329V12.8357ZM11.1266 13.4408C11.1322 13.4967 11.1168 13.5568 11.0791 13.6043C11.04 13.6518 10.9869 13.6798 10.9296 13.6854C10.8765 13.691 10.822 13.677 10.7759 13.6434C10.7535 13.6952 10.7116 13.7343 10.6627 13.7566C10.6054 13.7818 10.5509 13.7818 10.4922 13.7608C10.4349 13.7385 10.3916 13.6952 10.3692 13.6434C10.3482 13.5945 10.344 13.5372 10.3622 13.4827C10.3049 13.4772 10.2546 13.4492 10.2197 13.4101C10.1819 13.3681 10.161 13.3109 10.1638 13.2494C10.168 13.1879 10.1959 13.1348 10.2378 13.097C10.277 13.0621 10.3287 13.0411 10.3846 13.0411C10.3734 12.9866 10.3846 12.9307 10.4097 12.886C10.4405 12.8329 10.4852 12.8008 10.5439 12.7826C10.6026 12.7672 10.6627 12.777 10.713 12.805C10.7591 12.8315 10.7954 12.8734 10.8122 12.9266C10.8611 12.8986 10.9156 12.8916 10.9673 12.9014C11.0232 12.9126 11.0735 12.9447 11.1071 12.9964C11.1392 13.0453 11.1518 13.1054 11.1392 13.1641C11.128 13.2172 11.0987 13.2647 11.0526 13.2983C11.0959 13.336 11.121 13.3877 11.1266 13.4408Z" fill="#003399"/>
<path fill-rule="evenodd" clip-rule="evenodd" d="M10.678 13.1053C10.7745 13.1053 10.8527 13.1836 10.8527 13.28C10.8527 13.3765 10.7745 13.4547 10.678 13.4547C10.5816 13.4547 10.5034 13.3765 10.5034 13.28C10.5034 13.1836 10.5816 13.1053 10.678 13.1053Z" fill="#FED700"/>
<path fill-rule="evenodd" clip-rule="evenodd" d="M10.4796 13.3793C10.4642 13.35 10.4559 13.3151 10.4559 13.2801C10.4559 13.2354 10.4684 13.1935 10.4922 13.1585L10.4069 13.0901C10.3552 13.0845 10.3077 13.0984 10.2686 13.1334C10.2351 13.1627 10.2127 13.206 10.2099 13.2536C10.2071 13.3025 10.2239 13.3472 10.2532 13.3807C10.2896 13.4213 10.3343 13.438 10.3888 13.4394L10.4782 13.3821L10.4796 13.3793Z" fill="#FED700"/>
<path fill-rule="evenodd" clip-rule="evenodd" d="M10.7116 13.4995C10.7004 13.5009 10.6892 13.5023 10.6766 13.5023C10.6068 13.5023 10.5439 13.4701 10.5034 13.4198L10.4139 13.4771C10.3916 13.526 10.3888 13.5735 10.4111 13.6238C10.4293 13.6644 10.4628 13.6979 10.5062 13.7161C10.5495 13.7328 10.5984 13.7328 10.6417 13.7133C10.692 13.6909 10.7214 13.6532 10.7381 13.6029L10.7102 13.4995H10.7116Z" fill="#FED700"/>
<path fill-rule="evenodd" clip-rule="evenodd" d="M10.8974 13.3151C10.8849 13.3947 10.8304 13.4604 10.7577 13.4883L10.7856 13.5918C10.8262 13.6267 10.8709 13.6449 10.924 13.6393C10.9687 13.6351 11.0106 13.6127 11.0414 13.575C11.0721 13.5373 11.0833 13.4911 11.0791 13.4464C11.0735 13.3919 11.047 13.3514 11.0036 13.3207L10.8974 13.3151Z" fill="#FED700"/>
<path fill-rule="evenodd" clip-rule="evenodd" d="M10.7786 13.0816C10.8471 13.1165 10.8946 13.1864 10.9002 13.2675L11.0064 13.2731C11.0525 13.2465 11.0833 13.2088 11.0945 13.1543C11.1042 13.1082 11.0945 13.062 11.0693 13.0215C11.0427 12.981 11.0022 12.9558 10.9589 12.9475C10.9072 12.9363 10.8597 12.9475 10.8178 12.9796L10.7786 13.0816Z" fill="#FED700"/>
<path fill-rule="evenodd" clip-rule="evenodd" d="M10.678 13.0579C10.6976 13.0579 10.7171 13.0607 10.7339 13.0649L10.773 12.9629C10.7619 12.9126 10.7353 12.8706 10.6892 12.8455C10.6501 12.8231 10.6025 12.8161 10.5564 12.8287C10.5103 12.8413 10.4726 12.872 10.4502 12.9098C10.4237 12.9559 10.4209 13.0034 10.4362 13.0537L10.5215 13.1236C10.562 13.0831 10.6165 13.0593 10.678 13.0593V13.0579Z" fill="#FED700"/>
<path fill-rule="evenodd" clip-rule="evenodd" d="M8.71459 14.0081C8.77608 14.0081 8.83617 14.0012 8.89486 13.9844C8.85853 13.9369 8.8152 13.8922 8.76769 13.8558C8.71179 13.8139 8.64891 13.779 8.57903 13.7552C8.50916 13.7314 8.43789 13.7189 8.36802 13.7189C8.30653 13.7189 8.24644 13.7259 8.18774 13.7412C8.22408 13.7901 8.266 13.8335 8.31491 13.8698C8.37081 13.9117 8.4337 13.9467 8.50357 13.9704C8.57344 13.9942 8.64471 14.0067 8.71459 14.0067V14.0081Z" fill="#007C29"/>
<path fill-rule="evenodd" clip-rule="evenodd" d="M9.18138 14.9654C9.24287 14.9654 9.30296 14.9584 9.36166 14.943C9.32532 14.8941 9.282 14.8508 9.23449 14.8144C9.17859 14.7725 9.1157 14.7376 9.04583 14.7138C8.97596 14.6901 8.90469 14.6775 8.83481 14.6775C8.77333 14.6775 8.71323 14.6845 8.65454 14.7012C8.69088 14.7502 8.7342 14.7935 8.78171 14.8298C8.83761 14.8717 8.90049 14.9067 8.97037 14.9304C9.04024 14.9542 9.11151 14.9668 9.18138 14.9668V14.9654Z" fill="#007C29"/>
<path fill-rule="evenodd" clip-rule="evenodd" d="M7.75315 11.6003C7.7811 11.6213 7.80765 11.645 7.83141 11.6688L7.84958 11.6883L7.84538 11.6618C7.84119 11.6268 7.83979 11.5933 7.83979 11.5598C7.83979 11.4591 7.81604 11.3599 7.77272 11.2691C7.74057 11.2034 7.69865 11.1447 7.64974 11.0944C7.60642 11.0511 7.5589 11.0134 7.5058 10.984C7.49742 11.0441 7.49742 11.1042 7.5058 11.1657C7.51558 11.2342 7.53515 11.304 7.56729 11.3697C7.61201 11.4605 7.67489 11.5388 7.75455 11.6017L7.75315 11.6003Z" fill="#007C29"/>
<path fill-rule="evenodd" clip-rule="evenodd" d="M7.93623 11.919L7.88033 11.803C7.85657 11.7666 7.82862 11.7317 7.79788 11.6996C7.76713 11.6688 7.7322 11.6395 7.69447 11.6143C7.63298 11.5724 7.5673 11.5431 7.50022 11.5249C7.44153 11.5081 7.38004 11.4997 7.31995 11.5011C7.34231 11.557 7.37305 11.6101 7.40938 11.659C7.45131 11.7149 7.50441 11.7638 7.5659 11.8058C7.62739 11.8477 7.69307 11.877 7.76015 11.8952C7.81744 11.912 7.87753 11.919 7.93623 11.919Z" fill="#007C29"/>
<path fill-rule="evenodd" clip-rule="evenodd" d="M8.069 11.7457C8.09555 11.6814 8.11232 11.6115 8.11791 11.5375C8.1235 11.4634 8.11651 11.3921 8.09835 11.325C8.08297 11.2664 8.05922 11.2091 8.02987 11.1573C7.99214 11.2049 7.96139 11.258 7.93764 11.3139C7.91109 11.3781 7.89432 11.448 7.88873 11.5221C7.88593 11.5682 7.88733 11.6129 7.89292 11.6562C7.89851 11.701 7.90829 11.7429 7.92227 11.7848L7.97816 11.9008C8.0145 11.8533 8.04384 11.803 8.0676 11.7471L8.069 11.7457Z" fill="#007C29"/>
<path fill-rule="evenodd" clip-rule="evenodd" d="M7.87895 11.9651C7.91109 11.9651 7.93764 11.9916 7.93764 12.0238C7.93764 12.0559 7.91109 12.0825 7.87895 12.0825C7.8468 12.0825 7.82025 12.0559 7.82025 12.0238C7.82025 11.9916 7.8468 11.9651 7.87895 11.9651Z" fill="#FED700"/>
<path fill-rule="evenodd" clip-rule="evenodd" d="M8.0969 11.8574C8.12904 11.8574 8.15559 11.884 8.15559 11.9161C8.15559 11.9483 8.12904 11.9748 8.0969 11.9748C8.06476 11.9748 8.03821 11.9483 8.03821 11.9161C8.03821 11.884 8.06476 11.8574 8.0969 11.8574Z" fill="#FED700"/>
<path fill-rule="evenodd" clip-rule="evenodd" d="M8.42811 12.7281C8.42811 12.7113 8.42671 12.6945 8.42811 12.6778C8.42811 12.6023 8.44208 12.5268 8.46723 12.4528C8.48959 12.3899 8.51894 12.3312 8.55528 12.2795C8.55528 12.2222 8.54829 12.1677 8.53431 12.1146C8.51894 12.0559 8.49518 11.9986 8.46584 11.9469C8.42811 11.9944 8.39736 12.0475 8.3736 12.1034C8.34705 12.1677 8.33028 12.2376 8.32469 12.3116C8.3191 12.3857 8.32609 12.457 8.34426 12.5241C8.36382 12.6023 8.39596 12.6596 8.4295 12.7295L8.42811 12.7281Z" fill="#007C29"/>
<path fill-rule="evenodd" clip-rule="evenodd" d="M8.58744 12.8622C8.61958 12.8622 8.64613 12.8887 8.64613 12.9209C8.64613 12.953 8.61958 12.9796 8.58744 12.9796C8.5553 12.9796 8.52875 12.953 8.52875 12.9209C8.52875 12.8887 8.5553 12.8622 8.58744 12.8622Z" fill="#FED700"/>
<path fill-rule="evenodd" clip-rule="evenodd" d="M9.57542 14.8885C9.60756 14.8885 9.63411 14.9151 9.63411 14.9472C9.63411 14.9794 9.60756 15.0059 9.57542 15.0059C9.54328 15.0059 9.51672 14.9794 9.51672 14.9472C9.51672 14.9151 9.54328 14.8885 9.57542 14.8885Z" fill="#FED700"/>
<path fill-rule="evenodd" clip-rule="evenodd" d="M9.48457 14.883C9.53209 14.8467 9.57681 14.8048 9.61314 14.7558C9.65506 14.7 9.69 14.6371 9.71376 14.5672C9.73751 14.4973 9.75009 14.426 9.75009 14.3562C9.75009 14.2947 9.7431 14.2346 9.72633 14.1759C9.67882 14.2122 9.6341 14.2556 9.59777 14.3031C9.55584 14.359 9.52091 14.4219 9.49715 14.4917C9.47339 14.5616 9.46082 14.6329 9.46082 14.7027C9.46082 14.7642 9.4678 14.8243 9.48457 14.883Z" fill="#007C29"/>
<path fill-rule="evenodd" clip-rule="evenodd" d="M9.35606 14.9948C9.3882 14.9948 9.41475 15.0213 9.41475 15.0534C9.41475 15.0856 9.3882 15.1121 9.35606 15.1121C9.32391 15.1121 9.29736 15.0856 9.29736 15.0534C9.29736 15.0213 9.32391 14.9948 9.35606 14.9948Z" fill="#FED700"/>
<path fill-rule="evenodd" clip-rule="evenodd" d="M9.55867 14.2779C9.55308 14.2276 9.5419 14.1773 9.52514 14.1298C9.51116 14.0893 9.49299 14.0515 9.47203 14.0138C9.4343 14.0613 9.40356 14.1144 9.3798 14.1703C9.35325 14.2346 9.33648 14.3045 9.33089 14.3785C9.3239 14.4833 9.34067 14.5882 9.3812 14.6846L9.41474 14.7517C9.41474 14.7349 9.41334 14.7181 9.41474 14.7013C9.41474 14.6259 9.42871 14.5504 9.45386 14.4764C9.47902 14.4037 9.51535 14.3366 9.55867 14.2779Z" fill="#007C29"/>
<path fill-rule="evenodd" clip-rule="evenodd" d="M9.28615 14.7753C9.23444 14.6691 9.15619 14.5797 9.05976 14.514C8.99827 14.4735 8.93259 14.4427 8.86551 14.4245C8.80682 14.4078 8.74533 14.3994 8.68524 14.4008C8.70061 14.4399 8.72018 14.4776 8.74393 14.514C8.77049 14.5559 8.80263 14.595 8.83896 14.63C8.91303 14.63 8.98849 14.6439 9.06116 14.6691C9.13522 14.6943 9.2037 14.732 9.26239 14.7767C9.27637 14.7865 9.28894 14.7977 9.30152 14.8088L9.28475 14.7767L9.28615 14.7753Z" fill="#007C29"/>
<path fill-rule="evenodd" clip-rule="evenodd" d="M8.19335 12.9405C8.25484 12.9405 8.31493 12.9335 8.37362 12.9168C8.33729 12.8692 8.29536 12.8245 8.24645 12.7882C8.19055 12.7463 8.12767 12.7113 8.05779 12.6876C7.98792 12.6638 7.91665 12.6512 7.84678 12.6512C7.78529 12.6512 7.7252 12.6582 7.6665 12.675C7.70284 12.7225 7.74616 12.7672 7.79367 12.8036C7.84957 12.8455 7.91246 12.8804 7.98233 12.9042C8.0522 12.9279 8.12347 12.9405 8.19335 12.9405Z" fill="#007C29"/>
<path fill-rule="evenodd" clip-rule="evenodd" d="M8.20174 12.6051C8.16401 12.5617 8.12069 12.5226 8.07038 12.4891C8.00889 12.4472 7.94321 12.4178 7.87613 12.3996C7.81744 12.3829 7.75595 12.3745 7.69586 12.3759C7.71123 12.415 7.7308 12.4527 7.75456 12.4891C7.78111 12.531 7.81325 12.5701 7.84958 12.6051C7.92365 12.6051 7.99911 12.619 8.07178 12.6442C8.14584 12.6694 8.21432 12.7071 8.27301 12.7518C8.28699 12.7616 8.29957 12.7728 8.31214 12.7839C8.28 12.7183 8.25065 12.6638 8.20035 12.6051H8.20174Z" fill="#007C29"/>
<path fill-rule="evenodd" clip-rule="evenodd" d="M8.36802 12.9698C8.40016 12.9698 8.42671 12.9964 8.42671 13.0285C8.42671 13.0607 8.40016 13.0872 8.36802 13.0872C8.33588 13.0872 8.30933 13.0607 8.30933 13.0285C8.30933 12.9964 8.33588 12.9698 8.36802 12.9698Z" fill="#FED700"/>
<path fill-rule="evenodd" clip-rule="evenodd" d="M8.88926 14.0389C8.9214 14.0389 8.94795 14.0655 8.94795 14.0976C8.94795 14.1298 8.9214 14.1563 8.88926 14.1563C8.85712 14.1563 8.83057 14.1298 8.83057 14.0976C8.83057 14.0655 8.85712 14.0389 8.88926 14.0389Z" fill="#FED700"/>
<path fill-rule="evenodd" clip-rule="evenodd" d="M9.01784 13.9257C9.06675 13.8894 9.11007 13.8461 9.14641 13.7986C9.18833 13.7427 9.22327 13.6798 9.24703 13.6099C9.26799 13.5484 9.28057 13.4855 9.28336 13.4227C9.28336 13.3486 9.28056 13.2913 9.261 13.2186C9.21349 13.255 9.16877 13.2969 9.13243 13.3458C9.09051 13.4017 9.05557 13.4646 9.03182 13.5345C9.00806 13.6043 8.99548 13.6756 8.99548 13.7455C8.99548 13.807 9.00247 13.8671 9.01784 13.9257Z" fill="#007C29"/>
<path fill-rule="evenodd" clip-rule="evenodd" d="M9.10868 13.9299C9.14082 13.9299 9.16737 13.9565 9.16737 13.9886C9.16737 14.0208 9.14082 14.0473 9.10868 14.0473C9.07654 14.0473 9.04999 14.0208 9.04999 13.9886C9.04999 13.9565 9.07654 13.9299 9.10868 13.9299Z" fill="#FED700"/>
<path fill-rule="evenodd" clip-rule="evenodd" d="M9.08355 13.3332C9.04302 13.3891 9.01088 13.452 8.98712 13.5204C8.96197 13.5945 8.94939 13.6714 8.94799 13.7454C8.94799 13.7622 8.94799 13.779 8.94799 13.7957L8.92005 13.7398C8.89629 13.6895 8.87393 13.6266 8.86275 13.5721C8.85157 13.5162 8.84738 13.4575 8.85157 13.3975C8.85716 13.3234 8.87393 13.2535 8.90048 13.1892C8.92424 13.1319 8.95498 13.0802 8.99271 13.0327C9.01368 13.069 9.03184 13.1082 9.04582 13.1487C9.06678 13.2074 9.07936 13.2703 9.08215 13.3332H9.08355Z" fill="#007C29"/>
<path fill-rule="evenodd" clip-rule="evenodd" d="M8.81522 13.8111C8.79006 13.7622 8.75932 13.7147 8.72298 13.6728C8.68525 13.6295 8.64193 13.5903 8.59162 13.5568C8.53013 13.5149 8.46445 13.4855 8.39737 13.4674C8.33868 13.4506 8.27719 13.4436 8.2171 13.4436C8.23247 13.4827 8.25204 13.5205 8.2758 13.5568C8.30235 13.5987 8.33449 13.6379 8.37082 13.6728C8.44489 13.6728 8.52035 13.6868 8.59302 13.7119C8.66708 13.7371 8.73556 13.7748 8.79425 13.8195C8.80823 13.8293 8.82081 13.8405 8.83338 13.8517L8.81801 13.8195V13.8167L8.81522 13.8139V13.8111Z" fill="#007C29"/>
<path fill-rule="evenodd" clip-rule="evenodd" d="M9.57826 15.1932L7.99773 11.9525C7.98655 11.9651 7.98515 11.9665 7.96838 11.9665L9.54192 15.1932C9.5531 15.1932 9.56568 15.1932 9.57826 15.1932Z" fill="#FED700"/>
<path fill-rule="evenodd" clip-rule="evenodd" d="M8.4966 12.8567C8.54411 12.8203 8.58883 12.7784 8.62516 12.7295C8.66709 12.6736 8.70202 12.6107 8.72578 12.5408C8.74954 12.471 8.76211 12.3997 8.76211 12.3298C8.76211 12.2683 8.75513 12.2082 8.73836 12.1495C8.69084 12.1859 8.64612 12.2278 8.60979 12.2767C8.56787 12.3326 8.53293 12.3955 8.50917 12.4654C8.48542 12.5352 8.47284 12.6065 8.47284 12.6764C8.47284 12.7379 8.47983 12.798 8.4966 12.8567Z" fill="#007C29"/>
<path fill-rule="evenodd" clip-rule="evenodd" d="M13.1292 14.3254L13.3514 14.6524L13.3821 14.4749C13.3863 14.4609 13.3989 14.4512 13.4143 14.4567L13.6127 14.5322L13.6491 14.3226C13.6533 14.3086 13.6658 14.2988 13.6812 14.3044L13.8307 14.3617L13.656 14.0836L13.1278 14.3254H13.1292Z" fill="#AF753B"/>
<path fill-rule="evenodd" clip-rule="evenodd" d="M10.829 14.3254L10.6068 14.6524L10.576 14.4749C10.5718 14.4609 10.5593 14.4512 10.5439 14.4567L10.3454 14.5322L10.3091 14.3226C10.3049 14.3086 10.2923 14.2988 10.277 14.3044L10.1274 14.3617L10.3021 14.0836L10.8304 14.3254H10.829Z" fill="#AF753B"/>
<path fill-rule="evenodd" clip-rule="evenodd" d="M11.4438 14.6077C11.2622 14.992 11.0553 15.3623 10.8261 15.7159C10.5956 16.0708 10.3426 16.409 10.0687 16.7276C10.1749 16.7765 10.2797 16.8268 10.3832 16.8799C10.4894 16.9344 10.5956 16.9903 10.7004 17.049C10.8904 16.7779 11.0665 16.4956 11.2272 16.2064C11.3893 15.9129 11.5375 15.6082 11.6688 15.2952C11.6744 15.2826 11.6884 15.2771 11.6996 15.2826C11.7107 15.2868 11.7163 15.2994 11.7135 15.3106C11.6409 15.6516 11.5486 15.9856 11.4396 16.3126C11.3306 16.6382 11.2063 16.9554 11.0637 17.2628C11.2216 17.3593 11.3767 17.4613 11.5277 17.5689C11.6814 17.6765 11.8309 17.7869 11.9749 17.9029C12.1202 17.7883 12.2697 17.6765 12.4234 17.5689C12.5758 17.4627 12.7309 17.3607 12.8874 17.2628C12.7463 16.9554 12.6205 16.6382 12.5115 16.3126C12.4025 15.9856 12.3103 15.6502 12.2376 15.3092C12.2348 15.2966 12.2432 15.284 12.2558 15.2812C12.2669 15.2784 12.2781 15.2854 12.2823 15.2952C12.4137 15.6082 12.5618 15.9129 12.7239 16.2064C12.8846 16.497 13.0607 16.7779 13.2507 17.049C13.3556 16.9903 13.4618 16.9344 13.568 16.8799C13.6714 16.8282 13.7762 16.7765 13.8824 16.7276C13.6085 16.4076 13.3556 16.0694 13.1264 15.7159C12.8972 15.3623 12.6904 14.992 12.5087 14.6077L12.3326 14.6887C12.2655 14.7195 12.2026 14.76 12.1454 14.8061C12.0881 14.8522 12.0364 14.9067 11.9916 14.9654C11.9818 14.978 11.9623 14.978 11.9539 14.9654C11.9092 14.9067 11.8575 14.8522 11.8016 14.8061C11.7443 14.76 11.6814 14.7209 11.6143 14.6887L11.4382 14.6077H11.4438Z" fill="#AF753B"/>
<path fill-rule="evenodd" clip-rule="evenodd" d="M15.196 14.4386V15.0045C15.196 15.1806 15.2464 15.3441 15.333 15.4839C15.4154 15.618 15.5314 15.7284 15.6698 15.8039V13.5288C15.6544 13.5456 15.6362 13.5554 15.6153 13.561C15.6279 13.5889 15.6293 13.6224 15.6153 13.6532C15.5985 13.6867 15.5678 13.7077 15.5328 13.7133C15.5356 13.7286 15.5342 13.7454 15.5272 13.7608L15.196 14.4386Z" fill="#AF753B"/>
<path fill-rule="evenodd" clip-rule="evenodd" d="M14.9193 15.0549C14.9934 15.1359 15.0828 15.203 15.1806 15.2519C15.1597 15.1723 15.1485 15.0898 15.1485 15.0046V14.535L15.1331 14.5658C15.1052 14.6301 15.0898 14.6999 15.0884 14.7698C15.0926 14.8201 15.08 14.8718 15.0591 14.9165C15.0297 14.9766 14.9836 15.0227 14.9333 15.0465C14.9291 15.0493 14.9235 15.0507 14.9193 15.0521V15.0549Z" fill="#AF753B"/>
<path fill-rule="evenodd" clip-rule="evenodd" d="M11.339 9.39376C11.4355 9.29873 11.5123 9.18414 11.5654 9.05836C11.578 9.02902 11.5892 8.99827 11.599 8.96753C11.5487 9.05417 11.4816 9.13383 11.3991 9.20091C11.2957 9.28615 11.1686 9.35323 11.0288 9.39376H11.339Z" fill="#AF753B"/>
<path fill-rule="evenodd" clip-rule="evenodd" d="M12.3871 9.39372C12.3242 9.36578 12.2683 9.32665 12.2208 9.27913C12.1719 9.23022 12.1328 9.17153 12.1048 9.10864C12.0545 9.15755 12.0196 9.21904 12.0028 9.28752C11.9972 9.31127 11.9623 9.31127 11.9567 9.28752C11.9399 9.22044 11.905 9.15755 11.8547 9.11004C11.8267 9.17432 11.7876 9.23162 11.7387 9.28053C11.6912 9.32804 11.6339 9.36717 11.5724 9.39512H12.3885L12.3871 9.39372Z" fill="#AF753B"/>
<path fill-rule="evenodd" clip-rule="evenodd" d="M12.9308 9.39376C12.7896 9.35183 12.6638 9.28615 12.5604 9.20091C12.478 9.13383 12.4109 9.05417 12.3606 8.96753C12.3704 8.99827 12.3816 9.02902 12.3941 9.05836C12.4472 9.18414 12.5255 9.29873 12.6205 9.39376H12.9308Z" fill="#AF753B"/>
<path fill-rule="evenodd" clip-rule="evenodd" d="M11.8407 7.00824C11.8463 7.02362 11.8505 7.03899 11.8505 7.05576C11.8505 7.12284 11.796 7.17873 11.7275 7.17873C11.659 7.17873 11.6045 7.12423 11.6045 7.05576C11.6045 7.01523 11.6241 6.98029 11.6534 6.95794L11.3642 6.87968L11.6884 7.44146C11.6954 7.45264 11.6912 7.46661 11.68 7.4736C11.6688 7.48059 11.6548 7.47639 11.6479 7.46521L11.5458 7.28913C11.4997 7.29193 11.4592 7.31289 11.4285 7.34224C11.3949 7.37578 11.3739 7.42189 11.3739 7.4722C11.3739 7.50295 11.3809 7.53089 11.3935 7.55745C11.4536 7.68601 11.4871 7.82995 11.4871 7.98227V8.37776C11.4871 8.62371 11.4061 8.8515 11.2691 9.03596C11.1601 9.18269 11.0148 9.30287 10.8471 9.38113C11.0497 9.35458 11.2314 9.27493 11.3698 9.16173C11.5402 9.02199 11.6465 8.82914 11.6465 8.61672V8.07451C11.6465 8.06193 11.6576 8.05075 11.6702 8.05075C11.6828 8.05075 11.694 8.06193 11.694 8.07451V8.65445C11.694 8.80398 11.6632 8.94652 11.6087 9.07509C11.5598 9.19108 11.4913 9.29729 11.4075 9.38812C11.5221 9.37415 11.6255 9.32104 11.7051 9.24418C11.796 9.15335 11.8533 9.02618 11.8533 8.88783V8.07451C11.8533 8.06193 11.8645 8.05075 11.877 8.05075C11.8896 8.05075 11.9008 8.06193 11.9008 8.07451V8.88783C11.9008 8.94792 11.891 9.00522 11.8728 9.05832C11.919 9.09885 11.9553 9.14915 11.9791 9.20505C12.0028 9.14915 12.0391 9.09885 12.0853 9.05832C12.0671 9.00522 12.0587 8.94652 12.0587 8.88783V8.07451C12.0587 8.06193 12.0699 8.05075 12.0825 8.05075C12.095 8.05075 12.1062 8.06193 12.1062 8.07451V8.88783C12.1062 9.02618 12.1635 9.15195 12.2544 9.24418C12.3326 9.32244 12.436 9.37554 12.552 9.38812C12.4682 9.29589 12.3997 9.19108 12.3508 9.07509C12.2963 8.94513 12.2655 8.80258 12.2655 8.65445V8.07451C12.2655 8.06193 12.2767 8.05075 12.2893 8.05075C12.3019 8.05075 12.313 8.06193 12.313 8.07451V8.61393C12.313 8.82774 12.4193 9.02199 12.5897 9.16313C12.7281 9.27632 12.9098 9.35598 13.111 9.38253C12.9433 9.30427 12.798 9.18409 12.689 9.03736C12.552 8.85289 12.471 8.62511 12.471 8.37915V8.07451C12.471 8.07451 12.4738 8.06333 12.4765 8.05913C12.5255 8.00044 12.5646 7.93197 12.5911 7.8593C12.6163 7.78803 12.6317 7.71117 12.6317 7.63151C12.6317 7.58679 12.6275 7.54207 12.6177 7.49736C12.6149 7.48059 12.6289 7.46661 12.6456 7.46941C12.6973 7.48059 12.7477 7.50015 12.7938 7.5253C12.7658 7.43866 12.7155 7.3618 12.647 7.30311C12.6331 7.29053 12.6387 7.26677 12.6568 7.26258C12.7057 7.24721 12.7574 7.24022 12.8077 7.24022C12.763 7.18432 12.7071 7.13821 12.6442 7.10607C12.6247 7.09628 12.6289 7.06694 12.6498 7.06274C12.7169 7.04598 12.7798 7.01523 12.8343 6.97331L11.6674 6.66028C11.5961 6.64071 11.5221 6.65329 11.462 6.68683C11.4089 6.71757 11.3656 6.76648 11.3432 6.82797L12.1356 7.04039C12.1873 7.05436 12.232 7.07951 12.2683 7.11445C12.3061 7.14939 12.3354 7.19271 12.3522 7.24162C12.3564 7.2542 12.3508 7.26677 12.3382 7.27236C12.3256 7.27656 12.313 7.27097 12.3075 7.25839C12.2921 7.21647 12.2683 7.18013 12.2362 7.14939C12.2054 7.12004 12.1663 7.09908 12.123 7.0865L11.8379 7.00964L11.8407 7.00824Z" fill="#AF753B"/>
<path fill-rule="evenodd" clip-rule="evenodd" d="M14.1549 8.28693L14.3911 8.5231L14.6272 8.28693V8.18072C14.6272 8.15836 14.6189 8.1374 14.6035 8.12342C14.5895 8.10945 14.5685 8.09967 14.5462 8.09967C14.5336 8.09967 14.5224 8.08849 14.5224 8.07591C14.5224 8.06333 14.5336 8.05215 14.5462 8.05215C14.5811 8.05215 14.6133 8.06613 14.637 8.08988C14.6608 8.11364 14.6748 8.14578 14.6748 8.18072V8.28693L14.9109 8.5231L15.1471 8.28693V8.0256C15.1471 8.00324 15.1387 7.98228 15.1233 7.96831C15.108 7.95293 15.0884 7.94455 15.066 7.94455C15.0535 7.94455 15.0423 7.93337 15.0423 7.92079C15.0423 7.90822 15.0535 7.89704 15.066 7.89704C15.101 7.89704 15.1331 7.91101 15.1569 7.93477C15.1806 7.95852 15.1946 7.99067 15.1946 8.0256V8.28693L15.4308 8.5231L15.6502 8.3037C15.639 8.2464 15.6222 8.1905 15.5999 8.1374C15.5552 8.027 15.4895 7.92918 15.4084 7.84533L14.9095 7.34644L14.1521 8.10386V8.28553L14.1549 8.28693Z" fill="#AF753B"/>
<path fill-rule="evenodd" clip-rule="evenodd" d="M13.4436 8.92553L13.6099 9.09183L13.8531 8.84867C13.8628 8.83889 13.8768 8.83889 13.8866 8.84867L14.106 9.06808V8.62927C13.9998 8.63346 13.8964 8.66281 13.8055 8.71591L13.4436 8.92553Z" fill="#AF753B"/>
<path fill-rule="evenodd" clip-rule="evenodd" d="M13.5861 9.39373V9.1352L13.4003 8.94934L12.9321 9.21905C13.0313 9.29591 13.1445 9.3546 13.2661 9.39234H13.5847L13.5861 9.39373Z" fill="#AF753B"/>
<path fill-rule="evenodd" clip-rule="evenodd" d="M13.895 8.92273V9.39367H14.1074V9.13514L13.895 8.92273Z" fill="#AF753B"/>
<path fill-rule="evenodd" clip-rule="evenodd" d="M13.8475 9.39367V8.92273L13.6337 9.13514V9.39367H13.8475Z" fill="#AF753B"/>
<path fill-rule="evenodd" clip-rule="evenodd" d="M14.4149 8.56642V8.85569L14.6273 9.06811V8.354L14.4149 8.56642Z" fill="#AF753B"/>
<path fill-rule="evenodd" clip-rule="evenodd" d="M14.3673 8.85569V8.56642L14.1549 8.354V9.06811L14.3673 8.85569Z" fill="#AF753B"/>
<path fill-rule="evenodd" clip-rule="evenodd" d="M14.3673 9.39367V8.92273L14.1549 9.13514V9.39367H14.3673Z" fill="#AF753B"/>
<path fill-rule="evenodd" clip-rule="evenodd" d="M15.4559 8.92273V9.77378L15.6683 9.56137V9.13514L15.4559 8.92273Z" fill="#AF753B"/>
<path fill-rule="evenodd" clip-rule="evenodd" d="M15.456 8.56646V8.85573L15.6684 9.06814V8.48261C15.6684 8.44208 15.6656 8.40156 15.66 8.36243L15.4546 8.56785L15.456 8.56646Z" fill="#AF753B"/>
<path fill-rule="evenodd" clip-rule="evenodd" d="M15.4085 8.85569V8.56642L15.196 8.354V9.06811L15.4085 8.85569Z" fill="#AF753B"/>
<path fill-rule="evenodd" clip-rule="evenodd" d="M15.196 9.56137L15.4085 9.77378V8.92273L15.196 9.13514V9.56137Z" fill="#AF753B"/>
<path fill-rule="evenodd" clip-rule="evenodd" d="M14.9361 8.92273V9.77378L15.1485 9.56137V9.13514L14.9361 8.92273Z" fill="#AF753B"/>
<path fill-rule="evenodd" clip-rule="evenodd" d="M14.9361 8.56642V8.85569L15.1485 9.06811V8.354L14.9361 8.56642Z" fill="#AF753B"/>
<path fill-rule="evenodd" clip-rule="evenodd" d="M14.8886 8.85569V8.56642L14.6748 8.354V9.06811L14.8886 8.85569Z" fill="#AF753B"/>
<path fill-rule="evenodd" clip-rule="evenodd" d="M14.6748 9.56137L14.8886 9.77378V8.92273L14.6748 9.13514V9.56137Z" fill="#AF753B"/>
<path fill-rule="evenodd" clip-rule="evenodd" d="M14.4149 9.77378L14.6273 9.56137V9.13514L14.4149 8.92273V9.77378Z" fill="#AF753B"/>
<path fill-rule="evenodd" clip-rule="evenodd" d="M14.2178 9.62436L14.3673 9.77389V9.45667C14.3058 9.49999 14.2555 9.55728 14.2178 9.62296V9.62436Z" fill="#AF753B"/>
<path fill-rule="evenodd" clip-rule="evenodd" d="M14.6272 9.62713L14.4078 9.84653C14.3981 9.85631 14.3841 9.85631 14.3743 9.84653L14.1954 9.66766C14.1689 9.72914 14.1535 9.79762 14.1535 9.86749V13.4925C14.1535 13.6686 14.2038 13.8335 14.2905 13.9732C14.3729 14.1074 14.4889 14.2178 14.6272 14.2933V9.62573V9.62713Z" fill="#AF753B"/>
<path fill-rule="evenodd" clip-rule="evenodd" d="M15.1485 9.62713L14.9291 9.84653C14.9193 9.85631 14.9053 9.85631 14.8955 9.84653L14.6761 9.62713V14.4344C14.6761 14.5294 14.6901 14.6231 14.7195 14.7139C14.7404 14.6804 14.767 14.651 14.8005 14.63C14.855 14.5867 14.9011 14.5308 14.9347 14.4693L15.1499 14.0291V9.62573L15.1485 9.62713Z" fill="#AF753B"/>
<path fill-rule="evenodd" clip-rule="evenodd" d="M15.6684 9.62708L15.449 9.84648C15.4392 9.85626 15.4252 9.85626 15.4154 9.84648L15.196 9.62708V13.9327L15.3274 13.6643C15.3358 13.649 15.3484 13.6364 15.3623 13.6294C15.3456 13.6001 15.3428 13.5623 15.3582 13.5288C15.3735 13.498 15.4001 13.4785 15.4308 13.4715C15.4182 13.4435 15.4168 13.41 15.4308 13.3793C15.4462 13.3485 15.4727 13.329 15.5035 13.322C15.4909 13.294 15.4895 13.2605 15.5035 13.2297C15.5203 13.1962 15.551 13.1752 15.5859 13.171C15.5831 13.1557 15.5845 13.1389 15.5915 13.1221L15.6684 12.9642V9.62847V9.62708Z" fill="#AF753B"/>
<path fill-rule="evenodd" clip-rule="evenodd" d="M8.61256 12.8175C8.65868 12.8287 8.69361 12.8706 8.69361 12.9209C8.69361 12.9796 8.6461 13.0271 8.5888 13.0271C8.58321 13.0271 8.57902 13.0271 8.57483 13.0271L8.76488 13.4156V12.58C8.73973 12.6456 8.70619 12.7057 8.66566 12.7588C8.64889 12.7798 8.63212 12.7994 8.61396 12.8189L8.61256 12.8175Z" fill="#AF753B"/>
<path fill-rule="evenodd" clip-rule="evenodd" d="M8.77747 15.2518C8.83476 15.2225 8.88926 15.1876 8.93817 15.1484C8.99128 15.1065 9.03879 15.0576 9.08211 15.0045C9.03879 14.9975 8.99687 14.9877 8.95494 14.9737C8.90324 14.9556 8.85433 14.9332 8.80961 14.9053V15.0045C8.80961 15.0897 8.79843 15.1736 8.77747 15.2518Z" fill="#AF753B"/>
<path fill-rule="evenodd" clip-rule="evenodd" d="M8.76354 14.0543C8.74677 14.0543 8.7314 14.0557 8.71463 14.0543C8.63917 14.0543 8.5637 14.0403 8.48964 14.0151C8.41557 13.99 8.34989 13.9537 8.2912 13.9089V15.8025C8.42815 15.7256 8.54554 15.6152 8.62799 15.4825C8.71463 15.3427 8.76494 15.1792 8.76494 15.0031V14.8704L8.75516 14.8634C8.69367 14.8159 8.64056 14.76 8.59864 14.6971C8.58886 14.6831 8.59724 14.665 8.61261 14.6608C8.66572 14.644 8.72022 14.6328 8.77612 14.6286C8.74957 14.5993 8.72581 14.5685 8.70485 14.5364C8.6741 14.4889 8.64895 14.4372 8.63078 14.3827C8.62519 14.3673 8.63637 14.3519 8.65174 14.3519C8.68947 14.3505 8.72721 14.3519 8.76494 14.3547V14.0515L8.76354 14.0543Z" fill="#AF753B"/>
<path fill-rule="evenodd" clip-rule="evenodd" d="M8.98013 14.1493C8.96196 14.1814 8.92842 14.2024 8.88929 14.2024C8.85855 14.2024 8.8306 14.1884 8.81104 14.1675V14.3645C8.83339 14.3687 8.85575 14.3729 8.87811 14.3799C8.95078 14.3994 9.02065 14.4316 9.08633 14.4763C9.11848 14.4973 9.14782 14.521 9.17438 14.5462L8.98153 14.1507L8.98013 14.1493Z" fill="#AF753B"/>
<path fill-rule="evenodd" clip-rule="evenodd" d="M9.13245 13.8866C9.17857 13.8977 9.2135 13.9397 9.2135 13.9886C9.2135 14.0473 9.16599 14.0948 9.1073 14.0948C9.1031 14.0948 9.09752 14.0948 9.09332 14.0948L9.28478 14.4889C9.28338 14.4707 9.28198 14.4497 9.28198 14.4302V13.6504C9.25683 13.7147 9.22329 13.7748 9.18276 13.8279C9.16739 13.8488 9.14922 13.8684 9.13105 13.888L9.13245 13.8866Z" fill="#AF753B"/>
<path fill-rule="evenodd" clip-rule="evenodd" d="M8.28979 13.3988C8.33032 13.403 8.37085 13.41 8.40998 13.4212C8.48264 13.4407 8.55252 13.4729 8.6182 13.5176C8.65034 13.5386 8.67969 13.5623 8.70624 13.5875L8.45889 13.0802C8.44072 13.1109 8.40718 13.1333 8.36805 13.1333C8.33731 13.1333 8.30936 13.1193 8.28979 13.0984V13.3988Z" fill="#AF753B"/>
<path fill-rule="evenodd" clip-rule="evenodd" d="M8.30796 13.6741C8.30796 13.6741 8.29538 13.6601 8.28979 13.6545V13.6769C8.28979 13.6769 8.30097 13.6769 8.30796 13.6755V13.6741Z" fill="#AF753B"/>
<path fill-rule="evenodd" clip-rule="evenodd" d="M9.85211 9.06813L10.0715 8.84873C10.0813 8.83895 10.0953 8.83895 10.1051 8.84873L10.3482 9.09189L10.5145 8.92559L10.1526 8.71597C10.1051 8.68802 10.0519 8.66566 9.99745 8.65029C9.95133 8.63771 9.90242 8.63072 9.85211 8.62793V9.06673V9.06813Z" fill="#AF753B"/>
<path fill-rule="evenodd" clip-rule="evenodd" d="M8.76354 9.62708L8.54414 9.84648C8.53436 9.85626 8.52038 9.85626 8.5106 9.84648L8.2912 9.62708V12.2068C8.29958 12.1635 8.31356 12.1215 8.33033 12.0824C8.35967 12.0111 8.4002 11.9455 8.45051 11.8882C8.46169 11.877 8.47986 11.877 8.48824 11.891C8.53016 11.9552 8.56091 12.0251 8.58047 12.1006C8.59026 12.1383 8.59724 12.1788 8.60004 12.2194C8.64196 12.1705 8.68948 12.1285 8.74258 12.0922C8.74957 12.088 8.75795 12.0866 8.76494 12.0908V9.62847L8.76354 9.62708Z" fill="#AF753B"/>
<path fill-rule="evenodd" clip-rule="evenodd" d="M9.28338 9.62708L9.06398 9.84648C9.05419 9.85626 9.04022 9.85626 9.03044 9.84648L8.81104 9.62708V13.3569C8.81942 13.2912 8.83619 13.2297 8.85995 13.171C8.88929 13.0998 8.92982 13.0341 8.98013 12.9768C8.98991 12.9642 9.00947 12.9656 9.01786 12.9782C9.0486 13.0257 9.07376 13.0774 9.09332 13.1319C9.11009 13.1794 9.12127 13.2283 9.12686 13.2786C9.16739 13.2325 9.21211 13.1934 9.26242 13.1599C9.2694 13.1557 9.27779 13.1543 9.28477 13.1571V9.62708H9.28338Z" fill="#AF753B"/>
<path fill-rule="evenodd" clip-rule="evenodd" d="M9.76269 9.66907L9.58381 9.84794C9.57403 9.85772 9.56006 9.85772 9.55027 9.84794L9.33087 9.62854V14.1717C9.33087 14.1717 9.33506 14.1605 9.33786 14.1549C9.36721 14.0836 9.40773 14.018 9.45804 13.9607C9.46782 13.9481 9.48739 13.9495 9.49577 13.9635C9.52512 14.0082 9.54888 14.0571 9.56844 14.1088C9.63971 14.0305 9.69701 13.9411 9.73753 13.8419C9.78085 13.7357 9.80601 13.6197 9.80601 13.4967V9.8703C9.80601 9.79903 9.79064 9.73195 9.76409 9.67046L9.76269 9.66907Z" fill="#AF753B"/>
<path fill-rule="evenodd" clip-rule="evenodd" d="M8.30657 8.30376L8.52597 8.52317L8.76214 8.28699V8.02567C8.76214 7.99073 8.77611 7.95859 8.79987 7.93483C8.82363 7.91108 8.85577 7.8971 8.89071 7.8971C8.90328 7.8971 8.91446 7.90828 8.91446 7.92086C8.91446 7.93344 8.90328 7.94462 8.89071 7.94462C8.86835 7.94462 8.84878 7.9544 8.83341 7.96837C8.81804 7.98235 8.80965 8.00331 8.80965 8.02567V8.28699L9.04582 8.52317L9.28199 8.28699V8.18079C9.28199 8.14585 9.29597 8.11371 9.31973 8.08995C9.34348 8.0662 9.37562 8.05222 9.41056 8.05222C9.42314 8.05222 9.43432 8.0634 9.43432 8.07598C9.43432 8.08855 9.42314 8.09973 9.41056 8.09973C9.3882 8.09973 9.36724 8.10952 9.35327 8.12349C9.33789 8.13886 9.32951 8.15843 9.32951 8.18079V8.28699L9.56568 8.52317L9.80185 8.28699V8.10532L9.04443 7.3479L8.54553 7.84679C8.46448 7.93064 8.3988 8.02846 8.35408 8.13886C8.33312 8.19197 8.31635 8.24787 8.30377 8.30516L8.30657 8.30376Z" fill="#AF753B"/>
<path fill-rule="evenodd" clip-rule="evenodd" d="M9.02344 8.85569V8.56642L8.80963 8.354V9.06811L9.02344 8.85569Z" fill="#AF753B"/>
<path fill-rule="evenodd" clip-rule="evenodd" d="M9.02344 9.77378V8.92273L8.80963 9.13514V9.56137L9.02344 9.77378Z" fill="#AF753B"/>
<path fill-rule="evenodd" clip-rule="evenodd" d="M9.07098 8.92273V9.77378L9.2834 9.56137V9.13514L9.07098 8.92273Z" fill="#AF753B"/>
<path fill-rule="evenodd" clip-rule="evenodd" d="M9.07098 8.56642V8.85569L9.2834 9.06811V8.354L9.07098 8.56642Z" fill="#AF753B"/>
<path fill-rule="evenodd" clip-rule="evenodd" d="M8.5022 8.85566V8.56639L8.29678 8.36096C8.29119 8.40009 8.28839 8.44062 8.28839 8.48114V9.06668L8.50081 8.85427L8.5022 8.85566Z" fill="#AF753B"/>
<path fill-rule="evenodd" clip-rule="evenodd" d="M8.50221 9.77378V8.92273L8.28979 9.13514V9.56137L8.50221 9.77378Z" fill="#AF753B"/>
<path fill-rule="evenodd" clip-rule="evenodd" d="M8.54968 8.92273V9.77378L8.76349 9.56137V9.13514L8.54968 8.92273Z" fill="#AF753B"/>
<path fill-rule="evenodd" clip-rule="evenodd" d="M8.54968 8.56642V8.85569L8.76349 9.06811V8.354L8.54968 8.56642Z" fill="#AF753B"/>
<path fill-rule="evenodd" clip-rule="evenodd" d="M9.59082 9.45667V9.77389L9.74035 9.62436C9.70401 9.55728 9.65231 9.49999 9.59082 9.45667Z" fill="#AF753B"/>
<path fill-rule="evenodd" clip-rule="evenodd" d="M9.59082 8.92273V9.39367H9.80463V9.13514L9.59082 8.92273Z" fill="#AF753B"/>
<path fill-rule="evenodd" clip-rule="evenodd" d="M9.59082 8.56642V8.85569L9.80463 9.06811V8.354L9.59082 8.56642Z" fill="#AF753B"/>
<path fill-rule="evenodd" clip-rule="evenodd" d="M9.54329 8.85569V8.56642L9.33087 8.354V9.06811L9.54329 8.85569Z" fill="#AF753B"/>
<path fill-rule="evenodd" clip-rule="evenodd" d="M9.54329 9.77378V8.92273L9.33087 9.13514V9.56137L9.54329 9.77378Z" fill="#AF753B"/>
<path fill-rule="evenodd" clip-rule="evenodd" d="M10.0645 9.39367V8.92273L9.85211 9.13514V9.39367H10.0645Z" fill="#AF753B"/>
<path fill-rule="evenodd" clip-rule="evenodd" d="M10.372 9.13515V9.39368H10.6906C10.8122 9.35595 10.9254 9.29725 11.0246 9.22039L10.5565 8.95068L10.3706 9.13655L10.372 9.13515Z" fill="#AF753B"/>
<path fill-rule="evenodd" clip-rule="evenodd" d="M10.3245 9.39367V9.13514L10.1121 8.92273V9.39367H10.3245Z" fill="#AF753B"/>
<path fill-rule="evenodd" clip-rule="evenodd" d="M10.938 11.8225C10.8723 11.7946 10.8094 11.7625 10.7493 11.7275C10.6808 11.6856 10.6166 11.6381 10.5607 11.5878C10.5048 11.6395 10.4419 11.6856 10.372 11.7275C10.3133 11.7638 10.2504 11.7946 10.1833 11.8225C10.2504 11.8505 10.3119 11.8826 10.372 11.9176C10.4405 11.9595 10.5048 12.007 10.5607 12.0573C10.6166 12.0056 10.6794 11.9595 10.7493 11.9176C10.808 11.8826 10.8709 11.8505 10.938 11.8225Z" fill="#FED700"/>
<path fill-rule="evenodd" clip-rule="evenodd" d="M11.6395 13.7607C11.6884 13.7607 11.7289 13.8013 11.7289 13.8502C11.7289 13.8991 11.6884 13.9396 11.6395 13.9396H11.5011C11.4522 13.9396 11.4117 13.8991 11.4117 13.8502C11.4117 13.8013 11.4522 13.7607 11.5011 13.7607H11.6395Z" fill="black"/>
<path fill-rule="evenodd" clip-rule="evenodd" d="M11.6395 13.8922C11.6633 13.8922 11.6814 13.874 11.6814 13.8503C11.6814 13.8265 11.6633 13.8083 11.6395 13.8083H11.5012C11.4774 13.8083 11.4592 13.8265 11.4592 13.8503C11.4592 13.874 11.4774 13.8922 11.5012 13.8922H11.6395Z" fill="black"/>
<path fill-rule="evenodd" clip-rule="evenodd" d="M12.4458 13.7607C12.4947 13.7607 12.5352 13.8013 12.5352 13.8502C12.5352 13.8991 12.4947 13.9396 12.4458 13.9396H12.3075C12.2585 13.9396 12.218 13.8991 12.218 13.8502C12.218 13.8013 12.2585 13.7607 12.3075 13.7607H12.4458Z" fill="black"/>
<path fill-rule="evenodd" clip-rule="evenodd" d="M12.4458 13.8922C12.4696 13.8922 12.4878 13.874 12.4878 13.8503C12.4878 13.8265 12.4696 13.8083 12.4458 13.8083H12.3075C12.2837 13.8083 12.2656 13.8265 12.2656 13.8503C12.2656 13.874 12.2837 13.8922 12.3075 13.8922H12.4458Z" fill="black"/>
</g>
</g>
<rect x="0.25" y="0.25" width="23.5" height="23.5" rx="11.75" stroke="#E5E3E1" stroke-width="0.5"/>
<defs>
<clipPath id="clip0_16335_5666">
<rect width="24" height="24" rx="12" fill="white"/>
</clipPath>
</defs>
</svg>
