<svg width="24" height="24" viewBox="0 0 24 24" fill="none" xmlns="http://www.w3.org/2000/svg">
<path fill-rule="evenodd" clip-rule="evenodd" d="M19.499 11.3568C20.1313 12.1651 20.1313 13.1654 19.652 14.0359C19.2174 14.6168 18.608 14.8851 17.9757 14.6883C17.6282 14.6658 17.3675 14.3396 17.1485 14.0584C17.0401 13.7756 17.018 13.4707 17.0401 13.1216C17.214 13.1216 17.3944 13.5824 17.8154 13.3915C18.142 13.1465 18.0741 12.615 17.8572 12.235C17.721 12.0161 17.1357 11.9626 16.7139 12.0984C16.5399 12.1651 16.4307 12.294 16.3648 12.4688L16.3218 17.387C16.0824 18.7581 15.2769 20.0436 14.1027 20.8916C13.6439 21.1748 13.2093 21.458 12.73 21.6324C12.1202 21.8489 11.5144 21.9722 10.8628 21.9883C10.521 22.0265 10.1823 21.961 9.79105 21.9369C9.3335 21.8059 8.83295 21.7621 8.44248 21.4793C9.35639 21.6103 10.5644 21.458 10.9183 21.3757C11.4899 21.2138 11.6526 21.158 12.0881 20.9121C12.9317 20.3971 14.2369 19.5527 14.4064 17.6269L14.449 11.9895C14.537 11.1407 15.2552 10.5751 16.0181 10.3148C17.2361 10.0308 18.7598 10.1187 19.499 11.3568ZM20.7624 4.69995C20.893 6.15618 19.6091 7.41999 18.4336 8.07198C17.0839 8.54962 15.4292 8.26882 14.363 9.52941C14.1971 9.66319 14.0894 9.81021 14.0477 9.96367L13.8617 10.6627L13.8187 17.6269C13.6938 19.0634 12.442 20.2055 11.1191 20.696C9.94451 21.0439 8.83657 21.1439 7.51733 20.5859C7.2317 20.4642 7.09552 20.383 6.85329 20.2605C6.26557 19.868 5.91768 19.347 5.5477 18.8011L5.50271 18.6046C6.4821 19.5414 7.67922 19.76 8.92093 19.5214C10.0526 19.3908 11.1898 18.5749 11.5116 17.387C11.6799 16.8339 11.7723 16.255 11.7514 15.7552C11.7723 13.9262 11.6639 11.9241 11.8157 9.94318C11.9901 9.15983 12.6216 8.57292 13.0779 7.91973C14.363 6.72341 16.1262 6.31004 17.78 6.19997C18.0199 6.16863 18.2914 6.14051 18.5642 6.05856C19.4351 5.86212 20.1092 5.59217 20.6752 4.69995H20.7624ZM21.4586 2C21.5024 3.2626 20.3928 4.17651 19.4572 4.89438C19.1953 5.13421 18.0741 5.65082 17.1919 5.72192C15.8646 5.7862 14.4273 6.13449 13.3394 6.89775C12.5778 7.48547 11.9113 8.15473 11.5028 9.02526C11.2445 9.58284 11.1625 10.14 11.1625 10.7289C11.0762 12.6648 11.1625 14.7538 11.0762 16.7346C11.0103 16.9958 10.8805 17.1926 10.7708 17.4312C10.0964 18.4114 9.17723 18.9537 7.85517 18.9537C6.63355 18.9405 4.98047 18.0177 4.65428 16.496L4.69806 10.2272C4.65428 9.87851 4.32848 9.61739 4.02278 9.52941H3L3.01326 9.24781H5.39505C5.48101 8.9429 5.67665 8.66009 5.82971 8.37648C6.67974 7.59313 8.11508 8.57292 8.61643 7.24564H8.63852C8.74578 7.59313 8.66062 7.98521 8.42039 8.22383C7.91945 8.66009 7.30964 8.85653 6.67974 8.85653C6.53794 8.87501 6.38769 8.88867 6.06953 8.89871C5.87269 8.96419 5.98236 9.20282 5.93817 9.29079C6.32985 9.35627 6.74362 9.55311 6.87538 9.94318C6.8095 11.8586 7.02723 13.6004 7.00554 15.8203C7.04129 16.2076 7.20318 16.4655 7.82906 16.453C8.25127 16.4374 8.57344 16.2482 8.57344 15.7982C8.57344 15.6004 8.5944 14.3867 8.61782 13.092L8.63202 12.3129C8.65726 10.9372 8.68111 9.68207 8.68111 9.68207C8.85505 8.83444 9.16317 8.06193 9.7083 7.36576C9.91077 7.06527 10.0341 6.90217 10.2486 6.59205C12.2078 4.26449 15.0375 3.30559 17.9757 3.32768C18.7269 3.31081 19.2447 3.14771 19.9786 2.89222C20.5105 2.68533 21.0231 2.41377 21.4586 2Z" fill="#ED1B23"/>
</svg>
