<svg width="48" height="48" viewBox="0 0 48 48" fill="none" xmlns="http://www.w3.org/2000/svg">
<path d="M32.3589 21.2598H30.1589C29.8662 21.2598 29.6289 21.4971 29.6289 21.7898V23.9898C29.6289 24.2825 29.8662 24.5198 30.1589 24.5198H32.3589C32.6516 24.5198 32.8889 24.2825 32.8889 23.9898V21.7898C32.8889 21.4971 32.6516 21.2598 32.3589 21.2598Z" fill="#323232"/>
<path d="M25.0894 21.2598H22.8894C22.5967 21.2598 22.3594 21.4971 22.3594 21.7898V23.9898C22.3594 24.2825 22.5967 24.5198 22.8894 24.5198H25.0894C25.3821 24.5198 25.6194 24.2825 25.6194 23.9898V21.7898C25.6194 21.4971 25.3821 21.2598 25.0894 21.2598Z" fill="#323232"/>
<path d="M17.8198 21.2598H15.6198C15.3271 21.2598 15.0898 21.4971 15.0898 21.7898V23.9898C15.0898 24.2825 15.3271 24.5198 15.6198 24.5198H17.8198C18.1126 24.5198 18.3498 24.2825 18.3498 23.9898V21.7898C18.3498 21.4971 18.1126 21.2598 17.8198 21.2598Z" fill="#323232"/>
<path d="M32.3589 28.4902H30.1589C29.8662 28.4902 29.6289 28.7275 29.6289 29.0202V31.2202C29.6289 31.5129 29.8662 31.7502 30.1589 31.7502H32.3589C32.6516 31.7502 32.8889 31.5129 32.8889 31.2202V29.0202C32.8889 28.7275 32.6516 28.4902 32.3589 28.4902Z" fill="#323232"/>
<path d="M25.0894 28.4902H22.8894C22.5967 28.4902 22.3594 28.7275 22.3594 29.0202V31.2202C22.3594 31.5129 22.5967 31.7502 22.8894 31.7502H25.0894C25.3821 31.7502 25.6194 31.5129 25.6194 31.2202V29.0202C25.6194 28.7275 25.3821 28.4902 25.0894 28.4902Z" fill="#323232"/>
<path d="M17.8198 28.4902H15.6198C15.3271 28.4902 15.0898 28.7275 15.0898 29.0202V31.2202C15.0898 31.5129 15.3271 31.7502 15.6198 31.7502H17.8198C18.1126 31.7502 18.3498 31.5129 18.3498 31.2202V29.0202C18.3498 28.7275 18.1126 28.4902 17.8198 28.4902Z" fill="#323232"/>
<path d="M32.3589 35.7197H30.1589C29.8662 35.7197 29.6289 35.957 29.6289 36.2497V38.4497C29.6289 38.7424 29.8662 38.9797 30.1589 38.9797H32.3589C32.6516 38.9797 32.8889 38.7424 32.8889 38.4497V36.2497C32.8889 35.957 32.6516 35.7197 32.3589 35.7197Z" fill="#323232"/>
<path d="M25.0894 35.7197H22.8894C22.5967 35.7197 22.3594 35.957 22.3594 36.2497V38.4497C22.3594 38.7424 22.5967 38.9797 22.8894 38.9797H25.0894C25.3821 38.9797 25.6194 38.7424 25.6194 38.4497V36.2497C25.6194 35.957 25.3821 35.7197 25.0894 35.7197Z" fill="#323232"/>
<path d="M17.8198 35.7197H15.6198C15.3271 35.7197 15.0898 35.957 15.0898 36.2497V38.4497C15.0898 38.7424 15.3271 38.9797 15.6198 38.9797H17.8198C18.1126 38.9797 18.3498 38.7424 18.3498 38.4497V36.2497C18.3498 35.957 18.1126 35.7197 17.8198 35.7197Z" fill="#323232"/>
<path d="M32.3609 8.16016H15.6309C15.2609 8.16016 14.9609 8.46013 14.9609 8.83016V15.6202C14.9609 15.9902 15.2609 16.2902 15.6309 16.2902H32.3609C32.731 16.2902 33.0309 15.9902 33.0309 15.6202V8.83016C33.0309 8.46013 32.731 8.16016 32.3609 8.16016Z" fill="#8DE2E0"/>
<path d="M34.6106 45.25H13.3906C11.1806 45.25 9.39062 43.46 9.39062 41.25V6.75C9.39062 4.54 11.1806 2.75 13.3906 2.75H34.6106C36.8206 2.75 38.6106 4.54 38.6106 6.75V41.25C38.6106 43.46 36.8206 45.25 34.6106 45.25ZM13.3906 4.75C12.2906 4.75 11.3906 5.65 11.3906 6.75V41.25C11.3906 42.35 12.2906 43.25 13.3906 43.25H34.6106C35.7106 43.25 36.6106 42.35 36.6106 41.25V6.75C36.6106 5.65 35.7106 4.75 34.6106 4.75H13.3906Z" fill="#323232"/>
</svg>
