<svg width="24" height="24" viewBox="0 0 24 24" fill="none" xmlns="http://www.w3.org/2000/svg">
<g clip-path="url(#clip0_16335_7242)">
<path d="M23.4854 15.4795C25.4064 9.13657 21.8218 2.43731 15.479 0.516245C9.13609 -1.40483 2.43683 2.17976 0.515759 8.52264C-1.40531 14.8655 2.17928 21.5648 8.52216 23.4859C14.865 25.4069 21.5643 21.8223 23.4854 15.4795Z" fill="white"/>
<mask id="mask0_16335_7242" style="mask-type:luminance" maskUnits="userSpaceOnUse" x="-1" y="-1" width="26" height="26">
<path d="M23.4854 15.4795C25.4064 9.13657 21.8218 2.43731 15.479 0.516245C9.13609 -1.40483 2.43683 2.17976 0.515759 8.52264C-1.40531 14.8655 2.17928 21.5648 8.52216 23.4859C14.865 25.4069 21.5643 21.8223 23.4854 15.4795Z" fill="white"/>
</mask>
<g mask="url(#mask0_16335_7242)">
<path d="M17.9993 0H5.99927V24H17.9993V0Z" fill="#FED700"/>
<path d="M5.99927 0H-6.00073V24H5.99927V0Z" fill="#FF0000"/>
<path d="M29.9993 0H17.9993V24H29.9993V0Z" fill="#007C29"/>
</g>
</g>
<rect x="0.25" y="0.25" width="23.5" height="23.5" rx="11.75" stroke="#E5E3E1" stroke-width="0.5"/>
<defs>
<clipPath id="clip0_16335_7242">
<rect width="24" height="24" rx="12" fill="white"/>
</clipPath>
</defs>
</svg>
