<svg width="24" height="24" viewBox="0 0 24 24" fill="none" xmlns="http://www.w3.org/2000/svg">
<path d="M24 12C24 18.6274 18.6274 24 12 24C5.37258 24 0 18.6274 0 12C0 5.37258 5.37258 0 12 0C18.6274 0 24 5.37258 24 12Z" fill="#F3F2F1"/>
<path fill-rule="evenodd" clip-rule="evenodd" d="M10 17H11L13.5 13H16.25C16.665 13 17 12.665 17 12.25C17 11.835 16.665 11.5 16.25 11.5H13.5L11 7.5H10L11.25 11.5H8.5L7.75 10.5H7L7.5 12.25L7 14H7.75L8.5 13H11.25L10 17Z" fill="#323232"/>
<path fill-rule="evenodd" clip-rule="evenodd" d="M23.9888 12.524L20.9915 12.3952C20.9972 12.2643 21 12.1326 21 12C21 11.8674 20.9972 11.7357 20.9915 11.6048L23.9888 11.476C23.9962 11.6498 24 11.8244 24 12C24 12.1756 23.9962 12.3502 23.9888 12.524ZM23.7179 9.4016L20.7885 10.0483C20.7318 9.79175 20.6642 9.53943 20.5862 9.29179L23.4476 8.39043C23.5519 8.72152 23.6423 9.05881 23.7179 9.4016ZM22.6463 6.45788L19.9864 7.84535C19.8652 7.61288 19.734 7.38622 19.5933 7.16594L22.122 5.55167C22.3095 5.84529 22.4845 6.1476 22.6463 6.45788ZM20.8474 3.89292L18.6361 5.92027C18.4588 5.72686 18.2731 5.5412 18.0797 5.36387L20.1071 3.15258C20.3644 3.38853 20.6115 3.63556 20.8474 3.89292ZM18.4483 1.87799L16.8341 4.40665C16.6138 4.26603 16.3871 4.13482 16.1546 4.01355L17.5421 1.35368C17.8524 1.51553 18.1547 1.69055 18.4483 1.87799ZM15.6096 0.552372L14.7082 3.41376C14.4606 3.33575 14.2083 3.26818 13.9517 3.21155L14.5984 0.282075C14.9412 0.357746 15.2785 0.448076 15.6096 0.552372ZM12.524 0.0112333C12.3502 0.00376996 12.1756 0 12 0C11.8244 0 11.6498 0.00376997 11.476 0.0112334L11.6048 3.00847C11.7357 3.00285 11.8674 3 12 3C12.1326 3 12.2643 3.00285 12.3952 3.00847L12.524 0.0112333ZM9.4016 0.282075L10.0483 3.21155C9.79175 3.26818 9.53943 3.33575 9.29179 3.41376L8.39043 0.552373C8.72152 0.448076 9.05881 0.357747 9.4016 0.282075ZM6.45788 1.35368L7.84535 4.01355C7.61288 4.13482 7.38622 4.26603 7.16594 4.40665L5.55167 1.87799C5.84529 1.69055 6.1476 1.51553 6.45788 1.35368ZM3.89292 3.15258L5.92027 5.36388C5.72686 5.5412 5.5412 5.72686 5.36387 5.92027L3.15258 3.89292C3.38853 3.63556 3.63556 3.38853 3.89292 3.15258ZM1.87799 5.55167L4.40665 7.16594C4.26603 7.38622 4.13482 7.61288 4.01355 7.84535L1.35368 6.45788C1.51553 6.1476 1.69055 5.84529 1.87799 5.55167ZM0.552372 8.39043L3.41376 9.29179C3.33575 9.53943 3.26818 9.79175 3.21155 10.0483L0.282075 9.4016C0.357746 9.05881 0.448076 8.72152 0.552372 8.39043ZM0.0112333 11.476C0.00376996 11.6498 0 11.8244 0 12C0 12.1756 0.00376997 12.3502 0.0112334 12.524L3.00847 12.3952C3.00285 12.2643 3 12.1326 3 12C3 11.8674 3.00285 11.7357 3.00847 11.6048L0.0112333 11.476ZM0.282075 14.5984L3.21155 13.9517C3.26818 14.2083 3.33575 14.4606 3.41376 14.7082L0.552373 15.6096C0.448076 15.2785 0.357747 14.9412 0.282075 14.5984ZM1.35368 17.5421L4.01355 16.1546C4.13482 16.3871 4.26603 16.6138 4.40665 16.8341L1.87799 18.4483C1.69055 18.1547 1.51553 17.8524 1.35368 17.5421ZM3.15258 20.1071L5.36388 18.0797C5.5412 18.2731 5.72686 18.4588 5.92027 18.6361L3.89292 20.8474C3.63556 20.6115 3.38853 20.3644 3.15258 20.1071ZM5.55167 22.122L7.16594 19.5933C7.38622 19.734 7.61288 19.8652 7.84535 19.9864L6.45788 22.6463C6.1476 22.4845 5.84529 22.3095 5.55167 22.122ZM8.39043 23.4476L9.29179 20.5862C9.53943 20.6642 9.79175 20.7318 10.0483 20.7885L9.4016 23.7179C9.05881 23.6423 8.72152 23.5519 8.39043 23.4476ZM11.476 23.9888C11.6498 23.9962 11.8244 24 12 24C12.1756 24 12.3502 23.9962 12.524 23.9888L12.3952 20.9915C12.2643 20.9972 12.1326 21 12 21C11.8674 21 11.7357 20.9972 11.6048 20.9915L11.476 23.9888ZM14.5984 23.7179L13.9517 20.7885C14.2083 20.7318 14.4606 20.6642 14.7082 20.5862L15.6096 23.4476C15.2785 23.5519 14.9412 23.6423 14.5984 23.7179ZM17.5421 22.6463L16.1546 19.9864C16.3871 19.8652 16.6138 19.734 16.8341 19.5933L18.4483 22.122C18.1547 22.3095 17.8524 22.4845 17.5421 22.6463ZM20.1071 20.8474L18.0797 18.6361C18.2731 18.4588 18.4588 18.2731 18.6361 18.0797L20.8474 20.1071C20.6115 20.3644 20.3644 20.6115 20.1071 20.8474ZM22.122 18.4483L19.5933 16.8341C19.734 16.6138 19.8652 16.3871 19.9864 16.1546L22.6463 17.5421C22.4845 17.8524 22.3095 18.1547 22.122 18.4483ZM23.4476 15.6096C23.5519 15.2785 23.6423 14.9412 23.7179 14.5984L20.7885 13.9517C20.7318 14.2083 20.6642 14.4606 20.5862 14.7082L23.4476 15.6096Z" fill="#7F7E7D"/>
</svg>
