<svg width="48" height="48" viewBox="0 0 48 48" fill="none" xmlns="http://www.w3.org/2000/svg">
<path d="M11.4902 32.3701H17.5502V42.8501C17.5502 44.2701 16.4002 45.4201 14.9802 45.4201H14.0702C12.6502 45.4201 11.5002 44.2701 11.5002 42.8501V32.3701H11.4902Z" fill="#8DE2E0"/>
<path d="M17.54 29.4299H11.5C10.8096 29.4299 10.25 29.9896 10.25 30.6799V31.1199C10.25 31.8103 10.8096 32.3699 11.5 32.3699H17.54C18.2304 32.3699 18.79 31.8103 18.79 31.1199V30.6799C18.79 29.9896 18.2304 29.4299 17.54 29.4299Z" fill="#8DE2E0"/>
<path d="M17.5402 28.4301H17.3102V10.3401L18.1302 7.71007C18.1902 7.53007 18.1902 7.34007 18.1402 7.16007L16.8802 2.32007C16.7702 1.88007 16.3702 1.57007 15.9102 1.57007H13.1202C12.6602 1.57007 12.2702 1.88007 12.1502 2.32007L10.8902 7.16007C10.8402 7.34007 10.8502 7.53007 10.9002 7.71007L11.7202 10.3401V28.4301H11.4902C10.2502 28.4301 9.24023 29.4401 9.24023 30.6801V31.1201C9.24023 32.0001 9.75023 32.7501 10.4802 33.1201V42.8501C10.4802 44.8201 12.0802 46.4201 14.0502 46.4201H14.9602C16.9302 46.4201 18.5302 44.8201 18.5302 42.8501V33.1201C19.2602 32.7501 19.7702 32.0001 19.7702 31.1201V30.6801C19.7702 29.4401 18.7602 28.4301 17.5202 28.4301H17.5402ZM13.6802 9.89007L12.9002 7.39007L13.9002 3.58007H15.1502L16.1502 7.39007L15.3702 9.89007C15.3402 9.99007 15.3202 10.0901 15.3202 10.1901V28.4301H13.7402V10.1901C13.7402 10.0901 13.7202 9.99007 13.6902 9.89007H13.6802ZM11.2502 30.6801C11.2502 30.5401 11.3602 30.4301 11.5002 30.4301H17.5402C17.6802 30.4301 17.7902 30.5401 17.7902 30.6801V31.1201C17.7902 31.2601 17.6802 31.3701 17.5402 31.3701H11.5002C11.3602 31.3701 11.2502 31.2601 11.2502 31.1201V30.6801ZM16.5502 42.8501C16.5502 43.7201 15.8402 44.4201 14.9802 44.4201H14.0702C13.2002 44.4201 12.5002 43.7101 12.5002 42.8501V33.3701H16.5602V42.8501H16.5502Z" fill="#323232"/>
<path d="M34.9694 32.28V15.7C37.2894 14.36 38.7494 11.85 38.7494 9.15003C38.7494 5.95003 36.7194 3.09003 33.6994 2.02003C33.3894 1.91003 33.0494 1.96003 32.7894 2.15003C32.5294 2.34003 32.3694 2.64003 32.3694 2.97003V8.82003L31.1794 9.43003L29.9894 8.82003V2.96003C29.9894 2.64003 29.8294 2.33003 29.5694 2.14003C29.2994 1.95003 28.9594 1.91003 28.6594 2.01003C25.6394 3.08003 23.6094 5.94003 23.6094 9.14003C23.6094 11.84 25.0794 14.35 27.3894 15.69V32.28C25.0694 33.62 23.6094 36.13 23.6094 38.83C23.6094 42.03 25.6394 44.89 28.6594 45.96C28.7694 46 28.8794 46.02 28.9894 46.02C29.1894 46.02 29.3994 45.96 29.5694 45.84C29.8294 45.65 29.9894 45.35 29.9894 45.02V39.17L31.1794 38.56L32.3694 39.17V45.02C32.3694 45.34 32.5294 45.65 32.7894 45.84C33.0594 46.03 33.3894 46.07 33.6994 45.97C36.7194 44.9 38.7494 42.04 38.7494 38.84C38.7494 36.14 37.2794 33.63 34.9694 32.29V32.28ZM34.3694 43.39V38.55C34.3694 38.17 34.1594 37.83 33.8194 37.66L31.6294 36.54C31.3394 36.39 31.0094 36.39 30.7194 36.54L28.5294 37.66C28.1994 37.83 27.9794 38.17 27.9794 38.55V43.39C26.5094 42.37 25.5994 40.67 25.5994 38.83C25.5994 36.68 26.8594 34.71 28.8094 33.79C28.9094 33.74 28.9894 33.68 29.0594 33.61C29.0594 33.61 29.0794 33.6 29.0894 33.59C29.1294 33.55 29.1494 33.51 29.1794 33.47C29.2094 33.43 29.2394 33.39 29.2594 33.35C29.2794 33.32 29.2994 33.29 29.3094 33.26C29.3094 33.24 29.3194 33.22 29.3294 33.19C29.3294 33.16 29.3494 33.13 29.3494 33.1C29.3494 33.09 29.3494 33.08 29.3494 33.06C29.3594 33.03 29.3494 32.99 29.3594 32.95C29.3594 32.92 29.3694 32.9 29.3694 32.87V15.09C29.3694 14.7 29.1494 14.35 28.7894 14.18C26.8394 13.26 25.5794 11.29 25.5794 9.14003C25.5794 7.30003 26.4994 5.61003 27.9594 4.58003V9.42003C27.9594 9.80003 28.1694 10.14 28.5094 10.31L30.6994 11.43C30.9894 11.58 31.3194 11.58 31.6094 11.43L33.7994 10.31C34.1294 10.14 34.3494 9.80003 34.3494 9.42003V4.58003C35.8194 5.60003 36.7294 7.30003 36.7294 9.14003C36.7294 11.29 35.4694 13.26 33.5194 14.18C33.1694 14.35 32.9394 14.7 32.9394 15.09V32.89C32.9394 32.89 32.9494 32.96 32.9594 33C32.9594 33.03 32.9594 33.05 32.9594 33.08C32.9594 33.08 32.9594 33.1 32.9594 33.11C32.9594 33.15 32.9794 33.18 32.9894 33.22C32.9894 33.24 32.9894 33.26 33.0094 33.28C33.0394 33.33 33.0594 33.38 33.0894 33.43C33.0894 33.43 33.0894 33.43 33.0894 33.44C33.1294 33.5 33.1694 33.55 33.2194 33.6C33.2194 33.6 33.2394 33.6 33.2394 33.62C33.3194 33.69 33.3994 33.75 33.4994 33.8C35.4494 34.72 36.7094 36.69 36.7094 38.84C36.7094 40.68 35.7894 42.37 34.3294 43.4L34.3694 43.39Z" fill="#323232"/>
</svg>
