<svg width="48" height="48" viewBox="0 0 48 48" fill="none" xmlns="http://www.w3.org/2000/svg">
<path d="M24 9.78973C23.45 9.78973 23 9.33973 23 8.78973V2.71973C23 2.16973 23.45 1.71973 24 1.71973C24.55 1.71973 25 2.16973 25 2.71973V8.78973C25 9.33973 24.55 9.78973 24 9.78973Z" fill="#323232"/>
<path d="M45.2497 24.9697H39.1797C38.6297 24.9697 38.1797 24.5197 38.1797 23.9697C38.1797 23.4197 38.6297 22.9697 39.1797 22.9697H45.2497C45.7997 22.9697 46.2497 23.4197 46.2497 23.9697C46.2497 24.5197 45.7997 24.9697 45.2497 24.9697Z" fill="#323232"/>
<path d="M8.82 24.9697H2.75C2.2 24.9697 1.75 24.5197 1.75 23.9697C1.75 23.4197 2.2 22.9697 2.75 22.9697H8.82C9.37 22.9697 9.82 23.4197 9.82 23.9697C9.82 24.5197 9.37 24.9697 8.82 24.9697Z" fill="#323232"/>
<path d="M34.3202 14.6497C34.0602 14.6497 33.8102 14.5497 33.6102 14.3597C33.2202 13.9697 33.2202 13.3397 33.6102 12.9497L37.8602 8.69973C38.2502 8.30973 38.8802 8.30973 39.2702 8.69973C39.6602 9.08973 39.6602 9.71973 39.2702 10.1097L35.0202 14.3597C34.8202 14.5597 34.5702 14.6497 34.3102 14.6497H34.3202ZM13.6802 14.6497C13.4202 14.6497 13.1702 14.5497 12.9702 14.3597L8.72023 10.1097C8.33023 9.71973 8.33023 9.08973 8.72023 8.69973C9.11023 8.30973 9.74023 8.30973 10.1302 8.69973L14.3802 12.9497C14.7702 13.3397 14.7702 13.9697 14.3802 14.3597C14.1802 14.5597 13.9302 14.6497 13.6702 14.6497H13.6802Z" fill="#323232"/>
<path d="M24.0001 34.1702C18.4101 34.1702 13.8701 29.6302 13.8701 24.0402C13.8701 18.4502 18.4101 13.9102 24.0001 13.9102C29.5901 13.9102 34.1301 18.4502 34.1301 24.0402C34.1301 29.6302 29.5901 34.1702 24.0001 34.1702ZM24.0001 15.9102C19.5201 15.9102 15.8701 19.5602 15.8701 24.0402C15.8701 28.5202 19.5201 32.1702 24.0001 32.1702C28.4801 32.1702 32.1301 28.5202 32.1301 24.0402C32.1301 19.5602 28.4801 15.9102 24.0001 15.9102Z" fill="#323232"/>
<path d="M24 46.2204C23.45 46.2204 23 45.7704 23 45.2204V39.1504C23 38.6004 23.45 38.1504 24 38.1504C24.55 38.1504 25 38.6004 25 39.1504V45.2204C25 45.7704 24.55 46.2204 24 46.2204Z" fill="#323232"/>
<path d="M38.5702 39.5404C38.3102 39.5404 38.0602 39.4404 37.8602 39.2504L33.6102 35.0004C33.2202 34.6104 33.2202 33.9804 33.6102 33.5904C34.0002 33.2004 34.6302 33.2004 35.0202 33.5904L39.2702 37.8404C39.6602 38.2304 39.6602 38.8604 39.2702 39.2504C39.0702 39.4504 38.8202 39.5404 38.5602 39.5404H38.5702ZM9.43023 39.5404C9.17023 39.5404 8.92023 39.4404 8.72023 39.2504C8.33023 38.8604 8.33023 38.2304 8.72023 37.8404L12.9702 33.5904C13.3602 33.2004 13.9902 33.2004 14.3802 33.5904C14.7702 33.9804 14.7702 34.6104 14.3802 35.0004L10.1302 39.2504C9.93023 39.4504 9.68023 39.5404 9.42023 39.5404H9.43023Z" fill="#323232"/>
</svg>
