<svg width="48" height="48" viewBox="0 0 48 48" fill="none" xmlns="http://www.w3.org/2000/svg">
<path d="M6.55078 20.19V20.95C6.55078 21.5 7.00078 21.95 7.55078 21.95H16.6908C17.2408 21.95 17.6908 21.5 17.6908 20.95V20.18C17.6708 18.13 16.5308 16.33 14.8608 15.37C15.4308 14.72 15.7908 13.89 15.7908 12.96C15.7908 10.94 14.1508 9.29004 12.1208 9.29004C10.0908 9.29004 8.45078 10.93 8.45078 12.96C8.45078 13.89 8.81078 14.73 9.38078 15.37C7.71078 16.33 6.57078 18.14 6.55078 20.19ZM12.1208 11.29C13.0408 11.29 13.7908 12.04 13.7908 12.96C13.7908 13.88 13.0408 14.63 12.1208 14.63C11.2008 14.63 10.4508 13.88 10.4508 12.96C10.4508 12.04 11.2008 11.29 12.1208 11.29ZM12.1208 16.62C13.9908 16.64 15.5408 18.11 15.6808 19.95H8.56078C8.70078 18.11 10.2508 16.64 12.1208 16.62Z" fill="#323232"/>
<path d="M26.9195 10.1899H20.2695C19.7195 10.1899 19.2695 10.6399 19.2695 11.1899C19.2695 11.7399 19.7195 12.1899 20.2695 12.1899H26.9195C27.4695 12.1899 27.9195 11.7399 27.9195 11.1899C27.9195 10.6399 27.4695 10.1899 26.9195 10.1899Z" fill="#323232"/>
<path d="M27.9195 15.6201C27.9195 15.0701 27.4695 14.6201 26.9195 14.6201H20.2695C19.7195 14.6201 19.2695 15.0701 19.2695 15.6201C19.2695 16.1701 19.7195 16.6201 20.2695 16.6201H26.9195C27.4695 16.6201 27.9195 16.1701 27.9195 15.6201Z" fill="#323232"/>
<path d="M20.2695 19.0601C19.7195 19.0601 19.2695 19.5101 19.2695 20.0601C19.2695 20.6101 19.7195 21.0601 20.2695 21.0601H22.5195C23.0695 21.0601 23.5195 20.6101 23.5195 20.0601C23.5195 19.5101 23.0695 19.0601 22.5195 19.0601H20.2695Z" fill="#323232"/>
<path d="M44.8903 41.53L37.3703 34.01C38.6403 32.43 39.4003 30.43 39.4003 28.26C39.4003 23.19 35.2703 19.06 30.2003 19.06C26.6803 19.06 23.6203 21.05 22.0803 23.96H7.55031C7.00031 23.96 6.55031 24.41 6.55031 24.96V35.46C6.55031 36.01 7.00031 36.46 7.55031 36.46H26.0703C27.1603 37.01 28.3703 37.35 29.6603 37.42V38.22C29.6603 38.31 29.5903 38.39 29.4903 38.39H4.99031C4.90031 38.39 4.82031 38.32 4.82031 38.22V7.87996C4.82031 7.78996 4.89031 7.70996 4.99031 7.70996H29.5003C29.5903 7.70996 29.6703 7.77996 29.6703 7.87996V16.67C29.6703 17.22 30.1203 17.67 30.6703 17.67C31.2203 17.67 31.6703 17.22 31.6703 16.67V7.87996C31.6703 6.68996 30.7003 5.70996 29.5003 5.70996H4.99031C3.80031 5.70996 2.82031 6.67996 2.82031 7.87996V38.23C2.82031 39.42 3.79031 40.4 4.99031 40.4H29.5003C30.6903 40.4 31.6703 39.43 31.6703 38.23V37.34C33.2803 37.08 34.7503 36.41 35.9703 35.43L43.4903 42.95C43.6903 43.15 43.9403 43.24 44.2003 43.24C44.4603 43.24 44.7103 43.14 44.9103 42.95C45.3003 42.56 45.3003 41.93 44.9103 41.54L44.8903 41.53ZM8.55031 25.96H21.3003C21.1103 26.7 21.0003 27.46 21.0003 28.26C21.0003 30.65 21.9303 32.83 23.4303 34.47H8.55031V25.97V25.96ZM30.2003 35.45C26.2303 35.45 23.0003 32.22 23.0003 28.25C23.0003 24.28 26.2303 21.05 30.2003 21.05C34.1703 21.05 37.4003 24.28 37.4003 28.25C37.4003 32.22 34.1703 35.45 30.2003 35.45Z" fill="#323232"/>
<path d="M35.5998 28.2502C35.5998 26.3102 34.5598 24.6102 33.0098 23.6602C33.2798 24.4502 33.4298 25.2902 33.4298 26.1702C33.4298 29.4502 31.3798 32.2202 28.5098 33.3502C29.0498 33.5302 29.6098 33.6502 30.2098 33.6502C33.1898 33.6502 35.6098 31.2302 35.6098 28.2502H35.5998Z" fill="#8DE2E0"/>
</svg>
