<svg width="24" height="24" viewBox="0 0 24 24" fill="none" xmlns="http://www.w3.org/2000/svg">
<path fill-rule="evenodd" clip-rule="evenodd" d="M7.47875 2.18262H16.4241C16.6519 2.18262 16.8708 2.27076 17.0351 2.42858L22.5342 7.71254C22.6747 7.84751 22.7614 8.01893 22.7923 8.19887L22.7926 8.20031C22.8387 8.46818 22.7587 8.72859 22.5956 8.92079L12.8106 21.7131C12.8025 21.7236 12.7942 21.734 12.7858 21.744C12.728 21.8143 12.6609 21.8727 12.5877 21.9193C12.3618 22.065 12.0821 22.0969 11.8325 22.0147C11.6496 21.9568 11.4837 21.8393 11.37 21.6624L1.3906 8.89137C1.11418 8.53762 1.14764 8.03268 1.46832 7.7185L6.86162 2.43455C7.02645 2.27306 7.24801 2.18262 7.47875 2.18262ZM14.5785 16.498L19.8543 9.60058L16.6724 10.148L14.5785 16.498ZM14.7754 10.2687H9.44931L12.1079 18.3555L14.7754 10.2687ZM7.55584 10.1562L9.69049 16.6476L4.09924 9.49305L7.55584 10.1562ZM20.0558 7.77627L17.0832 4.92002L16.8509 8.32748L20.0558 7.77627ZM15.3819 3.94548L15.2128 6.4295L13.6866 3.94548H15.3819ZM10.5365 3.94548L8.83144 6.72325L8.53227 3.94548H10.5365ZM4.02315 7.68268L6.86137 4.90218L7.22693 8.29748L4.02315 7.68268ZM14.4179 8.50448L12.1109 4.75048L9.80593 8.50448H14.4179Z" fill="#323232"/>
</svg>
