<svg width="48" height="48" viewBox="0 0 48 48" fill="none" xmlns="http://www.w3.org/2000/svg">
<path d="M39.62 23.9697L24 39.5897L24.83 40.4197C29.14 44.7297 36.14 44.7297 40.45 40.4197C44.76 36.1097 44.76 29.1097 40.45 24.7997L39.62 23.9697Z" fill="#8DE2E0"/>
<path d="M8.38086 23.9696L24.0009 8.34961L23.1709 7.51961C18.8609 3.20961 11.8609 3.20961 7.55086 7.51961C3.24086 11.8296 3.24086 18.8296 7.55086 23.1396L8.38086 23.9696Z" fill="#8DE2E0"/>
<path d="M26.8492 11.61C26.3992 12.06 26.3992 12.78 26.8492 13.23C27.0692 13.45 27.3692 13.56 27.6592 13.56C27.9492 13.56 28.2492 13.45 28.4692 13.23C28.9192 12.78 28.9192 12.06 28.4692 11.61C28.0192 11.16 27.2992 11.16 26.8492 11.61Z" fill="#323232"/>
<path d="M30.799 15.55C30.579 15.77 30.459 16.05 30.459 16.36C30.459 16.67 30.579 16.95 30.799 17.17C31.019 17.39 31.319 17.51 31.609 17.51C31.899 17.51 32.199 17.4 32.419 17.17C32.869 16.72 32.869 16 32.419 15.55C31.989 15.12 31.229 15.12 30.799 15.55Z" fill="#323232"/>
<path d="M34.7404 19.5002C34.5204 19.7202 34.4004 20.0002 34.4004 20.3102C34.4004 20.6202 34.5204 20.9002 34.7404 21.1202C34.9604 21.3402 35.2604 21.4602 35.5504 21.4602C35.8404 21.4602 36.1404 21.3502 36.3604 21.1202C36.8104 20.6702 36.8104 19.9502 36.3604 19.5002C35.9304 19.0702 35.1704 19.0702 34.7404 19.5002Z" fill="#323232"/>
<path d="M32.2691 10.1301C31.8191 10.5801 31.8191 11.3001 32.2691 11.7501C32.4891 11.9701 32.7891 12.0801 33.0791 12.0801C33.3691 12.0801 33.6691 11.9701 33.8891 11.7501C34.3391 11.3001 34.3391 10.5801 33.8891 10.1301C33.4591 9.70012 32.6991 9.70012 32.2691 10.1301Z" fill="#323232"/>
<path d="M37.8389 14.0803C37.4089 13.6503 36.6489 13.6503 36.2189 14.0803C35.9989 14.3003 35.8789 14.5803 35.8789 14.8903C35.8789 15.2003 35.9989 15.4803 36.2189 15.7003C36.4389 15.9203 36.7389 16.0403 37.0289 16.0403C37.3189 16.0403 37.6189 15.9303 37.8389 15.7003C38.2889 15.2503 38.2889 14.5303 37.8389 14.0803Z" fill="#323232"/>
<path d="M19.5289 34.7203C19.0789 35.1703 19.0789 35.8903 19.5289 36.3403C19.7489 36.5603 20.0489 36.6803 20.3389 36.6803C20.6289 36.6803 20.9289 36.5703 21.1489 36.3403C21.3689 36.1203 21.4889 35.8403 21.4889 35.5303C21.4889 35.2203 21.3689 34.9403 21.1489 34.7203C20.6989 34.2703 19.9789 34.2703 19.5289 34.7203Z" fill="#323232"/>
<path d="M15.5797 30.7701C15.1297 31.2201 15.1297 31.9401 15.5797 32.3901C15.7997 32.6101 16.0997 32.7301 16.3897 32.7301C16.6797 32.7301 16.9797 32.6201 17.1997 32.3901C17.6497 31.9401 17.6497 31.2201 17.1997 30.7701C16.7497 30.3201 16.0297 30.3201 15.5797 30.7701Z" fill="#323232"/>
<path d="M11.6402 26.8297C11.1902 27.2797 11.1902 27.9997 11.6402 28.4497C11.8602 28.6697 12.1602 28.7897 12.4502 28.7897C12.7402 28.7897 13.0402 28.6797 13.2602 28.4497C13.7102 27.9997 13.7102 27.2797 13.2602 26.8297C12.8102 26.3797 12.0902 26.3797 11.6402 26.8297Z" fill="#323232"/>
<path d="M14.0992 36.19C13.6492 36.64 13.6492 37.36 14.0992 37.81C14.3192 38.03 14.6192 38.15 14.9092 38.15C15.1992 38.15 15.4992 38.04 15.7192 37.81C16.1692 37.36 16.1692 36.64 15.7192 36.19C15.2692 35.74 14.5492 35.74 14.0992 36.19Z" fill="#323232"/>
<path d="M10.1598 32.2506C9.70977 32.7006 9.70977 33.4206 10.1598 33.8706C10.3798 34.0906 10.6798 34.2106 10.9698 34.2106C11.2598 34.2106 11.5598 34.1006 11.7798 33.8706C11.9998 33.6406 12.1198 33.3706 12.1198 33.0606C12.1198 32.7506 11.9998 32.4706 11.7798 32.2506C11.3298 31.8006 10.6098 31.8006 10.1598 32.2506Z" fill="#323232"/>
<path d="M32.8549 23.517L24.4616 15.1237C24.2077 14.8698 23.7962 14.8698 23.5423 15.1237L15.149 23.517C14.8951 23.7709 14.8951 24.1824 15.149 24.4363L23.5423 32.8296C23.7962 33.0835 24.2077 33.0835 24.4616 32.8296L32.8549 24.4363C33.1088 24.1824 33.1088 23.7709 32.8549 23.517Z" fill="#DF0000"/>
<path d="M27.9318 25.5195H21.4918C21.1318 25.5195 20.8418 25.2295 20.8418 24.8695V22.0895C20.8418 21.7295 21.1318 21.4395 21.4918 21.4395C21.8518 21.4395 22.1418 21.7295 22.1418 22.0895V24.2195H27.9318C28.2918 24.2195 28.5818 24.5095 28.5818 24.8695C28.5818 25.2295 28.2918 25.5195 27.9318 25.5195Z" fill="white"/>
<path d="M15.3605 44.6499C12.2705 44.6499 9.19055 43.4799 6.84055 41.1299C4.49055 38.7799 3.31055 35.8299 3.31055 32.6099C3.31055 29.3899 4.56055 26.3699 6.84055 24.0899L24.1205 6.81992C28.8205 2.11992 36.4605 2.11992 41.1605 6.81992C43.4405 9.09992 44.6905 12.1199 44.6905 15.3399C44.6905 18.5599 43.4405 21.5799 41.1605 23.8599L23.8805 41.1399C21.5305 43.4899 18.4505 44.6599 15.3605 44.6599V44.6499ZM32.6405 5.28992C30.0705 5.28992 27.4905 6.26992 25.5305 8.22992L8.26055 25.5099C6.36055 27.4099 5.32055 29.9299 5.32055 32.6099C5.32055 35.2899 6.37055 37.8199 8.26055 39.7099C12.1805 43.6299 18.5505 43.6299 22.4705 39.7099L39.7505 22.4299C41.6505 20.5299 42.6905 18.0099 42.6905 15.3299C42.6905 12.6499 41.6405 10.1199 39.7505 8.22992C37.7905 6.26992 35.2205 5.28992 32.6505 5.28992H32.6405Z" fill="#323232"/>
</svg>
