<svg width="24" height="24" viewBox="0 0 24 24" fill="none" xmlns="http://www.w3.org/2000/svg">
<g clip-path="url(#clip0_10496_10028)">
<path d="M14 11.4V13.675C14 13.9583 14.096 14.1917 14.288 14.375C14.4793 14.5583 14.7167 14.65 15 14.65C15.2833 14.65 15.521 14.554 15.713 14.362C15.9043 14.1707 16 13.9333 16 13.65V9C16 8.71667 15.9043 8.479 15.713 8.287C15.521 8.09567 15.2833 8 15 8H10.325C10.0417 8 9.80833 8.09567 9.625 8.287C9.44167 8.479 9.35 8.71667 9.35 9C9.35 9.28333 9.446 9.52067 9.638 9.712C9.82933 9.904 10.0667 10 10.35 10H12.575L8.175 14.4C7.99167 14.5833 7.90433 14.8167 7.913 15.1C7.921 15.3833 8.01667 15.6167 8.2 15.8C8.4 16 8.63333 16.1 8.9 16.1C9.16667 16.1 9.4 16 9.6 15.8L14 11.4ZM12 22C10.6167 22 9.31667 21.7373 8.1 21.212C6.88333 20.6873 5.825 19.975 4.925 19.075C4.025 18.175 3.31267 17.1167 2.788 15.9C2.26267 14.6833 2 13.3833 2 12C2 10.6167 2.26267 9.31667 2.788 8.1C3.31267 6.88333 4.025 5.825 4.925 4.925C5.825 4.025 6.88333 3.31233 8.1 2.787C9.31667 2.26233 10.6167 2 12 2C13.3833 2 14.6833 2.26233 15.9 2.787C17.1167 3.31233 18.175 4.025 19.075 4.925C19.975 5.825 20.6873 6.88333 21.212 8.1C21.7373 9.31667 22 10.6167 22 12C22 13.3833 21.7373 14.6833 21.212 15.9C20.6873 17.1167 19.975 18.175 19.075 19.075C18.175 19.975 17.1167 20.6873 15.9 21.212C14.6833 21.7373 13.3833 22 12 22ZM12 20C14.2167 20 16.1043 19.221 17.663 17.663C19.221 16.1043 20 14.2167 20 12C20 9.78333 19.221 7.89567 17.663 6.337C16.1043 4.779 14.2167 4 12 4C9.78333 4 7.896 4.779 6.338 6.337C4.77933 7.89567 4 9.78333 4 12C4 14.2167 4.77933 16.1043 6.338 17.663C7.896 19.221 9.78333 20 12 20Z" fill="#323232"/>
</g>
<defs>
<clipPath id="clip0_10496_10028">
<rect width="24" height="24" fill="white"/>
</clipPath>
</defs>
</svg>
