<svg width="48" height="48" viewBox="0 0 48 48" fill="none" xmlns="http://www.w3.org/2000/svg">
<path d="M32.2297 25.6599C31.6797 25.6599 31.2297 25.2199 31.2297 24.6699C31.2297 24.1199 31.6697 23.6699 32.2197 23.6599C34.5497 23.6499 36.2897 22.9999 37.5997 22.0799V19.1199C37.5997 18.4599 37.0597 17.9199 36.3997 17.9199H12.6297C11.9697 17.9199 11.4297 18.4599 11.4297 19.1199V22.2099C12.7397 23.1199 14.4797 23.7799 16.8097 23.7899C17.3597 23.7899 17.8097 24.2399 17.8097 24.7899C17.8097 25.3399 17.3597 25.7899 16.8097 25.7899C14.6197 25.7799 12.8597 25.2799 11.4397 24.5299V27.1999C11.4397 27.8599 11.9797 28.3999 12.6397 28.3999H36.4197C37.0797 28.3999 37.6197 27.8599 37.6197 27.1999V24.3999C36.1897 25.1399 34.4397 25.6399 32.2497 25.6599H32.2297Z" fill="#8DE2E0"/>
<path d="M8.05051 11.9898C8.83051 12.4098 9.68051 12.6198 10.5405 12.6198C11.0605 12.6198 11.5805 12.5398 12.0905 12.3898C13.4505 11.9798 14.5605 11.0598 15.2305 9.80979C16.6105 7.22979 15.6305 4.00979 13.0505 2.62979C11.8005 1.95979 10.3605 1.81979 9.01051 2.22979C7.65051 2.63979 6.54051 3.55979 5.87051 4.80979C5.20051 6.05978 5.06051 7.49979 5.47051 8.84979C5.88051 10.2098 6.80051 11.3198 8.05051 11.9898ZM7.64051 5.74979C8.06051 4.96979 8.75051 4.39979 9.60051 4.13979C9.92051 4.03979 10.2405 3.99979 10.5705 3.99979C11.1105 3.99979 11.6405 4.12979 12.1205 4.38979C13.7305 5.24978 14.3405 7.25979 13.4805 8.86979C12.6205 10.4798 10.6105 11.0898 9.00051 10.2298C8.22051 9.80978 7.65051 9.11979 7.39051 8.26979C7.13051 7.41979 7.22051 6.52979 7.64051 5.74979Z" fill="#323232"/>
<path d="M12.13 31.5897C11.81 31.5297 11.49 31.4597 11.21 31.3897C7.39995 30.3497 7.42995 25.3697 7.42995 25.1397V20.8297C8.97995 23.2597 11.78 25.7697 16.8 25.7997C17.35 25.7997 17.8 25.3597 17.8 24.7997C17.8 24.2497 17.36 23.7997 16.8 23.7997C8.82995 23.7597 7.64995 16.3397 7.59995 16.0297C7.52995 15.5097 7.05995 15.1497 6.53995 15.1797C6.49995 15.1797 6.45995 15.1597 6.41995 15.1597C5.86995 15.1597 5.41995 15.6097 5.41995 16.1597V25.1297C5.41995 25.3997 5.35995 31.8797 10.67 33.3297C11 33.4197 11.35 33.4897 11.73 33.5697C13.1 33.8397 14.39 34.0997 15.09 35.4697C15.68 36.6397 16 38.7097 16 41.4597V45.0197C16 45.5697 16.45 46.0197 17 46.0197C17.55 46.0197 18 45.5697 18 45.0197V41.4597C18 38.3597 17.62 36.0397 16.88 34.5697C15.75 32.3297 13.66 31.9097 12.13 31.6097V31.5897Z" fill="#323232"/>
<path d="M7.761 33.5398C7.211 33.4898 6.731 33.8998 6.681 34.4498L5.801 44.9198C5.751 45.4698 6.161 45.9498 6.711 45.9998C6.741 45.9998 6.771 45.9998 6.791 45.9998C7.301 45.9998 7.741 45.6098 7.791 45.0798L8.671 34.6098C8.721 34.0598 8.311 33.5798 7.761 33.5298V33.5398Z" fill="#323232"/>
<path d="M36.9415 12.3898C37.4515 12.5398 37.9715 12.6198 38.4915 12.6198C39.3515 12.6198 40.2015 12.4098 40.9815 11.9898C42.2315 11.3198 43.1515 10.2098 43.5615 8.84979C43.9715 7.48979 43.8315 6.05978 43.1615 4.80979C42.4915 3.55979 41.3815 2.63979 40.0215 2.22979C38.6615 1.81979 37.2315 1.95979 35.9815 2.62979C33.4015 4.00979 32.4215 7.22979 33.8015 9.80979C34.4715 11.0598 35.5815 11.9798 36.9415 12.3898ZM36.9215 4.38979C37.4115 4.12979 37.9415 3.99979 38.4715 3.99979C38.7915 3.99979 39.1215 4.04979 39.4415 4.13979C40.2915 4.39979 40.9815 4.96979 41.4015 5.74979C42.2615 7.35979 41.6515 9.36978 40.0415 10.2298C39.2615 10.6498 38.3715 10.7298 37.5215 10.4798C36.6715 10.2198 35.9815 9.64979 35.5615 8.86979C34.7015 7.25979 35.3115 5.24978 36.9215 4.38979Z" fill="#323232"/>
<path d="M43.611 16.02C43.611 15.47 43.161 15.02 42.611 15.02C42.561 15.02 42.521 15.04 42.481 15.05C41.971 15.02 41.511 15.38 41.431 15.89C41.381 16.21 40.201 23.63 32.231 23.67C31.681 23.67 31.231 24.12 31.241 24.68C31.241 25.23 31.691 25.67 32.241 25.67C37.271 25.64 40.071 23.13 41.611 20.7V25.03C41.611 25.24 41.641 30.23 37.831 31.27C37.551 31.35 37.231 31.41 36.911 31.47C35.381 31.77 33.291 32.19 32.161 34.43C31.421 35.9 31.041 38.22 31.041 41.32V44.88C31.041 45.43 31.491 45.88 32.041 45.88C32.591 45.88 33.041 45.43 33.041 44.88V41.32C33.041 38.57 33.351 36.5 33.951 35.33C34.641 33.96 35.941 33.7 37.311 33.43C37.681 33.36 38.041 33.28 38.371 33.19C43.681 31.74 43.631 25.27 43.621 25.01V16.02H43.611Z" fill="#323232"/>
<path d="M41.2813 33.4097C40.7313 33.4597 40.3213 33.9397 40.3713 34.4897L41.2513 44.9597C41.2913 45.4797 41.7313 45.8797 42.2513 45.8797C42.2813 45.8797 42.3113 45.8797 42.3313 45.8797C42.8813 45.8297 43.2913 45.3497 43.2413 44.7997L42.3613 34.3297C42.3113 33.7797 41.8313 33.3597 41.2813 33.4197V33.4097Z" fill="#323232"/>
<path d="M34.7298 17.02H39.2798C39.8298 17.02 40.2798 16.57 40.2798 16.02C40.2798 15.47 39.8298 15.02 39.2798 15.02H33.9298C33.8598 15.02 33.7998 15.05 33.7398 15.06C33.7098 15.06 33.6698 15.07 33.6398 15.08C33.5498 15.11 33.4698 15.15 33.3898 15.2C33.3598 15.22 33.3298 15.24 33.2998 15.26C33.2298 15.32 33.1798 15.38 33.1198 15.46C33.0998 15.49 33.0698 15.53 33.0498 15.56C33.0098 15.63 32.9898 15.71 32.9698 15.79C32.9698 15.83 32.9398 15.86 32.9298 15.9C32.9198 16 32.7798 16.85 32.3398 17.94H34.4498C34.5698 17.6 34.6598 17.29 34.7298 17.03V17.02Z" fill="#323232"/>
<path d="M15.6598 15.3397C15.5798 15.2797 15.4898 15.2397 15.3898 15.2097C15.3698 15.2097 15.3398 15.2097 15.3198 15.1997C15.2498 15.1897 15.1898 15.1597 15.1098 15.1597H9.75977C9.20977 15.1597 8.75977 15.6097 8.75977 16.1597C8.75977 16.7097 9.20977 17.1597 9.75977 17.1597H14.3098C14.3698 17.3797 14.4498 17.6497 14.5498 17.9397H16.6498C16.2498 16.9097 16.1198 16.1297 16.0998 16.0297C16.0998 15.9897 16.0698 15.9597 16.0598 15.9197C16.0398 15.8397 16.0198 15.7697 15.9798 15.6897C15.9598 15.6497 15.9398 15.6197 15.9098 15.5897C15.8598 15.5097 15.7998 15.4397 15.7298 15.3897C15.7098 15.3697 15.6898 15.3597 15.6598 15.3397Z" fill="#323232"/>
</svg>
