<svg width="48" height="48" viewBox="0 0 48 48" fill="none" xmlns="http://www.w3.org/2000/svg">
<path d="M28.4593 14.7902C28.8093 14.3602 28.7393 13.7302 28.3093 13.3802C26.3793 11.8202 23.9393 10.9502 21.4493 10.9502C15.4293 10.9502 10.5293 15.8502 10.5293 21.8702C10.5293 27.8902 15.4293 32.7902 21.4493 32.7902C27.4693 32.7902 32.3693 27.8902 32.3693 21.8702C32.3693 21.3302 32.3293 20.7802 32.2493 20.2502C32.1693 19.7002 31.6593 19.3302 31.1093 19.4102C30.5593 19.4902 30.1893 20.0002 30.2693 20.5502C30.3293 20.9902 30.3693 21.4302 30.3693 21.8802C30.3693 26.8002 26.3693 30.8002 21.4493 30.8002C16.5293 30.8002 12.5293 26.8002 12.5293 21.8802C12.5293 16.9602 16.5293 12.9602 21.4493 12.9602C23.5093 12.9602 25.4493 13.6402 27.0493 14.9402C27.4793 15.2902 28.1093 15.2202 28.4593 14.7902Z" fill="#323232"/>
<path d="M21.481 19.1899C21.591 19.1899 21.691 19.1899 21.801 19.2099C22.351 19.2799 22.841 18.8799 22.911 18.3299C22.971 17.7799 22.581 17.2799 22.031 17.2199C21.851 17.1999 21.671 17.1899 21.481 17.1899C18.901 17.1899 16.791 19.2899 16.791 21.8799C16.791 24.4699 18.891 26.5699 21.481 26.5699C23.401 26.5699 25.101 25.4199 25.821 23.6499C26.031 23.1399 25.781 22.5599 25.271 22.3499C24.761 22.1399 24.181 22.3899 23.971 22.8999C23.561 23.9199 22.581 24.5699 21.481 24.5699C20.001 24.5699 18.791 23.3599 18.791 21.8799C18.791 20.3999 20.001 19.1899 21.481 19.1899Z" fill="#323232"/>
<path d="M31.9702 35.5701C36.0802 32.4101 38.7502 27.4501 38.7502 21.8801C38.7502 20.1701 38.5002 18.4801 38.0102 16.8601C37.8502 16.3301 37.2902 16.0301 36.7602 16.1901C36.2302 16.3501 35.9302 16.9101 36.0902 17.4401C36.5202 18.8701 36.7402 20.3701 36.7402 21.8801C36.7402 30.3101 29.8802 37.1701 21.4502 37.1701C13.0202 37.1701 6.16016 30.3101 6.16016 21.8801C6.16016 13.4501 13.0202 6.5901 21.4502 6.5901C25.7002 6.5901 29.8002 8.3801 32.6802 11.5101C33.0602 11.9201 33.6902 11.9401 34.0902 11.5701C34.5002 11.2001 34.5202 10.5601 34.1502 10.1601C30.8902 6.6301 26.2602 4.6001 21.4502 4.6001C11.9102 4.6001 4.16016 12.3601 4.16016 21.8901C4.16016 27.4701 6.83016 32.4201 10.9402 35.5801L7.14016 41.9101C6.86016 42.3801 7.01016 43.0001 7.48016 43.2801C7.64016 43.3801 7.82016 43.4201 7.99016 43.4201C8.33016 43.4201 8.66016 43.2501 8.85016 42.9301L12.5902 36.7001C15.1902 38.2601 18.2102 39.1701 21.4502 39.1701C24.6902 39.1701 27.7102 38.2601 30.3102 36.7001L34.0502 42.9301C34.2402 43.2401 34.5702 43.4201 34.9102 43.4201C35.0902 43.4201 35.2602 43.3701 35.4202 43.2801C35.8902 43.0001 36.0502 42.3801 35.7602 41.9101L31.9602 35.5801L31.9702 35.5701Z" fill="#323232"/>
<path d="M21.4509 22.9501C21.1109 22.9501 20.7709 22.7701 20.5909 22.4601C20.3109 21.9801 20.4709 21.3701 20.9509 21.0901L36.7509 11.8401L38.0609 7.13007C38.2109 6.60007 38.7609 6.29007 39.2909 6.43007C39.8209 6.58007 40.1309 7.13007 39.9909 7.66007L38.8309 11.8401L43.1609 13.2401C43.6909 13.4101 43.9709 13.9701 43.8009 14.5001C43.6309 15.0301 43.0609 15.3101 42.5409 15.1401L37.7209 13.5801L21.9609 22.8101C21.8009 22.9001 21.6309 22.9501 21.4609 22.9501H21.4509Z" fill="#DF0000"/>
</svg>
