<svg width="48" height="48" viewBox="0 0 48 48" fill="none" xmlns="http://www.w3.org/2000/svg">
<path d="M10.8206 34.7803C9.96062 34.7803 9.13063 34.9003 8.39062 35.1203C10.5306 35.7503 12.0306 37.2503 12.0306 39.3603C12.0306 41.4703 10.5306 42.9703 8.39062 43.6003C9.13063 43.8203 9.95062 43.9403 10.8206 43.9403C14.1706 43.9403 16.8906 42.2103 16.8906 39.3603C16.8906 36.5103 14.1706 34.7803 10.8206 34.7803Z" fill="#8DE2E0"/>
<path d="M37.18 28.8203C36.32 28.8203 35.49 28.9403 34.75 29.1603C36.89 29.7903 38.39 31.2903 38.39 33.4003C38.39 35.5103 36.89 37.0103 34.75 37.6403C35.49 37.8603 36.31 37.9803 37.18 37.9803C40.53 37.9803 43.25 36.2503 43.25 33.4003C43.25 30.5503 40.53 28.8203 37.18 28.8203Z" fill="#8DE2E0"/>
<path d="M31.1094 6.81031V12.8903L43.2494 10.1403V4.07031L31.1094 6.81031Z" fill="#8DE2E0"/>
<path d="M43.87 3.28981C43.63 3.09981 43.32 3.02981 43.03 3.09981L16.67 9.05981C16.21 9.15981 15.89 9.56981 15.89 10.0398V35.3298C14.64 34.3598 12.89 33.7898 10.82 33.7898C6.66 33.7898 3.75 36.0798 3.75 39.3698C3.75 42.6598 6.66 44.9498 10.82 44.9498C14.98 44.9498 17.89 42.6598 17.89 39.3698C17.89 39.3598 17.89 39.3498 17.89 39.3398V16.9198L42.25 11.4098V29.3698C41 28.3998 39.25 27.8298 37.18 27.8298C33.02 27.8298 30.11 30.1198 30.11 33.4098C30.11 36.6998 33.02 38.9898 37.18 38.9898C41.34 38.9898 44.24 36.7098 44.25 33.4398C44.25 33.4398 44.25 33.4298 44.25 33.4198V4.06981C44.25 3.76981 44.11 3.47981 43.87 3.28981ZM10.82 42.9298C8.38 42.9298 5.75 41.8098 5.75 39.3498C5.75 36.8898 8.38 35.7698 10.82 35.7698C13.26 35.7698 15.87 36.8798 15.89 39.3198V39.3498C15.89 41.7998 13.26 42.9198 10.82 42.9198V42.9298ZM17.89 10.8298L42.25 5.31981V9.34981L17.89 14.8598V10.8298ZM37.18 36.9698C34.74 36.9698 32.11 35.8498 32.11 33.3898C32.11 30.9298 34.74 29.8098 37.18 29.8098C39.62 29.8098 42.25 30.9298 42.25 33.3898C42.25 35.8498 39.62 36.9698 37.18 36.9698Z" fill="#323232"/>
</svg>
