<svg width="24" height="24" viewBox="0 0 24 24" fill="none" xmlns="http://www.w3.org/2000/svg">
<g clip-path="url(#clip0_16335_12322)">
<path d="M12.6632 23.9818C19.2805 23.6153 24.3477 17.9539 23.9812 11.3366C23.6147 4.71932 17.9533 -0.347943 11.336 0.0185443C4.71873 0.385032 -0.348533 6.04649 0.0179548 12.6638C0.384442 19.281 6.0459 24.3483 12.6632 23.9818Z" fill="white"/>
<mask id="mask0_16335_12322" style="mask-type:luminance" maskUnits="userSpaceOnUse" x="-1" y="0" width="25" height="25">
<path d="M12.6632 23.9818C19.2805 23.6153 24.3477 17.9539 23.9812 11.3366C23.6147 4.71932 17.9533 -0.347943 11.336 0.0185443C4.71873 0.385032 -0.348533 6.04649 0.0179548 12.6638C0.384442 19.281 6.0459 24.3483 12.6632 23.9818Z" fill="white"/>
</mask>
<g mask="url(#mask0_16335_12322)">
<path d="M29.9993 8.00049H-6.00067V16.001H29.9993V8.00049Z" fill="#FF0000"/>
<path d="M29.9993 0H-6.00067V8.00047H29.9993V0Z" fill="#00ADFE"/>
<path d="M29.9993 16.001H-6.00067V24.0014H29.9993V16.001Z" fill="#007C29"/>
<path fill-rule="evenodd" clip-rule="evenodd" d="M13.8908 11.6157L13.4227 10.6039L14.4344 11.0735L14.8187 10.0254L15.203 11.0735L16.2148 10.6039L15.7466 11.6157L16.7933 12L15.7466 12.3843L16.2148 13.3975L15.203 12.9279L14.8187 13.976L14.4344 12.9279L13.4227 13.3975L13.8908 12.3843L12.8441 12L13.8908 11.6157Z" fill="white"/>
<path fill-rule="evenodd" clip-rule="evenodd" d="M10.7996 8.40709C11.9497 8.40709 12.974 8.94791 13.6322 9.78918C13.097 9.29728 12.3829 8.99542 11.5989 8.99542C9.93876 8.99542 8.5944 10.3412 8.5944 12C8.5944 13.6588 9.94015 15.0045 11.5989 15.0045C12.3829 15.0045 13.097 14.7041 13.6322 14.2107C12.974 15.052 11.9497 15.5928 10.7996 15.5928C8.8152 15.5928 7.20532 13.9844 7.20532 11.9986C7.20532 10.0128 8.8138 8.4043 10.7996 8.4043V8.40709Z" fill="white"/>
</g>
</g>
<rect x="0.25" y="0.25" width="23.5" height="23.5" rx="11.75" stroke="#E5E3E1" stroke-width="0.5"/>
<defs>
<clipPath id="clip0_16335_12322">
<rect width="24" height="24" rx="12" fill="white"/>
</clipPath>
</defs>
</svg>
