<svg width="48" height="48" viewBox="0 0 48 48" fill="none" xmlns="http://www.w3.org/2000/svg">
<path d="M24.0009 1.81006L6.96094 8.81006V13.9301L24.0009 6.94006L41.0409 13.9301V8.81006L24.0009 1.81006Z" fill="#8DE2E0"/>
<path d="M24.0009 47.1899C23.9409 47.1899 23.8909 47.1899 23.8309 47.1799C23.6509 47.1499 5.96094 43.8599 5.96094 22.7199V8.80994C5.96094 8.39994 6.21094 8.03994 6.58094 7.87994L23.6209 0.889941C23.8609 0.789941 24.1409 0.789941 24.3809 0.889941L41.4209 7.88994C41.8009 8.03994 42.0409 8.40994 42.0409 8.81994V22.7299C42.0409 43.8699 24.3509 47.1599 24.1709 47.1899C24.1109 47.1899 24.0609 47.1999 24.0009 47.1999V47.1899ZM7.96094 9.47994V22.7199C7.96094 41.2899 22.1709 44.7999 24.0009 45.1699C25.8309 44.7999 40.0409 41.2799 40.0409 22.7199V9.47994L24.0009 2.88994L7.96094 9.47994Z" fill="#323232"/>
<path d="M26.2991 21.0902H21.6791V18.6902C21.6791 17.8202 22.3891 17.1102 23.2591 17.1102H24.7191C25.5891 17.1102 26.2991 17.8202 26.2991 18.6902V21.0902ZM29.1791 21.0902H28.6891V18.6902C28.6891 16.5102 26.9091 14.7202 24.7191 14.7202H23.2591C21.0791 14.7202 19.2891 16.5002 19.2891 18.6902V21.0702H18.7991C17.8191 21.0702 17.0391 21.8702 17.0391 22.8302V30.2202C17.0391 31.2002 17.8391 31.9802 18.7991 31.9802H29.1891C30.1691 31.9802 30.9491 31.1802 30.9491 30.2202V22.8502C30.9491 21.8702 30.1491 21.0902 29.1691 21.0902H29.1791Z" fill="#DF0000"/>
</svg>
