<svg width="48" height="48" viewBox="0 0 48 48" fill="none" xmlns="http://www.w3.org/2000/svg">
<path d="M16.2598 34.4805C15.7098 34.4805 15.2598 34.0305 15.2598 33.4805C15.2598 32.9305 15.7098 32.4805 16.2598 32.4805H24.7798C25.3298 32.4805 25.7798 32.9205 25.7798 33.4805C25.7798 34.0405 25.3298 34.4805 24.7798 34.4805H16.2598Z" fill="#DF0000"/>
<path d="M10.861 31.6602C9.85102 31.6602 9.04102 32.4802 9.04102 33.4902C9.04102 34.5002 9.86102 35.3102 10.871 35.3102C11.881 35.3102 12.691 34.4902 12.691 33.4802C12.691 32.4702 11.871 31.6602 10.861 31.6602Z" fill="#323232"/>
<path d="M30.4411 31.2803C29.4311 31.2803 28.6211 32.1003 28.6211 33.1103C28.6211 34.1203 29.4411 34.9303 30.4511 34.9303C31.4611 34.9303 32.2711 34.1103 32.2711 33.1003C32.2711 32.0903 31.4511 31.2803 30.4411 31.2803Z" fill="#323232"/>
<path d="M35.5804 23.2202C34.8304 23.3402 34.0903 23.9302 33.8804 24.6302L32.6203 22.8202C32.6203 22.8202 32.5904 22.8002 32.5804 22.7802C32.5403 22.7202 32.4803 22.6802 32.4303 22.6302C32.3804 22.5902 32.3403 22.5502 32.2903 22.5202C32.2304 22.4902 32.1703 22.4702 32.1103 22.4502C32.0504 22.4302 31.9903 22.4102 31.9303 22.4002C31.8703 22.4002 31.8103 22.4002 31.7503 22.4002C31.6803 22.4002 31.6103 22.4002 31.5503 22.4202C31.5303 22.4202 31.5103 22.4202 31.5003 22.4202L28.3503 23.4502L27.3903 21.4202C27.1703 20.9502 26.6203 20.7302 26.1403 20.9102L23.4203 21.9302L22.6703 20.4902C22.6703 20.4902 22.6103 20.4202 22.5803 20.3802C22.5403 20.3202 22.5003 20.2702 22.4503 20.2202C22.4004 20.1802 22.3503 20.1502 22.2903 20.1102C22.2404 20.0802 22.1903 20.0402 22.1303 20.0202C22.0603 20.0002 21.9903 19.9902 21.9203 19.9802C21.8703 19.9802 21.8303 19.9502 21.7803 19.9502H12.3203C11.1003 19.9502 9.97035 20.5402 9.28035 21.5302L7.16035 24.5802C6.94035 23.9002 6.21035 23.3302 5.48035 23.2102C4.13035 22.9902 2.77035 24.2802 2.91035 25.0102C3.05035 25.7602 4.85035 26.3302 6.08035 26.1502L4.76035 28.0502C4.72035 28.1002 4.71035 28.1702 4.68035 28.2302C4.29035 28.8002 4.07035 29.4602 4.07035 30.1602V36.8002C4.07035 38.3202 5.09035 39.6102 6.51035 40.1402V42.6102C6.51035 43.6802 7.38035 44.5502 8.45035 44.5502H11.0904C12.1603 44.5502 13.0303 43.6802 13.0303 42.6102V40.3902H28.3103L28.3003 42.1502C28.3003 43.4902 29.1503 44.5502 30.2403 44.5502H32.8804C33.9704 44.5502 34.8203 43.5002 34.8203 42.1502V40.0102C35.1903 39.8402 35.5404 39.6302 35.8404 39.3602C36.5904 38.6802 37.0004 37.7602 37.0004 36.7802V30.1402C37.0004 29.3702 36.7304 28.6602 36.2904 28.0802C36.2904 28.0702 36.2904 28.0502 36.2704 28.0402L34.9504 26.1402C36.1804 26.3502 38.0204 25.7702 38.1604 25.0102C38.2904 24.2802 36.9403 22.9902 35.5904 23.2102L35.5804 23.2202ZM10.9003 22.6902C11.2203 22.2402 11.7403 21.9702 12.3004 21.9702H21.1603L22.0403 23.6602C22.2703 24.1102 22.8004 24.3102 23.2803 24.1302L25.9703 23.1302L26.9103 25.1302C27.0803 25.4902 27.4403 25.7002 27.8103 25.7002C27.9103 25.7002 28.0203 25.6802 28.1203 25.6502L31.4003 24.5802L32.7803 26.5602H8.21035L10.9003 22.6902ZM11.0703 42.5702L8.49035 42.6302V40.4202H11.0303L11.0703 42.5802V42.5702ZM32.7204 42.5702H30.3703C30.3303 42.5002 30.2803 42.3602 30.2803 42.1802V40.4102H32.8104V42.1802C32.8104 42.3602 32.7604 42.5002 32.7204 42.5802V42.5702ZM34.4803 37.9002C34.1303 38.2202 33.6504 38.4002 33.1304 38.4002H7.90035C6.88035 38.4002 6.05035 37.6802 6.05035 36.8002V30.1602C6.05035 29.7502 6.23035 29.3602 6.56035 29.0602C6.91035 28.7402 7.39035 28.5602 7.91035 28.5602H33.1403C34.1603 28.5602 34.9904 29.2802 34.9904 30.1602V36.8002C34.9904 37.2102 34.8103 37.6002 34.4803 37.9002Z" fill="#323232"/>
<path d="M46.11 18.2502C46.05 17.8702 45.77 17.5502 45.39 17.4502L39.46 15.7802L41.7 9.66022C41.83 9.31022 41.75 8.91022 41.5 8.64022C41.25 8.36022 40.86 8.25022 40.5 8.35022L33.35 10.3102L31.39 4.13022C31.28 3.77022 30.97 3.50022 30.59 3.44022C30.21 3.38022 29.84 3.54022 29.62 3.84022L25.39 9.73022L20.94 7.56022C20.6 7.39022 20.19 7.44022 19.89 7.67022C19.59 7.91022 19.45 8.29022 19.53 8.67022L21.41 17.5902C21.52 18.1302 22.06 18.4802 22.6 18.3602C23.14 18.2502 23.49 17.7102 23.37 17.1702L21.91 10.2502L25.27 11.8902C25.71 12.1002 26.24 11.9702 26.52 11.5702L30.08 6.61022L31.72 11.8002C31.88 12.3102 32.42 12.6102 32.94 12.4602L39.14 10.7602L37.2 16.0702C37.1 16.3302 37.12 16.6202 37.25 16.8702C37.38 17.1202 37.6 17.3002 37.87 17.3802L42.77 18.7602L39.14 21.2302C38.68 21.5402 38.56 22.1602 38.87 22.6202C39.06 22.9002 39.38 23.0602 39.7 23.0602C39.89 23.0602 40.09 23.0002 40.26 22.8902L45.66 19.2202C45.98 19.0002 46.15 18.6202 46.09 18.2302L46.11 18.2502Z" fill="#323232"/>
<path d="M35.4297 19.2502L33.3896 18.3502L34.0996 15.0402C34.1396 14.8602 34.0796 14.6802 33.9396 14.5602C33.7996 14.4402 33.6096 14.4102 33.4396 14.4702L29.0496 16.1302L25.7797 14.4902C25.5997 14.4002 25.3796 14.4302 25.2296 14.5602C25.0796 14.6902 25.0196 14.9102 25.0896 15.1002L26.3096 18.5802C26.3596 18.7102 26.4596 18.8202 26.5896 18.8802L31.8597 21.0602C31.9197 21.0902 31.9896 21.1002 32.0496 21.1002C32.0996 21.1002 32.1396 21.1002 32.1796 21.0802L35.3496 20.1902C35.5496 20.1302 35.6996 19.9502 35.7096 19.7402C35.7296 19.5302 35.6096 19.3302 35.4096 19.2502H35.4297Z" fill="#DF0000"/>
</svg>
