<svg width="48" height="48" viewBox="0 0 48 48" fill="none" xmlns="http://www.w3.org/2000/svg">
<path fill-rule="evenodd" clip-rule="evenodd" d="M28.9798 25.3101C29.7398 25.3201 30.2998 25.6901 30.6598 26.4101C31.0198 27.1301 32.4598 29.9201 34.9698 34.7801C34.9898 35.4701 34.6298 35.8201 33.8898 35.8201H15.8198C15.0298 35.6101 14.5698 35.1901 14.4398 34.5601C14.2998 33.9301 13.8398 31.4801 13.0598 27.2001C12.9998 26.4601 13.3198 26.0901 14.0298 26.0901L28.9798 25.3101Z" fill="#8DE2E0"/>
<path d="M39.5396 29.4201C39.0196 28.9701 38.3396 28.7701 37.4996 28.8301L33.2196 29.2101C32.3196 27.4601 31.7596 26.3601 31.5496 25.9501C31.0296 24.9001 30.1196 24.3101 28.9896 24.3001C28.9696 24.3001 28.9396 24.3001 28.9196 24.3001L22.6796 24.6301C17.5396 17.3601 14.7196 13.3901 14.3096 12.8301C14.1696 12.6501 14.1596 12.5601 14.2596 12.4001C15.2896 11.5101 16.0196 10.8801 16.4696 10.5001C16.9696 10.0801 17.5496 9.31008 17.4696 8.01008C17.4696 7.97008 17.4696 7.94008 17.4596 7.90008C17.1696 6.21008 16.9496 5.11008 16.8096 4.52008C16.5696 3.54008 15.9096 2.93008 14.9996 2.83008C14.9696 2.83008 14.9296 2.83008 14.8996 2.83008H9.34957C8.61957 2.83008 8.18957 3.14008 7.95957 3.40008C7.58957 3.81008 7.44957 4.38008 7.52957 5.06008L8.34957 14.5701C8.34957 14.6601 8.37957 14.7501 8.40957 14.8401L12.4996 25.7201C12.1696 26.1101 12.0196 26.6301 12.0696 27.2601C12.0696 27.2901 12.0696 27.3301 12.0796 27.3601C12.8896 31.7801 13.3296 34.1301 13.4696 34.7501C13.5396 35.0901 13.7396 35.6001 14.1996 36.0301L12.8196 43.9601C12.7696 44.2501 12.8496 44.5501 13.0396 44.7801C13.2296 45.0101 13.5096 45.1401 13.8096 45.1401H32.2396C32.7896 45.1401 33.2396 44.6901 33.2396 44.1401V36.8001H33.9096C34.5696 36.8001 35.0896 36.6101 35.4596 36.2201C35.6896 35.9801 35.9496 35.5601 35.9696 34.9001H37.6996C39.6096 34.7301 40.6296 33.5401 40.5096 31.6301C40.4496 30.6401 40.1296 29.8901 39.5596 29.4001L39.5396 29.4201ZM9.50957 4.87008C9.50957 4.87008 9.50957 4.85008 9.50957 4.84008H14.7996C14.7996 4.84008 14.8396 4.92008 14.8596 5.01008C14.9896 5.54008 15.1996 6.61008 15.4696 8.20008C15.4896 8.66008 15.3396 8.85008 15.1896 8.97008C14.7196 9.36008 13.9396 10.0301 12.8496 10.9701C12.7896 11.0201 12.7396 11.0701 12.6996 11.1301C12.0196 12.0501 12.0196 13.1001 12.6996 14.0201C12.9696 14.3801 14.5296 16.5801 20.3196 24.7501L14.3796 25.0601L10.3296 14.2601L9.51957 4.86008L9.50957 4.87008ZM31.2196 43.1601H14.9796L16.0896 36.8201H31.2296V43.1601H31.2196ZM15.9596 34.8201C15.4796 34.6701 15.4296 34.4601 15.4096 34.3501C15.2796 33.7501 14.8496 31.4501 14.0496 27.0901C14.0496 27.0901 14.0696 27.0901 14.0796 27.0901L28.9896 26.3101C29.2996 26.3201 29.5496 26.4201 29.7596 26.8601C30.1096 27.5601 31.4796 30.2201 33.8596 34.8201H15.9596ZM37.5896 32.9201H35.1296C34.7996 32.2901 34.4896 31.6801 34.2096 31.1301L37.6696 30.8201C37.8596 30.8101 38.1096 30.8201 38.2296 30.9201C38.3696 31.0401 38.4696 31.3501 38.4896 31.7701C38.5396 32.5701 38.3096 32.8401 37.5896 32.9101V32.9201Z" fill="#323232"/>
</svg>
