<svg width="48" height="48" viewBox="0 0 48 48" fill="none" xmlns="http://www.w3.org/2000/svg">
<path d="M43.229 20.2505C42.049 19.8405 40.739 20.4605 40.319 21.6305L38.469 26.5605C38.469 26.5605 38.389 26.5405 38.349 26.5405C37.679 26.4905 36.999 26.7205 36.519 27.1405L35.299 28.2005C33.409 29.8505 32.539 30.3205 31.779 30.7405C31.179 31.0705 30.599 31.3805 29.759 32.1205C27.729 33.8905 27.379 37.5305 27.349 39.5605H26.959C26.409 39.5605 25.959 40.0105 25.959 40.5605V44.0305C25.959 44.5805 26.409 45.0305 26.959 45.0305H36.079C36.629 45.0305 37.079 44.5805 37.079 44.0305V40.5605C37.079 40.0105 36.629 39.5605 36.079 39.5605H35.689C35.859 38.6005 36.259 37.5305 37.189 36.7205L40.999 33.3605C41.559 32.8605 41.999 32.2805 42.299 31.6305C43.519 29.0005 44.679 23.1105 44.729 22.8605C44.949 21.7505 44.299 20.6305 43.229 20.2605V20.2505ZM35.069 43.0205H27.949V41.5505H35.069V43.0205ZM40.479 30.7805C40.299 31.1805 40.019 31.5405 39.669 31.8505L35.859 35.2105C34.659 36.2605 33.899 37.7805 33.659 39.5505H29.329C29.369 37.3105 29.819 34.7005 31.059 33.6205C31.739 33.0305 32.169 32.7905 32.719 32.5005C33.539 32.0605 34.549 31.5105 36.609 29.7105L37.829 28.6505C37.919 28.5705 38.079 28.5305 38.209 28.5405C38.259 28.5405 38.349 28.5605 38.389 28.6105C38.489 28.7205 38.419 29.0305 38.249 29.1805L35.599 31.6405C35.199 32.0205 35.169 32.6505 35.549 33.0505C35.929 33.4505 36.559 33.4805 36.959 33.1005L39.589 30.6605C40.349 29.9905 40.709 28.7005 40.179 27.7005L42.199 22.3205C42.249 22.1705 42.419 22.0905 42.569 22.1405C42.709 22.1905 42.789 22.3305 42.759 22.4705C42.359 24.5005 41.379 28.8505 40.479 30.7805Z" fill="#323232"/>
<path d="M21.0597 39.5506H20.6697C20.6397 37.5206 20.2797 33.8806 18.2597 32.1106C17.4097 31.3706 16.8397 31.0606 16.2397 30.7306C15.4697 30.3106 14.5997 29.8406 12.7197 28.1906L11.4997 27.1306C11.0197 26.7106 10.3297 26.4806 9.66974 26.5306C9.62974 26.5306 9.58974 26.5506 9.54974 26.5506L7.69974 21.6306C7.27974 20.4506 5.96974 19.8306 4.78974 20.2406C3.71974 20.6106 3.07974 21.7306 3.28974 22.8406C3.33974 23.0906 4.49974 28.9806 5.71974 31.6106C6.01974 32.2606 6.45974 32.8406 7.01974 33.3406L10.8397 36.7006C11.7597 37.5106 12.1697 38.5706 12.3297 39.5306H11.9397C11.3897 39.5306 10.9397 39.9806 10.9397 40.5306V44.0006C10.9397 44.5506 11.3897 45.0006 11.9397 45.0006H21.0597C21.6097 45.0006 22.0597 44.5506 22.0597 44.0006V40.5306C22.0597 39.9806 21.6097 39.5306 21.0597 39.5306V39.5506ZM12.1497 35.2106L8.33974 31.8506C7.98974 31.5406 7.70974 31.1806 7.52974 30.7806C6.62974 28.8506 5.63974 24.5006 5.24974 22.4706C5.21974 22.3306 5.29974 22.1906 5.43974 22.1406C5.58974 22.0906 5.75974 22.1706 5.81974 22.3306L7.82974 27.7006C7.29974 28.7106 7.64974 29.9906 8.39974 30.6406L11.0497 33.1006C11.4597 33.4706 12.0897 33.4506 12.4597 33.0506C12.8397 32.6506 12.8097 32.0106 12.4097 31.6406L9.72974 29.1606C9.57974 29.0306 9.51974 28.7206 9.60974 28.6106C9.64974 28.5606 9.73974 28.5506 9.78974 28.5406C9.91974 28.5306 10.0797 28.5806 10.1697 28.6506L11.3897 29.7106C13.4397 31.5006 14.4597 32.0606 15.2797 32.5006C15.8297 32.8006 16.2597 33.0306 16.9397 33.6206C18.1797 34.7006 18.6397 37.3106 18.6697 39.5506H14.3397C14.0997 37.7806 13.3397 36.2606 12.1497 35.2106ZM20.0597 43.0206H12.9397V41.5506H20.0597V43.0206Z" fill="#323232"/>
<path d="M23.1595 7.2109C19.4695 7.6209 16.5295 10.7309 16.3295 14.4509C16.2095 16.6909 17.0595 18.8709 18.6595 20.4309C19.9495 21.6809 20.4695 22.3309 20.4695 23.7409V24.6909C20.4695 25.8809 21.4395 26.8509 22.6295 26.8509H25.4495C26.6395 26.8509 27.6095 25.8809 27.6095 24.6909V23.7409C27.6095 22.3009 28.1195 21.6709 29.3695 20.4809C30.9095 19.0109 31.7595 17.0209 31.7595 14.8909C31.7595 10.6309 28.2995 7.1709 24.0395 7.1709C23.7195 7.1709 23.4295 7.1909 23.1595 7.2209V7.2109ZM29.7595 14.8809C29.7595 16.4609 29.1295 17.9309 27.9895 19.0209C26.5995 20.3509 25.6095 21.4609 25.6095 23.7309V24.6809C25.6095 24.7609 25.5395 24.8309 25.4495 24.8309H22.6295C22.5495 24.8309 22.4695 24.7609 22.4695 24.6809V23.7309C22.4695 21.5009 21.4695 20.3609 20.0595 18.9809C18.8695 17.8309 18.2395 16.2109 18.3295 14.5509C18.4795 11.8009 20.6595 9.5009 23.3795 9.1909C23.5995 9.1709 23.8195 9.1509 24.0395 9.1509C27.1895 9.1509 29.7595 11.7109 29.7595 14.8709V14.8809Z" fill="#323232"/>
<path d="M21.5898 27.3301C21.0398 27.3301 20.5898 27.7801 20.5898 28.3301C20.5898 28.8801 21.0398 29.3301 21.5898 29.3301H26.4798C27.0298 29.3301 27.4798 28.8801 27.4798 28.3301C27.4798 27.7801 27.0298 27.3301 26.4798 27.3301H21.5898Z" fill="#323232"/>
<path d="M26.2603 30.8301C26.2603 30.2801 25.8103 29.8301 25.2603 29.8301H22.8203C22.2703 29.8301 21.8203 30.2801 21.8203 30.8301C21.8203 31.3801 22.2703 31.8301 22.8203 31.8301H25.2603C25.8103 31.8301 26.2603 31.3801 26.2603 30.8301Z" fill="#323232"/>
<path d="M24 6.63047C24.55 6.63047 25 6.18047 25 5.63047V3.98047C25 3.43047 24.55 2.98047 24 2.98047C23.45 2.98047 23 3.43047 23 3.98047V5.63047C23 6.18047 23.45 6.63047 24 6.63047Z" fill="#323232"/>
<path d="M32.25 15.1504C32.25 15.7004 32.7 16.1504 33.25 16.1504H34.9C35.45 16.1504 35.9 15.7004 35.9 15.1504C35.9 14.6004 35.45 14.1504 34.9 14.1504H33.25C32.7 14.1504 32.25 14.6004 32.25 15.1504Z" fill="#323232"/>
<path d="M13.1895 16.1504H14.8395C15.3895 16.1504 15.8395 15.7004 15.8395 15.1504C15.8395 14.6004 15.3895 14.1504 14.8395 14.1504H13.1895C12.6395 14.1504 12.1895 14.6004 12.1895 15.1504C12.1895 15.7004 12.6395 16.1504 13.1895 16.1504Z" fill="#323232"/>
<path d="M31.2591 20.9507C30.8691 20.5607 30.2391 20.5607 29.8491 20.9507C29.4591 21.3407 29.4591 21.9707 29.8491 22.3607L31.0091 23.5207C31.2091 23.7207 31.4591 23.8107 31.7191 23.8107C31.9791 23.8107 32.2291 23.7107 32.4291 23.5207C32.8191 23.1307 32.8191 22.5007 32.4291 22.1107L31.2691 20.9507H31.2591Z" fill="#323232"/>
<path d="M16.8195 9.35078C17.0195 9.55078 17.2695 9.64078 17.5295 9.64078C17.7895 9.64078 18.0395 9.54078 18.2395 9.35078C18.6295 8.96078 18.6295 8.33078 18.2395 7.94078L17.0795 6.78078C16.6895 6.39078 16.0595 6.39078 15.6695 6.78078C15.2795 7.17078 15.2795 7.80078 15.6695 8.19078L16.8295 9.35078H16.8195Z" fill="#323232"/>
<path d="M16.8197 20.9507L15.6597 22.1107C15.2697 22.5007 15.2697 23.1307 15.6597 23.5207C15.8597 23.7207 16.1097 23.8107 16.3697 23.8107C16.6297 23.8107 16.8797 23.7107 17.0797 23.5207L18.2397 22.3607C18.6297 21.9707 18.6297 21.3407 18.2397 20.9507C17.8497 20.5607 17.2197 20.5607 16.8297 20.9507H16.8197Z" fill="#323232"/>
<path d="M30.5491 9.64078C30.8091 9.64078 31.0591 9.54078 31.2591 9.35078L32.4191 8.19078C32.8091 7.80078 32.8091 7.17078 32.4191 6.78078C32.0291 6.39078 31.3991 6.39078 31.0091 6.78078L29.8491 7.94078C29.4591 8.33078 29.4591 8.96078 29.8491 9.35078C30.0491 9.55078 30.2991 9.64078 30.5591 9.64078H30.5491Z" fill="#323232"/>
<path d="M26.8997 14.15H25.0397V12.29C25.0397 11.74 24.5897 11.29 24.0397 11.29C23.4897 11.29 23.0397 11.74 23.0397 12.29V14.15H21.1797C20.6297 14.15 20.1797 14.6 20.1797 15.15C20.1797 15.7 20.6297 16.15 21.1797 16.15H23.0397V18.01C23.0397 18.56 23.4897 19.01 24.0397 19.01C24.5897 19.01 25.0397 18.56 25.0397 18.01V16.15H26.8997C27.4497 16.15 27.8997 15.7 27.8997 15.15C27.8997 14.6 27.4497 14.15 26.8997 14.15Z" fill="#DF0000"/>
</svg>
