<svg width="48" height="48" viewBox="0 0 48 48" fill="none" xmlns="http://www.w3.org/2000/svg">
<path d="M43.8501 26.3499C43.0801 24.9899 41.3401 24.4999 39.9801 25.2599L32.9901 29.0199C32.3901 28.1899 31.3801 27.6799 30.4301 27.6799H28.1001C24.4501 27.6799 23.0301 27.3599 21.7901 27.0799C20.8501 26.8699 19.9601 26.6699 18.3901 26.6699C14.6201 26.6699 11.0901 29.9999 9.23008 32.1199L9.00008 31.8899C8.62008 31.5099 7.96008 31.5099 7.59008 31.8899L4.06008 35.4199C3.67008 35.8099 3.67008 36.4399 4.06008 36.8299L12.5101 45.2799C12.7101 45.4799 12.9601 45.5699 13.2201 45.5699C13.4801 45.5699 13.7301 45.4699 13.9301 45.2799L17.4601 41.7499C17.8501 41.3599 17.8501 40.7299 17.4601 40.3399L17.0701 39.9499C18.2601 38.8599 19.9501 37.8099 22.1001 37.8099L29.4101 37.7799C30.4301 37.7799 31.3901 37.5699 32.2801 37.1799C36.0501 35.5099 42.8401 30.2599 43.1201 30.0299C44.2401 29.1699 44.5501 27.5899 43.8501 26.3599V26.3499ZM13.2201 43.1499L6.19008 36.1199L8.31008 33.9999L15.3401 41.0299L13.2201 43.1499ZM41.8901 28.4399C39.5301 30.2699 34.3101 34.0799 31.4601 35.3399C30.8301 35.6199 30.1301 35.7599 29.3901 35.7699L22.0801 35.7999C19.1901 35.7999 16.9901 37.2799 15.6501 38.5199L10.6501 33.5199C12.1401 31.8199 15.3201 28.6599 18.3901 28.6599C19.7301 28.6599 20.4501 28.8199 21.3501 29.0199C22.6301 29.3099 24.2301 29.6699 28.1001 29.6699H30.4301C30.9201 29.6699 31.5101 30.0999 31.5101 30.5899C31.5101 31.0799 30.9101 31.5099 30.3901 31.5099L25.1801 31.6699C24.6301 31.6899 24.1901 32.1499 24.2101 32.6999C24.2301 33.2499 24.6801 33.6999 25.2401 33.6699L30.4201 33.5099C31.7501 33.5099 33.2101 32.5099 33.4501 31.0199L40.9201 26.9999C41.3301 26.7699 41.8501 26.9199 42.0901 27.3299C42.3001 27.7099 42.2101 28.1699 41.8701 28.4299L41.8901 28.4399Z" fill="#323232"/>
<path d="M23.9994 7.48018C23.1494 5.13018 20.5594 3.43018 17.9294 3.43018C14.5794 3.43018 11.8594 6.15018 11.8594 9.50018C11.8594 14.7602 16.3094 20.0202 23.9994 25.2802C31.6894 20.0202 36.1394 14.7602 36.1394 9.50018C36.1394 6.15018 33.4194 3.43018 30.0694 3.43018C27.4394 3.43018 24.8494 5.13018 23.9994 7.48018Z" fill="#DF0000"/>
</svg>
