<svg width="24" height="24" viewBox="0 0 24 24" fill="none" xmlns="http://www.w3.org/2000/svg">
<g clip-path="url(#clip0_16335_5451)">
<path d="M20.4851 20.4853C25.1714 15.799 25.1714 8.20101 20.4851 3.51472C15.7988 -1.17157 8.20081 -1.17157 3.51452 3.51472C-1.17177 8.20101 -1.17177 15.799 3.51452 20.4853C8.20081 25.1716 15.7988 25.1716 20.4851 20.4853Z" fill="white"/>
<mask id="mask0_16335_5451" style="mask-type:luminance" maskUnits="userSpaceOnUse" x="-1" y="0" width="25" height="24">
<path d="M20.4851 20.4853C25.1714 15.799 25.1714 8.20101 20.4851 3.51472C15.7988 -1.17157 8.20081 -1.17157 3.51452 3.51472C-1.17177 8.20101 -1.17177 15.799 3.51452 20.4853C8.20081 25.1716 15.7988 25.1716 20.4851 20.4853Z" fill="white"/>
</mask>
<g mask="url(#mask0_16335_5451)">
<path d="M29.9993 0H-6.00067V24H29.9993V0Z" fill="#FF0000"/>
<path fill-rule="evenodd" clip-rule="evenodd" d="M5.83582 10.6165H18.1642L12 15.0841L5.83582 10.6165ZM8.25901 11.4018L12 14.1129L15.741 11.4018H8.26041H8.25901Z" fill="#007C29"/>
<path fill-rule="evenodd" clip-rule="evenodd" d="M12 6.1377L15.8095 17.8624L12 15.0842L8.19055 17.8624L12 6.1377ZM12 8.68107L9.68723 15.7983L12 14.1116L14.3128 15.7983L12 8.68107Z" fill="#007C29"/>
</g>
</g>
<rect x="0.25" y="0.25" width="23.5" height="23.5" rx="11.75" stroke="#E5E3E1" stroke-width="0.5"/>
<defs>
<clipPath id="clip0_16335_5451">
<rect width="24" height="24" rx="12" fill="white"/>
</clipPath>
</defs>
</svg>
