<svg width="48" height="48" viewBox="0 0 48 48" fill="none" xmlns="http://www.w3.org/2000/svg">
<path d="M25.4098 35.32C27.0114 35.32 28.3098 34.0216 28.3098 32.42C28.3098 30.8184 27.0114 29.52 25.4098 29.52C23.8081 29.52 22.5098 30.8184 22.5098 32.42C22.5098 34.0216 23.8081 35.32 25.4098 35.32Z" fill="#8DE2E0"/>
<path d="M45.25 42.6701H33.6V10.6401C33.6 6.61008 30.32 3.33008 26.29 3.33008H15.97C13.84 3.33008 12.11 4.92008 12.11 6.88008V36.2801C12.11 37.1301 11.28 37.8301 10.25 37.8301H6.44C5.89 37.8301 5.44 38.2801 5.44 38.8301C5.44 39.3801 5.89 39.8301 6.44 39.8301H10.25C12.38 39.8301 14.11 38.2401 14.11 36.2801V6.88008C14.11 6.03008 14.94 5.33008 15.97 5.33008H19.51C18.1 6.66008 17.21 8.55008 17.21 10.6401V42.6701H2.75C2.2 42.6701 1.75 43.1201 1.75 43.6701C1.75 44.2201 2.2 44.6701 2.75 44.6701H45.25C45.8 44.6701 46.25 44.2201 46.25 43.6701C46.25 43.1201 45.8 42.6701 45.25 42.6701ZM31.6 41.2601L29.9 39.5601C30.53 39.2001 31.1 38.7501 31.6 38.2201V41.2501V41.2601ZM19.22 33.2101V13.1801H31.61V33.2101C31.61 36.1401 29.23 38.5201 26.3 38.5201H24.53C21.6 38.5201 19.22 36.1401 19.22 33.2101ZM24.53 5.33008H26.3C29.23 5.33008 31.61 7.71008 31.61 10.6401V11.1901H19.22V10.6401C19.22 7.71008 21.6 5.33008 24.53 5.33008ZM20.92 39.5601L19.22 41.2601V38.2301C19.72 38.7501 20.29 39.2101 20.92 39.5701V39.5601ZM22.96 40.3501C23.47 40.4601 23.99 40.5201 24.53 40.5201H26.3C26.84 40.5201 27.36 40.4601 27.87 40.3501L30.19 42.6701H20.63L22.95 40.3501H22.96Z" fill="#323232"/>
<path d="M29.3098 32.42C29.3098 30.27 27.5598 28.52 25.4098 28.52C23.2598 28.52 21.5098 30.27 21.5098 32.42C21.5098 34.57 23.2598 36.32 25.4098 36.32C27.5598 36.32 29.3098 34.57 29.3098 32.42ZM23.5098 32.42C23.5098 31.37 24.3598 30.52 25.4098 30.52C26.4598 30.52 27.3098 31.37 27.3098 32.42C27.3098 33.47 26.4598 34.32 25.4098 34.32C24.3598 34.32 23.5098 33.47 23.5098 32.42Z" fill="#323232"/>
</svg>
