<svg width="48" height="48" viewBox="0 0 48 48" fill="none" xmlns="http://www.w3.org/2000/svg">
<path d="M18.4892 14.1796C20.0301 14.1796 21.2792 12.9305 21.2792 11.3896C21.2792 9.84873 20.0301 8.59961 18.4892 8.59961C16.9483 8.59961 15.6992 9.84873 15.6992 11.3896C15.6992 12.9305 16.9483 14.1796 18.4892 14.1796Z" fill="#DF0000"/>
<path d="M30.0791 14.1796C31.6199 14.1796 32.8691 12.9305 32.8691 11.3896C32.8691 9.84873 31.6199 8.59961 30.0791 8.59961C28.5382 8.59961 27.2891 9.84873 27.2891 11.3896C27.2891 12.9305 28.5382 14.1796 30.0791 14.1796Z" fill="#DF0000"/>
<path d="M37.2802 21.8896C38.8211 21.8896 40.0702 20.6404 40.0702 19.0996C40.0702 17.5587 38.8211 16.3096 37.2802 16.3096C35.7394 16.3096 34.4902 17.5587 34.4902 19.0996C34.4902 20.6404 35.7394 21.8896 37.2802 21.8896Z" fill="#DF0000"/>
<path d="M10.5107 22.3105C12.0516 22.3105 13.3007 21.0613 13.3007 19.5205C13.3007 17.9796 12.0516 16.7305 10.5107 16.7305C8.96983 16.7305 7.7207 17.9796 7.7207 19.5205C7.7207 21.0613 8.96983 22.3105 10.5107 22.3105Z" fill="#DF0000"/>
<path d="M38.2191 33.4703C40.6991 32.4903 43.6191 30.4503 45.2891 26.2003C46.6491 22.7503 46.3591 18.3003 44.5191 14.3003C42.8491 10.6803 39.1791 5.7903 31.1491 3.0203C17.2891 -1.7597 7.00911 8.4903 4.43911 13.9103C1.43911 20.2403 1.06911 26.0703 3.26911 32.2403C6.27911 40.6703 14.4091 44.0903 16.8291 44.9403C19.2391 45.7803 21.3591 46.2003 23.0891 46.2003C25.2591 46.2003 26.8291 45.5503 27.6291 44.2503C29.0891 41.8703 28.2091 40.3403 27.3491 38.8603L27.0591 38.3503C26.5491 37.4403 26.5591 36.5603 27.0791 35.6603C27.3591 35.1803 27.8091 34.6603 29.4491 34.4603C30.5291 35.6803 31.9491 37.1903 33.6991 38.9003C33.7791 38.9803 41.2691 46.1703 44.5491 46.1703C44.9591 46.1703 45.3091 46.0603 45.5691 45.8003C47.8691 43.5003 38.7591 34.0203 38.6691 33.9303C38.5191 33.7703 38.3691 33.6203 38.2191 33.4703ZM25.3491 34.6603C24.4791 36.1803 24.4691 37.7903 25.3191 39.3203C25.4191 39.5103 25.5291 39.6903 25.6291 39.8603C26.4091 41.2203 26.7691 41.8403 25.9291 43.2003C25.0691 44.6003 21.7591 44.5403 17.4891 43.0503C12.9391 41.4603 7.30911 37.6003 5.14911 31.5703C3.12911 25.9303 3.47911 20.5903 6.23911 14.7703C8.57911 9.8603 17.9091 0.560298 30.4891 4.9103C37.8491 7.4503 41.1891 11.8803 42.6991 15.1403C44.2891 18.6003 44.5691 22.5603 43.4291 25.4703C41.8191 29.5603 38.8691 31.2303 36.6391 31.9103C34.5091 29.8603 32.8291 28.4603 31.8791 27.7003C32.0891 27.3703 32.1991 26.9903 32.1991 26.5903C32.1991 26.0303 31.9791 25.5003 31.5891 25.1103L30.7991 24.3103C30.3291 23.8603 29.6991 23.6803 29.0891 23.7403C28.7991 20.9903 27.3891 19.7003 24.4491 19.4203C22.1491 19.2203 20.9991 17.3803 20.9591 17.3003C20.7591 16.9703 20.3891 16.7803 19.9991 16.8203C19.6091 16.8603 19.2891 17.1103 19.1591 17.4803C17.9791 20.7803 17.5691 25.1703 19.9891 27.6003C21.1191 28.7203 22.4491 29.1603 23.5091 29.3203C23.5091 29.4003 23.4891 29.4903 23.4891 29.5703C23.4891 30.1303 23.7191 30.6603 24.0991 31.0303L24.8791 31.8203C25.2891 32.2303 25.8291 32.4303 26.3591 32.4303C26.7491 32.4303 27.1291 32.3203 27.4691 32.1103C27.6091 32.2903 27.7791 32.5003 27.9691 32.7303C26.7491 33.0803 25.9091 33.7003 25.3591 34.6703L25.3491 34.6603ZM26.4191 30.4003C26.4191 30.4003 26.3191 30.4403 26.2891 30.4003L25.5191 29.6203V29.4803L25.9191 29.0803L27.4091 27.5903L29.2491 25.7503C29.2491 25.7503 29.3091 25.7203 29.3391 25.7203C29.3591 25.7203 29.3791 25.7203 29.3891 25.7403L30.1891 26.6003C30.1891 26.6003 30.1891 26.6503 30.1591 26.6703L26.4091 30.4203L26.4191 30.4003ZM24.7591 27.4003C24.1191 27.4203 22.5591 27.3403 21.3991 26.1903C19.9891 24.7803 20.0091 22.1503 20.5491 19.8203C21.3791 20.5303 22.6191 21.2703 24.2691 21.4103C26.4191 21.6103 27.2091 22.2003 27.1591 25.0003L24.7591 27.4003ZM35.0991 37.4603C31.8991 34.3403 29.8291 31.8503 28.9291 30.7103L30.4991 29.1403C31.6391 30.0403 34.1291 32.1103 37.2491 35.3103C40.8591 39.0103 43.0991 42.4203 43.7791 43.9803C42.2191 43.3003 38.8091 41.0603 35.1091 37.4503L35.0991 37.4603Z" fill="#323232"/>
</svg>
