<svg width="24" height="24" viewBox="0 0 24 24" fill="none" xmlns="http://www.w3.org/2000/svg">
<g clip-path="url(#clip0_16335_2596)">
<path d="M20.4851 20.4853C25.1714 15.799 25.1714 8.20101 20.4851 3.51472C15.7988 -1.17157 8.20081 -1.17157 3.51452 3.51472C-1.17177 8.20101 -1.17177 15.799 3.51452 20.4853C8.20081 25.1716 15.7988 25.1716 20.4851 20.4853Z" fill="white"/>
<mask id="mask0_16335_2596" style="mask-type:luminance" maskUnits="userSpaceOnUse" x="-1" y="0" width="25" height="24">
<path d="M20.4851 20.4853C25.1714 15.799 25.1714 8.20101 20.4851 3.51472C15.7988 -1.17157 8.20081 -1.17157 3.51452 3.51472C-1.17177 8.20101 -1.17177 15.799 3.51452 20.4853C8.20081 25.1716 15.7988 25.1716 20.4851 20.4853Z" fill="white"/>
</mask>
<g mask="url(#mask0_16335_2596)">
<path d="M30.0356 0H-5.96436V24H30.0356V0Z" fill="#FF0000"/>
<path fill-rule="evenodd" clip-rule="evenodd" d="M9.76967 4.48291H14.303V9.73317H19.5519V14.2665H14.303V19.5168H9.76967V14.2665H4.51941V9.73317H9.76967V4.48291Z" fill="white"/>
</g>
</g>
<rect x="0.25" y="0.25" width="23.5" height="23.5" rx="11.75" stroke="#E5E3E1" stroke-width="0.5"/>
<defs>
<clipPath id="clip0_16335_2596">
<rect width="24" height="24" rx="12" fill="white"/>
</clipPath>
</defs>
</svg>
