<svg width="24" height="24" viewBox="0 0 24 24" fill="none" xmlns="http://www.w3.org/2000/svg">
<g clip-path="url(#clip0_16335_10664)">
<path d="M23.6733 14.7838C25.2104 8.3371 21.2303 1.865 14.7835 0.327986C8.3368 -1.20903 1.8647 2.77108 0.32769 9.2178C-1.20933 15.6645 2.77078 22.1366 9.2175 23.6736C15.6642 25.2107 22.1363 21.2305 23.6733 14.7838Z" fill="white"/>
<mask id="mask0_16335_10664" style="mask-type:luminance" maskUnits="userSpaceOnUse" x="-1" y="-1" width="26" height="26">
<path d="M23.6733 14.7838C25.2104 8.3371 21.2303 1.865 14.7835 0.327986C8.3368 -1.20903 1.8647 2.77108 0.32769 9.2178C-1.20933 15.6645 2.77078 22.1366 9.2175 23.6736C15.6642 25.2107 22.1363 21.2305 23.6733 14.7838Z" fill="white"/>
</mask>
<g mask="url(#mask0_16335_10664)">
<path d="M29.9993 0H-6.00067V24H29.9993V0Z" fill="white"/>
<path fill-rule="evenodd" clip-rule="evenodd" d="M30.0007 0H-5.99927L12 10.372L30.0007 0Z" fill="#FF0000"/>
<path fill-rule="evenodd" clip-rule="evenodd" d="M30.0007 20.7438L14.8271 11.9998L30.0007 3.25732V20.7438Z" fill="#007C29"/>
<path fill-rule="evenodd" clip-rule="evenodd" d="M-6.00067 20.7438L9.17436 11.9998L-6.00067 3.25732V20.7438Z" fill="#007C29"/>
<path fill-rule="evenodd" clip-rule="evenodd" d="M30.0007 23.9999H-5.99927L12 13.6279L30.0007 23.9999Z" fill="#FF0000"/>
<path fill-rule="evenodd" clip-rule="evenodd" d="M12 18.8239C15.7592 18.8239 18.8238 15.7578 18.8238 12.0001C18.8238 8.2423 15.7578 5.17627 12 5.17627C8.24224 5.17627 5.17621 8.2423 5.17621 12.0001C5.17621 15.7578 8.24224 18.8239 12 18.8239Z" fill="white"/>
<path fill-rule="evenodd" clip-rule="evenodd" d="M15.0549 12.1665L15.5174 12.9672H16.4425L15.98 13.768L16.4425 14.5687H15.5174L15.0549 15.3695L14.5923 14.5687H13.6686L14.1311 13.768L13.6686 12.9672H14.5923L15.0549 12.1665Z" fill="#007C29"/>
<path fill-rule="evenodd" clip-rule="evenodd" d="M15.0549 12.4946L14.6873 13.1305H13.9523L14.3198 13.7677L13.9523 14.4036H14.6873L15.0549 15.0408L15.4224 14.4036H16.1575L15.7899 13.7677L16.1575 13.1305H15.4238L15.0549 12.4946Z" fill="#FF0000"/>
<path fill-rule="evenodd" clip-rule="evenodd" d="M8.95214 12.1665L8.48958 12.9672H7.56586L8.02702 13.768L7.56586 14.5687H8.48958L8.95214 15.3695L9.4147 14.5687H10.3384L9.87726 13.768L10.3384 12.9672H9.4147L8.95214 12.1665Z" fill="#007C29"/>
<path fill-rule="evenodd" clip-rule="evenodd" d="M8.95215 12.4946L8.58461 13.1305H7.84955L8.21708 13.7677L7.84955 14.4036H8.58461L8.95215 15.0408L9.31968 14.4036H10.0547L9.68721 13.7677L10.0547 13.1305H9.31968L8.95215 12.4946Z" fill="#FF0000"/>
<path fill-rule="evenodd" clip-rule="evenodd" d="M12.0042 6.88086L11.5416 7.6816H10.6165L11.0791 8.48235L10.6165 9.2831H11.5416L12.0042 10.0838L12.4668 9.2831H13.3905L12.9279 8.48235L13.3905 7.6816H12.4668L12.0042 6.88086Z" fill="#007C29"/>
<path fill-rule="evenodd" clip-rule="evenodd" d="M12.0042 7.20947L11.6353 7.84532H10.9016L11.2691 8.48256L10.9016 9.1184H11.6353L12.0042 9.75565L12.3717 9.1184H13.1068L12.7393 8.48256L13.1068 7.84532H12.3717L12.0042 7.20947Z" fill="#FF0000"/>
</g>
</g>
<rect x="0.25" y="0.25" width="23.5" height="23.5" rx="11.75" stroke="#E5E3E1" stroke-width="0.5"/>
<defs>
<clipPath id="clip0_16335_10664">
<rect width="24" height="24" rx="12" fill="white"/>
</clipPath>
</defs>
</svg>
