<svg width="24" height="24" viewBox="0 0 24 24" fill="none" xmlns="http://www.w3.org/2000/svg">
<g clip-path="url(#clip0_16335_8250)">
<path d="M23.4854 15.4796C25.4064 9.1367 21.8218 2.43744 15.479 0.516367C9.13609 -1.4047 2.43683 2.17988 0.515759 8.52276C-1.40531 14.8656 2.17928 21.5649 8.52216 23.486C14.865 25.407 21.5643 21.8225 23.4854 15.4796Z" fill="white"/>
<mask id="mask0_16335_8250" style="mask-type:luminance" maskUnits="userSpaceOnUse" x="-1" y="-1" width="26" height="26">
<path d="M23.4854 15.4796C25.4064 9.1367 21.8218 2.43744 15.479 0.516367C9.13609 -1.4047 2.43683 2.17988 0.515759 8.52276C-1.40531 14.8656 2.17928 21.5649 8.52216 23.486C14.865 25.407 21.5643 21.8225 23.4854 15.4796Z" fill="white"/>
</mask>
<g mask="url(#mask0_16335_8250)">
<path d="M36 0H0V24H36V0Z" fill="#FF0000"/>
<path fill-rule="evenodd" clip-rule="evenodd" d="M0 0H36V12L0 0Z" fill="#007C29"/>
<path fill-rule="evenodd" clip-rule="evenodd" d="M0 24H36V12L0 24Z" fill="#00ADFE"/>
<path fill-rule="evenodd" clip-rule="evenodd" d="M8.45886 13.681C8.29675 13.2911 8.2143 12.8789 8.2143 12.4527C8.2143 11.8252 8.39737 11.2131 8.74114 10.6905L8.13045 10.0798C7.67907 10.1804 7.18717 10.056 6.83501 9.70385C6.78051 9.64935 6.7302 9.59066 6.68688 9.52917C6.91606 9.60463 7.16201 9.62 7.39818 9.57249C7.36185 9.54314 7.32831 9.5124 7.29477 9.47886C7.07257 9.25666 6.93982 8.97717 6.89929 8.68789C7.18856 8.72842 7.46806 8.86118 7.69025 9.08338C7.72379 9.11692 7.75454 9.15185 7.78388 9.18679C7.83 8.95062 7.81602 8.70606 7.74056 8.47688C7.80205 8.5202 7.86074 8.57051 7.91524 8.62501C8.2674 8.97717 8.39178 9.46908 8.29116 9.92046L8.86971 10.499C9.43289 9.63537 9.588 9.03586 9.28615 8.03109C8.88648 8.00174 8.50777 7.78094 8.29256 7.40782C8.25762 7.34773 8.22828 7.28484 8.20452 7.22196C8.38479 7.34074 8.59441 7.40922 8.80822 7.42459C8.78446 7.39105 8.76211 7.35611 8.73975 7.31978C8.5986 7.07522 8.54969 6.80412 8.58044 6.54419C8.8208 6.6462 9.03182 6.82508 9.17156 7.06963C9.19252 7.10597 9.21209 7.1437 9.22886 7.18143C9.32389 6.98858 9.36721 6.77337 9.35603 6.55677C9.39935 6.60847 9.43848 6.66577 9.47341 6.72586C9.68024 7.08361 9.69002 7.50145 9.5363 7.85221C9.75151 8.46151 9.78365 9.08058 9.61595 9.70525L9.98209 9.33911C9.89684 8.93804 10.01 8.50483 10.3217 8.19319C10.3706 8.14428 10.4237 8.09956 10.4782 8.06043C10.4111 8.26586 10.3971 8.48526 10.4391 8.69628C10.4656 8.66414 10.4936 8.63339 10.5229 8.60405C10.7227 8.40561 10.9715 8.28682 11.23 8.25049C11.1937 8.50902 11.0749 8.75917 10.8765 8.9576C10.8471 8.98695 10.815 9.0149 10.7842 9.04145C10.9952 9.08338 11.2147 9.0694 11.4201 9.00232C11.3809 9.05682 11.3362 9.10993 11.2873 9.15884C10.9757 9.47047 10.5425 9.58367 10.1414 9.49842L9.44826 10.1916C9.34065 10.4459 9.2037 10.6974 9.04579 10.9476C8.84875 11.2592 8.71599 11.6016 8.6545 11.9621L9.47062 11.4912C9.48879 10.9895 9.7557 10.5088 10.2225 10.2405C10.2951 10.1986 10.3692 10.1636 10.446 10.1343C10.3035 10.3523 10.2197 10.6024 10.2029 10.8609C10.2434 10.8316 10.2853 10.805 10.3287 10.7799C10.6221 10.6108 10.9477 10.5507 11.2608 10.5884C11.1378 10.8777 10.9226 11.1307 10.6291 11.2997C10.5858 11.3249 10.5411 11.3473 10.495 11.3682C10.7269 11.4828 10.9855 11.5359 11.2454 11.5205C11.1825 11.5723 11.1154 11.6198 11.0428 11.6617C10.576 11.9314 10.0268 11.9216 9.58381 11.6868L8.62236 12.2416C8.61677 12.3115 8.61397 12.3814 8.61397 12.4513C8.61397 12.8929 8.71599 13.3275 8.91583 13.7216C9.04719 13.9745 9.13802 14.2456 9.18554 14.5251L9.75291 13.9577C9.62574 13.4225 9.77107 12.8356 10.1875 12.4191C10.2518 12.3548 10.3203 12.2961 10.3929 12.2444C10.3049 12.5127 10.2867 12.8006 10.3412 13.0759C10.3762 13.034 10.4125 12.9935 10.4516 12.9543C10.7116 12.6944 11.0386 12.5393 11.3782 12.4904C11.3292 12.8286 11.1755 13.1556 10.9142 13.4169C10.8751 13.456 10.8345 13.4924 10.7926 13.5273C11.0679 13.5818 11.3558 13.565 11.6241 13.4756C11.5724 13.5469 11.5151 13.6153 11.4494 13.681C11.0316 14.0989 10.446 14.2428 9.91082 14.1156L9.21628 14.8102C9.21907 14.8633 9.22047 14.9178 9.22047 14.9709V17.886H8.82499V14.9709C8.82499 14.7221 8.78586 14.4776 8.7076 14.2442L7.61758 13.1542C7.08236 13.2813 6.49542 13.136 6.07898 12.7196C6.0147 12.6553 5.956 12.5868 5.9043 12.5141C6.17261 12.6022 6.46049 12.6204 6.73579 12.5658C6.69386 12.5309 6.65334 12.4946 6.61421 12.4555C6.35428 12.1955 6.19916 11.8685 6.15025 11.5289C6.48844 11.5764 6.81544 11.7316 7.07677 11.9929C7.1159 12.032 7.15223 12.0725 7.18717 12.1145C7.24167 11.8392 7.2249 11.5513 7.13546 11.283C7.20673 11.3347 7.2766 11.392 7.34089 11.4563C7.75873 11.8741 7.90267 12.4596 7.7755 12.9949L8.45886 13.6782V13.681Z" fill="#FED700"/>
<path fill-rule="evenodd" clip-rule="evenodd" d="M9.9583 17.9097C9.64807 17.5772 9.29311 17.2893 8.90462 17.0573C8.54966 16.8463 8.16536 16.6828 7.7615 16.5738C7.43868 16.6786 7.1005 16.7303 6.76091 16.7303C6.04262 16.7303 5.37882 16.4969 4.8422 16.1028C4.41877 15.7912 4.0722 15.3803 3.84022 14.9024C4.29579 15.2476 4.84919 15.4334 5.42075 15.4334C5.47385 15.4251 5.54512 15.4209 5.61779 15.4181C5.5046 15.3147 5.3942 15.2071 5.28939 15.0939C4.71084 15.0617 4.18958 14.813 3.80528 14.4287C3.39163 14.015 3.1359 13.4449 3.1359 12.8146C3.1359 12.6735 3.14848 12.5351 3.17363 12.401C3.19739 12.4401 3.22114 12.4792 3.24769 12.5183C3.49085 12.8817 3.82624 13.1779 4.22033 13.3736C4.1798 13.2688 4.14347 13.1626 4.10853 13.0536C3.84022 12.8831 3.60964 12.6581 3.43356 12.394C3.1918 12.032 3.04926 11.596 3.04926 11.1265C3.04926 10.7981 3.11773 10.4864 3.24211 10.2055C3.27704 10.3481 3.32735 10.4836 3.39024 10.6136C3.50623 10.854 3.66414 11.0692 3.85699 11.248C3.85978 11.146 3.86537 11.044 3.87236 10.942C3.76056 10.8134 3.66554 10.6709 3.59147 10.5158C3.47129 10.2656 3.40281 9.98475 3.40281 9.68709C3.40281 9.27763 3.53138 8.89752 3.75078 8.58589C3.81926 8.48946 3.89612 8.39863 3.98136 8.31618C3.97437 8.38046 3.97158 8.44474 3.97158 8.51042C3.97158 8.82904 4.05543 9.14347 4.21614 9.41738C4.25107 9.32514 4.2888 9.23431 4.32793 9.14487C4.23989 8.94503 4.19517 8.72843 4.19517 8.51042C4.19517 8.07442 4.37125 7.67893 4.65773 7.39385C4.79468 7.2569 4.95679 7.1451 5.13706 7.06545C5.08396 7.22196 5.05461 7.38826 5.05461 7.56294C5.05461 7.67893 5.06719 7.79492 5.09374 7.90672C5.15523 7.83126 5.21951 7.75859 5.28519 7.68732C5.281 7.64679 5.2796 7.60487 5.2796 7.56155C5.2796 7.19821 5.42773 6.86841 5.6653 6.62944C5.90287 6.39047 6.23267 6.24374 6.59741 6.24374C6.64912 6.24374 6.69942 6.24654 6.74973 6.25213C6.57226 6.42681 6.44229 6.6504 6.3808 6.90055C6.47863 6.83906 6.57785 6.78037 6.67986 6.72587C6.75393 6.57494 6.85873 6.44218 6.9887 6.33737C7.18155 6.18225 7.4275 6.08862 7.69581 6.08862C7.71258 6.08862 7.73075 6.08862 7.74752 6.08862C7.54768 6.17107 7.36741 6.30523 7.22906 6.47153C7.34365 6.42681 7.45964 6.38768 7.57843 6.35135C7.7587 6.213 7.98369 6.13055 8.22825 6.13055C8.34144 6.13055 8.45184 6.14871 8.55386 6.18086C8.35821 6.41703 8.06195 6.56795 7.73075 6.56795C7.67904 6.56795 7.62874 6.56376 7.57983 6.55677C7.4834 6.58752 7.38977 6.61966 7.29614 6.65599C7.42331 6.69512 7.55747 6.71469 7.69022 6.71469C7.80901 6.71469 7.925 6.69931 8.0354 6.66997C7.99208 6.72028 7.94456 6.76639 7.89286 6.80692C7.70001 6.96204 7.45405 7.05567 7.18574 7.05567C7.01385 7.05567 6.84476 7.01793 6.68964 6.94107C6.61418 6.983 6.54011 7.02772 6.46884 7.07383C6.56667 7.13532 6.67148 7.18423 6.78327 7.21917C6.88109 7.24991 6.98311 7.26948 7.08792 7.27647C7.02084 7.42739 6.92721 7.56434 6.81262 7.67893C6.57365 7.9179 6.24525 8.06463 5.88051 8.06463C5.75754 8.06463 5.63316 8.04786 5.51438 8.01293C5.46127 8.07302 5.40817 8.13451 5.35786 8.19739C5.52556 8.25748 5.70303 8.28823 5.88051 8.28823C5.90567 8.28823 5.92942 8.28823 5.95318 8.28683C5.85955 8.56912 5.68626 8.81647 5.45848 8.99954C5.23908 9.17701 4.96797 9.2958 4.67171 9.33073C4.62839 9.43135 4.58786 9.53337 4.55013 9.63678C4.77652 9.62979 4.99312 9.58088 5.19296 9.49843C5.16641 9.83522 5.05042 10.1469 4.86596 10.4068C4.70944 10.629 4.50401 10.8148 4.26644 10.949C4.25387 11.0985 4.24828 11.2494 4.24828 11.399C4.50262 11.29 4.7332 11.1335 4.92744 10.942C4.94142 10.9895 4.954 11.037 4.96378 11.0859C4.99592 11.2355 5.01269 11.3906 5.01269 11.5513C5.01269 11.8699 4.94561 12.1732 4.82403 12.4457C4.73879 12.6357 4.62839 12.8118 4.49563 12.9683C4.54174 13.1095 4.59345 13.2478 4.65075 13.3834C4.8981 13.136 5.07278 12.8663 5.21113 12.5463C5.31594 12.728 5.40398 12.9208 5.47245 13.122C5.57866 13.4379 5.63735 13.7789 5.63735 14.1338C5.63735 14.3602 5.61499 14.588 5.56608 14.8088C5.69744 14.9513 5.83719 15.0855 5.98392 15.2113C6.03423 15.0491 6.07196 14.8856 6.09852 14.7179C6.13625 14.4832 6.14882 14.2624 6.14463 14.0248C6.62955 14.2358 7.05438 14.5586 7.38698 14.9611C7.69162 15.3286 7.91801 15.7632 8.04238 16.2384C8.4169 16.3544 8.77186 16.5137 9.10306 16.7107C9.52509 16.9609 9.90939 17.2725 10.2448 17.6344L9.95551 17.9042L9.9583 17.9097Z" fill="#FED700"/>
<path fill-rule="evenodd" clip-rule="evenodd" d="M8.08293 17.9097C8.39316 17.5772 8.74812 17.2893 9.13661 17.0573C9.49157 16.8463 9.87587 16.6828 10.2797 16.5738C10.6025 16.6786 10.9407 16.7303 11.2803 16.7303C11.9986 16.7303 12.6624 16.4969 13.199 16.1028C13.6225 15.7912 13.969 15.3803 14.201 14.9024C13.7454 15.2476 13.192 15.4334 12.6205 15.4334C12.5674 15.4251 12.4961 15.4209 12.4234 15.4181C12.5366 15.3147 12.647 15.2071 12.7518 15.0939C13.3304 15.0617 13.8516 14.813 14.2359 14.4287C14.6496 14.015 14.9053 13.4449 14.9053 12.8146C14.9053 12.6735 14.8928 12.5351 14.8676 12.401C14.8438 12.4401 14.8201 12.4792 14.7935 12.5183C14.5504 12.8817 14.215 13.1779 13.8209 13.3736C13.8614 13.2688 13.8978 13.1626 13.9327 13.0536C14.201 12.8831 14.4316 12.6581 14.6077 12.394C14.8494 12.032 14.992 11.596 14.992 11.1265C14.992 10.7981 14.9235 10.4864 14.7991 10.2055C14.7642 10.3481 14.7139 10.4836 14.651 10.6136C14.535 10.854 14.3771 11.0692 14.1842 11.248C14.1814 11.146 14.1759 11.044 14.1689 10.942C14.2807 10.8134 14.3757 10.6709 14.4498 10.5158C14.5699 10.2656 14.6384 9.98475 14.6384 9.68709C14.6384 9.27763 14.5099 8.89752 14.2905 8.58589C14.222 8.48946 14.1451 8.39863 14.0599 8.31618C14.0669 8.38046 14.0697 8.44474 14.0697 8.51042C14.0697 8.82904 13.9858 9.14347 13.8251 9.41738C13.7902 9.32514 13.7524 9.23431 13.7133 9.14487C13.8013 8.94503 13.8461 8.72843 13.8461 8.51042C13.8461 8.07442 13.67 7.67893 13.3835 7.39385C13.2465 7.2569 13.0844 7.1451 12.9042 7.06545C12.9573 7.22196 12.9866 7.38826 12.9866 7.56294C12.9866 7.67893 12.974 7.79492 12.9475 7.90672C12.886 7.83126 12.8217 7.75859 12.756 7.68732C12.7602 7.64679 12.7616 7.60487 12.7616 7.56155C12.7616 7.19821 12.6135 6.86841 12.3759 6.62944C12.1384 6.39047 11.8086 6.24374 11.4438 6.24374C11.3921 6.24374 11.3418 6.24654 11.2915 6.25213C11.469 6.42681 11.5989 6.6504 11.6604 6.90055C11.5626 6.83906 11.4634 6.78037 11.3614 6.72587C11.2873 6.57494 11.1825 6.44218 11.0525 6.33737C10.8597 6.18225 10.6137 6.08862 10.3454 6.08862C10.3286 6.08862 10.3105 6.08862 10.2937 6.08862C10.4935 6.17107 10.6738 6.30523 10.8122 6.47153C10.6976 6.42681 10.5816 6.38768 10.4628 6.35135C10.2825 6.213 10.0575 6.13055 9.81298 6.13055C9.69979 6.13055 9.58939 6.14871 9.48738 6.18086C9.68302 6.41703 9.97928 6.56795 10.3105 6.56795C10.3622 6.56795 10.4125 6.56376 10.4614 6.55677C10.5578 6.58752 10.6515 6.61966 10.7451 6.65599C10.6179 6.69512 10.4838 6.71469 10.351 6.71469C10.2322 6.71469 10.1162 6.69931 10.0058 6.66997C10.0492 6.72028 10.0967 6.76639 10.1484 6.80692C10.3412 6.96204 10.5872 7.05567 10.8555 7.05567C11.0274 7.05567 11.1965 7.01793 11.3516 6.94107C11.4271 6.983 11.5011 7.02772 11.5724 7.07383C11.4746 7.13532 11.3698 7.18423 11.258 7.21917C11.1601 7.24991 11.0581 7.26948 10.9533 7.27647C11.0204 7.42739 11.114 7.56434 11.2286 7.67893C11.4676 7.9179 11.796 8.06463 12.1607 8.06463C12.2837 8.06463 12.4081 8.04786 12.5269 8.01293C12.58 8.07302 12.6331 8.13451 12.6834 8.19739C12.5157 8.25748 12.3382 8.28823 12.1607 8.28823C12.1356 8.28823 12.1118 8.28823 12.0881 8.28683C12.1817 8.56912 12.355 8.81647 12.5828 8.99954C12.8022 9.17701 13.0733 9.2958 13.3695 9.33073C13.4128 9.43135 13.4534 9.53337 13.4911 9.63678C13.2647 9.62979 13.0481 9.58088 12.8483 9.49843C12.8748 9.83522 12.9922 10.1469 13.1753 10.4068C13.3318 10.629 13.5372 10.8148 13.7748 10.949C13.7874 11.0985 13.793 11.2494 13.793 11.399C13.5386 11.29 13.308 11.1335 13.1138 10.942C13.0998 10.9895 13.0886 11.037 13.0775 11.0859C13.0453 11.2355 13.0285 11.3906 13.0285 11.5513C13.0285 11.8699 13.0956 12.1732 13.2172 12.4457C13.3024 12.6357 13.4128 12.8118 13.5456 12.9683C13.4995 13.1095 13.4478 13.2478 13.3905 13.3834C13.1431 13.136 12.9685 12.8663 12.8301 12.5463C12.7253 12.728 12.6373 12.9208 12.5688 13.122C12.4626 13.4379 12.4039 13.7789 12.4039 14.1338C12.4039 14.3602 12.4262 14.588 12.4751 14.8088C12.3438 14.9513 12.204 15.0855 12.0573 15.2113C12.007 15.0491 11.9693 14.8856 11.9427 14.7179C11.905 14.4832 11.8924 14.2624 11.8966 14.0248C11.4117 14.2358 10.9869 14.5586 10.6543 14.9611C10.3496 15.3286 10.1232 15.7632 9.99885 16.2384C9.62433 16.3544 9.26937 16.5137 8.93817 16.7107C8.51614 16.9609 8.13184 17.2725 7.79645 17.6344L8.08572 17.9042L8.08293 17.9097Z" fill="#FED700"/>
</g>
</g>
<rect x="0.25" y="0.25" width="23.5" height="23.5" rx="11.75" stroke="#E5E3E1" stroke-width="0.5"/>
<defs>
<clipPath id="clip0_16335_8250">
<rect width="24" height="24" rx="12" fill="white"/>
</clipPath>
</defs>
</svg>
