<svg width="48" height="48" viewBox="0 0 48 48" fill="none" xmlns="http://www.w3.org/2000/svg">
<path d="M24.0809 41.6902C17.4909 41.6902 12.1309 36.3302 12.1309 29.7402C12.1309 25.6402 14.2009 21.8802 17.6609 19.6602C18.1209 19.3602 18.7409 19.5002 19.0409 19.9602C19.3409 20.4202 19.2009 21.0402 18.7409 21.3402C15.8609 23.1802 14.1409 26.3202 14.1409 29.7302C14.1409 35.2202 18.6009 39.6802 24.0909 39.6802C29.5809 39.6802 34.0409 35.2202 34.0409 29.7302C34.0409 26.2702 32.2809 23.1102 29.3409 21.2702C28.8709 20.9802 28.7309 20.3602 29.0209 19.8902C29.3109 19.4202 29.9309 19.2802 30.4009 19.5702C33.9309 21.7702 36.0409 25.5702 36.0409 29.7202C36.0409 36.3102 30.6809 41.6702 24.0909 41.6702L24.0809 41.6902Z" fill="#323232"/>
<path d="M34.9505 8.30986H29.7205L26.9105 2.65986C26.6605 2.16986 26.0605 1.96986 25.5705 2.20986C25.0805 2.45986 24.8705 3.05986 25.1205 3.54986L27.4905 8.29986H20.8705L23.1205 3.77986C23.3705 3.28986 23.1605 2.68986 22.6705 2.43986C22.1805 2.19986 21.5805 2.39986 21.3305 2.88986L18.6405 8.29986H13.0605C12.5105 8.29986 12.0605 8.74986 12.0605 9.29986C12.0605 9.84986 12.5105 10.2999 13.0605 10.2999H18.5705L23.0805 21.9799C23.2305 22.3799 23.6105 22.6199 24.0105 22.6199C24.1305 22.6199 24.2505 22.5999 24.3705 22.5499C24.5505 22.4799 24.6805 22.3599 24.7905 22.2199C24.9605 22.1099 25.0905 21.9499 25.1705 21.7499L29.5905 10.2999H34.9605C35.5105 10.2999 35.9605 9.84986 35.9605 9.29986C35.9605 8.74986 35.5105 8.29986 34.9605 8.29986L34.9505 8.30986ZM24.0705 19.0299L20.7105 10.3099H27.4405L24.0705 19.0299Z" fill="#8DE2E0"/>
<path d="M23.9905 46.1199C14.9305 46.1199 7.56055 38.7499 7.56055 29.6899C7.56055 24.3499 10.1705 19.3199 14.5405 16.2499C14.9905 15.9299 15.6205 16.0399 15.9305 16.4899C16.2505 16.9399 16.1405 17.5699 15.6905 17.8799C11.8505 20.5799 9.56055 24.9999 9.56055 29.6899C9.56055 37.6499 16.0305 44.1199 23.9905 44.1199C31.9505 44.1199 38.4305 37.6499 38.4305 29.6899C38.4305 24.9899 36.1305 20.5799 32.2905 17.8799C31.8405 17.5599 31.7305 16.9399 32.0505 16.4899C32.3705 16.0399 32.9905 15.9299 33.4405 16.2499C37.8205 19.3199 40.4305 24.3499 40.4305 29.6999C40.4305 38.7599 33.0505 46.1299 23.9905 46.1299V46.1199Z" fill="#323232"/>
<path d="M23.9998 22.6299C23.7098 22.6299 23.4398 22.5099 23.2498 22.2899L12.2998 9.96988C12.0298 9.66988 11.9698 9.22988 12.1498 8.86988L15.2998 2.43988C15.4698 2.09988 15.8198 1.87988 16.1998 1.87988H31.8098C32.1898 1.87988 32.5398 2.09988 32.7098 2.43988L35.8598 8.86988C36.0398 9.22988 35.9798 9.66988 35.7098 9.96988L24.7598 22.2899C24.5698 22.4999 24.2998 22.6299 24.0098 22.6299H23.9998ZM14.2398 9.14988L23.9998 20.1299L33.7598 9.14988L31.1798 3.87988H16.8198L14.2398 9.14988Z" fill="#323232"/>
</svg>
