<svg width="48" height="48" viewBox="0 0 48 48" fill="none" xmlns="http://www.w3.org/2000/svg">
<path d="M39.1198 8.81986H38.3098L37.0098 6.05986C36.7598 5.51986 36.2098 5.16986 35.6098 5.16986H33.5198L32.3198 2.72986C32.0598 2.19986 31.5098 1.85986 30.9298 1.85986H17.1998C16.5998 1.85986 16.0698 2.18986 15.8098 2.72986L14.6098 5.16986H12.5198C11.9198 5.16986 11.3698 5.51986 11.1198 6.05986L9.81977 8.81986H9.00977C8.17977 8.81986 7.50977 9.48986 7.50977 10.3199V13.0899C7.50977 13.9199 8.17977 14.5899 9.00977 14.5899H10.0698C10.0698 14.6499 10.0698 14.7199 10.0698 14.7799L12.8298 42.3299C12.9298 43.3499 13.7898 44.1199 14.8198 44.1199H25.5498C26.0998 44.1199 26.5498 43.6699 26.5498 43.1199C26.5498 42.5699 26.0998 42.1199 25.5498 42.1199H14.8198L12.0498 14.5799H36.0798L34.3098 32.2799C34.2598 32.8299 34.6598 33.3199 35.2098 33.3699C35.7698 33.4299 36.2498 33.0199 36.2998 32.4699L38.0698 14.7599C38.0698 14.6899 38.0698 14.6299 38.0698 14.5699H39.1298C39.9598 14.5699 40.6298 13.8999 40.6298 13.0699V10.2999C40.6298 9.46986 39.9598 8.79986 39.1298 8.79986L39.1198 8.81986ZM17.4698 3.84986H30.6498L31.2998 5.15986H16.8298L17.4798 3.84986H17.4698ZM12.7998 7.15986H35.3298L36.1098 8.81986H12.0198L12.7998 7.15986ZM38.6198 12.5899H9.49977V10.8199H38.6198V12.5899Z" fill="#323232"/>
<path d="M33.0606 34.25C29.8006 34.25 27.1406 36.9 27.1406 40.17C27.1406 43.44 29.8006 46.09 33.0606 46.09C36.3206 46.09 38.9806 43.44 38.9806 40.17C38.9806 36.9 36.3206 34.25 33.0606 34.25ZM33.0606 44.09C30.9006 44.09 29.1406 42.33 29.1406 40.17C29.1406 38.01 30.9006 36.25 33.0606 36.25C35.2206 36.25 36.9806 38.01 36.9806 40.17C36.9806 42.33 35.2206 44.09 33.0606 44.09Z" fill="#323232"/>
<path d="M33.0598 42.1402C34.1478 42.1402 35.0298 41.2582 35.0298 40.1702C35.0298 39.0822 34.1478 38.2002 33.0598 38.2002C31.9718 38.2002 31.0898 39.0822 31.0898 40.1702C31.0898 41.2582 31.9718 42.1402 33.0598 42.1402Z" fill="#8DE2E0"/>
</svg>
