<svg width="48" height="48" viewBox="0 0 48 48" fill="none" xmlns="http://www.w3.org/2000/svg">
<path d="M38.0304 43.6199C34.9104 43.6199 34.8204 40.8699 34.7804 39.3999L34.7604 38.9299C34.7504 38.6599 34.8505 38.3899 35.0405 38.1899C35.2305 37.9899 35.4904 37.8799 35.7604 37.8799H39.9005C40.4005 37.8799 40.8205 38.2499 40.8905 38.7399C41.0005 39.5399 41.1404 41.5199 40.1004 42.7199C39.5904 43.3099 38.8705 43.6199 38.0304 43.6199ZM36.8005 39.8799C36.8805 41.3399 37.1304 41.6199 38.0304 41.6199C38.3704 41.6199 38.5004 41.5099 38.6004 41.4099C38.8404 41.1399 38.9705 40.5699 38.9705 39.8799H36.8005Z" fill="#323232"/>
<path d="M44.22 18.8695C44 18.6195 43.8 18.3595 43.59 18.0995C43.06 17.4295 42.51 16.7395 41.78 16.2095C39.26 14.3595 37.84 11.9195 37.31 8.51955C37.17 7.60955 36.81 6.78955 36.46 5.99955C36.32 5.66955 36.17 5.34955 36.05 5.01955C35.92 4.66955 35.59 4.41955 35.22 4.37955C34.85 4.33955 34.48 4.51955 34.27 4.82955C33.84 5.49955 33.73 6.07955 33.65 6.54955L33.63 6.65955C33.56 7.04955 33.48 7.43955 33.41 7.81955C33.22 8.83955 33.03 9.88955 32.78 10.8895C32.65 11.4195 32.42 11.6895 32.1 11.6895C30.08 11.7395 28.41 11.2795 27.01 10.3295C26.62 10.0595 26.49 9.51955 26.7 9.06955C26.89 8.66955 27.07 8.25955 27.27 7.79955L27.57 7.11955C27.71 6.80955 27.68 6.44955 27.5 6.16955C27.32 5.88955 27 5.70955 26.66 5.70955H25.26C24.28 5.71955 23.37 5.72955 22.46 5.70955C20.28 5.63955 19.61 6.94955 19.44 8.05955C19.4 8.28955 19.26 8.57955 19.11 8.88955L19 9.10955C18.93 9.25955 18.8 9.32955 18.73 9.34955C18.66 9.36955 18.52 9.39955 18.37 9.32955C18.04 9.15955 17.73 8.97955 17.35 8.75955C16.45 8.22955 15.28 8.49955 14.68 9.36955L14.19 10.0795C13.54 11.0295 12.86 12.0095 12.3 13.0495C12.04 13.5395 12.22 14.1395 12.7 14.4095C13.19 14.6695 13.79 14.4895 14.06 14.0095C14.57 13.0695 15.19 12.1695 15.84 11.2295L16.34 10.4995C16.76 10.7495 17.11 10.9495 17.47 11.1295C18.06 11.4295 18.74 11.4795 19.38 11.2695C20.02 11.0495 20.53 10.5995 20.82 9.99955L20.92 9.79955C21.12 9.39955 21.35 8.93955 21.43 8.40955C21.51 7.93955 21.58 7.72955 22.43 7.73955C23.31 7.75955 24.2 7.75955 25.14 7.74955C25.06 7.91955 24.99 8.07955 24.91 8.24955C24.27 9.60955 24.68 11.1895 25.9 12.0195C27.63 13.1895 29.72 13.7495 32.14 13.7295C33.4 13.7095 34.37 12.8395 34.73 11.4195C34.96 10.4995 35.14 9.56955 35.31 8.65955C35.32 8.72955 35.34 8.78955 35.35 8.85955C35.96 12.7595 37.68 15.6995 40.61 17.8495C41.12 18.2295 41.56 18.7795 42.03 19.3695C42.26 19.6595 42.49 19.9495 42.73 20.2195C44.23 21.9395 44.62 23.9195 43.88 26.1095C43.5 27.2195 43 28.2895 42.47 29.4195C42.23 29.9195 42 30.4295 41.77 30.9295L40.17 34.5295C39.82 34.6195 39.4 34.7295 38.99 34.7895C38.95 34.7895 38.91 34.7895 38.87 34.7895C38.8 34.7895 38.75 34.7895 38.75 34.7895C37.5 33.8395 36.13 33.8595 34.91 34.8595C34.55 35.1595 34.39 35.1795 33.99 34.7995C33.81 34.6295 33.63 34.4695 33.45 34.3095C32.5 33.4595 31.69 32.7195 31.46 31.5495C31.35 30.9895 31.03 30.5295 30.57 30.2595C30.02 29.9395 29.31 29.8995 28.56 30.1395C28.37 30.1995 28.2 30.2795 28.04 30.3595L27.97 30.2995C27.53 29.8995 27.1 29.4995 26.65 29.1195C24.5 27.2795 22.1 26.8495 19.69 27.8695C18.27 28.4695 16.94 29.2395 15.64 29.9895L14.95 30.3895C14.3 30.7695 13.65 31.1695 13.01 31.5695C12.24 32.0495 11.44 32.5495 10.64 32.9795C10.46 33.0795 10.25 33.1495 9.86997 33.2895C9.84997 32.0895 9.28997 31.2395 8.78997 30.4895C8.69997 30.3595 8.61997 30.2295 8.53997 30.0995C6.78997 27.2995 5.81997 25.0195 5.38997 22.7195C5.03997 20.8095 5.27997 20.4095 7.09997 19.8095L7.26997 19.7495C7.51997 19.6695 7.76997 19.5795 8.01997 19.5295C9.06997 19.3295 9.98997 18.9395 10.81 18.3495C10.79 17.5395 10.66 16.7695 10.45 16.0495C10.45 16.0495 10.43 16.0595 10.42 16.0695C9.64997 16.8795 8.76997 17.3495 7.65997 17.5495C7.28997 17.6195 6.94997 17.7295 6.63997 17.8395L6.47997 17.8895C3.69997 18.8095 2.89997 20.1595 3.42997 23.0595C3.89997 25.6195 4.95997 28.1095 6.84997 31.1395C6.93997 31.2795 7.02997 31.4295 7.12997 31.5695C7.53997 32.1895 7.86997 32.6895 7.86997 33.2995C7.86997 33.8895 8.14997 34.4295 8.61997 34.7995C9.10997 35.1795 9.75997 35.3095 10.36 35.1695C10.73 35.0795 11.17 34.9495 11.59 34.7295C12.44 34.2695 13.26 33.7495 14.06 33.2495C14.68 32.8595 15.3 32.4795 15.93 32.1095L16.63 31.7095C17.87 30.9895 19.15 30.2495 20.46 29.6995C22.15 28.9895 23.79 29.2995 25.34 30.6195C25.77 30.9895 26.18 31.3695 26.6 31.7495L27.2 32.2995C27.51 32.5795 27.96 32.6395 28.33 32.4495C28.45 32.3895 28.57 32.3195 28.68 32.2595C28.87 32.1495 29.03 32.0595 29.17 32.0195C29.32 31.9695 29.43 31.9595 29.5 31.9595C29.87 33.7495 31.06 34.8195 32.1 35.7695C32.27 35.9195 32.44 36.0795 32.61 36.2395C33.19 36.7896 33.83 37.0595 34.46 37.0595C35.04 37.0595 35.62 36.8395 36.16 36.3895C36.66 35.9795 37.02 35.9695 37.53 36.3595C38.05 36.7495 38.77 36.8095 39.28 36.7395C39.84 36.6595 40.39 36.5095 40.78 36.4095L41.12 36.3195C41.42 36.2495 41.67 36.0395 41.8 35.7595L43.6 31.7195C43.82 31.2295 44.05 30.7395 44.28 30.2495C44.81 29.1195 45.36 27.9495 45.78 26.7295C46.75 23.8495 46.22 21.1395 44.24 18.8795L44.22 18.8695Z" fill="#323232"/>
<path d="M39.9698 29.5997C40.7761 29.5997 41.4298 28.946 41.4298 28.1397C41.4298 27.3334 40.7761 26.6797 39.9698 26.6797C39.1634 26.6797 38.5098 27.3334 38.5098 28.1397C38.5098 28.946 39.1634 29.5997 39.9698 29.5997Z" fill="#DF0000"/>
<path d="M9.53031 27.5704C10.3366 27.5704 10.9903 26.9167 10.9903 26.1104C10.9903 25.3041 10.3366 24.6504 9.53031 24.6504C8.72398 24.6504 8.07031 25.3041 8.07031 26.1104C8.07031 26.9167 8.72398 27.5704 9.53031 27.5704Z" fill="#DF0000"/>
<path d="M2.76957 14.6802C2.59957 14.6802 2.43957 14.6202 2.30957 14.4902C2.05957 14.2402 2.05957 13.8202 2.30957 13.5702L7.37957 8.49023C7.62957 8.24023 8.04957 8.24023 8.29957 8.49023C8.54957 8.74023 8.54957 9.16023 8.29957 9.41023L3.22957 14.4902C3.09957 14.6202 2.93957 14.6802 2.76957 14.6802Z" fill="#DF0000"/>
<path d="M7.83957 14.6802C7.66957 14.6802 7.50957 14.6202 7.37957 14.4902L2.30957 9.41023C2.05957 9.16023 2.05957 8.74023 2.30957 8.49023C2.55957 8.24023 2.97957 8.24023 3.22957 8.49023L8.29957 13.5702C8.54957 13.8202 8.54957 14.2402 8.29957 14.4902C8.16957 14.6202 8.00957 14.6802 7.83957 14.6802Z" fill="#DF0000"/>
<path d="M40.1702 24.1401C40.1102 24.0301 34.2802 14.3601 24.1502 15.2101L22.7002 16.6601L23.3602 17.3201C27.1502 16.7201 30.7402 17.7201 34.0502 20.3101C36.8702 22.5201 38.4302 25.1201 38.4402 25.1501C38.6302 25.4701 38.9602 25.6401 39.3002 25.6401C39.4702 25.6401 39.6502 25.6001 39.8102 25.5001C40.2902 25.2201 40.4402 24.6101 40.1602 24.1301L40.1702 24.1401Z" fill="#8DE2E0"/>
<path d="M11.1204 23.9398C10.9404 23.9398 10.7504 23.8898 10.5904 23.7898C10.2104 23.5498 10.0304 23.0898 10.1604 22.6598C11.5004 18.1598 10.7504 14.6498 7.94042 12.2498C7.52042 11.8898 7.47042 11.2598 7.83042 10.8398C8.19042 10.4198 8.82042 10.3698 9.24042 10.7298C11.2104 12.4198 13.2204 15.3398 12.7204 20.0798C14.1204 18.7898 15.4804 17.6298 16.9004 16.8898C17.3904 16.6298 17.9904 16.8198 18.2504 17.3098C18.5104 17.7998 18.3204 18.3998 17.8304 18.6598C16.2904 19.4698 14.7804 20.8898 13.0304 22.5298C12.6304 22.9098 12.2204 23.2898 11.8004 23.6798C11.6104 23.8498 11.3704 23.9398 11.1204 23.9398Z" fill="#8DE2E0"/>
<path d="M22.71 16.6602L24.79 14.5802C25.04 14.3302 25.04 13.9102 24.79 13.6602C24.54 13.4102 24.12 13.4102 23.87 13.6602L21.79 15.7402L19.71 13.6602C19.46 13.4102 19.04 13.4102 18.79 13.6602C18.54 13.9102 18.54 14.3302 18.79 14.5802L20.87 16.6602L18.79 18.7402C18.54 18.9902 18.54 19.4102 18.79 19.6602C18.92 19.7902 19.08 19.8502 19.25 19.8502C19.42 19.8502 19.58 19.7902 19.71 19.6602L21.79 17.5802L23.87 19.6602C24 19.7902 24.16 19.8502 24.33 19.8502C24.5 19.8502 24.66 19.7902 24.79 19.6602C25.04 19.4102 25.04 18.9902 24.79 18.7402L22.71 16.6602Z" fill="#DF0000"/>
</svg>
