<svg width="48" height="48" viewBox="0 0 48 48" fill="none" xmlns="http://www.w3.org/2000/svg">
<path d="M24 46.2202C11.73 46.2202 1.75 36.2402 1.75 23.9702C1.75 11.7002 11.73 1.72021 24 1.72021C36.27 1.72021 46.25 11.7002 46.25 23.9702C46.25 36.2402 36.27 46.2202 24 46.2202ZM24 3.72021C12.83 3.72021 3.75 12.8102 3.75 23.9702C3.75 35.1302 12.83 44.2202 24 44.2202C35.17 44.2202 44.25 35.1402 44.25 23.9702C44.25 12.8002 35.17 3.72021 24 3.72021Z" fill="#323232"/>
<path d="M16.4494 34.0798C16.1594 34.0798 15.8694 33.9498 15.6694 33.7098C15.3194 33.2798 15.3894 32.6498 15.8094 32.2998C18.2194 30.3398 21.0394 29.2998 23.9694 29.2998C26.5594 29.2998 29.0894 30.1198 31.2994 31.6698C31.5194 31.8298 31.7394 31.9898 31.9594 32.1598C32.3894 32.4998 32.4694 33.1298 32.1194 33.5598C31.7794 33.9898 31.1494 34.0698 30.7194 33.7198C30.5394 33.5698 30.3494 33.4298 30.1494 33.2998C28.2694 31.9798 26.1394 31.2898 23.9594 31.2898C21.4894 31.2898 19.1094 32.1698 17.0594 33.8398C16.8694 33.9898 16.6494 34.0698 16.4294 34.0698L16.4494 34.0798Z" fill="#323232"/>
<path fill-rule="evenodd" clip-rule="evenodd" d="M30.0708 22.75C31.1908 22.75 32.0908 21.84 32.0908 20.73C32.0908 19.62 31.1808 18.71 30.0708 18.71C28.9608 18.71 28.0508 19.62 28.0508 20.73C28.0508 21.84 28.9608 22.75 30.0708 22.75Z" fill="#323232"/>
<path fill-rule="evenodd" clip-rule="evenodd" d="M17.9302 22.75C19.0502 22.75 19.9502 21.84 19.9502 20.73C19.9502 19.62 19.0402 18.71 17.9302 18.71C16.8202 18.71 15.9102 19.62 15.9102 20.73C15.9102 21.84 16.8202 22.75 17.9302 22.75Z" fill="#323232"/>
<path fill-rule="evenodd" clip-rule="evenodd" d="M38.4309 14.8899C39.3109 13.6399 37.6009 10.9299 34.6309 8.84995C31.6509 6.76995 28.5309 6.08995 27.6509 7.34995C26.7709 8.59995 29.6109 9.10994 32.5809 11.1899C35.5609 13.2699 37.5509 16.1399 38.4209 14.8899" fill="#8DE2E0"/>
</svg>
