<svg width="48" height="48" viewBox="0 0 48 48" fill="none" xmlns="http://www.w3.org/2000/svg">
<path d="M21.05 46.1798C10.55 46.1798 2 37.6398 2 27.1298C2 16.6198 10.54 8.08984 21.05 8.08984C31.56 8.08984 40.1 16.6298 40.1 27.1398C40.1 37.6498 31.56 46.1898 21.05 46.1898V46.1798ZM21.05 10.0898C11.65 10.0898 4 17.7398 4 27.1398C4 36.5398 11.65 44.1898 21.05 44.1898C30.45 44.1898 38.1 36.5398 38.1 27.1398C38.1 17.7398 30.45 10.0898 21.05 10.0898Z" fill="#323232"/>
<path d="M21.0491 40.1599C18.8391 40.1599 17.0391 38.0899 17.0391 35.5499C17.0391 33.0099 18.8391 30.9399 21.0491 30.9399C23.2591 30.9399 25.0591 33.0099 25.0591 35.5499C25.0591 38.0899 23.2591 40.1599 21.0491 40.1599ZM21.0491 32.9499C19.9391 32.9499 19.0391 34.1199 19.0391 35.5599C19.0391 36.9999 19.9391 38.1699 21.0491 38.1699C22.1591 38.1699 23.0591 36.9999 23.0591 35.5599C23.0591 34.1199 22.1591 32.9499 21.0491 32.9499Z" fill="#323232"/>
<path d="M27.0591 26.87C25.1791 26.87 23.6491 25.34 23.6491 23.46C23.6491 22.91 24.0991 22.46 24.6491 22.46C25.1991 22.46 25.6491 22.91 25.6491 23.46C25.6491 24.24 26.2791 24.87 27.0591 24.87C27.8391 24.87 28.4691 24.24 28.4691 23.46C28.4691 22.91 28.9191 22.46 29.4691 22.46C30.0191 22.46 30.4691 22.91 30.4691 23.46C30.4691 25.34 28.9391 26.87 27.0591 26.87ZM15.0291 26.87C13.1491 26.87 11.6191 25.34 11.6191 23.46C11.6191 22.91 12.0691 22.46 12.6191 22.46C13.1691 22.46 13.6191 22.91 13.6191 23.46C13.6191 24.24 14.2491 24.87 15.0291 24.87C15.8091 24.87 16.4391 24.24 16.4391 23.46C16.4391 22.91 16.8891 22.46 17.4391 22.46C17.9891 22.46 18.4391 22.91 18.4391 23.46C18.4391 25.34 16.9091 26.87 15.0291 26.87Z" fill="#323232"/>
<path fill-rule="evenodd" clip-rule="evenodd" d="M33.4102 19.3998C34.1602 18.3398 32.7102 16.0398 30.1802 14.2698C27.6502 12.4998 25.0002 11.9298 24.2602 12.9898C23.5102 14.0498 25.9202 14.4798 28.4502 16.2498C30.9802 18.0198 32.6702 20.4598 33.4102 19.3898" fill="#8DE2E0"/>
<path d="M38.5205 10.91H33.5705C33.1805 10.91 32.8205 10.68 32.6605 10.32C32.5005 9.95996 32.5605 9.54996 32.8205 9.24996L36.3305 5.20996H33.7205C33.1705 5.20996 32.7205 4.75996 32.7205 4.20996C32.7205 3.65996 33.1705 3.20996 33.7205 3.20996H38.5205C38.9105 3.20996 39.2705 3.43996 39.4305 3.79996C39.5905 4.15996 39.5305 4.56996 39.2705 4.86996L35.7605 8.90996H38.5205C39.0705 8.90996 39.5205 9.35996 39.5205 9.90996C39.5205 10.46 39.0705 10.91 38.5205 10.91Z" fill="#323232"/>
<path d="M44.9992 8.05977H41.5492C41.1692 8.05977 40.8092 7.83977 40.6492 7.48977C40.4792 7.13977 40.5292 6.72977 40.7692 6.42977L42.9192 3.75977H41.6592C41.1092 3.75977 40.6592 3.30977 40.6592 2.75977C40.6592 2.20977 41.1092 1.75977 41.6592 1.75977H45.0092C45.3892 1.75977 45.7492 1.97977 45.9092 2.32977C46.0792 2.67977 46.0292 3.08977 45.7892 3.38977L43.6392 6.05977H45.0092C45.5592 6.05977 46.0092 6.50977 46.0092 7.05977C46.0092 7.60977 45.5592 8.05977 45.0092 8.05977H44.9992Z" fill="#323232"/>
</svg>
