<svg width="24" height="24" viewBox="0 0 24 24" fill="none" xmlns="http://www.w3.org/2000/svg">
<path d="M13 10V8H11V10H13Z" fill="#323232"/>
<path d="M13 13V11H11V13H13Z" fill="#323232"/>
<path d="M11 14H13V16H11V14Z" fill="#323232"/>
<path fill-rule="evenodd" clip-rule="evenodd" d="M12 2C12.5523 2 13 2.44772 13 3V5H15C15.5523 5 16 5.44772 16 6V8.32371L20.3714 10.0723C20.751 10.2241 21 10.5918 21 11.0007V20H22.5V22H1.5V20H3V14.0007C3 13.5918 3.24895 13.2241 3.62861 13.0723L8 11.3237V6C8 5.44772 8.44772 5 9 5H11V3C11 2.44772 11.4477 2 12 2ZM10 20V7H14V20H10ZM19 20V11.6778L16 10.4778V20H19ZM8 13.4778V20H5V14.6778L8 13.4778Z" fill="#323232"/>
</svg>
