<svg width="48" height="48" viewBox="0 0 48 48" fill="none" xmlns="http://www.w3.org/2000/svg">
<path d="M45.25 20.7C45.25 13.18 37.87 2.75 24 2.75C12.48 2.75 2.75 10.97 2.75 20.7C2.75 29.23 8.44 31.17 12.69 31.62C14.04 32.68 15.06 33.89 15.73 35.24C17.06 38.05 16.92 41.05 16.77 44.21C16.76 44.48 16.86 44.75 17.05 44.95C17.24 45.15 17.5 45.26 17.77 45.26H30.22C30.77 45.26 31.22 44.81 31.22 44.26V43.46C31.21 40.56 31.2 37.83 32.37 35.23C32.99 33.93 33.94 32.76 35.17 31.74C41.57 31.59 45.24 27.59 45.24 20.7H45.25ZM30.86 33.8H17.24C16.83 33.08 16.34 32.4 15.76 31.75H32.29C31.73 32.39 31.25 33.08 30.86 33.8ZM18.82 43.25C18.92 40.78 18.91 38.26 18.09 35.8H30.02C29.23 38.28 29.21 40.8 29.22 43.25H18.82ZM34.81 29.75H15.9C10.11 29.75 4.75 28.65 4.75 20.7C4.75 12.06 13.57 4.75 24 4.75C36.56 4.75 43.25 14.01 43.25 20.7C43.25 28.18 38.66 29.75 34.81 29.75Z" fill="#323232"/>
<path fill-rule="evenodd" clip-rule="evenodd" d="M37.541 17.4299C38.261 15.6199 35.831 12.3799 32.121 10.1999C28.411 8.00986 24.821 7.70986 24.101 9.51986C23.381 11.3299 26.621 11.4699 30.331 13.6599C34.041 15.8499 36.821 19.2499 37.541 17.4399" fill="#8DE2E0"/>
</svg>
