<svg width="24" height="24" viewBox="0 0 24 24" fill="none" xmlns="http://www.w3.org/2000/svg">
<path fill-rule="evenodd" clip-rule="evenodd" d="M6.16667 2H17.8333C20.135 2 22 3.86583 22 6.16667V17.8333C22 20.1342 20.135 22 17.8333 22H6.16667C3.86583 22 2 20.1342 2 17.8333V6.16667C2 3.86583 3.86583 2 6.16667 2ZM8.66667 17.8333V8.66667H6.16667V17.8333H8.66667ZM7.41667 7.61C6.61167 7.61 5.95833 6.95167 5.95833 6.14C5.95833 5.32833 6.61167 4.67 7.41667 4.67C8.22167 4.67 8.875 5.32833 8.875 6.14C8.875 6.95167 8.2225 7.61 7.41667 7.61ZM16.1667 17.8333H18.6667V12.2008C18.6667 7.82333 13.9967 7.9825 12.8333 10.1375V8.66667H10.3333V17.8333H12.8333V13.1633C12.8333 10.5692 16.1667 10.3567 16.1667 13.1633V17.8333Z" fill="#323232"/>
</svg>
