<svg width="48" height="48" viewBox="0 0 48 48" fill="none" xmlns="http://www.w3.org/2000/svg">
<path d="M33.7003 32.4502H14.4203C14.1503 32.4502 13.9003 32.5802 13.7503 32.8102L8.96032 40.0602C8.52032 40.7202 9.00032 41.6102 9.79032 41.6102H38.3203C39.1203 41.6102 39.5903 40.7202 39.1503 40.0602L34.3603 32.8102C34.2103 32.5902 33.9603 32.4502 33.6903 32.4502H33.7003Z" fill="#DF0000"/>
<path d="M24.1105 17.4206C18.3805 17.4206 13.0605 14.9306 8.2805 10.0206C7.8905 9.62058 7.9005 8.99058 8.3005 8.61058C8.7005 8.22058 9.3305 8.23058 9.7105 8.63058C14.0905 13.1406 18.9305 15.4206 24.1005 15.4206C30.0305 15.4206 35.2505 12.9806 38.4105 8.73058C38.7405 8.29058 39.3705 8.19058 39.8105 8.52058C40.2505 8.85058 40.3505 9.48058 40.0205 9.92058C36.4805 14.6906 30.6805 17.4206 24.1105 17.4206Z" fill="#DF0000"/>
<path d="M6.83031 36.6001H5.88031V11.8701C5.88031 11.3201 5.43031 10.8701 4.88031 10.8701C4.33031 10.8701 3.88031 11.3201 3.88031 11.8701V36.6001H2.82031C2.27031 36.6001 1.82031 37.0501 1.82031 37.6001C1.82031 38.1501 2.27031 38.6001 2.82031 38.6001H6.83031C7.38031 38.6001 7.83031 38.1501 7.83031 37.6001C7.83031 37.0501 7.38031 36.6001 6.83031 36.6001Z" fill="#323232"/>
<path d="M45.1702 36.6001H44.2202V11.8701C44.2202 11.3201 43.7702 10.8701 43.2202 10.8701C42.6702 10.8701 42.2202 11.3201 42.2202 11.8701V36.6001H41.1602C40.6102 36.6001 40.1602 37.0501 40.1602 37.6001C40.1602 38.1501 40.6102 38.6001 41.1602 38.6001H45.1702C45.7202 38.6001 46.1702 38.1501 46.1702 37.6001C46.1702 37.0501 45.7202 36.6001 45.1702 36.6001Z" fill="#323232"/>
<path d="M4.89 9.18039C5.93 9.18039 6.78 8.33039 6.78 7.29039C6.78 6.25039 5.93 5.40039 4.89 5.40039C3.85 5.40039 3 6.25039 3 7.29039C3 8.33039 3.85 9.18039 4.89 9.18039Z" fill="#323232"/>
<path d="M43.2298 9.18039C44.2698 9.18039 45.1198 8.33039 45.1198 7.29039C45.1198 6.25039 44.2698 5.40039 43.2298 5.40039C42.1898 5.40039 41.3398 6.25039 41.3398 7.29039C41.3398 8.33039 42.1898 9.18039 43.2298 9.18039Z" fill="#323232"/>
</svg>
