<svg width="48" height="48" viewBox="0 0 48 48" fill="none" xmlns="http://www.w3.org/2000/svg">
<path d="M19.1906 32.0398L10.4906 40.7398L7.39062 39.4298L16.9806 29.8398L19.1906 32.0398Z" fill="#8DE2E0"/>
<path d="M32.5395 12.4999C35.3295 12.4999 37.5995 10.2299 37.5995 7.43988C37.5995 4.64988 35.3295 2.37988 32.5395 2.37988C29.7495 2.37988 27.4795 4.64988 27.4795 7.43988C27.4795 10.2299 29.7495 12.4999 32.5395 12.4999ZM32.5395 4.37988C34.2295 4.37988 35.5995 5.74988 35.5995 7.43988C35.5995 9.12988 34.2295 10.4999 32.5395 10.4999C30.8495 10.4999 29.4795 9.12988 29.4795 7.43988C29.4795 5.74988 30.8495 4.37988 32.5395 4.37988Z" fill="#323232"/>
<path d="M43.369 21.2297C43.369 21.2297 39.709 21.1897 38.479 17.5297C38.299 17.0097 37.739 16.7197 37.209 16.8997C36.689 17.0797 36.409 17.6397 36.579 18.1697C37.929 22.1697 41.609 23.2297 43.369 23.2297C43.919 23.2297 44.369 22.7797 44.369 22.2297C44.369 21.6797 43.919 21.2297 43.369 21.2297Z" fill="#323232"/>
<path d="M34.9493 30.7299C31.1593 30.0899 31.1593 26.7799 31.1693 26.3599V19.6899C31.1693 19.1399 30.7193 18.6899 30.1693 18.6899C29.6193 18.6899 29.1693 19.1399 29.1693 19.6899V26.3099C29.0893 28.1899 30.1093 31.9399 34.6093 32.6899C36.4093 32.9899 37.8293 34.2799 38.7993 36.5199C39.4293 37.9699 39.7593 39.6199 39.7593 41.4199V44.0599C39.7593 44.6099 40.2093 45.0599 40.7593 45.0599C41.3093 45.0599 41.7593 44.6099 41.7593 44.0599V41.4199C41.7593 39.3399 41.3793 37.4199 40.6393 35.7099C39.3893 32.8599 37.4193 31.1299 34.9493 30.7099V30.7299Z" fill="#323232"/>
<path d="M31.0195 31.9697C30.4795 31.8297 29.9395 32.1597 29.7995 32.6897C29.7795 32.7597 27.9295 39.6497 21.6795 41.8197C21.1595 41.9997 20.8795 42.5697 21.0595 43.0897C21.1995 43.4997 21.5895 43.7597 21.9995 43.7597C22.1095 43.7597 22.2195 43.7397 22.3295 43.6997C29.6095 41.1697 31.6495 33.4997 31.7295 33.1697C31.8695 32.6397 31.5395 32.0897 31.0095 31.9597L31.0195 31.9697Z" fill="#323232"/>
<path d="M19.8891 32.7501L24.5691 28.0701C24.7791 27.8601 24.8691 27.5901 24.8591 27.3201C24.8591 27.3101 24.8591 27.3001 24.8591 27.2801V21.5001C24.8591 17.6101 31.3191 16.5001 33.8991 16.2201V28.4101C33.8991 28.9601 34.3491 29.4101 34.8991 29.4101C35.4491 29.4101 35.8991 28.9601 35.8991 28.4101V15.1301C35.8991 14.8601 35.7891 14.6001 35.5891 14.4101C35.3891 14.2201 35.1291 14.1201 34.8591 14.1301C34.3691 14.1501 22.8591 14.6801 22.8591 21.5001V26.9501L19.1791 30.6301L15.4191 26.8701C14.3991 25.8501 12.6291 25.8501 11.6091 26.8701L4.40914 34.0701C3.89914 34.5801 3.61914 35.2501 3.61914 35.9701C3.61914 36.6901 3.89914 37.3701 4.40914 37.8701L6.56914 40.0201C5.94914 40.6401 5.60914 41.4601 5.60914 42.3301C5.60914 43.2001 5.94914 44.0301 6.56914 44.6401C7.18914 45.2601 8.00914 45.6001 8.87914 45.6001C9.74914 45.6001 10.5791 45.2601 11.1891 44.6401C11.8091 44.0201 12.1491 43.2001 12.1491 42.3301C12.1491 41.8001 12.0091 41.3001 11.7791 40.8401L19.8891 32.7301V32.7501ZM5.82914 36.4601C5.69914 36.3301 5.62914 36.1501 5.62914 35.9701C5.62914 35.7901 5.69914 35.6101 5.82914 35.4801L13.0291 28.2801C13.2991 28.0101 13.7391 28.0101 14.0091 28.2801L17.7691 32.0401L10.3491 39.4601C9.77914 39.1801 9.13914 39.0801 8.50914 39.1401L5.82914 36.4601ZM9.77914 43.2501C9.29914 43.7301 8.45914 43.7301 7.97914 43.2501C7.47914 42.7501 7.47914 41.9501 7.97914 41.4501C8.22914 41.2001 8.54914 41.0801 8.87914 41.0801C9.20914 41.0801 9.52914 41.2001 9.77914 41.4501C10.2791 41.9501 10.2791 42.7501 9.77914 43.2501Z" fill="#323232"/>
</svg>
