<svg width="48" height="48" viewBox="0 0 48 48" fill="none" xmlns="http://www.w3.org/2000/svg">
<path d="M41.88 44.47H6.12C4.32 44.47 2.7 43.54 1.8 41.98C0.9 40.42 0.9 38.56 1.8 37L19.68 6.02003C19.68 6.02003 19.73 5.94003 19.76 5.90003C20.67 4.42003 22.24 3.53003 23.99 3.53003C25.79 3.53003 27.4 4.46003 28.31 6.01003L46.19 36.99C47.09 38.55 47.09 40.41 46.19 41.97C45.29 43.53 43.68 44.46 41.87 44.46L41.88 44.47ZM21.35 7.13003L3.53 38C2.99 38.93 2.99 40.05 3.53 40.98C4.07 41.91 5.03 42.47 6.11 42.47H41.88C42.96 42.47 43.92 41.91 44.46 40.98C45 40.05 45 38.93 44.46 38L26.59 7.02003C26.05 6.09003 25.08 5.53003 24 5.53003C22.92 5.53003 21.96 6.09003 21.42 7.02003C21.4 7.06003 21.37 7.09003 21.35 7.13003Z" fill="#323232"/>
<path d="M27.0895 17.04L24.2995 25.91H30.4795L22.3295 39.65L23.1695 30L17.5195 29.91L20.9495 17.04H27.0895Z" fill="#DF0000"/>
</svg>
