<svg width="48" height="48" viewBox="0 0 48 48" fill="none" xmlns="http://www.w3.org/2000/svg">
<path d="M42.66 24.4302H5.34C3.90958 24.4302 2.75 25.5898 2.75 27.0202V27.9302C2.75 29.3606 3.90958 30.5202 5.34 30.5202H42.66C44.0904 30.5202 45.25 29.3606 45.25 27.9302V27.0202C45.25 25.5898 44.0904 24.4302 42.66 24.4302Z" fill="#8DE2E0"/>
<path d="M6.50977 22.8201C7.05977 22.8201 7.50977 22.3701 7.50977 21.8201V19.2901C7.50977 14.6501 11.2898 10.8701 15.9298 10.8701H32.0698C36.7098 10.8701 40.4898 14.6501 40.4898 19.2901V21.5201C40.4898 22.0701 40.9398 22.5201 41.4898 22.5201C42.0398 22.5201 42.4898 22.0701 42.4898 21.5201V19.2901C42.4898 13.5501 37.8198 8.87012 32.0698 8.87012H15.9298C10.1898 8.87012 5.50977 13.5401 5.50977 19.2901V21.8201C5.50977 22.3701 5.95977 22.8201 6.50977 22.8201Z" fill="#323232"/>
<path d="M41.4895 32.21C40.9395 32.21 40.4895 32.66 40.4895 33.21V34.77C40.4895 36.07 39.4295 37.13 38.1295 37.13H9.87953C8.57953 37.13 7.51953 36.07 7.51953 34.77V33.21C7.51953 32.66 7.06953 32.21 6.51953 32.21C5.96953 32.21 5.51953 32.66 5.51953 33.21V34.77C5.51953 37.18 7.47953 39.13 9.87953 39.13H38.1295C40.5395 39.13 42.4895 37.17 42.4895 34.77V33.21C42.4895 32.66 42.0395 32.21 41.4895 32.21Z" fill="#323232"/>
<path d="M13.4805 15.2599C13.4805 15.8699 13.9805 16.3699 14.5905 16.3699C15.2005 16.3699 15.7005 15.8699 15.7005 15.2599C15.7005 14.6499 15.2005 14.1499 14.5905 14.1499C13.9805 14.1499 13.4805 14.6499 13.4805 15.2599Z" fill="#323232"/>
<path d="M18.8594 16.6002C18.8594 17.2102 19.3594 17.7102 19.9694 17.7102C20.5794 17.7102 21.0794 17.2102 21.0794 16.6002C21.0794 15.9902 20.5794 15.4902 19.9694 15.4902C19.3594 15.4902 18.8594 15.9902 18.8594 16.6002Z" fill="#323232"/>
<path d="M22.8906 13.9103C22.8906 14.5203 23.3906 15.0203 24.0006 15.0203C24.6106 15.0203 25.1106 14.5203 25.1106 13.9103C25.1106 13.3003 24.6106 12.8003 24.0006 12.8003C23.3906 12.8003 22.8906 13.3003 22.8906 13.9103Z" fill="#323232"/>
<path d="M28.2695 16.6002C28.2695 17.2102 28.7695 17.7102 29.3795 17.7102C29.9895 17.7102 30.4895 17.2102 30.4895 16.6002C30.4895 15.9902 29.9895 15.4902 29.3795 15.4902C28.7695 15.4902 28.2695 15.9902 28.2695 16.6002Z" fill="#323232"/>
<path d="M33.6602 15.2599C33.6602 15.8699 34.1602 16.3699 34.7702 16.3699C35.3802 16.3699 35.8802 15.8699 35.8802 15.2599C35.8802 14.6499 35.3802 14.1499 34.7702 14.1499C34.1602 14.1499 33.6602 14.6499 33.6602 15.2599Z" fill="#323232"/>
<path d="M42.66 23.4302H5.34C3.36 23.4302 1.75 25.0402 1.75 27.0202V27.9402C1.75 29.9202 3.36 31.5302 5.34 31.5302H42.67C44.65 31.5302 46.26 29.9202 46.26 27.9402V27.0202C46.26 25.0402 44.65 23.4302 42.67 23.4302H42.66ZM44.25 27.9302C44.25 28.8102 43.54 29.5202 42.66 29.5202H5.34C4.46 29.5202 3.75 28.8102 3.75 27.9302V27.0102C3.75 26.1302 4.46 25.4202 5.34 25.4202H42.67C43.55 25.4202 44.26 26.1302 44.26 27.0102V27.9302H44.25Z" fill="#323232"/>
</svg>
