<svg width="70" height="70" viewBox="0 0 70 70" fill="none" xmlns="http://www.w3.org/2000/svg">
<g clip-path="url(#clip0_15605_1605)">
<path d="M35 70C15.7091 70 0 54.2909 0 35C0 15.7091 15.7091 0 35 0C54.2909 0 70 15.6909 70 35C70 54.3091 54.2909 70 35 70Z" fill="#DF0000"/>
<path d="M56.4911 53.8C56.5274 53.8363 56.5638 53.8363 56.6002 53.8363C56.6729 53.8363 56.7456 53.8182 56.782 53.7636C56.8547 53.6727 56.8547 53.5636 56.782 53.4727C52.4183 48.8727 47.0911 45.2545 41.2002 42.8909L39.382 42.1636C38.4365 41.7636 37.8183 40.8363 37.8183 39.8C37.9274 35.9091 47.1092 36.7091 48.0547 34.8545L48.2002 34.5273C46.2911 32.8727 44.0365 31.6727 41.6183 31C41.582 31.1091 41.5093 31.5454 42.0183 32.3818C42.5638 33.2545 41.4365 34.6727 39.7638 33.1454L39.6183 33.0363C27.4547 21.8909 21.8547 29.2545 13.6002 16.2909C13.5456 16.2 13.4365 16.1454 13.3456 16.2C13.3456 16.2 13.3274 16.2 13.3093 16.2C13.2002 16.2545 13.1638 16.3818 13.2002 16.4909C19.7093 32.1818 33.0365 28.8727 34.6002 43.5091C34.6547 44.0545 35.0729 44.4909 35.6183 44.5636C43.2547 45.7636 50.4547 48.9636 56.4729 53.8182H56.5092L56.4911 53.8Z" fill="white"/>
<path d="M14.0365 32.4182V35.1637C14.0365 36.8182 12.9638 38.0182 11.3456 38.0182C9.67285 38.0182 8.58194 36.8 8.58194 35.1455V33.7091H5.67285V32.3818H14.0365V32.4182ZM12.8729 33.7273H9.7274V35.0546C9.7274 36.0546 10.3638 36.6909 11.3092 36.6909C12.2547 36.6909 12.8729 36.0546 12.8729 35.0727V33.7455V33.7273Z" fill="white"/>
<path d="M10.9274 47C9.3456 47.5818 7.96378 46.8545 7.36378 45.2545C6.76378 43.6545 7.36378 42.2182 8.9456 41.6364L11.8911 40.5455C13.4729 39.9636 14.8183 40.5818 15.4547 42.2727C16.0365 43.8727 15.4547 45.3273 13.8729 45.9091L10.9274 47ZM9.40015 42.8727C8.5456 43.2 8.12742 43.9455 8.47288 44.8545C8.81833 45.7636 9.60015 46.0727 10.4729 45.7636L13.4183 44.6727C14.2729 44.3455 14.6729 43.6 14.3456 42.6909C14.0183 41.7818 13.2183 41.4727 12.3456 41.7818L9.40015 42.8727Z" fill="white"/>
<path d="M11.7091 52.8726L10.9272 51.818L17.6727 46.8726L18.4363 47.9271L11.6909 52.8726H11.7091Z" fill="white"/>
<path d="M19.1454 59.8545L18.2908 59.1818L19.2908 52.5999L15.7272 57.1818L14.7817 56.4545L19.9272 49.8545L20.8181 50.5454L19.8363 56.9999L23.3454 52.509L24.2908 53.2545L19.1454 59.8545Z" fill="white"/>
<path d="M25.7999 54.0728L31.0181 55.8L30.6545 56.9273L28.6727 56.2728L26.4181 63.0909L25.1636 62.6728L27.4181 55.8546L25.4363 55.2L25.7999 54.0728Z" fill="white"/>
<path d="M36.6185 58.4366V58.2002C36.6185 57.4548 36.0912 56.9275 35.2185 56.9457C34.3458 56.9638 33.8548 57.4002 33.873 58.0366C33.873 58.4729 34.1821 58.8729 34.7639 59.0911L36.0367 59.5638C37.0548 59.9275 38.1094 60.4548 38.1276 61.9457C38.1458 63.4366 37.0367 64.4548 35.3639 64.4729C33.6912 64.4911 32.5094 63.582 32.4912 62.0911V61.8548H33.7821V62.1275C33.7821 62.8911 34.3639 63.4002 35.3276 63.382C36.3276 63.382 36.8548 62.8366 36.8548 62.1093C36.8548 61.4184 36.3821 61.0729 35.6912 60.8184L34.4548 60.3457C33.4003 59.9457 32.6548 59.3093 32.6367 58.1457C32.6367 56.8729 33.6367 55.8729 35.2367 55.8548C36.8367 55.8366 37.9276 56.7638 37.9458 58.2366V58.4184H36.6367L36.6185 58.4366Z" fill="white"/>
<path d="M36.7998 14.3634L38.4544 6.10889L43.2544 7.05434L43.0544 8.07252L39.3998 7.34525L38.8907 9.89071L42.218 10.5453L42.018 11.5453L38.6907 10.8725L38.1453 13.5634L41.9271 14.3271L41.7271 15.3453L36.7998 14.3634Z" fill="white"/>
<path d="M48.0362 18.9269L48.5635 17.1997L45.9635 15.4906L44.5817 16.6542L43.6362 16.036L50.4362 10.436L51.509 11.1451L49.0362 19.5997L48.0362 18.9269ZM46.7271 14.8179L48.8908 16.236L50.2362 11.836L46.7271 14.7997V14.8179Z" fill="white"/>
<path d="M52.836 24.5814L54.7451 21.5814L54.6906 21.5269C54.6542 21.4905 54.5996 21.4178 54.5633 21.3632L53.7087 20.145L51.036 22.0178L50.3633 21.0541L57.2542 16.2178L58.836 18.4723C59.8178 19.8723 59.636 21.3814 58.3815 22.2541C57.9269 22.5814 57.4178 22.745 56.9087 22.745C56.4906 22.745 56.0724 22.636 55.6906 22.3996L55.6178 22.3632L53.5633 25.6178L52.836 24.5632V24.5814ZM54.5269 19.5814L55.3633 20.7814C55.7451 21.3269 56.236 21.6178 56.7633 21.6178C57.2906 21.6178 57.3996 21.5087 57.6906 21.3087C58.4542 20.7632 58.5633 19.8541 57.9451 18.9814L57.1087 17.7814L54.5269 19.5996V19.5814Z" fill="white"/>
<path d="M55.4727 32.1636L60.7636 27.3636L54.709 28.7454L54.4727 27.7272L62.6727 25.8545L62.909 26.8545L57.709 31.5636L63.6727 30.1999L63.909 31.2363L55.6908 33.109L55.4727 32.1636Z" fill="white"/>
</g>
<defs>
<clipPath id="clip0_15605_1605">
<rect width="70" height="70" fill="white"/>
</clipPath>
</defs>
</svg>
