<svg width="48" height="48" viewBox="0 0 48 48" fill="none" xmlns="http://www.w3.org/2000/svg">
<path d="M36.3209 12.8299L39.6309 9.51988C40.0209 9.12988 40.0209 8.49988 39.6309 8.10988C39.2409 7.71988 38.6109 7.71988 38.2209 8.10988L34.9109 11.4199L31.6009 8.10988C31.2109 7.71988 30.5809 7.71988 30.1909 8.10988C29.8009 8.49988 29.8009 9.12988 30.1909 9.51988L33.5009 12.8299L30.1909 16.1399C29.8009 16.5299 29.8009 17.1599 30.1909 17.5499C30.3909 17.7499 30.6409 17.8399 30.9009 17.8399C31.1609 17.8399 31.4109 17.7399 31.6109 17.5499L34.9209 14.2399L38.2309 17.5499C38.4209 17.7499 38.6809 17.8399 38.9409 17.8399C39.2009 17.8399 39.4509 17.7399 39.6509 17.5499C40.0409 17.1599 40.0409 16.5299 39.6509 16.1399L36.3409 12.8299H36.3209Z" fill="#DF0000"/>
<path d="M22.76 46.2602C11.31 46.2602 2 36.9502 2 25.5002C2 14.0502 11.31 4.74023 22.76 4.74023C23.31 4.74023 23.76 5.19023 23.76 5.74023C23.76 6.29023 23.31 6.74023 22.76 6.74023C12.42 6.74023 4 15.1602 4 25.5002C4 35.8402 12.42 44.2602 22.76 44.2602C33.1 44.2602 41.52 35.8402 41.52 25.5002C41.52 25.2002 41.52 24.9002 41.5 24.6002C41.47 24.0502 41.9 23.5802 42.45 23.5502C43 23.5502 43.47 23.9502 43.5 24.5002C43.52 24.8302 43.52 25.1602 43.52 25.5002C43.52 36.9502 34.21 46.2602 22.76 46.2602Z" fill="#323232"/>
<path d="M34.9008 23.9302C28.7808 23.9302 23.8008 18.9502 23.8008 12.8302C23.8008 6.71023 28.7908 1.74023 34.9008 1.74023C41.0108 1.74023 46.0008 6.72023 46.0008 12.8402C46.0008 18.9602 41.0208 23.9402 34.9008 23.9402V23.9302ZM34.9008 3.74023C29.8808 3.74023 25.8008 7.82023 25.8008 12.8402C25.8008 17.8602 29.8808 21.9402 34.9008 21.9402C39.9208 21.9402 44.0008 17.8602 44.0008 12.8402C44.0008 7.82023 39.9208 3.74023 34.9008 3.74023Z" fill="#323232"/>
<path fill-rule="evenodd" clip-rule="evenodd" d="M31.8196 37.9497C31.8196 37.9497 31.8596 37.9697 31.8796 37.9697C31.9196 37.9697 31.9396 37.9697 31.9696 37.9297C32.0096 37.8897 32.0096 37.8097 31.9696 37.7697C29.7296 35.3097 26.9796 33.3297 23.9096 32.0497L22.9696 31.6597C22.4796 31.4397 22.1596 30.9497 22.1596 30.3797C22.2196 28.2797 26.9596 28.7097 27.4496 27.7097L27.5296 27.5297C26.5496 26.6497 25.3996 25.9997 24.1196 25.6297C24.0996 25.6897 24.0596 25.9197 24.3296 26.3797C24.6096 26.8497 24.0296 27.6197 23.1596 26.7897L23.0896 26.7297C16.7996 20.7197 13.8996 24.6897 9.61963 17.6897C9.57963 17.6297 9.52963 17.6097 9.46963 17.6497C9.40963 17.6897 9.39963 17.7497 9.40963 17.8097C12.7796 26.2797 19.6796 24.4897 20.4896 32.3897C20.5296 32.6797 20.7396 32.9197 21.0196 32.9597C24.8396 33.5897 28.5696 35.2397 31.8096 37.9497H31.8296" fill="#DF0000"/>
</svg>
