<svg width="24" height="24" viewBox="0 0 24 24" fill="none" xmlns="http://www.w3.org/2000/svg">
<g clip-path="url(#clip0_16335_9959)">
<path d="M23.6789 14.7568C25.2013 8.30659 21.2066 1.84354 14.7564 0.321152C8.30617 -1.20123 1.84311 2.79355 0.320729 9.24374C-1.20165 15.6939 2.79312 22.157 9.24332 23.6794C15.6935 25.2018 22.1566 21.207 23.6789 14.7568Z" fill="white"/>
<mask id="mask0_16335_9959" style="mask-type:luminance" maskUnits="userSpaceOnUse" x="-1" y="-1" width="26" height="26">
<path d="M23.6789 14.7565C25.2013 8.30635 21.2066 1.84329 14.7564 0.320908C8.30617 -1.20148 1.84311 2.7933 0.320729 9.2435C-1.20165 15.6937 2.79312 22.1567 9.24332 23.6791C15.6935 25.2015 22.1566 21.2067 23.6789 14.7565Z" fill="white"/>
</mask>
<g mask="url(#mask0_16335_9959)">
<path d="M29.9993 0H-6.00073V24H29.9993V0Z" fill="white"/>
<path fill-rule="evenodd" clip-rule="evenodd" d="M20.6056 5.82893C20.1835 6.60033 19.8118 7.40247 19.4946 8.23116C19.1815 9.04868 18.9216 9.89414 18.719 10.762C18.6296 11.1449 18.3375 11.4495 17.9574 11.5515L17.3117 11.7248C17.1427 11.7695 16.9722 11.7709 16.8115 11.736C16.7723 11.7276 16.7346 11.7164 16.6969 11.7039C16.7723 11.7933 16.8408 11.8911 16.9009 11.9931C17.0434 12.2153 17.2307 12.4082 17.4501 12.5563C17.6653 12.7016 17.9099 12.8065 18.1754 12.8568H18.1768C18.4325 12.9071 18.6575 13.0468 18.8168 13.2411C18.9733 13.4325 19.0684 13.6771 19.0684 13.9426V14.7154C19.1592 14.9516 19.2053 15.2031 19.2053 15.4546C19.2053 15.8823 19.0725 16.2973 18.8252 16.6453C18.7036 16.8186 18.6086 17.01 18.5429 17.2154C18.48 17.4139 18.4465 17.6263 18.4465 17.8457C18.4465 18.033 18.4702 18.216 18.5192 18.3963C18.5261 18.4215 18.5136 18.448 18.4898 18.4578C18.1824 18.6129 17.9071 18.8239 17.6779 19.0755C17.4487 19.3256 17.2642 19.6191 17.1371 19.9391C17.1217 19.9796 17.1021 20.0201 17.0812 20.0579C16.9778 20.2382 16.8045 20.3779 16.5879 20.4366C16.3713 20.4939 16.1519 20.459 15.973 20.3555C15.7927 20.2521 15.653 20.0788 15.5943 19.8636L15.5104 19.5492C15.5048 19.531 15.5104 19.5115 15.5244 19.4989L16.743 18.2803L16.4327 17.1246C16.4258 17.1009 16.4383 17.0743 16.4621 17.0631C17.0015 16.8256 17.4934 16.4971 17.9168 16.0975C17.9755 16.0416 18.0328 15.9857 18.0901 15.927C18.0887 15.5664 17.9965 15.2324 17.8162 14.9571C17.6415 14.6888 17.3844 14.475 17.049 14.3451C16.7514 14.2375 16.4914 14.0502 16.2944 13.8098C16.1001 13.5723 15.9688 13.2816 15.9227 12.9644C15.8793 12.7492 15.8137 12.5423 15.727 12.3467C15.6474 12.1664 15.5523 11.9959 15.4405 11.8366C15.2952 12.0323 15.2701 12.2978 15.3749 12.5186C15.4433 12.6667 15.4992 12.8204 15.5398 12.9783C15.5495 13.0119 15.5244 13.0454 15.4895 13.0454H14.9179C15.0017 13.1279 15.0786 13.2159 15.1513 13.3081C15.2491 13.4339 15.3357 13.5695 15.4098 13.712C15.4308 13.7455 15.4056 13.7917 15.3651 13.7917H14.8536C14.9207 14.3227 15.0814 14.8244 15.3162 15.2814C15.5663 15.7677 15.9045 16.2037 16.307 16.567C16.3349 16.5922 16.3279 16.6383 16.2916 16.6537C16.0037 16.7752 15.7298 16.9276 15.4741 17.1036C15.217 17.2825 14.9794 17.4866 14.7656 17.7143L12.7113 19.9838C12.1691 20.5833 11.4298 20.9383 10.6207 20.9788C10.3873 20.99 10.1526 20.9746 9.92197 20.9327C9.89821 20.9299 9.87725 20.9103 9.87585 20.8852C9.84231 20.4506 9.71095 20.0425 9.50413 19.6848C9.29032 19.3158 8.99545 19.0014 8.64469 18.7624C8.21707 18.4857 7.89705 18.0665 7.74473 17.5802C7.40095 17.671 7.0446 17.7157 6.68964 17.7157C6.26202 17.7157 5.83719 17.6501 5.42913 17.5201C5.0588 17.4209 4.80167 17.0715 4.80167 16.6914C4.80167 16.5852 4.81984 16.4957 4.85338 16.3965C4.90089 16.2708 4.92465 16.1394 4.92465 16.0052C4.92465 15.8389 4.88692 15.6754 4.81425 15.5245H4.19937C4.1784 15.5245 4.15744 15.5105 4.15046 15.4896C4.11133 15.3834 4.09316 15.2702 4.09316 15.157C4.09316 15.013 4.1239 14.8719 4.18399 14.7433C3.98136 14.6693 3.84441 14.4764 3.84441 14.2598C3.84441 14.0865 3.93105 13.9258 4.07639 13.8294H4.07918C4.21055 13.7428 4.2888 13.6296 4.2888 13.4688C4.2888 13.4381 4.28461 13.4116 4.27902 13.3808H3.98555C3.62501 13.3808 3.33154 13.0873 3.33154 12.7268C3.33154 12.6164 3.35949 12.506 3.41399 12.4096L4.68009 10.2156C4.55572 10.0479 4.48864 9.84663 4.48864 9.63701C4.48864 9.55456 4.49982 9.47071 4.52078 9.39106L4.71363 8.67136C4.59485 8.53721 4.54035 8.35833 4.5683 8.18085L4.64376 7.67218C4.66053 7.52405 4.7304 7.38989 4.8422 7.28927C4.90928 7.22359 4.93164 7.12717 4.90229 7.03913C4.87853 6.97345 4.86735 6.90357 4.86735 6.8337C4.86735 6.71492 4.90229 6.60312 4.96238 6.50949C5.02387 6.41307 5.11191 6.33481 5.21532 6.2859C5.31175 6.23699 5.38162 6.14336 5.40398 6.03855C5.43053 5.90159 5.47245 5.77023 5.52975 5.64726C5.58844 5.52148 5.66111 5.4027 5.74775 5.2951C5.82881 5.19448 5.87213 5.07011 5.87213 4.94154C5.87213 4.88844 5.86514 4.83813 5.85117 4.78782C5.83999 4.75428 5.86514 4.71934 5.90008 4.71934H6.26062C6.45487 4.47479 6.72737 4.3015 7.03062 4.23023C7.20391 4.18551 7.36322 4.10446 7.50157 3.99685C7.64131 3.88785 7.7573 3.7509 7.84255 3.59299C7.85652 3.56644 7.88866 3.55805 7.91382 3.57342L8.26039 3.77326C8.54827 3.74391 8.82217 3.66426 9.07231 3.54408C9.33364 3.41831 9.56981 3.24642 9.76825 3.03959C9.79899 3.00326 9.86048 3.02422 9.86048 3.07313V3.46861C10.1428 3.35961 10.4502 3.34424 10.7423 3.4225L11.2943 3.57063C11.4019 3.59858 11.5123 3.61116 11.6241 3.61116C11.7107 3.61116 11.7946 3.60277 11.8798 3.586C11.8924 3.5846 11.905 3.586 11.9161 3.59159L12.3745 3.85711H13.2214C13.2507 3.85711 13.2731 3.88087 13.2731 3.90881V4.19949L15.0297 4.67043C15.0576 4.67742 15.0744 4.70677 15.066 4.73471L14.9682 5.09805C15.1652 5.13998 15.3343 5.26295 15.435 5.43764L15.6921 5.88343C15.8556 6.16711 16.1253 6.37254 16.4425 6.45499C16.4523 6.45639 16.4607 6.46198 16.4691 6.46896C16.4886 6.48993 16.4886 6.52207 16.4691 6.54303L16.2273 6.78479L16.8282 7.3857C16.8478 7.40666 16.8478 7.4388 16.8282 7.45976L16.6074 7.68056L16.9191 8.84325C16.9246 8.86561 16.9163 8.88937 16.8953 8.90194L16.6535 9.04169L16.8646 9.40643C16.8799 9.43018 16.8743 9.46093 16.852 9.4777C16.7807 9.52801 16.7025 9.56714 16.6186 9.59369C16.518 9.62583 16.4104 9.63841 16.3056 9.63142L16.5152 10.414C16.5222 10.4419 16.5054 10.4699 16.4789 10.4769C16.4062 10.4964 16.3293 10.5076 16.2539 10.5076C16.1784 10.5076 16.1015 10.4978 16.0289 10.4769L16.0317 10.6809C16.1057 10.6893 16.1812 10.6921 16.2581 10.6865C16.7038 10.66 17.1091 10.4126 17.3355 10.0227C17.506 9.72784 17.5633 9.3673 17.4683 9.01234L16.5837 5.71294C16.5389 5.54664 16.5711 5.37475 16.6787 5.2378C16.7514 5.14557 16.8548 5.07849 16.9736 5.05054L17.5856 4.88704V3.88087C17.5856 3.85152 17.6094 3.82916 17.6374 3.82916H18.0245C18.255 3.83195 18.4563 3.98847 18.515 4.21206C18.5275 4.25678 18.5331 4.3015 18.5331 4.34622V5.2378H18.7889C18.8839 5.2378 18.9705 5.27693 19.0334 5.33981C19.0949 5.4027 19.134 5.48795 19.1354 5.58158V5.99662H19.7657C19.8076 5.86247 19.8356 5.72412 19.8523 5.58577C19.8705 5.43484 19.8747 5.28112 19.8635 5.1274C19.8621 5.09526 19.8817 5.06871 19.9152 5.06871H20.1486C20.2911 5.06871 20.4197 5.126 20.5133 5.21963C20.607 5.31326 20.6643 5.44183 20.6643 5.58437C20.6643 5.66542 20.6433 5.75626 20.6042 5.82753L20.6056 5.82893Z" fill="black"/>
<path fill-rule="evenodd" clip-rule="evenodd" d="M15.3846 10.7381C15.3832 10.7158 15.3832 10.6934 15.3846 10.6725C15.3916 10.5691 15.4321 10.4852 15.5076 10.4419C15.5845 10.3972 15.6809 10.4069 15.7759 10.4587C15.8332 10.4894 15.8849 10.5285 15.9282 10.5732V10.4069C15.9268 10.3706 15.9632 10.3455 15.9967 10.358C16.0806 10.3888 16.1672 10.4041 16.2566 10.4041C16.3056 10.4041 16.3545 10.4 16.4034 10.3902L16.1882 9.58524C16.1784 9.54751 16.2133 9.51257 16.2511 9.52095C16.3643 9.53772 16.483 9.52934 16.5906 9.4944C16.6493 9.47624 16.7052 9.45108 16.7555 9.41894L16.5417 9.04861C16.5278 9.02346 16.5361 8.99271 16.5613 8.97734L16.8128 8.83201L16.504 7.6791C16.4984 7.65954 16.5054 7.63997 16.5194 7.626L16.7234 7.42197L16.1267 6.82525C16.1155 6.81547 16.1071 6.80149 16.1071 6.78473C16.1071 6.76796 16.1141 6.75538 16.1253 6.7456L16.3405 6.53179C16.0317 6.42977 15.7731 6.21875 15.6096 5.93647L15.3525 5.49068C15.2575 5.32717 15.0926 5.21677 14.9039 5.19162C14.876 5.18743 14.855 5.16227 14.8592 5.13293L14.9584 4.75841L13.213 4.29026C13.1892 4.28327 13.1738 4.26231 13.1738 4.23995V3.96185H12.3661C12.3549 3.96185 12.3438 3.95766 12.3354 3.95207L11.8854 3.69214C11.8015 3.70752 11.7149 3.7145 11.6283 3.7145C11.5081 3.7145 11.3893 3.69913 11.2719 3.66978L10.7185 3.52165C10.4222 3.442 10.112 3.46715 9.83252 3.59292C9.79758 3.6083 9.75985 3.58314 9.75985 3.54541V3.19604C9.57119 3.37352 9.35598 3.52165 9.12121 3.63485C8.85569 3.76341 8.56362 3.84726 8.25618 3.87521C8.245 3.87521 8.23382 3.87381 8.22544 3.86822L7.90961 3.68655C7.82017 3.83608 7.70418 3.96884 7.56723 4.07505C7.4191 4.19104 7.24582 4.27908 7.05716 4.32799C6.76788 4.39786 6.51075 4.56416 6.32908 4.80033C6.3193 4.81291 6.30393 4.8199 6.28856 4.8199H5.96854C5.97413 4.86042 5.97832 4.89676 5.97832 4.93728C5.97832 5.08961 5.92661 5.23774 5.83019 5.35652C5.74914 5.45714 5.68066 5.56754 5.62616 5.68632C5.58004 5.78694 5.54371 5.89175 5.51855 6.00215C6.28017 6.12373 7.00825 6.35151 7.68462 6.66734C8.39034 6.99714 9.04295 7.42476 9.6215 7.93064C10.6696 8.09694 11.7778 8.4519 12.8091 8.95638C13.7734 9.42872 14.6705 10.031 15.3846 10.734V10.7381Z" fill="black"/>
<path fill-rule="evenodd" clip-rule="evenodd" d="M15.4167 11.5822C15.3343 11.6633 15.2924 11.722 15.4363 11.701C15.597 11.6758 15.7396 11.5934 15.8402 11.476C15.9394 11.36 16.0009 11.2077 16.0009 11.0428C16.0009 10.8374 15.9115 10.6515 15.7256 10.5509C15.6627 10.5173 15.6026 10.5076 15.5593 10.5327C15.516 10.5579 15.4936 10.611 15.488 10.6794C15.4838 10.7563 15.502 10.8513 15.5467 10.9464C15.6501 11.1574 15.5747 11.4201 15.4167 11.5836V11.5822Z" fill="white"/>
<path fill-rule="evenodd" clip-rule="evenodd" d="M12.5562 11.1868C12.6205 10.9352 12.64 10.6669 12.5646 10.4182C12.5143 10.2533 12.4234 10.1051 12.2753 9.99195C12.1286 9.87875 11.9609 9.82844 11.789 9.82285C11.585 9.81587 11.3753 9.87176 11.1839 9.9598C10.8932 10.094 10.6333 10.305 10.4153 10.5384C10.4027 10.5523 10.3845 10.5579 10.3664 10.5537C10.0925 10.4992 9.82555 10.4238 9.56841 10.3301C9.31128 10.2365 9.06393 10.1233 8.82636 9.99195C8.48818 9.97937 8.15977 9.93046 7.84395 9.84801C7.46244 9.74879 7.1005 9.60206 6.76371 9.4134C6.45487 9.24291 6.13066 9.09757 5.79387 8.97739C5.47665 8.86559 5.14964 8.77755 4.81146 8.71606L4.6242 9.41619C4.60463 9.48886 4.59625 9.56153 4.59625 9.63559C4.59625 9.83264 4.66193 10.0227 4.7863 10.1764C4.80028 10.1932 4.80167 10.2169 4.79049 10.2351L3.50762 12.4571C3.46151 12.5395 3.43915 12.6304 3.43915 12.724C3.43915 13.0272 3.6851 13.2732 3.98835 13.2732H4.32095C4.3461 13.2732 4.36706 13.29 4.37125 13.3137C4.38663 13.3626 4.39501 13.4143 4.39501 13.466C4.39501 13.6617 4.29859 13.8084 4.13648 13.9118H4.13508C4.01909 13.9887 3.95062 14.1173 3.95062 14.2556C3.95062 14.4471 4.08338 14.6147 4.27064 14.6567C4.30418 14.6637 4.32095 14.7028 4.30557 14.7321C4.2343 14.8621 4.19797 15.006 4.19797 15.1542C4.19797 15.2436 4.21055 15.3316 4.2371 15.4169H4.84639C4.86875 15.4169 4.88692 15.4309 4.8953 15.449C4.98334 15.6195 5.02946 15.8096 5.02946 16.001C5.02946 16.1464 5.00291 16.2931 4.9512 16.4301C4.92046 16.5041 4.90648 16.6075 4.90648 16.6886C4.90648 17.0505 5.12868 17.3063 5.46127 17.4195C5.85955 17.5452 6.2718 17.6095 6.68964 17.6095C7.05438 17.6095 7.41493 17.562 7.76709 17.4656C7.79504 17.4572 7.82438 17.4754 7.83137 17.5033C7.9795 18.0134 8.27436 18.3753 8.70478 18.6744C9.06812 18.9217 9.37417 19.2487 9.59497 19.6302C9.80459 19.9908 9.93874 20.3988 9.97787 20.8348C10.1889 20.8712 10.4027 20.8838 10.6165 20.8726C11.3963 20.8335 12.1104 20.4897 12.6344 19.9125L14.6901 17.6416C14.9095 17.4097 15.1527 17.2001 15.4154 17.017C15.653 16.8521 15.9087 16.7081 16.177 16.588C15.7913 16.2274 15.4671 15.8012 15.2225 15.3275C14.9724 14.8439 14.8061 14.3087 14.7418 13.7441C14.739 13.7162 14.76 13.6896 14.7879 13.6868H15.277C15.2156 13.5764 15.1457 13.4702 15.0674 13.371C14.9724 13.248 14.8662 13.1348 14.7502 13.0314C14.7292 13.0119 14.7264 12.9797 14.746 12.9574C14.7558 12.9462 14.7712 12.9406 14.7851 12.9406H15.4196C15.3833 12.812 15.3357 12.6849 15.2784 12.5633C15.1625 12.3201 15.1848 12.028 15.3343 11.8045C15.298 11.7975 15.2659 11.7807 15.2463 11.7458C15.2002 11.6633 15.284 11.5627 15.3385 11.5096C15.3846 11.4621 15.4224 11.4048 15.4475 11.3419L15.4503 11.3349C15.4014 11.3517 15.3539 11.3503 15.3036 11.3433C15.1275 11.3084 14.9444 11.3056 14.767 11.3377C14.6831 11.3531 14.6021 11.374 14.5238 11.402C14.3827 11.4523 14.2345 11.4788 14.085 11.4788C13.8474 11.4788 13.6434 11.4188 13.4366 11.3042C13.2605 11.2063 13.0649 11.1574 12.8636 11.1574C12.7588 11.1574 12.6568 11.1742 12.5534 11.1868H12.5562Z" fill="black"/>
<path fill-rule="evenodd" clip-rule="evenodd" d="M17.8232 6.37665C17.7868 6.21734 17.8106 6.0748 17.9322 5.95322C18.0104 5.87496 18.1166 5.82745 18.2354 5.82745H18.7916C18.8587 5.82745 18.9188 5.8009 18.9621 5.75618C19.0054 5.71286 19.0334 5.65137 19.0334 5.58569C19.0334 5.52001 19.0068 5.45852 18.9621 5.4138C18.9188 5.37048 18.8573 5.34253 18.7916 5.34253H18.4283C18.248 5.34253 18.0775 5.39004 17.9308 5.47249C17.7785 5.55774 17.6513 5.68072 17.5605 5.83024C17.5143 5.91409 17.4459 5.98117 17.3662 6.02868C17.2866 6.0762 17.1943 6.10135 17.0979 6.10135C16.9721 6.10135 16.8575 6.05803 16.7667 5.98536L17.5702 8.98571C17.6737 9.36862 17.6108 9.75711 17.4263 10.0757C17.1831 10.4964 16.7485 10.7633 16.265 10.7926C16.1965 10.7968 16.1295 10.7954 16.0624 10.7898C16.0764 10.8276 16.0861 10.8653 16.0931 10.9044C16.2343 10.9394 16.3768 10.9575 16.5221 10.9575C16.7429 10.9575 16.954 10.917 17.1482 10.8429C17.3494 10.7661 17.5339 10.6543 17.6932 10.5131C17.7142 10.4936 17.7477 10.4964 17.7673 10.5173C17.7868 10.5383 17.784 10.5718 17.7631 10.59C17.5954 10.7395 17.3997 10.8583 17.1859 10.9394C16.9805 11.0176 16.7569 11.0609 16.5235 11.0609C16.3838 11.0609 16.2427 11.0456 16.1057 11.0134V11.0162C16.2175 11.0609 16.3335 11.0945 16.4551 11.1182C16.5836 11.1434 16.7164 11.1574 16.8533 11.1574C17.0029 11.1574 17.1482 11.1406 17.2893 11.1099H17.2907C17.4361 11.0777 17.5758 11.0302 17.7072 10.9687C17.7337 10.9575 17.7645 10.9687 17.7757 10.9939C17.7882 11.0204 17.7757 11.0512 17.7505 11.0623C17.6122 11.1266 17.4654 11.1769 17.3131 11.2105H17.3117C17.1636 11.2426 17.0113 11.2608 16.8533 11.2608C16.7108 11.2608 16.5711 11.2468 16.4355 11.2203C16.3209 11.1979 16.2091 11.1658 16.1029 11.1252C16.1001 11.1532 16.0945 11.1811 16.0889 11.2077C16.2161 11.2748 16.3223 11.3488 16.4355 11.4397C16.5515 11.5333 16.6898 11.6004 16.838 11.6325C16.9833 11.6646 17.137 11.6632 17.2893 11.6227L17.935 11.4494C18.2788 11.3572 18.5415 11.0833 18.6225 10.7367C18.8266 9.86332 19.0865 9.01506 19.4009 8.19195C19.6818 7.45689 20.006 6.74279 20.3708 6.05244C20.3051 6.08318 20.231 6.09995 20.1541 6.09995H18.9984L18.5415 6.55692C18.4604 6.63798 18.3528 6.68269 18.2382 6.68269C18.1432 6.68269 18.0552 6.65195 17.9853 6.59885C18.0188 6.76375 18.0468 6.93005 18.0677 7.09914C18.0985 7.34928 18.1139 7.60362 18.1139 7.86215C18.1139 8.02845 18.1069 8.19195 18.0943 8.35546C18.0817 8.51896 18.0621 8.68246 18.0356 8.84597C18.0314 8.87391 18.0048 8.89348 17.9769 8.88929C17.949 8.88509 17.9294 8.85854 17.9336 8.8292C17.9587 8.67128 17.9783 8.51057 17.9909 8.34707C18.0035 8.18776 18.0104 8.02566 18.0104 7.86215C18.0104 7.60781 17.9951 7.35767 17.9643 7.11172C17.9336 6.86157 17.8875 6.61562 17.8274 6.37525L17.8232 6.37665ZM19.0446 6.63378C19.0264 6.65614 18.9929 6.65894 18.9719 6.64077C18.9495 6.6226 18.9467 6.58907 18.9649 6.56671C19.0138 6.50661 19.0711 6.45211 19.134 6.4046C19.1955 6.35709 19.2626 6.31656 19.3338 6.28442C19.3604 6.27184 19.3911 6.28442 19.4023 6.30957C19.4135 6.33612 19.4023 6.36687 19.3758 6.37805C19.3115 6.40739 19.25 6.44373 19.1955 6.48565C19.1396 6.52758 19.0893 6.57649 19.0446 6.63099V6.63378ZM19.0264 7.80206C19.0446 7.82442 19.0404 7.85796 19.018 7.87473C18.9956 7.8929 18.9621 7.8887 18.9453 7.86634C18.8755 7.77691 18.8196 7.67489 18.7818 7.56589C18.7455 7.45968 18.7259 7.34649 18.7259 7.2291C18.7259 7.12848 18.7399 7.02787 18.7693 6.93144C18.7776 6.90349 18.807 6.88812 18.8335 6.89651C18.8615 6.90489 18.8769 6.93424 18.8685 6.96079C18.8419 7.04743 18.8294 7.13827 18.8294 7.2291C18.8294 7.33531 18.8475 7.43732 18.8797 7.53235C18.9132 7.63157 18.9635 7.72241 19.0264 7.80206Z" fill="white"/>
<path fill-rule="evenodd" clip-rule="evenodd" d="M11.652 12.605C11.6842 12.4122 11.761 12.2347 11.8714 12.0838C11.9916 11.9203 12.1272 11.8113 12.3046 11.7162C12.4444 11.6506 12.5562 11.5276 12.6079 11.3822C12.6428 11.2788 12.6708 11.174 12.6903 11.0678C12.749 11.0594 12.8077 11.0552 12.8678 11.0552C13.0858 11.0552 13.301 11.1097 13.4911 11.2159C13.6839 11.3221 13.8684 11.378 14.0892 11.378C14.2261 11.378 14.3631 11.3543 14.4931 11.3082C14.5769 11.2774 14.6636 11.2537 14.753 11.2383C14.549 11.1503 14.3365 11.0804 14.1158 11.0287C13.8418 10.9658 13.5568 10.9323 13.2619 10.9323C13.2326 10.9323 13.2102 10.9085 13.2102 10.8806C13.2102 10.8526 13.234 10.8288 13.2619 10.8288C13.5638 10.8288 13.8572 10.8638 14.1381 10.9281C14.4232 10.9937 14.6971 11.0916 14.9542 11.2173C15.0786 11.2117 15.2044 11.2215 15.326 11.2453C15.3679 11.2551 15.4238 11.2495 15.4559 11.2173C15.4881 11.1852 15.495 11.1321 15.4797 11.0706C15.4629 11.0007 15.4182 10.9239 15.3511 10.8568C14.6384 10.1441 13.7356 9.5334 12.763 9.05826C11.7359 8.55657 10.6319 8.20441 9.58937 8.03951C9.07092 7.97802 8.55944 7.87461 8.06894 7.73347C7.56725 7.59093 7.08233 7.40786 6.61558 7.18846C6.58902 7.17588 6.57784 7.14514 6.59042 7.11998C6.603 7.09343 6.63374 7.08225 6.6589 7.09483C7.11866 7.31004 7.59939 7.49171 8.09688 7.63285C8.5301 7.75583 8.97449 7.85086 9.43006 7.91234C8.88785 7.45677 8.28694 7.07107 7.63852 6.76782C6.96774 6.45479 6.24804 6.2298 5.49202 6.10962C5.45428 6.22561 5.36904 6.32762 5.25864 6.38212C5.172 6.42265 5.09933 6.48693 5.04762 6.56659C4.99871 6.64345 4.96937 6.73568 4.96937 6.8349C4.96937 6.99142 5.04064 7.13675 5.1706 7.22899C5.24606 7.28209 5.3383 7.31283 5.43891 7.31283C5.48363 7.31283 5.52835 7.30724 5.57167 7.29467C5.59962 7.28628 5.62757 7.30305 5.63596 7.3296C5.64434 7.35755 5.62757 7.3855 5.60102 7.39389C5.54931 7.40926 5.49341 7.41764 5.43891 7.41764C5.31733 7.41764 5.20414 7.37991 5.11191 7.31423C5.07138 7.28628 5.03505 7.25274 5.0043 7.21641C4.98753 7.2751 4.95539 7.3296 4.91067 7.36873C4.82403 7.44699 4.76673 7.5518 4.74857 7.66779C4.83102 7.78238 4.94002 7.87741 5.06579 7.94449C5.19296 8.01156 5.3369 8.05209 5.49062 8.05349C5.51857 8.05349 5.54233 8.07724 5.54233 8.10659C5.54233 8.13454 5.51857 8.1583 5.48922 8.1583C5.31873 8.1555 5.15802 8.11218 5.01688 8.03672C4.90788 7.97802 4.81006 7.90116 4.729 7.80893L4.67171 8.19882C4.65354 8.35534 4.69267 8.49648 4.79748 8.61247C5.15104 8.67536 5.49481 8.76759 5.82601 8.88498C6.16839 9.00516 6.49819 9.15469 6.81122 9.32657H6.81262C7.14102 9.51104 7.49458 9.65498 7.8677 9.7514C8.22964 9.84503 8.60836 9.89534 8.99964 9.89534C9.20787 9.89534 9.41329 9.88137 9.62012 9.85202C9.64807 9.84783 9.67462 9.86739 9.67881 9.89674C9.683 9.92469 9.66344 9.95124 9.63409 9.95543C9.44124 9.98198 9.24699 9.99736 9.05275 9.99875C9.23023 10.0882 9.41329 10.1678 9.60195 10.2363C9.88703 10.3411 10.1819 10.425 10.4837 10.4683C10.6864 10.2657 10.9212 10.084 11.1811 9.96382C11.529 9.80311 11.9497 9.74721 12.2725 9.99456C12.5953 10.2419 12.6512 10.6625 12.5855 11.0399C12.5674 11.1447 12.5394 11.2481 12.5059 11.3487C12.4626 11.4689 12.3731 11.5681 12.2571 11.6226C12.081 11.7037 11.898 11.8672 11.7848 12.0237C11.6646 12.1872 11.5822 12.38 11.5472 12.5896C11.5025 12.8272 11.2943 12.9991 11.0525 12.9991C10.8108 12.9991 10.6025 12.8272 10.5578 12.5882C10.5522 12.5603 10.5257 12.5407 10.4977 12.5463C10.4698 12.5519 10.4502 12.5785 10.4558 12.6064C10.5089 12.8943 10.7604 13.1025 11.0525 13.1025C11.3446 13.1025 11.5961 12.8943 11.6492 12.6064L11.652 12.605ZM12.8483 10.1399C12.538 9.87298 12.2012 9.63402 11.8435 9.42999C11.4899 9.22875 11.1168 9.05826 10.7255 8.9269C10.699 8.91712 10.6836 8.88777 10.6934 8.86122C10.7018 8.83467 10.7325 8.8193 10.759 8.82908C11.1573 8.96323 11.5374 9.13652 11.8952 9.34055C12.2585 9.54877 12.6009 9.79053 12.9153 10.0616C13.0397 10.1678 13.1892 10.2335 13.3527 10.2545C13.6616 10.2936 13.9606 10.3607 14.2485 10.4543C14.3533 10.4879 14.4567 10.5256 14.5573 10.5661C14.2807 10.3789 13.9956 10.2014 13.7035 10.0351C13.2451 9.77376 12.7686 9.54039 12.2781 9.33496C12.2515 9.32378 12.239 9.29304 12.2501 9.26648C12.2613 9.23993 12.2921 9.22736 12.3186 9.23853C12.8133 9.44536 13.294 9.68153 13.7566 9.94425C14.222 10.2098 14.6705 10.5032 15.0982 10.8219C15.1191 10.8372 15.1261 10.8652 15.1135 10.8889C15.0996 10.9141 15.0674 10.9239 15.0423 10.9099C14.7809 10.766 14.5056 10.6472 14.2178 10.5535C13.9355 10.4627 13.642 10.3956 13.3416 10.3579C13.1585 10.3341 12.9908 10.2601 12.8496 10.1413L12.8483 10.1399ZM6.94957 8.82768C6.77628 8.72008 6.58902 8.63763 6.39617 8.58313C6.20193 8.52862 6.00069 8.49928 5.79527 8.49928C5.64853 8.49928 5.50459 8.51325 5.36066 8.5426C5.33271 8.54819 5.30476 8.53002 5.29917 8.50207C5.29358 8.47412 5.31174 8.44617 5.33969 8.44058C5.48922 8.41124 5.64154 8.39587 5.79387 8.39587C6.00768 8.39587 6.2187 8.42521 6.42273 8.48391C6.62536 8.5412 6.821 8.62784 7.00127 8.73964C7.21928 8.8724 7.45685 8.97861 7.70699 9.04848C7.95015 9.11696 8.20728 9.15329 8.4728 9.15329C8.68242 9.15329 8.89064 9.13093 9.09467 9.08481C9.12262 9.07922 9.15057 9.09599 9.15616 9.12394C9.16175 9.15189 9.14498 9.17984 9.11703 9.18543C8.90601 9.23295 8.68941 9.2567 8.4728 9.2567C8.1975 9.2567 7.93198 9.21897 7.67904 9.1477C7.41912 9.07503 7.17316 8.96603 6.94677 8.82768H6.94957Z" fill="white"/>
<path fill-rule="evenodd" clip-rule="evenodd" d="M10.7339 10.8165C10.7143 10.8374 10.6808 10.8388 10.6598 10.8193C10.6389 10.7997 10.6375 10.7661 10.657 10.7452C10.9044 10.4839 11.1755 10.2952 11.4256 10.2044C11.68 10.1107 11.9147 10.1177 12.081 10.2449C12.1942 10.3315 12.2613 10.4643 12.2851 10.6264C12.3088 10.7885 12.2879 10.98 12.2264 11.184C12.218 11.2119 12.1886 11.2273 12.1621 11.2189C12.1341 11.2105 12.1188 11.1812 12.1272 11.1546C12.1845 10.9646 12.204 10.7885 12.1831 10.6418C12.1635 10.5062 12.109 10.3972 12.0196 10.3273C11.884 10.2239 11.6842 10.2211 11.4634 10.3022C11.2286 10.3888 10.9701 10.5663 10.7353 10.8165H10.7339Z" fill="white"/>
<path fill-rule="evenodd" clip-rule="evenodd" d="M11.0525 12.2669C10.9812 12.2669 10.9155 12.2375 10.868 12.19C10.8205 12.1425 10.7911 12.0782 10.7911 12.0055C10.7911 11.9762 10.8149 11.9524 10.8428 11.9524C10.8708 11.9524 10.8945 11.9762 10.8945 12.0041C10.8945 12.0475 10.9127 12.0866 10.9407 12.1145C10.9686 12.1425 11.0077 12.1607 11.0511 12.1607C11.0902 12.1607 11.1349 12.1439 11.1615 12.1145C11.1894 12.0866 11.2076 12.0475 11.2076 12.0041V11.7694C11.2076 11.7037 11.2327 11.6436 11.2733 11.5975C11.318 11.5472 11.3711 11.522 11.4382 11.5108C11.4997 11.5039 11.5542 11.4731 11.5933 11.4298C11.631 11.3865 11.6548 11.3292 11.6548 11.2663C11.6548 11.1978 11.6268 11.1363 11.5821 11.0916C11.5374 11.0469 11.4759 11.0189 11.4074 11.0189C11.3781 11.0189 11.3557 10.9952 11.3557 10.9672C11.3557 10.9393 11.3795 10.9155 11.4074 10.9155C11.5038 10.9155 11.5919 10.9547 11.6562 11.0189C11.7191 11.0818 11.7596 11.1699 11.7596 11.2663C11.7596 11.3557 11.726 11.4368 11.6715 11.4983C11.6156 11.5612 11.5388 11.6031 11.4507 11.6143C11.4144 11.6171 11.3767 11.6394 11.3529 11.666C11.3292 11.6925 11.3138 11.7288 11.3138 11.7694V12.0041C11.3138 12.0768 11.2844 12.1411 11.2369 12.1886C11.1838 12.2375 11.1265 12.2655 11.0539 12.2655L11.0525 12.2669Z" fill="white"/>
<path fill-rule="evenodd" clip-rule="evenodd" d="M6.04538 11.4913C6.02302 11.5095 5.99088 11.5067 5.97271 11.4843C5.95455 11.4619 5.95734 11.4298 5.9797 11.4116C6.11945 11.2984 6.27317 11.2006 6.43667 11.1224C6.5289 11.0776 6.62393 11.0399 6.72315 11.0092C6.5275 10.9616 6.34164 10.8904 6.16975 10.7967C6.17814 10.8303 6.18233 10.8666 6.18233 10.9044C6.18233 11.0888 6.07473 11.2383 5.94057 11.2383C5.80641 11.2383 5.69881 11.0888 5.69881 10.9044C5.69881 10.7618 5.76309 10.6402 5.85393 10.5913C5.72257 10.4893 5.60238 10.3733 5.49618 10.2447C5.47801 10.2224 5.48081 10.1902 5.50316 10.1721C5.52552 10.1539 5.55767 10.1567 5.57583 10.1791C5.74912 10.3873 5.96153 10.5634 6.2005 10.6961C6.43248 10.8247 6.68961 10.9127 6.96351 10.9491C6.98587 10.9505 7.00544 10.9672 7.01103 10.9896C7.01662 11.0175 6.99845 11.0455 6.9705 11.0511C6.80001 11.0874 6.63651 11.1433 6.48279 11.216C6.32627 11.2914 6.17954 11.3837 6.04678 11.4927L6.04538 11.4913Z" fill="white"/>
<path fill-rule="evenodd" clip-rule="evenodd" d="M19.876 5.99798H20.1499C20.2631 5.99798 20.3665 5.95186 20.442 5.8778C20.5161 5.80373 20.5622 5.70032 20.5622 5.58712C20.5622 5.47393 20.5161 5.37052 20.442 5.29645C20.3679 5.22239 20.2645 5.17627 20.1513 5.17627H19.9739C19.9808 5.31881 19.9767 5.45995 19.9599 5.6011C19.9431 5.73525 19.9166 5.86941 19.8788 5.99937L19.876 5.99798Z" fill="white"/>
<path fill-rule="evenodd" clip-rule="evenodd" d="M19.032 5.83301C18.9691 5.8945 18.8839 5.93223 18.7902 5.93223H18.234C18.1446 5.93223 18.0635 5.96856 18.0049 6.02725C17.8791 6.15303 17.8791 6.35985 18.0049 6.48562C18.0635 6.54432 18.1446 6.58065 18.234 6.58065C18.3235 6.58065 18.4017 6.54711 18.4632 6.48562L18.9328 6.01607C18.9425 6.0049 18.9565 5.99791 18.9719 5.99791H19.032V5.83301Z" fill="white"/>
<path fill-rule="evenodd" clip-rule="evenodd" d="M17.6904 3.93384V4.86035L18.125 4.74437C18.2354 4.71502 18.3221 4.64375 18.3752 4.55291C18.4283 4.46208 18.4451 4.35028 18.4157 4.23988C18.3682 4.0624 18.2089 3.93803 18.0244 3.93384H17.689H17.6904Z" fill="white"/>
<path fill-rule="evenodd" clip-rule="evenodd" d="M16.7975 5.87344C16.831 5.82034 16.8715 5.77142 16.9176 5.7295C16.9791 5.6736 17.0518 5.62749 17.1315 5.59674C17.158 5.58696 17.1888 5.59954 17.1985 5.62609C17.2083 5.65264 17.1957 5.68338 17.1692 5.69317C17.1021 5.71972 17.0406 5.75885 16.9875 5.80636C16.9456 5.84409 16.9107 5.88741 16.8813 5.93632C16.9456 5.97406 17.0197 5.99502 17.0965 5.99502C17.1734 5.99502 17.2488 5.97406 17.3117 5.93632C17.376 5.89859 17.4305 5.84409 17.4682 5.77701C17.5689 5.61351 17.71 5.47516 17.8777 5.38013C18.0482 5.28511 18.2355 5.23759 18.4297 5.23759V4.65625C18.3626 4.74569 18.2662 4.81277 18.1516 4.84351L16.9987 5.15235C16.9037 5.17471 16.8198 5.22921 16.7611 5.30327C16.6843 5.3997 16.6535 5.52407 16.6759 5.64426C16.7024 5.61211 16.7318 5.58277 16.7625 5.55482C16.8184 5.50311 16.8813 5.45979 16.9498 5.42346C16.9749 5.40948 17.0071 5.41926 17.0197 5.44442C17.0336 5.46957 17.0239 5.50171 16.9987 5.51429C16.9386 5.54643 16.8827 5.58556 16.8324 5.63168C16.7891 5.67081 16.75 5.71413 16.7164 5.76164C16.7374 5.80217 16.7653 5.8399 16.7975 5.87204V5.87344Z" fill="white"/>
<path fill-rule="evenodd" clip-rule="evenodd" d="M17.0643 19.8203C17.0741 19.7783 17.0811 19.735 17.0839 19.6903C17.0881 19.619 17.0797 19.545 17.0602 19.4709L16.7723 18.3962L15.6166 19.5519L15.6934 19.8384C15.7437 20.0271 15.8667 20.178 16.0232 20.2674C16.1798 20.3583 16.3712 20.389 16.5599 20.3387C16.599 20.3275 16.6381 20.315 16.6731 20.2982C16.5571 20.2591 16.4481 20.2032 16.3474 20.1361C16.2119 20.0438 16.0931 19.9279 15.9995 19.7923C15.9827 19.7685 15.9883 19.7364 16.0121 19.7196C16.0358 19.7029 16.068 19.7085 16.0847 19.7322C16.1714 19.8566 16.2818 19.9642 16.4061 20.0494C16.5235 20.1291 16.6549 20.1892 16.7946 20.2255C16.8338 20.1962 16.8687 20.164 16.9008 20.1291C16.7625 20.1039 16.6325 20.0522 16.5179 19.9824C16.3726 19.8943 16.2496 19.7727 16.1574 19.6316C16.142 19.6078 16.149 19.5757 16.1728 19.5589C16.1965 19.5436 16.2287 19.5505 16.2454 19.5743C16.3293 19.7029 16.4411 19.8133 16.5738 19.8929C16.694 19.9656 16.8296 20.0159 16.9749 20.0355C16.9805 20.0271 16.9861 20.0187 16.9903 20.0089C17.0057 19.981 17.021 19.953 17.0322 19.9223C16.8939 19.9111 16.7639 19.8678 16.6507 19.8021C16.5137 19.721 16.3964 19.6036 16.3181 19.4667C16.3041 19.4415 16.3125 19.4094 16.3377 19.3954C16.3628 19.3814 16.395 19.3898 16.4089 19.415C16.4788 19.5366 16.5794 19.6386 16.6996 19.7099C16.8072 19.7727 16.9344 19.8133 17.0657 19.8203H17.0643Z" fill="white"/>
<path fill-rule="evenodd" clip-rule="evenodd" d="M17.137 18.4534C17.1314 18.4254 17.1496 18.3975 17.1789 18.3919C17.2069 18.3863 17.2348 18.4045 17.2404 18.4338C17.2768 18.6183 17.2949 18.8069 17.2949 18.9956C17.2949 19.1493 17.2824 19.3002 17.26 19.4484L17.2572 19.4693C17.3089 19.3841 17.3648 19.3016 17.4235 19.2234C17.4291 19.1465 17.4319 19.0711 17.4319 18.9956C17.4319 18.7706 17.4081 18.5484 17.3592 18.329C17.3536 18.3011 17.3704 18.2731 17.3983 18.2675C17.4263 18.2619 17.4542 18.2787 17.4598 18.3066C17.5101 18.533 17.5353 18.7636 17.5353 18.9956C17.5353 19.0235 17.5353 19.0543 17.5339 19.085C17.5563 19.0585 17.5786 19.0333 17.601 19.0082L17.6303 18.9774V18.206C17.6303 18.1767 17.6541 18.1543 17.682 18.1543C17.71 18.1543 17.7337 18.1781 17.7337 18.206V18.8712C17.7854 18.8223 17.8371 18.7748 17.8916 18.7301C17.8791 18.6518 17.8693 18.5736 17.8623 18.4939C17.8553 18.4059 17.8511 18.3164 17.8511 18.2256C17.8511 18.1585 17.8539 18.0914 17.8581 18.0244C17.8595 17.9964 17.8847 17.974 17.9126 17.9754C17.942 17.9768 17.9629 18.002 17.9615 18.0299C17.9587 18.0956 17.9559 18.1599 17.9559 18.2256C17.9559 18.3136 17.9601 18.3989 17.9671 18.4841C17.9713 18.5414 17.9783 18.5973 17.9867 18.6532C18.0272 18.6211 18.0691 18.5917 18.1124 18.5624C18.0999 18.4506 18.0929 18.3374 18.0929 18.2256C18.0929 18.1138 18.0999 17.9908 18.1138 17.8734C18.1166 17.8455 18.1432 17.8245 18.1711 17.8273C18.1991 17.8301 18.2201 17.8567 18.2173 17.8846C18.2033 17.9978 18.1963 18.1096 18.1963 18.2242C18.1963 18.315 18.2005 18.4073 18.2089 18.4981C18.2732 18.4576 18.3402 18.4198 18.4073 18.3835C18.364 18.2088 18.3416 18.0271 18.3416 17.8469C18.3416 17.6163 18.3766 17.3941 18.4422 17.1859C18.5107 16.9693 18.6113 16.768 18.7385 16.5864C18.9747 16.2552 19.1005 15.8625 19.1005 15.4558C19.1005 15.2504 19.0683 15.0492 19.0054 14.8535C18.7371 15.3468 18.3933 15.7912 17.9881 16.1727C17.566 16.5696 17.0797 16.898 16.5445 17.1398L17.1566 19.4246C17.1775 19.2849 17.1887 19.1409 17.1887 18.9942C17.1887 18.8111 17.172 18.6322 17.137 18.452V18.4534Z" fill="white"/>
<path fill-rule="evenodd" clip-rule="evenodd" d="M16.6451 13.2338C16.6647 13.2548 16.6633 13.2883 16.6424 13.3079C16.6214 13.3275 16.5879 13.3261 16.5683 13.3051C16.3517 13.0675 16.1714 12.795 16.0359 12.4988C15.9171 12.2375 15.8318 11.958 15.7885 11.6645C15.713 11.7204 15.6264 11.7623 15.5314 11.7875C15.6446 11.951 15.741 12.1243 15.822 12.3073C15.9115 12.51 15.98 12.7252 16.0247 12.9488V12.9516C16.068 13.2506 16.1924 13.5231 16.374 13.7467C16.5585 13.9731 16.8031 14.1492 17.084 14.2498C17.4403 14.3881 17.7156 14.6159 17.9015 14.9024C18.0734 15.1679 18.1712 15.4824 18.1893 15.8219L18.2215 15.7856C18.2215 15.6193 18.2145 15.453 18.2047 15.2867C18.1949 15.1134 18.1796 14.9401 18.16 14.7683C18.1572 14.7403 18.1768 14.7138 18.2061 14.711C18.2341 14.7082 18.2606 14.7277 18.2634 14.7571C18.283 14.9304 18.2983 15.105 18.3095 15.2811C18.3165 15.4083 18.3221 15.5369 18.3249 15.6682C18.3668 15.6179 18.4087 15.5676 18.4493 15.5159C18.4437 15.3608 18.4353 15.2057 18.4213 15.0491C18.4073 14.8842 18.3906 14.7221 18.3696 14.5628C18.3654 14.5349 18.3864 14.5083 18.4143 14.5041C18.4423 14.4999 18.4688 14.5209 18.473 14.5489C18.4954 14.7138 18.5122 14.8773 18.5261 15.0394C18.5359 15.1526 18.5429 15.2671 18.5485 15.3845C18.589 15.3286 18.6281 15.2727 18.6673 15.2154C18.6617 15.1204 18.6547 15.0282 18.6463 14.9373C18.6379 14.8423 18.6267 14.7445 18.6142 14.6439C18.6114 14.6159 18.6309 14.5894 18.6603 14.5866C18.6882 14.5838 18.7148 14.6034 18.7176 14.6327C18.7288 14.7277 18.7399 14.8256 18.7497 14.929C18.7539 14.9765 18.7581 15.024 18.7623 15.0701C18.835 14.9541 18.902 14.8353 18.9649 14.7138V13.9438C18.9649 13.702 18.8797 13.4812 18.7385 13.3079C18.5946 13.1318 18.3906 13.0061 18.1586 12.9599H18.1572C17.8791 12.9054 17.6206 12.7964 17.3942 12.6427C17.1636 12.4862 16.9652 12.2822 16.8156 12.0474C16.7206 11.8825 16.6032 11.7344 16.4663 11.6058C16.4174 11.5597 16.3671 11.5164 16.314 11.4758C16.3489 11.5275 16.3796 11.5834 16.4076 11.6393C16.4872 11.8042 16.532 11.9887 16.5361 12.183C16.5361 12.2123 16.5138 12.2361 16.4858 12.2361C16.4565 12.2361 16.4327 12.2137 16.4327 12.1857C16.4285 12.0069 16.3866 11.8364 16.314 11.6855C16.2497 11.5513 16.1616 11.4297 16.0554 11.3291C16.0289 11.3948 15.9939 11.4563 15.952 11.5108C16.0806 11.6128 16.1896 11.7372 16.2734 11.8783C16.3643 12.032 16.4244 12.2053 16.4467 12.3912C16.4495 12.4191 16.4299 12.4457 16.4006 12.4485C16.3726 12.4513 16.3461 12.4317 16.3433 12.4024C16.3223 12.2319 16.2664 12.0726 16.184 11.9314C16.1071 11.8014 16.0079 11.6882 15.8905 11.5946C15.9296 11.8979 16.0149 12.1871 16.1365 12.4555C16.2678 12.7419 16.4425 13.0047 16.6521 13.2352L16.6451 13.2338Z" fill="white"/>
</g>
</g>
<rect x="0.25" y="0.25" width="23.5" height="23.5" rx="11.75" stroke="#E5E3E1" stroke-width="0.5"/>
<defs>
<clipPath id="clip0_16335_9959">
<rect width="24" height="24" rx="12" fill="white"/>
</clipPath>
</defs>
</svg>
