<svg width="24" height="24" viewBox="0 0 24 24" fill="none" xmlns="http://www.w3.org/2000/svg">
<path d="M4.07812 11.4469L4.00625 11.7156C4.00625 11.7156 4.89375 11.7156 5.25625 11.7156C6.075 11.7156 6.575 11.7906 6.62813 12.2906C6.63234 12.6259 6.56523 12.9583 6.43125 13.2656L6.18125 14.1719C6.11579 14.4655 5.99372 14.7436 5.82188 14.9906C5.64481 15.2132 5.40025 15.3722 5.125 15.4438C4.39726 15.5004 3.66676 15.5129 2.9375 15.4812C2.89375 15.5938 2.86562 15.725 2.83125 15.8438C3.99375 15.9062 5.11563 15.8438 6.30625 15.8625C6.67658 15.8988 7.04986 15.8925 7.41875 15.8438C7.91543 15.7472 8.32019 15.388 8.475 14.9062C8.63438 14.4375 8.7875 13.8906 8.92188 13.3906C8.97977 13.1335 9.06461 12.8831 9.175 12.6438C9.29067 12.441 9.44708 12.2643 9.63437 12.125C10.0496 11.7674 10.6305 11.6732 11.1375 11.8813C11.4326 12.0171 11.6066 12.3274 11.5688 12.65C11.5427 12.9835 11.4701 13.3117 11.3531 13.625C11.075 14.6094 10.8313 15.4469 10.5656 16.4125C10.495 16.7301 10.4052 17.0432 10.2969 17.35C10.0541 17.8993 9.54703 18.286 8.95312 18.375C8.38667 18.4236 7.81739 18.4298 7.25 18.3937H2.125C2.125 18.3937 2.0375 18.6437 2 18.775C4.25 18.8062 6.56563 18.7938 8.75625 18.7938C9.35 18.7938 9.90312 18.8094 10.4219 18.7594C11.7812 18.6379 13.1027 18.2469 14.3094 17.6094C16.0759 16.6595 17.5472 15.2423 18.5625 13.5125C19.1625 12.5 20.1625 11.7312 21.8125 11.7312L21.9219 11.4469H4.07812Z" fill="#002B5C"/>
<path d="M22 11.2625C20.75 11.2906 19.7938 10.75 19.7031 9.60938C19.6844 9.37813 19.7031 9.1625 19.7031 8.9625C19.654 8.40418 19.5147 7.85751 19.2906 7.34375C18.4656 5.46875 16.8438 4.41563 14.2375 4.21875H6.12187C6.12187 4.35938 6.04375 4.45625 6.03125 4.60313H11.2625C11.8344 4.60313 12.4688 4.525 12.95 4.65312C13.3623 4.75528 13.6417 5.13876 13.6125 5.5625C13.567 5.86701 13.4884 6.16565 13.3781 6.45312C13.1281 7.31875 12.9125 8.17813 12.6625 9.05C12.5 9.6125 12.3813 10.2156 12.0375 10.6344C11.6679 11.1177 11.0465 11.335 10.4563 11.1875C10.244 11.1476 10.0569 11.0236 9.9375 10.8438C9.66875 10.4281 9.91563 9.7875 10.0469 9.32812C10.1156 9.07812 10.1937 8.84375 10.2594 8.61563C10.3522 8.3746 10.4132 8.12246 10.4406 7.86562C10.4567 7.54421 10.2476 7.25465 9.9375 7.16875C9.5653 7.10197 9.18563 7.08725 8.80937 7.125C7.65625 7.125 6.4125 7.125 5.29688 7.14375C5.27187 7.26563 5.22813 7.36562 5.20625 7.49062C6.20938 7.49062 7.825 7.36562 7.825 8.1875C7.81031 8.39552 7.7672 8.60055 7.69688 8.79688C7.59063 9.16875 7.47813 9.5375 7.38438 9.9125C7.34244 10.102 7.28922 10.2888 7.225 10.4719C7.03437 10.9188 6.83125 11.2719 6.09375 11.2719H4.125L4.07812 11.4563H21.9344C21.9625 11.375 21.975 11.3344 22 11.2719" fill="#ED1C24"/>
</svg>
