<svg width="48" height="48" viewBox="0 0 48 48" fill="none" xmlns="http://www.w3.org/2000/svg">
<path fill-rule="evenodd" clip-rule="evenodd" d="M34.7704 31.84C34.7704 31.84 34.8104 31.86 34.8204 31.86C34.8604 31.86 34.8704 31.86 34.9104 31.82C34.9504 31.78 34.9504 31.71 34.9104 31.67C32.7404 29.29 30.0804 27.37 27.1004 26.13L26.1904 25.75C25.7204 25.54 25.4004 25.06 25.4004 24.51C25.4504 22.47 30.0504 22.89 30.5304 21.92L30.6004 21.75C29.6504 20.89 28.5404 20.27 27.3004 19.91C27.2804 19.97 27.2504 20.19 27.5004 20.63C27.7704 21.09 27.2104 21.83 26.3704 21.03L26.3004 20.97C20.2104 15.15 17.4004 18.99 13.2604 12.22C13.2204 12.16 13.1704 12.14 13.1104 12.18C13.0604 12.22 13.0404 12.28 13.0604 12.33C16.3204 20.53 23.0004 18.8 23.7804 26.45C23.8204 26.74 24.0204 26.96 24.2904 27C27.9904 27.61 31.6004 29.21 34.7404 31.83H34.7604" fill="#DF0000"/>
<path d="M44.1191 33.46H3.86914V38.98H44.1191V33.46Z" fill="#8DE2E0"/>
<path d="M44.1209 39.98H3.88086C3.33086 39.98 2.88086 39.53 2.88086 38.98V9.02002C2.88086 8.47002 3.33086 8.02002 3.88086 8.02002H34.2409C34.4909 8.02002 34.7309 8.11002 34.9109 8.28002L44.8009 17.21C45.0109 17.4 45.1309 17.67 45.1309 17.95V38.98C45.1309 39.53 44.6809 39.98 44.1309 39.98H44.1209ZM4.88086 37.98H43.1309V18.39L33.8509 10.02H4.88086V37.98Z" fill="#323232"/>
</svg>
