<svg width="48" height="48" viewBox="0 0 48 48" fill="none" xmlns="http://www.w3.org/2000/svg">
<path d="M30.9898 8.37012H17.0098V12.8301H30.9898V8.37012Z" fill="#DF0000"/>
<path d="M30.9898 16.1899H17.0098V20.6499H30.9898V16.1899Z" fill="#DF0000"/>
<path d="M23.9995 45.1299C23.7795 45.1299 23.5595 45.0599 23.3795 44.9099L13.6495 37.1299C13.4095 36.9399 13.2695 36.6499 13.2695 36.3499V3.87988C13.2695 3.32988 13.7195 2.87988 14.2695 2.87988H33.7295C34.2795 2.87988 34.7295 3.32988 34.7295 3.87988V36.3499C34.7295 36.6499 34.5895 36.9399 34.3495 37.1299L24.6195 44.9099C24.4395 45.0599 24.2195 45.1299 23.9995 45.1299ZM15.2695 35.8599L23.9995 42.8399L32.7295 35.8599V4.87988H15.2695V35.8699V35.8599Z" fill="#323232"/>
<path d="M23.9995 24L25.9995 28.06L30.4795 28.71L27.2395 31.87L28.0095 36.33L23.9995 34.23L19.9895 36.33L20.7595 31.87L17.5195 28.71L21.9995 28.06L23.9995 24Z" fill="#8DE2E0"/>
<path d="M28.0097 37.33C27.8497 37.33 27.6897 37.29 27.5397 37.22L23.9997 35.36L20.4597 37.22C20.1197 37.4 19.7097 37.37 19.4097 37.14C19.0997 36.92 18.9497 36.54 19.0097 36.16L19.6897 32.22L16.8197 29.43C16.5497 29.16 16.4497 28.77 16.5697 28.4C16.6897 28.04 16.9997 27.77 17.3797 27.72L21.3397 27.14L23.1097 23.55C23.4497 22.87 24.5697 22.87 24.8997 23.55L26.6697 27.14L30.6297 27.72C31.0097 27.77 31.3197 28.04 31.4397 28.4C31.5597 28.76 31.4597 29.16 31.1897 29.43L28.3197 32.22L28.9997 36.16C29.0597 36.54 28.9097 36.91 28.5997 37.14C28.4297 37.27 28.2197 37.33 28.0097 37.33ZM23.9997 33.23C24.1597 33.23 24.3197 33.27 24.4697 33.34L26.6797 34.5L26.2597 32.03C26.1997 31.71 26.3097 31.37 26.5497 31.14L28.3397 29.39L25.8597 29.03C25.5297 28.98 25.2497 28.78 25.1097 28.48L23.9997 26.24L22.8897 28.48C22.7397 28.78 22.4597 28.98 22.1397 29.03L19.6597 29.39L21.4497 31.14C21.6897 31.37 21.7897 31.7 21.7397 32.03L21.3197 34.5L23.5297 33.34C23.6797 33.26 23.8397 33.23 23.9997 33.23Z" fill="#323232"/>
</svg>
