<svg width="24" height="24" viewBox="0 0 24 24" fill="none" xmlns="http://www.w3.org/2000/svg">
<path fill-rule="evenodd" clip-rule="evenodd" d="M21.9594 11.9858C21.9594 17.493 17.4906 21.9606 11.9797 21.9606C6.47002 21.9606 2 17.493 2 11.9858C2 6.47124 6.47002 2.00245 11.9797 2.00245C17.4906 2.00245 21.9594 6.47124 21.9594 11.9858Z" fill="#FFFFFE"/>
<path fill-rule="evenodd" clip-rule="evenodd" d="M16.2695 5.96858C19.3088 6.90525 21.5143 9.7361 21.5143 13.0831C21.5143 13.5674 21.469 14.0492 21.3795 14.5077L21.3672 14.5739C21.138 15.8845 20.6022 17.0946 19.8408 18.1269L19.8323 18.1379C21.1649 16.446 21.9606 14.303 21.9606 11.9821C21.9606 6.46389 17.4906 2 11.9797 2C9.46515 2 7.16884 2.92196 5.41443 4.45692L5.39236 4.47408C4.0082 5.73932 3.14264 7.56484 3.14264 9.58775C3.14264 10.43 3.29344 11.2269 3.56561 11.9748L3.58155 12.0079C4.27179 13.5306 5.80675 14.5874 7.58814 14.5874C10.0218 14.5874 11.9907 12.616 11.9907 10.1848L11.9797 8.29309C11.9797 7.41895 12.4652 6.66128 13.1824 6.27141L13.1898 6.26773C13.7476 5.95755 14.3888 5.78591 15.0741 5.78591C15.4861 5.78591 15.8907 5.84843 16.2658 5.9649L16.2695 5.96858Z" fill="#D8232A"/>
<path fill-rule="evenodd" clip-rule="evenodd" d="M11.9834 21.9753C14.4942 21.9753 16.7869 21.0423 18.5437 19.511L18.5695 19.489C19.95 18.2176 20.818 16.3994 20.818 14.3729C20.818 13.5416 20.6684 12.7361 20.395 11.9932L20.3803 11.9564C19.6851 10.4325 18.1539 9.37197 16.3712 9.37197C13.9376 9.37197 11.9687 11.3483 11.9687 13.7746L11.9834 15.6736C11.9834 16.5478 11.4954 17.303 10.7807 17.6929C10.2142 18.0055 9.57427 18.1808 8.88525 18.1808C8.47209 18.1808 8.07364 18.1159 7.69357 17.9982C4.6543 17.0627 2.44627 14.227 2.44627 10.8812C2.44627 10.3932 2.49163 9.91877 2.58481 9.45657L2.59216 9.39037C2.8251 8.07854 3.35596 6.86847 4.11731 5.84108L4.12589 5.81901C2.79568 7.52071 2 9.66131 2 11.9858C2 13.5894 2.37884 15.1011 3.05069 16.4497C3.43793 17.2212 3.86704 17.871 4.33799 18.3991C6.16352 20.5863 8.91468 21.9753 11.9834 21.9753Z" fill="#15468A"/>
</svg>
