<svg width="48" height="48" viewBox="0 0 48 48" fill="none" xmlns="http://www.w3.org/2000/svg">
<path d="M32.8596 2.43994C29.9296 2.43994 27.5596 4.81994 27.5596 7.73994C27.5596 12.5099 32.8596 17.5899 32.8596 17.5899C32.8596 17.5899 38.1596 12.5099 38.1596 7.73994C38.1596 4.80994 35.7796 2.43994 32.8596 2.43994ZM32.8596 9.96994C31.6296 9.96994 30.6296 8.96994 30.6296 7.73994C30.6296 6.50994 31.6296 5.50994 32.8596 5.50994C34.0896 5.50994 35.0896 6.50994 35.0896 7.73994C35.0896 8.96994 34.0896 9.96994 32.8596 9.96994Z" fill="#DF0000"/>
<path d="M39.3595 14.45C39.3595 14.45 39.3595 14.45 39.3495 14.44C39.3495 14.44 39.3395 14.44 39.3295 14.43C39.1495 14.23 38.9195 14.11 38.6695 14.09C38.6495 14.09 38.6395 14.09 38.6195 14.09C38.5095 14.09 38.3895 14.09 38.2795 14.13C38.2295 14.15 38.1895 14.18 38.1395 14.2C38.0795 14.23 38.0095 14.25 37.9495 14.3C37.9495 14.3 37.9495 14.3 37.9495 14.31C37.8595 14.39 37.7795 14.48 37.7195 14.58C37.7195 14.58 37.7095 14.59 37.6995 14.6C37.6595 14.67 37.6495 14.76 37.6295 14.84C37.6195 14.89 37.5995 14.93 37.5895 14.97C37.5895 14.97 37.5895 14.97 37.5895 14.99C37.4095 17.02 35.7895 19.41 35.5095 19.81L35.0695 20.25C33.9195 21.43 32.3095 22.11 30.6195 22.11H30.5995C29.9895 22.13 29.1195 22.24 28.6995 22.94C28.2495 23.67 28.6095 24.44 28.8695 24.99C28.9395 25.14 29.0195 25.3 29.0695 25.45C29.1095 25.55 29.1395 25.65 29.1695 25.74C29.5595 26.96 30.0695 27.5 32.1795 28.09C32.2195 28.1 32.2495 28.11 32.2695 28.12C32.0695 28.69 30.8995 29.89 30.4295 30.36L29.9795 30.82C28.9495 31.91 29.0695 33.26 29.1395 34.16C29.1595 34.34 29.1795 34.57 29.1695 34.71C29.0795 34.76 28.9595 34.82 28.8495 34.87C28.0795 35.25 26.7795 35.87 26.6395 37.9C26.5495 39.12 26.0795 39.39 25.2795 39.41C24.6695 39.05 23.5795 36.55 23.7395 35.84C24.1595 34.05 23.8095 32.84 22.6895 32.23L22.5895 32.18C22.1395 31.94 22.0795 31.9 21.4795 30.26C20.6295 27.93 18.7295 28.54 17.7095 28.88C17.2695 29.02 16.8095 29.17 16.3995 29.19C16.2595 29.19 15.9695 29.02 15.6995 28.51C15.0795 27.35 15.0395 25.39 16.3395 23.61C17.9795 21.37 19.8395 21.05 22.2195 22.6C23.3995 23.37 24.8695 23.41 26.1795 22.71C27.6595 21.91 28.5695 20.38 28.5695 18.71C28.5695 16.67 26.9795 16.19 26.0295 15.91C24.9895 15.6 24.9495 15.5 24.9495 15.09C24.9495 14.6 25.1695 13.98 26.8095 13.11C27.2995 12.85 27.4795 12.24 27.2195 11.76C26.9595 11.27 26.3495 11.09 25.8695 11.35C24.5095 12.07 22.9495 13.16 22.9495 15.1C22.9495 17.04 24.5195 17.56 25.4595 17.84C26.4895 18.15 26.5695 18.26 26.5695 18.72C26.5695 19.64 26.0395 20.52 25.2295 20.96C24.9195 21.13 24.1095 21.46 23.3195 20.94C20.0495 18.8 16.9995 19.33 14.7295 22.44C12.9195 24.92 13.0295 27.75 13.9395 29.46C14.5395 30.59 15.4795 31.25 16.4795 31.2C17.1695 31.17 17.7895 30.97 18.3295 30.79C19.0495 30.5566 19.4729 30.6133 19.5995 30.96C20.3495 33.01 20.6195 33.4 21.6395 33.95L21.7295 34C22.0295 34.16 21.8995 34.95 21.7895 35.4C21.4895 36.67 22.4095 39.11 23.4095 40.36C23.9695 41.07 24.5795 41.43 25.1995 41.43C27.2295 41.43 28.4795 40.2 28.6295 38.07C28.6895 37.19 29.0595 37.01 29.7195 36.69C29.9995 36.55 30.2895 36.41 30.5495 36.2C31.2595 35.63 31.1895 34.73 31.1195 34C31.0495 33.18 31.0295 32.62 31.4095 32.21L31.8395 31.77C33.1295 30.45 34.5895 28.95 34.2195 27.54C34.0995 27.08 33.7295 26.47 32.6995 26.18C31.2595 25.77 31.2095 25.64 31.0495 25.14C31.0095 25.03 30.9795 24.91 30.9295 24.78C30.8495 24.57 30.7495 24.35 30.6595 24.14C30.6595 24.13 30.6495 24.11 30.6395 24.1C32.8195 24.1 34.9495 23.2 36.4695 21.65L36.9595 21.16C36.9595 21.16 37.0295 21.08 37.0595 21.04C37.1295 20.95 38.2795 19.35 38.9995 17.43C40.7495 20.23 41.7095 23.49 41.7095 26.82C41.7095 36.6 33.7595 44.55 23.9795 44.55C14.1995 44.55 6.26953 36.61 6.26953 26.83C6.26953 17.05 14.2195 9.09998 23.9995 9.09998C24.4095 9.09998 24.8095 9.10998 25.2095 9.13998C25.7695 9.18998 26.2395 8.75998 26.2695 8.20998C26.2995 7.65998 25.8895 7.17998 25.3395 7.14998C24.8895 7.11998 24.4395 7.09998 23.9895 7.09998C13.1195 7.09998 4.26953 15.95 4.26953 26.83C4.26953 37.71 13.1195 46.56 23.9995 46.56C34.8795 46.56 43.7295 37.71 43.7295 26.83C43.7295 22.34 42.1795 17.94 39.3595 14.45Z" fill="#323232"/>
<path d="M21.0304 42.7C20.9704 42.7 20.9104 42.7 20.8604 42.68C10.9504 40.93 8.14044 30.99 8.02044 30.57C7.87044 30.04 8.19044 29.49 8.72044 29.34C9.25044 29.2 9.80044 29.51 9.95044 30.04C9.98044 30.13 12.5604 39.18 21.2104 40.71C21.7504 40.81 22.1204 41.32 22.0204 41.87C21.9304 42.36 21.5104 42.7 21.0404 42.7H21.0304Z" fill="#8DE2E0"/>
</svg>
