<svg width="24" height="24" viewBox="0 0 24 24" fill="none" xmlns="http://www.w3.org/2000/svg">
<g clip-path="url(#clip0_16335_2583)">
<path d="M20.4851 20.4853C25.1714 15.799 25.1714 8.20101 20.4851 3.51472C15.7988 -1.17157 8.20081 -1.17157 3.51452 3.51472C-1.17177 8.20101 -1.17177 15.799 3.51452 20.4853C8.20081 25.1716 15.7988 25.1716 20.4851 20.4853Z" fill="white"/>
<mask id="mask0_16335_2583" style="mask-type:luminance" maskUnits="userSpaceOnUse" x="-1" y="0" width="25" height="24">
<path d="M20.4851 20.4853C25.1714 15.799 25.1714 8.20101 20.4851 3.51472C15.7988 -1.17157 8.20081 -1.17157 3.51452 3.51472C-1.17177 8.20101 -1.17177 15.799 3.51452 20.4853C8.20081 25.1716 15.7988 25.1716 20.4851 20.4853Z" fill="white"/>
</mask>
<g mask="url(#mask0_16335_2583)">
<path d="M29.9993 0H-6.00067V8.00047H29.9993V0Z" fill="#FF0000"/>
<path d="M29.9993 8.00049H-6.00067V16.001H29.9993V8.00049Z" fill="white"/>
<path d="M29.9993 16.001H-6.00067V24.0014H29.9993V16.001Z" fill="black"/>
<path fill-rule="evenodd" clip-rule="evenodd" d="M2.8858 11.2915H5.28105L6.02171 9.01221L6.76096 11.2915H9.15761L7.21793 12.6973L7.95998 14.978L6.02171 13.5637L4.08343 14.978L4.82408 12.6973L2.8858 11.2915Z" fill="#007C29"/>
<path fill-rule="evenodd" clip-rule="evenodd" d="M14.8425 11.2915H17.2391L17.9784 9.01221L18.719 11.2915H21.1143L19.176 12.6973L19.9167 14.978L17.9784 13.5637L16.0401 14.978L16.7821 12.6973L14.8425 11.2915Z" fill="#007C29"/>
</g>
</g>
<rect x="0.25" y="0.25" width="23.5" height="23.5" rx="11.75" stroke="#E5E3E1" stroke-width="0.5"/>
<defs>
<clipPath id="clip0_16335_2583">
<rect width="24" height="24" rx="12" fill="white"/>
</clipPath>
</defs>
</svg>
