<svg width="48" height="48" viewBox="0 0 48 48" fill="none" xmlns="http://www.w3.org/2000/svg">
<path d="M16.9606 40.28C16.7506 40.28 16.5306 40.21 16.3506 40.07L6.56063 32.51C5.98063 32.05 5.64062 31.37 5.64062 30.64C5.64062 30.06 5.85063 29.51 6.23063 29.08C7.04063 28.18 8.38062 28.02 9.36062 28.72L14.3006 31.73C14.7706 32.02 14.9206 32.63 14.6306 33.1C14.3406 33.57 13.7306 33.72 13.2606 33.43L8.26063 30.38C8.05063 30.23 7.85063 30.26 7.73063 30.4C7.66063 30.48 7.64062 30.58 7.64062 30.63C7.64062 30.71 7.66063 30.82 7.78063 30.92L17.5606 38.48C18.0006 38.82 18.0806 39.45 17.7406 39.88C17.5406 40.13 17.2506 40.27 16.9506 40.27L16.9606 40.28Z" fill="#323232"/>
<path d="M17.3009 40.7106C17.2209 40.7106 17.1409 40.7106 17.0509 40.6806L4.92086 37.6106C3.83086 37.2706 3.13086 36.3206 3.13086 35.2306C3.13086 34.9406 3.19086 34.6506 3.30086 34.3506C3.76086 33.1606 5.02086 32.5206 6.24086 32.8306L11.2209 33.7206C11.7609 33.8206 12.1209 34.3406 12.0309 34.8806C11.9309 35.4206 11.4109 35.7906 10.8709 35.6906L5.82086 34.7806C5.50086 34.7006 5.27086 34.8206 5.18086 35.0506C5.16086 35.1106 5.14086 35.1806 5.14086 35.2306C5.14086 35.3906 5.23086 35.6106 5.47086 35.6906L17.5509 38.7506C18.0909 38.8906 18.4109 39.4306 18.2709 39.9606C18.1609 40.4106 17.7509 40.7106 17.3009 40.7106Z" fill="#323232"/>
<path d="M21.5614 44.1502C20.2814 44.1502 19.5814 43.9702 19.1814 43.5702C18.9914 43.3802 18.4214 42.8102 14.8014 37.7202C13.6714 36.1302 12.9514 34.2102 12.7214 32.1702C12.3414 28.8102 13.3914 26.6202 13.4414 26.5202C13.6714 25.9202 14.2114 25.3702 14.8914 25.1002C15.2314 24.9702 15.5914 24.9002 15.9514 24.9202C15.7814 24.2602 15.8814 23.5502 16.2814 22.9402C16.6614 22.3502 17.2714 21.9502 17.9614 21.8402C18.6514 21.7302 19.3614 21.9102 19.9114 22.3402C21.4414 23.5402 24.3914 25.6602 26.5814 27.2302C28.6914 28.7402 33.7614 31.2702 36.1814 31.5602C36.7314 31.6302 37.1214 32.1202 37.0514 32.6702C36.9814 33.2202 36.4914 33.6002 35.9414 33.5402C33.0914 33.2002 27.7214 30.4902 25.4214 28.8502C23.2114 27.2702 20.2414 25.1302 18.6814 23.9002C18.5314 23.7802 18.3714 23.7902 18.3014 23.8002C18.2214 23.8102 18.0714 23.8602 17.9714 24.0202C17.8514 24.2102 17.8714 24.4602 18.0214 24.6302C18.4514 25.0902 19.0114 25.6502 19.6114 26.2702C22.0614 28.7702 23.9814 30.7702 24.5614 31.9002C25.2214 33.1802 25.3614 34.7402 24.9114 35.8502C24.5914 36.6602 23.9914 37.2402 23.1814 37.5302C21.3414 38.1902 18.4714 36.1602 17.4414 34.8902C15.6514 32.6602 16.0914 29.7102 16.2814 28.4502L16.3214 28.1602C16.4614 27.1202 16.2614 27.0202 16.1414 26.9602C15.9214 26.8502 15.7314 26.9002 15.6314 26.9402C15.5314 26.9802 15.3614 27.0702 15.2714 27.3002C15.2314 27.3902 14.4014 29.1802 14.7114 31.9202C14.9014 33.6202 15.5014 35.2202 16.4414 36.5302C19.3114 40.5702 20.2414 41.7202 20.5314 42.0402C21.5914 42.3502 26.6914 41.6602 29.1714 41.3302C30.6814 41.1202 31.9914 40.9502 32.7914 40.8902C34.1314 40.7902 35.8414 40.7202 36.4314 40.9602C36.9414 41.1602 37.2014 41.7402 36.9914 42.2602C36.7914 42.7702 36.2114 43.0302 35.7014 42.8302C35.7314 42.8302 35.5314 42.8102 34.9614 42.8102C34.5314 42.8102 33.8814 42.8302 32.9314 42.9002C32.1914 42.9502 30.9214 43.1302 29.4414 43.3302C25.6114 43.8502 23.1514 44.1302 21.5714 44.1302L21.5614 44.1502ZM18.3614 27.8902C18.3514 28.1202 18.3214 28.3102 18.3014 28.4602L18.2514 28.7802C18.0914 29.8702 17.7514 32.1302 18.9914 33.6702C19.8914 34.7902 21.9414 35.8902 22.5014 35.6802C22.7614 35.5902 22.9414 35.4202 23.0414 35.1402C23.2714 34.5502 23.1614 33.6002 22.7714 32.8302C22.3014 31.9202 19.9914 29.5402 18.3614 27.8802V27.8902Z" fill="#323232"/>
<path d="M41.3605 43.5308V30.8408H36.0605V43.5308H41.3605Z" fill="#8DE2E0"/>
<path d="M41.3608 44.5406H36.0508C35.5008 44.5406 35.0508 44.0906 35.0508 43.5406V30.8506C35.0508 30.3006 35.5008 29.8506 36.0508 29.8506H41.3608C41.9108 29.8506 42.3608 30.3006 42.3608 30.8506V43.5406C42.3608 44.0906 41.9108 44.5406 41.3608 44.5406ZM37.0608 42.5406H40.3708V31.8506H37.0608V42.5406Z" fill="#323232"/>
<path d="M40.0014 19.7103C39.5314 19.7103 39.0514 19.5703 38.6414 19.2703L33.7014 16.2603C33.2314 15.9703 33.0814 15.3603 33.3714 14.8903C33.6614 14.4203 34.2714 14.2703 34.7414 14.5603L39.7414 17.6103C39.9514 17.7603 40.1514 17.7303 40.2714 17.5903C40.3414 17.5103 40.3614 17.4203 40.3614 17.3603C40.3614 17.2803 40.3414 17.1703 40.2214 17.0703L30.4414 9.51032C30.0014 9.17032 29.9214 8.54032 30.2614 8.11032C30.6014 7.67032 31.2314 7.59032 31.6614 7.93032L41.4514 15.4903C42.0314 15.9503 42.3714 16.6303 42.3714 17.3603C42.3714 17.9403 42.1614 18.4903 41.7814 18.9203C41.3114 19.4403 40.6714 19.7103 40.0214 19.7103H40.0014Z" fill="#323232"/>
<path d="M42.3804 15.25C42.1704 15.25 41.9604 15.22 41.7504 15.17L36.7704 14.28C36.2304 14.18 35.8704 13.66 35.9604 13.12C36.0604 12.58 36.5804 12.21 37.1204 12.31L42.1704 13.22C42.4904 13.3 42.7204 13.18 42.8104 12.95C42.8304 12.89 42.8504 12.82 42.8504 12.77C42.8504 12.61 42.7604 12.39 42.5204 12.31L30.4404 9.24997C29.9004 9.10997 29.5804 8.56997 29.7204 8.03997C29.8604 7.49997 30.4004 7.17997 30.9304 7.31997L43.0604 10.39C44.1504 10.73 44.8504 11.68 44.8504 12.77C44.8504 13.06 44.7904 13.35 44.6804 13.65C44.3004 14.64 43.3704 15.25 42.3604 15.25H42.3804Z" fill="#323232"/>
<path d="M29.6305 26.1695C29.0805 26.1695 28.5305 25.9895 28.0905 25.6395C26.5605 24.4395 23.6105 22.3195 21.4205 20.7495C19.3105 19.2395 14.2405 16.7095 11.8205 16.4195C11.2705 16.3495 10.8805 15.8595 10.9505 15.3095C11.0205 14.7595 11.5205 14.3695 12.0605 14.4395C14.9105 14.7795 20.2805 17.4895 22.5805 19.1295C24.7905 20.7095 27.7605 22.8495 29.3205 24.0795C29.4705 24.1995 29.6205 24.1895 29.7005 24.1795C29.7805 24.1695 29.9305 24.1195 30.0305 23.9595C30.1505 23.7695 30.1305 23.5195 29.9805 23.3495C29.5505 22.8895 28.9905 22.3295 28.3905 21.7095C25.9405 19.2095 24.0205 17.2095 23.4405 16.0795C22.7805 14.7995 22.6405 13.2395 23.0905 12.1295C23.4105 11.3195 24.0105 10.7395 24.8205 10.4495C26.6605 9.78951 29.5305 11.8195 30.5605 13.0895C32.3505 15.3195 31.9105 18.2695 31.7205 19.5295L31.6805 19.8195C31.5405 20.8595 31.7405 20.9595 31.8605 21.0195C32.0805 21.1195 32.2705 21.0795 32.3705 21.0395C32.4705 20.9995 32.6405 20.9095 32.7305 20.6795C32.7705 20.5895 33.6005 18.7995 33.2905 16.0595C33.1005 14.3595 32.5005 12.7595 31.5605 11.4495C28.6905 7.40951 27.7605 6.25951 27.4705 5.93951C26.4105 5.62951 21.3105 6.31951 18.8305 6.64951C17.3205 6.85951 16.0105 7.02951 15.2105 7.08951C13.8705 7.18951 12.1605 7.25951 11.5705 7.01951C11.0605 6.81951 10.8005 6.23951 11.0105 5.71951C11.2105 5.20951 11.7905 4.95951 12.3005 5.14951C12.2705 5.14951 12.4605 5.16951 13.0405 5.16951C13.4705 5.16951 14.1205 5.14951 15.0705 5.07951C15.8105 5.02951 17.0805 4.84951 18.5605 4.64951C25.4805 3.70951 27.9305 3.54951 28.8005 4.42951C28.9905 4.61951 29.5605 5.18951 33.1805 10.2795C34.3105 11.8695 35.0305 13.7895 35.2605 15.8295C35.6405 19.1895 34.5905 21.3795 34.5405 21.4795C34.3105 22.0795 33.7705 22.6295 33.0905 22.8995C32.7505 23.0295 32.3905 23.0995 32.0305 23.0795C32.2005 23.7395 32.0905 24.4495 31.7005 25.0595C31.3205 25.6395 30.7105 26.0495 30.0205 26.1595C29.8805 26.1795 29.7505 26.1895 29.6105 26.1895L29.6305 26.1695ZM25.6605 12.2895C25.6005 12.2895 25.5405 12.2895 25.5005 12.3095C25.2405 12.3995 25.0605 12.5695 24.9605 12.8495C24.7305 13.4395 24.8405 14.3895 25.2305 15.1595C25.7005 16.0695 28.0105 18.4495 29.6405 20.1095C29.6505 19.8795 29.6805 19.6895 29.7005 19.5395L29.7505 19.2195C29.9105 18.1295 30.2505 15.8695 29.0105 14.3295C28.1805 13.2995 26.3805 12.2895 25.6705 12.2895H25.6605Z" fill="#323232"/>
<path d="M6.64062 4.46973V17.1597H11.9406V4.46973H6.64062Z" fill="#8DE2E0"/>
<path d="M11.9409 18.16H6.63086C6.08086 18.16 5.63086 17.71 5.63086 17.16V4.45996C5.63086 3.90996 6.08086 3.45996 6.63086 3.45996H11.9409C12.4909 3.45996 12.9409 3.90996 12.9409 4.45996V17.15C12.9409 17.7 12.4909 18.15 11.9409 18.15V18.16ZM7.64086 16.16H10.9509V5.45996H7.64086V16.15V16.16Z" fill="#323232"/>
</svg>
