<svg width="48" height="48" viewBox="0 0 48 48" fill="none" xmlns="http://www.w3.org/2000/svg">
<path d="M33.15 46.1001C32.6 46.1001 32.15 45.6501 32.15 45.1001V33.8401C32.15 33.2901 32.6 32.8401 33.15 32.8401C33.7 32.8401 34.15 33.2901 34.15 33.8401V45.1001C34.15 45.6501 33.7 46.1001 33.15 46.1001ZM21.89 46.1001C21.34 46.1001 20.89 45.6501 20.89 45.1001V33.8401C20.89 33.2901 21.34 32.8401 21.89 32.8401C22.44 32.8401 22.89 33.2901 22.89 33.8401V45.1001C22.89 45.6501 22.44 46.1001 21.89 46.1001ZM27.52 41.8701C26.97 41.8701 26.52 41.4201 26.52 40.8701V33.8301C26.52 33.2801 26.97 32.8301 27.52 32.8301C28.07 32.8301 28.52 33.2801 28.52 33.8301V40.8701C28.52 41.4201 28.07 41.8701 27.52 41.8701ZM16.25 41.8701C15.7 41.8701 15.25 41.4201 15.25 40.8701V33.8301C15.25 33.2801 15.7 32.8301 16.25 32.8301C16.8 32.8301 17.25 33.2801 17.25 33.8301V40.8701C17.25 41.4201 16.8 41.8701 16.25 41.8701Z" fill="#323232"/>
<path d="M34.5399 13.2796C34.4699 13.2796 34.3999 13.2796 34.3299 13.2796C32.5299 9.72961 28.8999 7.47961 24.8999 7.47961C24.8199 7.47961 24.7499 7.47961 24.6699 7.47961C23.4799 7.47961 22.3299 7.68961 21.2499 8.05961C20.4199 4.48961 17.2099 1.84961 13.4099 1.84961C13.1799 1.84961 12.9499 1.87961 12.7199 1.91961C12.4199 1.97961 12.1599 2.16961 12.0099 2.44961C11.8699 2.71961 11.8599 3.04961 11.9899 3.32961C12.2199 3.82961 12.3499 4.38961 12.3499 4.93961C12.3499 7.10961 10.5899 8.86961 8.41988 8.86961C7.86988 8.86961 7.33988 8.74961 6.83988 8.52961C6.55988 8.40961 6.23988 8.40961 5.96988 8.54961C5.69988 8.68961 5.50988 8.93961 5.44988 9.23961C5.40988 9.44961 5.37988 9.66961 5.37988 9.88961C5.37988 13.2696 7.46988 16.1696 10.4399 17.3496C9.11988 18.5396 8.25988 20.2396 8.18988 22.1596C8.05988 25.9096 10.9999 29.0596 14.7499 29.1896C14.8299 29.1896 14.9099 29.1896 14.9899 29.1896C15.0699 29.1896 15.1299 29.1896 15.1899 29.1896H34.4199C34.4199 29.1896 34.4799 29.1896 34.4999 29.1896C38.8899 29.1896 42.4999 25.6496 42.5799 21.2096C42.4999 16.7996 38.8899 13.2696 34.5199 13.2696L34.5399 13.2796ZM7.45988 10.7896C7.77988 10.8396 8.09988 10.8696 8.42988 10.8696C11.6999 10.8696 14.3599 8.20961 14.3599 4.93961C14.3599 4.59961 14.3299 4.24961 14.2699 3.90961C16.8899 4.26961 18.9599 6.31961 19.3799 8.93961C16.9499 10.3696 15.1199 12.7596 14.4599 15.6196C13.9599 15.6596 13.4699 15.7596 12.9999 15.9096C10.1499 15.6996 7.86988 13.5496 7.45988 10.7896ZM34.5199 27.1996C34.5199 27.1996 34.4699 27.1996 34.4399 27.1996H15.1799C15.0699 27.1996 14.9499 27.1996 14.8399 27.1996C12.1899 27.1096 10.1199 24.8796 10.2099 22.2296C10.2999 19.6396 12.4399 17.5996 15.0399 17.5996C15.0699 17.5996 15.1099 17.5996 15.1399 17.5996C15.1899 17.5996 15.2499 17.6096 15.2899 17.6096C15.7899 17.6096 16.2099 17.2496 16.2799 16.7496C16.6899 13.9296 18.4699 11.5996 20.8899 10.3896C20.8999 10.3896 20.9199 10.3796 20.9299 10.3696C22.0699 9.79961 23.3499 9.47961 24.6999 9.47961C24.7599 9.47961 24.8199 9.47961 24.8899 9.47961C28.3399 9.47961 31.4399 11.5196 32.7999 14.7096C32.9699 15.1096 33.3799 15.3596 33.8199 15.3096C34.0499 15.2896 34.2799 15.2796 34.5299 15.2796C37.8299 15.2796 40.5499 17.9396 40.6099 21.2196C40.5499 24.5296 37.8299 27.1996 34.5299 27.1996H34.5199Z" fill="#323232"/>
<path fill-rule="evenodd" clip-rule="evenodd" d="M31.0999 16.4997C31.4199 15.5797 30.8099 13.8397 28.6399 12.3197C26.4699 10.7997 23.4299 10.9097 23.4199 12.0297C23.4199 12.8397 24.6799 12.2797 26.8499 13.7997C29.0199 15.3197 30.4699 17.4097 31.1099 16.4997" fill="#8DE2E0"/>
</svg>
