<svg width="24" height="24" viewBox="0 0 24 24" fill="none" xmlns="http://www.w3.org/2000/svg">
<path fill-rule="evenodd" clip-rule="evenodd" d="M14.7072 4.29297L17.5519 7.13764L20.0001 4.68942V11.0001H13.6894L16.1376 8.55185L13.293 5.70718L14.7072 4.29297ZM5 9C4.44772 9 4 9.44771 4 10V20C4 20.5523 4.44772 21 5 21H6C6.55228 21 7 20.5523 7 20V10C7 9.44772 6.55228 9 6 9H5ZM11 13C10.4477 13 10 13.4477 10 14V20C10 20.5523 10.4477 21 11 21H12C12.5523 21 13 20.5523 13 20V14C13 13.4477 12.5523 13 12 13H11ZM16 18C16 17.4477 16.4477 17 17 17H18C18.5523 17 19 17.4477 19 18V20C19 20.5523 18.5523 21 18 21H17C16.4477 21 16 20.5523 16 20V18Z" fill="#323232"/>
</svg>
