<svg width="48" height="48" viewBox="0 0 48 48" fill="none" xmlns="http://www.w3.org/2000/svg">
<path d="M31.1698 32.8505C30.7298 32.8505 30.3198 32.5505 30.1998 32.1005L28.7598 26.5705C27.9498 23.6405 26.8398 20.5005 24.0998 20.4805H24.0598C21.8698 20.4805 20.4198 22.3305 19.3298 26.4705L17.7898 31.9905C17.6398 32.5205 17.0798 32.8305 16.5598 32.6805C16.0298 32.5305 15.7198 31.9805 15.8698 31.4505L17.4098 25.9505C17.9398 23.9205 19.3598 18.4805 24.0698 18.4805H24.1298C28.6098 18.5205 29.9698 23.4205 30.6998 26.0505L32.1398 31.5905C32.2798 32.1205 31.9598 32.6705 31.4198 32.8105C31.3398 32.8305 31.2498 32.8405 31.1698 32.8405V32.8505Z" fill="#323232"/>
<path d="M24.1906 16.9502H24.1406C20.9006 16.9202 18.2906 14.2602 18.3206 11.0202C18.3506 7.8002 20.9806 5.2002 24.1906 5.2002H24.2406C25.8106 5.2102 27.2806 5.8402 28.3706 6.9602C29.4706 8.0802 30.0706 9.5602 30.0506 11.1302C30.0306 12.7002 29.4106 14.1702 28.2906 15.2702C27.1806 16.3602 25.7306 16.9502 24.1806 16.9502H24.1906ZM24.1906 7.2102C22.0706 7.2102 20.3406 8.9202 20.3206 11.0502C20.3006 13.1802 22.0206 14.9402 24.1606 14.9602H24.2006C25.2206 14.9602 26.1806 14.5702 26.9106 13.8502C27.6506 13.1202 28.0606 12.1602 28.0706 11.1202C28.0706 10.0902 27.6906 9.1102 26.9606 8.3702C26.2406 7.6302 25.2706 7.2202 24.2306 7.2102H24.1906Z" fill="#323232"/>
<path d="M36.5697 14.4902H36.5197C34.9497 14.4802 33.4797 13.8502 32.3797 12.7302C31.2797 11.6102 30.6797 10.1302 30.6997 8.56024C30.7297 5.34023 33.3597 2.74023 36.5697 2.74023H36.6197C39.8597 2.77023 42.4697 5.43023 42.4397 8.67023C42.4297 10.2402 41.7997 11.7102 40.6797 12.8102C39.5697 13.9002 38.1197 14.4902 36.5697 14.4902ZM36.5697 4.74023C34.4497 4.74023 32.7197 6.45023 32.6997 8.58023C32.6997 9.61023 33.0797 10.5902 33.8097 11.3302C34.5397 12.0702 35.4997 12.4802 36.5397 12.4902H36.5797C37.5997 12.4902 38.5597 12.1002 39.2897 11.3802C40.0297 10.6602 40.4397 9.69023 40.4497 8.65023C40.4697 6.51023 38.7497 4.76023 36.6197 4.74023H36.5797H36.5697Z" fill="#323232"/>
<path d="M42.1199 30.5295C41.5699 30.5295 41.1199 30.0795 41.1199 29.5295V19.3195C41.1199 18.5995 40.5399 18.0195 39.8199 18.0195H32.9199C32.3699 18.0195 31.9199 17.5695 31.9199 17.0195C31.9199 16.4695 32.3699 16.0195 32.9199 16.0195H39.8099C41.6299 16.0195 43.1099 17.4995 43.1099 19.3195V29.5295C43.1099 30.0795 42.6599 30.5295 42.1099 30.5295H42.1199Z" fill="#323232"/>
<path d="M36.3796 42.9402C34.2896 42.9402 32.5996 41.4302 32.5996 39.5602V28.7002C32.5996 28.1502 33.0496 27.7002 33.5996 27.7002C34.1496 27.7002 34.5996 28.1502 34.5996 28.7002V39.5602C34.5996 40.3102 35.4196 40.9402 36.3796 40.9402C37.3396 40.9402 38.1696 40.3102 38.1696 39.5602V28.7002C38.1696 28.1502 38.6196 27.7002 39.1696 27.7002C39.7196 27.7002 40.1696 28.1502 40.1696 28.7002V39.5602C40.1696 41.4202 38.4696 42.9402 36.3796 42.9402Z" fill="#323232"/>
<path d="M11.4308 14.4802C9.8808 14.4802 8.4208 13.8802 7.3208 12.8002C6.2008 11.7002 5.5808 10.2302 5.5608 8.66023C5.5308 5.42023 8.1408 2.76023 11.3808 2.74023H11.4308C14.6408 2.74023 17.2708 5.34023 17.3008 8.56024C17.3208 10.1302 16.7208 11.6102 15.6208 12.7302C14.5208 13.8502 13.0508 14.4702 11.4808 14.4902H11.4308V14.4802ZM11.4308 4.74023H11.3908C9.2608 4.76023 7.5408 6.51023 7.5608 8.65023C7.5608 9.68023 7.9808 10.6502 8.7208 11.3802C9.4508 12.1002 10.4108 12.4902 11.4308 12.4902H11.4708C12.5108 12.4902 13.4708 12.0702 14.2008 11.3302C14.9308 10.5902 15.3208 9.62023 15.3108 8.58023C15.2908 6.46023 13.5608 4.74023 11.4408 4.74023H11.4308Z" fill="#323232"/>
<path d="M5.88086 30.5295C5.33086 30.5295 4.88086 30.0795 4.88086 29.5295V19.3195C4.88086 17.4995 6.36086 16.0195 8.18086 16.0195H15.0809C15.6309 16.0195 16.0809 16.4695 16.0809 17.0195C16.0809 17.5695 15.6309 18.0195 15.0809 18.0195H8.19086C7.47086 18.0195 6.89086 18.5995 6.89086 19.3195V29.5295C6.89086 30.0795 6.44086 30.5295 5.89086 30.5295H5.88086Z" fill="#323232"/>
<path d="M11.6201 42.9304C9.53008 42.9304 7.83008 41.4204 7.83008 39.5504V28.6904C7.83008 28.1404 8.28008 27.6904 8.83008 27.6904C9.38008 27.6904 9.83008 28.1404 9.83008 28.6904V39.5504C9.83008 40.3004 10.6501 40.9304 11.6201 40.9304C12.5901 40.9304 13.4001 40.3004 13.4001 39.5504V28.6904C13.4001 28.1404 13.8501 27.6904 14.4001 27.6904C14.9501 27.6904 15.4001 28.1404 15.4001 28.6904V39.5504C15.4001 41.4104 13.7001 42.9304 11.6201 42.9304Z" fill="#323232"/>
<path d="M24.1902 46.2097C22.1002 46.2097 20.4102 44.6997 20.4102 42.8297V31.9697C20.4102 31.4197 20.8602 30.9697 21.4102 30.9697C21.9602 30.9697 22.4102 31.4197 22.4102 31.9697V42.8297C22.4102 43.5797 23.2302 44.2097 24.1902 44.2097C25.1502 44.2097 25.9702 43.5797 25.9702 42.8297V31.9697C25.9702 31.4197 26.4202 30.9697 26.9702 30.9697C27.5202 30.9697 27.9702 31.4197 27.9702 31.9697V42.8297C27.9702 44.6897 26.2702 46.2097 24.1902 46.2097Z" fill="#323232"/>
</svg>
