<svg width="24" height="24" viewBox="0 0 24 24" fill="none" xmlns="http://www.w3.org/2000/svg">
<path fill-rule="evenodd" clip-rule="evenodd" d="M4.84484 8.41787C6.15895 5.79811 8.86949 4 12 4C12.3387 4 12.6724 4.02104 13 4.06189V5H10C9.44772 5 9 5.44772 9 6V8H8C7.44772 8 7 8.44772 7 9V10.3934L4.84484 8.41787ZM4.14279 10.4875C4.04906 10.9772 4 11.4829 4 12C4 16.0796 7.05369 19.446 11 19.9381V18H10C9.44772 18 9.00001 17.5523 9.00001 17V14.9399L4.14279 10.4875ZM13 19.9381C14.5025 19.7507 15.8756 19.1467 17 18.2454V17H15C14.4477 17 14 16.5523 14 16V14L11 14V16H12C12.5523 16 13 16.4477 13 17V19.9381ZM18.9937 15.8873C19.6348 14.7364 20 13.4109 20 12C20 8.64262 17.9318 5.76829 15 4.58152V6C15 6.55228 14.5523 7 14 7H11V9C11 9.55228 10.5523 10 10 10H9V12L15 12C15.5523 12 16 12.4477 16 13V15H18C18.5142 15 18.9377 15.3881 18.9937 15.8873ZM12 2C6.47715 2 2 6.47715 2 12C2 17.5228 6.47715 22 12 22C17.5228 22 22 17.5228 22 12C22 6.47715 17.5228 2 12 2Z" fill="#323232"/>
</svg>
