<svg width="48" height="48" viewBox="0 0 48 48" fill="none" xmlns="http://www.w3.org/2000/svg">
<path d="M38.5604 6.46009C38.4204 6.25009 38.2004 6.09009 37.9604 6.03009L31.7004 4.52009L29.6504 2.09009C29.4104 1.80009 29.0304 1.68009 28.6604 1.76009C28.2904 1.85009 28.0104 2.13009 27.9204 2.49009L24.0204 18.2301L20.1304 2.49009C20.0404 2.13009 19.7504 1.84009 19.3904 1.76009C19.0204 1.68009 18.6404 1.80009 18.4004 2.09009L16.3404 4.53009L10.0904 6.03009C9.84039 6.09009 9.62039 6.24009 9.48039 6.46009C9.32039 6.70009 5.65039 12.6901 5.65039 41.1601C5.65039 41.4401 5.77039 41.7001 5.97039 41.8901C6.16039 42.0701 10.8004 46.2401 24.4704 46.2401C38.1404 46.2401 42.0104 41.9901 42.1604 41.8101C42.3104 41.6301 42.4004 41.3901 42.4004 41.1501C42.4004 12.6801 38.7304 6.70009 38.5804 6.46009H38.5604ZM35.9304 42.8401V24.2301C35.9304 23.6801 35.4804 23.2301 34.9304 23.2301C34.3804 23.2301 33.9304 23.6801 33.9304 24.2301V43.3601C31.5704 43.8701 28.4704 44.2501 24.4404 44.2501C20.0104 44.2501 16.6104 43.7901 14.0304 43.1901V24.2201C14.0304 23.6701 13.5804 23.2201 13.0304 23.2201C12.4804 23.2201 12.0304 23.6701 12.0304 24.2201V42.6501C9.58039 41.8901 8.19039 41.0701 7.62039 40.6701C7.66039 16.9401 10.3004 9.40009 10.9804 7.87009L17.1004 6.41009C17.3104 6.36009 17.4904 6.25009 17.6304 6.08009L18.6404 4.89009L22.9804 22.4801V41.3101C22.9804 41.8601 23.4304 42.3101 23.9804 42.3101C24.5304 42.3101 24.9804 41.8601 24.9804 41.3101V22.6001L29.3704 4.89009L30.3704 6.07009C30.5104 6.23009 30.6904 6.35009 30.9004 6.40009L37.0304 7.88009C37.7104 9.44009 40.3504 17.0001 40.3804 40.7401C39.8804 41.1501 38.5504 42.0601 35.9404 42.8501L35.9304 42.8401Z" fill="#323232"/>
<path d="M31.2391 31.8501H27.6191C27.0691 31.8501 26.6191 31.4001 26.6191 30.8501C26.6191 30.3001 27.0691 29.8501 27.6191 29.8501H31.2391C31.7891 29.8501 32.2391 30.3001 32.2391 30.8501C32.2391 31.4001 31.7891 31.8501 31.2391 31.8501Z" fill="#DF0000"/>
<path d="M26.5293 21.87C26.6493 21.91 30.2693 7.52002 30.2693 7.52002L33.9793 8.61002L26.5293 21.87Z" fill="#8DE2E0"/>
<path d="M21.4402 21.87C21.3202 21.91 17.7002 7.52002 17.7002 7.52002L13.9902 8.61002L21.4402 21.87Z" fill="#8DE2E0"/>
</svg>
