<svg width="48" height="48" viewBox="0 0 48 48" fill="none" xmlns="http://www.w3.org/2000/svg">
<path d="M44.25 35.1104H3.75V40.1104H44.25V35.1104Z" fill="#8DE2E0"/>
<path d="M44.25 41.1096H3.75C3.2 41.1096 2.75 40.6596 2.75 40.1096V7.88965C2.75 7.33965 3.2 6.88965 3.75 6.88965H44.25C44.8 6.88965 45.25 7.33965 45.25 7.88965V40.1096C45.25 40.6596 44.8 41.1096 44.25 41.1096ZM4.75 39.1096H43.25V17.1796H4.75V39.1096ZM4.75 15.1796H43.25V8.89965H4.75V15.1796Z" fill="#323232"/>
<path d="M31.9304 31.6103C31.7304 31.6103 31.5204 31.5503 31.3504 31.4203L26.9404 28.2603C26.4904 27.9403 26.3904 27.3103 26.7104 26.8603C27.0304 26.4103 27.6604 26.3103 28.1104 26.6303L31.7504 29.2403L38.3904 21.0703C38.7404 20.6403 39.3704 20.5803 39.8004 20.9203C40.2304 21.2703 40.2904 21.9003 39.9504 22.3303L32.7204 31.2303C32.5204 31.4703 32.2304 31.6003 31.9404 31.6003L31.9304 31.6103Z" fill="#DF0000"/>
<path d="M16.6098 22.71H8.83984C8.28984 22.71 7.83984 22.26 7.83984 21.71C7.83984 21.16 8.28984 20.71 8.83984 20.71H16.6098C17.1598 20.71 17.6098 21.16 17.6098 21.71C17.6098 22.26 17.1598 22.71 16.6098 22.71Z" fill="#DF0000"/>
<path d="M20.7198 27.1602H8.83984C8.28984 27.1602 7.83984 26.7102 7.83984 26.1602C7.83984 25.6102 8.28984 25.1602 8.83984 25.1602H20.7198C21.2698 25.1602 21.7198 25.6102 21.7198 26.1602C21.7198 26.7102 21.2698 27.1602 20.7198 27.1602Z" fill="#DF0000"/>
<path d="M20.7198 31.6104H8.83984C8.28984 31.6104 7.83984 31.1604 7.83984 30.6104C7.83984 30.0604 8.28984 29.6104 8.83984 29.6104H20.7198C21.2698 29.6104 21.7198 30.0604 21.7198 30.6104C21.7198 31.1604 21.2698 31.6104 20.7198 31.6104Z" fill="#DF0000"/>
<path d="M7.89992 13.4795C8.7173 13.4795 9.37992 12.8169 9.37992 11.9995C9.37992 11.1821 8.7173 10.5195 7.89992 10.5195C7.08254 10.5195 6.41992 11.1821 6.41992 11.9995C6.41992 12.8169 7.08254 13.4795 7.89992 13.4795Z" fill="#DF0000"/>
<path d="M12.6206 13.4795C13.438 13.4795 14.1006 12.8169 14.1006 11.9995C14.1006 11.1821 13.438 10.5195 12.6206 10.5195C11.8032 10.5195 11.1406 11.1821 11.1406 11.9995C11.1406 12.8169 11.8032 13.4795 12.6206 13.4795Z" fill="#323232"/>
<path d="M17.3394 13.4795C18.1568 13.4795 18.8194 12.8169 18.8194 11.9995C18.8194 11.1821 18.1568 10.5195 17.3394 10.5195C16.522 10.5195 15.8594 11.1821 15.8594 11.9995C15.8594 12.8169 16.522 13.4795 17.3394 13.4795Z" fill="#323232"/>
</svg>
