<svg width="48" height="48" viewBox="0 0 48 48" fill="none" xmlns="http://www.w3.org/2000/svg">
<path d="M46.1191 23.9999C46.1191 22.3899 45.9391 20.8099 45.6091 19.2899C45.6291 19.0899 45.5791 18.8999 45.4791 18.7199C44.5591 14.9599 42.6691 11.5699 40.0891 8.83988C40.0791 8.81988 40.0691 8.79988 40.0491 8.78988C40.0391 8.77988 40.0191 8.76988 40.0091 8.75988C37.3991 6.01988 34.1091 3.94988 30.3991 2.82988C30.3191 2.78988 30.2391 2.76988 30.1491 2.75988C28.1891 2.18988 26.1291 1.87988 23.9891 1.87988C17.5991 1.87988 11.8291 4.60988 7.78914 8.95988C7.68914 9.00988 7.58914 9.05988 7.50914 9.14988C7.39914 9.25988 7.32914 9.38988 7.27914 9.52988C3.90914 13.4099 1.86914 18.4699 1.86914 24.0099C1.86914 26.1499 2.17914 28.2099 2.74914 30.1699C2.76914 30.2599 2.77914 30.3399 2.81914 30.4199C3.91914 34.0399 5.91914 37.2699 8.55914 39.8399C8.59914 39.9199 8.63914 39.9999 8.70914 40.0699C8.79914 40.1599 8.89914 40.2099 8.99914 40.2599C12.9491 43.8999 18.2091 46.1399 23.9991 46.1399C25.3791 46.1399 26.7291 46.0099 28.0391 45.7599C28.0791 45.7599 28.1191 45.7799 28.1591 45.7799C28.3291 45.7799 28.4891 45.7199 28.6391 45.6399C38.6191 43.5099 46.1291 34.6199 46.1291 24.0099L46.1191 23.9999ZM38.1191 38.3199L32.5091 32.7099L38.6691 26.5599L42.9091 30.7999C41.8791 33.6599 40.2291 36.2199 38.1091 38.3099L38.1191 38.3199ZM28.4191 43.6199L25.0091 40.1999L31.0991 34.1299L36.6291 39.6599C34.2691 41.5599 31.4791 42.9399 28.4291 43.6299L28.4191 43.6199ZM10.9191 39.2699L16.0991 34.0999L22.1691 40.1899L18.9091 43.4399C15.9191 42.6599 13.1991 41.2099 10.9191 39.2599V39.2699ZM3.87914 23.9999C3.87914 23.3099 3.91914 22.6199 3.97914 21.9499L7.15914 25.1399L4.27914 28.0199C4.01914 26.7199 3.87914 25.3799 3.87914 24.0099V23.9999ZM4.38914 19.5299C5.07914 16.4999 6.44914 13.7199 8.33914 11.3799L14.6191 17.6599L8.55914 23.7199L4.37914 19.5299H4.38914ZM16.0391 19.0799L22.1791 25.2199L16.1091 31.2799L9.98914 25.1399L16.0491 19.0799H16.0391ZM37.9291 9.49988L31.1791 16.2399L25.0291 10.0899L30.2391 4.87988C33.1491 5.82988 35.7591 7.42988 37.9191 9.50988L37.9291 9.49988ZM43.4591 18.9699L38.6691 23.7399L32.5791 17.6499L39.2891 10.9499C41.2391 13.2399 42.6791 15.9599 43.4491 18.9599L43.4591 18.9699ZM44.1191 23.9999C44.1191 25.5999 43.9091 27.1399 43.5591 28.6299L40.0791 25.1499L43.9191 21.3199C44.0391 22.1999 44.1191 23.0799 44.1191 23.9899V23.9999ZM37.2591 25.1499L31.0991 31.2999L25.0191 25.2199L31.1791 19.0699L37.2691 25.1599L37.2591 25.1499ZM29.7591 17.6499L23.5991 23.7999L17.4591 17.6599L23.6191 11.4999L29.7691 17.6499H29.7591ZM17.5191 32.6899L23.5991 26.6299L29.6791 32.7099L23.5891 38.7799L17.5191 32.6899ZM28.0091 4.27988L23.6091 8.67988L19.3691 4.43988C20.8591 4.08988 22.4091 3.87988 23.9991 3.87988C25.3691 3.87988 26.7191 4.01988 28.0091 4.27988ZM17.1891 5.08988L22.1991 10.0999L16.0391 16.2599L9.67914 9.89988C11.7691 7.77988 14.3391 6.12988 17.1891 5.09988V5.08988ZM4.87914 30.2399L8.56914 26.5499L14.6891 32.6899L9.46914 37.8899C7.40914 35.7399 5.81914 33.1399 4.87914 30.2399ZM21.2691 43.9199L23.5791 41.6099L25.9891 44.0199C25.3291 44.0899 24.6691 44.1199 23.9891 44.1199C23.0591 44.1199 22.1591 44.0299 21.2591 43.9099L21.2691 43.9199Z" fill="#323232"/>
</svg>
