<svg width="48" height="48" viewBox="0 0 48 48" fill="none" xmlns="http://www.w3.org/2000/svg">
<path d="M12.7192 15.3501C13.4592 16.6201 13.0392 18.2401 11.7692 18.9901C10.4992 19.7301 8.87922 19.3101 8.12922 18.0401C7.63922 17.2101 7.63922 16.1801 8.12922 15.3501M39.2892 15.3501C40.0292 16.6201 39.6092 18.2401 38.3392 18.9901C37.0692 19.7301 35.4492 19.3101 34.6992 18.0401C34.2092 17.2101 34.2092 16.1801 34.6992 15.3501" fill="#8DE2E0"/>
<path d="M23.6797 8.37989C23.1297 8.37989 22.6797 7.92989 22.6797 7.37989V3.38989C22.6797 2.83989 23.1297 2.38989 23.6797 2.38989C24.2297 2.38989 24.6797 2.83989 24.6797 3.38989V7.37989C24.6797 7.92989 24.2297 8.37989 23.6797 8.37989Z" fill="#DF0000"/>
<path d="M43.61 14.3501H29.98C29.98 14.2401 29.99 14.1301 29.99 14.0201C29.99 12.9601 29.81 11.9501 29.49 11.0301H34.31C34.86 11.0301 35.31 10.5801 35.31 10.0301C35.31 9.48012 34.86 9.03012 34.31 9.03012H28.46C27.3 7.41012 25.59 6.37012 23.68 6.37012C21.77 6.37012 20.06 7.40012 18.9 9.03012H13.05C12.5 9.03012 12.05 9.48012 12.05 10.0301C12.05 10.5801 12.5 11.0301 13.05 11.0301H17.87C17.55 11.9501 17.37 12.9601 17.37 14.0201C17.37 14.1301 17.37 14.2401 17.38 14.3501H3.75C3.2 14.3501 2.75 14.8001 2.75 15.3501C2.75 15.9001 3.2 16.3501 3.75 16.3501H6.79C6.72 17.1001 6.87 17.8701 7.27 18.5501C7.76 19.3901 8.56 19.9901 9.5 20.2401C9.81 20.3201 10.12 20.3601 10.43 20.3601C11.07 20.3601 11.71 20.1901 12.27 19.8601C13.53 19.1201 14.18 17.7301 14.05 16.3601H17.66C18.48 19.4401 20.86 21.6701 23.67 21.6701C26.48 21.6701 28.87 19.4301 29.68 16.3601H33.35C33.28 17.1101 33.43 17.8801 33.83 18.5601C34.32 19.4001 35.12 20.0001 36.06 20.2501C36.37 20.3301 36.68 20.3701 36.99 20.3701C37.63 20.3701 38.27 20.2001 38.83 19.8701C39.67 19.3801 40.27 18.5801 40.52 17.6401C40.63 17.2201 40.65 16.7901 40.61 16.3701H43.59C44.14 16.3701 44.59 15.9201 44.59 15.3701C44.59 14.8201 44.14 14.3701 43.59 14.3701L43.61 14.3501ZM11.26 18.1201C10.88 18.3401 10.43 18.4001 10 18.2901C9.57 18.1801 9.21 17.9101 8.99 17.5201C8.78 17.1601 8.72 16.7401 8.81 16.3401H12.03C12.17 17.0201 11.89 17.7401 11.26 18.1101V18.1201ZM23.68 19.6601C21.3 19.6601 19.37 17.1301 19.37 14.0201C19.37 10.9101 21.31 8.38012 23.68 8.38012C26.05 8.38012 27.99 10.9101 27.99 14.0201C27.99 17.1301 26.05 19.6601 23.68 19.6601ZM38.6 17.1101C38.49 17.5401 38.22 17.9001 37.83 18.1201C37.45 18.3401 37 18.4001 36.57 18.2901C36.14 18.1801 35.78 17.9101 35.56 17.5201C35.35 17.1601 35.29 16.7401 35.38 16.3401H38.61C38.66 16.5901 38.67 16.8501 38.6 17.1001V17.1101Z" fill="#323232"/>
<path d="M25.0096 11.6902H22.3496C21.7996 11.6902 21.3496 12.1402 21.3496 12.6902C21.3496 13.2402 21.7996 13.6902 22.3496 13.6902H25.0096C25.5596 13.6902 26.0096 13.2402 26.0096 12.6902C26.0096 12.1402 25.5596 11.6902 25.0096 11.6902Z" fill="#323232"/>
<path d="M44.2509 45.61H4.25093C3.89093 45.61 3.55093 45.41 3.38093 45.1C3.20093 44.78 3.21093 44.4 3.40093 44.09L13.8909 27.02C14.0709 26.72 14.3909 26.54 14.7409 26.54H33.7609C34.1109 26.54 34.4309 26.72 34.6109 27.02L45.1009 44.09C45.2909 44.4 45.3009 44.79 45.1209 45.1C44.9409 45.42 44.6109 45.61 44.2509 45.61ZM6.04093 43.61H42.4609L33.2009 28.54H15.3009L6.04093 43.61Z" fill="#323232"/>
<path d="M24.25 35.1201C23.7 35.1201 23.25 34.6701 23.25 34.1201V31.6201C23.25 31.0701 23.7 30.6201 24.25 30.6201C24.8 30.6201 25.25 31.0701 25.25 31.6201V34.1201C25.25 34.6701 24.8 35.1201 24.25 35.1201Z" fill="#323232"/>
<path d="M24.25 41.54C23.7 41.54 23.25 41.09 23.25 40.54V38.04C23.25 37.49 23.7 37.04 24.25 37.04C24.8 37.04 25.25 37.49 25.25 38.04V40.54C25.25 41.09 24.8 41.54 24.25 41.54Z" fill="#323232"/>
</svg>
