<svg width="48" height="48" viewBox="0 0 48 48" fill="none" xmlns="http://www.w3.org/2000/svg">
<path d="M23.9293 37.2397H23.8793C22.3093 37.2297 20.8393 36.5997 19.7293 35.4797C18.6293 34.3597 18.0293 32.8797 18.0493 31.2997C18.0593 29.7297 18.6893 28.2597 19.8093 27.1597C20.9293 26.0597 22.4293 25.4997 23.9893 25.4697C27.2293 25.4997 29.8493 28.1597 29.8193 31.4097C29.8093 32.9797 29.1793 34.4497 28.0593 35.5497C26.9493 36.6397 25.4893 37.2397 23.9393 37.2397H23.9293ZM23.9293 27.4797C22.9093 27.4797 21.9393 27.8697 21.2093 28.5897C20.4693 29.3197 20.0593 30.2897 20.0493 31.3297C20.0493 32.3697 20.4293 33.3497 21.1593 34.0897C21.8893 34.8297 22.8593 35.2397 23.8993 35.2497H23.9393C24.9593 35.2497 25.9293 34.8597 26.6593 34.1397C27.3993 33.4097 27.8093 32.4397 27.8193 31.3997C27.8393 29.2597 26.1093 27.4997 23.9693 27.4797H23.9293Z" fill="#323232"/>
<path d="M29.5004 47.0995H29.4804C28.9304 47.0895 28.4904 46.6295 28.5004 46.0795L28.5904 42.1195C28.5904 41.4195 28.0204 40.8295 27.3004 40.8195L20.3904 40.7595C20.0104 40.7595 19.7104 40.8895 19.4704 41.1295C19.2204 41.3695 19.0804 41.6995 19.0804 42.0495L18.9904 46.0295C18.9804 46.5795 18.5104 47.0195 17.9704 47.0095C17.4204 46.9995 16.9804 46.5395 16.9904 45.9895L17.0804 42.0295C17.0804 41.1595 17.4404 40.3395 18.0704 39.7195C18.7004 39.0995 19.5804 38.7895 20.4104 38.7695L27.3204 38.8295C28.2004 38.8295 29.0304 39.1895 29.6504 39.8195C30.2704 40.4495 30.6004 41.2795 30.6004 42.1595L30.5104 46.1395C30.5004 46.6795 30.0504 47.1195 29.5104 47.1195L29.5004 47.0995Z" fill="#323232"/>
<path d="M36.5992 34.9302H36.5492C34.9792 34.9202 33.5092 34.2902 32.3992 33.1702C31.2992 32.0502 30.6992 30.5702 30.7192 28.9902C30.7492 25.7602 33.3792 23.1602 36.5992 23.1602H36.6492C38.2192 23.1702 39.6892 23.8002 40.7892 24.9202C41.8892 26.0402 42.4892 27.5202 42.4692 29.1002C42.4392 32.3302 39.8092 34.9302 36.5892 34.9302H36.5992ZM36.5992 25.1602C34.4792 25.1602 32.7392 26.8802 32.7192 29.0102C32.7192 30.0502 33.0992 31.0302 33.8292 31.7702C34.5592 32.5102 35.5292 32.9202 36.5692 32.9302H36.6092C38.7292 32.9302 40.4692 31.2102 40.4892 29.0802C40.4892 28.0402 40.0992 27.0602 39.3792 26.3202C38.6492 25.5802 37.6792 25.1702 36.6492 25.1602H36.6092H36.5992Z" fill="#323232"/>
<path d="M42.1709 44.7405C41.6209 44.7405 41.1709 44.2905 41.1709 43.7405V39.7805C41.1709 39.0605 40.5909 38.4805 39.8709 38.4805H32.9609C32.4109 38.4805 31.9609 38.0305 31.9609 37.4805C31.9609 36.9305 32.4109 36.4805 32.9609 36.4805H39.8709C41.6909 36.4805 43.1709 37.9605 43.1709 39.7805V43.7405C43.1709 44.2905 42.7209 44.7405 42.1709 44.7405Z" fill="#323232"/>
<path d="M11.3997 34.9204C8.17966 34.9204 5.54966 32.3204 5.51966 29.0904C5.50966 27.5204 6.09966 26.0404 7.19966 24.9104C8.29966 23.7804 9.76966 23.1604 11.3397 23.1504H11.3897C14.6097 23.1504 17.2397 25.7504 17.2697 28.9804C17.2897 30.5504 16.6897 32.0304 15.5897 33.1604C14.4897 34.2804 13.0197 34.9104 11.4397 34.9204H11.3897H11.3997ZM11.3997 25.1604H11.3597C10.3197 25.1604 9.34966 25.5804 8.62966 26.3204C7.89966 27.0604 7.50966 28.0404 7.51966 29.0804C7.53966 31.2104 9.27966 32.9304 11.3997 32.9304H11.4397C12.4797 32.9304 13.4497 32.5104 14.1797 31.7704C14.9097 31.0304 15.2997 30.0504 15.2897 29.0204C15.2697 26.8904 13.5297 25.1704 11.4097 25.1704L11.3997 25.1604Z" fill="#323232"/>
<path d="M5.83008 44.7405C5.28008 44.7405 4.83008 44.2905 4.83008 43.7405V39.7805C4.83008 37.9605 6.31008 36.4805 8.13008 36.4805H15.0401C15.5901 36.4805 16.0401 36.9305 16.0401 37.4805C16.0401 38.0305 15.5901 38.4805 15.0401 38.4805H8.13008C7.41008 38.4805 6.83008 39.0605 6.83008 39.7805V43.7405C6.83008 44.2905 6.38008 44.7405 5.83008 44.7405Z" fill="#323232"/>
<path d="M32.9315 14.0098V10.8298L31.1015 10.4998C30.9115 9.70984 30.6015 8.96984 30.1915 8.29984L31.2515 6.76984L29.0015 4.51984L27.4715 5.57984C26.7915 5.16984 26.0615 4.85984 25.2715 4.66984L24.9415 2.83984H21.7615L21.4315 4.66984C20.6415 4.85984 19.9015 5.16984 19.2315 5.57984L17.7015 4.51984L15.4515 6.76984L16.5115 8.29984C16.1015 8.97984 15.7915 9.70984 15.6015 10.4998L13.7715 10.8298V14.0098L15.6015 14.3398C15.7915 15.1298 16.1015 15.8698 16.5115 16.5398L15.4515 18.0698L17.7015 20.3198L19.2315 19.2598C19.9015 19.6698 20.6415 19.9798 21.4315 20.1698L21.7615 21.9998H24.9415L25.2715 20.1698C26.0615 19.9798 26.8015 19.6698 27.4715 19.2598L29.0015 20.3198L31.2515 18.0698L30.1915 16.5398C30.6015 15.8598 30.9115 15.1298 31.1015 14.3398L32.9315 14.0098ZM23.3615 16.0498C21.3615 16.0498 19.7315 14.4198 19.7315 12.4198C19.7315 10.4198 21.3615 8.78984 23.3615 8.78984C25.3615 8.78984 26.9915 10.4098 26.9915 12.4198C26.9915 14.4298 25.3715 16.0498 23.3615 16.0498Z" fill="#8DE2E0"/>
<path d="M24.9508 22.9898H21.7708C21.2908 22.9898 20.8708 22.6398 20.7908 22.1698L20.5708 20.9498C20.1308 20.8098 19.7108 20.6298 19.3008 20.4198L18.2908 21.1298C17.8908 21.4098 17.3508 21.3598 17.0108 21.0198L14.7608 18.7698C14.4208 18.4298 14.3708 17.8898 14.6508 17.4898L15.3608 16.4698C15.1508 16.0598 14.9808 15.6398 14.8408 15.1998L13.6208 14.9798C13.1408 14.8898 12.8008 14.4798 12.8008 13.9998V10.8198C12.8008 10.3398 13.1508 9.91984 13.6208 9.83984L14.8408 9.61984C14.9808 9.17984 15.1608 8.75984 15.3708 8.34984L14.6608 7.32984C14.3808 6.92984 14.4308 6.38984 14.7708 6.04984L17.0208 3.79984C17.3608 3.45984 17.9008 3.40984 18.3008 3.68984L19.3208 4.39984C19.7308 4.18984 20.1508 4.01984 20.5908 3.87984L20.8108 2.65984C20.9008 2.17984 21.3108 1.83984 21.7908 1.83984H24.9708C25.4508 1.83984 25.8708 2.18984 25.9508 2.65984L26.1708 3.87984C26.6008 4.01984 27.0308 4.19984 27.4408 4.40984L28.4608 3.69984C28.8608 3.41984 29.4008 3.46984 29.7408 3.80984L31.9908 6.05984C32.3308 6.39984 32.3808 6.93984 32.1008 7.33984L31.3908 8.35984C31.6008 8.76984 31.7708 9.18984 31.9108 9.62984L33.1308 9.84984C33.6108 9.93984 33.9508 10.3498 33.9508 10.8298V14.0098C33.9508 14.4898 33.6008 14.9098 33.1308 14.9898L31.9108 15.2098C31.7708 15.6498 31.5908 16.0698 31.3808 16.4798L32.0908 17.4998C32.3708 17.8998 32.3208 18.4398 31.9808 18.7798L29.7308 21.0298C29.3908 21.3698 28.8508 21.4198 28.4508 21.1398L27.4308 20.4298C27.0208 20.6398 26.6008 20.8098 26.1608 20.9498L25.9408 22.1698C25.8508 22.6498 25.4408 22.9898 24.9608 22.9898H24.9508ZM22.6108 20.9898H24.1108L24.2908 19.9798C24.3608 19.5898 24.6508 19.2798 25.0408 19.1898C25.7208 19.0198 26.3608 18.7498 26.9608 18.3898C27.3008 18.1898 27.7208 18.1998 28.0508 18.4198L28.8908 18.9998L29.9508 17.9398L29.3708 17.0998C29.1508 16.7798 29.1308 16.3498 29.3308 16.0098C29.6908 15.4098 29.9608 14.7598 30.1308 14.0898C30.2208 13.7098 30.5408 13.4198 30.9208 13.3498L31.9308 13.1698V11.6698L30.9208 11.4898C30.5308 11.4198 30.2208 11.1298 30.1308 10.7398C29.9608 10.0598 29.7008 9.41984 29.3308 8.81984C29.1308 8.47984 29.1408 8.05984 29.3708 7.72984L29.9508 6.88984L28.8908 5.82984L28.0508 6.40984C27.7208 6.63984 27.3008 6.64984 26.9608 6.44984C26.3608 6.08984 25.7108 5.81984 25.0408 5.64984C24.6608 5.55984 24.3708 5.23984 24.2908 4.85984L24.1108 3.84984H22.6108L22.4308 4.85984C22.3608 5.24984 22.0708 5.55984 21.6908 5.64984C21.0108 5.81984 20.3608 6.08984 19.7708 6.44984C19.4308 6.64984 19.0108 6.63984 18.6808 6.40984L17.8408 5.82984L16.7808 6.88984L17.3608 7.72984C17.5808 8.04984 17.6008 8.47984 17.4008 8.81984C17.0408 9.41984 16.7708 10.0698 16.6008 10.7398C16.5108 11.1198 16.1908 11.4098 15.8108 11.4798L14.8008 11.6598V13.1598L15.8108 13.3398C16.2008 13.4098 16.5108 13.6998 16.6008 14.0798C16.7708 14.7598 17.0408 15.4098 17.4008 15.9998C17.6008 16.3398 17.5908 16.7598 17.3708 17.0898L16.7908 17.9298L17.8508 18.9898L18.6908 18.4098C19.0208 18.1798 19.4408 18.1698 19.7808 18.3798C20.3808 18.7398 21.0308 19.0098 21.7008 19.1798C22.0808 19.2698 22.3708 19.5898 22.4508 19.9698L22.6308 20.9798L22.6108 20.9898ZM23.3608 17.0498C20.8108 17.0498 18.7308 14.9698 18.7308 12.4198C18.7308 9.86984 20.8108 7.78984 23.3608 7.78984C25.9108 7.78984 27.9908 9.86984 27.9908 12.4198C27.9908 14.9698 25.9108 17.0498 23.3608 17.0498ZM23.3608 9.78984C21.9108 9.78984 20.7308 10.9698 20.7308 12.4198C20.7308 13.8698 21.9108 15.0498 23.3608 15.0498C24.8108 15.0498 25.9908 13.8698 25.9908 12.4198C25.9908 10.9698 24.8108 9.78984 23.3608 9.78984Z" fill="#323232"/>
</svg>
