<svg width="24" height="24" viewBox="0 0 24 24" fill="none" xmlns="http://www.w3.org/2000/svg">
<g clip-path="url(#clip0_16335_9609)">
<path d="M23.4737 15.5168C25.4158 9.18029 21.8534 2.46918 15.517 0.527091C9.18048 -1.415 2.46937 2.14735 0.527275 8.48383C-1.41482 14.8203 2.14753 21.5314 8.48401 23.4735C14.8205 25.4156 21.5316 21.8532 23.4737 15.5168Z" fill="white"/>
<mask id="mask0_16335_9609" style="mask-type:luminance" maskUnits="userSpaceOnUse" x="-1" y="-1" width="26" height="26">
<path d="M23.4737 15.5168C25.4158 9.18029 21.8534 2.46918 15.517 0.527091C9.18048 -1.415 2.46937 2.14735 0.527275 8.48383C-1.41482 14.8203 2.14753 21.5314 8.48401 23.4735C14.8205 25.4156 21.5316 21.8532 23.4737 15.5168Z" fill="white"/>
</mask>
<g mask="url(#mask0_16335_9609)">
<path d="M24 0H0V24H24V0Z" fill="white"/>
<path d="M10.5452 13.4548H0V24.0001H10.5452V13.4548Z" fill="#003399"/>
<path d="M24 13.4548H13.4548V24.0001H24V13.4548Z" fill="#003399"/>
<path d="M24 0H13.4548V10.5452H24V0Z" fill="#003399"/>
<path d="M10.5452 0H0V10.5452H10.5452V0Z" fill="#CC0000"/>
<path fill-rule="evenodd" clip-rule="evenodd" d="M5.28519 5.42773L5.74076 6.83917L7.22487 6.83777L6.02305 7.70839L6.48421 9.11703L5.28519 8.24222L4.08617 9.11703L4.54593 7.70839L3.34412 6.83777L4.82822 6.83917L5.28519 5.42773Z" fill="white"/>
</g>
</g>
<rect x="0.25" y="0.25" width="23.5" height="23.5" rx="11.75" stroke="#E5E3E1" stroke-width="0.5"/>
<defs>
<clipPath id="clip0_16335_9609">
<rect width="24" height="24" rx="12" fill="white"/>
</clipPath>
</defs>
</svg>
