<svg width="221" height="30" viewBox="0 0 221 30" fill="none" xmlns="http://www.w3.org/2000/svg">
<path d="M87.6851 29.8329H118.099L93.7327 5.36111C90.4844 2.11288 86.083 0.185059 81.4879 0.185059H76.3911L76.7696 1.17978L78.4598 5.60759L87.6939 29.8329H87.6851Z" fill="url(#paint0_linear_15605_2251)"/>
<path d="M78.4597 5.60749C81.7872 11.2941 90.5284 11.8927 91.4791 20.7307C91.5143 21.0916 91.796 21.3821 92.1569 21.4438C97.1921 22.2272 102.095 24.3047 106.356 27.7202C106.356 27.7202 106.417 27.7554 106.453 27.7554C106.488 27.7554 106.532 27.7378 106.558 27.7114C106.62 27.6497 106.62 27.5617 106.558 27.5001C103.609 24.4015 100 21.9191 95.9509 20.2906L94.7185 19.7976C94.0847 19.5423 93.6446 18.9173 93.6622 18.1955C93.7326 15.5547 99.9826 16.0916 100.608 14.824L100.713 14.604C99.428 13.5036 97.8963 12.6762 96.215 12.2184C96.1974 12.28 96.1622 12.5881 96.5055 13.1515C96.8752 13.7589 96.1005 14.7184 94.965 13.6797L94.8681 13.5916C86.4262 5.85397 80.097 9.86805 76.752 1.18848L78.4421 5.61629L78.4597 5.60749Z" fill="white"/>
<path d="M98.7503 14.4542C98.7503 14.4542 97.3682 14.5246 96.5143 13.1426C96.7696 13.5563 96.4879 14.1285 95.9246 14.1373V16.2412C96.8313 15.9771 97.87 15.8186 98.7415 15.6338V14.463L98.7503 14.4542Z" fill="url(#paint1_linear_15605_2251)"/>
<path d="M93.1957 21.6286C97.8612 22.5265 102.386 24.5423 106.347 27.7201C97.5091 20.1673 93.4774 21.5318 93.1957 21.6286Z" fill="url(#paint2_linear_15605_2251)"/>
<path d="M80.2378 6.00363C78.8646 5.02652 77.7026 3.59166 76.7695 1.17969L78.4597 5.6075C81.7871 11.2941 90.5283 11.8927 91.479 20.7307C90.5195 9.44553 85.5635 11.1357 80.2378 6.00363Z" fill="url(#paint3_linear_15605_2251)"/>
<path d="M1.17978 6.4879V11.303H0.0266113V0.16748H5.73964V1.33826H1.17978V5.33473H5.36112V6.4879H1.17978Z" fill="#323232"/>
<path d="M14.3224 11.303L12.5882 6.89283C12.4034 6.91044 12.3153 6.91044 12.1745 6.91044H10.3171V11.303H9.16394V0.16748H12.2449C14.1992 0.16748 15.6076 1.4703 15.6076 3.48614C15.6076 4.97382 14.877 6.09178 13.7502 6.58473L15.59 11.2942H14.3224V11.303ZM10.3171 1.30304V5.79248H12.1481C13.5477 5.79248 14.4192 4.87699 14.4192 3.50375C14.4192 2.13051 13.5477 1.30304 12.1481 1.30304H10.3171Z" fill="#323232"/>
<path d="M20.2115 6.18861V10.1323H24.8858V11.303H19.0496V0.16748H24.7626V1.33826H20.2115V5.03544H24.3841V6.18861H20.2115Z" fill="#323232"/>
<path d="M34.5601 7.91373C34.5601 9.39261 33.9351 10.5106 32.9492 11.0651L34.4985 13.5563H33.0812L31.7872 11.4173C31.62 11.4525 31.4527 11.4701 31.2678 11.4701C29.3136 11.4701 27.9756 10.0968 27.9756 7.91373V3.55634C27.9756 1.37324 29.252 0 31.2678 0C33.2837 0 34.5601 1.37324 34.5601 3.55634V7.91373ZM29.1376 7.94894C29.1376 9.30458 29.9122 10.3081 31.2678 10.3081C32.6235 10.3081 33.3805 9.30458 33.3805 7.94894V3.52113C33.3805 2.16549 32.6147 1.16197 31.2678 1.16197C29.921 1.16197 29.1376 2.16549 29.1376 3.52113V7.94894Z" fill="#323232"/>
<path d="M44.3312 0.16748V7.91396C44.3312 10.0971 43.0196 11.4703 41.1006 11.4703C39.1816 11.4703 37.8876 10.0971 37.8876 7.91396V0.16748H39.0407V7.94917C39.0407 9.3048 39.789 10.3083 41.1006 10.3083C42.4122 10.3083 43.1693 9.3048 43.1693 7.94917V0.16748H44.3224H44.3312Z" fill="#323232"/>
<path d="M49.3136 6.18861V10.1323H53.9879V11.303H48.1604V0.16748H53.8646V1.33826H49.3136V5.03544H53.4861V6.18861H49.3136Z" fill="#323232"/>
<path d="M63.8558 11.303H62.8963L58.5565 2.69389V11.303H57.4738V0.16748H58.5125L62.773 8.64459V0.16748H63.8558V11.303Z" fill="#323232"/>
<path d="M66.8136 0.16748H73.2397V1.33826H70.6076V11.303H69.4456V1.33826H66.8136V0.16748Z" fill="#323232"/>
<path d="M32.0513 24.9737V29.7889H30.8893V18.6533H36.6023V19.8241H32.0513V23.8206H36.2238V24.9737H32.0513Z" fill="#323232"/>
<path d="M41.1798 28.6181H45.5548V29.7889H40.0266V18.6533H41.1798V28.6181Z" fill="#323232"/>
<path d="M48.0724 18.6533L50.3259 24.0759L52.597 18.6533H53.7678L50.8717 25.3347V29.7889H49.7185V25.3523L46.8224 18.6533H48.0724Z" fill="#323232"/>
<path d="M58.1693 24.6744V28.6181H62.8436V29.7889H57.0073V18.6533H62.7204V19.8241H58.1693V23.5213H62.3418V24.6744H58.1693Z" fill="#323232"/>
<path d="M71.4879 29.7889L69.7538 25.3787C69.5689 25.3963 69.4809 25.3963 69.34 25.3963H67.4826V29.7889H66.3295V18.6533H69.4105C71.3559 18.6533 72.7731 19.9561 72.7731 21.972C72.7731 23.4597 72.0425 24.5776 70.9157 25.0706L72.7555 29.7801H71.4879V29.7889ZM67.4826 19.7889V24.2783H69.3136C70.7133 24.2783 71.5848 23.3628 71.5848 21.9896C71.5848 20.6163 70.7133 19.7889 69.3136 19.7889H67.4826Z" fill="#323232"/>
<path d="M147.051 7.9401C147.051 9.41897 146.426 10.5369 145.432 11.0915L146.99 13.5827H145.572L144.278 11.4436C144.111 11.4788 143.944 11.4964 143.759 11.4964C141.805 11.4964 140.467 10.1232 140.467 7.9401V3.58271C140.467 1.39961 141.752 0.0263672 143.759 0.0263672C145.766 0.0263672 147.051 1.39961 147.051 3.58271V7.9401ZM141.629 7.97531C141.629 9.33095 142.403 10.3345 143.759 10.3345C145.115 10.3345 145.881 9.33095 145.881 7.97531V3.54749C145.881 2.19186 145.115 1.18834 143.759 1.18834C142.403 1.18834 141.629 2.19186 141.629 3.54749V7.97531Z" fill="#323232"/>
<path d="M149.807 11.3294L153.011 0.193848H154.182L157.412 11.3294H156.206L155.476 8.76779H151.664L150.951 11.3294H149.807ZM151.963 7.64983H155.176L153.548 1.93681L151.963 7.64983Z" fill="#323232"/>
<path d="M166.954 11.3294H165.995L161.646 2.72026V11.3294H160.564V0.193848H161.602L165.872 8.67096V0.193848H166.954V11.3294Z" fill="#323232"/>
<path d="M170.035 0.193848H176.47V1.36462H173.829V11.3294H172.667V1.36462H170.027V0.193848H170.035Z" fill="#323232"/>
<path d="M177.923 11.3294L181.127 0.193848H182.298L185.528 11.3294H184.322L183.592 8.76779H179.78L179.067 11.3294H177.923ZM180.088 7.64983H183.301L181.673 1.93681L180.088 7.64983Z" fill="#323232"/>
<path d="M193.222 3.36263V3.08975C193.222 1.97179 192.509 1.10911 191.259 1.10911C190.009 1.10911 189.322 1.80454 189.322 2.79045C189.322 3.5739 189.807 4.12848 190.467 4.41897L192.113 5.16721C193.257 5.67778 194.534 6.35559 194.534 8.26581C194.534 10.176 193.204 11.5052 191.268 11.5052C189.331 11.5052 187.993 10.2993 187.993 8.37144V8.09855H189.138V8.43306C189.138 9.56862 189.912 10.3961 191.259 10.3961C192.606 10.3961 193.389 9.55102 193.389 8.41545C193.389 7.20947 192.615 6.73411 191.682 6.32918L190.264 5.68658C189.138 5.19362 188.204 4.38376 188.204 2.88728C188.204 1.20594 189.419 0.0263672 191.25 0.0263672C193.081 0.0263672 194.349 1.23235 194.349 3.16017V3.36263H193.222Z" fill="#323232"/>
<path d="M150.212 18.6797L147.923 29.8153H146.866L145.079 21.0036L143.328 29.8153H142.271L139.983 18.6797H141.127L142.835 27.4473L144.569 18.6797H145.634L147.368 27.4473L149.076 18.6797H150.185H150.212Z" fill="#323232"/>
<path d="M154.683 24.692V28.6445H159.366V29.8153H153.53V18.6797H159.252V19.8505H154.692V23.5476H158.873V24.7008H154.692L154.683 24.692Z" fill="#323232"/>
<path d="M164.05 28.6445H168.425V29.8153H162.888V18.6797H164.05V28.6445Z" fill="#323232"/>
<path d="M172.615 28.6445H176.99V29.8153H171.453V18.6797H172.615V28.6445Z" fill="#323232"/>
<path d="M180.027 18.6797H183.24C185.009 18.6797 186.285 19.8153 186.285 21.5582C186.285 22.7994 185.722 23.6445 184.78 24.0494V24.067C185.881 24.4367 186.532 25.3522 186.532 26.7607C186.532 28.6093 185.264 29.8153 183.513 29.8153H180.018V18.6797H180.027ZM181.189 19.7624V23.5564H183.204C184.375 23.5564 185.115 22.8258 185.115 21.611C185.115 20.4755 184.349 19.7624 183.152 19.7624H181.197H181.189ZM181.189 24.6656V28.7325H183.38C184.604 28.7325 185.335 27.9314 185.335 26.7167C185.335 25.5019 184.622 24.6656 183.442 24.6656H181.189Z" fill="#323232"/>
<path d="M191.224 24.692V28.6445H195.907V29.8153H190.071V18.6797H195.784V19.8505H191.224V23.5476H195.405V24.7008H191.224V24.692Z" fill="#323232"/>
<path d="M200.59 29.8153H199.428V18.6797H200.59V29.8153Z" fill="#323232"/>
<path d="M211.03 29.8153H210.071L205.722 21.2061V29.8153H204.639V18.6797H205.678L209.947 27.1568V18.6797H211.03V29.8153Z" fill="#323232"/>
<path d="M218.363 24.3749H221.321V26.6108C221.321 28.6971 220.027 29.9823 218.108 29.9823C216.189 29.9823 214.815 28.609 214.815 26.4259V22.0685C214.815 19.8854 216.127 18.5122 218.108 18.5122C220.088 18.5122 221.321 19.7358 221.321 21.7164V21.9717H220.212V21.6812C220.212 20.5281 219.463 19.683 218.108 19.683C216.752 19.683 215.977 20.6865 215.977 22.0421V26.47C215.977 27.8256 216.752 28.8291 218.108 28.8291C219.463 28.8291 220.238 27.9136 220.238 26.6636V25.44H218.363V24.3925V24.3749Z" fill="#323232"/>
<path d="M129.437 0.0527344V29.9999" stroke="#323232" stroke-width="0.666519" stroke-miterlimit="10"/>
<defs>
<linearGradient id="paint0_linear_15605_2251" x1="102.817" y1="29.7273" x2="82.5355" y2="0.0970307" gradientUnits="userSpaceOnUse">
<stop stop-color="#BE1818"/>
<stop offset="0.11" stop-color="#C31919"/>
<stop offset="0.66" stop-color="#DC211E"/>
<stop offset="1" stop-color="#E52421"/>
</linearGradient>
<linearGradient id="paint1_linear_15605_2251" x1="97.2186" y1="16.3556" x2="97.4915" y2="13.2306" gradientUnits="userSpaceOnUse">
<stop offset="0.65" stop-color="white" stop-opacity="0"/>
<stop offset="0.69" stop-color="#ECECEC" stop-opacity="0.0529"/>
<stop offset="0.76" stop-color="#D6D6D6" stop-opacity="0.25"/>
<stop offset="0.81" stop-color="#C5C5C5" stop-opacity="0.5184"/>
<stop offset="0.87" stop-color="#B9B9B9" stop-opacity="0.7569"/>
<stop offset="0.91" stop-color="#B1B1B1" stop-opacity="0.9409"/>
<stop offset="0.95" stop-color="#AFAFAF"/>
</linearGradient>
<linearGradient id="paint2_linear_15605_2251" x1="93.1957" y1="24.6039" x2="106.356" y2="24.6039" gradientUnits="userSpaceOnUse">
<stop stop-color="white" stop-opacity="0"/>
<stop offset="0.07" stop-color="#F3F3F3" stop-opacity="0.0225"/>
<stop offset="0.21" stop-color="#DEDEDE" stop-opacity="0.1681"/>
<stop offset="0.35" stop-color="#CDCDCD" stop-opacity="0.3844"/>
<stop offset="0.49" stop-color="#C0C0C0" stop-opacity="0.6241"/>
<stop offset="0.63" stop-color="#B6B6B6" stop-opacity="0.8281"/>
<stop offset="0.77" stop-color="#B0B0B0" stop-opacity="0.9604"/>
<stop offset="0.9" stop-color="#AFAFAF"/>
</linearGradient>
<linearGradient id="paint3_linear_15605_2251" x1="76.7695" y1="10.9596" x2="91.4702" y2="10.9596" gradientUnits="userSpaceOnUse">
<stop offset="0.25" stop-color="white" stop-opacity="0"/>
<stop offset="0.36" stop-color="#F6F6F6" stop-opacity="0.0121"/>
<stop offset="0.58" stop-color="#E0E0E0" stop-opacity="0.1444"/>
<stop offset="0.88" stop-color="#BDBDBD" stop-opacity="0.6724"/>
<stop offset="1" stop-color="#AFAFAF"/>
</linearGradient>
</defs>
</svg>
