<svg width="24" height="24" viewBox="0 0 24 24" fill="none" xmlns="http://www.w3.org/2000/svg">
<path fill-rule="evenodd" clip-rule="evenodd" d="M12 13C9.23772 13 7 10.7623 7 8C7 5.23772 9.23772 3 12 3C14.7623 3 17 5.23772 17 8C17 10.7623 14.7623 13 12 13ZM12 11C13.6577 11 15 9.65772 15 8C15 6.34228 13.6577 5 12 5C10.3423 5 9 6.34228 9 8C9 9.65772 10.3423 11 12 11ZM21 21H19V19C19 17.5399 15.156 16 12 16C8.844 16 5 17.5399 5 19V21H3V19C3 15.9353 7.83098 14 12 14C16.169 14 21 15.9353 21 19V21Z" fill="#083A39"/>
</svg>
