<svg width="48" height="48" viewBox="0 0 48 48" fill="none" xmlns="http://www.w3.org/2000/svg">
<path fill-rule="evenodd" clip-rule="evenodd" d="M35.1797 32.9796H33.2597V31.0596H30.3597V32.9796H28.4297V35.8796H30.3597V37.8096H33.2597V35.8796H35.1797V32.9796Z" fill="white"/>
<path fill-rule="evenodd" clip-rule="evenodd" d="M35.9297 32.7201V36.2601H33.5797V38.6201H30.0397V36.2601H27.6797V32.7201H30.0397V30.3701H33.5797V32.7201H35.9297Z" fill="#DF0000"/>
<path d="M18.2994 9.3302C18.8185 9.3302 19.2394 8.90934 19.2394 8.3902C19.2394 7.87105 18.8185 7.4502 18.2994 7.4502C17.7802 7.4502 17.3594 7.87105 17.3594 8.3902C17.3594 8.90934 17.7802 9.3302 18.2994 9.3302Z" fill="#8DE2E0"/>
<path d="M13.5904 9.3302C14.1095 9.3302 14.5304 8.90934 14.5304 8.3902C14.5304 7.87105 14.1095 7.4502 13.5904 7.4502C13.0712 7.4502 12.6504 7.87105 12.6504 8.3902C12.6504 8.90934 13.0712 9.3302 13.5904 9.3302Z" fill="#8DE2E0"/>
<path d="M8.85992 9.3302C9.37907 9.3302 9.79992 8.90934 9.79992 8.3902C9.79992 7.87105 9.37907 7.4502 8.85992 7.4502C8.34077 7.4502 7.91992 7.87105 7.91992 8.3902C7.91992 8.90934 8.34077 9.3302 8.85992 9.3302Z" fill="#8DE2E0"/>
<path d="M18.2994 6.40051C18.8185 6.40051 19.2394 5.97966 19.2394 5.46051C19.2394 4.94136 18.8185 4.52051 18.2994 4.52051C17.7802 4.52051 17.3594 4.94136 17.3594 5.46051C17.3594 5.97966 17.7802 6.40051 18.2994 6.40051Z" fill="#8DE2E0"/>
<path d="M9.10016 4.28039C9.6193 4.28039 10.0402 3.85954 10.0402 3.34039C10.0402 2.82124 9.6193 2.40039 9.10016 2.40039C8.58101 2.40039 8.16016 2.82124 8.16016 3.34039C8.16016 3.85954 8.58101 4.28039 9.10016 4.28039Z" fill="#8DE2E0"/>
<path d="M18.2994 12.2706C18.8185 12.2706 19.2394 11.8498 19.2394 11.3306C19.2394 10.8115 18.8185 10.3906 18.2994 10.3906C17.7802 10.3906 17.3594 10.8115 17.3594 11.3306C17.3594 11.8498 17.7802 12.2706 18.2994 12.2706Z" fill="#8DE2E0"/>
<path d="M13.7095 13.3204C14.2287 13.3204 14.6495 12.8996 14.6495 12.3804C14.6495 11.8613 14.2287 11.4404 13.7095 11.4404C13.1904 11.4404 12.7695 11.8613 12.7695 12.3804C12.7695 12.8996 13.1904 13.3204 13.7095 13.3204Z" fill="#8DE2E0"/>
<path d="M9.10016 14.38C9.6193 14.38 10.0402 13.9591 10.0402 13.44C10.0402 12.9209 9.6193 12.5 9.10016 12.5C8.58101 12.5 8.16016 12.9209 8.16016 13.44C8.16016 13.9591 8.58101 14.38 9.10016 14.38Z" fill="#8DE2E0"/>
<path d="M13.5904 5.22082C14.1095 5.22082 14.5304 4.79997 14.5304 4.28082C14.5304 3.76167 14.1095 3.34082 13.5904 3.34082C13.0712 3.34082 12.6504 3.76167 12.6504 4.28082C12.6504 4.79997 13.0712 5.22082 13.5904 5.22082Z" fill="#8DE2E0"/>
<path d="M40.6707 27.5798L37.5907 16.6798C37.3807 15.9398 36.8207 15.3998 36.1307 15.1998V14.4898C37.1907 14.2898 38.0007 13.3398 38.0007 12.1898V7.75984C38.0007 5.86984 36.5307 4.33984 34.7307 4.33984H24.8507C24.3007 4.33984 23.8507 4.78984 23.8507 5.33984V5.38984H22.4707C21.9207 5.38984 21.4707 5.83984 21.4707 6.38984V8.80984C21.4707 9.35984 21.9207 9.80984 22.4707 9.80984H23.8507V9.85984C23.8507 10.2998 24.1407 10.6598 24.5407 10.7998C24.1707 11.8198 23.5507 13.3198 22.7007 14.7298C22.0207 15.7598 21.5907 17.2598 22.6107 18.1298C23.0207 18.4798 23.4307 18.5698 23.7507 18.5698C23.8307 18.5698 23.9007 18.5698 23.9607 18.5598C24.9507 18.4298 25.6107 17.4898 26.2507 16.5798C26.4407 16.3098 26.6307 16.0398 26.8107 15.8198C26.9607 15.6398 27.1107 15.4498 27.2707 15.2498C27.6607 14.7598 28.0707 14.2398 28.5307 13.8498V15.1798C27.5607 15.3798 26.8207 16.2598 26.8207 17.3098V18.1298C26.8207 19.2098 27.5207 20.1898 28.5307 20.4998C28.9007 20.6098 29.1707 21.0298 29.1707 21.4898V21.6998C29.1707 22.0898 29.0207 22.4498 28.7607 22.6998L24.2607 27.0298C23.1607 28.0898 22.5307 29.5998 22.5307 31.1798V40.9998C22.5307 44.0898 24.9107 46.6098 27.8307 46.6098H35.7807C38.7007 46.6098 41.0807 44.0898 41.0807 40.9998V30.5998C41.0807 29.5798 40.9407 28.5698 40.6607 27.5898L40.6707 27.5798ZM30.5307 15.1198V13.6198L30.9807 14.1698C31.1707 14.3998 31.4507 14.5398 31.7507 14.5398H34.1207V15.1198H30.5207H30.5307ZM25.8507 6.33984H34.7307C35.4307 6.33984 36.0007 6.97984 36.0007 7.75984V12.1898C36.0007 12.3698 35.8707 12.5298 35.7307 12.5298H32.2307L30.9907 11.0098C30.7607 10.7298 30.5107 10.4898 30.2507 10.2598C30.2507 10.2598 30.2307 10.2398 30.2207 10.2298C29.1807 9.33984 27.8807 8.83984 26.5207 8.83984H25.8507V6.32984V6.33984ZM23.4707 7.80984V7.38984H23.8507V7.80984H23.4707ZM25.7107 13.9898C25.5607 14.1698 25.4207 14.3498 25.2807 14.5198C25.0607 14.7798 24.8407 15.0998 24.6107 15.4198C24.6007 15.4398 24.5807 15.4598 24.5707 15.4798C25.6107 13.6798 26.3007 11.8498 26.6307 10.8698C27.3107 10.8898 27.9607 11.1198 28.5307 11.4998C27.2907 11.9998 26.4207 13.0898 25.7007 13.9998L25.7107 13.9898ZM39.0807 40.9898C39.0807 42.9798 37.6007 44.5998 35.7807 44.5998H27.8307C26.0107 44.5998 24.5307 42.9798 24.5307 40.9898V31.1698C24.5307 30.1298 24.9407 29.1498 25.6507 28.4598L30.1507 24.1298C30.8007 23.5098 31.1707 22.6198 31.1707 21.6898V21.4798C31.1707 20.1498 30.3307 18.9498 29.1207 18.5798C28.9507 18.5298 28.8307 18.3298 28.8307 18.1298V17.3098C28.8307 17.2098 28.9007 17.1398 28.9407 17.1398H35.5607C35.6107 17.1398 35.6507 17.1998 35.6607 17.2498L38.7407 28.1498C38.9707 28.9498 39.0807 29.7798 39.0807 30.6098V41.0098V40.9898Z" fill="#323232"/>
</svg>
