<svg width="48" height="48" viewBox="0 0 48 48" fill="none" xmlns="http://www.w3.org/2000/svg">
<path d="M23.9805 43.3602C23.7805 43.3602 23.5805 43.3002 23.4005 43.1802C16.0005 37.9602 10.5805 32.8002 7.27053 27.8602C6.96053 27.4002 7.09053 26.7802 7.55053 26.4702C8.01053 26.1602 8.63053 26.2902 8.94053 26.7502C12.0205 31.3602 17.0805 36.2002 23.9805 41.1402C30.8805 36.2002 35.9405 31.3602 39.0205 26.7502C39.3205 26.2902 39.9405 26.1702 40.4105 26.4702C40.8705 26.7802 40.9905 27.4002 40.6905 27.8602C37.3905 32.8102 31.9605 37.9602 24.5605 43.1802C24.3905 43.3002 24.1805 43.3602 23.9805 43.3602Z" fill="#323232"/>
<path d="M4.38919 19.4301C3.90919 19.4301 3.47919 19.0801 3.39919 18.5901C3.24919 17.6501 3.16919 16.7101 3.16919 15.8101C3.07919 9.7301 7.95919 4.6901 14.0492 4.6001C18.1792 4.6201 21.8792 6.7501 23.9692 10.1601C26.0492 6.7501 29.7492 4.6201 33.8692 4.6001C39.9892 4.7001 44.8692 9.7301 44.7692 15.8301C44.7692 16.7201 44.6892 17.6501 44.5392 18.6001C44.4492 19.1401 43.9492 19.5201 43.3992 19.4301C42.8492 19.3401 42.4792 18.8301 42.5692 18.2801C42.6992 17.4401 42.7692 16.6101 42.7692 15.8101C42.8492 10.8001 38.8492 6.6701 33.8492 6.6001C29.8692 6.6201 26.3492 9.0401 24.8992 12.7701C24.7492 13.1501 24.3792 13.4101 23.9692 13.4101C23.5592 13.4101 23.1892 13.1601 23.0392 12.7701C21.5892 9.0401 18.0692 6.6201 14.0692 6.6001C9.09919 6.6801 5.09919 10.8001 5.17919 15.8001C5.17919 16.6201 5.24919 17.4501 5.37919 18.2801C5.46919 18.8301 5.09919 19.3401 4.54919 19.4301C4.49919 19.4301 4.43919 19.4401 4.38919 19.4401V19.4301Z" fill="#323232"/>
<path d="M25.75 29.8699C25.75 29.8699 25.7 29.8699 25.68 29.8699C25.31 29.8399 24.99 29.6099 24.84 29.2799L20.86 20.2399L18.6 23.4499C18.41 23.7199 18.11 23.8699 17.78 23.8699H2.75C2.2 23.8699 1.75 23.4199 1.75 22.8699C1.75 22.3199 2.2 21.8699 2.75 21.8699H17.26L20.25 17.6399C20.46 17.3499 20.8 17.1899 21.17 17.2199C21.53 17.2599 21.84 17.4799 21.99 17.8099L25.92 26.7399L28.67 22.3399C28.85 22.0499 29.17 21.8699 29.52 21.8699H45.26C45.81 21.8699 46.26 22.3199 46.26 22.8699C46.26 23.4199 45.81 23.8699 45.26 23.8699H30.07L26.61 29.4099C26.43 29.6999 26.11 29.8799 25.76 29.8799L25.75 29.8699Z" fill="#DF0000"/>
</svg>
