<svg width="24" height="24" viewBox="0 0 24 24" fill="none" xmlns="http://www.w3.org/2000/svg">
<path d="M12 2C17.5229 2 22.0008 6.47713 22.001 12C22.001 17.523 17.523 22.001 12 22.001C6.47713 22.0008 2 17.5229 2 12C2.00014 6.47721 6.47721 2.00014 12 2ZM12.3203 14.4424C12.2797 15.5215 11.3914 16.3877 10.3027 16.3877C9.96481 16.3876 9.6465 16.3027 9.36621 16.1553C8.72316 15.8167 8.28234 15.1426 8.28223 14.3672C8.28223 13.2531 9.18871 12.3459 10.3027 12.3457C10.5109 12.3457 10.7103 12.3803 10.8994 12.4395V9.98535C10.7043 9.95878 10.5053 9.94238 10.3027 9.94238C7.8633 9.9426 5.87891 11.9277 5.87891 14.3672C5.87901 15.864 6.62686 17.1887 7.76758 17.9893C8.48633 18.4938 9.35983 18.7909 10.3027 18.791C12.7423 18.791 14.7275 16.8063 14.7275 14.3662V9.48145C15.6701 10.1582 16.8257 10.5566 18.0723 10.5566V8.15234C17.4011 8.1523 16.7752 7.95343 16.251 7.61133L16.1123 7.51562C15.4316 7.02133 14.9432 6.2776 14.7842 5.41895C14.7476 5.22079 14.7275 5.01679 14.7275 4.80859H12.3242L12.3203 14.4424Z" fill="#323232"/>
</svg>
