<svg width="48" height="48" viewBox="0 0 48 48" fill="none" xmlns="http://www.w3.org/2000/svg">
<path d="M25.43 13.3501C20.74 13.3501 16.93 11.4501 16.93 9.10009V13.0501C18.66 13.8301 19.75 14.9501 19.75 16.2101C19.75 16.3601 19.73 16.5101 19.7 16.6601C19.7 16.7001 19.68 16.7401 19.67 16.7701C19.64 16.8801 19.61 16.9901 19.56 17.1001C19.54 17.1401 19.52 17.1701 19.5 17.2101C19.45 17.3201 19.39 17.4201 19.33 17.5301C19.31 17.5601 19.29 17.5901 19.26 17.6201C19.18 17.7301 19.1 17.8401 19.01 17.9401C18.99 17.9601 18.97 17.9801 18.95 18.0001C18.84 18.1101 18.73 18.2201 18.61 18.3301C18.59 18.3401 18.58 18.3601 18.56 18.3701C18.42 18.4801 18.28 18.5901 18.13 18.7001C18.13 18.7001 18.11 18.7101 18.1 18.7201C17.93 18.8301 17.76 18.9401 17.57 19.0401C17.38 19.1501 17.18 19.2501 16.96 19.3401C15.45 20.0301 13.45 20.4501 11.25 20.4501C6.56 20.4501 2.75 18.5501 2.75 16.2001V26.1201C2.75 28.4701 6.56 30.3701 11.25 30.3701C15.94 30.3701 19.75 28.4701 19.75 26.1201V22.1701C21.26 22.8501 23.24 23.2601 25.43 23.2601C30.13 23.2601 33.93 21.3601 33.93 19.0101V9.09009C33.93 11.4401 30.13 13.3401 25.43 13.3401V13.3501Z" fill="#8DE2E0"/>
<path d="M20.75 26.1201V23.6001C22.19 24.0401 23.67 24.2701 25.18 24.2701C25.26 24.2701 25.35 24.2701 25.43 24.2701C30.85 24.2701 34.93 22.0101 34.93 19.0201V9.1001C34.93 9.1001 34.93 9.0801 34.93 9.0701C34.9 6.0901 30.83 3.8501 25.43 3.8501C20.03 3.8501 15.93 6.1101 15.93 9.1001V11.5901C14.56 11.1801 12.98 10.9501 11.25 10.9501C5.92 10.9501 1.75 13.2601 1.75 16.2001V26.1201C1.75 29.0601 5.92 31.3701 11.25 31.3701C16.58 31.3701 20.75 29.1101 20.75 26.1201ZM32.93 19.0201C32.93 20.5501 29.72 22.2701 25.41 22.2701C23.8 22.3001 22.24 22.0201 20.75 21.4801V16.2101C20.75 14.9201 19.99 13.7701 18.69 12.8701C20.38 13.7901 22.74 14.3501 25.42 14.3501C28.54 14.3501 31.21 13.6001 32.92 12.3901V19.0101L32.93 19.0201ZM25.43 5.8501C29.72 5.8501 32.93 7.5601 32.93 9.1001C32.93 10.6401 29.72 12.3501 25.43 12.3501C21.14 12.3501 17.94 10.6401 17.93 9.1001C17.93 7.5701 21.14 5.8501 25.43 5.8501ZM11.25 12.9601C15.54 12.9601 18.75 14.6801 18.75 16.2101C18.75 17.7401 15.54 19.4601 11.25 19.4601C6.96 19.4601 3.75 17.7401 3.75 16.2101C3.75 14.6801 6.96 12.9601 11.25 12.9601ZM18.75 26.1201C18.75 27.6501 15.54 29.3701 11.25 29.3701C6.96 29.3701 3.75 27.6501 3.75 26.1201V19.4601C3.75 19.4601 3.8 19.4901 3.82 19.5001C3.97 19.6001 4.13 19.7001 4.3 19.8001C4.36 19.8401 4.41 19.8701 4.48 19.9101C4.71 20.0401 4.95 20.1601 5.21 20.2801C5.26 20.3001 5.32 20.3301 5.38 20.3501C5.58 20.4401 5.79 20.5201 6.01 20.6001C6.11 20.6401 6.21 20.6701 6.31 20.7001C6.49 20.7601 6.68 20.8201 6.87 20.8701C6.99 20.9001 7.1 20.9301 7.22 20.9601C7.41 21.0101 7.6 21.0501 7.79 21.0901C7.91 21.1201 8.04 21.1401 8.17 21.1601C8.37 21.2001 8.57 21.2301 8.78 21.2601C8.91 21.2801 9.03 21.3001 9.16 21.3101C9.39 21.3401 9.62 21.3601 9.86 21.3801C9.97 21.3801 10.08 21.4001 10.2 21.4101C10.55 21.4301 10.91 21.4401 11.27 21.4401C11.63 21.4401 12 21.4301 12.35 21.4101C12.47 21.4101 12.58 21.3901 12.69 21.3801C12.93 21.3601 13.16 21.3401 13.39 21.3201C13.52 21.3001 13.65 21.2901 13.77 21.2701C13.98 21.2401 14.18 21.2101 14.38 21.1701C14.51 21.1501 14.64 21.1201 14.76 21.1001C14.95 21.0601 15.14 21.0201 15.33 20.9701C15.45 20.9401 15.57 20.9101 15.69 20.8801C15.88 20.8301 16.06 20.7701 16.24 20.7101C16.34 20.6801 16.45 20.6401 16.55 20.6101C16.75 20.5401 16.94 20.4601 17.13 20.3801C17.2 20.3501 17.27 20.3201 17.34 20.2901C17.59 20.1801 17.84 20.0601 18.07 19.9301C18.11 19.9101 18.15 19.8801 18.19 19.8601C18.37 19.7501 18.55 19.6401 18.72 19.5301C18.74 19.5201 18.76 19.5101 18.77 19.5001V26.1201H18.75Z" fill="#323232"/>
<path d="M14.6298 37.9602C14.8098 38.2902 15.1498 38.4802 15.5098 38.4802C15.6698 38.4802 15.8398 38.4402 15.9898 38.3602L44.3198 22.7802C44.7998 22.5102 44.9798 21.9102 44.7098 21.4202C44.4398 20.9402 43.8398 20.7602 43.3498 21.0302L15.0198 36.6102C14.5398 36.8802 14.3598 37.4802 14.6298 37.9702V37.9602Z" fill="#323232"/>
<path d="M46.209 32.9401C46.049 32.4101 45.489 32.1101 44.959 32.2701L12.3791 42.1801C11.8491 42.3401 11.5491 42.9001 11.7091 43.4301C11.8391 43.8601 12.2391 44.1401 12.6691 44.1401C12.7691 44.1401 12.8591 44.1301 12.9591 44.1001L45.5391 34.1901C46.069 34.0301 46.369 33.4701 46.209 32.9401Z" fill="#323232"/>
<path d="M11.2497 17.7901C12.9897 17.7901 14.0697 17.1701 14.0697 16.1801C14.0697 15.1901 12.9897 14.5701 11.2497 14.5701C9.50969 14.5701 8.42969 15.1901 8.42969 16.1801C8.42969 17.1701 9.50969 17.7901 11.2497 17.7901Z" fill="#323232"/>
<path d="M25.4294 10.6902C27.1694 10.6902 28.2494 10.0702 28.2494 9.08021C28.2494 8.09021 27.1694 7.47021 25.4294 7.47021C23.6894 7.47021 22.6094 8.09021 22.6094 9.08021C22.6094 10.0702 23.6894 10.6902 25.4294 10.6902Z" fill="#323232"/>
</svg>
