<svg width="24" height="24" viewBox="0 0 24 24" fill="none" xmlns="http://www.w3.org/2000/svg">
<g clip-path="url(#clip0_16335_10080)">
<path d="M20.4851 20.4853C25.1714 15.799 25.1714 8.20101 20.4851 3.51472C15.7988 -1.17157 8.20081 -1.17157 3.51452 3.51472C-1.17177 8.20101 -1.17177 15.799 3.51452 20.4853C8.20081 25.1716 15.7988 25.1716 20.4851 20.4853Z" fill="white"/>
<mask id="mask0_16335_10080" style="mask-type:luminance" maskUnits="userSpaceOnUse" x="-1" y="0" width="25" height="24">
<path d="M20.4851 20.4853C25.1714 15.799 25.1714 8.20101 20.4851 3.51472C15.7988 -1.17157 8.20081 -1.17157 3.51452 3.51472C-1.17177 8.20101 -1.17177 15.799 3.51452 20.4853C8.20081 25.1716 15.7988 25.1716 20.4851 20.4853Z" fill="white"/>
</mask>
<g mask="url(#mask0_16335_10080)">
<path d="M26.6622 2.22461H-2.66217V21.7751H26.6622V2.22461Z" fill="white"/>
<path d="M26.6622 0H-2.66217V7.11308H26.6622V0Z" fill="#003399"/>
<path d="M26.6622 16.8882H-2.66217V24.0013H26.6622V16.8882Z" fill="#FED700"/>
<path d="M26.6622 12H-2.66217V16.8869H26.6622V12Z" fill="#007C29"/>
<path d="M18.9621 0H14.0752V24H18.9621V0Z" fill="#FF0000"/>
<path fill-rule="evenodd" clip-rule="evenodd" d="M5.20557 3.82773H7.03484L7.60082 2.08789L8.16539 3.82773H9.99467L8.51476 4.89958L9.07933 6.64082L7.60082 5.56198L6.1209 6.64082L6.68688 4.89958L5.20557 3.82773Z" fill="#FED700"/>
</g>
</g>
<rect x="0.25" y="0.25" width="23.5" height="23.5" rx="11.75" stroke="#E5E3E1" stroke-width="0.5"/>
<defs>
<clipPath id="clip0_16335_10080">
<rect width="24" height="24" rx="12" fill="white"/>
</clipPath>
</defs>
</svg>
