<svg width="24" height="24" viewBox="0 0 24 24" fill="none" xmlns="http://www.w3.org/2000/svg">
<g clip-path="url(#clip0_16335_2616)">
<path d="M23.9429 13.163C24.5851 6.56678 19.7583 0.698936 13.162 0.0568182C6.56581 -0.5853 0.697963 4.24147 0.0558454 10.8377C-0.586272 17.4339 4.2405 23.3018 10.8367 23.9439C17.433 24.586 23.3008 19.7593 23.9429 13.163Z" fill="white"/>
<mask id="mask0_16335_2616" style="mask-type:luminance" maskUnits="userSpaceOnUse" x="-1" y="0" width="26" height="25">
<path d="M23.9429 13.1635C24.5851 6.56727 19.7583 0.699424 13.162 0.0573065C6.56581 -0.584811 0.697963 4.24196 0.0558454 10.8382C-0.586272 17.4344 4.2405 23.3023 10.8367 23.9444C17.433 24.5865 23.3008 19.7597 23.9429 13.1635Z" fill="white"/>
</mask>
<g mask="url(#mask0_16335_2616)">
<path d="M30.0007 0H-5.99933V24H30.0007V0Z" fill="white"/>
<path d="M30.0007 7.19971H-5.99933V16.8003H30.0007V7.19971Z" fill="#FF0000"/>
<path d="M30.0007 0H-5.99933V4.80028H30.0007V0Z" fill="#007C29"/>
<path d="M30.0007 19.2012H-5.99933V24.0015H30.0007V19.2012Z" fill="#007C29"/>
<path fill-rule="evenodd" clip-rule="evenodd" d="M7.45123 10.9964H10.9267L12 7.69141L13.0746 10.9964H16.5487L13.737 13.0353L14.8117 16.3445L12 14.2944L9.18828 16.3445L10.2629 13.0353L7.45123 10.9964Z" fill="#FED700"/>
</g>
</g>
<rect x="0.25" y="0.25" width="23.5" height="23.5" rx="11.75" stroke="#E5E3E1" stroke-width="0.5"/>
<defs>
<clipPath id="clip0_16335_2616">
<rect width="24" height="24" rx="12" fill="white"/>
</clipPath>
</defs>
</svg>
