<svg width="48" height="48" viewBox="0 0 48 48" fill="none" xmlns="http://www.w3.org/2000/svg">
<path fill-rule="evenodd" clip-rule="evenodd" d="M38.4309 14.8899C39.3109 13.6399 37.6009 10.9299 34.6309 8.84995C31.6509 6.76995 28.5309 6.08995 27.6509 7.34995C26.7709 8.59995 29.6109 9.10994 32.5809 11.1899C35.5609 13.2699 37.5509 16.1399 38.4209 14.8899" fill="#8DE2E0"/>
<path d="M24 46.2202C11.73 46.2202 1.75 36.2402 1.75 23.9702C1.75 11.7002 11.73 1.72021 24 1.72021C36.27 1.72021 46.25 11.7002 46.25 23.9702C46.25 36.2402 36.27 46.2202 24 46.2202ZM24 3.72021C12.83 3.72021 3.75 12.8102 3.75 23.9702C3.75 35.1302 12.83 44.2202 24 44.2202C35.17 44.2202 44.25 35.1402 44.25 23.9702C44.25 12.8002 35.17 3.72021 24 3.72021Z" fill="#323232"/>
<path d="M23.9804 34.08C21.0404 34.08 18.2204 33.04 15.8204 31.08C15.3904 30.73 15.3304 30.1 15.6804 29.67C16.0304 29.24 16.6604 29.18 17.0904 29.53C19.1304 31.2 21.5204 32.08 23.9904 32.08C26.1604 32.08 28.3004 31.39 30.1804 30.07C30.3704 29.94 30.5604 29.79 30.7504 29.65C31.1904 29.31 31.8104 29.38 32.1504 29.81C32.4904 30.24 32.4204 30.87 31.9904 31.21C31.7804 31.38 31.5604 31.54 31.3304 31.7C29.1204 33.25 26.5804 34.07 24.0004 34.07L23.9804 34.08Z" fill="#323232"/>
<path fill-rule="evenodd" clip-rule="evenodd" d="M17.9302 21.9502C19.0502 21.9502 19.9502 21.0402 19.9502 19.9302C19.9502 18.8202 19.0402 17.9102 17.9302 17.9102C16.8202 17.9102 15.9102 18.8202 15.9102 19.9302C15.9102 21.0402 16.8202 21.9502 17.9302 21.9502Z" fill="#323232"/>
<path fill-rule="evenodd" clip-rule="evenodd" d="M30.0708 21.9502C31.1908 21.9502 32.0908 21.0402 32.0908 19.9302C32.0908 18.8202 31.1808 17.9102 30.0708 17.9102C28.9608 17.9102 28.0508 18.8202 28.0508 19.9302C28.0508 21.0402 28.9608 21.9502 30.0708 21.9502Z" fill="#323232"/>
</svg>
