<svg width="48" height="48" viewBox="0 0 48 48" fill="none" xmlns="http://www.w3.org/2000/svg">
<path d="M23.9991 8.00023C25.4516 8.00023 26.6291 6.82274 26.6291 5.37023C26.6291 3.91773 25.4516 2.74023 23.9991 2.74023C22.5466 2.74023 21.3691 3.91773 21.3691 5.37023C21.3691 6.82274 22.5466 8.00023 23.9991 8.00023Z" fill="#8DE2E0"/>
<path d="M23.9991 45.2102C25.4516 45.2102 26.6291 44.0327 26.6291 42.5802C26.6291 41.1277 25.4516 39.9502 23.9991 39.9502C22.5466 39.9502 21.3691 41.1277 21.3691 42.5802C21.3691 44.0327 22.5466 45.2102 23.9991 45.2102Z" fill="#8DE2E0"/>
<path d="M40.1007 17.2795C41.5532 17.2795 42.7307 16.102 42.7307 14.6495C42.7307 13.197 41.5532 12.0195 40.1007 12.0195C38.6482 12.0195 37.4707 13.197 37.4707 14.6495C37.4707 16.102 38.6482 17.2795 40.1007 17.2795Z" fill="#8DE2E0"/>
<path d="M7.89953 35.9202C9.35204 35.9202 10.5295 34.7427 10.5295 33.2902C10.5295 31.8376 9.35204 30.6602 7.89953 30.6602C6.44702 30.6602 5.26953 31.8376 5.26953 33.2902C5.26953 34.7427 6.44702 35.9202 7.89953 35.9202Z" fill="#8DE2E0"/>
<path d="M7.88 17.3303C9.33251 17.3303 10.51 16.1528 10.51 14.7003C10.51 13.2478 9.33251 12.0703 7.88 12.0703C6.42749 12.0703 5.25 13.2478 5.25 14.7003C5.25 16.1528 6.42749 17.3303 7.88 17.3303Z" fill="#8DE2E0"/>
<path d="M40.1202 35.8801C41.5727 35.8801 42.7502 34.7026 42.7502 33.2501C42.7502 31.7976 41.5727 30.6201 40.1202 30.6201C38.6677 30.6201 37.4902 31.7976 37.4902 33.2501C37.4902 34.7026 38.6677 35.8801 40.1202 35.8801Z" fill="#8DE2E0"/>
<path d="M24.0107 31.2597C28.0407 31.2597 31.3007 27.9997 31.3007 23.9697C31.3007 19.9397 28.0407 16.6797 24.0107 16.6797C19.9807 16.6797 16.7207 19.9397 16.7207 23.9697C16.7207 27.9997 19.9807 31.2597 24.0107 31.2597Z" fill="#DF0000"/>
<path fill-rule="evenodd" clip-rule="evenodd" d="M28.6295 28H28.6495C28.6695 28 28.6695 28 28.6895 27.98C28.6995 27.96 28.6995 27.93 28.6895 27.92C27.7795 26.92 26.6595 26.12 25.4095 25.6L25.0295 25.44C24.8295 25.35 24.6995 25.15 24.6995 24.92C24.7195 24.07 26.6495 24.24 26.8495 23.83L26.8795 23.76C26.4795 23.4 26.0095 23.14 25.4895 22.99C25.4895 23.01 25.4695 23.11 25.5695 23.29C25.6895 23.48 25.4495 23.79 25.0995 23.46L25.0695 23.44C22.5095 21 21.3295 22.61 19.5995 19.77C19.5795 19.75 19.5595 19.74 19.5395 19.75C19.5195 19.77 19.5095 19.79 19.5195 19.81C20.8895 23.25 23.6895 22.53 24.0195 25.74C24.0395 25.86 24.1195 25.96 24.2295 25.97C25.7795 26.23 27.2995 26.9 28.6195 28" fill="white"/>
<path d="M24.0011 1.75C22.0011 1.75 20.3711 3.38 20.3711 5.38C20.3711 7.03 21.4811 8.41 23.0011 8.85V13.89C23.0011 14.44 23.4511 14.89 24.0011 14.89C24.5511 14.89 25.0011 14.44 25.0011 13.89V8.85C26.5111 8.41 27.6311 7.03 27.6311 5.38C27.6311 3.38 26.0011 1.75 24.0011 1.75ZM24.0011 7C23.1011 7 22.3711 6.27 22.3711 5.37C22.3711 4.47 23.1011 3.74 24.0011 3.74C24.9011 3.74 25.6311 4.47 25.6311 5.37C25.6311 6.27 24.9011 7 24.0011 7Z" fill="#323232"/>
<path d="M25.0011 39.1101V34.0801C25.0011 33.5301 24.5511 33.0801 24.0011 33.0801C23.4511 33.0801 23.0011 33.5301 23.0011 34.0801V39.1101C21.4911 39.5501 20.3711 40.9301 20.3711 42.5801C20.3711 44.5801 22.0011 46.2101 24.0011 46.2101C26.0011 46.2101 27.6311 44.5801 27.6311 42.5801C27.6311 40.9301 26.5211 39.5501 25.0011 39.1101ZM24.0011 44.2001C23.1011 44.2001 22.3711 43.4701 22.3711 42.5701C22.3711 41.6701 23.1011 40.9401 24.0011 40.9401C24.9011 40.9401 25.6311 41.6701 25.6311 42.5701C25.6311 43.4701 24.9011 44.2001 24.0011 44.2001Z" fill="#323232"/>
<path d="M32.7497 19.9104C32.9197 19.9104 33.0897 19.8704 33.2497 19.7804L37.5897 17.2704C38.2697 17.9304 39.1797 18.2804 40.1097 18.2804C40.7297 18.2804 41.3497 18.1204 41.9197 17.7904C43.6497 16.7904 44.2397 14.5704 43.2397 12.8404C42.7497 12.0004 41.9697 11.4004 41.0397 11.1504C40.0997 10.9004 39.1297 11.0304 38.2897 11.5204C37.4497 12.0004 36.8497 12.7904 36.5997 13.7204C36.4397 14.3204 36.4497 14.9404 36.5997 15.5304L32.2497 18.0504C31.7697 18.3304 31.6097 18.9404 31.8897 19.4204C32.0797 19.7404 32.4097 19.9204 32.7597 19.9204L32.7497 19.9104ZM38.5297 14.2304C38.6397 13.8104 38.9097 13.4604 39.2897 13.2404C39.5397 13.0904 39.8197 13.0204 40.0997 13.0204C40.2397 13.0204 40.3797 13.0404 40.5197 13.0804C40.9397 13.1904 41.2897 13.4604 41.5097 13.8404C41.7297 14.2204 41.7897 14.6504 41.6697 15.0704C41.5597 15.4904 41.2897 15.8404 40.9097 16.0604C40.1297 16.5104 39.1397 16.2404 38.6897 15.4704C38.4697 15.0904 38.4097 14.6604 38.5297 14.2404V14.2304Z" fill="#323232"/>
<path d="M14.7897 28.1505L10.3997 30.6905C9.9597 30.2705 9.4397 29.9505 8.8297 29.7905C7.8897 29.5405 6.9197 29.6705 6.0797 30.1605C5.2397 30.6505 4.6397 31.4305 4.3897 32.3605C4.1397 33.3005 4.2697 34.2705 4.7597 35.1105C5.2497 35.9505 6.0297 36.5505 6.9597 36.8005C7.2697 36.8805 7.5897 36.9205 7.8997 36.9205C8.5297 36.9205 9.1497 36.7505 9.7097 36.4305C10.5497 35.9505 11.1497 35.1605 11.3997 34.2305C11.5597 33.6305 11.5497 33.0105 11.3997 32.4205L15.7897 29.8805C16.2697 29.6005 16.4297 28.9905 16.1497 28.5105C15.8697 28.0305 15.2597 27.8705 14.7797 28.1505H14.7897ZM9.4697 33.7105C9.3597 34.1305 9.0897 34.4805 8.7097 34.7005C8.3297 34.9205 7.8997 34.9805 7.4797 34.8605C7.0597 34.7505 6.7097 34.4805 6.4897 34.1005C6.2697 33.7205 6.2097 33.2905 6.3297 32.8705C6.4397 32.4505 6.7097 32.1005 7.0897 31.8805C7.3397 31.7305 7.6197 31.6605 7.8997 31.6605C8.0397 31.6605 8.1797 31.6805 8.3197 31.7205C8.7397 31.8305 9.0897 32.1005 9.3097 32.4805C9.5297 32.8605 9.5897 33.2905 9.4697 33.7105Z" fill="#323232"/>
<path d="M6.0703 17.8401C6.6403 18.1701 7.2603 18.3201 7.8703 18.3201C8.8003 18.3201 9.7103 17.9601 10.4003 17.3001L14.7503 19.8001C14.9103 19.8901 15.0803 19.9301 15.2503 19.9301C15.6003 19.9301 15.9303 19.7501 16.1203 19.4301C16.4003 18.9501 16.2303 18.3401 15.7503 18.0601L11.3903 15.5501C11.7603 14.0201 11.1203 12.3701 9.6903 11.5401C8.8503 11.0601 7.8703 10.9301 6.9403 11.1801C6.0003 11.4301 5.2203 12.0301 4.7403 12.8701C4.2603 13.7101 4.1303 14.6901 4.3803 15.6201C4.6303 16.5501 5.2303 17.3401 6.0703 17.8201V17.8401ZM6.4703 13.8901C6.6903 13.5101 7.0403 13.2401 7.4603 13.1301C7.6003 13.0901 7.7403 13.0701 7.8903 13.0701C8.1703 13.0701 8.4503 13.1401 8.7003 13.2901C9.4803 13.7401 9.7503 14.7301 9.3003 15.5101C8.8503 16.2801 7.8603 16.5501 7.0803 16.1101C6.7003 15.8901 6.4303 15.5401 6.3203 15.1201C6.2103 14.7001 6.2603 14.2601 6.4803 13.8901H6.4703Z" fill="#323232"/>
<path d="M43.6196 32.3103C43.3696 31.3703 42.7696 30.5903 41.9296 30.1103C40.4996 29.2903 38.7496 29.5603 37.6096 30.6603L33.2396 28.1503C32.7596 27.8803 32.1496 28.0403 31.8696 28.5203C31.5896 29.0003 31.7596 29.6103 32.2396 29.8903L36.6096 32.4003C36.2396 33.9303 36.8796 35.5803 38.3096 36.4103C38.8696 36.7303 39.4896 36.8903 40.1096 36.8903C40.4296 36.8903 40.7496 36.8503 41.0596 36.7603C41.9996 36.5103 42.7796 35.9103 43.2596 35.0703C43.7396 34.2303 43.8696 33.2503 43.6196 32.3203V32.3103ZM41.5296 34.0603C41.3096 34.4403 40.9596 34.7103 40.5396 34.8203C40.1196 34.9303 39.6796 34.8803 39.3096 34.6603C38.5296 34.2103 38.2596 33.2203 38.7096 32.4403C39.1596 31.6603 40.1496 31.3903 40.9296 31.8403C41.3096 32.0603 41.5796 32.4103 41.6896 32.8303C41.7996 33.2503 41.7496 33.6903 41.5296 34.0603Z" fill="#323232"/>
</svg>
