<svg width="24" height="24" viewBox="0 0 24 24" fill="none" xmlns="http://www.w3.org/2000/svg">
<path d="M21.375 12.0262C21.3729 11.9613 21.3461 11.8996 21.3 11.8538C21.2535 11.8086 21.1922 11.7819 21.1275 11.7787H21C20.6151 9.91485 18.977 8.57554 17.0737 8.56875H8.595C7.02824 8.56692 5.60541 9.48223 4.9575 10.9087C4.9575 10.9087 4.9575 2.1975 4.9575 2.1675C4.95395 2.09478 4.92472 2.02568 4.875 1.9725C4.81142 1.91128 4.727 1.87643 4.63875 1.875H3.3525C3.29265 1.87763 3.23506 1.89858 3.1875 1.935C3.12299 1.99047 3.08153 2.06804 3.07125 2.1525V11.7487H2.8725C2.80779 11.7519 2.74646 11.7786 2.7 11.8237C2.65361 11.8694 2.62672 11.9312 2.625 11.9962V13.5225C2.62672 13.5875 2.65361 13.6494 2.7 13.695C2.74646 13.7402 2.80779 13.7668 2.8725 13.77H3.0825C3.0825 13.77 3.0825 13.92 3.0825 13.9125V15.7387C3.09237 18.8281 5.53779 21.3596 8.625 21.4762C8.78072 21.6719 8.9581 21.8493 9.15375 22.005C9.35215 22.1487 9.58785 22.2321 9.8325 22.245C9.9074 22.2446 9.97952 22.2166 10.035 22.1663C10.082 22.1195 10.1089 22.0563 10.11 21.99V19.0762C10.1079 19.0113 10.0811 18.9496 10.035 18.9037C9.97971 18.8531 9.90747 18.825 9.8325 18.825C9.59227 18.8452 9.3612 18.9266 9.16125 19.0613C8.95577 19.2126 8.77489 19.3947 8.625 19.6012C6.56578 19.4996 4.94621 17.8042 4.93875 15.7425V14.2012C5.59102 15.6386 7.02408 16.5612 8.6025 16.56H9.66375C10.4236 16.562 11.1529 16.2613 11.6905 15.7244C12.2281 15.1875 12.5297 14.4586 12.5287 13.6987C12.5287 13.5279 12.6673 13.3894 12.8381 13.3894C13.009 13.3894 13.1475 13.5279 13.1475 13.6987C13.1578 15.2791 14.4396 16.5559 16.02 16.56H17.0812C18.8219 16.5629 20.3643 15.439 20.895 13.7812H21.1275C21.1922 13.7781 21.2535 13.7514 21.3 13.7062C21.3461 13.6604 21.3729 13.5987 21.375 13.5337V12.0262Z" fill="#323232"/>
</svg>
