<svg width="48" height="48" viewBox="0 0 48 48" fill="none" xmlns="http://www.w3.org/2000/svg">
<path d="M41.2499 10.16C41.2499 10.16 41.2099 10.1 41.1799 10.07C39.0199 7.41 36.2699 5.26999 33.1199 3.84C33.1099 3.84 33.0999 3.83 33.0899 3.83C30.3199 2.58 27.2399 1.87 24.0099 1.87C11.7999 1.88 1.87988 11.8 1.87988 24C1.87988 36.2 11.8099 46.12 23.9999 46.12C36.1899 46.12 46.1199 36.19 46.1199 24C46.1199 18.77 44.2899 13.96 41.2399 10.16H41.2499ZM39.3899 11.05C39.0299 13.29 37.3699 15.76 37.0799 16.16L36.5799 16.66C35.2499 18.02 33.4099 18.79 31.4699 18.79H31.4499C30.7899 18.81 29.8599 18.93 29.4099 19.67C28.9399 20.43 29.3099 21.23 29.6099 21.87C29.6899 22.04 29.7799 22.22 29.8399 22.41C29.8799 22.53 29.9199 22.64 29.9499 22.74C30.3399 23.96 30.7899 24.62 33.2599 25.31C33.3699 25.34 33.4399 25.37 33.4799 25.39C33.3699 26 31.9099 27.5 31.3399 28.08C31.1599 28.27 30.9899 28.44 30.8399 28.6C29.7199 29.78 29.8499 31.28 29.9299 32.26C29.9499 32.48 29.9799 32.8 29.9699 32.97C29.8499 33.04 29.6999 33.12 29.5399 33.19C28.6899 33.6 27.2799 34.29 27.1199 36.51C27.0099 38.02 26.3699 38.33 25.4499 38.34C24.7399 38.07 23.3899 35.01 23.5999 34.14C24.0599 32.19 23.6799 30.86 22.4799 30.21L22.3699 30.15C21.8199 29.85 21.7499 29.82 21.0599 27.92C20.1399 25.4 18.1499 26.05 16.9699 26.44C16.4599 26.61 15.9299 26.78 15.4499 26.8C15.2699 26.82 14.8599 26.55 14.5499 25.97C13.8399 24.63 13.7799 22.36 15.2799 20.31C17.1699 17.71 19.3399 17.34 22.0899 19.14C23.3699 19.98 24.9899 20.02 26.4199 19.25C28.0399 18.37 29.0499 16.69 29.0499 14.85C29.0499 12.64 27.3099 12.12 26.2699 11.82C25.1199 11.48 24.9599 11.35 24.9599 10.77C24.9599 9.33 26.9199 8.42 30.1099 7.06C30.9599 6.7 31.8399 6.31 32.7399 5.89C35.3099 7.13 37.5799 8.89 39.3999 11.05H39.3899ZM23.9999 44.12C12.8999 44.12 3.87988 35.09 3.87988 24C3.87988 12.91 12.8999 3.88 23.9999 3.88C26.1499 3.88 28.2199 4.23 30.1699 4.86C29.8799 4.98 29.5899 5.11 29.3099 5.23C25.8899 6.69 22.9499 7.95 22.9499 10.78C22.9499 12.93 24.6599 13.44 25.6799 13.74C26.8499 14.09 27.0299 14.24 27.0299 14.86C27.0299 15.95 26.4099 16.98 25.4499 17.5C24.6699 17.92 23.8399 17.91 23.1599 17.47C19.5299 15.09 16.1499 15.68 13.6399 19.13C11.6299 21.88 11.7499 25.02 12.7599 26.91C13.4099 28.14 14.4399 28.85 15.5099 28.8C16.2699 28.77 16.9599 28.54 17.5699 28.35C18.9099 27.92 18.9199 27.95 19.1599 28.62C19.9899 30.89 20.2799 31.32 21.3999 31.92L21.4999 31.98C21.8199 32.15 21.8599 32.73 21.6299 33.7C21.2999 35.09 22.3299 37.79 23.4299 39.18C24.0399 39.95 24.6899 40.34 25.3499 40.34C27.5999 40.34 28.9299 39.03 29.0899 36.66C29.1699 35.6 29.6499 35.36 30.3899 35C30.6999 34.85 31.0199 34.69 31.2999 34.47C32.0499 33.87 31.9699 32.93 31.8999 32.1C31.8199 31.14 31.7999 30.48 32.2699 29.98C32.4199 29.83 32.5799 29.66 32.7499 29.48C34.1799 28.01 35.8099 26.35 35.3999 24.83C35.2699 24.34 34.8799 23.7 33.7799 23.39C32.0799 22.91 32.0299 22.73 31.8399 22.14C31.7999 22.02 31.7599 21.88 31.7099 21.74C31.6199 21.5 31.5099 21.26 31.4099 21.03C31.3799 20.96 31.3399 20.89 31.3099 20.81C31.3599 20.81 31.4099 20.81 31.4799 20.8H31.5099C33.9399 20.8 36.3099 19.8 37.9999 18.07L38.5499 17.52C38.5499 17.52 38.6199 17.44 38.6499 17.4C38.7299 17.29 40.1099 15.38 40.9099 13.12C42.9299 16.26 44.1199 19.98 44.1199 23.99C44.1199 35.09 35.0899 44.11 23.9999 44.11V44.12Z" fill="#323232"/>
<path d="M20.6495 41.77C20.5895 41.77 20.5295 41.77 20.4795 41.75C9.37954 39.79 6.22954 28.65 6.09954 28.18C5.94954 27.65 6.26954 27.1 6.79954 26.95C7.32954 26.81 7.87954 27.12 8.02954 27.65C8.05954 27.75 10.9895 38.04 20.8295 39.78C21.3695 39.88 21.7395 40.39 21.6395 40.94C21.5495 41.43 21.1295 41.77 20.6595 41.77H20.6495Z" fill="#8DE2E0"/>
</svg>
