<svg width="48" height="48" viewBox="0 0 48 48" fill="none" xmlns="http://www.w3.org/2000/svg">
<path d="M18.2698 44.7405L22.4498 36.5405C22.5298 36.3905 22.4298 36.2205 22.2598 36.2005C17.9698 35.7905 14.1098 33.8805 11.2098 31.0005C11.0998 30.8905 10.9098 30.9105 10.8298 31.0605L7.07984 38.5205C6.99984 38.6805 7.11984 38.8805 7.30984 38.8605L13.9898 38.4405C14.0798 38.4405 14.1598 38.4805 14.2098 38.5605L17.8398 44.7605C17.9398 44.9205 18.1698 44.9105 18.2598 44.7505" fill="#8DE2E0"/>
<path d="M30.1395 44.7496L33.7695 38.5496C33.8195 38.4696 33.8995 38.4296 33.9895 38.4296L40.6695 38.8496C40.8495 38.8596 40.9795 38.6696 40.8995 38.5096L37.1595 31.0496C37.0895 30.9096 36.8995 30.8796 36.7795 30.9896C33.8795 33.8696 30.0195 35.7796 25.7295 36.1896C25.5595 36.2096 25.4695 36.3796 25.5395 36.5296L29.7195 44.7296C29.8095 44.8996 30.0395 44.8996 30.1395 44.7396" fill="#8DE2E0"/>
<path d="M18.0807 46.12C17.7307 46.12 17.4007 45.93 17.2207 45.63L13.6007 39.46L6.98073 39.88C6.62073 39.9 6.28073 39.73 6.08073 39.43C5.88073 39.13 5.86073 38.75 6.02073 38.43L9.65073 31.21C9.90073 30.72 10.5007 30.52 10.9907 30.77C11.4807 31.02 11.6807 31.62 11.4307 32.11L8.58073 37.77L14.0807 37.42C14.4607 37.39 14.8107 37.59 15.0107 37.91L18.0107 43.03L21.2507 36.67C21.5007 36.18 22.1007 35.98 22.6007 36.23C23.0907 36.48 23.2907 37.08 23.0407 37.58L18.9707 45.56C18.8007 45.89 18.4707 46.09 18.1107 46.1C18.1107 46.1 18.0907 46.1 18.0807 46.1V46.12Z" fill="#323232"/>
<path d="M29.9213 46.1195C29.9213 46.1195 29.9013 46.1195 29.8913 46.1195C29.5213 46.1095 29.1913 45.8995 29.0313 45.5795L24.9613 37.5995C24.7113 37.1095 24.9013 36.5095 25.4013 36.2495C25.8913 35.9995 26.4913 36.1895 26.7513 36.6895L29.9913 43.0495L32.9913 37.9295C33.1813 37.5995 33.5413 37.4095 33.9213 37.4395L39.4213 37.7895L36.5813 32.1295C36.3313 31.6395 36.5313 31.0395 37.0213 30.7895C37.5113 30.5395 38.1113 30.7395 38.3613 31.2295L41.9913 38.4495C42.1513 38.7695 42.1313 39.1495 41.9313 39.4495C41.7313 39.7495 41.3913 39.9195 41.0313 39.8995L34.4113 39.4795L30.7913 45.6495C30.6113 45.9595 30.2813 46.1395 29.9313 46.1395L29.9213 46.1195Z" fill="#323232"/>
<path d="M23.9988 34.4399C15.0188 34.4399 7.71875 27.1399 7.71875 18.1599C7.71875 9.17988 15.0188 1.87988 23.9988 1.87988C32.9788 1.87988 40.2787 9.17988 40.2787 18.1599C40.2787 27.1399 32.9788 34.4399 23.9988 34.4399ZM23.9988 3.87988C16.1188 3.87988 9.71875 10.2899 9.71875 18.1599C9.71875 26.0299 16.1288 32.4399 23.9988 32.4399C31.8688 32.4399 38.2787 26.0299 38.2787 18.1599C38.2787 10.2899 31.8787 3.87988 23.9988 3.87988Z" fill="#323232"/>
<path d="M30.489 15.3697H25.969L24.569 11.0697C24.389 10.5197 23.609 10.5197 23.429 11.0697L22.029 15.3697H17.509C16.929 15.3697 16.689 16.1097 17.159 16.4597L20.819 19.1197L19.419 23.4197C19.239 23.9697 19.869 24.4297 20.339 24.0897L23.999 21.4297L27.659 24.0897C28.129 24.4297 28.759 23.9697 28.579 23.4197L27.179 19.1197L30.839 16.4597C31.309 16.1197 31.069 15.3697 30.489 15.3697Z" fill="#DF0000"/>
</svg>
