<svg width="48" height="48" viewBox="0 0 48 48" fill="none" xmlns="http://www.w3.org/2000/svg">
<path d="M34.7995 19.2405C34.7995 18.6905 34.3495 18.2405 33.7995 18.2405H32.9395V12.7305C32.9395 12.1805 32.4895 11.7305 31.9395 11.7305H16.0495C15.4995 11.7305 15.0495 12.1805 15.0495 12.7305V18.2405H14.2695C13.7195 18.2405 13.2695 18.6905 13.2695 19.2405C13.2695 19.7905 13.7195 20.2405 14.2695 20.2405H15.0495V28.7205C15.0495 29.2705 15.4995 29.7205 16.0495 29.7205H31.9395C32.4895 29.7205 32.9395 29.2705 32.9395 28.7205V20.2405H33.7995C34.3495 20.2405 34.7995 19.7905 34.7995 19.2405ZM30.9395 27.7205H17.0495V13.7305H30.9395V27.7205Z" fill="#323232"/>
<path d="M13.1391 34.2695H10.0391C9.48906 34.2695 9.03906 34.7195 9.03906 35.2695C9.03906 35.8195 9.48906 36.2695 10.0391 36.2695H13.1391C13.6891 36.2695 14.1391 35.8195 14.1391 35.2695C14.1391 34.7195 13.6891 34.2695 13.1391 34.2695Z" fill="#323232"/>
<path d="M19.3305 34.2695H16.2305C15.6805 34.2695 15.2305 34.7195 15.2305 35.2695C15.2305 35.8195 15.6805 36.2695 16.2305 36.2695H19.3305C19.8805 36.2695 20.3305 35.8195 20.3305 35.2695C20.3305 34.7195 19.8805 34.2695 19.3305 34.2695Z" fill="#323232"/>
<path d="M8.65905 24.5601C8.19905 24.2501 7.57905 24.3601 7.26905 24.8201L5.51905 27.3701C5.20905 27.8301 5.31905 28.4501 5.77905 28.7601C5.94905 28.8801 6.14905 28.9401 6.33905 28.9401C6.65905 28.9401 6.96905 28.7901 7.16905 28.5101L8.91905 25.9601C9.22905 25.5001 9.11905 24.8801 8.65905 24.5701V24.5601Z" fill="#323232"/>
<path d="M3.65928 33.5997L5.40928 31.0497C5.71928 30.5897 5.60928 29.9697 5.14928 29.6597C4.68928 29.3497 4.06928 29.4597 3.75928 29.9197L2.00928 32.4697C1.69928 32.9297 1.80928 33.5497 2.26928 33.8597C2.43928 33.9797 2.63928 34.0397 2.82928 34.0397C3.14928 34.0397 3.45928 33.8897 3.65928 33.6097V33.5997Z" fill="#323232"/>
<path d="M37.3601 23.44C37.5501 23.72 37.8701 23.87 38.1901 23.87C38.3801 23.87 38.5801 23.81 38.7501 23.69C39.2101 23.38 39.3201 22.75 39.0101 22.3L37.2601 19.75C36.9501 19.3 36.3201 19.18 35.8701 19.49C35.4201 19.8 35.3001 20.43 35.6101 20.88L37.3601 23.43V23.44Z" fill="#323232"/>
<path d="M9.83905 23.8305C10.159 23.8305 10.469 23.6805 10.669 23.4005L12.419 20.8505C12.729 20.3905 12.619 19.7705 12.159 19.4605C11.699 19.1505 11.079 19.2605 10.769 19.7205L9.01905 22.2705C8.70905 22.7305 8.81905 23.3505 9.27905 23.6605C9.44905 23.7805 9.64905 23.8405 9.83905 23.8405V23.8305Z" fill="#323232"/>
<path d="M6.94961 34.2695H3.84961C3.29961 34.2695 2.84961 34.7195 2.84961 35.2695C2.84961 35.8195 3.29961 36.2695 3.84961 36.2695H6.94961C7.49961 36.2695 7.94961 35.8195 7.94961 35.2695C7.94961 34.7195 7.49961 34.2695 6.94961 34.2695Z" fill="#323232"/>
<path d="M25.5199 34.2695H22.4199C21.8699 34.2695 21.4199 34.7195 21.4199 35.2695C21.4199 35.8195 21.8699 36.2695 22.4199 36.2695H25.5199C26.0699 36.2695 26.5199 35.8195 26.5199 35.2695C26.5199 34.7195 26.0699 34.2695 25.5199 34.2695Z" fill="#323232"/>
<path d="M46.0206 32.5197L44.2706 29.9697C43.9606 29.5197 43.3306 29.3997 42.8806 29.7097C42.4206 30.0197 42.3106 30.6497 42.6206 31.0997L44.3706 33.6497C44.5606 33.9297 44.8806 34.0797 45.2006 34.0797C45.3906 34.0797 45.5906 34.0197 45.7606 33.8997C46.2206 33.5897 46.3306 32.9597 46.0206 32.5097V32.5197Z" fill="#323232"/>
<path d="M41.6908 28.9804C41.8808 28.9804 42.0808 28.9204 42.2508 28.8004C42.7108 28.4904 42.8208 27.8604 42.5108 27.4104L40.7608 24.8604C40.4508 24.4104 39.8308 24.2904 39.3708 24.6004C38.9108 24.9104 38.8008 25.5404 39.1108 25.9904L40.8608 28.5404C41.0508 28.8204 41.3708 28.9704 41.6908 28.9704V28.9804Z" fill="#323232"/>
<path d="M44.09 34.2695H41C40.45 34.2695 40 34.7195 40 35.2695C40 35.8195 40.45 36.2695 41 36.2695H44.09C44.64 36.2695 45.09 35.8195 45.09 35.2695C45.09 34.7195 44.64 34.2695 44.09 34.2695Z" fill="#323232"/>
<path d="M31.7094 34.2695H28.6094C28.0594 34.2695 27.6094 34.7195 27.6094 35.2695C27.6094 35.8195 28.0594 36.2695 28.6094 36.2695H31.7094C32.2594 36.2695 32.7094 35.8195 32.7094 35.2695C32.7094 34.7195 32.2594 34.2695 31.7094 34.2695Z" fill="#323232"/>
<path d="M37.9005 34.2695H34.8105C34.2605 34.2695 33.8105 34.7195 33.8105 35.2695C33.8105 35.8195 34.2605 36.2695 34.8105 36.2695H37.9005C38.4505 36.2695 38.9005 35.8195 38.9005 35.2695C38.9005 34.7195 38.4505 34.2695 37.9005 34.2695Z" fill="#323232"/>
</svg>
