<svg width="48" height="48" viewBox="0 0 48 48" fill="none" xmlns="http://www.w3.org/2000/svg">
<path d="M43.24 19.1399H41.09V15.0399C41.09 13.8699 40.14 12.9199 38.97 12.9199H4.87C3.7 12.9199 2.75 13.8699 2.75 15.0399V32.9599C2.75 34.1299 3.7 35.0799 4.87 35.0799H38.97C40.14 35.0799 41.09 34.1299 41.09 32.9599V28.8599H43.24C44.35 28.8599 45.25 27.9599 45.25 26.8499V21.1499C45.25 20.0399 44.35 19.1399 43.24 19.1399ZM39.09 32.9599C39.09 33.0299 39.04 33.0799 38.97 33.0799H4.87C4.8 33.0799 4.75 33.0299 4.75 32.9599V15.0399C4.75 14.9699 4.8 14.9199 4.87 14.9199H38.97C39.04 14.9199 39.09 14.9699 39.09 15.0399V32.9599ZM43.24 26.8599H41.09V21.1399H43.25L43.24 26.8599Z" fill="#323232"/>
<path d="M25.6495 22.6596C25.6095 22.5796 25.5295 22.5296 25.4395 22.5296L22.7795 22.5496L25.2195 18.1596C25.2595 18.0896 25.2595 17.9996 25.2195 17.9296C25.1795 17.8596 25.0995 17.8096 25.0195 17.8096H20.1095C19.9995 17.8096 19.9095 17.8796 19.8795 17.9896L18.1895 24.8396C18.1695 24.9096 18.1895 24.9796 18.2295 25.0396C18.2695 25.0996 18.3395 25.1296 18.4195 25.1296L20.8995 25.1096L19.6595 29.8796C19.6295 29.9896 19.6795 30.0996 19.7795 30.1496C19.8095 30.1696 19.8495 30.1696 19.8795 30.1696C19.9495 30.1696 20.0195 30.1396 20.0695 30.0796L25.6395 22.8996C25.6995 22.8296 25.7095 22.7296 25.6695 22.6496L25.6495 22.6596Z" fill="#DF0000"/>
</svg>
