<svg width="48" height="48" viewBox="0 0 48 48" fill="none" xmlns="http://www.w3.org/2000/svg">
<path d="M42.8508 5.5H5.15078C3.86078 5.5 2.80078 6.55 2.80078 7.85V32.08C2.80078 33.37 3.85078 34.43 5.15078 34.43H23.0008V40.51H17.2708C16.7208 40.51 16.2708 40.96 16.2708 41.51C16.2708 42.06 16.7208 42.51 17.2708 42.51H30.7308C31.2808 42.51 31.7308 42.06 31.7308 41.51C31.7308 40.96 31.2808 40.51 30.7308 40.51H25.0008V34.43H42.8508C44.1408 34.43 45.2008 33.38 45.2008 32.08V7.85C45.2008 6.56 44.1508 5.5 42.8508 5.5ZM43.1908 32.08C43.1908 32.27 43.0308 32.43 42.8408 32.43H5.15078C4.96078 32.43 4.80078 32.27 4.80078 32.08V7.85C4.80078 7.66 4.96078 7.5 5.15078 7.5H42.8408C43.0308 7.5 43.1908 7.66 43.1908 7.85V32.08Z" fill="#323232"/>
<path d="M40.1496 30.38H7.84961C7.29961 30.38 6.84961 29.93 6.84961 29.38V10.54C6.84961 9.99004 7.29961 9.54004 7.84961 9.54004H40.1596C40.7096 9.54004 41.1596 9.99004 41.1596 10.54V29.39C41.1596 29.94 40.7096 30.39 40.1596 30.39L40.1496 30.38ZM8.84961 28.38H39.1596V11.54H8.84961V28.39V28.38Z" fill="#323232"/>
<path fill-rule="evenodd" clip-rule="evenodd" d="M24.6904 13.3496H10.6504V22.4096L24.6904 13.3496Z" fill="#8DE2E0"/>
</svg>
