<svg width="24" height="24" viewBox="0 0 24 24" fill="none" xmlns="http://www.w3.org/2000/svg">
<g clip-path="url(#clip0_16335_9447)">
<path d="M23.4662 15.5402C25.4216 9.20783 21.8733 2.48927 15.5409 0.53391C9.20849 -1.42145 2.48993 2.12684 0.534573 8.45923C-1.42079 14.7916 2.1275 21.5102 8.4599 23.4655C14.7923 25.4209 21.5108 21.8726 23.4662 15.5402Z" fill="white"/>
<mask id="mask0_16335_9447" style="mask-type:luminance" maskUnits="userSpaceOnUse" x="-1" y="-1" width="26" height="26">
<path d="M23.4662 15.5402C25.4216 9.20783 21.8733 2.48927 15.5409 0.53391C9.20849 -1.42145 2.48993 2.12684 0.534573 8.45923C-1.42079 14.7916 2.1275 21.5102 8.4599 23.4655C14.7923 25.4209 21.5108 21.8726 23.4662 15.5402Z" fill="white"/>
</mask>
<g mask="url(#mask0_16335_9447)">
<path d="M29.9993 0H-6.00067V24H29.9993V0Z" fill="white"/>
<path fill-rule="evenodd" clip-rule="evenodd" d="M11.1462 19.1565C10.9254 19.2976 10.6641 19.38 10.3818 19.38C10.0995 19.38 9.83818 19.2976 9.61877 19.1565C9.83957 19.0153 10.1009 18.9329 10.3818 18.9329C10.6627 18.9329 10.9254 19.0153 11.1462 19.1565Z" fill="#076733"/>
<path fill-rule="evenodd" clip-rule="evenodd" d="M11.258 18.8461C11.0022 18.7902 10.7591 18.663 10.5592 18.4646C10.3594 18.2662 10.2336 18.0216 10.1777 17.7659C10.4335 17.8218 10.6766 17.9489 10.8765 18.1474C11.0749 18.3458 11.2021 18.5904 11.258 18.8461Z" fill="#076733"/>
<path fill-rule="evenodd" clip-rule="evenodd" d="M10.3859 18.6937C10.1358 18.7734 9.86189 18.7846 9.59079 18.7119C9.31828 18.6392 9.0877 18.4911 8.91162 18.2983C9.16037 18.2186 9.43567 18.206 9.70678 18.2801C9.97928 18.3528 10.2099 18.5009 10.3859 18.6937Z" fill="#076733"/>
<path fill-rule="evenodd" clip-rule="evenodd" d="M8.8166 18.4521C8.5958 18.5933 8.33448 18.6757 8.05219 18.6757C7.7699 18.6757 7.50858 18.5933 7.28778 18.4521C7.50858 18.311 7.7699 18.2285 8.05219 18.2285C8.33448 18.2285 8.5958 18.311 8.8166 18.4521Z" fill="#076733"/>
<path fill-rule="evenodd" clip-rule="evenodd" d="M9.3043 18.0231C9.04856 17.9672 8.8054 17.84 8.60557 17.6416C8.40713 17.4432 8.27996 17.1986 8.22406 16.9429C8.4798 16.9988 8.72295 17.1259 8.92279 17.3244C9.12123 17.5228 9.2484 17.7674 9.3043 18.0231Z" fill="#076733"/>
<path fill-rule="evenodd" clip-rule="evenodd" d="M8.56088 18.0453C8.29956 18.0579 8.03125 17.9978 7.78669 17.8567C7.54353 17.7155 7.35767 17.5143 7.23749 17.2809C7.49881 17.2683 7.76713 17.3284 8.01028 17.4682C8.25344 17.6093 8.4393 17.8106 8.55949 18.0439L8.56088 18.0453Z" fill="#076733"/>
<path fill-rule="evenodd" clip-rule="evenodd" d="M7.00968 17.246C6.75395 17.1901 6.51079 17.0629 6.31095 16.8645C6.11251 16.6661 5.98534 16.4215 5.92944 16.1658C6.18518 16.2217 6.42834 16.3488 6.62817 16.5473C6.82661 16.7457 6.95378 16.9903 7.00968 17.246Z" fill="#076733"/>
<path fill-rule="evenodd" clip-rule="evenodd" d="M7.55892 17.144C7.32555 17.0238 7.12431 16.838 6.98317 16.5948C6.84202 16.3517 6.78333 16.0833 6.79591 15.822C7.02928 15.9422 7.23052 16.1281 7.37166 16.3712C7.51281 16.6144 7.5715 16.8827 7.55892 17.144Z" fill="#076733"/>
<path fill-rule="evenodd" clip-rule="evenodd" d="M7.1844 17.6849C6.93566 17.7645 6.66036 17.7757 6.38925 17.703C6.11674 17.6304 5.88616 17.4822 5.71008 17.2894C5.95883 17.2097 6.23413 17.1986 6.50524 17.2712C6.77774 17.3439 7.00832 17.492 7.1844 17.6849Z" fill="#076733"/>
<path fill-rule="evenodd" clip-rule="evenodd" d="M5.9155 16.6073C5.65418 16.6199 5.38587 16.5598 5.14271 16.4187C4.89955 16.2775 4.71369 16.0763 4.59351 15.8429C4.85483 15.8304 5.12314 15.8904 5.3663 16.0302C5.60946 16.1713 5.79532 16.3726 5.9155 16.606V16.6073Z" fill="#076733"/>
<path fill-rule="evenodd" clip-rule="evenodd" d="M5.66396 15.9814C5.43059 15.8612 5.22935 15.6753 5.08821 15.4322C4.94707 15.189 4.88837 14.9207 4.90095 14.658C5.13433 14.7781 5.33556 14.964 5.4767 15.2072C5.61785 15.4503 5.67654 15.7186 5.66396 15.98V15.9814Z" fill="#076733"/>
<path fill-rule="evenodd" clip-rule="evenodd" d="M6.26761 16.0667C6.1111 15.9241 5.99091 15.7369 5.93222 15.5161C5.87353 15.2967 5.88331 15.0731 5.94759 14.8718C6.10411 15.0144 6.22429 15.2016 6.28298 15.4224C6.34168 15.6418 6.33189 15.864 6.26761 16.0667Z" fill="#076733"/>
<path fill-rule="evenodd" clip-rule="evenodd" d="M9.73335 18.1028C9.82139 18.1028 9.89266 18.0315 9.89266 17.9435C9.89266 17.8554 9.82139 17.7842 9.73335 17.7842C9.64531 17.7842 9.57404 17.8554 9.57404 17.9435C9.57404 18.0315 9.64531 18.1028 9.73335 18.1028Z" fill="#076733"/>
<path fill-rule="evenodd" clip-rule="evenodd" d="M9.19673 19.0977C9.28477 19.0977 9.35604 19.0264 9.35604 18.9384C9.35604 18.8503 9.28477 18.7791 9.19673 18.7791C9.10868 18.7791 9.03741 18.8503 9.03741 18.9384C9.03741 19.0264 9.10868 19.0977 9.19673 19.0977Z" fill="#076733"/>
<path fill-rule="evenodd" clip-rule="evenodd" d="M7.36323 18.167C7.45127 18.167 7.52254 18.0957 7.52254 18.0077C7.52254 17.9197 7.45127 17.8484 7.36323 17.8484C7.27519 17.8484 7.20392 17.9197 7.20392 18.0077C7.20392 18.0957 7.27519 18.167 7.36323 18.167Z" fill="#076733"/>
<path fill-rule="evenodd" clip-rule="evenodd" d="M7.87196 17.26C7.96 17.26 8.03127 17.1888 8.03127 17.1007C8.03127 17.0127 7.96 16.9414 7.87196 16.9414C7.78392 16.9414 7.71265 17.0127 7.71265 17.1007C7.71265 17.1888 7.78392 17.26 7.87196 17.26Z" fill="#076733"/>
<path fill-rule="evenodd" clip-rule="evenodd" d="M5.93086 17.1035C6.0189 17.1035 6.09017 17.0323 6.09017 16.9442C6.09017 16.8562 6.0189 16.7849 5.93086 16.7849C5.84282 16.7849 5.77155 16.8562 5.77155 16.9442C5.77155 17.0323 5.84282 17.1035 5.93086 17.1035Z" fill="#076733"/>
<path fill-rule="evenodd" clip-rule="evenodd" d="M12.4514 19.0208C12.485 19.0473 12.5185 19.0753 12.5507 19.1046C12.1244 19.303 11.7625 19.6175 11.5067 20.0074C11.3698 19.9165 11.2245 19.8397 11.0707 19.7768C11.4313 19.3911 11.9106 19.12 12.45 19.0221L12.4514 19.0208Z" fill="#076733"/>
<path fill-rule="evenodd" clip-rule="evenodd" d="M12.8539 19.1565C13.0747 19.2976 13.336 19.38 13.6169 19.38C13.8978 19.38 14.1605 19.2976 14.3813 19.1565C14.1605 19.0153 13.8992 18.9329 13.6169 18.9329C13.3346 18.9329 13.0733 19.0153 12.8539 19.1565Z" fill="#076733"/>
<path fill-rule="evenodd" clip-rule="evenodd" d="M12.7435 18.8461C12.9992 18.7902 13.2424 18.663 13.4422 18.4646C13.6406 18.2662 13.7678 18.0216 13.8237 17.7659C13.568 17.8218 13.3248 17.9489 13.125 18.1474C12.9265 18.3458 12.7994 18.5904 12.7435 18.8461Z" fill="#076733"/>
<path fill-rule="evenodd" clip-rule="evenodd" d="M13.6141 18.6937C13.8628 18.7734 14.1381 18.7846 14.4092 18.7119C14.6803 18.6392 14.9123 18.4911 15.0884 18.2983C14.8396 18.2186 14.5643 18.206 14.2932 18.2801C14.0221 18.3528 13.7902 18.5009 13.6141 18.6937Z" fill="#076733"/>
<path fill-rule="evenodd" clip-rule="evenodd" d="M15.1848 18.4521C15.4056 18.5933 15.6669 18.6757 15.9492 18.6757C16.2315 18.6757 16.4928 18.5933 16.7122 18.4521C16.4914 18.311 16.2301 18.2285 15.9492 18.2285C15.6683 18.2285 15.4056 18.311 15.1848 18.4521Z" fill="#076733"/>
<path fill-rule="evenodd" clip-rule="evenodd" d="M14.6957 18.0231C14.9515 17.9672 15.1946 17.84 15.3945 17.6416C15.5929 17.4432 15.7201 17.1986 15.776 16.9429C15.5202 16.9988 15.2771 17.1259 15.0772 17.3244C14.8788 17.5228 14.7516 17.7674 14.6957 18.0231Z" fill="#076733"/>
<path fill-rule="evenodd" clip-rule="evenodd" d="M15.4392 18.0453C15.7005 18.0579 15.9688 17.9978 16.212 17.8567C16.4552 17.7155 16.641 17.5143 16.7612 17.2809C16.4999 17.2683 16.2316 17.3284 15.9884 17.4682C15.7453 17.6093 15.5594 17.8106 15.4392 18.0439V18.0453Z" fill="#076733"/>
<path fill-rule="evenodd" clip-rule="evenodd" d="M16.9904 17.246C17.2461 17.1901 17.4893 17.0629 17.6891 16.8645C17.8875 16.6661 18.0147 16.4215 18.0706 16.1658C17.8149 16.2217 17.5717 16.3488 17.3719 16.5473C17.1734 16.7457 17.0463 16.9903 16.9904 17.246Z" fill="#076733"/>
<path fill-rule="evenodd" clip-rule="evenodd" d="M16.4412 17.144C16.6745 17.0238 16.8758 16.838 17.0169 16.5948C17.1581 16.3517 17.2168 16.0833 17.2042 15.822C16.9708 15.9422 16.7696 16.1281 16.6284 16.3712C16.4873 16.6144 16.4286 16.8827 16.4412 17.144Z" fill="#076733"/>
<path fill-rule="evenodd" clip-rule="evenodd" d="M16.8157 17.6849C17.0644 17.7645 17.3397 17.7757 17.6108 17.703C17.8819 17.6304 18.1139 17.4822 18.29 17.2894C18.0399 17.2097 17.7659 17.1986 17.4948 17.2712C17.2237 17.3439 16.9918 17.492 16.8157 17.6849Z" fill="#076733"/>
<path fill-rule="evenodd" clip-rule="evenodd" d="M18.0846 16.6073C18.3459 16.6199 18.6142 16.5598 18.8574 16.4187C19.1005 16.2775 19.2864 16.0763 19.4066 15.8429C19.1453 15.8304 18.877 15.8904 18.6338 16.0302C18.3906 16.1713 18.2048 16.3726 18.0846 16.606V16.6073Z" fill="#076733"/>
<path fill-rule="evenodd" clip-rule="evenodd" d="M18.3375 15.9814C18.5709 15.8612 18.7721 15.6753 18.9133 15.4322C19.0544 15.189 19.1131 14.9207 19.1005 14.658C18.8672 14.7781 18.6659 14.964 18.5248 15.2072C18.3836 15.4503 18.325 15.7186 18.3375 15.98V15.9814Z" fill="#076733"/>
<path fill-rule="evenodd" clip-rule="evenodd" d="M17.7324 16.0667C17.8889 15.9241 18.0091 15.7369 18.0678 15.5161C18.1265 15.2967 18.1167 15.0731 18.0524 14.8718C17.8959 15.0144 17.7757 15.2016 17.7171 15.4224C17.6584 15.6418 17.6667 15.864 17.7324 16.0667Z" fill="#076733"/>
<path fill-rule="evenodd" clip-rule="evenodd" d="M14.2681 18.1028C14.3562 18.1028 14.4274 18.0315 14.4274 17.9435C14.4274 17.8554 14.3562 17.7842 14.2681 17.7842C14.1801 17.7842 14.1088 17.8554 14.1088 17.9435C14.1088 18.0315 14.1801 18.1028 14.2681 18.1028Z" fill="#076733"/>
<path fill-rule="evenodd" clip-rule="evenodd" d="M14.8034 19.0977C14.8914 19.0977 14.9627 19.0264 14.9627 18.9384C14.9627 18.8503 14.8914 18.7791 14.8034 18.7791C14.7153 18.7791 14.644 18.8503 14.644 18.9384C14.644 19.0264 14.7153 19.0977 14.8034 19.0977Z" fill="#076733"/>
<path fill-rule="evenodd" clip-rule="evenodd" d="M16.6382 18.167C16.7262 18.167 16.7975 18.0957 16.7975 18.0077C16.7975 17.9197 16.7262 17.8484 16.6382 17.8484C16.5502 17.8484 16.4789 17.9197 16.4789 18.0077C16.4789 18.0957 16.5502 18.167 16.6382 18.167Z" fill="#076733"/>
<path d="M16.1281 17.26C16.2161 17.26 16.2874 17.1887 16.2874 17.1007C16.2874 17.0127 16.2161 16.9414 16.1281 16.9414C16.0401 16.9414 15.9688 17.0127 15.9688 17.1007C15.9688 17.1887 16.0401 17.26 16.1281 17.26Z" fill="#076733"/>
<path fill-rule="evenodd" clip-rule="evenodd" d="M18.0692 17.1035C18.1573 17.1035 18.2285 17.0323 18.2285 16.9442C18.2285 16.8562 18.1573 16.7849 18.0692 16.7849C17.9812 16.7849 17.9099 16.8562 17.9099 16.9442C17.9099 17.0323 17.9812 17.1035 18.0692 17.1035Z" fill="#076733"/>
<path fill-rule="evenodd" clip-rule="evenodd" d="M11.55 19.0208C11.5165 19.0473 11.4829 19.0753 11.4494 19.1046C11.8756 19.303 12.2376 19.6175 12.4933 20.0074C12.6303 19.9165 12.7756 19.8397 12.9293 19.7768C12.5688 19.3911 12.0894 19.12 11.55 19.0221V19.0208Z" fill="#076733"/>
<path fill-rule="evenodd" clip-rule="evenodd" d="M17.5619 5.9978C17.0085 6.74544 16.1197 7.23036 15.1192 7.23036C14.9948 7.23036 14.8718 7.22198 14.7502 7.208C13.751 7.63982 12.6498 7.87878 11.4927 7.87878C10.4363 7.87878 9.4273 7.67895 8.49938 7.31701V7.61886C8.62236 7.8131 8.69363 8.05347 8.69363 8.31479C8.69363 8.95902 8.25203 9.48028 7.70842 9.48028C7.42893 9.48028 7.17599 9.34193 6.99711 9.12113L6.48285 8.98278L5.63738 9.47049C5.5186 9.95681 5.13989 10.3132 4.6913 10.3132C4.34333 10.3132 4.03869 10.1007 3.86261 9.77794L3.74103 10.2307C3.94226 10.4124 4.06943 10.6821 4.06943 10.9839C4.06943 11.1013 4.04987 11.2131 4.01493 11.3179L4.32656 11.8588C4.62842 11.9133 4.859 12.1774 4.859 12.4946C4.859 12.5826 4.84083 12.6679 4.80869 12.7447L5.41239 13.0927L7.21092 13.5748C7.36464 13.4421 7.56588 13.361 7.78528 13.361C8.24924 13.361 8.62935 13.7216 8.66149 14.1785H9.02343C9.04579 13.5539 9.55866 13.0536 10.1889 13.0536C10.5187 13.0536 10.8164 13.1905 11.0288 13.4099L13.5847 11.9342C13.575 11.8797 13.5694 11.8224 13.5694 11.7651C13.5694 11.2537 13.983 10.84 14.4945 10.84C14.7684 10.84 15.0143 10.9588 15.1834 11.1474H15.428C15.5971 10.9225 15.8654 10.7771 16.1686 10.7771C16.3727 10.7771 16.5599 10.8428 16.7137 10.9546L16.9261 10.5871L15.7019 9.36289C15.5482 9.21895 15.4518 9.01352 15.4518 8.78713C15.4518 8.35252 15.8053 7.99897 16.2399 7.99897C16.3881 7.99897 16.5264 8.03949 16.6438 8.11076L16.6661 8.0884C16.9792 7.33238 17.6765 6.77479 18.5136 6.6574L19.3157 5.85526C19.5785 5.58695 19.8999 5.3955 20.2534 5.29907V4.90918L19.0935 5.57856C18.6352 5.8315 18.1139 5.98103 17.5577 5.9992L17.5619 5.9978Z" fill="#CC9933"/>
</g>
</g>
<rect x="0.25" y="0.25" width="23.5" height="23.5" rx="11.75" stroke="#E5E3E1" stroke-width="0.5"/>
<defs>
<clipPath id="clip0_16335_9447">
<rect width="24" height="24" rx="12" fill="white"/>
</clipPath>
</defs>
</svg>
