<svg width="24" height="24" viewBox="0 0 24 24" fill="none" xmlns="http://www.w3.org/2000/svg">
<g clip-path="url(#clip0_16335_6510)">
<path d="M14.2689 23.7839C20.7768 22.5307 25.0365 16.2391 23.7833 9.7313C22.5301 3.22345 16.2385 -1.03628 9.73065 0.216939C3.2228 1.47015 -1.03693 7.76174 0.216289 14.2696C1.4695 20.7774 7.76109 25.0372 14.2689 23.7839Z" fill="white"/>
<mask id="mask0_16335_6510" style="mask-type:luminance" maskUnits="userSpaceOnUse" x="-1" y="-1" width="26" height="26">
<path d="M14.2689 23.7839C20.7768 22.5307 25.0365 16.2391 23.7833 9.7313C22.5301 3.22345 16.2385 -1.03628 9.73065 0.216939C3.2228 1.47015 -1.03693 7.76174 0.216289 14.2696C1.4695 20.7774 7.76109 25.0372 14.2689 23.7839Z" fill="white"/>
</mask>
<g mask="url(#mask0_16335_6510)">
<path d="M29.9979 0H-6.00208V24H29.9979V0Z" fill="#003399"/>
<path fill-rule="evenodd" clip-rule="evenodd" d="M3.87517 5.10632L4.20497 6.12507L5.27682 6.12367L4.409 6.75253L4.7416 7.76988L3.87517 7.13823L3.01014 7.76988L3.34274 6.75253L2.47491 6.12367L3.54677 6.12507L3.87517 5.10632Z" fill="white"/>
<path fill-rule="evenodd" clip-rule="evenodd" d="M20.1207 5.10632L20.4505 6.12507L21.5223 6.12367L20.6545 6.75253L20.9871 7.76988L20.1207 7.13823L19.2556 7.76988L19.5882 6.75253L18.7204 6.12367L19.7909 6.12507L20.1207 5.10632Z" fill="white"/>
<path fill-rule="evenodd" clip-rule="evenodd" d="M16.9484 3.9618L17.2768 4.98195L18.3487 4.98055L17.4808 5.60801L17.8134 6.62676L16.9484 5.99511L16.082 6.62676L16.4146 5.60801L15.5468 4.98055L16.6186 4.98195L16.9484 3.9618Z" fill="white"/>
<path fill-rule="evenodd" clip-rule="evenodd" d="M7.04882 3.9618L7.37862 4.98195L8.45047 4.98055L7.58265 5.60801L7.91524 6.62676L7.04882 5.99511L6.18379 6.62676L6.51638 5.60801L5.64856 4.98055L6.71902 4.98195L7.04882 3.9618Z" fill="white"/>
<path fill-rule="evenodd" clip-rule="evenodd" d="M10.3133 3.40562L10.6417 4.42437L11.7135 4.42297L10.8457 5.05183L11.1783 6.06918L10.3133 5.43753L9.44685 6.06918L9.77944 5.05183L8.91162 4.42297L9.98347 4.42437L10.3133 3.40562Z" fill="white"/>
<path fill-rule="evenodd" clip-rule="evenodd" d="M13.6839 3.40562L14.0137 4.42437L15.0856 4.42297L14.2178 5.05183L14.5504 6.06918L13.6839 5.43753L12.8175 6.06918L13.1501 5.05183L12.2837 4.42297L13.3541 4.42437L13.6839 3.40562Z" fill="white"/>
<path fill-rule="evenodd" clip-rule="evenodd" d="M15.8319 17.0071H15.5384V17.404L15.0409 17.9015L15.2673 18.1279V18.3319L15.0591 18.4521H14.6035L14.3296 18.2942V17.9616L13.7091 17.3411L13.0467 18.0035H12.5017L12.0196 18.4856H11.4033L11.0959 19.0194V19.3758L11.2678 19.5477V20.048L10.6794 20.6363H9.85075L9.6579 19.9194L10.0352 19.5421L9.35744 17.0127L8.03125 16.2469H7.34091V15.5859L6.74 14.5448L6.28582 14.2835L6.06922 13.4771L6.31517 13.0509L5.35791 12.7952L5.53958 12.1188L5.97838 11.8658L6.72183 12.0657H7.17181L7.43035 11.6185L9.45806 11.0749L9.06398 10.6808L9.17158 10.2783L9.62715 10.1567L9.73196 9.76266H10.3371V9.20228L10.6403 9.12123L10.5383 8.74112H10.1987L10.0757 8.28415L10.2029 7.80622L11.6828 7.40934L11.9847 7.58262L12.1342 8.14301L11.68 8.26459L12.6233 8.8096H13.3416V8.60417H13.8251L14.1507 9.81717L14.3827 9.58519L14.6329 9.83533V10.4195C14.6329 10.5355 14.7265 10.6291 14.8425 10.6291V10.7577H15.4364V11.0441H16.0555V11.3013L15.8319 11.6884V12.1984H17.2657V12.6442L17.6234 12.8511L18.3417 12.6582L18.638 13.1711L18.3054 13.7468V14.2429L17.4627 15.0856L17.6919 15.3148L17.4292 15.7704H16.6801L17.3523 16.933H16.5628L16.4328 16.708H16.0066L16.1156 17.1161H15.9381L15.8319 17.0099V17.0071Z" fill="#C09300"/>
</g>
</g>
<rect x="0.25" y="0.25" width="23.5" height="23.5" rx="11.75" stroke="#E5E3E1" stroke-width="0.5"/>
<defs>
<clipPath id="clip0_16335_6510">
<rect width="24" height="24" rx="12" fill="white"/>
</clipPath>
</defs>
</svg>
