<svg width="24" height="24" viewBox="0 0 24 24" fill="none" xmlns="http://www.w3.org/2000/svg">
<g clip-path="url(#clip0_10496_9594)">
<path d="M10.4997 10.0129C11.3281 10.0129 11.9997 9.34128 11.9997 8.51285C11.9997 7.68443 11.3281 7.01285 10.4997 7.01285C9.67127 7.01285 8.99969 7.68443 8.99969 8.51285C8.99969 9.34128 9.67127 10.0129 10.4997 10.0129Z" fill="#323232"/>
<path d="M8.49969 15.0129C9.32812 15.0129 9.99969 14.3413 9.99969 13.5129C9.99969 12.6844 9.32812 12.0129 8.49969 12.0129C7.67127 12.0129 6.99969 12.6844 6.99969 13.5129C6.99969 14.3413 7.67127 15.0129 8.49969 15.0129Z" fill="#323232"/>
<path d="M14.9997 16.0129C15.552 16.0129 15.9997 15.5651 15.9997 15.0129C15.9997 14.4606 15.552 14.0129 14.9997 14.0129C14.4474 14.0129 13.9997 14.4606 13.9997 15.0129C13.9997 15.5651 14.4474 16.0129 14.9997 16.0129Z" fill="#323232"/>
<path d="M21.9497 11.0029C20.1597 10.9729 18.2497 9.05285 19.2697 6.78285C16.2997 7.78285 13.4897 5.19285 14.0797 2.22285C7.10969 0.752854 1.99969 6.42285 1.99969 12.0129C1.99969 17.5329 6.47969 22.0129 11.9997 22.0129C17.8897 22.0129 22.5397 16.9329 21.9497 11.0029ZM11.9997 20.0129C7.58969 20.0129 3.99969 16.4229 3.99969 12.0129C3.99969 8.70285 6.72969 3.83285 12.0797 3.99285C12.4997 6.53285 14.5197 8.55285 17.0697 8.93285C17.1397 9.29285 17.5897 11.4829 19.9897 12.5629C19.6997 16.8729 16.0597 20.0129 11.9997 20.0129Z" fill="#323232"/>
</g>
<defs>
<clipPath id="clip0_10496_9594">
<rect width="24" height="24" fill="white"/>
</clipPath>
</defs>
</svg>
