<svg width="24" height="24" viewBox="0 0 24 24" fill="none" xmlns="http://www.w3.org/2000/svg">
<path fill-rule="evenodd" clip-rule="evenodd" d="M14.5379 4L15.9522 5.41421L7.49093 13.8754L6.07672 12.4612L6.08862 12.4493L4 10.3607L5.41421 8.94649L7.50283 11.0351L14.5379 4ZM18.268 13.085C18.268 13.938 17.678 14.468 16.729 14.468H15.489V11.767H16.729C17.678 11.767 18.268 12.272 18.268 13.085ZM18.45 15.499C19.363 15.029 19.883 14.151 19.883 13.072C19.883 11.46 18.634 10.334 16.846 10.334H13.9V19.125H15.489V15.888H16.755C16.802 15.888 16.85 15.888 16.896 15.885L18.2 19.048L18.232 19.125H19.972L18.45 15.499Z" fill="#323232"/>
</svg>
