<svg width="48" height="48" viewBox="0 0 48 48" fill="none" xmlns="http://www.w3.org/2000/svg">
<path d="M34.8293 20.6C39.6894 20.6 43.6293 16.6601 43.6293 11.8C43.6293 6.93989 39.6894 3 34.8293 3C29.9692 3 26.0293 6.93989 26.0293 11.8C26.0293 16.6601 29.9692 20.6 34.8293 20.6Z" fill="#DF0000"/>
<path d="M28.9805 14.2302C28.9805 13.4002 29.2005 12.7502 30.0305 12.1802L30.9805 11.5602C31.3705 11.3002 31.6505 10.9502 31.6505 10.4602C31.6505 10.0102 31.3505 9.70016 30.7805 9.70016C30.2105 9.70016 29.8805 10.0402 29.8805 10.5302V10.6902H29.0305V10.5302C29.0305 9.57016 29.7505 8.91016 30.8105 8.91016C31.8705 8.91016 32.5705 9.48016 32.5705 10.4402C32.5705 11.1702 32.2105 11.7002 31.5605 12.1302L30.5405 12.8202C30.0605 13.1502 29.9805 13.5302 29.9605 13.7902H32.5705V14.6002H28.9905V14.2302H28.9805Z" fill="white"/>
<path d="M36.9696 12.9099C36.9696 13.9999 36.2396 14.6799 35.1596 14.6799C34.0796 14.6799 33.3496 13.9999 33.3496 12.9099V10.6899C33.3496 9.59992 34.0196 8.91992 35.1596 8.91992C36.2296 8.91992 36.9696 9.59992 36.9696 10.6899V12.9099ZM34.2496 12.9199C34.2496 13.4899 34.5796 13.8899 35.1696 13.8899C35.7596 13.8899 36.0996 13.4899 36.0996 12.9199V10.6799C36.0996 10.1099 35.7596 9.70992 35.1696 9.70992C34.5796 9.70992 34.2496 10.1099 34.2496 10.6799V12.9199Z" fill="white"/>
<path d="M39.3008 10.5499C39.3008 10.9599 39.0208 11.2699 38.5508 11.2699C38.0808 11.2699 37.8008 10.9699 37.8008 10.5499V9.84988C37.8008 9.43988 38.0808 9.12988 38.5508 9.12988C39.0208 9.12988 39.3008 9.42988 39.3008 9.84988V10.5499ZM40.4508 9.19988H40.9608L39.7408 11.2599L38.5708 13.3199H38.0608L39.2808 11.2599L40.4508 9.19988ZM38.2408 10.5499C38.2408 10.7399 38.3508 10.8799 38.5508 10.8799C38.7508 10.8799 38.8608 10.7399 38.8608 10.5499V9.84988C38.8608 9.65988 38.7508 9.51988 38.5508 9.51988C38.3508 9.51988 38.2408 9.65988 38.2408 9.84988V10.5499ZM41.2108 12.6699C41.2108 13.0799 40.9308 13.3899 40.4608 13.3899C39.9908 13.3899 39.7108 13.0899 39.7108 12.6699V11.9699C39.7108 11.5599 39.9908 11.2499 40.4608 11.2499C40.9308 11.2499 41.2108 11.5499 41.2108 11.9699V12.6699ZM40.1608 12.6699C40.1608 12.8599 40.2708 12.9999 40.4708 12.9999C40.6708 12.9999 40.7808 12.8599 40.7808 12.6699V11.9699C40.7808 11.7799 40.6708 11.6399 40.4708 11.6399C40.2708 11.6399 40.1608 11.7799 40.1608 11.9699V12.6699Z" fill="white"/>
<path d="M16.6602 5.34961V21.0696L22.9702 27.3196V6.22961L21.3602 5.34961H16.6602Z" fill="#8DE2E0"/>
<path d="M29.5091 22.2896L24.1191 17.0396V6.92961C24.1191 5.50961 22.9591 4.34961 21.5391 4.34961H5.94914C4.52914 4.34961 3.36914 5.50961 3.36914 6.92961V31.9396C3.36914 33.3596 4.52914 34.5196 5.94914 34.5196H10.1991C10.2391 35.7196 10.4091 37.6796 11.0591 39.0296C11.9491 40.8696 12.6891 41.8396 13.2291 42.5396C13.8891 43.4096 14.1191 43.6996 14.1191 44.9696C14.1191 45.5196 14.5691 45.9696 15.1191 45.9696C15.6691 45.9696 16.1191 45.5196 16.1191 44.9696C16.1191 43.0196 15.5791 42.2996 14.8191 41.3196C14.2991 40.6496 13.6591 39.8096 12.8591 38.1496C12.4091 37.2096 12.2491 35.6296 12.2091 34.5096H15.5491C15.9991 36.3196 17.1591 38.7096 19.9891 41.0796C20.1791 41.2396 20.3991 41.3096 20.6291 41.3096C20.9191 41.3096 21.1991 41.1896 21.3991 40.9496C21.7491 40.5296 21.6991 39.8996 21.2791 39.5396C19.0191 37.6496 17.6991 35.5596 17.3591 33.3496C17.1191 31.7596 17.4991 30.6696 17.4991 30.6696C17.6391 30.2996 17.5491 29.8796 17.2691 29.6096L11.4191 23.8096C10.5091 22.9096 10.4991 21.4296 11.3991 20.5196C11.8391 20.0796 12.4191 19.8296 13.0391 19.8296H13.0491C13.6691 19.8296 14.2491 20.0696 14.6891 20.4996L22.4091 28.1496L25.3191 31.0396C25.5091 31.2296 25.7691 31.3296 26.0191 31.3296C26.2691 31.3296 26.5391 31.2296 26.7291 31.0296C27.1191 30.6396 27.1191 29.9996 26.7291 29.6196L24.1191 27.0296V19.8096L28.1191 23.6996C29.3891 24.9296 30.1091 26.6496 30.1091 28.4196V44.9696C30.1091 45.5196 30.5591 45.9696 31.1091 45.9696C31.6591 45.9696 32.1091 45.5196 32.1091 44.9696V28.4196C32.1091 26.1196 31.1591 23.8796 29.5091 22.2696V22.2896ZM22.1191 6.92961V25.0696L17.4391 20.4396V6.34961H21.5391C21.8591 6.34961 22.1191 6.60961 22.1191 6.92961ZM9.97914 19.1296C8.29914 20.8296 8.30914 23.5696 10.0091 25.2496L15.4491 30.6396C15.3591 31.0796 15.2691 31.7296 15.2891 32.5196H5.94914C5.62914 32.5196 5.36914 32.2596 5.36914 31.9396V6.91961C5.36914 6.59961 5.62914 6.33961 5.94914 6.33961H15.4391V18.5596C13.7491 17.4396 11.4491 17.6196 9.96914 19.1196L9.97914 19.1296Z" fill="#323232"/>
</svg>
