<svg width="24" height="24" viewBox="0 0 24 24" fill="none" xmlns="http://www.w3.org/2000/svg">
<g clip-path="url(#clip0_16335_2040)">
<path d="M20.4851 20.4853C25.1714 15.799 25.1714 8.20101 20.4851 3.51472C15.7988 -1.17157 8.20081 -1.17157 3.51452 3.51472C-1.17177 8.20101 -1.17177 15.799 3.51452 20.4853C8.20081 25.1716 15.7988 25.1716 20.4851 20.4853Z" fill="#003399"/>
<mask id="mask0_16335_2040" style="mask-type:luminance" maskUnits="userSpaceOnUse" x="-1" y="0" width="25" height="24">
<path d="M20.4851 20.4853C25.1714 15.799 25.1714 8.20101 20.4851 3.51472C15.7988 -1.17157 8.20081 -1.17157 3.51452 3.51472C-1.17177 8.20101 -1.17177 15.799 3.51452 20.4853C8.20081 25.1716 15.7988 25.1716 20.4851 20.4853Z" fill="white"/>
</mask>
<g mask="url(#mask0_16335_2040)">
<path fill-rule="evenodd" clip-rule="evenodd" d="M12.3829 10.7661H20.4756V15.3386C20.4756 17.9728 18.9342 20.3569 16.5432 21.4441L16.43 21.4958L16.3168 21.4441C13.9257 20.3569 12.3843 17.9742 12.3843 15.3386V10.7661H12.3829Z" fill="white"/>
<path fill-rule="evenodd" clip-rule="evenodd" d="M12.6582 11.0415V15.3387C12.6582 17.9408 14.2052 20.1823 16.4285 21.1927C18.6533 20.1823 20.1989 17.9408 20.1989 15.3387V11.0415H12.6568H12.6582Z" fill="#FED700"/>
<path fill-rule="evenodd" clip-rule="evenodd" d="M14.9081 12.2124C14.9235 12.1593 14.9515 12.1104 14.9892 12.0727C15.0465 12.0154 15.1275 11.979 15.2156 11.979H15.34C15.4126 11.979 15.4783 12.0084 15.5258 12.0573C15.5733 12.1048 15.6041 12.1719 15.6041 12.2446V12.6526C15.6041 12.7183 15.6362 12.7714 15.6907 12.8077C15.748 12.8469 15.783 12.9112 15.783 12.9796V13.5596C15.783 13.853 15.7103 14.1283 15.5831 14.3715C15.4518 14.6216 15.2617 14.8369 15.0311 14.9962C15.0283 15.0423 14.9892 15.0786 14.9431 15.0786C14.9375 15.0786 14.9333 15.0786 14.9277 15.0786C14.9207 15.0786 14.9151 15.0786 14.9095 15.0786C14.8732 15.0786 14.8397 15.094 14.8145 15.1177C14.7908 15.1415 14.7754 15.175 14.7754 15.2114V15.2281C14.7754 15.2771 14.7363 15.3162 14.6873 15.3162C14.6482 15.3162 14.6147 15.291 14.6021 15.2533C14.5686 15.1387 14.5029 15.0381 14.4176 14.9584C14.3324 14.8802 14.2276 14.8243 14.1102 14.7991C14.0683 14.7907 14.0375 14.7502 14.0375 14.7083V14.5643L13.8 14.4274C13.765 14.4078 13.7427 14.3757 13.7329 14.3408C13.7287 14.3226 13.7273 14.3044 13.7287 14.2849C13.7133 14.296 13.6965 14.3044 13.6784 14.3086C13.6434 14.3184 13.6043 14.3142 13.5694 14.2946L13.2004 14.0822C13.1669 14.0627 13.1432 14.0305 13.1334 13.9956C13.1236 13.9606 13.1278 13.9215 13.1473 13.8866L13.1543 13.874L12.9852 13.5819C12.9657 13.5484 12.9615 13.5093 12.9713 13.4743C12.981 13.4394 13.0034 13.4072 13.0383 13.3877L13.6365 13.0425C13.6532 13.0327 13.6672 13.0202 13.6756 13.0034C13.6854 12.988 13.6896 12.9684 13.6896 12.9489C13.6896 12.9195 13.677 12.893 13.6588 12.8734C13.6393 12.8539 13.6127 12.8413 13.5834 12.8413H13.2745C13.2242 12.8413 13.1837 12.8008 13.1837 12.7504C13.1837 12.7001 13.2242 12.6596 13.2745 12.6596H13.758C13.8251 12.6596 13.8796 12.6051 13.8796 12.538C13.8796 12.471 13.8251 12.4164 13.758 12.4164C13.6938 12.4164 13.6406 12.3633 13.6406 12.2991C13.6406 12.2613 13.6588 12.2264 13.6896 12.204H13.6798C13.6155 12.204 13.5624 12.1509 13.5624 12.0866C13.5624 12.0489 13.5806 12.014 13.6113 11.9916H13.6015C13.5372 11.9916 13.4841 11.9385 13.4841 11.8742C13.4841 11.8421 13.4967 11.8127 13.5191 11.7918C13.5233 11.7876 13.5275 11.7834 13.533 11.7792H13.5233C13.459 11.7792 13.4059 11.7261 13.4059 11.6618C13.4059 11.5975 13.459 11.5444 13.5233 11.5444H13.7399C13.8042 11.5444 13.8573 11.5975 13.8573 11.6618C13.8573 11.6996 13.8391 11.7345 13.8083 11.7568H13.9355C13.9998 11.7568 14.0529 11.81 14.0529 11.8742C14.0529 11.912 14.0347 11.9469 14.004 11.9693H14.1228C14.1871 11.9693 14.2402 12.0224 14.2402 12.0866C14.2402 12.1244 14.222 12.1593 14.1912 12.1817H14.3324C14.3967 12.1817 14.4498 12.2348 14.4498 12.2991C14.4498 12.3312 14.4372 12.3606 14.4148 12.3815C14.4106 12.3857 14.4065 12.3899 14.4009 12.3941H14.6608C14.7181 12.3941 14.7698 12.3759 14.8117 12.3438C14.855 12.3116 14.8872 12.2655 14.904 12.2124H14.9081Z" fill="black"/>
<path fill-rule="evenodd" clip-rule="evenodd" d="M14.4526 14.0347L14.0836 14.4036C14.0697 14.4162 14.0627 14.4343 14.0627 14.4539V14.7068C14.0627 14.7404 14.085 14.7683 14.1172 14.7753C14.2388 14.8019 14.3478 14.8592 14.4358 14.9402C14.5238 15.0213 14.5909 15.1261 14.6259 15.2449C14.6342 15.2728 14.6608 15.291 14.6887 15.291C14.7251 15.291 14.7544 15.2616 14.7544 15.2253V15.2085C14.7544 15.1652 14.7726 15.1261 14.8005 15.0981C14.8229 15.0758 14.8522 15.0604 14.8844 15.0548C14.8662 15.038 14.855 15.0157 14.855 14.9891V14.9179C14.855 14.8256 14.8383 14.739 14.8061 14.6579C14.774 14.5741 14.7209 14.4888 14.6566 14.4246C14.5895 14.3575 14.5364 14.2792 14.4987 14.1912C14.4777 14.1409 14.461 14.0892 14.4512 14.0347H14.4526Z" fill="#FF9966"/>
<path fill-rule="evenodd" clip-rule="evenodd" d="M13.9187 13.9383C13.9187 13.9383 13.9285 13.9313 13.9341 13.9341C13.9397 13.9369 13.9411 13.9439 13.9383 13.9495L13.7678 14.243C13.7524 14.2709 13.7482 14.3045 13.7566 14.3338C13.765 14.3631 13.7846 14.3911 13.8125 14.4079L14.0389 14.5392V14.4554C14.0389 14.4302 14.0487 14.4065 14.0668 14.3897L14.4469 14.0096C14.4414 13.9746 14.44 13.9411 14.44 13.9048C14.44 13.7678 14.4777 13.6407 14.542 13.5317C14.6091 13.4185 14.7041 13.3248 14.8187 13.2605C14.8257 13.2564 14.8313 13.2522 14.8368 13.2466H14.5881C14.5224 13.2466 14.4581 13.2019 14.4414 13.1376C14.4246 13.0817 14.3743 13.0439 14.3156 13.0439H13.99C13.9243 13.0439 13.86 12.9992 13.8432 12.9349C13.8265 12.879 13.7762 12.8413 13.7175 12.8413H13.6616C13.6616 12.8413 13.6742 12.8511 13.6811 12.8567C13.7049 12.8804 13.7189 12.9126 13.7189 12.9489C13.7189 12.9727 13.7119 12.995 13.7007 13.0146C13.6895 13.0342 13.6728 13.0509 13.6532 13.0621L13.0551 13.4073C13.0257 13.4241 13.0062 13.4506 12.9992 13.4813C12.9908 13.5107 12.995 13.5442 13.0104 13.5722L13.1725 13.8531L13.3821 13.4897C13.4114 13.438 13.4589 13.4045 13.512 13.3905C13.5652 13.3765 13.6238 13.3821 13.6742 13.4115C13.6797 13.4143 13.6811 13.4213 13.6783 13.4268C13.6756 13.4324 13.6686 13.4338 13.663 13.431C13.6169 13.4045 13.5652 13.3989 13.5176 13.4115C13.4701 13.4241 13.4268 13.4548 13.4003 13.5009L13.1697 13.8992C13.1529 13.9285 13.1501 13.9607 13.1585 13.9914C13.1669 14.0208 13.1864 14.0487 13.2144 14.0655L13.5819 14.2779C13.6113 14.2947 13.6434 14.2975 13.6742 14.2905C13.7035 14.2821 13.7314 14.2625 13.7482 14.2346L13.9173 13.9425L13.9187 13.9383Z" fill="#FF9966"/>
<path fill-rule="evenodd" clip-rule="evenodd" d="M15.2338 12.0015H15.217C15.1345 12.0015 15.0605 12.035 15.0074 12.0881C14.9543 12.1412 14.9207 12.2167 14.9207 12.2977V12.4011C14.9207 12.4542 14.8886 12.5059 14.8383 12.5269C14.7963 12.5451 14.7698 12.587 14.7698 12.6331V12.9392C14.7698 12.9825 14.7936 13.0202 14.8313 13.0412C14.8732 13.0621 14.8998 13.1138 14.8998 13.16C14.8998 13.2061 14.8732 13.255 14.8313 13.2787C14.7209 13.3402 14.6273 13.4311 14.563 13.5415C14.5001 13.6477 14.4651 13.772 14.4651 13.9034C14.4651 14.0026 14.4861 14.0977 14.5224 14.1829C14.5588 14.2681 14.6105 14.345 14.6762 14.4093C14.7432 14.4764 14.7963 14.563 14.8313 14.6511C14.8634 14.7335 14.8816 14.8243 14.8816 14.9194V14.9906C14.8816 15.027 14.9109 15.0563 14.9473 15.0563C14.9836 15.0563 15.013 15.027 15.013 14.9906V14.8355C15.013 14.7992 15.0353 14.767 15.0689 14.7531C15.101 14.7391 15.1206 14.7069 15.1206 14.672V14.4834C15.1206 14.4624 15.1136 14.4414 15.0982 14.4247C15.073 14.3967 15.0521 14.3632 15.0395 14.3268C15.0255 14.2905 15.0185 14.2528 15.0185 14.2136V13.888C15.0185 13.8405 15.0297 13.7944 15.0479 13.7539C15.0675 13.712 15.0968 13.6742 15.1317 13.6449C15.1639 13.6169 15.189 13.5834 15.2072 13.5443C15.224 13.5065 15.2338 13.466 15.2338 13.4213V13.0957C15.2338 13.0579 15.2268 13.023 15.2142 12.9909C15.2002 12.9559 15.1834 12.928 15.1583 12.8986C15.1317 12.8693 15.1122 12.8371 15.0968 12.7994C15.0828 12.7631 15.0758 12.7253 15.0758 12.6848V12.246C15.0758 12.1734 15.1052 12.1063 15.1541 12.0588C15.1765 12.035 15.2044 12.0168 15.2351 12.0029L15.2338 12.0015Z" fill="#FFCCCC"/>
<path fill-rule="evenodd" clip-rule="evenodd" d="M15.0982 12.2207C15.1037 12.2137 15.1093 12.2067 15.1149 12.1997C15.1401 12.1745 15.175 12.1592 15.2127 12.1592C15.2505 12.1592 15.2854 12.1745 15.3106 12.1997C15.3357 12.2249 15.3511 12.2584 15.3511 12.2975V12.6511C15.3511 12.7196 15.3679 12.7866 15.3972 12.8453C15.4266 12.9054 15.4699 12.9571 15.5244 12.9977C15.5272 12.9991 15.53 13.0032 15.53 13.0074V13.5566C15.53 13.7453 15.495 13.9284 15.428 14.0989C15.3623 14.2693 15.2644 14.4273 15.1401 14.5642V14.669C15.1401 14.7123 15.1149 14.7529 15.0744 14.771C15.0492 14.7822 15.0325 14.8046 15.0325 14.8325V14.9653C15.2547 14.8074 15.4377 14.5991 15.5635 14.3574C15.6893 14.1184 15.7605 13.8445 15.7605 13.5552V12.9753C15.7605 12.9138 15.7298 12.8551 15.6781 12.8216C15.618 12.7838 15.5817 12.7182 15.5817 12.6483V12.2402C15.5817 12.1732 15.5551 12.1131 15.5104 12.0683C15.4671 12.025 15.4056 11.9971 15.3385 11.9971C15.2714 11.9971 15.2113 12.025 15.1666 12.0683C15.1275 12.1075 15.1023 12.1592 15.0968 12.2179L15.0982 12.2207Z" fill="#FFCCCC"/>
<path fill-rule="evenodd" clip-rule="evenodd" d="M15.1401 14.5322C15.2547 14.4023 15.3455 14.2527 15.407 14.092C15.4727 13.9243 15.5062 13.7441 15.5062 13.5582V13.0146C15.4503 12.9727 15.407 12.9182 15.3763 12.8567C15.3455 12.7938 15.3288 12.7239 15.3288 12.6527V12.2991C15.3288 12.267 15.3162 12.2376 15.2952 12.2166C15.2743 12.1957 15.2449 12.1831 15.2128 12.1831C15.1806 12.1831 15.1513 12.1957 15.1317 12.2166C15.1108 12.2376 15.0982 12.2656 15.0982 12.2963V12.682C15.0982 12.7197 15.1052 12.7561 15.1178 12.7882C15.1303 12.8217 15.1499 12.8539 15.175 12.8804C15.2002 12.9084 15.2212 12.9433 15.2351 12.9797C15.2491 13.0146 15.2561 13.0523 15.2561 13.0929V13.4185C15.2561 13.466 15.2463 13.5107 15.2282 13.5498C15.2086 13.5931 15.182 13.6267 15.1471 13.6588C15.1136 13.6868 15.087 13.7217 15.0688 13.7608C15.0507 13.7986 15.0409 13.8419 15.0409 13.8866V14.2122C15.0409 14.2486 15.0465 14.2835 15.0605 14.317C15.073 14.3506 15.0926 14.3813 15.115 14.4079C15.1331 14.4288 15.1429 14.454 15.1429 14.4819V14.5308L15.1401 14.5322Z" fill="#FF9999"/>
<path fill-rule="evenodd" clip-rule="evenodd" d="M13.656 11.7569C13.656 11.7569 13.6672 11.7625 13.6672 11.7681C13.6672 11.7737 13.6616 11.7793 13.656 11.7793H13.6043C13.5777 11.7793 13.554 11.7905 13.5372 11.8073C13.5204 11.824 13.5093 11.8478 13.5093 11.8743C13.5093 11.9274 13.5512 11.9694 13.6043 11.9694H13.6839C13.6839 11.9694 13.6951 11.975 13.6951 11.9805C13.6951 11.9861 13.6895 11.9917 13.6839 11.9917C13.6322 11.9917 13.5889 12.0336 13.5889 12.0868C13.5889 12.1399 13.6308 12.1818 13.6839 12.1818H13.9019C13.9019 12.1818 13.9131 12.1874 13.9131 12.193C13.9131 12.1985 13.9075 12.2041 13.9019 12.2041H13.7636C13.7105 12.2041 13.6686 12.2461 13.6686 12.2992C13.6686 12.3523 13.7119 12.3942 13.7636 12.3942C13.8433 12.3942 13.9061 12.4585 13.9061 12.5381C13.9061 12.6178 13.8419 12.6821 13.7622 12.6821H13.2787C13.2409 12.6821 13.2102 12.7128 13.2102 12.7505C13.2102 12.7883 13.2409 12.819 13.2787 12.819H13.7175C13.786 12.819 13.8461 12.8637 13.8642 12.9294C13.8824 12.9853 13.9313 13.0217 13.99 13.0217H14.3156C14.3841 13.0217 14.4442 13.0664 14.4623 13.1321C14.4805 13.188 14.5294 13.2243 14.5881 13.2243H14.855C14.8676 13.2047 14.8746 13.1824 14.8746 13.16C14.8746 13.1209 14.8522 13.0789 14.8173 13.0608C14.7726 13.037 14.7446 12.9895 14.7446 12.9392V12.6332C14.7446 12.5787 14.7768 12.5297 14.8271 12.5074C14.869 12.4878 14.8955 12.4487 14.8955 12.4026V12.2992C14.8955 12.2992 14.8955 12.2936 14.8955 12.2908C14.8774 12.3187 14.855 12.3425 14.8285 12.3621C14.7823 12.3956 14.7251 12.4166 14.6636 12.4166H14.1074C14.1074 12.4166 14.0962 12.411 14.0962 12.4054C14.0962 12.3984 14.1018 12.3942 14.1074 12.3942H14.3338C14.3603 12.3942 14.3841 12.383 14.4008 12.3662C14.4176 12.3495 14.4288 12.3257 14.4288 12.2992C14.4288 12.2461 14.3869 12.2041 14.3338 12.2041H14.1241C14.1241 12.2041 14.113 12.1985 14.113 12.193C14.113 12.1874 14.1186 12.1818 14.1241 12.1818C14.1772 12.1818 14.2192 12.1399 14.2192 12.0868C14.2192 12.0336 14.1772 11.9917 14.1241 11.9917H13.8628C13.8628 11.9917 13.8516 11.9861 13.8516 11.9805C13.8516 11.975 13.8572 11.9694 13.8628 11.9694H13.9369C13.9886 11.9694 14.0319 11.9274 14.0319 11.8743C14.0319 11.8212 13.99 11.7793 13.9369 11.7793H13.7398C13.7398 11.7793 13.7287 11.7737 13.7287 11.7681C13.7287 11.7625 13.7343 11.7569 13.7398 11.7569C13.7915 11.7569 13.8349 11.715 13.8349 11.6619C13.8349 11.6088 13.7929 11.5669 13.7398 11.5669H13.5232C13.4715 11.5669 13.4282 11.6088 13.4282 11.6619C13.4282 11.715 13.4701 11.7569 13.5232 11.7569H13.6546H13.656Z" fill="#FF9966"/>
<path fill-rule="evenodd" clip-rule="evenodd" d="M18.4074 15.3373C18.3543 15.3373 18.2704 15.329 18.2257 15.2982C18.2061 15.2842 18.1936 15.2647 18.2005 15.2395L18.2047 15.2241C18.1852 15.2255 18.1656 15.2269 18.146 15.2269C18.086 15.2269 18.0273 15.2186 17.9923 15.199C17.9644 15.1836 17.9448 15.1585 17.9616 15.1263L17.9728 15.1054C17.956 15.1068 17.9378 15.1082 17.9197 15.1082C17.8721 15.1082 17.8274 15.1026 17.7981 15.0914C17.7561 15.0746 17.7394 15.0439 17.7757 15.0061L18.1307 14.6512C18.1321 14.6079 18.1558 14.5701 18.1908 14.5492C18.1349 14.5338 18.0929 14.4821 18.0929 14.422C18.0929 14.3731 18.1195 14.3298 18.16 14.3074C18.0999 14.2906 18.0566 14.2361 18.0566 14.1719C18.0566 14.1188 18.0859 14.0726 18.1293 14.0489C18.0664 14.0321 18.0189 13.9734 18.0189 13.9049C18.0189 13.8476 18.051 13.7973 18.0985 13.7736C18.0314 13.7554 17.9811 13.6939 17.9811 13.6213C17.9811 13.5626 18.0133 13.5123 18.0594 13.4857C18.0552 13.4857 18.0524 13.4843 18.0482 13.4829L17.5437 13.3474C17.5647 13.455 17.5745 13.5654 17.5745 13.666V15.2898C17.5745 15.3164 17.5521 15.3387 17.5256 15.3387C17.499 15.3387 17.4767 15.3164 17.4767 15.2898V13.666C17.4767 13.5542 17.4641 13.434 17.4375 13.3194L17.3956 13.3082C17.3705 13.3012 17.3453 13.304 17.3215 13.318C17.2014 13.3823 17.084 13.4564 16.9652 13.5234C16.94 13.5374 16.9093 13.5276 16.8939 13.5025C16.8799 13.4773 16.8883 13.4466 16.9135 13.4312L17.2684 13.2258C17.3104 13.2006 17.3579 13.1936 17.404 13.2006C17.3984 13.1839 17.3914 13.1657 17.3858 13.1489C17.3677 13.1014 17.3495 13.0511 17.3355 13.0022L17.267 12.984C17.2517 12.9798 17.2349 12.9784 17.2195 12.984L16.8366 13.086C16.8087 13.093 16.7793 13.0762 16.7723 13.0483C16.7653 13.0204 16.7821 12.9924 16.8101 12.984C16.9372 12.9547 17.0658 12.9127 17.193 12.882C17.2265 12.8736 17.2628 12.8736 17.2964 12.8834H17.3048C17.2978 12.8582 17.2922 12.8303 17.2866 12.8023C17.2614 12.6766 17.2489 12.5452 17.2489 12.4125V12.3538C17.2377 12.344 17.2251 12.3356 17.2111 12.3314L16.8101 12.2238C16.7821 12.2168 16.7653 12.1875 16.7737 12.1595C16.7807 12.1316 16.8101 12.1148 16.838 12.1232L17.2391 12.2308C17.2391 12.2308 17.2461 12.2322 17.2489 12.2336V12.0896C17.2489 12.0421 17.2545 11.9946 17.2656 11.9499L17.0323 11.8143C17.0071 11.8004 16.9987 11.7668 17.0141 11.7417C17.0295 11.7165 17.0602 11.7081 17.0854 11.7235L17.302 11.8493C17.39 11.6634 17.5745 11.5335 17.7925 11.5265L17.8344 11.3713C17.8414 11.3434 17.8707 11.3266 17.8987 11.3336C17.9266 11.3406 17.9434 11.3699 17.9364 11.3979L17.9001 11.5321C18.1628 11.5726 18.3654 11.7962 18.3752 12.0687C18.3864 12.0687 18.3962 12.0687 18.4074 12.0687C18.4185 12.0687 18.4283 12.0687 18.4395 12.0687C18.4479 11.7962 18.6519 11.5726 18.9146 11.5321L18.8783 11.3979C18.8713 11.3699 18.8881 11.3406 18.9146 11.3336C18.9426 11.3266 18.9719 11.3434 18.9789 11.3713L19.0209 11.5265C19.2375 11.5335 19.4233 11.6634 19.5114 11.8493L19.728 11.7235C19.7531 11.7095 19.7839 11.7179 19.7992 11.7417C19.8146 11.7668 19.8048 11.8004 19.7811 11.8143L19.5477 11.9499C19.5589 11.9946 19.5645 12.0407 19.5645 12.0896V12.2336C19.5645 12.2336 19.5715 12.2308 19.5742 12.2308L19.9753 12.1232C20.0033 12.1162 20.0326 12.1316 20.0396 12.1595C20.048 12.1875 20.0298 12.2168 20.0033 12.2238L19.6022 12.3314C19.5882 12.3356 19.5756 12.344 19.5645 12.3538V12.4125C19.5645 12.5452 19.5519 12.6766 19.5267 12.8023C19.5211 12.8303 19.5156 12.8582 19.5086 12.8862H19.517C19.5505 12.875 19.5854 12.8736 19.6204 12.882C19.7475 12.9141 19.8775 12.9561 20.0033 12.984C20.0312 12.991 20.048 13.0204 20.041 13.0483C20.034 13.0762 20.0047 13.093 19.9767 13.086L19.5938 12.984C19.5784 12.9798 19.5617 12.9812 19.5463 12.984L19.4792 13.0022C19.4638 13.0525 19.4471 13.1014 19.4289 13.1489C19.4219 13.1657 19.4163 13.1825 19.4107 13.2006C19.4569 13.1922 19.5044 13.2006 19.5463 13.2258L19.9013 13.4312C19.9264 13.4452 19.9348 13.4773 19.9208 13.5025C19.9054 13.5276 19.8761 13.5374 19.8495 13.5234C19.7308 13.4564 19.612 13.3823 19.4932 13.318C19.4694 13.304 19.4457 13.3012 19.4191 13.3082L19.3786 13.3194C19.352 13.434 19.3395 13.5542 19.3395 13.666V15.2898C19.3395 15.3164 19.3171 15.3387 19.2906 15.3387C19.264 15.3387 19.2417 15.3164 19.2417 15.2898V13.666C19.2417 13.5668 19.2514 13.455 19.2724 13.3474L18.7665 13.4829C18.7665 13.4829 18.7595 13.4843 18.7553 13.4857C18.8028 13.5123 18.8336 13.564 18.8336 13.6213C18.8336 13.6939 18.7847 13.7554 18.7162 13.7736C18.7637 13.7987 18.7959 13.8476 18.7959 13.9049C18.7959 13.9734 18.7483 14.0321 18.6855 14.0489C18.7288 14.0726 18.7581 14.1188 18.7581 14.1719C18.7581 14.2375 18.7134 14.292 18.6547 14.3074C18.6952 14.3298 18.7218 14.3731 18.7218 14.422C18.7218 14.4835 18.6799 14.5338 18.624 14.5492C18.6589 14.5701 18.6827 14.6079 18.6841 14.6512L19.039 15.0061C19.0754 15.0425 19.0586 15.0746 19.0167 15.0914C18.9873 15.1026 18.9426 15.1082 18.8951 15.1082C18.8769 15.1082 18.8601 15.1082 18.842 15.1054L18.8532 15.1263C18.8699 15.1585 18.8518 15.1836 18.8224 15.199C18.7875 15.2172 18.7288 15.2269 18.6687 15.2269C18.6491 15.2269 18.6296 15.2269 18.61 15.2241L18.6142 15.2395C18.6198 15.2647 18.6086 15.2828 18.5876 15.2982C18.5429 15.3304 18.4591 15.3373 18.406 15.3373H18.4074ZM18.2187 12.112V12.0282C18.2187 11.8255 18.0706 11.6578 17.8749 11.6271L17.7897 11.9457C17.7827 11.9723 17.7855 11.996 17.7995 12.0198L18.0007 12.3677C18.0356 12.2559 18.1139 12.1637 18.2173 12.112H18.2187ZM18.5974 12.112C18.7008 12.1637 18.7805 12.2559 18.814 12.3677L19.0153 12.0198C19.0292 11.996 19.032 11.9723 19.025 11.9457L18.9398 11.6271C18.7456 11.6564 18.596 11.8255 18.596 12.0282V12.112H18.5974ZM19.0488 11.6243L19.1271 11.9178C19.141 11.9709 19.134 12.0254 19.1061 12.0715L18.8336 12.5452V12.7437L19.2417 12.0365C19.2584 12.0058 19.2822 11.9806 19.3129 11.9625L19.4275 11.8968C19.3604 11.7487 19.2179 11.6411 19.0488 11.6243ZM19.4583 11.9988L19.3646 12.0533C19.3507 12.0617 19.3395 12.0743 19.3325 12.0868L18.8573 12.91L19.468 12.2993V12.0854C19.468 12.0547 19.4652 12.0268 19.4597 11.9974L19.4583 11.9988ZM19.4666 12.4502L18.8573 13.0595L19.401 12.9141C19.4121 12.8708 19.4219 12.8275 19.4303 12.7842C19.4513 12.6738 19.4638 12.562 19.4666 12.4502ZM19.366 13.0315L18.8336 13.1741V13.3529L19.2975 13.2286C19.3073 13.1922 19.3199 13.1559 19.3325 13.1224C19.3437 13.0916 19.3548 13.0623 19.366 13.0315ZM17.4501 13.0315C17.4599 13.0623 17.4711 13.093 17.4836 13.1224C17.4962 13.1559 17.5088 13.1908 17.5186 13.2286L17.9825 13.3529V13.1741L17.4501 13.0315ZM17.3481 12.4502C17.3509 12.562 17.3621 12.6738 17.3844 12.7842C17.3928 12.8275 17.4026 12.8708 17.4138 12.9141L17.9574 13.0595L17.3481 12.4502ZM17.3565 11.9988C17.3509 12.0268 17.3481 12.0561 17.3481 12.0868V12.3007L17.9588 12.9113L17.4836 12.0882C17.4753 12.0743 17.4641 12.0617 17.4515 12.0547L17.3579 12.0002L17.3565 11.9988ZM17.7673 11.6243C17.5982 11.6411 17.4557 11.7487 17.3886 11.8968L17.5032 11.9625C17.5326 11.9806 17.5577 12.0058 17.5745 12.0365L17.9825 12.7437V12.5452L17.71 12.0715C17.6821 12.024 17.6751 11.9695 17.6891 11.9178L17.7673 11.6243Z" fill="black"/>
<path fill-rule="evenodd" clip-rule="evenodd" d="M18.195 14.7642L17.9798 15.1373C17.9686 15.1582 17.9826 15.1708 18.0007 15.1792C18.0329 15.196 18.0874 15.2044 18.1447 15.2044C18.167 15.2044 18.188 15.2044 18.2103 15.2002L18.3235 14.7795H18.2551C18.2341 14.7795 18.2131 14.7739 18.195 14.7642Z" fill="#FF0000"/>
<path fill-rule="evenodd" clip-rule="evenodd" d="M18.1335 14.6802L17.7911 15.0226C17.7673 15.0477 17.7785 15.0603 17.8051 15.0715C17.8316 15.0826 17.8735 15.0868 17.9197 15.0868C17.942 15.0868 17.9644 15.0868 17.9853 15.0826L18.1768 14.7514C18.1544 14.7333 18.1391 14.7081 18.1335 14.6802Z" fill="#FF0000"/>
<path fill-rule="evenodd" clip-rule="evenodd" d="M18.2103 12.1509C18.2411 12.1509 18.2662 12.176 18.2662 12.2068C18.2662 12.2375 18.2411 12.2627 18.2103 12.2627C18.1796 12.2627 18.1544 12.2375 18.1544 12.2068C18.1544 12.176 18.1796 12.1509 18.2103 12.1509Z" fill="#FF0000"/>
<path fill-rule="evenodd" clip-rule="evenodd" d="M18.3529 12.0699C18.3445 11.7793 18.1055 11.5459 17.8121 11.5459C17.5186 11.5459 17.2712 11.7877 17.2712 12.0867V12.4095C17.2712 12.5423 17.2838 12.6709 17.3076 12.7952C17.3313 12.914 17.3649 13.03 17.4082 13.1418C17.4697 13.2997 17.4976 13.494 17.4976 13.6617V15.2855C17.4976 15.2995 17.5102 15.3121 17.5242 15.3121C17.5382 15.3121 17.5507 15.2995 17.5507 15.2855V13.6617C17.5507 13.4898 17.5214 13.2885 17.4599 13.1278C17.4166 13.0174 17.383 12.9028 17.3607 12.7868C17.3369 12.6625 17.3243 12.5353 17.3243 12.4095V12.0867C17.3243 11.817 17.5423 11.599 17.8121 11.599C18.0482 11.599 18.2397 11.7905 18.2397 12.0266V12.1007C18.2746 12.0853 18.3123 12.0755 18.3529 12.0699Z" fill="#FF0000"/>
<path fill-rule="evenodd" clip-rule="evenodd" d="M17.8162 11.5236C17.8372 11.5236 17.8581 11.525 17.8777 11.5278L17.914 11.3908C17.9182 11.3741 17.9085 11.3587 17.8931 11.3545C17.8777 11.3503 17.8609 11.3601 17.8567 11.3755L17.8162 11.525V11.5236Z" fill="#FF0000"/>
<path fill-rule="evenodd" clip-rule="evenodd" d="M17.274 11.9257C17.2796 11.9061 17.2866 11.8866 17.295 11.8684L17.0756 11.7412C17.0616 11.7329 17.0435 11.7384 17.0351 11.7524C17.0267 11.7678 17.0309 11.786 17.0462 11.7943L17.2754 11.9257H17.274Z" fill="#FF0000"/>
<path fill-rule="evenodd" clip-rule="evenodd" d="M17.2503 12.3228V12.2543C17.2503 12.2543 17.2391 12.2501 17.2335 12.2487L16.8324 12.1411C16.8156 12.1369 16.8003 12.1467 16.7961 12.1621C16.7919 12.1774 16.8017 12.1942 16.817 12.1984L17.2181 12.306C17.2293 12.3088 17.2405 12.3144 17.2503 12.3214V12.3228Z" fill="#FF0000"/>
<path fill-rule="evenodd" clip-rule="evenodd" d="M17.3299 12.9752C17.3229 12.9528 17.3173 12.9305 17.3117 12.9081L17.2922 12.9025C17.2614 12.8942 17.2307 12.8928 17.2013 12.9011L16.8184 13.0046C16.8031 13.0087 16.7933 13.0255 16.7975 13.0409C16.8017 13.0577 16.8184 13.0674 16.8352 13.0632L17.2181 12.9612C17.2377 12.957 17.2572 12.957 17.2768 12.9612L17.3313 12.9752H17.3299Z" fill="#FF0000"/>
<path fill-rule="evenodd" clip-rule="evenodd" d="M17.4333 13.291C17.4278 13.2687 17.4208 13.2463 17.4152 13.224C17.3705 13.2128 17.3243 13.2198 17.2838 13.2435C17.2363 13.2589 16.989 13.4126 16.9275 13.4489C16.9135 13.4573 16.9093 13.4755 16.9163 13.4895C16.9247 13.5034 16.9428 13.509 16.9582 13.5006C17.0728 13.435 17.2028 13.3665 17.3146 13.2952C17.3425 13.2785 17.3733 13.2743 17.4054 13.2826L17.4347 13.291H17.4333Z" fill="#FF0000"/>
<path fill-rule="evenodd" clip-rule="evenodd" d="M17.5242 13.2534C17.5298 13.2758 17.5353 13.2981 17.5395 13.3205L17.9979 13.4435C17.9867 13.4281 17.9811 13.4099 17.9811 13.3904V13.3764L17.5228 13.2534H17.5242Z" fill="#FF0000"/>
<path fill-rule="evenodd" clip-rule="evenodd" d="M17.4208 12.9375C17.4278 12.9599 17.4334 12.9822 17.4417 13.006L17.9826 13.1513V13.094C17.9826 13.094 17.9826 13.0912 17.9826 13.0898L17.4208 12.9389V12.9375Z" fill="#FF0000"/>
<path fill-rule="evenodd" clip-rule="evenodd" d="M18.0105 12.9949L17.3481 12.3325V12.4178L17.9895 13.0592C17.9937 13.048 18.0007 13.0368 18.0105 13.0271C18.0175 13.0201 18.0245 13.0145 18.0328 13.0103C18.0245 13.0061 18.0175 13.0005 18.0105 12.9935V12.9949Z" fill="#FF0000"/>
<path fill-rule="evenodd" clip-rule="evenodd" d="M17.3802 11.9173C17.3732 11.9369 17.3663 11.9565 17.3621 11.976L17.4627 12.0333C17.4794 12.0431 17.4934 12.0585 17.5032 12.0753L17.9839 12.9067V12.7852L17.5563 12.0445C17.5409 12.018 17.52 11.9956 17.4934 11.9788L17.3816 11.9146L17.3802 11.9173Z" fill="#FF0000"/>
<path fill-rule="evenodd" clip-rule="evenodd" d="M17.8526 11.624C17.84 11.624 17.826 11.6226 17.8134 11.6226C17.8064 11.6226 17.7981 11.6226 17.7911 11.6226L17.71 11.923C17.6974 11.9705 17.7044 12.018 17.7282 12.06L17.9825 12.5002V12.4918C17.9825 12.4596 17.9867 12.4275 17.9937 12.3968L17.7813 12.0292C17.7645 12.0013 17.7603 11.9691 17.7687 11.9384L17.8526 11.624Z" fill="#FF0000"/>
<path fill-rule="evenodd" clip-rule="evenodd" d="M18.6198 14.7642L18.835 15.1373C18.8462 15.1582 18.8322 15.1708 18.814 15.1792C18.7819 15.196 18.7274 15.2044 18.6701 15.2044C18.6477 15.2044 18.6268 15.2044 18.6044 15.2002L18.4912 14.7795H18.5597C18.5806 14.7795 18.6016 14.7739 18.6198 14.7642Z" fill="#FF0000"/>
<path fill-rule="evenodd" clip-rule="evenodd" d="M18.6813 14.6802L19.0236 15.0226C19.0474 15.0477 19.0362 15.0603 19.0097 15.0715C18.9831 15.0826 18.9412 15.0868 18.8951 15.0868C18.8727 15.0868 18.8504 15.0868 18.8294 15.0826L18.6379 14.7514C18.6603 14.7333 18.6757 14.7081 18.6813 14.6802Z" fill="#FF0000"/>
<path fill-rule="evenodd" clip-rule="evenodd" d="M18.6044 12.1509C18.5737 12.1509 18.5485 12.176 18.5485 12.2068C18.5485 12.2375 18.5737 12.2627 18.6044 12.2627C18.6352 12.2627 18.6603 12.2375 18.6603 12.2068C18.6603 12.176 18.6352 12.1509 18.6044 12.1509Z" fill="#FF0000"/>
<path fill-rule="evenodd" clip-rule="evenodd" d="M18.4619 12.0699C18.4702 11.7793 18.7092 11.5459 19.0027 11.5459C19.2961 11.5459 19.5435 11.7877 19.5435 12.0867V12.4095C19.5435 12.5423 19.5309 12.6709 19.5072 12.7952C19.4834 12.914 19.4499 13.03 19.4065 13.1418C19.345 13.2997 19.3171 13.494 19.3171 13.6617V15.2855C19.3171 15.2995 19.3045 15.3121 19.2905 15.3121C19.2766 15.3121 19.264 15.2995 19.264 15.2855V13.6617C19.264 13.4898 19.2933 13.2885 19.3562 13.1278C19.3995 13.0174 19.4331 12.9028 19.4554 12.7868C19.4792 12.6625 19.4918 12.5353 19.4918 12.4095V12.0867C19.4918 11.817 19.2738 11.599 19.0041 11.599C18.7679 11.599 18.5764 11.7905 18.5764 12.0266V12.1007C18.5415 12.0853 18.5038 12.0755 18.4632 12.0699H18.4619Z" fill="#FF0000"/>
<path fill-rule="evenodd" clip-rule="evenodd" d="M18.9985 11.5236C18.9776 11.5236 18.958 11.525 18.937 11.5278L18.9007 11.3908C18.8965 11.3741 18.9063 11.3587 18.9217 11.3545C18.9384 11.3503 18.9538 11.3601 18.958 11.3755L18.9985 11.525V11.5236Z" fill="#FF0000"/>
<path fill-rule="evenodd" clip-rule="evenodd" d="M19.5421 11.9257C19.5365 11.9061 19.5295 11.8866 19.5211 11.8684L19.7405 11.7412C19.7545 11.7329 19.7727 11.7384 19.781 11.7524C19.7894 11.7678 19.7852 11.786 19.7699 11.7943L19.5407 11.9257H19.5421Z" fill="#FF0000"/>
<path fill-rule="evenodd" clip-rule="evenodd" d="M19.5645 12.3228V12.2543C19.5645 12.2543 19.5756 12.2501 19.5812 12.2487L19.9823 12.1411C19.9991 12.1369 20.0144 12.1467 20.0186 12.1621C20.0228 12.1774 20.013 12.1942 19.9977 12.1984L19.5966 12.306C19.5854 12.3088 19.5742 12.3144 19.5645 12.3214V12.3228Z" fill="#FF0000"/>
<path fill-rule="evenodd" clip-rule="evenodd" d="M19.4848 12.9752C19.4918 12.9528 19.4974 12.9305 19.503 12.9081L19.5225 12.9025C19.5533 12.8942 19.584 12.8928 19.6134 12.9011L19.9963 13.0046C20.0116 13.0087 20.0214 13.0255 20.0172 13.0409C20.013 13.0577 19.9963 13.0674 19.9795 13.0632L19.5966 12.9612C19.577 12.957 19.5575 12.957 19.5379 12.9612L19.4834 12.9752H19.4848Z" fill="#FF0000"/>
<path fill-rule="evenodd" clip-rule="evenodd" d="M19.3828 13.291C19.3884 13.2687 19.3954 13.2463 19.401 13.224C19.4457 13.2128 19.4918 13.2198 19.5323 13.2435C19.5798 13.2589 19.8272 13.4126 19.8887 13.4489C19.9027 13.4573 19.9069 13.4755 19.8999 13.4895C19.8915 13.5034 19.8733 13.509 19.8579 13.5006C19.742 13.435 19.6134 13.3665 19.5016 13.2952C19.4736 13.2785 19.4429 13.2743 19.4108 13.2826L19.3814 13.291H19.3828Z" fill="#FF0000"/>
<path fill-rule="evenodd" clip-rule="evenodd" d="M19.2906 13.2534C19.285 13.2758 19.2794 13.2981 19.2752 13.3205L18.8154 13.4435C18.8266 13.4281 18.8322 13.4099 18.8322 13.3904V13.3764L19.2906 13.2534Z" fill="#FF0000"/>
<path fill-rule="evenodd" clip-rule="evenodd" d="M19.394 12.9375C19.387 12.9599 19.3814 12.9822 19.373 13.006L18.8322 13.1513V13.094C18.8322 13.094 18.8322 13.0912 18.8322 13.0898L19.394 12.9389V12.9375Z" fill="#FF0000"/>
<path fill-rule="evenodd" clip-rule="evenodd" d="M18.8042 12.9949L19.4666 12.3325V12.4178L18.8252 13.0592C18.821 13.048 18.8126 13.0368 18.8042 13.0271C18.7972 13.0201 18.7902 13.0145 18.7819 13.0103C18.7902 13.0061 18.7972 13.0005 18.8042 12.9935V12.9949Z" fill="#FF0000"/>
<path fill-rule="evenodd" clip-rule="evenodd" d="M19.4345 11.9173C19.4415 11.9369 19.4485 11.9565 19.4527 11.976L19.3521 12.0333C19.3353 12.0431 19.3213 12.0585 19.3115 12.0753L18.8308 12.9067V12.7852L19.2584 12.0445C19.2738 12.018 19.2948 11.9956 19.3213 11.9788L19.4331 11.9146L19.4345 11.9173Z" fill="#FF0000"/>
<path fill-rule="evenodd" clip-rule="evenodd" d="M18.9622 11.624C18.9748 11.624 18.9887 11.6226 19.0013 11.6226C19.0083 11.6226 19.0167 11.6226 19.0237 11.6226L19.1047 11.923C19.1173 11.9705 19.1103 12.018 19.0866 12.06L18.8322 12.5002V12.4918C18.8322 12.4596 18.828 12.4275 18.821 12.3968L19.0335 12.0292C19.0502 12.0013 19.0544 11.9691 19.046 11.9384L18.9622 11.624Z" fill="#FF0000"/>
<path fill-rule="evenodd" clip-rule="evenodd" d="M18.3459 14.7798L18.2215 15.2451C18.2173 15.2605 18.2271 15.2717 18.2383 15.2801C18.2788 15.308 18.3599 15.315 18.4074 15.315C18.4549 15.315 18.5359 15.308 18.5765 15.2801C18.5876 15.2717 18.5974 15.2605 18.5932 15.2451L18.4689 14.7798H18.3459Z" fill="#FF0000"/>
<path fill-rule="evenodd" clip-rule="evenodd" d="M18.255 14.5532C18.1991 14.5532 18.153 14.5993 18.153 14.6552C18.153 14.7111 18.1991 14.7573 18.255 14.7573H18.5597C18.6156 14.7573 18.6617 14.7111 18.6617 14.6552C18.6617 14.5993 18.6156 14.5532 18.5597 14.5532H18.255Z" fill="#FF0000"/>
<path fill-rule="evenodd" clip-rule="evenodd" d="M18.2257 14.3115C18.1642 14.3115 18.1153 14.3604 18.1153 14.4219C18.1153 14.4834 18.1642 14.5323 18.2257 14.5323H18.5876C18.6491 14.5323 18.698 14.4834 18.698 14.4219C18.698 14.3604 18.6491 14.3115 18.5876 14.3115H18.2257Z" fill="#FF0000"/>
<path fill-rule="evenodd" clip-rule="evenodd" d="M18.1978 14.0513C18.1321 14.0513 18.079 14.1044 18.079 14.1701C18.079 14.2357 18.1321 14.2888 18.1978 14.2888H18.6184C18.6841 14.2888 18.7372 14.2357 18.7372 14.1701C18.7372 14.1044 18.6841 14.0513 18.6184 14.0513H18.1978Z" fill="#FF0000"/>
<path fill-rule="evenodd" clip-rule="evenodd" d="M18.1684 13.7764C18.0986 13.7764 18.0413 13.8337 18.0413 13.9035C18.0413 13.9734 18.0986 14.0307 18.1684 14.0307H18.6464C18.7162 14.0307 18.7735 13.9734 18.7735 13.9035C18.7735 13.8337 18.7162 13.7764 18.6464 13.7764H18.1684Z" fill="#FF0000"/>
<path fill-rule="evenodd" clip-rule="evenodd" d="M18.139 13.4839C18.065 13.4839 18.0035 13.544 18.0035 13.6194C18.0035 13.6949 18.0636 13.7536 18.139 13.7536H18.6743C18.7483 13.7536 18.8084 13.6935 18.8084 13.6194C18.8084 13.5454 18.7483 13.4839 18.6743 13.4839H18.139Z" fill="#FF0000"/>
<path fill-rule="evenodd" clip-rule="evenodd" d="M18.4074 13.0216C18.3724 13.0216 18.3403 13.002 18.3249 12.9727C18.3081 13.0034 18.2774 13.0216 18.2425 13.0216C18.2075 13.0216 18.1754 13.002 18.16 12.9727C18.1432 13.0034 18.1125 13.0216 18.0776 13.0216C18.058 13.0216 18.0398 13.03 18.0272 13.0425C18.0147 13.0551 18.0063 13.0733 18.0063 13.0928V13.3891C18.0063 13.4087 18.0147 13.4268 18.0272 13.4394C18.0398 13.452 18.058 13.4604 18.0776 13.4604H18.74C18.7595 13.4604 18.7777 13.452 18.7903 13.4394C18.8028 13.4268 18.8112 13.4087 18.8112 13.3891V13.0928C18.8112 13.0733 18.8028 13.0551 18.7903 13.0425C18.7777 13.03 18.7595 13.0216 18.74 13.0216C18.705 13.0216 18.6743 13.002 18.6575 12.9727C18.6407 13.0034 18.61 13.0216 18.5751 13.0216C18.5401 13.0216 18.508 13.002 18.4926 12.9727C18.4758 13.0034 18.4451 13.0216 18.4102 13.0216H18.4074Z" fill="#FF0000"/>
<path fill-rule="evenodd" clip-rule="evenodd" d="M18.3138 12.9278C18.3138 12.9278 18.3194 12.9167 18.3249 12.9167C18.3305 12.9167 18.3361 12.9222 18.3361 12.9278C18.3361 12.967 18.3683 12.9991 18.4074 12.9991C18.4465 12.9991 18.4787 12.967 18.4787 12.9278C18.4787 12.9222 18.4843 12.9167 18.4898 12.9167C18.4954 12.9167 18.501 12.9222 18.501 12.9278C18.501 12.967 18.5332 12.9991 18.5723 12.9991C18.6114 12.9991 18.6436 12.967 18.6436 12.9278C18.6436 12.9222 18.6492 12.9167 18.6547 12.9167C18.6603 12.9167 18.6659 12.9222 18.6659 12.9278C18.6659 12.967 18.6981 12.9991 18.7372 12.9991C18.7763 12.9991 18.8085 12.967 18.8085 12.9278V12.4918C18.8085 12.3758 18.7596 12.2696 18.6799 12.197C18.6799 12.1998 18.6799 12.2025 18.6799 12.2053C18.6799 12.2487 18.645 12.2836 18.6016 12.2836C18.5583 12.2836 18.5234 12.2487 18.5234 12.2053C18.5234 12.169 18.5485 12.1383 18.5821 12.1299C18.529 12.1033 18.4689 12.0894 18.4046 12.0894C18.3403 12.0894 18.2816 12.1047 18.2271 12.1299C18.2607 12.1383 18.2858 12.169 18.2858 12.2053C18.2858 12.2487 18.2509 12.2836 18.2076 12.2836C18.1642 12.2836 18.1293 12.2487 18.1293 12.2053C18.1293 12.2025 18.1293 12.1998 18.1293 12.197C18.0496 12.271 18.0007 12.3758 18.0007 12.4918V12.9278C18.0007 12.967 18.0329 12.9991 18.072 12.9991C18.1111 12.9991 18.1433 12.967 18.1433 12.9278C18.1433 12.9222 18.1489 12.9167 18.1545 12.9167C18.16 12.9167 18.1656 12.9222 18.1656 12.9278C18.1656 12.967 18.1978 12.9991 18.2369 12.9991C18.276 12.9991 18.3082 12.967 18.3082 12.9278H18.3138Z" fill="#FF0000"/>
<path fill-rule="evenodd" clip-rule="evenodd" d="M16.7067 19.9179C16.7863 19.9165 16.8576 19.9067 16.9079 19.8927C16.9624 19.8774 16.9959 19.8564 16.9959 19.8298V19.7264C17.0127 19.739 17.0392 19.7488 17.0714 19.7572C17.1273 19.7711 17.2041 19.7795 17.2894 19.7795C17.3746 19.7795 17.4515 19.7711 17.5074 19.7572C17.5675 19.7418 17.6052 19.7194 17.6052 19.6929V19.4637C17.6206 19.4637 17.636 19.4637 17.6513 19.4637C17.7366 19.4637 17.8134 19.4553 17.8693 19.4413C17.9294 19.426 17.9672 19.4036 17.9672 19.3771V17.7295C17.9672 17.3647 17.8987 17.0154 17.7757 16.6953C17.6485 16.3655 17.4613 16.0651 17.2279 15.8066C17.2531 15.7744 17.2684 15.7339 17.2698 15.685C17.2726 15.5927 17.2028 15.5145 17.1091 15.5089V14.8144C17.1091 14.6271 17.0323 14.4566 16.9093 14.3336C16.7863 14.2106 16.6158 14.1338 16.4286 14.1338C16.2413 14.1338 16.0708 14.2093 15.9478 14.3336C15.8249 14.4566 15.748 14.6271 15.748 14.8144V15.5089C15.6558 15.5145 15.5859 15.5927 15.5873 15.685C15.5873 15.7339 15.6041 15.773 15.6292 15.8066C15.3958 16.0651 15.2086 16.3655 15.0814 16.6953C14.957 17.0168 14.89 17.3647 14.89 17.7295V19.3771C14.89 19.4036 14.9277 19.4274 14.9878 19.4413C15.0437 19.4553 15.1205 19.4637 15.2058 19.4637C15.2212 19.4637 15.2365 19.4637 15.2519 19.4637V19.6929C15.2519 19.7194 15.2896 19.7432 15.3497 19.7572C15.4056 19.7711 15.4825 19.7795 15.5677 19.7795C15.653 19.7795 15.7298 19.7711 15.7857 19.7572C15.8179 19.7488 15.8444 19.739 15.8612 19.7264V19.8298C15.8612 19.855 15.8947 19.8774 15.9492 19.8927C15.9995 19.9067 16.0708 19.9165 16.1505 19.9179C16.2301 19.9165 16.3 19.9067 16.3517 19.8927C16.388 19.8829 16.4146 19.8704 16.4286 19.855C16.4425 19.8704 16.4691 19.8829 16.5054 19.8927C16.5557 19.9067 16.627 19.9165 16.7067 19.9179Z" fill="black"/>
<path fill-rule="evenodd" clip-rule="evenodd" d="M16.2217 14.4831C16.1603 14.5851 16.1295 14.7011 16.1295 14.8199V15.7967C16.1575 15.7995 16.1868 15.8023 16.2176 15.8051V14.8199C16.2176 14.7165 16.2455 14.6145 16.2986 14.5264C16.3112 14.5055 16.3028 14.4775 16.2818 14.4664C16.2609 14.4538 16.2329 14.4622 16.2204 14.4831H16.2217Z" fill="#9933CC"/>
<path fill-rule="evenodd" clip-rule="evenodd" d="M16.736 15.7954V14.813C16.736 14.7347 16.7221 14.6607 16.6983 14.5922C16.6731 14.5209 16.6354 14.4552 16.5879 14.3965C16.5725 14.3784 16.5739 14.3546 16.5879 14.3365C16.6019 14.3183 16.6256 14.3141 16.6466 14.3253C16.7416 14.3672 16.8213 14.4371 16.8772 14.5223C16.9317 14.6062 16.9624 14.7054 16.9624 14.813V15.7535C17.0407 15.7311 17.0868 15.706 17.0868 15.678V14.813C17.0868 14.6313 17.0127 14.4664 16.8939 14.3476C16.7752 14.2289 16.6103 14.1548 16.4286 14.1548C16.2469 14.1548 16.082 14.2289 15.9632 14.3476C15.8445 14.4664 15.7704 14.6313 15.7704 14.813V15.678C15.7704 15.7116 15.8417 15.7437 15.9576 15.7689C16.0024 15.7786 16.0513 15.7856 16.1072 15.7926V14.8186C16.1072 14.6956 16.1393 14.5754 16.2022 14.4706C16.2204 14.4385 16.2609 14.4273 16.293 14.4455C16.3252 14.4636 16.3364 14.5041 16.3182 14.5363C16.2665 14.6215 16.2399 14.718 16.2399 14.8186V15.8052C16.3 15.8094 16.3629 15.8108 16.4286 15.8108C16.539 15.8108 16.6438 15.8052 16.736 15.7954Z" fill="#FF3399"/>
<path fill-rule="evenodd" clip-rule="evenodd" d="M16.6047 14.384C16.6536 14.4441 16.6927 14.5125 16.7193 14.5866C16.7444 14.6579 16.7584 14.7347 16.7584 14.8144V15.794C16.8101 15.7884 16.8576 15.78 16.8995 15.7716C16.9135 15.7689 16.9275 15.7647 16.9401 15.7619V14.8158C16.9401 14.7124 16.9093 14.6173 16.8576 14.5377C16.8031 14.4552 16.7263 14.3882 16.6354 14.3476C16.6242 14.342 16.6117 14.3448 16.6047 14.3532C16.5963 14.363 16.5963 14.3756 16.6047 14.3854V14.384Z" fill="#9933CC"/>
<path fill-rule="evenodd" clip-rule="evenodd" d="M16.1798 15.9854C16.0834 16.1349 16.0093 16.297 15.959 16.4661C15.9087 16.6366 15.8821 16.8154 15.8821 16.9985V19.8298C15.8821 19.8437 15.9087 19.8591 15.9534 19.8703C16.0023 19.8843 16.0708 19.8927 16.1491 19.8941C16.2259 19.8927 16.2944 19.8829 16.3447 19.8703C16.3894 19.8577 16.416 19.8437 16.416 19.8298V15.9937C16.3377 15.9937 16.2581 15.9909 16.1784 15.9854H16.1798Z" fill="#007C29"/>
<path fill-rule="evenodd" clip-rule="evenodd" d="M15.9171 15.9478C15.7102 16.1755 15.5495 16.4369 15.4419 16.7178C15.3329 17 15.2756 17.3033 15.2756 17.6135V19.6916C15.2756 19.7069 15.3064 19.7223 15.3567 19.7349C15.4112 19.7488 15.4867 19.7572 15.5691 19.7572C15.6516 19.7572 15.727 19.7488 15.7815 19.7349C15.8318 19.7223 15.8626 19.7069 15.8626 19.6916V16.9972C15.8626 16.8128 15.8891 16.6325 15.9394 16.4592C15.9883 16.2915 16.061 16.1308 16.156 15.9827C16.0764 15.9757 15.9953 15.9645 15.9171 15.9478Z" fill="#007C29"/>
<path fill-rule="evenodd" clip-rule="evenodd" d="M15.6446 15.8232C15.414 16.079 15.2295 16.3766 15.1023 16.7022C14.9794 17.0209 14.9123 17.366 14.9123 17.728V19.3756C14.9123 19.391 14.943 19.4063 14.9933 19.4189C15.0478 19.4329 15.1233 19.4413 15.2058 19.4413C15.2211 19.4413 15.2365 19.4413 15.2519 19.4413V17.6148C15.2519 17.3018 15.3092 16.9957 15.4196 16.7106C15.5272 16.4311 15.6865 16.1712 15.8905 15.9434C15.8039 15.9225 15.7047 15.8889 15.6432 15.8246L15.6446 15.8232Z" fill="#007C29"/>
<path fill-rule="evenodd" clip-rule="evenodd" d="M16.6773 15.9854C16.7738 16.1349 16.8478 16.297 16.8981 16.4661C16.9484 16.6366 16.975 16.8154 16.975 16.9985V19.8298C16.975 19.8437 16.9484 19.8591 16.9037 19.8703C16.8548 19.8843 16.7863 19.8927 16.7081 19.8941C16.6312 19.8927 16.5627 19.8829 16.5124 19.8703C16.4677 19.8577 16.4412 19.8437 16.4412 19.8298V15.9937C16.5194 15.9937 16.5991 15.9909 16.6787 15.9854H16.6773Z" fill="#007C29"/>
<path fill-rule="evenodd" clip-rule="evenodd" d="M16.9414 15.9478C17.1482 16.1755 17.3076 16.4369 17.4166 16.7178C17.5256 17 17.5829 17.3033 17.5829 17.6135V19.6916C17.5829 19.7069 17.5521 19.7223 17.5018 19.7349C17.4473 19.7488 17.3718 19.7572 17.2894 19.7572C17.2069 19.7572 17.1315 19.7488 17.077 19.7349C17.0267 19.7223 16.9959 19.7069 16.9959 19.6916V16.9972C16.9959 16.8128 16.9694 16.6325 16.9191 16.4592C16.8701 16.2915 16.7975 16.1308 16.7025 15.9827C16.7821 15.9757 16.8618 15.9645 16.9414 15.9478Z" fill="#007C29"/>
<path fill-rule="evenodd" clip-rule="evenodd" d="M17.2126 15.8232C17.4431 16.079 17.6276 16.3766 17.7548 16.7022C17.8778 17.0209 17.9448 17.366 17.9448 17.728V19.3756C17.9448 19.391 17.9141 19.4063 17.8638 19.4189C17.8093 19.4329 17.7338 19.4413 17.6514 19.4413C17.636 19.4413 17.6206 19.4413 17.6053 19.4413V17.6148C17.6053 17.3018 17.548 16.9957 17.4376 16.7106C17.33 16.4311 17.1706 16.1712 16.9666 15.9434C17.0547 15.9225 17.1525 15.8889 17.214 15.8246L17.2126 15.8232Z" fill="#007C29"/>
<path fill-rule="evenodd" clip-rule="evenodd" d="M15.748 15.6794V15.5312C15.667 15.5368 15.6097 15.6039 15.6097 15.685C15.6139 15.8429 15.7955 15.9002 15.9241 15.9267C16.0876 15.9617 16.2609 15.9715 16.4286 15.9715C16.5963 15.9715 16.7696 15.9617 16.9331 15.9267C17.0602 15.8988 17.2433 15.8429 17.2475 15.685C17.2489 15.6039 17.1902 15.5368 17.1092 15.5312V15.6794C17.1092 15.7255 17.0309 15.7646 16.9037 15.7912C16.7822 15.8177 16.6131 15.8331 16.4286 15.8331C16.2441 15.8331 16.075 15.8163 15.9535 15.7912C15.8263 15.7646 15.748 15.7241 15.748 15.6794Z" fill="#FF6699"/>
<path fill-rule="evenodd" clip-rule="evenodd" d="M0.122986 0H1.67836L5.6178 2.753V0H8.48679V2.72924L12.3913 0H13.9802V1.08722L11.0749 3.11774H13.9802V6.11529H11.0749L13.9802 8.1458V9.25678H12.4262L8.48679 6.50379V9.25678H5.6178V6.52754L1.7133 9.25678H0.122986V8.16956L3.02971 6.13905H0.122986V3.14149H3.02971L0.122986 1.11098V0Z" fill="white"/>
<path d="M13.9802 3.73145H0.122986V5.54954H13.9802V3.73145Z" fill="#FF0000"/>
<path d="M7.92221 0H6.18097V9.25678H7.92221V0Z" fill="#FF0000"/>
<path fill-rule="evenodd" clip-rule="evenodd" d="M1.15711 9.2569L5.6178 6.13916H4.58368L0.122986 9.2569H1.15711Z" fill="#FF0000"/>
<path fill-rule="evenodd" clip-rule="evenodd" d="M3.5859 3.14149L0.122986 0.722488V0L4.61862 3.14149H3.5859Z" fill="#FF0000"/>
<path fill-rule="evenodd" clip-rule="evenodd" d="M12.9475 0L8.48682 3.11774H9.52094L13.9802 0H12.9475Z" fill="#FF0000"/>
<path fill-rule="evenodd" clip-rule="evenodd" d="M10.5187 6.11523L13.9802 8.53424V9.25673L9.48596 6.11523H10.5187Z" fill="#FF0000"/>
</g>
</g>
<rect x="0.25" y="0.25" width="23.5" height="23.5" rx="11.75" stroke="#E5E3E1" stroke-width="0.5"/>
<defs>
<clipPath id="clip0_16335_2040">
<rect width="24" height="24" rx="12" fill="white"/>
</clipPath>
</defs>
</svg>
