<svg width="48" height="48" viewBox="0 0 48 48" fill="none" xmlns="http://www.w3.org/2000/svg">
<path d="M32.9595 19.17C32.5795 17.75 32.0495 16.29 31.2995 15.02C28.5595 10.35 28.3395 7.81 28.3295 7.25H22.9395C22.9495 7.81 23.1695 10.35 25.9095 15.02C26.6595 16.29 27.1895 17.74 27.5695 19.17C27.8695 20.29 28.0095 21.39 28.0095 22.55V43.33C28.0095 44.38 27.1495 45.24 26.0995 45.24H31.4895C32.5395 45.24 33.3995 44.38 33.3995 43.33V22.55C33.3995 21.39 33.2595 20.29 32.9595 19.17Z" fill="#8DE2E0"/>
<path d="M33.8598 18.67C33.4198 17.09 32.8498 15.69 32.1698 14.52C30.1898 11.13 29.5898 8.96 29.4098 7.91C29.9998 7.54 30.3898 6.89 30.3898 6.14V3.85C30.3898 2.69 29.4498 1.75 28.2898 1.75H19.6998C18.5398 1.75 17.5998 2.69 17.5998 3.85V6.14C17.5998 6.89 17.9898 7.54 18.5798 7.91C18.3998 8.96 17.8098 11.13 15.8198 14.52C15.1298 15.69 14.5598 17.09 14.1298 18.67C13.8298 19.76 13.5898 21.53 13.5898 22.7V43.34C13.5898 44.94 14.8998 46.25 16.4998 46.25H31.4798C33.0798 46.25 34.3898 44.94 34.3898 43.34V22.7C34.3898 21.53 34.1498 19.76 33.8498 18.67H33.8598ZM19.6098 3.85C19.6098 3.79 19.6498 3.75 19.7098 3.75H28.2998C28.3598 3.75 28.3998 3.79 28.3998 3.85V6.14C28.3998 6.2 28.3598 6.24 28.2998 6.24H19.7098C19.6498 6.24 19.6098 6.2 19.6098 6.14V3.85ZM32.3998 43.34C32.3998 43.84 31.9898 44.25 31.4898 44.25H16.5098C16.0098 44.25 15.5998 43.84 15.5998 43.34V22.7C15.5998 21.72 15.8098 20.12 16.0698 19.21C16.4598 17.8 16.9598 16.56 17.5598 15.54C19.6498 11.97 20.3398 9.55 20.5598 8.25H27.4398C27.6598 9.56 28.3498 11.97 30.4398 15.54C31.0398 16.56 31.5398 17.79 31.9298 19.21C32.1798 20.12 32.3998 21.72 32.3998 22.7V43.34Z" fill="#323232"/>
</svg>
