<svg width="48" height="48" viewBox="0 0 48 48" fill="none" xmlns="http://www.w3.org/2000/svg">
<path d="M41.5403 32.4902C41.1003 32.4902 40.6903 32.1902 40.5703 31.7402L38.9403 25.4802C38.0103 22.1202 36.7403 18.5102 33.5403 18.4802H33.5003C30.9503 18.4802 29.2603 20.6102 28.0203 25.3602L26.2703 31.6002C26.1203 32.1302 25.5703 32.4402 25.0403 32.2902C24.5103 32.1402 24.2003 31.5902 24.3503 31.0602L26.0903 24.8302C26.6803 22.5502 28.2703 16.4702 33.5003 16.4702C33.5203 16.4702 33.5403 16.4702 33.5603 16.4702C38.5303 16.5102 40.0603 22.0002 40.8803 24.9502L42.5103 31.2202C42.6503 31.7502 42.3303 32.3002 41.7903 32.4402C41.7103 32.4602 41.6203 32.4702 41.5403 32.4702V32.4902Z" fill="#323232"/>
<path d="M33.6393 14.3901H33.5793C31.8393 14.3701 30.2093 13.6801 28.9893 12.4401C27.7693 11.2001 27.1093 9.5601 27.1193 7.8101C27.1493 4.2401 30.0693 1.3501 33.6393 1.3501H33.6993C37.2893 1.3801 40.1893 4.3301 40.1593 7.9301C40.1393 9.6701 39.4493 11.3001 38.2093 12.5201C36.9792 13.7301 35.3593 14.3901 33.6493 14.3901H33.6393ZM33.6393 3.3501C31.1693 3.3501 29.1393 5.3501 29.1193 7.8301C29.1093 9.0401 29.5693 10.1801 30.4093 11.0401C31.2493 11.9001 32.3893 12.3801 33.5893 12.3901C34.7793 12.3901 35.9293 11.9401 36.7993 11.1001C37.6593 10.2501 38.1393 9.1201 38.1493 7.9201C38.1693 5.4301 36.1693 3.3801 33.6793 3.3601H33.6393V3.3501Z" fill="#323232"/>
<path d="M13.1803 14.3901H13.1203C11.3803 14.3701 9.75027 13.6801 8.53027 12.4401C7.31027 11.2001 6.65027 9.5501 6.66027 7.8101C6.69027 4.2401 9.61027 1.3501 13.1803 1.3501H13.2403C14.9803 1.3701 16.6103 2.0601 17.8303 3.3001C19.0503 4.5401 19.7103 6.1901 19.7003 7.9301C19.6803 9.6701 18.9903 11.3001 17.7503 12.5201C16.5203 13.7301 14.9003 14.3901 13.1903 14.3901H13.1803ZM13.1803 3.3501C10.7103 3.3501 8.68027 5.3501 8.66027 7.8301C8.65027 9.0401 9.11027 10.1801 9.95027 11.0401C10.8003 11.9001 11.9303 12.3801 13.1303 12.3901C14.3703 12.3901 15.4703 11.9401 16.3403 11.1001C17.2003 10.2501 17.6803 9.1201 17.6903 7.9201C17.7003 6.7101 17.2403 5.5701 16.4003 4.7101C15.5603 3.8501 14.4303 3.3701 13.2203 3.3601H13.1803V3.3501Z" fill="#323232"/>
<path d="M19.4706 32.5002C18.9206 32.5002 18.4706 32.0402 18.4806 31.4902L18.5806 19.9302C18.5806 19.0502 17.8806 18.3202 16.9906 18.3102L9.18063 18.2402H9.17063C8.29063 18.2402 7.58063 18.9502 7.57063 19.8302L7.47063 31.3902C7.47063 31.9402 7.02063 32.3802 6.47063 32.3802C5.92063 32.3802 5.47063 31.9202 5.48063 31.3702L5.58063 19.8202C5.58063 18.8602 5.97063 17.9602 6.66063 17.2802C7.35063 16.6002 8.20063 16.2402 9.22063 16.2502L17.0306 16.3202C19.0206 16.3402 20.6206 17.9702 20.6006 19.9502L20.5006 31.5102C20.5006 32.0602 20.0506 32.5002 19.5006 32.5002H19.4706Z" fill="#323232"/>
<path d="M12.8692 46.6501H12.8292C11.7492 46.6501 10.7292 46.2701 9.95915 45.6001C9.13915 44.8901 8.69915 43.9401 8.70915 42.9301L8.78915 30.6301C8.78915 30.0801 9.23915 29.6401 9.78915 29.6401C10.3392 29.6401 10.7892 30.0901 10.7792 30.6501L10.6992 42.9501C10.6992 43.3701 10.8992 43.7801 11.2592 44.1001C11.6692 44.4601 12.2292 44.6601 12.8392 44.6601C13.4892 44.6601 14.0092 44.4801 14.4292 44.1301C14.7992 43.8201 15.0092 43.4201 15.0092 42.9901L15.0892 30.6901C15.0892 30.1401 15.5392 29.7001 16.0892 29.7001C16.6392 29.7001 17.0892 30.1501 17.0792 30.7101L16.9992 43.0101C16.9992 44.0301 16.5292 44.9701 15.6992 45.6601C14.9292 46.3101 13.9192 46.6601 12.8492 46.6601L12.8692 46.6501Z" fill="#323232"/>
<path d="M33.3906 46.6501H33.3506C32.2706 46.6501 31.2506 46.2701 30.4806 45.6001C29.6606 44.8901 29.2206 43.9401 29.2306 42.9301L29.3106 30.6301C29.3106 30.0801 29.7606 29.6401 30.3106 29.6401C30.8606 29.6401 31.3106 30.0901 31.3006 30.6501L31.2206 42.9501C31.2206 43.3701 31.4206 43.7801 31.7806 44.1001C32.1906 44.4601 32.7506 44.6601 33.3606 44.6601C34.5806 44.6601 35.5206 43.9201 35.5306 42.9901L35.6106 30.6901C35.6106 30.1401 36.0606 29.7001 36.6106 29.7001C37.1606 29.7001 37.6106 30.1501 37.6006 30.7101L37.5206 43.0101C37.5006 45.0301 35.6506 46.6601 33.3806 46.6601L33.3906 46.6501Z" fill="#323232"/>
</svg>
