<svg width="48" height="48" viewBox="0 0 48 48" fill="none" xmlns="http://www.w3.org/2000/svg">
<path d="M24.0002 45.1201C23.7502 45.1201 23.5002 45.0301 23.3102 44.8401C22.7202 44.2801 8.91016 30.9101 8.91016 17.9601C8.91016 9.64012 15.6802 2.87012 24.0002 2.87012C32.3202 2.87012 39.0902 9.64012 39.0902 17.9601C39.0902 30.9201 25.2802 44.2801 24.6902 44.8401C24.5002 45.0301 24.2502 45.1201 24.0002 45.1201ZM24.0002 4.88012C16.7802 4.88012 10.9102 10.7501 10.9102 17.9701C10.9102 28.4801 21.2002 39.8301 24.0002 42.7101C26.7902 39.8201 37.0902 28.4801 37.0902 17.9701C37.0902 10.7501 31.2202 4.88012 24.0002 4.88012Z" fill="#323232"/>
<path d="M23.9998 24.9502C27.8602 24.9502 30.9898 21.8207 30.9898 17.9602C30.9898 14.0997 27.8602 10.9702 23.9998 10.9702C20.1393 10.9702 17.0098 14.0997 17.0098 17.9602C17.0098 21.8207 20.1393 24.9502 23.9998 24.9502Z" fill="#DF0000"/>
</svg>
