<svg width="48" height="48" viewBox="0 0 48 48" fill="none" xmlns="http://www.w3.org/2000/svg">
<path d="M19.6699 35.9004C19.1199 35.9004 18.6699 35.4504 18.6699 34.9004C18.6699 34.3504 19.1199 33.9004 19.6699 33.9004H28.3399C28.8899 33.9004 29.3399 34.3404 29.3399 34.9004C29.3399 35.4604 28.8899 35.9004 28.3399 35.9004H19.6699Z" fill="#DF0000"/>
<path d="M14.1588 33.04C13.1288 33.04 12.2988 33.87 12.2988 34.9C12.2988 35.93 13.1288 36.76 14.1588 36.76C15.1888 36.76 16.0188 35.93 16.0188 34.9C16.0188 33.87 15.1888 33.04 14.1588 33.04Z" fill="#323232"/>
<path d="M34.11 32.6602C33.08 32.6602 32.25 33.4902 32.25 34.5202C32.25 35.5502 33.08 36.3802 34.11 36.3802C35.14 36.3802 35.97 35.5502 35.97 34.5202C35.97 33.4902 35.14 32.6602 34.11 32.6602Z" fill="#323232"/>
<path d="M41.9591 26.2804C42.0991 25.5404 40.7191 24.2204 39.3391 24.4504C38.5691 24.5804 37.7991 25.1904 37.5991 25.9004L36.8491 24.8304C36.5291 24.3804 35.9091 24.2704 35.4591 24.5804C35.0091 24.9004 34.8991 25.5204 35.2091 25.9704L36.5291 27.8604H11.4291L14.1891 23.8904C14.5191 23.4304 15.0591 23.1504 15.6391 23.1504H22.9891C23.5391 23.1504 23.9891 22.7004 23.9891 22.1504C23.9891 21.6004 23.5391 21.1504 22.9891 21.1504H15.6391C14.4091 21.1504 13.2591 21.7504 12.5491 22.7504L10.3791 25.8704C10.1591 25.1704 9.40912 24.5804 8.65912 24.4504C7.27912 24.2204 5.89912 25.5404 6.03912 26.2804C6.17912 27.0504 8.03912 27.6404 9.28912 27.4404L7.92912 29.3904C7.88912 29.4504 7.87912 29.5104 7.84912 29.5704C7.45912 30.1504 7.23912 30.8204 7.23912 31.5204V38.2904C7.23912 39.8304 8.27912 41.1504 9.72912 41.6804V43.7204C9.72912 45.0704 10.8291 46.1704 12.1791 46.1704H13.8891C15.2391 46.1704 16.3391 45.0704 16.3391 43.7204V41.9404H31.9391L31.9291 43.7504C31.9291 45.1104 32.7891 46.1704 33.8891 46.1704H36.5791C37.6791 46.1704 38.5391 45.1104 38.5391 43.7504V41.5604C38.9191 41.3904 39.2791 41.1804 39.5791 40.9004C40.3391 40.2104 40.7591 39.2804 40.7591 38.2904V31.5204C40.7591 30.7404 40.4891 30.0204 40.0391 29.4304C40.0391 29.4204 40.0291 29.4004 40.0191 29.3804L38.6591 27.4304C39.9091 27.6504 41.8091 27.0604 41.9491 26.2804H41.9591ZM14.3391 43.7204C14.3391 43.9704 14.1391 44.1704 13.8891 44.1704H12.1791C11.9291 44.1704 11.7291 43.9704 11.7291 43.7204V41.9404H14.3391V43.7204ZM36.4391 44.1704H34.0191C33.9791 44.0904 33.9291 43.9504 33.9291 43.7504V41.9304H36.5391V43.7504C36.5391 43.9504 36.4791 44.1004 36.4391 44.1704ZM38.2291 39.4104C37.8691 39.7404 37.3791 39.9304 36.8491 39.9304H11.1491C10.0991 39.9304 9.23912 39.1904 9.23912 38.2804V31.5104C9.23912 31.0904 9.41912 30.6804 9.75912 30.3804C10.1191 30.0504 10.6091 29.8604 11.1391 29.8604H36.8291C37.8791 29.8604 38.7391 30.6004 38.7391 31.5104V38.2804C38.7391 38.7004 38.5591 39.1104 38.2191 39.4104H38.2291Z" fill="#323232"/>
<path d="M34.55 19.4404C34.55 16.6104 32.88 16.5104 32.67 14.3804C32.63 13.9404 32.1 13.7604 31.81 14.0904C30.57 15.5504 28.13 17.9504 30.46 21.8504C30.69 22.2404 30.36 22.7204 29.93 22.6004C24.71 21.1704 23.41 16.7404 25.2 12.2504C25.77 10.8304 25.83 9.46037 25.79 8.59037C25.77 8.16037 26.28 7.91037 26.6 8.20037C27.35 8.88037 27.71 9.96037 27.88 10.8304C27.97 11.2904 28.61 11.3604 28.8 10.9404C29.65 9.12037 28.97 7.95037 29.63 6.04037C30.07 4.76037 31.13 3.91037 31.99 3.41037C32.36 3.19037 32.82 3.51037 32.72 3.93037C32.38 5.34037 32.85 7.32037 34.51 9.04037C35.88 10.4604 36.3 12.0304 36.42 13.0004C36.47 13.4204 37 13.6004 37.27 13.2804C38.16 12.2204 37.88 10.6504 37.51 9.56037C37.36 9.11037 37.89 8.73037 38.28 9.02037C40.75 10.8604 41.31 14.8104 39.66 18.4704C38.16 21.7904 35.39 22.6204 34.02 22.8204C33.72 22.8604 33.51 22.5604 33.64 22.2904C33.89 21.7904 34.55 20.9204 34.55 19.4404Z" fill="#DF0000"/>
</svg>
