<svg width="24" height="24" viewBox="0 0 24 24" fill="none" xmlns="http://www.w3.org/2000/svg">
<g clip-path="url(#clip0_16008_197)">
<g style="mix-blend-mode:multiply">
<path d="M7.31599 18.9924H22L8.35688 5.00378H2L7.31599 18.9924Z" fill="#8D183C"/>
</g>
<path d="M15.4833 16.5634C15.1004 16.5102 14.71 16.4835 14.342 16.3315C13.6543 16.0426 13.0743 15.6017 12.5465 15.0733C11.565 14.0964 10.8178 12.9446 10.1152 11.7548C9.73977 11.12 9.37174 10.4814 8.96654 9.86557C8.26393 8.80502 7.39405 7.91933 6.27137 7.31873C5.23791 6.76375 4.12639 6.54328 2.97025 6.56988C2.85873 6.56988 2.74721 6.57749 2.63568 6.58889L3.22304 8.1284C3.53159 8.29945 3.83271 8.49332 4.12639 8.71379C5.33085 9.62229 6.25278 10.7893 6.99628 12.1007C8.01858 13.9025 9.33457 15.4268 10.9851 16.6432C11.0186 16.666 11.0483 16.6964 11.0929 16.7344C10.0743 16.8105 9.08178 16.685 8.20817 16.0996C7.50557 15.6283 6.75092 15.3052 5.90706 15.1949L6.34572 16.3505C6.69144 16.4835 7.02602 16.647 7.35687 16.8257C8.96654 17.6999 10.6543 18.1371 12.487 17.9052C13.4275 17.7874 14.2974 17.4909 15.0818 16.9435C15.2379 16.8333 15.3792 16.7078 15.5465 16.5786C15.5056 16.5672 15.4944 16.5596 15.4795 16.5596L15.4833 16.5634Z" fill="white"/>
<path d="M13.2305 14.5677C13.2045 13.3893 13.3606 12.2642 13.8885 11.1998C13.948 11.0782 14.0112 10.9565 14.0781 10.8349L12.171 8.88104C11.6394 9.99861 11.5167 11.3405 11.974 12.7127C12.2193 13.4463 12.6543 14.0469 13.2305 14.5677Z" fill="white"/>
<g style="mix-blend-mode:color-burn">
<mask id="mask0_16008_197" style="mask-type:luminance" maskUnits="userSpaceOnUse" x="11" y="8" width="4" height="4">
<path d="M12.5204 10.1165C12.9294 10.5726 13.3457 11.025 13.7621 11.4735C13.803 11.3823 13.8439 11.2911 13.8885 11.1998C13.9331 11.1086 14.0112 10.9565 14.0781 10.8349L12.171 8.87726C12.0818 9.06352 12.0037 9.26118 11.9405 9.45885C12.1338 9.67552 12.3271 9.89599 12.5242 10.1127H12.5204V10.1165Z" fill="white"/>
</mask>
<g mask="url(#mask0_16008_197)">
<path d="M11.9405 9.01409L11.974 8.97607L14.0781 11.044V11.2454L13.8662 11.4735H11.9405V9.01409Z" fill="white"/>
<path d="M11.974 8.97609L11.9777 8.97229L14.0781 11.0402V11.044L11.974 8.97609Z" fill="white"/>
<path d="M11.9777 8.97229L14.0781 11.0364V11.0402L11.9777 8.97229Z" fill="#FEFEFE"/>
<path d="M11.9777 8.97231L11.9814 8.96851L14.0781 11.0288V11.0364L11.9777 8.97231Z" fill="#FDFDFD"/>
<path d="M11.9814 8.96846L11.9851 8.96466L14.0781 11.0249V11.0287L11.9814 8.96846Z" fill="#FCFCFC"/>
<path d="M11.9851 8.96466L14.0781 11.0211V11.0249L11.9851 8.96466Z" fill="#FBFBFB"/>
<path d="M11.9851 8.96468L11.9889 8.96088L14.0781 11.0136V11.0212L11.9851 8.96468Z" fill="#FAFAFA"/>
<path d="M11.9889 8.96089L11.9926 8.95709L14.0781 11.0098V11.0136L11.9889 8.96089Z" fill="#F9F9F9"/>
<path d="M11.9926 8.95709L14.0781 11.006V11.0098L11.9926 8.95709Z" fill="#F8F8F8"/>
<path d="M11.9926 8.95711L11.9963 8.95331L14.0781 11.0022V11.006L11.9926 8.95711Z" fill="#F7F7F7"/>
<path d="M11.9963 8.95331L14.0781 10.9946V11.0022L11.9963 8.95331Z" fill="#F6F6F6"/>
<path d="M11.9963 8.95326L12 8.94946L14.0781 10.9907V10.9945L11.9963 8.95326Z" fill="#F5F5F5"/>
<path d="M12 8.94948L12.0037 8.94568L14.0781 10.9869V10.9908L12 8.94948Z" fill="#F4F4F4"/>
<path d="M12.0037 8.94568L14.0781 10.9831V10.9869L12.0037 8.94568Z" fill="#F3F3F3"/>
<path d="M12.0037 8.9457L12.0074 8.94189L14.0781 10.9756V10.9832L12.0037 8.9457Z" fill="#F2F2F2"/>
<path d="M12.0074 8.94185L12.0112 8.93805L14.0781 10.9717V10.9755L12.0074 8.94185Z" fill="#F1F1F1"/>
<path d="M12.0111 8.93805L14.0781 10.9679V10.9717L12.0111 8.93805Z" fill="#F0F0F0"/>
<path d="M12.0111 8.93807L12.0149 8.93427L14.0781 10.9641V10.9679L12.0111 8.93807Z" fill="#EFEFEF"/>
<path d="M12.0149 8.93428V8.93048L14.0781 10.9565V10.9641L12.0149 8.93428Z" fill="#EEEEEE"/>
<path d="M12.0149 8.93048H12.0186L14.0781 10.9527V10.9565L12.0149 8.93048Z" fill="#EDEDED"/>
<path d="M12.0186 8.9305L12.0223 8.9267L14.0781 10.949V10.9528L12.0186 8.9305Z" fill="#ECECEC"/>
<path d="M12.0223 8.92665V8.92285L14.0781 10.9451V10.9489L12.0223 8.92665Z" fill="#EBEBEB"/>
<path d="M12.0223 8.92285H12.026L14.0781 10.9375V10.9451L12.0223 8.92285Z" fill="#EAEAEA"/>
<path d="M12.026 8.92287L12.0297 8.91907L14.0781 10.9337V10.9375L12.026 8.92287Z" fill="#E9E9E9"/>
<path d="M12.0298 8.91908V8.91528L14.0781 10.9299V10.9337L12.0298 8.91908Z" fill="#E8E8E8"/>
<path d="M12.0298 8.91528H12.0335L14.0781 10.9261V10.9299L12.0298 8.91528Z" fill="#E7E7E7"/>
<path d="M12.0334 8.9153V8.9115L14.0781 10.9186V10.9262L12.0334 8.9153Z" fill="#E6E6E6"/>
<path d="M12.0334 8.91145L12.0372 8.90765L14.0781 10.9147V10.9185L12.0334 8.91145Z" fill="#E5E5E5"/>
<path d="M12.0372 8.90765H12.0409L14.0781 10.9109V10.9147L12.0372 8.90765Z" fill="#E4E4E4"/>
<path d="M12.0409 8.90767V8.90387L14.0781 10.9071V10.9109L12.0409 8.90767Z" fill="#E3E3E3"/>
<path d="M12.0409 8.90387H12.0446L14.0781 10.8995V10.9071L12.0409 8.90387Z" fill="#E2E2E2"/>
<path d="M12.0446 8.90389L12.0483 8.90009L14.0781 10.8957V10.8995L12.0446 8.90389Z" fill="#E1E1E1"/>
<path d="M12.0483 8.90004V8.89624L14.0781 10.8919V10.8957L12.0483 8.90004Z" fill="#E0E0E0"/>
<path d="M12.0483 8.89624H12.0521L14.0781 10.8881V10.8919L12.0483 8.89624Z" fill="#DFDFDF"/>
<path d="M12.052 8.89626V8.89246L14.0781 10.8805V10.8881L12.052 8.89626Z" fill="#DEDEDE"/>
<path d="M12.052 8.89247L12.0558 8.88867L14.0781 10.8767V10.8805L12.052 8.89247Z" fill="#DDDDDD"/>
<path d="M12.0558 8.88867H12.0595L14.0781 10.8729V10.8767L12.0558 8.88867Z" fill="#DCDCDC"/>
<path d="M12.0595 8.88869V8.88489L14.0781 10.8691V10.8729L12.0595 8.88869Z" fill="#DBDBDB"/>
<path d="M12.0595 8.88484L12.0632 8.88104L14.0781 10.8615V10.8691L12.0595 8.88484Z" fill="#DADADA"/>
<path d="M12.0632 8.88104H12.0669L14.0781 10.8577V10.8615L12.0632 8.88104Z" fill="#D9D9D9"/>
<path d="M12.0669 8.88106V8.87726L14.0781 10.8539V10.8577L12.0669 8.88106Z" fill="#D8D8D8"/>
<path d="M12.0669 8.87726H12.0744L14.0781 10.8501V10.8539L12.0669 8.87726Z" fill="#D7D7D7"/>
<path d="M12.0781 8.87726L14.0781 10.8425V10.8501L12.0743 8.87726H12.0781Z" fill="#D6D6D6"/>
<path d="M12.0818 8.87726L14.0781 10.8387V10.8425L12.0781 8.87726H12.0818Z" fill="#D5D5D5"/>
<path d="M12.0855 8.87726L14.0781 10.8349V10.8387L12.0818 8.87726H12.0855Z" fill="#D4D4D4"/>
<path d="M12.0929 8.87726L14.0781 10.8311V10.8349L12.0855 8.87726H12.0929Z" fill="#D3D3D3"/>
<path d="M12.0966 8.87726L14.0781 10.8235V10.8311L12.0929 8.87726H12.0966Z" fill="#D2D2D2"/>
<path d="M12.1004 8.87726L14.0781 10.8197V10.8235L12.0966 8.87726H12.1004Z" fill="#D1D1D1"/>
<path d="M12.1078 8.87726L14.0781 10.8159V10.8197L12.1004 8.87726H12.1078Z" fill="#D0D0D0"/>
<path d="M12.1115 8.87726L14.0781 10.8121V10.8159L12.1078 8.87726H12.1115Z" fill="#CFCFCF"/>
<path d="M12.1152 8.87726L14.0781 10.8045V10.8121L12.1115 8.87726H12.1152Z" fill="#CECECE"/>
<path d="M12.1227 8.87726L14.0781 10.8007V10.8045L12.1152 8.87726H12.1227Z" fill="#CDCDCD"/>
<path d="M12.1264 8.87726L14.0781 10.7969V10.8007L12.1227 8.87726H12.1264Z" fill="#CCCCCC"/>
<path d="M12.1301 8.87726L14.0781 10.7931V10.7969L12.1264 8.87726H12.1301Z" fill="#CBCBCB"/>
<path d="M12.1338 8.87726L14.0781 10.7855V10.7931L12.1301 8.87726H12.1338Z" fill="#CACACA"/>
<path d="M12.1413 8.87726L14.0781 10.7817V10.7855L12.1338 8.87726H12.1413Z" fill="#C9C9C9"/>
<path d="M12.145 8.87726L14.0781 10.7779V10.7817L12.1413 8.87726H12.145Z" fill="#C8C8C8"/>
<path d="M12.1487 8.87726L14.0781 10.7741V10.7779L12.145 8.87726H12.1487Z" fill="#C7C7C7"/>
<path d="M12.1561 8.87726L14.0781 10.7665V10.7741L12.1487 8.87726H12.1561Z" fill="#C6C6C6"/>
<path d="M12.1598 8.87726L14.0781 10.7627V10.7665L12.1561 8.87726H12.1598Z" fill="#C5C5C5"/>
<path d="M12.1636 8.87726L14.0781 10.7589V10.7627L12.1599 8.87726H12.1636Z" fill="#C4C4C4"/>
<path d="M12.171 8.87726L14.0781 10.7551V10.7589L12.1636 8.87726H12.171Z" fill="#C3C3C3"/>
<path d="M12.1747 8.87726L14.0781 10.7475V10.7551L12.171 8.87726H12.1747Z" fill="#C2C2C2"/>
<path d="M12.1784 8.87726L14.0781 10.7437V10.7475L12.1747 8.87726H12.1784Z" fill="#C1C1C1"/>
<path d="M12.1859 8.87726L14.0781 10.7399V10.7437L12.1784 8.87726H12.1859Z" fill="#C0C0C0"/>
<path d="M12.1896 8.87726L14.0781 10.7361V10.7399L12.1859 8.87726H12.1896Z" fill="#BFBFBF"/>
<path d="M12.1933 8.87726L14.0781 10.7285V10.7361L12.1896 8.87726H12.1933Z" fill="#BEBEBE"/>
<path d="M12.197 8.87726L14.0781 10.7247V10.7285L12.1933 8.87726H12.197Z" fill="#BDBDBD"/>
<path d="M12.2045 8.87726L14.0781 10.7209V10.7247L12.197 8.87726H12.2045Z" fill="#BCBCBC"/>
<path d="M12.2082 8.87726L14.0781 10.7171V10.7209L12.2045 8.87726H12.2082Z" fill="#BBBBBB"/>
<path d="M12.2119 8.87726L14.0781 10.7095V10.7171L12.2082 8.87726H12.2119Z" fill="#BABABA"/>
<path d="M12.2193 8.87726L14.0781 10.7057V10.7095L12.2119 8.87726H12.2193Z" fill="#B9B9B9"/>
<path d="M12.223 8.87726L14.0781 10.7019V10.7057L12.2193 8.87726H12.223Z" fill="#B8B8B8"/>
<path d="M12.2268 8.87726L14.0781 10.6981V10.7019L12.2231 8.87726H12.2268Z" fill="#B7B7B7"/>
<path d="M12.2342 8.87726L14.0781 10.6905V10.6981L12.2268 8.87726H12.2342Z" fill="#B6B6B6"/>
<path d="M12.2379 8.87726L14.0781 10.6867V10.6905L12.2342 8.87726H12.2379Z" fill="#B5B5B5"/>
<path d="M12.2416 8.87726L14.0781 10.6829V10.6867L12.2379 8.87726H12.2416Z" fill="#B4B4B4"/>
<path d="M12.2454 8.87726L14.0781 10.6791V10.6829L12.2416 8.87726H12.2454Z" fill="#B3B3B3"/>
<path d="M12.2528 8.87726L14.0781 10.6714V10.6791L12.2454 8.87726H12.2528Z" fill="#B2B2B2"/>
<path d="M12.2565 8.87726L14.0781 10.6676V10.6714L12.2528 8.87726H12.2565Z" fill="#B1B1B1"/>
<path d="M12.2602 8.87726L14.0781 10.6638V10.6676L12.2565 8.87726H12.2602Z" fill="#B0B0B0"/>
<path d="M12.2677 8.87726L14.0781 10.66V10.6638L12.2602 8.87726H12.2677Z" fill="#AFAFAF"/>
<path d="M12.2714 8.87726L14.0781 10.6524V10.66L12.2677 8.87726H12.2714Z" fill="#AEAEAE"/>
<path d="M12.2751 8.87726L14.0781 10.6486V10.6524L12.2714 8.87726H12.2751Z" fill="#ADADAD"/>
<path d="M12.2825 8.87726L14.0781 10.6448V10.6486L12.2751 8.87726H12.2825Z" fill="#ACACAC"/>
<path d="M12.2862 8.87726L14.0781 10.641V10.6448L12.2825 8.87726H12.2862Z" fill="#ABABAB"/>
<path d="M12.29 8.87726L14.0781 10.6334V10.641L12.2863 8.87726H12.29Z" fill="#AAAAAA"/>
<path d="M12.2937 8.87726L14.0781 10.6296V10.6334L12.29 8.87726H12.2937Z" fill="#A9A9A9"/>
<path d="M12.3011 8.87726L14.0781 10.6258V10.6296L12.2937 8.87726H12.3011Z" fill="#A8A8A8"/>
<path d="M12.3048 8.87726L14.0781 10.622V10.6258L12.3011 8.87726H12.3048Z" fill="#A7A7A7"/>
<path d="M12.3086 8.87726L14.0781 10.6144V10.622L12.3048 8.87726H12.3086Z" fill="#A6A6A6"/>
<path d="M12.316 8.87726L14.0781 10.6106V10.6144L12.3086 8.87726H12.316Z" fill="#A5A5A5"/>
<path d="M12.3197 8.87726L14.0781 10.6068V10.6106L12.316 8.87726H12.3197Z" fill="#A4A4A4"/>
<path d="M12.3234 8.87726L14.0781 10.603V10.6068L12.3197 8.87726H12.3234Z" fill="#A3A3A3"/>
<path d="M12.3309 8.87726L14.0781 10.5954V10.603L12.3234 8.87726H12.3309Z" fill="#A2A2A2"/>
<path d="M12.3346 8.87726L14.0781 10.5916V10.5954L12.3308 8.87726H12.3346Z" fill="#A1A1A1"/>
<path d="M12.3383 8.87726L14.0781 10.5878V10.5916L12.3346 8.87726H12.3383Z" fill="#A0A0A0"/>
<path d="M12.3457 8.87726L14.0781 10.5802V10.5878L12.3383 8.87726H12.3457Z" fill="#9F9F9F"/>
<path d="M12.3495 8.87726L14.0781 10.5764V10.5802L12.3457 8.87726H12.3495Z" fill="#9E9E9E"/>
<path d="M12.3532 8.87726L14.0781 10.5726V10.5764L12.3495 8.87726H12.3532Z" fill="#9D9D9D"/>
<path d="M12.3569 8.87726L14.0781 10.5688V10.5726L12.3531 8.87726H12.3569Z" fill="#9C9C9C"/>
<path d="M12.3643 8.87726L14.0781 10.5612V10.5688L12.3569 8.87726H12.3643Z" fill="#9B9B9B"/>
<path d="M12.368 8.87726L14.0781 10.5574V10.5612L12.3643 8.87726H12.368Z" fill="#9A9A9A"/>
<path d="M12.3718 8.87726L14.0781 10.5536V10.5574L12.368 8.87726H12.3718Z" fill="#999999"/>
<path d="M12.3792 8.87726L14.0781 10.5498V10.5536L12.3717 8.87726H12.3792Z" fill="#989898"/>
<path d="M12.3829 8.87726L14.0781 10.5422V10.5498L12.3792 8.87726H12.3829Z" fill="#979797"/>
<path d="M12.3866 8.87726L14.0781 10.5384V10.5422L12.3829 8.87726H12.3866Z" fill="#969696"/>
<path d="M12.3941 8.87726L14.0781 10.5346V10.5384L12.3866 8.87726H12.3941Z" fill="#959595"/>
<path d="M12.3978 8.87726L14.0781 10.5308V10.5346L12.394 8.87726H12.3978Z" fill="#949494"/>
<path d="M12.4015 8.87726L14.0781 10.5232V10.5308L12.3978 8.87726H12.4015Z" fill="#939393"/>
<path d="M12.4052 8.87726L14.0781 10.5194V10.5232L12.4015 8.87726H12.4052Z" fill="#929292"/>
<path d="M12.4126 8.87726L14.0781 10.5156V10.5194L12.4052 8.87726H12.4126Z" fill="#919191"/>
<path d="M12.4163 8.87726L14.0781 10.5118V10.5156L12.4126 8.87726H12.4163Z" fill="#909090"/>
<path d="M12.4201 8.87726L14.0781 10.5042V10.5118L12.4164 8.87726H12.4201Z" fill="#8F8F8F"/>
<path d="M12.4275 8.87726L14.0781 10.5004V10.5042L12.4201 8.87726H12.4275Z" fill="#8E8E8E"/>
<path d="M12.4312 8.87726L14.0781 10.4966V10.5004L12.4275 8.87726H12.4312Z" fill="#8D8D8D"/>
<path d="M12.4349 8.87726L14.0781 10.4928V10.4966L12.4312 8.87726H12.4349Z" fill="#8C8C8C"/>
<path d="M12.4424 8.87726L14.0781 10.4852V10.4928L12.4349 8.87726H12.4424Z" fill="#8B8B8B"/>
<path d="M12.4461 8.87726L14.0781 10.4814V10.4852L12.4424 8.87726H12.4461Z" fill="#8A8A8A"/>
<path d="M12.4498 8.87726L14.0781 10.4776V10.4814L12.4461 8.87726H12.4498Z" fill="#898989"/>
<path d="M12.4535 8.87726L14.0781 10.4738V10.4776L12.4498 8.87726H12.4535Z" fill="#888888"/>
<path d="M12.461 8.87726L14.0781 10.4662V10.4738L12.4535 8.87726H12.461Z" fill="#878787"/>
<path d="M12.4647 8.87726L14.0781 10.4624V10.4662L12.461 8.87726H12.4647Z" fill="#868686"/>
<path d="M12.4684 8.87726L14.0781 10.4586V10.4624L12.4647 8.87726H12.4684Z" fill="#858585"/>
<path d="M12.4758 8.87726L14.0781 10.4548V10.4586L12.4684 8.87726H12.4758Z" fill="#848484"/>
<path d="M12.4795 8.87726L14.0781 10.4472V10.4548L12.4758 8.87726H12.4795Z" fill="#838383"/>
<path d="M12.4833 8.87726L14.0781 10.4434V10.4472L12.4796 8.87726H12.4833Z" fill="#828282"/>
<path d="M12.4907 8.87726L14.0781 10.4396V10.4434L12.4833 8.87726H12.4907Z" fill="#818181"/>
<path d="M12.4944 8.87726L14.0781 10.4358V10.4396L12.4907 8.87726H12.4944Z" fill="#808080"/>
<path d="M12.4981 8.87726L14.0781 10.4282V10.4358L12.4944 8.87726H12.4981Z" fill="#7E7E7E"/>
<path d="M12.5056 8.87726L14.0781 10.4244V10.4282L12.4981 8.87726H12.5056Z" fill="#7D7D7D"/>
<path d="M12.5093 8.87726L14.0781 10.4206V10.4244L12.5056 8.87726H12.5093Z" fill="#7C7C7C"/>
<path d="M12.513 8.87726L14.0781 10.4168V10.4206L12.5093 8.87726H12.513Z" fill="#7B7B7B"/>
<path d="M12.5167 8.87726L14.0781 10.4092V10.4168L12.513 8.87726H12.5167Z" fill="#7A7A7A"/>
<path d="M12.5242 8.87726L14.0781 10.4054V10.4092L12.5167 8.87726H12.5242Z" fill="#797979"/>
<path d="M12.5279 8.87726L14.0781 10.4016V10.4054L12.5242 8.87726H12.5279Z" fill="#787878"/>
<path d="M12.5316 8.87726L14.0781 10.3978V10.4016L12.5279 8.87726H12.5316Z" fill="#777777"/>
<path d="M12.539 8.87726L14.0781 10.3902V10.3978L12.5316 8.87726H12.539Z" fill="#767676"/>
<path d="M12.5427 8.87726L14.0781 10.3864V10.3902L12.539 8.87726H12.5427Z" fill="#757575"/>
<path d="M12.5465 8.87726L14.0781 10.3826V10.3864L12.5428 8.87726H12.5465Z" fill="#747474"/>
<path d="M12.5539 8.87726L14.0781 10.3788V10.3826L12.5465 8.87726H12.5539Z" fill="#737373"/>
<path d="M12.5576 8.87726L14.0781 10.3711V10.3788L12.5539 8.87726H12.5576Z" fill="#727272"/>
<path d="M12.5613 8.87726L14.0781 10.3673V10.3711L12.5576 8.87726H12.5613Z" fill="#717171"/>
<path d="M12.5651 8.87726L14.0781 10.3635V10.3673L12.5613 8.87726H12.5651Z" fill="#707070"/>
<path d="M12.5725 8.87726L14.0781 10.3597V10.3635L12.5651 8.87726H12.5725Z" fill="#6F6F6F"/>
<path d="M12.5762 8.87726L14.0781 10.3521V10.3597L12.5725 8.87726H12.5762Z" fill="#6E6E6E"/>
<path d="M12.5799 8.87726L14.0781 10.3483V10.3521L12.5762 8.87726H12.5799Z" fill="#6D6D6D"/>
<path d="M12.5874 8.87726L14.0781 10.3445V10.3483L12.5799 8.87726H12.5874Z" fill="#6C6C6C"/>
<path d="M12.5911 8.87726L14.0781 10.3407V10.3445L12.5874 8.87726H12.5911Z" fill="#6B6B6B"/>
<path d="M12.5948 8.87726L14.0781 10.3331V10.3407L12.5911 8.87726H12.5948Z" fill="#6A6A6A"/>
<path d="M12.6022 8.87726L14.0781 10.3293V10.3331L12.5948 8.87726H12.6022Z" fill="#696969"/>
<path d="M12.606 8.87726L14.0781 10.3255V10.3293L12.6022 8.87726H12.606Z" fill="#686868"/>
<path d="M12.6097 8.87726L14.0781 10.3217V10.3255L12.606 8.87726H12.6097Z" fill="#676767"/>
<path d="M12.6134 8.87726L14.0781 10.3141V10.3217L12.6097 8.87726H12.6134Z" fill="#666666"/>
<path d="M12.6208 8.87726L14.0781 10.3103V10.3141L12.6134 8.87726H12.6208Z" fill="#656565"/>
<path d="M12.6245 8.87726L14.0781 10.3065V10.3103L12.6208 8.87726H12.6245Z" fill="#646464"/>
<path d="M12.6283 8.87726L14.0781 10.3027V10.3065L12.6245 8.87726H12.6283Z" fill="#636363"/>
<path d="M12.6357 8.87726L14.0781 10.2951V10.3027L12.6283 8.87726H12.6357Z" fill="#626262"/>
<path d="M12.6394 8.87726L14.0781 10.2913V10.2951L12.6357 8.87726H12.6394Z" fill="#616161"/>
<path d="M12.6431 8.87726L14.0781 10.2875V10.2913L12.6394 8.87726H12.6431Z" fill="#606060"/>
<path d="M12.6506 8.87726L14.0781 10.2837V10.2875L12.6431 8.87726H12.6506Z" fill="#5F5F5F"/>
<path d="M12.6543 8.87726L14.0781 10.2761V10.2837L12.6506 8.87726H12.6543Z" fill="#5E5E5E"/>
<path d="M12.658 8.87726L14.0781 10.2723V10.2761L12.6543 8.87726H12.658Z" fill="#5D5D5D"/>
<path d="M12.6654 8.87726L14.0781 10.2685V10.2723L12.658 8.87726H12.6654Z" fill="#5C5C5C"/>
<path d="M12.6692 8.87726L14.0781 10.2647V10.2685L12.6654 8.87726H12.6692Z" fill="#5B5B5B"/>
<path d="M12.6729 8.87726L14.0781 10.2571V10.2647L12.6692 8.87726H12.6729Z" fill="#5A5A5A"/>
<path d="M12.6766 8.87726L14.0781 10.2533V10.2571L12.6729 8.87726H12.6766Z" fill="#595959"/>
<path d="M12.684 8.87726L14.0781 10.2495V10.2533L12.6766 8.87726H12.684Z" fill="#585858"/>
<path d="M12.6877 8.87726L14.0781 10.2457V10.2495L12.684 8.87726H12.6877Z" fill="#575757"/>
<path d="M12.6915 8.87726L14.0781 10.2381V10.2457L12.6877 8.87726H12.6915Z" fill="#565656"/>
<path d="M12.6989 8.87726L14.0781 10.2343V10.2381L12.6914 8.87726H12.6989Z" fill="#555555"/>
<path d="M12.7026 8.87726L14.0781 10.2305V10.2343L12.6989 8.87726H12.7026Z" fill="#545454"/>
<path d="M12.7063 8.87726L14.0781 10.2267V10.2305L12.7026 8.87726H12.7063Z" fill="#535353"/>
<path d="M12.7138 8.87726L14.0781 10.2191V10.2267L12.7063 8.87726H12.7138Z" fill="#525252"/>
<path d="M12.7175 8.87726L14.0781 10.2153V10.2191L12.7137 8.87726H12.7175Z" fill="#515151"/>
<path d="M12.7212 8.87726L14.0781 10.2115V10.2153L12.7175 8.87726H12.7212Z" fill="#505050"/>
<path d="M12.7249 8.87726L14.0781 10.2077V10.2115L12.7212 8.87726H12.7249Z" fill="#4F4F4F"/>
<path d="M12.7323 8.87726L14.0781 10.2001V10.2077L12.7249 8.87726H12.7323Z" fill="#4E4E4E"/>
<path d="M12.736 8.87726L14.0781 10.1963V10.2001L12.7323 8.87726H12.736Z" fill="#4D4D4D"/>
<path d="M12.7398 8.87726L14.0781 10.1925V10.1963L12.7361 8.87726H12.7398Z" fill="#4C4C4C"/>
<path d="M12.7472 8.87726L14.0781 10.1887V10.1925L12.7398 8.87726H12.7472Z" fill="#4B4B4B"/>
<path d="M12.7509 8.87726L14.0781 10.1811V10.1887L12.7472 8.87726H12.7509Z" fill="#4A4A4A"/>
<path d="M12.7546 8.87726L14.0781 10.1773V10.1811L12.7509 8.87726H12.7546Z" fill="#494949"/>
<path d="M12.7621 8.87726L14.0781 10.1735V10.1773L12.7546 8.87726H12.7621Z" fill="#484848"/>
<path d="M12.7658 8.87726L14.0781 10.1697V10.1735L12.7621 8.87726H12.7658Z" fill="#474747"/>
<path d="M12.7695 8.87726L14.0781 10.1621V10.1697L12.7658 8.87726H12.7695Z" fill="#464646"/>
<path d="M12.7732 8.87726L14.0781 10.1583V10.1621L12.7695 8.87726H12.7732Z" fill="#454545"/>
<path d="M12.7807 8.87726L14.0781 10.1545V10.1583L12.7732 8.87726H12.7807Z" fill="#444444"/>
<path d="M12.7844 8.87726L14.0781 10.1469V10.1545L12.7807 8.87726H12.7844Z" fill="#434343"/>
<path d="M12.7881 8.87726L14.0781 10.1431V10.1469L12.7844 8.87726H12.7881Z" fill="#424242"/>
<path d="M12.7956 8.87726L14.0781 10.1393V10.1431L12.7881 8.87726H12.7956Z" fill="#414141"/>
<path d="M12.7992 8.87726L14.0781 10.1355V10.1393L12.7955 8.87726H12.7992Z" fill="#404040"/>
<path d="M12.803 8.87726L14.0781 10.1279V10.1355L12.7993 8.87726H12.803Z" fill="#3F3F3F"/>
<path d="M12.8104 8.87726L14.0781 10.1241V10.1279L12.803 8.87726H12.8104Z" fill="#3E3E3E"/>
<path d="M12.8141 8.87726L14.0781 10.1203V10.1241L12.8104 8.87726H12.8141Z" fill="#3D3D3D"/>
<path d="M12.8178 8.87726L14.0781 10.1165V10.1203L12.8141 8.87726H12.8178Z" fill="#3C3C3C"/>
<path d="M12.8253 8.87726L14.0781 10.1089V10.1165L12.8178 8.87726H12.8253Z" fill="#3B3B3B"/>
<path d="M12.829 8.87726L14.0781 10.1051V10.1089L12.8253 8.87726H12.829Z" fill="#3A3A3A"/>
<path d="M12.8327 8.87726L14.0781 10.1013V10.1051L12.829 8.87726H12.8327Z" fill="#393939"/>
<path d="M12.8364 8.87726L14.0781 10.0975V10.1013L12.8327 8.87726H12.8364Z" fill="#383838"/>
<path d="M12.8439 8.87726L14.0781 10.0899V10.0975L12.8364 8.87726H12.8439Z" fill="#373737"/>
<path d="M12.8476 8.87726L14.0781 10.0861V10.0899L12.8439 8.87726H12.8476Z" fill="#363636"/>
<path d="M12.8513 8.87726L14.0781 10.0823V10.0861L12.8476 8.87726H12.8513Z" fill="#353535"/>
<path d="M12.8587 8.87726L14.0781 10.0785V10.0823L12.8513 8.87726H12.8587Z" fill="#343434"/>
<path d="M12.8625 8.87726L14.0781 10.0709V10.0785L12.8587 8.87726H12.8625Z" fill="#333333"/>
<path d="M12.8662 8.87726L14.0781 10.067V10.0709L12.8625 8.87726H12.8662Z" fill="#323232"/>
<path d="M12.8736 8.87726L14.0781 10.0632V10.067L12.8662 8.87726H12.8736Z" fill="#313131"/>
<path d="M12.8773 8.87726L14.0781 10.0594V10.0632L12.8736 8.87726H12.8773Z" fill="#303030"/>
<path d="M12.881 8.87726L14.0781 10.0518V10.0594L12.8773 8.87726H12.881Z" fill="#2F2F2F"/>
<path d="M12.8848 8.87726L14.0781 10.048V10.0518L12.881 8.87726H12.8848Z" fill="#2E2E2E"/>
<path d="M12.8922 8.87726L14.0781 10.0442V10.048L12.8848 8.87726H12.8922Z" fill="#2D2D2D"/>
<path d="M12.8959 8.87726L14.0781 10.0404V10.0442L12.8922 8.87726H12.8959Z" fill="#2C2C2C"/>
<path d="M12.8996 8.87726L14.0781 10.0328V10.0404L12.8959 8.87726H12.8996Z" fill="#2B2B2B"/>
<path d="M12.9071 8.87726L14.0781 10.029V10.0328L12.8996 8.87726H12.9071Z" fill="#2A2A2A"/>
<path d="M12.9108 8.87726L14.0781 10.0252V10.029L12.9071 8.87726H12.9108Z" fill="#292929"/>
<path d="M12.9145 8.87726L14.0781 10.0214V10.0252L12.9108 8.87726H12.9145Z" fill="#282828"/>
<path d="M12.9219 8.87726L14.0781 10.0138V10.0214L12.9145 8.87726H12.9219Z" fill="#272727"/>
<path d="M12.9257 8.87726L14.0781 10.01V10.0138L12.9219 8.87726H12.9257Z" fill="#262626"/>
<path d="M12.9294 8.87726L14.0781 10.0062V10.01L12.9257 8.87726H12.9294Z" fill="#252525"/>
<path d="M12.9331 8.87726L14.0781 10.0024V10.0062L12.9294 8.87726H12.9331Z" fill="#242424"/>
<path d="M12.9405 8.87726L14.0781 9.99483V10.0024L12.9331 8.87726H12.9405Z" fill="#232323"/>
<path d="M12.9442 8.87726L14.0781 9.99102V9.99483L12.9405 8.87726H12.9442Z" fill="#222222"/>
<path d="M12.948 8.87726L14.0781 9.98722V9.99102L12.9442 8.87726H12.948Z" fill="#212121"/>
<path d="M12.9554 8.87726L14.0781 9.98342V9.98722L12.948 8.87726H12.9554Z" fill="#202020"/>
<path d="M12.9591 8.87726L14.0781 9.97582V9.98342L12.9554 8.87726H12.9591Z" fill="#1F1F1F"/>
<path d="M12.9628 8.87726L14.0781 9.97202V9.97582L12.9591 8.87726H12.9628Z" fill="#1E1E1E"/>
<path d="M12.9703 8.87726L14.0781 9.96822V9.97202L12.9628 8.87726H12.9703Z" fill="#1D1D1D"/>
<path d="M12.974 8.87726L14.0781 9.96442V9.96822L12.9703 8.87726H12.974Z" fill="#1C1C1C"/>
<path d="M12.9777 8.87726L14.0781 9.95681V9.96442L12.974 8.87726H12.9777Z" fill="#1B1B1B"/>
<path d="M12.9851 8.87726L14.0781 9.95301V9.95681L12.9777 8.87726H12.9851Z" fill="#1A1A1A"/>
<path d="M12.9889 8.87726L14.0781 9.94921V9.95301L12.9851 8.87726H12.9889Z" fill="#191919"/>
<path d="M12.9926 8.87726L14.0781 9.94541V9.94921L12.9889 8.87726H12.9926Z" fill="#181818"/>
<path d="M12.9963 8.87726L14.0781 9.93781V9.94541L12.9926 8.87726H12.9963Z" fill="#171717"/>
<path d="M13.0037 8.87726L14.0781 9.93401V9.93781L12.9963 8.87726H13.0037Z" fill="#161616"/>
<path d="M13.0074 8.87726L14.0781 9.9302V9.93401L13.0037 8.87726H13.0074Z" fill="#151515"/>
<path d="M13.0112 8.87726L14.0781 9.9264V9.9302L13.0074 8.87726H13.0112Z" fill="#141414"/>
<path d="M13.0186 8.87726L14.0781 9.9188V9.9264L13.0111 8.87726H13.0186Z" fill="#131313"/>
<path d="M13.0223 8.87726L14.0781 9.915V9.9188L13.0186 8.87726H13.0223Z" fill="#121212"/>
<path d="M13.026 8.87726L14.0781 9.9112V9.915L13.0223 8.87726H13.026Z" fill="#111111"/>
<path d="M13.0335 8.87726L14.0781 9.9074V9.9112L13.026 8.87726H13.0335Z" fill="#101010"/>
<path d="M13.0372 8.87726L14.0781 9.89979V9.9074L13.0334 8.87726H13.0372Z" fill="#0F0F0F"/>
<path d="M13.0409 8.87726L14.0781 9.89599V9.89979L13.0372 8.87726H13.0409Z" fill="#0E0E0E"/>
<path d="M13.0446 8.87726L14.0781 9.89219V9.89599L13.0409 8.87726H13.0446Z" fill="#0D0D0D"/>
<path d="M13.0521 8.87726L14.0781 9.88839V9.89219L13.0446 8.87726H13.0521Z" fill="#0C0C0C"/>
<path d="M13.0558 8.87726L14.0781 9.88079V9.88839L13.052 8.87726H13.0558Z" fill="#0B0B0B"/>
<path d="M13.0595 8.87726L14.0781 9.87699V9.88079L13.0558 8.87726H13.0595Z" fill="#0A0A0A"/>
<path d="M13.0669 8.87726L14.0781 9.87319V9.87699L13.0595 8.87726H13.0669Z" fill="#090909"/>
<path d="M13.0706 8.87726L14.0781 9.86938V9.87319L13.0669 8.87726H13.0706Z" fill="#080808"/>
<path d="M13.0743 8.87726L14.0781 9.86178V9.86938L13.0706 8.87726H13.0743Z" fill="#070707"/>
<path d="M13.0818 8.87726L14.0781 9.85798V9.86178L13.0743 8.87726H13.0818Z" fill="#060606"/>
<path d="M13.0855 8.87726L14.0781 9.85418V9.85798L13.0818 8.87726H13.0855Z" fill="#050505"/>
<path d="M13.0892 8.87726L14.0781 9.85038V9.85418L13.0855 8.87726H13.0892Z" fill="#040404"/>
<path d="M13.093 8.87726L14.0781 9.84278V9.85038L13.0892 8.87726H13.093Z" fill="#030303"/>
<path d="M13.1004 8.87726L14.0781 9.83897V9.84278L13.0929 8.87726H13.1004Z" fill="#020202"/>
<path d="M13.1041 8.87726L14.0781 9.83517V9.83897L13.1004 8.87726H13.1041Z" fill="#010101"/>
<path d="M13.1078 8.87726L14.0781 9.83137V9.83517L13.1041 8.87726H13.1078Z" fill="black"/>
<path d="M14.0781 9.83137L13.1078 8.87726H14.0781V9.83137Z" fill="black"/>
</g>
</g>
<g style="mix-blend-mode:multiply" opacity="0.7">
<mask id="mask1_16008_197" style="mask-type:luminance" maskUnits="userSpaceOnUse" x="2" y="5" width="20" height="14">
<path d="M7.31599 18.9924H22L8.35688 5H2L7.31599 18.9924Z" fill="white"/>
</mask>
<g mask="url(#mask1_16008_197)">
<path d="M20.7732 18.9924L12 5H22V18.9924H20.7732Z" fill="white"/>
<path d="M20.3085 18.9924L11.5353 5H12L20.7732 18.9924H20.3085Z" fill="white"/>
<path d="M19.8439 18.9924L11.0706 5H11.5353L20.3085 18.9924H19.8439Z" fill="#FEFEFE"/>
<path d="M19.3792 18.9924L10.606 5H11.0706L19.8439 18.9924H19.3792Z" fill="#FDFDFD"/>
<path d="M18.9145 18.9924L10.1413 5H10.6059L19.3792 18.9924H18.9145Z" fill="#FCFCFC"/>
<path d="M18.4498 18.9924L9.67657 5H10.1413L18.9145 18.9924H18.4498Z" fill="#FAFAFA"/>
<path d="M17.9851 18.9924L9.21561 5H9.67657L18.4498 18.9924H17.9851Z" fill="#F9F9F9"/>
<path d="M17.5241 18.9924L8.75092 5H9.2156L17.9851 18.9924H17.5241Z" fill="#F8F8F8"/>
<path d="M17.4387 18.9924L8.66544 5H8.75094L17.5242 18.9924H17.4387Z" fill="#F8F8F8"/>
<path d="M17.3532 18.9924L8.57993 5H8.66543L17.4387 18.9924H17.3532Z" fill="#F7F7F7"/>
<path d="M17.2676 18.9924L8.49442 5H8.57992L17.3532 18.9924H17.2676Z" fill="#F6F6F6"/>
<path d="M17.1822 18.9924L8.40894 5H8.49444L17.2677 18.9924H17.1822Z" fill="#F5F5F5"/>
<path d="M17.0967 18.9924L8.32343 5H8.40893L17.1822 18.9924H17.0967Z" fill="#F4F4F4"/>
<path d="M17.0111 18.9924L8.23792 5H8.32342L17.0967 18.9924H17.0111Z" fill="#F3F3F3"/>
<path d="M16.9256 18.9924L8.1524 5H8.23791L17.0111 18.9924H16.9256Z" fill="#F2F2F2"/>
<path d="M16.8402 18.9924L8.06693 5H8.15243L16.9257 18.9924H16.8402Z" fill="#F1F1F1"/>
<path d="M16.7547 18.9924L7.98141 5H8.06692L16.8402 18.9924H16.7547Z" fill="#F0F0F0"/>
<path d="M16.6691 18.9924L7.8959 5H7.98141L16.7546 18.9924H16.6691Z" fill="#EFEFEF"/>
<path d="M16.5836 18.9924L7.81039 5H7.8959L16.6691 18.9924H16.5836Z" fill="#EDEDED"/>
<path d="M16.4981 18.9924L7.72491 5H7.81042L16.5837 18.9924H16.4981Z" fill="#ECECEC"/>
<path d="M16.4089 18.9924L7.6394 5H7.72491L16.4981 18.9924H16.4089Z" fill="#EBEBEB"/>
<path d="M16.3234 18.9924L7.55389 5H7.6394L16.4089 18.9924H16.3234Z" fill="#EAEAEA"/>
<path d="M16.2379 18.9924L7.46841 5H7.55392L16.3234 18.9924H16.2379Z" fill="#E9E9E9"/>
<path d="M16.1524 18.9924L7.3829 5H7.46841L16.2379 18.9924H16.1524Z" fill="#E8E8E8"/>
<path d="M16.0669 18.9924L7.29739 5H7.3829L16.1524 18.9924H16.0669Z" fill="#E7E7E7"/>
<path d="M15.9814 18.9924L7.21188 5H7.29739L16.0669 18.9924H15.9814Z" fill="#E6E6E6"/>
<path d="M15.8959 18.9924L7.1264 5H7.21191L15.9814 18.9924H15.8959Z" fill="#E5E5E5"/>
<path d="M15.8439 18.9924L7.07062 5H7.12638L15.8959 18.9924H15.8439Z" fill="#E5E5E5"/>
<path d="M15.7881 18.9924L7.01486 5H7.07062L15.8439 18.9924H15.7881Z" fill="#E4E4E4"/>
<path d="M15.7361 18.9924L6.96283 5H7.01487L15.7881 18.9924H15.7361Z" fill="#E3E3E3"/>
<path d="M15.6803 18.9924L6.90707 5H6.96284L15.7361 18.9924H15.6803Z" fill="#E2E2E2"/>
<path d="M15.6282 18.9924L6.85501 5H6.90706L15.6803 18.9924H15.6282Z" fill="#E1E1E1"/>
<path d="M15.5725 18.9924L6.79926 5H6.85502L15.6283 18.9924H15.5725Z" fill="#E0E0E0"/>
<path d="M15.5205 18.9924L6.74722 5H6.79927L15.5725 18.9924H15.5205Z" fill="#DFDFDF"/>
<path d="M15.4647 18.9924L6.69144 5H6.7472L15.5204 18.9924H15.4647Z" fill="#DEDEDE"/>
<path d="M15.4089 18.9924L6.6394 5H6.69145L15.4647 18.9924H15.4089Z" fill="#DDDDDD"/>
<path d="M15.3569 18.9924L6.58365 5H6.63941L15.4089 18.9924H15.3569Z" fill="#DCDCDC"/>
<path d="M15.3011 18.9924L6.52789 5H6.58366L15.3569 18.9924H15.3011Z" fill="#DBDBDB"/>
<path d="M15.2491 18.9924L6.47583 5H6.52787L15.3011 18.9924H15.2491Z" fill="#DADADA"/>
<path d="M15.1933 18.9924L6.42007 5H6.47584L15.2491 18.9924H15.1933Z" fill="#D9D9D9"/>
<path d="M15.1413 18.9924L6.36804 5H6.42009L15.1933 18.9924H15.1413Z" fill="#D8D8D8"/>
<path d="M15.0855 18.9924L6.31226 5H6.36802L15.1413 18.9924H15.0855Z" fill="#D7D7D7"/>
<path d="M15.0297 18.9924L6.26022 5H6.31227L15.0855 18.9924H15.0297Z" fill="#D5D5D5"/>
<path d="M14.9777 18.9924L6.20447 5H6.26023L15.0297 18.9924H14.9777Z" fill="#D4D4D4"/>
<path d="M14.9219 18.9924L6.14871 5H6.20447L14.9777 18.9924H14.9219Z" fill="#D3D3D3"/>
<path d="M14.8699 18.9924L6.09665 5H6.14869L14.9219 18.9924H14.8699Z" fill="#D2D2D2"/>
<path d="M14.8141 18.9924L6.04089 5H6.09666L14.8699 18.9924H14.8141Z" fill="#D1D1D1"/>
<path d="M14.7621 18.9924L5.98886 5H6.04091L14.8141 18.9924H14.7621Z" fill="#D0D0D0"/>
<path d="M14.7063 18.9924L5.93307 5H5.98884L14.7621 18.9924H14.7063Z" fill="#CFCFCF"/>
<path d="M14.6506 18.9924L5.88104 5H5.93309L14.7063 18.9924H14.6506Z" fill="#CECECE"/>
<path d="M14.5985 18.9924L5.82529 5H5.88105L14.6506 18.9924H14.5985Z" fill="#CDCDCD"/>
<path d="M14.5428 18.9924L5.76953 5H5.82529L14.5985 18.9924H14.5428Z" fill="#CCCCCC"/>
<path d="M14.4907 18.9924L5.71747 5H5.76951L14.5427 18.9924H14.4907Z" fill="#CBCBCB"/>
<path d="M14.4349 18.9924L5.66171 5H5.71747L14.4907 18.9924H14.4349Z" fill="#CACACA"/>
<path d="M14.3829 18.9924L5.60968 5H5.66172L14.435 18.9924H14.3829Z" fill="#C9C9C9"/>
<path d="M14.3271 18.9924L5.55389 5H5.60966L14.3829 18.9924H14.3271Z" fill="#C8C8C8"/>
<path d="M14.2714 18.9924L5.50186 5H5.55391L14.3271 18.9924H14.2714Z" fill="#C7C7C7"/>
<path d="M14.197 18.9924L5.4238 5H5.50186L14.2714 18.9924H14.197Z" fill="#C7C7C7"/>
<path d="M14.119 18.9924L5.34573 5H5.4238L14.197 18.9924H14.119Z" fill="#C6C6C6"/>
<path d="M14.0409 18.9924L5.26767 5H5.34574L14.119 18.9924H14.0409Z" fill="#C5C5C5"/>
<path d="M13.9628 18.9924L5.18961 5H5.26767L14.0409 18.9924H13.9628Z" fill="#C4C4C4"/>
<path d="M13.8848 18.9924L5.11523 5H5.18958L13.9628 18.9924H13.8848Z" fill="#C3C3C3"/>
<path d="M13.8104 18.9924L5.03717 5H5.11524L13.8848 18.9924H13.8104Z" fill="#C2C2C2"/>
<path d="M13.7323 18.9924L4.95911 5H5.03717L13.8104 18.9924H13.7323Z" fill="#C1C1C1"/>
<path d="M13.6543 18.9924L4.88104 5H4.95911L13.7323 18.9924H13.6543Z" fill="#C0C0C0"/>
<path d="M13.5762 18.9924L4.80298 5H4.88105L13.6543 18.9924H13.5762Z" fill="#BFBFBF"/>
<path d="M13.4981 18.9924L4.72491 5H4.80298L13.5762 18.9924H13.4981Z" fill="#BEBEBE"/>
<path d="M13.4201 18.9924L4.65054 5H4.72489L13.4981 18.9924H13.4201Z" fill="#BDBDBD"/>
<path d="M13.3457 18.9924L4.57248 5H4.65055L13.4201 18.9924H13.3457Z" fill="#BCBCBC"/>
<path d="M13.2676 18.9924L4.49442 5H4.57248L13.3457 18.9924H13.2676Z" fill="#BBBBBB"/>
<path d="M13.1896 18.9924L4.41635 5H4.49442L13.2677 18.9924H13.1896Z" fill="#BABABA"/>
<path d="M13.1115 18.9924L4.33829 5H4.41635L13.1896 18.9924H13.1115Z" fill="#B9B9B9"/>
<path d="M13.0335 18.9924L4.26395 5H4.3383L13.1115 18.9924H13.0335Z" fill="#B8B8B8"/>
<path d="M12.9591 18.9924L4.18588 5H4.26395L13.0335 18.9924H12.9591Z" fill="#B7B7B7"/>
<path d="M12.8811 18.9924L4.10782 5H4.18589L12.9591 18.9924H12.8811Z" fill="#B6B6B6"/>
<path d="M12.803 18.9924L4.02975 5H4.10782L12.8811 18.9924H12.803Z" fill="#B5B5B5"/>
<path d="M12.7249 18.9924L3.95166 5H4.02973L12.803 18.9924H12.7249Z" fill="#B4B4B4"/>
<path d="M12.6468 18.9924L3.87732 5H3.95167L12.7249 18.9924H12.6468Z" fill="#B3B3B3"/>
<path d="M12.5725 18.9924L3.79926 5H3.87732L12.6468 18.9924H12.5725Z" fill="#B1B1B1"/>
<path d="M12.4944 18.9924L3.72119 5H3.79926L12.5725 18.9924H12.4944Z" fill="#B0B0B0"/>
<path d="M12.4164 18.9924L3.64313 5H3.72119L12.4944 18.9924H12.4164Z" fill="#AFAFAF"/>
<path d="M12.3383 18.9924L3.56506 5H3.64313L12.4164 18.9924H12.3383Z" fill="#AEAEAE"/>
<path d="M12.2602 18.9924L3.487 5H3.56507L12.3383 18.9924H12.2602Z" fill="#ADADAD"/>
<path d="M12.1821 18.9924L3.41263 5H3.48698L12.2602 18.9924H12.1821Z" fill="#ACACAC"/>
<path d="M12.1078 18.9924L3.33456 5H3.41263L12.1821 18.9924H12.1078Z" fill="#ABABAB"/>
<path d="M12.0297 18.9924L3.2565 5H3.33457L12.1078 18.9924H12.0297Z" fill="#AAAAAA"/>
<path d="M11.9517 18.9924L3.17844 5H3.2565L12.0297 18.9924H11.9517Z" fill="#A9A9A9"/>
<path d="M11.8736 18.9924L3.10037 5H3.17844L11.9517 18.9924H11.8736Z" fill="#A8A8A8"/>
<path d="M11.7955 18.9924L3.02603 5H3.10038L11.8736 18.9924H11.7955Z" fill="#A7A7A7"/>
<path d="M11.7212 18.9924L2.94795 5H3.02602L11.7955 18.9924H11.7212Z" fill="#A6A6A6"/>
<path d="M11.6431 18.9924L2.86989 5H2.94796L11.7212 18.9924H11.6431Z" fill="#A5A5A5"/>
<path d="M11.5651 18.9924L2.79182 5H2.86989L11.6431 18.9924H11.5651Z" fill="#A4A4A4"/>
<path d="M11.487 18.9924L2.71376 5H2.79183L11.5651 18.9924H11.487Z" fill="#A3A3A3"/>
<path d="M11.4089 18.9924L2.6394 5H2.71375L11.487 18.9924H11.4089Z" fill="#A2A2A2"/>
<path d="M11.3346 18.9924L2.56134 5H2.63941L11.4089 18.9924H11.3346Z" fill="#A1A1A1"/>
<path d="M11.2565 18.9924L2.48328 5H2.56134L11.3346 18.9924H11.2565Z" fill="#A0A0A0"/>
<path d="M11.1784 18.9924L2.4052 5H2.48326L11.2565 18.9924H11.1784Z" fill="#9F9F9F"/>
<path d="M11.1004 18.9924L2.32713 5H2.4052L11.1784 18.9924H11.1004Z" fill="#9E9E9E"/>
<path d="M11.0223 18.9924L2.24907 5H2.32714L11.1004 18.9924H11.0223Z" fill="#9D9D9D"/>
<path d="M10.9926 18.9924L2.21933 5H2.24907L11.0223 18.9924H10.9926Z" fill="#9D9D9D"/>
<path d="M10.9628 18.9924L2.18959 5H2.21933L10.9926 18.9924H10.9628Z" fill="#9C9C9C"/>
<path d="M10.9331 18.9924L2.15985 5H2.18959L10.9628 18.9924H10.9331Z" fill="#9B9B9B"/>
<path d="M10.9033 18.9924L2.13011 5H2.15985L10.9331 18.9924H10.9033Z" fill="#9A9A9A"/>
<path d="M10.8736 18.9924L2.10037 5H2.13011L10.9033 18.9924H10.8736Z" fill="#999999"/>
<path d="M10.8439 18.9924L2.07063 5H2.10037L10.8736 18.9924H10.8439Z" fill="#989898"/>
<path d="M10.8141 18.9924L2.04089 5H2.07063L10.8439 18.9924H10.8141Z" fill="#979797"/>
<path d="M10.7844 18.9924L2.01115 5H2.04089L10.8141 18.9924H10.7844Z" fill="#969696"/>
<path d="M10.7509 18.9924L2 5.03421V5H2.01115L10.7844 18.9924H10.7509Z" fill="#959595"/>
<path d="M10.7212 18.9924L2 5.08366V5.03424L10.7509 18.9924H10.7212Z" fill="#949494"/>
<path d="M10.6915 18.9924L2 5.13303V5.08362L10.7212 18.9924H10.6915Z" fill="#939393"/>
<path d="M10.6617 18.9924L2 5.17867V5.13306L10.6915 18.9924H10.6617Z" fill="#929292"/>
<path d="M10.632 18.9924L2 5.22807V5.17865L10.6617 18.9924H10.632Z" fill="#919191"/>
<path d="M10.6022 18.9924L2 5.2775V5.22809L10.632 18.9924H10.6022Z" fill="#909090"/>
<path d="M10.5725 18.9924L2 5.32308V5.27747L10.6022 18.9924H10.5725Z" fill="#8F8F8F"/>
<path d="M10.5428 18.9924L2 5.37254V5.32312L10.5725 18.9924H10.5428Z" fill="#8E8E8E"/>
<path d="M10.513 18.9924L2 5.41811V5.3725L10.5428 18.9924H10.513Z" fill="#8D8D8D"/>
<path d="M10.4833 18.9924L2 5.46757V5.41815L10.513 18.9924H10.4833Z" fill="#8C8C8C"/>
<path d="M10.4535 18.9924L2 5.51695V5.46753L10.4833 18.9924H10.4535Z" fill="#8B8B8B"/>
<path d="M10.4201 18.9924L2 5.56258V5.51697L10.4535 18.9924H10.4201Z" fill="#8A8A8A"/>
<path d="M10.3903 18.9924L2 5.61198V5.56256L10.4201 18.9924H10.3903Z" fill="#898989"/>
<path d="M10.3606 18.9924L2 5.65761V5.612L10.3903 18.9924H10.3606Z" fill="#888888"/>
<path d="M10.3309 18.9924L2 5.70701V5.65759L10.3606 18.9924H10.3309Z" fill="#878787"/>
<path d="M10.3011 18.9924L2 5.75645V5.70703L10.3309 18.9924H10.3011Z" fill="#868686"/>
<path d="M10.2714 18.9924L2 5.80208V5.75647L10.3011 18.9924H10.2714Z" fill="#858585"/>
<path d="M10.2416 18.9924L2 5.85148V5.80206L10.2714 18.9924H10.2416Z" fill="#848484"/>
<path d="M10.2119 18.9924L2 5.90092V5.8515L10.2416 18.9924H10.2119Z" fill="#838383"/>
<path d="M10.1822 18.9924L2 5.94649V5.90088L10.2119 18.9924H10.1822Z" fill="#818181"/>
<path d="M10.1524 18.9924L2 5.99595V5.94653L10.1822 18.9924H10.1524Z" fill="#808080"/>
<path d="M10.1227 18.9924L2 6.04153V5.99591L10.1524 18.9924H10.1227Z" fill="#7F7F7F"/>
<path d="M10.0892 18.9924L2 6.09098V6.04156L10.1227 18.9924H10.0892Z" fill="#7E7E7E"/>
<path d="M10.0595 18.9924L2 6.14036V6.09094L10.0892 18.9924H10.0595Z" fill="#7D7D7D"/>
<path d="M10.0297 18.9924L2 6.186V6.14038L10.0595 18.9924H10.0297Z" fill="#7C7C7C"/>
<path d="M10 18.9924L2 6.23539V6.18597L10.0297 18.9924H10Z" fill="#7B7B7B"/>
<path d="M9.97026 18.9924L2 6.28483V6.23541L10 18.9924H9.97026Z" fill="#7A7A7A"/>
<path d="M9.94052 18.9924L2 6.33047V6.28485L9.97026 18.9924H9.94052Z" fill="#797979"/>
<path d="M9.91078 18.9924L2 6.37986V6.33044L9.94052 18.9924H9.91078Z" fill="#787878"/>
<path d="M9.88104 18.9924L2 6.4255V6.37988L9.91078 18.9924H9.88104Z" fill="#777777"/>
<path d="M9.8513 18.9924L2 6.47489V6.42548L9.88104 18.9924H9.8513Z" fill="#767676"/>
<path d="M9.82156 18.9924L2 6.52433V6.47491L9.8513 18.9924H9.82156Z" fill="#757575"/>
<path d="M9.7881 18.9924L2 6.56991V6.52429L9.82156 18.9924H9.7881Z" fill="#747474"/>
<path d="M9.75836 18.9924L2 6.61936V6.56995L9.7881 18.9924H9.75836Z" fill="#737373"/>
<path d="M9.72862 18.9924L2 6.66874V6.61932L9.75836 18.9924H9.72862Z" fill="#727272"/>
<path d="M9.69888 18.9924L2 6.71438V6.66876L9.72862 18.9924H9.69888Z" fill="#717171"/>
<path d="M9.66915 18.9924L2 6.76377V6.71436L9.69888 18.9924H9.66915Z" fill="#707070"/>
<path d="M9.63941 18.9924L2 6.80941V6.76379L9.66915 18.9924H9.63941Z" fill="#6F6F6F"/>
<path d="M9.60966 18.9924L2 6.8588V6.80939L9.63941 18.9924H9.60966Z" fill="#6E6E6E"/>
<path d="M9.57993 18.9924L2 6.90824V6.85883L9.60966 18.9924H9.57993Z" fill="#6D6D6D"/>
<path d="M9.55019 18.9924L2 6.95382V6.9082L9.57993 18.9924H9.55019Z" fill="#6C6C6C"/>
<path d="M9.52045 18.9924L2 7.00327V6.95386L9.55019 18.9924H9.52045Z" fill="#6B6B6B"/>
<path d="M9.49071 18.9924L2 7.04885V7.00323L9.52045 18.9924H9.49071Z" fill="#6A6A6A"/>
<path d="M9.45725 18.9924L2 7.09831V7.04889L9.49071 18.9924H9.45725Z" fill="#696969"/>
<path d="M9.42751 18.9924L2 7.14768V7.09827L9.45725 18.9924H9.42751Z" fill="#686868"/>
<path d="M9.39777 18.9924L2 7.19332V7.14771L9.42751 18.9924H9.39777Z" fill="#676767"/>
<path d="M9.34944 18.9924L2 7.27312V7.1933L9.39777 18.9924H9.34944Z" fill="#676767"/>
<path d="M9.2974 18.9924L2 7.35296V7.27313L9.34944 18.9924H9.2974Z" fill="#666666"/>
<path d="M9.24907 18.9924L2 7.43279V7.35297L9.2974 18.9924H9.24907Z" fill="#656565"/>
<path d="M9.19703 18.9924L2 7.51263V7.4328L9.24907 18.9924H9.19703Z" fill="#646464"/>
<path d="M9.1487 18.9924L2 7.59246V7.51263L9.19703 18.9924H9.1487Z" fill="#636363"/>
<path d="M9.10037 18.9924L2 7.67229V7.59247L9.1487 18.9924H9.10037Z" fill="#626262"/>
<path d="M9.04833 18.9924L2 7.75213V7.6723L9.10037 18.9924H9.04833Z" fill="#616161"/>
<path d="M9 18.9924L2 7.8319V7.75208L9.04833 18.9924H9Z" fill="#606060"/>
<path d="M8.94796 18.9924L2 7.91174V7.83191L9 18.9924H8.94796Z" fill="#5F5F5F"/>
<path d="M8.89963 18.9924L2 7.99157V7.91174L8.94796 18.9924H8.89963Z" fill="#5E5E5E"/>
<path d="M8.84758 18.9924L2 8.0714V7.99158L8.89963 18.9924H8.84758Z" fill="#5D5D5D"/>
<path d="M8.79926 18.9924L2 8.15124V8.07141L8.84758 18.9924H8.79926Z" fill="#5C5C5C"/>
<path d="M8.74721 18.9924L2 8.23107V8.15125L8.79926 18.9924H8.74721Z" fill="#5B5B5B"/>
<path d="M8.69888 18.9924L2 8.31091V8.23108L8.74721 18.9924H8.69888Z" fill="#5A5A5A"/>
<path d="M8.65056 18.9924L2 8.39074V8.31091L8.69888 18.9924H8.65056Z" fill="#595959"/>
<path d="M8.59851 18.9924L2 8.47051V8.39069L8.65056 18.9924H8.59851Z" fill="#585858"/>
<path d="M8.55019 18.9924L2 8.55035V8.47052L8.59851 18.9924H8.55019Z" fill="#575757"/>
<path d="M8.49814 18.9924L2 8.63018V8.55035L8.55019 18.9924H8.49814Z" fill="#565656"/>
<path d="M8.44981 18.9924L2 8.71001V8.63019L8.49814 18.9924H8.44981Z" fill="#555555"/>
<path d="M8.39777 18.9924L2 8.78985V8.71002L8.44981 18.9924H8.39777Z" fill="#545454"/>
<path d="M8.34944 18.9924L2 8.86968V8.78986L8.39777 18.9924H8.34944Z" fill="#535353"/>
<path d="M8.2974 18.9924L2 8.94952V8.86969L8.34944 18.9924H8.2974Z" fill="#525252"/>
<path d="M8.24907 18.9924L2 9.02935V8.94952L8.2974 18.9924H8.24907Z" fill="#515151"/>
<path d="M8.20074 18.9924L2 9.10912V9.0293L8.24907 18.9924H8.20074Z" fill="#505050"/>
<path d="M8.1487 18.9924L2 9.18896V9.10913L8.20074 18.9924H8.1487Z" fill="#4F4F4F"/>
<path d="M8.10037 18.9924L2 9.26879V9.18896L8.1487 18.9924H8.10037Z" fill="#4E4E4E"/>
<path d="M8.04833 18.9924L2 9.34863V9.2688L8.10037 18.9924H8.04833Z" fill="#4D4D4D"/>
<path d="M8 18.9924L2 9.42846V9.34863L8.04833 18.9924H8Z" fill="#4C4C4C"/>
<path d="M7.94796 18.9924L2 9.50829V9.42847L8 18.9924H7.94796Z" fill="#4B4B4B"/>
<path d="M7.89963 18.9924L2 9.58433V9.5083L7.94796 18.9924H7.89963Z" fill="#4A4A4A"/>
<path d="M7.84758 18.9924L2 9.66412V9.58429L7.89963 18.9924H7.84758Z" fill="#494949"/>
<path d="M7.79926 18.9924L2 9.74395V9.66412L7.84758 18.9924H7.79926Z" fill="#484848"/>
<path d="M7.74721 18.9924L2 9.82378V9.74396L7.79926 18.9924H7.74721Z" fill="#474747"/>
<path d="M7.69888 18.9924L2 9.90362V9.82379L7.74721 18.9924H7.69888Z" fill="#454545"/>
<path d="M7.65056 18.9924L2 9.98345V9.90363L7.69888 18.9924H7.65056Z" fill="#444444"/>
<path d="M7.59851 18.9924L2 10.0633V9.98346L7.65056 18.9924H7.59851Z" fill="#434343"/>
<path d="M7.55019 18.9924L2 10.1431V10.0633L7.59851 18.9924H7.55019Z" fill="#424242"/>
<path d="M7.49814 18.9924L2 10.2229V10.1431L7.55019 18.9924H7.49814Z" fill="#414141"/>
<path d="M7.44981 18.9924L2 10.3027V10.2229L7.49814 18.9924H7.44981Z" fill="#404040"/>
<path d="M7.39777 18.9924L2 10.3826V10.3027L7.44981 18.9924H7.39777Z" fill="#3F3F3F"/>
<path d="M7.34944 18.9924L2 10.4624V10.3826L7.39777 18.9924H7.34944Z" fill="#3E3E3E"/>
<path d="M7.2974 18.9924L2 10.5422V10.4624L7.34944 18.9924H7.2974Z" fill="#3D3D3D"/>
<path d="M7.24907 18.9924L2 10.6221V10.5422L7.2974 18.9924H7.24907Z" fill="#3C3C3C"/>
<path d="M7.20074 18.9924L2 10.7019V10.6221L7.24907 18.9924H7.20074Z" fill="#3B3B3B"/>
<path d="M7.1487 18.9924L2 10.7817V10.7019L7.20074 18.9924H7.1487Z" fill="#3A3A3A"/>
<path d="M7.10037 18.9924L2 10.8615V10.7817L7.1487 18.9924H7.10037Z" fill="#393939"/>
<path d="M7.04833 18.9924L2 10.9413V10.8615L7.10037 18.9924H7.04833Z" fill="#383838"/>
<path d="M7 18.9924L2 11.0212V10.9413L7.04833 18.9924H7Z" fill="#373737"/>
<path d="M6.94796 18.9924L2 11.101V11.0212L7 18.9924H6.94796Z" fill="#363636"/>
<path d="M6.89963 18.9924L2 11.1808V11.101L6.94796 18.9924H6.89963Z" fill="#353535"/>
<path d="M6.84758 18.9924L2 11.2607V11.1808L6.89963 18.9924H6.84758Z" fill="#343434"/>
<path d="M6.79926 18.9924L2 11.3405V11.2607L6.84758 18.9924H6.79926Z" fill="#333333"/>
<path d="M6.75093 18.9924L2 11.4203V11.3405L6.79926 18.9924H6.75093Z" fill="#323232"/>
<path d="M6.69888 18.9924L2 11.5001V11.4203L6.75093 18.9924H6.69888Z" fill="#313131"/>
<path d="M6.65056 18.9924L2 11.5799V11.5001L6.69888 18.9924H6.65056Z" fill="#303030"/>
<path d="M6.59851 18.9924L2 11.6598V11.58L6.65056 18.9924H6.59851Z" fill="#2F2F2F"/>
<path d="M6.55019 18.9924L2 11.7396V11.6598L6.59851 18.9924H6.55019Z" fill="#2E2E2E"/>
<path d="M6.49814 18.9924L2 11.8194V11.7396L6.55019 18.9924H6.49814Z" fill="#2D2D2D"/>
<path d="M6.44981 18.9924L2 11.8993V11.8195L6.49814 18.9924H6.44981Z" fill="#2C2C2C"/>
<path d="M6.39777 18.9924L2 11.9791V11.8993L6.44981 18.9924H6.39777Z" fill="#2B2B2B"/>
<path d="M6.34944 18.9924L2 12.0589V11.9791L6.39777 18.9924H6.34944Z" fill="#2A2A2A"/>
<path d="M6.2974 18.9924L2 12.1387V12.0589L6.34944 18.9924H6.2974Z" fill="#292929"/>
<path d="M6.24907 18.9924L2 12.2186V12.1387L6.2974 18.9924H6.24907Z" fill="#282828"/>
<path d="M6.20074 18.9924L2 12.2946V12.2186L6.24907 18.9924H6.20074Z" fill="#272727"/>
<path d="M6.1487 18.9924L2 12.3744V12.2946L6.20074 18.9924H6.1487Z" fill="#262626"/>
<path d="M6.10781 18.9924L2 12.4429V12.3745L6.1487 18.9924H6.10781Z" fill="#262626"/>
<path d="M6.0632 18.9924L2 12.5113V12.4429L6.10781 18.9924H6.0632Z" fill="#252525"/>
<path d="M6.0223 18.9924L2 12.5797V12.5113L6.0632 18.9924H6.0223Z" fill="#242424"/>
<path d="M5.97769 18.9924L2 12.6481V12.5797L6.0223 18.9924H5.97769Z" fill="#232323"/>
<path d="M5.9368 18.9924L2 12.7166V12.6481L5.97769 18.9924H5.9368Z" fill="#222222"/>
<path d="M5.89219 18.9924L2 12.785V12.7166L5.9368 18.9924H5.89219Z" fill="#212121"/>
<path d="M5.8513 18.9924L2 12.8534V12.785L5.89219 18.9924H5.8513Z" fill="#202020"/>
<path d="M5.80669 18.9924L2 12.9218V12.8534L5.8513 18.9924H5.80669Z" fill="#1F1F1F"/>
<path d="M5.7658 18.9924L2 12.9902V12.9218L5.80669 18.9924H5.7658Z" fill="#1E1E1E"/>
<path d="M5.72119 18.9924L2 13.0587V12.9902L5.7658 18.9924H5.72119Z" fill="#1D1D1D"/>
<path d="M5.6803 18.9924L2 13.1271V13.0587L5.72119 18.9924H5.6803Z" fill="#1C1C1C"/>
<path d="M5.63569 18.9924L2 13.1955V13.1271L5.6803 18.9924H5.63569Z" fill="#1B1B1B"/>
<path d="M5.5948 18.9924L2 13.2639V13.1955L5.63569 18.9924H5.5948Z" fill="#1A1A1A"/>
<path d="M5.55019 18.9924L2 13.3323V13.2639L5.5948 18.9924H5.55019Z" fill="#191919"/>
<path d="M5.50929 18.9924L2 13.397V13.3323L5.55019 18.9924H5.50929Z" fill="#181818"/>
<path d="M5.46468 18.9924L2 13.4654V13.397L5.50929 18.9924H5.46468Z" fill="#171717"/>
<path d="M5.42379 18.9924L2 13.5338V13.4654L5.46468 18.9924H5.42379Z" fill="#161616"/>
<path d="M5.37918 18.9924L2 13.6022V13.5338L5.42379 18.9924H5.37918Z" fill="#151515"/>
<path d="M5.33829 18.9924L2 13.6707V13.6022L5.37918 18.9924H5.33829Z" fill="#141414"/>
<path d="M5.29368 18.9924L2 13.7391V13.6707L5.33829 18.9924H5.29368Z" fill="#121212"/>
<path d="M5.25279 18.9924L2 13.8075V13.7391L5.29368 18.9924H5.25279Z" fill="#111111"/>
<path d="M5.20818 18.9924L2 13.8759V13.8075L5.25279 18.9924H5.20818Z" fill="#101010"/>
<path d="M5.16729 18.9924L2 13.9443V13.8759L5.20818 18.9924H5.16729Z" fill="#0F0F0F"/>
<path d="M5.12268 18.9924L2 14.0128V13.9443L5.16729 18.9924H5.12268Z" fill="#0E0E0E"/>
<path d="M5.08178 18.9924L2 14.0812V14.0128L5.12268 18.9924H5.08178Z" fill="#0D0D0D"/>
<path d="M5.03717 18.9924L2 14.1496V14.0812L5.08178 18.9924H5.03717Z" fill="#0C0C0C"/>
<path d="M4.99628 18.9924L2 14.218V14.1496L5.03717 18.9924H4.99628Z" fill="#0B0B0B"/>
<path d="M4.95167 18.9924L2 14.2864V14.218L4.99628 18.9924H4.95167Z" fill="#0A0A0A"/>
<path d="M4.91078 18.9924L2 14.3549V14.2864L4.95167 18.9924H4.91078Z" fill="#090909"/>
<path d="M4.86617 18.9924L2 14.4233V14.3549L4.91078 18.9924H4.86617Z" fill="#080808"/>
<path d="M4.82528 18.9924L2 14.4879V14.4233L4.86617 18.9924H4.82528Z" fill="#070707"/>
<path d="M4.78067 18.9924L2 14.5563V14.4879L4.82528 18.9924H4.78067Z" fill="#060606"/>
<path d="M4.73978 18.9924L2 14.6248V14.5563L4.78067 18.9924H4.73978Z" fill="#050505"/>
<path d="M4.69517 18.9924L2 14.6932V14.6248L4.73978 18.9924H4.69517Z" fill="#040404"/>
<path d="M4.65428 18.9924L2 14.7616V14.6932L4.69517 18.9924H4.65428Z" fill="#030303"/>
<path d="M4.60967 18.9924L2 14.83V14.7616L4.65428 18.9924H4.60967Z" fill="#020202"/>
<path d="M4.56877 18.9924L2 14.8984V14.83L4.60967 18.9924H4.56877Z" fill="#010101"/>
<path d="M4.52416 18.9924L2 14.9669V14.8984L4.56877 18.9924H4.52416Z" fill="black"/>
<path d="M2 14.9669L4.52416 18.9924H2V14.9669Z" fill="black"/>
</g>
</g>
</g>
<defs>
<clipPath id="clip0_16008_197">
<rect width="20" height="14" fill="white" transform="translate(2 5)"/>
</clipPath>
</defs>
</svg>
