<svg width="24" height="24" viewBox="0 0 24 24" fill="none" xmlns="http://www.w3.org/2000/svg">
<path fill-rule="evenodd" clip-rule="evenodd" d="M19.8469 14.756V17.4833H4.2488V14.756H19.8469ZM4.27273 9.68421C5.52794 9.68421 6.54545 10.7017 6.54545 11.9569C6.54545 13.2122 5.52794 14.2297 4.27273 14.2297C3.01751 14.2297 2 13.2122 2 11.9569C2 10.7017 3.01751 9.68421 4.27273 9.68421ZM9.39234 9.68421C10.6476 9.68421 11.6651 10.7017 11.6651 11.9569C11.6651 13.2122 10.6476 14.2297 9.39234 14.2297C8.13713 14.2297 7.11962 13.2122 7.11962 11.9569C7.11962 10.7017 8.13713 9.68421 9.39234 9.68421ZM14.5598 9.68421C15.815 9.68421 16.8325 10.7017 16.8325 11.9569C16.8325 13.2122 15.815 14.2297 14.5598 14.2297C13.3046 14.2297 12.2871 13.2122 12.2871 11.9569C12.2871 10.7017 13.3046 9.68421 14.5598 9.68421ZM19.7273 9.68421C20.9825 9.68421 22 10.7017 22 11.9569C22 13.2122 20.9825 14.2297 19.7273 14.2297C18.4721 14.2297 17.4545 13.2122 17.4545 11.9569C17.4545 10.7017 18.4721 9.68421 19.7273 9.68421ZM12.6699 6L12.669 7.291L13.9617 7.29187V8.53588L12.669 8.535L12.6699 9.92344H11.378L11.377 8.535L10.0861 8.53588V7.29187L11.377 7.291L11.378 6H12.6699Z" fill="#3499C9"/>
</svg>
