<svg width="48" height="48" viewBox="0 0 48 48" fill="none" xmlns="http://www.w3.org/2000/svg">
<path d="M42.2692 44.7997L40.3692 38.7897C40.0192 37.5797 40.0092 36.2897 40.3292 35.0697L40.8592 33.0797C41.2792 31.4997 41.2592 29.8397 40.8092 28.2797L39.4192 23.4697C39.2692 22.9297 38.7092 22.6197 38.1792 22.7697C37.6492 22.9197 37.3392 23.4797 37.4992 24.0097L38.8892 28.8397C39.2392 30.0597 39.2592 31.3497 38.9292 32.5697L38.3992 34.5597C37.9792 36.1297 37.9992 37.7897 38.4492 39.3597V39.3797L39.3992 42.3897C39.5492 42.8497 39.6692 43.2497 39.7792 43.5997L40.3492 45.3997L40.3992 45.3797C40.6992 46.0897 40.8792 46.0897 41.2992 46.0897C41.6192 46.0897 41.9192 45.9397 42.1092 45.6797C42.2992 45.4197 42.3492 45.0897 42.2592 44.7897L42.2692 44.7997Z" fill="#323232"/>
<path d="M38.3391 19.6998L37.8791 18.1198C37.4091 16.4898 35.6491 15.4698 33.9491 15.9498C33.4391 16.0998 32.9891 16.3798 32.6291 16.7398C32.3891 16.4798 32.1191 16.2498 31.8091 16.0698C31.0791 15.6698 30.1991 15.5698 29.3991 15.7998C28.6191 16.0298 27.9691 16.5398 27.5591 17.2398C26.8491 16.8698 26.0191 16.7798 25.2291 17.0098C24.4391 17.2398 23.7891 17.7597 23.3791 18.4597C22.6891 18.0997 21.8591 17.9797 21.0591 18.2097C20.2491 18.4497 19.5691 18.9798 19.1591 19.7298C18.7491 20.4698 18.6491 21.3298 18.8891 22.1398L19.1491 23.0298L18.3491 24.3098C17.4091 25.8098 17.1491 27.6398 17.6391 29.3398L18.9591 33.9197V33.9397L19.0491 34.2097C19.1791 34.6397 19.5791 34.9197 20.0091 34.9197C20.1091 34.9197 20.2091 34.9098 20.2991 34.8798C20.8291 34.7198 21.1191 34.1598 20.9591 33.6298L19.5591 28.7998C19.2591 27.7498 19.3991 26.6298 19.8991 25.6698V25.7198C20.0391 26.1698 20.1591 26.5698 20.2591 26.9298L20.9391 29.2798L20.9991 29.2598C21.2991 29.9998 21.4791 29.9998 21.8991 29.9998C22.2091 29.9998 22.5091 29.8498 22.6991 29.5998C22.8891 29.3498 22.9491 29.0198 22.8591 28.7198L20.7991 21.6098C20.7091 21.3098 20.7491 20.9998 20.8991 20.7197C21.0491 20.4497 21.2991 20.2498 21.5991 20.1598C22.1991 19.9898 22.8691 20.3597 23.0491 20.9597L23.2891 21.7898L24.0091 24.2798C24.0491 24.3998 24.1091 24.5098 24.1791 24.6098C24.1991 24.6398 24.2291 24.6598 24.2491 24.6798C24.3091 24.7398 24.3691 24.7998 24.4491 24.8398C24.4791 24.8598 24.5191 24.8798 24.5491 24.8898C24.6191 24.9198 24.6991 24.9497 24.7791 24.9598C24.8191 24.9598 24.8491 24.9798 24.8891 24.9798C24.9191 24.9798 24.9391 24.9898 24.9591 24.9898C25.0491 24.9898 25.1391 24.9798 25.2391 24.9498C25.6391 24.8398 25.9091 24.4898 25.9591 24.1098C25.9791 23.9798 25.9591 23.8498 25.9291 23.7098L24.9691 20.3797C24.8791 20.0797 24.9191 19.7698 25.0691 19.4898C25.2191 19.2198 25.4691 19.0198 25.7691 18.9298C26.0691 18.8398 26.3891 18.8798 26.6591 19.0298C26.9291 19.1798 27.1291 19.4298 27.2191 19.7298L28.0991 22.7598C28.1391 22.8798 28.1991 22.9898 28.2691 23.0898C28.2891 23.1198 28.3191 23.1398 28.3391 23.1698C28.3991 23.2298 28.4591 23.2898 28.5291 23.3298C28.5591 23.3498 28.5991 23.3698 28.6391 23.3898C28.7091 23.4198 28.7891 23.4497 28.8691 23.4597C28.9091 23.4597 28.9491 23.4798 28.9891 23.4798C29.0091 23.4798 29.0391 23.4898 29.0591 23.4898C29.1491 23.4898 29.2391 23.4798 29.3391 23.4498C29.8691 23.2998 30.1791 22.7397 30.0191 22.2097L29.1391 19.1798C29.0491 18.8798 29.0891 18.5598 29.2391 18.2898C29.3891 18.0198 29.6391 17.8198 29.9391 17.7298C30.2291 17.6498 30.5491 17.6798 30.8291 17.8298C31.0991 17.9798 31.2991 18.2298 31.3891 18.5298L31.7791 19.8797L31.8991 20.2898L32.1891 21.3098C32.2291 21.4398 32.2891 21.5398 32.3591 21.6398C32.3791 21.6698 32.4091 21.6897 32.4391 21.7197C32.4991 21.7797 32.5591 21.8297 32.6291 21.8797C32.6691 21.8997 32.6991 21.9198 32.7391 21.9398C32.8091 21.9698 32.8891 21.9998 32.9691 22.0098C33.0091 22.0098 33.0491 22.0298 33.0891 22.0298C33.1091 22.0298 33.1391 22.0398 33.1591 22.0398C33.2491 22.0398 33.3391 22.0298 33.4391 21.9998C33.9691 21.8498 34.2791 21.2898 34.1191 20.7598L33.7091 19.3298C33.6191 19.0298 33.6591 18.7198 33.8091 18.4398C33.9591 18.1698 34.2091 17.9697 34.5091 17.8797C35.1091 17.7097 35.7891 18.0798 35.9591 18.6798L36.4191 20.2598C36.5691 20.7898 37.1191 21.0898 37.6591 20.9398C38.1891 20.7898 38.4991 20.2298 38.3391 19.6998Z" fill="#323232"/>
<path d="M28.4391 42.94C27.8591 40.93 26.5891 39.18 24.8591 38.01L23.6491 37.19C23.0191 36.76 22.7191 36.54 22.2891 35.98C21.9491 35.55 21.3191 35.47 20.8891 35.81C20.4591 36.15 20.3791 36.78 20.7191 37.21C21.3391 38 21.8391 38.37 22.5291 38.84L23.7391 39.66C25.0691 40.56 26.0491 41.92 26.5191 43.49L26.9291 45.32C27.0291 45.78 27.4491 46.1 27.8991 46.1C27.9691 46.1 28.0491 46.1 28.1191 46.08C28.6591 45.96 28.9991 45.43 28.8791 44.89L28.4491 42.95L28.4391 42.94Z" fill="#323232"/>
<path d="M16.3792 36.9398C16.9292 36.9398 17.3792 36.4898 17.3792 35.9398V35.5398C17.3792 34.5198 16.9292 33.5698 16.1392 32.9098L12.4992 29.9598C12.1692 29.6798 11.8992 29.3498 11.6992 28.9798L8.76919 23.3898C8.60919 23.0998 8.49919 22.7798 8.43919 22.4498L7.48919 17.6498C7.41919 17.3098 7.60919 17.0398 7.80919 16.8998C7.93919 16.8098 8.18919 16.6898 8.48919 16.8898C9.08919 17.2898 9.45919 17.7698 9.59919 18.3298L10.6892 22.6598C10.7392 22.8598 10.8492 23.0298 10.9992 23.1598L14.0092 25.8198C14.1992 25.9798 14.4092 26.0798 14.6792 26.0698H15.9892C16.5392 26.0498 16.9892 25.5998 16.9792 25.0498C16.9792 24.4998 16.5292 24.0598 15.9792 24.0598H15.6692V6.51984C15.6692 5.85984 16.2092 5.31984 16.8692 5.31984C17.5292 5.31984 18.0692 5.85984 18.0692 6.51984V7.16984V17.0298V17.5498C18.0692 18.0998 18.5192 18.5498 19.0692 18.5498C19.6192 18.5498 20.0692 18.0998 20.0692 17.5498V6.50984V5.04984C20.0692 4.38984 20.6092 3.84984 21.2692 3.84984C21.9292 3.84984 22.4692 4.38984 22.4692 5.04984V6.50984V11.2298C22.4692 11.6898 22.4692 12.1098 22.4692 12.4998V15.9498C22.4692 16.1598 22.5492 16.3398 22.6592 16.4998C22.7992 16.9398 23.0392 16.9498 23.4692 16.9498C24.0192 16.9498 24.4692 16.4998 24.4692 15.9498V6.50984C24.4692 5.84984 25.0092 5.30984 25.6692 5.30984C26.3292 5.30984 26.8692 5.84984 26.8692 6.50984V8.90984V14.6098C26.8692 15.1598 27.3192 15.6098 27.8692 15.6098C28.1492 15.6098 28.3992 15.4998 28.5792 15.3198C28.7592 15.1398 28.8692 14.8898 28.8692 14.6098V8.91984C28.8692 8.25984 29.4092 7.71984 30.0692 7.71984C30.7292 7.71984 31.2692 8.25984 31.2692 8.91984V14.2598C31.2692 14.8098 31.7192 15.2598 32.2692 15.2598C32.8192 15.2598 33.2692 14.8098 33.2692 14.2598V8.91984C33.2692 7.15984 31.8292 5.71984 30.0692 5.71984C29.6292 5.71984 29.1992 5.80984 28.8192 5.97984C28.5692 4.46984 27.2592 3.30984 25.6692 3.30984C25.1192 3.30984 24.6192 3.45984 24.1692 3.69984C23.6592 2.60984 22.5592 1.83984 21.2692 1.83984C19.9792 1.83984 18.8792 2.59984 18.3692 3.69984C17.9192 3.45984 17.4092 3.30984 16.8692 3.30984C15.1092 3.30984 13.6692 4.74984 13.6692 6.50984V22.8498L12.5592 21.8698L11.5492 17.8398C11.2992 16.8098 10.6292 15.8998 9.55919 15.1898C8.67919 14.6198 7.57919 14.6498 6.69919 15.2498C5.77919 15.8698 5.32919 16.9698 5.53919 18.0398L6.48919 22.8298C6.58919 23.3498 6.75919 23.8498 7.00919 24.3198L9.93919 29.9098C10.2592 30.5198 10.6992 31.0498 11.2392 31.4998L14.8792 34.4498C15.1992 34.7198 15.3892 35.1098 15.3892 35.5298V35.9298C15.3892 36.4798 15.8392 36.9298 16.3892 36.9298L16.3792 36.9398Z" fill="#323232"/>
<path d="M16.3984 38.3301C15.8484 38.3301 15.3984 38.7801 15.3984 39.3301V45.0201C15.3984 45.5701 15.8484 46.0201 16.3984 46.0201C16.9484 46.0201 17.3984 45.5701 17.3984 45.0201V39.3301C17.3984 38.7801 16.9484 38.3301 16.3984 38.3301Z" fill="#323232"/>
<path d="M7.43089 32.7299C7.21089 32.7299 6.98089 32.6599 6.80089 32.5099C6.37089 32.1599 6.31089 31.5299 6.66089 31.0999L6.92089 30.7799C7.27089 30.3499 7.90089 30.2899 8.33089 30.6399C8.76089 30.9899 8.82089 31.6199 8.47089 32.0499L8.21089 32.3699C8.01089 32.6099 7.72089 32.7399 7.43089 32.7399V32.7299Z" fill="#8DE2E0"/>
<path d="M6.27013 40.6101C4.97013 40.6101 4.04013 40.2301 3.48013 39.4701C2.48013 38.0901 3.02013 35.9801 5.13013 33.0301C5.45013 32.5801 6.08013 32.4801 6.53013 32.8001C6.98013 33.1201 7.08013 33.7501 6.76013 34.2001C4.94013 36.7401 4.86013 37.9701 5.10013 38.3001C5.24013 38.5001 5.68013 38.6201 6.27013 38.6201C7.31013 38.6201 8.74013 38.2901 10.5201 37.6401C13.8701 36.4201 18.1501 34.1501 22.5901 31.2401C23.0501 30.9401 23.6701 31.0701 23.9701 31.5301C24.2701 31.9901 24.1401 32.6101 23.6801 32.9101C19.1201 35.8901 14.6901 38.2401 11.2001 39.5101C9.19013 40.2401 7.53013 40.6101 6.26013 40.6101H6.27013Z" fill="#8DE2E0"/>
<path d="M32.8103 25.9004C32.5403 25.9004 32.2703 25.7904 32.0703 25.5704C31.7003 25.1604 31.7303 24.5304 32.1303 24.1604C32.2003 24.1004 39.0203 17.8504 40.9303 15.3004C43.0303 12.5004 43.1503 11.1504 42.8903 10.7904C42.7003 10.5204 42.1403 10.4704 41.7203 10.4704C40.7903 10.4704 39.0103 10.7604 35.8103 12.1204C35.3103 12.3304 34.7103 12.1004 34.5003 11.5904C34.2803 11.0804 34.5203 10.4904 35.0303 10.2804C40.1003 8.1104 43.2703 7.9004 44.5203 9.6104C45.5703 11.0604 44.9303 13.3104 42.5403 16.4904C40.5203 19.1904 33.7803 25.3704 33.4903 25.6304C33.3003 25.8104 33.0603 25.8904 32.8203 25.8904L32.8103 25.9004Z" fill="#8DE2E0"/>
</svg>
