<svg width="48" height="48" viewBox="0 0 48 48" fill="none" xmlns="http://www.w3.org/2000/svg">
<path d="M31.18 23.1099H20.25C19.7 23.1099 19.25 22.6599 19.25 22.1099C19.25 21.5599 19.7 21.1099 20.25 21.1099H31.18C31.73 21.1099 32.18 21.5599 32.18 22.1099C32.18 22.6599 31.73 23.1099 31.18 23.1099Z" fill="#323232"/>
<path d="M23.2509 29.8701H19.5909C19.0409 29.8701 18.5909 29.4201 18.5909 28.8701C18.5909 28.3201 19.0409 27.8701 19.5909 27.8701H23.2509C23.8009 27.8701 24.2509 28.3201 24.2509 28.8701C24.2509 29.4201 23.8009 29.8701 23.2509 29.8701ZM15.3109 29.8701H11.6509C11.1009 29.8701 10.6509 29.4201 10.6509 28.8701C10.6509 28.3201 11.1009 27.8701 11.6509 27.8701H15.3109C15.8609 27.8701 16.3109 28.3201 16.3109 28.8701C16.3109 29.4201 15.8609 29.8701 15.3109 29.8701ZM7.37094 29.8701H3.71094C3.16094 29.8701 2.71094 29.4201 2.71094 28.8701C2.71094 28.3201 3.16094 27.8701 3.71094 27.8701H7.37094C7.92094 27.8701 8.37094 28.3201 8.37094 28.8701C8.37094 29.4201 7.92094 29.8701 7.37094 29.8701Z" fill="#323232"/>
<path d="M28.6309 36.6299H3.71094C3.16094 36.6299 2.71094 36.1799 2.71094 35.6299C2.71094 35.0799 3.16094 34.6299 3.71094 34.6299H28.6409C29.1909 34.6299 29.6409 35.0799 29.6409 35.6299C29.6409 36.1799 29.1909 36.6299 28.6409 36.6299H28.6309Z" fill="#323232"/>
<path d="M9.67062 26.2602C5.10062 26.2602 1.39062 22.5402 1.39062 17.9802C1.39062 13.4202 5.11062 9.7002 9.67062 9.7002C14.2306 9.7002 17.9506 13.4202 17.9506 17.9802C17.9506 22.5402 14.2306 26.2602 9.67062 26.2602ZM9.67062 11.7002C6.21062 11.7002 3.39062 14.5202 3.39062 17.9802C3.39062 21.4402 6.21062 24.2602 9.67062 24.2602C13.1306 24.2602 15.9506 21.4402 15.9506 17.9802C15.9506 14.5202 13.1306 11.7002 9.67062 11.7002Z" fill="#323232"/>
<path d="M10.5902 17.9802L12.6802 15.8902C12.9302 15.6402 12.9302 15.2202 12.6802 14.9702C12.4302 14.7202 12.0102 14.7202 11.7602 14.9702L9.67016 17.0602L7.58016 14.9702C7.33016 14.7202 6.91016 14.7202 6.66016 14.9702C6.41016 15.2202 6.41016 15.6402 6.66016 15.8902L8.75016 17.9802L6.66016 20.0702C6.41016 20.3202 6.41016 20.7402 6.66016 20.9902C6.79016 21.1202 6.95016 21.1802 7.12016 21.1802C7.29016 21.1802 7.45016 21.1202 7.58016 20.9902L9.67016 18.9002L11.7602 20.9902C11.8902 21.1202 12.0502 21.1802 12.2202 21.1802C12.3902 21.1802 12.5502 21.1202 12.6802 20.9902C12.9302 20.7402 12.9302 20.3202 12.6802 20.0702L10.5902 17.9802Z" fill="#DF0000"/>
<path d="M38.3691 19.8702C38.3691 19.0802 37.7291 18.4502 36.9491 18.4502C36.1691 18.4502 35.5291 19.0902 35.5291 19.8702V24.6902C35.5291 24.8302 35.4591 24.9702 35.3491 25.0602L28.8291 30.1102C28.4891 30.3802 28.2891 30.7902 28.2891 31.2202V31.7402C28.2891 32.0602 28.5991 32.2802 28.8991 32.1902L34.9191 30.2702C35.2191 30.1702 35.5291 30.4002 35.5291 30.7202V34.0402C35.5291 34.1102 35.4991 34.1802 35.4391 34.2202L33.1791 35.9202C32.9991 36.0502 32.8991 36.2602 32.8991 36.4802C32.8991 36.6702 32.8991 36.9002 32.8991 37.0802C32.8991 37.2402 33.0591 37.3502 33.2091 37.2902C34.0091 36.9702 36.1491 36.1002 36.7691 35.8502C36.8791 35.8002 36.9991 35.8002 37.1091 35.8502C37.7291 36.1002 39.8691 36.9602 40.6691 37.2902C40.8191 37.3502 40.9791 37.2402 40.9791 37.0802C40.9791 36.8902 40.9791 36.6602 40.9791 36.4802C40.9791 36.2602 40.8791 36.0502 40.6991 35.9202L38.4391 34.2202C38.3791 34.1802 38.3491 34.1102 38.3491 34.0402V30.7202C38.3491 30.4002 38.6591 30.1802 38.9591 30.2702L44.9791 32.1902C45.2791 32.2902 45.5891 32.0602 45.5891 31.7402V31.2202C45.5891 30.7902 45.3891 30.3802 45.0491 30.1102L38.5291 25.0602C38.4191 24.9702 38.3491 24.8302 38.3491 24.6902V19.8702H38.3691Z" fill="#323232"/>
</svg>
