<svg width="24" height="24" viewBox="0 0 24 24" fill="none" xmlns="http://www.w3.org/2000/svg">
<path fill-rule="evenodd" clip-rule="evenodd" d="M5.34982 5.64035C4.44982 5.00035 4.22982 3.76035 4.85982 2.85035C5.48982 1.95035 6.73982 1.73035 7.64982 2.36035C8.54982 3.00035 8.76982 4.24035 8.13982 5.15035C7.49982 6.05035 6.25982 6.27035 5.34982 5.64035ZM15.9998 20.0004C15.9998 19.4504 15.5498 19.0004 14.9998 19.0004H8.92982C7.44982 19.0004 6.18982 17.9204 5.96982 16.4604L4.15982 7.78035C4.06982 7.33035 3.66982 7.00035 3.19982 7.00035C2.57982 7.00035 2.11982 7.57035 2.23982 8.18035L3.98982 16.7604C4.36982 19.2004 6.46982 21.0004 8.93982 21.0004H14.9998C15.5498 21.0004 15.9998 20.5504 15.9998 20.0004ZM15.5398 15.0004H11.3498L10.3198 10.9004C11.5998 11.6204 12.9498 12.1804 14.4198 12.2004C14.9998 12.2104 15.4698 11.7104 15.4698 11.1304C15.4698 10.5404 14.9798 10.0904 14.3898 10.0704C13.0798 10.0304 11.7598 9.51035 10.7798 8.74035L9.13982 7.47035C8.90982 7.29035 8.64982 7.17035 8.37982 7.09035C8.05982 7.00035 7.71982 6.97035 7.38982 7.03035H7.36982C6.13982 7.25035 5.31982 8.42035 5.52982 9.64035L6.87982 15.5604C7.15982 16.9804 8.38982 18.0004 9.82982 18.0004H16.6798L19.7698 20.4204C20.1898 20.7504 20.7898 20.7104 21.1598 20.3404C21.6098 19.8904 21.5598 19.1604 21.0598 18.7704L16.7698 15.4204C16.4198 15.1504 15.9898 15.0004 15.5398 15.0004Z" fill="#323232"/>
</svg>
