<svg width="24" height="24" viewBox="0 0 24 24" fill="none" xmlns="http://www.w3.org/2000/svg">
<path fill-rule="evenodd" clip-rule="evenodd" d="M11 12C8.23772 12 6 9.76228 6 7C6 4.23772 8.23772 2 11 2C13.7623 2 16 4.23772 16 7C16 9.76228 13.7623 12 11 12ZM11 10C12.6577 10 14 8.65772 14 7C14 5.34228 12.6577 4 11 4C9.34228 4 8 5.34228 8 7C8 8.65772 9.34228 10 11 10ZM12.9655 13.1364C12.3081 13.0465 11.6461 13 11 13C6.83098 13 2 14.9353 2 18V20H4V18C4 16.5399 7.844 15 11 15C11.2183 15 11.44 15.0074 11.6634 15.0216C11.9928 14.3221 12.4346 13.6859 12.9655 13.1364ZM18 13C15.24 13 13 15.24 13 18C13 20.76 15.24 23 18 23C20.76 23 23 20.76 23 18C23 15.24 20.76 13 18 13ZM17.5 21V20H18.5V21H17.5ZM17.5 19V15H18.5V19H17.5Z" fill="#323232"/>
</svg>
