<svg width="48" height="48" viewBox="0 0 48 48" fill="none" xmlns="http://www.w3.org/2000/svg">
<path fill-rule="evenodd" clip-rule="evenodd" d="M38.2398 34.6802C37.0698 34.6802 36.0698 35.3802 35.6098 36.3802C35.1598 35.3802 34.1498 34.6802 32.9798 34.6802C31.3798 34.6802 30.0898 35.9702 30.0898 37.5702C30.0898 39.1702 31.3798 40.4602 32.9798 40.4602C34.1498 40.4602 35.1498 39.7602 35.6098 38.7602C36.0598 39.7602 37.0698 40.4602 38.2398 40.4602C39.8398 40.4602 41.1298 39.1702 41.1298 37.5702C41.1298 35.9702 39.8398 34.6802 38.2398 34.6802Z" fill="#DF0000"/>
<path fill-rule="evenodd" clip-rule="evenodd" d="M25.2891 15.5C32.6291 13.34 35.3291 11 33.3791 8.50004C30.9491 6.30004 28.2591 8.64004 25.2891 15.5Z" fill="#8DE2E0"/>
<path fill-rule="evenodd" clip-rule="evenodd" d="M22.7093 15.5C15.3693 13.34 12.6693 11 14.6193 8.50004C17.0493 6.30004 19.7393 8.64004 22.7093 15.5Z" fill="#8DE2E0"/>
<path d="M16.8105 36.5601H9.98047C9.43047 36.5601 8.98047 37.0101 8.98047 37.5601C8.98047 38.1101 9.43047 38.5601 9.98047 38.5601H16.8105C17.3605 38.5601 17.8105 38.1101 17.8105 37.5601C17.8105 37.0101 17.3605 36.5601 16.8105 36.5601Z" fill="#323232"/>
<path d="M9.98047 31.21H12.0805C12.6305 31.21 13.0805 30.76 13.0805 30.21C13.0805 29.66 12.6305 29.21 12.0805 29.21H9.98047C9.43047 29.21 8.98047 29.66 8.98047 30.21C8.98047 30.76 9.43047 31.21 9.98047 31.21Z" fill="#323232"/>
<path d="M18.9086 29.21H16.8086C16.2586 29.21 15.8086 29.66 15.8086 30.21C15.8086 30.76 16.2586 31.21 16.8086 31.21H18.9086C19.4586 31.21 19.9086 30.76 19.9086 30.21C19.9086 29.66 19.4586 29.21 18.9086 29.21Z" fill="#323232"/>
<path d="M25.7387 29.21H23.6387C23.0887 29.21 22.6387 29.66 22.6387 30.21C22.6387 30.76 23.0887 31.21 23.6387 31.21H25.7387C26.2887 31.21 26.7387 30.76 26.7387 30.21C26.7387 29.66 26.2887 29.21 25.7387 29.21Z" fill="#323232"/>
<path d="M32.5688 29.21H30.4688C29.9187 29.21 29.4688 29.66 29.4688 30.21C29.4688 30.76 29.9187 31.21 30.4688 31.21H32.5688C33.1188 31.21 33.5688 30.76 33.5688 30.21C33.5688 29.66 33.1188 29.21 32.5688 29.21Z" fill="#323232"/>
<path d="M41.7895 15.6801H32.2595C33.8695 15.1101 35.3595 14.4301 36.2795 13.6401C38.2395 11.9801 38.9295 9.27008 37.9995 6.91008C37.0795 4.57008 34.7295 3.00008 32.1795 3.00008C30.2795 2.94008 28.4495 3.78008 27.2995 5.26008C26.1295 6.55008 24.8095 9.25008 23.9995 12.0501C23.1895 9.24008 21.8695 6.53008 20.7295 5.30008C19.5795 3.80008 17.7595 2.95008 15.8595 3.01008C13.2795 3.01008 10.9195 4.58008 9.99953 6.92008C9.06953 9.28008 9.76953 11.9801 11.7295 13.6501C12.6595 14.4401 14.1395 15.1201 15.7495 15.6901H6.20953C4.30953 15.6901 2.76953 17.2301 2.76953 19.1301V41.5701C2.76953 43.4701 4.30953 45.0101 6.20953 45.0101H41.7795C43.6795 45.0101 45.2195 43.4701 45.2195 41.5701V19.1301C45.2195 17.2301 43.6795 15.6901 41.7795 15.6901L41.7895 15.6801ZM28.7995 6.58008C28.7995 6.58008 28.8395 6.53008 28.8595 6.51008C29.5895 5.56008 30.7495 5.00008 32.0095 5.00008C32.0595 5.00008 32.0995 5.00008 32.1495 5.00008C33.9195 5.00008 35.5195 6.06008 36.1395 7.64008C36.7595 9.20008 36.2895 11.0001 34.9795 12.1101C33.1895 13.6301 28.1795 14.8801 25.3095 15.4601C25.6995 12.0501 27.5395 7.93008 28.7895 6.58008H28.7995ZM11.8595 7.65008C12.4795 6.07008 14.0895 5.01008 15.8895 5.01008C17.1795 4.98008 18.3895 5.53008 19.1995 6.59008C20.4395 7.94008 22.2895 12.0701 22.6795 15.4701C19.8195 14.8901 14.7995 13.6401 13.0095 12.1201C11.6995 11.0101 11.2395 9.21008 11.8495 7.65008H11.8595ZM43.2295 41.5601C43.2295 42.3501 42.5795 43.0001 41.7895 43.0001H6.20953C5.41953 43.0001 4.76953 42.3501 4.76953 41.5601V19.1201C4.76953 18.3301 5.41953 17.6801 6.20953 17.6801H21.4595L16.6795 22.8301C16.2995 23.2301 16.3295 23.8701 16.7295 24.2401C16.9195 24.4201 17.1695 24.5101 17.4095 24.5101C17.6795 24.5101 17.9495 24.4001 18.1395 24.1901L23.9895 17.8901L29.8395 24.1901C30.0395 24.4001 30.2995 24.5101 30.5695 24.5101C30.8095 24.5101 31.0595 24.4201 31.2495 24.2401C31.6495 23.8601 31.6795 23.2301 31.2995 22.8301L26.5195 17.6801H41.7695C42.5595 17.6801 43.2095 18.3301 43.2095 19.1201V41.5601H43.2295Z" fill="#323232"/>
</svg>
