<svg width="48" height="48" viewBox="0 0 48 48" fill="none" xmlns="http://www.w3.org/2000/svg">
<path d="M42.3589 37.3299H5.63891C4.11891 37.3299 2.87891 36.0899 2.87891 34.5699V13.4299C2.87891 11.9099 4.11891 10.6699 5.63891 10.6699H42.3589C43.8789 10.6699 45.1189 11.9099 45.1189 13.4299V34.5599C45.1189 36.0799 43.8789 37.3199 42.3589 37.3199V37.3299ZM5.63891 12.6699C5.21891 12.6699 4.87891 13.0099 4.87891 13.4299V34.5599C4.87891 34.9799 5.21891 35.3199 5.63891 35.3199H42.3589C42.7789 35.3199 43.1189 34.9799 43.1189 34.5599V13.4299C43.1189 13.0099 42.7789 12.6699 42.3589 12.6699H5.63891Z" fill="#323232"/>
<path fill-rule="evenodd" clip-rule="evenodd" d="M34.9218 33.9703C34.9218 33.9703 34.9618 33.9903 34.9818 33.9903C35.0218 33.9903 35.0418 33.9903 35.0718 33.9503C35.1118 33.9103 35.1118 33.8303 35.0718 33.8003C32.8718 31.3903 30.1718 29.4403 27.1518 28.1803L26.2218 27.7903C25.7418 27.5803 25.4218 27.1003 25.4218 26.5403C25.4818 24.4803 30.1418 24.9003 30.6218 23.9103L30.7018 23.7403C29.7418 22.8703 28.6118 22.2303 27.3518 21.8703C27.3318 21.9303 27.2918 22.1603 27.5518 22.6003C27.8318 23.0603 27.2518 23.8103 26.4018 23.0103L26.3318 22.9503C20.1518 17.0503 17.3018 20.9403 13.1118 14.0803C13.0718 14.0203 13.0218 14.0003 12.9618 14.0403C12.9018 14.0803 12.8918 14.1403 12.9018 14.2003C16.2118 22.5203 22.9818 20.7603 23.7718 28.5203C23.8118 28.8103 24.0118 29.0403 24.2918 29.0803C28.0418 29.7003 31.7118 31.3203 34.8918 33.9803H34.9118" fill="#DF0000"/>
</svg>
