<svg width="24" height="24" viewBox="0 0 24 24" fill="none" xmlns="http://www.w3.org/2000/svg">
<g clip-path="url(#clip0_16335_2463)">
<path d="M20.4851 20.4853C25.1714 15.799 25.1714 8.20101 20.4851 3.51472C15.7988 -1.17157 8.20081 -1.17157 3.51452 3.51472C-1.17177 8.20101 -1.17177 15.799 3.51452 20.4853C8.20081 25.1716 15.7988 25.1716 20.4851 20.4853Z" fill="white"/>
<mask id="mask0_16335_2463" style="mask-type:luminance" maskUnits="userSpaceOnUse" x="-1" y="0" width="25" height="24">
<path d="M20.4851 20.4853C25.1714 15.799 25.1714 8.20101 20.4851 3.51472C15.7988 -1.17157 8.20081 -1.17157 3.51452 3.51472C-1.17177 8.20101 -1.17177 15.799 3.51452 20.4853C8.20081 25.1716 15.7988 25.1716 20.4851 20.4853Z" fill="white"/>
</mask>
<g mask="url(#mask0_16335_2463)">
<path d="M29.9993 0H-6.00067V24H29.9993V0Z" fill="white"/>
<path fill-rule="evenodd" clip-rule="evenodd" d="M-6.00067 0V24H18.0482L-6.00067 0Z" fill="#FF0000"/>
<path fill-rule="evenodd" clip-rule="evenodd" d="M30.0008 0H5.95184L30.0008 24V0Z" fill="#FF0000"/>
<path fill-rule="evenodd" clip-rule="evenodd" d="M3.69909 0H-3.74799L20.3009 24H27.748L3.69909 0Z" fill="black"/>
</g>
</g>
<rect x="0.25" y="0.25" width="23.5" height="23.5" rx="11.75" stroke="#E5E3E1" stroke-width="0.5"/>
<defs>
<clipPath id="clip0_16335_2463">
<rect width="24" height="24" rx="12" fill="white"/>
</clipPath>
</defs>
</svg>
