<svg width="24" height="24" viewBox="0 0 24 24" fill="none" xmlns="http://www.w3.org/2000/svg">
<path fill-rule="evenodd" clip-rule="evenodd" d="M22 10V6C22 4.9 21.1 4 20 4H4C2.9 4 2.01 4.9 2.01 6V10C3.11 10 4 10.9 4 12C4 13.1 3.11 14 2 14V18C2 19.1 2.9 20 4 20H20C21.1 20 22 19.1 22 18V14C20.9 14 20 13.1 20 12C20 10.9 20.9 10 22 10ZM20 18H4V15.4652C5.19649 14.7732 6 13.4794 6 12C6 10.525 5.2004 9.23221 4.01 8.53873V6H20V8.53731C18.8055 9.23023 18 10.5233 18 12C18 13.4767 18.8055 14.7698 20 15.4627V18ZM16.9404 17C16.9312 17 16.922 17 16.9129 16.9904H16.9038C15.3269 15.6571 13.5117 14.8455 11.6507 14.5364C11.5132 14.517 11.4124 14.4011 11.394 14.2561C11.1877 12.2238 10.1706 11.4956 9.01265 10.6666C7.95769 9.9114 6.78577 9.07243 6.00346 7.08731C5.99424 7.05836 6.00346 7.02941 6.03093 7.01007C6.05851 6.99074 6.08598 7.00035 6.10432 7.02941C7.22968 8.88932 8.15932 9.17274 9.26002 9.50833C10.1948 9.79332 11.2529 10.1159 12.6591 11.4736L12.6958 11.5027C13.1175 11.9084 13.4018 11.5316 13.2641 11.2997C13.1358 11.0775 13.1543 10.9616 13.1634 10.9327C13.7867 11.1162 14.346 11.435 14.8228 11.8697L14.7861 11.9567C14.6915 12.1522 14.2707 12.2367 13.7957 12.3321C13.0737 12.477 12.2265 12.6471 12.2099 13.2707C12.2099 13.5509 12.3657 13.7923 12.6041 13.8987L13.0625 14.092C14.5569 14.7199 15.8953 15.6956 16.9863 16.9034C17.0046 16.9228 17.0046 16.9613 16.9863 16.9807C16.968 17 16.9587 17 16.9404 17Z" fill="#323232"/>
</svg>
