<svg width="48" height="48" viewBox="0 0 48 48" fill="none" xmlns="http://www.w3.org/2000/svg">
<path d="M44.2195 35.0898H3.76953V40.0898H44.2195V35.0898Z" fill="#8DE2E0"/>
<path d="M44.2295 41.0902H3.76953C3.21953 41.0902 2.76953 40.6402 2.76953 40.0902V7.91016C2.76953 7.36016 3.21953 6.91016 3.76953 6.91016H44.2195C44.7695 6.91016 45.2195 7.36016 45.2195 7.91016V40.0902C45.2195 40.6402 44.7695 41.0902 44.2195 41.0902H44.2295ZM4.76953 39.0902H43.2195V17.1902H4.76953V39.0902ZM4.76953 15.1802H43.2195V8.91016H4.76953V15.1802Z" fill="#323232"/>
<path d="M7.89992 13.4795C8.7173 13.4795 9.37992 12.8169 9.37992 11.9995C9.37992 11.1821 8.7173 10.5195 7.89992 10.5195C7.08254 10.5195 6.41992 11.1821 6.41992 11.9995C6.41992 12.8169 7.08254 13.4795 7.89992 13.4795Z" fill="#DF0000"/>
<path d="M12.6206 13.4795C13.438 13.4795 14.1006 12.8169 14.1006 11.9995C14.1006 11.1821 13.438 10.5195 12.6206 10.5195C11.8032 10.5195 11.1406 11.1821 11.1406 11.9995C11.1406 12.8169 11.8032 13.4795 12.6206 13.4795Z" fill="#323232"/>
<path d="M17.3394 13.4795C18.1568 13.4795 18.8194 12.8169 18.8194 11.9995C18.8194 11.1821 18.1568 10.5195 17.3394 10.5195C16.522 10.5195 15.8594 11.1821 15.8594 11.9995C15.8594 12.8169 16.522 13.4795 17.3394 13.4795Z" fill="#323232"/>
</svg>
