<svg width="48" height="48" viewBox="0 0 48 48" fill="none" xmlns="http://www.w3.org/2000/svg">
<path d="M33.8501 18.8197L27.1901 15.6997V12.7197H20.8301V15.6997L27.4901 18.8197C28.9001 19.3797 29.7701 20.7697 29.6701 22.2797L29.5601 24.9497C30.2701 25.6897 30.6901 26.5697 30.6901 27.5297C30.6901 28.5797 30.1801 29.5497 29.3301 30.3197L28.7501 43.8697C28.6801 44.9197 27.8001 45.7497 26.7401 45.7497H33.1001C34.1601 45.7497 35.0401 44.9197 35.1101 43.8697L36.0401 22.2697C36.1401 20.7697 35.2601 19.3697 33.8601 18.8097L33.8501 18.8197Z" fill="#8DE2E0"/>
<path d="M23.9397 21.8701C19.5897 21.8701 16.1797 24.3501 16.1797 27.5301C16.1797 30.7101 19.5897 33.1901 23.9397 33.1901C28.2897 33.1901 31.6997 30.7101 31.6997 27.5301C31.6997 24.3501 28.2897 21.8701 23.9397 21.8701ZM23.9397 31.1801C20.8197 31.1801 18.1797 29.5101 18.1797 27.5201C18.1797 25.5301 20.8197 23.8601 23.9397 23.8601C27.0597 23.8601 29.6997 25.5301 29.6997 27.5201C29.6997 29.5101 27.0597 31.1801 23.9397 31.1801Z" fill="#323232"/>
<path d="M34.2794 17.4098L28.1994 14.5598V12.2198V8.94977C29.0194 8.76977 29.6294 8.03977 29.6294 7.16977V3.57977C29.6294 2.57977 28.8094 1.75977 27.8094 1.75977H20.1894C19.1894 1.75977 18.3694 2.57977 18.3694 3.57977V7.16977C18.3694 8.03977 18.9894 8.76977 19.7994 8.94977V12.2198V14.5598L13.7694 17.3898C11.9594 18.1098 10.8294 19.8998 10.9594 21.8198L11.8894 43.4398C11.9894 45.0198 13.3194 46.2498 14.8994 46.2498H33.1094C34.6894 46.2498 36.0094 45.0098 36.1194 43.4098L37.0394 21.8298C37.1694 19.8898 36.0394 18.0998 34.2794 17.3998V17.4098ZM21.7994 11.2098V8.99977H26.1894V11.2098H21.7994ZM20.3694 3.74977H27.6294V6.97977H20.3694V3.74977ZM34.1094 43.2998C34.0694 43.8298 33.6294 44.2498 33.0994 44.2498H14.8994C14.3694 44.2498 13.9294 43.8298 13.8894 43.3298L12.9594 21.7098C12.8894 20.6398 13.5094 19.6498 14.5694 19.2198L21.2294 16.0998C21.5794 15.9398 21.8094 15.5798 21.8094 15.1898V13.2198H26.1994V15.1998C26.1994 15.5898 26.4294 15.9398 26.7794 16.0998L33.4894 19.2398C34.4894 19.6398 35.1194 20.6298 35.0394 21.7298L34.1194 43.3098L34.1094 43.2998Z" fill="#323232"/>
</svg>
