<svg width="48" height="48" viewBox="0 0 48 48" fill="none" xmlns="http://www.w3.org/2000/svg">
<path d="M38.4 23.71V13.72C38.4 13.52 38.34 13.33 38.23 13.17L31.75 3.45C31.56 3.17 31.25 3 30.92 3H11.48C11.15 3 10.83 3.17 10.65 3.45L4.17 13.17C4.06 13.33 4 13.53 4 13.72V36.4C4 36.95 4.45 37.4 5 37.4H20.95C22.51 42.1 26.93 45.5 32.15 45.5C38.66 45.5 43.95 40.21 43.95 33.7C43.95 29.49 41.73 25.8 38.4 23.71ZM22.2 5H30.39L35.36 12.45H22.21V5H22.2ZM12.01 5H20.2V12.45H7.04L12.01 5ZM6 35.4V14.45H36.4V22.71C35.08 22.2 33.65 21.91 32.15 21.91C25.64 21.91 20.35 27.2 20.35 33.71C20.35 34.29 20.41 34.85 20.49 35.41H6V35.4ZM32.14 43.5C26.74 43.5 22.34 39.1 22.34 33.7C22.34 28.3 26.74 23.9 32.14 23.9C37.54 23.9 41.94 28.3 41.94 33.7C41.94 39.1 37.54 43.5 32.14 43.5Z" fill="#323232"/>
<path d="M31.4997 37.8897C31.2397 37.8897 30.9797 37.7797 30.7897 37.5997L27.4097 34.2197C27.0197 33.8297 27.0197 33.1997 27.4097 32.8097C27.7997 32.4197 28.4297 32.4197 28.8197 32.8097L31.4397 35.4297L36.1397 30.1497C36.5097 29.7397 37.1397 29.6997 37.5497 30.0697C37.9597 30.4397 37.9997 31.0697 37.6297 31.4797L32.2297 37.5597C32.0497 37.7697 31.7897 37.8897 31.5097 37.8997H31.4797L31.4997 37.8897Z" fill="#DF0000"/>
</svg>
