<svg width="48" height="48" viewBox="0 0 48 48" fill="none" xmlns="http://www.w3.org/2000/svg">
<path d="M16.8009 21.2598H9.96094C9.41094 21.2598 8.96094 20.8098 8.96094 20.2598C8.96094 19.7098 9.41094 19.2598 9.96094 19.2598H16.8009C17.3509 19.2598 17.8009 19.7098 17.8009 20.2598C17.8009 20.8098 17.3509 21.2598 16.8009 21.2598Z" fill="#323232"/>
<path d="M16.8009 35.9805H9.96094C9.41094 35.9805 8.96094 35.5305 8.96094 34.9805C8.96094 34.4305 9.41094 33.9805 9.96094 33.9805H16.8009C17.3509 33.9805 17.8009 34.4305 17.8009 34.9805C17.8009 35.5305 17.3509 35.9805 16.8009 35.9805Z" fill="#323232"/>
<path d="M12.0707 28.6201H9.9707C9.4207 28.6201 8.9707 28.1701 8.9707 27.6201C8.9707 27.0701 9.4207 26.6201 9.9707 26.6201H12.0707C12.6207 26.6201 13.0707 27.0701 13.0707 27.6201C13.0707 28.1701 12.6207 28.6201 12.0707 28.6201Z" fill="#323232"/>
<path d="M18.9105 28.6201H16.8105C16.2605 28.6201 15.8105 28.1701 15.8105 27.6201C15.8105 27.0701 16.2605 26.6201 16.8105 26.6201H18.9105C19.4605 26.6201 19.9105 27.0701 19.9105 27.6201C19.9105 28.1701 19.4605 28.6201 18.9105 28.6201Z" fill="#323232"/>
<path d="M25.7406 28.6201H23.6406C23.0906 28.6201 22.6406 28.1701 22.6406 27.6201C22.6406 27.0701 23.0906 26.6201 23.6406 26.6201H25.7406C26.2906 26.6201 26.7406 27.0701 26.7406 27.6201C26.7406 28.1701 26.2906 28.6201 25.7406 28.6201Z" fill="#323232"/>
<path d="M32.5805 28.6201H30.4805C29.9305 28.6201 29.4805 28.1701 29.4805 27.6201C29.4805 27.0701 29.9305 26.6201 30.4805 26.6201H32.5805C33.1305 26.6201 33.5805 27.0701 33.5805 27.6201C33.5805 28.1701 33.1305 28.6201 32.5805 28.6201Z" fill="#323232"/>
<path fill-rule="evenodd" clip-rule="evenodd" d="M38.2496 32.0898C37.0796 32.0898 36.0796 32.7898 35.6196 33.7898C35.1596 32.7898 34.1596 32.0898 32.9896 32.0898C31.3896 32.0898 30.0996 33.3898 30.0996 34.9798C30.0996 36.5698 31.3996 37.8698 32.9896 37.8698C34.1596 37.8698 35.1696 37.1698 35.6196 36.1698C36.0696 37.1698 37.0796 37.8698 38.2496 37.8698C39.8496 37.8698 41.1396 36.5698 41.1396 34.9798C41.1396 33.3898 39.8396 32.0898 38.2496 32.0898Z" fill="#DF0000"/>
<path d="M41.62 13.0801H36.95L33.99 7.67008C33.13 6.29008 32.09 5.58008 30.92 5.58008C30.08 5.58008 28.87 5.95008 27.84 7.72008L24.9 13.0801H6.38C4.38 13.0801 2.75 14.7101 2.75 16.7101V38.8001C2.75 40.8001 4.38 42.4301 6.38 42.4301H41.62C43.62 42.4301 45.25 40.8001 45.25 38.8001V16.7101C45.25 14.7101 43.62 13.0801 41.62 13.0801ZM29.58 8.69008C29.82 8.27008 30.32 7.57008 30.92 7.57008C31.46 7.57008 31.97 8.19008 32.27 8.67008L38.5 20.0501L38.54 20.1401C38.54 20.1401 38.59 20.2201 38.61 20.2601C38.96 20.7701 38.99 21.0001 38.99 21.1701C38.99 21.7101 38.52 22.0801 37.86 22.0801H24C23.33 22.0801 22.87 21.7101 22.87 21.1701C22.87 20.9701 22.94 20.7401 23.27 20.2301C23.29 20.2001 23.31 20.1601 23.33 20.1301L29.59 8.69008H29.58ZM43.25 38.8001C43.25 39.7001 42.52 40.4301 41.62 40.4301H6.38C5.48 40.4301 4.75 39.7001 4.75 38.8001V16.7101C4.75 15.8101 5.48 15.0801 6.38 15.0801H23.81L21.58 19.1601L21.56 19.2001C21.2 19.7601 20.87 20.3901 20.87 21.1801C20.87 22.8401 22.22 24.0901 24 24.0901H37.86C39.65 24.0901 40.99 22.8401 40.99 21.1801C40.99 20.5101 40.78 19.9101 40.29 19.1901L38.05 15.0901H41.62C42.52 15.0901 43.25 15.8201 43.25 16.7201V38.8101V38.8001Z" fill="#323232"/>
<path d="M30.9493 18.5404C31.4693 18.5404 31.8793 18.9504 31.8793 19.4704C31.8793 19.9904 31.4693 20.3904 30.9493 20.3904C30.4293 20.3904 30.0293 19.9804 30.0293 19.4704C30.0293 18.9604 30.4393 18.5404 30.9493 18.5404ZM31.4393 17.8104H30.4793L30.1393 13.8404V11.6504H31.7593V13.8404L31.4293 17.8104H31.4393Z" fill="#DF0000"/>
</svg>
