<svg width="24" height="24" viewBox="0 0 24 24" fill="none" xmlns="http://www.w3.org/2000/svg">
<g clip-path="url(#clip0_16335_2112)">
<path d="M23.4854 15.4793C25.4064 9.13645 21.8218 2.43719 15.479 0.516122C9.13609 -1.40495 2.43683 2.17964 0.515759 8.52252C-1.40531 14.8654 2.17928 21.5647 8.52216 23.4857C14.865 25.4068 21.5643 21.8222 23.4854 15.4793Z" fill="white"/>
<mask id="mask0_16335_2112" style="mask-type:luminance" maskUnits="userSpaceOnUse" x="-1" y="-1" width="26" height="26">
<path d="M23.4854 15.4798C25.4064 9.13694 21.8218 2.43768 15.479 0.516611C9.13609 -1.40446 2.43683 2.18013 0.515759 8.52301C-1.40531 14.8659 2.17928 21.5651 8.52216 23.4862C14.865 25.4073 21.5643 21.8227 23.4854 15.4798Z" fill="white"/>
</mask>
<g mask="url(#mask0_16335_2112)">
<path d="M36 0H0V24H36V0Z" fill="#007C29"/>
<path fill-rule="evenodd" clip-rule="evenodd" d="M16.0037 3.71314L16.3377 3.46719L16.2078 3.07311L16.5445 3.31627L16.8799 3.07031L16.7528 3.46579L17.0896 3.70756L16.6745 3.70895L16.5473 4.10443L16.4174 3.71035L16.0037 3.71314Z" fill="white"/>
<path fill-rule="evenodd" clip-rule="evenodd" d="M14.4763 4.46217L14.8117 4.21621L14.6817 3.82213L15.0185 4.06529L15.3525 3.81934L15.2254 4.21482L15.5635 4.45658L15.1471 4.45798L15.0213 4.85346L14.8914 4.45937L14.4763 4.46217Z" fill="white"/>
<path fill-rule="evenodd" clip-rule="evenodd" d="M14.4763 2.91773L14.8117 2.67178L14.6817 2.2777L15.0185 2.52086L15.3525 2.2749L15.2254 2.67038L15.5635 2.91354H15.1471L15.0213 3.31042L14.8914 2.91494L14.4763 2.91773Z" fill="white"/>
<path fill-rule="evenodd" clip-rule="evenodd" d="M14.4763 6.00472L14.8117 5.76016L14.6817 5.36608L15.0185 5.60784L15.3525 5.36328L15.2254 5.75876L15.5635 6.00052L15.1471 6.00192L15.0213 6.3974L14.8914 6.00332L14.4763 6.00472Z" fill="white"/>
<path fill-rule="evenodd" clip-rule="evenodd" d="M12.9503 5.21119L13.2842 4.96524L13.1557 4.57115L13.4911 4.81431L13.8265 4.56836L13.6993 4.96384L14.0361 5.207H13.621L13.4953 5.60388L13.3653 5.2084L12.9503 5.21119Z" fill="white"/>
<path fill-rule="evenodd" clip-rule="evenodd" d="M17.7505 2.60491C18.8797 3.03533 19.6818 4.12815 19.6818 5.40822C19.6818 7.06561 18.3389 8.40857 16.6815 8.40857C15.9646 8.40857 15.3078 8.15703 14.7907 7.73779C15.1233 7.86496 15.4825 7.93343 15.8598 7.93343C17.5172 7.93343 18.8601 6.59047 18.8601 4.93308C18.8601 3.99259 18.4269 3.15412 17.7505 2.60352V2.60491Z" fill="white"/>
<path d="M10.801 0H4.32373V24H10.801V0Z" fill="#FF0000"/>
<path fill-rule="evenodd" clip-rule="evenodd" d="M8.48259 23.3109C8.72575 23.3836 8.98289 23.4214 9.2498 23.4214C9.29452 23.4214 9.33924 23.4213 9.38256 23.4186C9.1953 23.4842 8.99267 23.5192 8.78305 23.5192C8.57343 23.5192 8.35682 23.4814 8.16397 23.4116C8.05078 23.371 7.9292 23.3487 7.80343 23.3487C7.46105 23.3487 7.15501 23.5094 6.95936 23.7595L6.81403 23.6757C7.12566 23.4032 7.53372 23.2383 7.98091 23.2383C8.15559 23.2383 8.32468 23.2634 8.48399 23.3109H8.48259Z" fill="#FED700"/>
<path fill-rule="evenodd" clip-rule="evenodd" d="M9.08767 22.8763C9.04156 22.9964 8.95771 23.0985 8.8515 23.1683C8.86128 23.1683 8.87246 23.1683 8.88364 23.1683C8.97029 23.1683 9.05134 23.1502 9.1268 23.1194C9.20366 23.0845 9.2903 23.0649 9.38114 23.0649C9.42446 23.0649 9.46778 23.0691 9.50831 23.0775C9.54604 23.0845 9.58517 23.0887 9.6243 23.0887C9.65225 23.0887 9.6802 23.0873 9.70815 23.0831C9.53346 23.2061 9.31965 23.2773 9.08907 23.2773C9.03177 23.2773 8.97588 23.2731 8.91998 23.2648C8.87246 23.2578 8.82355 23.255 8.77324 23.255C8.71735 23.255 8.66284 23.2592 8.60974 23.2675C8.70756 23.1921 8.78722 23.0943 8.84172 22.9811C8.9074 22.8455 9.03177 22.7449 9.1813 22.71C9.14217 22.7603 9.11003 22.8148 9.08767 22.8749V22.8763Z" fill="#FED700"/>
<path fill-rule="evenodd" clip-rule="evenodd" d="M9.51392 22.9493C9.4147 22.9605 9.31967 22.987 9.23303 23.0262C9.23303 23.0122 9.23163 22.9968 9.23163 22.9814C9.23163 22.8249 9.28892 22.6824 9.38255 22.5734C9.43147 22.5161 9.46361 22.4434 9.47339 22.3638C9.50833 22.4183 9.52789 22.4812 9.52789 22.551C9.52789 22.6433 9.49156 22.7257 9.43286 22.7886C9.40771 22.8165 9.38675 22.8487 9.37277 22.8836C9.49016 22.8543 9.59776 22.8026 9.69279 22.7341C9.76266 22.6852 9.83952 22.6447 9.92058 22.6167C10.0086 22.5874 10.0883 22.5412 10.1567 22.4826C10.1456 22.5818 10.0967 22.6712 10.0254 22.7355C9.88424 22.8557 9.70677 22.9339 9.51252 22.9521L9.51392 22.9493Z" fill="#FED700"/>
<path fill-rule="evenodd" clip-rule="evenodd" d="M10.1176 22.1541C10.2057 22.1122 10.2853 22.0535 10.351 21.9836C10.3007 22.203 10.1428 22.3805 9.93595 22.4588C9.85909 22.4881 9.78922 22.5315 9.72913 22.586C9.73193 22.5636 9.73332 22.5412 9.73332 22.5175C9.73332 22.4322 9.71516 22.3512 9.68162 22.2771C9.66205 22.231 9.64948 22.1793 9.64948 22.1262C9.64948 22.0312 9.68441 21.9445 9.74171 21.8774C9.73891 21.8956 9.73751 21.9138 9.73751 21.9333C9.73751 21.999 9.75568 22.0605 9.78782 22.1122C9.82136 22.1653 9.84232 22.2296 9.84232 22.2981C9.84232 22.3372 9.83534 22.3749 9.82416 22.4099C9.89822 22.3023 10.0002 22.2128 10.119 22.1541H10.1176Z" fill="#FED700"/>
<path fill-rule="evenodd" clip-rule="evenodd" d="M10.3943 21.5753C10.3622 21.7807 10.228 21.9526 10.0436 22.0351C10.0128 22.049 9.98487 22.0658 9.95692 22.084C9.95972 22.0686 9.96112 22.0518 9.96112 22.0365C9.96112 21.9652 9.93456 21.8995 9.88705 21.8464C9.83255 21.7849 9.79901 21.7039 9.79901 21.6158C9.79901 21.5683 9.80879 21.5222 9.82696 21.4817C9.84373 21.5488 9.88006 21.6075 9.92898 21.6536C9.99326 21.7137 10.0338 21.8003 10.0338 21.8953C10.0338 21.9051 10.0338 21.9163 10.0324 21.9261C10.0939 21.8744 10.1428 21.8087 10.1707 21.7318C10.2155 21.613 10.3063 21.5166 10.4237 21.4663C10.4111 21.5012 10.4013 21.5376 10.3957 21.5753H10.3943Z" fill="#FED700"/>
<path fill-rule="evenodd" clip-rule="evenodd" d="M10.2071 21.3772C10.1526 21.4415 10.119 21.5253 10.1176 21.6162C10.0617 21.5323 10.0282 21.4331 10.0282 21.3241C10.0282 21.2053 10.0687 21.0949 10.1358 21.0069C10.1679 20.9663 10.1833 20.916 10.1819 20.8657C10.2504 20.9342 10.2937 21.0306 10.2937 21.1354C10.2937 21.2277 10.2616 21.3115 10.2071 21.3772Z" fill="#FED700"/>
<path fill-rule="evenodd" clip-rule="evenodd" d="M6.64356 23.3109C6.4004 23.3836 6.14327 23.4214 5.87635 23.4214C5.83163 23.4214 5.78691 23.4213 5.74359 23.4186C5.93085 23.4842 6.13209 23.5192 6.3431 23.5192C6.55412 23.5192 6.76933 23.4814 6.96218 23.4116C7.07537 23.371 7.19695 23.3487 7.32272 23.3487C7.6651 23.3487 7.97114 23.5094 8.16679 23.7595L8.31213 23.6757C8.00049 23.4032 7.59243 23.2383 7.14525 23.2383C6.97056 23.2383 6.80147 23.2634 6.64356 23.3109Z" fill="#FED700"/>
<path fill-rule="evenodd" clip-rule="evenodd" d="M6.03844 22.8763C6.08456 22.9964 6.16841 23.0985 6.27461 23.1683C6.26343 23.1683 6.25365 23.1683 6.24247 23.1683C6.15583 23.1683 6.07478 23.1502 5.99931 23.1194C5.92245 23.0845 5.83581 23.0649 5.74497 23.0649C5.70165 23.0649 5.65833 23.0691 5.61781 23.0775C5.58007 23.0845 5.54095 23.0887 5.50182 23.0887C5.47387 23.0887 5.44592 23.0873 5.41797 23.0831C5.59265 23.2061 5.80646 23.2773 6.03704 23.2773C6.09434 23.2773 6.15024 23.2731 6.20614 23.2648C6.25365 23.2578 6.30256 23.255 6.35287 23.255C6.40877 23.255 6.46327 23.2592 6.51637 23.2675C6.41855 23.1921 6.3389 23.0943 6.28439 22.9811C6.21871 22.8455 6.09434 22.7449 5.94481 22.71C5.98394 22.7603 6.01608 22.8148 6.03844 22.8749V22.8763Z" fill="#FED700"/>
<path fill-rule="evenodd" clip-rule="evenodd" d="M5.61219 22.9493C5.71141 22.9605 5.80644 22.987 5.89308 23.0262C5.89308 23.0122 5.89448 22.9968 5.89448 22.9814C5.89448 22.8249 5.83718 22.6824 5.74355 22.5734C5.69464 22.5161 5.6625 22.4434 5.65272 22.3638C5.61778 22.4183 5.59822 22.4812 5.59822 22.551C5.59822 22.6433 5.63455 22.7257 5.69325 22.7886C5.7184 22.8165 5.73936 22.8487 5.75334 22.8836C5.63595 22.8543 5.52834 22.8026 5.43332 22.7341C5.36344 22.6852 5.28658 22.6447 5.20553 22.6167C5.11749 22.5874 5.03784 22.5412 4.96936 22.4826C4.98054 22.5818 5.02945 22.6712 5.10072 22.7355C5.24187 22.8557 5.41934 22.9339 5.61359 22.9521L5.61219 22.9493Z" fill="#FED700"/>
<path fill-rule="evenodd" clip-rule="evenodd" d="M5.00712 22.1541C4.91908 22.1122 4.83942 22.0535 4.77374 21.9836C4.82405 22.203 4.98196 22.3805 5.18879 22.4588C5.26565 22.4881 5.33552 22.5315 5.39561 22.586C5.39282 22.5636 5.39142 22.5412 5.39142 22.5175C5.39142 22.4322 5.40959 22.3512 5.44313 22.2771C5.46269 22.231 5.47527 22.1793 5.47527 22.1262C5.47527 22.0312 5.44033 21.9445 5.38304 21.8774C5.38583 21.8956 5.38723 21.9138 5.38723 21.9333C5.38723 21.999 5.36906 22.0605 5.33692 22.1122C5.30338 22.1653 5.28242 22.2296 5.28242 22.2981C5.28242 22.3372 5.28941 22.3749 5.30059 22.4099C5.22512 22.3023 5.12451 22.2128 5.00572 22.1541H5.00712Z" fill="#FED700"/>
<path fill-rule="evenodd" clip-rule="evenodd" d="M4.7318 21.5753C4.76394 21.7807 4.8981 21.9526 5.08117 22.0351C5.11191 22.049 5.13986 22.0658 5.16781 22.084C5.16501 22.0686 5.16362 22.0518 5.16362 22.0365C5.16362 21.9652 5.19017 21.8995 5.23768 21.8464C5.29218 21.7849 5.32572 21.7039 5.32572 21.6158C5.32572 21.5683 5.31594 21.5222 5.29917 21.4817C5.2824 21.5488 5.24607 21.6075 5.19715 21.6536C5.13287 21.7137 5.09374 21.8003 5.09374 21.8953C5.09374 21.9051 5.09374 21.9163 5.09374 21.9261C5.03225 21.8744 4.98334 21.8087 4.95539 21.7318C4.91068 21.613 4.81984 21.5166 4.70245 21.4663C4.71503 21.5012 4.72481 21.5376 4.7304 21.5753H4.7318Z" fill="#FED700"/>
<path fill-rule="evenodd" clip-rule="evenodd" d="M4.91904 21.3772C4.97354 21.4415 5.00708 21.5253 5.00848 21.6162C5.06438 21.5323 5.09791 21.4331 5.09791 21.3241C5.09791 21.2053 5.05739 21.0949 4.99031 21.0069C4.95817 20.9663 4.9428 20.916 4.94419 20.8657C4.87572 20.9342 4.8324 21.0306 4.8324 21.1354C4.8324 21.2277 4.86454 21.3115 4.91904 21.3772Z" fill="#FED700"/>
<path fill-rule="evenodd" clip-rule="evenodd" d="M4.32373 17.3745L4.47186 17.5212V17.8301H4.7793L4.85337 17.9028L4.7793 17.9768H4.47186V18.2857L4.32373 18.4324V17.3745Z" fill="#FFDA0C"/>
<path fill-rule="evenodd" clip-rule="evenodd" d="M5.37463 18.0075V17.7993L5.47944 17.9027L5.37463 18.0075Z" fill="#FFDA0C"/>
<path fill-rule="evenodd" clip-rule="evenodd" d="M4.85337 18.3206L5.06159 18.5288L4.85337 18.7371L4.95818 18.8419L4.32373 19.4749V19.2667L4.74856 18.8419L4.64515 18.7371L4.85337 18.5288L4.74856 18.424L4.68847 18.4855V18.5805H4.54034V18.424L4.95818 18.0076H5.26981V18.1557H5.10491L5.26981 18.3206L5.68765 17.9028L5.26981 17.4863L5.10491 17.6512H5.26981V17.7994H4.95818L4.54034 17.3815V17.225H4.68847V17.3214L4.74856 17.3815L4.85337 17.2781L4.64515 17.0699L4.74856 16.9651L4.32373 16.5403V16.332L4.95818 16.9651L4.85337 17.0699L5.06159 17.2781L4.85337 17.4863L4.95818 17.5911L5.26981 17.2781L5.89587 17.9028L5.26981 18.5288L4.95818 18.2158L4.85337 18.3206Z" fill="#FFDA0C"/>
<path fill-rule="evenodd" clip-rule="evenodd" d="M10.801 17.3745L10.6543 17.5212V17.8301H10.3454L10.2728 17.9028L10.3454 17.9768H10.6543V18.2857L10.801 18.4324V17.3745Z" fill="#FFDA0C"/>
<path fill-rule="evenodd" clip-rule="evenodd" d="M9.75148 18.0075V17.7993L9.64667 17.9027L9.75148 18.0075Z" fill="#FFDA0C"/>
<path fill-rule="evenodd" clip-rule="evenodd" d="M10.2727 18.3206L10.0631 18.5288L10.2727 18.7371L10.1679 18.8419L10.801 19.4749V19.2667L10.3761 18.8419L10.481 18.7371L10.2727 18.5288L10.3761 18.424L10.4376 18.4855V18.5805H10.5858V18.424L10.1679 18.0076H9.85489V18.1557H10.0212L9.85489 18.3206L9.43845 17.9028L9.85489 17.4863L10.0212 17.6512H9.85489V17.7994H10.1679L10.5858 17.3815V17.225H10.4376V17.3214L10.3761 17.3815L10.2727 17.2781L10.481 17.0699L10.3761 16.9651L10.801 16.5403V16.332L10.1679 16.9651L10.2727 17.0699L10.0631 17.2781L10.2727 17.4863L10.1679 17.5911L9.85489 17.2781L9.23022 17.9028L9.85489 18.5288L10.1679 18.2158L10.2727 18.3206Z" fill="#FFDA0C"/>
<path fill-rule="evenodd" clip-rule="evenodd" d="M4.32373 12.8594L4.47186 13.0061V13.3149H4.7793L4.85337 13.3876L4.7793 13.4617H4.47186V13.7705L4.32373 13.9173V12.8594Z" fill="#FFDA0C"/>
<path fill-rule="evenodd" clip-rule="evenodd" d="M5.37463 13.4924V13.2842L5.47944 13.3876L5.37463 13.4924Z" fill="#FFDA0C"/>
<path fill-rule="evenodd" clip-rule="evenodd" d="M4.85337 13.8055L5.06159 14.0137L4.85337 14.2219L4.95818 14.3267L4.32373 14.9598V14.7516L4.74856 14.3267L4.64515 14.2219L4.85337 14.0137L4.74856 13.9089L4.68847 13.9704V14.0654H4.54034V13.9089L4.95818 13.4925H5.26981V13.6392H5.10491L5.26981 13.8055L5.68765 13.3876L5.26981 12.9712L5.10491 13.1361H5.26981V13.2842H4.95818L4.54034 12.8664V12.7099H4.68847V12.8063L4.74856 12.8664L4.85337 12.763L4.64515 12.5548L4.74856 12.4499L4.32373 12.0251V11.8169L4.95818 12.4499L4.85337 12.5548L5.06159 12.763L4.85337 12.9712L4.95818 13.076L5.26981 12.763L5.89587 13.3876L5.26981 14.0137L4.95818 13.7007L4.85337 13.8055Z" fill="#FFDA0C"/>
<path fill-rule="evenodd" clip-rule="evenodd" d="M10.801 12.8594L10.6543 13.0061V13.3149H10.3454L10.2728 13.3876L10.3454 13.4617H10.6543V13.7705L10.801 13.9173V12.8594Z" fill="#FFDA0C"/>
<path fill-rule="evenodd" clip-rule="evenodd" d="M9.75148 13.4924V13.2842L9.64667 13.3876L9.75148 13.4924Z" fill="#FFDA0C"/>
<path fill-rule="evenodd" clip-rule="evenodd" d="M10.2727 13.8055L10.0631 14.0137L10.2727 14.2219L10.1679 14.3267L10.801 14.9598V14.7516L10.3761 14.3267L10.481 14.2219L10.2727 14.0137L10.3761 13.9089L10.4376 13.9704V14.0654H10.5858V13.9089L10.1679 13.4925H9.85489V13.6392H10.0212L9.85489 13.8055L9.43845 13.3876L9.85489 12.9712L10.0212 13.1361H9.85489V13.2842H10.1679L10.5858 12.8664V12.7099H10.4376V12.8063L10.3761 12.8664L10.2727 12.763L10.481 12.5548L10.3761 12.4499L10.801 12.0251V11.8169L10.1679 12.4499L10.2727 12.5548L10.0631 12.763L10.2727 12.9712L10.1679 13.076L9.85489 12.763L9.23022 13.3876L9.85489 14.0137L10.1679 13.7007L10.2727 13.8055Z" fill="#FFDA0C"/>
<path fill-rule="evenodd" clip-rule="evenodd" d="M4.32373 8.34424L4.47186 8.49097V8.79981H4.7793L4.85337 8.87248L4.7793 8.94654H4.47186V9.25538L4.32373 9.40212V8.34424Z" fill="#FFDA0C"/>
<path fill-rule="evenodd" clip-rule="evenodd" d="M5.37463 8.97726V8.76904L5.47944 8.87246L5.37463 8.97726Z" fill="#FFDA0C"/>
<path fill-rule="evenodd" clip-rule="evenodd" d="M4.85337 9.29035L5.06159 9.49857L4.85337 9.70679L4.95818 9.8116L4.32373 10.4446V10.2364L4.74856 9.8116L4.64515 9.70679L4.85337 9.49857L4.74856 9.39376L4.68847 9.45525V9.55027H4.54034V9.39376L4.95818 8.97731H5.26981V9.12405H5.10491L5.26981 9.29035L5.68765 8.8725L5.26981 8.45606L5.10491 8.62096H5.26981V8.76909H4.95818L4.54034 8.35125V8.19474H4.68847V8.29116L4.74856 8.35125L4.85337 8.24784L4.64515 8.03962L4.74856 7.93481L4.32373 7.50998V7.30176L4.95818 7.93481L4.85337 8.03962L5.06159 8.24784L4.85337 8.45606L4.95818 8.56087L5.26981 8.24784L5.89587 8.8725L5.26981 9.49857L4.95818 9.18554L4.85337 9.29035Z" fill="#FFDA0C"/>
<path fill-rule="evenodd" clip-rule="evenodd" d="M10.801 8.34424L10.6543 8.49097V8.79981H10.3454L10.2728 8.87248L10.3454 8.94654H10.6543V9.25538L10.801 9.40212V8.34424Z" fill="#FFDA0C"/>
<path fill-rule="evenodd" clip-rule="evenodd" d="M9.75148 8.97726V8.76904L9.64667 8.87246L9.75148 8.97726Z" fill="#FFDA0C"/>
<path fill-rule="evenodd" clip-rule="evenodd" d="M10.2727 9.29035L10.0631 9.49857L10.2727 9.70679L10.1679 9.8116L10.801 10.4446V10.2364L10.3761 9.8116L10.481 9.70679L10.2727 9.49857L10.3761 9.39376L10.4376 9.45525V9.55027H10.5858V9.39376L10.1679 8.97731H9.85489V9.12405H10.0212L9.85489 9.29035L9.43845 8.8725L9.85489 8.45606L10.0212 8.62096H9.85489V8.76909H10.1679L10.5858 8.35125V8.19474H10.4376V8.29116L10.3761 8.35125L10.2727 8.24784L10.481 8.03962L10.3761 7.93481L10.801 7.50998V7.30176L10.1679 7.93481L10.2727 8.03962L10.0631 8.24784L10.2727 8.45606L10.1679 8.56087L9.85489 8.24784L9.23022 8.8725L9.85489 9.49857L10.1679 9.18554L10.2727 9.29035Z" fill="#FFDA0C"/>
<path fill-rule="evenodd" clip-rule="evenodd" d="M4.32373 3.8291L4.47186 3.97584V4.28467H4.7793L4.85337 4.35734L4.7793 4.43141H4.47186V4.74025L4.32373 4.88698V3.8291Z" fill="#FFDA0C"/>
<path fill-rule="evenodd" clip-rule="evenodd" d="M5.37463 4.46213V4.25391L5.47944 4.35732L5.37463 4.46213Z" fill="#FFDA0C"/>
<path fill-rule="evenodd" clip-rule="evenodd" d="M4.85337 4.77521L5.06159 4.98343L4.85337 5.19165L4.95818 5.29646L4.32373 5.92951V5.72129L4.74856 5.29646L4.64515 5.19165L4.85337 4.98343L4.74856 4.87862L4.68847 4.94011V5.03514H4.54034V4.87862L4.95818 4.46218H5.26981V4.60891H5.10491L5.26981 4.77521L5.68765 4.35737L5.26981 3.94092L5.10491 4.10582H5.26981V4.25396H4.95818L4.54034 3.83611V3.6796H4.68847V3.77602L4.74856 3.83611L4.85337 3.7327L4.64515 3.52448L4.74856 3.41967L4.32373 2.99484V2.78662L4.95818 3.41967L4.85337 3.52448L5.06159 3.7327L4.85337 3.94092L4.95818 4.04573L5.26981 3.7327L5.89587 4.35737L5.26981 4.98343L4.95818 4.6704L4.85337 4.77521Z" fill="#FFDA0C"/>
<path fill-rule="evenodd" clip-rule="evenodd" d="M10.801 3.8291L10.6543 3.97584V4.28467H10.3454L10.2728 4.35734L10.3454 4.43141H10.6543V4.74025L10.801 4.88698V3.8291Z" fill="#FFDA0C"/>
<path fill-rule="evenodd" clip-rule="evenodd" d="M9.75148 4.46213V4.25391L9.64667 4.35732L9.75148 4.46213Z" fill="#FFDA0C"/>
<path fill-rule="evenodd" clip-rule="evenodd" d="M10.2727 4.77521L10.0631 4.98343L10.2727 5.19165L10.1679 5.29646L10.801 5.92951V5.72129L10.3761 5.29646L10.481 5.19165L10.2727 4.98343L10.3761 4.87862L10.4376 4.94011V5.03514H10.5858V4.87862L10.1679 4.46218H9.85489V4.60891H10.0212L9.85489 4.77521L9.43845 4.35737L9.85489 3.94092L10.0212 4.10582H9.85489V4.25396H10.1679L10.5858 3.83611V3.6796H10.4376V3.77602L10.3761 3.83611L10.2727 3.7327L10.481 3.52448L10.3761 3.41967L10.801 2.99484V2.78662L10.1679 3.41967L10.2727 3.52448L10.0631 3.7327L10.2727 3.94092L10.1679 4.04573L9.85489 3.7327L9.23022 4.35737L9.85489 4.98343L10.1679 4.6704L10.2727 4.77521Z" fill="#FFDA0C"/>
<path fill-rule="evenodd" clip-rule="evenodd" d="M4.32373 0H4.85337L4.7793 0.0740654H4.47186V0.381507L4.32373 0.529638V0Z" fill="#FFDA0C"/>
<path fill-rule="evenodd" clip-rule="evenodd" d="M5.37463 0.10481V0H5.47944L5.37463 0.10481Z" fill="#FFDA0C"/>
<path fill-rule="evenodd" clip-rule="evenodd" d="M4.85337 0.416443L5.06159 0.626063L4.85337 0.834284L4.95818 0.937697L4.32373 1.57214V1.36392L4.74856 0.937697L4.64515 0.834284L4.85337 0.626063L4.74856 0.521253L4.68847 0.582741V0.677769H4.54034V0.521253L4.95818 0.10481H5.26981V0.251543H5.10491L5.26981 0.416443L5.68765 0H5.89587L5.26981 0.626063L4.95818 0.313031L4.85337 0.416443Z" fill="#FFDA0C"/>
<path fill-rule="evenodd" clip-rule="evenodd" d="M10.801 0H10.2728L10.3454 0.0740654H10.6543V0.381507L10.801 0.529638V0Z" fill="#FFDA0C"/>
<path fill-rule="evenodd" clip-rule="evenodd" d="M9.75148 0.10481V0H9.64667L9.75148 0.10481Z" fill="#FFDA0C"/>
<path fill-rule="evenodd" clip-rule="evenodd" d="M10.2727 0.416443L10.0631 0.626063L10.2727 0.834284L10.1679 0.937697L10.801 1.57214V1.36392L10.3761 0.937697L10.481 0.834284L10.2727 0.626063L10.3761 0.521253L10.4376 0.582741V0.677769H10.5858V0.521253L10.1679 0.10481H9.85489V0.251543H10.0212L9.85489 0.416443L9.43845 0H9.23022L9.85489 0.626063L10.1679 0.313031L10.2727 0.416443Z" fill="#FFDA0C"/>
<path fill-rule="evenodd" clip-rule="evenodd" d="M6.73156 18.2632L5.10352 19.2037V20.6431L6.73156 21.5836H8.39454L10.0226 20.6431V19.2037L8.39454 18.2632H6.73156Z" fill="#007C29"/>
<path fill-rule="evenodd" clip-rule="evenodd" d="M8.35401 18.4102L9.87444 19.2892V20.5581L8.35401 21.4357H6.77068L5.25024 20.5581V19.2892L6.77068 18.4102H8.35401Z" fill="white"/>
<path fill-rule="evenodd" clip-rule="evenodd" d="M7.56304 19.9236V18.4102H6.77068L5.25024 19.2892V19.9236H7.56304Z" fill="#FED700"/>
<path fill-rule="evenodd" clip-rule="evenodd" d="M6.1796 18.8896L5.60944 19.2181H6.1796V18.8896Z" fill="white"/>
<path fill-rule="evenodd" clip-rule="evenodd" d="M6.51355 19.3184H6.84195L7.26678 19.0724V18.6965L6.97611 18.5288H7.38557V19.0039L7.56304 18.9019V19.9235H6.51355V19.3184Z" fill="white"/>
<path fill-rule="evenodd" clip-rule="evenodd" d="M5.63599 19.3799H5.81766V19.5616H5.99793V19.3799H6.1796V19.8341H5.99793V19.6524H5.81766V19.8341H5.63599V19.3799Z" fill="#FF0000"/>
<path fill-rule="evenodd" clip-rule="evenodd" d="M6.34308 18.7637H6.52475V18.9453H6.70502V18.7637H6.88669V19.2178H6.70502V19.0362H6.52475V19.2178H6.34308V18.7637Z" fill="#FF0000"/>
<path fill-rule="evenodd" clip-rule="evenodd" d="M8.94513 18.8896L9.51529 19.2181H8.94513V18.8896Z" fill="#FED700"/>
<path fill-rule="evenodd" clip-rule="evenodd" d="M8.61115 19.3184H8.28414L7.85791 19.0724V18.6965L8.14998 18.5288H7.74053V19.0039L7.56305 18.9019V19.9235H8.61115V19.3184Z" fill="#FED700"/>
<path fill-rule="evenodd" clip-rule="evenodd" d="M9.49014 19.3799H9.30847V19.5616H9.1268V19.3799H8.94513V19.8341H9.1268V19.6524H9.30847V19.8341H9.49014V19.3799Z" fill="#FF0000"/>
<path fill-rule="evenodd" clip-rule="evenodd" d="M8.78305 18.7637H8.60138V18.9453H8.41971V18.7637H8.23804V19.2178H8.41971V19.0362H8.60138V19.2178H8.78305V18.7637Z" fill="#FF0000"/>
<path fill-rule="evenodd" clip-rule="evenodd" d="M6.1796 20.9578L5.60944 20.6294H6.1796V20.9578Z" fill="#FED700"/>
<path fill-rule="evenodd" clip-rule="evenodd" d="M6.51355 20.5289H6.84195L7.26678 20.7735V21.1494L6.97611 21.3171H7.38557V20.842L7.56304 20.9454V19.9238H6.51355V20.5289Z" fill="#FED700"/>
<path fill-rule="evenodd" clip-rule="evenodd" d="M5.63599 20.466H5.81766V20.2843H5.99793V20.466H6.1796V20.0132H5.99793V20.1935H5.81766V20.0132H5.63599V20.466Z" fill="#FF0000"/>
<path fill-rule="evenodd" clip-rule="evenodd" d="M6.34308 21.0822H6.52475V20.9005H6.70502V21.0822H6.88669V20.6294H6.70502V20.8111H6.52475V20.6294H6.34308V21.0822Z" fill="#FF0000"/>
<path fill-rule="evenodd" clip-rule="evenodd" d="M7.56305 19.9238V21.4359H8.35401L9.87445 20.5583V19.9238H7.56305Z" fill="#FED700"/>
<path fill-rule="evenodd" clip-rule="evenodd" d="M8.94513 20.9578L9.51529 20.6294H8.94513V20.9578Z" fill="white"/>
<path fill-rule="evenodd" clip-rule="evenodd" d="M8.61115 20.5289H8.28414L7.85791 20.7735V21.1494L8.14998 21.3171H7.74053V20.842L7.56305 20.9454V19.9238H8.61115V20.5289Z" fill="white"/>
<path fill-rule="evenodd" clip-rule="evenodd" d="M9.49014 20.466H9.30847V20.2843H9.1268V20.466H8.94513V20.0132H9.1268V20.1935H9.30847V20.0132H9.49014V20.466Z" fill="#FF0000"/>
<path fill-rule="evenodd" clip-rule="evenodd" d="M8.78305 21.0822H8.60138V20.9005H8.41971V21.0822H8.23804V20.6294H8.41971V20.8111H8.60138V20.6294H8.78305V21.0822Z" fill="#FF0000"/>
<path fill-rule="evenodd" clip-rule="evenodd" d="M6.63232 20.41V19.9237V19.4373H6.87269L7.56303 19.0391L8.25198 19.4373H8.49374V19.9237V20.41H8.25198L7.56303 20.8082L6.87269 20.41H6.63232Z" fill="#FF0000"/>
<path fill-rule="evenodd" clip-rule="evenodd" d="M8.07593 19.9824V20.1012H8.19332V20.1738H8.11367L7.68185 19.9237L8.11367 19.6736H8.19332V19.7462H8.07593V19.865H8.3121V19.5548H8.09131V19.3438H7.62176V19.6568H7.79924V19.5394H7.74054V19.4625H7.97392V19.6177L7.56307 19.8552L7.15221 19.6177V19.4625H7.38559V19.5394H7.32689V19.6568H7.50297V19.3438H7.03343V19.5548H6.81403V19.865H7.0502V19.7462H6.93281V19.6736H7.01247L7.44428 19.9237L7.01247 20.1738H6.93281V20.1012H7.0502V19.9824H6.81403V20.2912H7.03343V20.5022H7.50297V20.1892H7.32689V20.308H7.38559V20.3849H7.15221V20.2283L7.56307 19.9922L7.97392 20.2283V20.3849H7.74054V20.308H7.79924V20.1892H7.62176V20.5022H8.09131V20.2912H8.3121V19.9824H8.07593Z" fill="white"/>
<path fill-rule="evenodd" clip-rule="evenodd" d="M7.01246 14.1757L7.41493 13.9437L7.05159 13.7341H6.64912L6.50099 13.8808H7.22767L6.97334 14.0289H6.14464L6.58764 13.5859H7.09072L7.56306 13.8584L8.03401 13.5859H8.53709L8.98009 14.0289H8.15279L7.89706 13.8808H8.62374L8.477 13.7341H8.07314L7.7098 13.9437L8.11227 14.1757H9.59637V14.6215H10.0422V15.0672H10.488V16.2243H10.0422V16.6701H9.59637V17.1159H8.11227L7.7098 17.3479L8.07314 17.5575H8.477L8.62374 17.4108H7.89706L8.15279 17.2627H8.98009L8.53709 17.7057H8.03401L7.56306 17.4331L7.09072 17.7057H6.58764L6.14464 17.2627H6.97334L7.22767 17.4108H6.50099L6.64912 17.5575H7.05159L7.41493 17.3479L7.01246 17.1159H5.52836V16.6701H5.08257V16.2243H4.63678V15.0672H5.08257V14.6215H5.52836V14.1757H7.01246Z" fill="#FFDA0C"/>
<path fill-rule="evenodd" clip-rule="evenodd" d="M7.05159 14.3242L7.56306 14.0293L8.07314 14.3242H9.44964V14.77H9.89543V15.2157H10.3398V16.0766H9.89543V16.5224H9.44964V16.9682H8.07314L7.56306 17.263L7.05159 16.9682H5.67649V16.5224H5.2307V16.0766H4.78491V15.2157H5.2307V14.77H5.67649V14.3242H7.05159Z" fill="#FF0000"/>
<path fill-rule="evenodd" clip-rule="evenodd" d="M5.82322 14.4708V14.9166H5.37743V15.3624H4.93164V15.9298H5.37743V16.3756H5.82322V16.8199H7.09212L7.56306 17.0925L8.034 16.8199H9.3015V16.3756H9.74729V15.9298H10.1931V15.3624H9.74729V14.9166H9.3015V14.4708H8.034L7.56306 14.1997L7.09212 14.4708H5.82322Z" fill="#007C29"/>
<path fill-rule="evenodd" clip-rule="evenodd" d="M9.10867 14.6636V15.1094L8.33588 14.6636H9.10867Z" fill="#FF0000"/>
<path fill-rule="evenodd" clip-rule="evenodd" d="M6.01605 16.6284V16.1826L6.78885 16.6284H6.01605Z" fill="#FF0000"/>
<path fill-rule="evenodd" clip-rule="evenodd" d="M9.10867 16.6284V16.1826L8.33588 16.6284H9.10867Z" fill="#FF0000"/>
<path fill-rule="evenodd" clip-rule="evenodd" d="M6.01605 14.6636V15.1094L6.78885 14.6636H6.01605Z" fill="#FF0000"/>
<path fill-rule="evenodd" clip-rule="evenodd" d="M7.94459 14.6427L7.56308 14.4219L7.18018 14.6427H7.94459Z" fill="#FFDA0C"/>
<path fill-rule="evenodd" clip-rule="evenodd" d="M7.94459 15.3789L7.56308 15.5997L7.18018 15.3789H7.94459Z" fill="#FFDA0C"/>
<path d="M7.54068 14.686H7.0907V14.8747H7.54068V14.686Z" fill="#FF0000"/>
<path d="M7.40937 14.749H7.22211V14.8091H7.40937V14.749Z" fill="white"/>
<path d="M8.03403 14.686H7.58405V14.8747H8.03403V14.686Z" fill="#FF0000"/>
<path d="M7.90265 14.749H7.71539V14.8091H7.90265V14.749Z" fill="white"/>
<path d="M7.54068 15.147H7.0907V15.3356H7.54068V15.147Z" fill="#FF0000"/>
<path d="M7.40937 15.2114H7.22211V15.2715H7.40937V15.2114Z" fill="white"/>
<path d="M8.03403 15.147H7.58405V15.3356H8.03403V15.147Z" fill="#FF0000"/>
<path d="M7.90265 15.2114H7.71539V15.2715H7.90265V15.2114Z" fill="white"/>
<path d="M7.29337 14.9165H6.84338V15.1052H7.29337V14.9165Z" fill="#FF0000"/>
<path d="M7.1634 14.981H6.97614V15.041H7.1634V14.981Z" fill="white"/>
<path d="M7.78665 14.9165H7.33667V15.1052H7.78665V14.9165Z" fill="#FF0000"/>
<path d="M7.65528 14.981H7.46802V15.041H7.65528V14.981Z" fill="white"/>
<path d="M8.27994 14.9165H7.82996V15.1052H8.27994V14.9165Z" fill="#FF0000"/>
<path d="M8.14862 14.981H7.96136V15.041H8.14862V14.981Z" fill="white"/>
<path fill-rule="evenodd" clip-rule="evenodd" d="M7.94459 15.9127L7.56308 15.6919L7.18018 15.9127H7.94459Z" fill="#FFDA0C"/>
<path fill-rule="evenodd" clip-rule="evenodd" d="M7.94459 16.6494L7.56308 16.8702L7.18018 16.6494H7.94459Z" fill="#FFDA0C"/>
<path d="M7.54068 15.9561H7.0907V16.1447H7.54068V15.9561Z" fill="#FF0000"/>
<path d="M7.40937 16.0205H7.22211V16.0806H7.40937V16.0205Z" fill="white"/>
<path d="M8.03403 15.9561H7.58405V16.1447H8.03403V15.9561Z" fill="#FF0000"/>
<path d="M7.90265 16.0205H7.71539V16.0806H7.90265V16.0205Z" fill="white"/>
<path d="M7.54068 16.4175H7.0907V16.6061H7.54068V16.4175Z" fill="#FF0000"/>
<path d="M7.40937 16.4814H7.22211V16.5415H7.40937V16.4814Z" fill="white"/>
<path d="M8.03403 16.4175H7.58405V16.6061H8.03403V16.4175Z" fill="#FF0000"/>
<path d="M7.90265 16.4814H7.71539V16.5415H7.90265V16.4814Z" fill="white"/>
<path d="M7.29337 16.187H6.84338V16.3757H7.29337V16.187Z" fill="#FF0000"/>
<path d="M7.1634 16.251H6.97614V16.3111H7.1634V16.251Z" fill="white"/>
<path d="M7.78665 16.187H7.33667V16.3757H7.78665V16.187Z" fill="#FF0000"/>
<path d="M7.65528 16.251H7.46802V16.3111H7.65528V16.251Z" fill="white"/>
<path d="M8.27994 16.187H7.82996V16.3757H8.27994V16.187Z" fill="#FF0000"/>
<path d="M8.14862 16.251H7.96136V16.3111H8.14862V16.251Z" fill="white"/>
<path fill-rule="evenodd" clip-rule="evenodd" d="M9.02063 15.2784L8.63773 15.0576L8.25482 15.2784H9.02063Z" fill="#FFDA0C"/>
<path fill-rule="evenodd" clip-rule="evenodd" d="M9.02063 16.0137L8.63773 16.2345L8.25482 16.0137H9.02063Z" fill="#FFDA0C"/>
<path d="M8.61533 15.3203H8.16534V15.509H8.61533V15.3203Z" fill="#FF0000"/>
<path d="M8.48401 15.3848H8.29675V15.4449H8.48401V15.3848Z" fill="white"/>
<path d="M9.10867 15.3203H8.65869V15.509H9.10867V15.3203Z" fill="#FF0000"/>
<path d="M8.9773 15.3848H8.79004V15.4449H8.9773V15.3848Z" fill="white"/>
<path d="M8.61533 15.7827H8.16534V15.9714H8.61533V15.7827Z" fill="#FF0000"/>
<path d="M8.48401 15.8472H8.29675V15.9073H8.48401V15.8472Z" fill="white"/>
<path d="M9.10867 15.7827H8.65869V15.9714H9.10867V15.7827Z" fill="#FF0000"/>
<path d="M8.9773 15.8472H8.79004V15.9073H8.9773V15.8472Z" fill="white"/>
<path d="M8.36942 15.5522H7.91943V15.7409H8.36942V15.5522Z" fill="#FF0000"/>
<path d="M8.23804 15.6152H8.05078V15.6753H8.23804V15.6152Z" fill="white"/>
<path d="M8.8613 15.5522H8.41132V15.7409H8.8613V15.5522Z" fill="#FF0000"/>
<path d="M8.73133 15.6152H8.54407V15.6753H8.73133V15.6152Z" fill="white"/>
<path d="M9.35458 15.5522H8.9046V15.7409H9.35458V15.5522Z" fill="#FF0000"/>
<path d="M9.22327 15.6152H9.03601V15.6753H9.22327V15.6152Z" fill="white"/>
<path fill-rule="evenodd" clip-rule="evenodd" d="M6.87134 15.2784L6.48843 15.0576L6.10553 15.2784H6.87134Z" fill="#FFDA0C"/>
<path fill-rule="evenodd" clip-rule="evenodd" d="M6.87134 16.0137L6.48843 16.2345L6.10553 16.0137H6.87134Z" fill="#FFDA0C"/>
<path d="M6.46603 15.3203H6.01605V15.509H6.46603V15.3203Z" fill="#FF0000"/>
<path d="M6.33472 15.3848H6.14746V15.4449H6.33472V15.3848Z" fill="white"/>
<path d="M6.95938 15.3203H6.5094V15.509H6.95938V15.3203Z" fill="#FF0000"/>
<path d="M6.82801 15.3848H6.64075V15.4449H6.82801V15.3848Z" fill="white"/>
<path d="M6.46603 15.7827H6.01605V15.9714H6.46603V15.7827Z" fill="#FF0000"/>
<path d="M6.33472 15.8472H6.14746V15.9073H6.33472V15.8472Z" fill="white"/>
<path d="M6.95938 15.7827H6.5094V15.9714H6.95938V15.7827Z" fill="#FF0000"/>
<path d="M6.82801 15.8472H6.64075V15.9073H6.82801V15.8472Z" fill="white"/>
<path d="M6.22012 15.5522H5.77014V15.7409H6.22012V15.5522Z" fill="#FF0000"/>
<path d="M6.08875 15.6152H5.90149V15.6753H6.08875V15.6152Z" fill="white"/>
<path d="M6.71341 15.5522H6.26343V15.7409H6.71341V15.5522Z" fill="#FF0000"/>
<path d="M6.58204 15.6152H6.39478V15.6753H6.58204V15.6152Z" fill="white"/>
<path d="M7.20529 15.5522H6.75531V15.7409H7.20529V15.5522Z" fill="#FF0000"/>
<path d="M7.07532 15.6152H6.88806V15.6753H7.07532V15.6152Z" fill="white"/>
<path fill-rule="evenodd" clip-rule="evenodd" d="M4.9987 11.1307L4.80725 10.9392H4.99172L5.09094 11.0385L5.29357 10.8358L5.09094 10.6332L4.99172 10.7324H4.80725L4.9987 10.541L4.80725 10.3495H4.99172L5.09094 10.4487L5.37462 10.165V10.3495L5.18317 10.541L5.37462 10.7324V10.9392L5.18317 11.1307L5.37462 11.3221V11.529L5.18317 11.7204L5.37462 11.9119V12.0963L5.09094 11.8126L4.99172 11.9119H4.80725L4.9987 11.7204L4.80725 11.529H4.99172L5.09094 11.6282L5.29357 11.4255L5.09094 11.2229L4.99172 11.3221H4.80725L4.9987 11.1307Z" fill="#007C29"/>
<path fill-rule="evenodd" clip-rule="evenodd" d="M10.1274 11.1307L10.3188 10.9392H10.1344L10.0351 11.0385L9.83252 10.8358L10.0351 10.6332L10.1344 10.7324H10.3188L10.1274 10.541L10.3188 10.3495H10.1344L10.0351 10.4487L9.75146 10.165V10.3495L9.94292 10.541L9.75146 10.7324V10.9392L9.94292 11.1307L9.75146 11.3221V11.529L9.94292 11.7204L9.75146 11.9119V12.0963L10.0351 11.8126L10.1344 11.9119H10.3188L10.1274 11.7204L10.3188 11.529H10.1344L10.0351 11.6282L9.83252 11.4255L10.0351 11.2229L10.1344 11.3221H10.3188L10.1274 11.1307Z" fill="#007C29"/>
<path fill-rule="evenodd" clip-rule="evenodd" d="M7.56303 12.8901L7.75449 13.0816V12.8971L7.65527 12.7979L7.83694 12.6162H7.65247L7.56303 12.7056L7.4736 12.6162H7.28913L7.4708 12.7979L7.37158 12.8971V13.0816L7.56303 12.8901ZM7.87886 12.6162L8.06053 12.7979L7.96131 12.8971V13.0816L8.15276 12.8901L8.34421 13.0816V12.8971L8.24499 12.7979L8.42666 12.6162H8.2422L8.15276 12.7056L8.06332 12.6162H7.87886ZM7.06274 12.6162L6.9733 12.7056L6.88387 12.6162H6.6994L6.88107 12.7979L6.78185 12.8971V13.0816L6.9733 12.8901L7.16476 13.0816V12.8971L7.06554 12.7979L7.24721 12.6162H7.06274Z" fill="#007C29"/>
<path fill-rule="evenodd" clip-rule="evenodd" d="M7.56303 9.37114L7.75449 9.17969V9.36415L7.65527 9.46337L7.83694 9.64504H7.65247L7.56303 9.5556L7.4736 9.64504H7.28913L7.4708 9.46337L7.37158 9.36415V9.17969L7.56303 9.37114ZM7.87886 9.64504L8.06053 9.46337L7.96131 9.36415V9.17969L8.15276 9.37114L8.34421 9.17969V9.36415L8.24499 9.46337L8.42666 9.64504H8.2422L8.15276 9.5556L8.06332 9.64504H7.87886ZM7.06274 9.64504L6.9733 9.5556L6.88387 9.64504H6.6994L6.88107 9.46337L6.78185 9.36415V9.17969L6.9733 9.37114L7.16476 9.17969V9.36415L7.06554 9.46337L7.24721 9.64504H7.06274Z" fill="#007C29"/>
<path fill-rule="evenodd" clip-rule="evenodd" d="M5.47246 12.4167H5.3425V12.2769H5.20135V12.147H5.47246V12.4167Z" fill="#007C29"/>
<path fill-rule="evenodd" clip-rule="evenodd" d="M5.98253 12.7883H5.85257V12.6485H5.71143V12.5186H5.98253V12.7883Z" fill="#007C29"/>
<path fill-rule="evenodd" clip-rule="evenodd" d="M9.65228 12.4167H9.78364V12.2769H9.92339V12.147H9.65228V12.4167Z" fill="#007C29"/>
<path fill-rule="evenodd" clip-rule="evenodd" d="M9.14221 12.7883H9.27357V12.6485H9.41332V12.5186H9.14221V12.7883Z" fill="#007C29"/>
<path fill-rule="evenodd" clip-rule="evenodd" d="M5.47246 9.84375H5.3425V9.98489H5.20135V10.1149H5.47246V9.84375Z" fill="#007C29"/>
<path fill-rule="evenodd" clip-rule="evenodd" d="M5.98253 9.47217H5.85257V9.61331H5.71143V9.74328H5.98253V9.47217Z" fill="#007C29"/>
<path fill-rule="evenodd" clip-rule="evenodd" d="M9.65228 9.84375H9.78364V9.98489H9.92339V10.1149H9.65228V9.84375Z" fill="#007C29"/>
<path fill-rule="evenodd" clip-rule="evenodd" d="M9.14221 9.47217H9.27357V9.61331H9.41332V9.74328H9.14221V9.47217Z" fill="#007C29"/>
<path fill-rule="evenodd" clip-rule="evenodd" d="M5.37463 10.0172H5.88471V9.64551H9.24141V10.0172H9.75148V12.2448H9.24141V12.6165H5.88471V12.2448H5.37463V10.0172Z" fill="#FFDA0C"/>
<path fill-rule="evenodd" clip-rule="evenodd" d="M5.52277 10.1652V12.0965H6.03284V12.4682H9.09328V12.0965H9.60335V10.1652H9.09328V9.79346H6.03284V10.1652H5.52277Z" fill="#FF0000"/>
<path fill-rule="evenodd" clip-rule="evenodd" d="M5.52277 11.5864L6.03284 12.0965L6.40456 12.4682H8.72156L9.09328 12.0965L9.60335 11.5864V10.6753L9.09328 10.1652L8.72156 9.79346H6.40456L6.03284 10.1652L5.52277 10.6753V11.5864Z" fill="#007C29"/>
<path fill-rule="evenodd" clip-rule="evenodd" d="M6.59042 12.2825H7.56306H8.53569L8.72155 12.0966L9.09328 11.7249V11.131V10.5371L8.72155 10.1654L8.53569 9.97949H7.56306H6.59042L6.40456 10.1654L6.03284 10.5371V11.131V11.7249L6.40456 12.0966L6.59042 12.2825Z" fill="#007C29"/>
<path fill-rule="evenodd" clip-rule="evenodd" d="M6.62817 12.1898H6.87552L7.07815 11.9872L7.00688 11.9173V11.786L7.14383 11.9215L7.27939 11.786V11.9173L7.20951 11.9872L7.35345 12.1311L7.49739 11.9872L7.42612 11.9173V11.786L7.56307 11.9215L7.69862 11.786V11.9173L7.62875 11.9872L7.77269 12.1311L7.91663 11.9872L7.84536 11.9173V11.786L7.98231 11.9215L8.11786 11.786V11.9173L8.04799 11.9872L8.25062 12.1898H8.49658L8.93538 11.7524L8.79843 11.6155L8.72716 11.6868H8.59579L8.73275 11.5498L8.59579 11.4142H8.72716L8.79843 11.4841L8.94237 11.3402L8.79843 11.1962L8.72716 11.2675H8.59579L8.73275 11.1306L8.59579 10.9936H8.72716L8.79843 11.0649L8.94237 10.9209L8.79843 10.777L8.72716 10.8469H8.59579L8.73275 10.7113L8.59579 10.5744H8.72716L8.79843 10.6456L8.93538 10.5087L8.49658 10.0713H8.25062L8.04799 10.2739L8.11786 10.3438V10.4752L7.98231 10.3396L7.84536 10.4752V10.3438L7.91663 10.2739L7.77269 10.13L7.62875 10.2739L7.69862 10.3438V10.4752L7.56307 10.3396L7.42612 10.4752V10.3438L7.49739 10.2739L7.35345 10.13L7.20951 10.2739L7.27939 10.3438V10.4752L7.14383 10.3396L7.00688 10.4752V10.3438L7.07815 10.2739L6.87552 10.0713H6.62817L6.19076 10.5087L6.32772 10.6456L6.39759 10.5744H6.52895L6.3934 10.7113L6.52895 10.8469H6.39759L6.32772 10.777L6.18378 10.9209L6.32772 11.0649L6.39759 10.9936H6.52895L6.3934 11.1306L6.52895 11.2675H6.39759L6.32772 11.1962L6.18378 11.3402L6.32772 11.4841L6.39759 11.4142H6.52895L6.3934 11.5498L6.52895 11.6868H6.39759L6.32772 11.6155L6.19076 11.7524L6.62817 12.1898Z" fill="#FF0000"/>
<path fill-rule="evenodd" clip-rule="evenodd" d="M8.11787 12.1902L7.98092 12.0532L7.84397 12.1902H8.11647H8.11787ZM7.2794 12.1902L7.14244 12.0532L7.00549 12.1902H7.278H7.2794ZM7.69863 12.1902L7.56168 12.0532L7.42473 12.1902H7.69724H7.69863Z" fill="white"/>
<path fill-rule="evenodd" clip-rule="evenodd" d="M8.11787 10.0713L7.98092 10.2082L7.84397 10.0713H8.11647H8.11787ZM7.2794 10.0713L7.14244 10.2082L7.00549 10.0713H7.278H7.2794ZM7.69863 10.0713L7.56168 10.2082L7.42473 10.0713H7.69724H7.69863Z" fill="white"/>
<path fill-rule="evenodd" clip-rule="evenodd" d="M6.12506 10.5747L6.26201 10.7117L6.12506 10.8486V10.5761V10.5747ZM6.12506 11.4146L6.26201 11.5515L6.12506 11.6885V11.416V11.4146ZM6.12506 10.9939L6.26201 11.1309L6.12506 11.2678V10.9953V10.9939Z" fill="white"/>
<path fill-rule="evenodd" clip-rule="evenodd" d="M9.00103 10.5747L8.86407 10.7117L9.00103 10.8486V10.5761V10.5747ZM9.00103 11.4146L8.86407 11.5515L9.00103 11.6885V11.416V11.4146ZM9.00103 10.9939L8.86407 11.1309L9.00103 11.2678V10.9953V10.9939Z" fill="white"/>
<path fill-rule="evenodd" clip-rule="evenodd" d="M6.03284 10.5366H5.77571L5.65692 10.6554L5.77571 10.7742H6.03284V10.6554V10.5366Z" fill="#FFDA0C"/>
<path fill-rule="evenodd" clip-rule="evenodd" d="M6.03284 11.012H5.77571L5.65692 10.8932L5.77571 10.7744H6.03284V10.8932V11.012Z" fill="#FF0000"/>
<path fill-rule="evenodd" clip-rule="evenodd" d="M6.03284 11.4871H5.77571L5.65692 11.3683L5.77571 11.2495H6.03284V11.3683V11.4871Z" fill="#FF0000"/>
<path fill-rule="evenodd" clip-rule="evenodd" d="M6.03284 11.0122H5.77571L5.65692 11.131L5.77571 11.2498H6.03284V11.131V11.0122Z" fill="#FFDA0C"/>
<path fill-rule="evenodd" clip-rule="evenodd" d="M6.03284 11.4873H5.77571L5.65692 11.6061L5.77571 11.7249H6.03284V11.6061V11.4873Z" fill="#FFDA0C"/>
<path fill-rule="evenodd" clip-rule="evenodd" d="M9.09326 10.5366H9.3504L9.46918 10.6554L9.3504 10.7742H9.09326V10.6554V10.5366Z" fill="#FFDA0C"/>
<path fill-rule="evenodd" clip-rule="evenodd" d="M9.09326 11.012H9.3504L9.46918 10.8932L9.3504 10.7744H9.09326V10.8932V11.012Z" fill="#FF0000"/>
<path fill-rule="evenodd" clip-rule="evenodd" d="M9.09326 11.4871H9.3504L9.46918 11.3683L9.3504 11.2495H9.09326V11.3683V11.4871Z" fill="#FF0000"/>
<path fill-rule="evenodd" clip-rule="evenodd" d="M9.09326 11.0122H9.3504L9.46918 11.131L9.3504 11.2498H9.09326V11.131V11.0122Z" fill="#FFDA0C"/>
<path fill-rule="evenodd" clip-rule="evenodd" d="M9.09326 11.4873H9.3504L9.46918 11.6061L9.3504 11.7249H9.09326V11.6061V11.4873Z" fill="#FFDA0C"/>
<path fill-rule="evenodd" clip-rule="evenodd" d="M6.96912 9.97932V9.91224L7.0879 9.79346L7.20668 9.91224V9.97932H6.96912Z" fill="#FF0000"/>
<path fill-rule="evenodd" clip-rule="evenodd" d="M7.44429 9.97932V9.91224L7.32551 9.79346L7.20673 9.91224V9.97932H7.44429Z" fill="#FFDA0C"/>
<path fill-rule="evenodd" clip-rule="evenodd" d="M7.91939 9.97932V9.91224L7.80061 9.79346L7.68182 9.91224V9.97932H7.91939Z" fill="#FFDA0C"/>
<path fill-rule="evenodd" clip-rule="evenodd" d="M7.44427 9.97932V9.91224L7.56306 9.79346L7.68184 9.91224V9.97932H7.44427Z" fill="#FF0000"/>
<path fill-rule="evenodd" clip-rule="evenodd" d="M7.91943 9.97932V9.91224L8.03822 9.79346L8.157 9.91224V9.97932H7.91943Z" fill="#FF0000"/>
<path fill-rule="evenodd" clip-rule="evenodd" d="M6.96912 12.2822V12.3493L7.0879 12.4681L7.20668 12.3493V12.2822H6.96912Z" fill="#FF0000"/>
<path fill-rule="evenodd" clip-rule="evenodd" d="M7.44429 12.2822V12.3493L7.32551 12.4681L7.20673 12.3493V12.2822H7.44429Z" fill="#FFDA0C"/>
<path fill-rule="evenodd" clip-rule="evenodd" d="M7.91939 12.2822V12.3493L7.80061 12.4681L7.68182 12.3493V12.2822H7.91939Z" fill="#FFDA0C"/>
<path fill-rule="evenodd" clip-rule="evenodd" d="M7.44427 12.2822V12.3493L7.56306 12.4681L7.68184 12.3493V12.2822H7.44427Z" fill="#FF0000"/>
<path fill-rule="evenodd" clip-rule="evenodd" d="M7.91943 12.2822V12.3493L8.03822 12.4681L8.157 12.3493V12.2822H7.91943Z" fill="#FF0000"/>
<path fill-rule="evenodd" clip-rule="evenodd" d="M7.85095 10.6685V10.8166H8.03541V10.9633H8.22128V11.1254V11.2861H8.03541V11.4329H7.85095V11.581H7.29336V11.4329H7.1089V11.2861H6.92303V11.1254V10.9633H7.1089V10.8166H7.29336V10.6685H7.85095Z" fill="white"/>
<path fill-rule="evenodd" clip-rule="evenodd" d="M6.92303 11.1254H7.57285V10.6685H7.29336V10.8166H7.1089V10.9633H6.92303V11.1254Z" fill="#FFDA0C"/>
<path fill-rule="evenodd" clip-rule="evenodd" d="M8.22124 11.125H7.57281V11.5806H7.85091V11.4324H8.03537V11.2857H8.22124V11.125Z" fill="#FFDA0C"/>
<path fill-rule="evenodd" clip-rule="evenodd" d="M7.57287 10.8608L7.80066 10.9922V11.2563L7.57287 11.3877L7.34369 11.2563V10.9922L7.57287 10.8608Z" fill="#FF0000"/>
<path fill-rule="evenodd" clip-rule="evenodd" d="M7.8006 11.125H7.57281V11.3877L7.8006 11.2564V11.125Z" fill="#007C29"/>
<path fill-rule="evenodd" clip-rule="evenodd" d="M7.34369 11.125H7.57287V10.8608L7.34369 10.9922V11.125Z" fill="#007C29"/>
<path fill-rule="evenodd" clip-rule="evenodd" d="M8.72157 9.97949H8.53571L8.72157 10.1654V9.97949Z" fill="#FF0000"/>
<path fill-rule="evenodd" clip-rule="evenodd" d="M9.09328 10.165H8.72156L9.09328 10.5368V10.165Z" fill="#FF0000"/>
<path fill-rule="evenodd" clip-rule="evenodd" d="M6.40454 9.97949H6.5904L6.40454 10.1654V9.97949Z" fill="#FF0000"/>
<path fill-rule="evenodd" clip-rule="evenodd" d="M6.03284 10.165H6.40456L6.03284 10.5368V10.165Z" fill="#FF0000"/>
<path fill-rule="evenodd" clip-rule="evenodd" d="M8.72157 12.2821H8.53571L8.72157 12.0962V12.2821Z" fill="#FF0000"/>
<path fill-rule="evenodd" clip-rule="evenodd" d="M9.09328 12.0963H8.72156L9.09328 11.7246V12.0963Z" fill="#FF0000"/>
<path fill-rule="evenodd" clip-rule="evenodd" d="M6.40454 12.2821H6.5904L6.40454 12.0962V12.2821Z" fill="#FF0000"/>
<path fill-rule="evenodd" clip-rule="evenodd" d="M6.03284 12.0963H6.40456L6.03284 11.7246V12.0963Z" fill="#FF0000"/>
<path fill-rule="evenodd" clip-rule="evenodd" d="M4.93585 5.57181H5.58567V5.33284H6.23409V5.09388H6.88391V4.85352H7.56308H8.24225V5.09388H8.89067V5.33284H9.54049V5.57181H10.1903V7.65962H9.54049V7.89858H8.89067V8.13755H8.24225V8.37652H7.56308H6.88391V8.13755H6.23409V7.89858H5.58567V7.65962H4.93585V5.57181Z" fill="#FFDA0C"/>
<path fill-rule="evenodd" clip-rule="evenodd" d="M5.73241 5.71973H5.08398V6.46737H4.93585V6.76223H5.08398V7.51127H5.73241V5.71973Z" fill="#007C29"/>
<path fill-rule="evenodd" clip-rule="evenodd" d="M5.24609 5.88183V5.71973H5.08398L5.24609 5.88183Z" fill="#FF0000"/>
<path fill-rule="evenodd" clip-rule="evenodd" d="M5.4082 5.71973H5.24609L5.4082 5.88183L5.5703 5.71973H5.4082Z" fill="#FF0000"/>
<path fill-rule="evenodd" clip-rule="evenodd" d="M5.57025 5.88183V5.71973H5.73236L5.57025 5.88183Z" fill="#FF0000"/>
<path fill-rule="evenodd" clip-rule="evenodd" d="M5.24609 7.34912V7.51123H5.08398L5.24609 7.34912Z" fill="#FF0000"/>
<path fill-rule="evenodd" clip-rule="evenodd" d="M5.4082 7.51123H5.24609L5.4082 7.34912L5.5703 7.51123H5.4082Z" fill="#FF0000"/>
<path fill-rule="evenodd" clip-rule="evenodd" d="M5.57025 7.34912V7.51123H5.73236L5.57025 7.34912Z" fill="#FF0000"/>
<path d="M6.38218 5.47949H5.73236V7.75037H6.38218V5.47949Z" fill="#FFDA0C"/>
<path fill-rule="evenodd" clip-rule="evenodd" d="M5.89447 5.643V5.47949H5.73236L5.89447 5.643Z" fill="#FF0000"/>
<path fill-rule="evenodd" clip-rule="evenodd" d="M6.05658 5.47949H5.89447L6.05658 5.643L6.22008 5.47949H6.05658Z" fill="#FF0000"/>
<path fill-rule="evenodd" clip-rule="evenodd" d="M6.22009 5.643V5.47949H6.3822L6.22009 5.643Z" fill="#FF0000"/>
<path fill-rule="evenodd" clip-rule="evenodd" d="M5.89447 7.58838V7.75048H5.73236L5.89447 7.58838Z" fill="#FF0000"/>
<path fill-rule="evenodd" clip-rule="evenodd" d="M6.05658 7.75048H5.89447L6.05658 7.58838L6.22008 7.75048H6.05658Z" fill="#FF0000"/>
<path fill-rule="evenodd" clip-rule="evenodd" d="M6.22009 7.58838V7.75048H6.3822L6.22009 7.58838Z" fill="#FF0000"/>
<path d="M7.03202 5.24072H6.3822V7.99093H7.03202V5.24072Z" fill="#007C29"/>
<path fill-rule="evenodd" clip-rule="evenodd" d="M6.54431 5.40283V5.24072H6.3822L6.54431 5.40283Z" fill="#FF0000"/>
<path fill-rule="evenodd" clip-rule="evenodd" d="M6.70642 5.24072H6.54431L6.70642 5.40283L6.86852 5.24072H6.70642Z" fill="#FF0000"/>
<path fill-rule="evenodd" clip-rule="evenodd" d="M6.86853 5.40283V5.24072H7.03064L6.86853 5.40283Z" fill="#FF0000"/>
<path fill-rule="evenodd" clip-rule="evenodd" d="M6.54431 7.82861V7.99072H6.3822L6.54431 7.82861Z" fill="#FF0000"/>
<path fill-rule="evenodd" clip-rule="evenodd" d="M6.70642 7.99072H6.54431L6.70642 7.82861L6.86852 7.99072H6.70642Z" fill="#FF0000"/>
<path fill-rule="evenodd" clip-rule="evenodd" d="M6.86853 7.82861V7.99072H7.03064L6.86853 7.82861Z" fill="#FF0000"/>
<path d="M8.09411 5.00146H7.03064V8.2296H8.09411V5.00146Z" fill="#FFDA0C"/>
<path fill-rule="evenodd" clip-rule="evenodd" d="M7.29755 5.26698V5.00146H7.03064L7.29755 5.26698Z" fill="#FF0000"/>
<path fill-rule="evenodd" clip-rule="evenodd" d="M7.56306 5.00146H7.29755L7.56306 5.26698L7.82858 5.00146H7.56306Z" fill="#FF0000"/>
<path fill-rule="evenodd" clip-rule="evenodd" d="M7.82855 5.26698V5.00146H8.09407L7.82855 5.26698Z" fill="#FF0000"/>
<path fill-rule="evenodd" clip-rule="evenodd" d="M7.29755 7.96436V8.22987H7.03064L7.29755 7.96436Z" fill="#FF0000"/>
<path fill-rule="evenodd" clip-rule="evenodd" d="M7.56306 8.22987H7.29755L7.56306 7.96436L7.82858 8.22987H7.56306Z" fill="#FF0000"/>
<path fill-rule="evenodd" clip-rule="evenodd" d="M7.82855 7.96436V8.22987H8.09407L7.82855 7.96436Z" fill="#FF0000"/>
<path d="M9.39372 5.47949H8.7439V7.75037H9.39372V5.47949Z" fill="#FFDA0C"/>
<path d="M8.74394 5.24072H8.09412V7.99093H8.74394V5.24072Z" fill="#007C29"/>
<path fill-rule="evenodd" clip-rule="evenodd" d="M8.25762 5.40283V5.24072H8.09412L8.25762 5.40283Z" fill="#FF0000"/>
<path fill-rule="evenodd" clip-rule="evenodd" d="M8.41967 5.24072H8.25757L8.41967 5.40283L8.58178 5.24072H8.41967Z" fill="#FF0000"/>
<path fill-rule="evenodd" clip-rule="evenodd" d="M8.58179 5.40283V5.24072H8.74389L8.58179 5.40283Z" fill="#FF0000"/>
<path fill-rule="evenodd" clip-rule="evenodd" d="M8.906 5.643V5.47949H8.7439L8.906 5.643Z" fill="#FF0000"/>
<path fill-rule="evenodd" clip-rule="evenodd" d="M9.06811 5.47949H8.90601L9.06811 5.643L9.23022 5.47949H9.06811Z" fill="#FF0000"/>
<path fill-rule="evenodd" clip-rule="evenodd" d="M9.23022 5.643V5.47949H9.39373L9.23022 5.643Z" fill="#FF0000"/>
<path fill-rule="evenodd" clip-rule="evenodd" d="M8.906 7.58838V7.75048H8.7439L8.906 7.58838Z" fill="#FF0000"/>
<path fill-rule="evenodd" clip-rule="evenodd" d="M9.06811 7.75048H8.90601L9.06811 7.58838L9.23022 7.75048H9.06811Z" fill="#FF0000"/>
<path fill-rule="evenodd" clip-rule="evenodd" d="M9.23022 7.58838V7.75048H9.39373L9.23022 7.58838Z" fill="#FF0000"/>
<path fill-rule="evenodd" clip-rule="evenodd" d="M8.25762 7.82861V7.99072H8.09412L8.25762 7.82861Z" fill="#FF0000"/>
<path fill-rule="evenodd" clip-rule="evenodd" d="M8.41967 7.99072H8.25757L8.41967 7.82861L8.58178 7.99072H8.41967Z" fill="#FF0000"/>
<path fill-rule="evenodd" clip-rule="evenodd" d="M8.58179 7.82861V7.99072H8.74389L8.58179 7.82861Z" fill="#FF0000"/>
<path fill-rule="evenodd" clip-rule="evenodd" d="M9.39374 5.71973H10.0422V6.46737H10.1903V6.76223H10.0422V7.51127H9.39374V5.71973Z" fill="#007C29"/>
<path fill-rule="evenodd" clip-rule="evenodd" d="M9.55584 5.88183V5.71973H9.39374L9.55584 5.88183Z" fill="#FF0000"/>
<path fill-rule="evenodd" clip-rule="evenodd" d="M9.71795 5.71973H9.55585L9.71795 5.88183L9.88006 5.71973H9.71795Z" fill="#FF0000"/>
<path fill-rule="evenodd" clip-rule="evenodd" d="M9.88007 5.88183V5.71973H10.0422L9.88007 5.88183Z" fill="#FF0000"/>
<path fill-rule="evenodd" clip-rule="evenodd" d="M9.55584 7.34912V7.51123H9.39374L9.55584 7.34912Z" fill="#FF0000"/>
<path fill-rule="evenodd" clip-rule="evenodd" d="M9.71795 7.51123H9.55585L9.71795 7.34912L9.88006 7.51123H9.71795Z" fill="#FF0000"/>
<path fill-rule="evenodd" clip-rule="evenodd" d="M9.88007 7.34912V7.51123H10.0422L9.88007 7.34912Z" fill="#FF0000"/>
<path fill-rule="evenodd" clip-rule="evenodd" d="M6.59046 7.60339L6.67011 7.52373V7.3225L6.59744 7.39517V7.49439L6.49683 7.39377L6.70645 7.18555L6.91606 7.39377L6.81545 7.49439V7.39517L6.74278 7.3225V7.52373L6.82243 7.60339L6.70645 7.71798L6.59046 7.60339Z" fill="white"/>
<path fill-rule="evenodd" clip-rule="evenodd" d="M5.94202 7.36455L6.02167 7.2849V7.08366L5.94901 7.15633V7.25555L5.84839 7.15493L6.05661 6.94531L6.26623 7.15493L6.16561 7.25555V7.15633L6.09294 7.08366V7.2849L6.1726 7.36455L6.05661 7.47914L5.94202 7.36455Z" fill="#FF0000"/>
<path fill-rule="evenodd" clip-rule="evenodd" d="M5.40818 6.87012C5.47666 6.87012 5.53395 6.92602 5.53395 6.99589V7.1524L5.47107 7.0434L5.40818 7.1524L5.3453 7.0434L5.28241 7.1524V6.99589C5.28241 6.92741 5.33831 6.87012 5.40818 6.87012Z" fill="white"/>
<path fill-rule="evenodd" clip-rule="evenodd" d="M9.71793 6.87012C9.78641 6.87012 9.84371 6.92602 9.84371 6.99589V7.1524L9.78082 7.0434L9.71793 7.1524L9.65505 7.0434L9.59216 7.1524V6.99589C9.59216 6.92741 9.64806 6.87012 9.71793 6.87012Z" fill="white"/>
<path fill-rule="evenodd" clip-rule="evenodd" d="M8.95355 7.36455L9.03181 7.2849V7.08366L8.96054 7.15633V7.25555L8.85992 7.15493L9.06815 6.94531L9.27776 7.15493L9.17715 7.25555V7.15633L9.10448 7.08366V7.2849L9.18414 7.36455L9.06815 7.47914L8.95355 7.36455Z" fill="#FF0000"/>
<path fill-rule="evenodd" clip-rule="evenodd" d="M8.30371 7.60339L8.38337 7.52373V7.3225L8.3107 7.39517V7.49439L8.21008 7.39377L8.4197 7.18555L8.62792 7.39377L8.52731 7.49439V7.39517L8.45604 7.3225V7.52373L8.53429 7.60339L8.4197 7.71798L8.30371 7.60339Z" fill="white"/>
<path fill-rule="evenodd" clip-rule="evenodd" d="M7.33108 7.73071L7.45266 7.61053V7.38134L7.33388 7.49873V7.61472L7.21649 7.49733L7.41493 7.29749L7.25702 7.13818H7.86911L7.7098 7.29749L7.90963 7.49733L7.79085 7.61472V7.49873L7.67346 7.38134V7.61053L7.79504 7.73071L7.56306 7.96408L7.33108 7.73071Z" fill="#FF0000"/>
<path d="M7.56346 7.6188L7.45081 7.73145L7.56346 7.8441L7.67611 7.73145L7.56346 7.6188Z" fill="#007C29"/>
<path fill-rule="evenodd" clip-rule="evenodd" d="M6.59046 5.62771L6.67011 5.70736V5.9072L6.59744 5.83593V5.73671L6.49683 5.83733L6.70645 6.04555L6.91606 5.83733L6.81545 5.73671V5.83593L6.74278 5.9072V5.70736L6.82243 5.62771L6.70645 5.51172L6.59046 5.62771Z" fill="white"/>
<path fill-rule="evenodd" clip-rule="evenodd" d="M5.94202 5.86654L6.02167 5.9462V6.14743L5.94901 6.07477V5.97555L5.84839 6.07616L6.05661 6.28439L6.26623 6.07616L6.16561 5.97555V6.07477L6.09294 6.14743V5.9462L6.1726 5.86654L6.05661 5.75195L5.94202 5.86654Z" fill="#FF0000"/>
<path fill-rule="evenodd" clip-rule="evenodd" d="M5.40818 6.36139C5.47666 6.36139 5.53395 6.30549 5.53395 6.23562V6.0791L5.47107 6.1881L5.40818 6.0791L5.3453 6.1881L5.28241 6.0791V6.23562C5.28241 6.30409 5.33831 6.36139 5.40818 6.36139Z" fill="white"/>
<path fill-rule="evenodd" clip-rule="evenodd" d="M9.71793 6.36139C9.78641 6.36139 9.84371 6.30549 9.84371 6.23562V6.0791L9.78082 6.1881L9.71793 6.0791L9.65505 6.1881L9.59216 6.0791V6.23562C9.59216 6.30409 9.64806 6.36139 9.71793 6.36139Z" fill="white"/>
<path fill-rule="evenodd" clip-rule="evenodd" d="M8.95355 5.86654L9.03181 5.9462V6.14743L8.96054 6.07477V5.97555L8.85992 6.07616L9.06815 6.28439L9.27776 6.07616L9.17715 5.97555V6.07477L9.10448 6.14743V5.9462L9.18414 5.86654L9.06815 5.75195L8.95355 5.86654Z" fill="#FF0000"/>
<path fill-rule="evenodd" clip-rule="evenodd" d="M8.30371 5.62771L8.38337 5.70736V5.9072L8.3107 5.83593V5.73671L8.21008 5.83733L8.4197 6.04555L8.62792 5.83733L8.52731 5.73671V5.83593L8.45604 5.9072V5.70736L8.53429 5.62771L8.4197 5.51172L8.30371 5.62771Z" fill="white"/>
<path fill-rule="evenodd" clip-rule="evenodd" d="M7.33108 5.49907L7.45266 5.62065V5.84983L7.33388 5.73244V5.61506L7.21649 5.73384L7.41493 5.93368L7.25702 6.09159H7.86911L7.7098 5.93368L7.90963 5.73384L7.79085 5.61506V5.73244L7.67346 5.84983V5.62065L7.79504 5.49907L7.56306 5.26709L7.33108 5.49907Z" fill="#FF0000"/>
<path d="M7.56325 5.38684L7.45062 5.49951L7.56329 5.61214L7.67592 5.49947L7.56325 5.38684Z" fill="#007C29"/>
<path fill-rule="evenodd" clip-rule="evenodd" d="M5.24609 6.68982H5.57729V6.83656H6.65473L7.03065 7.21248H8.09412L8.47004 6.83656H9.54748V6.68982H9.88007V6.54169H9.54748V6.39496H8.47004L8.09412 6.01904H7.03065L6.65473 6.39496H5.57729V6.54169H5.24609V6.68982Z" fill="#FF0000"/>
<path fill-rule="evenodd" clip-rule="evenodd" d="M7.78526 7.13818L6.99849 6.3528L7.06417 6.28712L7.19553 6.41848L7.26121 6.3528L7.06417 6.15576L6.86713 6.3528L7.6539 7.13818H7.78526Z" fill="#FFDA0C"/>
<path fill-rule="evenodd" clip-rule="evenodd" d="M7.78526 6.09131L6.99849 6.87808L7.06417 6.94376L7.19553 6.8124L7.26121 6.87808L7.06417 7.07512L6.86713 6.87808L7.6539 6.09131H7.78526Z" fill="#FFDA0C"/>
<path fill-rule="evenodd" clip-rule="evenodd" d="M7.34088 6.09131L8.12765 6.87808L8.06197 6.94376L7.93061 6.8124L7.86493 6.87808L8.06197 7.07512L8.25901 6.87808L7.47224 6.09131H7.34088Z" fill="#FFDA0C"/>
<path fill-rule="evenodd" clip-rule="evenodd" d="M7.34088 7.13818L8.12765 6.3528L8.06197 6.28712L7.93061 6.41848L7.86493 6.3528L8.06197 6.15576L8.25901 6.3528L7.47224 7.13818H7.34088Z" fill="#FFDA0C"/>
<path d="M7.56352 6.44527L7.39355 6.61523L7.56352 6.7852L7.73348 6.61523L7.56352 6.44527Z" fill="#007C29"/>
<path d="M6.82858 6.51051L6.72382 6.61523L6.82854 6.72L6.9333 6.61527L6.82858 6.51051Z" fill="#007C29"/>
<path d="M8.29847 6.51049L8.19373 6.61523L8.29847 6.71998L8.40321 6.61523L8.29847 6.51049Z" fill="#007C29"/>
<path fill-rule="evenodd" clip-rule="evenodd" d="M4.64514 1.74263L5.18456 1.43239V1.11097L5.73796 0.790955H6.03282L6.75391 0.374512H8.37497L9.09606 0.790955H9.39092L9.94432 1.11097V1.43239L10.4837 1.74263V2.61464L9.94432 2.92628V3.24629L9.39092 3.56631H9.09606L8.37497 3.98276H6.75391L6.03282 3.56631H5.73796L5.18456 3.24629V2.92628L4.64514 2.61464V1.74263Z" fill="#007C29"/>
<path fill-rule="evenodd" clip-rule="evenodd" d="M6.79303 0.522461L6.07194 0.938904H5.77708L5.33129 1.19604V1.51745L4.79187 1.82769V2.52922L5.33129 2.84085V3.16087L5.77708 3.4194H6.07194L6.79303 3.83584H8.33583L9.05692 3.4194H9.35179L9.79618 3.16087V2.84085L10.3356 2.52922V1.82769L9.79618 1.51745V1.19604L9.35179 0.938904H9.05692L8.33583 0.522461H6.79303Z" fill="white"/>
<path fill-rule="evenodd" clip-rule="evenodd" d="M7.56445 3.8361H8.33585L9.05694 3.41966H9.35181L9.7962 3.16113V2.84111L10.3356 2.52947V2.17871H7.56445V3.8361Z" fill="#FFDA0C"/>
<path fill-rule="evenodd" clip-rule="evenodd" d="M6.79303 0.522461L6.07194 0.938904H5.77708L5.33129 1.19604V1.51745L4.79187 1.82769V2.17845H7.56443V0.522461H6.79303Z" fill="#FFDA0C"/>
<path fill-rule="evenodd" clip-rule="evenodd" d="M6.79443 1.41851L7.56443 0.974121L8.33304 1.41851H8.93115V1.88806L9.22182 2.17873L8.93115 2.4694V2.94035H8.33304L7.56443 3.38474L6.79443 2.94035H6.19772V2.4694L5.90704 2.17873L6.19772 1.88806V1.41851H6.79443Z" fill="white"/>
<path fill-rule="evenodd" clip-rule="evenodd" d="M7.56445 0.974121L8.33306 1.41851H8.93117V1.88806L9.22184 2.17873H7.56445V0.974121Z" fill="white"/>
<path fill-rule="evenodd" clip-rule="evenodd" d="M6.19776 1.88817L6.05522 1.64222L6.14187 1.3208L5.93784 1.43819L5.87215 1.32499L5.81626 1.35853L5.76036 1.39067L5.82464 1.50387L5.62201 1.62126L5.94203 1.7065L6.10274 1.9832L6.19776 1.88817Z" fill="#FF0000"/>
<path fill-rule="evenodd" clip-rule="evenodd" d="M5.82321 2.17868V1.88801H5.62197V1.62109L5.06299 2.17868L5.62197 2.73627V2.46935H5.82321V2.17868Z" fill="#FF0000"/>
<path fill-rule="evenodd" clip-rule="evenodd" d="M6.34867 1.41858L6.25504 1.25508L6.34029 0.935059L6.13766 1.05245L6.07198 0.939251L6.01468 0.971393L5.95878 1.00353L6.02446 1.11673L5.82043 1.23412L6.14185 1.32076L6.19775 1.41858H6.34867Z" fill="#FF0000"/>
<path fill-rule="evenodd" clip-rule="evenodd" d="M6.90767 1.35265L6.81963 1.20032L6.90627 0.878906L6.70224 0.996293L6.63796 0.883099L6.58066 0.916638L6.52476 0.948779L6.58905 1.06197L6.38641 1.17936L6.70643 1.266L6.79447 1.41833L6.90767 1.35265Z" fill="#FF0000"/>
<path fill-rule="evenodd" clip-rule="evenodd" d="M7.20671 1.17927L6.80983 0.783786L6.63795 0.883006L6.57227 0.769812L6.7749 0.652425H7.11588L7.24584 0.522461H7.56446H7.88169L8.01305 0.652425H8.35263L8.55666 0.769812L8.49098 0.883006L8.3177 0.783786L7.92221 1.17927L7.56446 0.973841L7.20671 1.17927Z" fill="#FF0000"/>
<path fill-rule="evenodd" clip-rule="evenodd" d="M8.93115 1.88817L9.0723 1.64222L8.98705 1.3208L9.18968 1.43819L9.25536 1.32499L9.31266 1.35853L9.36856 1.39067L9.30288 1.50387L9.50691 1.62126L9.18549 1.7065L9.02618 1.9832L8.93115 1.88817Z" fill="#FF0000"/>
<path fill-rule="evenodd" clip-rule="evenodd" d="M9.30432 2.17868V1.88801H9.50695V1.62109L10.0645 2.17868L9.50695 2.73627V2.46935H9.30432V2.17868Z" fill="#FF0000"/>
<path fill-rule="evenodd" clip-rule="evenodd" d="M8.78027 1.41858L8.8739 1.25508L8.78726 0.935059L8.99129 1.05245L9.05697 0.939251L9.11287 0.971393L9.17017 1.00353L9.10448 1.11673L9.30712 1.23412L8.9871 1.32076L8.9312 1.41858H8.78027Z" fill="#FF0000"/>
<path fill-rule="evenodd" clip-rule="evenodd" d="M8.21985 1.35265L8.30789 1.20032L8.22264 0.878906L8.42528 0.996293L8.49096 0.883099L8.54825 0.916638L8.60415 0.948779L8.53847 1.06197L8.7425 1.17936L8.42108 1.266L8.33304 1.41833L8.21985 1.35265Z" fill="#FF0000"/>
<path fill-rule="evenodd" clip-rule="evenodd" d="M6.19776 2.46954L6.05522 2.71689L6.14187 3.03691L5.93784 2.91952L5.87215 3.03272L5.81626 3.00057L5.76036 2.96704L5.82464 2.85384L5.62201 2.73645L5.94203 2.65121L6.10274 2.37451L6.19776 2.46954Z" fill="#FF0000"/>
<path fill-rule="evenodd" clip-rule="evenodd" d="M6.34867 2.94043L6.25504 3.10254L6.34029 3.42395L6.13766 3.30656L6.07198 3.41976L6.01468 3.38622L5.95878 3.35408L6.02446 3.24088L5.82043 3.1235L6.14185 3.03685L6.19775 2.94043H6.34867Z" fill="#FF0000"/>
<path fill-rule="evenodd" clip-rule="evenodd" d="M6.90767 3.00611L6.81963 3.15704L6.90627 3.47845L6.70224 3.36107L6.63796 3.47426L6.58066 3.44212L6.52476 3.40858L6.58905 3.29538L6.38641 3.178L6.70643 3.09275L6.79447 2.94043L6.90767 3.00611Z" fill="#FF0000"/>
<path fill-rule="evenodd" clip-rule="evenodd" d="M7.20671 3.17773L6.80983 3.57461L6.63795 3.474L6.57227 3.58719L6.7749 3.70458H7.11588L7.24584 3.83594H7.56446H7.88169L8.01305 3.70458H8.35263L8.55666 3.58719L8.49098 3.474L8.3177 3.57461L7.92221 3.17773L7.56446 3.38456L7.20671 3.17773Z" fill="#FF0000"/>
<path fill-rule="evenodd" clip-rule="evenodd" d="M8.93115 2.46954L9.0723 2.71689L8.98705 3.03691L9.18968 2.91952L9.25536 3.03272L9.31266 3.00057L9.36856 2.96704L9.30288 2.85384L9.50691 2.73645L9.18549 2.65121L9.02618 2.37451L8.93115 2.46954Z" fill="#FF0000"/>
<path fill-rule="evenodd" clip-rule="evenodd" d="M8.78027 2.94043L8.8739 3.10254L8.78726 3.42395L8.99129 3.30656L9.05697 3.41976L9.11287 3.38622L9.17017 3.35408L9.10448 3.24088L9.30712 3.1235L8.9871 3.03685L8.9312 2.94043H8.78027Z" fill="#FF0000"/>
<path fill-rule="evenodd" clip-rule="evenodd" d="M8.21985 3.00611L8.30789 3.15704L8.22264 3.47845L8.42528 3.36107L8.49096 3.47426L8.54825 3.44212L8.60415 3.40858L8.53847 3.29538L8.7425 3.178L8.42108 3.09275L8.33304 2.94043L8.21985 3.00611Z" fill="#FF0000"/>
<path fill-rule="evenodd" clip-rule="evenodd" d="M7.49179 3.48383V3.31055H7.56446H7.63573V3.48383L7.71398 3.56209L7.83696 3.43772L7.89985 3.5006L7.56446 3.83599L7.22906 3.5006L7.29055 3.43772L7.41493 3.56209L7.49179 3.48383Z" fill="white"/>
<path fill-rule="evenodd" clip-rule="evenodd" d="M7.63573 0.873224V1.04651H7.56446H7.49179V0.873224L7.41493 0.794966L7.29055 0.91934L7.22906 0.857852L7.56446 0.522461L7.89985 0.857852L7.83696 0.91934L7.71398 0.794966L7.63573 0.873224Z" fill="white"/>
<path fill-rule="evenodd" clip-rule="evenodd" d="M8.33304 1.41851L7.56443 0.974121L6.79443 1.41851H6.19772V1.88806L5.90704 2.17873L6.19772 2.4694V2.94035H6.79443L7.56443 3.38474L8.33304 2.94035H8.93115V2.4694L9.22182 2.17873L8.93115 1.88806V1.41851H8.33304Z" fill="white"/>
<path fill-rule="evenodd" clip-rule="evenodd" d="M7.56443 3.38472L6.79443 2.94033H6.19772V2.46938L5.90704 2.17871H7.56443V3.38472Z" fill="#FFDA0C"/>
<path fill-rule="evenodd" clip-rule="evenodd" d="M7.56445 0.974121L8.33306 1.41851H8.93117V1.88806L9.22184 2.17873H7.56445V0.974121Z" fill="#FFDA0C"/>
<path fill-rule="evenodd" clip-rule="evenodd" d="M6.27042 1.48985H6.81403L7.56447 1.05664L8.31351 1.48985H8.85852V1.91748L9.11984 2.1788L8.85852 2.44013V2.86775H8.31351L7.56447 3.30096L6.81403 2.86775H6.27042V2.44013L6.00909 2.1788L6.27042 1.91748V1.48985Z" fill="#FF0000"/>
<path fill-rule="evenodd" clip-rule="evenodd" d="M8.8585 2.86766H8.31349L7.56445 3.30087V2.17871H9.11983L8.8585 2.44004V2.86766Z" fill="#007C29"/>
<path fill-rule="evenodd" clip-rule="evenodd" d="M8.53708 1.77064L8.26039 1.8447L8.14719 2.04035L8.034 1.97467L8.14719 1.77902L8.07313 1.50232L8.24921 1.60294L8.31349 1.48975L8.42668 1.55543L8.3624 1.66862L8.53708 1.77064Z" fill="#007C29"/>
<path fill-rule="evenodd" clip-rule="evenodd" d="M8.53708 2.588L8.26039 2.51394L8.14719 2.31689L8.034 2.38258L8.14719 2.57822L8.07313 2.85631L8.24921 2.7543L8.31349 2.86749L8.42668 2.80181L8.3624 2.68862L8.53708 2.588Z" fill="#FF0000"/>
<path fill-rule="evenodd" clip-rule="evenodd" d="M6.27042 1.48985H6.81403L7.56447 1.05664V2.1788H6.00909L6.27042 1.91748V1.48985Z" fill="#007C29"/>
<path fill-rule="evenodd" clip-rule="evenodd" d="M6.59045 1.77064L6.86715 1.8447L6.98035 2.04035L7.09354 1.97467L6.98035 1.77902L7.05581 1.50232L6.87973 1.60294L6.81405 1.48975L6.70085 1.55543L6.76653 1.66862L6.59045 1.77064Z" fill="#FF0000"/>
<path fill-rule="evenodd" clip-rule="evenodd" d="M7.56443 2.65389L6.73993 2.17875L7.56443 1.70361L8.38754 2.17875L7.56443 2.65389Z" fill="white"/>
<path fill-rule="evenodd" clip-rule="evenodd" d="M7.09351 1.97452H7.36042V1.8208H7.76848V1.97452H8.034V2.38258H7.76848V2.5363H7.36042V2.38258H7.09351V1.97452Z" fill="#FF0000"/>
<path fill-rule="evenodd" clip-rule="evenodd" d="M6.59045 2.588L6.86715 2.51394L6.98035 2.31689L7.09354 2.38258L6.98035 2.57822L7.05581 2.85631L6.87973 2.7543L6.81405 2.86749L6.70085 2.80181L6.76653 2.68862L6.59045 2.588Z" fill="#007C29"/>
<path fill-rule="evenodd" clip-rule="evenodd" d="M7.56446 3.83599V3.31055H7.49179V3.48383L7.41493 3.56209L7.29055 3.43772L7.22906 3.5006L7.56446 3.83599Z" fill="#FFDA0C"/>
<path d="M7.56457 3.53657L7.47662 3.62451L7.56457 3.71246L7.65251 3.62451L7.56457 3.53657Z" fill="white"/>
<path fill-rule="evenodd" clip-rule="evenodd" d="M7.56445 3.71172L7.65249 3.62368L7.56445 3.53564V3.71172Z" fill="#FFDA0C"/>
<path fill-rule="evenodd" clip-rule="evenodd" d="M7.56445 0.522461V1.04651H7.63572V0.873224L7.71398 0.794966L7.83696 0.91934L7.89984 0.857852L7.56445 0.522461Z" fill="#FFDA0C"/>
<path d="M7.56474 0.646414L7.47681 0.734375L7.56477 0.822305L7.6527 0.734344L7.56474 0.646414Z" fill="white"/>
<path fill-rule="evenodd" clip-rule="evenodd" d="M7.56448 0.645508L7.47644 0.733548L7.56448 0.821588V0.645508Z" fill="#FFDA0C"/>
<path fill-rule="evenodd" clip-rule="evenodd" d="M9.58377 2.10742H9.11981V2.17869V2.25136H9.58377L9.66203 2.32822V2.45259L9.93453 2.17869L9.66203 1.90479V2.02916L9.58377 2.10742Z" fill="white"/>
<path fill-rule="evenodd" clip-rule="evenodd" d="M9.93453 2.17869H9.11981V2.10742H9.58377L9.66203 2.02916V1.90479L9.93453 2.17869Z" fill="#FFDA0C"/>
<path d="M9.72318 2.09221L9.63525 2.18018L9.72322 2.26811L9.81115 2.18015L9.72318 2.09221Z" fill="white"/>
<path fill-rule="evenodd" clip-rule="evenodd" d="M9.81158 2.17871L9.72354 2.26675L9.6355 2.17871H9.81158Z" fill="#FFDA0C"/>
<path fill-rule="evenodd" clip-rule="evenodd" d="M5.54376 2.25136H6.00911V2.17869V2.10742H5.54376L5.4669 2.02916V1.90479L5.19299 2.17869L5.4669 2.45259V2.32822L5.54376 2.25136Z" fill="white"/>
<path fill-rule="evenodd" clip-rule="evenodd" d="M5.19299 2.17871H6.00911V2.25138H5.54376L5.4669 2.32824V2.45261L5.19299 2.17871Z" fill="#FFDA0C"/>
<path d="M5.40586 2.09228L5.31787 2.18018L5.40577 2.26817L5.49376 2.18027L5.40586 2.09228Z" fill="white"/>
<path fill-rule="evenodd" clip-rule="evenodd" d="M5.31732 2.17886L5.40536 2.09082L5.492 2.17886H5.31732Z" fill="#FFDA0C"/>
</g>
</g>
<rect x="0.25" y="0.25" width="23.5" height="23.5" rx="11.75" stroke="#E5E3E1" stroke-width="0.5"/>
<defs>
<clipPath id="clip0_16335_2112">
<rect width="24" height="24" rx="12" fill="white"/>
</clipPath>
</defs>
</svg>
