<svg width="24" height="24" viewBox="0 0 24 24" fill="none" xmlns="http://www.w3.org/2000/svg">
<path fill-rule="evenodd" clip-rule="evenodd" d="M20 6H16V4C16 2.89 15.11 2 14 2H10C8.89 2 8 2.89 8 4V6H4C2.89 6 2.01 6.89 2.01 8L2 19C2 20.11 2.89 21 4 21H15.6447C15.2565 20.3498 14.8996 19.6726 14.6182 19H9V8H15V13.4572C15.5155 12.7849 16.2035 12.2472 17 11.9068V8H20V11.5977C20.7391 11.7444 21.4188 12.0505 22 12.4779V8C22 6.89 21.11 6 20 6ZM4 8H7V19H4V8ZM10 6H14V4H10V6Z" fill="#323232"/>
<path fill-rule="evenodd" clip-rule="evenodd" d="M19 13C17.065 13 15.5 14.565 15.5 16.5C15.5 19.125 19 23 19 23C19 23 22.5 19.125 22.5 16.5C22.5 14.565 20.935 13 19 13ZM19 17.75C18.31 17.75 17.75 17.19 17.75 16.5C17.75 15.81 18.31 15.25 19 15.25C19.69 15.25 20.25 15.81 20.25 16.5C20.25 17.19 19.69 17.75 19 17.75Z" fill="#323232"/>
</svg>
