<svg width="24" height="24" viewBox="0 0 24 24" fill="none" xmlns="http://www.w3.org/2000/svg">
<g clip-path="url(#clip0_10496_10770)">
<path d="M11.99 2C6.47 2 2 6.48 2 12C2 17.52 6.47 22 11.99 22C17.52 22 22 17.52 22 12C22 6.48 17.52 2 11.99 2ZM15 16C14.61 16.39 13.98 16.39 13.59 16L10.3 12.71C10.11 12.52 10 12.27 10 12V8C10 7.45 10.45 7 11 7C11.55 7 12 7.45 12 8V11.59L15 14.59C15.39 14.98 15.39 15.61 15 16Z" fill="#323232"/>
</g>
<defs>
<clipPath id="clip0_10496_10770">
<rect width="24" height="24" fill="white"/>
</clipPath>
</defs>
</svg>
