<svg width="48" height="48" viewBox="0 0 48 48" fill="none" xmlns="http://www.w3.org/2000/svg">
<path d="M25.7509 22.8502V45.2502L9.13086 39.9502V17.9102L25.7509 22.8502Z" fill="#8DE2E0"/>
<path d="M32.3109 10.6899L25.7509 22.8499L9.13086 17.9099L16.8309 6.66992L32.3109 10.6899Z" fill="#8DE2E0"/>
<path d="M39.8509 17.7702C39.8509 17.7702 39.8509 17.7002 39.8409 17.6602C39.8409 17.6202 39.8109 17.5902 39.8009 17.5602C39.7809 17.5202 39.7709 17.4802 39.7509 17.4402C39.7309 17.4102 39.7109 17.3902 39.6909 17.3602C39.6609 17.3202 39.6409 17.2802 39.6109 17.2402L33.3109 10.3002V6.67016C33.3109 6.21016 33.0009 5.81016 32.5609 5.70016L17.0809 1.78016C16.7809 1.71016 16.4609 1.78016 16.2209 1.96016C15.9809 2.15016 15.8309 2.44016 15.8309 2.75016V6.36016L8.30086 17.3502C8.30086 17.3502 8.29086 17.3902 8.28086 17.4102C8.24086 17.4802 8.22086 17.5502 8.20086 17.6302C8.18086 17.7002 8.15086 17.7702 8.15086 17.8502C8.15086 17.8702 8.13086 17.8902 8.13086 17.9102V39.9502C8.13086 40.3902 8.41086 40.7702 8.83086 40.9002L25.4509 46.2002C25.5509 46.2302 25.6509 46.2502 25.7509 46.2502C25.8709 46.2502 25.9809 46.2202 26.0909 46.1802C26.1009 46.1802 26.1109 46.1802 26.1209 46.1802L39.2409 40.8802C39.6209 40.7302 39.8709 40.3602 39.8709 39.9502V17.9102C39.8709 17.8602 39.8609 17.8202 39.8509 17.7802V17.7702ZM27.9009 20.9802L32.5209 12.4102L37.1409 17.5002L27.9009 20.9802ZM17.8309 4.04016L31.3109 7.45016V9.40016L17.8309 5.90016V4.04016ZM17.2609 7.82016L30.8209 11.3402L25.2509 21.6702L10.7309 17.3502L17.2609 7.82016ZM10.1309 19.2502L24.7509 23.6002V43.8802L10.1309 39.2202V19.2502ZM26.7509 43.7702V23.5502L37.8709 19.3602V39.2802L26.7509 43.7702Z" fill="#323232"/>
</svg>
