<svg width="48" height="48" viewBox="0 0 48 48" fill="none" xmlns="http://www.w3.org/2000/svg">
<path d="M14.7491 32.3098C12.0091 26.7698 12.6491 22.5998 16.7391 19.8198C19.3591 18.0898 24.4391 16.2398 32.3491 14.5098C31.3691 20.2298 29.9491 25.4798 27.6991 30.0198C25.4491 34.5598 21.1591 35.3298 14.7491 32.3098Z" fill="#8DE2AA"/>
<path d="M41.1099 17.9101C41.1099 17.9101 41.1399 17.8201 41.1499 17.7801C42.6299 13.1301 43.8299 8.20012 44.6999 3.01012C44.6999 2.97012 44.6999 2.92012 44.6999 2.88012C44.6999 2.86012 44.6999 2.83012 44.6999 2.81012C44.6999 2.70012 44.6699 2.59012 44.6299 2.49012C44.6299 2.47012 44.6099 2.45012 44.5999 2.43012C44.5499 2.33012 44.4899 2.24012 44.4199 2.16012C44.4199 2.16012 44.4199 2.15012 44.4099 2.14012C44.3299 2.06012 44.2299 2.00012 44.1199 1.96012C44.0999 1.96012 44.0799 1.94012 44.0499 1.93012C43.9399 1.89012 43.8299 1.87012 43.7199 1.87012C43.7099 1.87012 43.6899 1.87012 43.6799 1.87012C43.6199 1.87012 43.5599 1.87012 43.4999 1.89012C32.9299 4.25012 25.3099 6.56012 20.3499 8.93012C20.3499 8.93012 20.3299 8.93012 20.3299 8.94012C19.0299 9.56012 17.9099 10.1801 16.9799 10.8101C9.9399 15.7001 8.6199 23.0001 13.0099 32.5001C10.4899 35.0601 5.5399 40.7301 3.4199 44.6301C3.1599 45.1201 3.3399 45.7201 3.8199 45.9901C3.9699 46.0701 4.1399 46.1101 4.2999 46.1101C4.6499 46.1101 4.9999 45.9201 5.1799 45.5901C7.2299 41.8201 12.1499 36.2401 14.4299 33.9201C18.5499 35.8301 22.1899 36.7901 25.3299 36.7901C30.4099 36.7901 34.1899 34.2901 36.6099 29.3001C36.9799 28.5301 37.3399 27.7501 37.6899 26.9601C37.6899 26.9501 37.6999 26.9401 37.7099 26.9301C38.9899 24.0701 40.1299 21.0601 41.1299 17.9201L41.1099 17.9101ZM39.5099 16.3201C37.3299 16.0101 35.3099 15.5401 33.2499 14.8501L42.1299 5.87012C41.4199 9.49012 40.5399 12.9801 39.5099 16.3201ZM31.7899 13.4901C31.1599 11.6601 30.7499 9.48012 30.6299 7.24012C33.5399 6.36012 36.8599 5.48012 40.5699 4.60012L31.7799 13.4901H31.7899ZM30.2399 15.0501L23.7399 21.6301C22.5199 17.8901 21.8599 14.1401 21.7499 10.4701C23.6499 9.60012 25.9599 8.73012 28.6599 7.86012C28.8499 10.4801 29.3999 13.0101 30.2399 15.0601V15.0501ZM31.6899 16.4301C34.0999 17.3001 36.3999 17.8801 38.8899 18.2501C38.0599 20.7501 37.1499 23.1601 36.1399 25.4801C32.2699 25.2601 28.6399 24.4901 25.0899 23.1101L31.6999 16.4301H31.6899ZM18.0999 12.4501C18.5999 12.1101 19.1599 11.7801 19.7899 11.4401C19.9999 15.3301 20.7999 19.2801 22.1799 23.2201L14.5099 30.9801C10.8999 22.7201 12.0699 16.6501 18.0999 12.4501ZM15.9199 32.3901L23.5699 24.6501C27.3299 26.2001 31.1799 27.1201 35.2499 27.4301C35.0999 27.7601 34.9499 28.1001 34.7899 28.4201C31.4799 35.2501 25.2899 36.5401 15.9199 32.3901Z" fill="#323232"/>
</svg>
