<svg width="48" height="48" viewBox="0 0 48 48" fill="none" xmlns="http://www.w3.org/2000/svg">
<path fill-rule="evenodd" clip-rule="evenodd" d="M24.5591 39.3995C27.8391 39.3995 30.4991 36.7395 30.4991 33.4595C30.4991 30.1795 27.8391 27.5195 24.5591 27.5195C21.2791 27.5195 18.6191 30.1795 18.6191 33.4595C18.6191 36.7395 21.2791 39.3995 24.5591 39.3995Z" fill="#DF0000"/>
<path fill-rule="evenodd" clip-rule="evenodd" d="M28.1183 31.9294H26.0883V29.8994H23.0283V31.9294H20.9883V34.9894H23.0283V37.0294H26.0883V34.9894H28.1183V31.9294Z" fill="white"/>
<path fill-rule="evenodd" clip-rule="evenodd" d="M24.5591 39.4698C27.8391 39.4698 30.4991 36.8098 30.4991 33.5298C30.4991 30.2498 27.8391 27.5898 24.5591 27.5898C21.2791 27.5898 18.6191 30.2498 18.6191 33.5298C18.6191 36.8098 21.2791 39.4698 24.5591 39.4698Z" fill="#DF0000"/>
<path fill-rule="evenodd" clip-rule="evenodd" d="M28.1183 32H26.0883V29.96H23.0283V32H20.9883V35.06H23.0283V37.09H26.0883V35.06H28.1183V32Z" fill="white"/>
<path d="M33.8609 26.2502L30.6109 14.7402C30.3909 13.9602 29.8009 13.4002 29.0709 13.2002V12.3602C30.1909 12.1802 31.0509 11.1802 31.0509 9.98023V5.30023C31.0509 3.34023 29.5309 1.74023 27.6509 1.74023H17.2209C16.6709 1.74023 16.2209 2.19023 16.2209 2.74023V2.85023H14.7109C14.1609 2.85023 13.7109 3.30023 13.7109 3.85023V6.40023C13.7109 6.95023 14.1609 7.40023 14.7109 7.40023H16.2209V7.51023C16.2209 7.97023 16.5409 8.34023 16.9609 8.46023C16.5709 9.54023 15.9109 11.1602 14.9909 12.6802C14.2909 13.7402 13.8409 15.3002 14.8909 16.1902C15.3109 16.5502 15.7309 16.6402 16.0609 16.6402C16.1409 16.6402 16.2109 16.6402 16.2709 16.6302C17.2909 16.5002 17.9809 15.5202 18.6509 14.5702C18.8509 14.2802 19.0509 14.0002 19.2509 13.7602C19.4109 13.5702 19.5709 13.3702 19.7409 13.1602C20.1809 12.6102 20.6509 12.0102 21.1709 11.5902V13.1702C20.1509 13.3502 19.3709 14.2702 19.3709 15.3702V16.2402C19.3709 17.3602 20.0909 18.3702 21.1309 18.6902C21.5509 18.8202 21.8509 19.2802 21.8509 19.7802V20.0002C21.8509 20.4202 21.6909 20.8202 21.4009 21.1002L16.6409 25.6802C15.4909 26.7902 14.8309 28.3702 14.8309 30.0202V40.3902C14.8309 43.6202 17.3209 46.2602 20.3709 46.2602H28.7609C31.8209 46.2602 34.3009 43.6302 34.3009 40.3902V29.4102C34.3009 28.3402 34.1509 27.2802 33.8609 26.2502ZM23.1609 13.1302V11.3402L23.7409 12.0402C23.9309 12.2702 24.2109 12.4102 24.5109 12.4102H27.0709V13.1402H23.1609V13.1302ZM18.2109 3.75023H27.6409C28.4109 3.75023 29.0409 4.45023 29.0409 5.31023V9.99023C29.0409 10.2202 28.8809 10.4102 28.7009 10.4102H24.9809L23.6509 8.79023C23.4109 8.50023 23.1509 8.24023 22.8709 8.01023C22.8609 8.00023 22.8509 7.99023 22.8409 7.98023C21.7509 7.05023 20.3909 6.53023 18.9709 6.53023H18.2109V3.76023V3.75023ZM15.7009 5.41023V4.86023H16.2109V5.41023H15.7009ZM18.1609 11.9202C18.0109 12.1102 17.8609 12.3002 17.7109 12.4802C17.4809 12.7602 17.2409 13.0902 17.0109 13.4202C16.8609 13.6302 16.6409 13.9502 16.4309 14.2002C16.5009 14.0502 16.5809 13.8902 16.6809 13.7402C17.9009 11.7202 18.7009 9.60023 19.0609 8.51023C19.8109 8.53023 20.5309 8.78023 21.1609 9.20023V9.28023C19.8409 9.78023 18.9209 10.9402 18.1609 11.9102V11.9202ZM32.3009 40.3802C32.3009 42.5102 30.7109 44.2502 28.7609 44.2502H20.3709C18.4209 44.2502 16.8309 42.5202 16.8309 40.3802V30.0102C16.8309 28.9002 17.2709 27.8502 18.0309 27.1102L22.7909 22.5302C23.4609 21.8802 23.8509 20.9602 23.8509 19.9902V19.7702C23.8509 18.3902 22.9709 17.1502 21.7209 16.7602C21.5209 16.7002 21.3709 16.4702 21.3709 16.2302V15.3602C21.3709 15.2202 21.4609 15.1202 21.5409 15.1202H28.5309C28.6009 15.1202 28.6709 15.1802 28.6909 15.2802L31.9409 26.7902C32.1809 27.6402 32.3009 28.5202 32.3009 29.4102V40.3902V40.3802Z" fill="#323232"/>
</svg>
