<svg width="48" height="48" viewBox="0 0 48 48" fill="none" xmlns="http://www.w3.org/2000/svg">
<path d="M43.8491 26.3504C43.0791 24.9904 41.3391 24.5004 39.9891 25.2604L33.0091 29.0204C32.8691 28.8304 32.7191 28.6404 32.5291 28.4804C31.9491 27.9704 31.1891 27.6804 30.4491 27.6804H28.1191C24.4691 27.6804 23.0491 27.3604 21.8091 27.0804C20.8691 26.8704 19.9791 26.6704 18.4091 26.6704C14.6391 26.6704 11.1091 30.0004 9.24906 32.1204L9.01906 31.8904C8.63906 31.5104 7.97906 31.5104 7.60906 31.8904L4.07906 35.4204C3.88906 35.6104 3.78906 35.8604 3.78906 36.1304C3.78906 36.4004 3.89906 36.6504 4.07906 36.8404L12.5291 45.2904C12.7291 45.4904 12.9791 45.5804 13.2391 45.5804C13.4991 45.5804 13.7491 45.4804 13.9491 45.2904L17.4791 41.7604C17.6691 41.5704 17.7691 41.3204 17.7691 41.0504C17.7691 40.7804 17.6591 40.5304 17.4791 40.3404L17.0891 39.9504C18.2791 38.8604 19.9691 37.8104 22.1091 37.8104L29.4191 37.7804C30.4391 37.7804 31.3991 37.5704 32.2891 37.1804C36.0591 35.5104 42.8491 30.2604 43.1291 30.0304C44.2391 29.1604 44.5591 27.5904 43.8591 26.3604L43.8491 26.3504ZM13.2191 43.1504L6.18906 36.1204L8.30906 34.0004L15.3391 41.0304L13.2191 43.1504ZM41.8891 28.4404C39.5291 30.2704 34.2991 34.0804 31.4591 35.3404C30.8291 35.6204 30.1291 35.7604 29.3891 35.7704L22.0791 35.8004C19.1891 35.8004 16.9891 37.2804 15.6491 38.5204L10.6491 33.5204C12.1391 31.8204 15.3191 28.6604 18.3891 28.6604C19.7391 28.6604 20.4491 28.8204 21.3491 29.0204C22.6291 29.3104 24.2291 29.6704 28.0991 29.6704H30.4291C30.6791 29.6704 30.9791 29.7904 31.1891 29.9804C31.3091 30.0804 31.5091 30.3004 31.5091 30.5904C31.5091 31.0904 30.9091 31.5104 30.3891 31.5104L25.1791 31.6704C24.6291 31.6904 24.1891 32.1504 24.2091 32.7004C24.2291 33.2504 24.6891 33.7004 25.2391 33.6704L30.4091 33.5104C31.7391 33.5104 33.1991 32.5004 33.4491 31.0204L40.9191 27.0004C41.3291 26.7704 41.8491 26.9204 42.0891 27.3304C42.2991 27.7104 42.2091 28.1704 41.8691 28.4304L41.8891 28.4404Z" fill="#323232"/>
<path d="M24.0003 25.2904C30.0403 25.2904 34.9303 20.4004 34.9303 14.3604C34.9303 8.32043 30.0403 3.44043 24.0003 3.44043C17.9603 3.44043 13.0703 8.33043 13.0703 14.3704C13.0703 20.4104 17.9603 25.3004 24.0003 25.3004" fill="#DF0000"/>
<path fill-rule="evenodd" clip-rule="evenodd" d="M30.9215 20.4206C30.9215 20.4206 30.9415 20.4306 30.9515 20.4306C30.9715 20.4306 30.9815 20.4306 31.0115 20.4106C31.0315 20.3906 31.0315 20.3406 31.0115 20.3106C29.6415 18.8106 27.9715 17.6106 26.1015 16.8306L25.5315 16.5906C25.2315 16.4606 25.0415 16.1606 25.0415 15.8106C25.0715 14.5306 27.9615 14.7906 28.2615 14.1806L28.3115 14.0706C27.7115 13.5306 27.0115 13.1406 26.2315 12.9106C26.2215 12.9506 26.2015 13.0906 26.3615 13.3706C26.5315 13.6606 26.1815 14.1206 25.6515 13.6206L25.6015 13.5806C21.7715 9.92065 20.0015 12.3406 17.4015 8.07065C17.3815 8.03065 17.3415 8.02065 17.3115 8.05065C17.2815 8.07065 17.2615 8.11065 17.2815 8.15065C19.3315 13.3106 23.5315 12.2206 24.0315 17.0306C24.0515 17.2106 24.1815 17.3506 24.3515 17.3806C26.6815 17.7606 28.9515 18.7706 30.9215 20.4206H30.9315H30.9215Z" fill="white"/>
</svg>
