<svg width="72" height="72" viewBox="0 0 72 72" fill="none" xmlns="http://www.w3.org/2000/svg">
<circle cx="36" cy="36" r="36" fill="#C51328"/>
<circle cx="36" cy="36" r="36" stroke="white"/>
<path d="M44.8758 26.6276C44.9379 26.6276 44.9379 26.6276 45 26.6276C45 26.6276 45.062 26.5656 45 26.5035C43.2 24.5793 40.9034 23.0276 38.4207 21.9724L37.6758 21.6621C37.3034 21.4759 36.9931 21.1035 36.9931 20.669C37.0551 18.9931 40.9034 19.3656 41.3379 18.6207L41.4 18.4966C40.5931 17.8138 39.662 17.2552 38.6069 17.0069C38.6069 17.069 38.5448 17.2552 38.7931 17.5656C39.0414 17.938 38.5448 18.5587 37.862 17.8759L37.8 17.8138C32.6483 13.0345 30.2276 16.138 26.7517 10.6138C26.7517 10.5518 26.6896 10.5518 26.6276 10.5518C26.5655 10.5518 26.5655 10.6138 26.5655 10.6759C29.2965 17.3173 34.9448 15.9518 35.5655 22.1587C35.5655 22.4069 35.7517 22.5931 36 22.5931C39.1655 23.1518 42.2069 24.5173 44.8758 26.6276Z" fill="white"/>
<path d="M20.9431 33.2311V37.6001C20.9431 39.0791 20.2461 40.2011 19.1411 40.7621L20.8751 43.2611H19.2941L17.8491 41.1191C17.6621 41.1531 17.4751 41.1701 17.2711 41.1701C15.0951 41.1701 13.5991 39.7931 13.5991 37.6001V33.2311C13.5991 31.0381 15.0271 29.6611 17.2711 29.6611C19.4471 29.6611 20.9431 31.0381 20.9431 33.2311ZM14.8911 33.1971V37.6341C14.8911 38.9941 15.7581 39.9971 17.2711 39.9971C18.7841 39.9971 19.6341 38.9941 19.6341 37.6341V33.1971C19.6341 31.8371 18.7841 30.8341 17.2711 30.8341C15.7581 30.8341 14.8911 31.8371 14.8911 33.1971Z" fill="white"/>
<path d="M23.0588 38.0931V35.5941C23.0588 33.7241 24.1298 32.5171 25.9318 32.5171C26.9178 32.5171 27.6998 32.9421 28.1928 33.6391L28.3798 32.6871H29.3318V41.0001H28.3798L28.1928 40.0481C27.6998 40.7451 26.9008 41.1701 25.9318 41.1701C24.1298 41.1701 23.0588 39.9631 23.0588 38.0931ZM26.1358 40.0651C27.3598 40.0651 28.0908 39.1811 28.0908 38.0251V35.6791C28.0908 34.5231 27.3598 33.6221 26.1358 33.6221C24.9288 33.6221 24.2998 34.4721 24.2998 35.5431V38.1441C24.2998 39.2321 24.9288 40.0651 26.1358 40.0651Z" fill="white"/>
<path d="M33.0216 41.0001H31.7806V32.6871H32.7326L32.9196 33.6731C33.4126 32.9421 34.2116 32.5171 35.1976 32.5171C37.0166 32.5171 38.0536 33.7071 38.0536 35.5601V41.0001H36.8126V35.5431C36.8126 34.4721 36.1836 33.6221 34.9766 33.6221C33.7526 33.6221 33.0216 34.5231 33.0216 35.6791V41.0001Z" fill="white"/>
<path d="M39.5816 33.7921V32.7381H41.1796V30.4771H42.4376V32.7381H44.0356V33.7921H42.4376V41.0001H41.1796V33.7921H39.5816Z" fill="white"/>
<path d="M45.3879 38.0931V35.5941C45.3879 33.7241 46.4589 32.5171 48.2609 32.5171C49.2469 32.5171 50.0289 32.9421 50.5219 33.6391L50.7089 32.6871H51.6609V41.0001H50.7089L50.5219 40.0481C50.0289 40.7451 49.2299 41.1701 48.2609 41.1701C46.4589 41.1701 45.3879 39.9631 45.3879 38.0931ZM48.4649 40.0651C49.6889 40.0651 50.4199 39.1811 50.4199 38.0251V35.6791C50.4199 34.5231 49.6889 33.6221 48.4649 33.6221C47.2579 33.6221 46.6289 34.4721 46.6289 35.5431V38.1441C46.6289 39.2321 47.2579 40.0651 48.4649 40.0651Z" fill="white"/>
<path d="M53.6167 38.4331H54.7727V38.7221C54.7727 39.5551 55.4867 40.1671 56.7107 40.1671C57.8667 40.1671 58.4787 39.5891 58.4787 38.7731C58.4787 38.0931 58.1557 37.7531 57.3737 37.5151L55.7757 37.0221C54.8067 36.7331 53.8547 36.1381 53.8547 34.8461C53.8547 33.5881 54.9937 32.5171 56.6597 32.5171C58.4107 32.5171 59.6177 33.4181 59.6177 34.9481V35.0841H58.4447V34.8801C58.4447 34.1151 57.7987 33.5031 56.6597 33.5031C55.8947 33.5031 55.0277 33.8941 55.0277 34.7441C55.0277 35.3051 55.3337 35.6451 56.0307 35.8491L57.4417 36.2911C58.6827 36.6821 59.6857 37.1921 59.6857 38.6371C59.6857 40.1331 58.5297 41.1701 56.7277 41.1701C54.9087 41.1701 53.6167 40.2181 53.6167 38.6541V38.4331Z" fill="white"/>
<path d="M28.5571 54.4301H29.7981V54.7871C29.7981 56.8781 28.3361 58.1701 26.1941 58.1701C24.0351 58.1701 22.5391 56.7931 22.5391 54.6001V50.2311C22.5391 48.0381 23.9671 46.6611 26.1941 46.6611C28.3361 46.6611 29.7981 47.9531 29.7981 50.0441V50.2991H28.5571V50.0101C28.5571 48.7521 27.7071 47.8341 26.1941 47.8341C24.6981 47.8341 23.8311 48.8371 23.8311 50.1971V54.6341C23.8311 55.9941 24.6981 56.9971 26.1941 56.9971C27.7071 56.9971 28.5571 56.0791 28.5571 54.8211V54.4301Z" fill="white"/>
<path d="M32.0063 46.4911H33.2643V58.0001H32.0063V46.4911Z" fill="white"/>
<path d="M35.7053 55.1951V49.6871H36.9463V55.1951C36.9463 56.2491 37.5413 57.0651 38.6973 57.0651C39.9043 57.0651 40.6353 56.1811 40.6353 55.0251V49.6871H41.8763V58.0001H40.9243L40.7373 57.0481C40.2443 57.7451 39.4453 58.1701 38.4763 58.1701C36.7083 58.1701 35.7053 56.9971 35.7053 55.1951Z" fill="white"/>
<path d="M45.4621 57.0481L45.2751 58.0001H44.3231V46.4911H45.5641V50.5201C46.0571 49.8911 46.8051 49.5171 47.7231 49.5171C49.5251 49.5171 50.5961 50.7241 50.5961 52.5941V55.0931C50.5961 56.9631 49.5251 58.1701 47.7231 58.1701C46.7371 58.1701 45.9551 57.7451 45.4621 57.0481ZM45.5641 55.0251C45.5641 56.1811 46.2951 57.0651 47.5191 57.0651C48.7261 57.0651 49.3551 56.2321 49.3551 55.1441V52.5431C49.3551 51.4721 48.7261 50.6221 47.5191 50.6221C46.2951 50.6221 45.5641 51.5231 45.5641 52.6791V55.0251Z" fill="white"/>
</svg>
