<svg width="48" height="48" viewBox="0 0 48 48" fill="none" xmlns="http://www.w3.org/2000/svg">
<path d="M23.9291 17.1103H23.8791C22.2791 17.1003 20.7891 16.4603 19.6691 15.3203C18.5491 14.1803 17.9491 12.6803 17.9591 11.0803C17.9691 9.49028 18.6091 7.99028 19.7491 6.87028C20.8891 5.75028 22.3991 5.15028 23.9891 5.16028C25.5891 5.17028 27.0791 5.81028 28.1991 6.95028C29.3191 8.09028 29.9191 9.59028 29.9091 11.1903C29.8991 12.7803 29.2591 14.2803 28.1191 15.4003C26.9991 16.5103 25.5091 17.1103 23.9391 17.1103H23.9291ZM23.8891 15.1103C24.9891 15.1103 25.9491 14.7103 26.7091 13.9703C27.4691 13.2303 27.8891 12.2303 27.8991 11.1703C27.8991 10.1103 27.5091 9.11028 26.7591 8.35028C26.0191 7.59028 25.0191 7.17028 23.9591 7.16028H23.9191C22.8691 7.16028 21.8791 7.56028 21.1391 8.30028C20.3791 9.04028 19.9591 10.0403 19.9491 11.1003C19.9391 12.1603 20.3391 13.1603 21.0891 13.9203C21.8291 14.6803 22.8291 15.1003 23.8891 15.1103Z" fill="#323232"/>
<path d="M29.6008 33.5297C29.0508 33.5297 28.6008 33.0697 28.6108 32.5197L28.7008 22.0997C28.7008 21.3597 28.1108 20.7497 27.3708 20.7397L20.3308 20.6797H20.3208C19.9708 20.6797 19.6308 20.8197 19.3808 21.0697C19.1208 21.3197 18.9808 21.6597 18.9808 22.0197L18.8908 32.4297C18.8908 32.9797 18.4308 33.3897 17.8808 33.4197C17.3308 33.4197 16.8808 32.9597 16.8908 32.4097L16.9808 21.9997C16.9808 21.1097 17.3408 20.2697 17.9808 19.6397C18.6108 19.0197 19.4408 18.6797 20.3208 18.6797H20.3508L27.3908 18.7397C29.2308 18.7597 30.7208 20.2697 30.7108 22.1197L30.6208 32.5397C30.6208 33.0897 30.1708 33.5297 29.6208 33.5297H29.6008Z" fill="#323232"/>
<path d="M23.651 46.1399H23.611C22.611 46.1399 21.671 45.7899 20.961 45.1699C20.201 44.5099 19.791 43.6299 19.801 42.6799L19.871 32.6599C19.871 32.1099 20.321 31.6699 20.871 31.6699C21.421 31.6699 21.871 32.1199 21.861 32.6799L21.791 42.6999C21.791 43.0499 21.951 43.3899 22.261 43.6599C22.611 43.9699 23.091 44.1399 23.621 44.1399C24.141 44.1399 24.631 43.9799 24.991 43.6799C25.301 43.4199 25.481 43.0799 25.481 42.7299L25.551 32.7099C25.551 32.1599 26.001 31.7199 26.551 31.7199C27.101 31.7199 27.551 32.1799 27.541 32.7299L27.471 42.7499C27.471 43.6999 27.031 44.5699 26.261 45.2199C25.551 45.8199 24.621 46.1399 23.631 46.1399H23.651Z" fill="#323232"/>
<path d="M36.8299 14.7596H36.7799C35.1799 14.7496 33.6899 14.1096 32.5699 12.9696C31.4499 11.8296 30.8399 10.3296 30.8599 8.72957C30.8699 7.13957 31.5099 5.63957 32.6499 4.51957C33.7899 3.39957 35.3199 2.80957 36.8899 2.80957C40.1799 2.83957 42.8399 5.53957 42.8099 8.83957C42.7799 12.1096 40.1099 14.7596 36.8399 14.7596H36.8299ZM36.7899 12.7596H36.8299C37.8799 12.7596 38.8599 12.3596 39.6099 11.6196C40.3699 10.8796 40.7899 9.87957 40.7999 8.81957C40.8199 6.62957 39.0499 4.82957 36.8699 4.80957C35.8099 4.77957 34.8099 5.19957 34.0499 5.94957C33.2899 6.68957 32.8699 7.68957 32.8599 8.74957C32.8599 9.80957 33.2499 10.8096 33.9999 11.5696C34.7399 12.3296 35.7399 12.7496 36.7999 12.7596H36.7899Z" fill="#323232"/>
<path d="M42.4991 31.1301C41.9491 31.1301 41.4991 30.6801 41.4991 30.1301V19.7101C41.4991 18.9701 40.8991 18.3701 40.1591 18.3701H33.1191C32.5691 18.3701 32.1191 17.9201 32.1191 17.3701C32.1191 16.8201 32.5691 16.3701 33.1191 16.3701H40.1591C41.9991 16.3701 43.4991 17.8701 43.4991 19.7101V30.1301C43.4991 30.6801 43.0491 31.1301 42.4991 31.1301Z" fill="#323232"/>
<path d="M36.6408 43.7903C34.5208 43.7903 32.8008 42.2503 32.8008 40.3703V29.2803C32.8008 28.7303 33.2508 28.2803 33.8008 28.2803C34.3508 28.2803 34.8008 28.7303 34.8008 29.2803V40.3703C34.8008 41.1403 35.6408 41.7903 36.6408 41.7903C37.6408 41.7903 38.4808 41.1403 38.4808 40.3703V29.2903C38.4808 28.7403 38.9308 28.2903 39.4808 28.2903C40.0308 28.2903 40.4808 28.7403 40.4808 29.2903V40.3703C40.4808 42.2603 38.7608 43.7903 36.6408 43.7903Z" fill="#323232"/>
<path d="M11.1695 14.7498C9.59947 14.7498 8.10947 14.1398 6.98947 13.0398C5.84947 11.9198 5.21947 10.4298 5.19947 8.8298C5.16947 5.5398 7.81947 2.8298 11.1195 2.7998C12.7495 2.7998 14.2195 3.3898 15.3595 4.5098C16.4995 5.62981 17.1295 7.1198 17.1495 8.7198C17.1695 10.3098 16.5595 11.8198 15.4395 12.9598C14.3195 14.0998 12.8295 14.7298 11.2295 14.7498H11.1695ZM11.1695 4.8098H11.1295C10.0695 4.8098 9.07947 5.2398 8.32947 5.9998C7.57947 6.7598 7.17947 7.7598 7.18947 8.8198C7.18947 9.8798 7.61947 10.8798 8.37947 11.6198C9.13947 12.3598 10.1195 12.7898 11.1995 12.7598C12.2595 12.7598 13.2595 12.3298 13.9995 11.5698C14.7395 10.8098 15.1495 9.8098 15.1395 8.7498C15.1395 7.6898 14.7095 6.6898 13.9495 5.9498C13.1995 5.2198 12.2095 4.8098 11.1695 4.8098Z" fill="#323232"/>
<path d="M5.5 31.1301C4.95 31.1301 4.5 30.6801 4.5 30.1301V19.7101C4.5 17.8701 6 16.3701 7.84 16.3701H14.88C15.43 16.3701 15.88 16.8201 15.88 17.3701C15.88 17.9201 15.43 18.3701 14.88 18.3701H7.84C7.1 18.3701 6.5 18.9701 6.5 19.7101V30.1301C6.5 30.6801 6.05 31.1301 5.5 31.1301Z" fill="#323232"/>
<path d="M11.3595 43.7903C9.23953 43.7903 7.51953 42.2503 7.51953 40.3703V29.2903C7.51953 28.7403 7.96953 28.2903 8.51953 28.2903C9.06953 28.2903 9.51953 28.7403 9.51953 29.2903V40.3703C9.51953 41.1603 10.3495 41.7903 11.3595 41.7903C12.3695 41.7903 13.1995 41.1403 13.1995 40.3703V29.2803C13.1995 28.7303 13.6495 28.2803 14.1995 28.2803C14.7495 28.2803 15.1995 28.7303 15.1995 29.2803V40.3703C15.1995 42.2603 13.4795 43.7903 11.3595 43.7903Z" fill="#323232"/>
<path fill-rule="evenodd" clip-rule="evenodd" d="M28.0904 29.9098C28.0904 29.9098 28.1004 29.9098 28.1104 29.9098C28.1204 29.9098 28.1304 29.9098 28.1504 29.8898C28.1604 29.8698 28.1604 29.8398 28.1504 29.8298C27.2804 28.8798 26.2104 28.1098 25.0204 27.6098L24.6504 27.4598C24.4604 27.3798 24.3404 27.1898 24.3404 26.9598C24.3604 26.1398 26.2004 26.3098 26.3904 25.9198L26.4204 25.8498C26.0404 25.5098 25.5904 25.2598 25.1004 25.1098C25.1004 25.1298 25.0804 25.2198 25.1804 25.3998C25.2904 25.5798 25.0604 25.8798 24.7304 25.5598L24.7004 25.5398C22.2604 23.2098 21.1304 24.7498 19.4804 22.0298C19.4704 22.0098 19.4404 21.9998 19.4204 22.0098C19.4004 22.0298 19.3904 22.0498 19.4004 22.0698C20.7104 25.3498 23.3804 24.6598 23.7004 27.7298C23.7104 27.8398 23.8004 27.9398 23.9004 27.9498C25.3804 28.1898 26.8304 28.8298 28.0904 29.8898" fill="#DF0000"/>
</svg>
