<svg width="48" height="48" viewBox="0 0 48 48" fill="none" xmlns="http://www.w3.org/2000/svg">
<path d="M21.7402 1.75C21.1902 1.75 20.7402 2.2 20.7402 2.75V12.67C20.7402 13.68 19.9202 14.5 18.9102 14.5H18.4902V2.75C18.4902 2.2 18.0402 1.75 17.4902 1.75C16.9402 1.75 16.4902 2.2 16.4902 2.75V14.5H16.0702C15.0602 14.5 14.2402 13.68 14.2402 12.67V2.75C14.2402 2.2 13.7902 1.75 13.2402 1.75C12.6902 1.75 12.2402 2.2 12.2402 2.75V12.67C12.2402 14.78 13.9602 16.5 16.0702 16.5H16.4902V45.25C16.4902 45.8 16.9402 46.25 17.4902 46.25C18.0402 46.25 18.4902 45.8 18.4902 45.25V16.5H18.9102C21.0202 16.5 22.7402 14.78 22.7402 12.67V2.75C22.7402 2.2 22.2902 1.75 21.7402 1.75Z" fill="#323232"/>
<path d="M34.7598 1.75C30.8298 1.75 28.0898 8.81 28.0898 15.15C28.0898 21.49 30.9498 24.39 33.7598 24.91V45.26C33.7598 45.81 34.2098 46.26 34.7598 46.26C35.3098 46.26 35.7598 45.81 35.7598 45.26V2.75C35.7598 2.2 35.3098 1.75 34.7598 1.75ZM30.0998 15.15C30.0998 10.07 31.9498 5.46 33.7698 4.14V22.87C31.5098 22.22 30.0998 19.34 30.0998 15.15Z" fill="#323232"/>
</svg>
