<svg width="48" height="48" viewBox="0 0 48 48" fill="none" xmlns="http://www.w3.org/2000/svg">
<path d="M40.21 18.93C40.59 18.66 40.95 18.36 41.28 18.03C43.82 15.49 44.49 11.6 42.93 8.35005C42.79 8.06005 42.52 7.85005 42.2 7.80005C41.88 7.75005 41.55 7.85005 41.32 8.08005L36.53 12.87L34.93 12.35L34.41 10.75L39.2 5.96005C39.43 5.73005 39.53 5.40005 39.48 5.08005C39.42 4.76005 39.22 4.49005 38.93 4.35005C35.68 2.80005 31.79 3.46005 29.25 6.00005C27.08 8.17005 26.26 11.36 27.07 14.29L13.55 27.81C10.62 27 7.41996 27.81 5.25996 29.99C2.71996 32.53 2.04996 36.42 3.60996 39.67C3.74996 39.96 4.01996 40.17 4.33996 40.22C4.65996 40.27 4.98996 40.17 5.21996 39.94L10.01 35.15L11.61 35.67L12.13 37.27L7.33996 42.06C7.10996 42.29 7.00996 42.62 7.05996 42.94C7.11996 43.26 7.31996 43.53 7.60996 43.67C8.77996 44.23 10.03 44.5 11.28 44.5C13.49 44.5 15.67 43.64 17.29 42.02C19.46 39.85 20.28 36.66 19.47 33.73L23.35 29.85C24.16 35.13 28.73 39.2 34.23 39.2C40.31 39.2 45.25 34.26 45.25 28.18C45.25 24.31 43.24 20.91 40.22 18.94L40.21 18.93ZM17.38 33.78C18.23 36.15 17.64 38.82 15.87 40.6C14.28 42.19 12 42.81 9.86996 42.35L13.97 38.25C14.24 37.98 14.33 37.59 14.21 37.23L13.34 34.56C13.24 34.26 13 34.02 12.7 33.92L10.03 33.05C9.66996 32.93 9.27996 33.03 9.00996 33.29L4.90996 37.39C4.43996 35.25 5.06996 32.98 6.65996 31.39C8.42996 29.62 11.11 29.02 13.48 29.88C13.84 30.01 14.25 29.92 14.53 29.65L28.91 15.27C29.18 15 29.28 14.59 29.14 14.22C28.29 11.85 28.88 9.18005 30.65 7.40005C32.24 5.81005 34.52 5.18005 36.65 5.65005L32.55 9.75005C32.28 10.02 32.19 10.41 32.31 10.77L33.18 13.44C33.28 13.74 33.52 13.98 33.82 14.08L36.49 14.95C36.85 15.06 37.24 14.97 37.51 14.71L41.61 10.61C42.08 12.75 41.45 15.02 39.86 16.61C39.34 17.13 38.75 17.55 38.09 17.86C36.88 17.4 35.58 17.14 34.21 17.14C28.49 17.14 23.78 21.52 23.24 27.1L17.61 32.73C17.34 33 17.24 33.41 17.38 33.78ZM34.22 37.19C29.24 37.19 25.2 33.14 25.2 28.17C25.2 23.2 29.25 19.15 34.22 19.15C39.19 19.15 43.24 23.2 43.24 28.17C43.24 33.14 39.19 37.19 34.22 37.19Z" fill="#323232"/>
<path d="M35.6293 28.17L38.4293 25.37C38.8193 24.98 38.8193 24.35 38.4293 23.96C38.0393 23.57 37.4093 23.57 37.0193 23.96L34.2193 26.76L31.4193 23.96C31.0293 23.57 30.3993 23.57 30.0093 23.96C29.6193 24.35 29.6193 24.98 30.0093 25.37L32.8093 28.17L30.0093 30.97C29.6193 31.36 29.6193 31.99 30.0093 32.38C30.2093 32.58 30.4593 32.67 30.7193 32.67C30.9793 32.67 31.2293 32.57 31.4293 32.38L34.2293 29.58L37.0293 32.38C37.2293 32.58 37.4793 32.67 37.7393 32.67C37.9993 32.67 38.2493 32.57 38.4493 32.38C38.8393 31.99 38.8393 31.36 38.4493 30.97L35.6493 28.17H35.6293Z" fill="#DF0000"/>
</svg>
