<svg width="48" height="48" viewBox="0 0 48 48" fill="none" xmlns="http://www.w3.org/2000/svg">
<path d="M19.5094 28.2099C20.3994 25.2099 17.6994 17.8699 3.85938 19.3899C4.10938 20.1799 4.37937 20.9199 4.67937 21.6199C15.0194 20.7199 18.7994 24.9399 19.5094 28.2099Z" fill="#8DE2E0"/>
<path d="M30.9998 3.83984C30.1398 4.30984 29.3498 4.77984 28.6198 5.24984C30.8098 13.4798 27.7798 18.7998 24.0898 20.2798C28.8898 20.7798 34.3498 14.6498 30.9998 3.83984Z" fill="#8DE2E0"/>
<path d="M41.6001 19.2002C38.7401 27.2702 33.2301 29.9702 29.3301 29.1102C33.0601 32.0702 40.8701 30.0402 44.2201 19.3902C43.3001 19.2902 42.4301 19.2302 41.6001 19.2002Z" fill="#8DE2E0"/>
<path d="M45.0501 18.8402C44.8901 18.5902 44.6201 18.4202 44.3201 18.3902C34.6001 17.3202 30.5401 20.6102 28.9801 22.6602C27.4701 24.6502 27.1901 26.8302 27.5601 28.3202C26.2701 30.1202 25.3101 32.4402 24.7201 35.2302C24.6201 35.7102 24.5401 36.1902 24.4601 36.6602C24.1001 29.4202 24.2601 24.7502 24.8501 21.3002C26.6901 21.2302 28.5201 20.3802 29.9701 18.8402C33.1301 15.4902 33.8701 9.77023 31.9401 3.54023C31.8501 3.25023 31.6401 3.02023 31.3601 2.91023C31.0801 2.80023 30.7701 2.81023 30.5101 2.96023C21.9101 7.61023 20.4301 12.6202 20.3201 15.1902C20.2001 17.9902 21.4801 20.1202 22.8001 20.9902C22.8301 21.0102 22.8601 21.0102 22.8901 21.0302C22.3301 24.2302 22.1601 28.1602 22.3201 33.4002C21.7401 31.7702 21.0401 30.3202 20.2301 29.0202C20.2701 28.9602 20.3201 28.9102 20.3401 28.8402C20.9301 27.3702 20.7701 24.8902 19.0801 22.6602C17.5201 20.6102 13.4601 17.3202 3.74015 18.3902C3.44015 18.4202 3.18015 18.5902 3.01015 18.8402C2.85015 19.0902 2.80015 19.4002 2.89015 19.6902C4.85015 25.9202 8.71015 30.2102 13.2201 31.1602C13.8201 31.2902 14.4201 31.3502 15.0001 31.3502C16.3601 31.3502 17.6301 31.0002 18.7001 30.3502C20.6001 33.5102 21.7901 37.8002 22.2401 43.2002H14.8401C14.2901 43.2002 13.8401 43.6502 13.8401 44.2002C13.8401 44.7502 14.2901 45.2002 14.8401 45.2002H32.8601C33.4101 45.2002 33.8601 44.7502 33.8601 44.2002C33.8601 43.6502 33.4101 43.2002 32.8601 43.2002H26.0801C26.0001 40.8402 26.0801 34.3702 28.8601 30.0102C30.0301 30.8802 31.4901 31.3502 33.0701 31.3502C33.6501 31.3502 34.2401 31.2902 34.8501 31.1602C39.3601 30.2102 43.2201 25.9202 45.1801 19.6902C45.2701 19.4002 45.2301 19.0902 45.0602 18.8402H45.0501ZM22.3301 15.2802C22.4201 13.2402 23.6101 9.31023 30.3801 5.33023C31.6601 10.3802 31.0001 14.8602 28.5301 17.4702C27.5901 18.4702 26.4501 19.0702 25.3001 19.2502C25.7501 17.5302 26.3301 16.1202 27.0401 14.7702C27.3001 14.2802 27.1101 13.6802 26.6201 13.4202C26.1301 13.1602 25.5301 13.3502 25.2701 13.8402C24.4701 15.3702 23.8401 16.9702 23.3701 18.8002C22.8001 18.1002 22.2601 16.8902 22.3301 15.2802ZM13.6501 29.2002C10.1401 28.4602 7.04015 25.1502 5.22015 20.2702C13.0601 19.6902 16.2601 22.2402 17.5001 23.8702C18.3101 24.9402 18.6101 26.0202 18.6501 26.8802C17.4101 25.4602 15.9701 24.3202 14.3401 23.4902C13.8501 23.2402 13.2501 23.4402 13.0001 23.9302C12.7501 24.4202 12.9501 25.0202 13.4401 25.2702C15.0301 26.0702 16.4101 27.2202 17.5801 28.7002C16.4901 29.3202 15.1101 29.5102 13.6501 29.2002ZM34.4301 29.2002C32.7801 29.5502 31.2201 29.2602 30.0801 28.4202C31.2001 27.2402 32.6401 26.3602 34.4601 25.9702C35.0001 25.8602 35.3401 25.3202 35.2301 24.7802C35.1201 24.2402 34.5901 23.8902 34.0401 24.0102C32.3201 24.3802 30.8001 25.1202 29.4901 26.2202C29.6301 25.5002 29.9501 24.6802 30.5701 23.8702C31.8101 22.2402 35.0101 19.6802 42.8501 20.2702C41.0301 25.1602 37.9401 28.4602 34.4201 29.2002H34.4301Z" fill="#323232"/>
</svg>
