<svg width="24" height="24" viewBox="0 0 24 24" fill="none" xmlns="http://www.w3.org/2000/svg">
<g clip-path="url(#clip0_16335_1142)">
<path d="M23.8449 13.9238C24.9068 7.382 20.4644 1.218 13.9226 0.156118C7.38083 -0.905765 1.21683 3.53658 0.154948 10.0784C-0.906935 16.6202 3.53541 22.7842 10.0772 23.846C16.619 24.9079 22.783 20.4656 23.8449 13.9238Z" fill="white"/>
<mask id="mask0_16335_1142" style="mask-type:luminance" maskUnits="userSpaceOnUse" x="-1" y="-1" width="26" height="26">
<path d="M23.8449 13.9238C24.9068 7.382 20.4644 1.218 13.9226 0.156118C7.38083 -0.905765 1.21683 3.53658 0.154948 10.0784C-0.906935 16.6202 3.53541 22.7842 10.0772 23.846C16.619 24.9079 22.783 20.4656 23.8449 13.9238Z" fill="white"/>
</mask>
<g mask="url(#mask0_16335_1142)">
<path d="M30.0007 0H-5.99927V24H30.0007V0Z" fill="white"/>
<path d="M30.0007 0H-5.99927V8.00047H30.0007V0Z" fill="black"/>
<path d="M30.0007 15.9995H-5.99927V24H30.0007V15.9995Z" fill="#007C29"/>
<path fill-rule="evenodd" clip-rule="evenodd" d="M-5.99927 0V24L9.97511 12L-5.99927 0Z" fill="#FF0000"/>
<path fill-rule="evenodd" clip-rule="evenodd" d="M17.9742 8.7915C18.1838 8.7915 18.3892 8.81247 18.5891 8.8502C17.1106 9.13668 15.994 10.4377 15.994 12.0001C15.994 13.5624 17.1106 14.8635 18.5891 15.15C18.3906 15.1891 18.1852 15.2086 17.9742 15.2086C16.2022 15.2086 14.7656 13.7721 14.7656 12.0001C14.7656 10.2281 16.2022 8.7915 17.9742 8.7915Z" fill="#FF0000"/>
<path fill-rule="evenodd" clip-rule="evenodd" d="M16.3461 11.3641H18.0007L18.5122 9.79053L19.0237 11.3641H20.6783L19.3381 12.3353L19.851 13.9102L18.5122 12.9348L17.1734 13.9102L17.6849 12.3353L16.3461 11.3641Z" fill="#FF0000"/>
</g>
</g>
<rect x="0.25" y="0.25" width="23.5" height="23.5" rx="11.75" stroke="#E5E3E1" stroke-width="0.5"/>
<defs>
<clipPath id="clip0_16335_1142">
<rect width="24" height="24" rx="12" fill="white"/>
</clipPath>
</defs>
</svg>
