<svg width="48" height="48" viewBox="0 0 48 48" fill="none" xmlns="http://www.w3.org/2000/svg">
<path d="M30.9797 11.7496V32.3296C30.9797 30.1696 29.2397 28.4296 27.0797 28.4296C24.9197 28.4296 23.1797 30.1696 23.1797 32.3296V11.7496C23.1797 9.59961 24.9297 7.84961 27.0797 7.84961C29.2297 7.84961 30.9797 9.59961 30.9797 11.7496Z" fill="#8DE2E0"/>
<path d="M40.82 10.7896H34.65C34.1 10.7896 33.65 11.2396 33.65 11.7896C33.65 12.3396 34.1 12.7896 34.65 12.7896H40.82C42.16 12.7896 43.25 13.8796 43.25 15.2196V31.5596C43.25 32.8996 42.16 33.9896 40.82 33.9896H31.98V11.7496C31.98 9.04961 29.78 6.84961 27.08 6.84961C24.71 6.84961 22.72 8.54961 22.28 10.7896H7.18C4.74 10.7896 2.75 12.7796 2.75 15.2196V36.7196C2.75 39.1596 4.74 41.1496 7.18 41.1496H40.82C43.26 41.1496 45.25 39.1596 45.25 36.7196V15.2196C45.25 12.7796 43.26 10.7896 40.82 10.7896ZM24.18 11.7496C24.18 10.1496 25.48 8.84961 27.08 8.84961C28.68 8.84961 29.98 10.1496 29.98 11.7496V28.3796C29.17 27.7796 28.16 27.4296 27.08 27.4296C26 27.4296 24.99 27.7796 24.18 28.3796V11.7496ZM23.18 33.3196C23.73 33.3196 24.18 32.8696 24.18 32.3196C24.18 30.7196 25.48 29.4196 27.08 29.4196C28.68 29.4196 29.98 30.7196 29.98 32.3196V33.9896H20.58L13.87 27.2796L22.17 18.9796V32.3296C22.17 32.8796 22.62 33.3296 23.17 33.3296L23.18 33.3196ZM17.76 33.9896H7.18C7.18 33.9896 7.18 33.9896 7.17 33.9896L12.46 28.6996L17.75 33.9896H17.76ZM22.18 12.7896V16.1496L5.28 33.0496C4.96 32.6396 4.75 32.1196 4.75 31.5596V29.8596L21.82 12.7896H22.18ZM4.75 15.2196C4.75 13.8796 5.84 12.7896 7.18 12.7896H12.21L4.75 20.2496V15.2196ZM4.75 23.0796L15.04 12.7896H18.99L4.75 27.0296V23.0796ZM40.82 39.1496H7.18C5.84 39.1496 4.75 38.0596 4.75 36.7196V35.2596C5.45 35.7196 6.28 35.9896 7.18 35.9896H40.82C41.72 35.9896 42.55 35.7196 43.25 35.2596V36.7196C43.25 38.0596 42.16 39.1496 40.82 39.1496Z" fill="#323232"/>
</svg>
