<svg width="48" height="48" viewBox="0 0 48 48" fill="none" xmlns="http://www.w3.org/2000/svg">
<path d="M10.4298 41.5003H38.0198L38.9698 35.8203H9.33984L10.4298 41.5003Z" fill="#8DE2E0"/>
<path d="M38.0191 42.5001H10.4291C9.93914 42.5001 9.51914 42.1501 9.43914 41.6601L5.95914 20.4601C5.89914 20.0601 6.06914 19.6701 6.40914 19.4501C6.74914 19.2401 7.17914 19.2501 7.50914 19.4701L14.3891 24.2401L23.2391 14.2101C23.4291 14.0001 23.6991 13.8701 23.9791 13.8701C24.2491 13.8901 24.5291 13.9901 24.7291 14.1901L34.1591 24.4901L40.4091 19.5101C40.7291 19.2501 41.1691 19.2201 41.5291 19.4201C41.8891 19.6201 42.0791 20.0201 42.0191 20.4301L38.9791 41.6301C38.9091 42.1201 38.4891 42.4901 37.9891 42.4901L38.0191 42.5001ZM11.2791 40.5001H37.1491L39.7091 22.6601L34.6991 26.6601C34.2891 26.9901 33.6891 26.9401 33.3391 26.5501L24.0291 16.3801L15.3291 26.2401C14.9891 26.6201 14.4291 26.6901 14.0091 26.4001L8.32914 22.4701L11.2891 40.5001H11.2791Z" fill="#323232"/>
<path d="M24.0008 13.4098C21.8208 13.4098 20.0508 11.6398 20.0508 9.45977C20.0508 7.27977 21.8208 5.50977 24.0008 5.50977C26.1808 5.50977 27.9508 7.27977 27.9508 9.45977C27.9508 11.6398 26.1808 13.4098 24.0008 13.4098ZM24.0008 7.49977C22.9208 7.49977 22.0508 8.37977 22.0508 9.44977C22.0508 10.5198 22.9308 11.3998 24.0008 11.3998C25.0708 11.3998 25.9508 10.5198 25.9508 9.44977C25.9508 8.37977 25.0708 7.49977 24.0008 7.49977Z" fill="#323232"/>
<path d="M42.2996 18.8297C40.1196 18.8297 38.3496 17.0597 38.3496 14.8797C38.3496 12.6997 40.1196 10.9297 42.2996 10.9297C44.4796 10.9297 46.2496 12.6997 46.2496 14.8797C46.2496 17.0597 44.4796 18.8297 42.2996 18.8297ZM42.2996 12.9297C41.2196 12.9297 40.3496 13.8097 40.3496 14.8797C40.3496 15.9497 41.2296 16.8297 42.2996 16.8297C43.3696 16.8297 44.2496 15.9497 44.2496 14.8797C44.2496 13.8097 43.3696 12.9297 42.2996 12.9297Z" fill="#323232"/>
<path d="M5.7 18.8297C3.52 18.8297 1.75 17.0597 1.75 14.8797C1.75 12.6997 3.52 10.9297 5.7 10.9297C7.88 10.9297 9.65 12.6997 9.65 14.8797C9.65 17.0597 7.88 18.8297 5.7 18.8297ZM5.7 12.9297C4.62 12.9297 3.75 13.8097 3.75 14.8797C3.75 15.9497 4.63 16.8297 5.7 16.8297C6.77 16.8297 7.65 15.9497 7.65 14.8797C7.65 13.8097 6.77 12.9297 5.7 12.9297Z" fill="#323232"/>
</svg>
