<svg width="24" height="24" viewBox="0 0 24 24" fill="none" xmlns="http://www.w3.org/2000/svg">
<g clip-path="url(#clip0_16335_6226)">
<path d="M20.4851 20.4853C25.1714 15.799 25.1714 8.20101 20.4851 3.51472C15.7988 -1.17157 8.20081 -1.17157 3.51452 3.51472C-1.17177 8.20101 -1.17177 15.799 3.51452 20.4853C8.20081 25.1716 15.7988 25.1716 20.4851 20.4853Z" fill="white"/>
<mask id="mask0_16335_6226" style="mask-type:luminance" maskUnits="userSpaceOnUse" x="-1" y="0" width="25" height="24">
<path d="M20.4851 20.4853C25.1714 15.799 25.1714 8.20101 20.4851 3.51472C15.7988 -1.17157 8.20081 -1.17157 3.51452 3.51472C-1.17177 8.20101 -1.17177 15.799 3.51452 20.4853C8.20081 25.1716 15.7988 25.1716 20.4851 20.4853Z" fill="white"/>
</mask>
<g mask="url(#mask0_16335_6226)">
<path d="M29.5563 1.48126H0V21.1855H29.5563V1.48126Z" fill="white"/>
<path fill-rule="evenodd" clip-rule="evenodd" d="M29.5563 22.5927H0V21.1855H29.5563V22.5927ZM29.5563 5.70442H0V4.29718H29.5563V5.70442ZM29.5563 8.51891H0V7.11167H29.5563V8.51891ZM29.5563 11.3334H0V9.92615H29.5563V11.3334ZM29.5563 14.1479H0V12.7406H29.5563V14.1479ZM29.5563 16.9638H0V15.5565H29.5563V16.9638ZM29.5563 19.7783H0V18.371H29.5563V19.7783Z" fill="#FF0000"/>
<path d="M19.6651 0.0740356H0V12.7406H19.6651V0.0740356Z" fill="#003399"/>
<path fill-rule="evenodd" clip-rule="evenodd" d="M8.10107 2.8913C9.022 2.8913 9.87305 3.18616 10.5676 3.68645C10.098 3.47404 9.57539 3.35665 9.02619 3.35665C6.95236 3.35665 5.27121 5.0378 5.27121 7.11163C5.27121 9.18546 6.95236 10.8666 9.02619 10.8666C9.57539 10.8666 10.0966 10.7492 10.5676 10.5368C9.87445 11.0371 9.022 11.332 8.10107 11.332C5.77011 11.332 3.88074 9.4426 3.88074 7.11163C3.88074 4.78066 5.77011 2.8913 8.10107 2.8913Z" fill="#FED700"/>
<path fill-rule="evenodd" clip-rule="evenodd" d="M12.3116 3.62079L12.6359 5.69322L13.8251 3.96596L13.2186 5.97272L15.0381 4.933L13.6197 6.48139L15.7648 6.3137L13.7594 7.11165L15.7648 7.9096L13.6197 7.7419L15.0381 9.28889L13.2186 8.24918L13.8251 10.2559L12.6359 8.53007L12.3116 10.6011L11.9888 8.53007L10.7996 10.2559L11.4061 8.24918L9.5852 9.28889L11.0036 7.7419L8.85852 7.9096L10.8639 7.11165L8.85852 6.3137L11.0036 6.48139L9.5852 4.933L11.4061 5.97272L10.7996 3.96596L11.9888 5.69322L12.3116 3.62079Z" fill="#FED700"/>
</g>
</g>
<rect x="0.25" y="0.25" width="23.5" height="23.5" rx="11.75" stroke="#E5E3E1" stroke-width="0.5"/>
<defs>
<clipPath id="clip0_16335_6226">
<rect width="24" height="24" rx="12" fill="white"/>
</clipPath>
</defs>
</svg>
