<svg width="48" height="48" viewBox="0 0 48 48" fill="none" xmlns="http://www.w3.org/2000/svg">
<path d="M44.2398 39.3199C43.9798 39.3199 43.7298 39.2199 43.5298 39.0299L33.6298 29.1299C31.6098 30.8299 29.0098 31.8499 26.1798 31.8499C19.7898 31.8499 14.5898 26.6499 14.5898 20.2599C14.5898 13.8699 19.7898 8.66992 26.1798 8.66992C32.5698 8.66992 37.7698 13.8699 37.7698 20.2599C37.7698 23.0899 36.7498 25.6999 35.0498 27.7099L44.9498 37.6099C45.3398 37.9999 45.3398 38.6299 44.9498 39.0199C44.7498 39.2199 44.4998 39.3099 44.2398 39.3099V39.3199ZM26.1798 10.6799C20.8898 10.6799 16.5898 14.9799 16.5898 20.2699C16.5898 25.5599 20.8898 29.8599 26.1798 29.8599C31.4698 29.8599 35.7698 25.5599 35.7698 20.2699C35.7698 14.9799 31.4698 10.6799 26.1798 10.6799Z" fill="#323232"/>
<path fill-rule="evenodd" clip-rule="evenodd" d="M23.1992 27.15C27.3292 25.93 30.3492 22.11 30.3492 17.58C30.3492 16.14 30.0492 14.77 29.4992 13.54C31.9792 14.76 33.6892 17.32 33.6892 20.27C33.6892 24.41 30.3292 27.77 26.1892 27.77C25.1292 27.77 24.1192 27.55 23.2092 27.16" fill="#8DE2E0"/>
<path d="M18.5398 36.9502H3.75977C3.20977 36.9502 2.75977 36.5002 2.75977 35.9502C2.75977 35.4002 3.20977 34.9502 3.75977 34.9502H18.5398C19.0898 34.9502 19.5398 35.4002 19.5398 35.9502C19.5398 36.5002 19.0898 36.9502 18.5398 36.9502ZM12.5598 29.1302H3.75977C3.20977 29.1302 2.75977 28.6802 2.75977 28.1302C2.75977 27.5802 3.20977 27.1302 3.75977 27.1302H12.5598C13.1098 27.1302 13.5598 27.5802 13.5598 28.1302C13.5598 28.6802 13.1098 29.1302 12.5598 29.1302ZM10.7498 21.3102H3.75977C3.20977 21.3102 2.75977 20.8602 2.75977 20.3102C2.75977 19.7602 3.20977 19.3102 3.75977 19.3102H10.7498C11.2998 19.3102 11.7498 19.7602 11.7498 20.3102C11.7498 20.8602 11.2998 21.3102 10.7498 21.3102ZM12.5598 13.4902H3.75977C3.20977 13.4902 2.75977 13.0402 2.75977 12.4902C2.75977 11.9402 3.20977 11.4902 3.75977 11.4902H12.5598C13.1098 11.4902 13.5598 11.9402 13.5598 12.4902C13.5598 13.0402 13.1098 13.4902 12.5598 13.4902Z" fill="#323232"/>
</svg>
