<svg width="24" height="24" viewBox="0 0 24 24" fill="none" xmlns="http://www.w3.org/2000/svg">
<path fill-rule="evenodd" clip-rule="evenodd" d="M7.67418 7.85194L7.75737 7.75774C8.11785 7.39725 8.68509 7.36952 9.07738 7.67455L9.17158 7.75774L12 10.5864L14.8284 7.75774C15.1889 7.39725 15.7562 7.36952 16.1484 7.67455L16.2427 7.75774C16.6031 8.11822 16.6309 8.68545 16.3258 9.07774L16.2427 9.17195L13.414 12.0004L16.2427 14.8288C16.6031 15.1893 16.6309 15.7565 16.3258 16.1488L16.2427 16.243C15.8822 16.6035 15.3149 16.6312 14.9226 16.3262L14.8284 16.243L12 13.4144L9.17158 16.243C8.8111 16.6035 8.24387 16.6312 7.85158 16.3262L7.75737 16.243C7.39689 15.8825 7.36916 15.3153 7.67418 14.923L7.75737 14.8288L10.586 12.0004L7.75737 9.17195C7.39689 8.81147 7.36916 8.24424 7.67418 7.85194L7.75737 7.75774L7.67418 7.85194Z" fill="#323232"/>
</svg>
