<svg width="48" height="48" viewBox="0 0 48 48" fill="none" xmlns="http://www.w3.org/2000/svg">
<path d="M26.7305 30.0803C26.1805 30.0803 25.7305 29.6303 25.7305 29.0803V16.0703C25.7305 15.5203 26.1805 15.0703 26.7305 15.0703C27.2805 15.0703 27.7305 15.5203 27.7305 16.0703V29.0803C27.7305 29.6303 27.2805 30.0803 26.7305 30.0803Z" fill="#DF0000"/>
<path d="M36.9705 23.3896H26.7305C26.1805 23.3896 25.7305 22.9396 25.7305 22.3896C25.7305 21.8396 26.1805 21.3896 26.7305 21.3896H36.9705C37.5205 21.3896 37.9705 21.8396 37.9705 22.3896C37.9705 22.9396 37.5205 23.3896 36.9705 23.3896Z" fill="#DF0000"/>
<path d="M30.3991 15.1398C30.1391 15.1398 29.8891 15.0398 29.6891 14.8498L23.8891 9.0498H18.3691C17.8191 9.0498 17.3691 8.5998 17.3691 8.0498C17.3691 7.4998 17.8191 7.0498 18.3691 7.0498H24.2991C24.5691 7.0498 24.8191 7.1598 25.0091 7.3398L31.0991 13.4298C31.4891 13.8198 31.4891 14.4498 31.0991 14.8398C30.8991 15.0398 30.6491 15.1298 30.3891 15.1298L30.3991 15.1398Z" fill="#DF0000"/>
<path d="M34.3002 40.9495H32.6002C30.8502 40.9495 29.1502 38.7395 28.8302 38.2995C28.7102 38.1295 28.6402 37.9195 28.6402 37.7095V29.7595C27.5702 30.0795 25.9702 30.2795 23.8502 29.8295C18.2402 28.6395 14.8102 26.4795 14.6702 26.3895C14.2102 26.0895 14.0702 25.4795 14.3602 25.0095C14.6502 24.5395 15.2702 24.4095 15.7402 24.6995C15.7702 24.7195 19.0402 26.7595 24.2702 27.8795C27.4502 28.5595 28.9802 27.4695 29.0402 27.4295C29.3402 27.2095 29.7502 27.1695 30.0902 27.3395C30.4302 27.5095 30.6402 27.8495 30.6402 28.2295V37.3795C31.2802 38.1695 32.1802 38.9595 32.6102 38.9595H34.3102C34.0602 38.6795 33.8102 38.4595 33.5502 38.2295C32.8702 37.6195 32.0902 36.9295 32.0502 34.9295C32.0202 33.4895 32.2102 32.3695 32.3902 31.2895C32.5802 30.1495 32.7602 29.0795 32.7202 27.5995C32.7002 27.0495 33.1402 26.5895 33.6902 26.5695C34.2502 26.5295 34.7002 26.9895 34.7202 27.5395C34.7702 29.2195 34.5702 30.4395 34.3702 31.6295C34.2002 32.6695 34.0302 33.6495 34.0602 34.8995C34.0802 36.0295 34.3502 36.2695 34.8902 36.7495C35.2002 37.0195 35.5802 37.3695 35.9402 37.8895C36.3602 38.4895 36.4102 39.2695 36.0702 39.9295C35.7302 40.5795 35.0602 40.9895 34.3202 40.9895L34.3002 40.9495Z" fill="#323232"/>
<path d="M9.21011 40.9498H7.31011C5.73011 40.9498 4.44011 39.6598 4.44011 38.0798V32.9798C4.44011 32.7598 4.52011 32.5398 4.65011 32.3598L7.09011 29.2598C7.14011 29.1898 7.35011 28.8698 6.97011 28.1498C6.87011 27.9498 6.78011 27.7498 6.71011 27.5498C5.54011 28.9698 4.10011 30.2998 2.63011 30.5798C2.25011 30.6598 1.86011 30.4998 1.63011 30.1898C1.40011 29.8798 1.37011 29.4598 1.55011 29.1198C1.57011 29.0898 3.35011 25.7598 4.31011 22.9598C5.29011 20.1198 8.23011 15.3198 13.0801 15.3198H23.7601C26.7201 15.3198 28.6601 14.8198 31.0001 12.0898C31.4401 11.5798 31.8401 11.1098 32.2001 10.6798C34.2001 8.30978 35.2001 7.12978 36.6101 7.07978C39.4601 6.98978 41.1201 7.42978 41.8601 8.46978C42.5001 9.35978 43.3201 10.1498 43.9601 10.4698C44.1801 10.5798 44.4101 10.6798 44.6201 10.7698C45.4301 11.1198 46.6601 11.6398 46.5201 12.9798C46.2901 15.1898 45.0301 16.5098 43.1401 16.5098H40.2501C40.2001 16.5098 40.1401 16.5098 40.0901 16.4998C39.8001 16.4598 39.4401 16.5098 39.3701 16.5898C39.3301 16.7198 39.2701 17.0798 39.2201 17.4298C38.8901 19.5398 38.1001 24.4798 34.3901 28.2298C34.0001 28.6198 33.3701 28.6298 32.9801 28.2298C32.5901 27.8398 32.5801 27.2098 32.9801 26.8198C36.2301 23.5298 36.9201 19.1998 37.2501 17.1198C37.3301 16.6098 37.3801 16.2698 37.4601 16.0198C37.8501 14.7598 39.2101 14.3698 40.3301 14.5198H43.1501C43.4701 14.5198 44.3101 14.5198 44.5201 12.9298C44.3601 12.8298 44.0601 12.6998 43.8401 12.6098C43.5801 12.4998 43.3201 12.3898 43.0501 12.2498C42.1201 11.7798 41.0701 10.7998 40.2301 9.62978C40.2101 9.59978 39.7301 8.97978 36.6701 9.06978C36.1501 9.08978 35.0801 10.3498 33.7301 11.9598C33.3601 12.3898 32.9601 12.8698 32.5201 13.3898C29.7001 16.6698 27.1701 17.3198 23.7601 17.3198H13.0801C9.35011 17.3198 6.95011 21.4298 6.20011 23.6098C5.90011 24.4998 5.52011 25.4198 5.14011 26.2798C5.97011 25.2698 6.75011 24.0998 7.29011 23.1398C7.41011 22.9098 7.49011 22.7698 7.51011 22.7498C7.80011 22.2898 8.40011 22.1498 8.86011 22.4198C9.33011 22.6898 9.49011 23.2798 9.24011 23.7598C9.20011 23.8298 9.13011 23.9598 9.03011 24.1298C8.67011 24.8498 8.20011 26.2198 8.72011 27.1998C9.59011 28.8298 9.04011 30.0798 8.58011 30.5598L6.42011 33.3098V38.0598C6.42011 38.5398 6.81011 38.9298 7.29011 38.9298H8.21011C7.40011 38.1198 7.51011 36.6398 7.58011 35.6198C7.60011 35.3998 7.61011 35.2098 7.61011 35.0598C7.61011 34.0998 8.59011 33.3198 10.4601 31.9198C11.1301 31.4198 11.8201 30.8998 12.1701 30.5498C14.7901 27.8498 14.1301 25.0798 14.1001 24.9598C13.9601 24.4298 14.2801 23.8798 14.8101 23.7398C15.3401 23.5998 15.8801 23.9098 16.0301 24.4398C16.0701 24.5998 17.0501 28.3898 13.6001 31.9398C13.1501 32.4098 12.4301 32.9498 11.6601 33.5198C10.9901 34.0198 9.89011 34.8498 9.61011 35.2298C9.61011 35.3898 9.59011 35.5698 9.58011 35.7698C9.55011 36.1798 9.47011 37.2698 9.65011 37.5398C10.5001 37.9998 11.0201 38.9698 10.8001 39.8098C10.6601 40.3598 10.1601 40.9398 9.19011 40.9398L9.21011 40.9498Z" fill="#323232"/>
<path d="M37.7093 14.9402C37.5393 14.9402 37.3593 14.9102 37.1893 14.8502C34.9493 14.1202 34.5093 11.8202 34.4893 11.7302C34.3893 11.1902 34.7493 10.6702 35.2993 10.5702C35.8493 10.4702 36.3593 10.8302 36.4593 11.3702C36.4693 11.4302 36.6693 12.3702 37.4893 12.8202C37.5993 12.4202 37.6693 11.6902 37.6493 11.0502C37.6293 10.5002 38.0593 10.0302 38.6093 10.0102C39.1593 9.98024 39.6193 10.4202 39.6493 10.9702C39.6793 11.8102 39.6493 13.8602 38.6393 14.6202C38.3693 14.8302 38.0493 14.9302 37.7193 14.9302L37.7093 14.9402Z" fill="#323232"/>
<path d="M32.7097 23.3901C32.4497 23.3901 32.1997 23.2901 31.9997 23.1001L17.6597 8.76012C17.2697 8.37012 17.2697 7.74012 17.6597 7.35012C18.0497 6.96012 18.6797 6.96012 19.0697 7.35012L33.4097 21.6901C33.7997 22.0801 33.7997 22.7101 33.4097 23.1001C33.2097 23.3001 32.9597 23.3901 32.6997 23.3901H32.7097Z" fill="#DF0000"/>
</svg>
