<svg width="48" height="48" viewBox="0 0 48 48" fill="none" xmlns="http://www.w3.org/2000/svg">
<path d="M35.9096 27.96V37.54C35.9096 39.63 34.2196 41.33 32.1296 41.33H22.8496L35.9096 27.96Z" fill="#8DE2E0"/>
<path d="M33.6391 45.13H8.93914C5.59914 45.13 2.86914 42.41 2.86914 39.06V14.36C2.86914 11.02 5.58914 8.29004 8.93914 8.29004H21.5591C22.1091 8.29004 22.5591 8.74004 22.5591 9.29004C22.5591 9.84004 22.1091 10.29 21.5591 10.29H8.93914C6.69914 10.29 4.86914 12.11 4.86914 14.36V39.06C4.86914 41.3 6.68914 43.13 8.93914 43.13H33.6391C35.8791 43.13 37.7091 41.31 37.7091 39.06V20.09C37.7091 19.54 38.1591 19.09 38.7091 19.09C39.2591 19.09 39.7091 19.54 39.7091 20.09V39.06C39.7091 42.41 36.9891 45.13 33.6391 45.13Z" fill="#323232"/>
<path d="M11.7004 37.3099C11.4404 37.3099 11.1804 37.2099 10.9904 37.0199C10.7104 36.7399 10.6204 36.3299 10.7604 35.9599L13.3904 29.0299C13.4104 28.9799 13.4304 28.9299 13.4604 28.8799C13.5004 28.7999 13.5604 28.7199 13.6304 28.6599L30.0104 12.2699L36.4504 5.81988L36.1404 5.50988C35.3904 4.75988 34.0804 4.75988 33.3304 5.50988L25.4804 13.3599C25.0904 13.7499 24.4604 13.7499 24.0704 13.3599C23.6804 12.9699 23.6804 12.3399 24.0704 11.9499L31.9204 4.09988C33.4804 2.54988 36.0104 2.53988 37.5604 4.09988L37.8704 4.40988L38.2204 4.05988C38.9804 3.29988 40.0004 2.87988 41.0804 2.87988C42.1604 2.87988 43.1804 3.29988 43.9404 4.06988C44.7004 4.82988 45.1304 5.84988 45.1204 6.92988C45.1104 8.00988 44.7004 9.02988 43.9304 9.78988L19.3404 34.3799C19.2404 34.4799 19.1204 34.5499 18.9904 34.5899L12.0704 37.2299C11.9504 37.2699 11.8304 37.2999 11.7104 37.2999L11.7004 37.3099ZM14.7204 31.1599L13.4204 34.5899L16.8404 33.2899L14.7204 31.1699V31.1599ZM15.7504 29.3599L18.6404 32.2499L33.6104 17.2799L30.7204 14.3899L15.7504 29.3599ZM32.1304 12.9799L35.0204 15.8699L42.5204 8.36988C42.9104 7.97988 43.1304 7.45988 43.1304 6.91988C43.1304 6.37988 42.9204 5.85988 42.5304 5.46988C42.1404 5.07988 41.6304 4.86988 41.0804 4.86988C40.5304 4.86988 40.0204 5.07988 39.6304 5.46988L38.6204 6.47988C38.6204 6.47988 38.5904 6.50988 38.5704 6.52988C38.5504 6.54988 38.5404 6.55988 38.5204 6.57988L32.1204 12.9799H32.1304Z" fill="#323232"/>
</svg>
