<svg width="48" height="48" viewBox="0 0 48 48" fill="none" xmlns="http://www.w3.org/2000/svg">
<path d="M35.24 38.5501C35.92 38.5501 36.45 39.0801 36.45 39.7601C36.45 40.4401 35.92 40.9601 35.24 40.9601C34.56 40.9601 34.04 40.4301 34.04 39.7601C34.04 39.0901 34.57 38.5501 35.24 38.5501ZM35.87 37.5901H34.62L34.18 32.4101V29.5601H36.3V32.4101L35.87 37.5901Z" fill="#DF0000"/>
<path d="M35.2501 24.7399C33.9401 24.7399 32.6901 24.9899 31.5301 25.4199L30.2901 15.7599L37.4101 8.63992C38.9601 7.08992 38.9601 4.56992 37.4101 3.01992C35.8601 1.46992 33.3401 1.46992 31.7901 3.01992L24.6801 10.1399L7.59007 7.95992C6.39007 7.80992 5.16007 8.22992 4.31007 9.07992L3.53007 9.85992C3.08007 10.2999 2.88007 10.9399 2.97007 11.5599C3.07007 12.1799 3.46007 12.7299 4.02007 13.0099L15.7601 19.0399L11.0401 23.7599L5.44007 22.9699C4.67007 22.8599 3.89007 23.1299 3.34007 23.6799L2.45007 24.5799C2.11007 24.9299 1.96007 25.4199 2.05007 25.8999C2.15007 26.3799 2.47007 26.7799 2.92007 26.9699L10.2901 30.0899L13.4301 37.4899C13.6201 37.9399 14.0201 38.2699 14.5001 38.3599C14.6001 38.3799 14.6901 38.3899 14.7901 38.3899C15.1701 38.3899 15.5501 38.2399 15.8301 37.9699L16.7301 37.0799C17.2801 36.5299 17.5501 35.7499 17.4401 34.9799L16.6501 29.3799L21.3301 24.6599L25.1001 31.9699C24.7201 33.0599 24.5101 34.2299 24.5101 35.4499C24.5101 41.3499 29.3101 46.1599 35.2201 46.1599C41.1301 46.1599 45.9301 41.3599 45.9301 35.4499C45.9301 29.5399 41.1301 24.7399 35.2201 24.7399H35.2501ZM23.1401 23.7399C22.8501 23.1799 22.3101 22.7899 21.6901 22.6899C21.0701 22.5899 20.4301 22.7999 19.9901 23.2499L15.0801 28.1599C14.7601 28.4799 14.6001 28.9499 14.6701 29.3999L15.4901 35.2599C15.5101 35.4099 15.4601 35.5499 15.3601 35.6599L15.0101 35.9999L12.1701 29.3199C11.9701 28.8499 11.6001 28.4799 11.1001 28.2699L4.44007 25.4399L4.79007 25.0899C4.89007 24.9799 5.04007 24.9399 5.19007 24.9599L11.0601 25.7899C11.5101 25.8499 11.9701 25.6999 12.2901 25.3699L17.2001 20.4599C17.6501 20.0099 17.8501 19.3799 17.7601 18.7599C17.6601 18.1399 17.2701 17.5899 16.7101 17.3099L4.97007 11.2899L5.75007 10.5099C6.17007 10.0899 6.77007 9.87992 7.36007 9.95992L24.4601 12.1299C25.0601 12.1999 25.6801 11.9999 26.1101 11.5699L33.2301 4.44992C34.0001 3.67992 35.2501 3.67992 36.0201 4.44992C36.7901 5.21992 36.7901 6.46992 36.0201 7.23992L28.9001 14.3599C28.4601 14.7999 28.2601 15.3999 28.3401 16.0099L29.6601 26.3599C28.2801 27.2099 27.1201 28.3599 26.2501 29.7299L23.1701 23.7499L23.1401 23.7399ZM35.2501 44.1499C30.4501 44.1499 26.5401 40.2399 26.5401 35.4399C26.5401 30.6399 30.4501 26.7299 35.2501 26.7299C40.0501 26.7299 43.9601 30.6399 43.9601 35.4399C43.9601 40.2399 40.0501 44.1499 35.2501 44.1499Z" fill="#323232"/>
</svg>
