<svg width="48" height="48" viewBox="0 0 48 48" fill="none" xmlns="http://www.w3.org/2000/svg">
<path d="M26.7701 39.8498C26.3001 39.8498 25.8801 39.5098 25.7901 39.0298C25.6901 38.4898 26.0501 37.9698 26.5901 37.8598C27.0801 37.7698 27.5601 37.6498 28.0401 37.5098C28.5701 37.3498 29.1301 37.6498 29.2801 38.1798C29.4401 38.7098 29.1401 39.2698 28.6101 39.4198C28.0701 39.5798 27.5101 39.7198 26.9501 39.8198C26.8901 39.8298 26.8301 39.8398 26.7701 39.8398V39.8498Z" fill="#DF0000"/>
<path d="M23.5906 40.0999C23.5906 40.0999 23.5706 40.0999 23.5606 40.0999C23.1206 40.0899 22.6706 40.0599 22.2306 40.0099C21.4306 39.9199 20.6406 39.7699 19.8706 39.5699C19.3406 39.4299 19.0206 38.8799 19.1606 38.3499C19.3006 37.8199 19.8506 37.4999 20.3806 37.6399C21.0506 37.8199 21.7506 37.9499 22.4506 38.0299C22.8406 38.0699 23.2306 38.0999 23.6206 38.1099C24.1706 38.1299 24.6106 38.5899 24.5906 39.1399C24.5706 39.6799 24.1306 40.1099 23.5906 40.1099V40.0999ZM17.1406 38.4599C16.9906 38.4599 16.8306 38.4299 16.6906 38.3499C15.5806 37.7899 14.5306 37.0899 13.5806 36.2799C13.1606 35.9199 13.1106 35.2899 13.4706 34.8699C13.8306 34.4499 14.4606 34.3999 14.8806 34.7599C15.7106 35.4699 16.6306 36.0799 17.6006 36.5699C18.0906 36.8199 18.2906 37.4199 18.0406 37.9099C17.8606 38.2599 17.5106 38.4599 17.1506 38.4599H17.1406ZM12.0306 34.2099C11.7306 34.2099 11.4306 34.0799 11.2406 33.8199C10.4806 32.8299 9.83062 31.7499 9.32062 30.6199C9.09062 30.1199 9.32062 29.5199 9.82062 29.2999C10.3206 29.0699 10.9206 29.2999 11.1406 29.7999C11.5906 30.7899 12.1606 31.7399 12.8206 32.5999C13.1606 33.0399 13.0806 33.6699 12.6406 33.9999C12.4606 34.1399 12.2406 34.2099 12.0306 34.2099ZM9.23062 28.1799C8.77062 28.1799 8.35063 27.8599 8.25063 27.3899C8.01063 26.2899 7.89062 25.1499 7.89062 24.0099V23.6699C7.91062 23.1199 8.36063 22.6599 8.92063 22.6899C9.47063 22.6999 9.91062 23.1599 9.90062 23.7099V24.0099C9.90062 24.9999 10.0006 25.9999 10.2106 26.9699C10.3306 27.5099 9.98062 28.0399 9.44062 28.1599C9.37062 28.1799 9.30062 28.1799 9.23062 28.1799Z" fill="#DF0000"/>
<path d="M9.30104 21.5199C9.22104 21.5199 9.15104 21.5199 9.07104 21.4899C8.53104 21.3599 8.20104 20.8199 8.33104 20.2899C8.46104 19.7399 8.62104 19.1899 8.81104 18.6499C8.99104 18.1299 9.56104 17.8499 10.081 18.0399C10.601 18.2199 10.881 18.7899 10.691 19.3099C10.531 19.7799 10.391 20.2599 10.271 20.7399C10.161 21.1999 9.75104 21.5099 9.30104 21.5099V21.5199Z" fill="#DF0000"/>
<path d="M19.5193 10.57C19.0893 10.57 18.6993 10.29 18.5693 9.86998C18.4093 9.33998 18.6993 8.77998 19.2293 8.61998C19.7693 8.44998 20.3293 8.30998 20.8793 8.19998C21.4193 8.08998 21.9493 8.44998 22.0493 8.98998C22.1493 9.52998 21.7993 10.06 21.2593 10.16C20.7793 10.26 20.2893 10.38 19.8093 10.53C19.7093 10.56 19.6093 10.58 19.5093 10.58L19.5193 10.57Z" fill="#DF0000"/>
<path d="M39.0997 25.2999H39.0797C38.5297 25.2899 38.0897 24.8299 38.0997 24.2799V23.9899C38.0997 22.9899 37.9997 21.9899 37.7797 21.0099C37.6597 20.4699 38.0097 19.9399 38.5397 19.8199C39.0797 19.6999 39.6097 20.0399 39.7297 20.5799C39.9697 21.6899 40.0997 22.8399 40.0997 23.9799V24.3199C40.0797 24.8599 39.6397 25.2999 39.0997 25.2999ZM37.7497 18.7499C37.3697 18.7499 37.0097 18.5299 36.8397 18.1599C36.3897 17.1599 35.8097 16.2099 35.1397 15.3499C34.7997 14.9099 34.8797 14.2899 35.3197 13.9499C35.7597 13.6099 36.3797 13.6899 36.7197 14.1299C37.4897 15.1199 38.1397 16.1999 38.6597 17.3399C38.8897 17.8399 38.6597 18.4399 38.1597 18.6599C38.0297 18.7199 37.8797 18.7499 37.7497 18.7499ZM33.7097 13.4299C33.4797 13.4299 33.2497 13.3499 33.0697 13.1999C32.2297 12.4899 31.2997 11.8799 30.3197 11.3899C29.8297 11.1399 29.6297 10.5399 29.8697 10.0499C30.1197 9.5599 30.7197 9.3499 31.2097 9.5999C32.3297 10.1599 33.3897 10.8599 34.3497 11.6599C34.7697 12.0199 34.8297 12.6499 34.4697 13.0699C34.2697 13.3099 33.9897 13.4299 33.6997 13.4299H33.7097ZM27.7597 10.3699C27.6797 10.3699 27.5997 10.3699 27.5097 10.3399C26.8697 10.1799 26.2097 10.0599 25.5497 9.9799C25.1097 9.9299 24.6797 9.8999 24.2497 9.8999C23.6997 9.8899 23.2597 9.4299 23.2697 8.8799C23.2797 8.3299 23.7497 7.9099 24.2897 7.8999C24.7797 7.8999 25.2797 7.9399 25.7697 7.9999C26.5197 8.0799 27.2697 8.2199 27.9997 8.4099C28.5397 8.5499 28.8597 9.0899 28.7197 9.6299C28.5997 10.0799 28.1997 10.3799 27.7497 10.3799L27.7597 10.3699Z" fill="#DF0000"/>
<path d="M38.2497 30.02C38.1397 30.02 38.0297 30 37.9197 29.96C37.3997 29.78 37.1197 29.21 37.3097 28.69C37.4697 28.22 37.6197 27.74 37.7297 27.26C37.8597 26.72 38.3997 26.39 38.9297 26.52C39.4697 26.65 39.7997 27.19 39.6697 27.72C39.5397 28.27 39.3797 28.82 39.1897 29.35C39.0497 29.76 38.6597 30.02 38.2497 30.02Z" fill="#DF0000"/>
<path d="M38.5895 46.0001C38.2695 46.0001 37.9595 45.8801 37.7195 45.6501L37.2795 45.2101C36.8995 44.8301 36.7095 44.2901 36.7895 43.7501L37.1395 41.2601L35.5095 39.6301L32.8695 44.7501C32.6495 45.1701 32.2495 45.4601 31.7795 45.5301C31.3195 45.6001 30.8395 45.4501 30.5095 45.1101L30.1295 44.7301C29.5995 44.2001 29.3395 43.4401 29.4395 42.7001L30.4695 34.5801L27.1595 31.2701C26.1995 30.3101 26.1995 28.7501 27.1595 27.8001C28.1195 26.8401 29.6795 26.8401 30.6295 27.8001L33.9395 31.1101L42.0595 30.0801C42.8095 29.9801 43.5495 30.2401 44.0895 30.7701L44.4695 31.1501C44.7995 31.4801 44.9595 31.9601 44.8895 32.4201C44.8195 32.8901 44.5195 33.2901 44.1095 33.5101L38.9895 36.1501L40.6195 37.7801L43.1095 37.4301C43.6395 37.3601 44.1895 37.5401 44.5695 37.9201L45.0095 38.3601C45.2995 38.6501 45.4195 39.0601 45.3395 39.4701C45.2595 39.8701 44.9895 40.2001 44.6095 40.3601L41.1895 41.8101L39.7395 45.2301C39.5795 45.6101 39.2495 45.8801 38.8495 45.9601C38.7695 45.9801 38.6895 45.9801 38.6095 45.9801L38.5895 46.0001ZM28.9095 29.0901C28.8395 29.0901 28.6995 29.1101 28.5895 29.2201C28.4095 29.4001 28.4095 29.6901 28.5895 29.8701L32.0795 33.3601C32.3995 33.6801 32.5595 34.1401 32.4995 34.5901L31.4395 42.9601C31.4395 43.0301 31.4395 43.1001 31.4595 43.1601L34.0795 38.0801C34.2995 37.6601 34.6995 37.3701 35.1695 37.3001C35.6295 37.2301 36.1095 37.3801 36.4395 37.7201L38.8395 40.1201C39.1095 40.3901 39.2395 40.7801 39.1895 41.1601L39.1295 41.5701L39.4395 40.8501C39.5895 40.5001 39.8695 40.2201 40.2195 40.0701L40.9395 39.7601L40.5295 39.8201C40.1495 39.8801 39.7595 39.7401 39.4895 39.4701L37.0895 37.0701C36.7595 36.7401 36.5995 36.2601 36.6695 35.8001C36.7395 35.3401 37.0395 34.9301 37.4495 34.7101L42.5295 32.0901C42.4695 32.0701 42.3995 32.0601 42.3295 32.0701L33.9595 33.1301C33.5095 33.1901 33.0495 33.0301 32.7295 32.7101L29.2395 29.2201C29.1195 29.1001 28.9895 29.0901 28.9195 29.0901H28.9095Z" fill="#323232"/>
<path d="M19.0895 20.9101C18.4595 20.9101 17.8295 20.6701 17.3495 20.1901L14.0395 16.8801L5.91948 17.9101C5.16948 18.0101 4.42948 17.7501 3.88948 17.2201L3.50948 16.8401C3.17948 16.5101 3.01948 16.0301 3.08948 15.5701C3.15948 15.1001 3.45948 14.7001 3.86948 14.4801L8.98948 11.8401L7.35948 10.2101L4.86948 10.5601C4.32948 10.6301 3.78948 10.4501 3.40948 10.0701L2.96948 9.63011C2.67948 9.34011 2.55948 8.93011 2.63948 8.52011C2.71948 8.12011 2.98948 7.7901 3.36948 7.63011L6.78948 6.1801L8.23948 2.7601C8.39948 2.3801 8.72948 2.1101 9.12948 2.0301C9.52948 1.9501 9.93948 2.0701 10.2395 2.3601L10.6795 2.8001C11.0595 3.1801 11.2495 3.72011 11.1695 4.26011L10.8195 6.7501L12.4495 8.38011L15.0895 3.26011C15.3095 2.84011 15.7095 2.5501 16.1795 2.4801C16.6395 2.4101 17.1195 2.56011 17.4495 2.90011L17.8295 3.2801C18.3595 3.8101 18.6195 4.5701 18.5195 5.3101L17.4895 13.4301L20.7995 16.7401C21.7595 17.7001 21.7595 19.2601 20.7995 20.2101C20.3195 20.6901 19.6895 20.9301 19.0595 20.9301L19.0895 20.9101ZM14.2395 14.8501C14.6295 14.8501 14.9995 15.0001 15.2795 15.2801L18.7695 18.7701C18.8895 18.8901 19.0195 18.9001 19.0895 18.9001C19.1595 18.9001 19.2995 18.8801 19.4095 18.7701C19.5895 18.5901 19.5895 18.3001 19.4095 18.1201L15.9195 14.6301C15.5995 14.3101 15.4395 13.8501 15.4995 13.4001L16.5595 5.03011C16.5595 4.96011 16.5595 4.8901 16.5395 4.8301L13.9195 9.9101C13.6995 10.3301 13.2995 10.6201 12.8295 10.6901C12.3595 10.7601 11.8895 10.6101 11.5595 10.2701L9.15948 7.8701C8.88948 7.6001 8.75948 7.2101 8.80948 6.8301L8.86948 6.4201L8.55948 7.1401C8.40948 7.4901 8.12948 7.7701 7.77948 7.9201L7.05948 8.2301L7.46948 8.1701C7.84948 8.1201 8.23948 8.25011 8.50948 8.52011L10.9095 10.9201C11.2395 11.2501 11.3995 11.7301 11.3295 12.1901C11.2595 12.6501 10.9595 13.0601 10.5495 13.2801L5.46948 15.9001C5.52948 15.9201 5.59948 15.9301 5.66948 15.9201L14.0395 14.8601C14.0995 14.8601 14.1695 14.8501 14.2295 14.8501H14.2395Z" fill="#323232"/>
</svg>
