<svg width="48" height="48" viewBox="0 0 48 48" fill="none" xmlns="http://www.w3.org/2000/svg">
<path d="M7.4199 7.93999C6.9799 7.33999 6.2899 6.98999 5.5499 6.98999H3.7699C3.1199 6.98999 2.6799 7.65999 2.9199 8.26999L6.0399 16.17C6.3899 17.06 7.2399 17.63 8.1899 17.63L14.3399 17.6L7.4199 7.93999Z" fill="#8DE2E0"/>
<path d="M43.6404 36.81C43.9604 36.81 44.2704 36.65 44.4604 36.39C44.6504 36.13 44.6904 35.79 44.5904 35.48C43.5804 32.63 40.8804 30.72 37.8704 30.72C35.3404 30.72 32.9904 32.09 31.7204 34.26H16.3104C15.0404 32.09 12.6904 30.72 10.1604 30.72C7.15037 30.72 4.45037 32.63 3.44037 35.48C3.33037 35.79 3.38037 36.13 3.57037 36.39C3.76037 36.66 4.06037 36.81 4.39037 36.81H9.82037L10.3504 37.85L9.82037 38.89H4.39037C4.07037 38.89 3.76037 39.05 3.57037 39.31C3.38037 39.57 3.34037 39.91 3.44037 40.22C4.45037 43.07 7.15037 44.98 10.1604 44.98C12.6904 44.98 15.0404 43.61 16.3104 41.44H31.7204C32.9904 43.61 35.3404 44.98 37.8704 44.98C40.8804 44.98 43.5804 43.07 44.5904 40.22C44.7004 39.91 44.6504 39.57 44.4604 39.31C44.2704 39.04 43.9704 38.89 43.6404 38.89H38.2104L37.6804 37.85L38.2104 36.81H43.6404ZM35.6704 38.3L36.7104 40.34C36.8804 40.67 37.2304 40.89 37.6004 40.89H41.9904C41.0404 42.18 39.5204 42.98 37.8604 42.98C35.8804 42.98 34.0604 41.82 33.2104 40.02C33.0404 39.67 32.6904 39.45 32.3004 39.45H15.6904C15.6904 39.45 15.6404 39.45 15.6204 39.46C15.6004 39.46 15.5804 39.46 15.5604 39.46C15.4904 39.47 15.4204 39.48 15.3504 39.51C15.3404 39.51 15.3304 39.51 15.3104 39.51C15.3004 39.51 15.2904 39.53 15.2704 39.53C15.1704 39.57 15.0904 39.63 15.0104 39.7C15.0004 39.71 14.9904 39.71 14.9704 39.72C14.9704 39.72 14.9704 39.73 14.9604 39.74C14.8904 39.82 14.8204 39.9 14.7804 40C13.9404 41.8 12.1104 42.96 10.1304 42.96C8.48037 42.96 6.95037 42.16 6.00037 40.87H10.3904C10.7704 40.87 11.1104 40.66 11.2804 40.32L12.3204 38.28C12.4704 37.99 12.4704 37.66 12.3204 37.37L11.2804 35.33C11.1104 35 10.7604 34.78 10.3904 34.78H6.00037C6.95037 33.49 8.47037 32.69 10.1304 32.69C12.1104 32.69 13.9304 33.85 14.7804 35.65C14.8204 35.74 14.8804 35.83 14.9504 35.9C14.9504 35.91 14.9604 35.93 14.9704 35.94C14.9904 35.96 15.0204 35.97 15.0404 35.99C15.1104 36.05 15.1804 36.09 15.2604 36.13C15.2704 36.13 15.2804 36.15 15.3004 36.15C15.3004 36.15 15.3204 36.15 15.3304 36.15C15.4304 36.19 15.5404 36.22 15.6604 36.22H15.6804H32.2904C32.6804 36.22 33.0304 36 33.2004 35.65C34.0404 33.85 35.8704 32.69 37.8504 32.69C39.5004 32.69 41.0304 33.49 41.9804 34.78H37.5904C37.2104 34.78 36.8704 34.99 36.7004 35.33L35.6604 37.37C35.5104 37.66 35.5104 37.99 35.6604 38.28L35.6704 38.3Z" fill="#323232"/>
<path d="M44.57 12.38C43.4 11.19 41.62 10.59 39.29 10.59L29.4 10.61L20.63 4.07997C18.99 2.98997 16.92 2.71997 15.07 3.36997C14.79 3.46997 14.57 3.67997 14.47 3.94997C14.36 4.21997 14.38 4.52997 14.52 4.78997C15.3 6.23997 16.91 8.93997 17.93 10.64H10.59L8.24001 7.36997C7.62001 6.51997 6.62001 6.00997 5.57001 6.00997H3.78001C3.15001 6.00997 2.56001 6.32997 2.20001 6.85997C1.84001 7.38997 1.77001 8.05997 2.00001 8.64997L5.12001 16.55C5.62001 17.82 6.83001 18.64 8.19001 18.64H8.21001L14.36 18.61L18.31 18.58L13.63 27.08C13.47 27.36 13.46 27.7 13.6 27.99C13.74 28.28 14.01 28.49 14.33 28.54C14.81 28.63 15.29 28.67 15.77 28.67C17.6 28.67 19.4 28.05 20.86 26.86C23.06 24.95 29.26 19.69 30.65 18.51L45.16 18.45C45.71 18.45 46.16 18 46.16 17.45V17.24C46.17 16.28 46.2 14.02 44.59 12.38H44.57ZM16.94 5.01997C17.83 4.97997 18.74 5.21997 19.47 5.70997L26.06 10.61H20.26C19.61 9.54997 18.03 6.90997 16.95 5.01997H16.94ZM8.18001 16.63C7.65001 16.63 7.17001 16.31 6.97001 15.8L3.89001 7.99997H5.56001C5.97001 7.99997 6.36001 8.19997 6.61001 8.53997L12.4 16.62L8.18001 16.64V16.63ZM30.26 16.52C30.03 16.52 29.8 16.6 29.62 16.76C29.54 16.82 22.01 23.21 19.56 25.34C18.58 26.13 17.38 26.59 16.13 26.67L20.87 18.05C21.04 17.74 21.03 17.36 20.85 17.06C20.67 16.76 20.34 16.57 19.99 16.57L14.85 16.6L12.02 12.64L19.69 12.62L39.29 12.58C41.07 12.58 42.37 12.98 43.15 13.78C43.92 14.56 44.1 15.62 44.14 16.46L30.26 16.52Z" fill="#323232"/>
</svg>
