<svg width="48" height="48" viewBox="0 0 48 48" fill="none" xmlns="http://www.w3.org/2000/svg">
<path d="M32.3396 14.0401C32.9096 14.0401 33.3496 14.4801 33.3496 15.0501C33.3496 15.6201 32.9096 16.0401 32.3396 16.0401C31.7696 16.0401 31.3496 15.6001 31.3496 15.0501C31.3496 14.5001 31.7896 14.0401 32.3396 14.0401ZM32.8696 13.2501H31.8296L31.4596 8.95008V6.58008H33.2196V8.95008L32.8596 13.2501H32.8696Z" fill="#DF0000"/>
<path fill-rule="evenodd" clip-rule="evenodd" d="M6.64086 20.4402V7.74018C6.64086 6.74018 7.45086 5.93018 8.45086 5.93018H16.0009L6.63086 20.4502L6.64086 20.4402Z" fill="#8DE2E0"/>
<path d="M42.3703 2.12012H6.54031C4.49031 2.12012 2.82031 3.79012 2.82031 5.84012V42.1401C2.82031 44.1901 4.49031 45.8601 6.54031 45.8601H24.6903C26.7403 45.8601 28.4103 44.1901 28.4103 42.1401V30.9501C28.4103 30.4001 27.9603 29.9501 27.4103 29.9501C26.8603 29.9501 26.4103 30.4001 26.4103 30.9501V42.1401C26.4103 43.0901 25.6403 43.8601 24.6903 43.8601H6.54031C5.59031 43.8601 4.82031 43.0901 4.82031 42.1401V5.85012C4.82031 4.90012 5.59031 4.13012 6.54031 4.13012H19.6503C19.5703 4.39012 19.5203 4.66012 19.5203 4.94012V18.0201C19.5203 19.5701 20.7803 20.8301 22.3303 20.8301H26.4803V24.7001C26.4803 25.1001 26.7203 25.4701 27.1003 25.6201C27.2203 25.6701 27.3503 25.7001 27.4803 25.7001C27.7403 25.7001 28.0003 25.6001 28.1903 25.4101L32.7703 20.8301H42.3803C43.9303 20.8301 45.1903 19.5701 45.1903 18.0201V4.93012C45.1903 3.38012 43.9303 2.12012 42.3803 2.12012H42.3703ZM43.1803 18.0201C43.1803 18.4701 42.8203 18.8301 42.3703 18.8301H32.3503C32.0803 18.8301 31.8303 18.9401 31.6403 19.1201L28.4803 22.2801V19.8201C28.4803 19.2701 28.0303 18.8201 27.4803 18.8201H22.3303C21.8803 18.8201 21.5203 18.4601 21.5203 18.0101V4.93012C21.5203 4.48012 21.8803 4.12012 22.3303 4.12012H42.3703C42.8203 4.12012 43.1803 4.48012 43.1803 4.93012V18.0101V18.0201Z" fill="#323232"/>
<path d="M21.1601 25.91C21.1601 24.73 20.2001 23.78 19.0301 23.78H18.8401V22.38C18.8401 21.49 18.0601 20.77 17.1001 20.77H14.1401C13.1801 20.77 12.4001 21.49 12.4001 22.38V23.78H12.2101C11.0301 23.78 10.0801 24.74 10.0801 25.91V33.74C10.0801 34.73 10.7601 35.55 11.6701 35.79V36.32C11.6701 36.87 12.1201 37.32 12.6701 37.32C13.2201 37.32 13.6701 36.87 13.6701 36.32V35.87H17.5701V36.32C17.5701 36.87 18.0201 37.32 18.5701 37.32C19.1201 37.32 19.5701 36.87 19.5701 36.32V35.79C20.4801 35.55 21.1601 34.72 21.1601 33.74V25.91ZM14.4001 22.77H16.8401V23.78H14.4001V22.77ZM12.0801 25.91C12.0801 25.84 12.1401 25.78 12.2101 25.78H19.0201C19.0901 25.78 19.1501 25.84 19.1501 25.91V33.74C19.1501 33.81 19.0901 33.87 19.0201 33.87H12.2101C12.1401 33.87 12.0801 33.81 12.0801 33.74V25.91Z" fill="#323232"/>
<path d="M11.0801 39.3403C10.5301 39.3403 10.0801 39.7903 10.0801 40.3403C10.0801 40.8903 10.5301 41.3403 11.0801 41.3403H20.1601C20.7101 41.3403 21.1601 40.8903 21.1601 40.3403C21.1601 39.7903 20.7101 39.3403 20.1601 39.3403H11.0801Z" fill="#323232"/>
</svg>
