<svg width="24" height="24" viewBox="0 0 24 24" fill="none" xmlns="http://www.w3.org/2000/svg">
<path fill-rule="evenodd" clip-rule="evenodd" d="M12 2C6.48 2 2 6.48 2 12C2 17.52 6.48 22 12 22C17.52 22 22 17.52 22 12C22 6.48 17.52 2 12 2ZM12.5778 5H11.3431L11.1909 5.15556L11.1904 6.60907L11.3191 6.58566C9.72678 6.84584 8.68995 7.99487 8.68995 9.48331C8.68995 10.8617 9.49002 11.7843 10.9551 12.3722L12.4268 12.9678C13.2338 13.3081 13.5969 13.7155 13.5969 14.4069C13.5969 15.2476 12.9957 15.8037 11.9921 15.8037C10.9956 15.8037 10.4031 15.2712 10.4031 14.4226V14.062L10.2509 13.9064H8.65217L8.5 14.062V14.3599L8.50616 14.5729C8.59212 16.0438 9.57239 17.0788 11.1011 17.3637L11.1904 17.3772L11.1909 18.8444L11.3431 19H12.5778L12.7299 18.8444L12.7292 17.4096L12.5957 17.4309C14.3629 17.2162 15.5 15.979 15.5 14.2344C15.5 12.6155 14.6798 11.8335 12.9183 11.1261L11.4152 10.5148C10.8755 10.301 10.5772 9.86525 10.5772 9.37355C10.5772 8.6632 11.0953 8.19628 11.9763 8.19628C12.8493 8.19628 13.3911 8.7449 13.3911 9.5774V9.84396L13.5433 9.99952H15.142L15.2942 9.84396V9.64012L15.2877 9.41817C15.2013 7.95886 14.2597 6.91251 12.8187 6.62293L12.7292 6.60658L12.7299 5.15556L12.5778 5Z" fill="#323232"/>
</svg>
