<svg width="24" height="24" viewBox="0 0 24 24" fill="none" xmlns="http://www.w3.org/2000/svg">
<path fill-rule="evenodd" clip-rule="evenodd" d="M2.7385 13.4862L2.02466 13.5628L4.43081 16.4031C4.9785 17.0493 4.9662 17.3077 4.4062 17.9939L3.68312 18.88L7.32927 18.2646C7.74158 18.1969 8.15081 18.3111 8.04927 18.88C7.9785 19.2646 7.59697 21.3785 7.59697 21.3785L12.8739 12.3911L2.7385 13.4862Z" fill="#003C68"/>
<path fill-rule="evenodd" clip-rule="evenodd" d="M18.8527 9.14772L18.8539 9.16735C18.8635 9.32039 18.9259 10.3188 18.9259 10.4154L18.9321 10.4768C18.9559 10.6536 19.032 10.7619 19.3447 10.7231L19.4265 10.7115C19.9855 10.6287 21.717 10.3142 21.717 10.3142L19.9997 12.6182V12.6062L19.9624 12.6589C19.825 12.8586 19.6929 13.1251 19.9997 13.2828L20.548 13.5905L20.5357 13.5976C20.2492 13.7632 15.0907 16.7446 14.9136 16.8523L14.8132 16.8977C14.557 17.0361 14.3952 17.3086 14.4034 17.6062L14.3955 17.7341C14.3762 18.0821 14.3697 18.4754 14.3676 18.6989L14.3666 18.8314C14.3665 18.8627 14.3665 18.88 14.3665 18.88L9.58774 18.1385L16.0493 10.5139L18.8527 9.14772ZM7.21235 9.30464L9.0585 12.0154L9.0462 12.0246L2.82158 13.4185L2.92714 13.3329C3.12654 13.1501 3.25411 12.8996 3.28312 12.6277L3.28743 12.5809L3.30086 12.4062C3.34404 11.8154 3.44004 10.3231 3.44004 10.3231L3.45531 10.3262C3.62538 10.3612 5.1662 10.6771 5.53235 10.7323L5.63122 10.738C5.86057 10.735 6.07697 10.6193 6.2062 10.4246C6.39081 10.2277 7.21235 9.30464 7.21235 9.30464ZM15.1354 4.33264L15.1405 4.36972C15.1453 4.40498 15.1531 4.46061 15.1632 4.53229L15.1999 4.79117C15.3061 5.53714 15.5098 6.9431 15.5631 7.18772L15.5833 7.26315C15.6666 7.51745 15.8575 7.52826 16.2862 7.34464L18.1603 6.52618L16.0065 10.4582V10.4616L9.12312 12L10.2493 6.53233L11.4493 7.34464L11.5355 7.39748C11.7904 7.53412 12.0142 7.47295 12.3077 7.18772C12.3599 7.13701 12.4643 7.03298 12.6035 6.89341L12.836 6.65964C13.0479 6.44634 13.3004 6.19142 13.5593 5.92965L13.8709 5.61446C14.4915 4.9864 15.0704 4.39896 15.1354 4.33264Z" fill="#00A18F"/>
<path fill-rule="evenodd" clip-rule="evenodd" d="M9.12312 12L9.0585 12.0154L2.83395 13.4092L2.7385 13.4862L12.8767 12.391L9.50472 18.1261L9.57549 18.1384L16.0493 10.5139L16.0065 10.4582L9.12312 12Z" fill="#FFFFFE"/>
</svg>
