<svg width="48" height="48" viewBox="0 0 48 48" fill="none" xmlns="http://www.w3.org/2000/svg">
<path d="M17.6402 17.09C19.1038 17.09 20.2902 15.9036 20.2902 14.44C20.2902 12.9765 19.1038 11.79 17.6402 11.79C16.1767 11.79 14.9902 12.9765 14.9902 14.44C14.9902 15.9036 16.1767 17.09 17.6402 17.09Z" fill="#8DE2E0"/>
<path d="M36.1402 26.6799C37.6038 26.6799 38.7902 25.4934 38.7902 24.0299C38.7902 22.5663 37.6038 21.3799 36.1402 21.3799C34.6767 21.3799 33.4902 22.5663 33.4902 24.0299C33.4902 25.4934 34.6767 26.6799 36.1402 26.6799Z" fill="#8DE2E0"/>
<path d="M13.9195 35.3098C15.3831 35.3098 16.5695 34.1233 16.5695 32.6598C16.5695 31.1962 15.3831 30.0098 13.9195 30.0098C12.456 30.0098 11.2695 31.1962 11.2695 32.6598C11.2695 34.1233 12.456 35.3098 13.9195 35.3098Z" fill="#8DE2E0"/>
<path d="M43.91 14.09C43.91 14.09 43.87 14.02 43.85 13.98C40.18 6.73 32.66 1.75 23.99 1.75C14.63 1.75 6.6 7.57 3.33 15.79C3.31 15.82 3.3 15.85 3.29 15.89C2.3 18.41 1.75 21.14 1.75 24.01C1.75 36.28 11.73 46.26 24 46.26C30.48 46.26 36.32 43.48 40.39 39.04C40.4 39.03 40.42 39.03 40.43 39.02C40.44 39.01 40.45 38.99 40.46 38.97C44.06 35.02 46.26 29.76 46.26 24.01C46.26 20.45 45.42 17.09 43.92 14.1L43.91 14.09ZM39.66 36.83L34.79 31.96C34.6 31.77 34.35 31.67 34.08 31.67H17.41C16.97 30.15 15.58 29.02 13.92 29.02C11.91 29.02 10.27 30.66 10.27 32.67C10.27 34.68 11.91 36.32 13.92 36.32C15.58 36.32 16.98 35.19 17.41 33.67H33.66L38.31 38.32C34.64 41.99 29.58 44.26 24 44.26C12.83 44.26 3.75 35.18 3.75 24.01C3.75 21.94 4.07 19.94 4.65 18.05L11.35 24.75C11.54 24.94 11.79 25.04 12.06 25.04H32.65C33.09 26.56 34.48 27.69 36.14 27.69C38.15 27.69 39.79 26.05 39.79 24.04C39.79 22.03 38.15 20.39 36.14 20.39C34.48 20.39 33.08 21.52 32.65 23.04H12.47L5.41 15.98C8.53 8.79 15.68 3.75 24 3.75C31.29 3.75 37.68 7.64 41.25 13.44H21.14C20.7 11.92 19.31 10.79 17.65 10.79C15.64 10.79 14 12.43 14 14.44C14 16.45 15.64 18.09 17.65 18.09C19.31 18.09 20.71 16.96 21.14 15.44H42.33C43.55 18.04 44.25 20.94 44.25 24C44.25 28.86 42.52 33.33 39.66 36.83ZM15.57 32.66C15.57 33.57 14.83 34.31 13.92 34.31C13.01 34.31 12.27 33.57 12.27 32.66C12.27 31.75 13.01 31.01 13.92 31.01C14.83 31.01 15.57 31.75 15.57 32.66ZM34.49 24.03C34.49 23.12 35.23 22.38 36.14 22.38C37.05 22.38 37.79 23.12 37.79 24.03C37.79 24.94 37.05 25.68 36.14 25.68C35.23 25.68 34.49 24.94 34.49 24.03ZM19.29 14.44C19.29 15.35 18.55 16.09 17.64 16.09C16.73 16.09 15.99 15.35 15.99 14.44C15.99 13.53 16.73 12.79 17.64 12.79C18.55 12.79 19.29 13.53 19.29 14.44Z" fill="#323232"/>
</svg>
