<svg width="48" height="48" viewBox="0 0 48 48" fill="none" xmlns="http://www.w3.org/2000/svg">
<path d="M31.0801 22.5801H25.3301V33.9101H31.0801V22.5801Z" fill="#8DE2E0"/>
<path d="M33.4993 42.41V36.74C33.4993 35.97 32.7693 34.66 32.0793 33.61V22.87C32.5093 22.16 33.4993 20.2 33.4993 16.91C33.4993 15.88 33.3693 14.85 33.1193 13.85C32.3193 10.48 30.3593 7.76 27.8393 6.4V2.75C27.8393 2.2 27.3893 1.75 26.8393 1.75H21.1693C20.6193 1.75 20.1693 2.2 20.1693 2.75V6.4C17.6493 7.76 15.6893 10.48 14.8893 13.85C14.6393 14.85 14.5093 15.88 14.5093 16.92C14.5093 20.21 15.4893 22.17 15.9293 22.88V33.62C15.2493 34.67 14.5093 35.98 14.5093 36.75V42.33C14.3393 44.32 15.8293 46.07 17.8093 46.24C17.9193 46.24 18.0293 46.25 18.1193 46.25C18.2093 46.25 18.2793 46.25 18.3393 46.24H29.5893C30.5493 46.32 31.4893 46.02 32.2293 45.4C32.9693 44.78 33.4193 43.9 33.4993 42.94C33.5193 42.73 33.5193 42.53 33.4993 42.41ZM22.1693 3.75H25.8393V6H22.1693V3.75ZM21.3793 8H26.6093C28.4293 8.87 29.9593 10.75 30.7993 13.08H17.1893C18.0293 10.74 19.5593 8.87 21.3793 8ZM16.6693 15.08H31.3393C31.4493 15.69 31.4993 16.3 31.4993 16.91C31.4993 19.36 30.8693 20.9 30.5193 21.58H17.4893C17.1393 20.91 16.5093 19.37 16.5093 16.92C16.5093 16.3 16.5693 15.69 16.6693 15.08ZM30.0793 23.58V32.91H17.9193V23.58H30.0793ZM31.4993 42.77C31.4593 43.2 31.2593 43.59 30.9293 43.87C30.5993 44.15 30.1793 44.28 29.6593 44.24H18.2393C18.1493 44.25 18.0593 44.25 17.9693 44.24C17.5393 44.2 17.1493 44 16.8693 43.67C16.5893 43.34 16.4593 42.92 16.4993 42.4V36.78C16.5393 36.52 16.9593 35.71 17.4593 34.91H30.5293C31.0293 35.71 31.4493 36.52 31.4893 36.74V42.49C31.4993 42.58 31.4993 42.67 31.4893 42.76L31.4993 42.77Z" fill="#323232"/>
</svg>
