<svg width="48" height="48" viewBox="0 0 48 48" fill="none" xmlns="http://www.w3.org/2000/svg">
<path d="M23.2198 41.47C24.4403 41.47 25.4298 40.4805 25.4298 39.26C25.4298 38.0394 24.4403 37.05 23.2198 37.05C21.9992 37.05 21.0098 38.0394 21.0098 39.26C21.0098 40.4805 21.9992 41.47 23.2198 41.47Z" fill="#8DE2E0"/>
<path d="M27.4705 19.14H24.2605C24.2805 18.71 24.3205 18.29 24.3805 17.87C24.4605 17.32 24.0705 16.82 23.5305 16.74C22.9805 16.66 22.4805 17.05 22.4005 17.59C22.3305 18.1 22.2905 18.62 22.2605 19.14H19.7205C17.7805 19.14 16.1905 20.72 16.1905 22.67V28.95C16.1905 30.39 17.0805 31.65 18.3505 32.19L16.2405 42.05C16.0805 42.81 16.2605 43.59 16.7505 44.19C17.2405 44.79 17.9605 45.14 18.7305 45.14H27.7005C28.4705 45.14 29.2005 44.8 29.6805 44.19C30.1605 43.58 30.3505 42.81 30.1905 42.05L28.1305 32.42C29.7505 32.1 30.9805 30.68 30.9805 28.96V22.68C30.9805 20.74 29.4005 19.15 27.4505 19.15L27.4705 19.14ZM28.1405 42.92C28.0805 43 27.9405 43.12 27.7105 43.12H18.7405C18.5105 43.12 18.3705 42.99 18.3105 42.92C18.2505 42.84 18.1505 42.68 18.2005 42.46L21.3505 27.72C21.4005 27.47 21.6305 27.29 21.8905 27.29H24.5605C24.8205 27.29 25.0405 27.47 25.1005 27.72L28.2505 42.46C28.3005 42.68 28.2005 42.84 28.1405 42.92ZM28.9905 28.95C28.9905 29.7 28.4405 30.33 27.7205 30.45L27.0505 27.31C26.8005 26.14 25.7505 25.29 24.5605 25.29H21.8905C20.7005 25.29 19.6505 26.14 19.4005 27.31L18.8005 30.14C18.4405 29.86 18.2005 29.44 18.2005 28.96V22.68C18.2005 21.84 18.8805 21.15 19.7305 21.15H27.4805C28.3205 21.15 29.0105 21.83 29.0105 22.68V28.96L28.9905 28.95Z" fill="#323232"/>
<path d="M20.0098 39.26C20.0098 41.03 21.4498 42.47 23.2198 42.47C24.9898 42.47 26.4298 41.03 26.4298 39.26C26.4298 37.49 24.9898 36.05 23.2198 36.05C21.4498 36.05 20.0098 37.49 20.0098 39.26ZM24.4398 39.26C24.4398 39.93 23.8998 40.47 23.2298 40.47C22.5598 40.47 22.0198 39.93 22.0198 39.26C22.0198 38.59 22.5598 38.05 23.2298 38.05C23.8998 38.05 24.4398 38.59 24.4398 39.26Z" fill="#323232"/>
<path d="M26.4999 11.14C26.7999 11.14 27.0999 11 27.2999 10.74C27.7299 10.17 28.2099 9.62001 28.7099 9.12001C29.0999 8.73001 29.0999 8.10001 28.7099 7.71001C28.3199 7.32001 27.6899 7.32001 27.2999 7.71001C26.7199 8.28001 26.1899 8.90001 25.6999 9.55001C25.3699 9.99001 25.4599 10.62 25.8999 10.95C26.0799 11.08 26.2899 11.15 26.4999 11.15V11.14Z" fill="#323232"/>
<path d="M23.7404 15.76C23.8404 15.8 23.9504 15.81 24.0504 15.81C24.4704 15.81 24.8604 15.54 25.0004 15.12C25.2304 14.44 25.5004 13.77 25.8204 13.12C26.0604 12.62 25.8604 12.03 25.3704 11.78C24.8704 11.53 24.2704 11.74 24.0304 12.23C23.6704 12.96 23.3604 13.72 23.1004 14.49C22.9304 15.01 23.2104 15.58 23.7404 15.75V15.76Z" fill="#323232"/>
<path d="M37.2996 2.95002C36.4896 3.03002 35.6796 3.17002 34.8896 3.37002C34.3496 3.51002 34.0296 4.05002 34.1696 4.59002C34.2796 5.04002 34.6896 5.34002 35.1396 5.34002C35.2196 5.34002 35.2996 5.34002 35.3896 5.31002C36.0796 5.13002 36.7896 5.01002 37.4996 4.94002C38.0496 4.89002 38.4496 4.40002 38.3996 3.85002C38.3496 3.30002 37.8696 2.90002 37.3096 2.95002H37.2996Z" fill="#323232"/>
<path d="M31.8804 4.46002C31.1504 4.81002 30.4404 5.22002 29.7604 5.67002C29.3004 5.98002 29.1804 6.60002 29.4904 7.06002C29.6804 7.35002 30.0004 7.50002 30.3204 7.50002C30.5104 7.50002 30.7104 7.44002 30.8804 7.33002C31.4804 6.93002 32.1005 6.57002 32.7405 6.26002C33.2405 6.02002 33.4504 5.43002 33.2104 4.93002C32.9704 4.43002 32.3804 4.22002 31.8804 4.46002Z" fill="#323232"/>
<path d="M21.2896 12C21.4796 12.29 21.7996 12.46 22.1296 12.46C22.3196 12.46 22.5096 12.41 22.6696 12.3C23.1296 12 23.2596 11.38 22.9596 10.92C22.5196 10.24 22.0196 9.58002 21.4896 8.97002C21.1296 8.55002 20.4896 8.51002 20.0796 8.88002C19.6596 9.24002 19.6196 9.88002 19.9896 10.29C20.4596 10.83 20.8996 11.41 21.2896 12.01V12Z" fill="#323232"/>
<path d="M18.5604 8.56002C18.8604 8.56002 19.1504 8.43002 19.3504 8.18002C19.6904 7.74002 19.6104 7.12002 19.1804 6.78001C18.5404 6.28001 17.8504 5.82001 17.1504 5.42001C16.6704 5.15001 16.0604 5.32001 15.7904 5.80001C15.5204 6.28001 15.6904 6.89001 16.1704 7.16001C16.7904 7.51001 17.3904 7.91001 17.9604 8.36001C18.1404 8.50001 18.3604 8.57001 18.5804 8.57001L18.5604 8.56002Z" fill="#323232"/>
<path d="M14.2301 4.12001C13.4601 3.87001 12.6601 3.66001 11.8601 3.53001C11.3101 3.44001 10.8001 3.80001 10.7101 4.35001C10.6201 4.89001 10.9801 5.41001 11.5301 5.50001C12.2401 5.62001 12.9401 5.80001 13.6101 6.02001C13.7101 6.05001 13.8201 6.07001 13.9201 6.07001C14.3401 6.07001 14.7301 5.80001 14.8701 5.38001C15.0401 4.86001 14.7601 4.29001 14.2401 4.12001H14.2301Z" fill="#323232"/>
</svg>
