<svg width="48" height="48" viewBox="0 0 48 48" fill="none" xmlns="http://www.w3.org/2000/svg">
<path fill-rule="evenodd" clip-rule="evenodd" d="M36.86 35.0403C36.16 32.1703 33.75 30.1203 31.99 27.9303C30.76 26.4503 29.8 24.7503 28.46 23.3703C27.42 22.2203 25.99 21.4903 24.5 21.2803C24.51 21.3003 26.31 24.0403 28.43 29.7103C30.56 35.4003 30.18 37.9803 29.31 39.7503C28.44 41.5203 25.39 41.5503 24.94 41.5103H24.92C27.41 41.8103 30.03 42.8103 32.33 42.4603C35.66 41.9503 37.84 38.2703 36.86 35.0503V35.0403Z" fill="#8DE2E0"/>
<path fill-rule="evenodd" clip-rule="evenodd" d="M11.5905 20.4195C11.5105 19.8595 11.3605 19.3095 11.1505 18.7895C10.7405 17.7895 10.1505 16.9095 9.33047 16.1895C8.80047 15.7295 8.20047 15.3795 7.53047 15.1695C6.94047 14.9895 6.35047 14.9395 5.74047 15.0595C5.00047 15.2095 4.37047 15.5695 3.87047 16.1395C3.82047 16.1995 3.78047 16.2595 3.73047 16.3195C4.24047 16.2595 4.75047 16.3195 5.24047 16.4695C5.91047 16.6795 6.51047 17.0295 7.04047 17.4895C7.86047 18.1995 8.45047 19.0795 8.86047 20.0895C9.07047 20.6195 9.22047 21.1595 9.30047 21.7195C9.34047 21.9895 9.36047 22.2695 9.36047 22.5395C9.36047 23.0595 9.32047 23.5795 9.19047 24.0795C9.03047 24.6795 8.78047 25.2395 8.39047 25.7195C8.44047 25.7195 8.49047 25.7195 8.55047 25.6995C9.35047 25.5695 10.0105 25.1995 10.5405 24.5895C11.0005 24.0595 11.3005 23.4495 11.4705 22.7695C11.6005 22.2595 11.6505 21.7495 11.6405 21.2295C11.6405 20.9495 11.6205 20.6795 11.5805 20.4095L11.5905 20.4195Z" fill="#8DE2E0"/>
<path fill-rule="evenodd" clip-rule="evenodd" d="M21.4107 11.1903C21.3107 10.5503 21.1507 9.9303 20.9007 9.3203C20.5207 8.3703 19.9807 7.5303 19.2307 6.8303C18.7607 6.3903 18.2307 6.0403 17.6207 5.8203C16.9307 5.5703 16.2307 5.5203 15.5107 5.7003C15.0307 5.8203 14.6007 6.0403 14.2207 6.3403C14.4107 6.3803 14.5907 6.4303 14.7807 6.4903C15.3907 6.7103 15.9207 7.0603 16.3907 7.5003C17.1407 8.2003 17.6807 9.0403 18.0607 9.9903C18.3007 10.5903 18.4707 11.2103 18.5707 11.8603C18.6207 12.2203 18.6607 12.5903 18.6607 12.9603C18.6607 13.4203 18.6407 13.8903 18.5607 14.3503C18.4007 15.3103 18.0807 16.2003 17.5007 16.9903C17.2507 17.3303 16.9507 17.6003 16.6207 17.8503C16.7707 17.8803 16.9207 17.9003 17.0707 17.9103C17.7507 17.9603 18.3907 17.8303 18.9907 17.5003C19.5307 17.2103 19.9707 16.8003 20.3307 16.3103C20.9107 15.5203 21.2307 14.6303 21.3907 13.6703C21.4707 13.2103 21.5007 12.7503 21.4907 12.2803C21.4907 11.9103 21.4507 11.5403 21.4007 11.1803L21.4107 11.1903Z" fill="#8DE2E0"/>
<path fill-rule="evenodd" clip-rule="evenodd" d="M35.3993 9.2003C35.2193 8.4503 34.9393 7.7503 34.4793 7.1303C33.8193 6.2203 32.9493 5.6403 31.8093 5.5103C31.7893 5.5003 31.7693 5.5103 31.7593 5.5103H31.7093C31.7093 5.5103 31.6593 5.5103 31.6293 5.5103H31.2593C31.2593 5.5103 31.2093 5.5103 31.1793 5.5103H31.1293C31.1293 5.5103 31.0893 5.5103 31.0793 5.5103C31.0393 5.5103 30.9993 5.5303 30.9593 5.5403C31.2093 5.7603 31.4493 6.0003 31.6593 6.2903C32.1093 6.9103 32.3993 7.6103 32.5793 8.3603C32.7293 9.0003 32.7893 9.6603 32.7693 10.3203C32.7293 11.5403 32.4393 12.6903 31.9193 13.7903C31.5493 14.5503 31.0793 15.2303 30.4793 15.8303C29.9393 16.3603 29.3393 16.7703 28.6293 17.0403C28.3493 17.1403 28.0693 17.2103 27.7793 17.2503C28.3893 17.7803 29.0993 18.0903 29.9293 18.1403C30.4593 18.1703 30.9693 18.0803 31.4693 17.9003C32.1793 17.6403 32.7793 17.2203 33.3193 16.6903C33.9193 16.1003 34.3893 15.4103 34.7593 14.6503C35.2893 13.5503 35.5693 12.4003 35.6093 11.1803C35.6293 10.5203 35.5693 9.8603 35.4193 9.2203L35.3993 9.2003Z" fill="#8DE2E0"/>
<path fill-rule="evenodd" clip-rule="evenodd" d="M45.0601 17.7801C44.8601 17.0801 44.5201 16.4701 43.9901 15.9601C43.4701 15.4701 42.8701 15.1901 42.1801 15.0801C42.3301 15.3601 42.4601 15.6601 42.5501 15.9701C42.6601 16.3501 42.7301 16.7501 42.7401 17.1501V17.2601C42.7401 17.4001 42.7401 17.5301 42.7401 17.6701V17.7801C42.7001 18.7001 42.4501 19.5801 42.0501 20.4101C41.7401 21.0601 41.3301 21.6501 40.8401 22.1801C40.2001 22.8601 39.4601 23.3801 38.5801 23.7001C38.0501 23.8901 37.5101 23.9801 36.9501 23.9501C36.8201 23.9501 36.7101 23.9201 36.5801 23.9001C36.7701 24.2501 37.0001 24.5601 37.3001 24.8401C37.9101 25.4001 38.6301 25.7001 39.4601 25.7501C40.0201 25.7801 40.5601 25.6901 41.0901 25.5001C41.9701 25.1801 42.7101 24.6601 43.3501 23.9801C43.8501 23.4501 44.2501 22.8601 44.5601 22.2101C44.9601 21.3801 45.2101 20.5101 45.2501 19.5801V19.4701C45.2501 19.3301 45.2501 19.2001 45.2501 19.0601V18.9501C45.2401 18.5501 45.1701 18.1601 45.0601 17.7701V17.7801Z" fill="#8DE2E0"/>
<path d="M30.1105 19.1202C30.0205 19.1202 29.9305 19.1202 29.8505 19.1202C28.7105 19.0502 27.7105 18.6102 26.8605 17.7802C26.2305 17.1602 25.7505 16.4102 25.4205 15.4802C25.2205 14.9202 25.0805 14.3102 25.0105 13.6802C24.9605 13.2602 24.9505 12.8402 24.9605 12.4302C24.9905 11.4702 25.1605 10.5202 25.4805 9.60023C25.8305 8.59023 26.3205 7.68023 26.9505 6.90023C27.5405 6.16023 28.2305 5.57023 28.9905 5.15023C29.6105 4.81023 30.2705 4.59023 30.9405 4.51023C31.0005 4.50023 31.0705 4.49023 31.1305 4.49023C31.1805 4.49023 31.2205 4.49023 31.2705 4.49023H31.6405C31.6905 4.49023 31.7405 4.49023 31.8005 4.50023C31.8505 4.50023 31.9005 4.50023 31.9505 4.52023C33.3205 4.68023 34.4505 5.36023 35.3105 6.54023C35.8205 7.23023 36.1705 8.03023 36.3905 8.97023C36.5605 9.68023 36.6305 10.4302 36.6005 11.1902C36.5605 12.5402 36.2405 13.8402 35.6505 15.0602C35.2205 15.9502 34.6705 16.7302 34.0105 17.3702C33.3305 18.0402 32.6105 18.5002 31.8105 18.8002C31.2505 19.0102 30.6905 19.1102 30.1305 19.1102L30.1105 19.1202ZM31.1905 6.49023C30.7605 6.54023 30.3505 6.67023 29.9505 6.89023C29.4105 7.19023 28.9405 7.60023 28.5005 8.14023C28.0105 8.75024 27.6405 9.43023 27.3605 10.2402C27.1105 10.9702 26.9705 11.7202 26.9505 12.4802C26.9405 12.7902 26.9505 13.1202 26.9905 13.4402C27.0405 13.9202 27.1505 14.3702 27.3005 14.7802C27.5305 15.4202 27.8505 15.9302 28.2605 16.3302C28.7605 16.8102 29.3105 17.0602 29.9705 17.1002C30.3405 17.1202 30.7105 17.0602 31.1005 16.9202C31.6305 16.7202 32.1205 16.4002 32.6005 15.9402C33.1005 15.4502 33.5105 14.8702 33.8405 14.1902C34.3105 13.2202 34.5605 12.1902 34.6005 11.1202C34.6205 10.5302 34.5705 9.96023 34.4405 9.42023C34.2805 8.74023 34.0305 8.18023 33.6905 7.71023C33.1605 6.98023 32.5305 6.59023 31.7205 6.49023C31.6705 6.49023 31.6205 6.49023 31.5705 6.49023H31.3605C31.3105 6.49023 31.2605 6.49023 31.2105 6.49023H31.1905Z" fill="#323232"/>
<path d="M8.02024 26.7503C7.53024 26.7503 7.03023 26.6703 6.53023 26.5103C5.68023 26.2303 4.88023 25.7503 4.17023 25.0703C3.55023 24.4803 3.03023 23.7703 2.62023 22.9603C2.23023 22.1803 1.97023 21.3603 1.84023 20.5303L1.78023 20.1203C1.78023 20.1203 1.76023 19.9903 1.76023 19.9703C1.74023 19.9203 1.74023 19.8303 1.74023 19.7703C1.74023 19.7203 1.74023 19.6803 1.74023 19.6303V19.1503C1.74023 19.0803 1.74023 19.0103 1.76023 18.9503C1.76023 18.9503 1.76023 18.9503 1.76023 18.9403C1.76023 18.8703 1.76023 18.7903 1.78023 18.7103C1.81023 18.3603 1.87023 18.0003 1.98023 17.6203C2.21023 16.7803 2.59023 16.0603 3.11023 15.4703C3.77023 14.7303 4.58023 14.2603 5.53023 14.0703C6.27023 13.9203 7.03023 13.9703 7.81023 14.2103C8.59023 14.4503 9.31024 14.8603 9.97023 15.4303C10.8702 16.2103 11.5802 17.2103 12.0602 18.4003C12.3002 19.0003 12.4702 19.6303 12.5702 20.2603C12.6202 20.5703 12.6402 20.8903 12.6402 21.2103C12.6502 21.8403 12.5802 22.4503 12.4402 23.0203C12.2202 23.8903 11.8302 24.6403 11.2902 25.2503C10.6002 26.0403 9.73023 26.5203 8.71023 26.6803C8.48023 26.7203 8.24023 26.7403 8.01023 26.7403L8.02024 26.7503ZM3.76023 19.7003C3.76023 19.7003 3.77023 19.7903 3.77023 19.8303L3.83023 20.2403C3.92023 20.8603 4.12023 21.4703 4.42023 22.0603C4.72023 22.6603 5.11023 23.1803 5.56023 23.6203C6.06023 24.1003 6.58023 24.4203 7.15023 24.6103C7.59023 24.7503 8.00023 24.7903 8.40023 24.7203C8.96023 24.6303 9.42023 24.3703 9.80023 23.9403C10.1302 23.5603 10.3602 23.1103 10.5102 22.5403C10.6102 22.1403 10.6602 21.7203 10.6502 21.2603C10.6502 21.0303 10.6302 20.8003 10.6002 20.5603C10.5302 20.0803 10.4002 19.6103 10.2202 19.1603C9.85023 18.2503 9.34023 17.5303 8.67023 16.9403C8.22023 16.5403 7.74023 16.2803 7.23023 16.1203C6.77023 15.9803 6.35023 15.9503 5.93023 16.0303C5.41023 16.1303 4.98023 16.3803 4.62023 16.7903C4.30023 17.1503 4.07023 17.6003 3.92023 18.1403C3.84023 18.4303 3.80023 18.7003 3.78023 18.9503C3.78023 19.0003 3.78023 19.0403 3.76023 19.0903C3.76023 19.1103 3.76023 19.1903 3.74023 19.3003V19.5603C3.74023 19.5603 3.74023 19.6503 3.74023 19.7003H3.76023Z" fill="#323232"/>
<path d="M17.3607 18.9196C17.2407 18.9196 17.1207 18.9196 17.0007 18.9096C16.2707 18.8496 15.5407 18.6196 14.8607 18.2096C14.0907 17.7596 13.4207 17.1196 12.8407 16.3196C12.2407 15.4796 11.7907 14.5196 11.5207 13.4496C11.3707 12.8996 11.2807 12.3196 11.2407 11.7396C11.2207 11.5196 11.2107 11.2896 11.2207 11.1296C11.2207 10.0196 11.4007 9.03959 11.7507 8.13959C12.0607 7.33959 12.4607 6.67959 12.9907 6.11959C13.6407 5.41959 14.4107 4.94959 15.2807 4.72959C16.1707 4.49959 17.0707 4.54959 17.9707 4.87959C18.6707 5.12959 19.3307 5.53959 19.9207 6.08959C20.7307 6.84959 21.3807 7.80959 21.8407 8.93959C22.1107 9.60959 22.3007 10.3096 22.4107 11.0296C22.4707 11.4296 22.5107 11.8496 22.5107 12.2596C22.5107 12.8096 22.4807 13.3296 22.4007 13.8296C22.2007 15.0196 21.7907 16.0296 21.1607 16.8996C20.7007 17.5296 20.1407 18.0196 19.5007 18.3696C18.8407 18.7296 18.1207 18.9096 17.3807 18.9096L17.3607 18.9196ZM16.3707 6.59959C16.1707 6.59959 15.9607 6.62959 15.7607 6.67959C15.2607 6.80959 14.8307 7.06959 14.4407 7.48959C14.0907 7.85959 13.8207 8.30959 13.6007 8.86959C13.3307 9.55959 13.2107 10.2896 13.2107 11.1696C13.2107 11.1896 13.2107 11.1996 13.2107 11.2196C13.2107 11.3096 13.2107 11.4596 13.2307 11.6096C13.2607 12.0696 13.3407 12.5196 13.4507 12.9596C13.6707 13.7996 14.0007 14.5196 14.4707 15.1696C14.8807 15.7496 15.3507 16.1796 15.8807 16.4996C16.3107 16.7496 16.7207 16.8896 17.1607 16.9196C17.6507 16.9596 18.1007 16.8596 18.5307 16.6296C18.9207 16.4196 19.2507 16.1296 19.5407 15.7296C19.9907 15.1196 20.2807 14.3996 20.4207 13.5196C20.4807 13.1396 20.5107 12.7396 20.5007 12.3196C20.5007 11.9996 20.4707 11.6696 20.4207 11.3496C20.3407 10.7796 20.1907 10.2296 19.9707 9.70959C19.6207 8.83959 19.1507 8.13959 18.5407 7.57959C18.1407 7.20959 17.7207 6.94959 17.2707 6.77959C16.9607 6.66959 16.6607 6.60959 16.3607 6.60959L16.3707 6.59959Z" fill="#323232"/>
<path d="M39.6706 26.7596C39.5806 26.7596 39.4906 26.7596 39.4106 26.7596C38.3406 26.6996 37.4006 26.2996 36.6306 25.5796C36.0306 25.0196 35.5906 24.3096 35.3206 23.4696C35.1006 22.7996 35.0006 22.0896 35.0306 21.3496C35.0806 19.8796 35.5306 18.4696 36.3906 17.1696C36.6706 16.7396 37.0006 16.3396 37.3706 15.9696C38.1906 15.1596 39.0706 14.6096 40.0606 14.2896C40.7106 14.0796 41.3606 13.9996 41.9906 14.0496C43.0306 14.1296 43.9406 14.5296 44.7006 15.2396C45.3306 15.8296 45.7806 16.5896 46.0406 17.4996C46.1806 17.9696 46.2506 18.4496 46.2706 18.9196V19.0696C46.2706 19.2196 46.2706 19.3296 46.2706 19.4496C46.2706 19.4496 46.2706 19.4696 46.2706 19.4796V19.5896C46.2206 20.6496 45.9606 21.6596 45.4806 22.6496C45.1206 23.3996 44.6506 24.0796 44.0906 24.6696C43.3106 25.4996 42.4206 26.0896 41.4406 26.4396C40.8606 26.6496 40.2606 26.7596 39.6806 26.7596H39.6706ZM41.6006 16.0296C41.2906 16.0296 40.9806 16.0796 40.6506 16.1896C39.9706 16.4096 39.3506 16.7996 38.7706 17.3796C38.5006 17.6496 38.2606 17.9496 38.0506 18.2596C37.3906 19.2596 37.0506 20.2896 37.0206 21.4096C37.0006 21.9196 37.0706 22.3996 37.2206 22.8496C37.3906 23.3796 37.6406 23.7896 37.9906 24.1096C38.4206 24.5096 38.9206 24.7196 39.5206 24.7596C39.9206 24.7796 40.3306 24.7196 40.7606 24.5696C41.4506 24.3196 42.0606 23.9096 42.6306 23.3096C43.0506 22.8696 43.4006 22.3596 43.6706 21.7896C44.0306 21.0396 44.2306 20.2996 44.2606 19.5496V19.5096C44.2606 19.3496 44.2606 19.1996 44.2606 19.0396V18.9596C44.2506 18.6796 44.2006 18.3696 44.1106 18.0596C43.9406 17.4896 43.6806 17.0396 43.3106 16.6896C42.8906 16.2996 42.4106 16.0796 41.8206 16.0396C41.7506 16.0396 41.6806 16.0396 41.6106 16.0396L41.6006 16.0296Z" fill="#323232"/>
<path d="M31.3193 43.5099C30.0093 43.5099 28.6693 43.2199 27.3593 42.9499C25.8793 42.6299 24.4693 42.3399 23.1793 42.4399C21.9793 42.4699 20.7893 42.7299 19.6293 42.9699C18.1793 43.2799 16.6793 43.5999 15.2693 43.4599L15.0993 43.4399C12.0493 43.1399 9.45927 40.3599 9.32927 37.2299C9.01927 33.7099 11.4893 30.6699 13.3793 28.6899C14.2593 27.8099 14.9893 26.8299 15.7793 25.7899C16.9493 24.2399 18.1593 22.6399 19.8093 21.4299C22.6093 19.3899 26.7293 19.9399 29.2093 22.6799C30.0293 23.5199 30.7193 24.4899 31.3793 25.4199C31.8393 26.0699 32.2793 26.6899 32.7693 27.2699C33.1993 27.7999 33.6493 28.3099 34.0993 28.8199C35.6493 30.5599 37.2493 32.3699 37.8393 34.7899C38.3893 36.5899 38.0893 38.6399 37.0093 40.3699C35.9693 42.0299 34.3193 43.1399 32.4893 43.4199C32.0993 43.4799 31.7193 43.4999 31.3193 43.4999V43.5099ZM23.7493 40.4199C25.0693 40.4199 26.4393 40.7099 27.7793 40.9999C29.3693 41.3399 30.8693 41.6599 32.1793 41.4599C33.4293 41.2699 34.5693 40.4899 35.3093 39.3199C36.0793 38.0899 36.2993 36.6399 35.8993 35.3399C35.4193 33.3499 33.9793 31.7399 32.5893 30.1699C32.1093 29.6299 31.6393 29.0999 31.1993 28.5599C30.6793 27.9299 30.1993 27.2599 29.7293 26.5999C29.0793 25.6899 28.4593 24.8199 27.7293 24.0599C25.9093 22.0399 22.9493 21.6199 20.9693 23.0599C19.5493 24.0899 18.4893 25.5099 17.3493 27.0099C16.5593 28.0599 15.7493 29.1399 14.7893 30.0999C13.1893 31.7799 11.0593 34.3599 11.3093 37.1199C11.3993 39.2899 13.2293 41.2599 15.2893 41.4699C15.2893 41.4699 15.2893 41.4699 15.2993 41.4699L15.4693 41.4899C16.5493 41.5999 17.8393 41.3199 19.2093 41.0299C20.4493 40.7699 21.7393 40.4899 23.0693 40.4599C23.2893 40.4399 23.5193 40.4299 23.7493 40.4299V40.4199Z" fill="#323232"/>
</svg>
