<svg width="48" height="48" viewBox="0 0 48 48" fill="none" xmlns="http://www.w3.org/2000/svg">
<path d="M26.9504 27.7696H30.8904C30.8904 27.7696 31.0404 24.0196 29.3804 20.9096C27.7204 17.7896 26.3404 15.4496 26.3404 11.5596H22.4004C22.4004 15.4496 23.7804 17.7896 25.4404 20.9096C27.1004 24.0296 26.9504 27.7696 26.9504 27.7696Z" fill="#8DE2E0"/>
<path d="M26.9511 43.5997C26.9511 44.4897 26.1311 45.2197 25.1211 45.2197H29.0611C30.0711 45.2197 30.8911 44.4997 30.8911 43.5997V40.4697H26.9511V43.5997Z" fill="#8DE2E0"/>
<path d="M30.269 20.4305L29.979 19.9005C28.449 17.0405 27.339 14.9705 27.339 11.5505V3.15047C27.339 2.36047 26.679 1.73047 25.859 1.73047H22.119C21.309 1.73047 20.639 2.37047 20.639 3.15047V11.5505C20.639 14.9605 19.529 17.0305 17.999 19.9005L17.709 20.4305C16.029 23.5905 16.069 27.2605 16.089 27.7505C16.089 27.7505 16.089 27.7505 16.089 27.7705V43.6105C16.089 45.0505 17.359 46.2305 18.919 46.2305H29.059C30.619 46.2305 31.889 45.0605 31.889 43.6105V27.7805C31.899 27.4305 31.989 23.6705 30.269 20.4405V20.4305ZM18.099 28.7705H29.889V39.4805H18.099V28.7705ZM25.349 3.72047V10.5505H22.659V3.72047H25.349ZM19.779 20.8405C21.189 18.2105 22.409 15.9005 22.609 12.5505H25.389C25.599 15.9005 26.819 18.2105 28.219 20.8405L28.499 21.3705C29.529 23.2905 29.799 25.5205 29.869 26.7605H18.119C18.189 25.5205 18.459 23.2905 19.489 21.3705L19.769 20.8405H19.779ZM29.069 44.2205H18.929C18.479 44.2205 18.099 43.9405 18.099 43.6005V41.4705H29.889V43.6005C29.889 43.9405 29.509 44.2205 29.059 44.2205H29.069Z" fill="#323232"/>
</svg>
