<svg width="48" height="48" viewBox="0 0 48 48" fill="none" xmlns="http://www.w3.org/2000/svg">
<path d="M27.9009 10.8203H9.21094C8.66094 10.8203 8.21094 10.3703 8.21094 9.82031C8.21094 9.27031 8.66094 8.82031 9.21094 8.82031H27.9009C28.4509 8.82031 28.9009 9.27031 28.9009 9.82031C28.9009 10.3703 28.4509 10.8203 27.9009 10.8203Z" fill="#DF0000"/>
<path d="M27.9009 16.7402H9.21094C8.66094 16.7402 8.21094 16.2902 8.21094 15.7402C8.21094 15.1902 8.66094 14.7402 9.21094 14.7402H27.9009C28.4509 14.7402 28.9009 15.1902 28.9009 15.7402C28.9009 16.2902 28.4509 16.7402 27.9009 16.7402Z" fill="#DF0000"/>
<path d="M44.4248 24.4965L42.7539 21.5469L15.9984 36.7029L17.6693 39.6525L44.4248 24.4965Z" fill="#8DE2E0"/>
<path d="M44.6696 22.8905L42.5796 19.2005C41.9596 18.1105 40.5796 17.7305 39.4896 18.3405L13.8696 32.8605C13.7596 32.9205 13.6696 33.0005 13.5796 33.1005C13.5596 33.1205 13.5396 33.1405 13.5296 33.1605C13.5096 33.1805 13.4896 33.2005 13.4796 33.2205L9.89963 39.1405C9.70963 39.4505 9.70964 39.8405 9.88964 40.1505C10.0696 40.4605 10.3996 40.6605 10.7596 40.6605L17.6796 40.6305C17.6796 40.6305 17.7096 40.6305 17.7196 40.6305C17.7896 40.6305 17.8596 40.6205 17.9296 40.6005C17.9796 40.5905 18.0196 40.5705 18.0596 40.5505C18.0996 40.5405 18.1296 40.5305 18.1696 40.5105L43.8196 25.9805C44.3496 25.6805 44.7296 25.1905 44.8896 24.6105C45.0496 24.0305 44.9796 23.4105 44.6796 22.8905H44.6696ZM12.5296 38.6705L14.3096 35.7305L15.9696 38.6605H12.5396L12.5296 38.6705ZM42.9596 24.0805C42.9596 24.0805 42.9096 24.2005 42.8296 24.2405L18.0496 38.2805L16.8696 36.2005L15.6896 34.1205L40.4696 20.0805C40.5996 20.0105 40.7596 20.0505 40.8396 20.1805L42.9296 23.8705C42.9796 23.9505 42.9696 24.0305 42.9496 24.0705L42.9596 24.0805Z" fill="#323232"/>
<path d="M31.3301 45.2305H5.79008C4.02008 45.2305 2.58008 43.7905 2.58008 42.0205V5.99049C2.58008 5.13049 2.91008 4.32049 3.52008 3.72049C4.13008 3.11049 4.95008 2.77049 5.80008 2.78049L31.3401 2.83049C33.1101 2.83049 34.5501 4.27049 34.5501 6.04049V19.1805C34.5501 19.7305 34.1001 20.1805 33.5501 20.1805C33.0001 20.1805 32.5501 19.7305 32.5501 19.1805V6.04049C32.5501 5.37049 32.0101 4.83049 31.3401 4.83049L5.80008 4.78049C5.45008 4.78049 5.17008 4.90049 4.94008 5.13049C4.71008 5.36049 4.58008 5.66049 4.58008 5.99049V42.0205C4.58008 42.6905 5.12008 43.2305 5.79008 43.2305H31.3301C32.0001 43.2305 32.5401 42.6905 32.5401 42.0205V34.7805C32.5401 34.2305 32.9901 33.7805 33.5401 33.7805C34.0901 33.7805 34.5401 34.2305 34.5401 34.7805V42.0205C34.5401 43.7905 33.1001 45.2305 31.3301 45.2305Z" fill="#323232"/>
</svg>
