<svg width="24" height="24" viewBox="0 0 24 24" fill="none" xmlns="http://www.w3.org/2000/svg">
<g clip-path="url(#clip0_16335_6068)">
<path d="M23.6789 14.7567C25.2013 8.30653 21.2066 1.84347 14.7564 0.321091C8.30617 -1.20129 1.84311 2.79349 0.320729 9.24368C-1.20165 15.6939 2.79312 22.1569 9.24332 23.6793C15.6935 25.2017 22.1566 21.2069 23.6789 14.7567Z" fill="white"/>
<mask id="mask0_16335_6068" style="mask-type:luminance" maskUnits="userSpaceOnUse" x="-1" y="-1" width="26" height="26">
<path d="M23.6789 14.7567C25.2013 8.30653 21.2066 1.84347 14.7564 0.321091C8.30617 -1.20129 1.84311 2.79349 0.320729 9.24368C-1.20165 15.6939 2.79312 22.1569 9.24332 23.6793C15.6935 25.2017 22.1566 21.2069 23.6789 14.7567Z" fill="white"/>
</mask>
<g mask="url(#mask0_16335_6068)">
<path d="M30.0007 0H-5.99933V24H30.0007V0Z" fill="white"/>
<path d="M30.0007 0H12V24H30.0007V0Z" fill="#FF0000"/>
<path fill-rule="evenodd" clip-rule="evenodd" d="M5.39695 10.1875C5.10628 10.1148 4.87849 9.92477 4.77228 9.63549C4.75971 9.60056 4.74853 9.56562 4.73875 9.52929H2.8913C2.77392 9.52929 2.67749 9.43286 2.67749 9.31548V7.36602C2.67749 7.24863 2.77392 7.15221 2.8913 7.15221H4.73875C4.81141 6.86153 5.00147 6.63375 5.29074 6.52754C5.32568 6.51496 5.36062 6.50378 5.39695 6.4954V4.64795C5.39695 4.53057 5.49338 4.43414 5.61076 4.43414H7.56022C7.67761 4.43414 7.77403 4.53057 7.77403 4.64795V6.4954C8.0647 6.56807 8.29249 6.75812 8.3987 7.0474C8.41127 7.08233 8.42245 7.11727 8.43224 7.1536H10.2797C10.3971 7.1536 10.4935 7.25003 10.4935 7.36741V9.31687C10.4935 9.43426 10.3971 9.53068 10.2797 9.53068H8.43224C8.35957 9.82136 8.16951 10.0491 7.88024 10.1553C7.8453 10.1679 7.81037 10.1791 7.77403 10.1889V12.0363C7.77403 12.1537 7.67761 12.2501 7.56022 12.2501H5.61076C5.49338 12.2501 5.39695 12.1537 5.39695 12.0363V10.1889V10.1875Z" fill="#FF0000"/>
<path fill-rule="evenodd" clip-rule="evenodd" d="M5.4794 10.1204C5.34944 10.0966 5.23345 10.0491 5.13563 9.98205C4.95256 9.85488 4.84495 9.66343 4.80583 9.44682H2.8913C2.85497 9.44682 2.82283 9.43145 2.79767 9.40769C2.77392 9.38393 2.75854 9.3504 2.75854 9.31406V7.3646C2.75854 7.32827 2.77392 7.29613 2.79767 7.27097C2.82143 7.24722 2.85497 7.23184 2.8913 7.23184H4.80583C4.82958 7.10188 4.8771 6.98589 4.94417 6.88807C5.07134 6.705 5.2628 6.5974 5.4794 6.55827V4.64375C5.4794 4.60741 5.49477 4.57527 5.51853 4.55012C5.54229 4.52636 5.57583 4.51099 5.61216 4.51099H7.56162C7.59795 4.51099 7.63149 4.52636 7.65525 4.55012C7.67901 4.57387 7.69438 4.60741 7.69438 4.64375V6.55827C7.82434 6.58202 7.94033 6.62954 8.03815 6.69662C8.22122 6.82378 8.32883 7.01524 8.36795 7.23184H10.2825C10.3188 7.23184 10.351 7.24722 10.3761 7.27097C10.3999 7.29473 10.4152 7.32827 10.4152 7.3646V9.31406C10.4152 9.3504 10.3999 9.38254 10.3761 9.40769C10.3523 9.43145 10.3188 9.44682 10.2825 9.44682H8.36795C8.3442 9.57678 8.29668 9.69277 8.22961 9.7906C8.10244 9.97366 7.91098 10.0813 7.69438 10.1204V12.0349C7.69438 12.0713 7.67901 12.1034 7.65525 12.1285C7.63149 12.1523 7.59935 12.1677 7.56302 12.1677H5.61356C5.57722 12.1677 5.54369 12.1523 5.51993 12.1285C5.49617 12.1048 5.4808 12.0713 5.4808 12.0349V10.1204H5.4794Z" fill="black"/>
<path fill-rule="evenodd" clip-rule="evenodd" d="M5.40118 6.97892L5.18177 6.75952C5.1692 6.76791 5.15662 6.77769 5.14404 6.78747L5.37323 7.01665C5.38301 7.00408 5.39279 6.9915 5.40118 6.97892Z" fill="#96877D"/>
<path fill-rule="evenodd" clip-rule="evenodd" d="M5.02245 6.91182L5.14264 7.12004C5.14264 7.12004 5.14264 7.12702 5.13984 7.12842C5.13844 7.12842 5.13705 7.12842 5.13565 7.12842L4.93022 7.07392C4.92463 7.0879 4.91904 7.10327 4.91345 7.11864L5.17478 7.18851C5.19015 7.18013 5.20552 7.17035 5.22089 7.16056L5.05599 6.87408C5.04481 6.88666 5.03363 6.89924 5.02385 6.91321L5.02245 6.91182Z" fill="#96877D"/>
<path fill-rule="evenodd" clip-rule="evenodd" d="M4.80303 7.35762C4.98191 7.34644 5.13703 7.29333 5.2628 7.20669C5.38997 7.11865 5.48639 6.99428 5.54369 6.84195L5.43189 6.73016L5.35643 6.80562L5.45565 6.90484C5.45565 6.90484 5.45844 6.91043 5.45565 6.91322C5.41233 6.99567 5.35363 7.06834 5.28376 7.12704C5.21389 7.18573 5.13144 7.23185 5.0392 7.26259C4.99868 7.27517 4.95116 7.27237 4.91902 7.24163C4.88688 7.20949 4.88548 7.16197 4.89806 7.12005C4.933 7.01524 4.9875 6.9244 5.05877 6.84894C5.12864 6.77488 5.21389 6.71478 5.3145 6.67426V6.62115C5.16498 6.67845 5.042 6.77348 4.95396 6.89925C4.86732 7.02502 4.81421 7.18014 4.80164 7.35901L4.80303 7.35762Z" fill="#96877D"/>
<path fill-rule="evenodd" clip-rule="evenodd" d="M7.94734 7.15642L8.16674 6.93702C8.15836 6.92445 8.14857 6.91187 8.13879 6.89929L7.90961 7.12848C7.92218 7.13826 7.93476 7.14804 7.94734 7.15642Z" fill="#96877D"/>
<path fill-rule="evenodd" clip-rule="evenodd" d="M8.01443 6.7777L7.80621 6.89788C7.80621 6.89788 7.79922 6.89788 7.79782 6.89509C7.79782 6.89369 7.79782 6.8923 7.79782 6.8909L7.85232 6.68547C7.83835 6.67988 7.82298 6.67429 7.8076 6.6687L7.73773 6.93003C7.74612 6.9454 7.7559 6.96077 7.76568 6.97475L8.05216 6.80984C8.03958 6.79866 8.02701 6.78888 8.01303 6.7777H8.01443Z" fill="#96877D"/>
<path fill-rule="evenodd" clip-rule="evenodd" d="M7.5686 6.55828C7.57978 6.73715 7.63289 6.89227 7.71953 7.01664C7.80757 7.14381 7.93194 7.24024 8.08427 7.29753L8.19606 7.18574L8.1206 7.11027L8.02138 7.20949C8.02138 7.20949 8.01579 7.21229 8.013 7.20949C7.93055 7.16617 7.85788 7.10748 7.79918 7.03761C7.74049 6.96773 7.69438 6.88528 7.66363 6.79305C7.65105 6.75252 7.65385 6.70501 7.68459 6.67287C7.71673 6.64073 7.76425 6.63933 7.80617 6.65191C7.91098 6.68684 8.00182 6.74134 8.07728 6.81261C8.15134 6.88249 8.21144 6.96773 8.25196 7.06835H8.30507C8.24777 6.91882 8.15274 6.79584 8.02697 6.7078C7.9026 6.62116 7.74608 6.56806 7.5686 6.55548V6.55828Z" fill="#96877D"/>
<path fill-rule="evenodd" clip-rule="evenodd" d="M5.22367 9.52509L5.00427 9.74449C5.01266 9.75846 5.02244 9.76964 5.03222 9.78222L5.26141 9.55303C5.24883 9.54325 5.23625 9.53347 5.22367 9.52509Z" fill="#96877D"/>
<path fill-rule="evenodd" clip-rule="evenodd" d="M5.15522 9.90382L5.36344 9.78364C5.36344 9.78364 5.37043 9.78364 5.37182 9.78644C5.37182 9.78783 5.37182 9.78923 5.37182 9.79063L5.31732 9.99606C5.3313 10.0016 5.34667 10.0072 5.36064 10.0128L5.43052 9.7515C5.42213 9.73613 5.41235 9.72076 5.40257 9.70538L5.11609 9.87028C5.12867 9.88146 5.14124 9.89125 5.15522 9.90243V9.90382Z" fill="#96877D"/>
<path fill-rule="evenodd" clip-rule="evenodd" d="M5.60102 10.1232C5.58984 9.94435 5.53674 9.78924 5.45009 9.66486C5.36205 9.53769 5.23768 9.44127 5.08536 9.38397L4.97356 9.49577L5.04902 9.57123L5.14824 9.47201C5.14824 9.47201 5.15383 9.46922 5.15523 9.47201C5.23908 9.51533 5.31035 9.57403 5.36904 9.6439C5.42773 9.71377 5.47385 9.79622 5.50459 9.88846C5.51717 9.92898 5.51438 9.9765 5.48363 10.0086C5.45149 10.0408 5.40398 10.0422 5.36205 10.0296C5.25724 9.99466 5.16641 9.94016 5.09095 9.86889C5.01688 9.79902 4.95679 9.71377 4.91626 9.61316H4.86316C4.92046 9.76268 5.01548 9.88566 5.14125 9.9737C5.26563 10.0603 5.42214 10.1134 5.59962 10.126L5.60102 10.1232Z" fill="#96877D"/>
<path fill-rule="evenodd" clip-rule="evenodd" d="M7.76984 9.70259L7.98924 9.92199C8.00181 9.9136 8.01439 9.90382 8.02697 9.89404L7.79779 9.66486C7.788 9.67743 7.77822 9.69001 7.76984 9.70259Z" fill="#96877D"/>
<path fill-rule="evenodd" clip-rule="evenodd" d="M8.14718 9.77102L8.02699 9.5628C8.02699 9.5628 8.02699 9.55581 8.02979 9.55441C8.03119 9.55441 8.03258 9.55441 8.03398 9.55441L8.23941 9.60892C8.245 9.59494 8.25059 9.57957 8.25618 9.5642L7.99485 9.49432C7.97948 9.50271 7.96411 9.51249 7.95013 9.52227L8.11503 9.80875C8.12621 9.79618 8.13739 9.7836 8.14718 9.76962V9.77102Z" fill="#96877D"/>
<path fill-rule="evenodd" clip-rule="evenodd" d="M8.36657 9.32385C8.18769 9.33503 8.03258 9.38814 7.90681 9.47478C7.77964 9.56282 7.68321 9.68719 7.62592 9.83952L7.73771 9.95131L7.81318 9.87585L7.71396 9.77663C7.71396 9.77663 7.71116 9.77104 7.71396 9.76964C7.75728 9.6858 7.81597 9.61452 7.88584 9.55583C7.95572 9.49714 8.03817 9.45102 8.1304 9.42028C8.17093 9.4077 8.21844 9.41049 8.25058 9.44124C8.28272 9.47338 8.28412 9.52089 8.27154 9.56282C8.23661 9.66763 8.18211 9.75846 8.11083 9.83393C8.04096 9.90799 7.95572 9.96808 7.8551 10.0086V10.0617C8.00463 10.0044 8.1276 9.90939 8.21564 9.78362C8.30229 9.65924 8.35539 9.50273 8.36797 9.32525L8.36657 9.32385Z" fill="#96877D"/>
<path fill-rule="evenodd" clip-rule="evenodd" d="M7.07953 7.54352C7.0935 7.54352 7.10608 7.5547 7.10608 7.57007C7.10608 7.58544 7.0949 7.59662 7.07953 7.59662C7.06416 7.59662 7.05298 7.58544 7.05298 7.57007C7.05298 7.5547 7.06416 7.54352 7.07953 7.54352Z" fill="#96877D"/>
<path fill-rule="evenodd" clip-rule="evenodd" d="M7.22346 7.54626V7.53788C7.22346 7.5239 7.21368 7.51133 7.1997 7.50853L7.18573 7.50574V7.51412C7.18573 7.5281 7.19551 7.54067 7.20949 7.54347L7.22206 7.54766L7.22346 7.54626Z" fill="#96877D"/>
<path fill-rule="evenodd" clip-rule="evenodd" d="M6.82241 9.50277C6.8252 9.49438 6.82101 9.4846 6.81123 9.4818L5.74776 9.15759C5.74776 9.15759 5.74357 9.16738 5.74217 9.17296C5.74077 9.17855 5.73937 9.18275 5.73798 9.18834L6.80144 9.51255C6.80983 9.51534 6.81821 9.50975 6.82101 9.50137L6.82241 9.50277Z" fill="#96877D"/>
<path fill-rule="evenodd" clip-rule="evenodd" d="M6.0943 9.44264C6.10688 9.43006 6.12365 9.42308 6.14321 9.42308H6.17675C6.17675 9.42308 6.18933 9.42028 6.19352 9.41609C6.19771 9.4119 6.20051 9.40631 6.20051 9.39932C6.20051 9.39233 6.19771 9.38674 6.19352 9.38255C6.18933 9.37836 6.18374 9.37556 6.17675 9.37556H6.11386C6.08731 9.37556 6.06216 9.36578 6.04399 9.34901C6.02582 9.33364 6.01464 9.31128 6.01185 9.28612L5.96154 9.27075H5.70441C5.81341 9.37416 5.94198 9.45941 6.08172 9.5195C6.07753 9.51112 6.07473 9.50133 6.07473 9.49015C6.07473 9.47199 6.08172 9.45522 6.0943 9.44264Z" fill="#96877D"/>
<path fill-rule="evenodd" clip-rule="evenodd" d="M6.10268 9.45105C6.0929 9.46083 6.08731 9.47481 6.08731 9.49018C6.08731 9.50136 6.0901 9.51254 6.09709 9.52092C6.10268 9.52791 6.10827 9.5335 6.11665 9.53769C6.12224 9.52512 6.13063 9.51394 6.14181 9.50555C6.15438 9.49577 6.16976 9.49018 6.18792 9.49018H6.20889C6.23404 9.49018 6.2564 9.4804 6.27317 9.46363C6.28994 9.44686 6.29972 9.4245 6.29972 9.39935C6.29972 9.38956 6.29972 9.38118 6.29553 9.37279L6.02582 9.29034C6.03001 9.30991 6.03979 9.32668 6.05377 9.33926C6.07054 9.35463 6.0915 9.36301 6.11526 9.36301H6.17814C6.18792 9.36301 6.19771 9.3672 6.2033 9.37279C6.21028 9.37978 6.21448 9.38817 6.21448 9.39795C6.21448 9.40773 6.21028 9.41612 6.2033 9.4231C6.19631 9.43009 6.18792 9.43428 6.17814 9.43428H6.1446C6.12923 9.43428 6.11526 9.43987 6.10547 9.44965L6.10268 9.45105Z" fill="#96877D"/>
<path fill-rule="evenodd" clip-rule="evenodd" d="M6.18515 9.08911C6.18095 9.10029 6.17956 9.11147 6.17956 9.12265C6.17956 9.14082 6.18375 9.15759 6.19213 9.17296C6.19493 9.17715 6.19213 9.18274 6.18654 9.18274H6.11108C6.09291 9.18274 6.07475 9.18833 6.06077 9.19811C6.0482 9.2065 6.03702 9.21908 6.03003 9.23305L6.14742 9.26799C6.14742 9.26799 6.15999 9.2582 6.16698 9.2582H6.32489V9.2051C6.32489 9.19532 6.3207 9.18693 6.31511 9.17995C6.30812 9.17296 6.29974 9.17016 6.28996 9.17016H6.2676C6.2676 9.17016 6.2648 9.17016 6.26341 9.16877L6.18515 9.08911Z" fill="#96877D"/>
<path fill-rule="evenodd" clip-rule="evenodd" d="M5.66669 8.33024C5.64573 8.31766 5.62337 8.31207 5.59961 8.31207C5.56188 8.31207 5.52834 8.32744 5.50458 8.3512C5.48083 8.37496 5.46545 8.4085 5.46545 8.44623C5.46545 8.48676 5.48222 8.52309 5.51297 8.54964C5.54231 8.5748 5.55908 8.61951 5.55908 8.65725C5.55908 8.681 5.55349 8.70476 5.54231 8.72572C5.53253 8.74529 5.52834 8.76485 5.52834 8.78721C5.52834 8.81935 5.53952 8.8501 5.56048 8.87525C5.58424 8.9032 5.58703 8.94512 5.56887 8.97726C5.6052 8.97167 5.65551 8.95351 5.67368 8.92137C5.68625 8.89761 5.68625 8.86966 5.67088 8.8459C5.66389 8.83612 5.6611 8.81795 5.6611 8.80677C5.6611 8.78022 5.67507 8.75367 5.69603 8.7383C5.7156 8.72432 5.72538 8.70336 5.72538 8.67961C5.72538 8.66563 5.72119 8.65166 5.7142 8.64048C5.70023 8.61672 5.68346 8.59576 5.66389 8.57619C5.64433 8.55663 5.62337 8.53846 5.60101 8.52449C5.56188 8.49794 5.55629 8.44064 5.58983 8.4057C5.61358 8.38195 5.64852 8.37636 5.67787 8.39033C5.7156 8.4085 5.74634 8.41549 5.78827 8.41549C5.80783 8.41549 5.826 8.41269 5.84556 8.4085C5.83997 8.39313 5.83578 8.37775 5.83299 8.36238C5.81901 8.36518 5.80364 8.36657 5.78827 8.36657C5.74495 8.36657 5.70302 8.35539 5.66669 8.33443V8.33024ZM5.53672 8.42387C5.53672 8.42387 5.53393 8.43086 5.53113 8.43086C5.52834 8.43086 5.52415 8.42806 5.52415 8.42387C5.52415 8.40151 5.53393 8.38055 5.5479 8.36657C5.56328 8.3512 5.58284 8.34282 5.6052 8.34282C5.60939 8.34282 5.61219 8.34561 5.61219 8.3498C5.61219 8.354 5.60939 8.35539 5.6052 8.35539C5.58564 8.35539 5.56887 8.36378 5.55629 8.37636C5.54371 8.38893 5.53533 8.4057 5.53533 8.42527L5.53672 8.42387ZM5.58424 8.80118C5.58424 8.80118 5.58424 8.80817 5.58005 8.80957C5.57725 8.80957 5.57306 8.80957 5.57166 8.80538C5.56747 8.79559 5.56607 8.78441 5.56747 8.77323C5.56747 8.76206 5.57026 8.75227 5.57446 8.74249C5.57585 8.7397 5.58005 8.7383 5.58284 8.7397C5.58564 8.7397 5.58703 8.74529 5.58564 8.74808C5.58144 8.75647 5.58005 8.76485 5.57865 8.77463C5.57865 8.78302 5.57865 8.7928 5.58284 8.80118H5.58424ZM5.65271 8.72712C5.65271 8.72712 5.64573 8.72991 5.64433 8.72712C5.64153 8.72432 5.64153 8.72013 5.64433 8.71873C5.6583 8.70476 5.66529 8.68799 5.66529 8.66982C5.66529 8.65166 5.6583 8.63489 5.64433 8.62091C5.64153 8.61812 5.64153 8.61392 5.64433 8.61253C5.64712 8.60973 5.65132 8.60973 5.65271 8.61253C5.66809 8.6279 5.67647 8.64886 5.67647 8.66982C5.67647 8.69078 5.66809 8.71175 5.65271 8.72712Z" fill="#96877D"/>
<path fill-rule="evenodd" clip-rule="evenodd" d="M7.12003 8.81519C7.11584 8.82357 7.10885 8.83195 7.10187 8.83894C7.11444 8.84593 7.12702 8.85292 7.1396 8.8599C7.13121 8.84593 7.12423 8.83056 7.12003 8.81519Z" fill="#96877D"/>
<path fill-rule="evenodd" clip-rule="evenodd" d="M7.11726 9.0667L7.16337 8.98705C7.16337 8.98705 7.17036 8.98285 7.17315 8.98565C7.17874 8.99124 7.18713 8.99543 7.19551 8.99543C7.2039 8.99543 7.21228 8.99124 7.21787 8.98565C7.22346 8.98006 7.22765 8.97167 7.22765 8.96329C7.22765 8.9563 7.22486 8.94931 7.22067 8.94372C7.2025 8.92276 7.18154 8.9046 7.15918 8.88783C7.13682 8.87106 7.11306 8.85708 7.08791 8.8445C7.08372 8.84311 7.08372 8.83612 7.08791 8.83332C7.10747 8.82075 7.12005 8.79839 7.12005 8.77463C7.12005 8.74948 7.10747 8.72852 7.08651 8.71454C7.02363 8.67262 6.95375 8.63908 6.87969 8.61672C6.78606 8.58877 6.69243 8.57899 6.5946 8.58458C6.61976 8.59855 6.63513 8.62371 6.63513 8.65305C6.63513 8.66842 6.63094 8.6838 6.62116 8.69637C6.65889 8.68799 6.69802 8.6838 6.73715 8.6838C6.82798 8.6838 6.91602 8.70616 6.99428 8.75087C6.99707 8.75227 6.99847 8.75646 6.99707 8.75926C6.99568 8.76205 6.99148 8.76345 6.98869 8.76205C6.91183 8.71873 6.82519 8.69777 6.73715 8.69777C6.705 8.69777 6.67286 8.70057 6.64212 8.70616C6.65889 8.71175 6.67286 8.72013 6.68404 8.73131C6.70221 8.74948 6.71339 8.77463 6.71339 8.80258C6.71339 8.80538 6.71339 8.80957 6.71339 8.81236C6.7623 8.79839 6.81261 8.7914 6.86431 8.7914C6.90344 8.7914 6.94117 8.79559 6.97891 8.80398C6.9817 8.80398 6.9845 8.80817 6.9831 8.81097C6.9831 8.81376 6.97891 8.81656 6.97611 8.81516C6.93978 8.80677 6.90205 8.80258 6.86431 8.80258C6.84615 8.80258 6.82798 8.80258 6.80981 8.80538C6.8196 8.80957 6.82658 8.81516 6.83357 8.82215C6.84894 8.83752 6.85733 8.85988 6.85733 8.88224C6.89226 8.87106 6.9286 8.86686 6.96633 8.86686C6.9831 8.86686 6.99987 8.86686 7.01524 8.86966C7.01804 8.86966 7.02083 8.87385 7.02083 8.87665C7.02083 8.87944 7.01664 8.88224 7.01384 8.88224C6.99847 8.87944 6.9817 8.87944 6.96633 8.87944C6.93698 8.87944 6.90764 8.88224 6.87829 8.89062C6.88807 8.89481 6.89646 8.9004 6.90344 8.90739C6.91742 8.92276 6.9258 8.94093 6.9258 8.96189C6.93978 8.95071 6.95515 8.94093 6.97052 8.93254C6.99148 8.92276 7.01245 8.91438 7.0362 8.90879C7.04039 8.90879 7.04319 8.91019 7.04319 8.91438C7.04319 8.91717 7.04179 8.92137 7.0376 8.92137C7.01524 8.92556 6.99428 8.93394 6.97471 8.94372C6.96353 8.94931 6.95096 8.9563 6.94117 8.96469C6.94397 8.96469 6.94537 8.96469 6.94816 8.96469C6.97052 8.96469 6.99009 8.97167 7.00546 8.98565C7.01804 8.99543 7.02782 9.00941 7.03341 9.02478C7.04459 9.00941 7.05716 8.99403 7.07114 8.98146C7.08931 8.96608 7.10887 8.95211 7.13123 8.94233C7.13402 8.94093 7.13822 8.94233 7.13961 8.94512C7.14101 8.94792 7.13961 8.95211 7.13682 8.95351C7.11586 8.96329 7.09769 8.97587 7.08092 8.99124C7.06695 9.00242 7.05577 9.01639 7.04459 9.03037C7.04738 9.03037 7.04878 9.03037 7.05157 9.03037C7.06695 9.03037 7.08232 9.03456 7.0949 9.04294C7.10608 9.04993 7.11306 9.05692 7.12005 9.0667H7.11726ZM7.06415 8.77463C7.06415 8.77463 7.06136 8.78162 7.05716 8.78162C7.05297 8.78162 7.05018 8.77882 7.05018 8.77463C7.05018 8.75227 7.039 8.73411 7.01943 8.72432C6.97611 8.69917 6.93 8.67821 6.88108 8.66144C6.87829 8.66144 6.87549 8.65724 6.87689 8.65305C6.87689 8.65026 6.88108 8.64746 6.88528 8.64886C6.93419 8.66563 6.9803 8.68659 7.02502 8.71314C7.04738 8.72572 7.06136 8.74948 7.06136 8.77463H7.06415Z" fill="#96877D"/>
<path fill-rule="evenodd" clip-rule="evenodd" d="M7.0893 8.64193C7.08371 8.6601 7.07952 8.67826 7.07672 8.69643C7.08091 8.69922 7.0865 8.70342 7.0907 8.70621C7.10607 8.71599 7.11725 8.72857 7.12423 8.74534C7.13122 8.72717 7.141 8.70901 7.15638 8.69503C7.16895 8.68246 7.18293 8.67267 7.1983 8.66708C7.1983 8.66149 7.1983 8.6559 7.1983 8.65171C7.1983 8.63215 7.20249 8.61398 7.20948 8.59721C7.21647 8.58184 7.22765 8.56786 7.24022 8.55529C7.23324 8.53852 7.23044 8.51895 7.23044 8.50079C7.23044 8.47144 7.23883 8.44209 7.2542 8.41833C7.22625 8.4379 7.2011 8.46026 7.17734 8.48541C7.14799 8.51755 7.12424 8.55389 7.10747 8.59441H7.16476C7.16476 8.59441 7.17035 8.59721 7.17035 8.6014C7.17035 8.62656 7.15079 8.64612 7.12563 8.64612H7.0893V8.64193Z" fill="#96877D"/>
<path fill-rule="evenodd" clip-rule="evenodd" d="M5.83994 8.13883L5.93497 8.0438L5.9168 8.02563L5.82178 8.12066L5.83994 8.13883Z" fill="#96877D"/>
<path fill-rule="evenodd" clip-rule="evenodd" d="M5.87488 8.12066L6.14738 8.39316L6.19629 8.40015L6.18931 8.35124L5.9168 8.07874L5.87488 8.12066Z" fill="#96877D"/>
<path fill-rule="evenodd" clip-rule="evenodd" d="M6.03283 8.17655L6.19913 8.34424C6.19913 8.34424 6.20053 8.34704 6.20053 8.34844L6.20891 8.40713C6.20891 8.40713 6.20612 8.41551 6.20193 8.41412L6.14323 8.40573C6.14323 8.40573 6.14044 8.40573 6.13904 8.40433L5.95877 8.22406C5.93641 8.24223 5.91545 8.2604 5.89588 8.28276C5.87632 8.30511 5.85815 8.32887 5.84418 8.35403C5.85675 8.41831 5.8847 8.477 5.92383 8.52731C5.96436 8.57762 6.01606 8.61954 6.07616 8.6461C6.07895 8.6461 6.08175 8.65029 6.08035 8.65308C6.07336 8.68103 6.06218 8.70758 6.0496 8.73274C6.03703 8.75789 6.02165 8.78165 6.00349 8.80401C5.99371 8.81659 5.98812 8.83196 5.98812 8.84733C5.98812 8.87528 5.9993 8.88646 6.01606 8.90323C6.10131 8.98847 6.18656 9.07372 6.2704 9.15757H6.28997C6.30254 9.15757 6.31512 9.16316 6.32351 9.17154C6.33189 9.17993 6.33748 9.1925 6.33748 9.20508V9.25818H6.46884C6.45627 9.23163 6.4395 9.20787 6.41993 9.18691C6.39757 9.16455 6.36962 9.14639 6.34028 9.13381C6.34028 9.13381 6.33888 9.13381 6.33748 9.13241L6.12367 8.9186C6.11249 8.90463 6.1069 8.88786 6.1069 8.86969C6.1069 8.85571 6.10969 8.84314 6.11668 8.83056L6.14743 8.77746C6.14743 8.77746 6.14743 8.77606 6.15022 8.77466C6.20472 8.74671 6.25503 8.70758 6.29695 8.66426C6.33888 8.62094 6.37242 8.57063 6.39897 8.51473C6.3822 8.49377 6.36403 8.47421 6.34307 8.45604C6.32211 8.43787 6.29975 8.4211 6.2746 8.40573C6.2718 8.40573 6.2718 8.40154 6.2718 8.39874C6.27599 8.37499 6.27739 8.34983 6.27739 8.32608C6.27739 8.29114 6.2732 8.2562 6.26621 8.22406C6.25922 8.19192 6.24804 8.15978 6.23407 8.13043C6.19634 8.13043 6.16 8.13462 6.12507 8.14301C6.09153 8.15139 6.06078 8.16257 6.03004 8.17795L6.03283 8.17655ZM6.21311 8.65867C6.21311 8.65867 6.2187 8.65588 6.22149 8.65867C6.22429 8.66147 6.22429 8.66426 6.22149 8.66706C6.20752 8.68383 6.19215 8.7006 6.17677 8.71457C6.1614 8.72855 6.14323 8.74252 6.12646 8.7551C6.12367 8.75649 6.11948 8.75649 6.11808 8.7537C6.11668 8.7509 6.11808 8.74671 6.11948 8.74532C6.13764 8.73274 6.15302 8.72016 6.16979 8.70479C6.18516 8.69081 6.20053 8.67404 6.21311 8.65867ZM6.14044 8.52871C6.14044 8.52871 6.14743 8.5315 6.14743 8.5357C6.14743 8.53989 6.14463 8.54268 6.14044 8.54268C6.09153 8.54268 6.04541 8.53011 6.00489 8.51054C5.96296 8.48818 5.92523 8.45744 5.89868 8.41831C5.89728 8.41551 5.89728 8.41132 5.90008 8.40992C5.90287 8.40853 5.90706 8.40992 5.90846 8.41132C5.93501 8.44766 5.96995 8.4784 6.01047 8.49936C6.0496 8.51893 6.09432 8.53011 6.14044 8.53011V8.52871ZM6.2173 8.57063C6.2173 8.57063 6.22429 8.57063 6.22568 8.57343C6.22708 8.57622 6.22568 8.58041 6.22289 8.58181C6.19494 8.59718 6.1628 8.60417 6.13066 8.60417C6.09852 8.60417 6.06777 8.59718 6.03842 8.58181C6.03563 8.58041 6.03423 8.57622 6.03563 8.57343C6.03703 8.57063 6.04122 8.56924 6.04401 8.57063C6.07057 8.58461 6.09991 8.59159 6.12926 8.59159C6.15861 8.59159 6.18795 8.58461 6.2145 8.57063H6.2173Z" fill="#96877D"/>
<path fill-rule="evenodd" clip-rule="evenodd" d="M6.41151 8.50772C6.42828 8.50912 6.44645 8.51191 6.46322 8.51191C6.48139 8.51191 6.49955 8.51331 6.51912 8.51331C6.57502 8.51331 6.63092 8.50772 6.68402 8.49794C6.73573 8.48815 6.78743 8.47418 6.83494 8.45461L6.79861 8.39033C6.77765 8.38474 6.75948 8.37077 6.7483 8.3512L6.67284 8.22124C6.66306 8.20447 6.64769 8.19608 6.62812 8.19888C6.5834 8.20307 6.54008 8.20028 6.49676 8.19189C6.46741 8.1863 6.43946 8.17792 6.41151 8.16813C6.37518 8.17233 6.33885 8.16953 6.30391 8.15975C6.28574 8.15416 6.26897 8.14717 6.2536 8.13739C6.26478 8.16254 6.27317 8.19049 6.28015 8.21844C6.28854 8.25198 6.29133 8.28832 6.29133 8.32325C6.29133 8.34701 6.28994 8.37077 6.28574 8.39452C6.3095 8.4085 6.33186 8.42527 6.35282 8.44343C6.37378 8.4616 6.39335 8.48256 6.41012 8.50492L6.41151 8.50772ZM6.68402 8.41549C6.68402 8.41549 6.69101 8.41828 6.69101 8.42107C6.69101 8.42387 6.68821 8.42806 6.68542 8.42806C6.65747 8.43086 6.63092 8.43225 6.60297 8.43225C6.56943 8.43225 6.53729 8.43086 6.50514 8.42666C6.473 8.42247 6.44086 8.41688 6.40872 8.4085C6.40592 8.4085 6.40313 8.40431 6.40453 8.40151C6.40453 8.39872 6.40872 8.39592 6.41151 8.39732C6.44226 8.4057 6.4744 8.41129 6.50654 8.41409C6.53729 8.41828 6.56943 8.41968 6.60297 8.41968C6.63092 8.41968 6.65747 8.41968 6.68402 8.41549Z" fill="#96877D"/>
<path fill-rule="evenodd" clip-rule="evenodd" d="M7.55886 9.17432C7.55886 9.17432 7.55886 9.17013 7.55607 9.16873C7.55187 9.16314 7.54349 9.16035 7.5365 9.16594L7.51274 9.18271C7.51274 9.18271 7.50576 9.18271 7.50436 9.18131C7.50296 9.17851 7.50436 9.17432 7.50576 9.17293L7.52951 9.15616C7.52951 9.15616 7.5365 9.14358 7.53231 9.13659C7.52812 9.131 7.51973 9.1296 7.51274 9.1338L7.48899 9.15057C7.48899 9.15057 7.482 9.15196 7.4806 9.14917C7.47781 9.14637 7.4792 9.14218 7.4806 9.14078L7.50436 9.12401C7.50436 9.12401 7.51135 9.11004 7.50715 9.10445C7.50296 9.09746 7.49458 9.09606 7.48759 9.10165L7.39256 9.16873C7.39256 9.16873 7.38557 9.18131 7.38977 9.1883C7.39396 9.19528 7.40234 9.19668 7.40933 9.19109C7.41213 9.18969 7.41632 9.19109 7.41772 9.19249C7.41911 9.19528 7.41911 9.19808 7.41772 9.20087C7.41073 9.20646 7.40793 9.21345 7.41352 9.22184C7.41772 9.22743 7.4261 9.22882 7.43169 9.22463C7.43449 9.22184 7.43728 9.22323 7.44008 9.22463C7.44287 9.22743 7.44287 9.23162 7.44008 9.23302C7.43309 9.23861 7.43029 9.24559 7.43588 9.25258C7.43868 9.25677 7.44287 9.25817 7.44706 9.25817H7.47781C7.50436 9.23162 7.53091 9.20367 7.55607 9.17432H7.55886Z" fill="#96877D"/>
<path fill-rule="evenodd" clip-rule="evenodd" d="M6.83918 9.26934C6.83918 9.26934 6.83498 9.27493 6.83219 9.27773C6.83778 9.28332 6.84197 9.2903 6.84197 9.29729C6.84197 9.31266 6.82939 9.32384 6.81542 9.32384H6.53593C6.51916 9.32384 6.50379 9.31686 6.49261 9.30568C6.48282 9.29589 6.47584 9.28332 6.47444 9.26794H6.1684C6.1684 9.26794 6.1642 9.26794 6.16281 9.26934L6.81542 9.46778C6.83079 9.47197 6.83918 9.48874 6.83498 9.50412C6.83079 9.51949 6.81402 9.52787 6.79865 9.52368L6.30814 9.37415C6.30954 9.38114 6.31094 9.38952 6.31094 9.39651C6.31094 9.42446 6.29976 9.45101 6.28019 9.47058C6.26202 9.48874 6.23547 9.50132 6.20613 9.50132H6.18516C6.17119 9.50132 6.15722 9.50551 6.14743 9.5139C6.13905 9.51949 6.13346 9.52787 6.12787 9.53765C6.27041 9.59216 6.42413 9.6215 6.58484 9.6215C6.92722 9.6215 7.23745 9.48735 7.46664 9.26934H6.83918Z" fill="#96877D"/>
<path fill-rule="evenodd" clip-rule="evenodd" d="M6.34024 9.11425C6.34303 9.10727 6.34722 9.10028 6.35281 9.09469C6.3612 9.0863 6.37378 9.08071 6.38635 9.08071H6.41989C6.41989 9.08071 6.4171 9.06814 6.4171 9.06115C6.4171 9.04578 6.42269 9.0318 6.43247 9.01923H6.28294C6.27176 9.01923 6.26198 9.02062 6.2522 9.02482L6.34163 9.11425H6.34024Z" fill="#96877D"/>
<path fill-rule="evenodd" clip-rule="evenodd" d="M6.65046 9.12684C6.65046 9.12684 6.65745 9.12963 6.65745 9.13383C6.65745 9.13802 6.65466 9.13942 6.65046 9.13942H6.61133L6.50513 9.22466C6.50513 9.22466 6.49395 9.23444 6.49115 9.24143C6.48836 9.24842 6.48696 9.2554 6.48696 9.26239C6.48696 9.27637 6.49255 9.28755 6.50094 9.29733C6.50932 9.30571 6.5219 9.3113 6.53587 9.3113H6.81536C6.82235 9.3113 6.82934 9.30571 6.82934 9.29733C6.82934 9.29034 6.82375 9.28335 6.81536 9.28335H6.76785C6.76785 9.28335 6.76226 9.28056 6.76226 9.27776C6.76226 9.27497 6.76506 9.27078 6.76785 9.27078H6.81676C6.82375 9.27078 6.83074 9.26379 6.83074 9.2568C6.83074 9.24981 6.82515 9.24283 6.81676 9.24283H6.76925C6.76925 9.24283 6.76366 9.24003 6.76366 9.23584C6.76366 9.23165 6.76645 9.23025 6.76925 9.23025H6.81676C6.82375 9.23025 6.83074 9.22326 6.83074 9.21628C6.83074 9.20929 6.82515 9.2023 6.81676 9.2023H6.66584L6.59736 9.24283C6.59736 9.24283 6.59037 9.24283 6.58898 9.24003C6.58758 9.23724 6.58897 9.23305 6.59177 9.23165L6.72313 9.15479C6.74409 9.14361 6.75667 9.12265 6.75667 9.10029C6.75667 9.07374 6.7399 9.04998 6.71475 9.0402C6.67562 9.02622 6.63509 9.01923 6.59456 9.01923C6.59177 9.01923 6.58758 9.01644 6.58758 9.01225C6.58758 9.00805 6.59037 9.00666 6.59456 9.00666C6.63649 9.00666 6.67841 9.01364 6.71894 9.02902C6.7427 9.0374 6.76086 9.05697 6.76785 9.08072H6.79999C6.81956 9.08072 6.83772 9.0905 6.84751 9.10727L6.88104 9.16876C6.89362 9.19252 6.91598 9.21488 6.94253 9.23025C6.96769 9.24562 6.99564 9.25541 7.02219 9.25541H7.11722C7.13958 9.25541 7.16333 9.24842 7.18569 9.23584C7.20665 9.22466 7.22762 9.20789 7.24299 9.18972L7.21224 9.1478C7.20246 9.13522 7.18709 9.12684 7.17172 9.12684H7.10743C7.10743 9.12684 7.10045 9.12404 7.10045 9.11985C7.10045 9.11566 7.10324 9.11286 7.10743 9.11286H7.17172C7.19268 9.11286 7.21085 9.12265 7.22342 9.13942L7.25696 9.18693C7.26535 9.19811 7.27653 9.2051 7.2891 9.20649C7.30168 9.20789 7.31566 9.20649 7.32683 9.19811L7.68039 8.94657C7.68039 8.94657 7.68878 8.93399 7.68319 8.927C7.679 8.92141 7.67061 8.91862 7.66362 8.92421L7.62449 8.95216C7.62449 8.95216 7.61751 8.95216 7.61611 8.95076C7.61471 8.94796 7.61471 8.94377 7.61751 8.94237L7.65664 8.91442C7.65664 8.91442 7.66502 8.90045 7.65943 8.89486C7.65524 8.88927 7.64685 8.88787 7.64126 8.89207L7.60213 8.92001C7.60213 8.92001 7.59515 8.92141 7.59375 8.92001C7.59235 8.91722 7.59375 8.91303 7.59515 8.91163L7.63428 8.88368C7.63428 8.88368 7.64266 8.86971 7.63707 8.86412C7.63288 8.85853 7.62449 8.85573 7.61751 8.86132L7.54903 8.91023C7.53925 8.91722 7.53086 8.9256 7.52527 8.93539C7.51829 8.94517 7.51409 8.95635 7.5127 8.96753C7.5127 8.96893 7.5127 8.97032 7.5099 8.97172L7.34081 9.0919C7.34081 9.0919 7.33382 9.0933 7.33242 9.0905C7.33103 9.08771 7.33242 9.08352 7.33382 9.08212L7.41907 9.02203L7.38693 8.99128C7.36876 8.97172 7.3436 8.96054 7.31705 8.95775C7.31426 8.95775 7.31146 8.95355 7.31146 8.95076C7.31146 8.94796 7.31565 8.94517 7.31845 8.94517C7.33801 8.94796 7.35618 8.95355 7.37295 8.96473C7.37295 8.93818 7.36177 8.91442 7.3436 8.89626L7.27513 8.82778C7.26115 8.81381 7.26115 8.79145 7.27513 8.77747C7.2891 8.7635 7.31146 8.7635 7.32544 8.77747L7.39391 8.84595C7.41348 8.86551 7.44003 8.8753 7.46658 8.8753C7.49313 8.8753 7.51829 8.86551 7.53925 8.84595C7.55881 8.82638 7.5686 8.79983 7.5686 8.77328C7.5686 8.74673 7.55742 8.72018 7.53925 8.70061C7.53645 8.69782 7.53645 8.69363 7.53925 8.69223C7.54204 8.68943 7.54624 8.68943 7.54763 8.69223L7.61751 8.7621C7.63567 8.78027 7.65943 8.79005 7.68319 8.79005C7.70555 8.79005 7.72791 8.78167 7.74468 8.76629L7.60493 8.62655C7.60493 8.62655 7.60353 8.62375 7.60353 8.62236V8.56366C7.60353 8.5441 7.58816 8.52872 7.5686 8.52872H7.54624C7.54624 8.52872 7.54344 8.52873 7.54204 8.52733L7.48475 8.47003L7.43584 8.49798C7.43584 8.49798 7.44282 8.50357 7.44841 8.50497C7.4554 8.50637 7.46239 8.50497 7.46798 8.50217C7.47077 8.50078 7.47497 8.50217 7.47636 8.50497C7.47776 8.50776 7.47636 8.51196 7.47357 8.51335C7.46379 8.51894 7.454 8.52034 7.44422 8.51755C7.43584 8.51615 7.43025 8.51056 7.42466 8.50497L7.38832 8.52593L7.41068 8.53152C7.41068 8.53152 7.41627 8.53431 7.41627 8.53711V8.57484H7.43584C7.43584 8.57484 7.44003 8.57484 7.44143 8.57764L7.454 8.6C7.46099 8.61257 7.45959 8.62655 7.44841 8.63773C7.43584 8.6503 7.41627 8.6503 7.40509 8.63773L7.37714 8.60978C7.37714 8.60978 7.37575 8.60698 7.37575 8.60559V8.57764L7.35898 8.58742C7.35898 8.58742 7.35339 8.58882 7.35059 8.58742L7.32544 8.56226V8.60698C7.32544 8.61956 7.32404 8.62515 7.33382 8.63353L7.41208 8.7104C7.41208 8.7104 7.42605 8.71878 7.43304 8.71878C7.44003 8.71878 7.44841 8.71599 7.454 8.7104C7.4568 8.7076 7.46099 8.7076 7.46239 8.7104C7.46518 8.71319 7.46518 8.71738 7.46239 8.71878C7.454 8.72716 7.44282 8.73136 7.43304 8.73136C7.42885 8.73136 7.42326 8.73136 7.41907 8.72856C7.41907 8.73415 7.41627 8.73974 7.41208 8.74393C7.4023 8.75372 7.38693 8.75372 7.37854 8.74393L7.34221 8.7076C7.31845 8.68384 7.2891 8.67266 7.25836 8.67266C7.22761 8.67266 7.19827 8.68384 7.17451 8.7076C7.15075 8.73136 7.13958 8.7607 7.13958 8.79145C7.13958 8.82219 7.15075 8.85154 7.17451 8.8753C7.19547 8.89765 7.21923 8.91862 7.23879 8.94098C7.24578 8.94796 7.24858 8.95914 7.24858 8.96893C7.24858 8.9815 7.24438 8.99128 7.236 8.99967C7.22761 9.00805 7.21644 9.01225 7.20526 9.01225C7.19687 9.01225 7.18849 9.00945 7.1801 9.00386L7.13259 9.08631C7.13259 9.08631 7.1242 9.0905 7.12141 9.08631C7.11582 9.07513 7.10604 9.06395 7.09486 9.05836C7.08368 9.05138 7.0711 9.04718 7.05712 9.04718C7.05014 9.04718 7.04455 9.04718 7.03896 9.04998C7.03477 9.04998 7.03197 9.04998 7.03057 9.04579C7.02638 9.02762 7.0166 9.01225 7.00262 9.00107C6.98865 8.98989 6.97188 8.9843 6.95371 8.9843C6.94393 8.9843 6.93415 8.9857 6.92437 8.98989C6.92017 8.99128 6.91458 8.98709 6.91598 8.9829C6.91738 8.97591 6.91878 8.96892 6.91738 8.96194H6.64627C6.61273 8.96194 6.54426 8.97452 6.49395 8.99967C6.46181 9.01644 6.43805 9.0388 6.43805 9.06814C6.43805 9.11147 6.49115 9.13383 6.52749 9.13383H6.65885L6.65046 9.12684ZM6.85869 9.05277C6.85869 9.05277 6.8531 9.04998 6.8531 9.04579C6.8531 9.04159 6.85589 9.0402 6.85869 9.0402C6.87825 9.0402 6.89781 9.04299 6.91598 9.04858C6.93415 9.05417 6.95092 9.06256 6.96629 9.07373C6.96908 9.07513 6.96908 9.07932 6.96629 9.08212C6.96489 9.08491 6.9607 9.08631 6.95791 9.08352C6.94393 9.07373 6.92716 9.06535 6.91039 9.05976C6.89362 9.05417 6.87685 9.05138 6.85729 9.05138L6.85869 9.05277ZM7.19408 9.07793C7.19408 9.07793 7.18849 9.07374 7.18988 9.07094C7.18988 9.06815 7.19408 9.06535 7.19687 9.06675C7.21085 9.06954 7.22342 9.07653 7.2346 9.08352C7.24578 9.0919 7.25556 9.10168 7.26395 9.11286C7.26535 9.11566 7.26535 9.11985 7.26255 9.12125C7.25976 9.12265 7.25556 9.12265 7.25417 9.12125C7.24718 9.11147 7.2374 9.10168 7.22762 9.0947C7.21783 9.08771 7.20665 9.08212 7.19408 9.07932V9.07793ZM7.54903 8.54969C7.56301 8.54969 7.57558 8.56226 7.57558 8.57624C7.57558 8.59021 7.56301 8.60279 7.54903 8.60279C7.53506 8.60279 7.52248 8.59161 7.52248 8.57624C7.52248 8.56087 7.53506 8.54969 7.54903 8.54969ZM7.44422 8.76629C7.44422 8.76629 7.44143 8.75931 7.44422 8.75791C7.44702 8.75511 7.45121 8.75511 7.45261 8.75791C7.46099 8.76629 7.47357 8.77049 7.48475 8.77049C7.49593 8.77049 7.5085 8.76629 7.51689 8.75791C7.51968 8.75511 7.52388 8.75511 7.52527 8.75791C7.52807 8.7607 7.52807 8.7649 7.52527 8.76629C7.51409 8.77747 7.49872 8.78306 7.48475 8.78306C7.47077 8.78306 7.4554 8.77747 7.44282 8.76629H7.44422Z" fill="#96877D"/>
<path fill-rule="evenodd" clip-rule="evenodd" d="M7.54907 8.56226C7.55606 8.56226 7.56304 8.56785 7.56304 8.57623C7.56304 8.58462 7.55745 8.59021 7.54907 8.59021C7.54069 8.59021 7.5351 8.58462 7.5351 8.57623C7.5351 8.56785 7.54069 8.56226 7.54907 8.56226Z" fill="#96877D"/>
<path fill-rule="evenodd" clip-rule="evenodd" d="M6.54706 8.52591L6.56103 8.57761C6.59178 8.57482 6.62252 8.57202 6.65187 8.57202L6.63789 8.51892C6.60855 8.52311 6.5778 8.52591 6.54706 8.52591Z" fill="#96877D"/>
<path fill-rule="evenodd" clip-rule="evenodd" d="M6.81959 8.94376C6.80421 8.91022 6.78186 8.87947 6.75391 8.85711C6.72735 8.83615 6.69521 8.82357 6.66028 8.82357H6.38498C6.38498 8.82357 6.37799 8.82078 6.37799 8.81659V8.74811C6.37799 8.74811 6.37799 8.74392 6.38078 8.74252C6.41572 8.71457 6.44646 8.68103 6.47022 8.6433C6.49118 8.60836 6.50795 8.56784 6.51634 8.52591C6.49817 8.52591 6.4814 8.52591 6.46323 8.52452C6.44646 8.52452 6.4283 8.52172 6.41153 8.52032C6.38498 8.57622 6.35004 8.62793 6.30812 8.67265C6.28436 8.6978 6.25781 8.72016 6.22986 8.74112C6.24244 8.76209 6.24523 8.78864 6.23685 8.81239C6.22846 8.83336 6.23405 8.85572 6.24942 8.87249C6.25921 8.88366 6.27458 8.88925 6.28995 8.88925H6.59739C6.60019 8.88087 6.60578 8.87388 6.61276 8.86829C6.62115 8.8613 6.63093 8.85851 6.64211 8.85851C6.65469 8.85851 6.66726 8.8641 6.67565 8.87249C6.68403 8.88087 6.68962 8.89345 6.68962 8.90602V8.94515H6.81819L6.81959 8.94376ZM6.34445 8.84733C6.34445 8.84733 6.35144 8.85013 6.35144 8.85432C6.35144 8.85851 6.34864 8.86131 6.34445 8.86131H6.31371C6.29274 8.86131 6.27737 8.84454 6.27737 8.82497V8.78444C6.27737 8.78444 6.28017 8.77885 6.28296 8.77885C6.28715 8.77885 6.28995 8.78165 6.28995 8.78444V8.82497C6.28995 8.83755 6.30113 8.84873 6.31371 8.84873H6.34445V8.84733Z" fill="#96877D"/>
<path fill-rule="evenodd" clip-rule="evenodd" d="M7.21367 8.26601C7.25839 8.20592 7.29472 8.14164 7.32267 8.07176C7.32267 8.06897 7.32546 8.06757 7.32826 8.06757H7.43447C7.43447 8.06757 7.43726 8.06757 7.43866 8.06757L7.59797 8.1598C7.60915 8.15282 7.62312 8.15142 7.6357 8.15421C7.66086 8.1612 7.67623 8.18775 7.66924 8.21291L7.65666 8.25763L7.75868 8.31632C7.76147 8.27998 7.75868 8.24225 7.7447 8.20871C7.73213 8.17657 7.71116 8.15002 7.68042 8.13185L7.45543 8.00189C7.44006 7.99211 7.42189 7.98792 7.40372 7.98792H7.32546L7.15637 8.1067V8.22828C7.18991 8.19334 7.22066 8.15561 7.24721 8.11508C7.2486 8.11229 7.2528 8.11089 7.25559 8.11369C7.25839 8.11508 7.25978 8.11928 7.25699 8.12207C7.22904 8.16539 7.1969 8.20452 7.16056 8.24225C7.17873 8.24924 7.1969 8.25763 7.21367 8.26741V8.26601Z" fill="#96877D"/>
<path fill-rule="evenodd" clip-rule="evenodd" d="M6.47021 7.72516V7.83696H6.54987C6.55686 7.83696 6.56385 7.82997 6.56385 7.82298C6.56385 7.82019 6.56384 7.81739 6.56105 7.81599H6.53729C6.53729 7.81599 6.5317 7.8132 6.5317 7.8104C6.5317 7.80761 6.5345 7.80342 6.53729 7.80342H6.56105C6.56105 7.80342 6.56385 7.79783 6.56385 7.79503C6.56385 7.79224 6.56384 7.78944 6.56105 7.78804H6.53729C6.53729 7.78804 6.5317 7.78525 6.5317 7.78106C6.5317 7.77686 6.5345 7.77547 6.53729 7.77547H6.56105C6.56105 7.77547 6.56385 7.76988 6.56385 7.76708C6.56385 7.76429 6.56384 7.76149 6.56105 7.7601H6.53729C6.53729 7.7601 6.5317 7.7573 6.5317 7.75311C6.5317 7.74892 6.5345 7.74752 6.53729 7.74752H6.56105C6.56105 7.74752 6.56385 7.74333 6.56385 7.74053C6.56385 7.73354 6.55825 7.72656 6.54987 7.72656H6.47021V7.72516Z" fill="#96877D"/>
<path fill-rule="evenodd" clip-rule="evenodd" d="M6.6393 7.88026C6.64349 7.90541 6.64768 7.93057 6.65467 7.95432C6.65467 7.95432 6.65467 7.95712 6.65467 7.95852L6.61554 8.02699C6.66445 8.03957 6.71336 8.05634 6.75808 8.0773C6.78184 8.08848 6.8 8.10944 6.80699 8.13599L6.82656 8.21146L6.93975 8.4071C6.95512 8.39872 6.97049 8.39033 6.98587 8.38055C6.97329 8.37496 6.95932 8.36797 6.94814 8.36099C6.94534 8.35959 6.94394 8.3554 6.94534 8.3526C6.94674 8.34981 6.95093 8.34841 6.95372 8.34981C6.99565 8.37496 7.04177 8.38754 7.08928 8.38754C7.1326 8.38754 7.17592 8.37636 7.21505 8.3554C7.21505 8.3554 7.21785 8.3554 7.21924 8.3554H7.38414C7.38414 8.3554 7.38694 8.3554 7.38834 8.35679L7.54345 8.51191H7.56302C7.58957 8.51191 7.61053 8.53287 7.61053 8.55942V8.61253H7.74189C7.72932 8.58598 7.71255 8.56222 7.69298 8.54126C7.67062 8.5189 7.64407 8.50073 7.61333 8.48815C7.61333 8.48815 7.61193 8.48815 7.61053 8.48815L7.42467 8.30229C7.41209 8.28832 7.39393 8.27993 7.37576 8.27993H7.21365C7.21365 8.27993 7.21226 8.27993 7.21086 8.27993C7.17592 8.26177 7.14099 8.24779 7.10325 8.23521C7.06692 8.22264 7.02919 8.21285 6.99006 8.20587C6.98726 8.20587 6.98447 8.20167 6.98447 8.19888C6.98447 8.19608 6.98866 8.19329 6.99146 8.19329C7.03059 8.20028 7.06832 8.21006 7.10605 8.22264C7.11723 8.22683 7.12841 8.22962 7.13959 8.23521V8.10525C7.13959 8.0801 7.12981 8.05354 7.11443 8.03258C7.09906 8.01162 7.0781 7.99625 7.05434 7.98926L6.95652 7.96271C6.95652 7.96271 6.95093 7.95852 6.95233 7.95572C6.95233 7.95293 6.95652 7.95013 6.96071 7.95153L7.05853 7.97808C7.05853 7.97808 7.06832 7.98088 7.07391 7.98367V7.95013C7.07391 7.91799 7.05853 7.88585 7.03478 7.86349L6.93276 7.76147C6.90761 7.78244 6.87966 7.8006 6.85171 7.81737C6.78743 7.85231 6.71616 7.87607 6.6379 7.88305L6.6393 7.88026Z" fill="#96877D"/>
<path fill-rule="evenodd" clip-rule="evenodd" d="M6.60159 8.02421L6.64211 7.95434C6.63513 7.93058 6.62954 7.90543 6.62674 7.88027C6.60578 7.88167 6.58482 7.88167 6.56386 7.88027C6.55407 7.88027 6.54569 7.87748 6.5401 7.87189C6.5429 7.89145 6.54569 7.91102 6.54988 7.93058C6.55547 7.95993 6.56386 7.98788 6.57364 8.01583C6.58342 8.01722 6.59181 8.02002 6.60159 8.02142H6.60438L6.60159 8.02421Z" fill="#96877D"/>
<path fill-rule="evenodd" clip-rule="evenodd" d="M6.90765 7.48338L6.99989 7.50853V7.45264C6.99989 7.43028 6.98172 7.41211 6.95936 7.41211H6.94958C6.92722 7.41211 6.90905 7.43028 6.90905 7.45264V7.48478L6.90765 7.48338Z" fill="#96877D"/>
<path fill-rule="evenodd" clip-rule="evenodd" d="M6.79163 7.40372C6.79163 7.4177 6.79582 7.43167 6.8042 7.44145C6.81259 7.45263 6.82377 7.45962 6.83774 7.46381L6.89504 7.47919V7.45124C6.89504 7.43586 6.90203 7.42049 6.9146 7.41071H6.86849C6.86849 7.41071 6.8629 7.40931 6.8629 7.40652L6.84193 7.33105C6.82796 7.33664 6.81678 7.34643 6.8084 7.35761C6.79861 7.37018 6.79302 7.38695 6.79302 7.40512L6.79163 7.40372Z" fill="#96877D"/>
<path fill-rule="evenodd" clip-rule="evenodd" d="M7.04179 7.56307C7.04318 7.55189 7.05017 7.54211 7.05856 7.53652L6.83357 7.47642C6.81819 7.47223 6.80422 7.46245 6.79444 7.44987C6.78745 7.44009 6.78186 7.43031 6.78046 7.41913C6.73574 7.46804 6.69941 7.52534 6.67425 7.58822C6.6477 7.6525 6.63373 7.72377 6.63373 7.79784C6.63373 7.8216 6.63513 7.84396 6.63792 7.86771C6.71338 7.86073 6.78465 7.83837 6.84614 7.80343C6.87409 7.78806 6.90064 7.76989 6.9244 7.75033L6.84894 7.67486C6.82378 7.64971 6.80701 7.61477 6.80701 7.57984V7.50298C6.80701 7.50298 6.80981 7.49739 6.8126 7.49739C6.8154 7.49739 6.81959 7.50018 6.81959 7.50298C6.81959 7.53093 6.83077 7.55608 6.84894 7.57425C6.8671 7.59241 6.89226 7.60359 6.92021 7.60359C6.95095 7.60359 6.9789 7.58962 6.99847 7.56726C6.99847 7.56726 7.00126 7.56446 7.00405 7.56446H7.04318L7.04179 7.56307Z" fill="#96877D"/>
<path fill-rule="evenodd" clip-rule="evenodd" d="M7.05575 7.5994C7.04876 7.59381 7.04317 7.58543 7.04178 7.57564H7.00544C6.98448 7.6008 6.95234 7.61477 6.9202 7.61477C6.88945 7.61477 6.8615 7.60219 6.84054 7.58123C6.83216 7.57285 6.82517 7.56307 6.81958 7.55328V7.57844C6.81958 7.61058 6.83495 7.64272 6.85731 7.66508L6.92718 7.73495V7.71679C6.92718 7.69024 6.93836 7.66648 6.95513 7.64971C6.9719 7.63294 6.99706 7.62176 7.02221 7.62176H7.04038C7.04457 7.61477 7.05016 7.60778 7.05435 7.5994H7.05575Z" fill="#96877D"/>
<path fill-rule="evenodd" clip-rule="evenodd" d="M7.08791 7.53232C7.10468 7.53651 7.11865 7.55188 7.11865 7.57005C7.11865 7.59101 7.10188 7.60778 7.07952 7.60778C7.07533 7.60778 7.06974 7.60778 7.06555 7.60499C7.06136 7.61197 7.05716 7.61896 7.05297 7.62595L7.08931 7.65809H7.17735C7.17735 7.65809 7.18992 7.6525 7.18992 7.64551V7.61058H7.13682C7.13682 7.61058 7.13123 7.60778 7.13123 7.60359C7.13123 7.5994 7.13402 7.598 7.13682 7.598H7.21088C7.21088 7.598 7.22346 7.59241 7.22346 7.58542V7.55887L7.20809 7.55468C7.18853 7.55048 7.17455 7.53232 7.17455 7.51275V7.50157L7.01105 7.45825V7.50996L7.08791 7.53092V7.53232Z" fill="#96877D"/>
<path fill-rule="evenodd" clip-rule="evenodd" d="M6.70361 7.33946L6.77348 7.26958L6.68125 7.21648C6.64911 7.19831 6.62256 7.18713 6.58483 7.18713C6.5457 7.18713 6.50797 7.20111 6.48002 7.22487C6.45207 7.24862 6.43111 7.28216 6.42412 7.32129L6.40735 7.38697L6.44508 7.4247L6.47023 7.33107C6.47443 7.30312 6.4898 7.27797 6.51076 7.2598C6.53172 7.24163 6.55827 7.23185 6.58762 7.23185C6.61976 7.23185 6.65051 7.24443 6.67147 7.26679C6.68964 7.28496 6.70221 7.31011 6.70501 7.33806L6.70361 7.33946Z" fill="#96877D"/>
<path fill-rule="evenodd" clip-rule="evenodd" d="M6.57921 7.46386L6.69101 7.35206C6.69101 7.32272 6.67843 7.29756 6.66026 7.278C6.6407 7.25843 6.61414 7.24725 6.5848 7.24725C6.55825 7.24725 6.53449 7.25704 6.51632 7.27241C6.49816 7.28778 6.48418 7.31154 6.47999 7.33669L6.45483 7.43032L6.49257 7.42054C6.51213 7.41635 6.53169 7.42753 6.53589 7.44569C6.53868 7.45547 6.54846 7.46526 6.55964 7.46526H6.57781L6.57921 7.46386ZM6.52331 7.34088C6.52331 7.34088 6.51912 7.34647 6.51632 7.34647C6.51213 7.34647 6.51073 7.34228 6.51073 7.33949C6.51353 7.32272 6.52191 7.30734 6.53449 7.29616C6.54707 7.28638 6.56244 7.27939 6.58061 7.27939C6.59179 7.27939 6.60157 7.28219 6.61135 7.28638C6.61414 7.28778 6.61554 7.29197 6.61415 7.29477C6.61275 7.29756 6.60855 7.29896 6.60576 7.29756C6.59738 7.29337 6.58899 7.29197 6.58061 7.29197C6.56663 7.29197 6.55266 7.29756 6.54287 7.30595C6.53309 7.31433 6.5261 7.32691 6.52331 7.34088Z" fill="#96877D"/>
<path fill-rule="evenodd" clip-rule="evenodd" d="M6.54987 7.69164C6.57362 7.66788 6.60157 7.64832 6.63371 7.63434C6.65328 7.62596 6.65328 7.61058 6.64629 7.6008C6.6393 7.59242 6.62673 7.58962 6.61555 7.5994C6.5876 7.62456 6.56524 7.6553 6.55126 7.69024L6.54987 7.69164Z" fill="#96877D"/>
<path fill-rule="evenodd" clip-rule="evenodd" d="M6.6421 7.6441C6.6421 7.6441 6.63791 7.6455 6.63651 7.6469C6.60158 7.66227 6.57223 7.68463 6.54707 7.71258H6.55127C6.56524 7.71258 6.57782 7.72516 6.57782 7.73913C6.57782 7.74472 6.57642 7.74891 6.57363 7.75311C6.57642 7.7573 6.57782 7.76289 6.57782 7.76708C6.57782 7.77127 6.57642 7.77686 6.57363 7.78106C6.57642 7.78525 6.57782 7.79084 6.57782 7.79503C6.57782 7.79922 6.57642 7.80481 6.57363 7.809C6.57642 7.8132 6.57782 7.81739 6.57782 7.82298C6.57782 7.83695 6.56664 7.84953 6.55127 7.84953H6.53729C6.54009 7.86211 6.55127 7.87049 6.56524 7.87049C6.5862 7.87049 6.60577 7.87049 6.62533 7.87049C6.62254 7.84674 6.62114 7.82438 6.62114 7.79922C6.62114 7.74612 6.62813 7.69441 6.6421 7.6455V7.6441Z" fill="#96877D"/>
<path fill-rule="evenodd" clip-rule="evenodd" d="M6.54846 7.66227C6.56244 7.63572 6.582 7.61056 6.60436 7.5896C6.62113 7.57563 6.64349 7.57703 6.65607 7.59519C6.65746 7.591 6.65886 7.58681 6.66166 7.58262C6.68821 7.51693 6.72734 7.45545 6.77485 7.40374L6.70079 7.36182L6.67563 7.40374V7.46942C6.67563 7.46942 6.67284 7.47501 6.67004 7.47501H6.64489L6.59318 7.52672C6.57921 7.55606 6.56803 7.5882 6.55964 7.62035C6.55545 7.63432 6.55265 7.6469 6.54986 7.66087L6.54846 7.66227Z" fill="#96877D"/>
<path fill-rule="evenodd" clip-rule="evenodd" d="M6.4157 7.47922V7.52394C6.4157 7.5463 6.42548 7.56726 6.43945 7.58124C6.45343 7.59521 6.4702 7.60359 6.49116 7.60499V7.55468C6.49116 7.55468 6.49116 7.55189 6.49256 7.55049L6.53448 7.50857C6.54287 7.50018 6.55544 7.49879 6.56662 7.50437L6.58619 7.51555L6.6365 7.46525C6.6365 7.46525 6.63929 7.46385 6.64069 7.46385H6.66305V7.40376C6.66305 7.40376 6.66305 7.40096 6.66305 7.39957L6.66724 7.39258L6.58479 7.47503C6.58479 7.47503 6.582 7.47643 6.5806 7.47643H6.55964C6.54287 7.47643 6.52749 7.46385 6.5233 7.44848C6.51911 7.4359 6.50793 7.42891 6.49535 7.43171L6.44784 7.44428L6.4129 7.47782L6.4157 7.47922Z" fill="#96877D"/>
<path fill-rule="evenodd" clip-rule="evenodd" d="M5.78968 7.95856C5.78968 7.95856 5.78828 7.95716 5.78689 7.95576C5.7771 7.94598 5.76173 7.94598 5.75195 7.95576C5.74217 7.96554 5.74077 7.98092 5.75195 7.9921C5.75195 7.9921 5.75474 7.99349 5.75474 7.99489L5.78968 7.95995V7.95856Z" fill="#96877D"/>
<path fill-rule="evenodd" clip-rule="evenodd" d="M5.94896 7.71818C5.87769 7.74893 5.81061 7.78805 5.74773 7.83138C5.67925 7.88029 5.61497 7.93479 5.55767 7.99628C5.55627 7.99907 5.55208 7.99907 5.54929 7.99628C5.51575 7.97671 5.48361 7.96274 5.45845 7.95575C5.4347 7.95016 5.41932 7.94876 5.41513 7.95575C5.41094 7.96274 5.41932 7.97531 5.43609 7.99208C5.45426 8.01025 5.48361 8.03261 5.51575 8.05078L5.5968 8.09689C5.63453 8.04798 5.67785 8.00187 5.72257 7.95854C5.76869 7.91522 5.819 7.8747 5.8721 7.83976L5.94756 7.71399L5.94896 7.71818Z" fill="#96877D"/>
<path fill-rule="evenodd" clip-rule="evenodd" d="M5.85814 7.87048C5.82879 7.89145 5.80084 7.91241 5.77429 7.93616C5.78268 7.93616 5.78966 7.94036 5.79665 7.94734C5.79665 7.94734 5.79805 7.95014 5.79945 7.95014L5.8274 7.92079L5.85814 7.87048Z" fill="#96877D"/>
<path fill-rule="evenodd" clip-rule="evenodd" d="M5.65131 8.05778H5.75891C5.75891 8.05778 5.75612 8.05219 5.75612 8.04939C5.75192 8.04939 5.74633 8.0466 5.74354 8.04241C5.73376 8.03263 5.73376 8.01586 5.74354 8.00468L5.74773 8.00048C5.74773 8.00048 5.74494 7.99909 5.74494 7.99769C5.73795 7.9907 5.73376 7.98092 5.73376 7.97253C5.70581 7.99909 5.67786 8.02704 5.6527 8.05638L5.65131 8.05778Z" fill="#96877D"/>
<path fill-rule="evenodd" clip-rule="evenodd" d="M6.16135 7.75732V7.67487L6.08309 7.73356L6.00763 7.85793C6.02719 7.84256 6.04816 7.82719 6.06912 7.81321C6.09846 7.79365 6.12921 7.77548 6.15995 7.75732H6.16135Z" fill="#96877D"/>
<path fill-rule="evenodd" clip-rule="evenodd" d="M6.36401 7.71261C6.36401 7.71261 6.371 7.7154 6.371 7.7196C6.371 7.72379 6.3682 7.72658 6.36401 7.72658C6.34584 7.72658 6.32488 7.7196 6.30671 7.70702C6.28855 7.69584 6.27178 7.67907 6.262 7.6609L6.23684 7.61898L6.17396 7.66649V7.76152C6.17396 7.77829 6.17955 7.79226 6.18793 7.80484C6.19771 7.81742 6.21029 7.8258 6.22566 7.82999C6.22846 7.82999 6.23125 7.83419 6.22985 7.83838C6.22985 7.84117 6.22566 7.84397 6.22147 7.84257C6.21728 7.84257 6.21448 7.83978 6.21169 7.83838V7.87751C6.21169 7.91105 6.22287 7.94459 6.24383 7.97114C6.24383 7.97114 6.24383 7.97393 6.24383 7.97533V8.12067C6.26339 8.13324 6.28436 8.14303 6.30532 8.15001C6.33886 8.1598 6.37379 8.16259 6.40873 8.1584H6.41152C6.43808 8.16818 6.46603 8.17656 6.49537 8.18215C6.5373 8.19054 6.58062 8.19194 6.62254 8.18774C6.6477 8.18635 6.66726 8.19473 6.67984 8.21709L6.7539 8.34706C6.76368 8.36382 6.78045 8.3764 6.79862 8.38059C6.80002 8.38059 6.80142 8.38199 6.80281 8.38339L6.86849 8.49658V8.49938V8.54969C6.86849 8.56646 6.88247 8.57903 6.89784 8.57903H6.94396C6.96492 8.57903 6.98588 8.58462 7.00405 8.59441C7.02082 8.60419 7.03898 8.61397 7.05575 8.62375C7.05995 8.62655 7.06554 8.62795 7.07113 8.62795H7.11864C7.13401 8.62795 7.14659 8.61677 7.15078 8.60279H7.09209C7.09209 8.60279 7.0879 8.60279 7.0865 8.6C7.07252 8.58043 7.05575 8.56226 7.03759 8.5455C7.01942 8.53012 6.99846 8.51615 6.9775 8.50497C6.9775 8.50497 6.9761 8.50357 6.9747 8.50217L6.8098 8.21569L6.78884 8.13883C6.78325 8.11647 6.76788 8.09831 6.74691 8.08853C6.698 8.06617 6.6449 8.048 6.5918 8.03542C6.53869 8.02284 6.48419 8.01586 6.42969 8.01446C6.40314 8.01446 6.37659 8.00747 6.35423 7.9921C6.35143 7.9907 6.35004 7.98651 6.35283 7.98372C6.35423 7.98092 6.35842 7.97952 6.36122 7.98232C6.38218 7.99489 6.40454 8.00188 6.42969 8.00188C6.44926 8.00188 6.47022 8.00328 6.48978 8.00607L6.47581 7.95297C6.47301 7.94179 6.46742 7.93061 6.45904 7.92223C6.45065 7.91244 6.44087 7.90406 6.42969 7.89847L6.35283 7.85375C6.35283 7.85375 6.34864 7.84816 6.35004 7.84537C6.35143 7.84257 6.35563 7.84117 6.35842 7.84257L6.43528 7.88729C6.43528 7.88729 6.44646 7.89428 6.45205 7.89847V7.72518H6.43249C6.43249 7.72518 6.4255 7.72239 6.4255 7.7182C6.4255 7.71401 6.42829 7.71121 6.43249 7.71121H6.46323C6.47581 7.71121 6.48559 7.70143 6.48559 7.68885V7.61618C6.46183 7.61479 6.44087 7.60361 6.4255 7.58823C6.40873 7.57146 6.39755 7.54771 6.39755 7.52116V7.47644L6.35982 7.43871C6.35004 7.42892 6.33746 7.42333 6.32488 7.42194C6.3123 7.42194 6.29833 7.42473 6.28715 7.43312L6.00347 7.64553L5.96713 7.70562L5.88049 7.84956L5.83437 7.92502C5.83437 7.92502 5.83437 7.92502 5.83437 7.92642L5.74913 8.01166C5.74913 8.01166 5.74354 8.02564 5.74913 8.03123C5.75052 8.03263 5.75332 8.03402 5.75611 8.03542L5.77288 8.01865C5.77288 8.01865 5.77987 8.01586 5.78127 8.01865C5.78406 8.02145 5.78406 8.02564 5.78127 8.02704L5.7645 8.04381C5.7645 8.04381 5.7659 8.0494 5.76869 8.05079C5.77009 8.05219 5.77288 8.05359 5.77568 8.05499L5.79245 8.03822C5.79245 8.03822 5.79944 8.03542 5.80083 8.03822C5.80363 8.04101 5.80363 8.0452 5.80083 8.0466L5.78406 8.06337C5.78406 8.06337 5.78546 8.06896 5.78826 8.07036C5.78965 8.07176 5.79245 8.07315 5.79524 8.07455L5.81201 8.05778C5.81201 8.05778 5.8176 8.05499 5.8204 8.05778C5.82319 8.06058 5.82319 8.06477 5.8204 8.06617L5.80363 8.08294C5.80363 8.08294 5.80503 8.08852 5.80782 8.08992C5.81341 8.09551 5.8218 8.09551 5.82739 8.08992L5.88189 8.03542L6.07054 7.72239C6.07054 7.72239 6.07054 7.72099 6.07194 7.72099L6.22846 7.605L6.21308 7.57845C6.21308 7.57845 6.21308 7.57286 6.21448 7.57007L6.29693 7.50858C6.29693 7.50858 6.30392 7.50718 6.30532 7.50858C6.30811 7.51137 6.30671 7.51557 6.30532 7.51696L6.22846 7.57426L6.27178 7.64972C6.28016 7.66649 6.29553 7.68047 6.3123 7.69165C6.32907 7.70143 6.34724 7.70842 6.36261 7.70842L6.36401 7.71261ZM6.68682 8.1598C6.68682 8.1598 6.69241 8.16399 6.69241 8.16678C6.69241 8.16958 6.68822 8.17237 6.68543 8.17237C6.65887 8.16818 6.63372 8.157 6.61276 8.14163C6.5918 8.14582 6.56944 8.14722 6.54848 8.14722C6.50935 8.14722 6.47022 8.14023 6.43528 8.12905C6.39755 8.11647 6.36401 8.09831 6.33327 8.07595C6.33047 8.07455 6.33047 8.07036 6.33327 8.06756C6.33466 8.06477 6.33886 8.06337 6.34165 8.06756C6.371 8.08992 6.40454 8.10669 6.44087 8.11927C6.47581 8.13045 6.51214 8.13744 6.54987 8.13744C6.57223 8.13744 6.59319 8.13604 6.61416 8.13185C6.61555 8.13185 6.61835 8.13185 6.61975 8.13185C6.64071 8.14722 6.66446 8.1584 6.68962 8.16259L6.68682 8.1598ZM6.90762 8.50357C6.90762 8.50357 6.90762 8.49658 6.91042 8.49519C6.91321 8.49379 6.9174 8.49519 6.9188 8.49798L6.92859 8.51475C6.93557 8.52593 6.94955 8.52873 6.96073 8.52314C6.96352 8.52174 6.96771 8.52314 6.96911 8.52593C6.97051 8.52873 6.96911 8.53292 6.96632 8.53432C6.94955 8.5441 6.92719 8.53851 6.91741 8.52174L6.90762 8.50357Z" fill="#96877D"/>
<path fill-rule="evenodd" clip-rule="evenodd" d="M6.32767 7.27517C6.31649 7.27098 6.3067 7.26818 6.29552 7.26678C6.27875 7.26678 6.26198 7.26818 6.24521 7.27517C6.21866 7.28775 6.18932 7.29334 6.15997 7.29054C6.14041 7.28914 6.12224 7.28495 6.10547 7.27657C6.11805 7.29334 6.13202 7.30871 6.15019 7.31989C6.18512 7.34225 6.22705 7.35203 6.26897 7.34504C6.29273 7.34225 6.31928 7.34504 6.34304 7.35203C6.3626 7.35762 6.38217 7.3674 6.39614 7.37998L6.41151 7.32129C6.41431 7.30312 6.4199 7.28635 6.42828 7.27098C6.42409 7.27377 6.4185 7.27517 6.41431 7.27796C6.38636 7.28775 6.35422 7.28775 6.32767 7.27517Z" fill="#96877D"/>
<path fill-rule="evenodd" clip-rule="evenodd" d="M6.29976 7.41633C6.27181 7.40934 6.24386 7.40515 6.21591 7.40096C6.18656 7.39676 6.15722 7.39257 6.12787 7.39117C6.13066 7.39257 6.13206 7.39537 6.13486 7.39676C6.14604 7.40794 6.15442 7.42471 6.15582 7.44148C6.18516 7.44428 6.21591 7.44847 6.24526 7.45406L6.28438 7.42471C6.28438 7.42471 6.29417 7.41912 6.29976 7.41633Z" fill="#96877D"/>
<path fill-rule="evenodd" clip-rule="evenodd" d="M6.02581 7.43448C6.04677 7.43448 6.06773 7.43448 6.0887 7.43587C6.09149 7.43587 6.09429 7.43867 6.09429 7.44286C6.09429 7.44566 6.09149 7.44845 6.0873 7.44845C6.0342 7.44566 5.98109 7.44705 5.92939 7.45125C5.91122 7.45264 5.89445 7.45404 5.87628 7.45684C5.88327 7.45963 5.89026 7.46382 5.89724 7.46802C5.91122 7.4792 5.9224 7.49317 5.92799 7.51134C5.95314 7.50854 5.97969 7.50575 6.00625 7.50295C6.06354 7.49876 6.12084 7.49876 6.17813 7.50295L6.23124 7.46382C6.20329 7.45963 6.17674 7.45544 6.14879 7.45264C6.14599 7.45264 6.1432 7.44985 6.1432 7.44566C6.1432 7.42889 6.13621 7.41491 6.12503 7.40373C6.11385 7.39255 6.09988 7.38696 6.08311 7.38696C6.06634 7.38696 6.05376 7.39255 6.04258 7.40234C6.0342 7.41072 6.02721 7.4205 6.02441 7.43308L6.02581 7.43448Z" fill="#96877D"/>
<path fill-rule="evenodd" clip-rule="evenodd" d="M5.98948 7.65252C5.93637 7.66649 5.88467 7.68466 5.83436 7.70702C5.77846 7.73078 5.72536 7.75873 5.67505 7.79087C5.67505 7.79087 5.67505 7.79087 5.67365 7.79087C5.67086 7.79087 5.66666 7.79087 5.66527 7.78668C5.65828 7.76572 5.6471 7.74895 5.63452 7.73777C5.62334 7.72659 5.60937 7.721 5.59539 7.721C5.57303 7.721 5.55347 7.73497 5.5395 7.75873C5.52552 7.77969 5.51714 7.80904 5.51434 7.84118C5.5367 7.82161 5.55906 7.80205 5.58282 7.78528C5.58561 7.78248 5.5898 7.78388 5.5912 7.78528C5.5926 7.78807 5.5926 7.79227 5.5912 7.79366C5.56046 7.81742 5.52971 7.84258 5.50037 7.87052C5.47661 7.89288 5.45425 7.91524 5.43329 7.9404C5.44167 7.9404 5.45285 7.94179 5.46403 7.94459C5.48919 7.95158 5.52133 7.96415 5.55487 7.98372C5.61216 7.92223 5.67505 7.86773 5.74352 7.82022C5.812 7.7727 5.88607 7.73078 5.96432 7.69864L5.99227 7.65112L5.98948 7.65252Z" fill="#96877D"/>
<path fill-rule="evenodd" clip-rule="evenodd" d="M5.76312 7.54632C5.7743 7.54352 5.78548 7.53933 5.79806 7.53793C5.81203 7.53374 5.82601 7.53095 5.84138 7.52815C5.84417 7.52815 5.84837 7.52955 5.84837 7.53374C5.84837 7.53654 5.84697 7.54073 5.84278 7.54073C5.8288 7.54352 5.81483 7.54632 5.80085 7.55051C5.7743 7.5575 5.74915 7.56448 5.7226 7.57287C5.73238 7.57427 5.74216 7.57846 5.74915 7.58405C5.76172 7.59104 5.77151 7.60082 5.77989 7.6134C5.83439 7.59383 5.89169 7.57706 5.95038 7.56448C6.00907 7.55191 6.06917 7.54492 6.12926 7.54213L6.1614 7.51837C6.10969 7.51557 6.05799 7.51557 6.00628 7.51837C5.97833 7.51977 5.95038 7.52396 5.92383 7.52675C5.92103 7.52675 5.91824 7.52536 5.91684 7.52256C5.91265 7.50579 5.90147 7.49042 5.88889 7.48064C5.87632 7.47085 5.85955 7.46387 5.84138 7.46387C5.81902 7.46387 5.79946 7.47225 5.78548 7.48623C5.76871 7.503 5.76312 7.52256 5.76312 7.54632Z" fill="#96877D"/>
<path fill-rule="evenodd" clip-rule="evenodd" d="M5.62894 7.67207C5.65269 7.6567 5.67785 7.64132 5.703 7.62735C5.7058 7.62595 5.70999 7.62735 5.71139 7.63014C5.71278 7.63294 5.71139 7.63713 5.70859 7.63853C5.68344 7.6525 5.65828 7.66788 5.63313 7.68325C5.62055 7.69163 5.60798 7.70002 5.5954 7.7098C5.61217 7.7098 5.62894 7.71679 5.64291 7.72936C5.65549 7.74054 5.66667 7.75731 5.67366 7.77688C5.72257 7.74613 5.77427 7.71958 5.82877 7.69582C5.88327 7.67207 5.94057 7.6525 5.99926 7.63713L6.11106 7.55328C6.05656 7.55748 6.00485 7.56446 5.95315 7.57425C5.89445 7.58682 5.83576 7.60359 5.77986 7.62455C5.77707 7.62455 5.77288 7.62455 5.77148 7.62176C5.76449 7.60918 5.75471 7.5994 5.74353 7.59241C5.71418 7.57425 5.67505 7.57984 5.6499 7.60359C5.63592 7.61757 5.62754 7.63713 5.62754 7.65809V7.67067L5.62894 7.67207Z" fill="#96877D"/>
<path fill-rule="evenodd" clip-rule="evenodd" d="M7.42749 9.25678C7.42749 9.25678 7.4233 9.2442 7.42469 9.23582C7.41631 9.23582 7.41072 9.23163 7.40513 9.22464C7.40094 9.21765 7.39954 9.21066 7.40094 9.20228C7.39255 9.20228 7.38556 9.19809 7.38137 9.1911C7.37858 9.18691 7.37718 9.18271 7.37578 9.17712L7.32967 9.21066C7.31569 9.22045 7.29892 9.22464 7.28355 9.22184C7.26958 9.21905 7.257 9.21346 7.24722 9.20228C7.23184 9.22045 7.21088 9.23722 7.18852 9.24839C7.18293 9.25119 7.17734 9.25398 7.17175 9.25678H7.42749Z" fill="#CCCCCC"/>
<path fill-rule="evenodd" clip-rule="evenodd" d="M7.46943 8.45742L7.38139 8.36938H7.22068C7.18015 8.39174 7.13543 8.40292 7.09072 8.40292C7.05997 8.40292 7.02923 8.39733 7.00128 8.38755C6.98311 8.39873 6.96494 8.40991 6.94678 8.41969L6.9915 8.49655C7.01386 8.50773 7.03342 8.52171 7.05298 8.53848C7.06975 8.55245 7.08373 8.56922 7.0977 8.58599C7.11587 8.54546 7.14102 8.50773 7.17037 8.47559C7.20251 8.44066 7.24024 8.40991 7.28217 8.38615C7.28496 8.38476 7.28916 8.38615 7.29055 8.38895C7.29195 8.39174 7.29055 8.39454 7.28916 8.39733C7.26121 8.42389 7.24444 8.46162 7.24444 8.50075C7.24444 8.51891 7.24863 8.53708 7.25562 8.55385C7.25562 8.55664 7.25562 8.55944 7.25422 8.56084C7.24164 8.57202 7.23046 8.58599 7.22347 8.60136C7.21649 8.61674 7.2123 8.63351 7.2123 8.65167C7.2123 8.65586 7.2123 8.66006 7.2123 8.66285C7.22487 8.65866 7.23745 8.65726 7.25003 8.65726C7.28357 8.65726 7.3171 8.66984 7.34226 8.69639L7.37859 8.73273C7.37859 8.73273 7.38977 8.73692 7.39397 8.73273C7.39816 8.72853 7.39816 8.72154 7.39397 8.71596L7.3171 8.63909C7.30453 8.62652 7.30453 8.61953 7.30453 8.60416V8.54407C7.30453 8.54407 7.31151 8.53568 7.31571 8.53988L7.34925 8.57341L7.37161 8.56084C7.37161 8.56084 7.38139 8.56084 7.38139 8.56643V8.60276L7.40794 8.62931C7.41493 8.6363 7.42611 8.6363 7.43309 8.62931C7.43868 8.62372 7.44008 8.61394 7.43589 8.60695L7.42471 8.58739H7.40235C7.40235 8.58739 7.39536 8.58459 7.39536 8.5818V8.54267L7.36322 8.53429C7.36322 8.53429 7.35763 8.53009 7.35903 8.5259C7.35903 8.5245 7.36043 8.52311 7.36182 8.52171L7.46803 8.46022L7.46943 8.45742Z" fill="#CCCCCC"/>
<path fill-rule="evenodd" clip-rule="evenodd" d="M6.68682 9.19108H6.81539C6.82936 9.19108 6.84194 9.20226 6.84194 9.21763C6.84194 9.22601 6.83915 9.233 6.83216 9.23719C6.83775 9.24278 6.84194 9.24977 6.84194 9.25676H6.96072C6.95094 9.25257 6.94116 9.24837 6.93138 9.24139C6.90343 9.22462 6.87967 9.20086 6.8657 9.17431L6.83216 9.11282C6.82517 9.09885 6.8112 9.09186 6.79582 9.09186H6.76508C6.76508 9.09186 6.76508 9.09605 6.76508 9.09885C6.76508 9.12679 6.74971 9.15195 6.72595 9.16453L6.68542 9.18828L6.68682 9.19108Z" fill="#CCCCCC"/>
<path fill-rule="evenodd" clip-rule="evenodd" d="M6.59181 9.13938H6.51914C6.48421 9.13938 6.44228 9.12401 6.42551 9.09326H6.38638C6.3766 9.09326 6.36822 9.09745 6.36263 9.10304C6.35704 9.10863 6.35284 9.11562 6.35284 9.12261C6.38219 9.13519 6.41014 9.15475 6.4325 9.17711C6.45206 9.19667 6.46744 9.21764 6.48001 9.24279C6.48001 9.24 6.48141 9.2386 6.48281 9.2372C6.487 9.22882 6.49259 9.22183 6.49958 9.21624L6.59321 9.14078L6.59181 9.13938Z" fill="#CCCCCC"/>
<path fill-rule="evenodd" clip-rule="evenodd" d="M6.65051 8.51753L6.66588 8.57203C6.73855 8.57342 6.81122 8.5846 6.88249 8.60557C6.94817 8.62513 7.00966 8.65308 7.06696 8.68802C7.06975 8.67264 7.07255 8.65588 7.07814 8.6405C7.07115 8.6405 7.06416 8.63771 7.05857 8.63491L7.00826 8.60557C6.99149 8.59718 6.97333 8.59159 6.95376 8.59159H6.90765C6.88389 8.59159 6.86572 8.57203 6.86572 8.54967V8.50076L6.84616 8.46582C6.79585 8.48538 6.74414 8.49936 6.68964 8.51054C6.67706 8.51333 6.66588 8.51473 6.65331 8.51613L6.65051 8.51753Z" fill="#CCCCCC"/>
<path fill-rule="evenodd" clip-rule="evenodd" d="M6.67844 8.94375V8.90462C6.67844 8.89484 6.67425 8.88646 6.66866 8.87947C6.66167 8.87248 6.65329 8.86969 6.64351 8.86969C6.63512 8.86969 6.62813 8.87248 6.62115 8.87667C6.61556 8.88087 6.60997 8.88785 6.60857 8.89624C6.60857 8.89903 6.60577 8.90043 6.60298 8.90043H6.28995C6.27038 8.90043 6.25361 8.89205 6.24104 8.87947C6.22147 8.85991 6.21588 8.83196 6.22567 8.8068C6.23265 8.78724 6.23125 8.76627 6.22008 8.74811C6.20051 8.76208 6.18095 8.77326 6.15998 8.78444L6.13064 8.83615C6.12505 8.84593 6.12225 8.85711 6.12225 8.86829C6.12225 8.88366 6.12784 8.89764 6.13623 8.90882L6.24243 9.01502C6.25501 9.00943 6.26899 9.00804 6.28296 9.00804H6.44367C6.45345 8.99825 6.46603 8.98987 6.48 8.98288C6.53171 8.95633 6.60298 8.94375 6.63792 8.94375H6.67844Z" fill="#CCCCCC"/>
<path fill-rule="evenodd" clip-rule="evenodd" d="M6.72314 8.82355C6.73712 8.82914 6.7497 8.83752 6.76227 8.8473C6.79441 8.87246 6.81817 8.90739 6.83494 8.94373H6.90761C6.90481 8.93395 6.89922 8.92556 6.89224 8.91857C6.88106 8.90739 6.86569 8.90041 6.84752 8.90041C6.84333 8.90041 6.84053 8.89761 6.84053 8.89342C6.84333 8.87246 6.83634 8.8501 6.82236 8.83473C6.80699 8.81935 6.78324 8.81097 6.76227 8.81516C6.7497 8.81796 6.73572 8.82075 6.72314 8.82355Z" fill="#CCCCCC"/>
<path fill-rule="evenodd" clip-rule="evenodd" d="M6.52891 8.52733C6.52053 8.57205 6.50376 8.61397 6.4814 8.65031C6.45764 8.68944 6.4269 8.72298 6.39056 8.75092V8.80962H6.66027C6.67425 8.80962 6.68683 8.81102 6.69801 8.81381C6.69801 8.80962 6.69801 8.80682 6.69801 8.80263C6.69801 8.77887 6.68822 8.75651 6.67285 8.73975C6.65329 8.72018 6.62953 8.71319 6.60158 8.71319C6.60018 8.71319 6.59739 8.71319 6.59599 8.7104C6.5932 8.7076 6.59459 8.70341 6.59599 8.70201C6.61136 8.68944 6.61975 8.67127 6.61975 8.6531C6.61975 8.61817 6.5904 8.58882 6.55546 8.58882C6.55267 8.58882 6.54987 8.58742 6.54987 8.58323L6.5345 8.52454H6.52891V8.52733Z" fill="#CCCCCC"/>
<path fill-rule="evenodd" clip-rule="evenodd" d="M6.96491 7.65809C6.94954 7.67346 6.93976 7.69442 6.93976 7.71678V7.73635C6.97469 7.7056 7.00544 7.67206 7.03199 7.63293H7.02221C6.99985 7.63293 6.97889 7.64272 6.96352 7.65669L6.96491 7.65809Z" fill="#CCCCCC"/>
<path fill-rule="evenodd" clip-rule="evenodd" d="M6.55826 8.01585C6.54987 7.98929 6.54149 7.96274 6.5359 7.93619C6.53031 7.90824 6.52611 7.8789 6.52332 7.84955H6.47021V7.91104C6.47021 7.91104 6.47161 7.91383 6.47301 7.91523C6.48139 7.92641 6.48838 7.93759 6.49118 7.95156L6.50655 8.01026C6.52332 8.01165 6.54009 8.01445 6.55686 8.01724L6.55826 8.01585Z" fill="#CCCCCC"/>
<path fill-rule="evenodd" clip-rule="evenodd" d="M6.57921 7.52814L6.56104 7.51697C6.56104 7.51697 6.54847 7.51417 6.54427 7.51836L6.50375 7.55889V7.69025C6.50375 7.69863 6.50095 7.70562 6.49536 7.71261H6.5275C6.5317 7.68047 6.53868 7.64833 6.54707 7.61898C6.55545 7.58824 6.56663 7.55749 6.57921 7.52814Z" fill="#CCCCCC"/>
<path fill-rule="evenodd" clip-rule="evenodd" d="M6.2005 7.83139C6.19212 7.8258 6.18513 7.81882 6.17954 7.81183C6.17115 7.80065 6.16556 7.78667 6.16277 7.7713C6.13342 7.78807 6.10547 7.80484 6.07752 7.82301C6.04678 7.84257 6.01883 7.86493 5.99088 7.88729L5.91821 8.00887C5.91821 8.00887 5.92101 8.00887 5.92241 8.01027L5.94896 8.03682C5.94896 8.03682 5.95175 8.04381 5.94896 8.0452L5.9266 8.06756L6.02442 8.16539C6.05656 8.15001 6.0901 8.13604 6.12504 8.12765C6.15997 8.11927 6.19631 8.11508 6.23404 8.11368V7.97254C6.21308 7.94319 6.2005 7.90965 6.2005 7.87332V7.8272V7.83139Z" fill="#CCCCCC"/>
<path fill-rule="evenodd" clip-rule="evenodd" d="M6.58483 6.63232C7.52811 6.63232 8.29392 7.39674 8.29392 8.34142C8.29392 9.2861 7.52951 10.0505 6.58483 10.0505C5.64014 10.0505 4.87573 9.2861 4.87573 8.34142C4.87573 7.39674 5.64014 6.63232 6.58483 6.63232ZM7.40793 9.51389C7.35902 9.51389 7.31989 9.55302 7.31989 9.60193C7.31989 9.65084 7.35902 9.68997 7.40793 9.68997C7.45684 9.68997 7.49597 9.65084 7.49597 9.60193C7.49597 9.55302 7.45684 9.51389 7.40793 9.51389ZM5.76312 9.51389C5.71421 9.51389 5.67508 9.55302 5.67508 9.60193C5.67508 9.65084 5.71421 9.68997 5.76312 9.68997C5.81203 9.68997 5.85116 9.65084 5.85116 9.60193C5.85116 9.55302 5.81203 9.51389 5.76312 9.51389ZM7.4261 7.1969L7.40653 7.27376C7.40653 7.27376 7.40653 7.27935 7.40933 7.28075L7.45824 7.31568C7.45824 7.31568 7.46663 7.31568 7.46802 7.31149L7.54628 6.99007C7.54628 6.99007 7.54628 6.98448 7.54349 6.98309L7.50156 6.95374C7.50156 6.95374 7.49597 6.95234 7.49458 6.95374L7.21648 7.13401C7.21648 7.13401 7.21229 7.1424 7.21648 7.14519L7.26539 7.18013C7.26539 7.18013 7.26958 7.18153 7.27238 7.18013L7.33806 7.13541L7.4261 7.1983V7.1969ZM5.13007 8.74249C5.2251 8.72572 5.28379 8.65725 5.26562 8.55942C5.24885 8.4616 5.1692 8.41828 5.07417 8.43505C4.97914 8.45182 4.92045 8.52029 4.93862 8.61812C4.95539 8.71594 5.03504 8.75926 5.13007 8.74249ZM4.99871 8.60694C5.00989 8.66843 5.06299 8.6824 5.11749 8.67262C5.17199 8.66284 5.21811 8.63209 5.20693 8.5706C5.19575 8.50912 5.14265 8.49514 5.08815 8.50492C5.03365 8.5147 4.98753 8.54685 4.99871 8.60694ZM6.00209 7.04318L6.06078 7.09628C6.06078 7.09628 6.06497 7.09908 6.06777 7.09628L6.12087 7.06973C6.12087 7.06973 6.12506 7.06274 6.12087 7.05995L5.87352 6.84055C5.87352 6.84055 5.86793 6.83775 5.86653 6.84055L5.82042 6.8643C5.82042 6.8643 5.81622 6.8671 5.81762 6.86989L5.84837 7.19969C5.84837 7.19969 5.85396 7.20668 5.85675 7.20528L5.90985 7.17873C5.90985 7.17873 5.91405 7.17454 5.91265 7.17314L5.90426 7.09349L6.00069 7.04458L6.00209 7.04318ZM5.89029 6.93977L5.90007 7.0292L5.95597 7.00125L5.89029 6.93977ZM6.94397 6.72456C6.94397 6.72456 6.94398 6.71757 6.93978 6.71757L6.88528 6.70499C6.88528 6.70499 6.87829 6.70499 6.87829 6.70918L6.80982 7.00824C6.80982 7.00824 6.80982 7.01523 6.81401 7.01523L7.00966 7.05995C7.00966 7.05995 7.01664 7.05995 7.01664 7.05576L7.02782 7.00964C7.02782 7.00964 7.02643 7.00265 7.02363 7.00265L6.88947 6.97191L6.94677 6.72456H6.94397ZM7.83416 7.60496L7.93338 7.36879C7.93338 7.36879 7.93338 7.36459 7.93338 7.3632L7.90124 7.31289C7.90124 7.31289 7.89565 7.3087 7.89285 7.31149L7.63432 7.47779C7.63432 7.47779 7.63013 7.48338 7.63292 7.48617L7.66367 7.53369C7.66367 7.53369 7.66926 7.53788 7.67205 7.53508L7.84534 7.42049L7.74612 7.65666C7.74612 7.65666 7.74612 7.66086 7.74612 7.66225L7.77826 7.71256C7.77826 7.71256 7.78385 7.71675 7.78664 7.71396L8.04517 7.54766C8.04517 7.54766 8.04937 7.54207 8.04657 7.53928L8.01583 7.49176C8.01583 7.49176 8.01024 7.48757 8.00744 7.49037L7.83416 7.60496ZM7.90543 8.09127C7.90543 8.09127 7.90962 8.09686 7.91242 8.09547L8.15977 8.03817L8.18073 8.12901C8.18073 8.12901 8.18492 8.1346 8.18772 8.1332L8.23383 8.12202C8.23383 8.12202 8.23942 8.11783 8.23802 8.11503L8.17933 7.86628C8.17933 7.86628 8.17514 7.86069 8.17234 7.86209L8.12623 7.87327C8.12623 7.87327 8.12064 7.87746 8.12204 7.88165L8.143 7.97249L7.89565 8.03118C7.89565 8.03118 7.89006 8.03538 7.89145 8.03817L7.90403 8.09267L7.90543 8.09127ZM6.39757 6.69521C6.39757 6.69521 6.39477 6.68962 6.39058 6.68962L6.33468 6.69381C6.33468 6.69381 6.32909 6.69661 6.32909 6.7008L6.35285 7.00684C6.35285 7.00684 6.35564 7.01243 6.35984 7.01243L6.55967 6.99706C6.55967 6.99706 6.56526 6.99427 6.56526 6.99007L6.56107 6.94256C6.56107 6.94256 6.55828 6.93697 6.55408 6.93697L6.41713 6.94815L6.39757 6.69521ZM5.37602 7.45263C5.41655 7.48757 5.45708 7.50015 5.4976 7.49456C5.53813 7.48897 5.57586 7.46521 5.608 7.42748C5.62757 7.40512 5.64993 7.37158 5.66111 7.34223C5.66111 7.33944 5.66111 7.33665 5.65971 7.33525L5.54232 7.23323C5.54232 7.23323 5.53533 7.23184 5.53394 7.23323L5.45149 7.32826C5.45149 7.32826 5.44869 7.33525 5.45149 7.33664L5.48642 7.36739C5.48642 7.36739 5.49341 7.36879 5.49481 7.36739L5.53533 7.31988L5.58145 7.3604C5.57586 7.36879 5.56887 7.37857 5.56328 7.38556C5.54092 7.41071 5.51717 7.42468 5.49341 7.42608C5.46965 7.42748 5.4445 7.4177 5.41795 7.39534C5.39279 7.37298 5.38022 7.34643 5.37882 7.31988C5.37742 7.27655 5.40397 7.24022 5.43611 7.21367C5.4459 7.20528 5.45568 7.1983 5.46546 7.19271C5.46965 7.18991 5.46965 7.18572 5.46546 7.18292L5.43052 7.15218C5.43052 7.15218 5.42493 7.14939 5.42354 7.15218C5.41236 7.15777 5.40258 7.16615 5.39279 7.17454C5.34668 7.21507 5.31034 7.26957 5.31314 7.33245C5.31454 7.37577 5.3355 7.4191 5.37463 7.45403L5.37602 7.45263ZM7.91661 9.10443L8.06334 9.10024C8.06334 9.10024 8.06753 9.10024 8.06893 9.09745L8.09968 9.04434C8.09968 9.04434 8.09968 9.03456 8.09409 9.03456L7.87888 9.04434L7.77267 8.98285C7.77267 8.98285 7.76568 8.98285 7.76429 8.98565L7.73634 9.03456C7.73634 9.03456 7.73634 9.04155 7.73773 9.04294L7.84394 9.10443L7.94456 9.29589C7.94456 9.29589 7.95294 9.30008 7.95574 9.29589L7.98648 9.24138C7.98648 9.24138 7.98648 9.23719 7.98648 9.2344L7.91661 9.10583V9.10443ZM8.03539 8.61253C8.03958 8.63349 8.04797 8.65166 8.06055 8.66563C8.07452 8.67961 8.09269 8.68939 8.11645 8.69218C8.15837 8.69777 8.18632 8.681 8.20309 8.65585C8.21986 8.63069 8.22824 8.59716 8.23243 8.56501L8.24501 8.47278C8.24501 8.47278 8.24361 8.46579 8.23942 8.46579L7.93478 8.42666C7.93478 8.42666 7.92779 8.42946 7.92779 8.43225L7.9208 8.48815C7.9208 8.48815 7.9222 8.49514 7.92639 8.49514L8.03819 8.50911L8.034 8.53846L7.90822 8.60554C7.90822 8.60554 7.90543 8.60833 7.90543 8.60973L7.89704 8.67681C7.89704 8.67681 7.90124 8.68659 7.90683 8.6838L8.03679 8.61253H8.03539ZM8.16116 8.60554C8.16815 8.59296 8.17095 8.57619 8.17234 8.56082L8.17654 8.52728L8.09548 8.5175L8.09269 8.53846C8.08989 8.55523 8.0885 8.57619 8.09269 8.59296C8.09688 8.60833 8.10527 8.61951 8.12623 8.62231C8.143 8.6251 8.15418 8.61672 8.15977 8.60554H8.16116ZM5.4445 9.04853C5.4445 9.04853 5.43891 9.04434 5.43611 9.04574L5.32572 9.10863L5.26982 9.0108C5.26982 9.0108 5.26423 9.00661 5.26143 9.00801L5.22091 9.03176C5.22091 9.03176 5.21671 9.03736 5.21811 9.04015L5.27401 9.13797L5.21671 9.17151L5.15103 9.05552C5.15103 9.05552 5.14544 9.05133 5.14265 9.05273L5.10212 9.07648C5.10212 9.07648 5.09793 9.08207 5.09933 9.08487L5.19715 9.25536C5.19715 9.25536 5.20274 9.25955 5.20553 9.25815L5.47245 9.10583C5.47245 9.10583 5.47664 9.10024 5.47524 9.09745L5.44729 9.04853H5.4445ZM5.16081 7.96271C5.15802 7.94175 5.15243 7.92218 5.14125 7.90821C5.12867 7.89283 5.1119 7.88165 5.08815 7.87607C5.04762 7.86628 5.01827 7.88026 4.99871 7.90401C4.97914 7.92637 4.96796 7.95991 4.96098 7.99066L4.94002 8.08149C4.94002 8.08149 4.94002 8.08848 4.94421 8.08988L5.24326 8.15835C5.24326 8.15835 5.25025 8.15835 5.25025 8.15416L5.26283 8.09966C5.26283 8.09966 5.26283 8.09267 5.25864 8.09267L5.14824 8.06752L5.15522 8.03957L5.28659 7.98646C5.28659 7.98646 5.28938 7.98367 5.29078 7.98227L5.30615 7.91659C5.30615 7.91659 5.30196 7.90681 5.29777 7.9096L5.16081 7.9669V7.96271ZM5.09513 8.03118C5.09933 8.01441 5.10352 7.99345 5.10072 7.97668C5.09793 7.96131 5.09094 7.94873 5.06998 7.94454C5.05321 7.94035 5.04203 7.94734 5.03365 7.95712C5.02526 7.9683 5.02107 7.98646 5.01688 8.00044L5.00989 8.03398L5.08954 8.05214L5.09374 8.03118H5.09513ZM7.46663 7.04737L7.39116 7.09908L7.44147 7.13541L7.46523 7.04877L7.46663 7.04737ZM6.51915 9.99462C6.52753 10.0072 6.54151 10.0142 6.55548 10.0156C6.57505 10.0184 6.59601 10.0184 6.61557 10.0156C6.62955 10.0142 6.64352 10.0058 6.65191 9.99462C6.6575 10.003 6.66588 10.0086 6.67706 10.0086C6.69383 10.0086 6.70641 9.99601 6.70641 9.97924C6.70641 9.97226 6.70361 9.96527 6.69942 9.95968C6.712 9.95549 6.72318 9.94571 6.72877 9.93313C6.73715 9.91636 6.74274 9.89819 6.74554 9.87863C6.74833 9.86465 6.74554 9.84928 6.73715 9.8367C6.74973 9.83391 6.75951 9.82133 6.75951 9.80875C6.75951 9.79198 6.74693 9.77941 6.73016 9.77941C6.72597 9.77941 6.72178 9.77941 6.71898 9.7822C6.71898 9.76823 6.712 9.75425 6.70221 9.74587C6.68824 9.73329 6.67287 9.72211 6.6561 9.71233C6.64352 9.70394 6.62815 9.70255 6.61417 9.70674V9.70394C6.61417 9.68857 6.6016 9.6746 6.58483 9.6746C6.56806 9.6746 6.55548 9.68857 6.55548 9.70394C6.55548 9.70394 6.55548 9.70534 6.55548 9.70674C6.54151 9.70255 6.52613 9.70394 6.51356 9.71233C6.49679 9.72071 6.48142 9.73189 6.46744 9.74587C6.45766 9.75565 6.45067 9.76823 6.45067 9.7822C6.44648 9.7808 6.44368 9.77941 6.43949 9.77941C6.42272 9.77941 6.41014 9.79198 6.41014 9.80875C6.41014 9.82273 6.41993 9.83391 6.4325 9.8367C6.42412 9.84928 6.42132 9.86326 6.42412 9.87863C6.42691 9.89679 6.4325 9.91496 6.44089 9.93313C6.44648 9.94571 6.45766 9.95549 6.47024 9.95968C6.46604 9.96527 6.46325 9.97226 6.46325 9.97924C6.46325 9.99462 6.47583 10.0086 6.4926 10.0086C6.50238 10.0086 6.51216 10.003 6.51775 9.99462H6.51915ZM6.58483 7.03759C5.86513 7.03759 5.281 7.62173 5.281 8.34142C5.281 9.06111 5.86513 9.64525 6.58483 9.64525C7.30452 9.64525 7.88866 9.06111 7.88866 8.34142C7.88866 7.62173 7.30452 7.03759 6.58483 7.03759Z" fill="#CCCCCC"/>
<path fill-rule="evenodd" clip-rule="evenodd" d="M8.10667 9.81857L7.94037 9.5293C7.925 9.54048 7.90823 9.55305 7.89425 9.56563C7.86211 9.59218 7.83277 9.62293 7.80621 9.65507L8.03819 9.88705C8.06055 9.86888 8.08291 9.84792 8.10248 9.82696L8.10807 9.82137L8.10667 9.81857Z" fill="#CCCCCC"/>
<path fill-rule="evenodd" clip-rule="evenodd" d="M8.0116 9.48597L8.26034 9.55305C8.27013 9.51811 8.26593 9.47759 8.24078 9.45103C8.21283 9.42308 8.16951 9.42169 8.13318 9.43287C8.08985 9.44684 8.04933 9.46501 8.0116 9.48597Z" fill="#CCCCCC"/>
<path fill-rule="evenodd" clip-rule="evenodd" d="M8.23523 9.62013L8.04657 9.56982L8.15557 9.75988C8.18632 9.71795 8.21287 9.67044 8.23523 9.62013Z" fill="#CCCCCC"/>
<path fill-rule="evenodd" clip-rule="evenodd" d="M5.10632 9.86325L5.39559 9.69556C5.38441 9.68019 5.37183 9.66481 5.35926 9.64944C5.33271 9.6173 5.30336 9.58795 5.26982 9.5614L5.03784 9.79338C5.05601 9.81574 5.07697 9.8381 5.09793 9.85766L5.10352 9.86325H5.10632Z" fill="#CCCCCC"/>
<path fill-rule="evenodd" clip-rule="evenodd" d="M5.44031 9.76685L5.37323 10.0156C5.40817 10.0254 5.44869 10.0212 5.47524 9.99603C5.50319 9.96808 5.50459 9.92476 5.49341 9.88843C5.47944 9.8451 5.46127 9.80458 5.44031 9.76685Z" fill="#CCCCCC"/>
<path fill-rule="evenodd" clip-rule="evenodd" d="M5.30613 9.99048L5.35644 9.80182L5.16638 9.91082C5.20831 9.94156 5.25582 9.96812 5.30613 9.99048Z" fill="#CCCCCC"/>
<path fill-rule="evenodd" clip-rule="evenodd" d="M5.06299 6.86291L5.23068 7.15218C5.24606 7.141 5.26283 7.12843 5.2768 7.11585C5.30894 7.0893 5.33829 7.05995 5.36484 7.02641L5.13286 6.79443C5.1105 6.8126 5.08814 6.83356 5.06858 6.85452L5.06299 6.86011V6.86291Z" fill="#CCCCCC"/>
<path fill-rule="evenodd" clip-rule="evenodd" d="M5.15798 7.1969L4.90923 7.12982C4.89945 7.16476 4.90364 7.20528 4.92879 7.23184C4.95674 7.25979 5.00006 7.26118 5.0364 7.25C5.07972 7.23603 5.12024 7.21786 5.15798 7.1969Z" fill="#CCCCCC"/>
<path fill-rule="evenodd" clip-rule="evenodd" d="M4.93439 7.06138L5.12304 7.11169L5.01404 6.92163C4.9833 6.96495 4.95675 7.01107 4.93439 7.06138Z" fill="#CCCCCC"/>
<path fill-rule="evenodd" clip-rule="evenodd" d="M8.06332 6.81964L7.77405 6.98734C7.78523 7.00271 7.7978 7.01808 7.81038 7.03345C7.83693 7.06559 7.86768 7.09494 7.89982 7.12149L8.1318 6.88951C8.11363 6.86715 8.09267 6.8448 8.07171 6.82523L8.06612 6.81964H8.06332Z" fill="#CCCCCC"/>
<path fill-rule="evenodd" clip-rule="evenodd" d="M7.72932 6.91463L7.7964 6.66588C7.76286 6.6561 7.72093 6.66029 7.69438 6.68544C7.66643 6.71339 7.66503 6.75672 7.67621 6.79305C7.69019 6.83637 7.70836 6.8769 7.72932 6.91463Z" fill="#CCCCCC"/>
<path fill-rule="evenodd" clip-rule="evenodd" d="M7.86488 6.69104L7.81458 6.8797L8.00463 6.7707C7.96271 6.73995 7.91519 6.7134 7.86488 6.69104Z" fill="#CCCCCC"/>
<path fill-rule="evenodd" clip-rule="evenodd" d="M5.45984 9.65643C5.54928 9.78499 5.60378 9.9443 5.61356 10.1288C5.61356 10.133 5.61076 10.1358 5.60657 10.1358C5.56605 10.133 5.52831 10.1288 5.49058 10.1232V12.0349C5.49058 12.067 5.50456 12.0978 5.52552 12.1188C5.54648 12.1397 5.57723 12.1537 5.60937 12.1537H7.55883C7.59097 12.1537 7.62171 12.1397 7.64267 12.1188C7.66364 12.0964 7.67761 12.067 7.67761 12.0335V10.1134C7.67761 10.1134 7.6804 10.1078 7.6832 10.1078C7.7363 10.098 7.7908 10.0841 7.84251 10.0659V10.0044C7.84251 10.0044 7.84251 9.99881 7.8467 9.99741C7.89422 9.97784 7.93754 9.95548 7.97806 9.92893L7.76146 9.71233C7.74888 9.73049 7.7377 9.75006 7.72652 9.77102L7.82714 9.87164C7.82714 9.87164 7.82993 9.87862 7.82714 9.88002L7.74329 9.96387C7.74329 9.96387 7.7363 9.96666 7.73491 9.96387L7.61612 9.84508C7.61612 9.84508 7.61333 9.84089 7.61472 9.8381C7.63988 9.77102 7.67202 9.71093 7.70975 9.65503C7.64966 9.70674 7.58538 9.75425 7.5197 9.79617V11.9804C7.5197 11.9804 7.51411 11.9916 7.50852 11.9916H5.66247C5.66247 11.9916 5.65129 11.986 5.65129 11.9804V9.79617C5.58421 9.75285 5.52133 9.70534 5.46124 9.65503L5.45984 9.65643Z" fill="#CCCCCC"/>
<path fill-rule="evenodd" clip-rule="evenodd" d="M5.26979 7.21649C5.14122 7.30593 4.98191 7.36043 4.79744 7.37021C4.79325 7.37021 4.79046 7.36742 4.79046 7.36323C4.79325 7.3227 4.79744 7.28497 4.80303 7.24724H2.89131C2.85916 7.24724 2.82842 7.26121 2.80746 7.28217C2.7865 7.30313 2.77252 7.33388 2.77252 7.36602V9.31548C2.77252 9.34762 2.7865 9.37836 2.80746 9.39933C2.82842 9.42029 2.85916 9.43426 2.89131 9.43426H4.81002C4.81002 9.43426 4.81561 9.43566 4.81701 9.43985C4.82679 9.49435 4.84076 9.54746 4.85893 9.59916H4.92042C4.92042 9.59916 4.92601 9.59916 4.92741 9.60336C4.94697 9.65087 4.96933 9.69419 4.99588 9.73472L5.21249 9.51951C5.19432 9.50693 5.17476 9.49575 5.1538 9.48457L5.05318 9.58519C5.05318 9.58519 5.04619 9.58798 5.04479 9.58519L4.96095 9.50134C4.96095 9.50134 4.95815 9.49435 4.96095 9.49296L5.07973 9.37417C5.07973 9.37417 5.08392 9.37138 5.08672 9.37277C5.1538 9.39793 5.21528 9.43007 5.26979 9.4678C5.21808 9.40771 5.17057 9.34343 5.12864 9.27775H2.94441C2.94441 9.27775 2.93323 9.27216 2.93323 9.26657V7.42052C2.93323 7.42052 2.93882 7.40934 2.94441 7.40934H5.12864C5.17196 7.34226 5.21948 7.27938 5.26979 7.21929V7.21649Z" fill="#CCCCCC"/>
<path fill-rule="evenodd" clip-rule="evenodd" d="M7.70975 7.02503C7.62032 6.89647 7.56581 6.73716 7.55603 6.55269C7.55603 6.5485 7.55883 6.54571 7.56302 6.54571C7.60355 6.5485 7.64128 6.55269 7.67901 6.55828V4.64656C7.67901 4.61441 7.66503 4.58367 7.64407 4.56271C7.62311 4.54175 7.59237 4.52777 7.56022 4.52777H5.61077C5.57863 4.52777 5.54788 4.54175 5.52692 4.56271C5.50596 4.58367 5.49198 4.61441 5.49198 4.64656V6.56667C5.49198 6.56667 5.48919 6.57226 5.48639 6.57365C5.43189 6.58344 5.37879 6.59741 5.32708 6.61558V6.67707C5.32708 6.67707 5.32708 6.68266 5.32289 6.68405C5.27538 6.70362 5.23205 6.72598 5.19153 6.75253L5.40674 6.96914C5.41931 6.94957 5.43049 6.9314 5.44167 6.91044L5.34106 6.80983C5.34106 6.80983 5.33826 6.80284 5.34106 6.80144L5.4249 6.71759C5.4249 6.71759 5.43189 6.7148 5.43329 6.71759L5.55207 6.83638C5.55207 6.83638 5.55487 6.84057 5.55347 6.84336C5.52832 6.91044 5.49617 6.97053 5.45844 7.02643C5.51853 6.97473 5.58282 6.92721 5.6485 6.88529V4.70106C5.6485 4.70106 5.65409 4.68988 5.65968 4.68988H7.50572C7.50572 4.68988 7.5169 4.69547 7.5169 4.70106V6.88529C7.58398 6.92861 7.64687 6.97612 7.70696 7.02643L7.70975 7.02503Z" fill="#CCCCCC"/>
<path fill-rule="evenodd" clip-rule="evenodd" d="M8.36659 9.43426H10.2783C10.3105 9.43426 10.3412 9.42028 10.3622 9.39932C10.3831 9.37696 10.3971 9.34762 10.3971 9.31547V7.36602C10.3971 7.33387 10.3831 7.30313 10.3622 7.28217C10.3398 7.26121 10.3105 7.24723 10.2783 7.24723H8.35821C8.35821 7.24723 8.35262 7.24444 8.35262 7.24164C8.34284 7.18714 8.32886 7.13404 8.3107 7.08233H8.24921C8.24921 7.08233 8.24362 7.08233 8.24222 7.07814C8.22265 7.03063 8.2003 6.9873 8.17374 6.94678L7.95714 7.16338C7.9767 7.17596 7.99487 7.18714 8.01583 7.19832L8.11645 7.0977C8.11645 7.0977 8.12344 7.09491 8.12483 7.0977L8.20868 7.18155C8.20868 7.18155 8.21148 7.18854 8.20868 7.18994L8.0899 7.30872C8.0899 7.30872 8.0857 7.31152 8.08291 7.31012C8.01583 7.28496 7.95574 7.25282 7.89984 7.21509C7.95155 7.27518 7.99906 7.33946 8.04099 7.40515H10.2252C10.2252 7.40515 10.2364 7.41073 10.2364 7.41632V9.26237C10.2364 9.26237 10.2308 9.27355 10.2252 9.27355H8.04099C7.99766 9.34063 7.95015 9.40351 7.89984 9.46361C8.02841 9.37417 8.18772 9.31967 8.37218 9.30988C8.37638 9.30988 8.37917 9.31268 8.37917 9.31687C8.37638 9.3574 8.37218 9.39513 8.36659 9.43286V9.43426Z" fill="#CCCCCC"/>
<path fill-rule="evenodd" clip-rule="evenodd" d="M5.1133 9.25259C4.9484 8.98847 4.85337 8.67544 4.85337 8.34144C4.85337 8.00745 4.9484 7.69442 5.1133 7.4303H2.95422V9.25399H5.1133V9.25259Z" fill="#CCCCCC"/>
<path fill-rule="evenodd" clip-rule="evenodd" d="M7.49734 9.81299C7.23322 9.97789 6.92019 10.0729 6.58619 10.0729C6.2522 10.0729 5.93917 9.97789 5.67505 9.81299V11.9721H7.49874V9.81299H7.49734Z" fill="#CCCCCC"/>
<path fill-rule="evenodd" clip-rule="evenodd" d="M8.05634 7.42889C8.22124 7.69301 8.31626 8.00604 8.31626 8.34003C8.31626 8.67403 8.22124 8.98706 8.05634 9.25118H10.2154V7.42749H8.05634V7.42889Z" fill="#CCCCCC"/>
<path fill-rule="evenodd" clip-rule="evenodd" d="M6.58478 6.60997C6.91878 6.60997 7.23181 6.70499 7.49593 6.86989V4.71082H5.67224V6.86989C5.93636 6.70499 6.24939 6.60997 6.58339 6.60997H6.58478Z" fill="#CCCCCC"/>
<path fill-rule="evenodd" clip-rule="evenodd" d="M5.55628 7.7224C5.57585 7.70843 5.59541 7.69445 5.61638 7.68048V7.65952C5.61638 7.63436 5.62616 7.612 5.64293 7.59663C5.65271 7.58685 5.66668 7.57846 5.68066 7.57427C5.70442 7.56589 5.72817 7.5575 5.75193 7.55051C5.75193 7.52117 5.75752 7.49881 5.77848 7.47784C5.79246 7.46387 5.81202 7.45409 5.83298 7.45129C5.86512 7.4457 5.89727 7.44151 5.92941 7.43872C5.95736 7.43592 5.98531 7.43452 6.01325 7.43452C6.01605 7.41915 6.02443 7.40518 6.03561 7.394C6.05099 7.38142 6.06915 7.37443 6.08872 7.37583C6.13204 7.37723 6.17536 7.38142 6.21728 7.38841C6.25921 7.394 6.30113 7.40378 6.34166 7.41356C6.35424 7.41636 6.36402 7.42195 6.3738 7.43173L6.40874 7.46667L6.43669 7.43872L6.39336 7.39539C6.37799 7.38002 6.35703 7.36884 6.33607 7.36325C6.31371 7.35627 6.28855 7.35487 6.26759 7.35766C6.22287 7.36465 6.17816 7.35347 6.14042 7.32971C6.11527 7.31294 6.09291 7.28919 6.07894 7.26264C6.07894 7.26124 6.07894 7.25844 6.07894 7.25565C6.08033 7.25285 6.08453 7.25146 6.08732 7.25425C6.10828 7.26683 6.13344 7.27521 6.15719 7.27801C6.18514 7.27941 6.21169 7.27521 6.23685 7.26403C6.25502 7.25705 6.27318 7.25285 6.29275 7.25425C6.30532 7.25425 6.3179 7.25844 6.32908 7.26264C6.35424 7.27382 6.38218 7.27382 6.40734 7.26543C6.42131 7.25984 6.43389 7.25146 6.44507 7.24167C6.45206 7.23329 6.46044 7.2249 6.46883 7.21652C6.49957 7.18997 6.5401 7.1746 6.58202 7.1746C6.62115 7.1746 6.6505 7.18578 6.68404 7.20534L6.78326 7.26264C6.78326 7.26264 6.78745 7.26962 6.78326 7.27242L6.7036 7.35207L6.77487 7.3926C6.77627 7.37583 6.78326 7.36186 6.79164 7.34928C6.80282 7.33391 6.81959 7.32133 6.83776 7.31574C6.84055 7.31574 6.84474 7.31574 6.84614 7.31993L6.8671 7.39819H6.95375C6.9817 7.39819 7.00545 7.41915 7.00685 7.4471L7.1997 7.49881C7.21926 7.503 7.23324 7.51977 7.23324 7.54073V7.58824C7.23324 7.60222 7.22206 7.6134 7.20808 7.6134H7.1997V7.64834C7.1997 7.66231 7.18852 7.67349 7.17455 7.67349H7.08511C7.08511 7.67349 7.08092 7.67349 7.08092 7.67209L7.04458 7.63995C7.01523 7.68187 6.9803 7.721 6.94257 7.75314L7.04318 7.85376C7.06834 7.87892 7.08511 7.91385 7.08511 7.95019V7.99071C7.10048 7.9991 7.11445 8.01168 7.12563 8.02705C7.14101 8.04661 7.15079 8.07037 7.15358 8.09552L7.31709 7.98093C7.31709 7.98093 7.31988 7.97953 7.32128 7.97953H7.40233C7.42329 7.97953 7.44286 7.98512 7.46102 7.99491L7.68602 8.12487C7.71956 8.14443 7.74191 8.17378 7.75589 8.20732C7.77126 8.24645 7.77545 8.28977 7.76986 8.3303C7.76986 8.33449 7.76427 8.33728 7.76008 8.33449L7.64689 8.26881C7.64689 8.26881 7.64269 8.26462 7.64409 8.26182L7.65667 8.21291C7.66226 8.19474 7.65108 8.17518 7.63152 8.16959C7.62173 8.16679 7.61055 8.16959 7.60217 8.17518C7.60077 8.17658 7.59798 8.17658 7.59518 8.17518L7.43308 8.08155H7.33386C7.3073 8.14723 7.27097 8.21011 7.22905 8.26881H7.37857C7.40093 8.26881 7.4219 8.27859 7.43727 8.29536L7.62173 8.47982C7.65248 8.4924 7.68043 8.51197 7.70418 8.53572C7.72794 8.55948 7.7475 8.58743 7.76008 8.61957C7.76148 8.62376 7.75868 8.62796 7.75449 8.62796H7.62173L7.75449 8.76071C7.75449 8.76071 7.75729 8.7677 7.75449 8.7705C7.73353 8.79146 7.70698 8.80124 7.67903 8.80124C7.65108 8.80124 7.62453 8.79146 7.60357 8.7705L7.57142 8.73696C7.57562 8.74814 7.57701 8.76071 7.57701 8.77189C7.57701 8.80124 7.56583 8.83059 7.54347 8.85295C7.52112 8.87531 7.49177 8.88649 7.46242 8.88649C7.43308 8.88649 7.40373 8.87531 7.38137 8.85295L7.31289 8.78447C7.30311 8.77469 7.28914 8.77609 7.27935 8.78447C7.27097 8.79286 7.27097 8.80823 7.27935 8.81661L7.34783 8.88509C7.37019 8.90745 7.38277 8.93959 7.38137 8.97173C7.38556 8.97453 7.38836 8.97732 7.39115 8.98151L7.42329 9.01365L7.49456 8.96335C7.49736 8.95077 7.50155 8.93959 7.50854 8.92841C7.51553 8.91723 7.52531 8.90745 7.53649 8.89906L7.60496 8.85015C7.61754 8.84177 7.63291 8.84456 7.64269 8.85714C7.64689 8.86413 7.64828 8.87111 7.64689 8.8795C7.65387 8.8795 7.66226 8.88369 7.66645 8.89068C7.67064 8.89627 7.67204 8.90465 7.67064 8.91304C7.67903 8.91304 7.68602 8.91723 7.69021 8.92422C7.69859 8.93679 7.6958 8.95217 7.68322 8.96195L7.50714 9.08632C7.50714 9.08632 7.51553 9.09191 7.51832 9.09471C7.52251 9.1017 7.52391 9.10868 7.52251 9.11707C7.5295 9.11707 7.53789 9.12126 7.54208 9.12825C7.54627 9.13523 7.54767 9.14222 7.54627 9.15061C7.55465 9.15061 7.56164 9.1548 7.56583 9.16179C7.56583 9.16179 7.56583 9.16318 7.56723 9.16458C7.75309 8.94238 7.86629 8.65591 7.86629 8.34287C7.86629 7.63576 7.29193 7.0614 6.58482 7.0614C5.8777 7.0614 5.30334 7.63576 5.30334 8.34287C5.30334 8.70202 5.45148 9.02623 5.68904 9.25961H5.91823L5.72957 9.20231C5.72957 9.20231 5.72538 9.19812 5.72538 9.19533C5.72538 9.18694 5.72817 9.17995 5.73097 9.17297C5.73376 9.16598 5.73656 9.15759 5.73935 9.15061C5.74075 9.14781 5.74494 9.14641 5.74774 9.14781L6.02024 9.23026C6.02863 9.21349 6.0412 9.19952 6.05658 9.18834C6.07335 9.17716 6.09291 9.17157 6.11387 9.17157H6.17955C6.17257 9.1562 6.16977 9.14082 6.16977 9.12405C6.16977 9.10868 6.17257 9.09471 6.17816 9.08073C6.12226 9.02484 6.06636 8.96894 6.01046 8.91304C5.9909 8.89347 5.97832 8.8809 5.97832 8.84875C5.97832 8.83059 5.98391 8.81242 5.99649 8.79845C6.01325 8.77748 6.02863 8.75373 6.0412 8.72857C6.05238 8.70621 6.06217 8.68246 6.06915 8.6573C6.00906 8.62935 5.95736 8.58883 5.91683 8.53712C5.88888 8.50218 5.86792 8.46306 5.85255 8.42113C5.83298 8.42532 5.81202 8.42812 5.79246 8.42812C5.74913 8.42812 5.7156 8.42113 5.67647 8.40157C5.65131 8.38899 5.62197 8.39458 5.6024 8.41414C5.57445 8.44209 5.57864 8.48961 5.61079 8.51336C5.63454 8.52874 5.6569 8.5469 5.67647 8.56647C5.69603 8.58743 5.7142 8.60979 5.72817 8.63355C5.73656 8.64752 5.74215 8.66289 5.74215 8.67966C5.74215 8.70621 5.72957 8.73277 5.70721 8.74814C5.68904 8.76211 5.67647 8.78447 5.67647 8.80683C5.67647 8.81661 5.67926 8.83198 5.68485 8.84037C5.70162 8.86692 5.70302 8.90046 5.68765 8.92841C5.66529 8.96894 5.6024 8.9885 5.55908 8.99269C5.55349 8.99269 5.5493 8.9871 5.55349 8.98291C5.57725 8.95496 5.57725 8.91304 5.55349 8.88509C5.53113 8.85854 5.51855 8.825 5.51855 8.79006C5.51855 8.7663 5.52414 8.74394 5.53393 8.72298C5.54371 8.70342 5.5493 8.68246 5.5493 8.6601C5.5493 8.62656 5.53393 8.58463 5.50877 8.56228C5.47523 8.53433 5.45567 8.4924 5.45567 8.44908C5.45567 8.40855 5.47244 8.37222 5.49899 8.34567C5.52554 8.31912 5.56327 8.30235 5.6038 8.30235C5.62895 8.30235 5.65411 8.30933 5.67647 8.32191C5.7114 8.34148 5.75193 8.35266 5.79246 8.35266C5.80783 8.35266 5.8232 8.35126 5.83717 8.34846C5.85255 8.32191 5.87071 8.29815 5.89168 8.2758C5.91124 8.25344 5.9322 8.23387 5.95456 8.2171L5.87071 8.13325L5.84835 8.15561C5.84835 8.15561 5.84137 8.15841 5.83997 8.15561L5.81202 8.12766C5.81202 8.12766 5.80923 8.12068 5.81202 8.11928L5.81761 8.11369C5.81761 8.11369 5.80923 8.11089 5.80503 8.1067C5.80224 8.10391 5.79944 8.09832 5.79805 8.09413C5.79385 8.09413 5.78826 8.08993 5.78547 8.08714C5.78267 8.08434 5.77988 8.08015 5.77848 8.07456H5.64433C5.63315 8.08854 5.62057 8.10251 5.60939 8.11788C5.60799 8.12068 5.6038 8.12068 5.601 8.11928L5.51576 8.07037C5.48082 8.0508 5.45148 8.02844 5.43331 8.00888C5.42073 7.9963 5.39697 7.97115 5.41235 7.95298C5.4389 7.92364 5.46545 7.89429 5.4948 7.86774C5.49759 7.86494 5.50178 7.86215 5.50458 7.85935C5.50458 7.82022 5.51576 7.78389 5.53253 7.75873C5.54091 7.74616 5.5507 7.73498 5.56048 7.72799L5.55628 7.7224Z" fill="#CCCCCC"/>
<path fill-rule="evenodd" clip-rule="evenodd" d="M6.58483 9.88842C6.59042 9.87724 6.6016 9.87025 6.61418 9.86746C6.60719 9.85907 6.603 9.84929 6.603 9.83671C6.603 9.83531 6.603 9.83392 6.603 9.83252C6.59741 9.83531 6.59182 9.83671 6.58623 9.83671C6.58064 9.83671 6.57365 9.83671 6.56806 9.83252C6.56806 9.83392 6.56806 9.83531 6.56806 9.83671C6.56806 9.84789 6.56387 9.85907 6.55688 9.86746C6.56946 9.87025 6.57924 9.87864 6.58623 9.88842H6.58483Z" fill="#CCCCCC"/>
<path fill-rule="evenodd" clip-rule="evenodd" d="M6.44084 9.79199C6.45062 9.79199 6.45761 9.79898 6.45761 9.80876C6.45761 9.81854 6.45062 9.82553 6.44084 9.82553C6.43106 9.82553 6.42407 9.81854 6.42407 9.80876C6.42407 9.79898 6.43106 9.79199 6.44084 9.79199Z" fill="#CCCCCC"/>
<path fill-rule="evenodd" clip-rule="evenodd" d="M6.58482 9.6886C6.59461 9.6886 6.60159 9.69559 6.60159 9.70537C6.60159 9.71515 6.59461 9.72214 6.58482 9.72214C6.57504 9.72214 6.56805 9.71515 6.56805 9.70537C6.56805 9.69559 6.57504 9.6886 6.58482 9.6886Z" fill="#CCCCCC"/>
<path fill-rule="evenodd" clip-rule="evenodd" d="M6.73015 9.79199C6.73993 9.79199 6.74692 9.79898 6.74692 9.80876C6.74692 9.81854 6.73993 9.82553 6.73015 9.82553C6.72037 9.82553 6.71338 9.81854 6.71338 9.80876C6.71338 9.79898 6.72037 9.79199 6.73015 9.79199Z" fill="#CCCCCC"/>
<path fill-rule="evenodd" clip-rule="evenodd" d="M6.67705 9.96252C6.68683 9.96252 6.69382 9.97091 6.69382 9.97929C6.69382 9.98768 6.68683 9.99606 6.67705 9.99606C6.66727 9.99606 6.66028 9.98908 6.66028 9.97929C6.66028 9.96951 6.66727 9.96252 6.67705 9.96252Z" fill="#CCCCCC"/>
<path fill-rule="evenodd" clip-rule="evenodd" d="M6.494 9.96252C6.50379 9.96252 6.51077 9.97091 6.51077 9.97929C6.51077 9.98768 6.50379 9.99606 6.494 9.99606C6.48422 9.99606 6.47723 9.98908 6.47723 9.97929C6.47723 9.96951 6.48422 9.96252 6.494 9.96252Z" fill="#CCCCCC"/>
<path fill-rule="evenodd" clip-rule="evenodd" d="M6.62394 9.87866C6.64211 9.87866 6.65748 9.89264 6.65748 9.9108C6.65748 9.92897 6.64211 9.94434 6.62394 9.94434C6.60577 9.94434 6.5918 9.92897 6.5918 9.9108C6.5918 9.89264 6.60577 9.87866 6.62394 9.87866Z" fill="#96877D"/>
<path fill-rule="evenodd" clip-rule="evenodd" d="M6.64768 9.80457C6.66585 9.80457 6.67982 9.81854 6.67982 9.83671C6.67982 9.85487 6.66585 9.86885 6.64768 9.86885C6.62951 9.86885 6.61554 9.85487 6.61554 9.83671C6.61554 9.81854 6.62951 9.80457 6.64768 9.80457Z" fill="#96877D"/>
<path fill-rule="evenodd" clip-rule="evenodd" d="M6.58481 9.75848C6.60298 9.75848 6.61696 9.77246 6.61696 9.79062C6.61696 9.80879 6.60158 9.82277 6.58481 9.82277C6.56805 9.82277 6.55267 9.80739 6.55267 9.79062C6.55267 9.77386 6.56665 9.75848 6.58481 9.75848Z" fill="#96877D"/>
<path fill-rule="evenodd" clip-rule="evenodd" d="M6.52195 9.80457C6.54012 9.80457 6.55409 9.81854 6.55409 9.83671C6.55409 9.85487 6.53872 9.86885 6.52195 9.86885C6.50518 9.86885 6.48981 9.85487 6.48981 9.83671C6.48981 9.81854 6.50378 9.80457 6.52195 9.80457Z" fill="#96877D"/>
<path fill-rule="evenodd" clip-rule="evenodd" d="M6.57924 9.9108C6.57924 9.89264 6.56386 9.87866 6.5471 9.87866C6.53033 9.87866 6.51495 9.89264 6.51495 9.9108C6.51495 9.92897 6.53033 9.94434 6.5471 9.94434C6.56386 9.94434 6.57924 9.92897 6.57924 9.9108Z" fill="#96877D"/>
<path fill-rule="evenodd" clip-rule="evenodd" d="M6.5932 9.74591C6.61416 9.7501 6.63093 9.76827 6.63093 9.79063C6.63093 9.79203 6.63093 9.79342 6.63093 9.79482C6.63652 9.79202 6.64211 9.79063 6.6491 9.79063C6.66587 9.79063 6.68124 9.80041 6.68963 9.81439C6.69661 9.81019 6.70081 9.8046 6.7036 9.79762C6.71059 9.78224 6.7064 9.76547 6.69382 9.7529C6.68124 9.74032 6.66727 9.73054 6.6505 9.72215C6.63512 9.71377 6.61835 9.71377 6.60438 9.72634C6.59879 9.73193 6.5946 9.73752 6.5932 9.74451V9.74591Z" fill="#96877D"/>
<path fill-rule="evenodd" clip-rule="evenodd" d="M6.48279 9.81579C6.48978 9.80182 6.50515 9.79204 6.52332 9.79204C6.52891 9.79204 6.5359 9.79204 6.54149 9.79623C6.54149 9.79483 6.54149 9.79344 6.54149 9.79204C6.54149 9.76968 6.55826 9.75151 6.57922 9.74732C6.57782 9.74033 6.57363 9.73335 6.56804 9.72915C6.55407 9.71658 6.5373 9.71657 6.52192 9.72496C6.50655 9.73334 6.49118 9.74313 6.4786 9.7557C6.46603 9.76828 6.46183 9.78365 6.46882 9.80042C6.47162 9.80741 6.4772 9.813 6.48279 9.81719V9.81579Z" fill="#96877D"/>
<path fill-rule="evenodd" clip-rule="evenodd" d="M6.51212 9.94156C6.50514 9.93318 6.50094 9.9234 6.50094 9.91082C6.50094 9.89824 6.50514 9.88846 6.51212 9.88147C6.49256 9.87728 6.47719 9.85911 6.47719 9.83675C6.47719 9.83396 6.47719 9.83116 6.47719 9.82837C6.4702 9.82837 6.46181 9.82837 6.45622 9.83256C6.43946 9.84095 6.43387 9.85772 6.43666 9.87588C6.43946 9.89265 6.44504 9.91082 6.45203 9.92619C6.45902 9.94156 6.47439 9.95135 6.49116 9.94855C6.49955 9.94855 6.50514 9.94436 6.51212 9.94017V9.94156Z" fill="#96877D"/>
<path fill-rule="evenodd" clip-rule="evenodd" d="M6.64629 9.95134C6.64629 9.95134 6.63231 9.95693 6.62393 9.95693C6.60716 9.95693 6.59318 9.94854 6.5848 9.93457C6.57642 9.94854 6.56244 9.95693 6.54567 9.95693C6.53729 9.95693 6.5303 9.95553 6.52331 9.95134C6.52052 9.95833 6.52052 9.96532 6.52191 9.9723C6.52471 9.98907 6.53868 10.0016 6.55685 10.003C6.57502 10.0058 6.59458 10.0058 6.61275 10.003C6.63092 10.0016 6.64349 9.98907 6.64769 9.9723C6.64769 9.96532 6.64769 9.95833 6.64629 9.95134Z" fill="#96877D"/>
<path fill-rule="evenodd" clip-rule="evenodd" d="M6.65747 9.88145C6.66446 9.88984 6.66865 9.89962 6.66865 9.9108C6.66865 9.92198 6.66446 9.93316 6.65747 9.94154C6.66306 9.94574 6.67005 9.94853 6.67704 9.94993C6.6938 9.95133 6.70918 9.94294 6.71616 9.92757C6.72455 9.9108 6.72874 9.89403 6.73293 9.87726C6.73573 9.85909 6.73014 9.84372 6.71477 9.83394C6.70778 9.82975 6.70079 9.82835 6.6938 9.82975C6.6938 9.83254 6.6938 9.83534 6.6938 9.83813C6.6938 9.86049 6.67843 9.87726 6.65887 9.88285L6.65747 9.88145Z" fill="#96877D"/>
<path fill-rule="evenodd" clip-rule="evenodd" d="M7.40792 9.52789C7.44984 9.52789 7.48338 9.56143 7.48338 9.60336C7.48338 9.64528 7.44984 9.67882 7.40792 9.67882C7.366 9.67882 7.33246 9.64528 7.33246 9.60336C7.33246 9.56143 7.366 9.52789 7.40792 9.52789Z" fill="#96877D"/>
<path d="M5.76309 9.67882C5.80476 9.67882 5.83855 9.64503 5.83855 9.60336C5.83855 9.56168 5.80476 9.52789 5.76309 9.52789C5.72141 9.52789 5.68762 9.56168 5.68762 9.60336C5.68762 9.64503 5.72141 9.67882 5.76309 9.67882Z" fill="#96877D"/>
<path fill-rule="evenodd" clip-rule="evenodd" d="M5.45845 9.0989L5.43609 9.06117L5.3257 9.12405C5.3257 9.12405 5.31871 9.12405 5.31731 9.12126L5.26141 9.02344L5.23207 9.04021L5.28796 9.13803C5.28796 9.13803 5.28796 9.14502 5.28517 9.14641L5.21669 9.18554C5.21669 9.18554 5.20971 9.18554 5.20831 9.18275L5.14263 9.06676L5.11328 9.08353L5.20412 9.24284L5.45985 9.09611L5.45845 9.0989Z" fill="#96877D"/>
<path fill-rule="evenodd" clip-rule="evenodd" d="M5.12863 8.72994C5.21667 8.71457 5.27117 8.65308 5.2544 8.56225C5.23763 8.47141 5.16636 8.43228 5.07832 8.44766C4.99028 8.46303 4.93578 8.52452 4.95255 8.61675C4.96932 8.70758 5.04059 8.74671 5.12863 8.73134V8.72994ZM4.98609 8.60976C4.97351 8.54129 5.02382 8.50356 5.08531 8.49238C5.14679 8.4812 5.20689 8.49936 5.21946 8.56784C5.23204 8.63631 5.18173 8.67405 5.12024 8.68523C5.05875 8.6964 4.99866 8.67824 4.98609 8.60976Z" fill="#96877D"/>
<path fill-rule="evenodd" clip-rule="evenodd" d="M5.29076 7.9222L5.158 7.9781C5.158 7.9781 5.14962 7.9781 5.14822 7.97251C5.14822 7.95015 5.14123 7.93058 5.13005 7.91521C5.12027 7.90124 5.1049 7.89145 5.08394 7.88726C5.049 7.87888 5.02385 7.89006 5.00708 7.91102C4.98891 7.93198 4.97913 7.96272 4.97214 7.99207L4.95258 8.07732L5.24045 8.14439L5.25024 8.10107L5.13984 8.07592C5.13984 8.07592 5.13425 8.07173 5.13564 8.06753L5.14403 8.0298C5.14403 8.0298 5.14543 8.02561 5.14822 8.02561L5.27958 7.97251L5.29076 7.9222ZM5.11328 7.9753C5.11608 7.99347 5.11189 8.01583 5.10769 8.03399L5.10071 8.06055C5.10071 8.06055 5.09651 8.06614 5.09372 8.06474L5.00149 8.04378C5.00149 8.04378 4.9959 8.03958 4.99729 8.03679L5.00568 7.99766C5.00987 7.98229 5.01406 7.96272 5.02385 7.95015C5.03363 7.93617 5.049 7.92639 5.07276 7.93198C5.09931 7.93757 5.10909 7.95434 5.11328 7.9753Z" fill="#96877D"/>
<path fill-rule="evenodd" clip-rule="evenodd" d="M5.59957 7.41914C5.61774 7.39818 5.6373 7.36883 5.64848 7.34228L5.53948 7.24725L5.46542 7.3325L5.49197 7.35486L5.5325 7.30734C5.5325 7.30734 5.53809 7.30455 5.54088 7.30734L5.59538 7.35486C5.59538 7.35486 5.59818 7.36045 5.59678 7.36324C5.58979 7.37442 5.5828 7.3856 5.57442 7.39538C5.54926 7.42333 5.52411 7.4387 5.49616 7.4401C5.46821 7.4415 5.44026 7.43032 5.41231 7.40656C5.38436 7.38141 5.37039 7.35346 5.36899 7.32271C5.36759 7.2752 5.39554 7.23607 5.43048 7.20673C5.43747 7.20114 5.44585 7.19415 5.45424 7.18856L5.42769 7.1662C5.4193 7.17179 5.41092 7.17738 5.40253 7.18437C5.35921 7.2221 5.32567 7.27241 5.32707 7.3325C5.32847 7.37302 5.34803 7.41215 5.38436 7.44429C5.4207 7.47644 5.45983 7.48901 5.49616 7.48342C5.5325 7.47783 5.56743 7.45687 5.59957 7.42054V7.41914Z" fill="#96877D"/>
<path fill-rule="evenodd" clip-rule="evenodd" d="M5.89728 7.08373L6.0007 7.03063C6.0007 7.03063 6.00629 7.03063 6.00768 7.03063L6.06638 7.08373L6.1069 7.06277L5.86934 6.85315L5.8316 6.87271L5.86095 7.18854L5.90148 7.16758L5.89309 7.08932C5.89309 7.08932 5.89309 7.08373 5.89589 7.08233L5.89728 7.08373ZM5.87493 6.92442C5.87493 6.92442 5.88191 6.91464 5.8861 6.91883L5.96995 6.99709C5.96995 6.99709 5.97275 7.00547 5.96995 7.00827L5.89868 7.0446C5.89868 7.0446 5.8903 7.0446 5.8889 7.04041L5.87493 6.92582V6.92442Z" fill="#96877D"/>
<path fill-rule="evenodd" clip-rule="evenodd" d="M6.87268 6.97472L6.92998 6.72737L6.88666 6.71759L6.81958 7.00547L7.00265 7.04739L7.00963 7.01385L6.87548 6.98311C6.87548 6.98311 6.86989 6.97892 6.87129 6.97472H6.87268Z" fill="#96877D"/>
<path fill-rule="evenodd" clip-rule="evenodd" d="M6.40596 6.95515L6.3864 6.70221L6.34308 6.705L6.36684 6.99847L6.5541 6.9831L6.5513 6.94816L6.41435 6.95934C6.41435 6.95934 6.40736 6.95655 6.40736 6.95375L6.40596 6.95515Z" fill="#96877D"/>
<path fill-rule="evenodd" clip-rule="evenodd" d="M7.34221 7.12148L7.43724 7.18856C7.43724 7.18856 7.44003 7.19275 7.44003 7.19555L7.42047 7.27241L7.4582 7.29896L7.53366 6.99012L7.49873 6.96497L7.23181 7.13685L7.26954 7.16341L7.33522 7.12008C7.33522 7.12008 7.34081 7.11869 7.34221 7.12008V7.12148ZM7.37715 7.09353L7.47218 7.02785C7.47218 7.02785 7.48475 7.02785 7.48335 7.03484L7.45261 7.14524C7.45261 7.14524 7.44562 7.15083 7.44283 7.14943L7.37715 7.10331C7.37715 7.10331 7.37435 7.09493 7.37715 7.09353Z" fill="#96877D"/>
<path fill-rule="evenodd" clip-rule="evenodd" d="M7.8146 7.61757L7.92081 7.36742L7.89426 7.3255L7.64551 7.48481L7.66926 7.52115L7.85373 7.39957C7.85373 7.39957 7.86631 7.40236 7.86351 7.40795L7.7573 7.6581L7.78386 7.70002L8.03121 7.54071L8.00745 7.50438L7.82299 7.62595C7.82299 7.62595 7.81041 7.62316 7.8132 7.61757H7.8146Z" fill="#96877D"/>
<path fill-rule="evenodd" clip-rule="evenodd" d="M7.90539 8.0396L7.91517 8.08292L8.16252 8.02563C8.16252 8.02563 8.16951 8.02563 8.16951 8.02982L8.19047 8.12065L8.22401 8.11227L8.16811 7.8761L8.13457 7.88448L8.15553 7.97532C8.15553 7.97532 8.15553 7.98231 8.15134 7.98231L7.90399 8.0396H7.90539Z" fill="#96877D"/>
<path fill-rule="evenodd" clip-rule="evenodd" d="M7.90961 8.66565L8.03678 8.59578C8.03678 8.59578 8.04516 8.59578 8.04656 8.59997C8.04935 8.62233 8.05774 8.6419 8.07032 8.65447C8.08149 8.66705 8.09826 8.67543 8.11923 8.67823C8.15556 8.68242 8.17932 8.66984 8.19469 8.64749C8.21006 8.62373 8.21705 8.59298 8.22124 8.56224L8.23242 8.4756L7.94035 8.43787L7.93476 8.48119L8.04656 8.49516C8.04656 8.49516 8.05215 8.49935 8.05215 8.50215L8.04656 8.53988C8.04656 8.53988 8.04656 8.54407 8.04376 8.54547L7.91799 8.61255L7.911 8.66425L7.90961 8.66565ZM8.17233 8.61115C8.16395 8.62652 8.14857 8.6377 8.12482 8.63491C8.09826 8.63211 8.08569 8.61534 8.0801 8.59578C8.0759 8.57761 8.0773 8.55525 8.0801 8.53709L8.08289 8.50914C8.08289 8.50914 8.08708 8.50355 8.08988 8.50355L8.18351 8.51612C8.18351 8.51612 8.1891 8.52032 8.1891 8.52311L8.18351 8.56224C8.18071 8.57901 8.17792 8.59718 8.17093 8.61115H8.17233Z" fill="#96877D"/>
<path fill-rule="evenodd" clip-rule="evenodd" d="M7.97249 9.23585L7.89983 9.10169C7.89983 9.10169 7.89983 9.09191 7.90542 9.09191L8.05774 9.08772L8.0815 9.04579L7.87607 9.05418H7.87328L7.77126 8.99548L7.7489 9.03321L7.85092 9.09191C7.85092 9.09191 7.85231 9.09331 7.85371 9.0947L7.94874 9.27777L7.97249 9.23724V9.23585Z" fill="#96877D"/>
</g>
</g>
<rect x="0.25" y="0.25" width="23.5" height="23.5" rx="11.75" stroke="#E5E3E1" stroke-width="0.5"/>
<defs>
<clipPath id="clip0_16335_6068">
<rect width="24" height="24" rx="12" fill="white"/>
</clipPath>
</defs>
</svg>
