<svg width="48" height="48" viewBox="0 0 48 48" fill="none" xmlns="http://www.w3.org/2000/svg">
<path d="M15.4705 35.4199L18.5805 32.3099C18.9705 31.9199 18.9705 31.2899 18.5805 30.8999C18.1905 30.5099 17.5605 30.5099 17.1705 30.8999L14.0605 34.0099L10.9505 30.8999C10.5605 30.5099 9.93055 30.5099 9.54055 30.8999C9.15055 31.2899 9.15055 31.9199 9.54055 32.3099L12.6505 35.4199L9.54055 38.5299C9.15055 38.9199 9.15055 39.5499 9.54055 39.9399C9.74055 40.1399 9.99055 40.2299 10.2505 40.2299C10.5105 40.2299 10.7605 40.1299 10.9605 39.9399L14.0705 36.8299L17.1805 39.9399C17.3805 40.1399 17.6305 40.2299 17.8905 40.2299C18.1505 40.2299 18.4005 40.1299 18.6005 39.9399C18.9905 39.5499 18.9905 38.9199 18.6005 38.5299L15.4905 35.4199H15.4705Z" fill="#DF0000"/>
<path d="M23.8691 22.7098C23.3191 22.7098 22.8691 22.2598 22.8691 21.7098C22.8691 21.1598 23.3091 20.7098 23.8691 20.7098C25.0591 20.7098 26.1391 20.6498 27.1391 20.5498V16.2098C27.1391 15.5498 26.5991 15.0098 25.9391 15.0098H17.8191C17.1591 15.0098 16.6191 15.5498 16.6191 16.2098V22.6598C16.6191 23.3198 17.1591 23.8598 17.8191 23.8598H25.9391C26.5991 23.8598 27.1391 23.3198 27.1391 22.6598V22.5498C26.1291 22.6498 25.0391 22.6998 23.8691 22.7098Z" fill="#8DE2E0"/>
<path d="M40.7092 23.86L39.9392 21.41C39.7692 20.88 39.2092 20.59 38.6892 20.76C38.1592 20.93 37.8692 21.49 38.0392 22.01L38.8092 24.46C38.9192 24.84 39.8092 28.17 36.1492 29.85C33.7892 30.93 32.2892 33.19 31.8092 36.37C31.5192 38.28 31.6592 40.3 32.2192 42.38L32.9292 45.02C33.0492 45.47 33.4492 45.76 33.8892 45.76C33.9792 45.76 34.0592 45.75 34.1492 45.73C34.6792 45.59 34.9992 45.04 34.8592 44.5L34.1492 41.86C33.6592 40.05 33.5392 38.3 33.7792 36.67C34.1592 34.15 35.2292 32.47 36.9692 31.67C41.2492 29.71 41.2892 25.71 40.7092 23.87V23.86Z" fill="#323232"/>
<path d="M44.8596 43.7401C39.9896 38.8601 41.0296 33.3501 41.0796 33.1201C41.1896 32.5801 40.8396 32.0501 40.2996 31.9401C39.7596 31.8301 39.2296 32.1801 39.1196 32.7201C39.0596 32.9901 37.7896 39.4801 43.4496 45.1601C43.6496 45.3601 43.8996 45.4501 44.1596 45.4501C44.4196 45.4501 44.6696 45.3501 44.8696 45.1601C45.2596 44.7701 45.2596 44.1401 44.8696 43.7501L44.8596 43.7401Z" fill="#323232"/>
<path d="M31.9098 12.1701C34.8898 12.1701 37.3098 9.75012 37.3098 6.77012C37.3098 3.79012 34.8898 1.37012 31.9098 1.37012C28.9298 1.37012 26.5098 3.79012 26.5098 6.77012C26.5098 9.75012 28.9298 12.1701 31.9098 12.1701ZM31.9098 3.38012C33.7798 3.38012 35.3098 4.90012 35.3098 6.78012C35.3098 8.66012 33.7898 10.1801 31.9098 10.1801C30.0298 10.1801 28.5098 8.66012 28.5098 6.78012C28.5098 4.90012 30.0298 3.38012 31.9098 3.38012Z" fill="#323232"/>
<path d="M15.2 18.5999C15.69 18.7199 16.15 18.8199 16.61 18.8999V16.8499C16.3 16.7899 16 16.7299 15.67 16.6499C15.13 16.5199 14.59 16.8499 14.46 17.3799C14.33 17.9099 14.66 18.4599 15.19 18.5899L15.2 18.5999Z" fill="#323232"/>
<path d="M29.1487 15.97C29.4387 15.51 29.3087 14.9 28.8487 14.6C28.3887 14.3 27.7687 14.43 27.4687 14.89C27.4387 14.93 27.2587 15.18 26.8887 15.51C27.0387 15.71 27.1387 15.94 27.1387 16.21V17.77C28.5187 16.93 29.0987 16.06 29.1587 15.97H29.1487Z" fill="#323232"/>
<path d="M14.0496 24.2202C7.86961 24.2202 2.84961 29.2502 2.84961 35.4202C2.84961 41.5902 7.87961 46.6202 14.0496 46.6202C20.2196 46.6202 25.2496 41.5902 25.2496 35.4202C25.2496 29.2502 20.2196 24.2202 14.0496 24.2202ZM14.0496 44.6202C8.97961 44.6202 4.84961 40.4902 4.84961 35.4202C4.84961 30.3502 8.97961 26.2202 14.0496 26.2202C19.1196 26.2202 23.2496 30.3502 23.2496 35.4202C23.2496 40.4902 19.1196 44.6202 14.0496 44.6202Z" fill="#323232"/>
<path d="M23.8594 22.7099C27.1594 22.7099 29.7894 22.2899 31.9094 21.6699L33.8794 27.9299C34.0094 28.3599 34.4094 28.6299 34.8294 28.6299C34.9294 28.6299 35.0294 28.6199 35.1294 28.5799C35.6594 28.4099 35.9494 27.8499 35.7794 27.3299L33.7894 21.0099C39.1294 18.7899 40.1694 15.1699 40.2194 14.9499C40.2994 14.6499 40.2294 14.3299 40.0494 14.0799C39.8694 13.8299 39.5694 13.6899 39.2594 13.6899H31.1794C30.6294 13.6899 30.1794 14.1399 30.1794 14.6899C30.1794 15.2399 30.6294 15.6899 31.1794 15.6899H37.6594C36.4094 17.5199 32.9394 20.6899 23.8594 20.7099C23.3094 20.7099 22.8594 21.1599 22.8594 21.7099C22.8594 22.2599 23.3094 22.7099 23.8594 22.7099Z" fill="#323232"/>
</svg>
