<svg width="48" height="48" viewBox="0 0 48 48" fill="none" xmlns="http://www.w3.org/2000/svg">
<path d="M16.3498 45.4698C16.1998 45.4698 16.0498 45.4398 15.9098 45.3698C15.4798 45.1598 15.2598 44.6798 15.3798 44.2198L19.6898 27.7098H11.8698C11.5598 27.7098 11.2698 27.5698 11.0798 27.3298C10.8898 27.0898 10.8198 26.7698 10.8998 26.4698L16.6198 3.28979C16.7298 2.83979 17.1298 2.52979 17.5898 2.52979H34.5798C34.9298 2.52979 35.2598 2.71979 35.4398 3.01979C35.6198 3.31979 35.6198 3.69979 35.4498 4.00979L27.6998 17.9698H36.1198C36.4998 17.9698 36.8498 18.1898 37.0198 18.5298C37.1898 18.8698 37.1498 19.2798 36.9098 19.5798L17.1398 45.0698C16.9498 45.3198 16.6498 45.4598 16.3498 45.4598V45.4698ZM13.1498 25.6998H20.9898C21.2998 25.6998 21.5898 25.8398 21.7798 26.0898C21.9698 26.3398 22.0298 26.6498 21.9598 26.9498L18.5598 39.9898L34.0898 19.9698H26.0098C25.6598 19.9698 25.3298 19.7798 25.1498 19.4798C24.9698 19.1798 24.9698 18.7998 25.1398 18.4898L32.8898 4.52979H18.3798L13.1598 25.6998H13.1498Z" fill="#323232"/>
</svg>
