<svg width="48" height="48" viewBox="0 0 48 48" fill="none" xmlns="http://www.w3.org/2000/svg">
<path d="M42.6497 43.3997H5.34969C4.04969 43.3997 2.87969 42.7296 2.22969 41.5996C1.57969 40.4696 1.57969 39.1297 2.22969 37.9996L20.8797 5.68965C21.5297 4.55965 22.6997 3.88965 23.9997 3.88965C25.2997 3.88965 26.4697 4.55965 27.1197 5.68965L45.7697 37.9996C46.4197 39.1297 46.4197 40.4696 45.7697 41.5996C45.1197 42.7296 43.9497 43.3997 42.6497 43.3997ZM23.9997 5.88965C23.4197 5.88965 22.8997 6.18965 22.6097 6.68965L3.95969 38.9996C3.66969 39.4996 3.66969 40.0996 3.95969 40.5996C4.24969 41.0996 4.76969 41.3997 5.34969 41.3997H42.6497C43.2297 41.3997 43.7497 41.0996 44.0397 40.5996C44.3297 40.0996 44.3297 39.4996 44.0397 38.9996L25.3897 6.68965C25.0997 6.18965 24.5797 5.88965 23.9997 5.88965Z" fill="#323232"/>
<path d="M23.9905 32.6098C25.1405 32.6098 26.0305 33.4998 26.0305 34.6498C26.0305 35.7998 25.1405 36.6598 23.9905 36.6598C22.8405 36.6598 21.9805 35.7698 21.9805 34.6498C21.9805 33.5298 22.8705 32.6098 23.9905 32.6098ZM25.0505 30.9998H22.9605L22.2105 22.2998V17.5098H25.7705V22.2998L25.0505 30.9998Z" fill="#DF0000"/>
</svg>
