<svg width="24" height="24" viewBox="0 0 24 24" fill="none" xmlns="http://www.w3.org/2000/svg">
<g clip-path="url(#clip0_16335_1052)">
<path d="M23.6789 14.7568C25.2013 8.30659 21.2066 1.84354 14.7564 0.321152C8.30617 -1.20123 1.84311 2.79355 0.320729 9.24374C-1.20165 15.6939 2.79312 22.157 9.24332 23.6794C15.6935 25.2018 22.1566 21.207 23.6789 14.7568Z" fill="white"/>
<mask id="mask0_16335_1052" style="mask-type:luminance" maskUnits="userSpaceOnUse" x="-1" y="-1" width="26" height="26">
<path d="M23.6789 14.7568C25.2013 8.30659 21.2066 1.84354 14.7564 0.321152C8.30617 -1.20123 1.84311 2.79355 0.320729 9.24374C-1.20165 15.6939 2.79312 22.157 9.24332 23.6794C15.6935 25.2018 22.1566 21.207 23.6789 14.7568Z" fill="white"/>
</mask>
<g mask="url(#mask0_16335_1052)">
<path d="M36 0H0V24H36V0Z" fill="white"/>
<path fill-rule="evenodd" clip-rule="evenodd" d="M1.10399 24H0L15.9758 12L0 0H1.10399L14.7977 10.2853H36V13.7147H14.7977L1.10399 24Z" fill="black"/>
<path fill-rule="evenodd" clip-rule="evenodd" d="M1.104 0H36V3.42797H5.66811L1.104 0Z" fill="#007C29"/>
<path fill-rule="evenodd" clip-rule="evenodd" d="M10.2336 6.85742H36V10.2854H14.7977L10.2336 6.85742Z" fill="#FF0000"/>
<path fill-rule="evenodd" clip-rule="evenodd" d="M5.66809 3.4292H36V6.85717H10.2336L5.66809 3.4292Z" fill="#FED700"/>
<path fill-rule="evenodd" clip-rule="evenodd" d="M5.66811 20.5723H36V24.0002H1.104L5.66811 20.5723Z" fill="#007C29"/>
<path fill-rule="evenodd" clip-rule="evenodd" d="M14.7977 13.7148H36V17.1428H10.2322L14.7977 13.7148Z" fill="#FF0000"/>
<path fill-rule="evenodd" clip-rule="evenodd" d="M5.66809 20.5719H36V17.1426H10.2336L5.66809 20.5719Z" fill="#FED700"/>
<path fill-rule="evenodd" clip-rule="evenodd" d="M0 0V24L15.9758 12L0 0Z" fill="white"/>
<path fill-rule="evenodd" clip-rule="evenodd" d="M1.09839 9.73469H4.92464L6.10689 6.0957L7.29054 9.73469H11.1168L8.02001 11.9804L9.20366 15.6236L6.10689 13.3653L3.01151 15.6236L4.19516 11.9804L1.09839 9.73469Z" fill="#FF0000"/>
<path fill-rule="evenodd" clip-rule="evenodd" d="M8.80677 12.0026C8.76205 12.0459 8.70056 12.0627 8.64187 12.0473L8.52728 12.0166C8.31067 12.1577 8.12341 12.345 7.98367 12.5658C7.84672 12.781 7.75309 13.0298 7.71675 13.2995L7.56024 14.4957C7.55884 14.5111 7.54486 14.5222 7.53089 14.5222H4.74156C4.72758 14.5222 4.715 14.5125 4.71221 14.4985L4.3321 13.0773C4.24546 12.9739 4.19934 12.8439 4.19934 12.7097C4.19934 12.5756 4.24406 12.4526 4.32511 12.3506L4.79326 11.7734C4.84776 11.7064 4.87851 11.6253 4.87851 11.5387V10.6666C4.87851 10.5926 4.90087 10.5185 4.9386 10.4556V9.06515C4.9386 8.9841 4.90506 8.91143 4.85335 8.85833C4.80025 8.80522 4.72758 8.77308 4.64653 8.77308H4.38381C4.36704 8.77308 4.35306 8.75911 4.35306 8.74234V8.67806C4.35306 8.56905 4.39638 8.47123 4.46765 8.39996C4.53892 8.32869 4.63675 8.28537 4.74575 8.28537H4.92043C4.97912 8.20991 5.05459 8.14842 5.14123 8.1051C5.22927 8.06178 5.32709 8.03662 5.4319 8.03662C5.61078 8.03662 5.77288 8.10929 5.89027 8.22668C6.00766 8.34406 6.08032 8.50617 6.08032 8.68504V9.66606L8.7928 11.7413C8.83612 11.7748 8.86267 11.8237 8.86267 11.8796C8.86267 11.9272 8.84311 11.9705 8.81236 12.0012L8.80677 12.0026Z" fill="black"/>
<path fill-rule="evenodd" clip-rule="evenodd" d="M4.99452 10.4053L6.01467 9.66603V8.68501C6.01467 8.52291 5.94899 8.37617 5.84278 8.26857C5.73657 8.16236 5.58984 8.09668 5.42634 8.09668C5.33131 8.09668 5.24187 8.11904 5.16222 8.15817C5.07977 8.19869 5.00989 8.25879 4.95399 8.33285C4.9484 8.33984 4.94002 8.34543 4.92884 8.34543H4.73878C4.64655 8.34543 4.5641 8.38316 4.50401 8.44325C4.44392 8.50334 4.40619 8.58719 4.40619 8.67802V8.71156H5.06998C5.08675 8.71156 5.10073 8.72554 5.10073 8.74231C5.10073 8.75908 5.08675 8.77305 5.06998 8.77305H4.83661C4.85477 8.78563 4.87294 8.7996 4.88831 8.81637C4.9526 8.88066 4.99173 8.9687 4.99173 9.06652V10.4053H4.99452ZM5.42634 8.33285C5.52975 8.33285 5.6136 8.4167 5.6136 8.52011C5.6136 8.62352 5.52975 8.70737 5.42634 8.70737C5.32292 8.70737 5.23908 8.62352 5.23908 8.52011C5.23908 8.4167 5.32292 8.33285 5.42634 8.33285ZM5.42634 8.39294C5.49621 8.39294 5.5535 8.45024 5.5535 8.52011C5.5535 8.58998 5.49621 8.64728 5.42634 8.64728C5.35646 8.64728 5.29917 8.58998 5.29917 8.52011C5.29917 8.45024 5.35646 8.39294 5.42634 8.39294Z" fill="#FED700"/>
<path fill-rule="evenodd" clip-rule="evenodd" d="M4.60187 13.1989L4.416 12.9194L4.38666 13.0634L4.42439 13.1989H4.60187Z" fill="#FED700"/>
<path fill-rule="evenodd" clip-rule="evenodd" d="M4.93024 13.1989L4.81006 12.9292L4.70245 13.1989H4.93024Z" fill="#FED700"/>
<path fill-rule="evenodd" clip-rule="evenodd" d="M5.11473 14.4626V13.8924L4.97219 13.3614C4.96381 13.3278 4.95682 13.2943 4.95123 13.2607H4.43976L4.76257 14.464H5.11473V14.4626Z" fill="#FED700"/>
<path fill-rule="evenodd" clip-rule="evenodd" d="M7.57425 13.9175H5.1748V14.4625H7.50298L7.57425 13.9175Z" fill="#FED700"/>
<path fill-rule="evenodd" clip-rule="evenodd" d="M5.82185 11.1753H5.76455C5.67372 11.1753 5.59965 11.2494 5.59965 11.3402V11.4911C5.59965 11.7021 5.47528 11.8936 5.28383 11.9802C5.09237 12.0655 4.93586 12.2038 4.82686 12.3743C4.71785 12.5448 4.65497 12.7446 4.65497 12.9543C4.65497 13.0116 4.65916 13.0689 4.66894 13.1248L4.78074 12.8411C4.78633 12.8257 4.8045 12.8173 4.81987 12.8243C4.82825 12.8271 4.83384 12.8341 4.83664 12.8411L4.94704 13.087C4.9694 12.8173 5.13989 12.5783 5.38724 12.4651L6.1796 12.0864C6.41297 11.9746 6.58486 11.7636 6.64775 11.5149L6.11951 11.3737C5.99793 11.3416 5.89591 11.2703 5.82325 11.1767L5.82185 11.1753Z" fill="#FED700"/>
<path fill-rule="evenodd" clip-rule="evenodd" d="M4.3391 12.992L4.36985 12.8382C4.37264 12.8215 4.38941 12.8117 4.40478 12.8145C4.41317 12.8159 4.42016 12.8215 4.42435 12.8285L4.60043 13.0912C4.59484 13.0465 4.59204 13.0003 4.59204 12.9542C4.59204 12.7334 4.65772 12.521 4.77371 12.3407C4.8897 12.1619 5.0546 12.0151 5.25724 11.9243C5.42773 11.8474 5.53813 11.6783 5.53813 11.4897V11.3388C5.53813 11.2144 5.63874 11.1124 5.76451 11.1124H5.78128C5.72958 11.0257 5.70163 10.9265 5.70163 10.8231V10.5855C5.70163 10.5688 5.7156 10.5548 5.73237 10.5548C5.74914 10.5548 5.76312 10.5688 5.76312 10.5855V10.8231C5.76312 10.9363 5.80085 11.0439 5.86793 11.1305C5.93361 11.2158 6.02584 11.2815 6.13624 11.3108L8.65866 11.9872C8.69499 11.997 8.73691 11.9872 8.76486 11.9592C8.78583 11.9397 8.7984 11.9089 8.7984 11.8782C8.7984 11.8418 8.78163 11.8097 8.75229 11.7873L6.0454 9.71631L4.98753 10.4821C4.95399 10.538 4.93582 10.6009 4.93582 10.6652V11.5358C4.93582 11.6364 4.90088 11.7314 4.8366 11.8083L4.36845 12.3855C4.29578 12.4777 4.25665 12.5895 4.25665 12.7069C4.25665 12.8075 4.2846 12.9039 4.3391 12.9878V12.992Z" fill="#FED700"/>
<path fill-rule="evenodd" clip-rule="evenodd" d="M7.26538 13.2593L7.44146 13.4619L7.61614 13.2593H7.26538Z" fill="#FED700"/>
<path fill-rule="evenodd" clip-rule="evenodd" d="M6.78186 13.2593L6.95794 13.4619L7.13402 13.2593H6.78186Z" fill="#FED700"/>
<path fill-rule="evenodd" clip-rule="evenodd" d="M6.29974 13.2593L6.47443 13.4619L6.65051 13.2593H6.29974Z" fill="#FED700"/>
<path fill-rule="evenodd" clip-rule="evenodd" d="M5.81622 13.2593L5.9923 13.4619L6.16699 13.2593H5.81622Z" fill="#FED700"/>
<path fill-rule="evenodd" clip-rule="evenodd" d="M5.3327 13.2593L5.50878 13.4619L5.68347 13.2593H5.3327Z" fill="#FED700"/>
<path fill-rule="evenodd" clip-rule="evenodd" d="M5.05322 13.4298L5.20135 13.2593H5.0127C5.01689 13.2872 5.02248 13.3166 5.03086 13.3445L5.05322 13.4298Z" fill="#FED700"/>
<path fill-rule="evenodd" clip-rule="evenodd" d="M5.44313 13.857L5.26704 13.6558L5.14966 13.7913L5.16783 13.857H5.44313Z" fill="#FED700"/>
<path fill-rule="evenodd" clip-rule="evenodd" d="M5.92523 13.857L5.75054 13.6558L5.57446 13.857H5.92523Z" fill="#FED700"/>
<path fill-rule="evenodd" clip-rule="evenodd" d="M6.40875 13.857L6.23406 13.6558L6.05798 13.857H6.40875Z" fill="#FED700"/>
<path fill-rule="evenodd" clip-rule="evenodd" d="M6.89227 13.857L6.71619 13.6558L6.5415 13.857H6.89227Z" fill="#FED700"/>
<path fill-rule="evenodd" clip-rule="evenodd" d="M7.37578 13.857L7.1997 13.6558L7.02362 13.857H7.37578Z" fill="#FED700"/>
<path fill-rule="evenodd" clip-rule="evenodd" d="M7.59518 13.7568L7.50714 13.8575H7.5826L7.59518 13.7568Z" fill="#FED700"/>
<path fill-rule="evenodd" clip-rule="evenodd" d="M5.1315 13.7203L5.24469 13.5903C5.25587 13.5777 5.27404 13.5763 5.28661 13.5875L5.50881 13.8419L5.73101 13.5875C5.74358 13.5763 5.76315 13.5777 5.77293 13.5903L5.99233 13.8419L6.21034 13.5903C6.22152 13.5777 6.23968 13.5763 6.25226 13.5875L6.47446 13.8419L6.69386 13.5903C6.70504 13.5777 6.7232 13.5763 6.73578 13.5875L6.95798 13.8419L7.17738 13.5903C7.18856 13.5777 7.20673 13.5763 7.2193 13.5875L7.4415 13.8419L7.60919 13.649L7.65391 13.308L7.46106 13.5302C7.44849 13.5414 7.42892 13.54 7.41914 13.5274L7.19974 13.2759L6.97754 13.5302C6.96497 13.5414 6.9454 13.54 6.93562 13.5274L6.71622 13.2759L6.49402 13.5302C6.48144 13.5414 6.46188 13.54 6.4521 13.5274L6.2327 13.2759L6.01329 13.5274C6.00211 13.54 5.98395 13.5414 5.97137 13.5302L5.74917 13.2759L5.52977 13.5274C5.51859 13.54 5.50043 13.5414 5.48785 13.5302L5.26565 13.2759L5.07001 13.5009L5.1287 13.7217L5.1315 13.7203Z" fill="#FED700"/>
<path fill-rule="evenodd" clip-rule="evenodd" d="M6.52752 11.8829H6.93558C7.01943 11.8829 7.09629 11.8605 7.16337 11.8228C7.22206 11.7892 7.27237 11.7445 7.3101 11.6914L6.7036 11.5293C6.67006 11.6593 6.60857 11.7808 6.52612 11.8829H6.52752Z" fill="#FED700"/>
<path fill-rule="evenodd" clip-rule="evenodd" d="M8.04238 12.3774H5.70582L5.41096 12.5186C5.14684 12.6388 4.98613 12.9085 5.00569 13.1991H7.67065C7.71537 12.956 7.80481 12.7324 7.93198 12.534C7.96691 12.4795 8.00325 12.4278 8.04378 12.3774H8.04238ZM7.09071 12.4823C7.2598 12.4823 7.39675 12.6192 7.39675 12.7883C7.39675 12.9574 7.2598 13.0943 7.09071 13.0943C6.92161 13.0943 6.78466 12.9574 6.78466 12.7883C6.78466 12.6192 6.92161 12.4823 7.09071 12.4823ZM6.00208 12.4823C6.17118 12.4823 6.30813 12.6192 6.30813 12.7883C6.30813 12.9574 6.17118 13.0943 6.00208 13.0943C5.83299 13.0943 5.69604 12.9574 5.69604 12.7883C5.69604 12.6192 5.83299 12.4823 6.00208 12.4823ZM6.00208 12.5423C6.13764 12.5423 6.24804 12.6527 6.24804 12.7883C6.24804 12.9238 6.13764 13.0342 6.00208 13.0342C5.86653 13.0342 5.75613 12.9238 5.75613 12.7883C5.75613 12.6527 5.86653 12.5423 6.00208 12.5423ZM7.09071 12.5423C7.22626 12.5423 7.33666 12.6527 7.33666 12.7883C7.33666 12.9238 7.22626 13.0342 7.09071 13.0342C6.95515 13.0342 6.84475 12.9238 6.84475 12.7883C6.84475 12.6527 6.95515 12.5423 7.09071 12.5423Z" fill="#FED700"/>
<path fill-rule="evenodd" clip-rule="evenodd" d="M5.83301 12.3172H8.0927C8.19751 12.1957 8.31769 12.088 8.44905 11.9958L7.37301 11.7065C7.32689 11.775 7.26541 11.8337 7.19413 11.8742C7.11727 11.9176 7.02923 11.9427 6.9356 11.9427H6.47444C6.39758 12.0224 6.30675 12.0894 6.20473 12.1384L5.83301 12.3158V12.3172Z" fill="#FED700"/>
</g>
</g>
<rect x="0.25" y="0.25" width="23.5" height="23.5" rx="11.75" stroke="#E5E3E1" stroke-width="0.5"/>
<defs>
<clipPath id="clip0_16335_1052">
<rect width="24" height="24" rx="12" fill="white"/>
</clipPath>
</defs>
</svg>
