<svg width="48" height="48" viewBox="0 0 48 48" fill="none" xmlns="http://www.w3.org/2000/svg">
<path d="M23.6195 30.3803C24.1595 30.3803 24.5695 30.7903 24.5695 31.3303C24.5695 31.8703 24.1595 32.2603 23.6195 32.2603C23.0795 32.2603 22.6895 31.8503 22.6895 31.3303C22.6895 30.8103 23.0995 30.3803 23.6195 30.3803ZM24.0895 29.3903H23.1595L22.8395 24.6403V22.0703H24.4095V24.6403L24.0895 29.3903Z" fill="#DF0000"/>
<path d="M23.9295 17.1103H23.8795C22.2795 17.1003 20.7895 16.4603 19.6695 15.3203C18.5495 14.1803 17.9395 12.6803 17.9595 11.0803C17.9695 9.49028 18.6095 7.99028 19.7495 6.87028C20.8895 5.75028 22.3795 5.15028 23.9895 5.16028C27.2795 5.19028 29.9395 7.89028 29.9095 11.1903C29.8995 12.7903 29.2595 14.2803 28.1195 15.4003C26.9995 16.5003 25.5095 17.1103 23.9395 17.1103H23.9295ZM23.8895 15.1103H23.9295C24.9795 15.1103 25.9595 14.7103 26.7095 13.9703C27.4695 13.2303 27.8895 12.2303 27.8995 11.1703C27.9195 8.98028 26.1495 7.18028 23.9695 7.16028H23.9295C22.8795 7.16028 21.8895 7.56028 21.1495 8.30028C20.3895 9.04028 19.9695 10.0403 19.9595 11.1003C19.9595 12.1603 20.3495 13.1603 21.0995 13.9203C21.8395 14.6803 22.8395 15.1003 23.8995 15.1103H23.8895Z" fill="#323232"/>
<path d="M29.6008 33.5297C29.0508 33.5297 28.6008 33.0697 28.6108 32.5197L28.7008 22.0997C28.7008 21.7397 28.5708 21.3997 28.3208 21.1397C28.0708 20.8797 27.7308 20.7397 27.3708 20.7397L20.3308 20.6797C19.9508 20.6797 19.6308 20.8097 19.3808 21.0697C19.1208 21.3197 18.9808 21.6597 18.9808 22.0197L18.8908 32.4297C18.8908 32.9797 18.4608 33.3897 17.8808 33.4197C17.3308 33.4197 16.8808 32.9597 16.8908 32.4097L16.9808 21.9997C16.9808 21.1097 17.3408 20.2697 17.9808 19.6397C18.6108 19.0197 19.4408 18.6797 20.3208 18.6797H20.3508L27.3908 18.7397C29.2308 18.7597 30.7208 20.2697 30.7008 22.1197L30.6108 32.5397C30.6108 33.0897 30.1608 33.5297 29.6108 33.5297H29.6008Z" fill="#323232"/>
<path d="M23.651 46.1405H23.611C21.491 46.1205 19.781 44.5705 19.801 42.6805L19.871 33.7205C19.871 33.1705 20.321 32.7305 20.871 32.7305C21.421 32.7305 21.871 33.1905 21.861 33.7405L21.791 42.7005C21.791 43.4905 22.601 44.1305 23.621 44.1405C24.621 44.1205 25.471 43.5205 25.481 42.7305L25.551 33.7705C25.551 33.2205 26.001 32.7805 26.551 32.7805C27.101 32.7805 27.551 33.2405 27.541 33.7905L27.471 42.7505C27.451 44.6305 25.741 46.1405 23.641 46.1405H23.651Z" fill="#323232"/>
<path d="M36.8295 14.7596H36.7795C35.1795 14.7496 33.6895 14.1096 32.5695 12.9696C31.4495 11.8296 30.8495 10.3296 30.8595 8.72957C30.8695 7.13957 31.5095 5.63957 32.6495 4.51957C33.7895 3.39957 35.2895 2.80957 36.8895 2.80957C38.4895 2.81957 39.9795 3.45957 41.0995 4.59957C42.2195 5.73957 42.8195 7.23957 42.8095 8.83957C42.7795 12.1096 40.1095 14.7596 36.8395 14.7596H36.8295ZM36.7895 12.7596H36.8295C37.8795 12.7596 38.8595 12.3596 39.6095 11.6196C40.3695 10.8796 40.7895 9.87957 40.7995 8.81957C40.7995 7.75957 40.4095 6.75957 39.6595 5.99957C38.9095 5.23957 37.9195 4.81957 36.8595 4.80957C35.7595 4.77957 34.7995 5.19957 34.0395 5.94957C33.2795 6.68957 32.8595 7.68957 32.8495 8.74957C32.8395 9.80957 33.2395 10.8096 33.9895 11.5696C34.7295 12.3296 35.7295 12.7496 36.7895 12.7596Z" fill="#323232"/>
<path d="M42.4991 31.1301C41.9491 31.1301 41.4991 30.6801 41.4991 30.1301V19.7101C41.4991 18.9701 40.8991 18.3701 40.1591 18.3701H33.1191C32.5691 18.3701 32.1191 17.9201 32.1191 17.3701C32.1191 16.8201 32.5691 16.3701 33.1191 16.3701H40.1591C41.9991 16.3701 43.4991 17.8701 43.4991 19.7101V30.1301C43.4991 30.6801 43.0491 31.1301 42.4991 31.1301Z" fill="#323232"/>
<path d="M36.6408 43.7903C34.5208 43.7903 32.8008 42.2503 32.8008 40.3703V29.2803C32.8008 28.7303 33.2508 28.2803 33.8008 28.2803C34.3508 28.2803 34.8008 28.7303 34.8008 29.2803V40.3703C34.8008 41.1603 35.6308 41.7903 36.6408 41.7903C37.6508 41.7903 38.4808 41.1503 38.4808 40.3703V29.2903C38.4808 28.7403 38.9308 28.2903 39.4808 28.2903C40.0308 28.2903 40.4808 28.7403 40.4808 29.2903V40.3703C40.4808 42.2603 38.7608 43.7903 36.6408 43.7903Z" fill="#323232"/>
<path d="M11.1693 14.7498C9.59934 14.7498 8.10934 14.1398 6.98934 13.0398C5.84934 11.9198 5.21934 10.4298 5.19934 8.8298C5.18934 7.2398 5.78934 5.7298 6.90934 4.5898C8.02934 3.4498 9.51934 2.8198 11.1193 2.7998C12.7293 2.7998 14.2193 3.3898 15.3593 4.5098C16.4993 5.62981 17.1293 7.1198 17.1493 8.7198C17.1693 10.3098 16.5593 11.8198 15.4393 12.9598C14.3193 14.0998 12.8293 14.7298 11.2293 14.7498H11.1693ZM11.1693 4.8098H11.1293C10.0693 4.8098 9.07934 5.2398 8.32934 5.9998C7.57934 6.7598 7.17934 7.7598 7.18934 8.8198C7.18934 9.8798 7.61934 10.8798 8.37934 11.6198C9.12934 12.3498 10.1093 12.7598 11.1593 12.7598H11.1993C12.2593 12.7598 13.2593 12.3298 13.9993 11.5698C14.7393 10.8098 15.1493 9.8098 15.1293 8.7498C15.1293 7.6898 14.6993 6.6898 13.9393 5.9498C13.1893 5.2198 12.1993 4.8098 11.1593 4.8098H11.1693Z" fill="#323232"/>
<path d="M5.5 31.1301C4.95 31.1301 4.5 30.6801 4.5 30.1301V19.7101C4.5 17.8701 6 16.3701 7.85 16.3701H14.89C15.44 16.3701 15.89 16.8201 15.89 17.3701C15.89 17.9201 15.44 18.3701 14.89 18.3701H7.85C7.11 18.3701 6.51 18.9701 6.51 19.7101V30.1301C6.51 30.6801 6.06 31.1301 5.51 31.1301H5.5Z" fill="#323232"/>
<path d="M11.3595 43.7903C9.23953 43.7903 7.51953 42.2503 7.51953 40.3703V29.2903C7.51953 28.7403 7.96953 28.2903 8.51953 28.2903C9.06953 28.2903 9.51953 28.7403 9.51953 29.2903V40.3703C9.51953 41.1603 10.3495 41.7903 11.3595 41.7903C12.3695 41.7903 13.1995 41.1503 13.1995 40.3703V29.2803C13.1995 28.7303 13.6495 28.2803 14.1995 28.2803C14.7495 28.2803 15.1995 28.7303 15.1995 29.2803V40.3703C15.1995 42.2603 13.4795 43.7903 11.3595 43.7903Z" fill="#323232"/>
</svg>
