<svg width="24" height="24" viewBox="0 0 24 24" fill="none" xmlns="http://www.w3.org/2000/svg">
<g clip-path="url(#clip0_16335_6548)">
<path d="M23.8172 14.0863C24.9692 7.55974 20.6122 1.33508 14.0857 0.183099C7.55916 -0.96888 1.3345 3.38806 0.182521 9.91459C-0.969458 16.4411 3.38748 22.6658 9.91401 23.8178C16.4405 24.9697 22.6652 20.6128 23.8172 14.0863Z" fill="white"/>
<mask id="mask0_16335_6548" style="mask-type:luminance" maskUnits="userSpaceOnUse" x="-1" y="-1" width="26" height="26">
<path d="M23.8172 14.0863C24.9692 7.55974 20.6122 1.33508 14.0857 0.183099C7.55916 -0.96888 1.3345 3.38806 0.182521 9.91459C-0.969458 16.4411 3.38748 22.6658 9.91401 23.8178C16.4405 24.9697 22.6652 20.6128 23.8172 14.0863Z" fill="white"/>
</mask>
<g mask="url(#mask0_16335_6548)">
<path d="M29.9993 0H-6.00067V24H29.9993V0Z" fill="white"/>
<path d="M29.9993 8.43228H-6.00067V15.5677H29.9993V8.43228Z" fill="#FF0000"/>
<path d="M29.9993 0H-6.00067V7.13683H29.9993V0Z" fill="black"/>
<path d="M29.9993 16.8646H-6.00067V24.0014H29.9993V16.8646Z" fill="#007C29"/>
<path fill-rule="evenodd" clip-rule="evenodd" d="M9.28199 6.29277L17.0183 19.6916L16.6243 19.9194L8.88791 6.52056C8.53295 6.50938 8.24927 6.17119 8.13468 5.85816L6.95941 2.72505L9.08495 5.31036C9.29876 5.56749 9.45108 5.97974 9.28199 6.29417V6.29277Z" fill="white"/>
<path fill-rule="evenodd" clip-rule="evenodd" d="M14.7167 6.29277L6.98035 19.6916L7.37443 19.9194L15.1108 6.52056C15.4671 6.50938 15.7494 6.17119 15.864 5.85816L17.0393 2.72505L14.9137 5.31036C14.6999 5.56609 14.5476 5.98114 14.7167 6.29417V6.29277Z" fill="white"/>
<path fill-rule="evenodd" clip-rule="evenodd" d="M8.43652 12C8.43652 9.43286 9.47344 7.06976 11.2161 5.18738C11.4145 4.98335 11.6926 4.85757 12.0001 4.85757C12.3075 4.85757 12.5842 4.98335 12.784 5.18738C14.5267 7.06976 15.5636 9.43426 15.5636 12C15.5636 14.5657 14.5267 16.9302 12.784 18.8126C12.5856 19.0167 12.3075 19.1424 12.0001 19.1424C11.6926 19.1424 11.4159 19.0167 11.2161 18.8126C9.47344 16.9302 8.43652 14.5657 8.43652 12Z" fill="#FF0000"/>
<path fill-rule="evenodd" clip-rule="evenodd" d="M8.43652 12C8.43652 10.7521 8.68248 9.55305 9.13386 8.43228C9.72219 9.48876 10.059 10.7046 10.059 12C10.059 13.2954 9.72359 14.5112 9.13386 15.5677C8.68108 14.4484 8.43652 13.2479 8.43652 12Z" fill="black"/>
<path fill-rule="evenodd" clip-rule="evenodd" d="M15.5621 12C15.5621 10.7521 15.3162 9.55305 14.8648 8.43228C14.2765 9.48876 13.9397 10.7046 13.9397 12C13.9397 13.2954 14.2751 14.5112 14.8648 15.5677C15.3176 14.4484 15.5621 13.2479 15.5621 12Z" fill="black"/>
<path fill-rule="evenodd" clip-rule="evenodd" d="M11.9986 12.8818C12.3815 12.8818 12.6932 12.4863 12.6932 12C12.6932 11.5137 12.3815 11.1182 11.9986 11.1182C11.6157 11.1182 11.3041 11.5137 11.3041 12C11.3041 12.4863 11.6157 12.8818 11.9986 12.8818Z" fill="white"/>
<path fill-rule="evenodd" clip-rule="evenodd" d="M11.7709 4.88133C11.3963 5.84698 11.1895 6.90905 11.1895 8.02422C11.1895 9.1394 11.3963 10.2015 11.7709 11.1671V4.88133Z" fill="white"/>
<path fill-rule="evenodd" clip-rule="evenodd" d="M12.2264 4.88133C12.601 5.84698 12.8078 6.90905 12.8078 8.02422C12.8078 9.1394 12.601 10.2015 12.2264 11.1671V4.88133Z" fill="white"/>
<path fill-rule="evenodd" clip-rule="evenodd" d="M11.7709 19.1187C11.3963 18.153 11.1895 17.091 11.1895 15.9758C11.1895 14.8606 11.3963 13.7985 11.7709 12.8329V19.1187Z" fill="white"/>
<path fill-rule="evenodd" clip-rule="evenodd" d="M12.2264 19.1187C12.601 18.153 12.8078 17.091 12.8078 15.9758C12.8078 14.8606 12.601 13.7985 12.2264 12.8329V19.1187Z" fill="white"/>
</g>
</g>
<rect x="0.25" y="0.25" width="23.5" height="23.5" rx="11.75" stroke="#E5E3E1" stroke-width="0.5"/>
<defs>
<clipPath id="clip0_16335_6548">
<rect width="24" height="24" rx="12" fill="white"/>
</clipPath>
</defs>
</svg>
