<svg width="48" height="48" viewBox="0 0 48 48" fill="none" xmlns="http://www.w3.org/2000/svg">
<path d="M11.1797 21.2197H15.2597V30.6097H17.2497V32.4797H11.1797V30.6097H13.1297V23.1197H11.1797V21.2197Z" fill="#DF0000"/>
<path d="M26.169 29.0498C26.169 31.2598 24.659 32.6498 22.429 32.6498C20.199 32.6498 18.709 31.2598 18.709 29.0498V24.6498C18.709 22.4398 20.049 21.0498 22.429 21.0498C24.659 21.0498 26.169 22.4398 26.169 24.6498V29.0498ZM20.839 29.0198C20.839 30.0498 21.419 30.7298 22.429 30.7298C23.439 30.7298 24.019 30.0398 24.019 29.0198V24.6798C24.019 23.6498 23.439 22.9698 22.429 22.9698C21.419 22.9698 20.839 23.6598 20.839 24.6798V29.0198Z" fill="#DF0000"/>
<path d="M32.0794 24.8498C32.0794 25.9998 31.3294 26.8498 29.9694 26.8498C28.6094 26.8498 27.8594 25.9898 27.8594 24.8498V23.0498C27.8594 21.8998 28.6094 21.0498 29.9694 21.0498C31.3294 21.0498 32.0794 21.9098 32.0794 23.0498V24.8498ZM35.0594 21.2198H36.6494L33.3594 26.8598L30.2194 32.4798H28.6294L31.9394 26.8298L35.0594 21.2298V21.2198ZM29.2694 24.8198C29.2694 25.2798 29.5094 25.6098 29.9694 25.6098C30.4294 25.6098 30.6694 25.2798 30.6694 24.8198V23.0898C30.6694 22.6298 30.4294 22.2998 29.9694 22.2998C29.5094 22.2998 29.2694 22.6298 29.2694 23.0898V24.8198ZM37.4294 30.6398C37.4294 31.7898 36.6594 32.6398 35.3194 32.6398C33.9794 32.6398 33.2094 31.7798 33.2094 30.6398V28.8398C33.2094 27.6898 33.9594 26.8398 35.3194 26.8398C36.6794 26.8398 37.4294 27.6998 37.4294 28.8398V30.6398ZM34.5994 30.6098C34.5994 31.0698 34.8594 31.3998 35.3194 31.3998C35.7794 31.3998 36.0194 31.0698 36.0194 30.6098V28.8798C36.0194 28.4198 35.7594 28.0898 35.3194 28.0898C34.8794 28.0898 34.5994 28.4198 34.5994 28.8798V30.6098Z" fill="#DF0000"/>
<path d="M19.0709 14.5596V17.4896C19.0709 18.3696 18.3709 18.9196 17.3509 18.9196C16.3309 18.9196 15.6309 18.3696 15.6309 17.4896V14.5596H16.5809V17.4796C16.5809 17.9096 16.8609 18.1896 17.3509 18.1896C17.8409 18.1896 18.1209 17.9096 18.1209 17.4796V14.5596H19.0709Z" fill="#DF0000"/>
<path d="M20.1604 14.5596H21.9104C22.9104 14.5596 23.6504 15.1196 23.6504 15.9496C23.6504 16.8296 22.9104 17.3896 21.9104 17.3896H21.1104V18.8596H20.1504V14.5596H20.1604ZM21.1204 15.2796V16.6896H21.8304C22.3604 16.6896 22.6804 16.4196 22.6804 15.9796C22.6804 15.5396 22.3604 15.2796 21.8304 15.2796H21.1204Z" fill="#DF0000"/>
<path d="M25.5312 14.5596H28.8912V15.2896H27.6912V18.8596H26.7412V15.2896H25.5312V14.5596Z" fill="#DF0000"/>
<path d="M33.0012 17.4998C33.0012 18.3798 32.2812 18.9298 31.2312 18.9298C30.1812 18.9298 29.4512 18.3798 29.4512 17.4998V15.9398C29.4512 15.0598 30.0912 14.5098 31.2312 14.5098C32.2812 14.5098 33.0012 15.0598 33.0012 15.9398V17.4998ZM30.4212 17.4798C30.4212 17.9098 30.7212 18.1898 31.2412 18.1898C31.7612 18.1898 32.0512 17.9098 32.0512 17.4798V15.9398C32.0512 15.5098 31.7512 15.2298 31.2412 15.2298C30.7312 15.2298 30.4212 15.5098 30.4212 15.9398V17.4798Z" fill="#DF0000"/>
<path d="M24 46.25C11.73 46.25 1.75 36.27 1.75 24C1.75 11.73 11.73 1.75 24 1.75C36.27 1.75 46.25 11.73 46.25 24C46.25 36.27 36.27 46.25 24 46.25ZM24 3.75C12.83 3.75 3.75 12.83 3.75 24C3.75 35.17 12.83 44.25 24 44.25C35.17 44.25 44.25 35.17 44.25 24C44.25 12.83 35.17 3.75 24 3.75Z" fill="#323232"/>
<path d="M24.3992 5.93969C24.1892 5.93969 24.0192 6.08969 23.9792 6.28969C23.9492 6.48969 24.0692 6.68969 24.2692 6.74969C24.3392 6.76969 31.4392 9.07969 35.6792 14.1397C40.0292 19.3397 41.0992 25.4497 41.1092 25.5097C41.1392 25.7097 41.3192 25.8597 41.5192 25.8597C41.7192 25.8597 41.8992 25.7197 41.9292 25.5197C42.0692 24.7797 42.1392 23.9597 42.1392 23.0797C42.1392 13.6297 34.1792 5.92969 24.3892 5.92969L24.3992 5.93969Z" fill="#8DE2E0"/>
</svg>
