<svg width="48" height="48" viewBox="0 0 48 48" fill="none" xmlns="http://www.w3.org/2000/svg">
<path d="M21.6701 3.12012H26.3901C26.8301 3.12012 27.1901 3.48012 27.1901 3.92012V7.66012H20.8701V3.92012C20.8701 3.48012 21.2301 3.12012 21.6701 3.12012Z" fill="#DF0000"/>
<path d="M28.7797 14.21H19.2197C18.6697 14.21 18.2197 14.66 18.2197 15.21C18.2197 15.76 18.6697 16.21 19.2197 16.21H28.7797C29.3297 16.21 29.7797 15.76 29.7797 15.21C29.7797 14.66 29.3297 14.21 28.7797 14.21Z" fill="#323232"/>
<path d="M41.7101 22.1902L36.1601 21.1802V11.9502C36.1601 10.5602 35.0301 9.43018 33.6401 9.43018H14.6201C13.1001 9.43018 11.8601 10.6702 11.8601 12.1902V21.1802L6.31011 22.1902C5.77011 22.2902 5.41011 22.8102 5.50011 23.3502C5.60011 23.8902 6.11011 24.2602 6.66011 24.1502L8.11011 23.8902C8.92011 30.0802 10.4101 33.8302 12.6101 39.3702C12.9001 40.0902 13.2001 40.8402 13.5101 41.6402C13.7101 42.1502 14.2901 42.4102 14.8101 42.2102C15.3201 42.0102 15.5801 41.4302 15.3801 40.9102C15.0701 40.1202 14.7701 39.3602 14.4801 38.6402C12.3301 33.2202 10.8701 29.5502 10.0901 23.5402L23.0101 21.1902V40.4102C23.0101 40.9602 23.4601 41.4102 24.0101 41.4102C24.5601 41.4102 25.0101 40.9602 25.0101 40.4102V21.1902L37.9101 23.5402C37.1401 29.5502 35.6801 33.2202 33.5201 38.6402C33.2301 39.3602 32.9301 40.1202 32.6201 40.9102C32.4201 41.4202 32.6701 42.0002 33.1901 42.2102C33.3101 42.2602 33.4301 42.2802 33.5501 42.2802C33.9501 42.2802 34.3301 42.0402 34.4801 41.6502C34.7901 40.8602 35.0901 40.1102 35.3801 39.3902C37.5801 33.8502 39.0701 30.0902 39.8801 23.9102L41.3501 24.1802C41.9001 24.2902 42.4101 23.9202 42.5101 23.3802C42.6101 22.8402 42.2501 22.3202 41.7001 22.2202L41.7101 22.1902ZM24.5501 19.0702C24.4701 19.0602 24.4001 19.0402 24.3201 19.0402C24.1201 18.9802 23.8901 18.9802 23.7001 19.0402C23.6201 19.0402 23.5501 19.0602 23.4701 19.0702L13.8601 20.8202V12.1902C13.8601 11.7702 14.2001 11.4302 14.6201 11.4302H33.6401C33.9301 11.4302 34.1601 11.6602 34.1601 11.9502V20.8102L24.5501 19.0602V19.0702Z" fill="#323232"/>
<path d="M38.3303 45.8801C36.3703 45.8801 34.6103 44.9201 33.5603 43.3601C32.5003 44.9201 30.7403 45.9301 28.7503 45.8801C26.7803 45.8701 25.0403 44.8601 24.0103 43.3401C22.9803 44.8601 21.2403 45.8701 19.2703 45.8801H19.2303C17.2703 45.8801 15.5103 44.9201 14.4603 43.3601C13.4003 44.9201 11.6103 45.9301 9.65027 45.8801C6.47027 45.8601 3.89027 43.2501 3.91027 40.0701C3.91027 39.5201 4.36027 39.0801 4.91027 39.0801C5.46027 39.0801 5.91027 39.5301 5.90027 40.0901C5.89027 42.1701 7.57027 43.8801 9.65027 43.8901H9.68027C11.3403 43.8901 12.7803 42.8301 13.2803 41.2501C13.4503 40.7301 13.9203 40.3801 14.4503 40.3801C14.9803 40.3801 15.4603 40.7301 15.6203 41.2501C16.1203 42.8301 17.5603 43.8901 19.2203 43.8901H19.2503C21.3303 43.8801 23.0103 42.1701 23.0003 40.0901C23.0003 39.5401 23.4403 39.0901 23.9903 39.0801C23.9903 39.0801 23.9903 39.0801 24.0003 39.0801H24.0103C24.5603 39.0801 25.0103 39.5301 25.0003 40.0901C24.9903 42.1701 26.6703 43.8801 28.7503 43.8901H28.7803C30.4403 43.8901 31.8803 42.8301 32.3803 41.2501C32.5503 40.7301 33.0203 40.3801 33.5603 40.3801C34.1003 40.3801 34.5703 40.7301 34.7303 41.2501C35.2303 42.8301 36.6703 43.8901 38.3303 43.8901H38.3603C40.4403 43.8801 42.1203 42.1701 42.1103 40.0901C42.1103 39.5401 42.5503 39.0901 43.1003 39.0801C43.6503 39.0801 44.1003 39.5201 44.1003 40.0701C44.1203 43.2501 41.5503 45.8601 38.3603 45.8801H38.3203H38.3303Z" fill="#8DE2E0"/>
</svg>
