<svg width="24" height="24" viewBox="0 0 24 24" fill="none" xmlns="http://www.w3.org/2000/svg">
<g clip-path="url(#clip0_15605_4754)">
<path d="M8.12996 13.1216C8.1296 13.5422 8.00453 13.9534 7.77056 14.303C7.53659 14.6526 7.20422 14.9249 6.81547 15.0857C6.42672 15.2464 5.99904 15.2883 5.5865 15.206C5.17395 15.1237 4.79507 14.9209 4.49774 14.6234C4.20041 14.3258 3.99798 13.9467 3.91605 13.5341C3.83411 13.1215 3.87634 12.6938 4.03741 12.3052C4.19848 11.9166 4.47114 11.5845 4.82094 11.3508C5.17074 11.1171 5.58196 10.9924 6.00263 10.9924C6.56683 10.9924 7.10793 11.2165 7.50688 11.6155C7.90583 12.0144 8.12996 12.5555 8.12996 13.1197V13.1216ZM17.9954 10.9924C17.5746 10.9924 17.1633 11.1172 16.8135 11.3509C16.4636 11.5847 16.191 11.9169 16.03 12.3057C15.8689 12.6944 15.8268 13.1221 15.9089 13.5348C15.991 13.9474 16.1936 14.3265 16.4911 14.624C16.7886 14.9215 17.1677 15.1241 17.5803 15.2062C17.993 15.2883 18.4207 15.2462 18.8094 15.0851C19.1982 14.9241 19.5304 14.6515 19.7642 14.3016C19.9979 13.9518 20.1227 13.5405 20.1227 13.1197C20.1227 12.5555 19.8986 12.0144 19.4996 11.6155C19.1007 11.2165 18.5596 10.9924 17.9954 10.9924ZM23.9935 13.1197C23.9934 14.2863 23.6531 15.4276 23.0142 16.4037C22.3754 17.3798 21.4657 18.1483 20.3966 18.6152C19.3276 19.0822 18.1455 19.2271 16.9953 19.0324C15.8451 18.8377 14.7766 18.3118 13.9208 17.519L11.9999 19.6109L10.0772 17.519C9.501 18.0712 8.82036 18.5028 8.0752 18.7885C7.33004 19.0742 6.53534 19.2083 5.73769 19.1829C4.94003 19.1575 4.15547 18.9731 3.42999 18.6406C2.70451 18.308 2.05271 17.8341 1.51278 17.2464C0.972857 16.6587 0.555676 15.9691 0.285691 15.2181C0.0157059 14.4671 -0.101651 13.6698 -0.0595017 12.8728C-0.0173521 12.0759 0.183456 11.2954 0.531153 10.577C0.87885 9.85871 1.36644 9.21701 1.96534 8.68955L0.00354163 6.55495H4.36916C6.62342 5.02068 9.28716 4.2002 12.014 4.2002C14.7408 4.2002 17.4046 5.02068 19.6588 6.55495H24.0081L22.0381 8.68955C22.6551 9.25106 23.1478 9.93545 23.4846 10.6987C23.8214 11.462 23.9947 12.2873 23.9935 13.1216V13.1197ZM10.0608 13.1216C10.0614 12.3188 9.82383 11.5339 9.37823 10.8662C8.93264 10.1985 8.29902 9.6779 7.55753 9.37033C6.81604 9.06275 5.99998 8.982 5.21259 9.13827C4.42519 9.29455 3.70184 9.68085 3.13401 10.2483C2.56619 10.8157 2.17941 11.5388 2.0226 12.3261C1.86579 13.1134 1.946 13.9295 2.25308 14.6712C2.56015 15.4129 3.0803 16.0469 3.74773 16.4929C4.41516 16.939 5.19988 17.177 6.00263 17.177C7.07831 17.1768 8.10988 16.7495 8.87067 15.9891C9.63145 15.2286 10.0592 14.1972 10.0599 13.1216H10.0608ZM16.5019 7.06336C15.0755 6.46877 13.5453 6.16265 11.9999 6.16265C10.4545 6.16265 8.92434 6.46877 7.49786 7.06336C10.059 8.04289 12.0017 10.3376 12.0017 13.0042C12.0017 10.3339 13.9435 8.04289 16.5047 7.06336H16.5019ZM22.0527 13.1216C22.0532 12.3188 21.8156 11.5339 21.37 10.8661C20.9244 10.1984 20.2907 9.67779 19.5491 9.37024C18.8076 9.06269 17.9915 8.98199 17.2041 9.13834C16.4166 9.29469 15.6933 9.68108 15.1255 10.2486C14.5577 10.8161 14.171 11.5393 14.0143 12.3267C13.8576 13.114 13.9379 13.9302 14.2452 14.6718C14.5524 15.4135 15.0727 16.0474 15.7402 16.4934C16.4078 16.9393 17.1926 17.1772 17.9954 17.177C19.0717 17.177 20.1039 16.7495 20.8649 15.9884C21.626 15.2274 22.0536 14.1951 22.0536 13.1188" fill="#010101"/>
</g>
<defs>
<clipPath id="clip0_15605_4754">
<rect width="24" height="24" fill="white"/>
</clipPath>
</defs>
</svg>
