<svg width="48" height="48" viewBox="0 0 48 48" fill="none" xmlns="http://www.w3.org/2000/svg">
<path fill-rule="evenodd" clip-rule="evenodd" d="M23.6802 25.3401C24.4602 25.3501 25.0302 25.7301 25.4002 26.4601C25.7702 27.2001 27.2402 30.0501 29.8002 35.0101C29.8202 35.7201 29.4502 36.0701 28.7002 36.0701H10.2302C9.43024 35.8601 8.95024 35.4301 8.82024 34.7901C8.68024 34.1501 8.21024 31.6401 7.41024 27.2701C7.35024 26.5201 7.68024 26.1401 8.40024 26.1401L23.6802 25.3401Z" fill="#8DE2E0"/>
<path d="M43.1496 28.9499H27.7896C26.9896 27.3999 26.4796 26.3999 26.2896 26.0099C25.7596 24.9499 24.8396 24.3499 23.6896 24.3299C23.6696 24.3299 23.6496 24.3299 23.6196 24.3299L17.2296 24.6599C13.5396 19.4399 9.18957 13.2999 8.66957 12.5899C8.51957 12.3899 8.50957 12.2899 8.61957 12.1199C9.66957 11.2099 10.4196 10.5599 10.8896 10.1799C11.3996 9.75989 11.9796 8.97989 11.8996 7.65989C11.8996 7.61989 11.8996 7.58989 11.8896 7.54989C11.5896 5.82989 11.3696 4.69989 11.2296 4.09989C10.9896 3.10989 10.3196 2.48989 9.39957 2.38989C9.36957 2.38989 9.32957 2.38989 9.29957 2.38989H3.60957C2.86957 2.38989 2.43957 2.69989 2.20957 2.96989C1.83957 3.38989 1.69957 3.95989 1.77957 4.64989L2.61957 14.3699C2.61957 14.4599 2.64957 14.5499 2.67957 14.6399L6.85957 25.7699C6.51957 26.1699 6.36957 26.6899 6.41957 27.3399C6.41957 27.3699 6.41957 27.4099 6.42957 27.4399C7.23957 31.8799 7.70957 34.3499 7.84957 34.9999C7.93957 35.4099 8.14957 35.8999 8.59957 36.3099L7.17957 44.4199C7.12957 44.7099 7.20957 45.0099 7.39957 45.2399C7.58957 45.4699 7.86957 45.5999 8.16957 45.5999H27.0096C27.5596 45.5999 28.0096 45.1499 28.0096 44.5999V37.0699H28.7096C29.3696 37.0699 29.8996 36.8699 30.2796 36.4899C30.5096 36.2499 30.7796 35.8199 30.7996 35.1399H43.1696C44.8796 35.1399 46.2696 33.7499 46.2696 32.0399C46.2696 30.3299 44.8796 28.9399 43.1696 28.9399L43.1496 28.9499ZM3.75957 4.44989C3.75957 4.44989 3.75957 4.40989 3.75957 4.38989H9.18957C9.18957 4.38989 9.23957 4.44989 9.26957 4.57989C9.39957 5.11989 9.60957 6.21989 9.89957 7.83989C9.91957 8.31989 9.74957 8.52989 9.59957 8.64989C9.11957 9.04989 8.31957 9.72989 7.20957 10.6999C7.14957 10.7499 7.09957 10.7999 7.05957 10.8599C6.36957 11.7899 6.37957 12.8599 7.05957 13.7899C7.33957 14.1599 8.93957 16.4199 14.8696 24.7899L8.73957 25.1099L4.58957 14.0599L3.75957 4.44989ZM25.9996 43.5999H9.34957L10.4896 37.0699H25.9996V43.5999ZM28.6996 35.0799H10.3696C9.85957 34.9199 9.81957 34.6999 9.78957 34.5799C9.64957 33.9599 9.19957 31.5299 8.38957 27.1399C8.39957 27.1399 8.41957 27.1399 8.43957 27.1399L23.6796 26.3399C23.9996 26.3499 24.2596 26.4599 24.4896 26.9099C24.8496 27.6399 26.2696 30.3899 28.6996 35.0799ZM43.1496 33.1399H29.9496C29.5396 32.3499 29.1596 31.6199 28.8196 30.9499H43.1496C43.7496 30.9499 44.2496 31.4399 44.2496 32.0499C44.2496 32.6599 43.7596 33.1499 43.1496 33.1499V33.1399Z" fill="#323232"/>
</svg>
