<svg width="48" height="48" viewBox="0 0 48 48" fill="none" xmlns="http://www.w3.org/2000/svg">
<path d="M32.74 13.6497H2.75L7.95 5.46973C8.34 4.83973 9.04 4.46973 9.78 4.46973H25.89C27 4.46973 28.02 5.06973 28.55 6.02973L32.74 13.6497Z" fill="#8DE2E0"/>
<path d="M45.25 12.65H35.48L43.21 6.14996C43.63 5.78996 43.69 5.15996 43.33 4.73996C42.98 4.31996 42.35 4.25996 41.92 4.61996L33.03 12.1L29.42 5.53996C28.71 4.25996 27.36 3.45996 25.88 3.45996H9.77C8.69 3.45996 7.66 4.01996 7.1 4.92996L1.91 13.11C1.91 13.11 1.88 13.18 1.86 13.21C1.85 13.24 1.83 13.26 1.82 13.29C1.78 13.4 1.75 13.51 1.75 13.63C1.75 13.63 1.75 13.63 1.75 13.64V22.07C1.75 22.62 2.2 23.07 2.75 23.07H6.65C7.16 25.73 9.5 27.75 12.3 27.75C15.1 27.75 17.45 25.72 17.95 23.06C17.98 23.06 18.01 23.08 18.04 23.08H29.99C30.5 25.74 32.84 27.76 35.64 27.76C38.44 27.76 40.78 25.74 41.29 23.08H45.23C45.78 23.08 46.23 22.63 46.23 22.08V13.65C46.23 13.1 45.78 12.65 45.23 12.65H45.25ZM8.8 5.99996C9 5.66996 9.38 5.46996 9.78 5.46996H25.89C26.64 5.46996 27.32 5.86996 27.68 6.50996L31.06 12.65H4.57L8.8 5.99996ZM12.3 25.76C10.23 25.76 8.54 24.07 8.54 22C8.54 19.93 10.22 18.24 12.3 18.24C14.38 18.24 16.06 19.92 16.06 22C16.06 24.08 14.37 25.76 12.3 25.76ZM35.66 25.76C33.59 25.76 31.9 24.07 31.9 22C31.9 19.93 33.59 18.24 35.66 18.24C37.73 18.24 39.42 19.92 39.42 22C39.42 24.08 37.74 25.76 35.66 25.76ZM44.25 21.08H41.33C40.89 18.34 38.51 16.24 35.66 16.24C32.81 16.24 30.43 18.34 29.98 21.08H18.05C18.05 21.08 18 21.09 17.98 21.09C17.54 18.35 15.17 16.24 12.3 16.24C9.43 16.24 7.07 18.34 6.63 21.08H3.75V14.65H44.25V21.08Z" fill="#323232"/>
<path d="M30.9006 42.5295H28.2406V29.0195H29.9306C30.4806 29.0195 30.9306 28.5695 30.9306 28.0195C30.9306 27.4695 30.4806 27.0195 29.9306 27.0195H18.6106C18.0606 27.0195 17.6106 27.4695 17.6106 28.0195C17.6106 28.5695 18.0606 29.0195 18.6106 29.0195H19.9706V42.5295H17.6406C17.0906 42.5295 16.6406 42.9795 16.6406 43.5295C16.6406 44.0795 17.0906 44.5295 17.6406 44.5295H30.9106C31.4606 44.5295 31.9106 44.0795 31.9106 43.5295C31.9106 42.9795 31.4606 42.5295 30.9106 42.5295H30.9006ZM21.9706 30.3295L25.6406 33.2595L21.9706 36.1495V30.3295ZM26.2406 35.3195V40.7095L22.6406 38.1595L26.2406 35.3195ZM26.2406 31.1795L23.5406 29.0295H26.2406V31.1795ZM21.9706 40.1395L25.3606 42.5295H21.9706V40.1395Z" fill="#323232"/>
</svg>
