<svg width="48" height="48" viewBox="0 0 48 48" fill="none" xmlns="http://www.w3.org/2000/svg">
<path d="M38.7397 6.4202C38.7897 6.3002 38.8197 6.1702 38.8197 6.0302C38.8197 5.8902 38.7897 5.7702 38.7397 5.6402C38.6897 5.5202 38.6197 5.4102 38.5197 5.3202L35.3797 2.1802C34.9897 1.7902 34.3597 1.7902 33.9697 2.1802C33.5797 2.5702 33.5797 3.2002 33.9697 3.5902L35.4097 5.0302H12.5897L14.0297 3.5902C14.4197 3.2002 14.4197 2.5702 14.0297 2.1802C13.6397 1.7902 13.0097 1.7902 12.6197 2.1802L9.47969 5.3202C9.38969 5.4102 9.30969 5.5202 9.25969 5.6402C9.20969 5.7602 9.17969 5.8902 9.17969 6.0302C9.17969 6.1702 9.20969 6.29019 9.25969 6.4202C9.30969 6.54019 9.37969 6.65019 9.47969 6.74019L12.6197 9.8802C12.8197 10.0802 13.0697 10.1702 13.3297 10.1702C13.5897 10.1702 13.8397 10.0702 14.0397 9.8802C14.4297 9.4902 14.4297 8.8602 14.0397 8.4702L12.5997 7.0302H35.4097L33.9697 8.4702C33.5797 8.8602 33.5797 9.4902 33.9697 9.8802C34.1697 10.0802 34.4197 10.1702 34.6797 10.1702C34.9397 10.1702 35.1897 10.0702 35.3897 9.8802L38.5297 6.74019C38.6197 6.65019 38.6997 6.54019 38.7497 6.4202H38.7397Z" fill="#8DE2E0"/>
<path d="M16.6699 46.11C16.3899 46.11 16.1099 46.03 15.8799 45.87C15.4799 45.61 15.2399 45.16 15.2399 44.69V43.53C15.2299 42.79 15.5799 42.08 16.1699 41.64L20.2799 38.54V32.6L8.85988 36.25C8.28988 36.44 7.64988 36.33 7.15988 35.98C6.66988 35.62 6.37988 35.05 6.37988 34.45V33.45C6.37988 32.3 6.89988 31.24 7.80988 30.53L20.3099 20.85L20.2699 11.69C20.2699 9.62996 21.9399 7.95996 23.9999 7.95996C26.0599 7.95996 27.7299 9.62996 27.7299 11.69V20.93L40.1899 30.53C41.0999 31.24 41.6199 32.3 41.6199 33.45V34.46C41.6199 35.06 41.3299 35.64 40.8399 35.99C40.3499 36.35 39.7199 36.45 39.1399 36.26L27.7199 32.61V38.55L31.8299 41.65C32.4199 42.09 32.7699 42.8 32.7699 43.54V44.7C32.7599 45.18 32.5199 45.62 32.1199 45.88C31.7199 46.15 31.2299 46.19 30.7799 46.02L23.9499 43.26L21.9399 44.11L17.1999 46.02C17.0299 46.09 16.8399 46.13 16.6599 46.13L16.6699 46.11ZM23.9999 41.25C24.2399 41.25 24.4799 41.3 24.6999 41.39L30.7699 43.84V43.51C30.7699 43.4 30.7199 43.3 30.6299 43.23L26.2899 39.96C25.9299 39.69 25.7199 39.26 25.7199 38.82V32.46C25.7199 31.86 26.0099 31.28 26.4999 30.93C26.9899 30.57 27.6199 30.47 28.1999 30.66L39.6199 34.31V33.44C39.6199 32.91 39.3799 32.43 38.9599 32.1L26.4599 22.42C25.9899 22.06 25.7199 21.51 25.7199 20.92V11.68C25.7199 10.73 24.9399 9.94996 23.9899 9.94996C23.0399 9.94996 22.2599 10.73 22.2599 11.68V20.92C22.2599 21.51 21.9899 22.06 21.5199 22.42L9.01988 32.1C8.59988 32.42 8.35988 32.91 8.35988 33.44V34.31L19.7799 30.66C20.3599 30.48 20.9899 30.58 21.4799 30.93C21.9699 31.29 22.2599 31.86 22.2599 32.46V38.82C22.2599 39.26 22.0499 39.69 21.6899 39.96L17.3499 43.23C17.2599 43.3 17.2099 43.4 17.2099 43.51V43.84L23.2799 41.39C23.5099 41.3 23.7499 41.25 23.9899 41.25H23.9999Z" fill="#323232"/>
</svg>
