<svg width="48" height="48" viewBox="0 0 48 48" fill="none" xmlns="http://www.w3.org/2000/svg">
<path d="M3.75 43.99H44.25L43.12 38.5H4.88L3.75 43.99Z" fill="#8DE2E0"/>
<path d="M44.2509 44.99H3.75089C3.45089 44.99 3.16089 44.85 2.97089 44.62C2.78089 44.39 2.71089 44.08 2.77089 43.79L8.06089 18.15C8.16089 17.69 8.56089 17.35 9.04089 17.35H16.0609C15.1309 15.87 14.6309 14.17 14.6309 12.38C14.6309 7.22002 18.8309 3.02002 23.9909 3.02002C29.1509 3.02002 33.3509 7.22002 33.3509 12.38C33.3509 14.17 32.8509 15.87 31.9209 17.35H38.9409C39.4109 17.35 39.8209 17.68 39.9209 18.15L45.2109 43.79C45.2709 44.08 45.2009 44.39 45.0109 44.62C44.8209 44.85 44.5409 44.99 44.2309 44.99H44.2509ZM4.98089 42.99H43.0209L38.1409 19.35H29.8509C29.4409 19.35 29.0809 19.1 28.9209 18.73C28.7709 18.35 28.8609 17.92 29.1509 17.64C30.5809 16.24 31.3609 14.38 31.3609 12.38C31.3609 8.32002 28.0609 5.02002 24.0009 5.02002C19.9409 5.02002 16.6409 8.32002 16.6409 12.38C16.6409 14.37 17.4309 16.24 18.8509 17.64C19.1409 17.92 19.2309 18.36 19.0809 18.73C18.9309 19.11 18.5609 19.35 18.1509 19.35H9.86089L4.98089 42.99Z" fill="#323232"/>
<path d="M24 18.12C20.83 18.12 18.25 15.54 18.25 12.37C18.25 9.2 20.83 6.62 24 6.62C27.17 6.62 29.75 9.2 29.75 12.37C29.75 15.54 27.17 18.12 24 18.12ZM24 8.63C21.93 8.63 20.25 10.31 20.25 12.38C20.25 14.45 21.93 16.13 24 16.13C26.07 16.13 27.75 14.45 27.75 12.38C27.75 10.31 26.07 8.63 24 8.63Z" fill="#323232"/>
<path d="M18.7804 30.4101L21.3904 26.3301H23.2004L20.9604 29.8801L23.2704 34.8701H21.4504L19.8104 31.2301L18.7704 32.8501V34.8601H17.1504V26.3201H18.7704V30.4001L18.7804 30.4101Z" fill="#DF0000"/>
<path d="M27.2904 30.5201H30.0504V32.1801C30.0504 33.9101 28.8804 34.9901 27.1404 34.9901C25.4004 34.9901 24.1504 33.9001 24.1504 32.1401V29.0301C24.1504 27.2801 25.2804 26.1801 27.1704 26.1801C28.9104 26.1801 30.0604 27.2101 30.0604 28.8601V29.0701H28.5004V28.8701C28.5004 28.1301 28.0304 27.6401 27.1604 27.6401C26.2904 27.6401 25.7804 28.2001 25.7804 29.0601V32.1101C25.7804 32.9701 26.2904 33.5301 27.1304 33.5301C28.0404 33.5301 28.5504 32.9801 28.5504 32.1601V31.7801H27.3004V30.5101L27.2904 30.5201Z" fill="#DF0000"/>
</svg>
