<svg width="24" height="24" viewBox="0 0 24 24" fill="none" xmlns="http://www.w3.org/2000/svg">
<g clip-path="url(#clip0_16335_10826)">
<path d="M13.9226 23.8439C20.4644 22.782 24.9068 16.618 23.8449 10.0762C22.783 3.53441 16.619 -0.907932 10.0772 0.153951C3.53541 1.21583 -0.906935 7.37983 0.154948 13.9216C1.21683 20.4634 7.38083 24.9058 13.9226 23.8439Z" fill="white"/>
<mask id="mask0_16335_10826" style="mask-type:luminance" maskUnits="userSpaceOnUse" x="-1" y="-1" width="26" height="26">
<path d="M13.9226 23.8439C20.4644 22.782 24.9068 16.618 23.8449 10.0762C22.783 3.53441 16.619 -0.907932 10.0772 0.153951C3.53541 1.21583 -0.906935 7.37983 0.154948 13.9216C1.21683 20.4634 7.38083 24.9058 13.9226 23.8439Z" fill="white"/>
</mask>
<g mask="url(#mask0_16335_10826)">
<path d="M36 0H0V24H36V0Z" fill="white"/>
<path fill-rule="evenodd" clip-rule="evenodd" d="M0 0H14.0431L0 9.36159V0Z" fill="#FED700"/>
<path fill-rule="evenodd" clip-rule="evenodd" d="M36 0V24H0L36 0Z" fill="#003399"/>
<path fill-rule="evenodd" clip-rule="evenodd" d="M9.52369 4.86161L9.99463 4.03711L10.4656 4.86161C12.9489 5.08521 14.9263 7.06261 15.1499 9.5459L15.9744 10.0168L15.1499 10.4878C14.9263 12.9711 12.9489 14.9485 10.4656 15.1721L9.99463 15.9966L9.52369 15.1721C7.0404 14.9485 5.06299 12.9711 4.83939 10.4878L4.01489 10.0168L4.83939 9.5459C5.06299 7.06261 7.0404 5.08521 9.52369 4.86161Z" fill="black"/>
<path fill-rule="evenodd" clip-rule="evenodd" d="M9.99462 14.5212C12.4751 14.5212 14.4986 12.4977 14.4986 10.0172C14.4986 7.53671 12.4751 5.51318 9.99462 5.51318C7.51412 5.51318 5.4906 7.53671 5.4906 10.0172C5.4906 12.4977 7.51412 14.5212 9.99462 14.5212Z" fill="white"/>
<path fill-rule="evenodd" clip-rule="evenodd" d="M9.99462 11.5041H7.41211L9.99462 7.03223L12.5771 11.5041H9.99462Z" fill="#FF0000"/>
<path fill-rule="evenodd" clip-rule="evenodd" d="M9.99462 8.53174H7.41211L9.99462 13.0036L12.5771 8.53174H9.99462Z" fill="#FF0000"/>
</g>
</g>
<rect x="0.25" y="0.25" width="23.5" height="23.5" rx="11.75" stroke="#E5E3E1" stroke-width="0.5"/>
<defs>
<clipPath id="clip0_16335_10826">
<rect width="24" height="24" rx="12" fill="white"/>
</clipPath>
</defs>
</svg>
