<svg width="48" height="48" viewBox="0 0 48 48" fill="none" xmlns="http://www.w3.org/2000/svg">
<path d="M17.4498 32.4195C25.5628 32.4195 32.1398 25.8426 32.1398 17.7296C32.1398 9.61649 25.5628 3.03955 17.4498 3.03955C9.3367 3.03955 2.75977 9.61649 2.75977 17.7296C2.75977 25.8426 9.3367 32.4195 17.4498 32.4195Z" fill="#DF0000"/>
<path d="M17.4498 33.4198C8.79977 33.4198 1.75977 26.3798 1.75977 17.7298C1.75977 9.07979 8.79977 2.02979 17.4498 2.02979C26.0998 2.02979 33.1398 9.06979 33.1398 17.7198C33.1398 26.3698 26.0998 33.4098 17.4498 33.4098V33.4198ZM17.4498 4.02979C9.89977 4.02979 3.75977 10.1698 3.75977 17.7198C3.75977 25.2698 9.89977 31.4098 17.4498 31.4098C24.9998 31.4098 31.1398 25.2698 31.1398 17.7198C31.1398 10.1698 24.9998 4.02979 17.4498 4.02979Z" fill="#DF0000"/>
<path d="M34.2298 45.9699C28.0598 45.9699 22.7998 41.1599 22.2698 35.0099C22.2198 34.4599 22.6298 33.9699 23.1798 33.9299C23.7298 33.8699 24.2198 34.2899 24.2598 34.8399C24.6998 39.9599 29.0798 43.9699 34.2298 43.9699C39.7498 43.9699 44.2298 39.4799 44.2298 33.9699C44.2298 29.0099 40.6798 24.8599 35.7898 24.0899C35.2398 23.9999 34.8698 23.4899 34.9598 22.9499C35.0498 22.3999 35.5598 22.0299 36.0998 22.1199C41.9698 23.0399 46.2298 28.0299 46.2298 33.9799C46.2298 40.5999 40.8498 45.9799 34.2298 45.9799V45.9699Z" fill="#323232"/>
<path d="M8.01 13.4399H13.23V14.7699H11.36V21.2599H9.88V14.7699H8V13.4399H8.01Z" fill="white"/>
<path d="M13.6504 21.2599L15.9804 13.4399H17.5504L19.8804 21.2599H18.3604L17.9704 19.8599H15.4804L15.1004 21.2599H13.6504ZM15.8104 18.5899H17.6304L16.7104 15.2699L15.8104 18.5899Z" fill="white"/>
<path d="M21.9399 13.4399L23.2299 15.8899L24.4899 13.4399H25.9899L23.9399 17.1399L26.1499 21.2599H24.5499L23.0699 18.4499L21.6799 21.2599H20.1699L22.3199 17.1699L20.3199 13.4399H21.9299H21.9399Z" fill="white"/>
<path d="M35.2196 31.98V31.75C35.2196 31.15 34.8196 30.72 34.1996 30.72C33.5796 30.72 33.2296 31.1 33.2296 31.6C33.2296 31.9 33.3596 32.29 33.8596 32.48L34.9096 32.89C35.8396 33.27 36.8596 33.77 36.8596 35.24C36.8596 36.53 36.0396 37.45 34.7396 37.62V38.84H33.6396V37.59C32.4096 37.38 31.5996 36.55 31.5996 35.32V35.05H33.0896V35.38C33.0896 36.02 33.5096 36.4 34.2396 36.4C34.9696 36.4 35.3896 35.98 35.3896 35.4C35.3896 34.9 35.1396 34.58 34.6396 34.37L33.4996 33.92C32.4596 33.51 31.7696 32.83 31.7696 31.71C31.7696 30.65 32.4596 29.74 33.6496 29.52V28.29H34.7496V29.52C35.9196 29.71 36.7096 30.56 36.7096 31.81V31.98H35.2196Z" fill="#DF0000"/>
</svg>
