<svg width="24" height="24" viewBox="0 0 24 24" fill="none" xmlns="http://www.w3.org/2000/svg">
<g clip-path="url(#clip0_17860_741)">
<path d="M5.7 8.375C6.55 7.925 7.42917 7.58333 8.3375 7.35C9.24583 7.11667 10.175 7 11.125 7C11.625 7 12.1208 7.03333 12.6125 7.1C13.1042 7.16667 13.5917 7.26667 14.075 7.4C14.9083 7.63333 15.5458 7.79167 15.9875 7.875C16.4292 7.95833 16.9 8 17.4 8H18.325L18.75 4H5.25L5.7 8.375ZM6.975 22C6.45833 22 6.0125 21.8333 5.6375 21.5C5.2625 21.1667 5.05 20.7417 5 20.225L3 2H21L19 20.225C18.95 20.7417 18.7375 21.1667 18.3625 21.5C17.9875 21.8333 17.5417 22 17.025 22H6.975Z" fill="#323232"/>
</g>
<defs>
<clipPath id="clip0_17860_741">
<rect width="24" height="24" fill="white"/>
</clipPath>
</defs>
</svg>
