<svg width="48" height="48" viewBox="0 0 48 48" fill="none" xmlns="http://www.w3.org/2000/svg">
<path d="M35.3591 16.4805H35.1591C34.6786 16.4805 34.2891 16.87 34.2891 17.3505V41.1305C34.2891 41.611 34.6786 42.0005 35.1591 42.0005H35.3591C35.8395 42.0005 36.2291 41.611 36.2291 41.1305V17.3505C36.2291 16.87 35.8395 16.4805 35.3591 16.4805Z" fill="#8DE2E0"/>
<path d="M11.9896 9.76023C11.0096 9.37023 10.3496 8.42023 10.3496 7.34023C10.3496 5.91023 11.5196 4.74023 12.9496 4.74023C13.5296 4.74023 14.0896 4.93023 14.5396 5.28023C13.1996 6.45023 12.2996 8.02023 11.9796 9.76023H11.9896Z" fill="#8DE2E0"/>
<path d="M27.3393 9.76023C27.0193 8.02023 26.1193 6.45023 24.7793 5.29023C25.2293 4.94023 25.7893 4.74023 26.3693 4.74023C26.9993 4.74023 27.6093 4.97023 28.0793 5.38023C28.6393 5.87023 28.9693 6.59023 28.9693 7.34023C28.9693 8.09023 28.6493 8.80023 28.0793 9.30023C27.8593 9.49023 27.5993 9.65023 27.3293 9.76023H27.3393Z" fill="#8DE2E0"/>
<path d="M18.1491 17.4805H21.1691C21.9191 17.4805 22.5291 16.8705 22.5291 16.1205V13.1105C22.5291 11.7005 21.3891 10.5605 19.9791 10.5605H19.3391C17.9291 10.5605 16.7891 11.7105 16.7891 13.1105V16.1205C16.7891 16.8705 17.3991 17.4805 18.1591 17.4805H18.1491ZM18.7891 13.1105C18.7891 12.8105 19.0391 12.5605 19.3391 12.5605H19.9791C20.2791 12.5605 20.5291 12.8105 20.5291 13.1105V15.4905H18.7791V13.1105H18.7891Z" fill="#323232"/>
<path d="M38.5392 3.33035C37.9892 3.33035 37.5392 3.78035 37.5392 4.33035V43.1003H18.7892V40.4604H29.2992C30.7792 40.4604 31.9892 39.1304 31.9892 37.5004V36.2104C31.9892 34.5804 30.7792 33.2504 29.2992 33.2504H24.3092C24.2292 33.2504 24.0692 33.0904 24.0692 32.8204V26.4504C24.0692 26.1804 24.2192 26.0204 24.3092 26.0204H29.2992C30.7792 26.0204 31.9892 24.6903 31.9892 23.0604V21.7704C31.9892 20.1404 30.7792 18.8104 29.2992 18.8104H26.2992C27.0492 17.9004 27.5192 16.7504 27.5192 15.4904V11.7004H27.5392C28.2092 11.5204 28.8292 11.1904 29.3392 10.7304C30.3092 9.88035 30.8692 8.64035 30.8692 7.35035C30.8692 6.06035 30.3092 4.82035 29.3292 3.97035C28.5092 3.25035 27.4592 2.86035 26.3692 2.86035C25.1792 2.86035 24.0592 3.32035 23.2092 4.15035L23.1792 4.18035C22.1192 3.64035 20.9292 3.34035 19.6592 3.34035C18.3892 3.34035 17.1992 3.65035 16.1392 4.18035L16.1092 4.15035C15.2592 3.32035 14.1392 2.86035 12.9492 2.86035C10.4692 2.86035 8.44922 4.88035 8.44922 7.35035C8.44922 9.39035 9.81922 11.1804 11.7892 11.7004H11.8092V15.5004C11.8092 17.1404 12.5792 18.5904 13.7592 19.5604C10.6992 21.0104 8.53922 24.4503 8.53922 28.4604V33.0404C8.53922 37.1404 11.4792 40.4804 15.0992 40.4804H16.7892V44.1203C16.7892 44.6703 17.2392 45.1203 17.7892 45.1203H38.5392C39.0892 45.1203 39.5392 44.6703 39.5392 44.1203V4.33035C39.5392 3.78035 39.0892 3.33035 38.5392 3.33035ZM28.0092 5.47035C28.5492 5.94035 28.8592 6.63035 28.8592 7.35035C28.8592 8.07035 28.5492 8.75035 28.0092 9.23035C27.8292 9.39035 27.6292 9.52035 27.4092 9.62035C27.0792 7.95035 26.2092 6.45035 24.9392 5.31035C25.8392 4.68035 27.1592 4.74035 28.0092 5.48035V5.47035ZM25.5092 11.1804V15.4904C25.5092 17.2904 24.0492 18.7504 22.2492 18.7504H17.0792C15.2792 18.7504 13.8192 17.2904 13.8192 15.4904V11.1804C13.8192 7.95035 16.4392 5.33035 19.6692 5.33035C22.8992 5.33035 25.5192 7.95035 25.5192 11.1804H25.5092ZM10.4592 7.34035C10.4592 5.96035 11.5792 4.85035 12.9592 4.85035C13.4792 4.85035 13.9692 5.01035 14.3792 5.30035C13.1092 6.44035 12.2392 7.95035 11.9092 9.62035C11.0392 9.22035 10.4592 8.34035 10.4592 7.35035V7.34035ZM10.5392 33.0204V28.4404C10.5392 24.2304 13.4292 20.8104 16.9892 20.8104H29.2892C29.6592 20.8104 29.9792 21.2604 29.9792 21.7704V23.0604C29.9792 23.5704 29.6592 24.0204 29.2892 24.0204H24.2992C23.0692 24.0204 22.0592 25.1104 22.0592 26.4504V32.8204C22.0592 34.1604 23.0592 35.2504 24.2992 35.2504H29.2892C29.6592 35.2504 29.9792 35.7004 29.9792 36.2104V37.5004C29.9792 38.0103 29.6592 38.4604 29.2892 38.4604H15.0992C12.5892 38.4604 10.5392 36.0204 10.5392 33.0204Z" fill="#323232"/>
</svg>
