<svg width="48" height="48" viewBox="0 0 48 48" fill="none" xmlns="http://www.w3.org/2000/svg">
<path d="M19.64 38.88H3.75C3.2 38.88 2.75 38.43 2.75 37.88V6.25C2.75 5.7 3.2 5.25 3.75 5.25H43.51C44.06 5.25 44.51 5.7 44.51 6.25V19.61C44.51 20.16 44.06 20.61 43.51 20.61C42.96 20.61 42.51 20.16 42.51 19.61V15.38H4.75V36.88H19.64C20.19 36.88 20.64 37.33 20.64 37.88C20.64 38.43 20.19 38.88 19.64 38.88ZM4.75 13.38H42.51V7.25H4.75V13.38Z" fill="#323232"/>
<path d="M32.7006 41.7499C39.085 41.7499 44.2606 36.5743 44.2606 30.1899C44.2606 23.8055 39.085 18.6299 32.7006 18.6299C26.3162 18.6299 21.1406 23.8055 21.1406 30.1899C21.1406 36.5743 26.3162 41.7499 32.7006 41.7499Z" fill="#8DE2E0"/>
<path d="M32.7006 42.7499C25.7806 42.7499 20.1406 37.1199 20.1406 30.1899C20.1406 23.2599 25.7706 17.6299 32.7006 17.6299C39.6306 17.6299 45.2606 23.2599 45.2606 30.1899C45.2606 37.1199 39.6306 42.7499 32.7006 42.7499ZM32.7006 19.6399C26.8806 19.6399 22.1406 24.3799 22.1406 30.1999C22.1406 36.0199 26.8806 40.7599 32.7006 40.7599C38.5206 40.7599 43.2606 36.0199 43.2606 30.1999C43.2606 24.3799 38.5206 19.6399 32.7006 19.6399Z" fill="#323232"/>
<path d="M38.1392 31.1898H32.6992C32.1492 31.1898 31.6992 30.7398 31.6992 30.1898V22.5098C31.6992 21.9598 32.1492 21.5098 32.6992 21.5098C33.2492 21.5098 33.6992 21.9598 33.6992 22.5098V29.1898H38.1392C38.6892 29.1898 39.1392 29.6398 39.1392 30.1898C39.1392 30.7398 38.6892 31.1898 38.1392 31.1898Z" fill="#323232"/>
<path d="M7.87063 11.7998C8.68801 11.7998 9.35063 11.1372 9.35063 10.3198C9.35063 9.50246 8.68801 8.83984 7.87063 8.83984C7.05324 8.83984 6.39062 9.50246 6.39062 10.3198C6.39062 11.1372 7.05324 11.7998 7.87063 11.7998Z" fill="#DF0000"/>
<path d="M12.5991 11.7998C13.4165 11.7998 14.0791 11.1372 14.0791 10.3198C14.0791 9.50246 13.4165 8.83984 12.5991 8.83984C11.7818 8.83984 11.1191 9.50246 11.1191 10.3198C11.1191 11.1372 11.7818 11.7998 12.5991 11.7998Z" fill="#323232"/>
<path d="M17.3101 11.7998C18.1275 11.7998 18.7901 11.1372 18.7901 10.3198C18.7901 9.50246 18.1275 8.83984 17.3101 8.83984C16.4927 8.83984 15.8301 9.50246 15.8301 10.3198C15.8301 11.1372 16.4927 11.7998 17.3101 11.7998Z" fill="#323232"/>
</svg>
