<svg width="48" height="48" viewBox="0 0 48 48" fill="none" xmlns="http://www.w3.org/2000/svg">
<path d="M15.0493 34.6798L18.0193 31.7098C18.4093 31.3198 18.4093 30.6898 18.0193 30.2998C17.6293 29.9098 16.9993 29.9098 16.6093 30.2998L13.6393 33.2698L10.6693 30.2998C10.2793 29.9098 9.6493 29.9098 9.2593 30.2998C8.8693 30.6898 8.8693 31.3198 9.2593 31.7098L12.2293 34.6798L9.2593 37.6498C8.8693 38.0398 8.8693 38.6698 9.2593 39.0598C9.4593 39.2598 9.7093 39.3498 9.9693 39.3498C10.2293 39.3498 10.4793 39.2498 10.6793 39.0598L13.6493 36.0898L16.6193 39.0598C16.8193 39.2598 17.0693 39.3498 17.3293 39.3498C17.5893 39.3498 17.8393 39.2498 18.0393 39.0598C18.4293 38.6698 18.4293 38.0398 18.0393 37.6498L15.0693 34.6798H15.0493Z" fill="#DF0000"/>
<path d="M30.8605 24.9599C30.3105 24.9599 29.8605 24.5199 29.8605 23.9599C29.8605 23.4099 30.3005 22.9599 30.8505 22.9599C31.2905 22.9599 31.7105 22.9299 32.1105 22.8899V18.5599C32.1105 17.8999 31.5705 17.3599 30.9105 17.3599H23.1805C22.5205 17.3599 21.9805 17.8999 21.9805 18.5599V24.6799C21.9805 25.3399 22.5205 25.8799 23.1805 25.8799H30.9105C31.4905 25.8799 31.9605 25.4499 32.0605 24.8999C31.6705 24.9299 31.2705 24.9599 30.8605 24.9599Z" fill="#8DE2E0"/>
<path d="M35.4214 12.3399C38.3114 12.3399 40.6514 9.98988 40.6514 7.10988C40.6514 4.22988 38.3014 1.87988 35.4214 1.87988C32.5414 1.87988 30.1914 4.22988 30.1914 7.10988C30.1914 9.98988 32.5414 12.3399 35.4214 12.3399ZM35.4214 3.87988C37.2014 3.87988 38.6514 5.32988 38.6514 7.10988C38.6514 8.88988 37.2014 10.3399 35.4214 10.3399C33.6414 10.3399 32.1914 8.88988 32.1914 7.10988C32.1914 5.32988 33.6414 3.87988 35.4214 3.87988Z" fill="#323232"/>
<path d="M31.7608 17.7201L33.5808 15.2101C33.9008 14.7601 33.8008 14.1401 33.3608 13.8101C32.9108 13.4901 32.2908 13.5901 31.9608 14.0301L29.5508 17.3501H30.9108C31.2408 17.3501 31.5508 17.4901 31.7608 17.7101V17.7201Z" fill="#323232"/>
<path d="M41.3606 29.1401C41.9206 28.3801 42.1406 27.5201 42.0106 26.6501C41.7206 24.8401 40.0106 23.5701 39.8206 23.4301C39.3706 23.1101 38.7506 23.2101 38.4306 23.6601C38.1106 24.1101 38.2106 24.7301 38.6606 25.0501C39.0006 25.3001 39.9106 26.1201 40.0406 26.9601C40.0906 27.3001 40.0006 27.6201 39.7606 27.9501C39.3306 28.5301 38.6106 28.6901 37.4706 28.9201C35.8306 29.2401 33.6006 29.6801 32.3006 32.4901C30.6506 36.0801 30.1406 39.0301 30.1406 45.1201C30.1406 45.6701 30.5906 46.1201 31.1406 46.1201C31.6906 46.1201 32.1406 45.6701 32.1406 45.1201C32.1406 38.6901 32.7506 36.2901 34.1106 33.3201C34.9806 31.4401 36.3106 31.1701 37.8506 30.8701C39.0706 30.6301 40.4506 30.3601 41.3606 29.1301V29.1401Z" fill="#323232"/>
<path d="M44.9804 44.5099C40.3004 38.4599 40.5404 33.0599 40.5504 33.0099C40.5804 32.4599 40.1604 31.9899 39.6104 31.9499C39.0604 31.9299 38.5804 32.3299 38.5504 32.8899C38.5304 33.1399 38.2304 39.0599 43.4004 45.7399C43.6004 45.9899 43.8904 46.1299 44.1904 46.1299C44.4004 46.1299 44.6204 46.0599 44.8004 45.9199C45.2404 45.5799 45.3204 44.9499 44.9804 44.5199V44.5099Z" fill="#323232"/>
<path d="M13.6305 23.8599C7.66055 23.8599 2.81055 28.7099 2.81055 34.6799C2.81055 40.6499 7.66055 45.4999 13.6305 45.4999C19.6005 45.4999 24.4505 40.6499 24.4505 34.6799C24.4505 28.7099 19.6005 23.8599 13.6305 23.8599ZM13.6305 43.4999C8.77055 43.4999 4.81055 39.5399 4.81055 34.6799C4.81055 29.8199 8.77055 25.8599 13.6305 25.8599C18.4905 25.8599 22.4505 29.8199 22.4505 34.6799C22.4505 39.5399 18.4905 43.4999 13.6305 43.4999Z" fill="#323232"/>
<path d="M30.8498 24.9599C31.6398 24.9599 32.3698 24.8899 33.0598 24.7799L33.3198 26.7399C33.3898 27.2399 33.8198 27.6099 34.3098 27.6099C34.3498 27.6099 34.3998 27.6099 34.4398 27.6099C34.9898 27.5399 35.3698 27.0399 35.2998 26.4899L35.0198 24.3199C41.7298 22.0899 42.8398 14.8599 42.8498 14.7699C42.8898 14.4799 42.7998 14.1899 42.6098 13.9699C42.4198 13.7499 42.1398 13.6299 41.8598 13.6299H36.0798C35.5298 13.6299 35.0798 14.0799 35.0798 14.6299C35.0798 15.1799 35.5298 15.6299 36.0798 15.6299H40.5998C39.9198 17.9399 37.6598 22.9299 30.8398 22.9699C30.2898 22.9699 29.8398 23.4199 29.8498 23.9699C29.8498 24.5199 30.2998 24.9699 30.8498 24.9699V24.9599Z" fill="#323232"/>
</svg>
