<svg width="70" height="70" viewBox="0 0 70 70" fill="none" xmlns="http://www.w3.org/2000/svg">
<g clip-path="url(#clip0_15605_1790)">
<path d="M56.5019 53.7859C56.5019 53.7859 56.5843 53.7859 56.6254 53.7859C56.7077 53.7859 56.7489 53.7859 56.79 53.7036C56.8312 53.6213 56.8723 53.4978 56.79 53.4155C52.469 48.8476 47.1604 45.185 41.1933 42.8394L39.3826 42.0986C38.4361 41.6871 37.8188 40.7818 37.8188 39.7529C37.9423 35.8435 47.1192 36.6665 48.0657 34.8147L48.2303 34.4855C46.3373 32.8394 44.1151 31.646 41.646 30.9464C41.646 31.0698 41.5225 31.4813 42.0575 32.3455C42.5925 33.2097 41.4814 34.6501 39.7941 33.1274L39.6295 33.004C27.4896 21.8517 21.8517 29.218 13.6213 16.255C13.539 16.1316 13.4567 16.0904 13.3332 16.1727C13.2098 16.255 13.1686 16.3373 13.2098 16.4608C19.7118 32.1398 33.0452 28.8476 34.6089 43.4567C34.6912 43.9916 35.0616 44.4443 35.6378 44.5266C43.0452 45.6789 50.2468 48.7653 56.5019 53.7859Z" fill="white"/>
<path d="M34.9794 70C15.679 70 0 54.2798 0 34.9794C0 15.679 15.679 0 34.9794 0C54.2798 0 69.9588 15.679 69.9588 34.9794C69.9588 54.2798 54.2798 69.9588 34.9794 69.9588V70ZM34.9794 2.18107C16.9136 2.18107 2.18107 16.9136 2.18107 34.9794C2.18107 53.0453 16.9136 67.8189 35.0206 67.8189C53.1276 67.8189 67.8601 53.0864 67.8601 34.9794C67.8601 16.8724 53.0864 2.18107 34.9794 2.18107Z" fill="white"/>
</g>
<defs>
<clipPath id="clip0_15605_1790">
<rect width="70" height="70" fill="white"/>
</clipPath>
</defs>
</svg>
