<svg width="48" height="48" viewBox="0 0 48 48" fill="none" xmlns="http://www.w3.org/2000/svg">
<path d="M31.3295 19.3503C31.7695 18.3903 32.0095 17.3103 32.0095 16.1903C32.0095 11.9603 28.5895 8.53027 24.3595 8.53027C21.4595 8.53027 18.9395 10.1503 17.6395 12.5203C17.3895 12.9803 17.1795 13.4503 17.0295 13.9603C16.8095 14.6703 16.6895 15.4203 16.6895 16.2003C16.6895 17.3303 16.9295 18.4003 17.3795 19.3603H31.3195L31.3295 19.3503Z" fill="#8DE2E0"/>
<path d="M44.3095 18.3498H44.0095C44.2795 17.3798 44.3895 16.3598 44.2895 15.3498C43.9495 12.1498 44.9195 10.6998 44.9195 10.6998C45.0895 10.4798 45.1495 10.1898 45.0995 9.91982C45.0495 9.64982 44.8895 9.40982 44.6495 9.25982L39.7595 6.17982C39.5295 6.03982 39.2395 5.99982 38.9795 6.05982C38.7195 6.12982 38.4895 6.29982 38.3495 6.53982C38.3495 6.54982 37.4495 8.05982 34.4195 9.12982C33.6795 9.38982 32.4595 9.95982 31.3595 11.1098C29.8395 9.00982 27.4195 7.62982 24.6595 7.52982C23.9795 5.15982 22.4195 3.70982 22.3495 3.63982C21.9395 3.26982 21.3095 3.29982 20.9395 3.70982C20.5695 4.11982 20.5995 4.74982 20.9995 5.11982C21.0095 5.12982 22.0595 6.11982 22.6195 7.70982C20.1595 8.20982 18.0095 9.74982 16.7695 11.9998L13.6495 6.34982C12.8295 4.86982 11.4095 3.81982 9.74945 3.46982C8.38945 3.17982 6.96945 3.39982 5.74945 4.06982C4.38945 4.81982 3.40945 6.05982 2.97945 7.54982C2.54945 9.03982 2.72945 10.6098 3.46945 11.9498L6.80945 18.3298H3.68945C3.13945 18.3298 2.68945 18.7798 2.68945 19.3298V27.1698C2.68945 27.7198 3.13945 28.1698 3.68945 28.1698H6.68945L9.59945 43.7998C9.68945 44.2698 10.0995 44.6198 10.5795 44.6198H37.4095C37.8895 44.6198 38.3095 44.2798 38.3895 43.7998L41.2995 28.1698H44.2995C44.8495 28.1698 45.2995 27.7198 45.2995 27.1698V19.3298C45.2995 18.7798 44.8495 18.3298 44.2995 18.3298L44.3095 18.3498ZM36.5795 42.6398H11.4195L8.72945 28.1898H39.2795L36.5895 42.6398H36.5795ZM35.0895 11.0298C37.4495 10.1998 38.7695 9.10982 39.4695 8.35982L42.8195 10.4698C42.4395 11.4198 42.0395 13.0798 42.2995 15.5698C42.3595 16.1398 42.3795 17.1998 41.9295 18.3498H32.7295C32.9095 17.6498 33.0095 16.9198 33.0095 16.1898C33.0095 15.0598 32.7895 13.9798 32.3895 12.9898C33.2895 11.8098 34.4395 11.2598 35.0895 11.0298ZM18.5195 12.9898C19.6895 10.8498 21.9195 9.51982 24.3595 9.51982C28.0295 9.51982 31.0095 12.5098 31.0095 16.1798C31.0095 16.9198 30.8795 17.6598 30.6495 18.3398H18.0595C17.8195 17.6598 17.6895 16.9398 17.6895 16.1798C17.6895 15.5198 17.7895 14.8698 17.9795 14.2398C18.1095 13.8098 18.2895 13.3898 18.5095 12.9898H18.5195ZM5.22945 11.0198C4.73945 10.1298 4.61945 9.09982 4.89945 8.11982C5.17945 7.13982 5.82945 6.32982 6.71945 5.83982C7.52945 5.38982 8.43945 5.24982 9.33945 5.43982C10.4295 5.66982 11.3595 6.35982 11.8995 7.32982L12.1895 7.84982C10.8595 7.54982 9.41945 7.71982 8.12945 8.42982C7.64945 8.69982 7.46945 9.30982 7.73945 9.78982C8.00945 10.2698 8.61945 10.4498 9.09945 10.1798C10.9395 9.15982 13.2595 9.82982 14.2795 11.6698C14.2995 11.7098 14.3395 11.7498 14.3695 11.7898L15.0095 12.9398C13.5995 12.5698 12.0695 12.7398 10.7395 13.4698C10.2595 13.7398 10.0795 14.3498 10.3495 14.8298C10.6195 15.3098 11.2295 15.4898 11.7095 15.2198C12.9995 14.4998 14.5695 14.6098 15.7595 15.4498C15.7395 15.6898 15.7095 15.9298 15.7095 16.1798C15.7095 16.9298 15.8095 17.6498 15.9895 18.3398H9.07945L5.24945 11.0098L5.22945 11.0198ZM43.3095 26.1898H4.68945V20.3498H16.8595C16.8595 20.3498 16.9495 20.3298 16.9995 20.3198C17.0495 20.3198 17.0895 20.3498 17.1395 20.3498H43.3095V26.1898Z" fill="#323232"/>
<path d="M24.3691 39.84C24.9191 39.84 25.3691 39.39 25.3691 38.84V31.25C25.3691 30.7 24.9191 30.25 24.3691 30.25C23.8191 30.25 23.3691 30.7 23.3691 31.25V38.84C23.3691 39.39 23.8191 39.84 24.3691 39.84Z" fill="#323232"/>
<path d="M16.3105 39.84C16.8605 39.84 17.3105 39.39 17.3105 38.84V31.25C17.3105 30.7 16.8605 30.25 16.3105 30.25C15.7605 30.25 15.3105 30.7 15.3105 31.25V38.84C15.3105 39.39 15.7605 39.84 16.3105 39.84Z" fill="#323232"/>
<path d="M32.5801 39.84C33.1301 39.84 33.5801 39.39 33.5801 38.84V31.25C33.5801 30.7 33.1301 30.25 32.5801 30.25C32.0301 30.25 31.5801 30.7 31.5801 31.25V38.84C31.5801 39.39 32.0301 39.84 32.5801 39.84Z" fill="#323232"/>
</svg>
