<svg width="48" height="48" viewBox="0 0 48 48" fill="none" xmlns="http://www.w3.org/2000/svg">
<path d="M2.77079 20.4704H45.2308C45.6808 20.4704 46.0708 20.1804 46.1908 19.7504C46.3108 19.3204 46.1408 18.8604 45.7708 18.6304L24.4508 5.12039C24.1208 4.91039 23.7008 4.91039 23.3808 5.12039L2.23079 18.6204C1.85079 18.8604 1.68079 19.3204 1.81079 19.7404C1.93079 20.1704 2.33079 20.4604 2.77079 20.4604V20.4704ZM23.9208 7.15039L41.7908 18.4704H6.19079L23.9208 7.15039Z" fill="#323232"/>
<path d="M43.25 24.9102C43.8 24.9102 44.25 24.4602 44.25 23.9102C44.25 23.3602 43.8 22.9102 43.25 22.9102H4.75C4.2 22.9102 3.75 23.3602 3.75 23.9102C3.75 24.4602 4.2 24.9102 4.75 24.9102H7.1V36.8202H4.75C4.2 36.8202 3.75 37.2702 3.75 37.8202C3.75 38.3702 4.2 38.8202 4.75 38.8202H43.24C43.79 38.8202 44.24 38.3702 44.24 37.8202C44.24 37.2702 43.79 36.8202 43.24 36.8202H40.73V24.9102H43.24H43.25ZM22.42 24.9102H25.41V36.8202H22.42V24.9102ZM20.42 36.8202H14.08V24.9102H20.42V36.8202ZM27.41 24.9102H33.75V36.8202H27.41V24.9102ZM9.1 24.9102H12.09V36.8202H9.1V24.9102ZM38.73 36.8202H35.74V24.9102H38.73V36.8202Z" fill="#323232"/>
<path d="M45.2315 40.9902H2.77148C2.22148 40.9902 1.77148 41.4402 1.77148 41.9902C1.77148 42.5402 2.22148 42.9902 2.77148 42.9902H45.2315C45.7815 42.9902 46.2315 42.5402 46.2315 41.9902C46.2315 41.4402 45.7815 40.9902 45.2315 40.9902Z" fill="#323232"/>
<path d="M24.0009 16.2302C25.4478 16.2302 26.6209 15.0572 26.6209 13.6102C26.6209 12.1632 25.4478 10.9902 24.0009 10.9902C22.5539 10.9902 21.3809 12.1632 21.3809 13.6102C21.3809 15.0572 22.5539 16.2302 24.0009 16.2302Z" fill="#8DE2E0"/>
</svg>
