<svg width="48" height="48" viewBox="0 0 48 48" fill="none" xmlns="http://www.w3.org/2000/svg">
<path d="M8.41945 6.95996H39.5795C41.2195 6.95996 42.5595 8.28996 42.5595 9.93996V14.63H5.43945V9.93996C5.43945 8.29996 6.76945 6.95996 8.41945 6.95996Z" fill="#8DE2E0"/>
<path d="M15.6895 18.0693H20.1995V28.4493H22.3995V30.5093H15.6995V28.4493H17.8595V20.1693H15.6995V18.0693H15.6895Z" fill="#DF0000"/>
<path d="M23.7891 29.5896C23.7891 27.8696 24.0891 26.4096 25.9091 25.2196L28.1091 23.7596C28.9091 23.2496 29.5491 22.5496 29.5491 21.4696C29.5491 20.5996 28.9991 20.0096 27.8991 20.0096C26.7991 20.0096 26.1791 20.6496 26.1791 21.6196V21.9596H23.9091V21.5796C23.9091 19.4196 25.5391 17.8896 27.9791 17.8896C30.4191 17.8896 31.9891 19.2196 31.9891 21.3596C31.9891 23.1396 31.1591 24.3096 29.6591 25.2996L27.4391 26.7796C26.6391 27.3096 26.4591 27.9197 26.3991 28.3696H31.9891V30.5296H23.7891V29.5996V29.5896Z" fill="#DF0000"/>
<path d="M39.5 5.94988H36.69V4.87988C36.69 4.32988 36.24 3.87988 35.69 3.87988C35.14 3.87988 34.69 4.32988 34.69 4.87988V5.94988H13.98V4.87988C13.98 4.32988 13.53 3.87988 12.98 3.87988C12.43 3.87988 11.98 4.32988 11.98 4.87988V5.94988H8.5C6.29 5.94988 4.5 7.73988 4.5 9.94988V40.1299C4.5 42.3399 6.29 44.1299 8.5 44.1299H39.5C41.71 44.1299 43.5 42.3399 43.5 40.1299V9.94988C43.5 7.73988 41.71 5.94988 39.5 5.94988ZM41.5 40.1299C41.5 41.2299 40.6 42.1299 39.5 42.1299H8.5C7.4 42.1299 6.5 41.2299 6.5 40.1299V9.94988C6.5 8.84988 7.4 7.94988 8.5 7.94988H39.5C40.6 7.94988 41.5 8.84988 41.5 9.94988V40.1299Z" fill="#323232"/>
<path d="M29.9506 12.1797H18.1406C17.5906 12.1797 17.1406 11.7297 17.1406 11.1797C17.1406 10.6297 17.5906 10.1797 18.1406 10.1797H29.9506C30.5006 10.1797 30.9506 10.6297 30.9506 11.1797C30.9506 11.7297 30.5006 12.1797 29.9506 12.1797Z" fill="#323232"/>
<path d="M12.8905 35.6405V38.8705H11.9805V33.7305H12.8205L14.0505 35.9705L15.2605 33.7305H16.1005V38.8705H15.1505V35.6705L14.3105 37.1905H13.7505L12.8905 35.6505V35.6405Z" fill="#323232"/>
<path d="M20.3409 37.2304C20.3409 38.2904 19.6009 38.9404 18.5309 38.9404C17.4609 38.9404 16.7109 38.2804 16.7109 37.2304V35.3604C16.7109 34.3004 17.3609 33.6504 18.5309 33.6504C19.6009 33.6504 20.3409 34.3104 20.3409 35.3604V37.2304ZM17.7009 37.2204C17.7009 37.7404 18.0109 38.0704 18.5409 38.0704C19.0709 38.0704 19.3709 37.7304 19.3709 37.2204V35.3804C19.3709 34.8604 19.0609 34.5304 18.5409 34.5304C18.0209 34.5304 17.7009 34.8704 17.7009 35.3804V37.2204Z" fill="#323232"/>
<path d="M24.4709 38.8705H23.6709L21.8509 35.6205V38.8705H20.9609V33.7305H21.8009L23.5809 36.9005V33.7305H24.4709V38.8705Z" fill="#323232"/>
<path d="M24.8008 33.7305H28.2408V34.6105H27.0108V38.8805H26.0408V34.6105H24.8008V33.7305Z" fill="#323232"/>
<path d="M32.1203 38.8705H31.1403V36.6905H29.5503V38.8705H28.5703V33.7305H29.5503V35.8205H31.1403V33.7305H32.1203V38.8705Z" fill="#323232"/>
<path d="M35.1013 35.2804V35.1304C35.1013 34.7304 34.8113 34.4604 34.3613 34.4604C33.9113 34.4604 33.6613 34.7004 33.6613 35.0304C33.6613 35.2304 33.7713 35.4804 34.1513 35.6104L34.8813 35.8804C35.5213 36.1104 36.1713 36.4404 36.1713 37.3804C36.1713 38.3204 35.4713 38.9504 34.4113 38.9504C33.3513 38.9504 32.6113 38.3704 32.6113 37.4304V37.2604H33.5713V37.4704C33.5713 37.8904 33.8813 38.1404 34.3813 38.1404C34.9213 38.1404 35.2113 37.8704 35.2113 37.4904C35.2113 37.1704 35.0213 36.9504 34.6513 36.8204L33.8713 36.5204C33.1513 36.2504 32.7213 35.8304 32.7213 35.1004C32.7213 34.3104 33.3413 33.6504 34.3613 33.6504C35.3813 33.6504 36.0613 34.2304 36.0613 35.1704V35.2804H35.1013Z" fill="#323232"/>
</svg>
