<svg width="48" height="48" viewBox="0 0 48 48" fill="none" xmlns="http://www.w3.org/2000/svg">
<path d="M24.0009 1.81006L6.96094 8.81006V13.9301L24.0009 6.94006L41.0409 13.9301V8.81006L24.0009 1.81006Z" fill="#8DE2E0"/>
<path d="M24.0009 47.1899C23.9409 47.1899 23.8909 47.1899 23.8309 47.1799C23.6509 47.1499 5.96094 43.8599 5.96094 22.7199V8.80994C5.96094 8.39994 6.21094 8.03994 6.58094 7.87994L23.6209 0.889941C23.8609 0.789941 24.1409 0.789941 24.3809 0.889941L41.4209 7.88994C41.8009 8.03994 42.0409 8.40994 42.0409 8.81994V22.7299C42.0409 43.8699 24.3509 47.1599 24.1709 47.1899C24.1109 47.1899 24.0609 47.1999 24.0009 47.1999V47.1899ZM7.96094 9.47994V22.7199C7.96094 41.2899 22.1709 44.7999 24.0009 45.1699C25.8309 44.7999 40.0409 41.2799 40.0409 22.7199V9.47994L24.0009 2.88994L7.96094 9.47994Z" fill="#323232"/>
<path d="M24.0001 31.36C28.098 31.36 31.4201 28.038 31.4201 23.94C31.4201 19.8421 28.098 16.52 24.0001 16.52C19.9021 16.52 16.5801 19.8421 16.5801 23.94C16.5801 28.038 19.9021 31.36 24.0001 31.36Z" fill="#DF0000"/>
<path d="M27.0302 25.5602L25.4102 23.9402L27.0302 22.3202C27.4202 21.9302 27.4202 21.3002 27.0302 20.9102C26.6402 20.5202 26.0102 20.5202 25.6202 20.9102L24.0002 22.5302L22.3802 20.9102C21.9902 20.5202 21.3602 20.5202 20.9702 20.9102C20.5802 21.3002 20.5802 21.9302 20.9702 22.3202L22.5902 23.9402L20.9702 25.5602C20.5802 25.9502 20.5802 26.5802 20.9702 26.9702C21.1702 27.1702 21.4202 27.2602 21.6802 27.2602C21.9402 27.2602 22.1902 27.1602 22.3902 26.9702L24.0102 25.3502L25.6302 26.9702C25.8302 27.1702 26.0802 27.2602 26.3402 27.2602C26.6002 27.2602 26.8502 27.1602 27.0502 26.9702C27.4402 26.5802 27.4402 25.9502 27.0502 25.5602H27.0302Z" fill="white"/>
</svg>
