<svg width="48" height="48" viewBox="0 0 48 48" fill="none" xmlns="http://www.w3.org/2000/svg">
<path d="M8.59047 17.75C7.84047 17.75 7.23047 18.36 7.23047 19.11V22.09C7.23047 24.49 9.15047 26.43 11.5105 26.43C13.5305 26.43 15.2205 25 15.6605 23.09C16.1105 25 17.7905 26.43 19.8105 26.43C21.8305 26.43 23.5205 25 23.9605 23.09C24.4105 25 26.0905 26.43 28.1105 26.43C30.1305 26.43 31.8205 25 32.2605 23.09C32.7105 25 34.3905 26.43 36.4105 26.43C38.7705 26.43 40.6905 24.49 40.6905 22.09V19.11C40.6905 18.36 40.0805 17.75 39.3305 17.75H8.59047Z" fill="#8DE2E0"/>
<path d="M15.6393 6.61C15.6593 5.09 14.9393 3.65 13.7093 2.75C13.7093 2.75 11.7793 4.47 11.7793 6.61C11.7793 7.67 12.6393 8.54 13.6993 8.54C14.5493 8.54 15.2993 7.98 15.5493 7.17C15.6093 6.99 15.6393 6.8 15.6393 6.61ZM25.9293 6.61C25.9493 5.09 25.2293 3.65 23.9993 2.75C23.9993 2.75 22.0693 4.47 22.0693 6.61C22.0693 7.67 22.9293 8.54 23.9893 8.54C24.8393 8.54 25.5893 7.98 25.8393 7.17C25.8993 6.99 25.9293 6.8 25.9293 6.61ZM36.2093 6.61C36.2293 5.09 35.5093 3.65 34.2793 2.75C34.2793 2.75 32.3493 4.47 32.3493 6.61C32.3493 7.67 33.2093 8.54 34.2693 8.54C35.1193 8.54 35.8693 7.98 36.1193 7.17C36.1793 6.99 36.2093 6.8 36.2093 6.61Z" fill="#DF0000"/>
<path d="M43.2792 44.2498H41.7092V19.0398C41.7092 17.7798 40.6792 16.7498 39.4192 16.7498H35.2792V11.3198C35.2792 10.7698 34.8292 10.3198 34.2792 10.3198C33.7292 10.3198 33.2792 10.7698 33.2792 11.3198V16.7498H24.9892V11.3198C24.9892 10.7698 24.5392 10.3198 23.9892 10.3198C23.4392 10.3198 22.9892 10.7698 22.9892 11.3198V16.7498H14.6992V11.3198C14.6992 10.7698 14.2492 10.3198 13.6992 10.3198C13.1492 10.3198 12.6992 10.7698 12.6992 11.3198V16.7498H8.55922C7.29922 16.7498 6.26922 17.7798 6.26922 19.0398V44.2498H4.69922C4.14922 44.2498 3.69922 44.6998 3.69922 45.2498C3.69922 45.7998 4.14922 46.2498 4.69922 46.2498H43.2692C43.8192 46.2498 44.2692 45.7998 44.2692 45.2498C44.2692 44.6998 43.8192 44.2498 43.2692 44.2498H43.2792ZM8.28922 19.0398C8.28922 18.8798 8.41922 18.7498 8.57922 18.7498H39.4292C39.5892 18.7498 39.7192 18.8798 39.7192 19.0398V44.2498H8.28922V19.0398Z" fill="#323232"/>
<path d="M19.5398 33.2099H20.3098C21.4698 33.2099 21.9098 32.6999 21.9098 31.7499C21.9098 30.8699 21.3698 30.3399 20.4498 30.3399C19.5298 30.3399 18.9498 30.8999 18.9498 31.7699V32.0099H16.9098V31.7399C16.9098 29.8499 18.3398 28.4399 20.4998 28.4399C22.6598 28.4399 24.0198 29.7199 24.0198 31.5199C24.0198 32.7099 23.5298 33.5099 22.7598 33.9699C23.6398 34.4099 24.2198 35.3099 24.2198 36.6799C24.2198 38.6699 22.7398 39.9599 20.4798 39.9599C18.2198 39.9599 16.8398 38.6499 16.8398 36.6599V36.3999H18.8798V36.6199C18.8798 37.5199 19.4598 38.1199 20.4498 38.1199C21.4898 38.1199 22.0498 37.5099 22.0498 36.4499C22.0498 35.3899 21.4898 34.8699 20.3098 34.8699H19.5398V33.2199V33.2099Z" fill="#DF0000"/>
<path d="M25.8301 28.5998H29.8801V37.9198H31.8501V39.7698H25.8301V37.9198H27.7701V30.4798H25.8301V28.5898V28.5998Z" fill="#DF0000"/>
</svg>
