<svg width="48" height="48" viewBox="0 0 48 48" fill="none" xmlns="http://www.w3.org/2000/svg">
<path fill-rule="evenodd" clip-rule="evenodd" d="M24.0008 23.9801C21.9608 23.9801 20.3008 22.3201 20.3008 20.2801C20.3008 18.2401 21.9608 16.5801 24.0008 16.5801C26.0408 16.5801 27.7008 18.2401 27.7008 20.2801C27.7008 22.3201 26.0408 23.9801 24.0008 23.9801Z" fill="#8DE2E0"/>
<path d="M18.2098 14.4896C18.5998 14.0996 18.5998 13.4696 18.2098 13.0796C17.8198 12.6896 17.1898 12.6896 16.7998 13.0796C12.8298 17.0496 12.8298 23.5096 16.7998 27.4896C16.9998 27.6896 17.2498 27.7796 17.5098 27.7796C17.7698 27.7796 18.0198 27.6796 18.2198 27.4896C18.6098 27.0996 18.6098 26.4696 18.2198 26.0796C15.0298 22.8896 15.0298 17.6896 18.2198 14.4996L18.2098 14.4896Z" fill="#323232"/>
<path d="M13.9407 10.2201C14.3307 9.83008 14.3307 9.20008 13.9407 8.81008C13.5507 8.42008 12.9207 8.42008 12.5307 8.81008C6.2007 15.1401 6.2007 25.4301 12.5307 31.7601C12.7307 31.9601 12.9807 32.0501 13.2407 32.0501C13.5007 32.0501 13.7507 31.9501 13.9507 31.7601C14.3407 31.3701 14.3407 30.7401 13.9507 30.3501C8.4007 24.8001 8.4007 15.7801 13.9507 10.2301L13.9407 10.2201Z" fill="#323232"/>
<path d="M9.68008 4.39977C10.0701 4.00977 10.0701 3.37977 9.68008 2.98977C9.29008 2.59977 8.66008 2.59977 8.27008 2.98977C-0.399922 11.6598 -0.399922 25.7798 8.27008 34.4498C8.47008 34.6498 8.72008 34.7398 8.98008 34.7398C9.24008 34.7398 9.49008 34.6398 9.69008 34.4498C10.0801 34.0598 10.0801 33.4298 9.69008 33.0398C1.79008 25.1398 1.79008 12.2998 9.69008 4.39977H9.68008Z" fill="#323232"/>
<path d="M24.0008 15.5801C21.4108 15.5801 19.3008 17.6901 19.3008 20.2801C19.3008 21.8501 20.0808 23.2401 21.2808 24.1001V43.5301C21.2808 45.0301 22.5008 46.2601 24.0108 46.2601C25.5208 46.2601 26.7408 45.0401 26.7408 43.5301V24.1001C27.9308 23.2501 28.7208 21.8601 28.7208 20.2801C28.7208 17.6901 26.6108 15.5801 24.0208 15.5801H24.0008ZM24.0008 17.5801C25.4908 17.5801 26.7008 18.7901 26.7008 20.2801C26.7008 21.7701 25.4908 22.9801 24.0008 22.9801C22.5108 22.9801 21.3008 21.7701 21.3008 20.2801C21.3008 18.7901 22.5108 17.5801 24.0008 17.5801ZM24.7308 43.5301C24.7308 43.9301 24.4008 44.2601 24.0008 44.2601C23.6008 44.2601 23.2708 43.9301 23.2708 43.5301V24.9101C23.5108 24.9501 23.7508 24.9801 24.0008 24.9801C24.2508 24.9801 24.4908 24.9401 24.7308 24.9101V43.5301Z" fill="#323232"/>
<path d="M31.2103 13.0698C30.8203 12.6798 30.1903 12.6798 29.8003 13.0698C29.4103 13.4598 29.4103 14.0898 29.8003 14.4798C31.3503 16.0298 32.2003 18.0798 32.2003 20.2698C32.2003 22.4598 31.3503 24.5098 29.8003 26.0598C29.4103 26.4498 29.4103 27.0798 29.8003 27.4698C30.0003 27.6698 30.2503 27.7598 30.5103 27.7598C30.7703 27.7598 31.0203 27.6598 31.2203 27.4698C33.1403 25.5498 34.2003 22.9898 34.2003 20.2698C34.2003 17.5498 33.1403 14.9898 31.2203 13.0698H31.2103Z" fill="#323232"/>
<path d="M35.4798 8.79934C35.0898 8.40934 34.4598 8.40934 34.0698 8.79934C33.6798 9.18934 33.6798 9.81934 34.0698 10.2093C39.6198 15.7593 39.6198 24.7793 34.0698 30.3293C33.6798 30.7193 33.6798 31.3493 34.0698 31.7393C34.2698 31.9393 34.5198 32.0293 34.7798 32.0293C35.0398 32.0293 35.2898 31.9293 35.4898 31.7393C41.8198 25.4093 41.8198 15.1193 35.4898 8.78934L35.4798 8.79934Z" fill="#323232"/>
<path d="M39.7298 2.98977C39.3398 2.59977 38.7098 2.59977 38.3198 2.98977C37.9298 3.37977 37.9298 4.00977 38.3198 4.39977C42.1398 8.21977 44.2498 13.3098 44.2498 18.7198C44.2498 24.1298 42.1398 29.2198 38.3198 33.0398C37.9298 33.4298 37.9298 34.0598 38.3198 34.4498C38.5198 34.6498 38.7698 34.7398 39.0298 34.7398C39.2898 34.7398 39.5398 34.6398 39.7398 34.4498C43.9398 30.2498 46.2598 24.6598 46.2598 18.7198C46.2598 12.7798 43.9498 7.18977 39.7398 2.98977H39.7298Z" fill="#323232"/>
</svg>
