<svg width="48" height="48" viewBox="0 0 48 48" fill="none" xmlns="http://www.w3.org/2000/svg">
<path d="M25.3492 43.6698H9.12919C6.88919 43.6698 5.06919 41.8398 5.06919 39.6098V18.0498C4.13919 17.3898 3.62919 16.2898 3.71919 15.1498C3.71919 9.74984 9.18919 4.33984 15.8792 4.33984H32.0992C25.4192 4.33984 19.9392 9.74984 19.9392 15.1498C19.8492 16.1898 20.2592 17.1798 21.0392 17.8498C21.1292 17.9198 21.2092 17.9898 21.2992 18.0498V39.6098C21.2992 41.8398 23.1092 43.6698 25.3492 43.6698Z" fill="#8DE2E0"/>
<path d="M32.0996 3.33008H15.8896C8.99962 3.33008 2.72962 8.96008 2.72962 15.0601C2.61962 16.3601 3.12962 17.6401 4.06962 18.5201V39.6101C4.06962 42.4001 6.33962 44.6701 9.12962 44.6701H38.8596C41.6496 44.6701 43.9196 42.4001 43.9196 39.6101V18.5201C44.8496 17.6501 45.3496 16.4201 45.2796 15.1101C45.2596 8.94008 38.9896 3.33008 32.1096 3.33008H32.0996ZM15.8896 5.33008H25.0896C25.0896 5.33008 25.0196 5.38008 24.9796 5.40008C24.9196 5.44008 24.8596 5.48008 24.7996 5.51008C24.5196 5.69008 24.2496 5.87008 23.9896 6.06008C23.9396 6.09008 23.8996 6.13008 23.8496 6.16008C23.5596 6.38008 23.2896 6.60008 23.0196 6.84008C22.9596 6.89008 22.8996 6.95008 22.8396 7.00008C22.5796 7.24008 22.3296 7.48008 22.0896 7.73008C22.0896 7.73008 22.0696 7.75008 22.0596 7.76008C21.8196 8.02008 21.5896 8.29008 21.3696 8.57008C21.3196 8.63008 21.2696 8.69008 21.2196 8.76008C21.0096 9.04008 20.8096 9.32008 20.6196 9.61008C20.5996 9.65008 20.5696 9.69008 20.5496 9.73008C20.3796 10.0001 20.2296 10.2701 20.0896 10.5401C20.0596 10.6001 20.0196 10.6701 19.9896 10.7301C19.8396 11.0301 19.7096 11.3401 19.5896 11.6501C19.5696 11.7101 19.5396 11.7801 19.5196 11.8401C19.4196 12.1301 19.3296 12.4101 19.2496 12.7101C19.2396 12.7601 19.2196 12.8101 19.2096 12.8501C19.1296 13.1701 19.0696 13.5001 19.0296 13.8301C19.0196 13.9101 19.0096 13.9801 18.9996 14.0601C18.9596 14.4001 18.9396 14.7301 18.9396 15.0701C18.8896 15.6901 18.9796 16.2901 19.1796 16.8501H5.23962C4.86962 16.4001 4.67962 15.8001 4.72962 15.1501C4.72962 10.5201 9.49962 5.34008 15.8896 5.34008V5.33008ZM9.12962 42.6701C7.43962 42.6701 6.06962 41.3001 6.06962 39.6101V18.8401H20.2996V39.6101C20.2996 39.9301 20.3396 40.2401 20.3896 40.5501C20.4096 40.6501 20.4396 40.7401 20.4596 40.8401C20.5096 41.0501 20.5696 41.2501 20.6496 41.4401C20.6896 41.5401 20.7396 41.6401 20.7796 41.7401C20.8596 41.9201 20.9596 42.0901 21.0596 42.2601C21.1196 42.3501 21.1696 42.4401 21.2296 42.5301C21.2596 42.5701 21.2796 42.6201 21.3196 42.6701H9.11962H9.12962ZM42.3296 17.2401C42.0696 17.4301 41.9196 17.7301 41.9196 18.0501V39.6101C41.9196 41.3001 40.5496 42.6701 38.8596 42.6701H25.3396C23.6596 42.6701 22.2896 41.3001 22.2896 39.6101V18.0501C22.2896 17.7401 22.1396 17.4401 21.8896 17.2501C21.8496 17.2201 21.7996 17.1801 21.7596 17.1501C21.7596 17.1501 21.7396 17.1401 21.7296 17.1301C21.7196 17.1201 21.6996 17.1101 21.6896 17.1001C21.1496 16.6301 20.8696 15.9501 20.9396 15.1601C20.9396 10.5301 25.7096 5.35008 32.0996 5.35008C38.4896 5.35008 43.2696 10.5301 43.2696 15.1601C43.2696 15.1801 43.2696 15.2001 43.2696 15.2301C43.3196 16.0301 42.9696 16.7901 42.3296 17.2601V17.2401Z" fill="#323232"/>
</svg>
