<svg width="48" height="48" viewBox="0 0 48 48" fill="none" xmlns="http://www.w3.org/2000/svg">
<path d="M41.8502 27.8398H6.16016V32.3298H41.8502V27.8398Z" fill="#8DE2E0"/>
<path d="M41.8402 33.3302H6.16016C5.61016 33.3302 5.16016 32.8802 5.16016 32.3302V10.7402C5.16016 9.49021 6.18016 8.47021 7.43016 8.47021H40.5802C41.8302 8.47021 42.8502 9.49021 42.8502 10.7402V32.3302C42.8502 32.8802 42.4002 33.3302 41.8502 33.3302H41.8402ZM7.16016 31.3302H40.8502V10.7402C40.8502 10.5902 40.7302 10.4702 40.5802 10.4702H7.43016C7.28016 10.4702 7.16016 10.5902 7.16016 10.7402V31.3302Z" fill="#323232"/>
<path d="M42.8495 39.5303H5.14954C4.35954 39.5303 3.63954 39.1303 3.21954 38.4603C2.79954 37.7903 2.75954 36.9703 3.10954 36.2603L5.25954 31.8903C5.49954 31.3903 6.09954 31.1903 6.59954 31.4303C7.09953 31.6703 7.29953 32.2703 7.05954 32.7703L4.90954 37.1403C4.85954 37.2503 4.88954 37.3403 4.91954 37.4003C4.94954 37.4603 5.02954 37.5303 5.14954 37.5303H42.8495C42.9695 37.5303 43.0395 37.4603 43.0795 37.4003C43.1195 37.3403 43.1495 37.2503 43.0895 37.1403L40.9395 32.7703C40.6995 32.2703 40.8995 31.6703 41.3995 31.4303C41.8995 31.1903 42.4895 31.3903 42.7395 31.8903L44.8895 36.2603C45.2395 36.9703 45.1995 37.7903 44.7795 38.4603C44.3595 39.1303 43.6395 39.5303 42.8495 39.5303Z" fill="#323232"/>
</svg>
