<svg width="48" height="48" viewBox="0 0 48 48" fill="none" xmlns="http://www.w3.org/2000/svg">
<path d="M30.9102 17.4499C30.3602 17.4499 29.9102 16.9999 29.9102 16.4499V4.85986C29.9102 4.30986 30.3602 3.85986 30.9102 3.85986C31.4602 3.85986 31.9102 4.30986 31.9102 4.85986V16.4499C31.9102 16.9999 31.4602 17.4499 30.9102 17.4499Z" fill="#DF0000"/>
<path d="M25.5 19.84C24.95 19.84 24.5 19.39 24.5 18.84V8.04004C24.5 7.49004 24.95 7.04004 25.5 7.04004C26.05 7.04004 26.5 7.49004 26.5 8.04004V18.84C26.5 19.39 26.05 19.84 25.5 19.84Z" fill="#DF0000"/>
<path d="M15.6094 14.4399C15.0594 14.4399 14.6094 13.9899 14.6094 13.4399V4.85986C14.6094 4.30986 15.0594 3.85986 15.6094 3.85986C16.1594 3.85986 16.6094 4.30986 16.6094 4.85986V13.4399C16.6094 13.9899 16.1594 14.4399 15.6094 14.4399Z" fill="#DF0000"/>
<path d="M39.1191 44.1398C38.5691 44.1398 38.1191 43.6898 38.1191 43.1398V17.2998C38.1191 16.7498 38.5691 16.2998 39.1191 16.2998H44.5791C45.1291 16.2998 45.5791 16.7498 45.5791 17.2998C45.5791 17.8498 45.1291 18.2998 44.5791 18.2998H40.1191V43.1398C40.1191 43.6898 39.6691 44.1398 39.1191 44.1398Z" fill="#323232"/>
<path d="M6.69992 28.27C4.33992 28.27 2.41992 26.35 2.41992 23.99C2.41992 21.63 4.33992 19.71 6.69992 19.71C9.05992 19.71 10.9799 21.63 10.9799 23.99C10.9799 26.35 9.05992 28.27 6.69992 28.27ZM6.69992 21.71C5.43992 21.71 4.41992 22.73 4.41992 23.99C4.41992 25.25 5.43992 26.27 6.69992 26.27C7.95992 26.27 8.97992 25.25 8.97992 23.99C8.97992 22.73 7.95992 21.71 6.69992 21.71Z" fill="#323232"/>
<path d="M20.1504 34.23C16.7504 34.23 12.6204 31.72 12.4304 31.6C10.8704 30.6 10.5104 29.47 10.4804 28.69C10.4104 26.71 12.3104 25.22 12.5304 25.06C12.9204 24.77 13.4604 24.8 13.8204 25.13C15.9304 27.12 19.0404 27.88 19.0704 27.88C19.6104 28.01 19.9404 28.55 19.8104 29.08C19.6804 29.61 19.1504 29.95 18.6104 29.82C18.4804 29.79 15.5704 29.09 13.1604 27.19C12.8104 27.59 12.4604 28.12 12.4804 28.61C12.5004 29.04 12.8404 29.48 13.4904 29.9C14.6104 30.59 17.7904 32.21 20.1004 32.23C20.1304 31.98 20.1604 31.71 20.1804 31.44C20.4904 28.24 20.9104 23.87 31.5904 20.45C32.1204 20.28 32.6804 20.57 32.8504 21.1C33.0204 21.63 32.7304 22.19 32.2004 22.36C22.7804 25.38 22.4604 28.7 22.1804 31.64C22.1204 32.21 22.0704 32.8 21.9504 33.37C21.8704 33.77 21.5404 34.08 21.1404 34.15C20.8204 34.2 20.5004 34.23 20.1604 34.23H20.1504Z" fill="#323232"/>
<path d="M15.8902 25.5298C15.5902 25.5298 15.2902 25.3898 15.0902 25.1298C14.7602 24.6898 14.8502 24.0698 15.2802 23.7398C15.4002 23.6398 17.8802 21.6098 17.8402 15.8298C17.8402 15.2798 18.2802 14.8298 18.8302 14.8198C19.3802 14.8198 19.8302 15.2598 19.8302 15.8098C19.8802 22.6998 16.6202 25.2198 16.4802 25.3298C16.3002 25.4598 16.0902 25.5298 15.8802 25.5298H15.8902Z" fill="#323232"/>
<path d="M23.9806 31.7002C23.7906 31.7002 23.5906 31.6402 23.4206 31.5302C22.9606 31.2202 22.8406 30.6002 23.1506 30.1502C23.2306 30.0302 25.1206 27.2802 28.4706 26.7702C30.7806 26.4102 33.1606 27.2002 35.5506 29.1002C35.9806 29.4402 36.0506 30.0702 35.7106 30.5102C35.3706 30.9402 34.7406 31.0102 34.3006 30.6702C32.3706 29.1402 30.5206 28.4902 28.7906 28.7502C26.3106 29.1202 24.8206 31.2602 24.8006 31.2802C24.6106 31.5602 24.2906 31.7202 23.9706 31.7202L23.9806 31.7002Z" fill="#323232"/>
<path d="M13.1899 24.1602C13.0699 24.1602 12.9399 24.1402 12.8199 24.0902C12.3099 23.8902 12.0599 23.3102 12.2499 22.8002C12.2999 22.6702 13.2499 19.9702 10.4899 17.1802C10.0999 16.7902 10.1099 16.1502 10.4899 15.7702C10.8799 15.3802 11.5199 15.3902 11.8999 15.7702C15.6199 19.5302 14.1599 23.3602 14.0999 23.5202C13.9399 23.9102 13.5699 24.1502 13.1699 24.1502L13.1899 24.1602Z" fill="#323232"/>
</svg>
