<svg width="48" height="48" viewBox="0 0 48 48" fill="none" xmlns="http://www.w3.org/2000/svg">
<path d="M12.9994 19.8799H9.10938V32.2499H12.9994V19.8799Z" fill="#8DE2E0"/>
<path d="M28.589 41.5901C28.449 40.1601 27.139 39.1201 25.699 39.1201H23.259C21.819 39.1201 20.509 40.1601 20.369 41.5901C20.209 43.2401 21.489 44.6201 23.109 44.6201H25.859C27.469 44.6201 28.759 43.2301 28.599 41.5901H28.589Z" fill="#DF0000"/>
<path d="M41.11 32.24H39.37V19.87H41.11C42.29 19.87 43.25 20.83 43.25 22.01V30.11C43.25 31.29 42.29 32.25 41.11 32.25V32.24Z" fill="#8DE2E0"/>
<path d="M40.77 18.8799H38.75V16.7899C38.75 8.84988 32.29 2.37988 24.34 2.37988C16.39 2.37988 9.25 9.14988 9.25 17.4699V18.8799H7.23C5.31 18.8799 3.75 20.4399 3.75 22.3599V29.7799C3.75 31.6999 5.31 33.2599 7.23 33.2599H13C13.55 33.2599 14 32.8099 14 32.2599V19.8799C14 19.3299 13.55 18.8799 13 18.8799H11.25V17.4699C11.25 10.2499 17.12 4.37988 24.34 4.37988C31.18 4.37988 36.75 9.94988 36.75 16.7899V18.8799H35C34.45 18.8799 34 19.3299 34 19.8799V32.2599C34 32.8099 34.45 33.2599 35 33.2599H36.72C36.38 38.1899 33.55 39.9899 31.15 40.6299C30.62 40.7699 30.3 41.3199 30.44 41.8499C30.56 42.2999 30.96 42.5999 31.41 42.5999C31.49 42.5999 31.58 42.5899 31.67 42.5699C34.19 41.8999 38.34 39.7999 38.73 33.2699H40.79C42.71 33.2699 44.27 31.7099 44.27 29.7899V22.3699C44.27 20.4499 42.71 18.8899 40.79 18.8899L40.77 18.8799ZM12 31.2499H7.23C6.42 31.2499 5.75 30.5899 5.75 29.7699V22.3499C5.75 21.5399 6.41 20.8699 7.23 20.8699H12V31.2499ZM42.25 29.7699C42.25 30.5799 41.59 31.2499 40.77 31.2499H36V20.8699H40.77C41.58 20.8699 42.25 21.5299 42.25 22.3499V29.7699Z" fill="#323232"/>
</svg>
