<svg width="48" height="48" viewBox="0 0 48 48" fill="none" xmlns="http://www.w3.org/2000/svg">
<path d="M18.5498 38.1501C18.5498 38.1501 20.0098 36.2301 20.7598 33.6201C21.5098 31.0001 21.9398 28.8101 21.9398 28.9601C21.9398 29.1101 23.1598 31.1501 26.3498 31.0801C29.5398 31.0101 33.9498 29.0601 35.3498 22.7801C36.7498 16.5001 33.7798 10.7401 26.9598 9.30009C20.1398 7.86009 13.6098 11.8101 12.5298 17.4101C11.5298 22.6201 13.6698 25.9901 15.9698 27.3201C16.2198 27.4701 16.5498 27.3001 16.6198 27.0201L17.1198 24.8601C17.1498 24.7301 17.1198 24.6001 17.0498 24.5001C16.6298 23.9201 15.2898 21.7801 15.8298 18.8601C16.4898 15.2601 19.3598 11.4501 25.4598 12.4201C31.5598 13.3901 32.2398 19.3101 31.2698 22.5401C30.2998 25.7701 28.2898 28.8201 25.0298 27.9901C21.7598 27.1601 23.6098 23.1101 23.7698 22.6801C24.2898 21.3301 24.6698 19.5901 24.6698 18.5201C24.6698 17.4501 23.8098 16.0101 22.3698 16.0101C20.9298 16.0101 19.4998 17.1201 19.0298 19.1301C18.5598 21.1401 19.4598 23.2201 19.4598 23.2201C19.4598 23.2201 17.9198 29.8901 17.5598 31.1501C17.1998 32.4101 17.0898 33.2701 17.1298 34.1601C17.1598 35.0201 17.1998 37.4901 17.1998 37.6701C17.1998 37.6701 17.2498 39.0001 17.5798 39.0001C17.9098 39.0001 18.5498 38.1501 18.5498 38.1501Z" fill="#323232"/>
</svg>
