<svg width="48" height="48" viewBox="0 0 48 48" fill="none" xmlns="http://www.w3.org/2000/svg">
<path d="M9.01086 32.4399H3.88086C3.33086 32.4399 2.88086 31.9899 2.88086 31.4399V15.6899C2.88086 15.1399 3.33086 14.6899 3.88086 14.6899H9.01086C9.56086 14.6899 10.0109 15.1399 10.0109 15.6899C10.0109 16.2399 9.56086 16.6899 9.01086 16.6899H4.88086V30.4399H9.01086C9.56086 30.4399 10.0109 30.8899 10.0109 31.4399C10.0109 31.9899 9.56086 32.4399 9.01086 32.4399Z" fill="#323232"/>
<path d="M44.1205 32.4399H16.2305C15.6805 32.4399 15.2305 31.9899 15.2305 31.4399C15.2305 30.8899 15.6805 30.4399 16.2305 30.4399H43.1205V16.6899H16.2305C15.6805 16.6899 15.2305 16.2399 15.2305 15.6899C15.2305 15.1399 15.6805 14.6899 16.2305 14.6899H44.1205C44.6705 14.6899 45.1205 15.1399 45.1205 15.6899V31.4399C45.1205 31.9899 44.6705 32.4399 44.1205 32.4399Z" fill="#323232"/>
<path fill-rule="evenodd" clip-rule="evenodd" d="M41.3097 18.5V28.63H31.1797L41.3097 18.5Z" fill="#8DE2E0"/>
<path d="M16.1191 40.3099C14.9191 40.3099 13.7891 39.8499 12.9391 39.0099C12.8291 38.8999 12.7191 38.7799 12.6191 38.6599C12.5191 38.7799 12.4091 38.8999 12.2991 39.0099C11.4491 39.8499 10.3191 40.3099 9.11914 40.3099C8.56914 40.3099 8.11914 39.8599 8.11914 39.3099C8.11914 38.7599 8.56914 38.3099 9.11914 38.3099C9.77914 38.3099 10.4291 38.0499 10.8891 37.5899C11.3591 37.1299 11.6191 36.5099 11.6191 35.8499V12.1499C11.6191 10.7899 10.4991 9.68994 9.11914 9.68994C8.56914 9.68994 8.11914 9.23994 8.11914 8.68994C8.11914 8.13994 8.56914 7.68994 9.11914 7.68994C10.5291 7.68994 11.7891 8.33994 12.6191 9.34994C13.4491 8.33994 14.7091 7.68994 16.1191 7.68994C16.6691 7.68994 17.1191 8.13994 17.1191 8.68994C17.1191 9.23994 16.6691 9.68994 16.1191 9.68994C14.7391 9.68994 13.6191 10.7899 13.6191 12.1499V35.8499C13.6191 36.5099 13.8791 37.1199 14.3491 37.5899C14.8191 38.0599 15.4491 38.3099 16.1191 38.3099C16.6691 38.3099 17.1191 38.7599 17.1191 39.3099C17.1191 39.8599 16.6691 40.3099 16.1191 40.3099Z" fill="#DF0000"/>
</svg>
