<svg width="48" height="48" viewBox="0 0 48 48" fill="none" xmlns="http://www.w3.org/2000/svg">
<path d="M27.9794 22.1898C27.9394 22.0998 27.8494 22.0498 27.7594 22.0498H25.0594L27.4994 17.6498C27.5394 17.5698 27.5394 17.4798 27.4994 17.3998C27.4594 17.3198 27.3694 17.2798 27.2794 17.2798H22.0294C21.9194 17.2798 21.8194 17.3598 21.7894 17.4698L20.0194 24.6298C19.9994 24.6998 20.0194 24.7798 20.0694 24.8398C20.1194 24.8998 20.1894 24.9398 20.2694 24.9398H22.7594L21.4094 30.1198C21.3794 30.2298 21.4394 30.3498 21.5394 30.4098C21.5794 30.4298 21.6094 30.4398 21.6494 30.4398C21.7294 30.4398 21.7994 30.4098 21.8494 30.3398L27.9594 22.4598C28.0194 22.3798 28.0294 22.2798 27.9894 22.1998L27.9794 22.1898Z" fill="#DF0000"/>
<path d="M34.3095 10.8299H32.1095V2.87988C32.1095 2.32988 31.6595 1.87988 31.1095 1.87988H16.8995C16.3495 1.87988 15.8995 2.32988 15.8995 2.87988V10.8399H13.6895C13.1395 10.8399 12.6895 11.2899 12.6895 11.8399V29.9599C12.6895 34.0699 15.9195 37.4199 19.9695 37.6599V40.8299C19.9695 41.3799 20.4195 41.8299 20.9695 41.8299H23.0095V45.1299C23.0095 45.6799 23.4595 46.1299 24.0095 46.1299C24.5595 46.1299 25.0095 45.6799 25.0095 45.1299V41.8299H27.0395C27.5895 41.8299 28.0395 41.3799 28.0395 40.8299V37.6599C32.0895 37.4299 35.3195 34.0699 35.3195 29.9599V11.8299C35.3195 11.2799 34.8695 10.8299 34.3195 10.8299H34.3095ZM17.8995 3.87988H30.1095V10.8399H17.8995V3.87988ZM26.0395 39.8299H24.0295H24.0095H23.9895H21.9695V37.6799H26.0495V39.8299H26.0395ZM33.3095 29.9499C33.3095 33.1099 30.7395 35.6699 27.5895 35.6699H20.4195C17.2595 35.6699 14.6895 33.0999 14.6895 29.9499V12.8299H33.3195V29.9499H33.3095Z" fill="#323232"/>
<path d="M21.8588 6.10986H20.0588C19.871 6.10986 19.7188 6.26209 19.7188 6.44986V8.24986C19.7188 8.43764 19.871 8.58986 20.0588 8.58986H21.8588C22.0465 8.58986 22.1988 8.43764 22.1988 8.24986V6.44986C22.1988 6.26209 22.0465 6.10986 21.8588 6.10986Z" fill="#323232"/>
<path d="M27.4994 6.10986H25.6994C25.5116 6.10986 25.3594 6.26209 25.3594 6.44986V8.24986C25.3594 8.43764 25.5116 8.58986 25.6994 8.58986H27.4994C27.6872 8.58986 27.8394 8.43764 27.8394 8.24986V6.44986C27.8394 6.26209 27.6872 6.10986 27.4994 6.10986Z" fill="#323232"/>
</svg>
