<svg width="24" height="24" viewBox="0 0 24 24" fill="none" xmlns="http://www.w3.org/2000/svg">
<g clip-path="url(#clip0_16335_1887)">
<path d="M23.6789 14.7568C25.2013 8.30659 21.2066 1.84354 14.7564 0.321152C8.30617 -1.20123 1.84311 2.79355 0.320729 9.24374C-1.20165 15.6939 2.79312 22.157 9.24332 23.6794C15.6935 25.2018 22.1566 21.207 23.6789 14.7568Z" fill="white"/>
<mask id="mask0_16335_1887" style="mask-type:luminance" maskUnits="userSpaceOnUse" x="-1" y="-1" width="26" height="26">
<path d="M23.6789 14.7568C25.2013 8.30659 21.2066 1.84354 14.7564 0.321152C8.30617 -1.20123 1.84311 2.79355 0.320729 9.24374C-1.20165 15.6939 2.79312 22.157 9.24332 23.6794C15.6935 25.2018 22.1566 21.207 23.6789 14.7568Z" fill="white"/>
</mask>
<g mask="url(#mask0_16335_1887)">
<path d="M30.0007 0H-5.99933V24H30.0007V0Z" fill="white"/>
<path fill-rule="evenodd" clip-rule="evenodd" d="M-5.99933 0H30.0007V1.84605H-5.99933V0ZM30.0007 5.53954H-5.99933V3.69349H30.0007V5.53954ZM30.0007 9.23023H-5.99933V7.38419H30.0007V9.23023ZM30.0007 12.9237H-5.99933V11.0777H30.0007V12.9237ZM30.0007 16.6158H-5.99933V14.7698H30.0007V16.6158ZM30.0007 20.3079H-5.99933V18.4619H30.0007V20.3079ZM30.0007 24H-5.99933V22.154H30.0007V24Z" fill="#FF0000"/>
<path d="M12.3451 0H-5.99933V12.9237H12.3451V0Z" fill="#003399"/>
<path fill-rule="evenodd" clip-rule="evenodd" d="M10.7269 0.575684L10.8932 1.09135H11.4368L10.9966 1.40857L11.1643 1.92563L10.7269 1.60561L10.2881 1.92563L10.4572 1.40857L10.0156 1.09135H10.5592L10.7269 0.575684Z" fill="white"/>
<path fill-rule="evenodd" clip-rule="evenodd" d="M1.66157 0.575684L1.82787 1.09135H2.37008L1.93128 1.40857L2.10037 1.92563L1.66157 1.60561L1.22137 1.92563L1.39046 1.40857L0.95166 1.09135H1.49527L1.66157 0.575684Z" fill="white"/>
<path fill-rule="evenodd" clip-rule="evenodd" d="M4.68287 0.575684L4.84917 1.09135H5.39138L4.95258 1.40857L5.12167 1.92563L4.68287 1.60561L4.24407 1.92563L4.41176 1.40857L3.97296 1.09135H4.51657L4.68287 0.575684Z" fill="white"/>
<path fill-rule="evenodd" clip-rule="evenodd" d="M7.70417 0.575684L7.87187 1.09135H8.41408L7.97388 1.40857L8.14298 1.92563L7.70417 1.60561L7.26677 1.92563L7.43446 1.40857L6.99426 1.09135H7.53788L7.70417 0.575684Z" fill="white"/>
<path fill-rule="evenodd" clip-rule="evenodd" d="M10.7269 10.998L10.8932 11.5151L11.4368 11.5137L10.9966 11.8323L11.1643 12.348L10.7269 12.028L10.2881 12.348L10.4572 11.8323L10.0156 11.5137L10.5592 11.5151L10.7269 10.998Z" fill="white"/>
<path fill-rule="evenodd" clip-rule="evenodd" d="M1.66157 10.998L1.82787 11.5151L2.37008 11.5137L1.93128 11.8323L2.10037 12.348L1.66157 12.028L1.22137 12.348L1.39046 11.8323L0.95166 11.5137L1.49527 11.5151L1.66157 10.998Z" fill="white"/>
<path fill-rule="evenodd" clip-rule="evenodd" d="M4.68287 10.998L4.84917 11.5151L5.39138 11.5137L4.95258 11.8323L5.12167 12.348L4.68287 12.028L4.24407 12.348L4.41176 11.8323L3.97296 11.5137L4.51657 11.5151L4.68287 10.998Z" fill="white"/>
<path fill-rule="evenodd" clip-rule="evenodd" d="M7.70417 10.998L7.87187 11.5151L8.41408 11.5137L7.97388 11.8323L8.14298 12.348L7.70417 12.028L7.26677 12.348L7.43446 11.8323L6.99426 11.5137L7.53788 11.5151L7.70417 10.998Z" fill="white"/>
<path fill-rule="evenodd" clip-rule="evenodd" d="M10.7269 8.39307L10.8932 8.91013L11.4368 8.90873L10.9966 9.22595L11.1643 9.74162L10.7269 9.4216L10.2881 9.74162L10.4572 9.22595L10.0156 8.90873L10.5592 8.91013L10.7269 8.39307Z" fill="white"/>
<path fill-rule="evenodd" clip-rule="evenodd" d="M1.66157 8.39307L1.82787 8.91013L2.37008 8.90873L1.93128 9.22595L2.10037 9.74162L1.66157 9.4216L1.22137 9.74162L1.39046 9.22595L0.95166 8.90873L1.49527 8.91013L1.66157 8.39307Z" fill="white"/>
<path fill-rule="evenodd" clip-rule="evenodd" d="M4.68287 8.39307L4.84917 8.91013L5.39138 8.90873L4.95258 9.22595L5.12167 9.74162L4.68287 9.4216L4.24407 9.74162L4.41176 9.22595L3.97296 8.90873L4.51657 8.91013L4.68287 8.39307Z" fill="white"/>
<path fill-rule="evenodd" clip-rule="evenodd" d="M7.70417 8.39307L7.87187 8.91013L8.41408 8.90873L7.97388 9.22595L8.14298 9.74162L7.70417 9.4216L7.26677 9.74162L7.43446 9.22595L6.99426 8.90873L7.53788 8.91013L7.70417 8.39307Z" fill="white"/>
<path fill-rule="evenodd" clip-rule="evenodd" d="M10.7269 5.78711L10.8932 6.30417L11.4368 6.30277L10.9966 6.62139L11.1643 7.13706L10.7269 6.81704L10.2881 7.13706L10.4572 6.62139L10.0156 6.30277L10.5592 6.30417L10.7269 5.78711Z" fill="white"/>
<path fill-rule="evenodd" clip-rule="evenodd" d="M1.66157 5.78711L1.82787 6.30417L2.37008 6.30277L1.93128 6.62139L2.10037 7.13706L1.66157 6.81704L1.22137 7.13706L1.39046 6.62139L0.95166 6.30277L1.49527 6.30417L1.66157 5.78711Z" fill="white"/>
<path fill-rule="evenodd" clip-rule="evenodd" d="M4.68287 5.78711L4.84917 6.30417L5.39138 6.30277L4.95258 6.62139L5.12167 7.13706L4.68287 6.81704L4.24407 7.13706L4.41176 6.62139L3.97296 6.30277L4.51657 6.30417L4.68287 5.78711Z" fill="white"/>
<path fill-rule="evenodd" clip-rule="evenodd" d="M7.70417 5.78711L7.87187 6.30417L8.41408 6.30277L7.97388 6.62139L8.14298 7.13706L7.70417 6.81704L7.26677 7.13706L7.43446 6.62139L6.99426 6.30277L7.53788 6.30417L7.70417 5.78711Z" fill="white"/>
<path fill-rule="evenodd" clip-rule="evenodd" d="M10.7269 3.18066L10.8932 3.69772L11.4368 3.69633L10.9966 4.01495L11.1643 4.53201L10.7269 4.21199L10.2881 4.53201L10.4572 4.01495L10.0156 3.69633L10.5592 3.69772L10.7269 3.18066Z" fill="white"/>
<path fill-rule="evenodd" clip-rule="evenodd" d="M1.66157 3.18066L1.82787 3.69772L2.37008 3.69633L1.93128 4.01495L2.10037 4.53201L1.66157 4.21199L1.22137 4.53201L1.39046 4.01495L0.95166 3.69633L1.49527 3.69772L1.66157 3.18066Z" fill="white"/>
<path fill-rule="evenodd" clip-rule="evenodd" d="M4.68287 3.18066L4.84917 3.69772L5.39138 3.69633L4.95258 4.01495L5.12167 4.53201L4.68287 4.21199L4.24407 4.53201L4.41176 4.01495L3.97296 3.69633L4.51657 3.69772L4.68287 3.18066Z" fill="white"/>
<path fill-rule="evenodd" clip-rule="evenodd" d="M7.70417 3.18066L7.87187 3.69772L8.41408 3.69633L7.97388 4.01495L8.14298 4.53201L7.70417 4.21199L7.26677 4.53201L7.43446 4.01495L6.99426 3.69633L7.53788 3.69772L7.70417 3.18066Z" fill="white"/>
<path fill-rule="evenodd" clip-rule="evenodd" d="M0.150889 1.87842L0.317187 2.39548L0.859402 2.39408L0.420599 2.7127L0.588295 3.22837L0.150889 2.90835L-0.289311 3.22837L-0.120218 2.7127L-0.559021 2.39408L-0.016806 2.39548L0.150889 1.87842Z" fill="white"/>
<path fill-rule="evenodd" clip-rule="evenodd" d="M3.17219 1.87842L3.33849 2.39548L3.8807 2.39408L3.4419 2.7127L3.61099 3.22837L3.17219 2.90835L2.73199 3.22837L2.90108 2.7127L2.46228 2.39408L3.00589 2.39548L3.17219 1.87842Z" fill="white"/>
<path fill-rule="evenodd" clip-rule="evenodd" d="M6.19355 1.87842L6.35985 2.39548L6.90346 2.39408L6.46326 2.7127L6.63236 3.22837L6.19355 2.90835L5.75475 3.22837L5.92384 2.7127L5.48364 2.39408L6.02725 2.39548L6.19355 1.87842Z" fill="white"/>
<path fill-rule="evenodd" clip-rule="evenodd" d="M9.21625 1.87842L9.38255 2.39548L9.92476 2.39408L9.48456 2.7127L9.65366 3.22837L9.21625 2.90835L8.77745 3.22837L8.94654 2.7127L8.50494 2.39408L9.04856 2.39548L9.21625 1.87842Z" fill="white"/>
<path fill-rule="evenodd" clip-rule="evenodd" d="M0.150889 4.48438L0.317187 5.00004H0.859402L0.420599 5.31726L0.588295 5.83293L0.150889 5.5143L-0.289311 5.83293L-0.120218 5.31726L-0.559021 5.00004H-0.016806L0.150889 4.48438Z" fill="white"/>
<path fill-rule="evenodd" clip-rule="evenodd" d="M3.17219 4.48438L3.33849 5.00004H3.8807L3.4419 5.31726L3.61099 5.83293L3.17219 5.5143L2.73199 5.83293L2.90108 5.31726L2.46228 5.00004H3.00589L3.17219 4.48438Z" fill="white"/>
<path fill-rule="evenodd" clip-rule="evenodd" d="M6.19355 4.48438L6.35985 5.00004H6.90346L6.46326 5.31726L6.63236 5.83293L6.19355 5.5143L5.75475 5.83293L5.92384 5.31726L5.48364 5.00004H6.02725L6.19355 4.48438Z" fill="white"/>
<path fill-rule="evenodd" clip-rule="evenodd" d="M9.21625 4.48438L9.38255 5.00004H9.92476L9.48456 5.31726L9.65366 5.83293L9.21625 5.5143L8.77745 5.83293L8.94654 5.31726L8.50494 5.00004H9.04856L9.21625 4.48438Z" fill="white"/>
<path fill-rule="evenodd" clip-rule="evenodd" d="M0.150889 7.08936L0.317187 7.60642L0.859402 7.60502L0.420599 7.92364L0.588295 8.4393L0.150889 8.11928L-0.289311 8.4393L-0.120218 7.92364L-0.559021 7.60502L-0.016806 7.60642L0.150889 7.08936Z" fill="white"/>
<path fill-rule="evenodd" clip-rule="evenodd" d="M3.17219 7.08936L3.33849 7.60642L3.8807 7.60502L3.4419 7.92364L3.61099 8.4393L3.17219 8.11928L2.73199 8.4393L2.90108 7.92364L2.46228 7.60502L3.00589 7.60642L3.17219 7.08936Z" fill="white"/>
<path fill-rule="evenodd" clip-rule="evenodd" d="M6.19355 7.08936L6.35985 7.60642L6.90346 7.60502L6.46326 7.92364L6.63236 8.4393L6.19355 8.11928L5.75475 8.4393L5.92384 7.92364L5.48364 7.60502L6.02725 7.60642L6.19355 7.08936Z" fill="white"/>
<path fill-rule="evenodd" clip-rule="evenodd" d="M9.21625 7.08936L9.38255 7.60642L9.92476 7.60502L9.48456 7.92364L9.65366 8.4393L9.21625 8.11928L8.77745 8.4393L8.94654 7.92364L8.50494 7.60502L9.04856 7.60642L9.21625 7.08936Z" fill="white"/>
<path fill-rule="evenodd" clip-rule="evenodd" d="M0.150889 9.6958L0.317187 10.2115L0.859402 10.2101L0.420599 10.5301L0.588295 11.0457L0.150889 10.7257L-0.289311 11.0457L-0.120218 10.5301L-0.559021 10.2101L-0.016806 10.2115L0.150889 9.6958Z" fill="white"/>
<path fill-rule="evenodd" clip-rule="evenodd" d="M3.17219 9.6958L3.33849 10.2115L3.8807 10.2101L3.4419 10.5301L3.61099 11.0457L3.17219 10.7257L2.73199 11.0457L2.90108 10.5301L2.46228 10.2101L3.00589 10.2115L3.17219 9.6958Z" fill="white"/>
<path fill-rule="evenodd" clip-rule="evenodd" d="M6.19355 9.6958L6.35985 10.2115L6.90346 10.2101L6.46326 10.5301L6.63236 11.0457L6.19355 10.7257L5.75475 11.0457L5.92384 10.5301L5.48364 10.2101L6.02725 10.2115L6.19355 9.6958Z" fill="white"/>
<path fill-rule="evenodd" clip-rule="evenodd" d="M9.21625 9.6958L9.38255 10.2115L9.92476 10.2101L9.48456 10.5301L9.65366 11.0457L9.21625 10.7257L8.77745 11.0457L8.94654 10.5301L8.50494 10.2101L9.04856 10.2115L9.21625 9.6958Z" fill="white"/>
</g>
</g>
<rect x="0.25" y="0.25" width="23.5" height="23.5" rx="11.75" stroke="#E5E3E1" stroke-width="0.5"/>
<defs>
<clipPath id="clip0_16335_1887">
<rect width="24" height="24" rx="12" fill="white"/>
</clipPath>
</defs>
</svg>
