<svg width="48" height="48" viewBox="0 0 48 48" fill="none" xmlns="http://www.w3.org/2000/svg">
<path fill-rule="evenodd" clip-rule="evenodd" d="M24.0395 18.47C28.3795 18.47 31.8895 14.95 31.8895 10.62C31.8895 6.29002 28.3695 2.77002 24.0395 2.77002C19.7095 2.77002 16.1895 6.29002 16.1895 10.62C16.1895 14.95 19.7095 18.47 24.0395 18.47Z" fill="#8DE2E0"/>
<path d="M26.9099 28.7402H14.1699C13.6199 28.7402 13.1699 28.2902 13.1699 27.7402C13.1699 27.1902 13.6199 26.7402 14.1699 26.7402H26.9099C27.4599 26.7402 27.9099 27.1902 27.9099 27.7402C27.9099 28.2902 27.4599 28.7402 26.9099 28.7402Z" fill="#323232"/>
<path d="M33.9093 28.7402H31.5293C30.9793 28.7402 30.5293 28.2902 30.5293 27.7402C30.5293 27.1902 30.9793 26.7402 31.5293 26.7402H33.9093C34.4593 26.7402 34.9093 27.1902 34.9093 27.7402C34.9093 28.2902 34.4593 28.7402 33.9093 28.7402Z" fill="#DF0000"/>
<path d="M26.9099 21.9897H14.1699C13.6199 21.9897 13.1699 22.4397 13.1699 22.9897C13.1699 23.5397 13.6199 23.9897 14.1699 23.9897H26.9099C27.4599 23.9897 27.9099 23.5397 27.9099 22.9897C27.9099 22.4397 27.4599 21.9897 26.9099 21.9897Z" fill="#323232"/>
<path d="M31.5391 21.9897C30.9891 21.9897 30.5391 22.4397 30.5391 22.9897C30.5391 23.5397 30.9891 23.9897 31.5391 23.9897H33.9191C34.4691 23.9897 34.9191 23.5397 34.9191 22.9897C34.9191 22.4397 34.4691 21.9897 33.9191 21.9897H31.5391Z" fill="#323232"/>
<path d="M26.9099 31.4897H14.1699C13.6199 31.4897 13.1699 31.9397 13.1699 32.4897C13.1699 33.0397 13.6199 33.4897 14.1699 33.4897H26.9099C27.4599 33.4897 27.9099 33.0397 27.9099 32.4897C27.9099 31.9397 27.4599 31.4897 26.9099 31.4897Z" fill="#323232"/>
<path d="M33.9093 31.4897H31.5293C30.9793 31.4897 30.5293 31.9397 30.5293 32.4897C30.5293 33.0397 30.9793 33.4897 31.5293 33.4897H33.9093C34.4593 33.4897 34.9093 33.0397 34.9093 32.4897C34.9093 31.9397 34.4593 31.4897 33.9093 31.4897Z" fill="#323232"/>
<path d="M23.5001 14.3096V15.4896H24.5401V14.3396C25.7601 14.1796 26.5401 13.3096 26.5401 12.0896C26.5401 10.7096 25.5801 10.2296 24.7001 9.87955L23.7101 9.48955C23.2401 9.30955 23.1201 8.93955 23.1201 8.65955C23.1201 8.17955 23.4401 7.82955 24.0301 7.82955C24.6201 7.82955 24.9901 8.22955 24.9901 8.79955V9.01955H26.3901V8.85955C26.3901 7.67955 25.6501 6.88955 24.5401 6.69955V5.53955H23.5001V6.69955C22.3801 6.90955 21.7301 7.75955 21.7301 8.76955C21.7301 9.82955 22.3801 10.4696 23.3601 10.8596L24.4301 11.2796C24.9001 11.4696 25.1401 11.7796 25.1401 12.2496C25.1401 12.7996 24.7601 13.1996 24.0601 13.1996C23.3601 13.1996 22.9801 12.8496 22.9801 12.2396V11.9296H21.5801V12.1796C21.5801 13.3396 22.3401 14.1296 23.5101 14.3296L23.5001 14.3096Z" fill="#323232"/>
<path d="M40.3791 8.73977H32.6891C31.8291 4.75977 28.2791 1.75977 24.0391 1.75977C19.7991 1.75977 16.2491 4.74977 15.3891 8.73977H7.61914C7.06914 8.73977 6.61914 9.18976 6.61914 9.73977V45.1198C6.61914 45.5498 6.89914 45.9398 7.30914 46.0698C7.71914 46.1998 8.17914 46.0498 8.42914 45.6998L11.8091 40.9898L15.0791 45.8098C15.4491 46.3598 16.3591 46.3598 16.7291 45.8098L19.9791 41.0298L23.2291 45.8098C23.4191 46.0798 23.7291 46.2498 24.0591 46.2498C24.3891 46.2498 24.6991 46.0898 24.8891 45.8098L28.1291 41.0298L31.3791 45.8098C31.5691 46.0798 31.8791 46.2498 32.2091 46.2498C32.5391 46.2498 32.8491 46.0898 33.0391 45.8098L36.2891 41.0198L39.5391 45.6998C39.7891 46.0598 40.2391 46.2098 40.6591 46.0798C41.0791 45.9498 41.3591 45.5598 41.3591 45.1298V9.73977C41.3591 9.18976 40.9091 8.73977 40.3591 8.73977H40.3791ZM24.0391 3.75977C27.8191 3.75977 30.8891 6.82977 30.8891 10.6098C30.8891 14.3898 27.8191 17.4598 24.0391 17.4598C20.2591 17.4598 17.1891 14.3898 17.1891 10.6098C17.1891 6.82977 20.2591 3.75977 24.0391 3.75977ZM39.3791 41.9198L37.1191 38.6698C36.9291 38.3998 36.6291 38.2398 36.2991 38.2398C35.9691 38.2398 35.6591 38.4098 35.4791 38.6798L32.2391 43.4598L28.9891 38.6798C28.7991 38.4098 28.4891 38.2398 28.1591 38.2398C27.8291 38.2398 27.5191 38.3998 27.3291 38.6798L24.0891 43.4598L20.8391 38.6798C20.6491 38.4098 20.3391 38.2398 20.0091 38.2398C19.6791 38.2398 19.3691 38.3998 19.1791 38.6798L15.9291 43.4598L12.6791 38.6798C12.4991 38.4098 12.1891 38.2498 11.8691 38.2398H11.8591C11.5391 38.2398 11.2391 38.3998 11.0491 38.6598L8.64914 42.0098V10.7398H15.2191C15.2891 15.5598 19.2291 19.4698 24.0691 19.4698C28.9091 19.4698 32.8491 15.5598 32.9191 10.7398H39.4091V41.9198H39.3791Z" fill="#323232"/>
</svg>
