<svg width="24" height="24" viewBox="0 0 24 24" fill="none" xmlns="http://www.w3.org/2000/svg">
<g clip-path="url(#clip0_10496_9649)">
<path d="M4 21C3.71667 21 3.47917 20.9042 3.2875 20.7125C3.09583 20.5208 3 20.2833 3 20C3 19.7167 3.09583 19.4792 3.2875 19.2875C3.47917 19.0958 3.71667 19 4 19H18C18.2833 19 18.5208 19.0958 18.7125 19.2875C18.9042 19.4792 19 19.7167 19 20C19 20.2833 18.9042 20.5208 18.7125 20.7125C18.5208 20.9042 18.2833 21 18 21H4ZM17 8H19V5H17V8ZM7 17C5.9 17 4.95833 16.6083 4.175 15.825C3.39167 15.0417 3 14.1 3 13V5.225C3 4.60833 3.21667 4.08333 3.65 3.65C4.08333 3.21667 4.60833 3 5.225 3H8V5.4L6.2 6.85C6.16667 6.88333 6.1 7.01667 6 7.25V11.5C6 11.6333 6.05 11.75 6.15 11.85C6.25 11.95 6.36667 12 6.5 12H10.5C10.6333 12 10.75 11.95 10.85 11.85C10.95 11.75 11 11.6333 11 11.5V7.25C11 7.21667 10.9333 7.08333 10.8 6.85L9 5.4V3H19C19.55 3 20.0208 3.19583 20.4125 3.5875C20.8042 3.97917 21 4.45 21 5V8C21 8.55 20.8042 9.02083 20.4125 9.4125C20.0208 9.80417 19.55 10 19 10H17V13C17 14.1 16.6083 15.0417 15.825 15.825C15.0417 16.6083 14.1 17 13 17H7Z" fill="#323232"/>
</g>
<defs>
<clipPath id="clip0_10496_9649">
<rect width="24" height="24" fill="white"/>
</clipPath>
</defs>
</svg>
