<svg width="24" height="24" viewBox="0 0 24 24" fill="none" xmlns="http://www.w3.org/2000/svg">
<path d="M21.6656 5.06876C21.7736 5.06896 21.8749 5.12134 21.9375 5.20938C21.9998 5.29876 22.016 5.41238 21.9812 5.51563L17.05 19.7125C17.0038 19.846 16.8787 19.936 16.7375 19.9375H15.8C15.691 19.9378 15.5886 19.8854 15.525 19.7969L15.5405 19.8152C15.479 19.8865 15.3887 19.9302 15.2906 19.9313H2.34686C2.215 19.9352 2.09293 19.862 2.03436 19.7438C1.97738 19.6287 1.99199 19.4911 2.07186 19.3906L13.175 5.20001C13.2379 5.11894 13.3349 5.07162 13.4375 5.07188H20.2344C20.3424 5.07209 20.4436 5.12447 20.5062 5.21251L20.4909 5.19511C20.5523 5.11722 20.6469 5.06914 20.75 5.06876H21.6656Z" fill="white"/>
<path d="M21.6875 5.41876L16.7469 19.6094H15.8094L20.75 5.41876H21.6875ZM12.0875 7.55313C14.5414 7.81929 16.434 9.83638 16.5434 12.3023C16.6529 14.7682 14.9464 16.945 12.5257 17.4275C10.105 17.91 7.69436 16.5538 6.84999 14.2344L7.06874 13.9531C7.1639 14.2407 7.28524 14.519 7.43124 14.7844C7.79602 14.5876 8.17401 14.4164 8.56249 14.2719C8.36472 13.7276 8.25911 13.1541 8.24999 12.575H8.14061L8.41874 12.2219V12.4156H9.80624C9.81163 11.9723 9.85344 11.5302 9.93124 11.0938C9.74999 11.0625 9.57499 11.0219 9.39686 10.9781L9.50624 10.8375C9.64686 10.875 9.80624 10.9094 9.95936 10.9375C10.0363 10.5875 10.1366 10.243 10.2594 9.90626L10.5344 9.55313L10.6375 9.42188C10.9006 9.51051 11.1756 9.55897 11.4531 9.56563V8.38126L11.6125 8.17501V9.56876C11.8965 9.56289 12.1779 9.51335 12.4469 9.42188C12.2416 8.94819 11.9882 8.49686 11.6906 8.07501L11.7937 7.94376C12.1096 8.38941 12.3797 8.86578 12.6 9.36563C12.823 9.27217 13.0331 9.15033 13.225 9.00313C12.8136 8.56376 12.3267 8.20178 11.7875 7.93438L11.8687 7.83438L12.0875 7.55313ZM13.3531 16.125C12.9503 16.548 12.4804 16.9018 11.9625 17.1719L11.9656 17.1875C12.6103 17.1213 13.234 16.9212 13.7969 16.6C13.6671 16.4256 13.5183 16.2663 13.3531 16.125ZM9.68749 16.125C9.52508 16.2578 9.37736 16.4076 9.24686 16.5719L9.23124 16.6031C9.79572 16.9169 10.4194 17.1095 11.0625 17.1688C10.5501 16.8985 10.0855 16.5459 9.68749 16.125ZM12.5875 15.6531C12.3655 16.1606 12.0911 16.6434 11.7687 17.0938C12.316 16.8262 12.8113 16.4632 13.2312 16.0219C13.0343 15.8705 12.8177 15.7464 12.5875 15.6531ZM10.4562 15.6531C10.2263 15.7471 10.0098 15.8711 9.81249 16.0219C10.2313 16.4632 10.7255 16.8261 11.2719 17.0938C10.948 16.6449 10.6745 16.1618 10.4562 15.6531ZM11.6 15.4469V17.0563C11.9309 16.6014 12.2117 16.1121 12.4375 15.5969C12.1672 15.5059 11.885 15.4553 11.6 15.4469ZM11.4406 15.4469C11.1567 15.4563 10.8757 15.5068 10.6062 15.5969C10.8297 16.1116 11.1095 16.6 11.4406 17.0531V15.4469ZM14.4281 14.4563C14.202 15.0305 13.875 15.5597 13.4625 16.0188C13.6413 16.1717 13.8008 16.3459 13.9375 16.5375C14.5883 16.1487 15.1349 15.6032 15.5312 14.9531C15.1758 14.7615 14.8071 14.5955 14.4281 14.4563ZM8.62186 14.4031C8.24175 14.5434 7.87207 14.7105 7.51561 14.9031C7.90973 15.555 8.45677 16.1009 9.10936 16.4938C9.24767 16.3035 9.40701 16.1295 9.58436 15.975C9.17354 15.5153 8.84764 14.9862 8.62186 14.4125V14.4031ZM9.96561 14.0688C9.56152 14.1432 9.16354 14.2476 8.77499 14.3813C8.99607 14.9404 9.31336 15.4565 9.71249 15.9063C9.92194 15.7407 10.1546 15.607 10.4031 15.5094L10.401 15.5098L10.2675 15.1622C10.1829 14.9245 10.1098 14.6829 10.0486 14.4381L9.96561 14.0688ZM13.0937 14.0594C12.9887 14.5544 12.8453 15.0359 12.6562 15.5C12.9032 15.6008 13.1355 15.7343 13.3469 15.8969C13.7475 15.4483 14.0649 14.9319 14.2844 14.3719C13.8954 14.2397 13.4975 14.1353 13.0937 14.0594ZM11.6094 13.9219V15.2938C11.916 15.3003 12.2198 15.3551 12.5094 15.4563C12.6957 14.9987 12.8391 14.5248 12.9375 14.0406C12.4985 13.9669 12.0545 13.9272 11.6094 13.9219ZM11.45 13.9156C11.0058 13.9215 10.5628 13.9623 10.125 14.0375C10.2201 14.5215 10.3635 14.9947 10.5531 15.45C10.8423 15.3513 11.1446 15.2965 11.45 15.2875V13.9156ZM16.2125 12.6094H14.7906C14.7802 13.1873 14.6746 13.7595 14.4781 14.3031C14.8666 14.4476 15.2446 14.6189 15.6094 14.8156V14.7938C15.986 14.1259 16.1931 13.3759 16.2125 12.6094ZM14.6375 12.5875H13.25C13.2424 13.0302 13.1964 13.4715 13.1125 13.9063L13.1281 13.9125C13.5402 13.988 13.9464 14.0924 14.3437 14.225C14.5324 13.6994 14.6317 13.1459 14.6375 12.5875ZM9.81249 12.5781L8.42499 12.5778L8.43587 12.8454C8.4608 13.2177 8.52732 13.586 8.63417 13.9434L8.72186 14.2094C9.11732 14.074 9.52271 13.9695 9.93436 13.8969C9.85591 13.4616 9.81513 13.0204 9.81249 12.5781ZM11.4312 12.5875L9.95599 12.5868L9.96711 12.9056C9.97872 13.1215 9.99907 13.3369 10.0281 13.5513L10.0781 13.8719C10.5252 13.7951 10.9777 13.7544 11.4312 13.75V12.5875ZM13.075 12.5813V12.5875H11.6V13.75C12.0546 13.7545 12.5081 13.7952 12.9562 13.8719C13.0306 13.4456 13.0703 13.014 13.075 12.5813ZM14.3375 10.7938C13.9422 10.9296 13.5367 11.0341 13.125 11.1063C13.2028 11.5427 13.2446 11.9848 13.25 12.4281V12.4375H14.65C14.6385 11.876 14.5329 11.3203 14.3375 10.7938ZM15.6094 10.2156C15.2428 10.414 14.8627 10.5863 14.4719 10.7313C14.6692 11.2757 14.7748 11.8491 14.7844 12.4281H16.2062C16.1934 11.6526 15.9883 10.8924 15.6094 10.2156ZM12.9531 11.1281C12.5058 11.2031 12.0535 11.2438 11.6 11.25V12.4219H13.075C13.0694 11.988 13.0286 11.5554 12.9531 11.1281ZM10.0969 11.125C10.0127 11.552 9.97084 11.9848 9.96561 12.4188H11.4469V11.2469C10.9944 11.241 10.5431 11.2002 10.0969 11.125ZM12.501 9.57176L12.2926 9.63506C12.0706 9.69289 11.8424 9.72522 11.6125 9.73126V11.0969C12.0566 11.0907 12.4997 11.0499 12.9375 10.975C12.8361 10.4936 12.6896 10.0228 12.5 9.56876L12.501 9.57176ZM10.5531 9.56251C10.3648 10.0183 10.2214 10.4914 10.125 10.975C10.5637 11.0511 11.0079 11.0908 11.4531 11.0938V9.73438C11.1485 9.72528 10.847 9.66942 10.5594 9.56876L10.5531 9.56251ZM13.3344 9.11876L13.1798 9.23128C13.0153 9.34136 12.8399 9.43457 12.6562 9.50938C12.8455 9.97369 12.9899 10.4551 13.0875 10.9469C13.4899 10.874 13.8859 10.7695 14.2719 10.6344C14.0484 10.0793 13.7313 9.56662 13.3344 9.11876ZM13.9562 8.50313C13.8173 8.69763 13.6546 8.87399 13.4719 9.02813C13.8794 9.48969 14.204 10.0183 14.4312 10.5906C14.8134 10.4493 15.1852 10.2812 15.5437 10.0875C15.1486 9.44023 14.6043 8.89696 13.9562 8.50313ZM11.9594 7.84376C12.479 8.11513 12.9491 8.47223 13.35 8.90001C13.5191 8.75641 13.6711 8.59389 13.8031 8.41563C13.2363 8.09577 12.6077 7.90079 11.9594 7.84376Z" fill="#FF6600"/>
<path d="M20.2469 5.42188L15.3031 19.6125H2.65936L6.51986 14.6689L2.64999 19.6125H2.34686L13.4469 5.42188H20.2469ZM12.0875 7.55313L6.84999 14.2469L6.9342 14.461C7.85066 16.6443 10.1863 17.8961 12.5284 17.4255C14.9461 16.9398 16.6486 14.7639 16.5386 12.3004C16.4286 9.83682 14.5388 7.82138 12.0875 7.55313ZM11.525 9.34063L11.9187 11.5625L12.975 11.0625L12.475 12.1219L14.0625 12.5L12.475 12.8938L12.9594 13.9313L11.9187 13.4563L11.5156 15.6438L11.125 13.4563L10.0844 13.9375L10.5625 12.9L8.98124 12.5L10.5625 12.1031L10.0687 11.0438L11.125 11.5625L11.525 9.34063Z" fill="#008240"/>
</svg>
