<svg width="24" height="24" viewBox="0 0 24 24" fill="none" xmlns="http://www.w3.org/2000/svg">
<g clip-path="url(#clip0_16335_7445)">
<path d="M12.8528 23.9681C19.4635 23.4978 24.4412 17.7574 23.9709 11.1467C23.5005 4.536 17.7601 -0.441713 11.1494 0.0286689C4.53872 0.499051 -0.438992 6.23941 0.0313897 12.8501C0.501772 19.4608 6.24213 24.4385 12.8528 23.9681Z" fill="#FF0000"/>
<mask id="mask0_16335_7445" style="mask-type:luminance" maskUnits="userSpaceOnUse" x="0" y="-1" width="25" height="25">
<path d="M12.8528 23.9681C19.4635 23.4978 24.4412 17.7574 23.9709 11.1467C23.5005 4.536 17.7601 -0.441713 11.1494 0.0286689C4.53872 0.499051 -0.438992 6.23941 0.0313897 12.8501C0.501772 19.4608 6.24213 24.4385 12.8528 23.9681Z" fill="white"/>
</mask>
<g mask="url(#mask0_16335_7445)">
<path d="M23.8952 4.06946H0.104797V19.9306H23.8952V4.06946Z" fill="#FF0000"/>
<path fill-rule="evenodd" clip-rule="evenodd" d="M11.0287 4.96249H11.7708L12 4.25537L12.2292 4.96249H12.9712L12.3703 5.3971L12.6009 6.10421L12 5.66541L11.3991 6.10421L11.6297 5.3971L11.0287 4.96249Z" fill="#FED700"/>
<path fill-rule="evenodd" clip-rule="evenodd" d="M5.74213 4.96249H6.48418L6.71336 4.25537L6.94255 4.96249H7.6846L7.08369 5.3971L7.31427 6.10421L6.71336 5.66541L6.11245 6.10421L6.34164 5.3971L5.74213 4.96249Z" fill="#FED700"/>
<path fill-rule="evenodd" clip-rule="evenodd" d="M16.3154 4.96249H17.0574L17.2866 4.25537L17.5172 4.96249H18.2592L17.6583 5.3971L17.8875 6.10421L17.2866 5.66541L16.6871 6.10421L16.9163 5.3971L16.3154 4.96249Z" fill="#FED700"/>
<path fill-rule="evenodd" clip-rule="evenodd" d="M11.0287 18.6031H11.7708L12 17.896L12.2292 18.6031H12.9712L12.3703 19.0377L12.6009 19.7448L12 19.306L11.3991 19.7448L11.6297 19.0377L11.0287 18.6031Z" fill="#FED700"/>
<path fill-rule="evenodd" clip-rule="evenodd" d="M5.74213 18.6031H6.48418L6.71336 17.896L6.94255 18.6031H7.6846L7.08369 19.0377L7.31427 19.7448L6.71336 19.306L6.11245 19.7448L6.34164 19.0377L5.74213 18.6031Z" fill="#FED700"/>
<path fill-rule="evenodd" clip-rule="evenodd" d="M16.3154 18.6031H17.0574L17.2866 17.896L17.5172 18.6031H18.2592L17.6583 19.0377L17.8875 19.7448L17.2866 19.306L16.6871 19.7448L16.9163 19.0377L16.3154 18.6031Z" fill="#FED700"/>
<path fill-rule="evenodd" clip-rule="evenodd" d="M12 12.0001L21.676 6.29004H2.32538L12 12.0001Z" fill="#FED700"/>
<path fill-rule="evenodd" clip-rule="evenodd" d="M12 12L21.676 17.71H2.32538L12 12Z" fill="#FED700"/>
<path fill-rule="evenodd" clip-rule="evenodd" d="M2.32538 6.29004V17.7101L12 12.0001L2.32538 6.29004Z" fill="#007C29"/>
<path fill-rule="evenodd" clip-rule="evenodd" d="M21.676 6.29004V17.7101L12 12.0001L21.676 6.29004Z" fill="#007C29"/>
<path fill-rule="evenodd" clip-rule="evenodd" d="M4.76674 13.1083C4.3503 12.9266 3.98696 12.6164 3.7424 12.1929C3.49784 11.7695 3.4098 11.2985 3.46151 10.8472C3.87795 11.0288 4.24129 11.3391 4.48585 11.7625C4.7304 12.1859 4.81705 12.6569 4.76674 13.1083Z" fill="#FF0000"/>
<path fill-rule="evenodd" clip-rule="evenodd" d="M4.41038 11.1616C4.71643 11.2427 4.97077 11.4481 5.12868 11.722C5.35367 12.1119 5.34249 12.5661 5.13706 12.8931L5.12309 12.8679C4.87853 12.4445 4.5138 12.1328 4.09875 11.9526C4.04704 12.4039 4.13508 12.8749 4.37964 13.2983L4.39501 13.3235C4.00931 13.3374 3.61104 13.1194 3.38604 12.731C3.22813 12.457 3.17642 12.1342 3.26027 11.8282C3.36927 11.4243 3.37626 10.9757 3.27704 10.5258C3.61663 10.8374 4.00931 11.054 4.41318 11.163L4.41038 11.1616Z" fill="#FED700"/>
<path fill-rule="evenodd" clip-rule="evenodd" d="M12 13.9104C13.0523 13.9104 13.9103 13.0523 13.9103 12.0001C13.9103 10.9478 13.0523 10.0897 12 10.0897C10.9477 10.0897 10.0897 10.9478 10.0897 12.0001C10.0897 13.0523 10.9477 13.9104 12 13.9104Z" fill="#FF0000"/>
<path fill-rule="evenodd" clip-rule="evenodd" d="M10.3272 11.4509H11.6059L12 10.2351L12.3955 11.4509H13.6727L12.6386 12.1999L13.0341 13.4157L12 12.6625L10.9658 13.4157L11.3613 12.1999L10.3272 11.4509Z" fill="#FED700"/>
</g>
</g>
<rect x="0.25" y="0.25" width="23.5" height="23.5" rx="11.75" stroke="#E5E3E1" stroke-width="0.5"/>
<defs>
<clipPath id="clip0_16335_7445">
<rect width="24" height="24" rx="12" fill="white"/>
</clipPath>
</defs>
</svg>
