<svg width="48" height="48" viewBox="0 0 48 48" fill="none" xmlns="http://www.w3.org/2000/svg">
<path d="M11.1906 23.5799C10.9306 23.5799 10.6706 23.4699 10.4806 23.2899L8.12062 20.9299C7.73063 20.5399 7.73063 19.9099 8.12062 19.5199C8.51063 19.1299 9.14062 19.1299 9.53062 19.5199L11.1406 21.1299L14.2106 17.6799C14.5806 17.2699 15.2106 17.2299 15.6206 17.5999C16.0306 17.9699 16.0706 18.5999 15.7006 19.0099L11.9306 23.2599C11.7506 23.4699 11.4906 23.5899 11.2106 23.5999H11.1806L11.1906 23.5799Z" fill="#DF0000"/>
<path d="M11.1906 31.9398C10.9306 31.9398 10.6706 31.8298 10.4806 31.6498L8.12062 29.2898C7.73063 28.8998 7.73063 28.2698 8.12062 27.8798C8.51063 27.4898 9.14062 27.4898 9.53062 27.8798L11.1406 29.4898L14.2106 26.0398C14.5806 25.6298 15.2106 25.5898 15.6206 25.9598C16.0306 26.3298 16.0706 26.9598 15.7006 27.3698L11.9306 31.6198C11.7506 31.8298 11.4906 31.9498 11.2106 31.9598H11.1806L11.1906 31.9398Z" fill="#DF0000"/>
<path d="M11.1906 40.3001C10.9306 40.3001 10.6706 40.1901 10.4806 40.0101L8.12062 37.6501C7.73063 37.2601 7.73063 36.6301 8.12062 36.2401C8.51063 35.8501 9.14062 35.8501 9.53062 36.2401L11.1406 37.8501L14.2106 34.4001C14.5806 33.9901 15.2106 33.9501 15.6206 34.3201C16.0306 34.6901 16.0706 35.3201 15.7006 35.7301L11.9306 39.9801C11.7506 40.1901 11.4906 40.3101 11.2106 40.3201H11.1806L11.1906 40.3001Z" fill="#DF0000"/>
<path d="M43.6714 32.6003C43.6714 32.6003 43.6914 32.5603 43.7014 32.5403C44.2914 31.1903 44.6114 29.7003 44.6114 28.1403C44.6114 26.5803 44.2814 25.0903 43.7014 23.7403C43.7014 23.7203 43.6814 23.7003 43.6714 23.6803C41.9514 19.7803 38.0514 17.0503 33.5314 17.0503C29.0114 17.0503 25.1114 19.7803 23.3914 23.6703C23.3814 23.7003 23.3614 23.7203 23.3514 23.7503C22.7714 25.1003 22.4414 26.5803 22.4414 28.1403C22.4414 29.7003 22.7714 31.1803 23.3514 32.5303C23.3614 32.5603 23.3714 32.5803 23.3914 32.6103C25.1114 36.4903 28.9914 39.2103 33.5014 39.2203C33.5114 39.2203 33.5214 39.2203 33.5314 39.2203C33.5314 39.2203 33.5514 39.2203 33.5614 39.2203C38.0714 39.2103 41.9614 36.4803 43.6714 32.6003ZM24.4514 28.1403C24.4514 27.0703 24.6414 26.0603 24.9814 25.1003H27.3614C27.2114 26.0603 27.1214 27.0803 27.1214 28.1403C27.1214 29.2003 27.2114 30.2103 27.3614 31.1803H24.9814C24.6414 30.2303 24.4514 29.2103 24.4514 28.1403ZM29.1214 28.1403C29.1214 27.0503 29.2214 26.0403 29.3914 25.1003H32.5314V31.1703H29.3914C29.2214 30.2403 29.1214 29.2203 29.1214 28.1303V28.1403ZM34.5314 19.3303C35.5414 19.8803 36.5114 21.2103 37.1614 23.1003H34.5314V19.3303ZM32.5314 19.3303V23.1003H29.9014C30.5514 21.2103 31.5214 19.8803 32.5314 19.3303ZM32.5314 33.1703V36.9403C31.5214 36.3903 30.5514 35.0603 29.9014 33.1703H32.5314ZM34.5314 36.9403V33.1703H37.1614C36.5114 35.0603 35.5414 36.3903 34.5314 36.9403ZM34.5314 31.1703V25.1003H37.6714C37.8414 26.0303 37.9414 27.0503 37.9414 28.1403C37.9414 29.2303 37.8414 30.2403 37.6714 31.1803H34.5314V31.1703ZM39.7114 25.1003H42.0914C42.4314 26.0503 42.6214 27.0703 42.6214 28.1403C42.6214 29.2103 42.4314 30.2203 42.0914 31.1803H39.7114C39.8614 30.2203 39.9514 29.2003 39.9514 28.1403C39.9514 27.0803 39.8614 26.0703 39.7114 25.1003ZM41.0914 23.1003H39.2614C38.9614 22.0603 38.5714 21.1103 38.1014 20.2903C39.2914 20.9903 40.3214 21.9503 41.0914 23.1003ZM28.9614 20.3003C28.4914 21.1103 28.1014 22.0603 27.8014 23.1003H25.9714C26.7414 21.9503 27.7614 21.0003 28.9514 20.3003H28.9614ZM25.9714 33.1703H27.8014C28.1014 34.2103 28.4914 35.1603 28.9614 35.9703C27.7714 35.2703 26.7414 34.3103 25.9814 33.1703H25.9714ZM38.1114 35.9803C38.5814 35.1603 38.9714 34.2203 39.2714 33.1803H41.1014C40.3314 34.3303 39.3114 35.2803 38.1114 35.9803Z" fill="#323232"/>
<path d="M31.4406 40.4601C30.8906 40.4601 30.4406 40.9101 30.4406 41.4601V42.5401C30.4406 43.4001 29.7406 44.1001 28.8806 44.1001H6.94062C6.08063 44.1001 5.38063 43.4001 5.38063 42.5401V13.7401C5.38063 12.8801 6.08063 12.1801 6.94062 12.1801H8.23062V13.4901C8.23062 14.0401 8.68062 14.4901 9.23062 14.4901H26.6006C27.1506 14.4901 27.6006 14.0401 27.6006 13.4901V12.1801H28.8906C29.7506 12.1801 30.4506 12.8801 30.4506 13.7401V14.6901C30.4506 15.2401 30.9006 15.6901 31.4506 15.6901C32.0006 15.6901 32.4506 15.2401 32.4506 14.6901V13.7401C32.4506 11.7801 30.8506 10.1801 28.8906 10.1801H27.5606C27.3506 8.4201 25.8706 7.0401 24.0506 7.0401H23.0106C22.5406 4.6601 20.4406 2.8501 17.9206 2.8501C15.4006 2.8501 13.2906 4.6501 12.8206 7.0401H11.7906C9.97062 7.0401 8.48062 8.4201 8.28062 10.1801H6.95062C4.99062 10.1801 3.39062 11.7701 3.39062 13.7401V42.5501C3.39062 44.5101 4.99062 46.1101 6.95062 46.1101H28.9006C30.8606 46.1101 32.4606 44.5101 32.4606 42.5501V41.4701C32.4606 40.9201 32.0106 40.4701 31.4606 40.4701L31.4406 40.4601ZM17.9106 4.8501C19.3206 4.8501 20.5206 5.7701 20.9406 7.0401H14.8706C15.2906 5.7701 16.4906 4.8501 17.9106 4.8501ZM10.2206 10.5901C10.2206 9.7301 10.9206 9.0301 11.7806 9.0301H24.0406C24.9006 9.0301 25.6006 9.7301 25.6006 10.5901V12.4801H10.2306V10.5901H10.2206Z" fill="#323232"/>
<path d="M23.6513 20.46C23.6513 19.91 23.2013 19.46 22.6513 19.46H17.1113C16.5613 19.46 16.1113 19.91 16.1113 20.46C16.1113 21.01 16.5613 21.46 17.1113 21.46H22.6513C23.2013 21.46 23.6513 21.01 23.6513 20.46Z" fill="#323232"/>
<path d="M20.2313 27.8203H17.1113C16.5613 27.8203 16.1113 28.2703 16.1113 28.8203C16.1113 29.3703 16.5613 29.8203 17.1113 29.8203H20.2313C20.7813 29.8203 21.2313 29.3703 21.2313 28.8203C21.2313 28.2703 20.7813 27.8203 20.2313 27.8203Z" fill="#323232"/>
<path d="M16.1113 37.1802C16.1113 37.7302 16.5613 38.1802 17.1113 38.1802H23.4413C23.9913 38.1802 24.4413 37.7302 24.4413 37.1802C24.4413 36.6302 23.9913 36.1802 23.4413 36.1802H17.1113C16.5613 36.1802 16.1113 36.6302 16.1113 37.1802Z" fill="#323232"/>
</svg>
