<svg width="48" height="48" viewBox="0 0 48 48" fill="none" xmlns="http://www.w3.org/2000/svg">
<path d="M26.3496 31.8195V27.7695H38.9496V31.8195" fill="#8DE2E0"/>
<path d="M20.7288 15.2997C21.7488 15.2997 22.6988 14.8497 23.3388 14.0997C24.9288 14.6697 26.7788 14.2197 27.9288 13.0197C28.5488 13.2697 29.2088 13.3897 29.8588 13.3897C31.5688 13.3897 33.1688 12.5597 34.1688 11.1797H34.1988C36.0388 11.1797 37.5388 9.67973 37.5388 7.83973C37.5388 5.87973 35.8288 4.28973 33.8488 4.51973C32.8388 3.37973 31.3888 2.71973 29.8488 2.71973C27.8188 2.71973 26.0088 3.85973 25.1088 5.62973C23.1188 5.45973 21.3788 6.67973 20.7188 8.43973C18.8288 8.43973 17.2988 9.97973 17.2988 11.8697C17.2988 13.7597 18.8388 15.2997 20.7288 15.2997ZM20.7288 10.4397C20.8588 10.4397 20.9888 10.4597 21.1588 10.5197C21.4388 10.6097 21.7488 10.5697 21.9988 10.4097C22.2488 10.2497 22.4188 9.98973 22.4488 9.68973C22.5988 8.50973 23.5988 7.61973 24.7788 7.61973C24.9688 7.61973 25.1788 7.64973 25.4388 7.72973C25.9588 7.87973 26.5088 7.58973 26.6688 7.06973C27.1088 5.66973 28.3788 4.71973 29.8388 4.71973C30.9488 4.71973 31.9888 5.26973 32.6088 6.18973C32.8588 6.55973 33.3288 6.71973 33.7588 6.57973C33.9188 6.52973 34.0588 6.49973 34.1888 6.49973C34.9288 6.49973 35.5288 7.09973 35.5288 7.83973C35.5288 8.57973 34.9288 9.17973 34.1888 9.17973C34.0988 9.17973 33.9988 9.16973 33.8788 9.13973C33.4388 9.03973 32.9888 9.23973 32.7688 9.63973C31.8888 11.2597 29.7888 11.8997 28.1488 10.9197C27.6788 10.6397 27.0788 10.7897 26.7888 11.2497C26.1088 12.3397 24.5988 12.6797 23.5088 11.9797C23.2588 11.8197 22.9588 11.7797 22.6688 11.8597C22.3888 11.9497 22.1588 12.1497 22.0388 12.4297C21.8188 12.9597 21.2988 13.2997 20.7188 13.2997C19.9288 13.2997 19.2888 12.6597 19.2888 11.8697C19.2888 11.0797 19.9288 10.4397 20.7188 10.4397H20.7288Z" fill="#323232"/>
<path d="M40.9598 30.8195H39.9398V27.7695C39.9398 27.2195 39.4898 26.7695 38.9398 26.7695H26.3398C25.7898 26.7695 25.3398 27.2195 25.3398 27.7695V30.8195H24.2098L22.4498 19.4795C22.3698 18.9895 21.9498 18.6295 21.4598 18.6295H17.8898C17.3698 18.6295 16.9298 19.0295 16.8898 19.5595L16.1398 29.5995L14.5098 12.0995C14.4598 11.5895 14.0298 11.1895 13.5098 11.1895H9.67977C9.14977 11.1895 8.70977 11.6095 8.67977 12.1395L7.80977 30.8095H7.00977C6.45977 30.8095 6.00977 31.2595 6.00977 31.8095V44.2095C6.00977 44.7595 6.45977 45.2095 7.00977 45.2095H40.9398C41.4898 45.2095 41.9398 44.7595 41.9398 44.2095V31.8095C41.9398 31.2595 41.4898 30.8095 40.9398 30.8095L40.9598 30.8195ZM27.3498 28.7695H37.9498V30.8195H27.3498V28.7695ZM20.6098 20.6295L22.1898 30.8195H18.0598L18.8198 20.6295H20.5998H20.6098ZM10.6598 13.1895H12.6198L14.2598 30.8195H9.83977L10.6598 13.1895ZM21.1498 43.2195H11.9498V36.7995H21.1498V43.2195ZM36.0498 43.2195H26.8498V36.7995H36.0498V43.2195ZM39.9598 43.2195H38.0498V35.7995C38.0498 35.2495 37.5998 34.7995 37.0498 34.7995H25.8498C25.2998 34.7995 24.8498 35.2495 24.8498 35.7995V43.2195H23.1498V35.7995C23.1498 35.2495 22.6998 34.7995 22.1498 34.7995H10.9498C10.3998 34.7995 9.94977 35.2495 9.94977 35.7995V43.2195H8.02977V32.8195H39.9598V43.2195Z" fill="#323232"/>
</svg>
