<svg width="48" height="48" viewBox="0 0 48 48" fill="none" xmlns="http://www.w3.org/2000/svg">
<path d="M23.9989 46.0996C11.7989 46.0996 1.87891 36.1696 1.87891 23.9796C1.87891 11.7896 11.7989 1.84961 23.9989 1.84961C36.1989 1.84961 46.1189 11.7796 46.1189 23.9696C46.1189 36.1596 36.1989 46.0896 23.9989 46.0896V46.0996ZM23.9989 3.84961C12.8989 3.84961 3.87891 12.8796 3.87891 23.9696C3.87891 35.0596 12.9089 44.0896 23.9989 44.0896C35.0889 44.0896 44.1189 35.0596 44.1189 23.9696C44.1189 12.8796 35.0989 3.84961 23.9989 3.84961Z" fill="#323232"/>
<path d="M22.3886 28.4399L22.2786 27.3999C21.9986 25.1999 23.3786 24.1299 24.8986 22.6399C25.6586 21.9099 26.3386 21.1999 26.3386 20.1899C26.3386 18.9199 25.4986 18.0799 23.9486 18.0799C22.3986 18.0799 21.4386 19.0399 21.4386 20.4699V21.2299H18.0586V20.4099C18.0586 17.1999 20.4286 14.9199 24.0286 14.9199C27.6286 14.9199 29.9486 16.9499 29.9486 20.0499C29.9486 21.8199 29.0186 23.1499 27.7786 24.2999C26.5686 25.4599 25.4986 26.2399 25.3286 27.6199L25.2186 28.4399H22.3986H22.3886ZM23.7986 30.1099C24.8986 30.1099 25.7386 30.9799 25.7386 32.0499C25.7386 33.1199 24.8986 33.9899 23.7986 33.9899C22.6986 33.9899 21.8786 33.1399 21.8786 32.0499C21.8786 30.9599 22.7186 30.1099 23.7986 30.1099Z" fill="#DF0000"/>
<path d="M24.4011 5.91039C24.1911 5.91039 24.0211 6.06039 23.9811 6.26039C23.9511 6.46039 24.0711 6.66039 24.2711 6.72039C24.3411 6.74039 31.4411 9.05039 35.6811 14.1104C40.0311 19.3104 41.1011 25.4204 41.1111 25.4804C41.1411 25.6804 41.3211 25.8304 41.5211 25.8304C41.7211 25.8304 41.9011 25.6904 41.9311 25.4904C42.0711 24.7504 42.1411 23.9304 42.1411 23.0504C42.1411 13.6004 34.1811 5.90039 24.3911 5.90039L24.4011 5.91039Z" fill="#8DE2E0"/>
</svg>
