<svg width="48" height="48" viewBox="0 0 48 48" fill="none" xmlns="http://www.w3.org/2000/svg">
<path d="M17.0391 35.1602C16.4891 35.1602 16.0391 34.7102 16.0391 34.1602C16.0391 33.6102 16.4891 33.1602 17.0391 33.1602H26.1191C26.6691 33.1602 27.1191 33.6002 27.1191 34.1602C27.1191 34.7202 26.6691 35.1602 26.1191 35.1602H17.0391Z" fill="#DF0000"/>
<path d="M34.3594 19.9C34.0994 19.9 33.8494 19.8 33.6494 19.61L30.8394 16.8C30.4494 16.41 30.4494 15.78 30.8394 15.39C31.2294 15 31.8594 15 32.2494 15.39L34.3494 17.49L39.6494 12.19C40.0394 11.8 40.6694 11.8 41.0594 12.19C41.4494 12.58 41.4494 13.21 41.0594 13.6L35.0494 19.61C34.8494 19.81 34.5994 19.9 34.3394 19.9H34.3594Z" fill="#DF0000"/>
<path d="M35.4499 3.08008L25.6699 7.17008V10.1101L35.4499 6.09008L45.2399 10.1101V7.17008L35.4499 3.08008Z" fill="#8DE2E0"/>
<path d="M38.0805 32.3496C37.5305 32.3496 37.0805 32.7996 37.0805 33.3496V37.6996C37.0805 38.1596 36.8805 38.5896 36.5205 38.9196C36.1305 39.2796 35.6005 39.4696 35.0405 39.4696H8.13048C7.57048 39.4696 7.04048 39.2696 6.65048 38.9196C6.29048 38.5896 6.08048 38.1496 6.08048 37.6996V30.6096C6.08048 30.1496 6.28048 29.7196 6.64048 29.3896C7.03048 29.0296 7.56048 28.8396 8.12048 28.8396H26.7805C27.3305 28.8396 27.7805 28.3896 27.7805 27.8296C27.7805 27.2696 27.3305 26.8296 26.7805 26.8296H8.32048L11.2705 22.5996C11.6205 22.0996 12.1905 21.8096 12.8205 21.8096H22.7705C23.3205 21.8096 23.7705 21.3596 23.7705 20.8096C23.7705 20.2596 23.3205 19.8096 22.7705 19.8096H12.8205C11.5405 19.8096 10.3505 20.4296 9.63048 21.4696L7.34048 24.7596C7.14048 23.9996 6.33048 23.3496 5.51048 23.2196C4.07048 22.9796 2.62048 24.3596 2.77048 25.1396C2.92048 25.9596 4.94048 26.5796 6.24048 26.3396L4.79048 28.4196C4.75048 28.4796 4.74048 28.5396 4.71048 28.5996C4.30048 29.1996 4.07048 29.8996 4.07048 30.6296V37.7196C4.07048 38.7496 4.51048 39.7096 5.29048 40.4196C5.69048 40.7896 6.16048 41.0596 6.68048 41.2396V43.9196C6.68048 45.0296 7.58048 45.9196 8.68048 45.9196H11.5005C12.6105 45.9196 13.5005 45.0196 13.5005 43.9196V41.4896H29.9305L29.9205 43.4296C29.9205 44.8296 30.8005 45.9196 31.9205 45.9196H34.7405C35.8605 45.9196 36.7405 44.8296 36.7405 43.4296V41.0996C37.1505 40.9196 37.5205 40.6996 37.8505 40.3996C38.6405 39.6796 39.0705 38.7196 39.0705 37.6996V33.3496C39.0705 32.7996 38.6205 32.3496 38.0705 32.3496H38.0805ZM11.5105 43.9196H8.69048V41.4896H11.5205V43.9196H11.5105ZM34.6405 43.9196H32.0505C32.0005 43.8396 31.9305 43.6696 31.9305 43.4396V41.4796H34.7605V43.4296C34.7605 43.6696 34.6905 43.8396 34.6405 43.9196Z" fill="#323232"/>
<path d="M9.33008 34.1697C9.33008 35.2497 10.2001 36.1197 11.2801 36.1197C12.3601 36.1197 13.2301 35.2497 13.2301 34.1697C13.2301 33.0897 12.3601 32.2197 11.2801 32.2197C10.2001 32.2197 9.33008 33.0897 9.33008 34.1697Z" fill="#323232"/>
<path d="M34.1207 33.7596C34.1207 32.6796 33.2507 31.8096 32.1707 31.8096C31.0907 31.8096 30.2207 32.6796 30.2207 33.7596C30.2207 34.8396 31.0907 35.7096 32.1707 35.7096C33.2507 35.7096 34.1207 34.8396 34.1207 33.7596Z" fill="#323232"/>
<path d="M45.6197 6.23953L35.8397 2.21953C35.5997 2.11953 35.3197 2.11953 35.0797 2.21953L25.2997 6.23953C24.9197 6.38953 24.6797 6.75953 24.6797 7.16953V15.1595C24.6797 27.6495 35.1897 29.5995 35.2897 29.6195C35.3497 29.6195 35.3997 29.6295 35.4597 29.6295C35.5197 29.6295 35.5697 29.6295 35.6297 29.6195C35.7397 29.5995 46.2397 27.6495 46.2397 15.1595V7.16953C46.2397 6.75953 45.9897 6.39953 45.6197 6.23953ZM44.2397 15.1595C44.2397 25.2395 36.7297 27.3295 35.4597 27.6195C34.1797 27.3395 26.6797 25.2295 26.6797 15.1595V7.83953L35.4597 4.22953L44.2397 7.83953V15.1595Z" fill="#323232"/>
</svg>
