<svg width="24" height="24" viewBox="0 0 24 24" fill="none" xmlns="http://www.w3.org/2000/svg">
<g clip-path="url(#clip0_16335_5635)">
<path d="M23.6789 14.7568C25.2013 8.30659 21.2066 1.84354 14.7564 0.321152C8.30617 -1.20123 1.84311 2.79355 0.320729 9.24374C-1.20165 15.6939 2.79312 22.157 9.24332 23.6794C15.6935 25.2018 22.1566 21.207 23.6789 14.7568Z" fill="white"/>
<mask id="mask0_16335_5635" style="mask-type:luminance" maskUnits="userSpaceOnUse" x="-1" y="-1" width="26" height="26">
<path d="M23.6789 14.7568C25.2013 8.30659 21.2066 1.84354 14.7564 0.321152C8.30617 -1.20123 1.84311 2.79355 0.320729 9.24374C-1.20165 15.6939 2.79312 22.157 9.24332 23.6794C15.6935 25.2018 22.1566 21.207 23.6789 14.7568Z" fill="white"/>
</mask>
<g mask="url(#mask0_16335_5635)">
<path d="M24 0H15.6501V24H24V0Z" fill="#FF0000"/>
<path d="M15.6502 0H8.34705V24H15.6502V0Z" fill="#0072FE"/>
<path d="M8.34704 0H0V24H8.34704V0Z" fill="#FF0000"/>
<path fill-rule="evenodd" clip-rule="evenodd" d="M4.69965 9.84657C5.18736 9.84657 5.58564 9.44829 5.58564 8.96058C5.58564 8.47286 5.18736 8.07458 4.69965 8.07458C4.21194 8.07458 3.81366 8.47286 3.81366 8.96058C3.81366 9.44829 4.21194 9.84657 4.69965 9.84657Z" fill="#FED700"/>
<path fill-rule="evenodd" clip-rule="evenodd" d="M5.93501 9.25256V9.27632C5.93501 9.95828 5.38302 10.5117 4.70105 10.5117C4.01909 10.5117 3.4657 9.95828 3.4657 9.27632V9.25256C3.66833 9.73469 4.14486 10.0729 4.70105 10.0729C5.25724 10.0729 5.73378 9.73469 5.93501 9.25256Z" fill="#FED700"/>
<path d="M3.36506 10.7325H2.25269V16.0513H3.36506V10.7325Z" fill="#FED700"/>
<path d="M7.13685 10.7325H6.02448V16.0513H7.13685V10.7325Z" fill="#FED700"/>
<path d="M5.80365 11.6199H3.58728V12.0629H5.80365V11.6199Z" fill="#FED700"/>
<path fill-rule="evenodd" clip-rule="evenodd" d="M4.69547 11.3977L5.80365 10.7325H3.58728L4.69547 11.3977Z" fill="#FED700"/>
<path fill-rule="evenodd" clip-rule="evenodd" d="M4.69547 16.0513L5.80365 15.3861H3.58728L4.69547 16.0513Z" fill="#FED700"/>
<path d="M5.80365 14.7223H3.58728V15.1653H5.80365V14.7223Z" fill="#FED700"/>
<path fill-rule="evenodd" clip-rule="evenodd" d="M5.23069 12.422C5.57168 12.6106 5.80226 12.974 5.80226 13.3918C5.80226 14.0039 5.30616 14.5 4.69407 14.5C4.40759 14.5 4.17421 14.268 4.17421 13.9801C4.17421 13.6923 4.40619 13.4603 4.69407 13.4603C5.05741 13.4603 5.35227 13.1654 5.35227 12.8021C5.35227 12.6595 5.30756 12.5282 5.23069 12.4206V12.422ZM4.69547 13.7621C4.57389 13.7621 4.47607 13.86 4.47607 13.9815C4.47607 14.1031 4.57389 14.2009 4.69547 14.2009C4.81705 14.2009 4.91487 14.1031 4.91487 13.9815C4.91487 13.86 4.81705 13.7621 4.69547 13.7621ZM4.69547 12.5841C4.57389 12.5841 4.47607 12.6819 4.47607 12.8035C4.47607 12.9251 4.57389 13.0229 4.69547 13.0229C4.81705 13.0229 4.91487 12.9251 4.91487 12.8035C4.91487 12.6819 4.81705 12.5841 4.69547 12.5841ZM4.15884 14.3616C4.08198 14.254 4.03726 14.1227 4.03726 13.9801C4.03726 13.6168 4.33213 13.3219 4.69547 13.3219C4.98195 13.3219 5.21532 13.0886 5.21532 12.8021C5.21532 12.5156 4.98334 12.2822 4.69547 12.2822C4.08338 12.2822 3.58728 12.7783 3.58728 13.3904C3.58728 13.8083 3.81786 14.1716 4.15884 14.3603V14.3616Z" fill="#FED700"/>
<path fill-rule="evenodd" clip-rule="evenodd" d="M4.81008 7.20395C4.81987 7.25706 4.86598 7.29618 4.92048 7.29618C4.98197 7.29618 5.03228 7.24588 5.03228 7.18439C5.03228 7.14666 5.01411 7.11451 4.98616 7.09355C4.95263 7.0698 4.93306 7.02787 4.93306 6.98874C4.93306 6.96359 4.94005 6.94123 4.95123 6.92027C4.97359 6.88673 4.98616 6.8462 4.98616 6.80288C4.98616 6.74419 4.96241 6.69108 4.92468 6.65195C5.03787 6.70087 5.10355 6.81266 5.09656 6.93424C5.09377 6.98595 5.11613 7.03765 5.15386 7.07259C5.22234 7.13548 5.24889 7.20954 5.25028 7.30038C5.25587 7.60363 5.00433 7.84958 4.69968 7.84958C4.39504 7.84958 4.14489 7.60363 4.15048 7.30038C4.15188 7.20954 4.17843 7.13548 4.24691 7.07259C4.28464 7.03765 4.307 6.98595 4.3042 6.93424C4.29861 6.81127 4.3629 6.70087 4.47609 6.65195C4.43836 6.69108 4.4146 6.74419 4.4146 6.80288C4.4146 6.8462 4.42718 6.88673 4.44954 6.92027C4.46212 6.93983 4.46771 6.96359 4.46771 6.98874C4.46771 7.02927 4.44814 7.07119 4.4146 7.09355C4.38665 7.11451 4.36849 7.14666 4.36849 7.18439C4.36849 7.24588 4.4188 7.29618 4.48028 7.29618C4.54177 7.29618 4.58789 7.25007 4.59208 7.19138C4.59488 7.13827 4.58789 7.08936 4.56553 7.03905C4.54457 6.99433 4.53339 6.94402 4.53339 6.89092C4.53339 6.80428 4.56134 6.73301 4.61444 6.66733C4.64518 6.6268 4.66475 6.57649 4.66475 6.52199C4.66475 6.49264 4.65916 6.4633 4.64938 6.43675C4.6354 6.40181 4.62841 6.36687 4.62841 6.32914C4.62841 6.21176 4.69968 6.11114 4.8003 6.06921C4.73602 6.12511 4.69409 6.20756 4.69409 6.2998C4.69409 6.37805 4.72344 6.44932 4.77235 6.50382C4.85061 6.58627 4.89393 6.68549 4.89393 6.80009C4.89393 6.87275 4.87576 6.94123 4.84362 7.00132C4.81288 7.06141 4.8003 7.13687 4.81148 7.20395H4.81008Z" fill="#FED700"/>
</g>
</g>
<rect x="0.25" y="0.25" width="23.5" height="23.5" rx="11.75" stroke="#E5E3E1" stroke-width="0.5"/>
<defs>
<clipPath id="clip0_16335_5635">
<rect width="24" height="24" rx="12" fill="white"/>
</clipPath>
</defs>
</svg>
