<svg width="48" height="48" viewBox="0 0 48 48" fill="none" xmlns="http://www.w3.org/2000/svg">
<path d="M20.3007 16.27L16.7807 17.28C16.0307 17.49 15.2207 17.22 14.7507 16.6L10.5007 11.02C10.1707 10.59 10.3807 9.96999 10.8907 9.81999L12.3007 9.40999C12.8907 9.23999 13.5207 9.35999 14.0007 9.73999L20.5607 14.92C21.0507 15.31 20.8907 16.08 20.3007 16.26" fill="#DF0000"/>
<path d="M12.3398 37.5302L8.81977 38.5402C8.06977 38.7502 7.25977 38.4802 6.78977 37.8602L2.53977 32.2802C2.20977 31.8502 2.41977 31.2302 2.92977 31.0802L4.33977 30.6702C4.92977 30.5002 5.55977 30.6202 6.03977 31.0002L12.5998 36.1802C13.0898 36.5702 12.9298 37.3402 12.3398 37.5202" fill="#FF5115"/>
<path d="M46.5904 7.91976L46.5404 7.73976C46.3304 6.94976 45.8304 5.09976 44.1204 4.12976C42.8804 3.42976 41.2904 3.33976 39.4004 3.87976L31.5604 6.08976C31.5604 6.08976 31.5504 6.08976 31.5404 6.07976L23.2104 2.89976C21.6204 2.37976 19.8504 2.63976 18.4804 3.59976C18.2404 3.76976 18.0804 4.02976 18.0604 4.32976C18.0304 4.61976 18.1304 4.90976 18.3404 5.11976C19.2604 6.06976 20.9804 7.69976 22.1104 8.75976L18.6204 9.73976C18.0904 9.88976 17.7804 10.4398 17.9304 10.9698C18.0804 11.4998 18.6304 11.8098 19.1604 11.6598L39.9504 5.79976C41.3104 5.41976 42.3904 5.43976 43.1404 5.86976C43.8104 6.24976 44.1704 6.91976 44.3904 7.50976C41.4904 8.34976 33.5604 10.6198 33.5604 10.6198C33.3304 10.6798 33.1404 10.8298 33.0104 11.0198C33.0104 11.0198 28.4304 17.8298 26.9404 20.0898C26.4204 20.8198 25.7104 21.3798 24.9004 21.7298L26.6604 14.1398C26.7404 13.7898 26.6304 13.4298 26.3704 13.1898C26.1104 12.9498 25.7404 12.8598 25.4104 12.9498L22.7604 13.7098C22.2304 13.8598 21.9204 14.4198 22.0804 14.9498C22.2304 15.4798 22.7904 15.7898 23.3204 15.6298L24.3304 15.3398L22.5904 22.8598C22.5204 23.1698 22.6004 23.4998 22.8104 23.7498C23.0004 23.9698 23.2804 24.0898 23.5604 24.0898C23.5904 24.0898 23.6304 24.0898 23.6604 24.0898C25.6404 23.8898 27.4304 22.8598 28.6004 21.2198C29.9104 19.2198 33.5704 13.7798 34.4704 12.4398C36.3304 11.9098 44.9904 9.41976 45.9304 9.14976C46.4604 8.99976 46.7604 8.43976 46.6104 7.90976L46.5904 7.91976ZM20.7704 4.71976C21.3604 4.57976 21.9704 4.59976 22.5304 4.77976L28.3304 6.99976L24.3404 8.11976C23.7604 7.57976 22.0604 5.98976 20.7604 4.71976H20.7704Z" fill="#323232"/>
<path d="M38.5697 28.9998C38.3597 28.2098 37.8597 26.3598 36.1497 25.3898C34.9097 24.6898 33.3197 24.5998 31.4297 25.1398L23.5897 27.3498C23.5897 27.3498 23.5797 27.3498 23.5697 27.3398L15.2397 24.1598C13.6497 23.6398 11.8797 23.8998 10.5097 24.8598C10.2697 25.0298 10.1097 25.2898 10.0897 25.5898C10.0697 25.8898 10.1597 26.1698 10.3697 26.3798C11.2897 27.3298 13.0097 28.9598 14.1397 30.0198L10.6497 30.9998C10.1197 31.1498 9.80967 31.6998 9.95967 32.2298C10.1097 32.7598 10.6597 33.0798 11.1897 32.9198L31.9797 27.0598C33.3397 26.6798 34.4197 26.6998 35.1697 27.1298C35.8397 27.5098 36.1997 28.1798 36.4197 28.7698C33.5097 29.6098 25.5897 31.8798 25.5897 31.8798C25.3597 31.9398 25.1697 32.0898 25.0397 32.2798C24.9897 32.3498 20.4397 39.1098 18.9697 41.3498C18.4497 42.0798 17.7397 42.6398 16.9297 42.9898L18.6897 35.3998C18.7697 35.0498 18.6597 34.6898 18.3997 34.4498C18.1397 34.2098 17.7797 34.1198 17.4397 34.2098L14.7897 34.9698C14.2597 35.1198 13.9497 35.6798 14.1097 36.2098C14.2597 36.7398 14.8197 37.0498 15.3497 36.8898L16.3597 36.5998L14.6197 44.1198C14.5497 44.4298 14.6297 44.7598 14.8397 45.0098C15.0297 45.2298 15.3097 45.3498 15.5897 45.3498C15.6197 45.3498 15.6597 45.3498 15.6897 45.3498C17.6697 45.1498 19.4597 44.1198 20.6297 42.4798C21.9297 40.4898 25.5997 35.0398 26.4997 33.6998C28.3597 33.1698 37.0197 30.6798 37.9597 30.4098C38.4897 30.2598 38.7897 29.6998 38.6397 29.1698L38.5897 28.9898L38.5697 28.9998ZM12.7997 25.9798C13.3897 25.8398 13.9997 25.8598 14.5597 26.0398L20.3597 28.2598L16.3697 29.3798C15.7897 28.8398 14.0897 27.2498 12.7897 25.9798H12.7997Z" fill="#323232"/>
</svg>
