<svg width="48" height="48" viewBox="0 0 48 48" fill="none" xmlns="http://www.w3.org/2000/svg">
<path d="M44.25 6.19035H34.45V4.36035C34.45 3.81035 34 3.36035 33.45 3.36035C32.9 3.36035 32.45 3.81035 32.45 4.36035V6.19035H25V4.36035C25 3.81035 24.55 3.36035 24 3.36035C23.45 3.36035 23 3.81035 23 4.36035V6.19035H15.55V4.36035C15.55 3.81035 15.1 3.36035 14.55 3.36035C14 3.36035 13.55 3.81035 13.55 4.36035V6.19035H3.75C3.2 6.19035 2.75 6.64035 2.75 7.19035V43.6404C2.75 44.1903 3.2 44.6404 3.75 44.6404H44.25C44.8 44.6404 45.25 44.1903 45.25 43.6404V7.19035C45.25 6.64035 44.8 6.19035 44.25 6.19035ZM32.45 8.19035V10.6104H25V8.19035H32.45ZM33.45 15.0704C34 15.0704 34.45 14.6204 34.45 14.0704V12.6104H38.99V38.2204H9.01V12.6104H13.55V14.0704C13.55 14.6204 14 15.0704 14.55 15.0704C15.1 15.0704 15.55 14.6204 15.55 14.0704V12.6104H23V14.0704C23 14.6204 23.45 15.0704 24 15.0704C24.55 15.0704 25 14.6204 25 14.0704V12.6104H32.45V14.0704C32.45 14.6204 32.9 15.0704 33.45 15.0704ZM23 8.19035V10.6104H15.55V8.19035H23ZM43.25 42.6404H4.75V8.19035H13.55V10.6104H8.01C7.46 10.6104 7.01 11.0604 7.01 11.6104V39.2204C7.01 39.7704 7.46 40.2204 8.01 40.2204H39.98C40.53 40.2204 40.98 39.7704 40.98 39.2204V11.6104C40.98 11.0604 40.53 10.6104 39.98 10.6104H34.44V8.19035H43.24V42.6404H43.25Z" fill="#323232"/>
<path d="M25.1401 20.3503C25.1401 19.3603 24.3401 18.5703 23.3601 18.5703C22.3801 18.5703 21.5801 19.3703 21.5801 20.3503C21.5801 21.3303 22.3801 22.1303 23.3601 22.1303C24.3401 22.1303 25.1401 21.3303 25.1401 20.3503Z" fill="#323232"/>
<path d="M18.6502 24.6501C19.5702 24.6501 20.3102 23.9001 20.3102 22.9901C20.3102 22.0801 19.5602 21.3301 18.6502 21.3301C17.7402 21.3301 16.9902 22.0801 16.9902 22.9901C16.9902 23.9001 17.7402 24.6501 18.6502 24.6501Z" fill="#323232"/>
<path d="M17.77 27.0596C17.07 27.0596 16.5 27.6296 16.5 28.3296C16.5 29.0296 17.07 29.5996 17.77 29.5996C18.47 29.5996 19.04 29.0296 19.04 28.3296C19.04 27.6296 18.47 27.0596 17.77 27.0596Z" fill="#323232"/>
<path d="M20.4005 31.1602C19.7505 31.1602 19.2305 31.6802 19.2305 32.3302C19.2305 32.9802 19.7505 33.5002 20.4005 33.5002C21.0505 33.5002 21.5705 32.9802 21.5705 32.3302C21.5705 31.6802 21.0505 31.1602 20.4005 31.1602Z" fill="#323232"/>
<path d="M25.6602 32.3301C25.0102 32.3301 24.4902 32.8501 24.4902 33.5001C24.4902 34.1501 25.0102 34.6701 25.6602 34.6701C26.3102 34.6701 26.8302 34.1501 26.8302 33.5001C26.8302 32.8501 26.3102 32.3301 25.6602 32.3301Z" fill="#323232"/>
<path d="M30.0402 29.4102C29.5602 29.4102 29.1602 29.8002 29.1602 30.2902C29.1602 30.7802 29.5502 31.1702 30.0402 31.1702C30.5302 31.1702 30.9202 30.7802 30.9202 30.2902C30.9202 29.8002 30.5302 29.4102 30.0402 29.4102Z" fill="#323232"/>
<path d="M30.9101 24.7305C30.5901 24.7305 30.3301 24.9905 30.3301 25.3105C30.3301 25.6305 30.5901 25.8905 30.9101 25.8905C31.2301 25.8905 31.4901 25.6305 31.4901 25.3105C31.4901 24.9905 31.2301 24.7305 30.9101 24.7305Z" fill="#323232"/>
</svg>
