<svg width="135" height="30" viewBox="0 0 135 30" fill="none" xmlns="http://www.w3.org/2000/svg">
<path d="M11.3316 29.8239H41.7721L17.3756 5.32173C14.1245 2.07944 9.71924 0.141113 5.12012 0.141113H0.0187988L0.397653 1.13671L2.08928 5.56843L11.3316 29.8151V29.8239Z" fill="url(#paint0_linear_15605_2510)"/>
<path d="M2.08933 5.57725C5.41973 11.2689 14.1686 11.868 15.1202 20.7138C15.1554 21.075 15.4374 21.3658 15.7986 21.4275C20.8382 22.2116 25.7457 24.2909 30.01 27.7094C30.01 27.7094 30.0717 27.7447 30.107 27.7447C30.1422 27.7447 30.1863 27.727 30.2127 27.7006C30.2744 27.6389 30.2744 27.5508 30.2127 27.4891C27.2611 24.3878 23.6488 21.9032 19.5959 20.2733L18.3625 19.7799C17.7281 19.5244 17.2876 18.8988 17.3052 18.1764C17.3757 15.5332 23.6312 16.0706 24.2567 14.8019L24.3625 14.5817C23.0761 13.4803 21.5431 12.6521 19.8603 12.194C19.8426 12.2557 19.8074 12.564 20.151 13.1279C20.5211 13.7358 19.7457 14.6962 18.6092 13.6565L18.5122 13.5684C10.0805 5.81513 3.74572 9.83276 0.397705 1.13672L2.08933 5.56844V5.57725Z" fill="white"/>
<path d="M22.4064 14.4319C22.4064 14.4319 21.0232 14.5024 20.1686 13.1191C20.4241 13.5332 20.1421 14.1059 19.5782 14.1147V16.2205C20.4857 15.9561 21.5254 15.7976 22.3976 15.6125V14.4407L22.4064 14.4319Z" fill="url(#paint1_linear_15605_2510)"/>
<path d="M16.847 21.6121C21.5166 22.5108 26.0453 24.5284 30.01 27.709C21.1642 20.1496 17.129 21.5152 16.847 21.6121Z" fill="url(#paint2_linear_15605_2510)"/>
<path d="M3.86907 5.97372C2.49462 4.99575 1.33163 3.55963 0.397705 1.13672L2.08933 5.56844C5.41973 11.2601 14.1686 11.8592 15.1202 20.705C14.1598 9.40985 9.19947 11.1015 3.86907 5.96491V5.97372Z" fill="url(#paint3_linear_15605_2510)"/>
<path d="M70.7589 7.92071C70.7589 9.40088 70.1333 10.5198 69.1377 11.0749L70.6972 13.5683H69.2787L67.9836 11.4273C67.8162 11.4626 67.6488 11.4802 67.4637 11.4802C65.5078 11.4802 64.1686 10.1057 64.1686 7.92071V3.55947C64.1686 1.37445 65.4549 0 67.4637 0C69.4725 0 70.7589 1.37445 70.7589 3.55947V7.92071ZM65.3228 7.95595C65.3228 9.31278 66.0981 10.3172 67.4549 10.3172C68.8118 10.3172 69.5783 9.31278 69.5783 7.95595V3.52423C69.5783 2.1674 68.8118 1.163 67.4549 1.163C66.0981 1.163 65.3228 2.1674 65.3228 3.52423V7.95595Z" fill="#323232"/>
<path d="M73.5078 11.3129L76.7061 0.16748H77.8779L81.1114 11.3129H79.9043L79.173 8.74898H75.3581L74.6444 11.3129H73.499H73.5078ZM75.6752 7.63885H78.8911L77.2611 1.92078L75.6752 7.63885Z" fill="#323232"/>
<path d="M90.6708 11.3129H89.7104L85.358 2.69612V11.3129H84.2743V0.16748H85.3139L89.5871 8.65206V0.16748H90.6708V11.3129Z" fill="#323232"/>
<path d="M93.7633 0.16748H100.204V1.33929H97.5607V11.3129H96.3977V1.33929H93.7545V0.16748H93.7633Z" fill="#323232"/>
<path d="M101.649 11.3129L104.856 0.16748H106.028L109.261 11.3129H108.054L107.323 8.74898H103.508L102.794 11.3129H101.649ZM103.816 7.63885H107.032L105.402 1.92078L103.816 7.63885Z" fill="#323232"/>
<path d="M116.962 3.33921V3.06608C116.962 1.94714 116.248 1.0837 114.997 1.0837C113.746 1.0837 113.058 1.77974 113.058 2.76652C113.058 3.55066 113.543 4.10573 114.204 4.39648L115.851 5.14538C116.997 5.65639 118.274 6.3348 118.274 8.2467C118.274 10.1586 116.944 11.489 115.006 11.489C113.067 11.489 111.728 10.2819 111.728 8.35242V8.0793H112.873V8.4141C112.873 9.55066 113.649 10.3789 114.997 10.3789C116.345 10.3789 117.129 9.53304 117.129 8.39648C117.129 7.18943 116.354 6.71366 115.42 6.30837L114.001 5.6652C112.873 5.17181 111.939 4.36123 111.939 2.86344C111.939 1.18062 113.164 0 114.988 0C116.812 0 118.089 1.20705 118.089 3.13656V3.33921H116.962Z" fill="#323232"/>
<path d="M69.1201 21.8416V21.5685C69.1201 20.4496 68.4064 19.5861 67.1553 19.5861C65.9042 19.5861 65.217 20.2822 65.217 21.269C65.217 22.0531 65.7016 22.6082 66.3624 22.8989L68.0099 23.6478C69.1553 24.1588 70.4329 24.8372 70.4329 26.7491C70.4329 28.661 69.1025 29.9914 67.1641 29.9914C65.2258 29.9914 63.8866 28.7844 63.8866 26.8549V26.5817H65.032V26.9165C65.032 28.0531 65.8073 28.8813 67.1553 28.8813C68.5033 28.8813 69.2875 28.0355 69.2875 26.8989C69.2875 25.6919 68.5121 25.2161 67.5782 24.8108L66.1597 24.1676C65.032 23.6742 64.0981 22.8637 64.0981 21.3659C64.0981 19.6831 65.3227 18.5024 67.1465 18.5024C68.9703 18.5024 70.2478 19.7095 70.2478 21.639V21.8416H69.1201Z" fill="#323232"/>
<path d="M80.4153 29.8148H79.2435V24.7047H75.1377V29.8148H73.9747V18.6694H75.1377V23.5417H79.2435V18.6694H80.4153V29.8148Z" fill="#323232"/>
<path d="M90.4946 26.4231C90.4946 28.6082 89.1554 29.9826 87.1994 29.9826C85.2435 29.9826 83.9043 28.6082 83.9043 26.4231V22.0619C83.9043 19.8769 85.1906 18.5024 87.1994 18.5024C89.2083 18.5024 90.4946 19.8769 90.4946 22.0619V26.4231ZM85.0585 26.4584C85.0585 27.8152 85.8338 28.8196 87.1906 28.8196C88.5475 28.8196 89.314 27.8152 89.314 26.4584V22.0267C89.314 20.6698 88.5475 19.6654 87.1906 19.6654C85.8338 19.6654 85.0585 20.6698 85.0585 22.0267V26.4584Z" fill="#323232"/>
<path d="M93.9747 18.6694H97.0408C99.0056 18.6694 100.424 20.0615 100.424 22.2113C100.424 24.3611 99.0056 25.8236 97.0408 25.8236H95.1377V29.8148H93.9747V18.6694ZM95.1377 19.806V24.6959H96.9703C98.3712 24.6959 99.2435 23.7091 99.2435 22.2377C99.2435 20.7663 98.3712 19.8148 96.9703 19.8148H95.1377V19.806Z" fill="#323232"/>
<path d="M103.807 18.6694H106.873C108.838 18.6694 110.257 20.0615 110.257 22.2113C110.257 24.3611 108.838 25.8236 106.873 25.8236H104.962V29.8148H103.799V18.6694H103.807ZM104.962 19.806V24.6959H106.794C108.195 24.6959 109.067 23.7091 109.067 22.2377C109.067 20.7663 108.195 19.8148 106.794 19.8148H104.962V19.806Z" fill="#323232"/>
<path d="M114.794 29.8148H113.631V18.6694H114.794V29.8148Z" fill="#323232"/>
<path d="M125.252 29.8148H124.292L119.94 21.1981V29.8148H118.856V18.6694H119.895L124.169 27.154V18.6694H125.252V29.8148Z" fill="#323232"/>
<path d="M132.283 24.3703H135.243V26.6082C135.243 28.6963 133.948 29.9826 132.028 29.9826C130.107 29.9826 128.732 28.6082 128.732 26.4231V22.0619C128.732 19.8769 130.045 18.5024 132.028 18.5024C134.01 18.5024 135.243 19.7271 135.243 21.7095V21.965H134.125V21.6742C134.125 20.5201 133.376 19.6742 132.019 19.6742C130.662 19.6742 129.878 20.6787 129.878 22.0355V26.4672C129.878 27.824 130.653 28.8284 132.019 28.8284C133.384 28.8284 134.151 27.9121 134.151 26.661V25.4364H132.274V24.3879L132.283 24.3703Z" fill="#323232"/>
<path d="M53.1201 0.0351562V29.9999" stroke="#323232" stroke-width="0.666551" stroke-miterlimit="10"/>
<defs>
<linearGradient id="paint0_linear_15605_2510" x1="26.4769" y1="29.7094" x2="6.16858" y2="0.0618189" gradientUnits="userSpaceOnUse">
<stop stop-color="#BE0000"/>
<stop offset="0.39" stop-color="#DD0000"/>
<stop offset="0.77" stop-color="#F60000"/>
<stop offset="1" stop-color="#FF0000"/>
</linearGradient>
<linearGradient id="paint1_linear_15605_2510" x1="20.8646" y1="16.3262" x2="21.1377" y2="13.1984" gradientUnits="userSpaceOnUse">
<stop offset="0.65" stop-color="white" stop-opacity="0"/>
<stop offset="0.69" stop-color="#ECECEC" stop-opacity="0.0529"/>
<stop offset="0.76" stop-color="#D6D6D6" stop-opacity="0.25"/>
<stop offset="0.81" stop-color="#C5C5C5" stop-opacity="0.5184"/>
<stop offset="0.87" stop-color="#B9B9B9" stop-opacity="0.7569"/>
<stop offset="0.91" stop-color="#B1B1B1" stop-opacity="0.9409"/>
<stop offset="0.95" stop-color="#AFAFAF"/>
</linearGradient>
<linearGradient id="paint2_linear_15605_2510" x1="16.847" y1="24.5813" x2="30.01" y2="24.5813" gradientUnits="userSpaceOnUse">
<stop stop-color="white" stop-opacity="0"/>
<stop offset="0.07" stop-color="#F3F3F3" stop-opacity="0.0225"/>
<stop offset="0.21" stop-color="#DEDEDE" stop-opacity="0.1681"/>
<stop offset="0.35" stop-color="#CDCDCD" stop-opacity="0.3844"/>
<stop offset="0.49" stop-color="#C0C0C0" stop-opacity="0.6241"/>
<stop offset="0.63" stop-color="#B6B6B6" stop-opacity="0.8281"/>
<stop offset="0.77" stop-color="#B0B0B0" stop-opacity="0.9604"/>
<stop offset="0.9" stop-color="#AFAFAF"/>
</linearGradient>
<linearGradient id="paint3_linear_15605_2510" x1="0.397705" y1="10.9253" x2="15.1202" y2="10.9253" gradientUnits="userSpaceOnUse">
<stop offset="0.25" stop-color="white" stop-opacity="0"/>
<stop offset="0.36" stop-color="#F6F6F6" stop-opacity="0.0121"/>
<stop offset="0.58" stop-color="#E0E0E0" stop-opacity="0.1444"/>
<stop offset="0.88" stop-color="#BDBDBD" stop-opacity="0.6724"/>
<stop offset="1" stop-color="#AFAFAF"/>
</linearGradient>
</defs>
</svg>
