<svg width="48" height="48" viewBox="0 0 48 48" fill="none" xmlns="http://www.w3.org/2000/svg">
<path d="M16.9299 34.7402C10.9999 34.7402 6.16992 29.9102 6.16992 23.9802C6.16992 18.0502 10.9999 13.2202 16.9299 13.2202C22.8599 13.2202 27.6899 18.0502 27.6899 23.9802C27.6899 29.9102 22.8599 34.7402 16.9299 34.7402ZM16.9299 15.2102C12.0999 15.2102 8.16992 19.1402 8.16992 23.9702C8.16992 28.8002 12.0999 32.7302 16.9299 32.7302C21.7599 32.7302 25.6899 28.8002 25.6899 23.9702C25.6899 19.1402 21.7599 15.2102 16.9299 15.2102Z" fill="#323232"/>
<path d="M18.0205 22.0899V21.8299C18.0205 21.1599 17.5805 20.6799 16.8905 20.6799C16.2005 20.6799 15.8105 21.0999 15.8105 21.6599C15.8105 21.9999 15.9605 22.4299 16.5105 22.6399L17.6805 23.0999C18.7205 23.5199 19.8505 24.0799 19.8505 25.7099C19.8505 27.1499 18.9305 28.1799 17.4905 28.3599V29.7199H16.2605V28.3299C14.8905 28.0999 13.9805 27.1699 13.9805 25.7999V25.4999H15.6405V25.8599C15.6405 26.5699 16.1105 26.9899 16.9205 26.9899C17.7305 26.9899 18.2005 26.5199 18.2005 25.8699C18.2005 25.3199 17.9205 24.9499 17.3605 24.7199L16.0905 24.2199C14.9305 23.7599 14.1605 23.0099 14.1605 21.7499C14.1605 20.5599 14.9305 19.5499 16.2505 19.3099V17.9399H17.4805V19.3099C18.7905 19.5299 19.6605 20.4699 19.6605 21.8599V22.0499H18.0005L18.0205 22.0899Z" fill="#323232"/>
<path d="M45.1595 40.3598C45.2595 40.1198 45.2595 39.8398 45.1595 39.5998C45.1095 39.4798 45.0395 39.3698 44.9395 39.2698L41.4095 35.7398C41.0195 35.3498 40.3895 35.3498 39.9995 35.7398C39.6095 36.1298 39.6095 36.7598 39.9995 37.1498L41.8195 38.9698H27.9395C27.3895 38.9698 26.9395 39.4198 26.9395 39.9698C26.9395 40.5198 27.3895 40.9698 27.9395 40.9698H41.8195L39.9995 42.7898C39.6095 43.1798 39.6095 43.8098 39.9995 44.1998C40.1995 44.3998 40.4495 44.4898 40.7095 44.4898C40.9695 44.4898 41.2195 44.3898 41.4195 44.1998L44.9495 40.6698C45.0395 40.5798 45.1195 40.4698 45.1695 40.3398L45.1595 40.3598Z" fill="#323232"/>
<path d="M18.6298 7.05006L20.4798 5.20006C20.8698 4.81006 20.8698 4.18006 20.4798 3.79006C20.0898 3.40006 19.4598 3.40006 19.0698 3.79006L15.5898 7.27006C15.1998 7.66006 15.1998 8.29006 15.5898 8.68006L19.0698 12.1601C19.2698 12.3601 19.5198 12.4501 19.7798 12.4501C20.0398 12.4501 20.2898 12.3501 20.4898 12.1601C20.8798 11.7701 20.8798 11.1401 20.4898 10.7501L18.8298 9.09006C26.2898 9.95006 32.0998 16.3001 32.0998 23.9801C32.0998 32.2501 25.3698 38.9801 17.0998 38.9801H3.75977C3.20977 38.9801 2.75977 39.4301 2.75977 39.9801C2.75977 40.5301 3.20977 40.9801 3.75977 40.9801H17.0798C26.4498 40.9801 34.0798 33.3501 34.0798 23.9801C34.0798 15.1301 27.2798 7.84006 18.6198 7.06006L18.6298 7.05006Z" fill="#8DE2E0"/>
</svg>
