<svg width="48" height="48" viewBox="0 0 48 48" fill="none" xmlns="http://www.w3.org/2000/svg">
<path d="M30.3891 23.05V18.79H27.5191L20.1191 35.85L23.4591 44.35C23.6591 44.87 24.3891 44.88 24.6091 44.37L32.6691 25.81C31.3591 25.54 30.4091 24.39 30.3991 23.05H30.3891Z" fill="#8DE2E0"/>
<path d="M35.6091 11.59C35.6291 11.39 35.6491 11.19 35.6491 10.98C35.6091 6.15 31.6591 2.25 26.8491 2.25C26.8191 2.25 26.7991 2.25 26.7691 2.25C24.2791 2.27 21.8991 3.38 20.2591 5.24C18.6991 4.88 17.0691 4.95 15.5191 5.47C13.2891 6.22 11.4791 7.79 10.4391 9.89C9.38912 11.99 9.21912 14.38 9.96912 16.61C10.5591 18.37 11.7191 19.91 13.2291 20.98L22.5191 44.68C22.7591 45.3 23.3491 45.7 24.0091 45.72H24.0391C24.6891 45.72 25.2791 45.34 25.5391 44.74L33.3291 26.8C35.4091 26.75 37.0791 25.06 37.0791 22.97V19.08H37.4991C38.0491 19.08 38.4991 18.63 38.4991 18.08C38.4991 15.51 37.3791 13.19 35.6191 11.58L35.6091 11.59ZM26.7891 4.25C30.2891 4.26 33.1791 6.84 33.5991 10.2C32.4191 9.61 31.0891 9.27 29.6891 9.27C28.4591 9.27 27.2991 9.52 26.2291 9.98C25.3991 8.26 24.0491 6.86 22.3291 5.98C23.5491 4.9 25.1391 4.26 26.7891 4.24V4.25ZM11.8591 15.98C11.2791 14.26 11.4091 12.41 12.2191 10.78C13.0291 9.15 14.4291 7.94 16.1491 7.36C17.5191 6.9 18.9591 6.89 20.3091 7.31C20.3391 7.31 20.3591 7.33 20.3891 7.34C20.7091 7.45 21.0291 7.57 21.3391 7.72C22.7491 8.42 23.8491 9.56 24.4891 10.98C22.3791 12.53 20.9791 14.99 20.8891 17.78H13.4291C13.2391 17.78 13.0591 17.84 12.8991 17.94C12.4491 17.35 12.0891 16.68 11.8491 15.97L11.8591 15.98ZM24.0491 43.14L14.9391 19.92L14.8891 19.79H29.3891V23.06C29.3991 24.45 30.1691 25.7 31.3291 26.37L24.0491 43.14ZM36.0691 17.09C35.5191 17.09 35.0691 17.54 35.0691 18.09V22.98C35.0691 23.99 34.2391 24.82 33.2291 24.82H32.7891C31.9791 24.62 31.3891 23.89 31.3891 23.06V18.8C31.3891 18.25 30.9391 17.8 30.3891 17.8H22.8891C23.0491 14.18 26.0291 11.29 29.6791 11.29C33.0891 11.29 35.9291 13.82 36.4091 17.1H36.0591L36.0691 17.09Z" fill="#323232"/>
</svg>
