<svg width="48" height="48" viewBox="0 0 48 48" fill="none" xmlns="http://www.w3.org/2000/svg">
<path d="M35.2503 35.6599C33.6303 35.6599 32.3203 37.1499 32.3203 38.9799C32.3203 40.8099 33.6403 42.2999 35.2503 42.2999C36.8603 42.2999 38.1803 40.8099 38.1803 38.9799C38.1803 37.1499 36.8703 35.6599 35.2503 35.6599ZM35.2503 40.2999C34.7403 40.2999 34.3203 39.6999 34.3203 38.9799C34.3203 38.2599 34.7503 37.6599 35.2503 37.6599C35.7503 37.6599 36.1803 38.2599 36.1803 38.9799C36.1803 39.6999 35.7503 40.2999 35.2503 40.2999Z" fill="#323232"/>
<path d="M40.6605 30.22C40.1105 30.22 39.6605 30.67 39.6605 31.22C39.6605 31.52 39.4205 31.77 39.1105 31.77C38.8005 31.77 38.5605 31.53 38.5605 31.22C38.5605 30.67 38.1105 30.22 37.5605 30.22C37.0105 30.22 36.5605 30.67 36.5605 31.22C36.5605 32.62 37.7005 33.77 39.1105 33.77C40.5205 33.77 41.6605 32.63 41.6605 31.22C41.6605 30.67 41.2105 30.22 40.6605 30.22Z" fill="#323232"/>
<path d="M33.9301 31.22C33.9301 30.67 33.4801 30.22 32.9301 30.22C32.3801 30.22 31.9301 30.67 31.9301 31.22C31.9301 31.52 31.6901 31.77 31.3801 31.77C31.0701 31.77 30.8301 31.53 30.8301 31.22C30.8301 30.67 30.3801 30.22 29.8301 30.22C29.2801 30.22 28.8301 30.67 28.8301 31.22C28.8301 32.62 29.9701 33.77 31.3801 33.77C32.7901 33.77 33.9301 32.63 33.9301 31.22Z" fill="#323232"/>
<path d="M33.2691 16.55C33.2691 17.1 33.7191 17.55 34.2691 17.55H36.2991L33.4191 20.43C33.1291 20.72 33.0491 21.15 33.1991 21.52C33.3491 21.89 33.7191 22.14 34.1191 22.14H38.6991C39.2491 22.14 39.6991 21.69 39.6991 21.14C39.6991 20.59 39.2491 20.14 38.6991 20.14H36.5291L39.4091 17.26C39.6991 16.97 39.7791 16.54 39.6291 16.17C39.4791 15.8 39.1091 15.55 38.7091 15.55H34.2591C33.7091 15.55 33.2591 16 33.2591 16.55H33.2691Z" fill="#323232"/>
<path d="M40.3905 18.09C40.5405 18.46 40.9105 18.71 41.3105 18.71H44.5105C45.0605 18.71 45.5105 18.26 45.5105 17.71C45.5105 17.16 45.0605 16.71 44.5105 16.71H43.7205L45.2105 15.22C45.5005 14.93 45.5805 14.5 45.4305 14.13C45.2805 13.76 44.9105 13.51 44.5105 13.51H41.4105C40.8605 13.51 40.4105 13.96 40.4105 14.51C40.4105 15.06 40.8605 15.51 41.4105 15.51H42.1005L40.6105 17C40.3205 17.29 40.2405 17.72 40.3905 18.09Z" fill="#323232"/>
<path d="M35.2508 24.3001C33.8308 24.3001 32.4808 24.5801 31.2408 25.0701L30.0408 15.7001L37.1608 8.58011C37.9108 7.83011 38.3208 6.83011 38.3208 5.77011C38.3208 4.71011 37.9108 3.71011 37.1608 2.96011C35.6108 1.41011 33.0908 1.41011 31.5408 2.96011L24.4308 10.0801L7.34081 7.90011C6.14081 7.74011 4.92081 8.17011 4.06081 9.02011L3.29081 9.79011C2.84081 10.2301 2.64081 10.8701 2.73081 11.4901C2.83081 12.1101 3.22081 12.6601 3.78081 12.9501L15.5208 18.9701L10.8008 23.6901L5.20081 22.9001C4.43081 22.7901 3.64081 23.0601 3.10081 23.6101L2.21081 24.5101C1.87081 24.8601 1.72081 25.3501 1.81081 25.8301C1.91081 26.3101 2.23081 26.7101 2.68081 26.9001C4.35081 27.6101 8.78081 29.4901 10.0508 30.0201L13.1908 37.4101C13.3808 37.8601 13.7808 38.1901 14.2608 38.2801C14.3608 38.3001 14.4508 38.3101 14.5508 38.3101C14.9308 38.3101 15.3108 38.1601 15.5908 37.8901L16.4908 37.0001C17.0408 36.4601 17.3108 35.6701 17.2008 34.9001L16.4108 29.3001L21.0908 24.5801L24.8308 31.8301C24.4808 32.9101 24.2808 34.0501 24.2808 35.2401C24.2808 41.2801 29.2008 46.2001 35.2408 46.2001C41.2808 46.2001 46.2008 41.2801 46.2008 35.2401C46.2008 29.2001 41.2808 24.2801 35.2408 24.2801L35.2508 24.3001ZM22.8808 23.6701C22.5908 23.1101 22.0508 22.7201 21.4308 22.6201C20.8108 22.5201 20.1708 22.7301 19.7308 23.1801L14.8208 28.0901C14.5008 28.4101 14.3408 28.8801 14.4008 29.3301L15.2208 35.1901C15.2408 35.3401 15.1908 35.4801 15.0908 35.5901L14.7408 35.9401L11.9008 29.2501C11.7008 28.7801 11.3308 28.4101 10.8608 28.2101C9.72081 27.7301 6.15081 26.2101 4.17081 25.3701L4.52081 25.0201C4.62081 24.9101 4.76081 24.8601 4.92081 24.8901L10.7808 25.7101C11.2408 25.7701 11.7008 25.6201 12.0208 25.2901L16.9308 20.3801C17.3808 19.9401 17.5808 19.3001 17.4908 18.6801C17.3908 18.0601 17.0008 17.5101 16.4408 17.2301L4.70081 11.2101L5.48081 10.4401C5.90081 10.0201 6.50081 9.82011 7.09081 9.89011L24.1908 12.0601C24.8008 12.1401 25.4108 11.9301 25.8408 11.5001L32.9608 4.38011C33.7108 3.63011 35.0108 3.63011 35.7508 4.38011C36.5208 5.15011 36.5208 6.40011 35.7508 7.17011L28.6308 14.2901C28.2008 14.7201 27.9908 15.3401 28.0708 15.9401L29.3608 26.0501C27.9708 26.9501 26.8008 28.1501 25.9308 29.5601L22.9008 23.6801L22.8808 23.6701ZM35.2508 44.2101C30.3108 44.2101 26.2908 40.1901 26.2908 35.2501C26.2908 30.3101 30.3108 26.2901 35.2508 26.2901C40.1908 26.2901 44.2108 30.3101 44.2108 35.2501C44.2108 40.1901 40.1908 44.2101 35.2508 44.2101Z" fill="#323232"/>
</svg>
