<svg width="48" height="48" viewBox="0 0 48 48" fill="none" xmlns="http://www.w3.org/2000/svg">
<path fill-rule="evenodd" clip-rule="evenodd" d="M28.9893 21.2202H29.0093C29.0293 21.2202 29.0293 21.2202 29.0493 21.2002C29.0693 21.1802 29.0693 21.1502 29.0493 21.1402C28.1293 20.1302 26.9993 19.3102 25.7393 18.7902L25.3493 18.6302C25.1493 18.5402 25.0193 18.3402 25.0193 18.1102C25.0393 17.2502 26.9893 17.4202 27.1993 17.0102L27.2293 16.9402C26.8293 16.5802 26.3493 16.3102 25.8293 16.1602C25.8293 16.1802 25.8093 16.2802 25.9093 16.4702C26.0293 16.6602 25.7893 16.9802 25.4293 16.6402L25.3993 16.6202C22.8093 14.1502 21.6193 15.7802 19.8593 12.9102C19.8393 12.8902 19.8193 12.8802 19.7993 12.8902C19.7793 12.9102 19.7693 12.9302 19.7793 12.9602C21.1693 16.4402 23.9993 15.7102 24.3293 18.9502C24.3493 19.0702 24.4293 19.1702 24.5493 19.1802C26.1193 19.4402 27.6493 20.1202 28.9893 21.2302" fill="#DF0000"/>
<path d="M17.6699 22.3599H19.0299C19.8099 22.3599 20.3799 22.8599 20.3799 23.6199C20.3799 24.4199 19.8099 24.9299 19.0299 24.9299H18.4099V26.2599H17.6699V22.3599ZM18.4199 23.0099V24.2899H18.9699C19.3799 24.2899 19.6299 24.0399 19.6299 23.6499C19.6299 23.2599 19.3799 23.0099 18.9699 23.0099H18.4199Z" fill="#DF0000"/>
<path d="M22.6192 26.2599L22.0592 24.8299H21.4392V26.2599H20.6992V22.3599H22.0692C22.8392 22.3599 23.4092 22.8399 23.4092 23.5699C23.4092 24.0699 23.1692 24.4499 22.7892 24.6599L23.4292 26.2599H22.6192ZM21.4392 23.0099V24.1899H21.9892C22.3992 24.1899 22.6492 23.9599 22.6492 23.5999C22.6492 23.2399 22.3992 23.0199 21.9892 23.0199H21.4392V23.0099Z" fill="#DF0000"/>
<path d="M24.5603 26.2599H23.8203V22.3599H24.5603V26.2599Z" fill="#DF0000"/>
<path d="M27.7195 24.9298V25.0398C27.7195 25.8298 27.1895 26.3198 26.3895 26.3198C25.5895 26.3198 25.0195 25.8198 25.0195 25.0198V23.5998C25.0195 22.7998 25.5095 22.2998 26.3895 22.2998C27.1795 22.2998 27.7195 22.7898 27.7195 23.5798V23.6698H27.0095V23.5798C27.0095 23.2098 26.7795 22.9598 26.3795 22.9598C25.9795 22.9598 25.7695 23.2198 25.7695 23.6098V25.0098C25.7695 25.3998 25.9995 25.6598 26.3795 25.6598C26.7795 25.6598 27.0095 25.4098 27.0095 25.0398V24.9298H27.7195Z" fill="#DF0000"/>
<path d="M28.8806 24.6096V25.5996H30.5706V26.2696H28.1406V22.3696H30.5206V23.0396H28.8906V23.9696H30.3506V24.6196H28.8906L28.8806 24.6096Z" fill="#DF0000"/>
<path d="M14.3301 27.1899H15.6901C16.4701 27.1899 17.0401 27.6899 17.0401 28.4499C17.0401 29.2499 16.4701 29.7599 15.6901 29.7599H15.0701V31.0899H14.3301V27.1899ZM15.0701 27.8399V29.1199H15.6201C16.0301 29.1199 16.2801 28.8699 16.2801 28.4799C16.2801 28.0899 16.0301 27.8399 15.6201 27.8399H15.0701Z" fill="#DF0000"/>
<path d="M19.2794 31.0899L18.7194 29.6599H18.0994V31.0899H17.3594V27.1899H18.7294C19.4994 27.1899 20.0694 27.6699 20.0694 28.3999C20.0694 28.8999 19.8294 29.2799 19.4494 29.4899L20.0894 31.0899H19.2794ZM18.0994 27.8399V29.0199H18.6494C19.0594 29.0199 19.3094 28.7899 19.3094 28.4299C19.3094 28.0699 19.0594 27.8499 18.6494 27.8499H18.0994V27.8399Z" fill="#DF0000"/>
<path d="M23.1191 29.8499C23.1191 30.6499 22.5591 31.1499 21.7491 31.1499C20.9391 31.1499 20.3691 30.6499 20.3691 29.8499V28.4299C20.3691 27.6299 20.8591 27.1299 21.7491 27.1299C22.5591 27.1299 23.1191 27.6299 23.1191 28.4299V29.8499ZM21.1091 29.8399C21.1091 30.2299 21.3391 30.4899 21.7491 30.4899C22.1591 30.4899 22.3791 30.2299 22.3791 29.8399V28.4399C22.3791 28.0499 22.1491 27.7899 21.7491 27.7899C21.3491 27.7899 21.1091 28.0499 21.1091 28.4399V29.8399Z" fill="#DF0000"/>
<path d="M24.2798 28.6497V31.0997H23.5898V27.1997H24.2198L25.1498 28.8997L26.0698 27.1997H26.6998V31.0997H25.9798V28.6697L25.3398 29.8197H24.9098L24.2598 28.6497H24.2798Z" fill="#DF0000"/>
<path d="M28.031 31.0899H27.291V27.1899H28.031V31.0899Z" fill="#DF0000"/>
<path d="M30.2904 28.3699V28.2599C30.2904 27.9599 30.0704 27.7499 29.7304 27.7499C29.3904 27.7499 29.2004 27.9299 29.2004 28.1799C29.2004 28.3299 29.2804 28.5199 29.5704 28.6199L30.1204 28.8199C30.6104 28.9999 31.1004 29.2399 31.1004 29.9599C31.1004 30.6799 30.5704 31.1499 29.7704 31.1499C28.9704 31.1499 28.4004 30.7099 28.4004 29.9999V29.8699H29.1304V30.0299C29.1304 30.3399 29.3604 30.5299 29.7504 30.5299C30.1604 30.5299 30.3804 30.3199 30.3804 30.0399C30.3804 29.7999 30.2404 29.6299 29.9504 29.5299L29.3604 29.2999C28.8104 29.0999 28.4904 28.7799 28.4904 28.2299C28.4904 27.6299 28.9604 27.1299 29.7404 27.1299C30.5204 27.1299 31.0304 27.5699 31.0304 28.2799V28.3599H30.3104L30.2904 28.3699Z" fill="#DF0000"/>
<path d="M32.2302 29.4397V30.4297H33.9202V31.0997H31.4902V27.1997H33.8602V27.8697H32.2302V28.7997H33.6902V29.4497H32.2302V29.4397Z" fill="#DF0000"/>
<path d="M23.9997 44.8202C23.1597 44.8202 22.3297 44.5702 21.5997 44.0702L19.7397 42.8002C19.3197 42.5102 18.7997 42.3702 18.2997 42.4102L16.0497 42.5802C14.2897 42.7202 12.6497 41.7702 11.8897 40.1802L10.9097 38.1502C10.6897 37.6902 10.3097 37.3102 9.84969 37.0902L7.81969 36.1102C6.22969 35.3402 5.27969 33.7102 5.41969 31.9502L5.58969 29.7002C5.62969 29.1902 5.48969 28.6802 5.19969 28.2502L3.92969 26.3902C2.92969 24.9302 2.92969 23.0402 3.92969 21.5802L5.19969 19.7202C5.48969 19.3002 5.62969 18.7802 5.58969 18.2802L5.41969 16.0302C5.28969 14.2702 6.22969 12.6302 7.81969 11.8702L9.84969 10.8902C10.3097 10.6702 10.6897 10.2902 10.9097 9.83016L11.8897 7.80016C12.6597 6.21016 14.2897 5.26016 16.0497 5.40016L18.2997 5.57016C18.8097 5.61016 19.3197 5.47016 19.7497 5.18016L21.6097 3.91016C23.0697 2.91016 24.9597 2.91016 26.4197 3.91016L28.2797 5.18016C28.6997 5.47016 29.2197 5.61016 29.7197 5.57016L31.9697 5.40016C33.7297 5.27016 35.3697 6.21016 36.1297 7.80016L37.1097 9.83016C37.3297 10.2902 37.7097 10.6702 38.1697 10.8902L40.1997 11.8702C41.7897 12.6402 42.7397 14.2702 42.5997 16.0302L42.4297 18.2802C42.3897 18.7902 42.5297 19.3002 42.8197 19.7302L44.0897 21.5902C45.0897 23.0502 45.0897 24.9402 44.0897 26.4002L42.8197 28.2602C42.5297 28.6802 42.3897 29.2002 42.4297 29.7002L42.5997 31.9502C42.7297 33.7102 41.7897 35.3502 40.1997 36.1102L38.1697 37.0902C37.7097 37.3102 37.3297 37.6902 37.1097 38.1502L36.1297 40.1802C35.3597 41.7702 33.7297 42.7102 31.9697 42.5802L29.7197 42.4102C29.1997 42.3702 28.6997 42.5102 28.2697 42.8002L26.4097 44.0702C25.6797 44.5702 24.8397 44.8202 24.0097 44.8202H23.9997ZM18.4597 40.4102C19.3097 40.4102 20.1597 40.6702 20.8597 41.1502L22.7197 42.4202C23.4897 42.9502 24.4997 42.9502 25.2697 42.4202L27.1297 41.1502C27.9297 40.6102 28.8997 40.3502 29.8497 40.4202L32.0997 40.5902C33.0297 40.6502 33.8997 40.1602 34.3097 39.3102L35.2897 37.2802C35.7097 36.4102 36.4197 35.7002 37.2797 35.2902L39.3097 34.3102C40.1497 33.9002 40.6597 33.0402 40.5797 32.1002L40.4097 29.8502C40.3397 28.8902 40.5997 27.9202 41.1397 27.1302L42.4097 25.2702C42.9397 24.5002 42.9397 23.4902 42.4097 22.7202L41.1397 20.8602C40.5997 20.0602 40.3397 19.1002 40.4097 18.1402L40.5797 15.8902C40.6497 14.9502 40.1497 14.0902 39.2997 13.6802L37.2697 12.7002C36.3997 12.2802 35.6897 11.5702 35.2797 10.7102L34.2997 8.68016C33.8897 7.83016 33.0197 7.33016 32.0897 7.41016L29.8397 7.58016C28.8797 7.66016 27.9097 7.39016 27.1197 6.85016L25.2597 5.58016C24.4897 5.05016 23.4797 5.05016 22.7097 5.58016L20.8497 6.85016C20.0497 7.39016 19.0897 7.66016 18.1297 7.58016L15.8797 7.41016C14.9497 7.34016 14.0797 7.84016 13.6697 8.69016L12.6897 10.7202C12.2697 11.5902 11.5597 12.3002 10.6997 12.7102L8.66969 13.6902C7.82969 14.1002 7.31969 14.9602 7.39969 15.9002L7.56969 18.1502C7.63969 19.1102 7.37969 20.0802 6.83969 20.8702L5.56969 22.7302C5.03969 23.5002 5.03969 24.5102 5.56969 25.2802L6.83969 27.1402C7.37969 27.9402 7.63969 28.9002 7.56969 29.8602L7.39969 32.1102C7.32969 33.0502 7.82969 33.9102 8.67969 34.3202L10.7097 35.3002C11.5797 35.7202 12.2897 36.4302 12.6997 37.2902L13.6797 39.3202C14.0897 40.1602 14.9597 40.6602 15.8897 40.5902L18.1397 40.4202C18.2497 40.4202 18.3497 40.4102 18.4597 40.4102Z" fill="#323232"/>
<path d="M24.3189 39.6901C15.6689 39.6901 8.62891 32.6501 8.62891 24.0001C8.62891 15.3501 15.6689 8.31006 24.3189 8.31006C32.9689 8.31006 40.0089 15.3501 40.0089 24.0001C40.0089 32.6501 32.9689 39.6901 24.3189 39.6901ZM24.3189 10.3101C16.7689 10.3101 10.6289 16.4501 10.6289 24.0001C10.6289 31.5501 16.7689 37.6901 24.3189 37.6901C31.8689 37.6901 38.0089 31.5501 38.0089 24.0001C38.0089 16.4501 31.8689 10.3101 24.3189 10.3101Z" fill="#323232"/>
</svg>
