<svg width="48" height="48" viewBox="0 0 48 48" fill="none" xmlns="http://www.w3.org/2000/svg">
<path d="M13.3601 40.3101H2.83008C2.28008 40.3101 1.83008 39.8601 1.83008 39.3101C1.83008 38.7601 2.28008 38.3101 2.83008 38.3101H13.3601C13.9101 38.3101 14.3601 38.7601 14.3601 39.3101C14.3601 39.8601 13.9101 40.3101 13.3601 40.3101Z" fill="#8DE2E0"/>
<path d="M18.6296 35.1802H8.09961C7.54961 35.1802 7.09961 34.7302 7.09961 34.1802C7.09961 33.6302 7.54961 33.1802 8.09961 33.1802H18.6296C19.1796 33.1802 19.6296 33.6302 19.6296 34.1802C19.6296 34.7302 19.1796 35.1802 18.6296 35.1802Z" fill="#8DE2E0"/>
<path d="M23.8991 30.0498H13.3691C12.8191 30.0498 12.3691 29.5998 12.3691 29.0498C12.3691 28.4998 12.8191 28.0498 13.3691 28.0498H23.8991C24.4491 28.0498 24.8991 28.4998 24.8991 29.0498C24.8991 29.5998 24.4491 30.0498 23.8991 30.0498Z" fill="#323232"/>
<path d="M29.1609 24.9302H18.6309C18.0809 24.9302 17.6309 24.4802 17.6309 23.9302C17.6309 23.3802 18.0809 22.9302 18.6309 22.9302H29.1609C29.7109 22.9302 30.1609 23.3802 30.1609 23.9302C30.1609 24.4802 29.7109 24.9302 29.1609 24.9302Z" fill="#323232"/>
<path d="M34.4304 19.7998H23.9004C23.3504 19.7998 22.9004 19.3498 22.9004 18.7998C22.9004 18.2498 23.3504 17.7998 23.9004 17.7998H34.4304C34.9804 17.7998 35.4304 18.2498 35.4304 18.7998C35.4304 19.3498 34.9804 19.7998 34.4304 19.7998Z" fill="#323232"/>
<path d="M39.6902 14.6699H29.1602C28.6102 14.6699 28.1602 14.2199 28.1602 13.6699C28.1602 13.1199 28.6102 12.6699 29.1602 12.6699H39.6902C40.2402 12.6699 40.6902 13.1199 40.6902 13.6699C40.6902 14.2199 40.2402 14.6699 39.6902 14.6699Z" fill="#DF0000"/>
<path d="M44.9597 9.54004H34.4297C33.8797 9.54004 33.4297 9.09004 33.4297 8.54004C33.4297 7.99004 33.8797 7.54004 34.4297 7.54004H44.9597C45.5097 7.54004 45.9597 7.99004 45.9597 8.54004C45.9597 9.09004 45.5097 9.54004 44.9597 9.54004Z" fill="#DF0000"/>
<path d="M4.3498 33.0303C3.9598 33.0303 3.5798 32.8003 3.4298 32.4103C2.2098 29.4403 1.6498 26.3203 1.7698 23.1503C1.9898 17.2103 4.5098 11.7103 8.8598 7.6703C13.2098 3.6203 18.8598 1.5203 24.8198 1.7403C27.7298 1.8503 30.5598 2.5203 33.2298 3.7503C33.7298 3.9803 33.9498 4.5703 33.7198 5.0803C33.4898 5.5803 32.8898 5.8003 32.3898 5.5703C29.9598 4.4603 27.3898 3.8403 24.7398 3.7403C19.3398 3.5303 14.1798 5.4603 10.2098 9.1403C6.2498 12.8203 3.9498 17.8203 3.7498 23.2303C3.6398 26.1203 4.1498 28.9503 5.2598 31.6603C5.4698 32.1703 5.2298 32.7603 4.7198 32.9603C4.5998 33.0103 4.4698 33.0403 4.3398 33.0403L4.3498 33.0303Z" fill="#323232"/>
<path d="M24.0197 46.2207C23.7397 46.2207 23.4597 46.2207 23.1797 46.2007C20.0497 46.0807 17.0397 45.3207 14.2097 43.9307C13.7097 43.6907 13.5097 43.0907 13.7497 42.5907C13.9997 42.0907 14.5897 41.8907 15.0897 42.1307C17.6597 43.4007 20.4097 44.0907 23.2497 44.2007C28.6397 44.4007 33.8097 42.4806 37.7797 38.8006C41.7397 35.1206 44.0397 30.1207 44.2397 24.7107C44.3497 21.7907 43.8197 18.9307 42.6897 16.1907C42.4797 15.6807 42.7197 15.0907 43.2297 14.8807C43.7397 14.6707 44.3197 14.9107 44.5397 15.4207C45.7897 18.4207 46.3697 21.5707 46.2497 24.7807C46.0297 30.7207 43.5097 36.2206 39.1597 40.2606C35.0097 44.1106 29.6697 46.2106 24.0397 46.2106L24.0197 46.2207Z" fill="#323232"/>
</svg>
