<svg width="48" height="48" viewBox="0 0 48 48" fill="none" xmlns="http://www.w3.org/2000/svg">
<path d="M36.4396 28.0904V27.8104C36.4396 27.0804 35.9596 26.5704 35.2096 26.5704C34.4596 26.5704 34.0396 27.0204 34.0396 27.6404C34.0396 28.0104 34.1996 28.4704 34.7996 28.7104L36.0696 29.2104C37.1896 29.6604 38.4196 30.2804 38.4196 32.0404C38.4196 33.6004 37.4296 34.7104 35.8596 34.9204V36.3904H34.5296V34.8904C33.0396 34.6404 32.0596 33.6304 32.0596 32.1404V31.8204H33.8596V32.2104C33.8596 32.9804 34.3696 33.4404 35.2496 33.4404C36.1296 33.4404 36.6396 32.9304 36.6396 32.2304C36.6396 31.6304 36.3296 31.2404 35.7296 30.9904L34.3596 30.4504C33.0996 29.9504 32.2696 29.1404 32.2696 27.7804C32.2696 26.4904 33.0996 25.4004 34.5296 25.1404V23.6504H35.8596V25.1404C37.2796 25.3704 38.2296 26.4004 38.2296 27.9004V28.1104H36.4296L36.4396 28.0904Z" fill="#DF0000"/>
<path d="M20.8801 31.1402H15.4401C14.9701 31.1402 14.5801 30.7502 14.5801 30.2802V22.1202C14.5801 21.8902 14.6701 21.6702 14.8301 21.5102L17.5501 18.7902C17.8901 18.4502 18.4301 18.4502 18.7701 18.7902L21.4901 21.5102C21.6501 21.6702 21.7401 21.8902 21.7401 22.1202V30.2802C21.7401 30.7602 21.3501 31.1402 20.8801 31.1402Z" fill="#8DE2E0"/>
<path d="M22.64 37.4099H11.04V13.3199H17.16V15.9199C17.16 16.4699 17.61 16.9199 18.16 16.9199C18.71 16.9199 19.16 16.4699 19.16 15.9199V13.3199H41.11C41.8 13.3199 42.36 13.8799 42.36 14.5699V16.7899C42.36 17.3399 42.81 17.7899 43.36 17.7899C43.91 17.7899 44.36 17.3399 44.36 16.7899V14.5699C44.36 12.7799 42.9 11.3199 41.11 11.3199H29.95V7.81992C29.95 6.76992 29.1 5.91992 28.05 5.91992H19.06C18.01 5.91992 17.16 6.76992 17.16 7.81992V11.3199H6C4.21 11.3199 2.75 12.7799 2.75 14.5699V36.1599C2.75 37.9499 4.21 39.4099 6 39.4099H9.04V41.0699C9.04 41.6199 9.49 42.0699 10.04 42.0699C10.59 42.0699 11.04 41.6199 11.04 41.0699V39.4099H22.64C23.19 39.4099 23.64 38.9599 23.64 38.4099C23.64 37.8599 23.19 37.4099 22.64 37.4099ZM19.16 7.91992H27.95V11.3199H19.16V7.91992ZM6 37.4099C5.31 37.4099 4.75 36.8499 4.75 36.1599V14.5699C4.75 13.8799 5.31 13.3199 6 13.3199H9.04V37.4099H6Z" fill="#323232"/>
<path d="M42 19.39H38.95V17.69C38.95 16.64 38.1 15.79 37.05 15.79H33.45C32.4 15.79 31.55 16.64 31.55 17.69V19.39H28.5C26.71 19.39 25.25 20.85 25.25 22.64V37.03C25.25 38.79 26.65 40.21 28.4 40.27V41.08C28.4 41.63 28.85 42.08 29.4 42.08C29.95 42.08 30.4 41.63 30.4 41.08V40.28H40.09V41.08C40.09 41.63 40.54 42.08 41.09 42.08C41.64 42.08 42.09 41.63 42.09 41.08V40.27C43.83 40.22 45.24 38.79 45.24 37.03V22.64C45.24 20.85 43.78 19.39 41.99 19.39H42ZM33.56 17.79H36.96V19.39H33.56V17.79ZM43.25 37.03C43.25 37.72 42.69 38.28 42 38.28H28.51C27.82 38.28 27.26 37.72 27.26 37.03V22.64C27.26 21.95 27.82 21.39 28.51 21.39H32.55H37.95H41.99C42.68 21.39 43.24 21.95 43.24 22.64V37.03H43.25Z" fill="#323232"/>
</svg>
