<svg width="24" height="24" viewBox="0 0 24 24" fill="none" xmlns="http://www.w3.org/2000/svg">
<path fill-rule="evenodd" clip-rule="evenodd" d="M10.75 12C7.98772 12 5.75 9.76228 5.75 7C5.75 4.23772 7.98772 2 10.75 2C13.5123 2 15.75 4.23772 15.75 7C15.75 9.76228 13.5123 12 10.75 12ZM10.75 10C12.4077 10 13.75 8.65772 13.75 7C13.75 5.34228 12.4077 4 10.75 4C9.09228 4 7.75 5.34228 7.75 7C7.75 8.65772 9.09228 10 10.75 10ZM14.5802 13.5136C13.3451 13.1787 12.017 13 10.75 13C6.58098 13 1.75 14.9353 1.75 18V20H3.75V18C3.75 16.5399 7.594 15 10.75 15C11.4451 15 12.1735 15.0747 12.887 15.2068L14.5802 13.5136ZM20.85 14.25L15.72 19.42L13.65 17.34L12.25 18.75L15.72 22.25L22.25 15.66L20.85 14.25Z" fill="#323232"/>
</svg>
