<svg width="48" height="48" viewBox="0 0 48 48" fill="none" xmlns="http://www.w3.org/2000/svg">
<path d="M22.7617 46.25C11.3217 46.25 2.01172 36.94 2.01172 25.5C2.01172 14.06 11.3217 4.75 22.7617 4.75C23.3117 4.75 23.7617 5.2 23.7617 5.75C23.7617 6.3 23.3117 6.75 22.7617 6.75C12.4217 6.75 4.01172 15.16 4.01172 25.5C4.01172 35.84 12.4217 44.25 22.7617 44.25C33.1017 44.25 41.5117 35.84 41.5117 25.5C41.5117 25.2 41.5117 24.9 41.4917 24.6C41.4617 24.05 41.8917 23.58 42.4417 23.55C42.9917 23.55 43.4617 23.95 43.4917 24.5C43.5117 24.83 43.5117 25.16 43.5117 25.5C43.5117 36.94 34.2017 46.25 22.7617 46.25Z" fill="#323232"/>
<path d="M34.8986 23.93C28.7786 23.93 23.8086 18.95 23.8086 12.84C23.8086 6.73 28.7786 1.75 34.8986 1.75C41.0186 1.75 45.9886 6.73 45.9886 12.84C45.9886 18.95 41.0186 23.93 34.8986 23.93ZM34.8986 3.75C29.8886 3.75 25.8086 7.83 25.8086 12.84C25.8086 17.85 29.8886 21.93 34.8986 21.93C39.9086 21.93 43.9886 17.85 43.9886 12.84C43.9886 7.83 39.9086 3.75 34.8986 3.75Z" fill="#323232"/>
<path fill-rule="evenodd" clip-rule="evenodd" d="M31.8213 37.9397C31.8213 37.9397 31.8613 37.9597 31.8813 37.9597C31.9213 37.9597 31.9413 37.9597 31.9713 37.9197C32.0113 37.8797 32.0113 37.7997 31.9713 37.7597C29.7313 35.2997 26.9813 33.3197 23.9113 32.0397L22.9713 31.6497C22.4813 31.4297 22.1613 30.9397 22.1613 30.3697C22.2213 28.2697 26.9613 28.6997 27.4513 27.6997L27.5313 27.5197C26.5513 26.6397 25.4013 25.9897 24.1213 25.6197C24.1013 25.6797 24.0613 25.9097 24.3313 26.3697C24.6113 26.8397 24.0313 27.6097 23.1613 26.7797L23.0913 26.7197C16.8013 20.7097 13.9013 24.6797 9.63135 17.6897C9.59135 17.6297 9.54135 17.6097 9.48135 17.6497C9.42135 17.6897 9.41135 17.7497 9.42135 17.8097C12.7913 26.2797 19.6813 24.4897 20.4913 32.3797C20.5313 32.6697 20.7413 32.9097 21.0213 32.9497C24.8413 33.5797 28.5713 35.2297 31.8113 37.9397H31.8313" fill="#DF0000"/>
<path d="M39.9983 11.1399L35.8183 6.95992C35.6383 6.77992 35.3883 6.66992 35.1083 6.66992C34.8283 6.66992 34.5783 6.77992 34.3983 6.95992L30.2183 11.1399C29.8283 11.5299 29.8283 12.1599 30.2183 12.5499C30.6083 12.9399 31.2383 12.9399 31.6283 12.5499L34.1083 10.0699V18.0099C34.1083 18.5599 34.5583 19.0099 35.1083 19.0099C35.6583 19.0099 36.1083 18.5599 36.1083 18.0099V10.0699L38.5883 12.5499C38.7883 12.7499 39.0383 12.8399 39.2983 12.8399C39.5583 12.8399 39.8083 12.7399 40.0083 12.5499C40.3983 12.1599 40.3983 11.5299 40.0083 11.1399H39.9983Z" fill="#DF0000"/>
</svg>
