<svg width="196" height="30" viewBox="0 0 196 30" fill="none" xmlns="http://www.w3.org/2000/svg">
<path d="M148.075 7.97959C148.075 9.46876 147.446 10.5945 146.444 11.1529L148.013 13.6615H146.586L145.283 11.5075C145.115 11.543 144.946 11.5607 144.76 11.5607C142.792 11.5607 141.445 10.1779 141.445 7.97959V3.59185C141.445 1.39355 142.739 0.0107422 144.76 0.0107422C146.781 0.0107422 148.075 1.39355 148.075 3.59185V7.97959ZM142.615 8.01505C142.615 9.38012 143.395 10.3906 144.76 10.3906C146.125 10.3906 146.896 9.38012 146.896 8.01505V3.55639C146.896 2.19132 146.125 1.18081 144.76 1.18081C143.395 1.18081 142.615 2.19132 142.615 3.55639V8.01505Z" fill="#323232"/>
<path d="M150.841 11.3923L154.067 0.179199H155.246L158.499 11.3923H157.285L156.549 8.81285H152.711L151.993 11.3923H150.841ZM153.021 7.68711H156.257L154.617 1.9343L153.021 7.68711Z" fill="#323232"/>
<path d="M168.117 11.3923H167.151L162.772 2.7232V11.3923H161.682V0.179199H162.728L167.027 8.71535V0.179199H168.117V11.3923Z" fill="#323232"/>
<path d="M171.219 0.179199H177.699V1.35813H175.04V11.3923H173.87V1.34926H171.211V0.179199H171.219Z" fill="#323232"/>
<path d="M179.162 11.3923L182.388 0.179199H183.567L186.82 11.3923H185.606L184.87 8.81285H181.032L180.314 11.3923H179.162ZM181.342 7.68711H184.578L182.938 1.9343L181.342 7.68711Z" fill="#323232"/>
<path d="M194.559 3.37024V3.09546C194.559 1.96971 193.841 1.10103 192.582 1.10103C191.323 1.10103 190.632 1.8013 190.632 2.79408C190.632 3.58298 191.119 4.14142 191.784 4.43394L193.442 5.18739C194.594 5.70151 195.879 6.38405 195.879 8.30756C195.879 10.2311 194.541 11.5696 192.591 11.5696C190.641 11.5696 189.293 10.3552 189.293 8.41393V8.13914H190.446V8.47598C190.446 9.61945 191.226 10.4527 192.582 10.4527C193.938 10.4527 194.727 9.60172 194.727 8.45825C194.727 7.24387 193.947 6.7652 193.007 6.35745L191.58 5.71037C190.446 5.21398 189.506 4.39848 189.506 2.89158C189.506 1.19853 190.738 0.0107422 192.573 0.0107422C194.408 0.0107422 195.693 1.22513 195.693 3.16637V3.37024H194.559Z" fill="#323232"/>
<path d="M148.199 30.0071H147.02V24.8659H142.89V30.0071H141.72V18.7939H142.89V23.6958H147.02V18.7939H148.199V30.0071Z" fill="#323232"/>
<path d="M158.641 26.5943C158.641 28.7926 157.294 30.1754 155.326 30.1754C153.358 30.1754 152.011 28.7926 152.011 26.5943V22.2066C152.011 20.0083 153.305 18.6255 155.326 18.6255C157.347 18.6255 158.641 20.0083 158.641 22.2066V26.5943ZM153.181 26.6298C153.181 27.9949 153.961 29.0054 155.326 29.0054C156.691 29.0054 157.462 27.9949 157.462 26.6298V22.1711C157.462 20.8061 156.691 19.7956 155.326 19.7956C153.961 19.7956 153.181 20.8061 153.181 22.1711V26.6298Z" fill="#323232"/>
<path d="M161.362 18.7939H167.842V19.9729H165.183V30.0071H164.013V19.9729H161.354V18.7939H161.362Z" fill="#323232"/>
<path d="M172.123 24.8481V28.8281H176.839V30.0071H170.962V18.7939H176.715V19.9729H172.123V23.6958H176.325V24.857H172.123V24.8481Z" fill="#323232"/>
<path d="M181.555 28.8281H185.96V30.0071H180.385V18.7939H181.555V28.8281Z" fill="#323232"/>
<path d="M193.424 21.985V21.7102C193.424 20.5845 192.706 19.7158 191.447 19.7158C190.189 19.7158 189.497 20.416 189.497 21.4088C189.497 22.1977 189.985 22.7562 190.65 23.0487L192.307 23.8021C193.46 24.3163 194.745 24.9988 194.745 26.9223C194.745 28.8458 193.406 30.1843 191.456 30.1843C189.506 30.1843 188.159 28.9699 188.159 27.0287V26.7539H189.311V27.0907C189.311 28.2342 190.091 29.0674 191.447 29.0674C192.804 29.0674 193.593 28.2165 193.593 27.073C193.593 25.8586 192.812 25.3799 191.873 24.9722L190.446 24.3251C189.311 23.8287 188.372 23.0132 188.372 21.5063C188.372 19.8133 189.595 18.6255 191.439 18.6255C193.282 18.6255 194.559 19.8399 194.559 21.7811V21.985H193.424Z" fill="#323232"/>
<path d="M130.338 0.0375977V30.1933" stroke="#323232" stroke-width="0.666694" stroke-miterlimit="10"/>
<path d="M88.2778 30.0248H118.903L94.3675 5.38251C91.0966 2.11165 86.6646 0.17041 82.0375 0.17041H76.9052L77.2863 1.17206L78.9882 5.63071L88.2867 30.0248H88.2778Z" fill="url(#paint0_linear_15605_2034)"/>
<path d="M78.9793 5.63045C82.3299 11.3567 91.132 11.9594 92.0893 20.859C92.1248 21.2224 92.4084 21.515 92.7719 21.577C97.8421 22.3659 102.779 24.4579 107.07 27.8971C107.07 27.8971 107.132 27.9326 107.167 27.9326C107.203 27.9326 107.247 27.9149 107.274 27.8883C107.336 27.8262 107.336 27.7376 107.274 27.6755C104.304 24.5554 100.67 22.0557 96.5923 20.4158L95.3513 19.9194C94.7131 19.6624 94.2699 19.033 94.2876 18.3062C94.3585 15.6469 100.652 16.1876 101.281 14.9112L101.388 14.6896C100.094 13.5816 98.5513 12.7483 96.8582 12.2874C96.8405 12.3495 96.805 12.6597 97.1507 13.227C97.523 13.8386 96.743 14.8048 95.5995 13.7589L95.502 13.6702C87.0013 5.87865 80.628 9.92069 77.2596 1.18066L78.9616 5.63932L78.9793 5.63045Z" fill="white"/>
<path d="M99.42 14.5478C99.42 14.5478 98.0283 14.6187 97.1685 13.2271C97.4255 13.6437 97.1419 14.2198 96.5746 14.2287V16.3472C97.4876 16.0813 98.5336 15.9217 99.4111 15.7356V14.5567L99.42 14.5478Z" fill="url(#paint1_linear_15605_2034)"/>
<path d="M93.8179 21.7635C98.5159 22.6676 103.072 24.6975 107.061 27.8974C98.1613 20.292 94.1015 21.666 93.8179 21.7635Z" fill="url(#paint2_linear_15605_2034)"/>
<path d="M80.7699 6.02941C79.3871 5.0455 78.2171 3.60064 77.2775 1.17188L78.9794 5.63053C82.33 11.3568 91.1321 11.9595 92.0894 20.8591C91.1232 9.49529 86.1327 11.1972 80.7699 6.02941Z" fill="url(#paint3_linear_15605_2034)"/>
<path d="M1.1612 6.53485V11.3835H0V0.17041H5.75282V1.34934H1.1612V5.37365H5.37166V6.53485H1.1612Z" fill="#323232"/>
<path d="M14.3953 11.3835L12.6491 6.9426C12.4629 6.96033 12.3743 6.96033 12.2325 6.96033H10.3621V11.3835H9.20093V0.17041H12.3034C14.2712 0.17041 15.6895 1.4823 15.6895 3.51218C15.6895 5.01022 14.9537 6.13596 13.8191 6.63236L15.6717 11.3747H14.3953V11.3835ZM10.3621 1.31388V5.83458H12.2059C13.6153 5.83458 14.4928 4.91272 14.4928 3.52991C14.4928 2.14711 13.6153 1.31388 12.2059 1.31388H10.3621Z" fill="#323232"/>
<path d="M20.3255 6.23347V10.2046H25.0323V11.3835H19.1554V0.17041H24.9082V1.34934H20.3255V5.07227H24.5271V6.23347H20.3255Z" fill="#323232"/>
<path d="M34.7739 7.9708C34.7739 9.45997 34.1446 10.5857 33.1518 11.1442L34.7119 13.6527H33.2847L31.9817 11.4987C31.8133 11.5342 31.6449 11.5519 31.4587 11.5519C29.4909 11.5519 28.1436 10.1691 28.1436 7.9708V3.58306C28.1436 1.38476 29.4289 0.00195312 31.4587 0.00195312C33.4886 0.00195312 34.7739 1.38476 34.7739 3.58306V7.9708ZM29.3136 8.00626C29.3136 9.37133 30.0937 10.3818 31.4587 10.3818C32.8238 10.3818 33.5861 9.37133 33.5861 8.00626V3.5476C33.5861 2.18253 32.8149 1.17202 31.4587 1.17202C30.1025 1.17202 29.3136 2.18253 29.3136 3.5476V8.00626Z" fill="#323232"/>
<path d="M44.6132 0.17041V7.97084C44.6132 10.1691 43.2924 11.5519 41.36 11.5519C39.4277 11.5519 38.1246 10.1691 38.1246 7.97084V0.17041H39.2858V8.00629C39.2858 9.37137 40.0393 10.3819 41.36 10.3819C42.6808 10.3819 43.4431 9.37137 43.4431 8.00629V0.17041H44.6043H44.6132Z" fill="#323232"/>
<path d="M49.6302 6.23347V10.2046H54.337V11.3835H48.469V0.17041H54.2129V1.34934H49.6302V5.07227H53.8318V6.23347H49.6302Z" fill="#323232"/>
<path d="M64.2738 11.3835H63.3076L58.9376 2.71441V11.3835H57.8473V0.17041H58.8933L63.1835 8.70656V0.17041H64.2738V11.3835Z" fill="#323232"/>
<path d="M67.2521 0.17041H73.7229V1.34934H71.0725V11.3835H69.9024V1.34934H67.2521V0.17041Z" fill="#323232"/>
<path d="M32.2477 25.1496V29.9983H31.0776V18.7852H36.8305V19.9641H32.2477V23.9884H36.4493V25.1496H32.2477Z" fill="#323232"/>
<path d="M41.4398 28.8193H45.8452V29.9983H40.2786V18.7852H41.4398V28.8193Z" fill="#323232"/>
<path d="M48.3804 18.7852L50.6496 24.2455L52.9366 18.7852H54.1155L51.1992 25.513V29.9983H50.038V25.5308L47.1217 18.7852H48.3804Z" fill="#323232"/>
<path d="M58.5475 24.8482V28.8193H63.2544V29.9983H57.3774V18.7852H63.1303V19.9641H58.5475V23.687H62.7491V24.8482H58.5475Z" fill="#323232"/>
<path d="M71.9589 29.9983L70.2127 25.5573C70.0265 25.5751 69.9379 25.5751 69.7961 25.5751H67.9257V29.9983H66.7645V18.7852H69.867C71.8259 18.7852 73.2531 20.097 73.2531 22.1269C73.2531 23.625 72.5173 24.7507 71.3827 25.2471L73.2353 29.9894H71.9589V29.9983ZM67.9257 19.9286V24.4493H69.7695C71.1789 24.4493 72.0564 23.5275 72.0564 22.1447C72.0564 20.7619 71.1789 19.9286 69.7695 19.9286H67.9257Z" fill="#323232"/>
<defs>
<linearGradient id="paint0_linear_15605_2034" x1="103.506" y1="29.9184" x2="83.0834" y2="0.0906366" gradientUnits="userSpaceOnUse">
<stop stop-color="#BE0000"/>
<stop offset="0.39" stop-color="#DD0000"/>
<stop offset="0.77" stop-color="#F60000"/>
<stop offset="1" stop-color="#FF0000"/>
</linearGradient>
<linearGradient id="paint1_linear_15605_2034" x1="97.8687" y1="16.4536" x2="98.1435" y2="13.3068" gradientUnits="userSpaceOnUse">
<stop offset="0.65" stop-color="white" stop-opacity="0"/>
<stop offset="0.69" stop-color="#ECECEC" stop-opacity="0.0529"/>
<stop offset="0.76" stop-color="#D6D6D6" stop-opacity="0.25"/>
<stop offset="0.81" stop-color="#C5C5C5" stop-opacity="0.5184"/>
<stop offset="0.87" stop-color="#B9B9B9" stop-opacity="0.7569"/>
<stop offset="0.91" stop-color="#B1B1B1" stop-opacity="0.9409"/>
<stop offset="0.95" stop-color="#AFAFAF"/>
</linearGradient>
<linearGradient id="paint2_linear_15605_2034" x1="93.8179" y1="24.7595" x2="107.07" y2="24.7595" gradientUnits="userSpaceOnUse">
<stop stop-color="white" stop-opacity="0"/>
<stop offset="0.07" stop-color="#F3F3F3" stop-opacity="0.0225"/>
<stop offset="0.21" stop-color="#DEDEDE" stop-opacity="0.1681"/>
<stop offset="0.35" stop-color="#CDCDCD" stop-opacity="0.3844"/>
<stop offset="0.49" stop-color="#C0C0C0" stop-opacity="0.6241"/>
<stop offset="0.63" stop-color="#B6B6B6" stop-opacity="0.8281"/>
<stop offset="0.77" stop-color="#B0B0B0" stop-opacity="0.9604"/>
<stop offset="0.9" stop-color="#AFAFAF"/>
</linearGradient>
<linearGradient id="paint3_linear_15605_2034" x1="77.2775" y1="11.0199" x2="92.0805" y2="11.0199" gradientUnits="userSpaceOnUse">
<stop offset="0.25" stop-color="white" stop-opacity="0"/>
<stop offset="0.36" stop-color="#F6F6F6" stop-opacity="0.0121"/>
<stop offset="0.58" stop-color="#E0E0E0" stop-opacity="0.1444"/>
<stop offset="0.88" stop-color="#BDBDBD" stop-opacity="0.6724"/>
<stop offset="1" stop-color="#AFAFAF"/>
</linearGradient>
</defs>
</svg>
