<svg width="48" height="48" viewBox="0 0 48 48" fill="none" xmlns="http://www.w3.org/2000/svg">
<path d="M17.4498 33.42C8.79977 33.42 1.75977 26.38 1.75977 17.73C1.75977 9.08004 8.79977 2.04004 17.4498 2.04004C26.0998 2.04004 33.1398 9.08004 33.1398 17.73C33.1398 26.38 26.0998 33.42 17.4498 33.42ZM17.4498 4.04004C9.89977 4.04004 3.75977 10.18 3.75977 17.73C3.75977 25.28 9.89977 31.42 17.4498 31.42C24.9998 31.42 31.1398 25.28 31.1398 17.73C31.1398 10.18 24.9998 4.04004 17.4498 4.04004Z" fill="#323232"/>
<path d="M34.2298 45.9602C28.0598 45.9602 22.7998 41.1502 22.2698 35.0002C22.2198 34.4502 22.6298 33.9702 23.1798 33.9202C23.7298 33.8602 24.2098 34.2802 24.2598 34.8302C24.6998 39.9502 29.0798 43.9602 34.2298 43.9602C39.7498 43.9602 44.2298 39.4702 44.2298 33.9602C44.2298 29.0002 40.6798 24.8502 35.7898 24.0802C35.2398 23.9902 34.8698 23.4802 34.9598 22.9402C35.0498 22.3902 35.5598 22.0302 36.0998 22.1102C41.9698 23.0302 46.2298 28.0202 46.2298 33.9702C46.2298 40.5902 40.8498 45.9702 34.2298 45.9702V45.9602Z" fill="#323232"/>
<path d="M20.8803 22.5599L20.9603 16.0399L23.9803 13.7499C24.5403 13.3299 24.6503 12.5399 24.2303 11.9799C23.8103 11.4199 23.0203 11.3099 22.4603 11.7299L19.4403 14.0199L13.1503 12.3099C13.1503 12.3099 12.6803 12.1599 12.4603 12.3199L11.6103 12.9599C11.4903 13.0299 11.4303 13.1599 11.4503 13.2999C11.4703 13.4499 11.8003 13.6399 11.9203 13.7099L16.0303 16.5899L13.7903 18.2799L11.5703 17.6499C11.4403 17.5999 11.2903 17.6299 11.1803 17.7199L10.5603 18.1899C10.4803 18.2499 10.3103 18.4099 10.6103 18.5899L13.3503 20.1999L14.1503 23.2699C14.2603 23.6299 14.4603 23.4799 14.5203 23.4299L15.1403 22.9599C15.2603 22.8799 15.3203 22.7499 15.3203 22.6099V20.2999L17.5503 18.6099L19.1803 23.3599C19.2203 23.4899 19.3303 23.8499 19.4403 23.9199C19.5603 23.9799 19.7103 23.9599 19.8103 23.8599L20.6803 23.1999C20.9003 23.0299 20.8803 22.5399 20.8803 22.5399V22.5599Z" fill="#DF0000"/>
<path d="M39.9697 35.4698L39.1696 33.6398V31.8498C39.1696 31.4298 38.8396 31.0898 38.4096 31.0898H31.1996C30.7796 31.0898 30.4396 31.4198 30.4396 31.8498V33.5898L29.6596 35.4598H29.6696C29.6696 35.4598 29.6396 35.5098 29.6396 35.5498V36.6898C29.6396 37.1098 29.9696 37.4498 30.3996 37.4498H30.7096V37.7298C30.7096 37.9498 30.8796 38.1198 31.0996 38.1198H31.1896C31.4096 38.1198 31.5796 37.9498 31.5796 37.7298V37.4498H37.8496V37.7298C37.8496 37.9498 38.0197 38.1198 38.2397 38.1198H38.3297C38.5497 38.1198 38.7197 37.9498 38.7197 37.7298V37.4498H39.2296C39.6296 37.4498 39.9897 37.1198 39.9697 36.6898V35.5498C39.9697 35.5498 39.9496 35.4898 39.9396 35.4598H39.9697V35.4698ZM34.0296 33.9198C34.1596 34.2198 34.0896 34.2398 34.0896 34.2398C34.0896 34.2398 34.0296 34.2998 33.8396 34.2198C33.7796 34.1998 33.7097 34.1798 33.6297 34.1798H32.1297C32.0497 34.1798 31.9396 34.2198 31.9396 34.2198C31.6396 34.3498 31.6196 34.2798 31.6196 34.2798C31.6196 34.2798 31.5596 34.1998 31.6596 33.9798C31.6796 33.9398 31.6996 33.8698 31.6996 33.8298V32.9198C31.6996 32.8398 31.6596 32.7298 31.6596 32.7298C31.5296 32.4298 31.5996 32.4098 31.5996 32.4098C31.5996 32.4098 31.6796 32.3498 31.9196 32.4498C31.9396 32.4698 31.9596 32.4698 31.9796 32.4698H33.6497C33.6497 32.4698 33.7296 32.4698 33.7996 32.4498C33.8696 32.4298 33.9896 32.3898 34.0496 32.4098C34.1096 32.4298 34.1096 32.4898 34.1096 32.4898C34.1096 32.4898 34.0296 32.7898 33.9996 32.8698C33.9996 32.9098 33.9796 32.9798 33.9796 33.0198V33.7198C33.9796 33.7998 34.0196 33.9098 34.0196 33.9098L34.0296 33.9198ZM37.9096 33.9198C38.0396 34.2198 37.9697 34.2398 37.9697 34.2398C37.9697 34.2398 37.9096 34.2998 37.7197 34.2198C37.6596 34.1998 37.5896 34.1798 37.5096 34.1798H36.0096C35.9296 34.1798 35.8196 34.2198 35.8196 34.2198C35.5196 34.3498 35.4996 34.2798 35.4996 34.2798C35.4996 34.2798 35.4397 34.1998 35.5396 33.9798C35.5596 33.9398 35.5797 33.8698 35.5797 33.8298V32.9198C35.5797 32.8398 35.5396 32.7298 35.5396 32.7298C35.4096 32.4298 35.4796 32.4098 35.4796 32.4098C35.4796 32.4098 35.5596 32.3498 35.7996 32.4498C35.8196 32.4698 35.8396 32.4698 35.8596 32.4698H37.5296C37.5296 32.4698 37.6096 32.4698 37.6796 32.4498C37.7396 32.4298 37.8696 32.3898 37.9296 32.4098C37.9896 32.4298 37.9897 32.4898 37.9897 32.4898C37.9897 32.4898 37.8797 32.7898 37.8797 32.8698C37.8797 32.9098 37.8596 32.9798 37.8596 33.0198V33.7198C37.8596 33.7998 37.8997 33.9098 37.8997 33.9098L37.9096 33.9198Z" fill="#DF0000"/>
</svg>
