<svg width="24" height="24" viewBox="0 0 24 24" fill="none" xmlns="http://www.w3.org/2000/svg">
<path fill-rule="evenodd" clip-rule="evenodd" d="M19.1595 12.975C19.197 12.6625 19.222 12.3375 19.222 12C19.222 11.6625 19.197 11.3375 19.147 11.025L21.2595 9.375C21.447 9.225 21.497 8.95 21.3845 8.7375L19.3845 5.275C19.2595 5.05 18.997 4.975 18.772 5.05L16.2845 6.05C15.7595 5.65 15.2095 5.325 14.597 5.075L14.222 2.425C14.1845 2.175 13.972 2 13.722 2H9.72199C9.47199 2 9.27199 2.175 9.23449 2.425L8.85949 5.075C8.24699 5.325 7.68449 5.6625 7.17199 6.05L4.68449 5.05C4.45949 4.9625 4.19699 5.05 4.07199 5.275L2.07199 8.7375C1.94699 8.9625 1.99699 9.225 2.19699 9.375L4.30949 11.025C4.25949 11.3375 4.22199 11.675 4.22199 12C4.22199 12.325 4.24699 12.6625 4.29699 12.975L2.18449 14.625C1.99699 14.775 1.94699 15.05 2.05949 15.2625L4.05949 18.725C4.18449 18.95 4.44699 19.025 4.67199 18.95L7.15949 17.95C7.68449 18.35 8.23449 18.675 8.84699 18.925L9.22199 21.575C9.27199 21.825 9.47199 22 9.72199 22H13.722C13.972 22 14.1845 21.825 14.2095 21.575L14.5845 18.925C15.197 18.675 15.7595 18.3375 16.272 17.95L18.7595 18.95C18.9845 19.0375 19.247 18.95 19.372 18.725L21.372 15.2625C21.497 15.0375 21.447 14.775 21.247 14.625L19.1595 12.975ZM11.722 15.75C9.65949 15.75 7.97199 14.0625 7.97199 12C7.97199 9.9375 9.65949 8.25 11.722 8.25C13.7845 8.25 15.472 9.9375 15.472 12C15.472 14.0625 13.7845 15.75 11.722 15.75Z" fill="#323232"/>
</svg>
