<svg width="48" height="48" viewBox="0 0 48 48" fill="none" xmlns="http://www.w3.org/2000/svg">
<path d="M12.8691 38.21L13.1691 44.28H34.8191L35.1191 38.21H12.8691Z" fill="#8DE2E0"/>
<path d="M38.8691 10.8302H36.9991L35.7491 7.43019C35.6091 7.04019 35.2291 6.77019 34.8091 6.77019H31.2891L28.8791 3.16019C28.6191 2.76019 28.1091 2.61019 27.6691 2.79019C23.9191 4.33019 17.4091 6.77019 15.8791 6.77019H11.8191C11.3891 6.77019 11.0091 7.05019 10.8691 7.45019L9.74914 10.8202H9.11914C8.56914 10.8202 8.11914 11.2702 8.11914 11.8202V17.2302C8.11914 17.7802 8.56914 18.2302 9.11914 18.2302H10.8691L11.6291 33.5002L12.1691 44.3202C12.1991 44.8502 12.6391 45.2702 13.1691 45.2702H34.7991C35.3291 45.2702 35.7691 44.8502 35.7991 44.3202L36.3391 33.5002L37.0991 18.2302H38.8491C39.3991 18.2302 39.8491 17.7802 39.8491 17.2302V11.8202C39.8491 11.2702 39.3991 10.8202 38.8491 10.8202L38.8691 10.8302ZM12.5491 8.77019H15.8891C18.0091 8.77019 25.1891 5.95019 27.6791 4.95019L29.9291 8.33019C30.1191 8.61019 30.4291 8.78019 30.7591 8.78019H34.1191L34.8691 10.8402H11.8691L12.5591 8.78019L12.5491 8.77019ZM34.3591 33.4202L33.8691 43.2802H14.1291L13.6391 33.4202L12.8791 18.2402H35.1191L34.3591 33.4202ZM37.8691 16.2402H10.1291V12.8302H37.8791V16.2402H37.8691Z" fill="#323232"/>
</svg>
