<svg width="24" height="24" viewBox="0 0 24 24" fill="none" xmlns="http://www.w3.org/2000/svg">
<path fill-rule="evenodd" clip-rule="evenodd" d="M18 4H19C20.1 4 21 4.9 21 6V10.7573C20.3985 10.275 19.7257 9.87771 19 9.58362V9H15.992H5V20H8.58104C8.87448 20.7256 9.27119 21.3984 9.75297 22H5C3.89 22 3 21.1 3 20L3.01 6C3.01 4.9 3.89 4 5 4H6V2H8V4H16V2H18V4ZM15.994 11C19.312 11 22 13.688 22 17C22 20.312 19.312 23 15.994 23C12.682 23 10 20.312 10 17C10 13.688 12.682 11 15.994 11ZM15.994 13C13.7883 13 12 14.7908 12 17C12 19.2092 13.7883 21 15.994 21C18.2068 21 20 19.208 20 17C20 14.792 18.2068 13 15.994 13ZM15 17.4974V14.3594H17V16.3451L18.7201 17.3382L17.7201 19.0702L15.0025 17.5012L15.0047 17.4974H15Z" fill="#323232"/>
</svg>
