<svg width="211" height="30" viewBox="0 0 211 30" fill="none" xmlns="http://www.w3.org/2000/svg">
<path d="M87.6898 29.8154H118.103L93.7373 5.34354C90.4891 2.0953 86.0877 0.16748 81.4926 0.16748H76.3958L76.7743 1.1622L78.4644 5.59002L87.6986 29.8154H87.6898Z" fill="url(#paint0_linear_15605_2215)"/>
<path d="M78.4557 5.58991C81.7831 11.2765 90.5243 11.8751 91.475 20.7132C91.5102 21.0741 91.7919 21.3646 92.1529 21.4262C97.1881 22.2096 102.091 24.2871 106.352 27.7026C106.352 27.7026 106.413 27.7378 106.449 27.7378C106.484 27.7378 106.528 27.7202 106.554 27.6938C106.616 27.6322 106.616 27.5441 106.554 27.4825C103.605 24.3839 99.9962 21.9015 95.9469 20.273L94.7145 19.7801C94.0807 19.5248 93.6405 18.8998 93.6581 18.1779C93.7286 15.5371 99.9786 16.0741 100.604 14.8065L100.709 14.5864C99.424 13.486 97.8923 12.6586 96.2109 12.2008C96.1933 12.2624 96.1581 12.5705 96.5014 13.1339C96.8712 13.7413 96.0965 14.7008 94.9609 13.6621L94.8641 13.5741C86.4222 5.83639 80.093 9.85048 76.7479 1.1709L78.4381 5.59872L78.4557 5.58991Z" fill="white"/>
<path d="M98.7549 14.4454C98.7549 14.4454 97.3729 14.5158 96.519 13.1338C96.7743 13.5475 96.4926 14.1197 95.9292 14.1285V16.2324C96.8359 15.9683 97.8746 15.8098 98.7461 15.625V14.4542L98.7549 14.4454Z" fill="url(#paint1_linear_15605_2215)"/>
<path d="M93.1915 21.611C97.857 22.5089 102.382 24.5247 106.343 27.7026C97.5049 20.1497 93.4732 21.5142 93.1915 21.611Z" fill="url(#paint2_linear_15605_2215)"/>
<path d="M80.2338 5.98605C78.8606 5.00894 77.6986 3.57408 76.7655 1.16211L78.4556 5.58993C81.7831 11.2765 90.5243 11.8751 91.475 20.7132C90.5155 9.42796 85.5595 11.1181 80.2338 5.98605Z" fill="url(#paint3_linear_15605_2215)"/>
<path d="M1.17563 6.4879V11.303H0.0224609V0.16748H5.73549V1.33826H1.17563V5.33473H5.35697V6.4879H1.17563Z" fill="#323232"/>
<path d="M14.3182 11.303L12.5841 6.89283C12.3992 6.91044 12.3112 6.91044 12.1704 6.91044H10.313V11.303H9.15979V0.16748H12.2408C14.195 0.16748 15.6035 1.4703 15.6035 3.48614C15.6035 4.97382 14.8728 6.09178 13.7461 6.58473L15.5858 11.2942H14.3182V11.303ZM10.313 1.30304V5.79248H12.1439C13.5436 5.79248 14.4151 4.87699 14.4151 3.50375C14.4151 2.13051 13.5436 1.30304 12.1439 1.30304H10.313Z" fill="#323232"/>
<path d="M20.2074 6.18861V10.1323H24.8817V11.303H19.0454V0.16748H24.7584V1.33826H20.2074V5.03544H24.3799V6.18861H20.2074Z" fill="#323232"/>
<path d="M34.5559 7.91373C34.5559 9.39261 33.9309 10.5106 32.945 11.0651L34.4943 13.5563H33.0771L31.7831 11.4173C31.6158 11.4525 31.4485 11.4701 31.2637 11.4701C29.3095 11.4701 27.9714 10.0968 27.9714 7.91373V3.55634C27.9714 1.37324 29.2478 0 31.2637 0C33.2795 0 34.5559 1.37324 34.5559 3.55634V7.91373ZM29.1334 7.94894C29.1334 9.30458 29.9081 10.3081 31.2637 10.3081C32.6193 10.3081 33.3764 9.30458 33.3764 7.94894V3.52113C33.3764 2.16549 32.6105 1.16197 31.2637 1.16197C29.9169 1.16197 29.1334 2.16549 29.1334 3.52113V7.94894Z" fill="#323232"/>
<path d="M44.3271 0.16748V7.91396C44.3271 10.0971 43.0155 11.4703 41.0965 11.4703C39.1774 11.4703 37.8834 10.0971 37.8834 7.91396V0.16748H39.0366V7.94917C39.0366 9.3048 39.7848 10.3083 41.0965 10.3083C42.4081 10.3083 43.1651 9.3048 43.1651 7.94917V0.16748H44.3183H44.3271Z" fill="#323232"/>
<path d="M49.3095 6.18861V10.1323H53.9838V11.303H48.1564V0.16748H53.8606V1.33826H49.3095V5.03544H53.4821V6.18861H49.3095Z" fill="#323232"/>
<path d="M63.8518 11.303H62.8923L58.5525 2.69389V11.303H57.4697V0.16748H58.5085L62.769 8.64459V0.16748H63.8518V11.303Z" fill="#323232"/>
<path d="M66.8094 0.16748H73.2355V1.33826H70.6035V11.303H69.4415V1.33826H66.8094V0.16748Z" fill="#323232"/>
<path d="M32.0472 24.9737V29.7889H30.8853V18.6533H36.5983V19.8241H32.0472V23.8206H36.2198V24.9737H32.0472Z" fill="#323232"/>
<path d="M41.1756 28.6181H45.5506V29.7889H40.0225V18.6533H41.1756V28.6181Z" fill="#323232"/>
<path d="M48.0682 18.6533L50.3218 24.0759L52.5929 18.6533H53.7637L50.8675 25.3347V29.7889H49.7144V25.3523L46.8182 18.6533H48.0682Z" fill="#323232"/>
<path d="M58.1651 24.6744V28.6181H62.8394V29.7889H57.0032V18.6533H62.7162V19.8241H58.1651V23.5213H62.3377V24.6744H58.1651Z" fill="#323232"/>
<path d="M71.4838 29.7889L69.7496 25.3787C69.5648 25.3963 69.4767 25.3963 69.3359 25.3963H67.4785V29.7889H66.3253V18.6533H69.4063C71.3517 18.6533 72.769 19.9561 72.769 21.972C72.769 23.4597 72.0383 24.5776 70.9116 25.0706L72.7514 29.7801H71.4838V29.7889ZM67.4785 19.7889V24.2783H69.3095C70.7091 24.2783 71.5806 23.3628 71.5806 21.9896C71.5806 20.6163 70.7091 19.7889 69.3095 19.7889H67.4785Z" fill="#323232"/>
<path d="M147.038 7.9401C147.038 9.41897 146.413 10.5369 145.419 11.0915L146.977 13.5827H145.559L144.265 11.4436C144.098 11.4788 143.931 11.4964 143.746 11.4964C141.792 11.4964 140.454 10.1232 140.454 7.9401V3.58271C140.454 1.39961 141.739 0.0263672 143.746 0.0263672C145.753 0.0263672 147.038 1.39961 147.038 3.58271V7.9401ZM141.616 7.97531C141.616 9.33095 142.39 10.3345 143.746 10.3345C145.102 10.3345 145.868 9.33095 145.868 7.97531V3.54749C145.868 2.19186 145.102 1.18834 143.746 1.18834C142.39 1.18834 141.616 2.19186 141.616 3.54749V7.97531Z" fill="#323232"/>
<path d="M149.785 11.3294L152.989 0.193848H154.16L157.39 11.3294H156.184L155.454 8.76779H151.642L150.929 11.3294H149.785ZM151.95 7.64983H155.163L153.535 1.93681L151.95 7.64983Z" fill="#323232"/>
<path d="M166.942 11.3294H165.982L161.633 2.72026V11.3294H160.551V0.193848H161.589L165.859 8.67096V0.193848H166.942V11.3294Z" fill="#323232"/>
<path d="M170.023 0.193848H176.457V1.36462H173.817V11.3294H172.655V1.36462H170.014V0.193848H170.023Z" fill="#323232"/>
<path d="M177.91 11.3294L181.114 0.193848H182.285L185.515 11.3294H184.309L183.579 8.76779H179.767L179.054 11.3294H177.91ZM180.075 7.64983H183.288L181.66 1.93681L180.075 7.64983Z" fill="#323232"/>
<path d="M193.209 3.36263V3.08975C193.209 1.97179 192.496 1.10911 191.246 1.10911C189.996 1.10911 189.31 1.80454 189.31 2.79045C189.31 3.5739 189.794 4.12848 190.454 4.41897L192.1 5.16721C193.244 5.67778 194.521 6.35559 194.521 8.26581C194.521 10.176 193.192 11.5052 191.255 11.5052C189.318 11.5052 187.98 10.2993 187.98 8.37144V8.09855H189.125V8.43306C189.125 9.56862 189.899 10.3961 191.246 10.3961C192.593 10.3961 193.376 9.55102 193.376 8.41545C193.376 7.20947 192.602 6.73411 191.669 6.32918L190.251 5.68658C189.125 5.19362 188.192 4.38376 188.192 2.88728C188.192 1.20594 189.415 0.0263672 191.237 0.0263672C193.06 0.0263672 194.336 1.23235 194.336 3.16017V3.36263H193.209Z" fill="#323232"/>
<path d="M145.41 21.8485V21.5756C145.41 20.4576 144.697 19.595 143.447 19.595C142.197 19.595 141.51 20.2904 141.51 21.2763C141.51 22.0597 141.994 22.6143 142.655 22.9048L144.301 23.6531C145.445 24.1636 146.722 24.8414 146.722 26.7516C146.722 28.6619 145.392 29.9911 143.456 29.9911C141.519 29.9911 140.181 28.7851 140.181 26.8573V26.5844H141.325V26.9189C141.325 28.0545 142.1 28.8819 143.447 28.8819C144.794 28.8819 145.577 28.0369 145.577 26.9013C145.577 25.6953 144.803 25.22 143.869 24.815L142.452 24.1724C141.325 23.6795 140.392 22.8696 140.392 21.3731C140.392 19.6918 141.616 18.5122 143.438 18.5122C145.26 18.5122 146.537 19.7182 146.537 21.646V21.8485H145.41Z" fill="#323232"/>
<path d="M156.695 29.8153H155.524V24.7096H151.422V29.8153H150.26V18.6797H151.422V23.5476H155.524V18.6797H156.695V29.8153Z" fill="#323232"/>
<path d="M166.757 26.4259C166.757 28.609 165.419 29.9823 163.464 29.9823C161.51 29.9823 160.172 28.609 160.172 26.4259V22.0685C160.172 19.8854 161.457 18.5122 163.464 18.5122C165.471 18.5122 166.757 19.8854 166.757 22.0685V26.4259ZM161.334 26.4611C161.334 27.8168 162.109 28.8203 163.464 28.8203C164.82 28.8203 165.586 27.8168 165.586 26.4611V22.0333C165.586 20.6777 164.82 19.6742 163.464 19.6742C162.109 19.6742 161.334 20.6777 161.334 22.0333V26.4611Z" fill="#323232"/>
<path d="M170.243 18.6797H173.306C175.269 18.6797 176.686 20.0705 176.686 22.2184C176.686 24.3663 175.269 25.8276 173.306 25.8276H171.405V29.8153H170.243V18.6797ZM171.396 19.8153V24.7008H173.227C174.626 24.7008 175.498 23.7149 175.498 22.2448C175.498 20.7748 174.626 19.8241 173.227 19.8241H171.396V19.8153Z" fill="#323232"/>
<path d="M180.058 18.6797H183.121C185.084 18.6797 186.501 20.0705 186.501 22.2184C186.501 24.3663 185.084 25.8276 183.121 25.8276H181.211V29.8153H180.049V18.6797H180.058ZM181.22 19.8153V24.7008H183.051C184.45 24.7008 185.322 23.7149 185.322 22.2448C185.322 20.7748 184.45 19.8241 183.051 19.8241H181.22V19.8153Z" fill="#323232"/>
<path d="M191.044 29.8153H189.882V18.6797H191.044V29.8153Z" fill="#323232"/>
<path d="M201.484 29.8153H200.524L196.176 21.2061V29.8153H195.093V18.6797H196.132L200.401 27.1568V18.6797H201.484V29.8153Z" fill="#323232"/>
<path d="M208.517 24.3749H211.475V26.6108C211.475 28.6971 210.181 29.9823 208.262 29.9823C206.343 29.9823 204.97 28.609 204.97 26.4259V22.0685C204.97 19.8854 206.281 18.5122 208.262 18.5122C210.243 18.5122 211.475 19.7358 211.475 21.7164V21.9717H210.357V21.6812C210.357 20.5281 209.609 19.683 208.253 19.683C206.898 19.683 206.114 20.6865 206.114 22.0421V26.47C206.114 27.8256 206.889 28.8291 208.253 28.8291C209.618 28.8291 210.383 27.9136 210.383 26.6636V25.44H208.508V24.3925L208.517 24.3749Z" fill="#323232"/>
<path d="M129.424 0.0615234V29.9999" stroke="#323232" stroke-width="0.666519" stroke-miterlimit="10"/>
<defs>
<linearGradient id="paint0_linear_15605_2215" x1="102.813" y1="29.7097" x2="82.5313" y2="0.088257" gradientUnits="userSpaceOnUse">
<stop stop-color="#BE0000"/>
<stop offset="0.39" stop-color="#DD0000"/>
<stop offset="0.77" stop-color="#F60000"/>
<stop offset="1" stop-color="#FF0000"/>
</linearGradient>
<linearGradient id="paint1_linear_15605_2215" x1="97.2144" y1="16.338" x2="97.4873" y2="13.213" gradientUnits="userSpaceOnUse">
<stop offset="0.65" stop-color="white" stop-opacity="0"/>
<stop offset="0.69" stop-color="#ECECEC" stop-opacity="0.0529"/>
<stop offset="0.76" stop-color="#D6D6D6" stop-opacity="0.25"/>
<stop offset="0.81" stop-color="#C5C5C5" stop-opacity="0.5184"/>
<stop offset="0.87" stop-color="#B9B9B9" stop-opacity="0.7569"/>
<stop offset="0.91" stop-color="#B1B1B1" stop-opacity="0.9409"/>
<stop offset="0.95" stop-color="#AFAFAF"/>
</linearGradient>
<linearGradient id="paint2_linear_15605_2215" x1="93.1915" y1="24.5864" x2="106.352" y2="24.5864" gradientUnits="userSpaceOnUse">
<stop stop-color="white" stop-opacity="0"/>
<stop offset="0.07" stop-color="#F3F3F3" stop-opacity="0.0225"/>
<stop offset="0.21" stop-color="#DEDEDE" stop-opacity="0.1681"/>
<stop offset="0.35" stop-color="#CDCDCD" stop-opacity="0.3844"/>
<stop offset="0.49" stop-color="#C0C0C0" stop-opacity="0.6241"/>
<stop offset="0.63" stop-color="#B6B6B6" stop-opacity="0.8281"/>
<stop offset="0.77" stop-color="#B0B0B0" stop-opacity="0.9604"/>
<stop offset="0.9" stop-color="#AFAFAF"/>
</linearGradient>
<linearGradient id="paint3_linear_15605_2215" x1="76.7655" y1="10.942" x2="91.4662" y2="10.942" gradientUnits="userSpaceOnUse">
<stop offset="0.25" stop-color="white" stop-opacity="0"/>
<stop offset="0.36" stop-color="#F6F6F6" stop-opacity="0.0121"/>
<stop offset="0.58" stop-color="#E0E0E0" stop-opacity="0.1444"/>
<stop offset="0.88" stop-color="#BDBDBD" stop-opacity="0.6724"/>
<stop offset="1" stop-color="#AFAFAF"/>
</linearGradient>
</defs>
</svg>
