<svg width="48" height="48" viewBox="0 0 48 48" fill="none" xmlns="http://www.w3.org/2000/svg">
<path d="M31.1307 37.6698C30.7007 37.6698 30.2807 37.5398 29.9107 37.2698L24.0007 32.7498L18.1107 37.2598C17.3607 37.8098 16.3807 37.8098 15.6507 37.2698C14.9407 36.7398 14.6207 35.8398 14.8407 34.9698L17.1807 27.4998L11.2307 22.9498C10.5407 22.3598 10.2907 21.4698 10.5207 20.6498C10.7607 19.8098 11.4707 19.2098 12.3307 19.1198H19.7207L22.0307 11.7298C22.3807 10.8498 23.1407 10.3198 24.0007 10.3198C24.8607 10.3198 25.6207 10.8498 25.9407 11.6598L28.2807 19.1098H35.6507C35.7907 19.1098 35.9107 19.1398 36.0307 19.1898C36.7207 19.3898 37.2607 19.9298 37.4707 20.6498C37.7107 21.4698 37.4507 22.3598 36.8107 22.9098L30.8207 27.4898L33.1407 34.9098C33.3707 35.8298 33.0607 36.7298 32.3507 37.2598C31.9807 37.5298 31.5507 37.6598 31.1207 37.6598L31.1307 37.6698ZM24.0007 30.4898C24.2107 30.4898 24.4307 30.5598 24.6107 30.6998L31.1107 35.6798C31.2107 35.6398 31.2407 35.5598 31.2207 35.4698L28.7007 27.4398C28.5707 27.0398 28.7107 26.5998 29.0507 26.3498L35.5507 21.3798C35.5507 21.3798 35.5707 21.2998 35.5507 21.2198C35.5407 21.1698 35.5107 21.1398 35.4807 21.1298H27.5407C27.1007 21.1298 26.7207 20.8498 26.5907 20.4298L24.0607 12.3498C24.0607 12.3498 24.0307 12.3398 24.0007 12.3498C23.9707 12.3498 23.9407 12.3798 23.9207 12.4298L21.4107 20.4498C21.2807 20.8698 20.8907 21.1498 20.4607 21.1498H12.4507C12.5007 21.1498 12.4707 21.1898 12.4507 21.2398C12.4307 21.3198 12.4507 21.3998 12.5007 21.4398L18.9607 26.3798C19.2907 26.6398 19.4307 27.0698 19.3107 27.4698L16.7807 35.5598C16.7807 35.5598 16.8107 35.6698 16.8507 35.6998L23.4107 30.7298C23.5907 30.5898 23.8007 30.5198 24.0207 30.5198L24.0007 30.4898Z" fill="#323232"/>
<path d="M24 7.74004C23.45 7.74004 23 7.29004 23 6.74004V3.29004C23 2.74004 23.45 2.29004 24 2.29004C24.55 2.29004 25 2.74004 25 3.29004V6.74004C25 7.29004 24.55 7.74004 24 7.74004Z" fill="#8DE2E0"/>
<path d="M24 45.7103C23.45 45.7103 23 45.2603 23 44.7103V41.2603C23 40.7103 23.45 40.2603 24 40.2603C24.55 40.2603 25 40.7103 25 41.2603V44.7103C25 45.2603 24.55 45.7103 24 45.7103Z" fill="#8DE2E0"/>
<path d="M11.4386 12.9398C11.1786 12.9398 10.9286 12.8398 10.7286 12.6498L8.28859 10.2098C7.89859 9.81982 7.89859 9.18982 8.28859 8.79982C8.67859 8.40982 9.30859 8.40982 9.69859 8.79982L12.1386 11.2398C12.5286 11.6298 12.5286 12.2598 12.1386 12.6498C11.9386 12.8498 11.6886 12.9398 11.4286 12.9398H11.4386Z" fill="#8DE2E0"/>
<path d="M6.2293 25.5H2.7793C2.2293 25.5 1.7793 25.05 1.7793 24.5C1.7793 23.95 2.2293 23.5 2.7793 23.5H6.2293C6.7793 23.5 7.2293 23.95 7.2293 24.5C7.2293 25.05 6.7793 25.5 6.2293 25.5Z" fill="#8DE2E0"/>
<path d="M8.99859 40.4999C8.73859 40.4999 8.48859 40.3999 8.28859 40.2099C7.89859 39.8199 7.89859 39.1899 8.28859 38.7999L10.7286 36.3599C11.1186 35.9699 11.7486 35.9699 12.1386 36.3599C12.5286 36.7499 12.5286 37.3799 12.1386 37.7699L9.69859 40.2099C9.49859 40.4099 9.24859 40.4999 8.98859 40.4999H8.99859Z" fill="#8DE2E0"/>
<path d="M36.5591 12.9398C36.2991 12.9398 36.0491 12.8398 35.8491 12.6498C35.4591 12.2598 35.4591 11.6298 35.8491 11.2398L38.2891 8.79982C38.6791 8.40982 39.3091 8.40982 39.6991 8.79982C40.0891 9.18982 40.0891 9.81982 39.6991 10.2098L37.2591 12.6498C37.0591 12.8498 36.8091 12.9398 36.5491 12.9398H36.5591Z" fill="#8DE2E0"/>
<path d="M45.2098 25.5H41.7598C41.2098 25.5 40.7598 25.05 40.7598 24.5C40.7598 23.95 41.2098 23.5 41.7598 23.5H45.2098C45.7598 23.5 46.2098 23.95 46.2098 24.5C46.2098 25.05 45.7598 25.5 45.2098 25.5Z" fill="#8DE2E0"/>
<path d="M38.9991 40.4999C38.7391 40.4999 38.4891 40.3999 38.2891 40.2099L35.8491 37.7699C35.4591 37.3799 35.4591 36.7499 35.8491 36.3599C36.2391 35.9699 36.8691 35.9699 37.2591 36.3599L39.6991 38.7999C40.0891 39.1899 40.0891 39.8199 39.6991 40.2099C39.4991 40.4099 39.2491 40.4999 38.9891 40.4999H38.9991Z" fill="#8DE2E0"/>
</svg>
