<svg width="48" height="48" viewBox="0 0 48 48" fill="none" xmlns="http://www.w3.org/2000/svg">
<path d="M20.4493 32.9299L17.2793 33.4699C17.5693 34.2899 19.4793 40.1199 16.2793 41.6999C16.9293 41.7899 17.6993 41.7499 18.6393 41.5499C23.3093 40.5499 20.4493 32.9199 20.4493 32.9199V32.9299Z" fill="#8DE2E0"/>
<path d="M17.6193 9.8902C17.6193 9.8902 14.6593 8.1302 12.0293 10.2102C13.1693 10.3702 13.9793 10.8502 13.9793 10.8502C13.9793 10.8502 18.7993 12.6202 16.5593 25.3502C16.5593 25.3502 16.1193 28.6202 15.9293 29.7902L19.5093 29.1502C19.6393 28.4802 20.1893 24.3902 20.1893 24.3902C22.4293 11.6502 17.6093 9.8902 17.6093 9.8902H17.6193Z" fill="#8DE2E0"/>
<path d="M38.2895 16.3399C36.2195 10.7799 32.5995 11.3599 31.0195 11.9299C32.3095 12.4699 33.6295 13.7199 34.6095 16.3399C36.9095 22.5099 33.8895 30.1999 32.9295 32.3699L36.3295 32.9799C36.3295 32.9799 40.9895 23.5999 38.2895 16.3399Z" fill="#8DE2E0"/>
<path d="M32.07 36.1299C31.56 40.6599 30.99 43.3099 28.25 43.5899C28.53 43.7499 28.84 43.8799 29.22 43.9599C33.89 44.9599 34.6 42.2099 35.22 36.6699L32.07 36.1299Z" fill="#8DE2E0"/>
<path d="M43.7091 4.79004H4.28906C3.73906 4.79004 3.28906 4.34004 3.28906 3.79004C3.28906 3.24004 3.73906 2.79004 4.28906 2.79004H43.7091C44.2591 2.79004 44.7091 3.24004 44.7091 3.79004C44.7091 4.34004 44.2591 4.79004 43.7091 4.79004Z" fill="#DF0000"/>
<path d="M36.3296 33.98C36.2696 33.98 36.2096 33.98 36.1496 33.96L28.1596 32.53C27.7496 32.46 27.4296 32.14 27.3496 31.73C27.2196 31.04 26.6796 27.08 26.6596 26.91C24.4396 14.3 28.9196 11.74 29.7996 11.37C30.2396 11.13 32.4196 10.05 34.7896 10.89C36.7196 11.57 38.2096 13.28 39.2196 15.99C42.0396 23.56 37.4196 33.02 37.2196 33.42C37.0496 33.76 36.6996 33.98 36.3196 33.98H36.3296ZM29.2196 30.69L35.7396 31.86C36.6996 29.63 39.4696 22.37 37.3496 16.7C36.5596 14.59 35.4796 13.27 34.1496 12.8C32.4396 12.19 30.7696 13.14 30.7496 13.15C30.6996 13.18 30.6396 13.21 30.5896 13.23C30.5796 13.23 26.6196 15.09 28.6496 26.62C28.7696 27.53 29.0596 29.59 29.2196 30.7V30.69Z" fill="#323232"/>
<path d="M30.9204 45.1602C30.3404 45.1602 29.7104 45.0802 29.0104 44.9302C27.7604 44.6602 26.7904 43.9602 26.2104 42.9002C24.6504 40.0502 26.2804 35.4902 26.4704 34.9702C26.6404 34.5202 27.1104 34.2602 27.5704 34.3302L35.3804 35.6602C35.9004 35.7502 36.2604 36.2302 36.2104 36.7602C35.8204 40.2702 35.3704 43.0602 33.5504 44.3702C32.8304 44.8902 31.9704 45.1402 30.9204 45.1402V45.1602ZM28.0904 36.4602C27.6604 37.9502 27.1704 40.5102 27.9604 41.9402C28.2704 42.5002 28.7304 42.8302 29.4304 42.9702C30.8104 43.2702 31.7804 43.2002 32.3904 42.7602C33.4204 42.0202 33.8204 39.9702 34.1304 37.4802L28.1004 36.4502L28.0904 36.4602Z" fill="#323232"/>
<path d="M11.5302 31.5802C11.1502 31.5802 10.8102 31.3702 10.6302 31.0202C10.4302 30.6202 5.81018 21.1602 8.63018 13.5902C9.64018 10.8902 11.1302 9.1702 13.0602 8.4902C15.4302 7.6602 17.6102 8.7302 18.0502 8.9702C18.9202 9.3402 23.4102 11.9002 21.1802 24.5502C21.1602 24.6802 20.6302 28.6402 20.5002 29.3302C20.4202 29.7402 20.1002 30.0502 19.6902 30.1302L11.7002 31.5602C11.6402 31.5702 11.5802 31.5802 11.5202 31.5802H11.5302ZM14.9202 10.1902C14.5302 10.1902 14.1202 10.2502 13.7102 10.3902C12.3802 10.8702 11.3002 12.1802 10.5102 14.2902C8.39018 19.9702 11.1602 27.2302 12.1202 29.4602L18.6402 28.2902C18.8102 27.1802 19.0902 25.1302 19.2002 24.2502C21.2402 12.6802 17.2802 10.8302 17.2402 10.8102C17.2002 10.7902 17.1302 10.7602 17.1002 10.7402C17.1002 10.7402 16.1302 10.1802 14.9202 10.1802V10.1902Z" fill="#323232"/>
<path d="M16.9411 42.7703C15.8811 42.7703 15.0211 42.5103 14.3111 42.0003C12.4811 40.6803 12.0411 37.9003 11.6511 34.3903C11.5911 33.8603 11.9511 33.3803 12.4811 33.2903L20.2911 31.9603C20.7611 31.8803 21.2311 32.1503 21.3911 32.6003C21.5811 33.1103 23.2211 37.6803 21.6611 40.5203C21.0811 41.5803 20.1111 42.2803 18.8611 42.5503C18.1611 42.7003 17.5211 42.7803 16.9511 42.7803L16.9411 42.7703ZM13.7411 35.0903C14.0511 37.5803 14.4511 39.6203 15.4811 40.3703C16.0911 40.8103 17.0511 40.8803 18.4411 40.5803C19.1311 40.4303 19.6011 40.1003 19.9111 39.5503C20.7011 38.1103 20.2211 35.5603 19.7811 34.0703L13.7511 35.1003L13.7411 35.0903Z" fill="#323232"/>
</svg>
