<svg width="117" height="30" viewBox="0 0 117 30" fill="none" xmlns="http://www.w3.org/2000/svg">
<path d="M86.6019 29.8481H117.033L92.6374 5.35102C89.3914 2.10504 84.9789 0.177734 80.3888 0.177734H75.2916L75.672 1.16675L77.3711 5.60461L86.6019 29.8481Z" fill="url(#paint0_linear_15605_2577)"/>
<path d="M77.3457 5.60437C80.6678 11.2848 89.4167 11.8935 90.3804 20.7439C90.4311 21.0989 90.71 21.4032 91.0651 21.4539C96.1116 22.24 101.006 24.3195 105.266 27.743C105.292 27.7684 105.317 27.7684 105.368 27.7684C105.393 27.7684 105.444 27.743 105.469 27.7176C105.52 27.6669 105.52 27.5655 105.469 27.5148C102.527 24.4209 98.9011 21.9357 94.869 20.3127L93.6264 19.8056C92.9924 19.552 92.5613 18.918 92.5613 18.2079C92.6373 15.5706 98.8757 16.1031 99.5097 14.8351L99.6111 14.6069C98.3178 13.5165 96.7963 12.6796 95.1225 12.2231C95.0972 12.2992 95.0718 12.6035 95.4015 13.1614C95.7819 13.7701 94.9958 14.7337 93.8546 13.694L93.7532 13.6179C85.3339 5.83261 79.0194 9.86473 75.672 1.1665L77.3457 5.60437Z" fill="white"/>
<path d="M97.6585 14.4549C97.6585 14.4549 96.2637 14.531 95.4269 13.1362C95.6805 13.542 95.4015 14.1252 94.8436 14.1252V16.2301C95.7566 15.9765 96.7963 15.799 97.6585 15.6214V14.4549Z" fill="url(#paint1_linear_15605_2577)"/>
<path d="M92.1049 21.6314C96.771 22.519 101.31 24.5477 105.266 27.7176C96.4159 20.1606 92.3838 21.53 92.1049 21.6314Z" fill="url(#paint2_linear_15605_2577)"/>
<path d="M79.1462 5.98476C77.7768 4.99575 76.6103 3.57563 75.672 1.1665L77.3711 5.60437C80.6931 11.2848 89.4421 11.8935 90.4057 20.7439C89.4167 9.43362 84.4717 11.1327 79.1462 5.98476Z" fill="url(#paint3_linear_15605_2577)"/>
<path d="M71.9696 3.34742V2.96703C71.9696 1.19188 70.7016 0 68.8757 0C66.9738 0 65.7566 1.2426 65.7566 2.81488C65.7566 4.36179 66.7202 5.14793 67.9628 5.75655L69.2308 6.33981C70.1691 6.77092 70.9298 7.15131 70.9298 8.44463C70.9298 9.48436 70.1944 10.3973 68.8504 10.3973C67.5317 10.3973 66.7963 9.61116 66.7963 8.59679V8.0896H65.5537V8.52071C65.5537 10.2959 66.9484 11.4877 68.9011 11.4877C70.9552 11.4877 72.1978 10.1691 72.1978 8.31784C72.1978 6.39053 70.9045 5.75655 69.6365 5.14793L68.3939 4.56467C67.6078 4.18428 66.9992 3.82925 66.9992 2.76416C66.9992 1.87658 67.6839 1.11581 68.8504 1.11581C70.0676 1.11581 70.7523 1.87658 70.7523 2.91631V3.34742H71.9696ZM62.2063 3.34742V2.96703C62.2063 1.19188 60.9383 0 59.1124 0C57.2105 0 55.9932 1.2426 55.9932 2.81488C55.9932 4.36179 56.9569 5.14793 58.1995 5.75655L59.4421 6.33981C60.3804 6.77092 61.1412 7.15131 61.1412 8.44463C61.1412 9.48436 60.4058 10.3973 59.0617 10.3973C57.743 10.3973 57.0076 9.61116 57.0076 8.59679V8.0896H55.7904V8.52071C55.7904 10.2959 57.1851 11.4877 59.1378 11.4877C61.1919 11.4877 62.4345 10.1691 62.4345 8.31784C62.4345 6.39053 61.1412 5.75655 59.8732 5.14793L58.6306 4.56467C57.8445 4.18428 57.2358 3.82925 57.2358 2.76416C57.2358 1.87658 57.9205 1.11581 59.0871 1.11581C60.3043 1.11581 60.989 1.87658 60.989 2.91631V3.34742H62.2063ZM52.2147 6.18766V5.04649H48.0812V1.31868H52.5951V0.177515H46.8132V11.3102H52.7473V10.1437H48.1065V6.18766H52.2147ZM42.5782 0.177515H41.3863V8.49535L37.2274 0.177515H36.0862V11.3102H37.2781V2.84024L41.5131 11.2849H42.5782V0.177515ZM31.9019 0.177515H30.6086V11.3102H31.9019V0.177515ZM26.7287 3.34742V2.96703C26.7287 1.19188 25.4607 0 23.6348 0C21.7329 0 20.5156 1.2426 20.5156 2.81488C20.5156 4.36179 21.4793 5.14793 22.7219 5.75655L23.9645 6.33981C24.9028 6.77092 25.6636 7.15131 25.6636 8.44463C25.6636 9.48436 24.9282 10.3973 23.5841 10.3973C22.2654 10.3973 21.53 9.61116 21.53 8.59679V8.0896H20.2874V8.52071C20.2874 10.2959 21.6822 11.4877 23.6348 11.4877C25.6889 11.4877 26.9315 10.1691 26.9315 8.31784C26.9315 6.39053 25.6382 5.75655 24.3702 5.14793L23.1276 4.56467C22.3415 4.18428 21.7329 3.82925 21.7329 2.76416C21.7329 1.87658 22.4176 1.11581 23.5841 1.11581C24.8014 1.11581 25.4861 1.87658 25.4861 2.91631V3.34742H26.7287ZM15.4691 0.177515V8.03888C15.4691 9.33221 14.7337 10.3212 13.4911 10.3212C12.2232 10.3212 11.4877 9.33221 11.4877 8.03888V0.177515H10.1944V8.01353C10.1944 10.1437 11.5385 11.4877 13.4911 11.4877C15.4184 11.4877 16.7625 10.1437 16.7625 8.01353V0.177515H15.4691ZM3.32206 6.13694C4.56467 6.13694 5.32544 6.94844 5.32544 8.16568C5.32544 9.35756 4.53931 10.1691 3.22063 10.1691H1.29332V6.13694H3.32206ZM2.96703 1.29332C4.28571 1.29332 5.07185 2.00338 5.07185 3.09383C5.07185 4.28571 4.28571 5.04649 3.06847 5.04649H1.29332V1.29332H2.96703ZM3.2967 11.2849C5.32544 11.2849 6.64413 10.093 6.64413 8.2164C6.64413 6.9738 6.11158 6.11158 4.89434 5.52832V5.50296C5.93407 4.9197 6.39053 4.1082 6.39053 2.99239C6.39053 1.26796 4.99577 0.152156 3.01775 0.152156H0V11.2849H3.2967ZM71.9696 21.885V21.5046C71.9696 19.7295 70.7016 18.5376 68.8757 18.5376C66.9738 18.5376 65.7566 19.7802 65.7566 21.3525C65.7566 22.8994 66.7202 23.6855 67.9628 24.2942L69.2054 24.8774C70.1437 25.3085 70.9045 25.6889 70.9045 26.9822C70.9045 28.022 70.1691 28.9349 68.825 28.9349C67.5063 28.9349 66.7709 28.1488 66.7709 27.1344V26.6272H65.5283V27.0583C65.5283 28.8335 66.9231 30.0254 68.8757 30.0254C70.9298 30.0254 72.1724 28.7067 72.1724 26.8555C72.1724 24.9281 70.8791 24.2942 69.6112 23.6855L68.3686 23.1023C67.5824 22.7219 66.9738 22.3669 66.9738 21.3018C66.9738 20.4142 67.6585 19.6534 68.825 19.6534C70.0423 19.6534 70.727 20.4142 70.727 21.4539V21.885H71.9696ZM58.7574 19.8563C60.1268 19.8563 60.8876 20.896 60.8876 22.3161V26.2215C60.8876 27.6416 60.1268 28.6813 58.7574 28.6813H56.8047V19.8563H58.7574ZM58.7574 18.7151H55.5368V29.8478H58.7828C60.8622 29.8478 62.2063 28.4531 62.2063 26.1961V22.3415C62.1809 20.1099 60.8369 18.7151 58.7574 18.7151ZM46.5596 29.8478V25.4607H48.1319C48.3347 25.4607 48.6391 25.4353 48.7151 25.4353L50.4142 29.8478H51.809L49.9831 25.131C51.0989 24.6492 51.8343 23.5334 51.8343 22.0372C51.8343 20.0338 50.2874 18.7151 48.1572 18.7151H45.2663V29.8478H46.5596ZM48.0812 19.8563C49.5774 19.8563 50.4903 20.7185 50.4903 22.0372C50.4903 23.432 49.552 24.3449 48.0812 24.3449H46.5342V19.8563H48.0812ZM40.6509 29.8478H41.9949L38.7743 18.7151H37.4556L34.2604 29.8478H35.5283L36.213 27.2866H39.9662L40.6509 29.8478ZM39.6112 26.1707H36.5173L38.0642 20.4396L39.6112 26.1707ZM28.7574 29.8478H29.9239L32.1809 18.7151H30.9383L29.3407 27.4134L27.6416 18.7151H26.4497L24.8014 27.4134L23.1784 18.7151H21.885L24.142 29.8478H25.3339L27.0076 21.0989L28.7574 29.8478ZM18.4615 24.7253V23.5841H14.328V19.8563H18.8419V18.7151H13.06V29.8478H18.9941V28.7067H14.328V24.7253H18.4615ZM4.08284 29.8478V25.4607H5.65511C5.85799 25.4607 6.1623 25.4353 6.23838 25.4353L7.93745 29.8478H9.33221L7.50634 25.131C8.62215 24.6492 9.35757 23.5334 9.35757 22.0372C9.35757 20.0338 7.81065 18.7151 5.68047 18.7151H2.78952V29.8478H4.08284ZM5.62976 19.8563C7.12595 19.8563 8.03889 20.7185 8.03889 22.0372C8.03889 23.432 7.10059 24.3449 5.62976 24.3449H4.08284V19.8563H5.62976Z" fill="#323232"/>
<defs>
<linearGradient id="paint0_linear_15605_2577" x1="101.735" y1="29.7298" x2="81.4376" y2="0.0863146" gradientUnits="userSpaceOnUse">
<stop stop-color="#BE0000"/>
<stop offset="0.3898" stop-color="#DE0000"/>
<stop offset="0.768" stop-color="#F60000"/>
<stop offset="1" stop-color="#FF0000"/>
</linearGradient>
<linearGradient id="paint1_linear_15605_2577" x1="96.1262" y1="16.3478" x2="96.3998" y2="13.2204" gradientUnits="userSpaceOnUse">
<stop offset="0.65" stop-color="white" stop-opacity="0"/>
<stop offset="0.7285" stop-color="#E0E0E0" stop-opacity="0.2617"/>
<stop offset="0.8148" stop-color="#C5C5C5" stop-opacity="0.5493"/>
<stop offset="0.8914" stop-color="#B5B5B5" stop-opacity="0.8047"/>
<stop offset="0.95" stop-color="#AFAFAF"/>
</linearGradient>
<linearGradient id="paint2_linear_15605_2577" x1="92.1069" y1="24.6001" x2="105.27" y2="24.6001" gradientUnits="userSpaceOnUse">
<stop stop-color="white" stop-opacity="0"/>
<stop offset="0.0839079" stop-color="#F1F1F1" stop-opacity="0.093231"/>
<stop offset="0.2921" stop-color="#D4D4D4" stop-opacity="0.3246"/>
<stop offset="0.4993" stop-color="#C0C0C0" stop-opacity="0.5548"/>
<stop offset="0.7032" stop-color="#B3B3B3" stop-opacity="0.7814"/>
<stop offset="0.9" stop-color="#AFAFAF"/>
</linearGradient>
<linearGradient id="paint3_linear_15605_2577" x1="75.6674" y1="10.9488" x2="90.3811" y2="10.9488" gradientUnits="userSpaceOnUse">
<stop offset="0.25" stop-color="white" stop-opacity="0"/>
<stop offset="0.4615" stop-color="#EDEDED" stop-opacity="0.282"/>
<stop offset="0.886" stop-color="#BDBDBD" stop-opacity="0.848"/>
<stop offset="1" stop-color="#AFAFAF"/>
</linearGradient>
</defs>
</svg>
