<svg width="48" height="48" viewBox="0 0 48 48" fill="none" xmlns="http://www.w3.org/2000/svg">
<path d="M30.6792 18.3204C30.1092 18.3204 29.7192 18.2404 29.6792 18.2304C25.7592 17.4704 25.2492 14.2704 25.5392 12.6804C25.6592 11.1604 24.4392 9.7304 22.8192 9.6104C21.1992 9.4904 19.7792 10.7004 19.6492 12.3204C19.6092 12.8704 19.1092 13.2804 18.5692 13.2404C18.0192 13.2004 17.6092 12.7104 17.6492 12.1604C17.8692 9.4404 20.2592 7.4104 22.9792 7.6204C25.6992 7.8404 27.7392 10.2204 27.5192 12.9404C27.4392 13.4804 27.2192 15.7204 30.0792 16.2804C30.1092 16.2804 31.5692 16.5704 32.5992 15.7004C33.0192 15.3404 33.6492 15.3904 34.0092 15.8104C34.3692 16.2304 34.3192 16.8604 33.8992 17.2204C32.8192 18.1404 31.5492 18.3204 30.6792 18.3204Z" fill="#323232"/>
<path d="M24.0102 7.43996C23.8502 7.43996 23.6802 7.42996 23.5202 7.39996C21.9702 7.12996 20.9302 5.64996 21.1902 4.09996C21.4602 2.54996 22.9502 1.50996 24.4902 1.77996C26.0402 2.04996 27.0802 3.52996 26.8202 5.07996C26.5802 6.46996 25.3702 7.44996 24.0102 7.44996V7.43996ZM24.0002 3.71996C23.5902 3.71996 23.2302 4.00996 23.1602 4.42996C23.0802 4.88996 23.3902 5.33996 23.8602 5.41996C24.3202 5.50996 24.7702 5.18996 24.8502 4.71996C24.9302 4.24996 24.6202 3.80996 24.1502 3.72996C24.1002 3.72996 24.0502 3.71996 24.0002 3.71996Z" fill="#DF0000"/>
<path d="M25.4203 40.3505C25.2903 40.3505 25.1603 40.3505 25.0303 40.3305C22.3103 40.1105 20.2703 37.7305 20.4903 35.0105C20.5703 34.4705 20.7903 32.2305 17.9303 31.6705C17.9003 31.6705 16.4403 31.3805 15.4103 32.2505C14.9903 32.6105 14.3603 32.5605 14.0003 32.1405C13.6403 31.7205 13.6903 31.0905 14.1103 30.7305C15.9003 29.2105 18.2203 29.6905 18.3203 29.7105C22.2403 30.4705 22.7503 33.6705 22.4603 35.2605C22.3403 36.7805 23.5603 38.2105 25.1803 38.3305C26.8003 38.4605 28.2203 37.2505 28.3503 35.6205C28.3903 35.0705 28.8803 34.6605 29.4303 34.7005C29.9803 34.7405 30.3903 35.2305 30.3503 35.7805C30.1403 38.3705 27.9703 40.3405 25.4203 40.3405V40.3505Z" fill="#323232"/>
<path d="M24.0005 46.2202C23.8405 46.2202 23.6705 46.2102 23.5105 46.1802C21.9605 45.9102 20.9205 44.4302 21.1805 42.8802C21.4505 41.3302 22.9305 40.2902 24.4805 40.5602C26.0305 40.8302 27.0705 42.3102 26.8105 43.8602C26.5705 45.2502 25.3605 46.2302 24.0005 46.2302V46.2202ZM24.0005 42.5102C23.5905 42.5102 23.2305 42.8002 23.1605 43.2202C23.0805 43.6902 23.3905 44.1302 23.8605 44.2102C24.3305 44.2902 24.7705 43.9802 24.8505 43.5102C24.9305 43.0502 24.6205 42.6002 24.1505 42.5202C24.1005 42.5202 24.0505 42.5102 24.0005 42.5102Z" fill="#8DE2E0"/>
<path d="M14.809 35.8596C14.249 35.8596 13.689 35.7596 13.149 35.5696C11.899 35.1296 10.899 34.2296 10.339 33.0296C9.76903 31.8396 9.69903 30.4896 10.139 29.2496C10.579 27.9996 11.479 26.9996 12.679 26.4396C13.179 26.2496 15.239 25.3096 14.289 22.5496C14.289 22.5196 13.789 21.1096 12.529 20.6596C12.009 20.4696 11.739 19.8996 11.919 19.3796C12.109 18.8596 12.669 18.5896 13.199 18.7696C15.409 19.5596 16.159 21.8196 16.189 21.9096C17.489 25.6896 14.969 27.7196 13.449 28.2696C12.829 28.5696 12.289 29.1696 12.029 29.9096C11.769 30.6496 11.809 31.4496 12.149 32.1596C12.489 32.8696 13.079 33.4096 13.829 33.6696C14.569 33.9296 15.369 33.8896 16.079 33.5496C16.579 33.3096 17.179 33.5196 17.409 34.0196C17.649 34.5196 17.439 35.1196 16.939 35.3496C16.269 35.6696 15.539 35.8296 14.819 35.8296L14.809 35.8596Z" fill="#323232"/>
<path d="M7.20053 36.5195C6.79053 36.5195 6.38053 36.4295 6.00053 36.2495C5.31053 35.9295 4.78053 35.3595 4.52053 34.6395C4.26053 33.9195 4.29053 33.1495 4.61053 32.4595C4.93053 31.7695 5.50053 31.2395 6.22053 30.9795C6.93053 30.7195 7.71053 30.7495 8.40053 31.0695C9.09053 31.3895 9.62053 31.9595 9.88053 32.6795C10.1405 33.3995 10.1105 34.1695 9.79053 34.8595C9.47053 35.5495 8.90053 36.0795 8.18053 36.3395C7.86053 36.4595 7.53053 36.5195 7.20053 36.5195ZM7.20053 32.8095C7.10053 32.8095 7.00053 32.8295 6.90053 32.8595C6.69053 32.9395 6.51053 33.0995 6.42053 33.2995C6.33053 33.4995 6.31053 33.7395 6.39053 33.9495C6.47053 34.1695 6.63053 34.3395 6.83053 34.4295C7.04053 34.5295 7.27053 34.5295 7.49053 34.4595C7.70053 34.3795 7.88053 34.2195 7.97053 34.0195C8.06053 33.8195 8.08053 33.5795 8.00053 33.3695C7.92053 33.1495 7.76053 32.9795 7.56053 32.8895C7.45053 32.8395 7.32053 32.8095 7.20053 32.8095Z" fill="#DF0000"/>
<path d="M35.1395 29.2202C35.0295 29.2202 34.9195 29.2002 34.7995 29.1602C32.5895 28.3702 31.8395 26.1102 31.8095 26.0202C30.5095 22.2402 33.0295 20.2102 34.5495 19.6602C35.1695 19.3602 35.7095 18.7602 35.9695 18.0202C36.2295 17.2802 36.1895 16.4802 35.8495 15.7702C35.5095 15.0602 34.9195 14.5202 34.1695 14.2602C33.4295 14.0002 32.6295 14.0402 31.9195 14.3802C31.4195 14.6202 30.8295 14.4102 30.5895 13.9102C30.3495 13.4102 30.5595 12.8102 31.0595 12.5802C32.2495 12.0102 33.5995 11.9402 34.8395 12.3802C36.0895 12.8202 37.0895 13.7202 37.6495 14.9202C38.2195 16.1102 38.2895 17.4602 37.8495 18.7002C37.4095 19.9502 36.5095 20.9502 35.3095 21.5102C34.8095 21.7002 32.7495 22.6402 33.6995 25.4002C33.6995 25.4302 34.1995 26.8402 35.4595 27.2902C35.9795 27.4802 36.2495 28.0502 36.0695 28.5702C35.9195 28.9802 35.5395 29.2302 35.1295 29.2302L35.1395 29.2202Z" fill="#323232"/>
<path d="M40.7904 17.1396C40.3804 17.1396 39.9704 17.0496 39.5904 16.8696C38.9004 16.5496 38.3704 15.9796 38.1104 15.2596C37.8504 14.5396 37.8804 13.7696 38.2004 13.0796C38.5204 12.3896 39.0904 11.8596 39.8104 11.5996C40.5204 11.3396 41.3004 11.3696 41.9904 11.6896C42.6804 12.0096 43.2104 12.5796 43.4704 13.2996C43.7304 14.0196 43.7004 14.7896 43.3804 15.4796C43.0604 16.1696 42.4904 16.6996 41.7704 16.9596C41.4504 17.0796 41.1204 17.1396 40.7904 17.1396ZM40.8004 13.4196C40.7004 13.4196 40.6004 13.4396 40.5004 13.4696C40.2904 13.5496 40.1104 13.7096 40.0204 13.9096C39.9304 14.1096 39.9104 14.3496 39.9904 14.5596C40.0704 14.7796 40.2304 14.9496 40.4304 15.0396C40.6304 15.1296 40.8704 15.1396 41.0904 15.0696C41.3004 14.9896 41.4804 14.8296 41.5704 14.6296C41.6604 14.4296 41.6804 14.1896 41.6004 13.9796C41.5204 13.7596 41.3604 13.5896 41.1604 13.4996C41.0504 13.4496 40.9204 13.4196 40.8004 13.4196Z" fill="#8DE2E0"/>
<path d="M25.8908 36.7397C25.4208 36.7397 25.0008 36.3997 24.9108 35.9197C24.4908 33.6097 26.0708 31.8397 26.1408 31.7597C28.7608 28.7397 31.7808 29.9097 33.0208 30.9497C34.2808 31.8097 36.1208 31.4697 37.0408 30.1297C37.9608 28.7897 37.6208 26.9497 36.2808 26.0297C35.8208 25.7197 35.7108 25.0897 36.0208 24.6397C36.3308 24.1897 36.9608 24.0697 37.4108 24.3797C38.5008 25.1297 39.2308 26.2597 39.4708 27.5597C39.7108 28.8597 39.4308 30.1797 38.6808 31.2697C37.9308 32.3597 36.8008 33.0897 35.5008 33.3297C34.2008 33.5697 32.8808 33.2897 31.8008 32.5397C31.3808 32.1997 29.5408 30.8897 27.6308 33.0897C27.6108 33.1097 26.6308 34.2397 26.8708 35.5597C26.9708 36.0997 26.6108 36.6197 26.0708 36.7197C26.0108 36.7297 25.9508 36.7397 25.8908 36.7397Z" fill="#323232"/>
<path d="M40.7894 36.5301C40.1394 36.5301 39.4994 36.3101 38.9594 35.8701C37.7494 34.8601 37.5894 33.0501 38.5994 31.8501C39.6094 30.6401 41.4194 30.4801 42.6294 31.4901C43.8394 32.5001 43.9994 34.3101 42.9894 35.5101C42.4294 36.1901 41.6094 36.5301 40.7894 36.5301ZM40.2394 34.3301C40.5994 34.6301 41.1494 34.5801 41.4494 34.2201C41.7494 33.8601 41.6994 33.3201 41.3394 33.0101C40.9794 32.7101 40.4294 32.7601 40.1294 33.1201C39.8294 33.4801 39.8794 34.0201 40.2394 34.3301Z" fill="#DF0000"/>
<path d="M11.161 23.7401C10.961 23.7401 10.771 23.6801 10.591 23.5601C9.50097 22.8101 8.77097 21.6801 8.53097 20.3801C8.29097 19.0801 8.57097 17.7601 9.32097 16.6701C10.071 15.5801 11.201 14.8501 12.501 14.6101C13.801 14.3701 15.121 14.6501 16.201 15.4001C16.621 15.7401 18.461 17.0501 20.371 14.8501C20.391 14.8301 21.371 13.7001 21.131 12.3801C21.031 11.8401 21.391 11.3201 21.931 11.2201C22.471 11.1301 22.991 11.4801 23.091 12.0201C23.511 14.3301 21.931 16.1001 21.861 16.1801C19.241 19.2001 16.211 18.0301 14.981 16.9901C13.721 16.1301 11.881 16.4701 10.961 17.8101C10.041 19.1501 10.381 20.9901 11.721 21.9101C12.181 22.2201 12.291 22.8501 11.981 23.3001C11.791 23.5801 11.471 23.7301 11.151 23.7301L11.161 23.7401Z" fill="#323232"/>
<path d="M7.20936 17.1297C6.55936 17.1297 5.90936 16.9097 5.37936 16.4697C4.16936 15.4597 4.00936 13.6497 5.01936 12.4497C6.02936 11.2397 7.82936 11.0797 9.03936 12.0897C10.2494 13.0997 10.4094 14.9097 9.39936 16.1097C8.83936 16.7897 8.01936 17.1297 7.19936 17.1297H7.20936ZM7.20936 13.4197C6.95936 13.4197 6.71936 13.5197 6.54936 13.7297C6.24936 14.0897 6.29936 14.6297 6.65936 14.9397C7.01936 15.2397 7.56936 15.1897 7.86936 14.8297C8.16936 14.4697 8.11936 13.9297 7.75936 13.6197C7.59936 13.4897 7.40936 13.4197 7.20936 13.4197Z" fill="#8DE2E0"/>
</svg>
