<svg width="48" height="48" viewBox="0 0 48 48" fill="none" xmlns="http://www.w3.org/2000/svg">
<path d="M5.56055 13.8496H41.6505C43.0805 13.8496 44.2505 15.0096 44.2505 16.4496V22.9396L5.56055 13.8496Z" fill="#8DE2E0"/>
<path d="M41.55 12.85H31.75V11.15C31.75 7.62 28.88 4.75 25.35 4.75H22.65C19.12 4.75 16.25 7.62 16.25 11.15V12.85H6.45C4.41 12.85 2.75 14.51 2.75 16.55V31.4C2.75 31.95 3.2 32.4 3.75 32.4H4.1V42.2C4.1 42.75 4.55 43.2 5.1 43.2H42.9C43.45 43.2 43.9 42.75 43.9 42.2V32.4H44.25C44.8 32.4 45.25 31.95 45.25 31.4V16.55C45.25 14.51 43.59 12.85 41.55 12.85ZM18.25 11.15C18.25 8.72 20.22 6.75 22.65 6.75H25.35C27.78 6.75 29.75 8.72 29.75 11.15V12.85H18.25V11.15ZM41.9 41.2H6.1V32.4H18.5C19.05 32.4 19.5 31.95 19.5 31.4C19.5 30.85 19.05 30.4 18.5 30.4H4.75V16.55C4.75 15.61 5.51 14.85 6.45 14.85H41.55C42.49 14.85 43.25 15.61 43.25 16.55V30.4H29.52C28.97 30.4 28.52 30.85 28.52 31.4C28.52 31.95 28.97 32.4 29.52 32.4H41.9V41.2Z" fill="#323232"/>
<path d="M21.9408 28.7002H26.0708C26.4208 28.7002 26.7108 28.9802 26.7108 29.3402V33.4702C26.7108 33.8202 26.4308 34.1102 26.0708 34.1102H21.9408C21.5908 34.1102 21.3008 33.8302 21.3008 33.4702V29.3402C21.3008 28.9902 21.5808 28.7002 21.9408 28.7002Z" fill="#DF0000"/>
</svg>
