<svg width="24" height="24" viewBox="0 0 24 24" fill="none" xmlns="http://www.w3.org/2000/svg">
<path fill-rule="evenodd" clip-rule="evenodd" d="M2 12C2 17.52 6.48 22 12 22C17.52 22 22 17.52 22 12C22 6.48 17.52 2 12 2C6.48 2 2 6.48 2 12ZM12 4C16.4154 4 20 7.58457 20 12C20 16.4154 16.4154 20 12 20C7.58457 20 4 16.4154 4 12C4 7.58457 7.58457 4 12 4ZM12 6C9.87486 6 8.15359 7.62834 8.15359 9.63874H10.0768C10.0768 8.63809 10.9422 7.81937 12 7.81937C13.0578 7.81937 13.9232 8.63809 13.9232 9.63874C13.9232 10.4385 13.3657 10.8428 12.7409 11.2959C11.9443 11.8735 11.0384 12.5304 11.0384 14.1872H12.9616C12.9616 13.1907 13.6453 12.6255 14.347 12.0453C15.0867 11.4338 15.8464 10.8058 15.8464 9.63874C15.8464 7.62834 14.1251 6 12 6ZM11 18V16H13V18H11Z" fill="#323232"/>
</svg>
