<svg width="72" height="72" viewBox="0 0 72 72" fill="none" xmlns="http://www.w3.org/2000/svg">
<g clip-path="url(#clip0_11415_5925)">
<circle cx="36" cy="36" r="36" fill="url(#paint0_linear_11415_5925)"/>
<path d="M52.2621 51.3313H55.9862V52.883H52.2621V56.2968H50.6483V52.883H46.9862V51.3313H50.6483V47.9175H52.2621V51.3313Z" fill="white"/>
<path d="M44.8758 26.6276C44.8758 26.6276 44.9379 26.6276 44.8758 26.6276C44.9379 26.6276 44.9379 26.6276 45 26.6276C45 26.6276 45.062 26.5655 45 26.5035C43.2 24.5793 40.9034 23.0276 38.4207 21.9724L37.6758 21.6621C37.3034 21.4759 36.9931 21.1035 36.9931 20.669C37.0551 18.9931 40.9034 19.3656 41.3379 18.6207L41.4 18.4966C40.5931 17.8138 39.662 17.2552 38.6069 17.0069C38.6069 17.069 38.5448 17.2552 38.7931 17.5655C39.0414 17.938 38.5448 18.5587 37.862 17.8759L37.8 17.8138C32.6482 13.0345 30.2276 16.138 26.7517 10.6138C26.7517 10.5518 26.6896 10.5518 26.6276 10.5518C26.5655 10.5518 26.5655 10.6138 26.5655 10.6759C29.2965 17.3173 34.9448 15.9518 35.5655 22.1587C35.5655 22.4069 35.7517 22.5931 36 22.5931C39.1655 23.1518 42.2069 24.5173 44.8758 26.6276Z" fill="white"/>
<path d="M15.0977 41.586H16.4185V37.5019H18.5909C20.8328 37.5019 22.4491 36.042 22.4491 33.8001C22.4491 31.5929 20.8328 30.1678 18.5909 30.1678H15.0977V41.586ZM18.504 31.3322C20.1029 31.3322 21.0935 32.3055 21.0935 33.8175C21.0935 35.3295 20.1029 36.3375 18.504 36.3375H16.4185V31.3322H18.504Z" fill="white"/>
<path d="M30.5299 36.2158C30.5299 34.1824 29.2091 32.9137 27.28 32.9137C25.3509 32.9137 24.0475 34.1824 24.0475 36.2158V38.4577C24.0475 40.4911 25.3509 41.7598 27.28 41.7598C29.2091 41.7598 30.5299 40.4911 30.5299 38.4577V36.2158ZM25.3161 36.1289C25.3161 34.9297 26.0287 34.026 27.28 34.026C28.5313 34.026 29.2439 34.9297 29.2439 36.1289V38.562C29.2439 39.7612 28.5313 40.6649 27.28 40.6649C26.0287 40.6649 25.3161 39.7612 25.3161 38.562V36.1289Z" fill="white"/>
<path d="M32.5529 30.6892C32.5529 31.141 32.9178 31.506 33.3871 31.506C33.8389 31.506 34.2039 31.141 34.2039 30.6892C34.2039 30.2199 33.8389 29.855 33.3871 29.855C32.9178 29.855 32.5529 30.2199 32.5529 30.6892ZM32.744 33.0875V41.586H34.0127V33.0875H32.744Z" fill="white"/>
<path d="M37.7805 41.586V36.1463C37.7805 34.9645 38.5278 34.0434 39.7791 34.0434C41.0131 34.0434 41.6561 34.9124 41.6561 36.0073V41.586H42.9248V36.0246C42.9248 34.1303 41.8646 32.9137 40.0051 32.9137C38.9971 32.9137 38.1802 33.3482 37.6762 34.0955L37.4851 33.0875H36.5118V41.586H37.7805Z" fill="white"/>
<path d="M44.4869 34.2172H46.1205V41.586H47.4066V34.2172H49.0403V33.1397H47.4066V30.8282H46.1205V33.1397H44.4869V34.2172Z" fill="white"/>
<path d="M50.2473 38.9617V39.1877C50.2473 40.7866 51.5681 41.7598 53.4277 41.7598C55.2699 41.7598 56.4517 40.6997 56.4517 39.1703C56.4517 37.693 55.4263 37.1717 54.1576 36.7719L52.7152 36.3201C52.0026 36.1115 51.6898 35.7639 51.6898 35.1904C51.6898 34.3215 52.5761 33.9217 53.3582 33.9217C54.5226 33.9217 55.183 34.5474 55.183 35.3295V35.538H56.3822V35.399C56.3822 33.8348 55.1483 32.9137 53.3582 32.9137C51.655 32.9137 50.4906 34.0086 50.4906 35.2947C50.4906 36.6155 51.4639 37.2238 52.4545 37.5193L54.0881 38.0233C54.8876 38.2666 55.2178 38.6142 55.2178 39.3093C55.2178 40.1435 54.5921 40.7344 53.4103 40.7344C52.159 40.7344 51.4291 40.1088 51.4291 39.2572V38.9617H50.2473Z" fill="white"/>
<path d="M21.5578 54.0746V54.4744C21.5578 55.7604 20.6888 56.6989 19.1421 56.6989C17.6127 56.6989 16.7263 55.6735 16.7263 54.2832V49.7472C16.7263 48.3568 17.6127 47.3315 19.1421 47.3315C20.6888 47.3315 21.5578 48.2699 21.5578 49.556V49.8515H22.8265V49.5908C22.8265 47.4531 21.3319 46.1323 19.1421 46.1323C16.8654 46.1323 15.4055 47.54 15.4055 49.7819V54.2484C15.4055 56.4904 16.9349 57.8981 19.1421 57.8981C21.3319 57.8981 22.8265 56.5773 22.8265 54.4396V54.0746H21.5578Z" fill="white"/>
<path d="M25.084 45.9585V57.7243H26.3701V45.9585H25.084Z" fill="white"/>
<path d="M28.8655 54.8567C28.8655 56.6989 29.8909 57.8981 31.6983 57.8981C32.689 57.8981 33.5058 57.4636 34.0098 56.751L34.201 57.7243H35.1742V49.2258H33.9055V54.6829C33.9055 55.8647 33.1582 56.7684 31.9243 56.7684C30.7425 56.7684 30.1342 55.9342 30.1342 54.8567V49.2258H28.8655V54.8567Z" fill="white"/>
<path d="M38.84 56.751C39.344 57.4636 40.1435 57.8981 41.1515 57.8981C42.9937 57.8981 44.0886 56.6642 44.0886 54.7524V52.1977C44.0886 50.2859 42.9937 49.052 41.1515 49.052C40.213 49.052 39.4483 49.4344 38.9443 50.0774V45.9585H37.6756V57.7243H38.6489L38.84 56.751ZM38.9443 54.6829V52.2846C38.9443 51.1028 39.6916 50.1817 40.9429 50.1817C42.1768 50.1817 42.8199 51.0506 42.8199 52.1455V54.8046C42.8199 55.9168 42.1768 56.7684 40.9429 56.7684C39.6916 56.7684 38.9443 55.8647 38.9443 54.6829Z" fill="white"/>
</g>
<defs>
<linearGradient id="paint0_linear_11415_5925" x1="-0.0186004" y1="35.9691" x2="71.9515" y2="35.9691" gradientUnits="userSpaceOnUse">
<stop stop-color="#005794"/>
<stop offset="1" stop-color="#104778"/>
</linearGradient>
<clipPath id="clip0_11415_5925">
<rect width="72" height="72" fill="white"/>
</clipPath>
</defs>
</svg>
