<svg width="24" height="24" viewBox="0 0 24 24" fill="none" xmlns="http://www.w3.org/2000/svg">
<g clip-path="url(#clip0_10496_9574)">
<path fill-rule="evenodd" clip-rule="evenodd" d="M16 2H18V6.41667L19.6339 8.73141C19.8721 9.06884 20 9.47174 20 9.88478V21C20 21.5523 19.5523 22 19 22H15C14.4477 22 14 21.5523 14 21V9.88478C14 9.47174 14.1279 9.06884 14.3661 8.73141L16 6.41667V2ZM5.3512 12.3233C5.39755 11.9228 5.44724 11.523 5.49693 11.1429H10.4972C10.5469 11.523 10.5966 11.9228 10.6429 12.3233C10.6725 12.579 10.6998 12.827 10.7243 13.0644C10.7372 13.1896 10.7492 13.3111 10.7604 13.4286H5.23375C5.24489 13.3111 5.25694 13.1896 5.26986 13.0644C5.29433 12.827 5.32161 12.579 5.3512 12.3233ZM11.8611 12.9471C11.8783 13.114 11.8941 13.2747 11.9082 13.4286H11.9115L11.9552 13.9525C11.9926 14.4022 12 14.5082 12 14.6857C12 16.2142 10.5858 17.7411 8.56842 17.9704V20.8571H10.2924C10.608 20.8571 10.8638 21.113 10.8638 21.4286C10.8638 21.7442 10.608 22 10.2924 22H5.70159C5.386 22 5.13016 21.7442 5.13016 21.4286C5.13016 21.113 5.386 20.8571 5.70159 20.8571H7.42556V17.9591C5.43937 17.6936 4 16.1772 4 14.6857C4 14.5161 4.00672 14.4118 4.03999 14.0108C4.03968 13.9932 4.04017 13.9754 4.04151 13.9575C4.06408 13.6551 4.09497 13.3162 4.13302 12.9471C4.15801 12.7048 4.1858 12.4521 4.21592 12.1919C4.26297 11.7853 4.31336 11.3799 4.36374 10.9945C4.394 10.7631 4.41757 10.5894 4.43114 10.4923C4.4706 10.21 4.71204 10 4.99707 10H10.9971C11.2821 10 11.5235 10.21 11.563 10.4923C11.5766 10.5894 11.6001 10.7631 11.6304 10.9945C11.6808 11.3799 11.7312 11.7853 11.7782 12.1919C11.8083 12.4521 11.8361 12.7048 11.8611 12.9471Z" fill="#323232"/>
</g>
<defs>
<clipPath id="clip0_10496_9574">
<rect width="24" height="24" fill="white"/>
</clipPath>
</defs>
</svg>
