<svg width="48" height="48" viewBox="0 0 48 48" fill="none" xmlns="http://www.w3.org/2000/svg">
<path d="M7.12973 23.9198C6.83973 24.2098 6.55973 24.5098 6.30973 24.8398C5.97973 25.2798 6.06973 25.9098 6.50973 26.2398C6.94973 26.5698 7.57973 26.4798 7.90973 26.0398C9.09973 24.4498 10.9997 23.4998 12.9897 23.4998H13.1397C13.6397 23.4998 14.0697 23.1298 14.1297 22.6298C14.6197 18.7798 17.1597 15.4798 20.7497 14.0198C26.2497 11.7898 32.5197 14.4498 34.7497 19.9398C34.8997 20.3198 35.2697 20.5598 35.6797 20.5598H36.5497C39.8597 20.5598 42.8097 22.6498 43.9197 25.7698C44.0597 26.1798 44.4497 26.4398 44.8597 26.4398C44.9697 26.4398 45.0797 26.4198 45.1897 26.3798C45.7097 26.1998 45.9797 25.6198 45.7997 25.0998C44.4097 21.1798 40.6997 18.5598 36.5597 18.5598C36.5397 18.5598 36.5097 18.5598 36.4897 18.5598H36.3397C33.5997 12.7198 26.8897 9.85984 20.7797 11.8898C19.4097 7.98984 15.7597 5.33984 11.5297 5.33984H11.0097C10.6697 5.33984 10.3597 5.50984 10.1797 5.78984C9.98973 6.06984 9.95973 6.42984 10.0997 6.73984C11.2597 9.42984 10.0097 12.5698 7.31973 13.7198C5.97973 14.2998 4.44973 14.2998 3.11973 13.7198C2.80973 13.5898 2.44973 13.6198 2.16973 13.7998C1.88973 13.9898 1.71973 14.2998 1.71973 14.6398V15.1598C1.71973 18.8898 3.88973 22.2798 7.13973 23.9198H7.12973ZM8.08973 15.5598C11.3197 14.1698 13.0397 10.7098 12.3697 7.38984C15.4097 7.71984 17.9397 9.77984 18.9097 12.6898C15.4797 14.4798 13.0197 17.7298 12.2797 21.5298C11.1197 21.6298 10.0097 21.9798 8.99973 22.5198C6.14973 21.5398 4.08973 18.9798 3.75973 16.0098C5.20973 16.2998 6.72973 16.1498 8.09973 15.5598H8.08973Z" fill="#323232"/>
<path d="M40.8901 34.7197H8.58008C8.03008 34.7197 7.58008 35.1697 7.58008 35.7197C7.58008 36.2697 8.03008 36.7197 8.58008 36.7197H40.8901C41.4401 36.7197 41.8901 36.2697 41.8901 35.7197C41.8901 35.1697 41.4401 34.7197 40.8901 34.7197Z" fill="#323232"/>
<path d="M45.2996 28.8496H5.63965C5.08965 28.8496 4.63965 29.2996 4.63965 29.8496C4.63965 30.3996 5.08965 30.8496 5.63965 30.8496H45.2996C45.8496 30.8496 46.2996 30.3996 46.2996 29.8496C46.2996 29.2996 45.8496 28.8496 45.2996 28.8496Z" fill="#323232"/>
<path d="M37.9502 40.5996H14.4502C13.9002 40.5996 13.4502 41.0496 13.4502 41.5996C13.4502 42.1496 13.9002 42.5996 14.4502 42.5996H37.9502C38.5002 42.5996 38.9502 42.1496 38.9502 41.5996C38.9502 41.0496 38.5002 40.5996 37.9502 40.5996Z" fill="#323232"/>
<path d="M10.0495 40.5996H7.18945C6.63945 40.5996 6.18945 41.0496 6.18945 41.5996C6.18945 42.1496 6.63945 42.5996 7.18945 42.5996H10.0495C10.5995 42.5996 11.0495 42.1496 11.0495 41.5996C11.0495 41.0496 10.5995 40.5996 10.0495 40.5996Z" fill="#323232"/>
<path fill-rule="evenodd" clip-rule="evenodd" d="M32.0696 20.53C32.3896 19.61 31.7796 17.87 29.6096 16.35C27.4396 14.83 24.3996 14.94 24.3896 16.06C24.3896 16.87 25.6496 16.31 27.8196 17.83C29.9896 19.35 31.4397 21.44 32.0797 20.53" fill="#8DE2E0"/>
</svg>
