<svg width="48" height="48" viewBox="0 0 48 48" fill="none" xmlns="http://www.w3.org/2000/svg">
<path d="M24.0006 44C23.8006 44 23.6106 43.94 23.4406 43.83C8.94063 33.91 1.89062 24.66 1.89062 15.56C1.89062 9.19 7.07062 4 13.4506 4C17.7406 4 21.8706 6.33 24.0106 9.77C26.1506 6.34 30.2806 4 34.5706 4C40.9406 4 46.1306 9.18 46.1306 15.56C46.1306 24.66 39.0806 33.91 24.5806 43.83C24.4106 43.95 24.2106 44 24.0206 44H24.0006ZM13.4406 6C8.17062 6 3.88063 10.29 3.88063 15.56C3.88063 23.72 10.6406 32.54 23.9906 41.79C37.3406 32.54 44.1006 23.72 44.1006 15.56C44.1006 10.29 39.8106 6 34.5406 6C30.3706 6 26.2406 8.74 24.9206 12.38C24.7806 12.78 24.4006 13.04 23.9806 13.04C23.5606 13.04 23.1806 12.78 23.0406 12.38C21.7206 8.74 17.5906 6 13.4206 6H13.4406Z" fill="#323232"/>
<path fill-rule="evenodd" clip-rule="evenodd" d="M42.1397 14.2102C42.8597 13.3802 41.0497 9.93015 37.8397 8.46015C34.8597 7.09015 31.6897 7.41015 31.4997 8.90015C31.2497 10.9402 33.4597 9.24015 37.0997 11.0002C40.0597 12.4302 41.3997 14.7302 42.1397 14.2102Z" fill="#8DE2E0"/>
<path d="M31.9906 24.8998L20.6706 31.2198C19.9806 31.5998 19.1406 31.1098 19.1406 30.3198V17.6698C19.1406 16.8798 19.9906 16.3898 20.6706 16.7698L31.9906 23.0898C32.6906 23.4798 32.6906 24.4998 31.9906 24.8898" fill="#DF0000"/>
</svg>
