<svg width="48" height="48" viewBox="0 0 48 48" fill="none" xmlns="http://www.w3.org/2000/svg">
<path d="M30.28 26.1899C30.89 27.0199 31.73 27.4999 32.62 27.4999C32.8 27.4999 32.98 27.4799 33.17 27.4399C34.48 27.1499 35.3 25.9199 35.34 24.2899C36.81 23.5599 37.57 22.2999 37.28 20.9899C36.99 19.6599 35.71 18.8299 34.07 18.8099C33.36 17.3199 32.07 16.5199 30.74 16.8199C29.43 17.1099 28.61 18.3399 28.57 19.9699C27.1 20.6999 26.34 21.9599 26.63 23.2699C26.83 24.1699 27.48 24.8299 28.38 25.1799L25.54 27.5299V14.8199L29.68 11.3899C29.68 11.3899 29.68 11.3799 29.69 11.3699C30.31 12.1099 31.1 12.5299 31.93 12.5299C32.14 12.5299 32.36 12.4999 32.57 12.4499C33.87 12.1099 34.64 10.8499 34.62 9.20989C36.06 8.41989 36.77 7.12989 36.43 5.83989C36.08 4.51989 34.75 3.73989 33.14 3.78989C32.37 2.32989 31.05 1.57989 29.73 1.92989C28.43 2.26989 27.66 3.52989 27.68 5.16989C26.24 5.95989 25.53 7.24989 25.87 8.53989C26.11 9.44989 26.8 10.0899 27.74 10.3899L25.53 12.2199V10.4299C25.53 9.87989 25.08 9.42989 24.53 9.42989C23.98 9.42989 23.53 9.87989 23.53 10.4299V19.5699L20.58 17.1199C21.6 16.7599 22.29 16.0199 22.46 15.0399C22.69 13.6999 21.83 12.4499 20.31 11.8099C20.21 10.1699 19.32 8.93989 17.98 8.70989C16.65 8.48989 15.44 9.30989 14.78 10.8099C13.15 10.9299 11.96 11.8099 11.74 13.1299C11.51 14.4699 12.37 15.7299 13.89 16.3599C13.99 17.9999 14.88 19.2299 16.22 19.4599C16.36 19.4799 16.51 19.4999 16.65 19.4999C17.5 19.4999 18.28 19.0599 18.87 18.2999L23.45 22.0999C23.45 22.0999 23.51 22.1299 23.53 22.1499V45.0999C23.53 45.6499 23.98 46.0999 24.53 46.0999C25.08 46.0999 25.53 45.6499 25.53 45.0999V30.1299L30.29 26.1899H30.28ZM29.91 21.5699C30.36 21.4199 30.64 20.9799 30.59 20.5099C30.52 19.8799 30.61 18.8899 31.17 18.7699C31.76 18.6299 32.26 19.5399 32.44 20.1399C32.58 20.6099 33.05 20.9099 33.54 20.8399C34.16 20.7499 35.19 20.8299 35.32 21.4199C35.44 21.9799 34.59 22.4799 33.98 22.6799C33.53 22.8299 33.25 23.2699 33.3 23.7399C33.37 24.3699 33.28 25.3599 32.72 25.4799C32.13 25.6199 31.63 24.7099 31.45 24.1099C31.32 23.6799 30.93 23.3999 30.49 23.3999C30.44 23.3999 30.39 23.3999 30.35 23.4099C29.73 23.4999 28.7 23.4199 28.57 22.8299C28.45 22.2699 29.3 21.7699 29.91 21.5699ZM29.08 6.71989C29.52 6.54989 29.79 6.09989 29.71 5.62989C29.61 4.99989 29.67 4.00989 30.22 3.85989C30.81 3.70989 31.34 4.58989 31.55 5.17989C31.71 5.64989 32.19 5.92989 32.68 5.83989C33.3 5.72989 34.33 5.75989 34.48 6.34989C34.63 6.89989 33.79 7.43989 33.19 7.65989C32.75 7.82989 32.48 8.27989 32.56 8.74989C32.66 9.37989 32.6 10.3699 32.05 10.5199C31.46 10.6799 30.93 9.78989 30.72 9.19989C30.58 8.78989 30.2 8.51989 29.77 8.51989C29.71 8.51989 29.65 8.51989 29.59 8.53989C28.97 8.64989 27.94 8.61989 27.79 8.02989C27.64 7.47989 28.48 6.93989 29.08 6.71989ZM16.54 17.4999C15.95 17.3999 15.82 16.3699 15.88 15.7499C15.93 15.2599 15.61 14.7999 15.13 14.6899C14.52 14.5399 13.59 14.0799 13.7 13.4799C13.79 12.9799 14.58 12.8099 15.2 12.8099C15.27 12.8099 15.34 12.8099 15.41 12.8099C15.88 12.8399 16.31 12.5399 16.44 12.0799C16.61 11.4699 17.07 10.5899 17.63 10.6799C18.22 10.7799 18.35 11.8099 18.29 12.4299C18.24 12.9199 18.56 13.3799 19.04 13.4899C19.65 13.6399 20.58 14.0999 20.47 14.6999C20.37 15.2599 19.39 15.4099 18.76 15.3599C18.28 15.3299 17.86 15.6299 17.73 16.0899C17.56 16.6999 17.08 17.5799 16.54 17.4899V17.4999Z" fill="#323232"/>
<path d="M40.9191 33.6296C40.6291 32.3396 39.4091 31.5296 37.8191 31.5096C37.1291 30.0796 35.8791 29.3096 34.5891 29.5996C33.3191 29.8796 32.5291 31.0596 32.4791 32.6396C31.0691 33.3496 30.3291 34.5696 30.6091 35.8396C30.7791 36.5896 31.2691 37.1696 31.9491 37.5396L29.8691 39.2696V34.3396C29.8691 33.7896 29.4191 33.3396 28.8691 33.3396C28.3191 33.3396 27.8691 33.7896 27.8691 34.3396V45.1096C27.8691 45.6596 28.3191 46.1096 28.8691 46.1096C29.4191 46.1096 29.8691 45.6596 29.8691 45.1096V41.8596L33.9791 38.4496C34.5891 39.3796 35.4591 39.9296 36.3991 39.9296C36.5791 39.9296 36.7491 39.9096 36.9291 39.8696C38.1991 39.5896 38.9991 38.4096 39.0391 36.8296C40.4491 36.1196 41.1891 34.8996 40.9091 33.6296H40.9191ZM37.7091 35.2196C37.2591 35.3696 36.9791 35.8096 37.0291 36.2796C37.0891 36.8496 37.0091 37.7996 36.4991 37.9096C35.9491 38.0296 35.4891 37.1796 35.3191 36.6196C35.1891 36.1896 34.7991 35.9096 34.3591 35.9096C34.3091 35.9096 34.2591 35.9096 34.2191 35.9196C33.5991 36.0096 32.6691 35.9096 32.5491 35.3996C32.4391 34.8996 33.2591 34.4196 33.8091 34.2396C34.2591 34.0896 34.5391 33.6496 34.4891 33.1796C34.4291 32.6096 34.5091 31.6596 35.0191 31.5496C35.5591 31.4196 36.0291 32.2796 36.1991 32.8396C36.3391 33.3096 36.8191 33.6096 37.2991 33.5396C37.8791 33.4596 38.8491 33.5196 38.9691 34.0596C39.0791 34.5696 38.2591 35.0396 37.7091 35.2196Z" fill="#323232"/>
<path d="M20.0601 24.9805C19.5101 24.9805 19.0601 25.4305 19.0601 25.9805V35.3305L16.4601 33.1805C17.1701 32.7705 17.6501 32.1505 17.7901 31.3605C18.0201 30.0205 17.1601 28.7705 15.6401 28.1305C15.5401 26.4905 14.6501 25.2605 13.3101 25.0305C11.9901 24.8105 10.7701 25.6305 10.1101 27.1305C8.48012 27.2505 7.29012 28.1305 7.07012 29.4505C6.84012 30.7905 7.70012 32.0505 9.22012 32.6805C9.32012 34.3205 10.2101 35.5505 11.5501 35.7805C11.6901 35.8005 11.8401 35.8205 11.9801 35.8205C12.9901 35.8205 13.9101 35.2105 14.5101 34.1605L19.0201 37.8905C19.0201 37.8905 19.0501 37.9105 19.0701 37.9205V45.1005C19.0701 45.6505 19.5201 46.1005 20.0701 46.1005C20.6201 46.1005 21.0701 45.6505 21.0701 45.1005V25.9905C21.0701 25.4405 20.6201 24.9905 20.0701 24.9905L20.0601 24.9805ZM13.0801 32.4205C12.9101 33.0305 12.4601 33.9205 11.8801 33.8205C11.2901 33.7205 11.1601 32.6905 11.2201 32.0705C11.2701 31.5805 10.9501 31.1205 10.4701 31.0105C9.86012 30.8605 8.93012 30.4005 9.03012 29.8005C9.12012 29.3005 9.91012 29.1305 10.5301 29.1305C10.6001 29.1305 10.6701 29.1305 10.7401 29.1305C11.2201 29.1605 11.6401 28.8605 11.7701 28.4005C11.9401 27.7905 12.4001 26.9105 12.9701 27.0005C13.5601 27.1005 13.6901 28.1305 13.6301 28.7505C13.5801 29.2405 13.9001 29.7005 14.3801 29.8105C14.9901 29.9605 15.9201 30.4205 15.8201 31.0205C15.7201 31.5805 14.7401 31.7305 14.1101 31.6805C13.6301 31.6405 13.2101 31.9505 13.0801 32.4105V32.4205Z" fill="#323232"/>
<path d="M12.5605 29.4102H12.5505C12.0005 29.4102 11.5605 29.8602 11.5605 30.4102C11.5605 30.9602 12.0105 31.4102 12.5605 31.4102C13.1105 31.4102 13.5605 30.9602 13.5605 30.4102C13.5605 29.8602 13.1105 29.4102 12.5605 29.4102Z" fill="#323232"/>
<path d="M17.1406 13.2598H17.1306C16.5806 13.2598 16.1406 13.7098 16.1406 14.2598C16.1406 14.8098 16.5906 15.2598 17.1406 15.2598C17.6906 15.2598 18.1406 14.8098 18.1406 14.2598C18.1406 13.7098 17.6906 13.2598 17.1406 13.2598Z" fill="#323232"/>
<path d="M31.9707 23.1299C32.5207 23.1299 32.9707 22.6799 32.9707 22.1299C32.9707 21.5799 32.5207 21.1299 31.9707 21.1299H31.9607C31.4107 21.1299 30.9707 21.5799 30.9707 22.1299C30.9707 22.6799 31.4207 23.1299 31.9707 23.1299Z" fill="#323232"/>
<path d="M35.7793 33.7305H35.7693C35.2193 33.7305 34.7793 34.1805 34.7793 34.7305C34.7793 35.2805 35.2293 35.7305 35.7793 35.7305C36.3293 35.7305 36.7793 35.2805 36.7793 34.7305C36.7793 34.1805 36.3293 33.7305 35.7793 33.7305Z" fill="#323232"/>
<path d="M31.1797 8.19043C31.7297 8.19043 32.1797 7.74043 32.1797 7.19043C32.1797 6.64043 31.7297 6.19043 31.1797 6.19043H31.1697C30.6197 6.19043 30.1797 6.64043 30.1797 7.19043C30.1797 7.74043 30.6297 8.19043 31.1797 8.19043Z" fill="#323232"/>
</svg>
