<svg width="48" height="48" viewBox="0 0 48 48" fill="none" xmlns="http://www.w3.org/2000/svg">
<path d="M14.0002 4C8.70016 4 4.41016 8.3 4.41016 13.59C4.41016 18.88 8.70016 23.18 14.0002 23.18C19.3002 23.18 23.5902 18.89 23.5902 13.59C23.5902 8.29 19.3002 4 14.0002 4Z" fill="#DF0000"/>
<path d="M43.6002 20.3799H39.2402V43.9999H43.6002V20.3799Z" fill="#8DE2E0"/>
<path d="M43.5905 44.2099C43.0405 44.2099 42.5905 43.7599 42.5905 43.2099V21.3799H34.8105V43.2099C34.8105 43.7599 34.3605 44.2099 33.8105 44.2099C33.2605 44.2099 32.8105 43.7599 32.8105 43.2099V20.3799C32.8105 19.8299 33.2605 19.3799 33.8105 19.3799H43.5905C44.1405 19.3799 44.5905 19.8299 44.5905 20.3799V43.2099C44.5905 43.7599 44.1405 44.2099 43.5905 44.2099Z" fill="#323232"/>
<path d="M29.2992 27.9902H24.9492V44.0002H29.2992V27.9902Z" fill="#8DE2E0"/>
<path d="M29.3093 44.2102C28.7593 44.2102 28.3093 43.7602 28.3093 43.2102V28.9902H20.5293V43.2102C20.5293 43.7602 20.0793 44.2102 19.5293 44.2102C18.9793 44.2102 18.5293 43.7602 18.5293 43.2102V27.9902C18.5293 27.4402 18.9793 26.9902 19.5293 26.9902H29.3093C29.8593 26.9902 30.3093 27.4402 30.3093 27.9902V43.2102C30.3093 43.7602 29.8593 44.2102 29.3093 44.2102Z" fill="#323232"/>
<path d="M15.0099 34.5098H10.6699V43.9998H15.0099V34.5098Z" fill="#8DE2E0"/>
<path d="M15.03 44.2098C14.48 44.2098 14.03 43.7598 14.03 43.2098V35.5098H6.25V43.2098C6.25 43.7598 5.8 44.2098 5.25 44.2098C4.7 44.2098 4.25 43.7598 4.25 43.2098V34.5098C4.25 33.9598 4.7 33.5098 5.25 33.5098H15.03C15.58 33.5098 16.03 33.9598 16.03 34.5098V43.2098C16.03 43.7598 15.58 44.2098 15.03 44.2098Z" fill="#323232"/>
<path d="M14.5504 17.9296V19.2496H13.3604V17.8996C12.0204 17.6796 11.1504 16.7696 11.1504 15.4396V15.1496H12.7604V15.4996C12.7604 16.1896 13.2204 16.5996 14.0004 16.5996C14.7804 16.5996 15.2404 16.1396 15.2404 15.5096C15.2404 14.9696 14.9704 14.6196 14.4304 14.3996L13.2004 13.9196C12.0704 13.4696 11.3304 12.7396 11.3304 11.5196C11.3304 10.3696 12.0804 9.38957 13.3604 9.14957V7.80957H14.5504V9.14957C15.8204 9.35957 16.6704 10.2796 16.6704 11.6196V11.7996H15.0604V11.5496C15.0604 10.8996 14.6304 10.4396 13.9604 10.4396C13.2904 10.4396 12.9104 10.8496 12.9104 11.3996C12.9104 11.7296 13.0504 12.1496 13.5904 12.3596L14.7304 12.8096C15.7404 13.2196 16.8404 13.7696 16.8404 15.3496C16.8404 16.7496 15.9504 17.7496 14.5504 17.9296Z" fill="white"/>
</svg>
