<svg width="24" height="24" viewBox="0 0 24 24" fill="none" xmlns="http://www.w3.org/2000/svg">
<path fill-rule="evenodd" clip-rule="evenodd" d="M13.4666 14.4346H9.75933L10.0571 13.1734H12.442C13.2572 13.1773 13.6533 12.4627 13.0712 12.0639C12.4998 11.6651 12.1289 11.347 11.562 10.9432C10.4142 10.1295 10.9546 8.23224 12.881 8.22153H16.3769L16.0723 9.4639H13.7268C13.0819 9.45281 12.9411 10.1624 13.3586 10.4223L14.8597 11.5376C16.0983 12.4723 15.3722 14.4319 13.4666 14.4346ZM17.7272 21.2122C17.3518 21.908 16.4653 22.197 15.7527 21.8582C11.9559 20.0505 8.60957 17.5164 5.82857 14.4346H9.2966L9.60585 13.1834H7.41351C7.3515 13.1826 7.28873 13.1853 7.22673 13.1773C6.89719 13.1344 6.70467 12.9955 6.59674 12.8274C6.48765 12.6598 6.4555 12.4688 6.47962 12.3169C6.4823 12.2774 6.59674 11.799 6.60362 11.7592L6.60592 11.747L6.93317 10.4387H6.93393C7.07899 9.83325 7.58459 9.47079 8.26051 9.45281H10.508L10.8073 8.21234H9.26215L7.31667 8.94146L7.50345 8.21234H7.22826C6.60439 8.20468 6.16845 8.26018 5.86225 8.40294C5.58591 8.53155 5.37617 8.74358 5.28967 9.05935L4.39367 12.7329C3.61212 11.7408 2.89409 10.7147 2.22391 9.63269C1.81055 8.96634 1.98049 8.04738 2.64301 7.59651C7.75606 4.10897 13.8018 2.14435 19.9927 2.00044C20.7945 1.98092 21.4739 2.61091 21.5397 3.40472C21.671 5.01492 21.6737 6.62932 21.552 8.23377L18.2497 8.23224L15.1189 14.4212H17.4061L17.7755 13.5975C17.8115 13.5141 17.8497 13.4877 17.9577 13.4896H19.5981C19.6299 13.4884 19.6984 13.5007 19.7014 13.5811L19.7217 14.4212H20.4635C19.8086 16.7739 18.8893 19.0554 17.7272 21.2122ZM19.6624 12.3689L19.5878 9.83631C19.5847 9.74752 19.5089 9.74139 19.4691 9.82981L18.3167 12.3881C18.2692 12.4876 18.2983 12.5836 18.3852 12.5764H19.5414C19.641 12.5702 19.6727 12.491 19.6624 12.3689Z" fill="#D0383F"/>
</svg>
