<svg width="48" height="48" viewBox="0 0 48 48" fill="none" xmlns="http://www.w3.org/2000/svg">
<path d="M42 22.69V8.80996C42 8.39996 41.75 8.03996 41.38 7.87996L24.38 0.909961C24.14 0.809961 23.86 0.809961 23.62 0.909961L6.62 7.88996C6.24 8.03996 6 8.40996 6 8.81996V22.7C6 30.73 8.56 36.17 11.73 39.84C11.81 39.99 11.92 40.11 12.06 40.21C17.19 45.87 23.72 47.09 23.83 47.11C23.89 47.11 23.94 47.12 24 47.12C24.06 47.12 24.11 47.12 24.17 47.11C24.31 47.09 34.55 45.17 39.45 34.97C39.5 34.89 39.54 34.8 39.57 34.71C41.04 31.55 42 27.62 42 22.71V22.69ZM24 2.91996L40 9.48996V22.7C40 24.56 39.85 26.27 39.59 27.84C39.27 22.36 38.16 18.23 36.28 15.51C35.48 14.12 34.23 13.03 32.73 12.43C31.27 11.8 30.14 11.92 30 11.93C27.64 11.97 25.37 13.15 24.01 14.95C22.63 13.13 20.3 11.93 17.9 11.93C16.43 11.93 15.06 12.38 13.92 13.15C14.73 10.84 16.13 8.06996 18.54 5.25996C18.56 5.22996 18.57 5.19996 18.59 5.16996L24.01 2.93996L24 2.91996ZM35.22 19.02C35.22 23.55 31.44 28.49 24 33.7C16.55 28.49 12.78 23.56 12.78 19.02C12.78 16.2 15.07 13.91 17.89 13.91C20.13 13.91 22.36 15.38 23.06 17.33C23.2 17.73 23.58 17.99 24 17.99C24.42 17.99 24.8 17.73 24.94 17.33C25.65 15.38 27.87 13.91 30.11 13.91C30.77 13.91 31.4 14.05 31.98 14.28C32.45 14.49 32.96 14.8 33.5 15.3C33.83 15.61 34.16 15.99 34.49 16.44C34.94 17.2 35.21 18.08 35.21 19.02H35.22ZM8 9.47996L14.96 6.61996C10.57 13.15 10.76 18.79 10.78 19.06C10.81 24.18 14.53 29.34 22.14 34.81C19.67 36.16 16.6 37.44 12.95 38.25C10.19 34.89 8 29.94 8 22.67V9.45996V9.47996ZM24 45.09C23.02 44.89 18.49 43.79 14.5 39.95C25 37.28 30.55 31.14 31.01 30.61C34.08 27.69 36.01 24.83 36.8 22.01C37.47 24.91 37.84 28.85 37.63 34.2C33.52 42.8 25.35 44.81 24 45.09Z" fill="#323232"/>
</svg>
