<svg width="48" height="48" viewBox="0 0 48 48" fill="none" xmlns="http://www.w3.org/2000/svg">
<path d="M44.2602 42.4599H3.74023C3.19023 42.4599 2.74023 42.0099 2.74023 41.4599C2.74023 40.9099 3.19023 40.4599 3.74023 40.4599H44.2602C44.8102 40.4599 45.2602 40.9099 45.2602 41.4599C45.2602 42.0099 44.8102 42.4599 44.2602 42.4599ZM44.2602 36.6699H3.74023C3.19023 36.6699 2.74023 36.2199 2.74023 35.6699C2.74023 35.1199 3.19023 34.6699 3.74023 34.6699H44.2602C44.8102 34.6699 45.2602 35.1199 45.2602 35.6699C45.2602 36.2199 44.8102 36.6699 44.2602 36.6699Z" fill="#323232"/>
<path d="M44.2598 30.79H3.83984C3.28984 30.79 2.83984 30.34 2.83984 29.79V6.54004C2.83984 5.99004 3.28984 5.54004 3.83984 5.54004H44.2598C44.8098 5.54004 45.2598 5.99004 45.2598 6.54004V29.78C45.2598 30.33 44.8098 30.78 44.2598 30.78V30.79ZM4.83984 28.79H43.2598V7.54004H4.83984V28.78V28.79Z" fill="#323232"/>
<path d="M25.4695 15.8902V15.5402C25.4695 14.6202 24.8595 13.9702 23.9195 13.9702C22.9795 13.9702 22.4395 14.5402 22.4395 15.3202C22.4395 15.7802 22.6395 16.3702 23.3995 16.6702L25.0095 17.3002C26.4295 17.8702 27.9895 18.6502 27.9895 20.8902C27.9895 22.8702 26.7295 24.2702 24.7495 24.5302V26.4002H23.0695V24.4902C21.1795 24.1802 19.9395 22.9002 19.9395 21.0102V20.6002H22.2095V21.1002C22.2095 22.0802 22.8595 22.6502 23.9695 22.6502C25.0795 22.6502 25.7295 22.0002 25.7295 21.1102C25.7295 20.3502 25.3395 19.8502 24.5795 19.5402L22.8395 18.8602C21.2495 18.2302 20.1895 17.2002 20.1895 15.4802C20.1895 13.8502 21.2395 12.4702 23.0595 12.1302V10.2402H24.7395V12.1302C26.5295 12.4302 27.7395 13.7202 27.7395 15.6302V15.8902H25.4695Z" fill="#DF0000"/>
</svg>
