<svg width="48" height="48" viewBox="0 0 48 48" fill="none" xmlns="http://www.w3.org/2000/svg">
<path d="M44.3406 39.9702C44.1906 39.4402 43.6406 39.1302 43.1006 39.2802L39.7606 40.2402C39.4506 38.1902 37.7406 36.6102 35.6306 36.5202L33.2106 27.5802C33.0906 27.1402 32.7006 26.8402 32.2506 26.8402H25.3706C23.3706 23.9002 20.0806 21.8902 16.3106 21.6402L15.4406 18.2002H25.2806C25.8306 18.2002 26.2806 17.7502 26.2806 17.2002C26.2806 16.6502 25.8306 16.2002 25.2806 16.2002H14.9406L13.9106 12.1102H14.1006C15.0406 12.1102 15.9206 11.6902 16.5006 10.9502C17.0806 10.2102 17.2906 9.26016 17.0606 8.34016L16.4706 5.98016C15.9806 4.02016 14.2206 2.66016 12.2006 2.66016H4.65062C4.10062 2.66016 3.65062 3.11016 3.65062 3.66016C3.65062 4.21016 4.10062 4.66016 4.65062 4.66016H10.0006L11.6806 11.3402C11.6806 11.3402 11.6806 11.3502 11.6806 11.3602L13.2006 17.4302C13.2006 17.4302 13.2006 17.4502 13.2006 17.4702L14.2606 21.6902C8.30062 22.3202 3.64062 27.3602 3.64062 33.4502C3.64062 39.9702 8.97062 45.2802 15.5306 45.2802C22.0906 45.2802 27.4206 39.9702 27.4206 33.4502C27.4206 31.8202 27.0806 30.2602 26.4706 28.8502H31.4906L33.6706 36.8902C32.1306 37.5702 31.0506 39.1102 31.0506 40.9002C31.0506 43.3202 33.0206 45.2902 35.4406 45.2902C37.3406 45.2902 38.9406 44.0802 39.5506 42.3902L43.6606 41.2102C44.1906 41.0602 44.5006 40.5002 44.3406 39.9702ZM12.0306 4.66016H12.1806C13.2906 4.66016 14.2406 5.40016 14.5106 6.47016L15.1006 8.83016C15.1806 9.14016 15.1006 9.46016 14.9106 9.71016C14.7106 9.96016 14.4106 10.1102 14.0906 10.1102H13.4006L12.0306 4.66016ZM15.5106 43.2802C10.0606 43.2802 5.62062 38.8702 5.62062 33.4502C5.62062 28.0302 10.0406 23.6302 15.4906 23.6202H15.5306C20.9706 23.6302 25.4006 28.0402 25.4006 33.4502C25.4006 38.8602 20.9606 43.2802 15.5106 43.2802ZM35.4306 43.2902C34.1106 43.2902 33.0406 42.2202 33.0406 40.9002C33.0406 39.5802 34.1106 38.5102 35.4306 38.5102C36.7506 38.5102 37.8206 39.5802 37.8206 40.9002C37.8206 42.2202 36.7506 43.2902 35.4306 43.2902Z" fill="#323232"/>
<path fill-rule="evenodd" clip-rule="evenodd" d="M15.5092 37.7601C17.8892 37.7601 19.8192 35.8301 19.8192 33.4501C19.8192 31.0701 17.8892 29.1401 15.5092 29.1401C13.1292 29.1401 11.1992 31.0701 11.1992 33.4501C11.1992 35.8301 13.1292 37.7601 15.5092 37.7601Z" fill="#DF0000"/>
</svg>
