<svg width="48" height="48" viewBox="0 0 48 48" fill="none" xmlns="http://www.w3.org/2000/svg">
<path d="M31.4702 12.69C30.9002 10.96 30.0202 9.4 28.9302 8.05C28.9302 8.05 28.9302 8.04 28.9202 8.03C27.4502 6.21 25.5702 4.76 23.4402 3.81C21.5602 2.97 19.5002 2.5 17.3502 2.5C9.1302 2.5 2.4502 9.18 2.4502 17.4C2.4502 25.62 9.1302 32.3 17.3502 32.3C18.1702 32.3 18.9902 32.23 19.7902 32.1C20.3302 32.01 20.7002 31.5 20.6102 30.95C20.5202 30.4 20.0102 30.04 19.4602 30.13C18.7602 30.25 18.0502 30.3 17.3402 30.3C10.2302 30.3 4.4402 24.51 4.4402 17.4C4.4402 10.29 10.2302 4.5 17.3402 4.5C18.3902 4.5 19.4102 4.63 20.3902 4.86C18.2502 5.78 16.3002 6.7 16.3002 8.69C16.3002 10.36 17.6802 10.77 18.3402 10.97C18.5302 11.03 18.9002 11.14 18.9602 11.21C18.9602 11.21 18.9802 11.25 18.9802 11.37C18.9802 11.96 18.6402 12.53 18.1202 12.81C17.8802 12.94 17.4202 13.1 16.9702 12.81C14.4502 11.16 11.9902 11.59 10.2402 13.99C8.8302 15.92 8.9202 18.14 9.6402 19.47C10.1302 20.4 10.9202 20.92 11.7602 20.89C12.3102 20.87 12.8002 20.71 13.2102 20.58C13.3802 20.52 13.6302 20.44 13.7802 20.42C13.8002 20.45 13.8102 20.49 13.8402 20.55C14.4202 22.13 14.6502 22.46 15.5202 22.92C15.5202 22.92 15.6002 23.1 15.4602 23.7C15.2002 24.81 16.0102 26.72 16.7102 27.6C17.1802 28.19 17.6902 28.49 18.2402 28.49C19.6302 28.49 20.3202 27.79 20.6502 27.21C20.9202 26.73 20.7502 26.12 20.2702 25.85C19.7902 25.58 19.1802 25.75 18.9102 26.23C18.8602 26.31 18.7802 26.46 18.3902 26.49C17.9902 26.12 17.3502 24.63 17.4102 24.16C17.8402 22.35 17.1502 21.55 16.4302 21.15C16.3502 21.11 16.2502 21.05 16.2302 21.03C16.1502 20.95 15.9802 20.56 15.7302 19.86C15.0102 17.89 13.3302 18.44 12.6102 18.68C12.3002 18.78 11.9702 18.89 11.7402 18.9C11.6902 18.88 11.4402 18.7 11.2802 18.17C11.1702 17.81 10.8802 16.54 11.8802 15.17C13.0102 13.62 14.2502 13.41 15.8902 14.49C16.8402 15.11 18.0402 15.15 19.0902 14.58C20.2702 13.94 21.0002 12.72 21.0002 11.38C21.0002 9.67 19.6002 9.26 18.9302 9.06C18.7302 9 18.4002 8.9 18.3302 8.83C18.3302 8.83 18.3102 8.79 18.3102 8.69C18.3102 7.92 19.7802 7.29 21.4902 6.56C22.0102 6.34 22.5502 6.1 23.1002 5.85C24.6202 6.61 25.9802 7.66 27.1002 8.95C26.9502 9.71 26.5502 10.66 25.9402 11.63C25.6502 12.1 25.7902 12.71 26.2502 13.01C26.4202 13.11 26.6002 13.16 26.7802 13.16C27.1102 13.16 27.4402 12.99 27.6302 12.69C27.9302 12.22 28.2502 11.63 28.5302 11C28.9502 11.73 29.3002 12.5 29.5802 13.32C29.7502 13.84 30.3202 14.13 30.8402 13.95C31.3602 13.78 31.6502 13.21 31.4702 12.69Z" fill="#323232"/>
<path d="M24.7998 19.86H25.7998C26.3698 19.86 26.7898 20.23 26.7898 20.79C26.7898 21.38 26.3698 21.75 25.7998 21.75H25.3498V22.72H24.8098V19.86H24.7998ZM25.3398 20.34V21.27H25.7398C26.0398 21.27 26.2198 21.09 26.2198 20.8C26.2198 20.51 26.0398 20.34 25.7398 20.34H25.3398Z" fill="#323232"/>
<path d="M26.8899 22.72L27.7399 19.86H28.3099L29.1599 22.72H28.5999L28.4599 22.21H27.5499L27.4099 22.72H26.8799H26.8899ZM27.6799 21.75H28.3499L28.0199 20.54L27.6899 21.75H27.6799Z" fill="#323232"/>
<path d="M30.7093 20.73V20.65C30.7093 20.43 30.5493 20.28 30.2993 20.28C30.0493 20.28 29.9093 20.41 29.9093 20.6C29.9093 20.71 29.9693 20.85 30.1793 20.92L30.5793 21.07C30.9393 21.2 31.2993 21.38 31.2993 21.9C31.2993 22.42 30.9093 22.78 30.3193 22.78C29.7293 22.78 29.3193 22.46 29.3193 21.94V21.84H29.8593V21.96C29.8593 22.19 30.0293 22.33 30.3093 22.33C30.6093 22.33 30.7693 22.18 30.7693 21.97C30.7693 21.79 30.6693 21.67 30.4593 21.6L30.0193 21.43C29.6193 21.28 29.3793 21.05 29.3793 20.64C29.3793 20.2 29.7193 19.84 30.2893 19.84C30.8593 19.84 31.2293 20.16 31.2293 20.68V20.74H30.6993L30.7093 20.73Z" fill="#323232"/>
<path d="M32.9398 20.73V20.65C32.9398 20.43 32.7798 20.28 32.5298 20.28C32.2798 20.28 32.1398 20.41 32.1398 20.6C32.1398 20.71 32.1998 20.85 32.4098 20.92L32.8098 21.07C33.1698 21.2 33.5298 21.38 33.5298 21.9C33.5298 22.42 33.1398 22.78 32.5498 22.78C31.9598 22.78 31.5498 22.46 31.5498 21.94V21.84H32.0898V21.96C32.0898 22.19 32.2598 22.33 32.5398 22.33C32.8398 22.33 32.9998 22.18 32.9998 21.97C32.9998 21.79 32.8998 21.67 32.6898 21.6L32.2498 21.43C31.8498 21.28 31.6098 21.05 31.6098 20.64C31.6098 20.2 31.9498 19.84 32.5198 19.84C33.0898 19.84 33.4598 20.16 33.4598 20.68V20.74H32.9298L32.9398 20.73Z" fill="#323232"/>
<path d="M33.9297 19.86H34.9297C35.4997 19.86 35.9197 20.23 35.9197 20.79C35.9197 21.38 35.4997 21.75 34.9297 21.75H34.4797V22.72H33.9397V19.86H33.9297ZM34.4797 20.34V21.27H34.8797C35.1797 21.27 35.3597 21.09 35.3597 20.8C35.3597 20.51 35.1797 20.34 34.8797 20.34H34.4797Z" fill="#323232"/>
<path d="M38.2102 21.81C38.2102 22.4 37.8002 22.76 37.2102 22.76C36.6202 22.76 36.2002 22.39 36.2002 21.81V20.77C36.2002 20.18 36.5602 19.82 37.2102 19.82C37.8102 19.82 38.2102 20.19 38.2102 20.77V21.81ZM36.7402 21.8C36.7402 22.09 36.9102 22.27 37.2102 22.27C37.5102 22.27 37.6702 22.08 37.6702 21.8V20.78C37.6702 20.49 37.5002 20.31 37.2102 20.31C36.9202 20.31 36.7402 20.5 36.7402 20.78V21.8Z" fill="#323232"/>
<path d="M40.0895 22.72L39.6795 21.67H39.2295V22.72H38.6895V19.86H39.6895C40.2495 19.86 40.6695 20.21 40.6695 20.75C40.6695 21.12 40.4995 21.4 40.2195 21.55L40.6895 22.72H40.0995H40.0895ZM39.2195 20.34V21.2H39.6195C39.9195 21.2 40.0995 21.03 40.0995 20.77C40.0995 20.51 39.9195 20.34 39.6195 20.34H39.2195Z" fill="#323232"/>
<path d="M40.8496 19.86H42.7596V20.35H42.0796V22.72H41.5396V20.35H40.8496V19.86Z" fill="#323232"/>
<path d="M33.66 24.41C28.88 24.41 25 28.3 25 33.07C25 37.84 28.88 41.72 33.65 41.73C38.42 41.73 42.3 37.84 42.3 33.07C42.3 28.3 38.41 24.41 33.64 24.41H33.66ZM33.66 26.41C34.06 26.41 34.83 27.53 35.29 29.61H32.03C32.49 27.53 33.26 26.41 33.66 26.41ZM27.17 34.54C27.06 34.07 27 33.58 27 33.08C27 32.58 27.06 32.09 27.17 31.62H29.73C29.69 32.1 29.67 32.59 29.67 33.08C29.67 33.57 29.69 34.06 29.73 34.54H27.17ZM27.98 36.54H29.98C30.15 37.44 30.38 38.29 30.68 39.03C29.56 38.47 28.62 37.6 27.97 36.54H27.98ZM29.98 29.61H27.98C28.63 28.55 29.57 27.68 30.69 27.12C30.39 27.86 30.15 28.7 29.99 29.61H29.98ZM33.66 39.74C33.26 39.74 32.49 38.62 32.03 36.54H35.29C34.83 38.62 34.06 39.73 33.66 39.74ZM35.59 34.54H31.73C31.69 34.08 31.67 33.59 31.67 33.08C31.67 32.57 31.69 32.08 31.73 31.62H35.59C35.63 32.08 35.65 32.57 35.65 33.08C35.65 33.59 35.63 34.08 35.59 34.54ZM39.34 29.61H37.34C37.17 28.71 36.94 27.86 36.64 27.12C37.76 27.68 38.7 28.55 39.35 29.61H39.34ZM36.63 39.03C36.93 38.29 37.17 37.45 37.33 36.54H39.33C38.68 37.6 37.74 38.47 36.62 39.03H36.63ZM37.59 34.54C37.63 34.06 37.65 33.57 37.65 33.08C37.65 32.59 37.63 32.1 37.59 31.62H40.15C40.26 32.09 40.32 32.58 40.32 33.08C40.32 33.58 40.26 34.07 40.15 34.54H37.59Z" fill="#8DE2E0"/>
<path d="M41.61 45.5H22.75C22.2 45.5 21.75 45.05 21.75 44.5V16.12C21.75 15.57 22.2 15.12 22.75 15.12H41.61C43.8 15.12 45.58 16.9 45.58 19.09V41.54C45.58 43.73 43.8 45.51 41.61 45.51V45.5ZM23.75 43.5H41.61C42.69 43.5 43.58 42.62 43.58 41.53V19.08C43.58 18 42.7 17.11 41.61 17.11H23.75V43.49V43.5Z" fill="#323232"/>
</svg>
