<svg width="24" height="24" viewBox="0 0 24 24" fill="none" xmlns="http://www.w3.org/2000/svg">
<path fill-rule="evenodd" clip-rule="evenodd" d="M5.66375 10.7687L5.82917 10.7734C5.94113 10.7788 6.05645 10.7884 6.17505 10.8027C9.07671 11.2796 10.5067 14.5025 10.5067 14.5025H9.24304C8.43836 12.2582 6.58415 11.253 5.25439 11.277L5.1313 11.2823C4.24068 11.3429 3.62119 11.8868 3.78428 12.8457C4.03972 13.8518 5.46112 14.6694 7.33615 14.7807C6.43106 14.7501 5.69019 14.6046 5.1019 14.3859C2.35249 13.3642 2.93555 10.7418 5.66375 10.7687ZM15.0433 9.93863C15.8852 12.0386 17.6655 12.9816 18.9536 12.9585L19.0767 12.9533C19.9673 12.8928 20.5867 12.3488 20.4236 11.3897C20.1681 10.3842 18.7467 9.56653 16.8717 9.45474L17.12 9.46622C21.9195 9.7493 21.8063 13.3754 18.7043 13.4653L18.544 13.4668C18.3812 13.4652 18.2107 13.4541 18.0328 13.4327C15.1311 12.9553 13.7011 9.73233 13.7011 9.73233L14.9648 9.73179L15.0433 9.93863Z" fill="#F0B140"/>
<path fill-rule="evenodd" clip-rule="evenodd" d="M6.05447 9.52344L6.2502 9.5236C6.77822 9.53105 7.35476 9.59534 7.97772 9.72801C9.63241 10.1077 11.1418 11.5188 11.9773 12.3974C12.2111 12.5929 13.214 13.8836 15.0096 14.5031C14.9269 14.5017 14.8466 14.5007 14.7684 14.5001L14.5403 14.4992L14.3247 14.4998C14.1152 14.5009 13.9232 14.5034 13.7458 14.5048L13.573 14.5058L13.4092 14.5056C12.1855 14.4974 11.6861 14.3303 10.4684 12.8975C9.88245 12.2241 8.60741 10.6175 6.27712 10.368C6.15169 10.3587 6.02931 10.3537 5.91008 10.3528L5.73359 10.3544C1.96113 10.4554 1.54883 14.7332 7.33615 14.7807C7.16816 14.791 7.00455 14.7975 6.84528 14.8005L6.60963 14.8023C0.64459 14.7808 1.0894 9.58668 6.05447 9.52344ZM10.9539 9.73195C12.0671 9.75527 12.5747 9.96751 13.7394 11.3384C14.3259 12.0113 15.6004 13.6179 17.9302 13.8674C18.0556 13.8767 18.178 13.8817 18.2973 13.8826L18.4738 13.881C22.2467 13.7801 22.659 9.50224 16.8717 9.45474C23.5066 9.04681 23.3177 14.5071 18.3449 14.7069L18.1537 14.712L17.958 14.7118C17.4301 14.7043 16.8536 14.6401 16.2307 14.5074C14.5744 14.1277 13.0655 12.7166 12.23 11.8374C11.9962 11.6425 10.9939 10.3512 9.19714 9.73179L9.43849 9.73482C9.51671 9.73547 9.59272 9.73577 9.66665 9.73583L9.88232 9.73535C10.092 9.73432 10.284 9.73188 10.4615 9.73049L10.7982 9.72985L10.9539 9.73195Z" fill="#D62327"/>
<path fill-rule="evenodd" clip-rule="evenodd" d="M7.33615 14.7807C2.11609 14.4707 2.55514 10.5629 6.10161 10.9431C8.95844 11.475 10.2049 14.5031 10.2049 14.5031L9.89584 14.5028C9.86303 14.5027 9.82786 14.5027 9.79047 14.5027L9.24304 14.5025L9.16458 14.2957C8.32298 12.1963 6.5426 11.2538 5.25439 11.277L5.1313 11.2823C4.24068 11.3429 3.62119 11.8868 3.78428 12.8457C4.03972 13.8518 5.46112 14.6694 7.33615 14.7807ZM16.8717 9.45474L17.1198 9.47252C21.7513 9.8623 21.6352 13.185 18.7532 13.3144L18.5989 13.3182C18.4422 13.319 18.2778 13.3107 18.1062 13.2923C15.2494 12.7598 14.003 9.73179 14.003 9.73179H14.9648L15.0433 9.93863C15.8852 12.0386 17.6655 12.9816 18.9536 12.9585L19.0767 12.9533C19.9673 12.8928 20.5867 12.3488 20.4236 11.3897C20.1681 10.3842 18.7467 9.56653 16.8717 9.45474Z" fill="black"/>
<path fill-rule="evenodd" clip-rule="evenodd" d="M6.19748 14.6182C2.42497 13.8057 3.02277 10.7756 6.05786 11.0841C8.87041 11.6813 9.91053 14.5031 9.91053 14.5031L9.79611 14.5028C9.78049 14.5028 9.76283 14.5028 9.7429 14.5027L9.24304 14.5025L9.16458 14.2957C8.32298 12.1963 6.5426 11.2538 5.25439 11.277L5.1313 11.2823C4.24068 11.3429 3.62119 11.8868 3.78428 12.8457C3.9865 13.6422 4.91947 14.3205 6.22976 14.6238L6.27094 14.6327L6.19748 14.6182ZM15.0433 9.93863C15.8852 12.0386 17.6655 12.9816 18.9536 12.9585L19.0767 12.9533C19.9673 12.8928 20.5867 12.3488 20.4236 11.3897C20.2213 10.5937 19.2884 9.91537 17.9781 9.61184L17.8799 9.59074L18.0104 9.61729C21.5086 10.371 21.2493 13.0308 18.7729 13.1674L18.6246 13.1725C18.4739 13.1746 18.3156 13.1677 18.15 13.1508C15.3369 12.5535 14.2973 9.73179 14.2973 9.73179H14.9648L15.0433 9.93863Z" fill="#007351"/>
</svg>
