<svg width="48" height="48" viewBox="0 0 48 48" fill="none" xmlns="http://www.w3.org/2000/svg">
<path d="M7.73 6.92969H37.25C38.89 6.92969 40.23 8.25969 40.23 9.90969V14.5997H4.75V9.90969C4.75 8.26969 6.08 6.92969 7.73 6.92969Z" fill="#8DE2E0"/>
<path d="M36.8802 5.79957H34.7502V4.80957C34.7502 4.25957 34.3002 3.80957 33.7502 3.80957C33.2002 3.80957 32.7502 4.25957 32.7502 4.80957V5.79957H12.9302V4.80957C12.9302 4.25957 12.4802 3.80957 11.9302 3.80957C11.3802 3.80957 10.9302 4.25957 10.9302 4.80957V5.79957H8.16023C5.72023 5.79957 3.74023 7.77957 3.74023 10.2196V38.1496C3.74023 40.5896 5.72023 42.5696 8.16023 42.5696H19.1702C19.7202 42.5696 20.1702 42.1196 20.1702 41.5696C20.1702 41.0196 19.7202 40.5696 19.1702 40.5696H8.16023C6.83023 40.5696 5.74023 39.4896 5.74023 38.1496V10.2096C5.74023 8.87957 6.82023 7.78957 8.16023 7.78957H36.8702C38.2002 7.78957 39.2902 8.86957 39.2902 10.2096V17.8296C39.2902 18.3796 39.7402 18.8296 40.2902 18.8296C40.8402 18.8296 41.2902 18.3796 41.2902 17.8296V10.2096C41.2902 7.76957 39.3102 5.78957 36.8702 5.78957L36.8802 5.79957Z" fill="#323232"/>
<path d="M28.2306 11.8701H16.8906C16.3406 11.8701 15.8906 11.4201 15.8906 10.8701C15.8906 10.3201 16.3406 9.87012 16.8906 9.87012H28.2306C28.7806 9.87012 29.2306 10.3201 29.2306 10.8701C29.2306 11.4201 28.7806 11.8701 28.2306 11.8701Z" fill="#323232"/>
<path d="M31.2195 44.1401C24.0295 44.1401 18.1895 38.2901 18.1895 31.1101C18.1895 23.9301 24.0395 18.0801 31.2195 18.0801C38.3995 18.0801 44.2495 23.9301 44.2495 31.1101C44.2495 38.2901 38.3995 44.1401 31.2195 44.1401ZM31.2195 20.0701C25.1395 20.0701 20.1895 25.0201 20.1895 31.1001C20.1895 37.1801 25.1395 42.1301 31.2195 42.1301C37.2995 42.1301 42.2495 37.1801 42.2495 31.1001C42.2495 25.0201 37.2995 20.0701 31.2195 20.0701Z" fill="#323232"/>
<path d="M29.8099 35.8804C29.5399 35.8804 29.2899 35.7704 29.0999 35.5904L25.6499 32.1404C25.2599 31.7504 25.2599 31.1204 25.6499 30.7304C26.0399 30.3404 26.6699 30.3404 27.0599 30.7304L29.7999 33.4704L36.6399 26.6304C37.0299 26.2404 37.6599 26.2404 38.0499 26.6304C38.4399 27.0204 38.4399 27.6504 38.0499 28.0404L30.5099 35.5804C30.3199 35.7704 30.0699 35.8704 29.7999 35.8704L29.8099 35.8804Z" fill="#DF0000"/>
</svg>
