<svg width="24" height="24" viewBox="0 0 24 24" fill="none" xmlns="http://www.w3.org/2000/svg">
<g clip-path="url(#clip0_16335_3326)">
<path d="M23.9413 13.1804C24.5938 6.58519 19.7762 0.709765 13.181 0.0572871C6.58578 -0.595191 0.710359 4.22236 0.0578813 10.8176C-0.594597 17.4128 4.22295 23.2882 10.8182 23.9407C17.4134 24.5932 23.2888 19.7756 23.9413 13.1804Z" fill="white"/>
<mask id="mask0_16335_3326" style="mask-type:luminance" maskUnits="userSpaceOnUse" x="-1" y="-1" width="26" height="25">
<path d="M23.9413 13.1799C24.5938 6.5847 19.7762 0.709277 13.181 0.0567989C6.58578 -0.595679 0.710359 4.22187 0.0578813 10.8171C-0.594597 17.4123 4.22295 23.2877 10.8182 23.9402C17.4134 24.5927 23.2888 19.7751 23.9413 13.1799Z" fill="white"/>
</mask>
<g mask="url(#mask0_16335_3326)">
<path d="M26.2779 2.48193H-2.27783V21.5196H26.2779V2.48193Z" fill="white"/>
<path d="M16.7237 12.466C16.9818 9.85693 15.076 7.53263 12.467 7.27451C9.8579 7.01639 7.53359 8.9222 7.27547 11.5313C7.01735 14.1403 8.92316 16.4646 11.5322 16.7227C14.1413 16.9809 16.4656 15.075 16.7237 12.466Z" fill="#FF0000"/>
<path fill-rule="evenodd" clip-rule="evenodd" d="M12 16.7472C9.37841 16.7472 7.25287 14.6217 7.25287 12.0001C7.25287 11.0093 7.55612 10.0897 8.07597 9.32812C7.81744 9.70823 7.66512 10.168 7.66512 10.6627C7.66512 11.9735 8.72719 13.0356 10.038 13.0356C10.8485 13.0356 11.564 12.6289 11.9931 12.0085C12.4193 11.3768 13.1418 10.9618 13.9607 10.9618C15.2715 10.9618 16.3336 12.0238 16.3336 13.3346C16.3336 13.8321 16.1799 14.2947 15.9185 14.6762C15.0633 15.9255 13.6267 16.7445 11.9986 16.7445L12 16.7472Z" fill="#003399"/>
<path fill-rule="evenodd" clip-rule="evenodd" d="M2.76141 8.69903L5.38445 4.74981L4.7528 4.33057L2.12976 8.28119L2.76141 8.70043V8.69903ZM4.73183 10.0071L4.10018 9.58782L6.72322 5.63859L7.35487 6.05783L4.73183 10.0071ZM3.74662 9.35304L3.11497 8.9338L5.73801 4.98318L6.36966 5.40242L3.74662 9.35304Z" fill="black"/>
<path fill-rule="evenodd" clip-rule="evenodd" d="M17.3146 18.3625L18.508 16.564L17.8763 16.1448L16.6815 17.9433L17.3132 18.3625H17.3146ZM18.7428 16.2104L18.1111 15.7912L19.3059 13.9927L19.9376 14.4119L18.7428 16.2104ZM19.2836 19.6706L20.4784 17.872L19.8468 17.4528L18.6519 19.2513L19.2836 19.6706ZM20.7118 17.5185L20.0801 17.0992L21.275 15.3007L21.9066 15.7199L20.7118 17.5185ZM18.2984 19.0165L17.6667 18.5973L18.8616 16.7988L19.4932 17.218L18.2998 19.0165H18.2984ZM19.728 16.8645L20.9228 15.0659L20.2912 14.6467L19.0963 16.4452L19.728 16.8645Z" fill="black"/>
<path fill-rule="evenodd" clip-rule="evenodd" d="M20.2534 9.35304L17.6304 5.40242L18.2621 4.98318L20.8851 8.9338L20.2534 9.35304ZM19.2696 10.0071L19.9013 9.58782L18.7065 7.78928L18.0748 8.20852L19.2682 10.0071H19.2696ZM17.84 7.85636L18.4717 7.43712L17.2769 5.63859L16.6452 6.05783L17.84 7.85636ZM21.2387 8.69903L21.8703 8.27979L20.6755 6.48126L20.0438 6.9005L21.2387 8.69903ZM19.8105 6.54834L20.4421 6.1291L19.2473 4.33057L18.6156 4.74981L19.8105 6.54834Z" fill="black"/>
<path fill-rule="evenodd" clip-rule="evenodd" d="M4.27348 16.8645L3.07866 15.066L3.71031 14.6468L4.90514 16.4453L4.27348 16.8645ZM4.71648 19.6706L5.34813 19.2514L2.7251 15.3022L2.09344 15.7214L4.71648 19.6706ZM6.6869 18.3626L7.31855 17.9434L4.69552 13.9941L4.06387 14.4134L6.6869 18.3626ZM5.70169 19.0166L6.33334 18.5974L5.13851 16.7988L4.50686 17.2181L5.70029 19.0166H5.70169Z" fill="black"/>
</g>
</g>
<rect x="0.25" y="0.25" width="23.5" height="23.5" rx="11.75" stroke="#E5E3E1" stroke-width="0.5"/>
<defs>
<clipPath id="clip0_16335_3326">
<rect width="24" height="24" rx="12" fill="white"/>
</clipPath>
</defs>
</svg>
