<svg width="48" height="48" viewBox="0 0 48 48" fill="none" xmlns="http://www.w3.org/2000/svg">
<path fill-rule="evenodd" clip-rule="evenodd" d="M28.7796 29.29H33.3297C33.9597 29.29 34.4697 29.8 34.4697 30.43V37.26C34.4697 37.89 33.9597 38.4 33.3297 38.4H28.7796C28.1496 38.4 27.6396 37.89 27.6396 37.26V30.43C27.6396 29.8 28.1496 29.29 28.7796 29.29Z" fill="#DF0000"/>
<path d="M44.25 39.75H42.15V7.25C42.15 6.7 41.7 6.25 41.15 6.25H20.97C20.42 6.25 19.97 6.7 19.97 7.25V12.64H6.96C6.41 12.64 5.96 13.09 5.96 13.64V39.74H3.75C3.2 39.74 2.75 40.19 2.75 40.74C2.75 41.29 3.2 41.74 3.75 41.74H44.25C44.8 41.74 45.25 41.29 45.25 40.74C45.25 40.19 44.8 39.74 44.25 39.74V39.75ZM7.96 14.64H19.96V39.74H7.96V14.64ZM25.79 39.75H21.96V8.25H40.14V39.74H25.79V39.75Z" fill="#323232"/>
<path d="M35.5597 11.5601H33.4997C33.207 11.5601 32.9697 11.7973 32.9697 12.0901V14.1501C32.9697 14.4428 33.207 14.6801 33.4997 14.6801H35.5597C35.8524 14.6801 36.0897 14.4428 36.0897 14.1501V12.0901C36.0897 11.7973 35.8524 11.5601 35.5597 11.5601Z" fill="#323232"/>
<path d="M28.6095 11.5601H26.5495C26.2568 11.5601 26.0195 11.7973 26.0195 12.0901V14.1501C26.0195 14.4428 26.2568 14.6801 26.5495 14.6801H28.6095C28.9022 14.6801 29.1395 14.4428 29.1395 14.1501V12.0901C29.1395 11.7973 28.9022 11.5601 28.6095 11.5601Z" fill="#323232"/>
<path d="M35.5597 17.96H33.4997C33.207 17.96 32.9697 18.1973 32.9697 18.49V20.55C32.9697 20.8427 33.207 21.08 33.4997 21.08H35.5597C35.8524 21.08 36.0897 20.8427 36.0897 20.55V18.49C36.0897 18.1973 35.8524 17.96 35.5597 17.96Z" fill="#323232"/>
<path d="M28.6095 17.96H26.5495C26.2568 17.96 26.0195 18.1973 26.0195 18.49V20.55C26.0195 20.8427 26.2568 21.08 26.5495 21.08H28.6095C28.9022 21.08 29.1395 20.8427 29.1395 20.55V18.49C29.1395 18.1973 28.9022 17.96 28.6095 17.96Z" fill="#323232"/>
<path d="M35.5597 24.3599H33.4997C33.207 24.3599 32.9697 24.5972 32.9697 24.8899V26.9499C32.9697 27.2426 33.207 27.4799 33.4997 27.4799H35.5597C35.8524 27.4799 36.0897 27.2426 36.0897 26.9499V24.8899C36.0897 24.5972 35.8524 24.3599 35.5597 24.3599Z" fill="#323232"/>
<path d="M28.6095 24.3599H26.5495C26.2568 24.3599 26.0195 24.5972 26.0195 24.8899V26.9499C26.0195 27.2426 26.2568 27.4799 26.5495 27.4799H28.6095C28.9022 27.4799 29.1395 27.2426 29.1395 26.9499V24.8899C29.1395 24.5972 28.9022 24.3599 28.6095 24.3599Z" fill="#323232"/>
<path d="M15.2804 17.96H13.2204C12.9277 17.96 12.6904 18.1973 12.6904 18.49V20.55C12.6904 20.8427 12.9277 21.08 13.2204 21.08H15.2804C15.5731 21.08 15.8104 20.8427 15.8104 20.55V18.49C15.8104 18.1973 15.5731 17.96 15.2804 17.96Z" fill="#323232"/>
<path d="M15.2804 24.3599H13.2204C12.9277 24.3599 12.6904 24.5972 12.6904 24.8899V26.9499C12.6904 27.2426 12.9277 27.4799 13.2204 27.4799H15.2804C15.5731 27.4799 15.8104 27.2426 15.8104 26.9499V24.8899C15.8104 24.5972 15.5731 24.3599 15.2804 24.3599Z" fill="#323232"/>
<path d="M15.2804 30.7598H13.2204C12.9277 30.7598 12.6904 30.9971 12.6904 31.2898V33.3498C12.6904 33.6425 12.9277 33.8798 13.2204 33.8798H15.2804C15.5731 33.8798 15.8104 33.6425 15.8104 33.3498V31.2898C15.8104 30.9971 15.5731 30.7598 15.2804 30.7598Z" fill="#323232"/>
</svg>
