<svg width="48" height="48" viewBox="0 0 48 48" fill="none" xmlns="http://www.w3.org/2000/svg">
<path d="M43.3291 34.46L41.7691 26.54C39.8591 30.66 35.7291 33.53 30.9491 33.53H28.4791V35.93H19.0191V33.53H17.0591C12.2591 33.53 8.13909 30.66 6.22909 26.52L4.66909 34.46C3.64909 39.61 7.53909 44.42 12.7191 44.42H35.2791C40.4591 44.42 44.3391 39.62 43.3291 34.46Z" fill="#8DE2E0"/>
<path d="M44.3098 34.2598L42.8098 26.6598C43.5098 25.0398 43.9098 23.2598 43.9098 21.3798V14.3298C43.9098 13.7798 43.4598 13.3298 42.9098 13.3298H35.5398C35.0298 7.31984 30.0498 2.58984 23.9998 2.58984C17.9498 2.58984 12.9598 7.31984 12.4598 13.3298H5.09979C4.54979 13.3298 4.09979 13.7798 4.09979 14.3298V21.3798C4.09979 23.2498 4.48979 25.0298 5.18979 26.6398L3.68979 34.2598C3.13979 37.0298 3.84979 39.8698 5.63979 42.0498C7.39979 44.1898 9.97979 45.4098 12.7198 45.4098H35.2798C38.0198 45.4098 40.5898 44.1898 42.3498 42.0598C44.1398 39.8898 44.8598 37.0398 44.3198 34.2598H44.3098ZM23.9998 4.58984C28.9498 4.58984 33.0398 8.42984 33.5398 13.3298H14.4598C14.9498 8.42984 19.0498 4.58984 23.9998 4.58984ZM6.09979 15.3198H34.5398C34.5398 15.3198 34.5798 15.3298 34.5998 15.3298C34.6198 15.3298 34.6398 15.3198 34.6598 15.3198H41.9198V21.3698C41.9198 23.0698 41.5298 24.6798 40.8498 26.1298C40.5098 26.8498 40.1098 27.5198 39.6398 28.1398C38.3898 29.7898 36.7098 31.0498 34.8198 31.7798C34.7698 31.7998 34.7098 31.8198 34.6598 31.8398C34.2298 31.9998 33.7898 32.1298 33.3398 32.2398C33.3198 32.2398 33.2998 32.2498 33.2798 32.2598C33.1398 32.2898 33.0098 32.3098 32.8698 32.3398C32.6698 32.3798 32.4698 32.4098 32.2698 32.4298C32.1598 32.4398 32.0398 32.4598 31.9298 32.4698C31.6098 32.4998 31.2798 32.5198 30.9598 32.5198H29.4898V31.1198C29.4898 30.5698 29.0398 30.1198 28.4898 30.1198H19.0298C18.4798 30.1198 18.0298 30.5698 18.0298 31.1198V32.5198H17.0698C16.7398 32.5198 16.4198 32.4998 16.0998 32.4698C15.9898 32.4598 15.8698 32.4498 15.7598 32.4298C15.5598 32.4098 15.3598 32.3698 15.1598 32.3398C15.0198 32.3098 14.8898 32.2898 14.7498 32.2598C14.6098 32.2298 14.4598 32.1898 14.3198 32.1498C13.9998 32.0598 13.6798 31.9698 13.3698 31.8498C13.3098 31.8298 13.2598 31.8098 13.1998 31.7898C11.3098 31.0498 9.62979 29.7898 8.37979 28.1398C7.90979 27.5098 7.49979 26.8398 7.16979 26.1098C6.49979 24.6698 6.11979 23.0698 6.11979 21.3798V15.3298L6.09979 15.3198ZM20.0198 33.5198V32.1198H27.4798V34.9198H20.0198V33.5198ZM40.7998 40.7898C39.4298 42.4498 37.4198 43.4098 35.2798 43.4098H12.7198C10.5798 43.4098 8.55979 42.4498 7.18979 40.7798C5.77979 39.0698 5.21979 36.8298 5.64979 34.6498L6.70979 29.2698C6.70979 29.2698 6.73979 29.2998 6.74979 29.3198C7.93979 30.9098 9.47979 32.2098 11.2498 33.1198C11.2498 33.1198 11.2498 33.1198 11.2598 33.1198C11.6698 33.3298 12.0998 33.5198 12.5398 33.6798C12.5898 33.6998 12.6498 33.7198 12.6998 33.7398C13.0898 33.8798 13.4798 33.9998 13.8898 34.0998C13.9798 34.1198 14.0598 34.1498 14.1498 34.1698C14.5298 34.2598 14.9098 34.3298 15.2998 34.3798C15.3998 34.3898 15.4998 34.4198 15.5998 34.4298C16.0798 34.4798 16.5598 34.5198 17.0498 34.5198H18.0098V35.9198C18.0098 36.4698 18.4598 36.9198 19.0098 36.9198H28.4698C29.0198 36.9198 29.4698 36.4698 29.4698 35.9198V34.5198H30.9398C31.4298 34.5198 31.9098 34.4898 32.3898 34.4298C32.4898 34.4198 32.5898 34.3998 32.6898 34.3798C33.0798 34.3298 33.4698 34.2598 33.8498 34.1698C33.9298 34.1498 34.0098 34.1298 34.0998 34.1098C34.5098 34.0098 34.9098 33.8798 35.2998 33.7398C35.3498 33.7198 35.3998 33.6998 35.4498 33.6798C37.7698 32.7998 39.7798 31.2798 41.2498 29.3198C41.2598 29.2998 41.2798 29.2898 41.2898 29.2798L42.3498 34.6498C42.7798 36.8398 42.2098 39.0898 40.7998 40.7998V40.7898Z" fill="#323232"/>
</svg>
