<svg width="84" height="21" viewBox="0 0 84 21" fill="none" xmlns="http://www.w3.org/2000/svg">
<path fill-rule="evenodd" clip-rule="evenodd" d="M28.6731 9.88791H26.4921V14.5819C26.4921 15.4349 26.9911 15.6209 27.7601 15.6209C28.0511 15.6209 28.3621 15.5789 28.6731 15.5789V18.1769C28.0301 18.1989 27.3861 18.2799 26.7421 18.2799C23.7281 18.2799 22.9591 17.4089 22.9591 14.4789V9.88791H21.1721V7.51691H22.9591V4.12891H26.4921V7.51691H28.6731V9.88791Z" fill="#1A1919"/>
<path fill-rule="evenodd" clip-rule="evenodd" d="M46.4591 9.88791H44.2771V14.5819C44.2771 15.4349 44.7761 15.6209 45.5441 15.6209C45.8351 15.6209 46.1471 15.5789 46.4591 15.5789V18.1769C45.8141 18.1989 45.1691 18.2799 44.5261 18.2799C41.5131 18.2799 40.7441 17.4089 40.7441 14.4789V9.88791H38.9561V7.51691H40.7441V4.12891H44.2771V7.51691H46.4591V9.88791Z" fill="#1A1919"/>
<path fill-rule="evenodd" clip-rule="evenodd" d="M9.854 13.6912C9.854 16.8442 8.238 18.4392 4.928 18.4392C1.203 18.4392 0 16.2912 0 13.1582V12.5472H3.45V13.8482C3.45 14.7742 3.962 15.2882 4.868 15.2882C5.715 15.2882 6.188 14.8142 6.188 13.4542V4.07324H9.854V13.6912Z" fill="#1A1919"/>
<path fill-rule="evenodd" clip-rule="evenodd" d="M18.087 11.6829C18.025 10.4889 17.181 9.49791 16.007 9.49791C14.769 9.49791 13.946 10.3859 13.74 11.6829H18.087ZM13.74 13.6389C13.802 15.1019 14.647 16.0709 16.13 16.0709C16.975 16.0709 17.799 15.6799 18.129 14.8959H21.404C20.766 17.3699 18.479 18.4389 16.088 18.4389C12.608 18.4389 10.238 16.3389 10.238 12.7529C10.238 9.47791 12.855 7.12891 16.007 7.12891C19.839 7.12891 21.754 10.0139 21.589 13.6389H13.74Z" fill="#1A1919"/>
<path fill-rule="evenodd" clip-rule="evenodd" d="M32.1181 14.6192C32.1181 15.1522 32.3431 15.5432 32.6931 15.8102C33.0211 16.0562 33.4951 16.1792 33.9881 16.1792C34.6661 16.1792 35.6321 15.8912 35.6321 15.0502C35.6321 14.2272 34.5421 14.0632 33.9261 13.9202C31.7271 13.3662 28.9731 13.3032 28.9731 10.4252C28.9731 7.85818 31.7491 7.15918 33.8441 7.15918C36.1861 7.15918 38.6321 7.83818 38.7551 10.6122H35.5291C35.5291 10.1592 35.3641 9.87118 35.0771 9.68518C34.7901 9.50118 34.4001 9.41918 33.9681 9.41918C33.3921 9.41918 32.4671 9.48118 32.4671 10.2212C32.4671 11.2272 34.8091 11.4132 36.4121 11.7622C38.5711 12.1942 39.1251 13.7542 39.1251 14.6392C39.1251 17.4952 36.4121 18.4392 34.0091 18.4392C31.4801 18.4392 28.8911 17.5962 28.7891 14.6192H32.1181Z" fill="#1A1919"/>
<path fill-rule="evenodd" clip-rule="evenodd" d="M51.607 16.288C53.268 16.288 53.821 15.345 53.739 13.154C53.247 13.458 52.344 13.521 51.586 13.725C50.808 13.911 50.153 14.239 50.153 15.079C50.153 15.939 50.83 16.288 51.607 16.288ZM47.099 10.774C47.161 9.38001 47.816 8.47801 48.758 7.92501C49.701 7.39201 50.93 7.18701 52.14 7.18701C54.661 7.18701 57.099 7.74101 57.099 10.754V15.408C57.099 16.308 57.099 17.291 57.51 18.133H54.004C53.882 17.804 53.84 17.477 53.799 17.128C52.898 18.071 51.565 18.439 50.295 18.439C48.267 18.439 46.667 17.415 46.667 15.222C46.667 11.757 50.438 12.025 52.858 11.533C53.451 11.41 53.781 11.205 53.781 10.549C53.781 9.74901 52.817 9.44201 52.099 9.44201C51.135 9.44201 50.521 9.87201 50.357 10.774H47.099Z" fill="#1A1919"/>
<path fill-rule="evenodd" clip-rule="evenodd" d="M62.4679 7.827C61.9339 8.176 61.5199 8.686 61.2689 9.35H61.2279V7.479H57.8359V18.146H61.3309V12.864C61.3309 11.529 62.2319 10.336 63.9589 10.336C64.3609 10.336 64.7189 10.397 65.0929 10.491L62.4679 7.827Z" fill="#1A1919"/>
<path fill-rule="evenodd" clip-rule="evenodd" d="M75.2581 0L75.6351 6.056H83.9991L75.9891 11.358L77.7551 20.101L70.9451 14.187L61.7791 18.946L67.2461 11.452L62.0621 6.056H70.4511L75.2581 0Z" fill="#FF5700"/>
</svg>
