<svg width="48" height="48" viewBox="0 0 48 48" fill="none" xmlns="http://www.w3.org/2000/svg">
<path d="M30.3504 23.08C30.3504 30.74 24.0004 31.83 24.0004 31.83C24.0004 31.83 17.6504 30.74 17.6504 23.08V17.9L24.0004 15.29L30.3504 17.9V23.08Z" fill="#DF0000"/>
<path d="M24.0009 1.81006L6.96094 8.81006V13.9301L24.0009 6.94006L41.0409 13.9301V8.81006L24.0009 1.81006Z" fill="#8DE2E0"/>
<path d="M24.0009 47.1899C23.9409 47.1899 23.8909 47.1899 23.8309 47.1799C23.6509 47.1499 5.96094 43.8599 5.96094 22.7199V8.80994C5.96094 8.39994 6.21094 8.03994 6.58094 7.87994L23.6209 0.889941C23.8609 0.789941 24.1409 0.789941 24.3809 0.889941L41.4209 7.88994C41.8009 8.03994 42.0409 8.40994 42.0409 8.81994V22.7299C42.0409 43.8699 24.3509 47.1599 24.1709 47.1899C24.1109 47.1899 24.0609 47.1999 24.0009 47.1999V47.1899ZM7.96094 9.47994V22.7199C7.96094 41.2899 22.1709 44.7999 24.0009 45.1699C25.8309 44.7999 40.0409 41.2799 40.0409 22.7199V9.47994L24.0009 2.88994L7.96094 9.47994Z" fill="#323232"/>
</svg>
