<svg width="48" height="48" viewBox="0 0 48 48" fill="none" xmlns="http://www.w3.org/2000/svg">
<path d="M39.88 44.25H8.12C5.71 44.25 3.75 42.29 3.75 39.88V8.12C3.75 5.71 5.71 3.75 8.12 3.75H39.88C42.29 3.75 44.25 5.71 44.25 8.12V39.89C44.25 42.3 42.29 44.26 39.88 44.26V44.25ZM8.12 5.75C6.81 5.75 5.75 6.81 5.75 8.12V39.89C5.75 41.2 6.81 42.26 8.12 42.26H39.88C41.19 42.26 42.25 41.2 42.25 39.89V8.12C42.25 6.81 41.19 5.75 39.88 5.75H8.12Z" fill="#323232"/>
<path d="M26.4806 33.53L25.0006 35V12.99L26.4806 14.47C26.6806 14.67 26.9306 14.76 27.1906 14.76C27.4506 14.76 27.7006 14.66 27.9006 14.47C28.2906 14.08 28.2906 13.45 27.9006 13.06L24.7206 9.87996C24.6306 9.78996 24.5206 9.70996 24.3906 9.65996C24.1506 9.55996 23.8706 9.55996 23.6306 9.65996C23.5106 9.70996 23.4006 9.77996 23.3006 9.87996L20.1206 13.06C19.7306 13.45 19.7306 14.08 20.1206 14.47C20.5106 14.86 21.1406 14.86 21.5306 14.47L23.0106 12.99V34.95L21.5506 33.44C21.1706 33.04 20.5306 33.03 20.1406 33.42C19.7406 33.8 19.7306 34.44 20.1206 34.83L23.3006 38.11C23.4906 38.3 23.7406 38.41 24.0106 38.41C24.2806 38.41 24.5306 38.3 24.7206 38.12L27.9006 34.94C28.2906 34.55 28.2906 33.92 27.9006 33.53C27.5106 33.14 26.8806 33.14 26.4906 33.53H26.4806Z" fill="#DF0000"/>
</svg>
