<svg width="48" height="48" viewBox="0 0 48 48" fill="none" xmlns="http://www.w3.org/2000/svg">
<path d="M7.79906 17.2099C7.79906 19.4799 10.2191 25.1899 15.9191 25.1899C21.6191 25.1899 23.7691 19.5499 23.7691 17.2099C23.7691 16.6299 23.7191 15.8199 23.6591 14.9499V14.8999H7.90906V14.9299C7.84906 15.7999 7.78906 16.6199 7.78906 17.2099H7.79906Z" fill="#DF0000"/>
<path d="M28.3395 24.58C29.6995 26.05 31.3795 26.8 33.3395 26.8C38.2295 26.8 40.1995 21.87 40.1995 19.82C40.1995 19.29 40.1495 18.51 40.0995 17.77V17.73H29.3495C29.2495 19.76 28.5595 21.98 27.4395 23.94C27.7695 24.09 28.0795 24.31 28.3395 24.58Z" fill="#8DE2E0"/>
<path d="M27.45 14.69L27.43 14.44C27.1 9.93998 26.22 3.64998 26.21 3.58998C26.14 3.09998 25.72 2.72998 25.22 2.72998H6.35C5.85 2.72998 5.43 3.09998 5.36 3.58998C5.36 3.64998 4.48 9.93998 4.14 14.44L4.12 14.67C4.06 15.6 4 16.49 4 17.21C4 21.78 7.83 28.28 14.79 28.93V43.17H9.05C8.5 43.17 8.05 43.62 8.05 44.17C8.05 44.72 8.5 45.17 9.05 45.17H22.53C23.08 45.17 23.53 44.72 23.53 44.17C23.53 43.62 23.08 43.17 22.53 43.17H16.79V28.94C20.74 28.66 23.28 26.55 24.73 24.75C26.48 22.57 27.57 19.68 27.57 17.21C27.57 16.5 27.51 15.62 27.45 14.7V14.69ZM15.92 26.99C9.31 26.99 6 20.72 6 17.21C6 16.56 6.06 15.71 6.12 14.81V14.59H6.13C6.39 11.14 6.97 6.59998 7.22 4.72998H24.35C24.6 6.59998 25.18 11.13 25.44 14.58L25.46 14.83C25.52 15.72 25.58 16.56 25.58 17.21C25.58 20.52 22.67 26.99 15.93 26.99H15.92Z" fill="#323232"/>
<path d="M43.8906 17.5101V17.3001H43.8806C43.5806 13.2201 42.7806 7.51009 42.7706 7.45009C42.7006 6.96009 42.2806 6.59009 41.7806 6.59009H29.1306C28.5806 6.59009 28.1306 7.04009 28.1306 7.59009C28.1306 8.14009 28.5806 8.59009 29.1306 8.59009H40.9006C41.1306 10.3301 41.6506 14.3601 41.8806 17.4401V17.6501C41.9506 18.4701 42.0006 19.2401 42.0006 19.8201C42.0006 22.7901 39.3806 28.6001 33.3406 28.6001C30.2406 28.6001 28.1906 27.0801 27.0106 25.8001C26.6406 25.3901 26.0006 25.3701 25.6006 25.7401C25.1906 26.1101 25.1706 26.7501 25.5406 27.1501C26.8406 28.5601 29.0206 30.2101 32.2206 30.5301V43.2701H27.1106C26.5606 43.2701 26.1106 43.7201 26.1106 44.2701C26.1106 44.8201 26.5606 45.2701 27.1106 45.2701H39.3406C39.8906 45.2701 40.3406 44.8201 40.3406 44.2701C40.3406 43.7201 39.8906 43.2701 39.3406 43.2701H34.2306V30.5401C37.7906 30.2601 40.1006 28.3501 41.4206 26.7101C43.0206 24.7201 44.0206 22.0801 44.0206 19.8201C44.0206 19.1601 43.9706 18.3601 43.9106 17.5101H43.8906Z" fill="#323232"/>
</svg>
