<svg width="48" height="48" viewBox="0 0 48 48" fill="none" xmlns="http://www.w3.org/2000/svg">
<path d="M37.98 16.9398H14.91V13.9098C14.91 8.89982 18.99 4.81982 24 4.81982C28.3 4.81982 32.05 7.86982 32.91 12.0798C33.02 12.6198 33.55 12.9698 34.09 12.8598C34.63 12.7498 34.98 12.2198 34.87 11.6798C33.82 6.54982 29.25 2.81982 24 2.81982C17.89 2.81982 12.91 7.78982 12.91 13.9098V16.9398H10.02C7.67 16.9398 5.75 18.8498 5.75 21.2098V40.9098C5.75 43.2598 7.66 45.1798 10.02 45.1798H37.99C40.34 45.1798 42.26 43.2698 42.26 40.9098V21.2098C42.26 18.8598 40.35 16.9398 37.99 16.9398H37.98ZM40.25 40.9098C40.25 42.1598 39.23 43.1798 37.98 43.1798H10.02C8.77 43.1798 7.75 42.1598 7.75 40.9098V21.2098C7.75 19.9598 8.77 18.9398 10.02 18.9398H13.91H37.98C39.23 18.9398 40.25 19.9598 40.25 21.2098V40.9098Z" fill="#323232"/>
<path d="M24 35.5701C23.17 35.5701 22.5 34.9001 22.5 34.0701V27.8301C22.5 27.0001 23.17 26.3301 24 26.3301C24.83 26.3301 25.5 27.0001 25.5 27.8301V34.0701C25.5 34.9001 24.83 35.5701 24 35.5701Z" fill="#DF0000"/>
</svg>
