<svg width="48" height="48" viewBox="0 0 48 48" fill="none" xmlns="http://www.w3.org/2000/svg">
<path d="M38.9804 26.0201C38.0104 26.0201 36.9804 25.6001 36.0604 24.8101C34.2004 23.2101 32.7404 19.9701 33.2804 15.2201C32.3404 14.9501 31.4704 14.8201 30.7904 14.7701C30.7304 14.7701 30.6704 14.7601 30.6004 14.7501C30.3804 16.8801 29.3304 18.6601 28.4204 19.6401C28.0504 20.0401 27.4104 20.0701 27.0104 19.7001C26.6004 19.3301 26.5804 18.6901 26.9504 18.2901C27.0504 18.1801 28.4004 16.6501 28.6104 14.5001C24.3404 13.7701 21.0304 11.9901 20.0804 9.80007C19.6404 8.78007 19.7504 7.76007 20.4104 6.94007C21.1104 6.06007 22.0504 5.58007 23.1304 5.56007C25.1804 5.52007 27.2704 7.11007 28.4604 8.48007C29.7004 9.91007 30.3204 11.3601 30.5504 12.7401C30.6804 12.7501 30.8204 12.7601 30.9504 12.7801C31.8704 12.8501 32.7604 13.0101 33.6104 13.2301C33.7704 12.4801 33.9804 11.6901 34.2404 10.8701C34.4104 10.3501 34.9704 10.0501 35.5004 10.2201C36.0304 10.3901 36.3204 10.9501 36.1504 11.4801C35.8804 12.3301 35.6704 13.1301 35.5104 13.8901C37.7504 14.8701 39.6104 16.4501 40.9304 18.5401C41.4804 19.4001 42.6904 21.6201 42.1504 23.5801C41.8904 24.5101 41.2604 25.2501 40.3304 25.7101C39.9104 25.9201 39.4504 26.0201 38.9704 26.0201H38.9804ZM35.2104 15.9701C34.9004 19.6501 35.9704 22.1001 37.3604 23.3001C38.0904 23.9301 38.9304 24.1801 39.4504 23.9201C39.8704 23.7101 40.1204 23.4301 40.2304 23.0401C40.5004 22.0701 39.9004 20.6401 39.2504 19.6101C38.1104 17.8201 36.6604 16.6901 35.2104 15.9601V15.9701ZM23.2104 7.56007C23.2104 7.56007 23.1904 7.56007 23.1704 7.56007C22.6904 7.56007 22.3104 7.77007 21.9804 8.18007C21.8504 8.35007 21.7304 8.58007 21.9204 9.00007C22.4704 10.2601 24.8504 11.7201 28.4304 12.4301C28.1904 11.5801 27.7304 10.6901 26.9504 9.79007C25.9904 8.68007 24.4004 7.56007 23.2104 7.56007Z" fill="#DF0000"/>
<path d="M36.0804 9.40998C36.0004 9.40998 35.9204 9.40998 35.8404 9.37998C35.3104 9.24998 34.9804 8.70998 35.1104 8.17998C35.1204 8.11998 35.2504 7.59998 35.6004 6.85998C35.8304 6.35998 36.4304 6.13998 36.9304 6.37998C37.4304 6.60998 37.6404 7.20998 37.4104 7.70998C37.1504 8.25998 37.0504 8.63998 37.0504 8.64998C36.9404 9.09998 36.5304 9.40998 36.0804 9.40998ZM37.8104 6.27998C37.5804 6.27998 37.3404 6.19998 37.1504 6.02998C36.7404 5.66998 36.6904 5.02998 37.0604 4.61998C37.3604 4.27998 37.6804 3.96998 38.0204 3.67998C38.4404 3.31998 39.0704 3.36998 39.4304 3.78998C39.7904 4.20998 39.7404 4.83998 39.3204 5.19998C39.0504 5.42998 38.8004 5.66998 38.5704 5.93998C38.3704 6.15998 38.1004 6.27998 37.8204 6.27998H37.8104ZM40.7004 4.17998C40.3104 4.17998 39.9404 3.94998 39.7804 3.57998C39.5604 3.06998 39.8004 2.47998 40.3004 2.26998C40.7004 2.09998 41.1204 1.94998 41.5604 1.82998C42.0904 1.67998 42.6404 1.98998 42.7904 2.52998C42.9404 3.05998 42.6304 3.60998 42.0904 3.75998C41.7404 3.85998 41.4104 3.96998 41.0904 4.10998C40.9604 4.16998 40.8304 4.18998 40.6904 4.18998L40.7004 4.17998Z" fill="#DF0000"/>
<path d="M14.6593 46.38C14.6593 46.38 14.6093 46.38 14.5893 46.38C14.1593 46.36 13.7693 46.12 13.5493 45.75L10.9693 41.47L6.14932 40.18C5.72932 40.07 5.39932 39.76 5.24932 39.35C5.10932 38.94 5.17932 38.49 5.42932 38.14L5.90932 37.49C6.26932 37 6.84932 36.71 7.46932 36.71H10.9193L13.0793 33.84L5.55932 31.22C5.06932 31.05 4.68932 30.65 4.53932 30.16C4.38932 29.66 4.48932 29.12 4.79932 28.71L5.21932 28.15C5.74932 27.44 6.59932 27.01 7.47932 27L18.3393 26.85L22.1093 21.84C22.5793 21.22 23.2593 20.82 24.0293 20.71C24.7993 20.6 25.5593 20.8 26.1793 21.26C26.7993 21.73 27.1993 22.41 27.3093 23.18C27.4193 23.95 27.2193 24.71 26.7593 25.33L22.9893 30.34L25.8593 40.82C26.0893 41.67 25.9193 42.6 25.3793 43.31L24.9593 43.87C24.6493 44.28 24.1593 44.5 23.6393 44.52C23.1193 44.52 22.6293 44.26 22.3293 43.83L17.7293 37.34L15.5693 40.21L16.5193 43.52C16.6893 44.11 16.5693 44.75 16.1993 45.23L15.7093 45.88C15.4593 46.2 15.0793 46.39 14.6693 46.39L14.6593 46.38ZM8.37932 38.71L11.6393 39.58C12.0493 39.69 12.3893 39.95 12.6093 40.31L14.3893 43.26L13.5493 40.42C13.4393 40.03 13.5193 39.61 13.7593 39.28L16.4293 35.72C16.7393 35.31 17.2293 35.05 17.7493 35.07C18.2693 35.07 18.7593 35.33 19.0493 35.76L23.6493 42.25L23.7693 42.1C23.9393 41.88 23.9893 41.6 23.9193 41.34L21.0093 30.69C20.8793 30.2 20.9693 29.69 21.2793 29.28L25.1593 24.12C25.3093 23.93 25.3693 23.69 25.3293 23.45C25.2993 23.21 25.1693 23 24.9793 22.85C24.5793 22.55 24.0093 22.63 23.7093 23.03L19.8293 28.19C19.5293 28.59 19.0593 28.83 18.5493 28.84L7.50932 29C7.23932 29 6.97932 29.13 6.81932 29.35L6.69932 29.5L14.2193 32.12C14.7093 32.29 15.0893 32.69 15.2393 33.18C15.3893 33.68 15.2893 34.22 14.9793 34.63L12.3093 38.18C12.0693 38.5 11.6793 38.7 11.2693 38.7H8.37932V38.71ZM7.06932 39.3L7.04932 39.34C7.04932 39.34 7.06932 39.32 7.06932 39.3Z" fill="#323232"/>
</svg>
