<svg width="48" height="48" viewBox="0 0 48 48" fill="none" xmlns="http://www.w3.org/2000/svg">
<path d="M14.9002 27.44L10.7302 28.64C9.84021 28.89 8.88021 28.57 8.32021 27.84L3.28021 21.23C2.89021 20.72 3.14021 19.99 3.74021 19.81L5.41021 19.33C6.10021 19.13 6.85021 19.27 7.42021 19.73L15.1902 25.87C15.7702 26.33 15.5902 27.25 14.8802 27.45" fill="#DF0000"/>
<path d="M45.8597 17.5901L45.7997 17.3801C45.5497 16.4701 44.9797 14.3301 43.0197 13.2201C41.5997 12.4101 39.7597 12.3201 37.5597 12.9401L28.1897 15.5801C28.1897 15.5801 28.1497 15.5501 28.1297 15.5401L18.2697 11.7701C16.4397 11.1701 14.3997 11.4701 12.8297 12.5701C12.5897 12.7401 12.4297 13.0001 12.4097 13.3001C12.3897 13.6001 12.4797 13.8801 12.6897 14.0901C13.8497 15.2801 16.0597 17.3801 17.3897 18.6201L12.9397 19.8801C12.4097 20.0301 12.0997 20.5801 12.2497 21.1101C12.3997 21.6401 12.9497 21.9501 13.4797 21.8001L38.1097 14.8601C39.7797 14.3901 41.0997 14.4201 42.0397 14.9601C42.9597 15.4801 43.4097 16.4201 43.6697 17.1901C40.3997 18.1301 30.6497 20.9301 30.6497 20.9301C30.4197 20.9901 30.2297 21.1401 30.0997 21.3301C30.0497 21.4101 24.6497 29.4201 22.8997 32.0801C22.1997 33.0701 21.2097 33.8101 20.0697 34.2101L22.2297 24.8801C22.3097 24.5401 22.1997 24.1701 21.9397 23.9301C21.6797 23.6901 21.3197 23.6001 20.9797 23.6901L17.8397 24.5901C17.3097 24.7401 16.9997 25.3001 17.1597 25.8301C17.3097 26.3601 17.8697 26.6701 18.3997 26.5101L19.8997 26.0801L17.7597 35.3001C17.6897 35.6101 17.7697 35.9401 17.9797 36.1901C18.1697 36.4101 18.4497 36.5301 18.7297 36.5301C18.7597 36.5301 18.7997 36.5301 18.8297 36.5301C21.1197 36.3001 23.1997 35.1101 24.5397 33.2101C26.0997 30.8301 30.5397 24.2401 31.5397 22.7501C33.5997 22.1601 44.0597 19.1601 45.1797 18.8301C45.7097 18.6801 46.0097 18.1201 45.8597 17.5901ZM15.0897 13.6601C15.9097 13.4001 16.7997 13.3901 17.5997 13.6601L24.9897 16.4901L19.6297 18.0001C18.9797 17.3901 16.6897 15.2501 15.0797 13.6701L15.0897 13.6601Z" fill="#323232"/>
</svg>
