<svg width="24" height="24" viewBox="0 0 24 24" fill="none" xmlns="http://www.w3.org/2000/svg">
<g clip-path="url(#clip0_16335_12419)">
<path d="M23.8449 13.9238C24.9068 7.382 20.4644 1.218 13.9226 0.156118C7.38083 -0.905765 1.21683 3.53658 0.154948 10.0784C-0.906935 16.6202 3.53541 22.7842 10.0772 23.846C16.619 24.9079 22.783 20.4656 23.8449 13.9238Z" fill="white"/>
<mask id="mask0_16335_12419" style="mask-type:luminance" maskUnits="userSpaceOnUse" x="-1" y="-1" width="26" height="26">
<path d="M23.8449 13.9238C24.9068 7.382 20.4644 1.218 13.9226 0.156118C7.38083 -0.905765 1.21683 3.53658 0.154948 10.0784C-0.906935 16.6202 3.53541 22.7842 10.0772 23.846C16.619 24.9079 22.783 20.4656 23.8449 13.9238Z" fill="white"/>
</mask>
<g mask="url(#mask0_16335_12419)">
<path d="M29.9993 0H-6.00067V9.39793H29.9993V0Z" fill="black"/>
<path d="M29.9993 14.5322H-6.00067V24.0014H29.9993V14.5322Z" fill="white"/>
<path d="M29.9993 9.39795H-6.00067V14.5322H29.9993V9.39795Z" fill="#007FFF"/>
<path fill-rule="evenodd" clip-rule="evenodd" d="M30.0007 0V24H12L30.0007 0Z" fill="#CE1126"/>
<path fill-rule="evenodd" clip-rule="evenodd" d="M-6.00067 0V24H12L-6.00067 0Z" fill="#CE1126"/>
<path fill-rule="evenodd" clip-rule="evenodd" d="M11.237 5.54631L12 1.56494L12.7658 5.56168L15.0073 2.16585L14.1828 6.13464L17.5381 3.85957L15.2533 7.22606L19.2403 6.40994L15.8514 8.6347L19.8328 9.39771L15.836 10.1635L19.2319 12.405L15.2631 11.5805L17.5381 14.9359L14.1703 12.651L14.9864 16.638L12.763 13.2477L12 17.2291L11.2342 13.2323L8.99267 16.6282L9.81717 12.6594L6.46187 14.9359L8.74672 11.568L4.75976 12.3841L8.15 10.1607L4.16724 9.39771L8.16398 8.6319L4.76814 6.38898L8.73833 7.21348L6.46187 3.85957L9.82975 6.14302L9.01363 2.15607L11.237 5.54631Z" fill="#FED700"/>
</g>
</g>
<rect x="0.25" y="0.25" width="23.5" height="23.5" rx="11.75" stroke="#E5E3E1" stroke-width="0.5"/>
<defs>
<clipPath id="clip0_16335_12419">
<rect width="24" height="24" rx="12" fill="white"/>
</clipPath>
</defs>
</svg>
