<svg width="24" height="24" viewBox="0 0 24 24" fill="none" xmlns="http://www.w3.org/2000/svg">
<g clip-path="url(#clip0_10513_11157)">
<path fill-rule="evenodd" clip-rule="evenodd" d="M7.4 17H5.8L7.8 10.2632H3.4L2.2 11.9474H1L1.8 9L1 6.05263H2.2L3.4 7.73684H7.8L5.8 1H7.4L11.4 7.73684H15.8C16.464 7.73684 17 8.30105 17 9C17 9.69895 16.464 10.2632 15.8 10.2632H11.4L7.4 17ZM10 19.875L13.25 23L14.16 22.1094L12.4862 20.5H17.15V19.25H12.4862L14.16 17.6406L13.25 16.75L10 19.875ZM18.84 18.3594L19.75 19.25L23 16.125L19.75 13L18.84 13.8906L20.5138 15.5H15.85V16.75H20.5138L18.84 18.3594Z" fill="#323232"/>
</g>
<defs>
<clipPath id="clip0_10513_11157">
<rect width="24" height="24" fill="white"/>
</clipPath>
</defs>
</svg>
