<svg width="48" height="48" viewBox="0 0 48 48" fill="none" xmlns="http://www.w3.org/2000/svg">
<path d="M7.05933 31.3001C6.65933 31.3001 6.27933 31.0601 6.12933 30.6701C5.92933 30.1601 6.17933 29.5801 6.69933 29.3701L18.7393 24.6401C19.2493 24.4401 19.8293 24.6901 20.0393 25.2101C20.2393 25.7201 19.9893 26.3001 19.4693 26.5101L7.42933 31.2401C7.30933 31.2901 7.18933 31.3101 7.06933 31.3101L7.05933 31.3001Z" fill="#DF0000"/>
<path d="M23.2195 24.9598C22.8195 24.9598 22.4395 24.7198 22.2895 24.3298C22.0895 23.8198 22.3395 23.2398 22.8595 23.0298L43.1195 15.0698C43.6295 14.8698 44.2095 15.1198 44.4195 15.6398C44.6195 16.1498 44.3695 16.7298 43.8495 16.9398L23.5895 24.8998C23.4695 24.9498 23.3495 24.9698 23.2295 24.9698L23.2195 24.9598Z" fill="#DF0000"/>
<path d="M21.0312 10.8301C18.4113 10.8301 16.2812 8.70008 16.2812 6.08008C16.2812 3.46008 18.4113 1.33008 21.0312 1.33008C23.6512 1.33008 25.7812 3.46008 25.7812 6.08008C25.7812 8.70008 23.6512 10.8301 21.0312 10.8301ZM21.0312 3.33008C19.5113 3.33008 18.2812 4.56008 18.2812 6.08008C18.2812 7.60008 19.5113 8.83008 21.0312 8.83008C22.5512 8.83008 23.7812 7.60008 23.7812 6.08008C23.7812 4.56008 22.5512 3.33008 21.0312 3.33008Z" fill="#323232"/>
<path d="M23.2212 26.4503C22.6712 26.4503 22.2212 26.0003 22.2212 25.4503V14.2703C19.8012 14.5503 14.0312 15.5803 14.0312 19.0603V24.4003C14.0312 24.9503 13.5812 25.4003 13.0312 25.4003C12.4812 25.4003 12.0312 24.9503 12.0312 24.4003V19.0603C12.0312 12.6903 22.7313 12.1903 23.1813 12.1703C23.4513 12.1503 23.7213 12.2603 23.9113 12.4503C24.1112 12.6403 24.2212 12.9003 24.2212 13.1703V25.4403C24.2212 25.9903 23.7712 26.4403 23.2212 26.4403V26.4503Z" fill="#323232"/>
<path d="M31.041 20.7503C29.401 20.7503 25.961 19.7603 24.701 16.0203C24.521 15.5003 24.801 14.9303 25.331 14.7503C25.851 14.5703 26.421 14.8503 26.601 15.3803C27.721 18.7103 31.011 18.7403 31.051 18.7403C31.601 18.7403 32.051 19.1903 32.051 19.7403C32.051 20.2903 31.601 20.7403 31.051 20.7403L31.041 20.7503Z" fill="#323232"/>
<path d="M28.8213 38.1799C28.2713 38.1799 27.8213 37.7299 27.8213 37.1799V34.6099C27.8213 33.0799 27.8213 31.3499 27.2513 30.0399C26.9113 29.2699 26.3913 29.2399 24.3113 29.4199C23.9513 29.4499 23.5713 29.4899 23.1713 29.5099C21.6613 29.6099 20.4313 29.1999 19.5013 28.2899C17.7313 26.5599 17.8513 23.6499 17.8513 23.5299V17.4199C17.8513 16.8699 18.3013 16.4199 18.8513 16.4199C19.4013 16.4199 19.8513 16.8699 19.8513 17.4199V23.5799C19.8513 23.6399 19.7813 25.7699 20.9013 26.8699C21.4113 27.3699 22.1213 27.5799 23.0413 27.5199C23.4213 27.4899 23.7813 27.4599 24.1313 27.4299C26.1013 27.2499 28.1313 27.0699 29.0813 29.2399C29.8213 30.9299 29.8213 32.8899 29.8213 34.6099V37.1799C29.8213 37.7299 29.3713 38.1799 28.8213 38.1799Z" fill="#323232"/>
<path d="M13.3706 44.3101C12.9606 44.3101 12.5706 44.0501 12.4306 43.6401C12.2506 43.1201 12.5206 42.5501 13.0506 42.3701C14.1906 41.9701 16.7306 39.7901 17.7606 36.8501C18.8606 33.6901 18.4206 29.7901 18.4106 29.7601C18.3506 29.2101 18.7406 28.7201 19.2806 28.6501C19.8306 28.5901 20.3306 28.9801 20.3906 29.5201C20.4106 29.7001 20.9006 33.9101 19.6406 37.5101C18.4206 40.9901 15.4106 43.6701 13.7006 44.2601C13.5906 44.3001 13.4806 44.3201 13.3706 44.3201V44.3101Z" fill="#323232"/>
<path d="M24.9105 46.6703H3.73047C3.18047 46.6703 2.73047 46.2203 2.73047 45.6703C2.73047 45.1203 3.18047 44.6703 3.73047 44.6703H23.9105V40.2003C23.9105 39.6503 24.3605 39.2003 24.9105 39.2003H33.8505V33.5303C33.8505 32.9803 34.3005 32.5303 34.8505 32.5303H44.2705C44.8205 32.5303 45.2705 32.9803 45.2705 33.5303C45.2705 34.0803 44.8205 34.5303 44.2705 34.5303H35.8505V40.2003C35.8505 40.7503 35.4005 41.2003 34.8505 41.2003H25.9105V45.6703C25.9105 46.2203 25.4605 46.6703 24.9105 46.6703Z" fill="#8DE2E0"/>
</svg>
