<svg width="24" height="24" viewBox="0 0 24 24" fill="none" xmlns="http://www.w3.org/2000/svg">
<g clip-path="url(#clip0_16335_10226)">
<path d="M23.6789 14.7553C25.2013 8.30512 21.2066 1.84207 14.7564 0.319687C8.30617 -1.2027 1.84311 2.79208 0.320729 9.24228C-1.20165 15.6925 2.79312 22.1555 9.24332 23.6779C15.6935 25.2003 22.1566 21.2055 23.6789 14.7553Z" fill="white"/>
<mask id="mask0_16335_10226" style="mask-type:luminance" maskUnits="userSpaceOnUse" x="-1" y="-1" width="26" height="26">
<path d="M23.6789 14.7553C25.2013 8.30512 21.2066 1.84207 14.7564 0.319687C8.30617 -1.2027 1.84311 2.79208 0.320729 9.24228C-1.20165 15.6925 2.79312 22.1555 9.24332 23.6779C15.6935 25.2003 22.1566 21.2055 23.6789 14.7553Z" fill="white"/>
</mask>
<g mask="url(#mask0_16335_10226)">
<path d="M29.9993 0H-6.00073V24H29.9993V0Z" fill="white"/>
<path d="M29.9993 14H-6.00073V15.9998H29.9993V14Z" fill="#FF0000"/>
<path d="M29.9993 0H-6.00073V12H29.9993V0Z" fill="#003399"/>
<path d="M29.9993 18.0005H-6.00073V24.0012H29.9993V18.0005Z" fill="#003399"/>
<path fill-rule="evenodd" clip-rule="evenodd" d="M15.1624 16.001L15.4098 16.7654L16.2147 16.764L15.5635 17.2363L15.8122 18.0007L15.1624 17.527L14.5126 18.0007L14.7627 17.2363L14.1115 16.764L14.9151 16.7654L15.1624 16.001Z" fill="#FED700"/>
<path fill-rule="evenodd" clip-rule="evenodd" d="M3.53416 16.001L3.78151 16.7654L4.58505 16.764L3.93383 17.2363L4.18398 18.0007L3.53416 17.527L2.88294 18.0007L3.13309 17.2363L2.48187 16.764L3.28681 16.7654L3.53416 16.001Z" fill="#FED700"/>
<path fill-rule="evenodd" clip-rule="evenodd" d="M3.53416 12L3.78151 12.7658L4.58505 12.7644L3.93383 13.2368L4.18398 13.9998L3.53416 13.526L2.88294 13.9998L3.13309 13.2368L2.48187 12.7644L3.28681 12.7658L3.53416 12Z" fill="#FED700"/>
<path fill-rule="evenodd" clip-rule="evenodd" d="M15.1624 12L15.4098 12.7658L16.2147 12.7644L15.5635 13.2368L15.8122 13.9998L15.1624 13.526L14.5126 13.9998L14.7627 13.2368L14.1115 12.7644L14.9151 12.7658L15.1624 12Z" fill="#FED700"/>
<path fill-rule="evenodd" clip-rule="evenodd" d="M9.34758 7.86914L9.59493 8.63495L10.3999 8.63355L9.74865 9.10589L9.9988 9.86891L9.34758 9.39517L8.69776 9.86891L8.94791 9.10589L8.29669 8.63355L9.10023 8.63495L9.34758 7.86914Z" fill="#FED700"/>
<path fill-rule="evenodd" clip-rule="evenodd" d="M9.34758 20.1318L9.59493 20.8962L10.3999 20.8949L9.74865 21.3672L9.9988 22.1316L9.34758 21.6579L8.69776 22.1316L8.94791 21.3672L8.29669 20.8949L9.10023 20.8962L9.34758 20.1318Z" fill="#FED700"/>
<path fill-rule="evenodd" clip-rule="evenodd" d="M12.8971 9.04004L13.1445 9.80445L13.9494 9.80305L13.2982 10.2754L13.5484 11.0398L12.8971 10.5661L12.2473 11.0398L12.4975 10.2754L11.8463 9.80305L12.6498 9.80445L12.8971 9.04004Z" fill="#FED700"/>
<path fill-rule="evenodd" clip-rule="evenodd" d="M5.79802 9.04004L6.04537 9.80445L6.85031 9.80305L6.19909 10.2754L6.44924 11.0398L5.79802 10.5661L5.1482 11.0398L5.39835 10.2754L4.74713 9.80305L5.55067 9.80445L5.79802 9.04004Z" fill="#FED700"/>
<path fill-rule="evenodd" clip-rule="evenodd" d="M12.8971 18.9609L13.1445 19.7267L13.9494 19.7253L13.2982 20.1977L13.5484 20.9607L12.8971 20.487L12.2473 20.9607L12.4975 20.1977L11.8463 19.7253L12.6498 19.7267L12.8971 18.9609Z" fill="#FED700"/>
<path fill-rule="evenodd" clip-rule="evenodd" d="M5.79802 18.9609L6.04537 19.7267L6.85031 19.7253L6.19909 20.1977L6.44924 20.9607L5.79802 20.487L5.1482 20.9607L5.39835 20.1977L4.74713 19.7253L5.55067 19.7267L5.79802 18.9609Z" fill="#FED700"/>
</g>
</g>
<rect x="0.25" y="0.25" width="23.5" height="23.5" rx="11.75" stroke="#E5E3E1" stroke-width="0.5"/>
<defs>
<clipPath id="clip0_16335_10226">
<rect width="24" height="24" rx="12" fill="white"/>
</clipPath>
</defs>
</svg>
