<svg width="48" height="48" viewBox="0 0 48 48" fill="none" xmlns="http://www.w3.org/2000/svg">
<path d="M24 46.2098C21.85 46.2098 20.1 44.4598 20.1 42.3098V16.2298L13.24 23.0898C11.68 24.5898 9.21 24.5498 7.72 23.0098C6.26 21.4898 6.26 19.1098 7.72 17.5998C7.72 17.5998 7.72 17.5998 7.73 17.5898L23.29 2.0298C23.68 1.6398 24.31 1.6398 24.7 2.0298L40.26 17.5898C41.76 19.1498 41.72 21.6198 40.18 23.1098C38.66 24.5698 36.29 24.5798 34.77 23.1098L27.89 16.2298V42.3098C27.89 44.4598 26.14 46.2098 23.99 46.2098H24ZM21.1 12.8198C21.23 12.8198 21.36 12.8398 21.48 12.8998C21.85 13.0498 22.1 13.4198 22.1 13.8198V42.3098C22.1 43.3598 22.95 44.2098 24 44.2098C25.05 44.2098 25.9 43.3598 25.9 42.3098V13.8198C25.9 13.4198 26.14 13.0498 26.52 12.8998C26.9 12.7498 27.32 12.8298 27.61 13.1198L36.18 21.6898C36.91 22.3898 38.06 22.3898 38.8 21.6798C39.55 20.9498 39.57 19.7498 38.85 18.9998L24.01 4.1598L9.16 19.0098C8.45 19.7498 8.45 20.8998 9.16 21.6398C9.89 22.3898 11.09 22.4098 11.84 21.6898L20.4 13.1298C20.59 12.9398 20.85 12.8398 21.11 12.8398L21.1 12.8198Z" fill="#323232"/>
</svg>
