<svg width="24" height="24" viewBox="0 0 24 24" fill="none" xmlns="http://www.w3.org/2000/svg">
<path fill-rule="evenodd" clip-rule="evenodd" d="M6.16609 18.8042C7.36116 18.8042 8.33046 19.5206 8.33046 20.4018C8.33046 21.2846 7.36116 22 6.16546 22C4.96772 22 4 21.2846 4 20.4018C4 19.5206 4.96772 18.8042 6.16609 18.8042ZM11.4154 18.7008C12.5032 18.7008 13.3826 19.3434 13.3826 20.1369C13.3826 20.9304 12.5032 21.5717 11.4173 21.5717C10.331 21.5717 9.45084 20.9304 9.45084 20.1369C9.45084 19.3421 10.331 18.6987 11.4154 18.7008ZM15.9323 17.675C16.911 17.675 17.7045 18.2411 17.7045 18.9407C17.7045 19.6423 16.911 20.2089 15.9323 20.2089C14.9539 20.2089 14.1605 19.6423 14.1605 18.9407C14.1605 18.2431 14.9539 17.675 15.9323 17.675ZM7.94541 15.2682C8.99536 15.2682 9.84611 15.8632 9.84611 16.5979C9.84611 17.3358 8.99536 17.9312 7.94541 17.9329C6.89483 17.9312 6.04534 17.3358 6.04534 16.5979C6.04534 15.8632 6.89483 15.2689 7.94541 15.2682ZM18.4592 15.5126C19.2603 15.5126 19.9103 15.9594 19.9103 16.5105C19.9103 17.062 19.2612 17.5095 18.4592 17.5095C17.6577 17.5095 17.0085 17.062 17.0085 16.5105C17.0085 15.9599 17.6577 15.5126 18.4592 15.5126ZM18.2918 13.1866C18.9722 13.1866 19.5218 13.5476 19.5218 13.99C19.5227 14.4367 18.9713 14.7966 18.291 14.7945C17.6107 14.7966 17.061 14.4348 17.061 13.99C17.0593 13.548 17.6107 13.1866 18.2918 13.1866ZM9.46657 12.3508C10.3593 12.3508 11.0839 12.8325 11.0839 13.4252C11.0839 14.0181 10.3593 14.4975 9.46657 14.4988C8.57337 14.4988 7.84982 14.0181 7.84982 13.4252C7.84982 12.8314 8.57337 12.3508 9.46657 12.3508ZM16.7444 11.5118C17.3263 11.5118 17.8003 11.8093 17.7995 12.174C17.8003 12.5391 17.3263 12.8355 16.7444 12.8355C16.16 12.8355 15.6867 12.5391 15.6867 12.174C15.6867 11.8093 16.16 11.5118 16.7444 11.5118ZM10.7568 9.77322C11.5173 9.77322 12.1328 10.1613 12.1328 10.6362C12.1328 11.1128 11.5173 11.4994 10.7568 11.4994C9.99642 11.4994 9.37962 11.1128 9.37962 10.6362C9.37962 10.1613 9.99642 9.77322 10.7568 9.77322ZM11.8655 7.61357C12.5136 7.61357 13.0381 7.92582 13.0381 8.30772C13.0381 8.68868 12.5136 9.00171 11.8655 9.00171C11.2165 9.00171 10.6899 8.68868 10.6899 8.30772C10.6899 7.92582 11.2165 7.61357 11.8655 7.61357ZM12.8213 5.81586C13.373 5.81586 13.8211 6.06333 13.8211 6.36835C13.8211 6.67384 13.3735 6.92131 12.8213 6.92131C12.2708 6.92131 11.8234 6.67384 11.8246 6.36835C11.8246 6.06333 12.2708 5.81586 12.8213 5.81586ZM13.5455 4.33008C14.0119 4.33008 14.3888 4.51859 14.3898 4.75364C14.3888 4.98744 14.0119 5.17579 13.5455 5.17579C13.0796 5.17579 12.7023 4.98744 12.7023 4.75364C12.7023 4.51985 13.0796 4.33197 13.5455 4.33008ZM14.172 3.11929C14.577 3.11929 14.9047 3.27525 14.9047 3.471C14.9047 3.66549 14.577 3.82083 14.172 3.82208C13.767 3.82208 13.44 3.66549 13.4392 3.471C13.4392 3.27525 13.767 3.11929 14.172 3.11929ZM14.7306 2C15.0803 2 15.3638 2.1349 15.3638 2.3036C15.3638 2.47168 15.0803 2.60752 14.7306 2.60941C14.3789 2.60941 14.0967 2.47168 14.0948 2.3036C14.0948 2.1349 14.3789 2 14.7306 2Z" fill="#E15F36"/>
</svg>
