<svg width="24" height="24" viewBox="0 0 24 24" fill="none" xmlns="http://www.w3.org/2000/svg">
<g clip-path="url(#clip0_16335_3803)">
<path d="M23.6998 14.675C25.176 8.21413 21.1351 1.77982 14.6742 0.303636C8.21325 -1.17255 1.77895 2.86837 0.302759 9.3293C-1.17343 15.7902 2.8675 22.2245 9.32842 23.7007C15.7893 25.1769 22.2236 21.136 23.6998 14.675Z" fill="white"/>
<mask id="mask0_16335_3803" style="mask-type:luminance" maskUnits="userSpaceOnUse" x="-1" y="-1" width="26" height="26">
<path d="M23.6998 14.6746C25.176 8.21364 21.1351 1.77934 14.6742 0.303148C8.21325 -1.17304 1.77895 2.86789 0.302759 9.32881C-1.17343 15.7897 2.8675 22.224 9.32842 23.7002C15.7893 25.1764 22.2236 21.1355 23.6998 14.6746Z" fill="white"/>
</mask>
<g mask="url(#mask0_16335_3803)">
<path d="M30.0007 0H-5.99933V24H30.0007V0Z" fill="#007C29"/>
<path fill-rule="evenodd" clip-rule="evenodd" d="M5.36206 17.0056H16.2064C16.1644 16.9539 16.1393 16.8841 16.1393 16.8072C16.1393 16.6465 16.2525 16.5151 16.3908 16.5151C16.5292 16.5151 16.6424 16.6451 16.6424 16.8072C16.6424 16.8841 16.6172 16.9539 16.5753 17.0056H18.1307C18.3612 17.0056 18.5289 17.2209 18.6002 17.4738C18.6841 17.7659 18.6393 18.1082 18.4213 18.2144C18.2788 18.2843 18.0957 18.2396 17.9658 18.0719H16.6354C16.5921 18.1697 16.5236 18.2326 16.4481 18.2326C16.3168 18.2326 16.212 18.0482 16.212 17.819V17.5269H6.84756C6.29696 17.5269 5.78409 17.334 5.36206 17.0042V17.0056ZM17.8134 17.5283H16.6983C16.627 17.5283 16.5697 17.5954 16.5697 17.6764C16.5697 17.7575 16.627 17.8246 16.6983 17.8246H17.0588C17.1007 17.7491 17.1734 17.7002 17.2559 17.7002C17.3383 17.7002 17.411 17.7505 17.4529 17.8246H17.8134C17.8847 17.8246 17.942 17.7575 17.942 17.6764C17.942 17.5954 17.8847 17.5283 17.8134 17.5283Z" fill="white"/>
<path fill-rule="evenodd" clip-rule="evenodd" d="M3.61658 6.84777C3.60261 6.87153 3.57885 6.8883 3.5523 6.8883C3.50898 6.8883 3.47404 6.85057 3.47404 6.80165C3.47404 6.78908 3.47544 6.7779 3.47963 6.76812C3.49081 6.73178 3.4978 6.69265 3.4964 6.65213C3.4964 6.53614 3.4419 6.43412 3.36225 6.37543C3.30635 6.34189 3.26862 6.27761 3.26862 6.20075C3.26862 6.09035 3.34548 6.00091 3.4433 5.99951C3.50199 5.99951 3.5551 6.03026 3.58724 6.08056C3.66689 6.18817 3.7158 6.32792 3.7172 6.47884C3.7172 6.61579 3.68087 6.74156 3.61658 6.84498V6.84777Z" fill="white"/>
<path fill-rule="evenodd" clip-rule="evenodd" d="M3.06741 10.7396C3.0758 10.7271 3.08977 10.7173 3.10375 10.7173C3.1289 10.7173 3.14987 10.7396 3.14987 10.7676C3.14987 10.7746 3.14986 10.7816 3.14567 10.7886C3.12192 10.878 3.10375 10.9856 3.09117 11.1002C3.05484 11.4342 3.09117 11.7123 3.17222 11.7207C3.20996 11.7249 3.2407 11.6718 3.25747 11.6424C3.2966 11.5753 3.3497 11.5362 3.39582 11.5502C3.45172 11.5669 3.48386 11.6508 3.47827 11.7556C3.46849 12.0127 3.32455 12.2182 3.14567 12.2196C2.87037 12.2224 2.79491 11.8562 2.79351 11.6089C2.79072 11.2777 2.89413 10.9744 3.06881 10.7382L3.06741 10.7396Z" fill="white"/>
<path fill-rule="evenodd" clip-rule="evenodd" d="M19.4624 11.5613C19.4359 11.5823 19.4205 11.6088 19.4261 11.6326C19.4331 11.6633 19.4722 11.6787 19.5183 11.6731C19.6203 11.6592 19.6944 11.6773 19.7098 11.7248C19.7349 11.8017 19.5952 11.9303 19.3967 12.0113C19.1997 12.0924 19.0194 12.0966 18.9943 12.0197C18.9761 11.9638 19.046 11.88 19.1606 11.8073C19.1941 11.7849 19.2178 11.7416 19.2178 11.6955C19.2178 11.6494 19.1941 11.6047 19.1592 11.5823C19.0977 11.5543 19.0557 11.5082 19.0557 11.4565C19.0557 11.3727 19.1606 11.3042 19.2905 11.3042C19.4205 11.3042 19.5253 11.3727 19.5253 11.4565C19.5253 11.497 19.5001 11.5348 19.4596 11.5627L19.4624 11.5613Z" fill="white"/>
<path fill-rule="evenodd" clip-rule="evenodd" d="M13.1808 11.5739C13.2926 11.518 13.396 11.4817 13.5134 11.4426C13.614 11.4118 13.709 11.4426 13.7244 11.5082C13.7398 11.5753 13.6713 11.6536 13.5707 11.6843C13.41 11.7346 13.2549 11.8003 13.1067 11.88C12.9768 11.9498 12.837 11.8506 12.8762 11.6899C12.8957 11.6116 12.8398 11.5348 12.7686 11.553C12.6945 11.5725 12.6344 11.5641 12.6148 11.525C12.5813 11.4593 12.6637 11.335 12.8007 11.2469C12.9362 11.1589 13.0746 11.1393 13.1081 11.205C13.1263 11.2399 13.1109 11.2902 13.0732 11.3433C13.0299 11.4034 13.0229 11.5264 13.09 11.5697C13.1179 11.5879 13.1501 11.5879 13.1822 11.5725L13.1808 11.5739Z" fill="white"/>
<path fill-rule="evenodd" clip-rule="evenodd" d="M8.70054 12.2164C8.3973 12.2164 8.15693 12.0054 8.04374 11.6854C8.02138 11.6239 7.96408 11.6113 7.91517 11.6393C7.66083 11.779 7.39811 11.902 7.1284 12.0082C5.93637 12.461 6.36399 11.8768 7.1284 11.4967C7.40789 11.3626 7.6776 11.2088 7.93753 11.037C7.97666 11.0118 7.99203 10.9922 8.00321 10.9349C8.05492 10.6708 8.16671 10.4305 8.31624 10.2446C8.34279 10.2153 8.36795 10.1999 8.38472 10.2111C8.40568 10.225 8.39869 10.2753 8.39171 10.2977C8.36655 10.3885 8.34699 10.485 8.33441 10.5842C8.32882 10.6261 8.32463 10.668 8.32183 10.7086C8.32183 10.7575 8.36515 10.7309 8.38612 10.7155C8.59434 10.5534 8.79417 10.3802 8.98563 10.1943C9.10301 10.0755 9.17708 9.90362 9.17708 9.71216C9.17708 9.48438 9.0541 9.27057 8.89619 9.15597C8.80535 9.0875 8.74526 8.96871 8.74526 8.83596C8.74526 8.62354 8.89759 8.45165 9.08624 8.45165C9.17987 8.45165 9.26512 8.49358 9.328 8.56345C9.45238 8.69341 9.54741 8.85552 9.6047 9.03999C9.62147 9.09868 9.61588 9.18812 9.54601 9.13781C9.50967 9.11405 9.47055 9.09309 9.42862 9.07772C9.42163 9.07492 9.41185 9.07352 9.40487 9.08051C9.39508 9.09169 9.40347 9.10846 9.40906 9.11964C9.52784 9.31529 9.59771 9.55146 9.59771 9.80579C9.59771 10.2166 9.41744 10.5786 9.14075 10.798C8.93252 10.9741 8.71592 11.1376 8.49232 11.2885C8.43642 11.3262 8.42664 11.3933 8.46437 11.4506C8.53704 11.561 8.63207 11.6253 8.74387 11.6253C9.27071 11.6253 9.84087 10.9349 10.077 10.4542C10.0798 10.0308 9.97084 9.28734 9.68575 8.81639C9.6047 8.68224 9.59632 8.49498 9.68855 8.36501C9.71231 8.33147 9.73746 8.29933 9.76401 8.26998C9.81153 8.21688 9.89118 8.21828 9.94289 8.263C10.3188 8.57882 10.5424 9.14759 10.5228 9.81558C10.5214 9.90222 10.5662 9.96091 10.6221 9.88265C10.9211 9.48717 11.3655 9.23703 11.8616 9.23703C11.9608 9.23703 12.0363 9.13362 12.0167 9.02322C12.0069 8.9757 12.0027 8.92679 12.0027 8.87648C12.0027 8.50755 12.2683 8.2085 12.5953 8.2085C12.9223 8.2085 13.1878 8.50755 13.1878 8.87648C13.1878 9.07352 13.1123 9.2524 12.9908 9.37398C12.7364 9.62692 12.4024 9.77924 12.0377 9.77924C11.9958 9.77924 11.9622 9.79461 11.9622 9.81558C11.9622 9.83654 11.9958 9.85051 12.0377 9.85051H13.6434C13.7202 9.85051 13.8139 9.88265 13.7552 9.98327C13.6713 10.1244 13.6084 10.2837 13.5707 10.4528C13.5567 10.5199 13.5218 10.552 13.4687 10.5716C13.0397 10.7309 12.5869 10.8301 12.1173 10.8595C11.9021 10.8846 11.7386 11.009 11.7386 11.1599C11.7386 11.227 11.7722 11.2899 11.8267 11.3402C11.951 11.4394 12.0894 11.5205 12.2361 11.5778C12.2794 11.6015 12.3102 11.6504 12.3102 11.7091C12.3102 11.7343 12.3046 11.7594 12.2934 11.7804C12.2641 11.8391 12.2305 11.895 12.1928 11.9481C12.1746 11.9733 12.1551 11.9858 12.1243 11.9858C11.4521 12.0068 10.8149 11.677 10.3873 11.0915C10.295 10.9643 10.1902 11.0775 10.1315 11.1809C9.80454 11.758 9.29726 12.2122 8.70334 12.2122L8.70054 12.2164ZM11.5863 10.6009C11.6436 10.5912 11.7079 10.5478 11.7079 10.4738C11.7079 10.3871 11.6198 10.3438 11.5542 10.3438C11.3376 10.3438 11.1223 10.327 10.9085 10.2879C10.7562 10.2684 10.6235 10.3802 10.6235 10.559C10.6235 10.6275 10.6458 10.6904 10.6849 10.7407C10.8065 10.8986 10.9463 11.0398 11.1014 11.1585C11.1237 11.1753 11.1433 11.1837 11.1699 11.1837C11.2327 11.1837 11.2845 11.1292 11.29 11.0593C11.2956 10.8148 11.4074 10.6331 11.5877 10.6009H11.5863ZM12.3605 8.82198C12.3367 8.8681 12.3857 8.94915 12.4681 9.00225C12.5506 9.05675 12.6372 9.06234 12.661 9.01763C12.6847 8.97151 12.6358 8.89046 12.5533 8.83735C12.4709 8.78285 12.3843 8.77726 12.3605 8.82198Z" fill="white"/>
<path fill-rule="evenodd" clip-rule="evenodd" d="M11.3823 8.57191C11.3893 8.60126 11.4061 8.62222 11.4242 8.62222C11.4424 8.62222 11.4592 8.60126 11.4662 8.57191C11.4815 8.50204 11.5165 8.45312 11.557 8.45312C11.6115 8.45312 11.6562 8.53977 11.6562 8.64737C11.6562 8.86398 11.469 8.98556 11.2887 8.98556C11.1084 8.98556 10.9225 8.86677 10.9225 8.64737C10.9225 8.53977 10.9673 8.45312 11.0218 8.45312C11.0623 8.45312 11.0972 8.50204 11.1126 8.57191C11.1182 8.59427 11.1322 8.62222 11.1545 8.62222C11.1727 8.62222 11.1895 8.60265 11.1964 8.57331C11.2118 8.50204 11.2468 8.45312 11.2887 8.45312C11.3306 8.45312 11.3655 8.50204 11.3795 8.57191H11.3823Z" fill="white"/>
<path fill-rule="evenodd" clip-rule="evenodd" d="M7.74612 10.6556C7.7573 10.6165 7.76289 10.5759 7.76289 10.5326C7.76289 10.4082 7.71398 10.2978 7.63852 10.221C7.53231 10.1176 7.49039 9.97362 7.54629 9.89956C7.60219 9.82549 7.73355 9.85065 7.83975 9.95406C7.89286 10.0058 7.93059 10.0687 7.94736 10.1259C7.96273 10.1818 7.97251 10.2531 7.97251 10.3118C7.97251 10.4599 7.9264 10.5955 7.85093 10.7017C7.83277 10.7269 7.79504 10.7604 7.76569 10.7408C7.74612 10.7269 7.73914 10.6933 7.74752 10.6556H7.74612Z" fill="white"/>
<path fill-rule="evenodd" clip-rule="evenodd" d="M5.40672 6.16126C5.41371 6.19061 5.43048 6.21157 5.44865 6.21157C5.46682 6.21157 5.48359 6.19061 5.49057 6.16126C5.50594 6.09139 5.54088 6.04248 5.58141 6.04248C5.63591 6.04248 5.68063 6.12912 5.68063 6.23673C5.68063 6.45333 5.49337 6.57491 5.3131 6.57491C5.13282 6.57491 4.94696 6.45613 4.94696 6.23673C4.94696 6.12912 4.99168 6.04248 5.04618 6.04248C5.08671 6.04248 5.12164 6.09139 5.13701 6.16126C5.1426 6.18362 5.15658 6.21157 5.18034 6.21157C5.1985 6.21157 5.21527 6.19201 5.22226 6.16266C5.23763 6.09139 5.27257 6.04248 5.31449 6.04248C5.35642 6.04248 5.39135 6.09139 5.40533 6.16126H5.40672Z" fill="white"/>
<path fill-rule="evenodd" clip-rule="evenodd" d="M14.8201 7.50306C14.827 7.53241 14.8438 7.55337 14.862 7.55337C14.8801 7.55337 14.8969 7.53241 14.9039 7.50306C14.9193 7.43319 14.9542 7.38428 14.9947 7.38428C15.0492 7.38428 15.094 7.47092 15.094 7.57852C15.094 7.79513 14.9067 7.91671 14.7264 7.91671C14.5462 7.91671 14.3603 7.79793 14.3603 7.57852C14.3603 7.47092 14.405 7.38428 14.4595 7.38428C14.5 7.38428 14.535 7.43319 14.5503 7.50306C14.5559 7.52542 14.5699 7.55337 14.5923 7.55337C14.6104 7.55337 14.6272 7.53381 14.6342 7.50446C14.6496 7.43319 14.6845 7.38428 14.7264 7.38428C14.7683 7.38428 14.8033 7.43319 14.8173 7.50306H14.8201Z" fill="white"/>
<path fill-rule="evenodd" clip-rule="evenodd" d="M14.637 6.94391C14.6495 6.8978 14.6565 6.84889 14.6565 6.79718C14.6565 6.64905 14.5992 6.51629 14.507 6.42546C14.3798 6.30248 14.3295 6.12919 14.3966 6.04255C14.4637 5.95451 14.6216 5.98386 14.7474 6.10683C14.8116 6.16832 14.855 6.24379 14.8745 6.31226C14.8927 6.37934 14.9039 6.46458 14.9039 6.53306C14.9039 6.70914 14.8494 6.87125 14.7585 6.99842C14.7376 7.02776 14.6915 7.06829 14.6565 7.04453C14.6328 7.02916 14.6244 6.98863 14.6356 6.94252L14.637 6.94391Z" fill="white"/>
<path fill-rule="evenodd" clip-rule="evenodd" d="M3.0772 10.0298C3.03388 10.0507 2.99195 10.0479 2.97798 10.02C2.96959 10.0046 2.97379 9.98364 2.98077 9.96967C3.19738 9.54065 4.19237 8.60016 4.51519 9.24439C4.53056 9.28072 4.52217 9.31845 4.48864 9.33522L3.0758 10.0312L3.0772 10.0298Z" fill="white"/>
<path fill-rule="evenodd" clip-rule="evenodd" d="M8.50355 7.95851C8.35681 8.17511 8.14719 8.27433 8.01443 8.17931C7.85932 8.06891 7.88168 7.70557 8.01164 7.5756C8.07592 7.51132 8.15558 7.49455 8.19471 7.53927C8.22545 7.57421 8.22266 7.63569 8.19471 7.69579C8.15558 7.77265 8.15278 7.8537 8.19191 7.89842C8.23663 7.95012 8.32467 7.93615 8.40153 7.87187C8.44066 7.82715 8.49376 7.81317 8.51892 7.84112C8.54128 7.86628 8.53429 7.91658 8.50355 7.95851Z" fill="white"/>
<path fill-rule="evenodd" clip-rule="evenodd" d="M10.4279 6.45886C10.4223 6.30235 10.4488 6.11788 10.5033 5.97255C10.5872 5.73917 10.787 5.76153 10.7744 6.04661C10.766 6.21571 10.7255 6.38899 10.6556 6.53852C10.5676 6.72997 10.4376 6.68945 10.4293 6.45886H10.4279Z" fill="white"/>
<path fill-rule="evenodd" clip-rule="evenodd" d="M9.45101 6.02038C9.4049 6.06789 9.32384 6.20205 9.38394 6.26074C9.4035 6.2803 9.43285 6.2817 9.46499 6.26773C9.49154 6.25375 9.5153 6.25235 9.53067 6.26773C9.55722 6.29428 9.54325 6.35856 9.49993 6.41306C9.43145 6.49971 9.27633 6.55281 9.20087 6.48713C9.10165 6.40188 9.13379 6.16292 9.27354 5.95609C9.30987 5.90159 9.35179 5.85408 9.39372 5.81635C9.42726 5.7856 9.49294 5.74508 9.53067 5.78281C9.59216 5.8443 9.49713 5.97286 9.45241 6.02038H9.45101Z" fill="white"/>
<path fill-rule="evenodd" clip-rule="evenodd" d="M7.18293 7.71384H7.6371C7.67763 7.71384 7.72235 7.6845 7.75169 7.65375L8.58178 6.77615C8.60135 6.75518 8.59995 6.72165 8.58039 6.70208L8.49235 6.61125C8.47278 6.59028 8.47418 6.56373 8.49794 6.54836C8.57619 6.49246 8.6265 6.40582 8.6265 6.308C8.6265 6.1389 8.47837 6.00195 8.29391 6.00195C8.10944 6.00195 7.96131 6.1389 7.96131 6.308C7.96131 6.4142 8.02 6.50783 8.10944 6.56233C8.17931 6.60566 8.1877 6.71326 8.12481 6.76776L7.15078 7.60484C7.13681 7.61602 7.12982 7.63419 7.12982 7.65375C7.12982 7.68729 7.15358 7.71524 7.18293 7.71524V7.71384ZM8.20726 6.29542C8.23801 6.26048 8.30509 6.27725 8.3554 6.33315C8.4057 6.39045 8.42108 6.46451 8.38893 6.49945C8.35679 6.53439 8.29111 6.51762 8.2408 6.46172C8.1905 6.40442 8.17512 6.33036 8.20726 6.29402V6.29542Z" fill="white"/>
<path fill-rule="evenodd" clip-rule="evenodd" d="M18.3291 9.026L17.3984 9.6912C17.3886 9.69818 17.3746 9.70238 17.362 9.70238C17.3215 9.70238 17.2894 9.66604 17.2894 9.61992V9.38655C17.2894 9.36139 17.2991 9.33624 17.3187 9.32366L18.2858 8.63332C18.2955 8.62633 18.3067 8.62354 18.3179 8.62354C18.3486 8.62354 18.378 8.65288 18.378 8.68922C18.3794 8.71996 18.3808 8.7521 18.3808 8.78424C18.3808 8.84154 18.378 8.89744 18.3724 8.95194C18.3696 8.98268 18.3528 9.01203 18.3305 9.0288L18.3291 9.026Z" fill="white"/>
<path fill-rule="evenodd" clip-rule="evenodd" d="M12.2823 6.75806C12.341 6.89641 12.3843 7.04593 12.4066 7.20385C12.4248 7.37294 12.5534 7.5029 12.7071 7.5029C12.7909 7.5029 12.8496 7.47076 12.9111 7.41347C12.9922 7.3394 13.0676 7.30726 13.1054 7.3408C13.1655 7.3925 13.1138 7.58396 12.9894 7.76842C12.865 7.95289 12.7155 8.05909 12.6554 8.00599C12.6288 7.98363 12.6233 7.93332 12.6372 7.86904C12.6456 7.81733 12.6624 7.73768 12.6135 7.70693C12.5646 7.67479 12.4779 7.73908 12.422 7.84947C12.3102 8.07726 12.1579 8.25893 11.9078 8.25893C11.7401 8.25893 11.5891 8.16251 11.4829 8.01018C11.4284 7.92634 11.3432 7.87183 11.2509 7.87183C11.1587 7.87183 11.0735 7.92634 11.0176 8.01298C10.8778 8.2226 10.6962 8.35256 10.5061 8.35256C10.1525 8.35256 9.90519 7.89839 9.93733 7.32543C9.93733 7.29608 9.93873 7.229 9.90659 7.21922C9.87584 7.21084 9.84789 7.26394 9.83811 7.28909C9.7878 7.41906 9.74867 7.55601 9.72212 7.69855C9.67321 7.97245 9.5153 8.17369 9.32943 8.17369C9.22183 8.17369 9.14637 8.11499 9.07789 8.03394C8.8543 7.77122 8.71735 7.41347 8.71735 7.02078C8.71735 6.88103 8.73412 6.74548 8.76765 6.61691C8.79141 6.5149 8.83194 6.44642 8.87805 6.44642C8.94793 6.44642 9.00522 6.60154 9.00942 6.79719C9.0192 7.04034 9.0751 7.26953 9.16453 7.47635C9.18829 7.52946 9.22323 7.60212 9.28332 7.60212C9.37276 7.60212 9.41608 7.44421 9.43285 7.36456C9.51809 6.97187 9.70116 6.62111 9.9513 6.35C9.99043 6.30947 10.0421 6.28572 10.0994 6.28572C10.221 6.28572 10.3188 6.39612 10.3188 6.53307V7.31285C10.3188 7.54483 10.4879 7.73488 10.6934 7.73488C10.8988 7.73488 11.0679 7.54483 11.0679 7.31285V6.98165C11.0679 6.77902 11.0218 6.58757 10.9407 6.42127C10.9197 6.37655 10.9114 6.33043 10.9114 6.27873C10.9114 6.21864 10.9225 6.17252 10.9477 6.12221L11.0888 5.84691C11.114 5.798 11.1503 5.75049 11.2062 5.75049C11.2831 5.75049 11.3264 5.84132 11.3488 5.9112C11.4606 6.24659 11.4997 6.60993 11.4634 6.96768C11.4536 7.06131 11.4634 7.17031 11.4927 7.28071C11.5682 7.55741 11.747 7.74047 11.8924 7.69016C12.0377 7.63986 12.095 7.37574 12.0195 7.09904C11.9846 6.97047 11.9273 6.86287 11.8616 6.7888C11.796 6.71474 11.7456 6.61132 11.7205 6.48974C11.6618 6.20886 11.768 5.93915 11.9567 5.88884C12.1258 5.84412 12.2781 5.99504 12.3745 6.13479C12.5045 6.32345 12.5478 6.53167 12.4709 6.59875C12.4374 6.62809 12.3843 6.6253 12.3256 6.59735C12.3088 6.58896 12.2934 6.57639 12.2739 6.58897C12.2292 6.61691 12.2655 6.71474 12.2823 6.75526V6.75806Z" fill="white"/>
<path fill-rule="evenodd" clip-rule="evenodd" d="M18.1782 10.2029C18.2019 10.0827 18.1782 9.9541 18.1111 9.85628C18.0817 9.81296 18.0566 9.75986 18.0384 9.69977C17.9839 9.5167 18.0161 9.33782 18.1125 9.30149C18.1935 9.27075 18.2955 9.3504 18.357 9.48875C18.4143 9.61173 18.4437 9.7389 18.4437 9.87864C18.4437 10.0505 18.4004 10.1973 18.3193 10.3398C18.2858 10.4027 18.2438 10.4376 18.2117 10.4264C18.167 10.4111 18.1544 10.3133 18.1782 10.2029Z" fill="white"/>
<path fill-rule="evenodd" clip-rule="evenodd" d="M14.6356 12.207C14.4651 12.207 14.3128 12.1232 14.208 11.989C14.1772 11.9499 14.18 11.8996 14.2261 11.88C14.6482 11.6983 14.9584 11.4314 15.3553 11.0946C15.5775 10.906 15.611 10.7201 15.5803 10.4406L15.1792 6.82817C15.1457 6.52352 15.203 6.22866 15.3273 5.97851C15.3399 5.95336 15.3581 5.93799 15.3846 5.93799C15.4112 5.93799 15.4307 5.95476 15.4433 5.97991L15.8276 6.73175C15.8751 6.82538 15.8458 6.93019 15.7494 6.96233C15.6487 6.99587 15.618 7.07692 15.6404 7.18732C15.8737 8.31507 15.9744 9.46798 15.945 10.6265C15.9422 10.7564 15.9185 10.8487 15.8723 10.9591C15.6473 11.5041 15.2309 12.2098 14.6356 12.2098V12.207Z" fill="white"/>
<path fill-rule="evenodd" clip-rule="evenodd" d="M20.1863 7.4274C20.1444 7.53919 20.0815 7.61326 20.0396 7.59649C20.0004 7.57972 19.9948 7.48749 20.0228 7.37848C20.0591 7.22896 20.0493 7.06965 19.9403 6.95925C19.8327 6.85304 19.7084 6.53023 19.8593 6.44079C19.9431 6.39048 20.0703 6.47992 20.1458 6.63783C20.252 6.86422 20.2743 7.18843 20.1863 7.426V7.4274Z" fill="white"/>
<path fill-rule="evenodd" clip-rule="evenodd" d="M17.0965 8.12643C17.0658 8.08311 17.0462 8.02721 17.0462 7.96712C17.0462 7.82877 17.1454 7.71698 17.267 7.71698C17.3522 7.71698 17.4277 7.77287 17.464 7.85253C17.4752 7.87489 17.4962 7.88886 17.5199 7.88886C17.5549 7.88886 17.5828 7.85672 17.5828 7.81759C17.5828 7.80781 17.5814 7.79943 17.5786 7.79104C17.5689 7.76169 17.5619 7.73095 17.5619 7.69741C17.5619 7.55906 17.6611 7.44727 17.7827 7.44727C17.8721 7.44727 17.949 7.50736 17.9839 7.594C18.0244 7.69042 18.051 7.79803 18.0608 7.90982C18.0636 7.94895 18.0482 7.97271 18.0118 7.96153L17.9476 7.94197C17.8735 7.91961 17.8134 7.97411 17.8134 8.06355V8.59318C17.8134 8.61974 17.812 8.64629 17.7897 8.66166C17.7687 8.67843 17.7463 8.67144 17.7254 8.66166C17.4752 8.54846 17.2572 8.36121 17.0937 8.12503L17.0965 8.12643Z" fill="white"/>
<path fill-rule="evenodd" clip-rule="evenodd" d="M16.5138 10.204L15.9716 6.79982C15.9227 6.49797 15.9674 6.19891 16.0792 5.94178C16.0904 5.91523 16.1071 5.89986 16.1351 5.89706C16.163 5.89566 16.1812 5.91104 16.1952 5.93479L16.7527 6.90044C16.7709 6.93258 16.7514 6.97031 16.7164 6.97031H16.5739C16.525 6.97031 16.4886 7.02062 16.4984 7.07512L16.9652 9.99861C16.9763 10.0755 16.9819 10.1537 16.9819 10.2334C16.9819 10.5981 16.8659 10.9321 16.6731 11.1906C16.6451 11.2284 16.6158 11.2479 16.592 11.2382C16.5683 11.227 16.5627 11.1892 16.5627 11.1641C16.5641 11.1054 16.5655 11.0453 16.5655 10.9866C16.5655 10.7197 16.5473 10.4584 16.5138 10.2026V10.204Z" fill="white"/>
<path fill-rule="evenodd" clip-rule="evenodd" d="M19.4121 5.89881C19.5505 6.21603 19.6777 6.54024 19.7936 6.87284C19.8104 6.91895 19.8244 6.99022 19.7587 6.99022H19.6567C19.5728 6.99022 19.591 7.07966 19.6064 7.14534C19.8663 8.2158 20.0047 9.34215 20.0047 10.5062C20.0047 10.6432 20.0047 10.7298 19.9166 10.829C19.8314 10.9255 19.7433 11.0177 19.6511 11.1057C19.6329 11.1239 19.6064 11.1491 19.5812 11.1365C19.5547 11.1225 19.5547 11.0806 19.5547 11.0498C19.5645 10.8346 19.57 10.6194 19.57 10.4014C19.57 9.00396 19.3702 7.65961 19.0013 6.40189C18.9845 6.3446 18.9747 6.30547 18.9747 6.24118C18.9747 6.12659 19.0013 6.05113 19.0726 5.97846C19.1243 5.92536 19.1802 5.87645 19.2375 5.83173C19.2584 5.81636 19.2766 5.80518 19.3031 5.80518C19.3562 5.80518 19.3912 5.84989 19.4135 5.9002L19.4121 5.89881Z" fill="white"/>
<path fill-rule="evenodd" clip-rule="evenodd" d="M20.8892 6.88528C21.1044 7.94176 21.2064 9.03318 21.2078 10.119C21.2078 11.1727 21.2218 11.8365 20.1444 12.1691C19.8607 12.2557 19.6259 12.2445 19.5882 12.1286C19.5462 12 19.767 11.789 20.0871 11.645C20.9241 11.2845 20.8389 10.4768 20.7327 9.65924L20.3246 6.5429C20.2953 6.31791 20.3246 6.1055 20.4266 5.90566C20.4462 5.86932 20.4742 5.84277 20.5147 5.84277C20.5482 5.84277 20.5734 5.86234 20.5929 5.88889L21.1435 6.63513C21.1911 6.70081 21.1547 6.79724 21.0807 6.79724H20.9535C20.9116 6.79724 20.8808 6.84056 20.8906 6.88528H20.8892Z" fill="white"/>
<path fill-rule="evenodd" clip-rule="evenodd" d="M17.3145 11.5485C17.274 11.8992 17.1021 12.1633 16.8967 12.1633C16.5012 12.1633 16.1365 11.5429 16.1365 11.0761C16.1365 10.8539 16.184 10.6499 16.2622 10.4906C16.2706 10.4724 16.2888 10.4431 16.307 10.45C16.3265 10.457 16.3265 10.4934 16.3251 10.5157C16.3237 10.5549 16.3223 10.594 16.3223 10.6331C16.3223 11.1558 16.4942 11.5792 16.7066 11.5792C16.8338 11.5792 16.9456 11.4283 17.0155 11.1963C17.0923 10.9378 17.3355 10.3075 17.6625 10.3075C17.7715 10.3075 17.8735 10.376 17.956 10.4906C18.0999 10.7267 18.2704 10.8567 18.4101 10.8078C18.5709 10.7533 18.6505 10.4808 18.6295 10.1286L18.4577 7.70124C18.4241 7.18837 18.3431 6.69088 18.2187 6.21434C18.1935 6.11931 18.1907 6.03686 18.2494 5.95581C18.2858 5.9055 18.3249 5.85659 18.3668 5.81187C18.3962 5.77973 18.4283 5.78812 18.4507 5.82585L18.9342 6.65594C18.9663 6.71044 19.0306 6.84739 18.9733 6.8963C18.937 6.92705 18.8811 6.88932 18.8475 6.86696C18.7721 6.81804 18.7637 6.88233 18.7777 6.95779C18.9943 8.07017 19.1089 9.22727 19.1103 10.4123C19.1103 10.9434 18.9328 11.4953 18.364 11.4953C18.1111 11.4953 17.8875 11.343 17.7533 11.111C17.7086 11.0426 17.6569 11.0048 17.601 11.0048C17.4669 11.0048 17.3523 11.2326 17.3117 11.5498L17.3145 11.5485Z" fill="white"/>
<path fill-rule="evenodd" clip-rule="evenodd" d="M6.06636 7.16349C6.11527 7.24873 6.15859 7.34516 6.19353 7.45137C6.28995 7.74344 6.34725 8.18224 6.09012 8.39046C5.9881 8.47291 5.87351 8.53719 5.75053 8.57772C5.54371 8.6462 5.33269 8.56794 5.15522 8.43658C5.13565 8.4226 5.11329 8.41282 5.08953 8.41282C5.01407 8.41282 4.96656 8.48409 4.97355 8.56654C5.00569 8.90752 5.02525 9.25409 5.03084 9.60346C5.03364 9.78932 4.98473 10.4643 4.74716 10.4643C4.63117 10.4643 4.60462 10.2155 4.60741 10.1121C4.6158 9.80749 4.6144 9.50144 4.60182 9.1968C4.60182 9.03329 4.50959 8.76358 4.32652 8.82088C4.30137 8.83346 4.27342 8.83905 4.24547 8.83905C4.04423 8.83905 3.87933 8.50785 3.87933 8.09839V7.89296C3.87933 7.67775 3.843 7.50307 3.79828 7.50307C3.75356 7.50307 3.71863 7.67775 3.71863 7.89296C3.71863 8.16267 3.70046 8.68812 3.37485 8.6965C2.9053 8.68532 2.83962 7.69033 2.86198 7.28647C2.87037 7.09781 2.91648 6.95387 2.97238 6.95387C3.03247 6.95387 3.09117 7.17467 3.10794 7.23057C3.15405 7.38848 3.18899 7.57015 3.21135 7.76719C3.22951 7.95306 3.28122 8.08861 3.34271 8.08861C3.40839 8.08861 3.46429 7.9307 3.47686 7.71968C3.48106 7.64701 3.49084 7.57015 3.50621 7.49189C3.59285 7.05029 3.81924 6.73028 4.01489 6.77919C4.20494 6.8253 4.29298 7.20402 4.21752 7.63164C4.20913 7.67636 4.20354 7.72806 4.20354 7.78117C4.20354 7.96423 4.25944 8.11237 4.32932 8.11237C4.39919 8.11237 4.45509 7.96423 4.45509 7.78117C4.45509 7.52962 4.33491 7.03772 4.27761 6.78478C4.24267 6.62826 4.18538 6.1643 4.35587 6.12797C4.4495 6.10841 4.5585 6.28169 4.613 6.52485C4.71082 6.90216 4.79188 7.28647 4.85616 7.67775C4.86734 7.74483 4.93302 7.90135 4.9973 7.8734C5.06159 7.84405 5.02246 7.69452 4.99311 7.64142C4.93861 7.54639 4.8897 7.42202 4.85756 7.28088C4.7765 6.9371 4.81983 6.62547 4.95258 6.58634C5.08534 6.54721 5.25863 6.79456 5.33828 7.13833C5.3844 7.33258 5.38999 7.51705 5.36204 7.64701C5.50039 7.84685 5.72258 8.08581 5.83857 7.97961C5.97413 7.85663 5.71979 7.48491 5.64852 7.35494C5.46126 7.01117 5.44449 6.63665 5.61358 6.52066C5.79246 6.39628 6.07614 6.63245 6.17257 6.80294C6.23965 6.92033 6.24803 7.0475 6.19073 7.08942C6.16558 7.10759 6.13204 7.1048 6.09571 7.08663C6.08313 7.07964 6.07055 7.07964 6.06217 7.08663C6.0454 7.09921 6.0468 7.13414 6.06496 7.16628L6.06636 7.16349Z" fill="white"/>
<path fill-rule="evenodd" clip-rule="evenodd" d="M17.6206 5.86814C17.826 6.05261 18.0147 6.25943 18.181 6.48861C18.2075 6.52634 18.2327 6.57805 18.1698 6.57805H18.1195C18.058 6.57805 18.0818 6.63954 18.1111 6.67308C19.0628 7.74214 19.9138 8.92718 20.6447 10.2059C20.6894 10.2841 20.7062 10.3456 20.7062 10.435C20.7062 10.5678 20.6992 10.6964 20.6782 10.8179C20.6698 10.8669 20.6475 10.9465 20.6028 10.9465C20.5748 10.9465 20.5608 10.9186 20.5483 10.8976C19.7433 9.4708 18.7903 8.15998 17.7142 6.9931C17.5242 6.78767 17.4892 6.76112 17.4683 6.45368C17.4599 6.33629 17.4557 6.2189 17.4557 6.10012C17.4557 6.00789 17.4962 5.75774 17.6192 5.86954L17.6206 5.86814Z" fill="white"/>
<path fill-rule="evenodd" clip-rule="evenodd" d="M13.6238 5.88338C13.9313 6.16567 14.1521 6.55137 14.2639 6.99436C14.2695 7.01812 14.2807 7.07122 14.2583 7.0852C14.2443 7.09358 14.2289 7.0824 14.2164 7.07262C14.201 7.06144 14.1842 7.04886 14.1675 7.03768C14.1199 7.00414 14.1269 7.07821 14.1325 7.11035C14.3016 8.08298 14.3897 9.08636 14.3897 10.1149C14.3897 10.3525 14.3841 10.5886 14.3757 10.822C14.3701 10.9562 14.3617 11.0386 14.296 11.1448C14.2164 11.2748 14.1283 11.3992 14.0333 11.5165C14.0151 11.5389 13.9858 11.5822 13.955 11.5738C13.8991 11.5571 13.9103 11.3936 13.9131 11.3279C13.9271 11.033 13.9355 10.7354 13.9355 10.4363C13.9355 8.99832 13.7622 7.60645 13.438 6.28585C13.4198 6.21039 13.4184 6.16846 13.4506 6.09859C13.4813 6.03291 13.5134 5.96863 13.547 5.90434C13.5666 5.86661 13.5903 5.85124 13.6224 5.88059L13.6238 5.88338Z" fill="white"/>
<path fill-rule="evenodd" clip-rule="evenodd" d="M12.7085 5.84975C13.0495 6.0412 13.3597 6.29694 13.6224 6.60158C13.6643 6.6477 13.6699 6.69242 13.6001 6.69242H13.3513C13.2479 6.69242 13.301 6.77067 13.3485 6.82657C14.1101 7.71536 14.7711 8.71454 15.312 9.79897C15.4643 10.1036 15.4727 10.1889 15.4321 10.548C15.4154 10.6989 15.3469 10.8708 15.2533 10.6556C14.6328 9.24558 13.8069 7.97109 12.8217 6.87968C12.6833 6.72735 12.6274 6.62115 12.5911 6.40873C12.5701 6.29414 12.5576 6.17675 12.5534 6.05797C12.5506 5.97971 12.559 5.85114 12.6372 5.83158C12.6666 5.82459 12.6847 5.83717 12.7099 5.85114L12.7085 5.84975Z" fill="white"/>
<path fill-rule="evenodd" clip-rule="evenodd" d="M6.71336 7.30434C6.79861 7.75013 6.86708 8.20291 6.91739 8.66268C6.92717 8.75351 6.93136 8.82338 7.0208 8.76888C7.0781 8.73395 7.13539 8.72556 7.1843 8.74792C7.25278 8.77867 7.2947 8.86251 7.30728 8.97431C7.32126 9.07493 7.36597 9.15039 7.42886 9.16157C7.49594 9.17415 7.56441 9.10986 7.60354 9.00925C7.67901 8.80382 7.80478 8.67246 7.91937 8.69901C7.98505 8.71438 8.03536 8.77587 8.0675 8.8681C8.09545 8.94496 8.13458 8.99248 8.17511 8.98828C8.22961 8.9813 8.26594 8.87928 8.26594 8.74652C8.26594 8.67386 8.29109 8.6473 8.33861 8.62494C8.3959 8.5956 8.456 8.57464 8.52028 8.56066C8.56919 8.55088 8.58456 8.56346 8.58456 8.61935C8.58596 8.82478 8.56779 9.02322 8.52587 9.22446C8.48534 9.44805 8.30926 9.61714 8.09964 9.61714C7.97247 9.61714 7.85648 9.55565 7.77683 9.45643C7.67481 9.62692 7.50293 9.73732 7.30868 9.73732C7.21645 9.73732 7.1298 9.71217 7.05434 9.66885C6.99984 9.6381 6.99705 9.67723 6.99984 9.73453C7.00543 9.83934 7.00822 9.94415 7.01242 10.049C7.09487 11.3849 6.12782 12.2919 4.99169 12.2919C4.1029 12.2919 3.61938 11.8377 3.77031 10.7169C3.78288 10.6163 3.82201 10.4361 3.91984 10.4361C4.02325 10.4361 4.06238 10.6387 4.07216 10.7323C4.15181 11.54 4.71779 11.7902 5.29214 11.6518C6.06913 11.466 6.55125 10.7295 6.58759 9.87707C6.58759 9.84493 6.59178 9.77226 6.55964 9.76388C6.51911 9.75409 6.48837 9.87288 6.48138 9.90642C6.30949 10.7756 5.73234 11.4143 5.04479 11.4143C4.49 11.4143 4.13225 11.1026 4.13225 10.4025C4.13225 10.2851 4.17138 9.8044 4.3223 9.8044C4.43131 9.8044 4.46485 10.0252 4.46764 10.1174C4.47882 10.464 4.60739 10.8483 4.93858 10.8357C5.46263 10.8287 5.91261 10.4668 6.11525 9.94834C6.12922 9.90921 6.12922 9.87288 6.11245 9.8603C6.09708 9.84772 6.06913 9.8589 6.04258 9.88545C5.87488 10.0615 5.64989 10.1216 5.46822 10.0154C5.22367 9.87288 5.151 9.48019 5.30751 9.13921C5.46403 8.79823 5.78964 8.63892 6.03419 8.78146C6.11525 8.82897 6.17674 8.90164 6.21726 8.99248C6.28434 9.12384 6.38216 9.1993 6.45762 9.16856C6.52331 9.14201 6.55545 9.04139 6.54846 8.91701C6.48977 8.06596 6.36959 7.23587 6.19211 6.42953C6.17394 6.34289 6.17115 6.24227 6.24661 6.18498C6.3081 6.13886 6.37238 6.09973 6.44086 6.06759C6.51772 6.03126 6.57361 6.08715 6.60855 6.15563C6.75668 6.4463 6.87966 6.75514 6.97748 7.07656C6.99425 7.12966 6.99565 7.17997 6.93695 7.17997C6.88245 7.17997 6.82656 7.17578 6.77345 7.16879C6.70218 7.16041 6.70218 7.24845 6.71336 7.30295V7.30434ZM5.73653 9.26778C5.66107 9.29573 5.61635 9.37538 5.63732 9.44525C5.65828 9.51513 5.73514 9.54867 5.8106 9.52072C5.88606 9.49277 5.93078 9.41311 5.90982 9.34324C5.88886 9.27337 5.812 9.23983 5.73653 9.26778Z" fill="white"/>
</g>
</g>
<rect x="0.25" y="0.25" width="23.5" height="23.5" rx="11.75" stroke="#E5E3E1" stroke-width="0.5"/>
<defs>
<clipPath id="clip0_16335_3803">
<rect width="24" height="24" rx="12" fill="white"/>
</clipPath>
</defs>
</svg>
