<svg width="48" height="48" viewBox="0 0 48 48" fill="none" xmlns="http://www.w3.org/2000/svg">
<path d="M22.6198 3.97C23.2328 3.97 23.7298 3.47304 23.7298 2.86C23.7298 2.24696 23.2328 1.75 22.6198 1.75C22.0067 1.75 21.5098 2.24696 21.5098 2.86C21.5098 3.47304 22.0067 3.97 22.6198 3.97Z" fill="#8DE2E0"/>
<path d="M28.3815 6.85989C28.9945 6.85989 29.4915 6.36293 29.4915 5.74989C29.4915 5.13686 28.9945 4.63989 28.3815 4.63989C27.7684 4.63989 27.2715 5.13686 27.2715 5.74989C27.2715 6.36293 27.7684 6.85989 28.3815 6.85989Z" fill="#8DE2E0"/>
<path d="M22.9512 8.63002C22.9512 9.24002 23.4512 9.74002 24.0612 9.74002C24.6712 9.74002 25.1712 9.24002 25.1712 8.63002C25.1712 8.02002 24.6712 7.52002 24.0612 7.52002C23.4512 7.52002 22.9512 8.02002 22.9512 8.63002Z" fill="#8DE2E0"/>
<path d="M34.1307 17.02L33.3307 16.52C28.5207 19.03 13.2207 21.84 13.2207 26.58V40.93C13.2207 35.44 33.4407 32.64 34.6907 29.73C34.7307 29.64 34.7607 29.54 34.7607 29.45V17.96C34.7607 17.53 34.3307 17.18 34.1207 17.03L34.1307 17.02Z" fill="#8DE2E0"/>
<path d="M35.7699 17.96C35.7699 17.04 35.0199 16.43 34.6699 16.18L33.8899 15.69C32.7199 14.91 31.9799 14.08 31.6499 13.22H31.8999C32.4499 13.22 32.8999 12.77 32.8999 12.22C32.8999 11.67 32.4499 11.22 31.8999 11.22H20.8299L16.8099 7.20998C16.4199 6.81998 15.7899 6.81998 15.3999 7.20998C15.0099 7.59998 15.0099 8.22998 15.3999 8.61998L17.9999 11.22H16.0999C15.5499 11.22 15.0999 11.67 15.0999 12.22C15.0999 12.77 15.5499 13.22 16.0999 13.22H16.3499C15.7999 14.57 14.2899 15.51 13.6499 15.92C13.4099 16.07 13.2799 16.15 13.1799 16.26L13.0799 16.35C12.8099 16.59 12.2399 17.09 12.2399 17.9V41.59C12.2399 41.59 12.2399 41.6 12.2399 41.61C12.2199 42.18 12.3899 42.74 12.7199 43.19C12.7599 43.24 12.7999 43.29 12.8499 43.34L15.3299 45.61C15.5999 45.88 15.9799 46.26 16.6099 46.26H31.3299C32.0699 46.26 32.4699 45.82 32.6599 45.57L35.0899 43.34C35.0899 43.34 35.1799 43.25 35.2199 43.19C35.5699 42.71 35.7399 42.12 35.6999 41.59V29.89C35.7399 29.75 35.7699 29.6 35.7699 29.45V17.96ZM26.1899 32.43C21.5599 33.92 16.8199 35.45 14.2299 37.51V26.58C14.2299 24.04 21.8599 21.57 26.9099 19.94C29.4699 19.12 31.7099 18.39 33.2799 17.66L33.5699 17.84C33.6599 17.9 33.7399 17.98 33.7699 18.03V29.11C33.7299 29.21 33.7099 29.31 33.7099 29.42C33.0199 30.22 29.0999 31.49 26.1999 32.42L26.1899 32.43ZM14.3999 17.84C14.3999 17.84 14.4899 17.76 14.5399 17.71C14.5799 17.68 14.6399 17.65 14.7099 17.6C15.5499 17.08 17.8999 15.6 18.4399 13.21H29.5699C29.7999 14.31 30.4199 15.34 31.4199 16.27C30.0199 16.83 28.1999 17.42 26.2899 18.03C21.6099 19.54 16.8299 21.09 14.2199 23.17V17.99C14.2199 17.99 14.3399 17.88 14.3899 17.84H14.3999ZM33.6499 41.94L31.2299 44.15C31.2299 44.15 31.1699 44.21 31.1399 44.25H16.8099C16.8099 44.25 16.7499 44.19 16.7099 44.15L14.2899 41.94C14.2399 41.85 14.2199 41.75 14.2299 41.64C14.2299 41.63 14.2299 41.62 14.2299 41.61C14.2299 41.6 14.2299 41.59 14.2299 41.58V40.93C14.2299 38.38 21.7999 35.94 26.8099 34.33C29.9699 33.31 32.2499 32.56 33.7099 31.81V41.64C33.7099 41.74 33.6999 41.85 33.6499 41.93V41.94Z" fill="#323232"/>
</svg>
