<svg width="70" height="70" viewBox="0 0 70 70" fill="none" xmlns="http://www.w3.org/2000/svg">
<g clip-path="url(#clip0_15605_1647)">
<path d="M34.9948 70C15.7056 70 0 54.2944 0 35.0052C0 15.716 15.7056 0 34.9948 0C54.284 0 69.9896 15.6952 69.9896 35.0052C69.9896 54.3152 54.2944 70 34.9948 70Z" fill="#DF0000"/>
<path d="M56.4548 53.7959C50.1912 48.7789 42.9825 45.7146 35.5971 44.5512C35.0466 44.4785 34.6518 44.0422 34.5791 43.4917C33.0107 28.856 19.6941 32.1696 13.1813 16.4847C13.1501 16.3809 13.1813 16.2666 13.2956 16.1939C13.4098 16.1212 13.5137 16.1524 13.5864 16.2666C21.8547 29.2196 27.4534 21.8758 39.617 33.0109L39.7624 33.1252C41.4347 34.6521 42.567 33.2291 42.0164 32.3565C41.5075 31.5255 41.5802 31.0789 41.6113 30.975C44.0835 31.671 46.3064 32.8655 48.1969 34.5067L48.0515 34.8287C47.1062 36.688 37.9342 35.8882 37.82 39.7835C37.82 40.843 38.4432 41.7466 39.3885 42.1518L41.2062 42.8789C47.1374 45.2472 52.4557 48.9243 56.7872 53.4739C56.8599 53.5466 56.8599 53.692 56.7872 53.7648C56.7145 53.8375 56.6833 53.8375 56.6002 53.8375C56.5171 53.8375 56.5275 53.8375 56.4859 53.8063H56.4548V53.7959Z" fill="white"/>
<path d="M31.276 9.60838L28.9493 10.0031L29.2401 11.7586L31.8785 11.3119L32.0239 12.1533L28.461 12.7453L27.4639 6.85575L30.9436 6.26367L31.089 7.10504L28.5338 7.53092L28.8142 9.1825L31.1306 8.79817L31.276 9.60838Z" fill="white"/>
<path d="M33.5615 12.1012L32.6475 12.07L34.621 6.15967L35.6806 6.20122L37.2179 12.2362L36.335 12.2051L36.0337 10.9898L33.9563 10.9067L33.5615 12.0908V12.1012ZM35.13 7.37498L34.2263 10.1172L35.8364 10.1796L35.13 7.37498Z" fill="white"/>
<path d="M41.9648 13.3373L40.9677 13.0984L40.5833 10.6678C40.5522 10.6678 40.5002 10.6678 40.4379 10.6366L39.4823 10.4081L38.9629 12.6102L38.0488 12.3921L39.42 6.5752L41.3416 7.03224C41.9337 7.16727 42.3699 7.44773 42.6608 7.85283C42.9516 8.26832 43.0347 8.73575 42.9101 9.27589C42.8166 9.64984 42.6504 9.95107 42.4115 10.19C42.1726 10.4289 41.8714 10.5847 41.5286 10.647L41.9752 13.3166L41.9648 13.3373ZM41.0715 7.84245L40.1471 7.62431L39.6692 9.62906L40.6041 9.84719C40.9573 9.93029 41.2481 9.89913 41.4974 9.7641C41.7467 9.62906 41.9025 9.40054 41.9856 9.08892C42.0583 8.78769 42.0064 8.52801 41.8506 8.29949C41.6844 8.07097 41.4351 7.91516 41.0819 7.84245" fill="white"/>
<path d="M49.0386 10.0446L46.4418 15.4252L45.7458 15.0928L45.455 10.3458L43.6476 14.0749L42.8789 13.7113L45.4861 8.32031L46.2028 8.67348L46.4833 13.3478L48.2699 9.67066L49.0386 10.0446Z" fill="white"/>
<path d="M54.7514 16.3186L54.6164 16.464L53.9932 15.8823L54.1386 15.7265C54.2944 15.5603 54.3775 15.3837 54.3775 15.1967C54.3775 15.0098 54.3048 14.8436 54.1386 14.6878C53.9828 14.5423 53.8166 14.48 53.64 14.4904C53.4634 14.5008 53.318 14.5839 53.183 14.7293C52.944 14.9786 52.8194 15.3318 52.809 15.7784L52.6117 17.8351L53.9828 17.3157L54.6683 17.8455L52.5389 18.583L52.3727 20.2761L51.6145 19.5698L51.6872 18.7804C51.0432 18.8323 50.503 18.6557 50.0668 18.2506C49.6721 17.887 49.4435 17.4923 49.3916 17.0665C49.3397 16.6406 49.4955 16.2459 49.8486 15.8511C50.1187 15.5707 50.4303 15.4045 50.7939 15.3629C51.1574 15.3214 51.5522 15.4045 51.9573 15.6018V15.5395C52.0404 14.9163 52.2273 14.4385 52.5286 14.1165C52.8298 13.7945 53.183 13.6283 53.5673 13.6386C53.962 13.6386 54.3256 13.8048 54.6787 14.1268C55.0215 14.4489 55.2085 14.802 55.2189 15.1967C55.2293 15.5915 55.0838 15.955 54.7618 16.2978M50.6692 17.7624C50.9601 18.0325 51.3132 18.126 51.7391 18.0636L51.9053 16.2562C51.386 16.0069 50.9497 16.0693 50.6069 16.4328C50.3992 16.651 50.3057 16.8795 50.3161 17.108C50.3265 17.3365 50.4511 17.5547 50.6692 17.7624Z" fill="white"/>
<path d="M60.7139 22.0939L61.1813 22.9041L57.6288 24.9712C57.1095 25.2725 56.6109 25.3452 56.1227 25.2101C55.6345 25.0751 55.2398 24.7427 54.9385 24.2337C54.6373 23.7247 54.5542 23.2158 54.6789 22.7172C54.8035 22.2186 55.1151 21.8239 55.6345 21.5226L59.1869 19.4556L59.6544 20.2658L56.1019 22.3328C55.8111 22.499 55.6241 22.7172 55.541 22.9769C55.4579 23.2365 55.4995 23.517 55.6657 23.8078C55.8319 24.0883 56.05 24.2649 56.3201 24.3168C56.5901 24.3791 56.8706 24.3168 57.1614 24.161L60.7139 22.0939Z" fill="white"/>
<path d="M61.6384 29.1052L61.3476 28.2223L61.5034 28.1704C61.7527 28.0873 61.9396 27.9315 62.0331 27.7029C62.137 27.4744 62.137 27.2251 62.0331 26.9343C61.9396 26.6434 61.7942 26.4461 61.5969 26.3214C61.3995 26.2072 61.2021 26.1864 60.9736 26.2591C60.8178 26.3111 60.6932 26.4045 60.5997 26.55C60.5062 26.6954 60.4543 26.872 60.4439 27.0901L60.3919 28.0561C60.3815 28.2431 60.3712 28.3989 60.3608 28.5235C60.3608 28.6482 60.3192 28.804 60.2777 28.9702C60.2257 29.1364 60.1634 29.2818 60.0907 29.3961C60.018 29.5103 59.9037 29.6246 59.7687 29.7389C59.6337 29.8531 59.4675 29.9362 59.2701 30.0089C58.7611 30.1751 58.2937 30.144 57.8678 29.8947C57.4419 29.6558 57.1303 29.2507 56.9434 28.6897C56.746 28.1184 56.7356 27.5991 56.9122 27.142C57.0888 26.685 57.4212 26.3734 57.9301 26.2072L58.0963 26.1552L58.3872 27.0278L58.1898 27.0901C57.9301 27.1732 57.7536 27.3394 57.6601 27.5783C57.5666 27.8172 57.5666 28.0977 57.6808 28.4197C57.7951 28.7521 57.9509 28.9806 58.1794 29.1052C58.3976 29.2403 58.6365 29.261 58.8858 29.1779C59.2805 29.0429 59.4882 28.6897 59.509 28.1081L59.5506 27.1628C59.5921 26.2487 59.9557 25.6774 60.6516 25.4385C61.0983 25.2931 61.5138 25.3243 61.9189 25.5528C62.324 25.7813 62.6044 26.1552 62.7914 26.6954C62.9784 27.2459 62.9784 27.7341 62.7914 28.16C62.6044 28.5963 62.2616 28.8975 61.7631 29.0637L61.6384 29.1052Z" fill="white"/>
<path d="M60.9112 34.4548L60.5995 32.1177L58.8337 32.3462L59.1869 35.0054L58.3455 35.1092L57.8677 31.536L63.7988 30.7466L64.2559 34.2471L63.4249 34.3614L63.0821 31.7853L61.4201 32.0034L61.7318 34.3406L60.9112 34.4548Z" fill="white"/>
<path d="M10.9066 30.8712L8.72529 30.3103C7.96702 30.1129 7.49959 29.6766 7.31262 28.9911L5.74414 29.5208L6.01421 28.4509L7.29185 28.0251C7.29185 27.9524 7.31262 27.89 7.32301 27.8381C7.47882 27.246 7.76966 26.8098 8.20593 26.5397C8.6422 26.2696 9.15117 26.2073 9.72248 26.3527L11.9038 26.9136C12.4959 27.0591 12.9114 27.3603 13.1607 27.7965C13.41 28.2328 13.4515 28.7626 13.2957 29.3754C13.1399 29.9675 12.8491 30.4038 12.4128 30.6842C11.9765 30.9647 11.4675 31.027 10.8962 30.8816M11.6857 27.8277L9.50434 27.2668C9.18234 27.1837 8.90188 27.2149 8.65258 27.3499C8.40329 27.4849 8.23709 27.7238 8.15399 28.0562C8.0709 28.3886 8.10206 28.6795 8.24748 28.9184C8.3929 29.1573 8.63181 29.3131 8.95382 29.3962L11.1351 29.9571C11.4572 30.0402 11.7376 30.009 11.9869 29.874C12.2362 29.739 12.4024 29.5001 12.4855 29.1677C12.5686 28.8353 12.5374 28.5444 12.392 28.3055C12.2466 28.0666 12.0077 27.9108 11.6857 27.8277Z" fill="white"/>
<path d="M6.59584 32.6265L6.627 31.7124L12.5478 33.6652L12.5062 34.7351L6.47119 36.2932L6.50235 35.4103L7.71767 35.0987L7.79038 33.0212L6.60623 32.6369L6.59584 32.6265ZM11.3324 34.1742L8.57981 33.2809L8.52788 34.8909L11.3324 34.1742Z" fill="white"/>
<path d="M13.3165 41.2896L7.44773 42.4426L7.3023 41.6844L10.9171 38.5993L6.85565 39.3991L6.68945 38.5578L12.5479 37.4048L12.7037 38.1838L9.14086 41.2273L13.1504 40.4379L13.3165 41.2896Z" fill="white"/>
<path d="M12.797 42.453L13.576 42.1206L15.1341 45.7146L14.3551 46.0574L13.763 44.6863L9.04715 46.7118L8.68359 45.86L13.389 43.8241L12.797 42.453Z" fill="white"/>
<path d="M10.6159 49.7759L10.1069 49.0177L16.0485 47.1479L16.6405 48.0309L12.6622 52.8194L12.1636 52.0819L12.9634 51.1263L11.8001 49.3916L10.6055 49.7759H10.6159ZM15.3629 48.2594L12.6103 49.1319L13.514 50.4719L15.3733 48.2594H15.3629Z" fill="white"/>
<path d="M19.5905 53.8787L18.9257 53.2347L19.0399 53.1204C19.2269 52.9231 19.31 52.7153 19.2996 52.466C19.2892 52.2167 19.175 51.9882 18.9568 51.7805C18.7387 51.5727 18.5206 51.4585 18.292 51.4377C18.0635 51.4273 17.8766 51.5 17.7104 51.6662C17.5961 51.7805 17.5338 51.9259 17.513 52.1025C17.4922 52.2791 17.5338 52.4557 17.6273 52.653L18.022 53.5359C18.0947 53.7021 18.157 53.8476 18.2089 53.9618C18.2609 54.0761 18.3128 54.2215 18.344 54.3981C18.3751 54.5643 18.3855 54.7201 18.3751 54.8655C18.3648 55.0005 18.3128 55.1563 18.2505 55.3225C18.1778 55.4887 18.0739 55.6342 17.9285 55.79C17.5545 56.1743 17.1287 56.3613 16.6405 56.3405C16.1523 56.3197 15.6848 56.1016 15.259 55.6965C14.8227 55.2706 14.5734 54.824 14.5215 54.3358C14.4695 53.8475 14.6253 53.4217 14.9889 53.0373L15.1135 52.9127L15.7783 53.5463L15.6329 53.6917C15.4459 53.8891 15.3628 54.1176 15.3836 54.3669C15.4044 54.6266 15.5394 54.8655 15.7887 55.1044C16.038 55.3433 16.2873 55.468 16.547 55.4887C16.8067 55.4991 17.0248 55.416 17.2118 55.2187C17.5026 54.9174 17.5234 54.502 17.2637 53.9826L16.869 53.1204C16.4847 52.2895 16.5366 51.6143 17.0456 51.0845C17.3676 50.7521 17.7623 50.5859 18.2193 50.6067C18.6764 50.6275 19.1126 50.8248 19.5177 51.2196C19.9332 51.6247 20.1618 52.0505 20.1929 52.518C20.2345 52.9854 20.0683 53.4113 19.6943 53.7956L19.6008 53.8891L19.5905 53.8787Z" fill="white"/>
<path d="M20.8263 59.8203L23.4751 54.4604L25.2305 55.333C25.7603 55.5927 26.1238 55.977 26.3108 56.4548C26.4978 56.943 26.4666 57.4416 26.2173 57.961C25.9576 58.4907 25.5733 58.8335 25.0643 58.9893C24.5553 59.1451 24.036 59.0828 23.5062 58.8231L22.5818 58.3661L21.6573 60.2358L20.8159 59.8203H20.8263ZM24.8046 56.0393L23.9529 55.6134L22.9557 57.6286L23.8075 58.0545C24.1191 58.2103 24.4203 58.2414 24.7008 58.1479C24.9812 58.0545 25.1994 57.8571 25.3552 57.5559C25.511 57.2546 25.5318 56.9638 25.4279 56.6833C25.324 56.4133 25.1163 56.1951 24.8046 56.0393Z" fill="white"/>
<path d="M31.3696 59.2697L30.8399 61.4511C30.6945 62.0328 30.4036 62.4482 29.957 62.6975C29.5103 62.9572 28.9909 63.0092 28.3885 62.8637C27.7964 62.7183 27.3601 62.4275 27.0797 62.0016C26.7992 61.5653 26.7265 61.0667 26.8719 60.4851L27.4017 58.3037C27.5471 57.7116 27.8379 57.2961 28.2638 57.0365C28.7001 56.7872 29.2195 56.7352 29.8427 56.8807C30.4348 57.0261 30.8814 57.3169 31.1619 57.7428C31.4423 58.1791 31.515 58.6881 31.3696 59.2594M28.3054 58.5322L27.7756 60.7136C27.6925 61.0356 27.7237 61.316 27.8691 61.5653C28.0041 61.8042 28.2431 61.9704 28.5858 62.0535C28.9182 62.1366 29.2091 62.1055 29.448 61.9497C29.6869 61.7939 29.8427 61.5653 29.9258 61.2329L30.4555 59.0516C30.5386 58.7296 30.5075 58.4388 30.3621 58.1998C30.2166 57.9609 29.9777 57.7947 29.6453 57.7116C29.3129 57.6285 29.0221 57.6701 28.7832 57.8155C28.5443 57.9713 28.3885 58.2102 28.3054 58.5322Z" fill="white"/>
<path d="M34.039 57.5975L33.6131 63.5598L32.6782 63.4975L33.1041 57.5352L34.039 57.5975Z" fill="white"/>
<path d="M39.4197 57.3066L40.0222 63.2586L39.2535 63.3313L36.5216 59.436L36.9371 63.5702L36.0854 63.6533L35.4829 57.7117L36.2827 57.6286L38.973 61.4616L38.5679 57.3897L39.4197 57.3066Z" fill="white"/>
<path d="M40.5107 57.9404L40.251 57.1302L43.98 55.9253L44.2397 56.7355L42.8166 57.1925L44.3955 62.0746L43.5022 62.3654L41.9233 57.4834L40.5107 57.9404Z" fill="white"/>
<path d="M48.7891 55.3121L47.9789 55.7692L47.8958 55.6237C47.7608 55.3952 47.5738 55.2394 47.3349 55.1875C47.096 55.1251 46.8467 55.1667 46.5766 55.3225C46.317 55.4679 46.1404 55.6549 46.0573 55.8626C45.9742 56.0704 45.995 56.2781 46.1092 56.4859C46.1923 56.6209 46.3066 56.7352 46.4624 56.7975C46.6182 56.8702 46.8052 56.8806 47.0233 56.8494L47.9789 56.7248C48.1555 56.704 48.3113 56.6832 48.4464 56.6625C48.571 56.6417 48.7268 56.6417 48.9034 56.6625C49.08 56.6729 49.2254 56.7144 49.3604 56.7663C49.4851 56.8183 49.6201 56.9014 49.7552 57.026C49.8902 57.1403 50.0045 57.2857 50.1083 57.4623C50.368 57.9297 50.4199 58.3971 50.2641 58.8542C50.1083 59.3216 49.7655 59.6956 49.2462 59.9864C48.7164 60.2876 48.2075 60.3915 47.7296 60.298C47.2518 60.2149 46.8779 59.9345 46.6182 59.4774L46.5351 59.332L47.3349 58.8854L47.4388 59.0723C47.5738 59.3112 47.7608 59.4566 48.0205 59.4982C48.2698 59.5501 48.5398 59.4982 48.8411 59.3216C49.1423 59.1554 49.3397 58.9477 49.4228 58.7088C49.5162 58.4699 49.4851 58.231 49.3604 58.0024C49.1527 57.6389 48.7684 57.5038 48.1867 57.5973L47.2518 57.7324C46.3481 57.8674 45.7145 57.6181 45.3613 56.9741C45.1328 56.569 45.0913 56.1431 45.2367 55.7068C45.3821 55.2706 45.7041 54.9174 46.2027 54.6369C46.7013 54.3565 47.1895 54.263 47.6465 54.3669C48.1036 54.4708 48.4671 54.7512 48.7268 55.2082L48.7891 55.3225V55.3121Z" fill="white"/>
</g>
<defs>
<clipPath id="clip0_15605_1647">
<rect width="70" height="70" fill="white"/>
</clipPath>
</defs>
</svg>
