<svg width="48" height="48" viewBox="0 0 48 48" fill="none" xmlns="http://www.w3.org/2000/svg">
<path d="M28.3791 8.73047H22.6191V10.6805H28.3791V8.73047Z" fill="#8DE2E0"/>
<path d="M28.3791 11.5596H22.6191V13.5096H28.3791V11.5596Z" fill="#8DE2E0"/>
<path d="M39.2307 8.73047H33.4707V10.6805H39.2307V8.73047Z" fill="#8DE2E0"/>
<path d="M39.2307 11.5596H33.4707V13.5096H39.2307V11.5596Z" fill="#8DE2E0"/>
<path d="M29.3807 21.3104V5.60043C29.3807 3.45043 27.6407 1.69043 25.5007 1.69043C23.3607 1.69043 21.6207 3.44043 21.6207 5.60043V21.3104C21.2007 21.5804 20.8107 21.9004 20.4507 22.2604C20.0607 22.6504 20.0607 23.2804 20.4507 23.6704C20.7707 23.9904 21.2407 24.0304 21.6107 23.8304V42.3904C21.6107 44.5404 23.3507 46.3004 25.4907 46.3004C27.6307 46.3004 29.3707 44.5504 29.3707 42.3904V23.8304C29.5207 23.9104 29.6707 23.9604 29.8307 23.9604C30.0807 23.9604 30.3407 23.8604 30.5307 23.6704C30.9207 23.2804 30.9207 22.6504 30.5307 22.2604C30.1707 21.9004 29.7807 21.5804 29.3607 21.3104H29.3807ZM23.6207 5.60043C23.6207 4.55043 24.4607 3.69043 25.5007 3.69043C26.5407 3.69043 27.3807 4.54043 27.3807 5.60043V20.4104C26.7707 20.2404 26.1407 20.1504 25.5007 20.1504C24.8607 20.1504 24.2307 20.2404 23.6207 20.4104V5.60043ZM27.3807 22.5204V23.5504C27.2307 23.1904 26.8707 22.9404 26.4607 22.9404H24.5407C24.1307 22.9404 23.7707 23.1904 23.6207 23.5504V22.5204C24.2107 22.2804 24.8507 22.1504 25.5007 22.1504C26.1507 22.1504 26.7907 22.2804 27.3807 22.5204ZM25.5007 44.3104C24.4607 44.3104 23.6207 43.4604 23.6207 42.4004V24.3204C23.7707 24.6804 24.1307 24.9304 24.5407 24.9304H26.4607C26.8707 24.9304 27.2307 24.6804 27.3807 24.3204V42.4004C27.3807 43.4504 26.5407 44.3104 25.5007 44.3104Z" fill="#323232"/>
<path d="M41.4003 22.2604C41.0403 21.9004 40.6503 21.5804 40.2303 21.3104V5.60043C40.2303 3.45043 38.4903 1.69043 36.3503 1.69043C34.2103 1.69043 32.4703 3.44043 32.4703 5.60043V21.3104C32.0503 21.5804 31.6603 21.9004 31.3003 22.2604C30.9103 22.6504 30.9103 23.2804 31.3003 23.6704C31.6203 23.9804 32.0903 24.0304 32.4603 23.8304V42.3904C32.4603 44.5404 34.2003 46.3004 36.3403 46.3004C38.4803 46.3004 40.2203 44.5504 40.2203 42.3904V23.8204C40.3703 23.9004 40.5203 23.9504 40.6803 23.9504C40.9303 23.9504 41.1903 23.8504 41.3803 23.6604C41.7703 23.2704 41.7703 22.6404 41.3803 22.2504L41.4003 22.2604ZM34.4603 5.60043C34.4603 4.55043 35.3003 3.69043 36.3403 3.69043C37.3803 3.69043 38.2203 4.54043 38.2203 5.60043V20.4104C37.6103 20.2404 36.9803 20.1504 36.3403 20.1504C35.7003 20.1504 35.0603 20.2404 34.4603 20.4104V5.60043ZM38.2303 22.5204V23.5504C38.0803 23.1904 37.7203 22.9404 37.3103 22.9404H35.3903C34.9803 22.9404 34.6203 23.1904 34.4703 23.5504V22.5204C35.0603 22.2804 35.7003 22.1504 36.3503 22.1504C37.0003 22.1504 37.6403 22.2804 38.2303 22.5204ZM36.3503 44.3104C35.3103 44.3104 34.4703 43.4604 34.4703 42.4004V24.3204C34.6203 24.6804 34.9803 24.9304 35.3903 24.9304H37.3103C37.7203 24.9304 38.0803 24.6804 38.2303 24.3204V42.4004C38.2303 43.4504 37.3903 44.3104 36.3503 44.3104Z" fill="#323232"/>
<path d="M11.15 41.3903H10.23V12.5303C10.23 11.9803 9.78 11.5303 9.23 11.5303C8.68 11.5303 8.23 11.9803 8.23 12.5303V41.3903H7.5C6.95 41.3903 6.5 41.8403 6.5 42.3903C6.5 42.9403 6.95 43.3903 7.5 43.3903H8.23V45.3103C8.23 45.8603 8.68 46.3103 9.23 46.3103C9.78 46.3103 10.23 45.8603 10.23 45.3103V43.3903H11.15C11.7 43.3903 12.15 42.9403 12.15 42.3903C12.15 41.8403 11.7 41.3903 11.15 41.3903Z" fill="#323232"/>
<path d="M17.3609 41.3903H16.4409V12.5303C16.4409 11.9803 15.9909 11.5303 15.4409 11.5303C14.8909 11.5303 14.4409 11.9803 14.4409 12.5303V41.3903H13.7109C13.1609 41.3903 12.7109 41.8403 12.7109 42.3903C12.7109 42.9403 13.1609 43.3903 13.7109 43.3903H14.4409V45.3103C14.4409 45.8603 14.8909 46.3103 15.4409 46.3103C15.9909 46.3103 16.4409 45.8603 16.4409 45.3103V43.3903H17.3609C17.9109 43.3903 18.3609 42.9403 18.3609 42.3903C18.3609 41.8403 17.9109 41.3903 17.3609 41.3903Z" fill="#323232"/>
<path d="M16.6994 1.9502H14.3594C13.9452 1.9502 13.6094 2.28598 13.6094 2.7002V12.0402C13.6094 12.4544 13.9452 12.7902 14.3594 12.7902H16.6994C17.1136 12.7902 17.4494 12.4544 17.4494 12.0402V2.7002C17.4494 2.28598 17.1136 1.9502 16.6994 1.9502Z" fill="#DF0000"/>
<path d="M10.4005 1.9502H8.06055C7.64633 1.9502 7.31055 2.28598 7.31055 2.7002V12.0402C7.31055 12.4544 7.64633 12.7902 8.06055 12.7902H10.4005C10.8148 12.7902 11.1505 12.4544 11.1505 12.0402V2.7002C11.1505 2.28598 10.8148 1.9502 10.4005 1.9502Z" fill="#DF0000"/>
</svg>
