<svg width="24" height="24" viewBox="0 0 24 24" fill="none" xmlns="http://www.w3.org/2000/svg">
<g clip-path="url(#clip0_15739_584)">
<path fill-rule="evenodd" clip-rule="evenodd" d="M11.3595 9.84317C10.5917 9.9143 9.87969 10.1573 9.25874 10.5313L8.13658 8.27375L5.1656 11.2124L5.36769 13.0374L4.55742 13.8388L3.32597 11.5134L1.01416 10.2566L1.82443 9.45512L3.64706 9.67716L6.61804 6.7385L1.21815 3.98027L2.29851 2.91167L9.04884 4.33415L12.0198 1.39549C12.4682 0.952021 13.1692 0.93691 13.5894 1.36166C14.0095 1.78641 13.9867 2.48726 13.5384 2.93073L10.5674 5.86939L11.3595 9.84317ZM21.1112 16.5829C21.1112 17.5913 20.2612 18.4163 19.2223 18.4163C18.1834 18.4163 17.3334 17.5913 17.3334 16.5829C17.3334 15.5746 18.1834 14.7496 19.2223 14.7496C20.2612 14.7496 21.1112 15.5746 21.1112 16.5829ZM21.8479 19.8646C22.5468 20.1579 23.0001 20.8179 23.0001 21.5604V22.9996H18.7501V21.5238C18.7501 20.7629 18.5329 20.0479 18.1551 19.4246C18.5045 19.3696 18.854 19.3329 19.2223 19.3329C20.1573 19.3329 21.0451 19.5254 21.8479 19.8646ZM11.6668 18.1871C13.2062 18.1871 14.5662 18.5354 15.6712 19.0121C16.6912 19.4521 17.3334 20.4421 17.3334 21.5238V22.9996H6.0001V21.5238C6.0001 20.4421 6.64232 19.4521 7.66232 19.0121C8.76732 18.5446 10.1273 18.1871 11.6668 18.1871ZM8.83343 14.7496C8.83343 13.2279 10.099 11.9996 11.6668 11.9996C13.2345 11.9996 14.5001 13.2279 14.5001 14.7496C14.5001 16.2713 13.2345 17.4996 11.6668 17.4996C10.099 17.4996 8.83343 16.2713 8.83343 14.7496Z" fill="#323232"/>
</g>
<defs>
<clipPath id="clip0_15739_584">
<rect width="24" height="24" fill="white"/>
</clipPath>
</defs>
</svg>
