<svg width="24" height="24" viewBox="0 0 24 24" fill="none" xmlns="http://www.w3.org/2000/svg">
<g clip-path="url(#clip0_16335_3355)">
<path d="M13.9226 23.8439C20.4644 22.782 24.9068 16.618 23.8449 10.0762C22.783 3.53441 16.619 -0.907932 10.0772 0.153951C3.53541 1.21583 -0.906935 7.37983 0.154948 13.9216C1.21683 20.4634 7.38083 24.9058 13.9226 23.8439Z" fill="white"/>
<mask id="mask0_16335_3355" style="mask-type:luminance" maskUnits="userSpaceOnUse" x="-1" y="-1" width="26" height="26">
<path d="M13.9226 23.8439C20.4644 22.782 24.9068 16.618 23.8449 10.0762C22.783 3.53441 16.619 -0.907932 10.0772 0.153951C3.53541 1.21583 -0.906935 7.37983 0.154948 13.9216C1.21683 20.4634 7.38083 24.9058 13.9226 23.8439Z" fill="white"/>
</mask>
<g mask="url(#mask0_16335_3355)">
<path d="M30.0007 0H-5.99927V24H30.0007V0Z" fill="#0072FE"/>
<path fill-rule="evenodd" clip-rule="evenodd" d="M12.0001 6.20068L13.2941 10.2142L17.5116 10.2058L14.0948 12.6765L15.4071 16.6844L12.0001 14.1998L8.59444 16.6844L9.90526 12.6765L6.48846 10.2058L10.7046 10.2142L12.0001 6.20068Z" fill="white"/>
</g>
</g>
<rect x="0.25" y="0.25" width="23.5" height="23.5" rx="11.75" stroke="#E5E3E1" stroke-width="0.5"/>
<defs>
<clipPath id="clip0_16335_3355">
<rect width="24" height="24" rx="12" fill="white"/>
</clipPath>
</defs>
</svg>
