<svg width="24" height="24" viewBox="0 0 24 24" fill="none" xmlns="http://www.w3.org/2000/svg">
<path fill-rule="evenodd" clip-rule="evenodd" d="M21 4C19.89 3.65 18.67 3.5 17.5 3.5C15.55 3.5 13.45 3.9 12 5C10.55 3.9 8.45 3.5 6.5 3.5C4.55 3.5 2.45 3.9 1 5V19.65C1 19.9 1.25 20.15 1.5 20.15C1.55 20.15 1.5875 20.1375 1.625 20.125C1.6625 20.1125 1.7 20.1 1.75 20.1C3.1 19.45 5.05 19 6.5 19C8.45 19 10.55 19.4 12 20.5C13.35 19.65 15.8 19 17.5 19C19.15 19 20.85 19.3 22.25 20.05C22.35 20.1 22.4 20.1 22.5 20.1C22.75 20.1 23 19.85 23 19.6V5C22.4 4.55 21.75 4.25 21 4ZM21 17.5C19.9 17.15 18.7 17 17.5 17C15.8 17 13.35 17.65 12 18.5C10.65 17.65 8.2 17 6.5 17C5.3 17 4.1 17.15 3 17.5V6C4.1 5.65 5.3 5.5 6.5 5.5C8.2 5.5 10.65 6.15 12 7C13.35 6.15 15.8 5.5 17.5 5.5C18.7 5.5 19.9 5.65 21 6V17.5ZM17.5 9.5C18.38 9.5 19.23 9.59 20 9.76V8.24C19.21 8.09 18.36 8 17.5 8C15.8 8 14.26 8.29 13 8.83V10.49C14.13 9.85 15.7 9.5 17.5 9.5ZM13 11.49V13.15C14.13 12.51 15.7 12.16 17.5 12.16C18.38 12.16 19.23 12.25 20 12.42V10.9C19.21 10.75 18.36 10.66 17.5 10.66C15.8 10.66 14.26 10.96 13 11.49ZM13 14.16C14.26 13.62 15.8 13.33 17.5 13.33C18.36 13.33 19.21 13.41 20 13.57V15.09C19.23 14.92 18.38 14.83 17.5 14.83C15.7 14.83 14.13 15.18 13 15.82V14.16ZM4 9.76C4.77 9.59 5.62 9.5 6.5 9.5C8.3 9.5 9.87 9.85 11 10.49V8.83C9.74 8.29 8.2 8 6.5 8C5.64 8 4.79 8.09 4 8.24V9.76ZM11 13.15V11.49C9.74 10.96 8.2 10.66 6.5 10.66C5.64 10.66 4.79 10.75 4 10.9V12.42C4.77 12.25 5.62 12.16 6.5 12.16C8.3 12.16 9.87 12.51 11 13.15ZM6.5 13.33C8.2 13.33 9.74 13.62 11 14.16V15.82C9.87 15.18 8.3 14.83 6.5 14.83C5.62 14.83 4.77 14.92 4 15.09V13.57C4.79 13.41 5.64 13.33 6.5 13.33Z" fill="#323232"/>
</svg>
