<svg width="48" height="48" viewBox="0 0 48 48" fill="none" xmlns="http://www.w3.org/2000/svg">
<path d="M17.5998 23.1398C17.3398 23.1398 17.0798 23.0398 16.8898 22.8498L14.5698 20.5298C14.1798 20.1398 14.1798 19.5098 14.5698 19.1198C14.9598 18.7298 15.5898 18.7298 15.9798 19.1198L17.5498 20.6898L20.5498 17.3098C20.9198 16.8998 21.5498 16.8598 21.9598 17.2298C22.3698 17.5998 22.4098 18.2298 22.0398 18.6398L18.3398 22.8098C18.1598 23.0198 17.8998 23.1398 17.6198 23.1398C17.6198 23.1398 17.5998 23.1398 17.5898 23.1398H17.5998Z" fill="#DF0000"/>
<path d="M32.7207 21.0498H25.4707C24.9207 21.0498 24.4707 20.5998 24.4707 20.0498C24.4707 19.4998 24.9207 19.0498 25.4707 19.0498H32.7207C33.2707 19.0498 33.7207 19.4998 33.7207 20.0498C33.7207 20.5998 33.2707 21.0498 32.7207 21.0498Z" fill="#323232"/>
<path d="M17.5998 31.3498C17.3398 31.3498 17.0798 31.2498 16.8898 31.0598L14.5698 28.7398C14.1798 28.3498 14.1798 27.7198 14.5698 27.3298C14.9598 26.9398 15.5898 26.9398 15.9798 27.3298L17.5498 28.8998L20.5498 25.5198C20.9198 25.1098 21.5498 25.0698 21.9598 25.4398C22.3698 25.8098 22.4098 26.4398 22.0398 26.8498L18.3398 31.0198C18.1598 31.2298 17.8998 31.3498 17.6198 31.3498C17.6198 31.3498 17.5998 31.3498 17.5898 31.3498H17.5998Z" fill="#DF0000"/>
<path d="M32.7207 29.2695H25.4707C24.9207 29.2695 24.4707 28.8195 24.4707 28.2695C24.4707 27.7195 24.9207 27.2695 25.4707 27.2695H32.7207C33.2707 27.2695 33.7207 27.7195 33.7207 28.2695C33.7207 28.8195 33.2707 29.2695 32.7207 29.2695Z" fill="#323232"/>
<path d="M17.5998 39.5597C17.3398 39.5597 17.0798 39.4597 16.8898 39.2697L14.5698 36.9497C14.1798 36.5597 14.1798 35.9297 14.5698 35.5397C14.9598 35.1497 15.5898 35.1497 15.9798 35.5397L17.5498 37.1097L20.5498 33.7297C20.9198 33.3197 21.5498 33.2797 21.9598 33.6497C22.3698 34.0197 22.4098 34.6497 22.0398 35.0597L18.3398 39.2297C18.1598 39.4397 17.8998 39.5597 17.6198 39.5597C17.6198 39.5597 17.5998 39.5597 17.5898 39.5597H17.5998Z" fill="#DF0000"/>
<path d="M32.7207 37.4795H25.4707C24.9207 37.4795 24.4707 37.0295 24.4707 36.4795C24.4707 35.9295 24.9207 35.4795 25.4707 35.4795H32.7207C33.2707 35.4795 33.7207 35.9295 33.7207 36.4795C33.7207 37.0295 33.2707 37.4795 32.7207 37.4795Z" fill="#323232"/>
<path d="M36.7202 9.38012H33.8602C33.6602 7.57012 32.1402 6.16012 30.2802 6.16012H29.1902C28.7202 3.72012 26.5802 1.87012 24.0002 1.87012C21.4202 1.87012 19.2702 3.72012 18.8002 6.16012H17.7202C15.8602 6.16012 14.3402 7.57012 14.1402 9.38012H11.2802C9.28016 9.38012 7.66016 11.0001 7.66016 13.0001V42.5101C7.66016 44.5101 9.28016 46.1301 11.2802 46.1301H36.7202C38.7202 46.1301 40.3402 44.5101 40.3402 42.5101V13.0001C40.3402 11.0001 38.7202 9.38012 36.7202 9.38012ZM24.0002 3.87012C25.4602 3.87012 26.6902 4.84012 27.1202 6.16012H20.8702C21.3002 4.84012 22.5302 3.87012 24.0002 3.87012ZM16.1002 9.78012C16.1002 8.89012 16.8302 8.16012 17.7202 8.16012H30.2802C31.1702 8.16012 31.9002 8.89012 31.9002 9.78012V11.7401H16.1002V9.78012ZM38.3402 42.5101C38.3402 43.4001 37.6102 44.1301 36.7202 44.1301H11.2802C10.3902 44.1301 9.66016 43.4001 9.66016 42.5101V13.0001C9.66016 12.1101 10.3902 11.3801 11.2802 11.3801H14.1002V12.7401C14.1002 13.2901 14.5502 13.7401 15.1002 13.7401H32.9002C33.4502 13.7401 33.9002 13.2901 33.9002 12.7401V11.3801H36.7202C37.6102 11.3801 38.3402 12.1101 38.3402 13.0001V42.5101Z" fill="#323232"/>
</svg>
