<svg width="24" height="24" viewBox="0 0 24 24" fill="none" xmlns="http://www.w3.org/2000/svg">
<path fill-rule="evenodd" clip-rule="evenodd" d="M5.44406 19.8653C5.52669 19.8384 5.50722 19.8795 5.43564 19.9421C5.06037 20.2689 5.24301 20.8379 5.6309 20.9216C6.04616 21.0116 6.76616 20.7421 6.85616 20.7211C6.94616 20.7005 7.64564 20.6037 7.6388 21.1984C7.63143 21.7932 6.56564 21.4058 6.56564 21.4058C6.56564 21.4058 5.85932 21.1153 5.44406 21.0879C5.02827 21.06 4.57143 21.2053 4.34301 21.3989C4.87616 20.0505 5.44406 19.8653 5.44406 19.8653ZM18.592 19.8289C18.592 19.8289 19.2083 20.0505 19.7414 21.3989C19.513 21.2053 19.0556 21.06 18.6404 21.0879C18.2251 21.1153 17.5188 21.4058 17.5188 21.4058C17.5188 21.4058 16.4525 21.7932 16.4456 21.1984C16.4388 20.6037 17.1383 20.7005 17.2283 20.7211C17.3183 20.7421 18.0383 21.0116 18.4535 20.9216C18.8688 20.8321 19.0698 20.1542 18.592 19.8289ZM5.41616 20.3963C5.41616 19.7737 6.38564 19.9947 6.38564 19.9947L8.10932 20.5C8.10932 20.5 8.10685 20.5048 8.10228 20.5136L8.05297 20.6089C7.98482 20.7405 7.8695 20.9633 7.7909 21.1153C7.79774 21.0184 7.6388 20.6037 7.23722 20.5484C6.83564 20.4932 6.5309 20.7005 6.13616 20.7489C5.74143 20.7974 5.41616 20.68 5.41616 20.3963ZM18.6683 20.3963C18.6683 20.68 18.343 20.7974 17.9483 20.7489C17.5535 20.7005 17.2488 20.4932 16.8472 20.5484C16.4456 20.6037 16.2867 21.0184 16.2935 21.1153C16.2018 20.938 16.0602 20.6643 16.0017 20.5514L15.9751 20.5L17.6988 19.9947C17.6988 19.9947 18.6683 19.7737 18.6683 20.3963ZM17.372 18.6426C17.7104 18.7668 18.423 19.8079 18.423 19.8079C18.423 19.8079 18.0198 19.8147 17.7904 19.8437C17.2293 19.9147 14.5667 20.9737 11.9567 20.9737C9.34722 20.9737 6.70195 19.6811 5.76248 19.7668L6.29564 19.0058C6.29564 19.0058 6.59985 18.5768 7.18143 18.6737C7.76301 18.7705 9.66616 19.2884 10.7404 19.4553C11.1861 19.5247 11.5691 19.5428 11.8155 19.5456L11.9735 19.5453C12.0603 19.544 12.1083 19.5411 12.1083 19.5411C12.1083 19.5411 13.2841 19.4879 13.9162 19.3542C14.5488 19.2205 17.0335 18.5179 17.372 18.6426ZM16.023 9.52579C17.0709 10.5505 17.7209 11.9732 17.7209 13.5463C17.7209 16.6679 15.1641 19.1984 12.0104 19.1984C8.85616 19.1984 6.29985 16.6679 6.29985 13.5463C6.29985 11.9732 6.94932 10.5505 7.99722 9.52579C7.54827 10.2658 7.28827 11.1379 7.28827 12.0732C7.28827 14.5189 9.06301 16.5389 11.3656 16.8611C11.252 16.2379 10.6951 15.8889 10.6951 15.8889C10.6951 15.8889 11.3562 15.9895 11.6177 16.3489C11.632 15.9684 11.9998 15.7189 12.0404 15.6932C12.0404 15.6879 12.0435 15.69 12.0441 15.6905C12.0446 15.69 12.0477 15.6879 12.0477 15.6879C12.0883 15.7189 12.4562 15.9684 12.4709 16.3489C12.732 15.9895 13.393 15.8889 13.393 15.8889C13.393 15.8889 12.8414 16.2347 12.7241 16.8521C14.993 16.5 16.732 14.4942 16.732 12.0732C16.732 11.1379 16.472 10.2658 16.023 9.52579ZM6.59511 17.8958C6.61932 17.95 6.59511 18.0126 6.54143 18.0368C6.52511 18.0442 6.13037 18.2163 5.34669 18.2163C4.56985 18.2163 4.05143 18.0532 4.02932 18.0463C3.97353 18.0284 3.94248 17.9684 3.96037 17.9121C3.97827 17.8563 4.0388 17.8247 4.09459 17.8432C4.09932 17.8447 4.60511 18.0026 5.34669 18.0026C6.07932 18.0026 6.4509 17.8432 6.45459 17.8416C6.50827 17.8179 6.57143 17.8421 6.59511 17.8958ZM17.6314 17.8416C17.6351 17.8432 18.0067 18.0026 18.7388 18.0026C19.4804 18.0026 19.9862 17.8447 19.9914 17.8432C20.0472 17.8247 20.1077 17.8563 20.1256 17.9121C20.1435 17.9684 20.1125 18.0284 20.0567 18.0463C20.0346 18.0532 19.5162 18.2163 18.7388 18.2163C17.9556 18.2163 17.5609 18.0442 17.5446 18.0368C17.4909 18.0126 17.4667 17.95 17.4904 17.8958C17.5146 17.8421 17.5777 17.8179 17.6314 17.8416ZM6.47774 17.4474C6.50406 17.5005 6.48248 17.5642 6.42932 17.59C6.41458 17.5974 6.05406 17.7716 5.34037 17.7716C4.63353 17.7716 4.16143 17.6074 4.14195 17.6005C4.08616 17.5811 4.05722 17.52 4.07669 17.4642C4.09616 17.4089 4.15774 17.3795 4.21301 17.3989C4.21774 17.4005 4.67301 17.5579 5.34037 17.5579C5.99827 17.5579 6.33195 17.4 6.33511 17.3984C6.38827 17.3732 6.45248 17.3947 6.47774 17.4474ZM17.7509 17.3984C17.7541 17.4 18.0877 17.5579 18.7456 17.5579C19.413 17.5579 19.8683 17.4005 19.873 17.3989C19.9283 17.3795 19.9893 17.4089 20.0093 17.4642C20.0288 17.52 19.9998 17.5811 19.9441 17.6005C19.9241 17.6074 19.452 17.7716 18.7456 17.7716C18.032 17.7716 17.6714 17.5974 17.6567 17.59C17.6035 17.5642 17.582 17.5005 17.6077 17.4474C17.6335 17.3947 17.6977 17.3732 17.7509 17.3984ZM17.9104 17.0116C17.913 17.0132 18.1962 17.1679 18.7541 17.1679C19.3225 17.1679 19.7098 17.0126 19.7141 17.0111C19.7688 16.9889 19.8309 17.0147 19.8535 17.0695C19.8756 17.1237 19.8498 17.1863 19.7951 17.2084C19.7777 17.2158 19.3672 17.3816 18.7541 17.3816C18.133 17.3816 17.8177 17.2042 17.8046 17.1968C17.7535 17.1679 17.7362 17.1026 17.7651 17.0516C17.7941 17.0005 17.8593 16.9826 17.9104 17.0116ZM6.3209 17.0516C6.34985 17.1026 6.33248 17.1679 6.28143 17.1968C6.26827 17.2042 5.95301 17.3816 5.33195 17.3816C4.7188 17.3816 4.30774 17.2158 4.2909 17.2084C4.23616 17.1863 4.21037 17.1237 4.23248 17.0695C4.25511 17.0147 4.31722 16.9889 4.37195 17.0111C4.37564 17.0126 4.76353 17.1679 5.33195 17.1679C5.88985 17.1679 6.17301 17.0132 6.17564 17.0116C6.22669 16.9826 6.29195 17.0005 6.3209 17.0516ZM3.01301 9.27786C3.15985 9.28684 3.16932 9.69105 3.14143 9.92105C3.17157 9.99641 3.17705 10.5819 3.17805 10.7924L3.17827 10.8674C3.17827 10.8674 3.1801 10.8703 3.18355 10.8759L3.22217 10.9407C3.2954 11.0668 3.44698 11.3446 3.57406 11.6853C4.01564 11.7311 4.50301 12.2368 4.50301 12.2368C4.50301 12.2368 4.56722 12.0068 4.24511 11.5384C3.92353 11.0695 3.8588 10.7479 3.96037 10.6926C4.35564 10.7663 5.15564 11.8232 5.15564 11.8232C5.15564 11.8232 5.53301 12.0437 5.69827 12.3653C5.86406 12.6868 5.79985 13.5047 5.79985 13.5047C5.79985 13.5047 5.91049 14.505 6.01432 15.5622L6.05049 15.9361C6.08007 16.2471 6.10787 16.5534 6.1309 16.8311C5.18353 17.1253 4.42932 16.8037 4.42932 16.8037C4.42932 16.8037 4.47781 16.0271 4.53255 15.1969L4.5581 14.8126C4.59663 14.2383 4.63505 13.6917 4.65932 13.4126C4.41985 13.0821 3.65669 12.6684 3.65669 12.6684C3.65669 12.6684 3.07722 12.2 2.83827 11.18C2.5988 10.16 2.91143 9.27158 3.01301 9.27786ZM21.073 9.27786C21.1746 9.27158 21.4867 10.16 21.2477 11.18C21.0088 12.2 20.4293 12.6684 20.4293 12.6684C20.4293 12.6684 19.6656 13.0821 19.4267 13.4126C19.4508 13.6917 19.4891 14.2383 19.5277 14.8126L19.5533 15.1969C19.608 16.0271 19.6567 16.8037 19.6567 16.8037C19.6567 16.8037 18.9025 17.1253 17.9551 16.8311C17.9781 16.5534 18.0059 16.2471 18.0355 15.9361L18.0717 15.5622C18.1755 14.505 18.2862 13.5047 18.2862 13.5047C18.2862 13.5047 18.222 12.6868 18.3872 12.3653C18.553 12.0437 18.9298 11.8232 18.9298 11.8232C18.9298 11.8232 19.7304 10.7663 20.1256 10.6926C20.2267 10.7479 20.1625 11.0695 19.8404 11.5384C19.5188 12.0068 19.583 12.2368 19.583 12.2368C19.583 12.2368 20.0704 11.7311 20.512 11.6853C20.639 11.3446 20.7906 11.0668 20.8638 10.9407L20.9025 10.8759C20.9059 10.8703 20.9077 10.8674 20.9077 10.8674L20.908 10.7924C20.9089 10.5819 20.9143 9.99641 20.9441 9.92105C20.9167 9.69105 20.9256 9.28684 21.073 9.27786ZM12.0467 12.7068C12.0709 12.7274 12.2951 12.8895 12.3041 13.1374C12.463 12.9037 12.8656 12.8379 12.8656 12.8379C12.8656 12.8379 12.4446 13.1184 12.4446 13.6142C12.4446 14.1105 12.8472 14.3537 12.9593 14.9242C13.072 15.4947 12.3788 15.7942 12.3788 15.7942L12.0441 15.4689L11.7093 15.7942C11.7093 15.7942 11.0162 15.4947 11.1288 14.9242C11.2409 14.3537 11.6435 14.1105 11.6435 13.6142C11.6435 13.1184 11.2225 12.8379 11.2225 12.8379C11.2225 12.8379 11.6251 12.9037 11.7841 13.1374C11.793 12.8895 12.0172 12.7274 12.042 12.7105C12.042 12.7068 12.0435 12.7084 12.0441 12.7084L12.0467 12.7068ZM12.0462 10.1711C12.0662 10.1879 12.2514 10.3221 12.2588 10.5268C12.3909 10.3337 12.7235 10.2795 12.7235 10.2795C12.7235 10.2795 12.3751 10.5116 12.3751 10.9216C12.3751 11.3316 12.7083 11.5326 12.8014 12.0047C12.8941 12.4768 12.3209 12.7242 12.3209 12.7242L12.0441 12.4553L11.7672 12.7242C11.7672 12.7242 11.1941 12.4768 11.2872 12.0047C11.3798 11.5326 11.713 11.3316 11.713 10.9216C11.713 10.5116 11.3646 10.2795 11.3646 10.2795C11.3646 10.2795 11.6972 10.3337 11.8293 10.5268C11.8367 10.3221 12.022 10.1879 12.042 10.1737V10.1711C12.0446 10.1721 12.0462 10.1711 12.0462 10.1711ZM20.7788 10.61C20.7146 10.9042 20.4293 11.5105 20.4293 11.5105C20.4293 11.5105 20.1167 11.5289 19.813 11.8689C20.052 11.4558 20.4567 10.7295 20.4567 10.7295L20.4935 9.88421C20.4935 9.88421 20.3925 9.39737 20.5488 9.35158C20.6988 9.30737 20.8893 9.82895 20.7788 10.61ZM3.53722 9.35158C3.69353 9.39737 3.59248 9.88421 3.59248 9.88421L3.62932 10.7295C3.62932 10.7295 4.03406 11.4558 4.27301 11.8689C3.96932 11.5289 3.65669 11.5105 3.65669 11.5105C3.65669 11.5105 3.37143 10.9042 3.30722 10.61C3.19669 9.82895 3.38722 9.30737 3.53722 9.35158ZM19.822 10.0132C19.9062 10.0224 19.9268 10.15 19.9313 10.2614L19.9325 10.3253C19.9325 10.4447 19.942 10.6284 19.942 10.6284L19.7393 10.7847V10.2426C19.7393 10.2426 19.7393 10.0037 19.822 10.0132ZM4.26353 10.0132C4.34669 10.0037 4.34669 10.2426 4.34669 10.2426V10.7847L4.14406 10.6284C4.14406 10.6284 4.15353 10.4447 4.15353 10.3253L4.1547 10.2614C4.15922 10.15 4.17976 10.0224 4.26353 10.0132ZM3.90511 9.64526C4.04301 9.66368 3.99722 9.90263 3.99722 9.90263L3.98774 10.5553C3.98774 10.5553 3.83143 10.5642 3.75774 10.61C3.68406 9.90263 3.80459 9.6321 3.90511 9.64526ZM20.1809 9.64526C20.2814 9.6321 20.4014 9.90263 20.3283 10.61C20.2546 10.5642 20.0983 10.5553 20.0983 10.5553L20.0888 9.90263C20.0888 9.90263 20.043 9.66368 20.1809 9.64526ZM13.5109 6.27789C14.4109 6.29684 15.4614 7.33421 16.4114 7.42842C17.3614 7.52263 17.7767 7.32789 17.7767 7.32789C17.7767 7.32789 17.053 8.61 15.8704 7.98158C15.9456 8.08842 15.9456 8.23947 16.6067 8.34C16.6004 8.55368 16.1914 9.09421 15.0146 8.44053C15.1467 8.64789 15.4298 8.83632 15.7762 8.91211L15.7126 8.98814C15.4929 9.2409 15.1742 9.45703 14.1277 8.74842C14.3351 9.15053 14.8388 9.32684 14.8388 9.32684C14.8388 9.32684 14.4609 9.72895 13.6051 9.47158C12.8568 9.24592 12.6572 8.72207 12.619 8.59464L12.6114 8.56632L12.4477 8.66053C12.4477 8.66053 12.7625 9.21368 12.7625 9.69737C12.7625 10.1816 12.3783 10.2321 12.3783 10.2321L12.083 9.94895C12.083 9.94895 12.0825 9.94105 12.0825 9.92895L12.083 9.94895L11.7867 10.2321C11.7867 10.2321 11.403 10.1816 11.403 9.69737C11.403 9.21368 11.7177 8.66053 11.7177 8.66053L11.5541 8.56632L11.5464 8.59464C11.5082 8.72207 11.3087 9.24592 10.5598 9.47158C9.70406 9.72895 9.32669 9.32684 9.32669 9.32684C9.32669 9.32684 9.82985 9.15053 10.0377 8.74842C8.88616 9.52789 8.61564 9.18842 8.38932 8.91211C8.73511 8.83632 9.01827 8.64789 9.15037 8.44053C7.97406 9.09421 7.56511 8.55368 7.5588 8.34C8.21932 8.23947 8.21932 8.08842 8.29459 7.98158C7.11195 8.61 6.38827 7.32789 6.38827 7.32789C6.38827 7.32789 6.80353 7.52263 7.75353 7.42842C8.70353 7.33421 9.75458 6.29684 10.6541 6.27789C11.4983 6.26053 12.0214 6.91211 12.0825 6.99263C12.1441 6.91211 12.6667 6.26053 13.5109 6.27789ZM12.192 6.04263V6.72158L12.092 6.82263L11.9983 6.72158V6.04263H12.192ZM13.2893 4.63474C13.2893 4.63474 13.4272 5.46421 13.5751 5.70368C13.2062 5.50105 13.0956 5.32579 13.0956 5.32579L12.9572 5.86C12.9572 5.86 12.653 5.63 12.5514 5.40895C12.3467 5.73632 12.143 5.88842 12.0998 5.91842C12.0998 5.92474 12.0967 5.92211 12.0951 5.92158C12.0935 5.92211 12.0904 5.92474 12.0904 5.92474C12.0472 5.88842 11.8435 5.73632 11.6388 5.40895C11.5372 5.63 11.233 5.86 11.233 5.86L11.0946 5.32579C11.0946 5.32579 10.9841 5.50105 10.6151 5.70368C10.7625 5.46421 10.9009 4.63474 10.9009 4.63474C11.2281 4.7536 11.806 4.78876 12.0173 4.79779L12.0951 4.80053C12.143 4.79947 12.8967 4.77737 13.2893 4.63474ZM12.0951 2C12.1967 2 12.2793 2.08263 12.2793 2.18474C12.2793 2.25056 12.2446 2.30843 12.1926 2.34101L12.1907 2.45663C12.2886 2.45267 12.4195 2.46843 12.5609 2.54368C12.8562 2.70053 13.1051 2.94 13.5204 2.93053C13.3909 3.15158 12.9762 3.23474 12.9762 3.23474C12.9762 3.23474 13.133 3.31737 13.1788 3.39105C13.2251 3.46474 13.3077 3.61211 13.5014 3.61211C13.3451 3.75053 12.9762 3.78737 12.8656 3.68632C12.7634 3.59279 12.5443 3.398 12.1934 3.38206L12.191 4.212L12.2431 4.21267C12.8249 4.22551 13.2751 4.313 13.2751 4.41842C13.2751 4.53316 12.7467 4.62579 12.0951 4.62579C11.4435 4.62579 10.9151 4.53316 10.9151 4.41842C10.9151 4.30997 11.3916 4.2205 11.9976 4.21175L11.998 2.34146C11.9454 2.30896 11.9104 2.25086 11.9104 2.18474C11.9104 2.08263 11.993 2 12.0951 2Z" fill="#1C140F"/>
<path fill-rule="evenodd" clip-rule="evenodd" d="M9.91932 19.5389C9.91932 19.5389 9.77669 20.2595 9.83932 20.3042C10.0041 20.3711 10.0709 20.2995 10.1777 20.2242C10.1777 20.2616 10.1556 20.3037 10.123 20.3426C10.1809 20.3847 10.3093 20.4432 10.3867 20.2105C10.3985 20.2172 10.4104 20.2541 10.4071 20.3013L10.3983 20.3511L10.4163 20.372C10.4457 20.3999 10.498 20.4239 10.5872 20.3974C10.5872 20.298 10.5956 20.2468 10.599 20.2303L10.6004 20.2242L10.672 20.1663L10.6941 20.4153C10.6941 20.4153 10.8367 20.5042 10.9525 20.4063C10.9797 20.212 10.9967 19.9391 11.0006 19.8739L11.0014 19.8595L10.9525 19.8279L11.073 19.7347C11.073 19.7347 11.073 19.8505 11.1883 19.8816C11.1717 19.9147 11.1249 19.9307 11.1026 19.9366L11.0904 19.9395L11.0683 20.2863C11.0683 20.2863 11.0462 20.5579 10.8235 20.58C10.6004 20.6021 10.6272 20.4421 10.6272 20.4421C10.6272 20.4421 10.5604 20.5758 10.4583 20.5532C10.4066 20.5421 10.3744 20.5094 10.3551 20.4798L10.3398 20.4521L10.3033 20.4831C10.2759 20.5025 10.242 20.5191 10.1998 20.5311C10.1454 20.5334 10.0912 20.497 10.0524 20.4622L10.0193 20.4295L9.96414 20.4551C9.92663 20.4687 9.88827 20.4746 9.85248 20.4689C9.73362 20.4501 9.7171 20.3545 9.71489 20.3231L9.71459 20.3132L9.7588 19.9168C9.7588 19.9168 9.5009 20.3889 9.45616 20.4021C9.43454 20.4085 9.37247 20.3931 9.30203 20.3664L9.28828 20.4327C9.24109 20.5968 9.11728 20.7356 9.08287 20.7719L9.07388 20.7811L8.81091 20.3826C8.81091 20.3826 8.62501 20.5986 8.52072 20.6486C8.48235 20.667 8.42539 20.6794 8.36679 20.6749L8.30827 20.6643L8.45336 20.4455C8.53951 20.4327 8.62695 20.4082 8.69043 20.3581C8.87179 20.2168 9.01947 19.728 9.15096 19.7859C9.24498 19.8273 9.30257 20.0428 9.30787 20.2319C9.3803 20.214 9.45884 20.1902 9.52301 20.1663C9.48274 19.8381 9.31288 19.798 9.27931 19.7932L9.27353 19.7926L9.28669 19.5658C9.5164 19.5695 9.5702 20.0095 9.57932 20.1072L9.5809 20.1263L9.78143 19.6547L9.91932 19.5389ZM15.3256 19.4721C15.4635 19.61 15.4814 19.9395 15.272 19.9884C15.2267 19.9989 15.1862 19.9958 15.1498 19.9858C15.1568 20.0727 15.1493 20.1452 15.1334 20.2015C15.2261 20.4711 15.072 20.6957 14.8615 20.7267C14.6165 20.7636 14.4975 20.6658 14.4475 20.5861C14.8025 20.5615 14.9568 20.4528 15.0075 20.3556L15.0141 20.34C14.975 20.3376 14.9265 20.3104 14.8862 20.2792C14.7234 20.4715 14.4825 20.3779 14.3625 20.2311C14.2275 20.0651 14.4215 19.7529 14.6505 19.7347C14.6505 19.7347 14.8535 19.7282 15.0645 20.0593C15.0682 20.0651 15.0717 20.0708 15.0752 20.0764C15.0864 20.0346 15.0899 19.9912 15.0904 19.9605C15.0175 19.9176 14.9723 19.847 14.9571 19.8205L14.9514 19.81L14.9646 19.6768C15.1072 19.9258 15.3567 19.8547 15.3656 19.7747C15.371 19.7267 15.325 19.6659 15.2874 19.6248L15.2409 19.5789C15.2409 19.5789 15.232 19.5258 15.3256 19.4721ZM14.1009 19.7837C14.2614 19.9126 14.1635 20.1263 14.1635 20.1263C14.3683 20.1753 14.2877 20.4111 13.9541 20.5268C13.657 20.6293 13.4202 20.6128 13.3713 20.6079L13.362 20.6068L13.1035 20.4153C13.7404 20.5311 14.2256 20.2995 14.1988 20.2421C14.1764 20.1939 14.04 20.2381 13.9952 20.2542L13.9809 20.2595V20.0995H14.0788C14.1188 19.9574 13.9851 19.9079 13.9851 19.9079C13.9851 19.9079 14.0298 19.8368 14.1009 19.7837ZM12.5825 19.9395C12.8093 20.0995 12.8451 20.2421 12.823 20.3711C12.8004 20.5 12.6893 20.6247 12.5288 20.5621C12.3688 20.5 12.4041 20.3932 12.4309 20.2911C12.4977 20.4289 12.7741 20.4289 12.7514 20.3263C12.7337 20.2446 12.6248 20.1771 12.5819 20.1533L12.5646 20.1442L12.5825 19.9395ZM13.5946 17.0021C13.6146 17.0484 13.6577 17.1484 13.7414 17.1721C13.7213 17.1871 13.7237 17.2285 13.7261 17.2482L13.7277 17.2589L13.6577 17.2421C13.6577 17.2421 13.6602 17.2582 13.6642 17.2857L13.6804 17.3982C13.69 17.4671 13.7013 17.5514 13.7114 17.6358C13.7346 17.8326 13.982 17.8363 13.982 17.8363C13.982 17.8363 13.9783 17.9326 13.8951 18.0363C13.7146 18.0163 13.6614 18.1163 13.5241 18.1132C13.4068 18.11 13.368 17.9282 13.3593 17.8763L13.3572 17.8626C13.3455 17.8636 13.3338 17.8645 13.3104 17.8663C13.1135 18.0832 12.893 18.2363 12.7325 18.2563C12.5953 18.2735 12.556 18.1707 12.5476 18.141L12.5456 18.1333L12.5388 18.1471C12.5206 18.1815 12.4661 18.2683 12.3751 18.2763C12.3014 18.2832 12.2546 18.2332 12.2309 18.1974C12.1993 18.2753 12.1446 18.3074 12.0514 18.2963C11.9667 18.2863 11.9288 18.2484 11.9125 18.2126C11.873 18.2526 11.8209 18.2811 11.7509 18.28C11.6051 18.2779 11.5598 18.1974 11.5467 18.1326C11.512 18.1729 11.4639 18.2058 11.3983 18.221L11.3267 18.23H11.3062C11.2509 18.4116 11.1283 18.5 11.0262 18.48C10.8888 18.4532 10.8356 18.2332 10.8356 18.2332C10.8356 18.2332 11.0562 18.3732 11.213 18.2763C11.2204 18.26 11.2262 18.2437 11.232 18.2274C10.9835 18.2068 10.9293 18.0711 10.9325 17.9695C10.9356 17.8563 11.103 17.6995 11.2198 17.7158C11.2198 17.7158 11.3367 17.6858 11.3367 18.0132C11.3367 18.0368 11.3335 18.0584 11.332 18.0805C11.5672 18.0879 11.6404 17.8363 11.6404 17.8363C11.6404 17.8363 11.6446 17.9305 11.6083 18.0268C11.6372 18.06 11.6941 18.1068 11.7877 18.1132C11.9346 18.1232 12.0277 17.9395 12.0277 17.9395C12.0277 17.9395 12.0204 18.0137 11.9883 18.0926C12.0062 18.1121 12.0409 18.1363 12.1014 18.1363C12.1871 18.1363 12.2485 18.1216 12.2643 17.9872L12.2666 17.9343L12.2658 17.9995L12.2593 18.0774C12.2593 18.0774 12.262 18.1495 12.4051 18.1363C12.5488 18.1232 12.5025 17.8995 12.5025 17.8995C12.5025 17.8995 12.5456 17.8826 12.5988 17.8463C12.5256 18.1395 12.763 18.1232 12.8762 18.0732C12.9898 18.0232 13.2404 17.8463 13.2404 17.8463C13.2404 17.8463 13.1235 17.8226 13.0398 17.7858C12.9562 17.7495 12.873 17.7858 12.8393 17.8695C12.793 17.8026 12.8093 17.7795 12.883 17.6858C12.9562 17.5926 13.0167 17.6189 13.1667 17.6995C13.2957 17.768 13.4564 17.7237 13.4997 17.7096L13.5109 17.7058L13.5209 17.7995C13.5209 17.7995 13.4641 17.8695 13.3872 17.8726C13.4441 18.0332 13.6546 17.9226 13.7146 17.9326C13.7746 17.9426 13.8251 17.8926 13.8251 17.8926C13.8251 17.8926 13.7246 17.8158 13.6614 17.7758C13.6057 17.7408 13.5605 17.3407 13.55 17.2412L13.5477 17.2189L13.4441 17.1721C13.4441 17.1721 13.4977 17.0984 13.5946 17.0021ZM9.71669 17.6589C9.71669 17.6589 10.0925 18.0142 10.4856 18.0753C10.5725 18.0889 10.6604 18.0884 10.7456 18.0663C10.7602 18.0284 10.7556 17.9583 10.7457 17.8909L10.7346 17.8258L10.7264 17.7852C10.7211 17.7605 10.7165 17.7409 10.7139 17.7306L10.712 17.7226L10.8856 17.6689C10.8904 17.7258 10.9209 18.2116 10.5314 18.2432C10.4848 18.247 10.4395 18.2455 10.3959 18.24L10.332 18.2289L10.2341 18.2013C10.0151 18.1239 9.86259 17.9662 9.82789 17.928L9.82037 17.9195L9.71669 17.6589ZM15.103 16.7947C15.103 16.7947 15.3204 16.9474 15.3872 17.1237C15.5256 17.5058 14.8977 17.7395 14.7162 17.8184C14.692 17.7637 14.4104 17.7132 14.4104 17.7132C14.4104 17.7132 14.5725 17.6895 14.752 17.6463C15.2583 17.4247 15.342 17.15 15.3372 17.1168C15.3325 17.0832 15.0814 16.9947 15.0814 16.9947C15.0814 16.9947 15.103 16.8042 15.103 16.7947ZM9.71627 16.6308L9.79669 16.6584L9.63669 16.7916C9.63669 16.7916 9.54616 16.6884 9.43301 16.8484C9.31932 17.0084 9.1688 17.2053 9.20564 17.2553C9.24248 17.3053 9.35932 17.4158 9.42616 17.4121C9.42616 17.4121 9.50985 17.4158 9.50616 17.1989C9.60301 17.1521 9.67301 17.1284 9.67301 17.1284C9.67301 17.1284 9.66669 17.5026 9.27564 17.5289C9.14564 17.5089 8.99511 17.3489 9.05564 17.2353C9.11102 17.1308 9.39691 16.5739 9.71627 16.6308ZM7.98301 16.0411C7.98301 16.0411 7.90669 16.1742 7.94301 16.2379C8.00722 16.3479 8.08932 16.3574 8.14301 16.3484C8.20346 16.2198 8.29794 16.0932 8.3237 16.0597L8.33037 16.0511L8.48774 16.0542C8.48774 16.0542 8.22353 16.3779 8.21722 16.4816C8.21511 16.5074 8.24616 16.5521 8.29353 16.6053C8.39406 16.5574 8.69616 16.4179 8.76827 16.4511C8.83353 16.4816 8.86248 16.7916 8.52827 16.8237C8.64406 16.9189 8.75406 16.9953 8.78143 16.9953C8.83804 16.9953 9.11089 16.6235 9.17082 16.5409L9.18248 16.5247L9.22564 16.4111C9.22564 16.4111 9.30564 16.3947 9.39616 16.4011C9.35713 16.4568 9.36451 16.5958 9.36806 16.6406L9.36932 16.6547L9.1988 16.6379C9.1988 16.6379 9.0688 16.8653 8.90511 17.0184C8.74143 17.1721 8.57774 17.0553 8.57774 17.0553C8.57774 17.0553 8.55459 17.0353 8.5188 17.0032C8.50564 17.0968 8.45932 17.2111 8.31037 17.2189C8.12248 17.2284 8.1088 16.9674 8.17143 16.7784C8.13985 16.7689 8.10827 16.7605 8.07353 16.7484C8.10564 16.7505 8.14195 16.7526 8.17985 16.7547C8.18616 16.7379 8.19353 16.7221 8.2009 16.7074C8.16827 16.6742 8.1388 16.6437 8.11669 16.6179C8.07406 16.5684 8.08722 16.4847 8.12195 16.3968C7.91722 16.4953 7.81564 16.2995 7.79301 16.2342C7.76932 16.1679 7.98301 16.0411 7.98301 16.0411ZM15.743 16.7611L15.7584 16.7737L15.773 16.7863L15.7502 16.808L15.7277 16.8289L15.7495 16.8438L15.772 16.8611C15.7956 16.8816 15.8114 16.9026 15.8214 16.9237C15.7698 16.9768 15.733 17.0174 15.7267 17.0211C15.7051 17.0332 15.6025 17.1716 15.4898 17.0521C15.3777 16.9332 15.3414 16.6984 15.4351 16.6347C15.4946 16.5942 15.5809 16.6416 15.743 16.7611ZM15.8032 16.3622L15.822 16.3626C15.8172 16.4316 15.9177 16.5032 16.0177 16.5247C16.0982 16.542 16.1095 16.4815 16.1109 16.4565L16.1109 16.4463L16.2041 16.4532L16.2114 16.4951C16.2171 16.5333 16.2237 16.592 16.2209 16.6463C16.1425 16.6184 15.9793 16.7647 15.862 16.8826C15.8393 16.8505 15.8098 16.8184 15.773 16.7863C15.8472 16.7168 15.9235 16.6463 15.9583 16.62C15.7364 16.5686 15.7425 16.4192 15.7857 16.3739L15.8032 16.3622ZM16.213 15.0032C16.2437 15.0948 16.353 15.0845 16.3886 15.0785L16.3998 15.0763L16.4235 15.1832C16.4235 15.1832 16.7504 15.4668 16.8509 15.5305C16.9509 15.5937 16.9446 15.8905 16.7172 15.9274C16.6811 15.9333 16.6428 15.9337 16.604 15.9301L16.5456 15.9221L16.5721 15.9638C16.6118 16.0388 16.6248 16.1382 16.5467 16.2111C16.4435 16.3079 16.3198 16.1942 16.2362 16.0942C16.4528 16.1457 16.4901 16.0258 16.4913 15.9405L16.4904 15.9105L16.4114 15.8871C16.3606 15.87 16.3144 15.8507 16.2773 15.8336L16.1974 15.7936L16.1862 15.7874V15.6305C16.2062 15.6705 16.343 15.7837 16.5835 15.7905C16.8241 15.7974 16.7872 15.6168 16.7709 15.5868C16.7562 15.5606 16.4271 15.3047 16.3451 15.2411L16.3267 15.2268L16.213 15.23C16.213 15.23 16.183 15.13 16.213 15.0032ZM7.06774 15.0232C7.07458 15.6337 7.64616 16.0742 7.70248 16.0442C7.75932 16.0142 7.66248 15.8237 7.63564 15.7474C7.60932 15.6705 7.69616 15.6305 7.76932 15.5768C7.84301 15.5237 8.13037 15.5537 8.15353 15.7074C8.17722 15.8605 7.98669 15.8542 7.98669 15.8542C7.98669 15.8542 7.98669 15.8374 7.98985 15.7974C8.00353 15.6205 7.87301 15.6237 7.79301 15.6674C7.71301 15.7105 7.85301 15.9042 7.86985 15.9911C7.88616 16.0774 7.6388 16.1411 7.52248 16.1242C7.40564 16.1074 7.0509 15.5337 6.99459 15.3768C7.03353 15.3437 7.05353 15.0842 7.06564 15.0332C7.06722 15.0268 7.06774 15.0232 7.06774 15.0232Z" fill="white"/>
</svg>
