<svg width="48" height="48" viewBox="0 0 48 48" fill="none" xmlns="http://www.w3.org/2000/svg">
<path d="M24.5898 45.22C24.3598 45.22 24.1298 45.15 23.9298 45.01L11.2498 36.33C11.0198 36.17 10.8698 35.93 10.8298 35.66C10.7898 35.39 10.8598 35.11 11.0298 34.89C11.7898 33.91 12.1898 32.7 12.1698 31.46C12.1698 29.28 11.0998 28.15 9.73977 26.72C7.89977 24.78 6.75977 20.89 6.75977 16.56C6.75977 11.2 11.0698 2.70996 22.6498 2.70996C37.3798 2.70996 38.5298 13.31 38.5298 16.56C38.5298 17.43 38.2898 18.48 38.0898 19.41C38.0098 19.78 37.8998 20.26 37.8698 20.51C38.0798 20.95 38.9298 22.15 39.4598 22.89C40.2898 24.06 40.7598 24.73 40.9398 25.15L40.9798 25.25C41.1698 25.7 41.4898 26.46 41.0498 27.2C40.7298 27.74 40.1398 28.07 39.1398 28.26C38.9998 29.09 38.6898 30.04 38.2398 31.38L38.1098 31.78C37.9398 32.29 37.8398 33.16 37.7398 34C37.4698 36.32 37.1398 39.21 34.8298 39.21C33.5298 39.21 32.1198 38.77 30.8698 38.38C30.1898 38.17 29.4898 37.95 29.0098 37.88C28.4798 38.53 27.2298 40.88 25.6798 44.5C25.6598 44.55 25.6198 44.62 25.5898 44.67C25.3898 44.96 25.1198 45.13 24.8198 45.19C24.7498 45.2 24.6798 45.21 24.6098 45.21L24.5898 45.22ZM13.1898 35.25L24.2298 42.8C27.2698 35.87 28.0798 35.87 28.7298 35.87C29.4898 35.87 30.3998 36.15 31.4598 36.48C32.5698 36.83 33.8298 37.22 34.8198 37.22C35.3498 37.22 35.6398 34.72 35.7498 33.78C35.8598 32.8 35.9698 31.86 36.1998 31.16L36.3298 30.76C36.8698 29.13 37.1998 28.14 37.1998 27.39C37.1998 26.88 37.5898 26.45 38.0998 26.39C38.6798 26.33 39.0098 26.25 39.1898 26.19C39.1698 26.13 39.1398 26.08 39.1198 26.03L39.0698 25.92C38.9598 25.67 38.2998 24.73 37.8098 24.05C36.2398 21.84 35.8498 21.2 35.8498 20.62C35.8498 20.23 35.9698 19.67 36.1298 18.97C36.3098 18.18 36.5298 17.2 36.5298 16.56C36.5298 13 35.1798 4.70996 22.6498 4.70996C17.2798 4.70996 8.75977 7.92996 8.75977 16.56C8.75977 21.15 10.0698 24.16 11.1898 25.34C12.6598 26.88 14.1698 28.48 14.1698 31.44C14.1898 32.76 13.8498 34.08 13.1998 35.23L13.1898 35.25Z" fill="#323232"/>
<path d="M31.4808 17.3C31.4808 19.42 29.7608 21.14 27.6408 21.14H17.2408C15.4808 21.14 14.0508 19.71 14.0508 17.95C14.0508 16.19 15.4808 14.76 17.2408 14.76C17.3308 14.76 17.4108 14.76 17.5008 14.77C17.7308 12.07 19.9908 9.95996 22.7508 9.95996C25.0408 9.95996 26.9808 11.42 27.7108 13.46C29.8008 13.49 31.4908 15.2 31.4908 17.3H31.4808Z" fill="#8DE2E0"/>
<path d="M20.9001 17.8101H25.9001C25.9901 17.8101 26.0401 17.9001 26.0001 17.9801L23.5201 22.4501C23.4801 22.5201 23.5301 22.6201 23.6201 22.6201H26.3501C26.4401 22.6201 26.5001 22.7301 26.4401 22.8001L20.7701 30.1101C20.7001 30.2101 20.5401 30.1301 20.5701 30.0101L21.8401 25.1601C21.8601 25.0901 21.8101 25.0201 21.7301 25.0201H19.1901C19.1201 25.0201 19.0601 24.9501 19.0801 24.8801L20.8001 17.9001C20.8001 17.9001 20.8601 17.8201 20.9101 17.8201L20.9001 17.8101Z" fill="#DF0000"/>
</svg>
