<svg width="48" height="48" viewBox="0 0 48 48" fill="none" xmlns="http://www.w3.org/2000/svg">
<path d="M12.67 45.2499H35.33L36.5 39.1099H11.5L12.67 45.2499Z" fill="#8DE2E0"/>
<path d="M41.7696 14.86C41.5796 14.63 41.2996 14.5 40.9996 14.5H39.1696V5.65C39.1696 5.1 38.7196 4.65 38.1696 4.65H32.4996C31.9496 4.65 31.4996 5.1 31.4996 5.65V8.8L27.8296 9.08V2.75C27.8296 2.2 27.3796 1.75 26.8296 1.75H21.1596C20.6096 1.75 20.1596 2.2 20.1596 2.75V5.46L18.5396 5.23C17.9996 5.15 17.4896 5.53 17.4096 6.08L16.1596 14.95L14.9996 6.86C14.9196 6.31 14.4196 5.93 13.8696 6.01L8.26959 6.79C7.71959 6.87 7.33959 7.37 7.41959 7.92L8.32959 14.51H6.99959C6.69959 14.51 6.41959 14.64 6.22959 14.87C6.03959 15.1 5.95959 15.4 6.01959 15.69L11.6896 45.44C11.7796 45.91 12.1896 46.25 12.6696 46.25H35.3296C35.8096 46.25 36.2196 45.91 36.3096 45.44L41.9796 15.69C42.0396 15.4 41.9596 15.1 41.7696 14.87V14.86ZM37.1696 6.65V14.5H35.3296C34.9696 14.5 34.6596 14.69 34.4796 14.99L34.0596 9.61C34.0296 9.24 33.7996 8.96 33.4996 8.8V6.65H37.1696ZM32.1496 10.76L32.7496 18.5C31.9996 19.57 30.8796 20.78 29.2896 21.67L28.5396 11.03L32.1496 10.76ZM22.1696 3.75H25.8396V22.85C25.2496 22.94 24.6396 23.01 24.0096 23.01C23.5996 23.01 23.1996 22.98 22.7996 22.95L24.9996 7.15C25.0396 6.89 24.9696 6.62 24.8096 6.41C24.6496 6.2 24.4096 6.06 24.1496 6.02L22.1796 5.75V3.77L22.1696 3.75ZM19.2496 7.35L22.8696 7.85L20.8196 22.57C19.5396 22.2 18.3896 21.6 17.3496 20.77L19.2496 7.35ZM9.53959 8.63L13.1596 8.13L14.4596 17.21C13.8696 16.1 13.6396 15.27 13.6396 15.25C13.5196 14.81 13.1296 14.51 12.6696 14.51H10.3496L9.53959 8.64V8.63ZM34.4996 44.25H13.4996L8.20959 16.5H11.9496C12.3696 17.63 13.3996 19.85 15.4296 21.74C15.5396 21.92 15.6996 22.07 15.8996 22.16C18.1296 24.04 20.8496 25 23.9996 25C24.9796 25 25.9096 24.89 26.7996 24.71C26.8096 24.71 26.8196 24.71 26.8396 24.71C26.9996 24.71 27.1496 24.66 27.2896 24.59C27.8096 24.46 28.2996 24.31 28.7596 24.13C28.8096 24.11 28.8496 24.1 28.8996 24.07C31.6196 22.98 33.3996 21.11 34.4796 19.52C34.5896 19.41 34.6896 19.28 34.7396 19.13C35.3996 18.08 35.8296 17.12 36.0596 16.49H39.7996L34.5096 44.24L34.4996 44.25Z" fill="#323232"/>
</svg>
