<svg width="48" height="48" viewBox="0 0 48 48" fill="none" xmlns="http://www.w3.org/2000/svg">
<path d="M43.0902 3.76953H4.91016V10.2495H43.0902V3.76953Z" fill="#8DE2E0"/>
<path d="M43.8791 43.2295H41.3491V11.2495H43.0991C43.6491 11.2495 44.0991 10.7995 44.0991 10.2495V3.76953C44.0991 3.21953 43.6491 2.76953 43.0991 2.76953H4.90914C4.35914 2.76953 3.90914 3.21953 3.90914 3.76953V10.2495C3.90914 10.7995 4.35914 11.2495 4.90914 11.2495H6.55914V43.2295H4.11914C3.56914 43.2295 3.11914 43.6795 3.11914 44.2295C3.11914 44.7795 3.56914 45.2295 4.11914 45.2295H43.8691C44.4191 45.2295 44.8691 44.7795 44.8691 44.2295C44.8691 43.6795 44.4191 43.2295 43.8691 43.2295H43.8791ZM5.90914 4.76953H42.0891V9.24953H5.90914V4.76953ZM8.55914 11.2495H39.3391V43.2295H8.55914V11.2495Z" fill="#323232"/>
<path d="M25.0595 16.3291H22.5495C22.2568 16.3291 22.0195 16.5664 22.0195 16.8591V19.3691C22.0195 19.6618 22.2568 19.8991 22.5495 19.8991H25.0595C25.3522 19.8991 25.5895 19.6618 25.5895 19.3691V16.8591C25.5895 16.5664 25.3522 16.3291 25.0595 16.3291Z" fill="#323232"/>
<path d="M17.1084 16.3291H14.5984C14.3056 16.3291 14.0684 16.5664 14.0684 16.8591V19.3691C14.0684 19.6618 14.3056 19.8991 14.5984 19.8991H17.1084C17.4011 19.8991 17.6384 19.6618 17.6384 19.3691V16.8591C17.6384 16.5664 17.4011 16.3291 17.1084 16.3291Z" fill="#323232"/>
<path d="M25.0595 23.6494H22.5495C22.2568 23.6494 22.0195 23.8867 22.0195 24.1794V26.6894C22.0195 26.9821 22.2568 27.2194 22.5495 27.2194H25.0595C25.3522 27.2194 25.5895 26.9821 25.5895 26.6894V24.1794C25.5895 23.8867 25.3522 23.6494 25.0595 23.6494Z" fill="#323232"/>
<path d="M17.1084 23.6494H14.5984C14.3056 23.6494 14.0684 23.8867 14.0684 24.1794V26.6894C14.0684 26.9821 14.3056 27.2194 14.5984 27.2194H17.1084C17.4011 27.2194 17.6384 26.9821 17.6384 26.6894V24.1794C17.6384 23.8867 17.4011 23.6494 17.1084 23.6494Z" fill="#323232"/>
<path d="M25.0595 30.9697H22.5495C22.2568 30.9697 22.0195 31.207 22.0195 31.4997V34.0097C22.0195 34.3024 22.2568 34.5397 22.5495 34.5397H25.0595C25.3522 34.5397 25.5895 34.3024 25.5895 34.0097V31.4997C25.5895 31.207 25.3522 30.9697 25.0595 30.9697Z" fill="#323232"/>
<path d="M33.3095 16.3291H30.7995C30.5068 16.3291 30.2695 16.5664 30.2695 16.8591V19.3691C30.2695 19.6618 30.5068 19.8991 30.7995 19.8991H33.3095C33.6022 19.8991 33.8395 19.6618 33.8395 19.3691V16.8591C33.8395 16.5664 33.6022 16.3291 33.3095 16.3291Z" fill="#323232"/>
<path d="M33.3095 23.6494H30.7995C30.5068 23.6494 30.2695 23.8867 30.2695 24.1794V26.6894C30.2695 26.9821 30.5068 27.2194 30.7995 27.2194H33.3095C33.6022 27.2194 33.8395 26.9821 33.8395 26.6894V24.1794C33.8395 23.8867 33.6022 23.6494 33.3095 23.6494Z" fill="#323232"/>
<path d="M33.3095 30.9697H30.7995C30.5068 30.9697 30.2695 31.207 30.2695 31.4997V34.0097C30.2695 34.3024 30.5068 34.5397 30.7995 34.5397H33.3095C33.6022 34.5397 33.8395 34.3024 33.8395 34.0097V31.4997C33.8395 31.207 33.6022 30.9697 33.3095 30.9697Z" fill="#323232"/>
<path d="M17.1084 30.9697H14.5984C14.3056 30.9697 14.0684 31.207 14.0684 31.4997V34.0097C14.0684 34.3024 14.3056 34.5397 14.5984 34.5397H17.1084C17.4011 34.5397 17.6384 34.3024 17.6384 34.0097V31.4997C17.6384 31.207 17.4011 30.9697 17.1084 30.9697Z" fill="#323232"/>
</svg>
