<svg width="48" height="48" viewBox="0 0 48 48" fill="none" xmlns="http://www.w3.org/2000/svg">
<path d="M5.74047 28.2301L5.73047 14.0601H11.6605V28.2201L5.74047 28.2301Z" fill="#8DE2E0"/>
<path d="M16.4507 29.94H25.9007C27.5107 29.94 28.8307 28.63 28.8307 27.01C28.8307 26.52 28.7107 26.05 28.4907 25.65C29.3207 25.13 29.8807 24.21 29.8807 23.16C29.8807 22.67 29.7607 22.2 29.5407 21.8C30.3707 21.28 30.9307 20.36 30.9307 19.31C30.9307 18.82 30.8107 18.35 30.5907 17.95C31.4207 17.43 31.9807 16.51 31.9807 15.46C31.9807 13.85 30.6707 12.53 29.0507 12.53H21.9907C23.7407 9.53002 23.8207 6.04002 23.7007 4.91002C23.4907 2.95002 22.4007 1.77002 20.8007 1.77002C19.2007 1.77002 17.9007 2.95002 17.6807 4.78002C17.4507 6.73002 17.0507 7.62002 15.5807 9.52002C15.0607 10.2 14.3607 10.93 13.6907 11.64C13.1707 12.19 12.6607 12.73 12.2107 13.26C12.0507 13.14 11.8607 13.06 11.6407 13.06H5.7207C5.4507 13.06 5.2007 13.17 5.0107 13.35C4.8207 13.53 4.7207 13.79 4.7207 14.06V28.23C4.7207 28.78 5.1707 29.23 5.7207 29.23H11.6407C11.9607 29.23 12.2407 29.07 12.4207 28.83C13.3207 29.42 14.6207 29.95 16.4307 29.95L16.4507 29.94ZM15.1607 13.02C15.8707 12.28 16.6007 11.5 17.1807 10.75C18.8607 8.57002 19.4007 7.34002 19.6807 5.03002C19.7807 4.20002 20.1607 3.78002 20.8207 3.78002C21.0307 3.78002 21.5907 3.78002 21.7307 5.13002C21.8307 6.05002 21.7407 9.26002 20.0907 11.84C19.7507 12.37 19.7307 13.04 20.0307 13.6C20.3407 14.18 20.9507 14.53 21.6007 14.53H29.0707C29.5807 14.53 30.0007 14.95 30.0007 15.46C30.0007 15.97 29.5807 16.39 29.0707 16.39H28.0207C27.4707 16.39 27.0207 16.84 27.0207 17.39C27.0207 17.94 27.4707 18.39 28.0207 18.39C28.5307 18.39 28.9507 18.81 28.9507 19.32C28.9507 19.83 28.5307 20.25 28.0207 20.25H26.9707C26.4207 20.25 25.9707 20.7 25.9707 21.25C25.9707 21.8 26.4207 22.25 26.9707 22.25C27.4807 22.25 27.9007 22.67 27.9007 23.18C27.9007 23.69 27.4807 24.11 26.9707 24.11H25.9207C25.3707 24.11 24.9207 24.56 24.9207 25.11C24.9207 25.66 25.3707 26.11 25.9207 26.11C26.4307 26.11 26.8507 26.53 26.8507 27.04C26.8507 27.55 26.4307 27.97 25.9207 27.97H16.4707C14.0907 27.97 13.0107 26.82 12.6807 26.38V16.2C13.0007 15.35 14.1507 14.13 15.1807 13.05L15.1607 13.02ZM6.7407 27.23V15.06H10.6607V27.23H6.7407Z" fill="#323232"/>
<path d="M36.7101 31.0099C36.1901 30.8499 35.6201 31.1499 35.4601 31.6699C35.2001 32.5199 33.9901 33.7899 32.9201 34.9199C32.2101 35.6699 31.4801 36.4399 30.9001 37.1899C29.2101 39.3699 28.6801 40.5999 28.4001 42.9199C28.3001 43.7499 27.9201 44.1699 27.2601 44.1699C27.0501 44.1699 26.4901 44.1699 26.3501 42.8199C26.2501 41.8999 26.3401 38.6899 27.9901 36.1099C28.3301 35.5799 28.3501 34.9099 28.0501 34.3499C27.7401 33.7699 27.1301 33.4199 26.4801 33.4199H19.0101C18.5001 33.4199 18.0801 32.9999 18.0801 32.4899C18.0801 31.9399 17.6301 31.4899 17.0801 31.4899C16.5301 31.4899 16.0801 31.9399 16.0801 32.4899C16.0801 34.0999 17.3901 35.4199 19.0101 35.4199H26.0601C23.9501 39.0299 24.3501 42.9999 24.3501 43.0399C24.5601 44.9999 25.6501 46.1799 27.2501 46.1799C28.8501 46.1799 30.1601 44.9999 30.3701 43.1699C30.6001 41.2199 31.0001 40.3299 32.4701 38.4299C32.9901 37.7499 33.6901 37.0199 34.3601 36.3099C35.7001 34.8999 36.9701 33.5599 37.3601 32.2599C37.5201 31.7299 37.2201 31.1699 36.7001 31.0099H36.7101Z" fill="#323232"/>
<path d="M33.57 20.31C34.97 20.8 35.51 21.71 35.54 21.77C35.72 22.1 36.06 22.29 36.42 22.29C36.58 22.29 36.74 22.25 36.89 22.17C37.38 21.91 37.56 21.3 37.3 20.82C37.21 20.65 36.37 19.18 34.23 18.42C33.71 18.23 33.14 18.51 32.96 19.03C32.78 19.55 33.05 20.12 33.57 20.3V20.31Z" fill="#323232"/>
<path d="M43.3399 19.7202C43.3399 19.4502 43.2299 19.2002 43.0499 19.0102C42.8699 18.8202 42.6099 18.7202 42.3399 18.7202H36.4199C35.8699 18.7202 35.4199 19.1702 35.4199 19.7202V33.8902C35.4199 34.1602 35.5299 34.4102 35.7099 34.6002C35.8899 34.7902 36.1499 34.8902 36.4199 34.8902H42.3399C42.8899 34.8902 43.3399 34.4402 43.3399 33.8902V19.7202Z" fill="#DF0000"/>
</svg>
