<svg width="24" height="24" viewBox="0 0 24 24" fill="none" xmlns="http://www.w3.org/2000/svg">
<path fill-rule="evenodd" clip-rule="evenodd" d="M20 2H4C2.9 2 2.01 2.9 2.01 4L2 22L6 18H20C21.1 18 22 17.1 22 16V4C22 2.9 21.1 2 20 2ZM4.00268 17.1689L4.01 4.00111L20 4V16H5.17157L4.00268 17.1689ZM10.9 9.85528C10.9 10.4933 11.4172 11.0106 12.0553 11.0106C12.6933 11.0106 13.2106 10.4933 13.2106 9.85528C13.2106 9.21724 12.6933 8.7 12.0553 8.7C11.4172 8.7 10.9 9.21724 10.9 9.85528ZM7.65528 11.0106C7.01724 11.0106 6.5 10.4933 6.5 9.85528C6.5 9.21724 7.01724 8.7 7.65528 8.7C8.29333 8.7 8.81056 9.21724 8.81056 9.85528C8.81056 10.4933 8.29333 11.0106 7.65528 11.0106ZM15.3 9.85528C15.3 10.4933 15.8172 11.0106 16.4553 11.0106C17.0933 11.0106 17.6106 10.4933 17.6106 9.85528C17.6106 9.21724 17.0933 8.7 16.4553 8.7C15.8172 8.7 15.3 9.21724 15.3 9.85528Z" fill="#323232"/>
</svg>
