<svg width="24" height="24" viewBox="0 0 24 24" fill="none" xmlns="http://www.w3.org/2000/svg">
<path fill-rule="evenodd" clip-rule="evenodd" d="M6 2H13L20 9V20C20 21.1046 19.1046 22 18 22H6C4.89543 22 4 21.1046 4 20V4C4 2.89543 4.89543 2 6 2ZM12.1716 4H6V20H18V9.82843L12.1716 4ZM10.9947 17.0074H9.00931V15.0074L13.0036 15.0075C13.4925 15.015 13.5406 14.9703 13.5406 14.5623C13.5406 14.1284 13.4528 14.041 12.9882 14.0168L11.0509 14.0163C9.49335 14.0686 8.53053 13.1325 8.53053 11.5712C8.53053 10.0482 9.43561 9.08547 11.0013 8.99895V7.52835H13.0011V8.9981H15.0013V10.9981L11.0694 10.9967C10.6105 11.0207 10.5305 11.1053 10.5305 11.5712C10.5305 12.004 10.5589 12.0317 11.0174 12.0168L13.0375 12.018C14.5935 12.0948 15.5406 13.0377 15.5406 14.5623C15.5406 16.1103 14.5572 17.0284 12.9964 17.0075V18.5397H10.9947V17.0074Z" fill="#323232"/>
</svg>
