<svg width="48" height="48" viewBox="0 0 48 48" fill="none" xmlns="http://www.w3.org/2000/svg">
<path d="M21.3805 40.8501H12.5605C12.0105 40.8501 11.5605 40.4001 11.5605 39.8501C11.5605 39.3001 12.0105 38.8501 12.5605 38.8501H21.3805C21.9305 38.8501 22.3805 39.3001 22.3805 39.8501C22.3805 40.4001 21.9305 40.8501 21.3805 40.8501Z" fill="#323232"/>
<path d="M25.79 45.2602H8.15C6.14 45.2602 4.5 43.6202 4.5 41.6102V6.33018C4.5 4.32018 6.14 2.68018 8.15 2.68018H26.23C26.78 2.68018 27.23 3.13018 27.23 3.68018C27.23 4.23018 26.78 4.68018 26.23 4.68018H8.15C7.24 4.68018 6.5 5.42018 6.5 6.33018V41.6202C6.5 42.5302 7.24 43.2702 8.15 43.2702H25.79C26.7 43.2702 27.44 42.5302 27.44 41.6202V30.2402C27.44 29.6902 27.89 29.2402 28.44 29.2402C28.99 29.2402 29.44 29.6902 29.44 30.2402V41.6202C29.44 43.6302 27.8 45.2702 25.79 45.2702V45.2602Z" fill="#323232"/>
<path fill-rule="evenodd" clip-rule="evenodd" d="M8.30078 20.4401V8.09008C8.30078 7.12008 9.09078 6.33008 10.0608 6.33008H17.4008L8.30078 20.4401Z" fill="#8DE2E0"/>
<path d="M30.3396 20.8498C30.0696 20.8498 29.8196 20.7398 29.6296 20.5598L26.3296 17.2598C25.9396 16.8698 25.9396 16.2398 26.3296 15.8498C26.7196 15.4598 27.3496 15.4598 27.7396 15.8498L30.3296 18.4398L36.2196 12.5498C36.6096 12.1598 37.2396 12.1598 37.6296 12.5498C38.0196 12.9398 38.0196 13.5698 37.6296 13.9598L31.0396 20.5498C30.8496 20.7398 30.5996 20.8398 30.3296 20.8398L30.3396 20.8498Z" fill="#DF0000"/>
<path d="M31.9809 28.0698C25.6309 28.0698 20.4609 22.8998 20.4609 16.5498C20.4609 10.1998 25.6309 5.02979 31.9809 5.02979C38.3309 5.02979 43.5009 10.1998 43.5009 16.5498C43.5009 22.8998 38.3309 28.0698 31.9809 28.0698ZM31.9809 7.03978C26.7309 7.03978 22.4609 11.3098 22.4609 16.5598C22.4609 21.8098 26.7309 26.0798 31.9809 26.0798C37.2309 26.0798 41.5009 21.8098 41.5009 16.5598C41.5009 11.3098 37.2309 7.03978 31.9809 7.03978Z" fill="#323232"/>
</svg>
