<svg width="48" height="48" viewBox="0 0 48 48" fill="none" xmlns="http://www.w3.org/2000/svg">
<path d="M44.1801 14.7197H3.83008V21.5697H44.1801V14.7197Z" fill="#8DE2E0"/>
<path fill-rule="evenodd" clip-rule="evenodd" d="M15.3797 24.6201C14.3797 24.6201 13.5197 25.2201 13.1397 26.0701C12.7497 25.2201 11.8997 24.6201 10.8997 24.6201C9.53969 24.6201 8.42969 25.7301 8.42969 27.0901C8.42969 28.4501 9.52969 29.5601 10.8997 29.5601C11.8997 29.5601 12.7597 28.9601 13.1397 28.1101C13.5297 28.9601 14.3797 29.5601 15.3797 29.5601C16.7397 29.5601 17.8497 28.4501 17.8497 27.0901C17.8497 25.7301 16.7497 24.6201 15.3797 24.6201Z" fill="#DF0000"/>
<path d="M23.9994 33.5996H9.10938C8.55937 33.5996 8.10938 33.1496 8.10938 32.5996C8.10938 32.0496 8.55937 31.5996 9.10938 31.5996H23.9994C24.5494 31.5996 24.9994 32.0496 24.9994 32.5996C24.9994 33.1496 24.5494 33.5996 23.9994 33.5996Z" fill="#323232"/>
<path d="M41.5603 38.6199H6.44031C4.44031 38.6199 2.82031 36.9999 2.82031 34.9999V12.9999C2.82031 10.9999 4.44031 9.37988 6.44031 9.37988H41.5503C43.5503 9.37988 45.1703 10.9999 45.1703 12.9999V35.0099C45.1703 37.0099 43.5503 38.6299 41.5503 38.6299L41.5603 38.6199ZM6.44031 11.3799C5.55031 11.3799 4.82031 12.1099 4.82031 12.9999V35.0099C4.82031 35.8999 5.55031 36.6299 6.44031 36.6299H41.5503C42.4403 36.6299 43.1703 35.8999 43.1703 35.0099V12.9999C43.1703 12.1099 42.4403 11.3799 41.5503 11.3799H6.44031Z" fill="#323232"/>
</svg>
