<svg width="48" height="48" viewBox="0 0 48 48" fill="none" xmlns="http://www.w3.org/2000/svg">
<path d="M26.63 20.8295V20.3095C26.63 18.9495 25.73 17.9995 24.35 17.9995C22.97 17.9995 22.17 18.8395 22.17 19.9795C22.17 20.6595 22.47 21.5295 23.58 21.9695L25.95 22.8895C28.04 23.7295 30.33 24.8695 30.33 28.1595C30.33 31.0695 28.48 33.1395 25.57 33.5195V36.2695H23.1V33.4695C20.33 33.0095 18.5 31.1295 18.5 28.3595V27.7595H21.84V28.4895C21.84 29.9295 22.79 30.7695 24.42 30.7695C26.05 30.7695 27 29.8195 27 28.5095C27 27.3995 26.43 26.6595 25.31 26.1995L22.75 25.1895C20.41 24.2695 18.86 22.7395 18.86 20.2095C18.86 17.8195 20.41 15.7795 23.07 15.2895V12.5195H25.54V15.2895C28.18 15.7295 29.94 17.6295 29.94 20.4295V20.8095H26.6L26.63 20.8295Z" fill="#DF0000"/>
<path d="M24 46.25C11.73 46.25 1.75 36.27 1.75 24C1.75 11.73 11.73 1.75 24 1.75C36.27 1.75 46.25 11.73 46.25 24C46.25 36.27 36.27 46.25 24 46.25ZM24 3.75C12.83 3.75 3.75 12.83 3.75 24C3.75 35.17 12.83 44.25 24 44.25C35.17 44.25 44.25 35.17 44.25 24C44.25 12.83 35.17 3.75 24 3.75Z" fill="#323232"/>
<path d="M24.3992 5.93969C24.1892 5.93969 24.0192 6.08969 23.9792 6.28969C23.9492 6.48969 24.0692 6.68969 24.2692 6.74969C24.3392 6.76969 31.4392 9.07969 35.6792 14.1397C40.0292 19.3397 41.0992 25.4497 41.1092 25.5097C41.1392 25.7097 41.3192 25.8597 41.5192 25.8597C41.7192 25.8597 41.8992 25.7197 41.9292 25.5197C42.0692 24.7797 42.1392 23.9597 42.1392 23.0797C42.1392 13.6297 34.1792 5.92969 24.3892 5.92969L24.3992 5.93969Z" fill="#8DE2E0"/>
</svg>
