<svg width="24" height="24" viewBox="0 0 24 24" fill="none" xmlns="http://www.w3.org/2000/svg">
<path fill-rule="evenodd" clip-rule="evenodd" d="M4.99979 13.1803V15.9903C4.99979 16.7203 5.39979 17.4003 6.03979 17.7503L11.0398 20.4803C11.6398 20.8103 12.3598 20.8103 12.9598 20.4803L17.9598 17.7503C18.5998 17.4003 18.9998 16.7203 18.9998 15.9903V13.1803L12.9598 16.4803C12.3598 16.8103 11.6398 16.8103 11.0398 16.4803L4.99979 13.1803ZM11.0398 3.52027L2.60979 8.12027C1.91979 8.50027 1.91979 9.50027 2.60979 9.88027L11.0398 14.4803C11.6398 14.8103 12.3598 14.8103 12.9598 14.4803L20.9998 10.0903V16.0003C20.9998 16.5503 21.4498 17.0003 21.9998 17.0003C22.5498 17.0003 22.9998 16.5503 22.9998 16.0003V9.59027C22.9998 9.22027 22.7998 8.89027 22.4798 8.71027L12.9598 3.52027C12.3598 3.20027 11.6398 3.20027 11.0398 3.52027Z" fill="#323232"/>
</svg>
