<svg width="24" height="24" viewBox="0 0 24 24" fill="none" xmlns="http://www.w3.org/2000/svg">
<g clip-path="url(#clip0_16335_1779)">
<path d="M23.4854 15.4793C25.4064 9.13645 21.8218 2.43719 15.479 0.516122C9.13609 -1.40495 2.43683 2.17964 0.515759 8.52252C-1.40531 14.8654 2.17928 21.5647 8.52216 23.4857C14.865 25.4068 21.5643 21.8222 23.4854 15.4793Z" fill="white"/>
<mask id="mask0_16335_1779" style="mask-type:luminance" maskUnits="userSpaceOnUse" x="-1" y="-1" width="26" height="26">
<path d="M23.4854 15.4798C25.4064 9.13694 21.8218 2.43768 15.479 0.516611C9.13609 -1.40446 2.43683 2.18013 0.515759 8.52301C-1.40531 14.8659 2.17928 21.5651 8.52216 23.4862C14.865 25.4073 21.5643 21.8227 23.4854 15.4798Z" fill="white"/>
</mask>
<g mask="url(#mask0_16335_1779)">
<path d="M31.2305 13.8574H0V24.0002H31.2305V13.8574Z" fill="#007C29"/>
<path d="M31.2305 0H0V10.1428H31.2305V0Z" fill="#FF0000"/>
<path fill-rule="evenodd" clip-rule="evenodd" d="M31.2305 11.3807V12.6189H16.2595L0 21.0162V2.9834L16.2595 11.3807H31.2305Z" fill="#FED700"/>
<path fill-rule="evenodd" clip-rule="evenodd" d="M0 19.6233V4.37695L14.76 12.0001L0 19.6233Z" fill="black"/>
<path fill-rule="evenodd" clip-rule="evenodd" d="M31.2305 13.8573H16.5599L0 22.4098V21.0165L16.2595 12.6191H31.2305V13.8573Z" fill="black"/>
<path fill-rule="evenodd" clip-rule="evenodd" d="M31.2305 22.4099H0L16.5599 13.8574H31.2305V22.4099Z" fill="#007C29"/>
<path fill-rule="evenodd" clip-rule="evenodd" d="M0 1.59033H31.2305V10.1428H16.5599L0 1.59033Z" fill="#FF0000"/>
<path fill-rule="evenodd" clip-rule="evenodd" d="M31.2305 10.1428H16.5599L0 1.59033V2.9836L16.2595 11.3809H31.2305V10.1428Z" fill="black"/>
<path fill-rule="evenodd" clip-rule="evenodd" d="M4.2301 13.987V15.172C5.95456 15.172 7.35342 13.7327 7.35342 11.9565C7.35342 10.3592 6.14601 8.82617 4.47605 8.82617C3.00732 8.82617 1.82087 10.0126 1.80969 11.4786C1.80969 12.6804 2.78512 13.6558 3.98694 13.6558C4.96376 13.6558 5.86373 13.013 5.86373 11.9649C5.86373 11.8782 5.85674 11.7944 5.84416 11.7119C5.72258 12.5155 5.04621 13.129 4.2301 13.129C3.32734 13.129 2.59646 12.3785 2.59646 11.452C2.59646 10.5255 3.32873 9.77505 4.2301 9.77505C5.33409 9.77505 6.22847 10.7183 6.22847 11.881C6.22847 13.0437 5.33409 13.987 4.2301 13.987Z" fill="#FED700"/>
<path fill-rule="evenodd" clip-rule="evenodd" d="M3.2016 12.4693C3.19042 12.4582 3.17505 12.4372 3.18343 12.4218C3.21697 12.3645 3.25051 12.3086 3.28545 12.2541C3.26728 12.2094 3.2561 12.127 3.2561 12.0319C3.2561 11.8894 3.28405 11.7734 3.31759 11.7734C3.35113 11.7734 3.37908 11.8894 3.37908 12.0319C3.37908 12.0627 3.37908 12.092 3.37628 12.1186C3.39305 12.0934 3.41122 12.0669 3.42939 12.0417C3.41821 11.9956 3.41262 11.9271 3.41262 11.8489C3.41262 11.7105 3.43498 11.5973 3.46153 11.5973C3.48808 11.5973 3.51044 11.7105 3.51044 11.8489C3.51044 11.8796 3.51044 11.9076 3.50764 11.9341L3.55656 11.8698C3.54817 11.8265 3.54258 11.765 3.54258 11.6993C3.54258 11.5638 3.56494 11.4548 3.59149 11.4548C3.61804 11.4548 3.6404 11.5638 3.6404 11.6993C3.6404 11.7231 3.6404 11.7454 3.63901 11.7664C3.65857 11.7427 3.67674 11.7189 3.6963 11.6965C3.69071 11.6532 3.68931 11.5931 3.6949 11.5274C3.70469 11.3975 3.73403 11.2941 3.75919 11.2955C3.78574 11.2969 3.79832 11.4045 3.78853 11.5344C3.78714 11.5554 3.78434 11.5764 3.78294 11.5959C3.8067 11.568 3.83186 11.5414 3.85561 11.5149C3.85002 11.4743 3.85002 11.4198 3.85422 11.3583C3.8626 11.2382 3.88915 11.1431 3.91431 11.1445C3.93806 11.1459 3.95064 11.2452 3.94086 11.3639C3.93946 11.3877 3.93667 11.4101 3.93387 11.431C3.96881 11.3947 4.00374 11.3597 4.03868 11.3248C4.03309 11.2899 4.03169 11.2396 4.03589 11.1851C4.04287 11.0789 4.06523 10.9936 4.08619 10.995C4.10716 10.995 4.11973 11.083 4.11275 11.1893C4.11135 11.2144 4.10855 11.2382 4.10576 11.2605C4.13231 11.2354 4.15886 11.2102 4.18681 11.1851C4.18961 11.1487 4.19799 11.1012 4.21197 11.0495C4.24131 10.9433 4.28184 10.8623 4.3028 10.8678C4.32376 10.8734 4.31817 10.9643 4.28883 11.0705L4.27904 11.1026L4.34472 11.0467C4.34333 11.009 4.35171 10.9475 4.37128 10.879C4.40062 10.7728 4.44115 10.6918 4.46211 10.6974C4.48307 10.7029 4.47748 10.7938 4.44814 10.9C4.43975 10.9307 4.42997 10.9587 4.42158 10.9838L4.48727 10.9307C4.49286 10.893 4.50962 10.8371 4.53478 10.777C4.5767 10.675 4.62841 10.5995 4.64937 10.6079C4.67033 10.6163 4.65217 10.7057 4.60884 10.8077C4.60186 10.8245 4.59487 10.8399 4.58788 10.8539L4.64658 10.8105C4.65356 10.7742 4.67872 10.7141 4.71645 10.6498C4.77235 10.5548 4.83244 10.4863 4.852 10.4975C4.87157 10.5087 4.84082 10.5953 4.78632 10.6904C4.77794 10.7043 4.76955 10.7169 4.76257 10.7295L4.80449 10.7015C4.81707 10.668 4.84781 10.6163 4.88834 10.5632C4.95262 10.4793 5.0183 10.4207 5.03507 10.4332C5.05184 10.4458 5.01411 10.5241 4.95122 10.6065L4.98756 10.5842C5.00433 10.5632 5.02529 10.5394 5.04765 10.5171C5.12171 10.4416 5.19438 10.3927 5.20975 10.4067C5.22512 10.4221 5.17761 10.4947 5.10355 10.5702L5.07979 10.5939C5.1832 10.58 5.26984 10.587 5.27404 10.6107C5.27823 10.6359 5.19438 10.668 5.08678 10.6834C5.00992 10.6946 4.94144 10.6946 4.9079 10.6834C4.87995 10.7029 4.852 10.7211 4.82405 10.7407L4.8562 10.7351C4.9624 10.7197 5.05184 10.7267 5.05603 10.7505C5.06022 10.7756 4.97638 10.8077 4.86877 10.8231C4.8003 10.8329 4.74021 10.8343 4.70387 10.8273L4.65077 10.8678L4.6871 10.8623C4.79331 10.8469 4.88414 10.8539 4.88694 10.8776C4.89113 10.9028 4.80728 10.9349 4.69968 10.9503C4.6354 10.9601 4.5767 10.9615 4.54037 10.9545C4.51382 10.9754 4.48866 10.9964 4.46351 11.0188C4.47609 11.0146 4.49006 11.0118 4.50403 11.0076C4.61164 10.981 4.70387 10.9796 4.71086 11.0048C4.71645 11.0299 4.634 11.0705 4.52639 11.097C4.45373 11.1152 4.38944 11.1208 4.35171 11.1152C4.32656 11.1376 4.3028 11.1599 4.27765 11.1823L4.29302 11.1781C4.40062 11.1515 4.49286 11.1501 4.49984 11.1753C4.50543 11.2004 4.42298 11.241 4.31538 11.2675C4.25808 11.2815 4.20498 11.2885 4.16725 11.2885C4.12672 11.329 4.0848 11.3695 4.04567 11.4115L4.06244 11.4045C4.16725 11.3597 4.25948 11.343 4.27066 11.3667C4.28044 11.3905 4.20498 11.4464 4.10017 11.4911C4.03169 11.5205 3.96741 11.5386 3.92828 11.54C3.90452 11.5666 3.87937 11.5945 3.85561 11.6225L3.88636 11.6085C3.99955 11.5596 4.10017 11.5414 4.11135 11.568C4.12253 11.5945 4.04008 11.6546 3.92688 11.7035C3.85561 11.7343 3.78853 11.7524 3.74661 11.7552C3.72705 11.779 3.70888 11.8027 3.69071 11.8265L3.6963 11.8237C3.8095 11.7748 3.91011 11.7566 3.92129 11.7832C3.93247 11.8097 3.85002 11.8698 3.73683 11.9187C3.68093 11.9425 3.62783 11.9593 3.5873 11.9676L3.54538 12.0263C3.56494 12.0166 3.5859 12.0068 3.60826 11.997C3.72146 11.9481 3.82207 11.9299 3.83325 11.9565C3.84443 11.983 3.76198 12.0431 3.64879 12.092C3.57612 12.1228 3.50904 12.1423 3.46572 12.1451C3.44895 12.1703 3.43218 12.1968 3.41541 12.2234C3.44476 12.2052 3.4797 12.1884 3.51882 12.1717C3.63202 12.1228 3.73264 12.1046 3.74382 12.1311C3.755 12.1577 3.67255 12.2178 3.55935 12.2667C3.47411 12.303 3.39585 12.3226 3.35812 12.3184C3.32597 12.3715 3.29523 12.4246 3.26449 12.4791C3.25051 12.5015 3.22676 12.4833 3.21138 12.4693H3.2016Z" fill="#FED700"/>
<path fill-rule="evenodd" clip-rule="evenodd" d="M5.25868 12.4693C5.26986 12.4582 5.28523 12.4372 5.27684 12.4218C5.2433 12.3645 5.20976 12.3086 5.17483 12.2541C5.19299 12.2094 5.20417 12.127 5.20417 12.0319C5.20417 11.8894 5.17623 11.7734 5.14269 11.7734C5.10915 11.7734 5.0812 11.8894 5.0812 12.0319C5.0812 12.0627 5.0812 12.092 5.08399 12.1186C5.06722 12.0934 5.04906 12.0669 5.03089 12.0417C5.04207 11.9956 5.04766 11.9271 5.04766 11.8489C5.04766 11.7105 5.0253 11.5973 4.99875 11.5973C4.9722 11.5973 4.94984 11.7105 4.94984 11.8489C4.94984 11.8796 4.94984 11.9076 4.95263 11.9341L4.90372 11.8698C4.91211 11.8265 4.91769 11.765 4.91769 11.6993C4.91769 11.5638 4.89534 11.4548 4.86878 11.4548C4.84223 11.4548 4.81987 11.5638 4.81987 11.6993C4.81987 11.7231 4.81987 11.7454 4.82127 11.7664C4.80171 11.7427 4.78354 11.7189 4.76397 11.6965C4.76956 11.6532 4.77096 11.5931 4.76537 11.5274C4.75559 11.3975 4.72624 11.2941 4.70109 11.2955C4.67454 11.2969 4.66196 11.4045 4.67174 11.5344C4.67314 11.5554 4.67593 11.5764 4.67733 11.5959C4.65357 11.568 4.62842 11.5414 4.60327 11.5149C4.60886 11.4743 4.60886 11.4198 4.60466 11.3583C4.59628 11.2382 4.56973 11.1431 4.54597 11.1445C4.52221 11.1459 4.50964 11.2452 4.51942 11.3639C4.52082 11.3877 4.52361 11.4101 4.52641 11.431C4.49147 11.3947 4.45653 11.3597 4.4216 11.3248C4.42719 11.2899 4.42858 11.2396 4.42439 11.1851C4.4174 11.0789 4.39504 10.9936 4.37408 10.995C4.35312 10.995 4.34054 11.083 4.34753 11.1893C4.34893 11.2144 4.35172 11.2382 4.35452 11.2605C4.32797 11.2354 4.30141 11.2102 4.27347 11.1851C4.27067 11.1487 4.26229 11.1012 4.24831 11.0495C4.21896 10.9433 4.17844 10.8623 4.15748 10.8678C4.13651 10.8734 4.1421 10.9643 4.17145 11.0705L4.18123 11.1026L4.11555 11.0467C4.11695 11.009 4.10856 10.9475 4.089 10.879C4.05965 10.7728 4.01913 10.6918 3.99817 10.6974C3.9772 10.7029 3.98279 10.7938 4.01214 10.9C4.02052 10.9307 4.03031 10.9587 4.03869 10.9838L3.97161 10.9307C3.96602 10.893 3.94925 10.8371 3.9241 10.777C3.88078 10.675 3.83047 10.5995 3.80951 10.6079C3.78855 10.6163 3.80671 10.7057 3.85003 10.8077C3.85702 10.8245 3.86401 10.8399 3.871 10.8539L3.8123 10.8105C3.80532 10.7742 3.78016 10.7141 3.74243 10.6498C3.68653 10.5548 3.62644 10.4863 3.60688 10.4975C3.58731 10.5087 3.61806 10.5953 3.67256 10.6904C3.68094 10.7043 3.68933 10.7169 3.69631 10.7295L3.65439 10.7015C3.64181 10.668 3.61107 10.6163 3.57054 10.5632C3.50626 10.4793 3.44058 10.4207 3.42381 10.4332C3.40704 10.4458 3.44477 10.5241 3.50766 10.6065L3.47132 10.5842C3.45455 10.5632 3.43499 10.5394 3.41123 10.5171C3.33717 10.4416 3.2645 10.3927 3.24913 10.4067C3.23375 10.4221 3.28127 10.4947 3.35533 10.5702L3.37909 10.5939C3.27568 10.58 3.18904 10.587 3.18484 10.6107C3.18065 10.6359 3.2645 10.668 3.3721 10.6834C3.44896 10.6946 3.51744 10.6946 3.55098 10.6834C3.57893 10.7029 3.60688 10.7211 3.63483 10.7407L3.60268 10.7351C3.49648 10.7197 3.40704 10.7267 3.40285 10.7505C3.39865 10.7756 3.4825 10.8077 3.59011 10.8231C3.65858 10.8329 3.71867 10.8343 3.75501 10.8273L3.80811 10.8678L3.77178 10.8623C3.66417 10.8469 3.57473 10.8539 3.57194 10.8776C3.56775 10.9028 3.65159 10.9349 3.7592 10.9503C3.82348 10.9601 3.88218 10.9615 3.91851 10.9545C3.94506 10.9754 3.97022 10.9964 3.99537 11.0188C3.98279 11.0146 3.96882 11.0118 3.95484 11.0076C3.84724 10.981 3.75501 10.9796 3.74802 11.0048C3.74243 11.0299 3.82488 11.0705 3.93248 11.097C4.00515 11.1152 4.06944 11.1208 4.10717 11.1152C4.13232 11.1376 4.15608 11.1599 4.18123 11.1823L4.16586 11.1781C4.05826 11.1515 3.96602 11.1501 3.95904 11.1753C3.95345 11.2004 4.0359 11.241 4.1435 11.2675C4.2008 11.2815 4.2539 11.2885 4.29303 11.2885C4.33356 11.329 4.37548 11.3695 4.41461 11.4115L4.39784 11.4045C4.29303 11.3597 4.2008 11.343 4.18962 11.3667C4.17984 11.3905 4.2553 11.4464 4.36011 11.4911C4.42858 11.5205 4.49287 11.5386 4.532 11.54C4.55575 11.5666 4.58091 11.5945 4.60466 11.6225L4.57392 11.6085C4.46072 11.5596 4.36011 11.5414 4.34893 11.568C4.33775 11.5945 4.4202 11.6546 4.53339 11.7035C4.60466 11.7343 4.67174 11.7524 4.71367 11.7552C4.73323 11.779 4.7514 11.8027 4.76956 11.8265L4.76397 11.8237C4.65078 11.7748 4.55016 11.7566 4.53898 11.7832C4.5278 11.8097 4.61025 11.8698 4.72345 11.9187C4.77935 11.9425 4.83245 11.9593 4.87298 11.9676L4.9149 12.0263C4.89534 12.0166 4.87437 12.0068 4.85201 11.997C4.73882 11.9481 4.6382 11.9299 4.62702 11.9565C4.61584 11.983 4.69829 12.0431 4.81149 12.092C4.88416 12.1228 4.95123 12.1423 4.99456 12.1451C5.01133 12.1703 5.02809 12.1968 5.04486 12.2234C5.01552 12.2052 4.98058 12.1884 4.94145 12.1717C4.82826 12.1228 4.72764 12.1046 4.71646 12.1311C4.70528 12.1577 4.78773 12.2178 4.90093 12.2667C4.98617 12.303 5.06443 12.3226 5.10216 12.3184C5.1343 12.3715 5.16505 12.4246 5.19579 12.4791C5.20976 12.5015 5.23352 12.4833 5.24889 12.4693H5.25868Z" fill="#FED700"/>
</g>
</g>
<rect x="0.25" y="0.25" width="23.5" height="23.5" rx="11.75" stroke="#E5E3E1" stroke-width="0.5"/>
<defs>
<clipPath id="clip0_16335_1779">
<rect width="24" height="24" rx="12" fill="white"/>
</clipPath>
</defs>
</svg>
