<svg width="48" height="48" viewBox="0 0 48 48" fill="none" xmlns="http://www.w3.org/2000/svg">
<path d="M35.5805 29.5101C35.5805 30.0701 35.5405 30.6201 35.4405 31.1601C33.7105 27.0201 29.1905 24.1001 23.9005 24.1001C23.7605 24.1001 23.6205 24.1001 23.4805 24.1201V17.8301C30.1605 17.8301 35.5805 23.0601 35.5805 29.5101Z" fill="#DF0000"/>
<path d="M41.5992 38.82H40.3592V29.58C40.3592 20.56 33.0192 13.22 23.9992 13.22C14.9792 13.22 7.63922 20.57 7.63922 29.58V38.82H6.39922C4.63922 38.82 3.19922 40.55 3.19922 42.68C3.19922 44.81 4.63922 46.54 6.39922 46.54H41.5892C43.3492 46.54 44.7892 44.81 44.7892 42.68C44.7892 40.55 43.3492 38.82 41.5892 38.82H41.5992ZM9.63922 29.58C9.63922 21.66 16.0792 15.22 23.9992 15.22C31.9192 15.22 38.3592 21.66 38.3592 29.58V38.82H9.63922V29.58ZM41.5992 44.53H6.39922C5.82922 44.53 5.19922 43.77 5.19922 42.67C5.19922 41.57 5.82922 40.81 6.39922 40.81H41.5892C42.1592 40.81 42.7892 41.57 42.7892 42.67C42.7892 43.76 42.1592 44.53 41.5892 44.53H41.5992Z" fill="#323232"/>
<path d="M23.9688 10.15C24.5187 10.15 24.9688 9.69997 24.9688 9.14997V2.46997C24.9688 1.91997 24.5187 1.46997 23.9688 1.46997C23.4187 1.46997 22.9688 1.91997 22.9688 2.46997V9.15997C22.9688 9.70997 23.4187 10.16 23.9688 10.16V10.15Z" fill="#323232"/>
<path d="M10.2391 14.15C10.4391 14.35 10.6891 14.44 10.9491 14.44C11.2091 14.44 11.4591 14.34 11.6591 14.15C12.0491 13.76 12.0491 13.13 11.6591 12.74L6.92906 8.01003C6.53906 7.62003 5.90906 7.62003 5.51906 8.01003C5.12906 8.40003 5.12906 9.03003 5.51906 9.42003L10.2491 14.15H10.2391Z" fill="#323232"/>
<path d="M36.9886 14.44C37.2486 14.44 37.4986 14.34 37.6986 14.15L42.4286 9.42003C42.8186 9.03003 42.8186 8.40003 42.4286 8.01003C42.0386 7.62003 41.4086 7.62003 41.0186 8.01003L36.2886 12.74C35.8986 13.13 35.8986 13.76 36.2886 14.15C36.4886 14.35 36.7386 14.44 36.9986 14.44H36.9886Z" fill="#323232"/>
</svg>
