<svg width="48" height="48" viewBox="0 0 48 48" fill="none" xmlns="http://www.w3.org/2000/svg">
<path d="M40.7 34.2002H3V39.2102H40.7V34.2002Z" fill="#8DE2E0"/>
<path d="M25.9296 16.1201H17.8496C17.2996 16.1201 16.8496 15.6701 16.8496 15.1201C16.8496 14.5701 17.2996 14.1201 17.8496 14.1201H25.9296C26.4796 14.1201 26.9296 14.5701 26.9296 15.1201C26.9296 15.6701 26.4796 16.1201 25.9296 16.1201Z" fill="#DF0000"/>
<path d="M45.9809 26.38L42.8309 21.14C42.5609 20.69 41.9809 20.53 41.5109 20.77L36.4909 23.37C35.9909 22.83 35.4709 22.31 34.9209 21.84C31.3109 18.73 26.6809 17.01 21.8909 17.01C17.4609 17.01 13.1609 18.5 9.67086 21.2C8.48086 19.66 5.89086 16 5.89086 13.18C5.89086 10.15 8.37086 9.82004 8.56086 9.79004H27.2309C27.7809 9.79004 28.2309 9.34004 28.2309 8.79004C28.2309 8.24004 27.7809 7.79004 27.2309 7.79004H8.49086C6.90086 7.93004 3.90086 9.23004 3.90086 13.18C3.90086 16.67 6.83086 20.81 8.14086 22.49C4.15086 26.26 1.88086 31.5 1.88086 37.03C1.88086 37.81 1.92086 38.56 2.01086 39.34C2.07086 39.84 2.50086 40.22 3.00086 40.22H40.7809C41.2909 40.22 41.7109 39.84 41.7709 39.34C41.8609 38.57 41.9109 37.81 41.9109 37.03C41.9109 35.27 41.6709 33.55 41.2309 31.91L45.8109 27.63C46.1509 27.31 46.2309 26.79 45.9809 26.38ZM31.1809 21.59H12.6109C15.4009 19.91 18.6009 19 21.8909 19C25.1809 19 28.3909 19.91 31.1809 21.59ZM39.8709 38.21H3.91086C3.88086 37.81 3.87086 37.42 3.87086 37.02C3.87086 31.87 6.07086 27 9.91086 23.59H33.8809C34.4609 24.1 35.0109 24.65 35.5309 25.26C37.2009 27.17 38.4209 29.39 39.1609 31.87C39.6609 33.51 39.9109 35.24 39.9109 37.02C39.9109 37.42 39.9009 37.82 39.8709 38.21ZM40.5409 29.81C39.8609 28.04 38.9509 26.41 37.8109 24.94L41.6009 22.98L43.8509 26.72L40.5409 29.81Z" fill="#323232"/>
</svg>
