<svg width="48" height="48" viewBox="0 0 48 48" fill="none" xmlns="http://www.w3.org/2000/svg">
<path d="M19.6094 11.5499V10.0799C19.6094 7.64994 21.5794 5.68994 23.9994 5.68994C26.4194 5.68994 28.3894 7.65994 28.3894 10.0799V11.5199" fill="#8DE2E0"/>
<path d="M19.6094 12.5499C19.0594 12.5499 18.6094 12.0999 18.6094 11.5499V10.0799C18.6094 7.10994 21.0294 4.68994 23.9994 4.68994C26.9694 4.68994 29.3894 7.10994 29.3894 10.0799V11.5199C29.3894 12.0699 28.9394 12.5199 28.3894 12.5199C27.8394 12.5199 27.3894 12.0699 27.3894 11.5199V10.0799C27.3894 8.20994 25.8694 6.68994 23.9994 6.68994C22.1294 6.68994 20.6094 8.20994 20.6094 10.0799V11.5499C20.6094 12.0999 20.1594 12.5499 19.6094 12.5499Z" fill="#323232"/>
<path d="M31.3095 40.1401H16.6895V45.2301H31.3095V40.1401Z" fill="#DF0000"/>
<path d="M31.3095 30.79H16.6895V35.49H31.3095V30.79Z" fill="#DF0000"/>
<path d="M24 6.69998C24.55 6.69998 25 6.24998 25 5.69998V2.72998C25 2.17998 24.55 1.72998 24 1.72998C23.45 1.72998 23 2.17998 23 2.72998V5.69998C23 6.24998 23.45 6.69998 24 6.69998Z" fill="#323232"/>
<path d="M34.2491 44.2198H32.3191V21.3298H34.2591C34.8091 21.3298 35.2591 20.8798 35.2591 20.3298C35.2591 19.7798 34.8091 19.3298 34.2591 19.3298H29.3991V12.5498H30.7591C31.3091 12.5498 31.7591 12.0998 31.7591 11.5498C31.7591 10.9998 31.3091 10.5498 30.7591 10.5498H28.4091H19.6391H17.2891C16.7391 10.5498 16.2891 10.9998 16.2891 11.5498C16.2891 12.0998 16.7391 12.5498 17.2891 12.5498H18.6491V19.3298H13.7891C13.2391 19.3298 12.7891 19.7798 12.7891 20.3298C12.7891 20.8798 13.2391 21.3298 13.7891 21.3298H15.7291V44.2198H13.7991C13.2491 44.2198 12.7991 44.6698 12.7991 45.2198C12.7991 45.7698 13.2491 46.2198 13.7991 46.2198H16.7291H31.3491H34.2791C34.8291 46.2198 35.2791 45.7698 35.2791 45.2198C35.2791 44.6698 34.8291 44.2198 34.2791 44.2198H34.2491ZM20.6091 12.5498H27.3891V19.3298H20.6091V12.5498ZM17.6891 21.3398H30.3091V44.2298H17.6891V21.3398Z" fill="#323232"/>
</svg>
