<svg width="24" height="24" viewBox="0 0 24 24" fill="none" xmlns="http://www.w3.org/2000/svg">
<path fill-rule="evenodd" clip-rule="evenodd" d="M16.1909 12.2273C16.133 12.397 15.9636 12.7485 15.8879 12.9151C15.7048 13.3206 15.4588 13.6939 15.1576 14.0212C14.8097 14.3594 14.4242 14.6576 14.0091 14.9091L12.7754 15.7424C12.1364 16.1727 11.4 16.6091 10.9788 17.2939C10.8921 17.4276 10.8194 17.5697 10.7606 17.7182C10.6582 17.997 10.5948 18.2888 10.5727 18.5848C10.5418 19.0812 10.637 19.5773 10.8485 20.0273C10.923 20.1709 11.0079 20.3088 11.103 20.4394C11.1818 20.5582 11.2709 20.67 11.3697 20.7727C11.5551 20.9512 11.7582 21.1106 11.9758 21.2485C12.2885 21.4803 12.6561 21.6276 13.0424 21.6761V21.6573L12.7636 21.4818C12.5079 21.3127 12.2682 21.1203 12.0485 20.9061C11.6358 20.4945 11.3851 19.9479 11.3424 19.3667C11.3194 19.1936 11.3194 19.0185 11.3424 18.8454C11.3842 18.6336 11.4579 18.4291 11.5606 18.2394C11.9215 17.567 12.57 17.0973 13.3212 16.9636C13.4388 16.947 13.5582 16.947 13.6758 16.9636C13.8991 16.9979 14.1139 17.0739 14.3091 17.1876L14.5815 17.3606H14.6215L14.7879 17.2757C14.9636 17.1751 15.1291 17.0576 15.2818 16.9242C15.7188 16.543 16.0018 16.0145 16.0758 15.4394C16.1082 15.2615 16.1285 15.0812 16.1364 14.9V14.4791C16.1364 14.2606 16.1545 14.0545 16.1545 13.6879C16.1545 13.3212 16.1788 12.9603 16.1939 12.5973V12.3636C16.1939 12.3212 16.2121 12.2754 16.1939 12.2273H16.1909Z" fill="#ED1C24"/>
<path fill-rule="evenodd" clip-rule="evenodd" d="M16.133 10.4091C16.1354 10.4227 16.1373 10.4364 16.1385 10.4503C16.1397 10.4367 16.1412 10.4227 16.1424 10.4091H16.133ZM16.0667 10.8364C16.0085 11.0942 15.9173 11.3433 15.797 11.5788C15.7336 11.7091 15.6545 11.8303 15.5788 11.9545C15.3076 12.3879 14.9864 12.7879 14.6215 13.1454L14.4121 13.3485L13.7182 13.8757L12.6424 14.6909C11.6151 15.4606 10.4815 16.3851 10.0151 17.597C9.90969 17.917 9.8706 18.2551 9.89999 18.5909C9.95818 19.577 10.4385 20.49 11.2182 21.097C11.5385 21.3685 11.9167 21.5624 12.3242 21.6636C12.3242 21.6573 12.5273 21.6939 12.5273 21.6939C12.4033 21.6506 12.2836 21.5961 12.1697 21.5303C11.9421 21.3773 11.7236 21.2112 11.5151 21.0333C11.3036 20.8557 11.1151 20.6521 10.9545 20.4273C10.8282 20.2436 10.7206 20.0479 10.6333 19.8424C10.4873 19.5185 10.3973 19.1724 10.3667 18.8182C10.3421 18.4303 10.4021 18.0412 10.5424 17.6788C10.62 17.4657 10.7218 17.2624 10.8454 17.0727C11.333 16.4224 11.9409 15.8721 12.6361 15.4515C12.9424 15.2545 13.2394 15.0333 13.5667 14.8454C13.8939 14.6576 14.1727 14.4394 14.4758 14.2212C14.6673 14.0797 14.8467 13.9227 15.0118 13.7515C15.1133 13.643 15.2054 13.5267 15.2876 13.4027C15.3791 13.2667 15.4754 13.1397 15.5636 13.0003C15.837 12.6124 16.0224 12.1697 16.1061 11.703C16.1294 11.453 16.1385 11.2024 16.133 10.9515V10.5791C16.1403 10.5364 16.1421 10.493 16.1385 10.4503C16.1245 10.5806 16.1009 10.71 16.0667 10.8364Z" fill="#B49142"/>
<path fill-rule="evenodd" clip-rule="evenodd" d="M15.9151 2.43029C15.9097 2.51423 15.9197 2.59878 15.9451 2.67878C15.9667 2.7909 15.9851 2.90302 16.003 3.01211C16.0539 3.34787 16.0751 3.68757 16.0667 4.02726C16.0279 5.10575 15.7873 6.16757 15.3579 7.15757C15.2458 7.42454 15.1185 7.68454 14.9761 7.93635C14.7848 8.25151 14.5939 8.57575 14.3848 8.87878C14.0233 9.39484 13.6294 9.88757 13.2061 10.3545C12.8545 10.7482 12.4576 11.0939 12.0758 11.4545C11.9455 11.5667 11.8151 11.6788 11.6879 11.7939C11.403 12.0333 11.1424 12.2667 10.8394 12.4936C10.6758 12.633 10.5091 12.7694 10.3394 12.9088C9.57363 13.5436 8.94454 14.327 8.4909 15.2124C8.23939 15.7594 8.08333 16.3454 8.0303 16.9454C7.88454 18.2103 8.31909 19.4739 9.21212 20.3818C9.32848 20.5024 9.45394 20.6136 9.58787 20.7151C10.3051 21.2485 11.1512 21.5818 12.0394 21.6818C11.9636 21.6654 11.8909 21.6364 11.8242 21.597C11.5479 21.4797 11.287 21.3279 11.0485 21.1454C10.2861 20.5567 9.81818 19.6651 9.76666 18.703C9.74696 18.5067 9.74696 18.3085 9.76666 18.1121C9.79333 17.9006 9.8409 17.6927 9.90909 17.4909C10.123 16.9054 10.4694 16.3779 10.9212 15.9485C11.0636 15.7912 11.2209 15.6242 11.3667 15.4882C11.5124 15.3518 11.6636 15.2124 11.8151 15.0788C12.0515 14.8664 12.3 14.6818 12.5485 14.4939C12.903 14.2061 13.2664 13.8788 13.6061 13.6179C13.9455 13.3576 14.2848 13.0967 14.603 12.7936C14.7609 12.6394 14.9151 12.4757 15.0636 12.3091C15.2555 12.0697 15.4182 11.8082 15.5485 11.5303C15.9745 10.8127 16.2139 10.0003 16.2455 9.16666V8.12726C16.2455 7.83635 16.2212 3.18484 16.2212 2.71211C16.2212 2.61848 16.2364 2.42423 16.197 2.36666C16.1573 2.30908 16.0909 2.30908 16.0242 2.30908C15.9727 2.33635 15.9151 2.36666 15.9151 2.43029Z" fill="#254AA5"/>
</svg>
