<svg width="24" height="24" viewBox="0 0 24 24" fill="none" xmlns="http://www.w3.org/2000/svg">
<path fill-rule="evenodd" clip-rule="evenodd" d="M11.9968 2.04004C9.28187 2.04004 8.94139 2.05155 7.87516 2.1002C6.81107 2.14873 6.0844 2.31774 5.44849 2.56488C4.79115 2.82032 4.23361 3.16214 3.67786 3.7179C3.12206 4.27369 2.78028 4.83119 2.5248 5.48853C2.27766 6.12444 2.10869 6.85111 2.06012 7.9152C2.01147 8.98147 2 9.32186 2 12.0369C2 14.7519 2.01147 15.0923 2.06012 16.1586C2.10869 17.2226 2.27766 17.9493 2.5248 18.5852C2.78028 19.2425 3.12206 19.8001 3.67786 20.3558C4.23361 20.9116 4.79115 21.2534 5.44849 21.5089C6.0844 21.756 6.81107 21.925 7.87516 21.9736C8.94139 22.0222 9.28187 22.0337 11.9968 22.0337C14.7118 22.0337 15.0522 22.0222 16.1185 21.9736C17.1826 21.925 17.9092 21.756 18.5452 21.5089C19.2025 21.2534 19.76 20.9116 20.3158 20.3558C20.8716 19.8001 21.2134 19.2426 21.4688 18.5852C21.716 17.9493 21.885 17.2226 21.9335 16.1586C21.9822 15.0923 21.9937 14.7519 21.9937 12.0369C21.9937 9.3219 21.9822 8.98147 21.9335 7.9152C21.885 6.85111 21.716 6.12444 21.4688 5.48853C21.2134 4.83119 20.8716 4.27369 20.3158 3.7179C19.76 3.16214 19.2025 2.82032 18.5452 2.56488C17.9092 2.31774 17.1826 2.14873 16.1185 2.1002C15.0522 2.05155 14.7118 2.04004 11.9968 2.04004ZM11.9968 3.84127C14.6661 3.84127 14.9823 3.85143 16.0364 3.89952C17.0111 3.94401 17.5404 4.10686 17.8927 4.24377C18.3593 4.42512 18.6923 4.64175 19.0421 4.99155C19.3919 5.34139 19.6086 5.6744 19.79 6.14103C19.9268 6.49329 20.0897 7.02262 20.1342 7.9973C20.1822 9.05143 20.1924 9.36762 20.1924 12.0369C20.1924 14.7061 20.1822 15.0223 20.1342 16.0764C20.0897 17.0512 19.9268 17.5805 19.79 17.9327C19.6086 18.3993 19.3919 18.7324 19.0421 19.0822C18.6923 19.432 18.3593 19.6486 17.8927 19.83C17.5404 19.9669 17.0111 20.1298 16.0364 20.1742C14.9824 20.2223 14.6663 20.2325 11.9968 20.2325C9.32734 20.2325 9.01123 20.2223 7.95726 20.1742C6.98258 20.1298 6.45321 19.9669 6.10095 19.83C5.63437 19.6486 5.30131 19.432 4.95151 19.0822C4.60171 18.7324 4.38504 18.3993 4.20369 17.9327C4.06683 17.5805 3.90397 17.0511 3.85948 16.0765C3.81139 15.0223 3.80123 14.7061 3.80123 12.0369C3.80123 9.36762 3.81139 9.05143 3.85948 7.9973C3.90397 7.02262 4.06683 6.49329 4.20369 6.14103C4.38504 5.6744 4.60171 5.34139 4.95151 4.99159C5.30131 4.64175 5.63437 4.42512 6.10095 4.24377C6.45321 4.10686 6.98258 3.94401 7.95722 3.89952C9.01139 3.85143 9.32754 3.84127 11.9968 3.84127ZM11.9968 15.3692C10.1565 15.3692 8.66452 13.8772 8.66452 12.0369C8.66452 10.1965 10.1565 8.7046 11.9968 8.7046C13.8372 8.7046 15.3291 10.1965 15.3291 12.0369C15.3291 13.8772 13.8372 15.3692 11.9968 15.3692ZM11.9968 6.90337C9.16167 6.90337 6.86329 9.20171 6.86329 12.0369C6.86329 14.8721 9.16167 17.1704 11.9968 17.1704C14.832 17.1704 17.1303 14.8721 17.1303 12.0369C17.1303 9.20171 14.832 6.90337 11.9968 6.90337ZM17.3332 7.90015C17.9957 7.90015 18.5328 7.36309 18.5328 6.70055C18.5328 6.03801 17.9957 5.50094 17.3332 5.50094C16.6706 5.50094 16.1335 6.03801 16.1335 6.70055C16.1335 7.36309 16.6706 7.90015 17.3332 7.90015Z" fill="#323232"/>
</svg>
