<svg width="24" height="24" viewBox="0 0 24 24" fill="none" xmlns="http://www.w3.org/2000/svg">
<path fill-rule="evenodd" clip-rule="evenodd" d="M3.99714 12.0733L4.0135 11.913L4.04446 11.6913C4.0639 11.5662 4.08949 11.4208 4.12226 11.2587C4.2503 10.6252 4.44193 9.99322 4.70589 9.41282C5.4107 7.86305 6.45732 7 8.00053 7C8.99314 7 9.76492 7.41807 10.38 8.14523C10.6047 8.41091 10.7908 8.69909 10.938 8.98633C10.9892 9.08623 11.0279 9.16982 11.0545 9.23186L11.0918 9.32561C11.2722 9.84758 11.8417 10.1244 12.3636 9.94394C12.7836 9.79875 13.0448 9.40181 13.037 8.98037C13.0861 8.92672 13.1302 8.86683 13.1679 8.80104C13.3008 8.56898 13.4567 8.34311 13.6352 8.13368C13.9934 7.71335 13.9431 7.08219 13.5228 6.72394C13.1025 6.36569 12.4713 6.41601 12.113 6.83634C12.0755 6.88034 12.0388 6.92472 12.0028 6.96944C11.9716 6.93087 11.9397 6.89224 11.907 6.85361C10.9367 5.7065 9.63245 5 8.00053 5C5.56619 5 3.88528 6.38608 2.88532 8.58486C2.5526 9.31645 2.31802 10.0901 2.16191 10.8624L2.09225 11.2364L2.04305 11.5565C2.0232 11.7021 2.01021 11.8251 2.00286 11.9221C1.96111 12.4728 2.37369 12.9531 2.92439 12.9948C3.4751 13.0366 3.95538 12.624 3.99714 12.0733ZM13.5 14C13.5 14.8284 12.8284 15.5 12 15.5C11.1716 15.5 10.5 14.8284 10.5 14C10.5 13.1716 11.1716 12.5 12 12.5C12.8284 12.5 13.5 13.1716 13.5 14ZM5 16C5 17.1046 4.10457 18 3 18C1.89543 18 1 17.1046 1 16C1 14.8954 1.89543 14 3 14C4.10457 14 5 14.8954 5 16ZM21 18C22.1046 18 23 17.1046 23 16C23 14.8954 22.1046 14 21 14C19.8954 14 19 14.8954 19 16C19 17.1046 19.8954 18 21 18ZM16.0185 7.00002C16.1607 7.00049 16.2982 7.00826 16.4311 7.02307C16.98 7.08426 17.4745 6.6889 17.5357 6.14001C17.5969 5.59113 17.2015 5.09657 16.6527 5.03538C16.4479 5.01256 16.2387 5.00074 16.022 5.00003C15.8074 5 15.6104 5.01066 15.4149 5.03259C14.8661 5.09415 14.471 5.58899 14.5326 6.13783C14.5942 6.68667 15.089 7.08169 15.6379 7.02012C15.7581 7.00664 15.8805 7.00001 16.0185 7.00002ZM18.9389 8.73318C18.7886 8.49026 18.6254 8.2702 18.4493 8.07512C18.0793 7.66513 18.1117 7.03279 18.5217 6.66276C18.9317 6.29272 19.564 6.32512 19.934 6.73511C20.1934 7.02252 20.4281 7.33884 20.6396 7.68075C20.9303 8.15039 20.7851 8.7667 20.3155 9.05732C19.8459 9.34794 19.2295 9.20281 18.9389 8.73318ZM20.0082 12.0733L19.9907 11.9028C19.9698 11.7329 19.9325 11.4962 19.8736 11.2121C19.7615 10.6713 20.109 10.1421 20.6498 10.03C21.1906 9.9179 21.7199 10.2654 21.832 10.8062L21.9069 11.1992C21.9597 11.5043 21.9896 11.7512 22.0025 11.9221C22.0443 12.4728 21.6317 12.9531 21.081 12.9948C20.5303 13.0366 20.05 12.624 20.0082 12.0733Z" fill="#323232"/>
</svg>
