<svg width="48" height="48" viewBox="0 0 48 48" fill="none" xmlns="http://www.w3.org/2000/svg">
<path d="M20.1596 14.8799L14.3496 25.2199L17.2496 26.9199L20.1596 25.2199L23.0696 26.9199L26.1496 25.2599L20.1596 14.8799Z" fill="#8DE2E0"/>
<path d="M46.0602 44.7601C46.0602 44.5801 46.0402 44.4101 45.9402 44.2401L34.2002 23.9101C33.8002 23.2101 33.0802 22.8001 32.2802 22.8001C31.4802 22.8001 30.7602 23.2201 30.3602 23.9101L28.4502 27.2301L21.1602 14.6101V11.9001L27.7902 8.0701C28.1002 7.8901 28.2902 7.5601 28.2902 7.2001C28.2902 6.8401 28.1002 6.5101 27.7902 6.3301L20.6702 2.2201C20.6702 2.2201 20.6102 2.2001 20.5802 2.1901C20.5502 2.1701 20.5102 2.1701 20.4702 2.1501C20.3802 2.1201 20.2902 2.1001 20.2002 2.1001C20.1802 2.1001 20.1702 2.1001 20.1502 2.1001C20.1202 2.1001 20.0902 2.1201 20.0602 2.1201C19.9802 2.1201 19.9102 2.1401 19.8302 2.1701C19.7702 2.1901 19.7102 2.2201 19.6502 2.2601C19.6002 2.2901 19.5602 2.3101 19.5202 2.3501C19.4502 2.4101 19.4002 2.4801 19.3402 2.5501C19.3302 2.5701 19.3002 2.5801 19.2902 2.6001C19.2902 2.6101 19.2902 2.6201 19.2802 2.6301C19.2302 2.7201 19.2002 2.8101 19.1802 2.9101C19.1802 2.9401 19.1702 2.9701 19.1602 3.0001C19.1602 3.0301 19.1402 3.0601 19.1402 3.1001V14.6101L2.05016 44.2501C1.96016 44.4101 1.93016 44.5901 1.93016 44.7701C1.93016 44.8001 1.91016 44.8201 1.91016 44.8501C1.91016 45.4001 2.36016 45.8501 2.91016 45.8501H45.0702C45.6202 45.8501 46.0702 45.4001 46.0702 44.8501C46.0702 44.8201 46.0602 44.7901 46.0502 44.7701L46.0602 44.7601ZM32.0902 24.9201C32.2002 24.7401 32.3702 24.7401 32.4702 24.9201L43.4002 43.8501H38.0302L29.5902 29.2301L32.0802 24.9101L32.0902 24.9201ZM14.5902 26.5201L16.7502 27.7801C17.0602 27.9601 17.4502 27.9601 17.7602 27.7801L20.1602 26.3801L22.5602 27.7801C22.7202 27.8701 22.8902 27.9201 23.0602 27.9201C23.2302 27.9201 23.4102 27.8701 23.5602 27.7801L25.7202 26.5201L35.7202 43.8401H4.59016L14.5902 26.5201ZM20.1602 16.8801L24.7302 24.7901L23.0702 25.7601L20.6702 24.3601C20.3602 24.1801 19.9702 24.1801 19.6602 24.3601L17.2602 25.7601L15.6002 24.7901L20.1702 16.8801H20.1602ZM21.1602 9.5901V4.8201L25.2902 7.2001L21.1602 9.5801V9.5901Z" fill="#323232"/>
</svg>
