<svg width="48" height="48" viewBox="0 0 48 48" fill="none" xmlns="http://www.w3.org/2000/svg">
<path d="M24 46.25C11.73 46.25 1.75 36.27 1.75 24C1.75 11.73 11.73 1.75 24 1.75C36.27 1.75 46.25 11.73 46.25 24C46.25 36.27 36.27 46.25 24 46.25ZM24 3.75C12.83 3.75 3.75 12.83 3.75 24C3.75 35.17 12.83 44.25 24 44.25C35.17 44.25 44.25 35.17 44.25 24C44.25 12.83 35.17 3.75 24 3.75Z" fill="#323232"/>
<path d="M39.2208 23H35.0508C34.5708 17.68 30.3308 13.44 25.0108 12.96V8.79004C25.0108 8.24004 24.5608 7.79004 24.0108 7.79004C23.4608 7.79004 23.0108 8.24004 23.0108 8.79004V12.96C17.6908 13.44 13.4508 17.68 12.9708 23H8.80078C8.25078 23 7.80078 23.45 7.80078 24C7.80078 24.55 8.25078 25 8.80078 25H12.9708C13.4508 30.32 17.6908 34.56 23.0108 35.04V39.21C23.0108 39.76 23.4608 40.21 24.0108 40.21C24.5608 40.21 25.0108 39.76 25.0108 39.21V35.04C30.3308 34.56 34.5708 30.32 35.0508 25H39.2208C39.7708 25 40.2208 24.55 40.2208 24C40.2208 23.45 39.7708 23 39.2208 23ZM25.0008 33.04V28.47C25.0008 27.92 24.5508 27.47 24.0008 27.47C23.4508 27.47 23.0008 27.92 23.0008 28.47V33.04C18.7808 32.58 15.4308 29.22 14.9608 25H20.5208C21.0708 25 21.5208 24.55 21.5208 24C21.5208 23.45 21.0708 23 20.5208 23H14.9608C15.4208 18.78 18.7808 15.43 23.0008 14.96V19.15C23.0008 19.7 23.4508 20.15 24.0008 20.15C24.5508 20.15 25.0008 19.7 25.0008 19.15V14.96C29.2208 15.42 32.5708 18.78 33.0408 23H27.5508C27.0008 23 26.5508 23.45 26.5508 24C26.5508 24.55 27.0008 25 27.5508 25H33.0408C32.5808 29.22 29.2208 32.57 25.0008 33.04Z" fill="#DF0000"/>
</svg>
