<svg width="48" height="48" viewBox="0 0 48 48" fill="none" xmlns="http://www.w3.org/2000/svg">
<path d="M24.0009 46.1199C11.8009 46.1199 1.88086 36.1899 1.88086 23.9999C1.88086 11.8099 11.8009 1.87988 24.0009 1.87988C36.2009 1.87988 46.1209 11.8099 46.1209 23.9999C46.1209 36.1899 36.1909 46.1199 24.0009 46.1199ZM24.0009 3.87988C12.9009 3.87988 3.88086 12.8999 3.88086 23.9999C3.88086 35.0999 12.9109 44.1199 24.0009 44.1199C35.0909 44.1199 44.1209 35.0899 44.1209 23.9999C44.1209 12.9099 35.1009 3.87988 24.0009 3.87988Z" fill="#323232"/>
<path d="M24.3992 5.94018C24.1892 5.94018 24.0192 6.09018 23.9792 6.29018C23.9492 6.49018 24.0692 6.69018 24.2692 6.75018C24.3392 6.77018 31.4392 9.08018 35.6792 14.1402C40.0292 19.3402 41.0992 25.4502 41.1092 25.5102C41.1392 25.7102 41.3192 25.8602 41.5192 25.8602C41.7192 25.8602 41.8992 25.7202 41.9292 25.5202C42.0692 24.7802 42.1392 23.9602 42.1392 23.0802C42.1392 13.6302 34.1792 5.93018 24.3892 5.93018L24.3992 5.94018Z" fill="#8DE2E0"/>
<path d="M26.1199 24.0302L32.6999 17.4502C33.2899 16.8602 33.2899 15.9102 32.6999 15.3302C32.1099 14.7502 31.1599 14.7402 30.5799 15.3302L23.9999 21.9102L17.4199 15.3302C16.8399 14.7402 15.8799 14.7402 15.2999 15.3302C14.7199 15.9202 14.7099 16.8702 15.2999 17.4502L21.8799 24.0302L15.2999 30.6102C14.7099 31.2002 14.7099 32.1502 15.2999 32.7302C15.5899 33.0202 15.9799 33.1702 16.3599 33.1702C16.7399 33.1702 17.1299 33.0202 17.4199 32.7302L23.9999 26.1502L30.5799 32.7302C30.8699 33.0202 31.2599 33.1702 31.6399 33.1702C32.0199 33.1702 32.4099 33.0202 32.6999 32.7302C33.2899 32.1402 33.2899 31.1902 32.6999 30.6102L26.1199 24.0302Z" fill="#DF0000"/>
</svg>
