<svg width="24" height="24" viewBox="0 0 24 24" fill="none" xmlns="http://www.w3.org/2000/svg">
<path fill-rule="evenodd" clip-rule="evenodd" d="M14.8088 17.6438C16.7351 19.4656 19.039 21.0107 21.7766 21.9599C21.7766 21.9599 18.1062 22.2632 15.8918 21.2015C13.6774 20.1398 11.372 18.3501 9.94631 18.2288C8.52061 18.1074 7.68702 18.0286 7.30724 17.6438H14.8088ZM12.8872 15.6006C12.8872 15.6006 17.1962 15.6732 18.091 17.8118C17.4389 17.5691 14.8088 17.6438 14.8088 17.6438C14.0547 16.9023 12.8872 15.6006 12.8872 15.6006ZM6.06354 2C6.06354 2 7.808 9.5594 12.8872 15.6006C12.8872 15.6006 6.99189 15.4133 4.92746 11.4111C3.03012 7.73316 4.36482 3.97172 6.06354 2Z" fill="#D92B32"/>
</svg>
