<svg width="48" height="48" viewBox="0 0 48 48" fill="none" xmlns="http://www.w3.org/2000/svg">
<path d="M34.3803 36.9095C33.7503 36.9095 33.1203 36.6395 32.5403 36.0995C32.3703 35.9395 32.2103 35.7895 32.0403 35.6395C31.0003 34.6995 29.8303 33.6395 29.4703 31.8795C29.4103 31.8695 29.3003 31.8795 29.1603 31.9395C29.0303 31.9795 28.8703 32.0695 28.6803 32.1795C28.5703 32.2395 28.4503 32.3095 28.3303 32.3695C27.9603 32.5595 27.5103 32.4995 27.2003 32.2195L26.6103 31.6795C26.1903 31.2995 25.7803 30.9195 25.3603 30.5495C23.8303 29.2395 22.2103 28.9295 20.5503 29.6395C19.2603 30.1895 17.9903 30.9195 16.7603 31.6295L16.0803 32.0195C15.4603 32.3795 14.8403 32.7595 14.2303 33.1395C13.4403 33.6295 12.6303 34.1395 11.7903 34.5995C11.3803 34.8195 10.9503 34.9495 10.5903 35.0395C9.98033 35.1895 9.35033 35.0595 8.86033 34.6795C8.39033 34.3195 8.11033 33.7695 8.10033 33.1795C8.09033 32.5895 7.75033 32.0795 7.37033 31.4895C7.28033 31.3495 7.18033 31.2095 7.09033 31.0595C5.72033 28.8695 4.81033 26.9895 4.23033 25.1395C4.06033 24.6095 4.36033 24.0495 4.88033 23.8895C5.41033 23.7195 5.97033 24.0195 6.13033 24.5395C6.66033 26.2195 7.50033 27.9595 8.78033 29.9995C8.86033 30.1295 8.95033 30.2595 9.03033 30.3895C9.52033 31.1295 10.0703 31.9695 10.0903 33.1395C10.4403 33.0095 10.6603 32.9295 10.8303 32.8395C11.6203 32.4095 12.4103 31.9195 13.1703 31.4395C13.8003 31.0395 14.4403 30.6495 15.0803 30.2795L15.7603 29.8895C17.0403 29.1495 18.3603 28.3795 19.7703 27.7895C22.1503 26.7795 24.5403 27.2095 26.6603 29.0195C27.1003 29.3995 27.5303 29.7895 27.9703 30.1895L28.0303 30.2395C28.1903 30.1595 28.3603 30.0795 28.5403 30.0195C29.2803 29.7795 29.9903 29.8195 30.5403 30.1395C31.0003 30.4095 31.3103 30.8695 31.4203 31.4195C31.6503 32.5695 32.4503 33.2995 33.3803 34.1395C33.5603 34.2995 33.7403 34.4595 33.9103 34.6295C34.3003 34.9995 34.4503 34.9695 34.8103 34.6895C36.0103 33.7095 37.4003 33.6895 38.6203 34.6195C38.6203 34.6195 38.6703 34.6195 38.7303 34.6195C38.7703 34.6195 38.8103 34.6195 38.8503 34.6195C39.2503 34.5595 39.6603 34.4495 40.0103 34.3595L41.5903 30.8095C41.8103 30.3095 42.0503 29.8095 42.2803 29.3095C42.8003 28.1995 43.3003 27.1395 43.6703 26.0495C44.4003 23.8895 44.0203 21.9295 42.5403 20.2395C42.3003 19.9695 42.0803 19.6895 41.8503 19.3995C41.3903 18.8195 40.9503 18.2695 40.4503 17.8995C37.5503 15.7695 35.8503 12.8695 35.2503 9.00952C35.2503 8.95952 35.2303 8.91952 35.2303 8.86952C35.0703 9.74952 34.8903 10.6495 34.6703 11.5395C34.3103 12.9595 33.3503 13.8095 32.1003 13.8395C29.7203 13.8695 27.6303 13.3095 25.9203 12.1495C24.7103 11.3295 24.3003 9.75952 24.9303 8.40952C25.0003 8.24952 25.0803 8.09952 25.1503 7.93952C24.2303 7.93952 23.3603 7.93952 22.4903 7.92952C21.6603 7.90952 21.5903 8.10952 21.5203 8.57952C21.4303 9.10952 21.2103 9.55952 21.0103 9.95952L20.9103 10.1595C20.6203 10.7595 20.1203 11.2095 19.4803 11.4195C18.8503 11.6295 18.1803 11.5895 17.5903 11.2895C17.2403 11.1095 16.8903 10.9095 16.4903 10.6695C16.1803 11.1295 15.5503 11.2495 15.1003 10.9395C14.6403 10.6295 14.5203 10.0095 14.8303 9.55952C15.4203 8.68952 16.5903 8.41952 17.5003 8.94952C17.8703 9.16952 18.1803 9.34952 18.5003 9.50952C18.6503 9.58952 18.7803 9.55952 18.8503 9.52952C18.9203 9.50952 19.0403 9.44952 19.1103 9.29952L19.2203 9.07952C19.3703 8.77952 19.5103 8.48952 19.5503 8.25952C19.7303 7.16952 20.3803 5.87952 22.5503 5.92952C23.4503 5.94952 24.3503 5.94952 25.3203 5.93952H26.7003C27.0403 5.93952 27.3503 6.10952 27.5403 6.38952C27.7203 6.66952 27.7503 7.02952 27.6103 7.33952L27.3203 7.99952C27.1203 8.45952 26.9403 8.86952 26.7503 9.26952C26.5403 9.70952 26.6703 10.2395 27.0503 10.4995C28.4303 11.4395 30.0803 11.8995 32.0703 11.8395C32.3803 11.8395 32.6003 11.5695 32.7303 11.0495C32.9803 10.0595 33.1703 9.01952 33.3503 8.00952C33.4203 7.62952 33.4903 7.24952 33.5603 6.86952L33.5803 6.75952C33.6703 6.28952 33.7703 5.71952 34.2003 5.04952C34.4003 4.72952 34.7603 4.55952 35.1503 4.59952C35.5303 4.63952 35.8503 4.88952 35.9803 5.23952C36.1003 5.55952 36.2403 5.87952 36.3903 6.19952C36.7403 6.97952 37.0903 7.78952 37.2303 8.68952C37.7603 12.0395 39.1603 14.4495 41.6403 16.2795C42.3603 16.8095 42.9003 17.4895 43.4203 18.1495C43.6303 18.4095 43.8303 18.6695 44.0403 18.9095C46.0003 21.1495 46.5303 23.8295 45.5603 26.6795C45.1503 27.8895 44.6103 29.0395 44.0803 30.1595C43.8503 30.6395 43.6203 31.1295 43.4103 31.6195L41.6303 35.6095C41.5003 35.8895 41.2503 36.0995 40.9503 36.1695L40.6103 36.2595C40.2203 36.3595 39.6903 36.5095 39.1403 36.5895C38.6403 36.6595 37.9203 36.6095 37.4003 36.2195C36.9003 35.8395 36.5503 35.8495 36.0603 36.2495C35.5203 36.6895 34.9403 36.9195 34.3703 36.9195L34.3803 36.9095Z" fill="#323232"/>
<path d="M37.9196 43.41C34.8196 43.41 34.7396 40.69 34.6896 39.23L34.6696 38.76C34.6596 38.49 34.7596 38.22 34.9496 38.02C35.1396 37.82 35.3996 37.71 35.6696 37.71H39.7596C40.2596 37.71 40.6796 38.08 40.7496 38.57C40.8596 39.36 40.9996 41.32 39.9696 42.51C39.4596 43.09 38.7496 43.4 37.9096 43.4L37.9196 43.41ZM36.7196 39.71C36.7996 41.15 37.0296 41.41 37.9196 41.41C38.2496 41.41 38.3796 41.31 38.4696 41.2C38.6996 40.93 38.8296 40.38 38.8396 39.71H36.7196Z" fill="#323232"/>
<path d="M9.14005 22.1295L6.34005 22.1495C5.74005 22.1495 5.20005 21.7895 4.98005 21.2295L3.00005 16.2495C2.85005 15.8695 3.13005 15.4495 3.53005 15.4495H4.65005C5.12005 15.4395 5.55005 15.6595 5.83005 16.0395L9.59005 21.1995C9.87005 21.5895 9.59005 22.1195 9.12005 22.1295" fill="#DF0000"/>
<path d="M29.3205 17.9303C28.5105 17.1103 27.3105 16.7403 25.7305 16.7003H19.5805L14.1405 12.6903C13.0205 11.9403 11.5805 11.7603 10.3105 12.2003C10.0305 12.3003 9.81047 12.5103 9.71047 12.7803C9.61047 13.0503 9.63047 13.3603 9.77047 13.6203C10.2005 14.4103 10.9905 15.7303 11.5905 16.7303H9.23047C8.68047 16.7303 8.23047 17.1803 8.23047 17.7403C8.23047 18.2903 8.68047 18.7403 9.23047 18.7403L25.7305 18.7003H25.7405C26.7505 18.7003 27.4805 18.9103 27.8905 19.3403C28.1905 19.6403 28.3205 20.0303 28.3805 20.4103C25.8905 20.4303 20.0305 20.4703 20.0305 20.4703C19.7905 20.4703 19.5705 20.5603 19.3905 20.7103C19.3905 20.7103 14.6105 24.7803 13.0605 26.1303C12.6905 26.4303 12.2705 26.6403 11.8205 26.7703L14.4305 21.9903C14.6005 21.6803 14.5905 21.3003 14.4105 21.0003C14.2305 20.7003 13.8805 20.5203 13.5405 20.5103L11.4405 20.5303C10.8905 20.5303 10.4405 20.9903 10.4505 21.5403C10.4505 22.0903 10.9405 22.5103 11.4605 22.5303H11.8605L9.22047 27.3503C9.07047 27.6303 9.06047 27.9703 9.20047 28.2603C9.34047 28.5503 9.61047 28.7603 9.93047 28.8103C10.2505 28.8703 10.5705 28.8903 10.8905 28.8903C12.1405 28.8903 13.3605 28.4603 14.3505 27.6603C15.7005 26.4803 19.3705 23.3503 20.4105 22.4603C22.0505 22.4503 28.7005 22.4003 29.4405 22.4003C29.9905 22.4003 30.4305 21.9403 30.4305 21.3903V21.2503C30.4305 20.6003 30.4505 19.0603 29.3205 17.9303ZM12.3005 14.0203C12.5505 14.0803 12.7905 14.1803 13.0005 14.3203L16.2405 16.7203H13.9205C13.5905 16.1903 12.9005 15.0403 12.3005 14.0203Z" fill="#323232"/>
</svg>
