<svg width="48" height="48" viewBox="0 0 48 48" fill="none" xmlns="http://www.w3.org/2000/svg">
<path d="M23.9893 24.5502H23.9393C21.0293 24.5202 18.6793 22.1302 18.7093 19.2202C18.7393 16.3302 21.0993 13.9902 23.9893 13.9902H24.0393C26.9493 14.0202 29.2893 16.4102 29.2693 19.3202C29.2393 22.2102 26.8793 24.5502 23.9893 24.5502ZM23.9593 22.5502H23.9893C25.7793 22.5502 27.2493 21.1002 27.2693 19.3002C27.2893 17.4902 25.8293 16.0102 24.0193 15.9902C22.2493 15.9402 20.7293 17.4302 20.7093 19.2402C20.6893 21.0502 22.1493 22.5302 23.9593 22.5502Z" fill="#DF0000"/>
<path d="M12.79 22.3803C9.90005 22.3803 7.54005 20.0403 7.51005 17.1503C7.48005 14.2403 9.83005 11.8503 12.74 11.8203H12.79C15.68 11.8203 18.04 14.1603 18.07 17.0503C18.08 18.4603 17.55 19.7903 16.56 20.8003C15.57 21.8103 14.25 22.3703 12.84 22.3803H12.79ZM12.79 13.8303H12.76C11.88 13.8303 11.07 14.1903 10.45 14.8103C9.83005 15.4303 9.50005 16.2603 9.51005 17.1403C9.53005 18.9403 10.99 20.3903 12.79 20.3903H12.82C13.7 20.3903 14.52 20.0303 15.13 19.4103C15.74 18.7903 16.08 17.9603 16.07 17.0803C16.05 15.2803 14.59 13.8303 12.79 13.8303Z" fill="#8DE2E0"/>
<path d="M23.8792 27.6504H23.9092C25.9992 27.6704 27.0092 29.7704 27.8892 32.9304L30.7592 42.9404C31.3892 42.7104 32.0092 42.4504 32.6192 42.1604L29.8092 32.3904C29.1992 30.2104 27.9392 25.6904 23.9192 25.6504H23.8692C19.6392 25.6504 18.3292 30.6604 17.9092 32.3004L15.1992 42.0704C15.7992 42.3604 16.4192 42.6304 17.0592 42.8604L19.8492 32.8104C20.7792 29.2404 22.0292 27.6404 23.8792 27.6404V27.6504Z" fill="#DF0000"/>
<path d="M15.9802 25.4902C16.5302 25.4902 16.9802 25.0402 16.9802 24.4902C16.9802 23.9402 16.5302 23.4902 15.9802 23.4902H9.93016C8.27016 23.4902 6.91016 24.8402 6.91016 26.5102V34.5702C7.50016 35.5302 8.17016 36.4302 8.91016 37.2702V26.5102C8.91016 25.9502 9.37016 25.4902 9.93016 25.4902H15.9802Z" fill="#8DE2E0"/>
<path d="M34.8105 22.3901H34.8605C37.7505 22.3901 40.1105 20.0501 40.1305 17.1601C40.1605 14.2501 37.8105 11.8601 34.9005 11.8301H34.8505C31.9604 11.8301 29.6005 14.1701 29.5705 17.0601C29.5605 18.4701 30.0905 19.8001 31.0805 20.8001C32.0705 21.8101 33.3905 22.3701 34.8005 22.3801L34.8105 22.3901ZM34.8605 13.8301H34.8905C36.7005 13.8501 38.1505 15.3301 38.1405 17.1401C38.1405 18.0201 37.7805 18.8401 37.1605 19.4501C36.5405 20.0601 35.7005 20.3901 34.8305 20.3901C33.9505 20.3901 33.1305 20.0301 32.5205 19.4101C31.9105 18.7901 31.5705 17.9601 31.5805 17.0901C31.6005 15.2901 33.0605 13.8401 34.8605 13.8401V13.8301Z" fill="#323232"/>
<path d="M40.4909 38.7299C43.9909 34.8199 46.1209 29.6499 46.1209 23.9999C46.1209 11.7999 36.2009 1.87988 24.0009 1.87988C11.8009 1.87988 1.88086 11.7999 1.88086 23.9999C1.88086 36.1999 11.8009 46.1199 24.0009 46.1199C30.5009 46.1199 36.3609 43.2999 40.4109 38.8199C40.4409 38.7899 40.4609 38.7599 40.4909 38.7299ZM24.0009 44.1199C12.9009 44.1199 3.88086 35.0899 3.88086 23.9999C3.88086 12.9099 12.9009 3.87988 24.0009 3.87988C35.1009 3.87988 44.1209 12.9099 44.1209 23.9999C44.1209 28.1199 42.8709 31.9599 40.7309 35.1599V26.5199C40.7309 24.8599 39.3809 23.4999 37.7109 23.4999H31.6609C31.1109 23.4999 30.6609 23.9499 30.6609 24.4999C30.6609 25.0499 31.1109 25.4999 31.6609 25.4999H37.7109C38.2709 25.4999 38.7309 25.9599 38.7309 26.5199V37.6699C35.0509 41.6399 29.8209 44.1299 23.9909 44.1299L24.0009 44.1199Z" fill="#323232"/>
</svg>
