<svg width="48" height="48" viewBox="0 0 48 48" fill="none" xmlns="http://www.w3.org/2000/svg">
<path d="M37.3709 43.1201H35.7409V35.0701C35.7409 31.6901 34.0909 28.5101 31.3209 26.5701L28.0009 24.2401L31.3109 21.9101C31.9309 21.4901 32.4809 21.0101 32.9209 20.5101C34.7409 18.5901 35.7509 16.0601 35.7509 13.3901V4.87012H37.3809C37.9309 4.87012 38.3809 4.42012 38.3809 3.87012C38.3809 3.32012 37.9309 2.87012 37.3809 2.87012H10.6309C10.0809 2.87012 9.63086 3.32012 9.63086 3.87012C9.63086 4.42012 10.0809 4.87012 10.6309 4.87012H12.2609V13.4001C12.2609 16.1501 13.3209 18.7401 15.2609 20.7101C15.7009 21.1501 16.1709 21.5501 16.6809 21.9101L20.0109 24.2401L16.6809 26.5701C13.9109 28.5101 12.2609 31.6901 12.2609 35.0701V43.1201H10.6309C10.0809 43.1201 9.63086 43.5701 9.63086 44.1201C9.63086 44.6701 10.0809 45.1201 10.6309 45.1201H37.3709C37.9209 45.1201 38.3709 44.6701 38.3709 44.1201C38.3709 43.5701 37.9209 43.1201 37.3709 43.1201ZM17.8409 20.2801C17.4309 19.9901 17.0409 19.6601 16.6809 19.3001C15.1209 17.7201 14.2609 15.6201 14.2609 13.4001V4.87012H33.7309V13.4001C33.7309 15.5501 32.9209 17.5901 31.4309 19.1701C31.0709 19.5701 30.6509 19.9401 30.1609 20.2701L26.5209 22.8301C26.5209 22.8301 26.5209 22.8401 26.5009 22.8501C26.4209 22.9001 26.3409 22.9501 26.2709 23.0201C25.2409 23.7501 24.4709 24.7201 23.9509 25.5001C23.4009 24.7001 22.6209 23.7101 21.7309 23.0301C21.7009 23.0001 21.6809 22.9801 21.6809 22.9901C21.6609 22.9801 21.6509 22.9601 21.6309 22.9501C21.6009 22.9301 21.5709 22.9001 21.5409 22.8801L17.8409 20.2901V20.2801ZM14.2709 35.0701C14.2709 32.3401 15.6009 29.7801 17.8409 28.2101L21.5009 25.6401C21.5009 25.6401 21.5309 25.6101 21.5409 25.6001C22.1009 26.2701 22.5709 27.0101 22.8509 27.4501C23.1809 27.9701 23.4209 28.3401 24.0009 28.3401C24.6109 28.3401 24.8509 27.9001 25.0609 27.5401C25.2909 27.1201 25.7509 26.3201 26.4309 25.5701C26.4409 25.5801 26.4509 25.6001 26.4709 25.6101L30.1809 28.2101C32.4209 29.7801 33.7509 32.3401 33.7509 35.0701V43.1201H14.2709V35.0701Z" fill="#323232"/>
<path d="M31.9405 41.33V38.06C29.8705 37.69 27.0605 35.01 25.5805 33.84C24.7305 33.17 23.3105 33.13 22.4105 33.85C20.9405 35.03 18.1405 37.68 16.0605 38.06V41.33H31.9305H31.9405Z" fill="#DF0000"/>
<path d="M18.8701 18.8001L22.5701 21.4001C22.6401 21.4501 22.7001 21.5001 22.7601 21.5501L22.7901 21.5801L22.8101 21.6001C22.8101 21.6001 22.8601 21.6501 22.8901 21.6701C23.2501 21.9501 23.6001 22.2701 23.9501 22.6401C24.3301 22.2601 24.7301 21.9101 25.1501 21.6101C25.1701 21.5901 25.1901 21.5701 25.2201 21.5601L25.2401 21.5401L25.4801 21.3701L29.1501 18.7901C29.5201 18.5401 29.8301 18.2701 30.0901 17.9801L30.1101 17.9601L30.1301 17.9401C30.2501 17.8101 30.3701 17.6801 30.4801 17.5401L29.8101 17.6801C25.8201 19.4201 21.1501 16.4601 17.8301 17.9001C17.8701 17.9501 17.9101 18.0001 17.9601 18.0401C18.2501 18.3301 18.5601 18.5901 18.8801 18.8201L18.8701 18.8001Z" fill="#DF0000"/>
</svg>
