<svg width="48" height="48" viewBox="0 0 48 48" fill="none" xmlns="http://www.w3.org/2000/svg">
<path d="M37.8493 40.1699H28.2793C27.7293 40.1699 27.2793 39.7199 27.2793 39.1699C27.2793 38.6199 27.7293 38.1699 28.2793 38.1699H37.8493C38.3993 38.1699 38.8493 38.6199 38.8493 39.1699C38.8493 39.7199 38.3993 40.1699 37.8493 40.1699Z" fill="#DF0000"/>
<path d="M37.8493 36.8198H28.2793C27.7293 36.8198 27.2793 36.3698 27.2793 35.8198C27.2793 35.2698 27.7293 34.8198 28.2793 34.8198H37.8493C38.3993 34.8198 38.8493 35.2698 38.8493 35.8198C38.8493 36.3698 38.3993 36.8198 37.8493 36.8198Z" fill="#DF0000"/>
<path d="M44.2499 7.35027H38.1899V2.76027C38.1899 2.43027 38.0299 2.13027 37.7599 1.94027C37.4899 1.75027 37.1499 1.71027 36.8399 1.82027L21.8299 7.40027C21.8299 7.40027 21.8199 7.40027 21.8099 7.41027C21.7399 7.44027 21.6699 7.49027 21.6099 7.53027C21.5699 7.56027 21.5199 7.58027 21.4799 7.62027C21.4299 7.66027 21.4099 7.72027 21.3699 7.78027C21.3299 7.83027 21.2899 7.88027 21.2599 7.94027C21.2399 7.99027 21.2399 8.04027 21.2199 8.10027C21.1999 8.17027 21.1799 8.25027 21.1699 8.32027C21.1699 8.32027 21.1699 8.33027 21.1699 8.34027V45.2603C21.1699 45.8103 21.6199 46.2603 22.1699 46.2603H44.2399C44.7899 46.2603 45.2399 45.8103 45.2399 45.2603V8.35027C45.2399 7.80027 44.7899 7.35027 44.2399 7.35027H44.2499ZM36.1899 7.35027H27.7399L36.1899 4.20027V7.35027ZM43.2499 44.2603H23.1799V9.35027H43.2499V44.2703V44.2603Z" fill="#323232"/>
<path d="M26.4199 22.64H40.0099C40.5599 22.64 41.0099 22.19 41.0099 21.64C41.0099 21.09 40.5599 20.64 40.0099 20.64H39.8299C39.3899 17.74 37.1099 15.46 34.2099 15.02V14.27C34.2099 13.72 33.7599 13.27 33.2099 13.27C32.6599 13.27 32.2099 13.72 32.2099 14.27V15.02C29.3099 15.46 27.0299 17.74 26.5899 20.64H26.4199C25.8699 20.64 25.4199 21.09 25.4199 21.64C25.4199 22.19 25.8699 22.64 26.4199 22.64ZM33.2099 16.93C35.4599 16.93 37.3399 18.52 37.7999 20.63H28.6199C29.0799 18.52 30.9599 16.93 33.2099 16.93Z" fill="#323232"/>
<path d="M17.91 1.74023H3.75C3.2 1.74023 2.75 2.19023 2.75 2.74023V6.99023C2.75 19.1502 5.38 26.7402 9.83 27.7102V44.1302H5.16C4.61 44.1302 4.16 44.5802 4.16 45.1302C4.16 45.6802 4.61 46.1302 5.16 46.1302H16.49C17.04 46.1302 17.49 45.6802 17.49 45.1302C17.49 44.5802 17.04 44.1302 16.49 44.1302H11.82V27.7102C16.28 26.7402 18.9 19.1502 18.9 6.99023V2.74023C18.9 2.19023 18.45 1.74023 17.9 1.74023H17.91ZM16.91 6.99023C16.91 20.0002 13.85 25.8202 10.83 25.8202C7.81 25.8202 4.75 20.0002 4.75 6.99023V3.74023H16.92V6.99023H16.91Z" fill="#323232"/>
<path d="M9.75062 7.59012C10.3606 7.59012 10.8606 7.09012 10.8606 6.48012C10.8606 5.87012 10.3606 5.37012 9.75062 5.37012C9.14062 5.37012 8.64062 5.87012 8.64062 6.48012C8.64062 7.09012 9.14062 7.59012 9.75062 7.59012Z" fill="#8DE2E0"/>
<path d="M13.5709 10.5003C14.184 10.5003 14.6809 10.0033 14.6809 9.39027C14.6809 8.77724 14.184 8.28027 13.5709 8.28027C12.9579 8.28027 12.4609 8.77724 12.4609 9.39027C12.4609 10.0033 12.9579 10.5003 13.5709 10.5003Z" fill="#8DE2E0"/>
<path d="M8.56156 12.67C9.23156 12.67 9.77156 12.13 9.77156 11.46C9.77156 10.79 9.23156 10.25 8.56156 10.25C7.89156 10.25 7.35156 10.79 7.35156 11.46C7.35156 12.13 7.89156 12.67 8.56156 12.67Z" fill="#8DE2E0"/>
<path d="M6.96094 14.3604C7.85094 21.5504 9.94094 24.0204 10.8309 24.0204C11.7209 24.0204 13.8109 21.5604 14.7009 14.3604H6.96094Z" fill="#8DE2E0"/>
</svg>
