<svg width="24" height="24" viewBox="0 0 24 24" fill="none" xmlns="http://www.w3.org/2000/svg">
<path d="M13.04 2C16.1763 2 17.7445 1.99999 18.9424 2.61035C19.9961 3.14724 20.8528 4.00393 21.3896 5.05762C22 6.25552 22 7.82369 22 10.96V13.04C22 16.1763 22 17.7445 21.3896 18.9424C20.8528 19.9961 19.9961 20.8528 18.9424 21.3896C17.7445 22 16.1763 22 13.04 22H10.96C7.82369 22 6.25552 22 5.05762 21.3896C4.00393 20.8528 3.14724 19.9961 2.61035 18.9424C1.99999 17.7445 2 16.1763 2 13.04V10.96C2 7.82369 1.99999 6.25552 2.61035 5.05762C3.14724 4.00393 4.00393 3.14724 5.05762 2.61035C6.25552 1.99999 7.82369 2 10.96 2H13.04ZM10.96 4C9.35883 4 8.27781 4.00124 7.44434 4.06934C6.63456 4.13553 6.23579 4.25504 5.96582 4.39258C5.28844 4.73772 4.73772 5.28844 4.39258 5.96582C4.25504 6.23579 4.13553 6.63456 4.06934 7.44434C4.00124 8.27781 4 9.35883 4 10.96V13.04C4 14.6412 4.00124 15.7222 4.06934 16.5557C4.13553 17.3654 4.25504 17.7642 4.39258 18.0342C4.73772 18.7116 5.28844 19.2623 5.96582 19.6074C6.23579 19.745 6.63456 19.8645 7.44434 19.9307C8.27781 19.9988 9.35883 20 10.96 20H13.04C14.6412 20 15.7222 19.9988 16.5557 19.9307C17.3654 19.8645 17.7642 19.745 18.0342 19.6074C18.7116 19.2623 19.2623 18.7116 19.6074 18.0342C19.745 17.7642 19.8645 17.3654 19.9307 16.5557C19.9988 15.7222 20 14.6412 20 13.04V10.96C20 9.35883 19.9988 8.27781 19.9307 7.44434C19.8645 6.63456 19.745 6.23579 19.6074 5.96582C19.2623 5.28844 18.7116 4.73772 18.0342 4.39258C17.7642 4.25504 17.3654 4.13553 16.5557 4.06934C15.7222 4.00124 14.6412 4 13.04 4H10.96ZM9.09668 8.5332C9.09689 8.02286 9.47043 7.83765 9.92285 8.1084C11.1623 8.85912 14.6867 10.9648 15.8066 11.6338C16.0944 11.8065 16.1017 12.2448 15.8066 12.4131C12.6918 14.2761 10.7424 15.4428 9.95898 15.9131C9.58078 16.1723 9.09668 15.9124 9.09668 15.4512V8.5332Z" fill="#323232"/>
</svg>
