<svg width="24" height="24" viewBox="0 0 24 24" fill="none" xmlns="http://www.w3.org/2000/svg">
<path d="M13.04 2C16.1763 2 17.7445 1.99999 18.9424 2.61035C19.9961 3.14724 20.8528 4.00393 21.3896 5.05762C22 6.25552 22 7.82369 22 10.96V13.04C22 16.1763 22 17.7445 21.3896 18.9424C20.8528 19.9961 19.9961 20.8528 18.9424 21.3896C17.7445 22 16.1763 22 13.04 22H10.96C7.82369 22 6.25552 22 5.05762 21.3896C4.00393 20.8528 3.14724 19.9961 2.61035 18.9424C1.99999 17.7445 2 16.1763 2 13.04V10.96C2 7.82369 1.99999 6.25552 2.61035 5.05762C3.14724 4.00393 4.00393 3.14724 5.05762 2.61035C6.25552 1.99999 7.82369 2 10.96 2H13.04ZM9.07324 7.1543C8.48557 6.81724 8.00015 7.04802 8 7.68359V16.2979C8.00027 16.872 8.62992 17.1949 9.12109 16.8721C10.1388 16.2864 12.6702 14.8331 16.7158 12.5137C17.0991 12.3041 17.0897 11.76 16.7158 11.5449C15.2611 10.7119 10.6829 8.08891 9.07324 7.1543Z" fill="#323232"/>
</svg>
