<svg width="48" height="48" viewBox="0 0 48 48" fill="none" xmlns="http://www.w3.org/2000/svg">
<path d="M39.3197 39.2698C39.3197 39.2698 39.2997 39.2098 39.2797 39.1898C39.2197 39.1198 39.1497 39.0698 39.0797 39.0198C38.0797 37.9998 36.6897 37.0798 34.7097 36.4898L33.3597 36.1998C33.3597 36.1998 33.3397 36.1698 33.3297 36.1598L32.5097 35.3698C34.4597 34.9698 35.8797 33.9298 35.9597 33.8598C36.2097 33.6698 36.3497 33.3798 36.3497 33.0598C36.3497 32.7498 36.1997 32.4498 35.9497 32.2698C34.7297 31.3398 34.4297 28.5498 34.4097 27.1698C35.6797 26.7398 37.1997 25.4098 37.1997 21.5298C37.1997 20.3598 37.1997 17.8298 35.1097 17.2298V15.3098C35.1097 15.3098 35.1097 15.2198 35.1097 15.1698C35.5397 14.6598 35.7897 14.1398 35.7897 13.6398V12.8898C36.0197 12.6698 36.1997 12.4198 36.3197 12.1598C36.3397 12.1098 36.3597 12.0598 36.3797 12.0098L37.5697 7.93977C37.9997 6.92977 37.5497 5.74977 36.5497 5.26977C36.2697 5.13977 29.5897 2.00977 23.9997 2.00977C18.4097 2.00977 11.7297 5.13977 11.4497 5.26977C10.4497 5.74977 10.0097 6.92977 10.4297 7.93977L11.6197 12.0098C11.6297 12.0598 11.6497 12.1098 11.6797 12.1598C11.7997 12.4198 11.9897 12.6698 12.2097 12.8898V13.6398C12.2097 14.1398 12.4597 14.6598 12.8897 15.1698C12.8897 15.1998 12.8897 15.2198 12.8897 15.2498V17.3198C12.6197 17.4498 12.3697 17.6298 12.1397 17.8498C11.2097 18.7698 10.7997 20.3798 10.7997 21.5698C10.7997 24.5698 11.8197 26.5698 13.5897 27.2098C13.5597 28.6098 13.2597 31.3498 12.0497 32.2598C11.7997 32.4498 11.6497 32.7398 11.6497 33.0498C11.6497 33.3598 11.7897 33.6598 12.0397 33.8498C12.1197 33.9098 13.5397 34.9598 15.4897 35.3598L14.8397 35.9898L13.2097 36.5098C11.1997 37.1098 9.79973 38.0698 8.80973 39.1198C8.77973 39.1498 8.74973 39.1598 8.71973 39.1898C8.71973 39.1998 8.70973 39.2098 8.69973 39.2298C6.30973 41.8398 6.41973 45.0098 6.41973 45.0498C6.44973 45.5798 6.88973 45.9998 7.41973 45.9998H40.5797C41.1097 45.9998 41.5497 45.5798 41.5797 45.0498C41.5797 45.0098 41.6897 41.8798 39.3197 39.2698ZM36.9497 39.7698L35.5897 40.8498L32.2697 39.1098L32.9497 38.1498L34.2097 38.4198C35.3497 38.7598 36.2397 39.2398 36.9397 39.7698H36.9497ZM23.9997 38.1898L19.6397 34.5798L19.6597 34.4498C20.3197 34.8198 21.9397 35.5898 24.0697 35.5898C25.3497 35.5898 26.7997 35.3098 28.3397 34.4998V34.5798L23.9897 38.1898H23.9997ZM16.6797 36.9998L17.9497 35.7798L18.0397 35.8598C18.0397 35.8598 18.0597 35.8798 18.0697 35.8798L22.0197 39.1498L19.6497 41.1898L16.6797 36.9998ZM29.9297 35.8698C29.9297 35.8698 29.9497 35.8498 29.9597 35.8498L30.0497 35.7698L31.3197 36.9898L28.3497 41.1798L25.9797 39.1398L29.9297 35.8698ZM30.2797 33.4498C30.2797 33.4498 30.2397 33.4498 30.2197 33.4498L30.1897 33.1998C31.1997 32.3298 32.0597 31.3098 32.7397 30.1798C32.9397 31.0998 33.2697 32.0498 33.7897 32.8298C32.9497 33.2498 31.6397 33.6998 30.2797 33.4498ZM14.7197 14.2398C14.6397 14.1298 14.5497 14.0398 14.4397 13.9598C14.3597 13.8698 14.3097 13.7898 14.2697 13.7198C20.7297 12.5998 27.2797 12.5998 33.7397 13.6998C33.6797 13.7998 33.5897 13.9198 33.4597 14.0498C33.4197 14.0898 33.3797 14.1198 33.3397 14.1598C32.0797 15.3198 28.3597 17.2298 23.9997 17.2298C19.6397 17.2298 16.0197 15.3698 14.7197 14.2398ZM12.2997 7.06977C12.3597 7.03977 18.8597 3.99977 23.9997 3.99977C29.1397 3.99977 35.6297 7.03977 35.6997 7.06977L36.1297 6.16977L35.7297 7.15977C35.7297 7.15977 35.6897 7.25977 35.6697 7.30977L34.4897 11.3498C34.4497 11.4098 34.3697 11.4898 34.2497 11.5698C34.1797 11.6198 34.1097 11.6698 34.0497 11.7398C27.3797 10.6098 20.6297 10.6098 13.9597 11.7598C13.8997 11.6898 13.8297 11.6198 13.7497 11.5698C13.6297 11.4998 13.5497 11.4098 13.5097 11.3498L12.3297 7.30977C12.3197 7.25977 12.3297 7.11977 12.2997 7.07977V7.06977ZM13.5597 19.2598C13.7297 19.0898 13.8497 19.0798 13.8997 19.0898C14.1197 19.1198 14.4197 18.9898 14.6097 18.7998C14.7997 18.6098 14.8997 18.3598 14.8997 18.0898V16.7498C17.2597 18.1598 20.7997 19.2298 24.0097 19.2298C27.2197 19.2298 30.7597 18.1598 33.1197 16.7498V18.0898C33.1197 18.6398 33.5697 19.0898 34.1197 19.0898C34.9297 19.0898 35.2097 19.4598 35.2097 21.5198C35.2097 23.2598 34.8697 25.3298 33.2497 25.3498C32.7897 25.3498 32.3997 25.6698 32.2897 26.1198C31.6497 28.7898 30.0197 31.0798 27.7597 32.5498C23.8997 34.8098 20.5997 32.6798 20.4197 32.5498C18.0997 31.1798 16.4497 28.8798 15.8897 26.2398C15.7897 25.7798 15.3797 25.4398 14.9097 25.4398C13.0197 25.4398 12.8197 22.7198 12.8197 21.5598C12.8197 20.6898 13.1497 19.6798 13.5697 19.2598H13.5597ZM15.2697 30.1398C15.9397 31.2898 16.7997 32.3098 17.8197 33.1598L17.7797 33.4498C17.7797 33.4498 17.7397 33.4498 17.7197 33.4498C16.3597 33.6998 15.0497 33.2498 14.2097 32.8298C14.7397 32.0398 15.0697 31.0698 15.2697 30.1398ZM13.7997 38.4198L14.9697 38.0498L15.7297 39.1198L12.4097 40.8598L11.0597 39.7798C11.7697 39.2398 12.6597 38.7698 13.7997 38.4198ZM8.48973 43.9998C8.60973 43.2698 8.90973 42.2298 9.63973 41.2098L11.6697 42.8298C11.8497 42.9698 12.0697 43.0498 12.2897 43.0498C12.4497 43.0498 12.6097 43.0098 12.7497 42.9398L16.8897 40.7698L18.6397 43.2398C18.7997 43.4698 19.0497 43.6198 19.3297 43.6498C19.3697 43.6498 19.4097 43.6498 19.4497 43.6498C19.6897 43.6498 19.9197 43.5698 20.0997 43.4098L23.9797 40.0798L27.8597 43.4098C28.0397 43.5698 28.2697 43.6498 28.5097 43.6498C28.5497 43.6498 28.5897 43.6498 28.6297 43.6498C28.9097 43.6198 29.1597 43.4698 29.3197 43.2398L31.0697 40.7698L35.2097 42.9398C35.3597 43.0198 35.5197 43.0498 35.6697 43.0498C35.8897 43.0498 36.1097 42.9798 36.2897 42.8298L38.3197 41.2098C39.0497 42.2298 39.3497 43.2798 39.4697 43.9998H8.48973Z" fill="#323232"/>
<path d="M24.0001 10.4699C25.6101 10.4699 26.9201 9.15988 26.9201 7.54988C26.9201 5.93988 25.6101 4.62988 24.0001 4.62988C22.3901 4.62988 21.0801 5.93988 21.0801 7.54988C21.0801 9.15988 22.3901 10.4699 24.0001 10.4699ZM24.0001 6.63988C24.5101 6.63988 24.9201 7.04988 24.9201 7.55988C24.9201 8.06988 24.5101 8.47988 24.0001 8.47988C23.4901 8.47988 23.0801 8.06988 23.0801 7.55988C23.0801 7.04988 23.4901 6.63988 24.0001 6.63988Z" fill="#323232"/>
</svg>
