<svg width="48" height="48" viewBox="0 0 48 48" fill="none" xmlns="http://www.w3.org/2000/svg">
<path d="M39.3197 39.2698C39.3197 39.2698 39.2997 39.2098 39.2797 39.1898C39.2197 39.1198 39.1497 39.0698 39.0797 39.0198C38.0797 37.9998 36.6897 37.0798 34.7197 36.4898L33.3697 36.1998C33.3697 36.1998 33.3497 36.1698 33.3397 36.1598L30.7997 33.7198C30.6397 33.5698 30.4397 33.4898 30.2297 33.4598L30.1997 33.1998C32.0097 31.6298 33.3497 29.5898 34.0497 27.2698C35.3697 26.9698 37.2097 25.7998 37.2097 21.5298C37.2097 20.3598 37.2097 17.8298 35.1197 17.2298V15.3098C35.1197 15.3098 35.1197 15.2198 35.1197 15.1698C35.5497 14.6598 35.7997 14.1398 35.7997 13.6398V12.8898C36.0297 12.6698 36.2097 12.4198 36.3297 12.1598C36.3497 12.1098 36.3697 12.0598 36.3897 12.0098L37.5797 7.93977C38.0097 6.92977 37.5597 5.74977 36.5597 5.26977C36.2797 5.13977 29.5997 2.00977 24.0097 2.00977C18.4197 2.00977 11.7397 5.13977 11.4597 5.26977C10.4597 5.74977 10.0197 6.92977 10.4397 7.93977L11.6297 12.0098C11.6397 12.0598 11.6597 12.1098 11.6897 12.1598C11.8097 12.4198 11.9997 12.6698 12.2197 12.8898V13.6398C12.2197 14.1398 12.4697 14.6598 12.8997 15.1698C12.8997 15.1998 12.8997 15.2198 12.8997 15.2498V17.3198C12.6297 17.4498 12.3797 17.6298 12.1497 17.8498C11.2197 18.7698 10.8097 20.3798 10.8097 21.5698C10.8097 24.8498 12.0197 26.9498 14.0997 27.3698C14.7297 29.6498 16.0497 31.6698 17.8197 33.1598L17.7797 33.4498C17.5697 33.4798 17.3697 33.5598 17.2097 33.7098L14.8397 35.9898L13.2097 36.5098C11.1997 37.1098 9.79973 38.0698 8.80973 39.1198C8.77973 39.1498 8.74973 39.1598 8.71973 39.1898C8.71973 39.1998 8.70973 39.2098 8.69973 39.2298C6.30973 41.8398 6.41973 45.0098 6.41973 45.0498C6.44973 45.5798 6.88973 45.9998 7.41973 45.9998H40.5797C41.1097 45.9998 41.5497 45.5798 41.5797 45.0498C41.5797 45.0098 41.6897 41.8798 39.3197 39.2698ZM36.9497 39.7698L35.5897 40.8498L32.2697 39.1098L32.9497 38.1498L34.2097 38.4198C35.3497 38.7598 36.2397 39.2398 36.9397 39.7698H36.9497ZM31.3197 36.9998L28.3497 41.1898L25.9797 39.1498L29.9297 35.8798C29.9297 35.8798 29.9497 35.8598 29.9597 35.8598L30.0497 35.7798L31.3197 36.9998ZM23.9997 38.1898L19.6397 34.5798L19.6597 34.4498C20.3197 34.8198 21.9397 35.5898 24.0697 35.5898C25.3497 35.5898 26.7997 35.3098 28.3397 34.4998V34.5798L23.9897 38.1898H23.9997ZM14.6997 14.2298C14.6297 14.1298 14.5397 14.0498 14.4397 13.9798C14.3497 13.8898 14.2897 13.7998 14.2497 13.7298C20.7097 12.6098 27.2597 12.6098 33.7197 13.7098C33.6597 13.8098 33.5697 13.9298 33.4397 14.0598C33.3997 14.0998 33.3497 14.1298 33.3197 14.1798C32.0497 15.3398 28.3397 17.2498 23.9897 17.2498C19.6397 17.2498 15.9897 15.3798 14.6897 14.2498L14.6997 14.2298ZM12.2997 7.06977C12.3597 7.03977 18.8597 3.99977 23.9997 3.99977C29.1397 3.99977 35.6297 7.03977 35.6997 7.06977L36.1297 6.16977L35.7297 7.15977C35.7297 7.15977 35.6897 7.25977 35.6697 7.30977L34.4897 11.3498C34.4497 11.4098 34.3697 11.4898 34.2497 11.5698C34.1797 11.6198 34.1097 11.6698 34.0497 11.7398C27.3797 10.6098 20.6297 10.6098 13.9597 11.7598C13.8997 11.6898 13.8297 11.6198 13.7497 11.5698C13.6297 11.4998 13.5497 11.4098 13.5097 11.3498L12.3297 7.30977C12.3197 7.25977 12.3297 7.11977 12.2997 7.07977V7.06977ZM15.8697 26.2498C15.7697 25.7898 15.3597 25.4498 14.8897 25.4498C12.9997 25.4498 12.7997 22.7298 12.7997 21.5698C12.7997 20.6998 13.1297 19.6898 13.5497 19.2698C13.7197 19.0998 13.8497 19.0898 13.8897 19.0998C14.1397 19.1298 14.4097 18.9998 14.5997 18.8098C14.7897 18.6198 14.8897 18.3698 14.8897 18.0998V16.7598C17.2497 18.1698 20.7897 19.2398 23.9997 19.2398C27.2097 19.2398 30.7497 18.1698 33.1097 16.7598V18.0998C33.1097 18.6498 33.5597 19.0998 34.1097 19.0998C34.9197 19.0998 35.1997 19.4698 35.1997 21.5298C35.1997 23.2698 34.8597 25.3398 33.2397 25.3598C32.7797 25.3598 32.3897 25.6798 32.2797 26.1298C31.6397 28.7998 30.0097 31.0898 27.7497 32.5598C23.8897 34.8198 20.5897 32.6898 20.4097 32.5598C18.0897 31.1898 16.4397 28.8898 15.8797 26.2498H15.8697ZM17.9497 35.7698L18.0397 35.8498C18.0397 35.8498 18.0597 35.8698 18.0697 35.8698L22.0197 39.1398L19.6497 41.1798L16.6797 36.9898L17.9497 35.7698ZM13.7997 38.4198L14.9697 38.0498L15.7297 39.1198L12.4097 40.8598L11.0597 39.7798C11.7697 39.2398 12.6597 38.7698 13.7997 38.4198ZM8.48973 43.9998C8.60973 43.2698 8.90973 42.2298 9.63973 41.2098L11.6697 42.8298C11.8497 42.9698 12.0697 43.0498 12.2897 43.0498C12.4497 43.0498 12.6097 43.0098 12.7497 42.9398L16.8897 40.7698L18.6397 43.2398C18.7997 43.4698 19.0497 43.6198 19.3297 43.6498C19.3697 43.6498 19.4097 43.6498 19.4497 43.6498C19.6897 43.6498 19.9197 43.5698 20.0997 43.4098L23.9797 40.0798L27.8597 43.4098C28.0397 43.5698 28.2697 43.6498 28.5097 43.6498C28.5497 43.6498 28.5897 43.6498 28.6297 43.6498C28.9097 43.6198 29.1597 43.4698 29.3197 43.2398L31.0697 40.7698L35.2097 42.9398C35.3597 43.0198 35.5197 43.0498 35.6697 43.0498C35.8897 43.0498 36.1097 42.9798 36.2897 42.8298L38.3197 41.2098C39.0497 42.2298 39.3497 43.2798 39.4697 43.9998H8.48973Z" fill="#323232"/>
<path d="M24.0001 10.4699C25.6101 10.4699 26.9201 9.15988 26.9201 7.54988C26.9201 5.93988 25.6101 4.62988 24.0001 4.62988C22.3901 4.62988 21.0801 5.93988 21.0801 7.54988C21.0801 9.15988 22.3901 10.4699 24.0001 10.4699ZM24.0001 6.63988C24.5101 6.63988 24.9201 7.04988 24.9201 7.55988C24.9201 8.06988 24.5101 8.47988 24.0001 8.47988C23.4901 8.47988 23.0801 8.06988 23.0801 7.55988C23.0801 7.04988 23.4901 6.63988 24.0001 6.63988Z" fill="#323232"/>
</svg>
