<svg width="24" height="24" viewBox="0 0 24 24" fill="none" xmlns="http://www.w3.org/2000/svg">
<g clip-path="url(#clip0_16335_5142)">
<path d="M23.6789 14.7568C25.2013 8.30659 21.2066 1.84354 14.7564 0.321152C8.30617 -1.20123 1.84311 2.79355 0.320729 9.24374C-1.20165 15.6939 2.79312 22.157 9.24332 23.6794C15.6935 25.2018 22.1566 21.207 23.6789 14.7568Z" fill="white"/>
<mask id="mask0_16335_5142" style="mask-type:luminance" maskUnits="userSpaceOnUse" x="-1" y="-1" width="26" height="26">
<path d="M23.6789 14.7565C25.2013 8.30635 21.2066 1.84329 14.7564 0.320908C8.30617 -1.20148 1.84311 2.7933 0.320729 9.2435C-1.20165 15.6937 2.79312 22.1567 9.24332 23.6791C15.6935 25.2015 22.1566 21.2067 23.6789 14.7565Z" fill="white"/>
</mask>
<g mask="url(#mask0_16335_5142)">
<path d="M32.7551 0H-3.24493V24H32.7551V0Z" fill="white"/>
<path d="M32.7551 4.66748H-3.24493V19.3338H32.7551V4.66748Z" fill="#FF0000"/>
<path d="M32.7551 20.0005H-3.24493V24H32.7551V20.0005Z" fill="#003399"/>
<path d="M32.7551 0H-3.24493V3.99953H32.7551V0Z" fill="#003399"/>
<path fill-rule="evenodd" clip-rule="evenodd" d="M8.76763 6.67578C11.7079 6.67578 14.092 9.05985 14.092 12.0001C14.092 14.9404 11.7079 17.3244 8.76763 17.3244C5.82737 17.3244 3.4433 14.9404 3.4433 12.0001C3.4433 9.05985 5.82737 6.67578 8.76763 6.67578ZM3.86533 10.4238L6.89643 12.6206L5.73793 16.1855L8.76763 13.9761L11.7973 16.1855L10.6388 12.6206L13.6699 10.4238H9.92612L8.76902 6.86164L7.61193 10.4238H3.86673H3.86533Z" fill="white"/>
</g>
</g>
<rect x="0.25" y="0.25" width="23.5" height="23.5" rx="11.75" stroke="#E5E3E1" stroke-width="0.5"/>
<defs>
<clipPath id="clip0_16335_5142">
<rect width="24" height="24" rx="12" fill="white"/>
</clipPath>
</defs>
</svg>
