<svg width="48" height="48" viewBox="0 0 48 48" fill="none" xmlns="http://www.w3.org/2000/svg">
<g clip-path="url(#clip0_12112_13151)">
<path d="M46.1598 22.9998H39.6498C39.1498 15.1398 32.8598 8.84984 24.9998 8.34984V1.83984C24.9998 1.28984 24.5498 0.839844 23.9998 0.839844C23.4498 0.839844 22.9998 1.28984 22.9998 1.83984V8.34984C15.1398 8.84984 8.84984 15.1398 8.34984 22.9998H1.83984C1.28984 22.9998 0.839844 23.4498 0.839844 23.9998C0.839844 24.5498 1.28984 24.9998 1.83984 24.9998H8.34984C8.84984 32.8598 15.1398 39.1498 22.9998 39.6498V46.1598C22.9998 46.7098 23.4498 47.1598 23.9998 47.1598C24.5498 47.1598 24.9998 46.7098 24.9998 46.1598V39.6498C32.8598 39.1498 39.1498 32.8598 39.6498 24.9998H46.1598C46.7098 24.9998 47.1598 24.5498 47.1598 23.9998C47.1598 23.4498 46.7098 22.9998 46.1598 22.9998ZM37.6498 22.9998H35.3498C35.1198 20.3298 33.9798 17.8598 32.0598 15.9398C30.1398 14.0298 27.6698 12.8798 24.9998 12.6498V10.3498C31.7598 10.8398 37.1598 16.2398 37.6498 22.9998ZM24.0098 33.3898C21.4998 33.3898 19.1498 32.4098 17.3698 30.6398C15.5998 28.8698 14.6198 26.5098 14.6198 23.9998C14.6198 21.4898 15.5998 19.1298 17.3698 17.3598C19.1398 15.5898 21.4998 14.6098 24.0098 14.6098C26.5198 14.6098 28.8798 15.5898 30.6498 17.3598C32.4198 19.1298 33.3998 21.4898 33.3998 23.9998C33.3998 26.5098 32.4198 28.8698 30.6498 30.6398C28.8798 32.4098 26.5198 33.3898 24.0098 33.3898ZM22.9998 10.3498V12.6498C20.3298 12.8798 17.8598 14.0198 15.9398 15.9398C14.0298 17.8598 12.8798 20.3298 12.6498 22.9998H10.3498C10.8398 16.2398 16.2398 10.8398 22.9998 10.3498ZM10.3498 24.9998H12.6498C12.8798 27.6698 14.0198 30.1398 15.9398 32.0598C17.8598 33.9698 20.3298 35.1198 22.9998 35.3498V37.6498C16.2398 37.1598 10.8398 31.7598 10.3498 24.9998ZM24.9998 37.6498V35.3498C27.6698 35.1198 30.1398 33.9798 32.0598 32.0598C33.9698 30.1398 35.1198 27.6698 35.3498 24.9998H37.6498C37.1598 31.7598 31.7598 37.1598 24.9998 37.6498Z" fill="#323232"/>
<path fill-rule="evenodd" clip-rule="evenodd" d="M21.0393 17.2799C25.0993 18.4799 28.0593 22.2299 28.0593 26.6799C28.0593 28.0899 27.7593 29.4399 27.2193 30.6499C29.6493 29.4499 31.3293 26.9399 31.3293 24.0399C31.3293 19.9699 28.0293 16.6699 23.9593 16.6699C22.9193 16.6699 21.9293 16.8899 21.0293 17.2699" fill="#8DE2E0"/>
</g>
<defs>
<clipPath id="clip0_12112_13151">
<rect width="48" height="48" fill="white"/>
</clipPath>
</defs>
</svg>
