<svg width="48" height="48" viewBox="0 0 48 48" fill="none" xmlns="http://www.w3.org/2000/svg">
<path d="M43.229 20.27C42.049 19.86 40.739 20.48 40.319 21.65L38.469 26.58C38.469 26.58 38.389 26.56 38.349 26.56C37.679 26.51 36.999 26.74 36.519 27.16L35.299 28.22C33.409 29.87 32.539 30.34 31.779 30.76C31.179 31.09 30.599 31.4 29.759 32.14C27.729 33.91 27.379 37.55 27.349 39.58H26.959C26.409 39.58 25.959 40.03 25.959 40.58V44.05C25.959 44.6 26.409 45.05 26.959 45.05H36.079C36.629 45.05 37.079 44.6 37.079 44.05V40.58C37.079 40.03 36.629 39.58 36.079 39.58H35.689C35.859 38.62 36.259 37.55 37.189 36.74L40.999 33.38C41.559 32.88 41.999 32.3 42.299 31.65C43.519 29.02 44.679 23.13 44.729 22.88C44.949 21.77 44.299 20.65 43.229 20.28V20.27ZM35.069 43.04H27.949V41.57H35.069V43.04ZM40.479 30.8C40.299 31.2 40.019 31.56 39.669 31.87L35.859 35.23C34.659 36.28 33.899 37.8 33.659 39.57H29.329C29.369 37.33 29.819 34.72 31.059 33.64C31.739 33.05 32.169 32.81 32.719 32.52C33.539 32.08 34.549 31.53 36.609 29.73L37.829 28.67C37.919 28.59 38.079 28.55 38.209 28.56C38.259 28.56 38.349 28.58 38.389 28.63C38.489 28.74 38.419 29.05 38.249 29.2L35.599 31.66C35.199 32.04 35.169 32.67 35.549 33.07C35.929 33.47 36.559 33.5 36.959 33.12L39.589 30.68C40.349 30.01 40.709 28.72 40.179 27.72L42.199 22.34C42.249 22.19 42.419 22.11 42.569 22.16C42.709 22.21 42.789 22.35 42.759 22.49C42.359 24.52 41.379 28.87 40.479 30.8Z" fill="#323232"/>
<path d="M21.0597 39.5702H20.6697C20.6397 37.5402 20.2797 33.9002 18.2597 32.1302C17.4097 31.3902 16.8397 31.0802 16.2397 30.7502C15.4697 30.3302 14.5997 29.8602 12.7197 28.2102L11.4997 27.1502C11.0197 26.7302 10.3397 26.5102 9.66974 26.5502C9.62974 26.5502 9.58974 26.5702 9.54974 26.5702L7.69974 21.6502C7.27974 20.4702 5.96974 19.8502 4.78974 20.2602C3.71974 20.6302 3.07974 21.7502 3.28974 22.8602C3.33974 23.1102 4.49974 29.0002 5.71974 31.6302C6.01974 32.2802 6.45974 32.8602 7.01974 33.3602L10.8397 36.7202C11.7597 37.5302 12.1697 38.5902 12.3297 39.5502H11.9397C11.3897 39.5502 10.9397 40.0002 10.9397 40.5502V44.0202C10.9397 44.5702 11.3897 45.0202 11.9397 45.0202H21.0597C21.6097 45.0202 22.0597 44.5702 22.0597 44.0202V40.5502C22.0597 40.0002 21.6097 39.5502 21.0597 39.5502V39.5702ZM12.1497 35.2302L8.33974 31.8702C7.98974 31.5602 7.70974 31.2002 7.52974 30.8002C6.62974 28.8702 5.63974 24.5202 5.24974 22.4902C5.21974 22.3502 5.29974 22.2102 5.43974 22.1602C5.58974 22.1102 5.75974 22.1902 5.81974 22.3502L7.82974 27.7202C7.29974 28.7302 7.64974 30.0102 8.39974 30.6602L11.0497 33.1202C11.4597 33.4902 12.0897 33.4702 12.4597 33.0702C12.8397 32.6702 12.8097 32.0302 12.4097 31.6602L9.72974 29.1802C9.57974 29.0502 9.51974 28.7402 9.60974 28.6302C9.64974 28.5802 9.73974 28.5702 9.78974 28.5602C9.90974 28.5502 10.0797 28.6002 10.1697 28.6702L11.3897 29.7302C13.4397 31.5202 14.4597 32.0802 15.2797 32.5202C15.8297 32.8202 16.2597 33.0502 16.9397 33.6402C18.1797 34.7202 18.6397 37.3302 18.6697 39.5702H14.3397C14.0997 37.8002 13.3397 36.2802 12.1497 35.2302ZM20.0597 43.0402H12.9397V41.5702H20.0597V43.0402Z" fill="#323232"/>
<path d="M24.0403 30.4C16.4703 30.4 10.3203 24.25 10.3203 16.68C10.3203 9.10996 16.4703 2.95996 24.0403 2.95996C31.6103 2.95996 37.7603 9.10996 37.7603 16.68C37.7603 24.25 31.6103 30.4 24.0403 30.4ZM24.0403 4.95996C17.5803 4.95996 12.3203 10.22 12.3203 16.68C12.3203 23.14 17.5803 28.4 24.0403 28.4C30.5003 28.4 35.7603 23.14 35.7603 16.68C35.7603 10.22 30.5003 4.95996 24.0403 4.95996Z" fill="#323232"/>
<path fill-rule="evenodd" clip-rule="evenodd" d="M30.86 23.8001C30.86 23.8001 30.88 23.8101 30.9 23.8101C30.92 23.8101 30.94 23.8101 30.96 23.7801C30.98 23.7501 30.98 23.7001 30.96 23.6801C29.51 22.0901 27.72 20.8001 25.73 19.9701L25.12 19.7201C24.8 19.5801 24.6 19.2601 24.6 18.8901C24.64 17.5301 27.71 17.8101 28.03 17.1601L28.08 17.0501C27.44 16.4801 26.7 16.0601 25.87 15.8101C25.86 15.8501 25.83 16.0001 26 16.2901C26.18 16.6001 25.8 17.0901 25.24 16.5601L25.19 16.5201C21.11 12.6201 19.23 15.1901 16.46 10.6601C16.44 10.6201 16.4 10.6101 16.36 10.6301C16.32 10.6601 16.31 10.6901 16.32 10.7301C18.51 16.2201 22.98 15.0601 23.5 20.1901C23.52 20.3801 23.66 20.5301 23.84 20.5601C26.32 20.9701 28.74 22.0401 30.84 23.8001H30.85" fill="#DF0000"/>
</svg>
