<svg width="24" height="24" viewBox="0 0 24 24" fill="none" xmlns="http://www.w3.org/2000/svg">
<g clip-path="url(#clip0_16335_5208)">
<path d="M20.4851 20.4853C25.1714 15.799 25.1714 8.20101 20.4851 3.51472C15.7988 -1.17157 8.20081 -1.17157 3.51452 3.51472C-1.17177 8.20101 -1.17177 15.799 3.51452 20.4853C8.20081 25.1716 15.7988 25.1716 20.4851 20.4853Z" fill="white"/>
<mask id="mask0_16335_5208" style="mask-type:luminance" maskUnits="userSpaceOnUse" x="-1" y="0" width="25" height="24">
<path d="M20.4851 20.4853C25.1714 15.799 25.1714 8.20101 20.4851 3.51472C15.7988 -1.17157 8.20081 -1.17157 3.51452 3.51472C-1.17177 8.20101 -1.17177 15.799 3.51452 20.4853C8.20081 25.1716 15.7988 25.1716 20.4851 20.4853Z" fill="white"/>
</mask>
<g mask="url(#mask0_16335_5208)">
<path d="M29.9993 0H-6.00067V24H29.9993V0Z" fill="white"/>
<path d="M29.9993 16.8896H-6.00067V24.0013H29.9993V16.8896Z" fill="#0072FE"/>
<path d="M29.9993 0H-6.00067V7.11168H29.9993V0Z" fill="#0072FE"/>
<path fill-rule="evenodd" clip-rule="evenodd" d="M9.02905 13.6601H14.8802L11.9553 8.60547L9.02905 13.6601Z" fill="#C8A400"/>
<path fill-rule="evenodd" clip-rule="evenodd" d="M9.18555 13.5707H14.7237L11.9553 8.78442L9.18555 13.5707Z" fill="#00E8FE"/>
<path fill-rule="evenodd" clip-rule="evenodd" d="M12.0224 8.90041L11.9553 11.2286L11.8882 8.90041L11.9553 8.78442L12.0224 8.90041Z" fill="white"/>
<path fill-rule="evenodd" clip-rule="evenodd" d="M12.0224 13.5707L11.9553 11.2285L11.8868 13.5707H12.0224Z" fill="white"/>
<path fill-rule="evenodd" clip-rule="evenodd" d="M10.5634 11.188L11.9553 11.2285L10.5173 11.2704L10.5634 11.188Z" fill="white"/>
<path fill-rule="evenodd" clip-rule="evenodd" d="M13.3458 11.188L11.9553 11.2285L13.3933 11.2704L13.3458 11.188Z" fill="white"/>
<path fill-rule="evenodd" clip-rule="evenodd" d="M11.7415 9.15332L11.9553 11.2286L11.6465 9.31682L11.7415 9.15332Z" fill="white"/>
<path fill-rule="evenodd" clip-rule="evenodd" d="M12.3326 13.5707L11.9553 11.2285L12.1957 13.5707H12.3326Z" fill="white"/>
<path fill-rule="evenodd" clip-rule="evenodd" d="M10.4517 11.3822L11.9553 11.2285L10.3958 11.4801L10.4517 11.3822Z" fill="white"/>
<path fill-rule="evenodd" clip-rule="evenodd" d="M13.248 11.0203L11.9553 11.2285L13.2899 11.0915L13.248 11.0203Z" fill="white"/>
<path fill-rule="evenodd" clip-rule="evenodd" d="M11.5431 9.49585L11.9553 11.2287L11.4732 9.61743L11.5431 9.49585Z" fill="white"/>
<path fill-rule="evenodd" clip-rule="evenodd" d="M12.6554 13.5707L11.9553 11.2285L12.5101 13.5707H12.6554Z" fill="white"/>
<path fill-rule="evenodd" clip-rule="evenodd" d="M10.3161 11.617L11.9553 11.2285L10.2448 11.74L10.3161 11.617Z" fill="white"/>
<path fill-rule="evenodd" clip-rule="evenodd" d="M13.1599 10.8682L11.9553 11.2287L13.1977 10.9338L13.1599 10.8682Z" fill="white"/>
<path fill-rule="evenodd" clip-rule="evenodd" d="M11.3935 9.75562L11.9553 11.2285L11.3376 9.85204L11.3935 9.75562Z" fill="white"/>
<path fill-rule="evenodd" clip-rule="evenodd" d="M13.0048 13.5707L11.9553 11.2285L12.8469 13.5707H13.0048Z" fill="white"/>
<path fill-rule="evenodd" clip-rule="evenodd" d="M10.1414 11.9203L11.9553 11.2285L10.045 12.0852L10.1414 11.9203Z" fill="white"/>
<path fill-rule="evenodd" clip-rule="evenodd" d="M13.0775 10.7256L11.9553 11.2287L13.1138 10.7871L13.0775 10.7256Z" fill="white"/>
<path fill-rule="evenodd" clip-rule="evenodd" d="M11.2719 9.96387L11.9553 11.2286L11.2258 10.0449L11.2719 9.96387Z" fill="white"/>
<path fill-rule="evenodd" clip-rule="evenodd" d="M13.3975 13.5707L11.9553 11.2285L13.2186 13.5707H13.3975Z" fill="white"/>
<path fill-rule="evenodd" clip-rule="evenodd" d="M9.89822 12.3381L11.9553 11.2285L9.75708 12.5827L9.89822 12.3381Z" fill="white"/>
<path fill-rule="evenodd" clip-rule="evenodd" d="M12.9964 10.5857L11.9553 11.2285L13.0328 10.6472L12.9964 10.5857Z" fill="white"/>
<path fill-rule="evenodd" clip-rule="evenodd" d="M11.1699 10.1414L11.9553 11.2286L11.128 10.214L11.1699 10.1414Z" fill="white"/>
<path fill-rule="evenodd" clip-rule="evenodd" d="M13.8615 13.5707L11.9553 11.2285L13.6476 13.5707H13.8615Z" fill="white"/>
<path fill-rule="evenodd" clip-rule="evenodd" d="M9.52513 12.9851L11.9553 11.2285L9.28058 13.4058L9.52513 12.9851Z" fill="white"/>
<path fill-rule="evenodd" clip-rule="evenodd" d="M12.9154 10.446L11.9553 11.2286L12.9517 10.5075L12.9154 10.446Z" fill="white"/>
<path fill-rule="evenodd" clip-rule="evenodd" d="M11.0777 10.3008L11.9553 11.2287L11.04 10.3651L11.0777 10.3008Z" fill="white"/>
<path fill-rule="evenodd" clip-rule="evenodd" d="M14.4358 13.5707L11.9553 11.2285L14.1661 13.5707H14.4358Z" fill="white"/>
<path fill-rule="evenodd" clip-rule="evenodd" d="M9.47479 13.5707L11.9553 11.2285L9.7445 13.5707H9.47479Z" fill="white"/>
<path fill-rule="evenodd" clip-rule="evenodd" d="M12.8315 10.3008L11.9553 11.2287L12.8693 10.3651L12.8315 10.3008Z" fill="white"/>
<path fill-rule="evenodd" clip-rule="evenodd" d="M10.9939 10.446L11.9553 11.2286L10.9575 10.5075L10.9939 10.446Z" fill="white"/>
<path fill-rule="evenodd" clip-rule="evenodd" d="M14.3841 12.9837L11.9553 11.2285L14.6273 13.4044L14.3841 12.9837Z" fill="white"/>
<path fill-rule="evenodd" clip-rule="evenodd" d="M10.0492 13.5707L11.9553 11.2285L10.263 13.5707H10.0492Z" fill="white"/>
<path fill-rule="evenodd" clip-rule="evenodd" d="M12.7393 10.1414L11.9553 11.2286L12.7812 10.2126L12.7393 10.1414Z" fill="white"/>
<path fill-rule="evenodd" clip-rule="evenodd" d="M10.9128 10.5857L11.9553 11.2285L10.8779 10.6472L10.9128 10.5857Z" fill="white"/>
<path fill-rule="evenodd" clip-rule="evenodd" d="M14.011 12.3381L11.9553 11.2285L14.1521 12.5827L14.011 12.3381Z" fill="white"/>
<path fill-rule="evenodd" clip-rule="evenodd" d="M10.5117 13.5707L11.9553 11.2285L10.6906 13.5707H10.5117Z" fill="white"/>
<path fill-rule="evenodd" clip-rule="evenodd" d="M12.6373 9.96387L11.9553 11.2286L12.6848 10.0449L12.6373 9.96387Z" fill="white"/>
<path fill-rule="evenodd" clip-rule="evenodd" d="M10.8318 10.7256L11.9553 11.2287L10.7968 10.7871L10.8318 10.7256Z" fill="white"/>
<path fill-rule="evenodd" clip-rule="evenodd" d="M13.7678 11.9189L11.9553 11.2285L13.8643 12.0838L13.7678 11.9189Z" fill="white"/>
<path fill-rule="evenodd" clip-rule="evenodd" d="M10.9058 13.5707L11.9553 11.2285L11.0623 13.5707H10.9058Z" fill="white"/>
<path fill-rule="evenodd" clip-rule="evenodd" d="M12.5157 9.75439L11.9553 11.2287L12.5716 9.85222L12.5157 9.75439Z" fill="white"/>
<path fill-rule="evenodd" clip-rule="evenodd" d="M10.7493 10.8682L11.9553 11.2287L10.7115 10.9338L10.7493 10.8682Z" fill="white"/>
<path fill-rule="evenodd" clip-rule="evenodd" d="M13.5945 11.617L11.9553 11.2285L13.6644 11.74L13.5945 11.617Z" fill="white"/>
<path fill-rule="evenodd" clip-rule="evenodd" d="M11.2552 13.5707L11.9553 11.2285L11.3991 13.5707H11.2552Z" fill="white"/>
<path fill-rule="evenodd" clip-rule="evenodd" d="M12.3662 9.49585L11.9553 11.2287L12.436 9.61743L12.3662 9.49585Z" fill="white"/>
<path fill-rule="evenodd" clip-rule="evenodd" d="M10.6612 11.0203L11.9553 11.2285L10.6193 11.0915L10.6612 11.0203Z" fill="white"/>
<path fill-rule="evenodd" clip-rule="evenodd" d="M13.4576 11.3822L11.9553 11.2285L13.5135 11.4801L13.4576 11.3822Z" fill="white"/>
<path fill-rule="evenodd" clip-rule="evenodd" d="M11.578 13.5707L11.9553 11.2285L11.715 13.5707H11.578Z" fill="white"/>
<path fill-rule="evenodd" clip-rule="evenodd" d="M12.1677 9.15186L11.9553 11.2285L12.2628 9.31676L12.1677 9.15186Z" fill="white"/>
<path fill-rule="evenodd" clip-rule="evenodd" d="M12.028 11.3613V12.4093H11.8826V11.3613C11.796 11.3543 11.6702 11.3319 11.673 11.276C11.68 11.1642 11.6926 11.0524 11.7149 10.9434C11.7121 10.942 11.7094 10.9392 11.7066 10.9364C11.6409 10.8707 11.7457 10.738 11.7932 10.6905C11.8086 10.6751 11.8253 10.6597 11.8421 10.6471C11.8463 10.6444 11.8505 10.6402 11.8561 10.6374C11.8854 10.6164 11.9204 10.6052 11.9567 10.6052C12.0685 10.6052 12.1426 10.71 12.1663 10.8079C12.2068 10.9602 12.2306 11.1181 12.239 11.276C12.2418 11.3319 12.116 11.3529 12.0294 11.3613H12.028Z" fill="white"/>
<path fill-rule="evenodd" clip-rule="evenodd" d="M11.9553 10.0479C12.2753 10.0479 12.5814 10.1429 12.8385 10.312L14.7237 13.5709H14.4596L13.002 11.0512C12.7854 10.6767 12.3871 10.4475 11.9553 10.4475C11.5235 10.4475 11.1238 10.6781 10.9086 11.0512L9.45107 13.5709H9.18695L11.0721 10.312C11.3293 10.1429 11.6353 10.0479 11.9553 10.0479Z" fill="#FF0000"/>
<path fill-rule="evenodd" clip-rule="evenodd" d="M11.9553 10.105C12.3061 10.105 12.6401 10.2238 12.907 10.4306L14.7237 13.5707H14.4596L13.002 11.0511C12.7854 10.6765 12.3871 10.4474 11.9553 10.4474C11.5235 10.4474 11.1238 10.6779 10.9086 11.0511L9.45107 13.5707H9.18695L11.0037 10.4306C11.272 10.2224 11.6046 10.105 11.9553 10.105Z" fill="#FF6600"/>
<path fill-rule="evenodd" clip-rule="evenodd" d="M11.9553 10.1609C12.3494 10.1609 12.7211 10.3146 12.995 10.5815L14.7237 13.5693H14.4596L13.002 11.0497C12.7854 10.6752 12.3871 10.446 11.9553 10.446C11.5235 10.446 11.1238 10.6766 10.9086 11.0497L9.45107 13.5693H9.18695L10.9156 10.5815C11.1909 10.316 11.5612 10.1609 11.9553 10.1609Z" fill="#FFCC00"/>
<path fill-rule="evenodd" clip-rule="evenodd" d="M11.9553 10.2182C12.4864 10.2182 12.9517 10.5061 13.2005 10.9351L14.7251 13.5693H14.461L13.0034 11.0497C12.7868 10.6752 12.3885 10.446 11.9567 10.446C11.5249 10.446 11.1252 10.6766 10.91 11.0497L9.45247 13.5693H9.18835L10.713 10.9351C10.9617 10.5061 11.4257 10.2168 11.9581 10.2168L11.9553 10.2182Z" fill="#33CC66"/>
<path fill-rule="evenodd" clip-rule="evenodd" d="M9.25121 13.5707H9.44825L10.9058 11.051C11.1224 10.6765 11.5207 10.4473 11.9525 10.4473C12.3843 10.4473 12.784 10.6779 12.9992 11.051L14.4568 13.5707H14.6538L13.1459 10.9658C12.8986 10.5396 12.4444 10.2769 11.9511 10.2769C11.4578 10.2769 11.0022 10.5396 10.7563 10.9658L9.24841 13.5707H9.25121Z" fill="#00E8FE"/>
<path fill-rule="evenodd" clip-rule="evenodd" d="M9.31829 13.5707H9.44965L10.9072 11.0511C11.1238 10.6765 11.5221 10.4474 11.9539 10.4474C12.3857 10.4474 12.7854 10.6779 13.0006 11.0511L14.4581 13.5707H14.5895L13.0984 10.9938C12.8622 10.5843 12.4262 10.3328 11.9525 10.3328C11.4788 10.3328 11.0428 10.5843 10.8066 10.9938L9.31549 13.5707H9.31829Z" fill="#003399"/>
<path fill-rule="evenodd" clip-rule="evenodd" d="M9.38396 13.5708H9.44964L10.9072 11.0511C11.1238 10.6766 11.5221 10.4474 11.9539 10.4474C12.3857 10.4474 12.7854 10.678 13.0006 11.0511L14.4581 13.5708H14.5238L13.0495 11.0218C12.8231 10.6305 12.4067 10.3901 11.9525 10.3901C11.4983 10.3901 11.0819 10.6305 10.8555 11.0218L9.38116 13.5708H9.38396Z" fill="#9900FF"/>
<path fill-rule="evenodd" clip-rule="evenodd" d="M12.1314 10.8179C12.1691 10.9562 12.1943 11.1127 12.204 11.279C12.2012 11.2511 12.0908 11.2287 11.9539 11.2287C11.8169 11.2287 11.7079 11.2511 11.7051 11.279C11.7121 11.1532 11.7289 11.0345 11.7513 10.9241C11.7415 10.9241 11.7345 10.9199 11.7289 10.9143C11.6982 10.8835 11.7359 10.7941 11.8155 10.7158C11.8309 10.7005 11.8463 10.6865 11.8617 10.6753C11.8658 10.6725 11.8686 10.6697 11.8728 10.6669C11.898 10.6502 11.9259 10.6404 11.9553 10.6404C12.0377 10.6404 12.1076 10.7144 12.1328 10.8193L12.1314 10.8179Z" fill="#FF0000"/>
<path fill-rule="evenodd" clip-rule="evenodd" d="M11.7051 11.2776C11.7121 11.1532 11.7289 11.0344 11.7513 10.924C11.7904 10.9282 11.8547 10.8961 11.9162 10.8374C11.8044 10.9562 11.7275 11.1085 11.7051 11.2776Z" fill="#9A0000"/>
<path fill-rule="evenodd" clip-rule="evenodd" d="M11.9553 11.3319C12.0922 11.3319 12.2054 11.3082 12.2054 11.2802C12.2054 11.2523 12.0936 11.2285 11.9553 11.2285C11.8169 11.2285 11.7051 11.2523 11.7051 11.2802C11.7051 11.3082 11.8169 11.3319 11.9553 11.3319Z" fill="#9A0000"/>
<path fill-rule="evenodd" clip-rule="evenodd" d="M11.9945 11.2285V12.3758H11.9148V11.2285C11.9274 11.2285 11.9413 11.2285 11.9539 11.2285C11.9665 11.2285 11.9805 11.2285 11.9931 11.2285H11.9945Z" fill="#0072FE"/>
<path fill-rule="evenodd" clip-rule="evenodd" d="M11.9945 11.2285V11.3305L11.9148 11.3766V11.2285C11.9274 11.2285 11.9413 11.2285 11.9539 11.2285C11.9665 11.2285 11.9805 11.2285 11.9931 11.2285H11.9945Z" fill="#003399"/>
<path fill-rule="evenodd" clip-rule="evenodd" d="M9.95557 12.2389C9.97513 12.2445 9.9933 12.2514 10.0129 12.2584C10.0981 12.292 10.1931 12.3115 10.291 12.3115C10.3888 12.3115 10.4824 12.2934 10.5677 12.2584C10.6529 12.2249 10.7465 12.2053 10.8457 12.2053C10.945 12.2053 11.0372 12.2235 11.1224 12.2584C11.2077 12.292 11.3027 12.3115 11.4005 12.3115C11.4984 12.3115 11.592 12.2934 11.6786 12.2584C11.7653 12.2249 11.8575 12.2053 11.9567 12.2053C12.056 12.2053 12.1482 12.2235 12.2348 12.2584C12.3201 12.292 12.4151 12.3115 12.5129 12.3115C12.6107 12.3115 12.7044 12.2934 12.791 12.2584C12.8763 12.2249 12.9699 12.2053 13.0677 12.2053C13.1655 12.2053 13.2592 12.2235 13.3458 12.2584C13.4311 12.292 13.5261 12.3115 13.6225 12.3115C13.7189 12.3115 13.814 12.2934 13.9006 12.2584C13.9188 12.2514 13.9383 12.2445 13.9579 12.2389L14.7279 13.5692H9.18976L9.95976 12.2389H9.95557Z" fill="#003399"/>
<path fill-rule="evenodd" clip-rule="evenodd" d="M9.90805 12.3228C9.94438 12.3312 9.97932 12.3424 10.0129 12.3549C10.0981 12.3885 10.1931 12.408 10.291 12.408C10.3888 12.408 10.4824 12.3899 10.5676 12.3549C10.6529 12.3214 10.7465 12.3032 10.8457 12.3032C10.945 12.3032 11.0372 12.3214 11.1224 12.3549C11.2077 12.3885 11.3027 12.408 11.4005 12.408C11.4984 12.408 11.592 12.3899 11.6786 12.3549C11.7653 12.3214 11.8575 12.3032 11.9567 12.3032C12.0559 12.3032 12.1482 12.3214 12.2348 12.3549C12.3201 12.3885 12.4151 12.408 12.5129 12.408C12.6107 12.408 12.7044 12.3899 12.791 12.3549C12.8763 12.3214 12.9699 12.3032 13.0677 12.3032C13.1655 12.3032 13.2592 12.3214 13.3458 12.3549C13.431 12.3885 13.5261 12.408 13.6225 12.408C13.7189 12.408 13.814 12.3899 13.9006 12.3549C13.9341 12.341 13.9705 12.3312 14.0054 12.3228L14.7265 13.5707H9.18835L9.90945 12.3228H9.90805Z" fill="white"/>
<path fill-rule="evenodd" clip-rule="evenodd" d="M9.85774 12.4094C9.91225 12.4178 9.96395 12.4331 10.0129 12.4513C10.0981 12.4848 10.1931 12.5044 10.291 12.5044C10.3888 12.5044 10.4824 12.4862 10.5677 12.4513C10.6529 12.4178 10.7465 12.3982 10.8457 12.3982C10.945 12.3982 11.0372 12.4164 11.1224 12.4513C11.2077 12.4848 11.3027 12.5044 11.4005 12.5044C11.4984 12.5044 11.592 12.4862 11.6786 12.4513C11.7653 12.4178 11.8575 12.3982 11.9567 12.3982C12.056 12.3982 12.1482 12.4164 12.2348 12.4513C12.3201 12.4848 12.4151 12.5044 12.5129 12.5044C12.6107 12.5044 12.7044 12.4862 12.791 12.4513C12.8763 12.4178 12.9699 12.3982 13.0677 12.3982C13.1655 12.3982 13.2592 12.4164 13.3458 12.4513C13.4311 12.4848 13.5261 12.5044 13.6225 12.5044C13.7189 12.5044 13.814 12.4862 13.9006 12.4513C13.9495 12.4317 14.0026 12.4178 14.0557 12.4094L14.7279 13.5707H9.18976L9.86194 12.4094H9.85774Z" fill="#003399"/>
<path fill-rule="evenodd" clip-rule="evenodd" d="M9.80603 12.4988C9.8787 12.5058 9.94857 12.5226 10.0129 12.5477C10.0981 12.5813 10.1931 12.6008 10.291 12.6008C10.3888 12.6008 10.4824 12.5827 10.5676 12.5477C10.6529 12.5142 10.7465 12.4946 10.8457 12.4946C10.945 12.4946 11.0372 12.5128 11.1224 12.5477C11.2077 12.5813 11.3027 12.6008 11.4005 12.6008C11.4984 12.6008 11.592 12.5827 11.6786 12.5477C11.7653 12.5142 11.8575 12.4946 11.9567 12.4946C12.0559 12.4946 12.1482 12.5128 12.2348 12.5477C12.3201 12.5813 12.4151 12.6008 12.5129 12.6008C12.6107 12.6008 12.7044 12.5827 12.791 12.5477C12.8763 12.5142 12.9699 12.4946 13.0677 12.4946C13.1655 12.4946 13.2592 12.5128 13.3458 12.5477C13.431 12.5813 13.5261 12.6008 13.6225 12.6008C13.7189 12.6008 13.814 12.5827 13.9006 12.5477C13.9663 12.5226 14.0347 12.5058 14.1074 12.4988L14.7265 13.5693H9.18835L9.80743 12.4988H9.80603Z" fill="white"/>
<path fill-rule="evenodd" clip-rule="evenodd" d="M9.75154 12.5925C9.84377 12.5939 9.93181 12.6135 10.0129 12.6442C10.0981 12.6778 10.1931 12.6973 10.291 12.6973C10.3888 12.6973 10.4824 12.6792 10.5677 12.6442C10.6529 12.6107 10.7465 12.5925 10.8457 12.5925C10.945 12.5925 11.0372 12.6107 11.1224 12.6442C11.2077 12.6778 11.3027 12.6973 11.4005 12.6973C11.4984 12.6973 11.592 12.6792 11.6786 12.6442C11.7653 12.6107 11.8575 12.5925 11.9567 12.5925C12.056 12.5925 12.1482 12.6107 12.2348 12.6442C12.3201 12.6778 12.4151 12.6973 12.5129 12.6973C12.6107 12.6973 12.7044 12.6792 12.791 12.6442C12.8763 12.6107 12.9699 12.5925 13.0677 12.5925C13.1655 12.5925 13.2592 12.6107 13.3458 12.6442C13.4311 12.6778 13.5261 12.6973 13.6225 12.6973C13.7189 12.6973 13.814 12.6792 13.9006 12.6442C13.9817 12.6121 14.0697 12.5939 14.1619 12.5925L14.7279 13.5708H9.18976L9.75573 12.5925H9.75154Z" fill="#003399"/>
<path fill-rule="evenodd" clip-rule="evenodd" d="M9.69558 12.6904C9.70816 12.6904 9.72214 12.6904 9.73611 12.6904C9.83393 12.6904 9.92756 12.7086 10.0142 12.7435C10.0995 12.7771 10.1945 12.7966 10.2923 12.7966C10.3901 12.7966 10.4838 12.7785 10.569 12.7435C10.6542 12.71 10.7479 12.6904 10.8471 12.6904C10.9463 12.6904 11.0385 12.7086 11.1238 12.7435C11.209 12.7771 11.3041 12.7966 11.4019 12.7966C11.4997 12.7966 11.5933 12.7785 11.68 12.7435C11.7666 12.71 11.8589 12.6904 11.9581 12.6904C12.0573 12.6904 12.1495 12.7086 12.2362 12.7435C12.3214 12.7771 12.4164 12.7966 12.5143 12.7966C12.6121 12.7966 12.7057 12.7785 12.7924 12.7435C12.8776 12.71 12.9712 12.6904 13.0691 12.6904C13.1669 12.6904 13.2605 12.7086 13.3472 12.7435C13.4324 12.7771 13.5274 12.7966 13.6238 12.7966C13.7203 12.7966 13.8153 12.7785 13.9019 12.7435C13.9872 12.71 14.0808 12.6904 14.1786 12.6904C14.1926 12.6904 14.2052 12.6904 14.2192 12.6904L14.7292 13.5708H9.1911L9.70117 12.6904H9.69558Z" fill="white"/>
<path fill-rule="evenodd" clip-rule="evenodd" d="M9.63695 12.7909C9.66909 12.7867 9.70263 12.7839 9.73617 12.7839C9.83399 12.7839 9.92762 12.8021 10.0143 12.837C10.0995 12.8706 10.1945 12.8901 10.2924 12.8901C10.3902 12.8901 10.4838 12.872 10.5691 12.837C10.6543 12.8035 10.7479 12.7839 10.8471 12.7839C10.9464 12.7839 11.0386 12.8021 11.1238 12.837C11.2091 12.8706 11.3041 12.8901 11.4019 12.8901C11.4998 12.8901 11.5934 12.872 11.68 12.837C11.7667 12.8035 11.8589 12.7839 11.9581 12.7839C12.0573 12.7839 12.1496 12.8021 12.2362 12.837C12.3215 12.8706 12.4165 12.8901 12.5143 12.8901C12.6121 12.8901 12.7058 12.872 12.7924 12.837C12.8777 12.8035 12.9713 12.7839 13.0691 12.7839C13.1669 12.7839 13.2606 12.8021 13.3472 12.837C13.4325 12.8706 13.5275 12.8901 13.6239 12.8901C13.7203 12.8901 13.8154 12.872 13.902 12.837C13.9872 12.8035 14.0809 12.7839 14.1787 12.7839C14.2122 12.7839 14.2458 12.7867 14.2779 12.7909L14.7279 13.5693H9.18976L9.63974 12.7909H9.63695Z" fill="#003399"/>
<path fill-rule="evenodd" clip-rule="evenodd" d="M9.57405 12.8986C9.62576 12.8874 9.68026 12.8818 9.73476 12.8818C9.83258 12.8818 9.92621 12.9 10.0129 12.9349C10.0981 12.9685 10.1931 12.988 10.291 12.988C10.3888 12.988 10.4824 12.9699 10.5676 12.9349C10.6529 12.9014 10.7465 12.8818 10.8457 12.8818C10.945 12.8818 11.0372 12.9 11.1224 12.9349C11.2077 12.9685 11.3027 12.988 11.4005 12.988C11.4984 12.988 11.592 12.9699 11.6786 12.9349C11.7653 12.9014 11.8575 12.8818 11.9567 12.8818C12.0559 12.8818 12.1482 12.9 12.2348 12.9349C12.3201 12.9685 12.4151 12.988 12.5129 12.988C12.6107 12.988 12.7044 12.9699 12.791 12.9349C12.8763 12.9014 12.9699 12.8818 13.0677 12.8818C13.1655 12.8818 13.2592 12.9 13.3458 12.9349C13.431 12.9685 13.5261 12.988 13.6225 12.988C13.7189 12.988 13.814 12.9699 13.9006 12.9349C13.9858 12.9014 14.0795 12.8818 14.1773 12.8818C14.2332 12.8818 14.2863 12.8874 14.338 12.8986L14.7265 13.5708H9.18835L9.57685 12.8986H9.57405Z" fill="white"/>
<path fill-rule="evenodd" clip-rule="evenodd" d="M9.50837 13.0132C9.57964 12.9908 9.6565 12.9783 9.73476 12.9783C9.83258 12.9783 9.92621 12.9964 10.0129 13.0314C10.0981 13.0649 10.1931 13.0845 10.291 13.0845C10.3888 13.0845 10.4824 13.0663 10.5676 13.0314C10.6529 12.9978 10.7465 12.9783 10.8457 12.9783C10.945 12.9783 11.0372 12.9964 11.1224 13.0314C11.2077 13.0649 11.3027 13.0845 11.4005 13.0845C11.4984 13.0845 11.592 13.0663 11.6786 13.0314C11.7653 12.9978 11.8575 12.9783 11.9567 12.9783C12.0559 12.9783 12.1482 12.9964 12.2348 13.0314C12.3201 13.0649 12.4151 13.0845 12.5129 13.0845C12.6107 13.0845 12.7044 13.0663 12.791 13.0314C12.8763 12.9978 12.9699 12.9783 13.0677 12.9783C13.1655 12.9783 13.2592 12.9964 13.3458 13.0314C13.431 13.0649 13.5261 13.0845 13.6225 13.0845C13.7189 13.0845 13.814 13.0663 13.9006 13.0314C13.9858 12.9978 14.0795 12.9783 14.1773 12.9783C14.2569 12.9783 14.3324 12.9908 14.4037 13.0132L14.7265 13.5708H9.18835L9.51117 13.0132H9.50837Z" fill="#003399"/>
<path fill-rule="evenodd" clip-rule="evenodd" d="M13.1236 11.8953L14.412 13.1823H11.6814L12.9699 11.8953H13.1236Z" fill="#FED700"/>
<path fill-rule="evenodd" clip-rule="evenodd" d="M11.6814 13.1823L12.9699 11.8953L14.2569 13.1823H11.6814Z" fill="#007C29"/>
<path fill-rule="evenodd" clip-rule="evenodd" d="M12.8036 11.8953L14.092 13.1823H11.3614L12.6498 11.8953H12.8036Z" fill="#FED700"/>
<path fill-rule="evenodd" clip-rule="evenodd" d="M11.3614 13.1823L12.6498 11.8953L13.9369 13.1823H11.3614Z" fill="#007C29"/>
<path fill-rule="evenodd" clip-rule="evenodd" d="M12.3997 11.8101L13.772 13.1824H10.8024L12.1747 11.8101H12.3997Z" fill="#FED700"/>
<path fill-rule="evenodd" clip-rule="evenodd" d="M10.8024 13.1824L12.1747 11.8101L13.547 13.1824H10.8024Z" fill="#007C29"/>
<path fill-rule="evenodd" clip-rule="evenodd" d="M11.9357 11.7358L13.3821 13.1822H10.2657L11.7121 11.7358H11.9357Z" fill="#FED700"/>
<path fill-rule="evenodd" clip-rule="evenodd" d="M10.2657 13.1822L11.7121 11.7358L13.1571 13.1822H10.2657Z" fill="#007C29"/>
<path fill-rule="evenodd" clip-rule="evenodd" d="M11.3195 11.585L12.9182 13.1823H9.49719L11.0959 11.585H11.3195Z" fill="#007C29"/>
<path fill-rule="evenodd" clip-rule="evenodd" d="M11.3195 11.585L12.9182 13.1823H11.6046L11.0498 12.6275H10.277L11.3432 12.0126H10.8919L11.3195 11.585Z" fill="#FED700"/>
<path fill-rule="evenodd" clip-rule="evenodd" d="M11.2762 12.2458L10.9072 12.4583H11.1979L11.9204 13.1821H12.2125L11.2762 12.2458Z" fill="#007C29"/>
<path fill-rule="evenodd" clip-rule="evenodd" d="M11.3432 12.0127H11.5333L12.7043 13.1824H12.5129L11.3432 12.0127Z" fill="#007C29"/>
<path fill-rule="evenodd" clip-rule="evenodd" d="M9.43851 13.1348C9.43851 13.1348 9.45248 13.1292 9.45807 13.1278C9.54471 13.0943 9.63695 13.0747 9.73477 13.0747C9.83259 13.0747 9.92622 13.0929 10.0129 13.1278C10.0981 13.1614 10.1931 13.1809 10.291 13.1809C10.3888 13.1809 10.4824 13.1627 10.5677 13.1278C10.6529 13.0943 10.7465 13.0747 10.8457 13.0747C10.945 13.0747 11.0372 13.0929 11.1224 13.1278C11.2077 13.1614 11.3027 13.1809 11.4005 13.1809C11.4984 13.1809 11.592 13.1627 11.6786 13.1278C11.7653 13.0943 11.8575 13.0747 11.9567 13.0747C12.056 13.0747 12.1482 13.0929 12.2348 13.1278C12.3201 13.1614 12.4151 13.1809 12.5129 13.1809C12.6107 13.1809 12.7044 13.1627 12.791 13.1278C12.8763 13.0943 12.9699 13.0747 13.0677 13.0747C13.1655 13.0747 13.2592 13.0929 13.3458 13.1278C13.4311 13.1614 13.5261 13.1809 13.6225 13.1809C13.7189 13.1809 13.814 13.1627 13.9006 13.1278C13.9858 13.0943 14.0795 13.0747 14.1773 13.0747C14.2751 13.0747 14.3688 13.0929 14.4554 13.1278C14.4624 13.1306 14.468 13.1334 14.475 13.1348L14.7279 13.5708H9.18976L9.4413 13.1348H9.43851Z" fill="white"/>
<path fill-rule="evenodd" clip-rule="evenodd" d="M9.37003 13.2522C9.40078 13.2438 9.43012 13.2354 9.45807 13.2242C9.54471 13.1907 9.63695 13.1711 9.73477 13.1711C9.83259 13.1711 9.92622 13.1893 10.0129 13.2242C10.0981 13.2578 10.1931 13.2773 10.291 13.2773C10.3888 13.2773 10.4824 13.2592 10.5677 13.2242C10.6529 13.1907 10.7465 13.1711 10.8457 13.1711C10.945 13.1711 11.0372 13.1893 11.1224 13.2242C11.2077 13.2578 11.3027 13.2773 11.4005 13.2773C11.4984 13.2773 11.592 13.2592 11.6786 13.2242C11.7653 13.1907 11.8575 13.1711 11.9567 13.1711C12.056 13.1711 12.1482 13.1893 12.2348 13.2242C12.3201 13.2578 12.4151 13.2773 12.5129 13.2773C12.6107 13.2773 12.7044 13.2592 12.791 13.2242C12.8763 13.1907 12.9699 13.1711 13.0677 13.1711C13.1655 13.1711 13.2592 13.1893 13.3458 13.2242C13.4311 13.2578 13.5261 13.2773 13.6225 13.2773C13.7189 13.2773 13.814 13.2592 13.9006 13.2242C13.9858 13.1907 14.0795 13.1711 14.1773 13.1711C14.2751 13.1711 14.3688 13.1893 14.4554 13.2242C14.4833 13.2354 14.5127 13.2452 14.5434 13.2522L14.7279 13.5708H9.18976L9.37422 13.2522H9.37003Z" fill="#003399"/>
<path fill-rule="evenodd" clip-rule="evenodd" d="M9.30714 13.3611C9.36024 13.3528 9.41055 13.3388 9.45806 13.3192C9.54471 13.2857 9.63694 13.2661 9.73476 13.2661C9.83258 13.2661 9.92621 13.2843 10.0129 13.3192C10.0981 13.3528 10.1931 13.3723 10.291 13.3723C10.3888 13.3723 10.4824 13.3542 10.5676 13.3192C10.6529 13.2857 10.7465 13.2661 10.8457 13.2661C10.945 13.2661 11.0372 13.2843 11.1224 13.3192C11.2077 13.3528 11.3027 13.3723 11.4005 13.3723C11.4984 13.3723 11.592 13.3542 11.6786 13.3192C11.7653 13.2857 11.8575 13.2661 11.9567 13.2661C12.0559 13.2661 12.1482 13.2843 12.2348 13.3192C12.3201 13.3528 12.4151 13.3723 12.5129 13.3723C12.6107 13.3723 12.7044 13.3542 12.791 13.3192C12.8763 13.2857 12.9699 13.2661 13.0677 13.2661C13.1655 13.2661 13.2592 13.2843 13.3458 13.3192C13.431 13.3528 13.5261 13.3723 13.6225 13.3723C13.7189 13.3723 13.814 13.3542 13.9006 13.3192C13.9858 13.2857 14.0795 13.2661 14.1773 13.2661C14.2751 13.2661 14.3687 13.2843 14.4554 13.3192C14.5043 13.3388 14.5546 13.3528 14.6063 13.3611L14.7265 13.5694H9.18835L9.30854 13.3611H9.30714Z" fill="white"/>
<path fill-rule="evenodd" clip-rule="evenodd" d="M9.24564 13.466C9.31971 13.4604 9.39098 13.4423 9.45666 13.4171C9.5433 13.3836 9.63554 13.364 9.73336 13.364C9.83118 13.364 9.92481 13.3822 10.0115 13.4171C10.0967 13.4507 10.1917 13.4702 10.2895 13.4702C10.3874 13.4702 10.481 13.4521 10.5662 13.4171C10.6515 13.3836 10.7451 13.364 10.8443 13.364C10.9436 13.364 11.0358 13.3822 11.121 13.4171C11.2063 13.4507 11.3013 13.4702 11.3991 13.4702C11.497 13.4702 11.5906 13.4521 11.6772 13.4171C11.7639 13.3836 11.8561 13.364 11.9553 13.364C12.0545 13.364 12.1468 13.3822 12.2334 13.4171C12.3187 13.4507 12.4137 13.4702 12.5115 13.4702C12.6093 13.4702 12.703 13.4521 12.7896 13.4171C12.8749 13.3836 12.9685 13.364 13.0663 13.364C13.1641 13.364 13.2578 13.3822 13.3444 13.4171C13.4296 13.4507 13.5247 13.4702 13.6211 13.4702C13.7175 13.4702 13.8125 13.4521 13.8992 13.4171C13.9844 13.3836 14.0781 13.364 14.1759 13.364C14.2737 13.364 14.3673 13.3822 14.454 13.4171C14.5211 13.4437 14.5909 13.4604 14.665 13.466L14.7251 13.5708H9.18695L9.24704 13.466H9.24564Z" fill="#003399"/>
<path fill-rule="evenodd" clip-rule="evenodd" d="M8.40575 11.8952L7.90546 11.8575L7.92223 11.6353C7.92502 11.5906 7.93341 11.5571 7.94319 11.5347C7.95437 11.5123 7.97114 11.4956 7.99489 11.483C8.01865 11.4704 8.04381 11.4662 8.07175 11.4676C8.10669 11.4704 8.13604 11.4844 8.1584 11.5095C8.18076 11.5347 8.19333 11.571 8.19613 11.6199C8.20591 11.6032 8.21569 11.5906 8.22408 11.5822C8.24364 11.564 8.2674 11.5473 8.29535 11.5319L8.43789 11.4564L8.4323 11.5389L8.3233 11.5976C8.29116 11.6144 8.2674 11.6283 8.25063 11.6395C8.23386 11.6507 8.22128 11.6619 8.2143 11.6703C8.20731 11.68 8.20172 11.6898 8.19892 11.6996C8.19753 11.7066 8.19473 11.7192 8.19333 11.7359L8.18774 11.8128L8.40994 11.8296L8.40435 11.8952H8.40575ZM8.13185 11.8086L8.14303 11.6661C8.14582 11.6353 8.14303 11.6116 8.13883 11.5948C8.13324 11.578 8.12486 11.564 8.11228 11.5543C8.0997 11.5445 8.08433 11.5389 8.06896 11.5375C8.0452 11.5361 8.02564 11.5431 8.00887 11.5585C7.9921 11.5738 7.98232 11.6004 7.97952 11.6381L7.96694 11.796L8.13185 11.8086ZM8.47003 11.3195L7.98232 11.2063L8.06337 10.8541L8.12067 10.8667L8.05359 11.1546L8.20312 11.1895L8.266 10.9198L8.3233 10.9338L8.26041 11.2035L8.42671 11.2412L8.49519 10.9422L8.55248 10.9548L8.46863 11.3195H8.47003ZM8.61257 10.7968L8.14582 10.6124L8.21569 10.4363C8.22827 10.4056 8.23945 10.3818 8.24783 10.3678C8.26041 10.3469 8.27578 10.3301 8.29255 10.3189C8.30932 10.3077 8.32889 10.3007 8.35264 10.2993C8.375 10.2979 8.39876 10.3007 8.42112 10.3105C8.46025 10.3259 8.4896 10.3524 8.50636 10.3874C8.52453 10.4237 8.51894 10.474 8.49379 10.5411L8.44627 10.6613L8.63633 10.7367L8.61257 10.7982V10.7968ZM8.39177 10.6389L8.43929 10.5187C8.45466 10.4782 8.45885 10.4475 8.45047 10.4251C8.44208 10.4028 8.42531 10.386 8.39736 10.3748C8.3778 10.3678 8.35963 10.365 8.34146 10.3692C8.3233 10.3734 8.30932 10.3832 8.29814 10.3972C8.29116 10.4069 8.28277 10.4251 8.27159 10.4531L8.22408 10.5718L8.39038 10.6375L8.39177 10.6389ZM8.58043 9.75014L8.61676 9.69424L8.85992 9.85076C8.90185 9.87731 8.93259 9.90386 8.95215 9.93041C8.97032 9.95557 8.9801 9.98631 8.9801 10.0212C8.9801 10.0562 8.96613 10.0939 8.94098 10.1344C8.91582 10.1736 8.88787 10.2015 8.85853 10.2183C8.82918 10.2351 8.79704 10.2393 8.7649 10.2337C8.73275 10.2281 8.69362 10.2113 8.64891 10.182L8.40575 10.0254L8.44208 9.96954L8.68524 10.1261C8.72157 10.1498 8.75092 10.1638 8.77328 10.168C8.79564 10.1722 8.8152 10.1694 8.83617 10.1582C8.85573 10.1484 8.8739 10.1303 8.88927 10.1065C8.91582 10.066 8.92421 10.031 8.91722 10.0017C8.91023 9.97234 8.87949 9.9402 8.82638 9.90666L8.58323 9.75014H8.58043ZM9.14221 9.81303L9.26798 9.66909C9.28894 9.64533 9.30432 9.62297 9.3141 9.60201C9.32388 9.58245 9.32947 9.56288 9.33087 9.54471C9.33087 9.52655 9.32807 9.50698 9.31969 9.48602C9.3113 9.46506 9.29733 9.44689 9.27916 9.43152C9.2568 9.41196 9.23304 9.40217 9.20649 9.40078C9.17994 9.39938 9.15339 9.40637 9.12684 9.42314C9.13382 9.39798 9.13382 9.37422 9.12684 9.35326C9.11985 9.3323 9.10867 9.31413 9.0919 9.30016C9.07373 9.28479 9.05417 9.275 9.02902 9.27221C9.00386 9.26802 8.9815 9.27221 8.95774 9.28199C8.93539 9.29317 8.91163 9.31274 8.88647 9.34208L8.7635 9.48462L9.14221 9.81303ZM8.96613 9.57266L8.85154 9.47344L8.91722 9.39798C8.94098 9.37143 8.95914 9.35326 8.97172 9.34488C8.9843 9.33649 8.99967 9.3337 9.01364 9.33649C9.02902 9.33929 9.04159 9.34488 9.05417 9.35606C9.06814 9.36724 9.07513 9.37981 9.07932 9.39379C9.08212 9.40776 9.07932 9.42314 9.07373 9.43851C9.06814 9.45108 9.05557 9.46785 9.036 9.49021L8.96473 9.57266H8.96613ZM9.14081 9.72499L9.01085 9.61179L9.08631 9.52375C9.10727 9.5 9.12544 9.48323 9.14081 9.47344C9.15618 9.46366 9.17295 9.46087 9.18833 9.46226C9.2051 9.46366 9.22047 9.47065 9.23444 9.48323C9.24702 9.49441 9.2554 9.50559 9.2596 9.51816C9.26519 9.53074 9.26658 9.54332 9.26379 9.55589C9.26239 9.56847 9.2568 9.58105 9.24981 9.59363C9.24562 9.60201 9.23584 9.61319 9.22186 9.62996L9.13942 9.72499H9.14081ZM9.50555 9.40916L9.17715 9.03045L9.22745 8.98713L9.51673 9.32112L9.70259 9.15902L9.74172 9.20373L9.50555 9.40916ZM9.87308 9.10451L9.92758 9.06539L9.63691 8.65733L9.58241 8.69646L9.87308 9.10451ZM10.3077 8.62658L10.3734 8.60842C10.3887 8.66292 10.3873 8.71043 10.3706 8.75375C10.3538 8.79707 10.3231 8.83061 10.2769 8.85716C10.2308 8.88372 10.1861 8.89629 10.147 8.8935C10.1065 8.8907 10.0687 8.87673 10.0324 8.84878C9.99606 8.82083 9.96671 8.78729 9.94296 8.74537C9.9164 8.70065 9.90243 8.65593 9.90103 8.61261C9.89963 8.56929 9.90942 8.52876 9.93038 8.49382C9.95274 8.45749 9.98208 8.42954 10.0212 8.40718C10.0645 8.38203 10.1079 8.37224 10.1498 8.37783C10.1917 8.38342 10.2308 8.40159 10.2658 8.43513L10.2169 8.48125C10.1889 8.45469 10.161 8.44072 10.133 8.43793C10.1051 8.43373 10.0771 8.44072 10.0478 8.45749C10.0142 8.47705 9.99187 8.50081 9.97789 8.53016C9.96531 8.5595 9.96112 8.59025 9.96811 8.62099C9.9751 8.65313 9.98628 8.68388 10.003 8.71183C10.024 8.74816 10.0478 8.77751 10.0743 8.79987C10.1009 8.82083 10.1288 8.83201 10.1596 8.83341C10.1903 8.83341 10.2183 8.82642 10.2448 8.81105C10.2769 8.79288 10.2993 8.76773 10.3105 8.73698C10.3217 8.70624 10.3217 8.6699 10.3077 8.62798V8.62658ZM10.5509 8.71043L10.5453 8.17381L10.6137 8.14725L10.9869 8.53854L10.917 8.56649L10.808 8.44631L10.6123 8.52317L10.6179 8.68388L10.5522 8.70903L10.5509 8.71043ZM10.6095 8.46587L10.7689 8.40299L10.6696 8.29259C10.6389 8.25905 10.6151 8.2311 10.5984 8.20874C10.604 8.24228 10.6067 8.27442 10.6081 8.30936L10.6109 8.46587H10.6095ZM11.4578 8.43932L11.4201 7.93903L11.592 7.92645C11.6311 7.92366 11.6604 7.92366 11.6814 7.92645C11.7107 7.93065 11.7359 7.94043 11.7569 7.9572C11.7848 7.97816 11.8072 8.00471 11.8225 8.03825C11.8379 8.07179 11.8477 8.11092 11.8519 8.15564C11.8547 8.19337 11.8519 8.22691 11.8463 8.25765C11.8393 8.287 11.8295 8.31215 11.8183 8.33312C11.8058 8.35408 11.7918 8.36945 11.7764 8.38203C11.7611 8.3946 11.7415 8.40439 11.7191 8.41137C11.6968 8.41836 11.6702 8.42395 11.6395 8.42535L11.4592 8.43932H11.4578ZM11.5193 8.37504L11.6255 8.36665C11.659 8.36386 11.6842 8.35967 11.7024 8.35128C11.7205 8.34429 11.7345 8.33451 11.7457 8.32194C11.7597 8.30517 11.7708 8.28281 11.7778 8.25626C11.7848 8.2297 11.7862 8.19616 11.7834 8.15843C11.7792 8.10673 11.768 8.0662 11.7485 8.03965C11.7289 8.0131 11.7066 7.99493 11.6814 7.98794C11.6632 7.98235 11.6339 7.98096 11.5948 7.98375L11.4899 7.99213L11.5193 8.37504ZM12.0391 8.40019L12.0769 7.8999L12.4374 7.92785L12.4332 7.98655L12.1384 7.96419L12.1272 8.11791L12.4025 8.13887L12.3983 8.19756L12.123 8.1766L12.1104 8.34709L12.4165 8.37085L12.4123 8.42954L12.0391 8.40159V8.40019ZM12.9587 8.53016L13.1194 8.05502L13.1837 8.07738L13.3066 8.53435L13.4324 8.16123L13.4925 8.18219L13.3318 8.65733L13.2675 8.63497L13.1445 8.178L13.0188 8.55112L12.9587 8.53016ZM13.5135 8.73978L13.7203 8.28281L13.7804 8.31076L13.5736 8.76773L13.5135 8.73978ZM14.1423 8.89629L14.1898 8.9466C14.1493 8.98433 14.1046 9.00669 14.0599 9.01088C14.0138 9.01508 13.969 9.0039 13.9257 8.97595C13.881 8.9466 13.8489 8.91446 13.8335 8.87673C13.8167 8.84039 13.8125 8.79987 13.8195 8.75515C13.8279 8.71043 13.8433 8.66851 13.8698 8.62798C13.8978 8.58466 13.9313 8.55112 13.969 8.52876C14.0068 8.5064 14.0473 8.49662 14.0878 8.50081C14.1297 8.50361 14.1689 8.51758 14.2066 8.54134C14.2485 8.56789 14.2779 8.60143 14.2919 8.64195C14.3072 8.68248 14.3072 8.7244 14.2933 8.77052L14.2304 8.74816C14.2401 8.71183 14.2401 8.67969 14.2304 8.65453C14.2206 8.62798 14.2024 8.60702 14.1731 8.58885C14.1409 8.56789 14.1088 8.55811 14.0766 8.5595C14.0445 8.5609 14.0166 8.57208 13.9914 8.59304C13.9662 8.61401 13.9439 8.63776 13.9257 8.66571C13.9034 8.70205 13.888 8.73698 13.881 8.76912C13.874 8.80266 13.8782 8.83341 13.8908 8.85996C13.9048 8.88791 13.9243 8.90887 13.9495 8.92564C13.9802 8.9452 14.0124 8.95359 14.0459 8.9494C14.0794 8.9452 14.1102 8.92843 14.1409 8.89769L14.1423 8.89629ZM14.187 9.13945L14.2401 9.18557L14.3813 9.10591L14.5406 9.24426L14.4847 9.39658L14.542 9.44549L14.7167 8.93263L14.6622 8.88511L14.1884 9.13805L14.187 9.13945ZM14.4302 9.07936L14.5686 9.0039C14.5979 8.98713 14.6258 8.96896 14.6524 8.9494C14.6412 8.97595 14.6272 9.00949 14.6105 9.05141L14.5588 9.19116L14.4302 9.07936ZM14.6286 9.54471L15.0074 9.21631L15.1527 9.38401C15.182 9.41755 15.2002 9.44689 15.2086 9.46925C15.217 9.49301 15.217 9.51677 15.2086 9.54192C15.2002 9.56707 15.1862 9.58943 15.1653 9.6076C15.1387 9.63136 15.108 9.64114 15.0744 9.63974C15.0409 9.63834 15.006 9.62158 14.9696 9.58943C14.9752 9.609 14.9766 9.62437 14.9766 9.63555C14.9766 9.6621 14.971 9.69005 14.9626 9.72079L14.9165 9.87591L14.862 9.81303L14.897 9.69424C14.9067 9.6607 14.9137 9.63275 14.9179 9.61319C14.9221 9.59363 14.9235 9.57686 14.9207 9.56568C14.9193 9.5545 14.9151 9.54332 14.9109 9.53353C14.9067 9.52655 14.8998 9.51677 14.8886 9.50419L14.8383 9.44549L14.6706 9.59083L14.6272 9.54052L14.6286 9.54471ZM14.883 9.41196L14.9766 9.51956C14.9962 9.54192 15.0143 9.55869 15.0297 9.56707C15.0451 9.57546 15.0619 9.57965 15.0772 9.57686C15.094 9.57406 15.108 9.56847 15.1205 9.55729C15.1387 9.54192 15.1471 9.52236 15.1485 9.5C15.1485 9.47764 15.1373 9.45108 15.1122 9.42314L15.0088 9.30295L14.883 9.41196ZM14.9668 9.94718L15.0018 10.0087L15.1611 9.98072L15.2659 10.1638L15.1625 10.2896L15.2002 10.3552L15.5328 9.92902L15.4965 9.86613L14.9668 9.94858V9.94718ZM15.217 9.96954L15.3721 9.94439C15.4056 9.9388 15.4378 9.93041 15.4699 9.92063C15.4503 9.94159 15.4266 9.96954 15.3972 10.0045L15.3022 10.1191L15.217 9.97094V9.96954ZM15.53 10.6138L15.5845 10.5928L15.6628 10.7899L15.4895 10.8583C15.4531 10.8374 15.4224 10.8136 15.3986 10.7857C15.3735 10.7577 15.3553 10.727 15.3413 10.6934C15.3232 10.6473 15.3162 10.6026 15.3218 10.5565C15.326 10.5118 15.3441 10.4712 15.3735 10.4377C15.4028 10.4042 15.4406 10.3776 15.4867 10.3594C15.5314 10.3413 15.5775 10.3343 15.625 10.3385C15.6711 10.3413 15.7117 10.358 15.7452 10.386C15.7788 10.4139 15.8039 10.4517 15.8221 10.4978C15.8347 10.5313 15.8416 10.5635 15.8416 10.5956C15.8416 10.6277 15.8347 10.6543 15.8207 10.6781C15.8067 10.7018 15.7857 10.7228 15.7578 10.7437L15.7201 10.6948C15.741 10.6781 15.7564 10.6627 15.7662 10.6473C15.776 10.6319 15.7802 10.6124 15.7815 10.59C15.7815 10.5677 15.7774 10.5453 15.769 10.5215C15.7578 10.4936 15.7438 10.4712 15.727 10.4531C15.7103 10.4363 15.6921 10.4237 15.6739 10.4167C15.6544 10.4097 15.6362 10.4056 15.6166 10.4056C15.5831 10.4056 15.5496 10.4111 15.516 10.4251C15.4741 10.4419 15.442 10.4628 15.4196 10.488C15.3972 10.5132 15.3847 10.5425 15.3819 10.5746C15.3791 10.6068 15.3833 10.6389 15.3958 10.6697C15.407 10.6962 15.4224 10.72 15.442 10.7409C15.4629 10.7619 15.4811 10.7773 15.4979 10.7857L15.5845 10.7507L15.53 10.6138ZM16.0331 11.258L16.0485 11.3223L15.7662 11.388C15.7173 11.3991 15.6767 11.4033 15.646 11.3977C15.6153 11.3936 15.5859 11.3782 15.5621 11.3544C15.537 11.3293 15.5188 11.2943 15.509 11.2468C15.4979 11.2007 15.4979 11.1616 15.5062 11.1294C15.516 11.0973 15.5328 11.0707 15.5607 11.0512C15.5873 11.0316 15.6264 11.0162 15.6781 11.0037L15.9604 10.938L15.9758 11.0023L15.6935 11.0679C15.6516 11.0777 15.6208 11.0889 15.6027 11.1015C15.5845 11.1141 15.5719 11.1308 15.5649 11.1532C15.558 11.1742 15.558 11.1993 15.5649 11.2273C15.5761 11.2748 15.5943 11.3055 15.6208 11.3209C15.6474 11.3363 15.6907 11.3363 15.7522 11.3209L16.0345 11.2552L16.0331 11.258ZM15.5733 11.5668L16.0876 11.7206L16.0932 11.7932L15.6083 12.035L15.6027 11.9595L15.7494 11.8897L15.734 11.6786L15.5789 11.6353L15.5733 11.5654V11.5668ZM15.7899 11.694L15.8025 11.8645L15.9367 11.8016C15.9772 11.782 16.0107 11.7681 16.0387 11.7583C16.0051 11.7541 15.973 11.7471 15.9409 11.7387L15.7899 11.6954V11.694Z" fill="#C8A400"/>
<path fill-rule="evenodd" clip-rule="evenodd" d="M8.13464 12.8399L8.19473 12.8273L8.23247 13.0146L8.17238 13.0271L8.13464 12.8399ZM8.2129 13.6113L8.74813 13.5638L8.78027 13.6295L8.41973 14.0333L8.38619 13.9648L8.49798 13.8461L8.40575 13.656L8.24504 13.6742L8.2143 13.6113H8.2129ZM8.46165 13.6504L8.53711 13.8041L8.63913 13.6965C8.66987 13.6644 8.69642 13.6378 8.71739 13.6183C8.68524 13.6267 8.6517 13.6322 8.61817 13.635L8.46165 13.6504ZM8.56366 14.2569L8.6014 14.3086L8.94517 14.0557L8.68664 14.4246L8.72158 14.4721L9.14641 14.3422L8.80822 14.5909L8.84595 14.6426L9.24982 14.3463L9.19671 14.2751L8.84455 14.3841C8.80962 14.3953 8.78167 14.4036 8.7635 14.4106C8.77328 14.3967 8.78866 14.3757 8.80962 14.3477L9.02483 14.0417L8.96613 13.962L8.56227 14.2583L8.56366 14.2569ZM9.06675 14.8788L9.41053 14.514L9.67325 14.7628L9.63272 14.8061L9.41751 14.6035L9.31131 14.7153L9.51254 14.9053L9.47201 14.9487L9.27078 14.7586L9.15339 14.883L9.37699 15.094L9.33646 15.1373L9.06535 14.8802L9.06675 14.8788ZM9.58102 15.326L9.63691 15.3623L9.7571 15.175L9.82138 15.217C9.83535 15.2267 9.84514 15.2337 9.85073 15.2393C9.85771 15.2477 9.8647 15.2561 9.86889 15.2673C9.87448 15.2785 9.87728 15.2938 9.87868 15.3134C9.88007 15.333 9.88147 15.3609 9.88147 15.3972V15.5202L9.94995 15.5649V15.4028C9.94995 15.3707 9.94715 15.3427 9.94156 15.3176C9.93877 15.3064 9.93178 15.291 9.922 15.2743C9.96672 15.2952 10.0044 15.3008 10.0366 15.2924C10.0687 15.284 10.0953 15.2659 10.1148 15.2351C10.1302 15.2114 10.1372 15.1876 10.1386 15.1611C10.1386 15.1345 10.133 15.1108 10.1176 15.0912C10.1023 15.0716 10.0771 15.0493 10.0394 15.0241L9.85212 14.9039L9.58102 15.326ZM9.78784 15.1275L9.87728 14.9878L10.01 15.073C10.0408 15.0926 10.0603 15.1136 10.0659 15.1359C10.0715 15.1583 10.0687 15.1792 10.0562 15.1988C10.0478 15.2128 10.0352 15.2226 10.0212 15.2295C10.0058 15.2365 9.99047 15.2379 9.97231 15.2337C9.95414 15.2295 9.93318 15.2198 9.90802 15.203L9.78784 15.1261V15.1275ZM10.2085 15.6991L10.4111 15.2407L10.4726 15.2673L10.27 15.7256L10.2099 15.6991H10.2085ZM10.9701 15.8011L11.0274 15.8388C10.9966 15.8864 10.9603 15.9171 10.917 15.9325C10.8737 15.9478 10.8276 15.9478 10.7772 15.9311C10.7255 15.9143 10.6878 15.8891 10.6627 15.857C10.6375 15.8249 10.6235 15.7871 10.6207 15.7424C10.6179 15.6977 10.6235 15.6516 10.6389 15.6069C10.6557 15.5579 10.6794 15.5174 10.7102 15.4867C10.7409 15.4559 10.7772 15.4378 10.8192 15.4294C10.8611 15.4224 10.9016 15.4252 10.9435 15.4392C10.9911 15.4545 11.0274 15.4811 11.0511 15.516C11.0749 15.551 11.0861 15.5929 11.0847 15.6404L11.0176 15.6348C11.0176 15.5971 11.0106 15.5663 10.9952 15.5426C10.9799 15.5202 10.9561 15.5034 10.924 15.4923C10.8876 15.4797 10.8541 15.4783 10.8234 15.4881C10.7926 15.4979 10.7675 15.5146 10.7479 15.5412C10.7283 15.5677 10.713 15.5957 10.7018 15.6278C10.6878 15.6683 10.6822 15.7061 10.6836 15.7396C10.685 15.7732 10.6962 15.8025 10.7158 15.8263C10.7353 15.85 10.7591 15.8654 10.7884 15.8752C10.8234 15.8864 10.8569 15.8864 10.8876 15.8752C10.9184 15.8626 10.9449 15.8388 10.9673 15.8011H10.9701ZM11.2146 16.0387L11.4718 15.5677L11.5444 15.5775L11.6814 16.1016L11.6059 16.0918L11.5682 15.9339L11.3586 15.9059L11.2845 16.0499L11.2146 16.0401V16.0387ZM11.3851 15.8528L11.5542 15.8752L11.5207 15.7312C11.5109 15.6879 11.5039 15.6516 11.4983 15.6222C11.4872 15.653 11.4732 15.6837 11.4578 15.7145L11.3837 15.8528H11.3851ZM12.6303 15.8808L12.6988 15.8891C12.6918 15.945 12.6722 15.9898 12.6401 16.0219C12.6079 16.0554 12.566 16.075 12.5143 16.082C12.4612 16.089 12.4165 16.0834 12.3801 16.0666C12.3438 16.0499 12.3144 16.0205 12.2907 15.9814C12.2683 15.9422 12.253 15.8989 12.2474 15.8514C12.2404 15.7997 12.2446 15.7536 12.2599 15.7117C12.2753 15.6711 12.2991 15.6376 12.3326 15.6124C12.3662 15.5873 12.4053 15.5719 12.4486 15.5663C12.4989 15.5593 12.5422 15.5663 12.5786 15.5887C12.6163 15.6097 12.6443 15.6418 12.6638 15.6865L12.6009 15.7103C12.5856 15.6753 12.5646 15.6516 12.5408 15.6376C12.5171 15.6236 12.4877 15.6194 12.4556 15.6236C12.4179 15.6292 12.3871 15.6418 12.3634 15.6628C12.3396 15.6851 12.3256 15.7117 12.3186 15.7438C12.3117 15.776 12.3117 15.8081 12.3158 15.8416C12.3214 15.8836 12.3326 15.9199 12.348 15.9506C12.3648 15.98 12.3871 16.0009 12.4151 16.0135C12.443 16.0261 12.4724 16.0303 12.5017 16.0261C12.538 16.0219 12.5688 16.0065 12.5911 15.9828C12.6135 15.9576 12.6275 15.9241 12.6303 15.8808ZM13.0104 15.9814L12.872 15.4993L13.22 15.4L13.2368 15.4559L12.9531 15.537L12.995 15.6851L13.2605 15.6083L13.2773 15.6642L13.0118 15.741L13.0593 15.9045L13.3542 15.8193L13.3709 15.8752L13.0118 15.9786L13.0104 15.9814ZM13.6532 15.762L13.4296 15.3134L13.4911 15.2826L13.902 15.5174L13.7259 15.1653L13.7832 15.1373L14.0068 15.5859L13.9453 15.6166L13.5344 15.3819L13.7105 15.734L13.6532 15.762ZM14.3883 15.3385L14.4428 15.2994L14.1843 14.9403L14.3184 14.8438L14.2835 14.7963L13.9621 15.0283L13.997 15.0758L14.1312 14.9794L14.3897 15.3385H14.3883ZM14.7908 15.0157L14.4316 14.6664L14.5867 14.5071C14.6175 14.4749 14.6454 14.454 14.6678 14.4442C14.6901 14.4344 14.7153 14.4316 14.7404 14.4372C14.767 14.4428 14.7894 14.4554 14.8089 14.4749C14.8341 14.5001 14.848 14.5294 14.8494 14.563C14.8508 14.5965 14.8369 14.6328 14.8089 14.672C14.8271 14.665 14.8425 14.6622 14.855 14.6608C14.8816 14.6594 14.9095 14.6608 14.9417 14.6678L15.0996 14.7013L15.0423 14.76L14.9207 14.7348C14.8858 14.7279 14.8578 14.7223 14.8383 14.7209C14.8173 14.7181 14.8019 14.7195 14.7908 14.7209C14.7796 14.7237 14.7698 14.7279 14.76 14.7334C14.7544 14.7376 14.7446 14.746 14.7321 14.7586L14.679 14.8131L14.8383 14.9682L14.7921 15.0157H14.7908ZM14.637 14.7726L14.7363 14.6706C14.7572 14.6482 14.7712 14.63 14.7796 14.6133C14.7866 14.5965 14.7894 14.5811 14.7852 14.5644C14.781 14.549 14.774 14.535 14.7628 14.5238C14.746 14.5071 14.7265 14.5001 14.7027 14.5015C14.6804 14.5029 14.6552 14.5168 14.63 14.5434L14.5196 14.6566L14.6384 14.7726H14.637ZM15.2379 14.5238L15.2785 14.4665L15.1876 14.3338L15.3106 14.1633L15.4685 14.2052L15.5132 14.1437L14.9878 14.0152L14.9445 14.0738L15.2379 14.5238ZM15.1555 14.2877L15.0688 14.1563C15.0493 14.1283 15.0297 14.1018 15.0074 14.078C15.0339 14.0878 15.0702 14.0976 15.1136 14.1102L15.2575 14.1493L15.1569 14.2877H15.1555ZM15.6334 13.9075L15.1876 13.6798L15.2184 13.6211L15.6125 13.8223L15.7243 13.6029L15.776 13.6295L15.6334 13.9075ZM15.8235 12.995L15.7634 12.9796L15.8123 12.7952L15.8724 12.8105L15.8235 12.995Z" fill="#C8A400"/>
</g>
</g>
<rect x="0.25" y="0.25" width="23.5" height="23.5" rx="11.75" stroke="#E5E3E1" stroke-width="0.5"/>
<defs>
<clipPath id="clip0_16335_5208">
<rect width="24" height="24" rx="12" fill="white"/>
</clipPath>
</defs>
</svg>
