<svg width="48" height="48" viewBox="0 0 48 48" fill="none" xmlns="http://www.w3.org/2000/svg">
<path d="M40.9403 12.71H7.07031V28.23H40.9403V12.71Z" fill="#8DE2E0"/>
<path d="M26.12 8.49023H21.96C21.41 8.49023 20.96 8.04023 20.96 7.49023C20.96 6.94023 21.41 6.49023 21.96 6.49023H26.12C26.67 6.49023 27.12 6.94023 27.12 7.49023C27.12 8.04023 26.67 8.49023 26.12 8.49023Z" fill="#DF0000"/>
<path d="M26.12 35.1201H21.96C21.41 35.1201 20.96 34.6701 20.96 34.1201C20.96 33.5701 21.41 33.1201 21.96 33.1201H26.12C26.67 33.1201 27.12 33.5701 27.12 34.1201C27.12 34.6701 26.67 35.1201 26.12 35.1201Z" fill="#DF0000"/>
<path d="M44.9798 21.6C44.4298 21.6 43.9798 22.05 43.9798 22.6V23.58L41.7798 25.78V5.82002C41.7798 3.73002 40.0798 2.02002 37.9798 2.02002H10.0098C7.91977 2.02002 6.20977 3.72002 6.20977 5.82002V25.78L4.00977 23.58V22.6C4.00977 22.05 3.55977 21.6 3.00977 21.6C2.45977 21.6 2.00977 22.05 2.00977 22.6V28.19C2.00977 28.74 2.45977 29.19 3.00977 29.19C3.55977 29.19 4.00977 28.74 4.00977 28.19V26.41L6.20977 28.61V39.39C6.20977 39.94 6.65977 40.39 7.20977 40.39H7.60977V43.59C7.60977 44.91 8.68977 45.99 10.0098 45.99H14.2098C15.5298 45.99 16.6098 44.91 16.6098 43.59V40.39H31.3898V43.59C31.3898 44.91 32.4698 45.99 33.7898 45.99H37.9898C39.3098 45.99 40.3898 44.91 40.3898 43.59V40.39H40.7898C41.3398 40.39 41.7898 39.94 41.7898 39.39V28.61L43.9898 26.41V28.19C43.9898 28.74 44.4398 29.19 44.9898 29.19C45.5398 29.19 45.9898 28.74 45.9898 28.19V22.6C45.9898 22.05 45.5398 21.6 44.9898 21.6H44.9798ZM8.21977 5.82002C8.21977 4.83002 9.02977 4.02002 10.0198 4.02002H37.9898C38.9798 4.02002 39.7898 4.83002 39.7898 5.82002V11.81H8.21977V5.82002ZM8.21977 13.81H39.7898V27.2H27.8898L33.1798 21.91C33.5698 21.52 33.5698 20.89 33.1798 20.5C32.7898 20.11 32.1598 20.11 31.7698 20.5L25.0698 27.2H8.21977V13.81ZM8.21977 29.2H39.7898V38.39H8.21977V29.2ZM14.6098 43.58C14.6098 43.8 14.4298 43.98 14.2098 43.98H10.0098C9.78977 43.98 9.60977 43.8 9.60977 43.58V40.38H14.5998V43.58H14.6098ZM38.3898 43.58C38.3898 43.8 38.2098 43.98 37.9898 43.98H33.7898C33.5698 43.98 33.3898 43.8 33.3898 43.58V40.38H38.3798V43.58H38.3898Z" fill="#323232"/>
<path d="M35.1796 35.4101C35.8896 35.4101 36.4697 34.8301 36.4697 34.1201C36.4697 33.4101 35.8896 32.8301 35.1796 32.8301C34.4696 32.8301 33.8896 33.4101 33.8896 34.1201C33.8896 34.8301 34.4696 35.4101 35.1796 35.4101Z" fill="#323232"/>
<path d="M12.8193 35.4101C13.5293 35.4101 14.1093 34.8301 14.1093 34.1201C14.1093 33.4101 13.5293 32.8301 12.8193 32.8301C12.1093 32.8301 11.5293 33.4101 11.5293 34.1201C11.5293 34.8301 12.1093 35.4101 12.8193 35.4101Z" fill="#323232"/>
</svg>
