<svg width="48" height="48" viewBox="0 0 48 48" fill="none" xmlns="http://www.w3.org/2000/svg">
<path fill-rule="evenodd" clip-rule="evenodd" d="M30.2207 39.0498V26.5498H33.3707V39.0498" fill="#8DE2E0"/>
<path fill-rule="evenodd" clip-rule="evenodd" d="M17.6094 39.0496V30.5996H20.7694V39.0496" fill="#8DE2E0"/>
<path fill-rule="evenodd" clip-rule="evenodd" d="M23.9199 39.0496V21.1396H27.0599V39.0496" fill="#8DE2E0"/>
<path d="M40.6701 45.25H7.33008C6.78008 45.25 6.33008 44.8 6.33008 44.25V3.75C6.33008 3.2 6.78008 2.75 7.33008 2.75H40.6701C41.2201 2.75 41.6701 3.2 41.6701 3.75V44.25C41.6701 44.8 41.2201 45.25 40.6701 45.25ZM8.33008 43.25H39.6701V4.75H8.33008V43.25Z" fill="#323232"/>
<path d="M34.7992 40.0496H13.1992C12.6492 40.0496 12.1992 39.5996 12.1992 39.0496C12.1992 38.4996 12.6492 38.0496 13.1992 38.0496H13.4592V30.5996C13.4592 30.0496 13.9092 29.5996 14.4592 29.5996H19.7692V21.1396C19.7692 20.8696 19.8792 20.6196 20.0592 20.4296C20.2492 20.2396 20.4992 20.1396 20.7692 20.1396H27.0692C27.6192 20.1496 28.0692 20.5996 28.0692 21.1496V25.5496H33.3792C33.9292 25.5496 34.3792 25.9996 34.3792 26.5496V38.0496H34.8092C35.3592 38.0496 35.8092 38.4996 35.8092 39.0496C35.8092 39.5996 35.3592 40.0496 34.8092 40.0496H34.7992ZM28.0592 38.0496H32.3692V27.5496H28.0592V38.0496ZM21.7692 38.0496H26.0692V22.1496H21.7692V30.5296C21.7692 30.5497 21.7692 30.5696 21.7692 30.5996V38.0496ZM15.4592 38.0496H19.7692V31.5996H15.4592V38.0496Z" fill="#323232"/>
<path d="M35.2991 8.75965C35.1991 8.51965 34.9991 8.31965 34.7591 8.21965C34.6391 8.16965 34.5091 8.13965 34.3791 8.13965H31.1191C30.5691 8.13965 30.1191 8.58965 30.1191 9.13965C30.1191 9.68965 30.5691 10.1396 31.1191 10.1396H31.9591L26.7991 15.2996L21.1591 13.0896C20.8091 12.9496 20.4091 13.0196 20.1291 13.2696L12.7991 19.7896C12.3891 20.1596 12.3491 20.7896 12.7191 21.1996C12.9191 21.4196 13.1891 21.5396 13.4691 21.5396C13.7091 21.5396 13.9391 21.4596 14.1291 21.2896L21.0091 15.1796L26.6891 17.3996C27.0591 17.5396 27.4791 17.4596 27.7591 17.1796L33.3891 11.5496V12.3896C33.3891 12.9396 33.8391 13.3896 34.3891 13.3896C34.9391 13.3896 35.3891 12.9396 35.3891 12.3896V9.12965C35.3891 8.99965 35.3591 8.86965 35.3091 8.74965L35.2991 8.75965Z" fill="#DF0000"/>
</svg>
