<svg width="24" height="24" viewBox="0 0 24 24" fill="none" xmlns="http://www.w3.org/2000/svg">
<g clip-path="url(#clip0_16335_7518)">
<path d="M20.4851 20.4853C25.1714 15.799 25.1714 8.20101 20.4851 3.51472C15.7988 -1.17157 8.20081 -1.17157 3.51452 3.51472C-1.17177 8.20101 -1.17177 15.799 3.51452 20.4853C8.20081 25.1716 15.7988 25.1716 20.4851 20.4853Z" fill="white"/>
<mask id="mask0_16335_7518" style="mask-type:luminance" maskUnits="userSpaceOnUse" x="-1" y="0" width="25" height="24">
<path d="M20.4851 20.4853C25.1714 15.799 25.1714 8.20101 20.4851 3.51472C15.7988 -1.17157 8.20081 -1.17157 3.51452 3.51472C-1.17177 8.20101 -1.17177 15.799 3.51452 20.4853C8.20081 25.1716 15.7988 25.1716 20.4851 20.4853Z" fill="white"/>
</mask>
<g mask="url(#mask0_16335_7518)">
<path d="M24.0014 0H-0.00140381V24H24.0014V0Z" fill="white"/>
<path d="M13.6197 0H10.379V24H13.6197V0Z" fill="#FF0000"/>
<path fill-rule="evenodd" clip-rule="evenodd" d="M5.77428 5.61084C5.58143 5.62761 5.38579 5.63739 5.18875 5.63739C4.99171 5.63739 4.79606 5.62761 4.60321 5.61084C4.72619 6.11672 4.79187 6.64496 4.79187 7.18857C4.79187 7.73219 4.72619 8.26043 4.60321 8.7677C4.79606 8.75094 4.99171 8.74115 5.18875 8.74115C5.38579 8.74115 5.58143 8.75094 5.77428 8.7677C5.65131 8.26182 5.58563 7.73358 5.58563 7.18857C5.58563 6.64356 5.65131 6.11672 5.77428 5.61084Z" fill="#FF0000"/>
<path fill-rule="evenodd" clip-rule="evenodd" d="M3.61102 6.60437C3.62779 6.79722 3.63757 6.99286 3.63757 7.18991C3.63757 7.38695 3.62779 7.58259 3.61102 7.77544C4.1169 7.65247 4.64514 7.58679 5.18876 7.58679C5.73237 7.58679 6.26061 7.65247 6.76649 7.77544C6.74972 7.58259 6.74134 7.38695 6.74134 7.18991C6.74134 6.99286 6.74972 6.79722 6.76649 6.60437C6.26061 6.72735 5.73237 6.79303 5.18876 6.79303C4.64514 6.79303 4.1169 6.72735 3.61102 6.60437Z" fill="#FF0000"/>
<path fill-rule="evenodd" clip-rule="evenodd" d="M5.77428 15.2323C5.58143 15.2491 5.38579 15.2589 5.18875 15.2589C4.99171 15.2589 4.79606 15.2505 4.60321 15.2323C4.72619 15.7382 4.79187 16.2664 4.79187 16.8114C4.79187 17.3564 4.72619 17.8833 4.60321 18.3906C4.79606 18.3738 4.99171 18.364 5.18875 18.364C5.38579 18.364 5.58143 18.3724 5.77428 18.3906C5.65131 17.8847 5.58563 17.3564 5.58563 16.8114C5.58563 16.2664 5.65131 15.7396 5.77428 15.2323Z" fill="#FF0000"/>
<path fill-rule="evenodd" clip-rule="evenodd" d="M3.61102 16.2245C3.62779 16.4173 3.63757 16.613 3.63757 16.81C3.63757 17.0071 3.62779 17.2027 3.61102 17.3956C4.1169 17.2726 4.64514 17.2069 5.18876 17.2069C5.73237 17.2069 6.26061 17.2726 6.76649 17.3956C6.74972 17.2027 6.74134 17.0071 6.74134 16.81C6.74134 16.613 6.74972 16.4173 6.76649 16.2245C6.26061 16.3475 5.73237 16.4131 5.18876 16.4131C4.64514 16.4131 4.1169 16.3475 3.61102 16.2245Z" fill="#FF0000"/>
<path fill-rule="evenodd" clip-rule="evenodd" d="M19.3968 5.61084C19.2039 5.62761 19.0083 5.63739 18.8112 5.63739C18.6142 5.63739 18.4186 5.62761 18.2257 5.61084C18.3487 6.11672 18.4144 6.64496 18.4144 7.18857C18.4144 7.73219 18.3487 8.26043 18.2257 8.7677C18.4186 8.75094 18.6142 8.74115 18.8112 8.74115C19.0083 8.74115 19.2039 8.75094 19.3968 8.7677C19.2738 8.26182 19.2081 7.73358 19.2081 7.18857C19.2081 6.64356 19.2738 6.11672 19.3968 5.61084Z" fill="#FF0000"/>
<path fill-rule="evenodd" clip-rule="evenodd" d="M17.2321 6.60437C17.2489 6.79722 17.2573 6.99286 17.2573 7.18991C17.2573 7.38695 17.2489 7.58259 17.2321 7.77544C17.738 7.65247 18.2662 7.58679 18.8099 7.58679C19.3535 7.58679 19.8817 7.65247 20.389 7.77544C20.3722 7.58259 20.3624 7.38695 20.3624 7.18991C20.3624 6.99286 20.3708 6.79722 20.389 6.60437C19.8831 6.72735 19.3549 6.79303 18.8099 6.79303C18.2648 6.79303 17.738 6.72735 17.2321 6.60437Z" fill="#FF0000"/>
<path fill-rule="evenodd" clip-rule="evenodd" d="M19.3968 15.2323C19.2039 15.2491 19.0083 15.2589 18.8112 15.2589C18.6142 15.2589 18.4186 15.2505 18.2257 15.2323C18.3487 15.7382 18.4144 16.2664 18.4144 16.8114C18.4144 17.3564 18.3487 17.8833 18.2257 18.3906C18.4186 18.3738 18.6142 18.364 18.8112 18.364C19.0083 18.364 19.2039 18.3724 19.3968 18.3906C19.2738 17.8847 19.2081 17.3564 19.2081 16.8114C19.2081 16.2664 19.2738 15.7396 19.3968 15.2323Z" fill="#FF0000"/>
<path fill-rule="evenodd" clip-rule="evenodd" d="M17.2321 16.2245C17.2489 16.4173 17.2573 16.613 17.2573 16.81C17.2573 17.0071 17.2489 17.2027 17.2321 17.3956C17.738 17.2726 18.2662 17.2069 18.8099 17.2069C19.3535 17.2069 19.8817 17.2726 20.389 17.3956C20.3722 17.2027 20.3624 17.0071 20.3624 16.81C20.3624 16.613 20.3708 16.4173 20.389 16.2245C19.8831 16.3475 19.3549 16.4131 18.8099 16.4131C18.2648 16.4131 17.738 16.3475 17.2321 16.2245Z" fill="#FF0000"/>
<path d="M24.0014 10.3804H-0.00140381V13.6211H24.0014V10.3804Z" fill="#FF0000"/>
</g>
</g>
<rect x="0.25" y="0.25" width="23.5" height="23.5" rx="11.75" stroke="#E5E3E1" stroke-width="0.5"/>
<defs>
<clipPath id="clip0_16335_7518">
<rect width="24" height="24" rx="12" fill="white"/>
</clipPath>
</defs>
</svg>
