<svg width="24" height="24" viewBox="0 0 24 24" fill="none" xmlns="http://www.w3.org/2000/svg">
<g clip-path="url(#clip0_16335_8264)">
<path d="M23.6789 14.7568C25.2013 8.30659 21.2066 1.84354 14.7564 0.321152C8.30617 -1.20123 1.84311 2.79355 0.320729 9.24374C-1.20165 15.6939 2.79312 22.157 9.24332 23.6794C15.6935 25.2018 22.1566 21.207 23.6789 14.7568Z" fill="white"/>
<mask id="mask0_16335_8264" style="mask-type:luminance" maskUnits="userSpaceOnUse" x="-1" y="-1" width="26" height="26">
<path d="M23.6789 14.7565C25.2013 8.30635 21.2066 1.84329 14.7564 0.320908C8.30617 -1.20148 1.84311 2.7933 0.320729 9.2435C-1.20165 15.6937 2.79312 22.1567 9.24332 23.6791C15.6935 25.2015 22.1566 21.2067 23.6789 14.7565Z" fill="white"/>
</mask>
<g mask="url(#mask0_16335_8264)">
<path d="M36.0042 0H0.00415039V24H36.0042V0Z" fill="white"/>
<path d="M36.0042 0H0.00415039V8.00047H36.0042V0Z" fill="#007C29"/>
<path d="M36.0042 15.9995H0.00415039V24H36.0042V15.9995Z" fill="#FF0000"/>
<path fill-rule="evenodd" clip-rule="evenodd" d="M0.00415039 0V24L9.41046 12L0.00415039 0Z" fill="#0072FE"/>
<path fill-rule="evenodd" clip-rule="evenodd" d="M14.7725 9.52783H18.6379C18.6449 9.52783 18.6505 9.53342 18.6505 9.54041V13.6573C18.6505 13.8418 18.575 14.0109 18.4534 14.1325C18.3319 14.254 18.1642 14.3295 17.9783 14.3295H17.1328C17.0448 14.3295 16.9609 14.3547 16.8911 14.3966C16.817 14.4413 16.7569 14.5042 16.7164 14.5811C16.7136 14.588 16.7052 14.5894 16.6982 14.5866C16.6954 14.5866 16.694 14.5838 16.6926 14.5811C16.6521 14.5056 16.592 14.4413 16.5179 14.3966C16.4467 14.3533 16.3642 14.3295 16.2762 14.3295H15.4307C15.2463 14.3295 15.0772 14.254 14.9556 14.1325C14.834 14.0109 14.7585 13.8418 14.7585 13.6573V9.54041C14.7585 9.53342 14.7641 9.52783 14.7711 9.52783H14.7725Z" fill="black"/>
<path fill-rule="evenodd" clip-rule="evenodd" d="M18.6239 9.55298H14.7851V13.6559C14.7851 13.8334 14.8578 13.9955 14.9752 14.1129C15.0925 14.2303 15.2532 14.3029 15.4321 14.3029H16.2776C16.3712 14.3029 16.4579 14.3295 16.5333 14.3742C16.6046 14.4161 16.6633 14.4762 16.7052 14.5475C16.7471 14.4762 16.8072 14.4161 16.8771 14.3742C16.9526 14.3295 17.0392 14.3029 17.1328 14.3029H17.9783C18.1558 14.3029 18.3179 14.2303 18.4353 14.1129C18.5527 13.9955 18.6253 13.8348 18.6253 13.6559V9.55298H18.6239Z" fill="white"/>
<path fill-rule="evenodd" clip-rule="evenodd" d="M16.5137 9.00392L16.3209 9.00951L16.2328 9.17581C16.2273 9.18559 16.2147 9.18559 16.2091 9.17581L16.1113 9.0151L15.9184 9.02069C15.9086 9.02069 15.9016 9.01091 15.9058 9.00113L15.9981 8.82645L15.8961 8.65875C15.8905 8.65036 15.8961 8.63919 15.9072 8.63919L16.1001 8.6336L16.1881 8.4673C16.1923 8.45752 16.2063 8.45752 16.2105 8.4673L16.3083 8.62801L16.5012 8.62242C16.5109 8.62242 16.5179 8.6322 16.5137 8.64198L16.4215 8.81666L16.5235 8.98436C16.5291 8.99274 16.5235 9.00392 16.5123 9.00392H16.5137Z" fill="black"/>
<path fill-rule="evenodd" clip-rule="evenodd" d="M15.5677 9.08203L15.3804 9.12674L15.3287 9.30842C15.3259 9.3182 15.3133 9.32099 15.3063 9.31401L15.1778 9.17705L14.9891 9.22177C14.9793 9.22457 14.971 9.21479 14.9738 9.205L15.0283 9.01635L14.8941 8.87241C14.8871 8.86542 14.8913 8.85284 14.9011 8.85005L15.0883 8.80533L15.14 8.62366C15.1428 8.61388 15.1554 8.61108 15.1624 8.61947L15.291 8.75642L15.4796 8.7117C15.4894 8.7089 15.4978 8.71869 15.495 8.72847L15.4405 8.91713L15.5747 9.06106C15.5816 9.06805 15.5775 9.08063 15.5677 9.08342V9.08203Z" fill="black"/>
<path fill-rule="evenodd" clip-rule="evenodd" d="M14.6663 9.27634L14.493 9.36158L14.4832 9.55024C14.4832 9.56002 14.4707 9.56561 14.4623 9.56003L14.3058 9.45382L14.1325 9.54046C14.1227 9.54465 14.1129 9.53767 14.1129 9.52788L14.1241 9.33224L13.9606 9.22184C13.9522 9.21625 13.9536 9.20367 13.962 9.19948L14.1353 9.11423L14.1451 8.92558C14.1451 8.91579 14.1576 8.91021 14.166 8.91579L14.3225 9.022L14.4958 8.93536C14.5042 8.93117 14.5154 8.93815 14.514 8.94794L14.5028 9.14358L14.6663 9.25398C14.6747 9.25957 14.6733 9.27215 14.6649 9.27634H14.6663Z" fill="black"/>
<path fill-rule="evenodd" clip-rule="evenodd" d="M18.3626 11.0917C18.3347 11.1239 18.2941 11.149 18.2508 11.1574C18.248 11.2091 18.2257 11.2538 18.1921 11.2888C18.1558 11.3251 18.1055 11.3475 18.0496 11.3475C17.9937 11.3475 17.9378 11.3223 17.8987 11.279C17.8763 11.3153 17.8442 11.3461 17.8078 11.3684C17.7673 11.3936 17.7184 11.4076 17.6681 11.4076C17.6038 11.4076 17.5437 11.3852 17.4962 11.3475C17.4529 11.3125 17.4207 11.2664 17.4054 11.2119C17.3606 11.2413 17.3089 11.2566 17.2558 11.2566C17.2307 11.2566 17.2055 11.2524 17.1818 11.2468C17.0881 11.2985 17.0113 11.3754 16.9568 11.4662C16.9037 11.5557 16.8729 11.6619 16.8729 11.7737V12.2251C16.8729 12.5032 16.8981 12.7813 16.9456 13.0538C16.9931 13.3235 17.0644 13.589 17.1594 13.8475C17.1748 13.8908 17.1594 13.9425 17.1273 13.9733C17.1049 13.9943 17.0742 14.0082 17.042 14.0082C17.0183 14.0082 16.9959 14.0012 16.9763 13.9887C16.9624 14.0012 16.9442 14.0082 16.9232 14.0082C16.9148 14.0082 16.9051 14.0068 16.8981 14.004C16.8631 14.0446 16.8128 14.0669 16.7597 14.0669C16.7108 14.0669 16.6647 14.0474 16.6298 14.0124C16.6242 14.018 16.6186 14.0236 16.613 14.0292C16.5864 14.0529 16.5501 14.0669 16.5124 14.0669C16.4691 14.0669 16.4313 14.0502 16.402 14.0208C16.395 14.0138 16.3894 14.0068 16.3838 13.9984C16.3642 14.0096 16.3433 14.0166 16.3209 14.0166C16.2874 14.0166 16.258 14.0026 16.2371 13.9817C16.2063 13.9509 16.1924 13.8978 16.2091 13.8573C16.3475 13.5177 16.4467 13.1656 16.5054 12.8078C16.5641 12.4473 16.5823 12.0811 16.5599 11.7136C16.5543 11.6283 16.5361 11.5487 16.5068 11.4774C16.4788 11.4103 16.4425 11.3503 16.395 11.2999C16.3922 11.3041 16.388 11.3083 16.3838 11.3111C16.3503 11.3447 16.3042 11.3656 16.2538 11.3656H16.2441C16.2455 11.3768 16.2469 11.388 16.2469 11.3992C16.2469 11.4551 16.2245 11.5068 16.1868 11.5431C16.1504 11.5808 16.0987 11.6032 16.0428 11.6032C15.9981 11.6032 15.9562 11.5878 15.9213 11.5641C15.8905 11.5417 15.8668 11.511 15.8528 11.4746C15.8304 11.4858 15.8053 11.4914 15.7801 11.4914C15.7312 11.4914 15.6837 11.469 15.6529 11.4299C15.625 11.5054 15.5523 11.5557 15.4713 11.5557C15.4042 11.5557 15.3413 11.5207 15.3064 11.4634C15.2868 11.476 15.263 11.483 15.2393 11.483C15.1694 11.483 15.1121 11.4257 15.1121 11.3558C15.1121 11.286 15.1694 11.2287 15.2393 11.2287C15.2561 11.2287 15.2728 11.2315 15.2868 11.2385C15.2938 11.2035 15.312 11.1728 15.3371 11.149C15.3665 11.1225 15.4056 11.1057 15.4503 11.1057C15.4755 11.1057 15.502 11.1113 15.5244 11.1225C15.53 11.1043 15.5425 11.0875 15.5565 11.075C15.5747 11.0582 15.5998 11.0484 15.6264 11.0484C15.6376 11.0484 15.646 11.0498 15.6571 11.0526C15.6599 11.0302 15.6669 11.0093 15.6767 10.9911C15.6879 10.9715 15.7032 10.9534 15.72 10.938C15.6935 10.9073 15.6795 10.8695 15.6795 10.829C15.6795 10.7857 15.6963 10.7452 15.7228 10.7158C15.7466 10.6907 15.7773 10.6725 15.8123 10.6655C15.8053 10.6487 15.8011 10.6306 15.8011 10.6138C15.8011 10.5775 15.815 10.5453 15.8388 10.5216C15.8626 10.4978 15.8947 10.4838 15.931 10.4838C15.9408 10.4838 15.9492 10.4838 15.959 10.4866C15.9562 10.474 15.9548 10.4615 15.9548 10.4489C15.9548 10.4 15.9744 10.3539 16.0079 10.3217C16.04 10.2896 16.0848 10.2686 16.1351 10.2686C16.1462 10.2686 16.156 10.2686 16.1658 10.2714C16.1658 10.2407 16.1756 10.2127 16.1966 10.1904C16.2161 10.1708 16.2427 10.1582 16.272 10.1582H16.2748C16.2706 10.1442 16.2678 10.1289 16.2678 10.1135C16.2678 10.0716 16.2846 10.0338 16.3125 10.0059C16.3405 9.97795 16.3782 9.96118 16.4201 9.96118C16.4397 9.96118 16.4593 9.96537 16.4774 9.97236C16.5361 9.88851 16.6312 9.8396 16.7318 9.8396C16.817 9.8396 16.8953 9.87454 16.9512 9.93043C17.0071 9.98633 17.042 10.0646 17.042 10.1498C17.042 10.1638 17.042 10.1764 17.0392 10.189C17.0881 10.189 17.1356 10.2043 17.1762 10.2323C17.2097 10.256 17.2377 10.2896 17.2544 10.3287C17.2838 10.3036 17.3201 10.2896 17.3592 10.2896C17.376 10.2896 17.3928 10.2924 17.4082 10.298C17.4165 10.2658 17.4347 10.2393 17.4585 10.2183C17.4864 10.1946 17.5213 10.1806 17.5605 10.1806C17.6038 10.1806 17.6443 10.1987 17.6723 10.2267C17.6988 10.2532 17.7156 10.2896 17.7184 10.3287C17.7366 10.3217 17.7561 10.3175 17.7757 10.3175C17.819 10.3175 17.8595 10.3357 17.8875 10.3636C17.9168 10.393 17.9336 10.4321 17.9336 10.4768C17.9336 10.488 17.9336 10.4978 17.9308 10.509C17.9546 10.4992 17.9811 10.4936 18.0077 10.4936C18.0636 10.4936 18.1139 10.516 18.1502 10.5523C18.1865 10.5886 18.2089 10.6389 18.2089 10.6948C18.2089 10.7172 18.2047 10.7396 18.1977 10.7605C18.2019 10.7605 18.2061 10.7605 18.2103 10.7605C18.2662 10.7605 18.3165 10.7829 18.3528 10.8192C18.3892 10.8556 18.4115 10.9059 18.4115 10.9618C18.4115 11.0121 18.3934 11.0582 18.3626 11.0931V11.0917ZM16.6675 11.1085C16.6381 11.0987 16.6116 11.0847 16.5864 11.0666C16.5781 11.0889 16.5627 11.1071 16.5445 11.1211C16.5264 11.135 16.504 11.1448 16.4802 11.1476C16.5124 11.1686 16.5431 11.1909 16.5711 11.2161C16.6074 11.2482 16.6395 11.2832 16.6675 11.3223V11.1071V11.1085ZM17.0238 11.1267C17.0085 11.1029 16.9973 11.0764 16.9903 11.0484C16.9442 11.0861 16.8911 11.1113 16.8338 11.1225V11.3167C16.8576 11.2846 16.8827 11.2538 16.9107 11.2245C16.9456 11.1881 16.9833 11.156 17.0252 11.1267H17.0238Z" fill="black"/>
<path fill-rule="evenodd" clip-rule="evenodd" d="M16.8967 9.00392L17.0895 9.00951L17.1776 9.17581C17.1832 9.18559 17.1957 9.18559 17.2013 9.17581L17.2992 9.0151L17.4934 9.02069C17.5032 9.02069 17.5102 9.01091 17.506 9.00113L17.4137 8.82645L17.5158 8.65875C17.5214 8.65036 17.5158 8.63919 17.5046 8.63919L17.3117 8.6336L17.2237 8.4673C17.2181 8.45752 17.2055 8.45752 17.2013 8.4673L17.1035 8.62801L16.9093 8.62242C16.8995 8.62242 16.8925 8.6322 16.8981 8.64198L16.9903 8.81666L16.8883 8.98436C16.8827 8.99274 16.8883 9.00392 16.8995 9.00392H16.8967Z" fill="black"/>
<path fill-rule="evenodd" clip-rule="evenodd" d="M17.8427 9.08203L18.03 9.12674L18.0817 9.30842C18.0845 9.3182 18.0985 9.32099 18.1041 9.31401L18.2326 9.17705L18.4213 9.22177C18.4311 9.22457 18.4394 9.21479 18.4367 9.205L18.3822 9.01635L18.5163 8.87241C18.5233 8.86542 18.5191 8.85284 18.5093 8.85005L18.3221 8.80533L18.2704 8.62366C18.2676 8.61388 18.255 8.61108 18.248 8.61947L18.1194 8.75642L17.9308 8.7117C17.921 8.7089 17.9126 8.71869 17.9154 8.72847L17.9699 8.91713L17.8357 9.06106C17.8288 9.06805 17.833 9.08063 17.8427 9.08342V9.08203Z" fill="black"/>
<path fill-rule="evenodd" clip-rule="evenodd" d="M18.7427 9.27634L18.916 9.36158L18.9257 9.55024C18.9257 9.56002 18.9383 9.56561 18.9467 9.56003L19.1032 9.45382L19.2765 9.54046C19.2863 9.54465 19.2961 9.53767 19.2947 9.52788L19.2835 9.33224L19.447 9.22184C19.4554 9.21625 19.454 9.20367 19.4442 9.19948L19.2709 9.11423L19.2611 8.92558C19.2611 8.91579 19.2486 8.91021 19.2402 8.91579L19.0837 9.022L18.9104 8.93536C18.9006 8.93117 18.8908 8.93815 18.8922 8.94794L18.9034 9.14358L18.7399 9.25398C18.7315 9.25957 18.7329 9.27215 18.7413 9.27634H18.7427Z" fill="black"/>
<path fill-rule="evenodd" clip-rule="evenodd" d="M17.362 14.9192C17.1832 14.9527 16.954 14.9723 16.7052 14.9723C16.4565 14.9723 16.2259 14.9527 16.0484 14.9192V14.4189C16.0484 14.4105 16.0428 14.4035 16.0344 14.4049C15.9254 14.4189 15.815 14.4287 15.7032 14.4357C15.5942 14.4427 15.4838 14.4455 15.3721 14.4455C15.0814 14.4455 14.8103 14.3602 14.5825 14.2135C14.4358 14.1185 14.3072 13.9997 14.2038 13.8599L14.4441 13.4435C14.4553 13.4267 14.4609 13.4058 14.4609 13.3834C14.4609 13.3485 14.4441 13.3149 14.4162 13.2926C14.3002 13.2003 14.1982 13.0927 14.1129 12.9711C14.0291 12.851 13.9634 12.7182 13.9187 12.5757C13.9159 12.5687 13.9089 12.5645 13.9019 12.5673C13.8963 12.5687 13.8935 12.5743 13.8935 12.5799C13.8893 12.7112 13.874 12.8398 13.8488 12.9656C13.8223 13.0927 13.7859 13.2171 13.7398 13.3373C13.723 13.3792 13.7147 13.4239 13.7147 13.47C13.7147 13.5497 13.7412 13.6238 13.7845 13.6825C13.8279 13.7398 13.8865 13.7845 13.9564 13.8082C13.9508 13.8306 13.9452 13.8529 13.9397 13.8753C13.9075 13.9927 13.8656 14.1073 13.8153 14.2163C13.8139 14.2205 13.8139 14.2247 13.8153 14.2275C13.8977 14.3994 14.0137 14.5503 14.1563 14.6733C14.2974 14.7948 14.4651 14.8885 14.6482 14.943C14.8131 14.9919 14.9822 15.031 15.154 15.0604C15.3189 15.0883 15.488 15.1065 15.6585 15.1163V15.2923C15.6585 15.3636 15.7787 15.4265 15.973 15.4712C16.1616 15.5131 16.4215 15.5397 16.7094 15.5397C16.9973 15.5397 17.2572 15.5131 17.4459 15.4712C17.6401 15.4279 17.7603 15.365 17.7603 15.2923V15.1163C17.9308 15.1079 18.0999 15.0883 18.2648 15.0604C18.4367 15.031 18.6058 14.9919 18.7707 14.943C18.9537 14.8871 19.12 14.7948 19.2626 14.6733C19.4051 14.5503 19.5225 14.3994 19.6036 14.2275C19.605 14.2247 19.605 14.2205 19.6036 14.2163C19.5533 14.1073 19.5113 13.9927 19.4792 13.8753C19.4736 13.8529 19.4666 13.8306 19.4624 13.8082C19.5323 13.7845 19.591 13.7398 19.6343 13.6825C19.679 13.6224 19.7042 13.5497 19.7042 13.47C19.7042 13.4239 19.6958 13.3792 19.679 13.3373C19.6329 13.2185 19.5966 13.0941 19.57 12.9656C19.5449 12.8398 19.5295 12.7112 19.5253 12.5799C19.5253 12.5743 19.5211 12.5701 19.5169 12.5673C19.5099 12.5645 19.5029 12.5687 19.5002 12.5757C19.4554 12.7182 19.3884 12.851 19.3059 12.9711C19.2221 13.0927 19.1186 13.2017 19.0027 13.2926C18.9747 13.3135 18.9579 13.3471 18.9579 13.3834C18.9579 13.4058 18.9635 13.4253 18.9747 13.4435L19.2151 13.8599C19.1117 13.9997 18.9831 14.1199 18.8364 14.2135C18.6086 14.3602 18.3375 14.4455 18.0468 14.4455C17.935 14.4455 17.8246 14.4427 17.7156 14.4357C17.6052 14.4287 17.4948 14.4189 17.3844 14.4049C17.376 14.4049 17.3704 14.4105 17.3704 14.4189V14.9192H17.362Z" fill="black"/>
<path fill-rule="evenodd" clip-rule="evenodd" d="M14.1856 13.8362L14.3854 13.491C14.3728 13.4952 14.3589 13.498 14.3449 13.498C14.3113 13.498 14.2778 13.4826 14.2568 13.4561C14.2331 13.4239 14.1954 13.4058 14.1562 13.4058C14.1213 13.4058 14.0905 13.4197 14.0682 13.4421C14.0458 13.4645 14.0305 13.4966 14.0305 13.5315C14.0305 13.5497 14.0346 13.5707 14.043 13.586C14.0822 13.6741 14.1311 13.7565 14.187 13.8348L14.1856 13.8362Z" fill="white"/>
<path fill-rule="evenodd" clip-rule="evenodd" d="M14.0039 13.5189C14.0067 13.4826 14.0249 13.4491 14.0486 13.4239C14.0766 13.3974 14.1143 13.3806 14.1562 13.3806C14.2038 13.3806 14.2485 13.403 14.2778 13.4407C14.2946 13.4617 14.3197 13.4728 14.3463 13.4728C14.3701 13.4728 14.3924 13.463 14.4092 13.4477C14.4246 13.4323 14.4343 13.4099 14.4343 13.3848C14.4343 13.3568 14.4218 13.3317 14.3994 13.3149C14.2806 13.2213 14.1772 13.1109 14.0906 12.9879C14.0179 12.8845 13.9592 12.7713 13.9145 12.6511C13.9075 12.7601 13.8935 12.8677 13.8726 12.9725C13.846 13.1025 13.8097 13.2269 13.7622 13.3485C13.7468 13.3876 13.7384 13.4295 13.7384 13.4714C13.7384 13.5455 13.7622 13.614 13.8041 13.6685C13.8432 13.7216 13.8977 13.7621 13.9606 13.7845C13.9802 13.6978 13.9955 13.6098 14.0039 13.5203V13.5189Z" fill="white"/>
<path fill-rule="evenodd" clip-rule="evenodd" d="M16.0218 14.4331C15.917 14.4456 15.8108 14.4554 15.7032 14.461C15.5928 14.468 15.4824 14.4708 15.3706 14.4708C15.0743 14.4708 14.799 14.3841 14.5671 14.2346C14.3295 14.0809 14.138 13.8615 14.0207 13.6016C14.0067 13.6966 13.9871 13.7902 13.9634 13.8811C13.9312 13.9984 13.8893 14.1116 13.839 14.2206C13.9186 14.3869 14.0332 14.5337 14.1702 14.6525C14.3085 14.7712 14.472 14.8635 14.6523 14.9166C14.8158 14.9655 14.9835 15.0046 15.1554 15.0326C15.3189 15.0605 15.4866 15.0787 15.6557 15.0871V14.7489C15.6557 14.7139 15.6836 14.6804 15.7339 14.6511C15.7829 14.6231 15.8555 14.5966 15.945 14.5756C15.9897 14.5658 16.0204 14.5267 16.0218 14.482V14.4303V14.4331Z" fill="white"/>
<path fill-rule="evenodd" clip-rule="evenodd" d="M19.2249 13.8362L19.025 13.491C19.0376 13.4952 19.0516 13.498 19.0655 13.498C19.0991 13.498 19.1326 13.4826 19.1536 13.4561C19.1773 13.4239 19.2151 13.4058 19.2542 13.4058C19.2891 13.4058 19.3199 13.4197 19.3422 13.4421C19.3646 13.4645 19.38 13.4966 19.38 13.5315C19.38 13.5497 19.3758 13.5707 19.3674 13.586C19.3283 13.6741 19.2794 13.7565 19.2235 13.8348L19.2249 13.8362Z" fill="white"/>
<path fill-rule="evenodd" clip-rule="evenodd" d="M19.4051 13.5189C19.4023 13.4826 19.3841 13.4491 19.3604 13.4239C19.3324 13.3974 19.2947 13.3806 19.2528 13.3806C19.2053 13.3806 19.1605 13.403 19.1312 13.4407C19.1144 13.4617 19.0893 13.4728 19.0627 13.4728C19.039 13.4728 19.0166 13.463 18.9998 13.4477C18.9845 13.4323 18.9747 13.4099 18.9747 13.3848C18.9747 13.3568 18.9872 13.3317 19.0096 13.3149C19.1284 13.2213 19.2318 13.1109 19.3184 12.9879C19.3897 12.8845 19.4498 12.7713 19.4945 12.6511C19.5015 12.7601 19.5155 12.8677 19.5365 12.9725C19.563 13.1025 19.5993 13.2269 19.6468 13.3485C19.6622 13.3876 19.6706 13.4295 19.6706 13.4714C19.6706 13.5455 19.6468 13.614 19.6063 13.6685C19.5672 13.7216 19.5127 13.7621 19.4498 13.7845C19.4302 13.6978 19.4149 13.6098 19.4065 13.5203L19.4051 13.5189Z" fill="white"/>
<path fill-rule="evenodd" clip-rule="evenodd" d="M17.3885 14.4331C17.4934 14.4456 17.5996 14.4554 17.7072 14.461C17.8176 14.468 17.928 14.4708 18.0398 14.4708C18.336 14.4708 18.6113 14.3841 18.8433 14.2346C19.0809 14.0809 19.2723 13.8615 19.3897 13.6016C19.4037 13.6966 19.4219 13.7902 19.447 13.8811C19.4792 13.9984 19.5211 14.1116 19.5714 14.2206C19.4917 14.3869 19.3771 14.5337 19.2402 14.6525C19.1018 14.7712 18.9383 14.8635 18.7581 14.9166C18.5946 14.9655 18.4269 15.0046 18.255 15.0326C18.0915 15.0605 17.9238 15.0787 17.7547 15.0871V14.7489C17.7547 14.7139 17.7267 14.6804 17.6764 14.6511C17.6275 14.6231 17.5548 14.5966 17.4654 14.5756C17.4207 14.5658 17.3899 14.5267 17.3885 14.482V14.4303V14.4331Z" fill="white"/>
<path fill-rule="evenodd" clip-rule="evenodd" d="M16.7052 14.9989C16.9931 14.9989 17.253 14.9723 17.4416 14.9304C17.5828 14.8983 17.6834 14.8564 17.7295 14.8088V15.2924C17.7295 15.3497 17.6177 15.4042 17.4361 15.4447C17.2488 15.4866 16.9917 15.5132 16.7052 15.5132C16.4187 15.5132 16.1616 15.4866 15.9743 15.4447C15.7926 15.4042 15.6808 15.3497 15.6808 15.2924V14.8088C15.7256 14.8564 15.8276 14.8983 15.9687 14.9304C16.1574 14.9723 16.4173 14.9989 16.7052 14.9989Z" fill="white"/>
<path fill-rule="evenodd" clip-rule="evenodd" d="M17.6625 14.6762C17.7044 14.7 17.7281 14.7265 17.7281 14.7517C17.7281 14.809 17.6163 14.8635 17.4347 14.904C17.4193 14.9068 17.4039 14.911 17.3885 14.9138V14.5588C17.4067 14.5812 17.4305 14.598 17.4584 14.6036C17.5451 14.6245 17.6149 14.6483 17.6625 14.6762Z" fill="white"/>
<path fill-rule="evenodd" clip-rule="evenodd" d="M15.7479 14.6762C15.706 14.7 15.6823 14.7265 15.6823 14.7517C15.6823 14.809 15.794 14.8635 15.9757 14.904C15.9911 14.9068 16.0065 14.911 16.0218 14.9138V14.5588C16.0037 14.5812 15.9799 14.598 15.952 14.6036C15.8653 14.6245 15.7954 14.6483 15.7479 14.6762Z" fill="white"/>
<path fill-rule="evenodd" clip-rule="evenodd" d="M16.3503 15.3946V15.1165H16.4397C16.4733 15.1165 16.4956 15.1165 16.5068 15.1206C16.5222 15.1248 16.5361 15.1332 16.5473 15.1472C16.5585 15.1612 16.5641 15.1793 16.5641 15.2017C16.5641 15.2185 16.5613 15.2324 16.5543 15.245C16.5487 15.2562 16.5403 15.266 16.5306 15.273C16.5208 15.28 16.511 15.2842 16.5012 15.2855C16.4872 15.2883 16.4691 15.2897 16.4425 15.2897H16.4062V15.3946H16.3503ZM16.4062 15.164V15.2436H16.4369C16.4593 15.2436 16.4733 15.2422 16.4816 15.2394C16.4886 15.2366 16.4956 15.2324 16.4984 15.2255C16.5026 15.2185 16.5054 15.2115 16.5054 15.2031C16.5054 15.1933 16.5026 15.1849 16.497 15.1779C16.4914 15.171 16.483 15.1668 16.4747 15.1654C16.4677 15.1654 16.4551 15.164 16.4341 15.164H16.4076H16.4062ZM16.8296 15.3946L16.7178 15.1165H16.6577L16.5501 15.3946H16.6102L16.6326 15.3317H16.7444L16.7681 15.3946H16.8282H16.8296ZM16.7262 15.2842H16.6507L16.6885 15.1807L16.7276 15.2842H16.7262ZM16.8352 15.3946V15.3442L16.9819 15.164H16.852V15.1165H17.0546V15.1598L16.9023 15.347H17.0602V15.3946H16.8352Z" fill="black"/>
<path fill-rule="evenodd" clip-rule="evenodd" d="M14.2345 14.1521L14.2694 14.194L14.1576 14.2877C14.1395 14.303 14.1283 14.3128 14.1241 14.3184C14.1171 14.3268 14.1143 14.3366 14.1143 14.3477C14.1143 14.3589 14.1199 14.3701 14.1297 14.3813C14.1395 14.3925 14.1492 14.3995 14.159 14.4022C14.1688 14.4036 14.1772 14.4022 14.1856 14.3981C14.194 14.3939 14.2065 14.3841 14.2219 14.3701L14.3365 14.2751L14.3714 14.317L14.2624 14.4078C14.2373 14.4288 14.2191 14.4414 14.2065 14.4484C14.194 14.454 14.1828 14.4581 14.1702 14.4581C14.1576 14.4581 14.145 14.454 14.1325 14.4484C14.1199 14.4414 14.1073 14.4302 14.0933 14.4134C14.0766 14.3939 14.0668 14.3771 14.0626 14.3631C14.0584 14.3491 14.0584 14.3366 14.0598 14.324C14.0626 14.3114 14.0668 14.3016 14.0738 14.2932C14.0836 14.2807 14.1003 14.2653 14.1227 14.2457L14.2331 14.1535L14.2345 14.1521ZM14.2247 14.5504L14.2652 14.5811L14.3728 14.44L14.3533 14.6468L14.3966 14.6789L14.5587 14.4637L14.5182 14.433L14.4092 14.5769L14.4301 14.3659L14.3882 14.3338L14.2261 14.549L14.2247 14.5504ZM14.4706 14.7167L14.5908 14.4763L14.6397 14.5001L14.5196 14.7404L14.4706 14.7153V14.7167ZM14.6663 14.5182L14.5894 14.7768L14.6873 14.8061C14.7068 14.8117 14.7222 14.8145 14.7348 14.8145C14.7515 14.8145 14.7655 14.8103 14.7781 14.8047C14.7935 14.7963 14.8074 14.7838 14.8186 14.767C14.8284 14.753 14.8368 14.7362 14.8424 14.7139C14.8494 14.6901 14.8522 14.6678 14.8522 14.6496C14.8522 14.6314 14.848 14.6147 14.8396 14.6007C14.8326 14.5867 14.8214 14.5741 14.8074 14.5657C14.7977 14.5588 14.7809 14.5532 14.7599 14.5462L14.6649 14.5182H14.6663ZM14.7054 14.5769L14.7292 14.5839C14.7501 14.5909 14.7641 14.5951 14.7711 14.5993C14.7795 14.6049 14.7865 14.6105 14.7921 14.6189C14.7963 14.6272 14.7991 14.637 14.7991 14.6482C14.7991 14.6594 14.7963 14.6761 14.7907 14.6957C14.7851 14.7153 14.7781 14.7306 14.7711 14.7418C14.7641 14.7516 14.7571 14.7586 14.7501 14.7628C14.7432 14.7656 14.7348 14.7684 14.7264 14.767C14.7194 14.767 14.7082 14.7642 14.6942 14.76L14.6551 14.7488L14.7054 14.5783V14.5769ZM15.1149 14.9109L15.0576 14.8983L15.0478 14.8341L14.9416 14.8103L14.9067 14.8648L14.8508 14.8522L15.0115 14.6119L15.0674 14.6244L15.1149 14.9109ZM15.0408 14.7852L15.0254 14.6803L14.9681 14.7698L15.0408 14.7852ZM15.2085 14.6524L15.3063 14.6664C15.3287 14.6692 15.3455 14.6734 15.3566 14.6789C15.372 14.6859 15.3832 14.6957 15.393 14.7097C15.4028 14.7237 15.4083 14.739 15.4125 14.7572C15.4153 14.7754 15.4153 14.7963 15.4125 14.8215C15.4097 14.8438 15.4042 14.862 15.3958 14.8774C15.386 14.8955 15.3748 14.9095 15.3608 14.9207C15.351 14.9291 15.3371 14.9333 15.3203 14.9375C15.3077 14.9389 15.2924 14.9389 15.2714 14.9375L15.1708 14.9235L15.2085 14.6566V14.6524ZM15.256 14.7055L15.2309 14.8816L15.2714 14.8872C15.2868 14.89 15.2979 14.89 15.3035 14.8886C15.3133 14.8886 15.3203 14.8844 15.3273 14.8802C15.3343 14.876 15.3399 14.8676 15.3455 14.8564C15.351 14.8452 15.3552 14.8285 15.358 14.8089C15.3608 14.7879 15.3608 14.7726 15.358 14.76C15.3566 14.7488 15.3524 14.739 15.3469 14.732C15.3413 14.7251 15.3329 14.7195 15.3231 14.7167C15.3161 14.7139 15.3007 14.7111 15.2798 14.7083L15.256 14.7055Z" fill="black"/>
<path fill-rule="evenodd" clip-rule="evenodd" d="M17.9433 14.686L17.9978 14.6804L18.0146 14.8509C18.0174 14.8733 18.016 14.8901 18.0146 14.9026C18.0104 14.9194 18.002 14.932 17.9895 14.9432C17.9769 14.9543 17.9587 14.9599 17.9364 14.9627C17.9098 14.9655 17.8888 14.9599 17.8735 14.9459C17.8581 14.932 17.8483 14.911 17.8455 14.8831L17.8958 14.8719C17.8972 14.8873 17.9014 14.897 17.9056 14.904C17.9126 14.9138 17.921 14.9166 17.9336 14.9152C17.9447 14.9152 17.9531 14.9096 17.9573 14.9026C17.9615 14.8956 17.9629 14.8803 17.9601 14.8593L17.9433 14.686ZM18.0635 14.6734L18.118 14.6651L18.1418 14.809C18.146 14.8314 18.1488 14.8467 18.1516 14.8537C18.1558 14.8635 18.1627 14.8719 18.1725 14.8775C18.1823 14.8831 18.1949 14.8845 18.2089 14.8817C18.2242 14.8789 18.2354 14.8747 18.241 14.8663C18.248 14.8593 18.2508 14.8509 18.2508 14.8411C18.2508 14.8314 18.2494 14.816 18.2452 14.795L18.2214 14.6483L18.2759 14.6399L18.2983 14.7797C18.3039 14.8118 18.3053 14.8342 18.3053 14.8481C18.3053 14.8621 18.3011 14.8733 18.2941 14.8845C18.2885 14.8942 18.2787 14.904 18.2662 14.911C18.2536 14.918 18.2368 14.9236 18.2158 14.9278C18.1907 14.932 18.1711 14.932 18.1572 14.9278C18.1432 14.9236 18.132 14.918 18.1222 14.9096C18.1124 14.9012 18.1068 14.8928 18.1027 14.8831C18.0971 14.8691 18.0915 14.8467 18.0859 14.816L18.0621 14.6734H18.0635ZM18.3682 14.8062L18.4185 14.7894C18.4255 14.8062 18.4352 14.8174 18.4464 14.823C18.4576 14.8286 18.4716 14.83 18.487 14.8258C18.5037 14.8216 18.5163 14.8146 18.5233 14.8062C18.5303 14.7964 18.5331 14.788 18.5303 14.7783C18.5289 14.7727 18.5261 14.7671 18.5205 14.7643C18.5163 14.7615 18.5079 14.7587 18.4995 14.7573C18.4925 14.7573 18.4772 14.7573 18.4548 14.7559C18.4255 14.7559 18.4031 14.7517 18.3891 14.7433C18.3696 14.7321 18.357 14.7168 18.3528 14.6958C18.35 14.6818 18.35 14.6693 18.3556 14.6553C18.3598 14.6413 18.3696 14.6301 18.3821 14.6203C18.3947 14.6106 18.4115 14.6036 18.4311 14.5994C18.4632 14.591 18.4898 14.5938 18.5107 14.6036C18.5303 14.6148 18.5443 14.6315 18.5512 14.6553L18.4981 14.6693C18.4925 14.6567 18.4856 14.6469 18.4772 14.6427C18.4688 14.6385 18.4562 14.6385 18.4422 14.6427C18.4269 14.6455 18.4157 14.6525 18.4087 14.6609C18.4045 14.6665 18.4031 14.672 18.4045 14.679C18.4059 14.686 18.4101 14.6902 18.4157 14.693C18.4241 14.6972 18.4408 14.6986 18.4688 14.6986C18.4953 14.6986 18.5163 14.7 18.5303 14.7042C18.5443 14.7084 18.5554 14.714 18.5652 14.7238C18.575 14.7335 18.582 14.7461 18.5848 14.7629C18.589 14.7783 18.5876 14.7936 18.582 14.8076C18.5764 14.823 18.5666 14.8356 18.554 14.8453C18.5401 14.8551 18.5219 14.8635 18.4995 14.8691C18.466 14.8775 18.4394 14.8747 18.4171 14.8635C18.3961 14.8523 18.3794 14.8328 18.3696 14.8048L18.3682 14.8062ZM18.7301 14.8034L18.7818 14.7852L18.7092 14.5728L18.7846 14.5463L18.7692 14.503L18.5666 14.5728L18.582 14.6161L18.6574 14.5896L18.7301 14.802V14.8034ZM18.9104 14.7321L18.7832 14.4946L18.8307 14.4694L18.9579 14.707L18.9104 14.7321ZM19.1032 14.4848C19.1116 14.503 19.1158 14.5183 19.113 14.5323C19.1102 14.5463 19.1032 14.5575 19.0921 14.5658C19.0767 14.5784 19.0599 14.5826 19.0403 14.5784C19.0222 14.5742 19.0026 14.5603 18.9803 14.5323C18.9607 14.5071 18.9509 14.4848 18.9509 14.4666C18.9509 14.4471 18.9593 14.4317 18.9761 14.4191C18.9872 14.4093 18.9998 14.4051 19.0124 14.4051C19.025 14.4051 19.0376 14.4093 19.0487 14.4191L19.0823 14.3758C19.0641 14.3632 19.0459 14.3548 19.0292 14.3548C19.0012 14.352 18.9733 14.3618 18.9481 14.3814C18.9188 14.4051 18.902 14.4331 18.8992 14.468C18.8964 14.5016 18.909 14.5365 18.9369 14.5714C18.9635 14.605 18.9928 14.6231 19.0264 14.6287C19.0599 14.6329 19.0907 14.6245 19.1186 14.6022C19.141 14.584 19.1549 14.563 19.1619 14.5407C19.1675 14.5183 19.1647 14.4918 19.1521 14.4638L19.1004 14.4834L19.1032 14.4848ZM19.2542 14.4764L19.0557 14.2933L19.0921 14.2528L19.2905 14.4359L19.2528 14.4764H19.2542ZM19.4736 14.1704L19.4428 14.2207L19.3785 14.2081L19.3212 14.2989L19.3618 14.3506L19.331 14.3995L19.1591 14.1676L19.1899 14.1187L19.475 14.1704H19.4736ZM19.3296 14.1983L19.2248 14.1773L19.2905 14.2612L19.3296 14.1983Z" fill="black"/>
<path fill-rule="evenodd" clip-rule="evenodd" d="M16.0848 11.3684C16.0848 11.3754 16.0792 11.3809 16.0722 11.3809C16.0652 11.3809 16.0596 11.3754 16.0596 11.3684C16.0596 11.3334 16.0316 11.3055 15.9967 11.3055C15.9674 11.3055 15.9422 11.3251 15.9352 11.353C15.9282 11.3935 15.9059 11.4313 15.8709 11.4564C15.8835 11.49 15.9045 11.5179 15.9324 11.5375C15.9618 11.5598 15.9981 11.5724 16.0386 11.5724C16.0875 11.5724 16.1323 11.5528 16.1644 11.5207C16.1965 11.4886 16.2161 11.4438 16.2161 11.3949C16.2161 11.3796 16.2147 11.3642 16.2105 11.3488C16.2077 11.3404 16.2161 11.3306 16.2245 11.332C16.2329 11.332 16.2413 11.3334 16.2497 11.3334C16.293 11.3334 16.3335 11.3153 16.3615 11.2873C16.3894 11.2594 16.4076 11.2188 16.4076 11.1755C16.4076 11.1602 16.4048 11.1448 16.4006 11.1294C16.4006 11.1266 16.4006 11.1238 16.4006 11.121C16.4034 11.114 16.4118 11.1112 16.4173 11.114C16.4313 11.1196 16.4453 11.1224 16.4593 11.1224C16.4844 11.1224 16.5068 11.114 16.5264 11.1001C16.5445 11.0861 16.5585 11.0651 16.5655 11.0414C16.5683 11.033 16.5781 11.0288 16.5864 11.0344C16.6409 11.0763 16.7066 11.1001 16.7751 11.1001C16.8534 11.1001 16.9274 11.0707 16.9833 11.0176C16.9819 11.005 16.9805 10.9939 16.9805 10.9813C16.9805 10.9463 16.9875 10.9128 17.0001 10.8807C17.0029 10.8737 17.0099 10.8709 17.0169 10.8737C17.0238 10.8765 17.0266 10.8835 17.0238 10.8904C17.0127 10.9198 17.0071 10.9505 17.0071 10.9813C17.0071 11.0539 17.0392 11.1224 17.0937 11.1699C17.137 11.2063 17.1929 11.2286 17.2544 11.2286C17.3341 11.2286 17.4081 11.1909 17.4543 11.1266C17.4682 11.107 17.4794 11.0861 17.4878 11.0623C17.4906 11.0553 17.4976 11.0525 17.5046 11.0539C17.5116 11.0567 17.5158 11.0637 17.513 11.0707C17.5046 11.0959 17.492 11.1196 17.4752 11.142C17.4613 11.1615 17.4445 11.1797 17.4263 11.1937C17.4403 11.2468 17.4696 11.2929 17.5116 11.3264C17.5535 11.36 17.608 11.3809 17.6667 11.3809C17.7128 11.3809 17.7561 11.3684 17.7938 11.346C17.8302 11.3251 17.8609 11.2943 17.8819 11.2566C17.8721 11.2412 17.8637 11.2244 17.8581 11.2077C17.8483 11.1783 17.8456 11.1476 17.8497 11.1168C17.8497 11.1098 17.8581 11.1043 17.8651 11.1056C17.8721 11.1056 17.8777 11.1126 17.8763 11.121C17.8721 11.1476 17.8749 11.1741 17.8833 11.1993C17.907 11.2705 17.9741 11.3195 18.0496 11.3195C18.0971 11.3195 18.1418 11.2999 18.1726 11.2692C18.2047 11.2384 18.2229 11.1951 18.2243 11.1476C18.2243 11.1294 18.2173 11.1126 18.2061 11.1015C18.1949 11.0903 18.1782 11.0833 18.1614 11.0833C18.1446 11.0833 18.1278 11.0903 18.1167 11.1015C18.1055 11.1126 18.0985 11.1294 18.0985 11.1462C18.0985 11.1532 18.0929 11.1588 18.0859 11.1588C18.0789 11.1588 18.0733 11.1532 18.0733 11.1462C18.0733 11.1154 18.0608 11.0861 18.0398 11.0665C18.0188 11.0456 17.9909 11.033 17.9601 11.033C17.9532 11.033 17.9476 11.0274 17.9476 11.0204C17.9476 11.0134 17.9532 11.0078 17.9601 11.0078C17.9993 11.0078 18.0328 11.0232 18.0594 11.0484C18.0719 11.0623 18.0831 11.0777 18.0901 11.0959C18.0929 11.0917 18.0971 11.0875 18.0999 11.0833C18.1167 11.0665 18.139 11.0567 18.1642 11.0567C18.1893 11.0567 18.2117 11.0665 18.2285 11.0833C18.241 11.0959 18.2508 11.1126 18.2536 11.1308C18.2899 11.1224 18.3221 11.1029 18.3458 11.0749C18.3724 11.0442 18.3892 11.0036 18.3892 10.9603C18.3892 10.9114 18.3696 10.8681 18.3375 10.8373C18.3053 10.8052 18.262 10.7856 18.2145 10.7856C18.2047 10.7856 18.1935 10.7856 18.1837 10.7884C18.174 10.7898 18.1656 10.78 18.1698 10.7703C18.1809 10.7465 18.1865 10.7213 18.1865 10.6948C18.1865 10.6473 18.167 10.604 18.1362 10.5718C18.1041 10.5397 18.0608 10.5201 18.0119 10.5201C17.9797 10.5201 17.9476 10.5285 17.9196 10.5467C17.9154 10.5495 17.9098 10.5495 17.9056 10.5467C17.8777 10.5299 17.847 10.5215 17.8148 10.5215C17.7785 10.5215 17.7449 10.5327 17.717 10.5509C17.689 10.5704 17.6653 10.597 17.6527 10.6291C17.6499 10.6361 17.6429 10.6389 17.6359 10.6361C17.6289 10.6333 17.6262 10.6263 17.6289 10.6193C17.6443 10.5816 17.6709 10.5509 17.703 10.5285C17.7352 10.5075 17.7729 10.495 17.8148 10.495C17.847 10.495 17.8777 10.5019 17.907 10.5173C17.9112 10.5047 17.9126 10.4922 17.9126 10.4782C17.9126 10.4419 17.8973 10.4083 17.8735 10.3846C17.8497 10.3608 17.8162 10.3454 17.7799 10.3454C17.7575 10.3454 17.7352 10.351 17.7156 10.3622C17.7072 10.3664 17.696 10.3608 17.696 10.3496C17.6974 10.3105 17.6848 10.2756 17.6583 10.2476C17.6345 10.2239 17.601 10.2085 17.5633 10.2085C17.5311 10.2085 17.5004 10.2197 17.478 10.2392C17.4543 10.2588 17.4389 10.2867 17.4333 10.3175C17.4319 10.3259 17.4235 10.3329 17.4151 10.3287C17.3984 10.3217 17.3802 10.3175 17.362 10.3175C17.3257 10.3175 17.2922 10.3315 17.267 10.358C17.274 10.3804 17.2768 10.4027 17.2768 10.4251C17.2768 10.4852 17.253 10.5439 17.2111 10.5872C17.2055 10.5928 17.1985 10.5928 17.1929 10.5872C17.1873 10.5816 17.1873 10.5732 17.1929 10.569C17.2307 10.5299 17.2502 10.4796 17.2502 10.4251C17.2502 10.358 17.2181 10.2951 17.1636 10.256C17.1231 10.2266 17.077 10.2155 17.028 10.2183C16.9735 10.2225 16.926 10.2462 16.8911 10.2839C16.8562 10.3217 16.8352 10.3706 16.8352 10.4251C16.8352 10.4321 16.8296 10.4377 16.8226 10.4377C16.8156 10.4377 16.81 10.4321 16.81 10.4251C16.81 10.4055 16.8017 10.386 16.7891 10.3734C16.7751 10.3594 16.7569 10.351 16.736 10.351C16.715 10.351 16.6968 10.3594 16.6829 10.3734C16.6689 10.3874 16.6605 10.4055 16.6605 10.4265C16.6605 10.4335 16.6549 10.4391 16.6479 10.4391C16.6409 10.4391 16.6354 10.4335 16.6354 10.4265C16.6354 10.3985 16.6465 10.3734 16.6647 10.3552C16.6829 10.337 16.708 10.3259 16.736 10.3259C16.7639 10.3259 16.7891 10.3384 16.8072 10.3566C16.8114 10.3608 16.8142 10.3636 16.817 10.3678C16.8268 10.3301 16.8464 10.2951 16.8715 10.2672C16.9079 10.228 16.9596 10.2001 17.0155 10.1945C17.0169 10.1805 17.0183 10.1666 17.0183 10.154C17.0183 10.0757 16.9861 10.0045 16.9358 9.95274C16.8841 9.90104 16.8128 9.8689 16.7332 9.8689C16.6367 9.8689 16.5473 9.91781 16.4942 9.99886C16.4914 10.0045 16.483 10.0072 16.4774 10.0044C16.4593 9.99606 16.4411 9.99047 16.4215 9.99047C16.3866 9.99047 16.3559 10.0044 16.3321 10.0268C16.3097 10.0492 16.2958 10.0813 16.2958 10.1148C16.2958 10.1344 16.3 10.1526 16.3083 10.1693C16.3125 10.1791 16.3042 10.1903 16.293 10.1875C16.2874 10.1861 16.2804 10.1847 16.2734 10.1847C16.2511 10.1847 16.2315 10.1931 16.2161 10.2085C16.1979 10.2266 16.1896 10.2518 16.1938 10.277C16.2231 10.2867 16.2483 10.3035 16.2692 10.3259C16.2804 10.3384 16.2902 10.3524 16.2986 10.3692C16.3153 10.3356 16.3503 10.3147 16.388 10.3147C16.4439 10.3147 16.4886 10.3594 16.4886 10.4153C16.4886 10.4405 16.4788 10.4642 16.4621 10.4824C16.4579 10.488 16.4495 10.488 16.4439 10.4824C16.4383 10.4782 16.4383 10.4698 16.4439 10.4642C16.4565 10.4502 16.4635 10.4335 16.4635 10.4139C16.4635 10.3734 16.4299 10.3398 16.3894 10.3398C16.3489 10.3398 16.3153 10.3734 16.3153 10.4139C16.3153 10.4195 16.3111 10.4251 16.3042 10.4265C16.2972 10.4265 16.2902 10.4237 16.2888 10.4167C16.2832 10.3888 16.2706 10.3622 16.2511 10.3426C16.2217 10.3105 16.1812 10.2923 16.1379 10.2923C16.0945 10.2923 16.0568 10.3091 16.0289 10.337C16.0009 10.365 15.9841 10.4027 15.9841 10.446C15.9841 10.4642 15.9869 10.4824 15.9939 10.4992C15.9981 10.5103 15.9869 10.5201 15.9758 10.5159C15.9632 10.5103 15.9478 10.5075 15.9338 10.5075C15.9059 10.5075 15.8793 10.5187 15.8612 10.5383C15.843 10.5564 15.8304 10.583 15.8304 10.6109C15.8304 10.6305 15.836 10.6487 15.8458 10.6654C15.8514 10.6738 15.8458 10.685 15.836 10.6864C15.7997 10.6892 15.7675 10.706 15.7452 10.7311C15.7228 10.7563 15.7074 10.7898 15.7074 10.8276C15.7074 10.8653 15.72 10.896 15.7438 10.9226C15.7703 10.9072 15.7997 10.8988 15.8304 10.8988C15.8947 10.8988 15.9534 10.9338 15.9827 10.9911C15.9855 10.998 15.9827 11.005 15.9771 11.0092C15.9702 11.012 15.9632 11.0092 15.959 11.0036C15.9338 10.9561 15.8835 10.9254 15.829 10.9254C15.7745 10.9254 15.7256 10.9547 15.7005 11.0022C15.6893 11.0218 15.6837 11.0456 15.6823 11.0693C15.6823 11.0791 15.6725 11.0861 15.6627 11.0819C15.6515 11.0763 15.639 11.0735 15.6264 11.0735C15.6054 11.0735 15.5873 11.0805 15.5733 11.0931C15.5593 11.1056 15.5495 11.1224 15.5453 11.142C15.5453 11.1518 15.5328 11.1574 15.5258 11.1518C15.5034 11.1378 15.4769 11.1294 15.4503 11.1294C15.414 11.1294 15.3804 11.1434 15.3553 11.1657C15.3301 11.1881 15.3134 11.2216 15.3106 11.2566C15.3106 11.2664 15.2994 11.2719 15.291 11.2664C15.2756 11.2566 15.2575 11.2524 15.2393 11.2524C15.1834 11.2524 15.1387 11.2971 15.1387 11.353C15.1387 11.4089 15.1834 11.4536 15.2393 11.4536C15.2616 11.4536 15.284 11.4466 15.3022 11.4327C15.3078 11.4271 15.3189 11.4285 15.3231 11.4368C15.3525 11.4927 15.4098 11.5277 15.4727 11.5277C15.5523 11.5277 15.6208 11.4718 15.6376 11.3949C15.6404 11.3837 15.6557 11.3809 15.6613 11.3921C15.6851 11.4368 15.7312 11.4648 15.7815 11.4648C15.857 11.4648 15.9171 11.4033 15.9171 11.3292C15.9171 11.2761 15.8737 11.2328 15.8206 11.2328C15.7843 11.2328 15.7508 11.2524 15.734 11.2859C15.7312 11.2929 15.7228 11.2943 15.7158 11.2915C15.7088 11.2887 15.7074 11.2803 15.7102 11.2733C15.7312 11.2328 15.7745 11.2063 15.8192 11.2063C15.8793 11.2063 15.9296 11.2496 15.9408 11.3069C15.959 11.2915 15.9785 11.2831 16.0023 11.2831C16.0512 11.2831 16.0917 11.3237 16.0917 11.3726L16.0848 11.3684ZM17.3928 10.8345C17.3858 10.8345 17.3802 10.829 17.3802 10.822C17.3802 10.815 17.3858 10.8094 17.3928 10.8094C17.4459 10.8094 17.4962 10.8248 17.5381 10.8513C17.5744 10.8737 17.6052 10.9058 17.6276 10.9435C17.6415 10.9212 17.6611 10.903 17.6834 10.889C17.7114 10.8709 17.7449 10.8611 17.7813 10.8611C17.7883 10.8611 17.7938 10.8667 17.7938 10.8737C17.7938 10.8807 17.7883 10.8862 17.7813 10.8862C17.7505 10.8862 17.7212 10.8946 17.6974 10.91C17.6723 10.9254 17.6513 10.9491 17.6387 10.9757C17.6387 10.9785 17.6359 10.9799 17.6331 10.9813C17.6262 10.9841 17.6192 10.9813 17.6164 10.9757C17.5954 10.9338 17.5647 10.8988 17.5241 10.8737C17.4864 10.8499 17.4417 10.8359 17.3928 10.8359V10.8345ZM16.3083 10.6403C16.3153 10.6403 16.3209 10.6459 16.3209 10.6529C16.3209 10.6599 16.3153 10.6654 16.3083 10.6654C16.2636 10.6654 16.2245 10.6836 16.1952 10.713C16.1658 10.7423 16.1476 10.7814 16.1476 10.8262C16.1476 10.8331 16.142 10.8387 16.1351 10.8387C16.1281 10.8387 16.1225 10.8331 16.1225 10.8262C16.1225 10.7982 16.1113 10.7717 16.0917 10.7535C16.0722 10.7353 16.047 10.7241 16.0191 10.7241C16.0121 10.7241 16.0065 10.7186 16.0065 10.7116C16.0065 10.7046 16.0121 10.699 16.0191 10.699C16.054 10.699 16.0862 10.713 16.1099 10.7367C16.1183 10.7451 16.1267 10.7549 16.1323 10.7661C16.142 10.7395 16.1574 10.7158 16.177 10.6962C16.2105 10.6627 16.2566 10.6417 16.3083 10.6417V10.6403ZM16.1574 11.047C16.1574 11.047 16.1434 11.0498 16.1393 11.0442C16.1351 11.0386 16.1365 11.0302 16.142 11.026C16.1742 11.0036 16.2105 10.9911 16.2497 10.9911C16.2762 10.9911 16.3028 10.9966 16.3265 11.0078C16.3279 10.9729 16.3433 10.9421 16.3656 10.9184C16.3894 10.8932 16.4243 10.8793 16.4607 10.8793C16.4677 10.8793 16.4732 10.8849 16.4732 10.8918C16.4732 10.8988 16.4677 10.9044 16.4607 10.9044C16.4313 10.9044 16.4034 10.917 16.3838 10.9366C16.3573 10.9631 16.3503 10.9911 16.3531 11.0274C16.3545 11.0386 16.3433 11.047 16.3335 11.04C16.3083 11.0246 16.279 11.0162 16.2497 11.0162C16.2161 11.0162 16.184 11.026 16.1574 11.0456V11.047ZM16.5529 10.6543C16.5459 10.6543 16.5403 10.6487 16.5403 10.6417C16.5403 10.6347 16.5459 10.6291 16.5529 10.6291C16.6228 10.6291 16.6871 10.6515 16.7388 10.6892C16.7807 10.7199 16.8142 10.7591 16.838 10.8052C16.845 10.7884 16.8548 10.7745 16.8659 10.7619C16.8883 10.7395 16.9204 10.7241 16.9554 10.7241C16.9624 10.7241 16.9679 10.7297 16.9679 10.7367C16.9679 10.7437 16.9624 10.7493 16.9554 10.7493C16.9274 10.7493 16.9023 10.7605 16.8841 10.7786C16.8659 10.7968 16.8548 10.822 16.8548 10.8499C16.8548 10.8555 16.852 10.8611 16.8464 10.8625C16.8394 10.8653 16.8324 10.8611 16.8296 10.8541C16.81 10.7954 16.7723 10.7451 16.7234 10.7088C16.6759 10.6738 16.6172 10.6543 16.5529 10.6543Z" fill="#007C29"/>
<path fill-rule="evenodd" clip-rule="evenodd" d="M16.6675 11.3685C16.6339 11.3196 16.5962 11.2762 16.5529 11.2371C16.5166 11.205 16.476 11.1756 16.4327 11.1519C16.4327 11.1602 16.4341 11.1686 16.4341 11.177C16.4341 11.2119 16.4243 11.2455 16.4062 11.2734C16.4565 11.3279 16.497 11.3922 16.5263 11.4635C16.5571 11.539 16.5752 11.6214 16.5808 11.7094C16.6032 12.0784 16.585 12.4473 16.5263 12.8092C16.4676 13.1698 16.3684 13.5233 16.2287 13.8643C16.2175 13.8979 16.2259 13.937 16.251 13.9608C16.2678 13.9775 16.2916 13.9887 16.3167 13.9887C16.3349 13.9887 16.3517 13.9831 16.367 13.9747C16.3586 13.9552 16.353 13.9328 16.353 13.9104C16.353 13.835 16.4145 13.6868 16.4495 13.6184C16.497 13.5219 16.5347 13.4199 16.5599 13.3137C16.585 13.2103 16.5976 13.1013 16.5976 12.9909C16.5976 12.9839 16.6032 12.9783 16.6102 12.9783C16.6172 12.9783 16.6228 12.9839 16.6228 12.9909C16.6228 13.1041 16.6102 13.2145 16.585 13.3207C16.5599 13.4297 16.5207 13.5331 16.4718 13.631C16.4397 13.6952 16.3782 13.842 16.3782 13.9118C16.3782 13.9482 16.3922 13.9803 16.4159 14.0027C16.4397 14.0264 16.4718 14.0404 16.5068 14.0404C16.5389 14.0404 16.5683 14.0292 16.5906 14.0097C16.613 13.9901 16.6297 13.9622 16.6339 13.9314C16.6549 13.7763 16.6647 13.6198 16.6647 13.4633V11.3699L16.6675 11.3685Z" fill="#996633"/>
<path fill-rule="evenodd" clip-rule="evenodd" d="M17.1496 11.2327C17.1244 11.2215 17.1007 11.2076 17.0783 11.1894C17.0643 11.1768 17.0504 11.1628 17.0392 11.1475C17.0001 11.1754 16.9623 11.2076 16.9288 11.2411C16.8924 11.2774 16.8603 11.318 16.8338 11.3627C16.8226 11.5136 16.8128 11.6659 16.8044 11.8168C16.796 11.9706 16.7918 12.1243 16.789 12.278C16.7862 12.5575 16.7918 12.8356 16.8044 13.1109C16.817 13.3862 16.8379 13.6587 16.8659 13.9298C16.8687 13.9578 16.8924 13.9787 16.9204 13.9787C16.9539 13.9787 16.9763 13.9522 16.9763 13.92C16.9791 13.8166 16.9707 13.7146 16.9511 13.614C16.9316 13.5134 16.9008 13.4141 16.8603 13.3191C16.8575 13.3121 16.8603 13.3051 16.8673 13.3023C16.8743 13.2996 16.8813 13.3023 16.8841 13.3093C16.926 13.4058 16.9567 13.5064 16.9777 13.6084C16.9973 13.7104 17.0056 13.8152 17.0028 13.92C17.0028 13.9368 16.9987 13.9508 16.9903 13.9647C17.0056 13.9731 17.0224 13.9787 17.0392 13.9787C17.0657 13.9787 17.0895 13.9675 17.1063 13.9508C17.1314 13.9256 17.144 13.8865 17.1328 13.8515C17.0378 13.593 16.9665 13.3261 16.919 13.055C16.8701 12.7811 16.8463 12.503 16.8463 12.2221V11.7707C16.8463 11.6533 16.8785 11.5443 16.9344 11.4507C16.9875 11.3613 17.0615 11.2872 17.1496 11.2327Z" fill="#663300"/>
<path fill-rule="evenodd" clip-rule="evenodd" d="M16.8715 13.9887C16.8547 13.9761 16.8436 13.9565 16.8408 13.9342C16.8128 13.6631 16.7919 13.3891 16.7793 13.1138C16.7667 12.8372 16.7611 12.5591 16.7639 12.2782C16.7653 12.123 16.7709 11.9693 16.7793 11.8156C16.7849 11.7052 16.7919 11.5948 16.7989 11.4858C16.8044 11.4006 16.8072 11.3251 16.8072 11.2399V11.1253C16.7975 11.1253 16.7863 11.1253 16.7765 11.1253C16.7485 11.1253 16.7206 11.1211 16.694 11.1155V13.4604C16.694 13.6183 16.6829 13.7762 16.6619 13.9328C16.6591 13.9537 16.6521 13.9719 16.6423 13.9887C16.6717 14.0208 16.7136 14.0376 16.7569 14.0376C16.8002 14.0376 16.8422 14.0194 16.8715 13.9873V13.9887Z" fill="#663300"/>
<path fill-rule="evenodd" clip-rule="evenodd" d="M18.9341 9.34197L18.7734 9.26232L18.9244 9.1603C18.9244 9.1603 18.93 9.15332 18.93 9.14912L18.9202 8.96745L19.0795 9.04711C19.0795 9.04711 19.0893 9.0499 19.0935 9.04711L19.2374 8.95068L19.2472 9.12257C19.2472 9.12257 19.25 9.13235 19.2542 9.13375L19.4135 9.21341L19.2625 9.31542C19.2625 9.31542 19.257 9.32241 19.257 9.3266L19.2667 9.50827L19.1074 9.42862C19.1074 9.42862 19.0976 9.42582 19.0935 9.42862L18.9495 9.52504L18.9397 9.35315C18.9397 9.35315 18.9369 9.34337 18.9327 9.34197H18.9341Z" fill="#FED700"/>
<path fill-rule="evenodd" clip-rule="evenodd" d="M18.044 9.10299L17.8707 9.06107L17.9936 8.92831C17.9936 8.92831 17.9978 8.91992 17.9964 8.91573L17.9461 8.74105L18.1194 8.78297C18.1194 8.78297 18.1292 8.78297 18.1334 8.77878L18.2508 8.65161L18.2983 8.81791C18.2983 8.81791 18.3025 8.82629 18.3081 8.82769L18.4814 8.86962L18.3584 9.00237C18.3584 9.00237 18.3528 9.01076 18.3556 9.01495L18.4059 9.18963L18.2326 9.14771C18.2326 9.14771 18.2228 9.14771 18.2186 9.1519L18.1012 9.27907L18.0537 9.11277C18.0537 9.11277 18.0495 9.10439 18.044 9.10299Z" fill="#FED700"/>
<path fill-rule="evenodd" clip-rule="evenodd" d="M17.0979 8.98419L16.919 8.9786L17.0126 8.82348C17.0126 8.82348 17.0154 8.81509 17.0126 8.8095L16.9274 8.6488L17.1063 8.65439C17.1063 8.65439 17.1147 8.65159 17.1174 8.6474L17.2069 8.49927L17.2879 8.65299C17.2879 8.65299 17.2949 8.65998 17.2991 8.65998L17.478 8.66557L17.3844 8.82068C17.3844 8.82068 17.3816 8.82907 17.3844 8.83466L17.4696 8.99537L17.2907 8.98978C17.2907 8.98978 17.2809 8.99257 17.2796 8.99537L17.1901 9.1435L17.1091 8.98978C17.1091 8.98978 17.1035 8.98279 17.0979 8.98279V8.98419Z" fill="#FED700"/>
<path fill-rule="evenodd" clip-rule="evenodd" d="M16.3111 8.98419L16.49 8.9786L16.3964 8.82348C16.3964 8.82348 16.3936 8.81509 16.3964 8.8095L16.4816 8.6488L16.3028 8.65439C16.3028 8.65439 16.2944 8.65159 16.2916 8.6474L16.2021 8.49927L16.1211 8.65299C16.1211 8.65299 16.1155 8.65998 16.1099 8.65998L15.931 8.66557L16.0247 8.82068C16.0247 8.82068 16.0275 8.82907 16.0247 8.83466L15.9394 8.99537L16.1183 8.98978C16.1183 8.98978 16.1267 8.99257 16.1295 8.99537L16.2189 9.1435L16.3 8.98978C16.3 8.98978 16.3069 8.98279 16.3111 8.98279V8.98419Z" fill="#FED700"/>
<path fill-rule="evenodd" clip-rule="evenodd" d="M15.3664 9.10299L15.5397 9.06107L15.4167 8.92831C15.4167 8.92831 15.4125 8.91992 15.4139 8.91573L15.4642 8.74105L15.291 8.78297C15.291 8.78297 15.2812 8.78297 15.277 8.77878L15.1596 8.65161L15.1121 8.81791C15.1121 8.81791 15.1079 8.82629 15.1023 8.82769L14.929 8.86962L15.052 9.00237C15.052 9.00237 15.0562 9.01076 15.0548 9.01495L15.0045 9.18963L15.1778 9.14771C15.1778 9.14771 15.1875 9.14771 15.1917 9.1519L15.3091 9.27907L15.3566 9.11277C15.3566 9.11277 15.3608 9.10439 15.3664 9.10299Z" fill="#FED700"/>
<path fill-rule="evenodd" clip-rule="evenodd" d="M14.4763 9.34197L14.6356 9.26232L14.4846 9.1603C14.4846 9.1603 14.4791 9.15332 14.4791 9.14912L14.4888 8.96745L14.3295 9.04711C14.3295 9.04711 14.3197 9.0499 14.3156 9.04711L14.1716 8.95068L14.1618 9.12257C14.1618 9.12257 14.159 9.13235 14.1548 9.13375L13.9941 9.21341L14.1451 9.31542C14.1451 9.31542 14.1507 9.32241 14.1507 9.3266L14.1409 9.50827L14.3002 9.42862C14.3002 9.42862 14.31 9.42582 14.3142 9.42862L14.4581 9.52504L14.4679 9.35315C14.4679 9.35315 14.4707 9.34337 14.4749 9.34197H14.4763Z" fill="#FED700"/>
</g>
</g>
<rect x="0.25" y="0.25" width="23.5" height="23.5" rx="11.75" stroke="#E5E3E1" stroke-width="0.5"/>
<defs>
<clipPath id="clip0_16335_8264">
<rect width="24" height="24" rx="12" fill="white"/>
</clipPath>
</defs>
</svg>
