<svg width="80" height="70" viewBox="0 0 80 70" fill="none" xmlns="http://www.w3.org/2000/svg">
<path fill-rule="evenodd" clip-rule="evenodd" d="M79.3373 69.4358C79.4084 69.4892 79.4973 69.5247 79.5862 69.5247C79.6751 69.5247 79.7818 69.4892 79.8707 69.418C80.0307 69.258 80.0485 69.0091 79.8885 68.8312C71.94 60.4738 62.2312 53.8056 51.3309 49.4135L48.0057 48.0799C46.2987 47.3864 45.1073 45.6971 45.1607 43.7589C45.3385 36.6462 62.1778 38.0865 63.8849 34.6724L64.1872 34.0856C60.7197 31.1339 56.6121 28.8933 52.0778 27.6486C52.0422 27.8264 51.9355 28.6444 52.8424 30.1559C53.8382 31.7918 51.7399 34.3879 48.6815 31.5784L48.4325 31.3472C26.1519 10.9337 15.8741 24.4301 0.759536 0.709213V0.691432C0.635064 0.495832 0.386119 0.442487 0.190519 0.566959C0.0127013 0.67365 -0.0406441 0.887031 0.0304831 1.06485C11.9621 29.8713 36.3587 23.7544 39.2571 50.6049C39.3638 51.5829 40.1106 52.3653 41.0886 52.5253C54.6561 54.6592 67.8502 60.2426 79.3373 69.4358Z" fill="#555555"/>
<path fill-rule="evenodd" clip-rule="evenodd" d="M0.776626 0.70901C17.8827 27.8085 36.198 14.4366 39.2742 50.6225C36.3936 23.772 11.9792 29.8889 0.0475729 1.08243C-0.0235543 0.904609 0.0297911 0.691228 0.207609 0.584537C0.385427 0.460065 0.634372 0.51341 0.776626 0.70901Z" fill="url(#paint0_linear_17380_12530)" style="mix-blend-mode:darken"/>
<path fill-rule="evenodd" clip-rule="evenodd" d="M58.8707 33.7124C58.8707 33.7124 55.1365 33.8902 52.8604 30.1738C53.5361 31.2763 52.7893 32.8411 51.2778 32.8411V38.5135C53.7317 37.8022 56.5235 37.3577 58.8707 36.8776V33.7124Z" fill="url(#paint1_linear_17380_12530)" style="mix-blend-mode:darken"/>
<path fill-rule="evenodd" clip-rule="evenodd" d="M43.8983 53.024C56.47 55.4423 68.6505 60.8658 79.3196 69.4366C55.5275 49.0942 44.6807 52.7751 43.8983 53.024Z" fill="url(#paint2_linear_17380_12530)" style="mix-blend-mode:darken"/>
<defs>
<linearGradient id="paint0_linear_17380_12530" x1="9.81416" y1="43.8266" x2="38.5196" y2="43.8266" gradientUnits="userSpaceOnUse">
<stop stop-color="white" stop-opacity="0.01"/>
<stop offset="0.285827" stop-color="#646464" stop-opacity="0.28"/>
<stop offset="0.886" stop-color="#373737" stop-opacity="0.85"/>
<stop offset="1" stop-color="#373737"/>
</linearGradient>
<linearGradient id="paint1_linear_17380_12530" x1="53.8824" y1="35.2496" x2="54.493" y2="30.1609" gradientUnits="userSpaceOnUse">
<stop stop-color="#646464" stop-opacity="0.01"/>
<stop stop-color="#646464" stop-opacity="0.093231"/>
<stop offset="0.248265" stop-color="#646464" stop-opacity="0.3246"/>
<stop offset="0.445315" stop-color="#373737" stop-opacity="0.55"/>
<stop offset="0.712931" stop-color="#373737" stop-opacity="0.78"/>
<stop offset="1" stop-color="#373737"/>
</linearGradient>
<linearGradient id="paint2_linear_17380_12530" x1="43.9122" y1="68.6249" x2="75.7944" y2="68.6249" gradientUnits="userSpaceOnUse">
<stop stop-color="#646464" stop-opacity="0.01"/>
<stop stop-color="#646464" stop-opacity="0.093231"/>
<stop offset="0.248265" stop-color="#646464" stop-opacity="0.3246"/>
<stop offset="0.445315" stop-color="#373737" stop-opacity="0.55"/>
<stop offset="0.712931" stop-color="#373737" stop-opacity="0.78"/>
<stop offset="1" stop-color="#373737"/>
</linearGradient>
</defs>
</svg>
