<svg width="24" height="24" viewBox="0 0 24 24" fill="none" xmlns="http://www.w3.org/2000/svg">
<path d="M24 12C24 18.6274 18.6274 24 12 24C5.37258 24 0 18.6274 0 12C0 5.37258 5.37258 0 12 0C18.6274 0 24 5.37258 24 12Z" fill="#E5E3E1"/>
<path d="M11.7881 16.6714C11.1364 16.6714 10.5672 16.5614 10.0806 16.3413C9.59391 16.117 9.20882 15.8102 8.92529 15.4209C8.64176 15.0316 8.47673 14.5851 8.43018 14.0815L8.42383 13.999H9.79492L9.80127 14.0688C9.83089 14.3439 9.93034 14.5872 10.0996 14.7988C10.2689 15.0104 10.4974 15.1776 10.7852 15.3003C11.0771 15.4188 11.4115 15.478 11.7881 15.478C12.1647 15.478 12.4927 15.4146 12.772 15.2876C13.0513 15.1564 13.2692 14.9766 13.4258 14.748C13.5824 14.5153 13.6606 14.2508 13.6606 13.9546V13.9419C13.6606 13.4256 13.485 13.0299 13.1338 12.7549C12.7826 12.4756 12.3022 12.3359 11.6929 12.3359H10.582V11.2188H11.6484C11.9997 11.2188 12.3065 11.1574 12.5688 11.0347C12.8312 10.9077 13.0365 10.7342 13.1846 10.5142C13.3327 10.2941 13.4067 10.0423 13.4067 9.75879V9.74609C13.4067 9.44987 13.3433 9.19808 13.2163 8.99072C13.0894 8.77913 12.9032 8.61833 12.6577 8.5083C12.4165 8.39404 12.1224 8.33691 11.7754 8.33691C11.4368 8.33691 11.1364 8.39404 10.874 8.5083C10.6117 8.62256 10.4022 8.78548 10.2456 8.99707C10.089 9.20443 9.99593 9.4541 9.96631 9.74609L9.95996 9.80322H8.61426L8.62061 9.73975C8.67139 9.21924 8.83219 8.76855 9.10303 8.3877C9.37809 8.0026 9.74202 7.70426 10.1948 7.49268C10.6519 7.27686 11.1787 7.16895 11.7754 7.16895C12.3848 7.16895 12.9159 7.27051 13.3687 7.47363C13.8215 7.67676 14.1727 7.95817 14.4224 8.31787C14.672 8.67334 14.7969 9.08805 14.7969 9.56201V9.57471C14.7969 9.95557 14.7122 10.292 14.543 10.584C14.3779 10.8717 14.1494 11.113 13.8574 11.3076C13.5697 11.498 13.2396 11.6313 12.8672 11.7075V11.7393C13.54 11.7943 14.0817 12.0164 14.4922 12.4058C14.9027 12.7951 15.1079 13.3114 15.1079 13.9546V13.9673C15.1079 14.492 14.9661 14.9596 14.6826 15.3701C14.3991 15.7764 14.0077 16.0959 13.5083 16.3286C13.0132 16.5571 12.4398 16.6714 11.7881 16.6714Z" fill="#323232"/>
</svg>
