<svg width="48" height="48" viewBox="0 0 48 48" fill="none" xmlns="http://www.w3.org/2000/svg">
<path d="M12.9898 25.4001C13.763 25.4001 14.3898 24.7733 14.3898 24.0001C14.3898 23.2269 13.763 22.6001 12.9898 22.6001C12.2166 22.6001 11.5898 23.2269 11.5898 24.0001C11.5898 24.7733 12.2166 25.4001 12.9898 25.4001Z" fill="#DF0000"/>
<path d="M8.56992 25.4001C9.34312 25.4001 9.96992 24.7733 9.96992 24.0001C9.96992 23.2269 9.34312 22.6001 8.56992 22.6001C7.79672 22.6001 7.16992 23.2269 7.16992 24.0001C7.16992 24.7733 7.79672 25.4001 8.56992 25.4001Z" fill="#DF0000"/>
<path d="M4.15 25.4001C4.9232 25.4001 5.55 24.7733 5.55 24.0001C5.55 23.2269 4.9232 22.6001 4.15 22.6001C3.3768 22.6001 2.75 23.2269 2.75 24.0001C2.75 24.7733 3.3768 25.4001 4.15 25.4001Z" fill="#DF0000"/>
<path d="M24.1801 38.7398C23.6201 38.7398 23.1001 38.4698 22.7701 38.0298C22.4401 37.5798 22.3501 36.9998 22.5201 36.4698L25.4601 27.2598H20.8801L18.3701 30.5898C17.9701 31.1198 17.3601 31.4298 16.6701 31.4298H15.7101C15.2601 31.4198 14.8401 31.1898 14.5901 30.8198C14.3401 30.4398 14.2901 29.9698 14.4601 29.5498L16.7001 24.0098L14.4601 18.4598C14.2901 18.0398 14.3401 17.5698 14.5901 17.1998C14.8401 16.8198 15.2601 16.5998 15.7101 16.5898H16.6701C16.6701 16.5898 16.6701 16.5898 16.6801 16.5898C17.3401 16.5898 17.9701 16.8998 18.3701 17.4298L20.8801 20.7598H25.4601L22.5201 11.5498C22.3501 11.0198 22.4501 10.4398 22.7701 9.98979C23.0901 9.53979 23.6201 9.27979 24.1801 9.27979H25.0101C26.0001 9.27979 26.9501 9.74979 27.5601 10.5298L35.4801 20.7598H42.9901C44.7801 20.7598 46.2501 22.2198 46.2501 24.0098C46.2501 25.7998 44.7901 27.2598 43.0001 27.2598H35.4901L27.5701 37.4898C26.9601 38.2698 26.0101 38.7398 25.0201 38.7398H24.1901H24.1801ZM20.5601 25.2498H25.8201C26.3701 25.2498 26.9001 25.5198 27.2301 25.9598C27.5601 26.3998 27.6501 26.9898 27.4801 27.5198L24.5401 36.7298H25.0201C25.4001 36.7298 25.7601 36.5498 25.9901 36.2498L33.9901 25.9198C34.3201 25.4998 34.8301 25.2398 35.3701 25.2398H43.0101C43.7001 25.2398 44.2601 24.6798 44.2601 23.9898C44.2601 23.2998 43.7001 22.7398 43.0001 22.7398H35.3601C34.8201 22.7398 34.3101 22.4898 33.9801 22.0598L25.9801 11.7298C25.7501 11.4298 25.3901 11.2498 25.0101 11.2498H24.5301L27.4701 20.4598C27.6401 20.9898 27.5401 21.5698 27.2201 22.0198C26.9001 22.4698 26.3701 22.7298 25.8101 22.7298H20.5501C20.1301 22.7298 19.7301 22.5298 19.4701 22.1898L16.7701 18.5998L16.6801 18.5598H16.6601L18.5901 23.3398C18.7601 23.7598 18.7601 24.2198 18.5901 24.6298L16.6601 29.4098H16.6801L16.7701 29.3698L19.4701 25.7898C19.7301 25.4498 20.1301 25.2498 20.5501 25.2498H20.5601Z" fill="#323232"/>
</svg>
