<svg width="24" height="24" viewBox="0 0 24 24" fill="none" xmlns="http://www.w3.org/2000/svg">
<g clip-path="url(#clip0_16335_3442)">
<path d="M23.0858 16.592C25.622 10.4691 22.7144 3.44943 16.5915 0.913232C10.4685 -1.62297 3.4489 1.28465 0.912697 7.40759C-1.62351 13.5305 1.28412 20.5501 7.40705 23.0863C13.53 25.6225 20.5496 22.7149 23.0858 16.592Z" fill="white"/>
<mask id="mask0_16335_3442" style="mask-type:luminance" maskUnits="userSpaceOnUse" x="-1" y="-1" width="26" height="26">
<path d="M23.0858 16.592C25.622 10.4691 22.7144 3.44943 16.5915 0.913232C10.4685 -1.62297 3.4489 1.28465 0.912697 7.40759C-1.62351 13.5305 1.28412 20.5501 7.40705 23.0863C13.53 25.6225 20.5496 22.7149 23.0858 16.592Z" fill="white"/>
</mask>
<g mask="url(#mask0_16335_3442)">
<path d="M29.9616 0H-6.03839V24H29.9616V0Z" fill="#FED700"/>
<path fill-rule="evenodd" clip-rule="evenodd" d="M-6.03839 0H29.9616V24L-6.03839 0Z" fill="#FF0000"/>
<path fill-rule="evenodd" clip-rule="evenodd" d="M11.5095 13.628C11.4774 13.6126 11.448 13.5916 11.4229 13.5665C11.4187 13.5623 11.4131 13.5567 11.4089 13.5511C11.2929 13.6811 11.1643 13.8041 11.0274 13.9159C10.882 14.0346 10.7255 14.1436 10.5578 14.2415C10.386 14.3407 10.2085 14.4245 10.0282 14.4916C9.84374 14.5601 9.65508 14.6118 9.46642 14.6481C9.2568 14.6789 9.04998 14.7306 8.84595 14.8018C8.77049 14.8284 8.69642 14.8577 8.62235 14.8899C9.01784 15.0576 9.37 15.3161 9.64809 15.6431C9.92339 15.9729 10.2658 16.2245 10.6445 16.3894C11.0288 16.5571 11.4494 16.6353 11.8701 16.6144C12.0182 16.6032 12.1747 16.6982 12.2474 16.8254C12.3172 16.947 12.3228 17.0937 12.2627 17.2209C12.2152 17.3243 12.1943 17.4389 12.1999 17.5535C12.2054 17.6639 12.2362 17.7743 12.2949 17.8763C12.3284 17.9336 12.3675 17.9853 12.4151 18.0314C12.4514 18.0621 12.4821 18.0999 12.5059 18.1404C12.5576 18.2298 12.573 18.329 12.5562 18.4227C12.5408 18.5149 12.4947 18.6015 12.4234 18.6658C12.3508 18.7301 12.3158 18.8643 12.3256 18.9593C12.341 19.032 12.3312 19.1074 12.3019 19.1745C12.2725 19.2402 12.2236 19.2961 12.1565 19.3352C12.0923 19.3729 12.0196 19.3869 11.9497 19.3813C11.8784 19.3757 11.81 19.3478 11.7555 19.3017C11.7429 19.2905 11.7373 19.2737 11.7457 19.2584L11.898 18.9956C11.8784 18.9244 11.8673 18.8503 11.8659 18.7776C11.8659 18.7022 11.8742 18.6267 11.8924 18.554C11.8519 18.452 11.8044 18.3528 11.7499 18.2578C11.5808 17.9643 11.3544 17.7253 11.0917 17.5451C10.8192 17.3578 10.5103 17.2348 10.1875 17.1845C9.68163 17.1021 9.18274 16.9805 8.69502 16.8226C8.20871 16.6633 7.73497 16.4676 7.2766 16.2356C7.12288 16.1602 6.95518 16.1183 6.78469 16.1057C6.63237 16.1015 6.48284 16.0693 6.34309 16.0093C6.20614 15.9506 6.08876 15.8513 6.0077 15.727C5.92805 15.6068 5.88193 15.4615 5.88193 15.3077C5.88193 15.1834 5.91268 15.0646 5.96578 14.9612C6.02028 14.8536 6.10133 14.7613 6.19916 14.6901C6.41716 14.5433 6.62538 14.3826 6.81683 14.2093C7.01248 14.0332 7.19415 13.8446 7.36045 13.6461C7.61758 13.3373 7.91105 13.0536 8.23665 12.8021C8.55388 12.5575 8.90324 12.3437 9.28056 12.1676C9.36301 12.1285 9.44686 12.0922 9.5321 12.0572V11.7945C9.5321 11.5653 9.62713 11.3557 9.77805 11.2048C9.92898 11.0553 10.1358 10.9616 10.3636 10.9616H10.4474C10.4195 10.9043 10.4027 10.84 10.3985 10.7716C10.2783 10.7534 10.1568 10.738 10.0338 10.7269C9.71936 10.9532 9.39096 11.1601 9.05277 11.3431C8.7076 11.5304 8.35125 11.6939 7.98651 11.8336C7.96974 11.8406 7.95018 11.8322 7.94319 11.8141C7.9376 11.8001 7.94319 11.7847 7.95297 11.7763L9.29174 10.7143C9.14221 10.7227 8.99268 10.7366 8.84315 10.7576C8.46584 10.8107 8.08992 10.9057 7.72099 11.0441C7.70981 11.1447 7.64553 11.2579 7.53932 11.3711C7.42892 11.4899 7.2738 11.61 7.08515 11.7218L6.97754 11.993C6.97056 12.0097 6.95099 12.0181 6.93422 12.0111C6.91745 12.0041 6.90907 11.9846 6.91605 11.9678L6.99291 11.7763C6.93282 11.8029 6.86575 11.8141 6.80006 11.8029L6.46747 12.2487C6.45629 12.2641 6.43533 12.2669 6.41996 12.2557C6.40458 12.2445 6.40179 12.2235 6.41297 12.2082L6.63656 11.9091C6.56948 11.9371 6.50101 11.9426 6.44231 11.9287C6.40458 11.9203 6.37104 11.9035 6.34449 11.8812L6.02587 12.3088C6.01469 12.3242 5.99373 12.3269 5.97836 12.3158C5.96299 12.3046 5.96019 12.2836 5.97137 12.2683L6.16841 12.0027C6.10972 12.0209 6.05242 12.0237 6.00072 12.0125C5.95181 12.0013 5.91128 11.9776 5.88333 11.9426L5.5703 12.3633C5.55912 12.3787 5.53816 12.3814 5.52418 12.3703C5.50881 12.3591 5.50602 12.3381 5.5172 12.3242L5.77573 11.9776C5.72262 11.993 5.66812 11.9944 5.622 11.9832C5.5703 11.972 5.52698 11.9454 5.49903 11.9063L5.1273 12.0656C5.11053 12.0726 5.09097 12.0656 5.08258 12.0489C5.0756 12.0321 5.08259 12.0125 5.09935 12.0055L5.47108 11.8448C5.4613 11.7973 5.47108 11.7484 5.49903 11.7023C5.52278 11.6618 5.56191 11.6226 5.60943 11.5947L5.18041 11.5444C5.16224 11.5416 5.14827 11.5262 5.15106 11.5066C5.15386 11.4885 5.16923 11.4745 5.18879 11.4773L5.70865 11.5388C5.70166 11.4941 5.71284 11.4479 5.73799 11.406C5.76455 11.3613 5.80647 11.3208 5.85957 11.2914L5.53117 11.2523C5.513 11.2495 5.49903 11.2341 5.50182 11.2146C5.50462 11.1964 5.51999 11.1838 5.53955 11.1852L6.06919 11.2481C6.06919 11.2118 6.08317 11.1754 6.10133 11.1447C6.13208 11.093 6.18378 11.0469 6.24947 11.0175L5.87914 10.9742C5.86097 10.9714 5.847 10.956 5.84979 10.9365C5.85259 10.9183 5.86796 10.9043 5.88752 10.9071L6.43952 10.9714C6.47585 10.9155 6.53035 10.875 6.59045 10.8498L6.39899 10.773C6.38222 10.766 6.37384 10.7464 6.38083 10.7296C6.38781 10.7129 6.40738 10.7045 6.42415 10.7115L6.69526 10.8191C6.87972 10.766 7.05161 10.7366 7.19974 10.731C7.34647 10.7255 7.47085 10.7436 7.56168 10.7855C7.8244 10.6835 8.08992 10.6039 8.35823 10.5438C8.3233 10.5396 8.28976 10.534 8.25622 10.5284C7.96974 10.4739 7.70282 10.3328 7.496 10.1287C7.40656 10.0407 7.3297 9.94148 7.26542 9.83667C7.25703 9.82549 7.25703 9.80872 7.26682 9.79754C7.278 9.78357 7.29896 9.78077 7.31433 9.79195C7.3842 9.84785 7.46526 9.90515 7.54351 9.94707C7.82301 10.1078 8.12626 10.1916 8.42811 10.2014C8.73974 10.2126 9.04858 10.1469 9.32807 10.0128C9.45524 9.94847 9.62433 9.90375 9.76548 9.88558C10.0687 9.84925 10.3734 9.91074 10.6389 10.0631C10.7255 10.1134 10.8052 10.1693 10.8779 10.2363C10.903 10.1763 10.9407 10.1218 10.9869 10.0756C11.0148 10.0477 11.0456 10.0239 11.0777 10.003C11.0316 9.77378 11.0078 9.53901 11.0078 9.30424C11.0078 8.91295 11.0735 8.52585 11.2021 8.15552C11.2803 7.95848 11.3404 7.75166 11.3795 7.53924C11.3949 7.46099 11.4061 7.38133 11.4159 7.30168C11.0721 7.56021 10.6738 7.73489 10.2504 7.81315C9.82697 7.88721 9.43707 8.0577 9.10588 8.30226C8.76909 8.55101 8.49099 8.87661 8.29814 9.25253C8.23386 9.38669 8.07315 9.47473 7.92642 9.47473C7.77969 9.47473 7.65531 9.40625 7.57705 9.29026C7.50998 9.19803 7.42333 9.12117 7.32132 9.06946C7.2235 9.01916 7.1117 8.99121 6.99291 8.99121C6.92723 8.99121 6.86295 8.99959 6.79867 9.01776C6.75395 9.03313 6.70644 9.04151 6.65892 9.04151C6.55691 9.04151 6.46188 9.00518 6.38921 8.94509C6.31794 8.885 6.26484 8.80255 6.24527 8.70752C6.22571 8.61249 6.12789 8.51607 6.03985 8.47694C5.96997 8.45318 5.90848 8.40846 5.86656 8.34837C5.82464 8.28968 5.79948 8.21981 5.79948 8.14295C5.79948 8.06609 5.82324 7.99761 5.86377 7.94032C5.90429 7.88162 5.96299 7.8369 6.03006 7.81175C6.04683 7.80616 6.0636 7.81035 6.07199 7.82572L6.22431 8.08845C6.29558 8.10661 6.36545 8.13456 6.42834 8.1695C6.49402 8.20583 6.55551 8.25195 6.60861 8.30365C6.71622 8.32042 6.82662 8.32741 6.93562 8.32741C7.2738 8.32741 7.59522 8.25055 7.8817 8.1136C8.17936 7.97106 8.44068 7.76424 8.64611 7.51129C8.97032 7.11442 9.32528 6.74269 9.70539 6.40031C10.0855 6.05933 10.4922 5.7463 10.9226 5.46541C11.0651 5.36899 11.1853 5.24601 11.2803 5.10347C11.36 4.9735 11.4634 4.86031 11.585 4.76948C11.7052 4.68004 11.8491 4.62833 11.9972 4.61995C12.1412 4.61156 12.2893 4.6437 12.4234 4.72196C12.5311 4.78485 12.6191 4.87009 12.682 4.96652C12.7477 5.06853 12.7882 5.18452 12.7994 5.30331C12.8161 5.56603 12.8525 5.82596 12.9056 6.0789C12.9601 6.33603 13.0327 6.58757 13.1222 6.83073C13.2605 7.20805 13.3597 7.60353 13.4142 8.01159C13.4674 8.40846 13.4785 8.81792 13.4422 9.23297C13.4212 9.46914 13.3863 9.70671 13.336 9.93868C13.3737 9.9303 13.4115 9.92611 13.4492 9.92611C13.5889 9.92611 13.7147 9.98201 13.8055 10.0742C13.8517 10.1204 13.8894 10.1749 13.9145 10.2363C14.0431 10.2419 14.1619 10.2978 14.2485 10.3831C14.2653 10.3998 14.2821 10.418 14.296 10.4376C14.2681 10.1078 14.2597 9.77658 14.2681 9.44818C14.2793 9.05549 14.3156 8.6656 14.3757 8.2799C14.3785 8.26173 14.3953 8.24915 14.4134 8.25195C14.4288 8.25474 14.4386 8.26592 14.4414 8.2799L14.6915 9.97083C14.7586 9.83667 14.8215 9.70112 14.8788 9.55997C15.0213 9.20642 15.1275 8.83329 15.1918 8.4448C15.1108 8.38471 15.0451 8.27291 14.999 8.12338C14.9515 7.96826 14.9249 7.77262 14.9235 7.55462L14.7418 7.32543C14.7307 7.31146 14.7335 7.2905 14.7474 7.27932C14.7614 7.26814 14.7824 7.27093 14.7935 7.28491L14.9207 7.44701C14.9277 7.38273 14.9515 7.31705 14.9934 7.26674L14.774 6.75667C14.767 6.7399 14.774 6.72033 14.7907 6.71195C14.8075 6.70496 14.8271 6.71195 14.8355 6.73011L14.9836 7.07249C14.9934 7.00122 15.0227 6.93834 15.0633 6.89362C15.0898 6.86567 15.1205 6.84471 15.1541 6.83353L14.9431 6.34441C14.9361 6.32765 14.9431 6.30808 14.9598 6.30109C14.9766 6.29411 14.9962 6.30109 15.0046 6.31926L15.1359 6.62251C15.1485 6.56242 15.1764 6.51071 15.2114 6.47298C15.2449 6.43665 15.2868 6.41289 15.3302 6.4059L15.1233 5.92518C15.1164 5.90841 15.1233 5.88884 15.1415 5.88185C15.1597 5.87487 15.1778 5.88185 15.1848 5.90002L15.3553 6.2969C15.3693 6.2424 15.3945 6.19628 15.428 6.15995C15.4643 6.12082 15.509 6.09567 15.5566 6.09287L15.6041 5.6918C15.6055 5.67363 15.6222 5.65966 15.6418 5.66245C15.66 5.66385 15.6739 5.68062 15.6711 5.70018L15.6236 6.10265C15.6698 6.11803 15.7075 6.15156 15.7326 6.19768C15.7564 6.2396 15.7704 6.29131 15.7704 6.34721L16.0289 6.00204C16.0401 5.98666 16.061 5.98387 16.0764 5.99505C16.0918 6.00623 16.0946 6.02719 16.0834 6.04117L15.7704 6.4604C15.8123 6.47717 15.8472 6.50931 15.871 6.55264C15.8961 6.59735 15.9101 6.65465 15.9087 6.71474L16.1058 6.44922C16.1169 6.43385 16.1379 6.43106 16.1533 6.44224C16.1686 6.45342 16.1714 6.47438 16.1603 6.48975L15.8416 6.91737C15.8724 6.93694 15.8975 6.96489 15.9157 6.99703C15.9451 7.04873 15.959 7.11721 15.952 7.18848L16.1756 6.88942C16.1868 6.87405 16.2078 6.87126 16.2217 6.88244C16.2371 6.89362 16.2399 6.91458 16.2287 6.92855L15.8961 7.37434C15.9255 7.43304 15.9339 7.50151 15.9255 7.5658L16.0876 7.43863C16.1016 7.42745 16.1225 7.43024 16.1337 7.44422C16.1449 7.45819 16.1421 7.47915 16.1281 7.49173L15.8989 7.6734C15.8528 7.85926 15.7927 8.02416 15.7229 8.15552C15.6544 8.28549 15.5761 8.38471 15.4951 8.442C15.4517 8.7201 15.3889 8.99121 15.3064 9.25253C15.3274 9.22458 15.3483 9.19803 15.3721 9.17148C15.5621 8.95068 15.8179 8.78997 16.0974 8.71311C16.219 8.67957 16.3419 8.66141 16.4663 8.66001C16.4803 8.66001 16.4943 8.66699 16.4998 8.68097C16.5068 8.69774 16.4984 8.7173 16.4817 8.72429C16.3992 8.75783 16.3084 8.79975 16.2329 8.84587C15.9534 9.00658 15.7298 9.22877 15.5705 9.48451C15.4056 9.74863 15.3078 10.0491 15.2841 10.3579C15.2757 10.5005 15.2309 10.6696 15.175 10.8009C15.1205 10.9281 15.0479 11.0469 14.9584 11.1545C14.9794 11.1712 14.999 11.1894 15.0171 11.2076C15.1681 11.3585 15.2631 11.5681 15.2631 11.7973V12.2962C15.5188 12.4681 15.7522 12.6749 15.9534 12.9097C16.0848 13.076 16.2343 13.2311 16.3978 13.3708C16.4579 13.4226 16.5208 13.4729 16.5851 13.5204C16.5334 13.0942 16.5809 12.6609 16.7248 12.2557C16.873 11.8532 16.9191 11.4298 16.873 11.0203C16.8255 10.6039 16.6829 10.2014 16.4537 9.84645C16.3699 9.72348 16.3741 9.54041 16.4481 9.41324C16.518 9.29166 16.6424 9.2134 16.7821 9.20222C16.8953 9.19104 17.0057 9.15331 17.1021 9.09043C17.1944 9.03034 17.2754 8.94788 17.3341 8.84587C17.3677 8.78857 17.3914 8.72848 17.4082 8.6642C17.4166 8.61808 17.4333 8.57197 17.4571 8.53144C17.5088 8.4434 17.5871 8.37912 17.6765 8.34698C17.7631 8.31483 17.8624 8.31064 17.9532 8.33999C18.0454 8.37073 18.1782 8.3344 18.2551 8.2771C18.311 8.22819 18.3808 8.19745 18.4535 8.19046C18.5248 8.18347 18.5988 8.19745 18.6659 8.23518C18.7302 8.27291 18.7791 8.32741 18.8084 8.3917C18.8378 8.45598 18.849 8.52865 18.8364 8.59992C18.8336 8.61669 18.821 8.62926 18.8029 8.62926H18.4996C18.4479 8.68237 18.3892 8.72848 18.3263 8.76482C18.262 8.80395 18.1922 8.83329 18.1195 8.85425C18.051 8.9395 17.9895 9.03173 17.935 9.12536C17.7659 9.41883 17.6723 9.73466 17.6472 10.0519C17.6206 10.3803 17.6695 10.7101 17.7869 11.0147C17.9686 11.4941 18.1139 11.9874 18.2187 12.4877C18.3249 12.9879 18.392 13.4966 18.4186 14.0095C18.4297 14.1814 18.4773 14.3463 18.5527 14.5C18.6254 14.6328 18.6715 14.7795 18.6897 14.9304C18.7078 15.0785 18.6799 15.2295 18.6128 15.3622C18.5485 15.4908 18.4451 15.604 18.3123 15.6809C18.2047 15.7423 18.0874 15.7759 17.9714 15.7815C17.8512 15.7871 17.7296 15.7647 17.6206 15.7158C17.3844 15.5998 17.1413 15.5006 16.8953 15.4209C16.6452 15.3399 16.3908 15.277 16.1351 15.2323C15.7396 15.1638 15.3469 15.052 14.9654 14.8955C14.5951 14.7432 14.236 14.5475 13.8936 14.3085C13.6309 14.1255 13.3835 13.9187 13.1557 13.6937C13.1473 13.7076 13.1389 13.7216 13.1278 13.7342C13.0984 13.7705 13.0621 13.7999 13.0202 13.8194C13.0244 13.8236 13.0285 13.8264 13.0313 13.8306C13.0872 13.8865 13.1208 13.962 13.1208 14.0472C13.1208 14.1409 13.0775 14.2303 13.0034 14.2876C13.0341 14.3351 13.0523 14.3924 13.0523 14.4525C13.0523 14.5363 13.0174 14.6132 12.9629 14.6691C12.9503 14.6817 12.9377 14.6928 12.9237 14.7026C13.0481 14.7711 13.1711 14.8424 13.2927 14.9178C13.6267 15.1233 13.9467 15.3497 14.2513 15.5956C14.2653 15.6068 14.2681 15.6278 14.2569 15.6431C14.2471 15.6543 14.2318 15.6585 14.2192 15.6529L12.6303 15.024C12.7113 15.1498 12.7994 15.2714 12.893 15.3902C13.1278 15.6906 13.3975 15.9687 13.7021 16.2189C13.7944 16.1783 13.9243 16.177 14.0766 16.2133C14.2346 16.2496 14.4176 16.3237 14.6077 16.4313L14.897 16.3894C14.9151 16.3866 14.9319 16.3991 14.9347 16.4173C14.9375 16.4355 14.9249 16.4523 14.9067 16.455L14.7027 16.4844C14.7558 16.5235 14.7991 16.5766 14.8215 16.6381L15.3735 16.7038C15.3917 16.7066 15.4056 16.722 15.4028 16.7415C15.4 16.7597 15.3847 16.7737 15.3651 16.7709L14.9948 16.7276C15.0521 16.7723 15.0912 16.8296 15.1094 16.8855C15.1205 16.9218 15.1233 16.9595 15.1164 16.9931L15.646 17.0546C15.6642 17.0574 15.6767 17.0741 15.6753 17.0923C15.6725 17.1105 15.6572 17.1244 15.6376 17.1216L15.3092 17.0825C15.3539 17.123 15.3861 17.1733 15.4014 17.2223C15.4168 17.2698 15.4168 17.3173 15.4 17.3592L15.9199 17.4207C15.9381 17.4235 15.952 17.4389 15.9492 17.4584C15.9464 17.4766 15.9311 17.4906 15.9115 17.4878L15.4825 17.4375C15.523 17.4766 15.551 17.5227 15.5649 17.5674C15.5803 17.6177 15.5803 17.6694 15.5594 17.7128L15.8836 17.9545C15.8989 17.9657 15.9017 17.9867 15.8905 18.002C15.8794 18.0174 15.8584 18.0202 15.8444 18.009L15.5202 17.7673C15.4839 17.7994 15.4364 17.8148 15.3833 17.8148C15.3358 17.8148 15.2841 17.8008 15.2351 17.7729L15.4056 18.1697C15.4126 18.1865 15.4056 18.2061 15.3875 18.2131C15.3707 18.22 15.3511 18.2131 15.3427 18.1949L15.1359 17.7142C15.101 17.7421 15.0549 17.7561 15.006 17.7547C14.9543 17.7547 14.8984 17.7379 14.8453 17.7058L14.9766 18.009C14.9836 18.0258 14.9766 18.0454 14.9584 18.0523C14.9417 18.0593 14.9221 18.0523 14.9151 18.0342L14.7041 17.5451C14.672 17.5618 14.6342 17.5702 14.5979 17.5702C14.5378 17.5702 14.4721 17.5479 14.4134 17.5059L14.5616 17.8483C14.5686 17.8651 14.5616 17.8846 14.5448 17.8916C14.528 17.8986 14.5085 17.8916 14.5015 17.8749L14.2821 17.3648C14.2164 17.3606 14.1535 17.3341 14.1004 17.2949L14.1297 17.499C14.1325 17.5171 14.12 17.5339 14.1018 17.5367C14.0836 17.5395 14.0669 17.5269 14.0641 17.5087L14.0221 17.2195C13.8838 17.0867 13.772 16.9525 13.6937 16.8268C13.6155 16.7024 13.568 16.585 13.5596 16.4858C13.3402 16.3083 13.1376 16.1183 12.9517 15.917C12.9657 15.9492 12.9782 15.9813 12.9894 16.0134C13.0844 16.2887 13.097 16.5892 13.0244 16.8715C12.9922 16.9931 12.9461 17.1091 12.886 17.2167C12.879 17.2292 12.8664 17.2376 12.8511 17.2348C12.8329 17.232 12.8203 17.2153 12.8231 17.1971C12.8357 17.1091 12.8455 17.0098 12.8427 16.9204C12.8427 16.5976 12.763 16.2929 12.6205 16.0274C12.4738 15.7521 12.2627 15.5174 12.007 15.3427C11.8868 15.2644 11.7638 15.1414 11.6786 15.0268C11.4955 14.7823 11.3963 14.4874 11.3963 14.1814C11.3963 13.9899 11.434 13.8041 11.5081 13.628H11.5095Z" fill="black"/>
<path fill-rule="evenodd" clip-rule="evenodd" d="M15.2645 12.3732V13.3333C15.2645 13.357 15.2393 13.3724 15.2184 13.364C15.0856 13.3095 14.9724 13.2173 14.8928 13.0999C14.8844 13.0873 14.876 13.0747 14.869 13.0607C14.7502 13.0524 14.6426 12.9993 14.5644 12.9182C14.5574 12.9098 14.549 12.9028 14.542 12.8944C14.4442 12.8903 14.3547 12.8483 14.2891 12.7827C14.2709 12.7645 14.2555 12.7463 14.2415 12.7254C14.1745 12.7226 14.1116 12.7016 14.0571 12.6681C14.0096 12.6387 13.9676 12.5982 13.9369 12.5507C13.9229 12.5619 13.9089 12.573 13.8936 12.5814C13.9103 12.6191 13.9201 12.6625 13.9201 12.7072C13.9201 12.784 13.8922 12.8539 13.8461 12.907C13.8069 12.9517 13.7566 12.9853 13.6979 13.0021C13.7035 13.0258 13.7077 13.0524 13.7077 13.0789C13.7077 13.1586 13.677 13.2298 13.6281 13.2843C13.5847 13.3319 13.526 13.3654 13.459 13.3794C13.452 13.452 13.4198 13.5177 13.3709 13.5666C13.329 13.6086 13.2745 13.6393 13.213 13.6505C13.4366 13.8713 13.6798 14.0725 13.9369 14.2528C14.2751 14.489 14.63 14.6818 14.9962 14.8327C15.3721 14.9878 15.7592 15.0982 16.1505 15.1653C16.409 15.21 16.6661 15.2743 16.9191 15.3568C17.1678 15.4378 17.4124 15.537 17.6513 15.6544C17.7506 15.6992 17.861 15.7201 17.97 15.7145C18.0762 15.7089 18.181 15.6796 18.2788 15.6237C18.4004 15.5538 18.4954 15.4504 18.5555 15.3316C18.617 15.2114 18.6408 15.0731 18.6254 14.9389C18.6086 14.7964 18.5639 14.658 18.4954 14.5323C18.4158 14.3688 18.3655 14.1955 18.3529 14.0138C18.3249 13.5051 18.2592 12.9979 18.153 12.5018C18.0482 12.0043 17.9043 11.5138 17.724 11.0386C17.6038 10.7242 17.5535 10.3846 17.5801 10.0464C17.6052 9.72081 17.7031 9.3952 17.8777 9.09196C17.9364 8.99134 18.0007 8.89491 18.0748 8.80408C18.079 8.79849 18.086 8.7929 18.0929 8.7915C18.1628 8.77194 18.2299 8.74399 18.2928 8.70626C18.3543 8.66992 18.4102 8.6252 18.4619 8.5707C18.4675 8.56372 18.4772 8.56092 18.4856 8.56092H18.7749C18.7791 8.51201 18.7693 8.4617 18.7484 8.41838C18.7246 8.36667 18.6855 8.32195 18.6324 8.29261C18.5779 8.26186 18.5178 8.24929 18.4605 8.25627C18.4032 8.26186 18.3473 8.28562 18.3012 8.32475C18.2201 8.39602 18.0384 8.43794 17.9364 8.40301C17.8582 8.37646 17.7743 8.37925 17.6989 8.4072C17.6234 8.43515 17.5577 8.48825 17.5144 8.56232C17.4948 8.59725 17.4809 8.63499 17.4725 8.67411C17.4585 8.7398 17.425 8.81805 17.3914 8.87535C17.3271 8.98715 17.2391 9.07658 17.1371 9.14226C17.0323 9.20934 16.9121 9.25127 16.7891 9.26384C16.6703 9.27083 16.5641 9.33931 16.504 9.44132C16.4398 9.55312 16.4398 9.69147 16.5068 9.80326C16.7416 10.1666 16.8883 10.5803 16.9372 11.0079C16.9848 11.4271 16.9372 11.8617 16.7849 12.274C16.6368 12.689 16.5935 13.1334 16.6564 13.5694C16.7416 13.6295 16.8296 13.6854 16.9219 13.7385C17.0253 13.7972 17.1301 13.8517 17.2377 13.8992C17.2545 13.9062 17.2629 13.9272 17.2545 13.9439C17.2475 13.9607 17.2279 13.9677 17.2098 13.9607C17.0994 13.9118 16.9917 13.8573 16.8883 13.7958C16.6941 13.684 16.5138 13.5554 16.3503 13.4143C16.1826 13.2704 16.0317 13.1125 15.8975 12.9448C15.7089 12.7268 15.4951 12.5339 15.2589 12.3704L15.2645 12.3732ZM17.1748 10.0953C17.1902 10.1051 17.1958 10.1247 17.1874 10.1414C17.1776 10.1568 17.158 10.1624 17.1413 10.154C17.0728 10.1149 17.0113 10.0394 16.9945 9.96118C16.975 9.88432 16.9834 9.80047 17.0267 9.7264C17.0365 9.71103 17.056 9.70544 17.0728 9.71383C17.0882 9.72361 17.0938 9.74317 17.0854 9.75994C17.0518 9.81864 17.0449 9.88432 17.0602 9.94441C17.0784 10.0101 17.1161 10.0618 17.1748 10.0953Z" fill="#FFCC99"/>
<path fill-rule="evenodd" clip-rule="evenodd" d="M11.1378 9.97081C11.2007 9.94286 11.2692 9.92888 11.3404 9.92888C11.4201 9.92888 11.4984 9.94845 11.5696 9.98338C11.5934 9.94006 11.6227 9.90093 11.6563 9.86739C11.7471 9.77656 11.8729 9.71926 12.0126 9.71926C12.0951 9.71926 12.1733 9.73883 12.2432 9.77516C12.3019 9.80451 12.3536 9.84643 12.3955 9.89534C12.4374 9.84643 12.4892 9.80451 12.5478 9.77516C12.6163 9.74022 12.6946 9.71926 12.7784 9.71926C12.9182 9.71926 13.0439 9.77516 13.1348 9.86739C13.1683 9.90093 13.1977 9.94006 13.2214 9.98338C13.2354 9.9764 13.2494 9.96941 13.2633 9.96382C13.3178 9.72206 13.3556 9.4761 13.3765 9.22875C13.4115 8.8179 13.4017 8.41403 13.3486 8.02135C13.2955 7.61888 13.1977 7.22759 13.0593 6.85447C12.9699 6.60851 12.8958 6.35418 12.8399 6.09285C12.7854 5.83711 12.7491 5.57439 12.7323 5.30887C12.7211 5.19987 12.6848 5.09506 12.6247 5.00283C12.5674 4.91339 12.4892 4.83653 12.3913 4.78063C12.2698 4.71076 12.1328 4.68002 12 4.687C11.8645 4.69539 11.7331 4.74151 11.6241 4.82256C11.5095 4.9078 11.4117 5.01681 11.3376 5.13838C11.2356 5.28931 11.1113 5.41927 10.9603 5.51989C10.5327 5.79799 10.1288 6.10962 9.75013 6.4492C9.37142 6.78879 9.01926 7.15772 8.69784 7.5532C8.48543 7.81452 8.21711 8.02833 7.91107 8.17367C7.61621 8.31481 7.28501 8.39307 6.93564 8.39307C6.81965 8.39307 6.70366 8.38469 6.58907 8.36652C6.58208 8.36652 6.5751 8.36233 6.56951 8.35674C6.5178 8.30503 6.45911 8.26171 6.39622 8.22538C6.33334 8.19044 6.26626 8.16389 6.19499 8.14712C6.1866 8.14432 6.17822 8.14013 6.17402 8.13175L6.03009 7.8816C5.98537 7.90256 5.94764 7.9361 5.91969 7.97523C5.88755 8.02135 5.86798 8.07864 5.86798 8.13873C5.86798 8.19882 5.88755 8.25892 5.92248 8.30643C5.95602 8.35394 6.00493 8.39028 6.06083 8.40984C6.16424 8.44478 6.29001 8.58033 6.31098 8.68794C6.32775 8.76899 6.37246 8.84026 6.43395 8.89057C6.49544 8.94088 6.5751 8.97162 6.66034 8.97162C6.70087 8.97162 6.74 8.96463 6.77773 8.95206C6.84061 8.93109 6.92586 8.92131 6.99294 8.92131C7.1215 8.92131 7.24308 8.95206 7.35069 9.00795C7.46109 9.06525 7.55751 9.1477 7.63018 9.24832C7.69586 9.34754 7.80766 9.40623 7.92644 9.40623C8.05641 9.40623 8.17519 9.33636 8.23808 9.22316C8.43512 8.83746 8.7202 8.50347 9.06537 8.24913C9.40496 7.99759 9.80463 7.82291 10.2378 7.74744C10.6711 7.66779 11.0777 7.48332 11.4243 7.21082C11.4341 7.10741 11.4383 7.0026 11.4383 6.89639C11.4383 6.77761 11.4327 6.66022 11.4201 6.54283C11.4187 6.52467 11.4313 6.5079 11.4494 6.5065C11.4676 6.5051 11.4844 6.51768 11.4858 6.53585C11.4984 6.65603 11.5039 6.77621 11.5039 6.89639C11.5039 7.12138 11.483 7.34078 11.4425 7.5532C11.4019 7.7698 11.3404 7.97942 11.2622 8.17926C11.1364 8.5412 11.0721 8.92131 11.0721 9.30422C11.0721 9.52781 11.0931 9.7514 11.1364 9.97081H11.1378ZM8.15702 8.50487C8.15702 8.4867 8.17239 8.47133 8.19056 8.47133C8.20873 8.47133 8.2241 8.4867 8.2241 8.50487C8.2241 8.59151 8.18916 8.66977 8.13187 8.72567C8.06619 8.78436 8.0019 8.8179 7.91107 8.8179C7.8929 8.8179 7.87753 8.80253 7.87753 8.78436C7.87753 8.76619 7.8929 8.75082 7.91107 8.75082C7.97116 8.75082 8.04523 8.72427 8.08435 8.67815C8.12907 8.63344 8.15702 8.57195 8.15702 8.50487Z" fill="#FFCC99"/>
<path fill-rule="evenodd" clip-rule="evenodd" d="M11.3698 13.4951C11.3516 13.4601 11.339 13.421 11.3349 13.3791C11.2692 13.3665 11.2091 13.333 11.1658 13.2841C11.1155 13.2295 11.0861 13.1569 11.0861 13.0786C11.0861 13.0521 11.0889 13.0269 11.0959 13.0018C11.0372 12.985 10.9855 12.9515 10.9478 12.9067C10.9016 12.8536 10.8737 12.7838 10.8737 12.7069C10.8737 12.6622 10.8835 12.6189 10.9002 12.5811C10.8849 12.5713 10.8709 12.5616 10.8569 12.5504C10.8262 12.5979 10.7843 12.6384 10.7367 12.6678C10.6822 12.7013 10.6194 12.7223 10.5523 12.7251C10.5383 12.746 10.5229 12.7656 10.5048 12.7824C10.4391 12.848 10.351 12.89 10.2518 12.8942C10.2448 12.9025 10.2378 12.9109 10.2295 12.9179C10.1512 12.999 10.0436 13.0521 9.92481 13.0605C9.91783 13.073 9.90944 13.087 9.90106 13.0996C9.8214 13.217 9.70821 13.3106 9.57545 13.3637C9.55449 13.3721 9.52933 13.3567 9.52933 13.333V12.127C9.45387 12.1577 9.3798 12.1912 9.30713 12.2248C8.93262 12.3995 8.58884 12.6105 8.27581 12.8522C7.95439 13.0996 7.66512 13.3805 7.41078 13.6865C7.24308 13.8878 7.05862 14.0792 6.86018 14.2567C6.66593 14.4314 6.45771 14.5935 6.23552 14.7416C6.14748 14.8059 6.07481 14.8897 6.0245 14.9876C5.97559 15.0812 5.94904 15.1888 5.94904 15.3006C5.94904 15.4417 5.99096 15.5759 6.06363 15.6863C6.13769 15.7995 6.2439 15.8903 6.36967 15.9434C6.50103 15.9993 6.64357 16.0301 6.78612 16.0343C6.96779 16.0468 7.14247 16.0902 7.30597 16.1698C7.76015 16.4004 8.23249 16.596 8.71601 16.7539C9.19953 16.9119 9.69563 17.032 10.1973 17.1145C10.5299 17.1676 10.8485 17.2934 11.128 17.4862C11.3977 17.6721 11.6311 17.918 11.8058 18.2213C11.8645 18.3219 11.9148 18.4267 11.9567 18.5343C11.9595 18.5413 11.9609 18.5483 11.9581 18.5567C11.94 18.6265 11.9302 18.6992 11.9316 18.7719C11.9316 18.8432 11.9441 18.9144 11.9651 18.9857C11.9679 18.9941 11.9665 19.0039 11.9623 19.0122L11.8184 19.2624C11.8589 19.2903 11.9064 19.3071 11.9553 19.3113C12.0112 19.3169 12.0699 19.3043 12.123 19.2736C12.1775 19.2428 12.2166 19.1967 12.2404 19.1436C12.2642 19.0905 12.2712 19.0304 12.26 18.9717C12.2376 18.8655 12.2935 18.688 12.3746 18.6168C12.4361 18.5623 12.4752 18.4882 12.4892 18.4099C12.5031 18.3317 12.4892 18.2464 12.4458 18.1724C12.4249 18.1374 12.3997 18.1067 12.369 18.0801C12.3187 18.0354 12.2684 17.9669 12.2348 17.9082C12.1705 17.7965 12.137 17.6749 12.13 17.5547C12.1244 17.4303 12.1482 17.3059 12.1985 17.1928C12.2516 17.0865 12.246 16.9594 12.1873 16.8574C12.123 16.7456 12.0028 16.6771 11.8729 16.6785C11.4397 16.7008 11.0092 16.6212 10.6152 16.4493C10.2281 16.2802 9.8759 16.0217 9.59362 15.6849C9.30853 15.3495 8.94519 15.0896 8.53574 14.9261C8.44071 14.9694 8.34848 15.0183 8.25624 15.0714C8.20454 15.1008 8.15423 15.1315 8.10532 15.1636C8.05641 15.1958 8.0075 15.2293 7.95859 15.2643C7.94321 15.2754 7.92225 15.2712 7.91247 15.2573C7.90129 15.2419 7.90548 15.2209 7.91946 15.2112C7.96697 15.1762 8.01728 15.1427 8.06898 15.1091C8.11929 15.077 8.171 15.0449 8.22271 15.0155C8.41695 14.9037 8.61819 14.8115 8.82222 14.7402C9.03044 14.6675 9.24285 14.6144 9.45527 14.5837C9.63973 14.5488 9.8242 14.497 10.0045 14.43C10.1805 14.3643 10.3552 14.2832 10.5243 14.1854C10.6892 14.0904 10.8429 13.9842 10.9855 13.8668C11.1252 13.7522 11.2538 13.6292 11.3712 13.4965L11.3698 13.4951ZM11.2887 17.1103C11.2734 17.1201 11.2524 17.1145 11.2426 17.0977C11.2328 17.081 11.2384 17.0614 11.2552 17.0516C11.3293 17.0083 11.4159 16.9999 11.4928 17.0209C11.5752 17.046 11.6395 17.0907 11.6828 17.1662C11.6926 17.1816 11.687 17.2025 11.6702 17.2123C11.6549 17.2221 11.6339 17.2165 11.6241 17.1997C11.592 17.1438 11.5375 17.1005 11.4746 17.0851C11.4145 17.0684 11.3474 17.0754 11.2873 17.1103H11.2887Z" fill="#FFCC99"/>
<path fill-rule="evenodd" clip-rule="evenodd" d="M12.3969 10.9058C12.362 10.9728 12.3145 11.0301 12.253 11.0735C12.1775 11.1266 12.0825 11.1573 11.9679 11.1573C11.9274 11.1573 11.8868 11.1517 11.8477 11.1391C11.8128 11.1867 11.7667 11.2272 11.7136 11.2551C11.6563 11.2859 11.5906 11.304 11.5221 11.304C11.5109 11.304 11.5011 11.304 11.49 11.304C11.4592 11.4438 11.3824 11.5654 11.2775 11.6534C11.2468 11.68 11.2133 11.7023 11.1783 11.7219C11.1671 11.8043 11.1602 11.8868 11.1602 11.9706C11.1602 12.3591 11.2887 12.7183 11.5053 13.0061C11.7261 13.2996 12.0378 13.519 12.3983 13.6252C12.7589 13.519 13.0705 13.2996 13.2913 13.0061C13.5079 12.7183 13.6365 12.3591 13.6365 11.9706C13.6365 11.8868 13.6309 11.8043 13.6183 11.7219C13.5834 11.7023 13.5498 11.6786 13.5177 11.6534C13.4129 11.5654 13.336 11.4424 13.3053 11.304C13.2941 11.304 13.2843 11.304 13.2731 11.304C13.2032 11.304 13.1376 11.2859 13.0817 11.2551C13.0286 11.2272 12.9838 11.1867 12.9475 11.1391C12.9084 11.1503 12.8679 11.1573 12.8273 11.1573C12.7127 11.1573 12.6177 11.1266 12.5422 11.0735C12.4808 11.0301 12.4332 10.9728 12.3983 10.9058H12.3969ZM12.0154 12.0573C12.0601 12.0824 12.0993 12.116 12.1286 12.1579C12.0993 12.1998 12.0601 12.2334 12.0154 12.2585C12.007 12.2627 11.9986 12.2669 11.9902 12.2711C12.007 12.2389 12.0168 12.1998 12.0168 12.1579C12.0168 12.116 12.007 12.0768 11.9902 12.0447C11.9986 12.0489 12.0084 12.0531 12.0168 12.0573H12.0154ZM11.7499 12.1579C11.7499 12.116 11.7625 12.0796 11.782 12.0531C11.8002 12.0293 11.824 12.0153 11.8491 12.0153C11.8743 12.0153 11.898 12.0307 11.9162 12.0531C11.9357 12.0796 11.9483 12.116 11.9483 12.1579C11.9483 12.1998 11.9357 12.2361 11.9162 12.2627C11.898 12.2865 11.8743 12.3004 11.8491 12.3004C11.824 12.3004 11.8002 12.2851 11.782 12.2627C11.7625 12.2361 11.7499 12.1998 11.7499 12.1579ZM11.7094 12.0447C11.6926 12.0768 11.6828 12.116 11.6828 12.1579C11.6828 12.1998 11.6926 12.2389 11.7094 12.2711C11.701 12.2669 11.6926 12.2627 11.6842 12.2585C11.6395 12.2334 11.6004 12.1998 11.571 12.1579C11.6004 12.1174 11.6395 12.0824 11.6842 12.0573C11.6926 12.0531 11.701 12.0489 11.7108 12.0447H11.7094ZM11.8491 11.9469C11.9204 11.9469 11.9889 11.965 12.0475 11.9986C12.109 12.0321 12.1607 12.081 12.1971 12.1397C12.2041 12.1509 12.2041 12.1649 12.1971 12.1761C12.1593 12.2347 12.109 12.2837 12.0475 12.3172C11.9889 12.3493 11.9204 12.3689 11.8491 12.3689C11.7778 12.3689 11.7094 12.3507 11.6507 12.3172C11.5892 12.2837 11.5375 12.2347 11.5011 12.1761C11.4941 12.1649 11.4941 12.1509 11.5011 12.1397C11.5389 12.081 11.5892 12.0321 11.6507 11.9986C11.7094 11.9664 11.7778 11.9469 11.8491 11.9469ZM12.8036 12.0447C12.7868 12.0768 12.777 12.116 12.777 12.1579C12.777 12.1998 12.7868 12.2389 12.8036 12.2711C12.7952 12.2669 12.7868 12.2627 12.7784 12.2585C12.7337 12.2334 12.6946 12.1998 12.6652 12.1579C12.6946 12.1174 12.7337 12.0824 12.7784 12.0573C12.7868 12.0531 12.7952 12.0489 12.805 12.0447H12.8036ZM12.8441 12.1579C12.8441 12.116 12.8567 12.0796 12.8762 12.0531C12.8944 12.0293 12.9182 12.0153 12.9433 12.0153C12.9685 12.0153 12.9922 12.0307 13.0104 12.0531C13.03 12.0796 13.0425 12.116 13.0425 12.1579C13.0425 12.1998 13.03 12.2361 13.0104 12.2627C12.9922 12.2865 12.9685 12.3004 12.9433 12.3004C12.9182 12.3004 12.8944 12.2851 12.8762 12.2627C12.8567 12.2361 12.8441 12.1998 12.8441 12.1579ZM13.1096 12.0573C13.1543 12.0824 13.1935 12.116 13.2228 12.1579C13.1935 12.1998 13.1543 12.2334 13.1096 12.2585C13.1012 12.2627 13.0928 12.2669 13.0845 12.2711C13.1012 12.2389 13.111 12.1998 13.111 12.1579C13.111 12.116 13.1012 12.0768 13.0845 12.0447C13.0928 12.0489 13.1026 12.0531 13.111 12.0573H13.1096ZM12.9447 11.9469C13.016 11.9469 13.0831 11.965 13.1418 11.9986C13.2032 12.0321 13.255 12.081 13.2913 12.1397C13.2983 12.1509 13.2983 12.1649 13.2913 12.1761C13.2536 12.2347 13.2032 12.2837 13.1418 12.3172C13.0831 12.3493 13.0146 12.3689 12.9433 12.3689C12.872 12.3689 12.8036 12.3507 12.7449 12.3172C12.6946 12.2892 12.6498 12.2515 12.6149 12.2054C12.5856 12.2585 12.5688 12.3186 12.5688 12.3843V12.5981C12.5688 12.6163 12.5534 12.6316 12.5353 12.6316C12.5171 12.6316 12.5017 12.6163 12.5017 12.5981V12.3843C12.5017 12.2641 12.552 12.1551 12.6317 12.0768C12.7155 11.9944 12.8273 11.9497 12.9447 11.9497V11.9469ZM13.0202 11.8393C12.9587 11.7987 12.8888 11.7778 12.8147 11.7778C12.7658 11.7778 12.7169 11.7876 12.6722 11.8057C12.6554 11.8127 12.6359 11.8057 12.6289 11.7876C12.6219 11.7708 12.6289 11.7512 12.6471 11.7442C12.7002 11.7219 12.7575 11.7107 12.8161 11.7107C12.9028 11.7107 12.9866 11.7359 13.0579 11.7834C13.1166 11.8183 13.1823 11.8365 13.2494 11.8365C13.2969 11.8365 13.3444 11.8281 13.3891 11.8099C13.4059 11.8029 13.4254 11.8113 13.4324 11.8281C13.4394 11.8449 13.431 11.8644 13.4143 11.8714C13.3626 11.8924 13.3067 11.9035 13.2508 11.9035C13.1697 11.9035 13.0914 11.8812 13.0216 11.8393H13.0202ZM12.6708 12.6805C12.6806 12.6652 12.7016 12.6596 12.7169 12.6694C12.7323 12.6791 12.7379 12.7001 12.7267 12.7155C12.6932 12.7686 12.6471 12.8161 12.5926 12.8552C12.5381 12.8943 12.4752 12.9237 12.4053 12.9447C12.3983 12.9461 12.3927 12.9461 12.3871 12.9447C12.3173 12.9251 12.2544 12.8943 12.1999 12.8552C12.1454 12.8161 12.0992 12.7686 12.0657 12.7155C12.0559 12.7001 12.0601 12.6791 12.0755 12.6694C12.0909 12.6596 12.1118 12.6638 12.1216 12.6805C12.151 12.7267 12.1901 12.7672 12.2376 12.8007C12.2837 12.8329 12.3368 12.8594 12.3955 12.8776C12.4542 12.8594 12.5073 12.8329 12.5534 12.8007C12.6009 12.7672 12.6415 12.7267 12.6708 12.6805ZM11.9595 13.1571C11.9427 13.1487 11.9371 13.1277 11.9469 13.111C11.9553 13.0942 11.9763 13.0886 11.993 13.0984C12.0224 13.1151 12.0531 13.1221 12.0867 13.1221C12.1258 13.1221 12.1579 13.111 12.1915 13.0914C12.2572 13.0509 12.3228 13.0117 12.3969 13.0746C12.471 13.0117 12.5367 13.0509 12.6023 13.0914C12.6359 13.111 12.668 13.1221 12.7071 13.1221C12.7407 13.1221 12.7714 13.1138 12.8008 13.0984C12.8175 13.0886 12.8371 13.0956 12.8469 13.111C12.8553 13.1277 12.8497 13.1473 12.8343 13.1571C12.7952 13.178 12.7519 13.1906 12.7071 13.1906C12.6554 13.1906 12.6107 13.1766 12.5674 13.1501C12.5185 13.1207 12.4696 13.0914 12.4221 13.1459C12.4095 13.1613 12.3857 13.1613 12.3718 13.1459C12.3242 13.0914 12.2753 13.1207 12.2264 13.1501C12.1831 13.1766 12.1384 13.1906 12.0867 13.1906C12.042 13.1906 11.9986 13.1794 11.9595 13.1571ZM12.545 13.2787C12.5604 13.2689 12.5814 13.2731 12.5912 13.2884C12.6009 13.3038 12.5967 13.3248 12.5814 13.3345C12.5548 13.3527 12.5241 13.3667 12.4933 13.3765C12.4626 13.3863 12.4304 13.3904 12.3969 13.3904C12.3634 13.3904 12.3312 13.3849 12.3005 13.3765C12.2683 13.3667 12.239 13.3527 12.2124 13.3345C12.1971 13.3248 12.1929 13.3038 12.2027 13.2884C12.2124 13.2731 12.2334 13.2689 12.2488 13.2787C12.2697 13.2926 12.2935 13.3038 12.32 13.3122C12.3438 13.3192 12.3704 13.3234 12.3969 13.3234C12.4235 13.3234 12.45 13.3192 12.4738 13.3122C12.4989 13.3052 12.5227 13.294 12.545 13.2787ZM11.7722 11.8393C11.7024 11.8812 11.6255 11.9035 11.5431 11.9035C11.4872 11.9035 11.4313 11.8924 11.3796 11.8714C11.3628 11.8644 11.3544 11.8449 11.3614 11.8281C11.3684 11.8113 11.3879 11.8029 11.4047 11.8099C11.4494 11.8281 11.4955 11.8365 11.5445 11.8365C11.6129 11.8365 11.6786 11.8183 11.7359 11.7834C11.8072 11.7359 11.891 11.7107 11.9777 11.7107C12.0364 11.7107 12.0937 11.7219 12.1468 11.7442C12.1635 11.7512 12.1719 11.7708 12.1649 11.7876C12.1579 11.8043 12.1384 11.8127 12.1216 11.8057C12.0755 11.7862 12.028 11.7778 11.9791 11.7778C11.9064 11.7778 11.8351 11.7987 11.775 11.8393H11.7722Z" fill="#FFCC99"/>
<path fill-rule="evenodd" clip-rule="evenodd" d="M9.40496 10.7099L8.1724 11.6867C8.46028 11.568 8.74257 11.4324 9.01787 11.2843C9.3309 11.1152 9.63415 10.9265 9.92761 10.7183C9.75433 10.7071 9.57965 10.7043 9.40496 10.7099ZM6.48986 11.0146C6.4675 11.0523 6.46051 11.0928 6.47449 11.1278C6.48986 11.1641 6.52899 11.1879 6.56672 11.1948C6.61423 11.2046 6.67013 11.199 6.72603 11.1753C6.78193 11.1515 6.82525 11.1138 6.8504 11.0719C6.87276 11.0341 6.87975 10.9936 6.86578 10.9601C6.85041 10.9251 6.81687 10.9028 6.77354 10.893C6.72603 10.8832 6.67013 10.8888 6.61423 10.9126C6.55834 10.9363 6.51501 10.974 6.48986 11.0146ZM5.74082 11.6141C5.71846 11.6183 5.70029 11.6253 5.67933 11.6336C5.62483 11.6574 5.58151 11.6951 5.55775 11.7357C5.53679 11.772 5.52841 11.8111 5.54378 11.8503C5.55915 11.8852 5.59269 11.9075 5.63601 11.9173C5.68213 11.9271 5.73942 11.9229 5.79392 11.8992C5.81349 11.8908 5.83305 11.8796 5.84982 11.8684C5.84284 11.8251 5.85262 11.7804 5.87358 11.7399C5.88196 11.7231 5.89314 11.7077 5.90712 11.6923C5.88755 11.6923 5.86799 11.6881 5.84982 11.684C5.80371 11.6714 5.76597 11.6476 5.73942 11.6141H5.74082ZM6.0832 11.3178C6.09298 11.3402 6.10556 11.3583 6.12233 11.3737C6.07621 11.4017 6.04128 11.4394 6.01752 11.4785C5.99097 11.5232 5.97979 11.5722 5.98817 11.6183C5.94485 11.6295 5.90293 11.6295 5.86799 11.6183C5.82886 11.6071 5.79812 11.5847 5.78274 11.5526C5.76598 11.5135 5.77576 11.4715 5.79672 11.4366C5.82187 11.3947 5.8638 11.3569 5.9197 11.3332C5.95044 11.3192 5.98258 11.3122 6.01333 11.3094C6.03848 11.308 6.06224 11.3094 6.0832 11.315V11.3178ZM6.01752 11.6867C6.04826 11.7287 6.08879 11.7482 6.1391 11.7608C6.18382 11.7706 6.23552 11.7706 6.28723 11.7566C6.28723 11.779 6.29142 11.7999 6.29981 11.8209V11.8237C6.27465 11.8698 6.22434 11.9103 6.17543 11.9299C6.11953 11.9537 6.06363 11.9593 6.01612 11.9481C5.9728 11.9383 5.93926 11.9145 5.92389 11.8796C5.90852 11.8447 5.9169 11.8041 5.93367 11.772C5.95044 11.7399 5.97979 11.7091 6.01752 11.6854V11.6867ZM6.18801 11.4142C6.1377 11.438 6.09857 11.4743 6.07481 11.5121C6.05245 11.5498 6.04547 11.5917 6.06084 11.6253C6.07621 11.6616 6.11534 11.6867 6.15307 11.6937C6.19779 11.7035 6.2495 11.6993 6.3026 11.6798C6.30679 11.6686 6.31238 11.6574 6.31937 11.6476C6.34592 11.6029 6.38785 11.5624 6.44095 11.533C6.42418 11.5177 6.4116 11.4995 6.40322 11.4785C6.39483 11.459 6.39064 11.4366 6.39064 11.4156C6.33195 11.4338 6.27465 11.4366 6.22294 11.4254C6.21037 11.4226 6.19919 11.4198 6.18801 11.4142ZM6.36129 11.0537C6.37527 11.0523 6.39064 11.0509 6.40322 11.0523C6.39623 11.0872 6.39902 11.1222 6.413 11.1543C6.42837 11.192 6.45353 11.2158 6.48427 11.234C6.45213 11.2605 6.42697 11.2927 6.4116 11.3262C6.40881 11.3304 6.40741 11.3346 6.40601 11.3388C6.40322 11.3402 6.40042 11.3416 6.39763 11.343C6.34173 11.3667 6.28443 11.3723 6.23832 11.3611C6.19639 11.3514 6.16146 11.329 6.14608 11.2941C6.12931 11.2549 6.1391 11.213 6.16006 11.1781C6.18382 11.1375 6.22714 11.0998 6.28304 11.0747C6.30959 11.0635 6.33474 11.0565 6.36269 11.0523L6.36129 11.0537ZM6.78053 11.3178C6.76795 11.2899 6.76516 11.2591 6.76795 11.2298C6.76236 11.2326 6.75678 11.2354 6.75119 11.2368C6.6855 11.2647 6.61703 11.2731 6.55834 11.2619C6.51781 11.2871 6.48706 11.3206 6.4703 11.3556C6.45353 11.3891 6.45073 11.424 6.46331 11.4534C6.47728 11.4869 6.50663 11.5065 6.54017 11.5163C6.5779 11.5274 6.62262 11.5288 6.66874 11.5163C6.70088 11.4659 6.75258 11.4212 6.81826 11.3933C6.82385 11.3905 6.82944 11.3891 6.83503 11.3863C6.81128 11.3695 6.79171 11.3472 6.77913 11.3164L6.78053 11.3178ZM6.50803 11.5763C6.50803 11.5763 6.51641 11.5791 6.522 11.5805C6.55694 11.5917 6.59746 11.5945 6.63799 11.5903C6.62961 11.6267 6.6324 11.663 6.64638 11.6965C6.66175 11.7315 6.6855 11.7566 6.71485 11.7734C6.70647 11.7832 6.69668 11.793 6.6855 11.8013C6.66454 11.8181 6.64079 11.8335 6.61423 11.8447C6.55834 11.8684 6.50104 11.874 6.45492 11.8628C6.4116 11.853 6.37806 11.8293 6.36269 11.7944C6.34592 11.7566 6.3571 11.7133 6.37667 11.6798C6.40182 11.6378 6.44374 11.6001 6.49964 11.5763C6.50244 11.5763 6.50523 11.5736 6.50942 11.5722L6.50803 11.5763ZM6.72324 11.5582C6.74839 11.5177 6.79171 11.4799 6.84761 11.4562C6.90351 11.4324 6.9608 11.4268 7.00692 11.4366C7.05024 11.4464 7.08378 11.4687 7.09915 11.5037C7.11453 11.5386 7.10754 11.5791 7.08518 11.6169C7.06002 11.6574 7.0167 11.6951 6.9608 11.7189C6.90491 11.7426 6.84761 11.7482 6.80149 11.7385C6.76376 11.7315 6.72603 11.7077 6.70926 11.6714C6.69389 11.6364 6.70088 11.5959 6.72324 11.5582ZM6.85739 11.1781C6.88255 11.1375 6.92587 11.0998 6.98177 11.0761C7.03766 11.0523 7.09356 11.0467 7.14108 11.0565C7.1844 11.0663 7.21794 11.0886 7.23331 11.1236C7.24868 11.1585 7.24169 11.199 7.21933 11.2368C7.19418 11.2773 7.15086 11.315 7.09496 11.3402C7.03906 11.3639 6.98316 11.3695 6.93565 11.3597C6.89792 11.3528 6.86019 11.329 6.84342 11.2927C6.82805 11.2577 6.83503 11.2172 6.85739 11.1795V11.1781ZM10.3972 10.7029C9.8801 10.6233 9.35186 10.6191 8.8334 10.6918C8.44631 10.7463 8.05921 10.8441 7.6805 10.988C7.66652 10.9936 7.65674 11.0034 7.65534 11.0202C7.65255 11.1096 7.59385 11.2158 7.48904 11.3276C7.40659 11.4156 7.29619 11.5065 7.16623 11.5931C7.17741 11.554 7.17601 11.5135 7.16064 11.4771C7.14806 11.4492 7.1285 11.4254 7.10474 11.4073C7.11033 11.4045 7.11592 11.4031 7.12151 11.4003C7.18999 11.3709 7.24449 11.3234 7.27523 11.2703C7.30877 11.2144 7.31855 11.1515 7.2948 11.097C7.27104 11.0425 7.21933 11.0062 7.15505 10.9922C7.09496 10.9796 7.02369 10.9852 6.95521 11.016C6.94962 11.0188 6.94404 11.0216 6.93845 11.023C6.94264 10.9922 6.93844 10.9629 6.92727 10.9349C6.91189 10.8986 6.88255 10.8692 6.84761 10.8511C6.97618 10.8217 7.09636 10.8036 7.20396 10.7994C7.3479 10.7938 7.46529 10.8119 7.54634 10.8525C7.55473 10.8567 7.56591 10.8581 7.57429 10.8525C8.02148 10.6778 8.47985 10.566 8.93681 10.5129C9.43571 10.4542 9.94159 10.464 10.4377 10.5422C10.4167 10.5925 10.4028 10.647 10.3986 10.7029H10.3972ZM10.4684 10.4793C10.4894 10.4444 10.5145 10.4137 10.5425 10.3843C10.6082 10.3186 10.6934 10.2711 10.7885 10.2488C10.7312 10.2012 10.6697 10.1593 10.6054 10.1216C10.3524 9.97626 10.0618 9.91616 9.7725 9.9511C9.64114 9.96647 9.47344 10.0126 9.35605 10.0713C9.07097 10.2152 8.74676 10.2781 8.42534 10.2669C8.11371 10.2557 7.79928 10.1705 7.51001 10.0028C7.48346 9.98604 7.45551 9.97067 7.42895 9.9539C7.46389 9.99722 7.50162 10.0391 7.54215 10.0797C7.74059 10.2739 7.99493 10.4081 8.26743 10.4612C8.43233 10.4933 8.58745 10.4933 8.75375 10.4682C8.81244 10.4598 8.86974 10.4514 8.92843 10.4444C9.4399 10.3843 9.96115 10.3955 10.4698 10.4779L10.4684 10.4793Z" fill="#FEA000"/>
<path fill-rule="evenodd" clip-rule="evenodd" d="M10.4405 11.0273H10.3622C10.1526 11.0273 9.96117 11.1126 9.82282 11.2509C9.68448 11.3893 9.59644 11.5835 9.59644 11.7932V13.2814C9.69705 13.2311 9.7837 13.1557 9.84518 13.062C9.91506 12.9586 9.95558 12.8343 9.95558 12.7001V11.8882C9.95558 11.87 9.97096 11.8546 9.98912 11.8546C10.0073 11.8546 10.0227 11.87 10.0227 11.8882V12.3689C10.1121 12.3605 10.1932 12.32 10.2532 12.2599C10.3217 12.1914 10.3636 12.0978 10.3636 11.9958C10.3636 11.9776 10.379 11.9622 10.3972 11.9622C10.4153 11.9622 10.4307 11.9776 10.4307 11.9958C10.4307 12.0629 10.4153 12.1271 10.3888 12.183C10.481 12.1691 10.5649 12.1257 10.6278 12.0629C10.699 11.9916 10.7451 11.8966 10.7521 11.7904C10.6571 11.7694 10.5733 11.7219 10.5076 11.6548C10.4167 11.564 10.3594 11.4382 10.3594 11.2985C10.3594 11.2384 10.3706 11.1797 10.3902 11.1266C10.4028 11.0916 10.4195 11.0581 10.4391 11.0273H10.4405ZM10.59 12.654C10.6068 12.6107 10.6166 12.5632 10.6166 12.5142V12.1607C10.6375 12.1453 10.6585 12.1285 10.6767 12.109C10.6976 12.088 10.7158 12.0657 10.7326 12.0419C10.7438 12.0866 10.7633 12.1271 10.7913 12.1621C10.7647 12.2082 10.7493 12.2613 10.7493 12.3172C10.7493 12.3787 10.7675 12.436 10.7983 12.4835C10.801 12.4891 10.8052 12.4933 10.808 12.4989C10.7815 12.5436 10.7438 12.5827 10.699 12.6107C10.6655 12.6316 10.6278 12.6456 10.5886 12.654H10.59ZM10.3036 12.8203C10.3413 12.7518 10.3636 12.6736 10.3636 12.5911V12.2529C10.4307 12.2487 10.4936 12.2306 10.5495 12.2012V12.5128C10.5495 12.5995 10.5146 12.6777 10.4573 12.735C10.4153 12.777 10.3622 12.8063 10.3036 12.8203ZM9.96257 12.9894C10.0017 12.9013 10.0241 12.8035 10.0241 12.7001V12.4346C10.1289 12.4262 10.2253 12.3815 10.2966 12.3116V12.5897C10.2966 12.6987 10.2532 12.7979 10.182 12.8706C10.1233 12.9307 10.0478 12.9726 9.96257 12.988V12.9894Z" fill="#FEA000"/>
<path fill-rule="evenodd" clip-rule="evenodd" d="M13.9341 11.803C13.9537 11.8239 13.9705 11.8477 13.9817 11.8742C13.9942 11.9036 14.0026 11.9357 14.0026 11.9706C14.0026 12.0196 13.9873 12.0671 13.9593 12.1076L13.9537 12.102C13.8978 12.0461 13.8224 12.0126 13.7371 12.0126C13.7245 12.0126 13.712 12.0126 13.6994 12.0154C13.6994 12 13.6994 11.986 13.6994 11.9706C13.6994 11.8994 13.6952 11.8267 13.6868 11.7568C13.7609 11.7876 13.8419 11.803 13.9272 11.803H13.9314H13.9341ZM12.4431 14.1996C12.4556 14.1856 12.4766 14.1856 12.4906 14.1982C12.5045 14.2108 12.5045 14.2317 12.492 14.2457C12.4724 14.2681 12.4556 14.2932 12.4459 14.3198C12.4361 14.3463 12.4291 14.3757 12.4291 14.4064C12.4291 14.4246 12.4137 14.44 12.3955 14.44C12.3774 14.44 12.362 14.4246 12.362 14.4064C12.362 14.3757 12.3564 14.3463 12.3466 14.3198C12.3355 14.2918 12.3201 14.2667 12.3005 14.2457C12.2879 14.2317 12.2893 14.2108 12.3019 14.1982C12.3159 14.1856 12.3369 14.187 12.3494 14.1996C12.3676 14.2192 12.383 14.2429 12.3969 14.2667C12.4095 14.2415 12.4249 14.2192 12.4445 14.1996H12.4431ZM10.8597 11.803C10.8402 11.8239 10.8234 11.8477 10.8122 11.8742C10.7996 11.9036 10.7913 11.9357 10.7913 11.9706C10.7913 12.0196 10.8066 12.0671 10.8346 12.1076L10.8402 12.102C10.8961 12.0461 10.9715 12.0126 11.0568 12.0126C11.0694 12.0126 11.0819 12.0126 11.0945 12.0154C11.0945 12 11.0945 11.986 11.0945 11.9706C11.0945 11.8994 11.0987 11.8267 11.1071 11.7568C11.033 11.7876 10.952 11.803 10.8667 11.803H10.8625H10.8597ZM10.9338 12.524C10.9017 12.5045 10.8751 12.4793 10.8555 12.4486C10.8318 12.4108 10.8178 12.3661 10.8178 12.3186C10.8178 12.2529 10.8444 12.1928 10.8877 12.1495C10.931 12.1062 10.9911 12.0797 11.0568 12.0797C11.0708 12.0797 11.0833 12.0796 11.0973 12.0824C11.1043 12.1914 11.1211 12.2991 11.1462 12.4025C11.0749 12.4108 11.0121 12.443 10.9645 12.4905C10.9548 12.5003 10.945 12.5115 10.9366 12.524H10.9338ZM11.1197 12.9391C11.1294 12.9195 11.142 12.9014 11.156 12.8846C11.1909 12.8427 11.237 12.8091 11.2902 12.7896C11.237 12.6875 11.1951 12.5799 11.163 12.4681C11.1029 12.4723 11.0498 12.4975 11.0107 12.538C10.9673 12.5813 10.9408 12.6414 10.9408 12.7071C10.9408 12.7672 10.9631 12.8217 10.9995 12.8636C11.0316 12.9 11.0735 12.9265 11.1211 12.9391H11.1197ZM11.3363 13.3108C11.2888 13.2996 11.2468 13.2745 11.2161 13.2395C11.177 13.1976 11.1546 13.1403 11.1546 13.0788C11.1546 13.0215 11.1742 12.9684 11.2091 12.9279C11.2384 12.8916 11.279 12.865 11.3237 12.851C11.3628 12.9195 11.4061 12.9852 11.4523 13.0481C11.462 13.0621 11.4732 13.076 11.4844 13.0886C11.4453 13.1124 11.4117 13.1431 11.3866 13.1822C11.3614 13.22 11.3433 13.2647 11.3377 13.3122L11.3363 13.3108ZM11.5948 13.5861C11.5934 13.5721 11.592 13.5582 11.592 13.5428C11.592 13.4534 11.6311 13.3709 11.6954 13.3136C11.6353 13.2605 11.578 13.2018 11.5249 13.1403C11.49 13.1585 11.4606 13.1864 11.4397 13.2186C11.4145 13.2563 11.3992 13.3024 11.3992 13.3513C11.3992 13.417 11.4257 13.4771 11.469 13.5204C11.5026 13.554 11.5459 13.5777 11.5948 13.5861ZM11.9442 13.4967C11.9092 13.519 11.8799 13.547 11.8561 13.5805C11.8184 13.6336 11.8002 13.6965 11.8002 13.7608C11.7653 13.7454 11.7345 13.7217 11.7108 13.6923C11.6786 13.6518 11.6591 13.6001 11.6591 13.5428C11.6591 13.4701 11.6926 13.4016 11.7471 13.3569C11.8086 13.4072 11.8743 13.4548 11.9428 13.4967H11.9442ZM12.3872 13.6937C12.2544 13.656 12.1286 13.6029 12.0112 13.5372C11.9707 13.5554 11.9358 13.5833 11.9106 13.6197C11.8827 13.6602 11.8673 13.7105 11.8673 13.7594C11.8994 13.7468 11.9358 13.7412 11.9721 13.7412C12.056 13.7412 12.1328 13.7762 12.1887 13.8307C12.2446 13.8866 12.2782 13.962 12.2782 14.0473C12.2782 14.0654 12.2628 14.0808 12.2446 14.0808C12.2265 14.0808 12.2111 14.0654 12.2111 14.0473C12.2111 13.9816 12.1845 13.9215 12.1412 13.8782C12.0979 13.8349 12.0378 13.8083 11.9721 13.8083C11.9064 13.8083 11.8463 13.8349 11.803 13.8782C11.7597 13.9215 11.7331 13.9816 11.7331 14.0473C11.7331 14.1213 11.7667 14.1912 11.8254 14.2359C11.8813 14.1814 11.9567 14.1479 12.0406 14.1479C12.0588 14.1479 12.0741 14.1633 12.0741 14.1814C12.0741 14.1996 12.0588 14.215 12.0406 14.215C11.9749 14.215 11.9148 14.2415 11.8715 14.2848C11.8282 14.3282 11.8016 14.3883 11.8016 14.4539C11.8016 14.5196 11.8282 14.5797 11.8715 14.623C11.9148 14.6664 11.9749 14.6929 12.0406 14.6929C12.0602 14.6929 12.0811 14.6901 12.1007 14.6859C12.0937 14.6608 12.0909 14.6342 12.0909 14.6077C12.0909 14.5643 12.1007 14.521 12.1188 14.4805C12.1258 14.4637 12.1468 14.4567 12.1636 14.4637C12.1803 14.4707 12.1873 14.4917 12.1803 14.5084C12.1664 14.5392 12.1594 14.5741 12.1594 14.6077C12.1594 14.6733 12.1859 14.7334 12.2292 14.7767C12.2726 14.8201 12.3327 14.8466 12.3983 14.8466C12.464 14.8466 12.5241 14.8201 12.5674 14.7767C12.6108 14.7334 12.6373 14.6733 12.6373 14.6077C12.6373 14.5741 12.6303 14.5392 12.6163 14.5084C12.6094 14.4917 12.6163 14.4721 12.6331 14.4637C12.6499 14.4567 12.6694 14.4637 12.6778 14.4805C12.696 14.521 12.7058 14.5629 12.7058 14.6077C12.7058 14.6342 12.703 14.6608 12.696 14.6859C12.7156 14.6915 12.7351 14.6929 12.7561 14.6929C12.8218 14.6929 12.8819 14.6664 12.9252 14.623C12.9685 14.5797 12.9951 14.5196 12.9951 14.4539C12.9951 14.3883 12.9685 14.3282 12.9252 14.2848C12.8819 14.2415 12.8218 14.215 12.7561 14.215C12.7379 14.215 12.7226 14.1996 12.7226 14.1814C12.7226 14.1633 12.7379 14.1479 12.7561 14.1479C12.8399 14.1479 12.9168 14.1814 12.9713 14.2359C13.03 14.1912 13.0635 14.1213 13.0635 14.0473C13.0635 13.9816 13.037 13.9215 12.9937 13.8782C12.9503 13.8349 12.8902 13.8083 12.8246 13.8083C12.7589 13.8083 12.6988 13.8349 12.6555 13.8782C12.6122 13.9215 12.5856 13.9816 12.5856 14.0473C12.5856 14.0654 12.5702 14.0808 12.5521 14.0808C12.5339 14.0808 12.5185 14.0654 12.5185 14.0473C12.5185 13.9634 12.5535 13.8866 12.608 13.8307C12.6625 13.7762 12.7393 13.7412 12.8246 13.7412C12.8609 13.7412 12.8972 13.7482 12.9294 13.7594C12.9294 13.7091 12.914 13.6602 12.8861 13.6197C12.8609 13.5833 12.826 13.5554 12.7854 13.5372C12.668 13.6029 12.5409 13.656 12.4095 13.6937C12.4039 13.6951 12.3969 13.6951 12.3914 13.6937H12.3872ZM12.8497 13.4967C12.9182 13.4548 12.9839 13.4072 13.0454 13.3569C13.1013 13.4016 13.1334 13.4701 13.1334 13.5428C13.1334 13.5987 13.1138 13.6518 13.0817 13.6923C13.0579 13.7217 13.0272 13.7454 12.9923 13.7608C12.9923 13.6951 12.9741 13.6336 12.9364 13.5805C12.9126 13.547 12.8833 13.519 12.8483 13.4967H12.8497ZM13.1977 13.5861C13.2466 13.5777 13.2899 13.554 13.3235 13.5204C13.3668 13.4771 13.3933 13.417 13.3933 13.3513C13.3933 13.3024 13.378 13.2563 13.3528 13.2186C13.3318 13.1864 13.3011 13.1585 13.2676 13.1403C13.2145 13.2018 13.1572 13.2591 13.0971 13.3136C13.1628 13.3709 13.2005 13.4548 13.2005 13.5428C13.2005 13.5568 13.2005 13.5721 13.1977 13.5861ZM13.4576 13.3108C13.4506 13.2633 13.4339 13.22 13.4087 13.1808C13.3835 13.1431 13.35 13.111 13.3109 13.0872C13.3221 13.0732 13.3318 13.0607 13.343 13.0467C13.3905 12.9838 13.4339 12.9181 13.4716 12.8497C13.5177 12.8636 13.5568 12.8902 13.5862 12.9265C13.6197 12.967 13.6407 13.0201 13.6407 13.0774C13.6407 13.1389 13.6169 13.1962 13.5778 13.2381C13.5457 13.2731 13.5037 13.2982 13.4576 13.3094V13.3108ZM13.6742 12.9391C13.7217 12.9265 13.7651 12.9 13.7958 12.8636C13.8321 12.8217 13.8531 12.7672 13.8531 12.7071C13.8531 12.6414 13.8265 12.5813 13.7832 12.538C13.7441 12.4989 13.6896 12.4723 13.6309 12.4681C13.5988 12.5799 13.5554 12.6875 13.5037 12.7896C13.5568 12.8077 13.603 12.8413 13.6379 12.8846C13.6519 12.9014 13.663 12.9195 13.6742 12.9391ZM13.8601 12.524C13.8922 12.5045 13.9188 12.4793 13.9383 12.4486C13.9621 12.4108 13.9761 12.3661 13.9761 12.3186C13.9761 12.2529 13.9495 12.1928 13.9062 12.1495C13.8629 12.1062 13.8028 12.0797 13.7371 12.0797C13.7231 12.0797 13.7106 12.0796 13.6966 12.0824C13.6896 12.1914 13.6728 12.2991 13.6477 12.4025C13.7189 12.4108 13.7818 12.443 13.8293 12.4905C13.8391 12.5003 13.8489 12.5115 13.8573 12.524H13.8601Z" fill="#FEA000"/>
<path fill-rule="evenodd" clip-rule="evenodd" d="M14.3534 11.0273H14.4316C14.6412 11.0273 14.8327 11.1126 14.971 11.2509C15.1094 11.3893 15.1974 11.5835 15.1974 11.7932V13.2814C15.0968 13.2311 15.0102 13.1557 14.9487 13.062C14.8788 12.9586 14.8383 12.8343 14.8383 12.7001V11.8882C14.8383 11.87 14.8229 11.8546 14.8047 11.8546C14.7866 11.8546 14.7712 11.87 14.7712 11.8882V12.3689C14.6818 12.3605 14.6007 12.32 14.5406 12.2599C14.4722 12.1914 14.4302 12.0978 14.4302 11.9958C14.4302 11.9776 14.4149 11.9622 14.3967 11.9622C14.3785 11.9622 14.3631 11.9776 14.3631 11.9958C14.3631 12.0629 14.3785 12.1271 14.4051 12.183C14.3128 12.1691 14.229 12.1257 14.1661 12.0629C14.0948 11.9916 14.0487 11.8966 14.0431 11.7904C14.1368 11.7694 14.222 11.7219 14.2877 11.6548C14.3785 11.564 14.4358 11.4382 14.4358 11.2985C14.4358 11.2384 14.4246 11.1797 14.4051 11.1266C14.3925 11.0916 14.3757 11.0581 14.3562 11.0273H14.3534ZM14.2038 12.654C14.1871 12.6107 14.1773 12.5632 14.1773 12.5142V12.1607C14.1563 12.1453 14.1354 12.1285 14.1172 12.109C14.0962 12.088 14.0781 12.0657 14.0613 12.0419C14.0501 12.0866 14.0306 12.1271 14.0012 12.1621C14.0278 12.2082 14.0431 12.2613 14.0431 12.3172C14.0431 12.3787 14.025 12.436 13.9942 12.4835C13.9914 12.4891 13.9872 12.4933 13.9844 12.4989C14.011 12.5436 14.0487 12.5827 14.0934 12.6107C14.127 12.6316 14.1647 12.6456 14.2038 12.654ZM14.4903 12.8203C14.4526 12.7518 14.4302 12.6736 14.4302 12.5911V12.2529C14.3631 12.2487 14.3003 12.2306 14.2444 12.2012V12.5128C14.2444 12.5995 14.2793 12.6777 14.3366 12.735C14.3785 12.777 14.4316 12.8063 14.4903 12.8203ZM14.8313 12.9894C14.7922 12.9013 14.7698 12.8035 14.7698 12.7001V12.4346C14.665 12.4262 14.5686 12.3815 14.4973 12.3116V12.5897C14.4973 12.6987 14.5406 12.7979 14.6119 12.8706C14.6706 12.9307 14.7461 12.9726 14.8313 12.988V12.9894Z" fill="#FEA000"/>
<path fill-rule="evenodd" clip-rule="evenodd" d="M12.8581 14.7389C12.8245 14.7515 12.7896 14.7585 12.7519 14.7585C12.7239 14.7585 12.6946 14.7543 12.668 14.7473C12.654 14.7753 12.6345 14.8004 12.6135 14.8228C12.5925 14.8438 12.5688 14.8619 12.5422 14.8759C12.552 14.8927 12.5632 14.9094 12.573 14.9276L14.0347 15.5062C13.7874 15.3161 13.5302 15.1386 13.2633 14.9751C13.1306 14.8941 12.995 14.8158 12.8581 14.7403V14.7389ZM15.1876 17.6471C15.2016 17.6638 15.217 17.6764 15.2351 17.6904C15.2841 17.7253 15.3372 17.7449 15.3847 17.7449C15.4266 17.7449 15.4643 17.7337 15.4909 17.6988C15.5132 17.668 15.516 17.6275 15.5035 17.5856C15.4895 17.5395 15.4559 17.4933 15.4084 17.457C15.3917 17.4444 15.3721 17.4333 15.3525 17.4235C15.319 17.4514 15.2757 17.4654 15.2296 17.4668C15.2114 17.4668 15.1918 17.4668 15.1723 17.4626C15.1806 17.4808 15.1876 17.4989 15.1932 17.5171C15.2058 17.5632 15.2044 17.6079 15.1876 17.6471ZM14.76 17.4989C14.7656 17.5199 14.7768 17.5409 14.7907 17.5618C14.8075 17.587 14.8299 17.6107 14.8578 17.6303C14.9067 17.6666 14.9612 17.6848 15.0088 17.6862C15.0493 17.6862 15.0898 17.6736 15.115 17.6401C15.1359 17.6107 15.1401 17.573 15.1289 17.5339C15.1192 17.4989 15.0982 17.4626 15.0674 17.4305C15.0325 17.4612 14.9836 17.4752 14.9319 17.4752C14.8858 17.4752 14.8355 17.4612 14.788 17.436C14.7824 17.4584 14.774 17.478 14.76 17.4975V17.4989ZM15.1122 17.3718C15.1513 17.3913 15.1918 17.4011 15.2296 17.4011C15.2659 17.4011 15.305 17.3871 15.3274 17.3564C15.3497 17.3256 15.3539 17.2851 15.3399 17.2418C15.326 17.1957 15.2924 17.1496 15.2449 17.1132C15.203 17.0811 15.1443 17.0573 15.0898 17.0573V17.0601C15.0744 17.0783 15.0577 17.0923 15.0381 17.1035C15.0758 17.1412 15.1024 17.1859 15.1164 17.2292C15.1289 17.2781 15.1331 17.3242 15.1122 17.3718ZM14.7921 17.3592C14.7907 17.348 14.788 17.3354 14.7838 17.3242C14.7684 17.2753 14.7362 17.225 14.6915 17.1845C14.7097 17.1733 14.7265 17.1593 14.739 17.1426C14.753 17.1244 14.7628 17.1035 14.7684 17.0825C14.8201 17.1146 14.8774 17.13 14.9291 17.1314C14.9417 17.1314 14.9542 17.1314 14.9654 17.1286C15.0088 17.1635 15.0395 17.2069 15.0521 17.2502C15.0646 17.2865 15.0633 17.3326 15.0395 17.3648C15.0171 17.3955 14.978 17.4095 14.9333 17.4095C14.8886 17.4095 14.8383 17.3927 14.7921 17.3606V17.3592ZM14.3911 17.3899C14.4092 17.4137 14.4274 17.4305 14.4498 17.4486C14.4987 17.485 14.5518 17.5031 14.5993 17.5031C14.6398 17.5031 14.6817 17.4905 14.7055 17.457C14.7279 17.4263 14.7307 17.3857 14.7181 17.3438C14.7041 17.2977 14.6706 17.2516 14.6217 17.2152C14.6189 17.2139 14.6161 17.2111 14.6133 17.2097C14.6091 17.2097 14.6035 17.2097 14.5993 17.2097C14.563 17.2125 14.5224 17.2055 14.4833 17.1915C14.4833 17.2264 14.4749 17.2614 14.4512 17.2935C14.4302 17.3215 14.4009 17.3424 14.3673 17.3536C14.3729 17.3648 14.3813 17.3788 14.3897 17.3899H14.3911ZM14.4106 16.8952C14.3925 16.9204 14.3673 16.9385 14.3394 16.9497C14.345 16.9525 14.3491 16.9567 14.3533 16.9595C14.4106 17.0028 14.4512 17.0587 14.4707 17.1146C14.5127 17.137 14.5574 17.1468 14.5951 17.144C14.6328 17.1412 14.665 17.1272 14.6845 17.1021C14.7055 17.0741 14.7083 17.0378 14.7013 17.0028C14.6929 16.9651 14.6706 16.926 14.637 16.891C14.5783 16.8882 14.5127 16.8659 14.4554 16.8226C14.4498 16.8184 14.4456 16.8156 14.4414 16.8114C14.4386 16.8407 14.4288 16.8687 14.4092 16.8952H14.4106ZM14.7712 17.0014C14.7712 17.0014 14.7698 16.9917 14.7684 16.9875C14.76 16.9511 14.7432 16.9148 14.7181 16.8813C14.753 16.8701 14.7838 16.8505 14.8061 16.8212C14.8299 16.7904 14.8383 16.7569 14.8383 16.7233C14.8508 16.7261 14.8648 16.7303 14.8774 16.7345C14.9025 16.7443 14.9277 16.7569 14.9515 16.775C15.0004 16.8114 15.0339 16.8575 15.0479 16.9036C15.0605 16.9455 15.0577 16.9875 15.0353 17.0182C15.0115 17.0517 14.9682 17.0629 14.9291 17.0629C14.8816 17.0629 14.8271 17.0434 14.7782 17.007C14.7754 17.0056 14.7726 17.0028 14.7698 17.0014H14.7712ZM14.6482 16.824C14.6007 16.824 14.5462 16.8044 14.4973 16.7681C14.4484 16.7317 14.4162 16.6856 14.4009 16.6395C14.3883 16.5976 14.3911 16.557 14.412 16.5263C14.4344 16.497 14.4735 16.4816 14.5168 16.483C14.5644 16.483 14.6189 16.5025 14.6678 16.5389C14.7167 16.5752 14.7502 16.6213 14.7642 16.6674C14.7768 16.7038 14.7754 16.7485 14.753 16.7806C14.7307 16.81 14.6915 16.8254 14.6482 16.824ZM14.2527 16.898C14.2052 16.898 14.1507 16.8785 14.1018 16.8421C14.0529 16.8058 14.0193 16.7597 14.0054 16.7136C13.9914 16.6716 13.9956 16.6311 14.0166 16.6004C14.0389 16.571 14.0766 16.5556 14.1214 16.557C14.1689 16.557 14.2234 16.5766 14.2723 16.6129C14.3212 16.6493 14.3547 16.6954 14.3687 16.7415C14.3813 16.7778 14.3799 16.8226 14.3575 16.8547C14.3352 16.884 14.296 16.8994 14.2527 16.898ZM14.2946 17.2977C14.2471 17.2977 14.1926 17.2781 14.1437 17.2418C14.0948 17.2055 14.0613 17.1593 14.0473 17.1132C14.0333 17.0713 14.0375 17.0308 14.0585 17C14.0808 16.9707 14.1186 16.9553 14.1633 16.9567C14.2108 16.9567 14.2653 16.9763 14.3142 17.0126C14.3631 17.0489 14.3967 17.0951 14.4106 17.1412C14.4232 17.1775 14.4218 17.2222 14.3995 17.2544C14.3771 17.2837 14.338 17.2991 14.2946 17.2977ZM12.3969 14.9108C12.4248 14.9108 12.4528 14.9066 12.4779 14.8997C12.5883 15.0827 12.7113 15.2602 12.8427 15.4307C13.083 15.7381 13.3611 16.0246 13.6756 16.2817C13.6868 16.2915 13.7007 16.2957 13.7147 16.2873C13.793 16.2454 13.9145 16.244 14.0627 16.2776C14.1815 16.3041 14.3142 16.3544 14.454 16.4243C14.4148 16.4341 14.3799 16.455 14.3561 16.4872C14.338 16.5123 14.3268 16.5403 14.324 16.571C14.3198 16.5668 14.3142 16.564 14.31 16.5598C14.2499 16.5151 14.1815 16.4914 14.1214 16.4914C14.0557 16.4914 13.997 16.5137 13.9621 16.5612C13.9257 16.6101 13.9201 16.6716 13.9397 16.7345C13.9579 16.7932 13.9998 16.8519 14.0599 16.8966C14.0641 16.9008 14.0697 16.9036 14.0752 16.9064C14.0473 16.9176 14.0221 16.9358 14.004 16.9609C13.9802 16.9931 13.969 17.0322 13.9704 17.0727C13.8796 16.9763 13.8055 16.8799 13.7482 16.789C13.6714 16.6674 13.6281 16.5556 13.6239 16.4662C13.6239 16.4564 13.6183 16.4466 13.6113 16.4411C13.2368 16.1406 12.9112 15.801 12.6359 15.4307C12.5059 15.256 12.3871 15.0743 12.2795 14.8871C12.3158 14.9024 12.355 14.9108 12.3969 14.9108ZM12.1244 14.7459C12.2585 14.9989 12.4109 15.242 12.5828 15.4712C12.6177 15.5187 12.654 15.5648 12.6904 15.611C12.7952 15.7423 12.872 15.8765 12.9265 16.0358C13.0174 16.2985 13.0285 16.5864 12.9601 16.8547C12.9461 16.9092 12.9279 16.9637 12.9084 17.0154C12.9098 16.9833 12.9098 16.9525 12.9112 16.9204C12.9112 16.5864 12.8287 16.272 12.682 15.9953C12.5311 15.7102 12.3144 15.4614 12.0475 15.2868C11.9371 15.2141 11.8142 15.0911 11.7345 14.9863C11.5598 14.7529 11.4662 14.4706 11.4662 14.18C11.4662 13.9969 11.5039 13.818 11.5752 13.6489C11.5892 13.6517 11.6017 13.6545 11.6157 13.6545C11.6269 13.6825 11.6423 13.709 11.6618 13.7328C11.6912 13.7691 11.7275 13.7985 11.7694 13.818C11.7652 13.8222 11.7611 13.825 11.7583 13.8292C11.7024 13.8851 11.6688 13.9606 11.6688 14.0458C11.6688 14.1394 11.7121 14.2289 11.7862 14.2862C11.7555 14.3337 11.7373 14.391 11.7373 14.4511C11.7373 14.5349 11.7722 14.6118 11.8267 14.6677C11.8826 14.7236 11.9581 14.7571 12.0433 14.7571C12.0713 14.7571 12.1006 14.7529 12.1272 14.7459H12.1244Z" fill="#FEA000"/>
<path fill-rule="evenodd" clip-rule="evenodd" d="M14.426 10.9605H14.4316C14.6077 10.9605 14.7698 11.015 14.9054 11.11C14.992 11.0066 15.0619 10.892 15.1136 10.7704C15.1653 10.6488 15.21 10.4811 15.217 10.3484C15.2338 10.0298 15.3428 9.71813 15.5133 9.44423C15.6796 9.17871 15.9101 8.94953 16.1994 8.78323C16.2274 8.76786 16.2539 8.75249 16.2819 8.73851C16.226 8.7469 16.1715 8.75808 16.117 8.77345C15.85 8.84752 15.6055 9.00124 15.4238 9.21086C15.3134 9.33802 15.2352 9.47218 15.1737 9.6287C15.1527 9.6832 15.1304 9.7377 15.1066 9.7908C14.9263 10.21 14.6957 10.6027 14.4246 10.9591L14.426 10.9605ZM15.2477 7.32708C15.2268 7.28795 15.1946 7.26279 15.1569 7.2586C15.1178 7.25441 15.0786 7.27537 15.0535 7.30472C15.0214 7.33965 14.9976 7.39276 14.9906 7.45285C14.9836 7.51294 14.9948 7.56884 15.0172 7.61216C15.0381 7.65129 15.0703 7.67644 15.1066 7.68064C15.1429 7.68483 15.1807 7.66666 15.21 7.63452C15.2422 7.59958 15.2659 7.54648 15.2729 7.48639C15.2799 7.4263 15.2687 7.3704 15.2463 7.32847L15.2477 7.32708ZM15.34 7.13143C15.34 7.13143 15.34 7.12445 15.34 7.12165C15.347 7.06156 15.3358 7.00566 15.312 6.96374C15.2925 6.9302 15.2603 6.89806 15.2198 6.89386C15.1821 6.88967 15.1443 6.90784 15.115 6.93998C15.0828 6.97492 15.0577 7.02662 15.0507 7.08811C15.0479 7.11746 15.0479 7.14541 15.0521 7.17196C15.0549 7.18593 15.0577 7.19851 15.0619 7.21109C15.0912 7.19432 15.1248 7.18593 15.1625 7.19013C15.1988 7.19432 15.2324 7.21109 15.2589 7.23624C15.2757 7.19851 15.2994 7.16497 15.326 7.13982C15.3288 7.13702 15.333 7.13423 15.3372 7.13004L15.34 7.13143ZM15.5091 7.63312C15.5328 7.67505 15.5426 7.73094 15.5356 7.79103C15.5286 7.85113 15.5049 7.90283 15.4727 7.93917C15.4434 7.97131 15.4057 7.98947 15.3693 7.98528C15.3316 7.98109 15.3008 7.95454 15.2785 7.91681C15.2547 7.87488 15.2449 7.81898 15.2519 7.7575C15.2589 7.6974 15.2827 7.6457 15.3148 7.60936C15.34 7.58002 15.3791 7.55906 15.4182 7.56325C15.4546 7.56744 15.4867 7.59399 15.5091 7.63172V7.63312ZM15.4266 7.49757C15.3931 7.49338 15.3651 7.49897 15.3386 7.51154C15.3386 7.50595 15.34 7.49897 15.3414 7.49338C15.3498 7.4221 15.3372 7.35503 15.3092 7.30192C15.3218 7.25581 15.3456 7.21668 15.3735 7.19013C15.3987 7.16637 15.4322 7.151 15.4671 7.15519C15.4993 7.15938 15.5272 7.18034 15.5482 7.21109C15.5692 7.24323 15.5831 7.28655 15.5859 7.33406C15.5468 7.37878 15.5188 7.44167 15.5105 7.51294C15.5105 7.51853 15.5105 7.52552 15.5091 7.53111C15.4853 7.51294 15.4574 7.50036 15.4266 7.49757ZM15.8347 7.39695C15.8137 7.35782 15.7816 7.33267 15.7438 7.32847C15.7047 7.32428 15.6656 7.34524 15.6404 7.37459C15.6083 7.40953 15.5845 7.46263 15.5775 7.52272C15.5706 7.58281 15.5817 7.63871 15.6041 7.68203C15.6251 7.72116 15.6572 7.74632 15.6935 7.75051C15.7313 7.7547 15.7676 7.73653 15.7969 7.70439C15.8291 7.66946 15.8528 7.61635 15.8598 7.55626C15.8668 7.49617 15.8556 7.44027 15.8333 7.39835L15.8347 7.39695ZM15.8654 7.26559C15.8766 7.23904 15.8822 7.21388 15.8864 7.18454C15.8934 7.12445 15.8822 7.06855 15.8584 7.02662C15.8389 6.99169 15.8067 6.96234 15.7648 6.95675C15.7271 6.95256 15.6907 6.97072 15.6614 7.00287C15.6292 7.0378 15.6055 7.08951 15.5985 7.1496C15.5985 7.15239 15.5985 7.15659 15.5985 7.15938C15.6013 7.16357 15.6041 7.16637 15.6069 7.17056C15.6279 7.20131 15.6418 7.23904 15.6502 7.27956C15.681 7.2614 15.7145 7.25301 15.755 7.2572C15.79 7.2614 15.8221 7.27677 15.8487 7.30053C15.8556 7.28935 15.8626 7.27537 15.8682 7.26279L15.8654 7.26559ZM15.639 6.93439C15.6292 6.94138 15.6209 6.94976 15.6125 6.95955C15.5775 6.99728 15.551 7.04898 15.537 7.10907C15.5188 7.09789 15.4979 7.09091 15.4755 7.08811C15.4532 7.08532 15.4308 7.08811 15.4085 7.0937C15.4085 7.03221 15.3959 6.97631 15.3707 6.9316C15.3651 6.92042 15.3581 6.91063 15.3498 6.90085C15.3581 6.84495 15.3819 6.79744 15.4112 6.7639C15.4364 6.73455 15.4769 6.71359 15.5175 6.71778C15.5552 6.72198 15.5873 6.74853 15.6083 6.78626C15.6306 6.82539 15.6418 6.8771 15.6376 6.93299L15.639 6.93439ZM15.7746 6.89247C15.79 6.87709 15.8025 6.85753 15.8137 6.83517C15.8263 6.80862 15.8361 6.77648 15.8403 6.74294C15.8473 6.68285 15.8361 6.62695 15.8123 6.58503C15.7928 6.55009 15.7606 6.52074 15.7187 6.51515C15.6838 6.51096 15.6488 6.52773 15.6195 6.55568C15.5929 6.58223 15.572 6.61856 15.5608 6.66049C15.6055 6.67586 15.6418 6.7094 15.667 6.75552C15.6893 6.79604 15.7033 6.84495 15.7047 6.89945C15.7257 6.89247 15.748 6.89107 15.7718 6.89386H15.7732L15.7746 6.89247ZM15.4895 6.6521C15.4881 6.60738 15.4755 6.56826 15.456 6.53611C15.4364 6.50397 15.4057 6.47742 15.3679 6.47323C15.3302 6.46904 15.2925 6.4872 15.2631 6.51935C15.231 6.55428 15.2072 6.60599 15.2002 6.66608C15.1932 6.71918 15.2016 6.78207 15.2296 6.82818H15.2324C15.2547 6.83098 15.2757 6.83936 15.2953 6.85054C15.3092 6.79884 15.3344 6.75412 15.3651 6.71918C15.4015 6.68285 15.4392 6.65769 15.4909 6.6521H15.4895ZM15.6893 6.44807C15.6474 6.45366 15.6069 6.47463 15.5734 6.50817C15.5608 6.52074 15.5482 6.53611 15.537 6.55288C15.53 6.53472 15.5216 6.51655 15.5119 6.50118C15.4881 6.46205 15.4546 6.4313 15.4126 6.41593C15.4098 6.39497 15.4112 6.37261 15.4126 6.35165C15.4196 6.29156 15.4434 6.23985 15.4755 6.20492C15.5049 6.17277 15.5426 6.15461 15.5803 6.1588C15.6223 6.16439 15.653 6.19234 15.6726 6.22867C15.6963 6.2706 15.7075 6.32649 15.7005 6.38519C15.6977 6.40755 15.6935 6.42711 15.6865 6.44807H15.6893ZM14.3841 10.6237C14.6063 10.3037 14.7936 9.9557 14.9431 9.58677C15.0898 9.22483 15.1988 8.84053 15.2631 8.43946C15.2659 8.42408 15.2631 8.41151 15.2477 8.40172C15.1723 8.35561 15.1094 8.2494 15.0647 8.10407C15.0297 7.98808 15.006 7.84833 14.9962 7.69042C15.0241 7.71976 15.0605 7.73933 15.0996 7.74352C15.1304 7.74771 15.1597 7.74212 15.1877 7.72955C15.1877 7.73514 15.1863 7.74212 15.1849 7.74771C15.1765 7.82178 15.1904 7.89305 15.2198 7.94615C15.2519 8.00345 15.3008 8.04258 15.3609 8.04956C15.421 8.05655 15.4783 8.03 15.5216 7.98249C15.5636 7.93777 15.5929 7.87209 15.6013 7.79802C15.6013 7.79243 15.6013 7.78544 15.6027 7.77985C15.6265 7.79802 15.6544 7.8106 15.6851 7.81339C15.7257 7.81759 15.7634 7.8078 15.7983 7.78544C15.7606 7.91122 15.7145 8.02441 15.6642 8.11944C15.5971 8.24661 15.523 8.34024 15.4462 8.38915C15.4378 8.39474 15.4322 8.40312 15.4308 8.4129C15.3581 8.88804 15.2268 9.33942 15.0437 9.76285C14.862 10.1863 14.6287 10.5804 14.3548 10.9381C14.3813 10.8766 14.3953 10.8096 14.3953 10.7397C14.3953 10.6992 14.3911 10.66 14.3813 10.6209L14.3841 10.6237ZM14.6412 10.0745C14.5588 10.2282 14.4694 10.3777 14.3715 10.5231C14.338 10.1653 14.3268 9.80897 14.3366 9.45262C14.345 9.13958 14.3701 8.82795 14.4107 8.51911L14.6412 10.0759V10.0745Z" fill="#FEA000"/>
<path fill-rule="evenodd" clip-rule="evenodd" d="M11.5766 10.2236C11.5766 10.2418 11.5612 10.2571 11.5431 10.2571C11.5249 10.2571 11.5095 10.2418 11.5095 10.2236C11.5095 10.1607 11.5207 10.0992 11.5431 10.0433C11.4816 10.0112 11.4117 9.99442 11.3418 9.99442C11.2217 9.99442 11.1113 10.0433 11.033 10.123C10.9534 10.2026 10.9044 10.3116 10.9044 10.4318C10.9044 10.5143 10.9268 10.5953 10.9715 10.6652C10.9813 10.6806 10.9771 10.7015 10.9603 10.7113C10.945 10.7211 10.924 10.7169 10.9142 10.7001C10.8639 10.6191 10.8374 10.5269 10.8374 10.4318C10.8374 10.3885 10.843 10.3466 10.8527 10.3061C10.7507 10.3172 10.6599 10.362 10.5914 10.4304C10.5118 10.5101 10.4614 10.6205 10.4614 10.7407C10.4614 10.8608 10.5104 10.9712 10.59 11.0495C10.6697 11.1292 10.7787 11.1781 10.8988 11.1781H10.9128C10.931 11.1781 10.9464 11.192 10.9464 11.2102C10.9464 11.2284 10.9324 11.2438 10.9142 11.2438H10.8988C10.7591 11.2438 10.6333 11.1879 10.5425 11.097C10.5285 11.083 10.5145 11.0677 10.502 11.0523C10.481 11.0816 10.4642 11.1152 10.4517 11.1487C10.4349 11.1948 10.4251 11.2451 10.4251 11.2983C10.4251 11.4184 10.474 11.5288 10.5537 11.6071C10.6333 11.6867 10.7423 11.7357 10.8625 11.7357C11.0037 11.7357 11.1322 11.6853 11.2314 11.6015C11.3251 11.5232 11.3922 11.4142 11.4215 11.2913C11.3712 11.2787 11.3237 11.2563 11.2818 11.2256C11.2664 11.2144 11.2636 11.1934 11.2748 11.1795C11.2859 11.1641 11.3069 11.1613 11.3209 11.1725C11.3782 11.2144 11.4481 11.2368 11.5193 11.2368C11.578 11.2368 11.6325 11.2228 11.68 11.1962C11.7178 11.1753 11.7527 11.1473 11.7793 11.1152C11.7247 11.09 11.6744 11.0565 11.6311 11.0146C11.5389 10.9265 11.4774 10.8036 11.4774 10.6694C11.4774 10.6512 11.4928 10.6359 11.5109 10.6359C11.5291 10.6359 11.5445 10.6512 11.5445 10.6694C11.5445 10.7854 11.5976 10.8902 11.6772 10.9671C11.7569 11.0439 11.8617 11.0914 11.9651 11.0914C12.0657 11.0914 12.1468 11.0649 12.2111 11.0188C12.2809 10.9685 12.3312 10.8958 12.362 10.8105C12.3662 10.7966 12.3802 10.7882 12.3941 10.7882C12.4081 10.7882 12.4207 10.7966 12.4263 10.8105C12.457 10.8958 12.5073 10.9698 12.5772 11.0188C12.6415 11.0635 12.7239 11.09 12.8232 11.0914C12.9266 11.0914 13.0314 11.0439 13.111 10.9671C13.1907 10.8902 13.2438 10.7854 13.2438 10.6694C13.2438 10.6512 13.2592 10.6359 13.2773 10.6359C13.2955 10.6359 13.3109 10.6512 13.3109 10.6694C13.3109 10.8049 13.2494 10.9265 13.1571 11.0146C13.1138 11.0565 13.0635 11.09 13.009 11.1152C13.037 11.1487 13.0705 11.1767 13.1082 11.1962C13.1557 11.2214 13.2102 11.2368 13.2689 11.2368C13.3402 11.2368 13.4101 11.2144 13.4674 11.1725C13.4828 11.1613 13.5037 11.1655 13.5135 11.1795C13.5247 11.1948 13.5205 11.2158 13.5065 11.2256C13.4646 11.2563 13.4171 11.2787 13.3668 11.2913C13.3947 11.4142 13.4632 11.5218 13.5568 11.6015C13.656 11.6853 13.7846 11.7357 13.9258 11.7357C14.0459 11.7357 14.1563 11.6867 14.2346 11.6071C14.3142 11.5274 14.3632 11.4184 14.3632 11.2983C14.3632 11.2451 14.3534 11.1948 14.3366 11.1487C14.324 11.1138 14.3073 11.0816 14.2863 11.0523C14.2737 11.0677 14.2611 11.083 14.2458 11.097C14.1549 11.1879 14.0292 11.2451 13.8894 11.2451H13.874C13.8559 11.2451 13.8405 11.2298 13.8405 11.2116C13.8405 11.1934 13.8559 11.1781 13.874 11.1795H13.888C14.0082 11.1795 14.1186 11.1306 14.1969 11.0509C14.2765 10.9712 14.3254 10.8622 14.3254 10.7421C14.3254 10.6219 14.2751 10.5101 14.1955 10.4318C14.127 10.3634 14.0361 10.3186 13.9341 10.3075C13.9439 10.348 13.9495 10.3899 13.9495 10.4332C13.9495 10.5283 13.923 10.6205 13.8726 10.7015C13.8629 10.7169 13.8419 10.7225 13.8265 10.7127C13.8112 10.7029 13.8056 10.682 13.8154 10.6666C13.8587 10.5967 13.8824 10.5171 13.8824 10.4332C13.8824 10.313 13.8335 10.2026 13.7539 10.1244C13.6742 10.0447 13.5652 9.99582 13.445 9.99582C13.3752 9.99582 13.3053 10.0126 13.2438 10.0447C13.2648 10.1006 13.2773 10.1607 13.2773 10.225C13.2773 10.2432 13.262 10.2585 13.2438 10.2585C13.2256 10.2585 13.2103 10.2432 13.2103 10.225C13.2103 10.1048 13.1613 9.99442 13.0817 9.91616C13.002 9.83651 12.893 9.7876 12.7728 9.7876C12.7002 9.7876 12.6331 9.80437 12.573 9.83511C12.5115 9.86725 12.457 9.91337 12.4165 9.96927C12.4095 9.97905 12.3997 9.98324 12.3885 9.98324C12.3774 9.98324 12.3676 9.97905 12.362 9.96927C12.3215 9.91337 12.2684 9.86585 12.2055 9.83511C12.1454 9.80437 12.0783 9.7876 12.0056 9.7876C11.8855 9.7876 11.7751 9.83651 11.6968 9.91616C11.6185 9.99582 11.5682 10.1048 11.5682 10.225L11.5766 10.2236ZM13.888 11.561C13.8447 11.54 13.8042 11.5121 13.7678 11.4785C13.7329 11.4464 13.7022 11.4087 13.677 11.3639C13.6672 11.3486 13.6728 11.3276 13.6896 11.3178C13.705 11.308 13.7259 11.3136 13.7357 11.3304C13.7567 11.3681 13.7832 11.4003 13.814 11.4282C13.8447 11.4576 13.881 11.4813 13.9174 11.4995C13.9341 11.5079 13.9411 11.5274 13.9327 11.5442C13.9244 11.561 13.9048 11.568 13.888 11.5596V11.561ZM10.9058 11.561C10.8891 11.5694 10.8695 11.561 10.8611 11.5456C10.8527 11.5288 10.8611 11.5093 10.8765 11.5009C10.9142 11.4827 10.9492 11.459 10.9799 11.4296C11.0106 11.4017 11.0372 11.3681 11.0582 11.3318C11.0679 11.3164 11.0875 11.3108 11.1043 11.3192C11.1196 11.3276 11.1252 11.3486 11.1169 11.3653C11.0917 11.4087 11.061 11.4478 11.026 11.4799C10.9897 11.5135 10.9492 11.5414 10.9058 11.5624V11.561ZM10.836 10.9712C10.8192 10.9643 10.8094 10.9461 10.8164 10.9279C10.8234 10.9112 10.8416 10.9014 10.8597 10.9084C10.917 10.9293 10.9799 10.9377 11.0414 10.9335C11.1015 10.9279 11.1602 10.9098 11.2161 10.879C11.2314 10.8706 11.2524 10.8748 11.2622 10.8916C11.272 10.907 11.2664 10.9279 11.2496 10.9377C11.1853 10.974 11.1169 10.995 11.047 11.002C10.9757 11.0076 10.903 10.9978 10.836 10.974V10.9712ZM11.1881 10.6051C11.1769 10.6191 11.1546 10.6205 11.1406 10.6093C11.1266 10.5967 11.1252 10.5758 11.1364 10.5618C11.1825 10.5073 11.2398 10.4626 11.3041 10.4318C11.367 10.4025 11.4369 10.3857 11.5109 10.3857C11.585 10.3857 11.6605 10.4039 11.7261 10.436C11.7932 10.4696 11.8519 10.5171 11.898 10.5758C11.9092 10.5897 11.9064 10.6107 11.8924 10.6219C11.8785 10.6331 11.8561 10.6303 11.8449 10.6163C11.8058 10.566 11.7555 10.5241 11.6968 10.4947C11.6409 10.4668 11.578 10.4514 11.5109 10.4514C11.4439 10.4514 11.3866 10.4654 11.3321 10.4905C11.2762 10.5171 11.2259 10.5548 11.1867 10.6023L11.1881 10.6051ZM11.9358 10.225C11.9302 10.2082 11.9386 10.1887 11.9567 10.1817C11.9735 10.1761 11.9931 10.1845 12 10.2026C12.0294 10.2851 12.0839 10.3564 12.1538 10.4067C12.2222 10.4556 12.3061 10.4835 12.3969 10.4835C12.4878 10.4835 12.5716 10.4556 12.6401 10.4067C12.71 10.3564 12.7659 10.2865 12.7938 10.2026C12.7994 10.1859 12.819 10.1761 12.8371 10.1817C12.8539 10.1873 12.8637 10.2068 12.8581 10.225C12.8246 10.3214 12.7603 10.4039 12.6792 10.4612C12.5996 10.5171 12.5031 10.5506 12.3983 10.5506C12.2935 10.5506 12.1971 10.5171 12.1174 10.4612C12.0364 10.4039 11.9721 10.3214 11.9386 10.225H11.9358ZM13.6043 10.6051C13.5652 10.5576 13.5149 10.5185 13.459 10.4933C13.4045 10.4682 13.3444 10.4542 13.2801 10.4542C13.2158 10.4542 13.1502 10.4696 13.0943 10.4975C13.0356 10.5269 12.9853 10.5674 12.9461 10.6191C12.935 10.6331 12.914 10.6359 12.8986 10.6247C12.8846 10.6135 12.8818 10.5925 12.893 10.5786C12.9391 10.5199 12.9978 10.471 13.0649 10.4388C13.1306 10.4067 13.2033 10.3885 13.2801 10.3885C13.357 10.3885 13.4241 10.4053 13.4869 10.4346C13.5526 10.4654 13.6099 10.5101 13.6546 10.5646C13.6658 10.5786 13.6644 10.5995 13.6505 10.6121C13.6365 10.6247 13.6155 10.6219 13.6029 10.6079L13.6043 10.6051ZM13.9579 10.9712C13.8908 10.9964 13.8195 11.0062 13.7469 10.9992C13.6784 10.9936 13.6085 10.9726 13.5442 10.9349C13.5289 10.9251 13.5233 10.9056 13.5317 10.8888C13.5414 10.8734 13.561 10.8678 13.5778 10.8762C13.6323 10.9084 13.6924 10.9265 13.7525 10.9307C13.814 10.9363 13.8768 10.9279 13.9341 10.9056C13.9509 10.8986 13.9705 10.9084 13.9775 10.9251C13.9844 10.9419 13.9747 10.9615 13.9579 10.9685V10.9712Z" fill="#FEA000"/>
</g>
</g>
<rect x="0.25" y="0.25" width="23.5" height="23.5" rx="11.75" stroke="#E5E3E1" stroke-width="0.5"/>
<defs>
<clipPath id="clip0_16335_3442">
<rect width="24" height="24" rx="12" fill="white"/>
</clipPath>
</defs>
</svg>
