<svg width="24" height="24" viewBox="0 0 24 24" fill="none" xmlns="http://www.w3.org/2000/svg">
<path fill-rule="evenodd" clip-rule="evenodd" d="M9.15227 8.07544C10.3742 8.11927 11.6022 8.34097 12.7262 8.837C13.2926 9.08707 13.8293 9.40693 14.312 9.79643C14.7392 10.1403 15.1234 10.538 15.4526 10.9776C16.0681 11.797 16.4858 12.7583 16.7059 13.7588C16.9713 14.9666 16.9623 16.2315 16.7039 17.4397C16.6691 17.4438 16.6341 17.4468 16.5995 17.4501C16.1353 18.46 15.5091 19.404 14.7024 20.1708C14.2702 20.5808 13.7871 20.9381 13.2634 21.2214C12.779 21.4841 12.2608 21.684 11.7253 21.812C10.4143 22.1303 9.0135 22.0103 7.75639 21.5301C6.7812 21.16 5.88605 20.5794 5.14731 19.8407C4.34943 19.0459 3.73619 18.0635 3.3813 16.992C3.04955 16.0015 2.94057 14.9404 3.03572 13.9011C3.1423 12.7022 3.51032 11.5371 4.03745 10.46C4.06498 10.4037 4.09391 10.3481 4.12003 10.291C4.18737 10.3282 4.25245 10.3695 4.32176 10.4032C3.788 11.5074 3.41729 12.701 3.31692 13.9278C3.23166 14.9481 3.3412 15.9882 3.67055 16.9587C4.03293 18.0396 4.66635 19.0262 5.4936 19.8066C6.32452 20.594 7.34827 21.1759 8.4508 21.4773C9.09679 21.6546 9.76974 21.735 10.439 21.7081C11.1532 21.6798 11.8628 21.5282 12.5252 21.2577C13.5292 20.8515 14.4131 20.1735 15.1101 19.3455C15.6001 18.7689 16.0013 18.1203 16.3331 17.4404C16.115 17.4184 15.8987 17.3771 15.6884 17.3157C15.5122 17.7678 15.2866 18.2025 14.9935 18.5896C14.6934 18.9895 14.3264 19.3397 13.9084 19.6132C13.4972 19.8837 13.0364 20.0773 12.557 20.1855C11.9123 20.3312 11.2332 20.3194 10.5936 20.1525C10.0634 20.0146 9.55996 19.7705 9.12587 19.4343C8.74782 19.1442 8.42341 18.7845 8.16959 18.3803C7.91775 17.9801 7.73564 17.5371 7.62172 17.0781C7.48549 16.532 7.44469 15.9647 7.47504 15.4034C7.55325 15.3895 7.63343 15.3893 7.71178 15.4035C7.68482 16.0211 7.74002 16.6466 7.91761 17.2401C8.05524 17.7021 8.26883 18.143 8.55936 18.5275C8.84438 18.9066 9.20337 19.2291 9.61036 19.4709C10.1221 19.7776 10.7065 19.9569 11.2997 20.0041C11.9653 20.0577 12.6439 19.9472 13.257 19.6811C13.7693 19.4608 14.2339 19.1292 14.6089 18.7149C14.9917 18.2933 15.2752 17.7855 15.454 17.2449C15.096 17.1193 14.753 16.9513 14.4344 16.7447C14.5791 16.5535 14.7181 16.357 14.834 16.1464C15.1639 15.559 15.3638 14.8993 15.422 14.2276C15.5177 13.1647 15.2462 12.0885 14.7348 11.1594C14.0425 11.2197 13.3378 11.159 12.6709 10.96C12.0077 10.7644 11.3867 10.4339 10.8411 10.0091C10.1632 9.47955 9.59045 8.81658 9.15227 8.07544ZM15.1627 2.00012C15.2232 2.32253 15.2527 2.65062 15.2791 2.97757C15.3076 3.38395 15.3177 3.79204 15.2954 4.19899C15.2702 4.63643 15.2125 5.07558 15.0775 5.49346L15.0569 5.51558C14.2321 5.54211 13.4084 5.68551 12.6295 5.96253C11.7629 6.27175 10.946 6.76211 10.3302 7.45558C10.3292 7.43459 10.3283 7.4136 10.3302 7.3926C10.38 6.93941 10.4697 6.49005 10.6053 6.05473C10.7695 5.52651 11.0006 5.01856 11.2987 4.55303C11.8312 3.71643 12.5862 3.02452 13.4664 2.57218C13.9986 2.29615 14.5737 2.10679 15.1627 2.00012Z" fill="#752650"/>
<path fill-rule="evenodd" clip-rule="evenodd" d="M15.0569 5.51558C15.0636 5.50821 15.0705 5.50097 15.0775 5.49346C15.078 5.49799 15.0791 5.50707 15.0795 5.51161C15.752 5.49459 16.4271 5.5431 17.0879 5.67246C17.7146 5.79388 18.3296 5.98381 18.9088 6.25445C19.41 6.48991 19.8857 6.78693 20.297 7.16041C20.577 7.41402 20.8248 7.70452 21.024 8.02665C20.6223 7.8197 20.2251 7.60381 19.825 7.39374C19.4104 7.06807 18.9669 6.77757 18.4924 6.54721C17.8806 6.24679 17.2232 6.04041 16.5502 5.93587C15.0746 5.70636 13.536 5.96083 12.1956 6.61544C11.5966 6.91019 11.0325 7.28565 10.5565 7.757C11.4924 7.89771 12.4133 8.16877 13.2577 8.60154C14.2198 9.09048 15.0746 9.79388 15.7311 10.654C16.3551 11.4671 16.8026 12.4115 17.0652 13.4024C17.3883 14.6203 17.4401 15.9082 17.2285 17.1499C17.0468 18.2075 16.6713 19.2386 16.0774 20.134C15.7228 20.6676 15.2897 21.1515 14.7828 21.5431C14.7461 21.5679 14.7 21.5623 14.6584 21.5685C14.51 21.5832 14.3598 21.595 14.212 21.5696C14.6808 21.243 15.0863 20.8298 15.4257 20.3703C16.0626 19.5051 16.4776 18.4881 16.7039 17.4397C16.9623 16.2315 16.9713 14.9666 16.7059 13.7588C16.4858 12.7583 16.0681 11.797 15.4526 10.9776C15.1234 10.538 14.7392 10.1403 14.312 9.79643C13.8293 9.40693 13.2926 9.08707 12.7262 8.837C11.6022 8.34097 10.3742 8.11927 9.15227 8.07544C9.01872 7.98112 8.88701 7.88353 8.76716 7.7719C9.16045 7.65473 9.57747 7.66154 9.98163 7.70523C10.025 7.70906 10.0686 7.71913 10.1125 7.71374C10.1866 7.62934 10.2534 7.53814 10.3302 7.45558C10.946 6.76211 11.7629 6.27175 12.6295 5.96253C13.4084 5.68551 14.2321 5.54211 15.0569 5.51558Z" fill="#EFCC78"/>
<path fill-rule="evenodd" clip-rule="evenodd" d="M10.6053 6.05473C10.4697 6.49005 10.38 6.93941 10.3302 7.3926C10.3283 7.4136 10.3292 7.43459 10.3302 7.45558C10.2534 7.53814 10.1866 7.62934 10.1125 7.71374C10.0686 7.71913 10.025 7.70906 9.98163 7.70523C10.0618 7.57275 10.1162 7.41814 10.0996 7.26112C10.0819 7.06126 9.95933 6.88509 9.80418 6.76523C9.64381 6.63998 9.44943 6.56381 9.25052 6.5275C9.15523 6.50934 9.05796 6.50721 8.96225 6.49317C8.94305 6.41856 8.88828 6.35899 8.82433 6.31927C8.68429 6.23189 8.50487 6.21842 8.35029 6.27275C8.1518 6.14424 7.96264 5.96778 7.89643 5.7326C8.15689 5.64849 8.42991 5.60693 8.70293 5.5953C9.36289 5.56835 10.0301 5.72764 10.6053 6.05473ZM6.74068 5.52182C7.01737 5.52523 7.29533 5.5719 7.55396 5.67246C7.51838 5.94112 7.49466 6.21119 7.47617 6.48154C7.26301 6.47487 7.06227 6.38906 6.87705 6.28906C6.60544 6.14041 6.36207 5.94721 6.1146 5.76239C6.08736 5.74126 6.057 5.72367 6.03399 5.69757C6.24165 5.56055 6.4966 5.5214 6.74068 5.52182Z" fill="#DDA137"/>
<path fill-rule="evenodd" clip-rule="evenodd" d="M7.55396 5.67246C7.66986 5.6797 7.78406 5.70395 7.89643 5.7326C7.96264 5.96778 8.1518 6.14424 8.35029 6.27275C8.44078 6.42849 8.52392 6.59601 8.54736 6.777C8.66749 6.75899 8.79426 6.73516 8.89181 6.65771C8.94164 6.61927 8.97086 6.55643 8.96225 6.49317C9.05796 6.50721 9.15523 6.50934 9.25052 6.5275C9.44943 6.56381 9.64381 6.63998 9.80418 6.76523C9.95933 6.88509 10.0819 7.06126 10.0996 7.26112C10.1162 7.41814 10.0618 7.57275 9.98163 7.70523C9.57747 7.66154 9.16045 7.65473 8.76716 7.7719C8.57503 7.70736 8.39292 7.60892 8.24413 7.46948C8.04635 7.2892 7.90434 7.05941 7.75964 6.83658C7.67734 6.70934 7.59038 6.58225 7.47617 6.48154C7.49466 6.21119 7.51838 5.94112 7.55396 5.67246Z" fill="#3B6A54"/>
<path fill-rule="evenodd" clip-rule="evenodd" d="M12.1956 6.61544C13.536 5.96083 15.0746 5.70636 16.5502 5.93587C17.2232 6.04041 17.8806 6.24679 18.4924 6.54721C18.9669 6.77757 19.4104 7.06807 19.825 7.39374L19.8431 7.41615C19.2502 7.21502 18.6361 7.07062 18.0127 7.00977C17.621 6.97487 17.2217 6.97416 16.8361 7.05927C16.7929 7.07033 16.7483 7.077 16.7075 7.09544C17.7868 7.46282 18.81 8.02367 19.6546 8.79743C20.4522 9.52253 21.0809 10.4347 21.4688 11.4431C21.9705 12.7352 22.0801 14.1699 21.8219 15.5296C21.5929 16.7452 21.0725 17.9072 20.3026 18.8742C19.6177 19.7384 18.7296 20.4403 17.7274 20.8962C16.8626 21.2932 15.9189 21.5057 14.9705 21.5508C14.9043 21.5513 14.8378 21.5617 14.772 21.5522L14.7828 21.5431C15.2897 21.1515 15.7228 20.6676 16.0774 20.134C16.6713 19.2386 17.0468 18.2075 17.2285 17.1499C17.4401 15.9082 17.3883 14.6203 17.0652 13.4024C16.8026 12.4115 16.3551 11.4671 15.7311 10.654C15.0746 9.79388 14.2198 9.09048 13.2577 8.60154C12.4133 8.16877 11.4924 7.89771 10.5565 7.757C11.0325 7.28565 11.5966 6.91019 12.1956 6.61544Z" fill="#AC151C"/>
<path fill-rule="evenodd" clip-rule="evenodd" d="M8.35029 6.27275C8.50487 6.21842 8.68429 6.23189 8.82433 6.31927C8.88828 6.35899 8.94305 6.41856 8.96225 6.49317C8.97086 6.55643 8.94164 6.61927 8.89181 6.65771C8.79426 6.73516 8.66749 6.75899 8.54736 6.777C8.52392 6.59601 8.44078 6.42849 8.35029 6.27275Z" fill="white"/>
</svg>
