<svg width="24" height="24" viewBox="0 0 24 24" fill="none" xmlns="http://www.w3.org/2000/svg">
<path fill-rule="evenodd" clip-rule="evenodd" d="M12.7521 2.00426C12.8819 1.97832 12.8819 2.08194 13.0763 2.01721C13.2578 1.95237 13.5562 2.14695 13.6729 2.21168C13.8026 2.27652 13.8933 2.21168 14.0748 2.22468C14.2694 2.25063 14.9179 2.54894 15.1513 2.66563C15.3717 2.7952 15.3069 2.93788 15.4106 2.87304C15.5274 2.82114 15.6701 2.89899 15.7478 2.96383C15.8386 3.02873 15.9035 3.10657 16.1108 3.13246C16.3183 3.14546 16.461 3.46967 16.5907 3.5344C16.7205 3.5863 16.889 3.71604 17.0966 3.78088C17.3039 3.84572 17.4856 4.29955 17.5504 4.40334C17.6152 4.50708 17.5375 4.70166 17.5375 4.70166C17.5375 4.70166 17.8875 4.8444 17.9136 5.15549C17.9265 5.47981 18.1989 6.34859 18.3026 6.6209C18.4062 6.89332 18.6397 7.08779 18.6788 7.16564C18.7306 7.25631 18.6656 7.56763 18.6788 7.65836C18.7046 7.73621 18.8732 8.04741 18.9121 8.1512C18.9511 8.25494 18.8861 8.52725 18.8732 8.65699C18.8473 8.78662 18.8861 8.79968 18.938 8.89035C18.9769 8.9682 18.8473 9.17578 18.8342 9.26646C18.8083 9.34419 18.8861 9.55171 19.0159 9.82403C19.1455 10.0966 19.1067 10.8617 18.9769 10.9394C18.8473 11.0172 18.7046 11.108 18.6008 11.3804C18.497 11.6527 18.5619 11.925 18.497 12.0936C18.4323 12.2622 18.2378 12.4436 18.1989 12.5735C18.16 12.7031 18.16 12.9235 18.0172 13.0792C17.8617 13.2217 17.7579 13.4553 17.7837 13.5331C17.8098 13.6239 17.7579 13.9739 17.6802 14.1685C17.5894 14.35 17.7837 14.2853 17.7837 14.2853C19.6512 15.0374 20.1053 15.7765 20.7796 17.0734C21.4409 18.3702 21.1296 20.7434 21.1296 20.7434V20.9898L20.9611 21.0675H20.8833V21.2881L20.6887 21.4697H20.5851L20.3126 21.5734C20.3126 21.5734 20.1959 21.742 20.0663 21.768C19.9365 21.781 19.9237 21.5345 19.9237 21.5345C19.8588 21.8326 19.6254 21.9364 19.6254 21.9364L19.5605 21.8068L19.2882 21.8845C19.2882 21.8845 19.0806 22.1052 19.0417 21.9364C19.003 21.768 18.8732 21.703 18.8732 21.703C18.6656 21.9364 18.497 21.6772 18.497 21.6772C18.134 21.8457 18.2378 21.3659 18.16 21.5086C18.0821 21.6642 17.8875 21.5345 17.7837 21.6382C17.6802 21.742 17.4856 21.5086 17.4856 21.5086L17.0705 21.6123L16.967 21.5992C16.889 21.9106 16.6297 21.9106 16.3573 21.8845C16.1455 21.8746 16.1141 21.6841 16.1105 21.5999L16.1108 21.5604C16.1108 21.5604 15.7348 21.703 15.6701 21.6382C15.6051 21.5734 15.2032 21.6123 15.2032 21.6123L15.0864 21.4048L14.7881 21.5345L14.7234 21.4048C14.6843 21.5086 14.4381 21.5086 14.4381 21.5086L14.4121 21.2621L14.3083 21.2362C14.2436 21.5992 13.6339 21.6123 13.6339 21.6123L13.5303 21.5345C13.4265 21.6772 13.1932 21.5604 13.1932 21.5604C13.1413 21.4438 12.8687 21.5604 12.7391 21.5734C12.6095 21.5992 12.5058 21.742 12.3761 21.781C12.2594 21.8326 12.1556 21.742 12.1556 21.742L12.1037 21.3269C11.987 21.4307 11.585 21.4048 11.585 21.3269C11.585 21.2362 11.4553 21.3269 11.2737 21.3269C11.0792 21.3269 10.8718 21.5345 10.8718 21.5345L10.8069 21.4307C10.7291 21.5086 10.2881 21.6642 10.2104 21.4697C10.1195 21.2881 10.0159 21.34 9.95099 21.4438C9.88614 21.5604 9.4971 21.4955 9.4971 21.4955C9.4971 21.4955 9.15994 21.5345 9.09504 21.4697C9.0302 21.4048 8.82273 21.4955 8.82273 21.4955L8.58926 21.4697C8.31695 21.6382 8.10948 21.4697 8.10948 21.4697C8.03169 21.5345 7.77232 21.5604 7.77232 21.5604C7.77232 21.6382 7.52585 21.6642 7.52585 21.6642C7.46112 21.5604 7.2277 21.742 7.2277 21.742C7.08501 21.8457 6.83854 21.6772 6.83854 21.6772C6.77381 21.7161 6.60518 21.6123 6.5145 21.5734C6.43666 21.5345 6.47544 21.6772 6.29397 21.6772C6.09939 21.6772 6.12528 21.5992 6.12528 21.5992L6.0346 21.6772C5.80124 21.6772 5.26945 21.6382 5.26945 21.6382C5.26945 21.6382 5.03609 21.703 4.9323 21.8068C4.82851 21.9106 4.56909 21.768 4.42651 21.7161C4.28383 21.6772 4.21904 21.6123 4.12825 21.5992C4.05041 21.5734 4.01152 21.768 4.01152 21.768C3.88178 21.703 3.7392 21.781 3.63541 21.781C3.51868 21.781 3.3761 21.9753 3.27231 21.8457C3.16852 21.7161 3 21.6642 3 21.6642C3.29826 16.0489 6.09939 15.608 6.09939 15.608C6.09939 15.4265 6.37176 14.9855 6.47544 14.8947C6.57923 14.817 6.50138 14.7133 6.39759 14.5834C6.29397 14.4538 6.54033 14.2204 6.54033 14.2204C5.65844 13.9092 5.64556 13.2607 5.64556 13.2607C5.65844 13.0533 5.61961 13.0533 5.61961 13.0533C5.32135 12.9106 5.17866 12.6382 5.17866 12.4436C5.17866 12.2622 5.07487 12.0287 5.07487 12.0287C4.86746 11.7564 5.11382 11.7953 5.11382 11.5877C5.11382 11.3804 5.15272 11.2376 5.15272 11.2376C5.15272 11.2376 5.2045 11.2118 5.13977 10.9653C5.07487 10.706 5.13977 10.5373 5.13977 10.5373C5.13977 10.5373 5.2045 10.3688 5.15272 10.265C5.11382 10.1612 5.03609 9.97971 5.03609 9.87592C5.03609 9.77213 5.13977 9.82402 5.10082 9.57766C5.04892 9.33141 5.03609 9.39608 5.03609 9.07199C5.03609 8.76067 5.41208 8.85146 5.42503 8.59215C5.45097 8.34578 5.69745 8.03452 5.82708 7.90484C5.95676 7.77521 5.93081 7.63242 5.95676 7.11374C5.96965 6.58212 6.02155 6.29669 6.12528 6.19301C6.22907 6.07628 6.24207 6.02438 6.26802 5.8947C6.29397 5.76507 6.29397 5.54454 6.37176 5.38897C6.4626 5.24628 6.74786 5.11654 6.74786 5.03876C6.74786 4.94802 6.78664 4.77939 6.91638 4.66277C7.04612 4.53303 7.05907 4.59792 7.08501 4.46818C7.11085 4.33856 7.38327 4.02735 7.43517 3.9624C7.4999 3.91062 7.56491 3.71604 7.56491 3.71604C7.56491 3.71604 7.66853 3.63819 7.81127 3.5344C7.9669 3.41778 8.52447 3.09357 8.52447 3.09357C8.62826 3.10657 8.68016 3.02873 8.68016 3.02873C8.92641 2.82114 9.13399 2.86021 9.23773 2.87304C9.34152 2.89899 9.47126 2.83426 9.57494 2.73047C9.67867 2.62668 10.2622 2.44521 10.4179 2.41926C10.5605 2.39331 10.5864 2.44521 10.6902 2.34142C10.794 2.22468 11.0014 2.22468 11.183 2.22468C11.3775 2.22468 11.5591 2.1729 11.5591 2.1729C11.5591 2.1729 11.546 2.38031 11.7795 2.18573C12 2.00426 12.2075 2.121 12.3242 2.121C12.428 2.121 12.6354 2.01721 12.7521 2.00426ZM11.183 8.03452H10.8328C10.7809 8.1771 10.9106 8.30684 10.9106 8.30684C10.9106 8.30684 10.9237 8.34579 10.8978 8.34579C10.8718 8.35873 10.8328 8.46252 10.8199 8.52725C10.8069 8.59215 10.755 8.65699 10.7421 8.66994C10.7369 8.67251 10.7276 8.67458 10.716 8.67633L10.6365 8.68482C10.6118 8.68753 10.5942 8.69066 10.5994 8.69588C10.6123 8.70877 10.6253 8.72183 10.5864 8.76067C10.5605 8.78662 10.0936 8.85146 10.0159 8.87741C9.92504 8.89035 10.0029 8.9682 10.0418 8.9682C10.0807 8.9812 10.1067 9.00715 10.1195 9.05899C10.1326 9.11088 10.1326 9.12388 10.0288 9.08493C9.93804 9.05899 9.96399 9.09794 9.96399 9.09794C9.98994 9.13672 9.87314 9.20173 9.84719 9.21456C9.8083 9.2404 9.71751 9.30535 9.67867 9.30535C9.63967 9.31835 9.62678 9.26646 9.58788 9.33141C9.54899 9.39608 9.48409 9.37025 9.48409 9.37025C9.22478 9.39608 9.12099 9.21456 9.15994 9.20173C9.18583 9.18872 9.18583 9.13672 9.10805 9.12388C9.04326 9.11088 8.99137 9.13672 8.99137 9.17578C9.00425 9.21456 8.99137 9.2404 8.91358 9.26646C8.84868 9.29229 8.83573 9.35725 8.82273 9.46104C8.80979 9.56483 8.73194 9.44798 8.65421 9.88904C8.58926 10.3428 8.84868 10.4466 8.92641 10.4726C8.99137 10.4854 9.00425 10.4854 9.0302 10.5114C9.05615 10.5244 9.15994 10.6411 9.18583 10.68C9.21178 10.7319 9.21178 10.7449 9.23773 10.706C9.27668 10.68 9.34152 10.6411 9.39342 10.6411C9.4322 10.6411 9.40625 10.706 9.39342 10.7449C9.36747 10.7838 9.40625 10.7968 9.4322 10.7838C9.47126 10.7579 9.56194 10.719 9.60089 10.7707C9.63967 10.8225 9.45815 10.9134 9.45815 10.9653C9.45815 11.0172 9.4971 11.0432 9.4971 11.108C9.4971 11.1858 9.34152 11.2247 9.32846 11.2376C9.31557 11.2636 9.30263 11.3155 9.26368 11.3674C9.23773 11.4323 9.12099 11.4193 9.10805 11.4581C9.10286 11.4685 9.10078 11.4804 9.10016 11.4928L9.10057 11.5627C9.09767 11.5815 9.08729 11.5929 9.05615 11.5877C8.97831 11.575 8.90046 11.3413 8.84868 11.3155C8.79678 11.2766 8.82273 11.6008 8.82273 11.6008C8.79678 12.0287 8.91358 12.2232 8.92641 12.2882C8.92641 12.3528 8.99137 12.2882 9.00426 12.3141C9.01731 12.327 8.99137 12.3659 9.05615 12.3789C9.10805 12.3917 9.09504 12.3009 9.09504 12.3009C9.09504 12.3009 9.04326 12.1325 9.05615 12.0547C9.05615 11.9769 9.10805 11.9899 9.14694 11.9899C9.18583 11.9899 9.26368 12.0936 9.28963 12.1065C9.31557 12.1325 9.30263 12.1195 9.32846 12.1584C9.33495 12.1681 9.34063 12.1844 9.34591 12.2038L9.37597 12.3335L9.39342 12.3789C9.40625 12.4308 9.47126 12.4566 9.51004 12.4436C9.54899 12.4178 9.65273 12.3401 9.69156 12.3528C9.71751 12.3659 9.66562 12.4308 9.65273 12.4827C9.62678 12.5345 9.53599 12.6512 9.53599 12.7161C9.54899 12.768 9.70462 12.8197 9.73057 12.8327C9.76941 12.8458 9.79536 12.8977 9.8083 12.9365C9.8213 12.9884 9.87314 13.0403 9.89909 13.0533C9.91209 13.0661 9.93804 13.105 9.95099 13.1441C9.96399 13.1829 10.1326 13.2867 10.1586 13.2996C10.1845 13.2996 10.2233 13.2867 10.2492 13.3126C10.2622 13.3386 10.366 13.4034 10.4048 13.4164C10.4567 13.4293 10.5475 13.4422 10.5994 13.4422C10.6383 13.4422 10.768 13.2478 10.794 13.2088C10.8069 13.183 10.768 13.1569 10.768 13.1569C10.7291 13.1441 10.7031 13.105 10.7031 13.105L10.7291 12.9235L10.9237 12.8977C10.9237 12.8977 10.9754 12.8977 10.9366 12.8458C10.8978 12.7808 10.9237 12.7289 10.9237 12.7289C10.9237 12.7289 11.0014 12.742 11.0014 12.7031C11.0014 12.6642 11.0403 12.5863 11.0533 12.5735C11.0663 12.5604 11.1571 12.6123 11.1959 12.6123C11.2349 12.6254 11.2218 12.5863 11.1699 12.5604C11.1052 12.5216 10.9495 12.5604 10.9237 12.5604C10.8847 12.5604 10.7809 12.6382 10.768 12.6512C10.755 12.6642 10.6513 12.6382 10.6253 12.6512C10.5994 12.6642 10.5345 12.6901 10.5086 12.6901C10.4698 12.6901 10.4567 12.6771 10.366 12.5993C10.2622 12.5216 10.2233 12.5863 10.2233 12.5863C10.2233 12.5863 10.0807 12.7289 10.0548 12.7289C10.0288 12.7289 9.95099 12.7161 9.92504 12.6901C9.88614 12.6771 9.8083 12.6254 9.78235 12.5993C9.76941 12.5604 9.78235 12.2622 9.78235 12.2103C9.76941 12.1455 9.74346 12.1713 9.74346 12.1713C9.45815 11.8602 9.54899 11.3804 9.57494 11.3413C9.58788 11.3155 9.53599 11.0301 9.58788 11.0043C9.63967 10.9782 9.87314 10.5763 9.89909 10.5504C9.93804 10.5244 9.98994 10.4077 9.98994 10.3688C10.0029 10.3428 10.0159 10.2131 10.0159 10.1872C10.0288 10.1612 10.1195 10.0058 10.1326 9.99277C10.1455 9.97971 10.1586 9.95388 10.1586 9.91487C10.1714 9.87592 10.1845 9.85009 10.1973 9.82403C10.2233 9.81119 10.2363 9.82403 10.2492 9.82403C10.2622 9.82403 10.2622 9.95388 10.2622 9.97971C10.2622 10.0058 10.3529 10.0447 10.4048 10.0574C10.4567 10.0705 10.5475 9.99277 10.5475 9.99277C10.5475 9.99277 10.5994 10.0058 10.7161 9.99277C10.8199 9.96671 11.0144 9.83714 11.0663 9.85009C11.1181 9.86297 11.2608 9.96671 11.2997 9.97971C11.3516 9.99277 11.5591 9.97971 11.611 9.97971C11.6629 9.99277 11.8054 10.0705 11.8444 10.0835C11.8703 10.1093 11.8963 10.0835 11.8832 10.0574C11.8832 10.0316 11.8444 9.91487 11.8703 9.88904C11.8963 9.86297 12.0259 10.0574 12.0389 10.0705C12.0389 10.0966 12.3371 10.3688 12.3631 10.3818C12.389 10.3947 12.6354 10.6152 12.6354 10.6411C12.6354 10.6541 12.7521 10.8357 12.7781 10.8744C12.804 10.9134 12.8948 11.108 12.8819 11.147C12.8819 11.1858 12.8819 11.4193 12.9077 11.4581C12.9337 11.497 12.9206 11.575 12.8948 11.5877C12.8687 11.5877 12.791 11.6785 12.791 11.6915C12.791 11.7045 12.7521 11.7564 12.7002 11.7564C12.6614 11.7434 12.6483 11.8212 12.6225 11.8212C12.5835 11.8212 12.4926 11.7175 12.402 11.6269C12.3242 11.5231 12.0259 11.4581 11.987 11.4581C11.9351 11.4581 11.7406 11.4323 11.6369 11.3932C11.5332 11.3674 11.2349 11.4062 11.144 11.4323C11.0533 11.4581 10.8069 11.5877 10.7421 11.575C10.6642 11.575 10.6253 11.6396 10.6253 11.6527C10.6253 11.6785 10.5864 11.6915 10.5864 11.7175C10.5994 11.7304 10.6902 11.7045 10.6902 11.7045C10.6902 11.7045 10.7421 11.6527 10.768 11.6527C10.794 11.6396 10.8199 11.6527 10.8587 11.6527C10.8978 11.6527 11.0144 11.5877 11.0663 11.6008C11.1052 11.6008 11.1181 11.6008 11.209 11.6785C11.2997 11.7564 11.4034 11.6785 11.4034 11.6785C11.4423 11.6915 11.6498 11.6656 11.7147 11.6527C11.7665 11.6396 11.8184 11.6656 11.8444 11.6915C11.8521 11.7148 11.8038 11.7615 11.7584 11.8008L11.6887 11.8602C11.6629 11.8861 11.6758 11.899 11.6758 11.9121C11.6887 11.925 11.7147 11.9509 11.7277 11.9769C11.7406 12.0028 11.7017 12.0287 11.6887 12.0806C11.6758 12.1455 11.6887 12.1455 11.6887 12.1455C11.6887 12.1455 11.7925 12.1844 11.8054 12.1713C11.8184 12.1713 11.8313 12.1195 11.8572 12.0806C11.8703 12.0417 11.987 12.0806 12.0129 12.0936C12.0389 12.0936 12.2334 12.1455 12.2723 12.1844C12.3112 12.2232 12.3242 12.2882 12.3242 12.327C12.3242 12.3659 12.3761 12.4308 12.389 12.4697C12.415 12.4955 12.5058 12.4827 12.5058 12.4436C12.5058 12.4178 12.5964 12.3659 12.6225 12.3789C12.6483 12.3789 12.8171 12.3659 12.83 12.3528C12.83 12.3401 12.8819 12.2751 12.9467 12.327C13.0115 12.3789 13.1282 12.3917 13.1282 12.3917C13.0633 12.3659 12.7133 12.0028 12.6744 11.925C12.6354 11.8602 12.7521 11.8731 12.8171 11.899C12.8819 11.925 12.9077 11.925 12.9596 11.9899C13.0115 12.0547 13.0894 12.0417 13.154 12.0417C13.219 12.0417 13.3616 11.8472 13.4135 11.8602C13.4524 11.8602 13.3746 11.7823 13.5691 11.8083C13.7507 11.8342 13.6081 11.9509 13.6339 11.9899C13.6729 12.0157 13.8414 11.925 13.8804 11.8472C13.9192 11.7693 14.0229 11.5877 14.049 11.5489C14.0748 11.497 14.0618 11.3155 14.049 11.2766C14.036 11.2376 13.9971 11.2376 14.0618 11.1728C14.1267 11.108 13.9971 10.8875 13.971 10.8486C13.9452 10.8098 13.9583 10.693 13.9971 10.693C14.036 10.693 14.036 10.6281 14.036 10.6281C13.8545 10.5244 14.049 10.2131 14.0618 10.1743C14.0879 10.1354 13.971 9.95388 13.971 9.91487C13.971 9.86297 13.9583 9.69445 14.0229 9.68145C14.0879 9.68145 14.1528 9.48687 14.1786 9.47404C14.2046 9.44798 14.3083 9.42214 14.2955 9.33141C14.2955 9.2404 14.425 9.18872 14.4121 9.16266C14.399 9.13672 14.3602 9.07199 14.3862 8.94225C14.399 8.81257 14.3343 8.76067 14.2694 8.74778C14.2175 8.73472 14.1009 8.72183 14.0229 8.72183C13.9452 8.70877 13.9064 8.66994 13.8285 8.69588C13.7377 8.70877 13.4913 8.78662 13.4135 8.82551C13.3228 8.85146 13.2709 8.85146 13.1801 8.82551C13.0763 8.78662 12.7781 8.76067 12.7133 8.78662C12.6614 8.81257 12.4539 8.83846 12.389 8.81256C12.3242 8.78662 12.2205 8.77373 12.1427 8.82551C12.0648 8.8644 11.8444 8.78662 11.8444 8.78662L11.8572 8.69588C11.8572 8.69588 11.7925 8.68283 11.7406 8.65699C11.6887 8.63104 11.611 8.59215 11.5072 8.59215C11.4034 8.57915 11.4034 8.65699 11.4034 8.65699L11.3645 8.76067L11.2608 8.74778L11.2218 8.69588C11.2218 8.69588 11.2608 8.60509 11.2867 8.5532C11.2997 8.5013 11.1311 8.39757 11.0792 8.35873C11.0273 8.33278 10.9754 8.33278 11.1052 8.25494C11.2218 8.1771 11.183 8.03452 11.183 8.03452ZM10.1586 10.5373C10.1586 10.5373 10.0807 10.5892 10.0676 10.6281C10.0676 10.6281 10.0549 10.6503 10.0362 10.6833L9.96846 10.803C9.93218 10.8674 9.89726 10.9302 9.88614 10.9524C9.8602 10.9913 9.63967 11.3155 9.66562 11.4323C9.66562 11.4323 9.75652 11.3543 9.8083 11.3155C9.87314 11.2636 9.91209 11.2247 9.95099 11.2118C9.98994 11.1986 10.0029 11.0951 10.0418 11.0951C10.0676 11.082 10.2622 11.1339 10.2752 11.0951C10.2752 11.0561 10.2622 10.9524 10.1714 10.8875C10.0807 10.8357 10.0936 10.7838 10.1326 10.693C10.1714 10.6152 10.1586 10.5373 10.1586 10.5373ZM12.0648 10.3039C12.0389 10.265 12.0129 10.3169 11.961 10.4337C11.8963 10.5373 11.7406 10.5244 11.6369 10.5373C11.5332 10.5373 11.4034 10.6152 11.3386 10.6411C11.2737 10.68 11.0922 10.9134 11.0922 10.9653C11.0922 11.0043 11.0144 11.0951 11.0144 11.0951C11.0144 11.0951 10.6772 11.0951 10.5864 11.147C10.4957 11.1986 10.5345 11.2505 10.5735 11.2505C10.6123 11.2636 10.8847 11.2766 10.9366 11.2766C10.9884 11.2766 11.1311 11.1986 11.1959 11.1986C11.2608 11.1858 11.5072 11.1728 11.572 11.1599C11.6369 11.147 11.5979 11.0951 11.6369 11.0951C11.6758 11.082 11.6758 11.2118 11.7406 11.2118C11.8054 11.2118 11.9091 11.069 11.9351 11.082C11.961 11.0951 12.0778 11.0561 12.0778 11.0561C12.0778 11.0561 12.1427 11.108 12.1686 11.108C12.2075 11.1209 12.2983 11.082 12.2983 11.082C12.2983 11.082 12.3631 11.0561 12.428 11.147C12.4799 11.2376 12.5835 11.2505 12.6225 11.2636C12.6614 11.2766 12.7002 11.2636 12.7002 11.2636C12.7391 11.147 12.415 10.719 12.3242 10.5892C12.2334 10.4466 12.0648 10.3039 12.0648 10.3039ZM9.31557 5.98549C9.31557 5.98549 9.28962 6.02438 9.23773 6.02438C9.18583 6.02438 9.09504 6.10222 9.05615 6.10222C9.0302 6.10222 8.93953 6.2578 8.91358 6.28375C8.88763 6.30969 8.82273 6.54306 8.74489 6.53022C8.6671 6.51711 8.6671 6.60795 8.6671 6.65979C8.6671 6.71169 8.60232 6.80254 8.61521 6.85437C8.62826 6.91916 8.35584 7.15263 8.35584 7.20442C8.35584 7.20442 8.31695 7.28226 8.26505 7.26943C8.21316 7.25631 8.2391 7.17858 8.26505 7.11374C8.30394 7.06184 8.38179 6.88032 8.38179 6.88032C8.38179 6.88032 8.39479 6.73764 8.43368 6.71169C8.45963 6.68574 8.52447 6.569 8.47263 6.55617C8.40774 6.55617 8.35584 6.58212 8.36884 6.6728C8.38179 6.76359 8.35584 6.85437 8.34289 6.89332C8.31695 6.93222 8.26505 7.02295 8.25222 7.06184C8.2391 7.10074 8.14843 7.16564 8.12248 7.19158C8.09653 7.20442 8.07058 7.28226 8.09653 7.3471C8.12248 7.42495 8.08353 7.51574 8.04463 7.55469C8.01869 7.58063 7.99285 7.65836 8.00574 7.7621C8.01869 7.85294 7.9669 7.86589 7.9669 7.86589V7.96957C7.9669 7.96957 7.88906 8.20304 7.94096 8.1771C7.97979 8.16415 7.99285 8.04741 8.00574 7.95668C8.01869 7.87889 8.07058 7.83994 8.09653 7.85294C8.12248 7.86589 8.12248 7.95668 8.10948 7.98263C8.08353 8.02147 8.03169 8.16415 8.04463 8.21605C8.04463 8.26794 8.08353 8.26794 8.08353 8.30684C8.08353 8.34579 8.10948 8.38468 8.08353 8.43657C8.07058 8.5013 8.16126 8.54025 8.21315 8.48847C8.26505 8.43657 8.291 8.41063 8.31695 8.43657C8.34289 8.47536 8.34289 8.5532 8.31695 8.63104C8.291 8.72183 8.30394 8.82551 8.34289 8.81256C8.38179 8.79968 8.44669 8.76067 8.44669 8.54025C8.45963 8.33278 8.48558 8.30684 8.49858 8.31984C8.52447 8.33278 8.57637 8.26794 8.56342 8.44941C8.56342 8.61804 8.58926 8.59215 8.58926 8.59215C8.58926 8.59215 8.65421 8.47536 8.60232 8.35873C8.55042 8.24199 8.51153 8.25494 8.52447 8.21605C8.52447 8.16415 8.57637 8.12526 8.57637 8.11225C8.57637 8.08642 8.57637 8.07336 8.52447 8.08642C8.48558 8.08642 8.38179 8.06047 8.44669 7.95668C8.51153 7.85294 8.58926 7.7621 8.64115 7.78805C8.69305 7.80105 8.73194 7.52874 8.73194 7.47684C8.74489 7.412 8.90046 7.16564 8.95236 7.13969C8.99137 7.10074 9.09504 6.94511 9.13399 7.02295C9.13399 7.02295 9.27668 6.89332 9.19884 6.80254L9.19396 6.80575L9.15121 6.83335C9.1288 6.84767 9.09767 6.86739 9.05615 6.89332C8.96542 6.95817 8.88763 6.98411 8.92641 6.91916L9.0043 6.778C9.01728 6.75639 9.03026 6.73766 9.04326 6.72469C9.0691 6.68574 9.0691 6.65979 9.0302 6.6339C8.99137 6.60795 9.05615 6.47833 9.12099 6.43938C9.17289 6.40048 9.12099 6.34859 9.15994 6.27086C9.21178 6.19301 9.26368 6.11523 9.30263 6.08928C9.32846 6.06333 9.34152 6.02438 9.31557 5.98549ZM12.2983 8.02147L12.2075 8.11225C12.2075 8.11225 12.1427 8.12526 12.1037 8.1382C12.0648 8.1382 12.1296 8.16415 12.1556 8.16415C12.1815 8.1512 12.2853 8.12526 12.3112 8.12526C12.3371 8.12526 12.4539 8.1382 12.4799 8.1512C12.5187 8.16415 12.7263 8.25494 12.7521 8.25494C12.791 8.25494 12.8559 8.31984 12.9337 8.38468C13.0244 8.43657 13.1152 8.57915 13.2451 8.60509C13.3616 8.63104 13.4395 8.65699 13.621 8.60509C13.7895 8.54025 13.8285 8.52725 13.9064 8.54025C13.9842 8.5662 14.049 8.54025 14.0618 8.5662C14.0748 8.59215 14.1137 8.64399 14.1528 8.64399C14.1917 8.64399 14.2046 8.60509 14.2046 8.60509L14.2436 8.5532V8.51442L14.1528 8.54025L14.0879 8.51442C14.0879 8.51442 14.036 8.54025 14.0229 8.52725C13.9971 8.52725 13.9064 8.5013 13.8933 8.44941C13.8804 8.41063 13.9192 8.37173 13.9192 8.37173V8.26794L13.8545 8.25494L13.4654 8.38468C13.4654 8.38468 13.4913 8.39757 13.5173 8.39757C13.5303 8.39757 13.5691 8.38468 13.6081 8.37173L13.6988 8.34579C13.7248 8.33278 13.7766 8.31984 13.7895 8.30684C13.8675 8.28089 13.8933 8.30684 13.8933 8.30684L13.8675 8.37173C13.8675 8.37173 13.8285 8.42346 13.8026 8.43657C13.7637 8.43657 13.6729 8.5013 13.647 8.51442C13.621 8.51442 13.4784 8.5662 13.4135 8.5532C13.3486 8.54025 13.1932 8.54025 13.1152 8.47536C13.0505 8.39757 12.9856 8.35873 12.9725 8.29389C12.9596 8.22899 12.804 8.07336 12.7521 8.07336C12.7002 8.06047 12.415 7.98263 12.2983 8.02147ZM10.3919 8.26794C10.3529 8.28089 10.2622 8.31984 10.2363 8.31984C10.1973 8.31984 9.91209 8.28089 9.78235 8.33278C9.63967 8.39757 9.57494 8.38468 9.57494 8.38468L9.4971 8.43657L9.36747 8.51442H9.4322L9.51004 8.52725L9.57494 8.5013L9.66562 8.48847C9.66562 8.48847 9.69156 8.44941 9.71751 8.44941C9.73057 8.44941 9.88614 8.47536 9.91209 8.46252C9.93804 8.44941 9.96399 8.42346 9.97693 8.42346C10.0029 8.42346 10.0676 8.43657 10.0807 8.42346C10.1067 8.41063 10.2363 8.42346 10.2363 8.42346C10.2363 8.42346 10.366 8.33278 10.4179 8.31984C10.4698 8.31984 10.5216 8.30684 10.5086 8.26794C10.5086 8.26794 10.4179 8.25494 10.3919 8.26794ZM14.1528 5.73912C14.1009 5.76507 14.036 5.80385 14.0102 5.81697C13.9842 5.81697 13.9452 5.8817 13.9452 5.90764C13.9452 5.92065 13.8026 6.01144 13.7895 6.17996C13.7895 6.34859 13.8026 6.86738 13.8156 6.91916C13.8156 6.97106 13.7895 7.08779 13.8156 7.13969C13.8414 7.19158 13.8026 7.28226 13.7248 7.26943C13.66 7.25631 13.6339 7.23037 13.5691 7.06184C13.5043 6.88032 13.2451 6.64685 13.232 6.59495C13.2059 6.55617 13.232 6.50428 13.1932 6.45238C13.1671 6.40048 12.8559 6.06333 12.83 6.05033C12.804 6.03738 12.7002 6.02438 12.6744 6.02438C12.6483 6.01144 12.6225 5.97254 12.6095 5.95954C12.5835 5.94659 12.4926 6.01144 12.4926 6.01144C12.4926 6.01144 12.1556 5.97254 12.1037 5.94659C12.0648 5.93359 11.987 5.85575 11.8832 5.84291C11.7665 5.8298 11.5979 5.81697 11.5202 5.8298C11.4423 5.84291 11.2997 5.86875 11.2867 5.8817C11.2737 5.90764 11.2608 5.98549 11.2218 5.98549C11.183 5.98549 11.0663 5.97254 11.0533 5.94659C11.0533 5.94659 10.9884 5.93359 10.9754 5.95954C10.9495 5.97254 10.8847 5.98549 10.8587 5.97254C10.8328 5.95954 10.7809 6.03738 10.768 6.03738C10.7421 6.02438 10.6642 6.19301 10.6123 6.16712C10.5475 6.15412 10.5086 6.16712 10.5086 6.16712C10.5086 6.16712 10.5605 6.41349 10.5086 6.42643C10.4438 6.43938 10.34 6.569 10.2492 6.569C10.1586 6.569 10.0548 6.65979 10.0288 6.73764C9.98994 6.81548 9.76941 7.08779 9.58788 7.03601C9.58788 7.03601 9.60089 7.25631 9.51004 7.33416C9.51004 7.33416 9.57494 7.52874 9.69156 7.399C9.69156 7.399 9.87314 7.38605 10.0288 7.33416C10.1845 7.28226 10.2233 7.33416 10.2233 7.33416C10.2233 7.33416 10.5605 7.4639 10.755 7.32127C10.8587 7.24348 10.794 7.43795 10.794 7.43795C10.794 7.43795 10.755 7.74927 10.794 7.80105C10.794 7.80105 10.8459 7.83994 10.8978 7.78805C10.8978 7.78805 10.9625 7.7621 10.9495 7.80105C10.9495 7.80105 11.0533 7.85294 10.9885 7.71026C10.9366 7.56763 10.9237 7.58063 10.9754 7.55469C11.0273 7.52874 11.0403 7.55469 11.0792 7.59358C11.0792 7.59358 11.1052 7.60658 11.1311 7.54168C11.144 7.47684 11.2218 7.43795 11.2737 7.399C11.3386 7.3471 11.3904 7.32127 11.4683 7.37305C11.5591 7.412 11.6498 7.38605 11.7147 7.3471C11.7665 7.30821 12.1427 7.26943 12.3761 7.26943C12.6225 7.26943 12.9206 7.30821 12.9337 7.28226C12.9337 7.28226 13.0244 7.29532 13.0633 7.33416C13.1023 7.38605 13.1282 7.4639 13.2451 7.51574C13.3486 7.56763 13.4395 7.58063 13.5173 7.61953C13.5822 7.65836 13.5432 7.71026 13.6081 7.73621C13.6729 7.7621 13.8545 7.77521 13.8545 7.77521C13.8545 7.77521 13.9064 7.69737 13.9192 7.64547C13.9323 7.59358 13.971 7.54168 13.971 7.54168C13.971 7.54168 13.9971 7.50279 13.9971 7.48984C13.9971 7.4639 14.0229 7.42495 14.036 7.412C14.0618 7.399 14.1009 7.3471 14.1009 7.32127C14.1009 7.29532 14.1137 7.21753 14.1528 7.17858C14.1786 7.13969 14.2694 7.02295 14.3474 6.98411C14.425 6.95817 14.464 6.88032 14.5028 6.90627C14.5417 6.93222 14.5288 6.98411 14.5288 7.02295C14.5288 7.0489 14.5936 6.97106 14.6066 6.94511C14.6197 6.91916 14.6715 6.82848 14.6715 6.82848C14.6715 6.82848 14.6455 6.76359 14.6455 6.73764C14.6455 6.71169 14.7362 6.59495 14.7751 6.58212C14.8142 6.569 14.9697 6.53022 15.0216 6.68574C15.0216 6.68574 15.1122 6.6339 15.0864 6.54306C15.0864 6.54306 15.0994 6.54306 15.0475 6.53022C14.9956 6.51711 14.9437 6.47833 14.9179 6.46533C14.8789 6.45238 14.8142 6.46533 14.7623 6.50428C14.7234 6.54306 14.6843 6.51711 14.6326 6.50428C14.5807 6.47833 14.5807 6.47833 14.5547 6.46533C14.5159 6.43938 14.5159 6.30969 14.464 6.33564C14.425 6.34859 14.3862 6.30969 14.2824 6.45238C14.1786 6.59495 14.1656 6.65979 14.0618 6.65979C13.971 6.65979 14.0618 6.55617 14.1009 6.46533C14.1528 6.38754 14.1786 6.29669 14.1786 6.28375C14.1786 6.2578 14.3602 6.10222 14.3862 6.07628C14.3862 6.07628 14.464 6.06333 14.3862 6.02438C14.3213 5.97254 14.3083 5.95954 14.3083 5.95954C14.3083 5.95954 14.2436 5.97254 14.1917 6.03738C14.1267 6.08928 14.1267 6.05033 14.1528 5.98549C14.1786 5.92065 14.1917 5.85575 14.2046 5.81697C14.2175 5.7779 14.1917 5.72606 14.1528 5.73912Z" fill="#0F2B51"/>
</svg>
