<svg width="48" height="48" viewBox="0 0 48 48" fill="none" xmlns="http://www.w3.org/2000/svg">
<path d="M24.9795 13.3105C22.1995 13.3105 19.9395 11.0505 19.9395 8.27047C19.9395 5.49047 22.1995 3.23047 24.9795 3.23047C27.7595 3.23047 30.0195 5.49047 30.0195 8.27047C30.0195 11.0505 27.7595 13.3105 24.9795 13.3105ZM24.9795 5.22047C23.2995 5.22047 21.9395 6.58047 21.9395 8.26047C21.9395 9.94047 23.2995 11.3005 24.9795 11.3005C26.6595 11.3005 28.0195 9.94047 28.0195 8.26047C28.0195 6.58047 26.6595 5.22047 24.9795 5.22047Z" fill="#323232"/>
<path d="M27.3394 28.0003C26.7894 28.0003 26.3394 27.5503 26.3394 27.0003V17.0103C23.7794 17.3003 17.3594 18.4003 17.3594 22.2603V24.7803C17.3594 25.3303 16.9094 25.7803 16.3594 25.7803C15.8094 25.7803 15.3594 25.3303 15.3594 24.7803V22.2603C15.3594 15.4703 26.8094 14.9403 27.2994 14.9203C27.5894 14.9003 27.8394 15.0103 28.0294 15.2003C28.2294 15.3903 28.3394 15.6503 28.3394 15.9203V27.0003C28.3394 27.5503 27.8894 28.0003 27.3394 28.0003Z" fill="#323232"/>
<path d="M34.2286 21.33C32.6686 21.33 30.8886 20.85 29.2686 19.37C28.8586 19 28.8386 18.36 29.2086 17.96C29.5886 17.55 30.2186 17.53 30.6186 17.9C33.4386 20.49 36.6186 18.8 36.6486 18.78C37.1286 18.51 37.7386 18.69 38.0086 19.18C38.2786 19.66 38.0986 20.27 37.6186 20.54C36.8886 20.94 35.6586 21.34 34.2286 21.34V21.33Z" fill="#323232"/>
<path d="M22.6289 28.1007C22.0789 28.1007 21.6289 27.6507 21.6289 27.1007V20.4707C21.6289 19.9207 22.0789 19.4707 22.6289 19.4707C23.1789 19.4707 23.6289 19.9207 23.6289 20.4707V27.1007C23.6289 27.6507 23.1789 28.1007 22.6289 28.1007Z" fill="#323232"/>
<path d="M33.1683 45.7203C32.6183 45.7203 32.1683 45.2703 32.1683 44.7203V42.1002C32.1683 40.3102 31.8483 38.6702 31.2183 37.2203C30.2483 35.0003 28.8383 33.7102 27.0483 33.4102C26.5083 33.3202 26.1383 32.8002 26.2283 32.2602C26.3183 31.7202 26.8183 31.3502 27.3783 31.4402C29.8483 31.8602 31.8083 33.5802 33.0483 36.4202C33.7883 38.1202 34.1683 40.0302 34.1683 42.1002V44.7203C34.1683 45.2703 33.7183 45.7203 33.1683 45.7203Z" fill="#323232"/>
<path d="M14.5093 44.4203C14.0993 44.4203 13.7093 44.1603 13.5693 43.7503C13.3893 43.2303 13.6593 42.6603 14.1893 42.4803C20.4093 40.3203 22.2493 33.4703 22.2593 33.4003C22.3993 32.8603 22.9393 32.5403 23.4793 32.6803C24.0093 32.8203 24.3393 33.3603 24.1993 33.8903C24.1193 34.2103 22.0993 41.8503 14.8493 44.3703C14.7393 44.4103 14.6293 44.4303 14.5193 44.4303L14.5093 44.4203Z" fill="#323232"/>
<path d="M23.4395 30.6803C17.1495 30.6803 12.9795 27.7203 8.6595 23.2803C8.2795 22.8803 8.2795 22.2503 8.6795 21.8703C9.0795 21.4803 9.7095 21.4903 10.0895 21.8903C14.0495 25.9703 17.8395 28.6803 23.4295 28.6803C29.3595 28.6803 34.5795 26.2403 37.7395 21.9903C38.0695 21.5503 38.6995 21.4503 39.1395 21.7803C39.5795 22.1103 39.6795 22.7403 39.3495 23.1803C35.8095 27.9503 30.0095 30.6803 23.4395 30.6803Z" fill="#DF0000"/>
<path d="M7.20922 43.7001H6.25922V25.1201C6.25922 24.5701 5.80922 24.1201 5.25922 24.1201C4.70922 24.1201 4.25922 24.5701 4.25922 25.1201V43.7001H3.19922C2.64922 43.7001 2.19922 44.1501 2.19922 44.7001C2.19922 45.2501 2.64922 45.7001 3.19922 45.7001H7.20922C7.75922 45.7001 8.20922 45.2501 8.20922 44.7001C8.20922 44.1501 7.75922 43.7001 7.20922 43.7001Z" fill="#323232"/>
<path d="M44.4983 43.7001H43.5483V25.1201C43.5483 24.5701 43.0983 24.1201 42.5483 24.1201C41.9983 24.1201 41.5483 24.5701 41.5483 25.1201V43.7001H40.4883C39.9383 43.7001 39.4883 44.1501 39.4883 44.7001C39.4883 45.2501 39.9383 45.7001 40.4883 45.7001H44.4983C45.0483 45.7001 45.4983 45.2501 45.4983 44.7001C45.4983 44.1501 45.0483 43.7001 44.4983 43.7001Z" fill="#323232"/>
<path d="M5.25914 22.4304C6.29914 22.4304 7.14914 21.5804 7.14914 20.5404C7.14914 19.5004 6.29914 18.6504 5.25914 18.6504C4.21914 18.6504 3.36914 19.5004 3.36914 20.5404C3.36914 21.5804 4.21914 22.4304 5.25914 22.4304Z" fill="#323232"/>
<path d="M42.5599 22.4304C43.5999 22.4304 44.4499 21.5804 44.4499 20.5404C44.4499 19.5004 43.5999 18.6504 42.5599 18.6504C41.5199 18.6504 40.6699 19.5004 40.6699 20.5404C40.6699 21.5804 41.5199 22.4304 42.5599 22.4304Z" fill="#323232"/>
</svg>
