<svg width="48" height="48" viewBox="0 0 48 48" fill="none" xmlns="http://www.w3.org/2000/svg">
<path d="M23.9991 3.79004C23.1591 3.79004 22.3591 3.95004 21.6191 4.23004C24.1591 5.19004 25.9791 7.64004 25.9791 10.53V24C25.9791 26.88 24.1691 29.33 21.6191 30.3C22.3591 30.58 23.1591 30.74 23.9991 30.74C27.7191 30.74 30.7391 27.72 30.7391 24V10.53C30.7391 6.81004 27.7191 3.79004 23.9991 3.79004Z" fill="#8DE2E0"/>
<path d="M24.0017 31.74C28.2717 31.74 31.7417 28.27 31.7417 24V10.53C31.7417 6.26004 28.2717 2.79004 24.0017 2.79004C19.7317 2.79004 16.2617 6.26004 16.2617 10.53V24C16.2617 28.27 19.7317 31.74 24.0017 31.74ZM18.2617 10.53C18.2617 7.37004 20.8317 4.79004 24.0017 4.79004C27.1717 4.79004 29.7417 7.36004 29.7417 10.53V24C29.7417 27.16 27.1717 29.74 24.0017 29.74C20.8317 29.74 18.2617 27.17 18.2617 24V10.53Z" fill="#323232"/>
<path d="M36.1209 16.2598C35.5709 16.2598 35.1209 16.7098 35.1209 17.2598V18.9498H33.3309C32.7809 18.9498 32.3309 19.3998 32.3309 19.9498C32.3309 20.4998 32.7809 20.9498 33.3309 20.9498H35.1209V23.9898C35.1209 30.1198 30.1309 35.1098 24.0009 35.1098C17.8709 35.1098 12.8809 30.1198 12.8809 23.9898V20.9498H14.6609C15.2109 20.9498 15.6609 20.4998 15.6609 19.9498C15.6609 19.3998 15.2109 18.9498 14.6609 18.9498H12.8809V17.2598C12.8809 16.7098 12.4309 16.2598 11.8809 16.2598C11.3309 16.2598 10.8809 16.7098 10.8809 17.2598V23.9998C10.8809 30.8998 16.2309 36.5598 23.0009 37.0698V43.1998H17.2609C16.7109 43.1998 16.2609 43.6498 16.2609 44.1998C16.2609 44.7498 16.7109 45.1998 17.2609 45.1998H30.7309C31.2809 45.1998 31.7309 44.7498 31.7309 44.1998C31.7309 43.6498 31.2809 43.1998 30.7309 43.1998H24.9909V37.0698C31.7609 36.5598 37.1109 30.8998 37.1109 23.9998V17.2598C37.1109 16.7098 36.6609 16.2598 36.1109 16.2598H36.1209Z" fill="#323232"/>
</svg>
