<svg width="24" height="24" viewBox="0 0 24 24" fill="none" xmlns="http://www.w3.org/2000/svg">
<g clip-path="url(#clip0_17379_11984)">
<path d="M23.3181 15.9958H0.681885C2.26809 20.5032 6.46588 23.7776 11.4577 24.0001H12.5426C17.5341 23.7776 21.7319 20.5032 23.3184 15.9958H23.3181Z" fill="#009543"/>
<path d="M0.681894 15.9957H23.3181C23.7574 14.7474 23.9973 13.4049 23.9973 12.0064C23.9973 10.6079 23.7542 9.24684 23.3092 7.99146H0.690852C0.245831 9.24684 0.00268555 10.5983 0.00268555 12.0064C0.00268555 13.4145 0.242632 14.7474 0.681894 15.9957Z" fill="#ED4135"/>
<path d="M12 0C6.78134 0 2.34137 3.33522 0.690857 7.99146H23.3092C21.6587 3.33522 17.2187 0 12 0Z" fill="#0035AD"/>
<path d="M9.20061 19.9978C13.6179 19.9978 17.1988 16.4142 17.1988 11.9935C17.1988 7.57289 13.6179 3.98926 9.20061 3.98926C4.78332 3.98926 1.20239 7.57289 1.20239 11.9935C1.20239 16.4142 4.78332 19.9978 9.20061 19.9978Z" fill="#FAE600"/>
<path d="M10.5571 17.6913C10.3079 17.4826 9.85008 17.368 9.36315 17.3417V16.9642C9.7797 16.8528 10.0951 16.3226 10.0951 15.6842C10.0951 15.0458 9.77938 14.5155 9.36315 14.4041V14.286C9.7685 14.3475 10.1739 14.634 10.3578 15.0887C10.7574 16.077 11.0988 16.4984 11.0988 16.4984C11.0988 16.4984 10.8867 15.6051 10.7795 14.4557C10.7302 13.9268 10.2842 13.556 9.36315 13.5173V13.3508H10.5562V13.0252H9.36315V12.8625C9.88495 12.8126 10.2852 12.5282 10.2852 12.1841C10.2852 11.8399 9.88495 11.5552 9.36315 11.5056V11.343H10.5562V11.0174H9.36315V10.8534C9.98861 10.8435 10.7808 10.7475 10.8275 9.85034C10.8591 9.23881 11.0716 8.62921 11.0716 8.62921C11.0716 8.62921 10.6205 9.1719 10.448 9.52473C10.1383 10.158 9.77586 10.2867 9.36347 10.3079V10.0812C9.88527 10.0024 10.2855 9.55322 10.2855 9.00925C10.2855 8.46528 9.88527 8.01608 9.36347 7.93732V6.79399C9.68084 6.53049 10.0398 6.12451 10.3988 5.47809C10.5965 5.12174 10.5021 4.96518 10.5024 4.96582V4.96518C10.5024 4.96518 10.5127 4.98855 10.3658 5.11566C10.0446 5.39388 9.693 5.57606 9.36347 5.72654V4.01587H9.0381V5.87158C8.54797 6.08897 8.15862 6.28332 8.08088 6.71523C8.07064 6.77286 8.0572 7.36934 8.04313 7.51502C8.04313 7.51502 8.12695 7.52622 8.3253 7.36454C8.41232 7.29346 8.67914 7.24799 9.0381 7.02772V7.93732C8.51662 8.01608 8.11607 8.46528 8.11607 9.00925C8.11607 9.55322 8.5163 10.0024 9.0381 10.0812V10.3079C8.62572 10.2867 8.26292 10.1583 7.95355 9.52473C7.7811 9.1719 7.33 8.62921 7.33 8.62921C7.33 8.62921 7.54244 9.23881 7.57411 9.85034C7.62082 10.7471 8.41296 10.8435 9.03842 10.8534V11.0174H7.84541V11.343H9.03842V11.5056C8.51694 11.5556 8.11639 11.8399 8.11639 12.1841C8.11639 12.5282 8.51662 12.8129 9.03842 12.8625V13.0252H7.84541V13.3508H9.03842V13.5173C8.11735 13.556 7.67169 13.9268 7.62242 14.4557C7.51524 15.6051 7.30313 16.4984 7.30313 16.4984C7.30313 16.4984 7.64449 16.077 8.04409 15.0887C8.22772 14.634 8.63339 14.3475 9.03874 14.286V14.4041C8.6222 14.5155 8.30675 15.0458 8.30675 15.6842C8.30675 16.3226 8.62252 16.8528 9.03874 16.9642V17.3372C8.5003 17.3516 7.9753 17.4714 7.7008 17.6913C7.29033 18.0201 6.23905 19.0882 6.01862 19.3268C7.02031 19.7651 8.10135 19.9934 9.19455 19.9975C9.19999 19.9975 9.20511 19.9975 9.21055 19.9975C10.2494 19.9911 11.277 19.782 12.2361 19.3821C12.0582 19.1878 11.0962 18.1421 10.5578 17.6913H10.5571Z" fill="black"/>
</g>
<rect x="0.25" y="0.25" width="23.5" height="23.5" rx="11.75" stroke="#E5E3E1" stroke-width="0.5"/>
<defs>
<clipPath id="clip0_17379_11984">
<rect width="24" height="24" rx="12" fill="white"/>
</clipPath>
</defs>
</svg>
