<svg width="48" height="48" viewBox="0 0 48 48" fill="none" xmlns="http://www.w3.org/2000/svg">
<path fill-rule="evenodd" clip-rule="evenodd" d="M27.2592 5.78936C26.3708 3.75594 25.276 1.81628 23.9915 0C22.7146 1.82098 21.6202 3.75987 20.7238 5.78936C21.9924 7.11362 23.09 8.58744 23.9915 10.1773C24.8844 8.58208 25.9828 7.10724 27.2592 5.78936Z" fill="#009900"/>
<path fill-rule="evenodd" clip-rule="evenodd" d="M20.7407 42.2106C21.6291 44.2441 22.7239 46.1837 24.0084 48C24.5841 47.1324 26.0741 44.9969 27.2762 42.2106C26.0127 40.8821 24.9157 39.4089 24.0084 37.8228C23.1012 39.4089 22.0042 40.8821 20.7407 42.2106Z" fill="#009900"/>
<path fill-rule="evenodd" clip-rule="evenodd" d="M20.7408 5.78959C19.191 4.18328 17.4903 2.72525 15.6614 1.43506C15.0922 3.5754 14.7406 5.76624 14.6117 7.9752C16.2619 8.79118 17.8031 9.80551 19.2001 10.995C19.4887 9.20277 20.0064 7.45374 20.7408 5.78959Z" fill="#009900"/>
<path fill-rule="evenodd" clip-rule="evenodd" d="M27.2593 42.2103C28.8051 43.8207 30.5062 45.2791 32.3386 46.5648C32.9063 44.4242 33.2579 42.2335 33.3884 40.0247C31.7418 39.2026 30.2013 38.1888 28.8 37.0049C28.501 38.7948 27.9837 40.5426 27.2593 42.2103Z" fill="#009900"/>
<path fill-rule="evenodd" clip-rule="evenodd" d="M14.6116 7.97509C12.6032 6.98082 10.4989 6.18716 8.33008 5.60596C8.54178 7.81116 8.97278 9.99055 9.61685 12.1127C11.4475 12.3203 13.2448 12.7518 14.9671 13.3974C14.6262 11.6108 14.5068 9.79005 14.6116 7.97509Z" fill="#009900"/>
<path fill-rule="evenodd" clip-rule="evenodd" d="M33.3715 40.0249C35.3799 41.0192 37.4842 41.8129 39.653 42.3941C39.4413 40.1889 39.0103 38.0095 38.3663 35.8873C36.535 35.6737 34.7378 35.2365 33.016 34.5859C33.3732 36.3761 33.4928 38.2044 33.3715 40.0249Z" fill="#009900"/>
<path fill-rule="evenodd" clip-rule="evenodd" d="M11.8349 17.0843C10.8925 15.5224 10.1476 13.8527 9.61696 12.1125C7.38581 11.8548 5.13424 11.8157 2.89526 11.9957C3.86324 13.9892 5.01968 15.8885 6.34923 17.6682C8.14566 17.2474 9.98875 17.0512 11.8349 17.0843Z" fill="#009900"/>
<path fill-rule="evenodd" clip-rule="evenodd" d="M36.1482 30.9156C37.0976 32.4739 37.8429 34.1445 38.3662 35.8874C40.5973 36.145 42.8489 36.1841 45.0879 36.0042C44.1162 34.0038 42.9541 32.0988 41.617 30.3149C39.8274 30.7435 37.9896 30.9453 36.1482 30.9156Z" fill="#009900"/>
<path fill-rule="evenodd" clip-rule="evenodd" d="M6.34921 17.6685C4.16829 18.1857 2.04229 18.9064 0 19.8207C1.60302 21.3744 3.35513 22.7712 5.23175 23.9917C6.77126 22.9903 8.4322 22.1831 10.1757 21.5892C8.74373 20.4398 7.45883 19.1233 6.34921 17.6685Z" fill="#009900"/>
<path fill-rule="evenodd" clip-rule="evenodd" d="M42.7683 23.9917C41.2287 24.9931 39.5678 25.8003 37.8243 26.3942C39.2553 27.5393 40.5351 28.8565 41.6339 30.315C43.8165 29.8036 45.9431 29.0827 47.9831 28.1627C46.391 26.6037 44.6439 25.2064 42.7683 23.9917Z" fill="#009900"/>
<path fill-rule="evenodd" clip-rule="evenodd" d="M10.1757 26.3942C8.4322 25.8003 6.77126 24.9931 5.23175 23.9917C3.35513 25.2122 1.60302 26.609 0 28.1627C2.03919 29.0847 4.16595 29.8056 6.34921 30.315C7.46329 28.8639 8.7477 27.5478 10.1757 26.3942Z" fill="#009900"/>
<path fill-rule="evenodd" clip-rule="evenodd" d="M37.8243 21.5892C39.5663 22.1866 41.2269 22.9935 42.7683 23.9917C44.6449 22.7712 46.397 21.3744 48 19.8207C45.9608 18.8987 43.8341 18.1778 41.6508 17.6685C40.5412 19.1233 39.2563 20.4398 37.8243 21.5892Z" fill="#009900"/>
<path fill-rule="evenodd" clip-rule="evenodd" d="M6.34923 30.3315C5.00554 32.1079 3.84828 34.0141 2.89526 36.0208C5.13452 36.1919 7.38522 36.1528 9.61696 35.904C10.1476 34.1637 10.8925 32.494 11.8349 30.9322C9.98887 30.9434 8.14779 30.7418 6.34923 30.3315Z" fill="#009900"/>
<path fill-rule="evenodd" clip-rule="evenodd" d="M41.6338 17.6683C42.9745 15.8868 44.1369 13.9814 45.1047 11.979C42.8655 11.8079 40.6148 11.847 38.383 12.0958C37.8524 13.8361 37.1075 15.5058 36.165 17.0676C38.006 17.0481 39.8424 17.2498 41.6338 17.6683Z" fill="#009900"/>
<path fill-rule="evenodd" clip-rule="evenodd" d="M14.9671 34.5859C13.2429 35.2288 11.4466 35.6657 9.61685 35.8873C8.97278 38.0095 8.54178 40.1889 8.33008 42.3941C10.4989 41.8129 12.6032 41.0192 14.6116 40.0249C14.5073 38.2044 14.6267 36.3782 14.9671 34.5859Z" fill="#009900"/>
<path fill-rule="evenodd" clip-rule="evenodd" d="M33.016 13.3974C34.7383 12.7518 36.5356 12.3203 38.3663 12.1127C39.0103 9.99055 39.4413 7.81116 39.653 5.60596C37.4842 6.18716 35.3799 6.98082 33.3715 7.97509C33.4927 9.79007 33.3732 11.6129 33.016 13.3974Z" fill="#009900"/>
<path fill-rule="evenodd" clip-rule="evenodd" d="M14.6117 40.0248C14.7406 42.2337 15.0922 44.4246 15.6614 46.5649C17.4945 45.28 19.1958 43.8216 20.7408 42.2104C20.0064 40.5404 19.4888 38.7859 19.2001 36.9883C17.8033 38.1828 16.2622 39.2026 14.6117 40.0248Z" fill="#009900"/>
<path fill-rule="evenodd" clip-rule="evenodd" d="M33.3714 7.9752C33.2425 5.76624 32.8909 3.5754 32.3217 1.43506C30.4886 2.71994 28.7873 4.1784 27.2423 5.78959C27.9667 7.45726 28.4841 9.20506 28.7831 10.995C30.1872 9.8148 31.7272 8.80125 33.3714 7.9752Z" fill="#009900"/>
<path fill-rule="evenodd" clip-rule="evenodd" d="M22.3154 14.665C22.628 13.0854 23.1938 11.5648 23.9916 10.1604C23.0901 8.57055 21.9925 7.09672 20.7238 5.77246C19.9917 7.43741 19.4741 9.18616 19.1831 10.9779C20.417 12.0375 21.474 13.2817 22.3154 14.665Z" fill="#99CC00"/>
<path fill-rule="evenodd" clip-rule="evenodd" d="M25.6678 33.3345C25.3523 34.9134 24.7867 36.4335 23.9916 37.8392C24.8873 39.4326 25.9854 40.9071 27.2593 42.2271C27.986 40.5544 28.5034 38.8008 28.8 37.005C27.5627 35.9552 26.505 34.7158 25.6678 33.3345Z" fill="#99CC00"/>
<path fill-rule="evenodd" clip-rule="evenodd" d="M14.9671 13.3974C16.4907 13.9698 17.9134 14.7749 19.183 15.7832C18.929 14.1969 18.929 12.5812 19.183 10.9949C17.7845 9.80733 16.2436 8.79316 14.5946 7.9751C14.5043 9.79066 14.6293 11.6104 14.9671 13.3974Z" fill="#99CC00"/>
<path fill-rule="evenodd" clip-rule="evenodd" d="M33.0159 34.586C31.4923 34.0136 30.0696 33.2085 28.8 32.2002C29.057 33.7867 29.0513 35.4038 28.7831 36.9885C30.1816 38.1761 31.7225 39.1903 33.3714 40.0083C33.4921 38.1933 33.3726 36.3706 33.0159 34.586Z" fill="#99CC00"/>
<path fill-rule="evenodd" clip-rule="evenodd" d="M16.6265 17.9022C15.8361 16.4961 15.2761 14.9758 14.9672 13.3975C13.2449 12.7519 11.4476 12.3203 9.61694 12.1128C10.1476 13.8531 10.8925 15.5227 11.8349 17.0846C13.4662 17.1029 15.0839 17.3789 16.6265 17.9022Z" fill="#99CC00"/>
<path fill-rule="evenodd" clip-rule="evenodd" d="M31.3567 30.0981C32.147 31.5042 32.707 33.0245 33.0159 34.6028C34.7402 35.2457 36.5364 35.6826 38.3662 35.9042C37.8355 34.1639 37.0907 32.4942 36.1482 30.9323C34.518 30.889 32.9033 30.6079 31.3567 30.0981Z" fill="#99CC00"/>
<path fill-rule="evenodd" clip-rule="evenodd" d="M10.1756 21.5888C11.7182 21.0636 13.3353 20.782 14.9672 20.7546C13.7343 19.705 12.6822 18.4654 11.8518 17.0841C10.006 17.0593 8.16394 17.2554 6.36609 17.6681C7.46486 19.1266 8.74466 20.4437 10.1756 21.5888Z" fill="#99CC00"/>
<path fill-rule="evenodd" clip-rule="evenodd" d="M37.8244 26.394C36.2818 26.9193 34.6647 27.2008 33.0328 27.2282C34.2657 28.2779 35.3177 29.5175 36.1482 30.8987C37.9952 30.9275 39.8384 30.7257 41.6339 30.2981C40.5257 28.8525 39.2469 27.5419 37.8244 26.394Z" fill="#99CC00"/>
<path fill-rule="evenodd" clip-rule="evenodd" d="M14.3747 23.9919C12.8532 23.4184 11.4353 22.6072 10.1757 21.5894C8.43227 22.1833 6.77133 22.9904 5.23181 23.9919C6.77133 24.9933 8.43227 25.8004 10.1757 26.3944C11.4395 25.3824 12.8563 24.5718 14.3747 23.9919Z" fill="#99CC00"/>
<path fill-rule="evenodd" clip-rule="evenodd" d="M33.6085 23.9919C35.1334 24.5689 36.5563 25.3798 37.8244 26.3944C39.5664 25.797 41.2269 24.9901 42.7683 23.9919C41.2288 22.9904 39.5679 22.1833 37.8244 21.5894C36.5628 22.6133 35.1384 23.4251 33.6085 23.9919Z" fill="#99CC00"/>
<path fill-rule="evenodd" clip-rule="evenodd" d="M11.8348 30.9153C12.6706 29.5378 13.722 28.299 14.9502 27.2448C13.3184 27.2174 11.7012 26.9359 10.1586 26.4106C8.72769 27.5557 7.4479 28.8729 6.34912 30.3314C8.14697 30.7441 9.98902 30.9402 11.8348 30.9153Z" fill="#99CC00"/>
<path fill-rule="evenodd" clip-rule="evenodd" d="M36.1482 17.0843C35.3124 18.4619 34.261 19.7007 33.0328 20.7548C34.6647 20.7822 36.2818 21.0638 37.8244 21.589C39.2553 20.4439 40.5351 19.1268 41.6339 17.6683C39.8376 17.2465 37.9944 17.0503 36.1482 17.0843Z" fill="#99CC00"/>
<path fill-rule="evenodd" clip-rule="evenodd" d="M16.6265 30.0981C15.0839 30.6214 13.4662 30.8974 11.8349 30.9157C10.8925 32.4775 10.1476 34.1472 9.61694 35.8875C11.4482 35.6739 13.2454 35.2367 14.9672 34.5861C15.279 33.0139 15.8389 31.4996 16.6265 30.0981Z" fill="#99CC00"/>
<path fill-rule="evenodd" clip-rule="evenodd" d="M31.3567 17.9022C32.8992 17.3789 34.517 17.1029 36.1482 17.0846C37.0976 15.5263 37.8429 13.8557 38.3662 12.1128C36.5356 12.3203 34.7383 12.7519 33.0159 13.3975C32.7148 14.9778 32.1543 16.4993 31.3567 17.9022Z" fill="#99CC00"/>
<path fill-rule="evenodd" clip-rule="evenodd" d="M22.3154 33.3345C21.4781 34.7158 20.4205 35.9552 19.1831 37.005C19.4742 38.8021 19.9917 40.5563 20.7238 42.2271C21.9925 40.9028 23.0901 39.429 23.9916 37.8392C23.2037 36.4303 22.6385 34.9113 22.3154 33.3345Z" fill="#99CC00"/>
<path fill-rule="evenodd" clip-rule="evenodd" d="M19.1832 32.2168C17.916 33.2286 16.4928 34.034 14.9673 34.6026C14.6185 36.3882 14.499 38.2099 14.6118 40.0249C16.2583 39.2029 17.7988 38.189 19.2001 37.0051C18.9319 35.4204 18.9262 33.8033 19.1832 32.2168Z" fill="#99CC00"/>
<path fill-rule="evenodd" clip-rule="evenodd" d="M25.6678 14.6655C26.5102 13.2878 27.5672 12.0492 28.8 10.995C28.5114 9.20273 27.9937 7.4537 27.2593 5.78955C25.9959 7.11812 24.8988 8.59129 23.9916 10.1775C24.7919 11.5747 25.358 13.0903 25.6678 14.6655Z" fill="#99CC00"/>
<path fill-rule="evenodd" clip-rule="evenodd" d="M28.8 15.7832C30.0648 14.768 31.4887 13.9623 33.0159 13.3974C33.3647 11.6118 33.4842 9.79007 33.3714 7.9751C31.7249 8.79716 30.1844 9.81101 28.7831 10.9949C29.0513 12.5796 29.057 14.1967 28.8 15.7832Z" fill="#99CC00"/>
<path fill-rule="evenodd" clip-rule="evenodd" d="M22.3323 19.5035C21.5346 18.0804 20.4652 16.8228 19.1831 15.7996C19.4549 17.4008 20.023 18.939 20.8593 20.3377C19.6138 19.2782 18.1782 18.4577 16.6265 17.9185C17.4345 19.3346 18.5024 20.5905 19.7757 21.6224C18.2362 21.0411 16.5989 20.7524 14.9503 20.7715C16.2003 21.8294 17.6423 22.6445 19.2 23.174C17.5525 23.1485 15.915 23.4316 14.3746 24.0082C15.918 24.5739 17.5534 24.8566 19.2 24.8424C17.6423 25.3718 16.2003 26.187 14.9503 27.2449C16.5989 27.264 18.2362 26.9753 19.7757 26.394C18.4986 27.4221 17.4301 28.6788 16.6265 30.0978C18.1769 29.5558 19.612 28.7356 20.8593 27.6787C20.0158 29.0739 19.4471 30.6136 19.1831 32.2167C20.4529 31.1813 21.5202 29.9261 22.3323 28.5129C22.0273 30.1116 22.0273 31.7524 22.3323 33.3512C23.1706 31.9535 23.7389 30.4149 24.0085 28.8132C24.2753 30.4156 24.8438 31.9547 25.6847 33.3512C25.9897 31.7524 25.9897 30.1116 25.6847 28.5129C26.4923 29.9292 27.5602 31.1852 28.8339 32.2167C28.5636 30.6127 27.9893 29.0732 27.1408 27.6787C28.3923 28.7386 29.8335 29.559 31.3905 30.0978C30.5869 28.6788 29.5184 27.4221 28.2413 26.394C29.7808 26.9753 31.4181 27.264 33.0667 27.2449C31.8133 26.1876 30.3726 25.3674 28.817 24.8257C30.4645 24.8511 32.102 24.568 33.6424 23.9915C32.0994 23.4243 30.4637 23.1416 28.817 23.1573C30.3747 22.6279 31.8167 21.8127 33.0667 20.7548C31.4181 20.7357 29.7808 21.0244 28.2413 21.6057C29.5234 20.578 30.5975 19.3214 31.4074 17.9018C29.8504 18.4406 28.4092 19.2611 27.1577 20.321C28.0062 18.9265 28.5806 17.387 28.8508 15.783C27.581 16.8183 26.5137 18.0735 25.7016 19.4868C26.0066 17.888 26.0066 16.2472 25.7016 14.6484C24.8607 16.0449 24.2922 17.5841 24.0254 19.1865C23.7587 17.5841 23.1902 16.0449 22.3492 14.6484C22.0299 16.251 22.0241 17.8988 22.3323 19.5035Z" fill="white"/>
<path fill-rule="evenodd" clip-rule="evenodd" d="M22.3323 19.5035C22.0273 17.9047 22.0273 16.2639 22.3323 14.6651C21.4951 13.2838 20.4374 12.0444 19.2 10.9946C18.9376 12.5803 18.9376 14.1973 19.2 15.7829C20.4641 16.826 21.5254 18.0866 22.3323 19.5035Z" fill="#FFE600"/>
<path fill-rule="evenodd" clip-rule="evenodd" d="M25.6509 28.4961C25.9559 30.0949 25.9559 31.7357 25.6509 33.3345C26.4934 34.7121 27.5503 35.9507 28.7832 37.0049C29.043 35.4195 29.0487 33.8038 28.8001 32.2166C27.5261 31.1789 26.4583 29.9174 25.6509 28.4961Z" fill="#FFE600"/>
<path fill-rule="evenodd" clip-rule="evenodd" d="M19.1832 15.7833C17.916 14.7715 16.4927 13.9661 14.9673 13.3975C15.2685 14.9778 15.8289 16.4993 16.6265 17.9021C18.18 18.4375 19.6163 19.2584 20.8594 20.3213C20.0205 18.9239 19.4522 17.3851 19.1832 15.7833Z" fill="#FFE600"/>
<path fill-rule="evenodd" clip-rule="evenodd" d="M28.8001 32.2168C30.0648 33.2319 31.4887 34.0377 33.0159 34.6026C32.7147 33.0222 32.1543 31.5007 31.3567 30.0979C29.8028 29.5525 28.3627 28.7327 27.1069 27.6787C27.9653 29.0685 28.5404 30.61 28.8001 32.2168Z" fill="#FFE600"/>
<path fill-rule="evenodd" clip-rule="evenodd" d="M19.7926 21.6058C18.5154 20.5777 17.4469 19.3211 16.6433 17.902C15.1008 17.3787 13.4831 17.1027 11.8518 17.0845C12.6876 18.462 13.739 19.7008 14.9672 20.755C16.6156 20.7373 18.2526 21.0259 19.7926 21.6058Z" fill="#FFE600"/>
<path fill-rule="evenodd" clip-rule="evenodd" d="M28.2074 26.394C29.4845 27.4222 30.553 28.6788 31.3566 30.0979C32.8991 30.6212 34.5169 30.8972 36.1481 30.9154C35.3124 29.5379 34.261 28.2991 33.0328 27.2449C31.3842 27.264 29.7469 26.9753 28.2074 26.394Z" fill="#FFE600"/>
<path fill-rule="evenodd" clip-rule="evenodd" d="M19.2 23.174C17.6422 22.6446 16.2003 21.8294 14.9502 20.7715C13.3184 20.7989 11.7013 21.0804 10.1587 21.6057C11.4207 22.6202 12.8379 23.4311 14.3576 24.0082C15.9029 23.428 17.5466 23.1448 19.2 23.174Z" fill="#FFE600"/>
<path fill-rule="evenodd" clip-rule="evenodd" d="M28.7831 24.8258C30.3387 25.3675 31.7794 26.1877 33.0328 27.245C34.6646 27.2176 36.2818 26.9361 37.8243 26.4108C36.5586 25.3928 35.1352 24.5816 33.6085 24.0083C32.067 24.5792 30.4296 24.8566 28.7831 24.8258Z" fill="#FFE600"/>
<path fill-rule="evenodd" clip-rule="evenodd" d="M14.3746 23.9917C12.8531 24.5651 11.4353 25.3763 10.1757 26.3942C11.7182 26.9195 13.3354 27.201 14.9672 27.2284C16.2172 26.1705 17.6592 25.3553 19.2169 24.8259C17.5633 24.858 15.919 24.5748 14.3746 23.9917Z" fill="#FFE600"/>
<path fill-rule="evenodd" clip-rule="evenodd" d="M33.6085 23.9916C35.1334 23.4145 36.5562 22.6037 37.8243 21.5891C36.2818 21.0638 34.6646 20.7823 33.0328 20.7549C31.7828 21.8128 30.3408 22.628 28.7831 23.1574C30.4299 23.1403 32.0658 23.4231 33.6085 23.9916Z" fill="#FFE600"/>
<path fill-rule="evenodd" clip-rule="evenodd" d="M19.7926 26.394C18.253 26.9753 16.6157 27.264 14.9672 27.2449C13.7343 28.2946 12.6822 29.5341 11.8518 30.9154C13.4823 30.889 15.0988 30.6133 16.6433 30.0979C17.4361 28.6715 18.5062 27.4129 19.7926 26.394Z" fill="#FFE600"/>
<path fill-rule="evenodd" clip-rule="evenodd" d="M28.2074 21.6058C29.7469 21.0246 31.3842 20.7359 33.0328 20.755C34.2656 19.7053 35.3177 18.4657 36.1481 17.0845C34.5176 17.1108 32.9012 17.3866 31.3566 17.902C30.553 19.3211 29.4845 20.5777 28.2074 21.6058Z" fill="#FFE600"/>
<path fill-rule="evenodd" clip-rule="evenodd" d="M22.3153 33.3344C22.6308 34.9134 23.1964 36.4335 23.9915 37.8391C24.782 36.4314 25.3474 34.912 25.6677 33.3344C24.8294 31.9367 24.2611 30.3981 23.9915 28.7964C23.7296 30.4001 23.1608 31.9401 22.3153 33.3344Z" fill="#FFE600"/>
<path fill-rule="evenodd" clip-rule="evenodd" d="M22.3323 28.4961C21.53 29.9161 20.4613 31.173 19.1831 32.1999C18.9291 33.7862 18.9291 35.402 19.1831 36.9883C20.4159 35.934 21.4729 34.6954 22.3153 33.3178C22.0247 31.7228 22.0304 30.0891 22.3323 28.4961Z" fill="#FFE600"/>
<path fill-rule="evenodd" clip-rule="evenodd" d="M16.6265 30.0979C15.8362 31.504 15.2762 33.0243 14.9673 34.6026C16.4909 34.0302 17.9136 33.2251 19.1832 32.2168C19.4549 30.6156 20.0231 29.0774 20.8594 27.6787C19.6121 28.7357 18.1769 29.5559 16.6265 30.0979Z" fill="#FFE600"/>
<path fill-rule="evenodd" clip-rule="evenodd" d="M25.6677 14.6653C25.3551 13.0856 24.7893 11.5651 23.9915 10.1606C23.1983 11.5671 22.6328 13.087 22.3153 14.6653C23.1562 16.0618 23.7247 17.601 23.9915 19.2034C24.2583 17.601 24.8268 16.0618 25.6677 14.6653Z" fill="#FFE600"/>
<path fill-rule="evenodd" clip-rule="evenodd" d="M25.6509 19.5034C26.454 18.084 27.5225 16.8272 28.8001 15.7995C29.0571 14.213 29.0514 12.5959 28.7832 11.0112C27.5503 12.0654 26.4934 13.3041 25.6509 14.6817C25.973 16.2733 25.973 17.9118 25.6509 19.5034Z" fill="#FFE600"/>
<path fill-rule="evenodd" clip-rule="evenodd" d="M31.3567 17.9021C32.147 16.4961 32.707 14.9758 33.0159 13.3975C31.4923 13.9698 30.0696 14.7749 28.8001 15.7833C28.5298 17.3873 27.9554 18.9268 27.1069 20.3213C28.3627 19.2673 29.8028 18.4476 31.3567 17.9021Z" fill="#FFE600"/>
</svg>
