<svg width="48" height="48" viewBox="0 0 48 48" fill="none" xmlns="http://www.w3.org/2000/svg">
<path d="M39.01 45.1604H8.99C7.2 45.1604 5.75 43.7104 5.75 41.9203V23.1004C5.75 21.3104 7.2 19.8604 8.99 19.8604H13.33C13.88 19.8604 14.33 20.3104 14.33 20.8604C14.33 21.4104 13.88 21.8604 13.33 21.8604H8.99C8.31 21.8604 7.75 22.4204 7.75 23.1004V41.9203C7.75 42.6003 8.31 43.1604 8.99 43.1604H39.01C39.69 43.1604 40.25 42.6003 40.25 41.9203V23.1004C40.25 22.4204 39.69 21.8604 39.01 21.8604H35.56C35.01 21.8604 34.56 21.4104 34.56 20.8604C34.56 20.3104 35.01 19.8604 35.56 19.8604H39.01C40.8 19.8604 42.25 21.3104 42.25 23.1004V41.9203C42.25 43.7104 40.8 45.1604 39.01 45.1604Z" fill="#323232"/>
<path d="M17.8708 39.6699H12.0508C11.5008 39.6699 11.0508 39.2199 11.0508 38.6699C11.0508 38.1199 11.5008 37.6699 12.0508 37.6699H17.8708C18.4208 37.6699 18.8708 38.1199 18.8708 38.6699C18.8708 39.2199 18.4208 39.6699 17.8708 39.6699Z" fill="#323232"/>
<path d="M13.8408 33.4004H12.0508C11.5008 33.4004 11.0508 32.9504 11.0508 32.4004C11.0508 31.8504 11.5008 31.4004 12.0508 31.4004H13.8408C14.3908 31.4004 14.8408 31.8504 14.8408 32.4004C14.8408 32.9504 14.3908 33.4004 13.8408 33.4004Z" fill="#323232"/>
<path d="M19.6591 33.4004H17.8691C17.3191 33.4004 16.8691 32.9504 16.8691 32.4004C16.8691 31.8504 17.3191 31.4004 17.8691 31.4004H19.6591C20.2091 31.4004 20.6591 31.8504 20.6591 32.4004C20.6591 32.9504 20.2091 33.4004 19.6591 33.4004Z" fill="#323232"/>
<path d="M25.4795 33.4004H23.6895C23.1395 33.4004 22.6895 32.9504 22.6895 32.4004C22.6895 31.8504 23.1395 31.4004 23.6895 31.4004H25.4795C26.0295 31.4004 26.4795 31.8504 26.4795 32.4004C26.4795 32.9504 26.0295 33.4004 25.4795 33.4004Z" fill="#323232"/>
<path d="M31.3095 33.4004H29.5195C28.9695 33.4004 28.5195 32.9504 28.5195 32.4004C28.5195 31.8504 28.9695 31.4004 29.5195 31.4004H31.3095C31.8595 31.4004 32.3095 31.8504 32.3095 32.4004C32.3095 32.9504 31.8595 33.4004 31.3095 33.4004Z" fill="#323232"/>
<path fill-rule="evenodd" clip-rule="evenodd" d="M36.1392 36.21C35.1392 36.21 34.2892 36.81 33.8992 37.66C33.5092 36.81 32.6592 36.21 31.6592 36.21C30.2992 36.21 29.1992 37.31 29.1992 38.67C29.1992 40.03 30.2992 41.13 31.6592 41.13C32.6592 41.13 33.5092 40.53 33.8992 39.68C34.2892 40.53 35.1392 41.13 36.1392 41.13C37.4992 41.13 38.5992 40.03 38.5992 38.67C38.5992 37.31 37.4992 36.21 36.1392 36.21Z" fill="#DF0000"/>
<path fill-rule="evenodd" clip-rule="evenodd" d="M24.4506 24.4498C30.1406 24.4498 34.7606 19.8398 34.7606 14.1398C34.7606 8.43984 30.1406 3.83984 24.4506 3.83984C18.7606 3.83984 14.1406 8.44984 14.1406 14.1398C14.1406 19.8298 18.7506 24.4498 24.4506 24.4498Z" fill="#DF0000"/>
<path fill-rule="evenodd" clip-rule="evenodd" d="M30.6899 20.7198C30.6899 20.7198 30.7099 20.7298 30.7199 20.7298C30.7399 20.7298 30.7499 20.7298 30.7799 20.7098C30.7999 20.6898 30.7999 20.6398 30.7799 20.6198C29.4399 19.1498 27.7999 17.9698 25.9699 17.2098L25.4099 16.9798C25.1199 16.8498 24.9299 16.5598 24.9299 16.2198C24.9599 14.9698 27.7999 15.2198 28.0899 14.6298L28.1299 14.5198C27.5499 13.9898 26.8599 13.6098 26.0999 13.3798C26.0899 13.4098 26.0699 13.5598 26.2199 13.8298C26.3899 14.1098 26.0399 14.5698 25.5199 14.0798L25.4799 14.0498C21.7299 10.4598 19.9999 12.8298 17.4499 8.65984C17.4299 8.62984 17.3899 8.60984 17.3599 8.63984C17.3299 8.65984 17.3199 8.69984 17.3299 8.72984C19.3399 13.7798 23.4499 12.7198 23.9399 17.4298C23.9599 17.6098 24.0899 17.7498 24.2499 17.7698C26.5299 18.1398 28.7599 19.1298 30.6899 20.7498H30.6999" fill="white"/>
</svg>
