<svg width="48" height="48" viewBox="0 0 48 48" fill="none" xmlns="http://www.w3.org/2000/svg">
<path d="M37.0599 0.740234H10.9199C10.3699 0.740234 9.91992 1.19023 9.91992 1.74023V32.4602C9.91992 36.3902 11.7899 39.8702 14.6799 42.1102C14.7199 42.1502 14.7599 42.1702 14.8099 42.2002C15.7899 42.9402 16.8699 43.5302 18.0499 43.9402V46.2402C18.0499 46.7902 18.4999 47.2402 19.0499 47.2402H28.9499C29.4999 47.2402 29.9499 46.7902 29.9499 46.2402V43.9402C31.1199 43.5202 32.2099 42.9302 33.1899 42.2002C33.2299 42.1702 33.2799 42.1402 33.3199 42.1002C36.2099 39.8702 38.0799 36.3802 38.0799 32.4502V1.74023C38.0799 1.19023 37.6299 0.740234 37.0799 0.740234H37.0599ZM31.5899 40.8902C29.9599 42.0002 27.9799 42.6502 25.8599 42.6502H22.1199C19.9999 42.6502 18.0299 42.0002 16.3899 40.8902V24.2802C16.3899 20.2802 19.6499 17.0202 23.6499 17.0202H24.3199C28.3199 17.0202 31.5799 20.2802 31.5799 24.2802V40.8902H31.5899ZM27.9399 45.2402H20.0399V44.4702C20.7199 44.5902 21.4099 44.6602 22.1199 44.6602H25.8599C26.5699 44.6602 27.2599 44.5902 27.9399 44.4702V45.2402ZM36.0599 32.4602C36.0599 35.0002 35.1199 37.3202 33.5799 39.1102V24.2902C33.5799 19.1802 29.4299 15.0302 24.3199 15.0302H23.6499C18.5399 15.0302 14.3899 19.1802 14.3899 24.2902V39.1102C12.8499 37.3202 11.9099 35.0002 11.9099 32.4602V2.74023H36.0499V32.4602H36.0599Z" fill="#323232"/>
<path d="M27.9702 29.7594C26.5402 29.6094 25.4102 30.9394 23.9702 30.9494C22.9502 30.9494 22.0502 30.2994 21.2402 29.6694C20.8802 29.3994 20.5702 29.1094 20.1202 29.1394C19.9102 29.6294 19.7202 30.1094 19.5902 30.5694C19.4702 30.9294 19.3902 31.3094 19.3602 31.6894C19.3602 31.7994 19.3402 31.9194 19.3402 32.0294C19.3102 34.5794 21.3602 36.6594 23.9102 36.6894H23.9302C26.4802 36.6594 28.5202 34.5794 28.5002 32.0294C28.5002 31.9194 28.5002 31.7994 28.4802 31.6894C28.4502 31.3094 28.3702 30.9294 28.2502 30.5694C28.1802 30.2994 28.0802 30.0294 27.9802 29.7494L27.9702 29.7594Z" fill="#8DE2E0"/>
<path d="M23.9306 37.6895C22.3906 37.6695 20.9806 37.0795 19.9306 36.0095C18.8806 34.9395 18.3106 33.5195 18.3306 32.0295C18.3306 31.9495 18.3306 31.8595 18.3506 31.7695C18.3506 31.7395 18.3506 31.6395 18.3506 31.6195C18.3906 31.1595 18.4806 30.6995 18.6306 30.2595C18.7506 29.8295 18.9406 29.3195 19.1906 28.7495C20.5306 25.6895 23.0306 22.5095 23.1306 22.3795C23.5106 21.8995 24.3206 21.8995 24.7006 22.3795C24.8206 22.5295 27.6806 26.1695 28.9006 29.4195C29.0106 29.7195 29.1206 30.0195 29.2006 30.3195C29.3306 30.6995 29.4206 31.1395 29.4606 31.5795C29.4806 31.7395 29.4906 31.8895 29.4906 32.0495C29.5206 35.1295 27.0306 37.6795 23.9306 37.7095V37.6895ZM23.9206 24.6695C23.1006 25.8195 21.8206 27.7295 21.0306 29.5395C20.8206 30.0295 20.6606 30.4595 20.5506 30.8495C20.4406 31.1795 20.3806 31.4795 20.3606 31.7695C20.3606 31.7795 20.3606 31.8695 20.3506 31.9595C20.3306 33.0095 20.7006 33.9195 21.3806 34.6095C22.0606 35.2995 22.9606 35.6795 23.9206 35.6895C25.9206 35.6695 27.5206 34.0295 27.5006 32.0395C27.5006 31.9795 27.5006 31.9295 27.5006 31.8795C27.5006 31.8495 27.4906 31.7895 27.4806 31.7695C27.4606 31.4695 27.4006 31.1795 27.3006 30.8895C27.2206 30.5995 27.1306 30.3595 27.0406 30.1095C26.3106 28.1495 24.8406 25.9395 23.9306 24.6695H23.9206Z" fill="#323232"/>
<path d="M22.2098 13.0305V10.6605H19.8398V7.10047H22.2098V4.73047H25.7698V7.10047H28.1398V10.6605H25.7698V13.0305H22.2098Z" fill="#DF0000"/>
</svg>
