<svg width="48" height="48" viewBox="0 0 48 48" fill="none" xmlns="http://www.w3.org/2000/svg">
<path d="M24.5605 44.1599C24.0105 44.1599 23.5605 43.7099 23.5605 43.1599V39.3999C23.5605 38.8499 24.0105 38.3999 24.5605 38.3999C25.1105 38.3999 25.5605 38.8499 25.5605 39.3999V43.1599C25.5605 43.7099 25.1105 44.1599 24.5605 44.1599Z" fill="#8DE2E0"/>
<path d="M27.3496 46.7499C26.7996 46.7499 26.3496 46.2999 26.3496 45.7499V39.3999C26.3496 38.8499 26.7996 38.3999 27.3496 38.3999C27.8996 38.3999 28.3496 38.8499 28.3496 39.3999V45.7499C28.3496 46.2999 27.8996 46.7499 27.3496 46.7499Z" fill="#8DE2E0"/>
<path d="M30.2793 43.3799C29.7293 43.3799 29.2793 42.9299 29.2793 42.3799V39.3999C29.2793 38.8499 29.7293 38.3999 30.2793 38.3999C30.8293 38.3999 31.2793 38.8499 31.2793 39.3999V42.3799C31.2793 42.9299 30.8293 43.3799 30.2793 43.3799Z" fill="#8DE2E0"/>
<path d="M30.2791 46.53C30.0191 46.53 29.7591 46.42 29.5791 46.24C29.3891 46.05 29.2891 45.8 29.2891 45.53C29.2891 45.26 29.3891 45.01 29.5791 44.83C29.8491 44.55 30.2991 44.46 30.6691 44.61C30.7891 44.66 30.8991 44.73 30.9891 44.83C31.1791 45.01 31.2791 45.27 31.2791 45.53C31.2791 45.79 31.1791 46.05 30.9891 46.24C30.8091 46.42 30.5491 46.53 30.2791 46.53Z" fill="#8DE2E0"/>
<path d="M22.5408 7.78977H25.3808C25.9308 7.78977 26.3808 7.33977 26.3808 6.78977C26.3808 6.23977 25.9308 5.78977 25.3808 5.78977H23.5408V4.19977C23.5408 3.67977 23.9608 3.25977 24.4808 3.25977H27.7208C32.4808 3.25977 34.8008 3.70977 36.9208 5.04977L42.1108 8.27977C42.2808 8.37977 42.4608 8.42977 42.6408 8.42977C42.9708 8.42977 43.3008 8.25977 43.4908 7.95977C43.7808 7.48977 43.6408 6.86977 43.1708 6.57977L37.9908 3.34977C35.5208 1.78977 32.9308 1.25977 27.7308 1.25977H24.4908C22.8708 1.25977 21.5508 2.57977 21.5508 4.19977V6.78977C21.5508 7.33977 22.0008 7.78977 22.5508 7.78977H22.5408Z" fill="#323232"/>
<path d="M23.6699 8.37979C23.1199 8.37979 22.6699 8.82979 22.6699 9.37979C22.6699 9.92979 23.1199 10.3798 23.6699 10.3798H30.9599C31.5099 10.3798 31.9599 9.92979 31.9599 9.37979V7.80978C32.6099 7.86978 33.1199 8.07978 33.8399 8.47978L42.1099 13.4698C42.2699 13.5698 42.4499 13.6098 42.6299 13.6098C42.9699 13.6098 43.2999 13.4398 43.4899 13.1298C43.7799 12.6598 43.6199 12.0398 43.1499 11.7598L34.8499 6.74978C33.8999 6.21978 33.0099 5.77979 31.6099 5.77979H29.6599C29.1099 5.77979 28.6599 6.22979 28.6599 6.77979C28.6599 7.32979 29.1099 7.77979 29.6599 7.77979H29.9599V8.36978H23.6699V8.37979Z" fill="#323232"/>
<path d="M43.8498 24.6497C43.0798 23.2897 41.3398 22.7997 39.9898 23.5597L32.9998 27.3197C32.3998 26.4897 31.3898 25.9797 30.4398 25.9797H28.1098C24.4598 25.9797 23.0398 25.6597 21.7998 25.3797C20.8598 25.1697 19.9698 24.9697 18.3998 24.9697C14.6298 24.9697 11.0998 28.2997 9.23984 30.4197L9.00984 30.1897C8.61984 29.7997 7.98984 29.7997 7.59984 30.1897L4.06984 33.7197C3.67984 34.1097 3.67984 34.7397 4.06984 35.1297L12.5198 43.5797C12.7098 43.7697 12.9598 43.8697 13.2298 43.8697C13.4998 43.8697 13.7498 43.7597 13.9398 43.5797L17.4698 40.0497C17.8598 39.6597 17.8598 39.0297 17.4698 38.6397L17.0798 38.2497C18.2698 37.1597 19.9598 36.1097 22.0998 36.1097L29.4098 36.0797C30.4298 36.0797 31.3898 35.8697 32.2798 35.4797C36.0498 33.8097 42.8398 28.5597 43.1198 28.3297C44.2298 27.4697 44.5498 25.8897 43.8498 24.6597V24.6497ZM13.2198 41.4497L6.18984 34.4197L8.30984 32.2997L15.3398 39.3297L13.2198 41.4497ZM41.8898 26.7397C39.5298 28.5697 34.3098 32.3797 31.4598 33.6397C30.8298 33.9197 30.1298 34.0597 29.3898 34.0697L22.0798 34.0997C19.1898 34.0997 16.9898 35.5797 15.6498 36.8197L10.6498 31.8197C12.1398 30.1197 15.3198 26.9597 18.3898 26.9597C19.7298 26.9597 20.4498 27.1197 21.3498 27.3197C22.6298 27.6097 24.2298 27.9697 28.0998 27.9697H30.4298C30.9198 27.9697 31.5098 28.3997 31.5098 28.8897C31.5098 29.3797 30.9098 29.8097 30.3898 29.8097L25.1798 29.9697C24.6298 29.9897 24.1898 30.4497 24.2098 30.9997C24.2298 31.5497 24.7198 32.0097 25.2398 31.9697L30.4198 31.8097C31.7498 31.8097 33.2098 30.8097 33.4498 29.3197L40.9198 25.2997C41.3298 25.0697 41.8598 25.2197 42.0898 25.6297C42.2998 26.0097 42.2098 26.4697 41.8698 26.7297L41.8898 26.7397Z" fill="#323232"/>
<path d="M28.1199 24.4301H30.4499C30.6499 24.4301 30.8499 24.4501 31.0399 24.4801V12.1401H27.6499V14.9201C27.6499 15.3601 27.2899 15.7201 26.8499 15.7201C26.4099 15.7201 26.0499 15.3601 26.0499 14.9201V12.1401H23.6699V24.1701C24.6499 24.3201 25.9699 24.4301 28.1199 24.4301ZM26.0499 17.4501C26.0499 17.0101 26.4099 16.6501 26.8499 16.6501C27.2899 16.6501 27.6499 17.0101 27.6499 17.4501V18.7301C27.6499 19.1701 27.2899 19.5301 26.8499 19.5301C26.4099 19.5301 26.0499 19.1701 26.0499 18.7301V17.4501Z" fill="#8DE2E0"/>
</svg>
