<svg width="48" height="48" viewBox="0 0 48 48" fill="none" xmlns="http://www.w3.org/2000/svg">
<path d="M28.23 30.4297C27.55 31.0197 26.27 31.7197 24 31.7197C21.6 31.7197 20.32 30.9097 19.77 30.4297C19.56 30.2397 19.23 30.2597 19.04 30.4797C18.85 30.6997 18.87 31.0297 19.09 31.2197C19.89 31.9297 21.4 32.7697 24 32.7697C26.6 32.7697 28.1 31.9297 28.91 31.2297C29.13 31.0397 29.15 30.7097 28.96 30.4897C28.78 30.2697 28.44 30.2497 28.23 30.4397V30.4297Z" fill="#323232"/>
<path d="M21.3702 25.9097C21.3702 24.6797 20.3702 23.6797 19.1402 23.6797C17.9102 23.6797 16.9102 24.6797 16.9102 25.9097C16.9102 27.1397 17.9102 28.1397 19.1402 28.1397C20.3702 28.1397 21.3702 27.1397 21.3702 25.9097Z" fill="#323232"/>
<path d="M28.8609 23.6797C27.6309 23.6797 26.6309 24.6797 26.6309 25.9097C26.6309 27.1397 27.6309 28.1397 28.8609 28.1397C30.0909 28.1397 31.0909 27.1397 31.0909 25.9097C31.0909 24.6797 30.0909 23.6797 28.8609 23.6797Z" fill="#323232"/>
<path d="M24 2C11.85 2 2 11.85 2 24C2 36.15 11.85 46 24 46C36.15 46 46 36.15 46 24C46 11.85 36.15 2 24 2ZM35.63 25.59C35.75 26.07 35.81 26.57 35.81 27.07C35.81 31.81 30.53 35.65 24.01 35.65C17.49 35.65 12.21 31.81 12.21 27.07C12.21 26.56 12.27 26.07 12.39 25.59C11.41 25.11 10.73 24.09 10.73 22.92C10.73 21.28 12.06 19.95 13.7 19.95C14.55 19.95 15.31 20.31 15.85 20.88C17.83 19.5 20.48 18.65 23.41 18.54L25.17 10.65C25.24 10.37 25.52 10.2 25.79 10.25L31.23 11.45C31.6 10.71 32.34 10.19 33.22 10.19C34.45 10.19 35.45 11.19 35.45 12.42C35.45 13.65 34.45 14.65 33.22 14.65C31.99 14.65 31.02 13.67 31 12.46L26.09 11.37L24.49 18.51C27.47 18.6 30.18 19.46 32.19 20.86C32.73 20.29 33.5 19.93 34.34 19.93C35.98 19.93 37.31 21.26 37.31 22.9C37.31 24.07 36.63 25.08 35.65 25.57L35.63 25.59Z" fill="#323232"/>
</svg>
