<svg width="48" height="48" viewBox="0 0 48 48" fill="none" xmlns="http://www.w3.org/2000/svg">
<path fill-rule="evenodd" clip-rule="evenodd" d="M37.71 25.7401C36.84 20.0501 33.27 14.1601 27 11.3701C34.91 12.6201 39.54 18.4101 41.76 25.6501L37.71 25.7501V25.7401Z" fill="#8DE2E0"/>
<path fill-rule="evenodd" clip-rule="evenodd" d="M25.6496 31.3301L35.3896 18.6901C35.5796 18.4001 35.5796 17.9201 35.2896 17.7301C34.9996 17.4401 34.6096 17.4401 34.3296 17.6301L21.6896 27.3701C20.4396 28.3301 20.2396 30.0701 21.2096 31.3201C22.1696 32.5701 23.9096 32.7701 25.1596 31.8001C25.3496 31.6101 25.4496 31.5101 25.6396 31.3201L25.6496 31.3301Z" fill="#DF0000"/>
<path d="M42.8999 17.1C39.7199 12.07 34.7799 8.56995 28.9899 7.24995C27.3899 6.88995 25.7799 6.71995 24.1699 6.70995C24.1499 6.70995 24.1299 6.69995 24.1099 6.69995C24.0799 6.69995 24.0599 6.70995 24.0399 6.71995C19.8799 6.71995 15.7999 7.86995 12.1999 10.14C1.80994 16.69 -1.32006 30.46 5.22994 40.83C5.40994 41.12 5.72994 41.2999 6.07994 41.2999H42.0599C42.3999 41.2999 42.7299 41.12 42.9099 40.83C47.4799 33.51 47.4799 24.42 42.9099 17.1H42.8999ZM41.4899 39.2999H6.62994C4.87994 36.3599 3.96994 33.14 3.81994 29.92H8.47994C9.02994 29.92 9.47994 29.47 9.47994 28.92C9.47994 28.37 9.02994 27.92 8.47994 27.92H3.83994C4.08994 23.33 5.89994 18.88 9.05994 15.38L12.0199 18.34C12.2199 18.54 12.4699 18.63 12.7299 18.63C12.9899 18.63 13.2399 18.53 13.4399 18.34C13.8299 17.95 13.8299 17.32 13.4399 16.93L10.4799 13.97C11.3399 13.19 12.2599 12.47 13.2699 11.83C16.2799 9.92995 19.6599 8.89995 23.1199 8.73995V13.4C23.1199 13.95 23.5699 14.4 24.1199 14.4C24.6699 14.4 25.1199 13.95 25.1199 13.4V8.74995C26.2599 8.80995 27.4099 8.94995 28.5499 9.20995C33.8199 10.41 38.3199 13.59 41.2099 18.17C43.0999 21.19 44.1199 24.54 44.2999 27.93H39.7499C39.1999 27.93 38.7499 28.38 38.7499 28.93C38.7499 29.4799 39.1999 29.93 39.7499 29.93H44.3099C44.1599 33.17 43.2199 36.39 41.4999 39.31L41.4899 39.2999Z" fill="#323232"/>
</svg>
