<svg width="48" height="48" viewBox="0 0 48 48" fill="none" xmlns="http://www.w3.org/2000/svg">
<path d="M9.7094 15.2906C9.9094 15.4806 10.1594 15.5706 10.4094 15.5706C10.6594 15.5706 10.9294 15.4706 11.1194 15.2706C11.5094 14.8706 11.4994 14.2406 11.0994 13.8606L8.0694 10.9006C7.6694 10.5106 7.0394 10.5206 6.6594 10.9206C6.2694 11.3206 6.2794 11.9506 6.6794 12.3306L9.7094 15.2906Z" fill="#323232"/>
<path d="M8.09988 22.5303C8.09988 21.9803 7.64988 21.5303 7.09988 21.5303H2.87988C2.32988 21.5303 1.87988 21.9803 1.87988 22.5303C1.87988 23.0803 2.32988 23.5303 2.87988 23.5303H7.09988C7.64988 23.5303 8.09988 23.0803 8.09988 22.5303Z" fill="#323232"/>
<path d="M18.3701 12.2603C18.9201 12.2603 19.3701 11.8103 19.3701 11.2603V7.03027C19.3701 6.48027 18.9201 6.03027 18.3701 6.03027C17.8201 6.03027 17.3701 6.48027 17.3701 7.03027V11.2603C17.3701 11.8103 17.8201 12.2603 18.3701 12.2603Z" fill="#323232"/>
<path d="M26.3199 15.5707C26.5699 15.5707 26.8199 15.4807 27.0199 15.2907L30.0499 12.3307C30.4399 11.9407 30.4499 11.3107 30.0699 10.9207C29.6899 10.5207 29.0499 10.5207 28.6599 10.9007L25.6299 13.8607C25.2399 14.2507 25.2299 14.8807 25.6099 15.2707C25.8099 15.4707 26.0699 15.5707 26.3199 15.5707Z" fill="#323232"/>
<path d="M9.69945 29.7798L6.66945 32.8098C6.27945 33.1998 6.27945 33.8298 6.66945 34.2198C6.86945 34.4198 7.11945 34.5098 7.37945 34.5098C7.63945 34.5098 7.88945 34.4098 8.08945 34.2198L11.1195 31.1898C11.5095 30.7998 11.5095 30.1698 11.1195 29.7798C10.7295 29.3898 10.0995 29.3898 9.70945 29.7798H9.69945Z" fill="#323232"/>
<path d="M38.7802 25.8503C37.7002 23.5903 35.8602 21.8303 33.5302 20.8603C31.1702 19.8703 28.5802 19.8203 26.1902 20.6803C26.1402 20.4603 26.0902 20.2503 26.0202 20.0403C25.3602 18.0003 23.9402 16.3303 22.0202 15.3603C20.1102 14.3803 17.9302 14.2103 15.8802 14.8803C13.8402 15.5403 12.1702 16.9603 11.2002 18.8803C10.2302 20.8003 10.0502 22.9703 10.7202 25.0203C11.2202 26.5503 12.1502 27.8803 13.4202 28.8703C13.6002 29.0103 13.8202 29.0803 14.0302 29.0803C14.3302 29.0803 14.6202 28.9503 14.8202 28.7003C15.1602 28.2603 15.0802 27.6403 14.6502 27.3003C13.7002 26.5603 13.0002 25.5603 12.6302 24.4103C12.1302 22.8703 12.2602 21.2403 12.9902 19.8003C13.7202 18.3603 14.9702 17.3003 16.5102 16.8003C18.0502 16.3003 19.6802 16.4303 21.1202 17.1603C22.5602 17.8903 23.6202 19.1403 24.1202 20.6803C24.2202 20.9803 24.2802 21.2903 24.3302 21.6003C21.8002 23.1503 20.0502 25.7403 19.5802 28.6703C16.0102 28.7703 13.1402 31.7103 13.1402 35.3003C13.1402 38.8903 16.1202 41.9303 19.7702 41.9303H38.0802C42.5102 41.9303 46.1202 38.3203 46.1202 33.8903C46.1202 29.6903 42.8802 26.2303 38.7702 25.8803L38.7802 25.8503ZM38.0802 39.9103H19.7702C17.2202 39.9103 15.1402 37.8303 15.1402 35.2803C15.1402 32.7303 17.2202 30.6503 19.7702 30.6503H20.4702C21.0002 30.6503 21.4302 30.2403 21.4702 29.7103C21.6502 26.8703 23.3302 24.3003 25.8602 22.9903C26.0702 22.8803 26.2902 22.7803 26.5202 22.6903C28.5302 21.8603 30.7502 21.8703 32.7602 22.7103C34.7201 23.5303 36.2602 25.0503 37.1002 26.9903C37.1802 27.4703 37.5902 27.8303 38.0902 27.8303C41.4202 27.8303 44.1302 30.5403 44.1302 33.8703C44.1302 37.2003 41.4202 39.9103 38.0902 39.9103H38.0802Z" fill="#323232"/>
<path fill-rule="evenodd" clip-rule="evenodd" d="M35.5296 28.9402C35.8496 28.0202 35.2396 26.2802 33.0696 24.7602C30.8996 23.2402 27.8596 23.3502 27.8496 24.4702C27.8496 25.2802 29.1096 24.7202 31.2796 26.2402C33.4496 27.7602 34.8996 29.8502 35.5396 28.9402" fill="#8DE2E0"/>
</svg>
