<svg width="24" height="24" viewBox="0 0 24 24" fill="none" xmlns="http://www.w3.org/2000/svg">
<g clip-path="url(#clip0_16335_7230)">
<path d="M20.4851 20.4853C25.1714 15.799 25.1714 8.20101 20.4851 3.51472C15.7988 -1.17157 8.20081 -1.17157 3.51452 3.51472C-1.17177 8.20101 -1.17177 15.799 3.51452 20.4853C8.20081 25.1716 15.7988 25.1716 20.4851 20.4853Z" fill="white"/>
<mask id="mask0_16335_7230" style="mask-type:luminance" maskUnits="userSpaceOnUse" x="-1" y="0" width="25" height="24">
<path d="M20.4851 20.4853C25.1714 15.799 25.1714 8.20101 20.4851 3.51472C15.7988 -1.17157 8.20081 -1.17157 3.51452 3.51472C-1.17177 8.20101 -1.17177 15.799 3.51452 20.4853C8.20081 25.1716 15.7988 25.1716 20.4851 20.4853Z" fill="white"/>
</mask>
<g mask="url(#mask0_16335_7230)">
<path d="M34.8834 0H-1.11658V12H34.8834V0Z" fill="#FED700"/>
<path d="M34.8834 12H-1.11658V24H34.8834V12Z" fill="#007C29"/>
<path d="M13.2633 0H-1.11658V24H13.2633V0Z" fill="#FF0000"/>
<path fill-rule="evenodd" clip-rule="evenodd" d="M1.71747 11.0232H5.04482L6.07196 7.85791L7.10049 11.0232H10.4264L7.73494 12.974L8.76347 16.1421L6.07196 14.1786L3.38184 16.1421L4.41038 12.974L1.71747 11.0232Z" fill="black"/>
</g>
</g>
<rect x="0.25" y="0.25" width="23.5" height="23.5" rx="11.75" stroke="#E5E3E1" stroke-width="0.5"/>
<defs>
<clipPath id="clip0_16335_7230">
<rect width="24" height="24" rx="12" fill="white"/>
</clipPath>
</defs>
</svg>
