<svg width="48" height="48" viewBox="0 0 48 48" fill="none" xmlns="http://www.w3.org/2000/svg">
<path d="M25.3109 28.6698C24.4409 29.3998 22.9009 30.2298 20.3309 30.2298C15.7109 30.2298 14.4009 27.5498 14.4009 27.5498L12.2709 28.2298C7.39088 29.6998 7.61088 34.0098 7.61088 34.0098H24.5709" fill="#8DE2E0"/>
<path d="M12.5405 20.66C13.0005 22.24 13.8805 23.65 15.0505 24.76V26.08C15.0505 26.63 15.5005 27.08 16.0505 27.08C16.5605 27.08 16.9705 26.69 17.0305 26.19C17.6305 26.51 18.8305 27.02 20.3905 27.02C21.5005 27.02 22.7905 26.76 24.1405 25.96C26.1005 24.69 27.5205 22.8 28.2205 20.59C29.3005 20.3 30.7005 19.29 30.7005 15.99C30.7005 15.14 30.7005 13.11 29.1005 12.52V11.22C29.1005 4.95998 24.5305 2.72998 20.6105 2.72998C16.1205 2.72998 11.5905 5.33998 11.5905 11.17V12.62C11.4105 12.72 11.2405 12.85 11.0805 13.01C10.3205 13.76 9.98047 15.07 9.98047 16.03C9.98047 18.95 11.2005 20.31 12.5505 20.67L12.5405 20.66ZM13.5805 11.17C13.5805 6.40998 17.3605 4.72998 20.6005 4.72998C21.7205 4.72998 24.7305 4.98998 26.2205 7.54998C25.5605 7.20998 24.7605 7.00998 23.8005 7.00998C21.5505 7.00998 20.1705 8.02998 18.8305 9.01998C17.4905 10.01 16.1105 11.03 13.5705 11.25V11.18L13.5805 11.17ZM12.4805 14.42C12.4805 14.42 12.5505 14.36 12.5705 14.36C12.8505 14.38 13.0905 14.26 13.2805 14.07C13.4705 13.88 13.5705 13.63 13.5705 13.36V13.25C16.7905 13.02 18.5705 11.7 20.0205 10.63C21.2405 9.72998 22.2105 9.00998 23.8005 9.00998C26.6705 9.00998 27.0405 11.87 27.0805 12.33V13.36C27.0805 13.91 27.5305 14.36 28.0805 14.36C28.4405 14.36 28.6805 14.36 28.6805 16C28.6805 17.23 28.4605 18.7 27.4005 18.71C26.9405 18.71 26.5505 19.03 26.4405 19.48C25.9605 21.47 24.7505 23.18 23.0705 24.27C20.2405 25.93 17.8205 24.37 17.6705 24.27C15.9405 23.25 14.7105 21.54 14.3005 19.58C14.2005 19.12 13.8005 18.78 13.3205 18.78C12.0805 18.78 11.9505 16.86 11.9505 16.03C11.9505 15.43 12.1805 14.71 12.4605 14.43L12.4805 14.42Z" fill="#323232"/>
<path d="M25.1408 36.0898C25.6108 37.5298 26.5908 38.7698 27.8708 39.5198C27.9408 39.5598 28.9908 40.2598 30.5008 40.2598C31.2808 40.2598 32.1708 40.0798 33.1208 39.5298C34.4108 38.6898 35.3608 37.4598 35.8508 36.0298C36.6008 35.7498 37.5208 34.9698 37.5208 32.7798C37.5208 31.4998 37.1708 30.6698 36.4808 30.2998V29.6898C36.4808 25.3798 33.3308 23.8398 30.6308 23.8398C27.9308 23.8398 25.4608 25.1098 24.6908 27.8798C24.6908 27.8798 24.6708 27.8798 24.6608 27.8998C23.9508 28.4998 22.6208 29.2198 20.3308 29.2198C16.4608 29.2198 15.3308 27.1698 15.2908 27.0998C15.0708 26.6598 14.5608 26.4398 14.0908 26.5898L11.9808 27.2598C7.53084 28.5998 6.52084 32.2898 6.61084 34.0498C6.64084 34.5798 7.08084 34.9998 7.61084 34.9998H23.9008C24.2208 35.5598 24.6608 35.9098 25.1408 36.0798V36.0898ZM35.0508 34.1798C34.5908 34.1798 34.2008 34.4998 34.0908 34.9398C33.8008 36.1398 33.0708 37.1698 32.0708 37.8298C30.4308 38.7798 29.0408 37.8998 28.9408 37.8298C27.9008 37.2198 27.1708 36.1898 26.9208 35.0198C26.8208 34.5598 26.4108 34.2198 25.9408 34.2198C25.4208 34.2198 25.4108 32.8598 25.4108 32.7998C25.4108 32.5098 25.5108 32.1998 25.6008 32.0598C26.0008 31.9998 26.3208 31.7098 26.4208 31.3198C26.6808 31.2898 26.9308 31.2498 27.1608 31.2098C27.2208 31.1998 27.2808 31.1798 27.3408 31.1698C27.5108 31.1298 27.6808 31.0898 27.8408 31.0398C27.9208 31.0198 27.9908 30.9898 28.0708 30.9598C28.2008 30.9098 28.3308 30.8698 28.4508 30.8198C28.5308 30.7898 28.6008 30.7498 28.6708 30.7198C28.7808 30.6698 28.8908 30.6198 28.9908 30.5598C29.0608 30.5198 29.1308 30.4898 29.1908 30.4498C29.2908 30.3898 29.3908 30.3298 29.4908 30.2698C29.5508 30.2298 29.6108 30.1998 29.6608 30.1598C29.7608 30.0898 29.8608 30.0298 29.9608 29.9598C30.0008 29.9298 30.0508 29.8998 30.0908 29.8698C30.2208 29.7798 30.3508 29.6798 30.4708 29.5898C31.2408 29.0198 31.7908 28.6098 32.7108 28.6098C34.2308 28.6098 34.4508 30.0998 34.4808 30.4298V31.0798C34.4808 31.6098 34.9508 32.0498 35.4708 32.0798C35.5208 32.2498 35.5208 32.5998 35.5208 32.7798C35.5208 33.0098 35.5008 34.1698 35.0508 34.1698V34.1798ZM30.6408 25.8498C31.2808 25.8498 32.3808 25.9598 33.2408 26.6498C33.0708 26.6298 32.9008 26.6198 32.7208 26.6198C31.1508 26.6198 30.1608 27.3498 29.2908 27.9898C29.1308 28.1098 28.9608 28.2298 28.7908 28.3498C28.7508 28.3798 28.7008 28.4098 28.6608 28.4398C28.4808 28.5598 28.3008 28.6698 28.1108 28.7798C28.0808 28.7998 28.0408 28.8098 28.0108 28.8298C27.8308 28.9198 27.6308 29.0098 27.4208 29.0798C27.3908 29.0898 27.3608 29.0998 27.3308 29.1198C27.1008 29.1998 26.8408 29.2498 26.5708 29.2998C26.5408 29.2998 26.5108 29.2998 26.4908 29.3098C26.7208 26.0298 29.9908 25.8498 30.6608 25.8498H30.6408ZM8.72084 32.9998C8.98084 31.8598 9.82084 29.9998 12.5808 29.1698L14.0108 28.7098C14.8108 29.6698 16.6808 31.2198 20.3408 31.2198C22.1108 31.2198 23.4608 30.8498 24.4608 30.3798V30.4098C23.8008 30.8998 23.4208 31.8598 23.4208 32.7998C23.4208 32.8698 23.4208 32.9298 23.4308 32.9998H8.72084Z" fill="#323232"/>
<path d="M37.1309 39.8598C35.9809 39.4998 34.7009 39.7398 33.7109 40.4898C33.2009 40.8798 32.2609 41.3398 30.6809 41.3398C29.1009 41.3398 28.1709 40.8798 27.6609 40.4898C26.6609 39.7298 25.3809 39.4898 24.2409 39.8498C20.7009 40.9098 19.9009 43.8598 19.9709 45.2698C20.0009 45.7998 20.4409 46.2198 20.9709 46.2198H40.3909C40.9209 46.2198 41.3609 45.7998 41.3909 45.2698C41.4609 43.8598 40.6609 40.9198 37.1309 39.8498V39.8598ZM22.1209 44.2198C22.3709 43.4098 23.0409 42.2998 24.8409 41.7598C25.3809 41.5898 25.9609 41.6998 26.4609 42.0798C27.2209 42.6498 28.5709 43.3398 30.6909 43.3398C32.8109 43.3398 34.1709 42.6598 34.9309 42.0798C35.4209 41.7098 36.0009 41.5898 36.5409 41.7598H36.5509C38.3409 42.2998 39.0009 43.4098 39.2509 44.2198H22.1209Z" fill="#323232"/>
</svg>
