<svg width="48" height="48" viewBox="0 0 48 48" fill="none" xmlns="http://www.w3.org/2000/svg">
<path fill-rule="evenodd" clip-rule="evenodd" d="M27.9194 26.1699C28.6594 26.1799 29.2094 26.5399 29.5694 27.2499C29.9194 27.9599 31.3294 30.6899 33.7894 35.4399C33.8094 36.1199 33.4594 36.4599 32.7394 36.4599H15.0394C14.2694 36.2599 13.8194 35.8499 13.6794 35.2299C13.5494 34.6099 13.0894 32.2099 12.3294 28.0199C12.2694 27.2999 12.5894 26.9299 13.2794 26.9299L27.9194 26.1599V26.1699Z" fill="#8DE2E0"/>
<path d="M30.7397 13.7901L30.6797 13.2301C30.5297 12.0601 31.2697 11.4901 32.0797 10.6901C32.4897 10.3001 32.8497 9.92007 32.8497 9.38007C32.8497 8.70007 32.3997 8.25007 31.5697 8.25007C30.7397 8.25007 30.2297 8.76007 30.2297 9.53007V9.94007H28.4297V9.50007C28.4297 7.79007 29.6897 6.57007 31.6197 6.57007C33.5497 6.57007 34.7797 7.65007 34.7797 9.31007C34.7797 10.2601 34.2797 10.9601 33.6197 11.5801C32.9697 12.2001 32.3997 12.6201 32.3097 13.3501L32.2497 13.7901H30.7497H30.7397ZM31.4897 14.6801C32.0797 14.6801 32.5297 15.1501 32.5297 15.7201C32.5297 16.2901 32.0797 16.7601 31.4897 16.7601C30.8997 16.7601 30.4697 16.3101 30.4697 15.7201C30.4697 15.1301 30.9197 14.6801 31.4897 14.6801Z" fill="#DF0000"/>
<path d="M36.271 29.5999L32.091 29.9699C31.211 28.2699 30.661 27.1899 30.461 26.7999C29.941 25.7699 29.051 25.1899 27.931 25.1699C27.911 25.1699 27.891 25.1699 27.861 25.1699L21.761 25.4899C18.221 20.4899 14.071 14.6199 13.571 13.9499C13.441 13.7799 13.431 13.6999 13.521 13.5499C14.521 12.6799 15.241 12.0599 15.691 11.6899C16.181 11.2799 16.751 10.5199 16.671 9.2399C16.671 9.1999 16.671 9.1699 16.661 9.1299C16.371 7.4799 16.161 6.3999 16.021 5.8199C15.791 4.8499 15.141 4.2399 14.231 4.1499C14.201 4.1499 14.161 4.1499 14.131 4.1499H8.69096C7.97096 4.1499 7.54096 4.4599 7.31096 4.7199C6.95096 5.1299 6.81096 5.6899 6.89096 6.3699L7.69096 15.6799C7.69096 15.7699 7.72096 15.8599 7.75096 15.9499L11.751 26.5999C11.431 26.9899 11.281 27.4899 11.331 28.1199C11.331 28.1499 11.331 28.1899 11.341 28.2199C12.131 32.5399 12.571 34.8399 12.701 35.4599C12.771 35.7999 12.961 36.2899 13.411 36.7199L12.061 44.4799C12.011 44.7699 12.091 45.0699 12.281 45.2999C12.471 45.5299 12.751 45.6599 13.051 45.6599H31.101C31.651 45.6599 32.101 45.2099 32.101 44.6599V37.4899H32.731C33.381 37.4899 33.891 37.2999 34.261 36.9199C34.491 36.6899 34.731 36.2699 34.771 35.6299H36.451C38.301 35.4599 39.341 34.2599 39.221 32.4099C39.161 31.4299 38.841 30.6899 38.281 30.2099C37.771 29.7599 37.101 29.5699 36.271 29.6299V29.5999ZM8.88096 6.1599H14.021C14.021 6.1599 14.051 6.2299 14.071 6.3099C14.201 6.8299 14.401 7.8799 14.671 9.4299C14.691 9.8699 14.551 10.0499 14.401 10.1699C13.941 10.5599 13.181 11.2099 12.111 12.1299C12.051 12.1799 12.001 12.2299 11.961 12.2899C11.291 13.1999 11.291 14.2399 11.961 15.1399C12.221 15.4999 13.761 17.6399 19.401 25.6199L13.641 25.9199L9.68096 15.3699L8.89096 6.1699L8.88096 6.1599ZM30.101 43.6299H14.241L15.321 37.4599H30.101V43.6299ZM15.191 35.4599C14.731 35.3099 14.691 35.1199 14.671 35.0199C14.541 34.4399 14.111 32.1199 13.341 27.9399L27.941 27.1799C28.231 27.1899 28.471 27.2899 28.681 27.6999C28.901 28.1499 29.561 29.4299 30.631 31.4999C31.201 32.5999 31.871 33.9099 32.671 35.4599H15.191ZM36.361 33.5999H33.961C33.651 32.9899 33.351 32.4199 33.081 31.8899L36.431 31.5899C36.611 31.5799 36.851 31.5899 36.961 31.6899C37.091 31.8099 37.181 32.1099 37.211 32.5099C37.261 33.2899 37.051 33.5399 36.351 33.5999H36.361Z" fill="#323232"/>
<path d="M31.5905 21.4399C36.8505 21.4399 41.1205 17.1599 41.1205 11.9099C41.1205 6.65988 36.8405 2.37988 31.5905 2.37988C26.3405 2.37988 22.0605 6.65988 22.0605 11.9099C22.0605 17.1599 26.3405 21.4399 31.5905 21.4399ZM31.5905 4.36988C35.7405 4.36988 39.1205 7.74988 39.1205 11.8999C39.1205 16.0499 35.7405 19.4299 31.5905 19.4299C27.4405 19.4299 24.0605 16.0499 24.0605 11.8999C24.0605 7.74988 27.4405 4.36988 31.5905 4.36988Z" fill="#323232"/>
</svg>
