<svg width="48" height="48" viewBox="0 0 48 48" fill="none" xmlns="http://www.w3.org/2000/svg">
<path d="M10.7101 42.8501C10.1801 42.8501 9.74012 42.4401 9.71012 41.9101C9.71012 41.8101 9.68012 41.3401 9.69012 40.5901C9.55012 37.2701 8.67012 34.8201 7.06012 33.3101C5.21012 31.5601 3.02012 31.6901 2.93012 31.6901C2.38012 31.7401 1.90012 31.3101 1.86012 30.7701C1.82012 30.2201 2.23012 29.7401 2.77012 29.7001C2.90012 29.7001 5.88012 29.4801 8.39012 31.8201C9.19012 32.5701 9.85012 33.4801 10.3601 34.5501C11.3901 29.7201 13.9101 23.7201 20.0601 20.3801C20.5501 20.1201 21.1501 20.3001 21.4201 20.7801C21.6801 21.2701 21.5001 21.8701 21.0201 22.1401C12.6001 26.7101 11.7501 37.3801 11.7001 40.7501C11.7101 41.1101 11.7201 41.4801 11.7101 41.8601C11.7101 42.4001 11.2701 42.8401 10.7301 42.8501H10.7101Z" fill="#DF0000"/>
<path d="M46.1001 10.3799L46.0601 10.2199C45.8501 9.4399 45.3601 7.6099 43.6601 6.6399C42.4301 5.9399 40.8601 5.8599 38.9801 6.3899L31.2801 8.5799L23.0001 5.4199C21.4201 4.9099 19.6701 5.1699 18.3201 6.1199C18.0801 6.2899 17.9301 6.5499 17.9001 6.8399C17.8701 7.1299 17.9701 7.4199 18.1801 7.6299C19.0601 8.5299 20.7401 10.1299 21.9101 11.2399L16.5601 12.7599L14.0601 10.7699C13.3401 10.1999 12.3801 10.0099 11.4901 10.2599L10.0901 10.6599C9.54007 10.8199 9.10007 11.2399 8.91007 11.7899C8.73007 12.3399 8.83007 12.9499 9.18007 13.4099L13.3801 18.9199C13.9401 19.6499 14.7801 20.0599 15.6601 20.0599C15.9301 20.0599 16.1901 20.0199 16.4601 19.9499L21.2801 18.5599L24.0701 17.7499L22.3501 25.1499C22.2801 25.4599 22.3501 25.7899 22.5701 26.0299C22.7601 26.2499 23.0401 26.3699 23.3201 26.3699C23.3501 26.3699 23.3801 26.3699 23.4201 26.3699C25.3801 26.1799 27.1601 25.1499 28.3001 23.5299C29.5801 21.5699 33.2001 16.1999 34.1001 14.8699L45.4101 11.6299C45.9401 11.4799 46.2501 10.9199 46.1001 10.3899V10.3799ZM20.6201 7.2299C21.1901 7.0999 21.7901 7.1199 22.3401 7.2899L28.0701 9.4799L24.1601 10.5899C23.4201 9.8999 21.8301 8.3999 20.6301 7.2199L20.6201 7.2299ZM15.9101 18.0099C15.5601 18.1099 15.2001 17.9899 14.9701 17.6899L10.9901 12.4699L12.0401 12.1699C12.3101 12.0899 12.6001 12.1499 12.8201 12.3199L18.8701 17.1499L15.9101 17.9999V18.0099ZM33.2101 13.0299C32.9801 13.0899 32.7901 13.2399 32.6601 13.4299C32.6101 13.4999 28.1201 20.1699 26.6701 22.3799C26.1701 23.0899 25.4801 23.6499 24.6901 23.9899L26.4201 16.5199C26.5001 16.1699 26.3901 15.8099 26.1301 15.5699C25.8701 15.3299 25.5001 15.2399 25.1601 15.3399L21.2301 16.4799L18.4901 14.2899L39.5301 8.3099C40.8801 7.9299 41.9301 7.9499 42.6801 8.3799C43.3301 8.7499 43.6901 9.3999 43.9001 9.9799L33.2201 13.0399L33.2101 13.0299Z" fill="#323232"/>
</svg>
