<svg width="48" height="48" viewBox="0 0 48 48" fill="none" xmlns="http://www.w3.org/2000/svg">
<path d="M43.6195 26.1099H32.2695V37.7699H43.6195V26.1099Z" fill="#8DE2E0"/>
<path d="M45.1596 37.7699H30.4096V8.8999C30.4096 8.3499 29.9596 7.8999 29.4096 7.8999H25.9996C25.4496 7.8999 24.9996 8.3499 24.9996 8.8999V28.5899L23.2496 26.2299L22.0196 15.6999C21.8296 14.0299 20.4096 12.7599 18.7196 12.7599H13.0396C8.52961 12.7599 4.85961 16.4299 4.85961 20.9399V32.2099C3.12961 32.6599 1.84961 34.2199 1.84961 36.0799C1.84961 38.2899 3.64961 40.0899 5.85961 40.0899C7.72961 40.0899 9.28961 38.7999 9.72961 37.0799H20.1296C21.0196 38.8599 22.8596 40.0899 24.9796 40.0899C26.2896 40.0899 27.4896 39.6299 28.4196 38.8499C28.4696 39.3499 28.8796 39.7499 29.3996 39.7499H45.1496C45.6996 39.7499 46.1496 39.2999 46.1496 38.7499C46.1496 38.1999 45.6996 37.7499 45.1496 37.7499L45.1596 37.7699ZM28.4096 9.8999V30.4799C27.9896 30.1299 27.5096 29.8499 26.9996 29.6499V9.8999H28.4096ZM13.0396 14.7699H18.7196C19.3896 14.7699 19.9496 15.2699 20.0296 15.9399L21.1596 25.6199H6.84961V20.9499C6.84961 17.5399 9.61961 14.7699 13.0296 14.7699H13.0396ZM5.84961 38.0999C4.73961 38.0999 3.83961 37.1999 3.83961 36.0899C3.83961 34.9799 4.73961 34.0799 5.84961 34.0799C6.95961 34.0799 7.85961 34.9799 7.85961 36.0899C7.85961 37.1999 6.95961 38.0999 5.84961 38.0999ZM9.72961 35.0899C9.36961 33.6799 8.25961 32.5799 6.85961 32.2199V27.6199H21.7796L23.2196 29.5599C21.0896 30.2899 19.5596 32.3099 19.5596 34.6799C19.5596 34.8199 19.5696 34.9499 19.5796 35.0899H9.72961ZM24.9796 38.0999C23.0896 38.0999 21.5596 36.5599 21.5596 34.6799C21.5596 32.7999 23.0996 31.2599 24.9796 31.2599C26.8596 31.2599 28.3996 32.7999 28.3996 34.6799C28.3996 36.5599 26.8596 38.0999 24.9796 38.0999Z" fill="#323232"/>
</svg>
