<svg width="24" height="24" viewBox="0 0 24 24" fill="none" xmlns="http://www.w3.org/2000/svg">
<path fill-rule="evenodd" clip-rule="evenodd" d="M2 12C2 6.48 6.47 2 11.99 2C17.52 2 22 6.48 22 12C22 17.52 17.52 22 11.99 22C6.47 22 2 17.52 2 12ZM8.02416 16.7386C7.92048 17.2231 8.44039 17.601 8.86924 17.3528L12.0013 15.5402L15.1334 17.3528C15.5622 17.601 16.0821 17.2231 15.9784 16.7386L15.2427 13.3004L17.8158 10.9498C18.18 10.6171 17.9799 10.0103 17.4892 9.95945L13.9955 9.59764L12.5221 6.3362C12.3196 5.88793 11.683 5.88793 11.4805 6.3362L10.0071 9.59764L6.51336 9.95945C6.02268 10.0103 5.82257 10.6171 6.18678 10.9498L8.75989 13.3004L8.02416 16.7386Z" fill="#323232"/>
</svg>
