<svg width="48" height="48" viewBox="0 0 48 48" fill="none" xmlns="http://www.w3.org/2000/svg">
<path d="M41.9899 2.81006L37.1699 7.63006L40.3899 10.8501L45.2099 6.03006L41.9899 2.81006Z" fill="#8DE2E0"/>
<path d="M37.5805 8.02979L39.9905 10.4398L25.4105 25.0198C24.7405 25.6898 23.6605 25.6898 23.0005 25.0198C22.3305 24.3498 22.3305 23.2698 23.0005 22.6098L37.5805 8.02979Z" fill="#8DE2E0"/>
<path d="M46.3202 8.13021L45.4202 7.23021L45.9202 6.73021C46.3102 6.34021 46.3102 5.71022 45.9202 5.32021L42.7002 2.10021C42.3102 1.71021 41.6802 1.71021 41.2902 2.10021L40.7902 2.60021L39.8902 1.70021C39.5002 1.31021 38.8702 1.31021 38.4802 1.70021C38.0902 2.09021 38.0902 2.72021 38.4802 3.11021L39.3802 4.01022L37.9902 5.40021L37.0902 4.50021C36.7002 4.11021 36.0702 4.11021 35.6802 4.50021C35.2902 4.89021 35.2902 5.52021 35.6802 5.91021L36.5802 6.81021L36.4702 6.92021C36.1902 7.20021 36.1202 7.60021 36.2402 7.95021L31.2902 12.9002C28.8302 11.5602 23.8502 10.0502 18.4802 15.4102C18.1902 15.7002 18.1102 16.1602 18.2802 16.5302C18.3202 16.6102 19.1102 18.4902 16.9902 20.6102C15.0602 22.5402 12.7002 20.4602 12.4402 20.2202C12.1602 19.9602 11.7602 19.8802 11.4102 20.0102C11.1202 20.1202 4.36016 22.7102 2.02016 28.3202C0.590156 31.7702 1.85016 35.5802 3.83016 37.5702C4.50016 38.2402 5.66016 39.4202 6.40016 40.1702L4.30016 42.2702C3.91016 42.6602 3.91016 43.2902 4.30016 43.6802C4.50016 43.8802 4.75016 43.9702 5.01016 43.9702C5.27016 43.9702 5.52016 43.8702 5.72016 43.6802L7.83016 41.5802C8.58016 42.3202 9.76016 43.4902 10.4302 44.1602C11.8202 45.5502 14.1102 46.5902 16.5402 46.5902C17.5802 46.5902 18.6502 46.4002 19.6802 45.9702C25.2902 43.6402 27.8802 36.8702 27.9802 36.5902C28.1102 36.2402 28.0302 35.8402 27.7802 35.5602C27.5402 35.3002 25.4602 32.9402 27.3902 31.0102C29.5102 28.8902 31.3902 29.6902 31.4602 29.7202C31.8402 29.9002 32.3002 29.8202 32.6002 29.5202C37.9402 24.1802 36.4502 19.2002 35.1302 16.7502L40.0902 11.7902C40.2002 11.8302 40.3102 11.8502 40.4202 11.8502C40.6802 11.8502 40.9302 11.7502 41.1302 11.5602L41.2402 11.4502L42.1402 12.3502C42.3402 12.5502 42.5902 12.6402 42.8502 12.6402C43.1102 12.6402 43.3602 12.5402 43.5602 12.3502C43.9502 11.9602 43.9502 11.3302 43.5602 10.9402L42.6602 10.0402L44.0502 8.65021L44.9502 9.55021C45.1502 9.75021 45.4002 9.84021 45.6602 9.84021C45.9202 9.84021 46.1702 9.74021 46.3702 9.55021C46.7602 9.16021 46.7602 8.53021 46.3702 8.14021L46.3202 8.13021ZM43.7902 6.03021L43.3002 6.52021L40.4002 9.42021L38.6002 7.62021L38.6702 7.55021C38.6702 7.55021 38.6902 7.55021 38.7002 7.53021C38.7102 7.51021 38.7102 7.51021 38.7202 7.50021L42.0002 4.22021L43.8002 6.02021L43.7902 6.03021ZM24.7002 24.3102C24.4302 24.5802 23.9802 24.5802 23.7002 24.3102C23.5702 24.1802 23.4902 24.0002 23.4902 23.8102C23.4902 23.6202 23.5602 23.4402 23.7002 23.3102L37.5602 9.45021L38.5602 10.4502L24.7002 24.3102ZM31.5702 27.6702C30.4602 27.4202 28.2302 27.3102 25.9502 29.5902C23.5702 31.9702 24.6802 34.8402 25.8602 36.4102C25.1702 37.9502 22.8502 42.4702 18.8802 44.1302C15.9602 45.3502 13.0002 43.9402 11.8202 42.7602C10.7902 41.7302 8.52016 39.4902 8.52016 39.4902C8.50016 39.4702 8.48016 39.4502 8.45016 39.4302C8.14016 39.1102 6.18016 37.1202 5.23016 36.1702C4.05016 34.9902 2.63016 32.0302 3.85016 29.1102C5.51016 25.1402 10.0302 22.8202 11.5802 22.1302C13.1502 23.3102 16.0202 24.4202 18.4002 22.0402C20.6802 19.7602 20.5702 17.5302 20.3202 16.4202C24.1502 12.8702 27.6002 13.3702 29.8002 14.4002L22.3002 21.9002C21.7902 22.4102 21.5102 23.0902 21.5102 23.8102C21.5102 24.5302 21.7902 25.2102 22.3002 25.7202C22.8102 26.2302 23.4902 26.5102 24.2102 26.5102C24.9302 26.5102 25.6102 26.2302 26.1202 25.7202L33.6202 18.2202C34.7602 20.6402 35.0102 23.9702 31.5802 27.6602L31.5702 27.6702Z" fill="#323232"/>
<path d="M19.0397 29.5904C18.6497 29.9704 18.6397 30.6004 19.0197 31.0004C19.2997 31.2904 19.5397 31.7204 19.1397 32.1204L15.8197 35.4404C15.0897 36.1704 14.9297 36.9304 14.9297 37.4304C14.9297 38.5804 15.7097 39.3904 15.7997 39.4704C15.9897 39.6604 16.2397 39.7603 16.4997 39.7603C16.7597 39.7603 17.0097 39.6604 17.1997 39.4704C17.5897 39.0904 17.5997 38.4604 17.2197 38.0604C16.8297 37.6504 16.8397 37.2503 17.2297 36.8503L20.5497 33.5304C21.0797 33.0104 21.3597 32.3704 21.3597 31.7004C21.3597 30.5404 20.5397 29.6804 20.4497 29.5904C20.0597 29.2004 19.4397 29.2004 19.0497 29.5904H19.0397Z" fill="#323232"/>
<path d="M21.6393 26.3904C21.6393 26.3904 21.6193 26.3904 21.6193 26.3704C21.6193 26.3704 21.6193 26.3504 21.5993 26.3504L19.9193 24.6704C19.5293 24.2804 18.8993 24.2804 18.5093 24.6704C18.1193 25.0604 18.1193 25.6904 18.5093 26.0804L20.1893 27.7604C20.1893 27.7604 20.2093 27.7604 20.2093 27.7804C20.2093 27.7804 20.2093 27.8004 20.2293 27.8004L21.8993 29.4704C22.0993 29.6704 22.3493 29.7604 22.6093 29.7604C22.8693 29.7604 23.1193 29.6604 23.3193 29.4704C23.7093 29.0804 23.7093 28.4504 23.3193 28.0604L21.6493 26.3904H21.6393Z" fill="#323232"/>
<path d="M16.9908 28.9601C17.3808 29.3401 18.0108 29.3401 18.4008 28.9601C18.7908 28.5701 18.7908 27.9401 18.4008 27.5501C18.3108 27.4601 17.4508 26.6401 16.2908 26.6401C15.6108 26.6401 14.9808 26.9201 14.4608 27.4501L11.1408 30.7701C10.7408 31.1701 10.3408 31.1701 9.94078 30.7901C9.55078 30.4001 8.92078 30.4001 8.53078 30.7901C8.14078 31.1801 8.14078 31.8101 8.53078 32.2001C8.62078 32.2901 9.42078 33.0701 10.5708 33.0701C11.0708 33.0701 11.8208 32.9201 12.5508 32.1801L15.8808 28.8501C16.2808 28.4501 16.7108 28.6901 17.0008 28.9701L16.9908 28.9601Z" fill="#323232"/>
</svg>
