<svg width="48" height="48" viewBox="0 0 48 48" fill="none" xmlns="http://www.w3.org/2000/svg">
<path d="M28.8109 43.54H22.2309L17.3109 38.6L16.3809 37.67L15.4509 36.73L14.6609 35.94L13.0309 34.31L11.8709 33.14C11.7109 32.98 11.5709 32.85 11.4109 32.72C9.82086 31.3 7.83086 30.38 5.71086 30.14L4.13086 26H7.14086C9.66086 26 12.0709 26.98 13.9409 28.64C14.0809 28.77 14.2409 28.91 14.3809 29.06L15.5409 30.23L17.1709 31.86L17.9609 32.66L18.9009 33.59L19.8309 34.53L28.7909 43.54H28.8109Z" fill="#8DE2E0"/>
<path d="M36.2503 32.6499H29.6703L24.7503 27.7099L23.8203 26.7799L22.8903 25.8399L22.1003 25.0499L20.4703 23.4199L19.3103 22.2499C19.1503 22.0899 19.0103 21.9599 18.8503 21.8299C17.2603 20.4099 15.2703 19.4899 13.1503 19.2499L11.5703 15.1099H14.5803C17.1003 15.1099 19.5103 16.0899 21.3803 17.7499C21.5203 17.8799 21.6803 18.0199 21.8203 18.1699L22.9803 19.3399L24.6103 20.9699L25.4003 21.7699L26.3403 22.6999L27.2703 23.6399L36.2303 32.6499H36.2503Z" fill="#8DE2E0"/>
<path d="M44.1995 22.0102H37.6195L32.6995 17.0702L31.7695 16.1402L30.8395 15.2002L30.0495 14.4102L28.4195 12.7802L27.2595 11.6102C27.0995 11.4502 26.9595 11.3202 26.7995 11.1902C25.2095 9.77021 23.2195 8.85021 21.0995 8.61021L19.5195 4.47021H22.5295C25.0495 4.47021 27.4595 5.45022 29.3295 7.11022C29.4695 7.24022 29.6295 7.38022 29.7695 7.53022L30.9295 8.70021L32.5595 10.3302L33.3495 11.1302L34.2895 12.0602L35.2195 13.0002L44.1795 22.0102H44.1995Z" fill="#8DE2E0"/>
<path d="M44.9103 21.3002L30.4903 6.82021C30.3703 6.70022 30.2503 6.58021 30.1303 6.47021C28.0103 4.53021 25.3203 3.47021 22.5403 3.47021H19.5303C19.2003 3.47021 18.8903 3.63021 18.7103 3.90021C18.5203 4.17021 18.4803 4.52022 18.6003 4.82021C18.6003 4.82021 19.6803 7.67021 19.8103 7.99021L22.6803 17.5802L22.5503 17.4502C22.4303 17.3302 22.3103 17.2102 22.1903 17.1002C20.0703 15.1602 17.3803 14.1002 14.6003 14.1002H11.5903C11.2603 14.1002 10.9503 14.2602 10.7703 14.5302C10.5803 14.8002 10.5403 15.1502 10.6603 15.4502C10.6603 15.4502 11.7403 18.3002 11.8703 18.6202L14.7703 28.3102C14.6103 28.1502 14.4503 28.0002 14.2903 27.8602C12.1903 26.0002 9.5503 24.9702 6.8303 24.9702H3.8203C3.4903 24.9702 3.1803 25.1302 3.0003 25.4002C2.8103 25.6702 2.7703 26.0202 2.8903 26.3202L9.5703 43.8602C9.7203 44.2502 10.0903 44.5002 10.5003 44.5002H28.4903C28.8903 44.5002 29.2603 44.2602 29.4103 43.8802C29.5703 43.5102 29.4803 43.0802 29.2003 42.7902L19.3003 32.8402L17.7503 31.2902L13.7703 17.9902L13.7103 18.0102C13.6003 17.5902 13.3903 16.9802 13.0403 16.0702H14.6003C16.8803 16.0702 19.1003 16.9502 20.8403 18.5502C20.9403 18.6402 21.0303 18.7402 21.1403 18.8402L33.8603 31.6102H22.5303C21.9803 31.6102 21.5303 32.0602 21.5303 32.6102C21.5303 33.1602 21.9803 33.6102 22.5303 33.6102H36.2703C36.6703 33.6102 37.0403 33.3702 37.1903 32.9902C37.3503 32.6202 37.2603 32.1902 36.9803 31.9002L25.6303 20.4902C25.6303 20.4402 25.6303 20.3802 25.6203 20.3302L21.7303 7.34021L21.6703 7.36021C21.5603 6.94021 21.3503 6.33021 21.0003 5.42021H22.5603C24.8403 5.42021 27.0603 6.30022 28.8003 7.90022C28.9003 7.99022 28.9903 8.09021 29.1003 8.19021L41.8203 20.9602H30.4903C29.9403 20.9602 29.4903 21.4102 29.4903 21.9602C29.4903 22.5102 29.9403 22.9602 30.4903 22.9602H44.2303C44.6303 22.9602 45.0003 22.7202 45.1503 22.3402C45.3103 21.9702 45.2203 21.5402 44.9403 21.2502L44.9103 21.3002ZM26.0703 42.5302H11.1703L5.2503 26.9902H6.8103C9.0303 26.9902 11.2103 27.8402 12.9503 29.3802C13.0803 29.5002 13.2203 29.6202 13.3503 29.7502L26.0703 42.5302Z" fill="#323232"/>
</svg>
