<svg width="48" height="48" viewBox="0 0 48 48" fill="none" xmlns="http://www.w3.org/2000/svg">
<path d="M8.54992 13.01C11.107 13.01 13.1799 10.9371 13.1799 8.38C13.1799 5.82292 11.107 3.75 8.54992 3.75C5.99284 3.75 3.91992 5.82292 3.91992 8.38C3.91992 10.9371 5.99284 13.01 8.54992 13.01Z" fill="#8DE2E0"/>
<path d="M39.4503 44.2502C42.0074 44.2502 44.0803 42.1773 44.0803 39.6202C44.0803 37.0632 42.0074 34.9902 39.4503 34.9902C36.8932 34.9902 34.8203 37.0632 34.8203 39.6202C34.8203 42.1773 36.8932 44.2502 39.4503 44.2502Z" fill="#8DE2E0"/>
<path d="M23.9991 28.6301C26.5562 28.6301 28.6291 26.5572 28.6291 24.0001C28.6291 21.443 26.5562 19.3701 23.9991 19.3701C21.4421 19.3701 19.3691 21.443 19.3691 24.0001C19.3691 26.5572 21.4421 28.6301 23.9991 28.6301Z" fill="#8DE2E0"/>
<path d="M39.4497 33.9998C36.6897 33.9998 34.3897 35.9998 33.9197 38.6298H11.8397C8.07969 38.6298 5.02969 35.5698 5.02969 31.8198C5.02969 28.0698 8.08969 25.0098 11.8397 25.0098H18.4597C18.9297 27.6398 21.2297 29.6398 23.9897 29.6398C26.7497 29.6398 29.0497 27.6398 29.5197 25.0098H36.1397C40.9997 25.0098 44.9497 21.0598 44.9497 16.1998C44.9497 11.3398 40.9997 7.38977 36.1397 7.38977H14.0897C13.6197 4.75977 11.3197 2.75977 8.55969 2.75977C5.45969 2.75977 2.92969 5.27977 2.92969 8.38977C2.92969 11.4998 5.44969 14.0198 8.55969 14.0198C11.3197 14.0198 13.6197 12.0198 14.0897 9.38977H36.1597C39.9197 9.38977 42.9697 12.4498 42.9697 16.1998C42.9697 19.9498 39.9097 23.0098 36.1597 23.0098H29.5397C29.0697 20.3798 26.7697 18.3798 24.0097 18.3798C21.2497 18.3798 18.9497 20.3798 18.4797 23.0098H11.8597C6.99969 23.0098 3.04969 26.9598 3.04969 31.8198C3.04969 36.6798 6.99969 40.6298 11.8597 40.6298H33.9297C34.3997 43.2598 36.6997 45.2598 39.4597 45.2598C42.5597 45.2598 45.0897 42.7398 45.0897 39.6298C45.0897 36.5198 42.5697 33.9998 39.4597 33.9998H39.4497ZM8.54969 11.9998C6.54969 11.9998 4.91969 10.3698 4.91969 8.36977C4.91969 6.36977 6.54969 4.73977 8.54969 4.73977C10.5497 4.73977 12.1797 6.36977 12.1797 8.36977C12.1797 10.3698 10.5497 11.9998 8.54969 11.9998ZM23.9997 20.3698C25.9397 20.3698 27.5197 21.9098 27.6097 23.8298C27.5997 23.8898 27.5797 23.9398 27.5797 23.9998C27.5797 24.0598 27.5997 24.1098 27.6097 24.1698C27.5197 26.0898 25.9397 27.6298 23.9997 27.6298C22.0597 27.6298 20.4897 26.0998 20.3897 24.1898C20.3997 24.1298 20.4297 24.0698 20.4297 23.9998C20.4297 23.9298 20.3997 23.8798 20.3897 23.8098C20.4897 21.8998 22.0597 20.3698 23.9997 20.3698ZM39.4497 43.2498C37.4497 43.2498 35.8197 41.6198 35.8197 39.6198C35.8197 37.6198 37.4497 35.9898 39.4497 35.9898C41.4497 35.9898 43.0797 37.6198 43.0797 39.6198C43.0797 41.6198 41.4497 43.2498 39.4497 43.2498Z" fill="#323232"/>
</svg>
