<svg width="48" height="48" viewBox="0 0 48 48" fill="none" xmlns="http://www.w3.org/2000/svg">
<path fill-rule="evenodd" clip-rule="evenodd" d="M40.03 41.88C40.03 41.88 40.04 41.88 40.05 41.88C40.06 41.88 40.07 41.88 40.08 41.87C40.09 41.86 40.09 41.83 40.08 41.81C39.28 40.93 38.29 40.22 37.19 39.76L36.85 39.62C36.67 39.54 36.56 39.37 36.56 39.16C36.58 38.41 38.28 38.56 38.46 38.2L38.49 38.14C38.14 37.82 37.73 37.59 37.27 37.46C37.27 37.48 37.25 37.56 37.34 37.73C37.44 37.9 37.23 38.17 36.92 37.88L36.89 37.86C34.64 35.71 33.6 37.13 32.07 34.62C32.06 34.6 32.04 34.59 32.02 34.61C32 34.62 31.99 34.65 32 34.67C33.21 37.7 35.68 37.06 35.97 39.89C35.98 40 36.06 40.08 36.16 40.09C37.53 40.32 38.87 40.91 40.03 41.88Z" fill="#DF0000"/>
<path d="M25.4707 31.4602C24.9207 31.4602 24.4707 31.0102 24.4707 30.4602V28.4302C24.4707 27.8802 24.9207 27.4302 25.4707 27.4302C26.0207 27.4302 26.4707 27.8802 26.4707 28.4302V30.4602C26.4707 31.0102 26.0207 31.4602 25.4707 31.4602Z" fill="#323232"/>
<path d="M15.291 31.4603C14.741 31.4603 14.291 31.0103 14.291 30.4603V28.5503C14.291 28.0003 14.741 27.5503 15.291 27.5503C15.841 27.5503 16.291 28.0003 16.291 28.5503V30.4603C16.291 31.0103 15.841 31.4603 15.291 31.4603Z" fill="#323232"/>
<path d="M20.4502 31.3801C17.9302 31.3801 16.1802 30.2201 16.0702 30.1401C13.7402 28.7701 12.0002 26.5001 11.2602 23.8601C9.38023 23.4301 8.24023 21.4501 8.24023 18.4901C8.24023 17.3901 8.63023 15.8901 9.49023 15.0301C9.69023 14.8301 9.91023 14.6701 10.1502 14.5501V12.7101C10.1502 5.9001 15.4502 2.8501 20.7002 2.8501C25.2702 2.8501 30.6102 5.4501 30.6102 12.7601V14.4501C32.5202 15.0401 32.5202 17.3701 32.5202 18.4501C32.5202 22.3601 30.8402 23.4801 29.6102 23.7701C28.8102 26.4001 27.1202 28.6501 24.8002 30.1601C23.2302 31.0801 21.7302 31.3901 20.4402 31.3901L20.4502 31.3801ZM11.1402 16.3101C11.1402 16.3101 11.0302 16.3101 10.9002 16.4401C10.5302 16.8101 10.2402 17.7101 10.2402 18.4801C10.2402 19.5201 10.4202 21.9401 12.0602 21.9401C12.5302 21.9401 12.9402 22.2701 13.0402 22.7401C13.5402 25.1301 15.0302 27.2101 17.1402 28.4501C17.3102 28.5601 20.2802 30.4801 23.7602 28.4501C25.8002 27.1201 27.2702 25.0401 27.8602 22.6301C27.9702 22.1901 28.3602 21.8701 28.8202 21.8601C30.2302 21.8401 30.5302 19.9901 30.5302 18.4401C30.5302 16.5001 30.2502 16.3001 29.6202 16.3001C29.0702 16.3001 28.6202 15.8501 28.6202 15.3001V12.7501C28.6202 5.4101 22.5602 4.8401 20.7102 4.8401C16.7702 4.8401 12.1602 6.9001 12.1602 12.7001V15.3001C12.1602 15.5701 12.0502 15.8201 11.8702 16.0101C11.6802 16.2001 11.4302 16.3001 11.1602 16.3001L11.1402 16.3101Z" fill="#323232"/>
<path d="M25.3003 40.8901H5.23032C4.70032 40.8901 4.26032 40.4701 4.23032 39.9401C4.13032 37.8901 5.31032 33.6101 10.4903 32.0501L13.0103 31.2501C13.4803 31.1001 13.9903 31.3201 14.2103 31.7601C14.2603 31.8601 15.6403 34.3901 20.3803 34.3901C24.0203 34.3901 25.6603 32.6101 25.7303 32.5301C26.1003 32.1201 26.7303 32.0801 27.1403 32.4401C27.5503 32.8001 27.6003 33.4301 27.2403 33.8401C27.1503 33.9401 24.9803 36.3801 20.3803 36.3801C15.7803 36.3801 13.7903 34.4601 12.9103 33.3701L11.0803 33.9501C7.51032 35.0201 6.56032 37.5001 6.31032 38.8801H25.3003C25.8503 38.8801 26.3003 39.3301 26.3003 39.8801C26.3003 40.4301 25.8503 40.8801 25.3003 40.8801V40.8901Z" fill="#323232"/>
<path d="M35.9108 46.0999C31.5808 46.0999 28.0508 42.5799 28.0508 38.2399C28.0508 33.8999 31.5708 30.3799 35.9108 30.3799C40.2508 30.3799 43.7708 33.8999 43.7708 38.2399C43.7708 42.5799 40.2508 46.0999 35.9108 46.0999ZM35.9108 32.3899C32.6808 32.3899 30.0508 35.0199 30.0508 38.2499C30.0508 41.4799 32.6808 44.1099 35.9108 44.1099C39.1408 44.1099 41.7708 41.4799 41.7708 38.2499C41.7708 35.0199 39.1408 32.3899 35.9108 32.3899Z" fill="#323232"/>
<path d="M29.6104 15.0402C29.0904 15.0402 28.6504 14.6302 28.6104 14.1102C28.5804 13.6902 28.2004 9.9502 24.5204 9.9502C22.5604 9.9502 21.3904 10.8202 19.9104 11.9202C18.0304 13.3102 15.6904 15.0502 11.1504 15.0502C10.6004 15.0502 10.1504 14.6002 10.1504 14.0502C10.1504 13.5002 10.6004 13.0502 11.1504 13.0502C15.0304 13.0502 16.9004 11.6602 18.7204 10.3102C20.2804 9.1502 21.9004 7.9502 24.5204 7.9502C29.0204 7.9502 30.4704 11.8902 30.6104 13.9802C30.6504 14.5302 30.2304 15.0102 29.6804 15.0402C29.6604 15.0402 29.6404 15.0402 29.6104 15.0402Z" fill="#323232"/>
</svg>
