<svg width="48" height="48" viewBox="0 0 48 48" fill="none" xmlns="http://www.w3.org/2000/svg">
<path d="M11.0508 35.6401H36.9508L36.1008 44.1001H11.9008L11.0508 35.6401Z" fill="#8DE2E0"/>
<path d="M42.1496 2.8501H5.84961C5.29961 2.8501 4.84961 3.3001 4.84961 3.8501C4.84961 4.4001 5.29961 4.8501 5.84961 4.8501H6.95961L10.8996 44.2001C10.9496 44.7101 11.3796 45.1001 11.8996 45.1001H36.0996C36.6096 45.1001 37.0396 44.7101 37.0996 44.2001L41.0396 4.8501H42.1496C42.6996 4.8501 43.1496 4.4001 43.1496 3.8501C43.1496 3.3001 42.6996 2.8501 42.1496 2.8501ZM35.1896 43.1001H12.8096L8.96961 4.8501H39.0196L35.1896 43.1001Z" fill="#323232"/>
<path d="M21.0099 20.67C20.6499 20.25 20.0199 20.2 19.5999 20.56L19.1399 20.96C19.8699 18.89 21.8199 17.47 24.0399 17.47C24.4899 17.47 24.9399 17.53 25.3799 17.65C26.2499 17.88 27.0799 18.35 27.7899 19C28.1899 19.38 28.8299 19.35 29.1999 18.95C29.5799 18.55 29.5499 17.91 29.1499 17.54C28.2099 16.66 27.0799 16.03 25.8999 15.72C25.2899 15.56 24.6699 15.48 24.0399 15.48C20.8099 15.48 17.9699 17.65 17.0899 20.76L16.6999 20.23C16.3699 19.79 15.7499 19.69 15.2999 20.02C14.8599 20.35 14.7599 20.97 15.0899 21.42L16.9999 24.01C17.1599 24.23 17.4199 24.38 17.6899 24.41C17.7299 24.41 17.7699 24.41 17.7999 24.41C18.0399 24.41 18.2699 24.33 18.4499 24.17L20.8899 22.09C21.3099 21.73 21.3599 21.1 20.9999 20.68L21.0099 20.67Z" fill="#DF0000"/>
<path d="M32.8993 23.8802L30.9893 21.2802C30.8193 21.0602 30.5693 20.9102 30.2993 20.8802C30.0193 20.8502 29.7493 20.9302 29.5393 21.1102L27.0993 23.1902C26.6793 23.5502 26.6293 24.1802 26.9893 24.6002C27.3493 25.0202 27.9793 25.0702 28.3993 24.7102L28.8593 24.3102C28.1293 26.3802 26.1793 27.8002 23.9593 27.8002C23.5093 27.8002 23.0593 27.7402 22.6193 27.6202C21.7493 27.3902 20.9093 26.9202 20.2193 26.2702C19.8193 25.8902 19.1793 25.9202 18.8093 26.3202C18.4293 26.7202 18.4593 27.3602 18.8593 27.7302C19.7993 28.6102 20.9293 29.2402 22.1193 29.5502C22.7293 29.7102 23.3493 29.7902 23.9793 29.7902C27.2193 29.7902 30.0493 27.6202 30.9293 24.5102L31.3193 25.0402C31.5193 25.3102 31.8193 25.4502 32.1293 25.4502C32.3393 25.4502 32.5393 25.3902 32.7193 25.2602C33.1593 24.9302 33.2593 24.3102 32.9293 23.8602L32.8993 23.8802Z" fill="#DF0000"/>
</svg>
