<svg width="24" height="24" viewBox="0 0 24 24" fill="none" xmlns="http://www.w3.org/2000/svg">
<path d="M20.3354 11.8124C19.7815 12.3662 18.5754 12.84 17.9815 13.0616C17.1723 13.3693 16.8123 13.4739 16.36 13.6216C15.8492 13.7877 14.8215 14.0985 14.8215 14.0985C16.0078 14.4621 17.2193 14.7378 18.4462 14.9231C19.0682 14.7066 19.6704 14.4368 20.2462 14.117C20.6462 13.9362 21.0182 13.6989 21.3508 13.4124C21.5173 13.2697 21.6364 13.0797 21.6923 12.8677C21.6954 12.8268 21.6954 12.7856 21.6923 12.7447C21.6923 12.7447 21.6923 12.7108 21.6923 12.68C21.6946 12.6596 21.6946 12.639 21.6923 12.6185C21.6849 12.5822 21.6757 12.5462 21.6646 12.5108C21.6198 12.4071 21.5526 12.3146 21.4677 12.24C21.2771 12.0674 21.0499 11.9401 20.8031 11.8677C20.6678 11.8249 20.5301 11.79 20.3908 11.7631L20.3354 11.8124Z" fill="url(#paint0_linear_10470_4201)"/>
<path d="M21.6923 12.7324C21.6901 12.6949 21.6839 12.6577 21.6738 12.6216C21.6618 12.574 21.6409 12.5291 21.6123 12.4893C21.5674 12.4219 21.5147 12.3599 21.4554 12.3047C21.3976 12.2518 21.3359 12.2035 21.2708 12.16C20.967 11.9756 20.6269 11.8591 20.2738 11.8185C19.89 11.773 19.5034 11.7534 19.1169 11.76C18.9262 11.76 17.7046 11.76 17.3908 11.76C15.9938 11.7877 14.2831 11.7939 13.8369 11.7939C9.22154 11.8124 7.20308 11.7139 4.96308 11.2647C3.96191 11.0813 2.97249 10.8389 2 10.5385C3.68 10.48 13.4862 10.0739 15.2738 10.0277C16.4462 9.99389 17.2769 9.98774 17.9415 10.0277C18.2964 10.0455 18.6498 10.0845 19 10.1447C19.2962 10.1984 19.5875 10.2766 19.8708 10.3785C20.2156 10.4897 20.5253 10.6891 20.7692 10.957C20.811 11.0007 20.8501 11.0469 20.8862 11.0954C20.96 11.2 21.0462 11.3262 21.0769 11.3754C21.2239 11.5922 21.3565 11.8183 21.4738 12.0524C21.5169 12.1385 21.5569 12.2247 21.5938 12.3108C21.6308 12.397 21.6431 12.4493 21.6554 12.4831C21.6711 12.5458 21.6824 12.6096 21.6892 12.6739L21.6923 12.7324Z" fill="#CE210F"/>
<defs>
<linearGradient id="paint0_linear_10470_4201" x1="15.7718" y1="11.7365" x2="14.731" y2="15.0548" gradientUnits="userSpaceOnUse">
<stop stop-color="#E6EBEF"/>
<stop offset="0.08" stop-color="#BBCEE5"/>
<stop offset="0.19" stop-color="#85A9D8"/>
<stop offset="0.28" stop-color="#5D8FCF"/>
<stop offset="0.35" stop-color="#457EC9"/>
<stop offset="0.4" stop-color="#3C78C7"/>
<stop offset="0.9" stop-color="#2E5C99"/>
</linearGradient>
</defs>
</svg>
