<svg width="48" height="48" viewBox="0 0 48 48" fill="none" xmlns="http://www.w3.org/2000/svg">
<path d="M28.3996 40.8501H19.5996C19.0496 40.8501 18.5996 40.4001 18.5996 39.8501C18.5996 39.3001 19.0496 38.8501 19.5996 38.8501H28.3996C28.9496 38.8501 29.3996 39.3001 29.3996 39.8501C29.3996 40.4001 28.9496 40.8501 28.3996 40.8501Z" fill="#323232"/>
<path d="M32.8005 45.25H15.2005C13.1905 45.25 11.5605 43.62 11.5605 41.61V6.39C11.5605 4.38 13.1905 2.75 15.2005 2.75H32.8105C34.8205 2.75 36.4505 4.38 36.4505 6.39V41.61C36.4505 43.62 34.8205 45.25 32.8105 45.25H32.8005ZM15.2005 4.75C14.3005 4.75 13.5605 5.49 13.5605 6.39V41.61C13.5605 42.51 14.3005 43.25 15.2005 43.25H32.8105C33.7105 43.25 34.4505 42.51 34.4505 41.61V6.39C34.4505 5.49 33.7105 4.75 32.8105 4.75H15.2005Z" fill="#323232"/>
<path d="M24.6703 18.3901H23.3203V19.7401H24.6703V18.3901Z" fill="#8DE2E0"/>
<path d="M29.8305 23.5298H28.4805V24.8798H29.8305V23.5298Z" fill="#8DE2E0"/>
<path d="M31.1801 14.5999V13.2499H29.8301V11.8999H25.7801V13.2499H20.8801V11.8999H18.1801V13.2499V14.5999H16.8301V15.9499H18.1801V14.5999H19.5301V15.9499H20.8801V14.5999H25.7801V15.9499H20.8801V17.2999H19.5301V15.9499H18.1801V17.2999H16.8301V18.6499H18.1801V20.8299H16.8301V23.5299V24.8799H18.1801V26.2299H19.5301V24.8799V23.5299H20.8801V24.8699V26.2199H22.2301V24.8699H24.4201V26.2199H27.1201V24.8699V23.5199H28.4701V22.1699H27.1201V23.5199H25.7701V22.1699H27.1201V20.8199H28.4701V22.1699H29.8201V23.5199H31.1701V19.4699H29.8201V17.2899H31.1701V15.9399H29.8201V14.5899H31.1701L31.1801 14.5999ZM20.8801 14.5899H19.5301V13.2499H20.8801V14.5899ZM22.2301 17.2999H25.7601V20.8399H22.2301V17.2999ZM19.5301 22.1799V23.5299H18.1801V22.1799H19.5301V19.9999H20.8801V22.1799H19.5301ZM25.7801 24.8799H24.4301V23.5399H25.7801V24.8799ZM24.4301 23.5299H22.2401V22.1799H24.4301V23.5299ZM25.7801 13.2499H27.1301V14.5899H25.7801V13.2499ZM28.4801 17.2999V19.4799H27.1301V15.9399H28.4801V17.2899V17.2999ZM28.4801 14.5899V13.2499H29.8301V14.5899H28.4801Z" fill="#8DE2E0"/>
<path d="M31.1801 24.8901H29.8301V26.2401H31.1801V24.8901Z" fill="#8DE2E0"/>
</svg>
