<svg width="48" height="48" viewBox="0 0 48 48" fill="none" xmlns="http://www.w3.org/2000/svg">
<path d="M16.2896 8.08008L12.8096 39.9401H17.8296L21.3096 8.08008H16.2896Z" fill="#8DE2E0"/>
<path d="M30.7 19.48L28.71 39.94H32.24L34.23 19.48H30.7Z" fill="#8DE2E0"/>
<path d="M22.0596 7.41008C21.8696 7.20008 21.5996 7.08008 21.3196 7.08008H3.74957C3.46957 7.08008 3.19957 7.20008 3.00957 7.41008C2.81957 7.62008 2.72957 7.90008 2.75957 8.19008L6.23957 40.0001V44.1701C6.23957 44.7201 6.68957 45.1701 7.23957 45.1701H17.8296C18.3796 45.1701 18.8296 44.7201 18.8296 44.1701V40.0001L22.3096 8.19008C22.3396 7.91008 22.2496 7.63008 22.0596 7.41008ZM16.8296 43.1701H8.23957V40.9401H16.8296V43.1701ZM16.9296 38.9401H8.12957L4.85957 9.08008H20.1896L16.9196 38.9401H16.9296Z" fill="#323232"/>
<path d="M34.9693 18.8101C34.7793 18.6001 34.5093 18.4801 34.2293 18.4801H24.1793C23.8993 18.4801 23.6293 18.6001 23.4393 18.8101C23.2493 19.0201 23.1593 19.3001 23.1893 19.5801L25.1793 39.9901V44.1701C25.1793 44.7201 25.6293 45.1701 26.1793 45.1701H32.2393C32.7893 45.1701 33.2393 44.7201 33.2393 44.1701V39.9901L35.2293 19.5801C35.2593 19.3001 35.1693 19.0201 34.9793 18.8101H34.9693ZM33.1293 20.4801L31.3293 38.9401H27.0793L25.2793 20.4801H33.1293ZM31.2393 43.1701H27.1793V40.9401H31.2393V43.1701Z" fill="#323232"/>
<path d="M38.3291 2.83008C37.7791 2.83008 37.3291 3.28008 37.3291 3.83008V44.1601C37.3291 44.7101 37.7791 45.1601 38.3291 45.1601C38.8791 45.1601 39.3291 44.7101 39.3291 44.1601V3.83008C39.3291 3.28008 38.8791 2.83008 38.3291 2.83008Z" fill="#323232"/>
<path d="M40.7695 4.83008H44.2495C44.7995 4.83008 45.2495 4.38008 45.2495 3.83008C45.2495 3.28008 44.7995 2.83008 44.2495 2.83008H40.7695C40.2195 2.83008 39.7695 3.28008 39.7695 3.83008C39.7695 4.38008 40.2195 4.83008 40.7695 4.83008Z" fill="#323232"/>
<path d="M44.2495 5.41003H40.7695C40.2195 5.41003 39.7695 5.86003 39.7695 6.41003C39.7695 6.96003 40.2195 7.41003 40.7695 7.41003H44.2495C44.7995 7.41003 45.2495 6.96003 45.2495 6.41003C45.2495 5.86003 44.7995 5.41003 44.2495 5.41003Z" fill="#323232"/>
<path d="M44.2495 7.99011H40.7695C40.2195 7.99011 39.7695 8.44011 39.7695 8.99011C39.7695 9.54011 40.2195 9.99011 40.7695 9.99011H44.2495C44.7995 9.99011 45.2495 9.54011 45.2495 8.99011C45.2495 8.44011 44.7995 7.99011 44.2495 7.99011Z" fill="#323232"/>
<path d="M44.2495 10.5701H40.7695C40.2195 10.5701 39.7695 11.0201 39.7695 11.5701C39.7695 12.1201 40.2195 12.5701 40.7695 12.5701H44.2495C44.7995 12.5701 45.2495 12.1201 45.2495 11.5701C45.2495 11.0201 44.7995 10.5701 44.2495 10.5701Z" fill="#323232"/>
</svg>
