<svg width="48" height="48" viewBox="0 0 48 48" fill="none" xmlns="http://www.w3.org/2000/svg">
<path d="M30.8693 37.5298C30.5993 37.5298 30.3493 37.4198 30.1593 37.2398L26.7593 33.8398C26.3693 33.4498 26.3693 32.8198 26.7593 32.4298C27.1493 32.0398 27.7793 32.0398 28.1693 32.4298L30.8593 35.1198L36.9493 29.0298C37.3393 28.6398 37.9693 28.6398 38.3593 29.0298C38.7493 29.4198 38.7493 30.0498 38.3593 30.4398L31.5593 37.2398C31.3693 37.4298 31.1193 37.5298 30.8493 37.5298H30.8693Z" fill="#DF0000"/>
<path d="M32.57 21.8105C26.33 21.8105 21.25 26.8905 21.25 33.1305C21.25 39.3705 26.33 44.4505 32.57 44.4505C38.81 44.4505 43.89 39.3705 43.89 33.1305C43.89 26.8905 38.81 21.8105 32.57 21.8105ZM32.57 42.4505C27.43 42.4505 23.25 38.2705 23.25 33.1305C23.25 27.9905 27.43 23.8105 32.57 23.8105C37.71 23.8105 41.89 27.9905 41.89 33.1305C41.89 38.2705 37.71 42.4505 32.57 42.4505Z" fill="#323232"/>
<path d="M23.9994 43.1201H6.10938V4.88012H21.9994V15.8101C21.9994 16.3601 22.4494 16.8101 22.9994 16.8101H33.9294V19.3801C33.9294 19.9301 34.3794 20.3801 34.9294 20.3801C35.4794 20.3801 35.9294 19.9301 35.9294 19.3801V15.8101C35.9294 15.6801 35.8994 15.5501 35.8494 15.4201C35.7994 15.3001 35.7294 15.1901 35.6294 15.1001L23.7094 3.17012C23.6194 3.08012 23.5094 3.01012 23.3894 2.95012C23.2694 2.90012 23.1394 2.87012 23.0094 2.87012H5.10938C4.55937 2.87012 4.10938 3.32012 4.10938 3.87012V44.1201C4.10938 44.6701 4.55937 45.1201 5.10938 45.1201H23.9994C24.5494 45.1201 24.9994 44.6701 24.9994 44.1201C24.9994 43.5701 24.5494 43.1201 23.9994 43.1201ZM23.9994 6.29012L32.5094 14.8001H23.9994V6.29012Z" fill="#323232"/>
</svg>
