<svg width="48" height="48" viewBox="0 0 48 48" fill="none" xmlns="http://www.w3.org/2000/svg">
<path d="M45.2506 28.6799C44.7006 28.6799 44.2506 28.2299 44.2506 27.6799C44.2506 16.5099 35.1706 7.42992 24.0006 7.42992C19.3706 7.42992 15.0106 8.94992 11.4006 11.8299C10.9706 12.1699 10.3406 12.0999 9.99056 11.6699C9.65056 11.2399 9.72056 10.6099 10.1506 10.2599C14.1206 7.09992 18.9106 5.41992 24.0006 5.41992C36.2706 5.41992 46.2506 15.3999 46.2506 27.6699C46.2506 28.2199 45.8006 28.6699 45.2506 28.6699V28.6799Z" fill="#8DE2E0"/>
<path d="M2.75 28.6797C2.2 28.6797 1.75 28.2297 1.75 27.6797C1.75 24.0297 2.65 20.3997 4.37 17.1997C4.63 16.7097 5.24 16.5297 5.72 16.7897C6.21 17.0497 6.39 17.6597 6.13 18.1397C4.57 21.0497 3.75 24.3497 3.75 27.6697C3.75 28.2197 3.3 28.6697 2.75 28.6697V28.6797Z" fill="#8DE2E0"/>
<path d="M40.2693 28.6804C39.7193 28.6804 39.2693 28.2304 39.2693 27.6804C39.2693 19.2604 32.4193 12.4104 23.9993 12.4104C20.7293 12.4104 17.6093 13.4304 14.9893 15.3504C14.5493 15.6804 13.9193 15.5804 13.5893 15.1304C13.2593 14.6804 13.3593 14.0604 13.8093 13.7304C16.7793 11.5504 20.3093 10.4004 24.0093 10.4004C33.5293 10.4004 41.2793 18.1504 41.2793 27.6704C41.2793 28.2204 40.8293 28.6704 40.2793 28.6704L40.2693 28.6804Z" fill="#DF0000"/>
<path d="M7.73047 28.6801C7.18047 28.6801 6.73047 28.2301 6.73047 27.6801C6.73047 25.6101 7.09047 23.5801 7.81047 21.6501C8.00047 21.1301 8.58047 20.8701 9.10047 21.0601C9.62047 21.2501 9.88047 21.8301 9.69047 22.3501C9.06047 24.0501 8.73047 25.8501 8.73047 27.6801C8.73047 28.2301 8.28047 28.6801 7.73047 28.6801Z" fill="#DF0000"/>
<path d="M35.3598 28.6803C34.8098 28.6803 34.3598 28.2303 34.3598 27.6803C34.3598 21.9703 29.7098 17.3203 23.9998 17.3203C22.7898 17.3203 21.5998 17.5303 20.4698 17.9403C19.9498 18.1303 19.3798 17.8603 19.1898 17.3403C18.9998 16.8203 19.2698 16.2503 19.7898 16.0603C21.1398 15.5703 22.5498 15.3203 23.9998 15.3203C30.8098 15.3203 36.3598 20.8603 36.3598 27.6803C36.3598 28.2303 35.9098 28.6803 35.3598 28.6803Z" fill="#323232"/>
<path d="M12.6406 28.6798C12.0906 28.6798 11.6406 28.2298 11.6406 27.6798C11.6406 26.5098 11.8006 25.3498 12.1306 24.2398C12.2806 23.7098 12.8406 23.3998 13.3706 23.5598C13.9006 23.7098 14.2106 24.2698 14.0506 24.7998C13.7806 25.7298 13.6406 26.6998 13.6406 27.6898C13.6406 28.2398 13.1906 28.6898 12.6406 28.6898V28.6798Z" fill="#323232"/>
<path fill-rule="evenodd" clip-rule="evenodd" d="M39.1903 41.5401C39.1903 41.5401 39.2503 41.5701 39.2703 41.5701C39.3303 41.5701 39.3503 41.5701 39.4103 41.5101C39.4603 41.4501 39.4603 41.3401 39.4103 41.2801C36.1103 37.6601 32.0503 34.7301 27.5303 32.8501L26.1403 32.2701C25.4203 31.9501 24.9403 31.2301 24.9403 30.3901C25.0203 27.2901 32.0203 27.9301 32.7403 26.4501L32.8503 26.1901C31.4103 24.8901 29.7103 23.9301 27.8203 23.3801C27.7903 23.4701 27.7403 23.8101 28.1203 24.4801C28.5403 25.1701 27.6803 26.3001 26.4003 25.0901L26.2903 25.0001C17.0203 16.1401 12.7403 21.9901 6.44032 11.6801C6.38032 11.5901 6.30032 11.5601 6.22032 11.6201C6.14032 11.6801 6.11032 11.7601 6.14032 11.8501C11.1103 24.3301 21.2703 21.7001 22.4603 33.3401C22.5203 33.7701 22.8203 34.1201 23.2403 34.1801C28.8803 35.1101 34.3703 37.5401 39.1503 41.5401H39.1803" fill="#DF0000"/>
</svg>
