<svg width="48" height="48" viewBox="0 0 48 48" fill="none" xmlns="http://www.w3.org/2000/svg">
<path d="M39.549 46.2203H8.44905C6.58905 46.2203 5.08905 44.7603 5.02905 42.9003L4.19905 14.8403C4.16905 13.9103 4.51905 13.0303 5.15905 12.3603C5.80905 11.6903 6.67905 11.3203 7.60905 11.3203H8.64905C9.19905 11.3203 9.64905 11.7703 9.64905 12.3203C9.64905 12.8703 9.19905 13.3203 8.64905 13.3203H7.60905C7.21905 13.3203 6.85905 13.4703 6.58905 13.7503C6.31905 14.0303 6.17905 14.3903 6.18905 14.7803L7.01905 42.8403C7.03905 43.6103 7.66905 44.2203 8.43905 44.2203H39.549C40.319 44.2203 40.949 43.6103 40.969 42.8403L41.799 14.7803C41.809 14.3903 41.669 14.0303 41.399 13.7503C41.129 13.4703 40.769 13.3203 40.379 13.3203H39.349C38.799 13.3203 38.349 12.8703 38.349 12.3203C38.349 11.7703 38.799 11.3203 39.349 11.3203H40.379C41.309 11.3203 42.179 11.6903 42.829 12.3603C43.479 13.0303 43.819 13.9103 43.789 14.8403L42.959 42.9003C42.899 44.7603 41.399 46.2203 39.539 46.2203H39.549Z" fill="#323232"/>
<path d="M24.0006 26.9497C17.0406 26.9497 11.3906 21.2897 11.3906 14.3397C11.3906 7.38973 17.0406 1.71973 24.0006 1.71973C25.2706 1.71973 26.5206 1.90973 27.7306 2.27973C28.2606 2.43973 28.5506 2.99973 28.3906 3.52973C28.2306 4.05973 27.6706 4.34973 27.1406 4.18973C26.1306 3.87973 25.0706 3.71973 24.0006 3.71973C18.1506 3.71973 13.3906 8.47973 13.3906 14.3297C13.3906 20.1797 18.1506 24.9397 24.0006 24.9397C29.8506 24.9397 34.6106 20.1797 34.6106 14.3297C34.6106 12.7597 34.2806 11.2497 33.6206 9.83973C33.3906 9.33973 33.6006 8.73973 34.1006 8.50973C34.6006 8.27973 35.1906 8.48973 35.4306 8.98973C36.2206 10.6697 36.6106 12.4597 36.6106 14.3197C36.6106 21.2797 30.9506 26.9297 24.0006 26.9297V26.9497Z" fill="#323232"/>
<path d="M24.9808 15.4397L32.5908 5.60965C32.7708 5.37965 32.7508 5.03965 32.5408 4.82965C32.3308 4.61965 32.0008 4.59965 31.7708 4.77965L21.9308 12.3797C20.9908 13.1197 20.8208 14.4897 21.5708 15.4297C22.3108 16.3697 23.6808 16.5397 24.6208 15.7897C24.7508 15.6797 24.8808 15.5597 24.9808 15.4197" fill="#DF0000"/>
<path d="M36.0694 41.5396H11.9294C11.4294 41.5396 11.0094 41.0596 10.9594 40.4296L10.6694 36.7397C10.6094 36.0197 11.0594 35.3896 11.6394 35.3896H36.3594C36.9394 35.3896 37.3894 36.0197 37.3294 36.7397L37.0394 40.4296C36.9894 41.0596 36.5694 41.5396 36.0694 41.5396Z" fill="#8DE2E0"/>
</svg>
