<svg width="48" height="48" viewBox="0 0 48 48" fill="none" xmlns="http://www.w3.org/2000/svg">
<path d="M35.9805 32.0902V39.1402C41.5105 36.6002 45.1405 32.3402 45.1405 27.5202V20.4702C45.1405 25.2902 41.5105 29.5402 35.9805 32.0902Z" fill="#8DE2E0"/>
<path d="M35.9802 31.7502V32.0902C41.5102 29.5502 45.1402 25.2902 45.1402 20.4702H23.9902L29.6302 25.7802L35.9702 31.7502H35.9802Z" fill="#8DE2E0"/>
<path d="M46.1496 20.4701C46.1496 12.1401 36.2096 5.37012 23.9996 5.37012C11.7896 5.37012 1.84961 12.1501 1.84961 20.4701V27.5201C1.84961 35.8501 11.7896 42.6201 23.9896 42.6201C24.0796 42.6201 24.1696 42.6201 24.2696 42.6201C28.4696 42.6201 32.5496 41.7601 36.3896 40.0501C42.4896 37.2501 46.1396 32.5601 46.1396 27.5301V20.4801L46.1496 20.4701ZM43.3796 24.0301C43.3496 24.0901 43.3296 24.1501 43.2996 24.2101C43.1296 24.5901 42.9196 24.9501 42.6996 25.3201C42.6596 25.3901 42.6096 25.4601 42.5696 25.5301C42.3396 25.8901 42.0796 26.2501 41.7996 26.5901C41.7596 26.6401 41.7096 26.6901 41.6696 26.7401C41.3796 27.0901 41.0696 27.4201 40.7296 27.7501C40.7096 27.7701 40.6896 27.7901 40.6696 27.8101C40.3196 28.1401 39.9396 28.4601 39.5496 28.7801C39.4796 28.8301 39.4196 28.8901 39.3496 28.9401C38.9596 29.2401 38.5496 29.5301 38.1196 29.8001C38.0396 29.8501 37.9496 29.9001 37.8696 29.9601C37.4196 30.2401 36.9596 30.5001 36.4696 30.7601C36.4496 30.7601 36.4296 30.7801 36.4196 30.7901L26.5396 21.4901H44.0996C44.0996 21.4901 44.0896 21.5701 44.0796 21.6101C43.9696 22.4401 43.7396 23.2501 43.3896 24.0401L43.3796 24.0301ZM44.0696 19.4701H24.9996V7.39012C35.1396 7.71012 43.3096 12.9301 44.0696 19.4701ZM22.9996 7.39012V20.4701C22.9996 20.4701 23.0096 20.5101 23.0096 20.5301C23.0096 20.6201 23.0296 20.7101 23.0596 20.7901C23.0696 20.8301 23.0796 20.8601 23.0996 20.8901C23.1396 20.9701 23.1896 21.0501 23.2496 21.1201C23.2696 21.1401 23.2796 21.1601 23.2896 21.1801C23.2896 21.1801 23.2896 21.1801 23.2996 21.1901L34.3996 31.6401C34.2596 31.7001 34.1096 31.7501 33.9696 31.8101C33.7096 31.9101 33.4496 32.0001 33.1896 32.0901C33.0096 32.1501 32.8296 32.2101 32.6496 32.2701C32.3396 32.3701 32.0296 32.4601 31.7196 32.5501C31.5896 32.5901 31.4596 32.6301 31.3196 32.6601C30.9496 32.7601 30.5696 32.8501 30.1896 32.9301C30.1196 32.9501 30.0396 32.9601 29.9696 32.9801C29.5396 33.0701 29.0996 33.1501 28.6596 33.2201C28.6396 33.2201 28.6096 33.2201 28.5896 33.2301C28.1196 33.3001 27.6496 33.3601 27.1796 33.4101C27.1796 33.4101 27.1696 33.4101 27.1596 33.4101C26.7096 33.4601 26.2596 33.4901 25.8096 33.5201C25.7696 33.5201 25.7296 33.5201 25.6896 33.5201C25.3296 33.5401 24.9596 33.5401 24.5996 33.5501C24.3996 33.5501 24.1996 33.5601 23.9896 33.5501C12.8796 33.5501 3.83961 27.6701 3.83961 20.4501C3.83961 13.2301 12.3496 7.73012 22.9996 7.39012ZM23.9996 40.6201C12.8896 40.6201 3.84961 34.7401 3.84961 27.5201V26.7401C3.84961 26.7401 3.89961 26.8001 3.91961 26.8301C4.11961 27.1201 4.32961 27.4101 4.54961 27.6801C4.55961 27.7001 4.57961 27.7101 4.58961 27.7301C4.79961 27.9901 5.02961 28.2501 5.26961 28.5101C5.32961 28.5801 5.38961 28.6401 5.44961 28.7101C5.69961 28.9701 5.95961 29.2301 6.23961 29.4901C6.51961 29.7501 6.81961 29.9901 7.11961 30.2401C7.18961 30.3001 7.25961 30.3501 7.32961 30.4101C7.60961 30.6301 7.89961 30.8401 8.19961 31.0501C8.22961 31.0701 8.25961 31.0901 8.28961 31.1101C8.61961 31.3401 8.95961 31.5501 9.30961 31.7601C9.38961 31.8101 9.45961 31.8501 9.53961 31.9001C9.84961 32.0801 10.1696 32.2601 10.4896 32.4301C10.5396 32.4601 10.5896 32.4901 10.6396 32.5101C11.0096 32.7001 11.3996 32.8901 11.7896 33.0601C11.8596 33.0901 11.9396 33.1301 12.0196 33.1601C12.3596 33.3101 12.7196 33.4601 13.0696 33.6001C13.1396 33.6301 13.2096 33.6501 13.2696 33.6801C13.6796 33.8401 14.1096 33.9901 14.5396 34.1201C14.6096 34.1401 14.6696 34.1601 14.7396 34.1801C15.1196 34.3001 15.5096 34.4101 15.8996 34.5201C15.9796 34.5401 16.0696 34.5701 16.1496 34.5901C16.5996 34.7101 17.0596 34.8101 17.5196 34.9101C17.5696 34.9201 17.6196 34.9301 17.6696 34.9401C18.0896 35.0201 18.5096 35.1001 18.9296 35.1701C19.0296 35.1901 19.1296 35.2001 19.2296 35.2201C19.7096 35.2901 20.1896 35.3501 20.6696 35.4001C20.6996 35.4001 20.7296 35.4001 20.7596 35.4001C21.2096 35.4501 21.6696 35.4801 22.1296 35.5001C22.2496 35.5001 22.3696 35.5101 22.4796 35.5201C22.9696 35.5401 23.4696 35.5601 23.9696 35.5601C24.0596 35.5601 24.1496 35.5601 24.2496 35.5601C24.3496 35.5601 24.4496 35.5601 24.5396 35.5601C24.9396 35.5601 25.3396 35.5501 25.7396 35.5301C25.8096 35.5301 25.8796 35.5301 25.9396 35.5201C26.3896 35.5001 26.8496 35.4601 27.2996 35.4101C27.3496 35.4101 27.4096 35.4001 27.4596 35.3901C27.9096 35.3401 28.3696 35.2801 28.8196 35.2101C28.8796 35.2101 28.9396 35.1901 29.0096 35.1801C29.4396 35.1101 29.8696 35.0301 30.2896 34.9401C30.3696 34.9201 30.4596 34.9101 30.5496 34.8901C30.9396 34.8001 31.3396 34.7101 31.7296 34.6101C31.8396 34.5801 31.9496 34.5601 32.0596 34.5301C32.4296 34.4301 32.7896 34.3201 33.1596 34.2101C33.2796 34.1701 33.4096 34.1401 33.5296 34.1001C33.9396 33.9701 34.3396 33.8201 34.7396 33.6701C34.8096 33.6401 34.8796 33.6201 34.9496 33.6001C34.9496 33.6001 34.9696 33.6001 34.9796 33.5901V38.4901C31.4896 39.9501 27.8096 40.6701 23.9996 40.6301V40.6201ZM44.1496 27.5201C44.1496 31.3701 41.4996 35.0201 36.9896 37.5101V32.7101C37.0796 32.6701 37.1596 32.6201 37.2396 32.5801C37.4396 32.4801 37.6396 32.3701 37.8396 32.2601C38.0096 32.1701 38.1796 32.0801 38.3396 31.9801C38.5296 31.8701 38.7196 31.7501 38.9096 31.6401C39.0696 31.5401 39.2196 31.4501 39.3796 31.3501C39.5696 31.2301 39.7396 31.1001 39.9196 30.9801C40.0596 30.8801 40.2096 30.7801 40.3496 30.6701C40.5296 30.5401 40.6896 30.4101 40.8596 30.2701C40.9896 30.1601 41.1296 30.0601 41.2496 29.9501C41.4196 29.8101 41.5696 29.6701 41.7296 29.5201C41.8496 29.4101 41.9696 29.3101 42.0796 29.2001C42.2396 29.0501 42.3796 28.8901 42.5296 28.7401C42.6296 28.6301 42.7396 28.5301 42.8396 28.4201C42.9896 28.2501 43.1396 28.0701 43.2796 27.9001C43.3596 27.8001 43.4496 27.7101 43.5196 27.6101C43.6996 27.3801 43.8696 27.1501 44.0296 26.9101C44.0596 26.8601 44.0996 26.8201 44.1296 26.7701V27.5301L44.1496 27.5201Z" fill="#323232"/>
</svg>
