<svg width="48" height="48" viewBox="0 0 48 48" fill="none" xmlns="http://www.w3.org/2000/svg">
<path d="M20.9395 17.7798L23.9995 23.7898L27.0595 17.7798" fill="#8DE2E0"/>
<path d="M23.9602 15.8098H24.0002C26.6002 15.8098 28.7302 13.6998 28.7602 11.0998C28.7702 9.8298 28.2902 8.6298 27.4002 7.7198C26.5102 6.8098 25.3202 6.3098 24.0502 6.2998H24.0102C21.4102 6.2998 19.2802 8.4098 19.2502 11.0098C19.2402 12.2798 19.7202 13.4798 20.6102 14.3898C21.5002 15.2998 22.6902 15.7998 23.9602 15.8098ZM24.0002 8.2998H24.0302C25.5502 8.3098 26.7702 9.5598 26.7602 11.0798C26.7602 11.8198 26.4602 12.5098 25.9402 13.0198C25.4202 13.5298 24.7402 13.8098 24.0102 13.8098H23.9802C23.2402 13.8098 22.5502 13.5098 22.0402 12.9798C21.5302 12.4498 21.2402 11.7598 21.2502 11.0198C21.2602 9.5098 22.5002 8.2898 24.0102 8.2898L24.0002 8.2998Z" fill="#323232"/>
<path d="M15.209 20.6498V24.6898C15.209 25.2398 15.659 25.6898 16.209 25.6898C16.759 25.6898 17.209 25.2398 17.209 24.6898V20.6498C17.209 19.6198 18.049 18.7798 19.079 18.7798H20.319L23.109 24.2398C23.279 24.5698 23.619 24.7898 23.999 24.7898C24.379 24.7898 24.719 24.5798 24.889 24.2398L27.679 18.7798H28.919C29.949 18.7798 30.789 19.6198 30.789 20.6498V24.8398C30.789 25.3898 31.239 25.8398 31.789 25.8398C32.339 25.8398 32.789 25.3898 32.789 24.8398V20.6498C32.789 18.5098 31.049 16.7798 28.919 16.7798H19.089C16.949 16.7798 15.219 18.5198 15.219 20.6498H15.209ZM23.999 21.5798L22.569 18.7798H25.429L23.999 21.5798Z" fill="#323232"/>
<path d="M34.0402 10.7598H34.0902C35.3402 10.7598 36.5202 10.2798 37.4202 9.39976C38.3302 8.50976 38.8302 7.31976 38.8402 6.04976C38.8602 3.42976 36.7502 1.26976 34.1302 1.24976C31.5202 1.18976 29.3502 3.33976 29.3302 5.95976C29.3202 7.22976 29.8002 8.42976 30.6902 9.33976C31.5802 10.2498 32.7702 10.7498 34.0402 10.7598ZM34.0802 3.24976H34.1102C35.6302 3.25976 36.8502 4.50976 36.8402 6.02976C36.8402 6.76976 36.5402 7.45976 36.0202 7.96976C35.4902 8.48976 34.8002 8.73976 34.0602 8.75976C33.3202 8.75976 32.6302 8.45976 32.1202 7.92976C31.6002 7.39976 31.3202 6.70976 31.3302 5.96976C31.3402 4.45976 32.5802 3.23976 34.0902 3.23976L34.0802 3.24976Z" fill="#323232"/>
<path d="M30.1094 13.73H35.1894C36.2194 13.73 37.0594 14.57 37.0594 15.61V18.74C37.0594 19.29 37.5094 19.74 38.0594 19.74C38.6094 19.74 39.0594 19.29 39.0594 18.74V15.61C39.0594 13.47 37.3194 11.73 35.1894 11.73H30.1094C29.5594 11.73 29.1094 12.18 29.1094 12.73C29.1094 13.28 29.5594 13.73 30.1094 13.73Z" fill="#323232"/>
<path d="M13.9202 10.7595H13.9702C15.2402 10.7495 16.4302 10.2395 17.3202 9.33955C18.2102 8.42955 18.6902 7.22955 18.6802 5.95955C18.6602 3.33955 16.4902 1.23955 13.8802 1.24955C11.2602 1.26955 9.14024 3.42955 9.17024 6.04955C9.18024 7.31955 9.69024 8.50955 10.5902 9.39955C11.4902 10.2795 12.6702 10.7595 13.9202 10.7595ZM13.9002 3.24955H13.9302C15.4402 3.24955 16.6702 4.46955 16.6902 5.97955C16.6902 6.71955 16.4202 7.40955 15.9002 7.93955C15.3802 8.46955 14.6902 8.75955 13.9602 8.76955C13.2402 8.74955 12.5302 8.49955 12.0002 7.97955C11.4802 7.45955 11.1802 6.76955 11.1802 6.03955C11.1702 4.51955 12.3902 3.26955 13.9102 3.25955L13.9002 3.24955Z" fill="#323232"/>
<path d="M9.93945 19.74C10.4895 19.74 10.9395 19.29 10.9395 18.74V15.61C10.9395 14.58 11.7795 13.73 12.8095 13.73H17.8895C18.4395 13.73 18.8895 13.28 18.8895 12.73C18.8895 12.18 18.4395 11.73 17.8895 11.73H12.8095C10.6695 11.73 8.93945 13.47 8.93945 15.61V18.74C8.93945 19.29 9.38945 19.74 9.93945 19.74Z" fill="#323232"/>
<path d="M43.8493 27.5398C43.0793 26.1798 41.3393 25.6898 39.9893 26.4498L32.9993 30.2098C32.3993 29.3798 31.3893 28.8698 30.4393 28.8698H28.1093C24.4593 28.8698 23.0393 28.5498 21.7993 28.2698C20.8593 28.0598 19.9693 27.8598 18.3993 27.8598C14.6293 27.8598 11.0993 31.1899 9.2393 33.3099L9.0093 33.0799C8.6193 32.6899 7.9893 32.6899 7.5993 33.0799L4.0693 36.6098C3.8793 36.7998 3.7793 37.0498 3.7793 37.3198C3.7793 37.5898 3.8893 37.8398 4.0693 38.0298L12.5193 46.4798C12.7193 46.6798 12.9693 46.7698 13.2293 46.7698C13.4893 46.7698 13.7393 46.6698 13.9393 46.4798L17.4693 42.9499C17.6593 42.7598 17.7593 42.5099 17.7593 42.2399C17.7593 41.9699 17.6493 41.7198 17.4693 41.5298L17.0793 41.1398C18.2693 40.0498 19.9593 38.9998 22.1093 38.9998L29.4193 38.9698C30.4393 38.9698 31.3993 38.7598 32.2893 38.3698C36.0593 36.6998 42.8493 31.4498 43.1293 31.2198C44.2393 30.3498 44.5593 28.7798 43.8593 27.5498L43.8493 27.5398ZM13.2193 44.3398L6.1893 37.3098L8.3093 35.1898L15.3393 42.2199L13.2193 44.3398ZM41.8893 29.6298C39.5293 31.4598 34.2993 35.2698 31.4593 36.5298C30.8293 36.8098 30.1293 36.9498 29.3893 36.9598L22.0793 36.9899C19.1893 36.9899 16.9893 38.4698 15.6493 39.7198L10.6493 34.7198C12.1393 33.0198 15.3193 29.8598 18.3893 29.8598C19.7393 29.8598 20.4493 30.0198 21.3493 30.2198C22.6293 30.5098 24.2293 30.8698 28.0993 30.8698H30.4193C30.9093 30.8698 31.5093 31.2998 31.5093 31.7898C31.5093 32.0798 31.3093 32.2999 31.1893 32.3999C30.9693 32.5899 30.6793 32.7098 30.3993 32.7098L25.1893 32.8698C24.6393 32.8898 24.1993 33.3499 24.2193 33.8999C24.2393 34.4499 24.7093 34.8698 25.2493 34.8698L30.4193 34.7098C31.1593 34.7098 31.9093 34.4198 32.4893 33.9098C33.0193 33.4498 33.3493 32.8598 33.4493 32.2199L40.9193 28.1998C41.3293 27.9698 41.8493 28.1198 42.0893 28.5298C42.2993 28.9098 42.2093 29.3698 41.8693 29.6298H41.8893Z" fill="#323232"/>
</svg>
