<svg width="48" height="48" viewBox="0 0 48 48" fill="none" xmlns="http://www.w3.org/2000/svg">
<path d="M23.1297 17.1802C22.8297 17.1802 22.5297 17.0402 22.3297 16.7802L21.2797 15.3902C20.9497 14.9502 21.0297 14.3202 21.4697 13.9902C21.9097 13.6602 22.5397 13.7402 22.8697 14.1802L23.9197 15.5702C24.2497 16.0102 24.1697 16.6402 23.7297 16.9702C23.5497 17.1102 23.3397 17.1702 23.1297 17.1702V17.1802Z" fill="#323232"/>
<path d="M26.2499 21.3101C25.9499 21.3101 25.6499 21.1701 25.4499 20.9101L24.3999 19.5201C24.0699 19.0801 24.1499 18.4501 24.5899 18.1201C25.0299 17.7901 25.6599 17.8701 25.9899 18.3101L27.0399 19.7001C27.3699 20.1401 27.2899 20.7701 26.8499 21.1001C26.6699 21.2401 26.4599 21.3001 26.2499 21.3001V21.3101Z" fill="#323232"/>
<path d="M29.37 25.4302C29.07 25.4302 28.77 25.2902 28.57 25.0302L27.52 23.6402C27.19 23.2002 27.27 22.5702 27.71 22.2402C28.15 21.9102 28.78 21.9902 29.11 22.4302L30.16 23.8202C30.49 24.2602 30.41 24.8902 29.97 25.2202C29.79 25.3602 29.58 25.4202 29.37 25.4202V25.4302Z" fill="#323232"/>
<path d="M12.9201 40.85C11.9601 40.85 11.0101 40.42 10.3801 39.59L2.39009 29.02C1.88009 28.34 1.66009 27.51 1.78009 26.67C1.90009 25.83 2.33009 25.09 3.01009 24.57L26.2401 7.01001C27.6401 5.96001 29.6301 6.23001 30.6901 7.63001L38.6801 18.2C39.1901 18.88 39.4101 19.71 39.2901 20.55C39.1701 21.39 38.7401 22.13 38.0601 22.64L14.8301 40.2C14.2601 40.63 13.5901 40.84 12.9201 40.84V40.85ZM28.1501 8.37001C27.9001 8.37001 27.6501 8.45001 27.4501 8.61001L4.22009 26.17C3.97009 26.36 3.81009 26.63 3.77009 26.94C3.73009 27.25 3.81009 27.56 4.00009 27.81L11.9901 38.38C12.3801 38.9 13.1201 39 13.6301 38.61L36.8601 21.05C37.1101 20.86 37.2701 20.59 37.3201 20.28C37.3601 19.97 37.2801 19.66 37.0901 19.41L29.1001 8.84001C28.9101 8.59001 28.6401 8.43001 28.3301 8.38001C28.2801 8.38001 28.2201 8.37001 28.1701 8.37001H28.1501Z" fill="#323232"/>
<path d="M19.8504 41.6299C19.3704 41.6299 18.8904 41.5199 18.4404 41.2999C17.9404 41.0499 17.7404 40.4599 17.9904 39.9599C18.2404 39.4599 18.8304 39.2599 19.3304 39.5099C19.7304 39.7099 20.2004 39.6599 20.5604 39.3899L43.7904 21.8299C44.3104 21.4399 44.4104 20.6999 44.0204 20.1899L36.0304 9.61992C35.7204 9.20991 35.1904 9.04992 34.7204 9.21992C34.2004 9.39992 33.6304 9.11992 33.4504 8.59992C33.2704 8.07992 33.5504 7.50992 34.0704 7.32992C35.3704 6.88992 36.8004 7.32992 37.6204 8.41992L45.6104 18.9899C46.1204 19.6699 46.3404 20.4999 46.2204 21.3399C46.1004 22.1799 45.6704 22.9199 44.9904 23.4299L21.7604 40.9899C21.2004 41.4199 20.5304 41.6299 19.8504 41.6299Z" fill="#323232"/>
<path d="M20.5199 24.31C20.8799 24.04 20.9499 23.53 20.6799 23.18C20.4099 22.83 19.8999 22.75 19.5499 23.02L17.3599 24.67C17.2899 24.72 17.2099 24.74 17.1299 24.71L12.6099 23.47C12.3699 23.4 12.1199 23.45 11.9199 23.6L11.6799 23.78C11.5399 23.89 11.5399 24.11 11.6799 24.21L14.6099 26.29C14.7599 26.39 14.7599 26.61 14.6099 26.72L13.0999 27.85C13.0999 27.85 13.0299 27.88 12.9899 27.87L11.4399 27.42C11.3199 27.39 11.1899 27.41 11.0899 27.49C10.9999 27.55 10.8999 27.63 10.8199 27.7C10.7499 27.76 10.7499 27.87 10.8299 27.91C11.2499 28.16 12.3799 28.84 12.6999 29.04C12.7599 29.08 12.7999 29.13 12.8199 29.2C12.9199 29.57 13.2599 30.84 13.3799 31.31C13.3999 31.4 13.5099 31.43 13.5799 31.38C13.6599 31.32 13.7699 31.24 13.8599 31.18C13.9599 31.1 14.0199 30.99 14.0199 30.86V29.25C14.0199 29.25 14.0399 29.17 14.0699 29.15L15.5799 28.02C15.7199 27.91 15.9299 27.97 15.9899 28.15L17.1699 31.55C17.2299 31.72 17.4399 31.78 17.5799 31.68L17.8199 31.5C18.0199 31.35 18.1299 31.12 18.1399 30.87L18.2099 26.18C18.2099 26.1 18.2499 26.02 18.3199 25.97L20.5099 24.32L20.5199 24.31Z" fill="#DF0000"/>
</svg>
