<svg width="48" height="48" viewBox="0 0 48 48" fill="none" xmlns="http://www.w3.org/2000/svg">
<path d="M32.6699 45.3801H28.4699C27.9899 45.3801 27.5699 45.0301 27.4899 44.5601L27.1699 42.7601C26.4799 42.5501 25.8199 42.2701 25.1799 41.9401L23.6699 42.9901C23.2699 43.2701 22.7299 43.2201 22.3899 42.8801L19.4199 39.9101C19.0799 39.5701 19.0299 39.0301 19.3099 38.6301L20.3599 37.1301C20.0199 36.4901 19.7499 35.8301 19.5399 35.1401L17.7399 34.8201C17.2599 34.7301 16.9199 34.3201 16.9199 33.8401V29.6401C16.9199 29.1601 17.2699 28.7401 17.7399 28.6601L19.5399 28.3401C19.7499 27.6501 20.0299 26.9901 20.3599 26.3501L19.3099 24.8501C19.0299 24.4501 19.0799 23.9101 19.4199 23.5701L22.3899 20.6001C22.7299 20.2601 23.2699 20.2101 23.6699 20.4901L25.1799 21.5401C25.8199 21.2001 26.4799 20.9301 27.1699 20.7201L27.4899 18.9201C27.5799 18.4401 27.9899 18.1001 28.4699 18.1001H32.6699C33.1499 18.1001 33.5699 18.4501 33.6499 18.9201L33.9699 20.7201C34.6599 20.9301 35.3199 21.2101 35.9599 21.5401L37.4699 20.4901C37.8699 20.2101 38.4099 20.2601 38.7499 20.6001L41.7199 23.5701C42.0599 23.9101 42.1099 24.4501 41.8299 24.8501L40.7799 26.3601C41.1199 27.0001 41.3899 27.6601 41.5999 28.3501L43.3999 28.6701C43.8799 28.7601 44.2199 29.1701 44.2199 29.6501V33.8501C44.2199 34.3301 43.8699 34.7501 43.3999 34.8301L41.5999 35.1501C41.3899 35.8401 41.1099 36.5001 40.7799 37.1401L41.8299 38.6401C42.1099 39.0401 42.0599 39.5801 41.7199 39.9201L38.7499 42.8901C38.4099 43.2301 37.8699 43.2801 37.4699 43.0001L35.9699 41.9501C35.3299 42.2901 34.6699 42.5601 33.9799 42.7701L33.6599 44.5701C33.5699 45.0501 33.1599 45.3901 32.6799 45.3901L32.6699 45.3801ZM29.2999 43.3801H31.8299L32.1199 41.7801C32.1899 41.3901 32.4799 41.0801 32.8599 40.9901C33.7899 40.7601 34.6799 40.3901 35.4999 39.9001C35.8399 39.7001 36.2599 39.7101 36.5899 39.9401L37.9199 40.8701L39.7099 39.0801L38.7799 37.7501C38.5499 37.4301 38.5399 37.0001 38.7499 36.6601C39.2499 35.8401 39.6099 34.9501 39.8399 34.0201C39.9299 33.6401 40.2499 33.3501 40.6299 33.2701L42.2299 32.9801V30.4501L40.6299 30.1601C40.2399 30.0901 39.9299 29.8001 39.8399 29.4101C39.6099 28.4801 39.2399 27.6001 38.7499 26.7701C38.5499 26.4301 38.5599 26.0101 38.7799 25.6801L39.7099 24.3501L37.9199 22.5601L36.5899 23.4901C36.2699 23.7101 35.8399 23.7301 35.4999 23.5301C34.6799 23.0301 33.7899 22.6701 32.8599 22.4401C32.4799 22.3501 32.1899 22.0301 32.1199 21.6501L31.8299 20.0501H29.2999L29.0099 21.6501C28.9399 22.0401 28.6499 22.3501 28.2699 22.4401C27.3399 22.6701 26.4499 23.0401 25.6299 23.5301C25.2899 23.7301 24.8699 23.7201 24.5399 23.5001L23.2099 22.5701L21.4199 24.3601L22.3499 25.6901C22.5799 26.0101 22.5899 26.4401 22.3799 26.7801C21.8799 27.6001 21.5199 28.4901 21.2899 29.4201C21.1999 29.8001 20.8799 30.0901 20.4999 30.1601L18.8999 30.4501V32.9801L20.4999 33.2701C20.8899 33.3401 21.1999 33.6301 21.2899 34.0101C21.5199 34.9401 21.8899 35.8301 22.3799 36.6501C22.5799 36.9901 22.5699 37.4101 22.3499 37.7401L21.4199 39.0701L23.2099 40.8601L24.5399 39.9301C24.8599 39.7101 25.2899 39.6901 25.6299 39.9001C26.4499 40.4001 27.3299 40.7601 28.2599 40.9901C28.6399 41.0801 28.9299 41.4001 28.9999 41.7801L29.2899 43.3801H29.2999ZM30.5699 37.5101C27.3699 37.5101 24.7599 34.9101 24.7599 31.7001C24.7599 28.4901 27.3599 25.9001 30.5599 25.9001C33.7599 25.9001 36.3599 28.5001 36.3599 31.7001C36.3599 34.9001 33.7599 37.5101 30.5599 37.5101H30.5699ZM30.5699 27.9001C28.4699 27.9001 26.7699 29.6101 26.7699 31.7001C26.7699 33.7901 28.4799 35.5101 30.5799 35.5101C32.6799 35.5101 34.3799 33.8001 34.3799 31.7001C34.3799 29.6001 32.6699 27.9001 30.5799 27.9001H30.5699Z" fill="#323232"/>
<path d="M22.2691 13.8301V10.9301L20.5991 10.6301C20.4191 9.91014 20.1391 9.23014 19.7691 8.62014L20.7391 7.22014L18.6891 5.17014L17.2891 6.14014C16.6691 5.77014 15.9991 5.48014 15.2791 5.31014L14.9791 3.64014H12.0791L11.7791 5.31014C11.0591 5.49014 10.3791 5.77014 9.76906 6.14014L8.36906 5.17014L6.31906 7.22014L7.28906 8.62014C6.91906 9.24014 6.62906 9.91014 6.45906 10.6301L4.78906 10.9301V13.8301L6.45906 14.1301C6.63906 14.8501 6.91906 15.5301 7.28906 16.1401L6.31906 17.5401L8.36906 19.5901L9.76906 18.6201C10.3891 18.9901 11.0591 19.2801 11.7791 19.4501L12.0791 21.1201H14.9791L15.2791 19.4501C15.9991 19.2701 16.6791 18.9901 17.2891 18.6201L18.6891 19.5901L20.7391 17.5401L19.7691 16.1401C20.1391 15.5201 20.4291 14.8501 20.5991 14.1301L22.2691 13.8301ZM13.5091 15.7001C11.6791 15.7001 10.1891 14.2101 10.1891 12.3801C10.1891 10.5501 11.6791 9.06014 13.5091 9.06014C15.3391 9.06014 16.8291 10.5501 16.8291 12.3801C16.8291 14.2101 15.3391 15.7001 13.5091 15.7001Z" fill="#8DE2E0"/>
<path d="M14.9595 22.1299H12.0595C11.5795 22.1299 11.1595 21.7799 11.0795 21.3099L10.8895 20.2499C10.5195 20.1299 10.1595 19.9799 9.80953 19.7999L8.91953 20.4199C8.51953 20.6999 7.97953 20.6499 7.63953 20.3099L5.58953 18.2599C5.24953 17.9199 5.19953 17.3799 5.47953 16.9799L6.09953 16.0899C5.92953 15.7399 5.77953 15.3799 5.64953 15.0099L4.58953 14.8199C4.10953 14.7299 3.76953 14.3199 3.76953 13.8399V10.9399C3.76953 10.4599 4.11953 10.0399 4.58953 9.9599L5.64953 9.7699C5.76953 9.3999 5.91953 9.0399 6.09953 8.6899L5.47953 7.7999C5.19953 7.3999 5.24953 6.8599 5.58953 6.5199L7.63953 4.4699C7.97953 4.1299 8.51953 4.0799 8.91953 4.3599L9.80953 4.9799C10.1595 4.8099 10.5195 4.6599 10.8895 4.5299L11.0795 3.4699C11.1695 2.9899 11.5795 2.6499 12.0595 2.6499H14.9595C15.4395 2.6499 15.8595 2.9999 15.9395 3.4699L16.1295 4.5299C16.4995 4.6499 16.8595 4.7999 17.2095 4.9799L18.0995 4.3599C18.4995 4.0799 19.0395 4.1299 19.3795 4.4699L21.4295 6.5199C21.7695 6.8599 21.8195 7.3999 21.5395 7.7999L20.9195 8.6899C21.0895 9.0399 21.2395 9.3999 21.3695 9.7699L22.4295 9.9599C22.9095 10.0499 23.2495 10.4599 23.2495 10.9399V13.8399C23.2495 14.3199 22.8995 14.7399 22.4295 14.8199L21.3695 15.0099C21.2495 15.3799 21.0995 15.7399 20.9195 16.0899L21.5395 16.9799C21.8195 17.3799 21.7695 17.9199 21.4295 18.2599L19.3795 20.3099C19.0395 20.6499 18.4995 20.6999 18.0995 20.4199L17.2095 19.7999C16.8595 19.9699 16.4995 20.1199 16.1295 20.2499L15.9395 21.3099C15.8495 21.7899 15.4395 22.1299 14.9595 22.1299ZM12.8995 20.1299H14.1295L14.2795 19.2799C14.3495 18.8899 14.6395 18.5799 15.0295 18.4899C15.6395 18.3399 16.2195 18.0999 16.7695 17.7699C17.1095 17.5699 17.5295 17.5799 17.8595 17.8099L18.5695 18.2999L19.4395 17.4299L18.9495 16.7199C18.7195 16.3999 18.7095 15.9699 18.9195 15.6299C19.2495 15.0899 19.4895 14.5099 19.6395 13.8999C19.7295 13.5199 20.0495 13.2299 20.4295 13.1499L21.2795 12.9999V11.7699L20.4295 11.6199C20.0395 11.5499 19.7295 11.2599 19.6395 10.8699C19.4895 10.2599 19.2495 9.6799 18.9195 9.1299C18.7195 8.7899 18.7295 8.3699 18.9495 8.0399L19.4395 7.3299L18.5695 6.4599L17.8595 6.9499C17.5395 7.1799 17.1095 7.1899 16.7695 6.9899C16.2295 6.6599 15.6495 6.4199 15.0295 6.2699C14.6495 6.1799 14.3595 5.8599 14.2895 5.4799L14.1395 4.6299H12.9095L12.7595 5.4799C12.6895 5.8699 12.3995 6.1799 12.0195 6.2699C11.4095 6.4199 10.8195 6.6599 10.2795 6.9899C9.93953 7.1899 9.51953 7.1799 9.18953 6.9599L8.47953 6.4699L7.60953 7.3399L8.09953 8.0499C8.32953 8.3699 8.33953 8.7999 8.13953 9.1399C7.80953 9.6799 7.56953 10.2599 7.41953 10.8799C7.32953 11.2599 7.00953 11.5499 6.62953 11.6199L5.77953 11.7699V12.9999L6.62953 13.1499C7.01953 13.2199 7.32953 13.5099 7.41953 13.8899C7.56953 14.4999 7.80953 15.0899 8.13953 15.6299C8.33953 15.9699 8.32953 16.3899 8.10953 16.7199L7.61953 17.4299L8.48953 18.2999L9.19953 17.8099C9.51953 17.5899 9.94953 17.5699 10.2895 17.7799C10.8295 18.1099 11.4095 18.3499 12.0195 18.4999C12.3995 18.5899 12.6995 18.9099 12.7595 19.2899L12.9095 20.1399L12.8995 20.1299ZM13.5095 16.6999C11.1295 16.6999 9.18953 14.7599 9.18953 12.3799C9.18953 9.9999 11.1295 8.0599 13.5095 8.0599C15.8895 8.0599 17.8295 9.9999 17.8295 12.3799C17.8295 14.7599 15.8895 16.6999 13.5095 16.6999ZM13.5095 10.0599C12.2295 10.0599 11.1895 11.0999 11.1895 12.3799C11.1895 13.6599 12.2295 14.6999 13.5095 14.6999C14.7895 14.6999 15.8295 13.6599 15.8295 12.3799C15.8295 11.0999 14.7895 10.0599 13.5095 10.0599Z" fill="#323232"/>
</svg>
