<svg width="48" height="48" viewBox="0 0 48 48" fill="none" xmlns="http://www.w3.org/2000/svg">
<path d="M23.9996 7.14014C17.8396 7.14014 12.8496 12.1301 12.8496 18.2901C12.8496 21.6801 14.3596 24.7201 16.7496 26.7701L16.7696 26.7301C17.1296 26.0201 17.8296 25.2501 19.1796 24.8401L20.4496 24.4401C20.4496 24.4401 21.2396 26.0401 23.9996 26.0401C26.7596 26.0401 27.5496 24.4401 27.5496 24.4401L28.8196 24.8401C30.1896 25.2501 30.8796 26.0301 31.2396 26.7501C33.6296 24.7201 35.1396 21.6801 35.1396 18.2901C35.1396 12.1301 30.1496 7.14014 23.9896 7.14014H23.9996ZM28.8796 20.1701C28.4396 21.4901 27.5696 22.6201 26.3896 23.3901C25.5396 23.8901 24.7396 24.0501 24.0396 24.0501C22.6796 24.0501 21.7296 23.4201 21.6696 23.3801C20.4996 22.6901 19.5996 21.5501 19.1796 20.2201C18.3396 19.9401 17.5996 19.0701 17.5996 17.2801C17.5996 16.7101 17.7896 15.8601 18.3196 15.3301C18.3996 15.2501 18.4796 15.1901 18.5596 15.1301V14.3801C18.5596 10.7501 21.3696 9.13014 24.1596 9.13014C26.5996 9.13014 29.4396 10.5101 29.4396 14.4101V15.0501C30.3996 15.5001 30.3996 16.7901 30.3996 17.2701C30.3996 19.2801 29.5396 19.9601 28.8796 20.1801V20.1701Z" fill="#8DE2E0"/>
<path d="M37.3699 45.5H10.6299C8.97988 45.5 7.62988 44.15 7.62988 42.5V5.5C7.62988 3.85 8.97988 2.5 10.6299 2.5H37.3699C39.0199 2.5 40.3699 3.85 40.3699 5.5V42.5C40.3699 44.15 39.0199 45.5 37.3699 45.5ZM10.6299 4.5C10.0799 4.5 9.62988 4.95 9.62988 5.5V42.5C9.62988 43.05 10.0799 43.5 10.6299 43.5H37.3699C37.9199 43.5 38.3699 43.05 38.3699 42.5V5.5C38.3699 4.95 37.9199 4.5 37.3699 4.5H10.6299Z" fill="#323232"/>
<path d="M33.1701 34.8999H14.8301C14.2801 34.8999 13.8301 34.4499 13.8301 33.8999C13.8301 33.3499 14.2801 32.8999 14.8301 32.8999H33.1801C33.7301 32.8999 34.1801 33.3499 34.1801 33.8999C34.1801 34.4499 33.7301 34.8999 33.1801 34.8999H33.1701Z" fill="#323232"/>
<path d="M26.0303 40.3999H14.8203C14.2703 40.3999 13.8203 39.9499 13.8203 39.3999C13.8203 38.8499 14.2703 38.3999 14.8203 38.3999H26.0303C26.5803 38.3999 27.0303 38.8499 27.0303 39.3999C27.0303 39.9499 26.5803 40.3999 26.0303 40.3999Z" fill="#323232"/>
<path d="M23.9996 30.4499C17.2996 30.4499 11.8496 24.9999 11.8496 18.2999C11.8496 11.5999 17.2996 6.1499 23.9996 6.1499C30.6996 6.1499 36.1496 11.5999 36.1496 18.2999C36.1496 24.9999 30.6996 30.4499 23.9996 30.4499ZM23.9996 8.1399C18.3996 8.1399 13.8496 12.6999 13.8496 18.2899C13.8496 23.8799 18.3996 28.4399 23.9996 28.4399C29.5996 28.4399 34.1496 23.8899 34.1496 18.2899C34.1496 12.6899 29.5996 8.1399 23.9996 8.1399Z" fill="#323232"/>
<path d="M24.0396 24.2502C22.6097 24.2502 21.6196 23.5902 21.5496 23.5502C20.3696 22.8602 19.4596 21.7202 19.0096 20.3802C18.1296 20.0502 17.3896 19.1202 17.3896 17.2802C17.3896 16.6702 17.5896 15.7602 18.1596 15.1902C18.2196 15.1302 18.2796 15.0802 18.3496 15.0302V14.3802C18.3496 10.6102 21.2596 8.93018 24.1496 8.93018C26.6796 8.93018 29.6296 10.3702 29.6296 14.4102V14.9302C30.2696 15.2902 30.5896 16.0802 30.5896 17.2702C30.5896 19.3102 29.7396 20.0702 29.0296 20.3402C28.5696 21.6702 27.6796 22.8002 26.4896 23.5702C25.5996 24.0902 24.7596 24.2602 24.0296 24.2602L24.0396 24.2502ZM19.5396 16.6602C19.4697 16.7902 19.3896 17.0402 19.3896 17.2702C19.3896 17.7702 19.4996 18.5102 19.8096 18.5102C20.2796 18.5102 20.6897 18.8402 20.7896 19.3102C21.0096 20.3702 21.6796 21.3002 22.6196 21.8502C22.7196 21.9102 23.9796 22.7102 25.4496 21.8502C26.3496 21.2602 27.0096 20.3302 27.2796 19.2402C27.3896 18.8002 27.7796 18.4802 28.2396 18.4702C28.5996 18.4702 28.6096 17.3002 28.6096 17.2502C28.6096 17.1002 28.6096 16.8302 28.5796 16.6702C28.0696 16.6202 27.6496 16.1902 27.6496 15.6702V15.0702C27.6196 14.7402 27.3996 13.4702 26.0896 13.4702C25.2696 13.4702 24.7896 13.8202 24.0696 14.3602C23.1996 15.0002 22.1596 15.7802 20.3196 15.9802C20.2696 16.1302 20.1896 16.2702 20.0696 16.3802C19.9296 16.5202 19.7396 16.6202 19.5496 16.6502L19.5396 16.6602ZM24.1596 10.9202C23.5496 10.9202 20.6296 11.0702 20.3796 13.9602C21.4996 13.7702 22.1697 13.2802 22.8696 12.7602C23.6796 12.1602 24.5996 11.4802 26.0796 11.4802C26.1496 11.4802 26.2296 11.4802 26.2996 11.4802C25.5596 11.0002 24.6796 10.9102 24.1596 10.9102V10.9202Z" fill="#323232"/>
<path d="M31.2505 27.7699C30.8805 27.7699 30.5205 27.5599 30.3505 27.2099C30.0205 26.5399 29.4205 26.0699 28.5405 25.8099L27.9105 25.6099C27.3005 26.2399 26.1005 27.0499 24.0005 27.0499C21.9005 27.0499 20.7105 26.2399 20.0905 25.6099L19.4705 25.8099C18.5805 26.0799 17.9705 26.5499 17.6405 27.2199C17.4005 27.7199 16.8005 27.9199 16.3005 27.6799C15.8005 27.4399 15.6005 26.8399 15.8405 26.3399C16.2405 25.5199 17.0905 24.4299 18.8805 23.8999L20.1405 23.4999C20.6205 23.3499 21.1205 23.5699 21.3405 24.0099C21.3505 24.0299 21.9505 25.0499 23.9905 25.0499C26.0305 25.0499 26.6305 24.0299 26.6605 23.9799C26.8905 23.5699 27.4005 23.3499 27.8505 23.4899L29.1205 23.8899C30.8905 24.4199 31.7405 25.5099 32.1405 26.3299C32.3805 26.8299 32.1805 27.4299 31.6805 27.6699C31.5405 27.7399 31.3905 27.7699 31.2405 27.7699H31.2505Z" fill="#323232"/>
</svg>
