<svg width="24" height="24" viewBox="0 0 24 24" fill="none" xmlns="http://www.w3.org/2000/svg">
<g clip-path="url(#clip0_16335_6282)">
<path d="M23.9413 13.1802C24.5938 6.58494 19.7762 0.709521 13.181 0.057043C6.58578 -0.595435 0.710359 4.22211 0.0578813 10.8173C-0.594597 17.4126 4.22295 23.288 10.8182 23.9404C17.4134 24.5929 23.2888 19.7754 23.9413 13.1802Z" fill="white"/>
<mask id="mask0_16335_6282" style="mask-type:luminance" maskUnits="userSpaceOnUse" x="-1" y="-1" width="26" height="25">
<path d="M23.9413 13.1802C24.5938 6.58501 19.7762 0.709582 13.181 0.057104C6.58578 -0.595374 0.710359 4.22217 0.0578813 10.8174C-0.594597 17.4126 4.22295 23.288 10.8182 23.9405C17.4134 24.593 23.2888 19.7754 23.9413 13.1802Z" fill="white"/>
</mask>
<g mask="url(#mask0_16335_6282)">
<path d="M32.403 0H-3.59705V24H32.403V0Z" fill="white"/>
<path d="M32.403 12H8.37921V24H32.403V12Z" fill="#007C29"/>
<path d="M32.403 0H8.37921V12H32.403V0Z" fill="#FF0000"/>
</g>
</g>
<rect x="0.25" y="0.25" width="23.5" height="23.5" rx="11.75" stroke="#E5E3E1" stroke-width="0.5"/>
<defs>
<clipPath id="clip0_16335_6282">
<rect width="24" height="24" rx="12" fill="white"/>
</clipPath>
</defs>
</svg>
