<svg width="24" height="24" viewBox="0 0 24 24" fill="none" xmlns="http://www.w3.org/2000/svg">
<path fill-rule="evenodd" clip-rule="evenodd" d="M12 22C6.47715 22 2 17.5228 2 12C2 6.47715 6.47715 2 12 2C17.5228 2 22 6.47715 22 12C22 17.5228 17.5228 22 12 22ZM12 20C16.4183 20 20 16.4183 20 12C20 7.58172 16.4183 4 12 4C7.58172 4 4 7.58172 4 12C4 16.4183 7.58172 20 12 20ZM7.94244 8.34158C8.08135 8.21629 8.21183 8.081 8.34033 7.94465C8.83326 7.42165 9.58581 7.5228 10.0222 8.05305C10.1644 8.22586 10.2365 8.42415 10.2894 8.63652C10.375 8.97953 10.4849 9.31712 10.5557 9.66295C10.6276 10.0141 10.5228 10.3311 10.2794 10.5958C10.1696 10.7152 10.0467 10.8226 9.93814 10.9431C9.9096 10.9749 9.89182 11.0413 9.90391 11.0811C10.3398 12.5093 11.264 13.4836 12.6495 14.0228C12.9879 14.1545 12.9986 14.1557 13.2465 13.8844C13.5108 13.5952 13.819 13.414 14.2176 13.4339C14.3567 13.4409 14.4955 13.4811 14.6316 13.517C14.937 13.5977 15.2416 13.682 15.5448 13.7704C16.1414 13.9444 16.6534 14.6933 16.2642 15.4092C16.2174 15.4953 16.1478 15.5713 16.0791 15.6427C15.9032 15.8258 15.7254 16.0074 15.5413 16.1822C15.3875 16.3285 15.1935 16.3985 14.985 16.3999C14.3537 16.4039 13.733 16.3162 13.1223 16.1562C11.7998 15.8098 10.6595 15.1449 9.70482 14.169C9.00753 13.4561 8.48156 12.6285 8.11763 11.6971C7.79735 10.8777 7.63812 10.0279 7.60241 9.05957C7.58118 8.8239 7.70055 8.55986 7.94244 8.34158Z" fill="#323232"/>
</svg>
