<svg width="48" height="48" viewBox="0 0 48 48" fill="none" xmlns="http://www.w3.org/2000/svg">
<path d="M36.8809 4.06957V36.3096C40.9109 35.7696 43.7309 34.6096 43.7309 33.2796V7.09957C43.7309 5.74957 40.9209 4.59957 36.8809 4.05957V4.06957Z" fill="#8DE2E0"/>
<path d="M21.0801 27.3398V43.9398C25.1201 43.3998 27.9501 42.2398 27.9501 40.8998V30.3798C27.9501 29.0298 25.1401 27.8698 21.0801 27.3398Z" fill="#8DE2E0"/>
<path d="M31.8898 2.75C25.7098 2.75 19.0498 4.11 19.0498 7.1C19.0498 7.15 19.0698 7.2 19.0698 7.26C19.0698 7.3 19.0498 7.33 19.0498 7.37V26.13C18.0698 26.06 17.0798 26.02 16.0998 26.02C9.91977 26.02 3.25977 27.38 3.25977 30.37C3.25977 30.42 3.27977 30.47 3.27977 30.53C3.27977 30.57 3.25977 30.6 3.25977 30.64V40.9C3.25977 43.89 9.90977 45.25 16.0998 45.25C22.2898 45.25 28.9398 43.89 28.9398 40.9V37.51C29.8898 37.58 30.8698 37.63 31.8898 37.63C38.0698 37.63 44.7298 36.27 44.7298 33.28V7.1C44.7298 4.11 38.0798 2.75 31.8898 2.75ZM42.7298 22.75C42.5998 23.4 39.0698 25.11 31.8898 25.11C24.7098 25.11 21.1898 23.4 21.0498 22.75V19.98C23.4898 21.25 27.7898 21.85 31.8898 21.85C35.9898 21.85 40.2898 21.25 42.7298 19.97V22.75ZM42.7298 17.49C42.5998 18.14 39.0698 19.85 31.8898 19.85C24.7098 19.85 21.1898 18.14 21.0498 17.49V14.72C23.4898 15.99 27.7898 16.59 31.8898 16.59C35.9898 16.59 40.2898 15.99 42.7298 14.71V17.49ZM42.7298 12.23C42.5998 12.88 39.0698 14.59 31.8898 14.59C24.7098 14.59 21.1898 12.88 21.0498 12.23V9.58C23.4898 10.86 27.7798 11.46 31.8898 11.46C35.9998 11.46 40.2898 10.86 42.7298 9.58V12.23ZM31.8898 4.75C38.7698 4.75 42.6098 6.4 42.7298 7.1C42.6098 7.8 38.7798 9.46 31.8898 9.46C24.9998 9.46 21.1698 7.81 21.0498 7.11C21.1698 6.41 24.9998 4.75 31.8898 4.75ZM21.0498 26.17V25.23C23.4898 26.5 27.7898 27.1 31.8898 27.1C35.9898 27.1 40.2898 26.5 42.7298 25.22V28C42.5998 28.65 39.0698 30.36 31.8898 30.36C30.8698 30.36 29.8798 30.31 28.9298 30.24C28.7798 28.13 25.2798 26.86 21.0298 26.32C21.0298 26.27 21.0598 26.22 21.0598 26.17H21.0498ZM5.26977 35.63V32.84C7.70977 34.12 11.9998 34.72 16.1098 34.72C20.2198 34.72 24.5098 34.12 26.9498 32.84V35.63C26.8298 36.28 23.3298 37.99 16.1098 37.99C8.88977 37.99 5.39977 36.28 5.26977 35.63ZM16.1098 28.02C22.9898 28.02 26.8298 29.67 26.9498 30.37C26.8298 31.07 22.9998 32.73 16.1098 32.73C9.21977 32.73 5.38977 31.08 5.26977 30.38C5.38977 29.68 9.21977 28.02 16.1098 28.02ZM16.1098 43.25C8.92977 43.25 5.39977 41.54 5.26977 40.9V38.11C7.70977 39.39 11.9998 39.99 16.1098 39.99C20.2198 39.99 24.5098 39.39 26.9498 38.11V40.89C26.8198 41.54 23.2898 43.25 16.1098 43.25ZM31.8898 35.63C30.8698 35.63 29.8898 35.58 28.9398 35.51V32.25C29.8898 32.32 30.8698 32.37 31.8898 32.37C35.9898 32.37 40.2898 31.77 42.7298 30.49V33.27C42.5998 33.92 39.0698 35.63 31.8898 35.63Z" fill="#323232"/>
</svg>
