<svg width="48" height="48" viewBox="0 0 48 48" fill="none" xmlns="http://www.w3.org/2000/svg">
<path d="M30.44 19.8094C30.18 19.8094 29.93 19.7094 29.73 19.5194C29.34 19.1294 29.34 18.4994 29.73 18.1094L33.9 13.9394C34.09 13.7494 34.34 13.6494 34.61 13.6494C34.88 13.6494 35.13 13.7594 35.32 13.9394L39.49 18.1094C39.88 18.4994 39.88 19.1294 39.49 19.5194C39.1 19.9094 38.47 19.9094 38.08 19.5194L34.61 16.0494L31.14 19.5194C30.94 19.7194 30.69 19.8094 30.43 19.8094H30.44Z" fill="#DF0000"/>
<path d="M30.44 15.2596C30.18 15.2596 29.93 15.1596 29.73 14.9696C29.34 14.5796 29.34 13.9496 29.73 13.5596L33.9 9.38961C34.09 9.19961 34.34 9.09961 34.61 9.09961C34.88 9.09961 35.13 9.20961 35.32 9.38961L39.49 13.5596C39.88 13.9496 39.88 14.5796 39.49 14.9696C39.1 15.3596 38.47 15.3596 38.08 14.9696L34.61 11.4996L31.14 14.9696C30.94 15.1696 30.69 15.2596 30.43 15.2596H30.44Z" fill="#DF0000"/>
<path d="M40.41 26C39.86 26 39.41 26.45 39.41 27V33.76C39.41 33.88 39.31 33.98 39.19 33.98H4.97C4.85 33.98 4.75 33.88 4.75 33.76V11.76C4.75 11.64 4.85 11.54 4.97 11.54H22.49C23.04 11.54 23.49 11.09 23.49 10.54C23.49 9.99004 23.04 9.54004 22.49 9.54004H4.97C3.74 9.54004 2.75 10.54 2.75 11.76V33.76C2.75 34.99 3.75 35.98 4.97 35.98H21.08V41.31H15.97C15.42 41.31 14.97 41.76 14.97 42.31C14.97 42.86 15.42 43.31 15.97 43.31H28.19C28.74 43.31 29.19 42.86 29.19 42.31C29.19 41.76 28.74 41.31 28.19 41.31H23.08V35.98H39.19C40.42 35.98 41.41 34.98 41.41 33.76V27C41.41 26.45 40.96 26 40.41 26Z" fill="#323232"/>
<path d="M36.7399 32.3102H7.41992C6.86992 32.3102 6.41992 31.8602 6.41992 31.3102V14.2002C6.41992 13.6502 6.86992 13.2002 7.41992 13.2002H21.6999C22.2499 13.2002 22.6999 13.6502 22.6999 14.2002C22.6999 14.7502 22.2499 15.2002 21.6999 15.2002H8.41992V30.3102H35.7499V28.1402C35.7499 27.5902 36.1999 27.1402 36.7499 27.1402C37.2999 27.1402 37.7499 27.5902 37.7499 28.1402V31.3102C37.7499 31.8602 37.2999 32.3102 36.7499 32.3102H36.7399Z" fill="#323232"/>
<path fill-rule="evenodd" clip-rule="evenodd" d="M22.4707 16.5098H9.7207V24.7298L22.4707 16.5098Z" fill="#8DE2E0"/>
<path d="M34.75 25.6904C28.96 25.6904 24.25 20.9804 24.25 15.1904C24.25 9.40043 28.96 4.69043 34.75 4.69043C40.54 4.69043 45.25 9.40043 45.25 15.1904C45.25 20.9804 40.54 25.6904 34.75 25.6904ZM34.75 6.69043C30.06 6.69043 26.25 10.5004 26.25 15.1904C26.25 19.8804 30.06 23.6904 34.75 23.6904C39.44 23.6904 43.25 19.8804 43.25 15.1904C43.25 10.5004 39.44 6.69043 34.75 6.69043Z" fill="#323232"/>
</svg>
